<?xml version="1.0" encoding="utf-8" standalone="no"?>
<!DOCTYPE svg PUBLIC "-//W3C//DTD SVG 1.1//EN"
  "http://www.w3.org/Graphics/SVG/1.1/DTD/svg11.dtd">
<svg xmlns:xlink="http://www.w3.org/1999/xlink" width="720pt" height="432pt" viewBox="0 0 720 432" xmlns="http://www.w3.org/2000/svg" version="1.1">
 <metadata>
  <rdf:RDF xmlns:dc="http://purl.org/dc/elements/1.1/" xmlns:cc="http://creativecommons.org/ns#" xmlns:rdf="http://www.w3.org/1999/02/22-rdf-syntax-ns#">
   <cc:Work>
    <dc:type rdf:resource="http://purl.org/dc/dcmitype/StillImage"/>
    <dc:date>2025-04-16T01:12:55.960059</dc:date>
    <dc:format>image/svg+xml</dc:format>
    <dc:creator>
     <cc:Agent>
      <dc:title>Matplotlib v3.10.0, https://matplotlib.org/</dc:title>
     </cc:Agent>
    </dc:creator>
   </cc:Work>
  </rdf:RDF>
 </metadata>
 <defs>
  <style type="text/css">*{stroke-linejoin: round; stroke-linecap: butt}</style>
 </defs>
 <g id="figure_1">
  <g id="patch_1">
   <path d="M 0 432 
L 720 432 
L 720 0 
L 0 0 
z
" style="fill: #ffffff"/>
  </g>
  <g id="axes_1">
   <g id="patch_2">
    <path d="M 54.02 390.04 
L 709.2 390.04 
L 709.2 10.8 
L 54.02 10.8 
z
" style="fill: #ffffff"/>
   </g>
   <g id="FillBetweenPolyCollection_1">
    <path d="M 83.800909 120.833856 
L 83.800909 372.801818 
L 87.091617 341.381326 
L 90.382325 318.216792 
L 93.673034 303.20399 
L 96.963742 272.112295 
L 100.25445 251.602991 
L 103.545158 235.249977 
L 106.835866 184.368256 
L 110.126575 134.813243 
L 113.417283 84.89233 
L 116.707991 66.613182 
L 119.998699 42.062922 
L 123.289407 44.019588 
L 126.580116 48.240341 
L 129.870824 41.56012 
L 133.161532 43.969208 
L 136.45224 31.227541 
L 139.742948 37.166183 
L 143.033656 28.379899 
L 146.324365 33.733466 
L 149.615073 32.366597 
L 152.905781 29.632861 
L 156.196489 31.79707 
L 159.487197 30.544107 
L 162.777906 28.379899 
L 166.068614 28.265993 
L 169.359322 30.658013 
L 172.65003 28.493804 
L 175.940738 28.038182 
L 179.231447 28.60771 
L 182.522155 28.038182 
L 185.812863 28.60771 
L 189.103571 28.265993 
L 192.394279 28.152087 
L 195.684987 28.265993 
L 198.975696 28.379899 
L 202.266404 28.265993 
L 205.557112 28.835522 
L 208.84782 29.860673 
L 212.138528 28.265993 
L 215.429237 28.152087 
L 218.719945 28.265993 
L 222.010653 28.152087 
L 225.301361 28.152087 
L 228.592069 28.152087 
L 231.882777 28.152087 
L 235.173486 28.265993 
L 238.464194 28.379899 
L 241.754902 28.379899 
L 245.04561 28.152087 
L 248.336318 29.974579 
L 251.627027 28.038182 
L 254.917735 28.152087 
L 258.208443 28.038182 
L 261.499151 28.152087 
L 264.789859 28.493804 
L 268.080568 28.038182 
L 271.371276 28.265993 
L 274.661984 28.152087 
L 277.952692 28.038182 
L 281.2434 28.038182 
L 284.534108 28.265993 
L 287.824817 28.265993 
L 291.115525 28.835522 
L 294.406233 28.949427 
L 297.696941 28.038182 
L 300.987649 28.038182 
L 304.278358 28.038182 
L 307.569066 28.038182 
L 310.859774 28.152087 
L 314.150482 28.721616 
L 317.44119 28.265993 
L 320.731899 28.038182 
L 324.022607 28.038182 
L 327.313315 28.038182 
L 330.604023 28.265993 
L 333.894731 28.835522 
L 337.185439 28.038182 
L 340.476148 28.379899 
L 343.766856 28.493804 
L 347.057564 28.379899 
L 350.348272 29.40505 
L 353.63898 28.379899 
L 356.929689 28.835522 
L 360.220397 28.038182 
L 363.511105 28.152087 
L 366.801813 28.379899 
L 370.092521 30.544105 
L 373.38323 40.681705 
L 376.673938 45.23793 
L 379.964646 48.274296 
L 383.255354 50.116329 
L 386.546062 50.560503 
L 389.83677 52.931014 
L 393.127479 57.810226 
L 396.418187 60.001771 
L 399.708895 59.972468 
L 402.999603 60.255556 
L 406.290311 60.208375 
L 409.58102 61.905512 
L 412.871728 60.569635 
L 416.162436 60.208375 
L 419.453144 60.066831 
L 422.743852 60.351583 
L 426.034561 60.208375 
L 429.325269 60.901568 
L 432.615977 60.255556 
L 435.906685 60.236013 
L 439.197393 60.255556 
L 442.488101 60.255556 
L 445.77881 60.161193 
L 449.069518 60.255556 
L 452.360226 60.196927 
L 455.650934 60.236013 
L 458.941642 59.473831 
L 462.232351 57.480434 
L 465.523059 56.757338 
L 468.813767 56.522821 
L 472.104475 56.835511 
L 475.395183 56.425106 
L 478.685892 56.425106 
L 481.9766 56.483735 
L 485.267308 56.405562 
L 488.558016 56.444649 
L 491.848724 56.366476 
L 495.139432 56.346933 
L 498.430141 56.366476 
L 501.720849 56.346933 
L 505.011557 56.346933 
L 508.302265 56.346933 
L 511.592973 56.366476 
L 514.883682 56.346933 
L 518.17439 56.346933 
L 521.465098 56.346933 
L 524.755806 56.346933 
L 528.046514 56.346933 
L 531.337223 56.346933 
L 534.627931 56.346933 
L 537.918639 56.346933 
L 541.209347 57.752888 
L 544.500055 56.366476 
L 547.790763 56.386019 
L 551.081472 56.346933 
L 554.37218 56.346933 
L 557.662888 56.346933 
L 560.953596 56.346933 
L 564.244304 56.425106 
L 567.535013 56.346933 
L 570.825721 56.346933 
L 574.116429 56.346933 
L 577.407137 56.346933 
L 580.697845 56.346933 
L 583.988553 56.366476 
L 587.279262 56.366476 
L 590.56997 56.346933 
L 593.860678 56.346933 
L 597.151386 56.346933 
L 600.442094 56.366476 
L 603.732803 56.346933 
L 607.023511 56.346933 
L 610.314219 56.346933 
L 613.604927 56.346933 
L 616.895635 56.346933 
L 620.186344 56.346933 
L 623.477052 56.346933 
L 626.76776 56.346933 
L 630.058468 56.346933 
L 633.349176 56.346933 
L 636.639884 56.346933 
L 639.930593 56.346933 
L 643.221301 56.346933 
L 646.512009 56.346933 
L 649.802717 56.346933 
L 653.093425 56.346933 
L 656.384134 57.713802 
L 659.674842 56.346933 
L 662.96555 56.346933 
L 666.256258 56.346933 
L 669.546966 56.346933 
L 672.837675 56.346933 
L 676.128383 56.346933 
L 679.419091 56.386019 
L 679.419091 56.119122 
L 679.419091 56.119122 
L 676.128383 56.346933 
L 672.837675 56.346933 
L 669.546966 56.346933 
L 666.256258 56.346933 
L 662.96555 56.346933 
L 659.674842 56.346933 
L 656.384134 56.112415 
L 653.093425 56.346933 
L 649.802717 56.346933 
L 646.512009 56.346933 
L 643.221301 56.346933 
L 639.930593 56.346933 
L 636.639884 56.346933 
L 633.349176 56.346933 
L 630.058468 56.346933 
L 626.76776 56.346933 
L 623.477052 56.346933 
L 620.186344 56.346933 
L 616.895635 56.346933 
L 613.604927 56.346933 
L 610.314219 56.346933 
L 607.023511 56.346933 
L 603.732803 56.346933 
L 600.442094 56.233027 
L 597.151386 56.346933 
L 593.860678 56.346933 
L 590.56997 56.346933 
L 587.279262 56.233027 
L 583.988553 56.233027 
L 580.697845 56.346933 
L 577.407137 56.346933 
L 574.116429 56.346933 
L 570.825721 56.346933 
L 567.535013 56.346933 
L 564.244304 55.891311 
L 560.953596 56.346933 
L 557.662888 56.346933 
L 554.37218 56.346933 
L 551.081472 56.346933 
L 547.790763 56.119122 
L 544.500055 56.233027 
L 541.209347 55.884604 
L 537.918639 56.346933 
L 534.627931 56.346933 
L 531.337223 56.346933 
L 528.046514 56.346933 
L 524.755806 56.346933 
L 521.465098 56.346933 
L 518.17439 56.346933 
L 514.883682 56.346933 
L 511.592973 56.233027 
L 508.302265 56.346933 
L 505.011557 56.346933 
L 501.720849 56.346933 
L 498.430141 56.233027 
L 495.139432 56.346933 
L 491.848724 56.233027 
L 488.558016 55.777405 
L 485.267308 56.005216 
L 481.9766 55.549594 
L 478.685892 55.891311 
L 475.395183 55.891311 
L 472.104475 53.499293 
L 468.813767 55.321782 
L 465.523059 53.954915 
L 462.232351 49.740407 
L 458.941642 38.122034 
L 455.650934 33.679715 
L 452.360226 33.907526 
L 449.069518 33.565809 
L 445.77881 33.471447 
L 442.488101 33.565809 
L 439.197393 33.565809 
L 435.906685 33.679715 
L 432.615977 33.565809 
L 429.325269 33.580335 
L 426.034561 33.518628 
L 422.743852 33.564145 
L 419.453144 33.377084 
L 416.162436 33.518628 
L 412.871728 33.346093 
L 409.58102 33.614379 
L 406.290311 33.518628 
L 402.999603 33.565809 
L 399.708895 33.282722 
L 396.418187 33.347782 
L 393.127479 31.387377 
L 389.83677 28.038182 
L 386.546062 28.038182 
L 383.255354 28.038182 
L 379.964646 28.038182 
L 376.673938 28.038182 
L 373.38323 28.038182 
L 370.092521 28.038182 
L 366.801813 28.038182 
L 363.511105 28.038182 
L 360.220397 28.038182 
L 356.929689 28.038182 
L 353.63898 28.038182 
L 350.348272 28.038182 
L 347.057564 28.038182 
L 343.766856 28.038182 
L 340.476148 28.038182 
L 337.185439 28.038182 
L 333.894731 28.038182 
L 330.604023 28.038182 
L 327.313315 28.038182 
L 324.022607 28.038182 
L 320.731899 28.038182 
L 317.44119 28.038182 
L 314.150482 28.038182 
L 310.859774 28.038182 
L 307.569066 28.038182 
L 304.278358 28.038182 
L 300.987649 28.038182 
L 297.696941 28.038182 
L 294.406233 28.038182 
L 291.115525 28.038182 
L 287.824817 28.038182 
L 284.534108 28.038182 
L 281.2434 28.038182 
L 277.952692 28.038182 
L 274.661984 28.038182 
L 271.371276 28.038182 
L 268.080568 28.038182 
L 264.789859 28.038182 
L 261.499151 28.038182 
L 258.208443 28.038182 
L 254.917735 28.038182 
L 251.627027 28.038182 
L 248.336318 28.038182 
L 245.04561 28.038182 
L 241.754902 28.038182 
L 238.464194 28.038182 
L 235.173486 28.038182 
L 231.882777 28.038182 
L 228.592069 28.038182 
L 225.301361 28.038182 
L 222.010653 28.038182 
L 218.719945 28.038182 
L 215.429237 28.038182 
L 212.138528 28.038182 
L 208.84782 28.038182 
L 205.557112 28.038182 
L 202.266404 28.038182 
L 198.975696 28.038182 
L 195.684987 28.038182 
L 192.394279 28.038182 
L 189.103571 28.038182 
L 185.812863 28.038182 
L 182.522155 28.038182 
L 179.231447 28.038182 
L 175.940738 28.038182 
L 172.65003 28.038182 
L 169.359322 28.038182 
L 166.068614 28.038182 
L 162.777906 28.038182 
L 159.487197 28.038182 
L 156.196489 28.038182 
L 152.905781 28.038182 
L 149.615073 28.038182 
L 146.324365 28.038182 
L 143.033656 28.038182 
L 139.742948 28.038182 
L 136.45224 28.038182 
L 133.161532 28.038182 
L 129.870824 28.038182 
L 126.580116 28.038182 
L 123.289407 28.038182 
L 119.998699 28.038182 
L 116.707991 28.038182 
L 113.417283 28.038182 
L 110.126575 28.038182 
L 106.835866 28.038182 
L 103.545158 34.180172 
L 100.25445 40.379813 
L 96.963742 48.556736 
L 93.673034 53.134105 
L 90.382325 71.62002 
L 87.091617 83.464013 
L 83.800909 120.833856 
z
" clip-path="url(#pb5c3967fdd)" style="fill: #1f77b4; fill-opacity: 0.2"/>
   </g>
   <g id="matplotlib.axis_1">
    <g id="xtick_1">
     <g id="line2d_1">
      <path d="M 82.139101 390.04 
L 82.139101 10.8 
" clip-path="url(#pb5c3967fdd)" style="fill: none; stroke: #b0b0b0; stroke-width: 0.8; stroke-linecap: square"/>
     </g>
     <g id="line2d_2">
      <defs>
       <path id="m94082de149" d="M 0 0 
L 0 3.5 
" style="stroke: #000000; stroke-width: 0.8"/>
      </defs>
      <g>
       <use xlink:href="#m94082de149" x="82.139101" y="390.04" style="stroke: #000000; stroke-width: 0.8"/>
      </g>
     </g>
     <g id="text_1">
      <!-- 0 -->
      <g transform="translate(78.957851 404.638438) scale(0.1 -0.1)">
       <defs>
        <path id="DejaVuSans-30" d="M 2034 4250 
Q 1547 4250 1301 3770 
Q 1056 3291 1056 2328 
Q 1056 1369 1301 889 
Q 1547 409 2034 409 
Q 2525 409 2770 889 
Q 3016 1369 3016 2328 
Q 3016 3291 2770 3770 
Q 2525 4250 2034 4250 
z
M 2034 4750 
Q 2819 4750 3233 4129 
Q 3647 3509 3647 2328 
Q 3647 1150 3233 529 
Q 2819 -91 2034 -91 
Q 1250 -91 836 529 
Q 422 1150 422 2328 
Q 422 3509 836 4129 
Q 1250 4750 2034 4750 
z
" transform="scale(0.015625)"/>
       </defs>
       <use xlink:href="#DejaVuSans-30"/>
      </g>
     </g>
    </g>
    <g id="xtick_2">
     <g id="line2d_3">
      <path d="M 164.406806 390.04 
L 164.406806 10.8 
" clip-path="url(#pb5c3967fdd)" style="fill: none; stroke: #b0b0b0; stroke-width: 0.8; stroke-linecap: square"/>
     </g>
     <g id="line2d_4">
      <g>
       <use xlink:href="#m94082de149" x="164.406806" y="390.04" style="stroke: #000000; stroke-width: 0.8"/>
      </g>
     </g>
     <g id="text_2">
      <!-- 5000 -->
      <g transform="translate(151.681806 404.638438) scale(0.1 -0.1)">
       <defs>
        <path id="DejaVuSans-35" d="M 691 4666 
L 3169 4666 
L 3169 4134 
L 1269 4134 
L 1269 2991 
Q 1406 3038 1543 3061 
Q 1681 3084 1819 3084 
Q 2600 3084 3056 2656 
Q 3513 2228 3513 1497 
Q 3513 744 3044 326 
Q 2575 -91 1722 -91 
Q 1428 -91 1123 -41 
Q 819 9 494 109 
L 494 744 
Q 775 591 1075 516 
Q 1375 441 1709 441 
Q 2250 441 2565 725 
Q 2881 1009 2881 1497 
Q 2881 1984 2565 2268 
Q 2250 2553 1709 2553 
Q 1456 2553 1204 2497 
Q 953 2441 691 2322 
L 691 4666 
z
" transform="scale(0.015625)"/>
       </defs>
       <use xlink:href="#DejaVuSans-35"/>
       <use xlink:href="#DejaVuSans-30" transform="translate(63.623047 0)"/>
       <use xlink:href="#DejaVuSans-30" transform="translate(127.246094 0)"/>
       <use xlink:href="#DejaVuSans-30" transform="translate(190.869141 0)"/>
      </g>
     </g>
    </g>
    <g id="xtick_3">
     <g id="line2d_5">
      <path d="M 246.674511 390.04 
L 246.674511 10.8 
" clip-path="url(#pb5c3967fdd)" style="fill: none; stroke: #b0b0b0; stroke-width: 0.8; stroke-linecap: square"/>
     </g>
     <g id="line2d_6">
      <g>
       <use xlink:href="#m94082de149" x="246.674511" y="390.04" style="stroke: #000000; stroke-width: 0.8"/>
      </g>
     </g>
     <g id="text_3">
      <!-- 10000 -->
      <g transform="translate(230.768261 404.638438) scale(0.1 -0.1)">
       <defs>
        <path id="DejaVuSans-31" d="M 794 531 
L 1825 531 
L 1825 4091 
L 703 3866 
L 703 4441 
L 1819 4666 
L 2450 4666 
L 2450 531 
L 3481 531 
L 3481 0 
L 794 0 
L 794 531 
z
" transform="scale(0.015625)"/>
       </defs>
       <use xlink:href="#DejaVuSans-31"/>
       <use xlink:href="#DejaVuSans-30" transform="translate(63.623047 0)"/>
       <use xlink:href="#DejaVuSans-30" transform="translate(127.246094 0)"/>
       <use xlink:href="#DejaVuSans-30" transform="translate(190.869141 0)"/>
       <use xlink:href="#DejaVuSans-30" transform="translate(254.492188 0)"/>
      </g>
     </g>
    </g>
    <g id="xtick_4">
     <g id="line2d_7">
      <path d="M 328.942215 390.04 
L 328.942215 10.8 
" clip-path="url(#pb5c3967fdd)" style="fill: none; stroke: #b0b0b0; stroke-width: 0.8; stroke-linecap: square"/>
     </g>
     <g id="line2d_8">
      <g>
       <use xlink:href="#m94082de149" x="328.942215" y="390.04" style="stroke: #000000; stroke-width: 0.8"/>
      </g>
     </g>
     <g id="text_4">
      <!-- 15000 -->
      <g transform="translate(313.035965 404.638438) scale(0.1 -0.1)">
       <use xlink:href="#DejaVuSans-31"/>
       <use xlink:href="#DejaVuSans-35" transform="translate(63.623047 0)"/>
       <use xlink:href="#DejaVuSans-30" transform="translate(127.246094 0)"/>
       <use xlink:href="#DejaVuSans-30" transform="translate(190.869141 0)"/>
       <use xlink:href="#DejaVuSans-30" transform="translate(254.492188 0)"/>
      </g>
     </g>
    </g>
    <g id="xtick_5">
     <g id="line2d_9">
      <path d="M 411.20992 390.04 
L 411.20992 10.8 
" clip-path="url(#pb5c3967fdd)" style="fill: none; stroke: #b0b0b0; stroke-width: 0.8; stroke-linecap: square"/>
     </g>
     <g id="line2d_10">
      <g>
       <use xlink:href="#m94082de149" x="411.20992" y="390.04" style="stroke: #000000; stroke-width: 0.8"/>
      </g>
     </g>
     <g id="text_5">
      <!-- 20000 -->
      <g transform="translate(395.30367 404.638438) scale(0.1 -0.1)">
       <defs>
        <path id="DejaVuSans-32" d="M 1228 531 
L 3431 531 
L 3431 0 
L 469 0 
L 469 531 
Q 828 903 1448 1529 
Q 2069 2156 2228 2338 
Q 2531 2678 2651 2914 
Q 2772 3150 2772 3378 
Q 2772 3750 2511 3984 
Q 2250 4219 1831 4219 
Q 1534 4219 1204 4116 
Q 875 4013 500 3803 
L 500 4441 
Q 881 4594 1212 4672 
Q 1544 4750 1819 4750 
Q 2544 4750 2975 4387 
Q 3406 4025 3406 3419 
Q 3406 3131 3298 2873 
Q 3191 2616 2906 2266 
Q 2828 2175 2409 1742 
Q 1991 1309 1228 531 
z
" transform="scale(0.015625)"/>
       </defs>
       <use xlink:href="#DejaVuSans-32"/>
       <use xlink:href="#DejaVuSans-30" transform="translate(63.623047 0)"/>
       <use xlink:href="#DejaVuSans-30" transform="translate(127.246094 0)"/>
       <use xlink:href="#DejaVuSans-30" transform="translate(190.869141 0)"/>
       <use xlink:href="#DejaVuSans-30" transform="translate(254.492188 0)"/>
      </g>
     </g>
    </g>
    <g id="xtick_6">
     <g id="line2d_11">
      <path d="M 493.477625 390.04 
L 493.477625 10.8 
" clip-path="url(#pb5c3967fdd)" style="fill: none; stroke: #b0b0b0; stroke-width: 0.8; stroke-linecap: square"/>
     </g>
     <g id="line2d_12">
      <g>
       <use xlink:href="#m94082de149" x="493.477625" y="390.04" style="stroke: #000000; stroke-width: 0.8"/>
      </g>
     </g>
     <g id="text_6">
      <!-- 25000 -->
      <g transform="translate(477.571375 404.638438) scale(0.1 -0.1)">
       <use xlink:href="#DejaVuSans-32"/>
       <use xlink:href="#DejaVuSans-35" transform="translate(63.623047 0)"/>
       <use xlink:href="#DejaVuSans-30" transform="translate(127.246094 0)"/>
       <use xlink:href="#DejaVuSans-30" transform="translate(190.869141 0)"/>
       <use xlink:href="#DejaVuSans-30" transform="translate(254.492188 0)"/>
      </g>
     </g>
    </g>
    <g id="xtick_7">
     <g id="line2d_13">
      <path d="M 575.745329 390.04 
L 575.745329 10.8 
" clip-path="url(#pb5c3967fdd)" style="fill: none; stroke: #b0b0b0; stroke-width: 0.8; stroke-linecap: square"/>
     </g>
     <g id="line2d_14">
      <g>
       <use xlink:href="#m94082de149" x="575.745329" y="390.04" style="stroke: #000000; stroke-width: 0.8"/>
      </g>
     </g>
     <g id="text_7">
      <!-- 30000 -->
      <g transform="translate(559.839079 404.638438) scale(0.1 -0.1)">
       <defs>
        <path id="DejaVuSans-33" d="M 2597 2516 
Q 3050 2419 3304 2112 
Q 3559 1806 3559 1356 
Q 3559 666 3084 287 
Q 2609 -91 1734 -91 
Q 1441 -91 1130 -33 
Q 819 25 488 141 
L 488 750 
Q 750 597 1062 519 
Q 1375 441 1716 441 
Q 2309 441 2620 675 
Q 2931 909 2931 1356 
Q 2931 1769 2642 2001 
Q 2353 2234 1838 2234 
L 1294 2234 
L 1294 2753 
L 1863 2753 
Q 2328 2753 2575 2939 
Q 2822 3125 2822 3475 
Q 2822 3834 2567 4026 
Q 2313 4219 1838 4219 
Q 1578 4219 1281 4162 
Q 984 4106 628 3988 
L 628 4550 
Q 988 4650 1302 4700 
Q 1616 4750 1894 4750 
Q 2613 4750 3031 4423 
Q 3450 4097 3450 3541 
Q 3450 3153 3228 2886 
Q 3006 2619 2597 2516 
z
" transform="scale(0.015625)"/>
       </defs>
       <use xlink:href="#DejaVuSans-33"/>
       <use xlink:href="#DejaVuSans-30" transform="translate(63.623047 0)"/>
       <use xlink:href="#DejaVuSans-30" transform="translate(127.246094 0)"/>
       <use xlink:href="#DejaVuSans-30" transform="translate(190.869141 0)"/>
       <use xlink:href="#DejaVuSans-30" transform="translate(254.492188 0)"/>
      </g>
     </g>
    </g>
    <g id="xtick_8">
     <g id="line2d_15">
      <path d="M 658.013034 390.04 
L 658.013034 10.8 
" clip-path="url(#pb5c3967fdd)" style="fill: none; stroke: #b0b0b0; stroke-width: 0.8; stroke-linecap: square"/>
     </g>
     <g id="line2d_16">
      <g>
       <use xlink:href="#m94082de149" x="658.013034" y="390.04" style="stroke: #000000; stroke-width: 0.8"/>
      </g>
     </g>
     <g id="text_8">
      <!-- 35000 -->
      <g transform="translate(642.106784 404.638438) scale(0.1 -0.1)">
       <use xlink:href="#DejaVuSans-33"/>
       <use xlink:href="#DejaVuSans-35" transform="translate(63.623047 0)"/>
       <use xlink:href="#DejaVuSans-30" transform="translate(127.246094 0)"/>
       <use xlink:href="#DejaVuSans-30" transform="translate(190.869141 0)"/>
       <use xlink:href="#DejaVuSans-30" transform="translate(254.492188 0)"/>
      </g>
     </g>
    </g>
    <g id="text_9">
     <!-- Episodes -->
     <g transform="translate(359.367813 418.316562) scale(0.1 -0.1)">
      <defs>
       <path id="DejaVuSans-45" d="M 628 4666 
L 3578 4666 
L 3578 4134 
L 1259 4134 
L 1259 2753 
L 3481 2753 
L 3481 2222 
L 1259 2222 
L 1259 531 
L 3634 531 
L 3634 0 
L 628 0 
L 628 4666 
z
" transform="scale(0.015625)"/>
       <path id="DejaVuSans-70" d="M 1159 525 
L 1159 -1331 
L 581 -1331 
L 581 3500 
L 1159 3500 
L 1159 2969 
Q 1341 3281 1617 3432 
Q 1894 3584 2278 3584 
Q 2916 3584 3314 3078 
Q 3713 2572 3713 1747 
Q 3713 922 3314 415 
Q 2916 -91 2278 -91 
Q 1894 -91 1617 61 
Q 1341 213 1159 525 
z
M 3116 1747 
Q 3116 2381 2855 2742 
Q 2594 3103 2138 3103 
Q 1681 3103 1420 2742 
Q 1159 2381 1159 1747 
Q 1159 1113 1420 752 
Q 1681 391 2138 391 
Q 2594 391 2855 752 
Q 3116 1113 3116 1747 
z
" transform="scale(0.015625)"/>
       <path id="DejaVuSans-69" d="M 603 3500 
L 1178 3500 
L 1178 0 
L 603 0 
L 603 3500 
z
M 603 4863 
L 1178 4863 
L 1178 4134 
L 603 4134 
L 603 4863 
z
" transform="scale(0.015625)"/>
       <path id="DejaVuSans-73" d="M 2834 3397 
L 2834 2853 
Q 2591 2978 2328 3040 
Q 2066 3103 1784 3103 
Q 1356 3103 1142 2972 
Q 928 2841 928 2578 
Q 928 2378 1081 2264 
Q 1234 2150 1697 2047 
L 1894 2003 
Q 2506 1872 2764 1633 
Q 3022 1394 3022 966 
Q 3022 478 2636 193 
Q 2250 -91 1575 -91 
Q 1294 -91 989 -36 
Q 684 19 347 128 
L 347 722 
Q 666 556 975 473 
Q 1284 391 1588 391 
Q 1994 391 2212 530 
Q 2431 669 2431 922 
Q 2431 1156 2273 1281 
Q 2116 1406 1581 1522 
L 1381 1569 
Q 847 1681 609 1914 
Q 372 2147 372 2553 
Q 372 3047 722 3315 
Q 1072 3584 1716 3584 
Q 2034 3584 2315 3537 
Q 2597 3491 2834 3397 
z
" transform="scale(0.015625)"/>
       <path id="DejaVuSans-6f" d="M 1959 3097 
Q 1497 3097 1228 2736 
Q 959 2375 959 1747 
Q 959 1119 1226 758 
Q 1494 397 1959 397 
Q 2419 397 2687 759 
Q 2956 1122 2956 1747 
Q 2956 2369 2687 2733 
Q 2419 3097 1959 3097 
z
M 1959 3584 
Q 2709 3584 3137 3096 
Q 3566 2609 3566 1747 
Q 3566 888 3137 398 
Q 2709 -91 1959 -91 
Q 1206 -91 779 398 
Q 353 888 353 1747 
Q 353 2609 779 3096 
Q 1206 3584 1959 3584 
z
" transform="scale(0.015625)"/>
       <path id="DejaVuSans-64" d="M 2906 2969 
L 2906 4863 
L 3481 4863 
L 3481 0 
L 2906 0 
L 2906 525 
Q 2725 213 2448 61 
Q 2172 -91 1784 -91 
Q 1150 -91 751 415 
Q 353 922 353 1747 
Q 353 2572 751 3078 
Q 1150 3584 1784 3584 
Q 2172 3584 2448 3432 
Q 2725 3281 2906 2969 
z
M 947 1747 
Q 947 1113 1208 752 
Q 1469 391 1925 391 
Q 2381 391 2643 752 
Q 2906 1113 2906 1747 
Q 2906 2381 2643 2742 
Q 2381 3103 1925 3103 
Q 1469 3103 1208 2742 
Q 947 2381 947 1747 
z
" transform="scale(0.015625)"/>
       <path id="DejaVuSans-65" d="M 3597 1894 
L 3597 1613 
L 953 1613 
Q 991 1019 1311 708 
Q 1631 397 2203 397 
Q 2534 397 2845 478 
Q 3156 559 3463 722 
L 3463 178 
Q 3153 47 2828 -22 
Q 2503 -91 2169 -91 
Q 1331 -91 842 396 
Q 353 884 353 1716 
Q 353 2575 817 3079 
Q 1281 3584 2069 3584 
Q 2775 3584 3186 3129 
Q 3597 2675 3597 1894 
z
M 3022 2063 
Q 3016 2534 2758 2815 
Q 2500 3097 2075 3097 
Q 1594 3097 1305 2825 
Q 1016 2553 972 2059 
L 3022 2063 
z
" transform="scale(0.015625)"/>
      </defs>
      <use xlink:href="#DejaVuSans-45"/>
      <use xlink:href="#DejaVuSans-70" transform="translate(63.183594 0)"/>
      <use xlink:href="#DejaVuSans-69" transform="translate(126.660156 0)"/>
      <use xlink:href="#DejaVuSans-73" transform="translate(154.443359 0)"/>
      <use xlink:href="#DejaVuSans-6f" transform="translate(206.542969 0)"/>
      <use xlink:href="#DejaVuSans-64" transform="translate(267.724609 0)"/>
      <use xlink:href="#DejaVuSans-65" transform="translate(331.201172 0)"/>
      <use xlink:href="#DejaVuSans-73" transform="translate(392.724609 0)"/>
     </g>
    </g>
   </g>
   <g id="matplotlib.axis_2">
    <g id="ytick_1">
     <g id="line2d_17">
      <path d="M 54.02 367.743521 
L 709.2 367.743521 
" clip-path="url(#pb5c3967fdd)" style="fill: none; stroke: #b0b0b0; stroke-width: 0.8; stroke-linecap: square"/>
     </g>
     <g id="line2d_18">
      <defs>
       <path id="m840764aa46" d="M 0 0 
L -3.5 0 
" style="stroke: #000000; stroke-width: 0.8"/>
      </defs>
      <g>
       <use xlink:href="#m840764aa46" x="54.02" y="367.743521" style="stroke: #000000; stroke-width: 0.8"/>
      </g>
     </g>
     <g id="text_10">
      <!-- 0.60 -->
      <g transform="translate(24.754375 371.542739) scale(0.1 -0.1)">
       <defs>
        <path id="DejaVuSans-2e" d="M 684 794 
L 1344 794 
L 1344 0 
L 684 0 
L 684 794 
z
" transform="scale(0.015625)"/>
        <path id="DejaVuSans-36" d="M 2113 2584 
Q 1688 2584 1439 2293 
Q 1191 2003 1191 1497 
Q 1191 994 1439 701 
Q 1688 409 2113 409 
Q 2538 409 2786 701 
Q 3034 994 3034 1497 
Q 3034 2003 2786 2293 
Q 2538 2584 2113 2584 
z
M 3366 4563 
L 3366 3988 
Q 3128 4100 2886 4159 
Q 2644 4219 2406 4219 
Q 1781 4219 1451 3797 
Q 1122 3375 1075 2522 
Q 1259 2794 1537 2939 
Q 1816 3084 2150 3084 
Q 2853 3084 3261 2657 
Q 3669 2231 3669 1497 
Q 3669 778 3244 343 
Q 2819 -91 2113 -91 
Q 1303 -91 875 529 
Q 447 1150 447 2328 
Q 447 3434 972 4092 
Q 1497 4750 2381 4750 
Q 2619 4750 2861 4703 
Q 3103 4656 3366 4563 
z
" transform="scale(0.015625)"/>
       </defs>
       <use xlink:href="#DejaVuSans-30"/>
       <use xlink:href="#DejaVuSans-2e" transform="translate(63.623047 0)"/>
       <use xlink:href="#DejaVuSans-36" transform="translate(95.410156 0)"/>
       <use xlink:href="#DejaVuSans-30" transform="translate(159.033203 0)"/>
      </g>
     </g>
    </g>
    <g id="ytick_2">
     <g id="line2d_19">
      <path d="M 54.02 325.280353 
L 709.2 325.280353 
" clip-path="url(#pb5c3967fdd)" style="fill: none; stroke: #b0b0b0; stroke-width: 0.8; stroke-linecap: square"/>
     </g>
     <g id="line2d_20">
      <g>
       <use xlink:href="#m840764aa46" x="54.02" y="325.280353" style="stroke: #000000; stroke-width: 0.8"/>
      </g>
     </g>
     <g id="text_11">
      <!-- 0.65 -->
      <g transform="translate(24.754375 329.079572) scale(0.1 -0.1)">
       <use xlink:href="#DejaVuSans-30"/>
       <use xlink:href="#DejaVuSans-2e" transform="translate(63.623047 0)"/>
       <use xlink:href="#DejaVuSans-36" transform="translate(95.410156 0)"/>
       <use xlink:href="#DejaVuSans-35" transform="translate(159.033203 0)"/>
      </g>
     </g>
    </g>
    <g id="ytick_3">
     <g id="line2d_21">
      <path d="M 54.02 282.817186 
L 709.2 282.817186 
" clip-path="url(#pb5c3967fdd)" style="fill: none; stroke: #b0b0b0; stroke-width: 0.8; stroke-linecap: square"/>
     </g>
     <g id="line2d_22">
      <g>
       <use xlink:href="#m840764aa46" x="54.02" y="282.817186" style="stroke: #000000; stroke-width: 0.8"/>
      </g>
     </g>
     <g id="text_12">
      <!-- 0.70 -->
      <g transform="translate(24.754375 286.616405) scale(0.1 -0.1)">
       <defs>
        <path id="DejaVuSans-37" d="M 525 4666 
L 3525 4666 
L 3525 4397 
L 1831 0 
L 1172 0 
L 2766 4134 
L 525 4134 
L 525 4666 
z
" transform="scale(0.015625)"/>
       </defs>
       <use xlink:href="#DejaVuSans-30"/>
       <use xlink:href="#DejaVuSans-2e" transform="translate(63.623047 0)"/>
       <use xlink:href="#DejaVuSans-37" transform="translate(95.410156 0)"/>
       <use xlink:href="#DejaVuSans-30" transform="translate(159.033203 0)"/>
      </g>
     </g>
    </g>
    <g id="ytick_4">
     <g id="line2d_23">
      <path d="M 54.02 240.354019 
L 709.2 240.354019 
" clip-path="url(#pb5c3967fdd)" style="fill: none; stroke: #b0b0b0; stroke-width: 0.8; stroke-linecap: square"/>
     </g>
     <g id="line2d_24">
      <g>
       <use xlink:href="#m840764aa46" x="54.02" y="240.354019" style="stroke: #000000; stroke-width: 0.8"/>
      </g>
     </g>
     <g id="text_13">
      <!-- 0.75 -->
      <g transform="translate(24.754375 244.153237) scale(0.1 -0.1)">
       <use xlink:href="#DejaVuSans-30"/>
       <use xlink:href="#DejaVuSans-2e" transform="translate(63.623047 0)"/>
       <use xlink:href="#DejaVuSans-37" transform="translate(95.410156 0)"/>
       <use xlink:href="#DejaVuSans-35" transform="translate(159.033203 0)"/>
      </g>
     </g>
    </g>
    <g id="ytick_5">
     <g id="line2d_25">
      <path d="M 54.02 197.890851 
L 709.2 197.890851 
" clip-path="url(#pb5c3967fdd)" style="fill: none; stroke: #b0b0b0; stroke-width: 0.8; stroke-linecap: square"/>
     </g>
     <g id="line2d_26">
      <g>
       <use xlink:href="#m840764aa46" x="54.02" y="197.890851" style="stroke: #000000; stroke-width: 0.8"/>
      </g>
     </g>
     <g id="text_14">
      <!-- 0.80 -->
      <g transform="translate(24.754375 201.69007) scale(0.1 -0.1)">
       <defs>
        <path id="DejaVuSans-38" d="M 2034 2216 
Q 1584 2216 1326 1975 
Q 1069 1734 1069 1313 
Q 1069 891 1326 650 
Q 1584 409 2034 409 
Q 2484 409 2743 651 
Q 3003 894 3003 1313 
Q 3003 1734 2745 1975 
Q 2488 2216 2034 2216 
z
M 1403 2484 
Q 997 2584 770 2862 
Q 544 3141 544 3541 
Q 544 4100 942 4425 
Q 1341 4750 2034 4750 
Q 2731 4750 3128 4425 
Q 3525 4100 3525 3541 
Q 3525 3141 3298 2862 
Q 3072 2584 2669 2484 
Q 3125 2378 3379 2068 
Q 3634 1759 3634 1313 
Q 3634 634 3220 271 
Q 2806 -91 2034 -91 
Q 1263 -91 848 271 
Q 434 634 434 1313 
Q 434 1759 690 2068 
Q 947 2378 1403 2484 
z
M 1172 3481 
Q 1172 3119 1398 2916 
Q 1625 2713 2034 2713 
Q 2441 2713 2670 2916 
Q 2900 3119 2900 3481 
Q 2900 3844 2670 4047 
Q 2441 4250 2034 4250 
Q 1625 4250 1398 4047 
Q 1172 3844 1172 3481 
z
" transform="scale(0.015625)"/>
       </defs>
       <use xlink:href="#DejaVuSans-30"/>
       <use xlink:href="#DejaVuSans-2e" transform="translate(63.623047 0)"/>
       <use xlink:href="#DejaVuSans-38" transform="translate(95.410156 0)"/>
       <use xlink:href="#DejaVuSans-30" transform="translate(159.033203 0)"/>
      </g>
     </g>
    </g>
    <g id="ytick_6">
     <g id="line2d_27">
      <path d="M 54.02 155.427684 
L 709.2 155.427684 
" clip-path="url(#pb5c3967fdd)" style="fill: none; stroke: #b0b0b0; stroke-width: 0.8; stroke-linecap: square"/>
     </g>
     <g id="line2d_28">
      <g>
       <use xlink:href="#m840764aa46" x="54.02" y="155.427684" style="stroke: #000000; stroke-width: 0.8"/>
      </g>
     </g>
     <g id="text_15">
      <!-- 0.85 -->
      <g transform="translate(24.754375 159.226903) scale(0.1 -0.1)">
       <use xlink:href="#DejaVuSans-30"/>
       <use xlink:href="#DejaVuSans-2e" transform="translate(63.623047 0)"/>
       <use xlink:href="#DejaVuSans-38" transform="translate(95.410156 0)"/>
       <use xlink:href="#DejaVuSans-35" transform="translate(159.033203 0)"/>
      </g>
     </g>
    </g>
    <g id="ytick_7">
     <g id="line2d_29">
      <path d="M 54.02 112.964517 
L 709.2 112.964517 
" clip-path="url(#pb5c3967fdd)" style="fill: none; stroke: #b0b0b0; stroke-width: 0.8; stroke-linecap: square"/>
     </g>
     <g id="line2d_30">
      <g>
       <use xlink:href="#m840764aa46" x="54.02" y="112.964517" style="stroke: #000000; stroke-width: 0.8"/>
      </g>
     </g>
     <g id="text_16">
      <!-- 0.90 -->
      <g transform="translate(24.754375 116.763735) scale(0.1 -0.1)">
       <defs>
        <path id="DejaVuSans-39" d="M 703 97 
L 703 672 
Q 941 559 1184 500 
Q 1428 441 1663 441 
Q 2288 441 2617 861 
Q 2947 1281 2994 2138 
Q 2813 1869 2534 1725 
Q 2256 1581 1919 1581 
Q 1219 1581 811 2004 
Q 403 2428 403 3163 
Q 403 3881 828 4315 
Q 1253 4750 1959 4750 
Q 2769 4750 3195 4129 
Q 3622 3509 3622 2328 
Q 3622 1225 3098 567 
Q 2575 -91 1691 -91 
Q 1453 -91 1209 -44 
Q 966 3 703 97 
z
M 1959 2075 
Q 2384 2075 2632 2365 
Q 2881 2656 2881 3163 
Q 2881 3666 2632 3958 
Q 2384 4250 1959 4250 
Q 1534 4250 1286 3958 
Q 1038 3666 1038 3163 
Q 1038 2656 1286 2365 
Q 1534 2075 1959 2075 
z
" transform="scale(0.015625)"/>
       </defs>
       <use xlink:href="#DejaVuSans-30"/>
       <use xlink:href="#DejaVuSans-2e" transform="translate(63.623047 0)"/>
       <use xlink:href="#DejaVuSans-39" transform="translate(95.410156 0)"/>
       <use xlink:href="#DejaVuSans-30" transform="translate(159.033203 0)"/>
      </g>
     </g>
    </g>
    <g id="ytick_8">
     <g id="line2d_31">
      <path d="M 54.02 70.501349 
L 709.2 70.501349 
" clip-path="url(#pb5c3967fdd)" style="fill: none; stroke: #b0b0b0; stroke-width: 0.8; stroke-linecap: square"/>
     </g>
     <g id="line2d_32">
      <g>
       <use xlink:href="#m840764aa46" x="54.02" y="70.501349" style="stroke: #000000; stroke-width: 0.8"/>
      </g>
     </g>
     <g id="text_17">
      <!-- 0.95 -->
      <g transform="translate(24.754375 74.300568) scale(0.1 -0.1)">
       <use xlink:href="#DejaVuSans-30"/>
       <use xlink:href="#DejaVuSans-2e" transform="translate(63.623047 0)"/>
       <use xlink:href="#DejaVuSans-39" transform="translate(95.410156 0)"/>
       <use xlink:href="#DejaVuSans-35" transform="translate(159.033203 0)"/>
      </g>
     </g>
    </g>
    <g id="ytick_9">
     <g id="line2d_33">
      <path d="M 54.02 28.038182 
L 709.2 28.038182 
" clip-path="url(#pb5c3967fdd)" style="fill: none; stroke: #b0b0b0; stroke-width: 0.8; stroke-linecap: square"/>
     </g>
     <g id="line2d_34">
      <g>
       <use xlink:href="#m840764aa46" x="54.02" y="28.038182" style="stroke: #000000; stroke-width: 0.8"/>
      </g>
     </g>
     <g id="text_18">
      <!-- 1.00 -->
      <g transform="translate(24.754375 31.837401) scale(0.1 -0.1)">
       <use xlink:href="#DejaVuSans-31"/>
       <use xlink:href="#DejaVuSans-2e" transform="translate(63.623047 0)"/>
       <use xlink:href="#DejaVuSans-30" transform="translate(95.410156 0)"/>
       <use xlink:href="#DejaVuSans-30" transform="translate(159.033203 0)"/>
      </g>
     </g>
    </g>
    <g id="text_19">
     <!-- Accuracy on Test -->
     <g transform="translate(18.674688 242.499688) rotate(-90) scale(0.1 -0.1)">
      <defs>
       <path id="DejaVuSans-41" d="M 2188 4044 
L 1331 1722 
L 3047 1722 
L 2188 4044 
z
M 1831 4666 
L 2547 4666 
L 4325 0 
L 3669 0 
L 3244 1197 
L 1141 1197 
L 716 0 
L 50 0 
L 1831 4666 
z
" transform="scale(0.015625)"/>
       <path id="DejaVuSans-63" d="M 3122 3366 
L 3122 2828 
Q 2878 2963 2633 3030 
Q 2388 3097 2138 3097 
Q 1578 3097 1268 2742 
Q 959 2388 959 1747 
Q 959 1106 1268 751 
Q 1578 397 2138 397 
Q 2388 397 2633 464 
Q 2878 531 3122 666 
L 3122 134 
Q 2881 22 2623 -34 
Q 2366 -91 2075 -91 
Q 1284 -91 818 406 
Q 353 903 353 1747 
Q 353 2603 823 3093 
Q 1294 3584 2113 3584 
Q 2378 3584 2631 3529 
Q 2884 3475 3122 3366 
z
" transform="scale(0.015625)"/>
       <path id="DejaVuSans-75" d="M 544 1381 
L 544 3500 
L 1119 3500 
L 1119 1403 
Q 1119 906 1312 657 
Q 1506 409 1894 409 
Q 2359 409 2629 706 
Q 2900 1003 2900 1516 
L 2900 3500 
L 3475 3500 
L 3475 0 
L 2900 0 
L 2900 538 
Q 2691 219 2414 64 
Q 2138 -91 1772 -91 
Q 1169 -91 856 284 
Q 544 659 544 1381 
z
M 1991 3584 
L 1991 3584 
z
" transform="scale(0.015625)"/>
       <path id="DejaVuSans-72" d="M 2631 2963 
Q 2534 3019 2420 3045 
Q 2306 3072 2169 3072 
Q 1681 3072 1420 2755 
Q 1159 2438 1159 1844 
L 1159 0 
L 581 0 
L 581 3500 
L 1159 3500 
L 1159 2956 
Q 1341 3275 1631 3429 
Q 1922 3584 2338 3584 
Q 2397 3584 2469 3576 
Q 2541 3569 2628 3553 
L 2631 2963 
z
" transform="scale(0.015625)"/>
       <path id="DejaVuSans-61" d="M 2194 1759 
Q 1497 1759 1228 1600 
Q 959 1441 959 1056 
Q 959 750 1161 570 
Q 1363 391 1709 391 
Q 2188 391 2477 730 
Q 2766 1069 2766 1631 
L 2766 1759 
L 2194 1759 
z
M 3341 1997 
L 3341 0 
L 2766 0 
L 2766 531 
Q 2569 213 2275 61 
Q 1981 -91 1556 -91 
Q 1019 -91 701 211 
Q 384 513 384 1019 
Q 384 1609 779 1909 
Q 1175 2209 1959 2209 
L 2766 2209 
L 2766 2266 
Q 2766 2663 2505 2880 
Q 2244 3097 1772 3097 
Q 1472 3097 1187 3025 
Q 903 2953 641 2809 
L 641 3341 
Q 956 3463 1253 3523 
Q 1550 3584 1831 3584 
Q 2591 3584 2966 3190 
Q 3341 2797 3341 1997 
z
" transform="scale(0.015625)"/>
       <path id="DejaVuSans-79" d="M 2059 -325 
Q 1816 -950 1584 -1140 
Q 1353 -1331 966 -1331 
L 506 -1331 
L 506 -850 
L 844 -850 
Q 1081 -850 1212 -737 
Q 1344 -625 1503 -206 
L 1606 56 
L 191 3500 
L 800 3500 
L 1894 763 
L 2988 3500 
L 3597 3500 
L 2059 -325 
z
" transform="scale(0.015625)"/>
       <path id="DejaVuSans-20" transform="scale(0.015625)"/>
       <path id="DejaVuSans-6e" d="M 3513 2113 
L 3513 0 
L 2938 0 
L 2938 2094 
Q 2938 2591 2744 2837 
Q 2550 3084 2163 3084 
Q 1697 3084 1428 2787 
Q 1159 2491 1159 1978 
L 1159 0 
L 581 0 
L 581 3500 
L 1159 3500 
L 1159 2956 
Q 1366 3272 1645 3428 
Q 1925 3584 2291 3584 
Q 2894 3584 3203 3211 
Q 3513 2838 3513 2113 
z
" transform="scale(0.015625)"/>
       <path id="DejaVuSans-54" d="M -19 4666 
L 3928 4666 
L 3928 4134 
L 2272 4134 
L 2272 0 
L 1638 0 
L 1638 4134 
L -19 4134 
L -19 4666 
z
" transform="scale(0.015625)"/>
       <path id="DejaVuSans-74" d="M 1172 4494 
L 1172 3500 
L 2356 3500 
L 2356 3053 
L 1172 3053 
L 1172 1153 
Q 1172 725 1289 603 
Q 1406 481 1766 481 
L 2356 481 
L 2356 0 
L 1766 0 
Q 1100 0 847 248 
Q 594 497 594 1153 
L 594 3053 
L 172 3053 
L 172 3500 
L 594 3500 
L 594 4494 
L 1172 4494 
z
" transform="scale(0.015625)"/>
      </defs>
      <use xlink:href="#DejaVuSans-41"/>
      <use xlink:href="#DejaVuSans-63" transform="translate(66.658203 0)"/>
      <use xlink:href="#DejaVuSans-63" transform="translate(121.638672 0)"/>
      <use xlink:href="#DejaVuSans-75" transform="translate(176.619141 0)"/>
      <use xlink:href="#DejaVuSans-72" transform="translate(239.998047 0)"/>
      <use xlink:href="#DejaVuSans-61" transform="translate(281.111328 0)"/>
      <use xlink:href="#DejaVuSans-63" transform="translate(342.390625 0)"/>
      <use xlink:href="#DejaVuSans-79" transform="translate(397.371094 0)"/>
      <use xlink:href="#DejaVuSans-20" transform="translate(456.550781 0)"/>
      <use xlink:href="#DejaVuSans-6f" transform="translate(488.337891 0)"/>
      <use xlink:href="#DejaVuSans-6e" transform="translate(549.519531 0)"/>
      <use xlink:href="#DejaVuSans-20" transform="translate(612.898438 0)"/>
      <use xlink:href="#DejaVuSans-54" transform="translate(644.685547 0)"/>
      <use xlink:href="#DejaVuSans-65" transform="translate(688.769531 0)"/>
      <use xlink:href="#DejaVuSans-73" transform="translate(750.292969 0)"/>
      <use xlink:href="#DejaVuSans-74" transform="translate(802.392578 0)"/>
     </g>
    </g>
   </g>
   <g id="line2d_35">
    <path d="M 83.800909 246.817837 
L 87.091617 212.42267 
L 90.382325 194.918406 
L 93.673034 178.169048 
L 96.963742 160.334515 
L 100.25445 145.991402 
L 103.545158 134.715075 
L 106.835866 103.952874 
L 113.417283 53.091444 
L 116.707991 44.45727 
L 119.998699 33.983023 
L 123.289407 34.926649 
L 126.580116 36.625176 
L 129.870824 33.747118 
L 133.161532 35.021013 
L 136.45224 29.359258 
L 139.742948 31.859867 
L 143.033656 28.179726 
L 146.324365 30.397246 
L 149.615073 29.83107 
L 152.905781 28.69872 
L 156.196489 29.595164 
L 159.487197 29.07617 
L 162.777906 28.179726 
L 166.068614 28.132544 
L 169.359322 29.123351 
L 172.65003 28.226907 
L 175.940738 28.038182 
L 179.231447 28.274088 
L 182.522155 28.038182 
L 185.812863 28.274088 
L 192.394279 28.085363 
L 205.557112 28.368451 
L 208.84782 28.793083 
L 212.138528 28.132544 
L 222.010653 28.085363 
L 245.04561 28.085363 
L 248.336318 28.840264 
L 251.627027 28.038182 
L 264.789859 28.226907 
L 268.080568 28.038182 
L 271.371276 28.132544 
L 281.2434 28.038182 
L 294.406233 28.415632 
L 297.696941 28.038182 
L 310.859774 28.085363 
L 314.150482 28.321269 
L 320.731899 28.038182 
L 330.604023 28.132544 
L 333.894731 28.368451 
L 337.185439 28.038182 
L 343.766856 28.226907 
L 347.057564 28.179726 
L 350.348272 28.604357 
L 353.63898 28.179726 
L 356.929689 28.368451 
L 360.220397 28.038182 
L 366.801813 28.179726 
L 370.092521 29.076169 
L 373.38323 33.275301 
L 376.673938 35.162551 
L 379.964646 36.530807 
L 383.255354 37.238526 
L 386.546062 37.615976 
L 389.83677 39.786314 
L 393.127479 44.598801 
L 396.418187 46.674776 
L 399.708895 46.627595 
L 402.999603 46.910683 
L 406.290311 46.863501 
L 409.58102 47.759946 
L 412.871728 46.957864 
L 419.453144 46.721958 
L 422.743852 46.957864 
L 426.034561 46.863501 
L 429.325269 47.240952 
L 432.615977 46.910683 
L 439.197393 46.910683 
L 449.069518 46.910683 
L 452.360226 47.052226 
L 455.650934 46.957864 
L 458.941642 48.797933 
L 462.232351 53.61042 
L 465.523059 55.356127 
L 468.813767 55.922302 
L 472.104475 55.167402 
L 475.395183 56.158208 
L 478.685892 56.158208 
L 481.9766 56.016664 
L 485.267308 56.205389 
L 488.558016 56.111027 
L 491.848724 56.299752 
L 501.720849 56.346933 
L 537.918639 56.346933 
L 541.209347 56.818746 
L 544.500055 56.299752 
L 547.790763 56.252571 
L 554.37218 56.346933 
L 560.953596 56.346933 
L 564.244304 56.158208 
L 567.535013 56.346933 
L 653.093425 56.346933 
L 656.384134 56.913109 
L 659.674842 56.346933 
L 679.419091 56.252571 
L 679.419091 56.252571 
" clip-path="url(#pb5c3967fdd)" style="fill: none; stroke: #1f77b4; stroke-width: 1.5; stroke-linecap: square"/>
   </g>
   <g id="patch_3">
    <path d="M 54.02 390.04 
L 54.02 10.8 
" style="fill: none; stroke: #000000; stroke-width: 0.8; stroke-linejoin: miter; stroke-linecap: square"/>
   </g>
   <g id="patch_4">
    <path d="M 709.2 390.04 
L 709.2 10.8 
" style="fill: none; stroke: #000000; stroke-width: 0.8; stroke-linejoin: miter; stroke-linecap: square"/>
   </g>
   <g id="patch_5">
    <path d="M 54.02 390.04 
L 709.2 390.04 
" style="fill: none; stroke: #000000; stroke-width: 0.8; stroke-linejoin: miter; stroke-linecap: square"/>
   </g>
   <g id="patch_6">
    <path d="M 54.02 10.8 
L 709.2 10.8 
" style="fill: none; stroke: #000000; stroke-width: 0.8; stroke-linejoin: miter; stroke-linecap: square"/>
   </g>
  </g>
 </g>
 <defs>
  <clipPath id="pb5c3967fdd">
   <rect x="54.02" y="10.8" width="655.18" height="379.24"/>
  </clipPath>
 </defs>
</svg>
