<?xml version="1.0" encoding="utf-8" standalone="no"?>
<!DOCTYPE svg PUBLIC "-//W3C//DTD SVG 1.1//EN"
  "http://www.w3.org/Graphics/SVG/1.1/DTD/svg11.dtd">
<svg xmlns:xlink="http://www.w3.org/1999/xlink" width="720pt" height="432pt" viewBox="0 0 720 432" xmlns="http://www.w3.org/2000/svg" version="1.1">
 <metadata>
  <rdf:RDF xmlns:dc="http://purl.org/dc/elements/1.1/" xmlns:cc="http://creativecommons.org/ns#" xmlns:rdf="http://www.w3.org/1999/02/22-rdf-syntax-ns#">
   <cc:Work>
    <dc:type rdf:resource="http://purl.org/dc/dcmitype/StillImage"/>
    <dc:date>2025-04-16T01:12:52.991150</dc:date>
    <dc:format>image/svg+xml</dc:format>
    <dc:creator>
     <cc:Agent>
      <dc:title>Matplotlib v3.10.0, https://matplotlib.org/</dc:title>
     </cc:Agent>
    </dc:creator>
   </cc:Work>
  </rdf:RDF>
 </metadata>
 <defs>
  <style type="text/css">*{stroke-linejoin: round; stroke-linecap: butt}</style>
 </defs>
 <g id="figure_1">
  <g id="patch_1">
   <path d="M 0 432 
L 720 432 
L 720 0 
L 0 0 
z
" style="fill: #ffffff"/>
  </g>
  <g id="axes_1">
   <g id="patch_2">
    <path d="M 50.87 390.04 
L 709.2 390.04 
L 709.2 10.8 
L 50.87 10.8 
z
" style="fill: #ffffff"/>
   </g>
   <g id="FillBetweenPolyCollection_1">
    <path d="M 80.794091 306.719919 
L 80.794091 345.615693 
L 84.10062 347.451086 
L 87.40715 348.575665 
L 90.713679 348.97135 
L 94.020208 348.723857 
L 97.326738 344.514604 
L 100.633267 336.525977 
L 103.939797 296.609686 
L 107.246326 240.397278 
L 110.552855 180.880985 
L 113.859385 120.394864 
L 117.165914 109.205484 
L 120.472443 110.30891 
L 123.778973 107.938088 
L 127.085502 89.055932 
L 130.392032 86.010518 
L 133.698561 72.225828 
L 137.00509 74.956006 
L 140.31162 66.709351 
L 143.618149 85.359009 
L 146.924679 84.214026 
L 150.231208 73.234079 
L 153.537737 68.909917 
L 156.844267 72.15159 
L 160.150796 65.55761 
L 163.457325 65.554434 
L 166.763855 67.780648 
L 170.070384 67.743633 
L 173.376914 63.362559 
L 176.683443 68.833928 
L 179.989972 63.360921 
L 183.296502 68.832545 
L 186.603031 65.555125 
L 189.909561 64.454547 
L 193.21609 65.550648 
L 196.522619 66.641344 
L 199.829149 65.550685 
L 203.135678 65.560494 
L 206.442207 65.578965 
L 209.748737 65.551595 
L 213.055266 64.456258 
L 216.361796 65.548137 
L 219.668325 64.454092 
L 222.974854 64.452891 
L 226.281384 64.452837 
L 229.587913 64.455239 
L 232.894442 65.549847 
L 236.200972 66.641854 
L 239.507501 66.642636 
L 242.814031 64.458697 
L 246.12056 66.672951 
L 249.427089 63.360503 
L 252.733619 64.454347 
L 256.040148 63.361759 
L 259.346678 64.453674 
L 262.653207 66.644966 
L 265.959736 63.358446 
L 269.266266 65.547718 
L 272.572795 64.454092 
L 275.879324 63.360885 
L 279.185854 63.358829 
L 282.492383 65.552213 
L 285.798913 65.564976 
L 289.105442 65.564206 
L 292.411971 66.65321 
L 295.718501 63.360885 
L 299.02503 63.359211 
L 302.33156 63.359629 
L 305.638089 63.361304 
L 308.944618 64.453528 
L 312.251148 64.463865 
L 315.557677 65.548137 
L 318.864206 63.358792 
L 322.170736 63.360885 
L 325.477265 63.358792 
L 328.783795 65.546881 
L 332.090324 65.563943 
L 335.396853 63.361777 
L 338.703383 66.641763 
L 342.009912 67.740044 
L 345.316441 66.656504 
L 348.622971 65.575635 
L 351.9295 66.64431 
L 355.23603 65.575938 
L 358.542559 63.368694 
L 361.849088 64.459289 
L 365.155618 66.64775 
L 368.462147 87.432844 
L 371.768677 184.798664 
L 375.075206 228.559186 
L 378.381735 257.723857 
L 381.688265 275.41549 
L 384.994794 279.682208 
L 388.301323 302.449867 
L 391.607853 349.314254 
L 394.914382 369.442158 
L 398.220912 370.081719 
L 401.527441 372.799866 
L 404.83397 372.346913 
L 408.1405 372.263084 
L 411.447029 370.355626 
L 414.753559 372.345908 
L 418.060088 370.98783 
L 421.366617 372.801818 
L 424.673147 372.347488 
L 427.979676 372.624588 
L 431.286205 372.800584 
L 434.592735 372.613091 
L 437.899264 372.800871 
L 441.205794 372.8008 
L 444.512323 371.894385 
L 447.818852 372.800728 
L 451.125382 372.237675 
L 454.431911 372.613091 
L 457.73844 365.292537 
L 461.04497 346.146286 
L 464.351499 339.201077 
L 467.658029 336.948576 
L 470.964558 339.95191 
L 474.271087 336.010035 
L 477.577617 336.010035 
L 480.884146 336.57316 
L 484.190676 335.822326 
L 487.497205 336.197743 
L 490.803734 335.447419 
L 494.110264 335.259201 
L 497.416793 335.44691 
L 500.723322 335.259201 
L 504.029852 335.259201 
L 507.336381 335.259201 
L 510.642911 335.446803 
L 513.94944 335.259201 
L 517.255969 335.259201 
L 520.562499 335.259201 
L 523.869028 335.259201 
L 527.175558 335.259201 
L 530.482087 335.259201 
L 533.788616 335.259201 
L 537.095146 335.259201 
L 540.401675 335.658422 
L 543.708204 335.44691 
L 547.014734 335.635491 
L 550.321263 335.259201 
L 553.627793 335.259201 
L 556.934322 335.259201 
L 560.240851 335.259201 
L 563.547381 336.010035 
L 566.85391 335.259201 
L 570.160439 335.259201 
L 573.466969 335.259201 
L 576.773498 335.259201 
L 580.080028 335.259201 
L 583.386557 335.44691 
L 586.693086 335.44691 
L 589.999616 335.259201 
L 593.306145 335.259201 
L 596.612675 335.259201 
L 599.919204 335.44691 
L 603.225733 335.259201 
L 606.532263 335.259201 
L 609.838792 335.259201 
L 613.145321 335.259201 
L 616.451851 335.259201 
L 619.75838 335.259201 
L 623.06491 335.259201 
L 626.371439 335.259201 
L 629.677968 335.259201 
L 632.984498 335.259201 
L 636.291027 335.259201 
L 639.597557 335.259201 
L 642.904086 335.259711 
L 646.210615 335.259201 
L 649.517145 335.259201 
L 652.823674 335.259201 
L 656.130203 335.283005 
L 659.436733 335.259201 
L 662.743262 335.259201 
L 666.049792 335.259201 
L 669.356321 335.259201 
L 672.66285 335.259201 
L 675.96938 335.259201 
L 679.275909 335.634618 
L 679.275909 333.071112 
L 679.275909 333.071112 
L 675.96938 335.259201 
L 672.66285 335.259201 
L 669.356321 335.259201 
L 666.049792 335.259201 
L 662.743262 335.259201 
L 659.436733 335.259201 
L 656.130203 335.255117 
L 652.823674 335.259201 
L 649.517145 335.259201 
L 646.210615 335.259201 
L 642.904086 335.259114 
L 639.597557 335.259201 
L 636.291027 335.259201 
L 632.984498 335.259201 
L 629.677968 335.259201 
L 626.371439 335.259201 
L 623.06491 335.259201 
L 619.75838 335.259201 
L 616.451851 335.259201 
L 613.145321 335.259201 
L 609.838792 335.259201 
L 606.532263 335.259201 
L 603.225733 335.259201 
L 599.919204 334.165157 
L 596.612675 335.259201 
L 593.306145 335.259201 
L 589.999616 335.259201 
L 586.693086 334.165157 
L 583.386557 334.165157 
L 580.080028 335.259201 
L 576.773498 335.259201 
L 573.466969 335.259201 
L 570.160439 335.259201 
L 566.85391 335.259201 
L 563.547381 330.883023 
L 560.240851 335.259201 
L 556.934322 335.259201 
L 553.627793 335.259201 
L 550.321263 335.259201 
L 547.014734 333.070963 
L 543.708204 334.165157 
L 540.401675 333.067028 
L 537.095146 335.259201 
L 533.788616 335.259201 
L 530.482087 335.259201 
L 527.175558 335.259201 
L 523.869028 335.259201 
L 520.562499 335.259201 
L 517.255969 335.259201 
L 513.94944 335.259201 
L 510.642911 334.165776 
L 507.336381 335.259201 
L 504.029852 335.259201 
L 500.723322 335.259201 
L 497.416793 334.165157 
L 494.110264 335.259201 
L 490.803734 334.165069 
L 487.497205 329.788979 
L 484.190676 331.977068 
L 480.884146 327.60089 
L 477.577617 330.883023 
L 474.271087 330.883023 
L 470.964558 307.90809 
L 467.658029 325.412801 
L 464.351499 312.284268 
L 461.04497 271.804624 
L 457.73844 160.21209 
L 454.431911 117.544776 
L 451.125382 119.732865 
L 447.818852 116.45115 
L 444.512323 115.54485 
L 441.205794 116.450731 
L 437.899264 116.450313 
L 434.592735 117.544776 
L 431.286205 116.451987 
L 427.979676 117.543681 
L 424.673147 115.9984 
L 421.366617 116.45306 
L 418.060088 114.640512 
L 414.753559 116.007609 
L 411.447029 115.288366 
L 408.1405 119.757719 
L 404.83397 116.001749 
L 401.527441 116.456173 
L 398.220912 113.732142 
L 394.914382 114.373723 
L 391.607853 95.526945 
L 388.301323 49.944567 
L 384.994794 31.022997 
L 381.688265 28.038182 
L 378.381735 32.13512 
L 375.075206 35.015005 
L 371.768677 42.523123 
L 368.462147 59.228152 
L 365.155618 62.794006 
L 361.849088 63.16969 
L 358.542559 63.357415 
L 355.23603 62.978915 
L 351.9295 62.794596 
L 348.622971 62.977952 
L 345.316441 62.792504 
L 342.009912 62.606903 
L 338.703383 62.795033 
L 335.396853 63.35779 
L 332.090324 62.980161 
L 328.783795 62.982885 
L 325.477265 63.358302 
L 322.170736 63.357943 
L 318.864206 63.358302 
L 315.557677 62.98267 
L 312.251148 63.168701 
L 308.944618 63.170475 
L 305.638089 63.357871 
L 302.33156 63.358158 
L 299.02503 63.35823 
L 295.718501 63.357943 
L 292.411971 62.793069 
L 289.105442 62.979913 
L 285.798913 62.980288 
L 282.492383 62.98197 
L 279.185854 63.358296 
L 275.879324 63.357943 
L 272.572795 63.170378 
L 269.266266 62.982742 
L 265.959736 63.358361 
L 262.653207 62.794484 
L 259.346678 63.17045 
L 256.040148 63.357793 
L 252.733619 63.170334 
L 249.427089 63.358008 
L 246.12056 62.789987 
L 242.814031 63.169588 
L 239.507501 62.794883 
L 236.200972 62.795018 
L 232.894442 62.982376 
L 229.587913 63.170181 
L 226.281384 63.170593 
L 222.974854 63.170584 
L 219.668325 63.170378 
L 216.361796 62.98267 
L 213.055266 63.170006 
L 209.748737 62.982076 
L 206.442207 62.97738 
L 203.135678 62.98055 
L 199.829149 62.982233 
L 196.522619 62.795105 
L 193.21609 62.982239 
L 189.909561 63.1703 
L 186.603031 62.981471 
L 183.296502 62.419154 
L 179.989972 63.357937 
L 176.683443 62.418917 
L 173.376914 63.357656 
L 170.070384 62.605982 
L 166.763855 62.599631 
L 163.457325 62.981589 
L 160.150796 62.981248 
L 156.844267 61.849993 
L 153.537737 62.406083 
L 150.231208 61.663996 
L 146.924679 59.780412 
L 143.618149 59.586435 
L 140.31162 62.785774 
L 137.00509 61.909755 
L 133.698561 61.842031 
L 130.392032 60.023791 
L 127.085502 60.566859 
L 123.778973 56.27099 
L 120.472443 57.46382 
L 117.165914 57.668599 
L 113.859385 56.849219 
L 110.552855 58.19222 
L 107.246326 68.371962 
L 103.939797 100.860786 
L 100.633267 154.341949 
L 97.326738 192.916235 
L 94.020208 219.989199 
L 90.713679 237.608755 
L 87.40715 279.290486 
L 84.10062 279.237252 
L 80.794091 306.719919 
z
" clip-path="url(#pc114b59c95)" style="fill: #1f77b4; fill-opacity: 0.2"/>
   </g>
   <g id="matplotlib.axis_1">
    <g id="xtick_1">
     <g id="line2d_1">
      <path d="M 79.124294 390.04 
L 79.124294 10.8 
" clip-path="url(#pc114b59c95)" style="fill: none; stroke: #b0b0b0; stroke-width: 0.8; stroke-linecap: square"/>
     </g>
     <g id="line2d_2">
      <defs>
       <path id="m5fa7f15ac0" d="M 0 0 
L 0 3.5 
" style="stroke: #000000; stroke-width: 0.8"/>
      </defs>
      <g>
       <use xlink:href="#m5fa7f15ac0" x="79.124294" y="390.04" style="stroke: #000000; stroke-width: 0.8"/>
      </g>
     </g>
     <g id="text_1">
      <!-- 0 -->
      <g transform="translate(75.943044 404.638438) scale(0.1 -0.1)">
       <defs>
        <path id="DejaVuSans-30" d="M 2034 4250 
Q 1547 4250 1301 3770 
Q 1056 3291 1056 2328 
Q 1056 1369 1301 889 
Q 1547 409 2034 409 
Q 2525 409 2770 889 
Q 3016 1369 3016 2328 
Q 3016 3291 2770 3770 
Q 2525 4250 2034 4250 
z
M 2034 4750 
Q 2819 4750 3233 4129 
Q 3647 3509 3647 2328 
Q 3647 1150 3233 529 
Q 2819 -91 2034 -91 
Q 1250 -91 836 529 
Q 422 1150 422 2328 
Q 422 3509 836 4129 
Q 1250 4750 2034 4750 
z
" transform="scale(0.015625)"/>
       </defs>
       <use xlink:href="#DejaVuSans-30"/>
      </g>
     </g>
    </g>
    <g id="xtick_2">
     <g id="line2d_3">
      <path d="M 161.787528 390.04 
L 161.787528 10.8 
" clip-path="url(#pc114b59c95)" style="fill: none; stroke: #b0b0b0; stroke-width: 0.8; stroke-linecap: square"/>
     </g>
     <g id="line2d_4">
      <g>
       <use xlink:href="#m5fa7f15ac0" x="161.787528" y="390.04" style="stroke: #000000; stroke-width: 0.8"/>
      </g>
     </g>
     <g id="text_2">
      <!-- 5000 -->
      <g transform="translate(149.062528 404.638438) scale(0.1 -0.1)">
       <defs>
        <path id="DejaVuSans-35" d="M 691 4666 
L 3169 4666 
L 3169 4134 
L 1269 4134 
L 1269 2991 
Q 1406 3038 1543 3061 
Q 1681 3084 1819 3084 
Q 2600 3084 3056 2656 
Q 3513 2228 3513 1497 
Q 3513 744 3044 326 
Q 2575 -91 1722 -91 
Q 1428 -91 1123 -41 
Q 819 9 494 109 
L 494 744 
Q 775 591 1075 516 
Q 1375 441 1709 441 
Q 2250 441 2565 725 
Q 2881 1009 2881 1497 
Q 2881 1984 2565 2268 
Q 2250 2553 1709 2553 
Q 1456 2553 1204 2497 
Q 953 2441 691 2322 
L 691 4666 
z
" transform="scale(0.015625)"/>
       </defs>
       <use xlink:href="#DejaVuSans-35"/>
       <use xlink:href="#DejaVuSans-30" transform="translate(63.623047 0)"/>
       <use xlink:href="#DejaVuSans-30" transform="translate(127.246094 0)"/>
       <use xlink:href="#DejaVuSans-30" transform="translate(190.869141 0)"/>
      </g>
     </g>
    </g>
    <g id="xtick_3">
     <g id="line2d_5">
      <path d="M 244.450763 390.04 
L 244.450763 10.8 
" clip-path="url(#pc114b59c95)" style="fill: none; stroke: #b0b0b0; stroke-width: 0.8; stroke-linecap: square"/>
     </g>
     <g id="line2d_6">
      <g>
       <use xlink:href="#m5fa7f15ac0" x="244.450763" y="390.04" style="stroke: #000000; stroke-width: 0.8"/>
      </g>
     </g>
     <g id="text_3">
      <!-- 10000 -->
      <g transform="translate(228.544513 404.638438) scale(0.1 -0.1)">
       <defs>
        <path id="DejaVuSans-31" d="M 794 531 
L 1825 531 
L 1825 4091 
L 703 3866 
L 703 4441 
L 1819 4666 
L 2450 4666 
L 2450 531 
L 3481 531 
L 3481 0 
L 794 0 
L 794 531 
z
" transform="scale(0.015625)"/>
       </defs>
       <use xlink:href="#DejaVuSans-31"/>
       <use xlink:href="#DejaVuSans-30" transform="translate(63.623047 0)"/>
       <use xlink:href="#DejaVuSans-30" transform="translate(127.246094 0)"/>
       <use xlink:href="#DejaVuSans-30" transform="translate(190.869141 0)"/>
       <use xlink:href="#DejaVuSans-30" transform="translate(254.492188 0)"/>
      </g>
     </g>
    </g>
    <g id="xtick_4">
     <g id="line2d_7">
      <path d="M 327.113997 390.04 
L 327.113997 10.8 
" clip-path="url(#pc114b59c95)" style="fill: none; stroke: #b0b0b0; stroke-width: 0.8; stroke-linecap: square"/>
     </g>
     <g id="line2d_8">
      <g>
       <use xlink:href="#m5fa7f15ac0" x="327.113997" y="390.04" style="stroke: #000000; stroke-width: 0.8"/>
      </g>
     </g>
     <g id="text_4">
      <!-- 15000 -->
      <g transform="translate(311.207747 404.638438) scale(0.1 -0.1)">
       <use xlink:href="#DejaVuSans-31"/>
       <use xlink:href="#DejaVuSans-35" transform="translate(63.623047 0)"/>
       <use xlink:href="#DejaVuSans-30" transform="translate(127.246094 0)"/>
       <use xlink:href="#DejaVuSans-30" transform="translate(190.869141 0)"/>
       <use xlink:href="#DejaVuSans-30" transform="translate(254.492188 0)"/>
      </g>
     </g>
    </g>
    <g id="xtick_5">
     <g id="line2d_9">
      <path d="M 409.777232 390.04 
L 409.777232 10.8 
" clip-path="url(#pc114b59c95)" style="fill: none; stroke: #b0b0b0; stroke-width: 0.8; stroke-linecap: square"/>
     </g>
     <g id="line2d_10">
      <g>
       <use xlink:href="#m5fa7f15ac0" x="409.777232" y="390.04" style="stroke: #000000; stroke-width: 0.8"/>
      </g>
     </g>
     <g id="text_5">
      <!-- 20000 -->
      <g transform="translate(393.870982 404.638438) scale(0.1 -0.1)">
       <defs>
        <path id="DejaVuSans-32" d="M 1228 531 
L 3431 531 
L 3431 0 
L 469 0 
L 469 531 
Q 828 903 1448 1529 
Q 2069 2156 2228 2338 
Q 2531 2678 2651 2914 
Q 2772 3150 2772 3378 
Q 2772 3750 2511 3984 
Q 2250 4219 1831 4219 
Q 1534 4219 1204 4116 
Q 875 4013 500 3803 
L 500 4441 
Q 881 4594 1212 4672 
Q 1544 4750 1819 4750 
Q 2544 4750 2975 4387 
Q 3406 4025 3406 3419 
Q 3406 3131 3298 2873 
Q 3191 2616 2906 2266 
Q 2828 2175 2409 1742 
Q 1991 1309 1228 531 
z
" transform="scale(0.015625)"/>
       </defs>
       <use xlink:href="#DejaVuSans-32"/>
       <use xlink:href="#DejaVuSans-30" transform="translate(63.623047 0)"/>
       <use xlink:href="#DejaVuSans-30" transform="translate(127.246094 0)"/>
       <use xlink:href="#DejaVuSans-30" transform="translate(190.869141 0)"/>
       <use xlink:href="#DejaVuSans-30" transform="translate(254.492188 0)"/>
      </g>
     </g>
    </g>
    <g id="xtick_6">
     <g id="line2d_11">
      <path d="M 492.440466 390.04 
L 492.440466 10.8 
" clip-path="url(#pc114b59c95)" style="fill: none; stroke: #b0b0b0; stroke-width: 0.8; stroke-linecap: square"/>
     </g>
     <g id="line2d_12">
      <g>
       <use xlink:href="#m5fa7f15ac0" x="492.440466" y="390.04" style="stroke: #000000; stroke-width: 0.8"/>
      </g>
     </g>
     <g id="text_6">
      <!-- 25000 -->
      <g transform="translate(476.534216 404.638438) scale(0.1 -0.1)">
       <use xlink:href="#DejaVuSans-32"/>
       <use xlink:href="#DejaVuSans-35" transform="translate(63.623047 0)"/>
       <use xlink:href="#DejaVuSans-30" transform="translate(127.246094 0)"/>
       <use xlink:href="#DejaVuSans-30" transform="translate(190.869141 0)"/>
       <use xlink:href="#DejaVuSans-30" transform="translate(254.492188 0)"/>
      </g>
     </g>
    </g>
    <g id="xtick_7">
     <g id="line2d_13">
      <path d="M 575.103701 390.04 
L 575.103701 10.8 
" clip-path="url(#pc114b59c95)" style="fill: none; stroke: #b0b0b0; stroke-width: 0.8; stroke-linecap: square"/>
     </g>
     <g id="line2d_14">
      <g>
       <use xlink:href="#m5fa7f15ac0" x="575.103701" y="390.04" style="stroke: #000000; stroke-width: 0.8"/>
      </g>
     </g>
     <g id="text_7">
      <!-- 30000 -->
      <g transform="translate(559.197451 404.638438) scale(0.1 -0.1)">
       <defs>
        <path id="DejaVuSans-33" d="M 2597 2516 
Q 3050 2419 3304 2112 
Q 3559 1806 3559 1356 
Q 3559 666 3084 287 
Q 2609 -91 1734 -91 
Q 1441 -91 1130 -33 
Q 819 25 488 141 
L 488 750 
Q 750 597 1062 519 
Q 1375 441 1716 441 
Q 2309 441 2620 675 
Q 2931 909 2931 1356 
Q 2931 1769 2642 2001 
Q 2353 2234 1838 2234 
L 1294 2234 
L 1294 2753 
L 1863 2753 
Q 2328 2753 2575 2939 
Q 2822 3125 2822 3475 
Q 2822 3834 2567 4026 
Q 2313 4219 1838 4219 
Q 1578 4219 1281 4162 
Q 984 4106 628 3988 
L 628 4550 
Q 988 4650 1302 4700 
Q 1616 4750 1894 4750 
Q 2613 4750 3031 4423 
Q 3450 4097 3450 3541 
Q 3450 3153 3228 2886 
Q 3006 2619 2597 2516 
z
" transform="scale(0.015625)"/>
       </defs>
       <use xlink:href="#DejaVuSans-33"/>
       <use xlink:href="#DejaVuSans-30" transform="translate(63.623047 0)"/>
       <use xlink:href="#DejaVuSans-30" transform="translate(127.246094 0)"/>
       <use xlink:href="#DejaVuSans-30" transform="translate(190.869141 0)"/>
       <use xlink:href="#DejaVuSans-30" transform="translate(254.492188 0)"/>
      </g>
     </g>
    </g>
    <g id="xtick_8">
     <g id="line2d_15">
      <path d="M 657.766935 390.04 
L 657.766935 10.8 
" clip-path="url(#pc114b59c95)" style="fill: none; stroke: #b0b0b0; stroke-width: 0.8; stroke-linecap: square"/>
     </g>
     <g id="line2d_16">
      <g>
       <use xlink:href="#m5fa7f15ac0" x="657.766935" y="390.04" style="stroke: #000000; stroke-width: 0.8"/>
      </g>
     </g>
     <g id="text_8">
      <!-- 35000 -->
      <g transform="translate(641.860685 404.638438) scale(0.1 -0.1)">
       <use xlink:href="#DejaVuSans-33"/>
       <use xlink:href="#DejaVuSans-35" transform="translate(63.623047 0)"/>
       <use xlink:href="#DejaVuSans-30" transform="translate(127.246094 0)"/>
       <use xlink:href="#DejaVuSans-30" transform="translate(190.869141 0)"/>
       <use xlink:href="#DejaVuSans-30" transform="translate(254.492188 0)"/>
      </g>
     </g>
    </g>
    <g id="text_9">
     <!-- Episodes -->
     <g transform="translate(357.792813 418.316562) scale(0.1 -0.1)">
      <defs>
       <path id="DejaVuSans-45" d="M 628 4666 
L 3578 4666 
L 3578 4134 
L 1259 4134 
L 1259 2753 
L 3481 2753 
L 3481 2222 
L 1259 2222 
L 1259 531 
L 3634 531 
L 3634 0 
L 628 0 
L 628 4666 
z
" transform="scale(0.015625)"/>
       <path id="DejaVuSans-70" d="M 1159 525 
L 1159 -1331 
L 581 -1331 
L 581 3500 
L 1159 3500 
L 1159 2969 
Q 1341 3281 1617 3432 
Q 1894 3584 2278 3584 
Q 2916 3584 3314 3078 
Q 3713 2572 3713 1747 
Q 3713 922 3314 415 
Q 2916 -91 2278 -91 
Q 1894 -91 1617 61 
Q 1341 213 1159 525 
z
M 3116 1747 
Q 3116 2381 2855 2742 
Q 2594 3103 2138 3103 
Q 1681 3103 1420 2742 
Q 1159 2381 1159 1747 
Q 1159 1113 1420 752 
Q 1681 391 2138 391 
Q 2594 391 2855 752 
Q 3116 1113 3116 1747 
z
" transform="scale(0.015625)"/>
       <path id="DejaVuSans-69" d="M 603 3500 
L 1178 3500 
L 1178 0 
L 603 0 
L 603 3500 
z
M 603 4863 
L 1178 4863 
L 1178 4134 
L 603 4134 
L 603 4863 
z
" transform="scale(0.015625)"/>
       <path id="DejaVuSans-73" d="M 2834 3397 
L 2834 2853 
Q 2591 2978 2328 3040 
Q 2066 3103 1784 3103 
Q 1356 3103 1142 2972 
Q 928 2841 928 2578 
Q 928 2378 1081 2264 
Q 1234 2150 1697 2047 
L 1894 2003 
Q 2506 1872 2764 1633 
Q 3022 1394 3022 966 
Q 3022 478 2636 193 
Q 2250 -91 1575 -91 
Q 1294 -91 989 -36 
Q 684 19 347 128 
L 347 722 
Q 666 556 975 473 
Q 1284 391 1588 391 
Q 1994 391 2212 530 
Q 2431 669 2431 922 
Q 2431 1156 2273 1281 
Q 2116 1406 1581 1522 
L 1381 1569 
Q 847 1681 609 1914 
Q 372 2147 372 2553 
Q 372 3047 722 3315 
Q 1072 3584 1716 3584 
Q 2034 3584 2315 3537 
Q 2597 3491 2834 3397 
z
" transform="scale(0.015625)"/>
       <path id="DejaVuSans-6f" d="M 1959 3097 
Q 1497 3097 1228 2736 
Q 959 2375 959 1747 
Q 959 1119 1226 758 
Q 1494 397 1959 397 
Q 2419 397 2687 759 
Q 2956 1122 2956 1747 
Q 2956 2369 2687 2733 
Q 2419 3097 1959 3097 
z
M 1959 3584 
Q 2709 3584 3137 3096 
Q 3566 2609 3566 1747 
Q 3566 888 3137 398 
Q 2709 -91 1959 -91 
Q 1206 -91 779 398 
Q 353 888 353 1747 
Q 353 2609 779 3096 
Q 1206 3584 1959 3584 
z
" transform="scale(0.015625)"/>
       <path id="DejaVuSans-64" d="M 2906 2969 
L 2906 4863 
L 3481 4863 
L 3481 0 
L 2906 0 
L 2906 525 
Q 2725 213 2448 61 
Q 2172 -91 1784 -91 
Q 1150 -91 751 415 
Q 353 922 353 1747 
Q 353 2572 751 3078 
Q 1150 3584 1784 3584 
Q 2172 3584 2448 3432 
Q 2725 3281 2906 2969 
z
M 947 1747 
Q 947 1113 1208 752 
Q 1469 391 1925 391 
Q 2381 391 2643 752 
Q 2906 1113 2906 1747 
Q 2906 2381 2643 2742 
Q 2381 3103 1925 3103 
Q 1469 3103 1208 2742 
Q 947 2381 947 1747 
z
" transform="scale(0.015625)"/>
       <path id="DejaVuSans-65" d="M 3597 1894 
L 3597 1613 
L 953 1613 
Q 991 1019 1311 708 
Q 1631 397 2203 397 
Q 2534 397 2845 478 
Q 3156 559 3463 722 
L 3463 178 
Q 3153 47 2828 -22 
Q 2503 -91 2169 -91 
Q 1331 -91 842 396 
Q 353 884 353 1716 
Q 353 2575 817 3079 
Q 1281 3584 2069 3584 
Q 2775 3584 3186 3129 
Q 3597 2675 3597 1894 
z
M 3022 2063 
Q 3016 2534 2758 2815 
Q 2500 3097 2075 3097 
Q 1594 3097 1305 2825 
Q 1016 2553 972 2059 
L 3022 2063 
z
" transform="scale(0.015625)"/>
      </defs>
      <use xlink:href="#DejaVuSans-45"/>
      <use xlink:href="#DejaVuSans-70" transform="translate(63.183594 0)"/>
      <use xlink:href="#DejaVuSans-69" transform="translate(126.660156 0)"/>
      <use xlink:href="#DejaVuSans-73" transform="translate(154.443359 0)"/>
      <use xlink:href="#DejaVuSans-6f" transform="translate(206.542969 0)"/>
      <use xlink:href="#DejaVuSans-64" transform="translate(267.724609 0)"/>
      <use xlink:href="#DejaVuSans-65" transform="translate(331.201172 0)"/>
      <use xlink:href="#DejaVuSans-73" transform="translate(392.724609 0)"/>
     </g>
    </g>
   </g>
   <g id="matplotlib.axis_2">
    <g id="ytick_1">
     <g id="line2d_17">
      <path d="M 50.87 350.184643 
L 709.2 350.184643 
" clip-path="url(#pc114b59c95)" style="fill: none; stroke: #b0b0b0; stroke-width: 0.8; stroke-linecap: square"/>
     </g>
     <g id="line2d_18">
      <defs>
       <path id="m68291e0872" d="M 0 0 
L -3.5 0 
" style="stroke: #000000; stroke-width: 0.8"/>
      </defs>
      <g>
       <use xlink:href="#m68291e0872" x="50.87" y="350.184643" style="stroke: #000000; stroke-width: 0.8"/>
      </g>
     </g>
     <g id="text_10">
      <!-- 0 -->
      <g transform="translate(37.5075 353.983861) scale(0.1 -0.1)">
       <use xlink:href="#DejaVuSans-30"/>
      </g>
     </g>
    </g>
    <g id="ytick_2">
     <g id="line2d_19">
      <path d="M 50.87 295.910312 
L 709.2 295.910312 
" clip-path="url(#pc114b59c95)" style="fill: none; stroke: #b0b0b0; stroke-width: 0.8; stroke-linecap: square"/>
     </g>
     <g id="line2d_20">
      <g>
       <use xlink:href="#m68291e0872" x="50.87" y="295.910312" style="stroke: #000000; stroke-width: 0.8"/>
      </g>
     </g>
     <g id="text_11">
      <!-- 20 -->
      <g transform="translate(31.145 299.709531) scale(0.1 -0.1)">
       <use xlink:href="#DejaVuSans-32"/>
       <use xlink:href="#DejaVuSans-30" transform="translate(63.623047 0)"/>
      </g>
     </g>
    </g>
    <g id="ytick_3">
     <g id="line2d_21">
      <path d="M 50.87 241.635981 
L 709.2 241.635981 
" clip-path="url(#pc114b59c95)" style="fill: none; stroke: #b0b0b0; stroke-width: 0.8; stroke-linecap: square"/>
     </g>
     <g id="line2d_22">
      <g>
       <use xlink:href="#m68291e0872" x="50.87" y="241.635981" style="stroke: #000000; stroke-width: 0.8"/>
      </g>
     </g>
     <g id="text_12">
      <!-- 40 -->
      <g transform="translate(31.145 245.4352) scale(0.1 -0.1)">
       <defs>
        <path id="DejaVuSans-34" d="M 2419 4116 
L 825 1625 
L 2419 1625 
L 2419 4116 
z
M 2253 4666 
L 3047 4666 
L 3047 1625 
L 3713 1625 
L 3713 1100 
L 3047 1100 
L 3047 0 
L 2419 0 
L 2419 1100 
L 313 1100 
L 313 1709 
L 2253 4666 
z
" transform="scale(0.015625)"/>
       </defs>
       <use xlink:href="#DejaVuSans-34"/>
       <use xlink:href="#DejaVuSans-30" transform="translate(63.623047 0)"/>
      </g>
     </g>
    </g>
    <g id="ytick_4">
     <g id="line2d_23">
      <path d="M 50.87 187.361651 
L 709.2 187.361651 
" clip-path="url(#pc114b59c95)" style="fill: none; stroke: #b0b0b0; stroke-width: 0.8; stroke-linecap: square"/>
     </g>
     <g id="line2d_24">
      <g>
       <use xlink:href="#m68291e0872" x="50.87" y="187.361651" style="stroke: #000000; stroke-width: 0.8"/>
      </g>
     </g>
     <g id="text_13">
      <!-- 60 -->
      <g transform="translate(31.145 191.160869) scale(0.1 -0.1)">
       <defs>
        <path id="DejaVuSans-36" d="M 2113 2584 
Q 1688 2584 1439 2293 
Q 1191 2003 1191 1497 
Q 1191 994 1439 701 
Q 1688 409 2113 409 
Q 2538 409 2786 701 
Q 3034 994 3034 1497 
Q 3034 2003 2786 2293 
Q 2538 2584 2113 2584 
z
M 3366 4563 
L 3366 3988 
Q 3128 4100 2886 4159 
Q 2644 4219 2406 4219 
Q 1781 4219 1451 3797 
Q 1122 3375 1075 2522 
Q 1259 2794 1537 2939 
Q 1816 3084 2150 3084 
Q 2853 3084 3261 2657 
Q 3669 2231 3669 1497 
Q 3669 778 3244 343 
Q 2819 -91 2113 -91 
Q 1303 -91 875 529 
Q 447 1150 447 2328 
Q 447 3434 972 4092 
Q 1497 4750 2381 4750 
Q 2619 4750 2861 4703 
Q 3103 4656 3366 4563 
z
" transform="scale(0.015625)"/>
       </defs>
       <use xlink:href="#DejaVuSans-36"/>
       <use xlink:href="#DejaVuSans-30" transform="translate(63.623047 0)"/>
      </g>
     </g>
    </g>
    <g id="ytick_5">
     <g id="line2d_25">
      <path d="M 50.87 133.08732 
L 709.2 133.08732 
" clip-path="url(#pc114b59c95)" style="fill: none; stroke: #b0b0b0; stroke-width: 0.8; stroke-linecap: square"/>
     </g>
     <g id="line2d_26">
      <g>
       <use xlink:href="#m68291e0872" x="50.87" y="133.08732" style="stroke: #000000; stroke-width: 0.8"/>
      </g>
     </g>
     <g id="text_14">
      <!-- 80 -->
      <g transform="translate(31.145 136.886539) scale(0.1 -0.1)">
       <defs>
        <path id="DejaVuSans-38" d="M 2034 2216 
Q 1584 2216 1326 1975 
Q 1069 1734 1069 1313 
Q 1069 891 1326 650 
Q 1584 409 2034 409 
Q 2484 409 2743 651 
Q 3003 894 3003 1313 
Q 3003 1734 2745 1975 
Q 2488 2216 2034 2216 
z
M 1403 2484 
Q 997 2584 770 2862 
Q 544 3141 544 3541 
Q 544 4100 942 4425 
Q 1341 4750 2034 4750 
Q 2731 4750 3128 4425 
Q 3525 4100 3525 3541 
Q 3525 3141 3298 2862 
Q 3072 2584 2669 2484 
Q 3125 2378 3379 2068 
Q 3634 1759 3634 1313 
Q 3634 634 3220 271 
Q 2806 -91 2034 -91 
Q 1263 -91 848 271 
Q 434 634 434 1313 
Q 434 1759 690 2068 
Q 947 2378 1403 2484 
z
M 1172 3481 
Q 1172 3119 1398 2916 
Q 1625 2713 2034 2713 
Q 2441 2713 2670 2916 
Q 2900 3119 2900 3481 
Q 2900 3844 2670 4047 
Q 2441 4250 2034 4250 
Q 1625 4250 1398 4047 
Q 1172 3844 1172 3481 
z
" transform="scale(0.015625)"/>
       </defs>
       <use xlink:href="#DejaVuSans-38"/>
       <use xlink:href="#DejaVuSans-30" transform="translate(63.623047 0)"/>
      </g>
     </g>
    </g>
    <g id="ytick_6">
     <g id="line2d_27">
      <path d="M 50.87 78.812989 
L 709.2 78.812989 
" clip-path="url(#pc114b59c95)" style="fill: none; stroke: #b0b0b0; stroke-width: 0.8; stroke-linecap: square"/>
     </g>
     <g id="line2d_28">
      <g>
       <use xlink:href="#m68291e0872" x="50.87" y="78.812989" style="stroke: #000000; stroke-width: 0.8"/>
      </g>
     </g>
     <g id="text_15">
      <!-- 100 -->
      <g transform="translate(24.7825 82.612208) scale(0.1 -0.1)">
       <use xlink:href="#DejaVuSans-31"/>
       <use xlink:href="#DejaVuSans-30" transform="translate(63.623047 0)"/>
       <use xlink:href="#DejaVuSans-30" transform="translate(127.246094 0)"/>
      </g>
     </g>
    </g>
    <g id="ytick_7">
     <g id="line2d_29">
      <path d="M 50.87 24.538659 
L 709.2 24.538659 
" clip-path="url(#pc114b59c95)" style="fill: none; stroke: #b0b0b0; stroke-width: 0.8; stroke-linecap: square"/>
     </g>
     <g id="line2d_30">
      <g>
       <use xlink:href="#m68291e0872" x="50.87" y="24.538659" style="stroke: #000000; stroke-width: 0.8"/>
      </g>
     </g>
     <g id="text_16">
      <!-- 120 -->
      <g transform="translate(24.7825 28.337877) scale(0.1 -0.1)">
       <use xlink:href="#DejaVuSans-31"/>
       <use xlink:href="#DejaVuSans-32" transform="translate(63.623047 0)"/>
       <use xlink:href="#DejaVuSans-30" transform="translate(127.246094 0)"/>
      </g>
     </g>
    </g>
    <g id="text_17">
     <!-- Reward -->
     <g transform="translate(18.702813 219.041094) rotate(-90) scale(0.1 -0.1)">
      <defs>
       <path id="DejaVuSans-52" d="M 2841 2188 
Q 3044 2119 3236 1894 
Q 3428 1669 3622 1275 
L 4263 0 
L 3584 0 
L 2988 1197 
Q 2756 1666 2539 1819 
Q 2322 1972 1947 1972 
L 1259 1972 
L 1259 0 
L 628 0 
L 628 4666 
L 2053 4666 
Q 2853 4666 3247 4331 
Q 3641 3997 3641 3322 
Q 3641 2881 3436 2590 
Q 3231 2300 2841 2188 
z
M 1259 4147 
L 1259 2491 
L 2053 2491 
Q 2509 2491 2742 2702 
Q 2975 2913 2975 3322 
Q 2975 3731 2742 3939 
Q 2509 4147 2053 4147 
L 1259 4147 
z
" transform="scale(0.015625)"/>
       <path id="DejaVuSans-77" d="M 269 3500 
L 844 3500 
L 1563 769 
L 2278 3500 
L 2956 3500 
L 3675 769 
L 4391 3500 
L 4966 3500 
L 4050 0 
L 3372 0 
L 2619 2869 
L 1863 0 
L 1184 0 
L 269 3500 
z
" transform="scale(0.015625)"/>
       <path id="DejaVuSans-61" d="M 2194 1759 
Q 1497 1759 1228 1600 
Q 959 1441 959 1056 
Q 959 750 1161 570 
Q 1363 391 1709 391 
Q 2188 391 2477 730 
Q 2766 1069 2766 1631 
L 2766 1759 
L 2194 1759 
z
M 3341 1997 
L 3341 0 
L 2766 0 
L 2766 531 
Q 2569 213 2275 61 
Q 1981 -91 1556 -91 
Q 1019 -91 701 211 
Q 384 513 384 1019 
Q 384 1609 779 1909 
Q 1175 2209 1959 2209 
L 2766 2209 
L 2766 2266 
Q 2766 2663 2505 2880 
Q 2244 3097 1772 3097 
Q 1472 3097 1187 3025 
Q 903 2953 641 2809 
L 641 3341 
Q 956 3463 1253 3523 
Q 1550 3584 1831 3584 
Q 2591 3584 2966 3190 
Q 3341 2797 3341 1997 
z
" transform="scale(0.015625)"/>
       <path id="DejaVuSans-72" d="M 2631 2963 
Q 2534 3019 2420 3045 
Q 2306 3072 2169 3072 
Q 1681 3072 1420 2755 
Q 1159 2438 1159 1844 
L 1159 0 
L 581 0 
L 581 3500 
L 1159 3500 
L 1159 2956 
Q 1341 3275 1631 3429 
Q 1922 3584 2338 3584 
Q 2397 3584 2469 3576 
Q 2541 3569 2628 3553 
L 2631 2963 
z
" transform="scale(0.015625)"/>
      </defs>
      <use xlink:href="#DejaVuSans-52"/>
      <use xlink:href="#DejaVuSans-65" transform="translate(64.982422 0)"/>
      <use xlink:href="#DejaVuSans-77" transform="translate(126.505859 0)"/>
      <use xlink:href="#DejaVuSans-61" transform="translate(208.292969 0)"/>
      <use xlink:href="#DejaVuSans-72" transform="translate(269.572266 0)"/>
      <use xlink:href="#DejaVuSans-64" transform="translate(308.935547 0)"/>
     </g>
    </g>
   </g>
   <g id="line2d_31">
    <path d="M 80.794091 326.167806 
L 84.10062 313.344169 
L 87.40715 313.933076 
L 90.713679 293.290052 
L 94.020208 284.356528 
L 97.326738 268.715419 
L 100.633267 245.433963 
L 103.939797 198.735236 
L 107.246326 154.38462 
L 110.552855 119.536602 
L 113.859385 88.622042 
L 117.165914 83.437042 
L 120.472443 83.886365 
L 123.778973 82.104539 
L 127.085502 74.811396 
L 130.392032 73.017154 
L 133.698561 67.033929 
L 137.00509 68.43288 
L 140.31162 64.747563 
L 143.618149 72.472722 
L 146.924679 71.997219 
L 150.231208 67.449037 
L 153.537737 65.658 
L 156.844267 67.000792 
L 160.150796 64.269429 
L 163.457325 64.268011 
L 166.763855 65.19014 
L 170.070384 65.174807 
L 173.376914 63.360107 
L 176.683443 65.626423 
L 179.989972 63.359429 
L 183.296502 65.62585 
L 186.603031 64.268298 
L 189.909561 63.812424 
L 196.522619 64.718225 
L 199.829149 64.266459 
L 209.748737 64.266835 
L 213.055266 63.813132 
L 216.361796 64.265403 
L 219.668325 63.812235 
L 229.587913 63.81271 
L 236.200972 64.718436 
L 239.507501 64.71876 
L 242.814031 63.814142 
L 246.12056 64.731469 
L 249.427089 63.359256 
L 252.733619 63.812341 
L 256.040148 63.359776 
L 259.346678 63.812062 
L 262.653207 64.719725 
L 265.959736 63.358404 
L 269.266266 64.26523 
L 275.879324 63.359414 
L 279.185854 63.358562 
L 282.492383 64.267092 
L 289.105442 64.272059 
L 292.411971 64.723139 
L 295.718501 63.359414 
L 305.638089 63.359587 
L 308.944618 63.812002 
L 312.251148 63.816283 
L 315.557677 64.265403 
L 318.864206 63.358547 
L 325.477265 63.358547 
L 328.783795 64.264883 
L 332.090324 64.272052 
L 335.396853 63.359783 
L 338.703383 64.718398 
L 342.009912 65.173473 
L 348.622971 64.276793 
L 351.9295 64.719453 
L 355.23603 64.277427 
L 358.542559 63.363055 
L 361.849088 63.814489 
L 365.155618 64.720878 
L 368.462147 73.330498 
L 371.768677 113.660894 
L 375.075206 131.787095 
L 378.381735 144.929489 
L 381.688265 151.726836 
L 384.994794 155.352603 
L 388.301323 176.197217 
L 391.607853 222.420599 
L 394.914382 241.907941 
L 398.220912 241.906931 
L 401.527441 244.628019 
L 404.83397 244.174331 
L 408.1405 246.010402 
L 411.447029 242.821996 
L 414.753559 244.176758 
L 418.060088 242.814171 
L 421.366617 244.627439 
L 424.673147 244.172944 
L 427.979676 245.084135 
L 431.286205 244.626286 
L 434.592735 245.078933 
L 437.899264 244.625592 
L 441.205794 244.625765 
L 444.512323 243.719618 
L 447.818852 244.625939 
L 451.125382 245.98527 
L 454.431911 245.078933 
L 457.73844 262.752314 
L 461.04497 308.975455 
L 464.351499 325.742672 
L 467.658029 331.180689 
L 470.964558 323.93 
L 474.271087 333.446529 
L 477.577617 333.446529 
L 480.884146 332.087025 
L 484.190676 333.899697 
L 487.497205 332.993361 
L 490.803734 334.806244 
L 494.110264 335.259201 
L 497.416793 334.806033 
L 500.723322 335.259201 
L 507.336381 335.259201 
L 510.642911 334.80629 
L 513.94944 335.259201 
L 537.095146 335.259201 
L 540.401675 334.362725 
L 543.708204 334.806033 
L 547.014734 334.353227 
L 550.321263 335.259201 
L 560.240851 335.259201 
L 563.547381 333.446529 
L 566.85391 335.259201 
L 580.080028 335.259201 
L 583.386557 334.806033 
L 586.693086 334.806033 
L 589.999616 335.259201 
L 596.612675 335.259201 
L 599.919204 334.806033 
L 603.225733 335.259201 
L 675.96938 335.259201 
L 679.275909 334.352865 
L 679.275909 334.352865 
" clip-path="url(#pc114b59c95)" style="fill: none; stroke: #1f77b4; stroke-width: 1.5; stroke-linecap: square"/>
   </g>
   <g id="patch_3">
    <path d="M 50.87 390.04 
L 50.87 10.8 
" style="fill: none; stroke: #000000; stroke-width: 0.8; stroke-linejoin: miter; stroke-linecap: square"/>
   </g>
   <g id="patch_4">
    <path d="M 709.2 390.04 
L 709.2 10.8 
" style="fill: none; stroke: #000000; stroke-width: 0.8; stroke-linejoin: miter; stroke-linecap: square"/>
   </g>
   <g id="patch_5">
    <path d="M 50.87 390.04 
L 709.2 390.04 
" style="fill: none; stroke: #000000; stroke-width: 0.8; stroke-linejoin: miter; stroke-linecap: square"/>
   </g>
   <g id="patch_6">
    <path d="M 50.87 10.8 
L 709.2 10.8 
" style="fill: none; stroke: #000000; stroke-width: 0.8; stroke-linejoin: miter; stroke-linecap: square"/>
   </g>
  </g>
 </g>
 <defs>
  <clipPath id="pc114b59c95">
   <rect x="50.87" y="10.8" width="658.33" height="379.24"/>
  </clipPath>
 </defs>
</svg>
