<?xml version="1.0" encoding="utf-8" standalone="no"?>
<!DOCTYPE svg PUBLIC "-//W3C//DTD SVG 1.1//EN"
  "http://www.w3.org/Graphics/SVG/1.1/DTD/svg11.dtd">
<svg xmlns:xlink="http://www.w3.org/1999/xlink" width="720pt" height="432pt" viewBox="0 0 720 432" xmlns="http://www.w3.org/2000/svg" version="1.1">
 <metadata>
  <rdf:RDF xmlns:dc="http://purl.org/dc/elements/1.1/" xmlns:cc="http://creativecommons.org/ns#" xmlns:rdf="http://www.w3.org/1999/02/22-rdf-syntax-ns#">
   <cc:Work>
    <dc:type rdf:resource="http://purl.org/dc/dcmitype/StillImage"/>
    <dc:date>2025-04-22T23:07:35.342748</dc:date>
    <dc:format>image/svg+xml</dc:format>
    <dc:creator>
     <cc:Agent>
      <dc:title>Matplotlib v3.10.0, https://matplotlib.org/</dc:title>
     </cc:Agent>
    </dc:creator>
   </cc:Work>
  </rdf:RDF>
 </metadata>
 <defs>
  <style type="text/css">*{stroke-linejoin: round; stroke-linecap: butt}</style>
 </defs>
 <g id="figure_1">
  <g id="patch_1">
   <path d="M 0 432 
L 720 432 
L 720 0 
L 0 0 
z
" style="fill: #ffffff"/>
  </g>
  <g id="axes_1">
   <g id="patch_2">
    <path d="M 47.63 390.04 
L 709.2 390.04 
L 709.2 10.8 
L 47.63 10.8 
z
" style="fill: #ffffff"/>
   </g>
   <g id="FillBetweenPolyCollection_1">
    <path d="M 77.701364 104.554803 
L 77.701364 369.228593 
L 80.398347 372.801818 
L 83.09533 340.083996 
L 85.792313 343.585497 
L 88.489297 324.38331 
L 91.18628 304.925153 
L 93.883263 269.754374 
L 96.580247 236.806848 
L 99.27723 246.917347 
L 101.974213 251.252625 
L 104.671196 249.212148 
L 107.36818 264.772771 
L 110.065163 285.486859 
L 112.762146 280.537971 
L 115.45913 262.890386 
L 118.156113 269.204307 
L 120.853096 283.602871 
L 123.550079 304.697034 
L 126.247063 294.870271 
L 128.944046 320.436296 
L 131.641029 318.863824 
L 134.338013 317.364777 
L 137.034996 317.115026 
L 139.731979 307.100268 
L 142.428962 302.552587 
L 145.125946 301.206474 
L 147.822929 297.926616 
L 150.519912 264.89848 
L 153.216896 256.538549 
L 155.913879 233.05114 
L 158.610862 238.598225 
L 161.307845 232.756632 
L 164.004829 220.955755 
L 166.701812 233.257068 
L 169.398795 224.874278 
L 172.095779 224.911759 
L 174.792762 222.453467 
L 177.489745 216.7607 
L 180.186728 226.826157 
L 182.883712 222.742834 
L 185.580695 233.879483 
L 188.277678 230.18458 
L 190.974662 232.519023 
L 193.671645 259.55712 
L 196.368628 259.209937 
L 199.065611 254.069265 
L 201.762595 291.04993 
L 204.459578 318.908504 
L 207.156561 317.688551 
L 209.853545 305.392813 
L 212.550528 310.95982 
L 215.247511 296.01012 
L 217.944494 252.853996 
L 220.641478 231.000122 
L 223.338461 235.39503 
L 226.035444 218.548064 
L 228.732428 181.71327 
L 231.429411 199.197283 
L 234.126394 189.955695 
L 236.823377 176.636645 
L 239.520361 183.56335 
L 242.217344 167.708102 
L 244.914327 174.178453 
L 247.611311 143.497254 
L 250.308294 129.611719 
L 253.005277 128.451671 
L 255.70226 122.905245 
L 258.399244 126.558478 
L 261.096227 103.283732 
L 263.79321 96.462597 
L 266.490194 97.623188 
L 269.187177 83.799728 
L 271.88416 91.13496 
L 274.581143 102.456189 
L 277.278127 101.261932 
L 279.97511 82.306231 
L 282.672093 76.312639 
L 285.369077 82.972186 
L 288.06606 105.614644 
L 290.763043 111.079934 
L 293.460026 92.295551 
L 296.15701 84.304095 
L 298.853993 78.310503 
L 301.550976 79.780065 
L 304.24796 73.120519 
L 306.944943 72.316911 
L 309.641926 72.982866 
L 312.338909 81.640277 
L 315.035893 73.648821 
L 317.732876 71.650957 
L 320.429859 74.314775 
L 323.126843 74.314775 
L 325.823826 72.316911 
L 328.520809 70.319048 
L 331.217792 67.655229 
L 333.914776 72.982866 
L 336.611759 69.653093 
L 339.308742 69.653093 
L 342.005726 68.321184 
L 344.702709 75.646685 
L 347.399692 74.314775 
L 350.096675 70.985002 
L 352.793659 73.648821 
L 355.490642 72.982866 
L 358.187625 72.316911 
L 360.884609 69.653093 
L 363.581592 70.319048 
L 366.278575 70.319048 
L 368.975558 110.552174 
L 371.672542 147.569787 
L 374.369525 128.175966 
L 377.066508 128.428421 
L 379.763492 133.146619 
L 382.460475 137.993967 
L 385.157458 124.536679 
L 387.854442 99.792371 
L 390.551425 71.650957 
L 393.248408 67.655229 
L 395.945391 72.316911 
L 398.642375 70.319048 
L 401.339358 65.657365 
L 404.036341 66.32332 
L 406.733325 71.650957 
L 409.430308 67.655229 
L 412.127291 69.653093 
L 414.824274 74.314775 
L 417.521258 69.653093 
L 420.218241 68.987138 
L 422.915224 75.646685 
L 425.612208 68.321184 
L 428.309191 67.655229 
L 431.006174 71.650957 
L 433.703157 65.657365 
L 436.400141 70.319048 
L 439.097124 68.987138 
L 441.794107 73.648821 
L 444.491091 68.987138 
L 447.188074 70.985002 
L 449.885057 66.989274 
L 452.58204 66.32332 
L 455.279024 70.319048 
L 457.976007 66.32332 
L 460.67299 67.655229 
L 463.369974 72.982866 
L 466.066957 67.655229 
L 468.76394 70.319048 
L 471.460923 72.316911 
L 474.157907 71.650957 
L 476.85489 69.653093 
L 479.551873 72.316911 
L 482.248857 76.978594 
L 484.94584 72.316911 
L 487.642823 75.646685 
L 490.339806 75.646685 
L 493.03679 67.655229 
L 495.733773 64.99141 
L 498.430756 66.32332 
L 501.12774 72.982866 
L 503.824723 68.321184 
L 506.521706 75.646685 
L 509.218689 66.32332 
L 511.915673 68.321184 
L 514.612656 68.321184 
L 517.309639 68.321184 
L 520.006623 73.648821 
L 522.703606 68.987138 
L 525.400589 65.657365 
L 528.097572 66.32332 
L 530.794556 66.32332 
L 533.491539 66.989274 
L 536.188522 69.653093 
L 538.885506 66.989274 
L 541.582489 68.987138 
L 544.279472 66.989274 
L 546.976455 64.325456 
L 549.673439 64.325456 
L 552.370422 68.321184 
L 555.067405 66.989274 
L 557.764389 76.978594 
L 560.461372 76.312639 
L 563.158355 73.648821 
L 565.855338 68.987138 
L 568.552322 73.648821 
L 571.249305 74.314775 
L 573.946288 78.310503 
L 576.643272 70.985002 
L 579.340255 68.987138 
L 582.037238 70.319048 
L 584.734221 81.640277 
L 587.431205 70.985002 
L 590.128188 64.99141 
L 592.825171 69.653093 
L 595.522155 68.987138 
L 598.219138 73.648821 
L 600.916121 67.655229 
L 603.613104 64.99141 
L 606.310088 68.321184 
L 609.007071 67.655229 
L 611.704054 69.653093 
L 614.401038 68.321184 
L 617.098021 72.316911 
L 619.795004 64.99141 
L 622.491987 69.653093 
L 625.188971 69.653093 
L 627.885954 72.982866 
L 630.582937 88.299823 
L 633.279921 124.008919 
L 635.976904 105.890491 
L 638.673887 90.297687 
L 641.37087 70.319048 
L 644.067854 80.308367 
L 646.764837 70.319048 
L 649.46182 69.653093 
L 652.158804 78.976458 
L 654.855787 78.976458 
L 657.55277 67.655229 
L 660.249753 74.314775 
L 662.946737 70.985002 
L 665.64372 67.655229 
L 668.340703 96.452867 
L 671.037687 276.926577 
L 673.73467 156.227197 
L 676.431653 106.946553 
L 679.128636 85.797592 
L 679.128636 60.830731 
L 679.128636 60.830731 
L 676.431653 56.232617 
L 673.73467 47.777395 
L 671.037687 28.038182 
L 668.340703 59.002575 
L 665.64372 62.973942 
L 662.946737 62.402644 
L 660.249753 61.831345 
L 657.55277 62.973942 
L 654.855787 61.031527 
L 652.158804 61.031527 
L 649.46182 62.631163 
L 646.764837 62.516903 
L 644.067854 60.803007 
L 641.37087 62.516903 
L 638.673887 59.089111 
L 635.976904 56.736984 
L 633.279921 54.066013 
L 630.582937 59.43189 
L 627.885954 62.059864 
L 625.188971 62.631163 
L 622.491987 62.631163 
L 619.795004 63.430982 
L 617.098021 62.174124 
L 614.401038 62.859683 
L 611.704054 62.631163 
L 609.007071 62.973942 
L 606.310088 62.859683 
L 603.613104 63.430982 
L 600.916121 62.973942 
L 598.219138 61.945605 
L 595.522155 62.745423 
L 592.825171 62.631163 
L 590.128188 63.430982 
L 587.431205 62.402644 
L 584.734221 60.574488 
L 582.037238 62.516903 
L 579.340255 62.745423 
L 576.643272 62.402644 
L 573.946288 61.145786 
L 571.249305 61.831345 
L 568.552322 61.945605 
L 565.855338 62.745423 
L 563.158355 61.945605 
L 560.461372 61.488566 
L 557.764389 61.374306 
L 555.067405 63.088202 
L 552.370422 62.859683 
L 549.673439 63.545241 
L 546.976455 63.545241 
L 544.279472 63.088202 
L 541.582489 62.745423 
L 538.885506 63.088202 
L 536.188522 62.631163 
L 533.491539 63.088202 
L 530.794556 63.202462 
L 528.097572 63.202462 
L 525.400589 63.316722 
L 522.703606 62.745423 
L 520.006623 61.945605 
L 517.309639 62.859683 
L 514.612656 62.859683 
L 511.915673 62.859683 
L 509.218689 63.202462 
L 506.521706 61.602825 
L 503.824723 62.859683 
L 501.12774 62.059864 
L 498.430756 63.202462 
L 495.733773 63.430982 
L 493.03679 62.973942 
L 490.339806 61.602825 
L 487.642823 61.602825 
L 484.94584 62.174124 
L 482.248857 61.374306 
L 479.551873 62.174124 
L 476.85489 62.631163 
L 474.157907 62.288384 
L 471.460923 62.174124 
L 468.76394 62.516903 
L 466.066957 62.973942 
L 463.369974 62.059864 
L 460.67299 62.973942 
L 457.976007 63.202462 
L 455.279024 62.516903 
L 452.58204 63.202462 
L 449.885057 63.088202 
L 447.188074 62.402644 
L 444.491091 62.745423 
L 441.794107 61.945605 
L 439.097124 62.745423 
L 436.400141 62.516903 
L 433.703157 63.316722 
L 431.006174 62.288384 
L 428.309191 62.973942 
L 425.612208 62.859683 
L 422.915224 61.602825 
L 420.218241 62.745423 
L 417.521258 62.631163 
L 414.824274 61.831345 
L 412.127291 62.631163 
L 409.430308 62.973942 
L 406.733325 62.288384 
L 404.036341 63.202462 
L 401.339358 63.316722 
L 398.642375 62.516903 
L 395.945391 62.174124 
L 393.248408 62.973942 
L 390.551425 62.288384 
L 387.854442 57.869851 
L 385.157458 54.089948 
L 382.460475 51.666558 
L 379.763492 53.755431 
L 377.066508 52.956681 
L 374.369525 53.760831 
L 371.672542 49.262772 
L 368.975558 55.937166 
L 366.278575 62.516903 
L 363.581592 62.516903 
L 360.884609 62.631163 
L 358.187625 62.174124 
L 355.490642 62.059864 
L 352.793659 61.945605 
L 350.096675 62.402644 
L 347.399692 61.831345 
L 344.702709 61.602825 
L 342.005726 62.859683 
L 339.308742 62.631163 
L 336.611759 62.631163 
L 333.914776 62.059864 
L 331.217792 62.973942 
L 328.520809 62.516903 
L 325.823826 62.174124 
L 323.126843 61.831345 
L 320.429859 61.831345 
L 317.732876 62.288384 
L 315.035893 61.945605 
L 312.338909 60.574488 
L 309.641926 62.059864 
L 306.944943 62.174124 
L 304.24796 62.473907 
L 301.550976 61.331309 
L 298.853993 61.145786 
L 296.15701 60.117449 
L 293.460026 58.746332 
L 290.763043 55.961101 
L 288.06606 56.461137 
L 285.369077 60.345968 
L 282.672093 61.488566 
L 279.97511 60.460228 
L 277.278127 58.055374 
L 274.581143 57.412812 
L 271.88416 59.355227 
L 269.187177 61.17351 
L 266.490194 57.832254 
L 263.79321 58.441149 
L 261.096227 58.240354 
L 258.399244 54.274929 
L 255.70226 58.479857 
L 253.005277 56.795295 
L 250.308294 56.738636 
L 247.611311 55.542084 
L 244.914327 54.100715 
L 242.217344 53.950727 
L 239.520361 55.198021 
L 236.823377 54.400997 
L 234.126394 54.322625 
L 231.429411 55.011545 
L 228.732428 57.599796 
L 226.035444 55.52178 
L 223.338461 56.880746 
L 220.641478 65.689213 
L 217.944494 65.35144 
L 215.247511 83.985144 
L 212.550528 83.379511 
L 209.853545 80.671095 
L 207.156561 68.927052 
L 204.459578 73.224048 
L 201.762595 64.670759 
L 199.065611 57.515833 
L 196.368628 51.823466 
L 193.671645 64.165265 
L 190.974662 59.756753 
L 188.277678 61.539501 
L 185.580695 58.947987 
L 182.883712 60.705823 
L 180.186728 63.24284 
L 177.489745 58.964229 
L 174.792762 56.029936 
L 172.095779 55.778424 
L 169.398795 61.332854 
L 166.701812 55.708539 
L 164.004829 58.631038 
L 161.307845 58.967449 
L 158.610862 59.1945 
L 155.913879 53.707686 
L 153.216896 59.460108 
L 150.519912 61.030685 
L 147.822929 69.379665 
L 145.125946 68.858282 
L 142.428962 69.718948 
L 139.731979 74.550081 
L 137.034996 72.810746 
L 134.338013 65.940657 
L 131.641029 76.027202 
L 128.944046 68.937782 
L 126.247063 58.643638 
L 123.550079 64.816027 
L 120.853096 64.394089 
L 118.156113 57.828247 
L 115.45913 60.280304 
L 112.762146 61.390346 
L 110.065163 58.648237 
L 107.36818 55.639444 
L 104.671196 56.856001 
L 101.974213 59.780778 
L 99.27723 59.702496 
L 96.580247 59.330792 
L 93.883263 60.036654 
L 91.18628 61.277739 
L 88.489297 64.990768 
L 85.792313 77.786884 
L 83.09533 94.529063 
L 80.398347 98.223104 
L 77.701364 104.554803 
z
" clip-path="url(#p6baebf31e1)" style="fill: #1f77b4; fill-opacity: 0.2"/>
   </g>
   <g id="matplotlib.axis_1">
    <g id="xtick_1">
     <g id="line2d_1">
      <path d="M 76.339387 390.04 
L 76.339387 10.8 
" clip-path="url(#p6baebf31e1)" style="fill: none; stroke: #b0b0b0; stroke-width: 0.8; stroke-linecap: square"/>
     </g>
     <g id="line2d_2">
      <defs>
       <path id="mfc9d18ed40" d="M 0 0 
L 0 3.5 
" style="stroke: #000000; stroke-width: 0.8"/>
      </defs>
      <g>
       <use xlink:href="#mfc9d18ed40" x="76.339387" y="390.04" style="stroke: #000000; stroke-width: 0.8"/>
      </g>
     </g>
     <g id="text_1">
      <!-- 0 -->
      <g transform="translate(73.158137 404.638438) scale(0.1 -0.1)">
       <defs>
        <path id="DejaVuSans-30" d="M 2034 4250 
Q 1547 4250 1301 3770 
Q 1056 3291 1056 2328 
Q 1056 1369 1301 889 
Q 1547 409 2034 409 
Q 2525 409 2770 889 
Q 3016 1369 3016 2328 
Q 3016 3291 2770 3770 
Q 2525 4250 2034 4250 
z
M 2034 4750 
Q 2819 4750 3233 4129 
Q 3647 3509 3647 2328 
Q 3647 1150 3233 529 
Q 2819 -91 2034 -91 
Q 1250 -91 836 529 
Q 422 1150 422 2328 
Q 422 3509 836 4129 
Q 1250 4750 2034 4750 
z
" transform="scale(0.015625)"/>
       </defs>
       <use xlink:href="#DejaVuSans-30"/>
      </g>
     </g>
    </g>
    <g id="xtick_2">
     <g id="line2d_3">
      <path d="M 211.188551 390.04 
L 211.188551 10.8 
" clip-path="url(#p6baebf31e1)" style="fill: none; stroke: #b0b0b0; stroke-width: 0.8; stroke-linecap: square"/>
     </g>
     <g id="line2d_4">
      <g>
       <use xlink:href="#mfc9d18ed40" x="211.188551" y="390.04" style="stroke: #000000; stroke-width: 0.8"/>
      </g>
     </g>
     <g id="text_2">
      <!-- 10000 -->
      <g transform="translate(195.282301 404.638438) scale(0.1 -0.1)">
       <defs>
        <path id="DejaVuSans-31" d="M 794 531 
L 1825 531 
L 1825 4091 
L 703 3866 
L 703 4441 
L 1819 4666 
L 2450 4666 
L 2450 531 
L 3481 531 
L 3481 0 
L 794 0 
L 794 531 
z
" transform="scale(0.015625)"/>
       </defs>
       <use xlink:href="#DejaVuSans-31"/>
       <use xlink:href="#DejaVuSans-30" transform="translate(63.623047 0)"/>
       <use xlink:href="#DejaVuSans-30" transform="translate(127.246094 0)"/>
       <use xlink:href="#DejaVuSans-30" transform="translate(190.869141 0)"/>
       <use xlink:href="#DejaVuSans-30" transform="translate(254.492188 0)"/>
      </g>
     </g>
    </g>
    <g id="xtick_3">
     <g id="line2d_5">
      <path d="M 346.037716 390.04 
L 346.037716 10.8 
" clip-path="url(#p6baebf31e1)" style="fill: none; stroke: #b0b0b0; stroke-width: 0.8; stroke-linecap: square"/>
     </g>
     <g id="line2d_6">
      <g>
       <use xlink:href="#mfc9d18ed40" x="346.037716" y="390.04" style="stroke: #000000; stroke-width: 0.8"/>
      </g>
     </g>
     <g id="text_3">
      <!-- 20000 -->
      <g transform="translate(330.131466 404.638438) scale(0.1 -0.1)">
       <defs>
        <path id="DejaVuSans-32" d="M 1228 531 
L 3431 531 
L 3431 0 
L 469 0 
L 469 531 
Q 828 903 1448 1529 
Q 2069 2156 2228 2338 
Q 2531 2678 2651 2914 
Q 2772 3150 2772 3378 
Q 2772 3750 2511 3984 
Q 2250 4219 1831 4219 
Q 1534 4219 1204 4116 
Q 875 4013 500 3803 
L 500 4441 
Q 881 4594 1212 4672 
Q 1544 4750 1819 4750 
Q 2544 4750 2975 4387 
Q 3406 4025 3406 3419 
Q 3406 3131 3298 2873 
Q 3191 2616 2906 2266 
Q 2828 2175 2409 1742 
Q 1991 1309 1228 531 
z
" transform="scale(0.015625)"/>
       </defs>
       <use xlink:href="#DejaVuSans-32"/>
       <use xlink:href="#DejaVuSans-30" transform="translate(63.623047 0)"/>
       <use xlink:href="#DejaVuSans-30" transform="translate(127.246094 0)"/>
       <use xlink:href="#DejaVuSans-30" transform="translate(190.869141 0)"/>
       <use xlink:href="#DejaVuSans-30" transform="translate(254.492188 0)"/>
      </g>
     </g>
    </g>
    <g id="xtick_4">
     <g id="line2d_7">
      <path d="M 480.88688 390.04 
L 480.88688 10.8 
" clip-path="url(#p6baebf31e1)" style="fill: none; stroke: #b0b0b0; stroke-width: 0.8; stroke-linecap: square"/>
     </g>
     <g id="line2d_8">
      <g>
       <use xlink:href="#mfc9d18ed40" x="480.88688" y="390.04" style="stroke: #000000; stroke-width: 0.8"/>
      </g>
     </g>
     <g id="text_4">
      <!-- 30000 -->
      <g transform="translate(464.98063 404.638438) scale(0.1 -0.1)">
       <defs>
        <path id="DejaVuSans-33" d="M 2597 2516 
Q 3050 2419 3304 2112 
Q 3559 1806 3559 1356 
Q 3559 666 3084 287 
Q 2609 -91 1734 -91 
Q 1441 -91 1130 -33 
Q 819 25 488 141 
L 488 750 
Q 750 597 1062 519 
Q 1375 441 1716 441 
Q 2309 441 2620 675 
Q 2931 909 2931 1356 
Q 2931 1769 2642 2001 
Q 2353 2234 1838 2234 
L 1294 2234 
L 1294 2753 
L 1863 2753 
Q 2328 2753 2575 2939 
Q 2822 3125 2822 3475 
Q 2822 3834 2567 4026 
Q 2313 4219 1838 4219 
Q 1578 4219 1281 4162 
Q 984 4106 628 3988 
L 628 4550 
Q 988 4650 1302 4700 
Q 1616 4750 1894 4750 
Q 2613 4750 3031 4423 
Q 3450 4097 3450 3541 
Q 3450 3153 3228 2886 
Q 3006 2619 2597 2516 
z
" transform="scale(0.015625)"/>
       </defs>
       <use xlink:href="#DejaVuSans-33"/>
       <use xlink:href="#DejaVuSans-30" transform="translate(63.623047 0)"/>
       <use xlink:href="#DejaVuSans-30" transform="translate(127.246094 0)"/>
       <use xlink:href="#DejaVuSans-30" transform="translate(190.869141 0)"/>
       <use xlink:href="#DejaVuSans-30" transform="translate(254.492188 0)"/>
      </g>
     </g>
    </g>
    <g id="xtick_5">
     <g id="line2d_9">
      <path d="M 615.736044 390.04 
L 615.736044 10.8 
" clip-path="url(#p6baebf31e1)" style="fill: none; stroke: #b0b0b0; stroke-width: 0.8; stroke-linecap: square"/>
     </g>
     <g id="line2d_10">
      <g>
       <use xlink:href="#mfc9d18ed40" x="615.736044" y="390.04" style="stroke: #000000; stroke-width: 0.8"/>
      </g>
     </g>
     <g id="text_5">
      <!-- 40000 -->
      <g transform="translate(599.829794 404.638438) scale(0.1 -0.1)">
       <defs>
        <path id="DejaVuSans-34" d="M 2419 4116 
L 825 1625 
L 2419 1625 
L 2419 4116 
z
M 2253 4666 
L 3047 4666 
L 3047 1625 
L 3713 1625 
L 3713 1100 
L 3047 1100 
L 3047 0 
L 2419 0 
L 2419 1100 
L 313 1100 
L 313 1709 
L 2253 4666 
z
" transform="scale(0.015625)"/>
       </defs>
       <use xlink:href="#DejaVuSans-34"/>
       <use xlink:href="#DejaVuSans-30" transform="translate(63.623047 0)"/>
       <use xlink:href="#DejaVuSans-30" transform="translate(127.246094 0)"/>
       <use xlink:href="#DejaVuSans-30" transform="translate(190.869141 0)"/>
       <use xlink:href="#DejaVuSans-30" transform="translate(254.492188 0)"/>
      </g>
     </g>
    </g>
    <g id="text_6">
     <!-- Episodes -->
     <g transform="translate(356.172812 418.316562) scale(0.1 -0.1)">
      <defs>
       <path id="DejaVuSans-45" d="M 628 4666 
L 3578 4666 
L 3578 4134 
L 1259 4134 
L 1259 2753 
L 3481 2753 
L 3481 2222 
L 1259 2222 
L 1259 531 
L 3634 531 
L 3634 0 
L 628 0 
L 628 4666 
z
" transform="scale(0.015625)"/>
       <path id="DejaVuSans-70" d="M 1159 525 
L 1159 -1331 
L 581 -1331 
L 581 3500 
L 1159 3500 
L 1159 2969 
Q 1341 3281 1617 3432 
Q 1894 3584 2278 3584 
Q 2916 3584 3314 3078 
Q 3713 2572 3713 1747 
Q 3713 922 3314 415 
Q 2916 -91 2278 -91 
Q 1894 -91 1617 61 
Q 1341 213 1159 525 
z
M 3116 1747 
Q 3116 2381 2855 2742 
Q 2594 3103 2138 3103 
Q 1681 3103 1420 2742 
Q 1159 2381 1159 1747 
Q 1159 1113 1420 752 
Q 1681 391 2138 391 
Q 2594 391 2855 752 
Q 3116 1113 3116 1747 
z
" transform="scale(0.015625)"/>
       <path id="DejaVuSans-69" d="M 603 3500 
L 1178 3500 
L 1178 0 
L 603 0 
L 603 3500 
z
M 603 4863 
L 1178 4863 
L 1178 4134 
L 603 4134 
L 603 4863 
z
" transform="scale(0.015625)"/>
       <path id="DejaVuSans-73" d="M 2834 3397 
L 2834 2853 
Q 2591 2978 2328 3040 
Q 2066 3103 1784 3103 
Q 1356 3103 1142 2972 
Q 928 2841 928 2578 
Q 928 2378 1081 2264 
Q 1234 2150 1697 2047 
L 1894 2003 
Q 2506 1872 2764 1633 
Q 3022 1394 3022 966 
Q 3022 478 2636 193 
Q 2250 -91 1575 -91 
Q 1294 -91 989 -36 
Q 684 19 347 128 
L 347 722 
Q 666 556 975 473 
Q 1284 391 1588 391 
Q 1994 391 2212 530 
Q 2431 669 2431 922 
Q 2431 1156 2273 1281 
Q 2116 1406 1581 1522 
L 1381 1569 
Q 847 1681 609 1914 
Q 372 2147 372 2553 
Q 372 3047 722 3315 
Q 1072 3584 1716 3584 
Q 2034 3584 2315 3537 
Q 2597 3491 2834 3397 
z
" transform="scale(0.015625)"/>
       <path id="DejaVuSans-6f" d="M 1959 3097 
Q 1497 3097 1228 2736 
Q 959 2375 959 1747 
Q 959 1119 1226 758 
Q 1494 397 1959 397 
Q 2419 397 2687 759 
Q 2956 1122 2956 1747 
Q 2956 2369 2687 2733 
Q 2419 3097 1959 3097 
z
M 1959 3584 
Q 2709 3584 3137 3096 
Q 3566 2609 3566 1747 
Q 3566 888 3137 398 
Q 2709 -91 1959 -91 
Q 1206 -91 779 398 
Q 353 888 353 1747 
Q 353 2609 779 3096 
Q 1206 3584 1959 3584 
z
" transform="scale(0.015625)"/>
       <path id="DejaVuSans-64" d="M 2906 2969 
L 2906 4863 
L 3481 4863 
L 3481 0 
L 2906 0 
L 2906 525 
Q 2725 213 2448 61 
Q 2172 -91 1784 -91 
Q 1150 -91 751 415 
Q 353 922 353 1747 
Q 353 2572 751 3078 
Q 1150 3584 1784 3584 
Q 2172 3584 2448 3432 
Q 2725 3281 2906 2969 
z
M 947 1747 
Q 947 1113 1208 752 
Q 1469 391 1925 391 
Q 2381 391 2643 752 
Q 2906 1113 2906 1747 
Q 2906 2381 2643 2742 
Q 2381 3103 1925 3103 
Q 1469 3103 1208 2742 
Q 947 2381 947 1747 
z
" transform="scale(0.015625)"/>
       <path id="DejaVuSans-65" d="M 3597 1894 
L 3597 1613 
L 953 1613 
Q 991 1019 1311 708 
Q 1631 397 2203 397 
Q 2534 397 2845 478 
Q 3156 559 3463 722 
L 3463 178 
Q 3153 47 2828 -22 
Q 2503 -91 2169 -91 
Q 1331 -91 842 396 
Q 353 884 353 1716 
Q 353 2575 817 3079 
Q 1281 3584 2069 3584 
Q 2775 3584 3186 3129 
Q 3597 2675 3597 1894 
z
M 3022 2063 
Q 3016 2534 2758 2815 
Q 2500 3097 2075 3097 
Q 1594 3097 1305 2825 
Q 1016 2553 972 2059 
L 3022 2063 
z
" transform="scale(0.015625)"/>
      </defs>
      <use xlink:href="#DejaVuSans-45"/>
      <use xlink:href="#DejaVuSans-70" transform="translate(63.183594 0)"/>
      <use xlink:href="#DejaVuSans-69" transform="translate(126.660156 0)"/>
      <use xlink:href="#DejaVuSans-73" transform="translate(154.443359 0)"/>
      <use xlink:href="#DejaVuSans-6f" transform="translate(206.542969 0)"/>
      <use xlink:href="#DejaVuSans-64" transform="translate(267.724609 0)"/>
      <use xlink:href="#DejaVuSans-65" transform="translate(331.201172 0)"/>
      <use xlink:href="#DejaVuSans-73" transform="translate(392.724609 0)"/>
     </g>
    </g>
   </g>
   <g id="matplotlib.axis_2">
    <g id="ytick_1">
     <g id="line2d_11">
      <path d="M 47.63 311.922204 
L 709.2 311.922204 
" clip-path="url(#p6baebf31e1)" style="fill: none; stroke: #b0b0b0; stroke-width: 0.8; stroke-linecap: square"/>
     </g>
     <g id="line2d_12">
      <defs>
       <path id="m13dfd95fc2" d="M 0 0 
L -3.5 0 
" style="stroke: #000000; stroke-width: 0.8"/>
      </defs>
      <g>
       <use xlink:href="#m13dfd95fc2" x="47.63" y="311.922204" style="stroke: #000000; stroke-width: 0.8"/>
      </g>
     </g>
     <g id="text_7">
      <!-- 2.5 -->
      <g transform="translate(24.726875 315.721423) scale(0.1 -0.1)">
       <defs>
        <path id="DejaVuSans-2e" d="M 684 794 
L 1344 794 
L 1344 0 
L 684 0 
L 684 794 
z
" transform="scale(0.015625)"/>
        <path id="DejaVuSans-35" d="M 691 4666 
L 3169 4666 
L 3169 4134 
L 1269 4134 
L 1269 2991 
Q 1406 3038 1543 3061 
Q 1681 3084 1819 3084 
Q 2600 3084 3056 2656 
Q 3513 2228 3513 1497 
Q 3513 744 3044 326 
Q 2575 -91 1722 -91 
Q 1428 -91 1123 -41 
Q 819 9 494 109 
L 494 744 
Q 775 591 1075 516 
Q 1375 441 1709 441 
Q 2250 441 2565 725 
Q 2881 1009 2881 1497 
Q 2881 1984 2565 2268 
Q 2250 2553 1709 2553 
Q 1456 2553 1204 2497 
Q 953 2441 691 2322 
L 691 4666 
z
" transform="scale(0.015625)"/>
       </defs>
       <use xlink:href="#DejaVuSans-32"/>
       <use xlink:href="#DejaVuSans-2e" transform="translate(63.623047 0)"/>
       <use xlink:href="#DejaVuSans-35" transform="translate(95.410156 0)"/>
      </g>
     </g>
    </g>
    <g id="ytick_2">
     <g id="line2d_13">
      <path d="M 47.63 229.16797 
L 709.2 229.16797 
" clip-path="url(#p6baebf31e1)" style="fill: none; stroke: #b0b0b0; stroke-width: 0.8; stroke-linecap: square"/>
     </g>
     <g id="line2d_14">
      <g>
       <use xlink:href="#m13dfd95fc2" x="47.63" y="229.16797" style="stroke: #000000; stroke-width: 0.8"/>
      </g>
     </g>
     <g id="text_8">
      <!-- 3.0 -->
      <g transform="translate(24.726875 232.967189) scale(0.1 -0.1)">
       <use xlink:href="#DejaVuSans-33"/>
       <use xlink:href="#DejaVuSans-2e" transform="translate(63.623047 0)"/>
       <use xlink:href="#DejaVuSans-30" transform="translate(95.410156 0)"/>
      </g>
     </g>
    </g>
    <g id="ytick_3">
     <g id="line2d_15">
      <path d="M 47.63 146.413735 
L 709.2 146.413735 
" clip-path="url(#p6baebf31e1)" style="fill: none; stroke: #b0b0b0; stroke-width: 0.8; stroke-linecap: square"/>
     </g>
     <g id="line2d_16">
      <g>
       <use xlink:href="#m13dfd95fc2" x="47.63" y="146.413735" style="stroke: #000000; stroke-width: 0.8"/>
      </g>
     </g>
     <g id="text_9">
      <!-- 3.5 -->
      <g transform="translate(24.726875 150.212954) scale(0.1 -0.1)">
       <use xlink:href="#DejaVuSans-33"/>
       <use xlink:href="#DejaVuSans-2e" transform="translate(63.623047 0)"/>
       <use xlink:href="#DejaVuSans-35" transform="translate(95.410156 0)"/>
      </g>
     </g>
    </g>
    <g id="ytick_4">
     <g id="line2d_17">
      <path d="M 47.63 63.659501 
L 709.2 63.659501 
" clip-path="url(#p6baebf31e1)" style="fill: none; stroke: #b0b0b0; stroke-width: 0.8; stroke-linecap: square"/>
     </g>
     <g id="line2d_18">
      <g>
       <use xlink:href="#m13dfd95fc2" x="47.63" y="63.659501" style="stroke: #000000; stroke-width: 0.8"/>
      </g>
     </g>
     <g id="text_10">
      <!-- 4.0 -->
      <g transform="translate(24.726875 67.45872) scale(0.1 -0.1)">
       <use xlink:href="#DejaVuSans-34"/>
       <use xlink:href="#DejaVuSans-2e" transform="translate(63.623047 0)"/>
       <use xlink:href="#DejaVuSans-30" transform="translate(95.410156 0)"/>
      </g>
     </g>
    </g>
    <g id="text_11">
     <!-- Circuit Depth -->
     <g transform="translate(18.647187 233.329375) rotate(-90) scale(0.1 -0.1)">
      <defs>
       <path id="DejaVuSans-43" d="M 4122 4306 
L 4122 3641 
Q 3803 3938 3442 4084 
Q 3081 4231 2675 4231 
Q 1875 4231 1450 3742 
Q 1025 3253 1025 2328 
Q 1025 1406 1450 917 
Q 1875 428 2675 428 
Q 3081 428 3442 575 
Q 3803 722 4122 1019 
L 4122 359 
Q 3791 134 3420 21 
Q 3050 -91 2638 -91 
Q 1578 -91 968 557 
Q 359 1206 359 2328 
Q 359 3453 968 4101 
Q 1578 4750 2638 4750 
Q 3056 4750 3426 4639 
Q 3797 4528 4122 4306 
z
" transform="scale(0.015625)"/>
       <path id="DejaVuSans-72" d="M 2631 2963 
Q 2534 3019 2420 3045 
Q 2306 3072 2169 3072 
Q 1681 3072 1420 2755 
Q 1159 2438 1159 1844 
L 1159 0 
L 581 0 
L 581 3500 
L 1159 3500 
L 1159 2956 
Q 1341 3275 1631 3429 
Q 1922 3584 2338 3584 
Q 2397 3584 2469 3576 
Q 2541 3569 2628 3553 
L 2631 2963 
z
" transform="scale(0.015625)"/>
       <path id="DejaVuSans-63" d="M 3122 3366 
L 3122 2828 
Q 2878 2963 2633 3030 
Q 2388 3097 2138 3097 
Q 1578 3097 1268 2742 
Q 959 2388 959 1747 
Q 959 1106 1268 751 
Q 1578 397 2138 397 
Q 2388 397 2633 464 
Q 2878 531 3122 666 
L 3122 134 
Q 2881 22 2623 -34 
Q 2366 -91 2075 -91 
Q 1284 -91 818 406 
Q 353 903 353 1747 
Q 353 2603 823 3093 
Q 1294 3584 2113 3584 
Q 2378 3584 2631 3529 
Q 2884 3475 3122 3366 
z
" transform="scale(0.015625)"/>
       <path id="DejaVuSans-75" d="M 544 1381 
L 544 3500 
L 1119 3500 
L 1119 1403 
Q 1119 906 1312 657 
Q 1506 409 1894 409 
Q 2359 409 2629 706 
Q 2900 1003 2900 1516 
L 2900 3500 
L 3475 3500 
L 3475 0 
L 2900 0 
L 2900 538 
Q 2691 219 2414 64 
Q 2138 -91 1772 -91 
Q 1169 -91 856 284 
Q 544 659 544 1381 
z
M 1991 3584 
L 1991 3584 
z
" transform="scale(0.015625)"/>
       <path id="DejaVuSans-74" d="M 1172 4494 
L 1172 3500 
L 2356 3500 
L 2356 3053 
L 1172 3053 
L 1172 1153 
Q 1172 725 1289 603 
Q 1406 481 1766 481 
L 2356 481 
L 2356 0 
L 1766 0 
Q 1100 0 847 248 
Q 594 497 594 1153 
L 594 3053 
L 172 3053 
L 172 3500 
L 594 3500 
L 594 4494 
L 1172 4494 
z
" transform="scale(0.015625)"/>
       <path id="DejaVuSans-20" transform="scale(0.015625)"/>
       <path id="DejaVuSans-44" d="M 1259 4147 
L 1259 519 
L 2022 519 
Q 2988 519 3436 956 
Q 3884 1394 3884 2338 
Q 3884 3275 3436 3711 
Q 2988 4147 2022 4147 
L 1259 4147 
z
M 628 4666 
L 1925 4666 
Q 3281 4666 3915 4102 
Q 4550 3538 4550 2338 
Q 4550 1131 3912 565 
Q 3275 0 1925 0 
L 628 0 
L 628 4666 
z
" transform="scale(0.015625)"/>
       <path id="DejaVuSans-68" d="M 3513 2113 
L 3513 0 
L 2938 0 
L 2938 2094 
Q 2938 2591 2744 2837 
Q 2550 3084 2163 3084 
Q 1697 3084 1428 2787 
Q 1159 2491 1159 1978 
L 1159 0 
L 581 0 
L 581 4863 
L 1159 4863 
L 1159 2956 
Q 1366 3272 1645 3428 
Q 1925 3584 2291 3584 
Q 2894 3584 3203 3211 
Q 3513 2838 3513 2113 
z
" transform="scale(0.015625)"/>
      </defs>
      <use xlink:href="#DejaVuSans-43"/>
      <use xlink:href="#DejaVuSans-69" transform="translate(69.824219 0)"/>
      <use xlink:href="#DejaVuSans-72" transform="translate(97.607422 0)"/>
      <use xlink:href="#DejaVuSans-63" transform="translate(136.470703 0)"/>
      <use xlink:href="#DejaVuSans-75" transform="translate(191.451172 0)"/>
      <use xlink:href="#DejaVuSans-69" transform="translate(254.830078 0)"/>
      <use xlink:href="#DejaVuSans-74" transform="translate(282.613281 0)"/>
      <use xlink:href="#DejaVuSans-20" transform="translate(321.822266 0)"/>
      <use xlink:href="#DejaVuSans-44" transform="translate(353.609375 0)"/>
      <use xlink:href="#DejaVuSans-65" transform="translate(430.611328 0)"/>
      <use xlink:href="#DejaVuSans-70" transform="translate(492.134766 0)"/>
      <use xlink:href="#DejaVuSans-74" transform="translate(555.611328 0)"/>
      <use xlink:href="#DejaVuSans-68" transform="translate(594.820312 0)"/>
     </g>
    </g>
   </g>
   <g id="line2d_19">
    <path d="M 77.701364 236.891698 
L 80.398347 235.512461 
L 83.09533 217.306529 
L 85.792313 210.686191 
L 88.489297 194.687039 
L 91.18628 183.101446 
L 93.883263 164.895514 
L 96.580247 148.06882 
L 99.27723 153.309922 
L 101.974213 155.516701 
L 104.671196 153.034074 
L 107.36818 160.206108 
L 110.065163 172.067548 
L 112.762146 170.964158 
L 115.45913 161.585345 
L 118.156113 163.516277 
L 123.550079 184.756531 
L 126.247063 176.756955 
L 128.944046 194.687039 
L 131.641029 197.445513 
L 134.338013 191.652717 
L 137.034996 194.962886 
L 139.731979 190.825174 
L 142.428962 186.135768 
L 145.125946 185.032378 
L 147.822929 183.653141 
L 150.519912 162.964582 
L 153.216896 157.999328 
L 155.913879 143.379413 
L 158.610862 148.896362 
L 161.307845 145.86204 
L 164.004829 139.793397 
L 166.701812 144.482803 
L 169.398795 143.103566 
L 172.095779 140.345092 
L 174.792762 139.241702 
L 177.489745 137.862465 
L 180.186728 145.034498 
L 182.883712 141.724329 
L 185.580695 146.413735 
L 188.277678 145.86204 
L 190.974662 146.137888 
L 193.671645 161.861192 
L 196.368628 155.516701 
L 199.065611 155.792549 
L 201.762595 177.860344 
L 204.459578 196.066276 
L 207.156561 193.307802 
L 209.853545 193.031954 
L 212.550528 197.169666 
L 215.247511 189.997632 
L 217.944494 159.102718 
L 220.641478 148.344668 
L 223.338461 146.137888 
L 226.035444 137.034922 
L 228.732428 119.656533 
L 231.429411 127.104414 
L 234.126394 122.13916 
L 236.823377 115.518821 
L 239.520361 119.380685 
L 242.217344 110.829415 
L 244.914327 114.139584 
L 247.611311 99.519669 
L 250.308294 93.175178 
L 253.005277 92.623483 
L 255.70226 90.692551 
L 258.399244 90.416703 
L 261.096227 80.762043 
L 263.79321 77.451873 
L 266.490194 77.727721 
L 269.187177 72.486619 
L 271.88416 75.245094 
L 274.581143 79.9345 
L 277.278127 79.658653 
L 279.97511 71.38323 
L 282.672093 68.900603 
L 285.369077 71.659077 
L 288.06606 81.03789 
L 290.763043 83.520517 
L 293.460026 75.520941 
L 296.15701 72.210772 
L 298.853993 69.728145 
L 301.550976 70.555687 
L 304.24796 67.797213 
L 306.944943 67.245518 
L 309.641926 67.521365 
L 312.338909 71.107382 
L 315.035893 67.797213 
L 317.732876 66.96967 
L 320.429859 68.07306 
L 323.126843 68.07306 
L 328.520809 66.417975 
L 331.217792 65.314586 
L 333.914776 67.521365 
L 336.611759 66.142128 
L 339.308742 66.142128 
L 342.005726 65.590433 
L 344.702709 68.624755 
L 347.399692 68.07306 
L 350.096675 66.693823 
L 352.793659 67.797213 
L 358.187625 67.245518 
L 360.884609 66.142128 
L 363.581592 66.417975 
L 366.278575 66.417975 
L 368.975558 83.24467 
L 371.672542 98.416279 
L 374.369525 90.968398 
L 377.066508 90.692551 
L 379.763492 93.451025 
L 382.460475 94.830263 
L 385.157458 89.313314 
L 387.854442 78.831111 
L 390.551425 66.96967 
L 393.248408 65.314586 
L 395.945391 67.245518 
L 398.642375 66.417975 
L 401.339358 64.487043 
L 404.036341 64.762891 
L 406.733325 66.96967 
L 409.430308 65.314586 
L 412.127291 66.142128 
L 414.824274 68.07306 
L 417.521258 66.142128 
L 420.218241 65.866281 
L 422.915224 68.624755 
L 425.612208 65.590433 
L 428.309191 65.314586 
L 431.006174 66.96967 
L 433.703157 64.487043 
L 436.400141 66.417975 
L 439.097124 65.866281 
L 441.794107 67.797213 
L 444.491091 65.866281 
L 447.188074 66.693823 
L 449.885057 65.038738 
L 452.58204 64.762891 
L 455.279024 66.417975 
L 457.976007 64.762891 
L 460.67299 65.314586 
L 463.369974 67.521365 
L 466.066957 65.314586 
L 468.76394 66.417975 
L 471.460923 67.245518 
L 474.157907 66.96967 
L 476.85489 66.142128 
L 479.551873 67.245518 
L 482.248857 69.17645 
L 484.94584 67.245518 
L 487.642823 68.624755 
L 490.339806 68.624755 
L 493.03679 65.314586 
L 495.733773 64.211196 
L 498.430756 64.762891 
L 501.12774 67.521365 
L 503.824723 65.590433 
L 506.521706 68.624755 
L 509.218689 64.762891 
L 511.915673 65.590433 
L 517.309639 65.590433 
L 520.006623 67.797213 
L 522.703606 65.866281 
L 525.400589 64.487043 
L 528.097572 64.762891 
L 530.794556 64.762891 
L 533.491539 65.038738 
L 536.188522 66.142128 
L 538.885506 65.038738 
L 541.582489 65.866281 
L 544.279472 65.038738 
L 546.976455 63.935348 
L 549.673439 63.935348 
L 552.370422 65.590433 
L 555.067405 65.038738 
L 557.764389 69.17645 
L 560.461372 68.900603 
L 563.158355 67.797213 
L 565.855338 65.866281 
L 568.552322 67.797213 
L 571.249305 68.07306 
L 573.946288 69.728145 
L 576.643272 66.693823 
L 579.340255 65.866281 
L 582.037238 66.417975 
L 584.734221 71.107382 
L 587.431205 66.693823 
L 590.128188 64.211196 
L 592.825171 66.142128 
L 595.522155 65.866281 
L 598.219138 67.797213 
L 600.916121 65.314586 
L 603.613104 64.211196 
L 606.310088 65.590433 
L 609.007071 65.314586 
L 611.704054 66.142128 
L 614.401038 65.590433 
L 617.098021 67.245518 
L 619.795004 64.211196 
L 622.491987 66.142128 
L 625.188971 66.142128 
L 627.885954 67.521365 
L 630.582937 73.865857 
L 633.279921 89.037466 
L 635.976904 81.313738 
L 638.673887 74.693399 
L 641.37087 66.417975 
L 644.067854 70.555687 
L 646.764837 66.417975 
L 649.46182 66.142128 
L 652.158804 70.003992 
L 654.855787 70.003992 
L 657.55277 65.314586 
L 660.249753 68.07306 
L 665.64372 65.314586 
L 668.340703 77.727721 
L 671.037687 152.482379 
L 673.73467 102.002296 
L 676.431653 81.589585 
L 679.128636 73.314162 
L 679.128636 73.314162 
" clip-path="url(#p6baebf31e1)" style="fill: none; stroke: #1f77b4; stroke-width: 1.5; stroke-linecap: square"/>
   </g>
   <g id="patch_3">
    <path d="M 47.63 390.04 
L 47.63 10.8 
" style="fill: none; stroke: #000000; stroke-width: 0.8; stroke-linejoin: miter; stroke-linecap: square"/>
   </g>
   <g id="patch_4">
    <path d="M 709.2 390.04 
L 709.2 10.8 
" style="fill: none; stroke: #000000; stroke-width: 0.8; stroke-linejoin: miter; stroke-linecap: square"/>
   </g>
   <g id="patch_5">
    <path d="M 47.63 390.04 
L 709.2 390.04 
" style="fill: none; stroke: #000000; stroke-width: 0.8; stroke-linejoin: miter; stroke-linecap: square"/>
   </g>
   <g id="patch_6">
    <path d="M 47.63 10.8 
L 709.2 10.8 
" style="fill: none; stroke: #000000; stroke-width: 0.8; stroke-linejoin: miter; stroke-linecap: square"/>
   </g>
  </g>
 </g>
 <defs>
  <clipPath id="p6baebf31e1">
   <rect x="47.63" y="10.8" width="661.57" height="379.24"/>
  </clipPath>
 </defs>
</svg>
