<?xml version="1.0" encoding="utf-8" standalone="no"?>
<!DOCTYPE svg PUBLIC "-//W3C//DTD SVG 1.1//EN"
  "http://www.w3.org/Graphics/SVG/1.1/DTD/svg11.dtd">
<svg xmlns:xlink="http://www.w3.org/1999/xlink" width="720pt" height="432pt" viewBox="0 0 720 432" xmlns="http://www.w3.org/2000/svg" version="1.1">
 <metadata>
  <rdf:RDF xmlns:dc="http://purl.org/dc/elements/1.1/" xmlns:cc="http://creativecommons.org/ns#" xmlns:rdf="http://www.w3.org/1999/02/22-rdf-syntax-ns#">
   <cc:Work>
    <dc:type rdf:resource="http://purl.org/dc/dcmitype/StillImage"/>
    <dc:date>2025-04-22T23:07:28.883457</dc:date>
    <dc:format>image/svg+xml</dc:format>
    <dc:creator>
     <cc:Agent>
      <dc:title>Matplotlib v3.10.0, https://matplotlib.org/</dc:title>
     </cc:Agent>
    </dc:creator>
   </cc:Work>
  </rdf:RDF>
 </metadata>
 <defs>
  <style type="text/css">*{stroke-linejoin: round; stroke-linecap: butt}</style>
 </defs>
 <g id="figure_1">
  <g id="patch_1">
   <path d="M 0 432 
L 720 432 
L 720 0 
L 0 0 
z
" style="fill: #ffffff"/>
  </g>
  <g id="axes_1">
   <g id="patch_2">
    <path d="M 54.02 390.04 
L 709.2 390.04 
L 709.2 10.8 
L 54.02 10.8 
z
" style="fill: #ffffff"/>
   </g>
   <g id="FillBetweenPolyCollection_1">
    <path d="M 83.800909 200.50294 
L 83.800909 346.376464 
L 86.471843 343.812337 
L 89.142776 341.9148 
L 91.81371 334.096214 
L 94.484643 340.914044 
L 97.155577 345.438636 
L 99.82651 341.383368 
L 102.497444 343.143237 
L 105.168377 354.502435 
L 107.839311 353.727493 
L 110.510245 359.623336 
L 113.181178 362.244116 
L 115.852112 358.650386 
L 118.523045 359.12899 
L 121.193979 361.703202 
L 123.864912 364.452152 
L 126.535846 372.090261 
L 129.206779 370.437157 
L 131.877713 360.69887 
L 134.548647 369.536747 
L 137.21958 365.898172 
L 139.890514 371.398773 
L 142.561447 372.801818 
L 145.232381 368.767134 
L 147.903314 364.300208 
L 150.574248 365.97933 
L 153.245181 365.603993 
L 155.916115 351.137347 
L 158.587049 347.491093 
L 161.257982 353.615095 
L 163.928916 336.71706 
L 166.599849 340.89649 
L 169.270783 339.817897 
L 171.941716 319.690714 
L 174.61265 326.808507 
L 177.283583 329.303063 
L 179.954517 324.352872 
L 182.62545 333.53548 
L 185.296384 340.747717 
L 187.967318 330.736239 
L 190.638251 326.648589 
L 193.309185 327.314082 
L 195.980118 319.162115 
L 198.651052 313.412974 
L 201.321985 302.784212 
L 203.992919 309.129823 
L 206.663852 324.01025 
L 209.334786 333.804008 
L 212.00572 347.434283 
L 214.676653 347.536851 
L 217.347587 361.388638 
L 220.01852 363.070454 
L 222.689454 350.381345 
L 225.360387 354.355262 
L 228.031321 354.170851 
L 230.702254 352.710251 
L 233.373188 334.238529 
L 236.044121 346.408665 
L 238.715055 340.068221 
L 241.385989 328.709135 
L 244.056922 341.61902 
L 246.727856 333.614328 
L 249.398789 331.301831 
L 252.069723 318.433941 
L 254.740656 312.236135 
L 257.41159 304.618711 
L 260.082523 287.835021 
L 262.753457 273.721352 
L 265.424391 264.178183 
L 268.095324 255.233351 
L 270.766258 247.565834 
L 273.437191 239.243615 
L 276.108125 239.459642 
L 278.779058 229.976759 
L 281.449992 242.981907 
L 284.120925 232.626156 
L 286.791859 198.884131 
L 289.462792 200.05657 
L 292.133726 200.613915 
L 294.80466 200.147654 
L 297.475593 210.844478 
L 300.146527 200.649487 
L 302.81746 183.804295 
L 305.488394 177.468136 
L 308.159327 170.142309 
L 310.830261 174.047031 
L 313.501194 195.784375 
L 316.172128 177.47342 
L 318.843062 163.08775 
L 321.513995 165.543815 
L 324.184929 154.031787 
L 326.855862 194.390867 
L 329.526796 214.039833 
L 332.197729 189.37307 
L 334.868663 174.746929 
L 337.539596 215.435521 
L 340.21053 206.391811 
L 342.881464 234.81447 
L 345.552397 199.941484 
L 348.223331 181.523528 
L 350.894264 174.514734 
L 353.565198 168.496292 
L 356.236131 163.608501 
L 358.907065 164.888862 
L 361.577998 165.550974 
L 364.248932 183.066944 
L 366.919865 174.947979 
L 369.590799 179.037737 
L 372.261733 209.415181 
L 374.932666 254.37771 
L 377.6036 233.029027 
L 380.274533 242.143732 
L 382.945467 235.554745 
L 385.6164 253.176057 
L 388.287334 235.662228 
L 390.958267 196.307223 
L 393.629201 158.291631 
L 396.300135 165.59796 
L 398.971068 158.794483 
L 401.642002 198.357103 
L 404.312935 241.322265 
L 406.983869 203.863562 
L 409.654802 180.928662 
L 412.325736 208.111483 
L 414.996669 211.693646 
L 417.667603 204.107306 
L 420.338536 185.297535 
L 423.00947 168.915812 
L 425.680404 159.688387 
L 428.351337 152.432245 
L 431.022271 150.833653 
L 433.693204 161.238598 
L 436.364138 157.438898 
L 439.035071 144.927703 
L 441.706005 146.592499 
L 444.376938 158.182873 
L 447.047872 152.991543 
L 449.718806 169.236234 
L 452.389739 207.11005 
L 455.060673 241.321977 
L 457.731606 205.020875 
L 460.40254 170.153456 
L 463.073473 153.927062 
L 465.744407 164.797964 
L 468.41534 163.392087 
L 471.086274 160.639396 
L 473.757208 165.142145 
L 476.428141 154.543019 
L 479.099075 153.861284 
L 481.770008 157.217554 
L 484.440942 166.743755 
L 487.111875 160.074394 
L 489.782809 165.976105 
L 492.453742 171.104066 
L 495.124676 156.85648 
L 497.795609 144.84472 
L 500.466543 141.96317 
L 503.137477 148.030632 
L 505.80841 143.358751 
L 508.479344 152.594638 
L 511.150277 149.495476 
L 513.821211 156.662667 
L 516.492144 156.912171 
L 519.163078 186.831182 
L 521.834011 217.728669 
L 524.504945 238.985078 
L 527.175879 277.779663 
L 529.846812 219.066836 
L 532.517746 186.68192 
L 535.188679 171.574387 
L 537.859613 176.86216 
L 540.530546 182.012156 
L 543.20148 176.873436 
L 545.872413 173.490486 
L 548.543347 159.112821 
L 551.21428 160.245112 
L 553.885214 170.502672 
L 556.556148 163.696729 
L 559.227081 160.121343 
L 561.898015 169.138625 
L 564.568948 160.154627 
L 567.239882 164.109246 
L 569.910815 177.385718 
L 572.581749 170.693275 
L 575.252682 161.843873 
L 577.923616 159.722733 
L 580.59455 150.550105 
L 583.265483 181.794361 
L 585.936417 170.290228 
L 588.60735 145.832752 
L 591.278284 150.964481 
L 593.949217 150.268327 
L 596.620151 155.489054 
L 599.291084 153.897972 
L 601.962018 181.563789 
L 604.632951 241.237141 
L 607.303885 187.321959 
L 609.974819 161.974319 
L 612.645752 152.24608 
L 615.316686 150.004213 
L 617.987619 156.731513 
L 620.658553 149.290368 
L 623.329486 146.263464 
L 626.00042 149.415004 
L 628.671353 150.153388 
L 631.342287 159.073412 
L 634.013221 243.551234 
L 636.684154 220.537807 
L 639.355088 175.597513 
L 642.026021 162.811668 
L 644.696955 167.319586 
L 647.367888 147.263191 
L 650.038822 153.292157 
L 652.709755 152.165216 
L 655.380689 149.183584 
L 658.051623 144.591613 
L 660.722556 145.26396 
L 663.39349 157.348697 
L 666.064423 162.751164 
L 668.735357 162.694198 
L 671.40629 235.405805 
L 674.077224 187.958584 
L 676.748157 163.279874 
L 679.419091 156.225029 
L 679.419091 42.343473 
L 679.419091 42.343473 
L 676.748157 45.209499 
L 674.077224 50.980982 
L 671.40629 63.844789 
L 668.735357 42.209908 
L 666.064423 37.536299 
L 663.39349 43.331674 
L 660.722556 39.405503 
L 658.051623 39.488491 
L 655.380689 40.790106 
L 652.709755 40.853493 
L 650.038822 41.641967 
L 647.367888 39.81282 
L 644.696955 40.776879 
L 642.026021 39.292984 
L 639.355088 47.920503 
L 636.684154 60.639123 
L 634.013221 65.767568 
L 631.342287 42.245431 
L 628.671353 40.655227 
L 626.00042 39.821987 
L 623.329486 39.437376 
L 620.658553 40.879775 
L 617.987619 41.051178 
L 615.316686 41.197307 
L 612.645752 42.393366 
L 609.974819 44.304959 
L 607.303885 51.372041 
L 604.632951 64.987529 
L 601.962018 49.812341 
L 599.291084 42.656889 
L 596.620151 42.440977 
L 593.949217 41.866345 
L 591.278284 42.250682 
L 588.60735 40.948579 
L 585.936417 46.302825 
L 583.265483 50.023789 
L 580.59455 41.437227 
L 577.923616 44.34645 
L 575.252682 44.435405 
L 572.581749 46.538249 
L 569.910815 48.882638 
L 567.239882 44.920372 
L 564.568948 44.111009 
L 561.898015 45.293446 
L 559.227081 43.260255 
L 556.556148 44.939984 
L 553.885214 47.514664 
L 551.21428 44.855448 
L 548.543347 41.911342 
L 545.872413 47.42453 
L 543.20148 48.461768 
L 540.530546 50.591805 
L 537.859613 47.589007 
L 535.188679 46.835854 
L 532.517746 52.896119 
L 529.846812 59.261528 
L 527.175879 74.758769 
L 524.504945 66.699348 
L 521.834011 63.006244 
L 519.163078 68.070185 
L 516.492144 72.843236 
L 513.821211 73.387421 
L 511.150277 72.156252 
L 508.479344 72.740581 
L 505.80841 72.448505 
L 503.137477 72.884398 
L 500.466543 71.732217 
L 497.795609 72.534158 
L 495.124676 73.439172 
L 492.453742 79.082436 
L 489.782809 81.705621 
L 487.111875 85.691914 
L 484.440942 89.581893 
L 481.770008 88.401414 
L 479.099075 89.351135 
L 476.428141 88.964079 
L 473.757208 87.500012 
L 471.086274 81.296083 
L 468.41534 74.417885 
L 465.744407 72.471764 
L 463.073473 69.64008 
L 460.40254 68.294989 
L 457.731606 64.95825 
L 455.060673 59.59847 
L 452.389739 65.963208 
L 449.718806 68.868419 
L 447.047872 70.5756 
L 444.376938 70.099138 
L 441.706005 70.884605 
L 439.035071 71.272458 
L 436.364138 70.990452 
L 433.693204 69.646413 
L 431.022271 69.98315 
L 428.351337 69.514161 
L 425.680404 69.575888 
L 423.00947 67.568105 
L 420.338536 64.79074 
L 417.667603 63.710839 
L 414.996669 63.04946 
L 412.325736 63.095471 
L 409.654802 67.440647 
L 406.983869 62.088271 
L 404.312935 56.356694 
L 401.642002 62.928975 
L 398.971068 69.585752 
L 396.300135 69.805463 
L 393.629201 70.285057 
L 390.958267 77.011602 
L 388.287334 80.286863 
L 385.6164 83.20413 
L 382.945467 82.309762 
L 380.274533 80.386528 
L 377.6036 80.169724 
L 374.932666 83.27942 
L 372.261733 74.561209 
L 369.590799 67.170589 
L 366.919865 66.2508 
L 364.248932 65.056796 
L 361.577998 69.950677 
L 358.907065 68.746486 
L 356.236131 70.272414 
L 353.565198 70.787075 
L 350.894264 70.514879 
L 348.223331 70.381934 
L 345.552397 73.328225 
L 342.881464 78.531617 
L 340.21053 64.71691 
L 337.539596 60.879197 
L 334.868663 66.648303 
L 332.197729 65.822973 
L 329.526796 63.404491 
L 326.855862 64.636004 
L 324.184929 70.419393 
L 321.513995 67.944193 
L 318.843062 68.58307 
L 316.172128 66.131908 
L 313.501194 65.010574 
L 310.830261 68.723373 
L 308.159327 69.681303 
L 305.488394 70.311817 
L 302.81746 68.886979 
L 300.146527 73.062239 
L 297.475593 73.524816 
L 294.80466 70.273489 
L 292.133726 64.650339 
L 289.462792 70.51191 
L 286.791859 67.75529 
L 284.120925 73.205605 
L 281.449992 74.293233 
L 278.779058 72.466194 
L 276.108125 75.458062 
L 273.437191 74.200692 
L 270.766258 81.69293 
L 268.095324 82.767564 
L 265.424391 90.17743 
L 262.753457 84.170411 
L 260.082523 90.14404 
L 257.41159 97.916953 
L 254.740656 100.122169 
L 252.069723 102.666513 
L 249.398789 122.16423 
L 246.727856 121.079562 
L 244.056922 143.132157 
L 241.385989 132.565931 
L 238.715055 145.026756 
L 236.044121 148.60718 
L 233.373188 133.519486 
L 230.702254 143.778991 
L 228.031321 160.195602 
L 225.360387 165.757433 
L 222.689454 157.502163 
L 220.01852 179.290532 
L 217.347587 148.312063 
L 214.676653 111.331674 
L 212.00572 103.330563 
L 209.334786 67.160042 
L 206.663852 41.444946 
L 203.992919 33.3895 
L 201.321985 31.287639 
L 198.651052 51.403749 
L 195.980118 54.494985 
L 193.309185 64.956923 
L 190.638251 58.009865 
L 187.967318 67.575684 
L 185.296384 67.190391 
L 182.62545 54.855567 
L 179.954517 28.038182 
L 177.283583 35.071614 
L 174.61265 35.89632 
L 171.941716 40.509339 
L 169.270783 65.173409 
L 166.599849 80.056612 
L 163.928916 90.768103 
L 161.257982 107.659962 
L 158.587049 122.231439 
L 155.916115 140.538794 
L 153.245181 186.039385 
L 150.574248 188.463496 
L 147.903314 197.706056 
L 145.232381 223.836661 
L 142.561447 212.238542 
L 139.890514 226.018118 
L 137.21958 220.124455 
L 134.548647 219.432672 
L 131.877713 236.96359 
L 129.206779 227.76555 
L 126.535846 228.126086 
L 123.864912 216.413591 
L 121.193979 201.678239 
L 118.523045 202.582605 
L 115.852112 207.57962 
L 113.181178 198.190532 
L 110.510245 202.77584 
L 107.839311 199.782187 
L 105.168377 189.675734 
L 102.497444 184.189103 
L 99.82651 191.056748 
L 97.155577 173.397117 
L 94.484643 178.953089 
L 91.81371 174.327541 
L 89.142776 178.443465 
L 86.471843 183.667345 
L 83.800909 200.50294 
z
" clip-path="url(#p628df73a0c)" style="fill: #1f77b4; fill-opacity: 0.2"/>
   </g>
   <g id="matplotlib.axis_1">
    <g id="xtick_1">
     <g id="line2d_1">
      <path d="M 82.452088 390.04 
L 82.452088 10.8 
" clip-path="url(#p628df73a0c)" style="fill: none; stroke: #b0b0b0; stroke-width: 0.8; stroke-linecap: square"/>
     </g>
     <g id="line2d_2">
      <defs>
       <path id="m3043d2f8f8" d="M 0 0 
L 0 3.5 
" style="stroke: #000000; stroke-width: 0.8"/>
      </defs>
      <g>
       <use xlink:href="#m3043d2f8f8" x="82.452088" y="390.04" style="stroke: #000000; stroke-width: 0.8"/>
      </g>
     </g>
     <g id="text_1">
      <!-- 0 -->
      <g transform="translate(79.270838 404.638438) scale(0.1 -0.1)">
       <defs>
        <path id="DejaVuSans-30" d="M 2034 4250 
Q 1547 4250 1301 3770 
Q 1056 3291 1056 2328 
Q 1056 1369 1301 889 
Q 1547 409 2034 409 
Q 2525 409 2770 889 
Q 3016 1369 3016 2328 
Q 3016 3291 2770 3770 
Q 2525 4250 2034 4250 
z
M 2034 4750 
Q 2819 4750 3233 4129 
Q 3647 3509 3647 2328 
Q 3647 1150 3233 529 
Q 2819 -91 2034 -91 
Q 1250 -91 836 529 
Q 422 1150 422 2328 
Q 422 3509 836 4129 
Q 1250 4750 2034 4750 
z
" transform="scale(0.015625)"/>
       </defs>
       <use xlink:href="#DejaVuSans-30"/>
      </g>
     </g>
    </g>
    <g id="xtick_2">
     <g id="line2d_3">
      <path d="M 215.998765 390.04 
L 215.998765 10.8 
" clip-path="url(#p628df73a0c)" style="fill: none; stroke: #b0b0b0; stroke-width: 0.8; stroke-linecap: square"/>
     </g>
     <g id="line2d_4">
      <g>
       <use xlink:href="#m3043d2f8f8" x="215.998765" y="390.04" style="stroke: #000000; stroke-width: 0.8"/>
      </g>
     </g>
     <g id="text_2">
      <!-- 10000 -->
      <g transform="translate(200.092515 404.638438) scale(0.1 -0.1)">
       <defs>
        <path id="DejaVuSans-31" d="M 794 531 
L 1825 531 
L 1825 4091 
L 703 3866 
L 703 4441 
L 1819 4666 
L 2450 4666 
L 2450 531 
L 3481 531 
L 3481 0 
L 794 0 
L 794 531 
z
" transform="scale(0.015625)"/>
       </defs>
       <use xlink:href="#DejaVuSans-31"/>
       <use xlink:href="#DejaVuSans-30" transform="translate(63.623047 0)"/>
       <use xlink:href="#DejaVuSans-30" transform="translate(127.246094 0)"/>
       <use xlink:href="#DejaVuSans-30" transform="translate(190.869141 0)"/>
       <use xlink:href="#DejaVuSans-30" transform="translate(254.492188 0)"/>
      </g>
     </g>
    </g>
    <g id="xtick_3">
     <g id="line2d_5">
      <path d="M 349.545443 390.04 
L 349.545443 10.8 
" clip-path="url(#p628df73a0c)" style="fill: none; stroke: #b0b0b0; stroke-width: 0.8; stroke-linecap: square"/>
     </g>
     <g id="line2d_6">
      <g>
       <use xlink:href="#m3043d2f8f8" x="349.545443" y="390.04" style="stroke: #000000; stroke-width: 0.8"/>
      </g>
     </g>
     <g id="text_3">
      <!-- 20000 -->
      <g transform="translate(333.639193 404.638438) scale(0.1 -0.1)">
       <defs>
        <path id="DejaVuSans-32" d="M 1228 531 
L 3431 531 
L 3431 0 
L 469 0 
L 469 531 
Q 828 903 1448 1529 
Q 2069 2156 2228 2338 
Q 2531 2678 2651 2914 
Q 2772 3150 2772 3378 
Q 2772 3750 2511 3984 
Q 2250 4219 1831 4219 
Q 1534 4219 1204 4116 
Q 875 4013 500 3803 
L 500 4441 
Q 881 4594 1212 4672 
Q 1544 4750 1819 4750 
Q 2544 4750 2975 4387 
Q 3406 4025 3406 3419 
Q 3406 3131 3298 2873 
Q 3191 2616 2906 2266 
Q 2828 2175 2409 1742 
Q 1991 1309 1228 531 
z
" transform="scale(0.015625)"/>
       </defs>
       <use xlink:href="#DejaVuSans-32"/>
       <use xlink:href="#DejaVuSans-30" transform="translate(63.623047 0)"/>
       <use xlink:href="#DejaVuSans-30" transform="translate(127.246094 0)"/>
       <use xlink:href="#DejaVuSans-30" transform="translate(190.869141 0)"/>
       <use xlink:href="#DejaVuSans-30" transform="translate(254.492188 0)"/>
      </g>
     </g>
    </g>
    <g id="xtick_4">
     <g id="line2d_7">
      <path d="M 483.09212 390.04 
L 483.09212 10.8 
" clip-path="url(#p628df73a0c)" style="fill: none; stroke: #b0b0b0; stroke-width: 0.8; stroke-linecap: square"/>
     </g>
     <g id="line2d_8">
      <g>
       <use xlink:href="#m3043d2f8f8" x="483.09212" y="390.04" style="stroke: #000000; stroke-width: 0.8"/>
      </g>
     </g>
     <g id="text_4">
      <!-- 30000 -->
      <g transform="translate(467.18587 404.638438) scale(0.1 -0.1)">
       <defs>
        <path id="DejaVuSans-33" d="M 2597 2516 
Q 3050 2419 3304 2112 
Q 3559 1806 3559 1356 
Q 3559 666 3084 287 
Q 2609 -91 1734 -91 
Q 1441 -91 1130 -33 
Q 819 25 488 141 
L 488 750 
Q 750 597 1062 519 
Q 1375 441 1716 441 
Q 2309 441 2620 675 
Q 2931 909 2931 1356 
Q 2931 1769 2642 2001 
Q 2353 2234 1838 2234 
L 1294 2234 
L 1294 2753 
L 1863 2753 
Q 2328 2753 2575 2939 
Q 2822 3125 2822 3475 
Q 2822 3834 2567 4026 
Q 2313 4219 1838 4219 
Q 1578 4219 1281 4162 
Q 984 4106 628 3988 
L 628 4550 
Q 988 4650 1302 4700 
Q 1616 4750 1894 4750 
Q 2613 4750 3031 4423 
Q 3450 4097 3450 3541 
Q 3450 3153 3228 2886 
Q 3006 2619 2597 2516 
z
" transform="scale(0.015625)"/>
       </defs>
       <use xlink:href="#DejaVuSans-33"/>
       <use xlink:href="#DejaVuSans-30" transform="translate(63.623047 0)"/>
       <use xlink:href="#DejaVuSans-30" transform="translate(127.246094 0)"/>
       <use xlink:href="#DejaVuSans-30" transform="translate(190.869141 0)"/>
       <use xlink:href="#DejaVuSans-30" transform="translate(254.492188 0)"/>
      </g>
     </g>
    </g>
    <g id="xtick_5">
     <g id="line2d_9">
      <path d="M 616.638798 390.04 
L 616.638798 10.8 
" clip-path="url(#p628df73a0c)" style="fill: none; stroke: #b0b0b0; stroke-width: 0.8; stroke-linecap: square"/>
     </g>
     <g id="line2d_10">
      <g>
       <use xlink:href="#m3043d2f8f8" x="616.638798" y="390.04" style="stroke: #000000; stroke-width: 0.8"/>
      </g>
     </g>
     <g id="text_5">
      <!-- 40000 -->
      <g transform="translate(600.732548 404.638438) scale(0.1 -0.1)">
       <defs>
        <path id="DejaVuSans-34" d="M 2419 4116 
L 825 1625 
L 2419 1625 
L 2419 4116 
z
M 2253 4666 
L 3047 4666 
L 3047 1625 
L 3713 1625 
L 3713 1100 
L 3047 1100 
L 3047 0 
L 2419 0 
L 2419 1100 
L 313 1100 
L 313 1709 
L 2253 4666 
z
" transform="scale(0.015625)"/>
       </defs>
       <use xlink:href="#DejaVuSans-34"/>
       <use xlink:href="#DejaVuSans-30" transform="translate(63.623047 0)"/>
       <use xlink:href="#DejaVuSans-30" transform="translate(127.246094 0)"/>
       <use xlink:href="#DejaVuSans-30" transform="translate(190.869141 0)"/>
       <use xlink:href="#DejaVuSans-30" transform="translate(254.492188 0)"/>
      </g>
     </g>
    </g>
    <g id="text_6">
     <!-- Episodes -->
     <g transform="translate(359.367813 418.316562) scale(0.1 -0.1)">
      <defs>
       <path id="DejaVuSans-45" d="M 628 4666 
L 3578 4666 
L 3578 4134 
L 1259 4134 
L 1259 2753 
L 3481 2753 
L 3481 2222 
L 1259 2222 
L 1259 531 
L 3634 531 
L 3634 0 
L 628 0 
L 628 4666 
z
" transform="scale(0.015625)"/>
       <path id="DejaVuSans-70" d="M 1159 525 
L 1159 -1331 
L 581 -1331 
L 581 3500 
L 1159 3500 
L 1159 2969 
Q 1341 3281 1617 3432 
Q 1894 3584 2278 3584 
Q 2916 3584 3314 3078 
Q 3713 2572 3713 1747 
Q 3713 922 3314 415 
Q 2916 -91 2278 -91 
Q 1894 -91 1617 61 
Q 1341 213 1159 525 
z
M 3116 1747 
Q 3116 2381 2855 2742 
Q 2594 3103 2138 3103 
Q 1681 3103 1420 2742 
Q 1159 2381 1159 1747 
Q 1159 1113 1420 752 
Q 1681 391 2138 391 
Q 2594 391 2855 752 
Q 3116 1113 3116 1747 
z
" transform="scale(0.015625)"/>
       <path id="DejaVuSans-69" d="M 603 3500 
L 1178 3500 
L 1178 0 
L 603 0 
L 603 3500 
z
M 603 4863 
L 1178 4863 
L 1178 4134 
L 603 4134 
L 603 4863 
z
" transform="scale(0.015625)"/>
       <path id="DejaVuSans-73" d="M 2834 3397 
L 2834 2853 
Q 2591 2978 2328 3040 
Q 2066 3103 1784 3103 
Q 1356 3103 1142 2972 
Q 928 2841 928 2578 
Q 928 2378 1081 2264 
Q 1234 2150 1697 2047 
L 1894 2003 
Q 2506 1872 2764 1633 
Q 3022 1394 3022 966 
Q 3022 478 2636 193 
Q 2250 -91 1575 -91 
Q 1294 -91 989 -36 
Q 684 19 347 128 
L 347 722 
Q 666 556 975 473 
Q 1284 391 1588 391 
Q 1994 391 2212 530 
Q 2431 669 2431 922 
Q 2431 1156 2273 1281 
Q 2116 1406 1581 1522 
L 1381 1569 
Q 847 1681 609 1914 
Q 372 2147 372 2553 
Q 372 3047 722 3315 
Q 1072 3584 1716 3584 
Q 2034 3584 2315 3537 
Q 2597 3491 2834 3397 
z
" transform="scale(0.015625)"/>
       <path id="DejaVuSans-6f" d="M 1959 3097 
Q 1497 3097 1228 2736 
Q 959 2375 959 1747 
Q 959 1119 1226 758 
Q 1494 397 1959 397 
Q 2419 397 2687 759 
Q 2956 1122 2956 1747 
Q 2956 2369 2687 2733 
Q 2419 3097 1959 3097 
z
M 1959 3584 
Q 2709 3584 3137 3096 
Q 3566 2609 3566 1747 
Q 3566 888 3137 398 
Q 2709 -91 1959 -91 
Q 1206 -91 779 398 
Q 353 888 353 1747 
Q 353 2609 779 3096 
Q 1206 3584 1959 3584 
z
" transform="scale(0.015625)"/>
       <path id="DejaVuSans-64" d="M 2906 2969 
L 2906 4863 
L 3481 4863 
L 3481 0 
L 2906 0 
L 2906 525 
Q 2725 213 2448 61 
Q 2172 -91 1784 -91 
Q 1150 -91 751 415 
Q 353 922 353 1747 
Q 353 2572 751 3078 
Q 1150 3584 1784 3584 
Q 2172 3584 2448 3432 
Q 2725 3281 2906 2969 
z
M 947 1747 
Q 947 1113 1208 752 
Q 1469 391 1925 391 
Q 2381 391 2643 752 
Q 2906 1113 2906 1747 
Q 2906 2381 2643 2742 
Q 2381 3103 1925 3103 
Q 1469 3103 1208 2742 
Q 947 2381 947 1747 
z
" transform="scale(0.015625)"/>
       <path id="DejaVuSans-65" d="M 3597 1894 
L 3597 1613 
L 953 1613 
Q 991 1019 1311 708 
Q 1631 397 2203 397 
Q 2534 397 2845 478 
Q 3156 559 3463 722 
L 3463 178 
Q 3153 47 2828 -22 
Q 2503 -91 2169 -91 
Q 1331 -91 842 396 
Q 353 884 353 1716 
Q 353 2575 817 3079 
Q 1281 3584 2069 3584 
Q 2775 3584 3186 3129 
Q 3597 2675 3597 1894 
z
M 3022 2063 
Q 3016 2534 2758 2815 
Q 2500 3097 2075 3097 
Q 1594 3097 1305 2825 
Q 1016 2553 972 2059 
L 3022 2063 
z
" transform="scale(0.015625)"/>
      </defs>
      <use xlink:href="#DejaVuSans-45"/>
      <use xlink:href="#DejaVuSans-70" transform="translate(63.183594 0)"/>
      <use xlink:href="#DejaVuSans-69" transform="translate(126.660156 0)"/>
      <use xlink:href="#DejaVuSans-73" transform="translate(154.443359 0)"/>
      <use xlink:href="#DejaVuSans-6f" transform="translate(206.542969 0)"/>
      <use xlink:href="#DejaVuSans-64" transform="translate(267.724609 0)"/>
      <use xlink:href="#DejaVuSans-65" transform="translate(331.201172 0)"/>
      <use xlink:href="#DejaVuSans-73" transform="translate(392.724609 0)"/>
     </g>
    </g>
   </g>
   <g id="matplotlib.axis_2">
    <g id="ytick_1">
     <g id="line2d_11">
      <path d="M 54.02 347.649777 
L 709.2 347.649777 
" clip-path="url(#p628df73a0c)" style="fill: none; stroke: #b0b0b0; stroke-width: 0.8; stroke-linecap: square"/>
     </g>
     <g id="line2d_12">
      <defs>
       <path id="m1c07ff0751" d="M 0 0 
L -3.5 0 
" style="stroke: #000000; stroke-width: 0.8"/>
      </defs>
      <g>
       <use xlink:href="#m1c07ff0751" x="54.02" y="347.649777" style="stroke: #000000; stroke-width: 0.8"/>
      </g>
     </g>
     <g id="text_7">
      <!-- 0.50 -->
      <g transform="translate(24.754375 351.448996) scale(0.1 -0.1)">
       <defs>
        <path id="DejaVuSans-2e" d="M 684 794 
L 1344 794 
L 1344 0 
L 684 0 
L 684 794 
z
" transform="scale(0.015625)"/>
        <path id="DejaVuSans-35" d="M 691 4666 
L 3169 4666 
L 3169 4134 
L 1269 4134 
L 1269 2991 
Q 1406 3038 1543 3061 
Q 1681 3084 1819 3084 
Q 2600 3084 3056 2656 
Q 3513 2228 3513 1497 
Q 3513 744 3044 326 
Q 2575 -91 1722 -91 
Q 1428 -91 1123 -41 
Q 819 9 494 109 
L 494 744 
Q 775 591 1075 516 
Q 1375 441 1709 441 
Q 2250 441 2565 725 
Q 2881 1009 2881 1497 
Q 2881 1984 2565 2268 
Q 2250 2553 1709 2553 
Q 1456 2553 1204 2497 
Q 953 2441 691 2322 
L 691 4666 
z
" transform="scale(0.015625)"/>
       </defs>
       <use xlink:href="#DejaVuSans-30"/>
       <use xlink:href="#DejaVuSans-2e" transform="translate(63.623047 0)"/>
       <use xlink:href="#DejaVuSans-35" transform="translate(95.410156 0)"/>
       <use xlink:href="#DejaVuSans-30" transform="translate(159.033203 0)"/>
      </g>
     </g>
    </g>
    <g id="ytick_2">
     <g id="line2d_13">
      <path d="M 54.02 268.086365 
L 709.2 268.086365 
" clip-path="url(#p628df73a0c)" style="fill: none; stroke: #b0b0b0; stroke-width: 0.8; stroke-linecap: square"/>
     </g>
     <g id="line2d_14">
      <g>
       <use xlink:href="#m1c07ff0751" x="54.02" y="268.086365" style="stroke: #000000; stroke-width: 0.8"/>
      </g>
     </g>
     <g id="text_8">
      <!-- 0.55 -->
      <g transform="translate(24.754375 271.885584) scale(0.1 -0.1)">
       <use xlink:href="#DejaVuSans-30"/>
       <use xlink:href="#DejaVuSans-2e" transform="translate(63.623047 0)"/>
       <use xlink:href="#DejaVuSans-35" transform="translate(95.410156 0)"/>
       <use xlink:href="#DejaVuSans-35" transform="translate(159.033203 0)"/>
      </g>
     </g>
    </g>
    <g id="ytick_3">
     <g id="line2d_15">
      <path d="M 54.02 188.522954 
L 709.2 188.522954 
" clip-path="url(#p628df73a0c)" style="fill: none; stroke: #b0b0b0; stroke-width: 0.8; stroke-linecap: square"/>
     </g>
     <g id="line2d_16">
      <g>
       <use xlink:href="#m1c07ff0751" x="54.02" y="188.522954" style="stroke: #000000; stroke-width: 0.8"/>
      </g>
     </g>
     <g id="text_9">
      <!-- 0.60 -->
      <g transform="translate(24.754375 192.322173) scale(0.1 -0.1)">
       <defs>
        <path id="DejaVuSans-36" d="M 2113 2584 
Q 1688 2584 1439 2293 
Q 1191 2003 1191 1497 
Q 1191 994 1439 701 
Q 1688 409 2113 409 
Q 2538 409 2786 701 
Q 3034 994 3034 1497 
Q 3034 2003 2786 2293 
Q 2538 2584 2113 2584 
z
M 3366 4563 
L 3366 3988 
Q 3128 4100 2886 4159 
Q 2644 4219 2406 4219 
Q 1781 4219 1451 3797 
Q 1122 3375 1075 2522 
Q 1259 2794 1537 2939 
Q 1816 3084 2150 3084 
Q 2853 3084 3261 2657 
Q 3669 2231 3669 1497 
Q 3669 778 3244 343 
Q 2819 -91 2113 -91 
Q 1303 -91 875 529 
Q 447 1150 447 2328 
Q 447 3434 972 4092 
Q 1497 4750 2381 4750 
Q 2619 4750 2861 4703 
Q 3103 4656 3366 4563 
z
" transform="scale(0.015625)"/>
       </defs>
       <use xlink:href="#DejaVuSans-30"/>
       <use xlink:href="#DejaVuSans-2e" transform="translate(63.623047 0)"/>
       <use xlink:href="#DejaVuSans-36" transform="translate(95.410156 0)"/>
       <use xlink:href="#DejaVuSans-30" transform="translate(159.033203 0)"/>
      </g>
     </g>
    </g>
    <g id="ytick_4">
     <g id="line2d_17">
      <path d="M 54.02 108.959543 
L 709.2 108.959543 
" clip-path="url(#p628df73a0c)" style="fill: none; stroke: #b0b0b0; stroke-width: 0.8; stroke-linecap: square"/>
     </g>
     <g id="line2d_18">
      <g>
       <use xlink:href="#m1c07ff0751" x="54.02" y="108.959543" style="stroke: #000000; stroke-width: 0.8"/>
      </g>
     </g>
     <g id="text_10">
      <!-- 0.65 -->
      <g transform="translate(24.754375 112.758762) scale(0.1 -0.1)">
       <use xlink:href="#DejaVuSans-30"/>
       <use xlink:href="#DejaVuSans-2e" transform="translate(63.623047 0)"/>
       <use xlink:href="#DejaVuSans-36" transform="translate(95.410156 0)"/>
       <use xlink:href="#DejaVuSans-35" transform="translate(159.033203 0)"/>
      </g>
     </g>
    </g>
    <g id="ytick_5">
     <g id="line2d_19">
      <path d="M 54.02 29.396132 
L 709.2 29.396132 
" clip-path="url(#p628df73a0c)" style="fill: none; stroke: #b0b0b0; stroke-width: 0.8; stroke-linecap: square"/>
     </g>
     <g id="line2d_20">
      <g>
       <use xlink:href="#m1c07ff0751" x="54.02" y="29.396132" style="stroke: #000000; stroke-width: 0.8"/>
      </g>
     </g>
     <g id="text_11">
      <!-- 0.70 -->
      <g transform="translate(24.754375 33.19535) scale(0.1 -0.1)">
       <defs>
        <path id="DejaVuSans-37" d="M 525 4666 
L 3525 4666 
L 3525 4397 
L 1831 0 
L 1172 0 
L 2766 4134 
L 525 4134 
L 525 4666 
z
" transform="scale(0.015625)"/>
       </defs>
       <use xlink:href="#DejaVuSans-30"/>
       <use xlink:href="#DejaVuSans-2e" transform="translate(63.623047 0)"/>
       <use xlink:href="#DejaVuSans-37" transform="translate(95.410156 0)"/>
       <use xlink:href="#DejaVuSans-30" transform="translate(159.033203 0)"/>
      </g>
     </g>
    </g>
    <g id="text_12">
     <!-- Accuracy on Test -->
     <g transform="translate(18.674688 242.499688) rotate(-90) scale(0.1 -0.1)">
      <defs>
       <path id="DejaVuSans-41" d="M 2188 4044 
L 1331 1722 
L 3047 1722 
L 2188 4044 
z
M 1831 4666 
L 2547 4666 
L 4325 0 
L 3669 0 
L 3244 1197 
L 1141 1197 
L 716 0 
L 50 0 
L 1831 4666 
z
" transform="scale(0.015625)"/>
       <path id="DejaVuSans-63" d="M 3122 3366 
L 3122 2828 
Q 2878 2963 2633 3030 
Q 2388 3097 2138 3097 
Q 1578 3097 1268 2742 
Q 959 2388 959 1747 
Q 959 1106 1268 751 
Q 1578 397 2138 397 
Q 2388 397 2633 464 
Q 2878 531 3122 666 
L 3122 134 
Q 2881 22 2623 -34 
Q 2366 -91 2075 -91 
Q 1284 -91 818 406 
Q 353 903 353 1747 
Q 353 2603 823 3093 
Q 1294 3584 2113 3584 
Q 2378 3584 2631 3529 
Q 2884 3475 3122 3366 
z
" transform="scale(0.015625)"/>
       <path id="DejaVuSans-75" d="M 544 1381 
L 544 3500 
L 1119 3500 
L 1119 1403 
Q 1119 906 1312 657 
Q 1506 409 1894 409 
Q 2359 409 2629 706 
Q 2900 1003 2900 1516 
L 2900 3500 
L 3475 3500 
L 3475 0 
L 2900 0 
L 2900 538 
Q 2691 219 2414 64 
Q 2138 -91 1772 -91 
Q 1169 -91 856 284 
Q 544 659 544 1381 
z
M 1991 3584 
L 1991 3584 
z
" transform="scale(0.015625)"/>
       <path id="DejaVuSans-72" d="M 2631 2963 
Q 2534 3019 2420 3045 
Q 2306 3072 2169 3072 
Q 1681 3072 1420 2755 
Q 1159 2438 1159 1844 
L 1159 0 
L 581 0 
L 581 3500 
L 1159 3500 
L 1159 2956 
Q 1341 3275 1631 3429 
Q 1922 3584 2338 3584 
Q 2397 3584 2469 3576 
Q 2541 3569 2628 3553 
L 2631 2963 
z
" transform="scale(0.015625)"/>
       <path id="DejaVuSans-61" d="M 2194 1759 
Q 1497 1759 1228 1600 
Q 959 1441 959 1056 
Q 959 750 1161 570 
Q 1363 391 1709 391 
Q 2188 391 2477 730 
Q 2766 1069 2766 1631 
L 2766 1759 
L 2194 1759 
z
M 3341 1997 
L 3341 0 
L 2766 0 
L 2766 531 
Q 2569 213 2275 61 
Q 1981 -91 1556 -91 
Q 1019 -91 701 211 
Q 384 513 384 1019 
Q 384 1609 779 1909 
Q 1175 2209 1959 2209 
L 2766 2209 
L 2766 2266 
Q 2766 2663 2505 2880 
Q 2244 3097 1772 3097 
Q 1472 3097 1187 3025 
Q 903 2953 641 2809 
L 641 3341 
Q 956 3463 1253 3523 
Q 1550 3584 1831 3584 
Q 2591 3584 2966 3190 
Q 3341 2797 3341 1997 
z
" transform="scale(0.015625)"/>
       <path id="DejaVuSans-79" d="M 2059 -325 
Q 1816 -950 1584 -1140 
Q 1353 -1331 966 -1331 
L 506 -1331 
L 506 -850 
L 844 -850 
Q 1081 -850 1212 -737 
Q 1344 -625 1503 -206 
L 1606 56 
L 191 3500 
L 800 3500 
L 1894 763 
L 2988 3500 
L 3597 3500 
L 2059 -325 
z
" transform="scale(0.015625)"/>
       <path id="DejaVuSans-20" transform="scale(0.015625)"/>
       <path id="DejaVuSans-6e" d="M 3513 2113 
L 3513 0 
L 2938 0 
L 2938 2094 
Q 2938 2591 2744 2837 
Q 2550 3084 2163 3084 
Q 1697 3084 1428 2787 
Q 1159 2491 1159 1978 
L 1159 0 
L 581 0 
L 581 3500 
L 1159 3500 
L 1159 2956 
Q 1366 3272 1645 3428 
Q 1925 3584 2291 3584 
Q 2894 3584 3203 3211 
Q 3513 2838 3513 2113 
z
" transform="scale(0.015625)"/>
       <path id="DejaVuSans-54" d="M -19 4666 
L 3928 4666 
L 3928 4134 
L 2272 4134 
L 2272 0 
L 1638 0 
L 1638 4134 
L -19 4134 
L -19 4666 
z
" transform="scale(0.015625)"/>
       <path id="DejaVuSans-74" d="M 1172 4494 
L 1172 3500 
L 2356 3500 
L 2356 3053 
L 1172 3053 
L 1172 1153 
Q 1172 725 1289 603 
Q 1406 481 1766 481 
L 2356 481 
L 2356 0 
L 1766 0 
Q 1100 0 847 248 
Q 594 497 594 1153 
L 594 3053 
L 172 3053 
L 172 3500 
L 594 3500 
L 594 4494 
L 1172 4494 
z
" transform="scale(0.015625)"/>
      </defs>
      <use xlink:href="#DejaVuSans-41"/>
      <use xlink:href="#DejaVuSans-63" transform="translate(66.658203 0)"/>
      <use xlink:href="#DejaVuSans-63" transform="translate(121.638672 0)"/>
      <use xlink:href="#DejaVuSans-75" transform="translate(176.619141 0)"/>
      <use xlink:href="#DejaVuSans-72" transform="translate(239.998047 0)"/>
      <use xlink:href="#DejaVuSans-61" transform="translate(281.111328 0)"/>
      <use xlink:href="#DejaVuSans-63" transform="translate(342.390625 0)"/>
      <use xlink:href="#DejaVuSans-79" transform="translate(397.371094 0)"/>
      <use xlink:href="#DejaVuSans-20" transform="translate(456.550781 0)"/>
      <use xlink:href="#DejaVuSans-6f" transform="translate(488.337891 0)"/>
      <use xlink:href="#DejaVuSans-6e" transform="translate(549.519531 0)"/>
      <use xlink:href="#DejaVuSans-20" transform="translate(612.898438 0)"/>
      <use xlink:href="#DejaVuSans-54" transform="translate(644.685547 0)"/>
      <use xlink:href="#DejaVuSans-65" transform="translate(688.769531 0)"/>
      <use xlink:href="#DejaVuSans-73" transform="translate(750.292969 0)"/>
      <use xlink:href="#DejaVuSans-74" transform="translate(802.392578 0)"/>
     </g>
    </g>
   </g>
   <g id="line2d_21">
    <path d="M 83.800909 273.439702 
L 86.471843 263.739841 
L 89.142776 260.179132 
L 91.81371 254.211877 
L 94.484643 259.933566 
L 97.155577 259.417877 
L 99.82651 266.220058 
L 102.497444 263.66617 
L 105.168377 272.089085 
L 110.510245 281.199588 
L 113.181178 280.217324 
L 115.852112 283.115003 
L 118.523045 280.855797 
L 121.193979 281.690721 
L 123.864912 290.432871 
L 126.535846 300.108174 
L 129.206779 299.101353 
L 131.877713 298.83123 
L 134.548647 294.48471 
L 137.21958 293.011313 
L 139.890514 298.708445 
L 142.561447 292.52018 
L 145.232381 296.301897 
L 147.903314 281.003132 
L 150.574248 277.221413 
L 153.245181 275.821689 
L 155.916115 245.83807 
L 158.587049 234.861266 
L 161.257982 230.637529 
L 163.928916 213.742581 
L 166.599849 210.476551 
L 169.270783 202.495653 
L 171.941716 180.100027 
L 174.61265 181.352414 
L 177.283583 182.187339 
L 179.954517 176.195527 
L 182.62545 194.195523 
L 185.296384 203.969054 
L 187.967318 199.155962 
L 190.638251 192.329227 
L 193.309185 196.135502 
L 195.980118 186.82855 
L 198.651052 182.408361 
L 201.321985 167.035926 
L 203.992919 171.259662 
L 206.663852 182.727598 
L 209.334786 200.482025 
L 212.00572 225.382423 
L 214.676653 229.434263 
L 217.347587 254.85035 
L 220.01852 271.180493 
L 222.689454 253.941754 
L 225.360387 260.056347 
L 228.031321 257.183226 
L 230.702254 248.244621 
L 233.373188 233.879008 
L 236.044121 247.507923 
L 238.715055 242.547489 
L 241.385989 230.637533 
L 244.056922 242.375588 
L 246.727856 227.346945 
L 249.398789 226.733031 
L 252.069723 210.550227 
L 254.740656 206.179152 
L 257.41159 201.267832 
L 260.082523 188.98953 
L 262.753457 178.945882 
L 265.424391 177.177807 
L 268.095324 169.000457 
L 270.766258 164.629382 
L 273.437191 156.722153 
L 276.108125 157.458852 
L 278.779058 151.221476 
L 281.449992 158.63757 
L 284.120925 152.915881 
L 286.791859 133.31971 
L 289.462792 135.28424 
L 292.133726 132.632127 
L 294.80466 135.210571 
L 297.475593 142.184647 
L 300.146527 136.855863 
L 302.81746 126.345637 
L 305.488394 123.889976 
L 308.159327 119.911806 
L 310.830261 121.385202 
L 313.501194 130.397474 
L 316.172128 121.802664 
L 318.843062 115.83541 
L 321.513995 116.744004 
L 324.184929 112.22559 
L 326.855862 129.513436 
L 329.526796 138.722162 
L 332.197729 127.598021 
L 334.868663 120.697616 
L 337.539596 138.157359 
L 340.21053 135.554361 
L 342.881464 156.673043 
L 345.552397 136.634854 
L 348.223331 125.952731 
L 350.894264 122.514806 
L 353.565198 119.641684 
L 356.236131 116.940457 
L 358.907065 116.817674 
L 361.577998 117.750825 
L 364.248932 124.06187 
L 366.919865 120.59939 
L 369.590799 123.104163 
L 372.261733 141.988195 
L 374.932666 168.828565 
L 377.6036 156.599376 
L 380.274533 161.26513 
L 382.945467 158.932253 
L 385.6164 168.190093 
L 388.287334 157.974546 
L 390.958267 136.659412 
L 393.629201 114.288344 
L 396.300135 117.701712 
L 398.971068 114.190117 
L 401.642002 130.643039 
L 404.312935 148.83948 
L 406.983869 132.975917 
L 409.654802 124.184654 
L 412.325736 135.603477 
L 414.996669 137.371553 
L 417.667603 133.909072 
L 420.338536 125.044138 
L 423.00947 118.241958 
L 428.351337 110.973203 
L 431.022271 110.408401 
L 433.693204 115.442506 
L 436.364138 114.214675 
L 439.035071 108.100081 
L 441.706005 108.738552 
L 444.376938 114.141005 
L 447.047872 111.783571 
L 449.718806 119.052326 
L 452.389739 136.536629 
L 455.060673 150.460223 
L 460.40254 119.224223 
L 463.073473 111.783571 
L 465.744407 118.634864 
L 468.41534 118.904986 
L 471.086274 120.96774 
L 473.757208 126.321079 
L 476.428141 121.753549 
L 479.099075 121.60621 
L 481.770008 122.809484 
L 484.440942 128.162824 
L 487.111875 122.883154 
L 489.782809 123.840863 
L 492.453742 125.093251 
L 495.124676 115.147826 
L 497.795609 108.689439 
L 500.466543 106.847694 
L 503.137477 110.457515 
L 505.80841 107.903628 
L 508.479344 112.667609 
L 511.150277 110.825864 
L 513.821211 115.025044 
L 516.492144 114.877704 
L 524.504945 152.842213 
L 527.175879 176.269216 
L 529.846812 139.164182 
L 532.517746 119.789019 
L 535.188679 109.205121 
L 537.859613 112.225583 
L 540.530546 116.301981 
L 543.20148 112.667602 
L 545.872413 110.457508 
L 548.543347 100.512082 
L 551.21428 102.55028 
L 553.885214 109.008668 
L 556.556148 104.318356 
L 559.227081 101.690799 
L 561.898015 107.216036 
L 564.568948 102.132818 
L 567.239882 104.514809 
L 569.910815 113.134178 
L 572.581749 108.615762 
L 575.252682 103.139639 
L 577.923616 102.034592 
L 580.59455 95.993666 
L 583.265483 115.909075 
L 585.936417 108.296526 
L 588.60735 93.390666 
L 591.278284 96.607581 
L 593.949217 96.067336 
L 596.620151 98.965015 
L 599.291084 98.277431 
L 601.962018 115.688065 
L 604.632951 153.112335 
L 607.303885 119.347 
L 609.974819 103.139639 
L 612.645752 97.319723 
L 615.316686 95.60076 
L 617.987619 98.891346 
L 620.658553 95.085072 
L 623.329486 92.85042 
L 626.00042 94.618496 
L 628.671353 95.404307 
L 631.342287 100.659421 
L 634.013221 154.659401 
L 636.684154 140.588465 
L 639.355088 111.759008 
L 642.026021 101.052326 
L 644.696955 104.048233 
L 647.367888 93.538005 
L 650.038822 97.467062 
L 652.709755 96.509355 
L 655.380689 94.986845 
L 658.051623 92.040052 
L 660.722556 92.334731 
L 663.39349 100.340186 
L 666.064423 100.143732 
L 668.735357 102.452053 
L 671.40629 149.625297 
L 674.077224 119.469783 
L 676.748157 104.244686 
L 679.419091 99.284251 
L 679.419091 99.284251 
" clip-path="url(#p628df73a0c)" style="fill: none; stroke: #1f77b4; stroke-width: 1.5; stroke-linecap: square"/>
   </g>
   <g id="patch_3">
    <path d="M 54.02 390.04 
L 54.02 10.8 
" style="fill: none; stroke: #000000; stroke-width: 0.8; stroke-linejoin: miter; stroke-linecap: square"/>
   </g>
   <g id="patch_4">
    <path d="M 709.2 390.04 
L 709.2 10.8 
" style="fill: none; stroke: #000000; stroke-width: 0.8; stroke-linejoin: miter; stroke-linecap: square"/>
   </g>
   <g id="patch_5">
    <path d="M 54.02 390.04 
L 709.2 390.04 
" style="fill: none; stroke: #000000; stroke-width: 0.8; stroke-linejoin: miter; stroke-linecap: square"/>
   </g>
   <g id="patch_6">
    <path d="M 54.02 10.8 
L 709.2 10.8 
" style="fill: none; stroke: #000000; stroke-width: 0.8; stroke-linejoin: miter; stroke-linecap: square"/>
   </g>
  </g>
 </g>
 <defs>
  <clipPath id="p628df73a0c">
   <rect x="54.02" y="10.8" width="655.18" height="379.24"/>
  </clipPath>
 </defs>
</svg>
