<?xml version="1.0" encoding="utf-8" standalone="no"?>
<!DOCTYPE svg PUBLIC "-//W3C//DTD SVG 1.1//EN"
  "http://www.w3.org/Graphics/SVG/1.1/DTD/svg11.dtd">
<svg xmlns:xlink="http://www.w3.org/1999/xlink" width="720pt" height="432pt" viewBox="0 0 720 432" xmlns="http://www.w3.org/2000/svg" version="1.1">
 <metadata>
  <rdf:RDF xmlns:dc="http://purl.org/dc/elements/1.1/" xmlns:cc="http://creativecommons.org/ns#" xmlns:rdf="http://www.w3.org/1999/02/22-rdf-syntax-ns#">
   <cc:Work>
    <dc:type rdf:resource="http://purl.org/dc/dcmitype/StillImage"/>
    <dc:date>2025-04-22T23:07:25.931113</dc:date>
    <dc:format>image/svg+xml</dc:format>
    <dc:creator>
     <cc:Agent>
      <dc:title>Matplotlib v3.10.0, https://matplotlib.org/</dc:title>
     </cc:Agent>
    </dc:creator>
   </cc:Work>
  </rdf:RDF>
 </metadata>
 <defs>
  <style type="text/css">*{stroke-linejoin: round; stroke-linecap: butt}</style>
 </defs>
 <g id="figure_1">
  <g id="patch_1">
   <path d="M 0 432 
L 720 432 
L 720 0 
L 0 0 
z
" style="fill: #ffffff"/>
  </g>
  <g id="axes_1">
   <g id="patch_2">
    <path d="M 47.72 390.04 
L 709.2 390.04 
L 709.2 10.8 
L 47.72 10.8 
z
" style="fill: #ffffff"/>
   </g>
   <g id="FillBetweenPolyCollection_1">
    <path d="M 77.787273 198.037781 
L 77.787273 345.923445 
L 80.483889 343.382639 
L 83.180506 341.243419 
L 85.877122 333.592252 
L 88.573738 340.394219 
L 91.270355 344.891177 
L 93.966971 340.891896 
L 96.663587 342.577839 
L 99.360204 354.182024 
L 102.05682 353.457009 
L 104.753437 359.399888 
L 107.450053 362.088038 
L 110.146669 358.374238 
L 112.843286 358.87875 
L 115.539902 361.598043 
L 118.236519 364.373997 
L 120.933135 372.081389 
L 123.629751 370.497406 
L 126.326368 360.93209 
L 129.022984 369.568705 
L 131.7196 365.860076 
L 134.416217 371.456456 
L 137.112833 372.801818 
L 139.80945 368.786948 
L 142.506066 364.378338 
L 145.202682 365.961207 
L 147.899299 365.573755 
L 150.595915 351.142463 
L 153.292532 347.236995 
L 155.989148 353.709458 
L 158.685764 337.221068 
L 161.382381 340.758324 
L 164.078997 339.963204 
L 166.775614 319.977562 
L 169.47223 327.217578 
L 172.168846 329.533004 
L 174.865463 324.63107 
L 177.562079 333.855713 
L 180.258695 340.955853 
L 182.955312 331.429315 
L 185.651928 327.32799 
L 188.348545 328.002515 
L 191.045161 319.766006 
L 193.741777 314.070465 
L 196.438394 303.768665 
L 199.13501 310.102364 
L 201.831627 324.905956 
L 204.528243 334.538618 
L 207.224859 347.960453 
L 209.921476 348.084481 
L 212.618092 361.691429 
L 215.314709 363.135842 
L 218.011325 350.627337 
L 220.707941 354.417868 
L 223.404558 354.192225 
L 226.101174 352.82413 
L 228.79779 334.84675 
L 231.494407 346.773456 
L 234.191023 340.529422 
L 236.88764 329.481661 
L 239.584256 342.055785 
L 242.280872 334.190239 
L 244.977489 332.008702 
L 247.674105 319.341346 
L 250.370722 313.262302 
L 253.067338 305.765063 
L 255.763954 289.301764 
L 258.460571 275.495931 
L 261.157187 266.122811 
L 263.853804 257.408434 
L 266.55042 249.8402 
L 269.247036 241.693494 
L 271.943653 241.877496 
L 274.640269 232.639094 
L 277.336885 245.433135 
L 280.033502 235.260222 
L 282.730118 202.252767 
L 285.426735 203.27808 
L 288.123351 203.786507 
L 290.819967 203.378666 
L 293.516584 213.899415 
L 296.2132 203.840844 
L 298.909817 187.301702 
L 301.606433 181.085081 
L 304.303049 173.841675 
L 306.999666 177.615576 
L 309.696282 198.848723 
L 312.392898 180.933676 
L 315.089515 166.880629 
L 317.786131 169.271815 
L 320.482748 158.058493 
L 323.179364 197.441063 
L 325.87598 216.673094 
L 328.572597 192.549209 
L 331.269213 178.249624 
L 333.96583 218.040717 
L 336.662446 209.253239 
L 339.359062 237.323779 
L 342.055679 203.063242 
L 344.752295 184.975058 
L 347.448912 178.122073 
L 350.145528 172.208226 
L 352.842144 167.385216 
L 355.538761 168.657476 
L 358.235377 169.315921 
L 360.931993 186.401715 
L 363.62861 178.390331 
L 366.325226 182.404264 
L 369.021843 212.372674 
L 371.718459 256.531146 
L 374.415075 235.628969 
L 377.111692 244.523799 
L 379.808308 238.085701 
L 382.504925 255.378685 
L 385.201541 238.169174 
L 387.898157 199.538138 
L 390.594774 162.220872 
L 393.29139 169.332992 
L 395.988007 162.686368 
L 398.684623 201.345964 
L 401.381239 243.195219 
L 404.077856 206.06198 
L 406.774472 183.438565 
L 409.471088 210.261698 
L 412.167705 213.788443 
L 414.864321 206.344751 
L 417.560938 187.757107 
L 420.257554 171.603976 
L 422.95417 162.462789 
L 425.650787 155.316716 
L 428.347403 153.719528 
L 431.04402 164.018162 
L 433.740636 160.240944 
L 436.437252 147.902366 
L 439.133869 149.539108 
L 441.830485 161.002382 
L 444.527102 155.851019 
L 447.223718 171.89377 
L 449.920334 209.273255 
L 452.616951 243.033335 
L 455.313567 207.217943 
L 458.010183 172.800163 
L 460.7068 156.783243 
L 463.403416 167.617971 
L 466.100033 166.345371 
L 468.796649 164.06985 
L 471.493265 168.893015 
L 474.189882 158.591269 
L 476.886498 158.034743 
L 479.583115 161.207664 
L 482.279731 170.573696 
L 484.976347 163.844415 
L 487.672964 169.283666 
L 490.36958 174.09821 
L 493.066196 159.811146 
L 495.762813 147.887539 
L 498.459429 145.005326 
L 501.156046 150.978928 
L 503.852662 146.361534 
L 506.549278 155.448938 
L 509.245895 152.399507 
L 511.942511 159.492637 
L 514.639128 159.687852 
L 517.335744 188.945466 
L 520.03236 219.122003 
L 522.728977 240.120289 
L 525.425593 278.70875 
L 528.12221 220.223496 
L 530.818826 188.031789 
L 533.515442 172.914612 
L 536.212059 178.192966 
L 538.908675 183.389354 
L 541.605291 178.205319 
L 544.301908 174.833176 
L 546.998524 160.52702 
L 549.695141 161.643518 
L 552.391757 171.843166 
L 555.088373 165.088155 
L 557.78499 161.485749 
L 560.481606 170.466834 
L 563.178223 161.557168 
L 565.874839 165.48288 
L 568.571455 178.70481 
L 571.268072 172.037932 
L 573.964688 163.217653 
L 576.661305 161.070475 
L 579.357921 151.957349 
L 582.054537 183.07833 
L 584.751154 171.626707 
L 587.44777 147.254786 
L 590.144386 152.402544 
L 592.841003 151.669312 
L 595.537619 156.868094 
L 598.234236 155.286672 
L 600.930852 182.838987 
L 603.627468 242.278121 
L 606.324085 188.585339 
L 609.020701 163.333484 
L 611.717318 153.704464 
L 614.413934 151.444865 
L 617.11055 158.101472 
L 619.807167 150.702308 
L 622.503783 147.683739 
L 625.2004 150.816719 
L 627.897016 151.557428 
L 630.593632 160.436986 
L 633.290249 244.591943 
L 635.986865 221.660552 
L 638.683481 176.919854 
L 641.380098 164.140153 
L 644.076714 168.640445 
L 646.773331 148.671035 
L 649.469947 154.682855 
L 652.166563 153.552585 
L 654.86318 150.591872 
L 657.559796 146.0373 
L 660.256413 146.660264 
L 662.953029 158.72462 
L 665.649645 164.07963 
L 668.346262 164.071114 
L 671.042878 236.472961 
L 673.739494 189.239249 
L 676.436111 164.644783 
L 679.132727 157.597972 
L 679.132727 54.292047 
L 679.132727 54.292047 
L 676.436111 56.546312 
L 673.739494 60.869438 
L 671.042878 70.917114 
L 668.346262 53.960341 
L 665.649645 49.806697 
L 662.953029 55.138402 
L 660.256413 52.015105 
L 657.559796 51.987497 
L 654.86318 53.049441 
L 652.166563 53.032017 
L 649.469947 53.702477 
L 646.773331 52.242835 
L 644.076714 52.525315 
L 641.380098 51.403009 
L 638.683481 58.53218 
L 635.986865 68.57951 
L 633.290249 72.43564 
L 630.593632 54.044688 
L 627.897016 52.891529 
L 625.2004 52.220128 
L 622.503783 51.934051 
L 619.807167 53.13965 
L 617.11055 53.149121 
L 614.413934 53.354713 
L 611.717318 54.331769 
L 609.020701 55.765034 
L 606.324085 61.221369 
L 603.627468 71.773746 
L 600.930852 60.213712 
L 598.234236 54.563972 
L 595.537619 54.385539 
L 592.841003 53.95311 
L 590.144386 54.235766 
L 587.44777 53.272996 
L 584.751154 57.407246 
L 582.054537 60.209975 
L 579.357921 53.645312 
L 576.661305 55.930399 
L 573.964688 55.881879 
L 571.268072 57.451524 
L 568.571455 59.356613 
L 565.874839 56.22604 
L 563.178223 55.62459 
L 560.481606 56.483662 
L 557.78499 54.930926 
L 555.088373 56.26153 
L 552.391757 58.368305 
L 549.695141 56.288122 
L 546.998524 53.75705 
L 544.301908 58.1939 
L 541.605291 59.195395 
L 538.908675 60.708115 
L 536.212059 58.204527 
L 533.515442 57.695107 
L 530.818826 62.526322 
L 528.12221 67.275442 
L 525.425593 79.179317 
L 522.728977 73.289619 
L 520.03236 70.481674 
L 517.335744 75.476862 
L 514.639128 79.974683 
L 511.942511 80.369529 
L 509.245895 79.455132 
L 506.549278 79.920014 
L 503.852662 79.807173 
L 501.156046 80.17751 
L 498.459429 79.23446 
L 495.762813 79.851361 
L 493.066196 80.305371 
L 490.36958 84.794751 
L 487.672964 86.89553 
L 484.976347 89.929075 
L 482.279731 93.246697 
L 479.583115 92.203044 
L 476.886498 92.733136 
L 474.189882 92.654406 
L 471.493265 91.482479 
L 468.796649 86.357038 
L 466.100033 80.837266 
L 463.403416 79.202898 
L 460.7068 77.114824 
L 458.010183 75.577727 
L 455.313567 71.972002 
L 452.616951 66.515188 
L 449.920334 72.95878 
L 447.223718 76.126912 
L 444.527102 77.946726 
L 441.830485 77.535836 
L 439.133869 78.397396 
L 436.437252 78.831286 
L 433.740636 78.281567 
L 431.04402 77.058002 
L 428.347403 77.49923 
L 425.650787 77.055746 
L 422.95417 76.960593 
L 420.257554 74.928594 
L 417.560938 72.107154 
L 414.864321 70.886886 
L 412.167705 70.194668 
L 409.471088 70.309954 
L 406.774472 74.683737 
L 404.077856 69.379051 
L 401.381239 63.424694 
L 398.684623 70.11309 
L 395.988007 76.783627 
L 393.29139 76.886956 
L 390.594774 77.529316 
L 387.898157 83.032865 
L 385.201541 85.351483 
L 382.504925 87.760514 
L 379.808308 87.326381 
L 377.111692 85.340455 
L 374.415075 85.269126 
L 371.718459 87.797224 
L 369.021843 80.543662 
L 366.325226 74.380914 
L 363.62861 73.58952 
L 360.931993 72.334169 
L 358.235377 77.105179 
L 355.538761 75.956811 
L 352.842144 77.443397 
L 350.145528 77.922257 
L 347.448912 77.499778 
L 344.752295 77.297944 
L 342.055679 79.666348 
L 339.359062 83.996374 
L 336.662446 71.599612 
L 333.96583 67.338279 
L 331.269213 72.439721 
L 328.572597 71.241288 
L 325.87598 68.574673 
L 323.179364 69.935694 
L 320.482748 75.982962 
L 317.786131 73.386698 
L 315.089515 74.081023 
L 312.392898 71.642029 
L 309.696282 70.490396 
L 306.999666 74.561882 
L 304.303049 76.024322 
L 301.606433 77.365549 
L 298.909817 76.115378 
L 296.2132 80.268427 
L 293.516584 80.42447 
L 290.819967 77.285708 
L 288.123351 71.949415 
L 285.426735 77.629496 
L 282.730118 74.701711 
L 280.033502 80.253912 
L 277.336885 81.153924 
L 274.640269 79.724523 
L 271.943653 82.555677 
L 269.247036 80.715502 
L 266.55042 87.512231 
L 263.853804 89.223791 
L 261.157187 96.989596 
L 258.460571 90.843503 
L 255.763954 96.230598 
L 253.067338 104.162286 
L 250.370722 106.821391 
L 247.674105 109.309244 
L 244.977489 127.850674 
L 242.280872 127.482027 
L 239.584256 148.952081 
L 236.88764 139.113848 
L 234.191023 151.589595 
L 231.494407 154.641061 
L 228.79779 140.252474 
L 226.101174 149.688864 
L 223.404558 165.635959 
L 220.707941 170.449218 
L 218.011325 161.979176 
L 215.314709 182.400643 
L 212.618092 151.053917 
L 209.921476 113.526489 
L 207.224859 104.84548 
L 204.528243 68.196456 
L 201.831627 42.10685 
L 199.13501 34.2721 
L 196.438394 32.023194 
L 193.741777 52.076935 
L 191.045161 55.19099 
L 188.348545 65.688871 
L 185.651928 58.675579 
L 182.955312 67.699724 
L 180.258695 67.707833 
L 177.562079 54.992837 
L 174.865463 28.038182 
L 172.168846 34.778171 
L 169.47223 35.234597 
L 166.775614 39.879919 
L 164.078997 64.231074 
L 161.382381 79.476344 
L 158.685764 89.858306 
L 155.989148 107.362391 
L 153.292532 121.468963 
L 150.595915 139.888711 
L 147.899299 185.513372 
L 145.202682 186.764509 
L 142.506066 196.24496 
L 139.80945 222.196957 
L 137.112833 211.062766 
L 134.416217 224.670732 
L 131.7196 218.514228 
L 129.022984 217.575097 
L 126.326368 235.733698 
L 123.629751 225.847658 
L 120.933135 226.742339 
L 118.236519 215.199543 
L 115.539902 200.014804 
L 112.843286 200.02439 
L 110.146669 205.266837 
L 107.450053 195.97756 
L 104.753437 200.318493 
L 102.05682 196.975492 
L 99.360204 187.005136 
L 96.663587 181.215093 
L 93.966971 188.447634 
L 91.270355 170.24264 
L 88.573738 176.01592 
L 85.877122 171.073109 
L 83.180506 175.197121 
L 80.483889 180.434617 
L 77.787273 198.037781 
z
" clip-path="url(#p31adfbd0c8)" style="fill: #1f77b4; fill-opacity: 0.2"/>
   </g>
   <g id="matplotlib.axis_1">
    <g id="xtick_1">
     <g id="line2d_1">
      <path d="M 76.425481 390.04 
L 76.425481 10.8 
" clip-path="url(#p31adfbd0c8)" style="fill: none; stroke: #b0b0b0; stroke-width: 0.8; stroke-linecap: square"/>
     </g>
     <g id="line2d_2">
      <defs>
       <path id="mf8b39bd593" d="M 0 0 
L 0 3.5 
" style="stroke: #000000; stroke-width: 0.8"/>
      </defs>
      <g>
       <use xlink:href="#mf8b39bd593" x="76.425481" y="390.04" style="stroke: #000000; stroke-width: 0.8"/>
      </g>
     </g>
     <g id="text_1">
      <!-- 0 -->
      <g transform="translate(73.244231 404.638438) scale(0.1 -0.1)">
       <defs>
        <path id="DejaVuSans-30" d="M 2034 4250 
Q 1547 4250 1301 3770 
Q 1056 3291 1056 2328 
Q 1056 1369 1301 889 
Q 1547 409 2034 409 
Q 2525 409 2770 889 
Q 3016 1369 3016 2328 
Q 3016 3291 2770 3770 
Q 2525 4250 2034 4250 
z
M 2034 4750 
Q 2819 4750 3233 4129 
Q 3647 3509 3647 2328 
Q 3647 1150 3233 529 
Q 2819 -91 2034 -91 
Q 1250 -91 836 529 
Q 422 1150 422 2328 
Q 422 3509 836 4129 
Q 1250 4750 2034 4750 
z
" transform="scale(0.015625)"/>
       </defs>
       <use xlink:href="#DejaVuSans-30"/>
      </g>
     </g>
    </g>
    <g id="xtick_2">
     <g id="line2d_3">
      <path d="M 211.256301 390.04 
L 211.256301 10.8 
" clip-path="url(#p31adfbd0c8)" style="fill: none; stroke: #b0b0b0; stroke-width: 0.8; stroke-linecap: square"/>
     </g>
     <g id="line2d_4">
      <g>
       <use xlink:href="#mf8b39bd593" x="211.256301" y="390.04" style="stroke: #000000; stroke-width: 0.8"/>
      </g>
     </g>
     <g id="text_2">
      <!-- 10000 -->
      <g transform="translate(195.350051 404.638438) scale(0.1 -0.1)">
       <defs>
        <path id="DejaVuSans-31" d="M 794 531 
L 1825 531 
L 1825 4091 
L 703 3866 
L 703 4441 
L 1819 4666 
L 2450 4666 
L 2450 531 
L 3481 531 
L 3481 0 
L 794 0 
L 794 531 
z
" transform="scale(0.015625)"/>
       </defs>
       <use xlink:href="#DejaVuSans-31"/>
       <use xlink:href="#DejaVuSans-30" transform="translate(63.623047 0)"/>
       <use xlink:href="#DejaVuSans-30" transform="translate(127.246094 0)"/>
       <use xlink:href="#DejaVuSans-30" transform="translate(190.869141 0)"/>
       <use xlink:href="#DejaVuSans-30" transform="translate(254.492188 0)"/>
      </g>
     </g>
    </g>
    <g id="xtick_3">
     <g id="line2d_5">
      <path d="M 346.08712 390.04 
L 346.08712 10.8 
" clip-path="url(#p31adfbd0c8)" style="fill: none; stroke: #b0b0b0; stroke-width: 0.8; stroke-linecap: square"/>
     </g>
     <g id="line2d_6">
      <g>
       <use xlink:href="#mf8b39bd593" x="346.08712" y="390.04" style="stroke: #000000; stroke-width: 0.8"/>
      </g>
     </g>
     <g id="text_3">
      <!-- 20000 -->
      <g transform="translate(330.18087 404.638438) scale(0.1 -0.1)">
       <defs>
        <path id="DejaVuSans-32" d="M 1228 531 
L 3431 531 
L 3431 0 
L 469 0 
L 469 531 
Q 828 903 1448 1529 
Q 2069 2156 2228 2338 
Q 2531 2678 2651 2914 
Q 2772 3150 2772 3378 
Q 2772 3750 2511 3984 
Q 2250 4219 1831 4219 
Q 1534 4219 1204 4116 
Q 875 4013 500 3803 
L 500 4441 
Q 881 4594 1212 4672 
Q 1544 4750 1819 4750 
Q 2544 4750 2975 4387 
Q 3406 4025 3406 3419 
Q 3406 3131 3298 2873 
Q 3191 2616 2906 2266 
Q 2828 2175 2409 1742 
Q 1991 1309 1228 531 
z
" transform="scale(0.015625)"/>
       </defs>
       <use xlink:href="#DejaVuSans-32"/>
       <use xlink:href="#DejaVuSans-30" transform="translate(63.623047 0)"/>
       <use xlink:href="#DejaVuSans-30" transform="translate(127.246094 0)"/>
       <use xlink:href="#DejaVuSans-30" transform="translate(190.869141 0)"/>
       <use xlink:href="#DejaVuSans-30" transform="translate(254.492188 0)"/>
      </g>
     </g>
    </g>
    <g id="xtick_4">
     <g id="line2d_7">
      <path d="M 480.91794 390.04 
L 480.91794 10.8 
" clip-path="url(#p31adfbd0c8)" style="fill: none; stroke: #b0b0b0; stroke-width: 0.8; stroke-linecap: square"/>
     </g>
     <g id="line2d_8">
      <g>
       <use xlink:href="#mf8b39bd593" x="480.91794" y="390.04" style="stroke: #000000; stroke-width: 0.8"/>
      </g>
     </g>
     <g id="text_4">
      <!-- 30000 -->
      <g transform="translate(465.01169 404.638438) scale(0.1 -0.1)">
       <defs>
        <path id="DejaVuSans-33" d="M 2597 2516 
Q 3050 2419 3304 2112 
Q 3559 1806 3559 1356 
Q 3559 666 3084 287 
Q 2609 -91 1734 -91 
Q 1441 -91 1130 -33 
Q 819 25 488 141 
L 488 750 
Q 750 597 1062 519 
Q 1375 441 1716 441 
Q 2309 441 2620 675 
Q 2931 909 2931 1356 
Q 2931 1769 2642 2001 
Q 2353 2234 1838 2234 
L 1294 2234 
L 1294 2753 
L 1863 2753 
Q 2328 2753 2575 2939 
Q 2822 3125 2822 3475 
Q 2822 3834 2567 4026 
Q 2313 4219 1838 4219 
Q 1578 4219 1281 4162 
Q 984 4106 628 3988 
L 628 4550 
Q 988 4650 1302 4700 
Q 1616 4750 1894 4750 
Q 2613 4750 3031 4423 
Q 3450 4097 3450 3541 
Q 3450 3153 3228 2886 
Q 3006 2619 2597 2516 
z
" transform="scale(0.015625)"/>
       </defs>
       <use xlink:href="#DejaVuSans-33"/>
       <use xlink:href="#DejaVuSans-30" transform="translate(63.623047 0)"/>
       <use xlink:href="#DejaVuSans-30" transform="translate(127.246094 0)"/>
       <use xlink:href="#DejaVuSans-30" transform="translate(190.869141 0)"/>
       <use xlink:href="#DejaVuSans-30" transform="translate(254.492188 0)"/>
      </g>
     </g>
    </g>
    <g id="xtick_5">
     <g id="line2d_9">
      <path d="M 615.748759 390.04 
L 615.748759 10.8 
" clip-path="url(#p31adfbd0c8)" style="fill: none; stroke: #b0b0b0; stroke-width: 0.8; stroke-linecap: square"/>
     </g>
     <g id="line2d_10">
      <g>
       <use xlink:href="#mf8b39bd593" x="615.748759" y="390.04" style="stroke: #000000; stroke-width: 0.8"/>
      </g>
     </g>
     <g id="text_5">
      <!-- 40000 -->
      <g transform="translate(599.842509 404.638438) scale(0.1 -0.1)">
       <defs>
        <path id="DejaVuSans-34" d="M 2419 4116 
L 825 1625 
L 2419 1625 
L 2419 4116 
z
M 2253 4666 
L 3047 4666 
L 3047 1625 
L 3713 1625 
L 3713 1100 
L 3047 1100 
L 3047 0 
L 2419 0 
L 2419 1100 
L 313 1100 
L 313 1709 
L 2253 4666 
z
" transform="scale(0.015625)"/>
       </defs>
       <use xlink:href="#DejaVuSans-34"/>
       <use xlink:href="#DejaVuSans-30" transform="translate(63.623047 0)"/>
       <use xlink:href="#DejaVuSans-30" transform="translate(127.246094 0)"/>
       <use xlink:href="#DejaVuSans-30" transform="translate(190.869141 0)"/>
       <use xlink:href="#DejaVuSans-30" transform="translate(254.492188 0)"/>
      </g>
     </g>
    </g>
    <g id="text_6">
     <!-- Episodes -->
     <g transform="translate(356.217813 418.316562) scale(0.1 -0.1)">
      <defs>
       <path id="DejaVuSans-45" d="M 628 4666 
L 3578 4666 
L 3578 4134 
L 1259 4134 
L 1259 2753 
L 3481 2753 
L 3481 2222 
L 1259 2222 
L 1259 531 
L 3634 531 
L 3634 0 
L 628 0 
L 628 4666 
z
" transform="scale(0.015625)"/>
       <path id="DejaVuSans-70" d="M 1159 525 
L 1159 -1331 
L 581 -1331 
L 581 3500 
L 1159 3500 
L 1159 2969 
Q 1341 3281 1617 3432 
Q 1894 3584 2278 3584 
Q 2916 3584 3314 3078 
Q 3713 2572 3713 1747 
Q 3713 922 3314 415 
Q 2916 -91 2278 -91 
Q 1894 -91 1617 61 
Q 1341 213 1159 525 
z
M 3116 1747 
Q 3116 2381 2855 2742 
Q 2594 3103 2138 3103 
Q 1681 3103 1420 2742 
Q 1159 2381 1159 1747 
Q 1159 1113 1420 752 
Q 1681 391 2138 391 
Q 2594 391 2855 752 
Q 3116 1113 3116 1747 
z
" transform="scale(0.015625)"/>
       <path id="DejaVuSans-69" d="M 603 3500 
L 1178 3500 
L 1178 0 
L 603 0 
L 603 3500 
z
M 603 4863 
L 1178 4863 
L 1178 4134 
L 603 4134 
L 603 4863 
z
" transform="scale(0.015625)"/>
       <path id="DejaVuSans-73" d="M 2834 3397 
L 2834 2853 
Q 2591 2978 2328 3040 
Q 2066 3103 1784 3103 
Q 1356 3103 1142 2972 
Q 928 2841 928 2578 
Q 928 2378 1081 2264 
Q 1234 2150 1697 2047 
L 1894 2003 
Q 2506 1872 2764 1633 
Q 3022 1394 3022 966 
Q 3022 478 2636 193 
Q 2250 -91 1575 -91 
Q 1294 -91 989 -36 
Q 684 19 347 128 
L 347 722 
Q 666 556 975 473 
Q 1284 391 1588 391 
Q 1994 391 2212 530 
Q 2431 669 2431 922 
Q 2431 1156 2273 1281 
Q 2116 1406 1581 1522 
L 1381 1569 
Q 847 1681 609 1914 
Q 372 2147 372 2553 
Q 372 3047 722 3315 
Q 1072 3584 1716 3584 
Q 2034 3584 2315 3537 
Q 2597 3491 2834 3397 
z
" transform="scale(0.015625)"/>
       <path id="DejaVuSans-6f" d="M 1959 3097 
Q 1497 3097 1228 2736 
Q 959 2375 959 1747 
Q 959 1119 1226 758 
Q 1494 397 1959 397 
Q 2419 397 2687 759 
Q 2956 1122 2956 1747 
Q 2956 2369 2687 2733 
Q 2419 3097 1959 3097 
z
M 1959 3584 
Q 2709 3584 3137 3096 
Q 3566 2609 3566 1747 
Q 3566 888 3137 398 
Q 2709 -91 1959 -91 
Q 1206 -91 779 398 
Q 353 888 353 1747 
Q 353 2609 779 3096 
Q 1206 3584 1959 3584 
z
" transform="scale(0.015625)"/>
       <path id="DejaVuSans-64" d="M 2906 2969 
L 2906 4863 
L 3481 4863 
L 3481 0 
L 2906 0 
L 2906 525 
Q 2725 213 2448 61 
Q 2172 -91 1784 -91 
Q 1150 -91 751 415 
Q 353 922 353 1747 
Q 353 2572 751 3078 
Q 1150 3584 1784 3584 
Q 2172 3584 2448 3432 
Q 2725 3281 2906 2969 
z
M 947 1747 
Q 947 1113 1208 752 
Q 1469 391 1925 391 
Q 2381 391 2643 752 
Q 2906 1113 2906 1747 
Q 2906 2381 2643 2742 
Q 2381 3103 1925 3103 
Q 1469 3103 1208 2742 
Q 947 2381 947 1747 
z
" transform="scale(0.015625)"/>
       <path id="DejaVuSans-65" d="M 3597 1894 
L 3597 1613 
L 953 1613 
Q 991 1019 1311 708 
Q 1631 397 2203 397 
Q 2534 397 2845 478 
Q 3156 559 3463 722 
L 3463 178 
Q 3153 47 2828 -22 
Q 2503 -91 2169 -91 
Q 1331 -91 842 396 
Q 353 884 353 1716 
Q 353 2575 817 3079 
Q 1281 3584 2069 3584 
Q 2775 3584 3186 3129 
Q 3597 2675 3597 1894 
z
M 3022 2063 
Q 3016 2534 2758 2815 
Q 2500 3097 2075 3097 
Q 1594 3097 1305 2825 
Q 1016 2553 972 2059 
L 3022 2063 
z
" transform="scale(0.015625)"/>
      </defs>
      <use xlink:href="#DejaVuSans-45"/>
      <use xlink:href="#DejaVuSans-70" transform="translate(63.183594 0)"/>
      <use xlink:href="#DejaVuSans-69" transform="translate(126.660156 0)"/>
      <use xlink:href="#DejaVuSans-73" transform="translate(154.443359 0)"/>
      <use xlink:href="#DejaVuSans-6f" transform="translate(206.542969 0)"/>
      <use xlink:href="#DejaVuSans-64" transform="translate(267.724609 0)"/>
      <use xlink:href="#DejaVuSans-65" transform="translate(331.201172 0)"/>
      <use xlink:href="#DejaVuSans-73" transform="translate(392.724609 0)"/>
     </g>
    </g>
   </g>
   <g id="matplotlib.axis_2">
    <g id="ytick_1">
     <g id="line2d_11">
      <path d="M 47.72 335.25524 
L 709.2 335.25524 
" clip-path="url(#p31adfbd0c8)" style="fill: none; stroke: #b0b0b0; stroke-width: 0.8; stroke-linecap: square"/>
     </g>
     <g id="line2d_12">
      <defs>
       <path id="m9a5b0e3a9d" d="M 0 0 
L -3.5 0 
" style="stroke: #000000; stroke-width: 0.8"/>
      </defs>
      <g>
       <use xlink:href="#m9a5b0e3a9d" x="47.72" y="335.25524" style="stroke: #000000; stroke-width: 0.8"/>
      </g>
     </g>
     <g id="text_7">
      <!-- 2.6 -->
      <g transform="translate(24.816875 339.054458) scale(0.1 -0.1)">
       <defs>
        <path id="DejaVuSans-2e" d="M 684 794 
L 1344 794 
L 1344 0 
L 684 0 
L 684 794 
z
" transform="scale(0.015625)"/>
        <path id="DejaVuSans-36" d="M 2113 2584 
Q 1688 2584 1439 2293 
Q 1191 2003 1191 1497 
Q 1191 994 1439 701 
Q 1688 409 2113 409 
Q 2538 409 2786 701 
Q 3034 994 3034 1497 
Q 3034 2003 2786 2293 
Q 2538 2584 2113 2584 
z
M 3366 4563 
L 3366 3988 
Q 3128 4100 2886 4159 
Q 2644 4219 2406 4219 
Q 1781 4219 1451 3797 
Q 1122 3375 1075 2522 
Q 1259 2794 1537 2939 
Q 1816 3084 2150 3084 
Q 2853 3084 3261 2657 
Q 3669 2231 3669 1497 
Q 3669 778 3244 343 
Q 2819 -91 2113 -91 
Q 1303 -91 875 529 
Q 447 1150 447 2328 
Q 447 3434 972 4092 
Q 1497 4750 2381 4750 
Q 2619 4750 2861 4703 
Q 3103 4656 3366 4563 
z
" transform="scale(0.015625)"/>
       </defs>
       <use xlink:href="#DejaVuSans-32"/>
       <use xlink:href="#DejaVuSans-2e" transform="translate(63.623047 0)"/>
       <use xlink:href="#DejaVuSans-36" transform="translate(95.410156 0)"/>
      </g>
     </g>
    </g>
    <g id="ytick_2">
     <g id="line2d_13">
      <path d="M 47.72 269.589861 
L 709.2 269.589861 
" clip-path="url(#p31adfbd0c8)" style="fill: none; stroke: #b0b0b0; stroke-width: 0.8; stroke-linecap: square"/>
     </g>
     <g id="line2d_14">
      <g>
       <use xlink:href="#m9a5b0e3a9d" x="47.72" y="269.589861" style="stroke: #000000; stroke-width: 0.8"/>
      </g>
     </g>
     <g id="text_8">
      <!-- 2.8 -->
      <g transform="translate(24.816875 273.38908) scale(0.1 -0.1)">
       <defs>
        <path id="DejaVuSans-38" d="M 2034 2216 
Q 1584 2216 1326 1975 
Q 1069 1734 1069 1313 
Q 1069 891 1326 650 
Q 1584 409 2034 409 
Q 2484 409 2743 651 
Q 3003 894 3003 1313 
Q 3003 1734 2745 1975 
Q 2488 2216 2034 2216 
z
M 1403 2484 
Q 997 2584 770 2862 
Q 544 3141 544 3541 
Q 544 4100 942 4425 
Q 1341 4750 2034 4750 
Q 2731 4750 3128 4425 
Q 3525 4100 3525 3541 
Q 3525 3141 3298 2862 
Q 3072 2584 2669 2484 
Q 3125 2378 3379 2068 
Q 3634 1759 3634 1313 
Q 3634 634 3220 271 
Q 2806 -91 2034 -91 
Q 1263 -91 848 271 
Q 434 634 434 1313 
Q 434 1759 690 2068 
Q 947 2378 1403 2484 
z
M 1172 3481 
Q 1172 3119 1398 2916 
Q 1625 2713 2034 2713 
Q 2441 2713 2670 2916 
Q 2900 3119 2900 3481 
Q 2900 3844 2670 4047 
Q 2441 4250 2034 4250 
Q 1625 4250 1398 4047 
Q 1172 3844 1172 3481 
z
" transform="scale(0.015625)"/>
       </defs>
       <use xlink:href="#DejaVuSans-32"/>
       <use xlink:href="#DejaVuSans-2e" transform="translate(63.623047 0)"/>
       <use xlink:href="#DejaVuSans-38" transform="translate(95.410156 0)"/>
      </g>
     </g>
    </g>
    <g id="ytick_3">
     <g id="line2d_15">
      <path d="M 47.72 203.924482 
L 709.2 203.924482 
" clip-path="url(#p31adfbd0c8)" style="fill: none; stroke: #b0b0b0; stroke-width: 0.8; stroke-linecap: square"/>
     </g>
     <g id="line2d_16">
      <g>
       <use xlink:href="#m9a5b0e3a9d" x="47.72" y="203.924482" style="stroke: #000000; stroke-width: 0.8"/>
      </g>
     </g>
     <g id="text_9">
      <!-- 3.0 -->
      <g transform="translate(24.816875 207.723701) scale(0.1 -0.1)">
       <use xlink:href="#DejaVuSans-33"/>
       <use xlink:href="#DejaVuSans-2e" transform="translate(63.623047 0)"/>
       <use xlink:href="#DejaVuSans-30" transform="translate(95.410156 0)"/>
      </g>
     </g>
    </g>
    <g id="ytick_4">
     <g id="line2d_17">
      <path d="M 47.72 138.259104 
L 709.2 138.259104 
" clip-path="url(#p31adfbd0c8)" style="fill: none; stroke: #b0b0b0; stroke-width: 0.8; stroke-linecap: square"/>
     </g>
     <g id="line2d_18">
      <g>
       <use xlink:href="#m9a5b0e3a9d" x="47.72" y="138.259104" style="stroke: #000000; stroke-width: 0.8"/>
      </g>
     </g>
     <g id="text_10">
      <!-- 3.2 -->
      <g transform="translate(24.816875 142.058323) scale(0.1 -0.1)">
       <use xlink:href="#DejaVuSans-33"/>
       <use xlink:href="#DejaVuSans-2e" transform="translate(63.623047 0)"/>
       <use xlink:href="#DejaVuSans-32" transform="translate(95.410156 0)"/>
      </g>
     </g>
    </g>
    <g id="ytick_5">
     <g id="line2d_19">
      <path d="M 47.72 72.593725 
L 709.2 72.593725 
" clip-path="url(#p31adfbd0c8)" style="fill: none; stroke: #b0b0b0; stroke-width: 0.8; stroke-linecap: square"/>
     </g>
     <g id="line2d_20">
      <g>
       <use xlink:href="#m9a5b0e3a9d" x="47.72" y="72.593725" style="stroke: #000000; stroke-width: 0.8"/>
      </g>
     </g>
     <g id="text_11">
      <!-- 3.4 -->
      <g transform="translate(24.816875 76.392944) scale(0.1 -0.1)">
       <use xlink:href="#DejaVuSans-33"/>
       <use xlink:href="#DejaVuSans-2e" transform="translate(63.623047 0)"/>
       <use xlink:href="#DejaVuSans-34" transform="translate(95.410156 0)"/>
      </g>
     </g>
    </g>
    <g id="text_12">
     <!-- Reward -->
     <g transform="translate(18.737188 219.041094) rotate(-90) scale(0.1 -0.1)">
      <defs>
       <path id="DejaVuSans-52" d="M 2841 2188 
Q 3044 2119 3236 1894 
Q 3428 1669 3622 1275 
L 4263 0 
L 3584 0 
L 2988 1197 
Q 2756 1666 2539 1819 
Q 2322 1972 1947 1972 
L 1259 1972 
L 1259 0 
L 628 0 
L 628 4666 
L 2053 4666 
Q 2853 4666 3247 4331 
Q 3641 3997 3641 3322 
Q 3641 2881 3436 2590 
Q 3231 2300 2841 2188 
z
M 1259 4147 
L 1259 2491 
L 2053 2491 
Q 2509 2491 2742 2702 
Q 2975 2913 2975 3322 
Q 2975 3731 2742 3939 
Q 2509 4147 2053 4147 
L 1259 4147 
z
" transform="scale(0.015625)"/>
       <path id="DejaVuSans-77" d="M 269 3500 
L 844 3500 
L 1563 769 
L 2278 3500 
L 2956 3500 
L 3675 769 
L 4391 3500 
L 4966 3500 
L 4050 0 
L 3372 0 
L 2619 2869 
L 1863 0 
L 1184 0 
L 269 3500 
z
" transform="scale(0.015625)"/>
       <path id="DejaVuSans-61" d="M 2194 1759 
Q 1497 1759 1228 1600 
Q 959 1441 959 1056 
Q 959 750 1161 570 
Q 1363 391 1709 391 
Q 2188 391 2477 730 
Q 2766 1069 2766 1631 
L 2766 1759 
L 2194 1759 
z
M 3341 1997 
L 3341 0 
L 2766 0 
L 2766 531 
Q 2569 213 2275 61 
Q 1981 -91 1556 -91 
Q 1019 -91 701 211 
Q 384 513 384 1019 
Q 384 1609 779 1909 
Q 1175 2209 1959 2209 
L 2766 2209 
L 2766 2266 
Q 2766 2663 2505 2880 
Q 2244 3097 1772 3097 
Q 1472 3097 1187 3025 
Q 903 2953 641 2809 
L 641 3341 
Q 956 3463 1253 3523 
Q 1550 3584 1831 3584 
Q 2591 3584 2966 3190 
Q 3341 2797 3341 1997 
z
" transform="scale(0.015625)"/>
       <path id="DejaVuSans-72" d="M 2631 2963 
Q 2534 3019 2420 3045 
Q 2306 3072 2169 3072 
Q 1681 3072 1420 2755 
Q 1159 2438 1159 1844 
L 1159 0 
L 581 0 
L 581 3500 
L 1159 3500 
L 1159 2956 
Q 1341 3275 1631 3429 
Q 1922 3584 2338 3584 
Q 2397 3584 2469 3576 
Q 2541 3569 2628 3553 
L 2631 2963 
z
" transform="scale(0.015625)"/>
      </defs>
      <use xlink:href="#DejaVuSans-52"/>
      <use xlink:href="#DejaVuSans-65" transform="translate(64.982422 0)"/>
      <use xlink:href="#DejaVuSans-77" transform="translate(126.505859 0)"/>
      <use xlink:href="#DejaVuSans-61" transform="translate(208.292969 0)"/>
      <use xlink:href="#DejaVuSans-72" transform="translate(269.572266 0)"/>
      <use xlink:href="#DejaVuSans-64" transform="translate(308.935547 0)"/>
     </g>
    </g>
   </g>
   <g id="line2d_21">
    <path d="M 77.787273 271.980613 
L 80.483889 261.908628 
L 83.180506 258.22027 
L 85.877122 252.332681 
L 88.573738 258.20507 
L 91.270355 257.566909 
L 93.966971 264.669765 
L 96.663587 261.896466 
L 99.360204 270.59358 
L 104.753437 279.85919 
L 107.450053 279.032799 
L 110.146669 281.820537 
L 112.843286 279.45157 
L 115.539902 280.806424 
L 118.236519 289.78677 
L 120.933135 299.411864 
L 123.629751 298.172532 
L 126.326368 298.332894 
L 129.022984 293.571901 
L 131.7196 292.187152 
L 134.416217 298.063594 
L 137.112833 291.932292 
L 139.80945 295.491953 
L 142.506066 280.311649 
L 145.202682 276.362858 
L 147.899299 275.543564 
L 150.595915 245.515587 
L 153.292532 234.352979 
L 155.989148 230.535925 
L 158.685764 213.539687 
L 161.382381 210.117334 
L 164.078997 202.097139 
L 166.775614 179.92874 
L 169.47223 181.226088 
L 172.168846 182.155588 
L 174.865463 176.334626 
L 177.562079 194.424275 
L 180.258695 204.331843 
L 182.955312 199.564519 
L 185.651928 193.001784 
L 188.348545 196.845693 
L 191.045161 187.478498 
L 193.741777 183.0737 
L 196.438394 167.895929 
L 199.13501 172.187232 
L 201.831627 183.506403 
L 204.528243 201.367537 
L 207.224859 226.402966 
L 209.921476 230.805485 
L 212.618092 256.372673 
L 215.314709 272.768242 
L 218.011325 256.303256 
L 220.707941 262.433543 
L 223.404558 259.914092 
L 226.101174 251.256497 
L 228.79779 237.549612 
L 231.494407 250.707259 
L 234.191023 246.059509 
L 236.88764 234.297755 
L 239.584256 245.503933 
L 242.280872 230.836133 
L 244.977489 229.929688 
L 247.674105 214.325295 
L 250.370722 210.041846 
L 253.067338 204.963675 
L 255.763954 192.766181 
L 258.460571 183.169717 
L 261.157187 181.556204 
L 263.853804 173.316112 
L 266.55042 168.676215 
L 269.247036 161.204498 
L 271.943653 162.216586 
L 274.640269 156.181809 
L 277.336885 163.293529 
L 280.033502 157.757067 
L 282.730118 138.477239 
L 285.426735 140.453788 
L 288.123351 137.867961 
L 290.819967 140.332187 
L 293.516584 147.161942 
L 296.2132 142.054635 
L 298.909817 131.70854 
L 301.606433 129.225315 
L 304.303049 124.932998 
L 306.999666 126.088729 
L 309.696282 134.669559 
L 312.392898 126.287853 
L 315.089515 120.480826 
L 317.786131 121.329257 
L 320.482748 117.020728 
L 323.179364 133.688378 
L 325.87598 142.623884 
L 328.572597 131.895248 
L 331.269213 125.344673 
L 333.96583 142.689498 
L 336.662446 140.426426 
L 339.359062 160.660077 
L 342.055679 141.364795 
L 344.752295 131.136501 
L 347.448912 127.810925 
L 352.842144 122.414306 
L 355.538761 122.307144 
L 358.235377 123.21055 
L 360.931993 129.367942 
L 363.62861 125.989926 
L 366.325226 128.392589 
L 369.021843 146.458168 
L 371.718459 172.164185 
L 374.415075 160.449047 
L 377.111692 164.932127 
L 379.808308 162.706041 
L 382.504925 171.569599 
L 385.201541 161.760328 
L 387.898157 141.285501 
L 390.594774 119.875094 
L 393.29139 123.109974 
L 395.988007 119.734997 
L 398.684623 135.729527 
L 401.381239 153.309957 
L 404.077856 137.720516 
L 406.774472 129.061151 
L 409.471088 140.285826 
L 412.167705 141.991555 
L 414.864321 138.615819 
L 417.560938 129.932131 
L 420.257554 123.266285 
L 425.650787 116.186231 
L 428.347403 115.609379 
L 431.04402 120.538082 
L 433.740636 119.261255 
L 436.437252 113.366826 
L 439.133869 113.968252 
L 441.830485 119.269109 
L 444.527102 116.898873 
L 447.223718 124.010341 
L 449.920334 141.116017 
L 452.616951 154.774262 
L 458.010183 124.188945 
L 460.7068 116.949034 
L 463.403416 123.410435 
L 466.100033 123.591318 
L 468.796649 125.213444 
L 471.493265 130.187747 
L 474.189882 125.622838 
L 476.886498 125.383939 
L 479.583115 126.705354 
L 482.279731 131.910196 
L 484.976347 126.886745 
L 487.672964 128.089598 
L 490.36958 129.446481 
L 493.066196 120.058259 
L 495.762813 113.86945 
L 498.459429 112.119893 
L 501.156046 115.578219 
L 503.852662 113.084353 
L 506.549278 117.684476 
L 509.245895 115.927319 
L 511.942511 119.931083 
L 514.639128 119.831267 
L 522.728977 156.704954 
L 525.425593 178.944033 
L 528.12221 143.749469 
L 530.818826 125.279056 
L 533.515442 115.30486 
L 536.212059 118.198747 
L 538.908675 122.048734 
L 541.605291 118.700357 
L 544.301908 116.513538 
L 546.998524 107.142035 
L 549.695141 108.96582 
L 552.391757 115.105736 
L 555.088373 110.674843 
L 557.78499 108.208338 
L 560.481606 113.475248 
L 563.178223 108.590879 
L 565.874839 110.85446 
L 568.571455 119.030711 
L 571.268072 114.744728 
L 573.964688 109.549766 
L 576.661305 108.500437 
L 579.357921 102.801331 
L 582.054537 121.644153 
L 584.751154 114.516976 
L 587.44777 100.263891 
L 590.144386 103.319155 
L 592.841003 102.811211 
L 595.537619 105.626817 
L 598.234236 104.925322 
L 600.930852 121.52635 
L 603.627468 157.025934 
L 606.324085 124.903354 
L 609.020701 109.549259 
L 611.717318 104.018116 
L 614.413934 102.399789 
L 617.11055 105.625296 
L 619.807167 101.920979 
L 622.503783 99.808895 
L 625.2004 101.518424 
L 627.897016 102.224479 
L 630.593632 107.240837 
L 633.290249 158.513791 
L 635.986865 145.120031 
L 638.683481 117.726017 
L 641.380098 107.771581 
L 644.076714 110.58288 
L 646.773331 100.456935 
L 649.469947 104.192666 
L 652.166563 103.292301 
L 654.86318 101.820657 
L 657.559796 99.012398 
L 660.256413 99.337685 
L 662.953029 106.931511 
L 665.649645 106.943163 
L 668.346262 109.015727 
L 671.042878 153.695037 
L 673.739494 125.054344 
L 676.436111 110.595548 
L 679.132727 105.94501 
L 679.132727 105.94501 
" clip-path="url(#p31adfbd0c8)" style="fill: none; stroke: #1f77b4; stroke-width: 1.5; stroke-linecap: square"/>
   </g>
   <g id="patch_3">
    <path d="M 47.72 390.04 
L 47.72 10.8 
" style="fill: none; stroke: #000000; stroke-width: 0.8; stroke-linejoin: miter; stroke-linecap: square"/>
   </g>
   <g id="patch_4">
    <path d="M 709.2 390.04 
L 709.2 10.8 
" style="fill: none; stroke: #000000; stroke-width: 0.8; stroke-linejoin: miter; stroke-linecap: square"/>
   </g>
   <g id="patch_5">
    <path d="M 47.72 390.04 
L 709.2 390.04 
" style="fill: none; stroke: #000000; stroke-width: 0.8; stroke-linejoin: miter; stroke-linecap: square"/>
   </g>
   <g id="patch_6">
    <path d="M 47.72 10.8 
L 709.2 10.8 
" style="fill: none; stroke: #000000; stroke-width: 0.8; stroke-linejoin: miter; stroke-linecap: square"/>
   </g>
  </g>
 </g>
 <defs>
  <clipPath id="p31adfbd0c8">
   <rect x="47.72" y="10.8" width="661.48" height="379.24"/>
  </clipPath>
 </defs>
</svg>
