<?xml version="1.0" encoding="utf-8" standalone="no"?>
<!DOCTYPE svg PUBLIC "-//W3C//DTD SVG 1.1//EN"
  "http://www.w3.org/Graphics/SVG/1.1/DTD/svg11.dtd">
<svg xmlns:xlink="http://www.w3.org/1999/xlink" width="720pt" height="432pt" viewBox="0 0 720 432" xmlns="http://www.w3.org/2000/svg" version="1.1">
 <metadata>
  <rdf:RDF xmlns:dc="http://purl.org/dc/elements/1.1/" xmlns:cc="http://creativecommons.org/ns#" xmlns:rdf="http://www.w3.org/1999/02/22-rdf-syntax-ns#">
   <cc:Work>
    <dc:type rdf:resource="http://purl.org/dc/dcmitype/StillImage"/>
    <dc:date>2025-04-22T23:07:32.154826</dc:date>
    <dc:format>image/svg+xml</dc:format>
    <dc:creator>
     <cc:Agent>
      <dc:title>Matplotlib v3.10.0, https://matplotlib.org/</dc:title>
     </cc:Agent>
    </dc:creator>
   </cc:Work>
  </rdf:RDF>
 </metadata>
 <defs>
  <style type="text/css">*{stroke-linejoin: round; stroke-linecap: butt}</style>
 </defs>
 <g id="figure_1">
  <g id="patch_1">
   <path d="M 0 432 
L 720 432 
L 720 0 
L 0 0 
z
" style="fill: #ffffff"/>
  </g>
  <g id="axes_1">
   <g id="patch_2">
    <path d="M 44.66 390.04 
L 709.2 390.04 
L 709.2 10.8 
L 44.66 10.8 
z
" style="fill: #ffffff"/>
   </g>
   <g id="FillBetweenPolyCollection_1">
    <path d="M 74.866364 154.395129 
L 74.866364 327.409907 
L 77.575455 322.602711 
L 80.284545 313.141934 
L 82.993636 318.437127 
L 85.702727 313.154772 
L 88.411818 312.584003 
L 91.120909 313.255549 
L 93.83 300.962085 
L 96.539091 311.33543 
L 99.248182 319.897739 
L 101.957273 321.406027 
L 104.666364 335.513678 
L 107.375455 341.371938 
L 110.084545 341.849199 
L 112.793636 337.28283 
L 115.502727 341.865176 
L 118.211818 354.175898 
L 120.920909 362.466423 
L 123.63 356.503887 
L 126.339091 368.584717 
L 129.048182 370.598022 
L 131.757273 370.51691 
L 134.466364 372.801818 
L 137.175455 367.898155 
L 139.884545 368.081559 
L 142.593636 365.212677 
L 145.302727 366.561256 
L 148.011818 350.23003 
L 150.720909 350.920775 
L 153.43 342.278634 
L 156.139091 338.812405 
L 158.848182 332.992379 
L 161.557273 327.727124 
L 164.266364 321.976561 
L 166.975455 320.375635 
L 169.684545 322.238486 
L 172.393636 323.376391 
L 175.102727 324.468555 
L 177.811818 329.201348 
L 180.520909 330.473117 
L 183.23 333.134437 
L 185.939091 336.621434 
L 188.648182 339.350085 
L 191.357273 350.957646 
L 194.066364 345.181367 
L 196.775455 348.527154 
L 199.484545 353.678499 
L 202.193636 364.138449 
L 204.902727 360.898471 
L 207.611818 354.805573 
L 210.320909 358.43684 
L 213.03 352.168265 
L 215.739091 334.557385 
L 218.448182 321.505189 
L 221.157273 321.277078 
L 223.866364 306.675063 
L 226.575455 289.59873 
L 229.284545 296.292955 
L 231.993636 292.913141 
L 234.702727 294.507347 
L 237.411818 298.065302 
L 240.120909 298.362833 
L 242.83 300.003093 
L 245.539091 295.617487 
L 248.248182 294.003221 
L 250.957273 291.213771 
L 253.666364 283.093168 
L 256.375455 287.927722 
L 259.084545 283.92936 
L 261.793636 276.762004 
L 264.502727 275.080332 
L 267.211818 269.859233 
L 269.920909 275.024111 
L 272.63 275.104377 
L 275.339091 276.057714 
L 278.048182 271.254735 
L 280.757273 259.194376 
L 283.466364 268.517273 
L 286.175455 280.137251 
L 288.884545 278.794412 
L 291.593636 269.7797 
L 294.302727 274.651988 
L 297.011818 262.653864 
L 299.720909 256.496103 
L 302.43 246.480068 
L 305.139091 248.607323 
L 307.848182 255.392178 
L 310.557273 252.000293 
L 313.266364 240.149827 
L 315.975455 237.386706 
L 318.684545 230.439287 
L 321.393636 246.275483 
L 324.102727 252.816005 
L 326.811818 240.436873 
L 329.520909 241.354757 
L 332.23 268.324825 
L 334.939091 263.241034 
L 337.648182 250.788923 
L 340.357273 245.381931 
L 343.066364 251.923596 
L 345.775455 264.514072 
L 348.484545 264.1895 
L 351.193636 256.850357 
L 353.902727 258.688743 
L 356.611818 262.640781 
L 359.320909 262.566159 
L 362.03 262.822774 
L 364.739091 265.424112 
L 367.448182 278.684742 
L 370.157273 299.022689 
L 372.866364 292.205068 
L 375.575455 292.801827 
L 378.284545 287.229725 
L 380.993636 283.789699 
L 383.702727 271.325984 
L 386.411818 248.263761 
L 389.120909 221.174372 
L 391.83 221.855927 
L 394.539091 222.804424 
L 397.248182 234.78981 
L 399.957273 249.069324 
L 402.666364 254.59158 
L 405.375455 257.655897 
L 408.084545 257.444809 
L 410.793636 259.161924 
L 413.502727 253.057166 
L 416.211818 242.887784 
L 418.920909 232.824911 
L 421.63 224.905944 
L 424.339091 210.252727 
L 427.048182 205.310912 
L 429.757273 209.496138 
L 432.466364 197.334599 
L 435.175455 192.750519 
L 437.884545 192.102303 
L 440.593636 199.501053 
L 443.302727 187.498811 
L 446.011818 189.534028 
L 448.720909 219.775957 
L 451.43 250.126021 
L 454.139091 238.408878 
L 456.848182 234.921713 
L 459.557273 230.506481 
L 462.266364 225.38814 
L 464.975455 220.856079 
L 467.684545 234.326231 
L 470.393636 242.888256 
L 473.102727 246.706004 
L 475.811818 255.112731 
L 478.520909 252.717962 
L 481.23 247.082718 
L 483.939091 227.633203 
L 486.648182 201.004949 
L 489.357273 187.148352 
L 492.066364 180.741685 
L 494.775455 175.762881 
L 497.484545 178.937808 
L 500.193636 178.259572 
L 502.902727 173.9716 
L 505.611818 179.25244 
L 508.320909 181.495301 
L 511.03 193.283725 
L 513.739091 191.712782 
L 516.448182 199.478991 
L 519.157273 212.720419 
L 521.866364 210.254548 
L 524.575455 220.773322 
L 527.284545 206.246848 
L 529.993636 201.428294 
L 532.702727 205.331922 
L 535.411818 226.452439 
L 538.120909 209.716144 
L 540.83 180.82781 
L 543.539091 164.333206 
L 546.248182 145.636101 
L 548.957273 150.32117 
L 551.666364 180.539156 
L 554.375455 187.149367 
L 557.084545 197.075464 
L 559.793636 180.568225 
L 562.502727 199.560799 
L 565.211818 237.150232 
L 567.920909 255.008749 
L 570.63 277.820209 
L 573.339091 275.210391 
L 576.048182 272.710839 
L 578.757273 247.671451 
L 581.466364 224.590281 
L 584.175455 223.961955 
L 586.884545 211.942121 
L 589.593636 184.221511 
L 592.302727 168.932926 
L 595.011818 158.621838 
L 597.720909 152.623648 
L 600.43 154.888755 
L 603.139091 188.644049 
L 605.848182 162.473187 
L 608.557273 144.137532 
L 611.266364 135.419963 
L 613.975455 132.638629 
L 616.684545 142.7726 
L 619.393636 140.504226 
L 622.102727 186.126539 
L 624.811818 178.525759 
L 627.520909 166.041533 
L 630.23 173.621246 
L 632.939091 231.463981 
L 635.648182 231.985266 
L 638.357273 235.526653 
L 641.066364 233.397057 
L 643.775455 234.491165 
L 646.484545 202.014301 
L 649.193636 200.021832 
L 651.902727 204.456291 
L 654.611818 204.358256 
L 657.320909 212.004452 
L 660.03 224.292576 
L 662.739091 230.018199 
L 665.448182 246.030715 
L 668.157273 251.652689 
L 670.866364 309.237905 
L 673.575455 248.677691 
L 676.284545 230.081726 
L 678.993636 211.615027 
L 678.993636 38.002356 
L 678.993636 38.002356 
L 676.284545 47.274267 
L 673.575455 63.175557 
L 670.866364 78.931722 
L 668.157273 49.78098 
L 665.448182 62.724821 
L 662.739091 54.65966 
L 660.03 34.336334 
L 657.320909 28.038182 
L 654.611818 37.374039 
L 651.902727 50.934102 
L 649.193636 46.920253 
L 646.484545 67.738215 
L 643.775455 88.767298 
L 641.066364 103.941919 
L 638.357273 111.246266 
L 635.648182 98.595064 
L 632.939091 82.078929 
L 630.23 75.573722 
L 627.520909 64.285548 
L 624.811818 65.600224 
L 622.102727 69.686269 
L 619.393636 74.897511 
L 616.684545 63.195193 
L 613.975455 45.731359 
L 611.266364 40.556339 
L 608.557273 53.241149 
L 605.848182 66.164232 
L 603.139091 77.729144 
L 600.43 69.946925 
L 597.720909 72.916059 
L 595.011818 69.17075 
L 592.302727 65.195892 
L 589.593636 69.197611 
L 586.884545 64.00582 
L 584.175455 57.054971 
L 581.466364 58.679527 
L 578.757273 53.198998 
L 576.048182 69.133901 
L 573.339091 64.099857 
L 570.63 73.59928 
L 567.920909 83.315863 
L 565.211818 72.309329 
L 562.502727 68.220445 
L 559.793636 57.221527 
L 557.084545 45.783272 
L 554.375455 42.614493 
L 551.666364 43.733304 
L 548.957273 39.735644 
L 546.248182 32.170668 
L 543.539091 50.786921 
L 540.83 56.539527 
L 538.120909 57.924295 
L 535.411818 80.75424 
L 532.702727 84.978142 
L 529.993636 99.723765 
L 527.284545 105.183985 
L 524.575455 119.522561 
L 521.866364 119.903367 
L 519.157273 114.621393 
L 516.448182 119.555319 
L 513.739091 112.959405 
L 511.03 115.049396 
L 508.320909 98.8176 
L 505.611818 94.020204 
L 502.902727 91.134346 
L 500.193636 96.280318 
L 497.484545 98.699794 
L 494.775455 97.087348 
L 492.066364 96.332697 
L 489.357273 98.233533 
L 486.648182 107.046561 
L 483.939091 117.450055 
L 481.23 142.354155 
L 478.520909 150.377008 
L 475.811818 154.459275 
L 473.102727 157.797018 
L 470.393636 154.433704 
L 467.684545 146.521529 
L 464.975455 126.620867 
L 462.266364 119.554313 
L 459.557273 130.346951 
L 456.848182 137.196129 
L 454.139091 125.260657 
L 451.43 114.388345 
L 448.720909 104.890558 
L 446.011818 101.761672 
L 443.302727 101.403202 
L 440.593636 101.228591 
L 437.884545 98.207761 
L 435.175455 96.010689 
L 432.466364 99.030085 
L 429.757273 104.609992 
L 427.048182 101.332547 
L 424.339091 111.034465 
L 421.63 123.275027 
L 418.920909 117.608942 
L 416.211818 113.600689 
L 413.502727 122.44 
L 410.793636 116.898462 
L 408.084545 111.0121 
L 405.375455 115.729191 
L 402.666364 115.132576 
L 399.957273 121.358856 
L 397.248182 134.79354 
L 394.539091 144.103628 
L 391.83 153.218823 
L 389.120909 150.38025 
L 386.411818 157.788117 
L 383.702727 170.349591 
L 380.993636 172.529608 
L 378.284545 169.089582 
L 375.575455 171.824983 
L 372.866364 169.746444 
L 370.157273 180.529465 
L 367.448182 159.752315 
L 364.739091 140.064545 
L 362.03 135.766432 
L 359.320909 138.135124 
L 356.611818 152.141014 
L 353.902727 153.27695 
L 351.193636 161.310762 
L 348.484545 163.123951 
L 345.775455 165.193067 
L 343.066364 165.251887 
L 340.357273 169.259059 
L 337.648182 173.145206 
L 334.939091 160.270679 
L 332.23 145.471335 
L 329.520909 109.923926 
L 326.811818 107.744098 
L 324.102727 123.666796 
L 321.393636 118.379687 
L 318.684545 123.092279 
L 315.975455 132.759865 
L 313.266364 139.993908 
L 310.557273 154.75561 
L 307.848182 164.176992 
L 305.139091 149.418662 
L 302.43 138.591846 
L 299.720909 118.156231 
L 297.011818 118.616311 
L 294.302727 134.779212 
L 291.593636 136.976204 
L 288.884545 125.286194 
L 286.175455 104.230638 
L 283.466364 106.698283 
L 280.757273 120.526943 
L 278.048182 121.420656 
L 275.339091 128.586113 
L 272.63 136.861316 
L 269.920909 142.996203 
L 267.211818 141.684045 
L 264.502727 148.712991 
L 261.793636 144.778438 
L 259.084545 142.961677 
L 256.375455 139.244925 
L 253.666364 148.444438 
L 250.957273 153.700321 
L 248.248182 148.657989 
L 245.539091 144.227621 
L 242.83 154.767359 
L 240.120909 145.002403 
L 237.411818 156.001123 
L 234.702727 148.013059 
L 231.993636 154.535444 
L 229.284545 156.92864 
L 226.575455 157.849855 
L 223.866364 168.793742 
L 221.157273 179.959065 
L 218.448182 193.952271 
L 215.739091 196.107029 
L 213.03 219.892857 
L 210.320909 221.086953 
L 207.611818 225.985467 
L 204.902727 230.452953 
L 202.193636 236.365307 
L 199.484545 234.997627 
L 196.775455 229.166172 
L 194.066364 229.273441 
L 191.357273 233.775937 
L 188.648182 224.966755 
L 185.939091 216.00858 
L 183.23 219.636382 
L 180.520909 215.820666 
L 177.811818 217.23324 
L 175.102727 213.940141 
L 172.393636 209.540906 
L 169.684545 202.371308 
L 166.975455 205.64221 
L 164.266364 206.998192 
L 161.557273 215.891362 
L 158.848182 215.554286 
L 156.139091 214.240024 
L 153.43 222.038205 
L 150.720909 225.223695 
L 148.011818 225.492025 
L 145.302727 233.09767 
L 142.593636 236.558326 
L 139.884545 228.057239 
L 137.175455 235.56251 
L 134.466364 230.518041 
L 131.757273 229.423626 
L 129.048182 230.750566 
L 126.339091 222.766707 
L 123.63 215.69804 
L 120.920909 215.226903 
L 118.211818 201.129414 
L 115.502727 196.402716 
L 112.793636 191.269508 
L 110.084545 193.602589 
L 107.375455 191.122943 
L 104.666364 185.012768 
L 101.957273 182.082998 
L 99.248182 170.355604 
L 96.539091 172.300072 
L 93.83 159.722181 
L 91.120909 157.144271 
L 88.411818 149.508315 
L 85.702727 141.615679 
L 82.993636 144.359217 
L 80.284545 136.559533 
L 77.575455 148.782746 
L 74.866364 154.395129 
z
" clip-path="url(#p63701ac9bf)" style="fill: #1f77b4; fill-opacity: 0.2"/>
   </g>
   <g id="matplotlib.axis_1">
    <g id="xtick_1">
     <g id="line2d_1">
      <path d="M 73.498273 390.04 
L 73.498273 10.8 
" clip-path="url(#p63701ac9bf)" style="fill: none; stroke: #b0b0b0; stroke-width: 0.8; stroke-linecap: square"/>
     </g>
     <g id="line2d_2">
      <defs>
       <path id="m2f7329baad" d="M 0 0 
L 0 3.5 
" style="stroke: #000000; stroke-width: 0.8"/>
      </defs>
      <g>
       <use xlink:href="#m2f7329baad" x="73.498273" y="390.04" style="stroke: #000000; stroke-width: 0.8"/>
      </g>
     </g>
     <g id="text_1">
      <!-- 0 -->
      <g transform="translate(70.317023 404.638438) scale(0.1 -0.1)">
       <defs>
        <path id="DejaVuSans-30" d="M 2034 4250 
Q 1547 4250 1301 3770 
Q 1056 3291 1056 2328 
Q 1056 1369 1301 889 
Q 1547 409 2034 409 
Q 2525 409 2770 889 
Q 3016 1369 3016 2328 
Q 3016 3291 2770 3770 
Q 2525 4250 2034 4250 
z
M 2034 4750 
Q 2819 4750 3233 4129 
Q 3647 3509 3647 2328 
Q 3647 1150 3233 529 
Q 2819 -91 2034 -91 
Q 1250 -91 836 529 
Q 422 1150 422 2328 
Q 422 3509 836 4129 
Q 1250 4750 2034 4750 
z
" transform="scale(0.015625)"/>
       </defs>
       <use xlink:href="#DejaVuSans-30"/>
      </g>
     </g>
    </g>
    <g id="xtick_2">
     <g id="line2d_3">
      <path d="M 208.952818 390.04 
L 208.952818 10.8 
" clip-path="url(#p63701ac9bf)" style="fill: none; stroke: #b0b0b0; stroke-width: 0.8; stroke-linecap: square"/>
     </g>
     <g id="line2d_4">
      <g>
       <use xlink:href="#m2f7329baad" x="208.952818" y="390.04" style="stroke: #000000; stroke-width: 0.8"/>
      </g>
     </g>
     <g id="text_2">
      <!-- 10000 -->
      <g transform="translate(193.046568 404.638438) scale(0.1 -0.1)">
       <defs>
        <path id="DejaVuSans-31" d="M 794 531 
L 1825 531 
L 1825 4091 
L 703 3866 
L 703 4441 
L 1819 4666 
L 2450 4666 
L 2450 531 
L 3481 531 
L 3481 0 
L 794 0 
L 794 531 
z
" transform="scale(0.015625)"/>
       </defs>
       <use xlink:href="#DejaVuSans-31"/>
       <use xlink:href="#DejaVuSans-30" transform="translate(63.623047 0)"/>
       <use xlink:href="#DejaVuSans-30" transform="translate(127.246094 0)"/>
       <use xlink:href="#DejaVuSans-30" transform="translate(190.869141 0)"/>
       <use xlink:href="#DejaVuSans-30" transform="translate(254.492188 0)"/>
      </g>
     </g>
    </g>
    <g id="xtick_3">
     <g id="line2d_5">
      <path d="M 344.407364 390.04 
L 344.407364 10.8 
" clip-path="url(#p63701ac9bf)" style="fill: none; stroke: #b0b0b0; stroke-width: 0.8; stroke-linecap: square"/>
     </g>
     <g id="line2d_6">
      <g>
       <use xlink:href="#m2f7329baad" x="344.407364" y="390.04" style="stroke: #000000; stroke-width: 0.8"/>
      </g>
     </g>
     <g id="text_3">
      <!-- 20000 -->
      <g transform="translate(328.501114 404.638438) scale(0.1 -0.1)">
       <defs>
        <path id="DejaVuSans-32" d="M 1228 531 
L 3431 531 
L 3431 0 
L 469 0 
L 469 531 
Q 828 903 1448 1529 
Q 2069 2156 2228 2338 
Q 2531 2678 2651 2914 
Q 2772 3150 2772 3378 
Q 2772 3750 2511 3984 
Q 2250 4219 1831 4219 
Q 1534 4219 1204 4116 
Q 875 4013 500 3803 
L 500 4441 
Q 881 4594 1212 4672 
Q 1544 4750 1819 4750 
Q 2544 4750 2975 4387 
Q 3406 4025 3406 3419 
Q 3406 3131 3298 2873 
Q 3191 2616 2906 2266 
Q 2828 2175 2409 1742 
Q 1991 1309 1228 531 
z
" transform="scale(0.015625)"/>
       </defs>
       <use xlink:href="#DejaVuSans-32"/>
       <use xlink:href="#DejaVuSans-30" transform="translate(63.623047 0)"/>
       <use xlink:href="#DejaVuSans-30" transform="translate(127.246094 0)"/>
       <use xlink:href="#DejaVuSans-30" transform="translate(190.869141 0)"/>
       <use xlink:href="#DejaVuSans-30" transform="translate(254.492188 0)"/>
      </g>
     </g>
    </g>
    <g id="xtick_4">
     <g id="line2d_7">
      <path d="M 479.861909 390.04 
L 479.861909 10.8 
" clip-path="url(#p63701ac9bf)" style="fill: none; stroke: #b0b0b0; stroke-width: 0.8; stroke-linecap: square"/>
     </g>
     <g id="line2d_8">
      <g>
       <use xlink:href="#m2f7329baad" x="479.861909" y="390.04" style="stroke: #000000; stroke-width: 0.8"/>
      </g>
     </g>
     <g id="text_4">
      <!-- 30000 -->
      <g transform="translate(463.955659 404.638438) scale(0.1 -0.1)">
       <defs>
        <path id="DejaVuSans-33" d="M 2597 2516 
Q 3050 2419 3304 2112 
Q 3559 1806 3559 1356 
Q 3559 666 3084 287 
Q 2609 -91 1734 -91 
Q 1441 -91 1130 -33 
Q 819 25 488 141 
L 488 750 
Q 750 597 1062 519 
Q 1375 441 1716 441 
Q 2309 441 2620 675 
Q 2931 909 2931 1356 
Q 2931 1769 2642 2001 
Q 2353 2234 1838 2234 
L 1294 2234 
L 1294 2753 
L 1863 2753 
Q 2328 2753 2575 2939 
Q 2822 3125 2822 3475 
Q 2822 3834 2567 4026 
Q 2313 4219 1838 4219 
Q 1578 4219 1281 4162 
Q 984 4106 628 3988 
L 628 4550 
Q 988 4650 1302 4700 
Q 1616 4750 1894 4750 
Q 2613 4750 3031 4423 
Q 3450 4097 3450 3541 
Q 3450 3153 3228 2886 
Q 3006 2619 2597 2516 
z
" transform="scale(0.015625)"/>
       </defs>
       <use xlink:href="#DejaVuSans-33"/>
       <use xlink:href="#DejaVuSans-30" transform="translate(63.623047 0)"/>
       <use xlink:href="#DejaVuSans-30" transform="translate(127.246094 0)"/>
       <use xlink:href="#DejaVuSans-30" transform="translate(190.869141 0)"/>
       <use xlink:href="#DejaVuSans-30" transform="translate(254.492188 0)"/>
      </g>
     </g>
    </g>
    <g id="xtick_5">
     <g id="line2d_9">
      <path d="M 615.316455 390.04 
L 615.316455 10.8 
" clip-path="url(#p63701ac9bf)" style="fill: none; stroke: #b0b0b0; stroke-width: 0.8; stroke-linecap: square"/>
     </g>
     <g id="line2d_10">
      <g>
       <use xlink:href="#m2f7329baad" x="615.316455" y="390.04" style="stroke: #000000; stroke-width: 0.8"/>
      </g>
     </g>
     <g id="text_5">
      <!-- 40000 -->
      <g transform="translate(599.410205 404.638438) scale(0.1 -0.1)">
       <defs>
        <path id="DejaVuSans-34" d="M 2419 4116 
L 825 1625 
L 2419 1625 
L 2419 4116 
z
M 2253 4666 
L 3047 4666 
L 3047 1625 
L 3713 1625 
L 3713 1100 
L 3047 1100 
L 3047 0 
L 2419 0 
L 2419 1100 
L 313 1100 
L 313 1709 
L 2253 4666 
z
" transform="scale(0.015625)"/>
       </defs>
       <use xlink:href="#DejaVuSans-34"/>
       <use xlink:href="#DejaVuSans-30" transform="translate(63.623047 0)"/>
       <use xlink:href="#DejaVuSans-30" transform="translate(127.246094 0)"/>
       <use xlink:href="#DejaVuSans-30" transform="translate(190.869141 0)"/>
       <use xlink:href="#DejaVuSans-30" transform="translate(254.492188 0)"/>
      </g>
     </g>
    </g>
    <g id="text_6">
     <!-- Episodes -->
     <g transform="translate(354.687813 418.316562) scale(0.1 -0.1)">
      <defs>
       <path id="DejaVuSans-45" d="M 628 4666 
L 3578 4666 
L 3578 4134 
L 1259 4134 
L 1259 2753 
L 3481 2753 
L 3481 2222 
L 1259 2222 
L 1259 531 
L 3634 531 
L 3634 0 
L 628 0 
L 628 4666 
z
" transform="scale(0.015625)"/>
       <path id="DejaVuSans-70" d="M 1159 525 
L 1159 -1331 
L 581 -1331 
L 581 3500 
L 1159 3500 
L 1159 2969 
Q 1341 3281 1617 3432 
Q 1894 3584 2278 3584 
Q 2916 3584 3314 3078 
Q 3713 2572 3713 1747 
Q 3713 922 3314 415 
Q 2916 -91 2278 -91 
Q 1894 -91 1617 61 
Q 1341 213 1159 525 
z
M 3116 1747 
Q 3116 2381 2855 2742 
Q 2594 3103 2138 3103 
Q 1681 3103 1420 2742 
Q 1159 2381 1159 1747 
Q 1159 1113 1420 752 
Q 1681 391 2138 391 
Q 2594 391 2855 752 
Q 3116 1113 3116 1747 
z
" transform="scale(0.015625)"/>
       <path id="DejaVuSans-69" d="M 603 3500 
L 1178 3500 
L 1178 0 
L 603 0 
L 603 3500 
z
M 603 4863 
L 1178 4863 
L 1178 4134 
L 603 4134 
L 603 4863 
z
" transform="scale(0.015625)"/>
       <path id="DejaVuSans-73" d="M 2834 3397 
L 2834 2853 
Q 2591 2978 2328 3040 
Q 2066 3103 1784 3103 
Q 1356 3103 1142 2972 
Q 928 2841 928 2578 
Q 928 2378 1081 2264 
Q 1234 2150 1697 2047 
L 1894 2003 
Q 2506 1872 2764 1633 
Q 3022 1394 3022 966 
Q 3022 478 2636 193 
Q 2250 -91 1575 -91 
Q 1294 -91 989 -36 
Q 684 19 347 128 
L 347 722 
Q 666 556 975 473 
Q 1284 391 1588 391 
Q 1994 391 2212 530 
Q 2431 669 2431 922 
Q 2431 1156 2273 1281 
Q 2116 1406 1581 1522 
L 1381 1569 
Q 847 1681 609 1914 
Q 372 2147 372 2553 
Q 372 3047 722 3315 
Q 1072 3584 1716 3584 
Q 2034 3584 2315 3537 
Q 2597 3491 2834 3397 
z
" transform="scale(0.015625)"/>
       <path id="DejaVuSans-6f" d="M 1959 3097 
Q 1497 3097 1228 2736 
Q 959 2375 959 1747 
Q 959 1119 1226 758 
Q 1494 397 1959 397 
Q 2419 397 2687 759 
Q 2956 1122 2956 1747 
Q 2956 2369 2687 2733 
Q 2419 3097 1959 3097 
z
M 1959 3584 
Q 2709 3584 3137 3096 
Q 3566 2609 3566 1747 
Q 3566 888 3137 398 
Q 2709 -91 1959 -91 
Q 1206 -91 779 398 
Q 353 888 353 1747 
Q 353 2609 779 3096 
Q 1206 3584 1959 3584 
z
" transform="scale(0.015625)"/>
       <path id="DejaVuSans-64" d="M 2906 2969 
L 2906 4863 
L 3481 4863 
L 3481 0 
L 2906 0 
L 2906 525 
Q 2725 213 2448 61 
Q 2172 -91 1784 -91 
Q 1150 -91 751 415 
Q 353 922 353 1747 
Q 353 2572 751 3078 
Q 1150 3584 1784 3584 
Q 2172 3584 2448 3432 
Q 2725 3281 2906 2969 
z
M 947 1747 
Q 947 1113 1208 752 
Q 1469 391 1925 391 
Q 2381 391 2643 752 
Q 2906 1113 2906 1747 
Q 2906 2381 2643 2742 
Q 2381 3103 1925 3103 
Q 1469 3103 1208 2742 
Q 947 2381 947 1747 
z
" transform="scale(0.015625)"/>
       <path id="DejaVuSans-65" d="M 3597 1894 
L 3597 1613 
L 953 1613 
Q 991 1019 1311 708 
Q 1631 397 2203 397 
Q 2534 397 2845 478 
Q 3156 559 3463 722 
L 3463 178 
Q 3153 47 2828 -22 
Q 2503 -91 2169 -91 
Q 1331 -91 842 396 
Q 353 884 353 1716 
Q 353 2575 817 3079 
Q 1281 3584 2069 3584 
Q 2775 3584 3186 3129 
Q 3597 2675 3597 1894 
z
M 3022 2063 
Q 3016 2534 2758 2815 
Q 2500 3097 2075 3097 
Q 1594 3097 1305 2825 
Q 1016 2553 972 2059 
L 3022 2063 
z
" transform="scale(0.015625)"/>
      </defs>
      <use xlink:href="#DejaVuSans-45"/>
      <use xlink:href="#DejaVuSans-70" transform="translate(63.183594 0)"/>
      <use xlink:href="#DejaVuSans-69" transform="translate(126.660156 0)"/>
      <use xlink:href="#DejaVuSans-73" transform="translate(154.443359 0)"/>
      <use xlink:href="#DejaVuSans-6f" transform="translate(206.542969 0)"/>
      <use xlink:href="#DejaVuSans-64" transform="translate(267.724609 0)"/>
      <use xlink:href="#DejaVuSans-65" transform="translate(331.201172 0)"/>
      <use xlink:href="#DejaVuSans-73" transform="translate(392.724609 0)"/>
     </g>
    </g>
   </g>
   <g id="matplotlib.axis_2">
    <g id="ytick_1">
     <g id="line2d_11">
      <path d="M 44.66 370.091221 
L 709.2 370.091221 
" clip-path="url(#p63701ac9bf)" style="fill: none; stroke: #b0b0b0; stroke-width: 0.8; stroke-linecap: square"/>
     </g>
     <g id="line2d_12">
      <defs>
       <path id="mbf40c021df" d="M 0 0 
L -3.5 0 
" style="stroke: #000000; stroke-width: 0.8"/>
      </defs>
      <g>
       <use xlink:href="#mbf40c021df" x="44.66" y="370.091221" style="stroke: #000000; stroke-width: 0.8"/>
      </g>
     </g>
     <g id="text_7">
      <!-- 4 -->
      <g transform="translate(31.2975 373.89044) scale(0.1 -0.1)">
       <use xlink:href="#DejaVuSans-34"/>
      </g>
     </g>
    </g>
    <g id="ytick_2">
     <g id="line2d_13">
      <path d="M 44.66 327.849683 
L 709.2 327.849683 
" clip-path="url(#p63701ac9bf)" style="fill: none; stroke: #b0b0b0; stroke-width: 0.8; stroke-linecap: square"/>
     </g>
     <g id="line2d_14">
      <g>
       <use xlink:href="#mbf40c021df" x="44.66" y="327.849683" style="stroke: #000000; stroke-width: 0.8"/>
      </g>
     </g>
     <g id="text_8">
      <!-- 5 -->
      <g transform="translate(31.2975 331.648902) scale(0.1 -0.1)">
       <defs>
        <path id="DejaVuSans-35" d="M 691 4666 
L 3169 4666 
L 3169 4134 
L 1269 4134 
L 1269 2991 
Q 1406 3038 1543 3061 
Q 1681 3084 1819 3084 
Q 2600 3084 3056 2656 
Q 3513 2228 3513 1497 
Q 3513 744 3044 326 
Q 2575 -91 1722 -91 
Q 1428 -91 1123 -41 
Q 819 9 494 109 
L 494 744 
Q 775 591 1075 516 
Q 1375 441 1709 441 
Q 2250 441 2565 725 
Q 2881 1009 2881 1497 
Q 2881 1984 2565 2268 
Q 2250 2553 1709 2553 
Q 1456 2553 1204 2497 
Q 953 2441 691 2322 
L 691 4666 
z
" transform="scale(0.015625)"/>
       </defs>
       <use xlink:href="#DejaVuSans-35"/>
      </g>
     </g>
    </g>
    <g id="ytick_3">
     <g id="line2d_15">
      <path d="M 44.66 285.608145 
L 709.2 285.608145 
" clip-path="url(#p63701ac9bf)" style="fill: none; stroke: #b0b0b0; stroke-width: 0.8; stroke-linecap: square"/>
     </g>
     <g id="line2d_16">
      <g>
       <use xlink:href="#mbf40c021df" x="44.66" y="285.608145" style="stroke: #000000; stroke-width: 0.8"/>
      </g>
     </g>
     <g id="text_9">
      <!-- 6 -->
      <g transform="translate(31.2975 289.407364) scale(0.1 -0.1)">
       <defs>
        <path id="DejaVuSans-36" d="M 2113 2584 
Q 1688 2584 1439 2293 
Q 1191 2003 1191 1497 
Q 1191 994 1439 701 
Q 1688 409 2113 409 
Q 2538 409 2786 701 
Q 3034 994 3034 1497 
Q 3034 2003 2786 2293 
Q 2538 2584 2113 2584 
z
M 3366 4563 
L 3366 3988 
Q 3128 4100 2886 4159 
Q 2644 4219 2406 4219 
Q 1781 4219 1451 3797 
Q 1122 3375 1075 2522 
Q 1259 2794 1537 2939 
Q 1816 3084 2150 3084 
Q 2853 3084 3261 2657 
Q 3669 2231 3669 1497 
Q 3669 778 3244 343 
Q 2819 -91 2113 -91 
Q 1303 -91 875 529 
Q 447 1150 447 2328 
Q 447 3434 972 4092 
Q 1497 4750 2381 4750 
Q 2619 4750 2861 4703 
Q 3103 4656 3366 4563 
z
" transform="scale(0.015625)"/>
       </defs>
       <use xlink:href="#DejaVuSans-36"/>
      </g>
     </g>
    </g>
    <g id="ytick_4">
     <g id="line2d_17">
      <path d="M 44.66 243.366607 
L 709.2 243.366607 
" clip-path="url(#p63701ac9bf)" style="fill: none; stroke: #b0b0b0; stroke-width: 0.8; stroke-linecap: square"/>
     </g>
     <g id="line2d_18">
      <g>
       <use xlink:href="#mbf40c021df" x="44.66" y="243.366607" style="stroke: #000000; stroke-width: 0.8"/>
      </g>
     </g>
     <g id="text_10">
      <!-- 7 -->
      <g transform="translate(31.2975 247.165826) scale(0.1 -0.1)">
       <defs>
        <path id="DejaVuSans-37" d="M 525 4666 
L 3525 4666 
L 3525 4397 
L 1831 0 
L 1172 0 
L 2766 4134 
L 525 4134 
L 525 4666 
z
" transform="scale(0.015625)"/>
       </defs>
       <use xlink:href="#DejaVuSans-37"/>
      </g>
     </g>
    </g>
    <g id="ytick_5">
     <g id="line2d_19">
      <path d="M 44.66 201.12507 
L 709.2 201.12507 
" clip-path="url(#p63701ac9bf)" style="fill: none; stroke: #b0b0b0; stroke-width: 0.8; stroke-linecap: square"/>
     </g>
     <g id="line2d_20">
      <g>
       <use xlink:href="#mbf40c021df" x="44.66" y="201.12507" style="stroke: #000000; stroke-width: 0.8"/>
      </g>
     </g>
     <g id="text_11">
      <!-- 8 -->
      <g transform="translate(31.2975 204.924288) scale(0.1 -0.1)">
       <defs>
        <path id="DejaVuSans-38" d="M 2034 2216 
Q 1584 2216 1326 1975 
Q 1069 1734 1069 1313 
Q 1069 891 1326 650 
Q 1584 409 2034 409 
Q 2484 409 2743 651 
Q 3003 894 3003 1313 
Q 3003 1734 2745 1975 
Q 2488 2216 2034 2216 
z
M 1403 2484 
Q 997 2584 770 2862 
Q 544 3141 544 3541 
Q 544 4100 942 4425 
Q 1341 4750 2034 4750 
Q 2731 4750 3128 4425 
Q 3525 4100 3525 3541 
Q 3525 3141 3298 2862 
Q 3072 2584 2669 2484 
Q 3125 2378 3379 2068 
Q 3634 1759 3634 1313 
Q 3634 634 3220 271 
Q 2806 -91 2034 -91 
Q 1263 -91 848 271 
Q 434 634 434 1313 
Q 434 1759 690 2068 
Q 947 2378 1403 2484 
z
M 1172 3481 
Q 1172 3119 1398 2916 
Q 1625 2713 2034 2713 
Q 2441 2713 2670 2916 
Q 2900 3119 2900 3481 
Q 2900 3844 2670 4047 
Q 2441 4250 2034 4250 
Q 1625 4250 1398 4047 
Q 1172 3844 1172 3481 
z
" transform="scale(0.015625)"/>
       </defs>
       <use xlink:href="#DejaVuSans-38"/>
      </g>
     </g>
    </g>
    <g id="ytick_6">
     <g id="line2d_21">
      <path d="M 44.66 158.883532 
L 709.2 158.883532 
" clip-path="url(#p63701ac9bf)" style="fill: none; stroke: #b0b0b0; stroke-width: 0.8; stroke-linecap: square"/>
     </g>
     <g id="line2d_22">
      <g>
       <use xlink:href="#mbf40c021df" x="44.66" y="158.883532" style="stroke: #000000; stroke-width: 0.8"/>
      </g>
     </g>
     <g id="text_12">
      <!-- 9 -->
      <g transform="translate(31.2975 162.682751) scale(0.1 -0.1)">
       <defs>
        <path id="DejaVuSans-39" d="M 703 97 
L 703 672 
Q 941 559 1184 500 
Q 1428 441 1663 441 
Q 2288 441 2617 861 
Q 2947 1281 2994 2138 
Q 2813 1869 2534 1725 
Q 2256 1581 1919 1581 
Q 1219 1581 811 2004 
Q 403 2428 403 3163 
Q 403 3881 828 4315 
Q 1253 4750 1959 4750 
Q 2769 4750 3195 4129 
Q 3622 3509 3622 2328 
Q 3622 1225 3098 567 
Q 2575 -91 1691 -91 
Q 1453 -91 1209 -44 
Q 966 3 703 97 
z
M 1959 2075 
Q 2384 2075 2632 2365 
Q 2881 2656 2881 3163 
Q 2881 3666 2632 3958 
Q 2384 4250 1959 4250 
Q 1534 4250 1286 3958 
Q 1038 3666 1038 3163 
Q 1038 2656 1286 2365 
Q 1534 2075 1959 2075 
z
" transform="scale(0.015625)"/>
       </defs>
       <use xlink:href="#DejaVuSans-39"/>
      </g>
     </g>
    </g>
    <g id="ytick_7">
     <g id="line2d_23">
      <path d="M 44.66 116.641994 
L 709.2 116.641994 
" clip-path="url(#p63701ac9bf)" style="fill: none; stroke: #b0b0b0; stroke-width: 0.8; stroke-linecap: square"/>
     </g>
     <g id="line2d_24">
      <g>
       <use xlink:href="#mbf40c021df" x="44.66" y="116.641994" style="stroke: #000000; stroke-width: 0.8"/>
      </g>
     </g>
     <g id="text_13">
      <!-- 10 -->
      <g transform="translate(24.935 120.441213) scale(0.1 -0.1)">
       <use xlink:href="#DejaVuSans-31"/>
       <use xlink:href="#DejaVuSans-30" transform="translate(63.623047 0)"/>
      </g>
     </g>
    </g>
    <g id="ytick_8">
     <g id="line2d_25">
      <path d="M 44.66 74.400456 
L 709.2 74.400456 
" clip-path="url(#p63701ac9bf)" style="fill: none; stroke: #b0b0b0; stroke-width: 0.8; stroke-linecap: square"/>
     </g>
     <g id="line2d_26">
      <g>
       <use xlink:href="#mbf40c021df" x="44.66" y="74.400456" style="stroke: #000000; stroke-width: 0.8"/>
      </g>
     </g>
     <g id="text_14">
      <!-- 11 -->
      <g transform="translate(24.935 78.199675) scale(0.1 -0.1)">
       <use xlink:href="#DejaVuSans-31"/>
       <use xlink:href="#DejaVuSans-31" transform="translate(63.623047 0)"/>
      </g>
     </g>
    </g>
    <g id="ytick_9">
     <g id="line2d_27">
      <path d="M 44.66 32.158918 
L 709.2 32.158918 
" clip-path="url(#p63701ac9bf)" style="fill: none; stroke: #b0b0b0; stroke-width: 0.8; stroke-linecap: square"/>
     </g>
     <g id="line2d_28">
      <g>
       <use xlink:href="#mbf40c021df" x="44.66" y="32.158918" style="stroke: #000000; stroke-width: 0.8"/>
      </g>
     </g>
     <g id="text_15">
      <!-- 12 -->
      <g transform="translate(24.935 35.958137) scale(0.1 -0.1)">
       <use xlink:href="#DejaVuSans-31"/>
       <use xlink:href="#DejaVuSans-32" transform="translate(63.623047 0)"/>
      </g>
     </g>
    </g>
    <g id="text_16">
     <!-- Quantum Gates -->
     <g transform="translate(18.855313 239.925469) rotate(-90) scale(0.1 -0.1)">
      <defs>
       <path id="DejaVuSans-51" d="M 2522 4238 
Q 1834 4238 1429 3725 
Q 1025 3213 1025 2328 
Q 1025 1447 1429 934 
Q 1834 422 2522 422 
Q 3209 422 3611 934 
Q 4013 1447 4013 2328 
Q 4013 3213 3611 3725 
Q 3209 4238 2522 4238 
z
M 3406 84 
L 4238 -825 
L 3475 -825 
L 2784 -78 
Q 2681 -84 2626 -87 
Q 2572 -91 2522 -91 
Q 1538 -91 948 567 
Q 359 1225 359 2328 
Q 359 3434 948 4092 
Q 1538 4750 2522 4750 
Q 3503 4750 4090 4092 
Q 4678 3434 4678 2328 
Q 4678 1516 4351 937 
Q 4025 359 3406 84 
z
" transform="scale(0.015625)"/>
       <path id="DejaVuSans-75" d="M 544 1381 
L 544 3500 
L 1119 3500 
L 1119 1403 
Q 1119 906 1312 657 
Q 1506 409 1894 409 
Q 2359 409 2629 706 
Q 2900 1003 2900 1516 
L 2900 3500 
L 3475 3500 
L 3475 0 
L 2900 0 
L 2900 538 
Q 2691 219 2414 64 
Q 2138 -91 1772 -91 
Q 1169 -91 856 284 
Q 544 659 544 1381 
z
M 1991 3584 
L 1991 3584 
z
" transform="scale(0.015625)"/>
       <path id="DejaVuSans-61" d="M 2194 1759 
Q 1497 1759 1228 1600 
Q 959 1441 959 1056 
Q 959 750 1161 570 
Q 1363 391 1709 391 
Q 2188 391 2477 730 
Q 2766 1069 2766 1631 
L 2766 1759 
L 2194 1759 
z
M 3341 1997 
L 3341 0 
L 2766 0 
L 2766 531 
Q 2569 213 2275 61 
Q 1981 -91 1556 -91 
Q 1019 -91 701 211 
Q 384 513 384 1019 
Q 384 1609 779 1909 
Q 1175 2209 1959 2209 
L 2766 2209 
L 2766 2266 
Q 2766 2663 2505 2880 
Q 2244 3097 1772 3097 
Q 1472 3097 1187 3025 
Q 903 2953 641 2809 
L 641 3341 
Q 956 3463 1253 3523 
Q 1550 3584 1831 3584 
Q 2591 3584 2966 3190 
Q 3341 2797 3341 1997 
z
" transform="scale(0.015625)"/>
       <path id="DejaVuSans-6e" d="M 3513 2113 
L 3513 0 
L 2938 0 
L 2938 2094 
Q 2938 2591 2744 2837 
Q 2550 3084 2163 3084 
Q 1697 3084 1428 2787 
Q 1159 2491 1159 1978 
L 1159 0 
L 581 0 
L 581 3500 
L 1159 3500 
L 1159 2956 
Q 1366 3272 1645 3428 
Q 1925 3584 2291 3584 
Q 2894 3584 3203 3211 
Q 3513 2838 3513 2113 
z
" transform="scale(0.015625)"/>
       <path id="DejaVuSans-74" d="M 1172 4494 
L 1172 3500 
L 2356 3500 
L 2356 3053 
L 1172 3053 
L 1172 1153 
Q 1172 725 1289 603 
Q 1406 481 1766 481 
L 2356 481 
L 2356 0 
L 1766 0 
Q 1100 0 847 248 
Q 594 497 594 1153 
L 594 3053 
L 172 3053 
L 172 3500 
L 594 3500 
L 594 4494 
L 1172 4494 
z
" transform="scale(0.015625)"/>
       <path id="DejaVuSans-6d" d="M 3328 2828 
Q 3544 3216 3844 3400 
Q 4144 3584 4550 3584 
Q 5097 3584 5394 3201 
Q 5691 2819 5691 2113 
L 5691 0 
L 5113 0 
L 5113 2094 
Q 5113 2597 4934 2840 
Q 4756 3084 4391 3084 
Q 3944 3084 3684 2787 
Q 3425 2491 3425 1978 
L 3425 0 
L 2847 0 
L 2847 2094 
Q 2847 2600 2669 2842 
Q 2491 3084 2119 3084 
Q 1678 3084 1418 2786 
Q 1159 2488 1159 1978 
L 1159 0 
L 581 0 
L 581 3500 
L 1159 3500 
L 1159 2956 
Q 1356 3278 1631 3431 
Q 1906 3584 2284 3584 
Q 2666 3584 2933 3390 
Q 3200 3197 3328 2828 
z
" transform="scale(0.015625)"/>
       <path id="DejaVuSans-20" transform="scale(0.015625)"/>
       <path id="DejaVuSans-47" d="M 3809 666 
L 3809 1919 
L 2778 1919 
L 2778 2438 
L 4434 2438 
L 4434 434 
Q 4069 175 3628 42 
Q 3188 -91 2688 -91 
Q 1594 -91 976 548 
Q 359 1188 359 2328 
Q 359 3472 976 4111 
Q 1594 4750 2688 4750 
Q 3144 4750 3555 4637 
Q 3966 4525 4313 4306 
L 4313 3634 
Q 3963 3931 3569 4081 
Q 3175 4231 2741 4231 
Q 1884 4231 1454 3753 
Q 1025 3275 1025 2328 
Q 1025 1384 1454 906 
Q 1884 428 2741 428 
Q 3075 428 3337 486 
Q 3600 544 3809 666 
z
" transform="scale(0.015625)"/>
      </defs>
      <use xlink:href="#DejaVuSans-51"/>
      <use xlink:href="#DejaVuSans-75" transform="translate(78.710938 0)"/>
      <use xlink:href="#DejaVuSans-61" transform="translate(142.089844 0)"/>
      <use xlink:href="#DejaVuSans-6e" transform="translate(203.369141 0)"/>
      <use xlink:href="#DejaVuSans-74" transform="translate(266.748047 0)"/>
      <use xlink:href="#DejaVuSans-75" transform="translate(305.957031 0)"/>
      <use xlink:href="#DejaVuSans-6d" transform="translate(369.335938 0)"/>
      <use xlink:href="#DejaVuSans-20" transform="translate(466.748047 0)"/>
      <use xlink:href="#DejaVuSans-47" transform="translate(498.535156 0)"/>
      <use xlink:href="#DejaVuSans-61" transform="translate(576.025391 0)"/>
      <use xlink:href="#DejaVuSans-74" transform="translate(637.304688 0)"/>
      <use xlink:href="#DejaVuSans-65" transform="translate(676.513672 0)"/>
      <use xlink:href="#DejaVuSans-73" transform="translate(738.037109 0)"/>
     </g>
    </g>
   </g>
   <g id="line2d_29">
    <path d="M 74.866364 240.902518 
L 77.575455 235.692728 
L 80.284545 224.850733 
L 82.993636 231.398172 
L 85.702727 227.385226 
L 88.411818 231.046159 
L 91.120909 235.19991 
L 93.83 230.342133 
L 96.539091 241.817751 
L 99.248182 245.126672 
L 101.957273 251.744512 
L 104.666364 260.263223 
L 107.375455 266.24744 
L 110.084545 267.725894 
L 112.793636 264.276169 
L 115.502727 269.133946 
L 118.211818 277.652656 
L 120.920909 288.846663 
L 123.63 286.100963 
L 126.339091 295.675712 
L 129.048182 300.674294 
L 131.757273 299.970268 
L 134.466364 301.65993 
L 137.175455 301.730332 
L 139.884545 298.069399 
L 142.593636 300.885501 
L 145.302727 299.829463 
L 148.011818 287.861027 
L 150.720909 288.072235 
L 153.43 282.15842 
L 156.139091 276.526215 
L 158.848182 274.273333 
L 161.557273 271.809243 
L 164.266364 264.487376 
L 166.975455 263.008923 
L 169.684545 262.304897 
L 172.393636 266.458648 
L 175.102727 269.204348 
L 177.811818 273.217294 
L 180.520909 273.146892 
L 183.23 276.38541 
L 185.939091 276.315007 
L 188.648182 282.15842 
L 191.357273 292.366791 
L 194.066364 287.227404 
L 196.775455 288.846663 
L 199.484545 294.338063 
L 202.193636 300.251878 
L 204.902727 295.675712 
L 207.611818 290.39552 
L 210.320909 289.761897 
L 213.03 286.030561 
L 215.739091 265.332207 
L 218.448182 257.72873 
L 221.157273 250.618071 
L 223.866364 237.734402 
L 226.575455 223.724292 
L 229.284545 226.610797 
L 231.993636 223.724292 
L 234.702727 221.260203 
L 237.411818 227.033213 
L 240.120909 221.682618 
L 242.83 227.385226 
L 245.539091 219.922554 
L 248.248182 221.330605 
L 250.957273 222.457046 
L 253.666364 215.768803 
L 256.375455 213.586323 
L 259.084545 213.445518 
L 261.793636 210.770221 
L 264.502727 211.896662 
L 267.211818 205.771639 
L 269.920909 209.010157 
L 272.63 205.982847 
L 275.339091 202.321913 
L 278.048182 196.337695 
L 280.757273 189.86066 
L 283.466364 187.607778 
L 286.175455 192.183944 
L 288.884545 202.040303 
L 294.302727 204.7156 
L 297.011818 190.635088 
L 299.720909 187.326167 
L 302.43 192.535957 
L 305.139091 199.012993 
L 307.848182 209.784585 
L 310.557273 203.377952 
L 313.266364 190.071867 
L 315.975455 185.073285 
L 318.684545 176.765783 
L 321.393636 182.327585 
L 324.102727 188.241401 
L 326.811818 174.090485 
L 329.520909 175.639342 
L 332.23 206.89808 
L 334.939091 211.755857 
L 337.648182 211.967064 
L 340.357273 207.320495 
L 343.066364 208.587741 
L 345.775455 214.853569 
L 348.484545 213.656726 
L 351.193636 209.080559 
L 353.902727 205.982847 
L 356.611818 207.390898 
L 359.320909 200.350641 
L 362.03 199.294603 
L 364.739091 202.744329 
L 367.448182 219.218528 
L 370.157273 239.776077 
L 372.866364 230.975756 
L 375.575455 232.313405 
L 378.284545 228.159654 
L 380.993636 228.159654 
L 383.702727 220.837787 
L 389.120909 185.777311 
L 391.83 187.537375 
L 394.539091 183.454026 
L 397.248182 184.791675 
L 399.957273 185.21409 
L 402.666364 184.862078 
L 405.375455 186.692544 
L 408.084545 184.228455 
L 410.793636 188.030193 
L 413.502727 187.748583 
L 416.211818 178.244237 
L 418.920909 175.216926 
L 421.63 174.090485 
L 424.339091 160.643596 
L 427.048182 153.321729 
L 429.757273 157.053065 
L 432.466364 148.182342 
L 435.175455 144.380604 
L 437.884545 145.155032 
L 440.593636 150.364822 
L 443.302727 144.451006 
L 446.011818 145.64785 
L 448.720909 162.333257 
L 451.43 182.257183 
L 454.139091 181.834767 
L 456.848182 186.058921 
L 459.557273 180.426716 
L 462.266364 172.471227 
L 464.975455 173.738473 
L 467.684545 190.42388 
L 470.393636 198.66098 
L 473.102727 202.251511 
L 475.811818 204.786003 
L 478.520909 201.547485 
L 481.23 194.718436 
L 483.939091 172.541629 
L 486.648182 154.025755 
L 489.357273 142.690942 
L 492.066364 138.537191 
L 494.775455 136.425114 
L 497.484545 138.818801 
L 500.193636 137.269945 
L 502.902727 132.552973 
L 505.611818 136.636322 
L 508.320909 140.15645 
L 511.03 154.16656 
L 513.739091 152.336093 
L 516.448182 159.517155 
L 519.157273 163.670906 
L 521.866364 165.078957 
L 524.575455 170.147942 
L 527.284545 155.715417 
L 529.993636 150.576029 
L 532.702727 145.155032 
L 535.411818 153.60334 
L 538.120909 133.820219 
L 540.83 118.683668 
L 543.539091 107.560063 
L 546.248182 88.903384 
L 548.957273 95.028407 
L 551.666364 112.13623 
L 554.375455 114.88193 
L 557.084545 121.429368 
L 559.793636 118.894876 
L 562.502727 133.890622 
L 565.211818 154.729781 
L 567.920909 169.162306 
L 570.63 175.709744 
L 573.339091 169.655124 
L 576.048182 170.92237 
L 578.757273 150.435224 
L 581.466364 141.634904 
L 584.175455 140.508463 
L 586.884545 137.973971 
L 589.593636 126.709561 
L 592.302727 117.064409 
L 595.011818 113.896294 
L 597.720909 112.769853 
L 600.43 112.41784 
L 603.139091 133.186596 
L 605.848182 114.318709 
L 608.557273 98.68934 
L 611.266364 87.988151 
L 613.975455 89.184994 
L 616.684545 102.983897 
L 619.393636 107.700869 
L 622.102727 127.906404 
L 624.811818 122.062991 
L 627.520909 115.16354 
L 630.23 124.597484 
L 632.939091 156.771455 
L 635.648182 165.290165 
L 638.357273 173.38646 
L 641.066364 168.669488 
L 643.775455 161.629232 
L 646.484545 134.876258 
L 649.193636 123.471043 
L 651.902727 127.695196 
L 654.611818 120.866148 
L 657.320909 120.021317 
L 660.03 129.314455 
L 662.739091 142.33893 
L 665.448182 154.377768 
L 668.157273 150.716835 
L 670.866364 194.084813 
L 673.575455 155.926624 
L 676.284545 138.677996 
L 678.993636 124.808691 
L 678.993636 124.808691 
" clip-path="url(#p63701ac9bf)" style="fill: none; stroke: #1f77b4; stroke-width: 1.5; stroke-linecap: square"/>
   </g>
   <g id="patch_3">
    <path d="M 44.66 390.04 
L 44.66 10.8 
" style="fill: none; stroke: #000000; stroke-width: 0.8; stroke-linejoin: miter; stroke-linecap: square"/>
   </g>
   <g id="patch_4">
    <path d="M 709.2 390.04 
L 709.2 10.8 
" style="fill: none; stroke: #000000; stroke-width: 0.8; stroke-linejoin: miter; stroke-linecap: square"/>
   </g>
   <g id="patch_5">
    <path d="M 44.66 390.04 
L 709.2 390.04 
" style="fill: none; stroke: #000000; stroke-width: 0.8; stroke-linejoin: miter; stroke-linecap: square"/>
   </g>
   <g id="patch_6">
    <path d="M 44.66 10.8 
L 709.2 10.8 
" style="fill: none; stroke: #000000; stroke-width: 0.8; stroke-linejoin: miter; stroke-linecap: square"/>
   </g>
  </g>
 </g>
 <defs>
  <clipPath id="p63701ac9bf">
   <rect x="44.66" y="10.8" width="664.54" height="379.24"/>
  </clipPath>
 </defs>
</svg>
