<?xml version="1.0" encoding="utf-8" standalone="no"?>
<!DOCTYPE svg PUBLIC "-//W3C//DTD SVG 1.1//EN"
  "http://www.w3.org/Graphics/SVG/1.1/DTD/svg11.dtd">
<svg xmlns:xlink="http://www.w3.org/1999/xlink" width="720pt" height="432pt" viewBox="0 0 720 432" xmlns="http://www.w3.org/2000/svg" version="1.1">
 <metadata>
  <rdf:RDF xmlns:dc="http://purl.org/dc/elements/1.1/" xmlns:cc="http://creativecommons.org/ns#" xmlns:rdf="http://www.w3.org/1999/02/22-rdf-syntax-ns#">
   <cc:Work>
    <dc:type rdf:resource="http://purl.org/dc/dcmitype/StillImage"/>
    <dc:date>2025-04-16T01:06:50.324315</dc:date>
    <dc:format>image/svg+xml</dc:format>
    <dc:creator>
     <cc:Agent>
      <dc:title>Matplotlib v3.10.0, https://matplotlib.org/</dc:title>
     </cc:Agent>
    </dc:creator>
   </cc:Work>
  </rdf:RDF>
 </metadata>
 <defs>
  <style type="text/css">*{stroke-linejoin: round; stroke-linecap: butt}</style>
 </defs>
 <g id="figure_1">
  <g id="patch_1">
   <path d="M 0 432 
L 720 432 
L 720 0 
L 0 0 
z
" style="fill: #ffffff"/>
  </g>
  <g id="axes_1">
   <g id="patch_2">
    <path d="M 54.02 390.04 
L 709.2 390.04 
L 709.2 10.8 
L 54.02 10.8 
z
" style="fill: #ffffff"/>
   </g>
   <g id="FillBetweenPolyCollection_1">
    <path d="M 83.800909 148.634848 
L 83.800909 356.898148 
L 89.419949 348.155439 
L 95.038988 356.150126 
L 100.658027 355.62318 
L 106.277067 344.399478 
L 111.896106 359.813522 
L 117.515146 354.758373 
L 123.134185 352.869112 
L 128.753225 348.980675 
L 134.372264 355.005104 
L 139.991304 350.123387 
L 145.610343 356.555888 
L 151.229383 354.508824 
L 156.848422 355.561948 
L 162.467461 348.900541 
L 168.086501 359.664357 
L 173.70554 356.392113 
L 179.32458 353.443697 
L 184.943619 369.012973 
L 190.562659 357.178853 
L 196.181698 361.350273 
L 201.800738 368.313364 
L 207.419777 353.378251 
L 213.038816 352.756654 
L 218.657856 362.791155 
L 224.276895 369.679289 
L 229.895935 356.84983 
L 235.514974 355.964055 
L 241.134014 354.032254 
L 246.753053 356.478225 
L 252.372093 354.80011 
L 257.991132 356.268072 
L 263.610172 350.860708 
L 269.229211 359.821991 
L 274.84825 352.424924 
L 280.46729 355.852145 
L 286.086329 354.47414 
L 291.705369 349.362783 
L 297.324408 357.820957 
L 302.943448 355.689651 
L 308.562487 355.83504 
L 314.181527 362.411981 
L 319.800566 356.382827 
L 325.419605 361.231953 
L 331.038645 371.692121 
L 336.657684 361.871934 
L 342.276724 351.696763 
L 347.895763 359.988415 
L 353.514803 362.111755 
L 359.133842 353.623687 
L 364.752882 358.204549 
L 370.371921 354.286021 
L 375.990961 364.065217 
L 381.61 348.278991 
L 387.229039 358.871275 
L 392.848079 350.863975 
L 398.467118 351.417453 
L 404.086158 369.304096 
L 409.705197 347.959856 
L 415.324237 357.221614 
L 420.943276 354.305799 
L 426.562316 357.145493 
L 432.181355 366.011137 
L 437.800395 343.9137 
L 443.419434 350.641106 
L 449.038473 372.801818 
L 454.657513 358.859885 
L 460.276552 345.053979 
L 465.895592 363.848445 
L 471.514631 356.4162 
L 477.133671 359.130056 
L 482.75271 361.859345 
L 488.37175 361.65605 
L 493.990789 348.320102 
L 499.609828 347.952101 
L 505.228868 372.241533 
L 510.847907 352.180022 
L 516.466947 355.892647 
L 522.085986 358.631449 
L 527.705026 355.276503 
L 533.324065 349.325642 
L 538.943105 360.477386 
L 544.562144 355.153781 
L 550.181184 344.146562 
L 555.800223 352.853743 
L 561.419262 353.565713 
L 567.038302 351.012428 
L 572.657341 353.524141 
L 578.276381 362.939001 
L 583.89542 358.743671 
L 589.51446 362.273474 
L 595.133499 357.323357 
L 600.752539 358.284356 
L 606.371578 346.77564 
L 611.990617 350.253551 
L 617.609657 354.046276 
L 623.228696 369.693015 
L 628.847736 356.773667 
L 634.466775 347.507149 
L 640.085815 360.408231 
L 645.704854 366.06071 
L 651.323894 365.019742 
L 656.942933 369.013618 
L 662.561973 351.542039 
L 668.181012 344.664152 
L 673.800051 360.552273 
L 679.419091 354.152132 
L 679.419091 145.910908 
L 679.419091 145.910908 
L 673.800051 62.812126 
L 668.181012 178.569932 
L 662.561973 158.283359 
L 656.942933 71.979611 
L 651.323894 102.256584 
L 645.704854 94.783431 
L 640.085815 124.186155 
L 634.466775 173.763655 
L 628.847736 104.514787 
L 623.228696 62.837978 
L 617.609657 119.032517 
L 611.990617 185.781031 
L 606.371578 144.69483 
L 600.752539 114.831187 
L 595.133499 85.393086 
L 589.51446 72.521423 
L 583.89542 132.172029 
L 578.276381 117.422093 
L 572.657341 163.184691 
L 567.038302 186.465136 
L 561.419262 168.620839 
L 555.800223 107.582628 
L 550.181184 194.805868 
L 544.562144 102.807708 
L 538.943105 106.373986 
L 533.324065 86.873935 
L 527.705026 128.717874 
L 522.085986 104.833227 
L 516.466947 127.45845 
L 510.847907 169.021216 
L 505.228868 31.28541 
L 499.609828 181.824418 
L 493.990789 156.335345 
L 488.37175 90.686102 
L 482.75271 91.758706 
L 477.133671 139.8986 
L 471.514631 146.818833 
L 465.895592 83.475725 
L 460.276552 197.708445 
L 454.657513 133.79083 
L 449.038473 38.484659 
L 443.419434 139.853573 
L 437.800395 160.685949 
L 432.181355 94.549252 
L 426.562316 112.845573 
L 420.943276 119.148051 
L 415.324237 121.040898 
L 409.705197 156.277158 
L 404.086158 28.038182 
L 398.467118 158.616023 
L 392.848079 158.65707 
L 387.229039 112.815985 
L 381.61 200.914272 
L 375.990961 77.32398 
L 370.371921 143.98724 
L 364.752882 148.932611 
L 359.133842 143.135784 
L 353.514803 116.373639 
L 347.895763 106.918859 
L 342.276724 177.87644 
L 336.657684 118.203856 
L 331.038645 47.831951 
L 325.419605 124.761936 
L 319.800566 156.308141 
L 314.181527 92.7269 
L 308.562487 128.592056 
L 302.943448 128.090023 
L 297.324408 121.597266 
L 291.705369 149.72519 
L 286.086329 117.465401 
L 280.46729 136.595979 
L 274.84825 151.065185 
L 269.229211 131.002093 
L 263.610172 158.283935 
L 257.991132 130.016919 
L 252.372093 162.790101 
L 246.753053 127.480747 
L 241.134014 145.929232 
L 235.514974 110.377061 
L 229.895935 111.446698 
L 224.276895 53.16388 
L 218.657856 116.086998 
L 213.038816 150.911925 
L 207.419777 125.854773 
L 201.800738 88.038785 
L 196.181698 82.476434 
L 190.562659 93.784708 
L 184.943619 71.008916 
L 179.32458 143.934727 
L 173.70554 122.545254 
L 168.086501 123.313442 
L 162.467461 165.474096 
L 156.848422 153.252048 
L 151.229383 136.089997 
L 145.610343 103.720439 
L 139.991304 192.677857 
L 134.372264 135.722705 
L 128.753225 166.692738 
L 123.134185 171.519129 
L 117.515146 144.056823 
L 111.896106 107.588272 
L 106.277067 196.335173 
L 100.658027 84.672627 
L 95.038988 155.167013 
L 89.419949 199.288731 
L 83.800909 148.634848 
z
" clip-path="url(#p2eea09e6cc)" style="fill: #1f77b4; fill-opacity: 0.2"/>
   </g>
   <g id="matplotlib.axis_1">
    <g id="xtick_1">
     <g id="line2d_1">
      <path d="M 80.963294 390.04 
L 80.963294 10.8 
" clip-path="url(#p2eea09e6cc)" style="fill: none; stroke: #b0b0b0; stroke-width: 0.8; stroke-linecap: square"/>
     </g>
     <g id="line2d_2">
      <defs>
       <path id="me637aace26" d="M 0 0 
L 0 3.5 
" style="stroke: #000000; stroke-width: 0.8"/>
      </defs>
      <g>
       <use xlink:href="#me637aace26" x="80.963294" y="390.04" style="stroke: #000000; stroke-width: 0.8"/>
      </g>
     </g>
     <g id="text_1">
      <!-- 0 -->
      <g transform="translate(77.782044 404.638438) scale(0.1 -0.1)">
       <defs>
        <path id="DejaVuSans-30" d="M 2034 4250 
Q 1547 4250 1301 3770 
Q 1056 3291 1056 2328 
Q 1056 1369 1301 889 
Q 1547 409 2034 409 
Q 2525 409 2770 889 
Q 3016 1369 3016 2328 
Q 3016 3291 2770 3770 
Q 2525 4250 2034 4250 
z
M 2034 4750 
Q 2819 4750 3233 4129 
Q 3647 3509 3647 2328 
Q 3647 1150 3233 529 
Q 2819 -91 2034 -91 
Q 1250 -91 836 529 
Q 422 1150 422 2328 
Q 422 3509 836 4129 
Q 1250 4750 2034 4750 
z
" transform="scale(0.015625)"/>
       </defs>
       <use xlink:href="#DejaVuSans-30"/>
      </g>
     </g>
    </g>
    <g id="xtick_2">
     <g id="line2d_3">
      <path d="M 221.43928 390.04 
L 221.43928 10.8 
" clip-path="url(#p2eea09e6cc)" style="fill: none; stroke: #b0b0b0; stroke-width: 0.8; stroke-linecap: square"/>
     </g>
     <g id="line2d_4">
      <g>
       <use xlink:href="#me637aace26" x="221.43928" y="390.04" style="stroke: #000000; stroke-width: 0.8"/>
      </g>
     </g>
     <g id="text_2">
      <!-- 5000 -->
      <g transform="translate(208.71428 404.638438) scale(0.1 -0.1)">
       <defs>
        <path id="DejaVuSans-35" d="M 691 4666 
L 3169 4666 
L 3169 4134 
L 1269 4134 
L 1269 2991 
Q 1406 3038 1543 3061 
Q 1681 3084 1819 3084 
Q 2600 3084 3056 2656 
Q 3513 2228 3513 1497 
Q 3513 744 3044 326 
Q 2575 -91 1722 -91 
Q 1428 -91 1123 -41 
Q 819 9 494 109 
L 494 744 
Q 775 591 1075 516 
Q 1375 441 1709 441 
Q 2250 441 2565 725 
Q 2881 1009 2881 1497 
Q 2881 1984 2565 2268 
Q 2250 2553 1709 2553 
Q 1456 2553 1204 2497 
Q 953 2441 691 2322 
L 691 4666 
z
" transform="scale(0.015625)"/>
       </defs>
       <use xlink:href="#DejaVuSans-35"/>
       <use xlink:href="#DejaVuSans-30" transform="translate(63.623047 0)"/>
       <use xlink:href="#DejaVuSans-30" transform="translate(127.246094 0)"/>
       <use xlink:href="#DejaVuSans-30" transform="translate(190.869141 0)"/>
      </g>
     </g>
    </g>
    <g id="xtick_3">
     <g id="line2d_5">
      <path d="M 361.915267 390.04 
L 361.915267 10.8 
" clip-path="url(#p2eea09e6cc)" style="fill: none; stroke: #b0b0b0; stroke-width: 0.8; stroke-linecap: square"/>
     </g>
     <g id="line2d_6">
      <g>
       <use xlink:href="#me637aace26" x="361.915267" y="390.04" style="stroke: #000000; stroke-width: 0.8"/>
      </g>
     </g>
     <g id="text_3">
      <!-- 10000 -->
      <g transform="translate(346.009017 404.638438) scale(0.1 -0.1)">
       <defs>
        <path id="DejaVuSans-31" d="M 794 531 
L 1825 531 
L 1825 4091 
L 703 3866 
L 703 4441 
L 1819 4666 
L 2450 4666 
L 2450 531 
L 3481 531 
L 3481 0 
L 794 0 
L 794 531 
z
" transform="scale(0.015625)"/>
       </defs>
       <use xlink:href="#DejaVuSans-31"/>
       <use xlink:href="#DejaVuSans-30" transform="translate(63.623047 0)"/>
       <use xlink:href="#DejaVuSans-30" transform="translate(127.246094 0)"/>
       <use xlink:href="#DejaVuSans-30" transform="translate(190.869141 0)"/>
       <use xlink:href="#DejaVuSans-30" transform="translate(254.492188 0)"/>
      </g>
     </g>
    </g>
    <g id="xtick_4">
     <g id="line2d_7">
      <path d="M 502.391253 390.04 
L 502.391253 10.8 
" clip-path="url(#p2eea09e6cc)" style="fill: none; stroke: #b0b0b0; stroke-width: 0.8; stroke-linecap: square"/>
     </g>
     <g id="line2d_8">
      <g>
       <use xlink:href="#me637aace26" x="502.391253" y="390.04" style="stroke: #000000; stroke-width: 0.8"/>
      </g>
     </g>
     <g id="text_4">
      <!-- 15000 -->
      <g transform="translate(486.485003 404.638438) scale(0.1 -0.1)">
       <use xlink:href="#DejaVuSans-31"/>
       <use xlink:href="#DejaVuSans-35" transform="translate(63.623047 0)"/>
       <use xlink:href="#DejaVuSans-30" transform="translate(127.246094 0)"/>
       <use xlink:href="#DejaVuSans-30" transform="translate(190.869141 0)"/>
       <use xlink:href="#DejaVuSans-30" transform="translate(254.492188 0)"/>
      </g>
     </g>
    </g>
    <g id="xtick_5">
     <g id="line2d_9">
      <path d="M 642.867239 390.04 
L 642.867239 10.8 
" clip-path="url(#p2eea09e6cc)" style="fill: none; stroke: #b0b0b0; stroke-width: 0.8; stroke-linecap: square"/>
     </g>
     <g id="line2d_10">
      <g>
       <use xlink:href="#me637aace26" x="642.867239" y="390.04" style="stroke: #000000; stroke-width: 0.8"/>
      </g>
     </g>
     <g id="text_5">
      <!-- 20000 -->
      <g transform="translate(626.960989 404.638438) scale(0.1 -0.1)">
       <defs>
        <path id="DejaVuSans-32" d="M 1228 531 
L 3431 531 
L 3431 0 
L 469 0 
L 469 531 
Q 828 903 1448 1529 
Q 2069 2156 2228 2338 
Q 2531 2678 2651 2914 
Q 2772 3150 2772 3378 
Q 2772 3750 2511 3984 
Q 2250 4219 1831 4219 
Q 1534 4219 1204 4116 
Q 875 4013 500 3803 
L 500 4441 
Q 881 4594 1212 4672 
Q 1544 4750 1819 4750 
Q 2544 4750 2975 4387 
Q 3406 4025 3406 3419 
Q 3406 3131 3298 2873 
Q 3191 2616 2906 2266 
Q 2828 2175 2409 1742 
Q 1991 1309 1228 531 
z
" transform="scale(0.015625)"/>
       </defs>
       <use xlink:href="#DejaVuSans-32"/>
       <use xlink:href="#DejaVuSans-30" transform="translate(63.623047 0)"/>
       <use xlink:href="#DejaVuSans-30" transform="translate(127.246094 0)"/>
       <use xlink:href="#DejaVuSans-30" transform="translate(190.869141 0)"/>
       <use xlink:href="#DejaVuSans-30" transform="translate(254.492188 0)"/>
      </g>
     </g>
    </g>
    <g id="text_6">
     <!-- Episodes -->
     <g transform="translate(359.367813 418.316562) scale(0.1 -0.1)">
      <defs>
       <path id="DejaVuSans-45" d="M 628 4666 
L 3578 4666 
L 3578 4134 
L 1259 4134 
L 1259 2753 
L 3481 2753 
L 3481 2222 
L 1259 2222 
L 1259 531 
L 3634 531 
L 3634 0 
L 628 0 
L 628 4666 
z
" transform="scale(0.015625)"/>
       <path id="DejaVuSans-70" d="M 1159 525 
L 1159 -1331 
L 581 -1331 
L 581 3500 
L 1159 3500 
L 1159 2969 
Q 1341 3281 1617 3432 
Q 1894 3584 2278 3584 
Q 2916 3584 3314 3078 
Q 3713 2572 3713 1747 
Q 3713 922 3314 415 
Q 2916 -91 2278 -91 
Q 1894 -91 1617 61 
Q 1341 213 1159 525 
z
M 3116 1747 
Q 3116 2381 2855 2742 
Q 2594 3103 2138 3103 
Q 1681 3103 1420 2742 
Q 1159 2381 1159 1747 
Q 1159 1113 1420 752 
Q 1681 391 2138 391 
Q 2594 391 2855 752 
Q 3116 1113 3116 1747 
z
" transform="scale(0.015625)"/>
       <path id="DejaVuSans-69" d="M 603 3500 
L 1178 3500 
L 1178 0 
L 603 0 
L 603 3500 
z
M 603 4863 
L 1178 4863 
L 1178 4134 
L 603 4134 
L 603 4863 
z
" transform="scale(0.015625)"/>
       <path id="DejaVuSans-73" d="M 2834 3397 
L 2834 2853 
Q 2591 2978 2328 3040 
Q 2066 3103 1784 3103 
Q 1356 3103 1142 2972 
Q 928 2841 928 2578 
Q 928 2378 1081 2264 
Q 1234 2150 1697 2047 
L 1894 2003 
Q 2506 1872 2764 1633 
Q 3022 1394 3022 966 
Q 3022 478 2636 193 
Q 2250 -91 1575 -91 
Q 1294 -91 989 -36 
Q 684 19 347 128 
L 347 722 
Q 666 556 975 473 
Q 1284 391 1588 391 
Q 1994 391 2212 530 
Q 2431 669 2431 922 
Q 2431 1156 2273 1281 
Q 2116 1406 1581 1522 
L 1381 1569 
Q 847 1681 609 1914 
Q 372 2147 372 2553 
Q 372 3047 722 3315 
Q 1072 3584 1716 3584 
Q 2034 3584 2315 3537 
Q 2597 3491 2834 3397 
z
" transform="scale(0.015625)"/>
       <path id="DejaVuSans-6f" d="M 1959 3097 
Q 1497 3097 1228 2736 
Q 959 2375 959 1747 
Q 959 1119 1226 758 
Q 1494 397 1959 397 
Q 2419 397 2687 759 
Q 2956 1122 2956 1747 
Q 2956 2369 2687 2733 
Q 2419 3097 1959 3097 
z
M 1959 3584 
Q 2709 3584 3137 3096 
Q 3566 2609 3566 1747 
Q 3566 888 3137 398 
Q 2709 -91 1959 -91 
Q 1206 -91 779 398 
Q 353 888 353 1747 
Q 353 2609 779 3096 
Q 1206 3584 1959 3584 
z
" transform="scale(0.015625)"/>
       <path id="DejaVuSans-64" d="M 2906 2969 
L 2906 4863 
L 3481 4863 
L 3481 0 
L 2906 0 
L 2906 525 
Q 2725 213 2448 61 
Q 2172 -91 1784 -91 
Q 1150 -91 751 415 
Q 353 922 353 1747 
Q 353 2572 751 3078 
Q 1150 3584 1784 3584 
Q 2172 3584 2448 3432 
Q 2725 3281 2906 2969 
z
M 947 1747 
Q 947 1113 1208 752 
Q 1469 391 1925 391 
Q 2381 391 2643 752 
Q 2906 1113 2906 1747 
Q 2906 2381 2643 2742 
Q 2381 3103 1925 3103 
Q 1469 3103 1208 2742 
Q 947 2381 947 1747 
z
" transform="scale(0.015625)"/>
       <path id="DejaVuSans-65" d="M 3597 1894 
L 3597 1613 
L 953 1613 
Q 991 1019 1311 708 
Q 1631 397 2203 397 
Q 2534 397 2845 478 
Q 3156 559 3463 722 
L 3463 178 
Q 3153 47 2828 -22 
Q 2503 -91 2169 -91 
Q 1331 -91 842 396 
Q 353 884 353 1716 
Q 353 2575 817 3079 
Q 1281 3584 2069 3584 
Q 2775 3584 3186 3129 
Q 3597 2675 3597 1894 
z
M 3022 2063 
Q 3016 2534 2758 2815 
Q 2500 3097 2075 3097 
Q 1594 3097 1305 2825 
Q 1016 2553 972 2059 
L 3022 2063 
z
" transform="scale(0.015625)"/>
      </defs>
      <use xlink:href="#DejaVuSans-45"/>
      <use xlink:href="#DejaVuSans-70" transform="translate(63.183594 0)"/>
      <use xlink:href="#DejaVuSans-69" transform="translate(126.660156 0)"/>
      <use xlink:href="#DejaVuSans-73" transform="translate(154.443359 0)"/>
      <use xlink:href="#DejaVuSans-6f" transform="translate(206.542969 0)"/>
      <use xlink:href="#DejaVuSans-64" transform="translate(267.724609 0)"/>
      <use xlink:href="#DejaVuSans-65" transform="translate(331.201172 0)"/>
      <use xlink:href="#DejaVuSans-73" transform="translate(392.724609 0)"/>
     </g>
    </g>
   </g>
   <g id="matplotlib.axis_2">
    <g id="ytick_1">
     <g id="line2d_11">
      <path d="M 54.02 376.184563 
L 709.2 376.184563 
" clip-path="url(#p2eea09e6cc)" style="fill: none; stroke: #b0b0b0; stroke-width: 0.8; stroke-linecap: square"/>
     </g>
     <g id="line2d_12">
      <defs>
       <path id="m1843d9c052" d="M 0 0 
L -3.5 0 
" style="stroke: #000000; stroke-width: 0.8"/>
      </defs>
      <g>
       <use xlink:href="#m1843d9c052" x="54.02" y="376.184563" style="stroke: #000000; stroke-width: 0.8"/>
      </g>
     </g>
     <g id="text_7">
      <!-- 0.0 -->
      <g transform="translate(31.116875 379.983782) scale(0.1 -0.1)">
       <defs>
        <path id="DejaVuSans-2e" d="M 684 794 
L 1344 794 
L 1344 0 
L 684 0 
L 684 794 
z
" transform="scale(0.015625)"/>
       </defs>
       <use xlink:href="#DejaVuSans-30"/>
       <use xlink:href="#DejaVuSans-2e" transform="translate(63.623047 0)"/>
       <use xlink:href="#DejaVuSans-30" transform="translate(95.410156 0)"/>
      </g>
     </g>
    </g>
    <g id="ytick_2">
     <g id="line2d_13">
      <path d="M 54.02 329.600029 
L 709.2 329.600029 
" clip-path="url(#p2eea09e6cc)" style="fill: none; stroke: #b0b0b0; stroke-width: 0.8; stroke-linecap: square"/>
     </g>
     <g id="line2d_14">
      <g>
       <use xlink:href="#m1843d9c052" x="54.02" y="329.600029" style="stroke: #000000; stroke-width: 0.8"/>
      </g>
     </g>
     <g id="text_8">
      <!-- 2.5 -->
      <g transform="translate(31.116875 333.399247) scale(0.1 -0.1)">
       <use xlink:href="#DejaVuSans-32"/>
       <use xlink:href="#DejaVuSans-2e" transform="translate(63.623047 0)"/>
       <use xlink:href="#DejaVuSans-35" transform="translate(95.410156 0)"/>
      </g>
     </g>
    </g>
    <g id="ytick_3">
     <g id="line2d_15">
      <path d="M 54.02 283.015494 
L 709.2 283.015494 
" clip-path="url(#p2eea09e6cc)" style="fill: none; stroke: #b0b0b0; stroke-width: 0.8; stroke-linecap: square"/>
     </g>
     <g id="line2d_16">
      <g>
       <use xlink:href="#m1843d9c052" x="54.02" y="283.015494" style="stroke: #000000; stroke-width: 0.8"/>
      </g>
     </g>
     <g id="text_9">
      <!-- 5.0 -->
      <g transform="translate(31.116875 286.814713) scale(0.1 -0.1)">
       <use xlink:href="#DejaVuSans-35"/>
       <use xlink:href="#DejaVuSans-2e" transform="translate(63.623047 0)"/>
       <use xlink:href="#DejaVuSans-30" transform="translate(95.410156 0)"/>
      </g>
     </g>
    </g>
    <g id="ytick_4">
     <g id="line2d_17">
      <path d="M 54.02 236.430959 
L 709.2 236.430959 
" clip-path="url(#p2eea09e6cc)" style="fill: none; stroke: #b0b0b0; stroke-width: 0.8; stroke-linecap: square"/>
     </g>
     <g id="line2d_18">
      <g>
       <use xlink:href="#m1843d9c052" x="54.02" y="236.430959" style="stroke: #000000; stroke-width: 0.8"/>
      </g>
     </g>
     <g id="text_10">
      <!-- 7.5 -->
      <g transform="translate(31.116875 240.230178) scale(0.1 -0.1)">
       <defs>
        <path id="DejaVuSans-37" d="M 525 4666 
L 3525 4666 
L 3525 4397 
L 1831 0 
L 1172 0 
L 2766 4134 
L 525 4134 
L 525 4666 
z
" transform="scale(0.015625)"/>
       </defs>
       <use xlink:href="#DejaVuSans-37"/>
       <use xlink:href="#DejaVuSans-2e" transform="translate(63.623047 0)"/>
       <use xlink:href="#DejaVuSans-35" transform="translate(95.410156 0)"/>
      </g>
     </g>
    </g>
    <g id="ytick_5">
     <g id="line2d_19">
      <path d="M 54.02 189.846425 
L 709.2 189.846425 
" clip-path="url(#p2eea09e6cc)" style="fill: none; stroke: #b0b0b0; stroke-width: 0.8; stroke-linecap: square"/>
     </g>
     <g id="line2d_20">
      <g>
       <use xlink:href="#m1843d9c052" x="54.02" y="189.846425" style="stroke: #000000; stroke-width: 0.8"/>
      </g>
     </g>
     <g id="text_11">
      <!-- 10.0 -->
      <g transform="translate(24.754375 193.645644) scale(0.1 -0.1)">
       <use xlink:href="#DejaVuSans-31"/>
       <use xlink:href="#DejaVuSans-30" transform="translate(63.623047 0)"/>
       <use xlink:href="#DejaVuSans-2e" transform="translate(127.246094 0)"/>
       <use xlink:href="#DejaVuSans-30" transform="translate(159.033203 0)"/>
      </g>
     </g>
    </g>
    <g id="ytick_6">
     <g id="line2d_21">
      <path d="M 54.02 143.26189 
L 709.2 143.26189 
" clip-path="url(#p2eea09e6cc)" style="fill: none; stroke: #b0b0b0; stroke-width: 0.8; stroke-linecap: square"/>
     </g>
     <g id="line2d_22">
      <g>
       <use xlink:href="#m1843d9c052" x="54.02" y="143.26189" style="stroke: #000000; stroke-width: 0.8"/>
      </g>
     </g>
     <g id="text_12">
      <!-- 12.5 -->
      <g transform="translate(24.754375 147.061109) scale(0.1 -0.1)">
       <use xlink:href="#DejaVuSans-31"/>
       <use xlink:href="#DejaVuSans-32" transform="translate(63.623047 0)"/>
       <use xlink:href="#DejaVuSans-2e" transform="translate(127.246094 0)"/>
       <use xlink:href="#DejaVuSans-35" transform="translate(159.033203 0)"/>
      </g>
     </g>
    </g>
    <g id="ytick_7">
     <g id="line2d_23">
      <path d="M 54.02 96.677356 
L 709.2 96.677356 
" clip-path="url(#p2eea09e6cc)" style="fill: none; stroke: #b0b0b0; stroke-width: 0.8; stroke-linecap: square"/>
     </g>
     <g id="line2d_24">
      <g>
       <use xlink:href="#m1843d9c052" x="54.02" y="96.677356" style="stroke: #000000; stroke-width: 0.8"/>
      </g>
     </g>
     <g id="text_13">
      <!-- 15.0 -->
      <g transform="translate(24.754375 100.476574) scale(0.1 -0.1)">
       <use xlink:href="#DejaVuSans-31"/>
       <use xlink:href="#DejaVuSans-35" transform="translate(63.623047 0)"/>
       <use xlink:href="#DejaVuSans-2e" transform="translate(127.246094 0)"/>
       <use xlink:href="#DejaVuSans-30" transform="translate(159.033203 0)"/>
      </g>
     </g>
    </g>
    <g id="ytick_8">
     <g id="line2d_25">
      <path d="M 54.02 50.092821 
L 709.2 50.092821 
" clip-path="url(#p2eea09e6cc)" style="fill: none; stroke: #b0b0b0; stroke-width: 0.8; stroke-linecap: square"/>
     </g>
     <g id="line2d_26">
      <g>
       <use xlink:href="#m1843d9c052" x="54.02" y="50.092821" style="stroke: #000000; stroke-width: 0.8"/>
      </g>
     </g>
     <g id="text_14">
      <!-- 17.5 -->
      <g transform="translate(24.754375 53.89204) scale(0.1 -0.1)">
       <use xlink:href="#DejaVuSans-31"/>
       <use xlink:href="#DejaVuSans-37" transform="translate(63.623047 0)"/>
       <use xlink:href="#DejaVuSans-2e" transform="translate(127.246094 0)"/>
       <use xlink:href="#DejaVuSans-35" transform="translate(159.033203 0)"/>
      </g>
     </g>
    </g>
    <g id="text_15">
     <!-- Reward -->
     <g transform="translate(18.674688 219.041094) rotate(-90) scale(0.1 -0.1)">
      <defs>
       <path id="DejaVuSans-52" d="M 2841 2188 
Q 3044 2119 3236 1894 
Q 3428 1669 3622 1275 
L 4263 0 
L 3584 0 
L 2988 1197 
Q 2756 1666 2539 1819 
Q 2322 1972 1947 1972 
L 1259 1972 
L 1259 0 
L 628 0 
L 628 4666 
L 2053 4666 
Q 2853 4666 3247 4331 
Q 3641 3997 3641 3322 
Q 3641 2881 3436 2590 
Q 3231 2300 2841 2188 
z
M 1259 4147 
L 1259 2491 
L 2053 2491 
Q 2509 2491 2742 2702 
Q 2975 2913 2975 3322 
Q 2975 3731 2742 3939 
Q 2509 4147 2053 4147 
L 1259 4147 
z
" transform="scale(0.015625)"/>
       <path id="DejaVuSans-77" d="M 269 3500 
L 844 3500 
L 1563 769 
L 2278 3500 
L 2956 3500 
L 3675 769 
L 4391 3500 
L 4966 3500 
L 4050 0 
L 3372 0 
L 2619 2869 
L 1863 0 
L 1184 0 
L 269 3500 
z
" transform="scale(0.015625)"/>
       <path id="DejaVuSans-61" d="M 2194 1759 
Q 1497 1759 1228 1600 
Q 959 1441 959 1056 
Q 959 750 1161 570 
Q 1363 391 1709 391 
Q 2188 391 2477 730 
Q 2766 1069 2766 1631 
L 2766 1759 
L 2194 1759 
z
M 3341 1997 
L 3341 0 
L 2766 0 
L 2766 531 
Q 2569 213 2275 61 
Q 1981 -91 1556 -91 
Q 1019 -91 701 211 
Q 384 513 384 1019 
Q 384 1609 779 1909 
Q 1175 2209 1959 2209 
L 2766 2209 
L 2766 2266 
Q 2766 2663 2505 2880 
Q 2244 3097 1772 3097 
Q 1472 3097 1187 3025 
Q 903 2953 641 2809 
L 641 3341 
Q 956 3463 1253 3523 
Q 1550 3584 1831 3584 
Q 2591 3584 2966 3190 
Q 3341 2797 3341 1997 
z
" transform="scale(0.015625)"/>
       <path id="DejaVuSans-72" d="M 2631 2963 
Q 2534 3019 2420 3045 
Q 2306 3072 2169 3072 
Q 1681 3072 1420 2755 
Q 1159 2438 1159 1844 
L 1159 0 
L 581 0 
L 581 3500 
L 1159 3500 
L 1159 2956 
Q 1341 3275 1631 3429 
Q 1922 3584 2338 3584 
Q 2397 3584 2469 3576 
Q 2541 3569 2628 3553 
L 2631 2963 
z
" transform="scale(0.015625)"/>
      </defs>
      <use xlink:href="#DejaVuSans-52"/>
      <use xlink:href="#DejaVuSans-65" transform="translate(64.982422 0)"/>
      <use xlink:href="#DejaVuSans-77" transform="translate(126.505859 0)"/>
      <use xlink:href="#DejaVuSans-61" transform="translate(208.292969 0)"/>
      <use xlink:href="#DejaVuSans-72" transform="translate(269.572266 0)"/>
      <use xlink:href="#DejaVuSans-64" transform="translate(308.935547 0)"/>
     </g>
    </g>
   </g>
   <g id="line2d_27">
    <path d="M 83.800909 252.766498 
L 89.419949 273.722085 
L 95.038988 255.658569 
L 100.658027 220.147903 
L 106.277067 270.367325 
L 111.896106 233.700897 
L 117.515146 249.407598 
L 123.134185 262.194121 
L 128.753225 257.836707 
L 134.372264 245.363905 
L 139.991304 271.400622 
L 145.610343 230.138164 
L 151.229383 245.299411 
L 156.848422 254.406998 
L 162.467461 257.187318 
L 168.086501 241.488899 
L 173.70554 239.468684 
L 179.32458 248.689212 
L 184.943619 220.010945 
L 190.562659 225.48178 
L 196.181698 221.913354 
L 201.800738 228.176075 
L 207.419777 239.616512 
L 213.038816 251.834289 
L 218.657856 239.439077 
L 224.276895 211.421585 
L 229.895935 234.148264 
L 235.514974 233.170558 
L 241.134014 249.980743 
L 246.753053 241.979486 
L 252.372093 258.795106 
L 257.991132 243.142495 
L 263.610172 254.572321 
L 269.229211 245.412042 
L 274.84825 251.745054 
L 280.46729 246.224062 
L 286.086329 235.969771 
L 291.705369 249.543987 
L 297.324408 239.709112 
L 302.943448 241.889837 
L 308.562487 242.213548 
L 314.181527 227.569441 
L 319.800566 256.345484 
L 325.419605 242.996944 
L 331.038645 209.762036 
L 336.657684 240.037895 
L 342.276724 264.786602 
L 347.895763 233.453637 
L 353.514803 239.242697 
L 359.133842 248.379736 
L 364.752882 253.56858 
L 370.371921 249.136631 
L 375.990961 220.694599 
L 381.61 274.596632 
L 387.229039 235.84363 
L 392.848079 254.760523 
L 398.467118 255.016738 
L 404.086158 198.671139 
L 409.705197 252.118507 
L 415.324237 239.131256 
L 420.943276 236.726925 
L 426.562316 234.995533 
L 432.181355 230.280195 
L 437.800395 252.299824 
L 443.419434 245.24734 
L 449.038473 205.643239 
L 454.657513 246.325358 
L 460.276552 271.381212 
L 465.895592 223.662085 
L 471.514631 251.617516 
L 477.133671 249.514328 
L 482.75271 226.809026 
L 488.37175 226.171076 
L 493.990789 252.327723 
L 499.609828 264.888259 
L 505.228868 201.763472 
L 510.847907 260.600619 
L 516.466947 241.675548 
L 522.085986 231.732338 
L 527.705026 241.997189 
L 533.324065 218.099788 
L 538.943105 233.425686 
L 544.562144 228.980745 
L 550.181184 269.476215 
L 555.800223 230.218185 
L 561.419262 261.093276 
L 567.038302 268.738782 
L 572.657341 258.354416 
L 578.276381 240.180547 
L 583.89542 245.45785 
L 589.51446 217.397449 
L 595.133499 221.358221 
L 600.752539 236.557771 
L 606.371578 245.735235 
L 611.990617 268.017291 
L 617.609657 236.539396 
L 623.228696 216.265496 
L 628.847736 230.644227 
L 634.466775 260.635402 
L 640.085815 242.297193 
L 645.704854 230.42207 
L 651.323894 233.638163 
L 656.942933 220.496614 
L 662.561973 254.912699 
L 668.181012 261.617042 
L 673.800051 211.682199 
L 679.419091 250.03152 
" clip-path="url(#p2eea09e6cc)" style="fill: none; stroke: #1f77b4; stroke-width: 1.5; stroke-linecap: square"/>
   </g>
   <g id="patch_3">
    <path d="M 54.02 390.04 
L 54.02 10.8 
" style="fill: none; stroke: #000000; stroke-width: 0.8; stroke-linejoin: miter; stroke-linecap: square"/>
   </g>
   <g id="patch_4">
    <path d="M 709.2 390.04 
L 709.2 10.8 
" style="fill: none; stroke: #000000; stroke-width: 0.8; stroke-linejoin: miter; stroke-linecap: square"/>
   </g>
   <g id="patch_5">
    <path d="M 54.02 390.04 
L 709.2 390.04 
" style="fill: none; stroke: #000000; stroke-width: 0.8; stroke-linejoin: miter; stroke-linecap: square"/>
   </g>
   <g id="patch_6">
    <path d="M 54.02 10.8 
L 709.2 10.8 
" style="fill: none; stroke: #000000; stroke-width: 0.8; stroke-linejoin: miter; stroke-linecap: square"/>
   </g>
  </g>
 </g>
 <defs>
  <clipPath id="p2eea09e6cc">
   <rect x="54.02" y="10.8" width="655.18" height="379.24"/>
  </clipPath>
 </defs>
</svg>
