<?xml version="1.0" encoding="utf-8" standalone="no"?>
<!DOCTYPE svg PUBLIC "-//W3C//DTD SVG 1.1//EN"
  "http://www.w3.org/Graphics/SVG/1.1/DTD/svg11.dtd">
<svg xmlns:xlink="http://www.w3.org/1999/xlink" width="720pt" height="432pt" viewBox="0 0 720 432" xmlns="http://www.w3.org/2000/svg" version="1.1">
 <metadata>
  <rdf:RDF xmlns:dc="http://purl.org/dc/elements/1.1/" xmlns:cc="http://creativecommons.org/ns#" xmlns:rdf="http://www.w3.org/1999/02/22-rdf-syntax-ns#">
   <cc:Work>
    <dc:type rdf:resource="http://purl.org/dc/dcmitype/StillImage"/>
    <dc:date>2025-04-16T01:06:54.775890</dc:date>
    <dc:format>image/svg+xml</dc:format>
    <dc:creator>
     <cc:Agent>
      <dc:title>Matplotlib v3.10.0, https://matplotlib.org/</dc:title>
     </cc:Agent>
    </dc:creator>
   </cc:Work>
  </rdf:RDF>
 </metadata>
 <defs>
  <style type="text/css">*{stroke-linejoin: round; stroke-linecap: butt}</style>
 </defs>
 <g id="figure_1">
  <g id="patch_1">
   <path d="M 0 432 
L 720 432 
L 720 0 
L 0 0 
z
" style="fill: #ffffff"/>
  </g>
  <g id="axes_1">
   <g id="patch_2">
    <path d="M 47.72 390.04 
L 709.2 390.04 
L 709.2 10.8 
L 47.72 10.8 
z
" style="fill: #ffffff"/>
   </g>
   <g id="FillBetweenPolyCollection_1">
    <path d="M 77.787273 45.63371 
L 77.787273 337.10184 
L 83.460343 361.754577 
L 89.133413 347.826119 
L 94.806484 354.153319 
L 100.479554 347.853469 
L 106.152624 348.857589 
L 111.825695 362.679555 
L 117.498765 343.545401 
L 123.171835 351.009769 
L 128.844906 346.614534 
L 134.517976 350.852419 
L 140.191046 348.755879 
L 145.864117 352.355214 
L 151.537187 345.839316 
L 157.210257 350.370757 
L 162.883328 344.201441 
L 168.556398 321.614541 
L 174.229468 335.369952 
L 179.902539 349.258298 
L 185.575609 358.823571 
L 191.248679 357.146411 
L 196.92175 362.703762 
L 202.59482 345.757963 
L 208.26789 345.802796 
L 213.940961 355.795406 
L 219.614031 361.370291 
L 225.287101 363.475978 
L 230.960172 350.375836 
L 236.633242 357.821546 
L 242.306312 330.968201 
L 247.979383 360.353268 
L 253.652453 344.577118 
L 259.325523 341.102314 
L 264.998593 359.306978 
L 270.671664 335.396795 
L 276.344734 357.074029 
L 282.017804 347.605569 
L 287.690875 358.152691 
L 293.363945 352.321026 
L 299.037015 362.071044 
L 304.710086 349.382297 
L 310.383156 362.698653 
L 316.056226 350.239859 
L 321.729297 336.439639 
L 327.402367 355.171011 
L 333.075437 358.587003 
L 338.748508 347.697068 
L 344.421578 344.382171 
L 350.094648 334.958226 
L 355.767719 350.072702 
L 361.440789 336.896726 
L 367.113859 359.889294 
L 372.78693 340.103557 
L 378.46 352.131576 
L 384.13307 342.851968 
L 389.806141 353.469045 
L 395.479211 355.400009 
L 401.152281 322.834658 
L 406.825352 342.406348 
L 412.498422 363.9396 
L 418.171492 358.75009 
L 423.844563 341.577779 
L 429.517633 370.995477 
L 435.190703 351.86054 
L 440.863774 339.854295 
L 446.536844 342.20601 
L 452.209914 348.599572 
L 457.882985 333.089789 
L 463.556055 353.868127 
L 469.229125 358.511059 
L 474.902196 354.62485 
L 480.575266 337.304819 
L 486.248336 359.608706 
L 491.921407 361.36382 
L 497.594477 360.65804 
L 503.267547 334.019249 
L 508.940617 364.767422 
L 514.613688 344.717071 
L 520.286758 346.573807 
L 525.959828 345.87148 
L 531.632899 352.081704 
L 537.305969 322.796717 
L 542.979039 330.442012 
L 548.65211 366.476336 
L 554.32518 316.932422 
L 559.99825 352.13349 
L 565.671321 372.801818 
L 571.344391 368.051321 
L 577.017461 327.506924 
L 582.690532 347.342912 
L 588.363602 350.453881 
L 594.036672 355.737535 
L 599.709743 357.650476 
L 605.382813 328.82447 
L 611.055883 349.883354 
L 616.728954 347.714471 
L 622.402024 345.790629 
L 628.075094 362.204241 
L 633.748165 354.651804 
L 639.421235 349.704617 
L 645.094305 366.084367 
L 650.767376 362.667749 
L 656.440446 341.374134 
L 662.113516 358.847972 
L 667.786587 358.673964 
L 673.459657 334.284883 
L 679.132727 365.263681 
L 679.132727 51.689246 
L 679.132727 51.689246 
L 673.459657 54.081375 
L 667.786587 53.081388 
L 662.113516 62.436269 
L 656.440446 51.323437 
L 650.767376 56.017704 
L 645.094305 59.098057 
L 639.421235 52.521844 
L 633.748165 51.47284 
L 628.075094 79.004042 
L 622.402024 62.499671 
L 616.728954 40.651786 
L 611.055883 64.470785 
L 605.382813 35.286431 
L 599.709743 55.404269 
L 594.036672 56.017817 
L 588.363602 53.071974 
L 582.690532 58.781731 
L 577.017461 29.240744 
L 571.344391 47.602212 
L 565.671321 52.813737 
L 559.99825 42.729738 
L 554.32518 38.08272 
L 548.65211 58.272956 
L 542.979039 28.038182 
L 537.305969 30.052769 
L 531.632899 52.743546 
L 525.959828 55.92185 
L 520.286758 53.920128 
L 514.613688 36.719085 
L 508.940617 59.98187 
L 503.267547 42.652462 
L 497.594477 48.931654 
L 491.921407 43.461429 
L 486.248336 34.388259 
L 480.575266 55.392752 
L 474.902196 63.627471 
L 469.229125 53.244292 
L 463.556055 59.619749 
L 457.882985 31.454243 
L 452.209914 55.359414 
L 446.536844 46.593379 
L 440.863774 56.308327 
L 435.190703 45.601476 
L 429.517633 52.02129 
L 423.844563 34.227668 
L 418.171492 46.075159 
L 412.498422 61.242823 
L 406.825352 38.163545 
L 401.152281 49.505739 
L 395.479211 65.451101 
L 389.806141 47.024891 
L 384.13307 52.877523 
L 378.46 61.789432 
L 372.78693 55.192803 
L 367.113859 44.069693 
L 361.440789 40.641248 
L 355.767719 48.688708 
L 350.094648 33.91712 
L 344.421578 50.914188 
L 338.748508 35.471613 
L 333.075437 50.56956 
L 327.402367 55.718077 
L 321.729297 48.461568 
L 316.056226 58.483572 
L 310.383156 59.451851 
L 304.710086 47.646588 
L 299.037015 47.51865 
L 293.363945 49.472304 
L 287.690875 67.029732 
L 282.017804 53.321498 
L 276.344734 61.178292 
L 270.671664 38.676127 
L 264.998593 55.913424 
L 259.325523 56.792834 
L 253.652453 46.821059 
L 247.979383 56.599659 
L 242.306312 40.939065 
L 236.633242 50.901885 
L 230.960172 47.952442 
L 225.287101 56.508869 
L 219.614031 55.582637 
L 213.940961 60.72439 
L 208.26789 49.493563 
L 202.59482 46.939608 
L 196.92175 52.949771 
L 191.248679 59.373385 
L 185.575609 50.332992 
L 179.902539 45.171799 
L 174.229468 44.333678 
L 168.556398 48.127068 
L 162.883328 43.298554 
L 157.210257 37.129238 
L 151.537187 47.724518 
L 145.864117 52.903167 
L 140.191046 43.075429 
L 134.517976 42.278283 
L 128.844906 52.580008 
L 123.171835 42.554065 
L 117.498765 50.884696 
L 111.825695 56.872161 
L 106.152624 44.706245 
L 100.479554 53.50673 
L 94.806484 55.003244 
L 89.133413 45.304584 
L 83.460343 63.427846 
L 77.787273 45.63371 
z
" clip-path="url(#p39a6fafb0e)" style="fill: #1f77b4; fill-opacity: 0.2"/>
   </g>
   <g id="matplotlib.axis_1">
    <g id="xtick_1">
     <g id="line2d_1">
      <path d="M 74.922372 390.04 
L 74.922372 10.8 
" clip-path="url(#p39a6fafb0e)" style="fill: none; stroke: #b0b0b0; stroke-width: 0.8; stroke-linecap: square"/>
     </g>
     <g id="line2d_2">
      <defs>
       <path id="m2dd109f98b" d="M 0 0 
L 0 3.5 
" style="stroke: #000000; stroke-width: 0.8"/>
      </defs>
      <g>
       <use xlink:href="#m2dd109f98b" x="74.922372" y="390.04" style="stroke: #000000; stroke-width: 0.8"/>
      </g>
     </g>
     <g id="text_1">
      <!-- 0 -->
      <g transform="translate(71.741122 404.638438) scale(0.1 -0.1)">
       <defs>
        <path id="DejaVuSans-30" d="M 2034 4250 
Q 1547 4250 1301 3770 
Q 1056 3291 1056 2328 
Q 1056 1369 1301 889 
Q 1547 409 2034 409 
Q 2525 409 2770 889 
Q 3016 1369 3016 2328 
Q 3016 3291 2770 3770 
Q 2525 4250 2034 4250 
z
M 2034 4750 
Q 2819 4750 3233 4129 
Q 3647 3509 3647 2328 
Q 3647 1150 3233 529 
Q 2819 -91 2034 -91 
Q 1250 -91 836 529 
Q 422 1150 422 2328 
Q 422 3509 836 4129 
Q 1250 4750 2034 4750 
z
" transform="scale(0.015625)"/>
       </defs>
       <use xlink:href="#DejaVuSans-30"/>
      </g>
     </g>
    </g>
    <g id="xtick_2">
     <g id="line2d_3">
      <path d="M 216.74913 390.04 
L 216.74913 10.8 
" clip-path="url(#p39a6fafb0e)" style="fill: none; stroke: #b0b0b0; stroke-width: 0.8; stroke-linecap: square"/>
     </g>
     <g id="line2d_4">
      <g>
       <use xlink:href="#m2dd109f98b" x="216.74913" y="390.04" style="stroke: #000000; stroke-width: 0.8"/>
      </g>
     </g>
     <g id="text_2">
      <!-- 5000 -->
      <g transform="translate(204.02413 404.638438) scale(0.1 -0.1)">
       <defs>
        <path id="DejaVuSans-35" d="M 691 4666 
L 3169 4666 
L 3169 4134 
L 1269 4134 
L 1269 2991 
Q 1406 3038 1543 3061 
Q 1681 3084 1819 3084 
Q 2600 3084 3056 2656 
Q 3513 2228 3513 1497 
Q 3513 744 3044 326 
Q 2575 -91 1722 -91 
Q 1428 -91 1123 -41 
Q 819 9 494 109 
L 494 744 
Q 775 591 1075 516 
Q 1375 441 1709 441 
Q 2250 441 2565 725 
Q 2881 1009 2881 1497 
Q 2881 1984 2565 2268 
Q 2250 2553 1709 2553 
Q 1456 2553 1204 2497 
Q 953 2441 691 2322 
L 691 4666 
z
" transform="scale(0.015625)"/>
       </defs>
       <use xlink:href="#DejaVuSans-35"/>
       <use xlink:href="#DejaVuSans-30" transform="translate(63.623047 0)"/>
       <use xlink:href="#DejaVuSans-30" transform="translate(127.246094 0)"/>
       <use xlink:href="#DejaVuSans-30" transform="translate(190.869141 0)"/>
      </g>
     </g>
    </g>
    <g id="xtick_3">
     <g id="line2d_5">
      <path d="M 358.575889 390.04 
L 358.575889 10.8 
" clip-path="url(#p39a6fafb0e)" style="fill: none; stroke: #b0b0b0; stroke-width: 0.8; stroke-linecap: square"/>
     </g>
     <g id="line2d_6">
      <g>
       <use xlink:href="#m2dd109f98b" x="358.575889" y="390.04" style="stroke: #000000; stroke-width: 0.8"/>
      </g>
     </g>
     <g id="text_3">
      <!-- 10000 -->
      <g transform="translate(342.669639 404.638438) scale(0.1 -0.1)">
       <defs>
        <path id="DejaVuSans-31" d="M 794 531 
L 1825 531 
L 1825 4091 
L 703 3866 
L 703 4441 
L 1819 4666 
L 2450 4666 
L 2450 531 
L 3481 531 
L 3481 0 
L 794 0 
L 794 531 
z
" transform="scale(0.015625)"/>
       </defs>
       <use xlink:href="#DejaVuSans-31"/>
       <use xlink:href="#DejaVuSans-30" transform="translate(63.623047 0)"/>
       <use xlink:href="#DejaVuSans-30" transform="translate(127.246094 0)"/>
       <use xlink:href="#DejaVuSans-30" transform="translate(190.869141 0)"/>
       <use xlink:href="#DejaVuSans-30" transform="translate(254.492188 0)"/>
      </g>
     </g>
    </g>
    <g id="xtick_4">
     <g id="line2d_7">
      <path d="M 500.402647 390.04 
L 500.402647 10.8 
" clip-path="url(#p39a6fafb0e)" style="fill: none; stroke: #b0b0b0; stroke-width: 0.8; stroke-linecap: square"/>
     </g>
     <g id="line2d_8">
      <g>
       <use xlink:href="#m2dd109f98b" x="500.402647" y="390.04" style="stroke: #000000; stroke-width: 0.8"/>
      </g>
     </g>
     <g id="text_4">
      <!-- 15000 -->
      <g transform="translate(484.496397 404.638438) scale(0.1 -0.1)">
       <use xlink:href="#DejaVuSans-31"/>
       <use xlink:href="#DejaVuSans-35" transform="translate(63.623047 0)"/>
       <use xlink:href="#DejaVuSans-30" transform="translate(127.246094 0)"/>
       <use xlink:href="#DejaVuSans-30" transform="translate(190.869141 0)"/>
       <use xlink:href="#DejaVuSans-30" transform="translate(254.492188 0)"/>
      </g>
     </g>
    </g>
    <g id="xtick_5">
     <g id="line2d_9">
      <path d="M 642.229405 390.04 
L 642.229405 10.8 
" clip-path="url(#p39a6fafb0e)" style="fill: none; stroke: #b0b0b0; stroke-width: 0.8; stroke-linecap: square"/>
     </g>
     <g id="line2d_10">
      <g>
       <use xlink:href="#m2dd109f98b" x="642.229405" y="390.04" style="stroke: #000000; stroke-width: 0.8"/>
      </g>
     </g>
     <g id="text_5">
      <!-- 20000 -->
      <g transform="translate(626.323155 404.638438) scale(0.1 -0.1)">
       <defs>
        <path id="DejaVuSans-32" d="M 1228 531 
L 3431 531 
L 3431 0 
L 469 0 
L 469 531 
Q 828 903 1448 1529 
Q 2069 2156 2228 2338 
Q 2531 2678 2651 2914 
Q 2772 3150 2772 3378 
Q 2772 3750 2511 3984 
Q 2250 4219 1831 4219 
Q 1534 4219 1204 4116 
Q 875 4013 500 3803 
L 500 4441 
Q 881 4594 1212 4672 
Q 1544 4750 1819 4750 
Q 2544 4750 2975 4387 
Q 3406 4025 3406 3419 
Q 3406 3131 3298 2873 
Q 3191 2616 2906 2266 
Q 2828 2175 2409 1742 
Q 1991 1309 1228 531 
z
" transform="scale(0.015625)"/>
       </defs>
       <use xlink:href="#DejaVuSans-32"/>
       <use xlink:href="#DejaVuSans-30" transform="translate(63.623047 0)"/>
       <use xlink:href="#DejaVuSans-30" transform="translate(127.246094 0)"/>
       <use xlink:href="#DejaVuSans-30" transform="translate(190.869141 0)"/>
       <use xlink:href="#DejaVuSans-30" transform="translate(254.492188 0)"/>
      </g>
     </g>
    </g>
    <g id="text_6">
     <!-- Episodes -->
     <g transform="translate(356.217813 418.316562) scale(0.1 -0.1)">
      <defs>
       <path id="DejaVuSans-45" d="M 628 4666 
L 3578 4666 
L 3578 4134 
L 1259 4134 
L 1259 2753 
L 3481 2753 
L 3481 2222 
L 1259 2222 
L 1259 531 
L 3634 531 
L 3634 0 
L 628 0 
L 628 4666 
z
" transform="scale(0.015625)"/>
       <path id="DejaVuSans-70" d="M 1159 525 
L 1159 -1331 
L 581 -1331 
L 581 3500 
L 1159 3500 
L 1159 2969 
Q 1341 3281 1617 3432 
Q 1894 3584 2278 3584 
Q 2916 3584 3314 3078 
Q 3713 2572 3713 1747 
Q 3713 922 3314 415 
Q 2916 -91 2278 -91 
Q 1894 -91 1617 61 
Q 1341 213 1159 525 
z
M 3116 1747 
Q 3116 2381 2855 2742 
Q 2594 3103 2138 3103 
Q 1681 3103 1420 2742 
Q 1159 2381 1159 1747 
Q 1159 1113 1420 752 
Q 1681 391 2138 391 
Q 2594 391 2855 752 
Q 3116 1113 3116 1747 
z
" transform="scale(0.015625)"/>
       <path id="DejaVuSans-69" d="M 603 3500 
L 1178 3500 
L 1178 0 
L 603 0 
L 603 3500 
z
M 603 4863 
L 1178 4863 
L 1178 4134 
L 603 4134 
L 603 4863 
z
" transform="scale(0.015625)"/>
       <path id="DejaVuSans-73" d="M 2834 3397 
L 2834 2853 
Q 2591 2978 2328 3040 
Q 2066 3103 1784 3103 
Q 1356 3103 1142 2972 
Q 928 2841 928 2578 
Q 928 2378 1081 2264 
Q 1234 2150 1697 2047 
L 1894 2003 
Q 2506 1872 2764 1633 
Q 3022 1394 3022 966 
Q 3022 478 2636 193 
Q 2250 -91 1575 -91 
Q 1294 -91 989 -36 
Q 684 19 347 128 
L 347 722 
Q 666 556 975 473 
Q 1284 391 1588 391 
Q 1994 391 2212 530 
Q 2431 669 2431 922 
Q 2431 1156 2273 1281 
Q 2116 1406 1581 1522 
L 1381 1569 
Q 847 1681 609 1914 
Q 372 2147 372 2553 
Q 372 3047 722 3315 
Q 1072 3584 1716 3584 
Q 2034 3584 2315 3537 
Q 2597 3491 2834 3397 
z
" transform="scale(0.015625)"/>
       <path id="DejaVuSans-6f" d="M 1959 3097 
Q 1497 3097 1228 2736 
Q 959 2375 959 1747 
Q 959 1119 1226 758 
Q 1494 397 1959 397 
Q 2419 397 2687 759 
Q 2956 1122 2956 1747 
Q 2956 2369 2687 2733 
Q 2419 3097 1959 3097 
z
M 1959 3584 
Q 2709 3584 3137 3096 
Q 3566 2609 3566 1747 
Q 3566 888 3137 398 
Q 2709 -91 1959 -91 
Q 1206 -91 779 398 
Q 353 888 353 1747 
Q 353 2609 779 3096 
Q 1206 3584 1959 3584 
z
" transform="scale(0.015625)"/>
       <path id="DejaVuSans-64" d="M 2906 2969 
L 2906 4863 
L 3481 4863 
L 3481 0 
L 2906 0 
L 2906 525 
Q 2725 213 2448 61 
Q 2172 -91 1784 -91 
Q 1150 -91 751 415 
Q 353 922 353 1747 
Q 353 2572 751 3078 
Q 1150 3584 1784 3584 
Q 2172 3584 2448 3432 
Q 2725 3281 2906 2969 
z
M 947 1747 
Q 947 1113 1208 752 
Q 1469 391 1925 391 
Q 2381 391 2643 752 
Q 2906 1113 2906 1747 
Q 2906 2381 2643 2742 
Q 2381 3103 1925 3103 
Q 1469 3103 1208 2742 
Q 947 2381 947 1747 
z
" transform="scale(0.015625)"/>
       <path id="DejaVuSans-65" d="M 3597 1894 
L 3597 1613 
L 953 1613 
Q 991 1019 1311 708 
Q 1631 397 2203 397 
Q 2534 397 2845 478 
Q 3156 559 3463 722 
L 3463 178 
Q 3153 47 2828 -22 
Q 2503 -91 2169 -91 
Q 1331 -91 842 396 
Q 353 884 353 1716 
Q 353 2575 817 3079 
Q 1281 3584 2069 3584 
Q 2775 3584 3186 3129 
Q 3597 2675 3597 1894 
z
M 3022 2063 
Q 3016 2534 2758 2815 
Q 2500 3097 2075 3097 
Q 1594 3097 1305 2825 
Q 1016 2553 972 2059 
L 3022 2063 
z
" transform="scale(0.015625)"/>
      </defs>
      <use xlink:href="#DejaVuSans-45"/>
      <use xlink:href="#DejaVuSans-70" transform="translate(63.183594 0)"/>
      <use xlink:href="#DejaVuSans-69" transform="translate(126.660156 0)"/>
      <use xlink:href="#DejaVuSans-73" transform="translate(154.443359 0)"/>
      <use xlink:href="#DejaVuSans-6f" transform="translate(206.542969 0)"/>
      <use xlink:href="#DejaVuSans-64" transform="translate(267.724609 0)"/>
      <use xlink:href="#DejaVuSans-65" transform="translate(331.201172 0)"/>
      <use xlink:href="#DejaVuSans-73" transform="translate(392.724609 0)"/>
     </g>
    </g>
   </g>
   <g id="matplotlib.axis_2">
    <g id="ytick_1">
     <g id="line2d_11">
      <path d="M 47.72 347.944763 
L 709.2 347.944763 
" clip-path="url(#p39a6fafb0e)" style="fill: none; stroke: #b0b0b0; stroke-width: 0.8; stroke-linecap: square"/>
     </g>
     <g id="line2d_12">
      <defs>
       <path id="me4cfdfda00" d="M 0 0 
L -3.5 0 
" style="stroke: #000000; stroke-width: 0.8"/>
      </defs>
      <g>
       <use xlink:href="#me4cfdfda00" x="47.72" y="347.944763" style="stroke: #000000; stroke-width: 0.8"/>
      </g>
     </g>
     <g id="text_7">
      <!-- 3.5 -->
      <g transform="translate(24.816875 351.743981) scale(0.1 -0.1)">
       <defs>
        <path id="DejaVuSans-33" d="M 2597 2516 
Q 3050 2419 3304 2112 
Q 3559 1806 3559 1356 
Q 3559 666 3084 287 
Q 2609 -91 1734 -91 
Q 1441 -91 1130 -33 
Q 819 25 488 141 
L 488 750 
Q 750 597 1062 519 
Q 1375 441 1716 441 
Q 2309 441 2620 675 
Q 2931 909 2931 1356 
Q 2931 1769 2642 2001 
Q 2353 2234 1838 2234 
L 1294 2234 
L 1294 2753 
L 1863 2753 
Q 2328 2753 2575 2939 
Q 2822 3125 2822 3475 
Q 2822 3834 2567 4026 
Q 2313 4219 1838 4219 
Q 1578 4219 1281 4162 
Q 984 4106 628 3988 
L 628 4550 
Q 988 4650 1302 4700 
Q 1616 4750 1894 4750 
Q 2613 4750 3031 4423 
Q 3450 4097 3450 3541 
Q 3450 3153 3228 2886 
Q 3006 2619 2597 2516 
z
" transform="scale(0.015625)"/>
        <path id="DejaVuSans-2e" d="M 684 794 
L 1344 794 
L 1344 0 
L 684 0 
L 684 794 
z
" transform="scale(0.015625)"/>
       </defs>
       <use xlink:href="#DejaVuSans-33"/>
       <use xlink:href="#DejaVuSans-2e" transform="translate(63.623047 0)"/>
       <use xlink:href="#DejaVuSans-35" transform="translate(95.410156 0)"/>
      </g>
     </g>
    </g>
    <g id="ytick_2">
     <g id="line2d_13">
      <path d="M 47.72 282.975058 
L 709.2 282.975058 
" clip-path="url(#p39a6fafb0e)" style="fill: none; stroke: #b0b0b0; stroke-width: 0.8; stroke-linecap: square"/>
     </g>
     <g id="line2d_14">
      <g>
       <use xlink:href="#me4cfdfda00" x="47.72" y="282.975058" style="stroke: #000000; stroke-width: 0.8"/>
      </g>
     </g>
     <g id="text_8">
      <!-- 4.0 -->
      <g transform="translate(24.816875 286.774277) scale(0.1 -0.1)">
       <defs>
        <path id="DejaVuSans-34" d="M 2419 4116 
L 825 1625 
L 2419 1625 
L 2419 4116 
z
M 2253 4666 
L 3047 4666 
L 3047 1625 
L 3713 1625 
L 3713 1100 
L 3047 1100 
L 3047 0 
L 2419 0 
L 2419 1100 
L 313 1100 
L 313 1709 
L 2253 4666 
z
" transform="scale(0.015625)"/>
       </defs>
       <use xlink:href="#DejaVuSans-34"/>
       <use xlink:href="#DejaVuSans-2e" transform="translate(63.623047 0)"/>
       <use xlink:href="#DejaVuSans-30" transform="translate(95.410156 0)"/>
      </g>
     </g>
    </g>
    <g id="ytick_3">
     <g id="line2d_15">
      <path d="M 47.72 218.005354 
L 709.2 218.005354 
" clip-path="url(#p39a6fafb0e)" style="fill: none; stroke: #b0b0b0; stroke-width: 0.8; stroke-linecap: square"/>
     </g>
     <g id="line2d_16">
      <g>
       <use xlink:href="#me4cfdfda00" x="47.72" y="218.005354" style="stroke: #000000; stroke-width: 0.8"/>
      </g>
     </g>
     <g id="text_9">
      <!-- 4.5 -->
      <g transform="translate(24.816875 221.804572) scale(0.1 -0.1)">
       <use xlink:href="#DejaVuSans-34"/>
       <use xlink:href="#DejaVuSans-2e" transform="translate(63.623047 0)"/>
       <use xlink:href="#DejaVuSans-35" transform="translate(95.410156 0)"/>
      </g>
     </g>
    </g>
    <g id="ytick_4">
     <g id="line2d_17">
      <path d="M 47.72 153.035649 
L 709.2 153.035649 
" clip-path="url(#p39a6fafb0e)" style="fill: none; stroke: #b0b0b0; stroke-width: 0.8; stroke-linecap: square"/>
     </g>
     <g id="line2d_18">
      <g>
       <use xlink:href="#me4cfdfda00" x="47.72" y="153.035649" style="stroke: #000000; stroke-width: 0.8"/>
      </g>
     </g>
     <g id="text_10">
      <!-- 5.0 -->
      <g transform="translate(24.816875 156.834868) scale(0.1 -0.1)">
       <use xlink:href="#DejaVuSans-35"/>
       <use xlink:href="#DejaVuSans-2e" transform="translate(63.623047 0)"/>
       <use xlink:href="#DejaVuSans-30" transform="translate(95.410156 0)"/>
      </g>
     </g>
    </g>
    <g id="ytick_5">
     <g id="line2d_19">
      <path d="M 47.72 88.065945 
L 709.2 88.065945 
" clip-path="url(#p39a6fafb0e)" style="fill: none; stroke: #b0b0b0; stroke-width: 0.8; stroke-linecap: square"/>
     </g>
     <g id="line2d_20">
      <g>
       <use xlink:href="#me4cfdfda00" x="47.72" y="88.065945" style="stroke: #000000; stroke-width: 0.8"/>
      </g>
     </g>
     <g id="text_11">
      <!-- 5.5 -->
      <g transform="translate(24.816875 91.865164) scale(0.1 -0.1)">
       <use xlink:href="#DejaVuSans-35"/>
       <use xlink:href="#DejaVuSans-2e" transform="translate(63.623047 0)"/>
       <use xlink:href="#DejaVuSans-35" transform="translate(95.410156 0)"/>
      </g>
     </g>
    </g>
    <g id="ytick_6">
     <g id="line2d_21">
      <path d="M 47.72 23.09624 
L 709.2 23.09624 
" clip-path="url(#p39a6fafb0e)" style="fill: none; stroke: #b0b0b0; stroke-width: 0.8; stroke-linecap: square"/>
     </g>
     <g id="line2d_22">
      <g>
       <use xlink:href="#me4cfdfda00" x="47.72" y="23.09624" style="stroke: #000000; stroke-width: 0.8"/>
      </g>
     </g>
     <g id="text_12">
      <!-- 6.0 -->
      <g transform="translate(24.816875 26.895459) scale(0.1 -0.1)">
       <defs>
        <path id="DejaVuSans-36" d="M 2113 2584 
Q 1688 2584 1439 2293 
Q 1191 2003 1191 1497 
Q 1191 994 1439 701 
Q 1688 409 2113 409 
Q 2538 409 2786 701 
Q 3034 994 3034 1497 
Q 3034 2003 2786 2293 
Q 2538 2584 2113 2584 
z
M 3366 4563 
L 3366 3988 
Q 3128 4100 2886 4159 
Q 2644 4219 2406 4219 
Q 1781 4219 1451 3797 
Q 1122 3375 1075 2522 
Q 1259 2794 1537 2939 
Q 1816 3084 2150 3084 
Q 2853 3084 3261 2657 
Q 3669 2231 3669 1497 
Q 3669 778 3244 343 
Q 2819 -91 2113 -91 
Q 1303 -91 875 529 
Q 447 1150 447 2328 
Q 447 3434 972 4092 
Q 1497 4750 2381 4750 
Q 2619 4750 2861 4703 
Q 3103 4656 3366 4563 
z
" transform="scale(0.015625)"/>
       </defs>
       <use xlink:href="#DejaVuSans-36"/>
       <use xlink:href="#DejaVuSans-2e" transform="translate(63.623047 0)"/>
       <use xlink:href="#DejaVuSans-30" transform="translate(95.410156 0)"/>
      </g>
     </g>
    </g>
    <g id="text_13">
     <!-- Quantum Gates -->
     <g transform="translate(18.737188 239.925469) rotate(-90) scale(0.1 -0.1)">
      <defs>
       <path id="DejaVuSans-51" d="M 2522 4238 
Q 1834 4238 1429 3725 
Q 1025 3213 1025 2328 
Q 1025 1447 1429 934 
Q 1834 422 2522 422 
Q 3209 422 3611 934 
Q 4013 1447 4013 2328 
Q 4013 3213 3611 3725 
Q 3209 4238 2522 4238 
z
M 3406 84 
L 4238 -825 
L 3475 -825 
L 2784 -78 
Q 2681 -84 2626 -87 
Q 2572 -91 2522 -91 
Q 1538 -91 948 567 
Q 359 1225 359 2328 
Q 359 3434 948 4092 
Q 1538 4750 2522 4750 
Q 3503 4750 4090 4092 
Q 4678 3434 4678 2328 
Q 4678 1516 4351 937 
Q 4025 359 3406 84 
z
" transform="scale(0.015625)"/>
       <path id="DejaVuSans-75" d="M 544 1381 
L 544 3500 
L 1119 3500 
L 1119 1403 
Q 1119 906 1312 657 
Q 1506 409 1894 409 
Q 2359 409 2629 706 
Q 2900 1003 2900 1516 
L 2900 3500 
L 3475 3500 
L 3475 0 
L 2900 0 
L 2900 538 
Q 2691 219 2414 64 
Q 2138 -91 1772 -91 
Q 1169 -91 856 284 
Q 544 659 544 1381 
z
M 1991 3584 
L 1991 3584 
z
" transform="scale(0.015625)"/>
       <path id="DejaVuSans-61" d="M 2194 1759 
Q 1497 1759 1228 1600 
Q 959 1441 959 1056 
Q 959 750 1161 570 
Q 1363 391 1709 391 
Q 2188 391 2477 730 
Q 2766 1069 2766 1631 
L 2766 1759 
L 2194 1759 
z
M 3341 1997 
L 3341 0 
L 2766 0 
L 2766 531 
Q 2569 213 2275 61 
Q 1981 -91 1556 -91 
Q 1019 -91 701 211 
Q 384 513 384 1019 
Q 384 1609 779 1909 
Q 1175 2209 1959 2209 
L 2766 2209 
L 2766 2266 
Q 2766 2663 2505 2880 
Q 2244 3097 1772 3097 
Q 1472 3097 1187 3025 
Q 903 2953 641 2809 
L 641 3341 
Q 956 3463 1253 3523 
Q 1550 3584 1831 3584 
Q 2591 3584 2966 3190 
Q 3341 2797 3341 1997 
z
" transform="scale(0.015625)"/>
       <path id="DejaVuSans-6e" d="M 3513 2113 
L 3513 0 
L 2938 0 
L 2938 2094 
Q 2938 2591 2744 2837 
Q 2550 3084 2163 3084 
Q 1697 3084 1428 2787 
Q 1159 2491 1159 1978 
L 1159 0 
L 581 0 
L 581 3500 
L 1159 3500 
L 1159 2956 
Q 1366 3272 1645 3428 
Q 1925 3584 2291 3584 
Q 2894 3584 3203 3211 
Q 3513 2838 3513 2113 
z
" transform="scale(0.015625)"/>
       <path id="DejaVuSans-74" d="M 1172 4494 
L 1172 3500 
L 2356 3500 
L 2356 3053 
L 1172 3053 
L 1172 1153 
Q 1172 725 1289 603 
Q 1406 481 1766 481 
L 2356 481 
L 2356 0 
L 1766 0 
Q 1100 0 847 248 
Q 594 497 594 1153 
L 594 3053 
L 172 3053 
L 172 3500 
L 594 3500 
L 594 4494 
L 1172 4494 
z
" transform="scale(0.015625)"/>
       <path id="DejaVuSans-6d" d="M 3328 2828 
Q 3544 3216 3844 3400 
Q 4144 3584 4550 3584 
Q 5097 3584 5394 3201 
Q 5691 2819 5691 2113 
L 5691 0 
L 5113 0 
L 5113 2094 
Q 5113 2597 4934 2840 
Q 4756 3084 4391 3084 
Q 3944 3084 3684 2787 
Q 3425 2491 3425 1978 
L 3425 0 
L 2847 0 
L 2847 2094 
Q 2847 2600 2669 2842 
Q 2491 3084 2119 3084 
Q 1678 3084 1418 2786 
Q 1159 2488 1159 1978 
L 1159 0 
L 581 0 
L 581 3500 
L 1159 3500 
L 1159 2956 
Q 1356 3278 1631 3431 
Q 1906 3584 2284 3584 
Q 2666 3584 2933 3390 
Q 3200 3197 3328 2828 
z
" transform="scale(0.015625)"/>
       <path id="DejaVuSans-20" transform="scale(0.015625)"/>
       <path id="DejaVuSans-47" d="M 3809 666 
L 3809 1919 
L 2778 1919 
L 2778 2438 
L 4434 2438 
L 4434 434 
Q 4069 175 3628 42 
Q 3188 -91 2688 -91 
Q 1594 -91 976 548 
Q 359 1188 359 2328 
Q 359 3472 976 4111 
Q 1594 4750 2688 4750 
Q 3144 4750 3555 4637 
Q 3966 4525 4313 4306 
L 4313 3634 
Q 3963 3931 3569 4081 
Q 3175 4231 2741 4231 
Q 1884 4231 1454 3753 
Q 1025 3275 1025 2328 
Q 1025 1384 1454 906 
Q 1884 428 2741 428 
Q 3075 428 3337 486 
Q 3600 544 3809 666 
z
" transform="scale(0.015625)"/>
      </defs>
      <use xlink:href="#DejaVuSans-51"/>
      <use xlink:href="#DejaVuSans-75" transform="translate(78.710938 0)"/>
      <use xlink:href="#DejaVuSans-61" transform="translate(142.089844 0)"/>
      <use xlink:href="#DejaVuSans-6e" transform="translate(203.369141 0)"/>
      <use xlink:href="#DejaVuSans-74" transform="translate(266.748047 0)"/>
      <use xlink:href="#DejaVuSans-75" transform="translate(305.957031 0)"/>
      <use xlink:href="#DejaVuSans-6d" transform="translate(369.335938 0)"/>
      <use xlink:href="#DejaVuSans-20" transform="translate(466.748047 0)"/>
      <use xlink:href="#DejaVuSans-47" transform="translate(498.535156 0)"/>
      <use xlink:href="#DejaVuSans-61" transform="translate(576.025391 0)"/>
      <use xlink:href="#DejaVuSans-74" transform="translate(637.304688 0)"/>
      <use xlink:href="#DejaVuSans-65" transform="translate(676.513672 0)"/>
      <use xlink:href="#DejaVuSans-73" transform="translate(738.037109 0)"/>
     </g>
    </g>
   </g>
   <g id="line2d_23">
    <path d="M 77.787273 191.367775 
L 83.460343 212.591212 
L 89.133413 196.565351 
L 94.806484 204.578281 
L 100.479554 200.680099 
L 106.152624 196.781917 
L 111.825695 209.775858 
L 117.498765 197.215048 
L 123.171835 196.781917 
L 128.844906 199.597271 
L 134.517976 196.565351 
L 140.191046 195.915654 
L 145.864117 202.62919 
L 151.537187 196.781917 
L 157.210257 193.749997 
L 162.883328 193.749997 
L 168.556398 184.870804 
L 174.229468 189.851815 
L 179.902539 197.215048 
L 185.575609 204.578281 
L 191.248679 208.259898 
L 196.92175 207.826767 
L 202.59482 196.348786 
L 208.26789 197.64818 
L 213.940961 208.259898 
L 219.614031 208.476464 
L 225.287101 209.992424 
L 230.960172 199.164139 
L 236.633242 204.361716 
L 242.306312 185.953633 
L 247.979383 208.476464 
L 253.652453 195.699089 
L 259.325523 198.947574 
L 264.998593 207.610201 
L 270.671664 187.036461 
L 276.344734 209.126161 
L 282.017804 200.463534 
L 287.690875 212.591212 
L 293.363945 200.896665 
L 299.037015 204.794847 
L 304.710086 198.514442 
L 310.383156 211.075252 
L 316.056226 204.361716 
L 321.729297 192.450603 
L 327.402367 205.444544 
L 333.075437 204.578281 
L 338.748508 191.584341 
L 344.421578 197.64818 
L 350.094648 184.437673 
L 355.767719 199.380705 
L 361.440789 188.768987 
L 367.113859 201.979493 
L 372.78693 197.64818 
L 378.46 206.960504 
L 384.13307 197.864745 
L 389.806141 200.246968 
L 395.479211 210.425555 
L 401.152281 186.170199 
L 406.825352 190.284946 
L 412.498422 212.591212 
L 418.171492 202.412625 
L 423.844563 187.902724 
L 429.517633 211.508383 
L 435.190703 198.731008 
L 440.863774 198.081311 
L 446.536844 194.399694 
L 452.209914 201.979493 
L 457.882985 182.272016 
L 463.556055 206.743938 
L 469.229125 205.877676 
L 474.902196 209.126161 
L 480.575266 196.348786 
L 486.248336 196.998483 
L 491.921407 202.412625 
L 497.594477 204.794847 
L 503.267547 188.335855 
L 508.940617 212.374646 
L 514.613688 190.718078 
L 520.286758 200.246968 
L 525.959828 200.896665 
L 531.632899 202.412625 
L 537.305969 176.424743 
L 542.979039 179.240097 
L 548.65211 212.374646 
L 554.32518 177.507571 
L 559.99825 197.431614 
L 565.671321 212.807777 
L 571.344391 207.826767 
L 577.017461 178.373834 
L 582.690532 203.062322 
L 588.363602 201.762928 
L 594.036672 205.877676 
L 599.709743 206.527373 
L 605.382813 182.055451 
L 611.055883 207.17707 
L 616.728954 194.183129 
L 622.402024 204.14515 
L 628.075094 220.604142 
L 633.748165 203.062322 
L 639.421235 201.113231 
L 645.094305 212.591212 
L 650.767376 209.342726 
L 656.440446 196.348786 
L 662.113516 210.642121 
L 667.786587 205.877676 
L 673.459657 194.183129 
L 679.132727 208.476464 
" clip-path="url(#p39a6fafb0e)" style="fill: none; stroke: #1f77b4; stroke-width: 1.5; stroke-linecap: square"/>
   </g>
   <g id="patch_3">
    <path d="M 47.72 390.04 
L 47.72 10.8 
" style="fill: none; stroke: #000000; stroke-width: 0.8; stroke-linejoin: miter; stroke-linecap: square"/>
   </g>
   <g id="patch_4">
    <path d="M 709.2 390.04 
L 709.2 10.8 
" style="fill: none; stroke: #000000; stroke-width: 0.8; stroke-linejoin: miter; stroke-linecap: square"/>
   </g>
   <g id="patch_5">
    <path d="M 47.72 390.04 
L 709.2 390.04 
" style="fill: none; stroke: #000000; stroke-width: 0.8; stroke-linejoin: miter; stroke-linecap: square"/>
   </g>
   <g id="patch_6">
    <path d="M 47.72 10.8 
L 709.2 10.8 
" style="fill: none; stroke: #000000; stroke-width: 0.8; stroke-linejoin: miter; stroke-linecap: square"/>
   </g>
  </g>
 </g>
 <defs>
  <clipPath id="p39a6fafb0e">
   <rect x="47.72" y="10.8" width="661.48" height="379.24"/>
  </clipPath>
 </defs>
</svg>
