<?xml version="1.0" encoding="utf-8" standalone="no"?>
<!DOCTYPE svg PUBLIC "-//W3C//DTD SVG 1.1//EN"
  "http://www.w3.org/Graphics/SVG/1.1/DTD/svg11.dtd">
<svg xmlns:xlink="http://www.w3.org/1999/xlink" width="720pt" height="432pt" viewBox="0 0 720 432" xmlns="http://www.w3.org/2000/svg" version="1.1">
 <metadata>
  <rdf:RDF xmlns:dc="http://purl.org/dc/elements/1.1/" xmlns:cc="http://creativecommons.org/ns#" xmlns:rdf="http://www.w3.org/1999/02/22-rdf-syntax-ns#">
   <cc:Work>
    <dc:type rdf:resource="http://purl.org/dc/dcmitype/StillImage"/>
    <dc:date>2025-04-15T14:56:38.944074</dc:date>
    <dc:format>image/svg+xml</dc:format>
    <dc:creator>
     <cc:Agent>
      <dc:title>Matplotlib v3.10.0, https://matplotlib.org/</dc:title>
     </cc:Agent>
    </dc:creator>
   </cc:Work>
  </rdf:RDF>
 </metadata>
 <defs>
  <style type="text/css">*{stroke-linejoin: round; stroke-linecap: butt}</style>
 </defs>
 <g id="figure_1">
  <g id="patch_1">
   <path d="M 0 432 
L 720 432 
L 720 0 
L 0 0 
z
" style="fill: #ffffff"/>
  </g>
  <g id="axes_1">
   <g id="patch_2">
    <path d="M 47.63 390.04 
L 709.2 390.04 
L 709.2 10.8 
L 47.63 10.8 
z
" style="fill: #ffffff"/>
   </g>
   <g id="FillBetweenPolyCollection_1">
    <path d="M 77.701364 51.695921 
L 77.701364 353.215921 
L 81.080169 350.840614 
L 84.458973 354.161777 
L 87.837778 351.628484 
L 91.216583 342.351646 
L 94.595388 350.606268 
L 97.974193 350.030078 
L 101.352998 350.061149 
L 104.731803 347.579902 
L 108.110608 348.239765 
L 111.489413 354.728381 
L 114.868218 344.960316 
L 118.247022 355.032893 
L 121.625827 342.834196 
L 125.004632 344.085244 
L 128.383437 353.243074 
L 131.762242 341.978911 
L 135.141047 348.737993 
L 138.519852 346.527344 
L 141.898657 349.484275 
L 145.277462 356.146246 
L 148.656267 360.9795 
L 152.035072 353.434598 
L 155.413876 356.427676 
L 158.792681 347.472604 
L 162.171486 354.645898 
L 165.550291 342.896748 
L 168.929096 345.417714 
L 172.307901 347.394282 
L 175.686706 348.913651 
L 179.065511 342.332039 
L 182.444316 355.208333 
L 185.823121 343.956122 
L 189.201925 346.330512 
L 192.58073 353.452015 
L 195.959535 350.263635 
L 199.33834 319.065752 
L 202.717145 366.648644 
L 206.09595 361.962523 
L 209.474755 349.336813 
L 212.85356 352.103371 
L 216.232365 350.683005 
L 219.61117 360.904378 
L 222.989974 357.141941 
L 226.368779 359.9454 
L 229.747584 347.132394 
L 233.126389 341.42992 
L 236.505194 361.966421 
L 239.883999 332.802215 
L 243.262804 348.019257 
L 246.641609 351.004987 
L 250.020414 345.674601 
L 253.399219 367.474531 
L 256.778023 334.234346 
L 260.156828 352.223945 
L 263.535633 348.972168 
L 266.914438 339.758937 
L 270.293243 354.189736 
L 273.672048 361.515564 
L 277.050853 349.820527 
L 280.429658 343.263555 
L 283.808463 365.762289 
L 287.187268 342.280015 
L 290.566073 356.620688 
L 293.944877 343.227129 
L 297.323682 343.641017 
L 300.702487 350.020397 
L 304.081292 329.43543 
L 307.460097 333.280128 
L 310.838902 349.497882 
L 314.217707 329.797458 
L 317.596512 341.341071 
L 320.975317 364.711168 
L 324.354122 340.482629 
L 327.732926 356.667067 
L 331.111731 354.488903 
L 334.490536 351.010614 
L 337.869341 349.300228 
L 341.248146 355.80002 
L 344.626951 364.102098 
L 348.005756 355.600708 
L 351.384561 349.331589 
L 354.763366 352.320218 
L 358.142171 357.034926 
L 361.520975 370.485667 
L 364.89978 350.588422 
L 368.278585 364.953688 
L 371.65739 353.24864 
L 375.036195 353.795894 
L 378.415 369.931634 
L 381.793805 353.582729 
L 385.17261 351.171925 
L 388.551415 349.26755 
L 391.93022 345.095212 
L 395.309025 356.747095 
L 398.687829 358.25574 
L 402.066634 357.175386 
L 405.445439 346.86468 
L 408.824244 345.561389 
L 412.203049 351.698842 
L 415.581854 353.738063 
L 418.960659 366.699284 
L 422.339464 343.419709 
L 425.718269 363.517855 
L 429.097074 353.313583 
L 432.475878 340.140022 
L 435.854683 347.485911 
L 439.233488 348.133457 
L 442.612293 359.138081 
L 445.991098 361.882609 
L 449.369903 342.365762 
L 452.748708 356.843763 
L 456.127513 334.546217 
L 459.506318 347.233045 
L 462.885123 359.145243 
L 466.263927 350.924551 
L 469.642732 347.330878 
L 473.021537 349.350695 
L 476.400342 354.893597 
L 479.779147 363.812427 
L 483.157952 357.314494 
L 486.536757 356.417372 
L 489.915562 361.544245 
L 493.294367 353.022515 
L 496.673172 359.710488 
L 500.051977 330.51694 
L 503.430781 344.987734 
L 506.809586 348.114094 
L 510.188391 346.84621 
L 513.567196 341.953766 
L 516.946001 337.550796 
L 520.324806 346.087932 
L 523.703611 355.221647 
L 527.082416 352.127841 
L 530.461221 369.787275 
L 533.840026 343.954656 
L 537.21883 371.132053 
L 540.597635 350.67302 
L 543.97644 328.870278 
L 547.355245 369.80081 
L 550.73405 333.33792 
L 554.112855 355.03918 
L 557.49166 334.714825 
L 560.870465 356.087821 
L 564.24927 333.647265 
L 567.628075 367.288912 
L 571.006879 366.261461 
L 574.385684 355.390359 
L 577.764489 357.671626 
L 581.143294 358.18599 
L 584.522099 349.534579 
L 587.900904 359.166954 
L 591.279709 359.483192 
L 594.658514 358.906492 
L 598.037319 335.524349 
L 601.416124 344.501299 
L 604.794928 326.188813 
L 608.173733 344.846833 
L 611.552538 350.137908 
L 614.931343 335.223325 
L 618.310148 352.808753 
L 621.688953 347.325707 
L 625.067758 355.500171 
L 628.446563 358.877379 
L 631.825368 349.920811 
L 635.204173 357.243747 
L 638.582978 338.895704 
L 641.961782 345.941633 
L 645.340587 356.8434 
L 648.719392 355.145953 
L 652.098197 334.298596 
L 655.477002 372.801818 
L 658.855807 342.103293 
L 662.234612 352.615273 
L 665.613417 356.254123 
L 668.992222 340.594807 
L 672.371027 359.076322 
L 675.749831 363.134939 
L 679.128636 338.44937 
L 679.128636 44.084855 
L 679.128636 44.084855 
L 675.749831 58.560115 
L 672.371027 46.88447 
L 668.992222 38.792567 
L 665.613417 40.615763 
L 662.234612 52.995869 
L 658.855807 43.577784 
L 655.477002 47.844285 
L 652.098197 43.340526 
L 648.719392 42.423233 
L 645.340587 59.25725 
L 641.961782 38.340844 
L 638.582978 52.379778 
L 635.204173 36.828936 
L 631.825368 42.403621 
L 628.446563 71.558931 
L 625.067758 55.006075 
L 621.688953 54.439283 
L 618.310148 36.019177 
L 614.931343 38.919294 
L 611.552538 41.836874 
L 608.173733 41.183895 
L 604.794928 49.702057 
L 601.416124 53.067887 
L 598.037319 51.20568 
L 594.658514 56.494858 
L 591.279709 75.148921 
L 587.900904 50.290341 
L 584.522099 48.034607 
L 581.143294 40.082496 
L 577.764489 43.044413 
L 574.385684 46.374631 
L 571.006879 46.692337 
L 567.628075 52.30824 
L 564.24927 42.243605 
L 560.870465 53.019824 
L 557.49166 40.826395 
L 554.112855 35.537001 
L 550.73405 35.909596 
L 547.355245 49.446693 
L 543.97644 57.859751 
L 540.597635 42.001063 
L 537.21883 62.45111 
L 533.840026 42.775373 
L 530.461221 52.60708 
L 527.082416 36.000789 
L 523.703611 39.550338 
L 520.324806 47.635101 
L 516.946001 37.640774 
L 513.567196 31.839203 
L 510.188391 37.785916 
L 506.809586 58.196348 
L 503.430781 45.938098 
L 500.051977 32.786521 
L 496.673172 43.802753 
L 493.294367 51.190026 
L 489.915562 62.24871 
L 486.536757 48.49447 
L 483.157952 51.443501 
L 479.779147 59.281228 
L 476.400342 46.521742 
L 473.021537 40.526186 
L 469.642732 54.783762 
L 466.263927 55.735542 
L 462.885123 37.374993 
L 459.506318 49.63684 
L 456.127513 43.092905 
L 452.748708 46.319827 
L 449.369903 33.874759 
L 445.991098 47.924336 
L 442.612293 49.270264 
L 439.233488 37.897271 
L 435.854683 47.286074 
L 432.475878 46.939657 
L 429.097074 58.940914 
L 425.718269 46.988391 
L 422.339464 51.352276 
L 418.960659 47.653114 
L 415.581854 56.068882 
L 412.203049 28.038182 
L 408.824244 39.420389 
L 405.445439 62.242964 
L 402.066634 45.638554 
L 398.687829 66.236516 
L 395.309025 52.7102 
L 391.93022 59.117329 
L 388.551415 35.364577 
L 385.17261 55.138518 
L 381.793805 55.524915 
L 378.415 55.259922 
L 375.036195 47.269795 
L 371.65739 50.264601 
L 368.278585 64.084021 
L 364.89978 43.833912 
L 361.520975 52.258338 
L 358.142171 50.324468 
L 354.763366 44.899318 
L 351.384561 52.4334 
L 348.005756 46.863582 
L 344.626951 43.257296 
L 341.248146 62.398531 
L 337.869341 38.129101 
L 334.490536 43.06207 
L 331.111731 56.716643 
L 327.732926 30.762262 
L 324.354122 44.499149 
L 320.975317 58.382487 
L 317.596512 34.899449 
L 314.217707 43.296211 
L 310.838902 42.82655 
L 307.460097 39.813541 
L 304.081292 40.511386 
L 300.702487 60.485849 
L 297.323682 62.319775 
L 293.944877 51.894505 
L 290.566073 60.878562 
L 287.187268 38.156309 
L 283.808463 51.037662 
L 280.429658 38.22172 
L 277.050853 43.902507 
L 273.672048 47.242431 
L 270.293243 54.917908 
L 266.914438 50.467594 
L 263.535633 57.687924 
L 260.156828 51.638946 
L 256.778023 41.306874 
L 253.399219 58.765976 
L 250.020414 51.894585 
L 246.641609 39.221544 
L 243.262804 46.053427 
L 239.883999 45.885858 
L 236.505194 57.980382 
L 233.126389 51.593813 
L 229.747584 49.387842 
L 226.368779 63.148254 
L 222.989974 42.525147 
L 219.61117 59.042425 
L 216.232365 46.886182 
L 212.85356 41.619663 
L 209.474755 47.183423 
L 206.09595 56.236029 
L 202.717145 57.843611 
L 199.33834 34.447502 
L 195.959535 63.739113 
L 192.58073 35.725565 
L 189.201925 47.042872 
L 185.823121 45.920759 
L 182.444316 45.857356 
L 179.065511 39.502886 
L 175.686706 48.305885 
L 172.307901 31.293791 
L 168.929096 39.913714 
L 165.550291 42.085029 
L 162.171486 72.293909 
L 158.792681 43.802878 
L 155.413876 42.889761 
L 152.035072 58.819899 
L 148.656267 55.12115 
L 145.277462 65.898458 
L 141.898657 52.980015 
L 138.519852 56.636247 
L 135.141047 46.033992 
L 131.762242 52.793074 
L 128.383437 43.277162 
L 125.004632 44.043385 
L 121.625827 44.245483 
L 118.247022 43.235594 
L 114.868218 37.92356 
L 111.489413 47.036608 
L 108.110608 30.448307 
L 104.731803 50.338935 
L 101.352998 54.501043 
L 97.974193 51.385261 
L 94.595388 58.851027 
L 91.216583 44.728033 
L 87.837778 53.982658 
L 84.458973 39.910907 
L 81.080169 35.889414 
L 77.701364 51.695921 
z
" clip-path="url(#pc453fe8f04)" style="fill: #1f77b4; fill-opacity: 0.2"/>
   </g>
   <g id="matplotlib.axis_1">
    <g id="xtick_1">
     <g id="line2d_1">
      <path d="M 75.995067 390.04 
L 75.995067 10.8 
" clip-path="url(#pc453fe8f04)" style="fill: none; stroke: #b0b0b0; stroke-width: 0.8; stroke-linecap: square"/>
     </g>
     <g id="line2d_2">
      <defs>
       <path id="m057be0e736" d="M 0 0 
L 0 3.5 
" style="stroke: #000000; stroke-width: 0.8"/>
      </defs>
      <g>
       <use xlink:href="#m057be0e736" x="75.995067" y="390.04" style="stroke: #000000; stroke-width: 0.8"/>
      </g>
     </g>
     <g id="text_1">
      <!-- 0 -->
      <g transform="translate(72.813817 404.638438) scale(0.1 -0.1)">
       <defs>
        <path id="DejaVuSans-30" d="M 2034 4250 
Q 1547 4250 1301 3770 
Q 1056 3291 1056 2328 
Q 1056 1369 1301 889 
Q 1547 409 2034 409 
Q 2525 409 2770 889 
Q 3016 1369 3016 2328 
Q 3016 3291 2770 3770 
Q 2525 4250 2034 4250 
z
M 2034 4750 
Q 2819 4750 3233 4129 
Q 3647 3509 3647 2328 
Q 3647 1150 3233 529 
Q 2819 -91 2034 -91 
Q 1250 -91 836 529 
Q 422 1150 422 2328 
Q 422 3509 836 4129 
Q 1250 4750 2034 4750 
z
" transform="scale(0.015625)"/>
       </defs>
       <use xlink:href="#DejaVuSans-30"/>
      </g>
     </g>
    </g>
    <g id="xtick_2">
     <g id="line2d_3">
      <path d="M 160.46519 390.04 
L 160.46519 10.8 
" clip-path="url(#pc453fe8f04)" style="fill: none; stroke: #b0b0b0; stroke-width: 0.8; stroke-linecap: square"/>
     </g>
     <g id="line2d_4">
      <g>
       <use xlink:href="#m057be0e736" x="160.46519" y="390.04" style="stroke: #000000; stroke-width: 0.8"/>
      </g>
     </g>
     <g id="text_2">
      <!-- 5000 -->
      <g transform="translate(147.74019 404.638438) scale(0.1 -0.1)">
       <defs>
        <path id="DejaVuSans-35" d="M 691 4666 
L 3169 4666 
L 3169 4134 
L 1269 4134 
L 1269 2991 
Q 1406 3038 1543 3061 
Q 1681 3084 1819 3084 
Q 2600 3084 3056 2656 
Q 3513 2228 3513 1497 
Q 3513 744 3044 326 
Q 2575 -91 1722 -91 
Q 1428 -91 1123 -41 
Q 819 9 494 109 
L 494 744 
Q 775 591 1075 516 
Q 1375 441 1709 441 
Q 2250 441 2565 725 
Q 2881 1009 2881 1497 
Q 2881 1984 2565 2268 
Q 2250 2553 1709 2553 
Q 1456 2553 1204 2497 
Q 953 2441 691 2322 
L 691 4666 
z
" transform="scale(0.015625)"/>
       </defs>
       <use xlink:href="#DejaVuSans-35"/>
       <use xlink:href="#DejaVuSans-30" transform="translate(63.623047 0)"/>
       <use xlink:href="#DejaVuSans-30" transform="translate(127.246094 0)"/>
       <use xlink:href="#DejaVuSans-30" transform="translate(190.869141 0)"/>
      </g>
     </g>
    </g>
    <g id="xtick_3">
     <g id="line2d_5">
      <path d="M 244.935312 390.04 
L 244.935312 10.8 
" clip-path="url(#pc453fe8f04)" style="fill: none; stroke: #b0b0b0; stroke-width: 0.8; stroke-linecap: square"/>
     </g>
     <g id="line2d_6">
      <g>
       <use xlink:href="#m057be0e736" x="244.935312" y="390.04" style="stroke: #000000; stroke-width: 0.8"/>
      </g>
     </g>
     <g id="text_3">
      <!-- 10000 -->
      <g transform="translate(229.029062 404.638438) scale(0.1 -0.1)">
       <defs>
        <path id="DejaVuSans-31" d="M 794 531 
L 1825 531 
L 1825 4091 
L 703 3866 
L 703 4441 
L 1819 4666 
L 2450 4666 
L 2450 531 
L 3481 531 
L 3481 0 
L 794 0 
L 794 531 
z
" transform="scale(0.015625)"/>
       </defs>
       <use xlink:href="#DejaVuSans-31"/>
       <use xlink:href="#DejaVuSans-30" transform="translate(63.623047 0)"/>
       <use xlink:href="#DejaVuSans-30" transform="translate(127.246094 0)"/>
       <use xlink:href="#DejaVuSans-30" transform="translate(190.869141 0)"/>
       <use xlink:href="#DejaVuSans-30" transform="translate(254.492188 0)"/>
      </g>
     </g>
    </g>
    <g id="xtick_4">
     <g id="line2d_7">
      <path d="M 329.405435 390.04 
L 329.405435 10.8 
" clip-path="url(#pc453fe8f04)" style="fill: none; stroke: #b0b0b0; stroke-width: 0.8; stroke-linecap: square"/>
     </g>
     <g id="line2d_8">
      <g>
       <use xlink:href="#m057be0e736" x="329.405435" y="390.04" style="stroke: #000000; stroke-width: 0.8"/>
      </g>
     </g>
     <g id="text_4">
      <!-- 15000 -->
      <g transform="translate(313.499185 404.638438) scale(0.1 -0.1)">
       <use xlink:href="#DejaVuSans-31"/>
       <use xlink:href="#DejaVuSans-35" transform="translate(63.623047 0)"/>
       <use xlink:href="#DejaVuSans-30" transform="translate(127.246094 0)"/>
       <use xlink:href="#DejaVuSans-30" transform="translate(190.869141 0)"/>
       <use xlink:href="#DejaVuSans-30" transform="translate(254.492188 0)"/>
      </g>
     </g>
    </g>
    <g id="xtick_5">
     <g id="line2d_9">
      <path d="M 413.875557 390.04 
L 413.875557 10.8 
" clip-path="url(#pc453fe8f04)" style="fill: none; stroke: #b0b0b0; stroke-width: 0.8; stroke-linecap: square"/>
     </g>
     <g id="line2d_10">
      <g>
       <use xlink:href="#m057be0e736" x="413.875557" y="390.04" style="stroke: #000000; stroke-width: 0.8"/>
      </g>
     </g>
     <g id="text_5">
      <!-- 20000 -->
      <g transform="translate(397.969307 404.638438) scale(0.1 -0.1)">
       <defs>
        <path id="DejaVuSans-32" d="M 1228 531 
L 3431 531 
L 3431 0 
L 469 0 
L 469 531 
Q 828 903 1448 1529 
Q 2069 2156 2228 2338 
Q 2531 2678 2651 2914 
Q 2772 3150 2772 3378 
Q 2772 3750 2511 3984 
Q 2250 4219 1831 4219 
Q 1534 4219 1204 4116 
Q 875 4013 500 3803 
L 500 4441 
Q 881 4594 1212 4672 
Q 1544 4750 1819 4750 
Q 2544 4750 2975 4387 
Q 3406 4025 3406 3419 
Q 3406 3131 3298 2873 
Q 3191 2616 2906 2266 
Q 2828 2175 2409 1742 
Q 1991 1309 1228 531 
z
" transform="scale(0.015625)"/>
       </defs>
       <use xlink:href="#DejaVuSans-32"/>
       <use xlink:href="#DejaVuSans-30" transform="translate(63.623047 0)"/>
       <use xlink:href="#DejaVuSans-30" transform="translate(127.246094 0)"/>
       <use xlink:href="#DejaVuSans-30" transform="translate(190.869141 0)"/>
       <use xlink:href="#DejaVuSans-30" transform="translate(254.492188 0)"/>
      </g>
     </g>
    </g>
    <g id="xtick_6">
     <g id="line2d_11">
      <path d="M 498.34568 390.04 
L 498.34568 10.8 
" clip-path="url(#pc453fe8f04)" style="fill: none; stroke: #b0b0b0; stroke-width: 0.8; stroke-linecap: square"/>
     </g>
     <g id="line2d_12">
      <g>
       <use xlink:href="#m057be0e736" x="498.34568" y="390.04" style="stroke: #000000; stroke-width: 0.8"/>
      </g>
     </g>
     <g id="text_6">
      <!-- 25000 -->
      <g transform="translate(482.43943 404.638438) scale(0.1 -0.1)">
       <use xlink:href="#DejaVuSans-32"/>
       <use xlink:href="#DejaVuSans-35" transform="translate(63.623047 0)"/>
       <use xlink:href="#DejaVuSans-30" transform="translate(127.246094 0)"/>
       <use xlink:href="#DejaVuSans-30" transform="translate(190.869141 0)"/>
       <use xlink:href="#DejaVuSans-30" transform="translate(254.492188 0)"/>
      </g>
     </g>
    </g>
    <g id="xtick_7">
     <g id="line2d_13">
      <path d="M 582.815803 390.04 
L 582.815803 10.8 
" clip-path="url(#pc453fe8f04)" style="fill: none; stroke: #b0b0b0; stroke-width: 0.8; stroke-linecap: square"/>
     </g>
     <g id="line2d_14">
      <g>
       <use xlink:href="#m057be0e736" x="582.815803" y="390.04" style="stroke: #000000; stroke-width: 0.8"/>
      </g>
     </g>
     <g id="text_7">
      <!-- 30000 -->
      <g transform="translate(566.909553 404.638438) scale(0.1 -0.1)">
       <defs>
        <path id="DejaVuSans-33" d="M 2597 2516 
Q 3050 2419 3304 2112 
Q 3559 1806 3559 1356 
Q 3559 666 3084 287 
Q 2609 -91 1734 -91 
Q 1441 -91 1130 -33 
Q 819 25 488 141 
L 488 750 
Q 750 597 1062 519 
Q 1375 441 1716 441 
Q 2309 441 2620 675 
Q 2931 909 2931 1356 
Q 2931 1769 2642 2001 
Q 2353 2234 1838 2234 
L 1294 2234 
L 1294 2753 
L 1863 2753 
Q 2328 2753 2575 2939 
Q 2822 3125 2822 3475 
Q 2822 3834 2567 4026 
Q 2313 4219 1838 4219 
Q 1578 4219 1281 4162 
Q 984 4106 628 3988 
L 628 4550 
Q 988 4650 1302 4700 
Q 1616 4750 1894 4750 
Q 2613 4750 3031 4423 
Q 3450 4097 3450 3541 
Q 3450 3153 3228 2886 
Q 3006 2619 2597 2516 
z
" transform="scale(0.015625)"/>
       </defs>
       <use xlink:href="#DejaVuSans-33"/>
       <use xlink:href="#DejaVuSans-30" transform="translate(63.623047 0)"/>
       <use xlink:href="#DejaVuSans-30" transform="translate(127.246094 0)"/>
       <use xlink:href="#DejaVuSans-30" transform="translate(190.869141 0)"/>
       <use xlink:href="#DejaVuSans-30" transform="translate(254.492188 0)"/>
      </g>
     </g>
    </g>
    <g id="xtick_8">
     <g id="line2d_15">
      <path d="M 667.285925 390.04 
L 667.285925 10.8 
" clip-path="url(#pc453fe8f04)" style="fill: none; stroke: #b0b0b0; stroke-width: 0.8; stroke-linecap: square"/>
     </g>
     <g id="line2d_16">
      <g>
       <use xlink:href="#m057be0e736" x="667.285925" y="390.04" style="stroke: #000000; stroke-width: 0.8"/>
      </g>
     </g>
     <g id="text_8">
      <!-- 35000 -->
      <g transform="translate(651.379675 404.638438) scale(0.1 -0.1)">
       <use xlink:href="#DejaVuSans-33"/>
       <use xlink:href="#DejaVuSans-35" transform="translate(63.623047 0)"/>
       <use xlink:href="#DejaVuSans-30" transform="translate(127.246094 0)"/>
       <use xlink:href="#DejaVuSans-30" transform="translate(190.869141 0)"/>
       <use xlink:href="#DejaVuSans-30" transform="translate(254.492188 0)"/>
      </g>
     </g>
    </g>
    <g id="text_9">
     <!-- Episodes -->
     <g transform="translate(356.172812 418.316562) scale(0.1 -0.1)">
      <defs>
       <path id="DejaVuSans-45" d="M 628 4666 
L 3578 4666 
L 3578 4134 
L 1259 4134 
L 1259 2753 
L 3481 2753 
L 3481 2222 
L 1259 2222 
L 1259 531 
L 3634 531 
L 3634 0 
L 628 0 
L 628 4666 
z
" transform="scale(0.015625)"/>
       <path id="DejaVuSans-70" d="M 1159 525 
L 1159 -1331 
L 581 -1331 
L 581 3500 
L 1159 3500 
L 1159 2969 
Q 1341 3281 1617 3432 
Q 1894 3584 2278 3584 
Q 2916 3584 3314 3078 
Q 3713 2572 3713 1747 
Q 3713 922 3314 415 
Q 2916 -91 2278 -91 
Q 1894 -91 1617 61 
Q 1341 213 1159 525 
z
M 3116 1747 
Q 3116 2381 2855 2742 
Q 2594 3103 2138 3103 
Q 1681 3103 1420 2742 
Q 1159 2381 1159 1747 
Q 1159 1113 1420 752 
Q 1681 391 2138 391 
Q 2594 391 2855 752 
Q 3116 1113 3116 1747 
z
" transform="scale(0.015625)"/>
       <path id="DejaVuSans-69" d="M 603 3500 
L 1178 3500 
L 1178 0 
L 603 0 
L 603 3500 
z
M 603 4863 
L 1178 4863 
L 1178 4134 
L 603 4134 
L 603 4863 
z
" transform="scale(0.015625)"/>
       <path id="DejaVuSans-73" d="M 2834 3397 
L 2834 2853 
Q 2591 2978 2328 3040 
Q 2066 3103 1784 3103 
Q 1356 3103 1142 2972 
Q 928 2841 928 2578 
Q 928 2378 1081 2264 
Q 1234 2150 1697 2047 
L 1894 2003 
Q 2506 1872 2764 1633 
Q 3022 1394 3022 966 
Q 3022 478 2636 193 
Q 2250 -91 1575 -91 
Q 1294 -91 989 -36 
Q 684 19 347 128 
L 347 722 
Q 666 556 975 473 
Q 1284 391 1588 391 
Q 1994 391 2212 530 
Q 2431 669 2431 922 
Q 2431 1156 2273 1281 
Q 2116 1406 1581 1522 
L 1381 1569 
Q 847 1681 609 1914 
Q 372 2147 372 2553 
Q 372 3047 722 3315 
Q 1072 3584 1716 3584 
Q 2034 3584 2315 3537 
Q 2597 3491 2834 3397 
z
" transform="scale(0.015625)"/>
       <path id="DejaVuSans-6f" d="M 1959 3097 
Q 1497 3097 1228 2736 
Q 959 2375 959 1747 
Q 959 1119 1226 758 
Q 1494 397 1959 397 
Q 2419 397 2687 759 
Q 2956 1122 2956 1747 
Q 2956 2369 2687 2733 
Q 2419 3097 1959 3097 
z
M 1959 3584 
Q 2709 3584 3137 3096 
Q 3566 2609 3566 1747 
Q 3566 888 3137 398 
Q 2709 -91 1959 -91 
Q 1206 -91 779 398 
Q 353 888 353 1747 
Q 353 2609 779 3096 
Q 1206 3584 1959 3584 
z
" transform="scale(0.015625)"/>
       <path id="DejaVuSans-64" d="M 2906 2969 
L 2906 4863 
L 3481 4863 
L 3481 0 
L 2906 0 
L 2906 525 
Q 2725 213 2448 61 
Q 2172 -91 1784 -91 
Q 1150 -91 751 415 
Q 353 922 353 1747 
Q 353 2572 751 3078 
Q 1150 3584 1784 3584 
Q 2172 3584 2448 3432 
Q 2725 3281 2906 2969 
z
M 947 1747 
Q 947 1113 1208 752 
Q 1469 391 1925 391 
Q 2381 391 2643 752 
Q 2906 1113 2906 1747 
Q 2906 2381 2643 2742 
Q 2381 3103 1925 3103 
Q 1469 3103 1208 2742 
Q 947 2381 947 1747 
z
" transform="scale(0.015625)"/>
       <path id="DejaVuSans-65" d="M 3597 1894 
L 3597 1613 
L 953 1613 
Q 991 1019 1311 708 
Q 1631 397 2203 397 
Q 2534 397 2845 478 
Q 3156 559 3463 722 
L 3463 178 
Q 3153 47 2828 -22 
Q 2503 -91 2169 -91 
Q 1331 -91 842 396 
Q 353 884 353 1716 
Q 353 2575 817 3079 
Q 1281 3584 2069 3584 
Q 2775 3584 3186 3129 
Q 3597 2675 3597 1894 
z
M 3022 2063 
Q 3016 2534 2758 2815 
Q 2500 3097 2075 3097 
Q 1594 3097 1305 2825 
Q 1016 2553 972 2059 
L 3022 2063 
z
" transform="scale(0.015625)"/>
      </defs>
      <use xlink:href="#DejaVuSans-45"/>
      <use xlink:href="#DejaVuSans-70" transform="translate(63.183594 0)"/>
      <use xlink:href="#DejaVuSans-69" transform="translate(126.660156 0)"/>
      <use xlink:href="#DejaVuSans-73" transform="translate(154.443359 0)"/>
      <use xlink:href="#DejaVuSans-6f" transform="translate(206.542969 0)"/>
      <use xlink:href="#DejaVuSans-64" transform="translate(267.724609 0)"/>
      <use xlink:href="#DejaVuSans-65" transform="translate(331.201172 0)"/>
      <use xlink:href="#DejaVuSans-73" transform="translate(392.724609 0)"/>
     </g>
    </g>
   </g>
   <g id="matplotlib.axis_2">
    <g id="ytick_1">
     <g id="line2d_17">
      <path d="M 47.63 372.211119 
L 709.2 372.211119 
" clip-path="url(#pc453fe8f04)" style="fill: none; stroke: #b0b0b0; stroke-width: 0.8; stroke-linecap: square"/>
     </g>
     <g id="line2d_18">
      <defs>
       <path id="m9afb516f3c" d="M 0 0 
L -3.5 0 
" style="stroke: #000000; stroke-width: 0.8"/>
      </defs>
      <g>
       <use xlink:href="#m9afb516f3c" x="47.63" y="372.211119" style="stroke: #000000; stroke-width: 0.8"/>
      </g>
     </g>
     <g id="text_10">
      <!-- 2.0 -->
      <g transform="translate(24.726875 376.010338) scale(0.1 -0.1)">
       <defs>
        <path id="DejaVuSans-2e" d="M 684 794 
L 1344 794 
L 1344 0 
L 684 0 
L 684 794 
z
" transform="scale(0.015625)"/>
       </defs>
       <use xlink:href="#DejaVuSans-32"/>
       <use xlink:href="#DejaVuSans-2e" transform="translate(63.623047 0)"/>
       <use xlink:href="#DejaVuSans-30" transform="translate(95.410156 0)"/>
      </g>
     </g>
    </g>
    <g id="ytick_2">
     <g id="line2d_19">
      <path d="M 47.63 319.763581 
L 709.2 319.763581 
" clip-path="url(#pc453fe8f04)" style="fill: none; stroke: #b0b0b0; stroke-width: 0.8; stroke-linecap: square"/>
     </g>
     <g id="line2d_20">
      <g>
       <use xlink:href="#m9afb516f3c" x="47.63" y="319.763581" style="stroke: #000000; stroke-width: 0.8"/>
      </g>
     </g>
     <g id="text_11">
      <!-- 2.5 -->
      <g transform="translate(24.726875 323.5628) scale(0.1 -0.1)">
       <use xlink:href="#DejaVuSans-32"/>
       <use xlink:href="#DejaVuSans-2e" transform="translate(63.623047 0)"/>
       <use xlink:href="#DejaVuSans-35" transform="translate(95.410156 0)"/>
      </g>
     </g>
    </g>
    <g id="ytick_3">
     <g id="line2d_21">
      <path d="M 47.63 267.316043 
L 709.2 267.316043 
" clip-path="url(#pc453fe8f04)" style="fill: none; stroke: #b0b0b0; stroke-width: 0.8; stroke-linecap: square"/>
     </g>
     <g id="line2d_22">
      <g>
       <use xlink:href="#m9afb516f3c" x="47.63" y="267.316043" style="stroke: #000000; stroke-width: 0.8"/>
      </g>
     </g>
     <g id="text_12">
      <!-- 3.0 -->
      <g transform="translate(24.726875 271.115262) scale(0.1 -0.1)">
       <use xlink:href="#DejaVuSans-33"/>
       <use xlink:href="#DejaVuSans-2e" transform="translate(63.623047 0)"/>
       <use xlink:href="#DejaVuSans-30" transform="translate(95.410156 0)"/>
      </g>
     </g>
    </g>
    <g id="ytick_4">
     <g id="line2d_23">
      <path d="M 47.63 214.868505 
L 709.2 214.868505 
" clip-path="url(#pc453fe8f04)" style="fill: none; stroke: #b0b0b0; stroke-width: 0.8; stroke-linecap: square"/>
     </g>
     <g id="line2d_24">
      <g>
       <use xlink:href="#m9afb516f3c" x="47.63" y="214.868505" style="stroke: #000000; stroke-width: 0.8"/>
      </g>
     </g>
     <g id="text_13">
      <!-- 3.5 -->
      <g transform="translate(24.726875 218.667724) scale(0.1 -0.1)">
       <use xlink:href="#DejaVuSans-33"/>
       <use xlink:href="#DejaVuSans-2e" transform="translate(63.623047 0)"/>
       <use xlink:href="#DejaVuSans-35" transform="translate(95.410156 0)"/>
      </g>
     </g>
    </g>
    <g id="ytick_5">
     <g id="line2d_25">
      <path d="M 47.63 162.420967 
L 709.2 162.420967 
" clip-path="url(#pc453fe8f04)" style="fill: none; stroke: #b0b0b0; stroke-width: 0.8; stroke-linecap: square"/>
     </g>
     <g id="line2d_26">
      <g>
       <use xlink:href="#m9afb516f3c" x="47.63" y="162.420967" style="stroke: #000000; stroke-width: 0.8"/>
      </g>
     </g>
     <g id="text_14">
      <!-- 4.0 -->
      <g transform="translate(24.726875 166.220186) scale(0.1 -0.1)">
       <defs>
        <path id="DejaVuSans-34" d="M 2419 4116 
L 825 1625 
L 2419 1625 
L 2419 4116 
z
M 2253 4666 
L 3047 4666 
L 3047 1625 
L 3713 1625 
L 3713 1100 
L 3047 1100 
L 3047 0 
L 2419 0 
L 2419 1100 
L 313 1100 
L 313 1709 
L 2253 4666 
z
" transform="scale(0.015625)"/>
       </defs>
       <use xlink:href="#DejaVuSans-34"/>
       <use xlink:href="#DejaVuSans-2e" transform="translate(63.623047 0)"/>
       <use xlink:href="#DejaVuSans-30" transform="translate(95.410156 0)"/>
      </g>
     </g>
    </g>
    <g id="ytick_6">
     <g id="line2d_27">
      <path d="M 47.63 109.973429 
L 709.2 109.973429 
" clip-path="url(#pc453fe8f04)" style="fill: none; stroke: #b0b0b0; stroke-width: 0.8; stroke-linecap: square"/>
     </g>
     <g id="line2d_28">
      <g>
       <use xlink:href="#m9afb516f3c" x="47.63" y="109.973429" style="stroke: #000000; stroke-width: 0.8"/>
      </g>
     </g>
     <g id="text_15">
      <!-- 4.5 -->
      <g transform="translate(24.726875 113.772647) scale(0.1 -0.1)">
       <use xlink:href="#DejaVuSans-34"/>
       <use xlink:href="#DejaVuSans-2e" transform="translate(63.623047 0)"/>
       <use xlink:href="#DejaVuSans-35" transform="translate(95.410156 0)"/>
      </g>
     </g>
    </g>
    <g id="ytick_7">
     <g id="line2d_29">
      <path d="M 47.63 57.525891 
L 709.2 57.525891 
" clip-path="url(#pc453fe8f04)" style="fill: none; stroke: #b0b0b0; stroke-width: 0.8; stroke-linecap: square"/>
     </g>
     <g id="line2d_30">
      <g>
       <use xlink:href="#m9afb516f3c" x="47.63" y="57.525891" style="stroke: #000000; stroke-width: 0.8"/>
      </g>
     </g>
     <g id="text_16">
      <!-- 5.0 -->
      <g transform="translate(24.726875 61.325109) scale(0.1 -0.1)">
       <use xlink:href="#DejaVuSans-35"/>
       <use xlink:href="#DejaVuSans-2e" transform="translate(63.623047 0)"/>
       <use xlink:href="#DejaVuSans-30" transform="translate(95.410156 0)"/>
      </g>
     </g>
    </g>
    <g id="text_17">
     <!-- Circuit Depth -->
     <g transform="translate(18.647187 233.329375) rotate(-90) scale(0.1 -0.1)">
      <defs>
       <path id="DejaVuSans-43" d="M 4122 4306 
L 4122 3641 
Q 3803 3938 3442 4084 
Q 3081 4231 2675 4231 
Q 1875 4231 1450 3742 
Q 1025 3253 1025 2328 
Q 1025 1406 1450 917 
Q 1875 428 2675 428 
Q 3081 428 3442 575 
Q 3803 722 4122 1019 
L 4122 359 
Q 3791 134 3420 21 
Q 3050 -91 2638 -91 
Q 1578 -91 968 557 
Q 359 1206 359 2328 
Q 359 3453 968 4101 
Q 1578 4750 2638 4750 
Q 3056 4750 3426 4639 
Q 3797 4528 4122 4306 
z
" transform="scale(0.015625)"/>
       <path id="DejaVuSans-72" d="M 2631 2963 
Q 2534 3019 2420 3045 
Q 2306 3072 2169 3072 
Q 1681 3072 1420 2755 
Q 1159 2438 1159 1844 
L 1159 0 
L 581 0 
L 581 3500 
L 1159 3500 
L 1159 2956 
Q 1341 3275 1631 3429 
Q 1922 3584 2338 3584 
Q 2397 3584 2469 3576 
Q 2541 3569 2628 3553 
L 2631 2963 
z
" transform="scale(0.015625)"/>
       <path id="DejaVuSans-63" d="M 3122 3366 
L 3122 2828 
Q 2878 2963 2633 3030 
Q 2388 3097 2138 3097 
Q 1578 3097 1268 2742 
Q 959 2388 959 1747 
Q 959 1106 1268 751 
Q 1578 397 2138 397 
Q 2388 397 2633 464 
Q 2878 531 3122 666 
L 3122 134 
Q 2881 22 2623 -34 
Q 2366 -91 2075 -91 
Q 1284 -91 818 406 
Q 353 903 353 1747 
Q 353 2603 823 3093 
Q 1294 3584 2113 3584 
Q 2378 3584 2631 3529 
Q 2884 3475 3122 3366 
z
" transform="scale(0.015625)"/>
       <path id="DejaVuSans-75" d="M 544 1381 
L 544 3500 
L 1119 3500 
L 1119 1403 
Q 1119 906 1312 657 
Q 1506 409 1894 409 
Q 2359 409 2629 706 
Q 2900 1003 2900 1516 
L 2900 3500 
L 3475 3500 
L 3475 0 
L 2900 0 
L 2900 538 
Q 2691 219 2414 64 
Q 2138 -91 1772 -91 
Q 1169 -91 856 284 
Q 544 659 544 1381 
z
M 1991 3584 
L 1991 3584 
z
" transform="scale(0.015625)"/>
       <path id="DejaVuSans-74" d="M 1172 4494 
L 1172 3500 
L 2356 3500 
L 2356 3053 
L 1172 3053 
L 1172 1153 
Q 1172 725 1289 603 
Q 1406 481 1766 481 
L 2356 481 
L 2356 0 
L 1766 0 
Q 1100 0 847 248 
Q 594 497 594 1153 
L 594 3053 
L 172 3053 
L 172 3500 
L 594 3500 
L 594 4494 
L 1172 4494 
z
" transform="scale(0.015625)"/>
       <path id="DejaVuSans-20" transform="scale(0.015625)"/>
       <path id="DejaVuSans-44" d="M 1259 4147 
L 1259 519 
L 2022 519 
Q 2988 519 3436 956 
Q 3884 1394 3884 2338 
Q 3884 3275 3436 3711 
Q 2988 4147 2022 4147 
L 1259 4147 
z
M 628 4666 
L 1925 4666 
Q 3281 4666 3915 4102 
Q 4550 3538 4550 2338 
Q 4550 1131 3912 565 
Q 3275 0 1925 0 
L 628 0 
L 628 4666 
z
" transform="scale(0.015625)"/>
       <path id="DejaVuSans-68" d="M 3513 2113 
L 3513 0 
L 2938 0 
L 2938 2094 
Q 2938 2591 2744 2837 
Q 2550 3084 2163 3084 
Q 1697 3084 1428 2787 
Q 1159 2491 1159 1978 
L 1159 0 
L 581 0 
L 581 4863 
L 1159 4863 
L 1159 2956 
Q 1366 3272 1645 3428 
Q 1925 3584 2291 3584 
Q 2894 3584 3203 3211 
Q 3513 2838 3513 2113 
z
" transform="scale(0.015625)"/>
      </defs>
      <use xlink:href="#DejaVuSans-43"/>
      <use xlink:href="#DejaVuSans-69" transform="translate(69.824219 0)"/>
      <use xlink:href="#DejaVuSans-72" transform="translate(97.607422 0)"/>
      <use xlink:href="#DejaVuSans-63" transform="translate(136.470703 0)"/>
      <use xlink:href="#DejaVuSans-75" transform="translate(191.451172 0)"/>
      <use xlink:href="#DejaVuSans-69" transform="translate(254.830078 0)"/>
      <use xlink:href="#DejaVuSans-74" transform="translate(282.613281 0)"/>
      <use xlink:href="#DejaVuSans-20" transform="translate(321.822266 0)"/>
      <use xlink:href="#DejaVuSans-44" transform="translate(353.609375 0)"/>
      <use xlink:href="#DejaVuSans-65" transform="translate(430.611328 0)"/>
      <use xlink:href="#DejaVuSans-70" transform="translate(492.134766 0)"/>
      <use xlink:href="#DejaVuSans-74" transform="translate(555.611328 0)"/>
      <use xlink:href="#DejaVuSans-68" transform="translate(594.820312 0)"/>
     </g>
    </g>
   </g>
   <g id="line2d_31">
    <path d="M 77.701364 202.455921 
L 81.080169 193.365014 
L 84.458973 197.036342 
L 87.837778 202.805571 
L 91.216583 193.539839 
L 94.595388 204.728647 
L 97.974193 200.70767 
L 101.352998 202.281096 
L 104.731803 198.959418 
L 108.110608 189.344036 
L 111.489413 200.882495 
L 114.868218 191.441938 
L 118.247022 199.134243 
L 121.625827 193.539839 
L 125.004632 194.064315 
L 128.383437 198.260118 
L 131.762242 197.385992 
L 135.141047 197.385992 
L 138.519852 201.581795 
L 141.898657 201.232145 
L 145.277462 211.022352 
L 148.656267 208.050325 
L 152.035072 206.127249 
L 155.413876 199.658719 
L 158.792681 195.637741 
L 162.171486 213.469904 
L 165.550291 192.490889 
L 168.929096 192.665714 
L 172.307901 189.344036 
L 175.686706 198.609768 
L 179.065511 190.917462 
L 182.444316 200.532844 
L 185.823121 194.93844 
L 189.201925 196.686692 
L 192.58073 194.58879 
L 195.959535 207.001374 
L 199.33834 176.756627 
L 202.717145 212.246128 
L 206.09595 209.099276 
L 209.474755 198.260118 
L 212.85356 196.861517 
L 216.232365 198.784593 
L 219.61117 209.973401 
L 222.989974 199.833544 
L 226.368779 211.546827 
L 229.747584 198.260118 
L 233.126389 196.511867 
L 236.505194 209.973401 
L 239.883999 189.344036 
L 243.262804 197.036342 
L 246.641609 195.113266 
L 250.020414 198.784593 
L 253.399219 213.120254 
L 256.778023 187.77061 
L 260.156828 201.931445 
L 263.535633 203.330046 
L 266.914438 195.113266 
L 270.293243 204.553822 
L 273.672048 204.378997 
L 277.050853 196.861517 
L 280.429658 190.742637 
L 283.808463 208.399975 
L 287.187268 190.218162 
L 290.566073 208.749625 
L 293.944877 197.560817 
L 297.323682 202.980396 
L 300.702487 205.253123 
L 304.081292 184.973408 
L 307.460097 186.546834 
L 310.838902 196.162216 
L 314.217707 186.546834 
L 317.596512 188.12026 
L 320.975317 211.546827 
L 324.354122 192.490889 
L 327.732926 193.714664 
L 331.111731 205.602773 
L 334.490536 197.036342 
L 337.869341 193.714664 
L 341.248146 209.099276 
L 344.626951 203.679697 
L 348.005756 201.232145 
L 351.384561 200.882495 
L 354.763366 198.609768 
L 358.142171 203.679697 
L 361.520975 211.372002 
L 364.89978 197.211167 
L 368.278585 214.518855 
L 371.65739 201.75662 
L 375.036195 200.532844 
L 378.415 212.595778 
L 381.793805 204.553822 
L 385.17261 203.155221 
L 388.551415 192.316063 
L 391.93022 202.106271 
L 395.309025 204.728647 
L 398.687829 212.246128 
L 402.066634 201.40697 
L 405.445439 204.553822 
L 408.824244 192.490889 
L 412.203049 189.868512 
L 415.581854 204.903473 
L 418.960659 207.176199 
L 422.339464 197.385992 
L 425.718269 205.253123 
L 429.097074 206.127249 
L 432.475878 193.539839 
L 435.854683 197.385992 
L 439.233488 193.015364 
L 442.612293 204.204172 
L 445.991098 204.903473 
L 449.369903 188.12026 
L 452.748708 201.581795 
L 456.127513 188.819561 
L 459.506318 198.434943 
L 462.885123 198.260118 
L 466.263927 203.330046 
L 469.642732 201.05732 
L 473.021537 194.93844 
L 476.400342 200.70767 
L 479.779147 211.546827 
L 483.157952 204.378997 
L 486.536757 202.455921 
L 489.915562 211.896478 
L 493.294367 202.106271 
L 496.673172 201.75662 
L 500.051977 181.651731 
L 503.430781 195.462916 
L 506.809586 203.155221 
L 510.188391 192.316063 
L 513.567196 186.896485 
L 516.946001 187.595785 
L 520.324806 196.861517 
L 523.703611 197.385992 
L 527.082416 194.064315 
L 530.461221 211.197177 
L 533.840026 193.365014 
L 537.21883 216.791581 
L 540.597635 196.337041 
L 543.97644 193.365014 
L 547.355245 209.623751 
L 550.73405 184.623758 
L 554.112855 195.288091 
L 557.49166 187.77061 
L 560.870465 204.553822 
L 564.24927 187.945435 
L 567.628075 209.798576 
L 571.006879 206.476899 
L 574.385684 200.882495 
L 577.764489 200.358019 
L 581.143294 199.134243 
L 584.522099 198.784593 
L 587.900904 204.728647 
L 591.279709 217.316057 
L 594.658514 207.700675 
L 598.037319 193.365014 
L 601.416124 198.784593 
L 604.794928 187.945435 
L 608.173733 193.015364 
L 611.552538 195.987391 
L 614.931343 187.07131 
L 618.310148 194.413965 
L 621.688953 200.882495 
L 625.067758 205.253123 
L 628.446563 215.218155 
L 631.825368 196.162216 
L 635.204173 197.036342 
L 638.582978 195.637741 
L 641.961782 192.141238 
L 645.340587 208.050325 
L 648.719392 198.784593 
L 652.098197 188.819561 
L 655.477002 210.323052 
L 658.855807 192.840539 
L 662.234612 202.805571 
L 665.613417 198.434943 
L 668.992222 189.693687 
L 672.371027 202.980396 
L 675.749831 210.847527 
L 679.128636 191.267113 
L 679.128636 191.267113 
" clip-path="url(#pc453fe8f04)" style="fill: none; stroke: #1f77b4; stroke-width: 1.5; stroke-linecap: square"/>
   </g>
   <g id="patch_3">
    <path d="M 47.63 390.04 
L 47.63 10.8 
" style="fill: none; stroke: #000000; stroke-width: 0.8; stroke-linejoin: miter; stroke-linecap: square"/>
   </g>
   <g id="patch_4">
    <path d="M 709.2 390.04 
L 709.2 10.8 
" style="fill: none; stroke: #000000; stroke-width: 0.8; stroke-linejoin: miter; stroke-linecap: square"/>
   </g>
   <g id="patch_5">
    <path d="M 47.63 390.04 
L 709.2 390.04 
" style="fill: none; stroke: #000000; stroke-width: 0.8; stroke-linejoin: miter; stroke-linecap: square"/>
   </g>
   <g id="patch_6">
    <path d="M 47.63 10.8 
L 709.2 10.8 
" style="fill: none; stroke: #000000; stroke-width: 0.8; stroke-linejoin: miter; stroke-linecap: square"/>
   </g>
  </g>
 </g>
 <defs>
  <clipPath id="pc453fe8f04">
   <rect x="47.63" y="10.8" width="661.57" height="379.24"/>
  </clipPath>
 </defs>
</svg>
