<?xml version="1.0" encoding="utf-8" standalone="no"?>
<!DOCTYPE svg PUBLIC "-//W3C//DTD SVG 1.1//EN"
  "http://www.w3.org/Graphics/SVG/1.1/DTD/svg11.dtd">
<svg xmlns:xlink="http://www.w3.org/1999/xlink" width="720pt" height="432pt" viewBox="0 0 720 432" xmlns="http://www.w3.org/2000/svg" version="1.1">
 <metadata>
  <rdf:RDF xmlns:dc="http://purl.org/dc/elements/1.1/" xmlns:cc="http://creativecommons.org/ns#" xmlns:rdf="http://www.w3.org/1999/02/22-rdf-syntax-ns#">
   <cc:Work>
    <dc:type rdf:resource="http://purl.org/dc/dcmitype/StillImage"/>
    <dc:date>2025-04-22T23:14:22.806912</dc:date>
    <dc:format>image/svg+xml</dc:format>
    <dc:creator>
     <cc:Agent>
      <dc:title>Matplotlib v3.10.0, https://matplotlib.org/</dc:title>
     </cc:Agent>
    </dc:creator>
   </cc:Work>
  </rdf:RDF>
 </metadata>
 <defs>
  <style type="text/css">*{stroke-linejoin: round; stroke-linecap: butt}</style>
 </defs>
 <g id="figure_1">
  <g id="patch_1">
   <path d="M 0 432 
L 720 432 
L 720 0 
L 0 0 
z
" style="fill: #ffffff"/>
  </g>
  <g id="axes_1">
   <g id="patch_2">
    <path d="M 54.02 390.04 
L 709.2 390.04 
L 709.2 10.8 
L 54.02 10.8 
z
" style="fill: #ffffff"/>
   </g>
   <g id="FillBetweenPolyCollection_1">
    <path d="M 83.800909 225.324382 
L 83.800909 351.475595 
L 87.003157 343.304387 
L 90.205406 341.327873 
L 93.407654 334.210731 
L 96.609902 340.689341 
L 99.812151 340.252668 
L 103.014399 344.002208 
L 106.216647 345.696964 
L 109.418895 347.613606 
L 112.621144 349.889645 
L 115.823392 350.93748 
L 119.02564 354.034959 
L 122.227889 361.106581 
L 125.430137 365.067343 
L 128.632385 364.134676 
L 131.834633 362.82599 
L 135.036882 359.263936 
L 138.23913 367.50742 
L 141.441378 367.329099 
L 144.643627 366.568123 
L 147.845875 367.536648 
L 151.048123 364.535642 
L 154.250371 369.896819 
L 157.45262 358.941291 
L 160.654868 362.932851 
L 163.857116 360.142942 
L 167.059365 351.351502 
L 170.261613 352.651482 
L 173.463861 341.4035 
L 176.666109 345.623815 
L 179.868358 332.364928 
L 183.070606 332.704159 
L 186.272854 332.561463 
L 189.475103 335.121587 
L 192.677351 344.933806 
L 195.879599 343.014259 
L 199.081848 338.125079 
L 202.284096 334.633838 
L 205.486344 332.269691 
L 208.688592 338.483199 
L 211.890841 342.992461 
L 215.093089 337.791905 
L 218.295337 337.895683 
L 221.497586 328.621685 
L 224.699834 341.923206 
L 227.902082 353.381288 
L 231.10433 354.792478 
L 234.306579 349.52331 
L 237.508827 361.186498 
L 240.711075 352.116866 
L 243.913324 339.209436 
L 247.115572 336.586471 
L 250.31782 323.380105 
L 253.520068 323.919361 
L 256.722317 304.415157 
L 259.924565 296.497146 
L 263.126813 295.340052 
L 266.329062 284.153894 
L 269.53131 299.528351 
L 272.733558 294.012145 
L 275.935806 296.692877 
L 279.138055 290.16926 
L 282.340303 285.019853 
L 285.542551 287.421064 
L 288.7448 287.490055 
L 291.947048 282.046144 
L 295.149296 290.033865 
L 298.351544 286.418506 
L 301.553793 286.480245 
L 304.756041 295.302279 
L 307.958289 295.288861 
L 311.160538 291.199317 
L 314.362786 290.441634 
L 317.565034 275.779882 
L 320.767283 279.880221 
L 323.969531 288.127395 
L 327.171779 305.638801 
L 330.374027 331.646734 
L 333.576276 334.701053 
L 336.778524 311.386351 
L 339.980772 312.241923 
L 343.183021 290.884057 
L 346.385269 262.169847 
L 349.587517 259.78058 
L 352.789765 258.873188 
L 355.992014 254.649749 
L 359.194262 281.872456 
L 362.39651 291.701343 
L 365.598759 257.470995 
L 368.801007 259.106284 
L 372.003255 239.916429 
L 375.205503 233.276875 
L 378.407752 231.987212 
L 381.61 222.303636 
L 384.812248 235.538832 
L 388.014497 255.021098 
L 391.216745 279.950736 
L 394.418993 292.284262 
L 397.621241 337.71712 
L 400.82349 349.95058 
L 404.025738 364.884642 
L 407.227986 364.331481 
L 410.430235 354.33432 
L 413.632483 348.678987 
L 416.834731 355.832407 
L 420.036979 358.530679 
L 423.239228 366.484175 
L 426.441476 360.169494 
L 429.643724 354.796128 
L 432.845973 346.172357 
L 436.048221 355.245617 
L 439.250469 346.041087 
L 442.452717 342.425599 
L 445.654966 339.945852 
L 448.857214 334.930259 
L 452.059462 341.110329 
L 455.261711 347.330423 
L 458.463959 334.663657 
L 461.666207 337.124167 
L 464.868456 342.008504 
L 468.070704 338.343599 
L 471.272952 328.001579 
L 474.4752 330.421201 
L 477.677449 247.260251 
L 480.879697 204.812274 
L 484.081945 262.856317 
L 487.284194 238.766926 
L 490.486442 203.210029 
L 493.68869 196.936492 
L 496.890938 183.774051 
L 500.093187 173.661365 
L 503.295435 171.650319 
L 506.497683 183.192398 
L 509.699932 225.847703 
L 512.90218 212.789454 
L 516.104428 183.386867 
L 519.306676 187.29862 
L 522.508925 197.190423 
L 525.711173 227.521891 
L 528.913421 278.302254 
L 532.11567 301.984273 
L 535.317918 283.198926 
L 538.520166 309.653518 
L 541.722414 357.451356 
L 544.924663 359.478913 
L 548.126911 362.539991 
L 551.329159 351.791816 
L 554.531408 358.094753 
L 557.733656 353.678388 
L 560.935904 342.744084 
L 564.138152 343.077312 
L 567.340401 336.226711 
L 570.542649 341.751564 
L 573.744897 343.589979 
L 576.947146 346.159613 
L 580.149394 339.383752 
L 583.351642 351.244412 
L 586.553891 358.954742 
L 589.756139 372.801818 
L 592.958387 371.324809 
L 596.160635 350.386082 
L 599.362884 290.579548 
L 602.565132 265.112594 
L 605.76738 239.107097 
L 608.969629 185.78374 
L 612.171877 166.638088 
L 615.374125 154.216836 
L 618.576373 172.651271 
L 621.778622 164.813407 
L 624.98087 182.958442 
L 628.183118 175.109826 
L 631.385367 191.127669 
L 634.587615 176.684088 
L 637.789863 177.152033 
L 640.992111 188.091371 
L 644.19436 203.658442 
L 647.396608 270.950461 
L 650.598856 305.62865 
L 653.801105 325.861795 
L 657.003353 341.487694 
L 660.205601 340.129453 
L 663.407849 344.718301 
L 666.610098 345.645383 
L 669.812346 354.783183 
L 673.014594 363.64435 
L 676.216843 348.817852 
L 679.419091 340.797722 
L 679.419091 75.213031 
L 679.419091 75.213031 
L 676.216843 93.544471 
L 673.014594 94.648015 
L 669.812346 95.320843 
L 666.610098 84.955501 
L 663.407849 80.2624 
L 660.205601 72.494296 
L 657.003353 80.738746 
L 653.801105 74.66554 
L 650.598856 56.190164 
L 647.396608 53.797499 
L 644.19436 51.600276 
L 640.992111 44.686626 
L 637.789863 47.177079 
L 634.587615 53.749053 
L 631.385367 60.520717 
L 628.183118 56.849318 
L 624.98087 57.784553 
L 621.778622 52.257845 
L 618.576373 52.757205 
L 615.374125 50.385807 
L 612.171877 54.043475 
L 608.969629 59.537285 
L 605.76738 77.78748 
L 602.565132 93.914719 
L 599.362884 117.577816 
L 596.160635 158.004023 
L 592.958387 164.459022 
L 589.756139 176.120578 
L 586.553891 168.715181 
L 583.351642 151.227753 
L 580.149394 128.101867 
L 576.947146 133.943497 
L 573.744897 127.692054 
L 570.542649 125.994593 
L 567.340401 114.212269 
L 564.138152 128.874674 
L 560.935904 126.304763 
L 557.733656 146.746695 
L 554.531408 152.900734 
L 551.329159 138.956138 
L 548.126911 146.036217 
L 544.924663 136.591463 
L 541.722414 136.646376 
L 538.520166 112.647351 
L 535.317918 113.866968 
L 532.11567 108.778476 
L 528.913421 85.675295 
L 525.711173 64.249386 
L 522.508925 48.01898 
L 519.306676 36.695541 
L 516.104428 31.600123 
L 512.90218 33.16435 
L 509.699932 30.899823 
L 506.497683 28.668135 
L 503.295435 29.118734 
L 500.093187 28.038182 
L 496.890938 31.250159 
L 493.68869 31.635698 
L 490.486442 34.108798 
L 487.284194 46.155934 
L 484.081945 55.006002 
L 480.879697 38.871128 
L 477.677449 47.935259 
L 474.4752 73.530362 
L 471.272952 64.039671 
L 468.070704 76.587785 
L 464.868456 87.81077 
L 461.666207 71.293765 
L 458.463959 67.464139 
L 455.261711 90.081677 
L 452.059462 79.664551 
L 448.857214 74.604259 
L 445.654966 87.789106 
L 442.452717 95.768097 
L 439.250469 105.663369 
L 436.048221 126.532381 
L 432.845973 114.390397 
L 429.643724 138.110572 
L 426.441476 153.431376 
L 423.239228 175.143154 
L 420.036979 151.38544 
L 416.834731 141.019586 
L 413.632483 117.392287 
L 410.430235 124.540544 
L 407.227986 144.877466 
L 404.025738 156.904578 
L 400.82349 127.770482 
L 397.621241 112.83354 
L 394.418993 69.199588 
L 391.216745 69.69724 
L 388.014497 55.955577 
L 384.812248 52.696578 
L 381.61 52.011584 
L 378.407752 50.218587 
L 375.205503 53.28363 
L 372.003255 53.529727 
L 368.801007 62.143013 
L 365.598759 57.004311 
L 362.39651 77.896392 
L 359.194262 61.783131 
L 355.992014 57.29463 
L 352.789765 53.592265 
L 349.587517 51.866039 
L 346.385269 49.737309 
L 343.183021 61.369283 
L 339.980772 64.985852 
L 336.778524 53.521692 
L 333.576276 67.091741 
L 330.374027 77.776101 
L 327.171779 82.23381 
L 323.969531 86.048355 
L 320.767283 85.027812 
L 317.565034 82.205279 
L 314.362786 81.910343 
L 311.160538 84.167457 
L 307.958289 83.874323 
L 304.756041 80.362251 
L 301.553793 82.447515 
L 298.351544 82.546471 
L 295.149296 86.188958 
L 291.947048 82.303584 
L 288.7448 85.494651 
L 285.542551 83.851536 
L 282.340303 83.982345 
L 279.138055 84.825314 
L 275.935806 84.852371 
L 272.733558 88.612477 
L 269.53131 94.708828 
L 266.329062 88.160865 
L 263.126813 89.741081 
L 259.924565 92.901476 
L 256.722317 99.759698 
L 253.520068 94.473431 
L 250.31782 102.344973 
L 247.115572 114.00139 
L 243.913324 110.857347 
L 240.711075 124.07817 
L 237.508827 130.715265 
L 234.306579 139.921953 
L 231.10433 143.9205 
L 227.902082 146.634382 
L 224.699834 128.167801 
L 221.497586 142.474257 
L 218.295337 149.093085 
L 215.093089 148.564127 
L 211.890841 158.139801 
L 208.688592 159.894804 
L 205.486344 147.014589 
L 202.284096 148.707393 
L 199.081848 145.811669 
L 195.879599 165.859707 
L 192.677351 163.307427 
L 189.475103 158.045658 
L 186.272854 145.941204 
L 183.070606 132.51107 
L 179.868358 134.636843 
L 176.666109 149.888269 
L 173.463861 155.89513 
L 170.261613 187.747594 
L 167.059365 201.888377 
L 163.857116 202.364651 
L 160.654868 201.175191 
L 157.45262 190.725496 
L 154.250371 207.052031 
L 151.048123 240.439663 
L 147.845875 245.031481 
L 144.643627 231.186555 
L 141.441378 261.987908 
L 138.23913 246.40062 
L 135.036882 246.567422 
L 131.834633 258.451559 
L 128.632385 249.736144 
L 125.430137 262.649219 
L 122.227889 237.913567 
L 119.02564 229.017927 
L 115.823392 219.609576 
L 112.621144 211.017501 
L 109.418895 211.693092 
L 106.216647 214.428568 
L 103.014399 209.200454 
L 99.812151 201.4491 
L 96.609902 197.364892 
L 93.407654 199.674897 
L 90.205406 207.036227 
L 87.003157 208.856126 
L 83.800909 225.324382 
z
" clip-path="url(#p41760d08e5)" style="fill: #1f77b4; fill-opacity: 0.2"/>
   </g>
   <g id="matplotlib.axis_1">
    <g id="xtick_1">
     <g id="line2d_1">
      <path d="M 82.183774 390.04 
L 82.183774 10.8 
" clip-path="url(#p41760d08e5)" style="fill: none; stroke: #b0b0b0; stroke-width: 0.8; stroke-linecap: square"/>
     </g>
     <g id="line2d_2">
      <defs>
       <path id="m15ae370ef1" d="M 0 0 
L 0 3.5 
" style="stroke: #000000; stroke-width: 0.8"/>
      </defs>
      <g>
       <use xlink:href="#m15ae370ef1" x="82.183774" y="390.04" style="stroke: #000000; stroke-width: 0.8"/>
      </g>
     </g>
     <g id="text_1">
      <!-- 0 -->
      <g transform="translate(79.002524 404.638438) scale(0.1 -0.1)">
       <defs>
        <path id="DejaVuSans-30" d="M 2034 4250 
Q 1547 4250 1301 3770 
Q 1056 3291 1056 2328 
Q 1056 1369 1301 889 
Q 1547 409 2034 409 
Q 2525 409 2770 889 
Q 3016 1369 3016 2328 
Q 3016 3291 2770 3770 
Q 2525 4250 2034 4250 
z
M 2034 4750 
Q 2819 4750 3233 4129 
Q 3647 3509 3647 2328 
Q 3647 1150 3233 529 
Q 2819 -91 2034 -91 
Q 1250 -91 836 529 
Q 422 1150 422 2328 
Q 422 3509 836 4129 
Q 1250 4750 2034 4750 
z
" transform="scale(0.015625)"/>
       </defs>
       <use xlink:href="#DejaVuSans-30"/>
      </g>
     </g>
    </g>
    <g id="xtick_2">
     <g id="line2d_3">
      <path d="M 162.239981 390.04 
L 162.239981 10.8 
" clip-path="url(#p41760d08e5)" style="fill: none; stroke: #b0b0b0; stroke-width: 0.8; stroke-linecap: square"/>
     </g>
     <g id="line2d_4">
      <g>
       <use xlink:href="#m15ae370ef1" x="162.239981" y="390.04" style="stroke: #000000; stroke-width: 0.8"/>
      </g>
     </g>
     <g id="text_2">
      <!-- 5000 -->
      <g transform="translate(149.514981 404.638438) scale(0.1 -0.1)">
       <defs>
        <path id="DejaVuSans-35" d="M 691 4666 
L 3169 4666 
L 3169 4134 
L 1269 4134 
L 1269 2991 
Q 1406 3038 1543 3061 
Q 1681 3084 1819 3084 
Q 2600 3084 3056 2656 
Q 3513 2228 3513 1497 
Q 3513 744 3044 326 
Q 2575 -91 1722 -91 
Q 1428 -91 1123 -41 
Q 819 9 494 109 
L 494 744 
Q 775 591 1075 516 
Q 1375 441 1709 441 
Q 2250 441 2565 725 
Q 2881 1009 2881 1497 
Q 2881 1984 2565 2268 
Q 2250 2553 1709 2553 
Q 1456 2553 1204 2497 
Q 953 2441 691 2322 
L 691 4666 
z
" transform="scale(0.015625)"/>
       </defs>
       <use xlink:href="#DejaVuSans-35"/>
       <use xlink:href="#DejaVuSans-30" transform="translate(63.623047 0)"/>
       <use xlink:href="#DejaVuSans-30" transform="translate(127.246094 0)"/>
       <use xlink:href="#DejaVuSans-30" transform="translate(190.869141 0)"/>
      </g>
     </g>
    </g>
    <g id="xtick_3">
     <g id="line2d_5">
      <path d="M 242.296188 390.04 
L 242.296188 10.8 
" clip-path="url(#p41760d08e5)" style="fill: none; stroke: #b0b0b0; stroke-width: 0.8; stroke-linecap: square"/>
     </g>
     <g id="line2d_6">
      <g>
       <use xlink:href="#m15ae370ef1" x="242.296188" y="390.04" style="stroke: #000000; stroke-width: 0.8"/>
      </g>
     </g>
     <g id="text_3">
      <!-- 10000 -->
      <g transform="translate(226.389938 404.638438) scale(0.1 -0.1)">
       <defs>
        <path id="DejaVuSans-31" d="M 794 531 
L 1825 531 
L 1825 4091 
L 703 3866 
L 703 4441 
L 1819 4666 
L 2450 4666 
L 2450 531 
L 3481 531 
L 3481 0 
L 794 0 
L 794 531 
z
" transform="scale(0.015625)"/>
       </defs>
       <use xlink:href="#DejaVuSans-31"/>
       <use xlink:href="#DejaVuSans-30" transform="translate(63.623047 0)"/>
       <use xlink:href="#DejaVuSans-30" transform="translate(127.246094 0)"/>
       <use xlink:href="#DejaVuSans-30" transform="translate(190.869141 0)"/>
       <use xlink:href="#DejaVuSans-30" transform="translate(254.492188 0)"/>
      </g>
     </g>
    </g>
    <g id="xtick_4">
     <g id="line2d_7">
      <path d="M 322.352395 390.04 
L 322.352395 10.8 
" clip-path="url(#p41760d08e5)" style="fill: none; stroke: #b0b0b0; stroke-width: 0.8; stroke-linecap: square"/>
     </g>
     <g id="line2d_8">
      <g>
       <use xlink:href="#m15ae370ef1" x="322.352395" y="390.04" style="stroke: #000000; stroke-width: 0.8"/>
      </g>
     </g>
     <g id="text_4">
      <!-- 15000 -->
      <g transform="translate(306.446145 404.638438) scale(0.1 -0.1)">
       <use xlink:href="#DejaVuSans-31"/>
       <use xlink:href="#DejaVuSans-35" transform="translate(63.623047 0)"/>
       <use xlink:href="#DejaVuSans-30" transform="translate(127.246094 0)"/>
       <use xlink:href="#DejaVuSans-30" transform="translate(190.869141 0)"/>
       <use xlink:href="#DejaVuSans-30" transform="translate(254.492188 0)"/>
      </g>
     </g>
    </g>
    <g id="xtick_5">
     <g id="line2d_9">
      <path d="M 402.408603 390.04 
L 402.408603 10.8 
" clip-path="url(#p41760d08e5)" style="fill: none; stroke: #b0b0b0; stroke-width: 0.8; stroke-linecap: square"/>
     </g>
     <g id="line2d_10">
      <g>
       <use xlink:href="#m15ae370ef1" x="402.408603" y="390.04" style="stroke: #000000; stroke-width: 0.8"/>
      </g>
     </g>
     <g id="text_5">
      <!-- 20000 -->
      <g transform="translate(386.502353 404.638438) scale(0.1 -0.1)">
       <defs>
        <path id="DejaVuSans-32" d="M 1228 531 
L 3431 531 
L 3431 0 
L 469 0 
L 469 531 
Q 828 903 1448 1529 
Q 2069 2156 2228 2338 
Q 2531 2678 2651 2914 
Q 2772 3150 2772 3378 
Q 2772 3750 2511 3984 
Q 2250 4219 1831 4219 
Q 1534 4219 1204 4116 
Q 875 4013 500 3803 
L 500 4441 
Q 881 4594 1212 4672 
Q 1544 4750 1819 4750 
Q 2544 4750 2975 4387 
Q 3406 4025 3406 3419 
Q 3406 3131 3298 2873 
Q 3191 2616 2906 2266 
Q 2828 2175 2409 1742 
Q 1991 1309 1228 531 
z
" transform="scale(0.015625)"/>
       </defs>
       <use xlink:href="#DejaVuSans-32"/>
       <use xlink:href="#DejaVuSans-30" transform="translate(63.623047 0)"/>
       <use xlink:href="#DejaVuSans-30" transform="translate(127.246094 0)"/>
       <use xlink:href="#DejaVuSans-30" transform="translate(190.869141 0)"/>
       <use xlink:href="#DejaVuSans-30" transform="translate(254.492188 0)"/>
      </g>
     </g>
    </g>
    <g id="xtick_6">
     <g id="line2d_11">
      <path d="M 482.46481 390.04 
L 482.46481 10.8 
" clip-path="url(#p41760d08e5)" style="fill: none; stroke: #b0b0b0; stroke-width: 0.8; stroke-linecap: square"/>
     </g>
     <g id="line2d_12">
      <g>
       <use xlink:href="#m15ae370ef1" x="482.46481" y="390.04" style="stroke: #000000; stroke-width: 0.8"/>
      </g>
     </g>
     <g id="text_6">
      <!-- 25000 -->
      <g transform="translate(466.55856 404.638438) scale(0.1 -0.1)">
       <use xlink:href="#DejaVuSans-32"/>
       <use xlink:href="#DejaVuSans-35" transform="translate(63.623047 0)"/>
       <use xlink:href="#DejaVuSans-30" transform="translate(127.246094 0)"/>
       <use xlink:href="#DejaVuSans-30" transform="translate(190.869141 0)"/>
       <use xlink:href="#DejaVuSans-30" transform="translate(254.492188 0)"/>
      </g>
     </g>
    </g>
    <g id="xtick_7">
     <g id="line2d_13">
      <path d="M 562.521017 390.04 
L 562.521017 10.8 
" clip-path="url(#p41760d08e5)" style="fill: none; stroke: #b0b0b0; stroke-width: 0.8; stroke-linecap: square"/>
     </g>
     <g id="line2d_14">
      <g>
       <use xlink:href="#m15ae370ef1" x="562.521017" y="390.04" style="stroke: #000000; stroke-width: 0.8"/>
      </g>
     </g>
     <g id="text_7">
      <!-- 30000 -->
      <g transform="translate(546.614767 404.638438) scale(0.1 -0.1)">
       <defs>
        <path id="DejaVuSans-33" d="M 2597 2516 
Q 3050 2419 3304 2112 
Q 3559 1806 3559 1356 
Q 3559 666 3084 287 
Q 2609 -91 1734 -91 
Q 1441 -91 1130 -33 
Q 819 25 488 141 
L 488 750 
Q 750 597 1062 519 
Q 1375 441 1716 441 
Q 2309 441 2620 675 
Q 2931 909 2931 1356 
Q 2931 1769 2642 2001 
Q 2353 2234 1838 2234 
L 1294 2234 
L 1294 2753 
L 1863 2753 
Q 2328 2753 2575 2939 
Q 2822 3125 2822 3475 
Q 2822 3834 2567 4026 
Q 2313 4219 1838 4219 
Q 1578 4219 1281 4162 
Q 984 4106 628 3988 
L 628 4550 
Q 988 4650 1302 4700 
Q 1616 4750 1894 4750 
Q 2613 4750 3031 4423 
Q 3450 4097 3450 3541 
Q 3450 3153 3228 2886 
Q 3006 2619 2597 2516 
z
" transform="scale(0.015625)"/>
       </defs>
       <use xlink:href="#DejaVuSans-33"/>
       <use xlink:href="#DejaVuSans-30" transform="translate(63.623047 0)"/>
       <use xlink:href="#DejaVuSans-30" transform="translate(127.246094 0)"/>
       <use xlink:href="#DejaVuSans-30" transform="translate(190.869141 0)"/>
       <use xlink:href="#DejaVuSans-30" transform="translate(254.492188 0)"/>
      </g>
     </g>
    </g>
    <g id="xtick_8">
     <g id="line2d_15">
      <path d="M 642.577224 390.04 
L 642.577224 10.8 
" clip-path="url(#p41760d08e5)" style="fill: none; stroke: #b0b0b0; stroke-width: 0.8; stroke-linecap: square"/>
     </g>
     <g id="line2d_16">
      <g>
       <use xlink:href="#m15ae370ef1" x="642.577224" y="390.04" style="stroke: #000000; stroke-width: 0.8"/>
      </g>
     </g>
     <g id="text_8">
      <!-- 35000 -->
      <g transform="translate(626.670974 404.638438) scale(0.1 -0.1)">
       <use xlink:href="#DejaVuSans-33"/>
       <use xlink:href="#DejaVuSans-35" transform="translate(63.623047 0)"/>
       <use xlink:href="#DejaVuSans-30" transform="translate(127.246094 0)"/>
       <use xlink:href="#DejaVuSans-30" transform="translate(190.869141 0)"/>
       <use xlink:href="#DejaVuSans-30" transform="translate(254.492188 0)"/>
      </g>
     </g>
    </g>
    <g id="text_9">
     <!-- Episodes -->
     <g transform="translate(359.367813 418.316562) scale(0.1 -0.1)">
      <defs>
       <path id="DejaVuSans-45" d="M 628 4666 
L 3578 4666 
L 3578 4134 
L 1259 4134 
L 1259 2753 
L 3481 2753 
L 3481 2222 
L 1259 2222 
L 1259 531 
L 3634 531 
L 3634 0 
L 628 0 
L 628 4666 
z
" transform="scale(0.015625)"/>
       <path id="DejaVuSans-70" d="M 1159 525 
L 1159 -1331 
L 581 -1331 
L 581 3500 
L 1159 3500 
L 1159 2969 
Q 1341 3281 1617 3432 
Q 1894 3584 2278 3584 
Q 2916 3584 3314 3078 
Q 3713 2572 3713 1747 
Q 3713 922 3314 415 
Q 2916 -91 2278 -91 
Q 1894 -91 1617 61 
Q 1341 213 1159 525 
z
M 3116 1747 
Q 3116 2381 2855 2742 
Q 2594 3103 2138 3103 
Q 1681 3103 1420 2742 
Q 1159 2381 1159 1747 
Q 1159 1113 1420 752 
Q 1681 391 2138 391 
Q 2594 391 2855 752 
Q 3116 1113 3116 1747 
z
" transform="scale(0.015625)"/>
       <path id="DejaVuSans-69" d="M 603 3500 
L 1178 3500 
L 1178 0 
L 603 0 
L 603 3500 
z
M 603 4863 
L 1178 4863 
L 1178 4134 
L 603 4134 
L 603 4863 
z
" transform="scale(0.015625)"/>
       <path id="DejaVuSans-73" d="M 2834 3397 
L 2834 2853 
Q 2591 2978 2328 3040 
Q 2066 3103 1784 3103 
Q 1356 3103 1142 2972 
Q 928 2841 928 2578 
Q 928 2378 1081 2264 
Q 1234 2150 1697 2047 
L 1894 2003 
Q 2506 1872 2764 1633 
Q 3022 1394 3022 966 
Q 3022 478 2636 193 
Q 2250 -91 1575 -91 
Q 1294 -91 989 -36 
Q 684 19 347 128 
L 347 722 
Q 666 556 975 473 
Q 1284 391 1588 391 
Q 1994 391 2212 530 
Q 2431 669 2431 922 
Q 2431 1156 2273 1281 
Q 2116 1406 1581 1522 
L 1381 1569 
Q 847 1681 609 1914 
Q 372 2147 372 2553 
Q 372 3047 722 3315 
Q 1072 3584 1716 3584 
Q 2034 3584 2315 3537 
Q 2597 3491 2834 3397 
z
" transform="scale(0.015625)"/>
       <path id="DejaVuSans-6f" d="M 1959 3097 
Q 1497 3097 1228 2736 
Q 959 2375 959 1747 
Q 959 1119 1226 758 
Q 1494 397 1959 397 
Q 2419 397 2687 759 
Q 2956 1122 2956 1747 
Q 2956 2369 2687 2733 
Q 2419 3097 1959 3097 
z
M 1959 3584 
Q 2709 3584 3137 3096 
Q 3566 2609 3566 1747 
Q 3566 888 3137 398 
Q 2709 -91 1959 -91 
Q 1206 -91 779 398 
Q 353 888 353 1747 
Q 353 2609 779 3096 
Q 1206 3584 1959 3584 
z
" transform="scale(0.015625)"/>
       <path id="DejaVuSans-64" d="M 2906 2969 
L 2906 4863 
L 3481 4863 
L 3481 0 
L 2906 0 
L 2906 525 
Q 2725 213 2448 61 
Q 2172 -91 1784 -91 
Q 1150 -91 751 415 
Q 353 922 353 1747 
Q 353 2572 751 3078 
Q 1150 3584 1784 3584 
Q 2172 3584 2448 3432 
Q 2725 3281 2906 2969 
z
M 947 1747 
Q 947 1113 1208 752 
Q 1469 391 1925 391 
Q 2381 391 2643 752 
Q 2906 1113 2906 1747 
Q 2906 2381 2643 2742 
Q 2381 3103 1925 3103 
Q 1469 3103 1208 2742 
Q 947 2381 947 1747 
z
" transform="scale(0.015625)"/>
       <path id="DejaVuSans-65" d="M 3597 1894 
L 3597 1613 
L 953 1613 
Q 991 1019 1311 708 
Q 1631 397 2203 397 
Q 2534 397 2845 478 
Q 3156 559 3463 722 
L 3463 178 
Q 3153 47 2828 -22 
Q 2503 -91 2169 -91 
Q 1331 -91 842 396 
Q 353 884 353 1716 
Q 353 2575 817 3079 
Q 1281 3584 2069 3584 
Q 2775 3584 3186 3129 
Q 3597 2675 3597 1894 
z
M 3022 2063 
Q 3016 2534 2758 2815 
Q 2500 3097 2075 3097 
Q 1594 3097 1305 2825 
Q 1016 2553 972 2059 
L 3022 2063 
z
" transform="scale(0.015625)"/>
      </defs>
      <use xlink:href="#DejaVuSans-45"/>
      <use xlink:href="#DejaVuSans-70" transform="translate(63.183594 0)"/>
      <use xlink:href="#DejaVuSans-69" transform="translate(126.660156 0)"/>
      <use xlink:href="#DejaVuSans-73" transform="translate(154.443359 0)"/>
      <use xlink:href="#DejaVuSans-6f" transform="translate(206.542969 0)"/>
      <use xlink:href="#DejaVuSans-64" transform="translate(267.724609 0)"/>
      <use xlink:href="#DejaVuSans-65" transform="translate(331.201172 0)"/>
      <use xlink:href="#DejaVuSans-73" transform="translate(392.724609 0)"/>
     </g>
    </g>
   </g>
   <g id="matplotlib.axis_2">
    <g id="ytick_1">
     <g id="line2d_17">
      <path d="M 54.02 352.3621 
L 709.2 352.3621 
" clip-path="url(#p41760d08e5)" style="fill: none; stroke: #b0b0b0; stroke-width: 0.8; stroke-linecap: square"/>
     </g>
     <g id="line2d_18">
      <defs>
       <path id="meaf9987871" d="M 0 0 
L -3.5 0 
" style="stroke: #000000; stroke-width: 0.8"/>
      </defs>
      <g>
       <use xlink:href="#meaf9987871" x="54.02" y="352.3621" style="stroke: #000000; stroke-width: 0.8"/>
      </g>
     </g>
     <g id="text_10">
      <!-- 0.50 -->
      <g transform="translate(24.754375 356.161318) scale(0.1 -0.1)">
       <defs>
        <path id="DejaVuSans-2e" d="M 684 794 
L 1344 794 
L 1344 0 
L 684 0 
L 684 794 
z
" transform="scale(0.015625)"/>
       </defs>
       <use xlink:href="#DejaVuSans-30"/>
       <use xlink:href="#DejaVuSans-2e" transform="translate(63.623047 0)"/>
       <use xlink:href="#DejaVuSans-35" transform="translate(95.410156 0)"/>
       <use xlink:href="#DejaVuSans-30" transform="translate(159.033203 0)"/>
      </g>
     </g>
    </g>
    <g id="ytick_2">
     <g id="line2d_19">
      <path d="M 54.02 292.066135 
L 709.2 292.066135 
" clip-path="url(#p41760d08e5)" style="fill: none; stroke: #b0b0b0; stroke-width: 0.8; stroke-linecap: square"/>
     </g>
     <g id="line2d_20">
      <g>
       <use xlink:href="#meaf9987871" x="54.02" y="292.066135" style="stroke: #000000; stroke-width: 0.8"/>
      </g>
     </g>
     <g id="text_11">
      <!-- 0.55 -->
      <g transform="translate(24.754375 295.865354) scale(0.1 -0.1)">
       <use xlink:href="#DejaVuSans-30"/>
       <use xlink:href="#DejaVuSans-2e" transform="translate(63.623047 0)"/>
       <use xlink:href="#DejaVuSans-35" transform="translate(95.410156 0)"/>
       <use xlink:href="#DejaVuSans-35" transform="translate(159.033203 0)"/>
      </g>
     </g>
    </g>
    <g id="ytick_3">
     <g id="line2d_21">
      <path d="M 54.02 231.77017 
L 709.2 231.77017 
" clip-path="url(#p41760d08e5)" style="fill: none; stroke: #b0b0b0; stroke-width: 0.8; stroke-linecap: square"/>
     </g>
     <g id="line2d_22">
      <g>
       <use xlink:href="#meaf9987871" x="54.02" y="231.77017" style="stroke: #000000; stroke-width: 0.8"/>
      </g>
     </g>
     <g id="text_12">
      <!-- 0.60 -->
      <g transform="translate(24.754375 235.569389) scale(0.1 -0.1)">
       <defs>
        <path id="DejaVuSans-36" d="M 2113 2584 
Q 1688 2584 1439 2293 
Q 1191 2003 1191 1497 
Q 1191 994 1439 701 
Q 1688 409 2113 409 
Q 2538 409 2786 701 
Q 3034 994 3034 1497 
Q 3034 2003 2786 2293 
Q 2538 2584 2113 2584 
z
M 3366 4563 
L 3366 3988 
Q 3128 4100 2886 4159 
Q 2644 4219 2406 4219 
Q 1781 4219 1451 3797 
Q 1122 3375 1075 2522 
Q 1259 2794 1537 2939 
Q 1816 3084 2150 3084 
Q 2853 3084 3261 2657 
Q 3669 2231 3669 1497 
Q 3669 778 3244 343 
Q 2819 -91 2113 -91 
Q 1303 -91 875 529 
Q 447 1150 447 2328 
Q 447 3434 972 4092 
Q 1497 4750 2381 4750 
Q 2619 4750 2861 4703 
Q 3103 4656 3366 4563 
z
" transform="scale(0.015625)"/>
       </defs>
       <use xlink:href="#DejaVuSans-30"/>
       <use xlink:href="#DejaVuSans-2e" transform="translate(63.623047 0)"/>
       <use xlink:href="#DejaVuSans-36" transform="translate(95.410156 0)"/>
       <use xlink:href="#DejaVuSans-30" transform="translate(159.033203 0)"/>
      </g>
     </g>
    </g>
    <g id="ytick_4">
     <g id="line2d_23">
      <path d="M 54.02 171.474205 
L 709.2 171.474205 
" clip-path="url(#p41760d08e5)" style="fill: none; stroke: #b0b0b0; stroke-width: 0.8; stroke-linecap: square"/>
     </g>
     <g id="line2d_24">
      <g>
       <use xlink:href="#meaf9987871" x="54.02" y="171.474205" style="stroke: #000000; stroke-width: 0.8"/>
      </g>
     </g>
     <g id="text_13">
      <!-- 0.65 -->
      <g transform="translate(24.754375 175.273424) scale(0.1 -0.1)">
       <use xlink:href="#DejaVuSans-30"/>
       <use xlink:href="#DejaVuSans-2e" transform="translate(63.623047 0)"/>
       <use xlink:href="#DejaVuSans-36" transform="translate(95.410156 0)"/>
       <use xlink:href="#DejaVuSans-35" transform="translate(159.033203 0)"/>
      </g>
     </g>
    </g>
    <g id="ytick_5">
     <g id="line2d_25">
      <path d="M 54.02 111.178241 
L 709.2 111.178241 
" clip-path="url(#p41760d08e5)" style="fill: none; stroke: #b0b0b0; stroke-width: 0.8; stroke-linecap: square"/>
     </g>
     <g id="line2d_26">
      <g>
       <use xlink:href="#meaf9987871" x="54.02" y="111.178241" style="stroke: #000000; stroke-width: 0.8"/>
      </g>
     </g>
     <g id="text_14">
      <!-- 0.70 -->
      <g transform="translate(24.754375 114.977459) scale(0.1 -0.1)">
       <defs>
        <path id="DejaVuSans-37" d="M 525 4666 
L 3525 4666 
L 3525 4397 
L 1831 0 
L 1172 0 
L 2766 4134 
L 525 4134 
L 525 4666 
z
" transform="scale(0.015625)"/>
       </defs>
       <use xlink:href="#DejaVuSans-30"/>
       <use xlink:href="#DejaVuSans-2e" transform="translate(63.623047 0)"/>
       <use xlink:href="#DejaVuSans-37" transform="translate(95.410156 0)"/>
       <use xlink:href="#DejaVuSans-30" transform="translate(159.033203 0)"/>
      </g>
     </g>
    </g>
    <g id="ytick_6">
     <g id="line2d_27">
      <path d="M 54.02 50.882276 
L 709.2 50.882276 
" clip-path="url(#p41760d08e5)" style="fill: none; stroke: #b0b0b0; stroke-width: 0.8; stroke-linecap: square"/>
     </g>
     <g id="line2d_28">
      <g>
       <use xlink:href="#meaf9987871" x="54.02" y="50.882276" style="stroke: #000000; stroke-width: 0.8"/>
      </g>
     </g>
     <g id="text_15">
      <!-- 0.75 -->
      <g transform="translate(24.754375 54.681495) scale(0.1 -0.1)">
       <use xlink:href="#DejaVuSans-30"/>
       <use xlink:href="#DejaVuSans-2e" transform="translate(63.623047 0)"/>
       <use xlink:href="#DejaVuSans-37" transform="translate(95.410156 0)"/>
       <use xlink:href="#DejaVuSans-35" transform="translate(159.033203 0)"/>
      </g>
     </g>
    </g>
    <g id="text_16">
     <!-- Accuracy on Test -->
     <g transform="translate(18.674688 242.499688) rotate(-90) scale(0.1 -0.1)">
      <defs>
       <path id="DejaVuSans-41" d="M 2188 4044 
L 1331 1722 
L 3047 1722 
L 2188 4044 
z
M 1831 4666 
L 2547 4666 
L 4325 0 
L 3669 0 
L 3244 1197 
L 1141 1197 
L 716 0 
L 50 0 
L 1831 4666 
z
" transform="scale(0.015625)"/>
       <path id="DejaVuSans-63" d="M 3122 3366 
L 3122 2828 
Q 2878 2963 2633 3030 
Q 2388 3097 2138 3097 
Q 1578 3097 1268 2742 
Q 959 2388 959 1747 
Q 959 1106 1268 751 
Q 1578 397 2138 397 
Q 2388 397 2633 464 
Q 2878 531 3122 666 
L 3122 134 
Q 2881 22 2623 -34 
Q 2366 -91 2075 -91 
Q 1284 -91 818 406 
Q 353 903 353 1747 
Q 353 2603 823 3093 
Q 1294 3584 2113 3584 
Q 2378 3584 2631 3529 
Q 2884 3475 3122 3366 
z
" transform="scale(0.015625)"/>
       <path id="DejaVuSans-75" d="M 544 1381 
L 544 3500 
L 1119 3500 
L 1119 1403 
Q 1119 906 1312 657 
Q 1506 409 1894 409 
Q 2359 409 2629 706 
Q 2900 1003 2900 1516 
L 2900 3500 
L 3475 3500 
L 3475 0 
L 2900 0 
L 2900 538 
Q 2691 219 2414 64 
Q 2138 -91 1772 -91 
Q 1169 -91 856 284 
Q 544 659 544 1381 
z
M 1991 3584 
L 1991 3584 
z
" transform="scale(0.015625)"/>
       <path id="DejaVuSans-72" d="M 2631 2963 
Q 2534 3019 2420 3045 
Q 2306 3072 2169 3072 
Q 1681 3072 1420 2755 
Q 1159 2438 1159 1844 
L 1159 0 
L 581 0 
L 581 3500 
L 1159 3500 
L 1159 2956 
Q 1341 3275 1631 3429 
Q 1922 3584 2338 3584 
Q 2397 3584 2469 3576 
Q 2541 3569 2628 3553 
L 2631 2963 
z
" transform="scale(0.015625)"/>
       <path id="DejaVuSans-61" d="M 2194 1759 
Q 1497 1759 1228 1600 
Q 959 1441 959 1056 
Q 959 750 1161 570 
Q 1363 391 1709 391 
Q 2188 391 2477 730 
Q 2766 1069 2766 1631 
L 2766 1759 
L 2194 1759 
z
M 3341 1997 
L 3341 0 
L 2766 0 
L 2766 531 
Q 2569 213 2275 61 
Q 1981 -91 1556 -91 
Q 1019 -91 701 211 
Q 384 513 384 1019 
Q 384 1609 779 1909 
Q 1175 2209 1959 2209 
L 2766 2209 
L 2766 2266 
Q 2766 2663 2505 2880 
Q 2244 3097 1772 3097 
Q 1472 3097 1187 3025 
Q 903 2953 641 2809 
L 641 3341 
Q 956 3463 1253 3523 
Q 1550 3584 1831 3584 
Q 2591 3584 2966 3190 
Q 3341 2797 3341 1997 
z
" transform="scale(0.015625)"/>
       <path id="DejaVuSans-79" d="M 2059 -325 
Q 1816 -950 1584 -1140 
Q 1353 -1331 966 -1331 
L 506 -1331 
L 506 -850 
L 844 -850 
Q 1081 -850 1212 -737 
Q 1344 -625 1503 -206 
L 1606 56 
L 191 3500 
L 800 3500 
L 1894 763 
L 2988 3500 
L 3597 3500 
L 2059 -325 
z
" transform="scale(0.015625)"/>
       <path id="DejaVuSans-20" transform="scale(0.015625)"/>
       <path id="DejaVuSans-6e" d="M 3513 2113 
L 3513 0 
L 2938 0 
L 2938 2094 
Q 2938 2591 2744 2837 
Q 2550 3084 2163 3084 
Q 1697 3084 1428 2787 
Q 1159 2491 1159 1978 
L 1159 0 
L 581 0 
L 581 3500 
L 1159 3500 
L 1159 2956 
Q 1366 3272 1645 3428 
Q 1925 3584 2291 3584 
Q 2894 3584 3203 3211 
Q 3513 2838 3513 2113 
z
" transform="scale(0.015625)"/>
       <path id="DejaVuSans-54" d="M -19 4666 
L 3928 4666 
L 3928 4134 
L 2272 4134 
L 2272 0 
L 1638 0 
L 1638 4134 
L -19 4134 
L -19 4666 
z
" transform="scale(0.015625)"/>
       <path id="DejaVuSans-74" d="M 1172 4494 
L 1172 3500 
L 2356 3500 
L 2356 3053 
L 1172 3053 
L 1172 1153 
Q 1172 725 1289 603 
Q 1406 481 1766 481 
L 2356 481 
L 2356 0 
L 1766 0 
Q 1100 0 847 248 
Q 594 497 594 1153 
L 594 3053 
L 172 3053 
L 172 3500 
L 594 3500 
L 594 4494 
L 1172 4494 
z
" transform="scale(0.015625)"/>
      </defs>
      <use xlink:href="#DejaVuSans-41"/>
      <use xlink:href="#DejaVuSans-63" transform="translate(66.658203 0)"/>
      <use xlink:href="#DejaVuSans-63" transform="translate(121.638672 0)"/>
      <use xlink:href="#DejaVuSans-75" transform="translate(176.619141 0)"/>
      <use xlink:href="#DejaVuSans-72" transform="translate(239.998047 0)"/>
      <use xlink:href="#DejaVuSans-61" transform="translate(281.111328 0)"/>
      <use xlink:href="#DejaVuSans-63" transform="translate(342.390625 0)"/>
      <use xlink:href="#DejaVuSans-79" transform="translate(397.371094 0)"/>
      <use xlink:href="#DejaVuSans-20" transform="translate(456.550781 0)"/>
      <use xlink:href="#DejaVuSans-6f" transform="translate(488.337891 0)"/>
      <use xlink:href="#DejaVuSans-6e" transform="translate(549.519531 0)"/>
      <use xlink:href="#DejaVuSans-20" transform="translate(612.898438 0)"/>
      <use xlink:href="#DejaVuSans-54" transform="translate(644.685547 0)"/>
      <use xlink:href="#DejaVuSans-65" transform="translate(688.769531 0)"/>
      <use xlink:href="#DejaVuSans-73" transform="translate(750.292969 0)"/>
      <use xlink:href="#DejaVuSans-74" transform="translate(802.392578 0)"/>
     </g>
    </g>
   </g>
   <g id="line2d_29">
    <path d="M 83.800909 288.399988 
L 87.003157 276.080257 
L 90.205406 274.18205 
L 93.407654 266.942814 
L 96.609902 269.027116 
L 99.812151 270.850884 
L 103.014399 276.601331 
L 106.216647 280.062766 
L 109.418895 279.653349 
L 112.621144 280.453573 
L 115.823392 285.273528 
L 119.02564 291.526443 
L 122.227889 299.510074 
L 125.430137 313.858281 
L 128.632385 306.93541 
L 131.834633 310.638775 
L 135.036882 302.915679 
L 138.23913 306.95402 
L 141.441378 314.658504 
L 144.643627 298.877339 
L 147.845875 306.284064 
L 151.048123 302.487653 
L 157.45262 274.833394 
L 160.654868 282.054021 
L 163.857116 281.253796 
L 167.059365 276.61994 
L 170.261613 270.199538 
L 173.463861 248.649315 
L 176.666109 247.756042 
L 179.868358 233.500886 
L 183.070606 232.607614 
L 186.272854 239.251334 
L 192.677351 254.120616 
L 195.879599 254.436983 
L 199.081848 241.968374 
L 202.284096 241.670616 
L 205.486344 239.64214 
L 208.688592 249.189001 
L 211.890841 250.566131 
L 215.093089 243.178016 
L 218.295337 243.494384 
L 221.497586 235.547971 
L 224.699834 235.045504 
L 227.902082 250.007835 
L 231.10433 249.356489 
L 234.306579 244.722631 
L 237.508827 245.950881 
L 240.711075 238.097518 
L 243.913324 225.033392 
L 247.115572 225.293931 
L 250.31782 212.862539 
L 253.520068 209.196396 
L 256.722317 202.087428 
L 259.924565 194.699311 
L 263.126813 192.540566 
L 266.329062 186.157379 
L 269.53131 197.11859 
L 272.733558 191.312311 
L 275.935806 190.772624 
L 279.138055 187.497287 
L 282.340303 184.501099 
L 285.542551 185.6363 
L 288.7448 186.492353 
L 291.947048 182.174864 
L 295.149296 188.111412 
L 298.351544 184.482488 
L 301.553793 184.46388 
L 304.756041 187.832265 
L 307.958289 189.581592 
L 311.160538 187.683387 
L 314.362786 186.175988 
L 317.565034 178.99258 
L 320.767283 182.454017 
L 323.969531 187.087875 
L 327.171779 193.936306 
L 330.374027 204.711418 
L 333.576276 200.896397 
L 336.778524 182.454021 
L 339.980772 188.613888 
L 343.183021 176.12667 
L 346.385269 155.953578 
L 349.587517 155.823309 
L 352.789765 156.232727 
L 355.992014 155.97219 
L 359.194262 171.827794 
L 362.39651 184.798867 
L 365.598759 157.237653 
L 368.801007 160.624648 
L 372.003255 146.723078 
L 375.205503 143.280252 
L 378.407752 141.1029 
L 381.61 137.15761 
L 384.812248 144.117705 
L 388.014497 155.488337 
L 391.216745 174.823988 
L 394.418993 180.741925 
L 397.621241 225.27533 
L 400.82349 238.860531 
L 404.025738 260.89461 
L 407.227986 254.604474 
L 410.430235 239.437432 
L 413.632483 233.035637 
L 416.834731 248.425996 
L 420.036979 254.958059 
L 423.239228 270.813664 
L 426.441476 256.800435 
L 429.643724 246.45335 
L 432.845973 230.281377 
L 436.048221 240.888999 
L 439.250469 225.852228 
L 442.452717 219.096848 
L 445.654966 213.867479 
L 448.857214 204.767259 
L 452.059462 210.38744 
L 455.261711 218.70605 
L 458.463959 201.063898 
L 461.666207 204.208966 
L 464.868456 214.909637 
L 468.070704 207.465692 
L 471.272952 196.020625 
L 474.4752 201.975782 
L 477.677449 147.597755 
L 480.879697 121.841701 
L 484.081945 158.93116 
L 487.284194 142.46143 
L 490.486442 118.659414 
L 493.68869 114.286095 
L 500.093187 100.849773 
L 503.295435 100.384526 
L 506.497683 105.930266 
L 509.699932 128.373763 
L 512.90218 122.976902 
L 516.104428 107.493495 
L 519.306676 111.997081 
L 522.508925 122.604701 
L 525.711173 145.885639 
L 528.913421 181.988775 
L 532.11567 205.381375 
L 535.317918 198.532947 
L 538.520166 211.150435 
L 541.722414 247.048866 
L 544.924663 248.035188 
L 548.126911 254.288104 
L 551.329159 245.373977 
L 554.531408 255.497744 
L 557.733656 250.212542 
L 560.935904 234.524423 
L 564.138152 235.975993 
L 567.340401 225.21949 
L 570.542649 233.873079 
L 573.744897 235.641017 
L 576.947146 240.051555 
L 580.149394 233.742809 
L 583.351642 251.236082 
L 586.553891 263.834962 
L 589.756139 274.461198 
L 592.958387 267.891915 
L 596.160635 254.195052 
L 599.362884 204.078682 
L 602.565132 179.513657 
L 605.76738 158.447289 
L 608.969629 122.660513 
L 612.171877 110.340782 
L 615.374125 102.301321 
L 618.576373 112.704238 
L 621.778622 108.535626 
L 624.98087 120.371498 
L 628.183118 115.979572 
L 631.385367 125.824193 
L 634.587615 115.216571 
L 637.789863 112.164556 
L 640.992111 116.388998 
L 644.19436 127.629359 
L 647.396608 162.37398 
L 650.598856 180.909407 
L 653.801105 200.263667 
L 657.003353 211.11322 
L 660.205601 206.311875 
L 663.407849 212.49035 
L 666.610098 215.300442 
L 669.812346 225.052013 
L 673.014594 229.146183 
L 676.216843 221.181161 
L 679.419091 208.005377 
L 679.419091 208.005377 
" clip-path="url(#p41760d08e5)" style="fill: none; stroke: #1f77b4; stroke-width: 1.5; stroke-linecap: square"/>
   </g>
   <g id="patch_3">
    <path d="M 54.02 390.04 
L 54.02 10.8 
" style="fill: none; stroke: #000000; stroke-width: 0.8; stroke-linejoin: miter; stroke-linecap: square"/>
   </g>
   <g id="patch_4">
    <path d="M 709.2 390.04 
L 709.2 10.8 
" style="fill: none; stroke: #000000; stroke-width: 0.8; stroke-linejoin: miter; stroke-linecap: square"/>
   </g>
   <g id="patch_5">
    <path d="M 54.02 390.04 
L 709.2 390.04 
" style="fill: none; stroke: #000000; stroke-width: 0.8; stroke-linejoin: miter; stroke-linecap: square"/>
   </g>
   <g id="patch_6">
    <path d="M 54.02 10.8 
L 709.2 10.8 
" style="fill: none; stroke: #000000; stroke-width: 0.8; stroke-linejoin: miter; stroke-linecap: square"/>
   </g>
  </g>
 </g>
 <defs>
  <clipPath id="p41760d08e5">
   <rect x="54.02" y="10.8" width="655.18" height="379.24"/>
  </clipPath>
 </defs>
</svg>
