<?xml version="1.0" encoding="utf-8" standalone="no"?>
<!DOCTYPE svg PUBLIC "-//W3C//DTD SVG 1.1//EN"
  "http://www.w3.org/Graphics/SVG/1.1/DTD/svg11.dtd">
<svg xmlns:xlink="http://www.w3.org/1999/xlink" width="720pt" height="432pt" viewBox="0 0 720 432" xmlns="http://www.w3.org/2000/svg" version="1.1">
 <metadata>
  <rdf:RDF xmlns:dc="http://purl.org/dc/elements/1.1/" xmlns:cc="http://creativecommons.org/ns#" xmlns:rdf="http://www.w3.org/1999/02/22-rdf-syntax-ns#">
   <cc:Work>
    <dc:type rdf:resource="http://purl.org/dc/dcmitype/StillImage"/>
    <dc:date>2025-04-22T23:14:19.915806</dc:date>
    <dc:format>image/svg+xml</dc:format>
    <dc:creator>
     <cc:Agent>
      <dc:title>Matplotlib v3.10.0, https://matplotlib.org/</dc:title>
     </cc:Agent>
    </dc:creator>
   </cc:Work>
  </rdf:RDF>
 </metadata>
 <defs>
  <style type="text/css">*{stroke-linejoin: round; stroke-linecap: butt}</style>
 </defs>
 <g id="figure_1">
  <g id="patch_1">
   <path d="M 0 432 
L 720 432 
L 720 0 
L 0 0 
z
" style="fill: #ffffff"/>
  </g>
  <g id="axes_1">
   <g id="patch_2">
    <path d="M 53.93 390.04 
L 709.2 390.04 
L 709.2 10.8 
L 53.93 10.8 
z
" style="fill: #ffffff"/>
   </g>
   <g id="FillBetweenPolyCollection_1">
    <path d="M 83.715 218.645731 
L 83.715 350.825338 
L 86.917688 342.462336 
L 90.120376 340.07005 
L 93.323065 332.707106 
L 96.525753 339.381408 
L 99.728441 339.102994 
L 102.931129 343.003027 
L 106.133817 344.803499 
L 109.336505 346.816276 
L 112.539194 349.539135 
L 115.741882 350.35047 
L 118.94457 353.632359 
L 122.147258 361.168074 
L 125.349946 365.398476 
L 128.552634 364.166748 
L 131.755323 363.050409 
L 134.958011 359.327527 
L 138.160699 367.807054 
L 141.363387 367.72685 
L 144.566075 366.930434 
L 147.768763 367.844775 
L 150.971452 364.861536 
L 154.17414 370.35089 
L 157.376828 358.824573 
L 160.579516 362.991175 
L 163.782204 360.22061 
L 166.984892 350.938993 
L 170.187581 352.381226 
L 173.390269 341.022011 
L 176.592957 344.925017 
L 179.795645 331.436422 
L 182.998333 331.603154 
L 186.201022 331.749304 
L 189.40371 334.283894 
L 192.606398 344.293581 
L 195.809086 342.482293 
L 199.011774 337.27274 
L 202.214462 333.839893 
L 205.417151 331.180586 
L 208.619839 337.835164 
L 211.822527 342.470653 
L 215.025215 337.108188 
L 218.227903 337.228989 
L 221.430591 327.804516 
L 224.63328 341.461885 
L 227.835968 353.231124 
L 231.038656 354.861569 
L 234.241344 349.435781 
L 237.444032 361.287696 
L 240.64672 351.958764 
L 243.849409 338.948442 
L 247.052097 336.288444 
L 250.254785 322.92823 
L 253.457473 323.346735 
L 256.660161 303.539656 
L 259.862849 295.662111 
L 263.065538 294.361602 
L 266.268226 283.017693 
L 269.470914 298.782432 
L 272.673602 293.05129 
L 275.87629 295.788298 
L 279.078978 289.247761 
L 282.281667 283.873026 
L 285.484355 286.361525 
L 288.687043 286.453541 
L 291.889731 280.899823 
L 295.092419 288.945417 
L 298.295108 284.974073 
L 301.497796 285.478231 
L 304.700484 294.243531 
L 307.903172 294.247249 
L 311.10586 290.316504 
L 314.308548 289.331319 
L 317.511237 274.42843 
L 320.713925 278.77427 
L 323.916613 287.103421 
L 327.119301 305.097764 
L 330.321989 331.467905 
L 333.524677 334.753403 
L 336.727366 311.107072 
L 339.930054 312.324735 
L 343.132742 291.132618 
L 346.33543 262.296001 
L 349.538118 259.96034 
L 352.740806 259.0301 
L 355.943495 254.849071 
L 359.146183 282.190592 
L 362.348871 291.978248 
L 365.551559 257.931105 
L 368.754247 259.836966 
L 371.956935 240.712283 
L 375.159624 234.099801 
L 378.362312 232.806024 
L 381.565 223.172807 
L 384.767688 236.272931 
L 387.970376 255.634991 
L 391.173065 280.458191 
L 394.375753 292.773176 
L 397.578441 338.118248 
L 400.781129 350.236499 
L 403.983817 365.131788 
L 407.186505 364.609893 
L 410.389194 354.543409 
L 413.591882 348.95012 
L 416.79457 355.973076 
L 419.997258 358.622607 
L 423.199946 366.424854 
L 426.402634 360.165279 
L 429.605323 354.894961 
L 432.808011 346.402996 
L 436.010699 355.448215 
L 439.213387 346.32709 
L 442.416075 342.757817 
L 445.618763 340.260933 
L 448.821452 335.309831 
L 452.02414 341.43581 
L 455.226828 347.627029 
L 458.429516 334.995659 
L 461.632204 337.45071 
L 464.834892 342.332526 
L 468.037581 338.657169 
L 471.240269 328.304268 
L 474.442957 330.72366 
L 477.645645 247.322532 
L 480.848333 204.608328 
L 484.051022 262.920773 
L 487.25371 238.635492 
L 490.456398 202.846676 
L 493.659086 196.410632 
L 496.861774 183.447551 
L 500.064462 173.255419 
L 503.267151 171.158863 
L 506.469839 182.720783 
L 509.672527 225.449525 
L 512.875215 212.484236 
L 516.077903 182.999882 
L 519.280591 187.357788 
L 522.48328 197.973492 
L 525.685968 228.799863 
L 528.888656 279.766091 
L 532.091344 303.199955 
L 535.294032 284.707622 
L 538.49672 311.072922 
L 541.699409 358.398075 
L 544.902097 360.346897 
L 548.104785 363.177703 
L 551.307473 352.360002 
L 554.510161 358.558681 
L 557.712849 354.221354 
L 560.915538 343.347664 
L 564.118226 343.795863 
L 567.320914 336.979984 
L 570.523602 342.392579 
L 573.72629 344.268004 
L 576.928978 346.807851 
L 580.131667 340.006087 
L 583.334355 351.545015 
L 586.537043 358.96653 
L 589.739731 372.801818 
L 592.942419 371.392577 
L 596.145108 350.598158 
L 599.347796 291.809976 
L 602.550484 266.680753 
L 605.753172 240.38446 
L 608.95586 186.576841 
L 612.158548 167.359489 
L 615.361237 154.669384 
L 618.563925 172.909348 
L 621.766613 164.990667 
L 624.969301 183.2629 
L 628.171989 175.623617 
L 631.374677 191.738811 
L 634.577366 177.091903 
L 637.780054 177.253562 
L 640.982742 188.126136 
L 644.18543 203.703316 
L 647.388118 271.050975 
L 650.590806 305.745398 
L 653.793495 326.033734 
L 656.996183 341.532622 
L 660.198871 340.044915 
L 663.401559 344.673931 
L 666.604247 345.161026 
L 669.806935 354.18011 
L 673.009624 363.01013 
L 676.212312 348.625872 
L 679.415 340.718782 
L 679.415 80.88527 
L 679.415 80.88527 
L 676.212312 98.765066 
L 673.009624 99.81519 
L 669.806935 100.146523 
L 666.604247 90.01705 
L 663.401559 85.500786 
L 660.198871 78.000971 
L 656.996183 85.955088 
L 653.793495 79.722334 
L 650.590806 61.203908 
L 647.388118 56.028283 
L 644.18543 51.557082 
L 640.982742 43.557967 
L 637.780054 45.975823 
L 634.577366 52.609065 
L 631.374677 59.31607 
L 628.171989 55.868333 
L 624.969301 56.660984 
L 621.766613 51.612676 
L 618.563925 51.72256 
L 615.361237 49.236316 
L 612.158548 52.722433 
L 608.95586 58.122144 
L 605.753172 76.201448 
L 602.550484 93.157454 
L 599.347796 118.112834 
L 596.145108 159.570813 
L 592.942419 165.921839 
L 589.739731 177.465723 
L 586.537043 170.492607 
L 583.334355 154.232602 
L 580.131667 132.035921 
L 576.928978 137.864793 
L 573.72629 131.611989 
L 570.523602 130.241279 
L 567.320914 119.117983 
L 564.118226 133.227774 
L 560.915538 130.788454 
L 557.712849 150.576222 
L 554.510161 156.140901 
L 551.307473 142.182712 
L 548.104785 149.387721 
L 544.902097 139.681343 
L 541.699409 139.72374 
L 538.49672 115.007798 
L 535.294032 114.342835 
L 532.091344 108.868277 
L 528.888656 84.952455 
L 525.685968 63.887543 
L 522.48328 48.35213 
L 519.280591 37.71575 
L 516.077903 33.429692 
L 512.875215 34.437953 
L 509.672527 31.570991 
L 506.469839 28.913277 
L 503.267151 29.205213 
L 500.064462 28.038182 
L 496.861774 31.00047 
L 493.659086 31.394153 
L 490.456398 33.732437 
L 487.25371 45.035468 
L 484.051022 53.552606 
L 480.848333 39.376609 
L 477.645645 49.601802 
L 474.442957 76.834404 
L 471.240269 67.742468 
L 468.037581 80.322178 
L 464.834892 91.310834 
L 461.632204 74.941349 
L 458.429516 71.432894 
L 455.226828 93.09495 
L 452.02414 82.981942 
L 448.821452 78.252831 
L 445.618763 91.14224 
L 442.416075 98.888696 
L 439.213387 108.611528 
L 436.010699 129.200607 
L 432.808011 117.152108 
L 429.605323 140.225467 
L 426.402634 155.32457 
L 423.199946 176.655435 
L 419.997258 153.321389 
L 416.79457 143.054965 
L 413.591882 119.756759 
L 410.389194 126.462188 
L 407.186505 146.821835 
L 403.983817 158.594995 
L 400.781129 129.5184 
L 397.578441 114.571049 
L 394.375753 71.142562 
L 391.173065 70.669594 
L 387.970376 56.033979 
L 384.767688 51.717389 
L 381.565 50.501634 
L 378.362312 48.180003 
L 375.159624 51.102717 
L 371.956935 51.302641 
L 368.754247 59.801382 
L 365.551559 54.701655 
L 362.348871 75.542486 
L 359.146183 59.291705 
L 355.943495 54.969219 
L 352.740806 51.225333 
L 349.538118 49.454046 
L 346.33543 47.25738 
L 343.132742 58.480061 
L 339.930054 62.03222 
L 336.727366 50.528156 
L 333.524677 63.938955 
L 330.321989 74.227681 
L 327.119301 78.469872 
L 323.916613 82.170334 
L 320.713925 80.533606 
L 317.511237 77.303995 
L 314.308548 76.669857 
L 311.10586 78.752544 
L 307.903172 78.423668 
L 304.700484 74.981788 
L 301.497796 76.890183 
L 298.295108 76.973945 
L 295.092419 80.713904 
L 291.889731 76.846884 
L 288.687043 80.266171 
L 285.484355 78.512229 
L 282.281667 78.743538 
L 279.078978 79.759246 
L 275.87629 79.534027 
L 272.673602 83.269927 
L 269.470914 89.69615 
L 266.268226 83.061752 
L 263.065538 84.665478 
L 259.862849 87.987458 
L 256.660161 94.856121 
L 253.457473 89.390562 
L 250.254785 97.525344 
L 247.052097 109.271957 
L 243.849409 106.135809 
L 240.64672 119.524641 
L 237.444032 126.45151 
L 234.241344 135.711964 
L 231.038656 139.981652 
L 227.835968 142.509948 
L 224.63328 123.457796 
L 221.430591 137.748114 
L 218.227903 144.890678 
L 215.025215 143.78433 
L 211.822527 153.547365 
L 208.619839 154.902953 
L 205.417151 141.570024 
L 202.214462 142.864923 
L 199.011774 139.743315 
L 195.809086 159.862036 
L 192.606398 156.76575 
L 189.40371 151.273783 
L 186.201022 138.76977 
L 182.998333 124.142494 
L 179.795645 126.11801 
L 176.592957 141.601967 
L 173.390269 148.232552 
L 170.187581 181.434715 
L 166.984892 195.705993 
L 163.782204 196.342872 
L 160.579516 194.810713 
L 157.376828 183.827729 
L 154.17414 200.853049 
L 150.971452 235.711003 
L 147.768763 240.523354 
L 144.566075 226.710596 
L 141.363387 258.410075 
L 138.160699 242.499437 
L 134.958011 242.63236 
L 131.755323 254.507992 
L 128.552634 245.880334 
L 125.349946 258.548534 
L 122.147258 232.91717 
L 118.94457 223.748162 
L 115.741882 213.48115 
L 112.539194 204.479479 
L 109.336505 205.462656 
L 106.133817 208.193975 
L 102.931129 202.083943 
L 99.728441 193.863262 
L 96.525753 190.186627 
L 93.323065 192.037934 
L 90.120376 199.596577 
L 86.917688 201.552452 
L 83.715 218.645731 
z
" clip-path="url(#pc0f87beeaf)" style="fill: #1f77b4; fill-opacity: 0.2"/>
   </g>
   <g id="matplotlib.axis_1">
    <g id="xtick_1">
     <g id="line2d_1">
      <path d="M 82.097642 390.04 
L 82.097642 10.8 
" clip-path="url(#pc0f87beeaf)" style="fill: none; stroke: #b0b0b0; stroke-width: 0.8; stroke-linecap: square"/>
     </g>
     <g id="line2d_2">
      <defs>
       <path id="md9cff9b038" d="M 0 0 
L 0 3.5 
" style="stroke: #000000; stroke-width: 0.8"/>
      </defs>
      <g>
       <use xlink:href="#md9cff9b038" x="82.097642" y="390.04" style="stroke: #000000; stroke-width: 0.8"/>
      </g>
     </g>
     <g id="text_1">
      <!-- 0 -->
      <g transform="translate(78.916392 404.638438) scale(0.1 -0.1)">
       <defs>
        <path id="DejaVuSans-30" d="M 2034 4250 
Q 1547 4250 1301 3770 
Q 1056 3291 1056 2328 
Q 1056 1369 1301 889 
Q 1547 409 2034 409 
Q 2525 409 2770 889 
Q 3016 1369 3016 2328 
Q 3016 3291 2770 3770 
Q 2525 4250 2034 4250 
z
M 2034 4750 
Q 2819 4750 3233 4129 
Q 3647 3509 3647 2328 
Q 3647 1150 3233 529 
Q 2819 -91 2034 -91 
Q 1250 -91 836 529 
Q 422 1150 422 2328 
Q 422 3509 836 4129 
Q 1250 4750 2034 4750 
z
" transform="scale(0.015625)"/>
       </defs>
       <use xlink:href="#DejaVuSans-30"/>
      </g>
     </g>
    </g>
    <g id="xtick_2">
     <g id="line2d_3">
      <path d="M 162.164847 390.04 
L 162.164847 10.8 
" clip-path="url(#pc0f87beeaf)" style="fill: none; stroke: #b0b0b0; stroke-width: 0.8; stroke-linecap: square"/>
     </g>
     <g id="line2d_4">
      <g>
       <use xlink:href="#md9cff9b038" x="162.164847" y="390.04" style="stroke: #000000; stroke-width: 0.8"/>
      </g>
     </g>
     <g id="text_2">
      <!-- 5000 -->
      <g transform="translate(149.439847 404.638438) scale(0.1 -0.1)">
       <defs>
        <path id="DejaVuSans-35" d="M 691 4666 
L 3169 4666 
L 3169 4134 
L 1269 4134 
L 1269 2991 
Q 1406 3038 1543 3061 
Q 1681 3084 1819 3084 
Q 2600 3084 3056 2656 
Q 3513 2228 3513 1497 
Q 3513 744 3044 326 
Q 2575 -91 1722 -91 
Q 1428 -91 1123 -41 
Q 819 9 494 109 
L 494 744 
Q 775 591 1075 516 
Q 1375 441 1709 441 
Q 2250 441 2565 725 
Q 2881 1009 2881 1497 
Q 2881 1984 2565 2268 
Q 2250 2553 1709 2553 
Q 1456 2553 1204 2497 
Q 953 2441 691 2322 
L 691 4666 
z
" transform="scale(0.015625)"/>
       </defs>
       <use xlink:href="#DejaVuSans-35"/>
       <use xlink:href="#DejaVuSans-30" transform="translate(63.623047 0)"/>
       <use xlink:href="#DejaVuSans-30" transform="translate(127.246094 0)"/>
       <use xlink:href="#DejaVuSans-30" transform="translate(190.869141 0)"/>
      </g>
     </g>
    </g>
    <g id="xtick_3">
     <g id="line2d_5">
      <path d="M 242.232051 390.04 
L 242.232051 10.8 
" clip-path="url(#pc0f87beeaf)" style="fill: none; stroke: #b0b0b0; stroke-width: 0.8; stroke-linecap: square"/>
     </g>
     <g id="line2d_6">
      <g>
       <use xlink:href="#md9cff9b038" x="242.232051" y="390.04" style="stroke: #000000; stroke-width: 0.8"/>
      </g>
     </g>
     <g id="text_3">
      <!-- 10000 -->
      <g transform="translate(226.325801 404.638438) scale(0.1 -0.1)">
       <defs>
        <path id="DejaVuSans-31" d="M 794 531 
L 1825 531 
L 1825 4091 
L 703 3866 
L 703 4441 
L 1819 4666 
L 2450 4666 
L 2450 531 
L 3481 531 
L 3481 0 
L 794 0 
L 794 531 
z
" transform="scale(0.015625)"/>
       </defs>
       <use xlink:href="#DejaVuSans-31"/>
       <use xlink:href="#DejaVuSans-30" transform="translate(63.623047 0)"/>
       <use xlink:href="#DejaVuSans-30" transform="translate(127.246094 0)"/>
       <use xlink:href="#DejaVuSans-30" transform="translate(190.869141 0)"/>
       <use xlink:href="#DejaVuSans-30" transform="translate(254.492188 0)"/>
      </g>
     </g>
    </g>
    <g id="xtick_4">
     <g id="line2d_7">
      <path d="M 322.299255 390.04 
L 322.299255 10.8 
" clip-path="url(#pc0f87beeaf)" style="fill: none; stroke: #b0b0b0; stroke-width: 0.8; stroke-linecap: square"/>
     </g>
     <g id="line2d_8">
      <g>
       <use xlink:href="#md9cff9b038" x="322.299255" y="390.04" style="stroke: #000000; stroke-width: 0.8"/>
      </g>
     </g>
     <g id="text_4">
      <!-- 15000 -->
      <g transform="translate(306.393005 404.638438) scale(0.1 -0.1)">
       <use xlink:href="#DejaVuSans-31"/>
       <use xlink:href="#DejaVuSans-35" transform="translate(63.623047 0)"/>
       <use xlink:href="#DejaVuSans-30" transform="translate(127.246094 0)"/>
       <use xlink:href="#DejaVuSans-30" transform="translate(190.869141 0)"/>
       <use xlink:href="#DejaVuSans-30" transform="translate(254.492188 0)"/>
      </g>
     </g>
    </g>
    <g id="xtick_5">
     <g id="line2d_9">
      <path d="M 402.36646 390.04 
L 402.36646 10.8 
" clip-path="url(#pc0f87beeaf)" style="fill: none; stroke: #b0b0b0; stroke-width: 0.8; stroke-linecap: square"/>
     </g>
     <g id="line2d_10">
      <g>
       <use xlink:href="#md9cff9b038" x="402.36646" y="390.04" style="stroke: #000000; stroke-width: 0.8"/>
      </g>
     </g>
     <g id="text_5">
      <!-- 20000 -->
      <g transform="translate(386.46021 404.638438) scale(0.1 -0.1)">
       <defs>
        <path id="DejaVuSans-32" d="M 1228 531 
L 3431 531 
L 3431 0 
L 469 0 
L 469 531 
Q 828 903 1448 1529 
Q 2069 2156 2228 2338 
Q 2531 2678 2651 2914 
Q 2772 3150 2772 3378 
Q 2772 3750 2511 3984 
Q 2250 4219 1831 4219 
Q 1534 4219 1204 4116 
Q 875 4013 500 3803 
L 500 4441 
Q 881 4594 1212 4672 
Q 1544 4750 1819 4750 
Q 2544 4750 2975 4387 
Q 3406 4025 3406 3419 
Q 3406 3131 3298 2873 
Q 3191 2616 2906 2266 
Q 2828 2175 2409 1742 
Q 1991 1309 1228 531 
z
" transform="scale(0.015625)"/>
       </defs>
       <use xlink:href="#DejaVuSans-32"/>
       <use xlink:href="#DejaVuSans-30" transform="translate(63.623047 0)"/>
       <use xlink:href="#DejaVuSans-30" transform="translate(127.246094 0)"/>
       <use xlink:href="#DejaVuSans-30" transform="translate(190.869141 0)"/>
       <use xlink:href="#DejaVuSans-30" transform="translate(254.492188 0)"/>
      </g>
     </g>
    </g>
    <g id="xtick_6">
     <g id="line2d_11">
      <path d="M 482.433664 390.04 
L 482.433664 10.8 
" clip-path="url(#pc0f87beeaf)" style="fill: none; stroke: #b0b0b0; stroke-width: 0.8; stroke-linecap: square"/>
     </g>
     <g id="line2d_12">
      <g>
       <use xlink:href="#md9cff9b038" x="482.433664" y="390.04" style="stroke: #000000; stroke-width: 0.8"/>
      </g>
     </g>
     <g id="text_6">
      <!-- 25000 -->
      <g transform="translate(466.527414 404.638438) scale(0.1 -0.1)">
       <use xlink:href="#DejaVuSans-32"/>
       <use xlink:href="#DejaVuSans-35" transform="translate(63.623047 0)"/>
       <use xlink:href="#DejaVuSans-30" transform="translate(127.246094 0)"/>
       <use xlink:href="#DejaVuSans-30" transform="translate(190.869141 0)"/>
       <use xlink:href="#DejaVuSans-30" transform="translate(254.492188 0)"/>
      </g>
     </g>
    </g>
    <g id="xtick_7">
     <g id="line2d_13">
      <path d="M 562.500868 390.04 
L 562.500868 10.8 
" clip-path="url(#pc0f87beeaf)" style="fill: none; stroke: #b0b0b0; stroke-width: 0.8; stroke-linecap: square"/>
     </g>
     <g id="line2d_14">
      <g>
       <use xlink:href="#md9cff9b038" x="562.500868" y="390.04" style="stroke: #000000; stroke-width: 0.8"/>
      </g>
     </g>
     <g id="text_7">
      <!-- 30000 -->
      <g transform="translate(546.594618 404.638438) scale(0.1 -0.1)">
       <defs>
        <path id="DejaVuSans-33" d="M 2597 2516 
Q 3050 2419 3304 2112 
Q 3559 1806 3559 1356 
Q 3559 666 3084 287 
Q 2609 -91 1734 -91 
Q 1441 -91 1130 -33 
Q 819 25 488 141 
L 488 750 
Q 750 597 1062 519 
Q 1375 441 1716 441 
Q 2309 441 2620 675 
Q 2931 909 2931 1356 
Q 2931 1769 2642 2001 
Q 2353 2234 1838 2234 
L 1294 2234 
L 1294 2753 
L 1863 2753 
Q 2328 2753 2575 2939 
Q 2822 3125 2822 3475 
Q 2822 3834 2567 4026 
Q 2313 4219 1838 4219 
Q 1578 4219 1281 4162 
Q 984 4106 628 3988 
L 628 4550 
Q 988 4650 1302 4700 
Q 1616 4750 1894 4750 
Q 2613 4750 3031 4423 
Q 3450 4097 3450 3541 
Q 3450 3153 3228 2886 
Q 3006 2619 2597 2516 
z
" transform="scale(0.015625)"/>
       </defs>
       <use xlink:href="#DejaVuSans-33"/>
       <use xlink:href="#DejaVuSans-30" transform="translate(63.623047 0)"/>
       <use xlink:href="#DejaVuSans-30" transform="translate(127.246094 0)"/>
       <use xlink:href="#DejaVuSans-30" transform="translate(190.869141 0)"/>
       <use xlink:href="#DejaVuSans-30" transform="translate(254.492188 0)"/>
      </g>
     </g>
    </g>
    <g id="xtick_8">
     <g id="line2d_15">
      <path d="M 642.568073 390.04 
L 642.568073 10.8 
" clip-path="url(#pc0f87beeaf)" style="fill: none; stroke: #b0b0b0; stroke-width: 0.8; stroke-linecap: square"/>
     </g>
     <g id="line2d_16">
      <g>
       <use xlink:href="#md9cff9b038" x="642.568073" y="390.04" style="stroke: #000000; stroke-width: 0.8"/>
      </g>
     </g>
     <g id="text_8">
      <!-- 35000 -->
      <g transform="translate(626.661823 404.638438) scale(0.1 -0.1)">
       <use xlink:href="#DejaVuSans-33"/>
       <use xlink:href="#DejaVuSans-35" transform="translate(63.623047 0)"/>
       <use xlink:href="#DejaVuSans-30" transform="translate(127.246094 0)"/>
       <use xlink:href="#DejaVuSans-30" transform="translate(190.869141 0)"/>
       <use xlink:href="#DejaVuSans-30" transform="translate(254.492188 0)"/>
      </g>
     </g>
    </g>
    <g id="text_9">
     <!-- Episodes -->
     <g transform="translate(359.322812 418.316562) scale(0.1 -0.1)">
      <defs>
       <path id="DejaVuSans-45" d="M 628 4666 
L 3578 4666 
L 3578 4134 
L 1259 4134 
L 1259 2753 
L 3481 2753 
L 3481 2222 
L 1259 2222 
L 1259 531 
L 3634 531 
L 3634 0 
L 628 0 
L 628 4666 
z
" transform="scale(0.015625)"/>
       <path id="DejaVuSans-70" d="M 1159 525 
L 1159 -1331 
L 581 -1331 
L 581 3500 
L 1159 3500 
L 1159 2969 
Q 1341 3281 1617 3432 
Q 1894 3584 2278 3584 
Q 2916 3584 3314 3078 
Q 3713 2572 3713 1747 
Q 3713 922 3314 415 
Q 2916 -91 2278 -91 
Q 1894 -91 1617 61 
Q 1341 213 1159 525 
z
M 3116 1747 
Q 3116 2381 2855 2742 
Q 2594 3103 2138 3103 
Q 1681 3103 1420 2742 
Q 1159 2381 1159 1747 
Q 1159 1113 1420 752 
Q 1681 391 2138 391 
Q 2594 391 2855 752 
Q 3116 1113 3116 1747 
z
" transform="scale(0.015625)"/>
       <path id="DejaVuSans-69" d="M 603 3500 
L 1178 3500 
L 1178 0 
L 603 0 
L 603 3500 
z
M 603 4863 
L 1178 4863 
L 1178 4134 
L 603 4134 
L 603 4863 
z
" transform="scale(0.015625)"/>
       <path id="DejaVuSans-73" d="M 2834 3397 
L 2834 2853 
Q 2591 2978 2328 3040 
Q 2066 3103 1784 3103 
Q 1356 3103 1142 2972 
Q 928 2841 928 2578 
Q 928 2378 1081 2264 
Q 1234 2150 1697 2047 
L 1894 2003 
Q 2506 1872 2764 1633 
Q 3022 1394 3022 966 
Q 3022 478 2636 193 
Q 2250 -91 1575 -91 
Q 1294 -91 989 -36 
Q 684 19 347 128 
L 347 722 
Q 666 556 975 473 
Q 1284 391 1588 391 
Q 1994 391 2212 530 
Q 2431 669 2431 922 
Q 2431 1156 2273 1281 
Q 2116 1406 1581 1522 
L 1381 1569 
Q 847 1681 609 1914 
Q 372 2147 372 2553 
Q 372 3047 722 3315 
Q 1072 3584 1716 3584 
Q 2034 3584 2315 3537 
Q 2597 3491 2834 3397 
z
" transform="scale(0.015625)"/>
       <path id="DejaVuSans-6f" d="M 1959 3097 
Q 1497 3097 1228 2736 
Q 959 2375 959 1747 
Q 959 1119 1226 758 
Q 1494 397 1959 397 
Q 2419 397 2687 759 
Q 2956 1122 2956 1747 
Q 2956 2369 2687 2733 
Q 2419 3097 1959 3097 
z
M 1959 3584 
Q 2709 3584 3137 3096 
Q 3566 2609 3566 1747 
Q 3566 888 3137 398 
Q 2709 -91 1959 -91 
Q 1206 -91 779 398 
Q 353 888 353 1747 
Q 353 2609 779 3096 
Q 1206 3584 1959 3584 
z
" transform="scale(0.015625)"/>
       <path id="DejaVuSans-64" d="M 2906 2969 
L 2906 4863 
L 3481 4863 
L 3481 0 
L 2906 0 
L 2906 525 
Q 2725 213 2448 61 
Q 2172 -91 1784 -91 
Q 1150 -91 751 415 
Q 353 922 353 1747 
Q 353 2572 751 3078 
Q 1150 3584 1784 3584 
Q 2172 3584 2448 3432 
Q 2725 3281 2906 2969 
z
M 947 1747 
Q 947 1113 1208 752 
Q 1469 391 1925 391 
Q 2381 391 2643 752 
Q 2906 1113 2906 1747 
Q 2906 2381 2643 2742 
Q 2381 3103 1925 3103 
Q 1469 3103 1208 2742 
Q 947 2381 947 1747 
z
" transform="scale(0.015625)"/>
       <path id="DejaVuSans-65" d="M 3597 1894 
L 3597 1613 
L 953 1613 
Q 991 1019 1311 708 
Q 1631 397 2203 397 
Q 2534 397 2845 478 
Q 3156 559 3463 722 
L 3463 178 
Q 3153 47 2828 -22 
Q 2503 -91 2169 -91 
Q 1331 -91 842 396 
Q 353 884 353 1716 
Q 353 2575 817 3079 
Q 1281 3584 2069 3584 
Q 2775 3584 3186 3129 
Q 3597 2675 3597 1894 
z
M 3022 2063 
Q 3016 2534 2758 2815 
Q 2500 3097 2075 3097 
Q 1594 3097 1305 2825 
Q 1016 2553 972 2059 
L 3022 2063 
z
" transform="scale(0.015625)"/>
      </defs>
      <use xlink:href="#DejaVuSans-45"/>
      <use xlink:href="#DejaVuSans-70" transform="translate(63.183594 0)"/>
      <use xlink:href="#DejaVuSans-69" transform="translate(126.660156 0)"/>
      <use xlink:href="#DejaVuSans-73" transform="translate(154.443359 0)"/>
      <use xlink:href="#DejaVuSans-6f" transform="translate(206.542969 0)"/>
      <use xlink:href="#DejaVuSans-64" transform="translate(267.724609 0)"/>
      <use xlink:href="#DejaVuSans-65" transform="translate(331.201172 0)"/>
      <use xlink:href="#DejaVuSans-73" transform="translate(392.724609 0)"/>
     </g>
    </g>
   </g>
   <g id="matplotlib.axis_2">
    <g id="ytick_1">
     <g id="line2d_17">
      <path d="M 53.93 371.127314 
L 709.2 371.127314 
" clip-path="url(#pc0f87beeaf)" style="fill: none; stroke: #b0b0b0; stroke-width: 0.8; stroke-linecap: square"/>
     </g>
     <g id="line2d_18">
      <defs>
       <path id="m699f867340" d="M 0 0 
L -3.5 0 
" style="stroke: #000000; stroke-width: 0.8"/>
      </defs>
      <g>
       <use xlink:href="#m699f867340" x="53.93" y="371.127314" style="stroke: #000000; stroke-width: 0.8"/>
      </g>
     </g>
     <g id="text_10">
      <!-- 3.75 -->
      <g transform="translate(24.664375 374.926533) scale(0.1 -0.1)">
       <defs>
        <path id="DejaVuSans-2e" d="M 684 794 
L 1344 794 
L 1344 0 
L 684 0 
L 684 794 
z
" transform="scale(0.015625)"/>
        <path id="DejaVuSans-37" d="M 525 4666 
L 3525 4666 
L 3525 4397 
L 1831 0 
L 1172 0 
L 2766 4134 
L 525 4134 
L 525 4666 
z
" transform="scale(0.015625)"/>
       </defs>
       <use xlink:href="#DejaVuSans-33"/>
       <use xlink:href="#DejaVuSans-2e" transform="translate(63.623047 0)"/>
       <use xlink:href="#DejaVuSans-37" transform="translate(95.410156 0)"/>
       <use xlink:href="#DejaVuSans-35" transform="translate(159.033203 0)"/>
      </g>
     </g>
    </g>
    <g id="ytick_2">
     <g id="line2d_19">
      <path d="M 53.93 328.72156 
L 709.2 328.72156 
" clip-path="url(#pc0f87beeaf)" style="fill: none; stroke: #b0b0b0; stroke-width: 0.8; stroke-linecap: square"/>
     </g>
     <g id="line2d_20">
      <g>
       <use xlink:href="#m699f867340" x="53.93" y="328.72156" style="stroke: #000000; stroke-width: 0.8"/>
      </g>
     </g>
     <g id="text_11">
      <!-- 4.00 -->
      <g transform="translate(24.664375 332.520779) scale(0.1 -0.1)">
       <defs>
        <path id="DejaVuSans-34" d="M 2419 4116 
L 825 1625 
L 2419 1625 
L 2419 4116 
z
M 2253 4666 
L 3047 4666 
L 3047 1625 
L 3713 1625 
L 3713 1100 
L 3047 1100 
L 3047 0 
L 2419 0 
L 2419 1100 
L 313 1100 
L 313 1709 
L 2253 4666 
z
" transform="scale(0.015625)"/>
       </defs>
       <use xlink:href="#DejaVuSans-34"/>
       <use xlink:href="#DejaVuSans-2e" transform="translate(63.623047 0)"/>
       <use xlink:href="#DejaVuSans-30" transform="translate(95.410156 0)"/>
       <use xlink:href="#DejaVuSans-30" transform="translate(159.033203 0)"/>
      </g>
     </g>
    </g>
    <g id="ytick_3">
     <g id="line2d_21">
      <path d="M 53.93 286.315806 
L 709.2 286.315806 
" clip-path="url(#pc0f87beeaf)" style="fill: none; stroke: #b0b0b0; stroke-width: 0.8; stroke-linecap: square"/>
     </g>
     <g id="line2d_22">
      <g>
       <use xlink:href="#m699f867340" x="53.93" y="286.315806" style="stroke: #000000; stroke-width: 0.8"/>
      </g>
     </g>
     <g id="text_12">
      <!-- 4.25 -->
      <g transform="translate(24.664375 290.115025) scale(0.1 -0.1)">
       <use xlink:href="#DejaVuSans-34"/>
       <use xlink:href="#DejaVuSans-2e" transform="translate(63.623047 0)"/>
       <use xlink:href="#DejaVuSans-32" transform="translate(95.410156 0)"/>
       <use xlink:href="#DejaVuSans-35" transform="translate(159.033203 0)"/>
      </g>
     </g>
    </g>
    <g id="ytick_4">
     <g id="line2d_23">
      <path d="M 53.93 243.910052 
L 709.2 243.910052 
" clip-path="url(#pc0f87beeaf)" style="fill: none; stroke: #b0b0b0; stroke-width: 0.8; stroke-linecap: square"/>
     </g>
     <g id="line2d_24">
      <g>
       <use xlink:href="#m699f867340" x="53.93" y="243.910052" style="stroke: #000000; stroke-width: 0.8"/>
      </g>
     </g>
     <g id="text_13">
      <!-- 4.50 -->
      <g transform="translate(24.664375 247.709271) scale(0.1 -0.1)">
       <use xlink:href="#DejaVuSans-34"/>
       <use xlink:href="#DejaVuSans-2e" transform="translate(63.623047 0)"/>
       <use xlink:href="#DejaVuSans-35" transform="translate(95.410156 0)"/>
       <use xlink:href="#DejaVuSans-30" transform="translate(159.033203 0)"/>
      </g>
     </g>
    </g>
    <g id="ytick_5">
     <g id="line2d_25">
      <path d="M 53.93 201.504298 
L 709.2 201.504298 
" clip-path="url(#pc0f87beeaf)" style="fill: none; stroke: #b0b0b0; stroke-width: 0.8; stroke-linecap: square"/>
     </g>
     <g id="line2d_26">
      <g>
       <use xlink:href="#m699f867340" x="53.93" y="201.504298" style="stroke: #000000; stroke-width: 0.8"/>
      </g>
     </g>
     <g id="text_14">
      <!-- 4.75 -->
      <g transform="translate(24.664375 205.303517) scale(0.1 -0.1)">
       <use xlink:href="#DejaVuSans-34"/>
       <use xlink:href="#DejaVuSans-2e" transform="translate(63.623047 0)"/>
       <use xlink:href="#DejaVuSans-37" transform="translate(95.410156 0)"/>
       <use xlink:href="#DejaVuSans-35" transform="translate(159.033203 0)"/>
      </g>
     </g>
    </g>
    <g id="ytick_6">
     <g id="line2d_27">
      <path d="M 53.93 159.098544 
L 709.2 159.098544 
" clip-path="url(#pc0f87beeaf)" style="fill: none; stroke: #b0b0b0; stroke-width: 0.8; stroke-linecap: square"/>
     </g>
     <g id="line2d_28">
      <g>
       <use xlink:href="#m699f867340" x="53.93" y="159.098544" style="stroke: #000000; stroke-width: 0.8"/>
      </g>
     </g>
     <g id="text_15">
      <!-- 5.00 -->
      <g transform="translate(24.664375 162.897763) scale(0.1 -0.1)">
       <use xlink:href="#DejaVuSans-35"/>
       <use xlink:href="#DejaVuSans-2e" transform="translate(63.623047 0)"/>
       <use xlink:href="#DejaVuSans-30" transform="translate(95.410156 0)"/>
       <use xlink:href="#DejaVuSans-30" transform="translate(159.033203 0)"/>
      </g>
     </g>
    </g>
    <g id="ytick_7">
     <g id="line2d_29">
      <path d="M 53.93 116.69279 
L 709.2 116.69279 
" clip-path="url(#pc0f87beeaf)" style="fill: none; stroke: #b0b0b0; stroke-width: 0.8; stroke-linecap: square"/>
     </g>
     <g id="line2d_30">
      <g>
       <use xlink:href="#m699f867340" x="53.93" y="116.69279" style="stroke: #000000; stroke-width: 0.8"/>
      </g>
     </g>
     <g id="text_16">
      <!-- 5.25 -->
      <g transform="translate(24.664375 120.492009) scale(0.1 -0.1)">
       <use xlink:href="#DejaVuSans-35"/>
       <use xlink:href="#DejaVuSans-2e" transform="translate(63.623047 0)"/>
       <use xlink:href="#DejaVuSans-32" transform="translate(95.410156 0)"/>
       <use xlink:href="#DejaVuSans-35" transform="translate(159.033203 0)"/>
      </g>
     </g>
    </g>
    <g id="ytick_8">
     <g id="line2d_31">
      <path d="M 53.93 74.287036 
L 709.2 74.287036 
" clip-path="url(#pc0f87beeaf)" style="fill: none; stroke: #b0b0b0; stroke-width: 0.8; stroke-linecap: square"/>
     </g>
     <g id="line2d_32">
      <g>
       <use xlink:href="#m699f867340" x="53.93" y="74.287036" style="stroke: #000000; stroke-width: 0.8"/>
      </g>
     </g>
     <g id="text_17">
      <!-- 5.50 -->
      <g transform="translate(24.664375 78.086254) scale(0.1 -0.1)">
       <use xlink:href="#DejaVuSans-35"/>
       <use xlink:href="#DejaVuSans-2e" transform="translate(63.623047 0)"/>
       <use xlink:href="#DejaVuSans-35" transform="translate(95.410156 0)"/>
       <use xlink:href="#DejaVuSans-30" transform="translate(159.033203 0)"/>
      </g>
     </g>
    </g>
    <g id="ytick_9">
     <g id="line2d_33">
      <path d="M 53.93 31.881282 
L 709.2 31.881282 
" clip-path="url(#pc0f87beeaf)" style="fill: none; stroke: #b0b0b0; stroke-width: 0.8; stroke-linecap: square"/>
     </g>
     <g id="line2d_34">
      <g>
       <use xlink:href="#m699f867340" x="53.93" y="31.881282" style="stroke: #000000; stroke-width: 0.8"/>
      </g>
     </g>
     <g id="text_18">
      <!-- 5.75 -->
      <g transform="translate(24.664375 35.6805) scale(0.1 -0.1)">
       <use xlink:href="#DejaVuSans-35"/>
       <use xlink:href="#DejaVuSans-2e" transform="translate(63.623047 0)"/>
       <use xlink:href="#DejaVuSans-37" transform="translate(95.410156 0)"/>
       <use xlink:href="#DejaVuSans-35" transform="translate(159.033203 0)"/>
      </g>
     </g>
    </g>
    <g id="text_19">
     <!-- Reward -->
     <g transform="translate(18.584688 219.041094) rotate(-90) scale(0.1 -0.1)">
      <defs>
       <path id="DejaVuSans-52" d="M 2841 2188 
Q 3044 2119 3236 1894 
Q 3428 1669 3622 1275 
L 4263 0 
L 3584 0 
L 2988 1197 
Q 2756 1666 2539 1819 
Q 2322 1972 1947 1972 
L 1259 1972 
L 1259 0 
L 628 0 
L 628 4666 
L 2053 4666 
Q 2853 4666 3247 4331 
Q 3641 3997 3641 3322 
Q 3641 2881 3436 2590 
Q 3231 2300 2841 2188 
z
M 1259 4147 
L 1259 2491 
L 2053 2491 
Q 2509 2491 2742 2702 
Q 2975 2913 2975 3322 
Q 2975 3731 2742 3939 
Q 2509 4147 2053 4147 
L 1259 4147 
z
" transform="scale(0.015625)"/>
       <path id="DejaVuSans-77" d="M 269 3500 
L 844 3500 
L 1563 769 
L 2278 3500 
L 2956 3500 
L 3675 769 
L 4391 3500 
L 4966 3500 
L 4050 0 
L 3372 0 
L 2619 2869 
L 1863 0 
L 1184 0 
L 269 3500 
z
" transform="scale(0.015625)"/>
       <path id="DejaVuSans-61" d="M 2194 1759 
Q 1497 1759 1228 1600 
Q 959 1441 959 1056 
Q 959 750 1161 570 
Q 1363 391 1709 391 
Q 2188 391 2477 730 
Q 2766 1069 2766 1631 
L 2766 1759 
L 2194 1759 
z
M 3341 1997 
L 3341 0 
L 2766 0 
L 2766 531 
Q 2569 213 2275 61 
Q 1981 -91 1556 -91 
Q 1019 -91 701 211 
Q 384 513 384 1019 
Q 384 1609 779 1909 
Q 1175 2209 1959 2209 
L 2766 2209 
L 2766 2266 
Q 2766 2663 2505 2880 
Q 2244 3097 1772 3097 
Q 1472 3097 1187 3025 
Q 903 2953 641 2809 
L 641 3341 
Q 956 3463 1253 3523 
Q 1550 3584 1831 3584 
Q 2591 3584 2966 3190 
Q 3341 2797 3341 1997 
z
" transform="scale(0.015625)"/>
       <path id="DejaVuSans-72" d="M 2631 2963 
Q 2534 3019 2420 3045 
Q 2306 3072 2169 3072 
Q 1681 3072 1420 2755 
Q 1159 2438 1159 1844 
L 1159 0 
L 581 0 
L 581 3500 
L 1159 3500 
L 1159 2956 
Q 1341 3275 1631 3429 
Q 1922 3584 2338 3584 
Q 2397 3584 2469 3576 
Q 2541 3569 2628 3553 
L 2631 2963 
z
" transform="scale(0.015625)"/>
      </defs>
      <use xlink:href="#DejaVuSans-52"/>
      <use xlink:href="#DejaVuSans-65" transform="translate(64.982422 0)"/>
      <use xlink:href="#DejaVuSans-77" transform="translate(126.505859 0)"/>
      <use xlink:href="#DejaVuSans-61" transform="translate(208.292969 0)"/>
      <use xlink:href="#DejaVuSans-72" transform="translate(269.572266 0)"/>
      <use xlink:href="#DejaVuSans-64" transform="translate(308.935547 0)"/>
     </g>
    </g>
   </g>
   <g id="line2d_35">
    <path d="M 83.715 284.735534 
L 86.917688 272.007394 
L 90.120376 269.833313 
L 93.323065 262.37252 
L 96.525753 264.784017 
L 99.728441 266.483128 
L 102.931129 272.543485 
L 106.133817 276.498737 
L 109.336505 276.139466 
L 112.539194 277.009307 
L 115.741882 281.91581 
L 118.94457 288.69026 
L 122.147258 297.042622 
L 125.349946 311.973505 
L 128.552634 305.023541 
L 131.755323 308.7792 
L 134.958011 300.979943 
L 138.160699 305.153246 
L 141.363387 313.068462 
L 144.566075 296.820515 
L 147.768763 304.184064 
L 150.971452 300.28627 
L 157.376828 271.326151 
L 160.579516 278.900944 
L 163.782204 278.281741 
L 166.984892 273.322493 
L 170.187581 266.90797 
L 173.390269 244.627281 
L 176.592957 243.263492 
L 179.795645 228.777216 
L 182.998333 227.872824 
L 189.40371 242.778839 
L 192.606398 250.529666 
L 195.809086 251.172165 
L 199.011774 238.508027 
L 202.214462 238.352408 
L 205.417151 236.375305 
L 208.619839 246.369059 
L 211.822527 248.009009 
L 215.025215 240.446259 
L 218.227903 241.059834 
L 221.430591 232.776315 
L 224.63328 232.459841 
L 227.835968 247.870536 
L 231.038656 247.42161 
L 234.241344 242.573872 
L 237.444032 243.869603 
L 240.64672 235.741702 
L 243.849409 222.542125 
L 247.052097 222.7802 
L 250.254785 210.226787 
L 253.457473 206.368649 
L 259.862849 191.824785 
L 263.065538 189.51354 
L 266.268226 183.039723 
L 269.470914 194.239291 
L 272.673602 188.160609 
L 275.87629 187.661163 
L 282.281667 181.308282 
L 285.484355 182.436877 
L 288.687043 183.359856 
L 291.889731 178.873353 
L 295.092419 184.829661 
L 298.295108 180.974009 
L 301.497796 181.184207 
L 304.700484 184.61266 
L 307.903172 186.335459 
L 311.10586 184.534524 
L 314.308548 183.000588 
L 317.511237 175.866213 
L 320.713925 179.653938 
L 323.916613 184.636878 
L 327.119301 191.783818 
L 330.321989 202.847793 
L 333.524677 199.346179 
L 336.727366 180.817614 
L 339.930054 187.178478 
L 343.132742 174.80634 
L 346.33543 154.77669 
L 349.538118 154.707193 
L 352.740806 155.127717 
L 355.943495 154.909145 
L 359.146183 170.741149 
L 362.348871 183.760367 
L 365.551559 156.31638 
L 368.754247 159.819174 
L 371.956935 146.007462 
L 375.159624 142.601259 
L 378.362312 140.493014 
L 381.565 136.837221 
L 384.767688 143.99516 
L 387.970376 155.834485 
L 391.173065 175.563893 
L 394.375753 181.957869 
L 397.578441 226.344648 
L 400.781129 239.87745 
L 403.983817 261.863391 
L 407.186505 255.715864 
L 410.389194 240.502799 
L 413.591882 234.35344 
L 416.79457 249.514021 
L 419.997258 255.971998 
L 423.199946 271.540145 
L 426.402634 257.744924 
L 429.605323 247.560214 
L 432.808011 231.777552 
L 436.010699 242.324411 
L 439.213387 227.469309 
L 442.416075 220.823256 
L 445.618763 215.701586 
L 448.821452 206.781331 
L 452.02414 212.208876 
L 455.226828 220.36099 
L 458.429516 203.214277 
L 461.632204 206.196029 
L 464.834892 216.82168 
L 468.037581 209.489674 
L 471.240269 198.023368 
L 474.442957 203.779032 
L 477.645645 148.462167 
L 480.848333 121.992469 
L 484.051022 158.236689 
L 487.25371 141.83548 
L 490.456398 118.289556 
L 493.659086 113.902392 
L 500.064462 100.6468 
L 503.267151 100.182038 
L 506.469839 105.81703 
L 509.672527 128.510258 
L 512.875215 123.461094 
L 516.077903 108.214787 
L 519.280591 112.536769 
L 522.48328 123.162811 
L 525.685968 146.343703 
L 528.888656 182.359273 
L 532.091344 206.034116 
L 535.294032 199.525229 
L 538.49672 213.04036 
L 541.699409 249.060907 
L 544.902097 250.01412 
L 548.104785 256.282712 
L 551.307473 247.271357 
L 554.510161 257.349791 
L 557.712849 252.398788 
L 560.915538 237.068059 
L 564.118226 238.511819 
L 567.320914 228.048983 
L 570.523602 236.316929 
L 573.72629 237.939996 
L 576.928978 242.336322 
L 580.131667 236.021004 
L 583.334355 252.888808 
L 586.537043 264.729568 
L 589.739731 275.133771 
L 592.942419 268.657208 
L 596.145108 255.084485 
L 599.347796 204.961405 
L 602.550484 179.919104 
L 605.753172 158.292954 
L 608.95586 122.349493 
L 612.158548 110.040961 
L 615.361237 101.95285 
L 618.563925 112.315954 
L 621.766613 108.301671 
L 624.969301 119.961942 
L 628.171989 115.745975 
L 631.374677 125.52744 
L 634.577366 114.850484 
L 637.780054 111.614692 
L 640.982742 115.842052 
L 644.18543 127.630199 
L 647.388118 163.539629 
L 653.793495 202.878034 
L 656.996183 213.743855 
L 660.198871 209.022943 
L 663.401559 215.087359 
L 666.604247 217.589038 
L 669.806935 227.163317 
L 673.009624 231.41266 
L 676.212312 223.695469 
L 679.415 210.802026 
L 679.415 210.802026 
" clip-path="url(#pc0f87beeaf)" style="fill: none; stroke: #1f77b4; stroke-width: 1.5; stroke-linecap: square"/>
   </g>
   <g id="patch_3">
    <path d="M 53.93 390.04 
L 53.93 10.8 
" style="fill: none; stroke: #000000; stroke-width: 0.8; stroke-linejoin: miter; stroke-linecap: square"/>
   </g>
   <g id="patch_4">
    <path d="M 709.2 390.04 
L 709.2 10.8 
" style="fill: none; stroke: #000000; stroke-width: 0.8; stroke-linejoin: miter; stroke-linecap: square"/>
   </g>
   <g id="patch_5">
    <path d="M 53.93 390.04 
L 709.2 390.04 
" style="fill: none; stroke: #000000; stroke-width: 0.8; stroke-linejoin: miter; stroke-linecap: square"/>
   </g>
   <g id="patch_6">
    <path d="M 53.93 10.8 
L 709.2 10.8 
" style="fill: none; stroke: #000000; stroke-width: 0.8; stroke-linejoin: miter; stroke-linecap: square"/>
   </g>
  </g>
 </g>
 <defs>
  <clipPath id="pc0f87beeaf">
   <rect x="53.93" y="10.8" width="655.27" height="379.24"/>
  </clipPath>
 </defs>
</svg>
