<?xml version="1.0" encoding="utf-8" standalone="no"?>
<!DOCTYPE svg PUBLIC "-//W3C//DTD SVG 1.1//EN"
  "http://www.w3.org/Graphics/SVG/1.1/DTD/svg11.dtd">
<svg xmlns:xlink="http://www.w3.org/1999/xlink" width="720pt" height="432pt" viewBox="0 0 720 432" xmlns="http://www.w3.org/2000/svg" version="1.1">
 <metadata>
  <rdf:RDF xmlns:dc="http://purl.org/dc/elements/1.1/" xmlns:cc="http://creativecommons.org/ns#" xmlns:rdf="http://www.w3.org/1999/02/22-rdf-syntax-ns#">
   <cc:Work>
    <dc:type rdf:resource="http://purl.org/dc/dcmitype/StillImage"/>
    <dc:date>2025-04-22T23:14:25.523418</dc:date>
    <dc:format>image/svg+xml</dc:format>
    <dc:creator>
     <cc:Agent>
      <dc:title>Matplotlib v3.10.0, https://matplotlib.org/</dc:title>
     </cc:Agent>
    </dc:creator>
   </cc:Work>
  </rdf:RDF>
 </metadata>
 <defs>
  <style type="text/css">*{stroke-linejoin: round; stroke-linecap: butt}</style>
 </defs>
 <g id="figure_1">
  <g id="patch_1">
   <path d="M 0 432 
L 720 432 
L 720 0 
L 0 0 
z
" style="fill: #ffffff"/>
  </g>
  <g id="axes_1">
   <g id="patch_2">
    <path d="M 44.66 390.04 
L 709.2 390.04 
L 709.2 10.8 
L 44.66 10.8 
z
" style="fill: #ffffff"/>
   </g>
   <g id="FillBetweenPolyCollection_1">
    <path d="M 74.866364 164.940294 
L 74.866364 313.725718 
L 78.11436 302.653125 
L 81.362356 308.689724 
L 84.610352 300.982119 
L 87.858348 295.24728 
L 91.106344 289.217978 
L 94.35434 291.409993 
L 97.602336 287.629463 
L 100.850332 292.474506 
L 104.098328 292.654993 
L 107.346325 313.618313 
L 110.594321 302.759467 
L 113.842317 319.112405 
L 117.090313 327.694081 
L 120.338309 327.76924 
L 123.586305 333.611856 
L 126.834301 326.640352 
L 130.082297 331.370509 
L 133.330293 343.131966 
L 136.578289 338.397729 
L 139.826285 338.672433 
L 143.074282 341.346804 
L 146.322278 335.450807 
L 149.570274 334.715325 
L 152.81827 324.093627 
L 156.066266 327.653052 
L 159.314262 322.74584 
L 162.562258 308.890317 
L 165.810254 310.213071 
L 169.05825 313.082793 
L 172.306246 304.469152 
L 175.554242 305.065159 
L 178.802239 305.27021 
L 182.050235 305.987575 
L 185.298231 315.276466 
L 188.546227 312.007989 
L 191.794223 307.866831 
L 195.042219 309.296153 
L 198.290215 307.596304 
L 201.538211 306.599938 
L 204.786207 311.487406 
L 208.034203 308.553772 
L 211.282199 302.949295 
L 214.530196 299.460914 
L 217.778192 302.070169 
L 221.026188 306.148113 
L 224.274184 298.54856 
L 227.52218 298.698444 
L 230.770176 297.863787 
L 234.018172 298.079354 
L 237.266168 292.140215 
L 240.514164 291.31578 
L 243.76216 280.235719 
L 247.010156 280.17887 
L 250.258152 273.19738 
L 253.506149 272.547131 
L 256.754145 272.003215 
L 260.002141 263.769144 
L 263.250137 266.543456 
L 266.498133 265.450648 
L 269.746129 265.955513 
L 272.994125 270.243348 
L 276.242121 270.165886 
L 279.490117 267.518952 
L 282.738113 269.721997 
L 285.986109 266.327645 
L 289.234106 268.119085 
L 292.482102 262.20337 
L 295.730098 269.411819 
L 298.978094 272.933267 
L 302.22609 269.581208 
L 305.474086 266.409207 
L 308.722082 267.381191 
L 311.970078 259.214134 
L 315.218074 271.572938 
L 318.46607 269.977579 
L 321.714066 265.677587 
L 324.962063 266.55517 
L 328.210059 257.089167 
L 331.458055 246.357445 
L 334.706051 250.656763 
L 337.954047 235.093968 
L 341.202043 237.701666 
L 344.450039 239.088954 
L 347.698035 246.385137 
L 350.946031 247.592481 
L 354.194027 260.155995 
L 357.442023 253.866077 
L 360.69002 242.338151 
L 363.938016 240.15214 
L 367.186012 236.648316 
L 370.434008 232.303913 
L 373.682004 233.981531 
L 376.93 227.11027 
L 380.177996 239.627538 
L 383.425992 266.706106 
L 386.673988 285.810924 
L 389.921984 304.188377 
L 393.16998 324.733523 
L 396.417977 341.017242 
L 399.665973 351.34924 
L 402.913969 358.241564 
L 406.161965 353.93396 
L 409.409961 352.108262 
L 412.657957 355.166186 
L 415.905953 354.17703 
L 419.153949 353.399009 
L 422.401945 350.197953 
L 425.649941 353.717645 
L 428.897937 353.722464 
L 432.145934 362.127884 
L 435.39393 355.797046 
L 438.641926 354.369421 
L 441.889922 352.604381 
L 445.137918 350.04221 
L 448.385914 348.689475 
L 451.63391 351.975542 
L 454.881906 349.424523 
L 458.129902 350.351068 
L 461.377898 350.777164 
L 464.625894 349.557368 
L 467.873891 345.52406 
L 471.121887 344.732703 
L 474.369883 277.419541 
L 477.617879 242.209144 
L 480.865875 236.136489 
L 484.113871 235.315677 
L 487.361867 230.274431 
L 490.609863 236.023025 
L 493.857859 223.493803 
L 497.105855 222.076335 
L 500.353851 218.160592 
L 503.601848 219.756099 
L 506.849844 246.822155 
L 510.09784 234.093243 
L 513.345836 202.72377 
L 516.593832 199.886813 
L 519.841828 204.055455 
L 523.089824 212.107407 
L 526.33782 237.73676 
L 529.585816 264.695302 
L 532.833812 281.723718 
L 536.081808 312.538128 
L 539.329804 337.637113 
L 542.577801 340.633041 
L 545.825797 358.846721 
L 549.073793 362.254836 
L 552.321789 372.028882 
L 555.569785 369.181259 
L 558.817781 356.290618 
L 562.065777 355.221303 
L 565.313773 350.588643 
L 568.561769 357.223299 
L 571.809765 358.020737 
L 575.057761 366.524862 
L 578.305758 349.291434 
L 581.553754 356.286767 
L 584.80175 360.42323 
L 588.049746 368.164339 
L 591.297742 372.801818 
L 594.545738 346.949445 
L 597.793734 299.228549 
L 601.04173 272.795561 
L 604.289726 251.284715 
L 607.537722 198.916388 
L 610.785718 195.323476 
L 614.033715 185.18207 
L 617.281711 194.920604 
L 620.529707 183.017074 
L 623.777703 186.492129 
L 627.025699 187.900673 
L 630.273695 204.388068 
L 633.521691 207.529319 
L 636.769687 206.661615 
L 640.017683 209.67635 
L 643.265679 219.150754 
L 646.513675 283.727615 
L 649.761672 309.965755 
L 653.009668 327.205355 
L 656.257664 339.206152 
L 659.50566 336.809273 
L 662.753656 332.974062 
L 666.001652 330.625899 
L 669.249648 341.071831 
L 672.497644 349.678775 
L 675.74564 340.944814 
L 678.993636 337.773421 
L 678.993636 28.038182 
L 678.993636 28.038182 
L 675.74564 38.03983 
L 672.497644 71.154372 
L 669.249648 61.206606 
L 666.001652 37.193789 
L 662.753656 44.886054 
L 659.50566 42.496664 
L 656.257664 46.365013 
L 653.009668 51.698966 
L 649.761672 56.408112 
L 646.513675 81.92334 
L 643.265679 88.346043 
L 640.017683 93.242012 
L 636.769687 85.332762 
L 633.521691 79.244034 
L 630.273695 83.108197 
L 627.025699 91.723896 
L 623.777703 89.919503 
L 620.529707 87.611272 
L 617.281711 97.154095 
L 614.033715 86.651127 
L 610.785718 81.088156 
L 607.537722 87.776642 
L 604.289726 102.317727 
L 601.04173 101.851618 
L 597.793734 108.511881 
L 594.545738 123.844872 
L 591.297742 130.121868 
L 588.049746 128.333473 
L 584.80175 116.957608 
L 581.553754 112.820759 
L 578.305758 81.823112 
L 575.057761 93.506116 
L 571.809765 82.009709 
L 568.561769 85.377496 
L 565.313773 73.216471 
L 562.065777 79.748767 
L 558.817781 82.6153 
L 555.569785 96.633006 
L 552.321789 125.593459 
L 549.073793 118.017645 
L 545.825797 116.204738 
L 542.577801 112.329476 
L 539.329804 114.843464 
L 536.081808 114.15863 
L 532.833812 124.169272 
L 529.585816 129.95241 
L 526.33782 125.90611 
L 523.089824 118.522536 
L 519.841828 110.18851 
L 516.593832 120.783026 
L 513.345836 122.042563 
L 510.09784 136.618089 
L 506.849844 145.978117 
L 503.601848 150.312645 
L 500.353851 145.803572 
L 497.105855 141.486212 
L 493.857859 152.840168 
L 490.609863 157.821452 
L 487.361867 157.224496 
L 484.113871 161.420443 
L 480.865875 154.093434 
L 477.617879 139.426173 
L 474.369883 127.670216 
L 471.121887 132.487488 
L 467.873891 127.358666 
L 464.625894 133.526433 
L 461.377898 135.117957 
L 458.129902 128.073975 
L 454.881906 122.012382 
L 451.63391 124.843032 
L 448.385914 118.731259 
L 445.137918 124.286338 
L 441.889922 126.704219 
L 438.641926 125.260473 
L 435.39393 131.543896 
L 432.145934 143.767769 
L 428.897937 126.38937 
L 425.649941 124.948368 
L 422.401945 116.901487 
L 419.153949 126.471855 
L 415.905953 133.244236 
L 412.657957 137.797396 
L 409.409961 128.88713 
L 406.161965 136.941213 
L 402.913969 143.557595 
L 399.665973 150.530242 
L 396.417977 141.825589 
L 393.16998 139.233304 
L 389.921984 127.809726 
L 386.673988 127.311175 
L 383.425992 125.451579 
L 380.177996 120.963042 
L 376.93 134.845808 
L 373.682004 151.188017 
L 370.434008 147.483966 
L 367.186012 160.168128 
L 363.938016 164.134382 
L 360.69002 169.41845 
L 357.442023 174.196179 
L 354.194027 172.484696 
L 350.946031 170.108053 
L 347.698035 172.439925 
L 344.450039 171.623442 
L 341.202043 170.360057 
L 337.954047 174.333254 
L 334.706051 182.546191 
L 331.458055 184.676778 
L 328.210059 189.929417 
L 324.962063 195.564217 
L 321.714066 193.791128 
L 318.46607 195.435069 
L 315.218074 191.26936 
L 311.970078 183.627632 
L 308.722082 189.597497 
L 305.474086 185.669753 
L 302.22609 191.333328 
L 298.978094 190.872912 
L 295.730098 185.317814 
L 292.482102 183.530039 
L 289.234106 182.835347 
L 285.986109 183.100642 
L 282.738113 176.172059 
L 279.490117 183.997744 
L 276.242121 185.12601 
L 272.994125 182.638846 
L 269.746129 185.641506 
L 266.498133 181.728583 
L 263.250137 183.768388 
L 260.002141 188.952402 
L 256.754145 192.445552 
L 253.506149 192.70487 
L 250.258152 196.070792 
L 247.010156 202.90493 
L 243.76216 203.731639 
L 240.514164 212.732435 
L 237.266168 212.148969 
L 234.018172 216.571552 
L 230.770176 217.429707 
L 227.52218 217.880224 
L 224.274184 219.154637 
L 221.026188 228.744296 
L 217.778192 225.352161 
L 214.530196 219.607781 
L 211.282199 220.697834 
L 208.034203 219.59147 
L 204.786207 216.738159 
L 201.538211 216.966869 
L 198.290215 217.014707 
L 195.042219 212.342891 
L 191.794223 207.426663 
L 188.546227 216.699516 
L 185.298231 209.093575 
L 182.050235 201.3539 
L 178.802239 201.749971 
L 175.554242 189.263921 
L 172.306246 195.080951 
L 169.05825 193.455448 
L 165.810254 194.879348 
L 162.562258 186.482968 
L 159.314262 198.893204 
L 156.066266 200.090572 
L 152.81827 193.207952 
L 149.570274 201.301612 
L 146.322278 197.353193 
L 143.074282 209.288996 
L 139.826285 207.063638 
L 136.578289 199.868264 
L 133.330293 208.066098 
L 130.082297 201.674462 
L 126.834301 191.062845 
L 123.586305 192.76627 
L 120.338309 188.648781 
L 117.090313 184.627447 
L 113.842317 181.321255 
L 110.594321 168.998732 
L 107.346325 180.871414 
L 104.098328 169.544718 
L 100.850332 165.950004 
L 97.602336 162.120117 
L 94.35434 159.142822 
L 91.106344 152.01732 
L 87.858348 156.912003 
L 84.610352 158.727565 
L 81.362356 162.747181 
L 78.11436 162.839846 
L 74.866364 164.940294 
z
" clip-path="url(#p35494b1c66)" style="fill: #1f77b4; fill-opacity: 0.2"/>
   </g>
   <g id="matplotlib.axis_1">
    <g id="xtick_1">
     <g id="line2d_1">
      <path d="M 73.226126 390.04 
L 73.226126 10.8 
" clip-path="url(#p35494b1c66)" style="fill: none; stroke: #b0b0b0; stroke-width: 0.8; stroke-linecap: square"/>
     </g>
     <g id="line2d_2">
      <defs>
       <path id="m645e25a2bf" d="M 0 0 
L 0 3.5 
" style="stroke: #000000; stroke-width: 0.8"/>
      </defs>
      <g>
       <use xlink:href="#m645e25a2bf" x="73.226126" y="390.04" style="stroke: #000000; stroke-width: 0.8"/>
      </g>
     </g>
     <g id="text_1">
      <!-- 0 -->
      <g transform="translate(70.044876 404.638438) scale(0.1 -0.1)">
       <defs>
        <path id="DejaVuSans-30" d="M 2034 4250 
Q 1547 4250 1301 3770 
Q 1056 3291 1056 2328 
Q 1056 1369 1301 889 
Q 1547 409 2034 409 
Q 2525 409 2770 889 
Q 3016 1369 3016 2328 
Q 3016 3291 2770 3770 
Q 2525 4250 2034 4250 
z
M 2034 4750 
Q 2819 4750 3233 4129 
Q 3647 3509 3647 2328 
Q 3647 1150 3233 529 
Q 2819 -91 2034 -91 
Q 1250 -91 836 529 
Q 422 1150 422 2328 
Q 422 3509 836 4129 
Q 1250 4750 2034 4750 
z
" transform="scale(0.015625)"/>
       </defs>
       <use xlink:href="#DejaVuSans-30"/>
      </g>
     </g>
    </g>
    <g id="xtick_2">
     <g id="line2d_3">
      <path d="M 154.426028 390.04 
L 154.426028 10.8 
" clip-path="url(#p35494b1c66)" style="fill: none; stroke: #b0b0b0; stroke-width: 0.8; stroke-linecap: square"/>
     </g>
     <g id="line2d_4">
      <g>
       <use xlink:href="#m645e25a2bf" x="154.426028" y="390.04" style="stroke: #000000; stroke-width: 0.8"/>
      </g>
     </g>
     <g id="text_2">
      <!-- 5000 -->
      <g transform="translate(141.701028 404.638438) scale(0.1 -0.1)">
       <defs>
        <path id="DejaVuSans-35" d="M 691 4666 
L 3169 4666 
L 3169 4134 
L 1269 4134 
L 1269 2991 
Q 1406 3038 1543 3061 
Q 1681 3084 1819 3084 
Q 2600 3084 3056 2656 
Q 3513 2228 3513 1497 
Q 3513 744 3044 326 
Q 2575 -91 1722 -91 
Q 1428 -91 1123 -41 
Q 819 9 494 109 
L 494 744 
Q 775 591 1075 516 
Q 1375 441 1709 441 
Q 2250 441 2565 725 
Q 2881 1009 2881 1497 
Q 2881 1984 2565 2268 
Q 2250 2553 1709 2553 
Q 1456 2553 1204 2497 
Q 953 2441 691 2322 
L 691 4666 
z
" transform="scale(0.015625)"/>
       </defs>
       <use xlink:href="#DejaVuSans-35"/>
       <use xlink:href="#DejaVuSans-30" transform="translate(63.623047 0)"/>
       <use xlink:href="#DejaVuSans-30" transform="translate(127.246094 0)"/>
       <use xlink:href="#DejaVuSans-30" transform="translate(190.869141 0)"/>
      </g>
     </g>
    </g>
    <g id="xtick_3">
     <g id="line2d_5">
      <path d="M 235.62593 390.04 
L 235.62593 10.8 
" clip-path="url(#p35494b1c66)" style="fill: none; stroke: #b0b0b0; stroke-width: 0.8; stroke-linecap: square"/>
     </g>
     <g id="line2d_6">
      <g>
       <use xlink:href="#m645e25a2bf" x="235.62593" y="390.04" style="stroke: #000000; stroke-width: 0.8"/>
      </g>
     </g>
     <g id="text_3">
      <!-- 10000 -->
      <g transform="translate(219.71968 404.638438) scale(0.1 -0.1)">
       <defs>
        <path id="DejaVuSans-31" d="M 794 531 
L 1825 531 
L 1825 4091 
L 703 3866 
L 703 4441 
L 1819 4666 
L 2450 4666 
L 2450 531 
L 3481 531 
L 3481 0 
L 794 0 
L 794 531 
z
" transform="scale(0.015625)"/>
       </defs>
       <use xlink:href="#DejaVuSans-31"/>
       <use xlink:href="#DejaVuSans-30" transform="translate(63.623047 0)"/>
       <use xlink:href="#DejaVuSans-30" transform="translate(127.246094 0)"/>
       <use xlink:href="#DejaVuSans-30" transform="translate(190.869141 0)"/>
       <use xlink:href="#DejaVuSans-30" transform="translate(254.492188 0)"/>
      </g>
     </g>
    </g>
    <g id="xtick_4">
     <g id="line2d_7">
      <path d="M 316.825832 390.04 
L 316.825832 10.8 
" clip-path="url(#p35494b1c66)" style="fill: none; stroke: #b0b0b0; stroke-width: 0.8; stroke-linecap: square"/>
     </g>
     <g id="line2d_8">
      <g>
       <use xlink:href="#m645e25a2bf" x="316.825832" y="390.04" style="stroke: #000000; stroke-width: 0.8"/>
      </g>
     </g>
     <g id="text_4">
      <!-- 15000 -->
      <g transform="translate(300.919582 404.638438) scale(0.1 -0.1)">
       <use xlink:href="#DejaVuSans-31"/>
       <use xlink:href="#DejaVuSans-35" transform="translate(63.623047 0)"/>
       <use xlink:href="#DejaVuSans-30" transform="translate(127.246094 0)"/>
       <use xlink:href="#DejaVuSans-30" transform="translate(190.869141 0)"/>
       <use xlink:href="#DejaVuSans-30" transform="translate(254.492188 0)"/>
      </g>
     </g>
    </g>
    <g id="xtick_5">
     <g id="line2d_9">
      <path d="M 398.025735 390.04 
L 398.025735 10.8 
" clip-path="url(#p35494b1c66)" style="fill: none; stroke: #b0b0b0; stroke-width: 0.8; stroke-linecap: square"/>
     </g>
     <g id="line2d_10">
      <g>
       <use xlink:href="#m645e25a2bf" x="398.025735" y="390.04" style="stroke: #000000; stroke-width: 0.8"/>
      </g>
     </g>
     <g id="text_5">
      <!-- 20000 -->
      <g transform="translate(382.119485 404.638438) scale(0.1 -0.1)">
       <defs>
        <path id="DejaVuSans-32" d="M 1228 531 
L 3431 531 
L 3431 0 
L 469 0 
L 469 531 
Q 828 903 1448 1529 
Q 2069 2156 2228 2338 
Q 2531 2678 2651 2914 
Q 2772 3150 2772 3378 
Q 2772 3750 2511 3984 
Q 2250 4219 1831 4219 
Q 1534 4219 1204 4116 
Q 875 4013 500 3803 
L 500 4441 
Q 881 4594 1212 4672 
Q 1544 4750 1819 4750 
Q 2544 4750 2975 4387 
Q 3406 4025 3406 3419 
Q 3406 3131 3298 2873 
Q 3191 2616 2906 2266 
Q 2828 2175 2409 1742 
Q 1991 1309 1228 531 
z
" transform="scale(0.015625)"/>
       </defs>
       <use xlink:href="#DejaVuSans-32"/>
       <use xlink:href="#DejaVuSans-30" transform="translate(63.623047 0)"/>
       <use xlink:href="#DejaVuSans-30" transform="translate(127.246094 0)"/>
       <use xlink:href="#DejaVuSans-30" transform="translate(190.869141 0)"/>
       <use xlink:href="#DejaVuSans-30" transform="translate(254.492188 0)"/>
      </g>
     </g>
    </g>
    <g id="xtick_6">
     <g id="line2d_11">
      <path d="M 479.225637 390.04 
L 479.225637 10.8 
" clip-path="url(#p35494b1c66)" style="fill: none; stroke: #b0b0b0; stroke-width: 0.8; stroke-linecap: square"/>
     </g>
     <g id="line2d_12">
      <g>
       <use xlink:href="#m645e25a2bf" x="479.225637" y="390.04" style="stroke: #000000; stroke-width: 0.8"/>
      </g>
     </g>
     <g id="text_6">
      <!-- 25000 -->
      <g transform="translate(463.319387 404.638438) scale(0.1 -0.1)">
       <use xlink:href="#DejaVuSans-32"/>
       <use xlink:href="#DejaVuSans-35" transform="translate(63.623047 0)"/>
       <use xlink:href="#DejaVuSans-30" transform="translate(127.246094 0)"/>
       <use xlink:href="#DejaVuSans-30" transform="translate(190.869141 0)"/>
       <use xlink:href="#DejaVuSans-30" transform="translate(254.492188 0)"/>
      </g>
     </g>
    </g>
    <g id="xtick_7">
     <g id="line2d_13">
      <path d="M 560.425539 390.04 
L 560.425539 10.8 
" clip-path="url(#p35494b1c66)" style="fill: none; stroke: #b0b0b0; stroke-width: 0.8; stroke-linecap: square"/>
     </g>
     <g id="line2d_14">
      <g>
       <use xlink:href="#m645e25a2bf" x="560.425539" y="390.04" style="stroke: #000000; stroke-width: 0.8"/>
      </g>
     </g>
     <g id="text_7">
      <!-- 30000 -->
      <g transform="translate(544.519289 404.638438) scale(0.1 -0.1)">
       <defs>
        <path id="DejaVuSans-33" d="M 2597 2516 
Q 3050 2419 3304 2112 
Q 3559 1806 3559 1356 
Q 3559 666 3084 287 
Q 2609 -91 1734 -91 
Q 1441 -91 1130 -33 
Q 819 25 488 141 
L 488 750 
Q 750 597 1062 519 
Q 1375 441 1716 441 
Q 2309 441 2620 675 
Q 2931 909 2931 1356 
Q 2931 1769 2642 2001 
Q 2353 2234 1838 2234 
L 1294 2234 
L 1294 2753 
L 1863 2753 
Q 2328 2753 2575 2939 
Q 2822 3125 2822 3475 
Q 2822 3834 2567 4026 
Q 2313 4219 1838 4219 
Q 1578 4219 1281 4162 
Q 984 4106 628 3988 
L 628 4550 
Q 988 4650 1302 4700 
Q 1616 4750 1894 4750 
Q 2613 4750 3031 4423 
Q 3450 4097 3450 3541 
Q 3450 3153 3228 2886 
Q 3006 2619 2597 2516 
z
" transform="scale(0.015625)"/>
       </defs>
       <use xlink:href="#DejaVuSans-33"/>
       <use xlink:href="#DejaVuSans-30" transform="translate(63.623047 0)"/>
       <use xlink:href="#DejaVuSans-30" transform="translate(127.246094 0)"/>
       <use xlink:href="#DejaVuSans-30" transform="translate(190.869141 0)"/>
       <use xlink:href="#DejaVuSans-30" transform="translate(254.492188 0)"/>
      </g>
     </g>
    </g>
    <g id="xtick_8">
     <g id="line2d_15">
      <path d="M 641.625441 390.04 
L 641.625441 10.8 
" clip-path="url(#p35494b1c66)" style="fill: none; stroke: #b0b0b0; stroke-width: 0.8; stroke-linecap: square"/>
     </g>
     <g id="line2d_16">
      <g>
       <use xlink:href="#m645e25a2bf" x="641.625441" y="390.04" style="stroke: #000000; stroke-width: 0.8"/>
      </g>
     </g>
     <g id="text_8">
      <!-- 35000 -->
      <g transform="translate(625.719191 404.638438) scale(0.1 -0.1)">
       <use xlink:href="#DejaVuSans-33"/>
       <use xlink:href="#DejaVuSans-35" transform="translate(63.623047 0)"/>
       <use xlink:href="#DejaVuSans-30" transform="translate(127.246094 0)"/>
       <use xlink:href="#DejaVuSans-30" transform="translate(190.869141 0)"/>
       <use xlink:href="#DejaVuSans-30" transform="translate(254.492188 0)"/>
      </g>
     </g>
    </g>
    <g id="text_9">
     <!-- Episodes -->
     <g transform="translate(354.687813 418.316562) scale(0.1 -0.1)">
      <defs>
       <path id="DejaVuSans-45" d="M 628 4666 
L 3578 4666 
L 3578 4134 
L 1259 4134 
L 1259 2753 
L 3481 2753 
L 3481 2222 
L 1259 2222 
L 1259 531 
L 3634 531 
L 3634 0 
L 628 0 
L 628 4666 
z
" transform="scale(0.015625)"/>
       <path id="DejaVuSans-70" d="M 1159 525 
L 1159 -1331 
L 581 -1331 
L 581 3500 
L 1159 3500 
L 1159 2969 
Q 1341 3281 1617 3432 
Q 1894 3584 2278 3584 
Q 2916 3584 3314 3078 
Q 3713 2572 3713 1747 
Q 3713 922 3314 415 
Q 2916 -91 2278 -91 
Q 1894 -91 1617 61 
Q 1341 213 1159 525 
z
M 3116 1747 
Q 3116 2381 2855 2742 
Q 2594 3103 2138 3103 
Q 1681 3103 1420 2742 
Q 1159 2381 1159 1747 
Q 1159 1113 1420 752 
Q 1681 391 2138 391 
Q 2594 391 2855 752 
Q 3116 1113 3116 1747 
z
" transform="scale(0.015625)"/>
       <path id="DejaVuSans-69" d="M 603 3500 
L 1178 3500 
L 1178 0 
L 603 0 
L 603 3500 
z
M 603 4863 
L 1178 4863 
L 1178 4134 
L 603 4134 
L 603 4863 
z
" transform="scale(0.015625)"/>
       <path id="DejaVuSans-73" d="M 2834 3397 
L 2834 2853 
Q 2591 2978 2328 3040 
Q 2066 3103 1784 3103 
Q 1356 3103 1142 2972 
Q 928 2841 928 2578 
Q 928 2378 1081 2264 
Q 1234 2150 1697 2047 
L 1894 2003 
Q 2506 1872 2764 1633 
Q 3022 1394 3022 966 
Q 3022 478 2636 193 
Q 2250 -91 1575 -91 
Q 1294 -91 989 -36 
Q 684 19 347 128 
L 347 722 
Q 666 556 975 473 
Q 1284 391 1588 391 
Q 1994 391 2212 530 
Q 2431 669 2431 922 
Q 2431 1156 2273 1281 
Q 2116 1406 1581 1522 
L 1381 1569 
Q 847 1681 609 1914 
Q 372 2147 372 2553 
Q 372 3047 722 3315 
Q 1072 3584 1716 3584 
Q 2034 3584 2315 3537 
Q 2597 3491 2834 3397 
z
" transform="scale(0.015625)"/>
       <path id="DejaVuSans-6f" d="M 1959 3097 
Q 1497 3097 1228 2736 
Q 959 2375 959 1747 
Q 959 1119 1226 758 
Q 1494 397 1959 397 
Q 2419 397 2687 759 
Q 2956 1122 2956 1747 
Q 2956 2369 2687 2733 
Q 2419 3097 1959 3097 
z
M 1959 3584 
Q 2709 3584 3137 3096 
Q 3566 2609 3566 1747 
Q 3566 888 3137 398 
Q 2709 -91 1959 -91 
Q 1206 -91 779 398 
Q 353 888 353 1747 
Q 353 2609 779 3096 
Q 1206 3584 1959 3584 
z
" transform="scale(0.015625)"/>
       <path id="DejaVuSans-64" d="M 2906 2969 
L 2906 4863 
L 3481 4863 
L 3481 0 
L 2906 0 
L 2906 525 
Q 2725 213 2448 61 
Q 2172 -91 1784 -91 
Q 1150 -91 751 415 
Q 353 922 353 1747 
Q 353 2572 751 3078 
Q 1150 3584 1784 3584 
Q 2172 3584 2448 3432 
Q 2725 3281 2906 2969 
z
M 947 1747 
Q 947 1113 1208 752 
Q 1469 391 1925 391 
Q 2381 391 2643 752 
Q 2906 1113 2906 1747 
Q 2906 2381 2643 2742 
Q 2381 3103 1925 3103 
Q 1469 3103 1208 2742 
Q 947 2381 947 1747 
z
" transform="scale(0.015625)"/>
       <path id="DejaVuSans-65" d="M 3597 1894 
L 3597 1613 
L 953 1613 
Q 991 1019 1311 708 
Q 1631 397 2203 397 
Q 2534 397 2845 478 
Q 3156 559 3463 722 
L 3463 178 
Q 3153 47 2828 -22 
Q 2503 -91 2169 -91 
Q 1331 -91 842 396 
Q 353 884 353 1716 
Q 353 2575 817 3079 
Q 1281 3584 2069 3584 
Q 2775 3584 3186 3129 
Q 3597 2675 3597 1894 
z
M 3022 2063 
Q 3016 2534 2758 2815 
Q 2500 3097 2075 3097 
Q 1594 3097 1305 2825 
Q 1016 2553 972 2059 
L 3022 2063 
z
" transform="scale(0.015625)"/>
      </defs>
      <use xlink:href="#DejaVuSans-45"/>
      <use xlink:href="#DejaVuSans-70" transform="translate(63.183594 0)"/>
      <use xlink:href="#DejaVuSans-69" transform="translate(126.660156 0)"/>
      <use xlink:href="#DejaVuSans-73" transform="translate(154.443359 0)"/>
      <use xlink:href="#DejaVuSans-6f" transform="translate(206.542969 0)"/>
      <use xlink:href="#DejaVuSans-64" transform="translate(267.724609 0)"/>
      <use xlink:href="#DejaVuSans-65" transform="translate(331.201172 0)"/>
      <use xlink:href="#DejaVuSans-73" transform="translate(392.724609 0)"/>
     </g>
    </g>
   </g>
   <g id="matplotlib.axis_2">
    <g id="ytick_1">
     <g id="line2d_17">
      <path d="M 44.66 343.793619 
L 709.2 343.793619 
" clip-path="url(#p35494b1c66)" style="fill: none; stroke: #b0b0b0; stroke-width: 0.8; stroke-linecap: square"/>
     </g>
     <g id="line2d_18">
      <defs>
       <path id="m93505440cf" d="M 0 0 
L -3.5 0 
" style="stroke: #000000; stroke-width: 0.8"/>
      </defs>
      <g>
       <use xlink:href="#m93505440cf" x="44.66" y="343.793619" style="stroke: #000000; stroke-width: 0.8"/>
      </g>
     </g>
     <g id="text_10">
      <!-- 4 -->
      <g transform="translate(31.2975 347.592837) scale(0.1 -0.1)">
       <defs>
        <path id="DejaVuSans-34" d="M 2419 4116 
L 825 1625 
L 2419 1625 
L 2419 4116 
z
M 2253 4666 
L 3047 4666 
L 3047 1625 
L 3713 1625 
L 3713 1100 
L 3047 1100 
L 3047 0 
L 2419 0 
L 2419 1100 
L 313 1100 
L 313 1709 
L 2253 4666 
z
" transform="scale(0.015625)"/>
       </defs>
       <use xlink:href="#DejaVuSans-34"/>
      </g>
     </g>
    </g>
    <g id="ytick_2">
     <g id="line2d_19">
      <path d="M 44.66 295.599565 
L 709.2 295.599565 
" clip-path="url(#p35494b1c66)" style="fill: none; stroke: #b0b0b0; stroke-width: 0.8; stroke-linecap: square"/>
     </g>
     <g id="line2d_20">
      <g>
       <use xlink:href="#m93505440cf" x="44.66" y="295.599565" style="stroke: #000000; stroke-width: 0.8"/>
      </g>
     </g>
     <g id="text_11">
      <!-- 6 -->
      <g transform="translate(31.2975 299.398783) scale(0.1 -0.1)">
       <defs>
        <path id="DejaVuSans-36" d="M 2113 2584 
Q 1688 2584 1439 2293 
Q 1191 2003 1191 1497 
Q 1191 994 1439 701 
Q 1688 409 2113 409 
Q 2538 409 2786 701 
Q 3034 994 3034 1497 
Q 3034 2003 2786 2293 
Q 2538 2584 2113 2584 
z
M 3366 4563 
L 3366 3988 
Q 3128 4100 2886 4159 
Q 2644 4219 2406 4219 
Q 1781 4219 1451 3797 
Q 1122 3375 1075 2522 
Q 1259 2794 1537 2939 
Q 1816 3084 2150 3084 
Q 2853 3084 3261 2657 
Q 3669 2231 3669 1497 
Q 3669 778 3244 343 
Q 2819 -91 2113 -91 
Q 1303 -91 875 529 
Q 447 1150 447 2328 
Q 447 3434 972 4092 
Q 1497 4750 2381 4750 
Q 2619 4750 2861 4703 
Q 3103 4656 3366 4563 
z
" transform="scale(0.015625)"/>
       </defs>
       <use xlink:href="#DejaVuSans-36"/>
      </g>
     </g>
    </g>
    <g id="ytick_3">
     <g id="line2d_21">
      <path d="M 44.66 247.40551 
L 709.2 247.40551 
" clip-path="url(#p35494b1c66)" style="fill: none; stroke: #b0b0b0; stroke-width: 0.8; stroke-linecap: square"/>
     </g>
     <g id="line2d_22">
      <g>
       <use xlink:href="#m93505440cf" x="44.66" y="247.40551" style="stroke: #000000; stroke-width: 0.8"/>
      </g>
     </g>
     <g id="text_12">
      <!-- 8 -->
      <g transform="translate(31.2975 251.204729) scale(0.1 -0.1)">
       <defs>
        <path id="DejaVuSans-38" d="M 2034 2216 
Q 1584 2216 1326 1975 
Q 1069 1734 1069 1313 
Q 1069 891 1326 650 
Q 1584 409 2034 409 
Q 2484 409 2743 651 
Q 3003 894 3003 1313 
Q 3003 1734 2745 1975 
Q 2488 2216 2034 2216 
z
M 1403 2484 
Q 997 2584 770 2862 
Q 544 3141 544 3541 
Q 544 4100 942 4425 
Q 1341 4750 2034 4750 
Q 2731 4750 3128 4425 
Q 3525 4100 3525 3541 
Q 3525 3141 3298 2862 
Q 3072 2584 2669 2484 
Q 3125 2378 3379 2068 
Q 3634 1759 3634 1313 
Q 3634 634 3220 271 
Q 2806 -91 2034 -91 
Q 1263 -91 848 271 
Q 434 634 434 1313 
Q 434 1759 690 2068 
Q 947 2378 1403 2484 
z
M 1172 3481 
Q 1172 3119 1398 2916 
Q 1625 2713 2034 2713 
Q 2441 2713 2670 2916 
Q 2900 3119 2900 3481 
Q 2900 3844 2670 4047 
Q 2441 4250 2034 4250 
Q 1625 4250 1398 4047 
Q 1172 3844 1172 3481 
z
" transform="scale(0.015625)"/>
       </defs>
       <use xlink:href="#DejaVuSans-38"/>
      </g>
     </g>
    </g>
    <g id="ytick_4">
     <g id="line2d_23">
      <path d="M 44.66 199.211456 
L 709.2 199.211456 
" clip-path="url(#p35494b1c66)" style="fill: none; stroke: #b0b0b0; stroke-width: 0.8; stroke-linecap: square"/>
     </g>
     <g id="line2d_24">
      <g>
       <use xlink:href="#m93505440cf" x="44.66" y="199.211456" style="stroke: #000000; stroke-width: 0.8"/>
      </g>
     </g>
     <g id="text_13">
      <!-- 10 -->
      <g transform="translate(24.935 203.010675) scale(0.1 -0.1)">
       <use xlink:href="#DejaVuSans-31"/>
       <use xlink:href="#DejaVuSans-30" transform="translate(63.623047 0)"/>
      </g>
     </g>
    </g>
    <g id="ytick_5">
     <g id="line2d_25">
      <path d="M 44.66 151.017402 
L 709.2 151.017402 
" clip-path="url(#p35494b1c66)" style="fill: none; stroke: #b0b0b0; stroke-width: 0.8; stroke-linecap: square"/>
     </g>
     <g id="line2d_26">
      <g>
       <use xlink:href="#m93505440cf" x="44.66" y="151.017402" style="stroke: #000000; stroke-width: 0.8"/>
      </g>
     </g>
     <g id="text_14">
      <!-- 12 -->
      <g transform="translate(24.935 154.816621) scale(0.1 -0.1)">
       <use xlink:href="#DejaVuSans-31"/>
       <use xlink:href="#DejaVuSans-32" transform="translate(63.623047 0)"/>
      </g>
     </g>
    </g>
    <g id="ytick_6">
     <g id="line2d_27">
      <path d="M 44.66 102.823348 
L 709.2 102.823348 
" clip-path="url(#p35494b1c66)" style="fill: none; stroke: #b0b0b0; stroke-width: 0.8; stroke-linecap: square"/>
     </g>
     <g id="line2d_28">
      <g>
       <use xlink:href="#m93505440cf" x="44.66" y="102.823348" style="stroke: #000000; stroke-width: 0.8"/>
      </g>
     </g>
     <g id="text_15">
      <!-- 14 -->
      <g transform="translate(24.935 106.622567) scale(0.1 -0.1)">
       <use xlink:href="#DejaVuSans-31"/>
       <use xlink:href="#DejaVuSans-34" transform="translate(63.623047 0)"/>
      </g>
     </g>
    </g>
    <g id="ytick_7">
     <g id="line2d_29">
      <path d="M 44.66 54.629294 
L 709.2 54.629294 
" clip-path="url(#p35494b1c66)" style="fill: none; stroke: #b0b0b0; stroke-width: 0.8; stroke-linecap: square"/>
     </g>
     <g id="line2d_30">
      <g>
       <use xlink:href="#m93505440cf" x="44.66" y="54.629294" style="stroke: #000000; stroke-width: 0.8"/>
      </g>
     </g>
     <g id="text_16">
      <!-- 16 -->
      <g transform="translate(24.935 58.428513) scale(0.1 -0.1)">
       <use xlink:href="#DejaVuSans-31"/>
       <use xlink:href="#DejaVuSans-36" transform="translate(63.623047 0)"/>
      </g>
     </g>
    </g>
    <g id="text_17">
     <!-- Quantum Gates -->
     <g transform="translate(18.855313 239.925469) rotate(-90) scale(0.1 -0.1)">
      <defs>
       <path id="DejaVuSans-51" d="M 2522 4238 
Q 1834 4238 1429 3725 
Q 1025 3213 1025 2328 
Q 1025 1447 1429 934 
Q 1834 422 2522 422 
Q 3209 422 3611 934 
Q 4013 1447 4013 2328 
Q 4013 3213 3611 3725 
Q 3209 4238 2522 4238 
z
M 3406 84 
L 4238 -825 
L 3475 -825 
L 2784 -78 
Q 2681 -84 2626 -87 
Q 2572 -91 2522 -91 
Q 1538 -91 948 567 
Q 359 1225 359 2328 
Q 359 3434 948 4092 
Q 1538 4750 2522 4750 
Q 3503 4750 4090 4092 
Q 4678 3434 4678 2328 
Q 4678 1516 4351 937 
Q 4025 359 3406 84 
z
" transform="scale(0.015625)"/>
       <path id="DejaVuSans-75" d="M 544 1381 
L 544 3500 
L 1119 3500 
L 1119 1403 
Q 1119 906 1312 657 
Q 1506 409 1894 409 
Q 2359 409 2629 706 
Q 2900 1003 2900 1516 
L 2900 3500 
L 3475 3500 
L 3475 0 
L 2900 0 
L 2900 538 
Q 2691 219 2414 64 
Q 2138 -91 1772 -91 
Q 1169 -91 856 284 
Q 544 659 544 1381 
z
M 1991 3584 
L 1991 3584 
z
" transform="scale(0.015625)"/>
       <path id="DejaVuSans-61" d="M 2194 1759 
Q 1497 1759 1228 1600 
Q 959 1441 959 1056 
Q 959 750 1161 570 
Q 1363 391 1709 391 
Q 2188 391 2477 730 
Q 2766 1069 2766 1631 
L 2766 1759 
L 2194 1759 
z
M 3341 1997 
L 3341 0 
L 2766 0 
L 2766 531 
Q 2569 213 2275 61 
Q 1981 -91 1556 -91 
Q 1019 -91 701 211 
Q 384 513 384 1019 
Q 384 1609 779 1909 
Q 1175 2209 1959 2209 
L 2766 2209 
L 2766 2266 
Q 2766 2663 2505 2880 
Q 2244 3097 1772 3097 
Q 1472 3097 1187 3025 
Q 903 2953 641 2809 
L 641 3341 
Q 956 3463 1253 3523 
Q 1550 3584 1831 3584 
Q 2591 3584 2966 3190 
Q 3341 2797 3341 1997 
z
" transform="scale(0.015625)"/>
       <path id="DejaVuSans-6e" d="M 3513 2113 
L 3513 0 
L 2938 0 
L 2938 2094 
Q 2938 2591 2744 2837 
Q 2550 3084 2163 3084 
Q 1697 3084 1428 2787 
Q 1159 2491 1159 1978 
L 1159 0 
L 581 0 
L 581 3500 
L 1159 3500 
L 1159 2956 
Q 1366 3272 1645 3428 
Q 1925 3584 2291 3584 
Q 2894 3584 3203 3211 
Q 3513 2838 3513 2113 
z
" transform="scale(0.015625)"/>
       <path id="DejaVuSans-74" d="M 1172 4494 
L 1172 3500 
L 2356 3500 
L 2356 3053 
L 1172 3053 
L 1172 1153 
Q 1172 725 1289 603 
Q 1406 481 1766 481 
L 2356 481 
L 2356 0 
L 1766 0 
Q 1100 0 847 248 
Q 594 497 594 1153 
L 594 3053 
L 172 3053 
L 172 3500 
L 594 3500 
L 594 4494 
L 1172 4494 
z
" transform="scale(0.015625)"/>
       <path id="DejaVuSans-6d" d="M 3328 2828 
Q 3544 3216 3844 3400 
Q 4144 3584 4550 3584 
Q 5097 3584 5394 3201 
Q 5691 2819 5691 2113 
L 5691 0 
L 5113 0 
L 5113 2094 
Q 5113 2597 4934 2840 
Q 4756 3084 4391 3084 
Q 3944 3084 3684 2787 
Q 3425 2491 3425 1978 
L 3425 0 
L 2847 0 
L 2847 2094 
Q 2847 2600 2669 2842 
Q 2491 3084 2119 3084 
Q 1678 3084 1418 2786 
Q 1159 2488 1159 1978 
L 1159 0 
L 581 0 
L 581 3500 
L 1159 3500 
L 1159 2956 
Q 1356 3278 1631 3431 
Q 1906 3584 2284 3584 
Q 2666 3584 2933 3390 
Q 3200 3197 3328 2828 
z
" transform="scale(0.015625)"/>
       <path id="DejaVuSans-20" transform="scale(0.015625)"/>
       <path id="DejaVuSans-47" d="M 3809 666 
L 3809 1919 
L 2778 1919 
L 2778 2438 
L 4434 2438 
L 4434 434 
Q 4069 175 3628 42 
Q 3188 -91 2688 -91 
Q 1594 -91 976 548 
Q 359 1188 359 2328 
Q 359 3472 976 4111 
Q 1594 4750 2688 4750 
Q 3144 4750 3555 4637 
Q 3966 4525 4313 4306 
L 4313 3634 
Q 3963 3931 3569 4081 
Q 3175 4231 2741 4231 
Q 1884 4231 1454 3753 
Q 1025 3275 1025 2328 
Q 1025 1384 1454 906 
Q 1884 428 2741 428 
Q 3075 428 3337 486 
Q 3600 544 3809 666 
z
" transform="scale(0.015625)"/>
      </defs>
      <use xlink:href="#DejaVuSans-51"/>
      <use xlink:href="#DejaVuSans-75" transform="translate(78.710938 0)"/>
      <use xlink:href="#DejaVuSans-61" transform="translate(142.089844 0)"/>
      <use xlink:href="#DejaVuSans-6e" transform="translate(203.369141 0)"/>
      <use xlink:href="#DejaVuSans-74" transform="translate(266.748047 0)"/>
      <use xlink:href="#DejaVuSans-75" transform="translate(305.957031 0)"/>
      <use xlink:href="#DejaVuSans-6d" transform="translate(369.335938 0)"/>
      <use xlink:href="#DejaVuSans-20" transform="translate(466.748047 0)"/>
      <use xlink:href="#DejaVuSans-47" transform="translate(498.535156 0)"/>
      <use xlink:href="#DejaVuSans-61" transform="translate(576.025391 0)"/>
      <use xlink:href="#DejaVuSans-74" transform="translate(637.304688 0)"/>
      <use xlink:href="#DejaVuSans-65" transform="translate(676.513672 0)"/>
      <use xlink:href="#DejaVuSans-73" transform="translate(738.037109 0)"/>
     </g>
    </g>
   </g>
   <g id="line2d_31">
    <path d="M 74.866364 239.333006 
L 78.11436 232.746486 
L 81.362356 235.718452 
L 84.610352 229.854842 
L 87.858348 226.079641 
L 91.106344 220.617649 
L 94.35434 225.276407 
L 97.602336 224.87479 
L 100.850332 229.212255 
L 104.098328 231.099855 
L 107.346325 247.244864 
L 110.594321 235.879099 
L 113.842317 250.21683 
L 117.090313 256.160764 
L 120.338309 258.209011 
L 123.586305 263.189063 
L 126.834301 258.851598 
L 130.082297 266.522485 
L 133.330293 275.599032 
L 136.578289 269.132996 
L 139.826285 272.868036 
L 143.074282 275.3179 
L 146.322278 266.402 
L 149.570274 268.008469 
L 152.81827 258.65079 
L 156.066266 263.871812 
L 159.314262 260.819522 
L 162.562258 247.686642 
L 165.810254 252.546209 
L 169.05825 253.26912 
L 172.306246 249.775051 
L 175.554242 247.16454 
L 178.802239 253.510091 
L 182.050235 253.670737 
L 185.298231 262.18502 
L 188.546227 264.353753 
L 191.794223 257.646747 
L 195.042219 260.819522 
L 198.290215 262.305505 
L 201.538211 261.783403 
L 204.786207 264.112782 
L 208.034203 264.072621 
L 214.530196 259.534347 
L 217.778192 263.711165 
L 221.026188 267.446205 
L 224.274184 258.851598 
L 230.770176 257.646747 
L 234.018172 257.325453 
L 237.266168 252.144592 
L 240.514164 252.024107 
L 243.76216 241.983679 
L 247.010156 241.5419 
L 250.258152 234.634086 
L 253.506149 232.626 
L 256.754145 232.224383 
L 260.002141 226.360773 
L 263.250137 225.155922 
L 266.498133 223.589615 
L 269.746129 225.798509 
L 272.994125 226.441097 
L 276.242121 227.645948 
L 279.490117 225.758348 
L 282.738113 222.947028 
L 285.986109 224.714143 
L 289.234106 225.477216 
L 292.482102 222.866704 
L 298.978094 231.90309 
L 302.22609 230.457268 
L 305.474086 226.03948 
L 308.722082 228.489344 
L 311.970078 221.420883 
L 315.218074 231.421149 
L 318.46607 232.706324 
L 321.714066 229.734357 
L 324.962063 231.059694 
L 328.210059 223.509292 
L 331.458055 215.517111 
L 334.706051 216.601477 
L 337.954047 204.713611 
L 341.202043 204.030862 
L 344.450039 205.356198 
L 347.698035 209.412531 
L 350.946031 208.850267 
L 354.194027 216.320345 
L 357.442023 214.031128 
L 360.69002 205.8783 
L 367.186012 198.408222 
L 370.434008 189.893939 
L 373.682004 192.584774 
L 376.93 180.978039 
L 380.177996 180.29529 
L 383.425992 196.078843 
L 386.673988 206.561049 
L 389.921984 215.999052 
L 393.16998 231.983413 
L 399.665973 250.939741 
L 402.913969 250.899579 
L 406.161965 245.437586 
L 409.409961 240.497696 
L 412.657957 246.481791 
L 415.905953 243.710633 
L 419.153949 239.935432 
L 422.401945 233.54972 
L 425.649941 239.333006 
L 428.897937 240.055917 
L 432.145934 252.947827 
L 435.39393 243.670471 
L 438.641926 239.814947 
L 441.889922 239.6543 
L 445.137918 237.164274 
L 448.385914 233.710367 
L 451.63391 238.409287 
L 454.881906 235.718452 
L 458.129902 239.212521 
L 461.377898 242.94756 
L 464.625894 241.5419 
L 467.873891 236.441363 
L 471.121887 238.610095 
L 474.369883 202.544878 
L 477.617879 190.817658 
L 480.865875 195.114962 
L 484.113871 198.36806 
L 487.361867 193.749463 
L 490.609863 196.922239 
L 493.857859 188.166985 
L 497.105855 181.781273 
L 500.353851 181.982082 
L 503.601848 185.034372 
L 506.849844 196.400136 
L 510.09784 185.355666 
L 513.345836 162.383167 
L 516.593832 160.334919 
L 519.841828 157.121982 
L 523.089824 165.314971 
L 526.33782 181.821435 
L 529.585816 197.323856 
L 532.833812 202.946495 
L 536.081808 213.348379 
L 539.329804 226.240288 
L 542.577801 226.481259 
L 545.825797 237.525729 
L 549.073793 240.136241 
L 552.321789 248.81117 
L 555.569785 232.907132 
L 558.817781 219.452959 
L 562.065777 217.485035 
L 565.313773 211.902557 
L 568.561769 221.300398 
L 571.809765 220.015223 
L 575.057761 230.015489 
L 578.305758 215.557273 
L 581.553754 234.553763 
L 584.80175 238.690419 
L 588.049746 248.248906 
L 591.297742 251.461843 
L 594.545738 235.397159 
L 597.793734 203.870215 
L 601.04173 187.32359 
L 604.289726 176.801221 
L 607.537722 143.346515 
L 610.785718 138.205816 
L 614.033715 135.916598 
L 617.281711 146.03735 
L 620.529707 135.314173 
L 623.777703 138.205816 
L 627.025699 139.812284 
L 630.273695 143.748132 
L 633.521691 143.386677 
L 636.769687 145.997188 
L 640.017683 151.459181 
L 643.265679 153.748398 
L 646.513675 182.825478 
L 649.761672 183.186933 
L 653.009668 189.45216 
L 656.257664 192.785582 
L 659.50566 189.652969 
L 662.753656 188.930058 
L 666.001652 183.909844 
L 669.249648 201.139218 
L 672.497644 210.416574 
L 675.74564 189.492322 
L 678.993636 182.905801 
L 678.993636 182.905801 
" clip-path="url(#p35494b1c66)" style="fill: none; stroke: #1f77b4; stroke-width: 1.5; stroke-linecap: square"/>
   </g>
   <g id="patch_3">
    <path d="M 44.66 390.04 
L 44.66 10.8 
" style="fill: none; stroke: #000000; stroke-width: 0.8; stroke-linejoin: miter; stroke-linecap: square"/>
   </g>
   <g id="patch_4">
    <path d="M 709.2 390.04 
L 709.2 10.8 
" style="fill: none; stroke: #000000; stroke-width: 0.8; stroke-linejoin: miter; stroke-linecap: square"/>
   </g>
   <g id="patch_5">
    <path d="M 44.66 390.04 
L 709.2 390.04 
" style="fill: none; stroke: #000000; stroke-width: 0.8; stroke-linejoin: miter; stroke-linecap: square"/>
   </g>
   <g id="patch_6">
    <path d="M 44.66 10.8 
L 709.2 10.8 
" style="fill: none; stroke: #000000; stroke-width: 0.8; stroke-linejoin: miter; stroke-linecap: square"/>
   </g>
  </g>
 </g>
 <defs>
  <clipPath id="p35494b1c66">
   <rect x="44.66" y="10.8" width="664.54" height="379.24"/>
  </clipPath>
 </defs>
</svg>
