<?xml version="1.0" encoding="utf-8" standalone="no"?>
<!DOCTYPE svg PUBLIC "-//W3C//DTD SVG 1.1//EN"
  "http://www.w3.org/Graphics/SVG/1.1/DTD/svg11.dtd">
<svg xmlns:xlink="http://www.w3.org/1999/xlink" width="720pt" height="432pt" viewBox="0 0 720 432" xmlns="http://www.w3.org/2000/svg" version="1.1">
 <metadata>
  <rdf:RDF xmlns:dc="http://purl.org/dc/elements/1.1/" xmlns:cc="http://creativecommons.org/ns#" xmlns:rdf="http://www.w3.org/1999/02/22-rdf-syntax-ns#">
   <cc:Work>
    <dc:type rdf:resource="http://purl.org/dc/dcmitype/StillImage"/>
    <dc:date>2025-04-15T17:18:07.816385</dc:date>
    <dc:format>image/svg+xml</dc:format>
    <dc:creator>
     <cc:Agent>
      <dc:title>Matplotlib v3.10.0, https://matplotlib.org/</dc:title>
     </cc:Agent>
    </dc:creator>
   </cc:Work>
  </rdf:RDF>
 </metadata>
 <defs>
  <style type="text/css">*{stroke-linejoin: round; stroke-linecap: butt}</style>
 </defs>
 <g id="figure_1">
  <g id="patch_1">
   <path d="M 0 432 
L 720 432 
L 720 0 
L 0 0 
z
" style="fill: #ffffff"/>
  </g>
  <g id="axes_1">
   <g id="patch_2">
    <path d="M 53.93 390.04 
L 709.2 390.04 
L 709.2 11.538303 
L 53.93 11.538303 
z
" style="fill: #ffffff"/>
   </g>
   <g id="FillBetweenPolyCollection_1">
    <defs>
     <path id="m78b720d222" d="M 83.715 -380.69169 
L 83.715 -86.636762 
L 86.561977 -83.243997 
L 89.32787 -95.574095 
L 92.159832 -96.887551 
L 95.0939 -77.727075 
L 97.883818 -77.101327 
L 100.700764 -100.105962 
L 103.676877 -123.306089 
L 106.69203 -154.318858 
L 109.794274 -154.483129 
L 112.93556 -154.393324 
L 116.061829 -183.496118 
L 119.095001 -187.821201 
L 122.104148 -207.335063 
L 125.023201 -207.291818 
L 127.58488 -215.298361 
L 130.113525 -218.650704 
L 132.654182 -227.689072 
L 135.119761 -230.773897 
L 137.594349 -226.412172 
L 140.065933 -235.618448 
L 142.501481 -238.759707 
L 144.937028 -235.897107 
L 147.363565 -240.157462 
L 149.802116 -237.416848 
L 152.237663 -238.492164 
L 154.667204 -242.502642 
L 157.081729 -238.913755 
L 159.493251 -243.549729 
L 161.919789 -242.600664 
L 164.334314 -243.656018 
L 166.733823 -240.237307 
L 169.139339 -243.346912 
L 171.556868 -245.158568 
L 173.965386 -244.955752 
L 176.379912 -241.545309 
L 178.806449 -247.38726 
L 181.214968 -245.517505 
L 183.632497 -246.311944 
L 186.041015 -244.883742 
L 188.446531 -247.126345 
L 190.870066 -244.626684 
L 193.278585 -241.914299 
L 195.696113 -244.49038 
L 198.110638 -246.215563 
L 200.525163 -246.94185 
L 202.942692 -246.990041 
L 205.354214 -245.168476 
L 207.762733 -247.920784 
L 210.168248 -246.311944 
L 212.594786 -246.195602 
L 215.009311 -244.393999 
L 217.414827 -245.982877 
L 219.820343 -244.41396 
L 222.228862 -246.777316 
L 224.640384 -247.920784 
L 227.051906 -245.421124 
L 229.454418 -245.866534 
L 231.871947 -243.094265 
L 234.292478 -241.468889 
L 236.634928 -210.1984 
L 238.959359 -233.777144 
L 241.346856 -240.23345 
L 243.758378 -218.975369 
L 245.956677 -224.225697 
L 248.365196 -242.263328 
L 250.773715 -231.4803 
L 253.005048 -197.391135 
L 255.344495 -234.696339 
L 257.750011 -241.380775 
L 260.170542 -234.066289 
L 262.59708 -241.603553 
L 265.014608 -236.808688 
L 267.441146 -212.174997 
L 269.867684 -184.625697 
L 272.282209 -202.652867 
L 274.741781 -237.485985 
L 277.844026 -232.063985 
L 280.645956 -238.937574 
L 283.123547 -243.715902 
L 285.583119 -244.751296 
L 288.108761 -243.346912 
L 290.628396 -246.524669 
L 293.099981 -246.448249 
L 295.658657 -246.651065 
L 298.238355 -246.09922 
L 300.779012 -245.092056 
L 303.247593 -240.887174 
L 305.698156 -246.215563 
L 308.157729 -243.735864 
L 310.602285 -246.729125 
L 313.046842 -248.15347 
L 315.488395 -245.072095 
L 317.908927 -247.688098 
L 320.335464 -247.33907 
L 322.771012 -247.688098 
L 325.206559 -229.171396 
L 327.621084 -238.593389 
L 330.038612 -243.868743 
L 332.456141 -247.920784 
L 334.864659 -246.680935 
L 337.387298 -239.515864 
L 339.930958 -242.977922 
L 342.384524 -245.401162 
L 344.829081 -246.990041 
L 347.261625 -245.537467 
L 349.66714 -245.633848 
L 352.111697 -246.54463 
L 354.538235 -245.774563 
L 356.958766 -248.037127 
L 359.358276 -244.084892 
L 361.757785 -244.626684 
L 364.190329 -247.920784 
L 366.604854 -243.715902 
L 369.049411 -244.171366 
L 371.490964 -247.010002 
L 373.935521 -245.982877 
L 376.368065 -246.777316 
L 378.842653 -243.403371 
L 381.356282 -243.626149 
L 383.860901 -244.334115 
L 386.359514 -245.497544 
L 388.792058 -246.990041 
L 391.194571 -235.016994 
L 393.59408 -242.592396 
L 396.005602 -245.324742 
L 398.435143 -245.633848 
L 400.855675 -246.448249 
L 403.267197 -247.242688 
L 405.687728 -247.804441 
L 408.111263 -246.990041 
L 410.558823 -246.873698 
L 412.982357 -247.688098 
L 415.390876 -248.15347 
L 417.820417 -241.641691 
L 420.403118 -146.443679 
L 422.892722 -230.144068 
L 425.346288 -244.41396 
L 427.775829 -242.379671 
L 430.199363 -243.619521 
L 432.640917 -244.975713 
L 435.061448 -245.244897 
L 437.478976 -242.396207 
L 440.058674 -235.76823 
L 442.587319 -195.712793 
L 445.094941 -239.703784 
L 447.548507 -225.81308 
L 449.987058 -232.527386 
L 452.419602 -245.962916 
L 454.852146 -246.331906 
L 457.27568 -247.804441 
L 459.699215 -247.688098 
L 462.119746 -247.688098 
L 464.531268 -248.037127 
L 466.957806 -247.010002 
L 469.384344 -246.797277 
L 471.807879 -247.000094 
L 474.22841 -247.571755 
L 476.639932 -247.33907 
L 479.054457 -242.203444 
L 481.697221 -239.298296 
L 484.183822 -247.242688 
L 486.598347 -246.331906 
L 489.027888 -247.126345 
L 491.463435 -246.331906 
L 493.868951 -245.886495 
L 496.283476 -247.475374 
L 498.734039 -231.779353 
L 501.247668 -243.483216 
L 503.686218 -242.592396 
L 506.115759 -247.126345 
L 508.548303 -244.59503 
L 510.962828 -245.886495 
L 513.401378 -245.826611 
L 515.881973 -235.365946 
L 518.320523 -167.402389 
L 520.777092 -222.891463 
L 523.236664 -246.757355 
L 525.660199 -247.455412 
L 528.092743 -246.660973 
L 530.513274 -246.564592 
L 532.954828 -246.970079 
L 535.390375 -246.524669 
L 537.846944 -246.54463 
L 540.279488 -245.517505 
L 542.694013 -247.571755 
L 545.156589 -242.203444 
L 547.62517 -244.96402 
L 550.07273 -245.409431 
L 552.51128 -247.33907 
L 554.943825 -247.33907 
L 557.373365 -247.222727 
L 559.793897 -247.920784 
L 562.217431 -230.074132 
L 564.649975 -235.595283 
L 567.079516 -241.505387 
L 569.509057 -246.893659 
L 571.941601 -247.804441 
L 574.35913 -248.037127 
L 576.785667 -247.852632 
L 579.209202 -246.990041 
L 581.662768 -247.804441 
L 584.095312 -247.106384 
L 586.566897 -247.126345 
L 589.041485 -241.987295 
L 591.639202 -242.821657 
L 594.10478 -245.962916 
L 596.546334 -246.873698 
L 598.972871 -247.455412 
L 601.387397 -247.571755 
L 603.807928 -246.990041 
L 606.246478 -247.571755 
L 608.661003 -247.920784 
L 611.069522 -247.920784 
L 613.481044 -247.571755 
L 615.949626 -245.710269 
L 618.388176 -247.33907 
L 620.844746 -246.524669 
L 623.280293 -246.777316 
L 625.730856 -247.242688 
L 628.157393 -246.680935 
L 630.583931 -246.54463 
L 633.025485 -246.893659 
L 635.449019 -243.968549 
L 637.857538 -246.564592 
L 640.281073 -246.215563 
L 642.701604 -248.037127 
L 645.122136 -246.660973 
L 647.539664 -248.15347 
L 649.948183 -247.038232 
L 652.422771 -239.841506 
L 654.873334 -243.965125 
L 657.308881 -246.059297 
L 659.744428 -247.33907 
L 662.176972 -242.336324 
L 664.759673 -245.244897 
L 667.249277 -244.915829 
L 669.714855 -245.264858 
L 672.156409 -247.571755 
L 674.57694 -247.106384 
L 677.012487 -246.757355 
L 677.012487 -257.085065 
L 677.012487 -257.085065 
L 674.57694 -255.050776 
L 672.156409 -252.338391 
L 669.714855 -261.948082 
L 667.249277 -263.98237 
L 664.759673 -265.900316 
L 662.176972 -282.852723 
L 659.744428 -253.694583 
L 657.308881 -261.153642 
L 654.873334 -273.359375 
L 652.422771 -318.490988 
L 649.948183 -257.365941 
L 647.539664 -248.947909 
L 645.122136 -253.810926 
L 642.701604 -249.626006 
L 640.281073 -252.571077 
L 637.857538 -250.536788 
L 635.449019 -250.324063 
L 633.025485 -252.454734 
L 630.583931 -254.489022 
L 628.157393 -249.858691 
L 625.730856 -250.420445 
L 623.280293 -253.13283 
L 620.844746 -258.441257 
L 618.388176 -253.694583 
L 615.949626 -263.187931 
L 613.481044 -252.338391 
L 611.069522 -250.304102 
L 608.661003 -250.304102 
L 606.246478 -252.338391 
L 603.807928 -255.728872 
L 601.387397 -252.338391 
L 598.972871 -253.016487 
L 596.546334 -256.406968 
L 594.10478 -257.879504 
L 591.639202 -276.188103 
L 589.041485 -284.887012 
L 586.566897 -251.098541 
L 584.095312 -255.050776 
L 581.662768 -250.982198 
L 579.209202 -255.728872 
L 576.785667 -252.619267 
L 574.35913 -249.626006 
L 571.941601 -250.982198 
L 569.509057 -252.454734 
L 567.079516 -268.51632 
L 564.649975 -276.111683 
L 562.217431 -273.768288 
L 559.793897 -250.304102 
L 557.373365 -254.37268 
L 554.943825 -253.694583 
L 552.51128 -253.694583 
L 550.07273 -266.859289 
L 547.62517 -265.61944 
L 545.156589 -264.447742 
L 542.694013 -252.338391 
L 540.279488 -256.639654 
L 537.846944 -254.489022 
L 535.390375 -258.441257 
L 532.954828 -259.681107 
L 530.513274 -250.536788 
L 528.092743 -253.810926 
L 525.660199 -253.016487 
L 523.236664 -257.085065 
L 520.777092 -297.241803 
L 518.320523 -331.946003 
L 515.881973 -317.349015 
L 513.401378 -262.509835 
L 510.962828 -250.653131 
L 508.548303 -271.605963 
L 506.115759 -251.098541 
L 503.686218 -254.508984 
L 501.247668 -256.988683 
L 498.734039 -271.501313 
L 496.283476 -249.064252 
L 493.868951 -250.653131 
L 491.463435 -251.89298 
L 489.027888 -251.098541 
L 486.598347 -251.89298 
L 484.183822 -250.420445 
L 481.697221 -258.364837 
L 479.054457 -264.447742 
L 476.639932 -253.694583 
L 474.22841 -252.338391 
L 471.807879 -252.348299 
L 469.384344 -249.180595 
L 466.957806 -251.776637 
L 464.531268 -249.626006 
L 462.119746 -251.660294 
L 459.699215 -251.660294 
L 457.27568 -250.982198 
L 454.852146 -251.89298 
L 452.419602 -257.879504 
L 449.987058 -256.147693 
L 447.548507 -262.300246 
L 445.094941 -267.509156 
L 442.587319 -280.603712 
L 440.058674 -283.803283 
L 437.478976 -270.996019 
L 435.061448 -265.900316 
L 432.640917 -252.125666 
L 430.199363 -252.358352 
L 427.775829 -251.912942 
L 425.346288 -251.563913 
L 422.892722 -258.531011 
L 420.403118 -281.000285 
L 417.820417 -263.885989 
L 415.390876 -248.947909 
L 412.982357 -251.660294 
L 410.558823 -256.406968 
L 408.111263 -255.728872 
L 405.687728 -250.982198 
L 403.267197 -250.420445 
L 400.855675 -251.214884 
L 398.435143 -255.961558 
L 396.005602 -250.091377 
L 393.59408 -254.508984 
L 391.194571 -256.466852 
L 388.792058 -255.728872 
L 386.359514 -260.591889 
L 383.860901 -267.372852 
L 381.356282 -272.013091 
L 378.842653 -272.797622 
L 376.368065 -253.13283 
L 373.935521 -253.927269 
L 371.490964 -251.776637 
L 369.049411 -253.491767 
L 366.604854 -255.63249 
L 364.190329 -250.304102 
L 361.757785 -254.159955 
L 359.358276 -249.645967 
L 356.958766 -249.626006 
L 354.538235 -255.820843 
L 352.111697 -254.489022 
L 349.66714 -255.961558 
L 347.261625 -252.687419 
L 344.829081 -255.728872 
L 342.384524 -257.31775 
L 339.930958 -267.605538 
L 337.387298 -293.53773 
L 334.864659 -249.858691 
L 332.456141 -250.304102 
L 330.038612 -270.085237 
L 327.621084 -308.504039 
L 325.206559 -350.507726 
L 322.771012 -251.660294 
L 320.335464 -253.694583 
L 317.908927 -251.660294 
L 315.488395 -255.399805 
L 313.046842 -248.947909 
L 310.602285 -251.495761 
L 308.157729 -251.680256 
L 305.698156 -252.571077 
L 303.247593 -256.775958 
L 300.779012 -251.44757 
L 298.238355 -253.249173 
L 295.658657 -254.382588 
L 293.099981 -251.214884 
L 290.628396 -258.441257 
L 288.108761 -261.619014 
L 285.583119 -263.023397 
L 283.123547 -255.63249 
L 280.645956 -273.892899 
L 277.844026 -313.909936 
L 274.741781 -298.376375 
L 272.282209 -259.058051 
L 269.867684 -261.917881 
L 267.441146 -262.456248 
L 265.014608 -258.045678 
L 262.59708 -258.868346 
L 260.170542 -265.843857 
L 257.750011 -259.652877 
L 255.344495 -261.281534 
L 253.005048 -268.252056 
L 250.773715 -262.25056 
L 248.365196 -252.591038 
L 245.956677 -256.584835 
L 243.758378 -257.90289 
L 241.346856 -257.429683 
L 238.959359 -256.021442 
L 236.634928 -261.624079 
L 234.292478 -253.385477 
L 231.871947 -266.927441 
L 229.454418 -254.605365 
L 227.051906 -253.365516 
L 224.640384 -250.304102 
L 222.228862 -253.13283 
L 219.820343 -251.563913 
L 217.414827 -253.927269 
L 215.009311 -255.516148 
L 212.594786 -256.523311 
L 210.168248 -255.845215 
L 207.762733 -250.304102 
L 205.354214 -258.673943 
L 202.942692 -255.728872 
L 200.525163 -254.091803 
L 198.110638 -252.571077 
L 195.696113 -258.790286 
L 193.278585 -254.625327 
L 190.870066 -254.159955 
L 188.446531 -251.098541 
L 186.041015 -253.341144 
L 183.632497 -255.845215 
L 181.214968 -256.639654 
L 178.806449 -255.331652 
L 176.379912 -260.61185 
L 173.965386 -256.077901 
L 171.556868 -259.245605 
L 169.139339 -261.619014 
L 166.733823 -262.481605 
L 164.334314 -267.489195 
L 161.919789 -264.050522 
L 159.493251 -264.786718 
L 157.081729 -272.793212 
L 154.667204 -270.889584 
L 152.237663 -272.65305 
L 149.802116 -273.166612 
L 147.363565 -278.290544 
L 144.937028 -299.965254 
L 142.501481 -296.5409 
L 140.065933 -314.8495 
L 137.594349 -308.326682 
L 135.119761 -319.694051 
L 132.654182 -323.340629 
L 130.113525 -346.984584 
L 127.58488 -352.583941 
L 125.023201 -372.949057 
L 122.104148 -379.085099 
L 119.095001 -384.555128 
L 116.061829 -385.509691 
L 112.93556 -385.40131 
L 109.794274 -384.187998 
L 106.69203 -388.284542 
L 103.676877 -385.592111 
L 100.700764 -381.266324 
L 97.883818 -353.713157 
L 95.0939 -371.625269 
L 92.159832 -378.867201 
L 89.32787 -383.551177 
L 86.561977 -373.411141 
L 83.715 -380.69169 
z
" style="stroke: #0000ff; stroke-opacity: 0.2"/>
    </defs>
    <g clip-path="url(#p95f56af51a)">
     <use xlink:href="#m78b720d222" x="0" y="432" style="fill: #0000ff; fill-opacity: 0.2; stroke: #0000ff; stroke-opacity: 0.2"/>
    </g>
   </g>
   <g id="FillBetweenPolyCollection_2">
    <defs>
     <path id="mf6ac30c1c5" d="M 83.766053 -389.087568 
L 83.766053 -100.149264 
L 86.576993 -70.902783 
L 89.37592 -98.468269 
L 92.111782 -88.921768 
L 94.904703 -78.228129 
L 97.676601 -91.004537 
L 100.466519 -93.462645 
L 103.310494 -91.96255 
L 106.049358 -88.238345 
L 108.899338 -104.59443 
L 111.737307 -97.759064 
L 114.512209 -90.23447 
L 117.254076 -93.06539 
L 120.104057 -100.739375 
L 122.963047 -103.050844 
L 125.852068 -99.760195 
L 128.702049 -115.887841 
L 131.467941 -103.519504 
L 134.317922 -98.240556 
L 137.191928 -86.525934 
L 140.092962 -84.97052 
L 142.882879 -99.092397 
L 145.663788 -85.899896 
L 148.573831 -95.65732 
L 151.441831 -86.333741 
L 154.30983 -99.76582 
L 157.042688 -65.558375 
L 159.919697 -108.59471 
L 162.700605 -85.520708 
L 165.526561 -98.617696 
L 168.334497 -84.788608 
L 171.178472 -105.164859 
L 173.947368 -93.886011 
L 176.653197 -81.445247 
L 179.638319 -112.290006 
L 182.464275 -80.469492 
L 185.302243 -105.986712 
L 188.086154 -82.421318 
L 190.837031 -99.548005 
L 193.635958 -74.105021 
L 196.497952 -86.112449 
L 199.32691 -97.526676 
L 202.101812 -109.491564 
L 204.975818 -110.053335 
L 207.792764 -94.370384 
L 210.645748 -81.069664 
L 213.495728 -97.179559 
L 216.37574 -100.913426 
L 219.297796 -97.141114 
L 222.09372 -104.782375 
L 224.985745 -86.14181 
L 227.775663 -102.341366 
L 230.643662 -86.853388 
L 233.463611 -95.284661 
L 236.460746 -90.466792 
L 239.229642 -92.347398 
L 242.094638 -105.092849 
L 245.052732 -114.558401 
L 247.911722 -87.829271 
L 250.707646 -93.149961 
L 253.527595 -94.577321 
L 256.311506 -89.647691 
L 259.020339 -89.209581 
L 261.888339 -95.764715 
L 264.816401 -109.05924 
L 267.669385 -85.060733 
L 270.576425 -104.983108 
L 273.339315 -103.367676 
L 276.168273 -81.904551 
L 278.916147 -86.438137 
L 281.748109 -98.975256 
L 284.568058 -100.670815 
L 287.43906 -93.566343 
L 290.207956 -90.03033 
L 293.018896 -100.078929 
L 295.874883 -85.359182 
L 298.691829 -106.819724 
L 301.58085 -79.352596 
L 304.394793 -100.959416 
L 307.205733 -94.014608 
L 310.127789 -120.893265 
L 313.034829 -118.046886 
L 315.890816 -88.67163 
L 318.731787 -124.178986 
L 321.608796 -97.501173 
L 324.476796 -82.365657 
L 327.314764 -88.602881 
L 330.197779 -111.529728 
L 332.978687 -94.001394 
L 335.804643 -100.35372 
L 338.636604 -88.176651 
L 341.414509 -73.215712 
L 344.228452 -113.007065 
L 347.006358 -81.229669 
L 349.937423 -120.981914 
L 352.778394 -87.148711 
L 355.613359 -78.400879 
L 358.343214 -72.666112 
L 361.211213 -107.434578 
L 363.91404 -70.001151 
L 366.72498 -84.423375 
L 369.671061 -104.822577 
L 372.469988 -90.235601 
L 375.283931 -73.826744 
L 378.067843 -107.498473 
L 380.926833 -74.223175 
L 383.674706 -95.168129 
L 386.506668 -86.280985 
L 389.359652 -90.427768 
L 392.251676 -122.281537 
L 395.038591 -69.69966 
L 397.76244 -97.140606 
L 400.558364 -82.943369 
L 403.336269 -82.253435 
L 405.961014 -91.402173 
L 408.78697 -107.302159 
L 411.612925 -100.233427 
L 414.450893 -91.931738 
L 417.348924 -93.462544 
L 420.183889 -78.180898 
L 422.994828 -95.643672 
L 425.94091 -114.304097 
L 428.805906 -93.784303 
L 431.598827 -104.415432 
L 434.454814 -109.707086 
L 437.190675 -90.400253 
L 439.944555 -104.335587 
L 442.67441 -59.164623 
L 445.509375 -93.545769 
L 448.236227 -83.296453 
L 450.972088 -97.647828 
L 453.759003 -98.159606 
L 456.620996 -110.895965 
L 459.431935 -97.124476 
L 462.302938 -106.253398 
L 465.167934 -75.938585 
L 468.035934 -93.059502 
L 470.870899 -92.499524 
L 473.732892 -112.355585 
L 476.507794 -91.003766 
L 479.252665 -86.799393 
L 482.012551 -76.721984 
L 484.769434 -92.093892 
L 487.568361 -84.116368 
L 490.352273 -88.029623 
L 493.09414 -92.287207 
L 495.878052 -83.034433 
L 498.710014 -92.842792 
L 501.406834 -102.396133 
L 504.22378 -77.909071 
L 507.088776 -93.211102 
L 509.851666 -100.288059 
L 512.602543 -114.455145 
L 515.45853 -114.132961 
L 518.380586 -104.346991 
L 521.161494 -79.403014 
L 524.050515 -97.987892 
L 526.843436 -87.56284 
L 529.60032 -92.945342 
L 532.378225 -90.765437 
L 535.192168 -79.18886 
L 537.994098 -90.021364 
L 540.796028 -80.461929 
L 543.492849 -99.95045 
L 546.279763 -75.375292 
L 549.156772 -97.507666 
L 552.033781 -109.408703 
L 554.928809 -100.337907 
L 557.676683 -95.067907 
L 560.607748 -97.912431 
L 563.397666 -100.670034 
L 566.190587 -100.241771 
L 568.956479 -94.25925 
L 571.683331 -97.821012 
L 574.449224 -74.128288 
L 577.233135 -95.907485 
L 580.053084 -94.736791 
L 582.903065 -101.289869 
L 585.747039 -90.339554 
L 588.579001 -98.955729 
L 591.486041 -89.556926 
L 594.239921 -75.16035 
L 597.035846 -108.505374 
L 599.918861 -99.886166 
L 602.693763 -100.313697 
L 605.606809 -101.742579 
L 608.432765 -128.931693 
L 611.324789 -116.734255 
L 614.267867 -100.423828 
L 617.078807 -119.489842 
L 619.799653 -87.785074 
L 622.64663 -94.982248 
L 625.481595 -89.41401 
L 628.328572 -87.986198 
L 631.019386 -88.984567 
L 633.863361 -97.472526 
L 636.662288 -92.461404 
L 639.509265 -98.238381 
L 642.377265 -87.05741 
L 645.16418 -73.814372 
L 647.969113 -97.648933 
L 650.885163 -111.154425 
L 653.624027 -84.166317 
L 656.446979 -91.334403 
L 659.411079 -85.385916 
L 662.258057 -92.473767 
L 665.144075 -117.369251 
L 668.024087 -120.914857 
L 670.871065 -93.601277 
L 673.675998 -80.180584 
L 676.519972 -85.891355 
L 679.415 -108.658452 
L 679.415 -382.26364 
L 679.415 -382.26364 
L 676.519972 -376.94307 
L 673.675998 -368.048254 
L 670.871065 -383.276982 
L 668.024087 -402.027177 
L 665.144075 -380.293882 
L 662.258057 -379.910465 
L 659.411079 -390.368836 
L 656.446979 -384.420349 
L 653.624027 -380.353368 
L 650.885163 -397.182021 
L 647.969113 -384.846859 
L 645.16418 -369.920439 
L 642.377265 -387.573835 
L 639.509265 -399.986505 
L 636.662288 -386.102115 
L 633.863361 -393.449566 
L 631.019386 -390.702458 
L 628.328572 -372.03946 
L 625.481595 -380.723208 
L 622.64663 -385.828284 
L 619.799653 -373.925844 
L 617.078807 -397.272905 
L 614.267867 -389.936512 
L 611.324789 -389.355178 
L 608.432765 -388.392807 
L 605.606809 -381.314966 
L 602.693763 -390.608396 
L 599.918861 -376.430339 
L 597.035846 -388.596005 
L 594.239921 -367.450954 
L 591.486041 -387.321333 
L 588.579001 -384.66357 
L 585.747039 -392.156238 
L 582.903065 -389.632223 
L 580.053084 -391.129521 
L 577.233135 -394.452854 
L 574.449224 -391.514904 
L 571.683331 -372.877959 
L 568.956479 -381.495502 
L 566.190587 -378.883501 
L 563.397666 -396.431345 
L 560.607748 -372.224787 
L 557.676683 -385.180872 
L 554.928809 -385.528406 
L 552.033781 -382.075143 
L 549.156772 -385.549879 
L 546.279763 -385.212119 
L 543.492849 -388.162875 
L 540.796028 -376.754962 
L 537.994098 -372.251307 
L 535.192168 -377.466278 
L 532.378225 -388.921588 
L 529.60032 -386.17993 
L 526.843436 -383.136131 
L 524.050515 -377.76686 
L 521.161494 -380.06089 
L 518.380586 -390.507375 
L 515.45853 -390.832966 
L 512.602543 -395.566562 
L 509.851666 -385.578254 
L 507.088776 -386.475923 
L 504.22378 -376.499054 
L 501.406834 -394.143493 
L 498.710014 -380.664946 
L 495.878052 -379.238239 
L 493.09414 -382.344038 
L 490.352273 -382.107595 
L 487.568361 -380.96507 
L 484.769434 -376.358067 
L 482.012551 -387.797701 
L 479.252665 -386.708346 
L 476.507794 -379.695206 
L 473.732892 -393.172095 
L 470.870899 -382.693474 
L 468.035934 -387.189277 
L 465.167934 -376.222526 
L 462.302938 -382.421681 
L 459.431935 -395.482877 
L 456.620996 -387.328921 
L 453.759003 -397.818267 
L 450.972088 -385.971471 
L 448.236227 -382.346739 
L 445.509375 -382.770736 
L 442.67441 -381.761422 
L 439.944555 -398.383326 
L 437.190675 -384.792746 
L 434.454814 -384.023773 
L 431.598827 -382.574386 
L 428.805906 -376.914669 
L 425.94091 -385.606049 
L 422.994828 -386.85212 
L 420.183889 -379.597746 
L 417.348924 -382.853961 
L 414.450893 -396.181588 
L 411.612925 -395.744446 
L 408.78697 -383.05818 
L 405.961014 -379.296799 
L 403.336269 -383.389757 
L 400.558364 -366.970729 
L 397.76244 -375.80538 
L 395.038591 -378.529178 
L 392.251676 -389.987183 
L 389.359652 -385.326984 
L 386.506668 -391.72078 
L 383.674706 -385.08065 
L 380.926833 -365.579362 
L 378.067843 -391.84992 
L 375.283931 -381.143134 
L 372.469988 -375.969344 
L 369.671061 -390.031788 
L 366.72498 -379.534557 
L 363.91404 -373.73366 
L 361.211213 -384.049268 
L 358.343214 -391.853573 
L 355.613359 -374.883739 
L 352.778394 -379.056234 
L 349.937423 -381.736999 
L 347.006358 -369.807935 
L 344.228452 -388.026588 
L 341.414509 -388.495206 
L 338.636604 -381.398814 
L 335.804643 -382.142072 
L 332.978687 -386.247385 
L 330.197779 -390.627431 
L 327.314764 -374.231544 
L 324.476796 -372.604221 
L 321.608796 -382.185852 
L 318.731787 -403.257074 
L 315.890816 -369.107015 
L 313.034829 -399.277614 
L 310.127789 -396.992988 
L 307.205733 -391.289951 
L 304.394793 -385.46865 
L 301.58085 -382.358322 
L 298.691829 -393.090422 
L 295.874883 -377.475243 
L 293.018896 -382.978616 
L 290.207956 -378.421629 
L 287.43906 -384.435422 
L 284.568058 -384.071991 
L 281.748109 -389.13807 
L 278.916147 -374.711028 
L 276.168273 -382.615134 
L 273.339315 -381.37513 
L 270.576425 -388.747751 
L 267.669385 -382.829472 
L 264.816401 -392.536166 
L 261.888339 -385.045818 
L 259.020339 -376.995364 
L 256.311506 -387.792321 
L 253.527595 -393.536004 
L 250.707646 -384.851805 
L 247.911722 -390.734248 
L 245.052732 -378.610704 
L 242.094638 -394.255544 
L 239.229642 -373.295794 
L 236.460746 -381.91744 
L 233.463611 -379.346585 
L 230.643662 -386.092597 
L 227.775663 -388.018973 
L 224.985745 -382.310148 
L 222.09372 -384.454457 
L 219.297796 -377.490131 
L 216.37574 -390.57042 
L 213.495728 -385.316234 
L 210.645748 -381.203008 
L 207.792764 -380.260861 
L 204.975818 -386.486291 
L 202.101812 -377.498255 
L 199.32691 -370.925282 
L 196.497952 -388.518796 
L 193.635958 -389.852911 
L 190.837031 -379.577267 
L 188.086154 -387.7159 
L 185.302243 -397.293954 
L 182.464275 -372.253373 
L 179.638319 -397.731701 
L 176.653197 -388.130218 
L 173.947368 -388.609781 
L 171.178472 -396.992301 
L 168.334497 -367.934257 
L 165.526561 -376.575302 
L 162.700605 -384.61651 
L 159.919697 -389.068422 
L 157.042688 -379.861696 
L 154.30983 -374.865425 
L 151.441831 -375.938931 
L 148.573831 -383.467952 
L 145.663788 -372.440502 
L 142.882879 -384.526902 
L 140.092962 -381.796178 
L 137.191928 -384.734791 
L 134.317922 -380.884716 
L 131.467941 -378.976288 
L 128.702049 -393.572112 
L 125.852068 -391.161898 
L 122.963047 -384.500728 
L 120.104057 -384.003431 
L 117.254076 -375.948322 
L 114.512209 -387.767296 
L 111.737307 -384.174975 
L 108.899338 -384.642403 
L 106.049358 -382.460626 
L 103.310494 -384.915708 
L 100.466519 -382.292107 
L 97.676601 -386.435475 
L 94.904703 -379.550515 
L 92.111782 -390.765257 
L 89.37592 -394.700836 
L 86.576993 -375.640795 
L 83.766053 -389.087568 
z
" style="stroke: #ffa500; stroke-opacity: 0.2"/>
    </defs>
    <g clip-path="url(#p95f56af51a)">
     <use xlink:href="#mf6ac30c1c5" x="0" y="432" style="fill: #ffa500; fill-opacity: 0.2; stroke: #ffa500; stroke-opacity: 0.2"/>
    </g>
   </g>
   <g id="matplotlib.axis_1">
    <g id="xtick_1">
     <g id="line2d_1">
      <path d="M 82.35758 390.04 
L 82.35758 11.538303 
" clip-path="url(#p95f56af51a)" style="fill: none; stroke: #b0b0b0; stroke-width: 0.8; stroke-linecap: square"/>
     </g>
     <g id="line2d_2">
      <defs>
       <path id="md5dfa90e7d" d="M 0 0 
L 0 3.5 
" style="stroke: #000000; stroke-width: 0.8"/>
      </defs>
      <g>
       <use xlink:href="#md5dfa90e7d" x="82.35758" y="390.04" style="stroke: #000000; stroke-width: 0.8"/>
      </g>
     </g>
     <g id="text_1">
      <!-- 0 -->
      <g transform="translate(79.17633 404.638438) scale(0.1 -0.1)">
       <defs>
        <path id="DejaVuSans-30" d="M 2034 4250 
Q 1547 4250 1301 3770 
Q 1056 3291 1056 2328 
Q 1056 1369 1301 889 
Q 1547 409 2034 409 
Q 2525 409 2770 889 
Q 3016 1369 3016 2328 
Q 3016 3291 2770 3770 
Q 2525 4250 2034 4250 
z
M 2034 4750 
Q 2819 4750 3233 4129 
Q 3647 3509 3647 2328 
Q 3647 1150 3233 529 
Q 2819 -91 2034 -91 
Q 1250 -91 836 529 
Q 422 1150 422 2328 
Q 422 3509 836 4129 
Q 1250 4750 2034 4750 
z
" transform="scale(0.015625)"/>
       </defs>
       <use xlink:href="#DejaVuSans-30"/>
      </g>
     </g>
    </g>
    <g id="xtick_2">
     <g id="line2d_3">
      <path d="M 157.4361 390.04 
L 157.4361 11.538303 
" clip-path="url(#p95f56af51a)" style="fill: none; stroke: #b0b0b0; stroke-width: 0.8; stroke-linecap: square"/>
     </g>
     <g id="line2d_4">
      <g>
       <use xlink:href="#md5dfa90e7d" x="157.4361" y="390.04" style="stroke: #000000; stroke-width: 0.8"/>
      </g>
     </g>
     <g id="text_2">
      <!-- 25000 -->
      <g transform="translate(141.52985 404.638438) scale(0.1 -0.1)">
       <defs>
        <path id="DejaVuSans-32" d="M 1228 531 
L 3431 531 
L 3431 0 
L 469 0 
L 469 531 
Q 828 903 1448 1529 
Q 2069 2156 2228 2338 
Q 2531 2678 2651 2914 
Q 2772 3150 2772 3378 
Q 2772 3750 2511 3984 
Q 2250 4219 1831 4219 
Q 1534 4219 1204 4116 
Q 875 4013 500 3803 
L 500 4441 
Q 881 4594 1212 4672 
Q 1544 4750 1819 4750 
Q 2544 4750 2975 4387 
Q 3406 4025 3406 3419 
Q 3406 3131 3298 2873 
Q 3191 2616 2906 2266 
Q 2828 2175 2409 1742 
Q 1991 1309 1228 531 
z
" transform="scale(0.015625)"/>
        <path id="DejaVuSans-35" d="M 691 4666 
L 3169 4666 
L 3169 4134 
L 1269 4134 
L 1269 2991 
Q 1406 3038 1543 3061 
Q 1681 3084 1819 3084 
Q 2600 3084 3056 2656 
Q 3513 2228 3513 1497 
Q 3513 744 3044 326 
Q 2575 -91 1722 -91 
Q 1428 -91 1123 -41 
Q 819 9 494 109 
L 494 744 
Q 775 591 1075 516 
Q 1375 441 1709 441 
Q 2250 441 2565 725 
Q 2881 1009 2881 1497 
Q 2881 1984 2565 2268 
Q 2250 2553 1709 2553 
Q 1456 2553 1204 2497 
Q 953 2441 691 2322 
L 691 4666 
z
" transform="scale(0.015625)"/>
       </defs>
       <use xlink:href="#DejaVuSans-32"/>
       <use xlink:href="#DejaVuSans-35" transform="translate(63.623047 0)"/>
       <use xlink:href="#DejaVuSans-30" transform="translate(127.246094 0)"/>
       <use xlink:href="#DejaVuSans-30" transform="translate(190.869141 0)"/>
       <use xlink:href="#DejaVuSans-30" transform="translate(254.492188 0)"/>
      </g>
     </g>
    </g>
    <g id="xtick_3">
     <g id="line2d_5">
      <path d="M 232.514619 390.04 
L 232.514619 11.538303 
" clip-path="url(#p95f56af51a)" style="fill: none; stroke: #b0b0b0; stroke-width: 0.8; stroke-linecap: square"/>
     </g>
     <g id="line2d_6">
      <g>
       <use xlink:href="#md5dfa90e7d" x="232.514619" y="390.04" style="stroke: #000000; stroke-width: 0.8"/>
      </g>
     </g>
     <g id="text_3">
      <!-- 50000 -->
      <g transform="translate(216.608369 404.638438) scale(0.1 -0.1)">
       <use xlink:href="#DejaVuSans-35"/>
       <use xlink:href="#DejaVuSans-30" transform="translate(63.623047 0)"/>
       <use xlink:href="#DejaVuSans-30" transform="translate(127.246094 0)"/>
       <use xlink:href="#DejaVuSans-30" transform="translate(190.869141 0)"/>
       <use xlink:href="#DejaVuSans-30" transform="translate(254.492188 0)"/>
      </g>
     </g>
    </g>
    <g id="xtick_4">
     <g id="line2d_7">
      <path d="M 307.593138 390.04 
L 307.593138 11.538303 
" clip-path="url(#p95f56af51a)" style="fill: none; stroke: #b0b0b0; stroke-width: 0.8; stroke-linecap: square"/>
     </g>
     <g id="line2d_8">
      <g>
       <use xlink:href="#md5dfa90e7d" x="307.593138" y="390.04" style="stroke: #000000; stroke-width: 0.8"/>
      </g>
     </g>
     <g id="text_4">
      <!-- 75000 -->
      <g transform="translate(291.686888 404.638438) scale(0.1 -0.1)">
       <defs>
        <path id="DejaVuSans-37" d="M 525 4666 
L 3525 4666 
L 3525 4397 
L 1831 0 
L 1172 0 
L 2766 4134 
L 525 4134 
L 525 4666 
z
" transform="scale(0.015625)"/>
       </defs>
       <use xlink:href="#DejaVuSans-37"/>
       <use xlink:href="#DejaVuSans-35" transform="translate(63.623047 0)"/>
       <use xlink:href="#DejaVuSans-30" transform="translate(127.246094 0)"/>
       <use xlink:href="#DejaVuSans-30" transform="translate(190.869141 0)"/>
       <use xlink:href="#DejaVuSans-30" transform="translate(254.492188 0)"/>
      </g>
     </g>
    </g>
    <g id="xtick_5">
     <g id="line2d_9">
      <path d="M 382.671657 390.04 
L 382.671657 11.538303 
" clip-path="url(#p95f56af51a)" style="fill: none; stroke: #b0b0b0; stroke-width: 0.8; stroke-linecap: square"/>
     </g>
     <g id="line2d_10">
      <g>
       <use xlink:href="#md5dfa90e7d" x="382.671657" y="390.04" style="stroke: #000000; stroke-width: 0.8"/>
      </g>
     </g>
     <g id="text_5">
      <!-- 100000 -->
      <g transform="translate(363.584157 404.638438) scale(0.1 -0.1)">
       <defs>
        <path id="DejaVuSans-31" d="M 794 531 
L 1825 531 
L 1825 4091 
L 703 3866 
L 703 4441 
L 1819 4666 
L 2450 4666 
L 2450 531 
L 3481 531 
L 3481 0 
L 794 0 
L 794 531 
z
" transform="scale(0.015625)"/>
       </defs>
       <use xlink:href="#DejaVuSans-31"/>
       <use xlink:href="#DejaVuSans-30" transform="translate(63.623047 0)"/>
       <use xlink:href="#DejaVuSans-30" transform="translate(127.246094 0)"/>
       <use xlink:href="#DejaVuSans-30" transform="translate(190.869141 0)"/>
       <use xlink:href="#DejaVuSans-30" transform="translate(254.492188 0)"/>
       <use xlink:href="#DejaVuSans-30" transform="translate(318.115234 0)"/>
      </g>
     </g>
    </g>
    <g id="xtick_6">
     <g id="line2d_11">
      <path d="M 457.750177 390.04 
L 457.750177 11.538303 
" clip-path="url(#p95f56af51a)" style="fill: none; stroke: #b0b0b0; stroke-width: 0.8; stroke-linecap: square"/>
     </g>
     <g id="line2d_12">
      <g>
       <use xlink:href="#md5dfa90e7d" x="457.750177" y="390.04" style="stroke: #000000; stroke-width: 0.8"/>
      </g>
     </g>
     <g id="text_6">
      <!-- 125000 -->
      <g transform="translate(438.662677 404.638438) scale(0.1 -0.1)">
       <use xlink:href="#DejaVuSans-31"/>
       <use xlink:href="#DejaVuSans-32" transform="translate(63.623047 0)"/>
       <use xlink:href="#DejaVuSans-35" transform="translate(127.246094 0)"/>
       <use xlink:href="#DejaVuSans-30" transform="translate(190.869141 0)"/>
       <use xlink:href="#DejaVuSans-30" transform="translate(254.492188 0)"/>
       <use xlink:href="#DejaVuSans-30" transform="translate(318.115234 0)"/>
      </g>
     </g>
    </g>
    <g id="xtick_7">
     <g id="line2d_13">
      <path d="M 532.828696 390.04 
L 532.828696 11.538303 
" clip-path="url(#p95f56af51a)" style="fill: none; stroke: #b0b0b0; stroke-width: 0.8; stroke-linecap: square"/>
     </g>
     <g id="line2d_14">
      <g>
       <use xlink:href="#md5dfa90e7d" x="532.828696" y="390.04" style="stroke: #000000; stroke-width: 0.8"/>
      </g>
     </g>
     <g id="text_7">
      <!-- 150000 -->
      <g transform="translate(513.741196 404.638438) scale(0.1 -0.1)">
       <use xlink:href="#DejaVuSans-31"/>
       <use xlink:href="#DejaVuSans-35" transform="translate(63.623047 0)"/>
       <use xlink:href="#DejaVuSans-30" transform="translate(127.246094 0)"/>
       <use xlink:href="#DejaVuSans-30" transform="translate(190.869141 0)"/>
       <use xlink:href="#DejaVuSans-30" transform="translate(254.492188 0)"/>
       <use xlink:href="#DejaVuSans-30" transform="translate(318.115234 0)"/>
      </g>
     </g>
    </g>
    <g id="xtick_8">
     <g id="line2d_15">
      <path d="M 607.907215 390.04 
L 607.907215 11.538303 
" clip-path="url(#p95f56af51a)" style="fill: none; stroke: #b0b0b0; stroke-width: 0.8; stroke-linecap: square"/>
     </g>
     <g id="line2d_16">
      <g>
       <use xlink:href="#md5dfa90e7d" x="607.907215" y="390.04" style="stroke: #000000; stroke-width: 0.8"/>
      </g>
     </g>
     <g id="text_8">
      <!-- 175000 -->
      <g transform="translate(588.819715 404.638438) scale(0.1 -0.1)">
       <use xlink:href="#DejaVuSans-31"/>
       <use xlink:href="#DejaVuSans-37" transform="translate(63.623047 0)"/>
       <use xlink:href="#DejaVuSans-35" transform="translate(127.246094 0)"/>
       <use xlink:href="#DejaVuSans-30" transform="translate(190.869141 0)"/>
       <use xlink:href="#DejaVuSans-30" transform="translate(254.492188 0)"/>
       <use xlink:href="#DejaVuSans-30" transform="translate(318.115234 0)"/>
      </g>
     </g>
    </g>
    <g id="xtick_9">
     <g id="line2d_17">
      <path d="M 682.985734 390.04 
L 682.985734 11.538303 
" clip-path="url(#p95f56af51a)" style="fill: none; stroke: #b0b0b0; stroke-width: 0.8; stroke-linecap: square"/>
     </g>
     <g id="line2d_18">
      <g>
       <use xlink:href="#md5dfa90e7d" x="682.985734" y="390.04" style="stroke: #000000; stroke-width: 0.8"/>
      </g>
     </g>
     <g id="text_9">
      <!-- 200000 -->
      <g transform="translate(663.898234 404.638438) scale(0.1 -0.1)">
       <use xlink:href="#DejaVuSans-32"/>
       <use xlink:href="#DejaVuSans-30" transform="translate(63.623047 0)"/>
       <use xlink:href="#DejaVuSans-30" transform="translate(127.246094 0)"/>
       <use xlink:href="#DejaVuSans-30" transform="translate(190.869141 0)"/>
       <use xlink:href="#DejaVuSans-30" transform="translate(254.492188 0)"/>
       <use xlink:href="#DejaVuSans-30" transform="translate(318.115234 0)"/>
      </g>
     </g>
    </g>
    <g id="text_10">
     <!-- Steps -->
     <g transform="translate(367.575156 418.316562) scale(0.1 -0.1)">
      <defs>
       <path id="DejaVuSans-53" d="M 3425 4513 
L 3425 3897 
Q 3066 4069 2747 4153 
Q 2428 4238 2131 4238 
Q 1616 4238 1336 4038 
Q 1056 3838 1056 3469 
Q 1056 3159 1242 3001 
Q 1428 2844 1947 2747 
L 2328 2669 
Q 3034 2534 3370 2195 
Q 3706 1856 3706 1288 
Q 3706 609 3251 259 
Q 2797 -91 1919 -91 
Q 1588 -91 1214 -16 
Q 841 59 441 206 
L 441 856 
Q 825 641 1194 531 
Q 1563 422 1919 422 
Q 2459 422 2753 634 
Q 3047 847 3047 1241 
Q 3047 1584 2836 1778 
Q 2625 1972 2144 2069 
L 1759 2144 
Q 1053 2284 737 2584 
Q 422 2884 422 3419 
Q 422 4038 858 4394 
Q 1294 4750 2059 4750 
Q 2388 4750 2728 4690 
Q 3069 4631 3425 4513 
z
" transform="scale(0.015625)"/>
       <path id="DejaVuSans-74" d="M 1172 4494 
L 1172 3500 
L 2356 3500 
L 2356 3053 
L 1172 3053 
L 1172 1153 
Q 1172 725 1289 603 
Q 1406 481 1766 481 
L 2356 481 
L 2356 0 
L 1766 0 
Q 1100 0 847 248 
Q 594 497 594 1153 
L 594 3053 
L 172 3053 
L 172 3500 
L 594 3500 
L 594 4494 
L 1172 4494 
z
" transform="scale(0.015625)"/>
       <path id="DejaVuSans-65" d="M 3597 1894 
L 3597 1613 
L 953 1613 
Q 991 1019 1311 708 
Q 1631 397 2203 397 
Q 2534 397 2845 478 
Q 3156 559 3463 722 
L 3463 178 
Q 3153 47 2828 -22 
Q 2503 -91 2169 -91 
Q 1331 -91 842 396 
Q 353 884 353 1716 
Q 353 2575 817 3079 
Q 1281 3584 2069 3584 
Q 2775 3584 3186 3129 
Q 3597 2675 3597 1894 
z
M 3022 2063 
Q 3016 2534 2758 2815 
Q 2500 3097 2075 3097 
Q 1594 3097 1305 2825 
Q 1016 2553 972 2059 
L 3022 2063 
z
" transform="scale(0.015625)"/>
       <path id="DejaVuSans-70" d="M 1159 525 
L 1159 -1331 
L 581 -1331 
L 581 3500 
L 1159 3500 
L 1159 2969 
Q 1341 3281 1617 3432 
Q 1894 3584 2278 3584 
Q 2916 3584 3314 3078 
Q 3713 2572 3713 1747 
Q 3713 922 3314 415 
Q 2916 -91 2278 -91 
Q 1894 -91 1617 61 
Q 1341 213 1159 525 
z
M 3116 1747 
Q 3116 2381 2855 2742 
Q 2594 3103 2138 3103 
Q 1681 3103 1420 2742 
Q 1159 2381 1159 1747 
Q 1159 1113 1420 752 
Q 1681 391 2138 391 
Q 2594 391 2855 752 
Q 3116 1113 3116 1747 
z
" transform="scale(0.015625)"/>
       <path id="DejaVuSans-73" d="M 2834 3397 
L 2834 2853 
Q 2591 2978 2328 3040 
Q 2066 3103 1784 3103 
Q 1356 3103 1142 2972 
Q 928 2841 928 2578 
Q 928 2378 1081 2264 
Q 1234 2150 1697 2047 
L 1894 2003 
Q 2506 1872 2764 1633 
Q 3022 1394 3022 966 
Q 3022 478 2636 193 
Q 2250 -91 1575 -91 
Q 1294 -91 989 -36 
Q 684 19 347 128 
L 347 722 
Q 666 556 975 473 
Q 1284 391 1588 391 
Q 1994 391 2212 530 
Q 2431 669 2431 922 
Q 2431 1156 2273 1281 
Q 2116 1406 1581 1522 
L 1381 1569 
Q 847 1681 609 1914 
Q 372 2147 372 2553 
Q 372 3047 722 3315 
Q 1072 3584 1716 3584 
Q 2034 3584 2315 3537 
Q 2597 3491 2834 3397 
z
" transform="scale(0.015625)"/>
      </defs>
      <use xlink:href="#DejaVuSans-53"/>
      <use xlink:href="#DejaVuSans-74" transform="translate(63.476562 0)"/>
      <use xlink:href="#DejaVuSans-65" transform="translate(102.685547 0)"/>
      <use xlink:href="#DejaVuSans-70" transform="translate(164.208984 0)"/>
      <use xlink:href="#DejaVuSans-73" transform="translate(227.685547 0)"/>
     </g>
    </g>
   </g>
   <g id="matplotlib.axis_2">
    <g id="ytick_1">
     <g id="line2d_19">
      <path d="M 53.93 352.256193 
L 709.2 352.256193 
" clip-path="url(#p95f56af51a)" style="fill: none; stroke: #b0b0b0; stroke-width: 0.8; stroke-linecap: square"/>
     </g>
     <g id="line2d_20">
      <defs>
       <path id="m1bc33e3b5e" d="M 0 0 
L -3.5 0 
" style="stroke: #000000; stroke-width: 0.8"/>
      </defs>
      <g>
       <use xlink:href="#m1bc33e3b5e" x="53.93" y="352.256193" style="stroke: #000000; stroke-width: 0.8"/>
      </g>
     </g>
     <g id="text_11">
      <!-- 2.00 -->
      <g transform="translate(24.664375 356.055411) scale(0.1 -0.1)">
       <defs>
        <path id="DejaVuSans-2e" d="M 684 794 
L 1344 794 
L 1344 0 
L 684 0 
L 684 794 
z
" transform="scale(0.015625)"/>
       </defs>
       <use xlink:href="#DejaVuSans-32"/>
       <use xlink:href="#DejaVuSans-2e" transform="translate(63.623047 0)"/>
       <use xlink:href="#DejaVuSans-30" transform="translate(95.410156 0)"/>
       <use xlink:href="#DejaVuSans-30" transform="translate(159.033203 0)"/>
      </g>
     </g>
    </g>
    <g id="ytick_2">
     <g id="line2d_21">
      <path d="M 53.93 310.124691 
L 709.2 310.124691 
" clip-path="url(#p95f56af51a)" style="fill: none; stroke: #b0b0b0; stroke-width: 0.8; stroke-linecap: square"/>
     </g>
     <g id="line2d_22">
      <g>
       <use xlink:href="#m1bc33e3b5e" x="53.93" y="310.124691" style="stroke: #000000; stroke-width: 0.8"/>
      </g>
     </g>
     <g id="text_12">
      <!-- 2.25 -->
      <g transform="translate(24.664375 313.92391) scale(0.1 -0.1)">
       <use xlink:href="#DejaVuSans-32"/>
       <use xlink:href="#DejaVuSans-2e" transform="translate(63.623047 0)"/>
       <use xlink:href="#DejaVuSans-32" transform="translate(95.410156 0)"/>
       <use xlink:href="#DejaVuSans-35" transform="translate(159.033203 0)"/>
      </g>
     </g>
    </g>
    <g id="ytick_3">
     <g id="line2d_23">
      <path d="M 53.93 267.99319 
L 709.2 267.99319 
" clip-path="url(#p95f56af51a)" style="fill: none; stroke: #b0b0b0; stroke-width: 0.8; stroke-linecap: square"/>
     </g>
     <g id="line2d_24">
      <g>
       <use xlink:href="#m1bc33e3b5e" x="53.93" y="267.99319" style="stroke: #000000; stroke-width: 0.8"/>
      </g>
     </g>
     <g id="text_13">
      <!-- 2.50 -->
      <g transform="translate(24.664375 271.792409) scale(0.1 -0.1)">
       <use xlink:href="#DejaVuSans-32"/>
       <use xlink:href="#DejaVuSans-2e" transform="translate(63.623047 0)"/>
       <use xlink:href="#DejaVuSans-35" transform="translate(95.410156 0)"/>
       <use xlink:href="#DejaVuSans-30" transform="translate(159.033203 0)"/>
      </g>
     </g>
    </g>
    <g id="ytick_4">
     <g id="line2d_25">
      <path d="M 53.93 225.861688 
L 709.2 225.861688 
" clip-path="url(#p95f56af51a)" style="fill: none; stroke: #b0b0b0; stroke-width: 0.8; stroke-linecap: square"/>
     </g>
     <g id="line2d_26">
      <g>
       <use xlink:href="#m1bc33e3b5e" x="53.93" y="225.861688" style="stroke: #000000; stroke-width: 0.8"/>
      </g>
     </g>
     <g id="text_14">
      <!-- 2.75 -->
      <g transform="translate(24.664375 229.660907) scale(0.1 -0.1)">
       <use xlink:href="#DejaVuSans-32"/>
       <use xlink:href="#DejaVuSans-2e" transform="translate(63.623047 0)"/>
       <use xlink:href="#DejaVuSans-37" transform="translate(95.410156 0)"/>
       <use xlink:href="#DejaVuSans-35" transform="translate(159.033203 0)"/>
      </g>
     </g>
    </g>
    <g id="ytick_5">
     <g id="line2d_27">
      <path d="M 53.93 183.730187 
L 709.2 183.730187 
" clip-path="url(#p95f56af51a)" style="fill: none; stroke: #b0b0b0; stroke-width: 0.8; stroke-linecap: square"/>
     </g>
     <g id="line2d_28">
      <g>
       <use xlink:href="#m1bc33e3b5e" x="53.93" y="183.730187" style="stroke: #000000; stroke-width: 0.8"/>
      </g>
     </g>
     <g id="text_15">
      <!-- 3.00 -->
      <g transform="translate(24.664375 187.529406) scale(0.1 -0.1)">
       <defs>
        <path id="DejaVuSans-33" d="M 2597 2516 
Q 3050 2419 3304 2112 
Q 3559 1806 3559 1356 
Q 3559 666 3084 287 
Q 2609 -91 1734 -91 
Q 1441 -91 1130 -33 
Q 819 25 488 141 
L 488 750 
Q 750 597 1062 519 
Q 1375 441 1716 441 
Q 2309 441 2620 675 
Q 2931 909 2931 1356 
Q 2931 1769 2642 2001 
Q 2353 2234 1838 2234 
L 1294 2234 
L 1294 2753 
L 1863 2753 
Q 2328 2753 2575 2939 
Q 2822 3125 2822 3475 
Q 2822 3834 2567 4026 
Q 2313 4219 1838 4219 
Q 1578 4219 1281 4162 
Q 984 4106 628 3988 
L 628 4550 
Q 988 4650 1302 4700 
Q 1616 4750 1894 4750 
Q 2613 4750 3031 4423 
Q 3450 4097 3450 3541 
Q 3450 3153 3228 2886 
Q 3006 2619 2597 2516 
z
" transform="scale(0.015625)"/>
       </defs>
       <use xlink:href="#DejaVuSans-33"/>
       <use xlink:href="#DejaVuSans-2e" transform="translate(63.623047 0)"/>
       <use xlink:href="#DejaVuSans-30" transform="translate(95.410156 0)"/>
       <use xlink:href="#DejaVuSans-30" transform="translate(159.033203 0)"/>
      </g>
     </g>
    </g>
    <g id="ytick_6">
     <g id="line2d_29">
      <path d="M 53.93 141.598686 
L 709.2 141.598686 
" clip-path="url(#p95f56af51a)" style="fill: none; stroke: #b0b0b0; stroke-width: 0.8; stroke-linecap: square"/>
     </g>
     <g id="line2d_30">
      <g>
       <use xlink:href="#m1bc33e3b5e" x="53.93" y="141.598686" style="stroke: #000000; stroke-width: 0.8"/>
      </g>
     </g>
     <g id="text_16">
      <!-- 3.25 -->
      <g transform="translate(24.664375 145.397904) scale(0.1 -0.1)">
       <use xlink:href="#DejaVuSans-33"/>
       <use xlink:href="#DejaVuSans-2e" transform="translate(63.623047 0)"/>
       <use xlink:href="#DejaVuSans-32" transform="translate(95.410156 0)"/>
       <use xlink:href="#DejaVuSans-35" transform="translate(159.033203 0)"/>
      </g>
     </g>
    </g>
    <g id="ytick_7">
     <g id="line2d_31">
      <path d="M 53.93 99.467184 
L 709.2 99.467184 
" clip-path="url(#p95f56af51a)" style="fill: none; stroke: #b0b0b0; stroke-width: 0.8; stroke-linecap: square"/>
     </g>
     <g id="line2d_32">
      <g>
       <use xlink:href="#m1bc33e3b5e" x="53.93" y="99.467184" style="stroke: #000000; stroke-width: 0.8"/>
      </g>
     </g>
     <g id="text_17">
      <!-- 3.50 -->
      <g transform="translate(24.664375 103.266403) scale(0.1 -0.1)">
       <use xlink:href="#DejaVuSans-33"/>
       <use xlink:href="#DejaVuSans-2e" transform="translate(63.623047 0)"/>
       <use xlink:href="#DejaVuSans-35" transform="translate(95.410156 0)"/>
       <use xlink:href="#DejaVuSans-30" transform="translate(159.033203 0)"/>
      </g>
     </g>
    </g>
    <g id="ytick_8">
     <g id="line2d_33">
      <path d="M 53.93 57.335683 
L 709.2 57.335683 
" clip-path="url(#p95f56af51a)" style="fill: none; stroke: #b0b0b0; stroke-width: 0.8; stroke-linecap: square"/>
     </g>
     <g id="line2d_34">
      <g>
       <use xlink:href="#m1bc33e3b5e" x="53.93" y="57.335683" style="stroke: #000000; stroke-width: 0.8"/>
      </g>
     </g>
     <g id="text_18">
      <!-- 3.75 -->
      <g transform="translate(24.664375 61.134902) scale(0.1 -0.1)">
       <use xlink:href="#DejaVuSans-33"/>
       <use xlink:href="#DejaVuSans-2e" transform="translate(63.623047 0)"/>
       <use xlink:href="#DejaVuSans-37" transform="translate(95.410156 0)"/>
       <use xlink:href="#DejaVuSans-35" transform="translate(159.033203 0)"/>
      </g>
     </g>
    </g>
    <g id="ytick_9">
     <g id="line2d_35">
      <path d="M 53.93 15.204181 
L 709.2 15.204181 
" clip-path="url(#p95f56af51a)" style="fill: none; stroke: #b0b0b0; stroke-width: 0.8; stroke-linecap: square"/>
     </g>
     <g id="line2d_36">
      <g>
       <use xlink:href="#m1bc33e3b5e" x="53.93" y="15.204181" style="stroke: #000000; stroke-width: 0.8"/>
      </g>
     </g>
     <g id="text_19">
      <!-- 4.00 -->
      <g transform="translate(24.664375 19.0034) scale(0.1 -0.1)">
       <defs>
        <path id="DejaVuSans-34" d="M 2419 4116 
L 825 1625 
L 2419 1625 
L 2419 4116 
z
M 2253 4666 
L 3047 4666 
L 3047 1625 
L 3713 1625 
L 3713 1100 
L 3047 1100 
L 3047 0 
L 2419 0 
L 2419 1100 
L 313 1100 
L 313 1709 
L 2253 4666 
z
" transform="scale(0.015625)"/>
       </defs>
       <use xlink:href="#DejaVuSans-34"/>
       <use xlink:href="#DejaVuSans-2e" transform="translate(63.623047 0)"/>
       <use xlink:href="#DejaVuSans-30" transform="translate(95.410156 0)"/>
       <use xlink:href="#DejaVuSans-30" transform="translate(159.033203 0)"/>
      </g>
     </g>
    </g>
    <g id="text_20">
     <!-- Circuit Depth -->
     <g transform="translate(18.584688 233.698527) rotate(-90) scale(0.1 -0.1)">
      <defs>
       <path id="DejaVuSans-43" d="M 4122 4306 
L 4122 3641 
Q 3803 3938 3442 4084 
Q 3081 4231 2675 4231 
Q 1875 4231 1450 3742 
Q 1025 3253 1025 2328 
Q 1025 1406 1450 917 
Q 1875 428 2675 428 
Q 3081 428 3442 575 
Q 3803 722 4122 1019 
L 4122 359 
Q 3791 134 3420 21 
Q 3050 -91 2638 -91 
Q 1578 -91 968 557 
Q 359 1206 359 2328 
Q 359 3453 968 4101 
Q 1578 4750 2638 4750 
Q 3056 4750 3426 4639 
Q 3797 4528 4122 4306 
z
" transform="scale(0.015625)"/>
       <path id="DejaVuSans-69" d="M 603 3500 
L 1178 3500 
L 1178 0 
L 603 0 
L 603 3500 
z
M 603 4863 
L 1178 4863 
L 1178 4134 
L 603 4134 
L 603 4863 
z
" transform="scale(0.015625)"/>
       <path id="DejaVuSans-72" d="M 2631 2963 
Q 2534 3019 2420 3045 
Q 2306 3072 2169 3072 
Q 1681 3072 1420 2755 
Q 1159 2438 1159 1844 
L 1159 0 
L 581 0 
L 581 3500 
L 1159 3500 
L 1159 2956 
Q 1341 3275 1631 3429 
Q 1922 3584 2338 3584 
Q 2397 3584 2469 3576 
Q 2541 3569 2628 3553 
L 2631 2963 
z
" transform="scale(0.015625)"/>
       <path id="DejaVuSans-63" d="M 3122 3366 
L 3122 2828 
Q 2878 2963 2633 3030 
Q 2388 3097 2138 3097 
Q 1578 3097 1268 2742 
Q 959 2388 959 1747 
Q 959 1106 1268 751 
Q 1578 397 2138 397 
Q 2388 397 2633 464 
Q 2878 531 3122 666 
L 3122 134 
Q 2881 22 2623 -34 
Q 2366 -91 2075 -91 
Q 1284 -91 818 406 
Q 353 903 353 1747 
Q 353 2603 823 3093 
Q 1294 3584 2113 3584 
Q 2378 3584 2631 3529 
Q 2884 3475 3122 3366 
z
" transform="scale(0.015625)"/>
       <path id="DejaVuSans-75" d="M 544 1381 
L 544 3500 
L 1119 3500 
L 1119 1403 
Q 1119 906 1312 657 
Q 1506 409 1894 409 
Q 2359 409 2629 706 
Q 2900 1003 2900 1516 
L 2900 3500 
L 3475 3500 
L 3475 0 
L 2900 0 
L 2900 538 
Q 2691 219 2414 64 
Q 2138 -91 1772 -91 
Q 1169 -91 856 284 
Q 544 659 544 1381 
z
M 1991 3584 
L 1991 3584 
z
" transform="scale(0.015625)"/>
       <path id="DejaVuSans-20" transform="scale(0.015625)"/>
       <path id="DejaVuSans-44" d="M 1259 4147 
L 1259 519 
L 2022 519 
Q 2988 519 3436 956 
Q 3884 1394 3884 2338 
Q 3884 3275 3436 3711 
Q 2988 4147 2022 4147 
L 1259 4147 
z
M 628 4666 
L 1925 4666 
Q 3281 4666 3915 4102 
Q 4550 3538 4550 2338 
Q 4550 1131 3912 565 
Q 3275 0 1925 0 
L 628 0 
L 628 4666 
z
" transform="scale(0.015625)"/>
       <path id="DejaVuSans-68" d="M 3513 2113 
L 3513 0 
L 2938 0 
L 2938 2094 
Q 2938 2591 2744 2837 
Q 2550 3084 2163 3084 
Q 1697 3084 1428 2787 
Q 1159 2491 1159 1978 
L 1159 0 
L 581 0 
L 581 4863 
L 1159 4863 
L 1159 2956 
Q 1366 3272 1645 3428 
Q 1925 3584 2291 3584 
Q 2894 3584 3203 3211 
Q 3513 2838 3513 2113 
z
" transform="scale(0.015625)"/>
      </defs>
      <use xlink:href="#DejaVuSans-43"/>
      <use xlink:href="#DejaVuSans-69" transform="translate(69.824219 0)"/>
      <use xlink:href="#DejaVuSans-72" transform="translate(97.607422 0)"/>
      <use xlink:href="#DejaVuSans-63" transform="translate(136.470703 0)"/>
      <use xlink:href="#DejaVuSans-75" transform="translate(191.451172 0)"/>
      <use xlink:href="#DejaVuSans-69" transform="translate(254.830078 0)"/>
      <use xlink:href="#DejaVuSans-74" transform="translate(282.613281 0)"/>
      <use xlink:href="#DejaVuSans-20" transform="translate(321.822266 0)"/>
      <use xlink:href="#DejaVuSans-44" transform="translate(353.609375 0)"/>
      <use xlink:href="#DejaVuSans-65" transform="translate(430.611328 0)"/>
      <use xlink:href="#DejaVuSans-70" transform="translate(492.134766 0)"/>
      <use xlink:href="#DejaVuSans-74" transform="translate(555.611328 0)"/>
      <use xlink:href="#DejaVuSans-68" transform="translate(594.820312 0)"/>
     </g>
    </g>
   </g>
   <g id="line2d_37">
    <path d="M 83.715 198.335774 
L 86.561977 203.672431 
L 89.32787 192.437364 
L 92.159832 194.122624 
L 95.0939 207.323828 
L 97.883818 216.592758 
L 100.700764 191.313857 
L 103.676877 177.5509 
L 106.69203 160.6983 
L 109.794274 162.664436 
L 112.93556 162.102683 
L 116.061829 147.497096 
L 119.095001 145.811836 
L 122.104148 138.789919 
L 125.023201 141.879562 
L 127.58488 148.058849 
L 130.113525 149.182356 
L 132.654182 156.485149 
L 135.119761 156.766026 
L 137.594349 164.630573 
L 140.065933 156.766026 
L 142.501481 164.349696 
L 144.937028 164.06882 
L 147.363565 172.775997 
L 149.802116 176.70827 
L 152.237663 176.427393 
L 154.667204 175.303887 
L 157.081729 176.146517 
L 159.493251 177.831777 
L 161.919789 178.674407 
L 164.334314 176.427393 
L 166.733823 180.640544 
L 169.139339 179.517037 
L 171.556868 179.797914 
L 173.965386 181.483174 
L 176.379912 180.92142 
L 178.806449 180.640544 
L 181.214968 180.92142 
L 183.632497 180.92142 
L 186.041015 182.887557 
L 188.446531 182.887557 
L 190.870066 182.60668 
L 193.278585 183.730187 
L 195.696113 180.359667 
L 198.110638 182.60668 
L 200.525163 181.483174 
L 202.942692 180.640544 
L 205.354214 180.07879 
L 207.762733 182.887557 
L 210.168248 180.92142 
L 212.594786 180.640544 
L 215.009311 182.044927 
L 217.414827 182.044927 
L 219.820343 184.011064 
L 222.228862 182.044927 
L 224.640384 182.887557 
L 227.051906 182.60668 
L 229.454418 181.76405 
L 231.871947 176.989147 
L 234.292478 184.572817 
L 236.634928 196.088761 
L 238.959359 187.100707 
L 241.346856 183.168434 
L 243.758378 193.560871 
L 245.956677 191.594734 
L 248.365196 184.572817 
L 250.773715 185.13457 
L 253.005048 199.178404 
L 255.344495 184.011064 
L 257.750011 181.483174 
L 260.170542 182.044927 
L 262.59708 181.76405 
L 265.014608 184.572817 
L 267.441146 194.684377 
L 269.867684 208.728211 
L 272.282209 201.144541 
L 274.741781 164.06882 
L 277.844026 159.01304 
L 280.645956 175.584763 
L 283.123547 182.325804 
L 285.583119 178.112653 
L 288.108761 179.517037 
L 290.628396 179.517037 
L 293.099981 183.168434 
L 295.658657 181.483174 
L 298.238355 182.325804 
L 300.779012 183.730187 
L 305.698156 182.60668 
L 308.157729 184.29194 
L 310.602285 182.887557 
L 313.046842 183.44931 
L 315.488395 181.76405 
L 317.908927 182.325804 
L 320.335464 181.483174 
L 322.771012 182.325804 
L 325.206559 142.160439 
L 330.038612 175.02301 
L 332.456141 182.887557 
L 334.864659 183.730187 
L 337.387298 165.473203 
L 339.930958 176.70827 
L 342.384524 180.640544 
L 344.829081 180.640544 
L 347.261625 182.887557 
L 349.66714 181.202297 
L 352.111697 181.483174 
L 354.538235 181.202297 
L 359.358276 185.13457 
L 361.757785 182.60668 
L 364.190329 182.887557 
L 366.604854 182.325804 
L 369.049411 183.168434 
L 373.935521 182.044927 
L 376.368065 182.044927 
L 378.842653 173.899503 
L 381.356282 174.18038 
L 383.860901 176.146517 
L 386.359514 178.955284 
L 388.792058 180.640544 
L 391.194571 186.258077 
L 393.59408 183.44931 
L 396.005602 184.29194 
L 398.435143 181.202297 
L 400.855675 183.168434 
L 403.267197 183.168434 
L 405.687728 182.60668 
L 408.111263 180.640544 
L 410.558823 180.359667 
L 412.982357 182.325804 
L 415.390876 183.44931 
L 417.820417 179.23616 
L 420.403118 218.278018 
L 422.892722 187.66246 
L 425.346288 184.011064 
L 427.775829 184.853694 
L 430.199363 184.011064 
L 432.640917 183.44931 
L 435.061448 176.427393 
L 437.478976 175.303887 
L 440.058674 172.214243 
L 442.587319 193.841747 
L 445.094941 178.39353 
L 447.548507 187.943337 
L 449.987058 187.66246 
L 452.419602 180.07879 
L 454.852146 182.887557 
L 459.699215 182.325804 
L 462.119746 182.325804 
L 464.531268 183.168434 
L 466.957806 182.60668 
L 469.384344 184.011064 
L 471.807879 182.325804 
L 474.22841 182.044927 
L 476.639932 181.483174 
L 479.054457 178.674407 
L 481.697221 183.168434 
L 484.183822 183.168434 
L 486.598347 182.887557 
L 491.463435 182.887557 
L 493.868951 183.730187 
L 496.283476 183.730187 
L 498.734039 180.359667 
L 501.247668 181.76405 
L 503.686218 183.44931 
L 506.115759 182.887557 
L 508.548303 173.899503 
L 510.962828 183.730187 
L 513.401378 177.831777 
L 515.881973 155.642519 
L 518.320523 182.325804 
L 520.777092 171.933367 
L 523.236664 180.07879 
L 525.660199 181.76405 
L 528.092743 181.76405 
L 530.513274 183.44931 
L 532.954828 178.674407 
L 535.390375 179.517037 
L 537.846944 181.483174 
L 540.279488 180.92142 
L 542.694013 182.044927 
L 545.156589 178.674407 
L 547.62517 176.70827 
L 550.07273 175.86564 
L 552.51128 181.483174 
L 554.943825 181.483174 
L 557.373365 181.202297 
L 559.793897 182.887557 
L 562.217431 180.07879 
L 564.649975 176.146517 
L 567.079516 176.989147 
L 569.509057 182.325804 
L 571.941601 182.60668 
L 574.35913 183.168434 
L 576.785667 181.76405 
L 579.209202 180.640544 
L 581.662768 182.60668 
L 584.095312 180.92142 
L 586.566897 182.887557 
L 589.041485 168.562847 
L 591.639202 172.49512 
L 594.10478 180.07879 
L 596.546334 180.359667 
L 598.972871 181.76405 
L 601.387397 182.044927 
L 603.807928 180.640544 
L 606.246478 182.044927 
L 608.661003 182.887557 
L 611.069522 182.887557 
L 613.481044 182.044927 
L 615.949626 177.5509 
L 618.388176 181.483174 
L 620.844746 179.517037 
L 623.280293 182.044927 
L 625.730856 183.168434 
L 628.157393 183.730187 
L 630.583931 181.483174 
L 633.025485 182.325804 
L 635.449019 184.853694 
L 637.857538 183.44931 
L 640.281073 182.60668 
L 642.701604 183.168434 
L 645.122136 181.76405 
L 647.539664 183.44931 
L 649.948183 179.797914 
L 652.422771 152.833753 
L 654.873334 173.33775 
L 657.308881 178.39353 
L 659.744428 181.483174 
L 662.176972 169.405477 
L 664.759673 176.427393 
L 667.249277 177.5509 
L 669.714855 178.39353 
L 672.156409 182.044927 
L 674.57694 180.92142 
L 677.012487 180.07879 
L 677.012487 180.07879 
" clip-path="url(#p95f56af51a)" style="fill: none; stroke: #0000ff; stroke-width: 1.5; stroke-linecap: square"/>
   </g>
   <g id="line2d_38">
    <path d="M 83.766053 187.381584 
L 86.576993 208.728211 
L 89.37592 185.415447 
L 92.111782 192.156487 
L 94.904703 203.110678 
L 97.676601 193.279994 
L 100.466519 194.122624 
L 103.310494 193.560871 
L 106.049358 196.650514 
L 108.899338 187.381584 
L 111.737307 191.032981 
L 114.512209 192.999117 
L 117.254076 197.493144 
L 120.104057 189.628597 
L 122.963047 188.224214 
L 125.852068 186.538954 
L 128.702049 177.270023 
L 131.467941 190.752104 
L 134.317922 192.437364 
L 137.191928 196.369637 
L 140.092962 198.616651 
L 142.882879 190.190351 
L 145.663788 202.829801 
L 148.573831 192.437364 
L 151.441831 200.863664 
L 154.30983 194.684377 
L 157.042688 209.289965 
L 159.919697 183.168434 
L 162.700605 196.931391 
L 165.526561 194.403501 
L 168.334497 205.638568 
L 171.178472 180.92142 
L 173.947368 190.752104 
L 176.653197 197.212267 
L 179.638319 176.989147 
L 182.464275 205.638568 
L 185.302243 180.359667 
L 188.086154 196.931391 
L 190.837031 192.437364 
L 193.635958 200.021034 
L 196.497952 194.684377 
L 199.32691 197.774021 
L 202.101812 188.505091 
L 204.975818 183.730187 
L 207.792764 194.684377 
L 210.645748 200.863664 
L 213.495728 190.752104 
L 216.37574 186.258077 
L 219.297796 194.684377 
L 222.09372 187.381584 
L 224.985745 197.774021 
L 227.775663 186.81983 
L 230.643662 195.527007 
L 233.463611 194.684377 
L 236.460746 195.807884 
L 239.229642 199.178404 
L 242.094638 182.325804 
L 245.052732 185.415447 
L 247.911722 192.718241 
L 250.707646 192.999117 
L 253.527595 187.943337 
L 256.311506 193.279994 
L 259.020339 198.897528 
L 261.888339 191.594734 
L 264.816401 181.202297 
L 267.669385 198.054897 
L 270.576425 185.13457 
L 273.339315 189.628597 
L 276.168273 199.740158 
L 278.916147 201.425418 
L 281.748109 187.943337 
L 284.568058 189.628597 
L 287.43906 192.999117 
L 290.207956 197.774021 
L 293.018896 190.471227 
L 295.874883 200.582788 
L 298.691829 182.044927 
L 301.58085 201.144541 
L 304.394793 188.785967 
L 307.205733 189.347721 
L 310.127789 173.056873 
L 313.034829 173.33775 
L 315.890816 203.110678 
L 318.731787 168.28197 
L 321.608796 192.156487 
L 324.476796 204.515061 
L 327.314764 200.582788 
L 330.197779 180.92142 
L 332.978687 191.875611 
L 335.804643 190.752104 
L 338.636604 197.212267 
L 341.414509 201.144541 
L 344.228452 181.483174 
L 347.006358 206.481198 
L 349.937423 180.640544 
L 352.778394 198.897528 
L 355.613359 205.357691 
L 358.343214 199.740158 
L 361.211213 186.258077 
L 363.91404 210.132595 
L 366.72498 200.021034 
L 369.671061 184.572817 
L 372.469988 198.897528 
L 375.283931 204.515061 
L 378.067843 182.325804 
L 380.926833 212.098731 
L 383.674706 191.875611 
L 389.359652 194.122624 
L 392.251676 175.86564 
L 395.038591 207.885581 
L 397.76244 195.527007 
L 400.558364 207.042951 
L 403.336269 199.178404 
L 405.961014 196.650514 
L 408.78697 186.81983 
L 411.612925 184.011064 
L 414.450893 187.943337 
L 417.348924 193.841747 
L 420.183889 203.110678 
L 422.994828 190.752104 
L 425.94091 182.044927 
L 428.805906 196.650514 
L 431.598827 188.505091 
L 434.454814 185.13457 
L 437.190675 194.403501 
L 439.944555 180.640544 
L 442.67441 211.536978 
L 445.509375 193.841747 
L 448.236227 199.178404 
L 450.972088 190.190351 
L 453.759003 184.011064 
L 456.620996 182.887557 
L 459.431935 185.696324 
L 462.302938 187.66246 
L 465.167934 205.919444 
L 468.035934 191.875611 
L 470.870899 194.403501 
L 473.732892 179.23616 
L 476.507794 196.650514 
L 479.252665 195.246131 
L 482.012551 199.740158 
L 484.769434 197.774021 
L 487.568361 199.459281 
L 490.352273 196.931391 
L 493.09414 194.684377 
L 495.878052 200.863664 
L 498.710014 195.246131 
L 501.406834 183.730187 
L 504.22378 204.795938 
L 507.088776 192.156487 
L 509.851666 189.066844 
L 512.602543 176.989147 
L 515.45853 179.517037 
L 518.380586 184.572817 
L 521.161494 202.268048 
L 524.050515 194.122624 
L 526.843436 196.650514 
L 529.60032 192.437364 
L 532.378225 192.156487 
L 535.192168 203.672431 
L 537.994098 200.863664 
L 540.796028 203.391554 
L 543.492849 187.943337 
L 546.279763 201.706294 
L 549.156772 190.471227 
L 552.033781 186.258077 
L 557.676683 191.875611 
L 560.607748 196.931391 
L 563.397666 183.44931 
L 566.190587 192.437364 
L 568.956479 194.122624 
L 574.449224 199.178404 
L 577.233135 186.81983 
L 580.053084 189.066844 
L 582.903065 186.538954 
L 585.747039 190.752104 
L 588.579001 190.190351 
L 591.486041 193.560871 
L 594.239921 210.694348 
L 597.035846 183.44931 
L 599.918861 193.841747 
L 602.693763 186.538954 
L 605.606809 190.471227 
L 608.432765 173.33775 
L 611.324789 178.955284 
L 614.267867 186.81983 
L 617.078807 173.618627 
L 619.799653 201.144541 
L 622.64663 191.594734 
L 625.481595 196.931391 
L 628.328572 201.987171 
L 631.019386 192.156487 
L 633.863361 186.538954 
L 636.662288 192.718241 
L 639.509265 182.887557 
L 642.377265 194.684377 
L 645.16418 210.132595 
L 647.969113 190.752104 
L 650.885163 177.831777 
L 653.624027 199.740158 
L 656.446979 194.122624 
L 659.411079 194.122624 
L 662.258057 195.807884 
L 668.024087 170.528983 
L 670.871065 193.560871 
L 673.675998 207.885581 
L 676.519972 200.582788 
L 679.415 186.538954 
L 679.415 186.538954 
" clip-path="url(#p95f56af51a)" style="fill: none; stroke: #ffa500; stroke-width: 1.5; stroke-linecap: square"/>
   </g>
   <g id="patch_3">
    <path d="M 53.93 390.04 
L 53.93 11.538303 
" style="fill: none; stroke: #000000; stroke-width: 0.8; stroke-linejoin: miter; stroke-linecap: square"/>
   </g>
   <g id="patch_4">
    <path d="M 709.2 390.04 
L 709.2 11.538303 
" style="fill: none; stroke: #000000; stroke-width: 0.8; stroke-linejoin: miter; stroke-linecap: square"/>
   </g>
   <g id="patch_5">
    <path d="M 53.93 390.04 
L 709.2 390.04 
" style="fill: none; stroke: #000000; stroke-width: 0.8; stroke-linejoin: miter; stroke-linecap: square"/>
   </g>
   <g id="patch_6">
    <path d="M 53.93 11.538303 
L 709.2 11.538303 
" style="fill: none; stroke: #000000; stroke-width: 0.8; stroke-linejoin: miter; stroke-linecap: square"/>
   </g>
   <g id="legend_1">
    <g id="patch_7">
     <path d="M 628.803125 385.04 
L 702.2 385.04 
Q 704.2 385.04 704.2 383.04 
L 704.2 340.005625 
Q 704.2 338.005625 702.2 338.005625 
L 628.803125 338.005625 
Q 626.803125 338.005625 626.803125 340.005625 
L 626.803125 383.04 
Q 626.803125 385.04 628.803125 385.04 
z
" style="fill: #ffffff; opacity: 0.8; stroke: #cccccc; stroke-linejoin: miter"/>
    </g>
    <g id="text_21">
     <!-- Agent -->
     <g transform="translate(650.701562 349.604062) scale(0.1 -0.1)">
      <defs>
       <path id="DejaVuSans-41" d="M 2188 4044 
L 1331 1722 
L 3047 1722 
L 2188 4044 
z
M 1831 4666 
L 2547 4666 
L 4325 0 
L 3669 0 
L 3244 1197 
L 1141 1197 
L 716 0 
L 50 0 
L 1831 4666 
z
" transform="scale(0.015625)"/>
       <path id="DejaVuSans-67" d="M 2906 1791 
Q 2906 2416 2648 2759 
Q 2391 3103 1925 3103 
Q 1463 3103 1205 2759 
Q 947 2416 947 1791 
Q 947 1169 1205 825 
Q 1463 481 1925 481 
Q 2391 481 2648 825 
Q 2906 1169 2906 1791 
z
M 3481 434 
Q 3481 -459 3084 -895 
Q 2688 -1331 1869 -1331 
Q 1566 -1331 1297 -1286 
Q 1028 -1241 775 -1147 
L 775 -588 
Q 1028 -725 1275 -790 
Q 1522 -856 1778 -856 
Q 2344 -856 2625 -561 
Q 2906 -266 2906 331 
L 2906 616 
Q 2728 306 2450 153 
Q 2172 0 1784 0 
Q 1141 0 747 490 
Q 353 981 353 1791 
Q 353 2603 747 3093 
Q 1141 3584 1784 3584 
Q 2172 3584 2450 3431 
Q 2728 3278 2906 2969 
L 2906 3500 
L 3481 3500 
L 3481 434 
z
" transform="scale(0.015625)"/>
       <path id="DejaVuSans-6e" d="M 3513 2113 
L 3513 0 
L 2938 0 
L 2938 2094 
Q 2938 2591 2744 2837 
Q 2550 3084 2163 3084 
Q 1697 3084 1428 2787 
Q 1159 2491 1159 1978 
L 1159 0 
L 581 0 
L 581 3500 
L 1159 3500 
L 1159 2956 
Q 1366 3272 1645 3428 
Q 1925 3584 2291 3584 
Q 2894 3584 3203 3211 
Q 3513 2838 3513 2113 
z
" transform="scale(0.015625)"/>
      </defs>
      <use xlink:href="#DejaVuSans-41"/>
      <use xlink:href="#DejaVuSans-67" transform="translate(68.408203 0)"/>
      <use xlink:href="#DejaVuSans-65" transform="translate(131.884766 0)"/>
      <use xlink:href="#DejaVuSans-6e" transform="translate(193.408203 0)"/>
      <use xlink:href="#DejaVuSans-74" transform="translate(256.787109 0)"/>
     </g>
    </g>
    <g id="line2d_39">
     <path d="M 630.803125 360.782187 
L 640.803125 360.782187 
L 650.803125 360.782187 
" style="fill: none; stroke: #0000ff; stroke-width: 1.5; stroke-linecap: square"/>
    </g>
    <g id="text_22">
     <!-- PPO -->
     <g transform="translate(658.803125 364.282187) scale(0.1 -0.1)">
      <defs>
       <path id="DejaVuSans-50" d="M 1259 4147 
L 1259 2394 
L 2053 2394 
Q 2494 2394 2734 2622 
Q 2975 2850 2975 3272 
Q 2975 3691 2734 3919 
Q 2494 4147 2053 4147 
L 1259 4147 
z
M 628 4666 
L 2053 4666 
Q 2838 4666 3239 4311 
Q 3641 3956 3641 3272 
Q 3641 2581 3239 2228 
Q 2838 1875 2053 1875 
L 1259 1875 
L 1259 0 
L 628 0 
L 628 4666 
z
" transform="scale(0.015625)"/>
       <path id="DejaVuSans-4f" d="M 2522 4238 
Q 1834 4238 1429 3725 
Q 1025 3213 1025 2328 
Q 1025 1447 1429 934 
Q 1834 422 2522 422 
Q 3209 422 3611 934 
Q 4013 1447 4013 2328 
Q 4013 3213 3611 3725 
Q 3209 4238 2522 4238 
z
M 2522 4750 
Q 3503 4750 4090 4092 
Q 4678 3434 4678 2328 
Q 4678 1225 4090 567 
Q 3503 -91 2522 -91 
Q 1538 -91 948 565 
Q 359 1222 359 2328 
Q 359 3434 948 4092 
Q 1538 4750 2522 4750 
z
" transform="scale(0.015625)"/>
      </defs>
      <use xlink:href="#DejaVuSans-50"/>
      <use xlink:href="#DejaVuSans-50" transform="translate(60.302734 0)"/>
      <use xlink:href="#DejaVuSans-4f" transform="translate(120.605469 0)"/>
     </g>
    </g>
    <g id="line2d_40">
     <path d="M 630.803125 375.460312 
L 640.803125 375.460312 
L 650.803125 375.460312 
" style="fill: none; stroke: #ffa500; stroke-width: 1.5; stroke-linecap: square"/>
    </g>
    <g id="text_23">
     <!-- Random -->
     <g transform="translate(658.803125 378.960312) scale(0.1 -0.1)">
      <defs>
       <path id="DejaVuSans-52" d="M 2841 2188 
Q 3044 2119 3236 1894 
Q 3428 1669 3622 1275 
L 4263 0 
L 3584 0 
L 2988 1197 
Q 2756 1666 2539 1819 
Q 2322 1972 1947 1972 
L 1259 1972 
L 1259 0 
L 628 0 
L 628 4666 
L 2053 4666 
Q 2853 4666 3247 4331 
Q 3641 3997 3641 3322 
Q 3641 2881 3436 2590 
Q 3231 2300 2841 2188 
z
M 1259 4147 
L 1259 2491 
L 2053 2491 
Q 2509 2491 2742 2702 
Q 2975 2913 2975 3322 
Q 2975 3731 2742 3939 
Q 2509 4147 2053 4147 
L 1259 4147 
z
" transform="scale(0.015625)"/>
       <path id="DejaVuSans-61" d="M 2194 1759 
Q 1497 1759 1228 1600 
Q 959 1441 959 1056 
Q 959 750 1161 570 
Q 1363 391 1709 391 
Q 2188 391 2477 730 
Q 2766 1069 2766 1631 
L 2766 1759 
L 2194 1759 
z
M 3341 1997 
L 3341 0 
L 2766 0 
L 2766 531 
Q 2569 213 2275 61 
Q 1981 -91 1556 -91 
Q 1019 -91 701 211 
Q 384 513 384 1019 
Q 384 1609 779 1909 
Q 1175 2209 1959 2209 
L 2766 2209 
L 2766 2266 
Q 2766 2663 2505 2880 
Q 2244 3097 1772 3097 
Q 1472 3097 1187 3025 
Q 903 2953 641 2809 
L 641 3341 
Q 956 3463 1253 3523 
Q 1550 3584 1831 3584 
Q 2591 3584 2966 3190 
Q 3341 2797 3341 1997 
z
" transform="scale(0.015625)"/>
       <path id="DejaVuSans-64" d="M 2906 2969 
L 2906 4863 
L 3481 4863 
L 3481 0 
L 2906 0 
L 2906 525 
Q 2725 213 2448 61 
Q 2172 -91 1784 -91 
Q 1150 -91 751 415 
Q 353 922 353 1747 
Q 353 2572 751 3078 
Q 1150 3584 1784 3584 
Q 2172 3584 2448 3432 
Q 2725 3281 2906 2969 
z
M 947 1747 
Q 947 1113 1208 752 
Q 1469 391 1925 391 
Q 2381 391 2643 752 
Q 2906 1113 2906 1747 
Q 2906 2381 2643 2742 
Q 2381 3103 1925 3103 
Q 1469 3103 1208 2742 
Q 947 2381 947 1747 
z
" transform="scale(0.015625)"/>
       <path id="DejaVuSans-6f" d="M 1959 3097 
Q 1497 3097 1228 2736 
Q 959 2375 959 1747 
Q 959 1119 1226 758 
Q 1494 397 1959 397 
Q 2419 397 2687 759 
Q 2956 1122 2956 1747 
Q 2956 2369 2687 2733 
Q 2419 3097 1959 3097 
z
M 1959 3584 
Q 2709 3584 3137 3096 
Q 3566 2609 3566 1747 
Q 3566 888 3137 398 
Q 2709 -91 1959 -91 
Q 1206 -91 779 398 
Q 353 888 353 1747 
Q 353 2609 779 3096 
Q 1206 3584 1959 3584 
z
" transform="scale(0.015625)"/>
       <path id="DejaVuSans-6d" d="M 3328 2828 
Q 3544 3216 3844 3400 
Q 4144 3584 4550 3584 
Q 5097 3584 5394 3201 
Q 5691 2819 5691 2113 
L 5691 0 
L 5113 0 
L 5113 2094 
Q 5113 2597 4934 2840 
Q 4756 3084 4391 3084 
Q 3944 3084 3684 2787 
Q 3425 2491 3425 1978 
L 3425 0 
L 2847 0 
L 2847 2094 
Q 2847 2600 2669 2842 
Q 2491 3084 2119 3084 
Q 1678 3084 1418 2786 
Q 1159 2488 1159 1978 
L 1159 0 
L 581 0 
L 581 3500 
L 1159 3500 
L 1159 2956 
Q 1356 3278 1631 3431 
Q 1906 3584 2284 3584 
Q 2666 3584 2933 3390 
Q 3200 3197 3328 2828 
z
" transform="scale(0.015625)"/>
      </defs>
      <use xlink:href="#DejaVuSans-52"/>
      <use xlink:href="#DejaVuSans-61" transform="translate(67.232422 0)"/>
      <use xlink:href="#DejaVuSans-6e" transform="translate(128.511719 0)"/>
      <use xlink:href="#DejaVuSans-64" transform="translate(191.890625 0)"/>
      <use xlink:href="#DejaVuSans-6f" transform="translate(255.367188 0)"/>
      <use xlink:href="#DejaVuSans-6d" transform="translate(316.548828 0)"/>
     </g>
    </g>
   </g>
  </g>
 </g>
 <defs>
  <clipPath id="p95f56af51a">
   <rect x="53.93" y="11.538303" width="655.27" height="378.501697"/>
  </clipPath>
 </defs>
</svg>
