<?xml version="1.0" encoding="utf-8" standalone="no"?>
<!DOCTYPE svg PUBLIC "-//W3C//DTD SVG 1.1//EN"
  "http://www.w3.org/Graphics/SVG/1.1/DTD/svg11.dtd">
<svg xmlns:xlink="http://www.w3.org/1999/xlink" width="720pt" height="432pt" viewBox="0 0 720 432" xmlns="http://www.w3.org/2000/svg" version="1.1">
 <metadata>
  <rdf:RDF xmlns:dc="http://purl.org/dc/elements/1.1/" xmlns:cc="http://creativecommons.org/ns#" xmlns:rdf="http://www.w3.org/1999/02/22-rdf-syntax-ns#">
   <cc:Work>
    <dc:type rdf:resource="http://purl.org/dc/dcmitype/StillImage"/>
    <dc:date>2025-04-15T17:17:53.488292</dc:date>
    <dc:format>image/svg+xml</dc:format>
    <dc:creator>
     <cc:Agent>
      <dc:title>Matplotlib v3.10.0, https://matplotlib.org/</dc:title>
     </cc:Agent>
    </dc:creator>
   </cc:Work>
  </rdf:RDF>
 </metadata>
 <defs>
  <style type="text/css">*{stroke-linejoin: round; stroke-linecap: butt}</style>
 </defs>
 <g id="figure_1">
  <g id="patch_1">
   <path d="M 0 432 
L 720 432 
L 720 0 
L 0 0 
z
" style="fill: #ffffff"/>
  </g>
  <g id="axes_1">
   <g id="patch_2">
    <path d="M 47.72 390.04 
L 709.2 390.04 
L 709.2 10.8 
L 47.72 10.8 
z
" style="fill: #ffffff"/>
   </g>
   <g id="FillBetweenPolyCollection_1">
    <defs>
     <path id="m2fe0ca18e7" d="M 77.787273 -227.702876 
L 77.787273 -75.461013 
L 80.661231 -80.319551 
L 83.453336 -94.455577 
L 86.312136 -100.368424 
L 89.274011 -94.758267 
L 92.090369 -103.25694 
L 94.934011 -97.875897 
L 97.938328 -95.629146 
L 100.982056 -111.944719 
L 104.113701 -111.581159 
L 107.284756 -127.163866 
L 110.440653 -168.837249 
L 113.502571 -184.5226 
L 116.540236 -205.451761 
L 119.486952 -238.543547 
L 122.072908 -269.939314 
L 124.625517 -297.536423 
L 127.190252 -338.674448 
L 129.679197 -360.650212 
L 132.177236 -362.202382 
L 134.672244 -373.571509 
L 137.130873 -389.585102 
L 139.589502 -385.232967 
L 142.039036 -392.665827 
L 144.500697 -385.232967 
L 146.959326 -388.509293 
L 149.411891 -395.404249 
L 151.849299 -390.065742 
L 154.283675 -397.017962 
L 156.733209 -392.714727 
L 159.170617 -391.932321 
L 161.592866 -391.149915 
L 164.021179 -396.675659 
L 166.461618 -395.110847 
L 168.892963 -396.920161 
L 171.330371 -396.303511 
L 173.779905 -398.680576 
L 176.211249 -398.631675 
L 178.651688 -400.587691 
L 181.083033 -398.631675 
L 183.511346 -400.832193 
L 185.957848 -399.903085 
L 188.389193 -393.497134 
L 190.829632 -397.702568 
L 193.267039 -398.387173 
L 195.704447 -400.636591 
L 198.144886 -401.257374 
L 200.579262 -395.746552 
L 203.010607 -402.98381 
L 205.43892 -402.201404 
L 207.888454 -401.125595 
L 210.325861 -396.431157 
L 212.754174 -400.734392 
L 215.182487 -397.506966 
L 217.613832 -402.93491 
L 220.048208 -402.103603 
L 222.482584 -400.832193 
L 224.907865 -400.48989 
L 227.348304 -394.670743 
L 229.791775 -396.626759 
L 232.156424 -323.93992 
L 234.502884 -373.985876 
L 236.913007 -390.709811 
L 239.347383 -340.293504 
L 241.566516 -350.981839 
L 243.99786 -396.039954 
L 246.429205 -370.513948 
L 248.681684 -300.259859 
L 251.043302 -371.485516 
L 253.471615 -391.638919 
L 255.915086 -378.702523 
L 258.36462 -386.97253 
L 260.805059 -385.819772 
L 263.254593 -359.34773 
L 265.704127 -330.653829 
L 268.141535 -354.30359 
L 270.624417 -391.681523 
L 273.756061 -385.618995 
L 276.584545 -393.588638 
L 279.085617 -396.284456 
L 281.568498 -397.596893 
L 284.118075 -395.794886 
L 286.661589 -394.23064 
L 289.156597 -398.778376 
L 291.739521 -377.564776 
L 294.343667 -393.350433 
L 296.908402 -394.8854 
L 299.400379 -391.101015 
L 301.874166 -399.707484 
L 304.357047 -392.176823 
L 306.824771 -397.107465 
L 309.292495 -402.739308 
L 311.757187 -395.729015 
L 314.200657 -402.641508 
L 316.650192 -401.516799 
L 319.10882 -391.305046 
L 321.567449 -293.219792 
L 324.004857 -340.649635 
L 326.445296 -379.169319 
L 328.885735 -402.151937 
L 331.31708 -401.908002 
L 333.863625 -381.927808 
L 336.431392 -388.630584 
L 338.90821 -397.164663 
L 341.375934 -399.658584 
L 343.831531 -397.702568 
L 346.259844 -396.382257 
L 348.727568 -397.409165 
L 351.177102 -399.999999 
L 353.620573 -403.228312 
L 356.042822 -394.866345 
L 358.465072 -397.555867 
L 360.920669 -402.494806 
L 363.358077 -396.088855 
L 365.8258 -395.15886 
L 368.290493 -399.120679 
L 370.758216 -398.582775 
L 373.213813 -400.049787 
L 375.711853 -391.78562 
L 378.249304 -392.860541 
L 380.777659 -392.95923 
L 383.299952 -396.67566 
L 385.755549 -400.294289 
L 388.18083 -374.866083 
L 390.60308 -392.714727 
L 393.037456 -398.04487 
L 395.490022 -395.746552 
L 397.933493 -399.756384 
L 400.367869 -400.636591 
L 402.81134 -401.027795 
L 405.257842 -400.734392 
L 407.728597 -400.098687 
L 410.1751 -402.054703 
L 412.606444 -403.668416 
L 415.05901 -384.585025 
L 417.666187 -180.908053 
L 420.179385 -361.102604 
L 422.656203 -393.594935 
L 425.108769 -391.394417 
L 427.555272 -394.964146 
L 430.019964 -395.081001 
L 432.463434 -396.088163 
L 434.903874 -389.144999 
L 437.508019 -375.532264 
L 440.060628 -287.065976 
L 442.592015 -383.228051 
L 445.068834 -354.226566 
L 447.530494 -368.948248 
L 449.986091 -397.066863 
L 452.441689 -398.925078 
L 454.888191 -402.152504 
L 457.334694 -399.511882 
L 459.778165 -402.543707 
L 462.212541 -403.864017 
L 464.662075 -399.609683 
L 467.111609 -399.26738 
L 469.558111 -399.071779 
L 472.001582 -402.690408 
L 474.435958 -401.370097 
L 476.873366 -371.545465 
L 479.541175 -378.289111 
L 482.051341 -400.000886 
L 484.488749 -397.458066 
L 486.941315 -399.560783 
L 489.399943 -398.533874 
L 491.828256 -397.164663 
L 494.265664 -400.294289 
L 496.739451 -349.926882 
L 499.276901 -385.673071 
L 501.738562 -382.836848 
L 504.191127 -398.387173 
L 506.646725 -391.506043 
L 509.084132 -398.04487 
L 511.545793 -397.311365 
L 514.049896 -317.075612 
L 516.511556 -185.207725 
L 518.991406 -322.047566 
L 521.474288 -398.876177 
L 523.92079 -401.467898 
L 526.376388 -399.805285 
L 528.819859 -401.614599 
L 531.284551 -398.374604 
L 533.743179 -399.414082 
L 536.22303 -400.196488 
L 538.678627 -397.800369 
L 541.116034 -402.201404 
L 543.601948 -390.123007 
L 546.093924 -392.403788 
L 548.56468 -392.674734 
L 551.02634 -401.859101 
L 553.481937 -401.908002 
L 555.934503 -400.098687 
L 558.377974 -401.321197 
L 560.824476 -362.407105 
L 563.280074 -376.427378 
L 565.732639 -393.138235 
L 568.185205 -400.245388 
L 570.640802 -402.543707 
L 573.081241 -402.739308 
L 575.530775 -402.103603 
L 577.977278 -401.6635 
L 580.454096 -403.130512 
L 582.909694 -397.262464 
L 585.404702 -400.392089 
L 587.902741 -386.846681 
L 590.525077 -389.047198 
L 593.014022 -386.048291 
L 595.478714 -398.925078 
L 597.928248 -395.904414 
L 600.365655 -401.7124 
L 602.809126 -399.21848 
L 605.270787 -402.445906 
L 607.708194 -403.081611 
L 610.139539 -401.859101 
L 612.573915 -401.174496 
L 615.065891 -395.355349 
L 617.527552 -401.418998 
L 620.007402 -398.093771 
L 622.466031 -399.316281 
L 624.939818 -398.533874 
L 627.389352 -398.778376 
L 629.838886 -395.942154 
L 632.303578 -400.343189 
L 634.75008 -394.083938 
L 637.181425 -399.609683 
L 639.627927 -398.827277 
L 642.071398 -403.032711 
L 644.514869 -399.365181 
L 646.955308 -403.032711 
L 649.386653 -399.854185 
L 651.884692 -325.57849 
L 654.358479 -378.956433 
L 656.817108 -396.537428 
L 659.275737 -401.565699 
L 661.731334 -388.949398 
L 664.338512 -396.284456 
L 666.851709 -395.844353 
L 669.340654 -395.697652 
L 671.805346 -402.201404 
L 674.248817 -400.294289 
L 676.707446 -399.120679 
L 676.707446 -403.961818 
L 676.707446 -403.961818 
L 674.248817 -403.961818 
L 671.805346 -403.961818 
L 669.340654 -403.961818 
L 666.851709 -403.961818 
L 664.338512 -403.961818 
L 661.731334 -403.961818 
L 659.275737 -403.961818 
L 656.817108 -403.961818 
L 654.358479 -403.961818 
L 651.884692 -403.961818 
L 649.386653 -403.961818 
L 646.955308 -403.961818 
L 644.514869 -403.961818 
L 642.071398 -403.961818 
L 639.627927 -403.961818 
L 637.181425 -403.961818 
L 634.75008 -403.961818 
L 632.303578 -403.961818 
L 629.838886 -403.961818 
L 627.389352 -403.961818 
L 624.939818 -403.961818 
L 622.466031 -403.961818 
L 620.007402 -403.961818 
L 617.527552 -403.961818 
L 615.065891 -403.961818 
L 612.573915 -403.961818 
L 610.139539 -403.961818 
L 607.708194 -403.961818 
L 605.270787 -403.961818 
L 602.809126 -403.961818 
L 600.365655 -403.961818 
L 597.928248 -403.961818 
L 595.478714 -403.961818 
L 593.014022 -403.961818 
L 590.525077 -403.961818 
L 587.902741 -403.961818 
L 585.404702 -403.961818 
L 582.909694 -403.961818 
L 580.454096 -403.961818 
L 577.977278 -403.961818 
L 575.530775 -403.961818 
L 573.081241 -403.961818 
L 570.640802 -403.961818 
L 568.185205 -403.961818 
L 565.732639 -403.961818 
L 563.280074 -403.961818 
L 560.824476 -403.961818 
L 558.377974 -403.961818 
L 555.934503 -403.961818 
L 553.481937 -403.961818 
L 551.02634 -403.961818 
L 548.56468 -403.961818 
L 546.093924 -403.961818 
L 543.601948 -403.961818 
L 541.116034 -403.961818 
L 538.678627 -403.961818 
L 536.22303 -403.961818 
L 533.743179 -403.961818 
L 531.284551 -403.961818 
L 528.819859 -403.961818 
L 526.376388 -403.961818 
L 523.92079 -403.961818 
L 521.474288 -403.961818 
L 518.991406 -403.961818 
L 516.511556 -403.961818 
L 514.049896 -403.961818 
L 511.545793 -403.961818 
L 509.084132 -403.961818 
L 506.646725 -403.961818 
L 504.191127 -403.961818 
L 501.738562 -403.961818 
L 499.276901 -403.961818 
L 496.739451 -403.961818 
L 494.265664 -403.961818 
L 491.828256 -403.961818 
L 489.399943 -403.961818 
L 486.941315 -403.961818 
L 484.488749 -403.961818 
L 482.051341 -403.961818 
L 479.541175 -403.961818 
L 476.873366 -403.961818 
L 474.435958 -403.961818 
L 472.001582 -403.961818 
L 469.558111 -403.961818 
L 467.111609 -403.961818 
L 464.662075 -403.961818 
L 462.212541 -403.961818 
L 459.778165 -403.961818 
L 457.334694 -403.961818 
L 454.888191 -403.961818 
L 452.441689 -403.961818 
L 449.986091 -403.961818 
L 447.530494 -403.961818 
L 445.068834 -403.961818 
L 442.592015 -403.961818 
L 440.060628 -403.961818 
L 437.508019 -403.961818 
L 434.903874 -403.961818 
L 432.463434 -403.961818 
L 430.019964 -403.961818 
L 427.555272 -403.961818 
L 425.108769 -403.961818 
L 422.656203 -403.961818 
L 420.179385 -403.961818 
L 417.666187 -403.961818 
L 415.05901 -403.961818 
L 412.606444 -403.961818 
L 410.1751 -403.961818 
L 407.728597 -403.961818 
L 405.257842 -403.961818 
L 402.81134 -403.961818 
L 400.367869 -403.961818 
L 397.933493 -403.961818 
L 395.490022 -403.961818 
L 393.037456 -403.961818 
L 390.60308 -403.961818 
L 388.18083 -403.961818 
L 385.755549 -403.961818 
L 383.299952 -403.961818 
L 380.777659 -403.961818 
L 378.249304 -403.961818 
L 375.711853 -403.961818 
L 373.213813 -403.961818 
L 370.758216 -403.961818 
L 368.290493 -403.961818 
L 365.8258 -403.961818 
L 363.358077 -403.961818 
L 360.920669 -403.961818 
L 358.465072 -403.961818 
L 356.042822 -403.961818 
L 353.620573 -403.961818 
L 351.177102 -403.961818 
L 348.727568 -403.961818 
L 346.259844 -403.961818 
L 343.831531 -403.961818 
L 341.375934 -403.961818 
L 338.90821 -403.961818 
L 336.431392 -403.961818 
L 333.863625 -403.961818 
L 331.31708 -403.961818 
L 328.885735 -403.961818 
L 326.445296 -403.961818 
L 324.004857 -403.961818 
L 321.567449 -403.961818 
L 319.10882 -403.961818 
L 316.650192 -403.961818 
L 314.200657 -403.961818 
L 311.757187 -403.961818 
L 309.292495 -403.961818 
L 306.824771 -403.961818 
L 304.357047 -403.961818 
L 301.874166 -403.961818 
L 299.400379 -403.961818 
L 296.908402 -403.961818 
L 294.343667 -403.961818 
L 291.739521 -403.961818 
L 289.156597 -403.961818 
L 286.661589 -403.961818 
L 284.118075 -403.961818 
L 281.568498 -403.961818 
L 279.085617 -403.961818 
L 276.584545 -403.961818 
L 273.756061 -403.961818 
L 270.624417 -403.961818 
L 268.141535 -403.961818 
L 265.704127 -403.961818 
L 263.254593 -403.961818 
L 260.805059 -403.961818 
L 258.36462 -403.961818 
L 255.915086 -403.961818 
L 253.471615 -403.961818 
L 251.043302 -403.961818 
L 248.681684 -403.961818 
L 246.429205 -403.961818 
L 243.99786 -403.961818 
L 241.566516 -403.961818 
L 239.347383 -403.961818 
L 236.913007 -403.961818 
L 234.502884 -403.961818 
L 232.156424 -403.961818 
L 229.791775 -403.961818 
L 227.348304 -403.961818 
L 224.907865 -403.961818 
L 222.482584 -403.961818 
L 220.048208 -403.961818 
L 217.613832 -403.961818 
L 215.182487 -403.961818 
L 212.754174 -403.961818 
L 210.325861 -403.961818 
L 207.888454 -403.961818 
L 205.43892 -403.961818 
L 203.010607 -403.961818 
L 200.579262 -403.961818 
L 198.144886 -403.961818 
L 195.704447 -403.961818 
L 193.267039 -403.961818 
L 190.829632 -403.961818 
L 188.389193 -403.961818 
L 185.957848 -403.961818 
L 183.511346 -403.961818 
L 181.083033 -403.961818 
L 178.651688 -403.961818 
L 176.211249 -403.961818 
L 173.779905 -403.961818 
L 171.330371 -403.961818 
L 168.892963 -403.961818 
L 166.461618 -403.961818 
L 164.021179 -403.961818 
L 161.592866 -403.961818 
L 159.170617 -403.961818 
L 156.733209 -403.961818 
L 154.283675 -403.961818 
L 151.849299 -403.961818 
L 149.411891 -403.961818 
L 146.959326 -403.961818 
L 144.500697 -403.961818 
L 142.039036 -403.961818 
L 139.589502 -403.961818 
L 137.130873 -403.961818 
L 134.672244 -403.961818 
L 132.177236 -403.961818 
L 129.679197 -403.961818 
L 127.190252 -403.961818 
L 124.625517 -403.961818 
L 122.072908 -403.961818 
L 119.486952 -403.961818 
L 116.540236 -393.883759 
L 113.502571 -376.084963 
L 110.440653 -366.977942 
L 107.284756 -342.983945 
L 104.113701 -319.514614 
L 100.982056 -314.006232 
L 97.938328 -289.406287 
L 94.934011 -261.354405 
L 92.090369 -252.651508 
L 89.274011 -247.538682 
L 86.312136 -240.753724 
L 83.453336 -240.184905 
L 80.661231 -229.81213 
L 77.787273 -227.702876 
z
" style="stroke: #0000ff; stroke-opacity: 0.2"/>
    </defs>
    <g clip-path="url(#p3632fa8306)">
     <use xlink:href="#m2fe0ca18e7" x="0" y="432" style="fill: #0000ff; fill-opacity: 0.2; stroke: #0000ff; stroke-opacity: 0.2"/>
    </g>
   </g>
   <g id="FillBetweenPolyCollection_2">
    <defs>
     <path id="me7f2738de8" d="M 77.83881 -214.212246 
L 77.83881 -64.199779 
L 80.676389 -66.474746 
L 83.501842 -67.042213 
L 86.263631 -71.093942 
L 89.08302 -67.722195 
L 91.881188 -74.404876 
L 94.697546 -71.371876 
L 97.568473 -74.330143 
L 100.333294 -72.487031 
L 103.210283 -70.058075 
L 106.075147 -72.819907 
L 108.876347 -74.678994 
L 111.644199 -61.739647 
L 114.521189 -78.342745 
L 117.407274 -76.019289 
L 120.323674 -73.694629 
L 123.200664 -73.122197 
L 125.992769 -73.998318 
L 128.869759 -69.764659 
L 131.771002 -74.205816 
L 134.699529 -62.811382 
L 137.515887 -70.334244 
L 140.32315 -73.071428 
L 143.260772 -74.179066 
L 146.155951 -69.301383 
L 149.051131 -77.170694 
L 151.809888 -68.295392 
L 154.714162 -73.03815 
L 157.521425 -69.792796 
L 160.374163 -73.276424 
L 163.20871 -67.41478 
L 166.079637 -73.665544 
L 168.874773 -69.266963 
L 171.606246 -64.325319 
L 174.619658 -68.183078 
L 177.472395 -65.768249 
L 180.337259 -76.942958 
L 183.147553 -63.607485 
L 185.9245 -66.681127 
L 188.749953 -68.507459 
L 191.639069 -70.166716 
L 194.494838 -66.494862 
L 197.296038 -71.425309 
L 200.197281 -74.566945 
L 203.040923 -75.223834 
L 205.920944 -78.126246 
L 208.797934 -73.99996 
L 211.70524 -74.176919 
L 214.654989 -72.316169 
L 217.47741 -66.310501 
L 220.396842 -65.658208 
L 223.2132 -70.43283 
L 226.108379 -76.970475 
L 228.955053 -74.598675 
L 231.980591 -65.337784 
L 234.775728 -71.578489 
L 237.667876 -70.807059 
L 240.654004 -72.451443 
L 243.540088 -76.695605 
L 246.362509 -71.508653 
L 249.209183 -74.157971 
L 252.019478 -70.624935 
L 254.753982 -72.118162 
L 257.649162 -67.806758 
L 260.604973 -78.342966 
L 263.484995 -73.44805 
L 266.419585 -70.714109 
L 269.208659 -70.361301 
L 272.064427 -75.422153 
L 274.838343 -68.195902 
L 277.697143 -74.485821 
L 280.543817 -78.64982 
L 283.442028 -69.269195 
L 286.237165 -74.47898 
L 289.074744 -74.698131 
L 291.957797 -76.202359 
L 294.801439 -78.113895 
L 297.71784 -74.989297 
L 300.55845 -72.736116 
L 303.396029 -71.418783 
L 306.345778 -72.720081 
L 309.280368 -78.489334 
L 312.163421 -70.164114 
L 315.031316 -68.543956 
L 317.935591 -73.88181 
L 320.83077 -64.769176 
L 323.695634 -69.475502 
L 326.605971 -74.720149 
L 329.413234 -69.687949 
L 332.265971 -71.571075 
L 335.124771 -68.431973 
L 337.929003 -67.41632 
L 340.769614 -66.275577 
L 343.573845 -65.345681 
L 346.532688 -76.179398 
L 349.400583 -68.010638 
L 352.262415 -59.395036 
L 355.018141 -63.383125 
L 357.91332 -72.413596 
L 360.641762 -61.706788 
L 363.479341 -72.474058 
L 366.453342 -78.663164 
L 369.278795 -73.48864 
L 372.119405 -68.061759 
L 374.9297 -67.900031 
L 377.815785 -64.145456 
L 380.5897 -71.278708 
L 383.4485 -73.023425 
L 386.328522 -68.750099 
L 389.247954 -78.473962 
L 392.06128 -65.05237 
L 394.810943 -65.222926 
L 397.633364 -67.579219 
L 400.437596 -69.776391 
L 403.087215 -68.457265 
L 405.939952 -73.922568 
L 408.792689 -80.619326 
L 411.657553 -66.448077 
L 414.583048 -69.400945 
L 417.44488 -68.747141 
L 420.282459 -66.705395 
L 423.256461 -78.64135 
L 426.148608 -62.110701 
L 428.967998 -71.597075 
L 431.851051 -69.190175 
L 434.61284 -72.83405 
L 437.392819 -72.655137 
L 440.148544 -61.131274 
L 443.010376 -69.453621 
L 445.763071 -73.815973 
L 448.52486 -74.111555 
L 451.338186 -64.912977 
L 454.227302 -71.158121 
L 457.064881 -77.852454 
L 459.963092 -75.39382 
L 462.85524 -69.10645 
L 465.75042 -61.297614 
L 468.612251 -74.813089 
L 471.501368 -70.754203 
L 474.302568 -61.672478 
L 477.073451 -66.958568 
L 479.859493 -65.26989 
L 482.642504 -69.525079 
L 485.467956 -67.00431 
L 488.278251 -65.94771 
L 491.046103 -62.336111 
L 493.856398 -68.229479 
L 496.715198 -68.973093 
L 499.437576 -74.628543 
L 502.281218 -64.015341 
L 505.173366 -71.473065 
L 507.96244 -69.034381 
L 510.739387 -77.322255 
L 513.62244 -77.461035 
L 516.572188 -74.926122 
L 519.379451 -68.629656 
L 522.295852 -67.726256 
L 525.115241 -75.508281 
L 527.898252 -70.780484 
L 530.702483 -74.155525 
L 533.543094 -64.970037 
L 536.371578 -70.41877 
L 539.200062 -68.028629 
L 541.922441 -67.533406 
L 544.735767 -66.101039 
L 547.640041 -69.29502 
L 550.544315 -80.101924 
L 553.466779 -65.76566 
L 556.240695 -72.01247 
L 559.199538 -70.868776 
L 562.015896 -71.867727 
L 564.835285 -72.836158 
L 567.62739 -70.471876 
L 570.380084 -69.194017 
L 573.172189 -68.246769 
L 575.982484 -59.198182 
L 578.829158 -73.719307 
L 581.706148 -71.313028 
L 584.577075 -71.282834 
L 587.435875 -67.495201 
L 590.370465 -67.312187 
L 593.150444 -65.507981 
L 595.972865 -73.08623 
L 598.883202 -72.554111 
L 601.684402 -67.982109 
L 604.625056 -72.850944 
L 607.477793 -78.647858 
L 610.397225 -73.645975 
L 613.368195 -65.930217 
L 616.205774 -72.76858 
L 618.952405 -73.453304 
L 621.826363 -74.328484 
L 624.688195 -72.81396 
L 627.562153 -73.466363 
L 630.278468 -69.324102 
L 633.149395 -71.83013 
L 635.974847 -77.221939 
L 638.848806 -76.229019 
L 641.743985 -67.898039 
L 644.557311 -70.793293 
L 647.388827 -70.503857 
L 650.332512 -76.77655 
L 653.097333 -67.569824 
L 655.947039 -65.750516 
L 658.939229 -81.22245 
L 661.813188 -71.926574 
L 664.726557 -80.088948 
L 667.633863 -74.10136 
L 670.507821 -72.472782 
L 673.339337 -66.709973 
L 676.210263 -72.581731 
L 679.132727 -66.87985 
L 679.132727 -215.785769 
L 679.132727 -215.785769 
L 676.210263 -230.096033 
L 673.339337 -214.618803 
L 670.507821 -213.919795 
L 667.633863 -220.676873 
L 664.726557 -220.279722 
L 661.813188 -221.636346 
L 658.939229 -226.802689 
L 655.947039 -216.793572 
L 653.097333 -220.48368 
L 650.332512 -220.796901 
L 647.388827 -219.81823 
L 644.557311 -210.211399 
L 641.743985 -208.934081 
L 638.848806 -230.094682 
L 635.974847 -219.1362 
L 633.149395 -214.359895 
L 630.278468 -209.69558 
L 627.562153 -207.497818 
L 624.688195 -228.121855 
L 621.826363 -218.343207 
L 618.952405 -215.045815 
L 616.205774 -226.263247 
L 613.368195 -224.067786 
L 610.397225 -225.466873 
L 607.477793 -225.650322 
L 604.625056 -220.10432 
L 601.684402 -221.165176 
L 598.883202 -211.610393 
L 595.972865 -225.33794 
L 593.150444 -212.863534 
L 590.370465 -216.892828 
L 587.435875 -217.479512 
L 584.577075 -215.231274 
L 581.706148 -217.06456 
L 578.829158 -217.49401 
L 575.982484 -215.405864 
L 573.172189 -204.534309 
L 570.380084 -208.893925 
L 567.62739 -219.202045 
L 564.835285 -226.600772 
L 562.015896 -224.773985 
L 559.199538 -207.178655 
L 556.240695 -217.053794 
L 553.466779 -217.467105 
L 550.544315 -224.844423 
L 547.640041 -213.735193 
L 544.735767 -211.217205 
L 541.922441 -213.997922 
L 539.200062 -212.408917 
L 536.371578 -213.502672 
L 533.543094 -217.087925 
L 530.702483 -219.002291 
L 527.898252 -218.731395 
L 525.115241 -217.609026 
L 522.295852 -208.984332 
L 519.379451 -218.411087 
L 516.572188 -213.897081 
L 513.62244 -225.33826 
L 510.739387 -224.221218 
L 507.96244 -212.658988 
L 505.173366 -214.635939 
L 502.281218 -218.123642 
L 499.437576 -210.4677 
L 496.715198 -208.588215 
L 493.856398 -216.785744 
L 491.046103 -217.048164 
L 488.278251 -224.738971 
L 485.467956 -213.554767 
L 482.642504 -216.05729 
L 479.859493 -211.926822 
L 477.073451 -217.165425 
L 474.302568 -207.057558 
L 471.501368 -218.474104 
L 468.612251 -219.438509 
L 465.75042 -215.818077 
L 462.85524 -210.480377 
L 459.963092 -216.103069 
L 457.064881 -225.473476 
L 454.227302 -218.191717 
L 451.338186 -214.511808 
L 448.52486 -212.605105 
L 445.763071 -221.488895 
L 443.010376 -210.133206 
L 440.148544 -209.259689 
L 437.392819 -219.814003 
L 434.61284 -216.596808 
L 431.851051 -213.840038 
L 428.967998 -221.844314 
L 426.148608 -214.478356 
L 423.256461 -225.778362 
L 420.282459 -216.608391 
L 417.44488 -212.541124 
L 414.583048 -218.044903 
L 411.657553 -214.151511 
L 408.792689 -229.755417 
L 405.939952 -215.265228 
L 403.087215 -211.170073 
L 400.437596 -209.972478 
L 397.633364 -192.441079 
L 394.810943 -209.867246 
L 392.06128 -211.334135 
L 389.247954 -218.289282 
L 386.328522 -212.416635 
L 383.4485 -214.462933 
L 380.5897 -214.101109 
L 377.815785 -214.185548 
L 374.9297 -207.554734 
L 372.119405 -218.614391 
L 369.278795 -223.234094 
L 366.453342 -223.690516 
L 363.479341 -219.427935 
L 360.641762 -221.039851 
L 357.91332 -220.825241 
L 355.018141 -225.156504 
L 352.262415 -215.654625 
L 349.400583 -216.396928 
L 346.532688 -213.778096 
L 343.573845 -210.352147 
L 340.769614 -211.609813 
L 337.929003 -215.168278 
L 335.124771 -216.866823 
L 332.265971 -221.303168 
L 329.413234 -212.207972 
L 326.605971 -211.267324 
L 323.695634 -219.42872 
L 320.83077 -207.647307 
L 317.935591 -214.981903 
L 315.031316 -218.010663 
L 312.163421 -214.283964 
L 309.280368 -229.697847 
L 306.345778 -223.678569 
L 303.396029 -224.777314 
L 300.55845 -215.357899 
L 297.71784 -217.722905 
L 294.801439 -222.416817 
L 291.957797 -221.452113 
L 289.074744 -218.338155 
L 286.237165 -214.587285 
L 283.442028 -215.867559 
L 280.543817 -228.605621 
L 277.697143 -218.469443 
L 274.838343 -216.292685 
L 272.064427 -219.234549 
L 269.208659 -219.596192 
L 266.419585 -217.460927 
L 263.484995 -217.076589 
L 260.604973 -229.3986 
L 257.649162 -215.426006 
L 254.753982 -209.899291 
L 252.019478 -216.699381 
L 249.209183 -229.330001 
L 246.362509 -220.676914 
L 243.540088 -225.252971 
L 240.654004 -225.891706 
L 237.667876 -214.289185 
L 234.775728 -214.895109 
L 231.980591 -215.86946 
L 228.955053 -217.222298 
L 226.108379 -220.035831 
L 223.2132 -219.727216 
L 220.396842 -214.819849 
L 217.47741 -215.342357 
L 214.654989 -221.449303 
L 211.70524 -215.618533 
L 208.797934 -211.947003 
L 205.920944 -219.285165 
L 203.040923 -225.630961 
L 200.197281 -217.010966 
L 197.296038 -219.828518 
L 194.494838 -214.104725 
L 191.639069 -217.522194 
L 188.749953 -210.188139 
L 185.9245 -218.091034 
L 183.147553 -220.394978 
L 180.337259 -221.764786 
L 177.472395 -207.09385 
L 174.619658 -213.267229 
L 171.606246 -213.033436 
L 168.874773 -213.641719 
L 166.079637 -223.219231 
L 163.20871 -214.724203 
L 160.374163 -222.960184 
L 157.521425 -217.53152 
L 154.714162 -215.623011 
L 151.809888 -211.129394 
L 149.051131 -226.276768 
L 146.155951 -208.138393 
L 143.260772 -211.929939 
L 140.32315 -217.696274 
L 137.515887 -213.465666 
L 134.699529 -214.709414 
L 131.771002 -218.182303 
L 128.869759 -216.952001 
L 125.992769 -216.688363 
L 123.200664 -219.833068 
L 120.323674 -218.65298 
L 117.407274 -226.415412 
L 114.521189 -222.714603 
L 111.644199 -223.316086 
L 108.876347 -220.625875 
L 106.075147 -202.148734 
L 103.210283 -219.899418 
L 100.333294 -223.0609 
L 97.568473 -212.629581 
L 94.697546 -214.372534 
L 91.881188 -212.676378 
L 89.08302 -208.78584 
L 86.263631 -221.334686 
L 83.501842 -218.702197 
L 80.676389 -214.97556 
L 77.83881 -214.212246 
z
" style="stroke: #ffa500; stroke-opacity: 0.2"/>
    </defs>
    <g clip-path="url(#p3632fa8306)">
     <use xlink:href="#me7f2738de8" x="0" y="432" style="fill: #ffa500; fill-opacity: 0.2; stroke: #ffa500; stroke-opacity: 0.2"/>
    </g>
   </g>
   <g id="matplotlib.axis_1">
    <g id="xtick_1">
     <g id="line2d_1">
      <path d="M 76.416989 390.04 
L 76.416989 10.8 
" clip-path="url(#p3632fa8306)" style="fill: none; stroke: #b0b0b0; stroke-width: 0.8; stroke-linecap: square"/>
     </g>
     <g id="line2d_2">
      <defs>
       <path id="me4b8beb5cd" d="M 0 0 
L 0 3.5 
" style="stroke: #000000; stroke-width: 0.8"/>
      </defs>
      <g>
       <use xlink:href="#me4b8beb5cd" x="76.416989" y="390.04" style="stroke: #000000; stroke-width: 0.8"/>
      </g>
     </g>
     <g id="text_1">
      <!-- 0 -->
      <g transform="translate(73.235739 404.638438) scale(0.1 -0.1)">
       <defs>
        <path id="DejaVuSans-30" d="M 2034 4250 
Q 1547 4250 1301 3770 
Q 1056 3291 1056 2328 
Q 1056 1369 1301 889 
Q 1547 409 2034 409 
Q 2525 409 2770 889 
Q 3016 1369 3016 2328 
Q 3016 3291 2770 3770 
Q 2525 4250 2034 4250 
z
M 2034 4750 
Q 2819 4750 3233 4129 
Q 3647 3509 3647 2328 
Q 3647 1150 3233 529 
Q 2819 -91 2034 -91 
Q 1250 -91 836 529 
Q 422 1150 422 2328 
Q 422 3509 836 4129 
Q 1250 4750 2034 4750 
z
" transform="scale(0.015625)"/>
       </defs>
       <use xlink:href="#DejaVuSans-30"/>
      </g>
     </g>
    </g>
    <g id="xtick_2">
     <g id="line2d_3">
      <path d="M 152.207028 390.04 
L 152.207028 10.8 
" clip-path="url(#p3632fa8306)" style="fill: none; stroke: #b0b0b0; stroke-width: 0.8; stroke-linecap: square"/>
     </g>
     <g id="line2d_4">
      <g>
       <use xlink:href="#me4b8beb5cd" x="152.207028" y="390.04" style="stroke: #000000; stroke-width: 0.8"/>
      </g>
     </g>
     <g id="text_2">
      <!-- 25000 -->
      <g transform="translate(136.300778 404.638438) scale(0.1 -0.1)">
       <defs>
        <path id="DejaVuSans-32" d="M 1228 531 
L 3431 531 
L 3431 0 
L 469 0 
L 469 531 
Q 828 903 1448 1529 
Q 2069 2156 2228 2338 
Q 2531 2678 2651 2914 
Q 2772 3150 2772 3378 
Q 2772 3750 2511 3984 
Q 2250 4219 1831 4219 
Q 1534 4219 1204 4116 
Q 875 4013 500 3803 
L 500 4441 
Q 881 4594 1212 4672 
Q 1544 4750 1819 4750 
Q 2544 4750 2975 4387 
Q 3406 4025 3406 3419 
Q 3406 3131 3298 2873 
Q 3191 2616 2906 2266 
Q 2828 2175 2409 1742 
Q 1991 1309 1228 531 
z
" transform="scale(0.015625)"/>
        <path id="DejaVuSans-35" d="M 691 4666 
L 3169 4666 
L 3169 4134 
L 1269 4134 
L 1269 2991 
Q 1406 3038 1543 3061 
Q 1681 3084 1819 3084 
Q 2600 3084 3056 2656 
Q 3513 2228 3513 1497 
Q 3513 744 3044 326 
Q 2575 -91 1722 -91 
Q 1428 -91 1123 -41 
Q 819 9 494 109 
L 494 744 
Q 775 591 1075 516 
Q 1375 441 1709 441 
Q 2250 441 2565 725 
Q 2881 1009 2881 1497 
Q 2881 1984 2565 2268 
Q 2250 2553 1709 2553 
Q 1456 2553 1204 2497 
Q 953 2441 691 2322 
L 691 4666 
z
" transform="scale(0.015625)"/>
       </defs>
       <use xlink:href="#DejaVuSans-32"/>
       <use xlink:href="#DejaVuSans-35" transform="translate(63.623047 0)"/>
       <use xlink:href="#DejaVuSans-30" transform="translate(127.246094 0)"/>
       <use xlink:href="#DejaVuSans-30" transform="translate(190.869141 0)"/>
       <use xlink:href="#DejaVuSans-30" transform="translate(254.492188 0)"/>
      </g>
     </g>
    </g>
    <g id="xtick_3">
     <g id="line2d_5">
      <path d="M 227.997067 390.04 
L 227.997067 10.8 
" clip-path="url(#p3632fa8306)" style="fill: none; stroke: #b0b0b0; stroke-width: 0.8; stroke-linecap: square"/>
     </g>
     <g id="line2d_6">
      <g>
       <use xlink:href="#me4b8beb5cd" x="227.997067" y="390.04" style="stroke: #000000; stroke-width: 0.8"/>
      </g>
     </g>
     <g id="text_3">
      <!-- 50000 -->
      <g transform="translate(212.090817 404.638438) scale(0.1 -0.1)">
       <use xlink:href="#DejaVuSans-35"/>
       <use xlink:href="#DejaVuSans-30" transform="translate(63.623047 0)"/>
       <use xlink:href="#DejaVuSans-30" transform="translate(127.246094 0)"/>
       <use xlink:href="#DejaVuSans-30" transform="translate(190.869141 0)"/>
       <use xlink:href="#DejaVuSans-30" transform="translate(254.492188 0)"/>
      </g>
     </g>
    </g>
    <g id="xtick_4">
     <g id="line2d_7">
      <path d="M 303.787106 390.04 
L 303.787106 10.8 
" clip-path="url(#p3632fa8306)" style="fill: none; stroke: #b0b0b0; stroke-width: 0.8; stroke-linecap: square"/>
     </g>
     <g id="line2d_8">
      <g>
       <use xlink:href="#me4b8beb5cd" x="303.787106" y="390.04" style="stroke: #000000; stroke-width: 0.8"/>
      </g>
     </g>
     <g id="text_4">
      <!-- 75000 -->
      <g transform="translate(287.880856 404.638438) scale(0.1 -0.1)">
       <defs>
        <path id="DejaVuSans-37" d="M 525 4666 
L 3525 4666 
L 3525 4397 
L 1831 0 
L 1172 0 
L 2766 4134 
L 525 4134 
L 525 4666 
z
" transform="scale(0.015625)"/>
       </defs>
       <use xlink:href="#DejaVuSans-37"/>
       <use xlink:href="#DejaVuSans-35" transform="translate(63.623047 0)"/>
       <use xlink:href="#DejaVuSans-30" transform="translate(127.246094 0)"/>
       <use xlink:href="#DejaVuSans-30" transform="translate(190.869141 0)"/>
       <use xlink:href="#DejaVuSans-30" transform="translate(254.492188 0)"/>
      </g>
     </g>
    </g>
    <g id="xtick_5">
     <g id="line2d_9">
      <path d="M 379.577145 390.04 
L 379.577145 10.8 
" clip-path="url(#p3632fa8306)" style="fill: none; stroke: #b0b0b0; stroke-width: 0.8; stroke-linecap: square"/>
     </g>
     <g id="line2d_10">
      <g>
       <use xlink:href="#me4b8beb5cd" x="379.577145" y="390.04" style="stroke: #000000; stroke-width: 0.8"/>
      </g>
     </g>
     <g id="text_5">
      <!-- 100000 -->
      <g transform="translate(360.489645 404.638438) scale(0.1 -0.1)">
       <defs>
        <path id="DejaVuSans-31" d="M 794 531 
L 1825 531 
L 1825 4091 
L 703 3866 
L 703 4441 
L 1819 4666 
L 2450 4666 
L 2450 531 
L 3481 531 
L 3481 0 
L 794 0 
L 794 531 
z
" transform="scale(0.015625)"/>
       </defs>
       <use xlink:href="#DejaVuSans-31"/>
       <use xlink:href="#DejaVuSans-30" transform="translate(63.623047 0)"/>
       <use xlink:href="#DejaVuSans-30" transform="translate(127.246094 0)"/>
       <use xlink:href="#DejaVuSans-30" transform="translate(190.869141 0)"/>
       <use xlink:href="#DejaVuSans-30" transform="translate(254.492188 0)"/>
       <use xlink:href="#DejaVuSans-30" transform="translate(318.115234 0)"/>
      </g>
     </g>
    </g>
    <g id="xtick_6">
     <g id="line2d_11">
      <path d="M 455.367184 390.04 
L 455.367184 10.8 
" clip-path="url(#p3632fa8306)" style="fill: none; stroke: #b0b0b0; stroke-width: 0.8; stroke-linecap: square"/>
     </g>
     <g id="line2d_12">
      <g>
       <use xlink:href="#me4b8beb5cd" x="455.367184" y="390.04" style="stroke: #000000; stroke-width: 0.8"/>
      </g>
     </g>
     <g id="text_6">
      <!-- 125000 -->
      <g transform="translate(436.279684 404.638438) scale(0.1 -0.1)">
       <use xlink:href="#DejaVuSans-31"/>
       <use xlink:href="#DejaVuSans-32" transform="translate(63.623047 0)"/>
       <use xlink:href="#DejaVuSans-35" transform="translate(127.246094 0)"/>
       <use xlink:href="#DejaVuSans-30" transform="translate(190.869141 0)"/>
       <use xlink:href="#DejaVuSans-30" transform="translate(254.492188 0)"/>
       <use xlink:href="#DejaVuSans-30" transform="translate(318.115234 0)"/>
      </g>
     </g>
    </g>
    <g id="xtick_7">
     <g id="line2d_13">
      <path d="M 531.157223 390.04 
L 531.157223 10.8 
" clip-path="url(#p3632fa8306)" style="fill: none; stroke: #b0b0b0; stroke-width: 0.8; stroke-linecap: square"/>
     </g>
     <g id="line2d_14">
      <g>
       <use xlink:href="#me4b8beb5cd" x="531.157223" y="390.04" style="stroke: #000000; stroke-width: 0.8"/>
      </g>
     </g>
     <g id="text_7">
      <!-- 150000 -->
      <g transform="translate(512.069723 404.638438) scale(0.1 -0.1)">
       <use xlink:href="#DejaVuSans-31"/>
       <use xlink:href="#DejaVuSans-35" transform="translate(63.623047 0)"/>
       <use xlink:href="#DejaVuSans-30" transform="translate(127.246094 0)"/>
       <use xlink:href="#DejaVuSans-30" transform="translate(190.869141 0)"/>
       <use xlink:href="#DejaVuSans-30" transform="translate(254.492188 0)"/>
       <use xlink:href="#DejaVuSans-30" transform="translate(318.115234 0)"/>
      </g>
     </g>
    </g>
    <g id="xtick_8">
     <g id="line2d_15">
      <path d="M 606.947262 390.04 
L 606.947262 10.8 
" clip-path="url(#p3632fa8306)" style="fill: none; stroke: #b0b0b0; stroke-width: 0.8; stroke-linecap: square"/>
     </g>
     <g id="line2d_16">
      <g>
       <use xlink:href="#me4b8beb5cd" x="606.947262" y="390.04" style="stroke: #000000; stroke-width: 0.8"/>
      </g>
     </g>
     <g id="text_8">
      <!-- 175000 -->
      <g transform="translate(587.859762 404.638438) scale(0.1 -0.1)">
       <use xlink:href="#DejaVuSans-31"/>
       <use xlink:href="#DejaVuSans-37" transform="translate(63.623047 0)"/>
       <use xlink:href="#DejaVuSans-35" transform="translate(127.246094 0)"/>
       <use xlink:href="#DejaVuSans-30" transform="translate(190.869141 0)"/>
       <use xlink:href="#DejaVuSans-30" transform="translate(254.492188 0)"/>
       <use xlink:href="#DejaVuSans-30" transform="translate(318.115234 0)"/>
      </g>
     </g>
    </g>
    <g id="xtick_9">
     <g id="line2d_17">
      <path d="M 682.737302 390.04 
L 682.737302 10.8 
" clip-path="url(#p3632fa8306)" style="fill: none; stroke: #b0b0b0; stroke-width: 0.8; stroke-linecap: square"/>
     </g>
     <g id="line2d_18">
      <g>
       <use xlink:href="#me4b8beb5cd" x="682.737302" y="390.04" style="stroke: #000000; stroke-width: 0.8"/>
      </g>
     </g>
     <g id="text_9">
      <!-- 200000 -->
      <g transform="translate(663.649802 404.638438) scale(0.1 -0.1)">
       <use xlink:href="#DejaVuSans-32"/>
       <use xlink:href="#DejaVuSans-30" transform="translate(63.623047 0)"/>
       <use xlink:href="#DejaVuSans-30" transform="translate(127.246094 0)"/>
       <use xlink:href="#DejaVuSans-30" transform="translate(190.869141 0)"/>
       <use xlink:href="#DejaVuSans-30" transform="translate(254.492188 0)"/>
       <use xlink:href="#DejaVuSans-30" transform="translate(318.115234 0)"/>
      </g>
     </g>
    </g>
    <g id="text_10">
     <!-- Steps -->
     <g transform="translate(364.470156 418.316562) scale(0.1 -0.1)">
      <defs>
       <path id="DejaVuSans-53" d="M 3425 4513 
L 3425 3897 
Q 3066 4069 2747 4153 
Q 2428 4238 2131 4238 
Q 1616 4238 1336 4038 
Q 1056 3838 1056 3469 
Q 1056 3159 1242 3001 
Q 1428 2844 1947 2747 
L 2328 2669 
Q 3034 2534 3370 2195 
Q 3706 1856 3706 1288 
Q 3706 609 3251 259 
Q 2797 -91 1919 -91 
Q 1588 -91 1214 -16 
Q 841 59 441 206 
L 441 856 
Q 825 641 1194 531 
Q 1563 422 1919 422 
Q 2459 422 2753 634 
Q 3047 847 3047 1241 
Q 3047 1584 2836 1778 
Q 2625 1972 2144 2069 
L 1759 2144 
Q 1053 2284 737 2584 
Q 422 2884 422 3419 
Q 422 4038 858 4394 
Q 1294 4750 2059 4750 
Q 2388 4750 2728 4690 
Q 3069 4631 3425 4513 
z
" transform="scale(0.015625)"/>
       <path id="DejaVuSans-74" d="M 1172 4494 
L 1172 3500 
L 2356 3500 
L 2356 3053 
L 1172 3053 
L 1172 1153 
Q 1172 725 1289 603 
Q 1406 481 1766 481 
L 2356 481 
L 2356 0 
L 1766 0 
Q 1100 0 847 248 
Q 594 497 594 1153 
L 594 3053 
L 172 3053 
L 172 3500 
L 594 3500 
L 594 4494 
L 1172 4494 
z
" transform="scale(0.015625)"/>
       <path id="DejaVuSans-65" d="M 3597 1894 
L 3597 1613 
L 953 1613 
Q 991 1019 1311 708 
Q 1631 397 2203 397 
Q 2534 397 2845 478 
Q 3156 559 3463 722 
L 3463 178 
Q 3153 47 2828 -22 
Q 2503 -91 2169 -91 
Q 1331 -91 842 396 
Q 353 884 353 1716 
Q 353 2575 817 3079 
Q 1281 3584 2069 3584 
Q 2775 3584 3186 3129 
Q 3597 2675 3597 1894 
z
M 3022 2063 
Q 3016 2534 2758 2815 
Q 2500 3097 2075 3097 
Q 1594 3097 1305 2825 
Q 1016 2553 972 2059 
L 3022 2063 
z
" transform="scale(0.015625)"/>
       <path id="DejaVuSans-70" d="M 1159 525 
L 1159 -1331 
L 581 -1331 
L 581 3500 
L 1159 3500 
L 1159 2969 
Q 1341 3281 1617 3432 
Q 1894 3584 2278 3584 
Q 2916 3584 3314 3078 
Q 3713 2572 3713 1747 
Q 3713 922 3314 415 
Q 2916 -91 2278 -91 
Q 1894 -91 1617 61 
Q 1341 213 1159 525 
z
M 3116 1747 
Q 3116 2381 2855 2742 
Q 2594 3103 2138 3103 
Q 1681 3103 1420 2742 
Q 1159 2381 1159 1747 
Q 1159 1113 1420 752 
Q 1681 391 2138 391 
Q 2594 391 2855 752 
Q 3116 1113 3116 1747 
z
" transform="scale(0.015625)"/>
       <path id="DejaVuSans-73" d="M 2834 3397 
L 2834 2853 
Q 2591 2978 2328 3040 
Q 2066 3103 1784 3103 
Q 1356 3103 1142 2972 
Q 928 2841 928 2578 
Q 928 2378 1081 2264 
Q 1234 2150 1697 2047 
L 1894 2003 
Q 2506 1872 2764 1633 
Q 3022 1394 3022 966 
Q 3022 478 2636 193 
Q 2250 -91 1575 -91 
Q 1294 -91 989 -36 
Q 684 19 347 128 
L 347 722 
Q 666 556 975 473 
Q 1284 391 1588 391 
Q 1994 391 2212 530 
Q 2431 669 2431 922 
Q 2431 1156 2273 1281 
Q 2116 1406 1581 1522 
L 1381 1569 
Q 847 1681 609 1914 
Q 372 2147 372 2553 
Q 372 3047 722 3315 
Q 1072 3584 1716 3584 
Q 2034 3584 2315 3537 
Q 2597 3491 2834 3397 
z
" transform="scale(0.015625)"/>
      </defs>
      <use xlink:href="#DejaVuSans-53"/>
      <use xlink:href="#DejaVuSans-74" transform="translate(63.476562 0)"/>
      <use xlink:href="#DejaVuSans-65" transform="translate(102.685547 0)"/>
      <use xlink:href="#DejaVuSans-70" transform="translate(164.208984 0)"/>
      <use xlink:href="#DejaVuSans-73" transform="translate(227.685547 0)"/>
     </g>
    </g>
   </g>
   <g id="matplotlib.axis_2">
    <g id="ytick_1">
     <g id="line2d_19">
      <path d="M 47.72 356.172538 
L 709.2 356.172538 
" clip-path="url(#p3632fa8306)" style="fill: none; stroke: #b0b0b0; stroke-width: 0.8; stroke-linecap: square"/>
     </g>
     <g id="line2d_20">
      <defs>
       <path id="m87adc924fd" d="M 0 0 
L -3.5 0 
" style="stroke: #000000; stroke-width: 0.8"/>
      </defs>
      <g>
       <use xlink:href="#m87adc924fd" x="47.72" y="356.172538" style="stroke: #000000; stroke-width: 0.8"/>
      </g>
     </g>
     <g id="text_11">
      <!-- 0.4 -->
      <g transform="translate(24.816875 359.971757) scale(0.1 -0.1)">
       <defs>
        <path id="DejaVuSans-2e" d="M 684 794 
L 1344 794 
L 1344 0 
L 684 0 
L 684 794 
z
" transform="scale(0.015625)"/>
        <path id="DejaVuSans-34" d="M 2419 4116 
L 825 1625 
L 2419 1625 
L 2419 4116 
z
M 2253 4666 
L 3047 4666 
L 3047 1625 
L 3713 1625 
L 3713 1100 
L 3047 1100 
L 3047 0 
L 2419 0 
L 2419 1100 
L 313 1100 
L 313 1709 
L 2253 4666 
z
" transform="scale(0.015625)"/>
       </defs>
       <use xlink:href="#DejaVuSans-30"/>
       <use xlink:href="#DejaVuSans-2e" transform="translate(63.623047 0)"/>
       <use xlink:href="#DejaVuSans-34" transform="translate(95.410156 0)"/>
      </g>
     </g>
    </g>
    <g id="ytick_2">
     <g id="line2d_21">
      <path d="M 47.72 301.483479 
L 709.2 301.483479 
" clip-path="url(#p3632fa8306)" style="fill: none; stroke: #b0b0b0; stroke-width: 0.8; stroke-linecap: square"/>
     </g>
     <g id="line2d_22">
      <g>
       <use xlink:href="#m87adc924fd" x="47.72" y="301.483479" style="stroke: #000000; stroke-width: 0.8"/>
      </g>
     </g>
     <g id="text_12">
      <!-- 0.5 -->
      <g transform="translate(24.816875 305.282698) scale(0.1 -0.1)">
       <use xlink:href="#DejaVuSans-30"/>
       <use xlink:href="#DejaVuSans-2e" transform="translate(63.623047 0)"/>
       <use xlink:href="#DejaVuSans-35" transform="translate(95.410156 0)"/>
      </g>
     </g>
    </g>
    <g id="ytick_3">
     <g id="line2d_23">
      <path d="M 47.72 246.794419 
L 709.2 246.794419 
" clip-path="url(#p3632fa8306)" style="fill: none; stroke: #b0b0b0; stroke-width: 0.8; stroke-linecap: square"/>
     </g>
     <g id="line2d_24">
      <g>
       <use xlink:href="#m87adc924fd" x="47.72" y="246.794419" style="stroke: #000000; stroke-width: 0.8"/>
      </g>
     </g>
     <g id="text_13">
      <!-- 0.6 -->
      <g transform="translate(24.816875 250.593638) scale(0.1 -0.1)">
       <defs>
        <path id="DejaVuSans-36" d="M 2113 2584 
Q 1688 2584 1439 2293 
Q 1191 2003 1191 1497 
Q 1191 994 1439 701 
Q 1688 409 2113 409 
Q 2538 409 2786 701 
Q 3034 994 3034 1497 
Q 3034 2003 2786 2293 
Q 2538 2584 2113 2584 
z
M 3366 4563 
L 3366 3988 
Q 3128 4100 2886 4159 
Q 2644 4219 2406 4219 
Q 1781 4219 1451 3797 
Q 1122 3375 1075 2522 
Q 1259 2794 1537 2939 
Q 1816 3084 2150 3084 
Q 2853 3084 3261 2657 
Q 3669 2231 3669 1497 
Q 3669 778 3244 343 
Q 2819 -91 2113 -91 
Q 1303 -91 875 529 
Q 447 1150 447 2328 
Q 447 3434 972 4092 
Q 1497 4750 2381 4750 
Q 2619 4750 2861 4703 
Q 3103 4656 3366 4563 
z
" transform="scale(0.015625)"/>
       </defs>
       <use xlink:href="#DejaVuSans-30"/>
       <use xlink:href="#DejaVuSans-2e" transform="translate(63.623047 0)"/>
       <use xlink:href="#DejaVuSans-36" transform="translate(95.410156 0)"/>
      </g>
     </g>
    </g>
    <g id="ytick_4">
     <g id="line2d_25">
      <path d="M 47.72 192.10536 
L 709.2 192.10536 
" clip-path="url(#p3632fa8306)" style="fill: none; stroke: #b0b0b0; stroke-width: 0.8; stroke-linecap: square"/>
     </g>
     <g id="line2d_26">
      <g>
       <use xlink:href="#m87adc924fd" x="47.72" y="192.10536" style="stroke: #000000; stroke-width: 0.8"/>
      </g>
     </g>
     <g id="text_14">
      <!-- 0.7 -->
      <g transform="translate(24.816875 195.904579) scale(0.1 -0.1)">
       <use xlink:href="#DejaVuSans-30"/>
       <use xlink:href="#DejaVuSans-2e" transform="translate(63.623047 0)"/>
       <use xlink:href="#DejaVuSans-37" transform="translate(95.410156 0)"/>
      </g>
     </g>
    </g>
    <g id="ytick_5">
     <g id="line2d_27">
      <path d="M 47.72 137.416301 
L 709.2 137.416301 
" clip-path="url(#p3632fa8306)" style="fill: none; stroke: #b0b0b0; stroke-width: 0.8; stroke-linecap: square"/>
     </g>
     <g id="line2d_28">
      <g>
       <use xlink:href="#m87adc924fd" x="47.72" y="137.416301" style="stroke: #000000; stroke-width: 0.8"/>
      </g>
     </g>
     <g id="text_15">
      <!-- 0.8 -->
      <g transform="translate(24.816875 141.215519) scale(0.1 -0.1)">
       <defs>
        <path id="DejaVuSans-38" d="M 2034 2216 
Q 1584 2216 1326 1975 
Q 1069 1734 1069 1313 
Q 1069 891 1326 650 
Q 1584 409 2034 409 
Q 2484 409 2743 651 
Q 3003 894 3003 1313 
Q 3003 1734 2745 1975 
Q 2488 2216 2034 2216 
z
M 1403 2484 
Q 997 2584 770 2862 
Q 544 3141 544 3541 
Q 544 4100 942 4425 
Q 1341 4750 2034 4750 
Q 2731 4750 3128 4425 
Q 3525 4100 3525 3541 
Q 3525 3141 3298 2862 
Q 3072 2584 2669 2484 
Q 3125 2378 3379 2068 
Q 3634 1759 3634 1313 
Q 3634 634 3220 271 
Q 2806 -91 2034 -91 
Q 1263 -91 848 271 
Q 434 634 434 1313 
Q 434 1759 690 2068 
Q 947 2378 1403 2484 
z
M 1172 3481 
Q 1172 3119 1398 2916 
Q 1625 2713 2034 2713 
Q 2441 2713 2670 2916 
Q 2900 3119 2900 3481 
Q 2900 3844 2670 4047 
Q 2441 4250 2034 4250 
Q 1625 4250 1398 4047 
Q 1172 3844 1172 3481 
z
" transform="scale(0.015625)"/>
       </defs>
       <use xlink:href="#DejaVuSans-30"/>
       <use xlink:href="#DejaVuSans-2e" transform="translate(63.623047 0)"/>
       <use xlink:href="#DejaVuSans-38" transform="translate(95.410156 0)"/>
      </g>
     </g>
    </g>
    <g id="ytick_6">
     <g id="line2d_29">
      <path d="M 47.72 82.727241 
L 709.2 82.727241 
" clip-path="url(#p3632fa8306)" style="fill: none; stroke: #b0b0b0; stroke-width: 0.8; stroke-linecap: square"/>
     </g>
     <g id="line2d_30">
      <g>
       <use xlink:href="#m87adc924fd" x="47.72" y="82.727241" style="stroke: #000000; stroke-width: 0.8"/>
      </g>
     </g>
     <g id="text_16">
      <!-- 0.9 -->
      <g transform="translate(24.816875 86.52646) scale(0.1 -0.1)">
       <defs>
        <path id="DejaVuSans-39" d="M 703 97 
L 703 672 
Q 941 559 1184 500 
Q 1428 441 1663 441 
Q 2288 441 2617 861 
Q 2947 1281 2994 2138 
Q 2813 1869 2534 1725 
Q 2256 1581 1919 1581 
Q 1219 1581 811 2004 
Q 403 2428 403 3163 
Q 403 3881 828 4315 
Q 1253 4750 1959 4750 
Q 2769 4750 3195 4129 
Q 3622 3509 3622 2328 
Q 3622 1225 3098 567 
Q 2575 -91 1691 -91 
Q 1453 -91 1209 -44 
Q 966 3 703 97 
z
M 1959 2075 
Q 2384 2075 2632 2365 
Q 2881 2656 2881 3163 
Q 2881 3666 2632 3958 
Q 2384 4250 1959 4250 
Q 1534 4250 1286 3958 
Q 1038 3666 1038 3163 
Q 1038 2656 1286 2365 
Q 1534 2075 1959 2075 
z
" transform="scale(0.015625)"/>
       </defs>
       <use xlink:href="#DejaVuSans-30"/>
       <use xlink:href="#DejaVuSans-2e" transform="translate(63.623047 0)"/>
       <use xlink:href="#DejaVuSans-39" transform="translate(95.410156 0)"/>
      </g>
     </g>
    </g>
    <g id="ytick_7">
     <g id="line2d_31">
      <path d="M 47.72 28.038182 
L 709.2 28.038182 
" clip-path="url(#p3632fa8306)" style="fill: none; stroke: #b0b0b0; stroke-width: 0.8; stroke-linecap: square"/>
     </g>
     <g id="line2d_32">
      <g>
       <use xlink:href="#m87adc924fd" x="47.72" y="28.038182" style="stroke: #000000; stroke-width: 0.8"/>
      </g>
     </g>
     <g id="text_17">
      <!-- 1.0 -->
      <g transform="translate(24.816875 31.837401) scale(0.1 -0.1)">
       <use xlink:href="#DejaVuSans-31"/>
       <use xlink:href="#DejaVuSans-2e" transform="translate(63.623047 0)"/>
       <use xlink:href="#DejaVuSans-30" transform="translate(95.410156 0)"/>
      </g>
     </g>
    </g>
    <g id="text_18">
     <!-- Accuracy -->
     <g transform="translate(18.737188 223.248125) rotate(-90) scale(0.1 -0.1)">
      <defs>
       <path id="DejaVuSans-41" d="M 2188 4044 
L 1331 1722 
L 3047 1722 
L 2188 4044 
z
M 1831 4666 
L 2547 4666 
L 4325 0 
L 3669 0 
L 3244 1197 
L 1141 1197 
L 716 0 
L 50 0 
L 1831 4666 
z
" transform="scale(0.015625)"/>
       <path id="DejaVuSans-63" d="M 3122 3366 
L 3122 2828 
Q 2878 2963 2633 3030 
Q 2388 3097 2138 3097 
Q 1578 3097 1268 2742 
Q 959 2388 959 1747 
Q 959 1106 1268 751 
Q 1578 397 2138 397 
Q 2388 397 2633 464 
Q 2878 531 3122 666 
L 3122 134 
Q 2881 22 2623 -34 
Q 2366 -91 2075 -91 
Q 1284 -91 818 406 
Q 353 903 353 1747 
Q 353 2603 823 3093 
Q 1294 3584 2113 3584 
Q 2378 3584 2631 3529 
Q 2884 3475 3122 3366 
z
" transform="scale(0.015625)"/>
       <path id="DejaVuSans-75" d="M 544 1381 
L 544 3500 
L 1119 3500 
L 1119 1403 
Q 1119 906 1312 657 
Q 1506 409 1894 409 
Q 2359 409 2629 706 
Q 2900 1003 2900 1516 
L 2900 3500 
L 3475 3500 
L 3475 0 
L 2900 0 
L 2900 538 
Q 2691 219 2414 64 
Q 2138 -91 1772 -91 
Q 1169 -91 856 284 
Q 544 659 544 1381 
z
M 1991 3584 
L 1991 3584 
z
" transform="scale(0.015625)"/>
       <path id="DejaVuSans-72" d="M 2631 2963 
Q 2534 3019 2420 3045 
Q 2306 3072 2169 3072 
Q 1681 3072 1420 2755 
Q 1159 2438 1159 1844 
L 1159 0 
L 581 0 
L 581 3500 
L 1159 3500 
L 1159 2956 
Q 1341 3275 1631 3429 
Q 1922 3584 2338 3584 
Q 2397 3584 2469 3576 
Q 2541 3569 2628 3553 
L 2631 2963 
z
" transform="scale(0.015625)"/>
       <path id="DejaVuSans-61" d="M 2194 1759 
Q 1497 1759 1228 1600 
Q 959 1441 959 1056 
Q 959 750 1161 570 
Q 1363 391 1709 391 
Q 2188 391 2477 730 
Q 2766 1069 2766 1631 
L 2766 1759 
L 2194 1759 
z
M 3341 1997 
L 3341 0 
L 2766 0 
L 2766 531 
Q 2569 213 2275 61 
Q 1981 -91 1556 -91 
Q 1019 -91 701 211 
Q 384 513 384 1019 
Q 384 1609 779 1909 
Q 1175 2209 1959 2209 
L 2766 2209 
L 2766 2266 
Q 2766 2663 2505 2880 
Q 2244 3097 1772 3097 
Q 1472 3097 1187 3025 
Q 903 2953 641 2809 
L 641 3341 
Q 956 3463 1253 3523 
Q 1550 3584 1831 3584 
Q 2591 3584 2966 3190 
Q 3341 2797 3341 1997 
z
" transform="scale(0.015625)"/>
       <path id="DejaVuSans-79" d="M 2059 -325 
Q 1816 -950 1584 -1140 
Q 1353 -1331 966 -1331 
L 506 -1331 
L 506 -850 
L 844 -850 
Q 1081 -850 1212 -737 
Q 1344 -625 1503 -206 
L 1606 56 
L 191 3500 
L 800 3500 
L 1894 763 
L 2988 3500 
L 3597 3500 
L 2059 -325 
z
" transform="scale(0.015625)"/>
      </defs>
      <use xlink:href="#DejaVuSans-41"/>
      <use xlink:href="#DejaVuSans-63" transform="translate(66.658203 0)"/>
      <use xlink:href="#DejaVuSans-63" transform="translate(121.638672 0)"/>
      <use xlink:href="#DejaVuSans-75" transform="translate(176.619141 0)"/>
      <use xlink:href="#DejaVuSans-72" transform="translate(239.998047 0)"/>
      <use xlink:href="#DejaVuSans-61" transform="translate(281.111328 0)"/>
      <use xlink:href="#DejaVuSans-63" transform="translate(342.390625 0)"/>
      <use xlink:href="#DejaVuSans-79" transform="translate(397.371094 0)"/>
     </g>
    </g>
   </g>
   <g id="line2d_33">
    <path d="M 77.787273 280.418056 
L 80.661231 276.93416 
L 83.453336 264.679759 
L 86.312136 261.438926 
L 89.274011 260.851525 
L 92.090369 254.045776 
L 94.934011 252.384849 
L 97.938328 239.482283 
L 100.982056 219.024524 
L 104.113701 216.452114 
L 107.284756 196.926095 
L 110.440653 164.092404 
L 113.502571 151.696218 
L 116.540236 132.33224 
L 119.486952 109.079263 
L 124.625517 76.265829 
L 127.190252 57.185424 
L 129.679197 47.240118 
L 132.177236 45.842509 
L 134.672244 40.798962 
L 137.130873 33.993213 
L 139.589502 35.795926 
L 142.039036 32.717135 
L 144.500697 35.795926 
L 146.959326 34.438827 
L 149.411891 31.582843 
L 151.849299 34.438827 
L 154.283675 30.914421 
L 156.733209 32.696879 
L 161.592866 33.345046 
L 164.021179 31.056208 
L 166.461618 31.704374 
L 168.892963 30.954932 
L 171.330371 31.279015 
L 173.779905 30.225744 
L 176.211249 30.245999 
L 178.651688 29.435791 
L 181.083033 30.245999 
L 183.511346 29.334515 
L 185.957848 29.719364 
L 188.389193 32.372796 
L 190.829632 30.630848 
L 193.267039 30.347275 
L 195.704447 29.415536 
L 198.144886 29.192729 
L 200.579262 31.441056 
L 203.010607 28.443286 
L 205.43892 28.767369 
L 207.888454 29.212984 
L 210.325861 31.157484 
L 212.754174 29.375025 
L 215.182487 30.711869 
L 217.613832 28.463541 
L 220.048208 28.80788 
L 222.482584 29.334515 
L 224.907865 29.476301 
L 227.348304 31.886671 
L 229.791775 31.076463 
L 232.156424 61.540294 
L 234.502884 40.454624 
L 236.913007 33.527343 
L 239.347383 54.410461 
L 241.566516 50.339165 
L 243.99786 31.319525 
L 246.429205 41.892743 
L 248.681684 71.222283 
L 251.043302 41.750957 
L 253.471615 33.142494 
L 255.915086 38.570889 
L 258.36462 35.431332 
L 260.805059 35.552864 
L 263.254593 46.672972 
L 265.704127 58.420992 
L 268.141535 49.022576 
L 270.624417 33.142494 
L 273.756061 35.755415 
L 276.584545 32.352541 
L 279.085617 31.218249 
L 281.568498 30.691614 
L 284.118075 31.461312 
L 286.661589 32.068968 
L 289.156597 30.185234 
L 291.739521 39.057014 
L 294.343667 32.433562 
L 296.908402 31.866416 
L 299.400379 33.365301 
L 301.874166 29.800385 
L 304.357047 32.919687 
L 306.824771 30.894166 
L 309.292495 28.544562 
L 311.757187 31.542333 
L 314.200657 28.585072 
L 316.650192 29.050942 
L 319.10882 33.324791 
L 321.567449 75.253067 
L 324.004857 54.45097 
L 326.445296 38.307571 
L 328.885735 28.828135 
L 331.31708 28.8889 
L 333.863625 37.274556 
L 336.431392 34.499593 
L 338.90821 30.853656 
L 341.375934 29.82064 
L 343.831531 30.630848 
L 346.259844 31.177739 
L 348.727568 30.752379 
L 351.177102 29.78013 
L 353.620573 28.34201 
L 356.042822 31.80565 
L 358.465072 30.691614 
L 360.920669 28.645838 
L 363.358077 31.29927 
L 365.8258 31.785395 
L 368.290493 30.043447 
L 370.758216 30.266255 
L 373.213813 29.658598 
L 375.711853 33.081728 
L 378.249304 32.73739 
L 380.777659 32.595603 
L 385.755549 29.557322 
L 388.18083 40.09003 
L 390.60308 32.696879 
L 393.037456 30.489062 
L 395.490022 31.441056 
L 397.933493 29.78013 
L 400.367869 29.415536 
L 402.81134 29.253494 
L 405.257842 29.375025 
L 407.728597 29.638343 
L 410.1751 28.828135 
L 412.606444 28.159713 
L 415.05901 36.180775 
L 417.666187 123.642758 
L 420.179385 46.166592 
L 422.656203 32.332286 
L 425.108769 33.24377 
L 427.555272 31.76514 
L 430.019964 31.785395 
L 432.463434 31.420801 
L 434.903874 34.175509 
L 437.508019 40.009009 
L 440.060628 77.460886 
L 442.592015 36.626389 
L 445.068834 49.042831 
L 447.530494 42.642186 
L 449.986091 30.894166 
L 452.441689 30.124468 
L 454.888191 28.787624 
L 457.334694 29.881406 
L 459.778165 28.625583 
L 462.212541 28.078692 
L 464.662075 29.840895 
L 469.558111 30.063702 
L 472.001582 28.564817 
L 474.435958 29.111708 
L 476.873366 41.528149 
L 479.541175 38.672165 
L 482.051341 29.678854 
L 484.488749 30.732124 
L 486.941315 29.86115 
L 489.399943 30.28651 
L 491.828256 30.853656 
L 494.265664 29.557322 
L 496.739451 50.420185 
L 499.276901 35.613629 
L 501.738562 36.788431 
L 504.191127 30.347275 
L 506.646725 33.385556 
L 509.084132 30.489062 
L 511.545793 30.79289 
L 514.049896 65.915417 
L 516.511556 135.937667 
L 518.991406 64.720361 
L 521.474288 30.144723 
L 523.92079 29.071197 
L 526.376388 29.759874 
L 528.819859 29.010432 
L 531.284551 30.468807 
L 533.743179 29.921916 
L 536.22303 29.597833 
L 538.678627 30.590338 
L 541.116034 28.767369 
L 543.601948 33.770405 
L 546.093924 32.919686 
L 548.56468 32.7779 
L 551.02634 28.909156 
L 553.481937 28.8889 
L 555.934503 29.638343 
L 558.377974 29.131963 
L 560.824476 45.49817 
L 563.280074 39.644415 
L 565.732639 32.555093 
L 568.185205 29.577577 
L 570.640802 28.625583 
L 573.081241 28.544562 
L 577.977278 28.990176 
L 580.454096 28.38252 
L 582.909694 30.813145 
L 585.404702 29.516812 
L 587.902741 35.127504 
L 590.525077 34.21602 
L 593.014022 35.633884 
L 595.478714 30.124468 
L 597.928248 31.420801 
L 600.365655 28.969921 
L 602.809126 30.002937 
L 605.270787 28.666093 
L 607.708194 28.402776 
L 610.139539 28.909156 
L 612.573915 29.192729 
L 615.065891 31.603098 
L 617.527552 29.091453 
L 620.007402 30.468807 
L 622.466031 29.962426 
L 624.939818 30.28651 
L 627.389352 30.185234 
L 629.838886 31.360036 
L 632.303578 29.537067 
L 634.75008 32.129734 
L 637.181425 29.840895 
L 639.627927 30.164978 
L 642.071398 28.423031 
L 644.514869 29.942171 
L 646.955308 28.423031 
L 649.386653 29.739619 
L 651.884692 61.844121 
L 654.358479 38.894972 
L 656.817108 31.177739 
L 659.275737 29.030687 
L 661.731334 34.25653 
L 664.338512 31.218249 
L 666.851709 31.400546 
L 669.340654 31.461312 
L 671.805346 28.767369 
L 674.248817 29.557322 
L 676.707446 30.043447 
L 676.707446 30.043447 
" clip-path="url(#p3632fa8306)" style="fill: none; stroke: #0000ff; stroke-width: 1.5; stroke-linecap: square"/>
   </g>
   <g id="line2d_34">
    <path d="M 77.83881 292.793987 
L 80.676389 291.274847 
L 83.501842 289.127795 
L 86.263631 285.785686 
L 89.08302 293.745982 
L 91.881188 288.459373 
L 94.697546 289.127795 
L 97.568473 288.520138 
L 100.333294 284.226035 
L 103.210283 287.021253 
L 106.075147 294.51568 
L 108.876347 284.347566 
L 111.644199 289.472133 
L 114.521189 281.471326 
L 117.407274 280.782649 
L 120.323674 285.826196 
L 123.200664 285.522368 
L 125.992769 286.656659 
L 128.869759 288.64167 
L 131.771002 285.805941 
L 134.699529 293.239602 
L 137.515887 290.100045 
L 140.32315 286.616149 
L 143.260772 288.945498 
L 146.155951 293.280112 
L 149.051131 280.276269 
L 151.809888 292.287607 
L 154.714162 287.66942 
L 157.521425 288.337842 
L 160.374163 283.881696 
L 163.20871 290.930508 
L 166.079637 283.557613 
L 168.874773 290.545659 
L 171.606246 293.320623 
L 174.619658 291.274847 
L 177.472395 295.568951 
L 180.337259 282.646128 
L 183.147553 289.998769 
L 185.9245 289.61392 
L 188.749953 292.652201 
L 191.639069 288.155545 
L 194.494838 291.700206 
L 197.296038 286.373087 
L 200.197281 286.211045 
L 203.040923 281.572602 
L 205.920944 283.294295 
L 208.797934 289.026519 
L 214.654989 285.117264 
L 217.47741 291.173571 
L 220.396842 291.760972 
L 223.2132 286.919977 
L 226.108379 283.496847 
L 228.955053 286.089514 
L 231.980591 291.396378 
L 234.775728 288.763201 
L 237.667876 289.451878 
L 240.654004 282.828425 
L 243.540088 281.025712 
L 246.362509 285.907217 
L 249.209183 280.256014 
L 252.019478 288.337842 
L 254.753982 290.991274 
L 257.649162 290.383618 
L 260.604973 278.129217 
L 263.484995 286.73768 
L 266.419585 287.912482 
L 269.208659 287.021253 
L 272.064427 284.671649 
L 274.838343 289.755706 
L 277.697143 285.522368 
L 280.543817 278.37228 
L 283.442028 289.431623 
L 289.074744 285.481857 
L 291.957797 283.172764 
L 294.801439 281.734644 
L 297.71784 285.643899 
L 300.55845 287.952993 
L 303.396029 283.901951 
L 306.345778 283.800675 
L 309.280368 277.90641 
L 312.163421 289.775961 
L 317.935591 287.568144 
L 320.83077 295.791758 
L 323.695634 287.547889 
L 326.605971 289.006264 
L 329.413234 291.052039 
L 332.265971 285.562878 
L 335.124771 289.350602 
L 337.929003 290.707701 
L 340.769614 293.057305 
L 343.573845 294.151086 
L 346.532688 287.021253 
L 349.400583 289.796217 
L 352.262415 294.47517 
L 355.018141 287.730186 
L 357.91332 285.380581 
L 360.641762 290.62668 
L 363.479341 286.049003 
L 366.453342 280.82316 
L 369.278795 283.638633 
L 372.119405 288.661925 
L 374.9297 294.272617 
L 377.815785 292.834498 
L 380.5897 289.310092 
L 383.4485 288.256821 
L 386.328522 291.416633 
L 389.247954 283.618378 
L 392.06128 293.806748 
L 394.810943 294.454914 
L 397.633364 301.989851 
L 400.437596 292.125566 
L 403.087215 292.186331 
L 405.939952 287.406102 
L 408.792689 276.812629 
L 411.657553 291.700206 
L 414.583048 288.277076 
L 417.44488 291.355868 
L 420.282459 290.343107 
L 423.256461 279.790144 
L 426.148608 293.705472 
L 428.967998 285.279306 
L 431.851051 290.484894 
L 434.61284 287.284571 
L 437.392819 285.76543 
L 440.148544 296.804518 
L 443.010376 292.206586 
L 445.763071 284.347566 
L 448.52486 288.64167 
L 451.338186 292.287607 
L 454.227302 287.325081 
L 457.064881 280.337035 
L 462.85524 292.206586 
L 465.75042 293.442154 
L 468.612251 284.874201 
L 471.501368 287.385847 
L 474.302568 297.634982 
L 477.073451 289.938003 
L 479.859493 293.401644 
L 482.642504 289.208816 
L 485.467956 291.720461 
L 488.278251 286.65666 
L 491.046103 292.307862 
L 493.856398 289.492388 
L 496.715198 293.219346 
L 499.437576 289.451878 
L 502.281218 290.930508 
L 505.173366 288.945498 
L 507.96244 291.153315 
L 510.739387 281.228264 
L 513.62244 280.600352 
L 516.572188 287.588399 
L 519.379451 288.479628 
L 522.295852 293.644706 
L 525.115241 285.441347 
L 527.898252 287.244061 
L 530.702483 285.421092 
L 533.543094 290.971019 
L 536.371578 290.039279 
L 539.200062 291.781227 
L 541.922441 291.234336 
L 544.735767 293.340878 
L 547.640041 290.484894 
L 550.544315 279.526826 
L 553.466779 290.383618 
L 556.240695 287.466868 
L 559.199538 292.976284 
L 562.015896 283.679144 
L 564.835285 282.281535 
L 567.62739 287.16304 
L 570.380084 292.956029 
L 573.172189 295.609461 
L 575.982484 294.697977 
L 578.829158 286.393342 
L 581.706148 287.811206 
L 584.577075 288.742946 
L 587.435875 289.512644 
L 590.370465 289.897492 
L 593.150444 292.814242 
L 595.972865 282.787915 
L 598.883202 289.917748 
L 601.684402 287.426358 
L 604.625056 285.522368 
L 607.477793 279.85091 
L 610.397225 282.443576 
L 613.368195 287.000998 
L 616.205774 282.484087 
L 618.952405 287.750441 
L 621.826363 285.664154 
L 624.688195 281.532092 
L 627.562153 291.517909 
L 630.278468 292.490159 
L 633.149395 288.904987 
L 638.848806 278.83815 
L 641.743985 293.58394 
L 644.557311 291.497654 
L 647.388827 286.838957 
L 650.332512 283.213274 
L 653.097333 287.973248 
L 655.947039 290.727956 
L 658.939229 277.987431 
L 661.813188 285.21854 
L 664.726557 281.815665 
L 667.633863 284.610883 
L 670.507821 288.803711 
L 673.339337 291.335612 
L 676.210263 280.661118 
L 679.132727 290.66719 
L 679.132727 290.66719 
" clip-path="url(#p3632fa8306)" style="fill: none; stroke: #ffa500; stroke-width: 1.5; stroke-linecap: square"/>
   </g>
   <g id="patch_3">
    <path d="M 47.72 390.04 
L 47.72 10.8 
" style="fill: none; stroke: #000000; stroke-width: 0.8; stroke-linejoin: miter; stroke-linecap: square"/>
   </g>
   <g id="patch_4">
    <path d="M 709.2 390.04 
L 709.2 10.8 
" style="fill: none; stroke: #000000; stroke-width: 0.8; stroke-linejoin: miter; stroke-linecap: square"/>
   </g>
   <g id="patch_5">
    <path d="M 47.72 390.04 
L 709.2 390.04 
" style="fill: none; stroke: #000000; stroke-width: 0.8; stroke-linejoin: miter; stroke-linecap: square"/>
   </g>
   <g id="patch_6">
    <path d="M 47.72 10.8 
L 709.2 10.8 
" style="fill: none; stroke: #000000; stroke-width: 0.8; stroke-linejoin: miter; stroke-linecap: square"/>
   </g>
   <g id="legend_1">
    <g id="patch_7">
     <path d="M 628.803125 385.04 
L 702.2 385.04 
Q 704.2 385.04 704.2 383.04 
L 704.2 340.005625 
Q 704.2 338.005625 702.2 338.005625 
L 628.803125 338.005625 
Q 626.803125 338.005625 626.803125 340.005625 
L 626.803125 383.04 
Q 626.803125 385.04 628.803125 385.04 
z
" style="fill: #ffffff; opacity: 0.8; stroke: #cccccc; stroke-linejoin: miter"/>
    </g>
    <g id="text_19">
     <!-- Agent -->
     <g transform="translate(650.701563 349.604062) scale(0.1 -0.1)">
      <defs>
       <path id="DejaVuSans-67" d="M 2906 1791 
Q 2906 2416 2648 2759 
Q 2391 3103 1925 3103 
Q 1463 3103 1205 2759 
Q 947 2416 947 1791 
Q 947 1169 1205 825 
Q 1463 481 1925 481 
Q 2391 481 2648 825 
Q 2906 1169 2906 1791 
z
M 3481 434 
Q 3481 -459 3084 -895 
Q 2688 -1331 1869 -1331 
Q 1566 -1331 1297 -1286 
Q 1028 -1241 775 -1147 
L 775 -588 
Q 1028 -725 1275 -790 
Q 1522 -856 1778 -856 
Q 2344 -856 2625 -561 
Q 2906 -266 2906 331 
L 2906 616 
Q 2728 306 2450 153 
Q 2172 0 1784 0 
Q 1141 0 747 490 
Q 353 981 353 1791 
Q 353 2603 747 3093 
Q 1141 3584 1784 3584 
Q 2172 3584 2450 3431 
Q 2728 3278 2906 2969 
L 2906 3500 
L 3481 3500 
L 3481 434 
z
" transform="scale(0.015625)"/>
       <path id="DejaVuSans-6e" d="M 3513 2113 
L 3513 0 
L 2938 0 
L 2938 2094 
Q 2938 2591 2744 2837 
Q 2550 3084 2163 3084 
Q 1697 3084 1428 2787 
Q 1159 2491 1159 1978 
L 1159 0 
L 581 0 
L 581 3500 
L 1159 3500 
L 1159 2956 
Q 1366 3272 1645 3428 
Q 1925 3584 2291 3584 
Q 2894 3584 3203 3211 
Q 3513 2838 3513 2113 
z
" transform="scale(0.015625)"/>
      </defs>
      <use xlink:href="#DejaVuSans-41"/>
      <use xlink:href="#DejaVuSans-67" transform="translate(68.408203 0)"/>
      <use xlink:href="#DejaVuSans-65" transform="translate(131.884766 0)"/>
      <use xlink:href="#DejaVuSans-6e" transform="translate(193.408203 0)"/>
      <use xlink:href="#DejaVuSans-74" transform="translate(256.787109 0)"/>
     </g>
    </g>
    <g id="line2d_35">
     <path d="M 630.803125 360.782187 
L 640.803125 360.782187 
L 650.803125 360.782187 
" style="fill: none; stroke: #0000ff; stroke-width: 1.5; stroke-linecap: square"/>
    </g>
    <g id="text_20">
     <!-- PPO -->
     <g transform="translate(658.803125 364.282187) scale(0.1 -0.1)">
      <defs>
       <path id="DejaVuSans-50" d="M 1259 4147 
L 1259 2394 
L 2053 2394 
Q 2494 2394 2734 2622 
Q 2975 2850 2975 3272 
Q 2975 3691 2734 3919 
Q 2494 4147 2053 4147 
L 1259 4147 
z
M 628 4666 
L 2053 4666 
Q 2838 4666 3239 4311 
Q 3641 3956 3641 3272 
Q 3641 2581 3239 2228 
Q 2838 1875 2053 1875 
L 1259 1875 
L 1259 0 
L 628 0 
L 628 4666 
z
" transform="scale(0.015625)"/>
       <path id="DejaVuSans-4f" d="M 2522 4238 
Q 1834 4238 1429 3725 
Q 1025 3213 1025 2328 
Q 1025 1447 1429 934 
Q 1834 422 2522 422 
Q 3209 422 3611 934 
Q 4013 1447 4013 2328 
Q 4013 3213 3611 3725 
Q 3209 4238 2522 4238 
z
M 2522 4750 
Q 3503 4750 4090 4092 
Q 4678 3434 4678 2328 
Q 4678 1225 4090 567 
Q 3503 -91 2522 -91 
Q 1538 -91 948 565 
Q 359 1222 359 2328 
Q 359 3434 948 4092 
Q 1538 4750 2522 4750 
z
" transform="scale(0.015625)"/>
      </defs>
      <use xlink:href="#DejaVuSans-50"/>
      <use xlink:href="#DejaVuSans-50" transform="translate(60.302734 0)"/>
      <use xlink:href="#DejaVuSans-4f" transform="translate(120.605469 0)"/>
     </g>
    </g>
    <g id="line2d_36">
     <path d="M 630.803125 375.460312 
L 640.803125 375.460312 
L 650.803125 375.460312 
" style="fill: none; stroke: #ffa500; stroke-width: 1.5; stroke-linecap: square"/>
    </g>
    <g id="text_21">
     <!-- Random -->
     <g transform="translate(658.803125 378.960312) scale(0.1 -0.1)">
      <defs>
       <path id="DejaVuSans-52" d="M 2841 2188 
Q 3044 2119 3236 1894 
Q 3428 1669 3622 1275 
L 4263 0 
L 3584 0 
L 2988 1197 
Q 2756 1666 2539 1819 
Q 2322 1972 1947 1972 
L 1259 1972 
L 1259 0 
L 628 0 
L 628 4666 
L 2053 4666 
Q 2853 4666 3247 4331 
Q 3641 3997 3641 3322 
Q 3641 2881 3436 2590 
Q 3231 2300 2841 2188 
z
M 1259 4147 
L 1259 2491 
L 2053 2491 
Q 2509 2491 2742 2702 
Q 2975 2913 2975 3322 
Q 2975 3731 2742 3939 
Q 2509 4147 2053 4147 
L 1259 4147 
z
" transform="scale(0.015625)"/>
       <path id="DejaVuSans-64" d="M 2906 2969 
L 2906 4863 
L 3481 4863 
L 3481 0 
L 2906 0 
L 2906 525 
Q 2725 213 2448 61 
Q 2172 -91 1784 -91 
Q 1150 -91 751 415 
Q 353 922 353 1747 
Q 353 2572 751 3078 
Q 1150 3584 1784 3584 
Q 2172 3584 2448 3432 
Q 2725 3281 2906 2969 
z
M 947 1747 
Q 947 1113 1208 752 
Q 1469 391 1925 391 
Q 2381 391 2643 752 
Q 2906 1113 2906 1747 
Q 2906 2381 2643 2742 
Q 2381 3103 1925 3103 
Q 1469 3103 1208 2742 
Q 947 2381 947 1747 
z
" transform="scale(0.015625)"/>
       <path id="DejaVuSans-6f" d="M 1959 3097 
Q 1497 3097 1228 2736 
Q 959 2375 959 1747 
Q 959 1119 1226 758 
Q 1494 397 1959 397 
Q 2419 397 2687 759 
Q 2956 1122 2956 1747 
Q 2956 2369 2687 2733 
Q 2419 3097 1959 3097 
z
M 1959 3584 
Q 2709 3584 3137 3096 
Q 3566 2609 3566 1747 
Q 3566 888 3137 398 
Q 2709 -91 1959 -91 
Q 1206 -91 779 398 
Q 353 888 353 1747 
Q 353 2609 779 3096 
Q 1206 3584 1959 3584 
z
" transform="scale(0.015625)"/>
       <path id="DejaVuSans-6d" d="M 3328 2828 
Q 3544 3216 3844 3400 
Q 4144 3584 4550 3584 
Q 5097 3584 5394 3201 
Q 5691 2819 5691 2113 
L 5691 0 
L 5113 0 
L 5113 2094 
Q 5113 2597 4934 2840 
Q 4756 3084 4391 3084 
Q 3944 3084 3684 2787 
Q 3425 2491 3425 1978 
L 3425 0 
L 2847 0 
L 2847 2094 
Q 2847 2600 2669 2842 
Q 2491 3084 2119 3084 
Q 1678 3084 1418 2786 
Q 1159 2488 1159 1978 
L 1159 0 
L 581 0 
L 581 3500 
L 1159 3500 
L 1159 2956 
Q 1356 3278 1631 3431 
Q 1906 3584 2284 3584 
Q 2666 3584 2933 3390 
Q 3200 3197 3328 2828 
z
" transform="scale(0.015625)"/>
      </defs>
      <use xlink:href="#DejaVuSans-52"/>
      <use xlink:href="#DejaVuSans-61" transform="translate(67.232422 0)"/>
      <use xlink:href="#DejaVuSans-6e" transform="translate(128.511719 0)"/>
      <use xlink:href="#DejaVuSans-64" transform="translate(191.890625 0)"/>
      <use xlink:href="#DejaVuSans-6f" transform="translate(255.367188 0)"/>
      <use xlink:href="#DejaVuSans-6d" transform="translate(316.548828 0)"/>
     </g>
    </g>
   </g>
  </g>
 </g>
 <defs>
  <clipPath id="p3632fa8306">
   <rect x="47.72" y="10.8" width="661.48" height="379.24"/>
  </clipPath>
 </defs>
</svg>
