<?xml version="1.0" encoding="utf-8" standalone="no"?>
<!DOCTYPE svg PUBLIC "-//W3C//DTD SVG 1.1//EN"
  "http://www.w3.org/Graphics/SVG/1.1/DTD/svg11.dtd">
<svg xmlns:xlink="http://www.w3.org/1999/xlink" width="720pt" height="432pt" viewBox="0 0 720 432" xmlns="http://www.w3.org/2000/svg" version="1.1">
 <metadata>
  <rdf:RDF xmlns:dc="http://purl.org/dc/elements/1.1/" xmlns:cc="http://creativecommons.org/ns#" xmlns:rdf="http://www.w3.org/1999/02/22-rdf-syntax-ns#">
   <cc:Work>
    <dc:type rdf:resource="http://purl.org/dc/dcmitype/StillImage"/>
    <dc:date>2025-04-15T17:17:46.606298</dc:date>
    <dc:format>image/svg+xml</dc:format>
    <dc:creator>
     <cc:Agent>
      <dc:title>Matplotlib v3.10.0, https://matplotlib.org/</dc:title>
     </cc:Agent>
    </dc:creator>
   </cc:Work>
  </rdf:RDF>
 </metadata>
 <defs>
  <style type="text/css">*{stroke-linejoin: round; stroke-linecap: butt}</style>
 </defs>
 <g id="figure_1">
  <g id="patch_1">
   <path d="M 0 432 
L 720 432 
L 720 0 
L 0 0 
z
" style="fill: #ffffff"/>
  </g>
  <g id="axes_1">
   <g id="patch_2">
    <path d="M 50.87 390.04 
L 709.2 390.04 
L 709.2 10.8 
L 50.87 10.8 
z
" style="fill: #ffffff"/>
   </g>
   <g id="FillBetweenPolyCollection_1">
    <defs>
     <path id="m6dea6373a0" d="M 80.794091 -73.317602 
L 80.794091 -63.87583 
L 83.654363 -64.414213 
L 86.433172 -64.341995 
L 89.278359 -64.070699 
L 92.226129 -64.556816 
L 95.029075 -64.852409 
L 97.859176 -62.551613 
L 100.849186 -61.419076 
L 103.87842 -59.198182 
L 106.995151 -59.198182 
L 110.151106 -59.198182 
L 113.291974 -59.198182 
L 116.339311 -60.40564 
L 119.36251 -69.547939 
L 122.295195 -93.865787 
L 124.868836 -143.393913 
L 127.409289 -186.286627 
L 129.961811 -241.927488 
L 132.438903 -292.438528 
L 134.925047 -310.292669 
L 137.408174 -306.865878 
L 139.855094 -349.904754 
L 142.302015 -344.877188 
L 144.739884 -358.608541 
L 147.189822 -347.355775 
L 149.636743 -357.281551 
L 152.07763 -362.372568 
L 154.50343 -353.835146 
L 156.926214 -367.338314 
L 159.364083 -363.543155 
L 161.789883 -361.061381 
L 164.200598 -359.812278 
L 166.617347 -367.335159 
L 169.046165 -364.836701 
L 171.465931 -366.113097 
L 173.891732 -364.359406 
L 176.329601 -371.078174 
L 178.749367 -369.846232 
L 181.178185 -369.894097 
L 183.597952 -372.311041 
L 186.014701 -373.596006 
L 188.449553 -371.10945 
L 190.869319 -366.030966 
L 193.298137 -367.359523 
L 195.723937 -371.074833 
L 198.149738 -372.357837 
L 200.578556 -371.869935 
L 203.001339 -359.927992 
L 205.421105 -374.879475 
L 207.837855 -373.625818 
L 210.275724 -372.370156 
L 212.701524 -363.642657 
L 215.118274 -373.591793 
L 217.535023 -369.822897 
L 219.954789 -373.645986 
L 222.377572 -373.628862 
L 224.800356 -374.826416 
L 227.214088 -373.58421 
L 229.642906 -363.588606 
L 232.07474 -372.262296 
L 234.428129 -301.049948 
L 236.763415 -349.552634 
L 239.162061 -361.03654 
L 241.584844 -320.424623 
L 243.793409 -327.558729 
L 246.213175 -369.785617 
L 248.632942 -345.772861 
L 250.874695 -283.972663 
L 253.225067 -346.021981 
L 255.641816 -358.592559 
L 258.073651 -328.958191 
L 260.51152 -335.812465 
L 262.940338 -342.4518 
L 265.378207 -316.907526 
L 267.816076 -312.306176 
L 270.241877 -332.055871 
L 272.712935 -275.616102 
L 275.829666 -239.705007 
L 278.644681 -326.135826 
L 281.133842 -362.404065 
L 283.6049 -347.153425 
L 286.142336 -342.187402 
L 288.673737 -329.119887 
L 291.156864 -368.621865 
L 293.727489 -245.741578 
L 296.319233 -322.945785 
L 298.871755 -338.483745 
L 301.351864 -343.815113 
L 303.813871 -364.951628 
L 306.284929 -346.305305 
L 308.740901 -352.070684 
L 311.196874 -371.180773 
L 313.649829 -358.19292 
L 316.081664 -371.176921 
L 318.519533 -364.995565 
L 320.966454 -295.989467 
L 323.413374 -173.216979 
L 325.839175 -266.49083 
L 328.267993 -329.985842 
L 330.69681 -368.193307 
L 333.116577 -374.854014 
L 335.650995 -292.105889 
L 338.206534 -336.585252 
L 340.671558 -358.735377 
L 343.12753 -363.71957 
L 345.571434 -366.13506 
L 347.988183 -359.947097 
L 350.444155 -359.971848 
L 352.882024 -363.223932 
L 355.313859 -374.885488 
L 357.724574 -369.759156 
L 360.135289 -364.899528 
L 362.579192 -372.405784 
L 365.004993 -358.710554 
L 367.460965 -360.646091 
L 369.91392 -357.553054 
L 372.369892 -363.69474 
L 374.813796 -367.422699 
L 377.29994 -331.525488 
L 379.825307 -333.508441 
L 382.341623 -335.24484 
L 384.851904 -353.800147 
L 387.295807 -361.274418 
L 389.709539 -343.422506 
L 392.120254 -358.626438 
L 394.543038 -368.605172 
L 396.983924 -361.162687 
L 399.415759 -371.107437 
L 401.838542 -372.360146 
L 404.270377 -371.14024 
L 406.705229 -364.978099 
L 409.164219 -362.499342 
L 411.599071 -371.163849 
L 414.018837 -376.127656 
L 416.459724 -320.999159 
L 419.054485 -158.119767 
L 421.555715 -319.651454 
L 424.020739 -358.650214 
L 426.461625 -357.365518 
L 428.896477 -363.606322 
L 431.349433 -363.106914 
L 433.781267 -344.150361 
L 436.210085 -330.230457 
L 438.80183 -304.269701 
L 441.342283 -245.875843 
L 443.861615 -335.010475 
L 446.326639 -322.445096 
L 448.776577 -341.546163 
L 451.220481 -356.270503 
L 453.664384 -369.856845 
L 456.099236 -373.62862 
L 458.534089 -369.870894 
L 460.965923 -371.175643 
L 463.388707 -376.132143 
L 465.826576 -367.410971 
L 468.264445 -371.09712 
L 470.699298 -368.629636 
L 473.131132 -372.410424 
L 475.553916 -369.9157 
L 477.979717 -328.055094 
L 480.634822 -339.808188 
L 483.133034 -368.650671 
L 485.558835 -368.591056 
L 487.999721 -368.64034 
L 490.446642 -371.078784 
L 492.863391 -369.815142 
L 495.289192 -374.814464 
L 497.751198 -313.273344 
L 500.276565 -351.069555 
L 502.726503 -354.694817 
L 505.16739 -368.612847 
L 507.611293 -330.49906 
L 510.037094 -367.374497 
L 512.487032 -351.353661 
L 514.97921 -198.492897 
L 517.429148 -110.771974 
L 519.897189 -253.207196 
L 522.368247 -362.470062 
L 524.803099 -369.919662 
L 527.247003 -364.95442 
L 529.678838 -373.616007 
L 532.131793 -356.515353 
L 534.578713 -358.791308 
L 537.046754 -366.195067 
L 539.490658 -362.444571 
L 541.916459 -369.935625 
L 544.390534 -343.794212 
L 546.870643 -343.340899 
L 549.329633 -344.577096 
L 551.779571 -368.698029 
L 554.223474 -368.699356 
L 556.664361 -364.961707 
L 559.096196 -371.147091 
L 561.531048 -206.628901 
L 563.974951 -228.404043 
L 566.415838 -321.20565 
L 568.856724 -366.196661 
L 571.300628 -369.94528 
L 573.729446 -371.181276 
L 576.167315 -368.702991 
L 578.602167 -362.537857 
L 581.067191 -374.8832 
L 583.511094 -345.198759 
L 585.994221 -366.199992 
L 588.480365 -304.324975 
L 591.090213 -322.8423 
L 593.567305 -270.215225 
L 596.02026 -348.923658 
L 598.458129 -328.632294 
L 600.88393 -368.693178 
L 603.315765 -361.246944 
L 605.765703 -371.173999 
L 608.191503 -374.882591 
L 610.61127 -371.160278 
L 613.034053 -368.680441 
L 615.514163 -340.227712 
L 617.964101 -367.456589 
L 620.432141 -352.603873 
L 622.879062 -362.481594 
L 625.341069 -357.538472 
L 627.778938 -364.930275 
L 630.216807 -357.47634 
L 632.669762 -367.430609 
L 635.104615 -367.278506 
L 637.524381 -369.874423 
L 639.959233 -367.394068 
L 642.391068 -373.649796 
L 644.822903 -364.944508 
L 647.251721 -376.112335 
L 649.671487 -361.262621 
L 652.157631 -193.578945 
L 654.619637 -211.769914 
L 657.066558 -338.002493 
L 659.513479 -367.460077 
L 661.957382 -314.222555 
L 664.552144 -345.174971 
L 667.053374 -348.857186 
L 669.530466 -352.546197 
L 671.983421 -371.168407 
L 674.415256 -364.967593 
L 676.862177 -362.474519 
L 676.862177 -381.425136 
L 676.862177 -381.425136 
L 674.415256 -380.997388 
L 671.983421 -379.934682 
L 669.530466 -383.12642 
L 667.053374 -383.758494 
L 664.552144 -384.389471 
L 661.957382 -389.694366 
L 659.513479 -380.57022 
L 657.066558 -384.423744 
L 654.619637 -397.057307 
L 652.157631 -394.733028 
L 649.671487 -381.632175 
L 647.251721 -379.087387 
L 644.822903 -381.002036 
L 642.391068 -379.509418 
L 639.959233 -380.582003 
L 637.524381 -380.156617 
L 635.104615 -380.602747 
L 632.669762 -380.575505 
L 630.216807 -382.281341 
L 627.778938 -381.00395 
L 625.341069 -382.270601 
L 622.879062 -381.423444 
L 620.432141 -383.116296 
L 617.964101 -380.570818 
L 615.514163 -385.237796 
L 613.034053 -380.361379 
L 610.61127 -379.936386 
L 608.191503 -379.298141 
L 605.765703 -379.933952 
L 603.315765 -381.635726 
L 600.88393 -380.359657 
L 598.458129 -386.632858 
L 596.02026 -383.749986 
L 593.567305 -394.853024 
L 591.090213 -388.216963 
L 588.480365 -391.390397 
L 585.994221 -380.786179 
L 583.511094 -384.385389 
L 581.067191 -379.298031 
L 578.602167 -381.41387 
L 576.167315 -380.357266 
L 573.729446 -379.932703 
L 571.300628 -380.14453 
L 568.856724 -380.787368 
L 566.415838 -387.905226 
L 563.974951 -400.832343 
L 561.531048 -403.961818 
L 559.096196 -379.938569 
L 556.664361 -380.998866 
L 554.223474 -380.35783 
L 551.779571 -380.358058 
L 549.329633 -383.892484 
L 546.870643 -384.101328 
L 544.390534 -384.626672 
L 541.916459 -380.146252 
L 539.490658 -381.430413 
L 537.046754 -380.787104 
L 534.578713 -382.055885 
L 532.131793 -381.245562 
L 529.678838 -379.515294 
L 527.247003 -380.999648 
L 524.803099 -380.148696 
L 522.368247 -381.425502 
L 519.897189 -388.043066 
L 517.429148 -370.988584 
L 514.97921 -399.860143 
L 512.487032 -383.33079 
L 510.037094 -380.585142 
L 507.611293 -385.700328 
L 505.16739 -380.372753 
L 502.726503 -382.758479 
L 500.276565 -383.379306 
L 497.751198 -389.857015 
L 495.289192 -379.310058 
L 492.863391 -380.167089 
L 490.446642 -379.950293 
L 487.999721 -380.367765 
L 485.558835 -380.376412 
L 483.133034 -380.366183 
L 480.634822 -385.309584 
L 477.979717 -386.721822 
L 475.553916 -380.149609 
L 473.131132 -379.722206 
L 470.699298 -380.369528 
L 468.264445 -379.947142 
L 465.826576 -380.579028 
L 463.388707 -379.083988 
L 460.965923 -379.93343 
L 458.534089 -380.157143 
L 456.099236 -379.513051 
L 453.664384 -380.159553 
L 451.220481 -382.48854 
L 448.776577 -384.408861 
L 446.326639 -385.861561 
L 443.861615 -386.133587 
L 441.342283 -394.761707 
L 438.80183 -390.191135 
L 436.210085 -386.951386 
L 433.781267 -383.363792 
L 431.349433 -380.710433 
L 428.896477 -381.231783 
L 426.461625 -382.301809 
L 424.020739 -382.081467 
L 421.555715 -385.733325 
L 419.054485 -394.613272 
L 416.459724 -387.926182 
L 414.018837 -379.084758 
L 411.599071 -379.935693 
L 409.164219 -381.420473 
L 406.705229 -380.995586 
L 404.270377 -379.939674 
L 401.838542 -379.730758 
L 399.415759 -379.945223 
L 396.983924 -381.649495 
L 394.543038 -380.374069 
L 392.120254 -382.084324 
L 389.709539 -384.690069 
L 387.295807 -381.630554 
L 384.851904 -382.911508 
L 382.341623 -386.091624 
L 379.825307 -385.781247 
L 377.29994 -386.728743 
L 374.813796 -380.577091 
L 372.369892 -381.215689 
L 369.91392 -382.268179 
L 367.460965 -381.130918 
L 365.004993 -382.070049 
L 362.579192 -379.722619 
L 360.135289 -381.00929 
L 357.724574 -380.176306 
L 355.313859 -379.297872 
L 352.882024 -380.689254 
L 350.444155 -381.854729 
L 347.988183 -381.858129 
L 345.571434 -380.798007 
L 343.12753 -381.211507 
L 340.671558 -382.066169 
L 338.206534 -384.659974 
L 335.650995 -392.283928 
L 333.116577 -379.303203 
L 330.69681 -379.845795 
L 328.267993 -386.995825 
L 325.839175 -396.674565 
L 323.413374 -401.217793 
L 320.966454 -391.634607 
L 318.519533 -380.992818 
L 316.081664 -379.93325 
L 313.649829 -381.555841 
L 311.196874 -379.932561 
L 308.740901 -382.608668 
L 306.284929 -384.197078 
L 303.813871 -381.000366 
L 301.351864 -384.623563 
L 298.871755 -384.929514 
L 296.319233 -388.199287 
L 293.727489 -400.823792 
L 291.156864 -380.371509 
L 288.673737 -387.141229 
L 286.142336 -384.302785 
L 283.6049 -383.451097 
L 281.133842 -381.437432 
L 278.644681 -387.047058 
L 275.829666 -398.846421 
L 272.712935 -395.70386 
L 270.241877 -385.430157 
L 267.816076 -389.427018 
L 265.378207 -387.429387 
L 262.940338 -384.860477 
L 260.51152 -385.38572 
L 258.073651 -385.961978 
L 255.641816 -382.089905 
L 253.225067 -383.026801 
L 250.874695 -393.661443 
L 248.632942 -384.287024 
L 246.213175 -380.174629 
L 243.793409 -386.79687 
L 241.584844 -388.632786 
L 239.162061 -381.672947 
L 236.763415 -383.639198 
L 234.428129 -391.337311 
L 232.07474 -379.749032 
L 229.642906 -381.232728 
L 227.214088 -379.521707 
L 224.800356 -379.310289 
L 222.377572 -379.516266 
L 219.954789 -379.512423 
L 217.535023 -380.169329 
L 215.118274 -379.522216 
L 212.701524 -381.229526 
L 210.275724 -379.733837 
L 207.837855 -379.5183 
L 205.421105 -379.302503 
L 203.001339 -381.865676 
L 200.578556 -379.216926 
L 198.149738 -379.734359 
L 195.723937 -379.955604 
L 193.298137 -380.59011 
L 190.869319 -380.817674 
L 188.449553 -379.945385 
L 186.014701 -379.519611 
L 183.597952 -379.73926 
L 181.178185 -380.153466 
L 178.749367 -380.162166 
L 176.329601 -379.950619 
L 173.891732 -380.495381 
L 171.465931 -380.803459 
L 169.046165 -381.021903 
L 166.617347 -380.59276 
L 164.200598 -381.882741 
L 161.789883 -381.668731 
L 159.364083 -381.242595 
L 156.926214 -380.592053 
L 154.50343 -381.678795 
L 152.07763 -381.441425 
L 149.636743 -382.316127 
L 147.189822 -384.018469 
L 144.739884 -382.086945 
L 142.302015 -384.437045 
L 139.855094 -383.576588 
L 137.408174 -388.542033 
L 134.925047 -387.936035 
L 132.438903 -387.361922 
L 129.961811 -386.391299 
L 127.409289 -385.00925 
L 124.868836 -370.01279 
L 122.295195 -331.010808 
L 119.36251 -269.558939 
L 116.339311 -238.978856 
L 113.291974 -205.949979 
L 110.151106 -163.449299 
L 106.995151 -133.519268 
L 103.87842 -113.444334 
L 100.849186 -99.142049 
L 97.859176 -85.183611 
L 95.029075 -75.689999 
L 92.226129 -72.589677 
L 89.278359 -76.116595 
L 86.433172 -73.645434 
L 83.654363 -70.93432 
L 80.794091 -73.317602 
z
" style="stroke: #0000ff; stroke-opacity: 0.2"/>
    </defs>
    <g clip-path="url(#p4cb555b117)">
     <use xlink:href="#m6dea6373a0" x="0" y="432" style="fill: #0000ff; fill-opacity: 0.2; stroke: #0000ff; stroke-opacity: 0.2"/>
    </g>
   </g>
   <g id="FillBetweenPolyCollection_2">
    <defs>
     <path id="m703388ed85" d="M 80.845383 -76.693526 
L 80.845383 -62.963591 
L 83.669449 -63.864794 
L 86.481447 -63.464871 
L 89.230084 -63.773256 
L 92.036047 -63.054453 
L 94.820891 -63.841177 
L 97.623837 -63.766728 
L 100.481092 -63.833832 
L 103.232746 -63.583659 
L 106.096036 -63.742367 
L 108.947257 -64.431156 
L 111.735117 -64.068135 
L 114.489789 -63.747505 
L 117.353078 -64.152619 
L 120.225419 -63.889341 
L 123.127932 -63.411526 
L 125.991222 -64.022008 
L 128.77003 -63.220092 
L 131.63332 -64.368011 
L 134.520747 -64.341378 
L 137.435328 -64.190446 
L 140.238274 -63.749092 
L 143.032169 -62.98978 
L 145.955802 -62.993161 
L 148.837194 -64.139493 
L 151.718587 -63.287278 
L 154.464207 -63.059574 
L 157.354651 -63.803683 
L 160.148546 -63.32174 
L 162.987698 -64.243441 
L 165.808747 -63.898206 
L 168.666002 -64.246548 
L 171.447828 -63.723923 
L 174.166294 -63.80957 
L 177.165356 -63.908175 
L 180.004508 -63.847245 
L 182.855729 -64.54307 
L 185.652641 -64.0042 
L 188.416364 -64.076827 
L 191.228362 -63.705699 
L 194.10372 -64.163013 
L 196.945889 -64.073264 
L 199.73375 -63.766904 
L 202.621176 -63.219618 
L 205.451277 -64.075571 
L 208.317584 -64.350764 
L 211.180873 -63.621445 
L 214.074334 -64.048882 
L 217.010036 -63.580344 
L 219.819017 -63.644887 
L 222.724546 -63.634187 
L 225.527493 -63.743731 
L 228.408885 -64.319258 
L 231.242003 -64.058783 
L 234.253134 -64.251993 
L 237.03496 -64.195245 
L 239.913335 -63.764342 
L 242.885242 -62.94968 
L 245.757583 -64.316466 
L 248.566564 -63.772348 
L 251.399682 -62.998432 
L 254.196594 -64.177495 
L 256.918076 -62.955747 
L 259.799469 -63.686231 
L 262.741205 -63.523085 
L 265.607511 -63.62119 
L 268.528127 -64.175906 
L 271.303919 -63.955215 
L 274.146088 -63.654481 
L 276.906794 -64.10435 
L 279.751981 -63.848081 
L 282.585099 -63.738113 
L 285.469508 -64.228637 
L 288.251334 -63.846503 
L 291.075401 -64.481808 
L 293.944724 -64.519618 
L 296.774825 -63.730594 
L 299.677338 -64.487723 
L 302.504421 -64.230269 
L 305.328488 -63.983141 
L 308.264189 -63.592063 
L 311.184805 -63.94799 
L 314.054129 -64.368699 
L 316.908367 -63.063455 
L 319.798811 -64.244224 
L 322.680203 -63.409348 
L 325.531424 -62.672911 
L 328.427902 -64.066876 
L 331.221797 -63.72164 
L 334.060949 -62.942511 
L 336.906136 -63.697541 
L 339.697013 -64.092489 
L 342.524097 -64.080615 
L 345.314975 -63.828331 
L 348.259728 -64.094395 
L 351.113966 -63.898483 
L 353.962169 -63.692883 
L 356.704772 -62.950456 
L 359.586165 -63.792857 
L 362.301613 -62.48462 
L 365.12568 -63.792058 
L 368.085518 -64.157449 
L 370.897516 -64.032168 
L 373.7246 -63.901774 
L 376.521511 -63.681511 
L 379.393852 -62.97067 
L 382.154558 -63.985793 
L 384.999745 -64.222922 
L 387.866052 -64.125501 
L 390.771581 -64.36714 
L 393.57151 -63.825058 
L 396.308079 -63.833702 
L 399.11706 -64.094105 
L 401.907937 -63.732767 
L 404.544939 -64.122144 
L 407.384092 -64.260566 
L 410.223244 -64.510328 
L 413.074465 -63.655129 
L 415.986029 -63.937932 
L 418.834232 -63.709296 
L 421.658299 -63.866457 
L 424.618138 -64.167933 
L 427.496513 -63.756105 
L 430.302476 -63.573081 
L 433.1718 -63.925476 
L 435.920437 -64.229824 
L 438.687178 -64.006828 
L 441.429781 -63.322605 
L 444.277984 -63.93954 
L 447.01757 -63.623088 
L 449.766207 -64.043014 
L 452.566136 -64.235606 
L 455.441494 -63.562678 
L 458.265561 -64.562215 
L 461.149971 -63.449659 
L 464.028346 -64.55301 
L 466.909738 -63.941446 
L 469.757942 -64.268137 
L 472.6333 -63.96287 
L 475.421161 -63.119114 
L 478.178849 -63.874975 
L 480.951624 -62.776848 
L 483.721381 -63.517548 
L 486.533379 -63.235871 
L 489.330291 -64.055331 
L 492.084963 -63.343757 
L 494.881874 -64.329412 
L 497.727061 -64.124892 
L 500.436475 -63.63979 
L 503.266576 -63.588491 
L 506.144951 -64.70126 
L 508.920743 -63.497111 
L 511.684466 -63.500411 
L 514.55379 -63.915888 
L 517.489491 -64.479893 
L 520.283386 -63.702004 
L 523.185899 -64.318548 
L 525.991862 -64.385499 
L 528.761619 -63.754312 
L 531.552497 -64.464703 
L 534.379581 -62.986875 
L 537.194595 -63.962177 
L 540.00961 -64.102606 
L 542.719024 -63.88545 
L 545.518953 -64.059504 
L 548.409397 -63.510028 
L 551.299841 -63.579034 
L 554.208388 -63.210761 
L 556.969094 -64.20739 
L 559.913847 -63.551166 
L 562.716794 -64.203671 
L 565.522757 -62.965689 
L 568.301566 -62.915766 
L 571.041152 -62.889444 
L 573.81996 -63.893563 
L 576.616872 -63.684163 
L 579.44999 -63.823456 
L 582.31328 -63.778783 
L 585.170535 -64.59956 
L 588.015721 -63.678783 
L 590.936337 -63.667241 
L 593.703077 -63.413605 
L 596.512058 -63.606904 
L 599.408536 -64.012055 
L 602.196397 -63.059621 
L 605.123047 -64.014152 
L 607.962199 -63.744656 
L 610.867729 -63.610468 
L 613.82455 -63.225883 
L 616.648617 -63.80916 
L 619.382168 -63.610018 
L 622.24244 -63.631637 
L 625.090644 -63.607604 
L 627.950916 -64.233902 
L 630.654296 -64.566187 
L 633.511551 -63.990725 
L 636.323549 -63.290516 
L 639.183822 -63.26798 
L 642.065214 -63.677551 
L 644.865143 -63.752595 
L 647.683175 -63.535412 
L 650.612842 -64.11086 
L 653.364497 -64.317725 
L 656.200632 -63.852484 
L 659.178573 -64.220446 
L 662.038846 -64.715728 
L 664.938341 -64.403639 
L 667.831803 -64.977754 
L 670.692075 -64.003815 
L 673.510107 -63.440312 
L 676.367362 -62.966596 
L 679.275909 -64.498989 
L 679.275909 -68.136535 
L 679.275909 -68.136535 
L 676.367362 -78.332729 
L 673.510107 -74.263103 
L 670.692075 -71.784191 
L 667.831803 -69.976977 
L 664.938341 -70.699683 
L 662.038846 -71.234331 
L 659.178573 -72.083049 
L 656.200632 -71.832317 
L 653.364497 -69.466239 
L 650.612842 -71.925745 
L 647.683175 -74.365234 
L 644.865143 -72.918344 
L 642.065214 -72.892359 
L 639.183822 -77.076348 
L 636.323549 -76.805893 
L 633.511551 -71.791818 
L 630.654296 -67.975096 
L 627.950916 -70.387961 
L 625.090644 -74.57582 
L 622.24244 -74.333841 
L 619.382168 -74.259564 
L 616.648617 -73.292105 
L 613.82455 -75.698139 
L 610.867729 -74.517506 
L 607.962199 -74.496687 
L 605.123047 -71.928666 
L 602.196397 -76.855332 
L 599.408536 -71.728773 
L 596.512058 -74.497861 
L 593.703077 -74.21054 
L 590.936337 -73.083297 
L 588.015721 -73.07911 
L 585.170535 -68.120855 
L 582.31328 -73.087991 
L 579.44999 -73.086858 
L 576.616872 -71.817562 
L 573.81996 -71.544032 
L 571.041152 -77.78085 
L 568.301566 -78.045875 
L 565.522757 -78.230499 
L 562.716794 -70.806962 
L 559.913847 -74.073988 
L 556.969094 -70.62733 
L 554.208388 -75.549484 
L 551.299841 -75.713303 
L 548.409397 -74.212777 
L 545.518953 -70.483338 
L 542.719024 -71.764798 
L 540.00961 -70.521932 
L 537.194595 -71.774776 
L 534.379581 -76.763735 
L 531.552497 -69.442026 
L 528.761619 -73.111908 
L 525.991862 -73.601 
L 523.185899 -69.188259 
L 520.283386 -73.100232 
L 517.489491 -69.315506 
L 514.55379 -73.273386 
L 511.684466 -75.716135 
L 508.920743 -74.203165 
L 506.144951 -71.071628 
L 503.266576 -73.123721 
L 500.436475 -74.148415 
L 497.727061 -70.4165 
L 494.881874 -69.38776 
L 492.084963 -74.297341 
L 489.330291 -70.813466 
L 486.533379 -75.45681 
L 483.721381 -74.275076 
L 480.951624 -77.866521 
L 478.178849 -71.844231 
L 475.421161 -75.293428 
L 472.6333 -71.877457 
L 469.757942 -70.684282 
L 466.909738 -70.583853 
L 464.028346 -68.008626 
L 461.149971 -75.504008 
L 458.265561 -69.588445 
L 455.441494 -74.347124 
L 452.566136 -69.329257 
L 449.766207 -71.724514 
L 447.01757 -74.422533 
L 444.277984 -71.693834 
L 441.429781 -74.100117 
L 438.687178 -71.924113 
L 435.920437 -70.601655 
L 433.1718 -71.767212 
L 430.302476 -74.420139 
L 427.496513 -71.789046 
L 424.618138 -72.050264 
L 421.658299 -71.829302 
L 418.834232 -72.967502 
L 415.986029 -71.856658 
L 413.074465 -73.010937 
L 410.223244 -73.888911 
L 407.384092 -70.57148 
L 404.544939 -70.475818 
L 401.907937 -72.911088 
L 399.11706 -70.024485 
L 396.308079 -71.677327 
L 393.57151 -71.714937 
L 390.771581 -70.646247 
L 387.866052 -70.507422 
L 384.999745 -70.564973 
L 382.154558 -71.783424 
L 379.393852 -76.7062 
L 376.521511 -72.84903 
L 373.7246 -71.888045 
L 370.897516 -71.998499 
L 368.085518 -72.010386 
L 365.12568 -73.139549 
L 362.301613 -79.323384 
L 359.586165 -73.162844 
L 356.704772 -76.977926 
L 353.962169 -71.818463 
L 351.113966 -71.842425 
L 348.259728 -71.756279 
L 345.314975 -71.698178 
L 342.524097 -70.471757 
L 339.697013 -70.579645 
L 336.906136 -73.08279 
L 334.060949 -78.103681 
L 331.221797 -72.965912 
L 328.427902 -71.695201 
L 325.531424 -79.288863 
L 322.680203 -74.081176 
L 319.798811 -70.568806 
L 316.908367 -76.786938 
L 314.054129 -69.349005 
L 311.184805 -73.377511 
L 308.264189 -74.468097 
L 305.328488 -72.032182 
L 302.504421 -70.578477 
L 299.677338 -69.4096 
L 296.774825 -74.438868 
L 293.944724 -69.485295 
L 291.075401 -69.413498 
L 288.251334 -73.017473 
L 285.469508 -73.566367 
L 282.585099 -74.583635 
L 279.751981 -73.1106 
L 276.906794 -70.590686 
L 274.146088 -74.367376 
L 271.303919 -71.906327 
L 268.528127 -70.620352 
L 265.607511 -74.295853 
L 262.741205 -75.84535 
L 259.799469 -73.046719 
L 256.918076 -77.81544 
L 254.196594 -70.60589 
L 251.399682 -78.306479 
L 248.566564 -73.163113 
L 245.757583 -70.819426 
L 242.885242 -78.205722 
L 239.913335 -73.010821 
L 237.03496 -70.5702 
L 234.253134 -69.35973 
L 231.242003 -71.855455 
L 228.408885 -70.681868 
L 225.527493 -73.137289 
L 222.724546 -73.02202 
L 219.819017 -73.031378 
L 217.010036 -74.430973 
L 214.074334 -71.809452 
L 211.180873 -74.168607 
L 208.317584 -70.674716 
L 205.451277 -72.058754 
L 202.621176 -76.776748 
L 199.73375 -73.143558 
L 196.945889 -70.550458 
L 194.10372 -70.622196 
L 191.228362 -72.915321 
L 188.416364 -70.645691 
L 185.652641 -70.69563 
L 182.855729 -69.510131 
L 180.004508 -71.607825 
L 177.165356 -71.753304 
L 174.166294 -71.755776 
L 171.447828 -72.998964 
L 168.666002 -70.767293 
L 165.808747 -71.784634 
L 162.987698 -70.750341 
L 160.148546 -75.52853 
L 157.354651 -73.053266 
L 154.464207 -76.636889 
L 151.718587 -76.986879 
L 148.837194 -70.411395 
L 145.955802 -77.888903 
L 143.032169 -78.000225 
L 140.238274 -72.987427 
L 137.435328 -69.320203 
L 134.520747 -73.623228 
L 131.63332 -69.389039 
L 128.77003 -76.749608 
L 125.991222 -71.918804 
L 123.127932 -75.574983 
L 120.225419 -73.294538 
L 117.353078 -71.996223 
L 114.489789 -71.995964 
L 111.735117 -71.929532 
L 108.947257 -69.027897 
L 106.096036 -73.148251 
L 103.232746 -74.442436 
L 100.481092 -72.970286 
L 97.623837 -73.017241 
L 94.820891 -72.981163 
L 92.036047 -76.577858 
L 89.230084 -73.190751 
L 86.481447 -74.342202 
L 83.669449 -71.805321 
L 80.845383 -76.693526 
z
" style="stroke: #ffa500; stroke-opacity: 0.2"/>
    </defs>
    <g clip-path="url(#p4cb555b117)">
     <use xlink:href="#m703388ed85" x="0" y="432" style="fill: #ffa500; fill-opacity: 0.2; stroke: #ffa500; stroke-opacity: 0.2"/>
    </g>
   </g>
   <g id="matplotlib.axis_1">
    <g id="xtick_1">
     <g id="line2d_1">
      <path d="M 79.430332 390.04 
L 79.430332 10.8 
" clip-path="url(#p4cb555b117)" style="fill: none; stroke: #b0b0b0; stroke-width: 0.8; stroke-linecap: square"/>
     </g>
     <g id="line2d_2">
      <defs>
       <path id="md51bfef173" d="M 0 0 
L 0 3.5 
" style="stroke: #000000; stroke-width: 0.8"/>
      </defs>
      <g>
       <use xlink:href="#md51bfef173" x="79.430332" y="390.04" style="stroke: #000000; stroke-width: 0.8"/>
      </g>
     </g>
     <g id="text_1">
      <!-- 0 -->
      <g transform="translate(76.249082 404.638438) scale(0.1 -0.1)">
       <defs>
        <path id="DejaVuSans-30" d="M 2034 4250 
Q 1547 4250 1301 3770 
Q 1056 3291 1056 2328 
Q 1056 1369 1301 889 
Q 1547 409 2034 409 
Q 2525 409 2770 889 
Q 3016 1369 3016 2328 
Q 3016 3291 2770 3770 
Q 2525 4250 2034 4250 
z
M 2034 4750 
Q 2819 4750 3233 4129 
Q 3647 3509 3647 2328 
Q 3647 1150 3233 529 
Q 2819 -91 2034 -91 
Q 1250 -91 836 529 
Q 422 1150 422 2328 
Q 422 3509 836 4129 
Q 1250 4750 2034 4750 
z
" transform="scale(0.015625)"/>
       </defs>
       <use xlink:href="#DejaVuSans-30"/>
      </g>
     </g>
    </g>
    <g id="xtick_2">
     <g id="line2d_3">
      <path d="M 154.859456 390.04 
L 154.859456 10.8 
" clip-path="url(#p4cb555b117)" style="fill: none; stroke: #b0b0b0; stroke-width: 0.8; stroke-linecap: square"/>
     </g>
     <g id="line2d_4">
      <g>
       <use xlink:href="#md51bfef173" x="154.859456" y="390.04" style="stroke: #000000; stroke-width: 0.8"/>
      </g>
     </g>
     <g id="text_2">
      <!-- 25000 -->
      <g transform="translate(138.953206 404.638438) scale(0.1 -0.1)">
       <defs>
        <path id="DejaVuSans-32" d="M 1228 531 
L 3431 531 
L 3431 0 
L 469 0 
L 469 531 
Q 828 903 1448 1529 
Q 2069 2156 2228 2338 
Q 2531 2678 2651 2914 
Q 2772 3150 2772 3378 
Q 2772 3750 2511 3984 
Q 2250 4219 1831 4219 
Q 1534 4219 1204 4116 
Q 875 4013 500 3803 
L 500 4441 
Q 881 4594 1212 4672 
Q 1544 4750 1819 4750 
Q 2544 4750 2975 4387 
Q 3406 4025 3406 3419 
Q 3406 3131 3298 2873 
Q 3191 2616 2906 2266 
Q 2828 2175 2409 1742 
Q 1991 1309 1228 531 
z
" transform="scale(0.015625)"/>
        <path id="DejaVuSans-35" d="M 691 4666 
L 3169 4666 
L 3169 4134 
L 1269 4134 
L 1269 2991 
Q 1406 3038 1543 3061 
Q 1681 3084 1819 3084 
Q 2600 3084 3056 2656 
Q 3513 2228 3513 1497 
Q 3513 744 3044 326 
Q 2575 -91 1722 -91 
Q 1428 -91 1123 -41 
Q 819 9 494 109 
L 494 744 
Q 775 591 1075 516 
Q 1375 441 1709 441 
Q 2250 441 2565 725 
Q 2881 1009 2881 1497 
Q 2881 1984 2565 2268 
Q 2250 2553 1709 2553 
Q 1456 2553 1204 2497 
Q 953 2441 691 2322 
L 691 4666 
z
" transform="scale(0.015625)"/>
       </defs>
       <use xlink:href="#DejaVuSans-32"/>
       <use xlink:href="#DejaVuSans-35" transform="translate(63.623047 0)"/>
       <use xlink:href="#DejaVuSans-30" transform="translate(127.246094 0)"/>
       <use xlink:href="#DejaVuSans-30" transform="translate(190.869141 0)"/>
       <use xlink:href="#DejaVuSans-30" transform="translate(254.492188 0)"/>
      </g>
     </g>
    </g>
    <g id="xtick_3">
     <g id="line2d_5">
      <path d="M 230.288579 390.04 
L 230.288579 10.8 
" clip-path="url(#p4cb555b117)" style="fill: none; stroke: #b0b0b0; stroke-width: 0.8; stroke-linecap: square"/>
     </g>
     <g id="line2d_6">
      <g>
       <use xlink:href="#md51bfef173" x="230.288579" y="390.04" style="stroke: #000000; stroke-width: 0.8"/>
      </g>
     </g>
     <g id="text_3">
      <!-- 50000 -->
      <g transform="translate(214.382329 404.638438) scale(0.1 -0.1)">
       <use xlink:href="#DejaVuSans-35"/>
       <use xlink:href="#DejaVuSans-30" transform="translate(63.623047 0)"/>
       <use xlink:href="#DejaVuSans-30" transform="translate(127.246094 0)"/>
       <use xlink:href="#DejaVuSans-30" transform="translate(190.869141 0)"/>
       <use xlink:href="#DejaVuSans-30" transform="translate(254.492188 0)"/>
      </g>
     </g>
    </g>
    <g id="xtick_4">
     <g id="line2d_7">
      <path d="M 305.717702 390.04 
L 305.717702 10.8 
" clip-path="url(#p4cb555b117)" style="fill: none; stroke: #b0b0b0; stroke-width: 0.8; stroke-linecap: square"/>
     </g>
     <g id="line2d_8">
      <g>
       <use xlink:href="#md51bfef173" x="305.717702" y="390.04" style="stroke: #000000; stroke-width: 0.8"/>
      </g>
     </g>
     <g id="text_4">
      <!-- 75000 -->
      <g transform="translate(289.811452 404.638438) scale(0.1 -0.1)">
       <defs>
        <path id="DejaVuSans-37" d="M 525 4666 
L 3525 4666 
L 3525 4397 
L 1831 0 
L 1172 0 
L 2766 4134 
L 525 4134 
L 525 4666 
z
" transform="scale(0.015625)"/>
       </defs>
       <use xlink:href="#DejaVuSans-37"/>
       <use xlink:href="#DejaVuSans-35" transform="translate(63.623047 0)"/>
       <use xlink:href="#DejaVuSans-30" transform="translate(127.246094 0)"/>
       <use xlink:href="#DejaVuSans-30" transform="translate(190.869141 0)"/>
       <use xlink:href="#DejaVuSans-30" transform="translate(254.492188 0)"/>
      </g>
     </g>
    </g>
    <g id="xtick_5">
     <g id="line2d_9">
      <path d="M 381.146825 390.04 
L 381.146825 10.8 
" clip-path="url(#p4cb555b117)" style="fill: none; stroke: #b0b0b0; stroke-width: 0.8; stroke-linecap: square"/>
     </g>
     <g id="line2d_10">
      <g>
       <use xlink:href="#md51bfef173" x="381.146825" y="390.04" style="stroke: #000000; stroke-width: 0.8"/>
      </g>
     </g>
     <g id="text_5">
      <!-- 100000 -->
      <g transform="translate(362.059325 404.638438) scale(0.1 -0.1)">
       <defs>
        <path id="DejaVuSans-31" d="M 794 531 
L 1825 531 
L 1825 4091 
L 703 3866 
L 703 4441 
L 1819 4666 
L 2450 4666 
L 2450 531 
L 3481 531 
L 3481 0 
L 794 0 
L 794 531 
z
" transform="scale(0.015625)"/>
       </defs>
       <use xlink:href="#DejaVuSans-31"/>
       <use xlink:href="#DejaVuSans-30" transform="translate(63.623047 0)"/>
       <use xlink:href="#DejaVuSans-30" transform="translate(127.246094 0)"/>
       <use xlink:href="#DejaVuSans-30" transform="translate(190.869141 0)"/>
       <use xlink:href="#DejaVuSans-30" transform="translate(254.492188 0)"/>
       <use xlink:href="#DejaVuSans-30" transform="translate(318.115234 0)"/>
      </g>
     </g>
    </g>
    <g id="xtick_6">
     <g id="line2d_11">
      <path d="M 456.575949 390.04 
L 456.575949 10.8 
" clip-path="url(#p4cb555b117)" style="fill: none; stroke: #b0b0b0; stroke-width: 0.8; stroke-linecap: square"/>
     </g>
     <g id="line2d_12">
      <g>
       <use xlink:href="#md51bfef173" x="456.575949" y="390.04" style="stroke: #000000; stroke-width: 0.8"/>
      </g>
     </g>
     <g id="text_6">
      <!-- 125000 -->
      <g transform="translate(437.488449 404.638438) scale(0.1 -0.1)">
       <use xlink:href="#DejaVuSans-31"/>
       <use xlink:href="#DejaVuSans-32" transform="translate(63.623047 0)"/>
       <use xlink:href="#DejaVuSans-35" transform="translate(127.246094 0)"/>
       <use xlink:href="#DejaVuSans-30" transform="translate(190.869141 0)"/>
       <use xlink:href="#DejaVuSans-30" transform="translate(254.492188 0)"/>
       <use xlink:href="#DejaVuSans-30" transform="translate(318.115234 0)"/>
      </g>
     </g>
    </g>
    <g id="xtick_7">
     <g id="line2d_13">
      <path d="M 532.005072 390.04 
L 532.005072 10.8 
" clip-path="url(#p4cb555b117)" style="fill: none; stroke: #b0b0b0; stroke-width: 0.8; stroke-linecap: square"/>
     </g>
     <g id="line2d_14">
      <g>
       <use xlink:href="#md51bfef173" x="532.005072" y="390.04" style="stroke: #000000; stroke-width: 0.8"/>
      </g>
     </g>
     <g id="text_7">
      <!-- 150000 -->
      <g transform="translate(512.917572 404.638438) scale(0.1 -0.1)">
       <use xlink:href="#DejaVuSans-31"/>
       <use xlink:href="#DejaVuSans-35" transform="translate(63.623047 0)"/>
       <use xlink:href="#DejaVuSans-30" transform="translate(127.246094 0)"/>
       <use xlink:href="#DejaVuSans-30" transform="translate(190.869141 0)"/>
       <use xlink:href="#DejaVuSans-30" transform="translate(254.492188 0)"/>
       <use xlink:href="#DejaVuSans-30" transform="translate(318.115234 0)"/>
      </g>
     </g>
    </g>
    <g id="xtick_8">
     <g id="line2d_15">
      <path d="M 607.434195 390.04 
L 607.434195 10.8 
" clip-path="url(#p4cb555b117)" style="fill: none; stroke: #b0b0b0; stroke-width: 0.8; stroke-linecap: square"/>
     </g>
     <g id="line2d_16">
      <g>
       <use xlink:href="#md51bfef173" x="607.434195" y="390.04" style="stroke: #000000; stroke-width: 0.8"/>
      </g>
     </g>
     <g id="text_8">
      <!-- 175000 -->
      <g transform="translate(588.346695 404.638438) scale(0.1 -0.1)">
       <use xlink:href="#DejaVuSans-31"/>
       <use xlink:href="#DejaVuSans-37" transform="translate(63.623047 0)"/>
       <use xlink:href="#DejaVuSans-35" transform="translate(127.246094 0)"/>
       <use xlink:href="#DejaVuSans-30" transform="translate(190.869141 0)"/>
       <use xlink:href="#DejaVuSans-30" transform="translate(254.492188 0)"/>
       <use xlink:href="#DejaVuSans-30" transform="translate(318.115234 0)"/>
      </g>
     </g>
    </g>
    <g id="xtick_9">
     <g id="line2d_17">
      <path d="M 682.863318 390.04 
L 682.863318 10.8 
" clip-path="url(#p4cb555b117)" style="fill: none; stroke: #b0b0b0; stroke-width: 0.8; stroke-linecap: square"/>
     </g>
     <g id="line2d_18">
      <g>
       <use xlink:href="#md51bfef173" x="682.863318" y="390.04" style="stroke: #000000; stroke-width: 0.8"/>
      </g>
     </g>
     <g id="text_9">
      <!-- 200000 -->
      <g transform="translate(663.775818 404.638438) scale(0.1 -0.1)">
       <use xlink:href="#DejaVuSans-32"/>
       <use xlink:href="#DejaVuSans-30" transform="translate(63.623047 0)"/>
       <use xlink:href="#DejaVuSans-30" transform="translate(127.246094 0)"/>
       <use xlink:href="#DejaVuSans-30" transform="translate(190.869141 0)"/>
       <use xlink:href="#DejaVuSans-30" transform="translate(254.492188 0)"/>
       <use xlink:href="#DejaVuSans-30" transform="translate(318.115234 0)"/>
      </g>
     </g>
    </g>
    <g id="text_10">
     <!-- Steps -->
     <g transform="translate(366.045156 418.316562) scale(0.1 -0.1)">
      <defs>
       <path id="DejaVuSans-53" d="M 3425 4513 
L 3425 3897 
Q 3066 4069 2747 4153 
Q 2428 4238 2131 4238 
Q 1616 4238 1336 4038 
Q 1056 3838 1056 3469 
Q 1056 3159 1242 3001 
Q 1428 2844 1947 2747 
L 2328 2669 
Q 3034 2534 3370 2195 
Q 3706 1856 3706 1288 
Q 3706 609 3251 259 
Q 2797 -91 1919 -91 
Q 1588 -91 1214 -16 
Q 841 59 441 206 
L 441 856 
Q 825 641 1194 531 
Q 1563 422 1919 422 
Q 2459 422 2753 634 
Q 3047 847 3047 1241 
Q 3047 1584 2836 1778 
Q 2625 1972 2144 2069 
L 1759 2144 
Q 1053 2284 737 2584 
Q 422 2884 422 3419 
Q 422 4038 858 4394 
Q 1294 4750 2059 4750 
Q 2388 4750 2728 4690 
Q 3069 4631 3425 4513 
z
" transform="scale(0.015625)"/>
       <path id="DejaVuSans-74" d="M 1172 4494 
L 1172 3500 
L 2356 3500 
L 2356 3053 
L 1172 3053 
L 1172 1153 
Q 1172 725 1289 603 
Q 1406 481 1766 481 
L 2356 481 
L 2356 0 
L 1766 0 
Q 1100 0 847 248 
Q 594 497 594 1153 
L 594 3053 
L 172 3053 
L 172 3500 
L 594 3500 
L 594 4494 
L 1172 4494 
z
" transform="scale(0.015625)"/>
       <path id="DejaVuSans-65" d="M 3597 1894 
L 3597 1613 
L 953 1613 
Q 991 1019 1311 708 
Q 1631 397 2203 397 
Q 2534 397 2845 478 
Q 3156 559 3463 722 
L 3463 178 
Q 3153 47 2828 -22 
Q 2503 -91 2169 -91 
Q 1331 -91 842 396 
Q 353 884 353 1716 
Q 353 2575 817 3079 
Q 1281 3584 2069 3584 
Q 2775 3584 3186 3129 
Q 3597 2675 3597 1894 
z
M 3022 2063 
Q 3016 2534 2758 2815 
Q 2500 3097 2075 3097 
Q 1594 3097 1305 2825 
Q 1016 2553 972 2059 
L 3022 2063 
z
" transform="scale(0.015625)"/>
       <path id="DejaVuSans-70" d="M 1159 525 
L 1159 -1331 
L 581 -1331 
L 581 3500 
L 1159 3500 
L 1159 2969 
Q 1341 3281 1617 3432 
Q 1894 3584 2278 3584 
Q 2916 3584 3314 3078 
Q 3713 2572 3713 1747 
Q 3713 922 3314 415 
Q 2916 -91 2278 -91 
Q 1894 -91 1617 61 
Q 1341 213 1159 525 
z
M 3116 1747 
Q 3116 2381 2855 2742 
Q 2594 3103 2138 3103 
Q 1681 3103 1420 2742 
Q 1159 2381 1159 1747 
Q 1159 1113 1420 752 
Q 1681 391 2138 391 
Q 2594 391 2855 752 
Q 3116 1113 3116 1747 
z
" transform="scale(0.015625)"/>
       <path id="DejaVuSans-73" d="M 2834 3397 
L 2834 2853 
Q 2591 2978 2328 3040 
Q 2066 3103 1784 3103 
Q 1356 3103 1142 2972 
Q 928 2841 928 2578 
Q 928 2378 1081 2264 
Q 1234 2150 1697 2047 
L 1894 2003 
Q 2506 1872 2764 1633 
Q 3022 1394 3022 966 
Q 3022 478 2636 193 
Q 2250 -91 1575 -91 
Q 1294 -91 989 -36 
Q 684 19 347 128 
L 347 722 
Q 666 556 975 473 
Q 1284 391 1588 391 
Q 1994 391 2212 530 
Q 2431 669 2431 922 
Q 2431 1156 2273 1281 
Q 2116 1406 1581 1522 
L 1381 1569 
Q 847 1681 609 1914 
Q 372 2147 372 2553 
Q 372 3047 722 3315 
Q 1072 3584 1716 3584 
Q 2034 3584 2315 3537 
Q 2597 3491 2834 3397 
z
" transform="scale(0.015625)"/>
      </defs>
      <use xlink:href="#DejaVuSans-53"/>
      <use xlink:href="#DejaVuSans-74" transform="translate(63.476562 0)"/>
      <use xlink:href="#DejaVuSans-65" transform="translate(102.685547 0)"/>
      <use xlink:href="#DejaVuSans-70" transform="translate(164.208984 0)"/>
      <use xlink:href="#DejaVuSans-73" transform="translate(227.685547 0)"/>
     </g>
    </g>
   </g>
   <g id="matplotlib.axis_2">
    <g id="ytick_1">
     <g id="line2d_19">
      <path d="M 50.87 372.801818 
L 709.2 372.801818 
" clip-path="url(#p4cb555b117)" style="fill: none; stroke: #b0b0b0; stroke-width: 0.8; stroke-linecap: square"/>
     </g>
     <g id="line2d_20">
      <defs>
       <path id="mfcd911f376" d="M 0 0 
L -3.5 0 
" style="stroke: #000000; stroke-width: 0.8"/>
      </defs>
      <g>
       <use xlink:href="#mfcd911f376" x="50.87" y="372.801818" style="stroke: #000000; stroke-width: 0.8"/>
      </g>
     </g>
     <g id="text_11">
      <!-- 0 -->
      <g transform="translate(37.5075 376.601037) scale(0.1 -0.1)">
       <use xlink:href="#DejaVuSans-30"/>
      </g>
     </g>
    </g>
    <g id="ytick_2">
     <g id="line2d_21">
      <path d="M 50.87 311.606619 
L 709.2 311.606619 
" clip-path="url(#p4cb555b117)" style="fill: none; stroke: #b0b0b0; stroke-width: 0.8; stroke-linecap: square"/>
     </g>
     <g id="line2d_22">
      <g>
       <use xlink:href="#mfcd911f376" x="50.87" y="311.606619" style="stroke: #000000; stroke-width: 0.8"/>
      </g>
     </g>
     <g id="text_12">
      <!-- 20 -->
      <g transform="translate(31.145 315.405838) scale(0.1 -0.1)">
       <use xlink:href="#DejaVuSans-32"/>
       <use xlink:href="#DejaVuSans-30" transform="translate(63.623047 0)"/>
      </g>
     </g>
    </g>
    <g id="ytick_3">
     <g id="line2d_23">
      <path d="M 50.87 250.411421 
L 709.2 250.411421 
" clip-path="url(#p4cb555b117)" style="fill: none; stroke: #b0b0b0; stroke-width: 0.8; stroke-linecap: square"/>
     </g>
     <g id="line2d_24">
      <g>
       <use xlink:href="#mfcd911f376" x="50.87" y="250.411421" style="stroke: #000000; stroke-width: 0.8"/>
      </g>
     </g>
     <g id="text_13">
      <!-- 40 -->
      <g transform="translate(31.145 254.210639) scale(0.1 -0.1)">
       <defs>
        <path id="DejaVuSans-34" d="M 2419 4116 
L 825 1625 
L 2419 1625 
L 2419 4116 
z
M 2253 4666 
L 3047 4666 
L 3047 1625 
L 3713 1625 
L 3713 1100 
L 3047 1100 
L 3047 0 
L 2419 0 
L 2419 1100 
L 313 1100 
L 313 1709 
L 2253 4666 
z
" transform="scale(0.015625)"/>
       </defs>
       <use xlink:href="#DejaVuSans-34"/>
       <use xlink:href="#DejaVuSans-30" transform="translate(63.623047 0)"/>
      </g>
     </g>
    </g>
    <g id="ytick_4">
     <g id="line2d_25">
      <path d="M 50.87 189.216222 
L 709.2 189.216222 
" clip-path="url(#p4cb555b117)" style="fill: none; stroke: #b0b0b0; stroke-width: 0.8; stroke-linecap: square"/>
     </g>
     <g id="line2d_26">
      <g>
       <use xlink:href="#mfcd911f376" x="50.87" y="189.216222" style="stroke: #000000; stroke-width: 0.8"/>
      </g>
     </g>
     <g id="text_14">
      <!-- 60 -->
      <g transform="translate(31.145 193.01544) scale(0.1 -0.1)">
       <defs>
        <path id="DejaVuSans-36" d="M 2113 2584 
Q 1688 2584 1439 2293 
Q 1191 2003 1191 1497 
Q 1191 994 1439 701 
Q 1688 409 2113 409 
Q 2538 409 2786 701 
Q 3034 994 3034 1497 
Q 3034 2003 2786 2293 
Q 2538 2584 2113 2584 
z
M 3366 4563 
L 3366 3988 
Q 3128 4100 2886 4159 
Q 2644 4219 2406 4219 
Q 1781 4219 1451 3797 
Q 1122 3375 1075 2522 
Q 1259 2794 1537 2939 
Q 1816 3084 2150 3084 
Q 2853 3084 3261 2657 
Q 3669 2231 3669 1497 
Q 3669 778 3244 343 
Q 2819 -91 2113 -91 
Q 1303 -91 875 529 
Q 447 1150 447 2328 
Q 447 3434 972 4092 
Q 1497 4750 2381 4750 
Q 2619 4750 2861 4703 
Q 3103 4656 3366 4563 
z
" transform="scale(0.015625)"/>
       </defs>
       <use xlink:href="#DejaVuSans-36"/>
       <use xlink:href="#DejaVuSans-30" transform="translate(63.623047 0)"/>
      </g>
     </g>
    </g>
    <g id="ytick_5">
     <g id="line2d_27">
      <path d="M 50.87 128.021023 
L 709.2 128.021023 
" clip-path="url(#p4cb555b117)" style="fill: none; stroke: #b0b0b0; stroke-width: 0.8; stroke-linecap: square"/>
     </g>
     <g id="line2d_28">
      <g>
       <use xlink:href="#mfcd911f376" x="50.87" y="128.021023" style="stroke: #000000; stroke-width: 0.8"/>
      </g>
     </g>
     <g id="text_15">
      <!-- 80 -->
      <g transform="translate(31.145 131.820242) scale(0.1 -0.1)">
       <defs>
        <path id="DejaVuSans-38" d="M 2034 2216 
Q 1584 2216 1326 1975 
Q 1069 1734 1069 1313 
Q 1069 891 1326 650 
Q 1584 409 2034 409 
Q 2484 409 2743 651 
Q 3003 894 3003 1313 
Q 3003 1734 2745 1975 
Q 2488 2216 2034 2216 
z
M 1403 2484 
Q 997 2584 770 2862 
Q 544 3141 544 3541 
Q 544 4100 942 4425 
Q 1341 4750 2034 4750 
Q 2731 4750 3128 4425 
Q 3525 4100 3525 3541 
Q 3525 3141 3298 2862 
Q 3072 2584 2669 2484 
Q 3125 2378 3379 2068 
Q 3634 1759 3634 1313 
Q 3634 634 3220 271 
Q 2806 -91 2034 -91 
Q 1263 -91 848 271 
Q 434 634 434 1313 
Q 434 1759 690 2068 
Q 947 2378 1403 2484 
z
M 1172 3481 
Q 1172 3119 1398 2916 
Q 1625 2713 2034 2713 
Q 2441 2713 2670 2916 
Q 2900 3119 2900 3481 
Q 2900 3844 2670 4047 
Q 2441 4250 2034 4250 
Q 1625 4250 1398 4047 
Q 1172 3844 1172 3481 
z
" transform="scale(0.015625)"/>
       </defs>
       <use xlink:href="#DejaVuSans-38"/>
       <use xlink:href="#DejaVuSans-30" transform="translate(63.623047 0)"/>
      </g>
     </g>
    </g>
    <g id="ytick_6">
     <g id="line2d_29">
      <path d="M 50.87 66.825824 
L 709.2 66.825824 
" clip-path="url(#p4cb555b117)" style="fill: none; stroke: #b0b0b0; stroke-width: 0.8; stroke-linecap: square"/>
     </g>
     <g id="line2d_30">
      <g>
       <use xlink:href="#mfcd911f376" x="50.87" y="66.825824" style="stroke: #000000; stroke-width: 0.8"/>
      </g>
     </g>
     <g id="text_16">
      <!-- 100 -->
      <g transform="translate(24.7825 70.625043) scale(0.1 -0.1)">
       <use xlink:href="#DejaVuSans-31"/>
       <use xlink:href="#DejaVuSans-30" transform="translate(63.623047 0)"/>
       <use xlink:href="#DejaVuSans-30" transform="translate(127.246094 0)"/>
      </g>
     </g>
    </g>
    <g id="text_17">
     <!-- Reward -->
     <g transform="translate(18.702813 219.041094) rotate(-90) scale(0.1 -0.1)">
      <defs>
       <path id="DejaVuSans-52" d="M 2841 2188 
Q 3044 2119 3236 1894 
Q 3428 1669 3622 1275 
L 4263 0 
L 3584 0 
L 2988 1197 
Q 2756 1666 2539 1819 
Q 2322 1972 1947 1972 
L 1259 1972 
L 1259 0 
L 628 0 
L 628 4666 
L 2053 4666 
Q 2853 4666 3247 4331 
Q 3641 3997 3641 3322 
Q 3641 2881 3436 2590 
Q 3231 2300 2841 2188 
z
M 1259 4147 
L 1259 2491 
L 2053 2491 
Q 2509 2491 2742 2702 
Q 2975 2913 2975 3322 
Q 2975 3731 2742 3939 
Q 2509 4147 2053 4147 
L 1259 4147 
z
" transform="scale(0.015625)"/>
       <path id="DejaVuSans-77" d="M 269 3500 
L 844 3500 
L 1563 769 
L 2278 3500 
L 2956 3500 
L 3675 769 
L 4391 3500 
L 4966 3500 
L 4050 0 
L 3372 0 
L 2619 2869 
L 1863 0 
L 1184 0 
L 269 3500 
z
" transform="scale(0.015625)"/>
       <path id="DejaVuSans-61" d="M 2194 1759 
Q 1497 1759 1228 1600 
Q 959 1441 959 1056 
Q 959 750 1161 570 
Q 1363 391 1709 391 
Q 2188 391 2477 730 
Q 2766 1069 2766 1631 
L 2766 1759 
L 2194 1759 
z
M 3341 1997 
L 3341 0 
L 2766 0 
L 2766 531 
Q 2569 213 2275 61 
Q 1981 -91 1556 -91 
Q 1019 -91 701 211 
Q 384 513 384 1019 
Q 384 1609 779 1909 
Q 1175 2209 1959 2209 
L 2766 2209 
L 2766 2266 
Q 2766 2663 2505 2880 
Q 2244 3097 1772 3097 
Q 1472 3097 1187 3025 
Q 903 2953 641 2809 
L 641 3341 
Q 956 3463 1253 3523 
Q 1550 3584 1831 3584 
Q 2591 3584 2966 3190 
Q 3341 2797 3341 1997 
z
" transform="scale(0.015625)"/>
       <path id="DejaVuSans-72" d="M 2631 2963 
Q 2534 3019 2420 3045 
Q 2306 3072 2169 3072 
Q 1681 3072 1420 2755 
Q 1159 2438 1159 1844 
L 1159 0 
L 581 0 
L 581 3500 
L 1159 3500 
L 1159 2956 
Q 1341 3275 1631 3429 
Q 1922 3584 2338 3584 
Q 2397 3584 2469 3576 
Q 2541 3569 2628 3553 
L 2631 2963 
z
" transform="scale(0.015625)"/>
       <path id="DejaVuSans-64" d="M 2906 2969 
L 2906 4863 
L 3481 4863 
L 3481 0 
L 2906 0 
L 2906 525 
Q 2725 213 2448 61 
Q 2172 -91 1784 -91 
Q 1150 -91 751 415 
Q 353 922 353 1747 
Q 353 2572 751 3078 
Q 1150 3584 1784 3584 
Q 2172 3584 2448 3432 
Q 2725 3281 2906 2969 
z
M 947 1747 
Q 947 1113 1208 752 
Q 1469 391 1925 391 
Q 2381 391 2643 752 
Q 2906 1113 2906 1747 
Q 2906 2381 2643 2742 
Q 2381 3103 1925 3103 
Q 1469 3103 1208 2742 
Q 947 2381 947 1747 
z
" transform="scale(0.015625)"/>
      </defs>
      <use xlink:href="#DejaVuSans-52"/>
      <use xlink:href="#DejaVuSans-65" transform="translate(64.982422 0)"/>
      <use xlink:href="#DejaVuSans-77" transform="translate(126.505859 0)"/>
      <use xlink:href="#DejaVuSans-61" transform="translate(208.292969 0)"/>
      <use xlink:href="#DejaVuSans-72" transform="translate(269.572266 0)"/>
      <use xlink:href="#DejaVuSans-64" transform="translate(308.935547 0)"/>
     </g>
    </g>
   </g>
   <g id="line2d_31">
    <path d="M 80.794091 363.403284 
L 83.654363 364.325733 
L 86.433172 363.006286 
L 89.278359 361.906353 
L 92.226129 363.426753 
L 95.029075 361.728796 
L 97.859176 358.132388 
L 100.849186 351.719437 
L 103.87842 346.137166 
L 106.995151 336.89702 
L 110.151106 322.154813 
L 113.291974 300.965811 
L 116.339311 282.307752 
L 119.36251 262.446561 
L 122.295195 219.561702 
L 124.868836 175.296648 
L 129.961811 117.840607 
L 132.438903 92.099775 
L 134.925047 82.885648 
L 137.408174 84.296045 
L 139.855094 65.259329 
L 142.302015 67.342884 
L 144.739884 61.652257 
L 147.189822 66.312878 
L 149.636743 62.201161 
L 152.07763 60.093004 
L 154.50343 64.24303 
L 156.926214 58.034816 
L 159.364083 59.607125 
L 161.789883 60.634944 
L 164.200598 61.152491 
L 166.617347 58.03604 
L 169.046165 59.070698 
L 171.465931 58.541722 
L 173.891732 59.572606 
L 176.329601 56.485603 
L 178.749367 56.995801 
L 181.178185 56.976219 
L 183.597952 55.97485 
L 186.014701 55.442191 
L 188.449553 56.472582 
L 190.869319 58.57568 
L 193.298137 58.025184 
L 195.723937 56.484782 
L 198.149738 55.953902 
L 200.578556 56.45657 
L 203.001339 61.103166 
L 205.421105 54.909011 
L 210.275724 55.948003 
L 212.701524 59.563909 
L 215.118274 55.442996 
L 217.535023 57.003887 
L 219.954789 55.420795 
L 222.377572 55.427436 
L 224.800356 54.931647 
L 227.214088 55.447041 
L 229.642906 59.589333 
L 232.07474 55.994336 
L 234.428129 85.80637 
L 236.763415 65.404084 
L 239.162061 60.645256 
L 241.584844 77.471295 
L 243.793409 74.822201 
L 246.213175 57.019877 
L 248.632942 66.970058 
L 250.874695 93.182947 
L 253.225067 67.475609 
L 255.641816 61.658768 
L 258.073651 74.539915 
L 262.940338 68.343862 
L 265.378207 79.831543 
L 267.816076 81.133403 
L 270.241877 73.256986 
L 272.712935 96.340019 
L 275.829666 112.724286 
L 278.644681 75.408558 
L 281.133842 60.079252 
L 283.6049 66.697739 
L 286.142336 68.754906 
L 288.673737 73.869442 
L 291.156864 57.503313 
L 293.727489 108.717315 
L 296.319233 76.427464 
L 298.871755 70.293371 
L 301.351864 67.780662 
L 303.813871 59.024003 
L 306.284929 66.748809 
L 308.740901 64.660324 
L 311.196874 56.443333 
L 313.649829 62.125619 
L 316.081664 56.444914 
L 318.519533 59.005809 
L 320.966454 88.187963 
L 323.413374 144.782614 
L 325.839175 100.417302 
L 328.267993 73.509167 
L 330.69681 57.980449 
L 333.116577 54.921392 
L 335.650995 89.805091 
L 338.206534 71.377387 
L 340.671558 61.599227 
L 343.12753 59.534461 
L 345.571434 58.533467 
L 347.988183 61.097387 
L 350.444155 61.086712 
L 352.882024 60.043407 
L 355.313859 54.90832 
L 360.135289 59.045591 
L 362.579192 55.935798 
L 365.004993 61.609698 
L 367.460965 61.111496 
L 369.91392 62.089384 
L 372.369892 59.544785 
L 374.813796 58.000105 
L 377.29994 72.872884 
L 379.825307 72.355156 
L 382.341623 71.331768 
L 384.851904 63.644172 
L 387.295807 60.547514 
L 389.709539 67.943713 
L 392.120254 61.644619 
L 394.543038 57.510379 
L 396.983924 60.593909 
L 399.415759 56.47367 
L 401.838542 55.954548 
L 404.270377 56.460043 
L 406.705229 59.013158 
L 409.164219 60.040092 
L 411.599071 56.450229 
L 414.018837 54.393793 
L 416.459724 77.53733 
L 419.054485 155.633481 
L 421.555715 79.30761 
L 424.020739 61.634159 
L 426.461625 62.166337 
L 428.896477 59.580947 
L 431.349433 60.091326 
L 433.781267 68.242923 
L 436.210085 73.409079 
L 438.80183 84.769582 
L 441.342283 111.681225 
L 443.861615 71.427969 
L 446.326639 77.846671 
L 448.776577 69.022488 
L 451.220481 62.620479 
L 453.664384 56.991801 
L 456.099236 55.429164 
L 458.534089 56.985982 
L 460.965923 56.445464 
L 463.388707 54.391934 
L 465.826576 58.005001 
L 468.264445 56.477869 
L 470.699298 57.500418 
L 473.131132 55.933685 
L 475.553916 56.967345 
L 477.979717 74.611542 
L 480.634822 69.441114 
L 483.133034 57.491573 
L 487.999721 57.495947 
L 490.446642 56.485462 
L 492.863391 57.008885 
L 495.289192 54.937739 
L 497.751198 80.43482 
L 500.276565 64.775569 
L 502.726503 63.273352 
L 505.16739 57.5072 
L 507.611293 73.900306 
L 510.037094 58.020181 
L 512.487032 64.657774 
L 514.97921 132.82348 
L 517.429148 191.119721 
L 519.897189 111.374869 
L 522.368247 60.052218 
L 524.803099 56.965821 
L 527.247003 59.022966 
L 529.678838 55.434349 
L 532.131793 63.119542 
L 534.578713 61.576403 
L 537.046754 58.508915 
L 539.490658 60.062508 
L 541.916459 56.959061 
L 544.390534 67.789558 
L 546.870643 68.278887 
L 549.329633 67.76521 
L 551.779571 57.471957 
L 554.223474 57.471407 
L 556.664361 59.019713 
L 559.096196 56.45717 
L 561.531048 126.70464 
L 563.974951 117.381807 
L 566.415838 77.444562 
L 568.856724 58.507986 
L 571.300628 56.955095 
L 573.729446 56.44301 
L 576.167315 57.469871 
L 578.602167 60.024136 
L 581.067191 54.909385 
L 583.511094 67.207926 
L 585.994221 58.506915 
L 588.480365 84.142314 
L 591.090213 76.470369 
L 593.567305 99.465875 
L 596.02026 65.663178 
L 598.458129 74.367424 
L 600.88393 57.473583 
L 603.315765 60.558665 
L 605.765703 56.446025 
L 608.191503 54.909634 
L 610.61127 56.451668 
L 613.034053 57.47909 
L 615.514163 69.267246 
L 617.964101 57.986296 
L 620.432141 64.139916 
L 622.879062 60.047481 
L 625.341069 62.095463 
L 627.778938 59.032887 
L 630.216807 62.12116 
L 632.669762 57.996943 
L 635.104615 58.059374 
L 637.524381 56.98448 
L 639.959233 58.011964 
L 642.391068 55.420393 
L 644.822903 59.026728 
L 647.251721 54.400139 
L 649.671487 60.552602 
L 652.157631 137.844014 
L 654.619637 127.58639 
L 657.066558 70.786882 
L 659.513479 57.984852 
L 661.957382 80.041539 
L 664.552144 67.217779 
L 669.530466 64.163691 
L 671.983421 56.448455 
L 674.415256 59.017509 
L 676.862177 60.050173 
L 676.862177 60.050173 
" clip-path="url(#p4cb555b117)" style="fill: none; stroke: #0000ff; stroke-width: 1.5; stroke-linecap: square"/>
   </g>
   <g id="line2d_32">
    <path d="M 80.845383 362.171441 
L 83.669449 364.164943 
L 86.481447 363.096463 
L 89.230084 363.517996 
L 92.036047 362.183845 
L 94.820891 363.58883 
L 100.481092 363.597941 
L 103.232746 362.986952 
L 106.096036 363.554691 
L 108.947257 365.270474 
L 111.735117 364.001166 
L 114.489789 364.128265 
L 117.353078 363.925579 
L 120.225419 363.40806 
L 123.127932 362.506746 
L 125.991222 364.029594 
L 128.77003 362.01515 
L 131.63332 365.121475 
L 134.520747 363.017697 
L 137.435328 365.244676 
L 140.238274 363.63174 
L 143.032169 361.504997 
L 145.955802 361.558968 
L 148.837194 364.724556 
L 151.718587 361.862921 
L 154.464207 362.151768 
L 157.354651 363.571525 
L 160.148546 362.574865 
L 162.987698 364.503109 
L 165.808747 364.15858 
L 168.666002 364.49308 
L 171.447828 363.638557 
L 174.166294 364.217327 
L 177.165356 364.169261 
L 180.004508 364.272465 
L 182.855729 364.9734 
L 185.652641 364.650085 
L 188.416364 364.638741 
L 191.228362 363.68949 
L 194.10372 364.607396 
L 196.945889 364.688139 
L 199.73375 363.544769 
L 202.621176 362.001817 
L 205.451277 363.932837 
L 208.317584 364.48726 
L 211.180873 363.104974 
L 214.074334 364.070833 
L 217.010036 362.994341 
L 219.819017 363.661867 
L 222.724546 363.671897 
L 225.527493 363.55949 
L 228.408885 364.499437 
L 231.242003 364.042881 
L 234.253134 365.194139 
L 237.03496 364.617277 
L 239.913335 363.612418 
L 242.885242 361.422299 
L 245.757583 364.432054 
L 248.566564 363.53227 
L 251.399682 361.347544 
L 254.196594 364.608308 
L 256.918076 361.614406 
L 259.799469 363.633525 
L 262.741205 362.315783 
L 265.607511 363.041478 
L 268.528127 364.601871 
L 271.303919 364.069229 
L 274.146088 362.989072 
L 276.906794 364.652482 
L 279.751981 363.520659 
L 282.585099 362.839126 
L 285.469508 363.102498 
L 288.251334 363.568012 
L 291.075401 365.052347 
L 293.944724 364.997543 
L 296.774825 362.915269 
L 299.677338 365.051338 
L 302.504421 364.595627 
L 305.328488 363.992338 
L 308.264189 362.96992 
L 311.184805 363.33725 
L 314.054129 365.141148 
L 316.908367 362.074804 
L 319.798811 364.593485 
L 322.680203 363.254738 
L 325.531424 361.019113 
L 328.427902 364.118962 
L 331.221797 363.656224 
L 334.060949 361.476904 
L 336.906136 363.609834 
L 339.697013 364.663933 
L 342.524097 364.723814 
L 345.314975 364.236745 
L 348.259728 364.074663 
L 353.962169 364.244327 
L 356.704772 362.035809 
L 359.586165 363.52215 
L 362.301613 361.095998 
L 365.12568 363.534196 
L 368.085518 363.916082 
L 373.7246 364.105091 
L 376.521511 363.734729 
L 379.393852 362.161565 
L 382.154558 364.115392 
L 384.999745 364.606053 
L 387.866052 364.683538 
L 393.57151 364.230003 
L 396.308079 364.244485 
L 399.11706 364.940705 
L 401.907937 363.678073 
L 404.544939 364.701019 
L 407.384092 364.583977 
L 410.223244 362.800381 
L 413.074465 363.666967 
L 415.986029 364.102705 
L 418.834232 363.661601 
L 421.658299 364.15212 
L 424.618138 363.890902 
L 427.496513 364.227424 
L 430.302476 363.00339 
L 433.1718 364.153656 
L 435.920437 364.58426 
L 438.687178 364.034529 
L 441.429781 363.288639 
L 444.277984 364.183313 
L 447.01757 362.977189 
L 452.566136 365.217568 
L 455.441494 363.045099 
L 458.265561 364.92467 
L 461.149971 362.523166 
L 464.028346 365.719182 
L 466.909738 364.73735 
L 469.757942 364.52379 
L 472.6333 364.079836 
L 475.421161 362.793729 
L 478.178849 364.140397 
L 480.951624 361.678316 
L 483.721381 363.103688 
L 486.533379 362.65366 
L 489.330291 364.565602 
L 492.084963 363.179451 
L 494.881874 365.141414 
L 497.727061 364.729304 
L 500.436475 363.105898 
L 506.144951 364.113556 
L 508.920743 363.149862 
L 511.684466 362.391727 
L 514.55379 363.405363 
L 517.489491 365.1023 
L 520.283386 363.598882 
L 523.185899 365.246596 
L 525.991862 363.00675 
L 528.761619 363.56689 
L 531.552497 365.046635 
L 534.379581 362.124695 
L 537.194595 364.131524 
L 540.00961 364.687731 
L 542.719024 364.174876 
L 545.518953 364.728579 
L 548.409397 363.138597 
L 551.299841 362.353831 
L 554.208388 362.619877 
L 556.969094 364.58264 
L 559.913847 363.187423 
L 562.716794 364.494683 
L 565.522757 361.401906 
L 571.041152 361.664853 
L 573.81996 364.281202 
L 576.616872 364.249137 
L 579.44999 363.544843 
L 582.31328 363.566613 
L 585.170535 365.639793 
L 588.015721 363.621054 
L 590.936337 363.624731 
L 593.703077 363.187928 
L 596.512058 362.947617 
L 599.408536 364.129586 
L 602.196397 362.042523 
L 605.123047 364.028591 
L 607.962199 362.879328 
L 610.867729 362.936013 
L 613.82455 362.537989 
L 616.648617 363.449367 
L 619.382168 363.065209 
L 625.090644 362.908288 
L 627.950916 364.689068 
L 630.654296 365.729359 
L 633.511551 364.108728 
L 636.323549 361.951796 
L 639.183822 361.827836 
L 642.065214 363.715045 
L 644.865143 363.664531 
L 647.683175 363.049677 
L 650.612842 363.981697 
L 653.364497 365.108018 
L 656.200632 364.1576 
L 659.178573 363.848252 
L 662.038846 364.02497 
L 664.938341 364.448339 
L 667.831803 364.522635 
L 670.692075 364.105997 
L 673.510107 363.148292 
L 676.367362 361.350338 
L 679.275909 365.682238 
L 679.275909 365.682238 
" clip-path="url(#p4cb555b117)" style="fill: none; stroke: #ffa500; stroke-width: 1.5; stroke-linecap: square"/>
   </g>
   <g id="patch_3">
    <path d="M 50.87 390.04 
L 50.87 10.8 
" style="fill: none; stroke: #000000; stroke-width: 0.8; stroke-linejoin: miter; stroke-linecap: square"/>
   </g>
   <g id="patch_4">
    <path d="M 709.2 390.04 
L 709.2 10.8 
" style="fill: none; stroke: #000000; stroke-width: 0.8; stroke-linejoin: miter; stroke-linecap: square"/>
   </g>
   <g id="patch_5">
    <path d="M 50.87 390.04 
L 709.2 390.04 
" style="fill: none; stroke: #000000; stroke-width: 0.8; stroke-linejoin: miter; stroke-linecap: square"/>
   </g>
   <g id="patch_6">
    <path d="M 50.87 10.8 
L 709.2 10.8 
" style="fill: none; stroke: #000000; stroke-width: 0.8; stroke-linejoin: miter; stroke-linecap: square"/>
   </g>
   <g id="legend_1">
    <g id="patch_7">
     <path d="M 628.803125 385.04 
L 702.2 385.04 
Q 704.2 385.04 704.2 383.04 
L 704.2 340.005625 
Q 704.2 338.005625 702.2 338.005625 
L 628.803125 338.005625 
Q 626.803125 338.005625 626.803125 340.005625 
L 626.803125 383.04 
Q 626.803125 385.04 628.803125 385.04 
z
" style="fill: #ffffff; opacity: 0.8; stroke: #cccccc; stroke-linejoin: miter"/>
    </g>
    <g id="text_18">
     <!-- Agent -->
     <g transform="translate(650.701563 349.604062) scale(0.1 -0.1)">
      <defs>
       <path id="DejaVuSans-41" d="M 2188 4044 
L 1331 1722 
L 3047 1722 
L 2188 4044 
z
M 1831 4666 
L 2547 4666 
L 4325 0 
L 3669 0 
L 3244 1197 
L 1141 1197 
L 716 0 
L 50 0 
L 1831 4666 
z
" transform="scale(0.015625)"/>
       <path id="DejaVuSans-67" d="M 2906 1791 
Q 2906 2416 2648 2759 
Q 2391 3103 1925 3103 
Q 1463 3103 1205 2759 
Q 947 2416 947 1791 
Q 947 1169 1205 825 
Q 1463 481 1925 481 
Q 2391 481 2648 825 
Q 2906 1169 2906 1791 
z
M 3481 434 
Q 3481 -459 3084 -895 
Q 2688 -1331 1869 -1331 
Q 1566 -1331 1297 -1286 
Q 1028 -1241 775 -1147 
L 775 -588 
Q 1028 -725 1275 -790 
Q 1522 -856 1778 -856 
Q 2344 -856 2625 -561 
Q 2906 -266 2906 331 
L 2906 616 
Q 2728 306 2450 153 
Q 2172 0 1784 0 
Q 1141 0 747 490 
Q 353 981 353 1791 
Q 353 2603 747 3093 
Q 1141 3584 1784 3584 
Q 2172 3584 2450 3431 
Q 2728 3278 2906 2969 
L 2906 3500 
L 3481 3500 
L 3481 434 
z
" transform="scale(0.015625)"/>
       <path id="DejaVuSans-6e" d="M 3513 2113 
L 3513 0 
L 2938 0 
L 2938 2094 
Q 2938 2591 2744 2837 
Q 2550 3084 2163 3084 
Q 1697 3084 1428 2787 
Q 1159 2491 1159 1978 
L 1159 0 
L 581 0 
L 581 3500 
L 1159 3500 
L 1159 2956 
Q 1366 3272 1645 3428 
Q 1925 3584 2291 3584 
Q 2894 3584 3203 3211 
Q 3513 2838 3513 2113 
z
" transform="scale(0.015625)"/>
      </defs>
      <use xlink:href="#DejaVuSans-41"/>
      <use xlink:href="#DejaVuSans-67" transform="translate(68.408203 0)"/>
      <use xlink:href="#DejaVuSans-65" transform="translate(131.884766 0)"/>
      <use xlink:href="#DejaVuSans-6e" transform="translate(193.408203 0)"/>
      <use xlink:href="#DejaVuSans-74" transform="translate(256.787109 0)"/>
     </g>
    </g>
    <g id="line2d_33">
     <path d="M 630.803125 360.782187 
L 640.803125 360.782187 
L 650.803125 360.782187 
" style="fill: none; stroke: #0000ff; stroke-width: 1.5; stroke-linecap: square"/>
    </g>
    <g id="text_19">
     <!-- PPO -->
     <g transform="translate(658.803125 364.282187) scale(0.1 -0.1)">
      <defs>
       <path id="DejaVuSans-50" d="M 1259 4147 
L 1259 2394 
L 2053 2394 
Q 2494 2394 2734 2622 
Q 2975 2850 2975 3272 
Q 2975 3691 2734 3919 
Q 2494 4147 2053 4147 
L 1259 4147 
z
M 628 4666 
L 2053 4666 
Q 2838 4666 3239 4311 
Q 3641 3956 3641 3272 
Q 3641 2581 3239 2228 
Q 2838 1875 2053 1875 
L 1259 1875 
L 1259 0 
L 628 0 
L 628 4666 
z
" transform="scale(0.015625)"/>
       <path id="DejaVuSans-4f" d="M 2522 4238 
Q 1834 4238 1429 3725 
Q 1025 3213 1025 2328 
Q 1025 1447 1429 934 
Q 1834 422 2522 422 
Q 3209 422 3611 934 
Q 4013 1447 4013 2328 
Q 4013 3213 3611 3725 
Q 3209 4238 2522 4238 
z
M 2522 4750 
Q 3503 4750 4090 4092 
Q 4678 3434 4678 2328 
Q 4678 1225 4090 567 
Q 3503 -91 2522 -91 
Q 1538 -91 948 565 
Q 359 1222 359 2328 
Q 359 3434 948 4092 
Q 1538 4750 2522 4750 
z
" transform="scale(0.015625)"/>
      </defs>
      <use xlink:href="#DejaVuSans-50"/>
      <use xlink:href="#DejaVuSans-50" transform="translate(60.302734 0)"/>
      <use xlink:href="#DejaVuSans-4f" transform="translate(120.605469 0)"/>
     </g>
    </g>
    <g id="line2d_34">
     <path d="M 630.803125 375.460312 
L 640.803125 375.460312 
L 650.803125 375.460312 
" style="fill: none; stroke: #ffa500; stroke-width: 1.5; stroke-linecap: square"/>
    </g>
    <g id="text_20">
     <!-- Random -->
     <g transform="translate(658.803125 378.960312) scale(0.1 -0.1)">
      <defs>
       <path id="DejaVuSans-6f" d="M 1959 3097 
Q 1497 3097 1228 2736 
Q 959 2375 959 1747 
Q 959 1119 1226 758 
Q 1494 397 1959 397 
Q 2419 397 2687 759 
Q 2956 1122 2956 1747 
Q 2956 2369 2687 2733 
Q 2419 3097 1959 3097 
z
M 1959 3584 
Q 2709 3584 3137 3096 
Q 3566 2609 3566 1747 
Q 3566 888 3137 398 
Q 2709 -91 1959 -91 
Q 1206 -91 779 398 
Q 353 888 353 1747 
Q 353 2609 779 3096 
Q 1206 3584 1959 3584 
z
" transform="scale(0.015625)"/>
       <path id="DejaVuSans-6d" d="M 3328 2828 
Q 3544 3216 3844 3400 
Q 4144 3584 4550 3584 
Q 5097 3584 5394 3201 
Q 5691 2819 5691 2113 
L 5691 0 
L 5113 0 
L 5113 2094 
Q 5113 2597 4934 2840 
Q 4756 3084 4391 3084 
Q 3944 3084 3684 2787 
Q 3425 2491 3425 1978 
L 3425 0 
L 2847 0 
L 2847 2094 
Q 2847 2600 2669 2842 
Q 2491 3084 2119 3084 
Q 1678 3084 1418 2786 
Q 1159 2488 1159 1978 
L 1159 0 
L 581 0 
L 581 3500 
L 1159 3500 
L 1159 2956 
Q 1356 3278 1631 3431 
Q 1906 3584 2284 3584 
Q 2666 3584 2933 3390 
Q 3200 3197 3328 2828 
z
" transform="scale(0.015625)"/>
      </defs>
      <use xlink:href="#DejaVuSans-52"/>
      <use xlink:href="#DejaVuSans-61" transform="translate(67.232422 0)"/>
      <use xlink:href="#DejaVuSans-6e" transform="translate(128.511719 0)"/>
      <use xlink:href="#DejaVuSans-64" transform="translate(191.890625 0)"/>
      <use xlink:href="#DejaVuSans-6f" transform="translate(255.367188 0)"/>
      <use xlink:href="#DejaVuSans-6d" transform="translate(316.548828 0)"/>
     </g>
    </g>
   </g>
  </g>
 </g>
 <defs>
  <clipPath id="p4cb555b117">
   <rect x="50.87" y="10.8" width="658.33" height="379.24"/>
  </clipPath>
 </defs>
</svg>
