<?xml version="1.0" encoding="utf-8" standalone="no"?>
<!DOCTYPE svg PUBLIC "-//W3C//DTD SVG 1.1//EN"
  "http://www.w3.org/Graphics/SVG/1.1/DTD/svg11.dtd">
<svg xmlns:xlink="http://www.w3.org/1999/xlink" width="720pt" height="432pt" viewBox="0 0 720 432" xmlns="http://www.w3.org/2000/svg" version="1.1">
 <metadata>
  <rdf:RDF xmlns:dc="http://purl.org/dc/elements/1.1/" xmlns:cc="http://creativecommons.org/ns#" xmlns:rdf="http://www.w3.org/1999/02/22-rdf-syntax-ns#">
   <cc:Work>
    <dc:type rdf:resource="http://purl.org/dc/dcmitype/StillImage"/>
    <dc:date>2025-04-15T17:18:00.743033</dc:date>
    <dc:format>image/svg+xml</dc:format>
    <dc:creator>
     <cc:Agent>
      <dc:title>Matplotlib v3.10.0, https://matplotlib.org/</dc:title>
     </cc:Agent>
    </dc:creator>
   </cc:Work>
  </rdf:RDF>
 </metadata>
 <defs>
  <style type="text/css">*{stroke-linejoin: round; stroke-linecap: butt}</style>
 </defs>
 <g id="figure_1">
  <g id="patch_1">
   <path d="M 0 432 
L 720 432 
L 720 0 
L 0 0 
z
" style="fill: #ffffff"/>
  </g>
  <g id="axes_1">
   <g id="patch_2">
    <path d="M 47.72 390.04 
L 709.2 390.04 
L 709.2 10.8 
L 47.72 10.8 
z
" style="fill: #ffffff"/>
   </g>
   <g id="FillBetweenPolyCollection_1">
    <defs>
     <path id="m13f440c1f5" d="M 77.787273 -378.301771 
L 77.787273 -85.14015 
L 80.661231 -87.26516 
L 83.453336 -99.402732 
L 86.312136 -108.004455 
L 89.274011 -84.986336 
L 92.090369 -79.466029 
L 94.934011 -94.056067 
L 97.938328 -110.46052 
L 100.982056 -139.912167 
L 104.113701 -130.643865 
L 107.284756 -136.810595 
L 110.440653 -158.975304 
L 113.502571 -163.246864 
L 116.540236 -159.609487 
L 119.486952 -149.59562 
L 122.072908 -136.659256 
L 124.625517 -132.069061 
L 127.190252 -132.604701 
L 129.679197 -134.470271 
L 132.177236 -129.724351 
L 134.672244 -135.381399 
L 137.130873 -140.31091 
L 139.589502 -137.307473 
L 142.039036 -140.700535 
L 144.500697 -138.424194 
L 146.959326 -140.063035 
L 149.411891 -142.998847 
L 151.849299 -140.116153 
L 154.283675 -143.779964 
L 156.733209 -143.085215 
L 159.170617 -144.183828 
L 161.592866 -141.0924 
L 164.021179 -144.213053 
L 166.461618 -145.326278 
L 168.892963 -144.553721 
L 171.330371 -141.904663 
L 173.779905 -146.759507 
L 176.211249 -145.475947 
L 178.651688 -146.383561 
L 181.083033 -145.267512 
L 183.511346 -146.568508 
L 185.957848 -144.738668 
L 188.389193 -143.334664 
L 190.829632 -144.539109 
L 193.267039 -146.568508 
L 195.704447 -146.511365 
L 198.144886 -146.837421 
L 200.579262 -144.368775 
L 203.010607 -147.235233 
L 205.43892 -146.553895 
L 207.888454 -146.468728 
L 210.325861 -144.809223 
L 212.754174 -145.901783 
L 215.182487 -144.582946 
L 217.613832 -146.483341 
L 220.048208 -147.405567 
L 222.482584 -145.660894 
L 224.907865 -146.107395 
L 227.348304 -143.616883 
L 229.791775 -142.852886 
L 232.156424 -119.621113 
L 234.502884 -136.966755 
L 236.913007 -142.345111 
L 239.347383 -126.131332 
L 241.566516 -129.548922 
L 243.99786 -143.760499 
L 246.429205 -135.526273 
L 248.681684 -110.408823 
L 251.043302 -137.29897 
L 253.471615 -141.851545 
L 255.915086 -134.253916 
L 258.36462 -140.226116 
L 260.805059 -137.901086 
L 263.254593 -119.275219 
L 265.704127 -100.868642 
L 268.141535 -114.260597 
L 270.624417 -134.715875 
L 273.756061 -129.14604 
L 276.584545 -137.926603 
L 279.085617 -143.475773 
L 281.568498 -143.690666 
L 284.118075 -142.637514 
L 286.661589 -143.913714 
L 289.156597 -146.242452 
L 291.739521 -140.081193 
L 294.343667 -143.0061 
L 296.908402 -143.053166 
L 299.400379 -141.23471 
L 301.874166 -145.901783 
L 304.357047 -142.553547 
L 306.824771 -145.376168 
L 309.292495 -147.3204 
L 311.757187 -146.142672 
L 314.200657 -146.979731 
L 316.650192 -146.639063 
L 319.10882 -138.263458 
L 321.567449 -137.314776 
L 324.004857 -140.407249 
L 326.445296 -144.084048 
L 328.885735 -147.007755 
L 331.31708 -146.497953 
L 333.863625 -141.273639 
L 336.431392 -144.176575 
L 338.90821 -146.468728 
L 341.375934 -146.72423 
L 343.831531 -146.738842 
L 346.259844 -145.731449 
L 348.727568 -145.887171 
L 351.177102 -145.493788 
L 353.620573 -147.490734 
L 356.042822 -144.767893 
L 358.465072 -144.909002 
L 360.920669 -147.405567 
L 363.358077 -144.15711 
L 365.8258 -145.568474 
L 368.290493 -145.887171 
L 370.758216 -145.731449 
L 373.213813 -146.227839 
L 375.711853 -144.098661 
L 378.249304 -144.091408 
L 380.777659 -144.098661 
L 383.299952 -146.12806 
L 385.755549 -146.553895 
L 388.18083 -137.789201 
L 390.60308 -143.504998 
L 393.037456 -145.505172 
L 395.490022 -145.561115 
L 397.933493 -146.909176 
L 400.367869 -146.824009 
L 402.81134 -147.3204 
L 405.257842 -146.894564 
L 407.728597 -146.298394 
L 410.1751 -147.235233 
L 412.606444 -147.575901 
L 415.05901 -144.680218 
L 417.666187 -143.502491 
L 420.179385 -145.205834 
L 422.656203 -146.72423 
L 425.108769 -145.816616 
L 427.555272 -145.49056 
L 430.019964 -146.809397 
L 432.463434 -144.080024 
L 434.903874 -144.850553 
L 437.508019 -143.487878 
L 440.060628 -144.537908 
L 442.592015 -145.53189 
L 445.068834 -146.468728 
L 447.530494 -147.150065 
L 449.986091 -145.787391 
L 452.441689 -146.327619 
L 454.888191 -147.3204 
L 457.334694 -147.150065 
L 459.778165 -147.064898 
L 462.212541 -147.490734 
L 464.662075 -146.72423 
L 467.111609 -147.3204 
L 469.558111 -146.586349 
L 472.001582 -147.064898 
L 474.435958 -146.553895 
L 476.873366 -140.976701 
L 479.541175 -143.346769 
L 482.051341 -146.639063 
L 484.488749 -147.235233 
L 486.941315 -145.887171 
L 489.399943 -147.405567 
L 491.828256 -146.994344 
L 494.265664 -147.746235 
L 496.739451 -135.049241 
L 499.276901 -143.220272 
L 501.738562 -145.561115 
L 504.191127 -146.398174 
L 506.646725 -141.890772 
L 509.084132 -145.831228 
L 511.545793 -145.787391 
L 514.049896 -137.389921 
L 516.511556 -136.489561 
L 518.991406 -142.159281 
L 521.474288 -146.553895 
L 523.92079 -147.235233 
L 526.376388 -146.809397 
L 528.819859 -146.58312 
L 531.284551 -146.464704 
L 533.743179 -146.383561 
L 536.22303 -146.398174 
L 538.678627 -145.561115 
L 541.116034 -147.064898 
L 543.601948 -144.79461 
L 546.093924 -145.567167 
L 548.56468 -145.134078 
L 551.02634 -147.064898 
L 553.481937 -146.72423 
L 555.934503 -146.72423 
L 558.377974 -147.235233 
L 560.824476 -136.821776 
L 563.280074 -137.395974 
L 565.732639 -141.486504 
L 568.185205 -146.639063 
L 570.640802 -146.979731 
L 573.081241 -147.235233 
L 575.530775 -147.185343 
L 577.977278 -145.872558 
L 580.454096 -147.405567 
L 582.909694 -145.787391 
L 585.404702 -147.064898 
L 587.902741 -142.721374 
L 590.525077 -143.672825 
L 593.014022 -135.097874 
L 595.478714 -144.680218 
L 597.928248 -141.642226 
L 600.365655 -146.72423 
L 602.809126 -146.383561 
L 605.270787 -147.235233 
L 607.708194 -147.575901 
L 610.139539 -147.405567 
L 612.573915 -147.064898 
L 615.065891 -145.191221 
L 617.527552 -147.064898 
L 620.007402 -146.042893 
L 622.466031 -146.313006 
L 624.939818 -146.227839 
L 627.389352 -146.327619 
L 629.838886 -146.227839 
L 632.303578 -146.809397 
L 634.75008 -147.661068 
L 637.181425 -146.497953 
L 639.627927 -147.064898 
L 642.071398 -147.490734 
L 644.514869 -146.809397 
L 646.955308 -147.661068 
L 649.386653 -146.67434 
L 651.884692 -134.972428 
L 654.358479 -138.480591 
L 656.817108 -145.006275 
L 659.275737 -147.064898 
L 661.731334 -143.402711 
L 664.338512 -145.53189 
L 666.851709 -145.872558 
L 669.340654 -145.957725 
L 671.805346 -147.3204 
L 674.248817 -146.809397 
L 676.707446 -145.957725 
L 676.707446 -158.751993 
L 676.707446 -158.751993 
L 674.248817 -153.788088 
L 671.805346 -150.809745 
L 669.340654 -158.751993 
L 666.851709 -159.248383 
L 664.338512 -161.233945 
L 661.731334 -173.643707 
L 659.275737 -152.298917 
L 656.817108 -167.105463 
L 654.358479 -226.267732 
L 651.884692 -265.552325 
L 649.386653 -155.979262 
L 646.955308 -148.824183 
L 644.514869 -153.788088 
L 642.071398 -149.816964 
L 639.627927 -152.298917 
L 637.181425 -149.987299 
L 634.75008 -148.824183 
L 632.303578 -153.788088 
L 629.838886 -154.369646 
L 627.389352 -150.98008 
L 624.939818 -154.369646 
L 622.466031 -153.873255 
L 620.007402 -158.255602 
L 617.527552 -152.298917 
L 615.065891 -163.219507 
L 612.573915 -152.298917 
L 610.139539 -150.313355 
L 607.708194 -149.320574 
L 605.270787 -151.306136 
L 602.809126 -156.27004 
L 600.365655 -154.284479 
L 597.928248 -185.684775 
L 595.478714 -166.19785 
L 593.014022 -226.360663 
L 590.525077 -169.26136 
L 587.902741 -177.61483 
L 585.404702 -152.298917 
L 582.909694 -159.744774 
L 580.454096 -150.313355 
L 577.977278 -159.248383 
L 575.530775 -153.000919 
L 573.081241 -151.306136 
L 570.640802 -152.795307 
L 568.185205 -154.780869 
L 565.732639 -183.784381 
L 563.280074 -224.473786 
L 560.824476 -222.580645 
L 558.377974 -151.306136 
L 555.934503 -154.284479 
L 553.481937 -154.284479 
L 551.02634 -152.298917 
L 548.56468 -165.332766 
L 546.093924 -162.432338 
L 543.601948 -159.915108 
L 541.116034 -152.298917 
L 538.678627 -155.447594 
L 536.22303 -153.376865 
L 533.743179 -156.27004 
L 531.284551 -159.478685 
L 528.819859 -149.490908 
L 526.376388 -153.788088 
L 523.92079 -151.306136 
L 521.474288 -155.277259 
L 518.991406 -189.691176 
L 516.511556 -216.74451 
L 514.049896 -217.489042 
L 511.545793 -159.744774 
L 509.084132 -151.065247 
L 506.646725 -186.258675 
L 504.191127 -153.376865 
L 501.738562 -155.447594 
L 499.276901 -160.667 
L 496.739451 -174.595157 
L 494.265664 -148.327793 
L 491.828256 -149.902132 
L 489.399943 -150.313355 
L 486.941315 -156.355208 
L 484.488749 -151.306136 
L 482.051341 -154.780869 
L 479.541175 -168.353746 
L 476.873366 -179.359503 
L 474.435958 -155.277259 
L 472.001582 -152.298917 
L 469.558111 -152.777466 
L 467.111609 -150.809745 
L 464.662075 -154.284479 
L 462.212541 -149.816964 
L 459.778165 -152.298917 
L 457.334694 -151.802526 
L 454.888191 -150.809745 
L 452.441689 -150.98008 
L 449.986091 -159.744774 
L 447.530494 -151.802526 
L 445.068834 -155.77365 
L 442.592015 -161.233945 
L 440.060628 -168.8075 
L 437.508019 -173.147316 
L 434.903874 -165.205069 
L 432.463434 -173.377617 
L 430.019964 -153.788088 
L 427.555272 -153.050809 
L 425.108769 -153.958422 
L 422.656203 -154.284479 
L 420.179385 -160.326331 
L 417.666187 -170.25414 
L 415.05901 -166.19785 
L 412.606444 -149.320574 
L 410.1751 -151.306136 
L 407.728597 -156.766431 
L 405.257842 -153.291698 
L 402.81134 -150.809745 
L 400.367869 -150.894912 
L 397.933493 -150.398522 
L 395.490022 -155.447594 
L 393.037456 -150.157633 
L 390.60308 -153.391477 
L 388.18083 -155.817487 
L 385.755549 -155.277259 
L 383.299952 -157.759212 
L 380.777659 -166.779407 
L 378.249304 -167.197884 
L 375.711853 -166.779407 
L 373.213813 -154.369646 
L 370.758216 -154.454813 
L 368.290493 -156.355208 
L 365.8258 -152.972895 
L 363.358077 -155.206705 
L 360.920669 -150.313355 
L 358.465072 -153.632366 
L 356.042822 -148.838796 
L 353.620573 -149.816964 
L 351.177102 -156.337367 
L 348.727568 -156.355208 
L 346.259844 -154.454813 
L 343.831531 -151.391303 
L 341.375934 -154.284479 
L 338.90821 -155.77365 
L 336.431392 -166.701493 
L 333.863625 -183.997245 
L 331.31708 -149.987299 
L 328.885735 -154.412176 
L 326.445296 -169.672583 
L 324.004857 -193.910548 
L 321.567449 -240.592693 
L 319.10882 -209.213485 
L 316.650192 -154.780869 
L 314.200657 -152.795307 
L 311.757187 -154.866036 
L 309.292495 -150.809745 
L 306.824771 -159.33355 
L 304.357047 -161.744948 
L 301.874166 -153.462032 
L 299.400379 -161.007668 
L 296.908402 -164.946339 
L 294.343667 -170.339308 
L 291.739521 -193.002935 
L 289.156597 -151.47647 
L 286.661589 -170.665364 
L 284.118075 -168.651778 
L 281.568498 -169.654742 
L 279.085617 -159.177828 
L 276.584545 -184.876941 
L 273.756061 -241.770633 
L 270.624417 -220.163088 
L 268.141535 -157.140032 
L 265.704127 -160.251403 
L 263.254593 -172.686576 
L 260.805059 -166.397409 
L 258.36462 -171.474399 
L 255.915086 -184.437395 
L 253.471615 -161.624503 
L 251.043302 -160.831175 
L 248.681684 -163.870369 
L 246.429205 -160.958979 
L 243.99786 -151.902306 
L 241.566516 -157.889417 
L 239.347383 -156.372327 
L 236.913007 -157.84115 
L 234.502884 -154.99504 
L 232.156424 -159.592759 
L 229.791775 -151.57625 
L 227.348304 -163.971399 
L 224.907865 -153.667644 
L 222.482584 -152.058028 
L 220.048208 -150.313355 
L 217.613832 -152.880474 
L 215.182487 -152.724752 
L 212.754174 -153.462032 
L 210.325861 -157.021932 
L 207.888454 -155.77365 
L 205.43892 -155.277259 
L 203.010607 -151.306136 
L 200.579262 -162.39706 
L 198.144886 -155.404957 
L 195.704447 -154.497343 
L 193.267039 -152.384084 
L 190.829632 -161.404279 
L 188.389193 -154.384258 
L 185.957848 -154.625147 
L 183.511346 -152.384084 
L 181.083033 -152.040187 
L 178.651688 -156.27004 
L 176.211249 -155.943984 
L 173.779905 -155.482871 
L 171.330371 -163.216278 
L 168.892963 -158.511104 
L 166.461618 -161.028333 
L 164.021179 -160.496665 
L 161.592866 -163.617318 
L 159.170617 -166.283017 
L 156.733209 -162.858173 
L 154.283675 -163.397094 
L 151.849299 -173.640478 
L 149.411891 -170.757784 
L 146.959326 -172.048703 
L 144.500697 -177.388554 
L 142.039036 -176.757106 
L 139.589502 -197.010324 
L 137.130873 -196.474227 
L 134.672244 -226.488361 
L 132.177236 -218.986263 
L 129.679197 -227.399489 
L 127.190252 -267.920051 
L 124.625517 -301.353558 
L 122.072908 -319.380645 
L 119.486952 -365.66044 
L 116.540236 -397.180128 
L 113.502571 -388.608072 
L 110.440653 -400.692875 
L 107.284756 -401.062748 
L 104.113701 -381.733631 
L 100.982056 -397.961175 
L 97.938328 -384.645596 
L 94.934011 -376.376651 
L 92.090369 -360.536162 
L 89.274011 -383.390264 
L 86.312136 -403.961818 
L 83.453336 -392.413598 
L 80.661231 -376.999207 
L 77.787273 -378.301771 
z
" style="stroke: #0000ff; stroke-opacity: 0.2"/>
    </defs>
    <g clip-path="url(#pac9061406e)">
     <use xlink:href="#m13f440c1f5" x="0" y="432" style="fill: #0000ff; fill-opacity: 0.2; stroke: #0000ff; stroke-opacity: 0.2"/>
    </g>
   </g>
   <g id="FillBetweenPolyCollection_2">
    <defs>
     <path id="mc83382050a" d="M 77.83881 -377.789251 
L 77.83881 -97.578146 
L 80.676389 -73.904133 
L 83.501842 -91.930889 
L 86.263631 -81.012555 
L 89.08302 -84.190381 
L 91.881188 -86.751447 
L 94.697546 -88.546557 
L 97.568473 -84.684119 
L 100.333294 -89.534405 
L 103.210283 -96.948109 
L 106.075147 -96.007245 
L 108.876347 -82.971091 
L 111.644199 -89.685827 
L 114.521189 -94.618047 
L 117.407274 -97.864467 
L 120.323674 -88.652064 
L 123.200664 -114.939251 
L 125.992769 -95.970257 
L 128.869759 -99.731856 
L 131.771002 -83.656733 
L 134.699529 -79.24742 
L 137.515887 -89.922972 
L 140.32315 -83.616952 
L 143.260772 -89.6896 
L 146.155951 -79.633288 
L 149.051131 -89.46571 
L 151.809888 -65.63132 
L 154.714162 -95.790065 
L 157.521425 -84.526703 
L 160.374163 -97.941012 
L 163.20871 -80.165691 
L 166.079637 -95.323409 
L 168.874773 -84.548844 
L 171.606246 -80.117979 
L 174.619658 -97.560328 
L 177.472395 -72.479136 
L 180.337259 -97.073333 
L 183.147553 -74.09462 
L 185.9245 -94.462855 
L 188.749953 -73.548855 
L 191.639069 -82.584019 
L 194.494838 -89.364216 
L 197.296038 -96.399357 
L 200.197281 -95.761125 
L 203.040923 -90.818517 
L 205.920944 -84.332952 
L 208.797934 -94.409222 
L 211.70524 -97.472563 
L 214.654989 -94.41848 
L 217.47741 -97.370123 
L 220.396842 -84.199815 
L 223.2132 -94.692791 
L 226.108379 -79.135792 
L 228.955053 -92.551005 
L 231.980591 -78.608561 
L 234.775728 -91.056763 
L 237.667876 -99.464654 
L 240.654004 -108.087115 
L 243.540088 -80.931192 
L 246.362509 -87.405475 
L 249.209183 -86.449596 
L 252.019478 -82.742784 
L 254.753982 -84.507936 
L 257.649162 -86.755813 
L 260.604973 -99.503311 
L 263.484995 -88.950196 
L 266.419585 -96.504766 
L 269.208659 -98.741834 
L 272.064427 -87.294852 
L 274.838343 -82.234632 
L 277.697143 -93.98742 
L 280.543817 -92.916653 
L 283.442028 -81.848095 
L 286.237165 -84.069637 
L 289.074744 -97.143108 
L 291.957797 -78.854162 
L 294.801439 -94.054479 
L 297.71784 -75.623902 
L 300.55845 -101.168887 
L 303.396029 -87.328341 
L 306.345778 -112.619514 
L 309.280368 -107.690343 
L 312.163421 -80.637029 
L 315.031316 -114.519809 
L 317.935591 -85.525749 
L 320.83077 -76.453387 
L 323.695634 -78.674098 
L 326.605971 -109.949432 
L 329.413234 -90.316812 
L 332.265971 -93.909069 
L 335.124771 -77.643229 
L 337.929003 -76.726614 
L 340.769614 -104.99421 
L 343.573845 -78.541756 
L 346.532688 -107.164394 
L 349.400583 -82.496068 
L 352.262415 -70.608368 
L 355.018141 -78.818021 
L 357.91332 -91.870225 
L 360.641762 -70.979776 
L 363.479341 -83.114463 
L 366.453342 -89.73571 
L 369.278795 -81.520012 
L 372.119405 -73.859713 
L 374.9297 -94.692398 
L 377.815785 -68.825545 
L 380.5897 -90.800102 
L 383.4485 -87.829726 
L 386.328522 -85.511318 
L 389.247954 -117.507666 
L 392.06128 -59.198182 
L 394.810943 -87.937866 
L 397.633364 -74.653886 
L 400.437596 -77.221975 
L 403.087215 -84.042288 
L 405.939952 -97.255463 
L 408.792689 -94.224991 
L 411.657553 -85.331149 
L 414.583048 -91.468579 
L 417.44488 -80.233125 
L 420.282459 -88.447156 
L 423.256461 -102.368929 
L 426.148608 -82.391132 
L 428.967998 -91.939563 
L 431.851051 -104.082403 
L 434.61284 -81.374504 
L 437.392819 -94.581363 
L 440.148544 -67.382009 
L 443.010376 -90.259781 
L 445.763071 -89.142965 
L 448.52486 -93.363911 
L 451.338186 -100.245381 
L 454.227302 -101.158425 
L 457.064881 -92.339978 
L 459.963092 -92.114966 
L 462.85524 -75.099941 
L 465.75042 -85.710485 
L 468.612251 -97.312967 
L 471.501368 -99.029974 
L 474.302568 -85.010229 
L 477.073451 -77.97556 
L 479.859493 -72.365467 
L 482.642504 -85.123023 
L 485.467956 -77.481453 
L 488.278251 -89.247161 
L 491.046103 -81.130705 
L 493.856398 -85.684272 
L 496.715198 -85.609847 
L 499.437576 -94.460227 
L 502.281218 -79.3586 
L 505.173366 -88.746254 
L 507.96244 -90.592397 
L 510.739387 -102.310517 
L 513.62244 -110.618087 
L 516.572188 -95.777819 
L 519.379451 -76.084668 
L 522.295852 -92.460481 
L 525.115241 -84.222093 
L 527.898252 -83.136944 
L 530.702483 -81.946937 
L 533.543094 -67.658402 
L 536.371578 -90.06552 
L 539.200062 -77.498848 
L 541.922441 -86.369337 
L 544.735767 -81.382719 
L 547.640041 -94.081364 
L 550.544315 -99.299548 
L 553.466779 -97.285649 
L 556.240695 -89.056723 
L 559.199538 -84.859805 
L 562.015896 -94.843567 
L 564.835285 -86.253378 
L 567.62739 -92.353768 
L 570.380084 -87.394498 
L 573.172189 -74.612305 
L 575.982484 -87.070997 
L 578.829158 -88.755104 
L 581.706148 -95.677225 
L 584.577075 -86.979023 
L 587.435875 -91.972763 
L 590.370465 -80.803428 
L 593.150444 -69.439852 
L 595.972865 -102.722216 
L 598.883202 -93.574563 
L 601.684402 -95.666521 
L 604.625056 -95.501211 
L 607.477793 -111.893816 
L 610.397225 -110.202 
L 613.368195 -92.410014 
L 616.205774 -113.705805 
L 618.952405 -84.276624 
L 621.826363 -89.313916 
L 624.688195 -87.347896 
L 627.562153 -85.497486 
L 630.278468 -86.415778 
L 633.149395 -91.716576 
L 635.974847 -79.848244 
L 638.848806 -96.89783 
L 641.743985 -82.926262 
L 644.557311 -71.790412 
L 647.388827 -96.442789 
L 650.332512 -109.277664 
L 653.097333 -88.244304 
L 655.947039 -82.925823 
L 658.939229 -84.258094 
L 661.813188 -88.2727 
L 664.726557 -114.63712 
L 667.633863 -117.179491 
L 670.507821 -90.907675 
L 673.339337 -80.788501 
L 676.210263 -85.803569 
L 679.132727 -102.025078 
L 679.132727 -379.510669 
L 679.132727 -379.510669 
L 676.210263 -376.815905 
L 673.339337 -362.503477 
L 670.507821 -382.814829 
L 667.633863 -389.852102 
L 664.726557 -381.702666 
L 661.813188 -378.047784 
L 658.939229 -385.352177 
L 655.947039 -371.880408 
L 653.097333 -373.963947 
L 650.332512 -378.837656 
L 647.388827 -381.391948 
L 644.557311 -355.463857 
L 641.743985 -378.048319 
L 638.848806 -396.974617 
L 635.974847 -377.425327 
L 633.149395 -389.407948 
L 630.278468 -388.951619 
L 627.562153 -366.018958 
L 624.688195 -384.729714 
L 621.826363 -369.604548 
L 618.952405 -375.053063 
L 616.205774 -385.101321 
L 613.368195 -377.200257 
L 610.397225 -382.848 
L 607.477793 -387.735757 
L 604.625056 -377.398846 
L 601.684402 -385.046779 
L 598.883202 -364.110231 
L 595.972865 -387.860444 
L 593.150444 -364.805213 
L 590.370465 -385.105833 
L 587.435875 -369.824265 
L 584.577075 -383.04247 
L 581.706148 -389.970755 
L 578.829158 -373.041924 
L 575.982484 -378.42704 
L 573.172189 -372.791906 
L 570.380084 -357.542373 
L 567.62739 -370.265707 
L 564.835285 -370.60897 
L 562.015896 -385.45851 
L 559.199538 -376.114776 
L 556.240695 -379.319878 
L 553.466779 -375.203185 
L 550.544315 -377.301519 
L 547.640041 -383.753373 
L 544.735767 -378.358192 
L 541.922441 -383.240934 
L 539.200062 -369.49414 
L 536.371578 -379.955974 
L 533.543094 -366.586663 
L 530.702483 -385.195994 
L 527.898252 -379.48253 
L 525.115241 -376.752488 
L 522.295852 -368.102877 
L 519.379451 -385.712359 
L 516.572188 -379.589578 
L 513.62244 -395.179836 
L 510.739387 -402.253736 
L 507.96244 -377.784203 
L 505.173366 -377.163006 
L 502.281218 -359.821145 
L 499.437576 -385.430626 
L 496.715198 -381.944307 
L 493.856398 -376.112755 
L 491.046103 -376.965312 
L 488.278251 -379.951886 
L 485.467956 -381.025788 
L 482.642504 -370.916878 
L 479.859493 -376.272415 
L 477.073451 -368.606205 
L 474.302568 -368.151108 
L 471.501368 -383.739443 
L 468.612251 -377.231984 
L 465.75042 -384.722232 
L 462.85524 -369.836931 
L 459.963092 -382.429984 
L 457.064881 -385.905983 
L 454.227302 -374.620196 
L 451.338186 -386.225046 
L 448.52486 -370.07801 
L 445.763071 -369.775499 
L 443.010376 -372.770917 
L 440.148544 -370.152842 
L 437.392819 -390.24417 
L 434.61284 -375.487844 
L 431.851051 -386.91148 
L 428.967998 -380.138048 
L 426.148608 -372.826323 
L 423.256461 -383.279051 
L 420.282459 -385.686571 
L 417.44488 -378.685339 
L 414.583048 -373.207012 
L 411.657553 -390.447472 
L 408.792689 -395.535222 
L 405.939952 -373.177254 
L 403.087215 -376.109846 
L 400.437596 -371.004682 
L 397.633364 -351.366713 
L 394.810943 -360.700015 
L 392.06128 -361.06529 
L 389.247954 -385.00047 
L 386.328522 -382.45406 
L 383.4485 -388.360118 
L 380.5897 -374.697936 
L 377.815785 -366.241967 
L 374.9297 -387.665796 
L 372.119405 -378.890401 
L 369.278795 -367.117869 
L 366.453342 -380.285784 
L 363.479341 -375.804001 
L 360.641762 -374.368319 
L 357.91332 -369.104356 
L 355.018141 -382.567783 
L 352.262415 -365.692814 
L 349.400583 -364.908144 
L 346.532688 -382.184596 
L 343.573845 -362.282882 
L 340.769614 -382.298664 
L 337.929003 -383.014297 
L 335.124771 -369.349759 
L 332.265971 -385.159338 
L 329.413234 -369.835322 
L 326.605971 -386.801578 
L 323.695634 -372.842346 
L 320.83077 -366.016144 
L 317.935591 -387.374308 
L 315.031316 -391.689337 
L 312.163421 -361.010056 
L 309.280368 -396.87391 
L 306.345778 -400.580429 
L 303.396029 -388.450279 
L 300.55845 -376.254626 
L 297.71784 -380.827223 
L 294.801439 -395.705734 
L 291.957797 -368.961273 
L 289.074744 -390.972213 
L 286.237165 -371.147817 
L 283.442028 -375.836699 
L 280.543817 -391.908881 
L 277.697143 -374.800404 
L 274.838343 -361.46857 
L 272.064427 -369.978719 
L 269.208659 -372.102107 
L 266.419585 -389.965661 
L 263.484995 -388.884541 
L 260.604973 -398.070145 
L 257.649162 -379.975894 
L 254.753982 -374.821752 
L 252.019478 -384.81137 
L 249.209183 -388.917801 
L 246.362509 -374.391552 
L 243.540088 -381.277059 
L 240.654004 -382.495545 
L 237.667876 -385.772103 
L 234.775728 -366.628032 
L 231.980591 -380.721127 
L 228.955053 -376.648042 
L 226.108379 -376.492885 
L 223.2132 -383.55317 
L 220.396842 -384.999233 
L 217.47741 -383.343178 
L 214.654989 -380.537694 
L 211.70524 -394.754991 
L 208.797934 -387.126525 
L 205.920944 -384.866095 
L 203.040923 -377.14686 
L 200.197281 -381.251166 
L 197.296038 -369.509904 
L 194.494838 -370.376695 
L 191.639069 -383.736465 
L 188.749953 -373.444133 
L 185.9245 -374.324969 
L 183.147553 -378.655494 
L 180.337259 -387.752201 
L 177.472395 -356.008802 
L 174.619658 -395.900895 
L 171.606246 -368.108678 
L 168.874773 -383.827757 
L 166.079637 -387.034785 
L 163.20871 -373.818093 
L 160.374163 -377.015162 
L 157.521425 -381.793781 
L 154.714162 -371.764089 
L 151.809888 -371.492308 
L 149.051131 -380.555784 
L 146.155951 -362.42502 
L 143.260772 -391.434924 
L 140.32315 -368.310716 
L 137.515887 -389.145435 
L 134.699529 -373.913918 
L 131.771002 -378.962741 
L 128.869759 -383.037561 
L 125.992769 -373.22879 
L 123.200664 -383.456653 
L 120.323674 -388.360227 
L 117.407274 -381.20394 
L 114.521189 -388.973816 
L 111.644199 -369.64386 
L 108.876347 -378.825936 
L 106.075147 -382.649938 
L 103.210283 -372.662162 
L 100.333294 -381.720759 
L 97.568473 -373.823121 
L 94.697546 -367.904567 
L 91.881188 -382.447601 
L 89.08302 -372.260743 
L 86.263631 -382.840589 
L 83.501842 -382.614061 
L 80.676389 -358.696039 
L 77.83881 -377.789251 
z
" style="stroke: #ffa500; stroke-opacity: 0.2"/>
    </defs>
    <g clip-path="url(#pac9061406e)">
     <use xlink:href="#mc83382050a" x="0" y="432" style="fill: #ffa500; fill-opacity: 0.2; stroke: #ffa500; stroke-opacity: 0.2"/>
    </g>
   </g>
   <g id="matplotlib.axis_1">
    <g id="xtick_1">
     <g id="line2d_1">
      <path d="M 76.416989 390.04 
L 76.416989 10.8 
" clip-path="url(#pac9061406e)" style="fill: none; stroke: #b0b0b0; stroke-width: 0.8; stroke-linecap: square"/>
     </g>
     <g id="line2d_2">
      <defs>
       <path id="m6d35842ca4" d="M 0 0 
L 0 3.5 
" style="stroke: #000000; stroke-width: 0.8"/>
      </defs>
      <g>
       <use xlink:href="#m6d35842ca4" x="76.416989" y="390.04" style="stroke: #000000; stroke-width: 0.8"/>
      </g>
     </g>
     <g id="text_1">
      <!-- 0 -->
      <g transform="translate(73.235739 404.638438) scale(0.1 -0.1)">
       <defs>
        <path id="DejaVuSans-30" d="M 2034 4250 
Q 1547 4250 1301 3770 
Q 1056 3291 1056 2328 
Q 1056 1369 1301 889 
Q 1547 409 2034 409 
Q 2525 409 2770 889 
Q 3016 1369 3016 2328 
Q 3016 3291 2770 3770 
Q 2525 4250 2034 4250 
z
M 2034 4750 
Q 2819 4750 3233 4129 
Q 3647 3509 3647 2328 
Q 3647 1150 3233 529 
Q 2819 -91 2034 -91 
Q 1250 -91 836 529 
Q 422 1150 422 2328 
Q 422 3509 836 4129 
Q 1250 4750 2034 4750 
z
" transform="scale(0.015625)"/>
       </defs>
       <use xlink:href="#DejaVuSans-30"/>
      </g>
     </g>
    </g>
    <g id="xtick_2">
     <g id="line2d_3">
      <path d="M 152.207028 390.04 
L 152.207028 10.8 
" clip-path="url(#pac9061406e)" style="fill: none; stroke: #b0b0b0; stroke-width: 0.8; stroke-linecap: square"/>
     </g>
     <g id="line2d_4">
      <g>
       <use xlink:href="#m6d35842ca4" x="152.207028" y="390.04" style="stroke: #000000; stroke-width: 0.8"/>
      </g>
     </g>
     <g id="text_2">
      <!-- 25000 -->
      <g transform="translate(136.300778 404.638438) scale(0.1 -0.1)">
       <defs>
        <path id="DejaVuSans-32" d="M 1228 531 
L 3431 531 
L 3431 0 
L 469 0 
L 469 531 
Q 828 903 1448 1529 
Q 2069 2156 2228 2338 
Q 2531 2678 2651 2914 
Q 2772 3150 2772 3378 
Q 2772 3750 2511 3984 
Q 2250 4219 1831 4219 
Q 1534 4219 1204 4116 
Q 875 4013 500 3803 
L 500 4441 
Q 881 4594 1212 4672 
Q 1544 4750 1819 4750 
Q 2544 4750 2975 4387 
Q 3406 4025 3406 3419 
Q 3406 3131 3298 2873 
Q 3191 2616 2906 2266 
Q 2828 2175 2409 1742 
Q 1991 1309 1228 531 
z
" transform="scale(0.015625)"/>
        <path id="DejaVuSans-35" d="M 691 4666 
L 3169 4666 
L 3169 4134 
L 1269 4134 
L 1269 2991 
Q 1406 3038 1543 3061 
Q 1681 3084 1819 3084 
Q 2600 3084 3056 2656 
Q 3513 2228 3513 1497 
Q 3513 744 3044 326 
Q 2575 -91 1722 -91 
Q 1428 -91 1123 -41 
Q 819 9 494 109 
L 494 744 
Q 775 591 1075 516 
Q 1375 441 1709 441 
Q 2250 441 2565 725 
Q 2881 1009 2881 1497 
Q 2881 1984 2565 2268 
Q 2250 2553 1709 2553 
Q 1456 2553 1204 2497 
Q 953 2441 691 2322 
L 691 4666 
z
" transform="scale(0.015625)"/>
       </defs>
       <use xlink:href="#DejaVuSans-32"/>
       <use xlink:href="#DejaVuSans-35" transform="translate(63.623047 0)"/>
       <use xlink:href="#DejaVuSans-30" transform="translate(127.246094 0)"/>
       <use xlink:href="#DejaVuSans-30" transform="translate(190.869141 0)"/>
       <use xlink:href="#DejaVuSans-30" transform="translate(254.492188 0)"/>
      </g>
     </g>
    </g>
    <g id="xtick_3">
     <g id="line2d_5">
      <path d="M 227.997067 390.04 
L 227.997067 10.8 
" clip-path="url(#pac9061406e)" style="fill: none; stroke: #b0b0b0; stroke-width: 0.8; stroke-linecap: square"/>
     </g>
     <g id="line2d_6">
      <g>
       <use xlink:href="#m6d35842ca4" x="227.997067" y="390.04" style="stroke: #000000; stroke-width: 0.8"/>
      </g>
     </g>
     <g id="text_3">
      <!-- 50000 -->
      <g transform="translate(212.090817 404.638438) scale(0.1 -0.1)">
       <use xlink:href="#DejaVuSans-35"/>
       <use xlink:href="#DejaVuSans-30" transform="translate(63.623047 0)"/>
       <use xlink:href="#DejaVuSans-30" transform="translate(127.246094 0)"/>
       <use xlink:href="#DejaVuSans-30" transform="translate(190.869141 0)"/>
       <use xlink:href="#DejaVuSans-30" transform="translate(254.492188 0)"/>
      </g>
     </g>
    </g>
    <g id="xtick_4">
     <g id="line2d_7">
      <path d="M 303.787106 390.04 
L 303.787106 10.8 
" clip-path="url(#pac9061406e)" style="fill: none; stroke: #b0b0b0; stroke-width: 0.8; stroke-linecap: square"/>
     </g>
     <g id="line2d_8">
      <g>
       <use xlink:href="#m6d35842ca4" x="303.787106" y="390.04" style="stroke: #000000; stroke-width: 0.8"/>
      </g>
     </g>
     <g id="text_4">
      <!-- 75000 -->
      <g transform="translate(287.880856 404.638438) scale(0.1 -0.1)">
       <defs>
        <path id="DejaVuSans-37" d="M 525 4666 
L 3525 4666 
L 3525 4397 
L 1831 0 
L 1172 0 
L 2766 4134 
L 525 4134 
L 525 4666 
z
" transform="scale(0.015625)"/>
       </defs>
       <use xlink:href="#DejaVuSans-37"/>
       <use xlink:href="#DejaVuSans-35" transform="translate(63.623047 0)"/>
       <use xlink:href="#DejaVuSans-30" transform="translate(127.246094 0)"/>
       <use xlink:href="#DejaVuSans-30" transform="translate(190.869141 0)"/>
       <use xlink:href="#DejaVuSans-30" transform="translate(254.492188 0)"/>
      </g>
     </g>
    </g>
    <g id="xtick_5">
     <g id="line2d_9">
      <path d="M 379.577145 390.04 
L 379.577145 10.8 
" clip-path="url(#pac9061406e)" style="fill: none; stroke: #b0b0b0; stroke-width: 0.8; stroke-linecap: square"/>
     </g>
     <g id="line2d_10">
      <g>
       <use xlink:href="#m6d35842ca4" x="379.577145" y="390.04" style="stroke: #000000; stroke-width: 0.8"/>
      </g>
     </g>
     <g id="text_5">
      <!-- 100000 -->
      <g transform="translate(360.489645 404.638438) scale(0.1 -0.1)">
       <defs>
        <path id="DejaVuSans-31" d="M 794 531 
L 1825 531 
L 1825 4091 
L 703 3866 
L 703 4441 
L 1819 4666 
L 2450 4666 
L 2450 531 
L 3481 531 
L 3481 0 
L 794 0 
L 794 531 
z
" transform="scale(0.015625)"/>
       </defs>
       <use xlink:href="#DejaVuSans-31"/>
       <use xlink:href="#DejaVuSans-30" transform="translate(63.623047 0)"/>
       <use xlink:href="#DejaVuSans-30" transform="translate(127.246094 0)"/>
       <use xlink:href="#DejaVuSans-30" transform="translate(190.869141 0)"/>
       <use xlink:href="#DejaVuSans-30" transform="translate(254.492188 0)"/>
       <use xlink:href="#DejaVuSans-30" transform="translate(318.115234 0)"/>
      </g>
     </g>
    </g>
    <g id="xtick_6">
     <g id="line2d_11">
      <path d="M 455.367184 390.04 
L 455.367184 10.8 
" clip-path="url(#pac9061406e)" style="fill: none; stroke: #b0b0b0; stroke-width: 0.8; stroke-linecap: square"/>
     </g>
     <g id="line2d_12">
      <g>
       <use xlink:href="#m6d35842ca4" x="455.367184" y="390.04" style="stroke: #000000; stroke-width: 0.8"/>
      </g>
     </g>
     <g id="text_6">
      <!-- 125000 -->
      <g transform="translate(436.279684 404.638438) scale(0.1 -0.1)">
       <use xlink:href="#DejaVuSans-31"/>
       <use xlink:href="#DejaVuSans-32" transform="translate(63.623047 0)"/>
       <use xlink:href="#DejaVuSans-35" transform="translate(127.246094 0)"/>
       <use xlink:href="#DejaVuSans-30" transform="translate(190.869141 0)"/>
       <use xlink:href="#DejaVuSans-30" transform="translate(254.492188 0)"/>
       <use xlink:href="#DejaVuSans-30" transform="translate(318.115234 0)"/>
      </g>
     </g>
    </g>
    <g id="xtick_7">
     <g id="line2d_13">
      <path d="M 531.157223 390.04 
L 531.157223 10.8 
" clip-path="url(#pac9061406e)" style="fill: none; stroke: #b0b0b0; stroke-width: 0.8; stroke-linecap: square"/>
     </g>
     <g id="line2d_14">
      <g>
       <use xlink:href="#m6d35842ca4" x="531.157223" y="390.04" style="stroke: #000000; stroke-width: 0.8"/>
      </g>
     </g>
     <g id="text_7">
      <!-- 150000 -->
      <g transform="translate(512.069723 404.638438) scale(0.1 -0.1)">
       <use xlink:href="#DejaVuSans-31"/>
       <use xlink:href="#DejaVuSans-35" transform="translate(63.623047 0)"/>
       <use xlink:href="#DejaVuSans-30" transform="translate(127.246094 0)"/>
       <use xlink:href="#DejaVuSans-30" transform="translate(190.869141 0)"/>
       <use xlink:href="#DejaVuSans-30" transform="translate(254.492188 0)"/>
       <use xlink:href="#DejaVuSans-30" transform="translate(318.115234 0)"/>
      </g>
     </g>
    </g>
    <g id="xtick_8">
     <g id="line2d_15">
      <path d="M 606.947262 390.04 
L 606.947262 10.8 
" clip-path="url(#pac9061406e)" style="fill: none; stroke: #b0b0b0; stroke-width: 0.8; stroke-linecap: square"/>
     </g>
     <g id="line2d_16">
      <g>
       <use xlink:href="#m6d35842ca4" x="606.947262" y="390.04" style="stroke: #000000; stroke-width: 0.8"/>
      </g>
     </g>
     <g id="text_8">
      <!-- 175000 -->
      <g transform="translate(587.859762 404.638438) scale(0.1 -0.1)">
       <use xlink:href="#DejaVuSans-31"/>
       <use xlink:href="#DejaVuSans-37" transform="translate(63.623047 0)"/>
       <use xlink:href="#DejaVuSans-35" transform="translate(127.246094 0)"/>
       <use xlink:href="#DejaVuSans-30" transform="translate(190.869141 0)"/>
       <use xlink:href="#DejaVuSans-30" transform="translate(254.492188 0)"/>
       <use xlink:href="#DejaVuSans-30" transform="translate(318.115234 0)"/>
      </g>
     </g>
    </g>
    <g id="xtick_9">
     <g id="line2d_17">
      <path d="M 682.737302 390.04 
L 682.737302 10.8 
" clip-path="url(#pac9061406e)" style="fill: none; stroke: #b0b0b0; stroke-width: 0.8; stroke-linecap: square"/>
     </g>
     <g id="line2d_18">
      <g>
       <use xlink:href="#m6d35842ca4" x="682.737302" y="390.04" style="stroke: #000000; stroke-width: 0.8"/>
      </g>
     </g>
     <g id="text_9">
      <!-- 200000 -->
      <g transform="translate(663.649802 404.638438) scale(0.1 -0.1)">
       <use xlink:href="#DejaVuSans-32"/>
       <use xlink:href="#DejaVuSans-30" transform="translate(63.623047 0)"/>
       <use xlink:href="#DejaVuSans-30" transform="translate(127.246094 0)"/>
       <use xlink:href="#DejaVuSans-30" transform="translate(190.869141 0)"/>
       <use xlink:href="#DejaVuSans-30" transform="translate(254.492188 0)"/>
       <use xlink:href="#DejaVuSans-30" transform="translate(318.115234 0)"/>
      </g>
     </g>
    </g>
    <g id="text_10">
     <!-- Steps -->
     <g transform="translate(364.470156 418.316562) scale(0.1 -0.1)">
      <defs>
       <path id="DejaVuSans-53" d="M 3425 4513 
L 3425 3897 
Q 3066 4069 2747 4153 
Q 2428 4238 2131 4238 
Q 1616 4238 1336 4038 
Q 1056 3838 1056 3469 
Q 1056 3159 1242 3001 
Q 1428 2844 1947 2747 
L 2328 2669 
Q 3034 2534 3370 2195 
Q 3706 1856 3706 1288 
Q 3706 609 3251 259 
Q 2797 -91 1919 -91 
Q 1588 -91 1214 -16 
Q 841 59 441 206 
L 441 856 
Q 825 641 1194 531 
Q 1563 422 1919 422 
Q 2459 422 2753 634 
Q 3047 847 3047 1241 
Q 3047 1584 2836 1778 
Q 2625 1972 2144 2069 
L 1759 2144 
Q 1053 2284 737 2584 
Q 422 2884 422 3419 
Q 422 4038 858 4394 
Q 1294 4750 2059 4750 
Q 2388 4750 2728 4690 
Q 3069 4631 3425 4513 
z
" transform="scale(0.015625)"/>
       <path id="DejaVuSans-74" d="M 1172 4494 
L 1172 3500 
L 2356 3500 
L 2356 3053 
L 1172 3053 
L 1172 1153 
Q 1172 725 1289 603 
Q 1406 481 1766 481 
L 2356 481 
L 2356 0 
L 1766 0 
Q 1100 0 847 248 
Q 594 497 594 1153 
L 594 3053 
L 172 3053 
L 172 3500 
L 594 3500 
L 594 4494 
L 1172 4494 
z
" transform="scale(0.015625)"/>
       <path id="DejaVuSans-65" d="M 3597 1894 
L 3597 1613 
L 953 1613 
Q 991 1019 1311 708 
Q 1631 397 2203 397 
Q 2534 397 2845 478 
Q 3156 559 3463 722 
L 3463 178 
Q 3153 47 2828 -22 
Q 2503 -91 2169 -91 
Q 1331 -91 842 396 
Q 353 884 353 1716 
Q 353 2575 817 3079 
Q 1281 3584 2069 3584 
Q 2775 3584 3186 3129 
Q 3597 2675 3597 1894 
z
M 3022 2063 
Q 3016 2534 2758 2815 
Q 2500 3097 2075 3097 
Q 1594 3097 1305 2825 
Q 1016 2553 972 2059 
L 3022 2063 
z
" transform="scale(0.015625)"/>
       <path id="DejaVuSans-70" d="M 1159 525 
L 1159 -1331 
L 581 -1331 
L 581 3500 
L 1159 3500 
L 1159 2969 
Q 1341 3281 1617 3432 
Q 1894 3584 2278 3584 
Q 2916 3584 3314 3078 
Q 3713 2572 3713 1747 
Q 3713 922 3314 415 
Q 2916 -91 2278 -91 
Q 1894 -91 1617 61 
Q 1341 213 1159 525 
z
M 3116 1747 
Q 3116 2381 2855 2742 
Q 2594 3103 2138 3103 
Q 1681 3103 1420 2742 
Q 1159 2381 1159 1747 
Q 1159 1113 1420 752 
Q 1681 391 2138 391 
Q 2594 391 2855 752 
Q 3116 1113 3116 1747 
z
" transform="scale(0.015625)"/>
       <path id="DejaVuSans-73" d="M 2834 3397 
L 2834 2853 
Q 2591 2978 2328 3040 
Q 2066 3103 1784 3103 
Q 1356 3103 1142 2972 
Q 928 2841 928 2578 
Q 928 2378 1081 2264 
Q 1234 2150 1697 2047 
L 1894 2003 
Q 2506 1872 2764 1633 
Q 3022 1394 3022 966 
Q 3022 478 2636 193 
Q 2250 -91 1575 -91 
Q 1294 -91 989 -36 
Q 684 19 347 128 
L 347 722 
Q 666 556 975 473 
Q 1284 391 1588 391 
Q 1994 391 2212 530 
Q 2431 669 2431 922 
Q 2431 1156 2273 1281 
Q 2116 1406 1581 1522 
L 1381 1569 
Q 847 1681 609 1914 
Q 372 2147 372 2553 
Q 372 3047 722 3315 
Q 1072 3584 1716 3584 
Q 2034 3584 2315 3537 
Q 2597 3491 2834 3397 
z
" transform="scale(0.015625)"/>
      </defs>
      <use xlink:href="#DejaVuSans-53"/>
      <use xlink:href="#DejaVuSans-74" transform="translate(63.476562 0)"/>
      <use xlink:href="#DejaVuSans-65" transform="translate(102.685547 0)"/>
      <use xlink:href="#DejaVuSans-70" transform="translate(164.208984 0)"/>
      <use xlink:href="#DejaVuSans-73" transform="translate(227.685547 0)"/>
     </g>
    </g>
   </g>
   <g id="matplotlib.axis_2">
    <g id="ytick_1">
     <g id="line2d_19">
      <path d="M 47.72 345.852096 
L 709.2 345.852096 
" clip-path="url(#pac9061406e)" style="fill: none; stroke: #b0b0b0; stroke-width: 0.8; stroke-linecap: square"/>
     </g>
     <g id="line2d_20">
      <defs>
       <path id="md71226c467" d="M 0 0 
L -3.5 0 
" style="stroke: #000000; stroke-width: 0.8"/>
      </defs>
      <g>
       <use xlink:href="#md71226c467" x="47.72" y="345.852096" style="stroke: #000000; stroke-width: 0.8"/>
      </g>
     </g>
     <g id="text_11">
      <!-- 3.5 -->
      <g transform="translate(24.816875 349.651315) scale(0.1 -0.1)">
       <defs>
        <path id="DejaVuSans-33" d="M 2597 2516 
Q 3050 2419 3304 2112 
Q 3559 1806 3559 1356 
Q 3559 666 3084 287 
Q 2609 -91 1734 -91 
Q 1441 -91 1130 -33 
Q 819 25 488 141 
L 488 750 
Q 750 597 1062 519 
Q 1375 441 1716 441 
Q 2309 441 2620 675 
Q 2931 909 2931 1356 
Q 2931 1769 2642 2001 
Q 2353 2234 1838 2234 
L 1294 2234 
L 1294 2753 
L 1863 2753 
Q 2328 2753 2575 2939 
Q 2822 3125 2822 3475 
Q 2822 3834 2567 4026 
Q 2313 4219 1838 4219 
Q 1578 4219 1281 4162 
Q 984 4106 628 3988 
L 628 4550 
Q 988 4650 1302 4700 
Q 1616 4750 1894 4750 
Q 2613 4750 3031 4423 
Q 3450 4097 3450 3541 
Q 3450 3153 3228 2886 
Q 3006 2619 2597 2516 
z
" transform="scale(0.015625)"/>
        <path id="DejaVuSans-2e" d="M 684 794 
L 1344 794 
L 1344 0 
L 684 0 
L 684 794 
z
" transform="scale(0.015625)"/>
       </defs>
       <use xlink:href="#DejaVuSans-33"/>
       <use xlink:href="#DejaVuSans-2e" transform="translate(63.623047 0)"/>
       <use xlink:href="#DejaVuSans-35" transform="translate(95.410156 0)"/>
      </g>
     </g>
    </g>
    <g id="ytick_2">
     <g id="line2d_21">
      <path d="M 47.72 284.168597 
L 709.2 284.168597 
" clip-path="url(#pac9061406e)" style="fill: none; stroke: #b0b0b0; stroke-width: 0.8; stroke-linecap: square"/>
     </g>
     <g id="line2d_22">
      <g>
       <use xlink:href="#md71226c467" x="47.72" y="284.168597" style="stroke: #000000; stroke-width: 0.8"/>
      </g>
     </g>
     <g id="text_12">
      <!-- 4.0 -->
      <g transform="translate(24.816875 287.967816) scale(0.1 -0.1)">
       <defs>
        <path id="DejaVuSans-34" d="M 2419 4116 
L 825 1625 
L 2419 1625 
L 2419 4116 
z
M 2253 4666 
L 3047 4666 
L 3047 1625 
L 3713 1625 
L 3713 1100 
L 3047 1100 
L 3047 0 
L 2419 0 
L 2419 1100 
L 313 1100 
L 313 1709 
L 2253 4666 
z
" transform="scale(0.015625)"/>
       </defs>
       <use xlink:href="#DejaVuSans-34"/>
       <use xlink:href="#DejaVuSans-2e" transform="translate(63.623047 0)"/>
       <use xlink:href="#DejaVuSans-30" transform="translate(95.410156 0)"/>
      </g>
     </g>
    </g>
    <g id="ytick_3">
     <g id="line2d_23">
      <path d="M 47.72 222.485099 
L 709.2 222.485099 
" clip-path="url(#pac9061406e)" style="fill: none; stroke: #b0b0b0; stroke-width: 0.8; stroke-linecap: square"/>
     </g>
     <g id="line2d_24">
      <g>
       <use xlink:href="#md71226c467" x="47.72" y="222.485099" style="stroke: #000000; stroke-width: 0.8"/>
      </g>
     </g>
     <g id="text_13">
      <!-- 4.5 -->
      <g transform="translate(24.816875 226.284318) scale(0.1 -0.1)">
       <use xlink:href="#DejaVuSans-34"/>
       <use xlink:href="#DejaVuSans-2e" transform="translate(63.623047 0)"/>
       <use xlink:href="#DejaVuSans-35" transform="translate(95.410156 0)"/>
      </g>
     </g>
    </g>
    <g id="ytick_4">
     <g id="line2d_25">
      <path d="M 47.72 160.801601 
L 709.2 160.801601 
" clip-path="url(#pac9061406e)" style="fill: none; stroke: #b0b0b0; stroke-width: 0.8; stroke-linecap: square"/>
     </g>
     <g id="line2d_26">
      <g>
       <use xlink:href="#md71226c467" x="47.72" y="160.801601" style="stroke: #000000; stroke-width: 0.8"/>
      </g>
     </g>
     <g id="text_14">
      <!-- 5.0 -->
      <g transform="translate(24.816875 164.600819) scale(0.1 -0.1)">
       <use xlink:href="#DejaVuSans-35"/>
       <use xlink:href="#DejaVuSans-2e" transform="translate(63.623047 0)"/>
       <use xlink:href="#DejaVuSans-30" transform="translate(95.410156 0)"/>
      </g>
     </g>
    </g>
    <g id="ytick_5">
     <g id="line2d_27">
      <path d="M 47.72 99.118102 
L 709.2 99.118102 
" clip-path="url(#pac9061406e)" style="fill: none; stroke: #b0b0b0; stroke-width: 0.8; stroke-linecap: square"/>
     </g>
     <g id="line2d_28">
      <g>
       <use xlink:href="#md71226c467" x="47.72" y="99.118102" style="stroke: #000000; stroke-width: 0.8"/>
      </g>
     </g>
     <g id="text_15">
      <!-- 5.5 -->
      <g transform="translate(24.816875 102.917321) scale(0.1 -0.1)">
       <use xlink:href="#DejaVuSans-35"/>
       <use xlink:href="#DejaVuSans-2e" transform="translate(63.623047 0)"/>
       <use xlink:href="#DejaVuSans-35" transform="translate(95.410156 0)"/>
      </g>
     </g>
    </g>
    <g id="ytick_6">
     <g id="line2d_29">
      <path d="M 47.72 37.434604 
L 709.2 37.434604 
" clip-path="url(#pac9061406e)" style="fill: none; stroke: #b0b0b0; stroke-width: 0.8; stroke-linecap: square"/>
     </g>
     <g id="line2d_30">
      <g>
       <use xlink:href="#md71226c467" x="47.72" y="37.434604" style="stroke: #000000; stroke-width: 0.8"/>
      </g>
     </g>
     <g id="text_16">
      <!-- 6.0 -->
      <g transform="translate(24.816875 41.233822) scale(0.1 -0.1)">
       <defs>
        <path id="DejaVuSans-36" d="M 2113 2584 
Q 1688 2584 1439 2293 
Q 1191 2003 1191 1497 
Q 1191 994 1439 701 
Q 1688 409 2113 409 
Q 2538 409 2786 701 
Q 3034 994 3034 1497 
Q 3034 2003 2786 2293 
Q 2538 2584 2113 2584 
z
M 3366 4563 
L 3366 3988 
Q 3128 4100 2886 4159 
Q 2644 4219 2406 4219 
Q 1781 4219 1451 3797 
Q 1122 3375 1075 2522 
Q 1259 2794 1537 2939 
Q 1816 3084 2150 3084 
Q 2853 3084 3261 2657 
Q 3669 2231 3669 1497 
Q 3669 778 3244 343 
Q 2819 -91 2113 -91 
Q 1303 -91 875 529 
Q 447 1150 447 2328 
Q 447 3434 972 4092 
Q 1497 4750 2381 4750 
Q 2619 4750 2861 4703 
Q 3103 4656 3366 4563 
z
" transform="scale(0.015625)"/>
       </defs>
       <use xlink:href="#DejaVuSans-36"/>
       <use xlink:href="#DejaVuSans-2e" transform="translate(63.623047 0)"/>
       <use xlink:href="#DejaVuSans-30" transform="translate(95.410156 0)"/>
      </g>
     </g>
    </g>
    <g id="text_17">
     <!-- Quantum Gates -->
     <g transform="translate(18.737188 239.925469) rotate(-90) scale(0.1 -0.1)">
      <defs>
       <path id="DejaVuSans-51" d="M 2522 4238 
Q 1834 4238 1429 3725 
Q 1025 3213 1025 2328 
Q 1025 1447 1429 934 
Q 1834 422 2522 422 
Q 3209 422 3611 934 
Q 4013 1447 4013 2328 
Q 4013 3213 3611 3725 
Q 3209 4238 2522 4238 
z
M 3406 84 
L 4238 -825 
L 3475 -825 
L 2784 -78 
Q 2681 -84 2626 -87 
Q 2572 -91 2522 -91 
Q 1538 -91 948 567 
Q 359 1225 359 2328 
Q 359 3434 948 4092 
Q 1538 4750 2522 4750 
Q 3503 4750 4090 4092 
Q 4678 3434 4678 2328 
Q 4678 1516 4351 937 
Q 4025 359 3406 84 
z
" transform="scale(0.015625)"/>
       <path id="DejaVuSans-75" d="M 544 1381 
L 544 3500 
L 1119 3500 
L 1119 1403 
Q 1119 906 1312 657 
Q 1506 409 1894 409 
Q 2359 409 2629 706 
Q 2900 1003 2900 1516 
L 2900 3500 
L 3475 3500 
L 3475 0 
L 2900 0 
L 2900 538 
Q 2691 219 2414 64 
Q 2138 -91 1772 -91 
Q 1169 -91 856 284 
Q 544 659 544 1381 
z
M 1991 3584 
L 1991 3584 
z
" transform="scale(0.015625)"/>
       <path id="DejaVuSans-61" d="M 2194 1759 
Q 1497 1759 1228 1600 
Q 959 1441 959 1056 
Q 959 750 1161 570 
Q 1363 391 1709 391 
Q 2188 391 2477 730 
Q 2766 1069 2766 1631 
L 2766 1759 
L 2194 1759 
z
M 3341 1997 
L 3341 0 
L 2766 0 
L 2766 531 
Q 2569 213 2275 61 
Q 1981 -91 1556 -91 
Q 1019 -91 701 211 
Q 384 513 384 1019 
Q 384 1609 779 1909 
Q 1175 2209 1959 2209 
L 2766 2209 
L 2766 2266 
Q 2766 2663 2505 2880 
Q 2244 3097 1772 3097 
Q 1472 3097 1187 3025 
Q 903 2953 641 2809 
L 641 3341 
Q 956 3463 1253 3523 
Q 1550 3584 1831 3584 
Q 2591 3584 2966 3190 
Q 3341 2797 3341 1997 
z
" transform="scale(0.015625)"/>
       <path id="DejaVuSans-6e" d="M 3513 2113 
L 3513 0 
L 2938 0 
L 2938 2094 
Q 2938 2591 2744 2837 
Q 2550 3084 2163 3084 
Q 1697 3084 1428 2787 
Q 1159 2491 1159 1978 
L 1159 0 
L 581 0 
L 581 3500 
L 1159 3500 
L 1159 2956 
Q 1366 3272 1645 3428 
Q 1925 3584 2291 3584 
Q 2894 3584 3203 3211 
Q 3513 2838 3513 2113 
z
" transform="scale(0.015625)"/>
       <path id="DejaVuSans-6d" d="M 3328 2828 
Q 3544 3216 3844 3400 
Q 4144 3584 4550 3584 
Q 5097 3584 5394 3201 
Q 5691 2819 5691 2113 
L 5691 0 
L 5113 0 
L 5113 2094 
Q 5113 2597 4934 2840 
Q 4756 3084 4391 3084 
Q 3944 3084 3684 2787 
Q 3425 2491 3425 1978 
L 3425 0 
L 2847 0 
L 2847 2094 
Q 2847 2600 2669 2842 
Q 2491 3084 2119 3084 
Q 1678 3084 1418 2786 
Q 1159 2488 1159 1978 
L 1159 0 
L 581 0 
L 581 3500 
L 1159 3500 
L 1159 2956 
Q 1356 3278 1631 3431 
Q 1906 3584 2284 3584 
Q 2666 3584 2933 3390 
Q 3200 3197 3328 2828 
z
" transform="scale(0.015625)"/>
       <path id="DejaVuSans-20" transform="scale(0.015625)"/>
       <path id="DejaVuSans-47" d="M 3809 666 
L 3809 1919 
L 2778 1919 
L 2778 2438 
L 4434 2438 
L 4434 434 
Q 4069 175 3628 42 
Q 3188 -91 2688 -91 
Q 1594 -91 976 548 
Q 359 1188 359 2328 
Q 359 3472 976 4111 
Q 1594 4750 2688 4750 
Q 3144 4750 3555 4637 
Q 3966 4525 4313 4306 
L 4313 3634 
Q 3963 3931 3569 4081 
Q 3175 4231 2741 4231 
Q 1884 4231 1454 3753 
Q 1025 3275 1025 2328 
Q 1025 1384 1454 906 
Q 1884 428 2741 428 
Q 3075 428 3337 486 
Q 3600 544 3809 666 
z
" transform="scale(0.015625)"/>
      </defs>
      <use xlink:href="#DejaVuSans-51"/>
      <use xlink:href="#DejaVuSans-75" transform="translate(78.710938 0)"/>
      <use xlink:href="#DejaVuSans-61" transform="translate(142.089844 0)"/>
      <use xlink:href="#DejaVuSans-6e" transform="translate(203.369141 0)"/>
      <use xlink:href="#DejaVuSans-74" transform="translate(266.748047 0)"/>
      <use xlink:href="#DejaVuSans-75" transform="translate(305.957031 0)"/>
      <use xlink:href="#DejaVuSans-6d" transform="translate(369.335938 0)"/>
      <use xlink:href="#DejaVuSans-20" transform="translate(466.748047 0)"/>
      <use xlink:href="#DejaVuSans-47" transform="translate(498.535156 0)"/>
      <use xlink:href="#DejaVuSans-61" transform="translate(576.025391 0)"/>
      <use xlink:href="#DejaVuSans-74" transform="translate(637.304688 0)"/>
      <use xlink:href="#DejaVuSans-65" transform="translate(676.513672 0)"/>
      <use xlink:href="#DejaVuSans-73" transform="translate(738.037109 0)"/>
     </g>
    </g>
   </g>
   <g id="line2d_31">
    <path d="M 77.787273 200.27904 
L 80.661231 199.867816 
L 83.453336 186.091835 
L 86.312136 176.016864 
L 89.274011 197.8117 
L 92.090369 211.998904 
L 94.934011 196.783641 
L 97.938328 184.446942 
L 100.982056 163.063329 
L 104.113701 175.811252 
L 107.284756 163.063329 
L 110.440653 152.165911 
L 113.502571 156.072532 
L 116.540236 153.605192 
L 119.486952 174.37197 
L 122.072908 203.98005 
L 124.625517 215.288691 
L 127.190252 231.737624 
L 129.679197 251.06512 
L 132.177236 257.644693 
L 134.672244 251.06512 
L 137.130873 263.607431 
L 139.589502 264.841101 
L 142.039036 273.271179 
L 144.500697 274.093626 
L 146.959326 275.944131 
L 149.411891 275.121684 
L 151.849299 275.121684 
L 154.283675 278.411471 
L 156.733209 279.028306 
L 159.170617 276.766578 
L 161.592866 279.645141 
L 164.021179 279.645141 
L 166.461618 278.822694 
L 168.892963 280.467588 
L 171.330371 279.439529 
L 173.779905 280.878811 
L 176.211249 281.290034 
L 178.651688 280.673199 
L 181.083033 283.346151 
L 183.511346 282.523704 
L 185.957848 282.318093 
L 188.389193 283.140539 
L 190.829632 279.028306 
L 193.267039 282.523704 
L 195.704447 281.495646 
L 198.144886 280.878811 
L 200.579262 278.617083 
L 203.010607 282.729316 
L 205.43892 281.084423 
L 207.888454 280.878811 
L 210.325861 281.084423 
L 212.754174 282.318093 
L 215.182487 283.346151 
L 217.613832 282.318093 
L 220.048208 283.140539 
L 222.482584 283.140539 
L 224.907865 282.112481 
L 227.348304 278.205859 
L 229.791775 284.785432 
L 232.156424 292.393064 
L 234.502884 286.019102 
L 236.913007 281.906869 
L 239.347383 290.748171 
L 241.566516 288.280831 
L 243.99786 284.168597 
L 246.429205 283.757374 
L 248.681684 294.860404 
L 251.043302 282.934928 
L 253.471615 280.261976 
L 255.915086 272.654344 
L 258.36462 276.149743 
L 260.805059 279.850753 
L 263.254593 286.019102 
L 265.704127 301.439977 
L 268.141535 296.299686 
L 270.624417 254.560518 
L 273.756061 246.541663 
L 276.584545 270.598228 
L 279.085617 280.673199 
L 281.568498 275.327296 
L 284.118075 276.355354 
L 286.661589 274.710461 
L 289.156597 283.140539 
L 291.739521 265.457936 
L 294.343667 275.327296 
L 296.908402 278.000248 
L 299.400379 280.878811 
L 301.874166 282.318093 
L 304.357047 279.850753 
L 306.824771 279.645141 
L 309.292495 282.934928 
L 311.757187 281.495646 
L 314.200657 282.112481 
L 316.650192 281.290034 
L 319.10882 258.261528 
L 321.567449 243.046265 
L 324.004857 264.841101 
L 326.445296 275.121684 
L 328.885735 281.290034 
L 331.31708 283.757374 
L 333.863625 269.364558 
L 336.431392 276.560966 
L 338.90821 280.878811 
L 341.375934 281.495646 
L 343.831531 282.934928 
L 348.727568 280.878811 
L 351.177102 281.084423 
L 353.620573 283.346151 
L 356.042822 285.196656 
L 358.465072 282.729316 
L 360.920669 283.140539 
L 363.358077 282.318093 
L 365.8258 282.729316 
L 368.290493 280.878811 
L 370.758216 281.906869 
L 373.213813 281.701258 
L 375.711853 276.560966 
L 378.249304 276.355354 
L 380.777659 276.560966 
L 383.299952 280.056364 
L 385.755549 281.084423 
L 388.18083 285.196656 
L 390.60308 283.551762 
L 393.037456 284.168597 
L 395.490022 281.495646 
L 397.933493 283.346151 
L 402.81134 282.934928 
L 405.257842 281.906869 
L 407.728597 280.467588 
L 410.1751 282.729316 
L 412.606444 283.551762 
L 415.05901 276.560966 
L 417.666187 275.121684 
L 420.179385 279.233918 
L 422.656203 281.495646 
L 427.555272 282.729316 
L 430.019964 281.701258 
L 432.463434 273.271179 
L 434.903874 276.972189 
L 437.508019 273.682403 
L 440.060628 275.327296 
L 442.592015 278.617083 
L 445.068834 280.878811 
L 447.530494 282.523704 
L 449.986091 279.233918 
L 452.441689 283.346151 
L 457.334694 282.523704 
L 459.778165 282.318093 
L 462.212541 283.346151 
L 464.662075 281.495646 
L 467.111609 282.934928 
L 469.558111 282.318093 
L 472.001582 282.318093 
L 474.435958 281.084423 
L 476.873366 271.831898 
L 479.541175 276.149743 
L 482.051341 281.290034 
L 484.488749 282.729316 
L 486.941315 280.878811 
L 489.399943 283.140539 
L 494.265664 283.962986 
L 496.739451 277.177801 
L 499.276901 280.056364 
L 501.738562 281.495646 
L 504.191127 282.112481 
L 506.646725 267.925276 
L 509.084132 283.551762 
L 511.545793 279.233918 
L 514.049896 254.560518 
L 516.511556 255.382965 
L 518.991406 266.074771 
L 521.474288 281.084423 
L 523.92079 282.729316 
L 526.376388 281.701258 
L 528.819859 283.962986 
L 531.284551 279.028306 
L 533.743179 280.673199 
L 536.22303 282.112481 
L 538.678627 281.495646 
L 541.116034 282.318093 
L 543.601948 279.645141 
L 546.093924 278.000248 
L 548.56468 276.766578 
L 551.02634 282.318093 
L 553.481937 281.495646 
L 555.934503 281.495646 
L 558.377974 282.729316 
L 560.824476 252.29879 
L 563.280074 251.06512 
L 565.732639 269.364558 
L 568.185205 281.290034 
L 570.640802 282.112481 
L 573.081241 282.729316 
L 575.530775 281.906869 
L 577.977278 279.439529 
L 580.454096 283.140539 
L 582.909694 279.233918 
L 585.404702 282.318093 
L 587.902741 271.831898 
L 590.525077 275.532908 
L 593.014022 251.270732 
L 595.478714 276.560966 
L 597.928248 268.3365 
L 600.365655 281.495646 
L 602.809126 280.673199 
L 605.270787 282.729316 
L 607.708194 283.551762 
L 610.139539 283.140539 
L 612.573915 282.318093 
L 615.065891 277.794636 
L 617.527552 282.318093 
L 620.007402 279.850753 
L 622.466031 281.906869 
L 624.939818 281.701258 
L 627.389352 283.346151 
L 629.838886 281.701258 
L 632.303578 281.701258 
L 634.75008 283.757374 
L 637.181425 283.757374 
L 639.627927 282.318093 
L 642.071398 283.346151 
L 644.514869 281.701258 
L 646.955308 283.757374 
L 649.386653 280.673199 
L 651.884692 231.737624 
L 654.358479 249.625838 
L 656.817108 275.944131 
L 659.275737 282.318093 
L 661.731334 273.476791 
L 664.338512 278.617083 
L 666.851709 279.439529 
L 669.340654 279.645141 
L 671.805346 282.934928 
L 674.248817 281.701258 
L 676.707446 279.645141 
L 676.707446 279.645141 
" clip-path="url(#pac9061406e)" style="fill: none; stroke: #0000ff; stroke-width: 1.5; stroke-linecap: square"/>
   </g>
   <g id="line2d_32">
    <path d="M 77.83881 194.316301 
L 80.676389 215.699914 
L 83.501842 194.727525 
L 86.263631 200.073428 
L 89.08302 203.774438 
L 91.881188 197.400476 
L 94.697546 203.774438 
L 97.568473 202.74638 
L 100.333294 196.372418 
L 103.210283 197.194865 
L 106.075147 192.671408 
L 108.876347 201.101486 
L 111.644199 202.335156 
L 114.521189 190.204068 
L 117.407274 192.465796 
L 120.323674 193.493855 
L 123.200664 182.802048 
L 125.992769 197.400476 
L 128.869759 190.615292 
L 131.771002 200.690263 
L 134.699529 205.419331 
L 137.515887 192.465796 
L 140.32315 206.036166 
L 143.260772 191.437738 
L 146.155951 210.970846 
L 149.051131 196.989253 
L 151.809888 213.438186 
L 154.714162 198.222923 
L 157.521425 198.839758 
L 160.374163 194.521913 
L 163.20871 205.008108 
L 166.079637 190.820903 
L 168.874773 197.8117 
L 171.606246 207.886671 
L 174.619658 185.269388 
L 177.472395 217.756031 
L 180.337259 189.587233 
L 183.147553 205.624943 
L 185.9245 197.606088 
L 188.749953 208.503506 
L 191.639069 198.839758 
L 194.494838 202.129545 
L 197.296038 199.04537 
L 200.197281 193.493855 
L 203.040923 198.017311 
L 205.920944 197.400476 
L 208.797934 191.232127 
L 211.70524 185.886223 
L 214.654989 194.521913 
L 217.47741 191.64335 
L 220.396842 197.400476 
L 223.2132 192.87702 
L 226.108379 204.185661 
L 228.955053 197.400476 
L 231.980591 202.335156 
L 234.775728 203.157603 
L 237.667876 189.381622 
L 240.654004 186.70867 
L 243.540088 200.895875 
L 246.362509 201.101486 
L 249.209183 194.316301 
L 252.019478 198.222923 
L 254.753982 202.335156 
L 257.649162 198.634146 
L 260.604973 183.213272 
L 263.484995 193.082631 
L 266.419585 188.764787 
L 269.208659 196.57803 
L 274.838343 210.148399 
L 277.697143 197.606088 
L 280.543817 189.587233 
L 283.442028 203.157603 
L 286.237165 204.391273 
L 289.074744 187.94234 
L 291.957797 208.092283 
L 294.801439 187.119893 
L 297.71784 203.774438 
L 300.55845 193.288243 
L 303.396029 194.11069 
L 306.345778 175.400029 
L 309.280368 179.717873 
L 312.163421 211.176458 
L 315.031316 178.895427 
L 317.935591 195.549971 
L 320.83077 210.765234 
L 323.695634 206.241778 
L 326.605971 183.624495 
L 329.413234 201.923933 
L 332.265971 192.465796 
L 335.124771 208.503506 
L 337.929003 202.129545 
L 340.769614 188.353563 
L 343.573845 211.587681 
L 346.532688 187.325505 
L 349.400583 208.297894 
L 352.262415 213.849409 
L 355.018141 201.307098 
L 357.91332 201.51271 
L 360.641762 209.325953 
L 363.479341 202.540768 
L 366.453342 196.989253 
L 369.278795 207.681059 
L 372.119405 205.624943 
L 374.9297 190.820903 
L 377.815785 214.466244 
L 380.5897 199.250981 
L 383.4485 193.905078 
L 386.328522 198.017311 
L 389.247954 180.745932 
L 392.06128 221.868264 
L 394.810943 207.681059 
L 397.633364 218.989701 
L 400.437596 207.886671 
L 403.087215 201.923933 
L 405.939952 196.783641 
L 408.792689 187.119893 
L 411.657553 194.11069 
L 414.583048 199.662205 
L 417.44488 202.540768 
L 420.282459 194.933136 
L 423.256461 189.17601 
L 426.148608 204.391273 
L 428.967998 195.961195 
L 431.851051 186.503058 
L 434.61284 203.568826 
L 437.392819 189.587233 
L 440.148544 213.232574 
L 443.010376 200.484651 
L 445.763071 202.540768 
L 448.52486 200.27904 
L 451.338186 188.764787 
L 454.227302 194.11069 
L 457.064881 192.87702 
L 459.963092 194.727525 
L 462.85524 209.531564 
L 465.75042 196.783641 
L 468.612251 194.727525 
L 471.501368 190.615292 
L 474.302568 205.419331 
L 477.073451 208.709118 
L 479.859493 207.681059 
L 482.642504 203.98005 
L 485.467956 202.74638 
L 488.278251 197.400476 
L 491.046103 202.951991 
L 493.856398 201.101486 
L 496.715198 198.222923 
L 499.437576 192.054573 
L 502.281218 212.410128 
L 505.173366 199.04537 
L 507.96244 197.8117 
L 510.739387 179.717873 
L 513.62244 179.101038 
L 516.572188 194.316301 
L 519.379451 201.101486 
L 522.295852 201.718321 
L 525.115241 201.51271 
L 527.898252 200.690263 
L 530.702483 198.428535 
L 533.543094 214.877468 
L 536.371578 196.989253 
L 539.200062 208.503506 
L 541.922441 197.194865 
L 544.735767 202.129545 
L 547.640041 193.082631 
L 550.544315 193.699466 
L 556.240695 197.8117 
L 559.199538 201.51271 
L 562.015896 191.848961 
L 564.835285 203.568826 
L 567.62739 200.690263 
L 570.380084 209.531564 
L 573.172189 208.297894 
L 575.982484 199.250981 
L 578.829158 201.101486 
L 581.706148 189.17601 
L 584.577075 196.989253 
L 587.435875 201.101486 
L 590.370465 199.04537 
L 593.150444 214.877468 
L 595.972865 186.70867 
L 598.883202 203.157603 
L 601.684402 191.64335 
L 604.625056 195.549971 
L 607.477793 182.185213 
L 610.397225 185.475 
L 613.368195 197.194865 
L 616.205774 182.596437 
L 618.952405 202.335156 
L 621.826363 202.540768 
L 624.688195 195.961195 
L 627.562153 206.241778 
L 630.278468 194.316301 
L 633.149395 191.437738 
L 635.974847 203.363215 
L 638.848806 185.063777 
L 641.743985 201.51271 
L 644.557311 218.372866 
L 647.388827 193.082631 
L 650.332512 187.94234 
L 653.097333 200.895875 
L 655.947039 204.596884 
L 658.939229 197.194865 
L 661.813188 198.839758 
L 664.726557 183.830107 
L 667.633863 178.484203 
L 670.507821 195.138748 
L 673.339337 210.354011 
L 679.132727 191.232127 
L 679.132727 191.232127 
" clip-path="url(#pac9061406e)" style="fill: none; stroke: #ffa500; stroke-width: 1.5; stroke-linecap: square"/>
   </g>
   <g id="patch_3">
    <path d="M 47.72 390.04 
L 47.72 10.8 
" style="fill: none; stroke: #000000; stroke-width: 0.8; stroke-linejoin: miter; stroke-linecap: square"/>
   </g>
   <g id="patch_4">
    <path d="M 709.2 390.04 
L 709.2 10.8 
" style="fill: none; stroke: #000000; stroke-width: 0.8; stroke-linejoin: miter; stroke-linecap: square"/>
   </g>
   <g id="patch_5">
    <path d="M 47.72 390.04 
L 709.2 390.04 
" style="fill: none; stroke: #000000; stroke-width: 0.8; stroke-linejoin: miter; stroke-linecap: square"/>
   </g>
   <g id="patch_6">
    <path d="M 47.72 10.8 
L 709.2 10.8 
" style="fill: none; stroke: #000000; stroke-width: 0.8; stroke-linejoin: miter; stroke-linecap: square"/>
   </g>
   <g id="legend_1">
    <g id="patch_7">
     <path d="M 628.803125 385.04 
L 702.2 385.04 
Q 704.2 385.04 704.2 383.04 
L 704.2 340.005625 
Q 704.2 338.005625 702.2 338.005625 
L 628.803125 338.005625 
Q 626.803125 338.005625 626.803125 340.005625 
L 626.803125 383.04 
Q 626.803125 385.04 628.803125 385.04 
z
" style="fill: #ffffff; opacity: 0.8; stroke: #cccccc; stroke-linejoin: miter"/>
    </g>
    <g id="text_18">
     <!-- Agent -->
     <g transform="translate(650.701563 349.604062) scale(0.1 -0.1)">
      <defs>
       <path id="DejaVuSans-41" d="M 2188 4044 
L 1331 1722 
L 3047 1722 
L 2188 4044 
z
M 1831 4666 
L 2547 4666 
L 4325 0 
L 3669 0 
L 3244 1197 
L 1141 1197 
L 716 0 
L 50 0 
L 1831 4666 
z
" transform="scale(0.015625)"/>
       <path id="DejaVuSans-67" d="M 2906 1791 
Q 2906 2416 2648 2759 
Q 2391 3103 1925 3103 
Q 1463 3103 1205 2759 
Q 947 2416 947 1791 
Q 947 1169 1205 825 
Q 1463 481 1925 481 
Q 2391 481 2648 825 
Q 2906 1169 2906 1791 
z
M 3481 434 
Q 3481 -459 3084 -895 
Q 2688 -1331 1869 -1331 
Q 1566 -1331 1297 -1286 
Q 1028 -1241 775 -1147 
L 775 -588 
Q 1028 -725 1275 -790 
Q 1522 -856 1778 -856 
Q 2344 -856 2625 -561 
Q 2906 -266 2906 331 
L 2906 616 
Q 2728 306 2450 153 
Q 2172 0 1784 0 
Q 1141 0 747 490 
Q 353 981 353 1791 
Q 353 2603 747 3093 
Q 1141 3584 1784 3584 
Q 2172 3584 2450 3431 
Q 2728 3278 2906 2969 
L 2906 3500 
L 3481 3500 
L 3481 434 
z
" transform="scale(0.015625)"/>
      </defs>
      <use xlink:href="#DejaVuSans-41"/>
      <use xlink:href="#DejaVuSans-67" transform="translate(68.408203 0)"/>
      <use xlink:href="#DejaVuSans-65" transform="translate(131.884766 0)"/>
      <use xlink:href="#DejaVuSans-6e" transform="translate(193.408203 0)"/>
      <use xlink:href="#DejaVuSans-74" transform="translate(256.787109 0)"/>
     </g>
    </g>
    <g id="line2d_33">
     <path d="M 630.803125 360.782187 
L 640.803125 360.782187 
L 650.803125 360.782187 
" style="fill: none; stroke: #0000ff; stroke-width: 1.5; stroke-linecap: square"/>
    </g>
    <g id="text_19">
     <!-- PPO -->
     <g transform="translate(658.803125 364.282187) scale(0.1 -0.1)">
      <defs>
       <path id="DejaVuSans-50" d="M 1259 4147 
L 1259 2394 
L 2053 2394 
Q 2494 2394 2734 2622 
Q 2975 2850 2975 3272 
Q 2975 3691 2734 3919 
Q 2494 4147 2053 4147 
L 1259 4147 
z
M 628 4666 
L 2053 4666 
Q 2838 4666 3239 4311 
Q 3641 3956 3641 3272 
Q 3641 2581 3239 2228 
Q 2838 1875 2053 1875 
L 1259 1875 
L 1259 0 
L 628 0 
L 628 4666 
z
" transform="scale(0.015625)"/>
       <path id="DejaVuSans-4f" d="M 2522 4238 
Q 1834 4238 1429 3725 
Q 1025 3213 1025 2328 
Q 1025 1447 1429 934 
Q 1834 422 2522 422 
Q 3209 422 3611 934 
Q 4013 1447 4013 2328 
Q 4013 3213 3611 3725 
Q 3209 4238 2522 4238 
z
M 2522 4750 
Q 3503 4750 4090 4092 
Q 4678 3434 4678 2328 
Q 4678 1225 4090 567 
Q 3503 -91 2522 -91 
Q 1538 -91 948 565 
Q 359 1222 359 2328 
Q 359 3434 948 4092 
Q 1538 4750 2522 4750 
z
" transform="scale(0.015625)"/>
      </defs>
      <use xlink:href="#DejaVuSans-50"/>
      <use xlink:href="#DejaVuSans-50" transform="translate(60.302734 0)"/>
      <use xlink:href="#DejaVuSans-4f" transform="translate(120.605469 0)"/>
     </g>
    </g>
    <g id="line2d_34">
     <path d="M 630.803125 375.460312 
L 640.803125 375.460312 
L 650.803125 375.460312 
" style="fill: none; stroke: #ffa500; stroke-width: 1.5; stroke-linecap: square"/>
    </g>
    <g id="text_20">
     <!-- Random -->
     <g transform="translate(658.803125 378.960312) scale(0.1 -0.1)">
      <defs>
       <path id="DejaVuSans-52" d="M 2841 2188 
Q 3044 2119 3236 1894 
Q 3428 1669 3622 1275 
L 4263 0 
L 3584 0 
L 2988 1197 
Q 2756 1666 2539 1819 
Q 2322 1972 1947 1972 
L 1259 1972 
L 1259 0 
L 628 0 
L 628 4666 
L 2053 4666 
Q 2853 4666 3247 4331 
Q 3641 3997 3641 3322 
Q 3641 2881 3436 2590 
Q 3231 2300 2841 2188 
z
M 1259 4147 
L 1259 2491 
L 2053 2491 
Q 2509 2491 2742 2702 
Q 2975 2913 2975 3322 
Q 2975 3731 2742 3939 
Q 2509 4147 2053 4147 
L 1259 4147 
z
" transform="scale(0.015625)"/>
       <path id="DejaVuSans-64" d="M 2906 2969 
L 2906 4863 
L 3481 4863 
L 3481 0 
L 2906 0 
L 2906 525 
Q 2725 213 2448 61 
Q 2172 -91 1784 -91 
Q 1150 -91 751 415 
Q 353 922 353 1747 
Q 353 2572 751 3078 
Q 1150 3584 1784 3584 
Q 2172 3584 2448 3432 
Q 2725 3281 2906 2969 
z
M 947 1747 
Q 947 1113 1208 752 
Q 1469 391 1925 391 
Q 2381 391 2643 752 
Q 2906 1113 2906 1747 
Q 2906 2381 2643 2742 
Q 2381 3103 1925 3103 
Q 1469 3103 1208 2742 
Q 947 2381 947 1747 
z
" transform="scale(0.015625)"/>
       <path id="DejaVuSans-6f" d="M 1959 3097 
Q 1497 3097 1228 2736 
Q 959 2375 959 1747 
Q 959 1119 1226 758 
Q 1494 397 1959 397 
Q 2419 397 2687 759 
Q 2956 1122 2956 1747 
Q 2956 2369 2687 2733 
Q 2419 3097 1959 3097 
z
M 1959 3584 
Q 2709 3584 3137 3096 
Q 3566 2609 3566 1747 
Q 3566 888 3137 398 
Q 2709 -91 1959 -91 
Q 1206 -91 779 398 
Q 353 888 353 1747 
Q 353 2609 779 3096 
Q 1206 3584 1959 3584 
z
" transform="scale(0.015625)"/>
      </defs>
      <use xlink:href="#DejaVuSans-52"/>
      <use xlink:href="#DejaVuSans-61" transform="translate(67.232422 0)"/>
      <use xlink:href="#DejaVuSans-6e" transform="translate(128.511719 0)"/>
      <use xlink:href="#DejaVuSans-64" transform="translate(191.890625 0)"/>
      <use xlink:href="#DejaVuSans-6f" transform="translate(255.367188 0)"/>
      <use xlink:href="#DejaVuSans-6d" transform="translate(316.548828 0)"/>
     </g>
    </g>
   </g>
  </g>
 </g>
 <defs>
  <clipPath id="pac9061406e">
   <rect x="47.72" y="10.8" width="661.48" height="379.24"/>
  </clipPath>
 </defs>
</svg>
