<?xml version="1.0" encoding="utf-8" standalone="no"?>
<!DOCTYPE svg PUBLIC "-//W3C//DTD SVG 1.1//EN"
  "http://www.w3.org/Graphics/SVG/1.1/DTD/svg11.dtd">
<svg xmlns:xlink="http://www.w3.org/1999/xlink" width="720pt" height="432pt" viewBox="0 0 720 432" xmlns="http://www.w3.org/2000/svg" version="1.1">
 <metadata>
  <rdf:RDF xmlns:dc="http://purl.org/dc/elements/1.1/" xmlns:cc="http://creativecommons.org/ns#" xmlns:rdf="http://www.w3.org/1999/02/22-rdf-syntax-ns#">
   <cc:Work>
    <dc:type rdf:resource="http://purl.org/dc/dcmitype/StillImage"/>
    <dc:date>2025-04-16T01:17:18.975398</dc:date>
    <dc:format>image/svg+xml</dc:format>
    <dc:creator>
     <cc:Agent>
      <dc:title>Matplotlib v3.10.0, https://matplotlib.org/</dc:title>
     </cc:Agent>
    </dc:creator>
   </cc:Work>
  </rdf:RDF>
 </metadata>
 <defs>
  <style type="text/css">*{stroke-linejoin: round; stroke-linecap: butt}</style>
 </defs>
 <g id="figure_1">
  <g id="patch_1">
   <path d="M 0 432 
L 720 432 
L 720 0 
L 0 0 
z
" style="fill: #ffffff"/>
  </g>
  <g id="axes_1">
   <g id="patch_2">
    <path d="M 47.72 390.04 
L 709.2 390.04 
L 709.2 10.8 
L 47.72 10.8 
z
" style="fill: #ffffff"/>
   </g>
   <g id="FillBetweenPolyCollection_1">
    <path d="M 77.787273 98.684254 
L 77.787273 253.412559 
L 83.866163 251.281431 
L 89.773189 254.403852 
L 95.686581 244.571753 
L 101.479031 229.813937 
L 107.233289 238.440493 
L 112.974817 250.412935 
L 118.499923 258.693161 
L 123.706763 260.183217 
L 128.417107 279.240427 
L 132.618225 275.975124 
L 136.628383 279.596372 
L 140.651272 280.633487 
L 144.57868 283.271982 
L 148.442436 283.918629 
L 152.331652 280.720474 
L 156.24633 282.150942 
L 160.116451 284.510758 
L 163.948379 284.435244 
L 167.773943 283.662661 
L 171.624967 284.809546 
L 175.4378 285.833768 
L 179.276094 283.316668 
L 183.108023 284.417001 
L 186.933586 283.998013 
L 190.778245 285.511676 
L 194.597443 285.011516 
L 198.423007 284.277961 
L 202.280397 285.042941 
L 206.10596 284.903979 
L 209.925158 285.13976 
L 213.757087 281.32311 
L 217.601746 283.348172 
L 221.446405 284.426911 
L 225.284699 284.594992 
L 229.110263 285.956951 
L 232.942191 284.301862 
L 236.77412 284.228214 
L 240.593318 284.563566 
L 244.437977 284.037041 
L 248.257175 284.930344 
L 252.076373 282.727292 
L 255.901936 284.626495 
L 259.708404 284.170424 
L 263.527602 284.594992 
L 267.353165 285.024698 
L 271.165998 285.529919 
L 274.97883 286.525101 
L 278.791663 284.707667 
L 282.629957 284.930344 
L 286.449155 285.045405 
L 290.274718 282.069848 
L 294.093916 281.891858 
L 297.913114 284.005616 
L 301.745043 281.891858 
L 305.570606 283.589091 
L 309.389804 284.613313 
L 313.221733 283.107252 
L 317.072758 284.018798 
L 320.930148 283.47909 
L 324.755711 284.31185 
L 328.574909 284.90875 
L 332.394107 285.514062 
L 336.213305 284.361596 
L 340.032503 284.84663 
L 343.851701 284.906365 
L 347.670899 284.657921 
L 351.509193 285.160466 
L 355.328391 284.626495 
L 359.153954 285.716032 
L 362.973152 284.930344 
L 366.79235 287.339539 
L 370.611548 288.11443 
L 374.443477 310.048902 
L 378.262675 327.306111 
L 382.075507 331.158139 
L 385.901071 331.540485 
L 389.720269 333.329099 
L 393.533101 332.441234 
L 397.339569 333.873867 
L 401.152401 332.590474 
L 404.965234 333.177174 
L 408.778067 333.627579 
L 412.756398 334.187736 
L 416.664711 332.661217 
L 420.541197 332.920149 
L 424.513162 334.724681 
L 428.389648 334.017499 
L 432.234308 334.413028 
L 436.2381 334.462774 
L 440.171874 334.512521 
L 444.188397 335.258721 
L 448.198555 334.169653 
L 452.068676 334.064801 
L 455.989719 333.907807 
L 459.898032 333.62244 
L 463.768152 334.363281 
L 467.68283 333.640522 
L 471.572047 334.172108 
L 475.416706 333.370793 
L 479.248635 334.064801 
L 483.080564 334.512521 
L 486.906127 333.525401 
L 490.725325 333.467841 
L 494.544523 333.766321 
L 498.363721 333.716574 
L 502.182919 333.617081 
L 506.002117 333.865814 
L 509.82768 333.617081 
L 513.646878 333.567334 
L 517.466076 338.030929 
L 520.674203 355.594272 
L 523.43039 361.217857 
L 526.091098 360.916394 
L 528.751806 362.205215 
L 531.355226 362.105722 
L 533.92682 363.373249 
L 536.485682 363.121532 
L 539.044545 361.537508 
L 541.590677 355.181668 
L 544.143174 353.293794 
L 546.689306 351.657638 
L 549.235438 351.46885 
L 551.78157 351.405921 
L 554.327702 351.217134 
L 556.8802 351.594708 
L 559.426332 351.280063 
L 561.972464 351.280063 
L 564.518596 351.217134 
L 567.064728 351.217134 
L 569.617225 351.342992 
L 572.163357 351.217134 
L 574.709489 351.217134 
L 577.255621 351.217134 
L 579.801753 351.217134 
L 582.347885 351.217134 
L 584.894017 351.217134 
L 587.440149 351.280063 
L 589.992646 351.280063 
L 592.545143 351.217134 
L 595.091275 351.46885 
L 597.637407 351.217134 
L 600.183539 351.217134 
L 602.729671 351.342992 
L 605.275803 351.217134 
L 607.821935 351.217134 
L 610.368067 351.217134 
L 612.914199 351.280063 
L 615.460331 351.405921 
L 618.006463 351.217134 
L 620.552595 351.217134 
L 623.098727 351.217134 
L 625.644859 351.217134 
L 628.190991 351.217134 
L 630.737123 351.217134 
L 633.289621 351.342992 
L 635.835753 351.280063 
L 638.381885 351.217134 
L 640.928017 351.217134 
L 643.474149 351.405921 
L 646.020281 351.217134 
L 648.566413 351.217134 
L 651.112545 351.217134 
L 653.658677 351.217134 
L 656.204809 351.217134 
L 658.750941 351.217134 
L 661.297073 351.594708 
L 663.855935 351.342992 
L 666.402067 351.217134 
L 668.948199 351.217134 
L 671.494331 351.217134 
L 674.040463 351.217134 
L 676.586595 351.217134 
L 679.132727 351.217134 
L 679.132727 351.217134 
L 679.132727 351.217134 
L 676.586595 351.217134 
L 674.040463 351.217134 
L 671.494331 351.217134 
L 668.948199 351.217134 
L 666.402067 351.217134 
L 663.855935 350.483578 
L 661.297073 349.016467 
L 658.750941 351.217134 
L 656.204809 351.217134 
L 653.658677 351.217134 
L 651.112545 351.217134 
L 648.566413 351.217134 
L 646.020281 351.217134 
L 643.474149 350.116801 
L 640.928017 351.217134 
L 638.381885 351.217134 
L 635.835753 350.850356 
L 633.289621 350.483578 
L 630.737123 351.217134 
L 628.190991 351.217134 
L 625.644859 351.217134 
L 623.098727 351.217134 
L 620.552595 351.217134 
L 618.006463 351.217134 
L 615.460331 350.116801 
L 612.914199 350.850356 
L 610.368067 351.217134 
L 607.821935 351.217134 
L 605.275803 351.217134 
L 602.729671 350.483578 
L 600.183539 351.217134 
L 597.637407 351.217134 
L 595.091275 349.750023 
L 592.545143 351.217134 
L 589.992646 350.850356 
L 587.440149 350.850356 
L 584.894017 351.217134 
L 582.347885 351.217134 
L 579.801753 351.217134 
L 577.255621 351.217134 
L 574.709489 351.217134 
L 572.163357 351.217134 
L 569.617225 350.483578 
L 567.064728 351.217134 
L 564.518596 351.217134 
L 561.972464 350.850356 
L 559.426332 350.850356 
L 556.8802 349.016467 
L 554.327702 351.217134 
L 551.78157 350.116801 
L 549.235438 349.750023 
L 546.689306 348.64969 
L 544.143174 339.113469 
L 541.590677 328.110137 
L 539.044545 291.065587 
L 536.485682 279.758407 
L 533.92682 278.291296 
L 531.355226 275.304942 
L 528.751806 273.990054 
L 526.091098 274.975027 
L 523.43039 272.850472 
L 520.674203 264.800869 
L 517.466076 251.067805 
L 513.646878 245.504395 
L 509.82768 244.846952 
L 506.002117 241.559732 
L 502.182919 244.846952 
L 498.363721 243.532064 
L 494.544523 242.87462 
L 490.725325 246.819283 
L 486.906127 242.203994 
L 483.080564 233.012961 
L 479.248635 238.929956 
L 475.416706 239.927813 
L 471.572047 233.657223 
L 467.68283 232.973414 
L 463.768152 234.985293 
L 459.898032 244.537744 
L 455.989719 234.225373 
L 452.068676 238.929956 
L 448.198555 237.305861 
L 444.188397 223.151303 
L 440.171874 233.012961 
L 436.2381 233.670405 
L 432.234308 234.327849 
L 428.389648 231.381042 
L 424.513162 226.116132 
L 420.541197 233.389938 
L 416.664711 238.2066 
L 412.756398 225.741531 
L 408.778067 243.013362 
L 404.965234 246.806101 
L 401.152401 242.531224 
L 397.339569 247.9325 
L 393.533101 244.503556 
L 389.720269 246.958025 
L 385.901071 241.454273 
L 382.075507 238.798132 
L 378.262675 230.192367 
L 374.443477 182.425972 
L 370.611548 123.536712 
L 366.79235 119.753874 
L 362.973152 113.04761 
L 359.153954 114.692712 
L 355.328391 112.743762 
L 351.509193 115.855974 
L 347.670899 113.320034 
L 343.851701 114.894681 
L 340.032503 113.739022 
L 336.213305 113.920206 
L 332.394107 115.502379 
L 328.574909 117.323085 
L 324.755711 114.57765 
L 320.930148 111.156529 
L 317.072758 112.136064 
L 313.221733 111.224519 
L 309.389804 112.453096 
L 305.570606 112.565771 
L 301.745043 110.009124 
L 297.913114 111.845398 
L 294.093916 110.009124 
L 290.274718 111.046528 
L 286.449155 114.451792 
L 282.629957 113.04761 
L 278.791663 112.66259 
L 274.97883 115.099037 
L 271.165998 113.359581 
L 267.353165 113.257104 
L 263.527602 113.686811 
L 259.708404 112.592136 
L 255.901936 112.743762 
L 252.076373 110.996782 
L 248.257175 113.04761 
L 244.437977 112.42167 
L 240.593318 113.110539 
L 236.77412 113.74974 
L 232.942191 112.764547 
L 229.110263 115.363338 
L 225.284699 113.686811 
L 221.446405 115.981832 
L 217.601746 111.895145 
L 213.757087 110.88172 
L 209.925158 114.661286 
L 206.10596 112.466278 
L 202.280397 113.54271 
L 198.423007 113.092296 
L 194.597443 112.966438 
L 190.778245 113.073975 
L 186.933586 112.460698 
L 183.108023 112.649407 
L 179.276094 112.838195 
L 175.4378 113.663429 
L 171.624967 113.776105 
L 167.773943 113.099899 
L 163.948379 112.935013 
L 160.116451 113.467196 
L 156.24633 112.484678 
L 152.331652 110.268963 
L 148.442436 115.578568 
L 144.57868 113.490578 
L 140.651272 114.002133 
L 136.628383 108.962275 
L 132.618225 111.671978 
L 128.417107 117.218284 
L 123.706763 110.752211 
L 118.499923 99.784473 
L 112.974817 99.556938 
L 107.233289 90.259977 
L 101.479031 97.063441 
L 95.686581 94.763418 
L 89.773189 100.427599 
L 83.866163 96.86535 
L 77.787273 98.684254 
z
" clip-path="url(#p0364a51e15)" style="fill: #1f77b4; fill-opacity: 0.2"/>
   </g>
   <g id="FillBetweenPolyCollection_2">
    <path d="M 78.048251 44.0104 
L 78.048251 249.747479 
L 84.451773 240.950814 
L 90.874391 248.965488 
L 97.036031 236.246381 
L 103.363169 219.974025 
L 109.321117 225.014945 
L 115.228144 208.724134 
L 121.275207 216.573278 
L 127.093119 212.788821 
L 132.796454 214.387614 
L 138.321561 201.876746 
L 143.783014 241.891652 
L 149.034411 247.42684 
L 154.355827 257.8417 
L 159.664512 267.830862 
L 164.941371 275.527702 
L 170.078192 277.032357 
L 175.227744 283.978952 
L 180.3582 280.75667 
L 185.272235 278.94955 
L 189.689774 273.480987 
L 193.814508 267.580686 
L 197.780108 265.211939 
L 201.860285 264.240971 
L 205.730405 262.265068 
L 209.58143 262.49519 
L 213.508839 262.306403 
L 217.353498 262.924897 
L 221.191792 261.321131 
L 225.119201 262.987826 
L 228.976591 260.377195 
L 232.827615 262.410667 
L 236.672275 262.117616 
L 240.523299 261.121547 
L 244.361593 261.928828 
L 248.206252 261.414599 
L 252.038181 261.373263 
L 255.857379 261.058618 
L 259.689308 261.373263 
L 263.527602 261.132344 
L 267.372261 261.184476 
L 271.191459 261.121547 
L 275.023388 260.93276 
L 278.848951 260.618114 
L 282.68088 260.555185 
L 286.500078 261.121547 
L 290.325641 261.362466 
L 294.144839 260.681043 
L 297.964037 261.855102 
L 301.827792 262.3172 
L 305.697913 261.800585 
L 309.561668 260.754769 
L 313.387232 260.93276 
L 317.231891 260.628911 
L 321.057454 260.806901 
L 324.870287 261.173679 
L 328.708581 260.188407 
L 332.527779 261.173679 
L 336.340611 260.93276 
L 340.185271 260.817698 
L 344.004469 260.251336 
L 347.823667 262.065484 
L 351.623769 266.079764 
L 355.468428 262.443058 
L 359.281261 261.551254 
L 363.100459 260.817698 
L 366.919657 260.314265 
L 370.738855 260.440124 
L 374.570783 260.943557 
L 378.396347 260.555185 
L 382.209179 260.440124 
L 386.034743 261.299537 
L 389.853941 260.188407 
L 393.679504 260.817698 
L 397.498702 260.188407 
L 401.311535 260.681043 
L 405.130733 262.265068 
L 408.943565 261.195273 
L 412.762763 261.540457 
L 416.594692 263.215563 
L 420.426621 265.56792 
L 424.264915 262.705572 
L 428.084113 262.358535 
L 431.909676 264.447845 
L 435.728874 261.741894 
L 439.548072 262.13921 
L 443.36727 262.935694 
L 447.122815 269.817562 
L 450.521901 301.251944 
L 453.532702 315.545479 
L 456.307986 325.624082 
L 458.936867 331.353485 
L 461.514826 333.040809 
L 464.118246 340.217825 
L 466.689839 355.82678 
L 469.242336 363.055992 
L 471.807564 363.143126 
L 474.353696 365.564971 
L 476.899828 364.888907 
L 479.452326 372.801818 
L 481.998458 366.491253 
L 484.54459 366.797487 
L 487.097087 364.049901 
L 489.643219 364.455927 
L 492.189351 364.028606 
L 494.735483 364.015424 
L 497.281615 364.306388 
L 499.827747 363.865885 
L 502.373879 363.802956 
L 504.926376 363.928814 
L 507.478874 363.813753 
L 510.025006 364.054672 
L 512.577503 363.802956 
L 515.13 363.865885 
L 517.676132 361.285791 
L 520.228629 354.867022 
L 522.774761 352.538645 
L 525.320893 351.783496 
L 527.879756 352.790362 
L 530.432253 351.46885 
L 533.035673 351.594708 
L 535.747304 351.657638 
L 538.427108 351.405921 
L 541.011432 351.531779 
L 543.589391 351.342992 
L 546.141888 351.217134 
L 548.700751 351.280063 
L 551.246883 351.217134 
L 553.793014 351.217134 
L 556.345512 351.217134 
L 558.891644 351.46885 
L 561.437776 351.217134 
L 563.983908 351.217134 
L 566.536405 351.217134 
L 569.101633 351.217134 
L 571.65413 351.217134 
L 574.206628 351.217134 
L 576.75276 351.217134 
L 579.305257 351.217134 
L 581.857754 351.720567 
L 584.410252 351.280063 
L 586.962749 351.594708 
L 589.521612 351.217134 
L 592.074109 351.217134 
L 594.652068 351.217134 
L 597.1982 351.217134 
L 599.750697 351.46885 
L 602.296829 351.217134 
L 604.842961 351.217134 
L 607.522765 351.217134 
L 610.196204 351.217134 
L 613.181543 351.217134 
L 616.033211 351.280063 
L 618.713015 351.280063 
L 621.367358 351.217134 
L 623.958047 351.217134 
L 626.650582 351.217134 
L 629.381308 351.280063 
L 631.984728 351.217134 
L 634.562687 351.217134 
L 637.13428 351.217134 
L 639.699508 351.217134 
L 642.252005 351.217134 
L 644.798137 351.217134 
L 647.376096 351.217134 
L 649.941324 351.217134 
L 652.493821 351.217134 
L 655.065415 351.217134 
L 657.611547 351.217134 
L 660.157679 351.217134 
L 662.748368 351.280063 
L 665.307231 351.217134 
L 667.853363 351.217134 
L 670.444052 351.217134 
L 672.996549 351.405921 
L 675.549046 351.217134 
L 678.095178 351.217134 
L 678.095178 351.217134 
L 678.095178 351.217134 
L 675.549046 351.217134 
L 672.996549 350.116801 
L 670.444052 351.217134 
L 667.853363 351.217134 
L 665.307231 351.217134 
L 662.748368 350.850356 
L 660.157679 351.217134 
L 657.611547 351.217134 
L 655.065415 351.217134 
L 652.493821 351.217134 
L 649.941324 351.217134 
L 647.376096 351.217134 
L 644.798137 351.217134 
L 642.252005 351.217134 
L 639.699508 351.217134 
L 637.13428 351.217134 
L 634.562687 351.217134 
L 631.984728 351.217134 
L 629.381308 350.850356 
L 626.650582 351.217134 
L 623.958047 351.217134 
L 621.367358 351.217134 
L 618.713015 350.850356 
L 616.033211 350.850356 
L 613.181543 351.217134 
L 610.196204 351.217134 
L 607.522765 351.217134 
L 604.842961 351.217134 
L 602.296829 351.217134 
L 599.750697 349.750023 
L 597.1982 351.217134 
L 594.652068 351.217134 
L 592.074109 351.217134 
L 589.521612 351.217134 
L 586.962749 349.016467 
L 584.410252 350.850356 
L 581.857754 348.282912 
L 579.305257 351.217134 
L 576.75276 351.217134 
L 574.206628 351.217134 
L 571.65413 351.217134 
L 569.101633 351.217134 
L 566.536405 351.217134 
L 563.983908 351.217134 
L 561.437776 351.217134 
L 558.891644 349.750023 
L 556.345512 351.217134 
L 553.793014 351.217134 
L 551.246883 351.217134 
L 548.700751 350.850356 
L 546.141888 351.217134 
L 543.589391 350.483578 
L 541.011432 349.383245 
L 538.427108 350.116801 
L 535.747304 348.64969 
L 533.035673 349.016467 
L 530.432253 349.750023 
L 527.879756 342.047691 
L 525.320893 347.916134 
L 522.774761 343.514802 
L 520.228629 329.944026 
L 517.676132 292.532698 
L 515.13 277.494811 
L 512.577503 277.861589 
L 510.025006 276.394478 
L 507.478874 275.723852 
L 504.926376 277.128033 
L 502.373879 277.861589 
L 499.827747 277.494811 
L 497.281615 274.927367 
L 494.735483 275.218332 
L 492.189351 275.508998 
L 489.643219 272.650888 
L 487.097087 271.537671 
L 484.54459 259.370778 
L 481.998458 256.638526 
L 479.452326 225.412374 
L 476.899828 269.179422 
L 474.353696 267.591813 
L 471.807564 275.482932 
L 469.242336 273.139277 
L 466.689839 270.037636 
L 464.118246 255.565579 
L 461.514826 244.815526 
L 458.936867 245.591304 
L 456.307986 246.15528 
L 453.532702 249.245366 
L 450.521901 249.561864 
L 447.122815 248.484444 
L 443.36727 247.466248 
L 439.548072 247.958884 
L 435.728874 241.975379 
L 431.909676 226.203937 
L 428.084113 252.904985 
L 424.264915 244.657885 
L 420.426621 234.199321 
L 416.594692 249.617168 
L 412.762763 257.673095 
L 408.943565 253.46055 
L 405.130733 247.225329 
L 401.311535 258.532509 
L 397.498702 259.328994 
L 393.679504 255.661216 
L 389.853941 259.328994 
L 386.034743 257.002469 
L 382.209179 257.861883 
L 378.396347 259.266064 
L 374.570783 254.927661 
L 370.738855 257.861883 
L 366.919657 258.595438 
L 363.100459 255.661216 
L 359.281261 255.535358 
L 355.468428 248.262733 
L 351.623769 226.698958 
L 347.823667 250.463399 
L 344.004469 258.962216 
L 340.185271 255.661216 
L 336.340611 257.065398 
L 332.527779 257.736024 
L 328.708581 259.328994 
L 324.870287 257.736024 
L 321.057454 257.798954 
L 317.231891 256.761549 
L 313.387232 257.065398 
L 309.561668 256.027994 
L 305.697913 251.639844 
L 301.827792 248.996288 
L 297.964037 255.839207 
L 294.144839 258.532509 
L 290.325641 256.635691 
L 286.500078 255.965065 
L 282.68088 259.266064 
L 278.848951 258.899287 
L 275.023388 257.065398 
L 271.191459 255.965065 
L 267.372261 255.598287 
L 263.527602 253.827328 
L 259.689308 254.497954 
L 255.857379 256.331843 
L 252.038181 254.497954 
L 248.206252 258.406651 
L 244.361593 253.334692 
L 240.523299 255.965065 
L 236.672275 252.234359 
L 232.827615 254.675944 
L 228.976591 258.22866 
L 225.119201 249.237208 
L 221.191792 252.726994 
L 217.353498 249.603985 
L 213.508839 251.134025 
L 209.58143 250.033692 
L 205.730405 247.225329 
L 201.860285 243.730182 
L 197.780108 232.124513 
L 193.814508 229.451917 
L 189.689774 207.143791 
L 185.272235 162.478756 
L 180.3582 115.702041 
L 175.227744 111.568213 
L 170.078192 103.322377 
L 164.941371 103.611638 
L 159.664512 89.127529 
L 154.355827 84.835806 
L 149.034411 78.842841 
L 143.783014 71.920235 
L 138.321561 61.800119 
L 132.796454 56.581619 
L 127.093119 46.026467 
L 121.275207 28.872671 
L 115.228144 36.114118 
L 109.321117 29.850311 
L 103.363169 32.764291 
L 97.036031 28.038182 
L 90.874391 42.361602 
L 84.451773 42.172363 
L 78.048251 44.0104 
z
" clip-path="url(#p0364a51e15)" style="fill: #ff7f0e; fill-opacity: 0.2"/>
   </g>
   <g id="matplotlib.axis_1">
    <g id="xtick_1">
     <g id="line2d_1">
      <path d="M 74.910144 390.04 
L 74.910144 10.8 
" clip-path="url(#p0364a51e15)" style="fill: none; stroke: #b0b0b0; stroke-width: 0.8; stroke-linecap: square"/>
     </g>
     <g id="line2d_2">
      <defs>
       <path id="m4ff953cefc" d="M 0 0 
L 0 3.5 
" style="stroke: #000000; stroke-width: 0.8"/>
      </defs>
      <g>
       <use xlink:href="#m4ff953cefc" x="74.910144" y="390.04" style="stroke: #000000; stroke-width: 0.8"/>
      </g>
     </g>
     <g id="text_1">
      <!-- 0 -->
      <g transform="translate(71.728894 404.638438) scale(0.1 -0.1)">
       <defs>
        <path id="DejaVuSans-30" d="M 2034 4250 
Q 1547 4250 1301 3770 
Q 1056 3291 1056 2328 
Q 1056 1369 1301 889 
Q 1547 409 2034 409 
Q 2525 409 2770 889 
Q 3016 1369 3016 2328 
Q 3016 3291 2770 3770 
Q 2525 4250 2034 4250 
z
M 2034 4750 
Q 2819 4750 3233 4129 
Q 3647 3509 3647 2328 
Q 3647 1150 3233 529 
Q 2819 -91 2034 -91 
Q 1250 -91 836 529 
Q 422 1150 422 2328 
Q 422 3509 836 4129 
Q 1250 4750 2034 4750 
z
" transform="scale(0.015625)"/>
       </defs>
       <use xlink:href="#DejaVuSans-30"/>
      </g>
     </g>
    </g>
    <g id="xtick_2">
     <g id="line2d_3">
      <path d="M 202.216743 390.04 
L 202.216743 10.8 
" clip-path="url(#p0364a51e15)" style="fill: none; stroke: #b0b0b0; stroke-width: 0.8; stroke-linecap: square"/>
     </g>
     <g id="line2d_4">
      <g>
       <use xlink:href="#m4ff953cefc" x="202.216743" y="390.04" style="stroke: #000000; stroke-width: 0.8"/>
      </g>
     </g>
     <g id="text_2">
      <!-- 20000 -->
      <g transform="translate(186.310493 404.638438) scale(0.1 -0.1)">
       <defs>
        <path id="DejaVuSans-32" d="M 1228 531 
L 3431 531 
L 3431 0 
L 469 0 
L 469 531 
Q 828 903 1448 1529 
Q 2069 2156 2228 2338 
Q 2531 2678 2651 2914 
Q 2772 3150 2772 3378 
Q 2772 3750 2511 3984 
Q 2250 4219 1831 4219 
Q 1534 4219 1204 4116 
Q 875 4013 500 3803 
L 500 4441 
Q 881 4594 1212 4672 
Q 1544 4750 1819 4750 
Q 2544 4750 2975 4387 
Q 3406 4025 3406 3419 
Q 3406 3131 3298 2873 
Q 3191 2616 2906 2266 
Q 2828 2175 2409 1742 
Q 1991 1309 1228 531 
z
" transform="scale(0.015625)"/>
       </defs>
       <use xlink:href="#DejaVuSans-32"/>
       <use xlink:href="#DejaVuSans-30" transform="translate(63.623047 0)"/>
       <use xlink:href="#DejaVuSans-30" transform="translate(127.246094 0)"/>
       <use xlink:href="#DejaVuSans-30" transform="translate(190.869141 0)"/>
       <use xlink:href="#DejaVuSans-30" transform="translate(254.492188 0)"/>
      </g>
     </g>
    </g>
    <g id="xtick_3">
     <g id="line2d_5">
      <path d="M 329.523343 390.04 
L 329.523343 10.8 
" clip-path="url(#p0364a51e15)" style="fill: none; stroke: #b0b0b0; stroke-width: 0.8; stroke-linecap: square"/>
     </g>
     <g id="line2d_6">
      <g>
       <use xlink:href="#m4ff953cefc" x="329.523343" y="390.04" style="stroke: #000000; stroke-width: 0.8"/>
      </g>
     </g>
     <g id="text_3">
      <!-- 40000 -->
      <g transform="translate(313.617093 404.638438) scale(0.1 -0.1)">
       <defs>
        <path id="DejaVuSans-34" d="M 2419 4116 
L 825 1625 
L 2419 1625 
L 2419 4116 
z
M 2253 4666 
L 3047 4666 
L 3047 1625 
L 3713 1625 
L 3713 1100 
L 3047 1100 
L 3047 0 
L 2419 0 
L 2419 1100 
L 313 1100 
L 313 1709 
L 2253 4666 
z
" transform="scale(0.015625)"/>
       </defs>
       <use xlink:href="#DejaVuSans-34"/>
       <use xlink:href="#DejaVuSans-30" transform="translate(63.623047 0)"/>
       <use xlink:href="#DejaVuSans-30" transform="translate(127.246094 0)"/>
       <use xlink:href="#DejaVuSans-30" transform="translate(190.869141 0)"/>
       <use xlink:href="#DejaVuSans-30" transform="translate(254.492188 0)"/>
      </g>
     </g>
    </g>
    <g id="xtick_4">
     <g id="line2d_7">
      <path d="M 456.829943 390.04 
L 456.829943 10.8 
" clip-path="url(#p0364a51e15)" style="fill: none; stroke: #b0b0b0; stroke-width: 0.8; stroke-linecap: square"/>
     </g>
     <g id="line2d_8">
      <g>
       <use xlink:href="#m4ff953cefc" x="456.829943" y="390.04" style="stroke: #000000; stroke-width: 0.8"/>
      </g>
     </g>
     <g id="text_4">
      <!-- 60000 -->
      <g transform="translate(440.923693 404.638438) scale(0.1 -0.1)">
       <defs>
        <path id="DejaVuSans-36" d="M 2113 2584 
Q 1688 2584 1439 2293 
Q 1191 2003 1191 1497 
Q 1191 994 1439 701 
Q 1688 409 2113 409 
Q 2538 409 2786 701 
Q 3034 994 3034 1497 
Q 3034 2003 2786 2293 
Q 2538 2584 2113 2584 
z
M 3366 4563 
L 3366 3988 
Q 3128 4100 2886 4159 
Q 2644 4219 2406 4219 
Q 1781 4219 1451 3797 
Q 1122 3375 1075 2522 
Q 1259 2794 1537 2939 
Q 1816 3084 2150 3084 
Q 2853 3084 3261 2657 
Q 3669 2231 3669 1497 
Q 3669 778 3244 343 
Q 2819 -91 2113 -91 
Q 1303 -91 875 529 
Q 447 1150 447 2328 
Q 447 3434 972 4092 
Q 1497 4750 2381 4750 
Q 2619 4750 2861 4703 
Q 3103 4656 3366 4563 
z
" transform="scale(0.015625)"/>
       </defs>
       <use xlink:href="#DejaVuSans-36"/>
       <use xlink:href="#DejaVuSans-30" transform="translate(63.623047 0)"/>
       <use xlink:href="#DejaVuSans-30" transform="translate(127.246094 0)"/>
       <use xlink:href="#DejaVuSans-30" transform="translate(190.869141 0)"/>
       <use xlink:href="#DejaVuSans-30" transform="translate(254.492188 0)"/>
      </g>
     </g>
    </g>
    <g id="xtick_5">
     <g id="line2d_9">
      <path d="M 584.136543 390.04 
L 584.136543 10.8 
" clip-path="url(#p0364a51e15)" style="fill: none; stroke: #b0b0b0; stroke-width: 0.8; stroke-linecap: square"/>
     </g>
     <g id="line2d_10">
      <g>
       <use xlink:href="#m4ff953cefc" x="584.136543" y="390.04" style="stroke: #000000; stroke-width: 0.8"/>
      </g>
     </g>
     <g id="text_5">
      <!-- 80000 -->
      <g transform="translate(568.230293 404.638438) scale(0.1 -0.1)">
       <defs>
        <path id="DejaVuSans-38" d="M 2034 2216 
Q 1584 2216 1326 1975 
Q 1069 1734 1069 1313 
Q 1069 891 1326 650 
Q 1584 409 2034 409 
Q 2484 409 2743 651 
Q 3003 894 3003 1313 
Q 3003 1734 2745 1975 
Q 2488 2216 2034 2216 
z
M 1403 2484 
Q 997 2584 770 2862 
Q 544 3141 544 3541 
Q 544 4100 942 4425 
Q 1341 4750 2034 4750 
Q 2731 4750 3128 4425 
Q 3525 4100 3525 3541 
Q 3525 3141 3298 2862 
Q 3072 2584 2669 2484 
Q 3125 2378 3379 2068 
Q 3634 1759 3634 1313 
Q 3634 634 3220 271 
Q 2806 -91 2034 -91 
Q 1263 -91 848 271 
Q 434 634 434 1313 
Q 434 1759 690 2068 
Q 947 2378 1403 2484 
z
M 1172 3481 
Q 1172 3119 1398 2916 
Q 1625 2713 2034 2713 
Q 2441 2713 2670 2916 
Q 2900 3119 2900 3481 
Q 2900 3844 2670 4047 
Q 2441 4250 2034 4250 
Q 1625 4250 1398 4047 
Q 1172 3844 1172 3481 
z
" transform="scale(0.015625)"/>
       </defs>
       <use xlink:href="#DejaVuSans-38"/>
       <use xlink:href="#DejaVuSans-30" transform="translate(63.623047 0)"/>
       <use xlink:href="#DejaVuSans-30" transform="translate(127.246094 0)"/>
       <use xlink:href="#DejaVuSans-30" transform="translate(190.869141 0)"/>
       <use xlink:href="#DejaVuSans-30" transform="translate(254.492188 0)"/>
      </g>
     </g>
    </g>
    <g id="text_6">
     <!-- Steps -->
     <g transform="translate(364.470156 418.316562) scale(0.1 -0.1)">
      <defs>
       <path id="DejaVuSans-53" d="M 3425 4513 
L 3425 3897 
Q 3066 4069 2747 4153 
Q 2428 4238 2131 4238 
Q 1616 4238 1336 4038 
Q 1056 3838 1056 3469 
Q 1056 3159 1242 3001 
Q 1428 2844 1947 2747 
L 2328 2669 
Q 3034 2534 3370 2195 
Q 3706 1856 3706 1288 
Q 3706 609 3251 259 
Q 2797 -91 1919 -91 
Q 1588 -91 1214 -16 
Q 841 59 441 206 
L 441 856 
Q 825 641 1194 531 
Q 1563 422 1919 422 
Q 2459 422 2753 634 
Q 3047 847 3047 1241 
Q 3047 1584 2836 1778 
Q 2625 1972 2144 2069 
L 1759 2144 
Q 1053 2284 737 2584 
Q 422 2884 422 3419 
Q 422 4038 858 4394 
Q 1294 4750 2059 4750 
Q 2388 4750 2728 4690 
Q 3069 4631 3425 4513 
z
" transform="scale(0.015625)"/>
       <path id="DejaVuSans-74" d="M 1172 4494 
L 1172 3500 
L 2356 3500 
L 2356 3053 
L 1172 3053 
L 1172 1153 
Q 1172 725 1289 603 
Q 1406 481 1766 481 
L 2356 481 
L 2356 0 
L 1766 0 
Q 1100 0 847 248 
Q 594 497 594 1153 
L 594 3053 
L 172 3053 
L 172 3500 
L 594 3500 
L 594 4494 
L 1172 4494 
z
" transform="scale(0.015625)"/>
       <path id="DejaVuSans-65" d="M 3597 1894 
L 3597 1613 
L 953 1613 
Q 991 1019 1311 708 
Q 1631 397 2203 397 
Q 2534 397 2845 478 
Q 3156 559 3463 722 
L 3463 178 
Q 3153 47 2828 -22 
Q 2503 -91 2169 -91 
Q 1331 -91 842 396 
Q 353 884 353 1716 
Q 353 2575 817 3079 
Q 1281 3584 2069 3584 
Q 2775 3584 3186 3129 
Q 3597 2675 3597 1894 
z
M 3022 2063 
Q 3016 2534 2758 2815 
Q 2500 3097 2075 3097 
Q 1594 3097 1305 2825 
Q 1016 2553 972 2059 
L 3022 2063 
z
" transform="scale(0.015625)"/>
       <path id="DejaVuSans-70" d="M 1159 525 
L 1159 -1331 
L 581 -1331 
L 581 3500 
L 1159 3500 
L 1159 2969 
Q 1341 3281 1617 3432 
Q 1894 3584 2278 3584 
Q 2916 3584 3314 3078 
Q 3713 2572 3713 1747 
Q 3713 922 3314 415 
Q 2916 -91 2278 -91 
Q 1894 -91 1617 61 
Q 1341 213 1159 525 
z
M 3116 1747 
Q 3116 2381 2855 2742 
Q 2594 3103 2138 3103 
Q 1681 3103 1420 2742 
Q 1159 2381 1159 1747 
Q 1159 1113 1420 752 
Q 1681 391 2138 391 
Q 2594 391 2855 752 
Q 3116 1113 3116 1747 
z
" transform="scale(0.015625)"/>
       <path id="DejaVuSans-73" d="M 2834 3397 
L 2834 2853 
Q 2591 2978 2328 3040 
Q 2066 3103 1784 3103 
Q 1356 3103 1142 2972 
Q 928 2841 928 2578 
Q 928 2378 1081 2264 
Q 1234 2150 1697 2047 
L 1894 2003 
Q 2506 1872 2764 1633 
Q 3022 1394 3022 966 
Q 3022 478 2636 193 
Q 2250 -91 1575 -91 
Q 1294 -91 989 -36 
Q 684 19 347 128 
L 347 722 
Q 666 556 975 473 
Q 1284 391 1588 391 
Q 1994 391 2212 530 
Q 2431 669 2431 922 
Q 2431 1156 2273 1281 
Q 2116 1406 1581 1522 
L 1381 1569 
Q 847 1681 609 1914 
Q 372 2147 372 2553 
Q 372 3047 722 3315 
Q 1072 3584 1716 3584 
Q 2034 3584 2315 3537 
Q 2597 3491 2834 3397 
z
" transform="scale(0.015625)"/>
      </defs>
      <use xlink:href="#DejaVuSans-53"/>
      <use xlink:href="#DejaVuSans-74" transform="translate(63.476562 0)"/>
      <use xlink:href="#DejaVuSans-65" transform="translate(102.685547 0)"/>
      <use xlink:href="#DejaVuSans-70" transform="translate(164.208984 0)"/>
      <use xlink:href="#DejaVuSans-73" transform="translate(227.685547 0)"/>
     </g>
    </g>
   </g>
   <g id="matplotlib.axis_2">
    <g id="ytick_1">
     <g id="line2d_11">
      <path d="M 47.72 351.217134 
L 709.2 351.217134 
" clip-path="url(#p0364a51e15)" style="fill: none; stroke: #b0b0b0; stroke-width: 0.8; stroke-linecap: square"/>
     </g>
     <g id="line2d_12">
      <defs>
       <path id="m786fbd78ce" d="M 0 0 
L -3.5 0 
" style="stroke: #000000; stroke-width: 0.8"/>
      </defs>
      <g>
       <use xlink:href="#m786fbd78ce" x="47.72" y="351.217134" style="stroke: #000000; stroke-width: 0.8"/>
      </g>
     </g>
     <g id="text_7">
      <!-- 1.0 -->
      <g transform="translate(24.816875 355.016353) scale(0.1 -0.1)">
       <defs>
        <path id="DejaVuSans-31" d="M 794 531 
L 1825 531 
L 1825 4091 
L 703 3866 
L 703 4441 
L 1819 4666 
L 2450 4666 
L 2450 531 
L 3481 531 
L 3481 0 
L 794 0 
L 794 531 
z
" transform="scale(0.015625)"/>
        <path id="DejaVuSans-2e" d="M 684 794 
L 1344 794 
L 1344 0 
L 684 0 
L 684 794 
z
" transform="scale(0.015625)"/>
       </defs>
       <use xlink:href="#DejaVuSans-31"/>
       <use xlink:href="#DejaVuSans-2e" transform="translate(63.623047 0)"/>
       <use xlink:href="#DejaVuSans-30" transform="translate(95.410156 0)"/>
      </g>
     </g>
    </g>
    <g id="ytick_2">
     <g id="line2d_13">
      <path d="M 47.72 305.639841 
L 709.2 305.639841 
" clip-path="url(#p0364a51e15)" style="fill: none; stroke: #b0b0b0; stroke-width: 0.8; stroke-linecap: square"/>
     </g>
     <g id="line2d_14">
      <g>
       <use xlink:href="#m786fbd78ce" x="47.72" y="305.639841" style="stroke: #000000; stroke-width: 0.8"/>
      </g>
     </g>
     <g id="text_8">
      <!-- 1.5 -->
      <g transform="translate(24.816875 309.43906) scale(0.1 -0.1)">
       <defs>
        <path id="DejaVuSans-35" d="M 691 4666 
L 3169 4666 
L 3169 4134 
L 1269 4134 
L 1269 2991 
Q 1406 3038 1543 3061 
Q 1681 3084 1819 3084 
Q 2600 3084 3056 2656 
Q 3513 2228 3513 1497 
Q 3513 744 3044 326 
Q 2575 -91 1722 -91 
Q 1428 -91 1123 -41 
Q 819 9 494 109 
L 494 744 
Q 775 591 1075 516 
Q 1375 441 1709 441 
Q 2250 441 2565 725 
Q 2881 1009 2881 1497 
Q 2881 1984 2565 2268 
Q 2250 2553 1709 2553 
Q 1456 2553 1204 2497 
Q 953 2441 691 2322 
L 691 4666 
z
" transform="scale(0.015625)"/>
       </defs>
       <use xlink:href="#DejaVuSans-31"/>
       <use xlink:href="#DejaVuSans-2e" transform="translate(63.623047 0)"/>
       <use xlink:href="#DejaVuSans-35" transform="translate(95.410156 0)"/>
      </g>
     </g>
    </g>
    <g id="ytick_3">
     <g id="line2d_15">
      <path d="M 47.72 260.062549 
L 709.2 260.062549 
" clip-path="url(#p0364a51e15)" style="fill: none; stroke: #b0b0b0; stroke-width: 0.8; stroke-linecap: square"/>
     </g>
     <g id="line2d_16">
      <g>
       <use xlink:href="#m786fbd78ce" x="47.72" y="260.062549" style="stroke: #000000; stroke-width: 0.8"/>
      </g>
     </g>
     <g id="text_9">
      <!-- 2.0 -->
      <g transform="translate(24.816875 263.861768) scale(0.1 -0.1)">
       <use xlink:href="#DejaVuSans-32"/>
       <use xlink:href="#DejaVuSans-2e" transform="translate(63.623047 0)"/>
       <use xlink:href="#DejaVuSans-30" transform="translate(95.410156 0)"/>
      </g>
     </g>
    </g>
    <g id="ytick_4">
     <g id="line2d_17">
      <path d="M 47.72 214.485257 
L 709.2 214.485257 
" clip-path="url(#p0364a51e15)" style="fill: none; stroke: #b0b0b0; stroke-width: 0.8; stroke-linecap: square"/>
     </g>
     <g id="line2d_18">
      <g>
       <use xlink:href="#m786fbd78ce" x="47.72" y="214.485257" style="stroke: #000000; stroke-width: 0.8"/>
      </g>
     </g>
     <g id="text_10">
      <!-- 2.5 -->
      <g transform="translate(24.816875 218.284475) scale(0.1 -0.1)">
       <use xlink:href="#DejaVuSans-32"/>
       <use xlink:href="#DejaVuSans-2e" transform="translate(63.623047 0)"/>
       <use xlink:href="#DejaVuSans-35" transform="translate(95.410156 0)"/>
      </g>
     </g>
    </g>
    <g id="ytick_5">
     <g id="line2d_19">
      <path d="M 47.72 168.907964 
L 709.2 168.907964 
" clip-path="url(#p0364a51e15)" style="fill: none; stroke: #b0b0b0; stroke-width: 0.8; stroke-linecap: square"/>
     </g>
     <g id="line2d_20">
      <g>
       <use xlink:href="#m786fbd78ce" x="47.72" y="168.907964" style="stroke: #000000; stroke-width: 0.8"/>
      </g>
     </g>
     <g id="text_11">
      <!-- 3.0 -->
      <g transform="translate(24.816875 172.707183) scale(0.1 -0.1)">
       <defs>
        <path id="DejaVuSans-33" d="M 2597 2516 
Q 3050 2419 3304 2112 
Q 3559 1806 3559 1356 
Q 3559 666 3084 287 
Q 2609 -91 1734 -91 
Q 1441 -91 1130 -33 
Q 819 25 488 141 
L 488 750 
Q 750 597 1062 519 
Q 1375 441 1716 441 
Q 2309 441 2620 675 
Q 2931 909 2931 1356 
Q 2931 1769 2642 2001 
Q 2353 2234 1838 2234 
L 1294 2234 
L 1294 2753 
L 1863 2753 
Q 2328 2753 2575 2939 
Q 2822 3125 2822 3475 
Q 2822 3834 2567 4026 
Q 2313 4219 1838 4219 
Q 1578 4219 1281 4162 
Q 984 4106 628 3988 
L 628 4550 
Q 988 4650 1302 4700 
Q 1616 4750 1894 4750 
Q 2613 4750 3031 4423 
Q 3450 4097 3450 3541 
Q 3450 3153 3228 2886 
Q 3006 2619 2597 2516 
z
" transform="scale(0.015625)"/>
       </defs>
       <use xlink:href="#DejaVuSans-33"/>
       <use xlink:href="#DejaVuSans-2e" transform="translate(63.623047 0)"/>
       <use xlink:href="#DejaVuSans-30" transform="translate(95.410156 0)"/>
      </g>
     </g>
    </g>
    <g id="ytick_6">
     <g id="line2d_21">
      <path d="M 47.72 123.330672 
L 709.2 123.330672 
" clip-path="url(#p0364a51e15)" style="fill: none; stroke: #b0b0b0; stroke-width: 0.8; stroke-linecap: square"/>
     </g>
     <g id="line2d_22">
      <g>
       <use xlink:href="#m786fbd78ce" x="47.72" y="123.330672" style="stroke: #000000; stroke-width: 0.8"/>
      </g>
     </g>
     <g id="text_12">
      <!-- 3.5 -->
      <g transform="translate(24.816875 127.12989) scale(0.1 -0.1)">
       <use xlink:href="#DejaVuSans-33"/>
       <use xlink:href="#DejaVuSans-2e" transform="translate(63.623047 0)"/>
       <use xlink:href="#DejaVuSans-35" transform="translate(95.410156 0)"/>
      </g>
     </g>
    </g>
    <g id="ytick_7">
     <g id="line2d_23">
      <path d="M 47.72 77.753379 
L 709.2 77.753379 
" clip-path="url(#p0364a51e15)" style="fill: none; stroke: #b0b0b0; stroke-width: 0.8; stroke-linecap: square"/>
     </g>
     <g id="line2d_24">
      <g>
       <use xlink:href="#m786fbd78ce" x="47.72" y="77.753379" style="stroke: #000000; stroke-width: 0.8"/>
      </g>
     </g>
     <g id="text_13">
      <!-- 4.0 -->
      <g transform="translate(24.816875 81.552598) scale(0.1 -0.1)">
       <use xlink:href="#DejaVuSans-34"/>
       <use xlink:href="#DejaVuSans-2e" transform="translate(63.623047 0)"/>
       <use xlink:href="#DejaVuSans-30" transform="translate(95.410156 0)"/>
      </g>
     </g>
    </g>
    <g id="ytick_8">
     <g id="line2d_25">
      <path d="M 47.72 32.176087 
L 709.2 32.176087 
" clip-path="url(#p0364a51e15)" style="fill: none; stroke: #b0b0b0; stroke-width: 0.8; stroke-linecap: square"/>
     </g>
     <g id="line2d_26">
      <g>
       <use xlink:href="#m786fbd78ce" x="47.72" y="32.176087" style="stroke: #000000; stroke-width: 0.8"/>
      </g>
     </g>
     <g id="text_14">
      <!-- 4.5 -->
      <g transform="translate(24.816875 35.975306) scale(0.1 -0.1)">
       <use xlink:href="#DejaVuSans-34"/>
       <use xlink:href="#DejaVuSans-2e" transform="translate(63.623047 0)"/>
       <use xlink:href="#DejaVuSans-35" transform="translate(95.410156 0)"/>
      </g>
     </g>
    </g>
    <g id="text_15">
     <!-- Circuit Depth -->
     <g transform="translate(18.737188 233.329375) rotate(-90) scale(0.1 -0.1)">
      <defs>
       <path id="DejaVuSans-43" d="M 4122 4306 
L 4122 3641 
Q 3803 3938 3442 4084 
Q 3081 4231 2675 4231 
Q 1875 4231 1450 3742 
Q 1025 3253 1025 2328 
Q 1025 1406 1450 917 
Q 1875 428 2675 428 
Q 3081 428 3442 575 
Q 3803 722 4122 1019 
L 4122 359 
Q 3791 134 3420 21 
Q 3050 -91 2638 -91 
Q 1578 -91 968 557 
Q 359 1206 359 2328 
Q 359 3453 968 4101 
Q 1578 4750 2638 4750 
Q 3056 4750 3426 4639 
Q 3797 4528 4122 4306 
z
" transform="scale(0.015625)"/>
       <path id="DejaVuSans-69" d="M 603 3500 
L 1178 3500 
L 1178 0 
L 603 0 
L 603 3500 
z
M 603 4863 
L 1178 4863 
L 1178 4134 
L 603 4134 
L 603 4863 
z
" transform="scale(0.015625)"/>
       <path id="DejaVuSans-72" d="M 2631 2963 
Q 2534 3019 2420 3045 
Q 2306 3072 2169 3072 
Q 1681 3072 1420 2755 
Q 1159 2438 1159 1844 
L 1159 0 
L 581 0 
L 581 3500 
L 1159 3500 
L 1159 2956 
Q 1341 3275 1631 3429 
Q 1922 3584 2338 3584 
Q 2397 3584 2469 3576 
Q 2541 3569 2628 3553 
L 2631 2963 
z
" transform="scale(0.015625)"/>
       <path id="DejaVuSans-63" d="M 3122 3366 
L 3122 2828 
Q 2878 2963 2633 3030 
Q 2388 3097 2138 3097 
Q 1578 3097 1268 2742 
Q 959 2388 959 1747 
Q 959 1106 1268 751 
Q 1578 397 2138 397 
Q 2388 397 2633 464 
Q 2878 531 3122 666 
L 3122 134 
Q 2881 22 2623 -34 
Q 2366 -91 2075 -91 
Q 1284 -91 818 406 
Q 353 903 353 1747 
Q 353 2603 823 3093 
Q 1294 3584 2113 3584 
Q 2378 3584 2631 3529 
Q 2884 3475 3122 3366 
z
" transform="scale(0.015625)"/>
       <path id="DejaVuSans-75" d="M 544 1381 
L 544 3500 
L 1119 3500 
L 1119 1403 
Q 1119 906 1312 657 
Q 1506 409 1894 409 
Q 2359 409 2629 706 
Q 2900 1003 2900 1516 
L 2900 3500 
L 3475 3500 
L 3475 0 
L 2900 0 
L 2900 538 
Q 2691 219 2414 64 
Q 2138 -91 1772 -91 
Q 1169 -91 856 284 
Q 544 659 544 1381 
z
M 1991 3584 
L 1991 3584 
z
" transform="scale(0.015625)"/>
       <path id="DejaVuSans-20" transform="scale(0.015625)"/>
       <path id="DejaVuSans-44" d="M 1259 4147 
L 1259 519 
L 2022 519 
Q 2988 519 3436 956 
Q 3884 1394 3884 2338 
Q 3884 3275 3436 3711 
Q 2988 4147 2022 4147 
L 1259 4147 
z
M 628 4666 
L 1925 4666 
Q 3281 4666 3915 4102 
Q 4550 3538 4550 2338 
Q 4550 1131 3912 565 
Q 3275 0 1925 0 
L 628 0 
L 628 4666 
z
" transform="scale(0.015625)"/>
       <path id="DejaVuSans-68" d="M 3513 2113 
L 3513 0 
L 2938 0 
L 2938 2094 
Q 2938 2591 2744 2837 
Q 2550 3084 2163 3084 
Q 1697 3084 1428 2787 
Q 1159 2491 1159 1978 
L 1159 0 
L 581 0 
L 581 4863 
L 1159 4863 
L 1159 2956 
Q 1366 3272 1645 3428 
Q 1925 3584 2291 3584 
Q 2894 3584 3203 3211 
Q 3513 2838 3513 2113 
z
" transform="scale(0.015625)"/>
      </defs>
      <use xlink:href="#DejaVuSans-43"/>
      <use xlink:href="#DejaVuSans-69" transform="translate(69.824219 0)"/>
      <use xlink:href="#DejaVuSans-72" transform="translate(97.607422 0)"/>
      <use xlink:href="#DejaVuSans-63" transform="translate(136.470703 0)"/>
      <use xlink:href="#DejaVuSans-75" transform="translate(191.451172 0)"/>
      <use xlink:href="#DejaVuSans-69" transform="translate(254.830078 0)"/>
      <use xlink:href="#DejaVuSans-74" transform="translate(282.613281 0)"/>
      <use xlink:href="#DejaVuSans-20" transform="translate(321.822266 0)"/>
      <use xlink:href="#DejaVuSans-44" transform="translate(353.609375 0)"/>
      <use xlink:href="#DejaVuSans-65" transform="translate(430.611328 0)"/>
      <use xlink:href="#DejaVuSans-70" transform="translate(492.134766 0)"/>
      <use xlink:href="#DejaVuSans-74" transform="translate(555.611328 0)"/>
      <use xlink:href="#DejaVuSans-68" transform="translate(594.820312 0)"/>
     </g>
    </g>
   </g>
   <g id="line2d_27">
    <path d="M 77.787273 176.048407 
L 83.866163 174.073391 
L 89.773189 177.415725 
L 95.686581 169.667586 
L 101.479031 163.438689 
L 107.233289 164.350235 
L 112.974817 174.984936 
L 118.499923 179.238817 
L 123.706763 185.467714 
L 128.417107 198.229356 
L 132.618225 193.823551 
L 136.628383 194.279324 
L 140.651272 197.31781 
L 144.57868 198.38128 
L 148.442436 199.748599 
L 152.331652 195.494718 
L 156.24633 197.31781 
L 160.116451 198.988977 
L 167.773943 198.38128 
L 171.624967 199.292826 
L 175.4378 199.748599 
L 179.276094 198.077431 
L 183.108023 198.533204 
L 186.933586 198.229356 
L 190.778245 199.292826 
L 198.423007 198.685129 
L 202.280397 199.292826 
L 206.10596 198.685129 
L 209.925158 199.900523 
L 213.757087 196.102415 
L 217.601746 197.621658 
L 221.446405 200.204372 
L 225.284699 199.140901 
L 229.110263 200.660145 
L 232.942191 198.533204 
L 236.77412 198.988977 
L 240.593318 198.837053 
L 244.437977 198.229356 
L 248.257175 198.988977 
L 252.076373 196.862037 
L 255.901936 198.685129 
L 259.708404 198.38128 
L 263.527602 199.140901 
L 267.353165 199.140901 
L 271.165998 199.44475 
L 274.97883 200.812069 
L 278.791663 198.685129 
L 282.629957 198.988977 
L 286.449155 199.748599 
L 290.274718 196.558188 
L 294.093916 195.950491 
L 297.913114 197.925507 
L 301.745043 195.950491 
L 305.570606 198.077431 
L 309.389804 198.533204 
L 313.221733 197.165885 
L 317.072758 198.077431 
L 320.930148 197.31781 
L 324.755711 199.44475 
L 328.574909 201.115917 
L 332.394107 200.50822 
L 336.213305 199.140901 
L 340.032503 199.292826 
L 343.851701 199.900523 
L 347.670899 198.988977 
L 351.509193 200.50822 
L 355.328391 198.685129 
L 359.153954 200.204372 
L 362.973152 198.988977 
L 366.79235 203.546706 
L 370.611548 205.825571 
L 374.443477 246.237437 
L 378.262675 278.749239 
L 382.075507 284.978136 
L 385.901071 286.497379 
L 389.720269 290.143562 
L 393.533101 288.472395 
L 397.339569 290.903184 
L 401.152401 287.560849 
L 404.965234 289.991638 
L 408.778067 288.32047 
L 412.756398 279.964633 
L 416.664711 285.433908 
L 420.541197 283.155044 
L 424.513162 280.420406 
L 428.389648 282.699271 
L 432.234308 284.370438 
L 440.171874 283.762741 
L 444.188397 279.205012 
L 448.198555 285.737757 
L 452.068676 286.497379 
L 455.989719 284.06659 
L 459.898032 289.080092 
L 463.768152 284.674287 
L 467.68283 283.306968 
L 471.572047 283.914665 
L 475.416706 286.649303 
L 479.248635 286.497379 
L 483.080564 283.762741 
L 486.906127 287.864697 
L 490.725325 290.143562 
L 494.544523 288.32047 
L 498.363721 288.624319 
L 502.182919 289.232016 
L 506.002117 287.712773 
L 509.82768 289.232016 
L 513.646878 289.535865 
L 517.466076 294.549367 
L 520.674203 310.197571 
L 523.43039 317.034165 
L 526.091098 317.94571 
L 528.751806 318.097635 
L 531.355226 318.705332 
L 533.92682 320.832272 
L 536.485682 321.439969 
L 539.044545 326.301547 
L 541.590677 341.645902 
L 544.143174 346.203632 
L 546.689306 350.153664 
L 549.235438 350.609437 
L 551.78157 350.761361 
L 554.327702 351.217134 
L 556.8802 350.305588 
L 559.426332 351.06521 
L 561.972464 351.06521 
L 564.518596 351.217134 
L 567.064728 351.217134 
L 569.617225 350.913285 
L 572.163357 351.217134 
L 584.894017 351.217134 
L 587.440149 351.06521 
L 589.992646 351.06521 
L 592.545143 351.217134 
L 595.091275 350.609437 
L 597.637407 351.217134 
L 600.183539 351.217134 
L 602.729671 350.913285 
L 605.275803 351.217134 
L 610.368067 351.217134 
L 612.914199 351.06521 
L 615.460331 350.761361 
L 618.006463 351.217134 
L 630.737123 351.217134 
L 633.289621 350.913285 
L 638.381885 351.217134 
L 640.928017 351.217134 
L 643.474149 350.761361 
L 646.020281 351.217134 
L 658.750941 351.217134 
L 661.297073 350.305588 
L 663.855935 350.913285 
L 666.402067 351.217134 
L 679.132727 351.217134 
L 679.132727 351.217134 
" clip-path="url(#p0364a51e15)" style="fill: none; stroke: #1f77b4; stroke-width: 1.5; stroke-linecap: square"/>
   </g>
   <g id="line2d_28">
    <path d="M 78.048251 146.878939 
L 84.451773 141.561589 
L 90.874391 145.663545 
L 97.036031 132.142282 
L 103.363169 126.369158 
L 109.321117 127.432628 
L 115.228144 122.419126 
L 121.275207 122.722974 
L 127.093119 129.407644 
L 132.796454 135.484616 
L 138.321561 131.838433 
L 143.783014 156.905944 
L 149.034411 163.13484 
L 154.355827 171.338753 
L 159.664512 178.479196 
L 164.941371 189.56967 
L 170.078192 190.177367 
L 175.227744 197.773583 
L 180.3582 198.229356 
L 185.272235 220.714153 
L 189.689774 240.312389 
L 193.814508 248.516302 
L 197.780108 248.668226 
L 201.860285 253.985577 
L 205.730405 254.745198 
L 209.58143 256.264441 
L 213.508839 256.720214 
L 217.353498 256.264441 
L 221.191792 257.024063 
L 225.119201 256.112517 
L 228.976591 259.302927 
L 232.827615 258.543306 
L 236.672275 257.175987 
L 240.523299 258.543306 
L 244.361593 257.63176 
L 248.206252 259.910625 
L 252.038181 257.935609 
L 255.857379 258.69523 
L 259.689308 257.935609 
L 263.527602 257.479836 
L 267.372261 258.391382 
L 271.191459 258.543306 
L 275.023388 258.999079 
L 278.848951 259.7587 
L 282.68088 259.910625 
L 286.500078 258.543306 
L 290.325641 258.999079 
L 294.144839 259.606776 
L 297.964037 258.847155 
L 301.827792 255.656744 
L 305.697913 256.720214 
L 309.561668 258.391382 
L 313.387232 258.999079 
L 317.231891 258.69523 
L 321.057454 259.302927 
L 324.870287 259.454852 
L 328.708581 259.7587 
L 332.527779 259.454852 
L 336.340611 258.999079 
L 340.185271 258.239457 
L 344.004469 259.606776 
L 347.823667 256.264441 
L 351.623769 246.389361 
L 355.468428 255.352895 
L 359.281261 258.543306 
L 363.100459 258.239457 
L 366.919657 259.454852 
L 370.738855 259.151003 
L 374.570783 257.935609 
L 378.396347 259.910625 
L 382.209179 259.151003 
L 386.034743 259.151003 
L 389.853941 259.7587 
L 393.679504 258.239457 
L 397.498702 259.7587 
L 401.311535 259.606776 
L 405.130733 254.745198 
L 408.943565 257.327911 
L 412.762763 259.606776 
L 416.594692 256.416366 
L 420.426621 249.88362 
L 424.264915 253.681728 
L 428.084113 257.63176 
L 431.909676 245.325891 
L 435.728874 251.858636 
L 439.548072 255.049047 
L 443.36727 255.200971 
L 447.122815 259.151003 
L 450.521901 275.406904 
L 453.532702 282.395422 
L 456.307986 285.889681 
L 458.936867 288.472395 
L 461.514826 288.928168 
L 464.118246 297.891702 
L 466.689839 312.932208 
L 469.242336 318.097635 
L 471.807564 319.313029 
L 474.353696 316.578392 
L 476.899828 317.034165 
L 479.452326 299.107096 
L 481.998458 311.564889 
L 484.54459 313.084133 
L 487.097087 317.793786 
L 489.643219 318.553408 
L 492.189351 319.768802 
L 494.735483 319.616878 
L 497.281615 319.616878 
L 499.827747 320.680348 
L 502.373879 320.832272 
L 504.926376 320.528424 
L 507.478874 319.768802 
L 510.025006 320.224575 
L 512.577503 320.832272 
L 515.13 320.680348 
L 517.676132 326.909245 
L 520.228629 342.405524 
L 522.774761 348.026723 
L 525.320893 349.849815 
L 527.879756 347.419026 
L 530.432253 350.609437 
L 533.035673 350.305588 
L 535.747304 350.153664 
L 538.427108 350.761361 
L 541.011432 350.457512 
L 543.589391 350.913285 
L 546.141888 351.217134 
L 548.700751 351.06521 
L 551.246883 351.217134 
L 556.345512 351.217134 
L 558.891644 350.609437 
L 561.437776 351.217134 
L 579.305257 351.217134 
L 581.857754 350.001739 
L 584.410252 351.06521 
L 586.962749 350.305588 
L 589.521612 351.217134 
L 597.1982 351.217134 
L 599.750697 350.609437 
L 602.296829 351.217134 
L 613.181543 351.217134 
L 616.033211 351.06521 
L 618.713015 351.06521 
L 621.367358 351.217134 
L 626.650582 351.217134 
L 629.381308 351.06521 
L 631.984728 351.217134 
L 660.157679 351.217134 
L 662.748368 351.06521 
L 665.307231 351.217134 
L 670.444052 351.217134 
L 672.996549 350.761361 
L 675.549046 351.217134 
L 678.095178 351.217134 
L 678.095178 351.217134 
" clip-path="url(#p0364a51e15)" style="fill: none; stroke: #ff7f0e; stroke-width: 1.5; stroke-linecap: square"/>
   </g>
   <g id="patch_3">
    <path d="M 47.72 390.04 
L 47.72 10.8 
" style="fill: none; stroke: #000000; stroke-width: 0.8; stroke-linejoin: miter; stroke-linecap: square"/>
   </g>
   <g id="patch_4">
    <path d="M 709.2 390.04 
L 709.2 10.8 
" style="fill: none; stroke: #000000; stroke-width: 0.8; stroke-linejoin: miter; stroke-linecap: square"/>
   </g>
   <g id="patch_5">
    <path d="M 47.72 390.04 
L 709.2 390.04 
" style="fill: none; stroke: #000000; stroke-width: 0.8; stroke-linejoin: miter; stroke-linecap: square"/>
   </g>
   <g id="patch_6">
    <path d="M 47.72 10.8 
L 709.2 10.8 
" style="fill: none; stroke: #000000; stroke-width: 0.8; stroke-linejoin: miter; stroke-linecap: square"/>
   </g>
   <g id="legend_1">
    <g id="patch_7">
     <path d="M 608.528125 385.04 
L 702.2 385.04 
Q 704.2 385.04 704.2 383.04 
L 704.2 340.005625 
Q 704.2 338.005625 702.2 338.005625 
L 608.528125 338.005625 
Q 606.528125 338.005625 606.528125 340.005625 
L 606.528125 383.04 
Q 606.528125 385.04 608.528125 385.04 
z
" style="fill: #ffffff; opacity: 0.8; stroke: #cccccc; stroke-linejoin: miter"/>
    </g>
    <g id="text_16">
     <!-- Max Circuit Depth -->
     <g transform="translate(610.528125 349.604062) scale(0.1 -0.1)">
      <defs>
       <path id="DejaVuSans-4d" d="M 628 4666 
L 1569 4666 
L 2759 1491 
L 3956 4666 
L 4897 4666 
L 4897 0 
L 4281 0 
L 4281 4097 
L 3078 897 
L 2444 897 
L 1241 4097 
L 1241 0 
L 628 0 
L 628 4666 
z
" transform="scale(0.015625)"/>
       <path id="DejaVuSans-61" d="M 2194 1759 
Q 1497 1759 1228 1600 
Q 959 1441 959 1056 
Q 959 750 1161 570 
Q 1363 391 1709 391 
Q 2188 391 2477 730 
Q 2766 1069 2766 1631 
L 2766 1759 
L 2194 1759 
z
M 3341 1997 
L 3341 0 
L 2766 0 
L 2766 531 
Q 2569 213 2275 61 
Q 1981 -91 1556 -91 
Q 1019 -91 701 211 
Q 384 513 384 1019 
Q 384 1609 779 1909 
Q 1175 2209 1959 2209 
L 2766 2209 
L 2766 2266 
Q 2766 2663 2505 2880 
Q 2244 3097 1772 3097 
Q 1472 3097 1187 3025 
Q 903 2953 641 2809 
L 641 3341 
Q 956 3463 1253 3523 
Q 1550 3584 1831 3584 
Q 2591 3584 2966 3190 
Q 3341 2797 3341 1997 
z
" transform="scale(0.015625)"/>
       <path id="DejaVuSans-78" d="M 3513 3500 
L 2247 1797 
L 3578 0 
L 2900 0 
L 1881 1375 
L 863 0 
L 184 0 
L 1544 1831 
L 300 3500 
L 978 3500 
L 1906 2253 
L 2834 3500 
L 3513 3500 
z
" transform="scale(0.015625)"/>
      </defs>
      <use xlink:href="#DejaVuSans-4d"/>
      <use xlink:href="#DejaVuSans-61" transform="translate(86.279297 0)"/>
      <use xlink:href="#DejaVuSans-78" transform="translate(147.558594 0)"/>
      <use xlink:href="#DejaVuSans-20" transform="translate(206.738281 0)"/>
      <use xlink:href="#DejaVuSans-43" transform="translate(238.525391 0)"/>
      <use xlink:href="#DejaVuSans-69" transform="translate(308.349609 0)"/>
      <use xlink:href="#DejaVuSans-72" transform="translate(336.132812 0)"/>
      <use xlink:href="#DejaVuSans-63" transform="translate(374.996094 0)"/>
      <use xlink:href="#DejaVuSans-75" transform="translate(429.976562 0)"/>
      <use xlink:href="#DejaVuSans-69" transform="translate(493.355469 0)"/>
      <use xlink:href="#DejaVuSans-74" transform="translate(521.138672 0)"/>
      <use xlink:href="#DejaVuSans-20" transform="translate(560.347656 0)"/>
      <use xlink:href="#DejaVuSans-44" transform="translate(592.134766 0)"/>
      <use xlink:href="#DejaVuSans-65" transform="translate(669.136719 0)"/>
      <use xlink:href="#DejaVuSans-70" transform="translate(730.660156 0)"/>
      <use xlink:href="#DejaVuSans-74" transform="translate(794.136719 0)"/>
      <use xlink:href="#DejaVuSans-68" transform="translate(833.345703 0)"/>
     </g>
    </g>
    <g id="line2d_29">
     <path d="M 638.182813 360.782187 
L 648.182813 360.782187 
L 658.182813 360.782187 
" style="fill: none; stroke: #1f77b4; stroke-width: 1.5; stroke-linecap: square"/>
    </g>
    <g id="text_17">
     <!-- 4 -->
     <g transform="translate(666.182813 364.282187) scale(0.1 -0.1)">
      <use xlink:href="#DejaVuSans-34"/>
     </g>
    </g>
    <g id="line2d_30">
     <path d="M 638.182813 375.460312 
L 648.182813 375.460312 
L 658.182813 375.460312 
" style="fill: none; stroke: #ff7f0e; stroke-width: 1.5; stroke-linecap: square"/>
    </g>
    <g id="text_18">
     <!-- 5 -->
     <g transform="translate(666.182813 378.960312) scale(0.1 -0.1)">
      <use xlink:href="#DejaVuSans-35"/>
     </g>
    </g>
   </g>
  </g>
 </g>
 <defs>
  <clipPath id="p0364a51e15">
   <rect x="47.72" y="10.8" width="661.48" height="379.24"/>
  </clipPath>
 </defs>
</svg>
