<?xml version="1.0" encoding="utf-8" standalone="no"?>
<!DOCTYPE svg PUBLIC "-//W3C//DTD SVG 1.1//EN"
  "http://www.w3.org/Graphics/SVG/1.1/DTD/svg11.dtd">
<svg xmlns:xlink="http://www.w3.org/1999/xlink" width="720pt" height="432pt" viewBox="0 0 720 432" xmlns="http://www.w3.org/2000/svg" version="1.1">
 <metadata>
  <rdf:RDF xmlns:dc="http://purl.org/dc/elements/1.1/" xmlns:cc="http://creativecommons.org/ns#" xmlns:rdf="http://www.w3.org/1999/02/22-rdf-syntax-ns#">
   <cc:Work>
    <dc:type rdf:resource="http://purl.org/dc/dcmitype/StillImage"/>
    <dc:date>2025-04-16T01:17:15.027550</dc:date>
    <dc:format>image/svg+xml</dc:format>
    <dc:creator>
     <cc:Agent>
      <dc:title>Matplotlib v3.10.0, https://matplotlib.org/</dc:title>
     </cc:Agent>
    </dc:creator>
   </cc:Work>
  </rdf:RDF>
 </metadata>
 <defs>
  <style type="text/css">*{stroke-linejoin: round; stroke-linecap: butt}</style>
 </defs>
 <g id="figure_1">
  <g id="patch_1">
   <path d="M 0 432 
L 720 432 
L 720 0 
L 0 0 
z
" style="fill: #ffffff"/>
  </g>
  <g id="axes_1">
   <g id="patch_2">
    <path d="M 38.27 390.04 
L 709.2 390.04 
L 709.2 10.8 
L 38.27 10.8 
z
" style="fill: #ffffff"/>
   </g>
   <g id="FillBetweenPolyCollection_1">
    <path d="M 68.766818 77.610869 
L 68.766818 243.39633 
L 74.932552 249.95183 
L 80.923967 258.353843 
L 86.921838 252.384873 
L 92.79704 243.648331 
L 98.633505 253.30674 
L 104.457057 271.080657 
L 110.061096 277.89591 
L 115.342321 282.458658 
L 120.119958 295.156726 
L 124.381094 293.830574 
L 128.448541 293.733521 
L 132.528901 294.728368 
L 136.512418 295.012257 
L 140.431371 295.978953 
L 144.37615 293.883904 
L 148.346753 294.42966 
L 152.272163 296.095845 
L 156.158835 295.443119 
L 160.039051 294.720487 
L 163.945092 295.84702 
L 167.812395 296.114641 
L 171.705524 294.516299 
L 175.592196 294.992455 
L 179.472412 294.869217 
L 183.371996 295.561946 
L 187.245756 295.536455 
L 191.125972 295.083855 
L 195.038469 295.485408 
L 198.918685 295.561946 
L 202.792445 295.553251 
L 206.679117 294.027694 
L 210.578701 294.745979 
L 214.478286 295.901822 
L 218.371414 295.13249 
L 222.25163 296.169442 
L 226.138302 294.941408 
L 230.024975 295.238931 
L 233.898734 295.306775 
L 237.798319 294.81817 
L 241.672079 295.306775 
L 245.545838 294.801373 
L 249.426054 295.183537 
L 253.286901 295.264423 
L 257.160661 295.13249 
L 261.040877 295.357822 
L 264.90818 295.85947 
L 268.775483 296.900769 
L 272.642787 295.402523 
L 276.535915 295.306775 
L 280.409675 295.502205 
L 284.289891 294.146585 
L 288.16365 294.12544 
L 292.03741 295.068994 
L 295.924082 294.176487 
L 299.804298 294.813822 
L 303.678057 295.413216 
L 307.56473 294.567346 
L 311.47077 295.039154 
L 315.383268 294.990456 
L 319.263484 295.204681 
L 323.137243 295.59554 
L 327.011003 295.67649 
L 330.884762 295.209029 
L 334.758522 295.357822 
L 338.632282 295.455505 
L 342.506041 295.234584 
L 346.39917 296.137605 
L 350.272929 295.387725 
L 354.153145 295.922966 
L 358.026905 295.459916 
L 361.900664 297.852488 
L 365.774424 299.263502 
L 369.661096 320.817077 
L 373.534856 338.440135 
L 377.402159 342.273561 
L 381.282375 342.757819 
L 385.156135 344.30452 
L 389.023438 343.743724 
L 392.884285 345.094996 
L 396.751588 343.705719 
L 400.618892 344.478806 
L 404.486195 344.628128 
L 408.521361 344.188286 
L 412.485509 343.616421 
L 416.417375 343.730397 
L 420.446085 344.617921 
L 424.377951 344.491563 
L 428.277535 344.848236 
L 432.338527 344.820924 
L 436.328499 344.829619 
L 440.402403 344.886135 
L 444.469851 344.79484 
L 448.39526 344.781798 
L 452.37232 344.654805 
L 456.336467 344.783025 
L 460.261877 344.807882 
L 464.232481 344.401982 
L 468.177259 344.565753 
L 472.076844 344.403388 
L 475.963516 344.781798 
L 479.850188 344.820924 
L 483.730404 344.509237 
L 487.604164 344.729629 
L 491.477923 344.755713 
L 495.351683 344.751366 
L 499.225443 344.742671 
L 503.099202 344.764408 
L 506.979418 344.742671 
L 510.853178 344.738324 
L 514.726937 348.431122 
L 517.980895 362.437985 
L 520.776459 367.137832 
L 523.475178 367.031391 
L 526.173897 368.076859 
L 528.81451 367.945105 
L 531.422841 369.024346 
L 534.01826 368.820158 
L 536.613679 367.48418 
L 539.196186 362.379488 
L 541.785148 360.84808 
L 544.367655 359.52086 
L 546.950161 359.367719 
L 549.532668 359.316673 
L 552.115174 359.163532 
L 554.704137 359.418766 
L 557.286643 359.214579 
L 559.869149 359.214579 
L 562.451656 359.214579 
L 565.034162 359.163532 
L 567.623125 359.265626 
L 570.205631 359.163532 
L 572.788138 359.163532 
L 575.370644 359.163532 
L 577.953151 359.163532 
L 580.535657 359.163532 
L 583.118163 359.163532 
L 585.70067 359.214579 
L 588.289632 359.214579 
L 590.878595 359.214579 
L 593.461102 359.367719 
L 596.043608 359.163532 
L 598.626114 359.265626 
L 601.208621 359.367719 
L 603.791127 359.163532 
L 606.373634 359.163532 
L 608.95614 359.316673 
L 611.538646 359.214579 
L 614.121153 359.316673 
L 616.703659 359.214579 
L 619.286166 359.163532 
L 621.868672 359.163532 
L 624.451178 359.163532 
L 627.033685 359.163532 
L 629.616191 359.163532 
L 632.205154 359.367719 
L 634.78766 359.265626 
L 637.370167 359.214579 
L 639.952673 359.163532 
L 642.53518 359.316673 
L 645.117686 359.163532 
L 647.700192 359.163532 
L 650.282699 359.163532 
L 652.865205 359.214579 
L 655.447712 359.163532 
L 658.030218 359.163532 
L 660.612724 359.469813 
L 663.208143 359.265626 
L 665.79065 359.163532 
L 668.373156 359.163532 
L 670.955663 359.163532 
L 673.538169 359.163532 
L 676.120675 359.163532 
L 678.703182 359.163532 
L 678.703182 359.163532 
L 678.703182 359.163532 
L 676.120675 359.163532 
L 673.538169 359.163532 
L 670.955663 359.163532 
L 668.373156 359.163532 
L 665.79065 359.163532 
L 663.208143 358.568485 
L 660.612724 357.378392 
L 658.030218 359.163532 
L 655.447712 359.163532 
L 652.865205 358.866008 
L 650.282699 359.163532 
L 647.700192 359.163532 
L 645.117686 359.163532 
L 642.53518 358.270962 
L 639.952673 359.163532 
L 637.370167 358.866008 
L 634.78766 358.568485 
L 632.205154 357.973439 
L 629.616191 359.163532 
L 627.033685 359.163532 
L 624.451178 359.163532 
L 621.868672 359.163532 
L 619.286166 359.163532 
L 616.703659 358.866008 
L 614.121153 358.270962 
L 611.538646 358.866008 
L 608.95614 358.270962 
L 606.373634 359.163532 
L 603.791127 359.163532 
L 601.208621 357.973439 
L 598.626114 358.568485 
L 596.043608 359.163532 
L 593.461102 357.973439 
L 590.878595 358.866008 
L 588.289632 358.866008 
L 585.70067 358.866008 
L 583.118163 359.163532 
L 580.535657 359.163532 
L 577.953151 359.163532 
L 575.370644 359.163532 
L 572.788138 359.163532 
L 570.205631 359.163532 
L 567.623125 358.568485 
L 565.034162 359.163532 
L 562.451656 358.866008 
L 559.869149 358.866008 
L 557.286643 358.866008 
L 554.704137 357.675915 
L 552.115174 359.163532 
L 549.532668 358.270962 
L 546.950161 357.973439 
L 544.367655 357.080869 
L 541.785148 349.345264 
L 539.196186 340.419566 
L 536.613679 310.66724 
L 534.01826 301.197542 
L 531.422841 300.007449 
L 528.81451 297.882497 
L 526.173897 296.518362 
L 523.475178 297.317354 
L 520.776459 296.471483 
L 517.980895 290.819324 
L 514.726937 278.206742 
L 510.853178 274.258773 
L 506.979418 274.00795 
L 503.099202 272.753831 
L 499.225443 274.00795 
L 495.351683 273.506302 
L 491.477923 273.255479 
L 487.604164 274.760421 
L 483.730404 273.009002 
L 479.850188 269.493123 
L 475.963516 271.750536 
L 472.076844 271.882469 
L 468.177259 269.748294 
L 464.232481 269.172635 
L 460.261877 270.245594 
L 456.336467 273.474643 
L 452.37232 269.905719 
L 448.39526 271.750536 
L 444.469851 270.998065 
L 440.402403 265.730767 
L 436.328499 268.991475 
L 432.338527 269.493123 
L 428.277535 269.712288 
L 424.377951 268.590102 
L 420.446085 266.738409 
L 416.417375 269.104792 
L 412.485509 270.697626 
L 408.521361 266.182139 
L 404.486195 273.383064 
L 400.618892 274.764768 
L 396.751588 273.319568 
L 392.884285 275.380959 
L 389.023438 273.774515 
L 385.156135 274.939053 
L 381.282375 272.78861 
L 377.402159 271.79401 
L 373.534856 268.726098 
L 369.661096 251.103039 
L 365.774424 227.551443 
L 361.900664 226.74417 
L 358.026905 224.700168 
L 354.153145 226.208929 
L 350.272929 224.279407 
L 346.39917 225.501337 
L 342.506041 225.171976 
L 338.632282 226.183437 
L 334.758522 225.295215 
L 330.884762 225.936961 
L 327.011003 225.962452 
L 323.137243 227.275784 
L 319.263484 226.187784 
L 315.383268 223.937246 
L 311.47077 224.627977 
L 307.56473 224.853309 
L 303.678057 224.746868 
L 299.804298 225.099785 
L 295.924082 223.76531 
L 292.03741 224.844614 
L 288.16365 224.062833 
L 284.289891 224.781118 
L 280.409675 226.136737 
L 276.535915 225.592738 
L 272.642787 224.511085 
L 268.775483 225.724078 
L 264.90818 225.28652 
L 261.040877 225.295215 
L 257.160661 225.767023 
L 253.286901 225.388614 
L 249.426054 225.4695 
L 245.545838 223.879853 
L 241.672079 225.592738 
L 237.798319 224.848961 
L 233.898734 225.592738 
L 230.024975 224.921153 
L 226.138302 224.9722 
L 222.25163 226.455405 
L 218.371414 225.767023 
L 214.478286 225.490644 
L 210.578701 224.4282 
L 206.679117 224.407056 
L 202.792445 225.839214 
L 198.918685 225.337567 
L 195.038469 225.167629 
L 191.125972 223.843847 
L 187.245756 224.870106 
L 183.371996 225.337567 
L 179.472412 224.551438 
L 175.592196 224.674676 
L 171.705524 225.150832 
L 167.812395 225.031349 
L 163.945092 224.066588 
L 160.039051 223.960739 
L 156.158835 223.73106 
L 152.272163 223.32481 
L 148.346753 222.772708 
L 144.37615 221.59313 
L 140.431371 223.688178 
L 136.512418 221.450682 
L 132.528901 218.776855 
L 128.448541 215.82808 
L 124.381094 204.639592 
L 120.119958 196.165626 
L 115.342321 163.265571 
L 110.061096 136.279346 
L 104.457057 127.813066 
L 98.633505 109.601437 
L 92.79704 99.788215 
L 86.921838 92.284055 
L 80.923967 90.751659 
L 74.932552 81.653852 
L 68.766818 77.610869 
z
" clip-path="url(#p186c076cdc)" style="fill: #1f77b4; fill-opacity: 0.2"/>
   </g>
   <g id="FillBetweenPolyCollection_2">
    <path d="M 69.031525 28.038182 
L 69.031525 238.990698 
L 75.526529 236.161293 
L 82.040901 249.207888 
L 88.290567 241.286586 
L 94.708095 232.961869 
L 100.75116 246.243453 
L 106.742575 240.534684 
L 112.876028 258.30487 
L 118.777055 261.852363 
L 124.561869 265.492616 
L 130.165908 264.716539 
L 135.705384 280.930042 
L 141.031804 281.549685 
L 146.429242 286.346582 
L 151.813768 289.771088 
L 157.166013 293.981392 
L 162.376219 292.562598 
L 167.599338 295.760444 
L 172.803089 294.078741 
L 177.787326 295.107061 
L 182.267975 291.057685 
L 186.451635 288.83983 
L 190.473889 287.94726 
L 194.612355 288.023016 
L 198.537765 286.067282 
L 202.443806 286.283856 
L 206.427322 285.986333 
L 210.326907 286.73452 
L 214.220035 285.731098 
L 218.203552 286.836614 
L 222.116049 285.37377 
L 226.02209 286.275098 
L 229.921674 286.181762 
L 233.827715 285.824434 
L 237.720844 286.028621 
L 241.620428 285.620246 
L 245.507101 286.028621 
L 249.38086 285.875481 
L 253.267532 286.028621 
L 257.160661 285.884239 
L 261.060245 285.875481 
L 264.934005 285.926528 
L 268.820677 285.72234 
L 272.700893 285.671293 
L 276.587565 285.271676 
L 280.461325 285.875481 
L 284.341541 286.07091 
L 288.2153 285.37377 
L 292.08906 286.41948 
L 296.008013 286.283856 
L 299.933423 286.288203 
L 303.852377 285.52691 
L 307.732592 285.72234 
L 311.632177 285.475864 
L 315.512393 285.671293 
L 319.379696 286.07091 
L 323.272825 285.322723 
L 327.146584 285.968816 
L 331.013888 285.72234 
L 334.913472 285.52691 
L 338.787232 285.322723 
L 342.660992 286.38595 
L 346.515382 288.044943 
L 350.414967 286.38595 
L 354.28227 286.121957 
L 358.15603 285.52691 
L 362.02979 285.322723 
L 365.903549 285.37377 
L 369.790221 285.577957 
L 373.670437 285.620246 
L 377.537741 285.37377 
L 381.417957 286.019863 
L 385.291716 285.271676 
L 389.171932 285.52691 
L 393.045692 285.271676 
L 396.912995 285.72234 
L 400.786755 286.262712 
L 404.654058 285.680051 
L 408.527818 286.266339 
L 412.41449 287.078679 
L 416.301162 288.001935 
L 420.19429 286.292614 
L 424.06805 286.623668 
L 427.948266 286.850503 
L 431.822025 285.901755 
L 435.695785 286.211665 
L 439.569545 286.539091 
L 443.378742 292.434098 
L 446.826388 318.407547 
L 449.880201 329.857813 
L 452.695133 338.069574 
L 455.361571 342.906485 
L 457.976359 343.459179 
L 460.616972 349.871382 
L 463.225303 362.533076 
L 465.814266 367.135337 
L 468.416141 367.626437 
L 470.998648 369.471382 
L 473.581154 369.188657 
L 476.170117 372.801818 
L 478.752623 369.523149 
L 481.33513 370.279375 
L 483.924092 368.658796 
L 486.506599 368.284734 
L 489.089105 369.033104 
L 491.671611 369.117498 
L 494.254118 369.207389 
L 496.836624 368.387011 
L 499.419131 368.756725 
L 502.008093 369.423963 
L 504.597056 368.786628 
L 507.179562 368.982057 
L 509.768525 369.12644 
L 512.357488 369.249678 
L 514.939994 367.382086 
L 517.528957 362.124253 
L 520.111463 360.235517 
L 522.69397 359.674001 
L 525.289389 360.304081 
L 527.878351 359.674001 
L 530.518964 360.133423 
L 533.269333 361.001221 
L 535.987421 360.133423 
L 538.608665 359.827142 
L 541.223453 359.469813 
L 543.812416 359.265626 
L 546.407835 359.316673 
L 548.990341 359.265626 
L 551.572848 359.163532 
L 554.16181 359.214579 
L 556.744317 359.418766 
L 559.326823 359.163532 
L 561.909329 359.214579 
L 564.498292 359.265626 
L 567.100167 359.265626 
L 569.68913 359.214579 
L 572.278093 359.163532 
L 574.860599 359.214579 
L 577.449562 359.418766 
L 580.038524 359.776095 
L 582.627487 359.265626 
L 585.21645 359.674001 
L 587.811869 359.265626 
L 590.400831 359.316673 
L 593.015619 359.316673 
L 595.598126 359.214579 
L 598.187088 360.18447 
L 600.769595 359.776095 
L 603.352101 360.337611 
L 606.070189 360.295322 
L 608.781821 361.550351 
L 611.80981 362.511484 
L 614.702217 360.754745 
L 617.420305 360.061232 
L 620.112568 359.980282 
L 622.740268 359.827142 
L 625.471268 360.673795 
L 628.241007 360.031329 
L 630.881619 359.674001 
L 633.496407 359.367719 
L 636.104739 359.469813 
L 638.706614 359.265626 
L 641.295576 359.367719 
L 643.878083 359.214579 
L 646.492871 359.448669 
L 649.094746 359.316673 
L 651.683709 359.418766 
L 654.29204 359.163532 
L 656.874546 359.163532 
L 659.457053 359.367719 
L 662.084753 359.469813 
L 664.680172 359.214579 
L 667.262678 359.316673 
L 669.890379 359.418766 
L 672.479341 359.367719 
L 675.068304 359.214579 
L 677.65081 359.316673 
L 677.65081 358.270962 
L 677.65081 358.270962 
L 675.068304 358.866008 
L 672.479341 357.973439 
L 669.890379 357.675915 
L 667.262678 358.270962 
L 664.680172 358.866008 
L 662.084753 357.378392 
L 659.457053 357.973439 
L 656.874546 359.163532 
L 654.29204 359.163532 
L 651.683709 357.675915 
L 649.094746 358.270962 
L 646.492871 356.660107 
L 643.878083 358.866008 
L 641.295576 357.973439 
L 638.706614 358.568485 
L 636.104739 357.378392 
L 633.496407 357.973439 
L 630.881619 356.188299 
L 628.241007 354.105636 
L 625.471268 349.519549 
L 622.740268 355.295729 
L 620.112568 354.40316 
L 617.420305 353.089828 
L 614.702217 348.206218 
L 611.80981 338.808712 
L 608.781821 342.727561 
L 606.070189 350.883927 
L 603.352101 352.320497 
L 600.769595 355.593253 
L 598.187088 353.213066 
L 595.598126 358.866008 
L 593.015619 358.270962 
L 590.400831 358.270962 
L 587.811869 358.568485 
L 585.21645 356.188299 
L 582.627487 358.568485 
L 580.038524 355.593253 
L 577.449562 357.675915 
L 574.860599 358.866008 
L 572.278093 359.163532 
L 569.68913 358.866008 
L 567.100167 358.568485 
L 564.498292 358.568485 
L 561.909329 358.866008 
L 559.326823 359.163532 
L 556.744317 357.675915 
L 554.16181 358.866008 
L 551.572848 359.163532 
L 548.990341 358.568485 
L 546.407835 358.270962 
L 543.812416 358.568485 
L 541.223453 357.378392 
L 538.608665 355.295729 
L 535.987421 353.51059 
L 533.269333 348.452694 
L 530.518964 353.51059 
L 527.878351 356.188299 
L 525.289389 349.149835 
L 522.69397 356.188299 
L 520.111463 352.915543 
L 517.528957 341.907182 
L 514.939994 311.262286 
L 512.357488 299.535641 
L 509.768525 299.412402 
L 507.179562 298.57088 
L 504.597056 298.02688 
L 502.008093 299.361356 
L 499.419131 299.042688 
L 496.836624 298.672973 
L 494.254118 298.099071 
L 491.671611 297.449533 
L 489.089105 298.273356 
L 486.506599 295.571058 
L 483.924092 295.689949 
L 481.33513 291.851083 
L 478.752623 290.142545 
L 476.170117 277.990727 
L 473.581154 295.160087 
L 470.998648 294.877362 
L 468.416141 297.21526 
L 465.814266 294.99512 
L 463.225303 292.94252 
L 460.616972 281.203056 
L 457.976359 274.305536 
L 455.361571 274.611754 
L 452.695133 275.258568 
L 449.880201 277.061943 
L 446.826388 278.160203 
L 443.378742 279.97897 
L 439.569545 279.219117 
L 435.695785 280.285972 
L 431.822025 277.884641 
L 427.948266 271.513414 
L 424.06805 282.092256 
L 420.19429 278.97264 
L 416.301162 274.059127 
L 412.41449 280.897815 
L 408.527818 284.174918 
L 404.654058 282.54292 
L 400.786755 279.988448 
L 396.912995 283.979489 
L 393.045692 284.923106 
L 389.171932 283.435489 
L 385.291716 284.923106 
L 381.417957 283.928442 
L 377.537741 284.328059 
L 373.670437 284.574535 
L 369.790221 283.137966 
L 365.903549 284.328059 
L 362.02979 284.625582 
L 358.15603 283.435489 
L 354.28227 283.333396 
L 350.414967 280.111687 
L 346.515382 271.058403 
L 342.660992 280.111687 
L 338.787232 284.625582 
L 334.913472 283.435489 
L 331.013888 283.979489 
L 327.146584 284.225965 
L 323.272825 284.625582 
L 319.379696 283.630919 
L 315.512393 284.277012 
L 311.632177 283.733013 
L 307.732592 283.979489 
L 303.852377 283.435489 
L 299.933423 280.455909 
L 296.008013 280.706733 
L 292.08906 283.282349 
L 288.2153 284.328059 
L 284.341541 283.630919 
L 280.461325 283.086919 
L 276.587565 284.923106 
L 272.700893 284.277012 
L 268.820677 283.979489 
L 264.934005 282.789396 
L 261.060245 283.086919 
L 257.160661 281.352826 
L 253.267532 282.194349 
L 249.38086 283.086919 
L 245.507101 282.194349 
L 241.620428 284.574535 
L 237.720844 282.194349 
L 233.827715 283.384442 
L 229.921674 281.30178 
L 226.02209 282.440826 
L 222.116049 284.328059 
L 218.203552 279.16807 
L 214.220035 282.245396 
L 210.326907 279.763116 
L 206.427322 280.75778 
L 202.443806 280.706733 
L 198.537765 279.444449 
L 194.612355 276.009857 
L 190.473889 270.170181 
L 186.451635 270.01704 
L 182.267975 260.158419 
L 177.787326 240.08808 
L 172.803089 224.109532 
L 167.599338 220.456018 
L 162.376219 217.738433 
L 157.166013 212.376017 
L 151.813768 201.058311 
L 146.429242 196.102622 
L 141.031804 191.533417 
L 135.705384 187.716486 
L 130.165908 169.916254 
L 124.561869 151.147404 
L 118.777055 126.93583 
L 112.876028 92.27949 
L 106.742575 81.211944 
L 100.75116 66.137074 
L 94.708095 46.390828 
L 88.290567 41.763256 
L 82.040901 40.003863 
L 75.526529 37.522449 
L 69.031525 28.038182 
z
" clip-path="url(#p186c076cdc)" style="fill: #ff7f0e; fill-opacity: 0.2"/>
   </g>
   <g id="matplotlib.axis_1">
    <g id="xtick_1">
     <g id="line2d_1">
      <path d="M 65.848586 390.04 
L 65.848586 10.8 
" clip-path="url(#p186c076cdc)" style="fill: none; stroke: #b0b0b0; stroke-width: 0.8; stroke-linecap: square"/>
     </g>
     <g id="line2d_2">
      <defs>
       <path id="m378c12bf76" d="M 0 0 
L 0 3.5 
" style="stroke: #000000; stroke-width: 0.8"/>
      </defs>
      <g>
       <use xlink:href="#m378c12bf76" x="65.848586" y="390.04" style="stroke: #000000; stroke-width: 0.8"/>
      </g>
     </g>
     <g id="text_1">
      <!-- 0 -->
      <g transform="translate(62.667336 404.638438) scale(0.1 -0.1)">
       <defs>
        <path id="DejaVuSans-30" d="M 2034 4250 
Q 1547 4250 1301 3770 
Q 1056 3291 1056 2328 
Q 1056 1369 1301 889 
Q 1547 409 2034 409 
Q 2525 409 2770 889 
Q 3016 1369 3016 2328 
Q 3016 3291 2770 3770 
Q 2525 4250 2034 4250 
z
M 2034 4750 
Q 2819 4750 3233 4129 
Q 3647 3509 3647 2328 
Q 3647 1150 3233 529 
Q 2819 -91 2034 -91 
Q 1250 -91 836 529 
Q 422 1150 422 2328 
Q 422 3509 836 4129 
Q 1250 4750 2034 4750 
z
" transform="scale(0.015625)"/>
       </defs>
       <use xlink:href="#DejaVuSans-30"/>
      </g>
     </g>
    </g>
    <g id="xtick_2">
     <g id="line2d_3">
      <path d="M 194.973906 390.04 
L 194.973906 10.8 
" clip-path="url(#p186c076cdc)" style="fill: none; stroke: #b0b0b0; stroke-width: 0.8; stroke-linecap: square"/>
     </g>
     <g id="line2d_4">
      <g>
       <use xlink:href="#m378c12bf76" x="194.973906" y="390.04" style="stroke: #000000; stroke-width: 0.8"/>
      </g>
     </g>
     <g id="text_2">
      <!-- 20000 -->
      <g transform="translate(179.067656 404.638438) scale(0.1 -0.1)">
       <defs>
        <path id="DejaVuSans-32" d="M 1228 531 
L 3431 531 
L 3431 0 
L 469 0 
L 469 531 
Q 828 903 1448 1529 
Q 2069 2156 2228 2338 
Q 2531 2678 2651 2914 
Q 2772 3150 2772 3378 
Q 2772 3750 2511 3984 
Q 2250 4219 1831 4219 
Q 1534 4219 1204 4116 
Q 875 4013 500 3803 
L 500 4441 
Q 881 4594 1212 4672 
Q 1544 4750 1819 4750 
Q 2544 4750 2975 4387 
Q 3406 4025 3406 3419 
Q 3406 3131 3298 2873 
Q 3191 2616 2906 2266 
Q 2828 2175 2409 1742 
Q 1991 1309 1228 531 
z
" transform="scale(0.015625)"/>
       </defs>
       <use xlink:href="#DejaVuSans-32"/>
       <use xlink:href="#DejaVuSans-30" transform="translate(63.623047 0)"/>
       <use xlink:href="#DejaVuSans-30" transform="translate(127.246094 0)"/>
       <use xlink:href="#DejaVuSans-30" transform="translate(190.869141 0)"/>
       <use xlink:href="#DejaVuSans-30" transform="translate(254.492188 0)"/>
      </g>
     </g>
    </g>
    <g id="xtick_3">
     <g id="line2d_5">
      <path d="M 324.099227 390.04 
L 324.099227 10.8 
" clip-path="url(#p186c076cdc)" style="fill: none; stroke: #b0b0b0; stroke-width: 0.8; stroke-linecap: square"/>
     </g>
     <g id="line2d_6">
      <g>
       <use xlink:href="#m378c12bf76" x="324.099227" y="390.04" style="stroke: #000000; stroke-width: 0.8"/>
      </g>
     </g>
     <g id="text_3">
      <!-- 40000 -->
      <g transform="translate(308.192977 404.638438) scale(0.1 -0.1)">
       <defs>
        <path id="DejaVuSans-34" d="M 2419 4116 
L 825 1625 
L 2419 1625 
L 2419 4116 
z
M 2253 4666 
L 3047 4666 
L 3047 1625 
L 3713 1625 
L 3713 1100 
L 3047 1100 
L 3047 0 
L 2419 0 
L 2419 1100 
L 313 1100 
L 313 1709 
L 2253 4666 
z
" transform="scale(0.015625)"/>
       </defs>
       <use xlink:href="#DejaVuSans-34"/>
       <use xlink:href="#DejaVuSans-30" transform="translate(63.623047 0)"/>
       <use xlink:href="#DejaVuSans-30" transform="translate(127.246094 0)"/>
       <use xlink:href="#DejaVuSans-30" transform="translate(190.869141 0)"/>
       <use xlink:href="#DejaVuSans-30" transform="translate(254.492188 0)"/>
      </g>
     </g>
    </g>
    <g id="xtick_4">
     <g id="line2d_7">
      <path d="M 453.224547 390.04 
L 453.224547 10.8 
" clip-path="url(#p186c076cdc)" style="fill: none; stroke: #b0b0b0; stroke-width: 0.8; stroke-linecap: square"/>
     </g>
     <g id="line2d_8">
      <g>
       <use xlink:href="#m378c12bf76" x="453.224547" y="390.04" style="stroke: #000000; stroke-width: 0.8"/>
      </g>
     </g>
     <g id="text_4">
      <!-- 60000 -->
      <g transform="translate(437.318297 404.638438) scale(0.1 -0.1)">
       <defs>
        <path id="DejaVuSans-36" d="M 2113 2584 
Q 1688 2584 1439 2293 
Q 1191 2003 1191 1497 
Q 1191 994 1439 701 
Q 1688 409 2113 409 
Q 2538 409 2786 701 
Q 3034 994 3034 1497 
Q 3034 2003 2786 2293 
Q 2538 2584 2113 2584 
z
M 3366 4563 
L 3366 3988 
Q 3128 4100 2886 4159 
Q 2644 4219 2406 4219 
Q 1781 4219 1451 3797 
Q 1122 3375 1075 2522 
Q 1259 2794 1537 2939 
Q 1816 3084 2150 3084 
Q 2853 3084 3261 2657 
Q 3669 2231 3669 1497 
Q 3669 778 3244 343 
Q 2819 -91 2113 -91 
Q 1303 -91 875 529 
Q 447 1150 447 2328 
Q 447 3434 972 4092 
Q 1497 4750 2381 4750 
Q 2619 4750 2861 4703 
Q 3103 4656 3366 4563 
z
" transform="scale(0.015625)"/>
       </defs>
       <use xlink:href="#DejaVuSans-36"/>
       <use xlink:href="#DejaVuSans-30" transform="translate(63.623047 0)"/>
       <use xlink:href="#DejaVuSans-30" transform="translate(127.246094 0)"/>
       <use xlink:href="#DejaVuSans-30" transform="translate(190.869141 0)"/>
       <use xlink:href="#DejaVuSans-30" transform="translate(254.492188 0)"/>
      </g>
     </g>
    </g>
    <g id="xtick_5">
     <g id="line2d_9">
      <path d="M 582.349868 390.04 
L 582.349868 10.8 
" clip-path="url(#p186c076cdc)" style="fill: none; stroke: #b0b0b0; stroke-width: 0.8; stroke-linecap: square"/>
     </g>
     <g id="line2d_10">
      <g>
       <use xlink:href="#m378c12bf76" x="582.349868" y="390.04" style="stroke: #000000; stroke-width: 0.8"/>
      </g>
     </g>
     <g id="text_5">
      <!-- 80000 -->
      <g transform="translate(566.443618 404.638438) scale(0.1 -0.1)">
       <defs>
        <path id="DejaVuSans-38" d="M 2034 2216 
Q 1584 2216 1326 1975 
Q 1069 1734 1069 1313 
Q 1069 891 1326 650 
Q 1584 409 2034 409 
Q 2484 409 2743 651 
Q 3003 894 3003 1313 
Q 3003 1734 2745 1975 
Q 2488 2216 2034 2216 
z
M 1403 2484 
Q 997 2584 770 2862 
Q 544 3141 544 3541 
Q 544 4100 942 4425 
Q 1341 4750 2034 4750 
Q 2731 4750 3128 4425 
Q 3525 4100 3525 3541 
Q 3525 3141 3298 2862 
Q 3072 2584 2669 2484 
Q 3125 2378 3379 2068 
Q 3634 1759 3634 1313 
Q 3634 634 3220 271 
Q 2806 -91 2034 -91 
Q 1263 -91 848 271 
Q 434 634 434 1313 
Q 434 1759 690 2068 
Q 947 2378 1403 2484 
z
M 1172 3481 
Q 1172 3119 1398 2916 
Q 1625 2713 2034 2713 
Q 2441 2713 2670 2916 
Q 2900 3119 2900 3481 
Q 2900 3844 2670 4047 
Q 2441 4250 2034 4250 
Q 1625 4250 1398 4047 
Q 1172 3844 1172 3481 
z
" transform="scale(0.015625)"/>
       </defs>
       <use xlink:href="#DejaVuSans-38"/>
       <use xlink:href="#DejaVuSans-30" transform="translate(63.623047 0)"/>
       <use xlink:href="#DejaVuSans-30" transform="translate(127.246094 0)"/>
       <use xlink:href="#DejaVuSans-30" transform="translate(190.869141 0)"/>
       <use xlink:href="#DejaVuSans-30" transform="translate(254.492188 0)"/>
      </g>
     </g>
    </g>
    <g id="text_6">
     <!-- Steps -->
     <g transform="translate(359.745156 418.316562) scale(0.1 -0.1)">
      <defs>
       <path id="DejaVuSans-53" d="M 3425 4513 
L 3425 3897 
Q 3066 4069 2747 4153 
Q 2428 4238 2131 4238 
Q 1616 4238 1336 4038 
Q 1056 3838 1056 3469 
Q 1056 3159 1242 3001 
Q 1428 2844 1947 2747 
L 2328 2669 
Q 3034 2534 3370 2195 
Q 3706 1856 3706 1288 
Q 3706 609 3251 259 
Q 2797 -91 1919 -91 
Q 1588 -91 1214 -16 
Q 841 59 441 206 
L 441 856 
Q 825 641 1194 531 
Q 1563 422 1919 422 
Q 2459 422 2753 634 
Q 3047 847 3047 1241 
Q 3047 1584 2836 1778 
Q 2625 1972 2144 2069 
L 1759 2144 
Q 1053 2284 737 2584 
Q 422 2884 422 3419 
Q 422 4038 858 4394 
Q 1294 4750 2059 4750 
Q 2388 4750 2728 4690 
Q 3069 4631 3425 4513 
z
" transform="scale(0.015625)"/>
       <path id="DejaVuSans-74" d="M 1172 4494 
L 1172 3500 
L 2356 3500 
L 2356 3053 
L 1172 3053 
L 1172 1153 
Q 1172 725 1289 603 
Q 1406 481 1766 481 
L 2356 481 
L 2356 0 
L 1766 0 
Q 1100 0 847 248 
Q 594 497 594 1153 
L 594 3053 
L 172 3053 
L 172 3500 
L 594 3500 
L 594 4494 
L 1172 4494 
z
" transform="scale(0.015625)"/>
       <path id="DejaVuSans-65" d="M 3597 1894 
L 3597 1613 
L 953 1613 
Q 991 1019 1311 708 
Q 1631 397 2203 397 
Q 2534 397 2845 478 
Q 3156 559 3463 722 
L 3463 178 
Q 3153 47 2828 -22 
Q 2503 -91 2169 -91 
Q 1331 -91 842 396 
Q 353 884 353 1716 
Q 353 2575 817 3079 
Q 1281 3584 2069 3584 
Q 2775 3584 3186 3129 
Q 3597 2675 3597 1894 
z
M 3022 2063 
Q 3016 2534 2758 2815 
Q 2500 3097 2075 3097 
Q 1594 3097 1305 2825 
Q 1016 2553 972 2059 
L 3022 2063 
z
" transform="scale(0.015625)"/>
       <path id="DejaVuSans-70" d="M 1159 525 
L 1159 -1331 
L 581 -1331 
L 581 3500 
L 1159 3500 
L 1159 2969 
Q 1341 3281 1617 3432 
Q 1894 3584 2278 3584 
Q 2916 3584 3314 3078 
Q 3713 2572 3713 1747 
Q 3713 922 3314 415 
Q 2916 -91 2278 -91 
Q 1894 -91 1617 61 
Q 1341 213 1159 525 
z
M 3116 1747 
Q 3116 2381 2855 2742 
Q 2594 3103 2138 3103 
Q 1681 3103 1420 2742 
Q 1159 2381 1159 1747 
Q 1159 1113 1420 752 
Q 1681 391 2138 391 
Q 2594 391 2855 752 
Q 3116 1113 3116 1747 
z
" transform="scale(0.015625)"/>
       <path id="DejaVuSans-73" d="M 2834 3397 
L 2834 2853 
Q 2591 2978 2328 3040 
Q 2066 3103 1784 3103 
Q 1356 3103 1142 2972 
Q 928 2841 928 2578 
Q 928 2378 1081 2264 
Q 1234 2150 1697 2047 
L 1894 2003 
Q 2506 1872 2764 1633 
Q 3022 1394 3022 966 
Q 3022 478 2636 193 
Q 2250 -91 1575 -91 
Q 1294 -91 989 -36 
Q 684 19 347 128 
L 347 722 
Q 666 556 975 473 
Q 1284 391 1588 391 
Q 1994 391 2212 530 
Q 2431 669 2431 922 
Q 2431 1156 2273 1281 
Q 2116 1406 1581 1522 
L 1381 1569 
Q 847 1681 609 1914 
Q 372 2147 372 2553 
Q 372 3047 722 3315 
Q 1072 3584 1716 3584 
Q 2034 3584 2315 3537 
Q 2597 3491 2834 3397 
z
" transform="scale(0.015625)"/>
      </defs>
      <use xlink:href="#DejaVuSans-53"/>
      <use xlink:href="#DejaVuSans-74" transform="translate(63.476562 0)"/>
      <use xlink:href="#DejaVuSans-65" transform="translate(102.685547 0)"/>
      <use xlink:href="#DejaVuSans-70" transform="translate(164.208984 0)"/>
      <use xlink:href="#DejaVuSans-73" transform="translate(227.685547 0)"/>
     </g>
    </g>
   </g>
   <g id="matplotlib.axis_2">
    <g id="ytick_1">
     <g id="line2d_11">
      <path d="M 38.27 359.163532 
L 709.2 359.163532 
" clip-path="url(#p186c076cdc)" style="fill: none; stroke: #b0b0b0; stroke-width: 0.8; stroke-linecap: square"/>
     </g>
     <g id="line2d_12">
      <defs>
       <path id="m9b7e6138d9" d="M 0 0 
L -3.5 0 
" style="stroke: #000000; stroke-width: 0.8"/>
      </defs>
      <g>
       <use xlink:href="#m9b7e6138d9" x="38.27" y="359.163532" style="stroke: #000000; stroke-width: 0.8"/>
      </g>
     </g>
     <g id="text_7">
      <!-- 2 -->
      <g transform="translate(24.9075 362.96275) scale(0.1 -0.1)">
       <use xlink:href="#DejaVuSans-32"/>
      </g>
     </g>
    </g>
    <g id="ytick_2">
     <g id="line2d_13">
      <path d="M 38.27 285.220629 
L 709.2 285.220629 
" clip-path="url(#p186c076cdc)" style="fill: none; stroke: #b0b0b0; stroke-width: 0.8; stroke-linecap: square"/>
     </g>
     <g id="line2d_14">
      <g>
       <use xlink:href="#m9b7e6138d9" x="38.27" y="285.220629" style="stroke: #000000; stroke-width: 0.8"/>
      </g>
     </g>
     <g id="text_8">
      <!-- 3 -->
      <g transform="translate(24.9075 289.019848) scale(0.1 -0.1)">
       <defs>
        <path id="DejaVuSans-33" d="M 2597 2516 
Q 3050 2419 3304 2112 
Q 3559 1806 3559 1356 
Q 3559 666 3084 287 
Q 2609 -91 1734 -91 
Q 1441 -91 1130 -33 
Q 819 25 488 141 
L 488 750 
Q 750 597 1062 519 
Q 1375 441 1716 441 
Q 2309 441 2620 675 
Q 2931 909 2931 1356 
Q 2931 1769 2642 2001 
Q 2353 2234 1838 2234 
L 1294 2234 
L 1294 2753 
L 1863 2753 
Q 2328 2753 2575 2939 
Q 2822 3125 2822 3475 
Q 2822 3834 2567 4026 
Q 2313 4219 1838 4219 
Q 1578 4219 1281 4162 
Q 984 4106 628 3988 
L 628 4550 
Q 988 4650 1302 4700 
Q 1616 4750 1894 4750 
Q 2613 4750 3031 4423 
Q 3450 4097 3450 3541 
Q 3450 3153 3228 2886 
Q 3006 2619 2597 2516 
z
" transform="scale(0.015625)"/>
       </defs>
       <use xlink:href="#DejaVuSans-33"/>
      </g>
     </g>
    </g>
    <g id="ytick_3">
     <g id="line2d_15">
      <path d="M 38.27 211.277726 
L 709.2 211.277726 
" clip-path="url(#p186c076cdc)" style="fill: none; stroke: #b0b0b0; stroke-width: 0.8; stroke-linecap: square"/>
     </g>
     <g id="line2d_16">
      <g>
       <use xlink:href="#m9b7e6138d9" x="38.27" y="211.277726" style="stroke: #000000; stroke-width: 0.8"/>
      </g>
     </g>
     <g id="text_9">
      <!-- 4 -->
      <g transform="translate(24.9075 215.076945) scale(0.1 -0.1)">
       <use xlink:href="#DejaVuSans-34"/>
      </g>
     </g>
    </g>
    <g id="ytick_4">
     <g id="line2d_17">
      <path d="M 38.27 137.334823 
L 709.2 137.334823 
" clip-path="url(#p186c076cdc)" style="fill: none; stroke: #b0b0b0; stroke-width: 0.8; stroke-linecap: square"/>
     </g>
     <g id="line2d_18">
      <g>
       <use xlink:href="#m9b7e6138d9" x="38.27" y="137.334823" style="stroke: #000000; stroke-width: 0.8"/>
      </g>
     </g>
     <g id="text_10">
      <!-- 5 -->
      <g transform="translate(24.9075 141.134042) scale(0.1 -0.1)">
       <defs>
        <path id="DejaVuSans-35" d="M 691 4666 
L 3169 4666 
L 3169 4134 
L 1269 4134 
L 1269 2991 
Q 1406 3038 1543 3061 
Q 1681 3084 1819 3084 
Q 2600 3084 3056 2656 
Q 3513 2228 3513 1497 
Q 3513 744 3044 326 
Q 2575 -91 1722 -91 
Q 1428 -91 1123 -41 
Q 819 9 494 109 
L 494 744 
Q 775 591 1075 516 
Q 1375 441 1709 441 
Q 2250 441 2565 725 
Q 2881 1009 2881 1497 
Q 2881 1984 2565 2268 
Q 2250 2553 1709 2553 
Q 1456 2553 1204 2497 
Q 953 2441 691 2322 
L 691 4666 
z
" transform="scale(0.015625)"/>
       </defs>
       <use xlink:href="#DejaVuSans-35"/>
      </g>
     </g>
    </g>
    <g id="ytick_5">
     <g id="line2d_19">
      <path d="M 38.27 63.39192 
L 709.2 63.39192 
" clip-path="url(#p186c076cdc)" style="fill: none; stroke: #b0b0b0; stroke-width: 0.8; stroke-linecap: square"/>
     </g>
     <g id="line2d_20">
      <g>
       <use xlink:href="#m9b7e6138d9" x="38.27" y="63.39192" style="stroke: #000000; stroke-width: 0.8"/>
      </g>
     </g>
     <g id="text_11">
      <!-- 6 -->
      <g transform="translate(24.9075 67.191139) scale(0.1 -0.1)">
       <use xlink:href="#DejaVuSans-36"/>
      </g>
     </g>
    </g>
    <g id="text_12">
     <!-- Quantum Gates -->
     <g transform="translate(18.827813 239.925469) rotate(-90) scale(0.1 -0.1)">
      <defs>
       <path id="DejaVuSans-51" d="M 2522 4238 
Q 1834 4238 1429 3725 
Q 1025 3213 1025 2328 
Q 1025 1447 1429 934 
Q 1834 422 2522 422 
Q 3209 422 3611 934 
Q 4013 1447 4013 2328 
Q 4013 3213 3611 3725 
Q 3209 4238 2522 4238 
z
M 3406 84 
L 4238 -825 
L 3475 -825 
L 2784 -78 
Q 2681 -84 2626 -87 
Q 2572 -91 2522 -91 
Q 1538 -91 948 567 
Q 359 1225 359 2328 
Q 359 3434 948 4092 
Q 1538 4750 2522 4750 
Q 3503 4750 4090 4092 
Q 4678 3434 4678 2328 
Q 4678 1516 4351 937 
Q 4025 359 3406 84 
z
" transform="scale(0.015625)"/>
       <path id="DejaVuSans-75" d="M 544 1381 
L 544 3500 
L 1119 3500 
L 1119 1403 
Q 1119 906 1312 657 
Q 1506 409 1894 409 
Q 2359 409 2629 706 
Q 2900 1003 2900 1516 
L 2900 3500 
L 3475 3500 
L 3475 0 
L 2900 0 
L 2900 538 
Q 2691 219 2414 64 
Q 2138 -91 1772 -91 
Q 1169 -91 856 284 
Q 544 659 544 1381 
z
M 1991 3584 
L 1991 3584 
z
" transform="scale(0.015625)"/>
       <path id="DejaVuSans-61" d="M 2194 1759 
Q 1497 1759 1228 1600 
Q 959 1441 959 1056 
Q 959 750 1161 570 
Q 1363 391 1709 391 
Q 2188 391 2477 730 
Q 2766 1069 2766 1631 
L 2766 1759 
L 2194 1759 
z
M 3341 1997 
L 3341 0 
L 2766 0 
L 2766 531 
Q 2569 213 2275 61 
Q 1981 -91 1556 -91 
Q 1019 -91 701 211 
Q 384 513 384 1019 
Q 384 1609 779 1909 
Q 1175 2209 1959 2209 
L 2766 2209 
L 2766 2266 
Q 2766 2663 2505 2880 
Q 2244 3097 1772 3097 
Q 1472 3097 1187 3025 
Q 903 2953 641 2809 
L 641 3341 
Q 956 3463 1253 3523 
Q 1550 3584 1831 3584 
Q 2591 3584 2966 3190 
Q 3341 2797 3341 1997 
z
" transform="scale(0.015625)"/>
       <path id="DejaVuSans-6e" d="M 3513 2113 
L 3513 0 
L 2938 0 
L 2938 2094 
Q 2938 2591 2744 2837 
Q 2550 3084 2163 3084 
Q 1697 3084 1428 2787 
Q 1159 2491 1159 1978 
L 1159 0 
L 581 0 
L 581 3500 
L 1159 3500 
L 1159 2956 
Q 1366 3272 1645 3428 
Q 1925 3584 2291 3584 
Q 2894 3584 3203 3211 
Q 3513 2838 3513 2113 
z
" transform="scale(0.015625)"/>
       <path id="DejaVuSans-6d" d="M 3328 2828 
Q 3544 3216 3844 3400 
Q 4144 3584 4550 3584 
Q 5097 3584 5394 3201 
Q 5691 2819 5691 2113 
L 5691 0 
L 5113 0 
L 5113 2094 
Q 5113 2597 4934 2840 
Q 4756 3084 4391 3084 
Q 3944 3084 3684 2787 
Q 3425 2491 3425 1978 
L 3425 0 
L 2847 0 
L 2847 2094 
Q 2847 2600 2669 2842 
Q 2491 3084 2119 3084 
Q 1678 3084 1418 2786 
Q 1159 2488 1159 1978 
L 1159 0 
L 581 0 
L 581 3500 
L 1159 3500 
L 1159 2956 
Q 1356 3278 1631 3431 
Q 1906 3584 2284 3584 
Q 2666 3584 2933 3390 
Q 3200 3197 3328 2828 
z
" transform="scale(0.015625)"/>
       <path id="DejaVuSans-20" transform="scale(0.015625)"/>
       <path id="DejaVuSans-47" d="M 3809 666 
L 3809 1919 
L 2778 1919 
L 2778 2438 
L 4434 2438 
L 4434 434 
Q 4069 175 3628 42 
Q 3188 -91 2688 -91 
Q 1594 -91 976 548 
Q 359 1188 359 2328 
Q 359 3472 976 4111 
Q 1594 4750 2688 4750 
Q 3144 4750 3555 4637 
Q 3966 4525 4313 4306 
L 4313 3634 
Q 3963 3931 3569 4081 
Q 3175 4231 2741 4231 
Q 1884 4231 1454 3753 
Q 1025 3275 1025 2328 
Q 1025 1384 1454 906 
Q 1884 428 2741 428 
Q 3075 428 3337 486 
Q 3600 544 3809 666 
z
" transform="scale(0.015625)"/>
      </defs>
      <use xlink:href="#DejaVuSans-51"/>
      <use xlink:href="#DejaVuSans-75" transform="translate(78.710938 0)"/>
      <use xlink:href="#DejaVuSans-61" transform="translate(142.089844 0)"/>
      <use xlink:href="#DejaVuSans-6e" transform="translate(203.369141 0)"/>
      <use xlink:href="#DejaVuSans-74" transform="translate(266.748047 0)"/>
      <use xlink:href="#DejaVuSans-75" transform="translate(305.957031 0)"/>
      <use xlink:href="#DejaVuSans-6d" transform="translate(369.335938 0)"/>
      <use xlink:href="#DejaVuSans-20" transform="translate(466.748047 0)"/>
      <use xlink:href="#DejaVuSans-47" transform="translate(498.535156 0)"/>
      <use xlink:href="#DejaVuSans-61" transform="translate(576.025391 0)"/>
      <use xlink:href="#DejaVuSans-74" transform="translate(637.304688 0)"/>
      <use xlink:href="#DejaVuSans-65" transform="translate(676.513672 0)"/>
      <use xlink:href="#DejaVuSans-73" transform="translate(738.037109 0)"/>
     </g>
    </g>
   </g>
   <g id="line2d_21">
    <path d="M 68.766818 160.5036 
L 74.932552 165.802841 
L 80.923967 174.552751 
L 86.921838 172.334464 
L 92.79704 171.718273 
L 98.633505 181.454089 
L 104.457057 199.446862 
L 110.061096 207.087628 
L 115.342321 222.862114 
L 120.119958 245.661176 
L 124.381094 249.235083 
L 128.448541 254.780801 
L 132.528901 256.752611 
L 136.512418 258.231469 
L 140.431371 259.833566 
L 144.37615 257.738517 
L 148.346753 258.601184 
L 152.272163 259.710327 
L 156.158835 259.587089 
L 160.039051 259.340613 
L 167.812395 260.572995 
L 171.705524 259.833566 
L 175.592196 259.833566 
L 179.472412 259.710327 
L 183.371996 260.449756 
L 187.245756 260.20328 
L 191.125972 259.463851 
L 195.038469 260.326518 
L 198.918685 260.449756 
L 202.792445 260.696233 
L 206.679117 259.217375 
L 210.578701 259.587089 
L 214.478286 260.696233 
L 218.371414 260.449756 
L 222.25163 261.312424 
L 226.138302 259.956804 
L 230.024975 260.080042 
L 233.898734 260.449756 
L 237.798319 259.833566 
L 241.672079 260.449756 
L 245.545838 259.340613 
L 249.426054 260.326518 
L 253.286901 260.326518 
L 257.160661 260.449756 
L 261.040877 260.326518 
L 264.90818 260.572995 
L 268.775483 261.312424 
L 272.642787 259.956804 
L 276.535915 260.449756 
L 280.409675 260.819471 
L 284.289891 259.463851 
L 288.16365 259.094137 
L 292.03741 259.956804 
L 295.924082 258.970898 
L 299.804298 259.956804 
L 303.678057 260.080042 
L 307.56473 259.710327 
L 311.47077 259.833566 
L 315.383268 259.463851 
L 319.263484 260.696233 
L 323.137243 261.435662 
L 327.011003 260.819471 
L 334.758522 260.326518 
L 338.632282 260.819471 
L 342.506041 260.20328 
L 346.39917 260.819471 
L 350.272929 259.833566 
L 354.153145 261.065947 
L 358.026905 260.080042 
L 361.900664 262.298329 
L 365.774424 263.407473 
L 369.661096 285.960058 
L 373.534856 303.583116 
L 377.402159 307.033785 
L 381.282375 307.773214 
L 385.156135 309.621787 
L 389.023438 308.75912 
L 392.884285 310.237978 
L 396.751588 308.512643 
L 400.618892 309.621787 
L 404.486195 309.005596 
L 408.521361 305.185213 
L 412.485509 307.157023 
L 420.446085 305.678165 
L 424.377951 306.540833 
L 428.277535 307.280262 
L 432.338527 307.157023 
L 436.328499 306.910547 
L 440.402403 305.308451 
L 444.469851 307.896452 
L 448.39526 308.266167 
L 452.37232 307.280262 
L 456.336467 309.128834 
L 460.261877 307.526738 
L 464.232481 306.787309 
L 468.177259 307.157023 
L 472.076844 308.142929 
L 475.963516 308.266167 
L 479.850188 307.157023 
L 483.730404 308.75912 
L 487.604164 309.745025 
L 491.477923 309.005596 
L 495.351683 309.128834 
L 499.225443 309.375311 
L 503.099202 308.75912 
L 506.979418 309.375311 
L 510.853178 309.498549 
L 514.726937 313.318932 
L 517.980895 326.628655 
L 520.776459 331.804658 
L 523.475178 332.174372 
L 526.173897 332.29761 
L 528.81451 332.913801 
L 531.422841 334.515897 
L 534.01826 335.00885 
L 536.613679 339.07571 
L 539.196186 351.399527 
L 541.785148 355.096672 
L 544.367655 358.300865 
L 546.950161 358.670579 
L 549.532668 358.793817 
L 552.115174 359.163532 
L 554.704137 358.547341 
L 557.286643 359.040294 
L 562.451656 359.040294 
L 565.034162 359.163532 
L 567.623125 358.917055 
L 570.205631 359.163532 
L 583.118163 359.163532 
L 585.70067 359.040294 
L 590.878595 359.040294 
L 593.461102 358.670579 
L 596.043608 359.163532 
L 601.208621 358.670579 
L 603.791127 359.163532 
L 606.373634 359.163532 
L 608.95614 358.793817 
L 611.538646 359.040294 
L 614.121153 358.793817 
L 616.703659 359.040294 
L 619.286166 359.163532 
L 629.616191 359.163532 
L 632.205154 358.670579 
L 634.78766 358.917055 
L 639.952673 359.163532 
L 642.53518 358.793817 
L 645.117686 359.163532 
L 650.282699 359.163532 
L 652.865205 359.040294 
L 655.447712 359.163532 
L 658.030218 359.163532 
L 660.612724 358.424103 
L 663.208143 358.917055 
L 665.79065 359.163532 
L 678.703182 359.163532 
L 678.703182 359.163532 
" clip-path="url(#p186c076cdc)" style="fill: none; stroke: #1f77b4; stroke-width: 1.5; stroke-linecap: square"/>
   </g>
   <g id="line2d_22">
    <path d="M 69.031525 133.51444 
L 75.526529 136.841871 
L 82.040901 144.605875 
L 88.290567 141.524921 
L 94.708095 139.676349 
L 100.75116 156.190264 
L 106.742575 160.873314 
L 112.876028 175.29218 
L 118.777055 194.394097 
L 124.561869 208.32001 
L 130.165908 217.316397 
L 135.705384 234.323264 
L 141.031804 236.541551 
L 146.429242 241.224602 
L 151.813768 245.4147 
L 157.166013 253.178704 
L 162.376219 255.150515 
L 167.599338 258.108231 
L 172.803089 259.094137 
L 177.787326 267.59757 
L 182.267975 275.608052 
L 186.451635 279.428435 
L 190.473889 279.05872 
L 194.612355 282.016436 
L 202.443806 283.495295 
L 210.326907 283.248818 
L 214.220035 283.988247 
L 218.203552 283.002342 
L 222.116049 284.850914 
L 226.02209 284.357962 
L 229.921674 283.741771 
L 233.827715 284.604438 
L 237.720844 284.111485 
L 241.620428 285.097391 
L 245.507101 284.111485 
L 249.38086 284.4812 
L 253.267532 284.111485 
L 257.160661 283.618533 
L 261.060245 284.4812 
L 264.934005 284.357962 
L 268.820677 284.850914 
L 276.587565 285.097391 
L 280.461325 284.4812 
L 284.341541 284.850914 
L 292.08906 284.850914 
L 296.008013 283.495295 
L 299.933423 283.372056 
L 303.852377 284.4812 
L 307.732592 284.850914 
L 311.632177 284.604438 
L 315.512393 284.974153 
L 319.379696 284.850914 
L 327.146584 285.097391 
L 331.013888 284.850914 
L 334.913472 284.4812 
L 338.787232 284.974153 
L 342.660992 283.248818 
L 346.515382 279.551673 
L 350.414967 283.248818 
L 354.28227 284.727676 
L 358.15603 284.4812 
L 362.02979 284.974153 
L 365.903549 284.850914 
L 369.790221 284.357962 
L 373.670437 285.097391 
L 377.537741 284.850914 
L 385.291716 285.097391 
L 389.171932 284.4812 
L 393.045692 285.097391 
L 396.912995 284.850914 
L 400.786755 283.12558 
L 404.654058 284.111485 
L 408.527818 285.220629 
L 412.41449 283.988247 
L 416.301162 281.030531 
L 420.19429 282.632627 
L 424.06805 284.357962 
L 427.948266 279.181959 
L 431.822025 281.893198 
L 435.695785 283.248818 
L 439.569545 282.879104 
L 443.378742 286.206534 
L 446.826388 298.283875 
L 449.880201 303.459878 
L 452.695133 306.664071 
L 455.361571 308.75912 
L 457.976359 308.882358 
L 460.616972 315.537219 
L 463.225303 327.737798 
L 465.814266 331.065229 
L 468.416141 332.420849 
L 470.998648 332.174372 
L 473.581154 332.174372 
L 476.170117 325.396273 
L 478.752623 329.832847 
L 481.33513 331.065229 
L 483.924092 332.174372 
L 486.506599 331.927896 
L 489.089105 333.65323 
L 491.671611 333.283516 
L 494.254118 333.65323 
L 496.836624 333.529992 
L 499.419131 333.899707 
L 502.008093 334.392659 
L 504.597056 333.406754 
L 507.179562 333.776468 
L 509.768525 334.269421 
L 512.357488 334.392659 
L 514.939994 339.322186 
L 517.528957 352.015718 
L 520.111463 356.57553 
L 522.69397 357.93115 
L 525.289389 354.726958 
L 527.878351 357.93115 
L 530.518964 356.822006 
L 533.269333 354.726958 
L 535.987421 356.822006 
L 538.608665 357.561436 
L 541.223453 358.424103 
L 543.812416 358.917055 
L 546.407835 358.793817 
L 548.990341 358.917055 
L 551.572848 359.163532 
L 554.16181 359.040294 
L 556.744317 358.547341 
L 559.326823 359.163532 
L 564.498292 358.917055 
L 567.100167 358.917055 
L 572.278093 359.163532 
L 574.860599 359.040294 
L 577.449562 358.547341 
L 580.038524 357.684674 
L 582.627487 358.917055 
L 585.21645 357.93115 
L 587.811869 358.917055 
L 590.400831 358.793817 
L 593.015619 358.793817 
L 595.598126 359.040294 
L 598.187088 356.698768 
L 600.769595 357.684674 
L 603.352101 356.329054 
L 606.070189 355.589625 
L 608.781821 352.138956 
L 611.80981 350.660098 
L 614.702217 354.480481 
L 617.420305 356.57553 
L 620.112568 357.191721 
L 622.740268 357.561436 
L 625.471268 355.096672 
L 628.241007 357.068483 
L 633.496407 358.670579 
L 636.104739 358.424103 
L 638.706614 358.917055 
L 641.295576 358.670579 
L 643.878083 359.040294 
L 646.492871 358.054388 
L 649.094746 358.793817 
L 651.683709 358.547341 
L 654.29204 359.163532 
L 656.874546 359.163532 
L 659.457053 358.670579 
L 662.084753 358.424103 
L 664.680172 359.040294 
L 669.890379 358.547341 
L 672.479341 358.670579 
L 675.068304 359.040294 
L 677.65081 358.793817 
L 677.65081 358.793817 
" clip-path="url(#p186c076cdc)" style="fill: none; stroke: #ff7f0e; stroke-width: 1.5; stroke-linecap: square"/>
   </g>
   <g id="patch_3">
    <path d="M 38.27 390.04 
L 38.27 10.8 
" style="fill: none; stroke: #000000; stroke-width: 0.8; stroke-linejoin: miter; stroke-linecap: square"/>
   </g>
   <g id="patch_4">
    <path d="M 709.2 390.04 
L 709.2 10.8 
" style="fill: none; stroke: #000000; stroke-width: 0.8; stroke-linejoin: miter; stroke-linecap: square"/>
   </g>
   <g id="patch_5">
    <path d="M 38.27 390.04 
L 709.2 390.04 
" style="fill: none; stroke: #000000; stroke-width: 0.8; stroke-linejoin: miter; stroke-linecap: square"/>
   </g>
   <g id="patch_6">
    <path d="M 38.27 10.8 
L 709.2 10.8 
" style="fill: none; stroke: #000000; stroke-width: 0.8; stroke-linejoin: miter; stroke-linecap: square"/>
   </g>
   <g id="legend_1">
    <g id="patch_7">
     <path d="M 608.528125 385.04 
L 702.2 385.04 
Q 704.2 385.04 704.2 383.04 
L 704.2 340.005625 
Q 704.2 338.005625 702.2 338.005625 
L 608.528125 338.005625 
Q 606.528125 338.005625 606.528125 340.005625 
L 606.528125 383.04 
Q 606.528125 385.04 608.528125 385.04 
z
" style="fill: #ffffff; opacity: 0.8; stroke: #cccccc; stroke-linejoin: miter"/>
    </g>
    <g id="text_13">
     <!-- Max Circuit Depth -->
     <g transform="translate(610.528125 349.604062) scale(0.1 -0.1)">
      <defs>
       <path id="DejaVuSans-4d" d="M 628 4666 
L 1569 4666 
L 2759 1491 
L 3956 4666 
L 4897 4666 
L 4897 0 
L 4281 0 
L 4281 4097 
L 3078 897 
L 2444 897 
L 1241 4097 
L 1241 0 
L 628 0 
L 628 4666 
z
" transform="scale(0.015625)"/>
       <path id="DejaVuSans-78" d="M 3513 3500 
L 2247 1797 
L 3578 0 
L 2900 0 
L 1881 1375 
L 863 0 
L 184 0 
L 1544 1831 
L 300 3500 
L 978 3500 
L 1906 2253 
L 2834 3500 
L 3513 3500 
z
" transform="scale(0.015625)"/>
       <path id="DejaVuSans-43" d="M 4122 4306 
L 4122 3641 
Q 3803 3938 3442 4084 
Q 3081 4231 2675 4231 
Q 1875 4231 1450 3742 
Q 1025 3253 1025 2328 
Q 1025 1406 1450 917 
Q 1875 428 2675 428 
Q 3081 428 3442 575 
Q 3803 722 4122 1019 
L 4122 359 
Q 3791 134 3420 21 
Q 3050 -91 2638 -91 
Q 1578 -91 968 557 
Q 359 1206 359 2328 
Q 359 3453 968 4101 
Q 1578 4750 2638 4750 
Q 3056 4750 3426 4639 
Q 3797 4528 4122 4306 
z
" transform="scale(0.015625)"/>
       <path id="DejaVuSans-69" d="M 603 3500 
L 1178 3500 
L 1178 0 
L 603 0 
L 603 3500 
z
M 603 4863 
L 1178 4863 
L 1178 4134 
L 603 4134 
L 603 4863 
z
" transform="scale(0.015625)"/>
       <path id="DejaVuSans-72" d="M 2631 2963 
Q 2534 3019 2420 3045 
Q 2306 3072 2169 3072 
Q 1681 3072 1420 2755 
Q 1159 2438 1159 1844 
L 1159 0 
L 581 0 
L 581 3500 
L 1159 3500 
L 1159 2956 
Q 1341 3275 1631 3429 
Q 1922 3584 2338 3584 
Q 2397 3584 2469 3576 
Q 2541 3569 2628 3553 
L 2631 2963 
z
" transform="scale(0.015625)"/>
       <path id="DejaVuSans-63" d="M 3122 3366 
L 3122 2828 
Q 2878 2963 2633 3030 
Q 2388 3097 2138 3097 
Q 1578 3097 1268 2742 
Q 959 2388 959 1747 
Q 959 1106 1268 751 
Q 1578 397 2138 397 
Q 2388 397 2633 464 
Q 2878 531 3122 666 
L 3122 134 
Q 2881 22 2623 -34 
Q 2366 -91 2075 -91 
Q 1284 -91 818 406 
Q 353 903 353 1747 
Q 353 2603 823 3093 
Q 1294 3584 2113 3584 
Q 2378 3584 2631 3529 
Q 2884 3475 3122 3366 
z
" transform="scale(0.015625)"/>
       <path id="DejaVuSans-44" d="M 1259 4147 
L 1259 519 
L 2022 519 
Q 2988 519 3436 956 
Q 3884 1394 3884 2338 
Q 3884 3275 3436 3711 
Q 2988 4147 2022 4147 
L 1259 4147 
z
M 628 4666 
L 1925 4666 
Q 3281 4666 3915 4102 
Q 4550 3538 4550 2338 
Q 4550 1131 3912 565 
Q 3275 0 1925 0 
L 628 0 
L 628 4666 
z
" transform="scale(0.015625)"/>
       <path id="DejaVuSans-68" d="M 3513 2113 
L 3513 0 
L 2938 0 
L 2938 2094 
Q 2938 2591 2744 2837 
Q 2550 3084 2163 3084 
Q 1697 3084 1428 2787 
Q 1159 2491 1159 1978 
L 1159 0 
L 581 0 
L 581 4863 
L 1159 4863 
L 1159 2956 
Q 1366 3272 1645 3428 
Q 1925 3584 2291 3584 
Q 2894 3584 3203 3211 
Q 3513 2838 3513 2113 
z
" transform="scale(0.015625)"/>
      </defs>
      <use xlink:href="#DejaVuSans-4d"/>
      <use xlink:href="#DejaVuSans-61" transform="translate(86.279297 0)"/>
      <use xlink:href="#DejaVuSans-78" transform="translate(147.558594 0)"/>
      <use xlink:href="#DejaVuSans-20" transform="translate(206.738281 0)"/>
      <use xlink:href="#DejaVuSans-43" transform="translate(238.525391 0)"/>
      <use xlink:href="#DejaVuSans-69" transform="translate(308.349609 0)"/>
      <use xlink:href="#DejaVuSans-72" transform="translate(336.132812 0)"/>
      <use xlink:href="#DejaVuSans-63" transform="translate(374.996094 0)"/>
      <use xlink:href="#DejaVuSans-75" transform="translate(429.976562 0)"/>
      <use xlink:href="#DejaVuSans-69" transform="translate(493.355469 0)"/>
      <use xlink:href="#DejaVuSans-74" transform="translate(521.138672 0)"/>
      <use xlink:href="#DejaVuSans-20" transform="translate(560.347656 0)"/>
      <use xlink:href="#DejaVuSans-44" transform="translate(592.134766 0)"/>
      <use xlink:href="#DejaVuSans-65" transform="translate(669.136719 0)"/>
      <use xlink:href="#DejaVuSans-70" transform="translate(730.660156 0)"/>
      <use xlink:href="#DejaVuSans-74" transform="translate(794.136719 0)"/>
      <use xlink:href="#DejaVuSans-68" transform="translate(833.345703 0)"/>
     </g>
    </g>
    <g id="line2d_23">
     <path d="M 638.182813 360.782187 
L 648.182813 360.782187 
L 658.182813 360.782187 
" style="fill: none; stroke: #1f77b4; stroke-width: 1.5; stroke-linecap: square"/>
    </g>
    <g id="text_14">
     <!-- 4 -->
     <g transform="translate(666.182813 364.282187) scale(0.1 -0.1)">
      <use xlink:href="#DejaVuSans-34"/>
     </g>
    </g>
    <g id="line2d_24">
     <path d="M 638.182813 375.460312 
L 648.182813 375.460312 
L 658.182813 375.460312 
" style="fill: none; stroke: #ff7f0e; stroke-width: 1.5; stroke-linecap: square"/>
    </g>
    <g id="text_15">
     <!-- 5 -->
     <g transform="translate(666.182813 378.960312) scale(0.1 -0.1)">
      <use xlink:href="#DejaVuSans-35"/>
     </g>
    </g>
   </g>
  </g>
 </g>
 <defs>
  <clipPath id="p186c076cdc">
   <rect x="38.27" y="10.8" width="670.93" height="379.24"/>
  </clipPath>
 </defs>
</svg>
