<?xml version="1.0" encoding="utf-8" standalone="no"?>
<!DOCTYPE svg PUBLIC "-//W3C//DTD SVG 1.1//EN"
  "http://www.w3.org/Graphics/SVG/1.1/DTD/svg11.dtd">
<svg xmlns:xlink="http://www.w3.org/1999/xlink" width="720pt" height="432pt" viewBox="0 0 720 432" xmlns="http://www.w3.org/2000/svg" version="1.1">
 <metadata>
  <rdf:RDF xmlns:dc="http://purl.org/dc/elements/1.1/" xmlns:cc="http://creativecommons.org/ns#" xmlns:rdf="http://www.w3.org/1999/02/22-rdf-syntax-ns#">
   <cc:Work>
    <dc:type rdf:resource="http://purl.org/dc/dcmitype/StillImage"/>
    <dc:date>2025-04-15T14:44:04.292955</dc:date>
    <dc:format>image/svg+xml</dc:format>
    <dc:creator>
     <cc:Agent>
      <dc:title>Matplotlib v3.10.0, https://matplotlib.org/</dc:title>
     </cc:Agent>
    </dc:creator>
   </cc:Work>
  </rdf:RDF>
 </metadata>
 <defs>
  <style type="text/css">*{stroke-linejoin: round; stroke-linecap: butt}</style>
 </defs>
 <g id="figure_1">
  <g id="patch_1">
   <path d="M 0 432 
L 720 432 
L 720 0 
L 0 0 
z
" style="fill: #ffffff"/>
  </g>
  <g id="axes_1">
   <g id="patch_2">
    <path d="M 38.27 390.04 
L 699.011506 390.04 
L 699.011506 10.8 
L 38.27 10.8 
z
" style="fill: #ffffff"/>
   </g>
   <g id="FillBetweenPolyCollection_1">
    <path d="M 68.303705 143.587408 
L 68.303705 346.081803 
L 71.432216 351.579574 
L 74.560727 360.83784 
L 77.689238 344.625474 
L 80.817748 358.670084 
L 83.946259 346.722024 
L 87.07477 350.749343 
L 90.203281 341.095642 
L 93.331792 359.32396 
L 96.460303 341.819485 
L 99.588814 339.711717 
L 102.717325 348.046311 
L 105.845836 338.964796 
L 108.974347 341.475648 
L 112.102858 347.179532 
L 115.231369 351.718777 
L 118.359879 349.743644 
L 121.48839 349.299305 
L 124.616901 348.086988 
L 127.745412 349.845228 
L 130.873923 346.096841 
L 134.002434 349.068663 
L 137.130945 349.005701 
L 140.259456 345.911018 
L 143.387967 351.893249 
L 146.516478 350.137385 
L 149.644989 361.663581 
L 152.7735 356.2893 
L 155.90201 339.120168 
L 159.030521 334.391647 
L 162.159032 349.168891 
L 165.287543 339.726046 
L 168.416054 347.051124 
L 171.544565 347.114571 
L 174.673076 353.015058 
L 177.801587 350.050752 
L 180.930098 354.408808 
L 184.058609 345.985168 
L 187.18712 348.718405 
L 190.315631 348.021066 
L 193.444141 346.567057 
L 196.572652 350.151164 
L 199.701163 351.737199 
L 202.829674 367.289287 
L 205.958185 343.567887 
L 209.086696 358.597031 
L 212.215207 364.288139 
L 215.343718 345.779086 
L 218.472229 349.707543 
L 221.60074 340.654725 
L 224.729251 343.543947 
L 227.857762 348.867517 
L 230.986272 354.251328 
L 234.114783 354.05585 
L 237.243294 351.399313 
L 240.371805 359.231051 
L 243.500316 357.824962 
L 246.628827 354.057193 
L 249.757338 338.195847 
L 252.885849 355.853958 
L 256.01436 341.098813 
L 259.142871 352.50875 
L 262.271382 346.329852 
L 265.399893 361.70572 
L 268.528403 348.578808 
L 271.656914 339.688821 
L 274.785425 350.143401 
L 277.913936 352.488995 
L 281.042447 352.614057 
L 284.170958 344.464448 
L 287.299469 339.280846 
L 290.42798 340.740135 
L 293.556491 347.169983 
L 296.685002 336.450171 
L 299.813513 354.503285 
L 302.942024 346.066577 
L 306.070534 340.512531 
L 309.199045 346.652106 
L 312.327556 363.62057 
L 315.456067 354.150738 
L 318.584578 356.760208 
L 321.713089 352.33762 
L 324.8416 338.943236 
L 327.970111 355.537241 
L 331.098622 356.521863 
L 334.227133 342.020207 
L 337.355644 358.475081 
L 340.484155 338.580929 
L 343.612666 354.087288 
L 346.741176 362.302159 
L 349.869687 372.801818 
L 352.998198 346.012443 
L 356.126709 330.162368 
L 359.25522 337.624132 
L 362.383731 350.990694 
L 365.512242 362.98221 
L 368.640753 354.518824 
L 371.769264 360.566051 
L 374.897775 345.982263 
L 378.026286 339.409183 
L 381.154797 353.864814 
L 384.283307 350.214742 
L 387.411818 353.234728 
L 390.540329 345.775342 
L 393.66884 347.211262 
L 396.797351 334.786943 
L 399.925862 353.52082 
L 403.054373 365.961614 
L 406.182884 348.255982 
L 409.311395 341.325556 
L 412.439906 341.76168 
L 415.568417 342.233844 
L 418.696928 369.383069 
L 421.825438 349.673291 
L 424.953949 349.584329 
L 428.08246 357.203026 
L 431.210971 344.387309 
L 434.339482 342.755227 
L 437.467993 351.689081 
L 440.596504 343.071704 
L 443.725015 350.992204 
L 446.853526 345.739602 
L 449.982037 352.213485 
L 453.110548 340.548244 
L 456.239059 336.335296 
L 459.367569 344.247761 
L 462.49608 345.107649 
L 465.624591 357.343033 
L 468.753102 351.708066 
L 471.881613 352.583391 
L 475.010124 343.823059 
L 478.138635 352.593614 
L 481.267146 340.230871 
L 484.395657 345.919115 
L 487.524168 347.683366 
L 490.652679 352.109267 
L 493.78119 352.184376 
L 496.9097 359.298628 
L 500.038211 365.933736 
L 503.166722 351.464352 
L 506.295233 339.799553 
L 509.423744 341.526032 
L 512.552255 341.287182 
L 515.680766 348.368859 
L 518.809277 348.466958 
L 521.937788 358.825867 
L 525.066299 342.825995 
L 528.19481 355.310786 
L 531.323321 353.318926 
L 534.451831 356.669377 
L 537.580342 347.487546 
L 540.708853 340.004397 
L 543.837364 353.175123 
L 546.965875 355.481107 
L 550.094386 335.526341 
L 553.222897 353.164808 
L 556.351408 346.575484 
L 559.479919 365.087155 
L 562.60843 347.946526 
L 565.736941 356.708941 
L 568.865452 338.983792 
L 571.993962 351.652984 
L 575.122473 336.13914 
L 578.250984 337.506788 
L 581.379495 347.243661 
L 584.508006 343.96749 
L 587.636517 347.452727 
L 590.765028 347.520725 
L 593.893539 352.503678 
L 597.02205 348.607299 
L 600.150561 350.351095 
L 603.279072 335.899747 
L 606.407583 346.458095 
L 609.536093 354.136933 
L 612.664604 359.567125 
L 615.793115 354.96793 
L 618.921626 343.018419 
L 622.050137 348.040567 
L 625.178648 366.272292 
L 628.307159 357.768341 
L 631.43567 354.599585 
L 634.564181 351.260478 
L 637.692692 354.615402 
L 640.821203 352.208135 
L 643.949714 349.420996 
L 647.078224 342.797603 
L 650.206735 367.765735 
L 653.335246 345.723576 
L 656.463757 349.424943 
L 659.592268 350.533773 
L 662.720779 332.381842 
L 665.84929 351.031192 
L 668.977801 348.94189 
L 668.977801 167.10768 
L 668.977801 167.10768 
L 665.84929 149.694619 
L 662.720779 210.485395 
L 659.592268 150.581451 
L 656.463757 108.126313 
L 653.335246 165.502332 
L 650.206735 63.501423 
L 647.078224 179.198932 
L 643.949714 170.22081 
L 640.821203 147.714046 
L 637.692692 130.224063 
L 634.564181 167.876933 
L 631.43567 131.445872 
L 628.307159 97.954424 
L 625.178648 64.797975 
L 622.050137 166.380054 
L 618.921626 185.921392 
L 615.793115 134.224187 
L 612.664604 114.787688 
L 609.536093 132.203392 
L 606.407583 127.929013 
L 603.279072 237.364135 
L 600.150561 150.665059 
L 597.02205 88.805587 
L 593.893539 134.548075 
L 590.765028 181.688523 
L 587.636517 167.818018 
L 584.508006 182.568604 
L 581.379495 187.81598 
L 578.250984 194.755354 
L 575.122473 236.158076 
L 571.993962 148.301491 
L 568.865452 161.123889 
L 565.736941 134.58485 
L 562.60843 187.576011 
L 559.479919 86.9131 
L 556.351408 182.429854 
L 553.222897 112.658969 
L 550.094386 234.816323 
L 546.965875 116.202735 
L 543.837364 147.849925 
L 540.708853 218.565247 
L 537.580342 166.749914 
L 534.451831 153.677233 
L 531.323321 149.043791 
L 528.19481 72.228401 
L 525.066299 199.796612 
L 521.937788 115.725836 
L 518.809277 183.920153 
L 515.680766 147.928009 
L 512.552255 164.923636 
L 509.423744 218.26115 
L 506.295233 216.149825 
L 503.166722 130.481978 
L 500.038211 43.95614 
L 496.9097 115.058213 
L 493.78119 149.072509 
L 490.652679 151.094213 
L 487.524168 182.519851 
L 484.395657 184.601904 
L 481.267146 216.890957 
L 478.138635 134.287146 
L 475.010124 202.665123 
L 471.881613 150.869713 
L 468.753102 167.321072 
L 465.624591 114.276219 
L 462.49608 201.664011 
L 459.367569 183.373258 
L 456.239059 233.310139 
L 453.110548 216.296814 
L 449.982037 150.12739 
L 446.853526 166.68606 
L 443.725015 150.423036 
L 440.596504 201.200914 
L 437.467993 147.441636 
L 434.339482 185.083433 
L 431.210971 163.343716 
L 428.08246 133.449389 
L 424.953949 165.556299 
L 421.825438 165.551586 
L 418.696928 48.126093 
L 415.568417 186.182538 
L 412.439906 199.063795 
L 409.311395 201.188309 
L 406.182884 164.429912 
L 403.054373 83.565185 
L 399.925862 133.442004 
L 396.797351 236.694316 
L 393.66884 180.882637 
L 390.540329 185.072996 
L 387.411818 152.198514 
L 384.283307 188.356009 
L 381.154797 131.453616 
L 378.026286 238.165852 
L 374.897775 182.431311 
L 371.769264 119.701093 
L 368.640753 136.34187 
L 365.512242 99.599426 
L 362.383731 168.361393 
L 359.25522 215.831039 
L 356.126709 206.880999 
L 352.998198 167.779595 
L 349.869687 29.39716 
L 346.741176 77.917431 
L 343.612666 153.587103 
L 340.484155 218.425604 
L 337.355644 115.063463 
L 334.227133 218.350626 
L 331.098622 136.472955 
L 327.970111 95.138762 
L 324.8416 178.254289 
L 321.713089 89.393751 
L 318.584578 132.861886 
L 315.456067 134.496576 
L 312.327556 64.788555 
L 309.199045 184.329469 
L 306.070534 160.990233 
L 302.942024 167.47693 
L 299.813513 110.611873 
L 296.685002 173.114182 
L 293.556491 165.605151 
L 290.42798 200.464143 
L 287.299469 157.601701 
L 284.170958 182.786037 
L 281.042447 131.081508 
L 277.913936 131.610336 
L 274.785425 169.364077 
L 271.656914 158.99195 
L 268.528403 128.926252 
L 265.399893 96.957609 
L 262.271382 166.537643 
L 259.142871 132.96117 
L 256.01436 220.844179 
L 252.885849 131.72762 
L 249.757338 199.456289 
L 246.628827 151.613191 
L 243.500316 116.721749 
L 240.371805 98.178544 
L 237.243294 149.617622 
L 234.114783 131.940776 
L 230.986272 131.271637 
L 227.857762 165.996965 
L 224.729251 183.718083 
L 221.60074 201.060501 
L 218.472229 150.487975 
L 215.343718 164.872377 
L 212.215207 102.662531 
L 209.086696 116.108815 
L 205.958185 181.079493 
L 202.829674 28.038182 
L 199.701163 150.690108 
L 196.572652 148.252682 
L 193.444141 166.282028 
L 190.315631 167.541738 
L 187.18712 165.458365 
L 184.058609 186.012842 
L 180.930098 75.725059 
L 177.801587 150.029939 
L 174.673076 132.210543 
L 171.544565 166.947528 
L 168.416054 166.041656 
L 165.287543 225.27577 
L 162.159032 167.457933 
L 159.030521 237.983419 
L 155.90201 176.691635 
L 152.7735 133.171942 
L 149.644989 78.969135 
L 146.516478 168.029459 
L 143.387967 69.423139 
L 140.259456 144.276629 
L 137.130945 149.123402 
L 134.002434 170.10978 
L 130.873923 122.945361 
L 127.745412 150.324391 
L 124.616901 183.748923 
L 121.48839 148.465816 
L 118.359879 148.859432 
L 115.231369 131.7164 
L 112.102858 163.944031 
L 108.974347 181.206104 
L 105.845836 138.399227 
L 102.717325 164.859096 
L 99.588814 216.742212 
L 96.460303 221.222631 
L 93.331792 98.909548 
L 90.203281 140.045183 
L 87.07477 151.67734 
L 83.946259 185.616722 
L 80.817748 116.416281 
L 77.689238 184.125404 
L 74.560727 95.790277 
L 71.432216 149.852983 
L 68.303705 143.587408 
z
" clip-path="url(#p94e76fd649)" style="fill: #1f77b4; fill-opacity: 0.2"/>
   </g>
   <g id="matplotlib.axis_1">
    <g id="xtick_1">
     <g id="line2d_1">
      <path d="M 66.723807 390.04 
L 66.723807 10.8 
" clip-path="url(#p94e76fd649)" style="fill: none; stroke: #b0b0b0; stroke-width: 0.8; stroke-linecap: square"/>
     </g>
     <g id="line2d_2">
      <defs>
       <path id="m0e0d39da27" d="M 0 0 
L 0 3.5 
" style="stroke: #000000; stroke-width: 0.8"/>
      </defs>
      <g>
       <use xlink:href="#m0e0d39da27" x="66.723807" y="390.04" style="stroke: #000000; stroke-width: 0.8"/>
      </g>
     </g>
     <g id="text_1">
      <!-- 0 -->
      <g transform="translate(63.542557 404.638438) scale(0.1 -0.1)">
       <defs>
        <path id="DejaVuSans-30" d="M 2034 4250 
Q 1547 4250 1301 3770 
Q 1056 3291 1056 2328 
Q 1056 1369 1301 889 
Q 1547 409 2034 409 
Q 2525 409 2770 889 
Q 3016 1369 3016 2328 
Q 3016 3291 2770 3770 
Q 2525 4250 2034 4250 
z
M 2034 4750 
Q 2819 4750 3233 4129 
Q 3647 3509 3647 2328 
Q 3647 1150 3233 529 
Q 2819 -91 2034 -91 
Q 1250 -91 836 529 
Q 422 1150 422 2328 
Q 422 3509 836 4129 
Q 1250 4750 2034 4750 
z
" transform="scale(0.015625)"/>
       </defs>
       <use xlink:href="#DejaVuSans-30"/>
      </g>
     </g>
    </g>
    <g id="xtick_2">
     <g id="line2d_3">
      <path d="M 144.93658 390.04 
L 144.93658 10.8 
" clip-path="url(#p94e76fd649)" style="fill: none; stroke: #b0b0b0; stroke-width: 0.8; stroke-linecap: square"/>
     </g>
     <g id="line2d_4">
      <g>
       <use xlink:href="#m0e0d39da27" x="144.93658" y="390.04" style="stroke: #000000; stroke-width: 0.8"/>
      </g>
     </g>
     <g id="text_2">
      <!-- 5000 -->
      <g transform="translate(132.21158 404.638438) scale(0.1 -0.1)">
       <defs>
        <path id="DejaVuSans-35" d="M 691 4666 
L 3169 4666 
L 3169 4134 
L 1269 4134 
L 1269 2991 
Q 1406 3038 1543 3061 
Q 1681 3084 1819 3084 
Q 2600 3084 3056 2656 
Q 3513 2228 3513 1497 
Q 3513 744 3044 326 
Q 2575 -91 1722 -91 
Q 1428 -91 1123 -41 
Q 819 9 494 109 
L 494 744 
Q 775 591 1075 516 
Q 1375 441 1709 441 
Q 2250 441 2565 725 
Q 2881 1009 2881 1497 
Q 2881 1984 2565 2268 
Q 2250 2553 1709 2553 
Q 1456 2553 1204 2497 
Q 953 2441 691 2322 
L 691 4666 
z
" transform="scale(0.015625)"/>
       </defs>
       <use xlink:href="#DejaVuSans-35"/>
       <use xlink:href="#DejaVuSans-30" transform="translate(63.623047 0)"/>
       <use xlink:href="#DejaVuSans-30" transform="translate(127.246094 0)"/>
       <use xlink:href="#DejaVuSans-30" transform="translate(190.869141 0)"/>
      </g>
     </g>
    </g>
    <g id="xtick_3">
     <g id="line2d_5">
      <path d="M 223.149353 390.04 
L 223.149353 10.8 
" clip-path="url(#p94e76fd649)" style="fill: none; stroke: #b0b0b0; stroke-width: 0.8; stroke-linecap: square"/>
     </g>
     <g id="line2d_6">
      <g>
       <use xlink:href="#m0e0d39da27" x="223.149353" y="390.04" style="stroke: #000000; stroke-width: 0.8"/>
      </g>
     </g>
     <g id="text_3">
      <!-- 10000 -->
      <g transform="translate(207.243103 404.638438) scale(0.1 -0.1)">
       <defs>
        <path id="DejaVuSans-31" d="M 794 531 
L 1825 531 
L 1825 4091 
L 703 3866 
L 703 4441 
L 1819 4666 
L 2450 4666 
L 2450 531 
L 3481 531 
L 3481 0 
L 794 0 
L 794 531 
z
" transform="scale(0.015625)"/>
       </defs>
       <use xlink:href="#DejaVuSans-31"/>
       <use xlink:href="#DejaVuSans-30" transform="translate(63.623047 0)"/>
       <use xlink:href="#DejaVuSans-30" transform="translate(127.246094 0)"/>
       <use xlink:href="#DejaVuSans-30" transform="translate(190.869141 0)"/>
       <use xlink:href="#DejaVuSans-30" transform="translate(254.492188 0)"/>
      </g>
     </g>
    </g>
    <g id="xtick_4">
     <g id="line2d_7">
      <path d="M 301.362126 390.04 
L 301.362126 10.8 
" clip-path="url(#p94e76fd649)" style="fill: none; stroke: #b0b0b0; stroke-width: 0.8; stroke-linecap: square"/>
     </g>
     <g id="line2d_8">
      <g>
       <use xlink:href="#m0e0d39da27" x="301.362126" y="390.04" style="stroke: #000000; stroke-width: 0.8"/>
      </g>
     </g>
     <g id="text_4">
      <!-- 15000 -->
      <g transform="translate(285.455876 404.638438) scale(0.1 -0.1)">
       <use xlink:href="#DejaVuSans-31"/>
       <use xlink:href="#DejaVuSans-35" transform="translate(63.623047 0)"/>
       <use xlink:href="#DejaVuSans-30" transform="translate(127.246094 0)"/>
       <use xlink:href="#DejaVuSans-30" transform="translate(190.869141 0)"/>
       <use xlink:href="#DejaVuSans-30" transform="translate(254.492188 0)"/>
      </g>
     </g>
    </g>
    <g id="xtick_5">
     <g id="line2d_9">
      <path d="M 379.574898 390.04 
L 379.574898 10.8 
" clip-path="url(#p94e76fd649)" style="fill: none; stroke: #b0b0b0; stroke-width: 0.8; stroke-linecap: square"/>
     </g>
     <g id="line2d_10">
      <g>
       <use xlink:href="#m0e0d39da27" x="379.574898" y="390.04" style="stroke: #000000; stroke-width: 0.8"/>
      </g>
     </g>
     <g id="text_5">
      <!-- 20000 -->
      <g transform="translate(363.668648 404.638438) scale(0.1 -0.1)">
       <defs>
        <path id="DejaVuSans-32" d="M 1228 531 
L 3431 531 
L 3431 0 
L 469 0 
L 469 531 
Q 828 903 1448 1529 
Q 2069 2156 2228 2338 
Q 2531 2678 2651 2914 
Q 2772 3150 2772 3378 
Q 2772 3750 2511 3984 
Q 2250 4219 1831 4219 
Q 1534 4219 1204 4116 
Q 875 4013 500 3803 
L 500 4441 
Q 881 4594 1212 4672 
Q 1544 4750 1819 4750 
Q 2544 4750 2975 4387 
Q 3406 4025 3406 3419 
Q 3406 3131 3298 2873 
Q 3191 2616 2906 2266 
Q 2828 2175 2409 1742 
Q 1991 1309 1228 531 
z
" transform="scale(0.015625)"/>
       </defs>
       <use xlink:href="#DejaVuSans-32"/>
       <use xlink:href="#DejaVuSans-30" transform="translate(63.623047 0)"/>
       <use xlink:href="#DejaVuSans-30" transform="translate(127.246094 0)"/>
       <use xlink:href="#DejaVuSans-30" transform="translate(190.869141 0)"/>
       <use xlink:href="#DejaVuSans-30" transform="translate(254.492188 0)"/>
      </g>
     </g>
    </g>
    <g id="xtick_6">
     <g id="line2d_11">
      <path d="M 457.787671 390.04 
L 457.787671 10.8 
" clip-path="url(#p94e76fd649)" style="fill: none; stroke: #b0b0b0; stroke-width: 0.8; stroke-linecap: square"/>
     </g>
     <g id="line2d_12">
      <g>
       <use xlink:href="#m0e0d39da27" x="457.787671" y="390.04" style="stroke: #000000; stroke-width: 0.8"/>
      </g>
     </g>
     <g id="text_6">
      <!-- 25000 -->
      <g transform="translate(441.881421 404.638438) scale(0.1 -0.1)">
       <use xlink:href="#DejaVuSans-32"/>
       <use xlink:href="#DejaVuSans-35" transform="translate(63.623047 0)"/>
       <use xlink:href="#DejaVuSans-30" transform="translate(127.246094 0)"/>
       <use xlink:href="#DejaVuSans-30" transform="translate(190.869141 0)"/>
       <use xlink:href="#DejaVuSans-30" transform="translate(254.492188 0)"/>
      </g>
     </g>
    </g>
    <g id="xtick_7">
     <g id="line2d_13">
      <path d="M 536.000444 390.04 
L 536.000444 10.8 
" clip-path="url(#p94e76fd649)" style="fill: none; stroke: #b0b0b0; stroke-width: 0.8; stroke-linecap: square"/>
     </g>
     <g id="line2d_14">
      <g>
       <use xlink:href="#m0e0d39da27" x="536.000444" y="390.04" style="stroke: #000000; stroke-width: 0.8"/>
      </g>
     </g>
     <g id="text_7">
      <!-- 30000 -->
      <g transform="translate(520.094194 404.638438) scale(0.1 -0.1)">
       <defs>
        <path id="DejaVuSans-33" d="M 2597 2516 
Q 3050 2419 3304 2112 
Q 3559 1806 3559 1356 
Q 3559 666 3084 287 
Q 2609 -91 1734 -91 
Q 1441 -91 1130 -33 
Q 819 25 488 141 
L 488 750 
Q 750 597 1062 519 
Q 1375 441 1716 441 
Q 2309 441 2620 675 
Q 2931 909 2931 1356 
Q 2931 1769 2642 2001 
Q 2353 2234 1838 2234 
L 1294 2234 
L 1294 2753 
L 1863 2753 
Q 2328 2753 2575 2939 
Q 2822 3125 2822 3475 
Q 2822 3834 2567 4026 
Q 2313 4219 1838 4219 
Q 1578 4219 1281 4162 
Q 984 4106 628 3988 
L 628 4550 
Q 988 4650 1302 4700 
Q 1616 4750 1894 4750 
Q 2613 4750 3031 4423 
Q 3450 4097 3450 3541 
Q 3450 3153 3228 2886 
Q 3006 2619 2597 2516 
z
" transform="scale(0.015625)"/>
       </defs>
       <use xlink:href="#DejaVuSans-33"/>
       <use xlink:href="#DejaVuSans-30" transform="translate(63.623047 0)"/>
       <use xlink:href="#DejaVuSans-30" transform="translate(127.246094 0)"/>
       <use xlink:href="#DejaVuSans-30" transform="translate(190.869141 0)"/>
       <use xlink:href="#DejaVuSans-30" transform="translate(254.492188 0)"/>
      </g>
     </g>
    </g>
    <g id="xtick_8">
     <g id="line2d_15">
      <path d="M 614.213217 390.04 
L 614.213217 10.8 
" clip-path="url(#p94e76fd649)" style="fill: none; stroke: #b0b0b0; stroke-width: 0.8; stroke-linecap: square"/>
     </g>
     <g id="line2d_16">
      <g>
       <use xlink:href="#m0e0d39da27" x="614.213217" y="390.04" style="stroke: #000000; stroke-width: 0.8"/>
      </g>
     </g>
     <g id="text_8">
      <!-- 35000 -->
      <g transform="translate(598.306967 404.638438) scale(0.1 -0.1)">
       <use xlink:href="#DejaVuSans-33"/>
       <use xlink:href="#DejaVuSans-35" transform="translate(63.623047 0)"/>
       <use xlink:href="#DejaVuSans-30" transform="translate(127.246094 0)"/>
       <use xlink:href="#DejaVuSans-30" transform="translate(190.869141 0)"/>
       <use xlink:href="#DejaVuSans-30" transform="translate(254.492188 0)"/>
      </g>
     </g>
    </g>
    <g id="xtick_9">
     <g id="line2d_17">
      <path d="M 692.42599 390.04 
L 692.42599 10.8 
" clip-path="url(#p94e76fd649)" style="fill: none; stroke: #b0b0b0; stroke-width: 0.8; stroke-linecap: square"/>
     </g>
     <g id="line2d_18">
      <g>
       <use xlink:href="#m0e0d39da27" x="692.42599" y="390.04" style="stroke: #000000; stroke-width: 0.8"/>
      </g>
     </g>
     <g id="text_9">
      <!-- 40000 -->
      <g transform="translate(676.51974 404.638438) scale(0.1 -0.1)">
       <defs>
        <path id="DejaVuSans-34" d="M 2419 4116 
L 825 1625 
L 2419 1625 
L 2419 4116 
z
M 2253 4666 
L 3047 4666 
L 3047 1625 
L 3713 1625 
L 3713 1100 
L 3047 1100 
L 3047 0 
L 2419 0 
L 2419 1100 
L 313 1100 
L 313 1709 
L 2253 4666 
z
" transform="scale(0.015625)"/>
       </defs>
       <use xlink:href="#DejaVuSans-34"/>
       <use xlink:href="#DejaVuSans-30" transform="translate(63.623047 0)"/>
       <use xlink:href="#DejaVuSans-30" transform="translate(127.246094 0)"/>
       <use xlink:href="#DejaVuSans-30" transform="translate(190.869141 0)"/>
       <use xlink:href="#DejaVuSans-30" transform="translate(254.492188 0)"/>
      </g>
     </g>
    </g>
    <g id="text_10">
     <!-- Episodes -->
     <g transform="translate(346.398565 418.316562) scale(0.1 -0.1)">
      <defs>
       <path id="DejaVuSans-45" d="M 628 4666 
L 3578 4666 
L 3578 4134 
L 1259 4134 
L 1259 2753 
L 3481 2753 
L 3481 2222 
L 1259 2222 
L 1259 531 
L 3634 531 
L 3634 0 
L 628 0 
L 628 4666 
z
" transform="scale(0.015625)"/>
       <path id="DejaVuSans-70" d="M 1159 525 
L 1159 -1331 
L 581 -1331 
L 581 3500 
L 1159 3500 
L 1159 2969 
Q 1341 3281 1617 3432 
Q 1894 3584 2278 3584 
Q 2916 3584 3314 3078 
Q 3713 2572 3713 1747 
Q 3713 922 3314 415 
Q 2916 -91 2278 -91 
Q 1894 -91 1617 61 
Q 1341 213 1159 525 
z
M 3116 1747 
Q 3116 2381 2855 2742 
Q 2594 3103 2138 3103 
Q 1681 3103 1420 2742 
Q 1159 2381 1159 1747 
Q 1159 1113 1420 752 
Q 1681 391 2138 391 
Q 2594 391 2855 752 
Q 3116 1113 3116 1747 
z
" transform="scale(0.015625)"/>
       <path id="DejaVuSans-69" d="M 603 3500 
L 1178 3500 
L 1178 0 
L 603 0 
L 603 3500 
z
M 603 4863 
L 1178 4863 
L 1178 4134 
L 603 4134 
L 603 4863 
z
" transform="scale(0.015625)"/>
       <path id="DejaVuSans-73" d="M 2834 3397 
L 2834 2853 
Q 2591 2978 2328 3040 
Q 2066 3103 1784 3103 
Q 1356 3103 1142 2972 
Q 928 2841 928 2578 
Q 928 2378 1081 2264 
Q 1234 2150 1697 2047 
L 1894 2003 
Q 2506 1872 2764 1633 
Q 3022 1394 3022 966 
Q 3022 478 2636 193 
Q 2250 -91 1575 -91 
Q 1294 -91 989 -36 
Q 684 19 347 128 
L 347 722 
Q 666 556 975 473 
Q 1284 391 1588 391 
Q 1994 391 2212 530 
Q 2431 669 2431 922 
Q 2431 1156 2273 1281 
Q 2116 1406 1581 1522 
L 1381 1569 
Q 847 1681 609 1914 
Q 372 2147 372 2553 
Q 372 3047 722 3315 
Q 1072 3584 1716 3584 
Q 2034 3584 2315 3537 
Q 2597 3491 2834 3397 
z
" transform="scale(0.015625)"/>
       <path id="DejaVuSans-6f" d="M 1959 3097 
Q 1497 3097 1228 2736 
Q 959 2375 959 1747 
Q 959 1119 1226 758 
Q 1494 397 1959 397 
Q 2419 397 2687 759 
Q 2956 1122 2956 1747 
Q 2956 2369 2687 2733 
Q 2419 3097 1959 3097 
z
M 1959 3584 
Q 2709 3584 3137 3096 
Q 3566 2609 3566 1747 
Q 3566 888 3137 398 
Q 2709 -91 1959 -91 
Q 1206 -91 779 398 
Q 353 888 353 1747 
Q 353 2609 779 3096 
Q 1206 3584 1959 3584 
z
" transform="scale(0.015625)"/>
       <path id="DejaVuSans-64" d="M 2906 2969 
L 2906 4863 
L 3481 4863 
L 3481 0 
L 2906 0 
L 2906 525 
Q 2725 213 2448 61 
Q 2172 -91 1784 -91 
Q 1150 -91 751 415 
Q 353 922 353 1747 
Q 353 2572 751 3078 
Q 1150 3584 1784 3584 
Q 2172 3584 2448 3432 
Q 2725 3281 2906 2969 
z
M 947 1747 
Q 947 1113 1208 752 
Q 1469 391 1925 391 
Q 2381 391 2643 752 
Q 2906 1113 2906 1747 
Q 2906 2381 2643 2742 
Q 2381 3103 1925 3103 
Q 1469 3103 1208 2742 
Q 947 2381 947 1747 
z
" transform="scale(0.015625)"/>
       <path id="DejaVuSans-65" d="M 3597 1894 
L 3597 1613 
L 953 1613 
Q 991 1019 1311 708 
Q 1631 397 2203 397 
Q 2534 397 2845 478 
Q 3156 559 3463 722 
L 3463 178 
Q 3153 47 2828 -22 
Q 2503 -91 2169 -91 
Q 1331 -91 842 396 
Q 353 884 353 1716 
Q 353 2575 817 3079 
Q 1281 3584 2069 3584 
Q 2775 3584 3186 3129 
Q 3597 2675 3597 1894 
z
M 3022 2063 
Q 3016 2534 2758 2815 
Q 2500 3097 2075 3097 
Q 1594 3097 1305 2825 
Q 1016 2553 972 2059 
L 3022 2063 
z
" transform="scale(0.015625)"/>
      </defs>
      <use xlink:href="#DejaVuSans-45"/>
      <use xlink:href="#DejaVuSans-70" transform="translate(63.183594 0)"/>
      <use xlink:href="#DejaVuSans-69" transform="translate(126.660156 0)"/>
      <use xlink:href="#DejaVuSans-73" transform="translate(154.443359 0)"/>
      <use xlink:href="#DejaVuSans-6f" transform="translate(206.542969 0)"/>
      <use xlink:href="#DejaVuSans-64" transform="translate(267.724609 0)"/>
      <use xlink:href="#DejaVuSans-65" transform="translate(331.201172 0)"/>
      <use xlink:href="#DejaVuSans-73" transform="translate(392.724609 0)"/>
     </g>
    </g>
   </g>
   <g id="matplotlib.axis_2">
    <g id="ytick_1">
     <g id="line2d_19">
      <path d="M 38.27 343.103472 
L 699.011506 343.103472 
" clip-path="url(#p94e76fd649)" style="fill: none; stroke: #b0b0b0; stroke-width: 0.8; stroke-linecap: square"/>
     </g>
     <g id="line2d_20">
      <defs>
       <path id="mb49cb43f56" d="M 0 0 
L -3.5 0 
" style="stroke: #000000; stroke-width: 0.8"/>
      </defs>
      <g>
       <use xlink:href="#mb49cb43f56" x="38.27" y="343.103472" style="stroke: #000000; stroke-width: 0.8"/>
      </g>
     </g>
     <g id="text_11">
      <!-- 2 -->
      <g transform="translate(24.9075 346.902691) scale(0.1 -0.1)">
       <use xlink:href="#DejaVuSans-32"/>
      </g>
     </g>
    </g>
    <g id="ytick_2">
     <g id="line2d_21">
      <path d="M 38.27 258.855566 
L 699.011506 258.855566 
" clip-path="url(#p94e76fd649)" style="fill: none; stroke: #b0b0b0; stroke-width: 0.8; stroke-linecap: square"/>
     </g>
     <g id="line2d_22">
      <g>
       <use xlink:href="#mb49cb43f56" x="38.27" y="258.855566" style="stroke: #000000; stroke-width: 0.8"/>
      </g>
     </g>
     <g id="text_12">
      <!-- 4 -->
      <g transform="translate(24.9075 262.654785) scale(0.1 -0.1)">
       <use xlink:href="#DejaVuSans-34"/>
      </g>
     </g>
    </g>
    <g id="ytick_3">
     <g id="line2d_23">
      <path d="M 38.27 174.60766 
L 699.011506 174.60766 
" clip-path="url(#p94e76fd649)" style="fill: none; stroke: #b0b0b0; stroke-width: 0.8; stroke-linecap: square"/>
     </g>
     <g id="line2d_24">
      <g>
       <use xlink:href="#mb49cb43f56" x="38.27" y="174.60766" style="stroke: #000000; stroke-width: 0.8"/>
      </g>
     </g>
     <g id="text_13">
      <!-- 6 -->
      <g transform="translate(24.9075 178.406879) scale(0.1 -0.1)">
       <defs>
        <path id="DejaVuSans-36" d="M 2113 2584 
Q 1688 2584 1439 2293 
Q 1191 2003 1191 1497 
Q 1191 994 1439 701 
Q 1688 409 2113 409 
Q 2538 409 2786 701 
Q 3034 994 3034 1497 
Q 3034 2003 2786 2293 
Q 2538 2584 2113 2584 
z
M 3366 4563 
L 3366 3988 
Q 3128 4100 2886 4159 
Q 2644 4219 2406 4219 
Q 1781 4219 1451 3797 
Q 1122 3375 1075 2522 
Q 1259 2794 1537 2939 
Q 1816 3084 2150 3084 
Q 2853 3084 3261 2657 
Q 3669 2231 3669 1497 
Q 3669 778 3244 343 
Q 2819 -91 2113 -91 
Q 1303 -91 875 529 
Q 447 1150 447 2328 
Q 447 3434 972 4092 
Q 1497 4750 2381 4750 
Q 2619 4750 2861 4703 
Q 3103 4656 3366 4563 
z
" transform="scale(0.015625)"/>
       </defs>
       <use xlink:href="#DejaVuSans-36"/>
      </g>
     </g>
    </g>
    <g id="ytick_4">
     <g id="line2d_25">
      <path d="M 38.27 90.359754 
L 699.011506 90.359754 
" clip-path="url(#p94e76fd649)" style="fill: none; stroke: #b0b0b0; stroke-width: 0.8; stroke-linecap: square"/>
     </g>
     <g id="line2d_26">
      <g>
       <use xlink:href="#mb49cb43f56" x="38.27" y="90.359754" style="stroke: #000000; stroke-width: 0.8"/>
      </g>
     </g>
     <g id="text_14">
      <!-- 8 -->
      <g transform="translate(24.9075 94.158973) scale(0.1 -0.1)">
       <defs>
        <path id="DejaVuSans-38" d="M 2034 2216 
Q 1584 2216 1326 1975 
Q 1069 1734 1069 1313 
Q 1069 891 1326 650 
Q 1584 409 2034 409 
Q 2484 409 2743 651 
Q 3003 894 3003 1313 
Q 3003 1734 2745 1975 
Q 2488 2216 2034 2216 
z
M 1403 2484 
Q 997 2584 770 2862 
Q 544 3141 544 3541 
Q 544 4100 942 4425 
Q 1341 4750 2034 4750 
Q 2731 4750 3128 4425 
Q 3525 4100 3525 3541 
Q 3525 3141 3298 2862 
Q 3072 2584 2669 2484 
Q 3125 2378 3379 2068 
Q 3634 1759 3634 1313 
Q 3634 634 3220 271 
Q 2806 -91 2034 -91 
Q 1263 -91 848 271 
Q 434 634 434 1313 
Q 434 1759 690 2068 
Q 947 2378 1403 2484 
z
M 1172 3481 
Q 1172 3119 1398 2916 
Q 1625 2713 2034 2713 
Q 2441 2713 2670 2916 
Q 2900 3119 2900 3481 
Q 2900 3844 2670 4047 
Q 2441 4250 2034 4250 
Q 1625 4250 1398 4047 
Q 1172 3844 1172 3481 
z
" transform="scale(0.015625)"/>
       </defs>
       <use xlink:href="#DejaVuSans-38"/>
      </g>
     </g>
    </g>
    <g id="text_15">
     <!-- Reward -->
     <g transform="translate(18.827813 219.041094) rotate(-90) scale(0.1 -0.1)">
      <defs>
       <path id="DejaVuSans-52" d="M 2841 2188 
Q 3044 2119 3236 1894 
Q 3428 1669 3622 1275 
L 4263 0 
L 3584 0 
L 2988 1197 
Q 2756 1666 2539 1819 
Q 2322 1972 1947 1972 
L 1259 1972 
L 1259 0 
L 628 0 
L 628 4666 
L 2053 4666 
Q 2853 4666 3247 4331 
Q 3641 3997 3641 3322 
Q 3641 2881 3436 2590 
Q 3231 2300 2841 2188 
z
M 1259 4147 
L 1259 2491 
L 2053 2491 
Q 2509 2491 2742 2702 
Q 2975 2913 2975 3322 
Q 2975 3731 2742 3939 
Q 2509 4147 2053 4147 
L 1259 4147 
z
" transform="scale(0.015625)"/>
       <path id="DejaVuSans-77" d="M 269 3500 
L 844 3500 
L 1563 769 
L 2278 3500 
L 2956 3500 
L 3675 769 
L 4391 3500 
L 4966 3500 
L 4050 0 
L 3372 0 
L 2619 2869 
L 1863 0 
L 1184 0 
L 269 3500 
z
" transform="scale(0.015625)"/>
       <path id="DejaVuSans-61" d="M 2194 1759 
Q 1497 1759 1228 1600 
Q 959 1441 959 1056 
Q 959 750 1161 570 
Q 1363 391 1709 391 
Q 2188 391 2477 730 
Q 2766 1069 2766 1631 
L 2766 1759 
L 2194 1759 
z
M 3341 1997 
L 3341 0 
L 2766 0 
L 2766 531 
Q 2569 213 2275 61 
Q 1981 -91 1556 -91 
Q 1019 -91 701 211 
Q 384 513 384 1019 
Q 384 1609 779 1909 
Q 1175 2209 1959 2209 
L 2766 2209 
L 2766 2266 
Q 2766 2663 2505 2880 
Q 2244 3097 1772 3097 
Q 1472 3097 1187 3025 
Q 903 2953 641 2809 
L 641 3341 
Q 956 3463 1253 3523 
Q 1550 3584 1831 3584 
Q 2591 3584 2966 3190 
Q 3341 2797 3341 1997 
z
" transform="scale(0.015625)"/>
       <path id="DejaVuSans-72" d="M 2631 2963 
Q 2534 3019 2420 3045 
Q 2306 3072 2169 3072 
Q 1681 3072 1420 2755 
Q 1159 2438 1159 1844 
L 1159 0 
L 581 0 
L 581 3500 
L 1159 3500 
L 1159 2956 
Q 1341 3275 1631 3429 
Q 1922 3584 2338 3584 
Q 2397 3584 2469 3576 
Q 2541 3569 2628 3553 
L 2631 2963 
z
" transform="scale(0.015625)"/>
      </defs>
      <use xlink:href="#DejaVuSans-52"/>
      <use xlink:href="#DejaVuSans-65" transform="translate(64.982422 0)"/>
      <use xlink:href="#DejaVuSans-77" transform="translate(126.505859 0)"/>
      <use xlink:href="#DejaVuSans-61" transform="translate(208.292969 0)"/>
      <use xlink:href="#DejaVuSans-72" transform="translate(269.572266 0)"/>
      <use xlink:href="#DejaVuSans-64" transform="translate(308.935547 0)"/>
     </g>
    </g>
   </g>
   <g id="line2d_27">
    <path d="M 68.303705 244.834605 
L 71.432216 250.716279 
L 74.560727 228.314059 
L 77.689238 264.375439 
L 80.817748 237.543183 
L 83.946259 266.169373 
L 87.07477 251.213342 
L 90.203281 240.570413 
L 93.331792 229.116754 
L 96.460303 281.521058 
L 99.588814 278.226964 
L 102.717325 256.452703 
L 105.845836 238.682011 
L 108.974347 261.340876 
L 112.102858 255.561782 
L 115.231369 241.717588 
L 118.359879 249.301538 
L 121.48839 248.882561 
L 124.616901 265.917955 
L 130.873923 234.521101 
L 134.002434 259.589222 
L 137.130945 249.064552 
L 140.259456 245.093823 
L 143.387967 210.658194 
L 146.516478 259.083422 
L 149.644989 220.316358 
L 152.7735 244.730621 
L 155.90201 257.905902 
L 159.030521 286.187533 
L 162.159032 258.313412 
L 165.287543 282.500908 
L 168.416054 256.54639 
L 171.544565 257.03105 
L 174.673076 242.612801 
L 177.801587 250.040345 
L 180.930098 215.066934 
L 184.058609 265.999005 
L 187.18712 257.088385 
L 190.315631 257.781402 
L 193.444141 256.424543 
L 196.572652 249.201923 
L 199.701163 251.213654 
L 202.829674 197.663734 
L 205.958185 262.32369 
L 209.086696 237.352923 
L 212.215207 233.475335 
L 215.343718 255.325731 
L 218.472229 250.097759 
L 221.60074 270.857613 
L 224.729251 263.631015 
L 227.857762 257.432241 
L 230.986272 242.761482 
L 234.114783 242.998313 
L 237.243294 250.508467 
L 240.371805 228.704797 
L 243.500316 237.273355 
L 249.757338 268.826068 
L 252.885849 243.790789 
L 256.01436 280.971496 
L 259.142871 242.73496 
L 262.271382 256.433747 
L 265.399893 229.331664 
L 268.528403 238.75253 
L 274.785425 259.753739 
L 277.913936 242.049666 
L 281.042447 241.847783 
L 284.170958 263.625242 
L 287.299469 248.441273 
L 290.42798 270.602139 
L 293.556491 256.387567 
L 296.685002 254.782176 
L 299.813513 232.557579 
L 302.942024 256.771753 
L 306.070534 250.751382 
L 309.199045 265.490787 
L 312.327556 214.204563 
L 315.456067 244.323657 
L 318.584578 244.811047 
L 321.713089 220.865686 
L 324.8416 258.598763 
L 327.970111 225.338001 
L 331.098622 246.497409 
L 334.227133 280.185416 
L 337.355644 236.769272 
L 340.484155 278.503266 
L 343.612666 253.837196 
L 346.741176 220.109795 
L 349.869687 201.099489 
L 352.998198 256.896019 
L 356.126709 268.521684 
L 359.25522 276.727586 
L 362.383731 259.676044 
L 365.512242 231.290818 
L 368.640753 245.430347 
L 371.769264 240.133572 
L 378.026286 288.787518 
L 381.154797 242.659215 
L 384.283307 269.285375 
L 387.411818 252.716621 
L 390.540329 265.424169 
L 393.66884 264.04695 
L 396.797351 285.74063 
L 399.925862 243.481412 
L 403.054373 224.7634 
L 406.182884 256.342947 
L 409.311395 271.256932 
L 412.439906 270.412737 
L 415.568417 264.208191 
L 418.696928 208.754581 
L 421.825438 257.612438 
L 424.953949 257.570314 
L 428.08246 245.326207 
L 431.210971 253.865512 
L 434.339482 263.91933 
L 437.467993 249.565359 
L 440.596504 272.136309 
L 443.725015 250.70762 
L 446.853526 256.212831 
L 449.982037 251.170438 
L 453.110548 278.422529 
L 456.239059 284.822717 
L 459.367569 263.81051 
L 462.49608 273.38583 
L 465.624591 235.809626 
L 468.753102 259.514569 
L 471.881613 251.726552 
L 475.010124 273.244091 
L 478.138635 243.44038 
L 481.267146 278.560914 
L 484.395657 265.26051 
L 487.524168 265.101609 
L 490.652679 251.60174 
L 493.78119 250.628443 
L 496.9097 237.178421 
L 500.038211 204.944938 
L 506.295233 277.974689 
L 509.423744 279.893591 
L 512.552255 253.105409 
L 515.680766 248.148434 
L 518.809277 266.193555 
L 521.937788 237.275852 
L 525.066299 271.311304 
L 528.19481 213.769594 
L 531.323321 251.181359 
L 534.451831 255.173305 
L 537.580342 257.11873 
L 540.708853 279.284822 
L 543.837364 250.512524 
L 546.965875 235.841921 
L 550.094386 285.171332 
L 553.222897 232.911888 
L 556.351408 264.502669 
L 559.479919 226.000128 
L 562.60843 267.761268 
L 565.736941 245.646895 
L 568.865452 250.053841 
L 571.993962 249.977238 
L 575.122473 286.148608 
L 578.250984 266.131071 
L 581.379495 267.529821 
L 584.508006 263.268047 
L 587.636517 257.635372 
L 590.765028 264.604624 
L 593.893539 243.525876 
L 597.02205 218.706443 
L 600.150561 250.508077 
L 603.279072 286.631941 
L 606.407583 237.193554 
L 609.536093 243.170163 
L 612.664604 237.177406 
L 615.793115 244.596059 
L 618.921626 264.469905 
L 622.050137 257.21031 
L 625.178648 215.535133 
L 628.307159 227.861382 
L 631.43567 243.022729 
L 634.564181 259.568706 
L 637.692692 242.419732 
L 640.821203 249.96109 
L 643.949714 259.820903 
L 647.078224 260.998268 
L 650.206735 215.633579 
L 653.335246 255.612954 
L 656.463757 228.775628 
L 659.592268 250.557612 
L 662.720779 271.433619 
L 665.84929 250.362906 
L 668.977801 258.024785 
L 668.977801 258.024785 
" clip-path="url(#p94e76fd649)" style="fill: none; stroke: #1f77b4; stroke-width: 1.5; stroke-linecap: square"/>
   </g>
   <g id="patch_3">
    <path d="M 38.27 390.04 
L 38.27 10.8 
" style="fill: none; stroke: #000000; stroke-width: 0.8; stroke-linejoin: miter; stroke-linecap: square"/>
   </g>
   <g id="patch_4">
    <path d="M 699.011506 390.04 
L 699.011506 10.8 
" style="fill: none; stroke: #000000; stroke-width: 0.8; stroke-linejoin: miter; stroke-linecap: square"/>
   </g>
   <g id="patch_5">
    <path d="M 38.27 390.04 
L 699.011506 390.04 
" style="fill: none; stroke: #000000; stroke-width: 0.8; stroke-linejoin: miter; stroke-linecap: square"/>
   </g>
   <g id="patch_6">
    <path d="M 38.27 10.8 
L 699.011506 10.8 
" style="fill: none; stroke: #000000; stroke-width: 0.8; stroke-linejoin: miter; stroke-linecap: square"/>
   </g>
  </g>
 </g>
 <defs>
  <clipPath id="p94e76fd649">
   <rect x="38.27" y="10.8" width="660.741506" height="379.24"/>
  </clipPath>
 </defs>
</svg>
