<?xml version="1.0" encoding="utf-8" standalone="no"?>
<!DOCTYPE svg PUBLIC "-//W3C//DTD SVG 1.1//EN"
  "http://www.w3.org/Graphics/SVG/1.1/DTD/svg11.dtd">
<svg xmlns:xlink="http://www.w3.org/1999/xlink" width="720pt" height="432pt" viewBox="0 0 720 432" xmlns="http://www.w3.org/2000/svg" version="1.1">
 <metadata>
  <rdf:RDF xmlns:dc="http://purl.org/dc/elements/1.1/" xmlns:cc="http://creativecommons.org/ns#" xmlns:rdf="http://www.w3.org/1999/02/22-rdf-syntax-ns#">
   <cc:Work>
    <dc:type rdf:resource="http://purl.org/dc/dcmitype/StillImage"/>
    <dc:date>2025-04-15T14:44:12.832385</dc:date>
    <dc:format>image/svg+xml</dc:format>
    <dc:creator>
     <cc:Agent>
      <dc:title>Matplotlib v3.10.0, https://matplotlib.org/</dc:title>
     </cc:Agent>
    </dc:creator>
   </cc:Work>
  </rdf:RDF>
 </metadata>
 <defs>
  <style type="text/css">*{stroke-linejoin: round; stroke-linecap: butt}</style>
 </defs>
 <g id="figure_1">
  <g id="patch_1">
   <path d="M 0 432 
L 720 432 
L 720 0 
L 0 0 
z
" style="fill: #ffffff"/>
  </g>
  <g id="axes_1">
   <g id="patch_2">
    <path d="M 47.72 390.04 
L 699.011506 390.04 
L 699.011506 10.8 
L 47.72 10.8 
z
" style="fill: #ffffff"/>
   </g>
   <g id="FillBetweenPolyCollection_1">
    <path d="M 77.324159 66.495977 
L 77.324159 354.222298 
L 80.407926 358.279706 
L 83.491693 344.84557 
L 86.575459 341.485638 
L 89.659226 354.682877 
L 92.742992 364.417966 
L 95.826759 340.119892 
L 98.910526 349.725428 
L 101.994292 345.80687 
L 105.078059 345.425541 
L 108.161825 351.386329 
L 111.245592 352.555134 
L 114.329359 349.568107 
L 117.413125 343.630799 
L 120.496892 347.084325 
L 123.580658 347.520828 
L 126.664425 347.069731 
L 129.748192 356.259418 
L 132.831958 357.106434 
L 135.915725 354.803746 
L 138.999491 355.835083 
L 142.083258 356.912304 
L 145.167025 360.722096 
L 148.250791 362.181489 
L 151.334558 355.756977 
L 154.418324 357.623265 
L 157.502091 350.077075 
L 160.585858 360.344022 
L 163.669624 358.475881 
L 166.753391 353.546461 
L 169.837157 353.780169 
L 172.920924 347.356449 
L 176.004691 345.497807 
L 179.088457 358.370358 
L 182.172224 346.741808 
L 185.25599 343.821328 
L 188.339757 350.041304 
L 191.423524 354.477783 
L 194.50729 351.172974 
L 197.591057 344.368598 
L 200.674823 354.013249 
L 203.75859 354.817289 
L 206.842357 353.887751 
L 209.926123 339.71538 
L 213.00989 351.620791 
L 216.093656 358.671688 
L 219.177423 355.365402 
L 222.261189 358.622862 
L 225.344956 362.960273 
L 228.428723 354.189139 
L 231.512489 363.96447 
L 234.596256 344.679064 
L 237.680022 347.739956 
L 240.763789 345.820597 
L 243.847556 349.548935 
L 246.931322 341.978993 
L 250.015089 357.914363 
L 253.098855 347.378722 
L 256.182622 346.709731 
L 259.266389 357.882302 
L 262.350155 354.59816 
L 265.433922 345.432362 
L 268.517688 353.660691 
L 271.601455 363.745108 
L 274.685222 338.410035 
L 277.768988 348.26341 
L 280.852755 368.612393 
L 283.936521 343.618243 
L 287.020288 359.896681 
L 290.104055 348.07681 
L 293.187821 355.961972 
L 296.271588 344.052571 
L 299.355354 340.826278 
L 302.439121 331.15122 
L 305.522888 345.031496 
L 308.606654 347.084833 
L 311.690421 353.085771 
L 314.774187 356.2861 
L 317.857954 355.651405 
L 320.941721 332.990364 
L 324.025487 372.437599 
L 327.109254 349.685937 
L 330.19302 353.883483 
L 333.276787 339.672799 
L 336.360554 359.319561 
L 339.44432 359.785941 
L 342.528087 358.566118 
L 345.611853 350.056074 
L 348.69562 358.64057 
L 351.779387 346.270081 
L 354.863153 352.904795 
L 357.94692 344.782861 
L 361.030686 360.278436 
L 364.114453 352.635922 
L 367.19822 353.478755 
L 370.281986 372.801818 
L 373.365753 361.147979 
L 376.449519 360.679466 
L 379.533286 346.551684 
L 382.617053 350.903237 
L 385.700819 356.563798 
L 388.784586 367.87552 
L 391.868352 355.268233 
L 394.952119 364.027259 
L 398.035886 341.78875 
L 401.119652 342.519856 
L 404.203419 331.561238 
L 407.287185 363.621524 
L 410.370952 350.379527 
L 413.454719 354.474218 
L 416.538485 332.680279 
L 419.622252 345.017405 
L 422.706018 357.031298 
L 425.789785 344.973882 
L 428.873552 352.862974 
L 431.957318 350.082218 
L 435.041085 359.374648 
L 438.124851 344.758808 
L 441.208618 342.862954 
L 444.292385 347.95147 
L 447.376151 345.783493 
L 450.459918 346.691793 
L 453.543684 364.177611 
L 456.627451 354.69622 
L 459.711218 358.248948 
L 462.794984 343.496461 
L 465.878751 354.909973 
L 468.962517 351.992614 
L 472.046284 359.397605 
L 475.130051 364.299409 
L 478.213817 346.660686 
L 481.297584 348.333525 
L 484.38135 354.627119 
L 487.465117 359.130567 
L 490.548884 336.138341 
L 493.63265 351.569361 
L 496.716417 351.677887 
L 499.800183 347.555071 
L 502.88395 339.271891 
L 505.967717 335.812829 
L 509.051483 341.854512 
L 512.13525 354.711524 
L 515.219016 342.791309 
L 518.302783 350.456959 
L 521.38655 354.805686 
L 524.470316 357.893688 
L 527.554083 356.304244 
L 530.637849 346.055711 
L 533.721616 334.888774 
L 536.805383 370.871598 
L 539.889149 349.64351 
L 542.972916 346.496433 
L 546.056682 348.616041 
L 549.140449 345.696382 
L 552.224216 352.80695 
L 555.307982 347.214515 
L 558.391749 353.940183 
L 561.475515 352.408801 
L 564.559282 367.400536 
L 567.643049 350.357742 
L 570.726815 360.280408 
L 573.810582 352.170552 
L 576.894348 347.721342 
L 579.978115 356.524218 
L 583.061882 367.858254 
L 586.145648 337.786204 
L 589.229415 348.744928 
L 592.313181 345.439505 
L 595.396948 340.949422 
L 598.480715 329.00739 
L 601.564481 337.340191 
L 604.648248 333.72161 
L 607.732014 356.643201 
L 610.815781 351.311075 
L 613.899548 362.076944 
L 616.983314 356.609942 
L 620.067081 343.265015 
L 623.150847 347.690847 
L 626.234614 346.239803 
L 629.318381 350.150872 
L 632.402147 361.585835 
L 635.485914 343.93086 
L 638.56968 337.263389 
L 641.653447 351.320777 
L 644.737214 361.913212 
L 647.82098 361.342455 
L 650.904747 348.557808 
L 653.988513 347.707953 
L 657.07228 331.572143 
L 660.156047 358.376472 
L 663.239813 354.798303 
L 666.32358 337.170081 
L 669.407346 354.262378 
L 669.407346 65.164796 
L 669.407346 65.164796 
L 666.32358 59.340044 
L 663.239813 48.490104 
L 660.156047 73.961714 
L 657.07228 43.312036 
L 653.988513 63.649838 
L 650.904747 65.05941 
L 647.82098 56.793617 
L 644.737214 77.848807 
L 641.653447 70.6886 
L 638.56968 49.886252 
L 635.485914 54.193142 
L 632.402147 68.492924 
L 629.318381 53.137536 
L 626.234614 56.080278 
L 623.150847 47.528177 
L 620.067081 63.573921 
L 616.983314 72.500491 
L 613.899548 57.350229 
L 610.815781 46.490151 
L 607.732014 64.397849 
L 604.648248 53.105255 
L 601.564481 55.296631 
L 598.480715 42.003484 
L 595.396948 52.010175 
L 592.313181 58.494453 
L 589.229415 68.100043 
L 586.145648 46.458459 
L 583.061882 81.26425 
L 579.978115 62.58018 
L 576.894348 54.275964 
L 573.810582 60.155564 
L 570.726815 69.798351 
L 567.643049 64.550577 
L 564.559282 69.13373 
L 561.475515 82.511588 
L 558.391749 58.063158 
L 555.307982 54.460016 
L 552.224216 63.715245 
L 549.140449 54.687047 
L 546.056682 57.90012 
L 542.972916 53.564221 
L 539.889149 50.417144 
L 536.805383 59.529937 
L 533.721616 43.545933 
L 530.637849 61.751551 
L 527.554083 52.794119 
L 524.470316 71.862296 
L 521.38655 58.488756 
L 518.302783 55.736427 
L 515.219016 50.168288 
L 512.13525 47.931332 
L 509.051483 48.200106 
L 505.967717 37.134698 
L 502.88395 31.416208 
L 499.800183 55.733337 
L 496.716417 64.521533 
L 493.63265 67.857813 
L 490.548884 52.625177 
L 487.465117 57.714403 
L 484.38135 64.477279 
L 481.297584 59.473737 
L 478.213817 56.950497 
L 475.130051 66.102125 
L 472.046284 67.130626 
L 468.962517 74.212841 
L 465.878751 55.802266 
L 462.794984 50.108687 
L 459.711218 53.754394 
L 456.627451 54.724919 
L 453.543684 58.800091 
L 450.459918 44.331152 
L 447.376151 66.219848 
L 444.292385 54.045836 
L 441.208618 64.621532 
L 438.124851 61.757352 
L 435.041085 64.248605 
L 431.957318 60.307246 
L 428.873552 60.108693 
L 425.789785 55.409548 
L 422.706018 68.851383 
L 419.622252 66.663161 
L 416.538485 56.083239 
L 413.454719 50.750841 
L 410.370952 58.718836 
L 407.287185 71.944416 
L 404.203419 52.037874 
L 401.119652 57.218023 
L 398.035886 64.08186 
L 394.952119 65.083174 
L 391.868352 65.772818 
L 388.784586 68.981522 
L 385.700819 55.439543 
L 382.617053 59.809003 
L 379.533286 49.31289 
L 376.449519 67.462642 
L 373.365753 57.633644 
L 370.281986 69.219628 
L 367.19822 56.587935 
L 364.114453 67.759578 
L 361.030686 65.604245 
L 357.94692 64.315502 
L 354.863153 76.205638 
L 351.779387 59.923304 
L 348.69562 82.41255 
L 345.611853 60.333391 
L 342.528087 62.797707 
L 339.44432 62.54621 
L 336.360554 63.01259 
L 333.276787 43.280763 
L 330.19302 71.353646 
L 327.109254 47.792514 
L 324.025487 57.318385 
L 320.941721 53.513727 
L 317.857954 60.870791 
L 314.774187 58.944995 
L 311.690421 47.620434 
L 308.606654 56.203575 
L 305.522888 58.579687 
L 302.439121 43.410183 
L 299.355354 43.418385 
L 296.271588 54.071431 
L 293.187821 63.142426 
L 290.104055 54.243271 
L 287.020288 64.049347 
L 283.936521 28.038182 
L 280.852755 78.896234 
L 277.768988 55.024997 
L 274.685222 36.474143 
L 271.601455 44.062153 
L 268.517688 77.386394 
L 265.433922 60.438248 
L 262.350155 54.177427 
L 259.266389 56.057691 
L 256.182622 52.059822 
L 253.098855 58.491888 
L 250.015089 61.835586 
L 246.931322 55.176683 
L 243.847556 52.125596 
L 240.763789 62.632216 
L 237.680022 58.776205 
L 234.596256 55.058814 
L 231.512489 80.316404 
L 228.428723 50.067594 
L 225.344956 68.086812 
L 222.261189 60.158761 
L 219.177423 65.998423 
L 216.093656 49.458349 
L 213.00989 50.05374 
L 209.926123 57.763071 
L 206.842357 58.761141 
L 203.75859 62.673232 
L 200.674823 65.091149 
L 197.591057 51.495976 
L 194.50729 69.545301 
L 191.423524 44.93732 
L 188.339757 63.575913 
L 185.25599 44.296639 
L 182.172224 59.774352 
L 179.088457 69.126198 
L 176.004691 55.853948 
L 172.920924 58.836936 
L 169.837157 63.387577 
L 166.753391 48.77362 
L 163.669624 52.236359 
L 160.585858 62.956456 
L 157.502091 58.375737 
L 154.418324 49.861222 
L 151.334558 61.733545 
L 148.250791 55.631807 
L 145.167025 69.356663 
L 142.083258 64.128746 
L 138.999491 68.433721 
L 135.915725 43.320256 
L 132.831958 55.865233 
L 129.748192 54.130047 
L 126.664425 46.212641 
L 123.580658 59.318108 
L 120.496892 51.362452 
L 117.413125 42.873291 
L 114.329359 43.068714 
L 111.245592 50.087723 
L 108.161825 52.547629 
L 105.078059 48.825157 
L 101.994292 73.943079 
L 98.910526 41.297517 
L 95.826759 70.915123 
L 92.742992 55.009208 
L 89.659226 68.940375 
L 86.575459 70.194928 
L 83.491693 56.18341 
L 80.407926 70.830728 
L 77.324159 66.495977 
z
" clip-path="url(#p04b7bb3fd5)" style="fill: #1f77b4; fill-opacity: 0.2"/>
   </g>
   <g id="matplotlib.axis_1">
    <g id="xtick_1">
     <g id="line2d_1">
      <path d="M 75.766857 390.04 
L 75.766857 10.8 
" clip-path="url(#p04b7bb3fd5)" style="fill: none; stroke: #b0b0b0; stroke-width: 0.8; stroke-linecap: square"/>
     </g>
     <g id="line2d_2">
      <defs>
       <path id="ma1272e2a43" d="M 0 0 
L 0 3.5 
" style="stroke: #000000; stroke-width: 0.8"/>
      </defs>
      <g>
       <use xlink:href="#ma1272e2a43" x="75.766857" y="390.04" style="stroke: #000000; stroke-width: 0.8"/>
      </g>
     </g>
     <g id="text_1">
      <!-- 0 -->
      <g transform="translate(72.585607 404.638438) scale(0.1 -0.1)">
       <defs>
        <path id="DejaVuSans-30" d="M 2034 4250 
Q 1547 4250 1301 3770 
Q 1056 3291 1056 2328 
Q 1056 1369 1301 889 
Q 1547 409 2034 409 
Q 2525 409 2770 889 
Q 3016 1369 3016 2328 
Q 3016 3291 2770 3770 
Q 2525 4250 2034 4250 
z
M 2034 4750 
Q 2819 4750 3233 4129 
Q 3647 3509 3647 2328 
Q 3647 1150 3233 529 
Q 2819 -91 2034 -91 
Q 1250 -91 836 529 
Q 422 1150 422 2328 
Q 422 3509 836 4129 
Q 1250 4750 2034 4750 
z
" transform="scale(0.015625)"/>
       </defs>
       <use xlink:href="#DejaVuSans-30"/>
      </g>
     </g>
    </g>
    <g id="xtick_2">
     <g id="line2d_3">
      <path d="M 152.861022 390.04 
L 152.861022 10.8 
" clip-path="url(#p04b7bb3fd5)" style="fill: none; stroke: #b0b0b0; stroke-width: 0.8; stroke-linecap: square"/>
     </g>
     <g id="line2d_4">
      <g>
       <use xlink:href="#ma1272e2a43" x="152.861022" y="390.04" style="stroke: #000000; stroke-width: 0.8"/>
      </g>
     </g>
     <g id="text_2">
      <!-- 5000 -->
      <g transform="translate(140.136022 404.638438) scale(0.1 -0.1)">
       <defs>
        <path id="DejaVuSans-35" d="M 691 4666 
L 3169 4666 
L 3169 4134 
L 1269 4134 
L 1269 2991 
Q 1406 3038 1543 3061 
Q 1681 3084 1819 3084 
Q 2600 3084 3056 2656 
Q 3513 2228 3513 1497 
Q 3513 744 3044 326 
Q 2575 -91 1722 -91 
Q 1428 -91 1123 -41 
Q 819 9 494 109 
L 494 744 
Q 775 591 1075 516 
Q 1375 441 1709 441 
Q 2250 441 2565 725 
Q 2881 1009 2881 1497 
Q 2881 1984 2565 2268 
Q 2250 2553 1709 2553 
Q 1456 2553 1204 2497 
Q 953 2441 691 2322 
L 691 4666 
z
" transform="scale(0.015625)"/>
       </defs>
       <use xlink:href="#DejaVuSans-35"/>
       <use xlink:href="#DejaVuSans-30" transform="translate(63.623047 0)"/>
       <use xlink:href="#DejaVuSans-30" transform="translate(127.246094 0)"/>
       <use xlink:href="#DejaVuSans-30" transform="translate(190.869141 0)"/>
      </g>
     </g>
    </g>
    <g id="xtick_3">
     <g id="line2d_5">
      <path d="M 229.955187 390.04 
L 229.955187 10.8 
" clip-path="url(#p04b7bb3fd5)" style="fill: none; stroke: #b0b0b0; stroke-width: 0.8; stroke-linecap: square"/>
     </g>
     <g id="line2d_6">
      <g>
       <use xlink:href="#ma1272e2a43" x="229.955187" y="390.04" style="stroke: #000000; stroke-width: 0.8"/>
      </g>
     </g>
     <g id="text_3">
      <!-- 10000 -->
      <g transform="translate(214.048937 404.638438) scale(0.1 -0.1)">
       <defs>
        <path id="DejaVuSans-31" d="M 794 531 
L 1825 531 
L 1825 4091 
L 703 3866 
L 703 4441 
L 1819 4666 
L 2450 4666 
L 2450 531 
L 3481 531 
L 3481 0 
L 794 0 
L 794 531 
z
" transform="scale(0.015625)"/>
       </defs>
       <use xlink:href="#DejaVuSans-31"/>
       <use xlink:href="#DejaVuSans-30" transform="translate(63.623047 0)"/>
       <use xlink:href="#DejaVuSans-30" transform="translate(127.246094 0)"/>
       <use xlink:href="#DejaVuSans-30" transform="translate(190.869141 0)"/>
       <use xlink:href="#DejaVuSans-30" transform="translate(254.492188 0)"/>
      </g>
     </g>
    </g>
    <g id="xtick_4">
     <g id="line2d_7">
      <path d="M 307.049352 390.04 
L 307.049352 10.8 
" clip-path="url(#p04b7bb3fd5)" style="fill: none; stroke: #b0b0b0; stroke-width: 0.8; stroke-linecap: square"/>
     </g>
     <g id="line2d_8">
      <g>
       <use xlink:href="#ma1272e2a43" x="307.049352" y="390.04" style="stroke: #000000; stroke-width: 0.8"/>
      </g>
     </g>
     <g id="text_4">
      <!-- 15000 -->
      <g transform="translate(291.143102 404.638438) scale(0.1 -0.1)">
       <use xlink:href="#DejaVuSans-31"/>
       <use xlink:href="#DejaVuSans-35" transform="translate(63.623047 0)"/>
       <use xlink:href="#DejaVuSans-30" transform="translate(127.246094 0)"/>
       <use xlink:href="#DejaVuSans-30" transform="translate(190.869141 0)"/>
       <use xlink:href="#DejaVuSans-30" transform="translate(254.492188 0)"/>
      </g>
     </g>
    </g>
    <g id="xtick_5">
     <g id="line2d_9">
      <path d="M 384.143517 390.04 
L 384.143517 10.8 
" clip-path="url(#p04b7bb3fd5)" style="fill: none; stroke: #b0b0b0; stroke-width: 0.8; stroke-linecap: square"/>
     </g>
     <g id="line2d_10">
      <g>
       <use xlink:href="#ma1272e2a43" x="384.143517" y="390.04" style="stroke: #000000; stroke-width: 0.8"/>
      </g>
     </g>
     <g id="text_5">
      <!-- 20000 -->
      <g transform="translate(368.237267 404.638438) scale(0.1 -0.1)">
       <defs>
        <path id="DejaVuSans-32" d="M 1228 531 
L 3431 531 
L 3431 0 
L 469 0 
L 469 531 
Q 828 903 1448 1529 
Q 2069 2156 2228 2338 
Q 2531 2678 2651 2914 
Q 2772 3150 2772 3378 
Q 2772 3750 2511 3984 
Q 2250 4219 1831 4219 
Q 1534 4219 1204 4116 
Q 875 4013 500 3803 
L 500 4441 
Q 881 4594 1212 4672 
Q 1544 4750 1819 4750 
Q 2544 4750 2975 4387 
Q 3406 4025 3406 3419 
Q 3406 3131 3298 2873 
Q 3191 2616 2906 2266 
Q 2828 2175 2409 1742 
Q 1991 1309 1228 531 
z
" transform="scale(0.015625)"/>
       </defs>
       <use xlink:href="#DejaVuSans-32"/>
       <use xlink:href="#DejaVuSans-30" transform="translate(63.623047 0)"/>
       <use xlink:href="#DejaVuSans-30" transform="translate(127.246094 0)"/>
       <use xlink:href="#DejaVuSans-30" transform="translate(190.869141 0)"/>
       <use xlink:href="#DejaVuSans-30" transform="translate(254.492188 0)"/>
      </g>
     </g>
    </g>
    <g id="xtick_6">
     <g id="line2d_11">
      <path d="M 461.237682 390.04 
L 461.237682 10.8 
" clip-path="url(#p04b7bb3fd5)" style="fill: none; stroke: #b0b0b0; stroke-width: 0.8; stroke-linecap: square"/>
     </g>
     <g id="line2d_12">
      <g>
       <use xlink:href="#ma1272e2a43" x="461.237682" y="390.04" style="stroke: #000000; stroke-width: 0.8"/>
      </g>
     </g>
     <g id="text_6">
      <!-- 25000 -->
      <g transform="translate(445.331432 404.638438) scale(0.1 -0.1)">
       <use xlink:href="#DejaVuSans-32"/>
       <use xlink:href="#DejaVuSans-35" transform="translate(63.623047 0)"/>
       <use xlink:href="#DejaVuSans-30" transform="translate(127.246094 0)"/>
       <use xlink:href="#DejaVuSans-30" transform="translate(190.869141 0)"/>
       <use xlink:href="#DejaVuSans-30" transform="translate(254.492188 0)"/>
      </g>
     </g>
    </g>
    <g id="xtick_7">
     <g id="line2d_13">
      <path d="M 538.331847 390.04 
L 538.331847 10.8 
" clip-path="url(#p04b7bb3fd5)" style="fill: none; stroke: #b0b0b0; stroke-width: 0.8; stroke-linecap: square"/>
     </g>
     <g id="line2d_14">
      <g>
       <use xlink:href="#ma1272e2a43" x="538.331847" y="390.04" style="stroke: #000000; stroke-width: 0.8"/>
      </g>
     </g>
     <g id="text_7">
      <!-- 30000 -->
      <g transform="translate(522.425597 404.638438) scale(0.1 -0.1)">
       <defs>
        <path id="DejaVuSans-33" d="M 2597 2516 
Q 3050 2419 3304 2112 
Q 3559 1806 3559 1356 
Q 3559 666 3084 287 
Q 2609 -91 1734 -91 
Q 1441 -91 1130 -33 
Q 819 25 488 141 
L 488 750 
Q 750 597 1062 519 
Q 1375 441 1716 441 
Q 2309 441 2620 675 
Q 2931 909 2931 1356 
Q 2931 1769 2642 2001 
Q 2353 2234 1838 2234 
L 1294 2234 
L 1294 2753 
L 1863 2753 
Q 2328 2753 2575 2939 
Q 2822 3125 2822 3475 
Q 2822 3834 2567 4026 
Q 2313 4219 1838 4219 
Q 1578 4219 1281 4162 
Q 984 4106 628 3988 
L 628 4550 
Q 988 4650 1302 4700 
Q 1616 4750 1894 4750 
Q 2613 4750 3031 4423 
Q 3450 4097 3450 3541 
Q 3450 3153 3228 2886 
Q 3006 2619 2597 2516 
z
" transform="scale(0.015625)"/>
       </defs>
       <use xlink:href="#DejaVuSans-33"/>
       <use xlink:href="#DejaVuSans-30" transform="translate(63.623047 0)"/>
       <use xlink:href="#DejaVuSans-30" transform="translate(127.246094 0)"/>
       <use xlink:href="#DejaVuSans-30" transform="translate(190.869141 0)"/>
       <use xlink:href="#DejaVuSans-30" transform="translate(254.492188 0)"/>
      </g>
     </g>
    </g>
    <g id="xtick_8">
     <g id="line2d_15">
      <path d="M 615.426012 390.04 
L 615.426012 10.8 
" clip-path="url(#p04b7bb3fd5)" style="fill: none; stroke: #b0b0b0; stroke-width: 0.8; stroke-linecap: square"/>
     </g>
     <g id="line2d_16">
      <g>
       <use xlink:href="#ma1272e2a43" x="615.426012" y="390.04" style="stroke: #000000; stroke-width: 0.8"/>
      </g>
     </g>
     <g id="text_8">
      <!-- 35000 -->
      <g transform="translate(599.519762 404.638438) scale(0.1 -0.1)">
       <use xlink:href="#DejaVuSans-33"/>
       <use xlink:href="#DejaVuSans-35" transform="translate(63.623047 0)"/>
       <use xlink:href="#DejaVuSans-30" transform="translate(127.246094 0)"/>
       <use xlink:href="#DejaVuSans-30" transform="translate(190.869141 0)"/>
       <use xlink:href="#DejaVuSans-30" transform="translate(254.492188 0)"/>
      </g>
     </g>
    </g>
    <g id="xtick_9">
     <g id="line2d_17">
      <path d="M 692.520177 390.04 
L 692.520177 10.8 
" clip-path="url(#p04b7bb3fd5)" style="fill: none; stroke: #b0b0b0; stroke-width: 0.8; stroke-linecap: square"/>
     </g>
     <g id="line2d_18">
      <g>
       <use xlink:href="#ma1272e2a43" x="692.520177" y="390.04" style="stroke: #000000; stroke-width: 0.8"/>
      </g>
     </g>
     <g id="text_9">
      <!-- 40000 -->
      <g transform="translate(676.613927 404.638438) scale(0.1 -0.1)">
       <defs>
        <path id="DejaVuSans-34" d="M 2419 4116 
L 825 1625 
L 2419 1625 
L 2419 4116 
z
M 2253 4666 
L 3047 4666 
L 3047 1625 
L 3713 1625 
L 3713 1100 
L 3047 1100 
L 3047 0 
L 2419 0 
L 2419 1100 
L 313 1100 
L 313 1709 
L 2253 4666 
z
" transform="scale(0.015625)"/>
       </defs>
       <use xlink:href="#DejaVuSans-34"/>
       <use xlink:href="#DejaVuSans-30" transform="translate(63.623047 0)"/>
       <use xlink:href="#DejaVuSans-30" transform="translate(127.246094 0)"/>
       <use xlink:href="#DejaVuSans-30" transform="translate(190.869141 0)"/>
       <use xlink:href="#DejaVuSans-30" transform="translate(254.492188 0)"/>
      </g>
     </g>
    </g>
    <g id="text_10">
     <!-- Episodes -->
     <g transform="translate(351.123565 418.316562) scale(0.1 -0.1)">
      <defs>
       <path id="DejaVuSans-45" d="M 628 4666 
L 3578 4666 
L 3578 4134 
L 1259 4134 
L 1259 2753 
L 3481 2753 
L 3481 2222 
L 1259 2222 
L 1259 531 
L 3634 531 
L 3634 0 
L 628 0 
L 628 4666 
z
" transform="scale(0.015625)"/>
       <path id="DejaVuSans-70" d="M 1159 525 
L 1159 -1331 
L 581 -1331 
L 581 3500 
L 1159 3500 
L 1159 2969 
Q 1341 3281 1617 3432 
Q 1894 3584 2278 3584 
Q 2916 3584 3314 3078 
Q 3713 2572 3713 1747 
Q 3713 922 3314 415 
Q 2916 -91 2278 -91 
Q 1894 -91 1617 61 
Q 1341 213 1159 525 
z
M 3116 1747 
Q 3116 2381 2855 2742 
Q 2594 3103 2138 3103 
Q 1681 3103 1420 2742 
Q 1159 2381 1159 1747 
Q 1159 1113 1420 752 
Q 1681 391 2138 391 
Q 2594 391 2855 752 
Q 3116 1113 3116 1747 
z
" transform="scale(0.015625)"/>
       <path id="DejaVuSans-69" d="M 603 3500 
L 1178 3500 
L 1178 0 
L 603 0 
L 603 3500 
z
M 603 4863 
L 1178 4863 
L 1178 4134 
L 603 4134 
L 603 4863 
z
" transform="scale(0.015625)"/>
       <path id="DejaVuSans-73" d="M 2834 3397 
L 2834 2853 
Q 2591 2978 2328 3040 
Q 2066 3103 1784 3103 
Q 1356 3103 1142 2972 
Q 928 2841 928 2578 
Q 928 2378 1081 2264 
Q 1234 2150 1697 2047 
L 1894 2003 
Q 2506 1872 2764 1633 
Q 3022 1394 3022 966 
Q 3022 478 2636 193 
Q 2250 -91 1575 -91 
Q 1294 -91 989 -36 
Q 684 19 347 128 
L 347 722 
Q 666 556 975 473 
Q 1284 391 1588 391 
Q 1994 391 2212 530 
Q 2431 669 2431 922 
Q 2431 1156 2273 1281 
Q 2116 1406 1581 1522 
L 1381 1569 
Q 847 1681 609 1914 
Q 372 2147 372 2553 
Q 372 3047 722 3315 
Q 1072 3584 1716 3584 
Q 2034 3584 2315 3537 
Q 2597 3491 2834 3397 
z
" transform="scale(0.015625)"/>
       <path id="DejaVuSans-6f" d="M 1959 3097 
Q 1497 3097 1228 2736 
Q 959 2375 959 1747 
Q 959 1119 1226 758 
Q 1494 397 1959 397 
Q 2419 397 2687 759 
Q 2956 1122 2956 1747 
Q 2956 2369 2687 2733 
Q 2419 3097 1959 3097 
z
M 1959 3584 
Q 2709 3584 3137 3096 
Q 3566 2609 3566 1747 
Q 3566 888 3137 398 
Q 2709 -91 1959 -91 
Q 1206 -91 779 398 
Q 353 888 353 1747 
Q 353 2609 779 3096 
Q 1206 3584 1959 3584 
z
" transform="scale(0.015625)"/>
       <path id="DejaVuSans-64" d="M 2906 2969 
L 2906 4863 
L 3481 4863 
L 3481 0 
L 2906 0 
L 2906 525 
Q 2725 213 2448 61 
Q 2172 -91 1784 -91 
Q 1150 -91 751 415 
Q 353 922 353 1747 
Q 353 2572 751 3078 
Q 1150 3584 1784 3584 
Q 2172 3584 2448 3432 
Q 2725 3281 2906 2969 
z
M 947 1747 
Q 947 1113 1208 752 
Q 1469 391 1925 391 
Q 2381 391 2643 752 
Q 2906 1113 2906 1747 
Q 2906 2381 2643 2742 
Q 2381 3103 1925 3103 
Q 1469 3103 1208 2742 
Q 947 2381 947 1747 
z
" transform="scale(0.015625)"/>
       <path id="DejaVuSans-65" d="M 3597 1894 
L 3597 1613 
L 953 1613 
Q 991 1019 1311 708 
Q 1631 397 2203 397 
Q 2534 397 2845 478 
Q 3156 559 3463 722 
L 3463 178 
Q 3153 47 2828 -22 
Q 2503 -91 2169 -91 
Q 1331 -91 842 396 
Q 353 884 353 1716 
Q 353 2575 817 3079 
Q 1281 3584 2069 3584 
Q 2775 3584 3186 3129 
Q 3597 2675 3597 1894 
z
M 3022 2063 
Q 3016 2534 2758 2815 
Q 2500 3097 2075 3097 
Q 1594 3097 1305 2825 
Q 1016 2553 972 2059 
L 3022 2063 
z
" transform="scale(0.015625)"/>
      </defs>
      <use xlink:href="#DejaVuSans-45"/>
      <use xlink:href="#DejaVuSans-70" transform="translate(63.183594 0)"/>
      <use xlink:href="#DejaVuSans-69" transform="translate(126.660156 0)"/>
      <use xlink:href="#DejaVuSans-73" transform="translate(154.443359 0)"/>
      <use xlink:href="#DejaVuSans-6f" transform="translate(206.542969 0)"/>
      <use xlink:href="#DejaVuSans-64" transform="translate(267.724609 0)"/>
      <use xlink:href="#DejaVuSans-65" transform="translate(331.201172 0)"/>
      <use xlink:href="#DejaVuSans-73" transform="translate(392.724609 0)"/>
     </g>
    </g>
   </g>
   <g id="matplotlib.axis_2">
    <g id="ytick_1">
     <g id="line2d_19">
      <path d="M 47.72 366.905171 
L 699.011506 366.905171 
" clip-path="url(#p04b7bb3fd5)" style="fill: none; stroke: #b0b0b0; stroke-width: 0.8; stroke-linecap: square"/>
     </g>
     <g id="line2d_20">
      <defs>
       <path id="m76d3d971d5" d="M 0 0 
L -3.5 0 
" style="stroke: #000000; stroke-width: 0.8"/>
      </defs>
      <g>
       <use xlink:href="#m76d3d971d5" x="47.72" y="366.905171" style="stroke: #000000; stroke-width: 0.8"/>
      </g>
     </g>
     <g id="text_11">
      <!-- 3.5 -->
      <g transform="translate(24.816875 370.70439) scale(0.1 -0.1)">
       <defs>
        <path id="DejaVuSans-2e" d="M 684 794 
L 1344 794 
L 1344 0 
L 684 0 
L 684 794 
z
" transform="scale(0.015625)"/>
       </defs>
       <use xlink:href="#DejaVuSans-33"/>
       <use xlink:href="#DejaVuSans-2e" transform="translate(63.623047 0)"/>
       <use xlink:href="#DejaVuSans-35" transform="translate(95.410156 0)"/>
      </g>
     </g>
    </g>
    <g id="ytick_2">
     <g id="line2d_21">
      <path d="M 47.72 318.488872 
L 699.011506 318.488872 
" clip-path="url(#p04b7bb3fd5)" style="fill: none; stroke: #b0b0b0; stroke-width: 0.8; stroke-linecap: square"/>
     </g>
     <g id="line2d_22">
      <g>
       <use xlink:href="#m76d3d971d5" x="47.72" y="318.488872" style="stroke: #000000; stroke-width: 0.8"/>
      </g>
     </g>
     <g id="text_12">
      <!-- 4.0 -->
      <g transform="translate(24.816875 322.288091) scale(0.1 -0.1)">
       <use xlink:href="#DejaVuSans-34"/>
       <use xlink:href="#DejaVuSans-2e" transform="translate(63.623047 0)"/>
       <use xlink:href="#DejaVuSans-30" transform="translate(95.410156 0)"/>
      </g>
     </g>
    </g>
    <g id="ytick_3">
     <g id="line2d_23">
      <path d="M 47.72 270.072573 
L 699.011506 270.072573 
" clip-path="url(#p04b7bb3fd5)" style="fill: none; stroke: #b0b0b0; stroke-width: 0.8; stroke-linecap: square"/>
     </g>
     <g id="line2d_24">
      <g>
       <use xlink:href="#m76d3d971d5" x="47.72" y="270.072573" style="stroke: #000000; stroke-width: 0.8"/>
      </g>
     </g>
     <g id="text_13">
      <!-- 4.5 -->
      <g transform="translate(24.816875 273.871792) scale(0.1 -0.1)">
       <use xlink:href="#DejaVuSans-34"/>
       <use xlink:href="#DejaVuSans-2e" transform="translate(63.623047 0)"/>
       <use xlink:href="#DejaVuSans-35" transform="translate(95.410156 0)"/>
      </g>
     </g>
    </g>
    <g id="ytick_4">
     <g id="line2d_25">
      <path d="M 47.72 221.656274 
L 699.011506 221.656274 
" clip-path="url(#p04b7bb3fd5)" style="fill: none; stroke: #b0b0b0; stroke-width: 0.8; stroke-linecap: square"/>
     </g>
     <g id="line2d_26">
      <g>
       <use xlink:href="#m76d3d971d5" x="47.72" y="221.656274" style="stroke: #000000; stroke-width: 0.8"/>
      </g>
     </g>
     <g id="text_14">
      <!-- 5.0 -->
      <g transform="translate(24.816875 225.455493) scale(0.1 -0.1)">
       <use xlink:href="#DejaVuSans-35"/>
       <use xlink:href="#DejaVuSans-2e" transform="translate(63.623047 0)"/>
       <use xlink:href="#DejaVuSans-30" transform="translate(95.410156 0)"/>
      </g>
     </g>
    </g>
    <g id="ytick_5">
     <g id="line2d_27">
      <path d="M 47.72 173.239975 
L 699.011506 173.239975 
" clip-path="url(#p04b7bb3fd5)" style="fill: none; stroke: #b0b0b0; stroke-width: 0.8; stroke-linecap: square"/>
     </g>
     <g id="line2d_28">
      <g>
       <use xlink:href="#m76d3d971d5" x="47.72" y="173.239975" style="stroke: #000000; stroke-width: 0.8"/>
      </g>
     </g>
     <g id="text_15">
      <!-- 5.5 -->
      <g transform="translate(24.816875 177.039194) scale(0.1 -0.1)">
       <use xlink:href="#DejaVuSans-35"/>
       <use xlink:href="#DejaVuSans-2e" transform="translate(63.623047 0)"/>
       <use xlink:href="#DejaVuSans-35" transform="translate(95.410156 0)"/>
      </g>
     </g>
    </g>
    <g id="ytick_6">
     <g id="line2d_29">
      <path d="M 47.72 124.823676 
L 699.011506 124.823676 
" clip-path="url(#p04b7bb3fd5)" style="fill: none; stroke: #b0b0b0; stroke-width: 0.8; stroke-linecap: square"/>
     </g>
     <g id="line2d_30">
      <g>
       <use xlink:href="#m76d3d971d5" x="47.72" y="124.823676" style="stroke: #000000; stroke-width: 0.8"/>
      </g>
     </g>
     <g id="text_16">
      <!-- 6.0 -->
      <g transform="translate(24.816875 128.622895) scale(0.1 -0.1)">
       <defs>
        <path id="DejaVuSans-36" d="M 2113 2584 
Q 1688 2584 1439 2293 
Q 1191 2003 1191 1497 
Q 1191 994 1439 701 
Q 1688 409 2113 409 
Q 2538 409 2786 701 
Q 3034 994 3034 1497 
Q 3034 2003 2786 2293 
Q 2538 2584 2113 2584 
z
M 3366 4563 
L 3366 3988 
Q 3128 4100 2886 4159 
Q 2644 4219 2406 4219 
Q 1781 4219 1451 3797 
Q 1122 3375 1075 2522 
Q 1259 2794 1537 2939 
Q 1816 3084 2150 3084 
Q 2853 3084 3261 2657 
Q 3669 2231 3669 1497 
Q 3669 778 3244 343 
Q 2819 -91 2113 -91 
Q 1303 -91 875 529 
Q 447 1150 447 2328 
Q 447 3434 972 4092 
Q 1497 4750 2381 4750 
Q 2619 4750 2861 4703 
Q 3103 4656 3366 4563 
z
" transform="scale(0.015625)"/>
       </defs>
       <use xlink:href="#DejaVuSans-36"/>
       <use xlink:href="#DejaVuSans-2e" transform="translate(63.623047 0)"/>
       <use xlink:href="#DejaVuSans-30" transform="translate(95.410156 0)"/>
      </g>
     </g>
    </g>
    <g id="ytick_7">
     <g id="line2d_31">
      <path d="M 47.72 76.407377 
L 699.011506 76.407377 
" clip-path="url(#p04b7bb3fd5)" style="fill: none; stroke: #b0b0b0; stroke-width: 0.8; stroke-linecap: square"/>
     </g>
     <g id="line2d_32">
      <g>
       <use xlink:href="#m76d3d971d5" x="47.72" y="76.407377" style="stroke: #000000; stroke-width: 0.8"/>
      </g>
     </g>
     <g id="text_17">
      <!-- 6.5 -->
      <g transform="translate(24.816875 80.206596) scale(0.1 -0.1)">
       <use xlink:href="#DejaVuSans-36"/>
       <use xlink:href="#DejaVuSans-2e" transform="translate(63.623047 0)"/>
       <use xlink:href="#DejaVuSans-35" transform="translate(95.410156 0)"/>
      </g>
     </g>
    </g>
    <g id="ytick_8">
     <g id="line2d_33">
      <path d="M 47.72 27.991078 
L 699.011506 27.991078 
" clip-path="url(#p04b7bb3fd5)" style="fill: none; stroke: #b0b0b0; stroke-width: 0.8; stroke-linecap: square"/>
     </g>
     <g id="line2d_34">
      <g>
       <use xlink:href="#m76d3d971d5" x="47.72" y="27.991078" style="stroke: #000000; stroke-width: 0.8"/>
      </g>
     </g>
     <g id="text_18">
      <!-- 7.0 -->
      <g transform="translate(24.816875 31.790296) scale(0.1 -0.1)">
       <defs>
        <path id="DejaVuSans-37" d="M 525 4666 
L 3525 4666 
L 3525 4397 
L 1831 0 
L 1172 0 
L 2766 4134 
L 525 4134 
L 525 4666 
z
" transform="scale(0.015625)"/>
       </defs>
       <use xlink:href="#DejaVuSans-37"/>
       <use xlink:href="#DejaVuSans-2e" transform="translate(63.623047 0)"/>
       <use xlink:href="#DejaVuSans-30" transform="translate(95.410156 0)"/>
      </g>
     </g>
    </g>
    <g id="text_19">
     <!-- Quantum Gates -->
     <g transform="translate(18.737188 239.925469) rotate(-90) scale(0.1 -0.1)">
      <defs>
       <path id="DejaVuSans-51" d="M 2522 4238 
Q 1834 4238 1429 3725 
Q 1025 3213 1025 2328 
Q 1025 1447 1429 934 
Q 1834 422 2522 422 
Q 3209 422 3611 934 
Q 4013 1447 4013 2328 
Q 4013 3213 3611 3725 
Q 3209 4238 2522 4238 
z
M 3406 84 
L 4238 -825 
L 3475 -825 
L 2784 -78 
Q 2681 -84 2626 -87 
Q 2572 -91 2522 -91 
Q 1538 -91 948 567 
Q 359 1225 359 2328 
Q 359 3434 948 4092 
Q 1538 4750 2522 4750 
Q 3503 4750 4090 4092 
Q 4678 3434 4678 2328 
Q 4678 1516 4351 937 
Q 4025 359 3406 84 
z
" transform="scale(0.015625)"/>
       <path id="DejaVuSans-75" d="M 544 1381 
L 544 3500 
L 1119 3500 
L 1119 1403 
Q 1119 906 1312 657 
Q 1506 409 1894 409 
Q 2359 409 2629 706 
Q 2900 1003 2900 1516 
L 2900 3500 
L 3475 3500 
L 3475 0 
L 2900 0 
L 2900 538 
Q 2691 219 2414 64 
Q 2138 -91 1772 -91 
Q 1169 -91 856 284 
Q 544 659 544 1381 
z
M 1991 3584 
L 1991 3584 
z
" transform="scale(0.015625)"/>
       <path id="DejaVuSans-61" d="M 2194 1759 
Q 1497 1759 1228 1600 
Q 959 1441 959 1056 
Q 959 750 1161 570 
Q 1363 391 1709 391 
Q 2188 391 2477 730 
Q 2766 1069 2766 1631 
L 2766 1759 
L 2194 1759 
z
M 3341 1997 
L 3341 0 
L 2766 0 
L 2766 531 
Q 2569 213 2275 61 
Q 1981 -91 1556 -91 
Q 1019 -91 701 211 
Q 384 513 384 1019 
Q 384 1609 779 1909 
Q 1175 2209 1959 2209 
L 2766 2209 
L 2766 2266 
Q 2766 2663 2505 2880 
Q 2244 3097 1772 3097 
Q 1472 3097 1187 3025 
Q 903 2953 641 2809 
L 641 3341 
Q 956 3463 1253 3523 
Q 1550 3584 1831 3584 
Q 2591 3584 2966 3190 
Q 3341 2797 3341 1997 
z
" transform="scale(0.015625)"/>
       <path id="DejaVuSans-6e" d="M 3513 2113 
L 3513 0 
L 2938 0 
L 2938 2094 
Q 2938 2591 2744 2837 
Q 2550 3084 2163 3084 
Q 1697 3084 1428 2787 
Q 1159 2491 1159 1978 
L 1159 0 
L 581 0 
L 581 3500 
L 1159 3500 
L 1159 2956 
Q 1366 3272 1645 3428 
Q 1925 3584 2291 3584 
Q 2894 3584 3203 3211 
Q 3513 2838 3513 2113 
z
" transform="scale(0.015625)"/>
       <path id="DejaVuSans-74" d="M 1172 4494 
L 1172 3500 
L 2356 3500 
L 2356 3053 
L 1172 3053 
L 1172 1153 
Q 1172 725 1289 603 
Q 1406 481 1766 481 
L 2356 481 
L 2356 0 
L 1766 0 
Q 1100 0 847 248 
Q 594 497 594 1153 
L 594 3053 
L 172 3053 
L 172 3500 
L 594 3500 
L 594 4494 
L 1172 4494 
z
" transform="scale(0.015625)"/>
       <path id="DejaVuSans-6d" d="M 3328 2828 
Q 3544 3216 3844 3400 
Q 4144 3584 4550 3584 
Q 5097 3584 5394 3201 
Q 5691 2819 5691 2113 
L 5691 0 
L 5113 0 
L 5113 2094 
Q 5113 2597 4934 2840 
Q 4756 3084 4391 3084 
Q 3944 3084 3684 2787 
Q 3425 2491 3425 1978 
L 3425 0 
L 2847 0 
L 2847 2094 
Q 2847 2600 2669 2842 
Q 2491 3084 2119 3084 
Q 1678 3084 1418 2786 
Q 1159 2488 1159 1978 
L 1159 0 
L 581 0 
L 581 3500 
L 1159 3500 
L 1159 2956 
Q 1356 3278 1631 3431 
Q 1906 3584 2284 3584 
Q 2666 3584 2933 3390 
Q 3200 3197 3328 2828 
z
" transform="scale(0.015625)"/>
       <path id="DejaVuSans-20" transform="scale(0.015625)"/>
       <path id="DejaVuSans-47" d="M 3809 666 
L 3809 1919 
L 2778 1919 
L 2778 2438 
L 4434 2438 
L 4434 434 
Q 4069 175 3628 42 
Q 3188 -91 2688 -91 
Q 1594 -91 976 548 
Q 359 1188 359 2328 
Q 359 3472 976 4111 
Q 1594 4750 2688 4750 
Q 3144 4750 3555 4637 
Q 3966 4525 4313 4306 
L 4313 3634 
Q 3963 3931 3569 4081 
Q 3175 4231 2741 4231 
Q 1884 4231 1454 3753 
Q 1025 3275 1025 2328 
Q 1025 1384 1454 906 
Q 1884 428 2741 428 
Q 3075 428 3337 486 
Q 3600 544 3809 666 
z
" transform="scale(0.015625)"/>
      </defs>
      <use xlink:href="#DejaVuSans-51"/>
      <use xlink:href="#DejaVuSans-75" transform="translate(78.710938 0)"/>
      <use xlink:href="#DejaVuSans-61" transform="translate(142.089844 0)"/>
      <use xlink:href="#DejaVuSans-6e" transform="translate(203.369141 0)"/>
      <use xlink:href="#DejaVuSans-74" transform="translate(266.748047 0)"/>
      <use xlink:href="#DejaVuSans-75" transform="translate(305.957031 0)"/>
      <use xlink:href="#DejaVuSans-6d" transform="translate(369.335938 0)"/>
      <use xlink:href="#DejaVuSans-20" transform="translate(466.748047 0)"/>
      <use xlink:href="#DejaVuSans-47" transform="translate(498.535156 0)"/>
      <use xlink:href="#DejaVuSans-61" transform="translate(576.025391 0)"/>
      <use xlink:href="#DejaVuSans-74" transform="translate(637.304688 0)"/>
      <use xlink:href="#DejaVuSans-65" transform="translate(676.513672 0)"/>
      <use xlink:href="#DejaVuSans-73" transform="translate(738.037109 0)"/>
     </g>
    </g>
   </g>
   <g id="line2d_35">
    <path d="M 77.324159 210.359137 
L 80.407926 214.555217 
L 83.491693 200.51449 
L 86.575459 205.840283 
L 89.659226 211.811626 
L 92.742992 209.713587 
L 95.826759 205.517508 
L 98.910526 195.511472 
L 101.994292 209.874974 
L 105.078059 197.125349 
L 108.161825 201.966979 
L 111.245592 201.321428 
L 114.329359 196.318411 
L 117.413125 193.252045 
L 120.496892 199.223389 
L 123.580658 203.419468 
L 126.664425 196.641186 
L 129.748192 205.194732 
L 132.831958 206.485834 
L 135.915725 199.062001 
L 138.999491 212.134402 
L 142.083258 210.520525 
L 145.167025 215.03938 
L 148.250791 208.906648 
L 151.334558 208.745261 
L 154.418324 203.742243 
L 157.502091 204.226406 
L 160.585858 211.650239 
L 163.669624 205.35612 
L 166.753391 201.160041 
L 169.837157 208.583873 
L 172.920924 203.096693 
L 176.004691 200.675878 
L 179.088457 213.748278 
L 182.172224 203.25808 
L 185.25599 194.058983 
L 188.339757 206.808609 
L 191.423524 199.707552 
L 194.50729 210.359137 
L 197.591057 197.932287 
L 200.674823 209.552199 
L 203.75859 208.745261 
L 206.842357 206.324446 
L 209.926123 198.739226 
L 213.00989 200.837265 
L 216.093656 204.065019 
L 219.177423 210.681913 
L 222.261189 209.390811 
L 225.344956 215.523543 
L 228.428723 202.128367 
L 231.512489 222.140437 
L 234.596256 199.868939 
L 237.680022 203.25808 
L 240.763789 204.226406 
L 243.847556 200.837265 
L 246.931322 198.577838 
L 250.015089 209.874974 
L 253.098855 202.935305 
L 256.182622 199.384776 
L 259.266389 206.969997 
L 262.350155 204.387794 
L 265.433922 202.935305 
L 268.517688 215.523543 
L 271.601455 203.903631 
L 274.685222 187.442089 
L 277.768988 201.644204 
L 280.852755 223.754314 
L 283.936521 185.828213 
L 287.020288 211.973014 
L 290.104055 201.160041 
L 293.187821 209.552199 
L 296.271588 199.062001 
L 299.355354 192.122331 
L 302.439121 187.280702 
L 305.522888 201.805591 
L 308.606654 201.644204 
L 311.690421 200.353102 
L 314.774187 207.615547 
L 317.857954 208.261098 
L 320.941721 193.252045 
L 324.025487 214.877992 
L 327.109254 198.739226 
L 330.19302 212.618565 
L 333.276787 191.476781 
L 336.360554 211.166076 
L 339.44432 211.166076 
L 342.528087 210.681913 
L 345.611853 205.194732 
L 348.69562 220.52656 
L 351.779387 203.096693 
L 354.863153 214.555217 
L 357.94692 204.549182 
L 361.030686 212.94134 
L 364.114453 210.19775 
L 367.19822 205.033345 
L 370.281986 221.010723 
L 373.365753 209.390811 
L 376.449519 214.071054 
L 379.533286 197.932287 
L 382.617053 205.35612 
L 385.700819 206.001671 
L 388.784586 218.428521 
L 391.868352 210.520525 
L 394.952119 214.555217 
L 398.035886 202.935305 
L 401.119652 199.868939 
L 404.203419 191.799556 
L 407.287185 217.78297 
L 410.370952 204.549182 
L 413.454719 202.61253 
L 416.538485 194.381759 
L 419.622252 205.840283 
L 422.706018 212.94134 
L 425.789785 200.191715 
L 428.873552 206.485834 
L 431.957318 205.194732 
L 435.041085 211.811626 
L 438.124851 203.25808 
L 441.208618 203.742243 
L 444.292385 200.998653 
L 447.376151 206.001671 
L 450.459918 195.511472 
L 453.543684 211.488851 
L 456.627451 204.710569 
L 459.711218 206.001671 
L 462.794984 196.802574 
L 465.878751 205.35612 
L 468.962517 213.102728 
L 472.046284 213.264115 
L 475.130051 215.200767 
L 478.213817 201.805591 
L 481.297584 203.903631 
L 484.38135 209.552199 
L 487.465117 208.422485 
L 490.548884 194.381759 
L 493.63265 209.713587 
L 496.716417 208.09971 
L 499.800183 201.644204 
L 502.88395 185.34405 
L 505.967717 186.473763 
L 509.051483 195.027309 
L 512.13525 201.321428 
L 515.219016 196.479798 
L 518.302783 203.096693 
L 521.38655 206.647221 
L 524.470316 214.877992 
L 527.554083 204.549182 
L 530.637849 203.903631 
L 533.721616 189.217354 
L 536.805383 215.200767 
L 539.889149 200.030327 
L 542.972916 200.030327 
L 546.056682 203.25808 
L 549.140449 200.191715 
L 552.224216 208.261098 
L 555.307982 200.837265 
L 558.391749 206.001671 
L 561.475515 217.460195 
L 564.559282 218.267133 
L 567.643049 207.454159 
L 570.726815 215.03938 
L 573.810582 206.163058 
L 576.894348 200.998653 
L 579.978115 209.552199 
L 583.061882 224.561252 
L 586.145648 192.122331 
L 589.229415 208.422485 
L 592.313181 201.966979 
L 595.396948 196.479798 
L 598.480715 185.505437 
L 601.564481 196.318411 
L 604.648248 193.413433 
L 607.732014 210.520525 
L 610.815781 198.900613 
L 613.899548 209.713587 
L 616.983314 214.555217 
L 620.067081 203.419468 
L 623.150847 197.609512 
L 626.234614 201.160041 
L 629.318381 201.644204 
L 632.402147 215.03938 
L 635.485914 199.062001 
L 638.56968 193.57482 
L 641.653447 211.004688 
L 644.737214 219.88101 
L 647.82098 209.068036 
L 650.904747 206.808609 
L 653.988513 205.678895 
L 657.07228 187.442089 
L 660.156047 216.169093 
L 663.239813 201.644204 
L 666.32358 198.255063 
L 669.407346 209.713587 
L 669.407346 209.713587 
" clip-path="url(#p04b7bb3fd5)" style="fill: none; stroke: #1f77b4; stroke-width: 1.5; stroke-linecap: square"/>
   </g>
   <g id="patch_3">
    <path d="M 47.72 390.04 
L 47.72 10.8 
" style="fill: none; stroke: #000000; stroke-width: 0.8; stroke-linejoin: miter; stroke-linecap: square"/>
   </g>
   <g id="patch_4">
    <path d="M 699.011506 390.04 
L 699.011506 10.8 
" style="fill: none; stroke: #000000; stroke-width: 0.8; stroke-linejoin: miter; stroke-linecap: square"/>
   </g>
   <g id="patch_5">
    <path d="M 47.72 390.04 
L 699.011506 390.04 
" style="fill: none; stroke: #000000; stroke-width: 0.8; stroke-linejoin: miter; stroke-linecap: square"/>
   </g>
   <g id="patch_6">
    <path d="M 47.72 10.8 
L 699.011506 10.8 
" style="fill: none; stroke: #000000; stroke-width: 0.8; stroke-linejoin: miter; stroke-linecap: square"/>
   </g>
  </g>
 </g>
 <defs>
  <clipPath id="p04b7bb3fd5">
   <rect x="47.72" y="10.8" width="651.291506" height="379.24"/>
  </clipPath>
 </defs>
</svg>
