<?xml version="1.0" encoding="utf-8" standalone="no"?>
<!DOCTYPE svg PUBLIC "-//W3C//DTD SVG 1.1//EN"
  "http://www.w3.org/Graphics/SVG/1.1/DTD/svg11.dtd">
<svg xmlns:xlink="http://www.w3.org/1999/xlink" width="720pt" height="432pt" viewBox="0 0 720 432" xmlns="http://www.w3.org/2000/svg" version="1.1">
 <metadata>
  <rdf:RDF xmlns:dc="http://purl.org/dc/elements/1.1/" xmlns:cc="http://creativecommons.org/ns#" xmlns:rdf="http://www.w3.org/1999/02/22-rdf-syntax-ns#">
   <cc:Work>
    <dc:type rdf:resource="http://purl.org/dc/dcmitype/StillImage"/>
    <dc:date>2025-04-16T01:22:09.416395</dc:date>
    <dc:format>image/svg+xml</dc:format>
    <dc:creator>
     <cc:Agent>
      <dc:title>Matplotlib v3.10.0, https://matplotlib.org/</dc:title>
     </cc:Agent>
    </dc:creator>
   </cc:Work>
  </rdf:RDF>
 </metadata>
 <defs>
  <style type="text/css">*{stroke-linejoin: round; stroke-linecap: butt}</style>
 </defs>
 <g id="figure_1">
  <g id="patch_1">
   <path d="M 0 432 
L 720 432 
L 720 0 
L 0 0 
z
" style="fill: #ffffff"/>
  </g>
  <g id="axes_1">
   <g id="patch_2">
    <path d="M 54.02 390.04 
L 709.2 390.04 
L 709.2 14.510195 
L 54.02 14.510195 
z
" style="fill: #ffffff"/>
   </g>
   <g id="FillBetweenPolyCollection_1">
    <path d="M 83.800909 178.353241 
L 83.800909 355.990811 
L 89.419949 351.087237 
L 95.038988 358.277169 
L 100.658027 358.240767 
L 106.277067 356.594022 
L 111.896106 367.393327 
L 117.515146 362.098575 
L 123.134185 356.491759 
L 128.753225 351.535315 
L 134.372264 355.039591 
L 139.991304 354.86511 
L 145.610343 363.907202 
L 151.229383 344.509692 
L 156.848422 355.090553 
L 162.467461 345.850323 
L 168.086501 358.24975 
L 173.70554 354.0692 
L 179.32458 361.140709 
L 184.943619 362.081937 
L 190.562659 369.300356 
L 196.181698 361.10711 
L 201.800738 358.453984 
L 207.419777 353.847363 
L 213.038816 357.886741 
L 218.657856 358.262019 
L 224.276895 360.26844 
L 229.895935 360.688456 
L 235.514974 358.971145 
L 241.134014 358.780029 
L 246.753053 359.771605 
L 252.372093 357.433849 
L 257.991132 360.559389 
L 263.610172 354.720161 
L 269.229211 356.655971 
L 274.84825 358.900796 
L 280.46729 354.132284 
L 286.086329 359.747565 
L 291.705369 360.990585 
L 297.324408 356.545916 
L 302.943448 359.594961 
L 308.562487 366.256866 
L 314.181527 362.927572 
L 319.800566 362.128263 
L 325.419605 362.06084 
L 331.038645 360.834113 
L 336.657684 363.083269 
L 342.276724 354.377857 
L 347.895763 364.952228 
L 353.514803 363.52551 
L 359.133842 356.71883 
L 364.752882 359.645082 
L 370.371921 358.401938 
L 375.990961 363.390855 
L 381.61 353.034151 
L 387.229039 350.839482 
L 392.848079 357.625904 
L 398.467118 346.876168 
L 404.086158 372.573536 
L 409.705197 354.77646 
L 415.324237 361.107574 
L 420.943276 359.198217 
L 426.562316 363.382065 
L 432.181355 361.42283 
L 437.800395 354.207497 
L 443.419434 357.626 
L 449.038473 361.124273 
L 454.657513 360.199074 
L 460.276552 352.371226 
L 465.895592 367.253843 
L 471.514631 355.267982 
L 477.133671 364.283483 
L 482.75271 361.91998 
L 488.37175 361.180733 
L 493.990789 358.068 
L 499.609828 353.979117 
L 505.228868 368.80038 
L 510.847907 351.264737 
L 516.466947 362.926842 
L 522.085986 354.52713 
L 527.705026 363.942043 
L 533.324065 364.236064 
L 538.943105 355.066671 
L 544.562144 359.641516 
L 550.181184 349.092852 
L 555.800223 346.645041 
L 561.419262 353.582926 
L 567.038302 352.027523 
L 572.657341 352.556325 
L 578.276381 364.56147 
L 583.89542 361.593911 
L 589.51446 368.226611 
L 595.133499 367.215091 
L 600.752539 363.185499 
L 606.371578 353.791965 
L 611.990617 353.575188 
L 617.609657 359.129469 
L 623.228696 367.754992 
L 628.847736 366.037394 
L 634.466775 353.170693 
L 640.085815 358.544812 
L 645.704854 363.558666 
L 651.323894 360.70545 
L 656.942933 364.951066 
L 662.561973 352.0539 
L 668.181012 354.241675 
L 673.800051 372.970463 
L 679.419091 357.850869 
L 679.419091 128.377739 
L 679.419091 128.377739 
L 673.800051 56.634445 
L 668.181012 191.874827 
L 662.561973 173.915024 
L 656.942933 99.878064 
L 651.323894 130.225816 
L 645.704854 115.054601 
L 640.085815 136.760125 
L 634.466775 166.570042 
L 628.847736 100.590396 
L 623.228696 77.145547 
L 617.609657 136.892124 
L 611.990617 191.893647 
L 606.371578 148.787106 
L 600.752539 115.299083 
L 595.133499 69.569205 
L 589.51446 78.962883 
L 583.89542 121.780195 
L 578.276381 108.344308 
L 572.657341 155.604886 
L 567.038302 182.696826 
L 561.419262 190.849763 
L 555.800223 125.525898 
L 550.181184 211.463131 
L 544.562144 103.938036 
L 538.943105 116.870636 
L 533.324065 84.192705 
L 527.705026 124.838144 
L 522.085986 114.843145 
L 516.466947 131.381848 
L 510.847907 179.988149 
L 505.228868 35.819447 
L 499.609828 167.489672 
L 493.990789 163.019179 
L 488.37175 96.70941 
L 482.75271 122.054622 
L 477.133671 133.191523 
L 471.514631 158.769606 
L 465.895592 104.144482 
L 460.276552 200.258512 
L 454.657513 155.443944 
L 449.038473 80.788027 
L 443.419434 119.335676 
L 437.800395 167.264928 
L 432.181355 128.734811 
L 426.562316 105.595992 
L 420.943276 119.958174 
L 415.324237 121.748862 
L 409.705197 184.546911 
L 404.086158 31.579732 
L 398.467118 142.860974 
L 392.848079 162.754215 
L 387.229039 138.168782 
L 381.61 199.56983 
L 375.990961 90.026122 
L 370.371921 138.182374 
L 364.752882 163.728932 
L 359.133842 151.444198 
L 353.514803 125.519824 
L 347.895763 119.208229 
L 342.276724 184.769658 
L 336.657684 140.614574 
L 331.038645 96.272101 
L 325.419605 122.545267 
L 319.800566 148.419377 
L 314.181527 115.917814 
L 308.562487 110.40936 
L 302.943448 129.762489 
L 297.324408 152.031248 
L 291.705369 148.923427 
L 286.086329 147.247602 
L 280.46729 149.309198 
L 274.84825 154.588617 
L 269.229211 169.257802 
L 263.610172 158.895615 
L 257.991132 130.528036 
L 252.372093 170.384139 
L 246.753053 128.846766 
L 241.134014 164.017831 
L 235.514974 112.711115 
L 229.895935 112.555195 
L 224.276895 69.435457 
L 218.657856 137.629576 
L 213.038816 144.598999 
L 207.419777 124.48904 
L 201.800738 103.311051 
L 196.181698 106.895104 
L 190.562659 87.44344 
L 184.943619 96.322642 
L 179.32458 147.117773 
L 173.70554 141.904717 
L 168.086501 154.040388 
L 162.467461 166.596985 
L 156.848422 176.384652 
L 151.229383 138.720376 
L 145.610343 107.851622 
L 139.991304 191.893302 
L 134.372264 158.735778 
L 128.753225 179.987667 
L 123.134185 178.175723 
L 117.515146 141.247757 
L 111.896106 111.141053 
L 106.277067 169.553081 
L 100.658027 94.076327 
L 95.038988 144.908258 
L 89.419949 205.783953 
L 83.800909 178.353241 
z
" clip-path="url(#p65f8de1de5)" style="fill: #1f77b4; fill-opacity: 0.2"/>
   </g>
   <g id="matplotlib.axis_1">
    <g id="xtick_1">
     <g id="line2d_1">
      <path d="M 80.963294 390.04 
L 80.963294 14.510195 
" clip-path="url(#p65f8de1de5)" style="fill: none; stroke: #b0b0b0; stroke-width: 0.8; stroke-linecap: square"/>
     </g>
     <g id="line2d_2">
      <defs>
       <path id="mdee228c8ec" d="M 0 0 
L 0 3.5 
" style="stroke: #000000; stroke-width: 0.8"/>
      </defs>
      <g>
       <use xlink:href="#mdee228c8ec" x="80.963294" y="390.04" style="stroke: #000000; stroke-width: 0.8"/>
      </g>
     </g>
     <g id="text_1">
      <!-- 0 -->
      <g transform="translate(77.782044 404.638438) scale(0.1 -0.1)">
       <defs>
        <path id="DejaVuSans-30" d="M 2034 4250 
Q 1547 4250 1301 3770 
Q 1056 3291 1056 2328 
Q 1056 1369 1301 889 
Q 1547 409 2034 409 
Q 2525 409 2770 889 
Q 3016 1369 3016 2328 
Q 3016 3291 2770 3770 
Q 2525 4250 2034 4250 
z
M 2034 4750 
Q 2819 4750 3233 4129 
Q 3647 3509 3647 2328 
Q 3647 1150 3233 529 
Q 2819 -91 2034 -91 
Q 1250 -91 836 529 
Q 422 1150 422 2328 
Q 422 3509 836 4129 
Q 1250 4750 2034 4750 
z
" transform="scale(0.015625)"/>
       </defs>
       <use xlink:href="#DejaVuSans-30"/>
      </g>
     </g>
    </g>
    <g id="xtick_2">
     <g id="line2d_3">
      <path d="M 221.43928 390.04 
L 221.43928 14.510195 
" clip-path="url(#p65f8de1de5)" style="fill: none; stroke: #b0b0b0; stroke-width: 0.8; stroke-linecap: square"/>
     </g>
     <g id="line2d_4">
      <g>
       <use xlink:href="#mdee228c8ec" x="221.43928" y="390.04" style="stroke: #000000; stroke-width: 0.8"/>
      </g>
     </g>
     <g id="text_2">
      <!-- 5000 -->
      <g transform="translate(208.71428 404.638438) scale(0.1 -0.1)">
       <defs>
        <path id="DejaVuSans-35" d="M 691 4666 
L 3169 4666 
L 3169 4134 
L 1269 4134 
L 1269 2991 
Q 1406 3038 1543 3061 
Q 1681 3084 1819 3084 
Q 2600 3084 3056 2656 
Q 3513 2228 3513 1497 
Q 3513 744 3044 326 
Q 2575 -91 1722 -91 
Q 1428 -91 1123 -41 
Q 819 9 494 109 
L 494 744 
Q 775 591 1075 516 
Q 1375 441 1709 441 
Q 2250 441 2565 725 
Q 2881 1009 2881 1497 
Q 2881 1984 2565 2268 
Q 2250 2553 1709 2553 
Q 1456 2553 1204 2497 
Q 953 2441 691 2322 
L 691 4666 
z
" transform="scale(0.015625)"/>
       </defs>
       <use xlink:href="#DejaVuSans-35"/>
       <use xlink:href="#DejaVuSans-30" transform="translate(63.623047 0)"/>
       <use xlink:href="#DejaVuSans-30" transform="translate(127.246094 0)"/>
       <use xlink:href="#DejaVuSans-30" transform="translate(190.869141 0)"/>
      </g>
     </g>
    </g>
    <g id="xtick_3">
     <g id="line2d_5">
      <path d="M 361.915267 390.04 
L 361.915267 14.510195 
" clip-path="url(#p65f8de1de5)" style="fill: none; stroke: #b0b0b0; stroke-width: 0.8; stroke-linecap: square"/>
     </g>
     <g id="line2d_6">
      <g>
       <use xlink:href="#mdee228c8ec" x="361.915267" y="390.04" style="stroke: #000000; stroke-width: 0.8"/>
      </g>
     </g>
     <g id="text_3">
      <!-- 10000 -->
      <g transform="translate(346.009017 404.638438) scale(0.1 -0.1)">
       <defs>
        <path id="DejaVuSans-31" d="M 794 531 
L 1825 531 
L 1825 4091 
L 703 3866 
L 703 4441 
L 1819 4666 
L 2450 4666 
L 2450 531 
L 3481 531 
L 3481 0 
L 794 0 
L 794 531 
z
" transform="scale(0.015625)"/>
       </defs>
       <use xlink:href="#DejaVuSans-31"/>
       <use xlink:href="#DejaVuSans-30" transform="translate(63.623047 0)"/>
       <use xlink:href="#DejaVuSans-30" transform="translate(127.246094 0)"/>
       <use xlink:href="#DejaVuSans-30" transform="translate(190.869141 0)"/>
       <use xlink:href="#DejaVuSans-30" transform="translate(254.492188 0)"/>
      </g>
     </g>
    </g>
    <g id="xtick_4">
     <g id="line2d_7">
      <path d="M 502.391253 390.04 
L 502.391253 14.510195 
" clip-path="url(#p65f8de1de5)" style="fill: none; stroke: #b0b0b0; stroke-width: 0.8; stroke-linecap: square"/>
     </g>
     <g id="line2d_8">
      <g>
       <use xlink:href="#mdee228c8ec" x="502.391253" y="390.04" style="stroke: #000000; stroke-width: 0.8"/>
      </g>
     </g>
     <g id="text_4">
      <!-- 15000 -->
      <g transform="translate(486.485003 404.638438) scale(0.1 -0.1)">
       <use xlink:href="#DejaVuSans-31"/>
       <use xlink:href="#DejaVuSans-35" transform="translate(63.623047 0)"/>
       <use xlink:href="#DejaVuSans-30" transform="translate(127.246094 0)"/>
       <use xlink:href="#DejaVuSans-30" transform="translate(190.869141 0)"/>
       <use xlink:href="#DejaVuSans-30" transform="translate(254.492188 0)"/>
      </g>
     </g>
    </g>
    <g id="xtick_5">
     <g id="line2d_9">
      <path d="M 642.867239 390.04 
L 642.867239 14.510195 
" clip-path="url(#p65f8de1de5)" style="fill: none; stroke: #b0b0b0; stroke-width: 0.8; stroke-linecap: square"/>
     </g>
     <g id="line2d_10">
      <g>
       <use xlink:href="#mdee228c8ec" x="642.867239" y="390.04" style="stroke: #000000; stroke-width: 0.8"/>
      </g>
     </g>
     <g id="text_5">
      <!-- 20000 -->
      <g transform="translate(626.960989 404.638438) scale(0.1 -0.1)">
       <defs>
        <path id="DejaVuSans-32" d="M 1228 531 
L 3431 531 
L 3431 0 
L 469 0 
L 469 531 
Q 828 903 1448 1529 
Q 2069 2156 2228 2338 
Q 2531 2678 2651 2914 
Q 2772 3150 2772 3378 
Q 2772 3750 2511 3984 
Q 2250 4219 1831 4219 
Q 1534 4219 1204 4116 
Q 875 4013 500 3803 
L 500 4441 
Q 881 4594 1212 4672 
Q 1544 4750 1819 4750 
Q 2544 4750 2975 4387 
Q 3406 4025 3406 3419 
Q 3406 3131 3298 2873 
Q 3191 2616 2906 2266 
Q 2828 2175 2409 1742 
Q 1991 1309 1228 531 
z
" transform="scale(0.015625)"/>
       </defs>
       <use xlink:href="#DejaVuSans-32"/>
       <use xlink:href="#DejaVuSans-30" transform="translate(63.623047 0)"/>
       <use xlink:href="#DejaVuSans-30" transform="translate(127.246094 0)"/>
       <use xlink:href="#DejaVuSans-30" transform="translate(190.869141 0)"/>
       <use xlink:href="#DejaVuSans-30" transform="translate(254.492188 0)"/>
      </g>
     </g>
    </g>
    <g id="text_6">
     <!-- Episodes -->
     <g transform="translate(359.367813 418.316562) scale(0.1 -0.1)">
      <defs>
       <path id="DejaVuSans-45" d="M 628 4666 
L 3578 4666 
L 3578 4134 
L 1259 4134 
L 1259 2753 
L 3481 2753 
L 3481 2222 
L 1259 2222 
L 1259 531 
L 3634 531 
L 3634 0 
L 628 0 
L 628 4666 
z
" transform="scale(0.015625)"/>
       <path id="DejaVuSans-70" d="M 1159 525 
L 1159 -1331 
L 581 -1331 
L 581 3500 
L 1159 3500 
L 1159 2969 
Q 1341 3281 1617 3432 
Q 1894 3584 2278 3584 
Q 2916 3584 3314 3078 
Q 3713 2572 3713 1747 
Q 3713 922 3314 415 
Q 2916 -91 2278 -91 
Q 1894 -91 1617 61 
Q 1341 213 1159 525 
z
M 3116 1747 
Q 3116 2381 2855 2742 
Q 2594 3103 2138 3103 
Q 1681 3103 1420 2742 
Q 1159 2381 1159 1747 
Q 1159 1113 1420 752 
Q 1681 391 2138 391 
Q 2594 391 2855 752 
Q 3116 1113 3116 1747 
z
" transform="scale(0.015625)"/>
       <path id="DejaVuSans-69" d="M 603 3500 
L 1178 3500 
L 1178 0 
L 603 0 
L 603 3500 
z
M 603 4863 
L 1178 4863 
L 1178 4134 
L 603 4134 
L 603 4863 
z
" transform="scale(0.015625)"/>
       <path id="DejaVuSans-73" d="M 2834 3397 
L 2834 2853 
Q 2591 2978 2328 3040 
Q 2066 3103 1784 3103 
Q 1356 3103 1142 2972 
Q 928 2841 928 2578 
Q 928 2378 1081 2264 
Q 1234 2150 1697 2047 
L 1894 2003 
Q 2506 1872 2764 1633 
Q 3022 1394 3022 966 
Q 3022 478 2636 193 
Q 2250 -91 1575 -91 
Q 1294 -91 989 -36 
Q 684 19 347 128 
L 347 722 
Q 666 556 975 473 
Q 1284 391 1588 391 
Q 1994 391 2212 530 
Q 2431 669 2431 922 
Q 2431 1156 2273 1281 
Q 2116 1406 1581 1522 
L 1381 1569 
Q 847 1681 609 1914 
Q 372 2147 372 2553 
Q 372 3047 722 3315 
Q 1072 3584 1716 3584 
Q 2034 3584 2315 3537 
Q 2597 3491 2834 3397 
z
" transform="scale(0.015625)"/>
       <path id="DejaVuSans-6f" d="M 1959 3097 
Q 1497 3097 1228 2736 
Q 959 2375 959 1747 
Q 959 1119 1226 758 
Q 1494 397 1959 397 
Q 2419 397 2687 759 
Q 2956 1122 2956 1747 
Q 2956 2369 2687 2733 
Q 2419 3097 1959 3097 
z
M 1959 3584 
Q 2709 3584 3137 3096 
Q 3566 2609 3566 1747 
Q 3566 888 3137 398 
Q 2709 -91 1959 -91 
Q 1206 -91 779 398 
Q 353 888 353 1747 
Q 353 2609 779 3096 
Q 1206 3584 1959 3584 
z
" transform="scale(0.015625)"/>
       <path id="DejaVuSans-64" d="M 2906 2969 
L 2906 4863 
L 3481 4863 
L 3481 0 
L 2906 0 
L 2906 525 
Q 2725 213 2448 61 
Q 2172 -91 1784 -91 
Q 1150 -91 751 415 
Q 353 922 353 1747 
Q 353 2572 751 3078 
Q 1150 3584 1784 3584 
Q 2172 3584 2448 3432 
Q 2725 3281 2906 2969 
z
M 947 1747 
Q 947 1113 1208 752 
Q 1469 391 1925 391 
Q 2381 391 2643 752 
Q 2906 1113 2906 1747 
Q 2906 2381 2643 2742 
Q 2381 3103 1925 3103 
Q 1469 3103 1208 2742 
Q 947 2381 947 1747 
z
" transform="scale(0.015625)"/>
       <path id="DejaVuSans-65" d="M 3597 1894 
L 3597 1613 
L 953 1613 
Q 991 1019 1311 708 
Q 1631 397 2203 397 
Q 2534 397 2845 478 
Q 3156 559 3463 722 
L 3463 178 
Q 3153 47 2828 -22 
Q 2503 -91 2169 -91 
Q 1331 -91 842 396 
Q 353 884 353 1716 
Q 353 2575 817 3079 
Q 1281 3584 2069 3584 
Q 2775 3584 3186 3129 
Q 3597 2675 3597 1894 
z
M 3022 2063 
Q 3016 2534 2758 2815 
Q 2500 3097 2075 3097 
Q 1594 3097 1305 2825 
Q 1016 2553 972 2059 
L 3022 2063 
z
" transform="scale(0.015625)"/>
      </defs>
      <use xlink:href="#DejaVuSans-45"/>
      <use xlink:href="#DejaVuSans-70" transform="translate(63.183594 0)"/>
      <use xlink:href="#DejaVuSans-69" transform="translate(126.660156 0)"/>
      <use xlink:href="#DejaVuSans-73" transform="translate(154.443359 0)"/>
      <use xlink:href="#DejaVuSans-6f" transform="translate(206.542969 0)"/>
      <use xlink:href="#DejaVuSans-64" transform="translate(267.724609 0)"/>
      <use xlink:href="#DejaVuSans-65" transform="translate(331.201172 0)"/>
      <use xlink:href="#DejaVuSans-73" transform="translate(392.724609 0)"/>
     </g>
    </g>
   </g>
   <g id="matplotlib.axis_2">
    <g id="ytick_1">
     <g id="line2d_11">
      <path d="M 54.02 378.423144 
L 709.2 378.423144 
" clip-path="url(#p65f8de1de5)" style="fill: none; stroke: #b0b0b0; stroke-width: 0.8; stroke-linecap: square"/>
     </g>
     <g id="line2d_12">
      <defs>
       <path id="mfafd148163" d="M 0 0 
L -3.5 0 
" style="stroke: #000000; stroke-width: 0.8"/>
      </defs>
      <g>
       <use xlink:href="#mfafd148163" x="54.02" y="378.423144" style="stroke: #000000; stroke-width: 0.8"/>
      </g>
     </g>
     <g id="text_7">
      <!-- 0.0 -->
      <g transform="translate(31.116875 382.222363) scale(0.1 -0.1)">
       <defs>
        <path id="DejaVuSans-2e" d="M 684 794 
L 1344 794 
L 1344 0 
L 684 0 
L 684 794 
z
" transform="scale(0.015625)"/>
       </defs>
       <use xlink:href="#DejaVuSans-30"/>
       <use xlink:href="#DejaVuSans-2e" transform="translate(63.623047 0)"/>
       <use xlink:href="#DejaVuSans-30" transform="translate(95.410156 0)"/>
      </g>
     </g>
    </g>
    <g id="ytick_2">
     <g id="line2d_13">
      <path d="M 54.02 332.969277 
L 709.2 332.969277 
" clip-path="url(#p65f8de1de5)" style="fill: none; stroke: #b0b0b0; stroke-width: 0.8; stroke-linecap: square"/>
     </g>
     <g id="line2d_14">
      <g>
       <use xlink:href="#mfafd148163" x="54.02" y="332.969277" style="stroke: #000000; stroke-width: 0.8"/>
      </g>
     </g>
     <g id="text_8">
      <!-- 2.5 -->
      <g transform="translate(31.116875 336.768496) scale(0.1 -0.1)">
       <use xlink:href="#DejaVuSans-32"/>
       <use xlink:href="#DejaVuSans-2e" transform="translate(63.623047 0)"/>
       <use xlink:href="#DejaVuSans-35" transform="translate(95.410156 0)"/>
      </g>
     </g>
    </g>
    <g id="ytick_3">
     <g id="line2d_15">
      <path d="M 54.02 287.515411 
L 709.2 287.515411 
" clip-path="url(#p65f8de1de5)" style="fill: none; stroke: #b0b0b0; stroke-width: 0.8; stroke-linecap: square"/>
     </g>
     <g id="line2d_16">
      <g>
       <use xlink:href="#mfafd148163" x="54.02" y="287.515411" style="stroke: #000000; stroke-width: 0.8"/>
      </g>
     </g>
     <g id="text_9">
      <!-- 5.0 -->
      <g transform="translate(31.116875 291.314629) scale(0.1 -0.1)">
       <use xlink:href="#DejaVuSans-35"/>
       <use xlink:href="#DejaVuSans-2e" transform="translate(63.623047 0)"/>
       <use xlink:href="#DejaVuSans-30" transform="translate(95.410156 0)"/>
      </g>
     </g>
    </g>
    <g id="ytick_4">
     <g id="line2d_17">
      <path d="M 54.02 242.061544 
L 709.2 242.061544 
" clip-path="url(#p65f8de1de5)" style="fill: none; stroke: #b0b0b0; stroke-width: 0.8; stroke-linecap: square"/>
     </g>
     <g id="line2d_18">
      <g>
       <use xlink:href="#mfafd148163" x="54.02" y="242.061544" style="stroke: #000000; stroke-width: 0.8"/>
      </g>
     </g>
     <g id="text_10">
      <!-- 7.5 -->
      <g transform="translate(31.116875 245.860762) scale(0.1 -0.1)">
       <defs>
        <path id="DejaVuSans-37" d="M 525 4666 
L 3525 4666 
L 3525 4397 
L 1831 0 
L 1172 0 
L 2766 4134 
L 525 4134 
L 525 4666 
z
" transform="scale(0.015625)"/>
       </defs>
       <use xlink:href="#DejaVuSans-37"/>
       <use xlink:href="#DejaVuSans-2e" transform="translate(63.623047 0)"/>
       <use xlink:href="#DejaVuSans-35" transform="translate(95.410156 0)"/>
      </g>
     </g>
    </g>
    <g id="ytick_5">
     <g id="line2d_19">
      <path d="M 54.02 196.607677 
L 709.2 196.607677 
" clip-path="url(#p65f8de1de5)" style="fill: none; stroke: #b0b0b0; stroke-width: 0.8; stroke-linecap: square"/>
     </g>
     <g id="line2d_20">
      <g>
       <use xlink:href="#mfafd148163" x="54.02" y="196.607677" style="stroke: #000000; stroke-width: 0.8"/>
      </g>
     </g>
     <g id="text_11">
      <!-- 10.0 -->
      <g transform="translate(24.754375 200.406896) scale(0.1 -0.1)">
       <use xlink:href="#DejaVuSans-31"/>
       <use xlink:href="#DejaVuSans-30" transform="translate(63.623047 0)"/>
       <use xlink:href="#DejaVuSans-2e" transform="translate(127.246094 0)"/>
       <use xlink:href="#DejaVuSans-30" transform="translate(159.033203 0)"/>
      </g>
     </g>
    </g>
    <g id="ytick_6">
     <g id="line2d_21">
      <path d="M 54.02 151.15381 
L 709.2 151.15381 
" clip-path="url(#p65f8de1de5)" style="fill: none; stroke: #b0b0b0; stroke-width: 0.8; stroke-linecap: square"/>
     </g>
     <g id="line2d_22">
      <g>
       <use xlink:href="#mfafd148163" x="54.02" y="151.15381" style="stroke: #000000; stroke-width: 0.8"/>
      </g>
     </g>
     <g id="text_12">
      <!-- 12.5 -->
      <g transform="translate(24.754375 154.953029) scale(0.1 -0.1)">
       <use xlink:href="#DejaVuSans-31"/>
       <use xlink:href="#DejaVuSans-32" transform="translate(63.623047 0)"/>
       <use xlink:href="#DejaVuSans-2e" transform="translate(127.246094 0)"/>
       <use xlink:href="#DejaVuSans-35" transform="translate(159.033203 0)"/>
      </g>
     </g>
    </g>
    <g id="ytick_7">
     <g id="line2d_23">
      <path d="M 54.02 105.699943 
L 709.2 105.699943 
" clip-path="url(#p65f8de1de5)" style="fill: none; stroke: #b0b0b0; stroke-width: 0.8; stroke-linecap: square"/>
     </g>
     <g id="line2d_24">
      <g>
       <use xlink:href="#mfafd148163" x="54.02" y="105.699943" style="stroke: #000000; stroke-width: 0.8"/>
      </g>
     </g>
     <g id="text_13">
      <!-- 15.0 -->
      <g transform="translate(24.754375 109.499162) scale(0.1 -0.1)">
       <use xlink:href="#DejaVuSans-31"/>
       <use xlink:href="#DejaVuSans-35" transform="translate(63.623047 0)"/>
       <use xlink:href="#DejaVuSans-2e" transform="translate(127.246094 0)"/>
       <use xlink:href="#DejaVuSans-30" transform="translate(159.033203 0)"/>
      </g>
     </g>
    </g>
    <g id="ytick_8">
     <g id="line2d_25">
      <path d="M 54.02 60.246076 
L 709.2 60.246076 
" clip-path="url(#p65f8de1de5)" style="fill: none; stroke: #b0b0b0; stroke-width: 0.8; stroke-linecap: square"/>
     </g>
     <g id="line2d_26">
      <g>
       <use xlink:href="#mfafd148163" x="54.02" y="60.246076" style="stroke: #000000; stroke-width: 0.8"/>
      </g>
     </g>
     <g id="text_14">
      <!-- 17.5 -->
      <g transform="translate(24.754375 64.045295) scale(0.1 -0.1)">
       <use xlink:href="#DejaVuSans-31"/>
       <use xlink:href="#DejaVuSans-37" transform="translate(63.623047 0)"/>
       <use xlink:href="#DejaVuSans-2e" transform="translate(127.246094 0)"/>
       <use xlink:href="#DejaVuSans-35" transform="translate(159.033203 0)"/>
      </g>
     </g>
    </g>
    <g id="ytick_9">
     <g id="line2d_27">
      <path d="M 54.02 14.792209 
L 709.2 14.792209 
" clip-path="url(#p65f8de1de5)" style="fill: none; stroke: #b0b0b0; stroke-width: 0.8; stroke-linecap: square"/>
     </g>
     <g id="line2d_28">
      <g>
       <use xlink:href="#mfafd148163" x="54.02" y="14.792209" style="stroke: #000000; stroke-width: 0.8"/>
      </g>
     </g>
     <g id="text_15">
      <!-- 20.0 -->
      <g transform="translate(24.754375 18.591428) scale(0.1 -0.1)">
       <use xlink:href="#DejaVuSans-32"/>
       <use xlink:href="#DejaVuSans-30" transform="translate(63.623047 0)"/>
       <use xlink:href="#DejaVuSans-2e" transform="translate(127.246094 0)"/>
       <use xlink:href="#DejaVuSans-30" transform="translate(159.033203 0)"/>
      </g>
     </g>
    </g>
    <g id="text_16">
     <!-- Reward -->
     <g transform="translate(18.674688 220.896191) rotate(-90) scale(0.1 -0.1)">
      <defs>
       <path id="DejaVuSans-52" d="M 2841 2188 
Q 3044 2119 3236 1894 
Q 3428 1669 3622 1275 
L 4263 0 
L 3584 0 
L 2988 1197 
Q 2756 1666 2539 1819 
Q 2322 1972 1947 1972 
L 1259 1972 
L 1259 0 
L 628 0 
L 628 4666 
L 2053 4666 
Q 2853 4666 3247 4331 
Q 3641 3997 3641 3322 
Q 3641 2881 3436 2590 
Q 3231 2300 2841 2188 
z
M 1259 4147 
L 1259 2491 
L 2053 2491 
Q 2509 2491 2742 2702 
Q 2975 2913 2975 3322 
Q 2975 3731 2742 3939 
Q 2509 4147 2053 4147 
L 1259 4147 
z
" transform="scale(0.015625)"/>
       <path id="DejaVuSans-77" d="M 269 3500 
L 844 3500 
L 1563 769 
L 2278 3500 
L 2956 3500 
L 3675 769 
L 4391 3500 
L 4966 3500 
L 4050 0 
L 3372 0 
L 2619 2869 
L 1863 0 
L 1184 0 
L 269 3500 
z
" transform="scale(0.015625)"/>
       <path id="DejaVuSans-61" d="M 2194 1759 
Q 1497 1759 1228 1600 
Q 959 1441 959 1056 
Q 959 750 1161 570 
Q 1363 391 1709 391 
Q 2188 391 2477 730 
Q 2766 1069 2766 1631 
L 2766 1759 
L 2194 1759 
z
M 3341 1997 
L 3341 0 
L 2766 0 
L 2766 531 
Q 2569 213 2275 61 
Q 1981 -91 1556 -91 
Q 1019 -91 701 211 
Q 384 513 384 1019 
Q 384 1609 779 1909 
Q 1175 2209 1959 2209 
L 2766 2209 
L 2766 2266 
Q 2766 2663 2505 2880 
Q 2244 3097 1772 3097 
Q 1472 3097 1187 3025 
Q 903 2953 641 2809 
L 641 3341 
Q 956 3463 1253 3523 
Q 1550 3584 1831 3584 
Q 2591 3584 2966 3190 
Q 3341 2797 3341 1997 
z
" transform="scale(0.015625)"/>
       <path id="DejaVuSans-72" d="M 2631 2963 
Q 2534 3019 2420 3045 
Q 2306 3072 2169 3072 
Q 1681 3072 1420 2755 
Q 1159 2438 1159 1844 
L 1159 0 
L 581 0 
L 581 3500 
L 1159 3500 
L 1159 2956 
Q 1341 3275 1631 3429 
Q 1922 3584 2338 3584 
Q 2397 3584 2469 3576 
Q 2541 3569 2628 3553 
L 2631 2963 
z
" transform="scale(0.015625)"/>
      </defs>
      <use xlink:href="#DejaVuSans-52"/>
      <use xlink:href="#DejaVuSans-65" transform="translate(64.982422 0)"/>
      <use xlink:href="#DejaVuSans-77" transform="translate(126.505859 0)"/>
      <use xlink:href="#DejaVuSans-61" transform="translate(208.292969 0)"/>
      <use xlink:href="#DejaVuSans-72" transform="translate(269.572266 0)"/>
      <use xlink:href="#DejaVuSans-64" transform="translate(308.935547 0)"/>
     </g>
    </g>
   </g>
   <g id="line2d_29">
    <path d="M 83.800909 267.172026 
L 89.419949 278.435595 
L 95.038988 251.592713 
L 100.658027 226.158547 
L 106.277067 263.073552 
L 111.896106 239.26719 
L 117.515146 251.673166 
L 123.134185 267.333741 
L 128.753225 265.761491 
L 134.372264 256.887684 
L 139.991304 273.379206 
L 145.610343 235.879412 
L 151.229383 241.615034 
L 156.848422 265.737603 
L 162.467461 256.223654 
L 168.086501 256.145069 
L 173.70554 247.986959 
L 179.32458 254.129241 
L 184.943619 229.20229 
L 190.562659 228.371898 
L 196.181698 234.001107 
L 201.800738 230.882517 
L 207.419777 239.168201 
L 213.038816 251.24287 
L 218.657856 247.945798 
L 224.276895 214.851948 
L 229.895935 236.621826 
L 235.514974 235.84113 
L 241.134014 261.39893 
L 246.753053 244.309185 
L 252.372093 263.908994 
L 257.991132 245.543712 
L 263.610172 256.807888 
L 269.229211 262.956887 
L 274.84825 256.744707 
L 280.46729 251.720741 
L 286.086329 253.497583 
L 291.705369 254.957006 
L 297.324408 254.288582 
L 302.943448 244.678725 
L 308.562487 238.333113 
L 314.181527 239.422693 
L 319.800566 255.27382 
L 325.419605 242.303054 
L 331.038645 228.553107 
L 336.657684 251.848921 
L 342.276724 269.573758 
L 347.895763 242.080229 
L 353.514803 244.522667 
L 359.133842 254.081514 
L 364.752882 261.687007 
L 370.371921 248.292156 
L 375.990961 226.708489 
L 381.61 276.301991 
L 387.229039 244.504132 
L 392.848079 260.190059 
L 398.467118 244.868571 
L 404.086158 202.076634 
L 409.705197 269.661686 
L 415.324237 241.428218 
L 420.943276 239.578195 
L 426.562316 234.489029 
L 432.181355 245.07882 
L 437.800395 260.736213 
L 443.419434 238.480838 
L 449.038473 220.95615 
L 454.657513 257.821509 
L 460.276552 276.314869 
L 465.895592 235.699162 
L 471.514631 257.018794 
L 477.133671 248.737503 
L 482.75271 241.987301 
L 488.37175 228.945071 
L 493.990789 260.543589 
L 499.609828 260.734395 
L 505.228868 202.309913 
L 510.847907 265.626443 
L 516.466947 247.154345 
L 522.085986 234.685137 
L 527.705026 244.390093 
L 533.324065 224.214384 
L 538.943105 235.968653 
L 544.562144 231.789776 
L 550.181184 280.277992 
L 555.800223 236.08547 
L 561.419262 272.216344 
L 567.038302 267.362175 
L 572.657341 254.080605 
L 578.276381 236.452889 
L 583.89542 241.687053 
L 589.51446 223.594747 
L 595.133499 218.392148 
L 600.752539 239.242291 
L 606.371578 251.289536 
L 611.990617 272.734418 
L 617.609657 248.010797 
L 623.228696 222.450269 
L 628.847736 233.313895 
L 634.466775 259.870367 
L 640.085815 247.652469 
L 645.704854 239.306634 
L 651.323894 245.465633 
L 656.942933 232.414565 
L 662.561973 262.984462 
L 668.181012 273.058251 
L 673.800051 214.802454 
L 679.419091 243.114304 
" clip-path="url(#p65f8de1de5)" style="fill: none; stroke: #1f77b4; stroke-width: 1.5; stroke-linecap: square"/>
   </g>
   <g id="patch_3">
    <path d="M 54.02 390.04 
L 54.02 14.510195 
" style="fill: none; stroke: #000000; stroke-width: 0.8; stroke-linejoin: miter; stroke-linecap: square"/>
   </g>
   <g id="patch_4">
    <path d="M 709.2 390.04 
L 709.2 14.510195 
" style="fill: none; stroke: #000000; stroke-width: 0.8; stroke-linejoin: miter; stroke-linecap: square"/>
   </g>
   <g id="patch_5">
    <path d="M 54.02 390.04 
L 709.2 390.04 
" style="fill: none; stroke: #000000; stroke-width: 0.8; stroke-linejoin: miter; stroke-linecap: square"/>
   </g>
   <g id="patch_6">
    <path d="M 54.02 14.510195 
L 709.2 14.510195 
" style="fill: none; stroke: #000000; stroke-width: 0.8; stroke-linejoin: miter; stroke-linecap: square"/>
   </g>
  </g>
 </g>
 <defs>
  <clipPath id="p65f8de1de5">
   <rect x="54.02" y="14.510195" width="655.18" height="375.529805"/>
  </clipPath>
 </defs>
</svg>
