<?xml version="1.0" encoding="utf-8" standalone="no"?>
<!DOCTYPE svg PUBLIC "-//W3C//DTD SVG 1.1//EN"
  "http://www.w3.org/Graphics/SVG/1.1/DTD/svg11.dtd">
<svg xmlns:xlink="http://www.w3.org/1999/xlink" width="720pt" height="432pt" viewBox="0 0 720 432" xmlns="http://www.w3.org/2000/svg" version="1.1">
 <metadata>
  <rdf:RDF xmlns:dc="http://purl.org/dc/elements/1.1/" xmlns:cc="http://creativecommons.org/ns#" xmlns:rdf="http://www.w3.org/1999/02/22-rdf-syntax-ns#">
   <cc:Work>
    <dc:type rdf:resource="http://purl.org/dc/dcmitype/StillImage"/>
    <dc:date>2025-04-16T01:01:19.046976</dc:date>
    <dc:format>image/svg+xml</dc:format>
    <dc:creator>
     <cc:Agent>
      <dc:title>Matplotlib v3.10.0, https://matplotlib.org/</dc:title>
     </cc:Agent>
    </dc:creator>
   </cc:Work>
  </rdf:RDF>
 </metadata>
 <defs>
  <style type="text/css">*{stroke-linejoin: round; stroke-linecap: butt}</style>
 </defs>
 <g id="figure_1">
  <g id="patch_1">
   <path d="M 0 432 
L 720 432 
L 720 0 
L 0 0 
z
" style="fill: #ffffff"/>
  </g>
  <g id="axes_1">
   <g id="patch_2">
    <path d="M 47.72 390.04 
L 709.2 390.04 
L 709.2 10.8 
L 47.72 10.8 
z
" style="fill: #ffffff"/>
   </g>
   <g id="FillBetweenPolyCollection_1">
    <defs>
     <path id="m44ac453f38" d="M 77.847939 -369.876489 
L 77.847939 -129.918237 
L 81.542535 -101.816578 
L 84.490931 -86.119894 
L 86.923661 -76.971688 
L 88.992392 -64.227362 
L 90.72139 -65.327825 
L 92.274455 -59.198182 
L 93.669786 -60.341103 
L 94.974118 -62.439437 
L 96.24205 -63.136578 
L 97.497848 -63.776776 
L 98.72938 -63.873985 
L 99.942712 -63.971194 
L 101.168177 -64.068403 
L 102.387576 -63.971194 
L 103.606974 -63.873985 
L 104.820306 -64.165612 
L 106.045771 -64.165612 
L 107.259103 -64.262822 
L 108.472435 -64.262822 
L 109.685767 -64.165612 
L 110.899098 -63.971194 
L 112.118497 -64.165612 
L 113.331829 -64.165612 
L 114.551227 -64.262822 
L 115.764559 -64.262822 
L 116.977891 -64.262822 
L 118.191223 -64.262822 
L 119.404554 -64.262822 
L 120.617886 -64.262822 
L 121.831218 -64.262822 
L 123.04455 -64.165612 
L 124.257882 -64.262822 
L 125.471214 -64.262822 
L 126.684545 -64.262822 
L 127.897877 -64.262822 
L 129.111209 -64.262822 
L 130.324541 -64.262822 
L 131.537873 -64.262822 
L 132.751205 -64.262822 
L 133.964536 -64.165612 
L 135.177868 -64.262822 
L 136.3912 -64.262822 
L 137.604532 -64.262822 
L 138.817864 -64.262822 
L 140.031196 -64.262822 
L 141.244527 -64.262822 
L 142.457859 -64.262822 
L 143.671191 -64.165612 
L 144.89059 -64.262822 
L 146.103921 -64.262822 
L 147.317253 -64.262822 
L 148.530585 -64.262822 
L 149.749984 -64.165612 
L 150.963315 -64.165612 
L 152.182714 -64.262822 
L 153.396046 -64.262822 
L 154.609377 -64.262822 
L 155.822709 -64.262822 
L 157.036041 -64.262822 
L 158.25544 -64.165612 
L 159.468771 -64.262822 
L 160.682103 -64.262822 
L 161.895435 -64.262822 
L 163.108767 -64.262822 
L 164.322099 -64.262822 
L 165.535431 -64.262822 
L 166.748762 -64.262822 
L 167.962094 -64.262822 
L 169.181493 -64.262822 
L 170.394825 -64.165612 
L 171.608156 -64.262822 
L 172.821488 -64.262822 
L 174.03482 -64.165612 
L 175.248152 -64.262822 
L 176.461484 -64.262822 
L 177.674816 -64.262822 
L 178.888147 -64.262822 
L 180.101479 -64.262822 
L 181.314811 -64.262822 
L 182.528143 -64.262822 
L 183.741475 -64.262822 
L 184.954807 -64.262822 
L 186.168138 -64.262822 
L 187.38147 -64.262822 
L 188.594802 -64.165612 
L 189.808134 -64.262822 
L 191.021466 -64.262822 
L 192.234798 -64.262822 
L 193.448129 -64.262822 
L 194.661461 -64.262822 
L 195.874793 -64.262822 
L 197.088125 -64.262822 
L 198.301457 -64.262822 
L 199.514788 -64.262822 
L 200.72812 -64.262822 
L 201.941452 -64.262822 
L 203.154784 -64.262822 
L 204.368116 -64.262822 
L 205.581448 -64.262822 
L 206.794779 -64.262822 
L 208.008111 -64.262822 
L 209.221443 -64.262822 
L 210.434775 -64.262822 
L 211.648107 -64.262822 
L 212.861439 -64.262822 
L 214.07477 -64.262822 
L 215.288102 -64.262822 
L 216.501434 -64.262822 
L 217.714766 -64.262822 
L 218.928098 -64.262822 
L 220.14143 -64.262822 
L 221.354761 -64.262822 
L 222.568093 -64.262822 
L 223.781425 -64.262822 
L 224.994757 -64.262822 
L 226.208089 -64.262822 
L 227.421421 -64.262822 
L 228.634752 -64.262822 
L 229.848084 -64.262822 
L 231.061416 -64.262822 
L 232.274748 -64.262822 
L 233.48808 -64.262822 
L 234.701412 -64.262822 
L 235.914743 -64.262822 
L 237.128075 -64.262822 
L 238.347474 -64.262822 
L 239.560806 -64.262822 
L 240.774137 -64.262822 
L 241.987469 -64.262822 
L 243.200801 -64.262822 
L 244.414133 -64.262822 
L 245.627465 -64.262822 
L 246.840796 -64.262822 
L 248.054128 -64.262822 
L 249.26746 -64.262822 
L 250.480792 -64.262822 
L 251.694124 -64.262822 
L 252.907456 -64.262822 
L 254.120787 -64.262822 
L 255.334119 -64.262822 
L 256.547451 -64.262822 
L 257.760783 -64.262822 
L 258.974115 -64.262822 
L 260.187447 -64.262822 
L 261.400778 -64.262822 
L 262.61411 -64.262822 
L 263.827442 -64.262822 
L 265.040774 -64.262822 
L 266.254106 -64.262822 
L 267.467438 -64.262822 
L 268.680769 -64.262822 
L 269.894101 -64.262822 
L 271.107433 -64.165612 
L 272.320765 -64.262822 
L 273.534097 -64.262822 
L 274.747429 -64.262822 
L 275.96076 -64.262822 
L 277.174092 -64.262822 
L 278.387424 -64.262822 
L 279.600756 -64.262822 
L 280.814088 -64.262822 
L 282.02742 -64.262822 
L 283.240751 -64.165612 
L 284.454083 -64.262822 
L 285.667415 -64.262822 
L 286.880747 -64.262822 
L 288.094079 -64.262822 
L 289.307411 -64.262822 
L 290.520742 -64.262822 
L 291.734074 -64.262822 
L 292.947406 -64.262822 
L 294.160738 -64.262822 
L 295.37407 -64.262822 
L 296.587401 -64.262822 
L 297.800733 -64.262822 
L 299.014065 -64.262822 
L 300.227397 -64.262822 
L 301.440729 -64.262822 
L 302.654061 -64.262822 
L 303.867392 -64.262822 
L 305.080724 -64.262822 
L 306.294056 -64.262822 
L 307.507388 -64.165612 
L 308.72072 -64.262822 
L 309.934052 -64.262822 
L 311.147383 -64.262822 
L 312.360715 -64.262822 
L 313.574047 -64.262822 
L 314.787379 -64.262822 
L 316.000711 -64.262822 
L 317.214043 -64.262822 
L 318.427374 -64.262822 
L 319.640706 -64.262822 
L 320.854038 -64.262822 
L 322.06737 -64.262822 
L 323.280702 -64.262822 
L 324.494034 -64.262822 
L 325.707365 -64.262822 
L 326.920697 -64.262822 
L 328.134029 -64.262822 
L 329.347361 -64.262822 
L 330.560693 -64.262822 
L 331.774025 -64.262822 
L 332.987356 -64.262822 
L 334.200688 -64.262822 
L 335.41402 -64.262822 
L 336.627352 -64.262822 
L 337.840684 -64.262822 
L 339.054016 -64.262822 
L 340.267347 -64.262822 
L 341.480679 -64.262822 
L 342.694011 -64.262822 
L 343.907343 -64.262822 
L 345.120675 -64.262822 
L 346.334006 -64.262822 
L 347.547338 -64.262822 
L 348.76067 -64.262822 
L 349.974002 -64.262822 
L 351.187334 -64.262822 
L 352.400666 -64.262822 
L 353.613997 -64.262822 
L 354.827329 -64.262822 
L 356.040661 -64.262822 
L 357.253993 -64.262822 
L 358.467325 -64.262822 
L 359.680657 -64.262822 
L 360.893988 -64.262822 
L 362.10732 -64.262822 
L 363.320652 -64.262822 
L 364.533984 -64.262822 
L 365.747316 -64.262822 
L 366.960648 -64.262822 
L 368.173979 -64.262822 
L 369.387311 -64.262822 
L 370.600643 -64.262822 
L 371.813975 -64.262822 
L 373.027307 -64.262822 
L 374.240639 -64.262822 
L 375.45397 -64.262822 
L 376.667302 -64.262822 
L 377.880634 -64.262822 
L 379.093966 -64.262822 
L 380.307298 -64.262822 
L 381.52063 -64.262822 
L 382.733961 -64.262822 
L 383.947293 -64.262822 
L 385.160625 -64.262822 
L 386.373957 -64.262822 
L 387.587289 -64.262822 
L 388.800621 -64.262822 
L 390.013952 -64.262822 
L 391.227284 -64.262822 
L 392.440616 -64.262822 
L 393.653948 -64.262822 
L 394.86728 -64.262822 
L 396.080611 -64.262822 
L 397.293943 -64.262822 
L 398.507275 -64.262822 
L 399.720607 -64.262822 
L 400.933939 -64.262822 
L 402.147271 -64.262822 
L 403.360602 -64.262822 
L 404.573934 -64.262822 
L 405.787266 -64.262822 
L 407.000598 -64.262822 
L 408.21393 -64.262822 
L 409.427262 -64.262822 
L 410.640593 -64.165612 
L 411.853925 -64.262822 
L 413.067257 -64.262822 
L 414.280589 -64.262822 
L 415.493921 -64.262822 
L 416.707253 -64.262822 
L 417.920584 -64.262822 
L 419.133916 -64.262822 
L 420.347248 -64.262822 
L 421.56058 -64.262822 
L 422.773912 -64.262822 
L 423.987244 -64.262822 
L 425.200575 -64.262822 
L 426.413907 -64.262822 
L 427.627239 -64.262822 
L 428.840571 -64.262822 
L 430.053903 -64.262822 
L 431.267235 -64.262822 
L 432.480566 -64.262822 
L 433.693898 -64.262822 
L 434.90723 -64.262822 
L 436.120562 -64.262822 
L 437.333894 -64.262822 
L 438.547226 -64.262822 
L 439.760557 -64.262822 
L 440.973889 -64.262822 
L 442.187221 -64.262822 
L 443.400553 -64.262822 
L 444.613885 -64.262822 
L 445.827216 -64.262822 
L 447.040548 -64.262822 
L 448.25388 -64.262822 
L 449.467212 -64.262822 
L 450.680544 -64.262822 
L 451.893876 -64.262822 
L 453.107207 -64.262822 
L 454.320539 -64.262822 
L 455.533871 -64.262822 
L 456.747203 -64.262822 
L 457.960535 -64.262822 
L 459.173867 -64.262822 
L 460.387198 -64.262822 
L 461.60053 -64.262822 
L 462.813862 -64.262822 
L 464.027194 -64.262822 
L 465.240526 -64.262822 
L 466.453858 -64.262822 
L 467.667189 -64.262822 
L 468.880521 -64.262822 
L 470.093853 -64.262822 
L 471.307185 -64.262822 
L 472.520517 -64.262822 
L 473.733849 -64.262822 
L 474.94718 -64.262822 
L 476.160512 -64.262822 
L 477.373844 -64.262822 
L 478.587176 -64.262822 
L 479.800508 -64.262822 
L 481.01384 -64.262822 
L 482.227171 -64.262822 
L 483.440503 -64.262822 
L 484.653835 -64.262822 
L 485.867167 -64.262822 
L 487.080499 -64.262822 
L 488.293831 -64.262822 
L 489.507162 -64.262822 
L 490.720494 -64.262822 
L 491.933826 -64.262822 
L 493.147158 -64.262822 
L 494.36049 -64.262822 
L 495.573821 -64.262822 
L 496.787153 -64.262822 
L 498.000485 -64.262822 
L 499.213817 -64.262822 
L 500.427149 -64.262822 
L 501.640481 -64.262822 
L 502.853812 -64.262822 
L 504.067144 -64.262822 
L 505.280476 -64.262822 
L 506.493808 -64.262822 
L 507.70714 -64.262822 
L 508.920472 -64.262822 
L 510.133803 -64.262822 
L 511.347135 -64.262822 
L 512.560467 -64.262822 
L 513.773799 -64.262822 
L 514.987131 -64.262822 
L 516.200463 -64.262822 
L 517.413794 -64.262822 
L 518.627126 -64.262822 
L 519.840458 -64.262822 
L 521.05379 -64.262822 
L 522.267122 -64.262822 
L 523.480454 -64.262822 
L 524.693785 -64.262822 
L 525.907117 -64.262822 
L 527.120449 -64.262822 
L 528.333781 -64.262822 
L 529.547113 -64.262822 
L 530.760445 -64.262822 
L 531.979843 -64.262822 
L 533.193175 -64.262822 
L 534.406507 -64.262822 
L 535.619839 -64.262822 
L 536.83317 -64.262822 
L 538.046502 -64.262822 
L 539.259834 -64.262822 
L 540.473166 -64.262822 
L 541.686498 -64.165612 
L 542.899829 -64.262822 
L 544.113161 -64.262822 
L 545.326493 -64.262822 
L 546.539825 -64.262822 
L 547.753157 -64.262822 
L 548.966489 -64.262822 
L 550.17982 -64.262822 
L 551.393152 -64.262822 
L 552.606484 -64.262822 
L 553.819816 -64.262822 
L 555.033148 -64.262822 
L 556.24648 -64.262822 
L 557.459811 -64.262822 
L 558.673143 -64.262822 
L 559.886475 -64.262822 
L 561.099807 -64.262822 
L 562.313139 -64.262822 
L 563.526471 -64.262822 
L 564.739802 -64.262822 
L 565.953134 -64.262822 
L 567.166466 -64.262822 
L 568.379798 -64.262822 
L 569.59313 -64.262822 
L 570.806462 -64.262822 
L 572.019793 -64.262822 
L 573.233125 -64.262822 
L 574.446457 -64.262822 
L 575.659789 -64.262822 
L 576.873121 -64.262822 
L 578.086453 -64.262822 
L 579.299784 -64.262822 
L 580.513116 -64.262822 
L 581.726448 -64.262822 
L 582.93978 -64.262822 
L 584.153112 -64.262822 
L 585.366444 -64.262822 
L 586.579775 -64.262822 
L 587.793107 -64.262822 
L 589.006439 -64.262822 
L 590.219771 -64.262822 
L 591.433103 -64.262822 
L 592.646434 -64.262822 
L 593.859766 -64.262822 
L 595.073098 -64.262822 
L 596.28643 -64.262822 
L 597.499762 -64.262822 
L 598.713094 -64.262822 
L 599.926425 -64.262822 
L 601.139757 -64.262822 
L 602.353089 -64.262822 
L 603.566421 -64.262822 
L 604.779753 -64.262822 
L 605.993085 -64.262822 
L 607.206416 -64.262822 
L 608.419748 -64.262822 
L 609.63308 -64.262822 
L 610.846412 -64.262822 
L 612.059744 -64.262822 
L 613.273076 -64.262822 
L 614.486407 -64.262822 
L 615.699739 -64.262822 
L 616.913071 -64.262822 
L 618.126403 -64.262822 
L 619.339735 -64.262822 
L 620.553067 -64.262822 
L 621.766398 -64.262822 
L 622.97973 -64.262822 
L 624.193062 -64.262822 
L 625.406394 -64.262822 
L 626.619726 -64.262822 
L 627.833058 -64.262822 
L 629.046389 -64.262822 
L 630.259721 -64.262822 
L 631.473053 -64.262822 
L 632.686385 -64.262822 
L 633.899717 -64.262822 
L 635.113049 -64.262822 
L 636.32638 -64.165612 
L 637.545779 -64.262822 
L 638.759111 -64.262822 
L 639.972442 -64.262822 
L 641.185774 -64.262822 
L 642.399106 -64.262822 
L 643.612438 -64.262822 
L 644.82577 -64.262822 
L 646.039102 -64.262822 
L 647.252433 -64.262822 
L 648.465765 -64.262822 
L 649.679097 -64.262822 
L 650.892429 -64.262822 
L 652.105761 -64.262822 
L 653.319093 -64.262822 
L 654.532424 -64.262822 
L 655.745756 -64.262822 
L 656.959088 -64.262822 
L 658.17242 -64.262822 
L 659.385752 -64.262822 
L 660.599084 -64.262822 
L 661.812415 -64.262822 
L 663.025747 -64.262822 
L 664.239079 -64.262822 
L 665.452411 -64.262822 
L 666.665743 -64.262822 
L 667.879075 -64.262822 
L 669.092406 -64.262822 
L 670.305738 -64.262822 
L 671.51907 -64.262822 
L 672.732402 -64.262822 
L 673.945734 -64.262822 
L 675.159066 -64.262822 
L 676.372397 -64.262822 
L 677.585729 -64.262822 
L 678.799061 -64.262822 
L 678.799061 -64.262822 
L 678.799061 -64.262822 
L 677.585729 -64.262822 
L 676.372397 -64.262822 
L 675.159066 -64.262822 
L 673.945734 -64.262822 
L 672.732402 -64.262822 
L 671.51907 -64.262822 
L 670.305738 -64.262822 
L 669.092406 -64.262822 
L 667.879075 -64.262822 
L 666.665743 -64.262822 
L 665.452411 -64.262822 
L 664.239079 -64.262822 
L 663.025747 -64.262822 
L 661.812415 -64.262822 
L 660.599084 -64.262822 
L 659.385752 -64.262822 
L 658.17242 -64.262822 
L 656.959088 -64.262822 
L 655.745756 -64.262822 
L 654.532424 -64.262822 
L 653.319093 -64.262822 
L 652.105761 -64.262822 
L 650.892429 -64.262822 
L 649.679097 -64.262822 
L 648.465765 -64.262822 
L 647.252433 -64.262822 
L 646.039102 -64.262822 
L 644.82577 -64.262822 
L 643.612438 -64.262822 
L 642.399106 -64.262822 
L 641.185774 -64.262822 
L 639.972442 -64.262822 
L 638.759111 -64.262822 
L 637.545779 -64.262822 
L 636.32638 -64.829397 
L 635.113049 -64.262822 
L 633.899717 -64.262822 
L 632.686385 -64.262822 
L 631.473053 -64.262822 
L 630.259721 -64.262822 
L 629.046389 -64.262822 
L 627.833058 -64.262822 
L 626.619726 -64.262822 
L 625.406394 -64.262822 
L 624.193062 -64.262822 
L 622.97973 -64.262822 
L 621.766398 -64.262822 
L 620.553067 -64.262822 
L 619.339735 -64.262822 
L 618.126403 -64.262822 
L 616.913071 -64.262822 
L 615.699739 -64.262822 
L 614.486407 -64.262822 
L 613.273076 -64.262822 
L 612.059744 -64.262822 
L 610.846412 -64.262822 
L 609.63308 -64.262822 
L 608.419748 -64.262822 
L 607.206416 -64.262822 
L 605.993085 -64.262822 
L 604.779753 -64.262822 
L 603.566421 -64.262822 
L 602.353089 -64.262822 
L 601.139757 -64.262822 
L 599.926425 -64.262822 
L 598.713094 -64.262822 
L 597.499762 -64.262822 
L 596.28643 -64.262822 
L 595.073098 -64.262822 
L 593.859766 -64.262822 
L 592.646434 -64.262822 
L 591.433103 -64.262822 
L 590.219771 -64.262822 
L 589.006439 -64.262822 
L 587.793107 -64.262822 
L 586.579775 -64.262822 
L 585.366444 -64.262822 
L 584.153112 -64.262822 
L 582.93978 -64.262822 
L 581.726448 -64.262822 
L 580.513116 -64.262822 
L 579.299784 -64.262822 
L 578.086453 -64.262822 
L 576.873121 -64.262822 
L 575.659789 -64.262822 
L 574.446457 -64.262822 
L 573.233125 -64.262822 
L 572.019793 -64.262822 
L 570.806462 -64.262822 
L 569.59313 -64.262822 
L 568.379798 -64.262822 
L 567.166466 -64.262822 
L 565.953134 -64.262822 
L 564.739802 -64.262822 
L 563.526471 -64.262822 
L 562.313139 -64.262822 
L 561.099807 -64.262822 
L 559.886475 -64.262822 
L 558.673143 -64.262822 
L 557.459811 -64.262822 
L 556.24648 -64.262822 
L 555.033148 -64.262822 
L 553.819816 -64.262822 
L 552.606484 -64.262822 
L 551.393152 -64.262822 
L 550.17982 -64.262822 
L 548.966489 -64.262822 
L 547.753157 -64.262822 
L 546.539825 -64.262822 
L 545.326493 -64.262822 
L 544.113161 -64.262822 
L 542.899829 -64.262822 
L 541.686498 -64.829397 
L 540.473166 -64.262822 
L 539.259834 -64.262822 
L 538.046502 -64.262822 
L 536.83317 -64.262822 
L 535.619839 -64.262822 
L 534.406507 -64.262822 
L 533.193175 -64.262822 
L 531.979843 -64.262822 
L 530.760445 -64.262822 
L 529.547113 -64.262822 
L 528.333781 -64.262822 
L 527.120449 -64.262822 
L 525.907117 -64.262822 
L 524.693785 -64.262822 
L 523.480454 -64.262822 
L 522.267122 -64.262822 
L 521.05379 -64.262822 
L 519.840458 -64.262822 
L 518.627126 -64.262822 
L 517.413794 -64.262822 
L 516.200463 -64.262822 
L 514.987131 -64.262822 
L 513.773799 -64.262822 
L 512.560467 -64.262822 
L 511.347135 -64.262822 
L 510.133803 -64.262822 
L 508.920472 -64.262822 
L 507.70714 -64.262822 
L 506.493808 -64.262822 
L 505.280476 -64.262822 
L 504.067144 -64.262822 
L 502.853812 -64.262822 
L 501.640481 -64.262822 
L 500.427149 -64.262822 
L 499.213817 -64.262822 
L 498.000485 -64.262822 
L 496.787153 -64.262822 
L 495.573821 -64.262822 
L 494.36049 -64.262822 
L 493.147158 -64.262822 
L 491.933826 -64.262822 
L 490.720494 -64.262822 
L 489.507162 -64.262822 
L 488.293831 -64.262822 
L 487.080499 -64.262822 
L 485.867167 -64.262822 
L 484.653835 -64.262822 
L 483.440503 -64.262822 
L 482.227171 -64.262822 
L 481.01384 -64.262822 
L 479.800508 -64.262822 
L 478.587176 -64.262822 
L 477.373844 -64.262822 
L 476.160512 -64.262822 
L 474.94718 -64.262822 
L 473.733849 -64.262822 
L 472.520517 -64.262822 
L 471.307185 -64.262822 
L 470.093853 -64.262822 
L 468.880521 -64.262822 
L 467.667189 -64.262822 
L 466.453858 -64.262822 
L 465.240526 -64.262822 
L 464.027194 -64.262822 
L 462.813862 -64.262822 
L 461.60053 -64.262822 
L 460.387198 -64.262822 
L 459.173867 -64.262822 
L 457.960535 -64.262822 
L 456.747203 -64.262822 
L 455.533871 -64.262822 
L 454.320539 -64.262822 
L 453.107207 -64.262822 
L 451.893876 -64.262822 
L 450.680544 -64.262822 
L 449.467212 -64.262822 
L 448.25388 -64.262822 
L 447.040548 -64.262822 
L 445.827216 -64.262822 
L 444.613885 -64.262822 
L 443.400553 -64.262822 
L 442.187221 -64.262822 
L 440.973889 -64.262822 
L 439.760557 -64.262822 
L 438.547226 -64.262822 
L 437.333894 -64.262822 
L 436.120562 -64.262822 
L 434.90723 -64.262822 
L 433.693898 -64.262822 
L 432.480566 -64.262822 
L 431.267235 -64.262822 
L 430.053903 -64.262822 
L 428.840571 -64.262822 
L 427.627239 -64.262822 
L 426.413907 -64.262822 
L 425.200575 -64.262822 
L 423.987244 -64.262822 
L 422.773912 -64.262822 
L 421.56058 -64.262822 
L 420.347248 -64.262822 
L 419.133916 -64.262822 
L 417.920584 -64.262822 
L 416.707253 -64.262822 
L 415.493921 -64.262822 
L 414.280589 -64.262822 
L 413.067257 -64.262822 
L 411.853925 -64.262822 
L 410.640593 -64.829397 
L 409.427262 -64.262822 
L 408.21393 -64.262822 
L 407.000598 -64.262822 
L 405.787266 -64.262822 
L 404.573934 -64.262822 
L 403.360602 -64.262822 
L 402.147271 -64.262822 
L 400.933939 -64.262822 
L 399.720607 -64.262822 
L 398.507275 -64.262822 
L 397.293943 -64.262822 
L 396.080611 -64.262822 
L 394.86728 -64.262822 
L 393.653948 -64.262822 
L 392.440616 -64.262822 
L 391.227284 -64.262822 
L 390.013952 -64.262822 
L 388.800621 -64.262822 
L 387.587289 -64.262822 
L 386.373957 -64.262822 
L 385.160625 -64.262822 
L 383.947293 -64.262822 
L 382.733961 -64.262822 
L 381.52063 -64.262822 
L 380.307298 -64.262822 
L 379.093966 -64.262822 
L 377.880634 -64.262822 
L 376.667302 -64.262822 
L 375.45397 -64.262822 
L 374.240639 -64.262822 
L 373.027307 -64.262822 
L 371.813975 -64.262822 
L 370.600643 -64.262822 
L 369.387311 -64.262822 
L 368.173979 -64.262822 
L 366.960648 -64.262822 
L 365.747316 -64.262822 
L 364.533984 -64.262822 
L 363.320652 -64.262822 
L 362.10732 -64.262822 
L 360.893988 -64.262822 
L 359.680657 -64.262822 
L 358.467325 -64.262822 
L 357.253993 -64.262822 
L 356.040661 -64.262822 
L 354.827329 -64.262822 
L 353.613997 -64.262822 
L 352.400666 -64.262822 
L 351.187334 -64.262822 
L 349.974002 -64.262822 
L 348.76067 -64.262822 
L 347.547338 -64.262822 
L 346.334006 -64.262822 
L 345.120675 -64.262822 
L 343.907343 -64.262822 
L 342.694011 -64.262822 
L 341.480679 -64.262822 
L 340.267347 -64.262822 
L 339.054016 -64.262822 
L 337.840684 -64.262822 
L 336.627352 -64.262822 
L 335.41402 -64.262822 
L 334.200688 -64.262822 
L 332.987356 -64.262822 
L 331.774025 -64.262822 
L 330.560693 -64.262822 
L 329.347361 -64.262822 
L 328.134029 -64.262822 
L 326.920697 -64.262822 
L 325.707365 -64.262822 
L 324.494034 -64.262822 
L 323.280702 -64.262822 
L 322.06737 -64.262822 
L 320.854038 -64.262822 
L 319.640706 -64.262822 
L 318.427374 -64.262822 
L 317.214043 -64.262822 
L 316.000711 -64.262822 
L 314.787379 -64.262822 
L 313.574047 -64.262822 
L 312.360715 -64.262822 
L 311.147383 -64.262822 
L 309.934052 -64.262822 
L 308.72072 -64.262822 
L 307.507388 -64.829397 
L 306.294056 -64.262822 
L 305.080724 -64.262822 
L 303.867392 -64.262822 
L 302.654061 -64.262822 
L 301.440729 -64.262822 
L 300.227397 -64.262822 
L 299.014065 -64.262822 
L 297.800733 -64.262822 
L 296.587401 -64.262822 
L 295.37407 -64.262822 
L 294.160738 -64.262822 
L 292.947406 -64.262822 
L 291.734074 -64.262822 
L 290.520742 -64.262822 
L 289.307411 -64.262822 
L 288.094079 -64.262822 
L 286.880747 -64.262822 
L 285.667415 -64.262822 
L 284.454083 -64.262822 
L 283.240751 -64.829397 
L 282.02742 -64.262822 
L 280.814088 -64.262822 
L 279.600756 -64.262822 
L 278.387424 -64.262822 
L 277.174092 -64.262822 
L 275.96076 -64.262822 
L 274.747429 -64.262822 
L 273.534097 -64.262822 
L 272.320765 -64.262822 
L 271.107433 -64.829397 
L 269.894101 -64.262822 
L 268.680769 -64.262822 
L 267.467438 -64.262822 
L 266.254106 -64.262822 
L 265.040774 -64.262822 
L 263.827442 -64.262822 
L 262.61411 -64.262822 
L 261.400778 -64.262822 
L 260.187447 -64.262822 
L 258.974115 -64.262822 
L 257.760783 -64.262822 
L 256.547451 -64.262822 
L 255.334119 -64.262822 
L 254.120787 -64.262822 
L 252.907456 -64.262822 
L 251.694124 -64.262822 
L 250.480792 -64.262822 
L 249.26746 -64.262822 
L 248.054128 -64.262822 
L 246.840796 -64.262822 
L 245.627465 -64.262822 
L 244.414133 -64.262822 
L 243.200801 -64.262822 
L 241.987469 -64.262822 
L 240.774137 -64.262822 
L 239.560806 -64.262822 
L 238.347474 -64.262822 
L 237.128075 -64.262822 
L 235.914743 -64.262822 
L 234.701412 -64.262822 
L 233.48808 -64.262822 
L 232.274748 -64.262822 
L 231.061416 -64.262822 
L 229.848084 -64.262822 
L 228.634752 -64.262822 
L 227.421421 -64.262822 
L 226.208089 -64.262822 
L 224.994757 -64.262822 
L 223.781425 -64.262822 
L 222.568093 -64.262822 
L 221.354761 -64.262822 
L 220.14143 -64.262822 
L 218.928098 -64.262822 
L 217.714766 -64.262822 
L 216.501434 -64.262822 
L 215.288102 -64.262822 
L 214.07477 -64.262822 
L 212.861439 -64.262822 
L 211.648107 -64.262822 
L 210.434775 -64.262822 
L 209.221443 -64.262822 
L 208.008111 -64.262822 
L 206.794779 -64.262822 
L 205.581448 -64.262822 
L 204.368116 -64.262822 
L 203.154784 -64.262822 
L 201.941452 -64.262822 
L 200.72812 -64.262822 
L 199.514788 -64.262822 
L 198.301457 -64.262822 
L 197.088125 -64.262822 
L 195.874793 -64.262822 
L 194.661461 -64.262822 
L 193.448129 -64.262822 
L 192.234798 -64.262822 
L 191.021466 -64.262822 
L 189.808134 -64.262822 
L 188.594802 -64.829397 
L 187.38147 -64.262822 
L 186.168138 -64.262822 
L 184.954807 -64.262822 
L 183.741475 -64.262822 
L 182.528143 -64.262822 
L 181.314811 -64.262822 
L 180.101479 -64.262822 
L 178.888147 -64.262822 
L 177.674816 -64.262822 
L 176.461484 -64.262822 
L 175.248152 -64.262822 
L 174.03482 -64.829397 
L 172.821488 -64.262822 
L 171.608156 -64.262822 
L 170.394825 -64.829397 
L 169.181493 -64.262822 
L 167.962094 -64.262822 
L 166.748762 -64.262822 
L 165.535431 -64.262822 
L 164.322099 -64.262822 
L 163.108767 -64.262822 
L 161.895435 -64.262822 
L 160.682103 -64.262822 
L 159.468771 -64.262822 
L 158.25544 -64.829397 
L 157.036041 -64.262822 
L 155.822709 -64.262822 
L 154.609377 -64.262822 
L 153.396046 -64.262822 
L 152.182714 -64.262822 
L 150.963315 -64.829397 
L 149.749984 -64.829397 
L 148.530585 -64.262822 
L 147.317253 -64.262822 
L 146.103921 -64.262822 
L 144.89059 -64.262822 
L 143.671191 -64.829397 
L 142.457859 -64.262822 
L 141.244527 -64.262822 
L 140.031196 -64.262822 
L 138.817864 -64.262822 
L 137.604532 -64.262822 
L 136.3912 -64.262822 
L 135.177868 -64.262822 
L 133.964536 -64.829397 
L 132.751205 -64.262822 
L 131.537873 -64.262822 
L 130.324541 -64.262822 
L 129.111209 -64.262822 
L 127.897877 -64.262822 
L 126.684545 -64.262822 
L 125.471214 -64.262822 
L 124.257882 -64.262822 
L 123.04455 -64.829397 
L 121.831218 -64.262822 
L 120.617886 -64.262822 
L 119.404554 -64.262822 
L 118.191223 -64.262822 
L 116.977891 -64.262822 
L 115.764559 -64.262822 
L 114.551227 -64.262822 
L 113.331829 -64.829397 
L 112.118497 -64.829397 
L 110.899098 -65.962549 
L 109.685767 -64.829397 
L 108.472435 -64.262822 
L 107.259103 -64.262822 
L 106.045771 -64.829397 
L 104.820306 -64.829397 
L 103.606974 -66.529125 
L 102.387576 -65.962549 
L 101.168177 -65.395973 
L 99.942712 -65.962549 
L 98.72938 -66.529125 
L 97.497848 -67.0957 
L 96.24205 -72.429566 
L 94.974118 -79.697841 
L 93.669786 -93.530343 
L 92.274455 -104.999333 
L 90.72139 -138.296495 
L 88.992392 -165.681494 
L 86.923661 -200.343209 
L 84.490931 -255.967611 
L 81.542535 -296.594934 
L 77.847939 -369.876489 
z
" style="stroke: #0000ff; stroke-opacity: 0.2"/>
    </defs>
    <g clip-path="url(#pcf5164589e)">
     <use xlink:href="#m44ac453f38" x="0" y="432" style="fill: #0000ff; fill-opacity: 0.2; stroke: #0000ff; stroke-opacity: 0.2"/>
    </g>
   </g>
   <g id="FillBetweenPolyCollection_2">
    <defs>
     <path id="mcf8cd95754" d="M 77.787273 -386.342368 
L 77.787273 -119.084759 
L 81.876201 -134.982322 
L 85.734596 -125.350193 
L 89.920591 -135.495902 
L 93.80932 -118.299922 
L 97.673781 -127.514353 
L 101.89011 -126.285469 
L 106.033638 -127.192911 
L 110.262099 -121.157538 
L 114.308561 -129.436096 
L 118.458156 -131.668617 
L 122.60775 -140.95363 
L 126.757345 -127.729219 
L 130.973673 -119.493809 
L 134.983735 -130.007266 
L 139.321396 -140.891048 
L 143.416391 -121.523916 
L 147.420386 -138.800426 
L 151.375848 -142.012804 
L 155.42231 -132.685091 
L 159.505171 -138.161818 
L 163.497033 -134.841631 
L 167.604161 -133.001355 
L 171.596023 -133.353341 
L 175.600018 -127.472377 
L 179.870946 -129.18313 
L 184.123674 -125.937444 
L 188.255069 -134.364802 
L 192.671597 -135.419866 
L 196.857592 -136.496136 
L 201.049653 -124.726091 
L 205.162848 -113.672719 
L 209.239643 -134.394496 
L 213.395305 -123.092107 
L 217.544899 -114.799551 
L 221.573161 -139.925527 
L 225.722756 -130.570058 
L 229.714618 -125.986464 
L 233.894546 -151.47205 
L 238.056274 -134.333141 
L 242.060269 -137.517027 
L 246.191664 -124.851525 
L 250.310926 -140.325986 
L 254.67892 -136.667813 
L 258.737515 -128.951095 
L 262.771843 -138.717105 
L 266.721239 -126.208154 
L 270.8405 -140.046421 
L 275.323761 -127.502389 
L 279.273156 -127.68933 
L 283.356018 -132.05856 
L 287.27508 -136.802256 
L 291.309408 -130.275661 
L 295.459003 -132.644719 
L 299.742064 -133.176099 
L 303.976592 -124.470498 
L 308.016987 -130.658519 
L 312.118049 -122.497277 
L 316.206977 -139.847424 
L 320.241306 -130.000265 
L 324.324167 -139.949809 
L 328.303896 -123.919891 
L 332.52629 -122.752338 
L 336.463552 -133.381679 
L 340.69808 -130.342396 
L 344.981142 -128.241202 
L 349.221736 -137.603679 
L 353.389531 -141.781806 
L 357.514859 -126.466311 
L 361.640188 -140.845947 
L 366.074915 -136.425057 
L 370.11531 -129.287688 
L 374.246705 -135.613537 
L 378.202167 -119.258799 
L 382.248629 -124.077955 
L 386.489223 -133.817553 
L 390.669152 -109.132318 
L 394.673147 -121.946918 
L 398.804541 -134.872269 
L 403.312069 -140.7375 
L 407.558731 -141.411252 
L 411.647659 -124.101429 
L 415.681987 -129.292749 
L 420.001449 -136.59417 
L 423.944777 -119.316545 
L 428.088305 -130.425532 
L 432.013434 -126.435504 
L 436.102362 -133.522618 
L 440.179157 -130.921873 
L 444.353018 -121.344905 
L 448.350947 -122.750514 
L 452.670408 -127.281395 
L 456.923136 -128.982719 
L 461.169797 -128.970777 
L 465.082793 -134.41057 
L 469.347654 -126.196198 
L 473.266716 -130.845474 
L 477.040178 -135.493671 
L 481.038106 -129.196577 
L 485.266568 -132.33833 
L 489.331229 -134.038313 
L 493.480824 -121.291441 
L 497.539419 -121.296603 
L 501.682947 -145.481535 
L 506.014542 -123.927564 
L 509.951804 -126.831007 
L 514.119598 -131.990477 
L 518.12966 -131.760955 
L 522.066922 -128.998412 
L 526.070917 -130.07677 
L 530.250845 -128.435848 
L 534.70984 -138.406982 
L 538.950434 -144.548568 
L 543.203162 -138.21796 
L 547.267824 -138.508096 
L 551.350686 -132.088389 
L 555.670147 -158.172636 
L 560.038142 -145.873581 
L 564.242336 -138.621749 
L 568.361598 -122.624201 
L 572.486926 -122.43782 
L 577.140054 -133.133482 
L 581.192582 -140.331495 
L 585.15411 -121.501409 
L 589.261239 -130.362525 
L 593.3623 -120.092166 
L 597.329895 -123.924953 
L 601.485557 -129.400168 
L 605.641218 -136.152998 
L 609.730147 -125.291063 
L 613.770542 -131.677329 
L 617.93227 -127.57944 
L 622.130398 -133.317585 
L 626.055526 -117.323692 
L 630.192988 -121.87238 
L 634.18485 -129.947816 
L 638.243445 -137.378169 
L 642.453706 -135.135133 
L 646.603301 -126.63105 
L 650.601229 -126.959825 
L 654.811491 -128.432503 
L 658.827619 -130.556958 
L 662.625348 -126.358765 
L 666.683943 -125.312811 
L 670.851738 -127.397326 
L 674.989199 -143.438059 
L 679.132727 -123.606054 
L 679.132727 -371.964371 
L 679.132727 -371.964371 
L 674.989199 -381.233104 
L 670.851738 -378.0298 
L 666.683943 -377.298116 
L 662.625348 -361.701793 
L 658.827619 -382.380036 
L 654.811491 -375.117156 
L 650.601229 -381.752869 
L 646.603301 -365.184441 
L 642.453706 -388.127929 
L 638.243445 -363.35529 
L 634.18485 -375.948677 
L 630.192988 -367.126911 
L 626.055526 -375.430532 
L 622.130398 -378.680676 
L 617.93227 -371.745919 
L 613.770542 -370.46423 
L 609.730147 -378.258597 
L 605.641218 -394.619932 
L 601.485557 -372.741391 
L 597.329895 -378.685973 
L 593.3623 -377.355726 
L 589.261239 -376.472701 
L 585.15411 -382.048251 
L 581.192582 -381.0541 
L 577.140054 -367.599977 
L 572.486926 -378.295639 
L 568.361598 -381.394826 
L 564.242336 -374.315245 
L 560.038142 -388.184916 
L 555.670147 -397.47673 
L 551.350686 -373.808104 
L 547.267824 -389.448634 
L 543.203162 -380.351435 
L 538.950434 -397.019797 
L 534.70984 -382.03988 
L 530.250845 -376.991279 
L 526.070917 -381.921491 
L 522.066922 -378.306181 
L 518.12966 -365.21757 
L 514.119598 -379.538417 
L 509.951804 -380.473587 
L 506.014542 -380.091462 
L 501.682947 -393.270629 
L 497.539419 -368.641422 
L 493.480824 -382.727586 
L 489.331229 -376.082481 
L 485.266568 -374.02753 
L 481.038106 -389.372818 
L 477.040178 -386.361291 
L 473.266716 -390.070754 
L 469.347654 -359.986892 
L 465.082793 -383.689459 
L 461.169797 -376.925716 
L 456.923136 -389.11731 
L 452.670408 -379.084466 
L 448.350947 -371.881177 
L 444.353018 -374.22552 
L 440.179157 -396.56549 
L 436.102362 -380.353109 
L 432.013434 -370.073655 
L 428.088305 -368.430461 
L 423.944777 -377.192614 
L 420.001449 -387.607626 
L 415.681987 -384.582978 
L 411.647659 -379.917597 
L 407.558731 -381.85181 
L 403.312069 -380.648095 
L 398.804541 -387.452059 
L 394.673147 -368.460473 
L 390.669152 -375.173306 
L 386.489223 -382.405008 
L 382.248629 -388.859039 
L 378.202167 -377.719726 
L 374.246705 -376.85409 
L 370.11531 -366.282737 
L 366.074915 -370.879536 
L 361.640188 -397.43685 
L 357.514859 -370.512214 
L 353.389531 -380.073156 
L 349.221736 -379.088249 
L 344.981142 -389.858826 
L 340.69808 -387.288266 
L 336.463552 -380.024682 
L 332.52629 -378.919855 
L 328.303896 -368.834334 
L 324.324167 -386.59882 
L 320.241306 -384.814196 
L 316.206977 -394.211073 
L 312.118049 -371.195681 
L 308.016987 -382.278476 
L 303.976592 -381.425995 
L 299.742064 -379.291528 
L 295.459003 -378.414808 
L 291.309408 -378.9064 
L 287.27508 -360.176269 
L 283.356018 -388.388302 
L 279.273156 -376.329696 
L 275.323761 -375.577904 
L 270.8405 -381.808541 
L 266.721239 -379.218973 
L 262.771843 -361.07762 
L 258.737515 -380.230965 
L 254.67892 -403.961818 
L 250.310926 -370.264174 
L 246.191664 -363.209032 
L 242.060269 -393.255903 
L 238.056274 -387.521821 
L 233.894546 -387.280114 
L 229.714618 -371.930795 
L 225.722756 -365.939101 
L 221.573161 -371.134 
L 217.544899 -386.872642 
L 213.395305 -367.784651 
L 209.239643 -375.256931 
L 205.162848 -383.305807 
L 201.049653 -381.170402 
L 196.857592 -395.684894 
L 192.671597 -385.496362 
L 188.255069 -394.530661 
L 184.123674 -364.469947 
L 179.870946 -380.937664 
L 175.600018 -384.056517 
L 171.596023 -383.807954 
L 167.604161 -393.077907 
L 163.497033 -386.074598 
L 159.505171 -383.693144 
L 155.42231 -370.395202 
L 151.375848 -376.556591 
L 147.420386 -382.585169 
L 143.416391 -361.373607 
L 139.321396 -389.881882 
L 134.983735 -376.358594 
L 130.973673 -372.791049 
L 126.757345 -377.697908 
L 122.60775 -380.431966 
L 118.458156 -385.492677 
L 114.308561 -380.684698 
L 110.262099 -372.066053 
L 106.033638 -371.663081 
L 101.89011 -361.775088 
L 97.673781 -378.851507 
L 93.80932 -380.55607 
L 89.920591 -399.031962 
L 85.734596 -376.322 
L 81.876201 -376.546573 
L 77.787273 -386.342368 
z
" style="stroke: #ffa500; stroke-opacity: 0.2"/>
    </defs>
    <g clip-path="url(#pcf5164589e)">
     <use xlink:href="#mcf8cd95754" x="0" y="432" style="fill: #ffa500; fill-opacity: 0.2; stroke: #ffa500; stroke-opacity: 0.2"/>
    </g>
   </g>
   <g id="matplotlib.axis_1">
    <g id="xtick_1">
     <g id="line2d_1">
      <path d="M 75.754942 390.04 
L 75.754942 10.8 
" clip-path="url(#pcf5164589e)" style="fill: none; stroke: #b0b0b0; stroke-width: 0.8; stroke-linecap: square"/>
     </g>
     <g id="line2d_2">
      <defs>
       <path id="mbc2d8ffbcd" d="M 0 0 
L 0 3.5 
" style="stroke: #000000; stroke-width: 0.8"/>
      </defs>
      <g>
       <use xlink:href="#mbc2d8ffbcd" x="75.754942" y="390.04" style="stroke: #000000; stroke-width: 0.8"/>
      </g>
     </g>
     <g id="text_1">
      <!-- 0 -->
      <g transform="translate(72.573692 404.638438) scale(0.1 -0.1)">
       <defs>
        <path id="DejaVuSans-30" d="M 2034 4250 
Q 1547 4250 1301 3770 
Q 1056 3291 1056 2328 
Q 1056 1369 1301 889 
Q 1547 409 2034 409 
Q 2525 409 2770 889 
Q 3016 1369 3016 2328 
Q 3016 3291 2770 3770 
Q 2525 4250 2034 4250 
z
M 2034 4750 
Q 2819 4750 3233 4129 
Q 3647 3509 3647 2328 
Q 3647 1150 3233 529 
Q 2819 -91 2034 -91 
Q 1250 -91 836 529 
Q 422 1150 422 2328 
Q 422 3509 836 4129 
Q 1250 4750 2034 4750 
z
" transform="scale(0.015625)"/>
       </defs>
       <use xlink:href="#DejaVuSans-30"/>
      </g>
     </g>
    </g>
    <g id="xtick_2">
     <g id="line2d_3">
      <path d="M 197.088125 390.04 
L 197.088125 10.8 
" clip-path="url(#pcf5164589e)" style="fill: none; stroke: #b0b0b0; stroke-width: 0.8; stroke-linecap: square"/>
     </g>
     <g id="line2d_4">
      <g>
       <use xlink:href="#mbc2d8ffbcd" x="197.088125" y="390.04" style="stroke: #000000; stroke-width: 0.8"/>
      </g>
     </g>
     <g id="text_2">
      <!-- 20000 -->
      <g transform="translate(181.181875 404.638438) scale(0.1 -0.1)">
       <defs>
        <path id="DejaVuSans-32" d="M 1228 531 
L 3431 531 
L 3431 0 
L 469 0 
L 469 531 
Q 828 903 1448 1529 
Q 2069 2156 2228 2338 
Q 2531 2678 2651 2914 
Q 2772 3150 2772 3378 
Q 2772 3750 2511 3984 
Q 2250 4219 1831 4219 
Q 1534 4219 1204 4116 
Q 875 4013 500 3803 
L 500 4441 
Q 881 4594 1212 4672 
Q 1544 4750 1819 4750 
Q 2544 4750 2975 4387 
Q 3406 4025 3406 3419 
Q 3406 3131 3298 2873 
Q 3191 2616 2906 2266 
Q 2828 2175 2409 1742 
Q 1991 1309 1228 531 
z
" transform="scale(0.015625)"/>
       </defs>
       <use xlink:href="#DejaVuSans-32"/>
       <use xlink:href="#DejaVuSans-30" transform="translate(63.623047 0)"/>
       <use xlink:href="#DejaVuSans-30" transform="translate(127.246094 0)"/>
       <use xlink:href="#DejaVuSans-30" transform="translate(190.869141 0)"/>
       <use xlink:href="#DejaVuSans-30" transform="translate(254.492188 0)"/>
      </g>
     </g>
    </g>
    <g id="xtick_3">
     <g id="line2d_5">
      <path d="M 318.421308 390.04 
L 318.421308 10.8 
" clip-path="url(#pcf5164589e)" style="fill: none; stroke: #b0b0b0; stroke-width: 0.8; stroke-linecap: square"/>
     </g>
     <g id="line2d_6">
      <g>
       <use xlink:href="#mbc2d8ffbcd" x="318.421308" y="390.04" style="stroke: #000000; stroke-width: 0.8"/>
      </g>
     </g>
     <g id="text_3">
      <!-- 40000 -->
      <g transform="translate(302.515058 404.638438) scale(0.1 -0.1)">
       <defs>
        <path id="DejaVuSans-34" d="M 2419 4116 
L 825 1625 
L 2419 1625 
L 2419 4116 
z
M 2253 4666 
L 3047 4666 
L 3047 1625 
L 3713 1625 
L 3713 1100 
L 3047 1100 
L 3047 0 
L 2419 0 
L 2419 1100 
L 313 1100 
L 313 1709 
L 2253 4666 
z
" transform="scale(0.015625)"/>
       </defs>
       <use xlink:href="#DejaVuSans-34"/>
       <use xlink:href="#DejaVuSans-30" transform="translate(63.623047 0)"/>
       <use xlink:href="#DejaVuSans-30" transform="translate(127.246094 0)"/>
       <use xlink:href="#DejaVuSans-30" transform="translate(190.869141 0)"/>
       <use xlink:href="#DejaVuSans-30" transform="translate(254.492188 0)"/>
      </g>
     </g>
    </g>
    <g id="xtick_4">
     <g id="line2d_7">
      <path d="M 439.754491 390.04 
L 439.754491 10.8 
" clip-path="url(#pcf5164589e)" style="fill: none; stroke: #b0b0b0; stroke-width: 0.8; stroke-linecap: square"/>
     </g>
     <g id="line2d_8">
      <g>
       <use xlink:href="#mbc2d8ffbcd" x="439.754491" y="390.04" style="stroke: #000000; stroke-width: 0.8"/>
      </g>
     </g>
     <g id="text_4">
      <!-- 60000 -->
      <g transform="translate(423.848241 404.638438) scale(0.1 -0.1)">
       <defs>
        <path id="DejaVuSans-36" d="M 2113 2584 
Q 1688 2584 1439 2293 
Q 1191 2003 1191 1497 
Q 1191 994 1439 701 
Q 1688 409 2113 409 
Q 2538 409 2786 701 
Q 3034 994 3034 1497 
Q 3034 2003 2786 2293 
Q 2538 2584 2113 2584 
z
M 3366 4563 
L 3366 3988 
Q 3128 4100 2886 4159 
Q 2644 4219 2406 4219 
Q 1781 4219 1451 3797 
Q 1122 3375 1075 2522 
Q 1259 2794 1537 2939 
Q 1816 3084 2150 3084 
Q 2853 3084 3261 2657 
Q 3669 2231 3669 1497 
Q 3669 778 3244 343 
Q 2819 -91 2113 -91 
Q 1303 -91 875 529 
Q 447 1150 447 2328 
Q 447 3434 972 4092 
Q 1497 4750 2381 4750 
Q 2619 4750 2861 4703 
Q 3103 4656 3366 4563 
z
" transform="scale(0.015625)"/>
       </defs>
       <use xlink:href="#DejaVuSans-36"/>
       <use xlink:href="#DejaVuSans-30" transform="translate(63.623047 0)"/>
       <use xlink:href="#DejaVuSans-30" transform="translate(127.246094 0)"/>
       <use xlink:href="#DejaVuSans-30" transform="translate(190.869141 0)"/>
       <use xlink:href="#DejaVuSans-30" transform="translate(254.492188 0)"/>
      </g>
     </g>
    </g>
    <g id="xtick_5">
     <g id="line2d_9">
      <path d="M 561.087674 390.04 
L 561.087674 10.8 
" clip-path="url(#pcf5164589e)" style="fill: none; stroke: #b0b0b0; stroke-width: 0.8; stroke-linecap: square"/>
     </g>
     <g id="line2d_10">
      <g>
       <use xlink:href="#mbc2d8ffbcd" x="561.087674" y="390.04" style="stroke: #000000; stroke-width: 0.8"/>
      </g>
     </g>
     <g id="text_5">
      <!-- 80000 -->
      <g transform="translate(545.181424 404.638438) scale(0.1 -0.1)">
       <defs>
        <path id="DejaVuSans-38" d="M 2034 2216 
Q 1584 2216 1326 1975 
Q 1069 1734 1069 1313 
Q 1069 891 1326 650 
Q 1584 409 2034 409 
Q 2484 409 2743 651 
Q 3003 894 3003 1313 
Q 3003 1734 2745 1975 
Q 2488 2216 2034 2216 
z
M 1403 2484 
Q 997 2584 770 2862 
Q 544 3141 544 3541 
Q 544 4100 942 4425 
Q 1341 4750 2034 4750 
Q 2731 4750 3128 4425 
Q 3525 4100 3525 3541 
Q 3525 3141 3298 2862 
Q 3072 2584 2669 2484 
Q 3125 2378 3379 2068 
Q 3634 1759 3634 1313 
Q 3634 634 3220 271 
Q 2806 -91 2034 -91 
Q 1263 -91 848 271 
Q 434 634 434 1313 
Q 434 1759 690 2068 
Q 947 2378 1403 2484 
z
M 1172 3481 
Q 1172 3119 1398 2916 
Q 1625 2713 2034 2713 
Q 2441 2713 2670 2916 
Q 2900 3119 2900 3481 
Q 2900 3844 2670 4047 
Q 2441 4250 2034 4250 
Q 1625 4250 1398 4047 
Q 1172 3844 1172 3481 
z
" transform="scale(0.015625)"/>
       </defs>
       <use xlink:href="#DejaVuSans-38"/>
       <use xlink:href="#DejaVuSans-30" transform="translate(63.623047 0)"/>
       <use xlink:href="#DejaVuSans-30" transform="translate(127.246094 0)"/>
       <use xlink:href="#DejaVuSans-30" transform="translate(190.869141 0)"/>
       <use xlink:href="#DejaVuSans-30" transform="translate(254.492188 0)"/>
      </g>
     </g>
    </g>
    <g id="xtick_6">
     <g id="line2d_11">
      <path d="M 682.420857 390.04 
L 682.420857 10.8 
" clip-path="url(#pcf5164589e)" style="fill: none; stroke: #b0b0b0; stroke-width: 0.8; stroke-linecap: square"/>
     </g>
     <g id="line2d_12">
      <g>
       <use xlink:href="#mbc2d8ffbcd" x="682.420857" y="390.04" style="stroke: #000000; stroke-width: 0.8"/>
      </g>
     </g>
     <g id="text_6">
      <!-- 100000 -->
      <g transform="translate(663.333357 404.638438) scale(0.1 -0.1)">
       <defs>
        <path id="DejaVuSans-31" d="M 794 531 
L 1825 531 
L 1825 4091 
L 703 3866 
L 703 4441 
L 1819 4666 
L 2450 4666 
L 2450 531 
L 3481 531 
L 3481 0 
L 794 0 
L 794 531 
z
" transform="scale(0.015625)"/>
       </defs>
       <use xlink:href="#DejaVuSans-31"/>
       <use xlink:href="#DejaVuSans-30" transform="translate(63.623047 0)"/>
       <use xlink:href="#DejaVuSans-30" transform="translate(127.246094 0)"/>
       <use xlink:href="#DejaVuSans-30" transform="translate(190.869141 0)"/>
       <use xlink:href="#DejaVuSans-30" transform="translate(254.492188 0)"/>
       <use xlink:href="#DejaVuSans-30" transform="translate(318.115234 0)"/>
      </g>
     </g>
    </g>
    <g id="text_7">
     <!-- Steps -->
     <g transform="translate(364.470156 418.316562) scale(0.1 -0.1)">
      <defs>
       <path id="DejaVuSans-53" d="M 3425 4513 
L 3425 3897 
Q 3066 4069 2747 4153 
Q 2428 4238 2131 4238 
Q 1616 4238 1336 4038 
Q 1056 3838 1056 3469 
Q 1056 3159 1242 3001 
Q 1428 2844 1947 2747 
L 2328 2669 
Q 3034 2534 3370 2195 
Q 3706 1856 3706 1288 
Q 3706 609 3251 259 
Q 2797 -91 1919 -91 
Q 1588 -91 1214 -16 
Q 841 59 441 206 
L 441 856 
Q 825 641 1194 531 
Q 1563 422 1919 422 
Q 2459 422 2753 634 
Q 3047 847 3047 1241 
Q 3047 1584 2836 1778 
Q 2625 1972 2144 2069 
L 1759 2144 
Q 1053 2284 737 2584 
Q 422 2884 422 3419 
Q 422 4038 858 4394 
Q 1294 4750 2059 4750 
Q 2388 4750 2728 4690 
Q 3069 4631 3425 4513 
z
" transform="scale(0.015625)"/>
       <path id="DejaVuSans-74" d="M 1172 4494 
L 1172 3500 
L 2356 3500 
L 2356 3053 
L 1172 3053 
L 1172 1153 
Q 1172 725 1289 603 
Q 1406 481 1766 481 
L 2356 481 
L 2356 0 
L 1766 0 
Q 1100 0 847 248 
Q 594 497 594 1153 
L 594 3053 
L 172 3053 
L 172 3500 
L 594 3500 
L 594 4494 
L 1172 4494 
z
" transform="scale(0.015625)"/>
       <path id="DejaVuSans-65" d="M 3597 1894 
L 3597 1613 
L 953 1613 
Q 991 1019 1311 708 
Q 1631 397 2203 397 
Q 2534 397 2845 478 
Q 3156 559 3463 722 
L 3463 178 
Q 3153 47 2828 -22 
Q 2503 -91 2169 -91 
Q 1331 -91 842 396 
Q 353 884 353 1716 
Q 353 2575 817 3079 
Q 1281 3584 2069 3584 
Q 2775 3584 3186 3129 
Q 3597 2675 3597 1894 
z
M 3022 2063 
Q 3016 2534 2758 2815 
Q 2500 3097 2075 3097 
Q 1594 3097 1305 2825 
Q 1016 2553 972 2059 
L 3022 2063 
z
" transform="scale(0.015625)"/>
       <path id="DejaVuSans-70" d="M 1159 525 
L 1159 -1331 
L 581 -1331 
L 581 3500 
L 1159 3500 
L 1159 2969 
Q 1341 3281 1617 3432 
Q 1894 3584 2278 3584 
Q 2916 3584 3314 3078 
Q 3713 2572 3713 1747 
Q 3713 922 3314 415 
Q 2916 -91 2278 -91 
Q 1894 -91 1617 61 
Q 1341 213 1159 525 
z
M 3116 1747 
Q 3116 2381 2855 2742 
Q 2594 3103 2138 3103 
Q 1681 3103 1420 2742 
Q 1159 2381 1159 1747 
Q 1159 1113 1420 752 
Q 1681 391 2138 391 
Q 2594 391 2855 752 
Q 3116 1113 3116 1747 
z
" transform="scale(0.015625)"/>
       <path id="DejaVuSans-73" d="M 2834 3397 
L 2834 2853 
Q 2591 2978 2328 3040 
Q 2066 3103 1784 3103 
Q 1356 3103 1142 2972 
Q 928 2841 928 2578 
Q 928 2378 1081 2264 
Q 1234 2150 1697 2047 
L 1894 2003 
Q 2506 1872 2764 1633 
Q 3022 1394 3022 966 
Q 3022 478 2636 193 
Q 2250 -91 1575 -91 
Q 1294 -91 989 -36 
Q 684 19 347 128 
L 347 722 
Q 666 556 975 473 
Q 1284 391 1588 391 
Q 1994 391 2212 530 
Q 2431 669 2431 922 
Q 2431 1156 2273 1281 
Q 2116 1406 1581 1522 
L 1381 1569 
Q 847 1681 609 1914 
Q 372 2147 372 2553 
Q 372 3047 722 3315 
Q 1072 3584 1716 3584 
Q 2034 3584 2315 3537 
Q 2597 3491 2834 3397 
z
" transform="scale(0.015625)"/>
      </defs>
      <use xlink:href="#DejaVuSans-53"/>
      <use xlink:href="#DejaVuSans-74" transform="translate(63.476562 0)"/>
      <use xlink:href="#DejaVuSans-65" transform="translate(102.685547 0)"/>
      <use xlink:href="#DejaVuSans-70" transform="translate(164.208984 0)"/>
      <use xlink:href="#DejaVuSans-73" transform="translate(227.685547 0)"/>
     </g>
    </g>
   </g>
   <g id="matplotlib.axis_2">
    <g id="ytick_1">
     <g id="line2d_13">
      <path d="M 47.72 367.737178 
L 709.2 367.737178 
" clip-path="url(#pcf5164589e)" style="fill: none; stroke: #b0b0b0; stroke-width: 0.8; stroke-linecap: square"/>
     </g>
     <g id="line2d_14">
      <defs>
       <path id="m5cd873350d" d="M 0 0 
L -3.5 0 
" style="stroke: #000000; stroke-width: 0.8"/>
      </defs>
      <g>
       <use xlink:href="#m5cd873350d" x="47.72" y="367.737178" style="stroke: #000000; stroke-width: 0.8"/>
      </g>
     </g>
     <g id="text_8">
      <!-- 1.0 -->
      <g transform="translate(24.816875 371.536397) scale(0.1 -0.1)">
       <defs>
        <path id="DejaVuSans-2e" d="M 684 794 
L 1344 794 
L 1344 0 
L 684 0 
L 684 794 
z
" transform="scale(0.015625)"/>
       </defs>
       <use xlink:href="#DejaVuSans-31"/>
       <use xlink:href="#DejaVuSans-2e" transform="translate(63.623047 0)"/>
       <use xlink:href="#DejaVuSans-30" transform="translate(95.410156 0)"/>
      </g>
     </g>
    </g>
    <g id="ytick_2">
     <g id="line2d_15">
      <path d="M 47.72 297.332169 
L 709.2 297.332169 
" clip-path="url(#pcf5164589e)" style="fill: none; stroke: #b0b0b0; stroke-width: 0.8; stroke-linecap: square"/>
     </g>
     <g id="line2d_16">
      <g>
       <use xlink:href="#m5cd873350d" x="47.72" y="297.332169" style="stroke: #000000; stroke-width: 0.8"/>
      </g>
     </g>
     <g id="text_9">
      <!-- 1.5 -->
      <g transform="translate(24.816875 301.131388) scale(0.1 -0.1)">
       <defs>
        <path id="DejaVuSans-35" d="M 691 4666 
L 3169 4666 
L 3169 4134 
L 1269 4134 
L 1269 2991 
Q 1406 3038 1543 3061 
Q 1681 3084 1819 3084 
Q 2600 3084 3056 2656 
Q 3513 2228 3513 1497 
Q 3513 744 3044 326 
Q 2575 -91 1722 -91 
Q 1428 -91 1123 -41 
Q 819 9 494 109 
L 494 744 
Q 775 591 1075 516 
Q 1375 441 1709 441 
Q 2250 441 2565 725 
Q 2881 1009 2881 1497 
Q 2881 1984 2565 2268 
Q 2250 2553 1709 2553 
Q 1456 2553 1204 2497 
Q 953 2441 691 2322 
L 691 4666 
z
" transform="scale(0.015625)"/>
       </defs>
       <use xlink:href="#DejaVuSans-31"/>
       <use xlink:href="#DejaVuSans-2e" transform="translate(63.623047 0)"/>
       <use xlink:href="#DejaVuSans-35" transform="translate(95.410156 0)"/>
      </g>
     </g>
    </g>
    <g id="ytick_3">
     <g id="line2d_17">
      <path d="M 47.72 226.92716 
L 709.2 226.92716 
" clip-path="url(#pcf5164589e)" style="fill: none; stroke: #b0b0b0; stroke-width: 0.8; stroke-linecap: square"/>
     </g>
     <g id="line2d_18">
      <g>
       <use xlink:href="#m5cd873350d" x="47.72" y="226.92716" style="stroke: #000000; stroke-width: 0.8"/>
      </g>
     </g>
     <g id="text_10">
      <!-- 2.0 -->
      <g transform="translate(24.816875 230.726378) scale(0.1 -0.1)">
       <use xlink:href="#DejaVuSans-32"/>
       <use xlink:href="#DejaVuSans-2e" transform="translate(63.623047 0)"/>
       <use xlink:href="#DejaVuSans-30" transform="translate(95.410156 0)"/>
      </g>
     </g>
    </g>
    <g id="ytick_4">
     <g id="line2d_19">
      <path d="M 47.72 156.52215 
L 709.2 156.52215 
" clip-path="url(#pcf5164589e)" style="fill: none; stroke: #b0b0b0; stroke-width: 0.8; stroke-linecap: square"/>
     </g>
     <g id="line2d_20">
      <g>
       <use xlink:href="#m5cd873350d" x="47.72" y="156.52215" style="stroke: #000000; stroke-width: 0.8"/>
      </g>
     </g>
     <g id="text_11">
      <!-- 2.5 -->
      <g transform="translate(24.816875 160.321369) scale(0.1 -0.1)">
       <use xlink:href="#DejaVuSans-32"/>
       <use xlink:href="#DejaVuSans-2e" transform="translate(63.623047 0)"/>
       <use xlink:href="#DejaVuSans-35" transform="translate(95.410156 0)"/>
      </g>
     </g>
    </g>
    <g id="ytick_5">
     <g id="line2d_21">
      <path d="M 47.72 86.117141 
L 709.2 86.117141 
" clip-path="url(#pcf5164589e)" style="fill: none; stroke: #b0b0b0; stroke-width: 0.8; stroke-linecap: square"/>
     </g>
     <g id="line2d_22">
      <g>
       <use xlink:href="#m5cd873350d" x="47.72" y="86.117141" style="stroke: #000000; stroke-width: 0.8"/>
      </g>
     </g>
     <g id="text_12">
      <!-- 3.0 -->
      <g transform="translate(24.816875 89.91636) scale(0.1 -0.1)">
       <defs>
        <path id="DejaVuSans-33" d="M 2597 2516 
Q 3050 2419 3304 2112 
Q 3559 1806 3559 1356 
Q 3559 666 3084 287 
Q 2609 -91 1734 -91 
Q 1441 -91 1130 -33 
Q 819 25 488 141 
L 488 750 
Q 750 597 1062 519 
Q 1375 441 1716 441 
Q 2309 441 2620 675 
Q 2931 909 2931 1356 
Q 2931 1769 2642 2001 
Q 2353 2234 1838 2234 
L 1294 2234 
L 1294 2753 
L 1863 2753 
Q 2328 2753 2575 2939 
Q 2822 3125 2822 3475 
Q 2822 3834 2567 4026 
Q 2313 4219 1838 4219 
Q 1578 4219 1281 4162 
Q 984 4106 628 3988 
L 628 4550 
Q 988 4650 1302 4700 
Q 1616 4750 1894 4750 
Q 2613 4750 3031 4423 
Q 3450 4097 3450 3541 
Q 3450 3153 3228 2886 
Q 3006 2619 2597 2516 
z
" transform="scale(0.015625)"/>
       </defs>
       <use xlink:href="#DejaVuSans-33"/>
       <use xlink:href="#DejaVuSans-2e" transform="translate(63.623047 0)"/>
       <use xlink:href="#DejaVuSans-30" transform="translate(95.410156 0)"/>
      </g>
     </g>
    </g>
    <g id="ytick_6">
     <g id="line2d_23">
      <path d="M 47.72 15.712132 
L 709.2 15.712132 
" clip-path="url(#pcf5164589e)" style="fill: none; stroke: #b0b0b0; stroke-width: 0.8; stroke-linecap: square"/>
     </g>
     <g id="line2d_24">
      <g>
       <use xlink:href="#m5cd873350d" x="47.72" y="15.712132" style="stroke: #000000; stroke-width: 0.8"/>
      </g>
     </g>
     <g id="text_13">
      <!-- 3.5 -->
      <g transform="translate(24.816875 19.51135) scale(0.1 -0.1)">
       <use xlink:href="#DejaVuSans-33"/>
       <use xlink:href="#DejaVuSans-2e" transform="translate(63.623047 0)"/>
       <use xlink:href="#DejaVuSans-35" transform="translate(95.410156 0)"/>
      </g>
     </g>
    </g>
    <g id="text_14">
     <!-- Circuit Depth -->
     <g transform="translate(18.737188 233.329375) rotate(-90) scale(0.1 -0.1)">
      <defs>
       <path id="DejaVuSans-43" d="M 4122 4306 
L 4122 3641 
Q 3803 3938 3442 4084 
Q 3081 4231 2675 4231 
Q 1875 4231 1450 3742 
Q 1025 3253 1025 2328 
Q 1025 1406 1450 917 
Q 1875 428 2675 428 
Q 3081 428 3442 575 
Q 3803 722 4122 1019 
L 4122 359 
Q 3791 134 3420 21 
Q 3050 -91 2638 -91 
Q 1578 -91 968 557 
Q 359 1206 359 2328 
Q 359 3453 968 4101 
Q 1578 4750 2638 4750 
Q 3056 4750 3426 4639 
Q 3797 4528 4122 4306 
z
" transform="scale(0.015625)"/>
       <path id="DejaVuSans-69" d="M 603 3500 
L 1178 3500 
L 1178 0 
L 603 0 
L 603 3500 
z
M 603 4863 
L 1178 4863 
L 1178 4134 
L 603 4134 
L 603 4863 
z
" transform="scale(0.015625)"/>
       <path id="DejaVuSans-72" d="M 2631 2963 
Q 2534 3019 2420 3045 
Q 2306 3072 2169 3072 
Q 1681 3072 1420 2755 
Q 1159 2438 1159 1844 
L 1159 0 
L 581 0 
L 581 3500 
L 1159 3500 
L 1159 2956 
Q 1341 3275 1631 3429 
Q 1922 3584 2338 3584 
Q 2397 3584 2469 3576 
Q 2541 3569 2628 3553 
L 2631 2963 
z
" transform="scale(0.015625)"/>
       <path id="DejaVuSans-63" d="M 3122 3366 
L 3122 2828 
Q 2878 2963 2633 3030 
Q 2388 3097 2138 3097 
Q 1578 3097 1268 2742 
Q 959 2388 959 1747 
Q 959 1106 1268 751 
Q 1578 397 2138 397 
Q 2388 397 2633 464 
Q 2878 531 3122 666 
L 3122 134 
Q 2881 22 2623 -34 
Q 2366 -91 2075 -91 
Q 1284 -91 818 406 
Q 353 903 353 1747 
Q 353 2603 823 3093 
Q 1294 3584 2113 3584 
Q 2378 3584 2631 3529 
Q 2884 3475 3122 3366 
z
" transform="scale(0.015625)"/>
       <path id="DejaVuSans-75" d="M 544 1381 
L 544 3500 
L 1119 3500 
L 1119 1403 
Q 1119 906 1312 657 
Q 1506 409 1894 409 
Q 2359 409 2629 706 
Q 2900 1003 2900 1516 
L 2900 3500 
L 3475 3500 
L 3475 0 
L 2900 0 
L 2900 538 
Q 2691 219 2414 64 
Q 2138 -91 1772 -91 
Q 1169 -91 856 284 
Q 544 659 544 1381 
z
M 1991 3584 
L 1991 3584 
z
" transform="scale(0.015625)"/>
       <path id="DejaVuSans-20" transform="scale(0.015625)"/>
       <path id="DejaVuSans-44" d="M 1259 4147 
L 1259 519 
L 2022 519 
Q 2988 519 3436 956 
Q 3884 1394 3884 2338 
Q 3884 3275 3436 3711 
Q 2988 4147 2022 4147 
L 1259 4147 
z
M 628 4666 
L 1925 4666 
Q 3281 4666 3915 4102 
Q 4550 3538 4550 2338 
Q 4550 1131 3912 565 
Q 3275 0 1925 0 
L 628 0 
L 628 4666 
z
" transform="scale(0.015625)"/>
       <path id="DejaVuSans-68" d="M 3513 2113 
L 3513 0 
L 2938 0 
L 2938 2094 
Q 2938 2591 2744 2837 
Q 2550 3084 2163 3084 
Q 1697 3084 1428 2787 
Q 1159 2491 1159 1978 
L 1159 0 
L 581 0 
L 581 4863 
L 1159 4863 
L 1159 2956 
Q 1366 3272 1645 3428 
Q 1925 3584 2291 3584 
Q 2894 3584 3203 3211 
Q 3513 2838 3513 2113 
z
" transform="scale(0.015625)"/>
      </defs>
      <use xlink:href="#DejaVuSans-43"/>
      <use xlink:href="#DejaVuSans-69" transform="translate(69.824219 0)"/>
      <use xlink:href="#DejaVuSans-72" transform="translate(97.607422 0)"/>
      <use xlink:href="#DejaVuSans-63" transform="translate(136.470703 0)"/>
      <use xlink:href="#DejaVuSans-75" transform="translate(191.451172 0)"/>
      <use xlink:href="#DejaVuSans-69" transform="translate(254.830078 0)"/>
      <use xlink:href="#DejaVuSans-74" transform="translate(282.613281 0)"/>
      <use xlink:href="#DejaVuSans-20" transform="translate(321.822266 0)"/>
      <use xlink:href="#DejaVuSans-44" transform="translate(353.609375 0)"/>
      <use xlink:href="#DejaVuSans-65" transform="translate(430.611328 0)"/>
      <use xlink:href="#DejaVuSans-70" transform="translate(492.134766 0)"/>
      <use xlink:href="#DejaVuSans-74" transform="translate(555.611328 0)"/>
      <use xlink:href="#DejaVuSans-68" transform="translate(594.820312 0)"/>
     </g>
    </g>
   </g>
   <g id="line2d_25">
    <path d="M 77.847939 182.102637 
L 81.542535 232.794244 
L 84.490931 260.956248 
L 86.923661 293.342552 
L 88.992392 317.045572 
L 90.72139 330.18784 
L 92.274455 349.901243 
L 93.669786 355.064277 
L 94.974118 360.931361 
L 96.24205 364.216928 
L 97.497848 366.563762 
L 101.168177 367.267812 
L 103.606974 366.798445 
L 104.820306 367.502495 
L 106.045771 367.502495 
L 107.259103 367.737178 
L 108.472435 367.737178 
L 109.685767 367.502495 
L 110.899098 367.033128 
L 112.118497 367.502495 
L 113.331829 367.502495 
L 114.551227 367.737178 
L 121.831218 367.737178 
L 123.04455 367.502495 
L 124.257882 367.737178 
L 132.751205 367.737178 
L 133.964536 367.502495 
L 135.177868 367.737178 
L 142.457859 367.737178 
L 143.671191 367.502495 
L 144.89059 367.737178 
L 148.530585 367.737178 
L 149.749984 367.502495 
L 150.963315 367.502495 
L 152.182714 367.737178 
L 157.036041 367.737178 
L 158.25544 367.502495 
L 159.468771 367.737178 
L 169.181493 367.737178 
L 170.394825 367.502495 
L 171.608156 367.737178 
L 172.821488 367.737178 
L 174.03482 367.502495 
L 175.248152 367.737178 
L 187.38147 367.737178 
L 188.594802 367.502495 
L 189.808134 367.737178 
L 269.894101 367.737178 
L 271.107433 367.502495 
L 272.320765 367.737178 
L 282.02742 367.737178 
L 283.240751 367.502495 
L 284.454083 367.737178 
L 306.294056 367.737178 
L 307.507388 367.502495 
L 308.72072 367.737178 
L 409.427262 367.737178 
L 410.640593 367.502495 
L 411.853925 367.737178 
L 540.473166 367.737178 
L 541.686498 367.502495 
L 542.899829 367.737178 
L 635.113049 367.737178 
L 636.32638 367.502495 
L 637.545779 367.737178 
L 678.799061 367.737178 
L 678.799061 367.737178 
" clip-path="url(#pcf5164589e)" style="fill: none; stroke: #0000ff; stroke-width: 1.5; stroke-linecap: square"/>
   </g>
   <g id="line2d_26">
    <path d="M 77.787273 179.286437 
L 81.876201 176.235553 
L 85.734596 181.163904 
L 89.920591 164.736068 
L 93.80932 182.572004 
L 97.673781 178.81707 
L 101.89011 187.969721 
L 106.033638 182.572004 
L 110.262099 185.388204 
L 114.308561 176.939603 
L 118.458156 173.419353 
L 122.60775 171.307202 
L 126.757345 179.286437 
L 130.973673 185.857571 
L 134.983735 178.81707 
L 139.321396 166.613535 
L 143.416391 190.551238 
L 147.420386 171.307202 
L 151.375848 172.715303 
L 155.42231 180.459854 
L 159.505171 171.072519 
L 163.497033 171.541886 
L 167.604161 168.960369 
L 171.596023 173.419353 
L 175.600018 176.235553 
L 179.870946 176.939603 
L 184.123674 186.796304 
L 188.255069 167.552268 
L 192.671597 171.541886 
L 196.857592 165.909485 
L 201.049653 179.051753 
L 205.162848 183.510737 
L 209.239643 177.174286 
L 213.395305 186.561621 
L 217.544899 181.163904 
L 221.573161 176.470236 
L 225.722756 183.745421 
L 229.714618 183.041371 
L 233.894546 162.623918 
L 238.056274 171.072519 
L 242.060269 166.613535 
L 246.191664 187.969721 
L 250.310926 176.70492 
L 254.67892 161.685184 
L 258.737515 177.40897 
L 262.771843 182.102637 
L 266.721239 179.286437 
L 270.8405 171.072519 
L 275.323761 180.459854 
L 279.273156 179.990487 
L 283.356018 171.776569 
L 287.27508 183.510737 
L 291.309408 177.40897 
L 295.459003 176.470236 
L 299.742064 175.766186 
L 303.976592 179.051753 
L 308.016987 175.531503 
L 312.118049 185.153521 
L 316.206977 164.970751 
L 320.241306 174.592769 
L 324.324167 168.725685 
L 328.303896 185.622888 
L 332.52629 181.163904 
L 336.463552 175.29682 
L 340.69808 173.184669 
L 344.981142 172.949986 
L 349.221736 173.654036 
L 353.389531 171.072519 
L 357.514859 183.510737 
L 361.640188 162.858601 
L 366.074915 178.347703 
L 370.11531 184.214787 
L 374.246705 175.766186 
L 378.202167 183.510737 
L 382.248629 175.531503 
L 386.489223 173.888719 
L 390.669152 189.847188 
L 394.673147 186.796304 
L 398.804541 170.837836 
L 403.312069 171.307202 
L 407.558731 170.368469 
L 411.647659 179.990487 
L 420.001449 169.899102 
L 423.944777 183.745421 
L 428.088305 182.572004 
L 432.013434 183.745421 
L 436.102362 175.062136 
L 440.179157 168.256319 
L 444.353018 184.214787 
L 448.350947 184.684154 
L 456.923136 172.949986 
L 461.169797 179.051753 
L 465.082793 172.949986 
L 469.347654 188.908455 
L 473.266716 171.541886 
L 477.040178 171.072519 
L 481.038106 172.715303 
L 485.266568 178.81707 
L 489.331229 176.939603 
L 493.480824 179.990487 
L 497.539419 187.030988 
L 501.682947 162.623918 
L 506.014542 179.990487 
L 509.951804 178.347703 
L 514.119598 176.235553 
L 518.12966 183.510737 
L 522.066922 178.347703 
L 526.070917 176.00087 
L 530.250845 179.286437 
L 534.70984 171.776569 
L 538.950434 161.215818 
L 543.203162 172.715303 
L 547.267824 168.021635 
L 551.350686 179.051753 
L 555.670147 154.175317 
L 564.242336 175.531503 
L 568.361598 179.990487 
L 572.486926 181.63327 
L 577.140054 181.63327 
L 581.192582 171.307202 
L 585.15411 180.22517 
L 589.261239 178.582387 
L 593.3623 183.276054 
L 597.329895 180.694537 
L 601.485557 180.92922 
L 605.641218 166.613535 
L 609.730147 180.22517 
L 613.770542 180.92922 
L 617.93227 182.33732 
L 622.130398 176.00087 
L 626.055526 185.622888 
L 630.192988 187.500354 
L 634.18485 179.051753 
L 638.243445 181.63327 
L 642.453706 170.368469 
L 646.603301 186.092254 
L 650.601229 177.643653 
L 654.811491 180.22517 
L 658.827619 175.531503 
L 662.625348 187.969721 
L 666.683943 180.694537 
L 670.851738 179.286437 
L 674.989199 169.664419 
L 679.132727 184.214787 
L 679.132727 184.214787 
" clip-path="url(#pcf5164589e)" style="fill: none; stroke: #ffa500; stroke-width: 1.5; stroke-linecap: square"/>
   </g>
   <g id="patch_3">
    <path d="M 47.72 390.04 
L 47.72 10.8 
" style="fill: none; stroke: #000000; stroke-width: 0.8; stroke-linejoin: miter; stroke-linecap: square"/>
   </g>
   <g id="patch_4">
    <path d="M 709.2 390.04 
L 709.2 10.8 
" style="fill: none; stroke: #000000; stroke-width: 0.8; stroke-linejoin: miter; stroke-linecap: square"/>
   </g>
   <g id="patch_5">
    <path d="M 47.72 390.04 
L 709.2 390.04 
" style="fill: none; stroke: #000000; stroke-width: 0.8; stroke-linejoin: miter; stroke-linecap: square"/>
   </g>
   <g id="patch_6">
    <path d="M 47.72 10.8 
L 709.2 10.8 
" style="fill: none; stroke: #000000; stroke-width: 0.8; stroke-linejoin: miter; stroke-linecap: square"/>
   </g>
   <g id="legend_1">
    <g id="patch_7">
     <path d="M 628.803125 385.04 
L 702.2 385.04 
Q 704.2 385.04 704.2 383.04 
L 704.2 340.005625 
Q 704.2 338.005625 702.2 338.005625 
L 628.803125 338.005625 
Q 626.803125 338.005625 626.803125 340.005625 
L 626.803125 383.04 
Q 626.803125 385.04 628.803125 385.04 
z
" style="fill: #ffffff; opacity: 0.8; stroke: #cccccc; stroke-linejoin: miter"/>
    </g>
    <g id="text_15">
     <!-- Agent -->
     <g transform="translate(650.701563 349.604062) scale(0.1 -0.1)">
      <defs>
       <path id="DejaVuSans-41" d="M 2188 4044 
L 1331 1722 
L 3047 1722 
L 2188 4044 
z
M 1831 4666 
L 2547 4666 
L 4325 0 
L 3669 0 
L 3244 1197 
L 1141 1197 
L 716 0 
L 50 0 
L 1831 4666 
z
" transform="scale(0.015625)"/>
       <path id="DejaVuSans-67" d="M 2906 1791 
Q 2906 2416 2648 2759 
Q 2391 3103 1925 3103 
Q 1463 3103 1205 2759 
Q 947 2416 947 1791 
Q 947 1169 1205 825 
Q 1463 481 1925 481 
Q 2391 481 2648 825 
Q 2906 1169 2906 1791 
z
M 3481 434 
Q 3481 -459 3084 -895 
Q 2688 -1331 1869 -1331 
Q 1566 -1331 1297 -1286 
Q 1028 -1241 775 -1147 
L 775 -588 
Q 1028 -725 1275 -790 
Q 1522 -856 1778 -856 
Q 2344 -856 2625 -561 
Q 2906 -266 2906 331 
L 2906 616 
Q 2728 306 2450 153 
Q 2172 0 1784 0 
Q 1141 0 747 490 
Q 353 981 353 1791 
Q 353 2603 747 3093 
Q 1141 3584 1784 3584 
Q 2172 3584 2450 3431 
Q 2728 3278 2906 2969 
L 2906 3500 
L 3481 3500 
L 3481 434 
z
" transform="scale(0.015625)"/>
       <path id="DejaVuSans-6e" d="M 3513 2113 
L 3513 0 
L 2938 0 
L 2938 2094 
Q 2938 2591 2744 2837 
Q 2550 3084 2163 3084 
Q 1697 3084 1428 2787 
Q 1159 2491 1159 1978 
L 1159 0 
L 581 0 
L 581 3500 
L 1159 3500 
L 1159 2956 
Q 1366 3272 1645 3428 
Q 1925 3584 2291 3584 
Q 2894 3584 3203 3211 
Q 3513 2838 3513 2113 
z
" transform="scale(0.015625)"/>
      </defs>
      <use xlink:href="#DejaVuSans-41"/>
      <use xlink:href="#DejaVuSans-67" transform="translate(68.408203 0)"/>
      <use xlink:href="#DejaVuSans-65" transform="translate(131.884766 0)"/>
      <use xlink:href="#DejaVuSans-6e" transform="translate(193.408203 0)"/>
      <use xlink:href="#DejaVuSans-74" transform="translate(256.787109 0)"/>
     </g>
    </g>
    <g id="line2d_27">
     <path d="M 630.803125 360.782187 
L 640.803125 360.782187 
L 650.803125 360.782187 
" style="fill: none; stroke: #0000ff; stroke-width: 1.5; stroke-linecap: square"/>
    </g>
    <g id="text_16">
     <!-- PPO -->
     <g transform="translate(658.803125 364.282187) scale(0.1 -0.1)">
      <defs>
       <path id="DejaVuSans-50" d="M 1259 4147 
L 1259 2394 
L 2053 2394 
Q 2494 2394 2734 2622 
Q 2975 2850 2975 3272 
Q 2975 3691 2734 3919 
Q 2494 4147 2053 4147 
L 1259 4147 
z
M 628 4666 
L 2053 4666 
Q 2838 4666 3239 4311 
Q 3641 3956 3641 3272 
Q 3641 2581 3239 2228 
Q 2838 1875 2053 1875 
L 1259 1875 
L 1259 0 
L 628 0 
L 628 4666 
z
" transform="scale(0.015625)"/>
       <path id="DejaVuSans-4f" d="M 2522 4238 
Q 1834 4238 1429 3725 
Q 1025 3213 1025 2328 
Q 1025 1447 1429 934 
Q 1834 422 2522 422 
Q 3209 422 3611 934 
Q 4013 1447 4013 2328 
Q 4013 3213 3611 3725 
Q 3209 4238 2522 4238 
z
M 2522 4750 
Q 3503 4750 4090 4092 
Q 4678 3434 4678 2328 
Q 4678 1225 4090 567 
Q 3503 -91 2522 -91 
Q 1538 -91 948 565 
Q 359 1222 359 2328 
Q 359 3434 948 4092 
Q 1538 4750 2522 4750 
z
" transform="scale(0.015625)"/>
      </defs>
      <use xlink:href="#DejaVuSans-50"/>
      <use xlink:href="#DejaVuSans-50" transform="translate(60.302734 0)"/>
      <use xlink:href="#DejaVuSans-4f" transform="translate(120.605469 0)"/>
     </g>
    </g>
    <g id="line2d_28">
     <path d="M 630.803125 375.460312 
L 640.803125 375.460312 
L 650.803125 375.460312 
" style="fill: none; stroke: #ffa500; stroke-width: 1.5; stroke-linecap: square"/>
    </g>
    <g id="text_17">
     <!-- Random -->
     <g transform="translate(658.803125 378.960312) scale(0.1 -0.1)">
      <defs>
       <path id="DejaVuSans-52" d="M 2841 2188 
Q 3044 2119 3236 1894 
Q 3428 1669 3622 1275 
L 4263 0 
L 3584 0 
L 2988 1197 
Q 2756 1666 2539 1819 
Q 2322 1972 1947 1972 
L 1259 1972 
L 1259 0 
L 628 0 
L 628 4666 
L 2053 4666 
Q 2853 4666 3247 4331 
Q 3641 3997 3641 3322 
Q 3641 2881 3436 2590 
Q 3231 2300 2841 2188 
z
M 1259 4147 
L 1259 2491 
L 2053 2491 
Q 2509 2491 2742 2702 
Q 2975 2913 2975 3322 
Q 2975 3731 2742 3939 
Q 2509 4147 2053 4147 
L 1259 4147 
z
" transform="scale(0.015625)"/>
       <path id="DejaVuSans-61" d="M 2194 1759 
Q 1497 1759 1228 1600 
Q 959 1441 959 1056 
Q 959 750 1161 570 
Q 1363 391 1709 391 
Q 2188 391 2477 730 
Q 2766 1069 2766 1631 
L 2766 1759 
L 2194 1759 
z
M 3341 1997 
L 3341 0 
L 2766 0 
L 2766 531 
Q 2569 213 2275 61 
Q 1981 -91 1556 -91 
Q 1019 -91 701 211 
Q 384 513 384 1019 
Q 384 1609 779 1909 
Q 1175 2209 1959 2209 
L 2766 2209 
L 2766 2266 
Q 2766 2663 2505 2880 
Q 2244 3097 1772 3097 
Q 1472 3097 1187 3025 
Q 903 2953 641 2809 
L 641 3341 
Q 956 3463 1253 3523 
Q 1550 3584 1831 3584 
Q 2591 3584 2966 3190 
Q 3341 2797 3341 1997 
z
" transform="scale(0.015625)"/>
       <path id="DejaVuSans-64" d="M 2906 2969 
L 2906 4863 
L 3481 4863 
L 3481 0 
L 2906 0 
L 2906 525 
Q 2725 213 2448 61 
Q 2172 -91 1784 -91 
Q 1150 -91 751 415 
Q 353 922 353 1747 
Q 353 2572 751 3078 
Q 1150 3584 1784 3584 
Q 2172 3584 2448 3432 
Q 2725 3281 2906 2969 
z
M 947 1747 
Q 947 1113 1208 752 
Q 1469 391 1925 391 
Q 2381 391 2643 752 
Q 2906 1113 2906 1747 
Q 2906 2381 2643 2742 
Q 2381 3103 1925 3103 
Q 1469 3103 1208 2742 
Q 947 2381 947 1747 
z
" transform="scale(0.015625)"/>
       <path id="DejaVuSans-6f" d="M 1959 3097 
Q 1497 3097 1228 2736 
Q 959 2375 959 1747 
Q 959 1119 1226 758 
Q 1494 397 1959 397 
Q 2419 397 2687 759 
Q 2956 1122 2956 1747 
Q 2956 2369 2687 2733 
Q 2419 3097 1959 3097 
z
M 1959 3584 
Q 2709 3584 3137 3096 
Q 3566 2609 3566 1747 
Q 3566 888 3137 398 
Q 2709 -91 1959 -91 
Q 1206 -91 779 398 
Q 353 888 353 1747 
Q 353 2609 779 3096 
Q 1206 3584 1959 3584 
z
" transform="scale(0.015625)"/>
       <path id="DejaVuSans-6d" d="M 3328 2828 
Q 3544 3216 3844 3400 
Q 4144 3584 4550 3584 
Q 5097 3584 5394 3201 
Q 5691 2819 5691 2113 
L 5691 0 
L 5113 0 
L 5113 2094 
Q 5113 2597 4934 2840 
Q 4756 3084 4391 3084 
Q 3944 3084 3684 2787 
Q 3425 2491 3425 1978 
L 3425 0 
L 2847 0 
L 2847 2094 
Q 2847 2600 2669 2842 
Q 2491 3084 2119 3084 
Q 1678 3084 1418 2786 
Q 1159 2488 1159 1978 
L 1159 0 
L 581 0 
L 581 3500 
L 1159 3500 
L 1159 2956 
Q 1356 3278 1631 3431 
Q 1906 3584 2284 3584 
Q 2666 3584 2933 3390 
Q 3200 3197 3328 2828 
z
" transform="scale(0.015625)"/>
      </defs>
      <use xlink:href="#DejaVuSans-52"/>
      <use xlink:href="#DejaVuSans-61" transform="translate(67.232422 0)"/>
      <use xlink:href="#DejaVuSans-6e" transform="translate(128.511719 0)"/>
      <use xlink:href="#DejaVuSans-64" transform="translate(191.890625 0)"/>
      <use xlink:href="#DejaVuSans-6f" transform="translate(255.367188 0)"/>
      <use xlink:href="#DejaVuSans-6d" transform="translate(316.548828 0)"/>
     </g>
    </g>
   </g>
  </g>
 </g>
 <defs>
  <clipPath id="pcf5164589e">
   <rect x="47.72" y="10.8" width="661.48" height="379.24"/>
  </clipPath>
 </defs>
</svg>
