<?xml version="1.0" encoding="utf-8" standalone="no"?>
<!DOCTYPE svg PUBLIC "-//W3C//DTD SVG 1.1//EN"
  "http://www.w3.org/Graphics/SVG/1.1/DTD/svg11.dtd">
<svg xmlns:xlink="http://www.w3.org/1999/xlink" width="720pt" height="432pt" viewBox="0 0 720 432" xmlns="http://www.w3.org/2000/svg" version="1.1">
 <metadata>
  <rdf:RDF xmlns:dc="http://purl.org/dc/elements/1.1/" xmlns:cc="http://creativecommons.org/ns#" xmlns:rdf="http://www.w3.org/1999/02/22-rdf-syntax-ns#">
   <cc:Work>
    <dc:type rdf:resource="http://purl.org/dc/dcmitype/StillImage"/>
    <dc:date>2025-04-22T23:09:22.828620</dc:date>
    <dc:format>image/svg+xml</dc:format>
    <dc:creator>
     <cc:Agent>
      <dc:title>Matplotlib v3.10.0, https://matplotlib.org/</dc:title>
     </cc:Agent>
    </dc:creator>
   </cc:Work>
  </rdf:RDF>
 </metadata>
 <defs>
  <style type="text/css">*{stroke-linejoin: round; stroke-linecap: butt}</style>
 </defs>
 <g id="figure_1">
  <g id="patch_1">
   <path d="M 0 432 
L 720 432 
L 720 0 
L 0 0 
z
" style="fill: #ffffff"/>
  </g>
  <g id="axes_1">
   <g id="patch_2">
    <path d="M 53.93 390.04 
L 709.2 390.04 
L 709.2 11.704787 
L 53.93 11.704787 
z
" style="fill: #ffffff"/>
   </g>
   <g id="FillBetweenPolyCollection_1">
    <path d="M 83.715 233.402141 
L 83.715 350.958389 
L 86.524906 350.141691 
L 89.334811 341.01508 
L 92.144717 342.320428 
L 94.954623 339.294946 
L 97.764528 347.711863 
L 100.574434 349.505863 
L 103.38434 352.461889 
L 106.194245 350.032655 
L 109.004151 355.136003 
L 111.814057 355.295713 
L 114.623962 356.229589 
L 117.433868 364.180779 
L 120.243774 366.592932 
L 123.053679 368.266946 
L 125.863585 366.510624 
L 128.673491 368.38565 
L 131.483396 368.635973 
L 134.293302 366.088474 
L 137.103208 366.249825 
L 139.913113 371.538005 
L 142.723019 366.200594 
L 145.532925 372.842945 
L 148.34283 371.600415 
L 151.152736 370.347181 
L 153.962642 366.92599 
L 156.772547 369.39478 
L 159.582453 364.994135 
L 162.392358 368.525791 
L 165.202264 365.352908 
L 168.01217 359.505594 
L 170.822075 360.245264 
L 173.631981 360.168183 
L 176.441887 359.779451 
L 179.251792 359.358316 
L 182.061698 349.684654 
L 184.871604 351.531789 
L 187.681509 352.287583 
L 190.491415 353.777326 
L 193.301321 346.856012 
L 196.111226 339.286134 
L 198.921132 339.564247 
L 201.731038 346.318045 
L 204.540943 334.096096 
L 207.350849 333.934967 
L 210.160755 337.916418 
L 212.97066 347.980864 
L 215.780566 343.746067 
L 218.590472 349.782942 
L 221.400377 346.697771 
L 224.210283 330.68411 
L 227.020189 328.12233 
L 229.830094 327.337129 
L 232.64 323.892298 
L 235.449906 307.383038 
L 238.259811 282.98515 
L 241.069717 260.485476 
L 243.879623 266.30074 
L 246.689528 262.204205 
L 249.499434 262.385375 
L 252.30934 247.276351 
L 255.119245 237.896777 
L 257.929151 270.920198 
L 260.739057 275.293458 
L 263.548962 255.624253 
L 266.358868 245.679631 
L 269.168774 254.510235 
L 271.978679 262.938383 
L 274.788585 282.730085 
L 277.598491 272.209125 
L 280.408396 292.464254 
L 283.218302 277.192639 
L 286.028208 262.438045 
L 288.838113 230.321778 
L 291.648019 211.133284 
L 294.457925 237.890829 
L 297.26783 234.362063 
L 300.077736 205.953582 
L 302.887642 183.390697 
L 305.697547 199.62371 
L 308.507453 201.02696 
L 311.317358 196.497403 
L 314.127264 206.441356 
L 316.93717 200.285378 
L 319.747075 195.620852 
L 322.556981 197.44807 
L 325.366887 194.729883 
L 328.176792 186.666382 
L 330.986698 180.950698 
L 333.796604 182.863894 
L 336.606509 178.583204 
L 339.416415 169.8095 
L 342.226321 161.887865 
L 345.036226 170.22105 
L 347.846132 164.419502 
L 350.656038 163.770446 
L 353.465943 163.893468 
L 356.275849 163.846817 
L 359.085755 170.903378 
L 361.89566 169.848887 
L 364.705566 176.322057 
L 367.515472 193.854289 
L 370.325377 210.456124 
L 373.135283 223.871443 
L 375.945189 218.404812 
L 378.755094 193.412139 
L 381.565 183.906441 
L 384.374906 171.34238 
L 387.184811 161.307473 
L 389.994717 160.494093 
L 392.804623 160.564068 
L 395.614528 167.187481 
L 398.424434 162.107775 
L 401.23434 161.030275 
L 404.044245 156.250024 
L 406.854151 156.209275 
L 409.664057 159.312003 
L 412.473962 170.575407 
L 415.283868 183.392055 
L 418.093774 180.972484 
L 420.903679 186.234532 
L 423.713585 171.452003 
L 426.523491 166.682724 
L 429.333396 174.563783 
L 432.143302 171.810199 
L 434.953208 161.83903 
L 437.763113 164.525325 
L 440.573019 164.288665 
L 443.382925 168.421153 
L 446.19283 162.724755 
L 449.002736 160.058911 
L 451.812642 158.763545 
L 454.622547 161.858583 
L 457.432453 156.878659 
L 460.242358 160.876264 
L 463.052264 165.105792 
L 465.86217 175.008408 
L 468.672075 191.836739 
L 471.481981 183.991681 
L 474.291887 209.606245 
L 477.101792 173.422002 
L 479.911698 165.827773 
L 482.721604 163.685319 
L 485.531509 160.350213 
L 488.341415 170.084702 
L 491.151321 166.500348 
L 493.961226 201.067648 
L 496.771132 225.811662 
L 499.581038 263.886315 
L 502.390943 282.414792 
L 505.200849 296.881742 
L 508.010755 304.582458 
L 510.82066 300.010074 
L 513.630566 269.885944 
L 516.440472 262.488502 
L 519.250377 226.489812 
L 522.060283 187.837608 
L 524.870189 168.04448 
L 527.680094 161.83945 
L 530.49 182.665451 
L 533.299906 164.811662 
L 536.109811 185.77813 
L 538.919717 226.646572 
L 541.729623 179.81573 
L 544.539528 166.492665 
L 547.349434 171.039813 
L 550.15934 162.138591 
L 552.969245 162.32723 
L 555.779151 163.42784 
L 558.589057 175.211161 
L 561.398962 174.423617 
L 564.208868 157.739372 
L 567.018774 161.365738 
L 569.828679 164.140365 
L 572.638585 162.296418 
L 575.448491 159.259361 
L 578.258396 160.692025 
L 581.068302 161.788006 
L 583.878208 159.605275 
L 586.688113 163.008577 
L 589.498019 162.626797 
L 592.307925 167.831977 
L 595.11783 165.255193 
L 597.927736 175.643205 
L 600.737642 208.15927 
L 603.547547 188.042974 
L 606.357453 166.534851 
L 609.167358 171.005288 
L 611.977264 174.828318 
L 614.78717 188.722734 
L 617.597075 180.237248 
L 620.406981 174.115616 
L 623.216887 178.888192 
L 626.026792 208.594425 
L 628.836698 188.453377 
L 631.646604 178.626538 
L 634.456509 182.085578 
L 637.266415 174.023696 
L 640.076321 163.911815 
L 642.886226 165.760241 
L 645.696132 165.381722 
L 648.506038 163.774638 
L 651.315943 155.921975 
L 654.125849 169.104461 
L 656.935755 178.140905 
L 659.74566 160.870547 
L 662.555566 189.901155 
L 665.365472 171.036077 
L 668.175377 170.810624 
L 670.985283 164.6438 
L 673.795189 183.367441 
L 676.605094 176.3322 
L 679.415 174.599042 
L 679.415 51.665643 
L 679.415 51.665643 
L 676.605094 52.104191 
L 673.795189 53.154689 
L 670.985283 52.312578 
L 668.175377 51.596006 
L 665.365472 51.262696 
L 662.555566 49.174841 
L 659.74566 52.384313 
L 656.935755 51.9419 
L 654.125849 52.071147 
L 651.315943 51.819377 
L 648.506038 53.381422 
L 645.696132 53.515783 
L 642.886226 52.054325 
L 640.076321 52.324548 
L 637.266415 50.306567 
L 634.456509 51.348065 
L 631.646604 52.972672 
L 628.836698 52.431984 
L 626.026792 55.984094 
L 623.216887 56.310219 
L 620.406981 53.912669 
L 617.597075 54.81337 
L 614.78717 56.415091 
L 611.977264 55.802225 
L 609.167358 53.61823 
L 606.357453 52.983848 
L 603.547547 54.984654 
L 600.737642 60.54258 
L 597.927736 49.115278 
L 595.11783 51.726255 
L 592.307925 52.811637 
L 589.498019 51.690888 
L 586.688113 51.345545 
L 583.878208 50.798093 
L 581.068302 50.590593 
L 578.258396 51.070335 
L 575.448491 51.302002 
L 572.638585 51.053473 
L 569.828679 51.603649 
L 567.018774 50.942026 
L 564.208868 51.25982 
L 561.398962 53.428602 
L 558.589057 52.901953 
L 555.779151 50.853698 
L 552.969245 51.340983 
L 550.15934 51.096447 
L 547.349434 50.717054 
L 544.539528 50.926622 
L 541.729623 52.427413 
L 538.919717 55.044986 
L 536.109811 53.812082 
L 533.299906 51.386223 
L 530.49 47.547946 
L 527.680094 50.24677 
L 524.870189 50.619238 
L 522.060283 46.085763 
L 519.250377 40.296268 
L 516.440472 34.1336 
L 513.630566 32.01967 
L 510.82066 29.448793 
L 508.010755 30.177994 
L 505.200849 28.901843 
L 502.390943 29.608927 
L 499.581038 34.514545 
L 496.771132 40.421143 
L 493.961226 43.508156 
L 491.151321 49.165541 
L 488.341415 51.176026 
L 485.531509 50.491867 
L 482.721604 49.655534 
L 479.911698 50.729537 
L 477.101792 51.635565 
L 474.291887 56.869092 
L 471.481981 53.751269 
L 468.672075 47.106038 
L 465.86217 48.846121 
L 463.052264 51.561415 
L 460.242358 50.668925 
L 457.432453 51.62935 
L 454.622547 52.481256 
L 451.812642 51.90072 
L 449.002736 52.423464 
L 446.19283 52.677617 
L 443.382925 52.307872 
L 440.573019 51.232348 
L 437.763113 51.772256 
L 434.953208 50.516541 
L 432.143302 49.090812 
L 429.333396 51.234789 
L 426.523491 50.523183 
L 423.713585 51.128948 
L 420.903679 47.486828 
L 418.093774 49.555741 
L 415.283868 48.857502 
L 412.473962 50.154201 
L 409.664057 50.928123 
L 406.854151 51.444336 
L 404.044245 51.737067 
L 401.23434 52.563314 
L 398.424434 52.72908 
L 395.614528 53.497528 
L 392.804623 52.423484 
L 389.994717 51.962338 
L 387.184811 52.210617 
L 384.374906 50.587351 
L 381.565 49.733882 
L 378.755094 48.241046 
L 375.945189 44.001712 
L 373.135283 43.305253 
L 370.325377 44.176861 
L 367.515472 50.916533 
L 364.705566 50.167089 
L 361.89566 50.611954 
L 359.085755 53.890089 
L 356.275849 53.002581 
L 353.465943 52.693285 
L 350.656038 52.701454 
L 347.846132 52.672136 
L 345.036226 52.53218 
L 342.226321 52.321381 
L 339.416415 53.762857 
L 336.606509 53.229098 
L 333.796604 52.128133 
L 330.986698 50.79689 
L 328.176792 50.461203 
L 325.366887 49.343953 
L 322.556981 49.991764 
L 319.747075 54.391508 
L 316.93717 53.922892 
L 314.127264 55.561443 
L 311.317358 56.371408 
L 308.507453 58.430427 
L 305.697547 62.366266 
L 302.887642 59.345435 
L 300.077736 62.114545 
L 297.26783 65.640625 
L 294.457925 71.144403 
L 291.648019 64.21166 
L 288.838113 72.527741 
L 286.028208 81.816127 
L 283.218302 91.440312 
L 280.408396 98.945367 
L 277.598491 83.336458 
L 274.788585 91.149645 
L 271.978679 79.282838 
L 269.168774 73.25326 
L 266.358868 73.925541 
L 263.548962 74.790178 
L 260.739057 81.645511 
L 257.929151 81.03376 
L 255.119245 67.48008 
L 252.30934 71.32925 
L 249.499434 78.777979 
L 246.689528 80.491876 
L 243.879623 76.780125 
L 241.069717 73.594618 
L 238.259811 84.897755 
L 235.449906 82.692361 
L 232.64 108.01481 
L 229.830094 109.008419 
L 227.020189 128.21515 
L 224.210283 121.714274 
L 221.400377 138.165422 
L 218.590472 144.719127 
L 215.780566 136.398555 
L 212.97066 153.864484 
L 210.160755 130.044502 
L 207.350849 122.183891 
L 204.540943 112.443938 
L 201.731038 123.115843 
L 198.921132 111.753248 
L 196.111226 113.443696 
L 193.301321 119.885541 
L 190.491415 147.834231 
L 187.681509 124.576441 
L 184.871604 148.375927 
L 182.061698 152.095683 
L 179.251792 183.257366 
L 176.441887 184.97529 
L 173.631981 202.307673 
L 170.822075 218.073253 
L 168.01217 206.644672 
L 165.202264 220.995672 
L 162.392358 220.842478 
L 159.582453 220.076198 
L 156.772547 218.1889 
L 153.962642 200.759332 
L 151.152736 209.688295 
L 148.34283 232.270183 
L 145.532925 233.232297 
L 142.723019 214.889543 
L 139.913113 226.450915 
L 137.103208 226.849116 
L 134.293302 245.000056 
L 131.483396 245.573109 
L 128.673491 261.097077 
L 125.863585 274.179854 
L 123.053679 266.411258 
L 120.243774 261.067897 
L 117.433868 261.250626 
L 114.623962 230.408168 
L 111.814057 242.300843 
L 109.004151 225.085452 
L 106.194245 229.852118 
L 103.38434 221.317913 
L 100.574434 215.375196 
L 97.764528 221.985427 
L 94.954623 204.801001 
L 92.144717 211.638853 
L 89.334811 221.610034 
L 86.524906 224.914903 
L 83.715 233.402141 
z
" clip-path="url(#p292ed13f9f)" style="fill: #1f77b4; fill-opacity: 0.2"/>
   </g>
   <g id="matplotlib.axis_1">
    <g id="xtick_1">
     <g id="line2d_1">
      <path d="M 82.295998 390.04 
L 82.295998 11.704787 
" clip-path="url(#p292ed13f9f)" style="fill: none; stroke: #b0b0b0; stroke-width: 0.8; stroke-linecap: square"/>
     </g>
     <g id="line2d_2">
      <defs>
       <path id="m70c5e3bf41" d="M 0 0 
L 0 3.5 
" style="stroke: #000000; stroke-width: 0.8"/>
      </defs>
      <g>
       <use xlink:href="#m70c5e3bf41" x="82.295998" y="390.04" style="stroke: #000000; stroke-width: 0.8"/>
      </g>
     </g>
     <g id="text_1">
      <!-- 0 -->
      <g transform="translate(79.114748 404.638438) scale(0.1 -0.1)">
       <defs>
        <path id="DejaVuSans-30" d="M 2034 4250 
Q 1547 4250 1301 3770 
Q 1056 3291 1056 2328 
Q 1056 1369 1301 889 
Q 1547 409 2034 409 
Q 2525 409 2770 889 
Q 3016 1369 3016 2328 
Q 3016 3291 2770 3770 
Q 2525 4250 2034 4250 
z
M 2034 4750 
Q 2819 4750 3233 4129 
Q 3647 3509 3647 2328 
Q 3647 1150 3233 529 
Q 2819 -91 2034 -91 
Q 1250 -91 836 529 
Q 422 1150 422 2328 
Q 422 3509 836 4129 
Q 1250 4750 2034 4750 
z
" transform="scale(0.015625)"/>
       </defs>
       <use xlink:href="#DejaVuSans-30"/>
      </g>
     </g>
    </g>
    <g id="xtick_2">
     <g id="line2d_3">
      <path d="M 222.791281 390.04 
L 222.791281 11.704787 
" clip-path="url(#p292ed13f9f)" style="fill: none; stroke: #b0b0b0; stroke-width: 0.8; stroke-linecap: square"/>
     </g>
     <g id="line2d_4">
      <g>
       <use xlink:href="#m70c5e3bf41" x="222.791281" y="390.04" style="stroke: #000000; stroke-width: 0.8"/>
      </g>
     </g>
     <g id="text_2">
      <!-- 10000 -->
      <g transform="translate(206.885031 404.638438) scale(0.1 -0.1)">
       <defs>
        <path id="DejaVuSans-31" d="M 794 531 
L 1825 531 
L 1825 4091 
L 703 3866 
L 703 4441 
L 1819 4666 
L 2450 4666 
L 2450 531 
L 3481 531 
L 3481 0 
L 794 0 
L 794 531 
z
" transform="scale(0.015625)"/>
       </defs>
       <use xlink:href="#DejaVuSans-31"/>
       <use xlink:href="#DejaVuSans-30" transform="translate(63.623047 0)"/>
       <use xlink:href="#DejaVuSans-30" transform="translate(127.246094 0)"/>
       <use xlink:href="#DejaVuSans-30" transform="translate(190.869141 0)"/>
       <use xlink:href="#DejaVuSans-30" transform="translate(254.492188 0)"/>
      </g>
     </g>
    </g>
    <g id="xtick_3">
     <g id="line2d_5">
      <path d="M 363.286564 390.04 
L 363.286564 11.704787 
" clip-path="url(#p292ed13f9f)" style="fill: none; stroke: #b0b0b0; stroke-width: 0.8; stroke-linecap: square"/>
     </g>
     <g id="line2d_6">
      <g>
       <use xlink:href="#m70c5e3bf41" x="363.286564" y="390.04" style="stroke: #000000; stroke-width: 0.8"/>
      </g>
     </g>
     <g id="text_3">
      <!-- 20000 -->
      <g transform="translate(347.380314 404.638438) scale(0.1 -0.1)">
       <defs>
        <path id="DejaVuSans-32" d="M 1228 531 
L 3431 531 
L 3431 0 
L 469 0 
L 469 531 
Q 828 903 1448 1529 
Q 2069 2156 2228 2338 
Q 2531 2678 2651 2914 
Q 2772 3150 2772 3378 
Q 2772 3750 2511 3984 
Q 2250 4219 1831 4219 
Q 1534 4219 1204 4116 
Q 875 4013 500 3803 
L 500 4441 
Q 881 4594 1212 4672 
Q 1544 4750 1819 4750 
Q 2544 4750 2975 4387 
Q 3406 4025 3406 3419 
Q 3406 3131 3298 2873 
Q 3191 2616 2906 2266 
Q 2828 2175 2409 1742 
Q 1991 1309 1228 531 
z
" transform="scale(0.015625)"/>
       </defs>
       <use xlink:href="#DejaVuSans-32"/>
       <use xlink:href="#DejaVuSans-30" transform="translate(63.623047 0)"/>
       <use xlink:href="#DejaVuSans-30" transform="translate(127.246094 0)"/>
       <use xlink:href="#DejaVuSans-30" transform="translate(190.869141 0)"/>
       <use xlink:href="#DejaVuSans-30" transform="translate(254.492188 0)"/>
      </g>
     </g>
    </g>
    <g id="xtick_4">
     <g id="line2d_7">
      <path d="M 503.781847 390.04 
L 503.781847 11.704787 
" clip-path="url(#p292ed13f9f)" style="fill: none; stroke: #b0b0b0; stroke-width: 0.8; stroke-linecap: square"/>
     </g>
     <g id="line2d_8">
      <g>
       <use xlink:href="#m70c5e3bf41" x="503.781847" y="390.04" style="stroke: #000000; stroke-width: 0.8"/>
      </g>
     </g>
     <g id="text_4">
      <!-- 30000 -->
      <g transform="translate(487.875597 404.638438) scale(0.1 -0.1)">
       <defs>
        <path id="DejaVuSans-33" d="M 2597 2516 
Q 3050 2419 3304 2112 
Q 3559 1806 3559 1356 
Q 3559 666 3084 287 
Q 2609 -91 1734 -91 
Q 1441 -91 1130 -33 
Q 819 25 488 141 
L 488 750 
Q 750 597 1062 519 
Q 1375 441 1716 441 
Q 2309 441 2620 675 
Q 2931 909 2931 1356 
Q 2931 1769 2642 2001 
Q 2353 2234 1838 2234 
L 1294 2234 
L 1294 2753 
L 1863 2753 
Q 2328 2753 2575 2939 
Q 2822 3125 2822 3475 
Q 2822 3834 2567 4026 
Q 2313 4219 1838 4219 
Q 1578 4219 1281 4162 
Q 984 4106 628 3988 
L 628 4550 
Q 988 4650 1302 4700 
Q 1616 4750 1894 4750 
Q 2613 4750 3031 4423 
Q 3450 4097 3450 3541 
Q 3450 3153 3228 2886 
Q 3006 2619 2597 2516 
z
" transform="scale(0.015625)"/>
       </defs>
       <use xlink:href="#DejaVuSans-33"/>
       <use xlink:href="#DejaVuSans-30" transform="translate(63.623047 0)"/>
       <use xlink:href="#DejaVuSans-30" transform="translate(127.246094 0)"/>
       <use xlink:href="#DejaVuSans-30" transform="translate(190.869141 0)"/>
       <use xlink:href="#DejaVuSans-30" transform="translate(254.492188 0)"/>
      </g>
     </g>
    </g>
    <g id="xtick_5">
     <g id="line2d_9">
      <path d="M 644.27713 390.04 
L 644.27713 11.704787 
" clip-path="url(#p292ed13f9f)" style="fill: none; stroke: #b0b0b0; stroke-width: 0.8; stroke-linecap: square"/>
     </g>
     <g id="line2d_10">
      <g>
       <use xlink:href="#m70c5e3bf41" x="644.27713" y="390.04" style="stroke: #000000; stroke-width: 0.8"/>
      </g>
     </g>
     <g id="text_5">
      <!-- 40000 -->
      <g transform="translate(628.37088 404.638438) scale(0.1 -0.1)">
       <defs>
        <path id="DejaVuSans-34" d="M 2419 4116 
L 825 1625 
L 2419 1625 
L 2419 4116 
z
M 2253 4666 
L 3047 4666 
L 3047 1625 
L 3713 1625 
L 3713 1100 
L 3047 1100 
L 3047 0 
L 2419 0 
L 2419 1100 
L 313 1100 
L 313 1709 
L 2253 4666 
z
" transform="scale(0.015625)"/>
       </defs>
       <use xlink:href="#DejaVuSans-34"/>
       <use xlink:href="#DejaVuSans-30" transform="translate(63.623047 0)"/>
       <use xlink:href="#DejaVuSans-30" transform="translate(127.246094 0)"/>
       <use xlink:href="#DejaVuSans-30" transform="translate(190.869141 0)"/>
       <use xlink:href="#DejaVuSans-30" transform="translate(254.492188 0)"/>
      </g>
     </g>
    </g>
    <g id="text_6">
     <!-- Episodes -->
     <g transform="translate(359.322812 418.316562) scale(0.1 -0.1)">
      <defs>
       <path id="DejaVuSans-45" d="M 628 4666 
L 3578 4666 
L 3578 4134 
L 1259 4134 
L 1259 2753 
L 3481 2753 
L 3481 2222 
L 1259 2222 
L 1259 531 
L 3634 531 
L 3634 0 
L 628 0 
L 628 4666 
z
" transform="scale(0.015625)"/>
       <path id="DejaVuSans-70" d="M 1159 525 
L 1159 -1331 
L 581 -1331 
L 581 3500 
L 1159 3500 
L 1159 2969 
Q 1341 3281 1617 3432 
Q 1894 3584 2278 3584 
Q 2916 3584 3314 3078 
Q 3713 2572 3713 1747 
Q 3713 922 3314 415 
Q 2916 -91 2278 -91 
Q 1894 -91 1617 61 
Q 1341 213 1159 525 
z
M 3116 1747 
Q 3116 2381 2855 2742 
Q 2594 3103 2138 3103 
Q 1681 3103 1420 2742 
Q 1159 2381 1159 1747 
Q 1159 1113 1420 752 
Q 1681 391 2138 391 
Q 2594 391 2855 752 
Q 3116 1113 3116 1747 
z
" transform="scale(0.015625)"/>
       <path id="DejaVuSans-69" d="M 603 3500 
L 1178 3500 
L 1178 0 
L 603 0 
L 603 3500 
z
M 603 4863 
L 1178 4863 
L 1178 4134 
L 603 4134 
L 603 4863 
z
" transform="scale(0.015625)"/>
       <path id="DejaVuSans-73" d="M 2834 3397 
L 2834 2853 
Q 2591 2978 2328 3040 
Q 2066 3103 1784 3103 
Q 1356 3103 1142 2972 
Q 928 2841 928 2578 
Q 928 2378 1081 2264 
Q 1234 2150 1697 2047 
L 1894 2003 
Q 2506 1872 2764 1633 
Q 3022 1394 3022 966 
Q 3022 478 2636 193 
Q 2250 -91 1575 -91 
Q 1294 -91 989 -36 
Q 684 19 347 128 
L 347 722 
Q 666 556 975 473 
Q 1284 391 1588 391 
Q 1994 391 2212 530 
Q 2431 669 2431 922 
Q 2431 1156 2273 1281 
Q 2116 1406 1581 1522 
L 1381 1569 
Q 847 1681 609 1914 
Q 372 2147 372 2553 
Q 372 3047 722 3315 
Q 1072 3584 1716 3584 
Q 2034 3584 2315 3537 
Q 2597 3491 2834 3397 
z
" transform="scale(0.015625)"/>
       <path id="DejaVuSans-6f" d="M 1959 3097 
Q 1497 3097 1228 2736 
Q 959 2375 959 1747 
Q 959 1119 1226 758 
Q 1494 397 1959 397 
Q 2419 397 2687 759 
Q 2956 1122 2956 1747 
Q 2956 2369 2687 2733 
Q 2419 3097 1959 3097 
z
M 1959 3584 
Q 2709 3584 3137 3096 
Q 3566 2609 3566 1747 
Q 3566 888 3137 398 
Q 2709 -91 1959 -91 
Q 1206 -91 779 398 
Q 353 888 353 1747 
Q 353 2609 779 3096 
Q 1206 3584 1959 3584 
z
" transform="scale(0.015625)"/>
       <path id="DejaVuSans-64" d="M 2906 2969 
L 2906 4863 
L 3481 4863 
L 3481 0 
L 2906 0 
L 2906 525 
Q 2725 213 2448 61 
Q 2172 -91 1784 -91 
Q 1150 -91 751 415 
Q 353 922 353 1747 
Q 353 2572 751 3078 
Q 1150 3584 1784 3584 
Q 2172 3584 2448 3432 
Q 2725 3281 2906 2969 
z
M 947 1747 
Q 947 1113 1208 752 
Q 1469 391 1925 391 
Q 2381 391 2643 752 
Q 2906 1113 2906 1747 
Q 2906 2381 2643 2742 
Q 2381 3103 1925 3103 
Q 1469 3103 1208 2742 
Q 947 2381 947 1747 
z
" transform="scale(0.015625)"/>
       <path id="DejaVuSans-65" d="M 3597 1894 
L 3597 1613 
L 953 1613 
Q 991 1019 1311 708 
Q 1631 397 2203 397 
Q 2534 397 2845 478 
Q 3156 559 3463 722 
L 3463 178 
Q 3153 47 2828 -22 
Q 2503 -91 2169 -91 
Q 1331 -91 842 396 
Q 353 884 353 1716 
Q 353 2575 817 3079 
Q 1281 3584 2069 3584 
Q 2775 3584 3186 3129 
Q 3597 2675 3597 1894 
z
M 3022 2063 
Q 3016 2534 2758 2815 
Q 2500 3097 2075 3097 
Q 1594 3097 1305 2825 
Q 1016 2553 972 2059 
L 3022 2063 
z
" transform="scale(0.015625)"/>
      </defs>
      <use xlink:href="#DejaVuSans-45"/>
      <use xlink:href="#DejaVuSans-70" transform="translate(63.183594 0)"/>
      <use xlink:href="#DejaVuSans-69" transform="translate(126.660156 0)"/>
      <use xlink:href="#DejaVuSans-73" transform="translate(154.443359 0)"/>
      <use xlink:href="#DejaVuSans-6f" transform="translate(206.542969 0)"/>
      <use xlink:href="#DejaVuSans-64" transform="translate(267.724609 0)"/>
      <use xlink:href="#DejaVuSans-65" transform="translate(331.201172 0)"/>
      <use xlink:href="#DejaVuSans-73" transform="translate(392.724609 0)"/>
     </g>
    </g>
   </g>
   <g id="matplotlib.axis_2">
    <g id="ytick_1">
     <g id="line2d_11">
      <path d="M 53.93 345.745306 
L 709.2 345.745306 
" clip-path="url(#p292ed13f9f)" style="fill: none; stroke: #b0b0b0; stroke-width: 0.8; stroke-linecap: square"/>
     </g>
     <g id="line2d_12">
      <defs>
       <path id="m5fa5280cbc" d="M 0 0 
L -3.5 0 
" style="stroke: #000000; stroke-width: 0.8"/>
      </defs>
      <g>
       <use xlink:href="#m5fa5280cbc" x="53.93" y="345.745306" style="stroke: #000000; stroke-width: 0.8"/>
      </g>
     </g>
     <g id="text_7">
      <!-- 3.25 -->
      <g transform="translate(24.664375 349.544524) scale(0.1 -0.1)">
       <defs>
        <path id="DejaVuSans-2e" d="M 684 794 
L 1344 794 
L 1344 0 
L 684 0 
L 684 794 
z
" transform="scale(0.015625)"/>
        <path id="DejaVuSans-35" d="M 691 4666 
L 3169 4666 
L 3169 4134 
L 1269 4134 
L 1269 2991 
Q 1406 3038 1543 3061 
Q 1681 3084 1819 3084 
Q 2600 3084 3056 2656 
Q 3513 2228 3513 1497 
Q 3513 744 3044 326 
Q 2575 -91 1722 -91 
Q 1428 -91 1123 -41 
Q 819 9 494 109 
L 494 744 
Q 775 591 1075 516 
Q 1375 441 1709 441 
Q 2250 441 2565 725 
Q 2881 1009 2881 1497 
Q 2881 1984 2565 2268 
Q 2250 2553 1709 2553 
Q 1456 2553 1204 2497 
Q 953 2441 691 2322 
L 691 4666 
z
" transform="scale(0.015625)"/>
       </defs>
       <use xlink:href="#DejaVuSans-33"/>
       <use xlink:href="#DejaVuSans-2e" transform="translate(63.623047 0)"/>
       <use xlink:href="#DejaVuSans-32" transform="translate(95.410156 0)"/>
       <use xlink:href="#DejaVuSans-35" transform="translate(159.033203 0)"/>
      </g>
     </g>
    </g>
    <g id="ytick_2">
     <g id="line2d_13">
      <path d="M 53.93 298.521648 
L 709.2 298.521648 
" clip-path="url(#p292ed13f9f)" style="fill: none; stroke: #b0b0b0; stroke-width: 0.8; stroke-linecap: square"/>
     </g>
     <g id="line2d_14">
      <g>
       <use xlink:href="#m5fa5280cbc" x="53.93" y="298.521648" style="stroke: #000000; stroke-width: 0.8"/>
      </g>
     </g>
     <g id="text_8">
      <!-- 3.50 -->
      <g transform="translate(24.664375 302.320866) scale(0.1 -0.1)">
       <use xlink:href="#DejaVuSans-33"/>
       <use xlink:href="#DejaVuSans-2e" transform="translate(63.623047 0)"/>
       <use xlink:href="#DejaVuSans-35" transform="translate(95.410156 0)"/>
       <use xlink:href="#DejaVuSans-30" transform="translate(159.033203 0)"/>
      </g>
     </g>
    </g>
    <g id="ytick_3">
     <g id="line2d_15">
      <path d="M 53.93 251.297989 
L 709.2 251.297989 
" clip-path="url(#p292ed13f9f)" style="fill: none; stroke: #b0b0b0; stroke-width: 0.8; stroke-linecap: square"/>
     </g>
     <g id="line2d_16">
      <g>
       <use xlink:href="#m5fa5280cbc" x="53.93" y="251.297989" style="stroke: #000000; stroke-width: 0.8"/>
      </g>
     </g>
     <g id="text_9">
      <!-- 3.75 -->
      <g transform="translate(24.664375 255.097208) scale(0.1 -0.1)">
       <defs>
        <path id="DejaVuSans-37" d="M 525 4666 
L 3525 4666 
L 3525 4397 
L 1831 0 
L 1172 0 
L 2766 4134 
L 525 4134 
L 525 4666 
z
" transform="scale(0.015625)"/>
       </defs>
       <use xlink:href="#DejaVuSans-33"/>
       <use xlink:href="#DejaVuSans-2e" transform="translate(63.623047 0)"/>
       <use xlink:href="#DejaVuSans-37" transform="translate(95.410156 0)"/>
       <use xlink:href="#DejaVuSans-35" transform="translate(159.033203 0)"/>
      </g>
     </g>
    </g>
    <g id="ytick_4">
     <g id="line2d_17">
      <path d="M 53.93 204.074331 
L 709.2 204.074331 
" clip-path="url(#p292ed13f9f)" style="fill: none; stroke: #b0b0b0; stroke-width: 0.8; stroke-linecap: square"/>
     </g>
     <g id="line2d_18">
      <g>
       <use xlink:href="#m5fa5280cbc" x="53.93" y="204.074331" style="stroke: #000000; stroke-width: 0.8"/>
      </g>
     </g>
     <g id="text_10">
      <!-- 4.00 -->
      <g transform="translate(24.664375 207.87355) scale(0.1 -0.1)">
       <use xlink:href="#DejaVuSans-34"/>
       <use xlink:href="#DejaVuSans-2e" transform="translate(63.623047 0)"/>
       <use xlink:href="#DejaVuSans-30" transform="translate(95.410156 0)"/>
       <use xlink:href="#DejaVuSans-30" transform="translate(159.033203 0)"/>
      </g>
     </g>
    </g>
    <g id="ytick_5">
     <g id="line2d_19">
      <path d="M 53.93 156.850673 
L 709.2 156.850673 
" clip-path="url(#p292ed13f9f)" style="fill: none; stroke: #b0b0b0; stroke-width: 0.8; stroke-linecap: square"/>
     </g>
     <g id="line2d_20">
      <g>
       <use xlink:href="#m5fa5280cbc" x="53.93" y="156.850673" style="stroke: #000000; stroke-width: 0.8"/>
      </g>
     </g>
     <g id="text_11">
      <!-- 4.25 -->
      <g transform="translate(24.664375 160.649892) scale(0.1 -0.1)">
       <use xlink:href="#DejaVuSans-34"/>
       <use xlink:href="#DejaVuSans-2e" transform="translate(63.623047 0)"/>
       <use xlink:href="#DejaVuSans-32" transform="translate(95.410156 0)"/>
       <use xlink:href="#DejaVuSans-35" transform="translate(159.033203 0)"/>
      </g>
     </g>
    </g>
    <g id="ytick_6">
     <g id="line2d_21">
      <path d="M 53.93 109.627015 
L 709.2 109.627015 
" clip-path="url(#p292ed13f9f)" style="fill: none; stroke: #b0b0b0; stroke-width: 0.8; stroke-linecap: square"/>
     </g>
     <g id="line2d_22">
      <g>
       <use xlink:href="#m5fa5280cbc" x="53.93" y="109.627015" style="stroke: #000000; stroke-width: 0.8"/>
      </g>
     </g>
     <g id="text_12">
      <!-- 4.50 -->
      <g transform="translate(24.664375 113.426234) scale(0.1 -0.1)">
       <use xlink:href="#DejaVuSans-34"/>
       <use xlink:href="#DejaVuSans-2e" transform="translate(63.623047 0)"/>
       <use xlink:href="#DejaVuSans-35" transform="translate(95.410156 0)"/>
       <use xlink:href="#DejaVuSans-30" transform="translate(159.033203 0)"/>
      </g>
     </g>
    </g>
    <g id="ytick_7">
     <g id="line2d_23">
      <path d="M 53.93 62.403357 
L 709.2 62.403357 
" clip-path="url(#p292ed13f9f)" style="fill: none; stroke: #b0b0b0; stroke-width: 0.8; stroke-linecap: square"/>
     </g>
     <g id="line2d_24">
      <g>
       <use xlink:href="#m5fa5280cbc" x="53.93" y="62.403357" style="stroke: #000000; stroke-width: 0.8"/>
      </g>
     </g>
     <g id="text_13">
      <!-- 4.75 -->
      <g transform="translate(24.664375 66.202576) scale(0.1 -0.1)">
       <use xlink:href="#DejaVuSans-34"/>
       <use xlink:href="#DejaVuSans-2e" transform="translate(63.623047 0)"/>
       <use xlink:href="#DejaVuSans-37" transform="translate(95.410156 0)"/>
       <use xlink:href="#DejaVuSans-35" transform="translate(159.033203 0)"/>
      </g>
     </g>
    </g>
    <g id="ytick_8">
     <g id="line2d_25">
      <path d="M 53.93 15.179699 
L 709.2 15.179699 
" clip-path="url(#p292ed13f9f)" style="fill: none; stroke: #b0b0b0; stroke-width: 0.8; stroke-linecap: square"/>
     </g>
     <g id="line2d_26">
      <g>
       <use xlink:href="#m5fa5280cbc" x="53.93" y="15.179699" style="stroke: #000000; stroke-width: 0.8"/>
      </g>
     </g>
     <g id="text_14">
      <!-- 5.00 -->
      <g transform="translate(24.664375 18.978917) scale(0.1 -0.1)">
       <use xlink:href="#DejaVuSans-35"/>
       <use xlink:href="#DejaVuSans-2e" transform="translate(63.623047 0)"/>
       <use xlink:href="#DejaVuSans-30" transform="translate(95.410156 0)"/>
       <use xlink:href="#DejaVuSans-30" transform="translate(159.033203 0)"/>
      </g>
     </g>
    </g>
    <g id="text_15">
     <!-- Reward -->
     <g transform="translate(18.584688 219.493487) rotate(-90) scale(0.1 -0.1)">
      <defs>
       <path id="DejaVuSans-52" d="M 2841 2188 
Q 3044 2119 3236 1894 
Q 3428 1669 3622 1275 
L 4263 0 
L 3584 0 
L 2988 1197 
Q 2756 1666 2539 1819 
Q 2322 1972 1947 1972 
L 1259 1972 
L 1259 0 
L 628 0 
L 628 4666 
L 2053 4666 
Q 2853 4666 3247 4331 
Q 3641 3997 3641 3322 
Q 3641 2881 3436 2590 
Q 3231 2300 2841 2188 
z
M 1259 4147 
L 1259 2491 
L 2053 2491 
Q 2509 2491 2742 2702 
Q 2975 2913 2975 3322 
Q 2975 3731 2742 3939 
Q 2509 4147 2053 4147 
L 1259 4147 
z
" transform="scale(0.015625)"/>
       <path id="DejaVuSans-77" d="M 269 3500 
L 844 3500 
L 1563 769 
L 2278 3500 
L 2956 3500 
L 3675 769 
L 4391 3500 
L 4966 3500 
L 4050 0 
L 3372 0 
L 2619 2869 
L 1863 0 
L 1184 0 
L 269 3500 
z
" transform="scale(0.015625)"/>
       <path id="DejaVuSans-61" d="M 2194 1759 
Q 1497 1759 1228 1600 
Q 959 1441 959 1056 
Q 959 750 1161 570 
Q 1363 391 1709 391 
Q 2188 391 2477 730 
Q 2766 1069 2766 1631 
L 2766 1759 
L 2194 1759 
z
M 3341 1997 
L 3341 0 
L 2766 0 
L 2766 531 
Q 2569 213 2275 61 
Q 1981 -91 1556 -91 
Q 1019 -91 701 211 
Q 384 513 384 1019 
Q 384 1609 779 1909 
Q 1175 2209 1959 2209 
L 2766 2209 
L 2766 2266 
Q 2766 2663 2505 2880 
Q 2244 3097 1772 3097 
Q 1472 3097 1187 3025 
Q 903 2953 641 2809 
L 641 3341 
Q 956 3463 1253 3523 
Q 1550 3584 1831 3584 
Q 2591 3584 2966 3190 
Q 3341 2797 3341 1997 
z
" transform="scale(0.015625)"/>
       <path id="DejaVuSans-72" d="M 2631 2963 
Q 2534 3019 2420 3045 
Q 2306 3072 2169 3072 
Q 1681 3072 1420 2755 
Q 1159 2438 1159 1844 
L 1159 0 
L 581 0 
L 581 3500 
L 1159 3500 
L 1159 2956 
Q 1341 3275 1631 3429 
Q 1922 3584 2338 3584 
Q 2397 3584 2469 3576 
Q 2541 3569 2628 3553 
L 2631 2963 
z
" transform="scale(0.015625)"/>
      </defs>
      <use xlink:href="#DejaVuSans-52"/>
      <use xlink:href="#DejaVuSans-65" transform="translate(64.982422 0)"/>
      <use xlink:href="#DejaVuSans-77" transform="translate(126.505859 0)"/>
      <use xlink:href="#DejaVuSans-61" transform="translate(208.292969 0)"/>
      <use xlink:href="#DejaVuSans-72" transform="translate(269.572266 0)"/>
      <use xlink:href="#DejaVuSans-64" transform="translate(308.935547 0)"/>
     </g>
    </g>
   </g>
   <g id="line2d_27">
    <path d="M 83.715 292.180265 
L 86.524906 287.528297 
L 89.334811 281.312557 
L 92.144717 276.97964 
L 94.954623 272.047974 
L 97.764528 284.848645 
L 100.574434 282.440529 
L 103.38434 286.889901 
L 106.194245 289.942387 
L 109.004151 290.110728 
L 111.814057 298.798278 
L 114.623962 293.318878 
L 117.433868 312.715703 
L 120.243774 313.830414 
L 123.053679 317.339102 
L 125.863585 320.345239 
L 128.673491 314.741364 
L 131.483396 307.104541 
L 134.293302 305.544265 
L 137.103208 296.54947 
L 139.913113 298.99446 
L 142.723019 290.545069 
L 145.532925 303.037621 
L 148.34283 301.935299 
L 151.152736 290.017738 
L 153.962642 283.842661 
L 156.772547 293.79184 
L 159.582453 292.535167 
L 162.392358 294.684134 
L 165.202264 293.17429 
L 168.01217 283.075133 
L 170.822075 289.159259 
L 173.631981 281.237928 
L 176.441887 272.37737 
L 179.251792 271.307841 
L 182.061698 250.890168 
L 184.871604 249.953858 
L 187.681509 238.432012 
L 190.491415 250.805779 
L 193.301321 233.370777 
L 196.111226 226.364915 
L 198.921132 225.658747 
L 201.731038 234.716944 
L 204.540943 223.270017 
L 207.350849 228.059429 
L 210.160755 233.98046 
L 212.97066 250.922674 
L 215.780566 240.072311 
L 218.590472 247.251034 
L 221.400377 242.431596 
L 224.210283 226.199192 
L 227.020189 228.16874 
L 229.830094 218.172774 
L 232.64 215.953554 
L 235.449906 195.037699 
L 238.259811 183.941452 
L 241.069717 167.040047 
L 243.879623 171.540432 
L 246.689528 171.348041 
L 249.499434 170.581677 
L 252.30934 159.3028 
L 255.119245 152.688428 
L 257.929151 175.976979 
L 260.739057 178.469485 
L 263.548962 165.207215 
L 266.358868 159.802586 
L 269.168774 163.881748 
L 271.978679 171.11061 
L 274.788585 186.939865 
L 277.598491 177.772792 
L 280.408396 195.70481 
L 283.218302 184.316475 
L 286.028208 172.127086 
L 288.838113 151.424759 
L 291.648019 137.672472 
L 294.457925 154.517616 
L 297.26783 150.001344 
L 300.077736 134.034064 
L 302.887642 121.368066 
L 305.697547 130.994988 
L 308.507453 129.728694 
L 311.317358 126.434406 
L 314.127264 131.0014 
L 316.93717 127.104135 
L 319.747075 125.00618 
L 322.556981 123.719917 
L 325.366887 122.036918 
L 328.176792 118.563793 
L 330.986698 115.873794 
L 333.796604 117.496014 
L 336.606509 115.906151 
L 339.416415 111.786178 
L 342.226321 107.104623 
L 345.036226 111.376615 
L 347.846132 108.545819 
L 350.656038 108.23595 
L 356.275849 108.424699 
L 359.085755 112.396733 
L 361.89566 110.230421 
L 364.705566 113.244573 
L 367.515472 122.385411 
L 370.325377 127.316493 
L 373.135283 133.588348 
L 375.945189 131.203262 
L 378.755094 120.826593 
L 381.565 116.820161 
L 384.374906 110.964865 
L 387.184811 106.759045 
L 389.994717 106.228216 
L 392.804623 106.493776 
L 395.614528 110.342505 
L 398.424434 107.418427 
L 401.23434 106.796794 
L 404.044245 103.993546 
L 406.854151 103.826805 
L 409.664057 105.120063 
L 412.473962 110.364804 
L 415.283868 116.124778 
L 418.093774 115.264112 
L 420.903679 116.86068 
L 423.713585 111.290475 
L 426.523491 108.602953 
L 429.333396 112.899286 
L 432.143302 110.450506 
L 434.953208 106.177785 
L 437.763113 108.14879 
L 440.573019 107.760507 
L 443.382925 110.364513 
L 446.19283 107.701186 
L 449.002736 106.241188 
L 451.812642 105.332132 
L 454.622547 107.16992 
L 457.432453 104.254004 
L 460.242358 105.772595 
L 463.052264 108.333603 
L 465.86217 111.927264 
L 468.672075 119.471389 
L 471.481981 118.871475 
L 474.291887 133.237669 
L 477.101792 112.528784 
L 479.911698 108.278655 
L 482.721604 106.670427 
L 485.531509 105.42104 
L 488.341415 110.630364 
L 491.151321 107.832945 
L 493.961226 122.287902 
L 496.771132 133.116403 
L 499.581038 149.20043 
L 505.200849 162.891792 
L 508.010755 167.380226 
L 510.82066 164.729434 
L 513.630566 150.952807 
L 516.440472 148.311051 
L 519.250377 133.39304 
L 522.060283 116.961686 
L 524.870189 109.331859 
L 527.680094 106.04311 
L 530.49 115.106699 
L 533.299906 108.098942 
L 536.109811 119.795106 
L 538.919717 140.845779 
L 541.729623 116.121572 
L 544.539528 108.709644 
L 547.349434 110.878434 
L 550.15934 106.617519 
L 555.779151 107.140769 
L 558.589057 114.056557 
L 561.398962 113.926109 
L 564.208868 104.499596 
L 569.828679 107.872007 
L 572.638585 106.674945 
L 575.448491 105.280681 
L 578.258396 105.88118 
L 581.068302 106.189299 
L 583.878208 105.201684 
L 586.688113 107.177061 
L 589.498019 107.158842 
L 592.307925 110.321807 
L 595.11783 108.490724 
L 597.927736 112.379241 
L 600.737642 134.350925 
L 603.547547 121.513814 
L 606.357453 109.75935 
L 609.167358 112.311759 
L 611.977264 115.315271 
L 614.78717 122.568912 
L 617.597075 117.525309 
L 620.406981 114.014143 
L 623.216887 117.599206 
L 626.026792 132.28926 
L 628.836698 120.44268 
L 631.646604 115.799605 
L 634.456509 116.716822 
L 637.266415 112.165132 
L 640.076321 108.118182 
L 642.886226 108.907283 
L 645.696132 109.448752 
L 648.506038 108.57803 
L 651.315943 103.870676 
L 654.125849 110.587804 
L 656.935755 115.041403 
L 659.74566 106.62743 
L 662.555566 119.537998 
L 665.365472 111.149386 
L 668.175377 111.203315 
L 670.985283 108.478189 
L 673.795189 118.261065 
L 676.605094 114.218195 
L 679.415 113.132342 
L 679.415 113.132342 
" clip-path="url(#p292ed13f9f)" style="fill: none; stroke: #1f77b4; stroke-width: 1.5; stroke-linecap: square"/>
   </g>
   <g id="patch_3">
    <path d="M 53.93 390.04 
L 53.93 11.704787 
" style="fill: none; stroke: #000000; stroke-width: 0.8; stroke-linejoin: miter; stroke-linecap: square"/>
   </g>
   <g id="patch_4">
    <path d="M 709.2 390.04 
L 709.2 11.704787 
" style="fill: none; stroke: #000000; stroke-width: 0.8; stroke-linejoin: miter; stroke-linecap: square"/>
   </g>
   <g id="patch_5">
    <path d="M 53.93 390.04 
L 709.2 390.04 
" style="fill: none; stroke: #000000; stroke-width: 0.8; stroke-linejoin: miter; stroke-linecap: square"/>
   </g>
   <g id="patch_6">
    <path d="M 53.93 11.704787 
L 709.2 11.704787 
" style="fill: none; stroke: #000000; stroke-width: 0.8; stroke-linejoin: miter; stroke-linecap: square"/>
   </g>
  </g>
 </g>
 <defs>
  <clipPath id="p292ed13f9f">
   <rect x="53.93" y="11.704787" width="655.27" height="378.335213"/>
  </clipPath>
 </defs>
</svg>
