<?xml version="1.0" encoding="utf-8" standalone="no"?>
<!DOCTYPE svg PUBLIC "-//W3C//DTD SVG 1.1//EN"
  "http://www.w3.org/Graphics/SVG/1.1/DTD/svg11.dtd">
<svg xmlns:xlink="http://www.w3.org/1999/xlink" width="720pt" height="432pt" viewBox="0 0 720 432" xmlns="http://www.w3.org/2000/svg" version="1.1">
 <metadata>
  <rdf:RDF xmlns:dc="http://purl.org/dc/elements/1.1/" xmlns:cc="http://creativecommons.org/ns#" xmlns:rdf="http://www.w3.org/1999/02/22-rdf-syntax-ns#">
   <cc:Work>
    <dc:type rdf:resource="http://purl.org/dc/dcmitype/StillImage"/>
    <dc:date>2025-04-22T23:09:29.218378</dc:date>
    <dc:format>image/svg+xml</dc:format>
    <dc:creator>
     <cc:Agent>
      <dc:title>Matplotlib v3.10.0, https://matplotlib.org/</dc:title>
     </cc:Agent>
    </dc:creator>
   </cc:Work>
  </rdf:RDF>
 </metadata>
 <defs>
  <style type="text/css">*{stroke-linejoin: round; stroke-linecap: butt}</style>
 </defs>
 <g id="figure_1">
  <g id="patch_1">
   <path d="M 0 432 
L 720 432 
L 720 0 
L 0 0 
z
" style="fill: #ffffff"/>
  </g>
  <g id="axes_1">
   <g id="patch_2">
    <path d="M 44.57 390.04 
L 709.2 390.04 
L 709.2 10.8 
L 44.57 10.8 
z
" style="fill: #ffffff"/>
   </g>
   <g id="FillBetweenPolyCollection_1">
    <path d="M 74.780455 148.61657 
L 74.780455 332.52274 
L 77.630497 326.653176 
L 80.48054 314.74204 
L 83.330583 332.942402 
L 86.180626 312.766231 
L 89.030669 301.474824 
L 91.880712 306.983621 
L 94.730755 304.261809 
L 97.580798 309.65556 
L 100.43084 309.667585 
L 103.280883 314.765328 
L 106.130926 314.539222 
L 108.980969 331.322064 
L 111.831012 324.94846 
L 114.681055 339.451164 
L 117.531098 351.886706 
L 120.381141 361.910528 
L 123.231184 353.916326 
L 126.081226 366.275811 
L 128.931269 365.095928 
L 131.781312 365.289653 
L 134.631355 366.645932 
L 137.481398 372.801818 
L 140.331441 359.833373 
L 143.181484 357.863629 
L 146.031527 353.986073 
L 148.881569 351.96697 
L 151.731612 341.618521 
L 154.581655 334.27862 
L 157.431698 338.761994 
L 160.281741 326.843238 
L 163.131784 335.355286 
L 165.981827 318.070602 
L 168.83187 325.491925 
L 171.681913 324.428213 
L 174.531955 320.214563 
L 177.381998 319.313504 
L 180.232041 312.929793 
L 183.082084 324.93394 
L 185.932127 318.36856 
L 188.78217 310.74598 
L 191.632213 322.231393 
L 194.482256 312.993964 
L 197.332298 307.262431 
L 200.182341 308.420461 
L 203.032384 324.45846 
L 205.882427 330.791617 
L 208.73247 324.621977 
L 211.582513 327.282083 
L 214.432556 327.032728 
L 217.282599 312.248485 
L 220.132642 318.419035 
L 222.982684 312.885214 
L 225.832727 315.667023 
L 228.68277 310.802628 
L 231.532813 308.514592 
L 234.382856 301.074032 
L 237.232899 305.789134 
L 240.082942 298.050287 
L 242.932985 291.032548 
L 245.783027 288.834528 
L 248.63307 279.444049 
L 251.483113 293.988393 
L 254.333156 296.208419 
L 257.183199 292.488146 
L 260.033242 292.060191 
L 262.883285 292.01317 
L 265.733328 293.408738 
L 268.58337 307.167517 
L 271.433413 307.554695 
L 274.283456 327.937717 
L 277.133499 322.986189 
L 279.983542 307.850853 
L 282.833585 286.843352 
L 285.683628 271.70557 
L 288.533671 283.335334 
L 291.383714 271.989426 
L 294.233756 266.118948 
L 297.083799 259.512085 
L 299.933842 257.996013 
L 302.783885 269.352045 
L 305.633928 272.877276 
L 308.483971 278.217793 
L 311.334014 284.117841 
L 314.184057 286.087644 
L 317.034099 290.339911 
L 319.884142 299.031946 
L 322.734185 297.585747 
L 325.584228 293.692907 
L 328.434271 292.086118 
L 331.284314 289.950653 
L 334.134357 285.02601 
L 336.9844 282.35547 
L 339.834443 286.536392 
L 342.684485 286.037889 
L 345.534528 290.829939 
L 348.384571 291.42481 
L 351.234614 291.549549 
L 354.084657 291.081035 
L 356.9347 282.948177 
L 359.784743 283.522792 
L 362.634786 290.093229 
L 365.484828 294.628212 
L 368.334871 297.172018 
L 371.184914 292.674632 
L 374.034957 290.062549 
L 376.885 280.972357 
L 379.735043 273.015753 
L 382.585086 271.596646 
L 385.435129 278.307281 
L 388.285172 278.926731 
L 391.135214 283.623085 
L 393.985257 284.824508 
L 396.8353 283.307516 
L 399.685343 282.831429 
L 402.535386 280.505467 
L 405.385429 272.223387 
L 408.235472 274.840864 
L 411.085515 267.810199 
L 413.935557 262.922991 
L 416.7856 245.737979 
L 419.635643 231.262287 
L 422.485686 229.666506 
L 425.335729 236.040943 
L 428.185772 258.878031 
L 431.035815 261.990288 
L 433.885858 263.907282 
L 436.735901 260.988614 
L 439.585943 272.276773 
L 442.435986 280.244055 
L 445.286029 286.736548 
L 448.136072 284.802195 
L 450.986115 284.148177 
L 453.836158 281.071283 
L 456.686201 271.155974 
L 459.536244 262.317087 
L 462.386286 258.13025 
L 465.236329 265.005488 
L 468.086372 259.302881 
L 470.936415 268.018921 
L 473.786458 232.524528 
L 476.636501 202.244486 
L 479.486544 202.420515 
L 482.336587 206.15703 
L 485.18663 207.196644 
L 488.036672 213.013983 
L 490.886715 228.215718 
L 493.736758 246.981798 
L 496.586801 276.961219 
L 499.436844 298.646208 
L 502.286887 304.891115 
L 505.13693 312.36685 
L 507.986973 315.429286 
L 510.837015 308.988793 
L 513.687058 305.731225 
L 516.537101 291.018774 
L 519.387144 264.461607 
L 522.237187 263.475251 
L 525.08723 264.805406 
L 527.937273 272.700106 
L 530.787316 267.860504 
L 533.637358 263.61772 
L 536.487401 260.941373 
L 539.337444 234.420409 
L 542.187487 216.143307 
L 545.03753 213.051469 
L 547.887573 200.54619 
L 550.737616 184.948606 
L 553.587659 194.01612 
L 556.437702 208.684969 
L 559.287744 213.916079 
L 562.137787 195.470334 
L 564.98783 195.872184 
L 567.837873 211.17633 
L 570.687916 220.040936 
L 573.537959 217.067507 
L 576.388002 223.819233 
L 579.238045 236.464913 
L 582.088087 229.515179 
L 584.93813 211.176738 
L 587.788173 219.173038 
L 590.638216 236.726632 
L 593.488259 237.797536 
L 596.338302 234.988818 
L 599.188345 248.417965 
L 602.038388 254.730488 
L 604.888431 255.341212 
L 607.738473 257.904862 
L 610.588516 268.330807 
L 613.438559 267.882221 
L 616.288602 258.917115 
L 619.138645 253.701965 
L 621.988688 254.53635 
L 624.838731 276.840097 
L 627.688774 265.811059 
L 630.538816 253.923063 
L 633.388859 250.377339 
L 636.238902 256.700509 
L 639.088945 260.892621 
L 641.938988 254.989764 
L 644.789031 246.35154 
L 647.639074 244.814136 
L 650.489117 239.229875 
L 653.33916 246.012592 
L 656.189202 243.70635 
L 659.039245 230.732843 
L 661.889288 235.336369 
L 664.739331 223.634791 
L 667.589374 223.099308 
L 670.439417 220.008221 
L 673.28946 235.954437 
L 676.139503 232.222533 
L 678.989545 228.270163 
L 678.989545 136.975984 
L 678.989545 136.975984 
L 676.139503 142.780532 
L 673.28946 151.066298 
L 670.439417 141.073387 
L 667.589374 133.579788 
L 664.739331 123.406372 
L 661.889288 114.441491 
L 659.039245 125.113344 
L 656.189202 131.53469 
L 653.33916 141.48409 
L 650.489117 143.983281 
L 647.639074 148.631887 
L 644.789031 143.167918 
L 641.938988 146.190402 
L 639.088945 144.690058 
L 636.238902 146.859393 
L 633.388859 141.283882 
L 630.538816 129.05212 
L 627.688774 128.229898 
L 624.838731 126.838793 
L 621.988688 96.907325 
L 619.138645 71.564609 
L 616.288602 106.210044 
L 613.438559 113.427146 
L 610.588516 113.573494 
L 607.738473 123.761466 
L 604.888431 135.725074 
L 602.038388 128.244694 
L 599.188345 89.461213 
L 596.338302 48.98933 
L 593.488259 36.423693 
L 590.638216 40.112306 
L 587.788173 28.038182 
L 584.93813 32.821838 
L 582.088087 39.708603 
L 579.238045 45.133498 
L 576.388002 59.088034 
L 573.537959 54.060064 
L 570.687916 55.251174 
L 567.837873 57.214545 
L 564.98783 68.473138 
L 562.137787 89.697682 
L 559.287744 121.583362 
L 556.437702 117.17654 
L 553.587659 96.387316 
L 550.737616 86.178965 
L 547.887573 97.94835 
L 545.03753 110.073343 
L 542.187487 81.756298 
L 539.337444 106.552426 
L 536.487401 121.438875 
L 533.637358 110.314464 
L 530.787316 95.124893 
L 527.937273 117.414286 
L 525.08723 91.754703 
L 522.237187 67.264717 
L 519.387144 93.526343 
L 516.537101 119.918312 
L 513.687058 132.453843 
L 510.837015 136.335484 
L 507.986973 152.02654 
L 505.13693 150.44849 
L 502.286887 140.433162 
L 499.436844 139.53886 
L 496.586801 130.763222 
L 493.736758 121.358006 
L 490.886715 123.822891 
L 488.036672 131.76643 
L 485.18663 124.971166 
L 482.336587 127.557609 
L 479.486544 126.058703 
L 476.636501 123.260062 
L 473.786458 129.865934 
L 470.936415 137.325784 
L 468.086372 141.996273 
L 465.236329 142.48098 
L 462.386286 121.870262 
L 459.536244 102.334125 
L 456.686201 101.348368 
L 453.836158 112.255754 
L 450.986115 125.480054 
L 448.136072 134.107007 
L 445.286029 145.142218 
L 442.435986 142.472726 
L 439.585943 147.34635 
L 436.735901 146.25988 
L 433.885858 149.528527 
L 431.035815 160.250546 
L 428.185772 167.527342 
L 425.335729 136.4634 
L 422.485686 122.967038 
L 419.635643 129.462361 
L 416.7856 131.287863 
L 413.935557 143.611582 
L 411.085515 139.676269 
L 408.235472 141.688602 
L 405.385429 146.090882 
L 402.535386 154.942904 
L 399.685343 162.373861 
L 396.8353 165.229406 
L 393.985257 167.638978 
L 391.135214 175.265689 
L 388.285172 171.157019 
L 385.435129 180.938454 
L 382.585086 173.37067 
L 379.735043 162.075658 
L 376.885 160.663328 
L 374.034957 157.641464 
L 371.184914 170.616655 
L 368.334871 180.278701 
L 365.484828 174.731403 
L 362.634786 171.175282 
L 359.784743 167.869813 
L 356.9347 167.016586 
L 354.084657 169.116594 
L 351.234614 170.075923 
L 348.384571 168.177886 
L 345.534528 176.387913 
L 342.684485 182.488818 
L 339.834443 187.463709 
L 336.9844 191.882605 
L 334.134357 195.161406 
L 331.284314 195.829143 
L 328.434271 192.860771 
L 325.584228 190.421074 
L 322.734185 185.933299 
L 319.884142 191.150363 
L 317.034099 190.323452 
L 314.184057 190.530167 
L 311.334014 194.284772 
L 308.483971 184.478559 
L 305.633928 171.73308 
L 302.783885 160.622933 
L 299.933842 146.991732 
L 297.083799 145.83262 
L 294.233756 142.795362 
L 291.383714 149.894447 
L 288.533671 156.515549 
L 285.683628 156.960552 
L 282.833585 153.602465 
L 279.983542 168.291011 
L 277.133499 174.216342 
L 274.283456 176.998957 
L 271.433413 161.80492 
L 268.58337 170.164215 
L 265.733328 166.907878 
L 262.883285 176.870497 
L 260.033242 173.491846 
L 257.183199 178.537284 
L 254.333156 185.287852 
L 251.483113 176.323117 
L 248.63307 176.589042 
L 245.783027 180.287113 
L 242.932985 186.06121 
L 240.082942 188.08647 
L 237.232899 185.583043 
L 234.382856 177.566555 
L 231.532813 195.351201 
L 228.68277 198.893519 
L 225.832727 206.641727 
L 222.982684 202.284327 
L 220.132642 201.272006 
L 217.282599 199.351451 
L 214.432556 203.010166 
L 211.582513 206.568389 
L 208.73247 192.094392 
L 205.882427 206.152512 
L 203.032384 202.371789 
L 200.182341 200.204805 
L 197.332298 205.170413 
L 194.482256 207.64897 
L 191.632213 218.639301 
L 188.78217 210.848849 
L 185.932127 211.43636 
L 183.082084 209.987413 
L 180.232041 201.525827 
L 177.381998 207.754719 
L 174.531955 197.096741 
L 171.681913 200.37926 
L 168.83187 205.978811 
L 165.981827 204.000174 
L 163.131784 220.0318 
L 160.281741 214.265429 
L 157.431698 223.407341 
L 154.581655 213.969257 
L 151.731612 220.788787 
L 148.881569 224.123824 
L 146.031527 227.459128 
L 143.181484 219.298045 
L 140.331441 225.776366 
L 137.481398 231.964799 
L 134.631355 226.340989 
L 131.781312 224.960572 
L 128.931269 215.635351 
L 126.081226 211.599784 
L 123.231184 201.946707 
L 120.381141 204.066386 
L 117.531098 195.64725 
L 114.681055 190.591729 
L 111.831012 175.823676 
L 108.980969 176.946241 
L 106.130926 163.268457 
L 103.280883 166.968916 
L 100.43084 160.286964 
L 97.580798 154.825596 
L 94.730755 142.49031 
L 91.880712 149.644404 
L 89.030669 134.806455 
L 86.180626 127.5606 
L 83.330583 143.675408 
L 80.48054 136.293604 
L 77.630497 138.18494 
L 74.780455 148.61657 
z
" clip-path="url(#p36635e883e)" style="fill: #1f77b4; fill-opacity: 0.2"/>
   </g>
   <g id="matplotlib.axis_1">
    <g id="xtick_1">
     <g id="line2d_1">
      <path d="M 73.341183 390.04 
L 73.341183 10.8 
" clip-path="url(#p36635e883e)" style="fill: none; stroke: #b0b0b0; stroke-width: 0.8; stroke-linecap: square"/>
     </g>
     <g id="line2d_2">
      <defs>
       <path id="me68fa0fe3e" d="M 0 0 
L 0 3.5 
" style="stroke: #000000; stroke-width: 0.8"/>
      </defs>
      <g>
       <use xlink:href="#me68fa0fe3e" x="73.341183" y="390.04" style="stroke: #000000; stroke-width: 0.8"/>
      </g>
     </g>
     <g id="text_1">
      <!-- 0 -->
      <g transform="translate(70.159933 404.638438) scale(0.1 -0.1)">
       <defs>
        <path id="DejaVuSans-30" d="M 2034 4250 
Q 1547 4250 1301 3770 
Q 1056 3291 1056 2328 
Q 1056 1369 1301 889 
Q 1547 409 2034 409 
Q 2525 409 2770 889 
Q 3016 1369 3016 2328 
Q 3016 3291 2770 3770 
Q 2525 4250 2034 4250 
z
M 2034 4750 
Q 2819 4750 3233 4129 
Q 3647 3509 3647 2328 
Q 3647 1150 3233 529 
Q 2819 -91 2034 -91 
Q 1250 -91 836 529 
Q 422 1150 422 2328 
Q 422 3509 836 4129 
Q 1250 4750 2034 4750 
z
" transform="scale(0.015625)"/>
       </defs>
       <use xlink:href="#DejaVuSans-30"/>
      </g>
     </g>
    </g>
    <g id="xtick_2">
     <g id="line2d_3">
      <path d="M 215.843327 390.04 
L 215.843327 10.8 
" clip-path="url(#p36635e883e)" style="fill: none; stroke: #b0b0b0; stroke-width: 0.8; stroke-linecap: square"/>
     </g>
     <g id="line2d_4">
      <g>
       <use xlink:href="#me68fa0fe3e" x="215.843327" y="390.04" style="stroke: #000000; stroke-width: 0.8"/>
      </g>
     </g>
     <g id="text_2">
      <!-- 10000 -->
      <g transform="translate(199.937077 404.638438) scale(0.1 -0.1)">
       <defs>
        <path id="DejaVuSans-31" d="M 794 531 
L 1825 531 
L 1825 4091 
L 703 3866 
L 703 4441 
L 1819 4666 
L 2450 4666 
L 2450 531 
L 3481 531 
L 3481 0 
L 794 0 
L 794 531 
z
" transform="scale(0.015625)"/>
       </defs>
       <use xlink:href="#DejaVuSans-31"/>
       <use xlink:href="#DejaVuSans-30" transform="translate(63.623047 0)"/>
       <use xlink:href="#DejaVuSans-30" transform="translate(127.246094 0)"/>
       <use xlink:href="#DejaVuSans-30" transform="translate(190.869141 0)"/>
       <use xlink:href="#DejaVuSans-30" transform="translate(254.492188 0)"/>
      </g>
     </g>
    </g>
    <g id="xtick_3">
     <g id="line2d_5">
      <path d="M 358.345471 390.04 
L 358.345471 10.8 
" clip-path="url(#p36635e883e)" style="fill: none; stroke: #b0b0b0; stroke-width: 0.8; stroke-linecap: square"/>
     </g>
     <g id="line2d_6">
      <g>
       <use xlink:href="#me68fa0fe3e" x="358.345471" y="390.04" style="stroke: #000000; stroke-width: 0.8"/>
      </g>
     </g>
     <g id="text_3">
      <!-- 20000 -->
      <g transform="translate(342.439221 404.638438) scale(0.1 -0.1)">
       <defs>
        <path id="DejaVuSans-32" d="M 1228 531 
L 3431 531 
L 3431 0 
L 469 0 
L 469 531 
Q 828 903 1448 1529 
Q 2069 2156 2228 2338 
Q 2531 2678 2651 2914 
Q 2772 3150 2772 3378 
Q 2772 3750 2511 3984 
Q 2250 4219 1831 4219 
Q 1534 4219 1204 4116 
Q 875 4013 500 3803 
L 500 4441 
Q 881 4594 1212 4672 
Q 1544 4750 1819 4750 
Q 2544 4750 2975 4387 
Q 3406 4025 3406 3419 
Q 3406 3131 3298 2873 
Q 3191 2616 2906 2266 
Q 2828 2175 2409 1742 
Q 1991 1309 1228 531 
z
" transform="scale(0.015625)"/>
       </defs>
       <use xlink:href="#DejaVuSans-32"/>
       <use xlink:href="#DejaVuSans-30" transform="translate(63.623047 0)"/>
       <use xlink:href="#DejaVuSans-30" transform="translate(127.246094 0)"/>
       <use xlink:href="#DejaVuSans-30" transform="translate(190.869141 0)"/>
       <use xlink:href="#DejaVuSans-30" transform="translate(254.492188 0)"/>
      </g>
     </g>
    </g>
    <g id="xtick_4">
     <g id="line2d_7">
      <path d="M 500.847615 390.04 
L 500.847615 10.8 
" clip-path="url(#p36635e883e)" style="fill: none; stroke: #b0b0b0; stroke-width: 0.8; stroke-linecap: square"/>
     </g>
     <g id="line2d_8">
      <g>
       <use xlink:href="#me68fa0fe3e" x="500.847615" y="390.04" style="stroke: #000000; stroke-width: 0.8"/>
      </g>
     </g>
     <g id="text_4">
      <!-- 30000 -->
      <g transform="translate(484.941365 404.638438) scale(0.1 -0.1)">
       <defs>
        <path id="DejaVuSans-33" d="M 2597 2516 
Q 3050 2419 3304 2112 
Q 3559 1806 3559 1356 
Q 3559 666 3084 287 
Q 2609 -91 1734 -91 
Q 1441 -91 1130 -33 
Q 819 25 488 141 
L 488 750 
Q 750 597 1062 519 
Q 1375 441 1716 441 
Q 2309 441 2620 675 
Q 2931 909 2931 1356 
Q 2931 1769 2642 2001 
Q 2353 2234 1838 2234 
L 1294 2234 
L 1294 2753 
L 1863 2753 
Q 2328 2753 2575 2939 
Q 2822 3125 2822 3475 
Q 2822 3834 2567 4026 
Q 2313 4219 1838 4219 
Q 1578 4219 1281 4162 
Q 984 4106 628 3988 
L 628 4550 
Q 988 4650 1302 4700 
Q 1616 4750 1894 4750 
Q 2613 4750 3031 4423 
Q 3450 4097 3450 3541 
Q 3450 3153 3228 2886 
Q 3006 2619 2597 2516 
z
" transform="scale(0.015625)"/>
       </defs>
       <use xlink:href="#DejaVuSans-33"/>
       <use xlink:href="#DejaVuSans-30" transform="translate(63.623047 0)"/>
       <use xlink:href="#DejaVuSans-30" transform="translate(127.246094 0)"/>
       <use xlink:href="#DejaVuSans-30" transform="translate(190.869141 0)"/>
       <use xlink:href="#DejaVuSans-30" transform="translate(254.492188 0)"/>
      </g>
     </g>
    </g>
    <g id="xtick_5">
     <g id="line2d_9">
      <path d="M 643.349759 390.04 
L 643.349759 10.8 
" clip-path="url(#p36635e883e)" style="fill: none; stroke: #b0b0b0; stroke-width: 0.8; stroke-linecap: square"/>
     </g>
     <g id="line2d_10">
      <g>
       <use xlink:href="#me68fa0fe3e" x="643.349759" y="390.04" style="stroke: #000000; stroke-width: 0.8"/>
      </g>
     </g>
     <g id="text_5">
      <!-- 40000 -->
      <g transform="translate(627.443509 404.638438) scale(0.1 -0.1)">
       <defs>
        <path id="DejaVuSans-34" d="M 2419 4116 
L 825 1625 
L 2419 1625 
L 2419 4116 
z
M 2253 4666 
L 3047 4666 
L 3047 1625 
L 3713 1625 
L 3713 1100 
L 3047 1100 
L 3047 0 
L 2419 0 
L 2419 1100 
L 313 1100 
L 313 1709 
L 2253 4666 
z
" transform="scale(0.015625)"/>
       </defs>
       <use xlink:href="#DejaVuSans-34"/>
       <use xlink:href="#DejaVuSans-30" transform="translate(63.623047 0)"/>
       <use xlink:href="#DejaVuSans-30" transform="translate(127.246094 0)"/>
       <use xlink:href="#DejaVuSans-30" transform="translate(190.869141 0)"/>
       <use xlink:href="#DejaVuSans-30" transform="translate(254.492188 0)"/>
      </g>
     </g>
    </g>
    <g id="text_6">
     <!-- Episodes -->
     <g transform="translate(354.642812 418.316562) scale(0.1 -0.1)">
      <defs>
       <path id="DejaVuSans-45" d="M 628 4666 
L 3578 4666 
L 3578 4134 
L 1259 4134 
L 1259 2753 
L 3481 2753 
L 3481 2222 
L 1259 2222 
L 1259 531 
L 3634 531 
L 3634 0 
L 628 0 
L 628 4666 
z
" transform="scale(0.015625)"/>
       <path id="DejaVuSans-70" d="M 1159 525 
L 1159 -1331 
L 581 -1331 
L 581 3500 
L 1159 3500 
L 1159 2969 
Q 1341 3281 1617 3432 
Q 1894 3584 2278 3584 
Q 2916 3584 3314 3078 
Q 3713 2572 3713 1747 
Q 3713 922 3314 415 
Q 2916 -91 2278 -91 
Q 1894 -91 1617 61 
Q 1341 213 1159 525 
z
M 3116 1747 
Q 3116 2381 2855 2742 
Q 2594 3103 2138 3103 
Q 1681 3103 1420 2742 
Q 1159 2381 1159 1747 
Q 1159 1113 1420 752 
Q 1681 391 2138 391 
Q 2594 391 2855 752 
Q 3116 1113 3116 1747 
z
" transform="scale(0.015625)"/>
       <path id="DejaVuSans-69" d="M 603 3500 
L 1178 3500 
L 1178 0 
L 603 0 
L 603 3500 
z
M 603 4863 
L 1178 4863 
L 1178 4134 
L 603 4134 
L 603 4863 
z
" transform="scale(0.015625)"/>
       <path id="DejaVuSans-73" d="M 2834 3397 
L 2834 2853 
Q 2591 2978 2328 3040 
Q 2066 3103 1784 3103 
Q 1356 3103 1142 2972 
Q 928 2841 928 2578 
Q 928 2378 1081 2264 
Q 1234 2150 1697 2047 
L 1894 2003 
Q 2506 1872 2764 1633 
Q 3022 1394 3022 966 
Q 3022 478 2636 193 
Q 2250 -91 1575 -91 
Q 1294 -91 989 -36 
Q 684 19 347 128 
L 347 722 
Q 666 556 975 473 
Q 1284 391 1588 391 
Q 1994 391 2212 530 
Q 2431 669 2431 922 
Q 2431 1156 2273 1281 
Q 2116 1406 1581 1522 
L 1381 1569 
Q 847 1681 609 1914 
Q 372 2147 372 2553 
Q 372 3047 722 3315 
Q 1072 3584 1716 3584 
Q 2034 3584 2315 3537 
Q 2597 3491 2834 3397 
z
" transform="scale(0.015625)"/>
       <path id="DejaVuSans-6f" d="M 1959 3097 
Q 1497 3097 1228 2736 
Q 959 2375 959 1747 
Q 959 1119 1226 758 
Q 1494 397 1959 397 
Q 2419 397 2687 759 
Q 2956 1122 2956 1747 
Q 2956 2369 2687 2733 
Q 2419 3097 1959 3097 
z
M 1959 3584 
Q 2709 3584 3137 3096 
Q 3566 2609 3566 1747 
Q 3566 888 3137 398 
Q 2709 -91 1959 -91 
Q 1206 -91 779 398 
Q 353 888 353 1747 
Q 353 2609 779 3096 
Q 1206 3584 1959 3584 
z
" transform="scale(0.015625)"/>
       <path id="DejaVuSans-64" d="M 2906 2969 
L 2906 4863 
L 3481 4863 
L 3481 0 
L 2906 0 
L 2906 525 
Q 2725 213 2448 61 
Q 2172 -91 1784 -91 
Q 1150 -91 751 415 
Q 353 922 353 1747 
Q 353 2572 751 3078 
Q 1150 3584 1784 3584 
Q 2172 3584 2448 3432 
Q 2725 3281 2906 2969 
z
M 947 1747 
Q 947 1113 1208 752 
Q 1469 391 1925 391 
Q 2381 391 2643 752 
Q 2906 1113 2906 1747 
Q 2906 2381 2643 2742 
Q 2381 3103 1925 3103 
Q 1469 3103 1208 2742 
Q 947 2381 947 1747 
z
" transform="scale(0.015625)"/>
       <path id="DejaVuSans-65" d="M 3597 1894 
L 3597 1613 
L 953 1613 
Q 991 1019 1311 708 
Q 1631 397 2203 397 
Q 2534 397 2845 478 
Q 3156 559 3463 722 
L 3463 178 
Q 3153 47 2828 -22 
Q 2503 -91 2169 -91 
Q 1331 -91 842 396 
Q 353 884 353 1716 
Q 353 2575 817 3079 
Q 1281 3584 2069 3584 
Q 2775 3584 3186 3129 
Q 3597 2675 3597 1894 
z
M 3022 2063 
Q 3016 2534 2758 2815 
Q 2500 3097 2075 3097 
Q 1594 3097 1305 2825 
Q 1016 2553 972 2059 
L 3022 2063 
z
" transform="scale(0.015625)"/>
      </defs>
      <use xlink:href="#DejaVuSans-45"/>
      <use xlink:href="#DejaVuSans-70" transform="translate(63.183594 0)"/>
      <use xlink:href="#DejaVuSans-69" transform="translate(126.660156 0)"/>
      <use xlink:href="#DejaVuSans-73" transform="translate(154.443359 0)"/>
      <use xlink:href="#DejaVuSans-6f" transform="translate(206.542969 0)"/>
      <use xlink:href="#DejaVuSans-64" transform="translate(267.724609 0)"/>
      <use xlink:href="#DejaVuSans-65" transform="translate(331.201172 0)"/>
      <use xlink:href="#DejaVuSans-73" transform="translate(392.724609 0)"/>
     </g>
    </g>
   </g>
   <g id="matplotlib.axis_2">
    <g id="ytick_1">
     <g id="line2d_11">
      <path d="M 44.57 374.727296 
L 709.2 374.727296 
" clip-path="url(#p36635e883e)" style="fill: none; stroke: #b0b0b0; stroke-width: 0.8; stroke-linecap: square"/>
     </g>
     <g id="line2d_12">
      <defs>
       <path id="m3f8b0fa0de" d="M 0 0 
L -3.5 0 
" style="stroke: #000000; stroke-width: 0.8"/>
      </defs>
      <g>
       <use xlink:href="#m3f8b0fa0de" x="44.57" y="374.727296" style="stroke: #000000; stroke-width: 0.8"/>
      </g>
     </g>
     <g id="text_7">
      <!-- 4 -->
      <g transform="translate(31.2075 378.526515) scale(0.1 -0.1)">
       <use xlink:href="#DejaVuSans-34"/>
      </g>
     </g>
    </g>
    <g id="ytick_2">
     <g id="line2d_13">
      <path d="M 44.57 303.335203 
L 709.2 303.335203 
" clip-path="url(#p36635e883e)" style="fill: none; stroke: #b0b0b0; stroke-width: 0.8; stroke-linecap: square"/>
     </g>
     <g id="line2d_14">
      <g>
       <use xlink:href="#m3f8b0fa0de" x="44.57" y="303.335203" style="stroke: #000000; stroke-width: 0.8"/>
      </g>
     </g>
     <g id="text_8">
      <!-- 6 -->
      <g transform="translate(31.2075 307.134422) scale(0.1 -0.1)">
       <defs>
        <path id="DejaVuSans-36" d="M 2113 2584 
Q 1688 2584 1439 2293 
Q 1191 2003 1191 1497 
Q 1191 994 1439 701 
Q 1688 409 2113 409 
Q 2538 409 2786 701 
Q 3034 994 3034 1497 
Q 3034 2003 2786 2293 
Q 2538 2584 2113 2584 
z
M 3366 4563 
L 3366 3988 
Q 3128 4100 2886 4159 
Q 2644 4219 2406 4219 
Q 1781 4219 1451 3797 
Q 1122 3375 1075 2522 
Q 1259 2794 1537 2939 
Q 1816 3084 2150 3084 
Q 2853 3084 3261 2657 
Q 3669 2231 3669 1497 
Q 3669 778 3244 343 
Q 2819 -91 2113 -91 
Q 1303 -91 875 529 
Q 447 1150 447 2328 
Q 447 3434 972 4092 
Q 1497 4750 2381 4750 
Q 2619 4750 2861 4703 
Q 3103 4656 3366 4563 
z
" transform="scale(0.015625)"/>
       </defs>
       <use xlink:href="#DejaVuSans-36"/>
      </g>
     </g>
    </g>
    <g id="ytick_3">
     <g id="line2d_15">
      <path d="M 44.57 231.943111 
L 709.2 231.943111 
" clip-path="url(#p36635e883e)" style="fill: none; stroke: #b0b0b0; stroke-width: 0.8; stroke-linecap: square"/>
     </g>
     <g id="line2d_16">
      <g>
       <use xlink:href="#m3f8b0fa0de" x="44.57" y="231.943111" style="stroke: #000000; stroke-width: 0.8"/>
      </g>
     </g>
     <g id="text_9">
      <!-- 8 -->
      <g transform="translate(31.2075 235.742329) scale(0.1 -0.1)">
       <defs>
        <path id="DejaVuSans-38" d="M 2034 2216 
Q 1584 2216 1326 1975 
Q 1069 1734 1069 1313 
Q 1069 891 1326 650 
Q 1584 409 2034 409 
Q 2484 409 2743 651 
Q 3003 894 3003 1313 
Q 3003 1734 2745 1975 
Q 2488 2216 2034 2216 
z
M 1403 2484 
Q 997 2584 770 2862 
Q 544 3141 544 3541 
Q 544 4100 942 4425 
Q 1341 4750 2034 4750 
Q 2731 4750 3128 4425 
Q 3525 4100 3525 3541 
Q 3525 3141 3298 2862 
Q 3072 2584 2669 2484 
Q 3125 2378 3379 2068 
Q 3634 1759 3634 1313 
Q 3634 634 3220 271 
Q 2806 -91 2034 -91 
Q 1263 -91 848 271 
Q 434 634 434 1313 
Q 434 1759 690 2068 
Q 947 2378 1403 2484 
z
M 1172 3481 
Q 1172 3119 1398 2916 
Q 1625 2713 2034 2713 
Q 2441 2713 2670 2916 
Q 2900 3119 2900 3481 
Q 2900 3844 2670 4047 
Q 2441 4250 2034 4250 
Q 1625 4250 1398 4047 
Q 1172 3844 1172 3481 
z
" transform="scale(0.015625)"/>
       </defs>
       <use xlink:href="#DejaVuSans-38"/>
      </g>
     </g>
    </g>
    <g id="ytick_4">
     <g id="line2d_17">
      <path d="M 44.57 160.551018 
L 709.2 160.551018 
" clip-path="url(#p36635e883e)" style="fill: none; stroke: #b0b0b0; stroke-width: 0.8; stroke-linecap: square"/>
     </g>
     <g id="line2d_18">
      <g>
       <use xlink:href="#m3f8b0fa0de" x="44.57" y="160.551018" style="stroke: #000000; stroke-width: 0.8"/>
      </g>
     </g>
     <g id="text_10">
      <!-- 10 -->
      <g transform="translate(24.845 164.350237) scale(0.1 -0.1)">
       <use xlink:href="#DejaVuSans-31"/>
       <use xlink:href="#DejaVuSans-30" transform="translate(63.623047 0)"/>
      </g>
     </g>
    </g>
    <g id="ytick_5">
     <g id="line2d_19">
      <path d="M 44.57 89.158925 
L 709.2 89.158925 
" clip-path="url(#p36635e883e)" style="fill: none; stroke: #b0b0b0; stroke-width: 0.8; stroke-linecap: square"/>
     </g>
     <g id="line2d_20">
      <g>
       <use xlink:href="#m3f8b0fa0de" x="44.57" y="89.158925" style="stroke: #000000; stroke-width: 0.8"/>
      </g>
     </g>
     <g id="text_11">
      <!-- 12 -->
      <g transform="translate(24.845 92.958144) scale(0.1 -0.1)">
       <use xlink:href="#DejaVuSans-31"/>
       <use xlink:href="#DejaVuSans-32" transform="translate(63.623047 0)"/>
      </g>
     </g>
    </g>
    <g id="ytick_6">
     <g id="line2d_21">
      <path d="M 44.57 17.766833 
L 709.2 17.766833 
" clip-path="url(#p36635e883e)" style="fill: none; stroke: #b0b0b0; stroke-width: 0.8; stroke-linecap: square"/>
     </g>
     <g id="line2d_22">
      <g>
       <use xlink:href="#m3f8b0fa0de" x="44.57" y="17.766833" style="stroke: #000000; stroke-width: 0.8"/>
      </g>
     </g>
     <g id="text_12">
      <!-- 14 -->
      <g transform="translate(24.845 21.566051) scale(0.1 -0.1)">
       <use xlink:href="#DejaVuSans-31"/>
       <use xlink:href="#DejaVuSans-34" transform="translate(63.623047 0)"/>
      </g>
     </g>
    </g>
    <g id="text_13">
     <!-- Quantum Gates -->
     <g transform="translate(18.765312 239.925469) rotate(-90) scale(0.1 -0.1)">
      <defs>
       <path id="DejaVuSans-51" d="M 2522 4238 
Q 1834 4238 1429 3725 
Q 1025 3213 1025 2328 
Q 1025 1447 1429 934 
Q 1834 422 2522 422 
Q 3209 422 3611 934 
Q 4013 1447 4013 2328 
Q 4013 3213 3611 3725 
Q 3209 4238 2522 4238 
z
M 3406 84 
L 4238 -825 
L 3475 -825 
L 2784 -78 
Q 2681 -84 2626 -87 
Q 2572 -91 2522 -91 
Q 1538 -91 948 567 
Q 359 1225 359 2328 
Q 359 3434 948 4092 
Q 1538 4750 2522 4750 
Q 3503 4750 4090 4092 
Q 4678 3434 4678 2328 
Q 4678 1516 4351 937 
Q 4025 359 3406 84 
z
" transform="scale(0.015625)"/>
       <path id="DejaVuSans-75" d="M 544 1381 
L 544 3500 
L 1119 3500 
L 1119 1403 
Q 1119 906 1312 657 
Q 1506 409 1894 409 
Q 2359 409 2629 706 
Q 2900 1003 2900 1516 
L 2900 3500 
L 3475 3500 
L 3475 0 
L 2900 0 
L 2900 538 
Q 2691 219 2414 64 
Q 2138 -91 1772 -91 
Q 1169 -91 856 284 
Q 544 659 544 1381 
z
M 1991 3584 
L 1991 3584 
z
" transform="scale(0.015625)"/>
       <path id="DejaVuSans-61" d="M 2194 1759 
Q 1497 1759 1228 1600 
Q 959 1441 959 1056 
Q 959 750 1161 570 
Q 1363 391 1709 391 
Q 2188 391 2477 730 
Q 2766 1069 2766 1631 
L 2766 1759 
L 2194 1759 
z
M 3341 1997 
L 3341 0 
L 2766 0 
L 2766 531 
Q 2569 213 2275 61 
Q 1981 -91 1556 -91 
Q 1019 -91 701 211 
Q 384 513 384 1019 
Q 384 1609 779 1909 
Q 1175 2209 1959 2209 
L 2766 2209 
L 2766 2266 
Q 2766 2663 2505 2880 
Q 2244 3097 1772 3097 
Q 1472 3097 1187 3025 
Q 903 2953 641 2809 
L 641 3341 
Q 956 3463 1253 3523 
Q 1550 3584 1831 3584 
Q 2591 3584 2966 3190 
Q 3341 2797 3341 1997 
z
" transform="scale(0.015625)"/>
       <path id="DejaVuSans-6e" d="M 3513 2113 
L 3513 0 
L 2938 0 
L 2938 2094 
Q 2938 2591 2744 2837 
Q 2550 3084 2163 3084 
Q 1697 3084 1428 2787 
Q 1159 2491 1159 1978 
L 1159 0 
L 581 0 
L 581 3500 
L 1159 3500 
L 1159 2956 
Q 1366 3272 1645 3428 
Q 1925 3584 2291 3584 
Q 2894 3584 3203 3211 
Q 3513 2838 3513 2113 
z
" transform="scale(0.015625)"/>
       <path id="DejaVuSans-74" d="M 1172 4494 
L 1172 3500 
L 2356 3500 
L 2356 3053 
L 1172 3053 
L 1172 1153 
Q 1172 725 1289 603 
Q 1406 481 1766 481 
L 2356 481 
L 2356 0 
L 1766 0 
Q 1100 0 847 248 
Q 594 497 594 1153 
L 594 3053 
L 172 3053 
L 172 3500 
L 594 3500 
L 594 4494 
L 1172 4494 
z
" transform="scale(0.015625)"/>
       <path id="DejaVuSans-6d" d="M 3328 2828 
Q 3544 3216 3844 3400 
Q 4144 3584 4550 3584 
Q 5097 3584 5394 3201 
Q 5691 2819 5691 2113 
L 5691 0 
L 5113 0 
L 5113 2094 
Q 5113 2597 4934 2840 
Q 4756 3084 4391 3084 
Q 3944 3084 3684 2787 
Q 3425 2491 3425 1978 
L 3425 0 
L 2847 0 
L 2847 2094 
Q 2847 2600 2669 2842 
Q 2491 3084 2119 3084 
Q 1678 3084 1418 2786 
Q 1159 2488 1159 1978 
L 1159 0 
L 581 0 
L 581 3500 
L 1159 3500 
L 1159 2956 
Q 1356 3278 1631 3431 
Q 1906 3584 2284 3584 
Q 2666 3584 2933 3390 
Q 3200 3197 3328 2828 
z
" transform="scale(0.015625)"/>
       <path id="DejaVuSans-20" transform="scale(0.015625)"/>
       <path id="DejaVuSans-47" d="M 3809 666 
L 3809 1919 
L 2778 1919 
L 2778 2438 
L 4434 2438 
L 4434 434 
Q 4069 175 3628 42 
Q 3188 -91 2688 -91 
Q 1594 -91 976 548 
Q 359 1188 359 2328 
Q 359 3472 976 4111 
Q 1594 4750 2688 4750 
Q 3144 4750 3555 4637 
Q 3966 4525 4313 4306 
L 4313 3634 
Q 3963 3931 3569 4081 
Q 3175 4231 2741 4231 
Q 1884 4231 1454 3753 
Q 1025 3275 1025 2328 
Q 1025 1384 1454 906 
Q 1884 428 2741 428 
Q 3075 428 3337 486 
Q 3600 544 3809 666 
z
" transform="scale(0.015625)"/>
      </defs>
      <use xlink:href="#DejaVuSans-51"/>
      <use xlink:href="#DejaVuSans-75" transform="translate(78.710938 0)"/>
      <use xlink:href="#DejaVuSans-61" transform="translate(142.089844 0)"/>
      <use xlink:href="#DejaVuSans-6e" transform="translate(203.369141 0)"/>
      <use xlink:href="#DejaVuSans-74" transform="translate(266.748047 0)"/>
      <use xlink:href="#DejaVuSans-75" transform="translate(305.957031 0)"/>
      <use xlink:href="#DejaVuSans-6d" transform="translate(369.335938 0)"/>
      <use xlink:href="#DejaVuSans-20" transform="translate(466.748047 0)"/>
      <use xlink:href="#DejaVuSans-47" transform="translate(498.535156 0)"/>
      <use xlink:href="#DejaVuSans-61" transform="translate(576.025391 0)"/>
      <use xlink:href="#DejaVuSans-74" transform="translate(637.304688 0)"/>
      <use xlink:href="#DejaVuSans-65" transform="translate(676.513672 0)"/>
      <use xlink:href="#DejaVuSans-73" transform="translate(738.037109 0)"/>
     </g>
    </g>
   </g>
   <g id="line2d_23">
    <path d="M 74.780455 240.569655 
L 77.630497 232.419058 
L 80.48054 225.517822 
L 83.330583 238.308905 
L 86.180626 220.163415 
L 89.030669 218.140639 
L 91.880712 228.314012 
L 94.730755 223.376059 
L 97.580798 232.240578 
L 100.43084 234.977274 
L 103.280883 240.867122 
L 106.130926 238.90384 
L 108.980969 254.134153 
L 111.831012 250.386068 
L 114.681055 265.021447 
L 117.531098 273.766978 
L 120.381141 282.988457 
L 123.231184 277.931517 
L 126.081226 288.937798 
L 128.931269 290.36564 
L 131.781312 295.125113 
L 134.631355 296.493461 
L 137.481398 302.383309 
L 140.331441 292.804869 
L 143.181484 288.580837 
L 146.031527 290.7226 
L 148.881569 288.045397 
L 154.581655 274.123939 
L 157.431698 281.084668 
L 160.281741 270.554334 
L 163.131784 277.693543 
L 165.981827 261.035388 
L 168.83187 265.735368 
L 171.681913 262.403737 
L 174.531955 258.655652 
L 177.381998 263.534112 
L 180.232041 257.22781 
L 183.082084 267.460677 
L 185.932127 264.90246 
L 188.78217 260.797415 
L 191.632213 270.435347 
L 194.482256 260.321467 
L 197.332298 256.216422 
L 200.182341 254.312633 
L 203.032384 263.415125 
L 205.882427 268.472065 
L 208.73247 258.358185 
L 211.582513 266.925236 
L 214.432556 265.021447 
L 217.282599 255.799968 
L 220.132642 259.84552 
L 222.982684 257.58477 
L 225.832727 261.154375 
L 228.68277 254.848074 
L 231.532813 251.932896 
L 234.382856 239.320293 
L 237.232899 245.686088 
L 240.082942 243.068378 
L 242.932985 238.546879 
L 245.783027 234.560821 
L 248.63307 228.016545 
L 251.483113 235.155755 
L 254.333156 240.748135 
L 257.183199 235.512715 
L 260.033242 232.776018 
L 262.883285 234.441834 
L 265.733328 230.158308 
L 268.58337 238.665866 
L 271.433413 234.679807 
L 274.283456 252.468337 
L 277.133499 248.601265 
L 279.983542 238.070932 
L 282.833585 220.222909 
L 285.683628 214.333061 
L 288.533671 219.925442 
L 291.383714 210.941937 
L 294.233756 204.457155 
L 297.083799 202.672353 
L 299.933842 202.493872 
L 302.783885 214.987489 
L 305.633928 222.305178 
L 308.483971 231.348176 
L 311.334014 239.201307 
L 314.184057 238.308905 
L 317.034099 240.331681 
L 319.884142 245.091154 
L 322.734185 241.759523 
L 325.584228 242.05699 
L 331.284314 242.889898 
L 334.134357 240.093708 
L 336.9844 237.119037 
L 339.834443 237.00005 
L 342.684485 234.263354 
L 345.534528 233.608926 
L 348.384571 229.801348 
L 351.234614 230.812736 
L 354.084657 230.098815 
L 356.9347 224.982382 
L 359.784743 225.696302 
L 362.634786 230.634256 
L 368.334871 238.725359 
L 371.184914 231.645643 
L 374.034957 223.852007 
L 376.885 220.817843 
L 379.735043 217.545705 
L 382.585086 222.483658 
L 385.435129 229.622868 
L 388.285172 225.041875 
L 391.135214 229.444387 
L 393.985257 226.231743 
L 396.8353 224.268461 
L 399.685343 222.602645 
L 402.535386 217.724185 
L 405.385429 209.157134 
L 408.235472 208.264733 
L 411.085515 203.743234 
L 413.935557 203.267287 
L 416.7856 188.512921 
L 419.635643 180.362324 
L 422.485686 176.316772 
L 425.335729 186.252171 
L 428.185772 213.202686 
L 431.035815 211.120417 
L 433.885858 206.717904 
L 436.735901 203.624247 
L 439.585943 209.811562 
L 442.435986 211.35839 
L 445.286029 215.939383 
L 448.136072 209.454601 
L 450.986115 204.814115 
L 453.836158 196.663518 
L 456.686201 186.252171 
L 459.536244 182.325606 
L 462.386286 190.000256 
L 465.236329 203.743234 
L 468.086372 200.649577 
L 470.936415 202.672353 
L 473.786458 181.195231 
L 476.636501 162.752274 
L 479.486544 164.239609 
L 482.336587 166.857319 
L 485.18663 166.083905 
L 488.036672 172.390207 
L 490.886715 176.019305 
L 493.736758 184.169902 
L 496.586801 203.862221 
L 499.436844 219.092534 
L 502.286887 222.662138 
L 505.13693 231.40767 
L 507.986973 233.727913 
L 510.837015 222.662138 
L 513.687058 219.092534 
L 516.537101 205.468543 
L 519.387144 178.993975 
L 522.237187 165.369984 
L 525.08723 178.280054 
L 527.937273 195.057196 
L 530.787316 181.492698 
L 533.637358 186.966092 
L 536.487401 191.190124 
L 539.337444 170.486417 
L 542.187487 148.949803 
L 545.03753 161.562406 
L 547.887573 149.24727 
L 550.737616 135.563785 
L 553.587659 145.201718 
L 556.437702 162.930754 
L 559.287744 167.749721 
L 562.137787 142.584008 
L 564.98783 132.172661 
L 567.837873 134.195437 
L 570.687916 137.646055 
L 573.537959 135.563785 
L 576.388002 141.453633 
L 579.238045 140.799206 
L 582.088087 134.611891 
L 584.93813 121.999288 
L 587.788173 123.60561 
L 590.638216 138.419469 
L 593.488259 137.110614 
L 596.338302 141.989074 
L 599.188345 168.939589 
L 602.038388 191.487591 
L 604.888431 195.533143 
L 607.738473 190.833164 
L 610.588516 190.952151 
L 613.438559 190.654684 
L 616.288602 182.56358 
L 619.138645 162.633287 
L 621.988688 175.721838 
L 624.838731 201.839445 
L 627.688774 197.020479 
L 630.538816 191.487591 
L 633.388859 195.83061 
L 636.238902 201.779951 
L 639.088945 202.791339 
L 641.938988 200.590083 
L 644.789031 194.759729 
L 647.639074 196.723012 
L 650.489117 191.606578 
L 653.33916 193.748341 
L 656.189202 187.62052 
L 659.039245 177.923094 
L 661.889288 174.88893 
L 664.739331 173.520581 
L 667.589374 178.339548 
L 670.439417 180.540804 
L 673.28946 193.510367 
L 676.139503 187.501533 
L 678.989545 182.623073 
L 678.989545 182.623073 
" clip-path="url(#p36635e883e)" style="fill: none; stroke: #1f77b4; stroke-width: 1.5; stroke-linecap: square"/>
   </g>
   <g id="patch_3">
    <path d="M 44.57 390.04 
L 44.57 10.8 
" style="fill: none; stroke: #000000; stroke-width: 0.8; stroke-linejoin: miter; stroke-linecap: square"/>
   </g>
   <g id="patch_4">
    <path d="M 709.2 390.04 
L 709.2 10.8 
" style="fill: none; stroke: #000000; stroke-width: 0.8; stroke-linejoin: miter; stroke-linecap: square"/>
   </g>
   <g id="patch_5">
    <path d="M 44.57 390.04 
L 709.2 390.04 
" style="fill: none; stroke: #000000; stroke-width: 0.8; stroke-linejoin: miter; stroke-linecap: square"/>
   </g>
   <g id="patch_6">
    <path d="M 44.57 10.8 
L 709.2 10.8 
" style="fill: none; stroke: #000000; stroke-width: 0.8; stroke-linejoin: miter; stroke-linecap: square"/>
   </g>
  </g>
 </g>
 <defs>
  <clipPath id="p36635e883e">
   <rect x="44.57" y="10.8" width="664.63" height="379.24"/>
  </clipPath>
 </defs>
</svg>
