<?xml version="1.0" encoding="utf-8" standalone="no"?>
<!DOCTYPE svg PUBLIC "-//W3C//DTD SVG 1.1//EN"
  "http://www.w3.org/Graphics/SVG/1.1/DTD/svg11.dtd">
<svg xmlns:xlink="http://www.w3.org/1999/xlink" width="720pt" height="432pt" viewBox="0 0 720 432" xmlns="http://www.w3.org/2000/svg" version="1.1">
 <metadata>
  <rdf:RDF xmlns:dc="http://purl.org/dc/elements/1.1/" xmlns:cc="http://creativecommons.org/ns#" xmlns:rdf="http://www.w3.org/1999/02/22-rdf-syntax-ns#">
   <cc:Work>
    <dc:type rdf:resource="http://purl.org/dc/dcmitype/StillImage"/>
    <dc:date>2025-04-15T22:44:51.962312</dc:date>
    <dc:format>image/svg+xml</dc:format>
    <dc:creator>
     <cc:Agent>
      <dc:title>Matplotlib v3.10.0, https://matplotlib.org/</dc:title>
     </cc:Agent>
    </dc:creator>
   </cc:Work>
  </rdf:RDF>
 </metadata>
 <defs>
  <style type="text/css">*{stroke-linejoin: round; stroke-linecap: butt}</style>
 </defs>
 <g id="figure_1">
  <g id="patch_1">
   <path d="M 0 432 
L 720 432 
L 720 0 
L 0 0 
z
" style="fill: #ffffff"/>
  </g>
  <g id="axes_1">
   <g id="patch_2">
    <path d="M 47.72 390.04 
L 706.670361 390.04 
L 706.670361 10.8 
L 47.72 10.8 
z
" style="fill: #ffffff"/>
   </g>
   <g id="FillBetweenPolyCollection_1">
    <path d="M 77.672289 52.162577 
L 77.672289 368.086929 
L 81.775342 347.633026 
L 85.878396 356.524624 
L 89.981449 345.378342 
L 94.084502 357.913545 
L 98.187556 354.403703 
L 102.290609 359.181828 
L 106.393662 355.665399 
L 110.496716 358.368053 
L 114.599769 351.410971 
L 118.702822 348.77477 
L 122.805876 345.859306 
L 126.908929 355.420155 
L 131.011982 365.016479 
L 135.115035 349.739944 
L 139.218089 343.677782 
L 143.321142 371.20349 
L 147.424195 340.179069 
L 151.527249 347.560927 
L 155.630302 365.499952 
L 159.733355 355.630416 
L 163.836409 351.639225 
L 167.939462 351.070635 
L 172.042515 352.726227 
L 176.145569 355.719637 
L 180.248622 349.418169 
L 184.351675 366.054879 
L 188.454728 339.929528 
L 192.557782 349.389673 
L 196.660835 331.011794 
L 200.763888 359.461821 
L 204.866942 358.100619 
L 208.969995 353.047467 
L 213.073048 363.783806 
L 217.176102 366.746614 
L 221.279155 358.260728 
L 225.382208 354.565985 
L 229.485262 365.780655 
L 233.588315 339.908383 
L 237.691368 345.123844 
L 241.794421 339.678909 
L 245.897475 353.63665 
L 250.000528 350.191985 
L 254.103581 340.461897 
L 258.206635 342.512316 
L 262.309688 354.940026 
L 266.412741 361.766364 
L 270.515795 347.232707 
L 274.618848 355.098505 
L 278.721901 364.641327 
L 282.824955 350.322705 
L 286.928008 346.94136 
L 291.031061 355.78319 
L 295.134114 347.227198 
L 299.237168 359.260775 
L 303.340221 355.042702 
L 307.443274 357.571819 
L 311.546328 362.292377 
L 315.649381 346.955398 
L 319.752434 344.468262 
L 323.855488 342.394271 
L 327.958541 362.967171 
L 332.061594 357.683165 
L 336.164648 350.84305 
L 340.267701 348.987757 
L 344.370754 344.538253 
L 348.473807 355.991821 
L 352.576861 341.904196 
L 356.679914 360.426231 
L 360.782967 333.345692 
L 364.886021 355.167628 
L 368.989074 367.616627 
L 373.092127 352.395867 
L 377.195181 360.456599 
L 381.298234 358.023119 
L 385.401287 348.624937 
L 389.50434 372.801818 
L 393.607394 353.838365 
L 397.710447 344.102224 
L 401.8135 341.562504 
L 405.916554 343.678058 
L 410.019607 362.728385 
L 414.12266 360.560906 
L 418.225714 351.889962 
L 422.328767 354.455701 
L 426.43182 358.647796 
L 430.534874 361.168224 
L 434.637927 356.140567 
L 438.74098 353.746359 
L 442.844033 363.650377 
L 446.947087 354.288302 
L 451.05014 369.444929 
L 455.153193 347.83261 
L 459.256247 352.509496 
L 463.3593 353.065602 
L 467.462353 358.815052 
L 471.565407 349.384021 
L 475.66846 345.918344 
L 479.771513 348.929647 
L 483.874567 354.099295 
L 487.97762 349.606999 
L 492.080673 360.535136 
L 496.183726 358.005376 
L 500.28678 343.938436 
L 504.389833 370.195024 
L 508.492886 357.165296 
L 512.59594 340.338208 
L 516.698993 360.182659 
L 520.802046 344.014547 
L 524.9051 359.210959 
L 529.008153 349.819718 
L 533.111206 342.531522 
L 537.21426 351.309423 
L 541.317313 341.88468 
L 545.420366 351.145569 
L 549.523419 349.822979 
L 553.626473 327.027066 
L 557.729526 340.223074 
L 561.832579 348.195288 
L 565.935633 372.706649 
L 570.038686 353.765063 
L 574.141739 358.266849 
L 578.244793 338.564923 
L 582.347846 352.247121 
L 586.450899 356.816332 
L 590.553953 369.786594 
L 594.657006 354.521555 
L 598.760059 351.650729 
L 602.863112 340.335115 
L 606.966166 361.350968 
L 611.069219 369.18038 
L 615.172272 346.176723 
L 619.275326 340.410049 
L 623.378379 359.81351 
L 627.481432 363.699024 
L 631.584486 359.271084 
L 635.687539 348.536591 
L 639.790592 341.727245 
L 643.893646 362.681628 
L 647.996699 353.725122 
L 652.099752 359.171467 
L 656.202805 351.347417 
L 660.305859 367.184074 
L 664.408912 351.401097 
L 668.511965 346.466767 
L 672.615019 334.135504 
L 676.718072 368.872149 
L 676.718072 78.461048 
L 676.718072 78.461048 
L 672.615019 52.950298 
L 668.511965 63.280899 
L 664.408912 74.375693 
L 660.305859 79.596395 
L 656.202805 58.400249 
L 652.099752 57.761668 
L 647.996699 63.760742 
L 643.893646 64.753347 
L 639.790592 67.467693 
L 635.687539 69.502002 
L 631.584486 65.400249 
L 627.481432 69.815964 
L 623.378379 85.861502 
L 619.275326 61.046692 
L 615.172272 78.49461 
L 611.069219 64.887336 
L 606.966166 55.029439 
L 602.863112 58.910712 
L 598.760059 70.256962 
L 594.657006 55.226111 
L 590.553953 69.255677 
L 586.450899 56.247705 
L 582.347846 65.238743 
L 578.244793 67.313645 
L 574.141739 70.826311 
L 570.038686 63.168073 
L 565.935633 54.728326 
L 561.832579 57.683279 
L 557.729526 52.390012 
L 553.626473 31.31686 
L 549.523419 66.557428 
L 545.420366 49.758443 
L 541.317313 56.25569 
L 537.21426 28.038182 
L 533.111206 46.765194 
L 529.008153 69.87706 
L 524.9051 70.43493 
L 520.802046 56.336737 
L 516.698993 80.517797 
L 512.59594 58.907619 
L 508.492886 65.295123 
L 504.389833 56.134494 
L 500.28678 37.067353 
L 496.183726 78.825982 
L 492.080673 64.136197 
L 487.97762 56.271568 
L 483.874567 69.466581 
L 479.771513 54.738007 
L 475.66846 50.56384 
L 471.565407 60.363645 
L 467.462353 71.936293 
L 463.3593 56.129335 
L 459.256247 61.107269 
L 455.153193 57.493229 
L 451.05014 58.542775 
L 446.947087 68.724846 
L 442.844033 72.075523 
L 438.74098 41.630369 
L 434.637927 55.265284 
L 430.534874 70.135849 
L 426.43182 73.761735 
L 422.328767 64.135619 
L 418.225714 40.723124 
L 414.12266 58.583143 
L 410.019607 59.179306 
L 405.916554 61.095053 
L 401.8135 53.261495 
L 397.710447 58.459973 
L 393.607394 76.91298 
L 389.50434 67.34591 
L 385.401287 60.017273 
L 381.298234 54.48819 
L 377.195181 69.189289 
L 373.092127 63.98454 
L 368.989074 64.240175 
L 364.886021 67.84552 
L 360.782967 44.343727 
L 356.679914 65.350559 
L 352.576861 53.472532 
L 348.473807 56.519487 
L 344.370754 46.969376 
L 340.267701 57.443539 
L 336.164648 61.11553 
L 332.061594 69.199081 
L 327.958541 75.522372 
L 323.855488 53.535185 
L 319.752434 54.777565 
L 315.649381 50.079515 
L 311.546328 65.695326 
L 307.443274 50.517662 
L 303.340221 64.101347 
L 299.237168 58.225089 
L 295.134114 57.545913 
L 291.031061 69.440871 
L 286.928008 71.097232 
L 282.824955 56.661319 
L 278.721901 57.266364 
L 274.618848 62.940088 
L 270.515795 52.01312 
L 266.412741 61.246784 
L 262.309688 73.047677 
L 258.206635 69.446264 
L 254.103581 39.438436 
L 250.000528 63.977508 
L 245.897475 84.300165 
L 241.794421 52.934177 
L 237.691368 50.252884 
L 233.588315 42.755592 
L 229.485262 55.574307 
L 225.382208 83.370829 
L 221.279155 53.697851 
L 217.176102 55.713805 
L 213.073048 70.836638 
L 208.969995 69.412953 
L 204.866942 65.465257 
L 200.763888 62.44587 
L 196.660835 56.626737 
L 192.557782 52.067068 
L 188.454728 48.26173 
L 184.351675 74.645577 
L 180.248622 60.882225 
L 176.145569 55.133486 
L 172.042515 50.941427 
L 167.939462 47.622463 
L 163.836409 47.606602 
L 159.733355 50.248152 
L 155.630302 50.880456 
L 151.527249 57.764912 
L 147.424195 61.830399 
L 143.321142 74.471522 
L 139.218089 47.829847 
L 135.115035 61.665907 
L 131.011982 71.26215 
L 126.908929 64.829351 
L 122.805876 54.491977 
L 118.702822 57.656526 
L 114.599769 62.758522 
L 110.496716 79.016033 
L 106.393662 71.769576 
L 102.290609 79.860443 
L 98.187556 61.423975 
L 94.084502 67.310517 
L 89.981449 41.70746 
L 85.878396 66.488524 
L 81.775342 64.878282 
L 77.672289 52.162577 
z
" clip-path="url(#p7072f39e78)" style="fill: #1f77b4; fill-opacity: 0.2"/>
   </g>
   <g id="matplotlib.axis_1">
    <g id="xtick_1">
     <g id="line2d_1">
      <path d="M 75.600247 390.04 
L 75.600247 10.8 
" clip-path="url(#p7072f39e78)" style="fill: none; stroke: #b0b0b0; stroke-width: 0.8; stroke-linecap: square"/>
     </g>
     <g id="line2d_2">
      <defs>
       <path id="mc53fa043e5" d="M 0 0 
L 0 3.5 
" style="stroke: #000000; stroke-width: 0.8"/>
      </defs>
      <g>
       <use xlink:href="#mc53fa043e5" x="75.600247" y="390.04" style="stroke: #000000; stroke-width: 0.8"/>
      </g>
     </g>
     <g id="text_1">
      <!-- 0 -->
      <g transform="translate(72.418997 404.638438) scale(0.1 -0.1)">
       <defs>
        <path id="DejaVuSans-30" d="M 2034 4250 
Q 1547 4250 1301 3770 
Q 1056 3291 1056 2328 
Q 1056 1369 1301 889 
Q 1547 409 2034 409 
Q 2525 409 2770 889 
Q 3016 1369 3016 2328 
Q 3016 3291 2770 3770 
Q 2525 4250 2034 4250 
z
M 2034 4750 
Q 2819 4750 3233 4129 
Q 3647 3509 3647 2328 
Q 3647 1150 3233 529 
Q 2819 -91 2034 -91 
Q 1250 -91 836 529 
Q 422 1150 422 2328 
Q 422 3509 836 4129 
Q 1250 4750 2034 4750 
z
" transform="scale(0.015625)"/>
       </defs>
       <use xlink:href="#DejaVuSans-30"/>
      </g>
     </g>
    </g>
    <g id="xtick_2">
     <g id="line2d_3">
      <path d="M 178.17658 390.04 
L 178.17658 10.8 
" clip-path="url(#p7072f39e78)" style="fill: none; stroke: #b0b0b0; stroke-width: 0.8; stroke-linecap: square"/>
     </g>
     <g id="line2d_4">
      <g>
       <use xlink:href="#mc53fa043e5" x="178.17658" y="390.04" style="stroke: #000000; stroke-width: 0.8"/>
      </g>
     </g>
     <g id="text_2">
      <!-- 5000 -->
      <g transform="translate(165.45158 404.638438) scale(0.1 -0.1)">
       <defs>
        <path id="DejaVuSans-35" d="M 691 4666 
L 3169 4666 
L 3169 4134 
L 1269 4134 
L 1269 2991 
Q 1406 3038 1543 3061 
Q 1681 3084 1819 3084 
Q 2600 3084 3056 2656 
Q 3513 2228 3513 1497 
Q 3513 744 3044 326 
Q 2575 -91 1722 -91 
Q 1428 -91 1123 -41 
Q 819 9 494 109 
L 494 744 
Q 775 591 1075 516 
Q 1375 441 1709 441 
Q 2250 441 2565 725 
Q 2881 1009 2881 1497 
Q 2881 1984 2565 2268 
Q 2250 2553 1709 2553 
Q 1456 2553 1204 2497 
Q 953 2441 691 2322 
L 691 4666 
z
" transform="scale(0.015625)"/>
       </defs>
       <use xlink:href="#DejaVuSans-35"/>
       <use xlink:href="#DejaVuSans-30" transform="translate(63.623047 0)"/>
       <use xlink:href="#DejaVuSans-30" transform="translate(127.246094 0)"/>
       <use xlink:href="#DejaVuSans-30" transform="translate(190.869141 0)"/>
      </g>
     </g>
    </g>
    <g id="xtick_3">
     <g id="line2d_5">
      <path d="M 280.752913 390.04 
L 280.752913 10.8 
" clip-path="url(#p7072f39e78)" style="fill: none; stroke: #b0b0b0; stroke-width: 0.8; stroke-linecap: square"/>
     </g>
     <g id="line2d_6">
      <g>
       <use xlink:href="#mc53fa043e5" x="280.752913" y="390.04" style="stroke: #000000; stroke-width: 0.8"/>
      </g>
     </g>
     <g id="text_3">
      <!-- 10000 -->
      <g transform="translate(264.846663 404.638438) scale(0.1 -0.1)">
       <defs>
        <path id="DejaVuSans-31" d="M 794 531 
L 1825 531 
L 1825 4091 
L 703 3866 
L 703 4441 
L 1819 4666 
L 2450 4666 
L 2450 531 
L 3481 531 
L 3481 0 
L 794 0 
L 794 531 
z
" transform="scale(0.015625)"/>
       </defs>
       <use xlink:href="#DejaVuSans-31"/>
       <use xlink:href="#DejaVuSans-30" transform="translate(63.623047 0)"/>
       <use xlink:href="#DejaVuSans-30" transform="translate(127.246094 0)"/>
       <use xlink:href="#DejaVuSans-30" transform="translate(190.869141 0)"/>
       <use xlink:href="#DejaVuSans-30" transform="translate(254.492188 0)"/>
      </g>
     </g>
    </g>
    <g id="xtick_4">
     <g id="line2d_7">
      <path d="M 383.329245 390.04 
L 383.329245 10.8 
" clip-path="url(#p7072f39e78)" style="fill: none; stroke: #b0b0b0; stroke-width: 0.8; stroke-linecap: square"/>
     </g>
     <g id="line2d_8">
      <g>
       <use xlink:href="#mc53fa043e5" x="383.329245" y="390.04" style="stroke: #000000; stroke-width: 0.8"/>
      </g>
     </g>
     <g id="text_4">
      <!-- 15000 -->
      <g transform="translate(367.422995 404.638438) scale(0.1 -0.1)">
       <use xlink:href="#DejaVuSans-31"/>
       <use xlink:href="#DejaVuSans-35" transform="translate(63.623047 0)"/>
       <use xlink:href="#DejaVuSans-30" transform="translate(127.246094 0)"/>
       <use xlink:href="#DejaVuSans-30" transform="translate(190.869141 0)"/>
       <use xlink:href="#DejaVuSans-30" transform="translate(254.492188 0)"/>
      </g>
     </g>
    </g>
    <g id="xtick_5">
     <g id="line2d_9">
      <path d="M 485.905578 390.04 
L 485.905578 10.8 
" clip-path="url(#p7072f39e78)" style="fill: none; stroke: #b0b0b0; stroke-width: 0.8; stroke-linecap: square"/>
     </g>
     <g id="line2d_10">
      <g>
       <use xlink:href="#mc53fa043e5" x="485.905578" y="390.04" style="stroke: #000000; stroke-width: 0.8"/>
      </g>
     </g>
     <g id="text_5">
      <!-- 20000 -->
      <g transform="translate(469.999328 404.638438) scale(0.1 -0.1)">
       <defs>
        <path id="DejaVuSans-32" d="M 1228 531 
L 3431 531 
L 3431 0 
L 469 0 
L 469 531 
Q 828 903 1448 1529 
Q 2069 2156 2228 2338 
Q 2531 2678 2651 2914 
Q 2772 3150 2772 3378 
Q 2772 3750 2511 3984 
Q 2250 4219 1831 4219 
Q 1534 4219 1204 4116 
Q 875 4013 500 3803 
L 500 4441 
Q 881 4594 1212 4672 
Q 1544 4750 1819 4750 
Q 2544 4750 2975 4387 
Q 3406 4025 3406 3419 
Q 3406 3131 3298 2873 
Q 3191 2616 2906 2266 
Q 2828 2175 2409 1742 
Q 1991 1309 1228 531 
z
" transform="scale(0.015625)"/>
       </defs>
       <use xlink:href="#DejaVuSans-32"/>
       <use xlink:href="#DejaVuSans-30" transform="translate(63.623047 0)"/>
       <use xlink:href="#DejaVuSans-30" transform="translate(127.246094 0)"/>
       <use xlink:href="#DejaVuSans-30" transform="translate(190.869141 0)"/>
       <use xlink:href="#DejaVuSans-30" transform="translate(254.492188 0)"/>
      </g>
     </g>
    </g>
    <g id="xtick_6">
     <g id="line2d_11">
      <path d="M 588.481911 390.04 
L 588.481911 10.8 
" clip-path="url(#p7072f39e78)" style="fill: none; stroke: #b0b0b0; stroke-width: 0.8; stroke-linecap: square"/>
     </g>
     <g id="line2d_12">
      <g>
       <use xlink:href="#mc53fa043e5" x="588.481911" y="390.04" style="stroke: #000000; stroke-width: 0.8"/>
      </g>
     </g>
     <g id="text_6">
      <!-- 25000 -->
      <g transform="translate(572.575661 404.638438) scale(0.1 -0.1)">
       <use xlink:href="#DejaVuSans-32"/>
       <use xlink:href="#DejaVuSans-35" transform="translate(63.623047 0)"/>
       <use xlink:href="#DejaVuSans-30" transform="translate(127.246094 0)"/>
       <use xlink:href="#DejaVuSans-30" transform="translate(190.869141 0)"/>
       <use xlink:href="#DejaVuSans-30" transform="translate(254.492188 0)"/>
      </g>
     </g>
    </g>
    <g id="xtick_7">
     <g id="line2d_13">
      <path d="M 691.058243 390.04 
L 691.058243 10.8 
" clip-path="url(#p7072f39e78)" style="fill: none; stroke: #b0b0b0; stroke-width: 0.8; stroke-linecap: square"/>
     </g>
     <g id="line2d_14">
      <g>
       <use xlink:href="#mc53fa043e5" x="691.058243" y="390.04" style="stroke: #000000; stroke-width: 0.8"/>
      </g>
     </g>
     <g id="text_7">
      <!-- 30000 -->
      <g transform="translate(675.151993 404.638438) scale(0.1 -0.1)">
       <defs>
        <path id="DejaVuSans-33" d="M 2597 2516 
Q 3050 2419 3304 2112 
Q 3559 1806 3559 1356 
Q 3559 666 3084 287 
Q 2609 -91 1734 -91 
Q 1441 -91 1130 -33 
Q 819 25 488 141 
L 488 750 
Q 750 597 1062 519 
Q 1375 441 1716 441 
Q 2309 441 2620 675 
Q 2931 909 2931 1356 
Q 2931 1769 2642 2001 
Q 2353 2234 1838 2234 
L 1294 2234 
L 1294 2753 
L 1863 2753 
Q 2328 2753 2575 2939 
Q 2822 3125 2822 3475 
Q 2822 3834 2567 4026 
Q 2313 4219 1838 4219 
Q 1578 4219 1281 4162 
Q 984 4106 628 3988 
L 628 4550 
Q 988 4650 1302 4700 
Q 1616 4750 1894 4750 
Q 2613 4750 3031 4423 
Q 3450 4097 3450 3541 
Q 3450 3153 3228 2886 
Q 3006 2619 2597 2516 
z
" transform="scale(0.015625)"/>
       </defs>
       <use xlink:href="#DejaVuSans-33"/>
       <use xlink:href="#DejaVuSans-30" transform="translate(63.623047 0)"/>
       <use xlink:href="#DejaVuSans-30" transform="translate(127.246094 0)"/>
       <use xlink:href="#DejaVuSans-30" transform="translate(190.869141 0)"/>
       <use xlink:href="#DejaVuSans-30" transform="translate(254.492188 0)"/>
      </g>
     </g>
    </g>
    <g id="text_8">
     <!-- Episodes -->
     <g transform="translate(354.952993 418.316562) scale(0.1 -0.1)">
      <defs>
       <path id="DejaVuSans-45" d="M 628 4666 
L 3578 4666 
L 3578 4134 
L 1259 4134 
L 1259 2753 
L 3481 2753 
L 3481 2222 
L 1259 2222 
L 1259 531 
L 3634 531 
L 3634 0 
L 628 0 
L 628 4666 
z
" transform="scale(0.015625)"/>
       <path id="DejaVuSans-70" d="M 1159 525 
L 1159 -1331 
L 581 -1331 
L 581 3500 
L 1159 3500 
L 1159 2969 
Q 1341 3281 1617 3432 
Q 1894 3584 2278 3584 
Q 2916 3584 3314 3078 
Q 3713 2572 3713 1747 
Q 3713 922 3314 415 
Q 2916 -91 2278 -91 
Q 1894 -91 1617 61 
Q 1341 213 1159 525 
z
M 3116 1747 
Q 3116 2381 2855 2742 
Q 2594 3103 2138 3103 
Q 1681 3103 1420 2742 
Q 1159 2381 1159 1747 
Q 1159 1113 1420 752 
Q 1681 391 2138 391 
Q 2594 391 2855 752 
Q 3116 1113 3116 1747 
z
" transform="scale(0.015625)"/>
       <path id="DejaVuSans-69" d="M 603 3500 
L 1178 3500 
L 1178 0 
L 603 0 
L 603 3500 
z
M 603 4863 
L 1178 4863 
L 1178 4134 
L 603 4134 
L 603 4863 
z
" transform="scale(0.015625)"/>
       <path id="DejaVuSans-73" d="M 2834 3397 
L 2834 2853 
Q 2591 2978 2328 3040 
Q 2066 3103 1784 3103 
Q 1356 3103 1142 2972 
Q 928 2841 928 2578 
Q 928 2378 1081 2264 
Q 1234 2150 1697 2047 
L 1894 2003 
Q 2506 1872 2764 1633 
Q 3022 1394 3022 966 
Q 3022 478 2636 193 
Q 2250 -91 1575 -91 
Q 1294 -91 989 -36 
Q 684 19 347 128 
L 347 722 
Q 666 556 975 473 
Q 1284 391 1588 391 
Q 1994 391 2212 530 
Q 2431 669 2431 922 
Q 2431 1156 2273 1281 
Q 2116 1406 1581 1522 
L 1381 1569 
Q 847 1681 609 1914 
Q 372 2147 372 2553 
Q 372 3047 722 3315 
Q 1072 3584 1716 3584 
Q 2034 3584 2315 3537 
Q 2597 3491 2834 3397 
z
" transform="scale(0.015625)"/>
       <path id="DejaVuSans-6f" d="M 1959 3097 
Q 1497 3097 1228 2736 
Q 959 2375 959 1747 
Q 959 1119 1226 758 
Q 1494 397 1959 397 
Q 2419 397 2687 759 
Q 2956 1122 2956 1747 
Q 2956 2369 2687 2733 
Q 2419 3097 1959 3097 
z
M 1959 3584 
Q 2709 3584 3137 3096 
Q 3566 2609 3566 1747 
Q 3566 888 3137 398 
Q 2709 -91 1959 -91 
Q 1206 -91 779 398 
Q 353 888 353 1747 
Q 353 2609 779 3096 
Q 1206 3584 1959 3584 
z
" transform="scale(0.015625)"/>
       <path id="DejaVuSans-64" d="M 2906 2969 
L 2906 4863 
L 3481 4863 
L 3481 0 
L 2906 0 
L 2906 525 
Q 2725 213 2448 61 
Q 2172 -91 1784 -91 
Q 1150 -91 751 415 
Q 353 922 353 1747 
Q 353 2572 751 3078 
Q 1150 3584 1784 3584 
Q 2172 3584 2448 3432 
Q 2725 3281 2906 2969 
z
M 947 1747 
Q 947 1113 1208 752 
Q 1469 391 1925 391 
Q 2381 391 2643 752 
Q 2906 1113 2906 1747 
Q 2906 2381 2643 2742 
Q 2381 3103 1925 3103 
Q 1469 3103 1208 2742 
Q 947 2381 947 1747 
z
" transform="scale(0.015625)"/>
       <path id="DejaVuSans-65" d="M 3597 1894 
L 3597 1613 
L 953 1613 
Q 991 1019 1311 708 
Q 1631 397 2203 397 
Q 2534 397 2845 478 
Q 3156 559 3463 722 
L 3463 178 
Q 3153 47 2828 -22 
Q 2503 -91 2169 -91 
Q 1331 -91 842 396 
Q 353 884 353 1716 
Q 353 2575 817 3079 
Q 1281 3584 2069 3584 
Q 2775 3584 3186 3129 
Q 3597 2675 3597 1894 
z
M 3022 2063 
Q 3016 2534 2758 2815 
Q 2500 3097 2075 3097 
Q 1594 3097 1305 2825 
Q 1016 2553 972 2059 
L 3022 2063 
z
" transform="scale(0.015625)"/>
      </defs>
      <use xlink:href="#DejaVuSans-45"/>
      <use xlink:href="#DejaVuSans-70" transform="translate(63.183594 0)"/>
      <use xlink:href="#DejaVuSans-69" transform="translate(126.660156 0)"/>
      <use xlink:href="#DejaVuSans-73" transform="translate(154.443359 0)"/>
      <use xlink:href="#DejaVuSans-6f" transform="translate(206.542969 0)"/>
      <use xlink:href="#DejaVuSans-64" transform="translate(267.724609 0)"/>
      <use xlink:href="#DejaVuSans-65" transform="translate(331.201172 0)"/>
      <use xlink:href="#DejaVuSans-73" transform="translate(392.724609 0)"/>
     </g>
    </g>
   </g>
   <g id="matplotlib.axis_2">
    <g id="ytick_1">
     <g id="line2d_15">
      <path d="M 47.72 348.859581 
L 706.670361 348.859581 
" clip-path="url(#p7072f39e78)" style="fill: none; stroke: #b0b0b0; stroke-width: 0.8; stroke-linecap: square"/>
     </g>
     <g id="line2d_16">
      <defs>
       <path id="m079c4cbffc" d="M 0 0 
L -3.5 0 
" style="stroke: #000000; stroke-width: 0.8"/>
      </defs>
      <g>
       <use xlink:href="#m079c4cbffc" x="47.72" y="348.859581" style="stroke: #000000; stroke-width: 0.8"/>
      </g>
     </g>
     <g id="text_9">
      <!-- 1.5 -->
      <g transform="translate(24.816875 352.658799) scale(0.1 -0.1)">
       <defs>
        <path id="DejaVuSans-2e" d="M 684 794 
L 1344 794 
L 1344 0 
L 684 0 
L 684 794 
z
" transform="scale(0.015625)"/>
       </defs>
       <use xlink:href="#DejaVuSans-31"/>
       <use xlink:href="#DejaVuSans-2e" transform="translate(63.623047 0)"/>
       <use xlink:href="#DejaVuSans-35" transform="translate(95.410156 0)"/>
      </g>
     </g>
    </g>
    <g id="ytick_2">
     <g id="line2d_17">
      <path d="M 47.72 265.950321 
L 706.670361 265.950321 
" clip-path="url(#p7072f39e78)" style="fill: none; stroke: #b0b0b0; stroke-width: 0.8; stroke-linecap: square"/>
     </g>
     <g id="line2d_18">
      <g>
       <use xlink:href="#m079c4cbffc" x="47.72" y="265.950321" style="stroke: #000000; stroke-width: 0.8"/>
      </g>
     </g>
     <g id="text_10">
      <!-- 2.0 -->
      <g transform="translate(24.816875 269.74954) scale(0.1 -0.1)">
       <use xlink:href="#DejaVuSans-32"/>
       <use xlink:href="#DejaVuSans-2e" transform="translate(63.623047 0)"/>
       <use xlink:href="#DejaVuSans-30" transform="translate(95.410156 0)"/>
      </g>
     </g>
    </g>
    <g id="ytick_3">
     <g id="line2d_19">
      <path d="M 47.72 183.041061 
L 706.670361 183.041061 
" clip-path="url(#p7072f39e78)" style="fill: none; stroke: #b0b0b0; stroke-width: 0.8; stroke-linecap: square"/>
     </g>
     <g id="line2d_20">
      <g>
       <use xlink:href="#m079c4cbffc" x="47.72" y="183.041061" style="stroke: #000000; stroke-width: 0.8"/>
      </g>
     </g>
     <g id="text_11">
      <!-- 2.5 -->
      <g transform="translate(24.816875 186.84028) scale(0.1 -0.1)">
       <use xlink:href="#DejaVuSans-32"/>
       <use xlink:href="#DejaVuSans-2e" transform="translate(63.623047 0)"/>
       <use xlink:href="#DejaVuSans-35" transform="translate(95.410156 0)"/>
      </g>
     </g>
    </g>
    <g id="ytick_4">
     <g id="line2d_21">
      <path d="M 47.72 100.131802 
L 706.670361 100.131802 
" clip-path="url(#p7072f39e78)" style="fill: none; stroke: #b0b0b0; stroke-width: 0.8; stroke-linecap: square"/>
     </g>
     <g id="line2d_22">
      <g>
       <use xlink:href="#m079c4cbffc" x="47.72" y="100.131802" style="stroke: #000000; stroke-width: 0.8"/>
      </g>
     </g>
     <g id="text_12">
      <!-- 3.0 -->
      <g transform="translate(24.816875 103.931021) scale(0.1 -0.1)">
       <use xlink:href="#DejaVuSans-33"/>
       <use xlink:href="#DejaVuSans-2e" transform="translate(63.623047 0)"/>
       <use xlink:href="#DejaVuSans-30" transform="translate(95.410156 0)"/>
      </g>
     </g>
    </g>
    <g id="ytick_5">
     <g id="line2d_23">
      <path d="M 47.72 17.222542 
L 706.670361 17.222542 
" clip-path="url(#p7072f39e78)" style="fill: none; stroke: #b0b0b0; stroke-width: 0.8; stroke-linecap: square"/>
     </g>
     <g id="line2d_24">
      <g>
       <use xlink:href="#m079c4cbffc" x="47.72" y="17.222542" style="stroke: #000000; stroke-width: 0.8"/>
      </g>
     </g>
     <g id="text_13">
      <!-- 3.5 -->
      <g transform="translate(24.816875 21.021761) scale(0.1 -0.1)">
       <use xlink:href="#DejaVuSans-33"/>
       <use xlink:href="#DejaVuSans-2e" transform="translate(63.623047 0)"/>
       <use xlink:href="#DejaVuSans-35" transform="translate(95.410156 0)"/>
      </g>
     </g>
    </g>
    <g id="text_14">
     <!-- Circuit Depth -->
     <g transform="translate(18.737188 233.329375) rotate(-90) scale(0.1 -0.1)">
      <defs>
       <path id="DejaVuSans-43" d="M 4122 4306 
L 4122 3641 
Q 3803 3938 3442 4084 
Q 3081 4231 2675 4231 
Q 1875 4231 1450 3742 
Q 1025 3253 1025 2328 
Q 1025 1406 1450 917 
Q 1875 428 2675 428 
Q 3081 428 3442 575 
Q 3803 722 4122 1019 
L 4122 359 
Q 3791 134 3420 21 
Q 3050 -91 2638 -91 
Q 1578 -91 968 557 
Q 359 1206 359 2328 
Q 359 3453 968 4101 
Q 1578 4750 2638 4750 
Q 3056 4750 3426 4639 
Q 3797 4528 4122 4306 
z
" transform="scale(0.015625)"/>
       <path id="DejaVuSans-72" d="M 2631 2963 
Q 2534 3019 2420 3045 
Q 2306 3072 2169 3072 
Q 1681 3072 1420 2755 
Q 1159 2438 1159 1844 
L 1159 0 
L 581 0 
L 581 3500 
L 1159 3500 
L 1159 2956 
Q 1341 3275 1631 3429 
Q 1922 3584 2338 3584 
Q 2397 3584 2469 3576 
Q 2541 3569 2628 3553 
L 2631 2963 
z
" transform="scale(0.015625)"/>
       <path id="DejaVuSans-63" d="M 3122 3366 
L 3122 2828 
Q 2878 2963 2633 3030 
Q 2388 3097 2138 3097 
Q 1578 3097 1268 2742 
Q 959 2388 959 1747 
Q 959 1106 1268 751 
Q 1578 397 2138 397 
Q 2388 397 2633 464 
Q 2878 531 3122 666 
L 3122 134 
Q 2881 22 2623 -34 
Q 2366 -91 2075 -91 
Q 1284 -91 818 406 
Q 353 903 353 1747 
Q 353 2603 823 3093 
Q 1294 3584 2113 3584 
Q 2378 3584 2631 3529 
Q 2884 3475 3122 3366 
z
" transform="scale(0.015625)"/>
       <path id="DejaVuSans-75" d="M 544 1381 
L 544 3500 
L 1119 3500 
L 1119 1403 
Q 1119 906 1312 657 
Q 1506 409 1894 409 
Q 2359 409 2629 706 
Q 2900 1003 2900 1516 
L 2900 3500 
L 3475 3500 
L 3475 0 
L 2900 0 
L 2900 538 
Q 2691 219 2414 64 
Q 2138 -91 1772 -91 
Q 1169 -91 856 284 
Q 544 659 544 1381 
z
M 1991 3584 
L 1991 3584 
z
" transform="scale(0.015625)"/>
       <path id="DejaVuSans-74" d="M 1172 4494 
L 1172 3500 
L 2356 3500 
L 2356 3053 
L 1172 3053 
L 1172 1153 
Q 1172 725 1289 603 
Q 1406 481 1766 481 
L 2356 481 
L 2356 0 
L 1766 0 
Q 1100 0 847 248 
Q 594 497 594 1153 
L 594 3053 
L 172 3053 
L 172 3500 
L 594 3500 
L 594 4494 
L 1172 4494 
z
" transform="scale(0.015625)"/>
       <path id="DejaVuSans-20" transform="scale(0.015625)"/>
       <path id="DejaVuSans-44" d="M 1259 4147 
L 1259 519 
L 2022 519 
Q 2988 519 3436 956 
Q 3884 1394 3884 2338 
Q 3884 3275 3436 3711 
Q 2988 4147 2022 4147 
L 1259 4147 
z
M 628 4666 
L 1925 4666 
Q 3281 4666 3915 4102 
Q 4550 3538 4550 2338 
Q 4550 1131 3912 565 
Q 3275 0 1925 0 
L 628 0 
L 628 4666 
z
" transform="scale(0.015625)"/>
       <path id="DejaVuSans-68" d="M 3513 2113 
L 3513 0 
L 2938 0 
L 2938 2094 
Q 2938 2591 2744 2837 
Q 2550 3084 2163 3084 
Q 1697 3084 1428 2787 
Q 1159 2491 1159 1978 
L 1159 0 
L 581 0 
L 581 4863 
L 1159 4863 
L 1159 2956 
Q 1366 3272 1645 3428 
Q 1925 3584 2291 3584 
Q 2894 3584 3203 3211 
Q 3513 2838 3513 2113 
z
" transform="scale(0.015625)"/>
      </defs>
      <use xlink:href="#DejaVuSans-43"/>
      <use xlink:href="#DejaVuSans-69" transform="translate(69.824219 0)"/>
      <use xlink:href="#DejaVuSans-72" transform="translate(97.607422 0)"/>
      <use xlink:href="#DejaVuSans-63" transform="translate(136.470703 0)"/>
      <use xlink:href="#DejaVuSans-75" transform="translate(191.451172 0)"/>
      <use xlink:href="#DejaVuSans-69" transform="translate(254.830078 0)"/>
      <use xlink:href="#DejaVuSans-74" transform="translate(282.613281 0)"/>
      <use xlink:href="#DejaVuSans-20" transform="translate(321.822266 0)"/>
      <use xlink:href="#DejaVuSans-44" transform="translate(353.609375 0)"/>
      <use xlink:href="#DejaVuSans-65" transform="translate(430.611328 0)"/>
      <use xlink:href="#DejaVuSans-70" transform="translate(492.134766 0)"/>
      <use xlink:href="#DejaVuSans-74" transform="translate(555.611328 0)"/>
      <use xlink:href="#DejaVuSans-68" transform="translate(594.820312 0)"/>
     </g>
    </g>
   </g>
   <g id="line2d_25">
    <path d="M 77.672289 210.124753 
L 81.775342 206.255654 
L 85.878396 211.506574 
L 89.981449 193.542901 
L 94.084502 212.612031 
L 98.187556 207.913839 
L 102.290609 219.521136 
L 106.393662 213.717487 
L 110.496716 218.692043 
L 114.599769 207.084747 
L 118.702822 203.215648 
L 122.805876 200.175642 
L 126.908929 210.124753 
L 131.011982 218.139315 
L 135.115035 205.702926 
L 139.218089 195.753815 
L 143.321142 222.837506 
L 147.424195 201.004734 
L 151.527249 202.66292 
L 155.630302 208.190204 
L 159.733355 202.939284 
L 163.836409 199.622913 
L 167.939462 199.346549 
L 172.042515 201.833827 
L 176.145569 205.426562 
L 180.248622 205.150197 
L 184.351675 220.350228 
L 188.454728 194.095629 
L 192.557782 200.72837 
L 196.660835 193.819265 
L 200.763888 210.953846 
L 204.866942 211.782938 
L 208.969995 211.23021 
L 213.073048 217.310222 
L 217.176102 211.23021 
L 221.279155 205.97929 
L 225.382208 218.968407 
L 229.485262 210.677481 
L 233.588315 191.331987 
L 237.691368 197.688364 
L 241.794421 196.306543 
L 245.897475 218.968407 
L 250.000528 207.084747 
L 254.103581 189.950166 
L 258.206635 205.97929 
L 262.309688 213.993852 
L 266.412741 211.506574 
L 270.515795 199.622913 
L 274.618848 209.019296 
L 278.721901 210.953846 
L 282.824955 203.492012 
L 286.928008 209.019296 
L 291.031061 212.612031 
L 295.134114 202.386555 
L 299.237168 208.742932 
L 303.340221 209.572025 
L 307.443274 204.044741 
L 311.546328 213.993852 
L 315.649381 198.517457 
L 319.752434 199.622913 
L 323.855488 197.964728 
L 327.958541 219.244771 
L 332.061594 213.441123 
L 336.164648 205.97929 
L 340.267701 203.215648 
L 344.370754 195.753815 
L 348.473807 206.255654 
L 352.576861 197.688364 
L 356.679914 212.888395 
L 360.782967 188.84471 
L 364.886021 211.506574 
L 368.989074 215.928401 
L 373.092127 208.190204 
L 377.195181 214.822944 
L 381.298234 206.255654 
L 385.401287 204.321105 
L 389.50434 220.073864 
L 393.607394 215.375673 
L 397.710447 201.281099 
L 401.8135 197.412 
L 405.916554 202.386555 
L 410.019607 210.953846 
L 414.12266 209.572025 
L 418.225714 196.306543 
L 422.328767 209.29566 
L 426.43182 216.204765 
L 430.534874 215.652037 
L 434.637927 205.702926 
L 438.74098 197.688364 
L 442.844033 217.86295 
L 446.947087 211.506574 
L 451.05014 213.993852 
L 455.153193 202.66292 
L 459.256247 206.808383 
L 463.3593 204.597469 
L 467.462353 215.375673 
L 471.565407 204.873833 
L 475.66846 198.241092 
L 479.771513 201.833827 
L 483.874567 211.782938 
L 487.97762 202.939284 
L 492.080673 212.335666 
L 496.183726 218.415679 
L 500.28678 190.502895 
L 504.389833 213.164759 
L 508.492886 211.23021 
L 512.59594 199.622913 
L 516.698993 220.350228 
L 520.802046 200.175642 
L 524.9051 214.822944 
L 529.008153 209.848389 
L 533.111206 194.648358 
L 537.21426 189.673802 
L 541.317313 199.070185 
L 545.420366 200.452006 
L 549.523419 208.190204 
L 553.626473 179.171963 
L 557.729526 196.306543 
L 561.832579 202.939284 
L 565.935633 213.717487 
L 570.038686 208.466568 
L 574.141739 214.54658 
L 578.244793 202.939284 
L 582.347846 208.742932 
L 586.450899 206.532018 
L 590.553953 219.521136 
L 594.657006 204.873833 
L 598.760059 210.953846 
L 602.863112 199.622913 
L 606.966166 208.190204 
L 611.069219 217.033858 
L 615.172272 212.335666 
L 619.275326 200.72837 
L 623.378379 222.837506 
L 627.481432 216.757494 
L 631.584486 212.335666 
L 635.687539 209.019296 
L 639.790592 204.597469 
L 643.893646 213.717487 
L 647.996699 208.742932 
L 652.099752 208.466568 
L 656.202805 204.873833 
L 660.305859 223.390234 
L 664.408912 212.888395 
L 668.511965 204.873833 
L 672.615019 193.542901 
L 676.718072 223.666599 
L 676.718072 223.666599 
" clip-path="url(#p7072f39e78)" style="fill: none; stroke: #1f77b4; stroke-width: 1.5; stroke-linecap: square"/>
   </g>
   <g id="patch_3">
    <path d="M 47.72 390.04 
L 47.72 10.8 
" style="fill: none; stroke: #000000; stroke-width: 0.8; stroke-linejoin: miter; stroke-linecap: square"/>
   </g>
   <g id="patch_4">
    <path d="M 706.670361 390.04 
L 706.670361 10.8 
" style="fill: none; stroke: #000000; stroke-width: 0.8; stroke-linejoin: miter; stroke-linecap: square"/>
   </g>
   <g id="patch_5">
    <path d="M 47.72 390.04 
L 706.670361 390.04 
" style="fill: none; stroke: #000000; stroke-width: 0.8; stroke-linejoin: miter; stroke-linecap: square"/>
   </g>
   <g id="patch_6">
    <path d="M 47.72 10.8 
L 706.670361 10.8 
" style="fill: none; stroke: #000000; stroke-width: 0.8; stroke-linejoin: miter; stroke-linecap: square"/>
   </g>
  </g>
 </g>
 <defs>
  <clipPath id="p7072f39e78">
   <rect x="47.72" y="10.8" width="658.950361" height="379.24"/>
  </clipPath>
 </defs>
</svg>
