<?xml version="1.0" encoding="utf-8" standalone="no"?>
<!DOCTYPE svg PUBLIC "-//W3C//DTD SVG 1.1//EN"
  "http://www.w3.org/Graphics/SVG/1.1/DTD/svg11.dtd">
<svg xmlns:xlink="http://www.w3.org/1999/xlink" width="720pt" height="432pt" viewBox="0 0 720 432" xmlns="http://www.w3.org/2000/svg" version="1.1">
 <metadata>
  <rdf:RDF xmlns:dc="http://purl.org/dc/elements/1.1/" xmlns:cc="http://creativecommons.org/ns#" xmlns:rdf="http://www.w3.org/1999/02/22-rdf-syntax-ns#">
   <cc:Work>
    <dc:type rdf:resource="http://purl.org/dc/dcmitype/StillImage"/>
    <dc:date>2025-04-15T22:44:46.652566</dc:date>
    <dc:format>image/svg+xml</dc:format>
    <dc:creator>
     <cc:Agent>
      <dc:title>Matplotlib v3.10.0, https://matplotlib.org/</dc:title>
     </cc:Agent>
    </dc:creator>
   </cc:Work>
  </rdf:RDF>
 </metadata>
 <defs>
  <style type="text/css">*{stroke-linejoin: round; stroke-linecap: butt}</style>
 </defs>
 <g id="figure_1">
  <g id="patch_1">
   <path d="M 0 432 
L 720 432 
L 720 0 
L 0 0 
z
" style="fill: #ffffff"/>
  </g>
  <g id="axes_1">
   <g id="patch_2">
    <path d="M 54.02 390.04 
L 706.670361 390.04 
L 706.670361 10.8 
L 54.02 10.8 
z
" style="fill: #ffffff"/>
   </g>
   <g id="FillBetweenPolyCollection_1">
    <path d="M 83.685926 45.912603 
L 83.685926 347.785657 
L 87.749751 364.873822 
L 91.813576 345.130301 
L 95.877402 355.234907 
L 99.941227 351.475891 
L 104.005053 353.93871 
L 108.068878 362.477712 
L 112.132703 336.876171 
L 116.196529 359.738828 
L 120.260354 369.501204 
L 124.32418 336.307171 
L 128.388005 356.449211 
L 132.45183 346.726591 
L 136.515656 344.96933 
L 140.579481 354.010494 
L 144.643307 352.158012 
L 148.707132 354.279824 
L 152.770958 364.556708 
L 156.834783 332.563903 
L 160.898608 354.96069 
L 164.962434 325.045557 
L 169.026259 368.014124 
L 173.090085 364.547119 
L 177.15391 341.854349 
L 181.217735 355.858464 
L 185.281561 353.341971 
L 189.345386 345.199274 
L 193.409212 354.846865 
L 197.473037 363.763736 
L 201.536862 347.347248 
L 205.600688 351.129077 
L 209.664513 335.803023 
L 213.728339 327.080769 
L 217.792164 364.061202 
L 221.85599 352.248904 
L 225.919815 351.734098 
L 229.98364 365.095789 
L 234.047466 342.161491 
L 238.111291 360.913892 
L 242.175117 343.040386 
L 246.238942 362.179169 
L 250.302767 358.621755 
L 254.366593 344.76904 
L 258.430418 356.636671 
L 262.494244 348.61741 
L 266.558069 351.951075 
L 270.621894 356.160105 
L 274.68572 343.004491 
L 278.749545 346.5325 
L 282.813371 342.200928 
L 286.877196 351.038048 
L 290.941022 359.335723 
L 295.004847 354.505925 
L 299.068672 354.124485 
L 303.132498 358.479195 
L 307.196323 353.748128 
L 311.260149 337.082824 
L 315.323974 342.948681 
L 319.387799 358.703599 
L 323.451625 357.591334 
L 327.51545 348.272955 
L 331.579276 336.724932 
L 335.643101 353.417243 
L 339.706926 351.059091 
L 343.770752 350.850781 
L 347.834577 340.162665 
L 351.898403 351.353526 
L 355.962228 336.175653 
L 360.026054 369.129488 
L 364.089879 353.408743 
L 368.153704 363.881026 
L 372.21753 348.115945 
L 376.281355 344.454836 
L 380.345181 355.884914 
L 384.409006 340.517996 
L 388.472831 350.377715 
L 392.536657 330.378416 
L 396.600482 355.07985 
L 400.664308 353.048773 
L 404.728133 324.269938 
L 408.791958 357.960811 
L 412.855784 357.923383 
L 416.919609 348.907167 
L 420.983435 355.320309 
L 425.04726 331.905847 
L 429.111086 339.965097 
L 433.174911 362.396424 
L 437.238736 346.319307 
L 441.302562 342.940079 
L 445.366387 327.587397 
L 449.430213 359.95226 
L 453.494038 342.168138 
L 457.557863 355.758044 
L 461.621689 357.945113 
L 465.685514 346.409667 
L 469.74934 352.146258 
L 473.813165 368.043228 
L 477.87699 361.439299 
L 481.940816 352.112402 
L 486.004641 318.806756 
L 490.068467 348.588082 
L 494.132292 363.030079 
L 498.196118 345.053195 
L 502.259943 344.177072 
L 506.323768 340.251607 
L 510.387594 341.04144 
L 514.451419 347.994061 
L 518.515245 333.666357 
L 522.57907 321.917292 
L 526.642895 345.885179 
L 530.706721 352.37643 
L 534.770546 360.671453 
L 538.834372 337.986909 
L 542.898197 341.946717 
L 546.962022 356.005417 
L 551.025848 337.928882 
L 555.089673 362.446018 
L 559.153499 361.76014 
L 563.217324 369.704943 
L 567.28115 351.546601 
L 571.344975 355.414749 
L 575.4088 356.765007 
L 579.472626 352.224473 
L 583.536451 356.694628 
L 587.600277 351.912806 
L 591.664102 345.728024 
L 595.727927 361.740748 
L 599.791753 356.360331 
L 603.855578 352.031817 
L 607.919404 366.171682 
L 611.983229 344.213607 
L 616.047054 336.035298 
L 620.11088 337.623956 
L 624.174705 366.635864 
L 628.238531 366.10614 
L 632.302356 345.014286 
L 636.366182 353.786369 
L 640.430007 359.394296 
L 644.493832 363.308781 
L 648.557658 338.40625 
L 652.621483 357.330414 
L 656.685309 351.784748 
L 660.749134 339.391082 
L 664.812959 358.196783 
L 668.876785 358.551199 
L 672.94061 372.801818 
L 677.004436 348.137411 
L 677.004436 76.600401 
L 677.004436 76.600401 
L 672.94061 53.71772 
L 668.876785 56.15268 
L 664.812959 46.754488 
L 660.749134 55.057379 
L 656.685309 70.327361 
L 652.621483 45.464028 
L 648.557658 49.102855 
L 644.493832 51.488872 
L 640.430007 55.215807 
L 636.366182 55.009678 
L 632.302356 43.995221 
L 628.238531 54.036693 
L 624.174705 59.508574 
L 620.11088 47.353222 
L 616.047054 63.101918 
L 611.983229 46.014976 
L 607.919404 68.975163 
L 603.855578 53.388328 
L 599.791753 59.937723 
L 595.727927 65.15389 
L 591.664102 46.56361 
L 587.600277 80.795888 
L 583.536451 49.663269 
L 579.472626 56.4778 
L 575.4088 67.972805 
L 571.344975 61.727282 
L 567.28115 55.373946 
L 563.217324 43.592308 
L 559.153499 49.755385 
L 555.089673 51.413885 
L 551.025848 48.267372 
L 546.962022 59.636211 
L 542.898197 45.843713 
L 538.834372 49.05332 
L 534.770546 69.880414 
L 530.706721 57.544918 
L 526.642895 70.787976 
L 522.57907 34.458486 
L 518.515245 33.212232 
L 514.451419 43.641147 
L 510.387594 55.470073 
L 506.323768 59.635809 
L 502.259943 34.798499 
L 498.196118 53.615144 
L 494.132292 72.679416 
L 490.068467 55.988087 
L 486.004641 47.790506 
L 481.940816 53.964169 
L 477.87699 66.299316 
L 473.813165 59.882936 
L 469.74934 65.745973 
L 465.685514 30.315304 
L 461.621689 62.103944 
L 457.557863 71.793019 
L 453.494038 56.687752 
L 449.430213 57.658646 
L 445.366387 28.038182 
L 441.302562 33.222242 
L 437.238736 52.442808 
L 433.174911 54.839381 
L 429.111086 61.516496 
L 425.04726 53.071332 
L 420.983435 53.288189 
L 416.919609 63.921209 
L 412.855784 52.935717 
L 408.791958 61.713146 
L 404.728133 51.611056 
L 400.664308 53.402899 
L 396.600482 48.839895 
L 392.536657 49.253583 
L 388.472831 45.008497 
L 384.409006 59.932069 
L 380.345181 65.852096 
L 376.281355 58.433381 
L 372.21753 55.334924 
L 368.153704 58.418634 
L 364.089879 56.981481 
L 360.026054 58.890451 
L 355.962228 46.926022 
L 351.898403 52.753769 
L 347.834577 56.723946 
L 343.770752 70.792453 
L 339.706926 65.895388 
L 335.643101 62.880811 
L 331.579276 33.060683 
L 327.51545 54.802814 
L 323.451625 47.547486 
L 319.387799 61.908107 
L 315.323974 75.1311 
L 311.260149 53.989734 
L 307.196323 43.04471 
L 303.132498 66.446166 
L 299.068672 40.699077 
L 295.004847 51.570646 
L 290.941022 63.995462 
L 286.877196 67.698158 
L 282.813371 54.96701 
L 278.749545 53.167364 
L 274.68572 41.034937 
L 270.621894 55.449195 
L 266.558069 52.90642 
L 262.494244 55.208559 
L 258.430418 69.976641 
L 254.366593 66.746485 
L 250.302767 57.11365 
L 246.238942 51.493184 
L 242.175117 65.474337 
L 238.111291 64.480345 
L 234.047466 32.125328 
L 229.98364 57.110096 
L 225.919815 50.96657 
L 221.85599 57.297345 
L 217.792164 55.612755 
L 213.728339 45.142998 
L 209.664513 59.864514 
L 205.600688 70.326608 
L 201.536862 72.139158 
L 197.473037 60.411424 
L 193.409212 63.514242 
L 189.345386 51.312238 
L 185.281561 43.638418 
L 181.217735 54.344211 
L 177.15391 59.627243 
L 173.090085 56.62724 
L 169.026259 45.845779 
L 164.962434 45.865359 
L 160.898608 60.305839 
L 156.834783 31.313881 
L 152.770958 52.679097 
L 148.707132 49.733696 
L 144.643307 41.352698 
L 140.579481 84.699804 
L 136.515656 64.389369 
L 132.45183 57.005604 
L 128.388005 57.223142 
L 124.32418 66.768598 
L 120.260354 68.177569 
L 116.196529 56.840551 
L 112.132703 60.573092 
L 108.068878 54.664319 
L 104.005053 61.234044 
L 99.941227 53.475379 
L 95.877402 66.970977 
L 91.813576 68.635826 
L 87.749751 50.205157 
L 83.685926 45.912603 
z
" clip-path="url(#p19b9bb687b)" style="fill: #1f77b4; fill-opacity: 0.2"/>
   </g>
   <g id="matplotlib.axis_1">
    <g id="xtick_1">
     <g id="line2d_1">
      <path d="M 81.633694 390.04 
L 81.633694 10.8 
" clip-path="url(#p19b9bb687b)" style="fill: none; stroke: #b0b0b0; stroke-width: 0.8; stroke-linecap: square"/>
     </g>
     <g id="line2d_2">
      <defs>
       <path id="m1ae806c633" d="M 0 0 
L 0 3.5 
" style="stroke: #000000; stroke-width: 0.8"/>
      </defs>
      <g>
       <use xlink:href="#m1ae806c633" x="81.633694" y="390.04" style="stroke: #000000; stroke-width: 0.8"/>
      </g>
     </g>
     <g id="text_1">
      <!-- 0 -->
      <g transform="translate(78.452444 404.638438) scale(0.1 -0.1)">
       <defs>
        <path id="DejaVuSans-30" d="M 2034 4250 
Q 1547 4250 1301 3770 
Q 1056 3291 1056 2328 
Q 1056 1369 1301 889 
Q 1547 409 2034 409 
Q 2525 409 2770 889 
Q 3016 1369 3016 2328 
Q 3016 3291 2770 3770 
Q 2525 4250 2034 4250 
z
M 2034 4750 
Q 2819 4750 3233 4129 
Q 3647 3509 3647 2328 
Q 3647 1150 3233 529 
Q 2819 -91 2034 -91 
Q 1250 -91 836 529 
Q 422 1150 422 2328 
Q 422 3509 836 4129 
Q 1250 4750 2034 4750 
z
" transform="scale(0.015625)"/>
       </defs>
       <use xlink:href="#DejaVuSans-30"/>
      </g>
     </g>
    </g>
    <g id="xtick_2">
     <g id="line2d_3">
      <path d="M 183.229329 390.04 
L 183.229329 10.8 
" clip-path="url(#p19b9bb687b)" style="fill: none; stroke: #b0b0b0; stroke-width: 0.8; stroke-linecap: square"/>
     </g>
     <g id="line2d_4">
      <g>
       <use xlink:href="#m1ae806c633" x="183.229329" y="390.04" style="stroke: #000000; stroke-width: 0.8"/>
      </g>
     </g>
     <g id="text_2">
      <!-- 5000 -->
      <g transform="translate(170.504329 404.638438) scale(0.1 -0.1)">
       <defs>
        <path id="DejaVuSans-35" d="M 691 4666 
L 3169 4666 
L 3169 4134 
L 1269 4134 
L 1269 2991 
Q 1406 3038 1543 3061 
Q 1681 3084 1819 3084 
Q 2600 3084 3056 2656 
Q 3513 2228 3513 1497 
Q 3513 744 3044 326 
Q 2575 -91 1722 -91 
Q 1428 -91 1123 -41 
Q 819 9 494 109 
L 494 744 
Q 775 591 1075 516 
Q 1375 441 1709 441 
Q 2250 441 2565 725 
Q 2881 1009 2881 1497 
Q 2881 1984 2565 2268 
Q 2250 2553 1709 2553 
Q 1456 2553 1204 2497 
Q 953 2441 691 2322 
L 691 4666 
z
" transform="scale(0.015625)"/>
       </defs>
       <use xlink:href="#DejaVuSans-35"/>
       <use xlink:href="#DejaVuSans-30" transform="translate(63.623047 0)"/>
       <use xlink:href="#DejaVuSans-30" transform="translate(127.246094 0)"/>
       <use xlink:href="#DejaVuSans-30" transform="translate(190.869141 0)"/>
      </g>
     </g>
    </g>
    <g id="xtick_3">
     <g id="line2d_5">
      <path d="M 284.824964 390.04 
L 284.824964 10.8 
" clip-path="url(#p19b9bb687b)" style="fill: none; stroke: #b0b0b0; stroke-width: 0.8; stroke-linecap: square"/>
     </g>
     <g id="line2d_6">
      <g>
       <use xlink:href="#m1ae806c633" x="284.824964" y="390.04" style="stroke: #000000; stroke-width: 0.8"/>
      </g>
     </g>
     <g id="text_3">
      <!-- 10000 -->
      <g transform="translate(268.918714 404.638438) scale(0.1 -0.1)">
       <defs>
        <path id="DejaVuSans-31" d="M 794 531 
L 1825 531 
L 1825 4091 
L 703 3866 
L 703 4441 
L 1819 4666 
L 2450 4666 
L 2450 531 
L 3481 531 
L 3481 0 
L 794 0 
L 794 531 
z
" transform="scale(0.015625)"/>
       </defs>
       <use xlink:href="#DejaVuSans-31"/>
       <use xlink:href="#DejaVuSans-30" transform="translate(63.623047 0)"/>
       <use xlink:href="#DejaVuSans-30" transform="translate(127.246094 0)"/>
       <use xlink:href="#DejaVuSans-30" transform="translate(190.869141 0)"/>
       <use xlink:href="#DejaVuSans-30" transform="translate(254.492188 0)"/>
      </g>
     </g>
    </g>
    <g id="xtick_4">
     <g id="line2d_7">
      <path d="M 386.4206 390.04 
L 386.4206 10.8 
" clip-path="url(#p19b9bb687b)" style="fill: none; stroke: #b0b0b0; stroke-width: 0.8; stroke-linecap: square"/>
     </g>
     <g id="line2d_8">
      <g>
       <use xlink:href="#m1ae806c633" x="386.4206" y="390.04" style="stroke: #000000; stroke-width: 0.8"/>
      </g>
     </g>
     <g id="text_4">
      <!-- 15000 -->
      <g transform="translate(370.51435 404.638438) scale(0.1 -0.1)">
       <use xlink:href="#DejaVuSans-31"/>
       <use xlink:href="#DejaVuSans-35" transform="translate(63.623047 0)"/>
       <use xlink:href="#DejaVuSans-30" transform="translate(127.246094 0)"/>
       <use xlink:href="#DejaVuSans-30" transform="translate(190.869141 0)"/>
       <use xlink:href="#DejaVuSans-30" transform="translate(254.492188 0)"/>
      </g>
     </g>
    </g>
    <g id="xtick_5">
     <g id="line2d_9">
      <path d="M 488.016235 390.04 
L 488.016235 10.8 
" clip-path="url(#p19b9bb687b)" style="fill: none; stroke: #b0b0b0; stroke-width: 0.8; stroke-linecap: square"/>
     </g>
     <g id="line2d_10">
      <g>
       <use xlink:href="#m1ae806c633" x="488.016235" y="390.04" style="stroke: #000000; stroke-width: 0.8"/>
      </g>
     </g>
     <g id="text_5">
      <!-- 20000 -->
      <g transform="translate(472.109985 404.638438) scale(0.1 -0.1)">
       <defs>
        <path id="DejaVuSans-32" d="M 1228 531 
L 3431 531 
L 3431 0 
L 469 0 
L 469 531 
Q 828 903 1448 1529 
Q 2069 2156 2228 2338 
Q 2531 2678 2651 2914 
Q 2772 3150 2772 3378 
Q 2772 3750 2511 3984 
Q 2250 4219 1831 4219 
Q 1534 4219 1204 4116 
Q 875 4013 500 3803 
L 500 4441 
Q 881 4594 1212 4672 
Q 1544 4750 1819 4750 
Q 2544 4750 2975 4387 
Q 3406 4025 3406 3419 
Q 3406 3131 3298 2873 
Q 3191 2616 2906 2266 
Q 2828 2175 2409 1742 
Q 1991 1309 1228 531 
z
" transform="scale(0.015625)"/>
       </defs>
       <use xlink:href="#DejaVuSans-32"/>
       <use xlink:href="#DejaVuSans-30" transform="translate(63.623047 0)"/>
       <use xlink:href="#DejaVuSans-30" transform="translate(127.246094 0)"/>
       <use xlink:href="#DejaVuSans-30" transform="translate(190.869141 0)"/>
       <use xlink:href="#DejaVuSans-30" transform="translate(254.492188 0)"/>
      </g>
     </g>
    </g>
    <g id="xtick_6">
     <g id="line2d_11">
      <path d="M 589.61187 390.04 
L 589.61187 10.8 
" clip-path="url(#p19b9bb687b)" style="fill: none; stroke: #b0b0b0; stroke-width: 0.8; stroke-linecap: square"/>
     </g>
     <g id="line2d_12">
      <g>
       <use xlink:href="#m1ae806c633" x="589.61187" y="390.04" style="stroke: #000000; stroke-width: 0.8"/>
      </g>
     </g>
     <g id="text_6">
      <!-- 25000 -->
      <g transform="translate(573.70562 404.638438) scale(0.1 -0.1)">
       <use xlink:href="#DejaVuSans-32"/>
       <use xlink:href="#DejaVuSans-35" transform="translate(63.623047 0)"/>
       <use xlink:href="#DejaVuSans-30" transform="translate(127.246094 0)"/>
       <use xlink:href="#DejaVuSans-30" transform="translate(190.869141 0)"/>
       <use xlink:href="#DejaVuSans-30" transform="translate(254.492188 0)"/>
      </g>
     </g>
    </g>
    <g id="xtick_7">
     <g id="line2d_13">
      <path d="M 691.207505 390.04 
L 691.207505 10.8 
" clip-path="url(#p19b9bb687b)" style="fill: none; stroke: #b0b0b0; stroke-width: 0.8; stroke-linecap: square"/>
     </g>
     <g id="line2d_14">
      <g>
       <use xlink:href="#m1ae806c633" x="691.207505" y="390.04" style="stroke: #000000; stroke-width: 0.8"/>
      </g>
     </g>
     <g id="text_7">
      <!-- 30000 -->
      <g transform="translate(675.301255 404.638438) scale(0.1 -0.1)">
       <defs>
        <path id="DejaVuSans-33" d="M 2597 2516 
Q 3050 2419 3304 2112 
Q 3559 1806 3559 1356 
Q 3559 666 3084 287 
Q 2609 -91 1734 -91 
Q 1441 -91 1130 -33 
Q 819 25 488 141 
L 488 750 
Q 750 597 1062 519 
Q 1375 441 1716 441 
Q 2309 441 2620 675 
Q 2931 909 2931 1356 
Q 2931 1769 2642 2001 
Q 2353 2234 1838 2234 
L 1294 2234 
L 1294 2753 
L 1863 2753 
Q 2328 2753 2575 2939 
Q 2822 3125 2822 3475 
Q 2822 3834 2567 4026 
Q 2313 4219 1838 4219 
Q 1578 4219 1281 4162 
Q 984 4106 628 3988 
L 628 4550 
Q 988 4650 1302 4700 
Q 1616 4750 1894 4750 
Q 2613 4750 3031 4423 
Q 3450 4097 3450 3541 
Q 3450 3153 3228 2886 
Q 3006 2619 2597 2516 
z
" transform="scale(0.015625)"/>
       </defs>
       <use xlink:href="#DejaVuSans-33"/>
       <use xlink:href="#DejaVuSans-30" transform="translate(63.623047 0)"/>
       <use xlink:href="#DejaVuSans-30" transform="translate(127.246094 0)"/>
       <use xlink:href="#DejaVuSans-30" transform="translate(190.869141 0)"/>
       <use xlink:href="#DejaVuSans-30" transform="translate(254.492188 0)"/>
      </g>
     </g>
    </g>
    <g id="text_8">
     <!-- Episodes -->
     <g transform="translate(358.102993 418.316562) scale(0.1 -0.1)">
      <defs>
       <path id="DejaVuSans-45" d="M 628 4666 
L 3578 4666 
L 3578 4134 
L 1259 4134 
L 1259 2753 
L 3481 2753 
L 3481 2222 
L 1259 2222 
L 1259 531 
L 3634 531 
L 3634 0 
L 628 0 
L 628 4666 
z
" transform="scale(0.015625)"/>
       <path id="DejaVuSans-70" d="M 1159 525 
L 1159 -1331 
L 581 -1331 
L 581 3500 
L 1159 3500 
L 1159 2969 
Q 1341 3281 1617 3432 
Q 1894 3584 2278 3584 
Q 2916 3584 3314 3078 
Q 3713 2572 3713 1747 
Q 3713 922 3314 415 
Q 2916 -91 2278 -91 
Q 1894 -91 1617 61 
Q 1341 213 1159 525 
z
M 3116 1747 
Q 3116 2381 2855 2742 
Q 2594 3103 2138 3103 
Q 1681 3103 1420 2742 
Q 1159 2381 1159 1747 
Q 1159 1113 1420 752 
Q 1681 391 2138 391 
Q 2594 391 2855 752 
Q 3116 1113 3116 1747 
z
" transform="scale(0.015625)"/>
       <path id="DejaVuSans-69" d="M 603 3500 
L 1178 3500 
L 1178 0 
L 603 0 
L 603 3500 
z
M 603 4863 
L 1178 4863 
L 1178 4134 
L 603 4134 
L 603 4863 
z
" transform="scale(0.015625)"/>
       <path id="DejaVuSans-73" d="M 2834 3397 
L 2834 2853 
Q 2591 2978 2328 3040 
Q 2066 3103 1784 3103 
Q 1356 3103 1142 2972 
Q 928 2841 928 2578 
Q 928 2378 1081 2264 
Q 1234 2150 1697 2047 
L 1894 2003 
Q 2506 1872 2764 1633 
Q 3022 1394 3022 966 
Q 3022 478 2636 193 
Q 2250 -91 1575 -91 
Q 1294 -91 989 -36 
Q 684 19 347 128 
L 347 722 
Q 666 556 975 473 
Q 1284 391 1588 391 
Q 1994 391 2212 530 
Q 2431 669 2431 922 
Q 2431 1156 2273 1281 
Q 2116 1406 1581 1522 
L 1381 1569 
Q 847 1681 609 1914 
Q 372 2147 372 2553 
Q 372 3047 722 3315 
Q 1072 3584 1716 3584 
Q 2034 3584 2315 3537 
Q 2597 3491 2834 3397 
z
" transform="scale(0.015625)"/>
       <path id="DejaVuSans-6f" d="M 1959 3097 
Q 1497 3097 1228 2736 
Q 959 2375 959 1747 
Q 959 1119 1226 758 
Q 1494 397 1959 397 
Q 2419 397 2687 759 
Q 2956 1122 2956 1747 
Q 2956 2369 2687 2733 
Q 2419 3097 1959 3097 
z
M 1959 3584 
Q 2709 3584 3137 3096 
Q 3566 2609 3566 1747 
Q 3566 888 3137 398 
Q 2709 -91 1959 -91 
Q 1206 -91 779 398 
Q 353 888 353 1747 
Q 353 2609 779 3096 
Q 1206 3584 1959 3584 
z
" transform="scale(0.015625)"/>
       <path id="DejaVuSans-64" d="M 2906 2969 
L 2906 4863 
L 3481 4863 
L 3481 0 
L 2906 0 
L 2906 525 
Q 2725 213 2448 61 
Q 2172 -91 1784 -91 
Q 1150 -91 751 415 
Q 353 922 353 1747 
Q 353 2572 751 3078 
Q 1150 3584 1784 3584 
Q 2172 3584 2448 3432 
Q 2725 3281 2906 2969 
z
M 947 1747 
Q 947 1113 1208 752 
Q 1469 391 1925 391 
Q 2381 391 2643 752 
Q 2906 1113 2906 1747 
Q 2906 2381 2643 2742 
Q 2381 3103 1925 3103 
Q 1469 3103 1208 2742 
Q 947 2381 947 1747 
z
" transform="scale(0.015625)"/>
       <path id="DejaVuSans-65" d="M 3597 1894 
L 3597 1613 
L 953 1613 
Q 991 1019 1311 708 
Q 1631 397 2203 397 
Q 2534 397 2845 478 
Q 3156 559 3463 722 
L 3463 178 
Q 3153 47 2828 -22 
Q 2503 -91 2169 -91 
Q 1331 -91 842 396 
Q 353 884 353 1716 
Q 353 2575 817 3079 
Q 1281 3584 2069 3584 
Q 2775 3584 3186 3129 
Q 3597 2675 3597 1894 
z
M 3022 2063 
Q 3016 2534 2758 2815 
Q 2500 3097 2075 3097 
Q 1594 3097 1305 2825 
Q 1016 2553 972 2059 
L 3022 2063 
z
" transform="scale(0.015625)"/>
      </defs>
      <use xlink:href="#DejaVuSans-45"/>
      <use xlink:href="#DejaVuSans-70" transform="translate(63.183594 0)"/>
      <use xlink:href="#DejaVuSans-69" transform="translate(126.660156 0)"/>
      <use xlink:href="#DejaVuSans-73" transform="translate(154.443359 0)"/>
      <use xlink:href="#DejaVuSans-6f" transform="translate(206.542969 0)"/>
      <use xlink:href="#DejaVuSans-64" transform="translate(267.724609 0)"/>
      <use xlink:href="#DejaVuSans-65" transform="translate(331.201172 0)"/>
      <use xlink:href="#DejaVuSans-73" transform="translate(392.724609 0)"/>
     </g>
    </g>
   </g>
   <g id="matplotlib.axis_2">
    <g id="ytick_1">
     <g id="line2d_15">
      <path d="M 54.02 368.59819 
L 706.670361 368.59819 
" clip-path="url(#p19b9bb687b)" style="fill: none; stroke: #b0b0b0; stroke-width: 0.8; stroke-linecap: square"/>
     </g>
     <g id="line2d_16">
      <defs>
       <path id="mfa513b0a9b" d="M 0 0 
L -3.5 0 
" style="stroke: #000000; stroke-width: 0.8"/>
      </defs>
      <g>
       <use xlink:href="#mfa513b0a9b" x="54.02" y="368.59819" style="stroke: #000000; stroke-width: 0.8"/>
      </g>
     </g>
     <g id="text_9">
      <!-- 0.55 -->
      <g transform="translate(24.754375 372.397408) scale(0.1 -0.1)">
       <defs>
        <path id="DejaVuSans-2e" d="M 684 794 
L 1344 794 
L 1344 0 
L 684 0 
L 684 794 
z
" transform="scale(0.015625)"/>
       </defs>
       <use xlink:href="#DejaVuSans-30"/>
       <use xlink:href="#DejaVuSans-2e" transform="translate(63.623047 0)"/>
       <use xlink:href="#DejaVuSans-35" transform="translate(95.410156 0)"/>
       <use xlink:href="#DejaVuSans-35" transform="translate(159.033203 0)"/>
      </g>
     </g>
    </g>
    <g id="ytick_2">
     <g id="line2d_17">
      <path d="M 54.02 326.399404 
L 706.670361 326.399404 
" clip-path="url(#p19b9bb687b)" style="fill: none; stroke: #b0b0b0; stroke-width: 0.8; stroke-linecap: square"/>
     </g>
     <g id="line2d_18">
      <g>
       <use xlink:href="#mfa513b0a9b" x="54.02" y="326.399404" style="stroke: #000000; stroke-width: 0.8"/>
      </g>
     </g>
     <g id="text_10">
      <!-- 0.60 -->
      <g transform="translate(24.754375 330.198623) scale(0.1 -0.1)">
       <defs>
        <path id="DejaVuSans-36" d="M 2113 2584 
Q 1688 2584 1439 2293 
Q 1191 2003 1191 1497 
Q 1191 994 1439 701 
Q 1688 409 2113 409 
Q 2538 409 2786 701 
Q 3034 994 3034 1497 
Q 3034 2003 2786 2293 
Q 2538 2584 2113 2584 
z
M 3366 4563 
L 3366 3988 
Q 3128 4100 2886 4159 
Q 2644 4219 2406 4219 
Q 1781 4219 1451 3797 
Q 1122 3375 1075 2522 
Q 1259 2794 1537 2939 
Q 1816 3084 2150 3084 
Q 2853 3084 3261 2657 
Q 3669 2231 3669 1497 
Q 3669 778 3244 343 
Q 2819 -91 2113 -91 
Q 1303 -91 875 529 
Q 447 1150 447 2328 
Q 447 3434 972 4092 
Q 1497 4750 2381 4750 
Q 2619 4750 2861 4703 
Q 3103 4656 3366 4563 
z
" transform="scale(0.015625)"/>
       </defs>
       <use xlink:href="#DejaVuSans-30"/>
       <use xlink:href="#DejaVuSans-2e" transform="translate(63.623047 0)"/>
       <use xlink:href="#DejaVuSans-36" transform="translate(95.410156 0)"/>
       <use xlink:href="#DejaVuSans-30" transform="translate(159.033203 0)"/>
      </g>
     </g>
    </g>
    <g id="ytick_3">
     <g id="line2d_19">
      <path d="M 54.02 284.200618 
L 706.670361 284.200618 
" clip-path="url(#p19b9bb687b)" style="fill: none; stroke: #b0b0b0; stroke-width: 0.8; stroke-linecap: square"/>
     </g>
     <g id="line2d_20">
      <g>
       <use xlink:href="#mfa513b0a9b" x="54.02" y="284.200618" style="stroke: #000000; stroke-width: 0.8"/>
      </g>
     </g>
     <g id="text_11">
      <!-- 0.65 -->
      <g transform="translate(24.754375 287.999837) scale(0.1 -0.1)">
       <use xlink:href="#DejaVuSans-30"/>
       <use xlink:href="#DejaVuSans-2e" transform="translate(63.623047 0)"/>
       <use xlink:href="#DejaVuSans-36" transform="translate(95.410156 0)"/>
       <use xlink:href="#DejaVuSans-35" transform="translate(159.033203 0)"/>
      </g>
     </g>
    </g>
    <g id="ytick_4">
     <g id="line2d_21">
      <path d="M 54.02 242.001833 
L 706.670361 242.001833 
" clip-path="url(#p19b9bb687b)" style="fill: none; stroke: #b0b0b0; stroke-width: 0.8; stroke-linecap: square"/>
     </g>
     <g id="line2d_22">
      <g>
       <use xlink:href="#mfa513b0a9b" x="54.02" y="242.001833" style="stroke: #000000; stroke-width: 0.8"/>
      </g>
     </g>
     <g id="text_12">
      <!-- 0.70 -->
      <g transform="translate(24.754375 245.801051) scale(0.1 -0.1)">
       <defs>
        <path id="DejaVuSans-37" d="M 525 4666 
L 3525 4666 
L 3525 4397 
L 1831 0 
L 1172 0 
L 2766 4134 
L 525 4134 
L 525 4666 
z
" transform="scale(0.015625)"/>
       </defs>
       <use xlink:href="#DejaVuSans-30"/>
       <use xlink:href="#DejaVuSans-2e" transform="translate(63.623047 0)"/>
       <use xlink:href="#DejaVuSans-37" transform="translate(95.410156 0)"/>
       <use xlink:href="#DejaVuSans-30" transform="translate(159.033203 0)"/>
      </g>
     </g>
    </g>
    <g id="ytick_5">
     <g id="line2d_23">
      <path d="M 54.02 199.803047 
L 706.670361 199.803047 
" clip-path="url(#p19b9bb687b)" style="fill: none; stroke: #b0b0b0; stroke-width: 0.8; stroke-linecap: square"/>
     </g>
     <g id="line2d_24">
      <g>
       <use xlink:href="#mfa513b0a9b" x="54.02" y="199.803047" style="stroke: #000000; stroke-width: 0.8"/>
      </g>
     </g>
     <g id="text_13">
      <!-- 0.75 -->
      <g transform="translate(24.754375 203.602266) scale(0.1 -0.1)">
       <use xlink:href="#DejaVuSans-30"/>
       <use xlink:href="#DejaVuSans-2e" transform="translate(63.623047 0)"/>
       <use xlink:href="#DejaVuSans-37" transform="translate(95.410156 0)"/>
       <use xlink:href="#DejaVuSans-35" transform="translate(159.033203 0)"/>
      </g>
     </g>
    </g>
    <g id="ytick_6">
     <g id="line2d_25">
      <path d="M 54.02 157.604261 
L 706.670361 157.604261 
" clip-path="url(#p19b9bb687b)" style="fill: none; stroke: #b0b0b0; stroke-width: 0.8; stroke-linecap: square"/>
     </g>
     <g id="line2d_26">
      <g>
       <use xlink:href="#mfa513b0a9b" x="54.02" y="157.604261" style="stroke: #000000; stroke-width: 0.8"/>
      </g>
     </g>
     <g id="text_14">
      <!-- 0.80 -->
      <g transform="translate(24.754375 161.40348) scale(0.1 -0.1)">
       <defs>
        <path id="DejaVuSans-38" d="M 2034 2216 
Q 1584 2216 1326 1975 
Q 1069 1734 1069 1313 
Q 1069 891 1326 650 
Q 1584 409 2034 409 
Q 2484 409 2743 651 
Q 3003 894 3003 1313 
Q 3003 1734 2745 1975 
Q 2488 2216 2034 2216 
z
M 1403 2484 
Q 997 2584 770 2862 
Q 544 3141 544 3541 
Q 544 4100 942 4425 
Q 1341 4750 2034 4750 
Q 2731 4750 3128 4425 
Q 3525 4100 3525 3541 
Q 3525 3141 3298 2862 
Q 3072 2584 2669 2484 
Q 3125 2378 3379 2068 
Q 3634 1759 3634 1313 
Q 3634 634 3220 271 
Q 2806 -91 2034 -91 
Q 1263 -91 848 271 
Q 434 634 434 1313 
Q 434 1759 690 2068 
Q 947 2378 1403 2484 
z
M 1172 3481 
Q 1172 3119 1398 2916 
Q 1625 2713 2034 2713 
Q 2441 2713 2670 2916 
Q 2900 3119 2900 3481 
Q 2900 3844 2670 4047 
Q 2441 4250 2034 4250 
Q 1625 4250 1398 4047 
Q 1172 3844 1172 3481 
z
" transform="scale(0.015625)"/>
       </defs>
       <use xlink:href="#DejaVuSans-30"/>
       <use xlink:href="#DejaVuSans-2e" transform="translate(63.623047 0)"/>
       <use xlink:href="#DejaVuSans-38" transform="translate(95.410156 0)"/>
       <use xlink:href="#DejaVuSans-30" transform="translate(159.033203 0)"/>
      </g>
     </g>
    </g>
    <g id="ytick_7">
     <g id="line2d_27">
      <path d="M 54.02 115.405476 
L 706.670361 115.405476 
" clip-path="url(#p19b9bb687b)" style="fill: none; stroke: #b0b0b0; stroke-width: 0.8; stroke-linecap: square"/>
     </g>
     <g id="line2d_28">
      <g>
       <use xlink:href="#mfa513b0a9b" x="54.02" y="115.405476" style="stroke: #000000; stroke-width: 0.8"/>
      </g>
     </g>
     <g id="text_15">
      <!-- 0.85 -->
      <g transform="translate(24.754375 119.204694) scale(0.1 -0.1)">
       <use xlink:href="#DejaVuSans-30"/>
       <use xlink:href="#DejaVuSans-2e" transform="translate(63.623047 0)"/>
       <use xlink:href="#DejaVuSans-38" transform="translate(95.410156 0)"/>
       <use xlink:href="#DejaVuSans-35" transform="translate(159.033203 0)"/>
      </g>
     </g>
    </g>
    <g id="ytick_8">
     <g id="line2d_29">
      <path d="M 54.02 73.20669 
L 706.670361 73.20669 
" clip-path="url(#p19b9bb687b)" style="fill: none; stroke: #b0b0b0; stroke-width: 0.8; stroke-linecap: square"/>
     </g>
     <g id="line2d_30">
      <g>
       <use xlink:href="#mfa513b0a9b" x="54.02" y="73.20669" style="stroke: #000000; stroke-width: 0.8"/>
      </g>
     </g>
     <g id="text_16">
      <!-- 0.90 -->
      <g transform="translate(24.754375 77.005909) scale(0.1 -0.1)">
       <defs>
        <path id="DejaVuSans-39" d="M 703 97 
L 703 672 
Q 941 559 1184 500 
Q 1428 441 1663 441 
Q 2288 441 2617 861 
Q 2947 1281 2994 2138 
Q 2813 1869 2534 1725 
Q 2256 1581 1919 1581 
Q 1219 1581 811 2004 
Q 403 2428 403 3163 
Q 403 3881 828 4315 
Q 1253 4750 1959 4750 
Q 2769 4750 3195 4129 
Q 3622 3509 3622 2328 
Q 3622 1225 3098 567 
Q 2575 -91 1691 -91 
Q 1453 -91 1209 -44 
Q 966 3 703 97 
z
M 1959 2075 
Q 2384 2075 2632 2365 
Q 2881 2656 2881 3163 
Q 2881 3666 2632 3958 
Q 2384 4250 1959 4250 
Q 1534 4250 1286 3958 
Q 1038 3666 1038 3163 
Q 1038 2656 1286 2365 
Q 1534 2075 1959 2075 
z
" transform="scale(0.015625)"/>
       </defs>
       <use xlink:href="#DejaVuSans-30"/>
       <use xlink:href="#DejaVuSans-2e" transform="translate(63.623047 0)"/>
       <use xlink:href="#DejaVuSans-39" transform="translate(95.410156 0)"/>
       <use xlink:href="#DejaVuSans-30" transform="translate(159.033203 0)"/>
      </g>
     </g>
    </g>
    <g id="ytick_9">
     <g id="line2d_31">
      <path d="M 54.02 31.007904 
L 706.670361 31.007904 
" clip-path="url(#p19b9bb687b)" style="fill: none; stroke: #b0b0b0; stroke-width: 0.8; stroke-linecap: square"/>
     </g>
     <g id="line2d_32">
      <g>
       <use xlink:href="#mfa513b0a9b" x="54.02" y="31.007904" style="stroke: #000000; stroke-width: 0.8"/>
      </g>
     </g>
     <g id="text_17">
      <!-- 0.95 -->
      <g transform="translate(24.754375 34.807123) scale(0.1 -0.1)">
       <use xlink:href="#DejaVuSans-30"/>
       <use xlink:href="#DejaVuSans-2e" transform="translate(63.623047 0)"/>
       <use xlink:href="#DejaVuSans-39" transform="translate(95.410156 0)"/>
       <use xlink:href="#DejaVuSans-35" transform="translate(159.033203 0)"/>
      </g>
     </g>
    </g>
    <g id="text_18">
     <!-- Accuracy on Test -->
     <g transform="translate(18.674688 242.499688) rotate(-90) scale(0.1 -0.1)">
      <defs>
       <path id="DejaVuSans-41" d="M 2188 4044 
L 1331 1722 
L 3047 1722 
L 2188 4044 
z
M 1831 4666 
L 2547 4666 
L 4325 0 
L 3669 0 
L 3244 1197 
L 1141 1197 
L 716 0 
L 50 0 
L 1831 4666 
z
" transform="scale(0.015625)"/>
       <path id="DejaVuSans-63" d="M 3122 3366 
L 3122 2828 
Q 2878 2963 2633 3030 
Q 2388 3097 2138 3097 
Q 1578 3097 1268 2742 
Q 959 2388 959 1747 
Q 959 1106 1268 751 
Q 1578 397 2138 397 
Q 2388 397 2633 464 
Q 2878 531 3122 666 
L 3122 134 
Q 2881 22 2623 -34 
Q 2366 -91 2075 -91 
Q 1284 -91 818 406 
Q 353 903 353 1747 
Q 353 2603 823 3093 
Q 1294 3584 2113 3584 
Q 2378 3584 2631 3529 
Q 2884 3475 3122 3366 
z
" transform="scale(0.015625)"/>
       <path id="DejaVuSans-75" d="M 544 1381 
L 544 3500 
L 1119 3500 
L 1119 1403 
Q 1119 906 1312 657 
Q 1506 409 1894 409 
Q 2359 409 2629 706 
Q 2900 1003 2900 1516 
L 2900 3500 
L 3475 3500 
L 3475 0 
L 2900 0 
L 2900 538 
Q 2691 219 2414 64 
Q 2138 -91 1772 -91 
Q 1169 -91 856 284 
Q 544 659 544 1381 
z
M 1991 3584 
L 1991 3584 
z
" transform="scale(0.015625)"/>
       <path id="DejaVuSans-72" d="M 2631 2963 
Q 2534 3019 2420 3045 
Q 2306 3072 2169 3072 
Q 1681 3072 1420 2755 
Q 1159 2438 1159 1844 
L 1159 0 
L 581 0 
L 581 3500 
L 1159 3500 
L 1159 2956 
Q 1341 3275 1631 3429 
Q 1922 3584 2338 3584 
Q 2397 3584 2469 3576 
Q 2541 3569 2628 3553 
L 2631 2963 
z
" transform="scale(0.015625)"/>
       <path id="DejaVuSans-61" d="M 2194 1759 
Q 1497 1759 1228 1600 
Q 959 1441 959 1056 
Q 959 750 1161 570 
Q 1363 391 1709 391 
Q 2188 391 2477 730 
Q 2766 1069 2766 1631 
L 2766 1759 
L 2194 1759 
z
M 3341 1997 
L 3341 0 
L 2766 0 
L 2766 531 
Q 2569 213 2275 61 
Q 1981 -91 1556 -91 
Q 1019 -91 701 211 
Q 384 513 384 1019 
Q 384 1609 779 1909 
Q 1175 2209 1959 2209 
L 2766 2209 
L 2766 2266 
Q 2766 2663 2505 2880 
Q 2244 3097 1772 3097 
Q 1472 3097 1187 3025 
Q 903 2953 641 2809 
L 641 3341 
Q 956 3463 1253 3523 
Q 1550 3584 1831 3584 
Q 2591 3584 2966 3190 
Q 3341 2797 3341 1997 
z
" transform="scale(0.015625)"/>
       <path id="DejaVuSans-79" d="M 2059 -325 
Q 1816 -950 1584 -1140 
Q 1353 -1331 966 -1331 
L 506 -1331 
L 506 -850 
L 844 -850 
Q 1081 -850 1212 -737 
Q 1344 -625 1503 -206 
L 1606 56 
L 191 3500 
L 800 3500 
L 1894 763 
L 2988 3500 
L 3597 3500 
L 2059 -325 
z
" transform="scale(0.015625)"/>
       <path id="DejaVuSans-20" transform="scale(0.015625)"/>
       <path id="DejaVuSans-6e" d="M 3513 2113 
L 3513 0 
L 2938 0 
L 2938 2094 
Q 2938 2591 2744 2837 
Q 2550 3084 2163 3084 
Q 1697 3084 1428 2787 
Q 1159 2491 1159 1978 
L 1159 0 
L 581 0 
L 581 3500 
L 1159 3500 
L 1159 2956 
Q 1366 3272 1645 3428 
Q 1925 3584 2291 3584 
Q 2894 3584 3203 3211 
Q 3513 2838 3513 2113 
z
" transform="scale(0.015625)"/>
       <path id="DejaVuSans-54" d="M -19 4666 
L 3928 4666 
L 3928 4134 
L 2272 4134 
L 2272 0 
L 1638 0 
L 1638 4134 
L -19 4134 
L -19 4666 
z
" transform="scale(0.015625)"/>
       <path id="DejaVuSans-74" d="M 1172 4494 
L 1172 3500 
L 2356 3500 
L 2356 3053 
L 1172 3053 
L 1172 1153 
Q 1172 725 1289 603 
Q 1406 481 1766 481 
L 2356 481 
L 2356 0 
L 1766 0 
Q 1100 0 847 248 
Q 594 497 594 1153 
L 594 3053 
L 172 3053 
L 172 3500 
L 594 3500 
L 594 4494 
L 1172 4494 
z
" transform="scale(0.015625)"/>
      </defs>
      <use xlink:href="#DejaVuSans-41"/>
      <use xlink:href="#DejaVuSans-63" transform="translate(66.658203 0)"/>
      <use xlink:href="#DejaVuSans-63" transform="translate(121.638672 0)"/>
      <use xlink:href="#DejaVuSans-75" transform="translate(176.619141 0)"/>
      <use xlink:href="#DejaVuSans-72" transform="translate(239.998047 0)"/>
      <use xlink:href="#DejaVuSans-61" transform="translate(281.111328 0)"/>
      <use xlink:href="#DejaVuSans-63" transform="translate(342.390625 0)"/>
      <use xlink:href="#DejaVuSans-79" transform="translate(397.371094 0)"/>
      <use xlink:href="#DejaVuSans-20" transform="translate(456.550781 0)"/>
      <use xlink:href="#DejaVuSans-6f" transform="translate(488.337891 0)"/>
      <use xlink:href="#DejaVuSans-6e" transform="translate(549.519531 0)"/>
      <use xlink:href="#DejaVuSans-20" transform="translate(612.898438 0)"/>
      <use xlink:href="#DejaVuSans-54" transform="translate(644.685547 0)"/>
      <use xlink:href="#DejaVuSans-65" transform="translate(688.769531 0)"/>
      <use xlink:href="#DejaVuSans-73" transform="translate(750.292969 0)"/>
      <use xlink:href="#DejaVuSans-74" transform="translate(802.392578 0)"/>
     </g>
    </g>
   </g>
   <g id="line2d_33">
    <path d="M 83.685926 196.84913 
L 87.749751 207.53949 
L 91.813576 206.883063 
L 95.877402 211.102942 
L 99.941227 202.475635 
L 104.005053 207.586377 
L 108.068878 208.571015 
L 112.132703 198.724632 
L 116.196529 208.28969 
L 120.260354 218.839387 
L 124.32418 201.537885 
L 128.388005 206.836177 
L 132.45183 201.866097 
L 136.515656 204.679349 
L 140.579481 219.355149 
L 144.643307 196.755355 
L 148.707132 202.00676 
L 152.770958 208.617903 
L 156.834783 181.938892 
L 160.898608 207.633265 
L 164.962434 185.455458 
L 169.026259 206.929951 
L 173.090085 210.58718 
L 177.15391 200.740796 
L 181.217735 205.101337 
L 185.281561 198.490195 
L 189.345386 198.255756 
L 193.409212 209.180553 
L 197.473037 212.08758 
L 201.536862 209.743203 
L 205.600688 210.727842 
L 209.664513 197.833769 
L 213.728339 186.111884 
L 217.792164 209.836978 
L 221.85599 204.773125 
L 225.919815 201.350334 
L 229.98364 211.102942 
L 234.047466 187.14341 
L 238.111291 212.697119 
L 242.175117 204.257362 
L 246.238942 206.836176 
L 250.302767 207.867702 
L 254.366593 205.757763 
L 258.430418 213.306656 
L 262.494244 201.912985 
L 266.558069 202.428747 
L 270.621894 205.80465 
L 274.68572 192.019714 
L 278.749545 199.849932 
L 282.813371 198.583969 
L 286.877196 209.368103 
L 290.941022 211.665593 
L 295.004847 203.038286 
L 299.068672 197.411781 
L 303.132498 212.462681 
L 307.196323 198.396419 
L 311.260149 195.536279 
L 315.323974 209.039891 
L 319.387799 210.305853 
L 323.451625 202.56941 
L 327.51545 201.537884 
L 331.579276 184.892807 
L 335.643101 208.149027 
L 339.706926 208.47724 
L 343.770752 210.821617 
L 347.834577 198.443306 
L 351.898403 202.053647 
L 355.962228 191.550838 
L 360.026054 214.00997 
L 364.089879 205.195112 
L 368.153704 211.14983 
L 372.21753 201.725434 
L 376.281355 201.444108 
L 380.345181 210.868505 
L 384.409006 200.225032 
L 388.472831 197.693106 
L 392.536657 189.816 
L 396.600482 201.959872 
L 400.664308 203.225836 
L 404.728133 187.940497 
L 408.791958 209.836979 
L 412.855784 205.42955 
L 416.919609 206.414188 
L 420.983435 204.304249 
L 425.04726 192.488589 
L 429.111086 200.740796 
L 433.174911 208.617903 
L 437.238736 199.381058 
L 441.302562 188.08116 
L 445.366387 177.81279 
L 449.430213 208.805453 
L 453.494038 199.427945 
L 457.557863 213.775532 
L 461.621689 210.024529 
L 465.685514 188.362486 
L 469.74934 208.946116 
L 473.813165 213.963082 
L 477.87699 213.869307 
L 481.940816 203.038285 
L 486.004641 183.298631 
L 490.068467 202.288084 
L 494.132292 217.854748 
L 498.196118 199.334169 
L 502.259943 189.487786 
L 506.323768 199.943708 
L 510.387594 198.255756 
L 514.451419 195.817604 
L 518.515245 183.439294 
L 522.57907 178.187889 
L 526.642895 208.336578 
L 530.706721 204.960674 
L 534.770546 215.275933 
L 538.834372 193.520115 
L 542.898197 193.895215 
L 546.962022 207.820814 
L 551.025848 193.098127 
L 555.089673 206.929952 
L 559.153499 205.757762 
L 563.217324 206.648626 
L 567.28115 203.460273 
L 571.344975 208.571015 
L 575.4088 212.368906 
L 579.472626 204.351137 
L 583.536451 203.178949 
L 587.600277 216.354347 
L 591.664102 196.145817 
L 595.727927 213.447319 
L 603.855578 202.710072 
L 607.919404 217.573423 
L 611.983229 195.114291 
L 616.047054 199.568608 
L 620.11088 192.488589 
L 624.174705 213.072219 
L 628.238531 210.071417 
L 632.302356 194.504753 
L 636.366182 204.398024 
L 640.430007 207.305052 
L 644.493832 207.398827 
L 648.557658 193.754553 
L 652.621483 201.397221 
L 656.685309 211.056055 
L 660.749134 197.224231 
L 664.812959 202.475635 
L 668.876785 207.351939 
L 672.94061 213.259769 
L 677.004436 212.368906 
L 677.004436 212.368906 
" clip-path="url(#p19b9bb687b)" style="fill: none; stroke: #1f77b4; stroke-width: 1.5; stroke-linecap: square"/>
   </g>
   <g id="patch_3">
    <path d="M 54.02 390.04 
L 54.02 10.8 
" style="fill: none; stroke: #000000; stroke-width: 0.8; stroke-linejoin: miter; stroke-linecap: square"/>
   </g>
   <g id="patch_4">
    <path d="M 706.670361 390.04 
L 706.670361 10.8 
" style="fill: none; stroke: #000000; stroke-width: 0.8; stroke-linejoin: miter; stroke-linecap: square"/>
   </g>
   <g id="patch_5">
    <path d="M 54.02 390.04 
L 706.670361 390.04 
" style="fill: none; stroke: #000000; stroke-width: 0.8; stroke-linejoin: miter; stroke-linecap: square"/>
   </g>
   <g id="patch_6">
    <path d="M 54.02 10.8 
L 706.670361 10.8 
" style="fill: none; stroke: #000000; stroke-width: 0.8; stroke-linejoin: miter; stroke-linecap: square"/>
   </g>
  </g>
 </g>
 <defs>
  <clipPath id="p19b9bb687b">
   <rect x="54.02" y="10.8" width="652.650361" height="379.24"/>
  </clipPath>
 </defs>
</svg>
