<?xml version="1.0" encoding="utf-8" standalone="no"?>
<!DOCTYPE svg PUBLIC "-//W3C//DTD SVG 1.1//EN"
  "http://www.w3.org/Graphics/SVG/1.1/DTD/svg11.dtd">
<svg xmlns:xlink="http://www.w3.org/1999/xlink" width="720pt" height="432pt" viewBox="0 0 720 432" xmlns="http://www.w3.org/2000/svg" version="1.1">
 <metadata>
  <rdf:RDF xmlns:dc="http://purl.org/dc/elements/1.1/" xmlns:cc="http://creativecommons.org/ns#" xmlns:rdf="http://www.w3.org/1999/02/22-rdf-syntax-ns#">
   <cc:Work>
    <dc:type rdf:resource="http://purl.org/dc/dcmitype/StillImage"/>
    <dc:date>2025-04-22T23:12:55.575166</dc:date>
    <dc:format>image/svg+xml</dc:format>
    <dc:creator>
     <cc:Agent>
      <dc:title>Matplotlib v3.10.0, https://matplotlib.org/</dc:title>
     </cc:Agent>
    </dc:creator>
   </cc:Work>
  </rdf:RDF>
 </metadata>
 <defs>
  <style type="text/css">*{stroke-linejoin: round; stroke-linecap: butt}</style>
 </defs>
 <g id="figure_1">
  <g id="patch_1">
   <path d="M 0 432 
L 720 432 
L 720 0 
L 0 0 
z
" style="fill: #ffffff"/>
  </g>
  <g id="axes_1">
   <g id="patch_2">
    <path d="M 53.93 390.04 
L 709.2 390.04 
L 709.2 10.8 
L 53.93 10.8 
z
" style="fill: #ffffff"/>
   </g>
   <g id="FillBetweenPolyCollection_1">
    <path d="M 83.715 88.785766 
L 83.715 369.018539 
L 86.0978 372.801818 
L 88.4806 338.160662 
L 90.8634 341.868001 
L 93.2462 321.537003 
L 95.629 300.934989 
L 98.0118 263.696678 
L 100.3946 231.924216 
L 102.7774 236.765029 
L 105.1602 254.667652 
L 107.543 246.702921 
L 109.9258 261.78955 
L 112.3086 275.047452 
L 114.6914 273.616367 
L 117.0742 262.704521 
L 119.457 267.50239 
L 121.8398 289.485858 
L 124.2226 293.62495 
L 126.6054 288.444298 
L 128.9882 318.215817 
L 131.371 305.447491 
L 133.7538 316.40502 
L 136.1366 304.913173 
L 138.5194 300.490014 
L 140.9022 296.14601 
L 143.285 259.252548 
L 145.6678 262.792679 
L 148.0506 252.784249 
L 150.4334 232.124807 
L 152.8162 212.705343 
L 155.199 240.026837 
L 157.5818 200.631243 
L 159.9646 210.420821 
L 162.3474 216.629857 
L 164.7302 209.826815 
L 167.113 182.4701 
L 169.4958 222.684023 
L 171.8786 193.59398 
L 174.2614 199.098638 
L 176.6442 203.566022 
L 179.027 194.405868 
L 181.4098 203.296862 
L 183.7926 200.60059 
L 186.1754 195.575571 
L 188.5582 160.089065 
L 190.941 160.174971 
L 193.3238 166.325044 
L 195.7066 182.819139 
L 198.0894 193.334822 
L 200.4722 219.074024 
L 202.855 237.969078 
L 205.2378 229.916417 
L 207.6206 201.1806 
L 210.0034 179.398731 
L 212.3862 191.889271 
L 214.769 162.971039 
L 217.1518 150.112258 
L 219.5346 140.372819 
L 221.9174 133.331516 
L 224.3002 129.005413 
L 226.683 127.362982 
L 229.0658 117.602787 
L 231.4486 106.199585 
L 233.8314 89.398661 
L 236.2142 89.676259 
L 238.597 91.318116 
L 240.9798 84.594219 
L 243.3626 94.843632 
L 245.7454 92.023219 
L 248.1282 76.838084 
L 250.511 72.985435 
L 252.8938 59.588475 
L 255.2766 72.572395 
L 257.6594 80.036466 
L 260.0422 79.512752 
L 262.425 65.521363 
L 264.8078 66.93157 
L 267.1906 67.344609 
L 269.5734 97.251004 
L 271.9562 89.348551 
L 274.339 83.027965 
L 276.7218 73.156521 
L 279.1046 63.113991 
L 281.4874 57.473166 
L 283.8702 51.832341 
L 286.253 53.242547 
L 288.6358 53.94765 
L 291.0186 60.293578 
L 293.4014 59.588475 
L 295.7842 51.127237 
L 298.167 57.473166 
L 300.5498 56.062959 
L 302.9326 51.832341 
L 305.3154 46.896619 
L 307.6982 47.601722 
L 310.081 55.357856 
L 312.4638 51.127237 
L 314.8466 53.242547 
L 317.2294 46.191515 
L 319.6122 56.062959 
L 321.995 51.127237 
L 324.3778 50.422134 
L 326.7606 50.422134 
L 329.1434 55.357856 
L 331.5262 47.601722 
L 333.909 47.601722 
L 336.2918 51.832341 
L 338.6746 52.537444 
L 341.0574 51.832341 
L 343.4402 49.717031 
L 345.823 48.306825 
L 348.2058 49.011928 
L 350.5886 56.768062 
L 352.9714 50.422134 
L 355.3542 52.537444 
L 357.737 51.127237 
L 360.1198 49.011928 
L 362.5026 46.191515 
L 364.8854 50.422134 
L 367.2682 49.717031 
L 369.651 45.486412 
L 372.0338 46.191515 
L 374.4166 51.127237 
L 376.7994 46.191515 
L 379.1822 48.306825 
L 381.565 51.832341 
L 383.9478 49.717031 
L 386.3306 52.537444 
L 388.7134 53.94765 
L 391.0962 49.011928 
L 393.479 48.306825 
L 395.8618 49.011928 
L 398.2446 46.896619 
L 400.6274 47.601722 
L 403.0102 47.601722 
L 405.393 53.94765 
L 407.7758 46.896619 
L 410.1586 48.306825 
L 412.5414 48.306825 
L 414.9242 50.422134 
L 417.307 50.422134 
L 419.6898 46.191515 
L 422.0726 50.422134 
L 424.4554 48.306825 
L 426.8382 45.486412 
L 429.221 49.011928 
L 431.6038 50.422134 
L 433.9866 53.242547 
L 436.3694 47.601722 
L 438.7522 47.601722 
L 441.135 49.717031 
L 443.5178 49.717031 
L 445.9006 48.306825 
L 448.2834 51.127237 
L 450.6662 46.896619 
L 453.049 46.896619 
L 455.4318 51.832341 
L 457.8146 47.601722 
L 460.1974 53.242547 
L 462.5802 51.127237 
L 464.963 49.011928 
L 467.3458 47.601722 
L 469.7286 51.127237 
L 472.1114 49.011928 
L 474.4942 45.486412 
L 476.877 47.601722 
L 479.2598 50.422134 
L 481.6426 48.306825 
L 484.0254 47.601722 
L 486.4082 45.486412 
L 488.791 52.537444 
L 491.1738 48.306825 
L 493.5566 51.127237 
L 495.9394 50.422134 
L 498.3222 46.191515 
L 500.705 49.011928 
L 503.0878 45.486412 
L 505.4706 45.486412 
L 507.8534 49.011928 
L 510.2362 51.832341 
L 512.619 46.896619 
L 515.0018 47.601722 
L 517.3846 49.011928 
L 519.7674 46.896619 
L 522.1502 49.717031 
L 524.533 48.306825 
L 526.9158 49.717031 
L 529.2986 45.486412 
L 531.6814 50.422134 
L 534.0642 45.486412 
L 536.447 45.486412 
L 538.8298 46.191515 
L 541.2126 47.601722 
L 543.5954 48.306825 
L 545.9782 46.896619 
L 548.361 47.601722 
L 550.7438 45.486412 
L 553.1266 49.011928 
L 555.5094 46.896619 
L 557.8922 54.652753 
L 560.275 57.473166 
L 562.6578 51.127237 
L 565.0406 50.422134 
L 567.4234 47.601722 
L 569.8062 51.127237 
L 572.189 56.062959 
L 574.5718 60.998681 
L 576.9546 46.896619 
L 579.3374 48.306825 
L 581.7202 51.832341 
L 584.103 61.849529 
L 586.4858 50.422134 
L 588.8686 46.191515 
L 591.2514 49.011928 
L 593.6342 49.717031 
L 596.017 45.486412 
L 598.3998 54.652753 
L 600.7826 49.011928 
L 603.1654 45.486412 
L 605.5482 47.601722 
L 607.931 51.127237 
L 610.3138 48.306825 
L 612.6966 45.486412 
L 615.0794 50.422134 
L 617.4622 45.486412 
L 619.845 52.537444 
L 622.2278 68.754816 
L 624.6106 90.053654 
L 626.9934 121.637551 
L 629.3762 133.624304 
L 631.759 113.881416 
L 634.1418 97.809789 
L 636.5246 82.151775 
L 638.9074 62.408888 
L 641.2902 97.724457 
L 643.673 89.202807 
L 646.0558 73.277498 
L 648.4386 56.062959 
L 650.8214 57.473166 
L 653.2042 65.934403 
L 655.587 48.306825 
L 657.9698 48.306825 
L 660.3526 51.832341 
L 662.7354 46.191515 
L 665.1182 49.717031 
L 667.501 46.896619 
L 669.8838 56.062959 
L 672.2666 51.127237 
L 674.6494 53.94765 
L 677.0322 56.768062 
L 679.415 50.422134 
L 679.415 44.639576 
L 679.415 44.639576 
L 677.0322 43.550787 
L 674.6494 44.034693 
L 672.2666 44.5186 
L 669.8838 43.671764 
L 667.501 45.244459 
L 665.1182 44.760553 
L 662.7354 45.365436 
L 660.3526 44.397623 
L 657.9698 45.002506 
L 655.587 45.002506 
L 653.2042 41.978092 
L 650.8214 43.429811 
L 648.4386 43.671764 
L 646.0558 41.060389 
L 643.673 37.985865 
L 641.2902 37.641986 
L 638.9074 42.582975 
L 636.5246 39.195631 
L 634.1418 36.972528 
L 631.759 33.751685 
L 629.3762 30.364341 
L 626.9934 32.420943 
L 624.6106 38.30327 
L 622.2278 41.494185 
L 619.845 44.276647 
L 617.4622 45.486412 
L 615.0794 44.639576 
L 612.6966 45.486412 
L 610.3138 45.002506 
L 607.931 44.5186 
L 605.5482 45.123483 
L 603.1654 45.486412 
L 600.7826 44.88153 
L 598.3998 43.913717 
L 596.017 45.486412 
L 593.6342 44.760553 
L 591.2514 44.88153 
L 588.8686 45.365436 
L 586.4858 44.639576 
L 584.103 43.142333 
L 581.7202 44.397623 
L 579.3374 45.002506 
L 576.9546 45.244459 
L 574.5718 42.824928 
L 572.189 43.671764 
L 569.8062 44.5186 
L 567.4234 45.123483 
L 565.0406 44.639576 
L 562.6578 44.5186 
L 560.275 43.429811 
L 557.8922 43.913717 
L 555.5094 45.244459 
L 553.1266 44.88153 
L 550.7438 45.486412 
L 548.361 45.123483 
L 545.9782 45.244459 
L 543.5954 45.002506 
L 541.2126 45.123483 
L 538.8298 45.365436 
L 536.447 45.486412 
L 534.0642 45.486412 
L 531.6814 44.639576 
L 529.2986 45.486412 
L 526.9158 44.760553 
L 524.533 45.002506 
L 522.1502 44.760553 
L 519.7674 45.244459 
L 517.3846 44.88153 
L 515.0018 45.123483 
L 512.619 45.244459 
L 510.2362 44.397623 
L 507.8534 44.88153 
L 505.4706 45.486412 
L 503.0878 45.486412 
L 500.705 44.88153 
L 498.3222 45.365436 
L 495.9394 44.639576 
L 493.5566 44.5186 
L 491.1738 45.002506 
L 488.791 44.276647 
L 486.4082 45.486412 
L 484.0254 45.123483 
L 481.6426 45.002506 
L 479.2598 44.639576 
L 476.877 45.123483 
L 474.4942 45.486412 
L 472.1114 44.88153 
L 469.7286 44.5186 
L 467.3458 45.123483 
L 464.963 44.88153 
L 462.5802 44.5186 
L 460.1974 44.15567 
L 457.8146 45.123483 
L 455.4318 44.397623 
L 453.049 45.244459 
L 450.6662 45.244459 
L 448.2834 44.5186 
L 445.9006 45.002506 
L 443.5178 44.760553 
L 441.135 44.760553 
L 438.7522 45.123483 
L 436.3694 45.123483 
L 433.9866 44.15567 
L 431.6038 44.639576 
L 429.221 44.88153 
L 426.8382 45.486412 
L 424.4554 45.002506 
L 422.0726 44.639576 
L 419.6898 45.365436 
L 417.307 44.639576 
L 414.9242 44.639576 
L 412.5414 45.002506 
L 410.1586 45.002506 
L 407.7758 45.244459 
L 405.393 44.034693 
L 403.0102 45.123483 
L 400.6274 45.123483 
L 398.2446 45.244459 
L 395.8618 44.88153 
L 393.479 45.002506 
L 391.0962 44.88153 
L 388.7134 44.034693 
L 386.3306 44.276647 
L 383.9478 44.760553 
L 381.565 44.397623 
L 379.1822 45.002506 
L 376.7994 45.365436 
L 374.4166 44.5186 
L 372.0338 45.365436 
L 369.651 45.486412 
L 367.2682 44.760553 
L 364.8854 44.639576 
L 362.5026 45.365436 
L 360.1198 44.88153 
L 357.737 44.5186 
L 355.3542 44.276647 
L 352.9714 44.639576 
L 350.5886 43.550787 
L 348.2058 44.88153 
L 345.823 45.002506 
L 343.4402 44.760553 
L 341.0574 44.397623 
L 338.6746 44.276647 
L 336.2918 44.397623 
L 333.909 45.123483 
L 331.5262 45.123483 
L 329.1434 43.79274 
L 326.7606 44.639576 
L 324.3778 44.639576 
L 321.995 44.5186 
L 319.6122 43.671764 
L 317.2294 45.365436 
L 314.8466 44.15567 
L 312.4638 44.5186 
L 310.081 43.79274 
L 307.6982 45.123483 
L 305.3154 45.244459 
L 302.9326 44.397623 
L 300.5498 43.671764 
L 298.167 43.429811 
L 295.7842 44.5186 
L 293.4014 43.066881 
L 291.0186 42.945904 
L 288.6358 44.034693 
L 286.253 44.15567 
L 283.8702 44.397623 
L 281.4874 43.429811 
L 279.1046 42.461998 
L 276.7218 41.765492 
L 274.339 40.07182 
L 271.9562 38.424247 
L 269.5734 36.947186 
L 267.1906 41.736139 
L 264.8078 42.149178 
L 262.425 42.391132 
L 260.0422 40.082274 
L 257.6594 39.55856 
L 255.2766 41.181366 
L 252.8938 43.066881 
L 250.511 40.768326 
L 248.1282 41.004562 
L 245.7454 37.501959 
L 243.3626 37.018052 
L 240.9798 39.67382 
L 238.597 37.622935 
L 236.2142 38.680665 
L 233.8314 40.126517 
L 231.4486 38.512883 
L 229.0658 35.287454 
L 226.683 34.289156 
L 224.3002 32.646725 
L 221.9174 33.577762 
L 219.5346 32.377725 
L 217.1518 35.48907 
L 214.769 31.976314 
L 212.3862 30.51203 
L 210.0034 33.072419 
L 207.6206 33.487359 
L 205.2378 40.967389 
L 202.855 36.419487 
L 200.4722 36.622491 
L 198.0894 36.075998 
L 195.7066 30.236137 
L 193.3238 28.038182 
L 190.941 31.267623 
L 188.5582 32.521782 
L 186.1754 31.498743 
L 183.7926 37.572128 
L 181.4098 37.212362 
L 179.027 37.341458 
L 176.6442 41.032088 
L 174.2614 36.153447 
L 171.8786 34.648587 
L 169.4958 30.675985 
L 167.113 34.674062 
L 164.7302 35.355422 
L 162.3474 37.898404 
L 159.9646 33.009037 
L 157.5818 39.293855 
L 155.199 41.371247 
L 152.8162 38.318159 
L 150.4334 45.184391 
L 148.0506 35.623354 
L 145.6678 47.227606 
L 143.285 49.015358 
L 140.9022 46.001236 
L 138.5194 54.508016 
L 136.1366 58.262629 
L 133.7538 52.027921 
L 131.371 51.302919 
L 128.9882 51.385378 
L 126.6054 48.445809 
L 124.2226 42.681031 
L 121.8398 55.582021 
L 119.457 31.41949 
L 117.0742 48.484017 
L 114.6914 36.988045 
L 112.3086 40.814098 
L 109.9258 35.964077 
L 107.543 35.279289 
L 105.1602 39.581216 
L 102.7774 38.207663 
L 100.3946 41.296096 
L 98.0118 41.650595 
L 95.629 42.964637 
L 93.2462 46.895938 
L 90.8634 60.444281 
L 88.4806 78.170657 
L 86.0978 82.081854 
L 83.715 88.785766 
z
" clip-path="url(#p829457bf65)" style="fill: #1f77b4; fill-opacity: 0.2"/>
   </g>
   <g id="matplotlib.axis_1">
    <g id="xtick_1">
     <g id="line2d_1">
      <path d="M 82.511686 390.04 
L 82.511686 10.8 
" clip-path="url(#p829457bf65)" style="fill: none; stroke: #b0b0b0; stroke-width: 0.8; stroke-linecap: square"/>
     </g>
     <g id="line2d_2">
      <defs>
       <path id="mdc4b83cb54" d="M 0 0 
L 0 3.5 
" style="stroke: #000000; stroke-width: 0.8"/>
      </defs>
      <g>
       <use xlink:href="#mdc4b83cb54" x="82.511686" y="390.04" style="stroke: #000000; stroke-width: 0.8"/>
      </g>
     </g>
     <g id="text_1">
      <!-- 0 -->
      <g transform="translate(79.330436 404.638438) scale(0.1 -0.1)">
       <defs>
        <path id="DejaVuSans-30" d="M 2034 4250 
Q 1547 4250 1301 3770 
Q 1056 3291 1056 2328 
Q 1056 1369 1301 889 
Q 1547 409 2034 409 
Q 2525 409 2770 889 
Q 3016 1369 3016 2328 
Q 3016 3291 2770 3770 
Q 2525 4250 2034 4250 
z
M 2034 4750 
Q 2819 4750 3233 4129 
Q 3647 3509 3647 2328 
Q 3647 1150 3233 529 
Q 2819 -91 2034 -91 
Q 1250 -91 836 529 
Q 422 1150 422 2328 
Q 422 3509 836 4129 
Q 1250 4750 2034 4750 
z
" transform="scale(0.015625)"/>
       </defs>
       <use xlink:href="#DejaVuSans-30"/>
      </g>
     </g>
    </g>
    <g id="xtick_2">
     <g id="line2d_3">
      <path d="M 201.651686 390.04 
L 201.651686 10.8 
" clip-path="url(#p829457bf65)" style="fill: none; stroke: #b0b0b0; stroke-width: 0.8; stroke-linecap: square"/>
     </g>
     <g id="line2d_4">
      <g>
       <use xlink:href="#mdc4b83cb54" x="201.651686" y="390.04" style="stroke: #000000; stroke-width: 0.8"/>
      </g>
     </g>
     <g id="text_2">
      <!-- 10000 -->
      <g transform="translate(185.745436 404.638438) scale(0.1 -0.1)">
       <defs>
        <path id="DejaVuSans-31" d="M 794 531 
L 1825 531 
L 1825 4091 
L 703 3866 
L 703 4441 
L 1819 4666 
L 2450 4666 
L 2450 531 
L 3481 531 
L 3481 0 
L 794 0 
L 794 531 
z
" transform="scale(0.015625)"/>
       </defs>
       <use xlink:href="#DejaVuSans-31"/>
       <use xlink:href="#DejaVuSans-30" transform="translate(63.623047 0)"/>
       <use xlink:href="#DejaVuSans-30" transform="translate(127.246094 0)"/>
       <use xlink:href="#DejaVuSans-30" transform="translate(190.869141 0)"/>
       <use xlink:href="#DejaVuSans-30" transform="translate(254.492188 0)"/>
      </g>
     </g>
    </g>
    <g id="xtick_3">
     <g id="line2d_5">
      <path d="M 320.791686 390.04 
L 320.791686 10.8 
" clip-path="url(#p829457bf65)" style="fill: none; stroke: #b0b0b0; stroke-width: 0.8; stroke-linecap: square"/>
     </g>
     <g id="line2d_6">
      <g>
       <use xlink:href="#mdc4b83cb54" x="320.791686" y="390.04" style="stroke: #000000; stroke-width: 0.8"/>
      </g>
     </g>
     <g id="text_3">
      <!-- 20000 -->
      <g transform="translate(304.885436 404.638438) scale(0.1 -0.1)">
       <defs>
        <path id="DejaVuSans-32" d="M 1228 531 
L 3431 531 
L 3431 0 
L 469 0 
L 469 531 
Q 828 903 1448 1529 
Q 2069 2156 2228 2338 
Q 2531 2678 2651 2914 
Q 2772 3150 2772 3378 
Q 2772 3750 2511 3984 
Q 2250 4219 1831 4219 
Q 1534 4219 1204 4116 
Q 875 4013 500 3803 
L 500 4441 
Q 881 4594 1212 4672 
Q 1544 4750 1819 4750 
Q 2544 4750 2975 4387 
Q 3406 4025 3406 3419 
Q 3406 3131 3298 2873 
Q 3191 2616 2906 2266 
Q 2828 2175 2409 1742 
Q 1991 1309 1228 531 
z
" transform="scale(0.015625)"/>
       </defs>
       <use xlink:href="#DejaVuSans-32"/>
       <use xlink:href="#DejaVuSans-30" transform="translate(63.623047 0)"/>
       <use xlink:href="#DejaVuSans-30" transform="translate(127.246094 0)"/>
       <use xlink:href="#DejaVuSans-30" transform="translate(190.869141 0)"/>
       <use xlink:href="#DejaVuSans-30" transform="translate(254.492188 0)"/>
      </g>
     </g>
    </g>
    <g id="xtick_4">
     <g id="line2d_7">
      <path d="M 439.931686 390.04 
L 439.931686 10.8 
" clip-path="url(#p829457bf65)" style="fill: none; stroke: #b0b0b0; stroke-width: 0.8; stroke-linecap: square"/>
     </g>
     <g id="line2d_8">
      <g>
       <use xlink:href="#mdc4b83cb54" x="439.931686" y="390.04" style="stroke: #000000; stroke-width: 0.8"/>
      </g>
     </g>
     <g id="text_4">
      <!-- 30000 -->
      <g transform="translate(424.025436 404.638438) scale(0.1 -0.1)">
       <defs>
        <path id="DejaVuSans-33" d="M 2597 2516 
Q 3050 2419 3304 2112 
Q 3559 1806 3559 1356 
Q 3559 666 3084 287 
Q 2609 -91 1734 -91 
Q 1441 -91 1130 -33 
Q 819 25 488 141 
L 488 750 
Q 750 597 1062 519 
Q 1375 441 1716 441 
Q 2309 441 2620 675 
Q 2931 909 2931 1356 
Q 2931 1769 2642 2001 
Q 2353 2234 1838 2234 
L 1294 2234 
L 1294 2753 
L 1863 2753 
Q 2328 2753 2575 2939 
Q 2822 3125 2822 3475 
Q 2822 3834 2567 4026 
Q 2313 4219 1838 4219 
Q 1578 4219 1281 4162 
Q 984 4106 628 3988 
L 628 4550 
Q 988 4650 1302 4700 
Q 1616 4750 1894 4750 
Q 2613 4750 3031 4423 
Q 3450 4097 3450 3541 
Q 3450 3153 3228 2886 
Q 3006 2619 2597 2516 
z
" transform="scale(0.015625)"/>
       </defs>
       <use xlink:href="#DejaVuSans-33"/>
       <use xlink:href="#DejaVuSans-30" transform="translate(63.623047 0)"/>
       <use xlink:href="#DejaVuSans-30" transform="translate(127.246094 0)"/>
       <use xlink:href="#DejaVuSans-30" transform="translate(190.869141 0)"/>
       <use xlink:href="#DejaVuSans-30" transform="translate(254.492188 0)"/>
      </g>
     </g>
    </g>
    <g id="xtick_5">
     <g id="line2d_9">
      <path d="M 559.071686 390.04 
L 559.071686 10.8 
" clip-path="url(#p829457bf65)" style="fill: none; stroke: #b0b0b0; stroke-width: 0.8; stroke-linecap: square"/>
     </g>
     <g id="line2d_10">
      <g>
       <use xlink:href="#mdc4b83cb54" x="559.071686" y="390.04" style="stroke: #000000; stroke-width: 0.8"/>
      </g>
     </g>
     <g id="text_5">
      <!-- 40000 -->
      <g transform="translate(543.165436 404.638438) scale(0.1 -0.1)">
       <defs>
        <path id="DejaVuSans-34" d="M 2419 4116 
L 825 1625 
L 2419 1625 
L 2419 4116 
z
M 2253 4666 
L 3047 4666 
L 3047 1625 
L 3713 1625 
L 3713 1100 
L 3047 1100 
L 3047 0 
L 2419 0 
L 2419 1100 
L 313 1100 
L 313 1709 
L 2253 4666 
z
" transform="scale(0.015625)"/>
       </defs>
       <use xlink:href="#DejaVuSans-34"/>
       <use xlink:href="#DejaVuSans-30" transform="translate(63.623047 0)"/>
       <use xlink:href="#DejaVuSans-30" transform="translate(127.246094 0)"/>
       <use xlink:href="#DejaVuSans-30" transform="translate(190.869141 0)"/>
       <use xlink:href="#DejaVuSans-30" transform="translate(254.492188 0)"/>
      </g>
     </g>
    </g>
    <g id="xtick_6">
     <g id="line2d_11">
      <path d="M 678.211686 390.04 
L 678.211686 10.8 
" clip-path="url(#p829457bf65)" style="fill: none; stroke: #b0b0b0; stroke-width: 0.8; stroke-linecap: square"/>
     </g>
     <g id="line2d_12">
      <g>
       <use xlink:href="#mdc4b83cb54" x="678.211686" y="390.04" style="stroke: #000000; stroke-width: 0.8"/>
      </g>
     </g>
     <g id="text_6">
      <!-- 50000 -->
      <g transform="translate(662.305436 404.638438) scale(0.1 -0.1)">
       <defs>
        <path id="DejaVuSans-35" d="M 691 4666 
L 3169 4666 
L 3169 4134 
L 1269 4134 
L 1269 2991 
Q 1406 3038 1543 3061 
Q 1681 3084 1819 3084 
Q 2600 3084 3056 2656 
Q 3513 2228 3513 1497 
Q 3513 744 3044 326 
Q 2575 -91 1722 -91 
Q 1428 -91 1123 -41 
Q 819 9 494 109 
L 494 744 
Q 775 591 1075 516 
Q 1375 441 1709 441 
Q 2250 441 2565 725 
Q 2881 1009 2881 1497 
Q 2881 1984 2565 2268 
Q 2250 2553 1709 2553 
Q 1456 2553 1204 2497 
Q 953 2441 691 2322 
L 691 4666 
z
" transform="scale(0.015625)"/>
       </defs>
       <use xlink:href="#DejaVuSans-35"/>
       <use xlink:href="#DejaVuSans-30" transform="translate(63.623047 0)"/>
       <use xlink:href="#DejaVuSans-30" transform="translate(127.246094 0)"/>
       <use xlink:href="#DejaVuSans-30" transform="translate(190.869141 0)"/>
       <use xlink:href="#DejaVuSans-30" transform="translate(254.492188 0)"/>
      </g>
     </g>
    </g>
    <g id="text_7">
     <!-- Episodes -->
     <g transform="translate(359.322812 418.316562) scale(0.1 -0.1)">
      <defs>
       <path id="DejaVuSans-45" d="M 628 4666 
L 3578 4666 
L 3578 4134 
L 1259 4134 
L 1259 2753 
L 3481 2753 
L 3481 2222 
L 1259 2222 
L 1259 531 
L 3634 531 
L 3634 0 
L 628 0 
L 628 4666 
z
" transform="scale(0.015625)"/>
       <path id="DejaVuSans-70" d="M 1159 525 
L 1159 -1331 
L 581 -1331 
L 581 3500 
L 1159 3500 
L 1159 2969 
Q 1341 3281 1617 3432 
Q 1894 3584 2278 3584 
Q 2916 3584 3314 3078 
Q 3713 2572 3713 1747 
Q 3713 922 3314 415 
Q 2916 -91 2278 -91 
Q 1894 -91 1617 61 
Q 1341 213 1159 525 
z
M 3116 1747 
Q 3116 2381 2855 2742 
Q 2594 3103 2138 3103 
Q 1681 3103 1420 2742 
Q 1159 2381 1159 1747 
Q 1159 1113 1420 752 
Q 1681 391 2138 391 
Q 2594 391 2855 752 
Q 3116 1113 3116 1747 
z
" transform="scale(0.015625)"/>
       <path id="DejaVuSans-69" d="M 603 3500 
L 1178 3500 
L 1178 0 
L 603 0 
L 603 3500 
z
M 603 4863 
L 1178 4863 
L 1178 4134 
L 603 4134 
L 603 4863 
z
" transform="scale(0.015625)"/>
       <path id="DejaVuSans-73" d="M 2834 3397 
L 2834 2853 
Q 2591 2978 2328 3040 
Q 2066 3103 1784 3103 
Q 1356 3103 1142 2972 
Q 928 2841 928 2578 
Q 928 2378 1081 2264 
Q 1234 2150 1697 2047 
L 1894 2003 
Q 2506 1872 2764 1633 
Q 3022 1394 3022 966 
Q 3022 478 2636 193 
Q 2250 -91 1575 -91 
Q 1294 -91 989 -36 
Q 684 19 347 128 
L 347 722 
Q 666 556 975 473 
Q 1284 391 1588 391 
Q 1994 391 2212 530 
Q 2431 669 2431 922 
Q 2431 1156 2273 1281 
Q 2116 1406 1581 1522 
L 1381 1569 
Q 847 1681 609 1914 
Q 372 2147 372 2553 
Q 372 3047 722 3315 
Q 1072 3584 1716 3584 
Q 2034 3584 2315 3537 
Q 2597 3491 2834 3397 
z
" transform="scale(0.015625)"/>
       <path id="DejaVuSans-6f" d="M 1959 3097 
Q 1497 3097 1228 2736 
Q 959 2375 959 1747 
Q 959 1119 1226 758 
Q 1494 397 1959 397 
Q 2419 397 2687 759 
Q 2956 1122 2956 1747 
Q 2956 2369 2687 2733 
Q 2419 3097 1959 3097 
z
M 1959 3584 
Q 2709 3584 3137 3096 
Q 3566 2609 3566 1747 
Q 3566 888 3137 398 
Q 2709 -91 1959 -91 
Q 1206 -91 779 398 
Q 353 888 353 1747 
Q 353 2609 779 3096 
Q 1206 3584 1959 3584 
z
" transform="scale(0.015625)"/>
       <path id="DejaVuSans-64" d="M 2906 2969 
L 2906 4863 
L 3481 4863 
L 3481 0 
L 2906 0 
L 2906 525 
Q 2725 213 2448 61 
Q 2172 -91 1784 -91 
Q 1150 -91 751 415 
Q 353 922 353 1747 
Q 353 2572 751 3078 
Q 1150 3584 1784 3584 
Q 2172 3584 2448 3432 
Q 2725 3281 2906 2969 
z
M 947 1747 
Q 947 1113 1208 752 
Q 1469 391 1925 391 
Q 2381 391 2643 752 
Q 2906 1113 2906 1747 
Q 2906 2381 2643 2742 
Q 2381 3103 1925 3103 
Q 1469 3103 1208 2742 
Q 947 2381 947 1747 
z
" transform="scale(0.015625)"/>
       <path id="DejaVuSans-65" d="M 3597 1894 
L 3597 1613 
L 953 1613 
Q 991 1019 1311 708 
Q 1631 397 2203 397 
Q 2534 397 2845 478 
Q 3156 559 3463 722 
L 3463 178 
Q 3153 47 2828 -22 
Q 2503 -91 2169 -91 
Q 1331 -91 842 396 
Q 353 884 353 1716 
Q 353 2575 817 3079 
Q 1281 3584 2069 3584 
Q 2775 3584 3186 3129 
Q 3597 2675 3597 1894 
z
M 3022 2063 
Q 3016 2534 2758 2815 
Q 2500 3097 2075 3097 
Q 1594 3097 1305 2825 
Q 1016 2553 972 2059 
L 3022 2063 
z
" transform="scale(0.015625)"/>
      </defs>
      <use xlink:href="#DejaVuSans-45"/>
      <use xlink:href="#DejaVuSans-70" transform="translate(63.183594 0)"/>
      <use xlink:href="#DejaVuSans-69" transform="translate(126.660156 0)"/>
      <use xlink:href="#DejaVuSans-73" transform="translate(154.443359 0)"/>
      <use xlink:href="#DejaVuSans-6f" transform="translate(206.542969 0)"/>
      <use xlink:href="#DejaVuSans-64" transform="translate(267.724609 0)"/>
      <use xlink:href="#DejaVuSans-65" transform="translate(331.201172 0)"/>
      <use xlink:href="#DejaVuSans-73" transform="translate(392.724609 0)"/>
     </g>
    </g>
   </g>
   <g id="matplotlib.axis_2">
    <g id="ytick_1">
     <g id="line2d_13">
      <path d="M 53.93 352.152857 
L 709.2 352.152857 
" clip-path="url(#p829457bf65)" style="fill: none; stroke: #b0b0b0; stroke-width: 0.8; stroke-linecap: square"/>
     </g>
     <g id="line2d_14">
      <defs>
       <path id="m2a4f5f3d86" d="M 0 0 
L -3.5 0 
" style="stroke: #000000; stroke-width: 0.8"/>
      </defs>
      <g>
       <use xlink:href="#m2a4f5f3d86" x="53.93" y="352.152857" style="stroke: #000000; stroke-width: 0.8"/>
      </g>
     </g>
     <g id="text_8">
      <!-- 2.25 -->
      <g transform="translate(24.664375 355.952076) scale(0.1 -0.1)">
       <defs>
        <path id="DejaVuSans-2e" d="M 684 794 
L 1344 794 
L 1344 0 
L 684 0 
L 684 794 
z
" transform="scale(0.015625)"/>
       </defs>
       <use xlink:href="#DejaVuSans-32"/>
       <use xlink:href="#DejaVuSans-2e" transform="translate(63.623047 0)"/>
       <use xlink:href="#DejaVuSans-32" transform="translate(95.410156 0)"/>
       <use xlink:href="#DejaVuSans-35" transform="translate(159.033203 0)"/>
      </g>
     </g>
    </g>
    <g id="ytick_2">
     <g id="line2d_15">
      <path d="M 53.93 308.343365 
L 709.2 308.343365 
" clip-path="url(#p829457bf65)" style="fill: none; stroke: #b0b0b0; stroke-width: 0.8; stroke-linecap: square"/>
     </g>
     <g id="line2d_16">
      <g>
       <use xlink:href="#m2a4f5f3d86" x="53.93" y="308.343365" style="stroke: #000000; stroke-width: 0.8"/>
      </g>
     </g>
     <g id="text_9">
      <!-- 2.50 -->
      <g transform="translate(24.664375 312.142584) scale(0.1 -0.1)">
       <use xlink:href="#DejaVuSans-32"/>
       <use xlink:href="#DejaVuSans-2e" transform="translate(63.623047 0)"/>
       <use xlink:href="#DejaVuSans-35" transform="translate(95.410156 0)"/>
       <use xlink:href="#DejaVuSans-30" transform="translate(159.033203 0)"/>
      </g>
     </g>
    </g>
    <g id="ytick_3">
     <g id="line2d_17">
      <path d="M 53.93 264.533873 
L 709.2 264.533873 
" clip-path="url(#p829457bf65)" style="fill: none; stroke: #b0b0b0; stroke-width: 0.8; stroke-linecap: square"/>
     </g>
     <g id="line2d_18">
      <g>
       <use xlink:href="#m2a4f5f3d86" x="53.93" y="264.533873" style="stroke: #000000; stroke-width: 0.8"/>
      </g>
     </g>
     <g id="text_10">
      <!-- 2.75 -->
      <g transform="translate(24.664375 268.333092) scale(0.1 -0.1)">
       <defs>
        <path id="DejaVuSans-37" d="M 525 4666 
L 3525 4666 
L 3525 4397 
L 1831 0 
L 1172 0 
L 2766 4134 
L 525 4134 
L 525 4666 
z
" transform="scale(0.015625)"/>
       </defs>
       <use xlink:href="#DejaVuSans-32"/>
       <use xlink:href="#DejaVuSans-2e" transform="translate(63.623047 0)"/>
       <use xlink:href="#DejaVuSans-37" transform="translate(95.410156 0)"/>
       <use xlink:href="#DejaVuSans-35" transform="translate(159.033203 0)"/>
      </g>
     </g>
    </g>
    <g id="ytick_4">
     <g id="line2d_19">
      <path d="M 53.93 220.724381 
L 709.2 220.724381 
" clip-path="url(#p829457bf65)" style="fill: none; stroke: #b0b0b0; stroke-width: 0.8; stroke-linecap: square"/>
     </g>
     <g id="line2d_20">
      <g>
       <use xlink:href="#m2a4f5f3d86" x="53.93" y="220.724381" style="stroke: #000000; stroke-width: 0.8"/>
      </g>
     </g>
     <g id="text_11">
      <!-- 3.00 -->
      <g transform="translate(24.664375 224.5236) scale(0.1 -0.1)">
       <use xlink:href="#DejaVuSans-33"/>
       <use xlink:href="#DejaVuSans-2e" transform="translate(63.623047 0)"/>
       <use xlink:href="#DejaVuSans-30" transform="translate(95.410156 0)"/>
       <use xlink:href="#DejaVuSans-30" transform="translate(159.033203 0)"/>
      </g>
     </g>
    </g>
    <g id="ytick_5">
     <g id="line2d_21">
      <path d="M 53.93 176.914889 
L 709.2 176.914889 
" clip-path="url(#p829457bf65)" style="fill: none; stroke: #b0b0b0; stroke-width: 0.8; stroke-linecap: square"/>
     </g>
     <g id="line2d_22">
      <g>
       <use xlink:href="#m2a4f5f3d86" x="53.93" y="176.914889" style="stroke: #000000; stroke-width: 0.8"/>
      </g>
     </g>
     <g id="text_12">
      <!-- 3.25 -->
      <g transform="translate(24.664375 180.714107) scale(0.1 -0.1)">
       <use xlink:href="#DejaVuSans-33"/>
       <use xlink:href="#DejaVuSans-2e" transform="translate(63.623047 0)"/>
       <use xlink:href="#DejaVuSans-32" transform="translate(95.410156 0)"/>
       <use xlink:href="#DejaVuSans-35" transform="translate(159.033203 0)"/>
      </g>
     </g>
    </g>
    <g id="ytick_6">
     <g id="line2d_23">
      <path d="M 53.93 133.105397 
L 709.2 133.105397 
" clip-path="url(#p829457bf65)" style="fill: none; stroke: #b0b0b0; stroke-width: 0.8; stroke-linecap: square"/>
     </g>
     <g id="line2d_24">
      <g>
       <use xlink:href="#m2a4f5f3d86" x="53.93" y="133.105397" style="stroke: #000000; stroke-width: 0.8"/>
      </g>
     </g>
     <g id="text_13">
      <!-- 3.50 -->
      <g transform="translate(24.664375 136.904615) scale(0.1 -0.1)">
       <use xlink:href="#DejaVuSans-33"/>
       <use xlink:href="#DejaVuSans-2e" transform="translate(63.623047 0)"/>
       <use xlink:href="#DejaVuSans-35" transform="translate(95.410156 0)"/>
       <use xlink:href="#DejaVuSans-30" transform="translate(159.033203 0)"/>
      </g>
     </g>
    </g>
    <g id="ytick_7">
     <g id="line2d_25">
      <path d="M 53.93 89.295904 
L 709.2 89.295904 
" clip-path="url(#p829457bf65)" style="fill: none; stroke: #b0b0b0; stroke-width: 0.8; stroke-linecap: square"/>
     </g>
     <g id="line2d_26">
      <g>
       <use xlink:href="#m2a4f5f3d86" x="53.93" y="89.295904" style="stroke: #000000; stroke-width: 0.8"/>
      </g>
     </g>
     <g id="text_14">
      <!-- 3.75 -->
      <g transform="translate(24.664375 93.095123) scale(0.1 -0.1)">
       <use xlink:href="#DejaVuSans-33"/>
       <use xlink:href="#DejaVuSans-2e" transform="translate(63.623047 0)"/>
       <use xlink:href="#DejaVuSans-37" transform="translate(95.410156 0)"/>
       <use xlink:href="#DejaVuSans-35" transform="translate(159.033203 0)"/>
      </g>
     </g>
    </g>
    <g id="ytick_8">
     <g id="line2d_27">
      <path d="M 53.93 45.486412 
L 709.2 45.486412 
" clip-path="url(#p829457bf65)" style="fill: none; stroke: #b0b0b0; stroke-width: 0.8; stroke-linecap: square"/>
     </g>
     <g id="line2d_28">
      <g>
       <use xlink:href="#m2a4f5f3d86" x="53.93" y="45.486412" style="stroke: #000000; stroke-width: 0.8"/>
      </g>
     </g>
     <g id="text_15">
      <!-- 4.00 -->
      <g transform="translate(24.664375 49.285631) scale(0.1 -0.1)">
       <use xlink:href="#DejaVuSans-34"/>
       <use xlink:href="#DejaVuSans-2e" transform="translate(63.623047 0)"/>
       <use xlink:href="#DejaVuSans-30" transform="translate(95.410156 0)"/>
       <use xlink:href="#DejaVuSans-30" transform="translate(159.033203 0)"/>
      </g>
     </g>
    </g>
    <g id="text_16">
     <!-- Circuit Depth -->
     <g transform="translate(18.584688 233.329375) rotate(-90) scale(0.1 -0.1)">
      <defs>
       <path id="DejaVuSans-43" d="M 4122 4306 
L 4122 3641 
Q 3803 3938 3442 4084 
Q 3081 4231 2675 4231 
Q 1875 4231 1450 3742 
Q 1025 3253 1025 2328 
Q 1025 1406 1450 917 
Q 1875 428 2675 428 
Q 3081 428 3442 575 
Q 3803 722 4122 1019 
L 4122 359 
Q 3791 134 3420 21 
Q 3050 -91 2638 -91 
Q 1578 -91 968 557 
Q 359 1206 359 2328 
Q 359 3453 968 4101 
Q 1578 4750 2638 4750 
Q 3056 4750 3426 4639 
Q 3797 4528 4122 4306 
z
" transform="scale(0.015625)"/>
       <path id="DejaVuSans-72" d="M 2631 2963 
Q 2534 3019 2420 3045 
Q 2306 3072 2169 3072 
Q 1681 3072 1420 2755 
Q 1159 2438 1159 1844 
L 1159 0 
L 581 0 
L 581 3500 
L 1159 3500 
L 1159 2956 
Q 1341 3275 1631 3429 
Q 1922 3584 2338 3584 
Q 2397 3584 2469 3576 
Q 2541 3569 2628 3553 
L 2631 2963 
z
" transform="scale(0.015625)"/>
       <path id="DejaVuSans-63" d="M 3122 3366 
L 3122 2828 
Q 2878 2963 2633 3030 
Q 2388 3097 2138 3097 
Q 1578 3097 1268 2742 
Q 959 2388 959 1747 
Q 959 1106 1268 751 
Q 1578 397 2138 397 
Q 2388 397 2633 464 
Q 2878 531 3122 666 
L 3122 134 
Q 2881 22 2623 -34 
Q 2366 -91 2075 -91 
Q 1284 -91 818 406 
Q 353 903 353 1747 
Q 353 2603 823 3093 
Q 1294 3584 2113 3584 
Q 2378 3584 2631 3529 
Q 2884 3475 3122 3366 
z
" transform="scale(0.015625)"/>
       <path id="DejaVuSans-75" d="M 544 1381 
L 544 3500 
L 1119 3500 
L 1119 1403 
Q 1119 906 1312 657 
Q 1506 409 1894 409 
Q 2359 409 2629 706 
Q 2900 1003 2900 1516 
L 2900 3500 
L 3475 3500 
L 3475 0 
L 2900 0 
L 2900 538 
Q 2691 219 2414 64 
Q 2138 -91 1772 -91 
Q 1169 -91 856 284 
Q 544 659 544 1381 
z
M 1991 3584 
L 1991 3584 
z
" transform="scale(0.015625)"/>
       <path id="DejaVuSans-74" d="M 1172 4494 
L 1172 3500 
L 2356 3500 
L 2356 3053 
L 1172 3053 
L 1172 1153 
Q 1172 725 1289 603 
Q 1406 481 1766 481 
L 2356 481 
L 2356 0 
L 1766 0 
Q 1100 0 847 248 
Q 594 497 594 1153 
L 594 3053 
L 172 3053 
L 172 3500 
L 594 3500 
L 594 4494 
L 1172 4494 
z
" transform="scale(0.015625)"/>
       <path id="DejaVuSans-20" transform="scale(0.015625)"/>
       <path id="DejaVuSans-44" d="M 1259 4147 
L 1259 519 
L 2022 519 
Q 2988 519 3436 956 
Q 3884 1394 3884 2338 
Q 3884 3275 3436 3711 
Q 2988 4147 2022 4147 
L 1259 4147 
z
M 628 4666 
L 1925 4666 
Q 3281 4666 3915 4102 
Q 4550 3538 4550 2338 
Q 4550 1131 3912 565 
Q 3275 0 1925 0 
L 628 0 
L 628 4666 
z
" transform="scale(0.015625)"/>
       <path id="DejaVuSans-68" d="M 3513 2113 
L 3513 0 
L 2938 0 
L 2938 2094 
Q 2938 2591 2744 2837 
Q 2550 3084 2163 3084 
Q 1697 3084 1428 2787 
Q 1159 2491 1159 1978 
L 1159 0 
L 581 0 
L 581 4863 
L 1159 4863 
L 1159 2956 
Q 1366 3272 1645 3428 
Q 1925 3584 2291 3584 
Q 2894 3584 3203 3211 
Q 3513 2838 3513 2113 
z
" transform="scale(0.015625)"/>
      </defs>
      <use xlink:href="#DejaVuSans-43"/>
      <use xlink:href="#DejaVuSans-69" transform="translate(69.824219 0)"/>
      <use xlink:href="#DejaVuSans-72" transform="translate(97.607422 0)"/>
      <use xlink:href="#DejaVuSans-63" transform="translate(136.470703 0)"/>
      <use xlink:href="#DejaVuSans-75" transform="translate(191.451172 0)"/>
      <use xlink:href="#DejaVuSans-69" transform="translate(254.830078 0)"/>
      <use xlink:href="#DejaVuSans-74" transform="translate(282.613281 0)"/>
      <use xlink:href="#DejaVuSans-20" transform="translate(321.822266 0)"/>
      <use xlink:href="#DejaVuSans-44" transform="translate(353.609375 0)"/>
      <use xlink:href="#DejaVuSans-65" transform="translate(430.611328 0)"/>
      <use xlink:href="#DejaVuSans-70" transform="translate(492.134766 0)"/>
      <use xlink:href="#DejaVuSans-74" transform="translate(555.611328 0)"/>
      <use xlink:href="#DejaVuSans-68" transform="translate(594.820312 0)"/>
     </g>
    </g>
   </g>
   <g id="line2d_29">
    <path d="M 83.715 228.902153 
L 86.0978 227.441836 
L 88.4806 208.16566 
L 90.8634 201.156141 
L 93.2462 184.216471 
L 95.629 171.949813 
L 98.0118 152.673636 
L 100.3946 136.610156 
L 102.7774 137.486346 
L 105.1602 147.124434 
L 107.543 140.991105 
L 109.9258 148.876814 
L 112.3086 157.930775 
L 114.6914 155.302206 
L 117.0742 155.594269 
L 119.457 149.46094 
L 121.8398 172.533939 
L 124.2226 168.15299 
L 126.6054 168.445054 
L 128.9882 184.800597 
L 131.371 178.375205 
L 133.7538 184.216471 
L 136.1366 181.587901 
L 138.5194 177.499015 
L 140.9022 171.073623 
L 143.285 154.133953 
L 145.6678 155.010143 
L 148.0506 144.203801 
L 150.4334 138.654599 
L 152.8162 125.511751 
L 155.199 140.699042 
L 157.5818 119.962549 
L 159.9646 121.714929 
L 162.3474 127.264131 
L 164.7302 122.591118 
L 167.113 108.572081 
L 169.4958 126.680004 
L 171.8786 114.121283 
L 174.2614 117.626043 
L 176.6442 122.299055 
L 179.027 115.873663 
L 181.4098 120.254612 
L 183.7926 119.086359 
L 186.1754 113.537157 
L 188.5582 96.305423 
L 190.941 95.721297 
L 193.3238 97.181613 
L 195.7066 106.527638 
L 198.0894 114.70541 
L 200.4722 127.848258 
L 202.855 137.194282 
L 205.2378 135.441903 
L 207.6206 117.333979 
L 210.0034 106.235575 
L 212.3862 111.200651 
L 214.769 97.473676 
L 217.1518 92.800664 
L 219.5346 86.375272 
L 221.9174 83.454639 
L 224.3002 80.826069 
L 226.683 80.826069 
L 229.0658 76.44512 
L 231.4486 72.356234 
L 233.8314 64.762589 
L 236.2142 64.178462 
L 238.597 64.470526 
L 240.9798 62.134019 
L 243.3626 65.930842 
L 245.7454 64.762589 
L 248.1282 58.921323 
L 250.511 56.87688 
L 252.8938 51.327678 
L 255.2766 56.87688 
L 257.6594 59.797513 
L 260.0422 59.797513 
L 262.425 53.956248 
L 264.8078 54.540374 
L 267.1906 54.540374 
L 269.5734 67.099095 
L 271.9562 63.886399 
L 274.339 61.549893 
L 276.7218 57.461007 
L 279.1046 52.787994 
L 283.8702 48.114982 
L 286.253 48.699108 
L 288.6358 48.991172 
L 291.0186 51.619741 
L 293.4014 51.327678 
L 295.7842 47.822919 
L 298.167 50.451488 
L 300.5498 49.867362 
L 302.9326 48.114982 
L 305.3154 46.070539 
L 307.6982 46.362602 
L 310.081 49.575298 
L 312.4638 47.822919 
L 314.8466 48.699108 
L 317.2294 45.778476 
L 319.6122 49.867362 
L 321.995 47.822919 
L 324.3778 47.530855 
L 326.7606 47.530855 
L 329.1434 49.575298 
L 331.5262 46.362602 
L 333.909 46.362602 
L 336.2918 48.114982 
L 338.6746 48.407045 
L 341.0574 48.114982 
L 343.4402 47.238792 
L 345.823 46.654665 
L 348.2058 46.946729 
L 350.5886 50.159425 
L 352.9714 47.530855 
L 355.3542 48.407045 
L 357.737 47.822919 
L 360.1198 46.946729 
L 362.5026 45.778476 
L 364.8854 47.530855 
L 367.2682 47.238792 
L 369.651 45.486412 
L 372.0338 45.778476 
L 374.4166 47.822919 
L 376.7994 45.778476 
L 379.1822 46.654665 
L 381.565 48.114982 
L 383.9478 47.238792 
L 386.3306 48.407045 
L 388.7134 48.991172 
L 391.0962 46.946729 
L 393.479 46.654665 
L 395.8618 46.946729 
L 398.2446 46.070539 
L 400.6274 46.362602 
L 403.0102 46.362602 
L 405.393 48.991172 
L 407.7758 46.070539 
L 410.1586 46.654665 
L 412.5414 46.654665 
L 414.9242 47.530855 
L 417.307 47.530855 
L 419.6898 45.778476 
L 422.0726 47.530855 
L 424.4554 46.654665 
L 426.8382 45.486412 
L 429.221 46.946729 
L 431.6038 47.530855 
L 433.9866 48.699108 
L 436.3694 46.362602 
L 438.7522 46.362602 
L 441.135 47.238792 
L 443.5178 47.238792 
L 445.9006 46.654665 
L 448.2834 47.822919 
L 450.6662 46.070539 
L 453.049 46.070539 
L 455.4318 48.114982 
L 457.8146 46.362602 
L 460.1974 48.699108 
L 464.963 46.946729 
L 467.3458 46.362602 
L 469.7286 47.822919 
L 472.1114 46.946729 
L 474.4942 45.486412 
L 476.877 46.362602 
L 479.2598 47.530855 
L 481.6426 46.654665 
L 484.0254 46.362602 
L 486.4082 45.486412 
L 488.791 48.407045 
L 491.1738 46.654665 
L 493.5566 47.822919 
L 495.9394 47.530855 
L 498.3222 45.778476 
L 500.705 46.946729 
L 503.0878 45.486412 
L 505.4706 45.486412 
L 507.8534 46.946729 
L 510.2362 48.114982 
L 512.619 46.070539 
L 515.0018 46.362602 
L 517.3846 46.946729 
L 519.7674 46.070539 
L 522.1502 47.238792 
L 524.533 46.654665 
L 526.9158 47.238792 
L 529.2986 45.486412 
L 531.6814 47.530855 
L 534.0642 45.486412 
L 536.447 45.486412 
L 538.8298 45.778476 
L 541.2126 46.362602 
L 543.5954 46.654665 
L 545.9782 46.070539 
L 548.361 46.362602 
L 550.7438 45.486412 
L 553.1266 46.946729 
L 555.5094 46.070539 
L 557.8922 49.283235 
L 560.275 50.451488 
L 562.6578 47.822919 
L 565.0406 47.530855 
L 567.4234 46.362602 
L 569.8062 47.822919 
L 574.5718 51.911805 
L 576.9546 46.070539 
L 579.3374 46.654665 
L 581.7202 48.114982 
L 584.103 52.495931 
L 586.4858 47.530855 
L 588.8686 45.778476 
L 591.2514 46.946729 
L 593.6342 47.238792 
L 596.017 45.486412 
L 598.3998 49.283235 
L 600.7826 46.946729 
L 603.1654 45.486412 
L 605.5482 46.362602 
L 607.931 47.822919 
L 612.6966 45.486412 
L 615.0794 47.530855 
L 617.4622 45.486412 
L 619.845 48.407045 
L 622.2278 55.124501 
L 624.6106 64.178462 
L 626.9934 77.029247 
L 629.3762 81.994322 
L 631.759 73.816551 
L 636.5246 60.673703 
L 638.9074 52.495931 
L 641.2902 67.683222 
L 643.673 63.594336 
L 646.0558 57.168944 
L 648.4386 49.867362 
L 650.8214 50.451488 
L 653.2042 53.956248 
L 655.587 46.654665 
L 657.9698 46.654665 
L 660.3526 48.114982 
L 662.7354 45.778476 
L 665.1182 47.238792 
L 667.501 46.070539 
L 669.8838 49.867362 
L 672.2666 47.822919 
L 677.0322 50.159425 
L 679.415 47.530855 
L 679.415 47.530855 
" clip-path="url(#p829457bf65)" style="fill: none; stroke: #1f77b4; stroke-width: 1.5; stroke-linecap: square"/>
   </g>
   <g id="patch_3">
    <path d="M 53.93 390.04 
L 53.93 10.8 
" style="fill: none; stroke: #000000; stroke-width: 0.8; stroke-linejoin: miter; stroke-linecap: square"/>
   </g>
   <g id="patch_4">
    <path d="M 709.2 390.04 
L 709.2 10.8 
" style="fill: none; stroke: #000000; stroke-width: 0.8; stroke-linejoin: miter; stroke-linecap: square"/>
   </g>
   <g id="patch_5">
    <path d="M 53.93 390.04 
L 709.2 390.04 
" style="fill: none; stroke: #000000; stroke-width: 0.8; stroke-linejoin: miter; stroke-linecap: square"/>
   </g>
   <g id="patch_6">
    <path d="M 53.93 10.8 
L 709.2 10.8 
" style="fill: none; stroke: #000000; stroke-width: 0.8; stroke-linejoin: miter; stroke-linecap: square"/>
   </g>
  </g>
 </g>
 <defs>
  <clipPath id="p829457bf65">
   <rect x="53.93" y="10.8" width="655.27" height="379.24"/>
  </clipPath>
 </defs>
</svg>
