<?xml version="1.0" encoding="utf-8" standalone="no"?>
<!DOCTYPE svg PUBLIC "-//W3C//DTD SVG 1.1//EN"
  "http://www.w3.org/Graphics/SVG/1.1/DTD/svg11.dtd">
<svg xmlns:xlink="http://www.w3.org/1999/xlink" width="720pt" height="432pt" viewBox="0 0 720 432" xmlns="http://www.w3.org/2000/svg" version="1.1">
 <metadata>
  <rdf:RDF xmlns:dc="http://purl.org/dc/elements/1.1/" xmlns:cc="http://creativecommons.org/ns#" xmlns:rdf="http://www.w3.org/1999/02/22-rdf-syntax-ns#">
   <cc:Work>
    <dc:type rdf:resource="http://purl.org/dc/dcmitype/StillImage"/>
    <dc:date>2025-04-22T23:12:45.826208</dc:date>
    <dc:format>image/svg+xml</dc:format>
    <dc:creator>
     <cc:Agent>
      <dc:title>Matplotlib v3.10.0, https://matplotlib.org/</dc:title>
     </cc:Agent>
    </dc:creator>
   </cc:Work>
  </rdf:RDF>
 </metadata>
 <defs>
  <style type="text/css">*{stroke-linejoin: round; stroke-linecap: butt}</style>
 </defs>
 <g id="figure_1">
  <g id="patch_1">
   <path d="M 0 432 
L 720 432 
L 720 0 
L 0 0 
z
" style="fill: #ffffff"/>
  </g>
  <g id="axes_1">
   <g id="patch_2">
    <path d="M 47.72 390.04 
L 709.2 390.04 
L 709.2 10.8 
L 47.72 10.8 
z
" style="fill: #ffffff"/>
   </g>
   <g id="FillBetweenPolyCollection_1">
    <path d="M 77.787273 232.029704 
L 77.787273 353.977059 
L 80.192655 351.881895 
L 82.598036 350.117882 
L 85.003418 343.808687 
L 87.4088 349.418848 
L 89.814182 353.125844 
L 92.219564 350.053082 
L 94.624945 355.53423 
L 97.030327 358.34811 
L 99.435709 364.172298 
L 101.841091 364.283473 
L 104.246473 367.28313 
L 106.651855 359.961062 
L 109.057236 364.656204 
L 111.462618 365.599853 
L 113.868 368.437945 
L 116.273382 372.125165 
L 118.678764 371.812644 
L 121.084145 368.678919 
L 123.489527 371.497944 
L 125.894909 370.077343 
L 128.300291 371.650202 
L 130.705673 370.907629 
L 133.111055 372.128996 
L 135.516436 371.588792 
L 137.921818 372.801818 
L 140.3272 369.456306 
L 142.732582 360.518277 
L 145.137964 346.543451 
L 147.543345 342.125317 
L 149.948727 329.608252 
L 152.354109 322.523272 
L 154.759491 309.74065 
L 157.164873 294.736148 
L 159.570255 306.78126 
L 161.975636 309.800276 
L 164.381018 311.553203 
L 166.7864 316.187594 
L 169.191782 313.835108 
L 171.597164 324.021413 
L 174.002545 308.082566 
L 176.407927 308.51405 
L 178.813309 302.231901 
L 181.218691 283.976841 
L 183.624073 252.956307 
L 186.029455 253.918175 
L 188.434836 251.343608 
L 190.840218 266.799036 
L 193.2456 297.598237 
L 195.650982 310.183073 
L 198.056364 334.664055 
L 200.461745 349.817808 
L 202.867127 344.623584 
L 205.272509 358.035847 
L 207.677891 361.320151 
L 210.083273 343.909317 
L 212.488655 331.469603 
L 214.894036 331.913519 
L 217.299418 327.082541 
L 219.7048 314.508749 
L 222.110182 323.281588 
L 224.515564 317.323736 
L 226.920945 314.800538 
L 229.326327 312.835442 
L 231.731709 302.249103 
L 234.137091 299.893413 
L 236.542473 286.450318 
L 238.947855 278.867002 
L 241.353236 273.208337 
L 243.758618 255.863341 
L 246.164 251.605018 
L 248.569382 254.658656 
L 250.974764 262.283229 
L 253.380145 252.065046 
L 255.785527 257.955646 
L 258.190909 256.570517 
L 260.596291 238.015899 
L 263.001673 231.054786 
L 265.407055 241.369224 
L 267.812436 228.715861 
L 270.217818 234.371935 
L 272.6232 233.545019 
L 275.028582 218.787735 
L 277.433964 219.440413 
L 279.839345 216.066576 
L 282.244727 222.62675 
L 284.650109 234.37483 
L 287.055491 221.384879 
L 289.460873 212.927827 
L 291.866255 215.708724 
L 294.271636 207.739056 
L 296.677018 234.523829 
L 299.0824 245.870895 
L 301.487782 229.350529 
L 303.893164 220.44415 
L 306.298545 252.229252 
L 308.703927 240.024585 
L 311.109309 225.035406 
L 313.514691 215.021527 
L 315.920073 216.218762 
L 318.325455 211.196043 
L 320.730836 208.49952 
L 323.136218 207.217826 
L 325.5416 213.317613 
L 327.946982 209.841342 
L 330.352364 226.712535 
L 332.757745 220.602603 
L 335.163127 224.835366 
L 337.568509 210.130392 
L 339.973891 208.427143 
L 342.379273 204.221121 
L 344.784655 209.49336 
L 347.190036 206.757397 
L 349.595418 207.352788 
L 352.0008 204.169063 
L 354.406182 204.409905 
L 356.811564 202.673405 
L 359.216945 207.314612 
L 361.622327 207.066287 
L 364.027709 237.564676 
L 366.433091 268.793639 
L 368.838473 239.516905 
L 371.243855 222.069468 
L 373.649236 244.064515 
L 376.054618 244.015548 
L 378.46 236.984185 
L 380.865382 225.544044 
L 383.270764 213.543671 
L 385.676145 205.983256 
L 388.081527 202.6575 
L 390.486909 201.084413 
L 392.892291 205.838414 
L 395.297673 200.870049 
L 397.703055 196.016224 
L 400.108436 197.222068 
L 402.513818 207.210995 
L 404.9192 198.5283 
L 407.324582 209.710558 
L 409.729964 239.296717 
L 412.135345 266.240094 
L 414.540727 234.82507 
L 416.946109 213.169443 
L 419.351491 204.487705 
L 421.756873 201.193326 
L 424.162255 199.619402 
L 426.567636 197.806324 
L 428.973018 198.058767 
L 431.3784 197.452654 
L 433.783782 193.743705 
L 436.189164 194.453393 
L 438.594545 197.155518 
L 440.999927 194.542791 
L 443.405309 195.203057 
L 445.810691 195.299427 
L 448.216073 195.976979 
L 450.621455 191.377683 
L 453.026836 194.736536 
L 455.432218 193.983835 
L 457.8376 194.032418 
L 460.242982 198.345551 
L 462.648364 196.535618 
L 465.053745 192.765206 
L 467.459127 193.809264 
L 469.864509 195.147779 
L 472.269891 194.474569 
L 474.675273 195.94644 
L 477.080655 197.262608 
L 479.486036 193.137816 
L 481.891418 195.129849 
L 484.2968 195.06505 
L 486.702182 197.551459 
L 489.107564 196.473194 
L 491.512945 200.514208 
L 493.918327 200.039552 
L 496.323709 198.463109 
L 498.729091 192.654202 
L 501.134473 191.186047 
L 503.539855 193.203623 
L 505.945236 194.712579 
L 508.350618 194.686522 
L 510.756 191.920598 
L 513.161382 191.273883 
L 515.566764 192.733499 
L 517.972145 193.789944 
L 520.377527 193.249086 
L 522.782909 191.923695 
L 525.188291 197.33725 
L 527.593673 191.923465 
L 529.999055 194.651146 
L 532.404436 190.607943 
L 534.809818 191.019103 
L 537.2152 193.474609 
L 539.620582 194.552232 
L 542.025964 192.068685 
L 544.431345 195.199297 
L 546.836727 194.921814 
L 549.242109 191.31533 
L 551.647491 192.565847 
L 554.052873 193.316189 
L 556.458255 256.758587 
L 558.863636 234.778854 
L 561.269018 208.781435 
L 563.6744 195.81394 
L 566.079782 195.48121 
L 568.485164 195.356465 
L 570.890545 195.179616 
L 573.295927 196.92956 
L 575.701309 194.566662 
L 578.106691 192.215129 
L 580.512073 205.451152 
L 582.917455 203.337979 
L 585.322836 195.594194 
L 587.728218 193.675929 
L 590.1336 195.09906 
L 592.538982 193.809669 
L 594.944364 192.308175 
L 597.349745 196.793279 
L 599.755127 194.316411 
L 602.160509 205.793324 
L 604.565891 197.221361 
L 606.971273 193.963423 
L 609.376655 192.676536 
L 611.782036 192.593155 
L 614.187418 196.441461 
L 616.5928 190.542261 
L 618.998182 218.739993 
L 621.403564 259.488469 
L 623.808945 281.191621 
L 626.214327 309.986843 
L 628.619709 304.788845 
L 631.025091 316.176229 
L 633.430473 306.102431 
L 635.835855 285.542405 
L 638.241236 266.052022 
L 640.646618 286.623771 
L 643.052 316.166606 
L 645.457382 327.646802 
L 647.862764 337.123534 
L 650.268145 332.04643 
L 652.673527 311.4222 
L 655.078909 273.700366 
L 657.484291 248.102373 
L 659.889673 216.056923 
L 662.295055 213.632565 
L 664.700436 237.154042 
L 667.105818 250.236256 
L 669.5112 258.994493 
L 671.916582 281.903058 
L 674.321964 270.614101 
L 676.727345 262.943719 
L 679.132727 226.774421 
L 679.132727 53.42878 
L 679.132727 53.42878 
L 676.727345 54.478732 
L 674.321964 53.584372 
L 671.916582 50.934448 
L 669.5112 49.708285 
L 667.105818 51.917788 
L 664.700436 53.161809 
L 662.295055 53.822873 
L 659.889673 53.858575 
L 657.484291 51.613345 
L 655.078909 50.946845 
L 652.673527 62.490951 
L 650.268145 98.311039 
L 647.862764 113.831918 
L 645.457382 130.804147 
L 643.052 112.245551 
L 640.646618 83.311428 
L 638.241236 51.997986 
L 635.835855 48.125299 
L 633.430473 45.546514 
L 631.025091 44.047409 
L 628.619709 45.447489 
L 626.214327 44.242908 
L 623.808945 47.74774 
L 621.403564 49.333811 
L 618.998182 53.632639 
L 616.5928 55.546848 
L 614.187418 55.947789 
L 611.782036 55.83861 
L 609.376655 55.957866 
L 606.971273 55.705891 
L 604.565891 54.542847 
L 602.160509 54.045876 
L 599.755127 56.017637 
L 597.349745 56.623781 
L 594.944364 55.574589 
L 592.538982 56.20392 
L 590.1336 55.669927 
L 587.728218 55.728076 
L 585.322836 56.44535 
L 582.917455 56.060016 
L 580.512073 55.567941 
L 578.106691 55.587415 
L 575.701309 56.129208 
L 573.295927 55.609683 
L 570.890545 55.576419 
L 568.485164 56.533504 
L 566.079782 55.640825 
L 563.6744 56.612077 
L 561.269018 67.287137 
L 558.863636 81.515111 
L 556.458255 95.611928 
L 554.052873 56.369838 
L 551.647491 55.944047 
L 549.242109 55.946987 
L 546.836727 56.058585 
L 544.431345 55.076257 
L 542.025964 55.910592 
L 539.620582 55.270418 
L 537.2152 56.730754 
L 534.809818 55.824988 
L 532.404436 55.525036 
L 529.999055 55.382497 
L 527.593673 56.381703 
L 525.188291 57.90104 
L 522.782909 55.435135 
L 520.377527 56.253104 
L 517.972145 56.343139 
L 515.566764 56.381383 
L 513.161382 55.381357 
L 510.756 55.564412 
L 508.350618 56.054473 
L 505.945236 56.188437 
L 503.539855 55.785499 
L 501.134473 55.475879 
L 498.729091 57.252847 
L 496.323709 56.934365 
L 493.918327 59.083943 
L 491.512945 57.280654 
L 489.107564 58.711199 
L 486.702182 58.821599 
L 484.2968 58.431813 
L 481.891418 60.85423 
L 479.486036 58.012214 
L 477.080655 59.611822 
L 474.675273 57.702922 
L 472.269891 56.139829 
L 469.864509 56.244579 
L 467.459127 56.215188 
L 465.053745 57.320247 
L 462.648364 59.005166 
L 460.242982 61.668714 
L 457.8376 57.6499 
L 455.432218 56.332248 
L 453.026836 56.190801 
L 450.621455 55.947305 
L 448.216073 56.079696 
L 445.810691 55.126957 
L 443.405309 55.16358 
L 440.999927 55.228886 
L 438.594545 56.673502 
L 436.189164 56.58926 
L 433.783782 55.994548 
L 431.3784 56.122756 
L 428.973018 56.353096 
L 426.567636 56.304717 
L 424.162255 55.149269 
L 421.756873 55.071101 
L 419.351491 54.802495 
L 416.946109 54.628182 
L 414.540727 51.218269 
L 412.135345 49.422972 
L 409.729964 52.763489 
L 407.324582 53.747285 
L 404.9192 54.767178 
L 402.513818 55.056093 
L 400.108436 55.460067 
L 397.703055 55.248702 
L 395.297673 55.101494 
L 392.892291 54.215958 
L 390.486909 55.081412 
L 388.081527 55.240143 
L 385.676145 54.616775 
L 383.270764 54.287378 
L 380.865382 52.617748 
L 378.46 51.667536 
L 376.054618 50.960546 
L 373.649236 51.910559 
L 371.243855 53.181028 
L 368.838473 51.110209 
L 366.433091 48.425334 
L 364.027709 51.775168 
L 361.622327 55.974164 
L 359.216945 55.317221 
L 356.811564 54.741667 
L 354.406182 56.294577 
L 352.0008 55.484211 
L 349.595418 55.205093 
L 347.190036 54.462242 
L 344.784655 53.851673 
L 342.379273 55.208207 
L 339.973891 55.194062 
L 337.568509 55.777898 
L 335.163127 55.884666 
L 332.757745 53.554487 
L 330.352364 54.052619 
L 327.946982 55.675045 
L 325.5416 55.717559 
L 323.136218 54.722534 
L 320.730836 54.378402 
L 318.325455 54.037903 
L 315.920073 55.712661 
L 313.514691 54.109741 
L 311.109309 54.053082 
L 308.703927 53.22428 
L 306.298545 51.832506 
L 303.893164 53.561275 
L 301.487782 52.975559 
L 299.0824 52.345717 
L 296.677018 53.708405 
L 294.271636 57.282228 
L 291.866255 57.447715 
L 289.460873 56.227258 
L 287.055491 54.2922 
L 284.650109 53.639727 
L 282.244727 57.740653 
L 279.839345 55.430743 
L 277.433964 55.611626 
L 275.028582 55.607926 
L 272.6232 59.260556 
L 270.217818 59.20993 
L 267.812436 55.149021 
L 265.407055 58.038567 
L 263.001673 56.150894 
L 260.596291 62.162748 
L 258.190909 55.438386 
L 255.785527 53.94964 
L 253.380145 57.593266 
L 250.974764 57.14972 
L 248.569382 57.403307 
L 246.164 57.011695 
L 243.758618 58.423458 
L 241.353236 60.400452 
L 238.947855 57.99025 
L 236.542473 57.116941 
L 234.137091 60.174373 
L 231.731709 58.538984 
L 229.326327 60.352793 
L 226.920945 65.45995 
L 224.515564 66.574613 
L 222.110182 72.113611 
L 219.7048 71.781562 
L 217.299418 67.826334 
L 214.894036 68.550125 
L 212.488655 81.361606 
L 210.083273 77.001061 
L 207.677891 82.957029 
L 205.272509 78.487214 
L 202.867127 75.840159 
L 200.461745 76.253352 
L 198.056364 66.266289 
L 195.650982 61.229072 
L 193.2456 50.93678 
L 190.840218 34.942635 
L 188.434836 28.038182 
L 186.029455 31.091083 
L 183.624073 43.641301 
L 181.218691 61.843675 
L 178.813309 77.088537 
L 176.407927 87.124331 
L 174.002545 80.969473 
L 171.597164 92.336946 
L 169.191782 89.73328 
L 166.7864 78.47436 
L 164.381018 61.738656 
L 161.975636 61.700434 
L 159.570255 58.377944 
L 157.164873 67.145345 
L 154.759491 74.089602 
L 152.354109 86.629963 
L 149.948727 99.684211 
L 147.543345 129.135222 
L 145.137964 145.231089 
L 142.732582 172.288029 
L 140.3272 200.369545 
L 137.921818 210.157854 
L 135.516436 232.395444 
L 133.111055 240.954284 
L 130.705673 242.207405 
L 128.300291 238.014985 
L 125.894909 238.902219 
L 123.489527 232.108178 
L 121.084145 249.296072 
L 118.678764 243.923311 
L 116.273382 244.498634 
L 113.868 241.630432 
L 111.462618 230.363711 
L 109.057236 230.247799 
L 106.651855 224.110408 
L 104.246473 227.375199 
L 101.841091 228.273697 
L 99.435709 234.326529 
L 97.030327 222.310274 
L 94.624945 213.965313 
L 92.219564 223.919943 
L 89.814182 209.109674 
L 87.4088 213.870803 
L 85.003418 209.794483 
L 82.598036 213.195166 
L 80.192655 217.514035 
L 77.787273 232.029704 
z
" clip-path="url(#pef942c2536)" style="fill: #1f77b4; fill-opacity: 0.2"/>
   </g>
   <g id="matplotlib.axis_1">
    <g id="xtick_1">
     <g id="line2d_1">
      <path d="M 76.572555 390.04 
L 76.572555 10.8 
" clip-path="url(#pef942c2536)" style="fill: none; stroke: #b0b0b0; stroke-width: 0.8; stroke-linecap: square"/>
     </g>
     <g id="line2d_2">
      <defs>
       <path id="mc3a30388a0" d="M 0 0 
L 0 3.5 
" style="stroke: #000000; stroke-width: 0.8"/>
      </defs>
      <g>
       <use xlink:href="#mc3a30388a0" x="76.572555" y="390.04" style="stroke: #000000; stroke-width: 0.8"/>
      </g>
     </g>
     <g id="text_1">
      <!-- 0 -->
      <g transform="translate(73.391305 404.638438) scale(0.1 -0.1)">
       <defs>
        <path id="DejaVuSans-30" d="M 2034 4250 
Q 1547 4250 1301 3770 
Q 1056 3291 1056 2328 
Q 1056 1369 1301 889 
Q 1547 409 2034 409 
Q 2525 409 2770 889 
Q 3016 1369 3016 2328 
Q 3016 3291 2770 3770 
Q 2525 4250 2034 4250 
z
M 2034 4750 
Q 2819 4750 3233 4129 
Q 3647 3509 3647 2328 
Q 3647 1150 3233 529 
Q 2819 -91 2034 -91 
Q 1250 -91 836 529 
Q 422 1150 422 2328 
Q 422 3509 836 4129 
Q 1250 4750 2034 4750 
z
" transform="scale(0.015625)"/>
       </defs>
       <use xlink:href="#DejaVuSans-30"/>
      </g>
     </g>
    </g>
    <g id="xtick_2">
     <g id="line2d_3">
      <path d="M 196.841646 390.04 
L 196.841646 10.8 
" clip-path="url(#pef942c2536)" style="fill: none; stroke: #b0b0b0; stroke-width: 0.8; stroke-linecap: square"/>
     </g>
     <g id="line2d_4">
      <g>
       <use xlink:href="#mc3a30388a0" x="196.841646" y="390.04" style="stroke: #000000; stroke-width: 0.8"/>
      </g>
     </g>
     <g id="text_2">
      <!-- 10000 -->
      <g transform="translate(180.935396 404.638438) scale(0.1 -0.1)">
       <defs>
        <path id="DejaVuSans-31" d="M 794 531 
L 1825 531 
L 1825 4091 
L 703 3866 
L 703 4441 
L 1819 4666 
L 2450 4666 
L 2450 531 
L 3481 531 
L 3481 0 
L 794 0 
L 794 531 
z
" transform="scale(0.015625)"/>
       </defs>
       <use xlink:href="#DejaVuSans-31"/>
       <use xlink:href="#DejaVuSans-30" transform="translate(63.623047 0)"/>
       <use xlink:href="#DejaVuSans-30" transform="translate(127.246094 0)"/>
       <use xlink:href="#DejaVuSans-30" transform="translate(190.869141 0)"/>
       <use xlink:href="#DejaVuSans-30" transform="translate(254.492188 0)"/>
      </g>
     </g>
    </g>
    <g id="xtick_3">
     <g id="line2d_5">
      <path d="M 317.110737 390.04 
L 317.110737 10.8 
" clip-path="url(#pef942c2536)" style="fill: none; stroke: #b0b0b0; stroke-width: 0.8; stroke-linecap: square"/>
     </g>
     <g id="line2d_6">
      <g>
       <use xlink:href="#mc3a30388a0" x="317.110737" y="390.04" style="stroke: #000000; stroke-width: 0.8"/>
      </g>
     </g>
     <g id="text_3">
      <!-- 20000 -->
      <g transform="translate(301.204487 404.638438) scale(0.1 -0.1)">
       <defs>
        <path id="DejaVuSans-32" d="M 1228 531 
L 3431 531 
L 3431 0 
L 469 0 
L 469 531 
Q 828 903 1448 1529 
Q 2069 2156 2228 2338 
Q 2531 2678 2651 2914 
Q 2772 3150 2772 3378 
Q 2772 3750 2511 3984 
Q 2250 4219 1831 4219 
Q 1534 4219 1204 4116 
Q 875 4013 500 3803 
L 500 4441 
Q 881 4594 1212 4672 
Q 1544 4750 1819 4750 
Q 2544 4750 2975 4387 
Q 3406 4025 3406 3419 
Q 3406 3131 3298 2873 
Q 3191 2616 2906 2266 
Q 2828 2175 2409 1742 
Q 1991 1309 1228 531 
z
" transform="scale(0.015625)"/>
       </defs>
       <use xlink:href="#DejaVuSans-32"/>
       <use xlink:href="#DejaVuSans-30" transform="translate(63.623047 0)"/>
       <use xlink:href="#DejaVuSans-30" transform="translate(127.246094 0)"/>
       <use xlink:href="#DejaVuSans-30" transform="translate(190.869141 0)"/>
       <use xlink:href="#DejaVuSans-30" transform="translate(254.492188 0)"/>
      </g>
     </g>
    </g>
    <g id="xtick_4">
     <g id="line2d_7">
      <path d="M 437.379828 390.04 
L 437.379828 10.8 
" clip-path="url(#pef942c2536)" style="fill: none; stroke: #b0b0b0; stroke-width: 0.8; stroke-linecap: square"/>
     </g>
     <g id="line2d_8">
      <g>
       <use xlink:href="#mc3a30388a0" x="437.379828" y="390.04" style="stroke: #000000; stroke-width: 0.8"/>
      </g>
     </g>
     <g id="text_4">
      <!-- 30000 -->
      <g transform="translate(421.473578 404.638438) scale(0.1 -0.1)">
       <defs>
        <path id="DejaVuSans-33" d="M 2597 2516 
Q 3050 2419 3304 2112 
Q 3559 1806 3559 1356 
Q 3559 666 3084 287 
Q 2609 -91 1734 -91 
Q 1441 -91 1130 -33 
Q 819 25 488 141 
L 488 750 
Q 750 597 1062 519 
Q 1375 441 1716 441 
Q 2309 441 2620 675 
Q 2931 909 2931 1356 
Q 2931 1769 2642 2001 
Q 2353 2234 1838 2234 
L 1294 2234 
L 1294 2753 
L 1863 2753 
Q 2328 2753 2575 2939 
Q 2822 3125 2822 3475 
Q 2822 3834 2567 4026 
Q 2313 4219 1838 4219 
Q 1578 4219 1281 4162 
Q 984 4106 628 3988 
L 628 4550 
Q 988 4650 1302 4700 
Q 1616 4750 1894 4750 
Q 2613 4750 3031 4423 
Q 3450 4097 3450 3541 
Q 3450 3153 3228 2886 
Q 3006 2619 2597 2516 
z
" transform="scale(0.015625)"/>
       </defs>
       <use xlink:href="#DejaVuSans-33"/>
       <use xlink:href="#DejaVuSans-30" transform="translate(63.623047 0)"/>
       <use xlink:href="#DejaVuSans-30" transform="translate(127.246094 0)"/>
       <use xlink:href="#DejaVuSans-30" transform="translate(190.869141 0)"/>
       <use xlink:href="#DejaVuSans-30" transform="translate(254.492188 0)"/>
      </g>
     </g>
    </g>
    <g id="xtick_5">
     <g id="line2d_9">
      <path d="M 557.648919 390.04 
L 557.648919 10.8 
" clip-path="url(#pef942c2536)" style="fill: none; stroke: #b0b0b0; stroke-width: 0.8; stroke-linecap: square"/>
     </g>
     <g id="line2d_10">
      <g>
       <use xlink:href="#mc3a30388a0" x="557.648919" y="390.04" style="stroke: #000000; stroke-width: 0.8"/>
      </g>
     </g>
     <g id="text_5">
      <!-- 40000 -->
      <g transform="translate(541.742669 404.638438) scale(0.1 -0.1)">
       <defs>
        <path id="DejaVuSans-34" d="M 2419 4116 
L 825 1625 
L 2419 1625 
L 2419 4116 
z
M 2253 4666 
L 3047 4666 
L 3047 1625 
L 3713 1625 
L 3713 1100 
L 3047 1100 
L 3047 0 
L 2419 0 
L 2419 1100 
L 313 1100 
L 313 1709 
L 2253 4666 
z
" transform="scale(0.015625)"/>
       </defs>
       <use xlink:href="#DejaVuSans-34"/>
       <use xlink:href="#DejaVuSans-30" transform="translate(63.623047 0)"/>
       <use xlink:href="#DejaVuSans-30" transform="translate(127.246094 0)"/>
       <use xlink:href="#DejaVuSans-30" transform="translate(190.869141 0)"/>
       <use xlink:href="#DejaVuSans-30" transform="translate(254.492188 0)"/>
      </g>
     </g>
    </g>
    <g id="xtick_6">
     <g id="line2d_11">
      <path d="M 677.918009 390.04 
L 677.918009 10.8 
" clip-path="url(#pef942c2536)" style="fill: none; stroke: #b0b0b0; stroke-width: 0.8; stroke-linecap: square"/>
     </g>
     <g id="line2d_12">
      <g>
       <use xlink:href="#mc3a30388a0" x="677.918009" y="390.04" style="stroke: #000000; stroke-width: 0.8"/>
      </g>
     </g>
     <g id="text_6">
      <!-- 50000 -->
      <g transform="translate(662.011759 404.638438) scale(0.1 -0.1)">
       <defs>
        <path id="DejaVuSans-35" d="M 691 4666 
L 3169 4666 
L 3169 4134 
L 1269 4134 
L 1269 2991 
Q 1406 3038 1543 3061 
Q 1681 3084 1819 3084 
Q 2600 3084 3056 2656 
Q 3513 2228 3513 1497 
Q 3513 744 3044 326 
Q 2575 -91 1722 -91 
Q 1428 -91 1123 -41 
Q 819 9 494 109 
L 494 744 
Q 775 591 1075 516 
Q 1375 441 1709 441 
Q 2250 441 2565 725 
Q 2881 1009 2881 1497 
Q 2881 1984 2565 2268 
Q 2250 2553 1709 2553 
Q 1456 2553 1204 2497 
Q 953 2441 691 2322 
L 691 4666 
z
" transform="scale(0.015625)"/>
       </defs>
       <use xlink:href="#DejaVuSans-35"/>
       <use xlink:href="#DejaVuSans-30" transform="translate(63.623047 0)"/>
       <use xlink:href="#DejaVuSans-30" transform="translate(127.246094 0)"/>
       <use xlink:href="#DejaVuSans-30" transform="translate(190.869141 0)"/>
       <use xlink:href="#DejaVuSans-30" transform="translate(254.492188 0)"/>
      </g>
     </g>
    </g>
    <g id="text_7">
     <!-- Episodes -->
     <g transform="translate(356.217813 418.316562) scale(0.1 -0.1)">
      <defs>
       <path id="DejaVuSans-45" d="M 628 4666 
L 3578 4666 
L 3578 4134 
L 1259 4134 
L 1259 2753 
L 3481 2753 
L 3481 2222 
L 1259 2222 
L 1259 531 
L 3634 531 
L 3634 0 
L 628 0 
L 628 4666 
z
" transform="scale(0.015625)"/>
       <path id="DejaVuSans-70" d="M 1159 525 
L 1159 -1331 
L 581 -1331 
L 581 3500 
L 1159 3500 
L 1159 2969 
Q 1341 3281 1617 3432 
Q 1894 3584 2278 3584 
Q 2916 3584 3314 3078 
Q 3713 2572 3713 1747 
Q 3713 922 3314 415 
Q 2916 -91 2278 -91 
Q 1894 -91 1617 61 
Q 1341 213 1159 525 
z
M 3116 1747 
Q 3116 2381 2855 2742 
Q 2594 3103 2138 3103 
Q 1681 3103 1420 2742 
Q 1159 2381 1159 1747 
Q 1159 1113 1420 752 
Q 1681 391 2138 391 
Q 2594 391 2855 752 
Q 3116 1113 3116 1747 
z
" transform="scale(0.015625)"/>
       <path id="DejaVuSans-69" d="M 603 3500 
L 1178 3500 
L 1178 0 
L 603 0 
L 603 3500 
z
M 603 4863 
L 1178 4863 
L 1178 4134 
L 603 4134 
L 603 4863 
z
" transform="scale(0.015625)"/>
       <path id="DejaVuSans-73" d="M 2834 3397 
L 2834 2853 
Q 2591 2978 2328 3040 
Q 2066 3103 1784 3103 
Q 1356 3103 1142 2972 
Q 928 2841 928 2578 
Q 928 2378 1081 2264 
Q 1234 2150 1697 2047 
L 1894 2003 
Q 2506 1872 2764 1633 
Q 3022 1394 3022 966 
Q 3022 478 2636 193 
Q 2250 -91 1575 -91 
Q 1294 -91 989 -36 
Q 684 19 347 128 
L 347 722 
Q 666 556 975 473 
Q 1284 391 1588 391 
Q 1994 391 2212 530 
Q 2431 669 2431 922 
Q 2431 1156 2273 1281 
Q 2116 1406 1581 1522 
L 1381 1569 
Q 847 1681 609 1914 
Q 372 2147 372 2553 
Q 372 3047 722 3315 
Q 1072 3584 1716 3584 
Q 2034 3584 2315 3537 
Q 2597 3491 2834 3397 
z
" transform="scale(0.015625)"/>
       <path id="DejaVuSans-6f" d="M 1959 3097 
Q 1497 3097 1228 2736 
Q 959 2375 959 1747 
Q 959 1119 1226 758 
Q 1494 397 1959 397 
Q 2419 397 2687 759 
Q 2956 1122 2956 1747 
Q 2956 2369 2687 2733 
Q 2419 3097 1959 3097 
z
M 1959 3584 
Q 2709 3584 3137 3096 
Q 3566 2609 3566 1747 
Q 3566 888 3137 398 
Q 2709 -91 1959 -91 
Q 1206 -91 779 398 
Q 353 888 353 1747 
Q 353 2609 779 3096 
Q 1206 3584 1959 3584 
z
" transform="scale(0.015625)"/>
       <path id="DejaVuSans-64" d="M 2906 2969 
L 2906 4863 
L 3481 4863 
L 3481 0 
L 2906 0 
L 2906 525 
Q 2725 213 2448 61 
Q 2172 -91 1784 -91 
Q 1150 -91 751 415 
Q 353 922 353 1747 
Q 353 2572 751 3078 
Q 1150 3584 1784 3584 
Q 2172 3584 2448 3432 
Q 2725 3281 2906 2969 
z
M 947 1747 
Q 947 1113 1208 752 
Q 1469 391 1925 391 
Q 2381 391 2643 752 
Q 2906 1113 2906 1747 
Q 2906 2381 2643 2742 
Q 2381 3103 1925 3103 
Q 1469 3103 1208 2742 
Q 947 2381 947 1747 
z
" transform="scale(0.015625)"/>
       <path id="DejaVuSans-65" d="M 3597 1894 
L 3597 1613 
L 953 1613 
Q 991 1019 1311 708 
Q 1631 397 2203 397 
Q 2534 397 2845 478 
Q 3156 559 3463 722 
L 3463 178 
Q 3153 47 2828 -22 
Q 2503 -91 2169 -91 
Q 1331 -91 842 396 
Q 353 884 353 1716 
Q 353 2575 817 3079 
Q 1281 3584 2069 3584 
Q 2775 3584 3186 3129 
Q 3597 2675 3597 1894 
z
M 3022 2063 
Q 3016 2534 2758 2815 
Q 2500 3097 2075 3097 
Q 1594 3097 1305 2825 
Q 1016 2553 972 2059 
L 3022 2063 
z
" transform="scale(0.015625)"/>
      </defs>
      <use xlink:href="#DejaVuSans-45"/>
      <use xlink:href="#DejaVuSans-70" transform="translate(63.183594 0)"/>
      <use xlink:href="#DejaVuSans-69" transform="translate(126.660156 0)"/>
      <use xlink:href="#DejaVuSans-73" transform="translate(154.443359 0)"/>
      <use xlink:href="#DejaVuSans-6f" transform="translate(206.542969 0)"/>
      <use xlink:href="#DejaVuSans-64" transform="translate(267.724609 0)"/>
      <use xlink:href="#DejaVuSans-65" transform="translate(331.201172 0)"/>
      <use xlink:href="#DejaVuSans-73" transform="translate(392.724609 0)"/>
     </g>
    </g>
   </g>
   <g id="matplotlib.axis_2">
    <g id="ytick_1">
     <g id="line2d_13">
      <path d="M 47.72 345.179996 
L 709.2 345.179996 
" clip-path="url(#pef942c2536)" style="fill: none; stroke: #b0b0b0; stroke-width: 0.8; stroke-linecap: square"/>
     </g>
     <g id="line2d_14">
      <defs>
       <path id="mff3c7a1fec" d="M 0 0 
L -3.5 0 
" style="stroke: #000000; stroke-width: 0.8"/>
      </defs>
      <g>
       <use xlink:href="#mff3c7a1fec" x="47.72" y="345.179996" style="stroke: #000000; stroke-width: 0.8"/>
      </g>
     </g>
     <g id="text_8">
      <!-- 2.6 -->
      <g transform="translate(24.816875 348.979214) scale(0.1 -0.1)">
       <defs>
        <path id="DejaVuSans-2e" d="M 684 794 
L 1344 794 
L 1344 0 
L 684 0 
L 684 794 
z
" transform="scale(0.015625)"/>
        <path id="DejaVuSans-36" d="M 2113 2584 
Q 1688 2584 1439 2293 
Q 1191 2003 1191 1497 
Q 1191 994 1439 701 
Q 1688 409 2113 409 
Q 2538 409 2786 701 
Q 3034 994 3034 1497 
Q 3034 2003 2786 2293 
Q 2538 2584 2113 2584 
z
M 3366 4563 
L 3366 3988 
Q 3128 4100 2886 4159 
Q 2644 4219 2406 4219 
Q 1781 4219 1451 3797 
Q 1122 3375 1075 2522 
Q 1259 2794 1537 2939 
Q 1816 3084 2150 3084 
Q 2853 3084 3261 2657 
Q 3669 2231 3669 1497 
Q 3669 778 3244 343 
Q 2819 -91 2113 -91 
Q 1303 -91 875 529 
Q 447 1150 447 2328 
Q 447 3434 972 4092 
Q 1497 4750 2381 4750 
Q 2619 4750 2861 4703 
Q 3103 4656 3366 4563 
z
" transform="scale(0.015625)"/>
       </defs>
       <use xlink:href="#DejaVuSans-32"/>
       <use xlink:href="#DejaVuSans-2e" transform="translate(63.623047 0)"/>
       <use xlink:href="#DejaVuSans-36" transform="translate(95.410156 0)"/>
      </g>
     </g>
    </g>
    <g id="ytick_2">
     <g id="line2d_15">
      <path d="M 47.72 291.031953 
L 709.2 291.031953 
" clip-path="url(#pef942c2536)" style="fill: none; stroke: #b0b0b0; stroke-width: 0.8; stroke-linecap: square"/>
     </g>
     <g id="line2d_16">
      <g>
       <use xlink:href="#mff3c7a1fec" x="47.72" y="291.031953" style="stroke: #000000; stroke-width: 0.8"/>
      </g>
     </g>
     <g id="text_9">
      <!-- 2.8 -->
      <g transform="translate(24.816875 294.831172) scale(0.1 -0.1)">
       <defs>
        <path id="DejaVuSans-38" d="M 2034 2216 
Q 1584 2216 1326 1975 
Q 1069 1734 1069 1313 
Q 1069 891 1326 650 
Q 1584 409 2034 409 
Q 2484 409 2743 651 
Q 3003 894 3003 1313 
Q 3003 1734 2745 1975 
Q 2488 2216 2034 2216 
z
M 1403 2484 
Q 997 2584 770 2862 
Q 544 3141 544 3541 
Q 544 4100 942 4425 
Q 1341 4750 2034 4750 
Q 2731 4750 3128 4425 
Q 3525 4100 3525 3541 
Q 3525 3141 3298 2862 
Q 3072 2584 2669 2484 
Q 3125 2378 3379 2068 
Q 3634 1759 3634 1313 
Q 3634 634 3220 271 
Q 2806 -91 2034 -91 
Q 1263 -91 848 271 
Q 434 634 434 1313 
Q 434 1759 690 2068 
Q 947 2378 1403 2484 
z
M 1172 3481 
Q 1172 3119 1398 2916 
Q 1625 2713 2034 2713 
Q 2441 2713 2670 2916 
Q 2900 3119 2900 3481 
Q 2900 3844 2670 4047 
Q 2441 4250 2034 4250 
Q 1625 4250 1398 4047 
Q 1172 3844 1172 3481 
z
" transform="scale(0.015625)"/>
       </defs>
       <use xlink:href="#DejaVuSans-32"/>
       <use xlink:href="#DejaVuSans-2e" transform="translate(63.623047 0)"/>
       <use xlink:href="#DejaVuSans-38" transform="translate(95.410156 0)"/>
      </g>
     </g>
    </g>
    <g id="ytick_3">
     <g id="line2d_17">
      <path d="M 47.72 236.883911 
L 709.2 236.883911 
" clip-path="url(#pef942c2536)" style="fill: none; stroke: #b0b0b0; stroke-width: 0.8; stroke-linecap: square"/>
     </g>
     <g id="line2d_18">
      <g>
       <use xlink:href="#mff3c7a1fec" x="47.72" y="236.883911" style="stroke: #000000; stroke-width: 0.8"/>
      </g>
     </g>
     <g id="text_10">
      <!-- 3.0 -->
      <g transform="translate(24.816875 240.68313) scale(0.1 -0.1)">
       <use xlink:href="#DejaVuSans-33"/>
       <use xlink:href="#DejaVuSans-2e" transform="translate(63.623047 0)"/>
       <use xlink:href="#DejaVuSans-30" transform="translate(95.410156 0)"/>
      </g>
     </g>
    </g>
    <g id="ytick_4">
     <g id="line2d_19">
      <path d="M 47.72 182.735869 
L 709.2 182.735869 
" clip-path="url(#pef942c2536)" style="fill: none; stroke: #b0b0b0; stroke-width: 0.8; stroke-linecap: square"/>
     </g>
     <g id="line2d_20">
      <g>
       <use xlink:href="#mff3c7a1fec" x="47.72" y="182.735869" style="stroke: #000000; stroke-width: 0.8"/>
      </g>
     </g>
     <g id="text_11">
      <!-- 3.2 -->
      <g transform="translate(24.816875 186.535087) scale(0.1 -0.1)">
       <use xlink:href="#DejaVuSans-33"/>
       <use xlink:href="#DejaVuSans-2e" transform="translate(63.623047 0)"/>
       <use xlink:href="#DejaVuSans-32" transform="translate(95.410156 0)"/>
      </g>
     </g>
    </g>
    <g id="ytick_5">
     <g id="line2d_21">
      <path d="M 47.72 128.587826 
L 709.2 128.587826 
" clip-path="url(#pef942c2536)" style="fill: none; stroke: #b0b0b0; stroke-width: 0.8; stroke-linecap: square"/>
     </g>
     <g id="line2d_22">
      <g>
       <use xlink:href="#mff3c7a1fec" x="47.72" y="128.587826" style="stroke: #000000; stroke-width: 0.8"/>
      </g>
     </g>
     <g id="text_12">
      <!-- 3.4 -->
      <g transform="translate(24.816875 132.387045) scale(0.1 -0.1)">
       <use xlink:href="#DejaVuSans-33"/>
       <use xlink:href="#DejaVuSans-2e" transform="translate(63.623047 0)"/>
       <use xlink:href="#DejaVuSans-34" transform="translate(95.410156 0)"/>
      </g>
     </g>
    </g>
    <g id="ytick_6">
     <g id="line2d_23">
      <path d="M 47.72 74.439784 
L 709.2 74.439784 
" clip-path="url(#pef942c2536)" style="fill: none; stroke: #b0b0b0; stroke-width: 0.8; stroke-linecap: square"/>
     </g>
     <g id="line2d_24">
      <g>
       <use xlink:href="#mff3c7a1fec" x="47.72" y="74.439784" style="stroke: #000000; stroke-width: 0.8"/>
      </g>
     </g>
     <g id="text_13">
      <!-- 3.6 -->
      <g transform="translate(24.816875 78.239003) scale(0.1 -0.1)">
       <use xlink:href="#DejaVuSans-33"/>
       <use xlink:href="#DejaVuSans-2e" transform="translate(63.623047 0)"/>
       <use xlink:href="#DejaVuSans-36" transform="translate(95.410156 0)"/>
      </g>
     </g>
    </g>
    <g id="ytick_7">
     <g id="line2d_25">
      <path d="M 47.72 20.291742 
L 709.2 20.291742 
" clip-path="url(#pef942c2536)" style="fill: none; stroke: #b0b0b0; stroke-width: 0.8; stroke-linecap: square"/>
     </g>
     <g id="line2d_26">
      <g>
       <use xlink:href="#mff3c7a1fec" x="47.72" y="20.291742" style="stroke: #000000; stroke-width: 0.8"/>
      </g>
     </g>
     <g id="text_14">
      <!-- 3.8 -->
      <g transform="translate(24.816875 24.090961) scale(0.1 -0.1)">
       <use xlink:href="#DejaVuSans-33"/>
       <use xlink:href="#DejaVuSans-2e" transform="translate(63.623047 0)"/>
       <use xlink:href="#DejaVuSans-38" transform="translate(95.410156 0)"/>
      </g>
     </g>
    </g>
    <g id="text_15">
     <!-- Reward -->
     <g transform="translate(18.737188 219.041094) rotate(-90) scale(0.1 -0.1)">
      <defs>
       <path id="DejaVuSans-52" d="M 2841 2188 
Q 3044 2119 3236 1894 
Q 3428 1669 3622 1275 
L 4263 0 
L 3584 0 
L 2988 1197 
Q 2756 1666 2539 1819 
Q 2322 1972 1947 1972 
L 1259 1972 
L 1259 0 
L 628 0 
L 628 4666 
L 2053 4666 
Q 2853 4666 3247 4331 
Q 3641 3997 3641 3322 
Q 3641 2881 3436 2590 
Q 3231 2300 2841 2188 
z
M 1259 4147 
L 1259 2491 
L 2053 2491 
Q 2509 2491 2742 2702 
Q 2975 2913 2975 3322 
Q 2975 3731 2742 3939 
Q 2509 4147 2053 4147 
L 1259 4147 
z
" transform="scale(0.015625)"/>
       <path id="DejaVuSans-77" d="M 269 3500 
L 844 3500 
L 1563 769 
L 2278 3500 
L 2956 3500 
L 3675 769 
L 4391 3500 
L 4966 3500 
L 4050 0 
L 3372 0 
L 2619 2869 
L 1863 0 
L 1184 0 
L 269 3500 
z
" transform="scale(0.015625)"/>
       <path id="DejaVuSans-61" d="M 2194 1759 
Q 1497 1759 1228 1600 
Q 959 1441 959 1056 
Q 959 750 1161 570 
Q 1363 391 1709 391 
Q 2188 391 2477 730 
Q 2766 1069 2766 1631 
L 2766 1759 
L 2194 1759 
z
M 3341 1997 
L 3341 0 
L 2766 0 
L 2766 531 
Q 2569 213 2275 61 
Q 1981 -91 1556 -91 
Q 1019 -91 701 211 
Q 384 513 384 1019 
Q 384 1609 779 1909 
Q 1175 2209 1959 2209 
L 2766 2209 
L 2766 2266 
Q 2766 2663 2505 2880 
Q 2244 3097 1772 3097 
Q 1472 3097 1187 3025 
Q 903 2953 641 2809 
L 641 3341 
Q 956 3463 1253 3523 
Q 1550 3584 1831 3584 
Q 2591 3584 2966 3190 
Q 3341 2797 3341 1997 
z
" transform="scale(0.015625)"/>
       <path id="DejaVuSans-72" d="M 2631 2963 
Q 2534 3019 2420 3045 
Q 2306 3072 2169 3072 
Q 1681 3072 1420 2755 
Q 1159 2438 1159 1844 
L 1159 0 
L 581 0 
L 581 3500 
L 1159 3500 
L 1159 2956 
Q 1341 3275 1631 3429 
Q 1922 3584 2338 3584 
Q 2397 3584 2469 3576 
Q 2541 3569 2628 3553 
L 2631 2963 
z
" transform="scale(0.015625)"/>
      </defs>
      <use xlink:href="#DejaVuSans-52"/>
      <use xlink:href="#DejaVuSans-65" transform="translate(64.982422 0)"/>
      <use xlink:href="#DejaVuSans-77" transform="translate(126.505859 0)"/>
      <use xlink:href="#DejaVuSans-61" transform="translate(208.292969 0)"/>
      <use xlink:href="#DejaVuSans-72" transform="translate(269.572266 0)"/>
      <use xlink:href="#DejaVuSans-64" transform="translate(308.935547 0)"/>
     </g>
    </g>
   </g>
   <g id="line2d_27">
    <path d="M 77.787273 293.003381 
L 80.192655 284.697965 
L 82.598036 281.656524 
L 85.003418 276.801585 
L 87.4088 281.644826 
L 89.814182 281.117759 
L 92.219564 286.986513 
L 94.624945 284.749772 
L 97.030327 290.329192 
L 99.435709 299.249413 
L 101.841091 296.278585 
L 104.246473 297.329164 
L 106.651855 292.035735 
L 109.057236 297.452001 
L 111.462618 297.981782 
L 113.868 305.034189 
L 116.273382 308.311899 
L 118.678764 307.867978 
L 121.084145 308.987495 
L 123.489527 301.803061 
L 125.894909 304.489781 
L 128.300291 304.832593 
L 130.705673 306.557517 
L 133.111055 306.54164 
L 135.516436 301.992118 
L 137.921818 291.479836 
L 140.3272 284.912925 
L 142.732582 266.403153 
L 145.137964 245.88727 
L 147.543345 235.630269 
L 149.948727 214.646232 
L 152.354109 204.576618 
L 154.759491 191.915126 
L 157.164873 180.940746 
L 159.570255 182.579602 
L 161.975636 185.750355 
L 164.381018 186.645929 
L 166.7864 197.330977 
L 169.191782 201.784194 
L 171.597164 208.179179 
L 174.002545 194.52602 
L 176.407927 197.81919 
L 178.813309 189.660219 
L 181.218691 172.910258 
L 183.624073 148.298804 
L 186.029455 142.504629 
L 188.434836 139.690895 
L 190.840218 150.870835 
L 193.2456 174.267508 
L 195.650982 185.706073 
L 198.056364 200.465172 
L 200.461745 213.03558 
L 202.867127 210.231872 
L 205.272509 218.261531 
L 207.677891 222.13859 
L 210.083273 210.455189 
L 212.488655 206.415605 
L 214.894036 200.231822 
L 217.299418 197.454437 
L 219.7048 193.145155 
L 222.110182 197.697599 
L 224.515564 191.949175 
L 226.920945 190.130244 
L 229.326327 186.594118 
L 231.731709 180.394043 
L 234.137091 180.033893 
L 236.542473 171.783629 
L 238.947855 168.428626 
L 241.353236 166.804394 
L 243.758618 157.143399 
L 246.164 154.308357 
L 248.569382 156.030982 
L 250.974764 159.716475 
L 253.380145 154.829156 
L 255.785527 155.952643 
L 258.190909 156.004452 
L 260.596291 150.089323 
L 263.001673 143.60284 
L 265.407055 149.703896 
L 267.812436 141.932441 
L 270.217818 146.790932 
L 272.6232 146.402787 
L 275.028582 137.19783 
L 277.433964 137.526019 
L 279.839345 135.74866 
L 282.244727 140.183702 
L 284.650109 144.007278 
L 287.055491 137.83854 
L 289.460873 134.577542 
L 291.866255 136.57822 
L 294.271636 132.510642 
L 296.677018 144.116117 
L 299.0824 149.108306 
L 301.487782 141.163044 
L 303.893164 137.002713 
L 306.298545 152.030879 
L 308.703927 146.624433 
L 311.109309 139.544244 
L 313.514691 134.565634 
L 315.920073 135.965712 
L 318.325455 132.616973 
L 320.730836 131.438961 
L 323.136218 130.97018 
L 325.5416 134.517586 
L 327.946982 132.758193 
L 330.352364 140.382577 
L 332.757745 137.078545 
L 335.163127 140.360016 
L 337.568509 132.954145 
L 339.973891 131.810602 
L 342.379273 129.714664 
L 344.784655 131.672516 
L 347.190036 130.60982 
L 349.595418 131.278941 
L 352.0008 129.826637 
L 354.406182 130.352241 
L 356.811564 128.707536 
L 359.216945 131.315916 
L 361.622327 131.520225 
L 364.027709 144.669922 
L 366.433091 158.609487 
L 368.838473 145.313557 
L 371.243855 137.625248 
L 373.649236 147.987537 
L 376.054618 147.488047 
L 378.46 144.32586 
L 383.270764 133.915525 
L 385.676145 130.300015 
L 388.081527 128.948821 
L 390.486909 128.082912 
L 392.892291 130.027186 
L 395.297673 127.985772 
L 397.703055 125.632463 
L 400.108436 126.341067 
L 402.513818 131.133544 
L 404.9192 126.647739 
L 407.324582 131.728922 
L 409.729964 146.030103 
L 412.135345 157.831533 
L 414.540727 143.02167 
L 416.946109 133.898813 
L 419.351491 129.6451 
L 421.756873 128.132214 
L 424.162255 127.384336 
L 426.567636 127.05552 
L 428.973018 127.205932 
L 431.3784 126.787705 
L 433.783782 124.869126 
L 436.189164 125.521326 
L 438.594545 126.91451 
L 440.999927 124.885839 
L 443.405309 125.183319 
L 445.810691 125.213192 
L 448.216073 126.028337 
L 450.621455 123.662494 
L 453.026836 125.463669 
L 455.432218 125.158041 
L 457.8376 125.841159 
L 460.242982 130.007132 
L 462.648364 127.770392 
L 465.053745 125.042726 
L 467.459127 125.012226 
L 469.864509 125.696179 
L 472.269891 125.307199 
L 477.080655 128.437215 
L 479.486036 125.575015 
L 481.891418 127.99204 
L 484.2968 126.748431 
L 486.702182 128.186529 
L 489.107564 127.592196 
L 491.512945 128.897431 
L 493.918327 129.561748 
L 496.323709 127.698737 
L 498.729091 124.953524 
L 501.134473 123.330963 
L 503.539855 124.494561 
L 505.945236 125.450508 
L 508.350618 125.370497 
L 510.756 123.742505 
L 513.161382 123.32762 
L 515.566764 124.557441 
L 517.972145 125.066541 
L 520.377527 124.751095 
L 522.782909 123.679415 
L 525.188291 127.619145 
L 527.593673 124.152584 
L 529.999055 125.016822 
L 532.404436 123.06649 
L 534.809818 123.422045 
L 537.2152 125.102682 
L 539.620582 124.911325 
L 542.025964 123.989639 
L 544.431345 125.137777 
L 546.836727 125.490199 
L 549.242109 123.631159 
L 554.052873 124.843013 
L 556.458255 176.185258 
L 558.863636 158.146982 
L 561.269018 138.034286 
L 563.6744 126.213009 
L 566.079782 125.561018 
L 568.485164 125.944985 
L 570.890545 125.378018 
L 573.295927 126.269622 
L 575.701309 125.347935 
L 578.106691 123.901272 
L 580.512073 130.509546 
L 582.917455 129.698997 
L 585.322836 126.019772 
L 587.728218 124.702003 
L 590.1336 125.384494 
L 592.538982 125.006794 
L 594.944364 123.941382 
L 597.349745 126.70853 
L 599.755127 125.167024 
L 602.160509 129.9196 
L 604.565891 125.882104 
L 606.971273 124.834657 
L 609.376655 124.317201 
L 611.782036 124.215882 
L 614.187418 126.194625 
L 616.5928 123.044555 
L 618.998182 136.186316 
L 621.403564 154.41114 
L 623.808945 164.46968 
L 626.214327 177.114875 
L 628.619709 175.118167 
L 631.025091 180.111819 
L 633.430473 175.824473 
L 635.835855 166.833852 
L 638.241236 159.025004 
L 640.646618 184.967599 
L 643.052 214.206079 
L 645.457382 229.225474 
L 647.862764 225.477726 
L 650.268145 215.178735 
L 652.673527 186.956575 
L 655.078909 162.323605 
L 657.484291 149.857859 
L 659.889673 134.957749 
L 662.295055 133.727719 
L 664.700436 145.157925 
L 667.105818 151.077022 
L 669.5112 154.351389 
L 671.916582 166.418753 
L 674.321964 162.099237 
L 676.727345 158.711226 
L 679.132727 140.101601 
L 679.132727 140.101601 
" clip-path="url(#pef942c2536)" style="fill: none; stroke: #1f77b4; stroke-width: 1.5; stroke-linecap: square"/>
   </g>
   <g id="patch_3">
    <path d="M 47.72 390.04 
L 47.72 10.8 
" style="fill: none; stroke: #000000; stroke-width: 0.8; stroke-linejoin: miter; stroke-linecap: square"/>
   </g>
   <g id="patch_4">
    <path d="M 709.2 390.04 
L 709.2 10.8 
" style="fill: none; stroke: #000000; stroke-width: 0.8; stroke-linejoin: miter; stroke-linecap: square"/>
   </g>
   <g id="patch_5">
    <path d="M 47.72 390.04 
L 709.2 390.04 
" style="fill: none; stroke: #000000; stroke-width: 0.8; stroke-linejoin: miter; stroke-linecap: square"/>
   </g>
   <g id="patch_6">
    <path d="M 47.72 10.8 
L 709.2 10.8 
" style="fill: none; stroke: #000000; stroke-width: 0.8; stroke-linejoin: miter; stroke-linecap: square"/>
   </g>
  </g>
 </g>
 <defs>
  <clipPath id="pef942c2536">
   <rect x="47.72" y="10.8" width="661.48" height="379.24"/>
  </clipPath>
 </defs>
</svg>
