<?xml version="1.0" encoding="utf-8" standalone="no"?>
<!DOCTYPE svg PUBLIC "-//W3C//DTD SVG 1.1//EN"
  "http://www.w3.org/Graphics/SVG/1.1/DTD/svg11.dtd">
<svg xmlns:xlink="http://www.w3.org/1999/xlink" width="720pt" height="432pt" viewBox="0 0 720 432" xmlns="http://www.w3.org/2000/svg" version="1.1">
 <metadata>
  <rdf:RDF xmlns:dc="http://purl.org/dc/elements/1.1/" xmlns:cc="http://creativecommons.org/ns#" xmlns:rdf="http://www.w3.org/1999/02/22-rdf-syntax-ns#">
   <cc:Work>
    <dc:type rdf:resource="http://purl.org/dc/dcmitype/StillImage"/>
    <dc:date>2025-04-22T23:12:52.385750</dc:date>
    <dc:format>image/svg+xml</dc:format>
    <dc:creator>
     <cc:Agent>
      <dc:title>Matplotlib v3.10.0, https://matplotlib.org/</dc:title>
     </cc:Agent>
    </dc:creator>
   </cc:Work>
  </rdf:RDF>
 </metadata>
 <defs>
  <style type="text/css">*{stroke-linejoin: round; stroke-linecap: butt}</style>
 </defs>
 <g id="figure_1">
  <g id="patch_1">
   <path d="M 0 432 
L 720 432 
L 720 0 
L 0 0 
z
" style="fill: #ffffff"/>
  </g>
  <g id="axes_1">
   <g id="patch_2">
    <path d="M 44.66 390.04 
L 709.2 390.04 
L 709.2 10.8 
L 44.66 10.8 
z
" style="fill: #ffffff"/>
   </g>
   <g id="FillBetweenPolyCollection_1">
    <path d="M 74.866364 129.65963 
L 74.866364 323.299106 
L 77.282873 317.918855 
L 79.699382 307.330281 
L 82.115891 313.256701 
L 84.5324 307.34465 
L 86.948909 306.70584 
L 89.365418 307.45744 
L 91.781927 294.600036 
L 94.198436 304.69634 
L 96.614945 318.947557 
L 99.031455 318.162182 
L 101.447964 331.40843 
L 103.864473 337.245483 
L 106.280982 339.057413 
L 108.697491 334.508145 
L 111.114 340.375872 
L 113.530509 357.281939 
L 115.947018 360.603643 
L 118.363527 357.447722 
L 120.780036 368.19027 
L 123.196545 368.964303 
L 125.613055 372.801818 
L 128.029564 372.041695 
L 130.446073 368.61753 
L 132.862582 366.555592 
L 135.279091 358.608879 
L 137.6956 357.172393 
L 140.112109 353.07442 
L 142.528618 344.778566 
L 144.945127 340.932678 
L 147.361636 348.169245 
L 149.778145 335.863507 
L 152.194655 336.693809 
L 154.611164 330.784808 
L 157.027673 331.231794 
L 159.444182 321.859033 
L 161.860691 332.024132 
L 164.2772 323.388996 
L 166.693709 325.185169 
L 169.110218 326.98374 
L 171.526727 325.390547 
L 173.943236 332.459801 
L 176.359745 330.775304 
L 178.776255 334.603697 
L 181.192764 322.425883 
L 183.609273 323.59826 
L 186.025782 319.004867 
L 188.442291 318.819079 
L 190.8588 323.245949 
L 193.275309 327.484139 
L 195.691818 331.76409 
L 198.108327 327.565192 
L 200.524836 316.283004 
L 202.941345 304.871467 
L 205.357855 308.513851 
L 207.774364 294.239959 
L 210.190873 284.650353 
L 212.607382 285.567224 
L 215.023891 283.085504 
L 217.4404 287.80398 
L 219.856909 290.292876 
L 222.273418 294.178021 
L 224.689927 289.938247 
L 227.106436 283.729012 
L 229.522945 281.94639 
L 231.939455 281.829843 
L 234.355964 273.355335 
L 236.772473 278.624074 
L 239.188982 276.357351 
L 241.605491 260.764744 
L 244.022 257.003777 
L 246.438509 253.093411 
L 248.855018 263.820786 
L 251.271527 264.707018 
L 253.688036 261.612518 
L 256.104545 257.914223 
L 258.521055 253.958981 
L 260.937564 264.198712 
L 263.354073 288.942531 
L 265.770582 287.100398 
L 268.187091 284.341755 
L 270.6036 285.407163 
L 273.020109 275.150462 
L 275.436618 265.588659 
L 277.853127 250.431149 
L 280.269636 248.550888 
L 282.686145 249.610917 
L 285.102655 244.223925 
L 287.519164 230.9649 
L 289.935673 226.705456 
L 292.352182 223.279111 
L 294.768691 230.140746 
L 297.1852 235.294722 
L 299.601709 222.483894 
L 302.018218 224.627799 
L 304.434727 259.683215 
L 306.851236 255.36746 
L 309.267745 244.153326 
L 311.684255 236.721902 
L 314.100764 243.703713 
L 316.517273 258.897727 
L 318.933782 257.478612 
L 321.350291 246.339031 
L 323.7668 250.228497 
L 326.183309 251.461114 
L 328.599818 254.402025 
L 331.016327 260.040644 
L 333.432836 264.042054 
L 335.849345 258.736784 
L 338.265855 255.209862 
L 340.682364 251.828541 
L 343.098873 252.733173 
L 345.515382 244.259639 
L 347.931891 229.570296 
L 350.3484 224.397713 
L 352.764909 215.46796 
L 355.181418 205.744094 
L 357.597927 208.802824 
L 360.014436 209.647394 
L 362.430945 222.515043 
L 364.847455 237.25984 
L 367.263964 242.827798 
L 369.680473 245.884512 
L 372.096982 246.237401 
L 374.513491 249.495311 
L 376.93 239.988536 
L 379.346509 228.162356 
L 381.763018 221.861975 
L 384.179527 208.631308 
L 386.596036 193.568199 
L 389.012545 188.299209 
L 391.429055 188.669866 
L 393.845564 177.067948 
L 396.262073 174.476468 
L 398.678582 172.168331 
L 401.095091 179.712969 
L 403.5116 162.688672 
L 405.928109 162.742401 
L 408.344618 197.250585 
L 410.761127 237.648323 
L 413.177636 228.503365 
L 415.594145 222.017281 
L 418.010655 227.560917 
L 420.427164 226.961991 
L 422.843673 211.432235 
L 425.260182 220.710423 
L 427.676691 233.277444 
L 430.0932 240.230801 
L 432.509709 247.039574 
L 434.926218 243.698669 
L 437.342727 232.891117 
L 439.759236 208.306514 
L 442.175745 192.765124 
L 444.592255 189.815667 
L 447.008764 185.755436 
L 449.425273 188.200436 
L 451.841782 189.136106 
L 454.258291 179.510173 
L 456.6748 171.109632 
L 459.091309 213.733801 
L 461.507818 221.833861 
L 463.924327 237.22648 
L 466.340836 220.529117 
L 468.757345 210.562285 
L 471.173855 204.508601 
L 473.590364 192.65292 
L 476.006873 212.597031 
L 478.423382 197.671366 
L 480.839891 200.804249 
L 483.2564 202.489415 
L 485.672909 240.062275 
L 488.089418 246.387778 
L 490.505927 243.53351 
L 492.922436 215.772694 
L 495.338945 207.401086 
L 497.755455 213.22452 
L 500.171964 219.789836 
L 502.588473 226.919831 
L 505.004982 224.835575 
L 507.421491 203.776517 
L 509.838 204.32814 
L 512.254509 236.298828 
L 514.671018 248.815224 
L 517.087527 271.345048 
L 519.504036 272.441605 
L 521.920545 277.521083 
L 524.337055 256.582977 
L 526.753564 228.289465 
L 529.170073 224.266939 
L 531.586582 218.649262 
L 534.003091 191.805898 
L 536.4196 162.677988 
L 538.836109 146.984723 
L 541.252618 145.816837 
L 543.669127 147.674869 
L 546.085636 160.774393 
L 548.502145 162.232847 
L 550.918655 159.81404 
L 553.335164 156.229288 
L 555.751673 208.312317 
L 558.168182 208.01126 
L 560.584691 198.173144 
L 563.0012 217.504017 
L 565.417709 207.065285 
L 567.834218 202.462539 
L 570.250727 202.484215 
L 572.667236 197.044356 
L 575.083745 206.121164 
L 577.500255 222.756609 
L 579.916764 230.308676 
L 582.333273 225.130246 
L 584.749782 199.156134 
L 587.166291 186.806874 
L 589.5828 183.558997 
L 591.999309 184.536612 
L 594.415818 210.615143 
L 596.832327 235.865415 
L 599.248836 247.429917 
L 601.665345 263.817807 
L 604.081855 259.463397 
L 606.498364 237.461922 
L 608.914873 222.359895 
L 611.331382 229.138595 
L 613.747891 226.655694 
L 616.1644 216.693931 
L 618.580909 251.852918 
L 620.997418 279.100334 
L 623.413927 289.590876 
L 625.830436 311.739595 
L 628.246945 304.808909 
L 630.663455 293.173317 
L 633.079964 270.742152 
L 635.496473 244.174782 
L 637.912982 217.463532 
L 640.329491 247.242947 
L 642.746 273.563071 
L 645.162509 268.030556 
L 647.579018 261.379837 
L 649.995527 260.695103 
L 652.412036 253.910439 
L 654.828545 234.769751 
L 657.245055 219.674476 
L 659.661564 212.243171 
L 662.078073 216.073556 
L 664.494582 238.359914 
L 666.911091 241.03894 
L 669.3276 252.178543 
L 671.744109 257.473665 
L 674.160618 250.019415 
L 676.577127 250.183351 
L 678.993636 240.121311 
L 678.993636 87.868408 
L 678.993636 87.868408 
L 676.577127 114.36729 
L 674.160618 135.333131 
L 671.744109 160.81523 
L 669.3276 147.987481 
L 666.911091 128.239407 
L 664.494582 124.457236 
L 662.078073 119.638082 
L 659.661564 120.789434 
L 657.245055 110.363916 
L 654.828545 114.494643 
L 652.412036 110.167432 
L 649.995527 130.803461 
L 647.579018 135.791973 
L 645.162509 140.330158 
L 642.746 130.857887 
L 640.329491 88.311101 
L 637.912982 76.171526 
L 635.496473 89.173003 
L 633.079964 99.481737 
L 630.663455 112.981134 
L 628.246945 126.402381 
L 625.830436 141.061551 
L 623.413927 137.99584 
L 620.997418 138.5582 
L 618.580909 111.437003 
L 616.1644 79.304981 
L 613.747891 100.073303 
L 611.331382 109.567257 
L 608.914873 98.538266 
L 606.498364 92.57647 
L 604.081855 111.233262 
L 601.665345 137.293758 
L 599.248836 119.642168 
L 596.832327 111.980668 
L 594.415818 98.148574 
L 591.999309 100.746166 
L 589.5828 106.924258 
L 587.166291 109.034447 
L 584.749782 120.796485 
L 582.333273 137.371723 
L 579.916764 137.86654 
L 577.500255 126.035014 
L 575.083745 86.253173 
L 572.667236 64.915076 
L 570.250727 74.603874 
L 567.834218 66.746041 
L 565.417709 64.979918 
L 563.0012 65.730089 
L 560.584691 51.494253 
L 558.168182 47.171793 
L 555.751673 31.584489 
L 553.335164 28.038182 
L 550.918655 32.805709 
L 548.502145 47.879413 
L 546.085636 55.483885 
L 543.669127 58.970407 
L 541.252618 71.386981 
L 538.836109 73.370899 
L 536.4196 83.680015 
L 534.003091 87.173273 
L 531.586582 86.332289 
L 529.170073 83.393646 
L 526.753564 78.583169 
L 524.337055 91.420695 
L 521.920545 100.582315 
L 519.504036 95.891201 
L 517.087527 94.781495 
L 514.671018 93.357612 
L 512.254509 93.266793 
L 509.838 90.72523 
L 507.421491 74.414703 
L 505.004982 73.369598 
L 502.588473 69.709441 
L 500.171964 65.650532 
L 497.755455 40.855402 
L 495.338945 42.581491 
L 492.922436 52.963116 
L 490.505927 57.193107 
L 488.089418 76.401465 
L 485.672909 126.694629 
L 483.2564 122.50609 
L 480.839891 113.790304 
L 478.423382 102.58248 
L 476.006873 99.476079 
L 473.590364 102.24286 
L 471.173855 100.15777 
L 468.757345 100.407694 
L 466.340836 88.392189 
L 463.924327 91.3936 
L 461.507818 71.643607 
L 459.091309 62.881517 
L 456.6748 58.858992 
L 454.258291 67.47819 
L 451.841782 71.877784 
L 449.425273 71.079962 
L 447.008764 71.94906 
L 444.592255 73.089306 
L 442.175745 86.214047 
L 439.759236 91.474562 
L 437.342727 119.52508 
L 434.926218 131.883285 
L 432.509709 140.204055 
L 430.0932 149.0615 
L 427.676691 138.049576 
L 425.260182 119.886511 
L 422.843673 103.319908 
L 420.427164 100.712547 
L 418.010655 112.090475 
L 415.594145 111.015324 
L 413.177636 91.606844 
L 410.761127 77.576591 
L 408.344618 59.35078 
L 405.928109 58.243582 
L 403.5116 53.569605 
L 401.095091 57.347213 
L 398.678582 47.24175 
L 396.262073 43.830482 
L 393.845564 51.009593 
L 391.429055 44.450561 
L 389.012545 44.821218 
L 386.596036 46.643787 
L 384.179527 59.47414 
L 381.763018 68.306099 
L 379.346509 70.988359 
L 376.93 67.98723 
L 374.513491 62.420209 
L 372.096982 63.787036 
L 369.680473 67.92209 
L 367.263964 73.185067 
L 364.847455 81.589648 
L 362.430945 85.933493 
L 360.014436 91.079222 
L 357.597927 87.668858 
L 355.181418 94.824933 
L 352.764909 103.539119 
L 350.3484 108.004531 
L 347.931891 116.069523 
L 345.515382 106.265476 
L 343.098873 87.07581 
L 340.682364 89.241163 
L 338.265855 105.085845 
L 335.849345 135.440813 
L 333.432836 157.083464 
L 331.016327 154.781267 
L 328.599818 137.096539 
L 326.183309 124.436022 
L 323.7668 126.614179 
L 321.350291 134.91617 
L 318.933782 140.638739 
L 316.517273 128.976263 
L 314.100764 94.844548 
L 311.684255 87.328062 
L 309.267745 94.394935 
L 306.851236 109.183182 
L 304.434727 105.182608 
L 302.018218 99.737346 
L 299.601709 105.190645 
L 297.1852 120.27328 
L 294.768691 132.203634 
L 292.352182 141.271531 
L 289.935673 146.039875 
L 287.519164 141.622841 
L 285.102655 157.518 
L 282.686145 173.248093 
L 280.269636 156.500432 
L 277.853127 162.026909 
L 275.436618 161.998057 
L 273.020109 168.983223 
L 270.6036 180.158787 
L 268.187091 170.665653 
L 265.770582 172.477126 
L 263.354073 175.520288 
L 260.937564 154.247773 
L 258.521055 146.364633 
L 256.104545 135.633013 
L 253.688036 140.917359 
L 251.271527 146.805499 
L 248.855018 154.310519 
L 246.438509 151.485138 
L 244.022 150.253805 
L 241.605491 146.965608 
L 239.188982 157.217792 
L 236.772473 174.334661 
L 234.355964 184.173516 
L 231.939455 190.039715 
L 229.522945 180.625347 
L 227.106436 185.934283 
L 224.689927 190.598772 
L 222.273418 186.831767 
L 219.856909 188.66824 
L 217.4404 180.756184 
L 215.023891 171.449133 
L 212.607382 168.809823 
L 210.190873 174.61199 
L 207.774364 180.938993 
L 205.357855 190.303629 
L 202.941345 199.146489 
L 200.524836 201.760479 
L 198.108327 219.002114 
L 195.691818 218.90056 
L 193.275309 219.240757 
L 190.8588 211.186913 
L 188.442291 208.679814 
L 186.025782 215.270405 
L 183.609273 220.762783 
L 181.192764 223.826242 
L 178.776255 222.994922 
L 176.359745 217.683084 
L 173.943236 210.64052 
L 171.526727 206.678462 
L 169.110218 218.007664 
L 166.693709 204.992757 
L 164.2772 213.407718 
L 161.860691 207.609205 
L 159.444182 208.161304 
L 157.027673 211.395757 
L 154.611164 214.836957 
L 152.194655 217.910596 
L 149.778145 218.898488 
L 147.361636 223.29731 
L 144.945127 221.236057 
L 142.528618 223.851365 
L 140.112109 216.501053 
L 137.6956 216.815605 
L 135.279091 227.040793 
L 132.862582 217.833358 
L 130.446073 217.977683 
L 128.029564 222.275437 
L 125.613055 222.618445 
L 123.196545 215.582237 
L 120.780036 209.107122 
L 118.363527 199.678126 
L 115.947018 196.522205 
L 113.530509 184.872841 
L 111.114 177.825201 
L 108.697491 172.661615 
L 106.280982 171.894511 
L 103.864473 169.609097 
L 101.447964 166.621099 
L 99.031455 159.065442 
L 96.614945 147.879115 
L 94.198436 151.256609 
L 91.781927 135.508123 
L 89.365418 132.736491 
L 86.948909 124.19027 
L 84.5324 115.356771 
L 82.115891 118.427359 
L 79.699382 109.697893 
L 77.282873 123.378207 
L 74.866364 129.65963 
z
" clip-path="url(#p3e73ad7249)" style="fill: #1f77b4; fill-opacity: 0.2"/>
   </g>
   <g id="matplotlib.axis_1">
    <g id="xtick_1">
     <g id="line2d_1">
      <path d="M 73.646027 390.04 
L 73.646027 10.8 
" clip-path="url(#p3e73ad7249)" style="fill: none; stroke: #b0b0b0; stroke-width: 0.8; stroke-linecap: square"/>
     </g>
     <g id="line2d_2">
      <defs>
       <path id="m9d6c19955b" d="M 0 0 
L 0 3.5 
" style="stroke: #000000; stroke-width: 0.8"/>
      </defs>
      <g>
       <use xlink:href="#m9d6c19955b" x="73.646027" y="390.04" style="stroke: #000000; stroke-width: 0.8"/>
      </g>
     </g>
     <g id="text_1">
      <!-- 0 -->
      <g transform="translate(70.464777 404.638438) scale(0.1 -0.1)">
       <defs>
        <path id="DejaVuSans-30" d="M 2034 4250 
Q 1547 4250 1301 3770 
Q 1056 3291 1056 2328 
Q 1056 1369 1301 889 
Q 1547 409 2034 409 
Q 2525 409 2770 889 
Q 3016 1369 3016 2328 
Q 3016 3291 2770 3770 
Q 2525 4250 2034 4250 
z
M 2034 4750 
Q 2819 4750 3233 4129 
Q 3647 3509 3647 2328 
Q 3647 1150 3233 529 
Q 2819 -91 2034 -91 
Q 1250 -91 836 529 
Q 422 1150 422 2328 
Q 422 3509 836 4129 
Q 1250 4750 2034 4750 
z
" transform="scale(0.015625)"/>
       </defs>
       <use xlink:href="#DejaVuSans-30"/>
      </g>
     </g>
    </g>
    <g id="xtick_2">
     <g id="line2d_3">
      <path d="M 194.471481 390.04 
L 194.471481 10.8 
" clip-path="url(#p3e73ad7249)" style="fill: none; stroke: #b0b0b0; stroke-width: 0.8; stroke-linecap: square"/>
     </g>
     <g id="line2d_4">
      <g>
       <use xlink:href="#m9d6c19955b" x="194.471481" y="390.04" style="stroke: #000000; stroke-width: 0.8"/>
      </g>
     </g>
     <g id="text_2">
      <!-- 10000 -->
      <g transform="translate(178.565231 404.638438) scale(0.1 -0.1)">
       <defs>
        <path id="DejaVuSans-31" d="M 794 531 
L 1825 531 
L 1825 4091 
L 703 3866 
L 703 4441 
L 1819 4666 
L 2450 4666 
L 2450 531 
L 3481 531 
L 3481 0 
L 794 0 
L 794 531 
z
" transform="scale(0.015625)"/>
       </defs>
       <use xlink:href="#DejaVuSans-31"/>
       <use xlink:href="#DejaVuSans-30" transform="translate(63.623047 0)"/>
       <use xlink:href="#DejaVuSans-30" transform="translate(127.246094 0)"/>
       <use xlink:href="#DejaVuSans-30" transform="translate(190.869141 0)"/>
       <use xlink:href="#DejaVuSans-30" transform="translate(254.492188 0)"/>
      </g>
     </g>
    </g>
    <g id="xtick_3">
     <g id="line2d_5">
      <path d="M 315.296936 390.04 
L 315.296936 10.8 
" clip-path="url(#p3e73ad7249)" style="fill: none; stroke: #b0b0b0; stroke-width: 0.8; stroke-linecap: square"/>
     </g>
     <g id="line2d_6">
      <g>
       <use xlink:href="#m9d6c19955b" x="315.296936" y="390.04" style="stroke: #000000; stroke-width: 0.8"/>
      </g>
     </g>
     <g id="text_3">
      <!-- 20000 -->
      <g transform="translate(299.390686 404.638438) scale(0.1 -0.1)">
       <defs>
        <path id="DejaVuSans-32" d="M 1228 531 
L 3431 531 
L 3431 0 
L 469 0 
L 469 531 
Q 828 903 1448 1529 
Q 2069 2156 2228 2338 
Q 2531 2678 2651 2914 
Q 2772 3150 2772 3378 
Q 2772 3750 2511 3984 
Q 2250 4219 1831 4219 
Q 1534 4219 1204 4116 
Q 875 4013 500 3803 
L 500 4441 
Q 881 4594 1212 4672 
Q 1544 4750 1819 4750 
Q 2544 4750 2975 4387 
Q 3406 4025 3406 3419 
Q 3406 3131 3298 2873 
Q 3191 2616 2906 2266 
Q 2828 2175 2409 1742 
Q 1991 1309 1228 531 
z
" transform="scale(0.015625)"/>
       </defs>
       <use xlink:href="#DejaVuSans-32"/>
       <use xlink:href="#DejaVuSans-30" transform="translate(63.623047 0)"/>
       <use xlink:href="#DejaVuSans-30" transform="translate(127.246094 0)"/>
       <use xlink:href="#DejaVuSans-30" transform="translate(190.869141 0)"/>
       <use xlink:href="#DejaVuSans-30" transform="translate(254.492188 0)"/>
      </g>
     </g>
    </g>
    <g id="xtick_4">
     <g id="line2d_7">
      <path d="M 436.12239 390.04 
L 436.12239 10.8 
" clip-path="url(#p3e73ad7249)" style="fill: none; stroke: #b0b0b0; stroke-width: 0.8; stroke-linecap: square"/>
     </g>
     <g id="line2d_8">
      <g>
       <use xlink:href="#m9d6c19955b" x="436.12239" y="390.04" style="stroke: #000000; stroke-width: 0.8"/>
      </g>
     </g>
     <g id="text_4">
      <!-- 30000 -->
      <g transform="translate(420.21614 404.638438) scale(0.1 -0.1)">
       <defs>
        <path id="DejaVuSans-33" d="M 2597 2516 
Q 3050 2419 3304 2112 
Q 3559 1806 3559 1356 
Q 3559 666 3084 287 
Q 2609 -91 1734 -91 
Q 1441 -91 1130 -33 
Q 819 25 488 141 
L 488 750 
Q 750 597 1062 519 
Q 1375 441 1716 441 
Q 2309 441 2620 675 
Q 2931 909 2931 1356 
Q 2931 1769 2642 2001 
Q 2353 2234 1838 2234 
L 1294 2234 
L 1294 2753 
L 1863 2753 
Q 2328 2753 2575 2939 
Q 2822 3125 2822 3475 
Q 2822 3834 2567 4026 
Q 2313 4219 1838 4219 
Q 1578 4219 1281 4162 
Q 984 4106 628 3988 
L 628 4550 
Q 988 4650 1302 4700 
Q 1616 4750 1894 4750 
Q 2613 4750 3031 4423 
Q 3450 4097 3450 3541 
Q 3450 3153 3228 2886 
Q 3006 2619 2597 2516 
z
" transform="scale(0.015625)"/>
       </defs>
       <use xlink:href="#DejaVuSans-33"/>
       <use xlink:href="#DejaVuSans-30" transform="translate(63.623047 0)"/>
       <use xlink:href="#DejaVuSans-30" transform="translate(127.246094 0)"/>
       <use xlink:href="#DejaVuSans-30" transform="translate(190.869141 0)"/>
       <use xlink:href="#DejaVuSans-30" transform="translate(254.492188 0)"/>
      </g>
     </g>
    </g>
    <g id="xtick_5">
     <g id="line2d_9">
      <path d="M 556.947845 390.04 
L 556.947845 10.8 
" clip-path="url(#p3e73ad7249)" style="fill: none; stroke: #b0b0b0; stroke-width: 0.8; stroke-linecap: square"/>
     </g>
     <g id="line2d_10">
      <g>
       <use xlink:href="#m9d6c19955b" x="556.947845" y="390.04" style="stroke: #000000; stroke-width: 0.8"/>
      </g>
     </g>
     <g id="text_5">
      <!-- 40000 -->
      <g transform="translate(541.041595 404.638438) scale(0.1 -0.1)">
       <defs>
        <path id="DejaVuSans-34" d="M 2419 4116 
L 825 1625 
L 2419 1625 
L 2419 4116 
z
M 2253 4666 
L 3047 4666 
L 3047 1625 
L 3713 1625 
L 3713 1100 
L 3047 1100 
L 3047 0 
L 2419 0 
L 2419 1100 
L 313 1100 
L 313 1709 
L 2253 4666 
z
" transform="scale(0.015625)"/>
       </defs>
       <use xlink:href="#DejaVuSans-34"/>
       <use xlink:href="#DejaVuSans-30" transform="translate(63.623047 0)"/>
       <use xlink:href="#DejaVuSans-30" transform="translate(127.246094 0)"/>
       <use xlink:href="#DejaVuSans-30" transform="translate(190.869141 0)"/>
       <use xlink:href="#DejaVuSans-30" transform="translate(254.492188 0)"/>
      </g>
     </g>
    </g>
    <g id="xtick_6">
     <g id="line2d_11">
      <path d="M 677.773299 390.04 
L 677.773299 10.8 
" clip-path="url(#p3e73ad7249)" style="fill: none; stroke: #b0b0b0; stroke-width: 0.8; stroke-linecap: square"/>
     </g>
     <g id="line2d_12">
      <g>
       <use xlink:href="#m9d6c19955b" x="677.773299" y="390.04" style="stroke: #000000; stroke-width: 0.8"/>
      </g>
     </g>
     <g id="text_6">
      <!-- 50000 -->
      <g transform="translate(661.867049 404.638438) scale(0.1 -0.1)">
       <defs>
        <path id="DejaVuSans-35" d="M 691 4666 
L 3169 4666 
L 3169 4134 
L 1269 4134 
L 1269 2991 
Q 1406 3038 1543 3061 
Q 1681 3084 1819 3084 
Q 2600 3084 3056 2656 
Q 3513 2228 3513 1497 
Q 3513 744 3044 326 
Q 2575 -91 1722 -91 
Q 1428 -91 1123 -41 
Q 819 9 494 109 
L 494 744 
Q 775 591 1075 516 
Q 1375 441 1709 441 
Q 2250 441 2565 725 
Q 2881 1009 2881 1497 
Q 2881 1984 2565 2268 
Q 2250 2553 1709 2553 
Q 1456 2553 1204 2497 
Q 953 2441 691 2322 
L 691 4666 
z
" transform="scale(0.015625)"/>
       </defs>
       <use xlink:href="#DejaVuSans-35"/>
       <use xlink:href="#DejaVuSans-30" transform="translate(63.623047 0)"/>
       <use xlink:href="#DejaVuSans-30" transform="translate(127.246094 0)"/>
       <use xlink:href="#DejaVuSans-30" transform="translate(190.869141 0)"/>
       <use xlink:href="#DejaVuSans-30" transform="translate(254.492188 0)"/>
      </g>
     </g>
    </g>
    <g id="text_7">
     <!-- Episodes -->
     <g transform="translate(354.687813 418.316562) scale(0.1 -0.1)">
      <defs>
       <path id="DejaVuSans-45" d="M 628 4666 
L 3578 4666 
L 3578 4134 
L 1259 4134 
L 1259 2753 
L 3481 2753 
L 3481 2222 
L 1259 2222 
L 1259 531 
L 3634 531 
L 3634 0 
L 628 0 
L 628 4666 
z
" transform="scale(0.015625)"/>
       <path id="DejaVuSans-70" d="M 1159 525 
L 1159 -1331 
L 581 -1331 
L 581 3500 
L 1159 3500 
L 1159 2969 
Q 1341 3281 1617 3432 
Q 1894 3584 2278 3584 
Q 2916 3584 3314 3078 
Q 3713 2572 3713 1747 
Q 3713 922 3314 415 
Q 2916 -91 2278 -91 
Q 1894 -91 1617 61 
Q 1341 213 1159 525 
z
M 3116 1747 
Q 3116 2381 2855 2742 
Q 2594 3103 2138 3103 
Q 1681 3103 1420 2742 
Q 1159 2381 1159 1747 
Q 1159 1113 1420 752 
Q 1681 391 2138 391 
Q 2594 391 2855 752 
Q 3116 1113 3116 1747 
z
" transform="scale(0.015625)"/>
       <path id="DejaVuSans-69" d="M 603 3500 
L 1178 3500 
L 1178 0 
L 603 0 
L 603 3500 
z
M 603 4863 
L 1178 4863 
L 1178 4134 
L 603 4134 
L 603 4863 
z
" transform="scale(0.015625)"/>
       <path id="DejaVuSans-73" d="M 2834 3397 
L 2834 2853 
Q 2591 2978 2328 3040 
Q 2066 3103 1784 3103 
Q 1356 3103 1142 2972 
Q 928 2841 928 2578 
Q 928 2378 1081 2264 
Q 1234 2150 1697 2047 
L 1894 2003 
Q 2506 1872 2764 1633 
Q 3022 1394 3022 966 
Q 3022 478 2636 193 
Q 2250 -91 1575 -91 
Q 1294 -91 989 -36 
Q 684 19 347 128 
L 347 722 
Q 666 556 975 473 
Q 1284 391 1588 391 
Q 1994 391 2212 530 
Q 2431 669 2431 922 
Q 2431 1156 2273 1281 
Q 2116 1406 1581 1522 
L 1381 1569 
Q 847 1681 609 1914 
Q 372 2147 372 2553 
Q 372 3047 722 3315 
Q 1072 3584 1716 3584 
Q 2034 3584 2315 3537 
Q 2597 3491 2834 3397 
z
" transform="scale(0.015625)"/>
       <path id="DejaVuSans-6f" d="M 1959 3097 
Q 1497 3097 1228 2736 
Q 959 2375 959 1747 
Q 959 1119 1226 758 
Q 1494 397 1959 397 
Q 2419 397 2687 759 
Q 2956 1122 2956 1747 
Q 2956 2369 2687 2733 
Q 2419 3097 1959 3097 
z
M 1959 3584 
Q 2709 3584 3137 3096 
Q 3566 2609 3566 1747 
Q 3566 888 3137 398 
Q 2709 -91 1959 -91 
Q 1206 -91 779 398 
Q 353 888 353 1747 
Q 353 2609 779 3096 
Q 1206 3584 1959 3584 
z
" transform="scale(0.015625)"/>
       <path id="DejaVuSans-64" d="M 2906 2969 
L 2906 4863 
L 3481 4863 
L 3481 0 
L 2906 0 
L 2906 525 
Q 2725 213 2448 61 
Q 2172 -91 1784 -91 
Q 1150 -91 751 415 
Q 353 922 353 1747 
Q 353 2572 751 3078 
Q 1150 3584 1784 3584 
Q 2172 3584 2448 3432 
Q 2725 3281 2906 2969 
z
M 947 1747 
Q 947 1113 1208 752 
Q 1469 391 1925 391 
Q 2381 391 2643 752 
Q 2906 1113 2906 1747 
Q 2906 2381 2643 2742 
Q 2381 3103 1925 3103 
Q 1469 3103 1208 2742 
Q 947 2381 947 1747 
z
" transform="scale(0.015625)"/>
       <path id="DejaVuSans-65" d="M 3597 1894 
L 3597 1613 
L 953 1613 
Q 991 1019 1311 708 
Q 1631 397 2203 397 
Q 2534 397 2845 478 
Q 3156 559 3463 722 
L 3463 178 
Q 3153 47 2828 -22 
Q 2503 -91 2169 -91 
Q 1331 -91 842 396 
Q 353 884 353 1716 
Q 353 2575 817 3079 
Q 1281 3584 2069 3584 
Q 2775 3584 3186 3129 
Q 3597 2675 3597 1894 
z
M 3022 2063 
Q 3016 2534 2758 2815 
Q 2500 3097 2075 3097 
Q 1594 3097 1305 2825 
Q 1016 2553 972 2059 
L 3022 2063 
z
" transform="scale(0.015625)"/>
      </defs>
      <use xlink:href="#DejaVuSans-45"/>
      <use xlink:href="#DejaVuSans-70" transform="translate(63.183594 0)"/>
      <use xlink:href="#DejaVuSans-69" transform="translate(126.660156 0)"/>
      <use xlink:href="#DejaVuSans-73" transform="translate(154.443359 0)"/>
      <use xlink:href="#DejaVuSans-6f" transform="translate(206.542969 0)"/>
      <use xlink:href="#DejaVuSans-64" transform="translate(267.724609 0)"/>
      <use xlink:href="#DejaVuSans-65" transform="translate(331.201172 0)"/>
      <use xlink:href="#DejaVuSans-73" transform="translate(392.724609 0)"/>
     </g>
    </g>
   </g>
   <g id="matplotlib.axis_2">
    <g id="ytick_1">
     <g id="line2d_13">
      <path d="M 44.66 371.068363 
L 709.2 371.068363 
" clip-path="url(#p3e73ad7249)" style="fill: none; stroke: #b0b0b0; stroke-width: 0.8; stroke-linecap: square"/>
     </g>
     <g id="line2d_14">
      <defs>
       <path id="mcb7f5c1aec" d="M 0 0 
L -3.5 0 
" style="stroke: #000000; stroke-width: 0.8"/>
      </defs>
      <g>
       <use xlink:href="#mcb7f5c1aec" x="44.66" y="371.068363" style="stroke: #000000; stroke-width: 0.8"/>
      </g>
     </g>
     <g id="text_8">
      <!-- 4 -->
      <g transform="translate(31.2975 374.867582) scale(0.1 -0.1)">
       <use xlink:href="#DejaVuSans-34"/>
      </g>
     </g>
    </g>
    <g id="ytick_2">
     <g id="line2d_15">
      <path d="M 44.66 323.791307 
L 709.2 323.791307 
" clip-path="url(#p3e73ad7249)" style="fill: none; stroke: #b0b0b0; stroke-width: 0.8; stroke-linecap: square"/>
     </g>
     <g id="line2d_16">
      <g>
       <use xlink:href="#mcb7f5c1aec" x="44.66" y="323.791307" style="stroke: #000000; stroke-width: 0.8"/>
      </g>
     </g>
     <g id="text_9">
      <!-- 5 -->
      <g transform="translate(31.2975 327.590526) scale(0.1 -0.1)">
       <use xlink:href="#DejaVuSans-35"/>
      </g>
     </g>
    </g>
    <g id="ytick_3">
     <g id="line2d_17">
      <path d="M 44.66 276.514252 
L 709.2 276.514252 
" clip-path="url(#p3e73ad7249)" style="fill: none; stroke: #b0b0b0; stroke-width: 0.8; stroke-linecap: square"/>
     </g>
     <g id="line2d_18">
      <g>
       <use xlink:href="#mcb7f5c1aec" x="44.66" y="276.514252" style="stroke: #000000; stroke-width: 0.8"/>
      </g>
     </g>
     <g id="text_10">
      <!-- 6 -->
      <g transform="translate(31.2975 280.31347) scale(0.1 -0.1)">
       <defs>
        <path id="DejaVuSans-36" d="M 2113 2584 
Q 1688 2584 1439 2293 
Q 1191 2003 1191 1497 
Q 1191 994 1439 701 
Q 1688 409 2113 409 
Q 2538 409 2786 701 
Q 3034 994 3034 1497 
Q 3034 2003 2786 2293 
Q 2538 2584 2113 2584 
z
M 3366 4563 
L 3366 3988 
Q 3128 4100 2886 4159 
Q 2644 4219 2406 4219 
Q 1781 4219 1451 3797 
Q 1122 3375 1075 2522 
Q 1259 2794 1537 2939 
Q 1816 3084 2150 3084 
Q 2853 3084 3261 2657 
Q 3669 2231 3669 1497 
Q 3669 778 3244 343 
Q 2819 -91 2113 -91 
Q 1303 -91 875 529 
Q 447 1150 447 2328 
Q 447 3434 972 4092 
Q 1497 4750 2381 4750 
Q 2619 4750 2861 4703 
Q 3103 4656 3366 4563 
z
" transform="scale(0.015625)"/>
       </defs>
       <use xlink:href="#DejaVuSans-36"/>
      </g>
     </g>
    </g>
    <g id="ytick_4">
     <g id="line2d_19">
      <path d="M 44.66 229.237196 
L 709.2 229.237196 
" clip-path="url(#p3e73ad7249)" style="fill: none; stroke: #b0b0b0; stroke-width: 0.8; stroke-linecap: square"/>
     </g>
     <g id="line2d_20">
      <g>
       <use xlink:href="#mcb7f5c1aec" x="44.66" y="229.237196" style="stroke: #000000; stroke-width: 0.8"/>
      </g>
     </g>
     <g id="text_11">
      <!-- 7 -->
      <g transform="translate(31.2975 233.036415) scale(0.1 -0.1)">
       <defs>
        <path id="DejaVuSans-37" d="M 525 4666 
L 3525 4666 
L 3525 4397 
L 1831 0 
L 1172 0 
L 2766 4134 
L 525 4134 
L 525 4666 
z
" transform="scale(0.015625)"/>
       </defs>
       <use xlink:href="#DejaVuSans-37"/>
      </g>
     </g>
    </g>
    <g id="ytick_5">
     <g id="line2d_21">
      <path d="M 44.66 181.960141 
L 709.2 181.960141 
" clip-path="url(#p3e73ad7249)" style="fill: none; stroke: #b0b0b0; stroke-width: 0.8; stroke-linecap: square"/>
     </g>
     <g id="line2d_22">
      <g>
       <use xlink:href="#mcb7f5c1aec" x="44.66" y="181.960141" style="stroke: #000000; stroke-width: 0.8"/>
      </g>
     </g>
     <g id="text_12">
      <!-- 8 -->
      <g transform="translate(31.2975 185.759359) scale(0.1 -0.1)">
       <defs>
        <path id="DejaVuSans-38" d="M 2034 2216 
Q 1584 2216 1326 1975 
Q 1069 1734 1069 1313 
Q 1069 891 1326 650 
Q 1584 409 2034 409 
Q 2484 409 2743 651 
Q 3003 894 3003 1313 
Q 3003 1734 2745 1975 
Q 2488 2216 2034 2216 
z
M 1403 2484 
Q 997 2584 770 2862 
Q 544 3141 544 3541 
Q 544 4100 942 4425 
Q 1341 4750 2034 4750 
Q 2731 4750 3128 4425 
Q 3525 4100 3525 3541 
Q 3525 3141 3298 2862 
Q 3072 2584 2669 2484 
Q 3125 2378 3379 2068 
Q 3634 1759 3634 1313 
Q 3634 634 3220 271 
Q 2806 -91 2034 -91 
Q 1263 -91 848 271 
Q 434 634 434 1313 
Q 434 1759 690 2068 
Q 947 2378 1403 2484 
z
M 1172 3481 
Q 1172 3119 1398 2916 
Q 1625 2713 2034 2713 
Q 2441 2713 2670 2916 
Q 2900 3119 2900 3481 
Q 2900 3844 2670 4047 
Q 2441 4250 2034 4250 
Q 1625 4250 1398 4047 
Q 1172 3844 1172 3481 
z
" transform="scale(0.015625)"/>
       </defs>
       <use xlink:href="#DejaVuSans-38"/>
      </g>
     </g>
    </g>
    <g id="ytick_6">
     <g id="line2d_23">
      <path d="M 44.66 134.683085 
L 709.2 134.683085 
" clip-path="url(#p3e73ad7249)" style="fill: none; stroke: #b0b0b0; stroke-width: 0.8; stroke-linecap: square"/>
     </g>
     <g id="line2d_24">
      <g>
       <use xlink:href="#mcb7f5c1aec" x="44.66" y="134.683085" style="stroke: #000000; stroke-width: 0.8"/>
      </g>
     </g>
     <g id="text_13">
      <!-- 9 -->
      <g transform="translate(31.2975 138.482304) scale(0.1 -0.1)">
       <defs>
        <path id="DejaVuSans-39" d="M 703 97 
L 703 672 
Q 941 559 1184 500 
Q 1428 441 1663 441 
Q 2288 441 2617 861 
Q 2947 1281 2994 2138 
Q 2813 1869 2534 1725 
Q 2256 1581 1919 1581 
Q 1219 1581 811 2004 
Q 403 2428 403 3163 
Q 403 3881 828 4315 
Q 1253 4750 1959 4750 
Q 2769 4750 3195 4129 
Q 3622 3509 3622 2328 
Q 3622 1225 3098 567 
Q 2575 -91 1691 -91 
Q 1453 -91 1209 -44 
Q 966 3 703 97 
z
M 1959 2075 
Q 2384 2075 2632 2365 
Q 2881 2656 2881 3163 
Q 2881 3666 2632 3958 
Q 2384 4250 1959 4250 
Q 1534 4250 1286 3958 
Q 1038 3666 1038 3163 
Q 1038 2656 1286 2365 
Q 1534 2075 1959 2075 
z
" transform="scale(0.015625)"/>
       </defs>
       <use xlink:href="#DejaVuSans-39"/>
      </g>
     </g>
    </g>
    <g id="ytick_7">
     <g id="line2d_25">
      <path d="M 44.66 87.406029 
L 709.2 87.406029 
" clip-path="url(#p3e73ad7249)" style="fill: none; stroke: #b0b0b0; stroke-width: 0.8; stroke-linecap: square"/>
     </g>
     <g id="line2d_26">
      <g>
       <use xlink:href="#mcb7f5c1aec" x="44.66" y="87.406029" style="stroke: #000000; stroke-width: 0.8"/>
      </g>
     </g>
     <g id="text_14">
      <!-- 10 -->
      <g transform="translate(24.935 91.205248) scale(0.1 -0.1)">
       <use xlink:href="#DejaVuSans-31"/>
       <use xlink:href="#DejaVuSans-30" transform="translate(63.623047 0)"/>
      </g>
     </g>
    </g>
    <g id="ytick_8">
     <g id="line2d_27">
      <path d="M 44.66 40.128974 
L 709.2 40.128974 
" clip-path="url(#p3e73ad7249)" style="fill: none; stroke: #b0b0b0; stroke-width: 0.8; stroke-linecap: square"/>
     </g>
     <g id="line2d_28">
      <g>
       <use xlink:href="#mcb7f5c1aec" x="44.66" y="40.128974" style="stroke: #000000; stroke-width: 0.8"/>
      </g>
     </g>
     <g id="text_15">
      <!-- 11 -->
      <g transform="translate(24.935 43.928193) scale(0.1 -0.1)">
       <use xlink:href="#DejaVuSans-31"/>
       <use xlink:href="#DejaVuSans-31" transform="translate(63.623047 0)"/>
      </g>
     </g>
    </g>
    <g id="text_16">
     <!-- Quantum Gates -->
     <g transform="translate(18.855313 239.925469) rotate(-90) scale(0.1 -0.1)">
      <defs>
       <path id="DejaVuSans-51" d="M 2522 4238 
Q 1834 4238 1429 3725 
Q 1025 3213 1025 2328 
Q 1025 1447 1429 934 
Q 1834 422 2522 422 
Q 3209 422 3611 934 
Q 4013 1447 4013 2328 
Q 4013 3213 3611 3725 
Q 3209 4238 2522 4238 
z
M 3406 84 
L 4238 -825 
L 3475 -825 
L 2784 -78 
Q 2681 -84 2626 -87 
Q 2572 -91 2522 -91 
Q 1538 -91 948 567 
Q 359 1225 359 2328 
Q 359 3434 948 4092 
Q 1538 4750 2522 4750 
Q 3503 4750 4090 4092 
Q 4678 3434 4678 2328 
Q 4678 1516 4351 937 
Q 4025 359 3406 84 
z
" transform="scale(0.015625)"/>
       <path id="DejaVuSans-75" d="M 544 1381 
L 544 3500 
L 1119 3500 
L 1119 1403 
Q 1119 906 1312 657 
Q 1506 409 1894 409 
Q 2359 409 2629 706 
Q 2900 1003 2900 1516 
L 2900 3500 
L 3475 3500 
L 3475 0 
L 2900 0 
L 2900 538 
Q 2691 219 2414 64 
Q 2138 -91 1772 -91 
Q 1169 -91 856 284 
Q 544 659 544 1381 
z
M 1991 3584 
L 1991 3584 
z
" transform="scale(0.015625)"/>
       <path id="DejaVuSans-61" d="M 2194 1759 
Q 1497 1759 1228 1600 
Q 959 1441 959 1056 
Q 959 750 1161 570 
Q 1363 391 1709 391 
Q 2188 391 2477 730 
Q 2766 1069 2766 1631 
L 2766 1759 
L 2194 1759 
z
M 3341 1997 
L 3341 0 
L 2766 0 
L 2766 531 
Q 2569 213 2275 61 
Q 1981 -91 1556 -91 
Q 1019 -91 701 211 
Q 384 513 384 1019 
Q 384 1609 779 1909 
Q 1175 2209 1959 2209 
L 2766 2209 
L 2766 2266 
Q 2766 2663 2505 2880 
Q 2244 3097 1772 3097 
Q 1472 3097 1187 3025 
Q 903 2953 641 2809 
L 641 3341 
Q 956 3463 1253 3523 
Q 1550 3584 1831 3584 
Q 2591 3584 2966 3190 
Q 3341 2797 3341 1997 
z
" transform="scale(0.015625)"/>
       <path id="DejaVuSans-6e" d="M 3513 2113 
L 3513 0 
L 2938 0 
L 2938 2094 
Q 2938 2591 2744 2837 
Q 2550 3084 2163 3084 
Q 1697 3084 1428 2787 
Q 1159 2491 1159 1978 
L 1159 0 
L 581 0 
L 581 3500 
L 1159 3500 
L 1159 2956 
Q 1366 3272 1645 3428 
Q 1925 3584 2291 3584 
Q 2894 3584 3203 3211 
Q 3513 2838 3513 2113 
z
" transform="scale(0.015625)"/>
       <path id="DejaVuSans-74" d="M 1172 4494 
L 1172 3500 
L 2356 3500 
L 2356 3053 
L 1172 3053 
L 1172 1153 
Q 1172 725 1289 603 
Q 1406 481 1766 481 
L 2356 481 
L 2356 0 
L 1766 0 
Q 1100 0 847 248 
Q 594 497 594 1153 
L 594 3053 
L 172 3053 
L 172 3500 
L 594 3500 
L 594 4494 
L 1172 4494 
z
" transform="scale(0.015625)"/>
       <path id="DejaVuSans-6d" d="M 3328 2828 
Q 3544 3216 3844 3400 
Q 4144 3584 4550 3584 
Q 5097 3584 5394 3201 
Q 5691 2819 5691 2113 
L 5691 0 
L 5113 0 
L 5113 2094 
Q 5113 2597 4934 2840 
Q 4756 3084 4391 3084 
Q 3944 3084 3684 2787 
Q 3425 2491 3425 1978 
L 3425 0 
L 2847 0 
L 2847 2094 
Q 2847 2600 2669 2842 
Q 2491 3084 2119 3084 
Q 1678 3084 1418 2786 
Q 1159 2488 1159 1978 
L 1159 0 
L 581 0 
L 581 3500 
L 1159 3500 
L 1159 2956 
Q 1356 3278 1631 3431 
Q 1906 3584 2284 3584 
Q 2666 3584 2933 3390 
Q 3200 3197 3328 2828 
z
" transform="scale(0.015625)"/>
       <path id="DejaVuSans-20" transform="scale(0.015625)"/>
       <path id="DejaVuSans-47" d="M 3809 666 
L 3809 1919 
L 2778 1919 
L 2778 2438 
L 4434 2438 
L 4434 434 
Q 4069 175 3628 42 
Q 3188 -91 2688 -91 
Q 1594 -91 976 548 
Q 359 1188 359 2328 
Q 359 3472 976 4111 
Q 1594 4750 2688 4750 
Q 3144 4750 3555 4637 
Q 3966 4525 4313 4306 
L 4313 3634 
Q 3963 3931 3569 4081 
Q 3175 4231 2741 4231 
Q 1884 4231 1454 3753 
Q 1025 3275 1025 2328 
Q 1025 1384 1454 906 
Q 1884 428 2741 428 
Q 3075 428 3337 486 
Q 3600 544 3809 666 
z
" transform="scale(0.015625)"/>
      </defs>
      <use xlink:href="#DejaVuSans-51"/>
      <use xlink:href="#DejaVuSans-75" transform="translate(78.710938 0)"/>
      <use xlink:href="#DejaVuSans-61" transform="translate(142.089844 0)"/>
      <use xlink:href="#DejaVuSans-6e" transform="translate(203.369141 0)"/>
      <use xlink:href="#DejaVuSans-74" transform="translate(266.748047 0)"/>
      <use xlink:href="#DejaVuSans-75" transform="translate(305.957031 0)"/>
      <use xlink:href="#DejaVuSans-6d" transform="translate(369.335938 0)"/>
      <use xlink:href="#DejaVuSans-20" transform="translate(466.748047 0)"/>
      <use xlink:href="#DejaVuSans-47" transform="translate(498.535156 0)"/>
      <use xlink:href="#DejaVuSans-61" transform="translate(576.025391 0)"/>
      <use xlink:href="#DejaVuSans-74" transform="translate(637.304688 0)"/>
      <use xlink:href="#DejaVuSans-65" transform="translate(676.513672 0)"/>
      <use xlink:href="#DejaVuSans-73" transform="translate(738.037109 0)"/>
     </g>
    </g>
   </g>
   <g id="line2d_29">
    <path d="M 74.866364 226.479368 
L 77.282873 220.648531 
L 79.699382 208.514087 
L 82.115891 215.84203 
L 84.5324 211.35071 
L 86.948909 215.448055 
L 89.365418 220.096965 
L 91.781927 215.054079 
L 94.198436 227.976475 
L 99.031455 238.613812 
L 101.447964 249.014764 
L 103.864473 253.42729 
L 106.280982 255.475962 
L 108.697491 253.58488 
L 111.114 259.100536 
L 113.530509 271.07739 
L 115.947018 278.562924 
L 118.363527 278.562924 
L 120.780036 288.648696 
L 123.196545 292.27327 
L 125.613055 297.710132 
L 128.029564 297.158566 
L 130.446073 293.297606 
L 132.862582 292.194475 
L 135.279091 292.824836 
L 137.6956 286.993999 
L 140.112109 284.787736 
L 142.528618 284.314966 
L 144.945127 281.084367 
L 147.361636 285.733278 
L 149.778145 277.380998 
L 152.194655 277.302203 
L 154.611164 272.810882 
L 157.027673 271.313776 
L 159.444182 265.010168 
L 161.860691 269.816669 
L 164.2772 268.398357 
L 166.693709 265.088963 
L 169.110218 272.495702 
L 171.526727 266.034504 
L 173.943236 271.550161 
L 176.359745 274.229194 
L 178.776255 278.799309 
L 181.192764 273.126063 
L 183.609273 272.180522 
L 186.025782 267.137636 
L 188.442291 263.749447 
L 190.8588 267.216431 
L 193.275309 273.362448 
L 195.691818 275.332325 
L 198.108327 273.283653 
L 200.524836 259.021741 
L 202.941345 252.008978 
L 205.357855 249.40874 
L 207.774364 237.589476 
L 210.190873 229.631172 
L 212.607382 227.188524 
L 215.023891 227.267319 
L 217.4404 234.280082 
L 219.856909 239.480558 
L 222.273418 240.504894 
L 224.689927 240.268509 
L 227.106436 234.831648 
L 229.522945 231.285869 
L 231.939455 235.934779 
L 234.355964 228.764426 
L 236.772473 226.479368 
L 239.188982 216.787571 
L 241.605491 203.865176 
L 244.022 203.628791 
L 246.438509 202.289274 
L 248.855018 209.065652 
L 251.271527 205.756259 
L 256.104545 196.773618 
L 258.521055 200.161807 
L 260.937564 209.223243 
L 263.354073 232.23141 
L 268.187091 227.503704 
L 270.6036 232.782975 
L 273.020109 222.066843 
L 275.436618 213.793358 
L 277.853127 206.229029 
L 280.269636 202.52566 
L 282.686145 211.429505 
L 285.102655 200.870963 
L 287.519164 186.293871 
L 289.935673 186.372666 
L 292.352182 182.275321 
L 294.768691 181.17219 
L 297.1852 177.784001 
L 299.601709 163.837269 
L 302.018218 162.182572 
L 304.434727 182.432911 
L 306.851236 182.275321 
L 309.267745 169.274131 
L 311.684255 162.024982 
L 314.100764 169.274131 
L 316.517273 193.936995 
L 318.933782 199.058676 
L 321.350291 190.627601 
L 323.7668 188.421338 
L 326.183309 187.948568 
L 328.599818 195.749282 
L 331.016327 207.410955 
L 333.432836 210.562759 
L 335.849345 197.088798 
L 338.265855 180.147853 
L 340.682364 170.534852 
L 343.098873 169.904491 
L 345.515382 175.262558 
L 347.931891 172.81991 
L 352.764909 159.503539 
L 355.181418 150.284513 
L 357.597927 148.235841 
L 360.014436 150.363308 
L 362.430945 154.224268 
L 364.847455 159.424744 
L 367.263964 158.006432 
L 369.680473 156.903301 
L 372.096982 155.012219 
L 374.513491 155.95776 
L 376.93 153.987883 
L 381.763018 145.084037 
L 384.179527 134.052724 
L 386.596036 120.105993 
L 389.012545 116.560214 
L 391.429055 116.560214 
L 393.845564 114.038771 
L 396.262073 109.153475 
L 398.678582 109.705041 
L 401.095091 118.530091 
L 403.5116 108.129139 
L 405.928109 110.492992 
L 408.344618 128.300682 
L 410.761127 157.612457 
L 413.177636 160.055105 
L 415.594145 166.516302 
L 418.010655 169.825696 
L 420.427164 163.837269 
L 422.843673 157.376072 
L 425.260182 170.298467 
L 427.676691 185.66351 
L 430.0932 194.64615 
L 432.509709 193.621814 
L 434.926218 187.790977 
L 437.342727 176.208099 
L 439.759236 149.890538 
L 442.175745 139.489586 
L 444.592255 131.452486 
L 447.008764 128.852248 
L 451.841782 130.506945 
L 454.258291 123.494182 
L 456.6748 114.984312 
L 459.091309 138.307659 
L 461.507818 146.738734 
L 463.924327 164.31004 
L 466.340836 154.460653 
L 468.757345 155.484989 
L 471.173855 152.333186 
L 473.590364 147.44789 
L 476.006873 156.036555 
L 478.423382 150.126923 
L 480.839891 157.297277 
L 483.2564 162.497753 
L 485.672909 183.378452 
L 488.089418 161.394621 
L 490.505927 150.363308 
L 492.922436 134.367905 
L 495.338945 124.991289 
L 497.755455 127.039961 
L 500.171964 142.720184 
L 502.588473 148.314636 
L 505.004982 149.102587 
L 507.421491 139.09561 
L 509.838 147.526685 
L 512.254509 164.78281 
L 514.671018 171.086418 
L 517.087527 183.063272 
L 519.504036 184.166403 
L 521.920545 189.051699 
L 524.337055 174.001836 
L 526.753564 153.436317 
L 529.170073 153.830292 
L 531.586582 152.490776 
L 534.003091 139.489586 
L 536.4196 123.179001 
L 538.836109 110.177811 
L 541.252618 108.601909 
L 543.669127 103.322638 
L 546.085636 108.129139 
L 548.502145 105.05613 
L 550.918655 96.309875 
L 553.335164 92.133735 
L 555.751673 119.948403 
L 558.168182 127.591527 
L 560.584691 124.833698 
L 563.0012 141.617053 
L 565.417709 136.022602 
L 567.834218 134.60429 
L 570.250727 138.544044 
L 572.667236 130.979716 
L 575.083745 146.187168 
L 577.500255 174.395812 
L 579.916764 184.087608 
L 582.333273 181.250985 
L 584.749782 159.97631 
L 587.166291 147.920661 
L 591.999309 142.641389 
L 594.415818 154.381858 
L 596.832327 173.923041 
L 599.248836 183.536042 
L 601.665345 200.555782 
L 604.081855 185.34833 
L 606.498364 165.019196 
L 608.914873 160.44908 
L 611.331382 169.352926 
L 613.747891 163.364499 
L 616.1644 147.999456 
L 618.580909 181.64496 
L 620.997418 208.829267 
L 623.413927 213.793358 
L 625.830436 226.400573 
L 628.246945 215.605645 
L 630.663455 203.077225 
L 635.496473 166.673893 
L 637.912982 146.817529 
L 640.329491 167.777024 
L 642.746 202.210479 
L 645.162509 204.180357 
L 647.579018 198.585905 
L 649.995527 195.749282 
L 652.412036 182.038936 
L 654.828545 174.632197 
L 657.245055 165.019196 
L 659.661564 166.516302 
L 662.078073 167.855819 
L 664.494582 181.408575 
L 666.911091 184.639174 
L 669.3276 200.083012 
L 671.744109 209.144447 
L 674.160618 192.676273 
L 676.577127 182.275321 
L 678.993636 163.994859 
L 678.993636 163.994859 
" clip-path="url(#p3e73ad7249)" style="fill: none; stroke: #1f77b4; stroke-width: 1.5; stroke-linecap: square"/>
   </g>
   <g id="patch_3">
    <path d="M 44.66 390.04 
L 44.66 10.8 
" style="fill: none; stroke: #000000; stroke-width: 0.8; stroke-linejoin: miter; stroke-linecap: square"/>
   </g>
   <g id="patch_4">
    <path d="M 709.2 390.04 
L 709.2 10.8 
" style="fill: none; stroke: #000000; stroke-width: 0.8; stroke-linejoin: miter; stroke-linecap: square"/>
   </g>
   <g id="patch_5">
    <path d="M 44.66 390.04 
L 709.2 390.04 
" style="fill: none; stroke: #000000; stroke-width: 0.8; stroke-linejoin: miter; stroke-linecap: square"/>
   </g>
   <g id="patch_6">
    <path d="M 44.66 10.8 
L 709.2 10.8 
" style="fill: none; stroke: #000000; stroke-width: 0.8; stroke-linejoin: miter; stroke-linecap: square"/>
   </g>
  </g>
 </g>
 <defs>
  <clipPath id="p3e73ad7249">
   <rect x="44.66" y="10.8" width="664.54" height="379.24"/>
  </clipPath>
 </defs>
</svg>
