<?xml version="1.0" encoding="utf-8" standalone="no"?>
<!DOCTYPE svg PUBLIC "-//W3C//DTD SVG 1.1//EN"
  "http://www.w3.org/Graphics/SVG/1.1/DTD/svg11.dtd">
<svg xmlns:xlink="http://www.w3.org/1999/xlink" width="720pt" height="432pt" viewBox="0 0 720 432" xmlns="http://www.w3.org/2000/svg" version="1.1">
 <metadata>
  <rdf:RDF xmlns:dc="http://purl.org/dc/elements/1.1/" xmlns:cc="http://creativecommons.org/ns#" xmlns:rdf="http://www.w3.org/1999/02/22-rdf-syntax-ns#">
   <cc:Work>
    <dc:type rdf:resource="http://purl.org/dc/dcmitype/StillImage"/>
    <dc:date>2025-04-22T22:18:31.935536</dc:date>
    <dc:format>image/svg+xml</dc:format>
    <dc:creator>
     <cc:Agent>
      <dc:title>Matplotlib v3.10.0, https://matplotlib.org/</dc:title>
     </cc:Agent>
    </dc:creator>
   </cc:Work>
  </rdf:RDF>
 </metadata>
 <defs>
  <style type="text/css">*{stroke-linejoin: round; stroke-linecap: butt}</style>
 </defs>
 <g id="figure_1">
  <g id="patch_1">
   <path d="M 0 432 
L 720 432 
L 720 0 
L 0 0 
z
" style="fill: #ffffff"/>
  </g>
  <g id="axes_1">
   <g id="patch_2">
    <path d="M 38.27 390.04 
L 709.2 390.04 
L 709.2 10.8 
L 38.27 10.8 
z
" style="fill: #ffffff"/>
   </g>
   <g id="FillBetweenPolyCollection_1">
    <path d="M 68.766818 333.05476 
L 68.766818 366.688797 
L 71.362213 366.110935 
L 74.043191 365.624406 
L 76.794867 363.88428 
L 79.505613 365.43127 
L 82.182869 366.454026 
L 84.865707 365.544458 
L 87.663896 365.927897 
L 90.44162 368.567068 
L 92.921664 368.402176 
L 95.515198 369.753781 
L 98.077104 370.365154 
L 100.557148 369.520515 
L 102.964632 369.635257 
L 105.537701 370.253713 
L 108.008442 370.885056 
L 110.35453 372.637969 
L 112.734107 372.27772 
L 114.860656 370.102254 
L 116.983484 372.066502 
L 118.990962 371.223039 
L 121.00216 372.495839 
L 123.043126 372.801818 
L 125.059906 371.888705 
L 127.037616 370.886043 
L 129.035791 371.24604 
L 131.05257 371.15792 
L 133.240516 367.875772 
L 135.398694 366.987541 
L 137.541987 368.459591 
L 139.843423 364.709592 
L 142.074161 365.51408 
L 144.332805 365.333243 
L 146.602613 360.787855 
L 148.784977 362.434471 
L 151.082692 362.961075 
L 153.270638 361.846215 
L 155.456723 363.9442 
L 157.681878 365.559004 
L 159.814009 363.392358 
L 161.91079 362.459582 
L 164.016874 362.612991 
L 166.026212 360.73974 
L 168.054155 359.444388 
L 170.069074 357.101421 
L 172.078412 358.541912 
L 174.132402 361.908733 
L 176.100809 364.099515 
L 178.151077 367.152079 
L 180.17902 367.180287 
L 182.15859 370.274952 
L 184.151183 370.603459 
L 186.190289 367.758616 
L 188.292652 368.620707 
L 190.417341 368.569388 
L 192.471331 368.258238 
L 194.757883 364.169594 
L 196.996062 366.882117 
L 199.278893 365.46202 
L 201.610097 362.949398 
L 203.950603 365.809165 
L 206.348785 364.020282 
L 208.888365 363.524129 
L 211.333059 360.643158 
L 213.865197 359.260585 
L 216.298729 357.555468 
L 218.721097 353.811175 
L 221.108116 350.671277 
L 223.305364 348.539523 
L 225.571451 346.557588 
L 227.965912 344.836324 
L 230.362233 342.983497 
L 232.717623 343.025345 
L 235.015338 340.92423 
L 237.314914 343.834014 
L 239.620071 341.520361 
L 242.08151 334.013386 
L 244.513181 334.246575 
L 246.86485 334.362208 
L 249.242567 334.269452 
L 251.599818 336.662214 
L 253.895672 334.374566 
L 256.198969 330.613025 
L 258.662268 329.199162 
L 261.192545 327.551774 
L 263.776777 328.410083 
L 266.413103 333.239195 
L 269.027102 329.164727 
L 271.70622 325.968605 
L 274.450454 326.512438 
L 277.181665 323.962162 
L 279.96311 332.919047 
L 282.768741 337.29304 
L 285.620884 331.806479 
L 288.417213 328.554286 
L 291.075864 337.604082 
L 293.609863 335.605522 
L 296.175489 341.989681 
L 298.832281 334.197714 
L 301.433257 330.08387 
L 303.933766 328.525277 
L 306.279854 327.180275 
L 308.650129 326.083364 
L 311.161801 326.372718 
L 313.615798 326.52247 
L 316.030724 330.408338 
L 318.466116 328.586287 
L 320.828948 329.499187 
L 323.242014 336.314984 
L 325.658801 346.358065 
L 327.999308 341.604226 
L 330.291441 343.627201 
L 332.661716 342.162967 
L 335.177109 346.095957 
L 337.739015 342.181951 
L 340.440458 333.39599 
L 343.220042 324.908823 
L 346.036836 326.526352 
L 348.903863 325.014692 
L 351.707634 333.807149 
L 354.526288 343.325038 
L 357.348664 334.879725 
L 360.219412 329.734421 
L 363.093882 335.834879 
L 365.936723 336.636976 
L 368.736772 334.944037 
L 371.616823 330.716599 
L 374.511758 327.042848 
L 377.419716 324.963843 
L 380.333256 323.338593 
L 383.317495 322.97534 
L 386.316618 325.317586 
L 389.352951 324.458523 
L 392.435796 321.652327 
L 395.511199 322.024575 
L 398.657301 324.631699 
L 402.000616 323.460111 
L 405.608122 327.108757 
L 409.317955 335.610074 
L 413.016625 343.288221 
L 416.631572 335.142629 
L 420.02326 327.3149 
L 423.295876 323.672129 
L 426.85873 326.1363 
L 430.490422 325.846869 
L 433.924901 325.329342 
L 436.769603 326.426287 
L 439.577094 324.083333 
L 442.163186 323.956761 
L 444.671138 324.678387 
L 447.264672 326.808529 
L 450.090768 325.27807 
L 453.220126 326.515134 
L 456.563441 327.610119 
L 460.005362 324.360773 
L 463.566355 321.648955 
L 467.147814 320.993445 
L 470.721831 322.352038 
L 474.377709 321.301891 
L 478.016843 323.368664 
L 481.66342 322.675124 
L 485.122085 324.288334 
L 488.517494 324.332732 
L 492.017091 330.98687 
L 495.498083 337.850002 
L 499.031168 342.625699 
L 502.616348 351.401977 
L 506.168039 338.100517 
L 509.699264 330.77907 
L 513.193279 327.34093 
L 516.339381 328.5414 
L 519.245479 329.723229 
L 522.259486 328.54421 
L 525.567451 327.777274 
L 529.067048 324.523586 
L 532.583389 324.777514 
L 535.975077 327.097248 
L 539.057923 325.560937 
L 542.105418 324.741632 
L 545.169658 326.784225 
L 548.373436 324.757876 
L 551.141857 325.650711 
L 553.538178 328.65781 
L 555.722403 327.141544 
L 557.798719 325.135524 
L 559.835964 324.647186 
L 562.089027 322.574563 
L 564.704888 329.652492 
L 567.540286 327.048018 
L 570.2808 321.505046 
L 573.296667 322.675815 
L 576.688355 322.509054 
L 580.275395 323.691427 
L 583.940576 323.33176 
L 587.589013 329.598057 
L 591.153727 343.11646 
L 594.705418 330.904966 
L 598.292458 325.161868 
L 601.909266 322.971914 
L 605.537237 322.458007 
L 609.157766 323.971937 
L 612.826668 322.289125 
L 616.117889 321.602604 
L 619.200735 322.315146 
L 622.462188 322.483608 
L 625.770153 324.503109 
L 629.171143 343.642699 
L 632.389805 338.427351 
L 635.47265 328.251853 
L 638.427121 325.345331 
L 641.45043 326.368844 
L 644.594672 321.827147 
L 647.831938 323.194432 
L 651.035716 322.937372 
L 654.278564 322.264009 
L 657.381875 321.22815 
L 660.133551 321.369832 
L 662.859181 324.113661 
L 665.426668 325.331566 
L 667.914154 325.329629 
L 670.4035 341.796177 
L 673.099362 331.053686 
L 675.849178 325.4601 
L 678.703182 323.857425 
L 678.703182 300.362279 
L 678.703182 300.362279 
L 675.849178 300.874972 
L 673.099362 301.858193 
L 670.4035 304.143362 
L 667.914154 300.286838 
L 665.426668 299.342163 
L 662.859181 300.554767 
L 660.133551 299.844428 
L 657.381875 299.838148 
L 654.278564 300.079669 
L 651.035716 300.075706 
L 647.831938 300.228191 
L 644.594672 299.896221 
L 641.45043 299.960466 
L 638.427121 299.705217 
L 635.47265 301.326623 
L 632.389805 303.611715 
L 629.171143 304.488725 
L 625.770153 300.306021 
L 622.462188 300.043755 
L 619.200735 299.891056 
L 616.117889 299.825993 
L 612.826668 300.100186 
L 609.157766 300.10234 
L 605.537237 300.149098 
L 601.909266 300.371313 
L 598.292458 300.697284 
L 594.705418 301.938233 
L 591.153727 304.338189 
L 587.589013 301.709059 
L 583.940576 300.424123 
L 580.275395 300.383542 
L 576.688355 300.285193 
L 573.296667 300.349479 
L 570.2808 300.130513 
L 567.540286 301.070777 
L 564.704888 301.708209 
L 562.089027 300.21519 
L 559.835964 300.734893 
L 557.798719 300.723858 
L 555.722403 301.080847 
L 553.538178 301.514126 
L 551.141857 300.802132 
L 548.373436 300.665342 
L 545.169658 300.860724 
L 542.105418 300.507581 
L 539.057923 300.810203 
L 535.975077 301.289353 
L 532.583389 300.816251 
L 529.067048 300.240603 
L 525.567451 301.249688 
L 522.259486 301.47746 
L 519.245479 301.821502 
L 516.339381 301.252105 
L 513.193279 301.136246 
L 509.699264 302.235022 
L 506.168039 303.315127 
L 502.616348 306.022458 
L 499.031168 304.682948 
L 495.498083 304.044329 
L 492.017091 305.180398 
L 488.517494 306.20335 
L 485.122085 306.293151 
L 481.66342 306.085187 
L 478.016843 306.190916 
L 474.377709 306.165253 
L 470.721831 306.249479 
L 467.147814 306.034999 
L 463.566355 306.175303 
L 460.005362 306.278559 
L 456.563441 307.299591 
L 453.220126 307.777377 
L 450.090768 308.467304 
L 447.264672 309.22184 
L 444.671138 308.984479 
L 442.163186 309.105039 
L 439.577094 309.087134 
L 436.769603 308.820599 
L 433.924901 307.654906 
L 430.490422 306.39953 
L 426.85873 306.027821 
L 423.295876 305.552925 
L 420.02326 305.203338 
L 416.631572 304.383279 
L 413.016625 303.142221 
L 409.317955 304.607704 
L 405.608122 305.328241 
L 402.000616 305.742126 
L 398.657301 305.648676 
L 395.511199 305.844623 
L 392.435796 305.943304 
L 389.352951 305.81828 
L 386.316618 305.540001 
L 383.317495 305.640351 
L 380.333256 305.539488 
L 377.419716 305.517847 
L 374.511758 305.055704 
L 371.616823 304.414017 
L 368.736772 304.136488 
L 365.936723 303.979055 
L 363.093882 304.005275 
L 360.219412 305.000016 
L 357.348664 303.793557 
L 354.526288 302.439341 
L 351.707634 303.960501 
L 348.903863 305.477599 
L 346.036836 305.5011 
L 343.220042 305.647194 
L 340.440458 306.898881 
L 337.739015 307.42621 
L 335.177109 307.974103 
L 332.661716 307.875367 
L 330.291441 307.423702 
L 327.999308 307.407479 
L 325.658801 307.982452 
L 323.242014 306.332754 
L 320.828948 304.931144 
L 318.466116 304.751155 
L 316.030724 304.465647 
L 313.615798 305.550731 
L 311.161801 305.289555 
L 308.650129 305.627653 
L 306.279854 305.736561 
L 303.933766 305.640476 
L 301.433257 305.594572 
L 298.832281 306.133224 
L 296.175489 307.118014 
L 293.609863 304.298585 
L 291.075864 303.329418 
L 288.417213 304.489653 
L 285.620884 304.21709 
L 282.768741 303.610615 
L 279.96311 303.920156 
L 277.181665 305.295502 
L 274.450454 304.705027 
L 271.70622 304.862939 
L 269.027102 304.308232 
L 266.413103 304.046313 
L 263.776777 304.972302 
L 261.192545 305.304909 
L 258.662268 305.609948 
L 256.198969 305.325618 
L 253.895672 306.270157 
L 251.599818 306.305646 
L 249.242567 305.591789 
L 246.86485 304.378142 
L 244.513181 305.669978 
L 242.08151 305.004104 
L 239.620071 306.266856 
L 237.314914 306.471548 
L 235.015338 306.146456 
L 232.717623 306.790352 
L 230.362233 306.371837 
L 227.965912 307.917635 
L 225.571451 308.3069 
L 223.305364 310.073098 
L 221.108116 308.675275 
L 218.721097 309.900477 
L 216.298729 311.704402 
L 213.865197 312.309169 
L 211.333059 312.874989 
L 208.888365 317.091916 
L 206.348785 317.008074 
L 203.950603 321.891066 
L 201.610097 319.65353 
L 199.278893 322.490923 
L 196.996062 323.184927 
L 194.757883 319.912491 
L 192.471331 322.058635 
L 190.417341 325.685526 
L 188.292652 326.780218 
L 186.190289 324.853854 
L 184.151183 329.498363 
L 182.15859 322.369093 
L 180.17902 313.834128 
L 178.151077 311.859783 
L 176.100809 303.524596 
L 174.132402 297.590966 
L 172.078412 295.809088 
L 170.069074 295.297613 
L 168.054155 299.85849 
L 166.026212 300.566728 
L 164.016874 302.954289 
L 161.91079 301.359237 
L 159.814009 303.411623 
L 157.681878 303.413467 
L 155.456723 300.521661 
L 153.270638 294.391291 
L 151.082692 295.924185 
L 148.784977 296.027991 
L 146.602613 297.084489 
L 144.332805 302.622738 
L 142.074161 306.090011 
L 139.843423 308.451209 
L 137.541987 312.432211 
L 135.398694 315.640507 
L 133.240516 319.82976 
L 131.05257 330.2063 
L 129.035791 330.490849 
L 127.037616 332.647014 
L 125.059906 338.549347 
L 123.043126 336.017068 
L 121.00216 339.111964 
L 118.990962 337.711774 
L 116.983484 337.498185 
L 114.860656 341.628045 
L 112.734107 339.379636 
L 110.35453 339.583115 
L 108.008442 336.957906 
L 105.537701 333.5044 
L 102.964632 333.50658 
L 100.557148 334.698884 
L 98.077104 332.586198 
L 95.515198 333.573468 
L 92.921664 332.813161 
L 90.44162 330.545576 
L 87.663896 329.228731 
L 84.865707 330.873647 
L 82.182869 326.733236 
L 79.505613 328.046269 
L 76.794867 326.922112 
L 74.043191 327.860047 
L 71.362213 329.051225 
L 68.766818 333.05476 
z
" clip-path="url(#pc100cd45a7)" style="fill: #1f77b4; fill-opacity: 0.2"/>
   </g>
   <g id="FillBetweenPolyCollection_2">
    <path d="M 68.891472 271.314943 
L 68.891472 317.786313 
L 71.773383 317.463463 
L 74.699946 313.855606 
L 77.74 314.371626 
L 80.720518 313.175617 
L 83.808945 316.502923 
L 86.795044 317.212113 
L 89.863005 318.380665 
L 92.847244 317.42036 
L 95.868693 319.437773 
L 98.826884 319.500909 
L 101.734843 319.870081 
L 104.454891 323.01328 
L 107.294011 323.966832 
L 109.934058 324.62859 
L 112.516429 323.934295 
L 115.089498 324.675515 
L 117.472795 324.774471 
L 119.9547 323.767414 
L 122.451488 323.831198 
L 124.938974 325.921678 
L 127.136222 323.811737 
L 129.342773 326.437536 
L 131.631185 325.946349 
L 133.776339 325.450931 
L 136.075915 324.098494 
L 138.425724 325.074436 
L 140.795998 323.334809 
L 143.395114 324.730914 
L 145.908647 323.476636 
L 148.494739 321.165124 
L 151.062226 321.457525 
L 153.586922 321.427053 
L 156.279063 321.273383 
L 158.868876 321.106903 
L 161.479155 317.282791 
L 164.052224 318.012985 
L 166.755527 318.311759 
L 169.401155 318.900672 
L 172.124924 316.164595 
L 174.772413 313.172133 
L 177.602231 313.282075 
L 180.335302 315.95193 
L 183.185585 311.12045 
L 186.162382 311.056754 
L 189.122434 312.630668 
L 192.099231 316.609263 
L 195.092772 314.935197 
L 197.995149 317.321645 
L 200.934736 316.102041 
L 203.705018 309.771652 
L 206.679954 308.75895 
L 209.641867 308.448551 
L 212.460521 307.086768 
L 215.336851 300.560463 
L 218.404812 290.915691 
L 221.524867 282.021304 
L 224.795623 284.320147 
L 228.029168 282.700739 
L 231.337134 282.772357 
L 234.699054 276.799582 
L 238.12237 273.091726 
L 241.508476 286.146273 
L 244.825744 287.875075 
L 248.103942 280.099606 
L 251.477025 276.168379 
L 254.866852 279.659221 
L 258.290169 282.990968 
L 261.84372 290.814861 
L 265.425178 286.655801 
L 269.010358 294.662892 
L 272.496931 288.625843 
L 276.000249 282.793178 
L 279.512869 270.097239 
L 283.042234 262.511802 
L 286.556715 273.089375 
L 290.002357 271.694411 
L 293.56149 260.464204 
L 297.087133 251.54483 
L 300.525334 257.961931 
L 303.807252 258.516653 
L 306.797073 256.726065 
L 309.669681 260.657027 
L 312.281821 258.223497 
L 314.786051 256.379555 
L 317.227024 257.101875 
L 319.500553 256.027344 
L 321.77036 252.839747 
L 324.103425 250.580269 
L 326.51277 251.336579 
L 328.944441 249.644371 
L 331.459834 246.176023 
L 334.034763 243.044507 
L 336.607832 246.338713 
L 339.173459 244.045293 
L 341.774435 243.788714 
L 344.351225 243.837346 
L 346.942898 243.818904 
L 349.584806 246.608446 
L 352.55416 246.191593 
L 355.516073 248.750513 
L 358.572872 255.681211 
L 361.434317 262.244112 
L 364.236227 267.547346 
L 367.112557 265.386322 
L 370.191682 255.506424 
L 373.341505 251.74871 
L 376.467141 246.781988 
L 379.490451 242.815071 
L 382.389106 242.493533 
L 385.170551 242.521195 
L 387.845947 245.139508 
L 390.489715 243.13144 
L 393.148366 242.705492 
L 395.81446 240.815802 
L 398.434041 240.799693 
L 401.239672 242.026238 
L 404.054606 246.478795 
L 406.739304 251.545367 
L 409.584006 250.588882 
L 412.415684 252.669031 
L 415.399923 246.825324 
L 418.432534 244.939971 
L 421.359098 248.055447 
L 424.332174 246.966923 
L 427.275481 243.025202 
L 430.362048 244.087126 
L 433.465358 243.993572 
L 436.563087 245.627193 
L 439.660817 243.375339 
L 442.691568 242.3215 
L 445.826507 241.809427 
L 449.141914 243.032932 
L 452.420112 241.064309 
L 455.73924 242.644609 
L 459.305815 244.316591 
L 462.87239 248.231212 
L 466.252915 254.88365 
L 469.676231 251.782406 
L 473.278155 261.908145 
L 476.863335 247.604087 
L 480.584331 244.601999 
L 484.333234 243.755062 
L 488.119348 242.436655 
L 491.991044 246.284813 
L 495.736226 244.867876 
L 499.286057 258.532737 
L 502.335413 268.314338 
L 505.085229 283.365696 
L 507.70481 290.690222 
L 509.822057 296.409177 
L 511.905815 299.453361 
L 514.008177 297.645844 
L 516.357986 285.73742 
L 518.683609 282.813125 
L 521.52645 268.582418 
L 525.085582 253.302746 
L 529.548917 245.478289 
L 534.08109 243.025368 
L 538.012323 251.258132 
L 541.897042 244.200319 
L 545.943626 252.48861 
L 549.456246 268.644387 
L 553.067473 250.131604 
L 557.037775 244.864839 
L 561.149476 246.66238 
L 564.998846 243.143622 
L 569.065895 243.218193 
L 573.227829 243.653277 
L 577.0065 248.311363 
L 580.537726 248.000038 
L 584.396398 241.404559 
L 588.606705 242.838104 
L 593.386325 243.934947 
L 598.210596 243.206013 
L 603.08324 242.005428 
L 607.691694 242.571777 
L 612.605269 243.005032 
L 617.626753 242.142172 
L 622.648237 243.487538 
L 627.764607 243.336615 
L 632.663298 245.394285 
L 637.699666 244.375651 
L 642.512775 248.482155 
L 647.197509 261.336139 
L 650.911063 253.38393 
L 654.436706 244.881516 
L 657.846999 246.648732 
L 661.352177 248.160021 
L 665.142012 253.652647 
L 668.950451 250.298234 
L 673.065873 247.878281 
L 677.510603 249.764937 
L 677.510603 201.30842 
L 677.510603 201.30842 
L 673.065873 200.36064 
L 668.950451 200.716698 
L 665.142012 201.349877 
L 661.352177 201.107604 
L 657.846999 200.244245 
L 654.436706 199.993466 
L 650.911063 200.784408 
L 647.197509 202.981522 
L 642.512775 198.464174 
L 637.699666 199.496325 
L 632.663298 199.925389 
L 627.764607 199.482343 
L 622.648237 199.345825 
L 617.626753 199.129411 
L 612.605269 199.047384 
L 607.691694 199.237031 
L 603.08324 199.328612 
L 598.210596 199.230366 
L 593.386325 199.447857 
L 588.606705 199.186309 
L 584.396398 199.311937 
L 580.537726 200.169282 
L 577.0065 199.961092 
L 573.227829 199.151392 
L 569.065895 199.344022 
L 564.998846 199.247354 
L 561.149476 199.097376 
L 557.037775 199.18022 
L 553.067473 199.773501 
L 549.456246 200.808258 
L 545.943626 200.320876 
L 541.897042 199.361906 
L 538.012323 197.84459 
L 534.08109 198.911467 
L 529.548917 199.058708 
L 525.085582 197.266572 
L 521.52645 194.977916 
L 518.683609 192.541741 
L 516.357986 191.706079 
L 514.008177 190.689781 
L 511.905815 190.978043 
L 509.822057 190.473565 
L 507.70481 190.753084 
L 505.085229 192.692333 
L 502.335413 195.02728 
L 499.286057 196.247613 
L 495.736226 198.484044 
L 491.991044 199.278813 
L 488.119348 199.008357 
L 484.333234 198.677744 
L 480.584331 199.10231 
L 476.863335 199.460474 
L 473.278155 201.529349 
L 469.676231 200.296836 
L 466.252915 197.669898 
L 462.87239 198.357774 
L 459.305815 199.431161 
L 455.73924 199.07835 
L 452.420112 199.458017 
L 449.141914 199.794785 
L 445.826507 199.565293 
L 442.691568 199.77194 
L 439.660817 199.872409 
L 436.563087 199.726245 
L 433.465358 199.301077 
L 430.362048 199.514509 
L 427.275481 199.01811 
L 424.332174 198.454503 
L 421.359098 199.302042 
L 418.432534 199.020736 
L 415.399923 199.260202 
L 412.415684 197.820429 
L 409.584006 198.638295 
L 406.739304 198.362273 
L 404.054606 198.874873 
L 401.239672 199.180814 
L 398.434041 199.384879 
L 395.81446 199.500599 
L 393.148366 199.827224 
L 390.489715 199.892753 
L 387.845947 200.19653 
L 385.170551 199.771948 
L 382.389106 199.589651 
L 379.490451 199.687798 
L 376.467141 199.046102 
L 373.341505 198.708716 
L 370.191682 198.11858 
L 367.112557 196.442722 
L 364.236227 196.167403 
L 361.434317 196.51196 
L 358.572872 199.176232 
L 355.516073 198.879968 
L 352.55416 199.055828 
L 349.584806 200.351714 
L 346.942898 200.000871 
L 344.351225 199.878603 
L 341.774435 199.881832 
L 339.173459 199.870243 
L 336.607832 199.814916 
L 334.034763 199.731585 
L 331.459834 200.301417 
L 328.944441 200.090416 
L 326.51277 199.655192 
L 324.103425 199.128935 
L 321.77036 198.996235 
L 319.500553 198.554572 
L 317.227024 198.81066 
L 314.786051 200.54993 
L 312.281821 200.364681 
L 309.669681 201.01242 
L 306.797073 201.332608 
L 303.807252 202.146563 
L 300.525334 203.702446 
L 297.087133 202.508276 
L 293.56149 203.602938 
L 290.002357 204.996839 
L 286.556715 207.172547 
L 283.042234 204.431952 
L 279.512869 207.719397 
L 276.000249 211.391205 
L 272.496931 215.195759 
L 269.010358 218.162596 
L 265.425178 211.99221 
L 261.84372 215.080855 
L 258.290169 210.389767 
L 254.866852 208.006203 
L 251.477025 208.271964 
L 248.103942 208.613765 
L 244.825744 211.323759 
L 241.508476 211.081927 
L 238.12237 205.723997 
L 234.699054 207.24562 
L 231.337134 210.19019 
L 228.029168 210.867714 
L 224.795623 209.400415 
L 221.524867 208.141146 
L 218.404812 212.609409 
L 215.336851 211.737591 
L 212.460521 221.747854 
L 209.641867 222.140639 
L 206.679954 229.733286 
L 203.705018 227.163413 
L 200.934736 233.666746 
L 197.995149 236.257503 
L 195.092772 232.968282 
L 192.099231 239.87277 
L 189.122434 230.45645 
L 186.162382 227.349058 
L 183.185585 223.49874 
L 180.335302 227.71747 
L 177.602231 223.225702 
L 174.772413 223.893956 
L 172.124924 226.440494 
L 169.401155 237.48894 
L 166.755527 228.294862 
L 164.052224 237.703079 
L 161.479155 239.173542 
L 158.868876 251.492123 
L 156.279063 252.171238 
L 153.586922 259.022934 
L 151.062226 265.255253 
L 148.494739 260.7374 
L 145.908647 266.41052 
L 143.395114 266.34996 
L 140.795998 266.047041 
L 138.425724 265.30097 
L 136.075915 258.410856 
L 133.776339 261.94058 
L 131.631185 270.867467 
L 129.342773 271.247802 
L 127.136222 263.996695 
L 124.938974 268.567042 
L 122.451488 268.724455 
L 119.9547 275.899735 
L 117.472795 276.12627 
L 115.089498 282.263078 
L 112.516429 287.434854 
L 109.934058 284.363836 
L 107.294011 282.251542 
L 104.454891 282.323778 
L 101.734843 270.13139 
L 98.826884 274.832705 
L 95.868693 268.027258 
L 92.847244 269.911577 
L 89.863005 266.537905 
L 86.795044 264.188679 
L 83.808945 266.801782 
L 80.720518 260.008576 
L 77.74 262.711659 
L 74.699946 266.653384 
L 71.773383 267.959838 
L 68.891472 271.314943 
z
" clip-path="url(#pc100cd45a7)" style="fill: #ff7f0e; fill-opacity: 0.2"/>
   </g>
   <g id="FillBetweenPolyCollection_3">
    <path d="M 69.021706 211.263194 
L 69.021706 269.451947 
L 72.089668 265.770346 
L 75.150187 264.717159 
L 78.419082 261.475851 
L 81.654488 262.98993 
L 85.239668 260.991405 
L 88.709496 266.19714 
L 91.950484 265.812774 
L 95.249147 267.58295 
L 98.54967 267.168701 
L 101.757169 271.516206 
L 104.782339 274.138759 
L 107.816811 274.37701 
L 110.737793 275.601771 
L 113.495051 273.696235 
L 115.991839 275.126664 
L 118.570489 275.475452 
L 121.143558 275.409587 
L 123.606857 277.036349 
L 126.291556 276.140031 
L 128.760437 274.579242 
L 131.266528 277.594664 
L 133.620058 277.698504 
L 136.01824 277.792349 
L 138.427585 276.088087 
L 140.876 278.815433 
L 143.223948 277.144639 
L 145.791436 277.756482 
L 148.169152 278.361458 
L 150.567334 275.965466 
L 153.216683 275.172578 
L 155.739518 274.912469 
L 158.355379 276.399268 
L 160.837283 274.612942 
L 163.296861 274.431406 
L 165.90528 274.252792 
L 168.33509 275.220154 
L 170.735132 273.230856 
L 173.038429 275.285294 
L 175.58173 271.428848 
L 178.180845 265.732989 
L 180.841358 266.372314 
L 183.537219 264.155474 
L 186.132614 264.521012 
L 188.778242 263.403866 
L 191.46108 267.976961 
L 194.18671 268.031976 
L 196.891874 266.849115 
L 199.608201 269.509075 
L 202.646394 265.157096 
L 205.764589 256.135326 
L 209.053949 253.861508 
L 212.335868 242.500255 
L 215.638252 238.099874 
L 219.044824 231.428595 
L 222.538839 229.391677 
L 226.148205 234.257086 
L 229.770595 238.441182 
L 233.474846 241.487792 
L 237.221889 241.788908 
L 240.628461 242.279309 
L 243.528977 243.407915 
L 246.351353 243.867028 
L 249.06768 246.693218 
L 251.60912 245.073097 
L 254.1487 241.980615 
L 256.595255 238.293356 
L 258.965529 232.678009 
L 261.449294 221.276064 
L 263.934919 210.390697 
L 266.463336 219.954207 
L 269.006637 222.543789 
L 271.575985 223.41301 
L 274.141612 240.750895 
L 276.75003 258.21798 
L 279.356587 265.957155 
L 281.966866 269.496087 
L 284.619936 267.203471 
L 287.328821 265.746064 
L 290.074916 262.685052 
L 292.899152 252.873613 
L 295.955951 248.518323 
L 298.988562 234.872503 
L 302.023035 234.709059 
L 305.131927 247.209788 
L 308.359891 257.785054 
L 311.805533 247.501434 
L 315.41676 226.085569 
L 319.052173 220.678482 
L 322.860612 206.345813 
L 326.460676 210.548887 
L 329.859806 196.607763 
L 333.247773 192.24776 
L 336.678531 182.104326 
L 340.008822 183.351643 
L 343.378184 182.578623 
L 346.810803 179.312053 
L 350.219235 168.986917 
L 353.622086 180.040249 
L 357.170056 202.75455 
L 360.66035 182.754227 
L 364.392509 177.056118 
L 368.158157 175.1413 
L 372.199159 189.971199 
L 376.403884 185.482542 
L 380.595586 174.917431 
L 384.742636 172.331001 
L 389.083178 171.423624 
L 393.511164 176.764548 
L 397.671237 182.491562 
L 402.01736 193.69882 
L 406.642558 217.407372 
L 411.366363 205.377876 
L 416.112493 200.032985 
L 420.942346 204.539741 
L 425.880108 223.625484 
L 430.868103 232.01686 
L 435.895169 227.913614 
L 440.808744 222.801916 
L 445.592084 227.86954 
L 450.325191 231.24586 
L 455.127136 222.07572 
L 459.919779 221.379308 
L 464.868704 229.75631 
L 469.819489 216.76254 
L 474.280963 213.102937 
L 478.459642 214.645971 
L 482.323896 228.805983 
L 486.083963 220.937685 
L 489.868216 210.885226 
L 493.352929 211.868328 
L 496.579032 213.240839 
L 500.246074 211.497122 
L 503.308453 218.012582 
L 506.0992 217.51898 
L 508.908552 221.268871 
L 511.807208 226.273532 
L 514.984939 227.977153 
L 518.53663 212.483668 
L 522.380418 203.751445 
L 526.603749 219.267732 
L 530.890336 218.742399 
L 535.175063 215.846778 
L 539.270019 214.387342 
L 543.539862 232.412749 
L 547.932498 218.842428 
L 552.079548 212.336503 
L 556.658234 197.880203 
L 561.16436 190.688225 
L 565.741185 190.017169 
L 570.401732 196.264334 
L 575.10135 189.197019 
L 579.06049 182.760098 
L 583.2801 179.522407 
L 587.687619 190.925454 
L 592.069092 171.251628 
L 596.299865 173.763415 
L 600.342727 199.421564 
L 604.5028 182.347695 
L 609.077765 171.803598 
L 613.407144 166.129379 
L 617.6528 177.658701 
L 621.83706 183.17463 
L 626.183184 182.570548 
L 630.09395 186.387112 
L 634.42519 173.701079 
L 638.401074 187.792816 
L 642.228118 198.286132 
L 645.999348 207.691517 
L 649.376152 213.270035 
L 652.289692 200.08625 
L 654.93532 212.573516 
L 657.55304 193.501827 
L 660.196808 198.782989 
L 662.821971 199.988529 
L 665.43225 214.50156 
L 668.029505 246.11361 
L 670.623039 218.925991 
L 673.224015 182.697651 
L 675.834294 172.078031 
L 678.438991 177.182126 
L 678.438991 135.561399 
L 678.438991 135.561399 
L 675.834294 137.34765 
L 673.224015 136.863644 
L 670.623039 141.50386 
L 668.029505 145.621786 
L 665.43225 140.030911 
L 662.821971 137.091142 
L 660.196808 136.826396 
L 657.55304 137.121566 
L 654.93532 137.385156 
L 652.289692 135.607363 
L 649.376152 134.101031 
L 645.999348 135.295664 
L 642.228118 135.24452 
L 638.401074 135.251797 
L 634.42519 135.611901 
L 630.09395 135.985911 
L 626.183184 134.721878 
L 621.83706 135.033221 
L 617.6528 135.563969 
L 613.407144 136.475999 
L 609.077765 135.900813 
L 604.5028 134.73846 
L 600.342727 134.749217 
L 596.299865 135.344675 
L 592.069092 135.441481 
L 587.687619 134.672187 
L 583.2801 135.384999 
L 579.06049 134.853602 
L 575.10135 135.29552 
L 570.401732 133.844066 
L 565.741185 135.190402 
L 561.16436 135.492854 
L 556.658234 134.513659 
L 552.079548 135.735543 
L 547.932498 139.50766 
L 543.539862 141.76233 
L 539.270019 136.434214 
L 535.175063 137.203654 
L 530.890336 141.191481 
L 526.603749 140.007465 
L 522.380418 136.684445 
L 518.53663 137.070881 
L 514.984939 140.512116 
L 511.807208 141.758715 
L 508.908552 142.869355 
L 506.0992 141.960988 
L 503.308453 142.826123 
L 500.246074 139.426534 
L 496.579032 134.598206 
L 493.352929 132.43404 
L 489.868216 133.310089 
L 486.083963 135.692062 
L 482.323896 138.720385 
L 478.459642 132.194216 
L 474.280963 133.39074 
L 469.819489 133.12884 
L 464.868704 133.479741 
L 459.919779 131.586309 
L 455.127136 130.563668 
L 450.325191 130.461944 
L 445.592084 129.790634 
L 440.808744 130.740452 
L 435.895169 130.627416 
L 430.868103 132.306201 
L 425.880108 133.396979 
L 420.942346 132.343214 
L 416.112493 133.502853 
L 411.366363 133.327289 
L 406.642558 135.216566 
L 402.01736 134.378104 
L 397.671237 133.656579 
L 393.511164 133.86833 
L 389.083178 134.061938 
L 384.742636 133.128057 
L 380.595586 132.758978 
L 376.403884 131.36496 
L 372.199159 130.053446 
L 368.158157 133.080401 
L 364.392509 133.037 
L 360.66035 132.430318 
L 357.170056 129.010928 
L 353.622086 133.074445 
L 350.219235 134.25502 
L 346.810803 135.300005 
L 343.378184 133.89425 
L 340.008822 132.646577 
L 336.678531 135.640051 
L 333.247773 133.069745 
L 329.859806 131.994745 
L 326.460676 129.897013 
L 322.860612 131.730626 
L 319.052173 133.022325 
L 315.41676 136.421036 
L 311.805533 141.089535 
L 308.359891 145.821498 
L 305.131927 144.705601 
L 302.023035 135.271931 
L 298.988562 132.022955 
L 295.955951 133.965664 
L 292.899152 140.507454 
L 290.074916 150.959743 
L 287.328821 157.207301 
L 284.619936 165.261625 
L 281.966866 175.81207 
L 279.356587 173.863399 
L 276.75003 171.716102 
L 274.141612 165.26755 
L 271.575985 161.290074 
L 269.006637 160.503482 
L 266.463336 157.787415 
L 263.934919 157.438408 
L 261.449294 155.082734 
L 258.965529 156.0697 
L 256.595255 160.219366 
L 254.1487 162.499665 
L 251.60912 162.113936 
L 249.06768 161.544642 
L 246.351353 158.063098 
L 243.528977 153.246867 
L 240.628461 148.809276 
L 237.221889 137.009748 
L 233.474846 137.878858 
L 229.770595 135.754067 
L 226.148205 136.558897 
L 222.538839 136.824817 
L 219.044824 135.863618 
L 215.638252 137.481767 
L 212.335868 142.423717 
L 209.053949 145.918558 
L 205.764589 147.770383 
L 202.646394 154.37367 
L 199.608201 162.506135 
L 196.891874 159.828181 
L 194.18671 165.830683 
L 191.46108 166.553599 
L 188.778242 160.846697 
L 186.132614 170.065439 
L 183.537219 173.02365 
L 180.841358 176.253853 
L 178.180845 182.82075 
L 175.58173 190.947791 
L 173.038429 198.978411 
L 170.735132 206.220038 
L 168.33509 208.987294 
L 165.90528 206.739485 
L 163.296861 217.510614 
L 160.837283 215.167732 
L 158.355379 226.125935 
L 155.739518 225.186115 
L 153.216683 223.298543 
L 150.567334 225.861068 
L 148.169152 225.781759 
L 145.791436 217.792857 
L 143.223948 223.7357 
L 140.876 230.265143 
L 138.427585 232.118432 
L 136.01824 232.464086 
L 133.620058 232.208194 
L 131.266528 233.089408 
L 128.760437 223.767657 
L 126.291556 225.319711 
L 123.606857 227.623469 
L 121.143558 225.488384 
L 118.570489 226.864109 
L 115.991839 224.683603 
L 113.495051 230.575009 
L 110.737793 229.440164 
L 107.816811 219.757012 
L 104.782339 222.342368 
L 101.757169 212.920101 
L 98.54967 206.029198 
L 95.249147 207.7559 
L 91.950484 204.907112 
L 88.709496 200.085969 
L 85.239668 199.236913 
L 81.654488 201.06684 
L 78.419082 199.54978 
L 75.150187 202.877095 
L 72.089668 203.738307 
L 69.021706 211.263194 
z
" clip-path="url(#pc100cd45a7)" style="fill: #2ca02c; fill-opacity: 0.2"/>
   </g>
   <g id="FillBetweenPolyCollection_4">
    <path d="M 69.086824 148.502872 
L 69.086824 220.102798 
L 72.203158 213.982015 
L 75.524147 213.567227 
L 79.001418 215.201461 
L 82.439618 216.271469 
L 86.179219 210.196226 
L 89.970914 211.464045 
L 93.334694 217.550721 
L 96.945921 216.834221 
L 100.34133 216.518526 
L 103.786972 222.692084 
L 107.372152 221.269537 
L 110.860586 222.282427 
L 114.289483 222.63308 
L 117.617914 226.684519 
L 120.840297 225.215553 
L 124.025469 228.173061 
L 127.27762 227.089796 
L 130.410699 223.484879 
L 133.36703 226.08446 
L 136.358711 225.194458 
L 139.30574 229.14447 
L 141.867645 227.461408 
L 144.515134 228.64026 
L 147.104947 228.709566 
L 149.931044 229.452693 
L 152.993423 228.712515 
L 155.836264 228.069482 
L 158.638174 228.930262 
L 161.488457 229.144156 
L 164.394555 227.853088 
L 167.445772 227.094235 
L 170.435592 228.598089 
L 173.386342 225.2953 
L 176.536165 223.792619 
L 179.600405 223.575239 
L 182.499061 222.93631 
L 185.425625 222.695344 
L 188.268466 224.244317 
L 191.185726 223.661044 
L 194.030428 223.276375 
L 196.83978 222.158877 
L 199.53006 222.114372 
L 202.142199 223.050106 
L 204.916202 219.326421 
L 207.541364 219.257158 
L 210.082805 222.337584 
L 212.737735 216.495424 
L 215.346154 216.882127 
L 217.868989 216.731239 
L 220.516478 216.524807 
L 223.082104 213.947546 
L 225.634708 215.058712 
L 228.055215 211.314585 
L 230.505491 203.349509 
L 233.050653 201.067449 
L 235.660931 202.159148 
L 238.261907 198.001982 
L 241.017305 188.861442 
L 243.869448 191.478291 
L 246.742057 184.489169 
L 249.642574 177.48512 
L 252.487275 165.117538 
L 255.352442 173.399413 
L 258.065048 170.305496 
L 260.615791 171.800611 
L 263.298629 161.671198 
L 266.21403 158.309757 
L 269.097801 159.056786 
L 272.074598 158.726505 
L 275.040232 164.460794 
L 277.873771 161.684937 
L 280.915685 152.399964 
L 284.0376 157.050428 
L 287.094399 153.833194 
L 290.093521 147.56035 
L 293.211716 146.419594 
L 296.302003 151.86797 
L 299.262056 150.09901 
L 302.279783 145.467573 
L 305.511468 135.901674 
L 308.774782 140.780553 
L 312.138562 130.82952 
L 315.556297 139.48942 
L 318.875426 126.579526 
L 322.313626 131.761635 
L 325.677406 134.59165 
L 329.169561 134.787305 
L 332.613343 145.508585 
L 336.111079 153.083817 
L 339.66277 163.390917 
L 343.409813 144.92287 
L 346.691731 165.285989 
L 349.742948 143.507721 
L 353.424874 126.218867 
L 357.346803 112.879052 
L 361.099428 112.004652 
L 364.913449 99.883609 
L 368.597235 98.369151 
L 372.308928 101.307319 
L 375.910852 97.672419 
L 379.551847 92.984181 
L 383.174237 106.747652 
L 386.858023 105.171636 
L 390.625531 123.699587 
L 394.646067 129.857086 
L 398.947539 107.303424 
L 403.068542 105.517287 
L 407.079776 112.483323 
L 411.059381 127.542336 
L 415.048288 142.720637 
L 419.08929 146.075256 
L 423.126571 152.634573 
L 427.150828 151.520031 
L 431.296018 152.579557 
L 435.48958 151.849964 
L 439.590118 163.430401 
L 443.642282 165.930107 
L 447.655377 177.136374 
L 451.646145 167.271676 
L 455.759706 173.674296 
L 459.739311 172.666929 
L 463.782173 156.879981 
L 467.949689 161.330509 
L 472.042784 156.982357 
L 476.186113 149.428278 
L 480.290372 146.154769 
L 484.376026 144.22178 
L 488.42633 166.00608 
L 492.184536 174.566129 
L 496.032046 150.778318 
L 500.175375 149.952662 
L 504.000559 170.866846 
L 508.112259 155.901996 
L 512.201634 148.474208 
L 516.255659 145.076461 
L 520.214799 139.75659 
L 523.99347 143.308306 
L 527.963773 157.177598 
L 531.995472 155.156037 
L 535.98438 146.699517 
L 540.101662 150.281179 
L 544.161269 163.400959 
L 548.20227 154.866491 
L 552.431182 149.185474 
L 556.689862 143.383481 
L 561.307618 137.215742 
L 566.051888 132.510681 
L 570.757088 144.402534 
L 575.255772 149.184384 
L 579.601895 136.090054 
L 583.910808 124.352003 
L 588.0653 92.843389 
L 592.325841 88.088263 
L 596.517543 80.476371 
L 600.523195 72.443513 
L 604.380007 78.226317 
L 608.229378 73.977775 
L 611.946653 124.829549 
L 614.897403 183.758907 
L 618.069552 106.436818 
L 621.965435 74.529378 
L 626.108764 74.864113 
L 630.523725 76.395314 
L 634.983339 69.423538 
L 639.435511 70.332025 
L 643.774192 72.621828 
L 648.24869 71.074938 
L 652.780863 73.118131 
L 657.292571 72.077226 
L 661.80986 72.68535 
L 665.767139 70.304028 
L 669.348598 72.587494 
L 673.028663 69.175377 
L 676.706867 75.41806 
L 676.706867 35.572854 
L 676.706867 35.572854 
L 673.028663 35.979576 
L 669.348598 35.683413 
L 665.767139 36.065962 
L 661.80986 35.55041 
L 657.292571 35.736659 
L 652.780863 35.962072 
L 648.24869 36.562408 
L 643.774192 35.885772 
L 639.435511 36.317296 
L 634.983339 36.349651 
L 630.523725 35.624188 
L 626.108764 36.224866 
L 621.965435 36.028483 
L 618.069552 38.937338 
L 614.897403 51.201239 
L 611.946653 43.519815 
L 608.229378 36.357568 
L 604.380007 36.232479 
L 600.523195 36.272317 
L 596.517543 37.185729 
L 592.325841 37.882055 
L 588.0653 37.664999 
L 583.910808 36.132345 
L 579.601895 35.40949 
L 575.255772 33.177209 
L 570.757088 34.054667 
L 566.051888 31.783793 
L 561.307618 32.330798 
L 556.689862 30.700897 
L 552.431182 28.98894 
L 548.20227 31.423001 
L 544.161269 30.111923 
L 540.101662 30.626033 
L 535.98438 32.210327 
L 531.995472 34.188565 
L 527.963773 32.585076 
L 523.99347 34.588507 
L 520.214799 37.167871 
L 516.255659 37.597535 
L 512.201634 35.606576 
L 508.112259 36.434454 
L 504.000559 40.308335 
L 500.175375 39.405309 
L 496.032046 36.002998 
L 492.184536 39.518388 
L 488.42633 34.905581 
L 484.376026 36.00739 
L 480.290372 37.811933 
L 476.186113 35.364428 
L 472.042784 32.14019 
L 467.949689 32.23596 
L 463.782173 32.87002 
L 459.739311 42.752936 
L 455.759706 34.66576 
L 451.646145 28.038182 
L 447.655377 31.569205 
L 443.642282 30.788267 
L 439.590118 33.303991 
L 435.48958 33.054866 
L 431.296018 32.687918 
L 427.150828 33.731774 
L 423.126571 36.192284 
L 419.08929 31.650786 
L 415.048288 29.874453 
L 411.059381 32.967483 
L 407.079776 33.222026 
L 403.068542 34.89428 
L 398.947539 34.156897 
L 394.646067 31.925499 
L 390.625531 31.954572 
L 386.858023 35.518224 
L 383.174237 36.216949 
L 379.551847 37.36484 
L 375.910852 37.578813 
L 372.308928 36.811303 
L 368.597235 36.870328 
L 364.913449 35.815772 
L 361.099428 35.64955 
L 357.346803 33.468271 
L 353.424874 33.784148 
L 349.742948 39.046322 
L 346.691731 44.015133 
L 343.409813 31.610256 
L 339.66277 34.045376 
L 336.111079 33.622251 
L 332.613343 37.111711 
L 329.169561 35.473459 
L 325.677406 38.063696 
L 322.313626 37.487481 
L 318.875426 38.716338 
L 315.556297 44.096771 
L 312.138562 40.272343 
L 308.774782 44.036579 
L 305.511468 41.714423 
L 302.279783 44.867818 
L 299.262056 47.024874 
L 296.302003 49.004046 
L 293.211716 44.181759 
L 290.093521 47.248347 
L 287.094399 48.623765 
L 284.0376 45.789918 
L 280.915685 46.293766 
L 277.873771 54.408701 
L 275.040232 52.997457 
L 272.074598 52.930241 
L 269.097801 56.151502 
L 266.21403 53.652019 
L 263.298629 55.705241 
L 260.615791 61.69951 
L 258.065048 60.774576 
L 255.352442 61.949542 
L 252.487275 57.175294 
L 249.642574 60.941995 
L 246.742057 58.103348 
L 243.869448 60.537105 
L 241.017305 62.030412 
L 238.261907 69.455478 
L 235.660931 75.263716 
L 233.050653 70.236323 
L 230.505491 74.687674 
L 228.055215 84.810457 
L 225.634708 96.295556 
L 223.082104 89.06532 
L 220.516478 108.264936 
L 217.868989 109.23056 
L 215.346154 116.243254 
L 212.737735 103.816865 
L 210.082805 116.780939 
L 207.541364 120.611775 
L 204.916202 129.42886 
L 202.142199 137.622201 
L 199.53006 135.236748 
L 196.83978 134.343652 
L 194.030428 130.300568 
L 191.185726 135.58016 
L 188.268466 139.282131 
L 185.425625 134.563473 
L 182.499061 147.133986 
L 179.600405 139.106883 
L 176.536165 147.776771 
L 173.386342 148.160142 
L 170.435592 149.846454 
L 167.445772 143.572291 
L 164.394555 153.575579 
L 161.488457 161.63779 
L 158.638174 172.610829 
L 155.836264 156.709182 
L 152.993423 165.602652 
L 149.931044 159.522945 
L 147.104947 157.917468 
L 144.515134 163.204498 
L 141.867645 165.032123 
L 139.30574 165.176805 
L 136.358711 158.593647 
L 133.36703 157.786153 
L 130.410699 153.309038 
L 127.27762 159.022484 
L 124.025469 155.832261 
L 120.840297 161.500557 
L 117.617914 147.664227 
L 114.289483 155.401112 
L 110.860586 147.804237 
L 107.372152 146.675713 
L 103.786972 145.740038 
L 100.34133 144.65552 
L 96.945921 135.805753 
L 93.334694 148.645036 
L 89.970914 138.342416 
L 86.179219 135.886878 
L 82.439618 137.045972 
L 79.001418 144.118457 
L 75.524147 142.209213 
L 72.203158 143.331891 
L 69.086824 148.502872 
z
" clip-path="url(#pc100cd45a7)" style="fill: #d62728; fill-opacity: 0.2"/>
   </g>
   <g id="matplotlib.axis_1">
    <g id="xtick_1">
     <g id="line2d_1">
      <path d="M 67.434702 390.04 
L 67.434702 10.8 
" clip-path="url(#pc100cd45a7)" style="fill: none; stroke: #b0b0b0; stroke-width: 0.8; stroke-linecap: square"/>
     </g>
     <g id="line2d_2">
      <defs>
       <path id="mc2a943ddf2" d="M 0 0 
L 0 3.5 
" style="stroke: #000000; stroke-width: 0.8"/>
      </defs>
      <g>
       <use xlink:href="#mc2a943ddf2" x="67.434702" y="390.04" style="stroke: #000000; stroke-width: 0.8"/>
      </g>
     </g>
     <g id="text_1">
      <!-- 0 -->
      <g transform="translate(64.253452 404.638438) scale(0.1 -0.1)">
       <defs>
        <path id="DejaVuSans-30" d="M 2034 4250 
Q 1547 4250 1301 3770 
Q 1056 3291 1056 2328 
Q 1056 1369 1301 889 
Q 1547 409 2034 409 
Q 2525 409 2770 889 
Q 3016 1369 3016 2328 
Q 3016 3291 2770 3770 
Q 2525 4250 2034 4250 
z
M 2034 4750 
Q 2819 4750 3233 4129 
Q 3647 3509 3647 2328 
Q 3647 1150 3233 529 
Q 2819 -91 2034 -91 
Q 1250 -91 836 529 
Q 422 1150 422 2328 
Q 422 3509 836 4129 
Q 1250 4750 2034 4750 
z
" transform="scale(0.015625)"/>
       </defs>
       <use xlink:href="#DejaVuSans-30"/>
      </g>
     </g>
    </g>
    <g id="xtick_2">
     <g id="line2d_3">
      <path d="M 160.459602 390.04 
L 160.459602 10.8 
" clip-path="url(#pc100cd45a7)" style="fill: none; stroke: #b0b0b0; stroke-width: 0.8; stroke-linecap: square"/>
     </g>
     <g id="line2d_4">
      <g>
       <use xlink:href="#mc2a943ddf2" x="160.459602" y="390.04" style="stroke: #000000; stroke-width: 0.8"/>
      </g>
     </g>
     <g id="text_2">
      <!-- 50000 -->
      <g transform="translate(144.553352 404.638438) scale(0.1 -0.1)">
       <defs>
        <path id="DejaVuSans-35" d="M 691 4666 
L 3169 4666 
L 3169 4134 
L 1269 4134 
L 1269 2991 
Q 1406 3038 1543 3061 
Q 1681 3084 1819 3084 
Q 2600 3084 3056 2656 
Q 3513 2228 3513 1497 
Q 3513 744 3044 326 
Q 2575 -91 1722 -91 
Q 1428 -91 1123 -41 
Q 819 9 494 109 
L 494 744 
Q 775 591 1075 516 
Q 1375 441 1709 441 
Q 2250 441 2565 725 
Q 2881 1009 2881 1497 
Q 2881 1984 2565 2268 
Q 2250 2553 1709 2553 
Q 1456 2553 1204 2497 
Q 953 2441 691 2322 
L 691 4666 
z
" transform="scale(0.015625)"/>
       </defs>
       <use xlink:href="#DejaVuSans-35"/>
       <use xlink:href="#DejaVuSans-30" transform="translate(63.623047 0)"/>
       <use xlink:href="#DejaVuSans-30" transform="translate(127.246094 0)"/>
       <use xlink:href="#DejaVuSans-30" transform="translate(190.869141 0)"/>
       <use xlink:href="#DejaVuSans-30" transform="translate(254.492188 0)"/>
      </g>
     </g>
    </g>
    <g id="xtick_3">
     <g id="line2d_5">
      <path d="M 253.484502 390.04 
L 253.484502 10.8 
" clip-path="url(#pc100cd45a7)" style="fill: none; stroke: #b0b0b0; stroke-width: 0.8; stroke-linecap: square"/>
     </g>
     <g id="line2d_6">
      <g>
       <use xlink:href="#mc2a943ddf2" x="253.484502" y="390.04" style="stroke: #000000; stroke-width: 0.8"/>
      </g>
     </g>
     <g id="text_3">
      <!-- 100000 -->
      <g transform="translate(234.397002 404.638438) scale(0.1 -0.1)">
       <defs>
        <path id="DejaVuSans-31" d="M 794 531 
L 1825 531 
L 1825 4091 
L 703 3866 
L 703 4441 
L 1819 4666 
L 2450 4666 
L 2450 531 
L 3481 531 
L 3481 0 
L 794 0 
L 794 531 
z
" transform="scale(0.015625)"/>
       </defs>
       <use xlink:href="#DejaVuSans-31"/>
       <use xlink:href="#DejaVuSans-30" transform="translate(63.623047 0)"/>
       <use xlink:href="#DejaVuSans-30" transform="translate(127.246094 0)"/>
       <use xlink:href="#DejaVuSans-30" transform="translate(190.869141 0)"/>
       <use xlink:href="#DejaVuSans-30" transform="translate(254.492188 0)"/>
       <use xlink:href="#DejaVuSans-30" transform="translate(318.115234 0)"/>
      </g>
     </g>
    </g>
    <g id="xtick_4">
     <g id="line2d_7">
      <path d="M 346.509402 390.04 
L 346.509402 10.8 
" clip-path="url(#pc100cd45a7)" style="fill: none; stroke: #b0b0b0; stroke-width: 0.8; stroke-linecap: square"/>
     </g>
     <g id="line2d_8">
      <g>
       <use xlink:href="#mc2a943ddf2" x="346.509402" y="390.04" style="stroke: #000000; stroke-width: 0.8"/>
      </g>
     </g>
     <g id="text_4">
      <!-- 150000 -->
      <g transform="translate(327.421902 404.638438) scale(0.1 -0.1)">
       <use xlink:href="#DejaVuSans-31"/>
       <use xlink:href="#DejaVuSans-35" transform="translate(63.623047 0)"/>
       <use xlink:href="#DejaVuSans-30" transform="translate(127.246094 0)"/>
       <use xlink:href="#DejaVuSans-30" transform="translate(190.869141 0)"/>
       <use xlink:href="#DejaVuSans-30" transform="translate(254.492188 0)"/>
       <use xlink:href="#DejaVuSans-30" transform="translate(318.115234 0)"/>
      </g>
     </g>
    </g>
    <g id="xtick_5">
     <g id="line2d_9">
      <path d="M 439.534303 390.04 
L 439.534303 10.8 
" clip-path="url(#pc100cd45a7)" style="fill: none; stroke: #b0b0b0; stroke-width: 0.8; stroke-linecap: square"/>
     </g>
     <g id="line2d_10">
      <g>
       <use xlink:href="#mc2a943ddf2" x="439.534303" y="390.04" style="stroke: #000000; stroke-width: 0.8"/>
      </g>
     </g>
     <g id="text_5">
      <!-- 200000 -->
      <g transform="translate(420.446803 404.638438) scale(0.1 -0.1)">
       <defs>
        <path id="DejaVuSans-32" d="M 1228 531 
L 3431 531 
L 3431 0 
L 469 0 
L 469 531 
Q 828 903 1448 1529 
Q 2069 2156 2228 2338 
Q 2531 2678 2651 2914 
Q 2772 3150 2772 3378 
Q 2772 3750 2511 3984 
Q 2250 4219 1831 4219 
Q 1534 4219 1204 4116 
Q 875 4013 500 3803 
L 500 4441 
Q 881 4594 1212 4672 
Q 1544 4750 1819 4750 
Q 2544 4750 2975 4387 
Q 3406 4025 3406 3419 
Q 3406 3131 3298 2873 
Q 3191 2616 2906 2266 
Q 2828 2175 2409 1742 
Q 1991 1309 1228 531 
z
" transform="scale(0.015625)"/>
       </defs>
       <use xlink:href="#DejaVuSans-32"/>
       <use xlink:href="#DejaVuSans-30" transform="translate(63.623047 0)"/>
       <use xlink:href="#DejaVuSans-30" transform="translate(127.246094 0)"/>
       <use xlink:href="#DejaVuSans-30" transform="translate(190.869141 0)"/>
       <use xlink:href="#DejaVuSans-30" transform="translate(254.492188 0)"/>
       <use xlink:href="#DejaVuSans-30" transform="translate(318.115234 0)"/>
      </g>
     </g>
    </g>
    <g id="xtick_6">
     <g id="line2d_11">
      <path d="M 532.559203 390.04 
L 532.559203 10.8 
" clip-path="url(#pc100cd45a7)" style="fill: none; stroke: #b0b0b0; stroke-width: 0.8; stroke-linecap: square"/>
     </g>
     <g id="line2d_12">
      <g>
       <use xlink:href="#mc2a943ddf2" x="532.559203" y="390.04" style="stroke: #000000; stroke-width: 0.8"/>
      </g>
     </g>
     <g id="text_6">
      <!-- 250000 -->
      <g transform="translate(513.471703 404.638438) scale(0.1 -0.1)">
       <use xlink:href="#DejaVuSans-32"/>
       <use xlink:href="#DejaVuSans-35" transform="translate(63.623047 0)"/>
       <use xlink:href="#DejaVuSans-30" transform="translate(127.246094 0)"/>
       <use xlink:href="#DejaVuSans-30" transform="translate(190.869141 0)"/>
       <use xlink:href="#DejaVuSans-30" transform="translate(254.492188 0)"/>
       <use xlink:href="#DejaVuSans-30" transform="translate(318.115234 0)"/>
      </g>
     </g>
    </g>
    <g id="xtick_7">
     <g id="line2d_13">
      <path d="M 625.584103 390.04 
L 625.584103 10.8 
" clip-path="url(#pc100cd45a7)" style="fill: none; stroke: #b0b0b0; stroke-width: 0.8; stroke-linecap: square"/>
     </g>
     <g id="line2d_14">
      <g>
       <use xlink:href="#mc2a943ddf2" x="625.584103" y="390.04" style="stroke: #000000; stroke-width: 0.8"/>
      </g>
     </g>
     <g id="text_7">
      <!-- 300000 -->
      <g transform="translate(606.496603 404.638438) scale(0.1 -0.1)">
       <defs>
        <path id="DejaVuSans-33" d="M 2597 2516 
Q 3050 2419 3304 2112 
Q 3559 1806 3559 1356 
Q 3559 666 3084 287 
Q 2609 -91 1734 -91 
Q 1441 -91 1130 -33 
Q 819 25 488 141 
L 488 750 
Q 750 597 1062 519 
Q 1375 441 1716 441 
Q 2309 441 2620 675 
Q 2931 909 2931 1356 
Q 2931 1769 2642 2001 
Q 2353 2234 1838 2234 
L 1294 2234 
L 1294 2753 
L 1863 2753 
Q 2328 2753 2575 2939 
Q 2822 3125 2822 3475 
Q 2822 3834 2567 4026 
Q 2313 4219 1838 4219 
Q 1578 4219 1281 4162 
Q 984 4106 628 3988 
L 628 4550 
Q 988 4650 1302 4700 
Q 1616 4750 1894 4750 
Q 2613 4750 3031 4423 
Q 3450 4097 3450 3541 
Q 3450 3153 3228 2886 
Q 3006 2619 2597 2516 
z
" transform="scale(0.015625)"/>
       </defs>
       <use xlink:href="#DejaVuSans-33"/>
       <use xlink:href="#DejaVuSans-30" transform="translate(63.623047 0)"/>
       <use xlink:href="#DejaVuSans-30" transform="translate(127.246094 0)"/>
       <use xlink:href="#DejaVuSans-30" transform="translate(190.869141 0)"/>
       <use xlink:href="#DejaVuSans-30" transform="translate(254.492188 0)"/>
       <use xlink:href="#DejaVuSans-30" transform="translate(318.115234 0)"/>
      </g>
     </g>
    </g>
    <g id="text_8">
     <!-- Steps -->
     <g transform="translate(359.745156 418.316562) scale(0.1 -0.1)">
      <defs>
       <path id="DejaVuSans-53" d="M 3425 4513 
L 3425 3897 
Q 3066 4069 2747 4153 
Q 2428 4238 2131 4238 
Q 1616 4238 1336 4038 
Q 1056 3838 1056 3469 
Q 1056 3159 1242 3001 
Q 1428 2844 1947 2747 
L 2328 2669 
Q 3034 2534 3370 2195 
Q 3706 1856 3706 1288 
Q 3706 609 3251 259 
Q 2797 -91 1919 -91 
Q 1588 -91 1214 -16 
Q 841 59 441 206 
L 441 856 
Q 825 641 1194 531 
Q 1563 422 1919 422 
Q 2459 422 2753 634 
Q 3047 847 3047 1241 
Q 3047 1584 2836 1778 
Q 2625 1972 2144 2069 
L 1759 2144 
Q 1053 2284 737 2584 
Q 422 2884 422 3419 
Q 422 4038 858 4394 
Q 1294 4750 2059 4750 
Q 2388 4750 2728 4690 
Q 3069 4631 3425 4513 
z
" transform="scale(0.015625)"/>
       <path id="DejaVuSans-74" d="M 1172 4494 
L 1172 3500 
L 2356 3500 
L 2356 3053 
L 1172 3053 
L 1172 1153 
Q 1172 725 1289 603 
Q 1406 481 1766 481 
L 2356 481 
L 2356 0 
L 1766 0 
Q 1100 0 847 248 
Q 594 497 594 1153 
L 594 3053 
L 172 3053 
L 172 3500 
L 594 3500 
L 594 4494 
L 1172 4494 
z
" transform="scale(0.015625)"/>
       <path id="DejaVuSans-65" d="M 3597 1894 
L 3597 1613 
L 953 1613 
Q 991 1019 1311 708 
Q 1631 397 2203 397 
Q 2534 397 2845 478 
Q 3156 559 3463 722 
L 3463 178 
Q 3153 47 2828 -22 
Q 2503 -91 2169 -91 
Q 1331 -91 842 396 
Q 353 884 353 1716 
Q 353 2575 817 3079 
Q 1281 3584 2069 3584 
Q 2775 3584 3186 3129 
Q 3597 2675 3597 1894 
z
M 3022 2063 
Q 3016 2534 2758 2815 
Q 2500 3097 2075 3097 
Q 1594 3097 1305 2825 
Q 1016 2553 972 2059 
L 3022 2063 
z
" transform="scale(0.015625)"/>
       <path id="DejaVuSans-70" d="M 1159 525 
L 1159 -1331 
L 581 -1331 
L 581 3500 
L 1159 3500 
L 1159 2969 
Q 1341 3281 1617 3432 
Q 1894 3584 2278 3584 
Q 2916 3584 3314 3078 
Q 3713 2572 3713 1747 
Q 3713 922 3314 415 
Q 2916 -91 2278 -91 
Q 1894 -91 1617 61 
Q 1341 213 1159 525 
z
M 3116 1747 
Q 3116 2381 2855 2742 
Q 2594 3103 2138 3103 
Q 1681 3103 1420 2742 
Q 1159 2381 1159 1747 
Q 1159 1113 1420 752 
Q 1681 391 2138 391 
Q 2594 391 2855 752 
Q 3116 1113 3116 1747 
z
" transform="scale(0.015625)"/>
       <path id="DejaVuSans-73" d="M 2834 3397 
L 2834 2853 
Q 2591 2978 2328 3040 
Q 2066 3103 1784 3103 
Q 1356 3103 1142 2972 
Q 928 2841 928 2578 
Q 928 2378 1081 2264 
Q 1234 2150 1697 2047 
L 1894 2003 
Q 2506 1872 2764 1633 
Q 3022 1394 3022 966 
Q 3022 478 2636 193 
Q 2250 -91 1575 -91 
Q 1294 -91 989 -36 
Q 684 19 347 128 
L 347 722 
Q 666 556 975 473 
Q 1284 391 1588 391 
Q 1994 391 2212 530 
Q 2431 669 2431 922 
Q 2431 1156 2273 1281 
Q 2116 1406 1581 1522 
L 1381 1569 
Q 847 1681 609 1914 
Q 372 2147 372 2553 
Q 372 3047 722 3315 
Q 1072 3584 1716 3584 
Q 2034 3584 2315 3537 
Q 2597 3491 2834 3397 
z
" transform="scale(0.015625)"/>
      </defs>
      <use xlink:href="#DejaVuSans-53"/>
      <use xlink:href="#DejaVuSans-74" transform="translate(63.476562 0)"/>
      <use xlink:href="#DejaVuSans-65" transform="translate(102.685547 0)"/>
      <use xlink:href="#DejaVuSans-70" transform="translate(164.208984 0)"/>
      <use xlink:href="#DejaVuSans-73" transform="translate(227.685547 0)"/>
     </g>
    </g>
   </g>
   <g id="matplotlib.axis_2">
    <g id="ytick_1">
     <g id="line2d_15">
      <path d="M 38.27 334.393588 
L 709.2 334.393588 
" clip-path="url(#pc100cd45a7)" style="fill: none; stroke: #b0b0b0; stroke-width: 0.8; stroke-linecap: square"/>
     </g>
     <g id="line2d_16">
      <defs>
       <path id="m23391db33d" d="M 0 0 
L -3.5 0 
" style="stroke: #000000; stroke-width: 0.8"/>
      </defs>
      <g>
       <use xlink:href="#m23391db33d" x="38.27" y="334.393588" style="stroke: #000000; stroke-width: 0.8"/>
      </g>
     </g>
     <g id="text_9">
      <!-- 3 -->
      <g transform="translate(24.9075 338.192807) scale(0.1 -0.1)">
       <use xlink:href="#DejaVuSans-33"/>
      </g>
     </g>
    </g>
    <g id="ytick_2">
     <g id="line2d_17">
      <path d="M 38.27 259.721314 
L 709.2 259.721314 
" clip-path="url(#pc100cd45a7)" style="fill: none; stroke: #b0b0b0; stroke-width: 0.8; stroke-linecap: square"/>
     </g>
     <g id="line2d_18">
      <g>
       <use xlink:href="#m23391db33d" x="38.27" y="259.721314" style="stroke: #000000; stroke-width: 0.8"/>
      </g>
     </g>
     <g id="text_10">
      <!-- 4 -->
      <g transform="translate(24.9075 263.520533) scale(0.1 -0.1)">
       <defs>
        <path id="DejaVuSans-34" d="M 2419 4116 
L 825 1625 
L 2419 1625 
L 2419 4116 
z
M 2253 4666 
L 3047 4666 
L 3047 1625 
L 3713 1625 
L 3713 1100 
L 3047 1100 
L 3047 0 
L 2419 0 
L 2419 1100 
L 313 1100 
L 313 1709 
L 2253 4666 
z
" transform="scale(0.015625)"/>
       </defs>
       <use xlink:href="#DejaVuSans-34"/>
      </g>
     </g>
    </g>
    <g id="ytick_3">
     <g id="line2d_19">
      <path d="M 38.27 185.04904 
L 709.2 185.04904 
" clip-path="url(#pc100cd45a7)" style="fill: none; stroke: #b0b0b0; stroke-width: 0.8; stroke-linecap: square"/>
     </g>
     <g id="line2d_20">
      <g>
       <use xlink:href="#m23391db33d" x="38.27" y="185.04904" style="stroke: #000000; stroke-width: 0.8"/>
      </g>
     </g>
     <g id="text_11">
      <!-- 5 -->
      <g transform="translate(24.9075 188.848259) scale(0.1 -0.1)">
       <use xlink:href="#DejaVuSans-35"/>
      </g>
     </g>
    </g>
    <g id="ytick_4">
     <g id="line2d_21">
      <path d="M 38.27 110.376766 
L 709.2 110.376766 
" clip-path="url(#pc100cd45a7)" style="fill: none; stroke: #b0b0b0; stroke-width: 0.8; stroke-linecap: square"/>
     </g>
     <g id="line2d_22">
      <g>
       <use xlink:href="#m23391db33d" x="38.27" y="110.376766" style="stroke: #000000; stroke-width: 0.8"/>
      </g>
     </g>
     <g id="text_12">
      <!-- 6 -->
      <g transform="translate(24.9075 114.175985) scale(0.1 -0.1)">
       <defs>
        <path id="DejaVuSans-36" d="M 2113 2584 
Q 1688 2584 1439 2293 
Q 1191 2003 1191 1497 
Q 1191 994 1439 701 
Q 1688 409 2113 409 
Q 2538 409 2786 701 
Q 3034 994 3034 1497 
Q 3034 2003 2786 2293 
Q 2538 2584 2113 2584 
z
M 3366 4563 
L 3366 3988 
Q 3128 4100 2886 4159 
Q 2644 4219 2406 4219 
Q 1781 4219 1451 3797 
Q 1122 3375 1075 2522 
Q 1259 2794 1537 2939 
Q 1816 3084 2150 3084 
Q 2853 3084 3261 2657 
Q 3669 2231 3669 1497 
Q 3669 778 3244 343 
Q 2819 -91 2113 -91 
Q 1303 -91 875 529 
Q 447 1150 447 2328 
Q 447 3434 972 4092 
Q 1497 4750 2381 4750 
Q 2619 4750 2861 4703 
Q 3103 4656 3366 4563 
z
" transform="scale(0.015625)"/>
       </defs>
       <use xlink:href="#DejaVuSans-36"/>
      </g>
     </g>
    </g>
    <g id="ytick_5">
     <g id="line2d_23">
      <path d="M 38.27 35.704492 
L 709.2 35.704492 
" clip-path="url(#pc100cd45a7)" style="fill: none; stroke: #b0b0b0; stroke-width: 0.8; stroke-linecap: square"/>
     </g>
     <g id="line2d_24">
      <g>
       <use xlink:href="#m23391db33d" x="38.27" y="35.704492" style="stroke: #000000; stroke-width: 0.8"/>
      </g>
     </g>
     <g id="text_13">
      <!-- 7 -->
      <g transform="translate(24.9075 39.503711) scale(0.1 -0.1)">
       <defs>
        <path id="DejaVuSans-37" d="M 525 4666 
L 3525 4666 
L 3525 4397 
L 1831 0 
L 1172 0 
L 2766 4134 
L 525 4134 
L 525 4666 
z
" transform="scale(0.015625)"/>
       </defs>
       <use xlink:href="#DejaVuSans-37"/>
      </g>
     </g>
    </g>
    <g id="text_14">
     <!-- Reward -->
     <g transform="translate(18.827813 219.041094) rotate(-90) scale(0.1 -0.1)">
      <defs>
       <path id="DejaVuSans-52" d="M 2841 2188 
Q 3044 2119 3236 1894 
Q 3428 1669 3622 1275 
L 4263 0 
L 3584 0 
L 2988 1197 
Q 2756 1666 2539 1819 
Q 2322 1972 1947 1972 
L 1259 1972 
L 1259 0 
L 628 0 
L 628 4666 
L 2053 4666 
Q 2853 4666 3247 4331 
Q 3641 3997 3641 3322 
Q 3641 2881 3436 2590 
Q 3231 2300 2841 2188 
z
M 1259 4147 
L 1259 2491 
L 2053 2491 
Q 2509 2491 2742 2702 
Q 2975 2913 2975 3322 
Q 2975 3731 2742 3939 
Q 2509 4147 2053 4147 
L 1259 4147 
z
" transform="scale(0.015625)"/>
       <path id="DejaVuSans-77" d="M 269 3500 
L 844 3500 
L 1563 769 
L 2278 3500 
L 2956 3500 
L 3675 769 
L 4391 3500 
L 4966 3500 
L 4050 0 
L 3372 0 
L 2619 2869 
L 1863 0 
L 1184 0 
L 269 3500 
z
" transform="scale(0.015625)"/>
       <path id="DejaVuSans-61" d="M 2194 1759 
Q 1497 1759 1228 1600 
Q 959 1441 959 1056 
Q 959 750 1161 570 
Q 1363 391 1709 391 
Q 2188 391 2477 730 
Q 2766 1069 2766 1631 
L 2766 1759 
L 2194 1759 
z
M 3341 1997 
L 3341 0 
L 2766 0 
L 2766 531 
Q 2569 213 2275 61 
Q 1981 -91 1556 -91 
Q 1019 -91 701 211 
Q 384 513 384 1019 
Q 384 1609 779 1909 
Q 1175 2209 1959 2209 
L 2766 2209 
L 2766 2266 
Q 2766 2663 2505 2880 
Q 2244 3097 1772 3097 
Q 1472 3097 1187 3025 
Q 903 2953 641 2809 
L 641 3341 
Q 956 3463 1253 3523 
Q 1550 3584 1831 3584 
Q 2591 3584 2966 3190 
Q 3341 2797 3341 1997 
z
" transform="scale(0.015625)"/>
       <path id="DejaVuSans-72" d="M 2631 2963 
Q 2534 3019 2420 3045 
Q 2306 3072 2169 3072 
Q 1681 3072 1420 2755 
Q 1159 2438 1159 1844 
L 1159 0 
L 581 0 
L 581 3500 
L 1159 3500 
L 1159 2956 
Q 1341 3275 1631 3429 
Q 1922 3584 2338 3584 
Q 2397 3584 2469 3576 
Q 2541 3569 2628 3553 
L 2631 2963 
z
" transform="scale(0.015625)"/>
       <path id="DejaVuSans-64" d="M 2906 2969 
L 2906 4863 
L 3481 4863 
L 3481 0 
L 2906 0 
L 2906 525 
Q 2725 213 2448 61 
Q 2172 -91 1784 -91 
Q 1150 -91 751 415 
Q 353 922 353 1747 
Q 353 2572 751 3078 
Q 1150 3584 1784 3584 
Q 2172 3584 2448 3432 
Q 2725 3281 2906 2969 
z
M 947 1747 
Q 947 1113 1208 752 
Q 1469 391 1925 391 
Q 2381 391 2643 752 
Q 2906 1113 2906 1747 
Q 2906 2381 2643 2742 
Q 2381 3103 1925 3103 
Q 1469 3103 1208 2742 
Q 947 2381 947 1747 
z
" transform="scale(0.015625)"/>
      </defs>
      <use xlink:href="#DejaVuSans-52"/>
      <use xlink:href="#DejaVuSans-65" transform="translate(64.982422 0)"/>
      <use xlink:href="#DejaVuSans-77" transform="translate(126.505859 0)"/>
      <use xlink:href="#DejaVuSans-61" transform="translate(208.292969 0)"/>
      <use xlink:href="#DejaVuSans-72" transform="translate(269.572266 0)"/>
      <use xlink:href="#DejaVuSans-64" transform="translate(308.935547 0)"/>
     </g>
    </g>
   </g>
   <g id="line2d_25">
    <path d="M 68.766818 349.871779 
L 71.362213 347.58108 
L 74.043191 346.742226 
L 76.794867 345.403196 
L 79.505613 346.738769 
L 82.182869 346.593631 
L 84.865707 348.209053 
L 87.663896 347.578314 
L 90.44162 349.556322 
L 95.515198 351.663625 
L 98.077104 351.475676 
L 100.557148 352.109699 
L 102.964632 351.570918 
L 105.537701 351.879057 
L 108.008442 353.921481 
L 110.35453 356.110542 
L 112.734107 355.828678 
L 114.860656 355.865149 
L 116.983484 354.782344 
L 118.990962 354.467406 
L 121.00216 355.803901 
L 123.043126 354.409443 
L 125.059906 355.219026 
L 127.037616 351.766529 
L 129.035791 350.868444 
L 131.05257 350.68211 
L 133.240516 343.852766 
L 135.398694 341.314024 
L 137.541987 340.445901 
L 139.843423 336.580401 
L 142.074161 335.802046 
L 144.332805 333.977991 
L 146.602613 328.936172 
L 151.082692 329.44263 
L 153.270638 328.118753 
L 155.456723 332.232931 
L 157.681878 334.486236 
L 159.814009 333.40199 
L 161.91079 331.90941 
L 164.016874 332.78364 
L 166.026212 330.653234 
L 168.054155 329.651439 
L 170.069074 326.199517 
L 172.078412 327.1755 
L 174.132402 329.749849 
L 176.100809 333.812055 
L 178.151077 339.505931 
L 180.17902 340.507208 
L 182.15859 346.322022 
L 184.151183 350.050911 
L 186.190289 346.306235 
L 188.292652 347.700462 
L 190.417341 347.127457 
L 192.471331 345.158437 
L 194.757883 342.041043 
L 196.996062 345.033522 
L 199.278893 343.976472 
L 201.610097 341.301464 
L 203.950603 343.850116 
L 206.348785 340.514178 
L 208.888365 340.308023 
L 211.333059 336.759073 
L 213.865197 335.784877 
L 216.298729 334.629935 
L 218.721097 331.855826 
L 221.108116 329.673276 
L 223.305364 329.30631 
L 225.571451 327.432244 
L 227.965912 326.37698 
L 230.362233 324.677667 
L 232.717623 324.907849 
L 235.015338 323.535343 
L 237.314914 325.152781 
L 239.620071 323.893608 
L 242.08151 319.508745 
L 244.513181 319.958277 
L 246.86485 319.370175 
L 249.242567 319.93062 
L 251.599818 321.48393 
L 253.895672 320.322362 
L 256.198969 317.969321 
L 258.662268 317.404555 
L 261.192545 316.428341 
L 263.776777 316.691192 
L 266.413103 318.642754 
L 269.027102 316.73648 
L 271.70622 315.415772 
L 274.450454 315.608733 
L 277.181665 314.628832 
L 279.96311 318.419601 
L 282.768741 320.451827 
L 285.620884 318.011785 
L 288.417213 316.52197 
L 291.075864 320.46675 
L 293.609863 319.952054 
L 296.175489 324.553848 
L 298.832281 320.165469 
L 301.433257 317.839221 
L 306.279854 316.458418 
L 308.650129 315.855508 
L 311.161801 315.831136 
L 313.615798 316.0366 
L 316.030724 317.436993 
L 318.466116 316.668721 
L 320.828948 317.215165 
L 323.242014 321.323869 
L 325.658801 327.170258 
L 327.999308 324.505853 
L 330.291441 325.525452 
L 332.661716 325.019167 
L 335.177109 327.03503 
L 337.739015 324.804081 
L 343.220042 315.278008 
L 346.036836 316.013726 
L 348.903863 315.246146 
L 351.707634 318.883825 
L 354.526288 322.88219 
L 357.348664 319.336641 
L 360.219412 317.367218 
L 363.093882 319.920077 
L 365.936723 320.308015 
L 368.736772 319.540262 
L 371.616823 317.565308 
L 374.511758 316.049276 
L 380.333256 314.43904 
L 383.317495 314.307845 
L 386.316618 315.428794 
L 389.352951 315.138402 
L 392.435796 313.797815 
L 395.511199 313.934599 
L 398.657301 315.140188 
L 402.000616 314.601118 
L 405.608122 316.218499 
L 409.317955 320.108889 
L 413.016625 323.215221 
L 416.631572 319.762954 
L 420.02326 316.259119 
L 423.295876 314.612527 
L 426.85873 316.082061 
L 430.490422 316.1232 
L 433.924901 316.492124 
L 436.769603 317.623443 
L 439.577094 316.585233 
L 442.163186 316.5309 
L 444.671138 316.831433 
L 447.264672 318.015184 
L 450.090768 316.872687 
L 456.563441 317.454855 
L 460.005362 315.319666 
L 463.566355 313.912129 
L 467.147814 313.514222 
L 470.721831 314.300759 
L 474.377709 313.733572 
L 478.016843 314.77979 
L 481.66342 314.380155 
L 485.122085 315.290742 
L 488.517494 315.268041 
L 499.031168 323.654323 
L 502.616348 328.712217 
L 506.168039 320.707822 
L 509.699264 316.507046 
L 513.193279 314.238588 
L 516.339381 314.896752 
L 519.245479 315.772365 
L 522.259486 315.010835 
L 525.567451 314.513481 
L 529.067048 312.382094 
L 532.583389 312.796883 
L 535.975077 314.1933 
L 539.057923 313.18557 
L 542.105418 312.624607 
L 545.169658 313.822474 
L 548.373436 312.711609 
L 551.141857 313.226421 
L 553.538178 315.085968 
L 555.722403 314.111195 
L 557.798719 312.929691 
L 559.835964 312.691039 
L 562.089027 311.394876 
L 564.704888 315.68035 
L 567.540286 314.059397 
L 570.2808 310.81778 
L 573.296667 311.512647 
L 576.688355 311.397123 
L 580.275395 312.037484 
L 583.940576 311.877941 
L 587.589013 315.653558 
L 591.153727 323.727325 
L 594.705418 316.421599 
L 598.292458 312.929576 
L 601.909266 311.671613 
L 605.537237 311.303553 
L 609.157766 312.037138 
L 612.826668 311.194656 
L 616.117889 310.714298 
L 619.200735 311.103101 
L 622.462188 311.263681 
L 625.770153 312.404565 
L 629.171143 324.065712 
L 632.389805 321.019533 
L 635.47265 314.789238 
L 638.427121 312.525274 
L 641.45043 313.164655 
L 644.594672 310.861684 
L 647.831938 311.711312 
L 651.035716 311.506539 
L 654.278564 311.171839 
L 657.381875 310.533149 
L 660.133551 310.60713 
L 662.859181 312.334214 
L 665.426668 312.336865 
L 667.914154 312.808233 
L 670.4035 322.96977 
L 673.099362 316.455939 
L 675.849178 313.167536 
L 678.703182 312.109852 
L 678.703182 312.109852 
" clip-path="url(#pc100cd45a7)" style="fill: none; stroke: #1f77b4; stroke-width: 1.5; stroke-linecap: square"/>
   </g>
   <g id="line2d_26">
    <path d="M 68.891472 294.550628 
L 71.773383 292.71165 
L 74.699946 290.254495 
L 77.74 288.541642 
L 80.720518 286.592096 
L 83.808945 291.652352 
L 86.795044 290.700396 
L 89.863005 292.459285 
L 92.847244 293.665969 
L 95.868693 293.732516 
L 98.826884 297.166807 
L 101.734843 295.000735 
L 104.454891 302.668529 
L 107.294011 303.109187 
L 109.934058 304.496213 
L 112.516429 305.684574 
L 115.089498 303.469296 
L 117.472795 300.45037 
L 119.9547 299.833575 
L 122.451488 296.277827 
L 124.938974 297.24436 
L 127.136222 293.904216 
L 129.342773 298.842669 
L 131.631185 298.406908 
L 133.776339 293.695756 
L 136.075915 291.254675 
L 138.425724 295.187703 
L 140.795998 294.690925 
L 143.395114 295.540437 
L 145.908647 294.943578 
L 148.494739 290.951262 
L 151.062226 293.356389 
L 156.279063 286.722311 
L 158.868876 286.299513 
L 161.479155 278.228166 
L 164.052224 277.858032 
L 166.755527 273.30331 
L 169.401155 278.194806 
L 172.124924 271.302544 
L 174.772413 268.533045 
L 177.602231 268.253888 
L 180.335302 271.8347 
L 183.185585 267.309595 
L 186.162382 269.202906 
L 189.122434 271.543559 
L 192.099231 278.241016 
L 195.092772 273.95174 
L 197.995149 276.789574 
L 200.934736 274.884393 
L 203.705018 268.467533 
L 206.679954 269.246118 
L 209.641867 265.294595 
L 212.460521 264.417311 
L 215.336851 256.149027 
L 218.404812 251.76255 
L 221.524867 245.081225 
L 224.795623 246.860281 
L 228.029168 246.784226 
L 231.337134 246.481273 
L 234.699054 242.022601 
L 238.12237 239.407861 
L 241.508476 248.6141 
L 244.825744 249.599417 
L 248.103942 244.356685 
L 251.477025 242.220172 
L 254.866852 243.832712 
L 258.290169 246.690367 
L 261.84372 252.947858 
L 265.425178 249.324006 
L 269.010358 256.412744 
L 272.496931 251.910801 
L 276.000249 247.092192 
L 279.512869 238.908318 
L 283.042234 233.471877 
L 286.556715 240.130961 
L 290.002357 238.345625 
L 293.56149 232.033571 
L 297.087133 227.026553 
L 300.525334 230.832189 
L 303.807252 230.331608 
L 306.797073 229.029337 
L 309.669681 230.834723 
L 312.281821 229.294089 
L 314.786051 228.464742 
L 317.227024 227.956268 
L 319.500553 227.290958 
L 321.77036 225.917991 
L 324.103425 224.854602 
L 326.51277 225.495885 
L 328.944441 224.867394 
L 331.459834 223.23872 
L 334.034763 221.388046 
L 336.607832 223.076815 
L 339.173459 221.957768 
L 341.774435 221.835273 
L 346.942898 221.909888 
L 349.584806 223.48008 
L 352.55416 222.623711 
L 355.516073 223.815241 
L 358.572872 227.428722 
L 361.434317 229.378036 
L 364.236227 231.857375 
L 367.112557 230.914522 
L 370.191682 226.812502 
L 373.341505 225.228713 
L 376.467141 222.914045 
L 379.490451 221.251435 
L 382.389106 221.041592 
L 385.170551 221.146571 
L 387.845947 222.668019 
L 390.489715 221.512096 
L 393.148366 221.266358 
L 395.81446 220.1582 
L 398.434041 220.092286 
L 401.239672 220.603526 
L 404.054606 222.676834 
L 406.739304 224.95382 
L 409.584006 224.613588 
L 412.415684 225.24473 
L 415.399923 223.042763 
L 418.432534 221.980354 
L 421.359098 223.678745 
L 424.332174 222.710713 
L 427.275481 221.021656 
L 430.362048 221.800818 
L 433.465358 221.647325 
L 436.563087 222.676719 
L 439.660817 221.623874 
L 442.691568 221.04672 
L 445.826507 220.68736 
L 449.141914 221.413859 
L 452.420112 220.261163 
L 455.73924 220.861479 
L 459.305815 221.873876 
L 462.87239 223.294493 
L 466.252915 226.276774 
L 469.676231 226.039621 
L 473.278155 231.718747 
L 476.863335 223.532281 
L 480.584331 221.852155 
L 484.333234 221.216403 
L 488.119348 220.722506 
L 491.991044 222.781813 
L 495.736226 221.67596 
L 499.286057 227.390175 
L 502.335413 231.670809 
L 505.085229 238.029015 
L 507.70481 240.721653 
L 509.822057 243.441371 
L 511.905815 245.215702 
L 514.008177 244.167813 
L 516.357986 238.72175 
L 518.683609 237.677433 
L 521.52645 231.780167 
L 525.085582 225.284659 
L 529.548917 222.268499 
L 534.08109 220.968417 
L 538.012323 224.551361 
L 541.897042 221.781112 
L 545.943626 226.404743 
L 549.456246 234.726323 
L 553.067473 224.952552 
L 557.037775 222.02253 
L 561.149476 222.879878 
L 564.998846 221.195488 
L 573.227829 221.402335 
L 577.0065 224.136227 
L 580.537726 224.08466 
L 584.396398 220.358248 
L 593.386325 221.691402 
L 603.08324 220.66702 
L 607.691694 220.904404 
L 612.605269 221.026208 
L 617.626753 220.635792 
L 622.648237 221.416682 
L 627.764607 221.409479 
L 632.663298 222.659837 
L 637.699666 221.935988 
L 642.512775 223.473165 
L 647.197509 232.15883 
L 654.436706 222.437491 
L 657.846999 223.446488 
L 661.352177 224.633812 
L 665.142012 227.501262 
L 668.950451 225.507466 
L 673.065873 224.119461 
L 677.510603 225.536678 
L 677.510603 225.536678 
" clip-path="url(#pc100cd45a7)" style="fill: none; stroke: #ff7f0e; stroke-width: 1.5; stroke-linecap: square"/>
   </g>
   <g id="line2d_27">
    <path d="M 69.021706 240.357571 
L 72.089668 234.754327 
L 75.150187 233.797127 
L 78.419082 230.512815 
L 81.654488 232.028385 
L 85.239668 230.114159 
L 88.709496 233.141555 
L 95.249147 237.669425 
L 98.54967 236.59895 
L 101.757169 242.218153 
L 104.782339 248.240564 
L 107.816811 247.067011 
L 110.737793 252.520967 
L 113.495051 252.135622 
L 115.991839 249.905133 
L 118.570489 251.16978 
L 121.143558 250.448985 
L 123.606857 252.329909 
L 128.760437 249.17345 
L 131.266528 255.342036 
L 133.620058 254.953349 
L 136.01824 255.128217 
L 138.427585 254.103259 
L 140.876 254.540288 
L 143.223948 250.44017 
L 145.791436 247.774669 
L 148.169152 252.071609 
L 150.567334 250.913267 
L 153.216683 249.23556 
L 155.739518 250.049292 
L 158.355379 251.262601 
L 160.837283 244.890337 
L 163.296861 245.97101 
L 165.90528 240.496139 
L 168.33509 242.103724 
L 170.735132 239.725447 
L 173.038429 237.131852 
L 175.58173 231.188319 
L 178.180845 224.27687 
L 180.841358 221.313083 
L 183.537219 218.589562 
L 186.132614 217.293225 
L 188.778242 212.125281 
L 191.46108 217.26528 
L 194.18671 216.931329 
L 196.891874 213.338648 
L 199.608201 216.007605 
L 202.646394 209.765383 
L 205.764589 201.952854 
L 209.053949 199.890033 
L 212.335868 192.461986 
L 215.638252 187.790821 
L 219.044824 183.646106 
L 222.538839 183.108247 
L 226.148205 185.407992 
L 229.770595 187.097624 
L 233.474846 189.683325 
L 237.221889 189.399328 
L 240.628461 195.544293 
L 246.351353 200.965063 
L 249.06768 204.11893 
L 251.60912 203.593516 
L 254.1487 202.24014 
L 256.595255 199.256361 
L 258.965529 194.373855 
L 261.449294 188.179399 
L 263.934919 183.914553 
L 266.463336 188.870811 
L 269.006637 191.523636 
L 271.575985 192.351542 
L 274.141612 203.009222 
L 276.75003 214.967041 
L 279.356587 219.910277 
L 281.966866 222.654079 
L 284.619936 216.232548 
L 290.074916 206.822398 
L 292.899152 196.690533 
L 295.955951 191.241993 
L 298.988562 183.447729 
L 302.023035 184.990495 
L 305.131927 195.957695 
L 308.359891 201.803276 
L 311.805533 194.295485 
L 315.41676 181.253302 
L 319.052173 176.850403 
L 322.860612 169.038219 
L 326.460676 170.22295 
L 329.859806 164.301254 
L 333.247773 162.658752 
L 336.678531 158.872188 
L 340.008822 157.99911 
L 343.378184 158.236437 
L 346.810803 157.306029 
L 350.219235 151.620968 
L 353.622086 156.557347 
L 357.170056 165.882739 
L 360.66035 157.592273 
L 364.392509 155.046559 
L 368.158157 154.110851 
L 372.199159 160.012323 
L 376.403884 158.423751 
L 380.595586 153.838204 
L 384.742636 152.729529 
L 389.083178 152.742781 
L 393.511164 155.316439 
L 397.671237 158.074071 
L 402.01736 164.038462 
L 406.642558 176.311969 
L 411.366363 169.352582 
L 416.112493 166.767919 
L 420.942346 168.441477 
L 425.880108 178.511231 
L 430.868103 182.16153 
L 435.895169 179.270515 
L 440.808744 176.771184 
L 450.325191 180.853902 
L 455.127136 176.319694 
L 459.919779 176.482809 
L 464.868704 181.618026 
L 469.819489 174.94569 
L 474.280963 173.246838 
L 478.459642 173.420094 
L 482.323896 183.763184 
L 486.083963 178.314873 
L 489.868216 172.097657 
L 493.352929 172.151184 
L 496.579032 173.919522 
L 500.246074 175.461828 
L 503.308453 180.419352 
L 506.0992 179.739984 
L 508.908552 182.069113 
L 511.807208 184.016123 
L 514.984939 184.244635 
L 518.53663 174.777274 
L 522.380418 170.217945 
L 526.603749 179.637599 
L 530.890336 179.96694 
L 535.175063 176.525216 
L 539.270019 175.410778 
L 543.539862 187.087539 
L 547.932498 179.175044 
L 552.079548 174.036023 
L 556.658234 166.196931 
L 561.16436 163.090539 
L 565.741185 162.603786 
L 570.401732 165.0542 
L 575.10135 162.246269 
L 579.06049 158.80685 
L 583.2801 157.453703 
L 587.687619 162.798821 
L 592.069092 153.346554 
L 596.299865 154.554045 
L 600.342727 167.08539 
L 604.5028 158.543077 
L 609.077765 153.852206 
L 613.407144 151.302689 
L 617.6528 156.611335 
L 621.83706 159.103926 
L 626.183184 158.646213 
L 630.09395 161.186512 
L 634.42519 154.65649 
L 638.401074 161.522307 
L 642.228118 166.765326 
L 645.999348 171.49359 
L 649.376152 173.685533 
L 652.289692 167.846806 
L 654.93532 174.979336 
L 657.55304 165.311696 
L 660.196808 167.804692 
L 662.821971 168.539835 
L 665.43225 177.266235 
L 668.029505 195.867698 
L 670.623039 180.214925 
L 673.224015 159.780647 
L 675.834294 154.71284 
L 678.438991 156.371762 
L 678.438991 156.371762 
" clip-path="url(#pc100cd45a7)" style="fill: none; stroke: #2ca02c; stroke-width: 1.5; stroke-linecap: square"/>
   </g>
   <g id="line2d_28">
    <path d="M 69.086824 184.302835 
L 72.203158 178.656953 
L 75.524147 177.88822 
L 79.001418 179.659959 
L 82.439618 176.658721 
L 86.179219 173.041552 
L 89.970914 174.90323 
L 93.334694 183.097878 
L 96.945921 176.319987 
L 100.34133 180.587023 
L 103.786972 184.216061 
L 107.372152 183.972625 
L 110.860586 185.043332 
L 114.289483 189.017096 
L 117.617914 187.174373 
L 120.840297 193.358055 
L 124.025469 192.002661 
L 127.27762 193.05614 
L 130.410699 188.396959 
L 133.36703 191.935306 
L 136.358711 191.894053 
L 139.30574 197.160637 
L 141.867645 196.246765 
L 144.515134 195.922379 
L 147.104947 193.313517 
L 149.931044 194.487819 
L 152.993423 197.157584 
L 155.836264 192.389332 
L 158.638174 200.770546 
L 161.488457 195.390973 
L 164.394555 190.714334 
L 167.445772 185.333263 
L 170.435592 189.222272 
L 173.386342 186.727721 
L 176.536165 185.784695 
L 179.600405 181.341061 
L 182.499061 185.035148 
L 185.425625 178.629408 
L 188.268466 181.763224 
L 191.185726 179.620602 
L 194.030428 176.788472 
L 196.83978 178.251265 
L 199.53006 178.67556 
L 202.142199 180.336154 
L 204.916202 174.37764 
L 207.541364 169.934466 
L 210.082805 169.559261 
L 212.737735 160.156144 
L 215.346154 166.56269 
L 217.868989 162.980899 
L 220.516478 162.394871 
L 223.082104 151.506433 
L 225.634708 155.677134 
L 228.055215 148.062521 
L 230.505491 139.018591 
L 233.050653 135.651886 
L 235.660931 138.711432 
L 238.261907 133.72873 
L 241.017305 125.445927 
L 243.869448 126.007698 
L 246.742057 121.296258 
L 249.642574 119.213557 
L 252.487275 111.146416 
L 255.352442 117.674477 
L 258.065048 115.540036 
L 260.615791 116.75006 
L 263.298629 108.688219 
L 266.21403 105.980888 
L 269.097801 107.604144 
L 272.074598 105.828373 
L 275.040232 108.729126 
L 277.873771 108.046819 
L 280.915685 99.346865 
L 284.0376 101.420173 
L 287.094399 101.22848 
L 290.093521 97.404349 
L 293.211716 95.300676 
L 296.302003 100.436008 
L 299.262056 98.561942 
L 302.279783 95.167695 
L 305.511468 88.808049 
L 308.774782 92.408566 
L 312.138562 85.550931 
L 315.556297 91.793096 
L 318.875426 82.647932 
L 322.313626 84.624558 
L 325.677406 86.327673 
L 329.169561 85.130382 
L 332.613343 91.310148 
L 336.111079 93.353034 
L 339.66277 98.718146 
L 343.409813 88.266563 
L 346.691731 104.650561 
L 349.742948 91.277022 
L 353.424874 80.001507 
L 357.346803 73.173661 
L 361.099428 73.827101 
L 364.913449 67.849691 
L 368.597235 67.61974 
L 372.308928 69.059311 
L 375.910852 67.625616 
L 379.551847 65.174511 
L 383.174237 71.4823 
L 386.858023 70.34493 
L 390.625531 77.827079 
L 394.646067 80.891293 
L 398.947539 70.73016 
L 403.068542 70.205784 
L 407.079776 72.852674 
L 411.059381 80.25491 
L 415.048288 86.297545 
L 419.08929 88.863021 
L 423.126571 94.413429 
L 427.150828 92.625903 
L 431.296018 92.633738 
L 435.48958 92.452415 
L 439.590118 98.367196 
L 443.642282 98.359187 
L 447.655377 104.35279 
L 451.646145 97.654929 
L 455.759706 104.170028 
L 459.739311 107.709932 
L 463.782173 94.875 
L 467.949689 96.783235 
L 476.186113 92.396353 
L 480.290372 91.983351 
L 484.376026 90.114585 
L 488.42633 100.455831 
L 492.184536 107.042259 
L 496.032046 93.390658 
L 500.175375 94.678986 
L 504.000559 105.58759 
L 508.112259 96.168225 
L 512.201634 92.040392 
L 516.255659 91.336998 
L 520.214799 88.462231 
L 523.99347 88.948407 
L 527.963773 94.881337 
L 531.995472 94.672301 
L 535.98438 89.454922 
L 540.101662 90.453606 
L 544.161269 96.756441 
L 548.20227 93.144746 
L 552.431182 89.087207 
L 561.307618 84.77327 
L 566.051888 82.147237 
L 570.757088 89.228601 
L 575.255772 91.180797 
L 583.910808 80.242174 
L 588.0653 65.254194 
L 592.325841 62.985159 
L 596.517543 58.83105 
L 600.523195 54.357915 
L 604.380007 57.229398 
L 608.229378 55.167672 
L 611.946653 84.174682 
L 614.897403 117.480073 
L 618.069552 72.687078 
L 621.965435 55.27893 
L 626.108764 55.544489 
L 630.523725 56.009751 
L 634.983339 52.886594 
L 639.435511 53.32466 
L 643.774192 54.2538 
L 648.24869 53.818673 
L 652.780863 54.540101 
L 657.292571 53.906942 
L 661.80986 54.11788 
L 665.767139 53.184995 
L 669.348598 54.135453 
L 673.028663 52.577476 
L 676.706867 55.495457 
L 676.706867 55.495457 
" clip-path="url(#pc100cd45a7)" style="fill: none; stroke: #d62728; stroke-width: 1.5; stroke-linecap: square"/>
   </g>
   <g id="patch_3">
    <path d="M 38.27 390.04 
L 38.27 10.8 
" style="fill: none; stroke: #000000; stroke-width: 0.8; stroke-linejoin: miter; stroke-linecap: square"/>
   </g>
   <g id="patch_4">
    <path d="M 709.2 390.04 
L 709.2 10.8 
" style="fill: none; stroke: #000000; stroke-width: 0.8; stroke-linejoin: miter; stroke-linecap: square"/>
   </g>
   <g id="patch_5">
    <path d="M 38.27 390.04 
L 709.2 390.04 
" style="fill: none; stroke: #000000; stroke-width: 0.8; stroke-linejoin: miter; stroke-linecap: square"/>
   </g>
   <g id="patch_6">
    <path d="M 38.27 10.8 
L 709.2 10.8 
" style="fill: none; stroke: #000000; stroke-width: 0.8; stroke-linejoin: miter; stroke-linecap: square"/>
   </g>
   <g id="legend_1">
    <g id="patch_7">
     <path d="M 608.528125 385.04 
L 702.2 385.04 
Q 704.2 385.04 704.2 383.04 
L 704.2 310.649375 
Q 704.2 308.649375 702.2 308.649375 
L 608.528125 308.649375 
Q 606.528125 308.649375 606.528125 310.649375 
L 606.528125 383.04 
Q 606.528125 385.04 608.528125 385.04 
z
" style="fill: #ffffff; opacity: 0.8; stroke: #cccccc; stroke-linejoin: miter"/>
    </g>
    <g id="text_15">
     <!-- Max Circuit Depth -->
     <g transform="translate(610.528125 320.247813) scale(0.1 -0.1)">
      <defs>
       <path id="DejaVuSans-4d" d="M 628 4666 
L 1569 4666 
L 2759 1491 
L 3956 4666 
L 4897 4666 
L 4897 0 
L 4281 0 
L 4281 4097 
L 3078 897 
L 2444 897 
L 1241 4097 
L 1241 0 
L 628 0 
L 628 4666 
z
" transform="scale(0.015625)"/>
       <path id="DejaVuSans-78" d="M 3513 3500 
L 2247 1797 
L 3578 0 
L 2900 0 
L 1881 1375 
L 863 0 
L 184 0 
L 1544 1831 
L 300 3500 
L 978 3500 
L 1906 2253 
L 2834 3500 
L 3513 3500 
z
" transform="scale(0.015625)"/>
       <path id="DejaVuSans-20" transform="scale(0.015625)"/>
       <path id="DejaVuSans-43" d="M 4122 4306 
L 4122 3641 
Q 3803 3938 3442 4084 
Q 3081 4231 2675 4231 
Q 1875 4231 1450 3742 
Q 1025 3253 1025 2328 
Q 1025 1406 1450 917 
Q 1875 428 2675 428 
Q 3081 428 3442 575 
Q 3803 722 4122 1019 
L 4122 359 
Q 3791 134 3420 21 
Q 3050 -91 2638 -91 
Q 1578 -91 968 557 
Q 359 1206 359 2328 
Q 359 3453 968 4101 
Q 1578 4750 2638 4750 
Q 3056 4750 3426 4639 
Q 3797 4528 4122 4306 
z
" transform="scale(0.015625)"/>
       <path id="DejaVuSans-69" d="M 603 3500 
L 1178 3500 
L 1178 0 
L 603 0 
L 603 3500 
z
M 603 4863 
L 1178 4863 
L 1178 4134 
L 603 4134 
L 603 4863 
z
" transform="scale(0.015625)"/>
       <path id="DejaVuSans-63" d="M 3122 3366 
L 3122 2828 
Q 2878 2963 2633 3030 
Q 2388 3097 2138 3097 
Q 1578 3097 1268 2742 
Q 959 2388 959 1747 
Q 959 1106 1268 751 
Q 1578 397 2138 397 
Q 2388 397 2633 464 
Q 2878 531 3122 666 
L 3122 134 
Q 2881 22 2623 -34 
Q 2366 -91 2075 -91 
Q 1284 -91 818 406 
Q 353 903 353 1747 
Q 353 2603 823 3093 
Q 1294 3584 2113 3584 
Q 2378 3584 2631 3529 
Q 2884 3475 3122 3366 
z
" transform="scale(0.015625)"/>
       <path id="DejaVuSans-75" d="M 544 1381 
L 544 3500 
L 1119 3500 
L 1119 1403 
Q 1119 906 1312 657 
Q 1506 409 1894 409 
Q 2359 409 2629 706 
Q 2900 1003 2900 1516 
L 2900 3500 
L 3475 3500 
L 3475 0 
L 2900 0 
L 2900 538 
Q 2691 219 2414 64 
Q 2138 -91 1772 -91 
Q 1169 -91 856 284 
Q 544 659 544 1381 
z
M 1991 3584 
L 1991 3584 
z
" transform="scale(0.015625)"/>
       <path id="DejaVuSans-44" d="M 1259 4147 
L 1259 519 
L 2022 519 
Q 2988 519 3436 956 
Q 3884 1394 3884 2338 
Q 3884 3275 3436 3711 
Q 2988 4147 2022 4147 
L 1259 4147 
z
M 628 4666 
L 1925 4666 
Q 3281 4666 3915 4102 
Q 4550 3538 4550 2338 
Q 4550 1131 3912 565 
Q 3275 0 1925 0 
L 628 0 
L 628 4666 
z
" transform="scale(0.015625)"/>
       <path id="DejaVuSans-68" d="M 3513 2113 
L 3513 0 
L 2938 0 
L 2938 2094 
Q 2938 2591 2744 2837 
Q 2550 3084 2163 3084 
Q 1697 3084 1428 2787 
Q 1159 2491 1159 1978 
L 1159 0 
L 581 0 
L 581 4863 
L 1159 4863 
L 1159 2956 
Q 1366 3272 1645 3428 
Q 1925 3584 2291 3584 
Q 2894 3584 3203 3211 
Q 3513 2838 3513 2113 
z
" transform="scale(0.015625)"/>
      </defs>
      <use xlink:href="#DejaVuSans-4d"/>
      <use xlink:href="#DejaVuSans-61" transform="translate(86.279297 0)"/>
      <use xlink:href="#DejaVuSans-78" transform="translate(147.558594 0)"/>
      <use xlink:href="#DejaVuSans-20" transform="translate(206.738281 0)"/>
      <use xlink:href="#DejaVuSans-43" transform="translate(238.525391 0)"/>
      <use xlink:href="#DejaVuSans-69" transform="translate(308.349609 0)"/>
      <use xlink:href="#DejaVuSans-72" transform="translate(336.132812 0)"/>
      <use xlink:href="#DejaVuSans-63" transform="translate(374.996094 0)"/>
      <use xlink:href="#DejaVuSans-75" transform="translate(429.976562 0)"/>
      <use xlink:href="#DejaVuSans-69" transform="translate(493.355469 0)"/>
      <use xlink:href="#DejaVuSans-74" transform="translate(521.138672 0)"/>
      <use xlink:href="#DejaVuSans-20" transform="translate(560.347656 0)"/>
      <use xlink:href="#DejaVuSans-44" transform="translate(592.134766 0)"/>
      <use xlink:href="#DejaVuSans-65" transform="translate(669.136719 0)"/>
      <use xlink:href="#DejaVuSans-70" transform="translate(730.660156 0)"/>
      <use xlink:href="#DejaVuSans-74" transform="translate(794.136719 0)"/>
      <use xlink:href="#DejaVuSans-68" transform="translate(833.345703 0)"/>
     </g>
    </g>
    <g id="line2d_29">
     <path d="M 622.726562 331.425937 
L 632.726562 331.425937 
L 642.726562 331.425937 
" style="fill: none; stroke: #1f77b4; stroke-width: 1.5; stroke-linecap: square"/>
    </g>
    <g id="text_16">
     <!-- 4 (PPO) -->
     <g transform="translate(650.726562 334.925937) scale(0.1 -0.1)">
      <defs>
       <path id="DejaVuSans-28" d="M 1984 4856 
Q 1566 4138 1362 3434 
Q 1159 2731 1159 2009 
Q 1159 1288 1364 580 
Q 1569 -128 1984 -844 
L 1484 -844 
Q 1016 -109 783 600 
Q 550 1309 550 2009 
Q 550 2706 781 3412 
Q 1013 4119 1484 4856 
L 1984 4856 
z
" transform="scale(0.015625)"/>
       <path id="DejaVuSans-50" d="M 1259 4147 
L 1259 2394 
L 2053 2394 
Q 2494 2394 2734 2622 
Q 2975 2850 2975 3272 
Q 2975 3691 2734 3919 
Q 2494 4147 2053 4147 
L 1259 4147 
z
M 628 4666 
L 2053 4666 
Q 2838 4666 3239 4311 
Q 3641 3956 3641 3272 
Q 3641 2581 3239 2228 
Q 2838 1875 2053 1875 
L 1259 1875 
L 1259 0 
L 628 0 
L 628 4666 
z
" transform="scale(0.015625)"/>
       <path id="DejaVuSans-4f" d="M 2522 4238 
Q 1834 4238 1429 3725 
Q 1025 3213 1025 2328 
Q 1025 1447 1429 934 
Q 1834 422 2522 422 
Q 3209 422 3611 934 
Q 4013 1447 4013 2328 
Q 4013 3213 3611 3725 
Q 3209 4238 2522 4238 
z
M 2522 4750 
Q 3503 4750 4090 4092 
Q 4678 3434 4678 2328 
Q 4678 1225 4090 567 
Q 3503 -91 2522 -91 
Q 1538 -91 948 565 
Q 359 1222 359 2328 
Q 359 3434 948 4092 
Q 1538 4750 2522 4750 
z
" transform="scale(0.015625)"/>
       <path id="DejaVuSans-29" d="M 513 4856 
L 1013 4856 
Q 1481 4119 1714 3412 
Q 1947 2706 1947 2009 
Q 1947 1309 1714 600 
Q 1481 -109 1013 -844 
L 513 -844 
Q 928 -128 1133 580 
Q 1338 1288 1338 2009 
Q 1338 2731 1133 3434 
Q 928 4138 513 4856 
z
" transform="scale(0.015625)"/>
      </defs>
      <use xlink:href="#DejaVuSans-34"/>
      <use xlink:href="#DejaVuSans-20" transform="translate(63.623047 0)"/>
      <use xlink:href="#DejaVuSans-28" transform="translate(95.410156 0)"/>
      <use xlink:href="#DejaVuSans-50" transform="translate(134.423828 0)"/>
      <use xlink:href="#DejaVuSans-50" transform="translate(194.726562 0)"/>
      <use xlink:href="#DejaVuSans-4f" transform="translate(255.029297 0)"/>
      <use xlink:href="#DejaVuSans-29" transform="translate(333.740234 0)"/>
     </g>
    </g>
    <g id="line2d_30">
     <path d="M 622.726562 346.104062 
L 632.726562 346.104062 
L 642.726562 346.104062 
" style="fill: none; stroke: #ff7f0e; stroke-width: 1.5; stroke-linecap: square"/>
    </g>
    <g id="text_17">
     <!-- 5 (PPO) -->
     <g transform="translate(650.726562 349.604062) scale(0.1 -0.1)">
      <use xlink:href="#DejaVuSans-35"/>
      <use xlink:href="#DejaVuSans-20" transform="translate(63.623047 0)"/>
      <use xlink:href="#DejaVuSans-28" transform="translate(95.410156 0)"/>
      <use xlink:href="#DejaVuSans-50" transform="translate(134.423828 0)"/>
      <use xlink:href="#DejaVuSans-50" transform="translate(194.726562 0)"/>
      <use xlink:href="#DejaVuSans-4f" transform="translate(255.029297 0)"/>
      <use xlink:href="#DejaVuSans-29" transform="translate(333.740234 0)"/>
     </g>
    </g>
    <g id="line2d_31">
     <path d="M 622.726562 360.782187 
L 632.726562 360.782187 
L 642.726562 360.782187 
" style="fill: none; stroke: #2ca02c; stroke-width: 1.5; stroke-linecap: square"/>
    </g>
    <g id="text_18">
     <!-- 6 (PPO) -->
     <g transform="translate(650.726562 364.282187) scale(0.1 -0.1)">
      <use xlink:href="#DejaVuSans-36"/>
      <use xlink:href="#DejaVuSans-20" transform="translate(63.623047 0)"/>
      <use xlink:href="#DejaVuSans-28" transform="translate(95.410156 0)"/>
      <use xlink:href="#DejaVuSans-50" transform="translate(134.423828 0)"/>
      <use xlink:href="#DejaVuSans-50" transform="translate(194.726562 0)"/>
      <use xlink:href="#DejaVuSans-4f" transform="translate(255.029297 0)"/>
      <use xlink:href="#DejaVuSans-29" transform="translate(333.740234 0)"/>
     </g>
    </g>
    <g id="line2d_32">
     <path d="M 622.726562 375.460312 
L 632.726562 375.460312 
L 642.726562 375.460312 
" style="fill: none; stroke: #d62728; stroke-width: 1.5; stroke-linecap: square"/>
    </g>
    <g id="text_19">
     <!-- 7 (PPO) -->
     <g transform="translate(650.726562 378.960312) scale(0.1 -0.1)">
      <use xlink:href="#DejaVuSans-37"/>
      <use xlink:href="#DejaVuSans-20" transform="translate(63.623047 0)"/>
      <use xlink:href="#DejaVuSans-28" transform="translate(95.410156 0)"/>
      <use xlink:href="#DejaVuSans-50" transform="translate(134.423828 0)"/>
      <use xlink:href="#DejaVuSans-50" transform="translate(194.726562 0)"/>
      <use xlink:href="#DejaVuSans-4f" transform="translate(255.029297 0)"/>
      <use xlink:href="#DejaVuSans-29" transform="translate(333.740234 0)"/>
     </g>
    </g>
   </g>
  </g>
 </g>
 <defs>
  <clipPath id="pc100cd45a7">
   <rect x="38.27" y="10.8" width="670.93" height="379.24"/>
  </clipPath>
 </defs>
</svg>
