<?xml version="1.0" encoding="utf-8" standalone="no"?>
<!DOCTYPE svg PUBLIC "-//W3C//DTD SVG 1.1//EN"
  "http://www.w3.org/Graphics/SVG/1.1/DTD/svg11.dtd">
<svg xmlns:xlink="http://www.w3.org/1999/xlink" width="720pt" height="432pt" viewBox="0 0 720 432" xmlns="http://www.w3.org/2000/svg" version="1.1">
 <metadata>
  <rdf:RDF xmlns:dc="http://purl.org/dc/elements/1.1/" xmlns:cc="http://creativecommons.org/ns#" xmlns:rdf="http://www.w3.org/1999/02/22-rdf-syntax-ns#">
   <cc:Work>
    <dc:type rdf:resource="http://purl.org/dc/dcmitype/StillImage"/>
    <dc:date>2025-04-16T00:43:14.322285</dc:date>
    <dc:format>image/svg+xml</dc:format>
    <dc:creator>
     <cc:Agent>
      <dc:title>Matplotlib v3.10.0, https://matplotlib.org/</dc:title>
     </cc:Agent>
    </dc:creator>
   </cc:Work>
  </rdf:RDF>
 </metadata>
 <defs>
  <style type="text/css">*{stroke-linejoin: round; stroke-linecap: butt}</style>
 </defs>
 <g id="figure_1">
  <g id="patch_1">
   <path d="M 0 432 
L 720 432 
L 720 0 
L 0 0 
z
" style="fill: #ffffff"/>
  </g>
  <g id="axes_1">
   <g id="patch_2">
    <path d="M 47.72 390.04 
L 709.2 390.04 
L 709.2 10.8 
L 47.72 10.8 
z
" style="fill: #ffffff"/>
   </g>
   <g id="FillBetweenPolyCollection_1">
    <defs>
     <path id="ma6cfcf81e5" d="M 77.8479 -366.995195 
L 77.8479 -128.714887 
L 81.564363 -98.404166 
L 84.535108 -80.418853 
L 86.911703 -73.045357 
L 88.979099 -67.092332 
L 90.694856 -63.627403 
L 92.252981 -61.214234 
L 93.647413 -59.198182 
L 94.94484 -61.281842 
L 96.218016 -62.167168 
L 97.473005 -63.132461 
L 98.703742 -63.035931 
L 99.916291 -63.132461 
L 101.140965 -63.422048 
L 102.359577 -63.22899 
L 103.578189 -63.132461 
L 104.790737 -63.422048 
L 106.015412 -63.422048 
L 107.227961 -63.518578 
L 108.44051 -63.518578 
L 109.653059 -63.325519 
L 110.865608 -63.325519 
L 112.084219 -63.422048 
L 113.296768 -63.422048 
L 114.51538 -63.518578 
L 115.727929 -63.518578 
L 116.940478 -63.518578 
L 118.153027 -63.518578 
L 119.365576 -63.518578 
L 120.578125 -63.518578 
L 121.790673 -63.518578 
L 123.003222 -63.422048 
L 124.215771 -63.518578 
L 125.42832 -63.518578 
L 126.640869 -63.518578 
L 127.853418 -63.518578 
L 129.065967 -63.422048 
L 130.278516 -63.518578 
L 131.491065 -63.518578 
L 132.703614 -63.518578 
L 133.916163 -63.422048 
L 135.128712 -63.518578 
L 136.341261 -63.518578 
L 137.55381 -63.518578 
L 138.766359 -63.518578 
L 139.978907 -63.518578 
L 141.191456 -63.518578 
L 142.404005 -63.518578 
L 143.616554 -63.422048 
L 144.835166 -63.518578 
L 146.047715 -63.518578 
L 147.260264 -63.518578 
L 148.472813 -63.518578 
L 149.691424 -63.422048 
L 150.903973 -63.422048 
L 152.122585 -63.518578 
L 153.335134 -63.518578 
L 154.547683 -63.518578 
L 155.760232 -63.518578 
L 156.972781 -63.518578 
L 158.191392 -63.422048 
L 159.403941 -63.518578 
L 160.61649 -63.518578 
L 161.829039 -63.518578 
L 163.041588 -63.518578 
L 164.254137 -63.518578 
L 165.466686 -63.518578 
L 166.679235 -63.518578 
L 167.891784 -63.518578 
L 169.110396 -63.518578 
L 170.322944 -63.518578 
L 171.535493 -63.518578 
L 172.748042 -63.518578 
L 173.960591 -63.422048 
L 175.17314 -63.518578 
L 176.385689 -63.518578 
L 177.598238 -63.518578 
L 178.810787 -63.518578 
L 180.023336 -63.518578 
L 181.235885 -63.518578 
L 182.448434 -63.518578 
L 183.660983 -63.518578 
L 184.873532 -63.518578 
L 186.086081 -63.518578 
L 187.29863 -63.518578 
L 188.511178 -63.422048 
L 189.723727 -63.518578 
L 190.936276 -63.518578 
L 192.148825 -63.518578 
L 193.361374 -63.518578 
L 194.573923 -63.518578 
L 195.786472 -63.518578 
L 196.999021 -63.518578 
L 198.21157 -63.518578 
L 199.424119 -63.518578 
L 200.636668 -63.518578 
L 201.849217 -63.518578 
L 203.061766 -63.518578 
L 204.274315 -63.518578 
L 205.486863 -63.518578 
L 206.699412 -63.518578 
L 207.911961 -63.518578 
L 209.12451 -63.518578 
L 210.337059 -63.518578 
L 211.549608 -63.518578 
L 212.762157 -63.518578 
L 213.974706 -63.518578 
L 215.187255 -63.518578 
L 216.399804 -63.518578 
L 217.612353 -63.518578 
L 218.824902 -63.518578 
L 220.037451 -63.518578 
L 221.25 -63.518578 
L 222.462549 -63.518578 
L 223.675097 -63.518578 
L 224.887646 -63.518578 
L 226.100195 -63.518578 
L 227.312744 -63.518578 
L 228.525293 -63.518578 
L 229.737842 -63.518578 
L 230.950391 -63.518578 
L 232.16294 -63.518578 
L 233.375489 -63.518578 
L 234.588038 -63.518578 
L 235.800587 -63.518578 
L 237.013136 -63.518578 
L 238.231747 -63.518578 
L 239.444296 -63.518578 
L 240.656845 -63.518578 
L 241.869394 -63.518578 
L 243.081943 -63.518578 
L 244.294492 -63.518578 
L 245.507041 -63.518578 
L 246.71959 -63.518578 
L 247.932139 -63.518578 
L 249.144688 -63.518578 
L 250.357237 -63.518578 
L 251.569786 -63.518578 
L 252.782335 -63.518578 
L 253.994884 -63.518578 
L 255.207432 -63.518578 
L 256.419981 -63.518578 
L 257.63253 -63.518578 
L 258.845079 -63.518578 
L 260.057628 -63.518578 
L 261.270177 -63.518578 
L 262.482726 -63.518578 
L 263.695275 -63.518578 
L 264.907824 -63.518578 
L 266.120373 -63.518578 
L 267.332922 -63.518578 
L 268.545471 -63.518578 
L 269.75802 -63.518578 
L 270.970569 -63.422048 
L 272.183117 -63.518578 
L 273.395666 -63.518578 
L 274.608215 -63.518578 
L 275.820764 -63.518578 
L 277.033313 -63.518578 
L 278.245862 -63.518578 
L 279.458411 -63.518578 
L 280.67096 -63.518578 
L 281.883509 -63.518578 
L 283.096058 -63.422048 
L 284.308607 -63.518578 
L 285.521156 -63.518578 
L 286.733705 -63.518578 
L 287.946254 -63.518578 
L 289.158803 -63.518578 
L 290.371351 -63.518578 
L 291.5839 -63.518578 
L 292.796449 -63.518578 
L 294.008998 -63.518578 
L 295.221547 -63.518578 
L 296.434096 -63.518578 
L 297.646645 -63.518578 
L 298.859194 -63.518578 
L 300.071743 -63.518578 
L 301.284292 -63.518578 
L 302.496841 -63.518578 
L 303.70939 -63.518578 
L 304.921939 -63.518578 
L 306.134488 -63.518578 
L 307.347037 -63.422048 
L 308.559585 -63.518578 
L 309.772134 -63.518578 
L 310.984683 -63.518578 
L 312.197232 -63.518578 
L 313.409781 -63.518578 
L 314.62233 -63.518578 
L 315.834879 -63.518578 
L 317.047428 -63.518578 
L 318.259977 -63.518578 
L 319.472526 -63.518578 
L 320.685075 -63.518578 
L 321.897624 -63.518578 
L 323.110173 -63.518578 
L 324.322722 -63.518578 
L 325.53527 -63.518578 
L 326.747819 -63.518578 
L 327.960368 -63.518578 
L 329.172917 -63.518578 
L 330.385466 -63.518578 
L 331.598015 -63.518578 
L 332.810564 -63.518578 
L 334.023113 -63.518578 
L 335.235662 -63.518578 
L 336.448211 -63.518578 
L 337.66076 -63.518578 
L 338.873309 -63.518578 
L 340.085858 -63.518578 
L 341.298407 -63.518578 
L 342.510956 -63.518578 
L 343.723504 -63.518578 
L 344.936053 -63.518578 
L 346.148602 -63.518578 
L 347.361151 -63.518578 
L 348.5737 -63.518578 
L 349.786249 -63.518578 
L 350.998798 -63.518578 
L 352.211347 -63.518578 
L 353.423896 -63.518578 
L 354.636445 -63.518578 
L 355.848994 -63.518578 
L 357.061543 -63.518578 
L 358.274092 -63.518578 
L 359.486641 -63.518578 
L 360.69919 -63.518578 
L 361.911738 -63.518578 
L 363.124287 -63.518578 
L 364.336836 -63.518578 
L 365.549385 -63.518578 
L 366.761934 -63.518578 
L 367.974483 -63.518578 
L 369.187032 -63.518578 
L 370.399581 -63.518578 
L 371.61213 -63.518578 
L 372.824679 -63.518578 
L 374.037228 -63.518578 
L 375.249777 -63.518578 
L 376.462326 -63.518578 
L 377.674875 -63.518578 
L 378.887423 -63.518578 
L 380.099972 -63.518578 
L 381.312521 -63.518578 
L 382.52507 -63.518578 
L 383.737619 -63.518578 
L 384.950168 -63.518578 
L 386.162717 -63.518578 
L 387.375266 -63.518578 
L 388.587815 -63.518578 
L 389.800364 -63.518578 
L 391.012913 -63.518578 
L 392.225462 -63.518578 
L 393.438011 -63.518578 
L 394.65056 -63.518578 
L 395.863109 -63.518578 
L 397.075657 -63.518578 
L 398.288206 -63.518578 
L 399.500755 -63.518578 
L 400.713304 -63.518578 
L 401.925853 -63.518578 
L 403.138402 -63.518578 
L 404.350951 -63.518578 
L 405.5635 -63.518578 
L 406.776049 -63.518578 
L 407.988598 -63.518578 
L 409.201147 -63.518578 
L 410.413696 -63.422048 
L 411.626245 -63.518578 
L 412.838794 -63.518578 
L 414.051343 -63.422048 
L 415.263891 -63.518578 
L 416.47644 -63.518578 
L 417.688989 -63.518578 
L 418.901538 -63.518578 
L 420.114087 -63.518578 
L 421.326636 -63.518578 
L 422.539185 -63.518578 
L 423.751734 -63.518578 
L 424.964283 -63.518578 
L 426.176832 -63.518578 
L 427.389381 -63.518578 
L 428.60193 -63.518578 
L 429.814479 -63.518578 
L 431.027028 -63.518578 
L 432.239577 -63.518578 
L 433.452125 -63.518578 
L 434.664674 -63.518578 
L 435.877223 -63.518578 
L 437.089772 -63.518578 
L 438.302321 -63.518578 
L 439.51487 -63.518578 
L 440.727419 -63.518578 
L 441.939968 -63.518578 
L 443.152517 -63.518578 
L 444.365066 -63.518578 
L 445.577615 -63.518578 
L 446.790164 -63.518578 
L 448.002713 -63.518578 
L 449.215262 -63.518578 
L 450.42781 -63.518578 
L 451.640359 -63.518578 
L 452.852908 -63.518578 
L 454.065457 -63.518578 
L 455.278006 -63.518578 
L 456.490555 -63.518578 
L 457.703104 -63.518578 
L 458.915653 -63.518578 
L 460.128202 -63.518578 
L 461.340751 -63.518578 
L 462.5533 -63.518578 
L 463.765849 -63.518578 
L 464.978398 -63.518578 
L 466.190947 -63.518578 
L 467.403496 -63.518578 
L 468.616044 -63.518578 
L 469.828593 -63.518578 
L 471.041142 -63.518578 
L 472.253691 -63.518578 
L 473.46624 -63.518578 
L 474.678789 -63.518578 
L 475.891338 -63.518578 
L 477.103887 -63.518578 
L 478.316436 -63.518578 
L 479.528985 -63.518578 
L 480.741534 -63.518578 
L 481.954083 -63.518578 
L 483.166632 -63.518578 
L 484.379181 -63.518578 
L 485.59173 -63.518578 
L 486.804278 -63.518578 
L 488.016827 -63.518578 
L 489.229376 -63.518578 
L 490.441925 -63.518578 
L 491.654474 -63.518578 
L 492.867023 -63.518578 
L 494.079572 -63.518578 
L 495.292121 -63.518578 
L 496.50467 -63.518578 
L 497.717219 -63.518578 
L 498.929768 -63.518578 
L 500.142317 -63.518578 
L 501.354866 -63.518578 
L 502.567415 -63.518578 
L 503.779963 -63.518578 
L 504.992512 -63.518578 
L 506.205061 -63.518578 
L 507.41761 -63.518578 
L 508.630159 -63.518578 
L 509.842708 -63.518578 
L 511.055257 -63.518578 
L 512.267806 -63.518578 
L 513.480355 -63.518578 
L 514.692904 -63.518578 
L 515.905453 -63.518578 
L 517.118002 -63.518578 
L 518.330551 -63.518578 
L 519.5431 -63.518578 
L 520.755649 -63.518578 
L 521.968197 -63.518578 
L 523.180746 -63.518578 
L 524.393295 -63.518578 
L 525.605844 -63.518578 
L 526.818393 -63.518578 
L 528.030942 -63.518578 
L 529.243491 -63.518578 
L 530.45604 -63.518578 
L 531.674652 -63.518578 
L 532.887201 -63.518578 
L 534.09975 -63.518578 
L 535.312298 -63.518578 
L 536.524847 -63.518578 
L 537.737396 -63.518578 
L 538.949945 -63.518578 
L 540.162494 -63.518578 
L 541.375043 -63.422048 
L 542.587592 -63.518578 
L 543.800141 -63.518578 
L 545.01269 -63.518578 
L 546.225239 -63.518578 
L 547.437788 -63.518578 
L 548.650337 -63.518578 
L 549.862886 -63.518578 
L 551.075435 -63.518578 
L 552.287984 -63.518578 
L 553.500532 -63.518578 
L 554.713081 -63.518578 
L 555.92563 -63.518578 
L 557.138179 -63.518578 
L 558.350728 -63.518578 
L 559.563277 -63.518578 
L 560.775826 -63.518578 
L 561.988375 -63.518578 
L 563.200924 -63.518578 
L 564.413473 -63.518578 
L 565.626022 -63.518578 
L 566.838571 -63.518578 
L 568.05112 -63.518578 
L 569.263669 -63.518578 
L 570.476217 -63.518578 
L 571.688766 -63.518578 
L 572.901315 -63.518578 
L 574.113864 -63.518578 
L 575.326413 -63.518578 
L 576.538962 -63.518578 
L 577.751511 -63.518578 
L 578.96406 -63.518578 
L 580.176609 -63.518578 
L 581.389158 -63.518578 
L 582.601707 -63.518578 
L 583.814256 -63.518578 
L 585.026805 -63.518578 
L 586.239354 -63.518578 
L 587.451903 -63.518578 
L 588.664451 -63.518578 
L 589.877 -63.518578 
L 591.089549 -63.518578 
L 592.302098 -63.518578 
L 593.514647 -63.518578 
L 594.727196 -63.518578 
L 595.939745 -63.518578 
L 597.152294 -63.518578 
L 598.364843 -63.518578 
L 599.577392 -63.518578 
L 600.789941 -63.518578 
L 602.00249 -63.518578 
L 603.215039 -63.518578 
L 604.427588 -63.518578 
L 605.640137 -63.518578 
L 606.852685 -63.518578 
L 608.065234 -63.518578 
L 609.277783 -63.518578 
L 610.490332 -63.518578 
L 611.702881 -63.518578 
L 612.91543 -63.518578 
L 614.127979 -63.518578 
L 615.340528 -63.518578 
L 616.553077 -63.518578 
L 617.765626 -63.518578 
L 618.978175 -63.518578 
L 620.190724 -63.518578 
L 621.403273 -63.518578 
L 622.615822 -63.518578 
L 623.82837 -63.518578 
L 625.040919 -63.518578 
L 626.253468 -63.518578 
L 627.466017 -63.518578 
L 628.678566 -63.518578 
L 629.891115 -63.518578 
L 631.103664 -63.518578 
L 632.316213 -63.518578 
L 633.528762 -63.518578 
L 634.741311 -63.518578 
L 635.95386 -63.422048 
L 637.172471 -63.518578 
L 638.38502 -63.518578 
L 639.597569 -63.518578 
L 640.810118 -63.518578 
L 642.022667 -63.518578 
L 643.235216 -63.518578 
L 644.447765 -63.518578 
L 645.660314 -63.518578 
L 646.872863 -63.518578 
L 648.085412 -63.518578 
L 649.297961 -63.518578 
L 650.51051 -63.518578 
L 651.723059 -63.518578 
L 652.935608 -63.518578 
L 654.148157 -63.518578 
L 655.360705 -63.518578 
L 656.573254 -63.518578 
L 657.785803 -63.518578 
L 658.998352 -63.518578 
L 660.210901 -63.518578 
L 661.42345 -63.518578 
L 662.635999 -63.518578 
L 663.848548 -63.518578 
L 665.061097 -63.518578 
L 666.273646 -63.518578 
L 667.486195 -63.518578 
L 668.698744 -63.518578 
L 669.911293 -63.518578 
L 671.123842 -63.518578 
L 672.336391 -63.518578 
L 673.548939 -63.518578 
L 674.761488 -63.518578 
L 675.974037 -63.518578 
L 677.186586 -63.518578 
L 678.399135 -63.518578 
L 678.399135 -63.518578 
L 678.399135 -63.518578 
L 677.186586 -63.518578 
L 675.974037 -63.518578 
L 674.761488 -63.518578 
L 673.548939 -63.518578 
L 672.336391 -63.518578 
L 671.123842 -63.518578 
L 669.911293 -63.518578 
L 668.698744 -63.518578 
L 667.486195 -63.518578 
L 666.273646 -63.518578 
L 665.061097 -63.518578 
L 663.848548 -63.518578 
L 662.635999 -63.518578 
L 661.42345 -63.518578 
L 660.210901 -63.518578 
L 658.998352 -63.518578 
L 657.785803 -63.518578 
L 656.573254 -63.518578 
L 655.360705 -63.518578 
L 654.148157 -63.518578 
L 652.935608 -63.518578 
L 651.723059 -63.518578 
L 650.51051 -63.518578 
L 649.297961 -63.518578 
L 648.085412 -63.518578 
L 646.872863 -63.518578 
L 645.660314 -63.518578 
L 644.447765 -63.518578 
L 643.235216 -63.518578 
L 642.022667 -63.518578 
L 640.810118 -63.518578 
L 639.597569 -63.518578 
L 638.38502 -63.518578 
L 637.172471 -63.518578 
L 635.95386 -64.081192 
L 634.741311 -63.518578 
L 633.528762 -63.518578 
L 632.316213 -63.518578 
L 631.103664 -63.518578 
L 629.891115 -63.518578 
L 628.678566 -63.518578 
L 627.466017 -63.518578 
L 626.253468 -63.518578 
L 625.040919 -63.518578 
L 623.82837 -63.518578 
L 622.615822 -63.518578 
L 621.403273 -63.518578 
L 620.190724 -63.518578 
L 618.978175 -63.518578 
L 617.765626 -63.518578 
L 616.553077 -63.518578 
L 615.340528 -63.518578 
L 614.127979 -63.518578 
L 612.91543 -63.518578 
L 611.702881 -63.518578 
L 610.490332 -63.518578 
L 609.277783 -63.518578 
L 608.065234 -63.518578 
L 606.852685 -63.518578 
L 605.640137 -63.518578 
L 604.427588 -63.518578 
L 603.215039 -63.518578 
L 602.00249 -63.518578 
L 600.789941 -63.518578 
L 599.577392 -63.518578 
L 598.364843 -63.518578 
L 597.152294 -63.518578 
L 595.939745 -63.518578 
L 594.727196 -63.518578 
L 593.514647 -63.518578 
L 592.302098 -63.518578 
L 591.089549 -63.518578 
L 589.877 -63.518578 
L 588.664451 -63.518578 
L 587.451903 -63.518578 
L 586.239354 -63.518578 
L 585.026805 -63.518578 
L 583.814256 -63.518578 
L 582.601707 -63.518578 
L 581.389158 -63.518578 
L 580.176609 -63.518578 
L 578.96406 -63.518578 
L 577.751511 -63.518578 
L 576.538962 -63.518578 
L 575.326413 -63.518578 
L 574.113864 -63.518578 
L 572.901315 -63.518578 
L 571.688766 -63.518578 
L 570.476217 -63.518578 
L 569.263669 -63.518578 
L 568.05112 -63.518578 
L 566.838571 -63.518578 
L 565.626022 -63.518578 
L 564.413473 -63.518578 
L 563.200924 -63.518578 
L 561.988375 -63.518578 
L 560.775826 -63.518578 
L 559.563277 -63.518578 
L 558.350728 -63.518578 
L 557.138179 -63.518578 
L 555.92563 -63.518578 
L 554.713081 -63.518578 
L 553.500532 -63.518578 
L 552.287984 -63.518578 
L 551.075435 -63.518578 
L 549.862886 -63.518578 
L 548.650337 -63.518578 
L 547.437788 -63.518578 
L 546.225239 -63.518578 
L 545.01269 -63.518578 
L 543.800141 -63.518578 
L 542.587592 -63.518578 
L 541.375043 -64.081192 
L 540.162494 -63.518578 
L 538.949945 -63.518578 
L 537.737396 -63.518578 
L 536.524847 -63.518578 
L 535.312298 -63.518578 
L 534.09975 -63.518578 
L 532.887201 -63.518578 
L 531.674652 -63.518578 
L 530.45604 -63.518578 
L 529.243491 -63.518578 
L 528.030942 -63.518578 
L 526.818393 -63.518578 
L 525.605844 -63.518578 
L 524.393295 -63.518578 
L 523.180746 -63.518578 
L 521.968197 -63.518578 
L 520.755649 -63.518578 
L 519.5431 -63.518578 
L 518.330551 -63.518578 
L 517.118002 -63.518578 
L 515.905453 -63.518578 
L 514.692904 -63.518578 
L 513.480355 -63.518578 
L 512.267806 -63.518578 
L 511.055257 -63.518578 
L 509.842708 -63.518578 
L 508.630159 -63.518578 
L 507.41761 -63.518578 
L 506.205061 -63.518578 
L 504.992512 -63.518578 
L 503.779963 -63.518578 
L 502.567415 -63.518578 
L 501.354866 -63.518578 
L 500.142317 -63.518578 
L 498.929768 -63.518578 
L 497.717219 -63.518578 
L 496.50467 -63.518578 
L 495.292121 -63.518578 
L 494.079572 -63.518578 
L 492.867023 -63.518578 
L 491.654474 -63.518578 
L 490.441925 -63.518578 
L 489.229376 -63.518578 
L 488.016827 -63.518578 
L 486.804278 -63.518578 
L 485.59173 -63.518578 
L 484.379181 -63.518578 
L 483.166632 -63.518578 
L 481.954083 -63.518578 
L 480.741534 -63.518578 
L 479.528985 -63.518578 
L 478.316436 -63.518578 
L 477.103887 -63.518578 
L 475.891338 -63.518578 
L 474.678789 -63.518578 
L 473.46624 -63.518578 
L 472.253691 -63.518578 
L 471.041142 -63.518578 
L 469.828593 -63.518578 
L 468.616044 -63.518578 
L 467.403496 -63.518578 
L 466.190947 -63.518578 
L 464.978398 -63.518578 
L 463.765849 -63.518578 
L 462.5533 -63.518578 
L 461.340751 -63.518578 
L 460.128202 -63.518578 
L 458.915653 -63.518578 
L 457.703104 -63.518578 
L 456.490555 -63.518578 
L 455.278006 -63.518578 
L 454.065457 -63.518578 
L 452.852908 -63.518578 
L 451.640359 -63.518578 
L 450.42781 -63.518578 
L 449.215262 -63.518578 
L 448.002713 -63.518578 
L 446.790164 -63.518578 
L 445.577615 -63.518578 
L 444.365066 -63.518578 
L 443.152517 -63.518578 
L 441.939968 -63.518578 
L 440.727419 -63.518578 
L 439.51487 -63.518578 
L 438.302321 -63.518578 
L 437.089772 -63.518578 
L 435.877223 -63.518578 
L 434.664674 -63.518578 
L 433.452125 -63.518578 
L 432.239577 -63.518578 
L 431.027028 -63.518578 
L 429.814479 -63.518578 
L 428.60193 -63.518578 
L 427.389381 -63.518578 
L 426.176832 -63.518578 
L 424.964283 -63.518578 
L 423.751734 -63.518578 
L 422.539185 -63.518578 
L 421.326636 -63.518578 
L 420.114087 -63.518578 
L 418.901538 -63.518578 
L 417.688989 -63.518578 
L 416.47644 -63.518578 
L 415.263891 -63.518578 
L 414.051343 -64.081192 
L 412.838794 -63.518578 
L 411.626245 -63.518578 
L 410.413696 -64.081192 
L 409.201147 -63.518578 
L 407.988598 -63.518578 
L 406.776049 -63.518578 
L 405.5635 -63.518578 
L 404.350951 -63.518578 
L 403.138402 -63.518578 
L 401.925853 -63.518578 
L 400.713304 -63.518578 
L 399.500755 -63.518578 
L 398.288206 -63.518578 
L 397.075657 -63.518578 
L 395.863109 -63.518578 
L 394.65056 -63.518578 
L 393.438011 -63.518578 
L 392.225462 -63.518578 
L 391.012913 -63.518578 
L 389.800364 -63.518578 
L 388.587815 -63.518578 
L 387.375266 -63.518578 
L 386.162717 -63.518578 
L 384.950168 -63.518578 
L 383.737619 -63.518578 
L 382.52507 -63.518578 
L 381.312521 -63.518578 
L 380.099972 -63.518578 
L 378.887423 -63.518578 
L 377.674875 -63.518578 
L 376.462326 -63.518578 
L 375.249777 -63.518578 
L 374.037228 -63.518578 
L 372.824679 -63.518578 
L 371.61213 -63.518578 
L 370.399581 -63.518578 
L 369.187032 -63.518578 
L 367.974483 -63.518578 
L 366.761934 -63.518578 
L 365.549385 -63.518578 
L 364.336836 -63.518578 
L 363.124287 -63.518578 
L 361.911738 -63.518578 
L 360.69919 -63.518578 
L 359.486641 -63.518578 
L 358.274092 -63.518578 
L 357.061543 -63.518578 
L 355.848994 -63.518578 
L 354.636445 -63.518578 
L 353.423896 -63.518578 
L 352.211347 -63.518578 
L 350.998798 -63.518578 
L 349.786249 -63.518578 
L 348.5737 -63.518578 
L 347.361151 -63.518578 
L 346.148602 -63.518578 
L 344.936053 -63.518578 
L 343.723504 -63.518578 
L 342.510956 -63.518578 
L 341.298407 -63.518578 
L 340.085858 -63.518578 
L 338.873309 -63.518578 
L 337.66076 -63.518578 
L 336.448211 -63.518578 
L 335.235662 -63.518578 
L 334.023113 -63.518578 
L 332.810564 -63.518578 
L 331.598015 -63.518578 
L 330.385466 -63.518578 
L 329.172917 -63.518578 
L 327.960368 -63.518578 
L 326.747819 -63.518578 
L 325.53527 -63.518578 
L 324.322722 -63.518578 
L 323.110173 -63.518578 
L 321.897624 -63.518578 
L 320.685075 -63.518578 
L 319.472526 -63.518578 
L 318.259977 -63.518578 
L 317.047428 -63.518578 
L 315.834879 -63.518578 
L 314.62233 -63.518578 
L 313.409781 -63.518578 
L 312.197232 -63.518578 
L 310.984683 -63.518578 
L 309.772134 -63.518578 
L 308.559585 -63.518578 
L 307.347037 -64.081192 
L 306.134488 -63.518578 
L 304.921939 -63.518578 
L 303.70939 -63.518578 
L 302.496841 -63.518578 
L 301.284292 -63.518578 
L 300.071743 -63.518578 
L 298.859194 -63.518578 
L 297.646645 -63.518578 
L 296.434096 -63.518578 
L 295.221547 -63.518578 
L 294.008998 -63.518578 
L 292.796449 -63.518578 
L 291.5839 -63.518578 
L 290.371351 -63.518578 
L 289.158803 -63.518578 
L 287.946254 -63.518578 
L 286.733705 -63.518578 
L 285.521156 -63.518578 
L 284.308607 -63.518578 
L 283.096058 -64.081192 
L 281.883509 -63.518578 
L 280.67096 -63.518578 
L 279.458411 -63.518578 
L 278.245862 -63.518578 
L 277.033313 -63.518578 
L 275.820764 -63.518578 
L 274.608215 -63.518578 
L 273.395666 -63.518578 
L 272.183117 -63.518578 
L 270.970569 -64.081192 
L 269.75802 -63.518578 
L 268.545471 -63.518578 
L 267.332922 -63.518578 
L 266.120373 -63.518578 
L 264.907824 -63.518578 
L 263.695275 -63.518578 
L 262.482726 -63.518578 
L 261.270177 -63.518578 
L 260.057628 -63.518578 
L 258.845079 -63.518578 
L 257.63253 -63.518578 
L 256.419981 -63.518578 
L 255.207432 -63.518578 
L 253.994884 -63.518578 
L 252.782335 -63.518578 
L 251.569786 -63.518578 
L 250.357237 -63.518578 
L 249.144688 -63.518578 
L 247.932139 -63.518578 
L 246.71959 -63.518578 
L 245.507041 -63.518578 
L 244.294492 -63.518578 
L 243.081943 -63.518578 
L 241.869394 -63.518578 
L 240.656845 -63.518578 
L 239.444296 -63.518578 
L 238.231747 -63.518578 
L 237.013136 -63.518578 
L 235.800587 -63.518578 
L 234.588038 -63.518578 
L 233.375489 -63.518578 
L 232.16294 -63.518578 
L 230.950391 -63.518578 
L 229.737842 -63.518578 
L 228.525293 -63.518578 
L 227.312744 -63.518578 
L 226.100195 -63.518578 
L 224.887646 -63.518578 
L 223.675097 -63.518578 
L 222.462549 -63.518578 
L 221.25 -63.518578 
L 220.037451 -63.518578 
L 218.824902 -63.518578 
L 217.612353 -63.518578 
L 216.399804 -63.518578 
L 215.187255 -63.518578 
L 213.974706 -63.518578 
L 212.762157 -63.518578 
L 211.549608 -63.518578 
L 210.337059 -63.518578 
L 209.12451 -63.518578 
L 207.911961 -63.518578 
L 206.699412 -63.518578 
L 205.486863 -63.518578 
L 204.274315 -63.518578 
L 203.061766 -63.518578 
L 201.849217 -63.518578 
L 200.636668 -63.518578 
L 199.424119 -63.518578 
L 198.21157 -63.518578 
L 196.999021 -63.518578 
L 195.786472 -63.518578 
L 194.573923 -63.518578 
L 193.361374 -63.518578 
L 192.148825 -63.518578 
L 190.936276 -63.518578 
L 189.723727 -63.518578 
L 188.511178 -64.081192 
L 187.29863 -63.518578 
L 186.086081 -63.518578 
L 184.873532 -63.518578 
L 183.660983 -63.518578 
L 182.448434 -63.518578 
L 181.235885 -63.518578 
L 180.023336 -63.518578 
L 178.810787 -63.518578 
L 177.598238 -63.518578 
L 176.385689 -63.518578 
L 175.17314 -63.518578 
L 173.960591 -64.081192 
L 172.748042 -63.518578 
L 171.535493 -63.518578 
L 170.322944 -63.518578 
L 169.110396 -63.518578 
L 167.891784 -63.518578 
L 166.679235 -63.518578 
L 165.466686 -63.518578 
L 164.254137 -63.518578 
L 163.041588 -63.518578 
L 161.829039 -63.518578 
L 160.61649 -63.518578 
L 159.403941 -63.518578 
L 158.191392 -64.081192 
L 156.972781 -63.518578 
L 155.760232 -63.518578 
L 154.547683 -63.518578 
L 153.335134 -63.518578 
L 152.122585 -63.518578 
L 150.903973 -64.081192 
L 149.691424 -64.081192 
L 148.472813 -63.518578 
L 147.260264 -63.518578 
L 146.047715 -63.518578 
L 144.835166 -63.518578 
L 143.616554 -64.081192 
L 142.404005 -63.518578 
L 141.191456 -63.518578 
L 139.978907 -63.518578 
L 138.766359 -63.518578 
L 137.55381 -63.518578 
L 136.341261 -63.518578 
L 135.128712 -63.518578 
L 133.916163 -64.081192 
L 132.703614 -63.518578 
L 131.491065 -63.518578 
L 130.278516 -63.518578 
L 129.065967 -64.081192 
L 127.853418 -63.518578 
L 126.640869 -63.518578 
L 125.42832 -63.518578 
L 124.215771 -63.518578 
L 123.003222 -64.081192 
L 121.790673 -63.518578 
L 120.578125 -63.518578 
L 119.365576 -63.518578 
L 118.153027 -63.518578 
L 116.940478 -63.518578 
L 115.727929 -63.518578 
L 114.51538 -63.518578 
L 113.296768 -64.081192 
L 112.084219 -64.081192 
L 110.865608 -64.643805 
L 109.653059 -64.643805 
L 108.44051 -63.518578 
L 107.227961 -63.518578 
L 106.015412 -64.081192 
L 104.790737 -64.081192 
L 103.578189 -65.769033 
L 102.359577 -65.206419 
L 101.140965 -64.081192 
L 99.916291 -65.769033 
L 98.703742 -66.331647 
L 97.473005 -65.769033 
L 96.218016 -71.395172 
L 94.94484 -79.737851 
L 93.647413 -93.473627 
L 92.252981 -101.245351 
L 90.694856 -139.381544 
L 88.979099 -159.220845 
L 86.911703 -203.138874 
L 84.535108 -257.288546 
L 81.564363 -301.758571 
L 77.8479 -366.995195 
z
" style="stroke: #0000ff; stroke-opacity: 0.2"/>
    </defs>
    <g clip-path="url(#p59afb6bcb3)">
     <use xlink:href="#ma6cfcf81e5" x="0" y="432" style="fill: #0000ff; fill-opacity: 0.2; stroke: #0000ff; stroke-opacity: 0.2"/>
    </g>
   </g>
   <g id="FillBetweenPolyCollection_2">
    <defs>
     <path id="ma5e40d354d" d="M 77.787273 -383.619079 
L 77.787273 -117.217934 
L 81.873563 -134.465553 
L 85.729468 -126.967772 
L 89.912762 -136.366801 
L 93.798981 -125.796573 
L 97.703389 -128.756224 
L 101.916996 -124.727102 
L 106.051788 -127.692307 
L 110.289647 -125.413312 
L 114.321372 -131.279826 
L 118.462227 -133.502785 
L 122.639458 -135.961231 
L 126.810626 -127.899108 
L 131.024234 -119.80707 
L 135.037771 -132.688909 
L 139.36657 -137.800787 
L 143.471048 -114.589914 
L 147.508836 -140.751054 
L 151.425369 -134.526351 
L 155.487408 -119.399385 
L 159.507008 -127.721807 
L 163.490231 -131.087352 
L 167.625023 -131.566812 
L 171.590058 -130.170745 
L 175.603595 -127.646572 
L 179.920269 -132.960243 
L 184.170253 -118.931446 
L 188.286857 -140.961477 
L 192.730849 -132.984272 
L 196.871703 -148.481299 
L 201.06106 -124.491 
L 205.220103 -125.638824 
L 209.263953 -129.899862 
L 213.404808 -120.846514 
L 217.569914 -118.348145 
L 221.565262 -125.503813 
L 225.772807 -128.619381 
L 229.743905 -119.162684 
L 233.90901 -140.979308 
L 237.9953 -136.581405 
L 242.0149 -141.172811 
L 246.192131 -129.403037 
L 250.290547 -132.307728 
L 254.619346 -140.512561 
L 258.711699 -138.783559 
L 262.731299 -128.303973 
L 266.678145 -122.547708 
L 270.806874 -134.80312 
L 275.244804 -128.170337 
L 279.203776 -120.123415 
L 283.374944 -132.197499 
L 287.212662 -135.048796 
L 291.2747 -127.592981 
L 295.476182 -134.807765 
L 299.720104 -124.66053 
L 303.9519 -128.217392 
L 307.959374 -126.084731 
L 312.075977 -122.104151 
L 316.180455 -135.036959 
L 320.206118 -137.13422 
L 324.34091 -138.883099 
L 328.25138 -121.535135 
L 332.446799 -125.990839 
L 336.478525 -131.758722 
L 340.740634 -133.323185 
L 345.014869 -137.0752 
L 349.198163 -127.417054 
L 353.387519 -139.296352 
L 357.528374 -123.677767 
L 361.669229 -146.513254 
L 366.08897 -128.11205 
L 370.096444 -117.614512 
L 374.231236 -130.449319 
L 378.184145 -123.652159 
L 382.264372 -125.704176 
L 386.508294 -133.629131 
L 390.624897 -113.242134 
L 394.753626 -129.232942 
L 398.882355 -137.442879 
L 403.338473 -139.584481 
L 407.55208 -137.800554 
L 411.686872 -121.736491 
L 415.718597 -123.564203 
L 420.041334 -130.87592 
L 423.976056 -128.712377 
L 428.062345 -125.177421 
L 432.003129 -123.052086 
L 436.137921 -127.291625 
L 440.163584 -129.310525 
L 444.334752 -120.959026 
L 448.342226 -128.853535 
L 452.664963 -116.072809 
L 456.975575 -134.297255 
L 461.164931 -130.353502 
L 465.117841 -129.884569 
L 469.416327 -125.036383 
L 473.217668 -132.989038 
L 477.073573 -135.911448 
L 481.026483 -133.372186 
L 485.343157 -129.012914 
L 489.332443 -132.801013 
L 493.473298 -123.585934 
L 497.553525 -125.719137 
L 501.682254 -137.580992 
L 506.071681 -115.440296 
L 509.933649 -126.427529 
L 514.11088 -140.616861 
L 518.154731 -123.883157 
L 522.077327 -137.516812 
L 526.115115 -124.702537 
L 530.262032 -132.62164 
L 534.706024 -138.767363 
L 538.956008 -131.365456 
L 543.236306 -139.312809 
L 547.298345 -131.503625 
L 551.39676 -132.61889 
L 555.713434 -151.841395 
L 560.102861 -140.713947 
L 564.255841 -133.99143 
L 568.475512 -113.322385 
L 572.604241 -129.294754 
L 577.127048 -125.498651 
L 581.267903 -142.112172 
L 585.123809 -130.574748 
L 589.343479 -126.72179 
L 593.393392 -115.784702 
L 597.419055 -128.656846 
L 601.620537 -131.077652 
L 605.597697 -140.619469 
L 609.696113 -122.897988 
L 613.897595 -116.295888 
L 618.002073 -135.693571 
L 622.167178 -140.556282 
L 626.095837 -124.19444 
L 630.25488 -120.918006 
L 634.250229 -124.651837 
L 638.300142 -133.703628 
L 642.550126 -139.445565 
L 646.703106 -121.775918 
L 650.649953 -129.328433 
L 654.802933 -124.735838 
L 658.846784 -131.333417 
L 662.654187 -117.97926 
L 666.788979 -131.288152 
L 670.89952 -135.448994 
L 675.101002 -145.847251 
L 679.132727 -116.555801 
L 679.132727 -361.443066 
L 679.132727 -361.443066 
L 675.101002 -382.954839 
L 670.89952 -374.243627 
L 666.788979 -364.888014 
L 662.654187 -360.485692 
L 658.846784 -378.359203 
L 654.802933 -378.897682 
L 650.649953 -373.839003 
L 646.703106 -373.001995 
L 642.550126 -370.713141 
L 638.300142 -368.997723 
L 634.250229 -372.456499 
L 630.25488 -368.732976 
L 626.095837 -355.202681 
L 622.167178 -376.127608 
L 618.002073 -361.414765 
L 613.897595 -372.88901 
L 609.696113 -381.201617 
L 605.597697 -377.928759 
L 601.620537 -368.361107 
L 597.419055 -381.035775 
L 593.393392 -369.205434 
L 589.343479 -380.174322 
L 585.123809 -372.592688 
L 581.267903 -370.843041 
L 577.127048 -367.881008 
L 572.604241 -374.338767 
L 568.475512 -381.455528 
L 564.255841 -378.963783 
L 560.102861 -383.427297 
L 555.713434 -401.197095 
L 551.39676 -371.480715 
L 547.298345 -385.64635 
L 543.236306 -380.167589 
L 538.956008 -403.961818 
L 534.706024 -388.170388 
L 530.262032 -368.681458 
L 526.115115 -368.211038 
L 522.077327 -380.099247 
L 518.154731 -359.708725 
L 514.11088 -377.931367 
L 509.933649 -372.545146 
L 506.071681 -380.269787 
L 501.682254 -396.348028 
L 497.553525 -361.135337 
L 493.473298 -373.522402 
L 489.332443 -380.154199 
L 485.343157 -369.027591 
L 481.026483 -381.447365 
L 477.073573 -384.967204 
L 473.217668 -376.703583 
L 469.416327 -366.945023 
L 465.117841 -380.274136 
L 461.164931 -376.076526 
L 456.975575 -379.124042 
L 452.664963 -378.23902 
L 448.342226 -369.653054 
L 444.334752 -366.827617 
L 440.163584 -392.500295 
L 436.137921 -381.002742 
L 432.003129 -368.463235 
L 428.062345 -365.405731 
L 423.976056 -373.52289 
L 420.041334 -393.265323 
L 415.718597 -378.204979 
L 411.686872 -377.702268 
L 407.55208 -376.086828 
L 403.338473 -382.692424 
L 398.882355 -378.308841 
L 394.753626 -362.748464 
L 390.624897 -370.815833 
L 386.508294 -376.995659 
L 382.264372 -381.658022 
L 378.184145 -369.261416 
L 374.231236 -373.650287 
L 370.096444 -373.434724 
L 366.08897 -370.39454 
L 361.669229 -390.212274 
L 357.528374 -372.4984 
L 353.387519 -382.514468 
L 349.198163 -379.945143 
L 345.014869 -387.998212 
L 340.740634 -379.165943 
L 336.478525 -376.06956 
L 332.446799 -369.253159 
L 328.25138 -363.921085 
L 324.34091 -382.461637 
L 320.206118 -381.414008 
L 316.180455 -385.375608 
L 312.075977 -372.207677 
L 307.959374 -385.006144 
L 303.9519 -373.55179 
L 299.720104 -378.506906 
L 295.476182 -379.079617 
L 291.2747 -369.049271 
L 287.212662 -367.652555 
L 283.374944 -379.825544 
L 279.203776 -379.315344 
L 275.244804 -374.531014 
L 270.806874 -383.745108 
L 266.678145 -375.958882 
L 262.731299 -366.007855 
L 258.711699 -369.044723 
L 254.619346 -394.348628 
L 250.290547 -373.656216 
L 246.192131 -356.519269 
L 242.0149 -382.968433 
L 237.9953 -385.229416 
L 233.90901 -391.551458 
L 229.743905 -380.74216 
L 225.772807 -357.302925 
L 221.565262 -382.324469 
L 217.569914 -380.62453 
L 213.404808 -367.872299 
L 209.263953 -369.072813 
L 205.220103 -372.401682 
L 201.06106 -374.947759 
L 196.871703 -379.854706 
L 192.730849 -383.699617 
L 188.286857 -386.908443 
L 184.170253 -364.660436 
L 179.920269 -376.266293 
L 175.603595 -381.11388 
L 171.590058 -384.648807 
L 167.625023 -387.447501 
L 163.490231 -387.460876 
L 159.507008 -385.233406 
L 155.487408 -384.70022 
L 151.425369 -378.894947 
L 147.508836 -375.466752 
L 143.471048 -364.807207 
L 139.36657 -387.272626 
L 135.037771 -375.605458 
L 131.024234 -367.513489 
L 126.810626 -372.937905 
L 122.639458 -381.654828 
L 118.462227 -378.986343 
L 114.321372 -374.684118 
L 110.289647 -360.975078 
L 106.051788 -367.085606 
L 101.916996 -360.263035 
L 97.703389 -375.809466 
L 93.798981 -370.845678 
L 89.912762 -392.435289 
L 85.729468 -371.538818 
L 81.873563 -372.896644 
L 77.787273 -383.619079 
z
" style="stroke: #ffa500; stroke-opacity: 0.2"/>
    </defs>
    <g clip-path="url(#p59afb6bcb3)">
     <use xlink:href="#ma5e40d354d" x="0" y="432" style="fill: #ffa500; fill-opacity: 0.2; stroke: #ffa500; stroke-opacity: 0.2"/>
    </g>
   </g>
   <g id="matplotlib.axis_1">
    <g id="xtick_1">
     <g id="line2d_1">
      <path d="M 75.756253 390.04 
L 75.756253 10.8 
" clip-path="url(#p59afb6bcb3)" style="fill: none; stroke: #b0b0b0; stroke-width: 0.8; stroke-linecap: square"/>
     </g>
     <g id="line2d_2">
      <defs>
       <path id="m52f78959eb" d="M 0 0 
L 0 3.5 
" style="stroke: #000000; stroke-width: 0.8"/>
      </defs>
      <g>
       <use xlink:href="#m52f78959eb" x="75.756253" y="390.04" style="stroke: #000000; stroke-width: 0.8"/>
      </g>
     </g>
     <g id="text_1">
      <!-- 0 -->
      <g transform="translate(72.575003 404.638438) scale(0.1 -0.1)">
       <defs>
        <path id="DejaVuSans-30" d="M 2034 4250 
Q 1547 4250 1301 3770 
Q 1056 3291 1056 2328 
Q 1056 1369 1301 889 
Q 1547 409 2034 409 
Q 2525 409 2770 889 
Q 3016 1369 3016 2328 
Q 3016 3291 2770 3770 
Q 2525 4250 2034 4250 
z
M 2034 4750 
Q 2819 4750 3233 4129 
Q 3647 3509 3647 2328 
Q 3647 1150 3233 529 
Q 2819 -91 2034 -91 
Q 1250 -91 836 529 
Q 422 1150 422 2328 
Q 422 3509 836 4129 
Q 1250 4750 2034 4750 
z
" transform="scale(0.015625)"/>
       </defs>
       <use xlink:href="#DejaVuSans-30"/>
      </g>
     </g>
    </g>
    <g id="xtick_2">
     <g id="line2d_3">
      <path d="M 197.011146 390.04 
L 197.011146 10.8 
" clip-path="url(#p59afb6bcb3)" style="fill: none; stroke: #b0b0b0; stroke-width: 0.8; stroke-linecap: square"/>
     </g>
     <g id="line2d_4">
      <g>
       <use xlink:href="#m52f78959eb" x="197.011146" y="390.04" style="stroke: #000000; stroke-width: 0.8"/>
      </g>
     </g>
     <g id="text_2">
      <!-- 20000 -->
      <g transform="translate(181.104896 404.638438) scale(0.1 -0.1)">
       <defs>
        <path id="DejaVuSans-32" d="M 1228 531 
L 3431 531 
L 3431 0 
L 469 0 
L 469 531 
Q 828 903 1448 1529 
Q 2069 2156 2228 2338 
Q 2531 2678 2651 2914 
Q 2772 3150 2772 3378 
Q 2772 3750 2511 3984 
Q 2250 4219 1831 4219 
Q 1534 4219 1204 4116 
Q 875 4013 500 3803 
L 500 4441 
Q 881 4594 1212 4672 
Q 1544 4750 1819 4750 
Q 2544 4750 2975 4387 
Q 3406 4025 3406 3419 
Q 3406 3131 3298 2873 
Q 3191 2616 2906 2266 
Q 2828 2175 2409 1742 
Q 1991 1309 1228 531 
z
" transform="scale(0.015625)"/>
       </defs>
       <use xlink:href="#DejaVuSans-32"/>
       <use xlink:href="#DejaVuSans-30" transform="translate(63.623047 0)"/>
       <use xlink:href="#DejaVuSans-30" transform="translate(127.246094 0)"/>
       <use xlink:href="#DejaVuSans-30" transform="translate(190.869141 0)"/>
       <use xlink:href="#DejaVuSans-30" transform="translate(254.492188 0)"/>
      </g>
     </g>
    </g>
    <g id="xtick_3">
     <g id="line2d_5">
      <path d="M 318.26604 390.04 
L 318.26604 10.8 
" clip-path="url(#p59afb6bcb3)" style="fill: none; stroke: #b0b0b0; stroke-width: 0.8; stroke-linecap: square"/>
     </g>
     <g id="line2d_6">
      <g>
       <use xlink:href="#m52f78959eb" x="318.26604" y="390.04" style="stroke: #000000; stroke-width: 0.8"/>
      </g>
     </g>
     <g id="text_3">
      <!-- 40000 -->
      <g transform="translate(302.35979 404.638438) scale(0.1 -0.1)">
       <defs>
        <path id="DejaVuSans-34" d="M 2419 4116 
L 825 1625 
L 2419 1625 
L 2419 4116 
z
M 2253 4666 
L 3047 4666 
L 3047 1625 
L 3713 1625 
L 3713 1100 
L 3047 1100 
L 3047 0 
L 2419 0 
L 2419 1100 
L 313 1100 
L 313 1709 
L 2253 4666 
z
" transform="scale(0.015625)"/>
       </defs>
       <use xlink:href="#DejaVuSans-34"/>
       <use xlink:href="#DejaVuSans-30" transform="translate(63.623047 0)"/>
       <use xlink:href="#DejaVuSans-30" transform="translate(127.246094 0)"/>
       <use xlink:href="#DejaVuSans-30" transform="translate(190.869141 0)"/>
       <use xlink:href="#DejaVuSans-30" transform="translate(254.492188 0)"/>
      </g>
     </g>
    </g>
    <g id="xtick_4">
     <g id="line2d_7">
      <path d="M 439.520933 390.04 
L 439.520933 10.8 
" clip-path="url(#p59afb6bcb3)" style="fill: none; stroke: #b0b0b0; stroke-width: 0.8; stroke-linecap: square"/>
     </g>
     <g id="line2d_8">
      <g>
       <use xlink:href="#m52f78959eb" x="439.520933" y="390.04" style="stroke: #000000; stroke-width: 0.8"/>
      </g>
     </g>
     <g id="text_4">
      <!-- 60000 -->
      <g transform="translate(423.614683 404.638438) scale(0.1 -0.1)">
       <defs>
        <path id="DejaVuSans-36" d="M 2113 2584 
Q 1688 2584 1439 2293 
Q 1191 2003 1191 1497 
Q 1191 994 1439 701 
Q 1688 409 2113 409 
Q 2538 409 2786 701 
Q 3034 994 3034 1497 
Q 3034 2003 2786 2293 
Q 2538 2584 2113 2584 
z
M 3366 4563 
L 3366 3988 
Q 3128 4100 2886 4159 
Q 2644 4219 2406 4219 
Q 1781 4219 1451 3797 
Q 1122 3375 1075 2522 
Q 1259 2794 1537 2939 
Q 1816 3084 2150 3084 
Q 2853 3084 3261 2657 
Q 3669 2231 3669 1497 
Q 3669 778 3244 343 
Q 2819 -91 2113 -91 
Q 1303 -91 875 529 
Q 447 1150 447 2328 
Q 447 3434 972 4092 
Q 1497 4750 2381 4750 
Q 2619 4750 2861 4703 
Q 3103 4656 3366 4563 
z
" transform="scale(0.015625)"/>
       </defs>
       <use xlink:href="#DejaVuSans-36"/>
       <use xlink:href="#DejaVuSans-30" transform="translate(63.623047 0)"/>
       <use xlink:href="#DejaVuSans-30" transform="translate(127.246094 0)"/>
       <use xlink:href="#DejaVuSans-30" transform="translate(190.869141 0)"/>
       <use xlink:href="#DejaVuSans-30" transform="translate(254.492188 0)"/>
      </g>
     </g>
    </g>
    <g id="xtick_5">
     <g id="line2d_9">
      <path d="M 560.775826 390.04 
L 560.775826 10.8 
" clip-path="url(#p59afb6bcb3)" style="fill: none; stroke: #b0b0b0; stroke-width: 0.8; stroke-linecap: square"/>
     </g>
     <g id="line2d_10">
      <g>
       <use xlink:href="#m52f78959eb" x="560.775826" y="390.04" style="stroke: #000000; stroke-width: 0.8"/>
      </g>
     </g>
     <g id="text_5">
      <!-- 80000 -->
      <g transform="translate(544.869576 404.638438) scale(0.1 -0.1)">
       <defs>
        <path id="DejaVuSans-38" d="M 2034 2216 
Q 1584 2216 1326 1975 
Q 1069 1734 1069 1313 
Q 1069 891 1326 650 
Q 1584 409 2034 409 
Q 2484 409 2743 651 
Q 3003 894 3003 1313 
Q 3003 1734 2745 1975 
Q 2488 2216 2034 2216 
z
M 1403 2484 
Q 997 2584 770 2862 
Q 544 3141 544 3541 
Q 544 4100 942 4425 
Q 1341 4750 2034 4750 
Q 2731 4750 3128 4425 
Q 3525 4100 3525 3541 
Q 3525 3141 3298 2862 
Q 3072 2584 2669 2484 
Q 3125 2378 3379 2068 
Q 3634 1759 3634 1313 
Q 3634 634 3220 271 
Q 2806 -91 2034 -91 
Q 1263 -91 848 271 
Q 434 634 434 1313 
Q 434 1759 690 2068 
Q 947 2378 1403 2484 
z
M 1172 3481 
Q 1172 3119 1398 2916 
Q 1625 2713 2034 2713 
Q 2441 2713 2670 2916 
Q 2900 3119 2900 3481 
Q 2900 3844 2670 4047 
Q 2441 4250 2034 4250 
Q 1625 4250 1398 4047 
Q 1172 3844 1172 3481 
z
" transform="scale(0.015625)"/>
       </defs>
       <use xlink:href="#DejaVuSans-38"/>
       <use xlink:href="#DejaVuSans-30" transform="translate(63.623047 0)"/>
       <use xlink:href="#DejaVuSans-30" transform="translate(127.246094 0)"/>
       <use xlink:href="#DejaVuSans-30" transform="translate(190.869141 0)"/>
       <use xlink:href="#DejaVuSans-30" transform="translate(254.492188 0)"/>
      </g>
     </g>
    </g>
    <g id="xtick_6">
     <g id="line2d_11">
      <path d="M 682.030719 390.04 
L 682.030719 10.8 
" clip-path="url(#p59afb6bcb3)" style="fill: none; stroke: #b0b0b0; stroke-width: 0.8; stroke-linecap: square"/>
     </g>
     <g id="line2d_12">
      <g>
       <use xlink:href="#m52f78959eb" x="682.030719" y="390.04" style="stroke: #000000; stroke-width: 0.8"/>
      </g>
     </g>
     <g id="text_6">
      <!-- 100000 -->
      <g transform="translate(662.943219 404.638438) scale(0.1 -0.1)">
       <defs>
        <path id="DejaVuSans-31" d="M 794 531 
L 1825 531 
L 1825 4091 
L 703 3866 
L 703 4441 
L 1819 4666 
L 2450 4666 
L 2450 531 
L 3481 531 
L 3481 0 
L 794 0 
L 794 531 
z
" transform="scale(0.015625)"/>
       </defs>
       <use xlink:href="#DejaVuSans-31"/>
       <use xlink:href="#DejaVuSans-30" transform="translate(63.623047 0)"/>
       <use xlink:href="#DejaVuSans-30" transform="translate(127.246094 0)"/>
       <use xlink:href="#DejaVuSans-30" transform="translate(190.869141 0)"/>
       <use xlink:href="#DejaVuSans-30" transform="translate(254.492188 0)"/>
       <use xlink:href="#DejaVuSans-30" transform="translate(318.115234 0)"/>
      </g>
     </g>
    </g>
    <g id="text_7">
     <!-- Steps -->
     <g transform="translate(364.470156 418.316562) scale(0.1 -0.1)">
      <defs>
       <path id="DejaVuSans-53" d="M 3425 4513 
L 3425 3897 
Q 3066 4069 2747 4153 
Q 2428 4238 2131 4238 
Q 1616 4238 1336 4038 
Q 1056 3838 1056 3469 
Q 1056 3159 1242 3001 
Q 1428 2844 1947 2747 
L 2328 2669 
Q 3034 2534 3370 2195 
Q 3706 1856 3706 1288 
Q 3706 609 3251 259 
Q 2797 -91 1919 -91 
Q 1588 -91 1214 -16 
Q 841 59 441 206 
L 441 856 
Q 825 641 1194 531 
Q 1563 422 1919 422 
Q 2459 422 2753 634 
Q 3047 847 3047 1241 
Q 3047 1584 2836 1778 
Q 2625 1972 2144 2069 
L 1759 2144 
Q 1053 2284 737 2584 
Q 422 2884 422 3419 
Q 422 4038 858 4394 
Q 1294 4750 2059 4750 
Q 2388 4750 2728 4690 
Q 3069 4631 3425 4513 
z
" transform="scale(0.015625)"/>
       <path id="DejaVuSans-74" d="M 1172 4494 
L 1172 3500 
L 2356 3500 
L 2356 3053 
L 1172 3053 
L 1172 1153 
Q 1172 725 1289 603 
Q 1406 481 1766 481 
L 2356 481 
L 2356 0 
L 1766 0 
Q 1100 0 847 248 
Q 594 497 594 1153 
L 594 3053 
L 172 3053 
L 172 3500 
L 594 3500 
L 594 4494 
L 1172 4494 
z
" transform="scale(0.015625)"/>
       <path id="DejaVuSans-65" d="M 3597 1894 
L 3597 1613 
L 953 1613 
Q 991 1019 1311 708 
Q 1631 397 2203 397 
Q 2534 397 2845 478 
Q 3156 559 3463 722 
L 3463 178 
Q 3153 47 2828 -22 
Q 2503 -91 2169 -91 
Q 1331 -91 842 396 
Q 353 884 353 1716 
Q 353 2575 817 3079 
Q 1281 3584 2069 3584 
Q 2775 3584 3186 3129 
Q 3597 2675 3597 1894 
z
M 3022 2063 
Q 3016 2534 2758 2815 
Q 2500 3097 2075 3097 
Q 1594 3097 1305 2825 
Q 1016 2553 972 2059 
L 3022 2063 
z
" transform="scale(0.015625)"/>
       <path id="DejaVuSans-70" d="M 1159 525 
L 1159 -1331 
L 581 -1331 
L 581 3500 
L 1159 3500 
L 1159 2969 
Q 1341 3281 1617 3432 
Q 1894 3584 2278 3584 
Q 2916 3584 3314 3078 
Q 3713 2572 3713 1747 
Q 3713 922 3314 415 
Q 2916 -91 2278 -91 
Q 1894 -91 1617 61 
Q 1341 213 1159 525 
z
M 3116 1747 
Q 3116 2381 2855 2742 
Q 2594 3103 2138 3103 
Q 1681 3103 1420 2742 
Q 1159 2381 1159 1747 
Q 1159 1113 1420 752 
Q 1681 391 2138 391 
Q 2594 391 2855 752 
Q 3116 1113 3116 1747 
z
" transform="scale(0.015625)"/>
       <path id="DejaVuSans-73" d="M 2834 3397 
L 2834 2853 
Q 2591 2978 2328 3040 
Q 2066 3103 1784 3103 
Q 1356 3103 1142 2972 
Q 928 2841 928 2578 
Q 928 2378 1081 2264 
Q 1234 2150 1697 2047 
L 1894 2003 
Q 2506 1872 2764 1633 
Q 3022 1394 3022 966 
Q 3022 478 2636 193 
Q 2250 -91 1575 -91 
Q 1294 -91 989 -36 
Q 684 19 347 128 
L 347 722 
Q 666 556 975 473 
Q 1284 391 1588 391 
Q 1994 391 2212 530 
Q 2431 669 2431 922 
Q 2431 1156 2273 1281 
Q 2116 1406 1581 1522 
L 1381 1569 
Q 847 1681 609 1914 
Q 372 2147 372 2553 
Q 372 3047 722 3315 
Q 1072 3584 1716 3584 
Q 2034 3584 2315 3537 
Q 2597 3491 2834 3397 
z
" transform="scale(0.015625)"/>
      </defs>
      <use xlink:href="#DejaVuSans-53"/>
      <use xlink:href="#DejaVuSans-74" transform="translate(63.476562 0)"/>
      <use xlink:href="#DejaVuSans-65" transform="translate(102.685547 0)"/>
      <use xlink:href="#DejaVuSans-70" transform="translate(164.208984 0)"/>
      <use xlink:href="#DejaVuSans-73" transform="translate(227.685547 0)"/>
     </g>
    </g>
   </g>
   <g id="matplotlib.axis_2">
    <g id="ytick_1">
     <g id="line2d_13">
      <path d="M 47.72 368.481422 
L 709.2 368.481422 
" clip-path="url(#p59afb6bcb3)" style="fill: none; stroke: #b0b0b0; stroke-width: 0.8; stroke-linecap: square"/>
     </g>
     <g id="line2d_14">
      <defs>
       <path id="mfec1a4fe5a" d="M 0 0 
L -3.5 0 
" style="stroke: #000000; stroke-width: 0.8"/>
      </defs>
      <g>
       <use xlink:href="#mfec1a4fe5a" x="47.72" y="368.481422" style="stroke: #000000; stroke-width: 0.8"/>
      </g>
     </g>
     <g id="text_8">
      <!-- 1.0 -->
      <g transform="translate(24.816875 372.280641) scale(0.1 -0.1)">
       <defs>
        <path id="DejaVuSans-2e" d="M 684 794 
L 1344 794 
L 1344 0 
L 684 0 
L 684 794 
z
" transform="scale(0.015625)"/>
       </defs>
       <use xlink:href="#DejaVuSans-31"/>
       <use xlink:href="#DejaVuSans-2e" transform="translate(63.623047 0)"/>
       <use xlink:href="#DejaVuSans-30" transform="translate(95.410156 0)"/>
      </g>
     </g>
    </g>
    <g id="ytick_2">
     <g id="line2d_15">
      <path d="M 47.72 298.568731 
L 709.2 298.568731 
" clip-path="url(#p59afb6bcb3)" style="fill: none; stroke: #b0b0b0; stroke-width: 0.8; stroke-linecap: square"/>
     </g>
     <g id="line2d_16">
      <g>
       <use xlink:href="#mfec1a4fe5a" x="47.72" y="298.568731" style="stroke: #000000; stroke-width: 0.8"/>
      </g>
     </g>
     <g id="text_9">
      <!-- 1.5 -->
      <g transform="translate(24.816875 302.36795) scale(0.1 -0.1)">
       <defs>
        <path id="DejaVuSans-35" d="M 691 4666 
L 3169 4666 
L 3169 4134 
L 1269 4134 
L 1269 2991 
Q 1406 3038 1543 3061 
Q 1681 3084 1819 3084 
Q 2600 3084 3056 2656 
Q 3513 2228 3513 1497 
Q 3513 744 3044 326 
Q 2575 -91 1722 -91 
Q 1428 -91 1123 -41 
Q 819 9 494 109 
L 494 744 
Q 775 591 1075 516 
Q 1375 441 1709 441 
Q 2250 441 2565 725 
Q 2881 1009 2881 1497 
Q 2881 1984 2565 2268 
Q 2250 2553 1709 2553 
Q 1456 2553 1204 2497 
Q 953 2441 691 2322 
L 691 4666 
z
" transform="scale(0.015625)"/>
       </defs>
       <use xlink:href="#DejaVuSans-31"/>
       <use xlink:href="#DejaVuSans-2e" transform="translate(63.623047 0)"/>
       <use xlink:href="#DejaVuSans-35" transform="translate(95.410156 0)"/>
      </g>
     </g>
    </g>
    <g id="ytick_3">
     <g id="line2d_17">
      <path d="M 47.72 228.656039 
L 709.2 228.656039 
" clip-path="url(#p59afb6bcb3)" style="fill: none; stroke: #b0b0b0; stroke-width: 0.8; stroke-linecap: square"/>
     </g>
     <g id="line2d_18">
      <g>
       <use xlink:href="#mfec1a4fe5a" x="47.72" y="228.656039" style="stroke: #000000; stroke-width: 0.8"/>
      </g>
     </g>
     <g id="text_10">
      <!-- 2.0 -->
      <g transform="translate(24.816875 232.455258) scale(0.1 -0.1)">
       <use xlink:href="#DejaVuSans-32"/>
       <use xlink:href="#DejaVuSans-2e" transform="translate(63.623047 0)"/>
       <use xlink:href="#DejaVuSans-30" transform="translate(95.410156 0)"/>
      </g>
     </g>
    </g>
    <g id="ytick_4">
     <g id="line2d_19">
      <path d="M 47.72 158.743348 
L 709.2 158.743348 
" clip-path="url(#p59afb6bcb3)" style="fill: none; stroke: #b0b0b0; stroke-width: 0.8; stroke-linecap: square"/>
     </g>
     <g id="line2d_20">
      <g>
       <use xlink:href="#mfec1a4fe5a" x="47.72" y="158.743348" style="stroke: #000000; stroke-width: 0.8"/>
      </g>
     </g>
     <g id="text_11">
      <!-- 2.5 -->
      <g transform="translate(24.816875 162.542566) scale(0.1 -0.1)">
       <use xlink:href="#DejaVuSans-32"/>
       <use xlink:href="#DejaVuSans-2e" transform="translate(63.623047 0)"/>
       <use xlink:href="#DejaVuSans-35" transform="translate(95.410156 0)"/>
      </g>
     </g>
    </g>
    <g id="ytick_5">
     <g id="line2d_21">
      <path d="M 47.72 88.830656 
L 709.2 88.830656 
" clip-path="url(#p59afb6bcb3)" style="fill: none; stroke: #b0b0b0; stroke-width: 0.8; stroke-linecap: square"/>
     </g>
     <g id="line2d_22">
      <g>
       <use xlink:href="#mfec1a4fe5a" x="47.72" y="88.830656" style="stroke: #000000; stroke-width: 0.8"/>
      </g>
     </g>
     <g id="text_12">
      <!-- 3.0 -->
      <g transform="translate(24.816875 92.629875) scale(0.1 -0.1)">
       <defs>
        <path id="DejaVuSans-33" d="M 2597 2516 
Q 3050 2419 3304 2112 
Q 3559 1806 3559 1356 
Q 3559 666 3084 287 
Q 2609 -91 1734 -91 
Q 1441 -91 1130 -33 
Q 819 25 488 141 
L 488 750 
Q 750 597 1062 519 
Q 1375 441 1716 441 
Q 2309 441 2620 675 
Q 2931 909 2931 1356 
Q 2931 1769 2642 2001 
Q 2353 2234 1838 2234 
L 1294 2234 
L 1294 2753 
L 1863 2753 
Q 2328 2753 2575 2939 
Q 2822 3125 2822 3475 
Q 2822 3834 2567 4026 
Q 2313 4219 1838 4219 
Q 1578 4219 1281 4162 
Q 984 4106 628 3988 
L 628 4550 
Q 988 4650 1302 4700 
Q 1616 4750 1894 4750 
Q 2613 4750 3031 4423 
Q 3450 4097 3450 3541 
Q 3450 3153 3228 2886 
Q 3006 2619 2597 2516 
z
" transform="scale(0.015625)"/>
       </defs>
       <use xlink:href="#DejaVuSans-33"/>
       <use xlink:href="#DejaVuSans-2e" transform="translate(63.623047 0)"/>
       <use xlink:href="#DejaVuSans-30" transform="translate(95.410156 0)"/>
      </g>
     </g>
    </g>
    <g id="ytick_6">
     <g id="line2d_23">
      <path d="M 47.72 18.917964 
L 709.2 18.917964 
" clip-path="url(#p59afb6bcb3)" style="fill: none; stroke: #b0b0b0; stroke-width: 0.8; stroke-linecap: square"/>
     </g>
     <g id="line2d_24">
      <g>
       <use xlink:href="#mfec1a4fe5a" x="47.72" y="18.917964" style="stroke: #000000; stroke-width: 0.8"/>
      </g>
     </g>
     <g id="text_13">
      <!-- 3.5 -->
      <g transform="translate(24.816875 22.717183) scale(0.1 -0.1)">
       <use xlink:href="#DejaVuSans-33"/>
       <use xlink:href="#DejaVuSans-2e" transform="translate(63.623047 0)"/>
       <use xlink:href="#DejaVuSans-35" transform="translate(95.410156 0)"/>
      </g>
     </g>
    </g>
    <g id="text_14">
     <!-- Circuit Depth -->
     <g transform="translate(18.737188 233.329375) rotate(-90) scale(0.1 -0.1)">
      <defs>
       <path id="DejaVuSans-43" d="M 4122 4306 
L 4122 3641 
Q 3803 3938 3442 4084 
Q 3081 4231 2675 4231 
Q 1875 4231 1450 3742 
Q 1025 3253 1025 2328 
Q 1025 1406 1450 917 
Q 1875 428 2675 428 
Q 3081 428 3442 575 
Q 3803 722 4122 1019 
L 4122 359 
Q 3791 134 3420 21 
Q 3050 -91 2638 -91 
Q 1578 -91 968 557 
Q 359 1206 359 2328 
Q 359 3453 968 4101 
Q 1578 4750 2638 4750 
Q 3056 4750 3426 4639 
Q 3797 4528 4122 4306 
z
" transform="scale(0.015625)"/>
       <path id="DejaVuSans-69" d="M 603 3500 
L 1178 3500 
L 1178 0 
L 603 0 
L 603 3500 
z
M 603 4863 
L 1178 4863 
L 1178 4134 
L 603 4134 
L 603 4863 
z
" transform="scale(0.015625)"/>
       <path id="DejaVuSans-72" d="M 2631 2963 
Q 2534 3019 2420 3045 
Q 2306 3072 2169 3072 
Q 1681 3072 1420 2755 
Q 1159 2438 1159 1844 
L 1159 0 
L 581 0 
L 581 3500 
L 1159 3500 
L 1159 2956 
Q 1341 3275 1631 3429 
Q 1922 3584 2338 3584 
Q 2397 3584 2469 3576 
Q 2541 3569 2628 3553 
L 2631 2963 
z
" transform="scale(0.015625)"/>
       <path id="DejaVuSans-63" d="M 3122 3366 
L 3122 2828 
Q 2878 2963 2633 3030 
Q 2388 3097 2138 3097 
Q 1578 3097 1268 2742 
Q 959 2388 959 1747 
Q 959 1106 1268 751 
Q 1578 397 2138 397 
Q 2388 397 2633 464 
Q 2878 531 3122 666 
L 3122 134 
Q 2881 22 2623 -34 
Q 2366 -91 2075 -91 
Q 1284 -91 818 406 
Q 353 903 353 1747 
Q 353 2603 823 3093 
Q 1294 3584 2113 3584 
Q 2378 3584 2631 3529 
Q 2884 3475 3122 3366 
z
" transform="scale(0.015625)"/>
       <path id="DejaVuSans-75" d="M 544 1381 
L 544 3500 
L 1119 3500 
L 1119 1403 
Q 1119 906 1312 657 
Q 1506 409 1894 409 
Q 2359 409 2629 706 
Q 2900 1003 2900 1516 
L 2900 3500 
L 3475 3500 
L 3475 0 
L 2900 0 
L 2900 538 
Q 2691 219 2414 64 
Q 2138 -91 1772 -91 
Q 1169 -91 856 284 
Q 544 659 544 1381 
z
M 1991 3584 
L 1991 3584 
z
" transform="scale(0.015625)"/>
       <path id="DejaVuSans-20" transform="scale(0.015625)"/>
       <path id="DejaVuSans-44" d="M 1259 4147 
L 1259 519 
L 2022 519 
Q 2988 519 3436 956 
Q 3884 1394 3884 2338 
Q 3884 3275 3436 3711 
Q 2988 4147 2022 4147 
L 1259 4147 
z
M 628 4666 
L 1925 4666 
Q 3281 4666 3915 4102 
Q 4550 3538 4550 2338 
Q 4550 1131 3912 565 
Q 3275 0 1925 0 
L 628 0 
L 628 4666 
z
" transform="scale(0.015625)"/>
       <path id="DejaVuSans-68" d="M 3513 2113 
L 3513 0 
L 2938 0 
L 2938 2094 
Q 2938 2591 2744 2837 
Q 2550 3084 2163 3084 
Q 1697 3084 1428 2787 
Q 1159 2491 1159 1978 
L 1159 0 
L 581 0 
L 581 4863 
L 1159 4863 
L 1159 2956 
Q 1366 3272 1645 3428 
Q 1925 3584 2291 3584 
Q 2894 3584 3203 3211 
Q 3513 2838 3513 2113 
z
" transform="scale(0.015625)"/>
      </defs>
      <use xlink:href="#DejaVuSans-43"/>
      <use xlink:href="#DejaVuSans-69" transform="translate(69.824219 0)"/>
      <use xlink:href="#DejaVuSans-72" transform="translate(97.607422 0)"/>
      <use xlink:href="#DejaVuSans-63" transform="translate(136.470703 0)"/>
      <use xlink:href="#DejaVuSans-75" transform="translate(191.451172 0)"/>
      <use xlink:href="#DejaVuSans-69" transform="translate(254.830078 0)"/>
      <use xlink:href="#DejaVuSans-74" transform="translate(282.613281 0)"/>
      <use xlink:href="#DejaVuSans-20" transform="translate(321.822266 0)"/>
      <use xlink:href="#DejaVuSans-44" transform="translate(353.609375 0)"/>
      <use xlink:href="#DejaVuSans-65" transform="translate(430.611328 0)"/>
      <use xlink:href="#DejaVuSans-70" transform="translate(492.134766 0)"/>
      <use xlink:href="#DejaVuSans-74" transform="translate(555.611328 0)"/>
      <use xlink:href="#DejaVuSans-68" transform="translate(594.820312 0)"/>
     </g>
    </g>
   </g>
   <g id="line2d_25">
    <path d="M 77.8479 184.144959 
L 81.564363 231.918631 
L 84.535108 263.1463 
L 86.911703 293.907885 
L 88.979099 318.843411 
L 90.694856 330.495527 
L 92.252981 350.770207 
L 93.647413 355.664096 
L 94.94484 361.490153 
L 96.218016 365.21883 
L 97.473005 367.549253 
L 98.703742 367.316211 
L 99.916291 367.549253 
L 101.140965 368.24838 
L 102.359577 367.782295 
L 103.578189 367.549253 
L 104.790737 368.24838 
L 106.015412 368.24838 
L 107.227961 368.481422 
L 108.44051 368.481422 
L 109.653059 368.015338 
L 110.865608 368.015338 
L 112.084219 368.24838 
L 113.296768 368.24838 
L 114.51538 368.481422 
L 121.790673 368.481422 
L 123.003222 368.24838 
L 124.215771 368.481422 
L 127.853418 368.481422 
L 129.065967 368.24838 
L 130.278516 368.481422 
L 132.703614 368.481422 
L 133.916163 368.24838 
L 135.128712 368.481422 
L 142.404005 368.481422 
L 143.616554 368.24838 
L 144.835166 368.481422 
L 148.472813 368.481422 
L 149.691424 368.24838 
L 150.903973 368.24838 
L 152.122585 368.481422 
L 156.972781 368.481422 
L 158.191392 368.24838 
L 159.403941 368.481422 
L 172.748042 368.481422 
L 173.960591 368.24838 
L 175.17314 368.481422 
L 187.29863 368.481422 
L 188.511178 368.24838 
L 189.723727 368.481422 
L 269.75802 368.481422 
L 270.970569 368.24838 
L 272.183117 368.481422 
L 281.883509 368.481422 
L 283.096058 368.24838 
L 284.308607 368.481422 
L 306.134488 368.481422 
L 307.347037 368.24838 
L 308.559585 368.481422 
L 409.201147 368.481422 
L 410.413696 368.24838 
L 411.626245 368.481422 
L 412.838794 368.481422 
L 414.051343 368.24838 
L 415.263891 368.481422 
L 540.162494 368.481422 
L 541.375043 368.24838 
L 542.587592 368.481422 
L 634.741311 368.481422 
L 635.95386 368.24838 
L 637.172471 368.481422 
L 678.399135 368.481422 
L 678.399135 368.481422 
" clip-path="url(#p59afb6bcb3)" style="fill: none; stroke: #0000ff; stroke-width: 1.5; stroke-linecap: square"/>
   </g>
   <g id="line2d_26">
    <path d="M 77.787273 181.581494 
L 81.873563 178.318901 
L 85.729468 182.746705 
L 89.912762 167.598955 
L 93.798981 183.678874 
L 97.703389 179.717155 
L 101.916996 189.504932 
L 106.051788 184.611043 
L 110.289647 188.805805 
L 114.321372 179.018028 
L 118.462227 175.755436 
L 122.639458 173.191971 
L 126.810626 181.581494 
L 131.024234 188.33972 
L 135.037771 177.852817 
L 139.36657 169.463294 
L 143.471048 192.30144 
L 147.508836 173.891097 
L 151.425369 175.289351 
L 155.487408 179.950197 
L 159.507008 175.522394 
L 163.490231 172.725886 
L 167.625023 172.492844 
L 171.590058 174.590224 
L 175.603595 177.619774 
L 179.920269 177.386732 
L 184.170253 190.204059 
L 188.286857 168.06504 
L 192.730849 173.658055 
L 196.871703 167.831998 
L 201.06106 182.28062 
L 205.220103 182.979747 
L 209.263953 182.513663 
L 213.404808 187.640593 
L 217.569914 182.513663 
L 221.565262 178.085859 
L 225.772807 189.038847 
L 229.743905 182.047578 
L 233.90901 165.734617 
L 237.9953 171.09459 
L 242.0149 169.929378 
L 246.192131 189.038847 
L 250.290547 179.018028 
L 254.619346 164.569405 
L 258.711699 178.085859 
L 262.731299 184.844086 
L 266.678145 182.746705 
L 270.806874 172.725886 
L 275.244804 180.649324 
L 279.203776 182.28062 
L 283.374944 175.988478 
L 287.212662 180.649324 
L 291.2747 183.678874 
L 295.476182 175.056309 
L 299.720104 180.416282 
L 303.9519 181.115409 
L 307.959374 176.454563 
L 312.075977 184.844086 
L 316.180455 171.793717 
L 320.206118 172.725886 
L 324.34091 171.327632 
L 328.25138 189.27189 
L 332.446799 184.378001 
L 336.478525 178.085859 
L 340.740634 175.755436 
L 345.014869 169.463294 
L 349.198163 178.318901 
L 353.387519 171.09459 
L 357.528374 183.911917 
L 361.669229 163.637236 
L 366.08897 182.746705 
L 370.096444 186.475382 
L 374.231236 179.950197 
L 378.184145 185.543213 
L 382.264372 178.318901 
L 386.508294 176.687605 
L 390.624897 189.971017 
L 394.753626 186.009297 
L 398.882355 174.12414 
L 403.338473 170.861547 
L 407.55208 175.056309 
L 411.686872 182.28062 
L 415.718597 181.115409 
L 420.041334 169.929378 
L 423.976056 180.882367 
L 428.062345 186.708424 
L 432.003129 186.24234 
L 436.137921 177.852817 
L 440.163584 171.09459 
L 444.334752 188.106678 
L 448.342226 182.746705 
L 452.664963 184.844086 
L 456.975575 175.289351 
L 461.164931 178.784986 
L 465.117841 176.920647 
L 469.416327 186.009297 
L 473.217668 177.15369 
L 477.073573 171.560674 
L 481.026483 174.590224 
L 485.343157 182.979747 
L 489.332443 175.522394 
L 493.473298 183.445832 
L 497.553525 188.572763 
L 501.682254 165.03549 
L 506.071681 184.144959 
L 509.933649 182.513663 
L 514.11088 172.725886 
L 518.154731 190.204059 
L 522.077327 173.191971 
L 526.115115 185.543213 
L 530.262032 181.348451 
L 534.706024 168.531124 
L 538.956008 164.336363 
L 543.236306 172.259801 
L 547.298345 173.425013 
L 551.39676 179.950197 
L 555.713434 155.480755 
L 560.102861 169.929378 
L 564.255841 175.522394 
L 568.475512 184.611043 
L 572.604241 180.18324 
L 577.127048 185.31017 
L 581.267903 175.522394 
L 585.123809 180.416282 
L 589.343479 178.551944 
L 593.393392 189.504932 
L 597.419055 177.15369 
L 601.620537 182.28062 
L 605.597697 172.725886 
L 613.897595 187.407551 
L 618.002073 183.445832 
L 622.167178 173.658055 
L 626.095837 192.30144 
L 630.25488 187.174509 
L 634.250229 183.445832 
L 638.300142 180.649324 
L 642.550126 176.920647 
L 646.703106 184.611043 
L 650.649953 180.416282 
L 654.802933 180.18324 
L 658.846784 177.15369 
L 662.654187 192.767524 
L 666.788979 183.911917 
L 670.89952 177.15369 
L 675.101002 167.598955 
L 679.132727 193.000566 
L 679.132727 193.000566 
" clip-path="url(#p59afb6bcb3)" style="fill: none; stroke: #ffa500; stroke-width: 1.5; stroke-linecap: square"/>
   </g>
   <g id="patch_3">
    <path d="M 47.72 390.04 
L 47.72 10.8 
" style="fill: none; stroke: #000000; stroke-width: 0.8; stroke-linejoin: miter; stroke-linecap: square"/>
   </g>
   <g id="patch_4">
    <path d="M 709.2 390.04 
L 709.2 10.8 
" style="fill: none; stroke: #000000; stroke-width: 0.8; stroke-linejoin: miter; stroke-linecap: square"/>
   </g>
   <g id="patch_5">
    <path d="M 47.72 390.04 
L 709.2 390.04 
" style="fill: none; stroke: #000000; stroke-width: 0.8; stroke-linejoin: miter; stroke-linecap: square"/>
   </g>
   <g id="patch_6">
    <path d="M 47.72 10.8 
L 709.2 10.8 
" style="fill: none; stroke: #000000; stroke-width: 0.8; stroke-linejoin: miter; stroke-linecap: square"/>
   </g>
   <g id="legend_1">
    <g id="patch_7">
     <path d="M 628.803125 385.04 
L 702.2 385.04 
Q 704.2 385.04 704.2 383.04 
L 704.2 340.005625 
Q 704.2 338.005625 702.2 338.005625 
L 628.803125 338.005625 
Q 626.803125 338.005625 626.803125 340.005625 
L 626.803125 383.04 
Q 626.803125 385.04 628.803125 385.04 
z
" style="fill: #ffffff; opacity: 0.8; stroke: #cccccc; stroke-linejoin: miter"/>
    </g>
    <g id="text_15">
     <!-- Agent -->
     <g transform="translate(650.701563 349.604062) scale(0.1 -0.1)">
      <defs>
       <path id="DejaVuSans-41" d="M 2188 4044 
L 1331 1722 
L 3047 1722 
L 2188 4044 
z
M 1831 4666 
L 2547 4666 
L 4325 0 
L 3669 0 
L 3244 1197 
L 1141 1197 
L 716 0 
L 50 0 
L 1831 4666 
z
" transform="scale(0.015625)"/>
       <path id="DejaVuSans-67" d="M 2906 1791 
Q 2906 2416 2648 2759 
Q 2391 3103 1925 3103 
Q 1463 3103 1205 2759 
Q 947 2416 947 1791 
Q 947 1169 1205 825 
Q 1463 481 1925 481 
Q 2391 481 2648 825 
Q 2906 1169 2906 1791 
z
M 3481 434 
Q 3481 -459 3084 -895 
Q 2688 -1331 1869 -1331 
Q 1566 -1331 1297 -1286 
Q 1028 -1241 775 -1147 
L 775 -588 
Q 1028 -725 1275 -790 
Q 1522 -856 1778 -856 
Q 2344 -856 2625 -561 
Q 2906 -266 2906 331 
L 2906 616 
Q 2728 306 2450 153 
Q 2172 0 1784 0 
Q 1141 0 747 490 
Q 353 981 353 1791 
Q 353 2603 747 3093 
Q 1141 3584 1784 3584 
Q 2172 3584 2450 3431 
Q 2728 3278 2906 2969 
L 2906 3500 
L 3481 3500 
L 3481 434 
z
" transform="scale(0.015625)"/>
       <path id="DejaVuSans-6e" d="M 3513 2113 
L 3513 0 
L 2938 0 
L 2938 2094 
Q 2938 2591 2744 2837 
Q 2550 3084 2163 3084 
Q 1697 3084 1428 2787 
Q 1159 2491 1159 1978 
L 1159 0 
L 581 0 
L 581 3500 
L 1159 3500 
L 1159 2956 
Q 1366 3272 1645 3428 
Q 1925 3584 2291 3584 
Q 2894 3584 3203 3211 
Q 3513 2838 3513 2113 
z
" transform="scale(0.015625)"/>
      </defs>
      <use xlink:href="#DejaVuSans-41"/>
      <use xlink:href="#DejaVuSans-67" transform="translate(68.408203 0)"/>
      <use xlink:href="#DejaVuSans-65" transform="translate(131.884766 0)"/>
      <use xlink:href="#DejaVuSans-6e" transform="translate(193.408203 0)"/>
      <use xlink:href="#DejaVuSans-74" transform="translate(256.787109 0)"/>
     </g>
    </g>
    <g id="line2d_27">
     <path d="M 630.803125 360.782187 
L 640.803125 360.782187 
L 650.803125 360.782187 
" style="fill: none; stroke: #0000ff; stroke-width: 1.5; stroke-linecap: square"/>
    </g>
    <g id="text_16">
     <!-- PPO -->
     <g transform="translate(658.803125 364.282187) scale(0.1 -0.1)">
      <defs>
       <path id="DejaVuSans-50" d="M 1259 4147 
L 1259 2394 
L 2053 2394 
Q 2494 2394 2734 2622 
Q 2975 2850 2975 3272 
Q 2975 3691 2734 3919 
Q 2494 4147 2053 4147 
L 1259 4147 
z
M 628 4666 
L 2053 4666 
Q 2838 4666 3239 4311 
Q 3641 3956 3641 3272 
Q 3641 2581 3239 2228 
Q 2838 1875 2053 1875 
L 1259 1875 
L 1259 0 
L 628 0 
L 628 4666 
z
" transform="scale(0.015625)"/>
       <path id="DejaVuSans-4f" d="M 2522 4238 
Q 1834 4238 1429 3725 
Q 1025 3213 1025 2328 
Q 1025 1447 1429 934 
Q 1834 422 2522 422 
Q 3209 422 3611 934 
Q 4013 1447 4013 2328 
Q 4013 3213 3611 3725 
Q 3209 4238 2522 4238 
z
M 2522 4750 
Q 3503 4750 4090 4092 
Q 4678 3434 4678 2328 
Q 4678 1225 4090 567 
Q 3503 -91 2522 -91 
Q 1538 -91 948 565 
Q 359 1222 359 2328 
Q 359 3434 948 4092 
Q 1538 4750 2522 4750 
z
" transform="scale(0.015625)"/>
      </defs>
      <use xlink:href="#DejaVuSans-50"/>
      <use xlink:href="#DejaVuSans-50" transform="translate(60.302734 0)"/>
      <use xlink:href="#DejaVuSans-4f" transform="translate(120.605469 0)"/>
     </g>
    </g>
    <g id="line2d_28">
     <path d="M 630.803125 375.460312 
L 640.803125 375.460312 
L 650.803125 375.460312 
" style="fill: none; stroke: #ffa500; stroke-width: 1.5; stroke-linecap: square"/>
    </g>
    <g id="text_17">
     <!-- Random -->
     <g transform="translate(658.803125 378.960312) scale(0.1 -0.1)">
      <defs>
       <path id="DejaVuSans-52" d="M 2841 2188 
Q 3044 2119 3236 1894 
Q 3428 1669 3622 1275 
L 4263 0 
L 3584 0 
L 2988 1197 
Q 2756 1666 2539 1819 
Q 2322 1972 1947 1972 
L 1259 1972 
L 1259 0 
L 628 0 
L 628 4666 
L 2053 4666 
Q 2853 4666 3247 4331 
Q 3641 3997 3641 3322 
Q 3641 2881 3436 2590 
Q 3231 2300 2841 2188 
z
M 1259 4147 
L 1259 2491 
L 2053 2491 
Q 2509 2491 2742 2702 
Q 2975 2913 2975 3322 
Q 2975 3731 2742 3939 
Q 2509 4147 2053 4147 
L 1259 4147 
z
" transform="scale(0.015625)"/>
       <path id="DejaVuSans-61" d="M 2194 1759 
Q 1497 1759 1228 1600 
Q 959 1441 959 1056 
Q 959 750 1161 570 
Q 1363 391 1709 391 
Q 2188 391 2477 730 
Q 2766 1069 2766 1631 
L 2766 1759 
L 2194 1759 
z
M 3341 1997 
L 3341 0 
L 2766 0 
L 2766 531 
Q 2569 213 2275 61 
Q 1981 -91 1556 -91 
Q 1019 -91 701 211 
Q 384 513 384 1019 
Q 384 1609 779 1909 
Q 1175 2209 1959 2209 
L 2766 2209 
L 2766 2266 
Q 2766 2663 2505 2880 
Q 2244 3097 1772 3097 
Q 1472 3097 1187 3025 
Q 903 2953 641 2809 
L 641 3341 
Q 956 3463 1253 3523 
Q 1550 3584 1831 3584 
Q 2591 3584 2966 3190 
Q 3341 2797 3341 1997 
z
" transform="scale(0.015625)"/>
       <path id="DejaVuSans-64" d="M 2906 2969 
L 2906 4863 
L 3481 4863 
L 3481 0 
L 2906 0 
L 2906 525 
Q 2725 213 2448 61 
Q 2172 -91 1784 -91 
Q 1150 -91 751 415 
Q 353 922 353 1747 
Q 353 2572 751 3078 
Q 1150 3584 1784 3584 
Q 2172 3584 2448 3432 
Q 2725 3281 2906 2969 
z
M 947 1747 
Q 947 1113 1208 752 
Q 1469 391 1925 391 
Q 2381 391 2643 752 
Q 2906 1113 2906 1747 
Q 2906 2381 2643 2742 
Q 2381 3103 1925 3103 
Q 1469 3103 1208 2742 
Q 947 2381 947 1747 
z
" transform="scale(0.015625)"/>
       <path id="DejaVuSans-6f" d="M 1959 3097 
Q 1497 3097 1228 2736 
Q 959 2375 959 1747 
Q 959 1119 1226 758 
Q 1494 397 1959 397 
Q 2419 397 2687 759 
Q 2956 1122 2956 1747 
Q 2956 2369 2687 2733 
Q 2419 3097 1959 3097 
z
M 1959 3584 
Q 2709 3584 3137 3096 
Q 3566 2609 3566 1747 
Q 3566 888 3137 398 
Q 2709 -91 1959 -91 
Q 1206 -91 779 398 
Q 353 888 353 1747 
Q 353 2609 779 3096 
Q 1206 3584 1959 3584 
z
" transform="scale(0.015625)"/>
       <path id="DejaVuSans-6d" d="M 3328 2828 
Q 3544 3216 3844 3400 
Q 4144 3584 4550 3584 
Q 5097 3584 5394 3201 
Q 5691 2819 5691 2113 
L 5691 0 
L 5113 0 
L 5113 2094 
Q 5113 2597 4934 2840 
Q 4756 3084 4391 3084 
Q 3944 3084 3684 2787 
Q 3425 2491 3425 1978 
L 3425 0 
L 2847 0 
L 2847 2094 
Q 2847 2600 2669 2842 
Q 2491 3084 2119 3084 
Q 1678 3084 1418 2786 
Q 1159 2488 1159 1978 
L 1159 0 
L 581 0 
L 581 3500 
L 1159 3500 
L 1159 2956 
Q 1356 3278 1631 3431 
Q 1906 3584 2284 3584 
Q 2666 3584 2933 3390 
Q 3200 3197 3328 2828 
z
" transform="scale(0.015625)"/>
      </defs>
      <use xlink:href="#DejaVuSans-52"/>
      <use xlink:href="#DejaVuSans-61" transform="translate(67.232422 0)"/>
      <use xlink:href="#DejaVuSans-6e" transform="translate(128.511719 0)"/>
      <use xlink:href="#DejaVuSans-64" transform="translate(191.890625 0)"/>
      <use xlink:href="#DejaVuSans-6f" transform="translate(255.367188 0)"/>
      <use xlink:href="#DejaVuSans-6d" transform="translate(316.548828 0)"/>
     </g>
    </g>
   </g>
  </g>
 </g>
 <defs>
  <clipPath id="p59afb6bcb3">
   <rect x="47.72" y="10.8" width="661.48" height="379.24"/>
  </clipPath>
 </defs>
</svg>
