<?xml version="1.0" encoding="utf-8" standalone="no"?>
<!DOCTYPE svg PUBLIC "-//W3C//DTD SVG 1.1//EN"
  "http://www.w3.org/Graphics/SVG/1.1/DTD/svg11.dtd">
<svg xmlns:xlink="http://www.w3.org/1999/xlink" width="720pt" height="432pt" viewBox="0 0 720 432" xmlns="http://www.w3.org/2000/svg" version="1.1">
 <metadata>
  <rdf:RDF xmlns:dc="http://purl.org/dc/elements/1.1/" xmlns:cc="http://creativecommons.org/ns#" xmlns:rdf="http://www.w3.org/1999/02/22-rdf-syntax-ns#">
   <cc:Work>
    <dc:type rdf:resource="http://purl.org/dc/dcmitype/StillImage"/>
    <dc:date>2025-04-16T00:43:00.528306</dc:date>
    <dc:format>image/svg+xml</dc:format>
    <dc:creator>
     <cc:Agent>
      <dc:title>Matplotlib v3.10.0, https://matplotlib.org/</dc:title>
     </cc:Agent>
    </dc:creator>
   </cc:Work>
  </rdf:RDF>
 </metadata>
 <defs>
  <style type="text/css">*{stroke-linejoin: round; stroke-linecap: butt}</style>
 </defs>
 <g id="figure_1">
  <g id="patch_1">
   <path d="M 0 432 
L 720 432 
L 720 0 
L 0 0 
z
" style="fill: #ffffff"/>
  </g>
  <g id="axes_1">
   <g id="patch_2">
    <path d="M 47.72 390.04 
L 709.2 390.04 
L 709.2 10.8 
L 47.72 10.8 
z
" style="fill: #ffffff"/>
   </g>
   <g id="FillBetweenPolyCollection_1">
    <defs>
     <path id="m6f96affdf0" d="M 77.8479 -360.356607 
L 77.8479 -106.998552 
L 81.564363 -211.552542 
L 84.535108 -312.412088 
L 86.911703 -352.332627 
L 88.979099 -391.765946 
L 90.694856 -399.388366 
L 92.252981 -403.961818 
L 93.647413 -403.961818 
L 94.94484 -403.961818 
L 96.218016 -403.961818 
L 97.473005 -403.961818 
L 98.703742 -403.961818 
L 99.916291 -403.961818 
L 101.140965 -403.961818 
L 102.359577 -403.961818 
L 103.578189 -403.961818 
L 104.790737 -403.961818 
L 106.015412 -403.961818 
L 107.227961 -403.961818 
L 108.44051 -403.961818 
L 109.653059 -403.961818 
L 110.865608 -403.961818 
L 112.084219 -403.961818 
L 113.296768 -403.961818 
L 114.51538 -403.961818 
L 115.727929 -403.961818 
L 116.940478 -403.961818 
L 118.153027 -403.961818 
L 119.365576 -403.961818 
L 120.578125 -403.961818 
L 121.790673 -403.961818 
L 123.003222 -403.961818 
L 124.215771 -403.961818 
L 125.42832 -403.961818 
L 126.640869 -403.961818 
L 127.853418 -403.961818 
L 129.065967 -403.961818 
L 130.278516 -403.961818 
L 131.491065 -403.961818 
L 132.703614 -403.961818 
L 133.916163 -403.961818 
L 135.128712 -403.961818 
L 136.341261 -403.961818 
L 137.55381 -403.961818 
L 138.766359 -403.961818 
L 139.978907 -403.961818 
L 141.191456 -403.961818 
L 142.404005 -403.961818 
L 143.616554 -403.961818 
L 144.835166 -403.961818 
L 146.047715 -403.961818 
L 147.260264 -403.961818 
L 148.472813 -403.961818 
L 149.691424 -403.961818 
L 150.903973 -403.961818 
L 152.122585 -403.961818 
L 153.335134 -403.961818 
L 154.547683 -403.961818 
L 155.760232 -403.961818 
L 156.972781 -403.961818 
L 158.191392 -403.961818 
L 159.403941 -403.961818 
L 160.61649 -403.961818 
L 161.829039 -403.961818 
L 163.041588 -403.961818 
L 164.254137 -403.961818 
L 165.466686 -403.961818 
L 166.679235 -403.961818 
L 167.891784 -403.961818 
L 169.110396 -403.961818 
L 170.322944 -403.961818 
L 171.535493 -403.961818 
L 172.748042 -403.961818 
L 173.960591 -403.961818 
L 175.17314 -403.961818 
L 176.385689 -403.961818 
L 177.598238 -403.961818 
L 178.810787 -403.961818 
L 180.023336 -403.961818 
L 181.235885 -403.961818 
L 182.448434 -403.961818 
L 183.660983 -403.961818 
L 184.873532 -403.961818 
L 186.086081 -403.961818 
L 187.29863 -403.961818 
L 188.511178 -403.961818 
L 189.723727 -403.961818 
L 190.936276 -403.961818 
L 192.148825 -403.961818 
L 193.361374 -403.961818 
L 194.573923 -403.961818 
L 195.786472 -403.961818 
L 196.999021 -403.961818 
L 198.21157 -403.961818 
L 199.424119 -403.961818 
L 200.636668 -403.961818 
L 201.849217 -403.961818 
L 203.061766 -403.961818 
L 204.274315 -403.961818 
L 205.486863 -403.961818 
L 206.699412 -403.961818 
L 207.911961 -403.961818 
L 209.12451 -403.961818 
L 210.337059 -403.961818 
L 211.549608 -403.961818 
L 212.762157 -403.961818 
L 213.974706 -403.961818 
L 215.187255 -403.961818 
L 216.399804 -403.961818 
L 217.612353 -403.961818 
L 218.824902 -403.961818 
L 220.037451 -403.961818 
L 221.25 -403.961818 
L 222.462549 -403.961818 
L 223.675097 -403.961818 
L 224.887646 -403.961818 
L 226.100195 -403.961818 
L 227.312744 -403.961818 
L 228.525293 -403.961818 
L 229.737842 -403.961818 
L 230.950391 -403.961818 
L 232.16294 -403.961818 
L 233.375489 -403.961818 
L 234.588038 -403.961818 
L 235.800587 -403.961818 
L 237.013136 -403.961818 
L 238.231747 -403.961818 
L 239.444296 -403.961818 
L 240.656845 -403.961818 
L 241.869394 -403.961818 
L 243.081943 -403.961818 
L 244.294492 -403.961818 
L 245.507041 -403.961818 
L 246.71959 -403.961818 
L 247.932139 -403.961818 
L 249.144688 -403.961818 
L 250.357237 -403.961818 
L 251.569786 -403.961818 
L 252.782335 -403.961818 
L 253.994884 -403.961818 
L 255.207432 -403.961818 
L 256.419981 -403.961818 
L 257.63253 -403.961818 
L 258.845079 -403.961818 
L 260.057628 -403.961818 
L 261.270177 -403.961818 
L 262.482726 -403.961818 
L 263.695275 -403.961818 
L 264.907824 -403.961818 
L 266.120373 -403.961818 
L 267.332922 -403.961818 
L 268.545471 -403.961818 
L 269.75802 -403.961818 
L 270.970569 -403.961818 
L 272.183117 -403.961818 
L 273.395666 -403.961818 
L 274.608215 -403.961818 
L 275.820764 -403.961818 
L 277.033313 -403.961818 
L 278.245862 -403.961818 
L 279.458411 -403.961818 
L 280.67096 -403.961818 
L 281.883509 -403.961818 
L 283.096058 -403.961818 
L 284.308607 -403.961818 
L 285.521156 -403.961818 
L 286.733705 -403.961818 
L 287.946254 -403.961818 
L 289.158803 -403.961818 
L 290.371351 -403.961818 
L 291.5839 -403.961818 
L 292.796449 -403.961818 
L 294.008998 -403.961818 
L 295.221547 -403.961818 
L 296.434096 -403.961818 
L 297.646645 -403.961818 
L 298.859194 -403.961818 
L 300.071743 -403.961818 
L 301.284292 -403.961818 
L 302.496841 -403.961818 
L 303.70939 -403.961818 
L 304.921939 -403.961818 
L 306.134488 -403.961818 
L 307.347037 -403.961818 
L 308.559585 -403.961818 
L 309.772134 -403.961818 
L 310.984683 -403.961818 
L 312.197232 -403.961818 
L 313.409781 -403.961818 
L 314.62233 -403.961818 
L 315.834879 -403.961818 
L 317.047428 -403.961818 
L 318.259977 -403.961818 
L 319.472526 -403.961818 
L 320.685075 -403.961818 
L 321.897624 -403.961818 
L 323.110173 -403.961818 
L 324.322722 -403.961818 
L 325.53527 -403.961818 
L 326.747819 -403.961818 
L 327.960368 -403.961818 
L 329.172917 -403.961818 
L 330.385466 -403.961818 
L 331.598015 -403.961818 
L 332.810564 -403.961818 
L 334.023113 -403.961818 
L 335.235662 -403.961818 
L 336.448211 -403.961818 
L 337.66076 -403.961818 
L 338.873309 -403.961818 
L 340.085858 -403.961818 
L 341.298407 -403.961818 
L 342.510956 -403.961818 
L 343.723504 -403.961818 
L 344.936053 -403.961818 
L 346.148602 -403.961818 
L 347.361151 -403.961818 
L 348.5737 -403.961818 
L 349.786249 -403.961818 
L 350.998798 -403.961818 
L 352.211347 -403.961818 
L 353.423896 -403.961818 
L 354.636445 -403.961818 
L 355.848994 -403.961818 
L 357.061543 -403.961818 
L 358.274092 -403.961818 
L 359.486641 -403.961818 
L 360.69919 -403.961818 
L 361.911738 -403.961818 
L 363.124287 -403.961818 
L 364.336836 -403.961818 
L 365.549385 -403.961818 
L 366.761934 -403.961818 
L 367.974483 -403.961818 
L 369.187032 -403.961818 
L 370.399581 -403.961818 
L 371.61213 -403.961818 
L 372.824679 -403.961818 
L 374.037228 -403.961818 
L 375.249777 -403.961818 
L 376.462326 -403.961818 
L 377.674875 -403.961818 
L 378.887423 -403.961818 
L 380.099972 -403.961818 
L 381.312521 -403.961818 
L 382.52507 -403.961818 
L 383.737619 -403.961818 
L 384.950168 -403.961818 
L 386.162717 -403.961818 
L 387.375266 -403.961818 
L 388.587815 -403.961818 
L 389.800364 -403.961818 
L 391.012913 -403.961818 
L 392.225462 -403.961818 
L 393.438011 -403.961818 
L 394.65056 -403.961818 
L 395.863109 -403.961818 
L 397.075657 -403.961818 
L 398.288206 -403.961818 
L 399.500755 -403.961818 
L 400.713304 -403.961818 
L 401.925853 -403.961818 
L 403.138402 -403.961818 
L 404.350951 -403.961818 
L 405.5635 -403.961818 
L 406.776049 -403.961818 
L 407.988598 -403.961818 
L 409.201147 -403.961818 
L 410.413696 -403.961818 
L 411.626245 -403.961818 
L 412.838794 -403.961818 
L 414.051343 -403.961818 
L 415.263891 -403.961818 
L 416.47644 -403.961818 
L 417.688989 -403.961818 
L 418.901538 -403.961818 
L 420.114087 -403.961818 
L 421.326636 -403.961818 
L 422.539185 -403.961818 
L 423.751734 -403.961818 
L 424.964283 -403.961818 
L 426.176832 -403.961818 
L 427.389381 -403.961818 
L 428.60193 -403.961818 
L 429.814479 -403.961818 
L 431.027028 -403.961818 
L 432.239577 -403.961818 
L 433.452125 -403.961818 
L 434.664674 -403.961818 
L 435.877223 -403.961818 
L 437.089772 -403.961818 
L 438.302321 -403.961818 
L 439.51487 -403.961818 
L 440.727419 -403.961818 
L 441.939968 -403.961818 
L 443.152517 -403.961818 
L 444.365066 -403.961818 
L 445.577615 -403.961818 
L 446.790164 -403.961818 
L 448.002713 -403.961818 
L 449.215262 -403.961818 
L 450.42781 -403.961818 
L 451.640359 -403.961818 
L 452.852908 -403.961818 
L 454.065457 -403.961818 
L 455.278006 -403.961818 
L 456.490555 -403.961818 
L 457.703104 -403.961818 
L 458.915653 -403.961818 
L 460.128202 -403.961818 
L 461.340751 -403.961818 
L 462.5533 -403.961818 
L 463.765849 -403.961818 
L 464.978398 -403.961818 
L 466.190947 -403.961818 
L 467.403496 -403.961818 
L 468.616044 -403.961818 
L 469.828593 -403.961818 
L 471.041142 -403.961818 
L 472.253691 -403.961818 
L 473.46624 -403.961818 
L 474.678789 -403.961818 
L 475.891338 -403.961818 
L 477.103887 -403.961818 
L 478.316436 -403.961818 
L 479.528985 -403.961818 
L 480.741534 -403.961818 
L 481.954083 -403.961818 
L 483.166632 -403.961818 
L 484.379181 -403.961818 
L 485.59173 -403.961818 
L 486.804278 -403.961818 
L 488.016827 -403.961818 
L 489.229376 -403.961818 
L 490.441925 -403.961818 
L 491.654474 -403.961818 
L 492.867023 -403.961818 
L 494.079572 -403.961818 
L 495.292121 -403.961818 
L 496.50467 -403.961818 
L 497.717219 -403.961818 
L 498.929768 -403.961818 
L 500.142317 -403.961818 
L 501.354866 -403.961818 
L 502.567415 -403.961818 
L 503.779963 -403.961818 
L 504.992512 -403.961818 
L 506.205061 -403.961818 
L 507.41761 -403.961818 
L 508.630159 -403.961818 
L 509.842708 -403.961818 
L 511.055257 -403.961818 
L 512.267806 -403.961818 
L 513.480355 -403.961818 
L 514.692904 -403.961818 
L 515.905453 -403.961818 
L 517.118002 -403.961818 
L 518.330551 -403.961818 
L 519.5431 -403.961818 
L 520.755649 -403.961818 
L 521.968197 -403.961818 
L 523.180746 -403.961818 
L 524.393295 -403.961818 
L 525.605844 -403.961818 
L 526.818393 -403.961818 
L 528.030942 -403.961818 
L 529.243491 -403.961818 
L 530.45604 -403.961818 
L 531.674652 -403.961818 
L 532.887201 -403.961818 
L 534.09975 -403.961818 
L 535.312298 -403.961818 
L 536.524847 -403.961818 
L 537.737396 -403.961818 
L 538.949945 -403.961818 
L 540.162494 -403.961818 
L 541.375043 -403.961818 
L 542.587592 -403.961818 
L 543.800141 -403.961818 
L 545.01269 -403.961818 
L 546.225239 -403.961818 
L 547.437788 -403.961818 
L 548.650337 -403.961818 
L 549.862886 -403.961818 
L 551.075435 -403.961818 
L 552.287984 -403.961818 
L 553.500532 -403.961818 
L 554.713081 -403.961818 
L 555.92563 -403.961818 
L 557.138179 -403.961818 
L 558.350728 -403.961818 
L 559.563277 -403.961818 
L 560.775826 -403.961818 
L 561.988375 -403.961818 
L 563.200924 -403.961818 
L 564.413473 -403.961818 
L 565.626022 -403.961818 
L 566.838571 -403.961818 
L 568.05112 -403.961818 
L 569.263669 -403.961818 
L 570.476217 -403.961818 
L 571.688766 -403.961818 
L 572.901315 -403.961818 
L 574.113864 -403.961818 
L 575.326413 -403.961818 
L 576.538962 -403.961818 
L 577.751511 -403.961818 
L 578.96406 -403.961818 
L 580.176609 -403.961818 
L 581.389158 -403.961818 
L 582.601707 -403.961818 
L 583.814256 -403.961818 
L 585.026805 -403.961818 
L 586.239354 -403.961818 
L 587.451903 -403.961818 
L 588.664451 -403.961818 
L 589.877 -403.961818 
L 591.089549 -403.961818 
L 592.302098 -403.961818 
L 593.514647 -403.961818 
L 594.727196 -403.961818 
L 595.939745 -403.961818 
L 597.152294 -403.961818 
L 598.364843 -403.961818 
L 599.577392 -403.961818 
L 600.789941 -403.961818 
L 602.00249 -403.961818 
L 603.215039 -403.961818 
L 604.427588 -403.961818 
L 605.640137 -403.961818 
L 606.852685 -403.961818 
L 608.065234 -403.961818 
L 609.277783 -403.961818 
L 610.490332 -403.961818 
L 611.702881 -403.961818 
L 612.91543 -403.961818 
L 614.127979 -403.961818 
L 615.340528 -403.961818 
L 616.553077 -403.961818 
L 617.765626 -403.961818 
L 618.978175 -403.961818 
L 620.190724 -403.961818 
L 621.403273 -403.961818 
L 622.615822 -403.961818 
L 623.82837 -403.961818 
L 625.040919 -403.961818 
L 626.253468 -403.961818 
L 627.466017 -403.961818 
L 628.678566 -403.961818 
L 629.891115 -403.961818 
L 631.103664 -403.961818 
L 632.316213 -403.961818 
L 633.528762 -403.961818 
L 634.741311 -403.961818 
L 635.95386 -403.961818 
L 637.172471 -403.961818 
L 638.38502 -403.961818 
L 639.597569 -403.961818 
L 640.810118 -403.961818 
L 642.022667 -403.961818 
L 643.235216 -403.961818 
L 644.447765 -403.961818 
L 645.660314 -403.961818 
L 646.872863 -403.961818 
L 648.085412 -403.961818 
L 649.297961 -403.961818 
L 650.51051 -403.961818 
L 651.723059 -403.961818 
L 652.935608 -403.961818 
L 654.148157 -403.961818 
L 655.360705 -403.961818 
L 656.573254 -403.961818 
L 657.785803 -403.961818 
L 658.998352 -403.961818 
L 660.210901 -403.961818 
L 661.42345 -403.961818 
L 662.635999 -403.961818 
L 663.848548 -403.961818 
L 665.061097 -403.961818 
L 666.273646 -403.961818 
L 667.486195 -403.961818 
L 668.698744 -403.961818 
L 669.911293 -403.961818 
L 671.123842 -403.961818 
L 672.336391 -403.961818 
L 673.548939 -403.961818 
L 674.761488 -403.961818 
L 675.974037 -403.961818 
L 677.186586 -403.961818 
L 678.399135 -403.961818 
L 678.399135 -403.961818 
L 678.399135 -403.961818 
L 677.186586 -403.961818 
L 675.974037 -403.961818 
L 674.761488 -403.961818 
L 673.548939 -403.961818 
L 672.336391 -403.961818 
L 671.123842 -403.961818 
L 669.911293 -403.961818 
L 668.698744 -403.961818 
L 667.486195 -403.961818 
L 666.273646 -403.961818 
L 665.061097 -403.961818 
L 663.848548 -403.961818 
L 662.635999 -403.961818 
L 661.42345 -403.961818 
L 660.210901 -403.961818 
L 658.998352 -403.961818 
L 657.785803 -403.961818 
L 656.573254 -403.961818 
L 655.360705 -403.961818 
L 654.148157 -403.961818 
L 652.935608 -403.961818 
L 651.723059 -403.961818 
L 650.51051 -403.961818 
L 649.297961 -403.961818 
L 648.085412 -403.961818 
L 646.872863 -403.961818 
L 645.660314 -403.961818 
L 644.447765 -403.961818 
L 643.235216 -403.961818 
L 642.022667 -403.961818 
L 640.810118 -403.961818 
L 639.597569 -403.961818 
L 638.38502 -403.961818 
L 637.172471 -403.961818 
L 635.95386 -403.961818 
L 634.741311 -403.961818 
L 633.528762 -403.961818 
L 632.316213 -403.961818 
L 631.103664 -403.961818 
L 629.891115 -403.961818 
L 628.678566 -403.961818 
L 627.466017 -403.961818 
L 626.253468 -403.961818 
L 625.040919 -403.961818 
L 623.82837 -403.961818 
L 622.615822 -403.961818 
L 621.403273 -403.961818 
L 620.190724 -403.961818 
L 618.978175 -403.961818 
L 617.765626 -403.961818 
L 616.553077 -403.961818 
L 615.340528 -403.961818 
L 614.127979 -403.961818 
L 612.91543 -403.961818 
L 611.702881 -403.961818 
L 610.490332 -403.961818 
L 609.277783 -403.961818 
L 608.065234 -403.961818 
L 606.852685 -403.961818 
L 605.640137 -403.961818 
L 604.427588 -403.961818 
L 603.215039 -403.961818 
L 602.00249 -403.961818 
L 600.789941 -403.961818 
L 599.577392 -403.961818 
L 598.364843 -403.961818 
L 597.152294 -403.961818 
L 595.939745 -403.961818 
L 594.727196 -403.961818 
L 593.514647 -403.961818 
L 592.302098 -403.961818 
L 591.089549 -403.961818 
L 589.877 -403.961818 
L 588.664451 -403.961818 
L 587.451903 -403.961818 
L 586.239354 -403.961818 
L 585.026805 -403.961818 
L 583.814256 -403.961818 
L 582.601707 -403.961818 
L 581.389158 -403.961818 
L 580.176609 -403.961818 
L 578.96406 -403.961818 
L 577.751511 -403.961818 
L 576.538962 -403.961818 
L 575.326413 -403.961818 
L 574.113864 -403.961818 
L 572.901315 -403.961818 
L 571.688766 -403.961818 
L 570.476217 -403.961818 
L 569.263669 -403.961818 
L 568.05112 -403.961818 
L 566.838571 -403.961818 
L 565.626022 -403.961818 
L 564.413473 -403.961818 
L 563.200924 -403.961818 
L 561.988375 -403.961818 
L 560.775826 -403.961818 
L 559.563277 -403.961818 
L 558.350728 -403.961818 
L 557.138179 -403.961818 
L 555.92563 -403.961818 
L 554.713081 -403.961818 
L 553.500532 -403.961818 
L 552.287984 -403.961818 
L 551.075435 -403.961818 
L 549.862886 -403.961818 
L 548.650337 -403.961818 
L 547.437788 -403.961818 
L 546.225239 -403.961818 
L 545.01269 -403.961818 
L 543.800141 -403.961818 
L 542.587592 -403.961818 
L 541.375043 -403.961818 
L 540.162494 -403.961818 
L 538.949945 -403.961818 
L 537.737396 -403.961818 
L 536.524847 -403.961818 
L 535.312298 -403.961818 
L 534.09975 -403.961818 
L 532.887201 -403.961818 
L 531.674652 -403.961818 
L 530.45604 -403.961818 
L 529.243491 -403.961818 
L 528.030942 -403.961818 
L 526.818393 -403.961818 
L 525.605844 -403.961818 
L 524.393295 -403.961818 
L 523.180746 -403.961818 
L 521.968197 -403.961818 
L 520.755649 -403.961818 
L 519.5431 -403.961818 
L 518.330551 -403.961818 
L 517.118002 -403.961818 
L 515.905453 -403.961818 
L 514.692904 -403.961818 
L 513.480355 -403.961818 
L 512.267806 -403.961818 
L 511.055257 -403.961818 
L 509.842708 -403.961818 
L 508.630159 -403.961818 
L 507.41761 -403.961818 
L 506.205061 -403.961818 
L 504.992512 -403.961818 
L 503.779963 -403.961818 
L 502.567415 -403.961818 
L 501.354866 -403.961818 
L 500.142317 -403.961818 
L 498.929768 -403.961818 
L 497.717219 -403.961818 
L 496.50467 -403.961818 
L 495.292121 -403.961818 
L 494.079572 -403.961818 
L 492.867023 -403.961818 
L 491.654474 -403.961818 
L 490.441925 -403.961818 
L 489.229376 -403.961818 
L 488.016827 -403.961818 
L 486.804278 -403.961818 
L 485.59173 -403.961818 
L 484.379181 -403.961818 
L 483.166632 -403.961818 
L 481.954083 -403.961818 
L 480.741534 -403.961818 
L 479.528985 -403.961818 
L 478.316436 -403.961818 
L 477.103887 -403.961818 
L 475.891338 -403.961818 
L 474.678789 -403.961818 
L 473.46624 -403.961818 
L 472.253691 -403.961818 
L 471.041142 -403.961818 
L 469.828593 -403.961818 
L 468.616044 -403.961818 
L 467.403496 -403.961818 
L 466.190947 -403.961818 
L 464.978398 -403.961818 
L 463.765849 -403.961818 
L 462.5533 -403.961818 
L 461.340751 -403.961818 
L 460.128202 -403.961818 
L 458.915653 -403.961818 
L 457.703104 -403.961818 
L 456.490555 -403.961818 
L 455.278006 -403.961818 
L 454.065457 -403.961818 
L 452.852908 -403.961818 
L 451.640359 -403.961818 
L 450.42781 -403.961818 
L 449.215262 -403.961818 
L 448.002713 -403.961818 
L 446.790164 -403.961818 
L 445.577615 -403.961818 
L 444.365066 -403.961818 
L 443.152517 -403.961818 
L 441.939968 -403.961818 
L 440.727419 -403.961818 
L 439.51487 -403.961818 
L 438.302321 -403.961818 
L 437.089772 -403.961818 
L 435.877223 -403.961818 
L 434.664674 -403.961818 
L 433.452125 -403.961818 
L 432.239577 -403.961818 
L 431.027028 -403.961818 
L 429.814479 -403.961818 
L 428.60193 -403.961818 
L 427.389381 -403.961818 
L 426.176832 -403.961818 
L 424.964283 -403.961818 
L 423.751734 -403.961818 
L 422.539185 -403.961818 
L 421.326636 -403.961818 
L 420.114087 -403.961818 
L 418.901538 -403.961818 
L 417.688989 -403.961818 
L 416.47644 -403.961818 
L 415.263891 -403.961818 
L 414.051343 -403.961818 
L 412.838794 -403.961818 
L 411.626245 -403.961818 
L 410.413696 -403.961818 
L 409.201147 -403.961818 
L 407.988598 -403.961818 
L 406.776049 -403.961818 
L 405.5635 -403.961818 
L 404.350951 -403.961818 
L 403.138402 -403.961818 
L 401.925853 -403.961818 
L 400.713304 -403.961818 
L 399.500755 -403.961818 
L 398.288206 -403.961818 
L 397.075657 -403.961818 
L 395.863109 -403.961818 
L 394.65056 -403.961818 
L 393.438011 -403.961818 
L 392.225462 -403.961818 
L 391.012913 -403.961818 
L 389.800364 -403.961818 
L 388.587815 -403.961818 
L 387.375266 -403.961818 
L 386.162717 -403.961818 
L 384.950168 -403.961818 
L 383.737619 -403.961818 
L 382.52507 -403.961818 
L 381.312521 -403.961818 
L 380.099972 -403.961818 
L 378.887423 -403.961818 
L 377.674875 -403.961818 
L 376.462326 -403.961818 
L 375.249777 -403.961818 
L 374.037228 -403.961818 
L 372.824679 -403.961818 
L 371.61213 -403.961818 
L 370.399581 -403.961818 
L 369.187032 -403.961818 
L 367.974483 -403.961818 
L 366.761934 -403.961818 
L 365.549385 -403.961818 
L 364.336836 -403.961818 
L 363.124287 -403.961818 
L 361.911738 -403.961818 
L 360.69919 -403.961818 
L 359.486641 -403.961818 
L 358.274092 -403.961818 
L 357.061543 -403.961818 
L 355.848994 -403.961818 
L 354.636445 -403.961818 
L 353.423896 -403.961818 
L 352.211347 -403.961818 
L 350.998798 -403.961818 
L 349.786249 -403.961818 
L 348.5737 -403.961818 
L 347.361151 -403.961818 
L 346.148602 -403.961818 
L 344.936053 -403.961818 
L 343.723504 -403.961818 
L 342.510956 -403.961818 
L 341.298407 -403.961818 
L 340.085858 -403.961818 
L 338.873309 -403.961818 
L 337.66076 -403.961818 
L 336.448211 -403.961818 
L 335.235662 -403.961818 
L 334.023113 -403.961818 
L 332.810564 -403.961818 
L 331.598015 -403.961818 
L 330.385466 -403.961818 
L 329.172917 -403.961818 
L 327.960368 -403.961818 
L 326.747819 -403.961818 
L 325.53527 -403.961818 
L 324.322722 -403.961818 
L 323.110173 -403.961818 
L 321.897624 -403.961818 
L 320.685075 -403.961818 
L 319.472526 -403.961818 
L 318.259977 -403.961818 
L 317.047428 -403.961818 
L 315.834879 -403.961818 
L 314.62233 -403.961818 
L 313.409781 -403.961818 
L 312.197232 -403.961818 
L 310.984683 -403.961818 
L 309.772134 -403.961818 
L 308.559585 -403.961818 
L 307.347037 -403.961818 
L 306.134488 -403.961818 
L 304.921939 -403.961818 
L 303.70939 -403.961818 
L 302.496841 -403.961818 
L 301.284292 -403.961818 
L 300.071743 -403.961818 
L 298.859194 -403.961818 
L 297.646645 -403.961818 
L 296.434096 -403.961818 
L 295.221547 -403.961818 
L 294.008998 -403.961818 
L 292.796449 -403.961818 
L 291.5839 -403.961818 
L 290.371351 -403.961818 
L 289.158803 -403.961818 
L 287.946254 -403.961818 
L 286.733705 -403.961818 
L 285.521156 -403.961818 
L 284.308607 -403.961818 
L 283.096058 -403.961818 
L 281.883509 -403.961818 
L 280.67096 -403.961818 
L 279.458411 -403.961818 
L 278.245862 -403.961818 
L 277.033313 -403.961818 
L 275.820764 -403.961818 
L 274.608215 -403.961818 
L 273.395666 -403.961818 
L 272.183117 -403.961818 
L 270.970569 -403.961818 
L 269.75802 -403.961818 
L 268.545471 -403.961818 
L 267.332922 -403.961818 
L 266.120373 -403.961818 
L 264.907824 -403.961818 
L 263.695275 -403.961818 
L 262.482726 -403.961818 
L 261.270177 -403.961818 
L 260.057628 -403.961818 
L 258.845079 -403.961818 
L 257.63253 -403.961818 
L 256.419981 -403.961818 
L 255.207432 -403.961818 
L 253.994884 -403.961818 
L 252.782335 -403.961818 
L 251.569786 -403.961818 
L 250.357237 -403.961818 
L 249.144688 -403.961818 
L 247.932139 -403.961818 
L 246.71959 -403.961818 
L 245.507041 -403.961818 
L 244.294492 -403.961818 
L 243.081943 -403.961818 
L 241.869394 -403.961818 
L 240.656845 -403.961818 
L 239.444296 -403.961818 
L 238.231747 -403.961818 
L 237.013136 -403.961818 
L 235.800587 -403.961818 
L 234.588038 -403.961818 
L 233.375489 -403.961818 
L 232.16294 -403.961818 
L 230.950391 -403.961818 
L 229.737842 -403.961818 
L 228.525293 -403.961818 
L 227.312744 -403.961818 
L 226.100195 -403.961818 
L 224.887646 -403.961818 
L 223.675097 -403.961818 
L 222.462549 -403.961818 
L 221.25 -403.961818 
L 220.037451 -403.961818 
L 218.824902 -403.961818 
L 217.612353 -403.961818 
L 216.399804 -403.961818 
L 215.187255 -403.961818 
L 213.974706 -403.961818 
L 212.762157 -403.961818 
L 211.549608 -403.961818 
L 210.337059 -403.961818 
L 209.12451 -403.961818 
L 207.911961 -403.961818 
L 206.699412 -403.961818 
L 205.486863 -403.961818 
L 204.274315 -403.961818 
L 203.061766 -403.961818 
L 201.849217 -403.961818 
L 200.636668 -403.961818 
L 199.424119 -403.961818 
L 198.21157 -403.961818 
L 196.999021 -403.961818 
L 195.786472 -403.961818 
L 194.573923 -403.961818 
L 193.361374 -403.961818 
L 192.148825 -403.961818 
L 190.936276 -403.961818 
L 189.723727 -403.961818 
L 188.511178 -403.961818 
L 187.29863 -403.961818 
L 186.086081 -403.961818 
L 184.873532 -403.961818 
L 183.660983 -403.961818 
L 182.448434 -403.961818 
L 181.235885 -403.961818 
L 180.023336 -403.961818 
L 178.810787 -403.961818 
L 177.598238 -403.961818 
L 176.385689 -403.961818 
L 175.17314 -403.961818 
L 173.960591 -403.961818 
L 172.748042 -403.961818 
L 171.535493 -403.961818 
L 170.322944 -403.961818 
L 169.110396 -403.961818 
L 167.891784 -403.961818 
L 166.679235 -403.961818 
L 165.466686 -403.961818 
L 164.254137 -403.961818 
L 163.041588 -403.961818 
L 161.829039 -403.961818 
L 160.61649 -403.961818 
L 159.403941 -403.961818 
L 158.191392 -403.961818 
L 156.972781 -403.961818 
L 155.760232 -403.961818 
L 154.547683 -403.961818 
L 153.335134 -403.961818 
L 152.122585 -403.961818 
L 150.903973 -403.961818 
L 149.691424 -403.961818 
L 148.472813 -403.961818 
L 147.260264 -403.961818 
L 146.047715 -403.961818 
L 144.835166 -403.961818 
L 143.616554 -403.961818 
L 142.404005 -403.961818 
L 141.191456 -403.961818 
L 139.978907 -403.961818 
L 138.766359 -403.961818 
L 137.55381 -403.961818 
L 136.341261 -403.961818 
L 135.128712 -403.961818 
L 133.916163 -403.961818 
L 132.703614 -403.961818 
L 131.491065 -403.961818 
L 130.278516 -403.961818 
L 129.065967 -403.961818 
L 127.853418 -403.961818 
L 126.640869 -403.961818 
L 125.42832 -403.961818 
L 124.215771 -403.961818 
L 123.003222 -403.961818 
L 121.790673 -403.961818 
L 120.578125 -403.961818 
L 119.365576 -403.961818 
L 118.153027 -403.961818 
L 116.940478 -403.961818 
L 115.727929 -403.961818 
L 114.51538 -403.961818 
L 113.296768 -403.961818 
L 112.084219 -403.961818 
L 110.865608 -403.961818 
L 109.653059 -403.961818 
L 108.44051 -403.961818 
L 107.227961 -403.961818 
L 106.015412 -403.961818 
L 104.790737 -403.961818 
L 103.578189 -403.961818 
L 102.359577 -403.961818 
L 101.140965 -403.961818 
L 99.916291 -403.961818 
L 98.703742 -403.961818 
L 97.473005 -403.961818 
L 96.218016 -403.961818 
L 94.94484 -403.961818 
L 93.647413 -403.961818 
L 92.252981 -403.961818 
L 90.694856 -403.961818 
L 88.979099 -403.961818 
L 86.911703 -403.961818 
L 84.535108 -403.961818 
L 81.564363 -403.961818 
L 77.8479 -360.356607 
z
" style="stroke: #0000ff; stroke-opacity: 0.2"/>
    </defs>
    <g clip-path="url(#p188da29cb8)">
     <use xlink:href="#m6f96affdf0" x="0" y="432" style="fill: #0000ff; fill-opacity: 0.2; stroke: #0000ff; stroke-opacity: 0.2"/>
    </g>
   </g>
   <g id="FillBetweenPolyCollection_2">
    <defs>
     <path id="m88a51657c5" d="M 77.787273 -352.692081 
L 77.787273 -81.658668 
L 81.873563 -66.316246 
L 85.729468 -84.04275 
L 89.912762 -74.97044 
L 93.798981 -78.345432 
L 97.703389 -76.134217 
L 101.916996 -68.467568 
L 106.051788 -91.45363 
L 110.289647 -70.944082 
L 114.321372 -62.161602 
L 118.462227 -91.964501 
L 122.639458 -73.880191 
L 126.810626 -82.609539 
L 131.024234 -84.187276 
L 135.037771 -76.069766 
L 139.36657 -77.732997 
L 143.471048 -75.827951 
L 147.508836 -66.600964 
L 151.425369 -95.325353 
L 155.487408 -75.216643 
L 159.507008 -102.075617 
L 163.490231 -63.496761 
L 167.625023 -66.609573 
L 171.590058 -86.984028 
L 175.603595 -74.410587 
L 179.920269 -76.550779 
L 184.170253 -83.980823 
L 188.286857 -75.318839 
L 192.730849 -67.312925 
L 196.871703 -82.052288 
L 201.06106 -78.656815 
L 205.220103 -92.417145 
L 209.263953 -100.248324 
L 213.404808 -67.045848 
L 217.569914 -77.651391 
L 221.565262 -78.113603 
L 225.772807 -66.116955 
L 229.743905 -86.708264 
L 233.90901 -69.871626 
L 237.9953 -85.919157 
L 242.0149 -68.735611 
L 246.192131 -71.929597 
L 250.290547 -84.265472 
L 254.619346 -73.711882 
L 258.711699 -80.911888 
L 262.731299 -77.918793 
L 266.678145 -74.139761 
L 270.806874 -85.951386 
L 275.244804 -82.783801 
L 279.203776 -86.672855 
L 283.374944 -78.668218 
L 287.212662 -71.288567 
L 291.2747 -75.624949 
L 295.476182 -75.967421 
L 299.720104 -72.057592 
L 303.9519 -76.305329 
L 307.959374 -91.268089 
L 312.075977 -86.001494 
L 316.180455 -71.796506 
L 320.206118 -72.854749 
L 324.34091 -81.221153 
L 328.25138 -91.589419 
L 332.446799 -76.60241 
L 336.478525 -78.719651 
L 340.740634 -78.90668 
L 345.014869 -88.502887 
L 349.198163 -78.353664 
L 353.387519 -92.082582 
L 357.528374 -62.495343 
L 361.669229 -76.610041 
L 366.08897 -67.207617 
L 370.096444 -81.362123 
L 374.231236 -84.649209 
L 378.184145 -74.386839 
L 382.264372 -88.183858 
L 386.508294 -79.331417 
L 390.624897 -97.287569 
L 394.753626 -75.109657 
L 398.882355 -76.950674 
L 403.338473 -102.771998 
L 407.55208 -72.523017 
L 411.686872 -72.556622 
L 415.718597 -80.651733 
L 420.041334 -74.893763 
L 423.976056 -95.916182 
L 428.062345 -88.680272 
L 432.003129 -68.54055 
L 436.137921 -82.975214 
L 440.163584 -86.009217 
L 444.334752 -99.793454 
L 448.342226 -70.735017 
L 452.664963 -86.702295 
L 456.975575 -74.500747 
L 461.164931 -72.537111 
L 465.117841 -82.894085 
L 469.416327 -77.74355 
L 473.217668 -63.47063 
L 477.073573 -69.399895 
L 481.026483 -77.773947 
L 485.343157 -107.575424 
L 489.332443 -80.93822 
L 493.473298 -67.971631 
L 497.553525 -84.111979 
L 501.682254 -84.898596 
L 506.071681 -88.423032 
L 509.933649 -87.713889 
L 514.11088 -81.471554 
L 518.154731 -94.335527 
L 522.077327 -104.884296 
L 526.115115 -83.364991 
L 530.262032 -77.536892 
L 534.706024 -70.089297 
L 538.956008 -90.456367 
L 543.236306 -86.901096 
L 547.298345 -74.296084 
L 551.39676 -90.508466 
L 555.713434 -68.496023 
L 560.102861 -69.111831 
L 564.255841 -61.978677 
L 568.475512 -78.281946 
L 572.604241 -74.808971 
L 577.127048 -73.596657 
L 581.267903 -77.673326 
L 585.123809 -73.659846 
L 589.343479 -77.953153 
L 593.393392 -83.506091 
L 597.419055 -69.129243 
L 601.620537 -73.959991 
L 605.597697 -77.8463 
L 609.696113 -65.150977 
L 613.897595 -84.865794 
L 618.002073 -92.208599 
L 622.167178 -90.78224 
L 626.095837 -64.734216 
L 630.25488 -65.209823 
L 634.250229 -84.146913 
L 638.300142 -76.270994 
L 642.550126 -71.176371 
L 646.703106 -67.721401 
L 650.649953 -90.079866 
L 654.802933 -73.089012 
L 658.846784 -78.068128 
L 662.654187 -89.195645 
L 666.788979 -72.311152 
L 670.89952 -71.992944 
L 675.101002 -59.198182 
L 679.132727 -81.34285 
L 679.132727 -325.139377 
L 679.132727 -325.139377 
L 675.101002 -345.684342 
L 670.89952 -343.49814 
L 666.788979 -351.936204 
L 662.654187 -344.481544 
L 658.846784 -330.771557 
L 654.802933 -353.094828 
L 650.649953 -349.827747 
L 646.703106 -347.685489 
L 642.550126 -344.314713 
L 638.300142 -344.524371 
L 634.250229 -354.413581 
L 630.25488 -345.397955 
L 626.095837 -340.485087 
L 622.167178 -351.398636 
L 618.002073 -337.258843 
L 613.897595 -352.600166 
L 609.696113 -331.985614 
L 605.597697 -345.980083 
L 601.620537 -340.09978 
L 597.419055 -335.416502 
L 593.393392 -352.107581 
L 589.343479 -321.372505 
L 585.123809 -349.324587 
L 581.267903 -343.206234 
L 577.127048 -332.88557 
L 572.604241 -338.493045 
L 568.475512 -344.197318 
L 564.255841 -354.775332 
L 560.102861 -349.241881 
L 555.713434 -347.752815 
L 551.39676 -350.577877 
L 547.298345 -340.268857 
L 543.236306 -352.753932 
L 538.956008 -349.872222 
L 534.706024 -331.172845 
L 530.262032 -342.248134 
L 526.115115 -330.357999 
L 522.077327 -362.976034 
L 518.154731 -364.09497 
L 514.11088 -354.731483 
L 509.933649 -344.111011 
L 506.071681 -340.37085 
L 501.682254 -362.670757 
L 497.553525 -345.776439 
L 493.473298 -328.659791 
L 489.332443 -343.645917 
L 485.343157 -351.023463 
L 481.026483 -345.463071 
L 477.073573 -334.388094 
L 473.217668 -340.14897 
L 469.416327 -334.884907 
L 465.117841 -366.695944 
L 461.164931 -338.154863 
L 456.975575 -329.455633 
L 452.664963 -343.017731 
L 448.342226 -342.146025 
L 444.334752 -368.740434 
L 440.163584 -364.085982 
L 436.137921 -346.829007 
L 432.003129 -344.677271 
L 428.062345 -338.682296 
L 423.976056 -346.264694 
L 420.041334 -346.069992 
L 415.718597 -336.523251 
L 411.686872 -346.386455 
L 407.55208 -338.505736 
L 403.338473 -347.575787 
L 398.882355 -345.865368 
L 394.753626 -350.063844 
L 390.624897 -349.692418 
L 386.508294 -353.503822 
L 382.264372 -340.104857 
L 378.184145 -334.789625 
L 374.231236 -341.450437 
L 370.096444 -344.232353 
L 366.08897 -341.463678 
L 361.669229 -342.75401 
L 357.528374 -341.040062 
L 353.387519 -351.782193 
L 349.198163 -346.567252 
L 345.014869 -342.985234 
L 340.740634 -330.35398 
L 336.478525 -334.750756 
L 332.446799 -337.457361 
L 328.25138 -364.231036 
L 324.34091 -344.710102 
L 320.206118 -351.224219 
L 316.180455 -338.306104 
L 312.075977 -326.458573 
L 307.959374 -345.440117 
L 303.9519 -355.266987 
L 299.720104 -334.256246 
L 295.476182 -357.372988 
L 291.2747 -347.612068 
L 287.212662 -336.456584 
L 283.374944 -333.11829 
L 279.203776 -344.562681 
L 275.244804 -346.178473 
L 270.806874 -357.07144 
L 266.678145 -344.129756 
L 262.731299 -346.412758 
L 258.711699 -344.345808 
L 254.619346 -331.086448 
L 250.290547 -334.004045 
L 246.192131 -342.635343 
L 242.0149 -347.681617 
L 237.9953 -335.128792 
L 233.90901 -336.021236 
L 229.743905 -365.070834 
L 225.772807 -342.638535 
L 221.565262 -348.154431 
L 217.569914 -342.470415 
L 213.404808 -343.982906 
L 209.263953 -353.383062 
L 205.220103 -340.16551 
L 201.06106 -330.772234 
L 196.871703 -329.144855 
L 192.730849 -339.674473 
L 188.286857 -336.888642 
L 184.170253 -347.844077 
L 179.920269 -354.684756 
L 175.603595 -345.121854 
L 171.590058 -340.378541 
L 167.625023 -343.072061 
L 163.490231 -352.752078 
L 159.507008 -352.734498 
L 155.487408 -339.769271 
L 151.425369 -365.799383 
L 147.508836 -346.616858 
L 143.471048 -349.261354 
L 139.36657 -356.786141 
L 135.037771 -317.867417 
L 131.024234 -336.102919 
L 126.810626 -342.732352 
L 122.639458 -342.537037 
L 118.462227 -333.966754 
L 114.321372 -332.701725 
L 110.289647 -342.77891 
L 106.051788 -339.529321 
L 101.916996 -344.834448 
L 97.703389 -338.935893 
L 93.798981 -345.901925 
L 89.912762 -333.78505 
L 85.729468 -332.290284 
L 81.873563 -348.838058 
L 77.787273 -352.692081 
z
" style="stroke: #ffa500; stroke-opacity: 0.2"/>
    </defs>
    <g clip-path="url(#p188da29cb8)">
     <use xlink:href="#m88a51657c5" x="0" y="432" style="fill: #ffa500; fill-opacity: 0.2; stroke: #ffa500; stroke-opacity: 0.2"/>
    </g>
   </g>
   <g id="matplotlib.axis_1">
    <g id="xtick_1">
     <g id="line2d_1">
      <path d="M 75.756253 390.04 
L 75.756253 10.8 
" clip-path="url(#p188da29cb8)" style="fill: none; stroke: #b0b0b0; stroke-width: 0.8; stroke-linecap: square"/>
     </g>
     <g id="line2d_2">
      <defs>
       <path id="m6642dc5be6" d="M 0 0 
L 0 3.5 
" style="stroke: #000000; stroke-width: 0.8"/>
      </defs>
      <g>
       <use xlink:href="#m6642dc5be6" x="75.756253" y="390.04" style="stroke: #000000; stroke-width: 0.8"/>
      </g>
     </g>
     <g id="text_1">
      <!-- 0 -->
      <g transform="translate(72.575003 404.638438) scale(0.1 -0.1)">
       <defs>
        <path id="DejaVuSans-30" d="M 2034 4250 
Q 1547 4250 1301 3770 
Q 1056 3291 1056 2328 
Q 1056 1369 1301 889 
Q 1547 409 2034 409 
Q 2525 409 2770 889 
Q 3016 1369 3016 2328 
Q 3016 3291 2770 3770 
Q 2525 4250 2034 4250 
z
M 2034 4750 
Q 2819 4750 3233 4129 
Q 3647 3509 3647 2328 
Q 3647 1150 3233 529 
Q 2819 -91 2034 -91 
Q 1250 -91 836 529 
Q 422 1150 422 2328 
Q 422 3509 836 4129 
Q 1250 4750 2034 4750 
z
" transform="scale(0.015625)"/>
       </defs>
       <use xlink:href="#DejaVuSans-30"/>
      </g>
     </g>
    </g>
    <g id="xtick_2">
     <g id="line2d_3">
      <path d="M 197.011146 390.04 
L 197.011146 10.8 
" clip-path="url(#p188da29cb8)" style="fill: none; stroke: #b0b0b0; stroke-width: 0.8; stroke-linecap: square"/>
     </g>
     <g id="line2d_4">
      <g>
       <use xlink:href="#m6642dc5be6" x="197.011146" y="390.04" style="stroke: #000000; stroke-width: 0.8"/>
      </g>
     </g>
     <g id="text_2">
      <!-- 20000 -->
      <g transform="translate(181.104896 404.638438) scale(0.1 -0.1)">
       <defs>
        <path id="DejaVuSans-32" d="M 1228 531 
L 3431 531 
L 3431 0 
L 469 0 
L 469 531 
Q 828 903 1448 1529 
Q 2069 2156 2228 2338 
Q 2531 2678 2651 2914 
Q 2772 3150 2772 3378 
Q 2772 3750 2511 3984 
Q 2250 4219 1831 4219 
Q 1534 4219 1204 4116 
Q 875 4013 500 3803 
L 500 4441 
Q 881 4594 1212 4672 
Q 1544 4750 1819 4750 
Q 2544 4750 2975 4387 
Q 3406 4025 3406 3419 
Q 3406 3131 3298 2873 
Q 3191 2616 2906 2266 
Q 2828 2175 2409 1742 
Q 1991 1309 1228 531 
z
" transform="scale(0.015625)"/>
       </defs>
       <use xlink:href="#DejaVuSans-32"/>
       <use xlink:href="#DejaVuSans-30" transform="translate(63.623047 0)"/>
       <use xlink:href="#DejaVuSans-30" transform="translate(127.246094 0)"/>
       <use xlink:href="#DejaVuSans-30" transform="translate(190.869141 0)"/>
       <use xlink:href="#DejaVuSans-30" transform="translate(254.492188 0)"/>
      </g>
     </g>
    </g>
    <g id="xtick_3">
     <g id="line2d_5">
      <path d="M 318.26604 390.04 
L 318.26604 10.8 
" clip-path="url(#p188da29cb8)" style="fill: none; stroke: #b0b0b0; stroke-width: 0.8; stroke-linecap: square"/>
     </g>
     <g id="line2d_6">
      <g>
       <use xlink:href="#m6642dc5be6" x="318.26604" y="390.04" style="stroke: #000000; stroke-width: 0.8"/>
      </g>
     </g>
     <g id="text_3">
      <!-- 40000 -->
      <g transform="translate(302.35979 404.638438) scale(0.1 -0.1)">
       <defs>
        <path id="DejaVuSans-34" d="M 2419 4116 
L 825 1625 
L 2419 1625 
L 2419 4116 
z
M 2253 4666 
L 3047 4666 
L 3047 1625 
L 3713 1625 
L 3713 1100 
L 3047 1100 
L 3047 0 
L 2419 0 
L 2419 1100 
L 313 1100 
L 313 1709 
L 2253 4666 
z
" transform="scale(0.015625)"/>
       </defs>
       <use xlink:href="#DejaVuSans-34"/>
       <use xlink:href="#DejaVuSans-30" transform="translate(63.623047 0)"/>
       <use xlink:href="#DejaVuSans-30" transform="translate(127.246094 0)"/>
       <use xlink:href="#DejaVuSans-30" transform="translate(190.869141 0)"/>
       <use xlink:href="#DejaVuSans-30" transform="translate(254.492188 0)"/>
      </g>
     </g>
    </g>
    <g id="xtick_4">
     <g id="line2d_7">
      <path d="M 439.520933 390.04 
L 439.520933 10.8 
" clip-path="url(#p188da29cb8)" style="fill: none; stroke: #b0b0b0; stroke-width: 0.8; stroke-linecap: square"/>
     </g>
     <g id="line2d_8">
      <g>
       <use xlink:href="#m6642dc5be6" x="439.520933" y="390.04" style="stroke: #000000; stroke-width: 0.8"/>
      </g>
     </g>
     <g id="text_4">
      <!-- 60000 -->
      <g transform="translate(423.614683 404.638438) scale(0.1 -0.1)">
       <defs>
        <path id="DejaVuSans-36" d="M 2113 2584 
Q 1688 2584 1439 2293 
Q 1191 2003 1191 1497 
Q 1191 994 1439 701 
Q 1688 409 2113 409 
Q 2538 409 2786 701 
Q 3034 994 3034 1497 
Q 3034 2003 2786 2293 
Q 2538 2584 2113 2584 
z
M 3366 4563 
L 3366 3988 
Q 3128 4100 2886 4159 
Q 2644 4219 2406 4219 
Q 1781 4219 1451 3797 
Q 1122 3375 1075 2522 
Q 1259 2794 1537 2939 
Q 1816 3084 2150 3084 
Q 2853 3084 3261 2657 
Q 3669 2231 3669 1497 
Q 3669 778 3244 343 
Q 2819 -91 2113 -91 
Q 1303 -91 875 529 
Q 447 1150 447 2328 
Q 447 3434 972 4092 
Q 1497 4750 2381 4750 
Q 2619 4750 2861 4703 
Q 3103 4656 3366 4563 
z
" transform="scale(0.015625)"/>
       </defs>
       <use xlink:href="#DejaVuSans-36"/>
       <use xlink:href="#DejaVuSans-30" transform="translate(63.623047 0)"/>
       <use xlink:href="#DejaVuSans-30" transform="translate(127.246094 0)"/>
       <use xlink:href="#DejaVuSans-30" transform="translate(190.869141 0)"/>
       <use xlink:href="#DejaVuSans-30" transform="translate(254.492188 0)"/>
      </g>
     </g>
    </g>
    <g id="xtick_5">
     <g id="line2d_9">
      <path d="M 560.775826 390.04 
L 560.775826 10.8 
" clip-path="url(#p188da29cb8)" style="fill: none; stroke: #b0b0b0; stroke-width: 0.8; stroke-linecap: square"/>
     </g>
     <g id="line2d_10">
      <g>
       <use xlink:href="#m6642dc5be6" x="560.775826" y="390.04" style="stroke: #000000; stroke-width: 0.8"/>
      </g>
     </g>
     <g id="text_5">
      <!-- 80000 -->
      <g transform="translate(544.869576 404.638438) scale(0.1 -0.1)">
       <defs>
        <path id="DejaVuSans-38" d="M 2034 2216 
Q 1584 2216 1326 1975 
Q 1069 1734 1069 1313 
Q 1069 891 1326 650 
Q 1584 409 2034 409 
Q 2484 409 2743 651 
Q 3003 894 3003 1313 
Q 3003 1734 2745 1975 
Q 2488 2216 2034 2216 
z
M 1403 2484 
Q 997 2584 770 2862 
Q 544 3141 544 3541 
Q 544 4100 942 4425 
Q 1341 4750 2034 4750 
Q 2731 4750 3128 4425 
Q 3525 4100 3525 3541 
Q 3525 3141 3298 2862 
Q 3072 2584 2669 2484 
Q 3125 2378 3379 2068 
Q 3634 1759 3634 1313 
Q 3634 634 3220 271 
Q 2806 -91 2034 -91 
Q 1263 -91 848 271 
Q 434 634 434 1313 
Q 434 1759 690 2068 
Q 947 2378 1403 2484 
z
M 1172 3481 
Q 1172 3119 1398 2916 
Q 1625 2713 2034 2713 
Q 2441 2713 2670 2916 
Q 2900 3119 2900 3481 
Q 2900 3844 2670 4047 
Q 2441 4250 2034 4250 
Q 1625 4250 1398 4047 
Q 1172 3844 1172 3481 
z
" transform="scale(0.015625)"/>
       </defs>
       <use xlink:href="#DejaVuSans-38"/>
       <use xlink:href="#DejaVuSans-30" transform="translate(63.623047 0)"/>
       <use xlink:href="#DejaVuSans-30" transform="translate(127.246094 0)"/>
       <use xlink:href="#DejaVuSans-30" transform="translate(190.869141 0)"/>
       <use xlink:href="#DejaVuSans-30" transform="translate(254.492188 0)"/>
      </g>
     </g>
    </g>
    <g id="xtick_6">
     <g id="line2d_11">
      <path d="M 682.030719 390.04 
L 682.030719 10.8 
" clip-path="url(#p188da29cb8)" style="fill: none; stroke: #b0b0b0; stroke-width: 0.8; stroke-linecap: square"/>
     </g>
     <g id="line2d_12">
      <g>
       <use xlink:href="#m6642dc5be6" x="682.030719" y="390.04" style="stroke: #000000; stroke-width: 0.8"/>
      </g>
     </g>
     <g id="text_6">
      <!-- 100000 -->
      <g transform="translate(662.943219 404.638438) scale(0.1 -0.1)">
       <defs>
        <path id="DejaVuSans-31" d="M 794 531 
L 1825 531 
L 1825 4091 
L 703 3866 
L 703 4441 
L 1819 4666 
L 2450 4666 
L 2450 531 
L 3481 531 
L 3481 0 
L 794 0 
L 794 531 
z
" transform="scale(0.015625)"/>
       </defs>
       <use xlink:href="#DejaVuSans-31"/>
       <use xlink:href="#DejaVuSans-30" transform="translate(63.623047 0)"/>
       <use xlink:href="#DejaVuSans-30" transform="translate(127.246094 0)"/>
       <use xlink:href="#DejaVuSans-30" transform="translate(190.869141 0)"/>
       <use xlink:href="#DejaVuSans-30" transform="translate(254.492188 0)"/>
       <use xlink:href="#DejaVuSans-30" transform="translate(318.115234 0)"/>
      </g>
     </g>
    </g>
    <g id="text_7">
     <!-- Steps -->
     <g transform="translate(364.470156 418.316562) scale(0.1 -0.1)">
      <defs>
       <path id="DejaVuSans-53" d="M 3425 4513 
L 3425 3897 
Q 3066 4069 2747 4153 
Q 2428 4238 2131 4238 
Q 1616 4238 1336 4038 
Q 1056 3838 1056 3469 
Q 1056 3159 1242 3001 
Q 1428 2844 1947 2747 
L 2328 2669 
Q 3034 2534 3370 2195 
Q 3706 1856 3706 1288 
Q 3706 609 3251 259 
Q 2797 -91 1919 -91 
Q 1588 -91 1214 -16 
Q 841 59 441 206 
L 441 856 
Q 825 641 1194 531 
Q 1563 422 1919 422 
Q 2459 422 2753 634 
Q 3047 847 3047 1241 
Q 3047 1584 2836 1778 
Q 2625 1972 2144 2069 
L 1759 2144 
Q 1053 2284 737 2584 
Q 422 2884 422 3419 
Q 422 4038 858 4394 
Q 1294 4750 2059 4750 
Q 2388 4750 2728 4690 
Q 3069 4631 3425 4513 
z
" transform="scale(0.015625)"/>
       <path id="DejaVuSans-74" d="M 1172 4494 
L 1172 3500 
L 2356 3500 
L 2356 3053 
L 1172 3053 
L 1172 1153 
Q 1172 725 1289 603 
Q 1406 481 1766 481 
L 2356 481 
L 2356 0 
L 1766 0 
Q 1100 0 847 248 
Q 594 497 594 1153 
L 594 3053 
L 172 3053 
L 172 3500 
L 594 3500 
L 594 4494 
L 1172 4494 
z
" transform="scale(0.015625)"/>
       <path id="DejaVuSans-65" d="M 3597 1894 
L 3597 1613 
L 953 1613 
Q 991 1019 1311 708 
Q 1631 397 2203 397 
Q 2534 397 2845 478 
Q 3156 559 3463 722 
L 3463 178 
Q 3153 47 2828 -22 
Q 2503 -91 2169 -91 
Q 1331 -91 842 396 
Q 353 884 353 1716 
Q 353 2575 817 3079 
Q 1281 3584 2069 3584 
Q 2775 3584 3186 3129 
Q 3597 2675 3597 1894 
z
M 3022 2063 
Q 3016 2534 2758 2815 
Q 2500 3097 2075 3097 
Q 1594 3097 1305 2825 
Q 1016 2553 972 2059 
L 3022 2063 
z
" transform="scale(0.015625)"/>
       <path id="DejaVuSans-70" d="M 1159 525 
L 1159 -1331 
L 581 -1331 
L 581 3500 
L 1159 3500 
L 1159 2969 
Q 1341 3281 1617 3432 
Q 1894 3584 2278 3584 
Q 2916 3584 3314 3078 
Q 3713 2572 3713 1747 
Q 3713 922 3314 415 
Q 2916 -91 2278 -91 
Q 1894 -91 1617 61 
Q 1341 213 1159 525 
z
M 3116 1747 
Q 3116 2381 2855 2742 
Q 2594 3103 2138 3103 
Q 1681 3103 1420 2742 
Q 1159 2381 1159 1747 
Q 1159 1113 1420 752 
Q 1681 391 2138 391 
Q 2594 391 2855 752 
Q 3116 1113 3116 1747 
z
" transform="scale(0.015625)"/>
       <path id="DejaVuSans-73" d="M 2834 3397 
L 2834 2853 
Q 2591 2978 2328 3040 
Q 2066 3103 1784 3103 
Q 1356 3103 1142 2972 
Q 928 2841 928 2578 
Q 928 2378 1081 2264 
Q 1234 2150 1697 2047 
L 1894 2003 
Q 2506 1872 2764 1633 
Q 3022 1394 3022 966 
Q 3022 478 2636 193 
Q 2250 -91 1575 -91 
Q 1294 -91 989 -36 
Q 684 19 347 128 
L 347 722 
Q 666 556 975 473 
Q 1284 391 1588 391 
Q 1994 391 2212 530 
Q 2431 669 2431 922 
Q 2431 1156 2273 1281 
Q 2116 1406 1581 1522 
L 1381 1569 
Q 847 1681 609 1914 
Q 372 2147 372 2553 
Q 372 3047 722 3315 
Q 1072 3584 1716 3584 
Q 2034 3584 2315 3537 
Q 2597 3491 2834 3397 
z
" transform="scale(0.015625)"/>
      </defs>
      <use xlink:href="#DejaVuSans-53"/>
      <use xlink:href="#DejaVuSans-74" transform="translate(63.476562 0)"/>
      <use xlink:href="#DejaVuSans-65" transform="translate(102.685547 0)"/>
      <use xlink:href="#DejaVuSans-70" transform="translate(164.208984 0)"/>
      <use xlink:href="#DejaVuSans-73" transform="translate(227.685547 0)"/>
     </g>
    </g>
   </g>
   <g id="matplotlib.axis_2">
    <g id="ytick_1">
     <g id="line2d_13">
      <path d="M 47.72 331.139919 
L 709.2 331.139919 
" clip-path="url(#p188da29cb8)" style="fill: none; stroke: #b0b0b0; stroke-width: 0.8; stroke-linecap: square"/>
     </g>
     <g id="line2d_14">
      <defs>
       <path id="mc74da5706d" d="M 0 0 
L -3.5 0 
" style="stroke: #000000; stroke-width: 0.8"/>
      </defs>
      <g>
       <use xlink:href="#mc74da5706d" x="47.72" y="331.139919" style="stroke: #000000; stroke-width: 0.8"/>
      </g>
     </g>
     <g id="text_8">
      <!-- 0.6 -->
      <g transform="translate(24.816875 334.939138) scale(0.1 -0.1)">
       <defs>
        <path id="DejaVuSans-2e" d="M 684 794 
L 1344 794 
L 1344 0 
L 684 0 
L 684 794 
z
" transform="scale(0.015625)"/>
       </defs>
       <use xlink:href="#DejaVuSans-30"/>
       <use xlink:href="#DejaVuSans-2e" transform="translate(63.623047 0)"/>
       <use xlink:href="#DejaVuSans-36" transform="translate(95.410156 0)"/>
      </g>
     </g>
    </g>
    <g id="ytick_2">
     <g id="line2d_15">
      <path d="M 47.72 255.364485 
L 709.2 255.364485 
" clip-path="url(#p188da29cb8)" style="fill: none; stroke: #b0b0b0; stroke-width: 0.8; stroke-linecap: square"/>
     </g>
     <g id="line2d_16">
      <g>
       <use xlink:href="#mc74da5706d" x="47.72" y="255.364485" style="stroke: #000000; stroke-width: 0.8"/>
      </g>
     </g>
     <g id="text_9">
      <!-- 0.7 -->
      <g transform="translate(24.816875 259.163704) scale(0.1 -0.1)">
       <defs>
        <path id="DejaVuSans-37" d="M 525 4666 
L 3525 4666 
L 3525 4397 
L 1831 0 
L 1172 0 
L 2766 4134 
L 525 4134 
L 525 4666 
z
" transform="scale(0.015625)"/>
       </defs>
       <use xlink:href="#DejaVuSans-30"/>
       <use xlink:href="#DejaVuSans-2e" transform="translate(63.623047 0)"/>
       <use xlink:href="#DejaVuSans-37" transform="translate(95.410156 0)"/>
      </g>
     </g>
    </g>
    <g id="ytick_3">
     <g id="line2d_17">
      <path d="M 47.72 179.589051 
L 709.2 179.589051 
" clip-path="url(#p188da29cb8)" style="fill: none; stroke: #b0b0b0; stroke-width: 0.8; stroke-linecap: square"/>
     </g>
     <g id="line2d_18">
      <g>
       <use xlink:href="#mc74da5706d" x="47.72" y="179.589051" style="stroke: #000000; stroke-width: 0.8"/>
      </g>
     </g>
     <g id="text_10">
      <!-- 0.8 -->
      <g transform="translate(24.816875 183.388269) scale(0.1 -0.1)">
       <use xlink:href="#DejaVuSans-30"/>
       <use xlink:href="#DejaVuSans-2e" transform="translate(63.623047 0)"/>
       <use xlink:href="#DejaVuSans-38" transform="translate(95.410156 0)"/>
      </g>
     </g>
    </g>
    <g id="ytick_4">
     <g id="line2d_19">
      <path d="M 47.72 103.813616 
L 709.2 103.813616 
" clip-path="url(#p188da29cb8)" style="fill: none; stroke: #b0b0b0; stroke-width: 0.8; stroke-linecap: square"/>
     </g>
     <g id="line2d_20">
      <g>
       <use xlink:href="#mc74da5706d" x="47.72" y="103.813616" style="stroke: #000000; stroke-width: 0.8"/>
      </g>
     </g>
     <g id="text_11">
      <!-- 0.9 -->
      <g transform="translate(24.816875 107.612835) scale(0.1 -0.1)">
       <defs>
        <path id="DejaVuSans-39" d="M 703 97 
L 703 672 
Q 941 559 1184 500 
Q 1428 441 1663 441 
Q 2288 441 2617 861 
Q 2947 1281 2994 2138 
Q 2813 1869 2534 1725 
Q 2256 1581 1919 1581 
Q 1219 1581 811 2004 
Q 403 2428 403 3163 
Q 403 3881 828 4315 
Q 1253 4750 1959 4750 
Q 2769 4750 3195 4129 
Q 3622 3509 3622 2328 
Q 3622 1225 3098 567 
Q 2575 -91 1691 -91 
Q 1453 -91 1209 -44 
Q 966 3 703 97 
z
M 1959 2075 
Q 2384 2075 2632 2365 
Q 2881 2656 2881 3163 
Q 2881 3666 2632 3958 
Q 2384 4250 1959 4250 
Q 1534 4250 1286 3958 
Q 1038 3666 1038 3163 
Q 1038 2656 1286 2365 
Q 1534 2075 1959 2075 
z
" transform="scale(0.015625)"/>
       </defs>
       <use xlink:href="#DejaVuSans-30"/>
       <use xlink:href="#DejaVuSans-2e" transform="translate(63.623047 0)"/>
       <use xlink:href="#DejaVuSans-39" transform="translate(95.410156 0)"/>
      </g>
     </g>
    </g>
    <g id="ytick_5">
     <g id="line2d_21">
      <path d="M 47.72 28.038182 
L 709.2 28.038182 
" clip-path="url(#p188da29cb8)" style="fill: none; stroke: #b0b0b0; stroke-width: 0.8; stroke-linecap: square"/>
     </g>
     <g id="line2d_22">
      <g>
       <use xlink:href="#mc74da5706d" x="47.72" y="28.038182" style="stroke: #000000; stroke-width: 0.8"/>
      </g>
     </g>
     <g id="text_12">
      <!-- 1.0 -->
      <g transform="translate(24.816875 31.837401) scale(0.1 -0.1)">
       <use xlink:href="#DejaVuSans-31"/>
       <use xlink:href="#DejaVuSans-2e" transform="translate(63.623047 0)"/>
       <use xlink:href="#DejaVuSans-30" transform="translate(95.410156 0)"/>
      </g>
     </g>
    </g>
    <g id="text_13">
     <!-- Accuracy -->
     <g transform="translate(18.737188 223.248125) rotate(-90) scale(0.1 -0.1)">
      <defs>
       <path id="DejaVuSans-41" d="M 2188 4044 
L 1331 1722 
L 3047 1722 
L 2188 4044 
z
M 1831 4666 
L 2547 4666 
L 4325 0 
L 3669 0 
L 3244 1197 
L 1141 1197 
L 716 0 
L 50 0 
L 1831 4666 
z
" transform="scale(0.015625)"/>
       <path id="DejaVuSans-63" d="M 3122 3366 
L 3122 2828 
Q 2878 2963 2633 3030 
Q 2388 3097 2138 3097 
Q 1578 3097 1268 2742 
Q 959 2388 959 1747 
Q 959 1106 1268 751 
Q 1578 397 2138 397 
Q 2388 397 2633 464 
Q 2878 531 3122 666 
L 3122 134 
Q 2881 22 2623 -34 
Q 2366 -91 2075 -91 
Q 1284 -91 818 406 
Q 353 903 353 1747 
Q 353 2603 823 3093 
Q 1294 3584 2113 3584 
Q 2378 3584 2631 3529 
Q 2884 3475 3122 3366 
z
" transform="scale(0.015625)"/>
       <path id="DejaVuSans-75" d="M 544 1381 
L 544 3500 
L 1119 3500 
L 1119 1403 
Q 1119 906 1312 657 
Q 1506 409 1894 409 
Q 2359 409 2629 706 
Q 2900 1003 2900 1516 
L 2900 3500 
L 3475 3500 
L 3475 0 
L 2900 0 
L 2900 538 
Q 2691 219 2414 64 
Q 2138 -91 1772 -91 
Q 1169 -91 856 284 
Q 544 659 544 1381 
z
M 1991 3584 
L 1991 3584 
z
" transform="scale(0.015625)"/>
       <path id="DejaVuSans-72" d="M 2631 2963 
Q 2534 3019 2420 3045 
Q 2306 3072 2169 3072 
Q 1681 3072 1420 2755 
Q 1159 2438 1159 1844 
L 1159 0 
L 581 0 
L 581 3500 
L 1159 3500 
L 1159 2956 
Q 1341 3275 1631 3429 
Q 1922 3584 2338 3584 
Q 2397 3584 2469 3576 
Q 2541 3569 2628 3553 
L 2631 2963 
z
" transform="scale(0.015625)"/>
       <path id="DejaVuSans-61" d="M 2194 1759 
Q 1497 1759 1228 1600 
Q 959 1441 959 1056 
Q 959 750 1161 570 
Q 1363 391 1709 391 
Q 2188 391 2477 730 
Q 2766 1069 2766 1631 
L 2766 1759 
L 2194 1759 
z
M 3341 1997 
L 3341 0 
L 2766 0 
L 2766 531 
Q 2569 213 2275 61 
Q 1981 -91 1556 -91 
Q 1019 -91 701 211 
Q 384 513 384 1019 
Q 384 1609 779 1909 
Q 1175 2209 1959 2209 
L 2766 2209 
L 2766 2266 
Q 2766 2663 2505 2880 
Q 2244 3097 1772 3097 
Q 1472 3097 1187 3025 
Q 903 2953 641 2809 
L 641 3341 
Q 956 3463 1253 3523 
Q 1550 3584 1831 3584 
Q 2591 3584 2966 3190 
Q 3341 2797 3341 1997 
z
" transform="scale(0.015625)"/>
       <path id="DejaVuSans-79" d="M 2059 -325 
Q 1816 -950 1584 -1140 
Q 1353 -1331 966 -1331 
L 506 -1331 
L 506 -850 
L 844 -850 
Q 1081 -850 1212 -737 
Q 1344 -625 1503 -206 
L 1606 56 
L 191 3500 
L 800 3500 
L 1894 763 
L 2988 3500 
L 3597 3500 
L 2059 -325 
z
" transform="scale(0.015625)"/>
      </defs>
      <use xlink:href="#DejaVuSans-41"/>
      <use xlink:href="#DejaVuSans-63" transform="translate(66.658203 0)"/>
      <use xlink:href="#DejaVuSans-63" transform="translate(121.638672 0)"/>
      <use xlink:href="#DejaVuSans-75" transform="translate(176.619141 0)"/>
      <use xlink:href="#DejaVuSans-72" transform="translate(239.998047 0)"/>
      <use xlink:href="#DejaVuSans-61" transform="translate(281.111328 0)"/>
      <use xlink:href="#DejaVuSans-63" transform="translate(342.390625 0)"/>
      <use xlink:href="#DejaVuSans-79" transform="translate(397.371094 0)"/>
     </g>
    </g>
   </g>
   <g id="line2d_23">
    <path d="M 77.8479 198.322421 
L 81.564363 122.799572 
L 84.535108 68.030772 
L 88.979099 33.089877 
L 90.694856 29.932568 
L 92.252981 28.038182 
L 678.399135 28.038182 
L 678.399135 28.038182 
" clip-path="url(#p188da29cb8)" style="fill: none; stroke: #0000ff; stroke-width: 1.5; stroke-linecap: square"/>
   </g>
   <g id="line2d_24">
    <path d="M 77.787273 214.824626 
L 81.873563 224.422848 
L 85.729468 223.833483 
L 89.912762 227.622255 
L 93.798981 219.876322 
L 97.703389 224.464945 
L 101.916996 225.348992 
L 106.051788 216.508524 
L 110.289647 225.138504 
L 114.321372 234.568337 
L 118.462227 219.034373 
L 122.639458 223.791386 
L 126.810626 219.329055 
L 131.024234 221.854902 
L 135.037771 235.031408 
L 139.36657 214.740431 
L 143.471048 219.455347 
L 147.508836 225.391089 
L 151.425369 201.437632 
L 155.487408 224.507043 
L 159.507008 204.594942 
L 163.490231 223.87558 
L 167.625023 227.159183 
L 171.590058 218.318715 
L 175.603595 222.23378 
L 179.920269 216.382233 
L 184.170253 216.08755 
L 188.286857 225.896259 
L 192.730849 228.506301 
L 196.871703 226.401428 
L 201.06106 227.285476 
L 205.220103 215.708673 
L 209.263953 205.184307 
L 213.404808 226.485623 
L 217.569914 221.939097 
L 221.565262 218.865983 
L 225.772807 227.622255 
L 229.743905 206.110451 
L 233.90901 229.053569 
L 237.9953 221.476025 
L 242.0149 223.791386 
L 246.192131 224.71753 
L 250.290547 222.865242 
L 254.619346 229.600835 
L 258.711699 219.371152 
L 262.731299 219.834224 
L 266.678145 222.865241 
L 270.806874 210.488587 
L 275.244804 217.518863 
L 279.203776 216.382232 
L 283.374944 226.106746 
L 287.212662 228.127424 
L 291.2747 220.381491 
L 295.476182 215.329796 
L 299.720104 228.843081 
L 303.9519 216.213842 
L 307.959374 213.645897 
L 312.075977 225.769966 
L 316.180455 226.948695 
L 320.206118 219.960516 
L 324.34091 219.034373 
L 328.25138 204.089773 
L 332.446799 224.970115 
L 336.478525 225.264797 
L 340.740634 227.36967 
L 345.014869 216.255939 
L 349.198163 219.539542 
L 353.387519 210.067612 
L 357.528374 230.232298 
L 361.669229 222.317974 
L 366.08897 227.664352 
L 370.096444 219.202762 
L 374.231236 218.950177 
L 378.184145 227.411768 
L 382.264372 217.855643 
L 386.508294 215.58238 
L 390.624897 208.510007 
L 394.753626 219.41325 
L 398.882355 220.591979 
L 403.338473 206.826108 
L 407.55208 226.485624 
L 411.686872 222.528462 
L 415.718597 223.412508 
L 420.041334 221.518123 
L 423.976056 210.909562 
L 432.003129 225.391089 
L 436.137921 217.097889 
L 440.163584 206.9524 
L 444.334752 197.733056 
L 448.342226 225.559479 
L 452.664963 217.139987 
L 456.975575 230.02181 
L 461.164931 226.654013 
L 465.117841 207.204985 
L 469.416327 225.685772 
L 473.217668 230.1902 
L 477.073573 230.106005 
L 481.026483 220.381491 
L 485.343157 202.700557 
L 489.332443 219.707931 
L 493.473298 233.684289 
L 497.553525 217.055791 
L 501.682254 208.215323 
L 506.071681 217.603059 
L 509.933649 216.08755 
L 514.11088 213.898482 
L 518.154731 202.784752 
L 522.077327 198.069835 
L 526.115115 225.138505 
L 530.262032 222.107487 
L 534.706024 231.368929 
L 538.956008 211.835706 
L 543.236306 212.172486 
L 547.298345 224.717529 
L 551.39676 211.456829 
L 555.713434 223.875581 
L 560.102861 222.823144 
L 564.255841 223.622996 
L 568.475512 220.760368 
L 572.604241 225.348992 
L 577.127048 228.758886 
L 581.267903 221.56022 
L 585.123809 220.507784 
L 589.343479 232.337171 
L 593.393392 214.193164 
L 597.419055 229.727128 
L 601.620537 224.970114 
L 605.597697 220.086808 
L 609.696113 233.431705 
L 613.897595 213.26702 
L 618.002073 217.266279 
L 622.167178 210.909562 
L 626.095837 229.390348 
L 630.25488 226.696111 
L 634.250229 212.719753 
L 638.300142 221.602317 
L 642.550126 224.254458 
L 646.703106 224.296555 
L 650.649953 212.046193 
L 654.802933 218.90808 
L 658.846784 227.580157 
L 662.654187 215.161406 
L 666.788979 219.876322 
L 670.89952 224.254458 
L 675.101002 229.558738 
L 679.132727 228.758886 
L 679.132727 228.758886 
" clip-path="url(#p188da29cb8)" style="fill: none; stroke: #ffa500; stroke-width: 1.5; stroke-linecap: square"/>
   </g>
   <g id="patch_3">
    <path d="M 47.72 390.04 
L 47.72 10.8 
" style="fill: none; stroke: #000000; stroke-width: 0.8; stroke-linejoin: miter; stroke-linecap: square"/>
   </g>
   <g id="patch_4">
    <path d="M 709.2 390.04 
L 709.2 10.8 
" style="fill: none; stroke: #000000; stroke-width: 0.8; stroke-linejoin: miter; stroke-linecap: square"/>
   </g>
   <g id="patch_5">
    <path d="M 47.72 390.04 
L 709.2 390.04 
" style="fill: none; stroke: #000000; stroke-width: 0.8; stroke-linejoin: miter; stroke-linecap: square"/>
   </g>
   <g id="patch_6">
    <path d="M 47.72 10.8 
L 709.2 10.8 
" style="fill: none; stroke: #000000; stroke-width: 0.8; stroke-linejoin: miter; stroke-linecap: square"/>
   </g>
   <g id="legend_1">
    <g id="patch_7">
     <path d="M 628.803125 385.04 
L 702.2 385.04 
Q 704.2 385.04 704.2 383.04 
L 704.2 340.005625 
Q 704.2 338.005625 702.2 338.005625 
L 628.803125 338.005625 
Q 626.803125 338.005625 626.803125 340.005625 
L 626.803125 383.04 
Q 626.803125 385.04 628.803125 385.04 
z
" style="fill: #ffffff; opacity: 0.8; stroke: #cccccc; stroke-linejoin: miter"/>
    </g>
    <g id="text_14">
     <!-- Agent -->
     <g transform="translate(650.701563 349.604062) scale(0.1 -0.1)">
      <defs>
       <path id="DejaVuSans-67" d="M 2906 1791 
Q 2906 2416 2648 2759 
Q 2391 3103 1925 3103 
Q 1463 3103 1205 2759 
Q 947 2416 947 1791 
Q 947 1169 1205 825 
Q 1463 481 1925 481 
Q 2391 481 2648 825 
Q 2906 1169 2906 1791 
z
M 3481 434 
Q 3481 -459 3084 -895 
Q 2688 -1331 1869 -1331 
Q 1566 -1331 1297 -1286 
Q 1028 -1241 775 -1147 
L 775 -588 
Q 1028 -725 1275 -790 
Q 1522 -856 1778 -856 
Q 2344 -856 2625 -561 
Q 2906 -266 2906 331 
L 2906 616 
Q 2728 306 2450 153 
Q 2172 0 1784 0 
Q 1141 0 747 490 
Q 353 981 353 1791 
Q 353 2603 747 3093 
Q 1141 3584 1784 3584 
Q 2172 3584 2450 3431 
Q 2728 3278 2906 2969 
L 2906 3500 
L 3481 3500 
L 3481 434 
z
" transform="scale(0.015625)"/>
       <path id="DejaVuSans-6e" d="M 3513 2113 
L 3513 0 
L 2938 0 
L 2938 2094 
Q 2938 2591 2744 2837 
Q 2550 3084 2163 3084 
Q 1697 3084 1428 2787 
Q 1159 2491 1159 1978 
L 1159 0 
L 581 0 
L 581 3500 
L 1159 3500 
L 1159 2956 
Q 1366 3272 1645 3428 
Q 1925 3584 2291 3584 
Q 2894 3584 3203 3211 
Q 3513 2838 3513 2113 
z
" transform="scale(0.015625)"/>
      </defs>
      <use xlink:href="#DejaVuSans-41"/>
      <use xlink:href="#DejaVuSans-67" transform="translate(68.408203 0)"/>
      <use xlink:href="#DejaVuSans-65" transform="translate(131.884766 0)"/>
      <use xlink:href="#DejaVuSans-6e" transform="translate(193.408203 0)"/>
      <use xlink:href="#DejaVuSans-74" transform="translate(256.787109 0)"/>
     </g>
    </g>
    <g id="line2d_25">
     <path d="M 630.803125 360.782187 
L 640.803125 360.782187 
L 650.803125 360.782187 
" style="fill: none; stroke: #0000ff; stroke-width: 1.5; stroke-linecap: square"/>
    </g>
    <g id="text_15">
     <!-- PPO -->
     <g transform="translate(658.803125 364.282187) scale(0.1 -0.1)">
      <defs>
       <path id="DejaVuSans-50" d="M 1259 4147 
L 1259 2394 
L 2053 2394 
Q 2494 2394 2734 2622 
Q 2975 2850 2975 3272 
Q 2975 3691 2734 3919 
Q 2494 4147 2053 4147 
L 1259 4147 
z
M 628 4666 
L 2053 4666 
Q 2838 4666 3239 4311 
Q 3641 3956 3641 3272 
Q 3641 2581 3239 2228 
Q 2838 1875 2053 1875 
L 1259 1875 
L 1259 0 
L 628 0 
L 628 4666 
z
" transform="scale(0.015625)"/>
       <path id="DejaVuSans-4f" d="M 2522 4238 
Q 1834 4238 1429 3725 
Q 1025 3213 1025 2328 
Q 1025 1447 1429 934 
Q 1834 422 2522 422 
Q 3209 422 3611 934 
Q 4013 1447 4013 2328 
Q 4013 3213 3611 3725 
Q 3209 4238 2522 4238 
z
M 2522 4750 
Q 3503 4750 4090 4092 
Q 4678 3434 4678 2328 
Q 4678 1225 4090 567 
Q 3503 -91 2522 -91 
Q 1538 -91 948 565 
Q 359 1222 359 2328 
Q 359 3434 948 4092 
Q 1538 4750 2522 4750 
z
" transform="scale(0.015625)"/>
      </defs>
      <use xlink:href="#DejaVuSans-50"/>
      <use xlink:href="#DejaVuSans-50" transform="translate(60.302734 0)"/>
      <use xlink:href="#DejaVuSans-4f" transform="translate(120.605469 0)"/>
     </g>
    </g>
    <g id="line2d_26">
     <path d="M 630.803125 375.460312 
L 640.803125 375.460312 
L 650.803125 375.460312 
" style="fill: none; stroke: #ffa500; stroke-width: 1.5; stroke-linecap: square"/>
    </g>
    <g id="text_16">
     <!-- Random -->
     <g transform="translate(658.803125 378.960312) scale(0.1 -0.1)">
      <defs>
       <path id="DejaVuSans-52" d="M 2841 2188 
Q 3044 2119 3236 1894 
Q 3428 1669 3622 1275 
L 4263 0 
L 3584 0 
L 2988 1197 
Q 2756 1666 2539 1819 
Q 2322 1972 1947 1972 
L 1259 1972 
L 1259 0 
L 628 0 
L 628 4666 
L 2053 4666 
Q 2853 4666 3247 4331 
Q 3641 3997 3641 3322 
Q 3641 2881 3436 2590 
Q 3231 2300 2841 2188 
z
M 1259 4147 
L 1259 2491 
L 2053 2491 
Q 2509 2491 2742 2702 
Q 2975 2913 2975 3322 
Q 2975 3731 2742 3939 
Q 2509 4147 2053 4147 
L 1259 4147 
z
" transform="scale(0.015625)"/>
       <path id="DejaVuSans-64" d="M 2906 2969 
L 2906 4863 
L 3481 4863 
L 3481 0 
L 2906 0 
L 2906 525 
Q 2725 213 2448 61 
Q 2172 -91 1784 -91 
Q 1150 -91 751 415 
Q 353 922 353 1747 
Q 353 2572 751 3078 
Q 1150 3584 1784 3584 
Q 2172 3584 2448 3432 
Q 2725 3281 2906 2969 
z
M 947 1747 
Q 947 1113 1208 752 
Q 1469 391 1925 391 
Q 2381 391 2643 752 
Q 2906 1113 2906 1747 
Q 2906 2381 2643 2742 
Q 2381 3103 1925 3103 
Q 1469 3103 1208 2742 
Q 947 2381 947 1747 
z
" transform="scale(0.015625)"/>
       <path id="DejaVuSans-6f" d="M 1959 3097 
Q 1497 3097 1228 2736 
Q 959 2375 959 1747 
Q 959 1119 1226 758 
Q 1494 397 1959 397 
Q 2419 397 2687 759 
Q 2956 1122 2956 1747 
Q 2956 2369 2687 2733 
Q 2419 3097 1959 3097 
z
M 1959 3584 
Q 2709 3584 3137 3096 
Q 3566 2609 3566 1747 
Q 3566 888 3137 398 
Q 2709 -91 1959 -91 
Q 1206 -91 779 398 
Q 353 888 353 1747 
Q 353 2609 779 3096 
Q 1206 3584 1959 3584 
z
" transform="scale(0.015625)"/>
       <path id="DejaVuSans-6d" d="M 3328 2828 
Q 3544 3216 3844 3400 
Q 4144 3584 4550 3584 
Q 5097 3584 5394 3201 
Q 5691 2819 5691 2113 
L 5691 0 
L 5113 0 
L 5113 2094 
Q 5113 2597 4934 2840 
Q 4756 3084 4391 3084 
Q 3944 3084 3684 2787 
Q 3425 2491 3425 1978 
L 3425 0 
L 2847 0 
L 2847 2094 
Q 2847 2600 2669 2842 
Q 2491 3084 2119 3084 
Q 1678 3084 1418 2786 
Q 1159 2488 1159 1978 
L 1159 0 
L 581 0 
L 581 3500 
L 1159 3500 
L 1159 2956 
Q 1356 3278 1631 3431 
Q 1906 3584 2284 3584 
Q 2666 3584 2933 3390 
Q 3200 3197 3328 2828 
z
" transform="scale(0.015625)"/>
      </defs>
      <use xlink:href="#DejaVuSans-52"/>
      <use xlink:href="#DejaVuSans-61" transform="translate(67.232422 0)"/>
      <use xlink:href="#DejaVuSans-6e" transform="translate(128.511719 0)"/>
      <use xlink:href="#DejaVuSans-64" transform="translate(191.890625 0)"/>
      <use xlink:href="#DejaVuSans-6f" transform="translate(255.367188 0)"/>
      <use xlink:href="#DejaVuSans-6d" transform="translate(316.548828 0)"/>
     </g>
    </g>
   </g>
  </g>
 </g>
 <defs>
  <clipPath id="p188da29cb8">
   <rect x="47.72" y="10.8" width="661.48" height="379.24"/>
  </clipPath>
 </defs>
</svg>
