<?xml version="1.0" encoding="utf-8" standalone="no"?>
<!DOCTYPE svg PUBLIC "-//W3C//DTD SVG 1.1//EN"
  "http://www.w3.org/Graphics/SVG/1.1/DTD/svg11.dtd">
<svg xmlns:xlink="http://www.w3.org/1999/xlink" width="720pt" height="432pt" viewBox="0 0 720 432" xmlns="http://www.w3.org/2000/svg" version="1.1">
 <metadata>
  <rdf:RDF xmlns:dc="http://purl.org/dc/elements/1.1/" xmlns:cc="http://creativecommons.org/ns#" xmlns:rdf="http://www.w3.org/1999/02/22-rdf-syntax-ns#">
   <cc:Work>
    <dc:type rdf:resource="http://purl.org/dc/dcmitype/StillImage"/>
    <dc:date>2025-04-16T00:51:01.616722</dc:date>
    <dc:format>image/svg+xml</dc:format>
    <dc:creator>
     <cc:Agent>
      <dc:title>Matplotlib v3.10.0, https://matplotlib.org/</dc:title>
     </cc:Agent>
    </dc:creator>
   </cc:Work>
  </rdf:RDF>
 </metadata>
 <defs>
  <style type="text/css">*{stroke-linejoin: round; stroke-linecap: butt}</style>
 </defs>
 <g id="figure_1">
  <g id="patch_1">
   <path d="M 0 432 
L 720 432 
L 720 0 
L 0 0 
z
" style="fill: #ffffff"/>
  </g>
  <g id="axes_1">
   <g id="patch_2">
    <path d="M 47.72 390.04 
L 706.670361 390.04 
L 706.670361 12.282553 
L 47.72 12.282553 
z
" style="fill: #ffffff"/>
   </g>
   <g id="FillBetweenPolyCollection_1">
    <path d="M 77.672289 49.97639 
L 77.672289 361.276655 
L 81.775342 342.759257 
L 85.878396 353.97871 
L 89.981449 342.161042 
L 94.084502 362.190829 
L 98.187556 351.457909 
L 102.290609 352.889306 
L 106.393662 351.832322 
L 110.496716 358.862293 
L 114.599769 349.219472 
L 118.702822 346.619043 
L 122.805876 335.803909 
L 126.908929 351.207634 
L 131.011982 360.800196 
L 135.115035 348.554177 
L 139.218089 335.876803 
L 143.321142 358.435538 
L 147.424195 338.311949 
L 151.527249 334.570188 
L 155.630302 345.43506 
L 159.733355 339.055796 
L 163.836409 342.923133 
L 167.939462 345.066677 
L 172.042515 344.656686 
L 176.145569 351.506802 
L 180.248622 349.514125 
L 184.351675 353.294683 
L 188.454728 343.478541 
L 192.557782 342.249608 
L 196.660835 340.995974 
L 200.763888 354.705661 
L 204.866942 367.580572 
L 208.969995 343.443954 
L 213.073048 356.608918 
L 217.176102 366.268043 
L 221.279155 337.001438 
L 225.382208 347.898639 
L 229.485262 353.237585 
L 233.588315 323.552108 
L 237.691368 343.515419 
L 241.794421 339.806846 
L 245.897475 354.559556 
L 250.000528 336.534985 
L 254.103581 340.796006 
L 258.206635 349.784399 
L 262.309688 338.409001 
L 266.412741 352.979362 
L 270.515795 336.86062 
L 274.618848 351.471844 
L 278.721901 351.254095 
L 282.824955 346.16484 
L 286.928008 340.639407 
L 291.031061 348.241551 
L 295.134114 345.482085 
L 299.237168 344.863136 
L 303.340221 355.003374 
L 307.443274 347.795601 
L 311.546328 357.301772 
L 315.649381 337.092412 
L 319.752434 348.562331 
L 323.855488 336.973154 
L 327.958541 355.644719 
L 332.061594 357.004678 
L 336.164648 344.623678 
L 340.267701 348.163819 
L 344.370754 350.611278 
L 348.473807 339.705914 
L 352.576861 334.839254 
L 356.679914 352.678662 
L 360.782967 335.929337 
L 364.886021 341.078766 
L 368.989074 349.392337 
L 373.092127 342.024021 
L 377.195181 361.073934 
L 381.298234 355.460607 
L 385.401287 344.115973 
L 389.50434 372.869207 
L 393.607394 357.942827 
L 397.710447 342.887446 
L 401.8135 336.055655 
L 405.916554 335.270872 
L 410.019607 355.433264 
L 414.12266 349.386441 
L 418.225714 340.881785 
L 422.328767 361.006672 
L 426.43182 348.066982 
L 430.534874 352.714546 
L 434.637927 344.459512 
L 438.74098 347.488847 
L 442.844033 358.644049 
L 446.947087 357.006803 
L 451.05014 351.729257 
L 455.153193 349.747563 
L 459.256247 349.761473 
L 463.3593 343.425231 
L 467.462353 352.993288 
L 471.565407 347.577836 
L 475.66846 342.16364 
L 479.771513 349.498462 
L 483.874567 345.838965 
L 487.97762 343.858833 
L 492.080673 358.706324 
L 496.183726 358.700311 
L 500.28678 330.529828 
L 504.389833 355.635781 
L 508.492886 352.253867 
L 512.59594 346.244143 
L 516.698993 346.511488 
L 520.802046 349.729284 
L 524.9051 348.473218 
L 529.008153 350.384556 
L 533.111206 338.770231 
L 537.21426 331.616544 
L 541.317313 338.990403 
L 545.420366 338.652454 
L 549.523419 346.130095 
L 553.626473 315.7473 
L 557.729526 330.073176 
L 561.832579 338.520071 
L 565.935633 357.153932 
L 570.038686 357.371027 
L 574.141739 344.912776 
L 578.244793 336.528568 
L 582.347846 358.461754 
L 586.450899 348.140372 
L 590.553953 360.103233 
L 594.657006 355.638823 
L 598.760059 349.26132 
L 602.863112 341.39566 
L 606.966166 354.047585 
L 611.069219 346.608895 
L 615.172272 351.382095 
L 619.275326 344.698334 
L 623.378379 363.327936 
L 627.481432 358.029649 
L 631.584486 348.623423 
L 635.687539 339.968587 
L 639.790592 342.581263 
L 643.893646 352.486774 
L 647.996699 352.103819 
L 652.099752 350.388452 
L 656.202805 347.913898 
L 660.305859 352.803931 
L 664.408912 354.022253 
L 668.511965 351.59422 
L 672.615019 332.910059 
L 676.718072 356.010275 
L 676.718072 66.723805 
L 676.718072 66.723805 
L 672.615019 55.927634 
L 668.511965 59.658825 
L 664.408912 60.511087 
L 660.305859 78.677603 
L 656.202805 54.591693 
L 652.099752 63.051457 
L 647.996699 55.322214 
L 643.893646 74.621032 
L 639.790592 47.896578 
L 635.687539 76.751617 
L 631.584486 62.082906 
L 627.481432 72.358454 
L 623.378379 62.686439 
L 619.275326 58.900688 
L 615.172272 66.978257 
L 611.069219 68.471161 
L 606.966166 59.392324 
L 602.863112 40.334726 
L 598.760059 65.818736 
L 594.657006 58.894518 
L 590.553953 60.443983 
L 586.450899 61.472526 
L 582.347846 54.978155 
L 578.244793 56.136136 
L 574.141739 71.807429 
L 570.038686 59.349178 
L 565.935633 55.739261 
L 561.832579 63.98552 
L 557.729526 47.830199 
L 553.626473 37.007142 
L 549.523419 64.576234 
L 545.420366 46.358227 
L 541.317313 56.954597 
L 537.21426 37.539376 
L 533.111206 54.987905 
L 529.008153 60.868489 
L 524.9051 55.125804 
L 520.802046 59.336898 
L 516.698993 74.582444 
L 512.59594 57.901596 
L 508.492886 56.812315 
L 504.389833 57.257412 
L 500.28678 41.906387 
L 496.183726 70.594359 
L 492.080673 54.186869 
L 487.97762 61.927053 
L 483.874567 64.320648 
L 479.771513 46.446537 
L 475.66846 49.954349 
L 471.565407 45.633585 
L 467.462353 80.67511 
L 463.3593 53.066484 
L 459.256247 60.944857 
L 455.153193 46.744152 
L 451.05014 58.430356 
L 446.947087 66.820709 
L 442.844033 64.09003 
L 438.74098 38.06855 
L 434.637927 56.952647 
L 430.534874 68.926102 
L 426.43182 70.840086 
L 422.328767 60.633976 
L 418.225714 48.502623 
L 414.12266 52.025717 
L 410.019607 57.459929 
L 405.916554 55.206968 
L 401.8135 56.609049 
L 397.710447 48.683827 
L 393.607394 70.805127 
L 389.50434 62.986054 
L 385.401287 54.562606 
L 381.298234 47.044984 
L 377.195181 60.019998 
L 373.092127 61.028286 
L 368.989074 73.341742 
L 364.886021 67.987415 
L 360.782967 37.053595 
L 356.679914 68.41527 
L 352.576861 57.278735 
L 348.473807 58.425949 
L 344.370754 45.880437 
L 340.267701 48.874613 
L 336.164648 57.335197 
L 332.061594 58.622094 
L 327.958541 70.369656 
L 323.855488 49.677675 
L 319.752434 51.756396 
L 315.649381 40.810963 
L 311.546328 67.619171 
L 307.443274 54.70999 
L 303.340221 55.702955 
L 299.237168 58.189171 
L 295.134114 59.21037 
L 291.031061 58.637767 
L 286.928008 80.454524 
L 282.824955 47.593296 
L 278.721901 61.639098 
L 274.618848 62.514781 
L 270.515795 55.257368 
L 266.412741 58.273683 
L 262.309688 79.404635 
L 258.206635 57.094919 
L 254.103581 29.453346 
L 250.000528 68.704185 
L 245.897475 76.921978 
L 241.794421 41.92354 
L 237.691368 48.602569 
L 233.588315 48.884108 
L 229.485262 66.762915 
L 225.382208 73.742008 
L 221.279155 67.691017 
L 217.176102 49.35873 
L 213.073048 71.592321 
L 208.969995 62.888648 
L 204.866942 53.51336 
L 200.763888 56.000668 
L 196.660835 39.094264 
L 192.557782 50.961813 
L 188.454728 40.438708 
L 184.351675 75.453271 
L 180.248622 56.271761 
L 176.145569 52.638936 
L 172.042515 52.928461 
L 167.939462 42.130868 
L 163.836409 50.288287 
L 159.733355 53.062192 
L 155.630302 68.551565 
L 151.527249 61.374812 
L 147.424195 54.352755 
L 143.321142 79.059871 
L 139.218089 45.853583 
L 135.115035 61.605437 
L 131.011982 65.760895 
L 126.908929 60.045411 
L 122.805876 56.860795 
L 118.702822 50.966105 
L 114.599769 56.566414 
L 110.496716 66.605366 
L 106.393662 67.074746 
L 102.290609 78.592228 
L 98.187556 58.701705 
L 94.084502 56.716239 
L 89.981449 35.195617 
L 85.878396 61.648062 
L 81.775342 61.386481 
L 77.672289 49.97639 
z
" clip-path="url(#p85679ec011)" style="fill: #1f77b4; fill-opacity: 0.2"/>
   </g>
   <g id="matplotlib.axis_1">
    <g id="xtick_1">
     <g id="line2d_1">
      <path d="M 75.600247 390.04 
L 75.600247 12.282553 
" clip-path="url(#p85679ec011)" style="fill: none; stroke: #b0b0b0; stroke-width: 0.8; stroke-linecap: square"/>
     </g>
     <g id="line2d_2">
      <defs>
       <path id="m68835443d5" d="M 0 0 
L 0 3.5 
" style="stroke: #000000; stroke-width: 0.8"/>
      </defs>
      <g>
       <use xlink:href="#m68835443d5" x="75.600247" y="390.04" style="stroke: #000000; stroke-width: 0.8"/>
      </g>
     </g>
     <g id="text_1">
      <!-- 0 -->
      <g transform="translate(72.418997 404.638438) scale(0.1 -0.1)">
       <defs>
        <path id="DejaVuSans-30" d="M 2034 4250 
Q 1547 4250 1301 3770 
Q 1056 3291 1056 2328 
Q 1056 1369 1301 889 
Q 1547 409 2034 409 
Q 2525 409 2770 889 
Q 3016 1369 3016 2328 
Q 3016 3291 2770 3770 
Q 2525 4250 2034 4250 
z
M 2034 4750 
Q 2819 4750 3233 4129 
Q 3647 3509 3647 2328 
Q 3647 1150 3233 529 
Q 2819 -91 2034 -91 
Q 1250 -91 836 529 
Q 422 1150 422 2328 
Q 422 3509 836 4129 
Q 1250 4750 2034 4750 
z
" transform="scale(0.015625)"/>
       </defs>
       <use xlink:href="#DejaVuSans-30"/>
      </g>
     </g>
    </g>
    <g id="xtick_2">
     <g id="line2d_3">
      <path d="M 178.17658 390.04 
L 178.17658 12.282553 
" clip-path="url(#p85679ec011)" style="fill: none; stroke: #b0b0b0; stroke-width: 0.8; stroke-linecap: square"/>
     </g>
     <g id="line2d_4">
      <g>
       <use xlink:href="#m68835443d5" x="178.17658" y="390.04" style="stroke: #000000; stroke-width: 0.8"/>
      </g>
     </g>
     <g id="text_2">
      <!-- 5000 -->
      <g transform="translate(165.45158 404.638438) scale(0.1 -0.1)">
       <defs>
        <path id="DejaVuSans-35" d="M 691 4666 
L 3169 4666 
L 3169 4134 
L 1269 4134 
L 1269 2991 
Q 1406 3038 1543 3061 
Q 1681 3084 1819 3084 
Q 2600 3084 3056 2656 
Q 3513 2228 3513 1497 
Q 3513 744 3044 326 
Q 2575 -91 1722 -91 
Q 1428 -91 1123 -41 
Q 819 9 494 109 
L 494 744 
Q 775 591 1075 516 
Q 1375 441 1709 441 
Q 2250 441 2565 725 
Q 2881 1009 2881 1497 
Q 2881 1984 2565 2268 
Q 2250 2553 1709 2553 
Q 1456 2553 1204 2497 
Q 953 2441 691 2322 
L 691 4666 
z
" transform="scale(0.015625)"/>
       </defs>
       <use xlink:href="#DejaVuSans-35"/>
       <use xlink:href="#DejaVuSans-30" transform="translate(63.623047 0)"/>
       <use xlink:href="#DejaVuSans-30" transform="translate(127.246094 0)"/>
       <use xlink:href="#DejaVuSans-30" transform="translate(190.869141 0)"/>
      </g>
     </g>
    </g>
    <g id="xtick_3">
     <g id="line2d_5">
      <path d="M 280.752913 390.04 
L 280.752913 12.282553 
" clip-path="url(#p85679ec011)" style="fill: none; stroke: #b0b0b0; stroke-width: 0.8; stroke-linecap: square"/>
     </g>
     <g id="line2d_6">
      <g>
       <use xlink:href="#m68835443d5" x="280.752913" y="390.04" style="stroke: #000000; stroke-width: 0.8"/>
      </g>
     </g>
     <g id="text_3">
      <!-- 10000 -->
      <g transform="translate(264.846663 404.638438) scale(0.1 -0.1)">
       <defs>
        <path id="DejaVuSans-31" d="M 794 531 
L 1825 531 
L 1825 4091 
L 703 3866 
L 703 4441 
L 1819 4666 
L 2450 4666 
L 2450 531 
L 3481 531 
L 3481 0 
L 794 0 
L 794 531 
z
" transform="scale(0.015625)"/>
       </defs>
       <use xlink:href="#DejaVuSans-31"/>
       <use xlink:href="#DejaVuSans-30" transform="translate(63.623047 0)"/>
       <use xlink:href="#DejaVuSans-30" transform="translate(127.246094 0)"/>
       <use xlink:href="#DejaVuSans-30" transform="translate(190.869141 0)"/>
       <use xlink:href="#DejaVuSans-30" transform="translate(254.492188 0)"/>
      </g>
     </g>
    </g>
    <g id="xtick_4">
     <g id="line2d_7">
      <path d="M 383.329245 390.04 
L 383.329245 12.282553 
" clip-path="url(#p85679ec011)" style="fill: none; stroke: #b0b0b0; stroke-width: 0.8; stroke-linecap: square"/>
     </g>
     <g id="line2d_8">
      <g>
       <use xlink:href="#m68835443d5" x="383.329245" y="390.04" style="stroke: #000000; stroke-width: 0.8"/>
      </g>
     </g>
     <g id="text_4">
      <!-- 15000 -->
      <g transform="translate(367.422995 404.638438) scale(0.1 -0.1)">
       <use xlink:href="#DejaVuSans-31"/>
       <use xlink:href="#DejaVuSans-35" transform="translate(63.623047 0)"/>
       <use xlink:href="#DejaVuSans-30" transform="translate(127.246094 0)"/>
       <use xlink:href="#DejaVuSans-30" transform="translate(190.869141 0)"/>
       <use xlink:href="#DejaVuSans-30" transform="translate(254.492188 0)"/>
      </g>
     </g>
    </g>
    <g id="xtick_5">
     <g id="line2d_9">
      <path d="M 485.905578 390.04 
L 485.905578 12.282553 
" clip-path="url(#p85679ec011)" style="fill: none; stroke: #b0b0b0; stroke-width: 0.8; stroke-linecap: square"/>
     </g>
     <g id="line2d_10">
      <g>
       <use xlink:href="#m68835443d5" x="485.905578" y="390.04" style="stroke: #000000; stroke-width: 0.8"/>
      </g>
     </g>
     <g id="text_5">
      <!-- 20000 -->
      <g transform="translate(469.999328 404.638438) scale(0.1 -0.1)">
       <defs>
        <path id="DejaVuSans-32" d="M 1228 531 
L 3431 531 
L 3431 0 
L 469 0 
L 469 531 
Q 828 903 1448 1529 
Q 2069 2156 2228 2338 
Q 2531 2678 2651 2914 
Q 2772 3150 2772 3378 
Q 2772 3750 2511 3984 
Q 2250 4219 1831 4219 
Q 1534 4219 1204 4116 
Q 875 4013 500 3803 
L 500 4441 
Q 881 4594 1212 4672 
Q 1544 4750 1819 4750 
Q 2544 4750 2975 4387 
Q 3406 4025 3406 3419 
Q 3406 3131 3298 2873 
Q 3191 2616 2906 2266 
Q 2828 2175 2409 1742 
Q 1991 1309 1228 531 
z
" transform="scale(0.015625)"/>
       </defs>
       <use xlink:href="#DejaVuSans-32"/>
       <use xlink:href="#DejaVuSans-30" transform="translate(63.623047 0)"/>
       <use xlink:href="#DejaVuSans-30" transform="translate(127.246094 0)"/>
       <use xlink:href="#DejaVuSans-30" transform="translate(190.869141 0)"/>
       <use xlink:href="#DejaVuSans-30" transform="translate(254.492188 0)"/>
      </g>
     </g>
    </g>
    <g id="xtick_6">
     <g id="line2d_11">
      <path d="M 588.481911 390.04 
L 588.481911 12.282553 
" clip-path="url(#p85679ec011)" style="fill: none; stroke: #b0b0b0; stroke-width: 0.8; stroke-linecap: square"/>
     </g>
     <g id="line2d_12">
      <g>
       <use xlink:href="#m68835443d5" x="588.481911" y="390.04" style="stroke: #000000; stroke-width: 0.8"/>
      </g>
     </g>
     <g id="text_6">
      <!-- 25000 -->
      <g transform="translate(572.575661 404.638438) scale(0.1 -0.1)">
       <use xlink:href="#DejaVuSans-32"/>
       <use xlink:href="#DejaVuSans-35" transform="translate(63.623047 0)"/>
       <use xlink:href="#DejaVuSans-30" transform="translate(127.246094 0)"/>
       <use xlink:href="#DejaVuSans-30" transform="translate(190.869141 0)"/>
       <use xlink:href="#DejaVuSans-30" transform="translate(254.492188 0)"/>
      </g>
     </g>
    </g>
    <g id="xtick_7">
     <g id="line2d_13">
      <path d="M 691.058243 390.04 
L 691.058243 12.282553 
" clip-path="url(#p85679ec011)" style="fill: none; stroke: #b0b0b0; stroke-width: 0.8; stroke-linecap: square"/>
     </g>
     <g id="line2d_14">
      <g>
       <use xlink:href="#m68835443d5" x="691.058243" y="390.04" style="stroke: #000000; stroke-width: 0.8"/>
      </g>
     </g>
     <g id="text_7">
      <!-- 30000 -->
      <g transform="translate(675.151993 404.638438) scale(0.1 -0.1)">
       <defs>
        <path id="DejaVuSans-33" d="M 2597 2516 
Q 3050 2419 3304 2112 
Q 3559 1806 3559 1356 
Q 3559 666 3084 287 
Q 2609 -91 1734 -91 
Q 1441 -91 1130 -33 
Q 819 25 488 141 
L 488 750 
Q 750 597 1062 519 
Q 1375 441 1716 441 
Q 2309 441 2620 675 
Q 2931 909 2931 1356 
Q 2931 1769 2642 2001 
Q 2353 2234 1838 2234 
L 1294 2234 
L 1294 2753 
L 1863 2753 
Q 2328 2753 2575 2939 
Q 2822 3125 2822 3475 
Q 2822 3834 2567 4026 
Q 2313 4219 1838 4219 
Q 1578 4219 1281 4162 
Q 984 4106 628 3988 
L 628 4550 
Q 988 4650 1302 4700 
Q 1616 4750 1894 4750 
Q 2613 4750 3031 4423 
Q 3450 4097 3450 3541 
Q 3450 3153 3228 2886 
Q 3006 2619 2597 2516 
z
" transform="scale(0.015625)"/>
       </defs>
       <use xlink:href="#DejaVuSans-33"/>
       <use xlink:href="#DejaVuSans-30" transform="translate(63.623047 0)"/>
       <use xlink:href="#DejaVuSans-30" transform="translate(127.246094 0)"/>
       <use xlink:href="#DejaVuSans-30" transform="translate(190.869141 0)"/>
       <use xlink:href="#DejaVuSans-30" transform="translate(254.492188 0)"/>
      </g>
     </g>
    </g>
    <g id="text_8">
     <!-- Episodes -->
     <g transform="translate(354.952993 418.316562) scale(0.1 -0.1)">
      <defs>
       <path id="DejaVuSans-45" d="M 628 4666 
L 3578 4666 
L 3578 4134 
L 1259 4134 
L 1259 2753 
L 3481 2753 
L 3481 2222 
L 1259 2222 
L 1259 531 
L 3634 531 
L 3634 0 
L 628 0 
L 628 4666 
z
" transform="scale(0.015625)"/>
       <path id="DejaVuSans-70" d="M 1159 525 
L 1159 -1331 
L 581 -1331 
L 581 3500 
L 1159 3500 
L 1159 2969 
Q 1341 3281 1617 3432 
Q 1894 3584 2278 3584 
Q 2916 3584 3314 3078 
Q 3713 2572 3713 1747 
Q 3713 922 3314 415 
Q 2916 -91 2278 -91 
Q 1894 -91 1617 61 
Q 1341 213 1159 525 
z
M 3116 1747 
Q 3116 2381 2855 2742 
Q 2594 3103 2138 3103 
Q 1681 3103 1420 2742 
Q 1159 2381 1159 1747 
Q 1159 1113 1420 752 
Q 1681 391 2138 391 
Q 2594 391 2855 752 
Q 3116 1113 3116 1747 
z
" transform="scale(0.015625)"/>
       <path id="DejaVuSans-69" d="M 603 3500 
L 1178 3500 
L 1178 0 
L 603 0 
L 603 3500 
z
M 603 4863 
L 1178 4863 
L 1178 4134 
L 603 4134 
L 603 4863 
z
" transform="scale(0.015625)"/>
       <path id="DejaVuSans-73" d="M 2834 3397 
L 2834 2853 
Q 2591 2978 2328 3040 
Q 2066 3103 1784 3103 
Q 1356 3103 1142 2972 
Q 928 2841 928 2578 
Q 928 2378 1081 2264 
Q 1234 2150 1697 2047 
L 1894 2003 
Q 2506 1872 2764 1633 
Q 3022 1394 3022 966 
Q 3022 478 2636 193 
Q 2250 -91 1575 -91 
Q 1294 -91 989 -36 
Q 684 19 347 128 
L 347 722 
Q 666 556 975 473 
Q 1284 391 1588 391 
Q 1994 391 2212 530 
Q 2431 669 2431 922 
Q 2431 1156 2273 1281 
Q 2116 1406 1581 1522 
L 1381 1569 
Q 847 1681 609 1914 
Q 372 2147 372 2553 
Q 372 3047 722 3315 
Q 1072 3584 1716 3584 
Q 2034 3584 2315 3537 
Q 2597 3491 2834 3397 
z
" transform="scale(0.015625)"/>
       <path id="DejaVuSans-6f" d="M 1959 3097 
Q 1497 3097 1228 2736 
Q 959 2375 959 1747 
Q 959 1119 1226 758 
Q 1494 397 1959 397 
Q 2419 397 2687 759 
Q 2956 1122 2956 1747 
Q 2956 2369 2687 2733 
Q 2419 3097 1959 3097 
z
M 1959 3584 
Q 2709 3584 3137 3096 
Q 3566 2609 3566 1747 
Q 3566 888 3137 398 
Q 2709 -91 1959 -91 
Q 1206 -91 779 398 
Q 353 888 353 1747 
Q 353 2609 779 3096 
Q 1206 3584 1959 3584 
z
" transform="scale(0.015625)"/>
       <path id="DejaVuSans-64" d="M 2906 2969 
L 2906 4863 
L 3481 4863 
L 3481 0 
L 2906 0 
L 2906 525 
Q 2725 213 2448 61 
Q 2172 -91 1784 -91 
Q 1150 -91 751 415 
Q 353 922 353 1747 
Q 353 2572 751 3078 
Q 1150 3584 1784 3584 
Q 2172 3584 2448 3432 
Q 2725 3281 2906 2969 
z
M 947 1747 
Q 947 1113 1208 752 
Q 1469 391 1925 391 
Q 2381 391 2643 752 
Q 2906 1113 2906 1747 
Q 2906 2381 2643 2742 
Q 2381 3103 1925 3103 
Q 1469 3103 1208 2742 
Q 947 2381 947 1747 
z
" transform="scale(0.015625)"/>
       <path id="DejaVuSans-65" d="M 3597 1894 
L 3597 1613 
L 953 1613 
Q 991 1019 1311 708 
Q 1631 397 2203 397 
Q 2534 397 2845 478 
Q 3156 559 3463 722 
L 3463 178 
Q 3153 47 2828 -22 
Q 2503 -91 2169 -91 
Q 1331 -91 842 396 
Q 353 884 353 1716 
Q 353 2575 817 3079 
Q 1281 3584 2069 3584 
Q 2775 3584 3186 3129 
Q 3597 2675 3597 1894 
z
M 3022 2063 
Q 3016 2534 2758 2815 
Q 2500 3097 2075 3097 
Q 1594 3097 1305 2825 
Q 1016 2553 972 2059 
L 3022 2063 
z
" transform="scale(0.015625)"/>
      </defs>
      <use xlink:href="#DejaVuSans-45"/>
      <use xlink:href="#DejaVuSans-70" transform="translate(63.183594 0)"/>
      <use xlink:href="#DejaVuSans-69" transform="translate(126.660156 0)"/>
      <use xlink:href="#DejaVuSans-73" transform="translate(154.443359 0)"/>
      <use xlink:href="#DejaVuSans-6f" transform="translate(206.542969 0)"/>
      <use xlink:href="#DejaVuSans-64" transform="translate(267.724609 0)"/>
      <use xlink:href="#DejaVuSans-65" transform="translate(331.201172 0)"/>
      <use xlink:href="#DejaVuSans-73" transform="translate(392.724609 0)"/>
     </g>
    </g>
   </g>
   <g id="matplotlib.axis_2">
    <g id="ytick_1">
     <g id="line2d_15">
      <path d="M 47.72 343.125575 
L 706.670361 343.125575 
" clip-path="url(#p85679ec011)" style="fill: none; stroke: #b0b0b0; stroke-width: 0.8; stroke-linecap: square"/>
     </g>
     <g id="line2d_16">
      <defs>
       <path id="mf209444a0a" d="M 0 0 
L -3.5 0 
" style="stroke: #000000; stroke-width: 0.8"/>
      </defs>
      <g>
       <use xlink:href="#mf209444a0a" x="47.72" y="343.125575" style="stroke: #000000; stroke-width: 0.8"/>
      </g>
     </g>
     <g id="text_9">
      <!-- 1.5 -->
      <g transform="translate(24.816875 346.924793) scale(0.1 -0.1)">
       <defs>
        <path id="DejaVuSans-2e" d="M 684 794 
L 1344 794 
L 1344 0 
L 684 0 
L 684 794 
z
" transform="scale(0.015625)"/>
       </defs>
       <use xlink:href="#DejaVuSans-31"/>
       <use xlink:href="#DejaVuSans-2e" transform="translate(63.623047 0)"/>
       <use xlink:href="#DejaVuSans-35" transform="translate(95.410156 0)"/>
      </g>
     </g>
    </g>
    <g id="ytick_2">
     <g id="line2d_17">
      <path d="M 47.72 261.118188 
L 706.670361 261.118188 
" clip-path="url(#p85679ec011)" style="fill: none; stroke: #b0b0b0; stroke-width: 0.8; stroke-linecap: square"/>
     </g>
     <g id="line2d_18">
      <g>
       <use xlink:href="#mf209444a0a" x="47.72" y="261.118188" style="stroke: #000000; stroke-width: 0.8"/>
      </g>
     </g>
     <g id="text_10">
      <!-- 2.0 -->
      <g transform="translate(24.816875 264.917406) scale(0.1 -0.1)">
       <use xlink:href="#DejaVuSans-32"/>
       <use xlink:href="#DejaVuSans-2e" transform="translate(63.623047 0)"/>
       <use xlink:href="#DejaVuSans-30" transform="translate(95.410156 0)"/>
      </g>
     </g>
    </g>
    <g id="ytick_3">
     <g id="line2d_19">
      <path d="M 47.72 179.110801 
L 706.670361 179.110801 
" clip-path="url(#p85679ec011)" style="fill: none; stroke: #b0b0b0; stroke-width: 0.8; stroke-linecap: square"/>
     </g>
     <g id="line2d_20">
      <g>
       <use xlink:href="#mf209444a0a" x="47.72" y="179.110801" style="stroke: #000000; stroke-width: 0.8"/>
      </g>
     </g>
     <g id="text_11">
      <!-- 2.5 -->
      <g transform="translate(24.816875 182.91002) scale(0.1 -0.1)">
       <use xlink:href="#DejaVuSans-32"/>
       <use xlink:href="#DejaVuSans-2e" transform="translate(63.623047 0)"/>
       <use xlink:href="#DejaVuSans-35" transform="translate(95.410156 0)"/>
      </g>
     </g>
    </g>
    <g id="ytick_4">
     <g id="line2d_21">
      <path d="M 47.72 97.103414 
L 706.670361 97.103414 
" clip-path="url(#p85679ec011)" style="fill: none; stroke: #b0b0b0; stroke-width: 0.8; stroke-linecap: square"/>
     </g>
     <g id="line2d_22">
      <g>
       <use xlink:href="#mf209444a0a" x="47.72" y="97.103414" style="stroke: #000000; stroke-width: 0.8"/>
      </g>
     </g>
     <g id="text_12">
      <!-- 3.0 -->
      <g transform="translate(24.816875 100.902633) scale(0.1 -0.1)">
       <use xlink:href="#DejaVuSans-33"/>
       <use xlink:href="#DejaVuSans-2e" transform="translate(63.623047 0)"/>
       <use xlink:href="#DejaVuSans-30" transform="translate(95.410156 0)"/>
      </g>
     </g>
    </g>
    <g id="ytick_5">
     <g id="line2d_23">
      <path d="M 47.72 15.096027 
L 706.670361 15.096027 
" clip-path="url(#p85679ec011)" style="fill: none; stroke: #b0b0b0; stroke-width: 0.8; stroke-linecap: square"/>
     </g>
     <g id="line2d_24">
      <g>
       <use xlink:href="#mf209444a0a" x="47.72" y="15.096027" style="stroke: #000000; stroke-width: 0.8"/>
      </g>
     </g>
     <g id="text_13">
      <!-- 3.5 -->
      <g transform="translate(24.816875 18.895246) scale(0.1 -0.1)">
       <use xlink:href="#DejaVuSans-33"/>
       <use xlink:href="#DejaVuSans-2e" transform="translate(63.623047 0)"/>
       <use xlink:href="#DejaVuSans-35" transform="translate(95.410156 0)"/>
      </g>
     </g>
    </g>
    <g id="text_14">
     <!-- Circuit Depth -->
     <g transform="translate(18.737188 234.070652) rotate(-90) scale(0.1 -0.1)">
      <defs>
       <path id="DejaVuSans-43" d="M 4122 4306 
L 4122 3641 
Q 3803 3938 3442 4084 
Q 3081 4231 2675 4231 
Q 1875 4231 1450 3742 
Q 1025 3253 1025 2328 
Q 1025 1406 1450 917 
Q 1875 428 2675 428 
Q 3081 428 3442 575 
Q 3803 722 4122 1019 
L 4122 359 
Q 3791 134 3420 21 
Q 3050 -91 2638 -91 
Q 1578 -91 968 557 
Q 359 1206 359 2328 
Q 359 3453 968 4101 
Q 1578 4750 2638 4750 
Q 3056 4750 3426 4639 
Q 3797 4528 4122 4306 
z
" transform="scale(0.015625)"/>
       <path id="DejaVuSans-72" d="M 2631 2963 
Q 2534 3019 2420 3045 
Q 2306 3072 2169 3072 
Q 1681 3072 1420 2755 
Q 1159 2438 1159 1844 
L 1159 0 
L 581 0 
L 581 3500 
L 1159 3500 
L 1159 2956 
Q 1341 3275 1631 3429 
Q 1922 3584 2338 3584 
Q 2397 3584 2469 3576 
Q 2541 3569 2628 3553 
L 2631 2963 
z
" transform="scale(0.015625)"/>
       <path id="DejaVuSans-63" d="M 3122 3366 
L 3122 2828 
Q 2878 2963 2633 3030 
Q 2388 3097 2138 3097 
Q 1578 3097 1268 2742 
Q 959 2388 959 1747 
Q 959 1106 1268 751 
Q 1578 397 2138 397 
Q 2388 397 2633 464 
Q 2878 531 3122 666 
L 3122 134 
Q 2881 22 2623 -34 
Q 2366 -91 2075 -91 
Q 1284 -91 818 406 
Q 353 903 353 1747 
Q 353 2603 823 3093 
Q 1294 3584 2113 3584 
Q 2378 3584 2631 3529 
Q 2884 3475 3122 3366 
z
" transform="scale(0.015625)"/>
       <path id="DejaVuSans-75" d="M 544 1381 
L 544 3500 
L 1119 3500 
L 1119 1403 
Q 1119 906 1312 657 
Q 1506 409 1894 409 
Q 2359 409 2629 706 
Q 2900 1003 2900 1516 
L 2900 3500 
L 3475 3500 
L 3475 0 
L 2900 0 
L 2900 538 
Q 2691 219 2414 64 
Q 2138 -91 1772 -91 
Q 1169 -91 856 284 
Q 544 659 544 1381 
z
M 1991 3584 
L 1991 3584 
z
" transform="scale(0.015625)"/>
       <path id="DejaVuSans-74" d="M 1172 4494 
L 1172 3500 
L 2356 3500 
L 2356 3053 
L 1172 3053 
L 1172 1153 
Q 1172 725 1289 603 
Q 1406 481 1766 481 
L 2356 481 
L 2356 0 
L 1766 0 
Q 1100 0 847 248 
Q 594 497 594 1153 
L 594 3053 
L 172 3053 
L 172 3500 
L 594 3500 
L 594 4494 
L 1172 4494 
z
" transform="scale(0.015625)"/>
       <path id="DejaVuSans-20" transform="scale(0.015625)"/>
       <path id="DejaVuSans-44" d="M 1259 4147 
L 1259 519 
L 2022 519 
Q 2988 519 3436 956 
Q 3884 1394 3884 2338 
Q 3884 3275 3436 3711 
Q 2988 4147 2022 4147 
L 1259 4147 
z
M 628 4666 
L 1925 4666 
Q 3281 4666 3915 4102 
Q 4550 3538 4550 2338 
Q 4550 1131 3912 565 
Q 3275 0 1925 0 
L 628 0 
L 628 4666 
z
" transform="scale(0.015625)"/>
       <path id="DejaVuSans-68" d="M 3513 2113 
L 3513 0 
L 2938 0 
L 2938 2094 
Q 2938 2591 2744 2837 
Q 2550 3084 2163 3084 
Q 1697 3084 1428 2787 
Q 1159 2491 1159 1978 
L 1159 0 
L 581 0 
L 581 4863 
L 1159 4863 
L 1159 2956 
Q 1366 3272 1645 3428 
Q 1925 3584 2291 3584 
Q 2894 3584 3203 3211 
Q 3513 2838 3513 2113 
z
" transform="scale(0.015625)"/>
      </defs>
      <use xlink:href="#DejaVuSans-43"/>
      <use xlink:href="#DejaVuSans-69" transform="translate(69.824219 0)"/>
      <use xlink:href="#DejaVuSans-72" transform="translate(97.607422 0)"/>
      <use xlink:href="#DejaVuSans-63" transform="translate(136.470703 0)"/>
      <use xlink:href="#DejaVuSans-75" transform="translate(191.451172 0)"/>
      <use xlink:href="#DejaVuSans-69" transform="translate(254.830078 0)"/>
      <use xlink:href="#DejaVuSans-74" transform="translate(282.613281 0)"/>
      <use xlink:href="#DejaVuSans-20" transform="translate(321.822266 0)"/>
      <use xlink:href="#DejaVuSans-44" transform="translate(353.609375 0)"/>
      <use xlink:href="#DejaVuSans-65" transform="translate(430.611328 0)"/>
      <use xlink:href="#DejaVuSans-70" transform="translate(492.134766 0)"/>
      <use xlink:href="#DejaVuSans-74" transform="translate(555.611328 0)"/>
      <use xlink:href="#DejaVuSans-68" transform="translate(594.820312 0)"/>
     </g>
    </g>
   </g>
   <g id="line2d_25">
    <path d="M 77.672289 205.626523 
L 81.775342 202.072869 
L 85.878396 207.813386 
L 89.981449 188.678329 
L 94.084502 209.453534 
L 98.187556 205.079807 
L 102.290609 215.740767 
L 106.393662 209.453534 
L 110.496716 212.733829 
L 114.599769 202.892943 
L 118.702822 198.792574 
L 122.805876 196.332352 
L 126.908929 205.626523 
L 131.011982 213.280545 
L 135.115035 205.079807 
L 139.218089 190.865193 
L 143.321142 218.747705 
L 147.424195 196.332352 
L 151.527249 197.9725 
L 155.630302 206.993312 
L 159.733355 196.058994 
L 163.836409 196.60571 
L 167.939462 193.598773 
L 172.042515 198.792574 
L 176.145569 202.072869 
L 180.248622 202.892943 
L 184.351675 214.373977 
L 188.454728 191.958625 
L 192.557782 196.60571 
L 196.660835 190.045119 
L 200.763888 205.353165 
L 204.866942 210.546966 
L 208.969995 203.166301 
L 213.073048 214.100619 
L 217.176102 207.813386 
L 221.279155 202.346227 
L 225.382208 210.820324 
L 229.485262 210.00025 
L 233.588315 186.218108 
L 237.691368 196.058994 
L 241.794421 190.865193 
L 245.897475 215.740767 
L 250.000528 202.619585 
L 254.103581 185.124676 
L 258.206635 203.439659 
L 262.309688 208.906818 
L 266.412741 205.626523 
L 270.515795 196.058994 
L 274.618848 206.993312 
L 278.721901 206.446596 
L 282.824955 196.879068 
L 286.928008 210.546966 
L 291.031061 203.439659 
L 295.134114 202.346227 
L 299.237168 201.526153 
L 303.340221 205.353165 
L 307.443274 201.252795 
L 311.546328 212.460472 
L 315.649381 188.951687 
L 319.752434 200.159363 
L 323.855488 193.325415 
L 327.958541 213.007187 
L 332.061594 207.813386 
L 336.164648 200.979437 
L 340.267701 198.519216 
L 344.370754 198.245858 
L 348.473807 199.065932 
L 352.576861 196.058994 
L 356.679914 210.546966 
L 360.782967 186.491466 
L 364.886021 204.533091 
L 368.989074 211.36704 
L 373.092127 201.526153 
L 377.195181 210.546966 
L 381.298234 201.252795 
L 385.401287 199.33929 
L 389.50434 217.927631 
L 393.607394 214.373977 
L 397.710447 195.785636 
L 401.8135 196.332352 
L 405.916554 195.23892 
L 410.019607 206.446596 
L 414.12266 200.706079 
L 418.225714 194.692204 
L 422.328767 210.820324 
L 426.43182 209.453534 
L 430.534874 210.820324 
L 434.637927 200.706079 
L 438.74098 192.778699 
L 442.844033 211.36704 
L 446.947087 211.913756 
L 455.153193 198.245858 
L 459.256247 205.353165 
L 463.3593 198.245858 
L 467.462353 216.834199 
L 471.565407 196.60571 
L 475.66846 196.058994 
L 479.771513 197.9725 
L 483.874567 205.079807 
L 487.97762 202.892943 
L 492.080673 206.446596 
L 496.183726 214.647335 
L 500.28678 186.218108 
L 504.389833 206.446596 
L 508.492886 204.533091 
L 512.59594 202.072869 
L 516.698993 210.546966 
L 520.802046 204.533091 
L 524.9051 201.799511 
L 529.008153 205.626523 
L 533.111206 196.879068 
L 537.21426 184.57796 
L 541.317313 197.9725 
L 545.420366 192.505341 
L 549.523419 205.353165 
L 553.626473 176.377221 
L 561.832579 201.252795 
L 565.935633 206.446596 
L 570.038686 208.360102 
L 574.141739 208.360102 
L 578.244793 196.332352 
L 582.347846 206.719954 
L 586.450899 204.806449 
L 590.553953 210.273608 
L 594.657006 207.26667 
L 598.760059 207.540028 
L 602.863112 190.865193 
L 606.966166 206.719954 
L 611.069219 207.540028 
L 615.172272 209.180176 
L 619.275326 201.799511 
L 623.378379 213.007187 
L 627.481432 215.194051 
L 631.584486 205.353165 
L 635.687539 208.360102 
L 639.790592 195.23892 
L 643.893646 213.553903 
L 647.996699 203.713017 
L 652.099752 206.719954 
L 656.202805 201.252795 
L 660.305859 215.740767 
L 664.408912 207.26667 
L 668.511965 205.626523 
L 672.615019 194.418846 
L 676.718072 211.36704 
L 676.718072 211.36704 
" clip-path="url(#p85679ec011)" style="fill: none; stroke: #1f77b4; stroke-width: 1.5; stroke-linecap: square"/>
   </g>
   <g id="patch_3">
    <path d="M 47.72 390.04 
L 47.72 12.282553 
" style="fill: none; stroke: #000000; stroke-width: 0.8; stroke-linejoin: miter; stroke-linecap: square"/>
   </g>
   <g id="patch_4">
    <path d="M 706.670361 390.04 
L 706.670361 12.282553 
" style="fill: none; stroke: #000000; stroke-width: 0.8; stroke-linejoin: miter; stroke-linecap: square"/>
   </g>
   <g id="patch_5">
    <path d="M 47.72 390.04 
L 706.670361 390.04 
" style="fill: none; stroke: #000000; stroke-width: 0.8; stroke-linejoin: miter; stroke-linecap: square"/>
   </g>
   <g id="patch_6">
    <path d="M 47.72 12.282553 
L 706.670361 12.282553 
" style="fill: none; stroke: #000000; stroke-width: 0.8; stroke-linejoin: miter; stroke-linecap: square"/>
   </g>
  </g>
 </g>
 <defs>
  <clipPath id="p85679ec011">
   <rect x="47.72" y="12.282553" width="658.950361" height="377.757447"/>
  </clipPath>
 </defs>
</svg>
