<?xml version="1.0" encoding="utf-8" standalone="no"?>
<!DOCTYPE svg PUBLIC "-//W3C//DTD SVG 1.1//EN"
  "http://www.w3.org/Graphics/SVG/1.1/DTD/svg11.dtd">
<svg xmlns:xlink="http://www.w3.org/1999/xlink" width="720pt" height="432pt" viewBox="0 0 720 432" xmlns="http://www.w3.org/2000/svg" version="1.1">
 <metadata>
  <rdf:RDF xmlns:dc="http://purl.org/dc/elements/1.1/" xmlns:cc="http://creativecommons.org/ns#" xmlns:rdf="http://www.w3.org/1999/02/22-rdf-syntax-ns#">
   <cc:Work>
    <dc:type rdf:resource="http://purl.org/dc/dcmitype/StillImage"/>
    <dc:date>2025-04-15T14:19:09.759133</dc:date>
    <dc:format>image/svg+xml</dc:format>
    <dc:creator>
     <cc:Agent>
      <dc:title>Matplotlib v3.10.0, https://matplotlib.org/</dc:title>
     </cc:Agent>
    </dc:creator>
   </cc:Work>
  </rdf:RDF>
 </metadata>
 <defs>
  <style type="text/css">*{stroke-linejoin: round; stroke-linecap: butt}</style>
 </defs>
 <g id="figure_1">
  <g id="patch_1">
   <path d="M 0 432 
L 720 432 
L 720 0 
L 0 0 
z
" style="fill: #ffffff"/>
  </g>
  <g id="axes_1">
   <g id="patch_2">
    <path d="M 47.72 390.04 
L 703.102855 390.04 
L 703.102855 10.8 
L 47.72 10.8 
z
" style="fill: #ffffff"/>
   </g>
   <g id="FillBetweenPolyCollection_1">
    <path d="M 77.51013 213.023037 
L 77.51013 372.801818 
L 79.972124 367.702753 
L 82.434118 352.866905 
L 84.896112 346.661335 
L 87.358107 352.54923 
L 89.820101 343.62982 
L 92.282095 349.277259 
L 94.744089 351.635237 
L 97.206083 334.511942 
L 99.668078 334.8935 
L 102.130072 318.539353 
L 104.592066 274.802878 
L 107.05406 258.341004 
L 109.516054 236.375721 
L 111.978049 201.645685 
L 114.440043 168.695633 
L 116.902037 139.732296 
L 119.364031 96.557683 
L 121.826025 73.493981 
L 124.288019 71.864969 
L 126.750014 59.933 
L 129.212008 43.126635 
L 131.674002 47.694227 
L 134.135996 39.893395 
L 136.59799 47.694227 
L 139.059985 44.255703 
L 141.521979 37.019404 
L 143.983973 42.6222 
L 146.445967 35.325802 
L 148.907961 39.842073 
L 151.369956 40.663214 
L 153.83195 41.484354 
L 156.293944 35.685051 
L 158.755938 37.327331 
L 161.217932 35.428444 
L 163.679927 36.075623 
L 166.141921 33.580879 
L 168.603915 33.6322 
L 171.065909 31.579349 
L 173.527903 33.6322 
L 175.989898 31.322743 
L 178.451892 32.297847 
L 180.913886 39.020933 
L 183.37588 34.607304 
L 185.837874 33.888806 
L 188.299869 31.528028 
L 190.761863 30.876513 
L 193.223857 36.660155 
L 195.685851 29.064607 
L 198.147845 29.885747 
L 200.60984 31.014815 
L 203.071834 35.941657 
L 205.533828 31.425386 
L 207.995822 34.812589 
L 210.457816 29.115928 
L 212.919811 29.98839 
L 215.381805 31.322743 
L 217.843799 31.681992 
L 220.305793 37.789223 
L 222.767787 35.736372 
L 225.229782 112.021661 
L 227.691776 59.498119 
L 230.15377 41.946246 
L 232.615764 94.858473 
L 235.077758 83.640999 
L 237.539753 36.352227 
L 240.001747 63.141929 
L 242.463741 136.874032 
L 244.925735 62.122263 
L 247.387729 40.971141 
L 249.849723 54.547969 
L 252.311718 45.868545 
L 254.773712 47.078372 
L 257.235706 74.860945 
L 259.6977 104.975372 
L 262.159694 80.1548 
L 264.621689 40.926428 
L 267.083683 47.289089 
L 269.545677 38.924899 
L 272.007671 36.095621 
L 274.469665 34.71821 
L 276.93166 36.609428 
L 279.393654 38.251114 
L 281.855648 33.478236 
L 284.317642 55.742042 
L 286.779636 39.174897 
L 289.241631 37.563939 
L 291.703625 41.535675 
L 294.165619 32.503132 
L 296.627613 40.406607 
L 299.089607 35.231868 
L 301.551602 29.321213 
L 304.013596 36.67856 
L 306.47559 29.423856 
L 308.937584 30.604245 
L 311.399578 41.321543 
L 313.861573 144.262626 
L 316.323567 94.484712 
L 318.785561 54.058064 
L 321.247555 29.937663 
L 323.709549 30.193675 
L 326.171544 51.163012 
L 328.633538 44.128408 
L 331.095532 35.171838 
L 333.557526 32.554453 
L 336.01952 34.607304 
L 338.481515 35.992978 
L 340.943509 34.915232 
L 343.405503 32.196136 
L 345.867497 28.808001 
L 348.329491 37.583938 
L 350.791486 34.761268 
L 353.25348 29.57782 
L 355.715474 36.300906 
L 358.177468 37.276942 
L 360.639462 33.118987 
L 363.101457 33.683521 
L 365.563451 32.143883 
L 368.025445 40.817177 
L 370.487439 39.689041 
L 372.949433 39.585467 
L 375.411427 35.685051 
L 377.873422 31.887277 
L 380.335416 58.574336 
L 382.79741 39.842073 
L 385.259404 34.248055 
L 387.721398 36.660155 
L 390.183393 32.451811 
L 392.645387 31.528028 
L 395.107381 31.117458 
L 397.569375 31.425385 
L 400.031369 32.092562 
L 402.493364 30.039711 
L 404.955358 28.346109 
L 407.417352 48.374247 
L 409.879346 262.134495 
L 412.34134 73.019194 
L 414.803335 38.918291 
L 417.265329 41.227748 
L 419.727323 37.481295 
L 422.189317 37.358654 
L 424.651311 36.301631 
L 427.113306 43.588526 
L 429.5753 57.875175 
L 432.037294 150.721094 
L 434.499288 49.798399 
L 436.961282 80.235638 
L 439.423277 64.785142 
L 441.885271 35.274481 
L 444.347265 33.324272 
L 446.809259 29.937069 
L 449.271253 32.708417 
L 451.733248 29.526499 
L 454.195242 28.140824 
L 456.657236 32.605775 
L 459.11923 32.965024 
L 461.581224 33.170309 
L 464.043219 29.372535 
L 466.505213 30.758209 
L 468.967207 62.059346 
L 471.429201 54.981848 
L 473.891195 32.195205 
L 476.35319 34.86391 
L 478.815184 32.657096 
L 481.277178 33.734843 
L 483.739172 35.171838 
L 486.201166 31.887277 
L 488.663161 84.748183 
L 491.125155 47.232336 
L 493.587149 50.20897 
L 496.049143 33.888806 
L 498.511137 41.110595 
L 500.973131 34.248055 
L 503.435126 35.017874 
L 505.89712 119.225795 
L 508.359114 257.621962 
L 510.821108 114.007698 
L 513.283102 33.375594 
L 515.745097 30.655566 
L 518.207091 32.40049 
L 520.669085 30.501603 
L 523.131079 33.901998 
L 525.593073 32.81106 
L 528.055068 31.989919 
L 530.517062 34.504662 
L 532.979056 29.885747 
L 535.44105 42.562101 
L 537.903044 40.168406 
L 540.365039 39.884047 
L 542.827033 30.244996 
L 545.289027 30.193675 
L 547.751021 32.092562 
L 550.213015 30.80953 
L 552.67501 71.650111 
L 555.137004 56.935748 
L 557.598998 39.397599 
L 560.060992 31.938598 
L 562.522986 29.526499 
L 564.984981 29.321213 
L 567.446975 29.98839 
L 569.908969 30.450281 
L 572.370963 28.910643 
L 574.832957 35.069195 
L 577.294952 31.784634 
L 579.756946 46.000625 
L 582.21894 43.691168 
L 584.680934 46.83854 
L 587.142928 33.324272 
L 589.604923 36.494477 
L 592.066917 30.39896 
L 594.528911 33.016345 
L 596.990905 29.629141 
L 599.452899 28.961965 
L 601.914894 30.244996 
L 604.376888 30.963494 
L 606.838882 37.070725 
L 609.300876 30.706888 
L 611.76287 34.196734 
L 614.224865 32.913702 
L 616.686859 33.734842 
L 619.148853 33.478236 
L 621.610847 36.45487 
L 624.072841 31.835956 
L 626.534835 38.405078 
L 628.99683 32.605775 
L 631.458824 33.426915 
L 633.920818 29.013286 
L 636.382812 32.862381 
L 638.844806 29.013286 
L 641.306801 32.349168 
L 643.768795 110.301972 
L 646.230789 54.281489 
L 648.692783 35.830125 
L 651.154777 30.552924 
L 653.616772 43.793811 
L 656.078766 36.095621 
L 658.54076 36.557512 
L 661.002754 36.711476 
L 663.464748 29.885747 
L 665.926743 31.887277 
L 668.388737 33.118987 
L 670.850731 31.2201 
L 673.312725 31.835956 
L 673.312725 28.038182 
L 673.312725 28.038182 
L 670.850731 28.038182 
L 668.388737 28.038182 
L 665.926743 28.038182 
L 663.464748 28.038182 
L 661.002754 28.038182 
L 658.54076 28.038182 
L 656.078766 28.038182 
L 653.616772 28.038182 
L 651.154777 28.038182 
L 648.692783 28.038182 
L 646.230789 28.038182 
L 643.768795 28.038182 
L 641.306801 28.038182 
L 638.844806 28.038182 
L 636.382812 28.038182 
L 633.920818 28.038182 
L 631.458824 28.038182 
L 628.99683 28.038182 
L 626.534835 28.038182 
L 624.072841 28.038182 
L 621.610847 28.038182 
L 619.148853 28.038182 
L 616.686859 28.038182 
L 614.224865 28.038182 
L 611.76287 28.038182 
L 609.300876 28.038182 
L 606.838882 28.038182 
L 604.376888 28.038182 
L 601.914894 28.038182 
L 599.452899 28.038182 
L 596.990905 28.038182 
L 594.528911 28.038182 
L 592.066917 28.038182 
L 589.604923 28.038182 
L 587.142928 28.038182 
L 584.680934 28.038182 
L 582.21894 28.038182 
L 579.756946 28.038182 
L 577.294952 28.038182 
L 574.832957 28.038182 
L 572.370963 28.038182 
L 569.908969 28.038182 
L 567.446975 28.038182 
L 564.984981 28.038182 
L 562.522986 28.038182 
L 560.060992 28.038182 
L 557.598998 28.038182 
L 555.137004 28.038182 
L 552.67501 28.038182 
L 550.213015 28.038182 
L 547.751021 28.038182 
L 545.289027 28.038182 
L 542.827033 28.038182 
L 540.365039 28.038182 
L 537.903044 28.038182 
L 535.44105 28.038182 
L 532.979056 28.038182 
L 530.517062 28.038182 
L 528.055068 28.038182 
L 525.593073 28.038182 
L 523.131079 28.038182 
L 520.669085 28.038182 
L 518.207091 28.038182 
L 515.745097 28.038182 
L 513.283102 28.038182 
L 510.821108 28.038182 
L 508.359114 28.038182 
L 505.89712 28.038182 
L 503.435126 28.038182 
L 500.973131 28.038182 
L 498.511137 28.038182 
L 496.049143 28.038182 
L 493.587149 28.038182 
L 491.125155 28.038182 
L 488.663161 28.038182 
L 486.201166 28.038182 
L 483.739172 28.038182 
L 481.277178 28.038182 
L 478.815184 28.038182 
L 476.35319 28.038182 
L 473.891195 28.038182 
L 471.429201 28.038182 
L 468.967207 28.038182 
L 466.505213 28.038182 
L 464.043219 28.038182 
L 461.581224 28.038182 
L 459.11923 28.038182 
L 456.657236 28.038182 
L 454.195242 28.038182 
L 451.733248 28.038182 
L 449.271253 28.038182 
L 446.809259 28.038182 
L 444.347265 28.038182 
L 441.885271 28.038182 
L 439.423277 28.038182 
L 436.961282 28.038182 
L 434.499288 28.038182 
L 432.037294 28.038182 
L 429.5753 28.038182 
L 427.113306 28.038182 
L 424.651311 28.038182 
L 422.189317 28.038182 
L 419.727323 28.038182 
L 417.265329 28.038182 
L 414.803335 28.038182 
L 412.34134 28.038182 
L 409.879346 28.038182 
L 407.417352 28.038182 
L 404.955358 28.038182 
L 402.493364 28.038182 
L 400.031369 28.038182 
L 397.569375 28.038182 
L 395.107381 28.038182 
L 392.645387 28.038182 
L 390.183393 28.038182 
L 387.721398 28.038182 
L 385.259404 28.038182 
L 382.79741 28.038182 
L 380.335416 28.038182 
L 377.873422 28.038182 
L 375.411427 28.038182 
L 372.949433 28.038182 
L 370.487439 28.038182 
L 368.025445 28.038182 
L 365.563451 28.038182 
L 363.101457 28.038182 
L 360.639462 28.038182 
L 358.177468 28.038182 
L 355.715474 28.038182 
L 353.25348 28.038182 
L 350.791486 28.038182 
L 348.329491 28.038182 
L 345.867497 28.038182 
L 343.405503 28.038182 
L 340.943509 28.038182 
L 338.481515 28.038182 
L 336.01952 28.038182 
L 333.557526 28.038182 
L 331.095532 28.038182 
L 328.633538 28.038182 
L 326.171544 28.038182 
L 323.709549 28.038182 
L 321.247555 28.038182 
L 318.785561 28.038182 
L 316.323567 28.038182 
L 313.861573 28.038182 
L 311.399578 28.038182 
L 308.937584 28.038182 
L 306.47559 28.038182 
L 304.013596 28.038182 
L 301.551602 28.038182 
L 299.089607 28.038182 
L 296.627613 28.038182 
L 294.165619 28.038182 
L 291.703625 28.038182 
L 289.241631 28.038182 
L 286.779636 28.038182 
L 284.317642 28.038182 
L 281.855648 28.038182 
L 279.393654 28.038182 
L 276.93166 28.038182 
L 274.469665 28.038182 
L 272.007671 28.038182 
L 269.545677 28.038182 
L 267.083683 28.038182 
L 264.621689 28.038182 
L 262.159694 28.038182 
L 259.6977 28.038182 
L 257.235706 28.038182 
L 254.773712 28.038182 
L 252.311718 28.038182 
L 249.849723 28.038182 
L 247.387729 28.038182 
L 244.925735 28.038182 
L 242.463741 28.038182 
L 240.001747 28.038182 
L 237.539753 28.038182 
L 235.077758 28.038182 
L 232.615764 28.038182 
L 230.15377 28.038182 
L 227.691776 28.038182 
L 225.229782 28.038182 
L 222.767787 28.038182 
L 220.305793 28.038182 
L 217.843799 28.038182 
L 215.381805 28.038182 
L 212.919811 28.038182 
L 210.457816 28.038182 
L 207.995822 28.038182 
L 205.533828 28.038182 
L 203.071834 28.038182 
L 200.60984 28.038182 
L 198.147845 28.038182 
L 195.685851 28.038182 
L 193.223857 28.038182 
L 190.761863 28.038182 
L 188.299869 28.038182 
L 185.837874 28.038182 
L 183.37588 28.038182 
L 180.913886 28.038182 
L 178.451892 28.038182 
L 175.989898 28.038182 
L 173.527903 28.038182 
L 171.065909 28.038182 
L 168.603915 28.038182 
L 166.141921 28.038182 
L 163.679927 28.038182 
L 161.217932 28.038182 
L 158.755938 28.038182 
L 156.293944 28.038182 
L 153.83195 28.038182 
L 151.369956 28.038182 
L 148.907961 28.038182 
L 146.445967 28.038182 
L 143.983973 28.038182 
L 141.521979 28.038182 
L 139.059985 28.038182 
L 136.59799 28.038182 
L 134.135996 28.038182 
L 131.674002 28.038182 
L 129.212008 28.038182 
L 126.750014 28.038182 
L 124.288019 28.038182 
L 121.826025 28.038182 
L 119.364031 28.038182 
L 116.902037 28.038182 
L 114.440043 28.038182 
L 111.978049 28.038182 
L 109.516054 38.615168 
L 107.05406 57.295114 
L 104.592066 66.85299 
L 102.130072 92.034839 
L 99.668078 116.666048 
L 97.206083 122.447128 
L 94.744089 148.264923 
L 92.282095 177.705548 
L 89.820101 186.839292 
L 87.358107 192.205235 
L 84.896112 199.326091 
L 82.434118 199.92307 
L 79.972124 210.809362 
L 77.51013 213.023037 
z
" clip-path="url(#p08460bbe4b)" style="fill: #1f77b4; fill-opacity: 0.2"/>
   </g>
   <g id="matplotlib.axis_1">
    <g id="xtick_1">
     <g id="line2d_1">
      <path d="M 76.266823 390.04 
L 76.266823 10.8 
" clip-path="url(#p08460bbe4b)" style="fill: none; stroke: #b0b0b0; stroke-width: 0.8; stroke-linecap: square"/>
     </g>
     <g id="line2d_2">
      <defs>
       <path id="mecb1af23a3" d="M 0 0 
L 0 3.5 
" style="stroke: #000000; stroke-width: 0.8"/>
      </defs>
      <g>
       <use xlink:href="#mecb1af23a3" x="76.266823" y="390.04" style="stroke: #000000; stroke-width: 0.8"/>
      </g>
     </g>
     <g id="text_1">
      <!-- 0 -->
      <g transform="translate(73.085573 404.638438) scale(0.1 -0.1)">
       <defs>
        <path id="DejaVuSans-30" d="M 2034 4250 
Q 1547 4250 1301 3770 
Q 1056 3291 1056 2328 
Q 1056 1369 1301 889 
Q 1547 409 2034 409 
Q 2525 409 2770 889 
Q 3016 1369 3016 2328 
Q 3016 3291 2770 3770 
Q 2525 4250 2034 4250 
z
M 2034 4750 
Q 2819 4750 3233 4129 
Q 3647 3509 3647 2328 
Q 3647 1150 3233 529 
Q 2819 -91 2034 -91 
Q 1250 -91 836 529 
Q 422 1150 422 2328 
Q 422 3509 836 4129 
Q 1250 4750 2034 4750 
z
" transform="scale(0.015625)"/>
       </defs>
       <use xlink:href="#DejaVuSans-30"/>
      </g>
     </g>
    </g>
    <g id="xtick_2">
     <g id="line2d_3">
      <path d="M 199.366533 390.04 
L 199.366533 10.8 
" clip-path="url(#p08460bbe4b)" style="fill: none; stroke: #b0b0b0; stroke-width: 0.8; stroke-linecap: square"/>
     </g>
     <g id="line2d_4">
      <g>
       <use xlink:href="#mecb1af23a3" x="199.366533" y="390.04" style="stroke: #000000; stroke-width: 0.8"/>
      </g>
     </g>
     <g id="text_2">
      <!-- 10000 -->
      <g transform="translate(183.460283 404.638438) scale(0.1 -0.1)">
       <defs>
        <path id="DejaVuSans-31" d="M 794 531 
L 1825 531 
L 1825 4091 
L 703 3866 
L 703 4441 
L 1819 4666 
L 2450 4666 
L 2450 531 
L 3481 531 
L 3481 0 
L 794 0 
L 794 531 
z
" transform="scale(0.015625)"/>
       </defs>
       <use xlink:href="#DejaVuSans-31"/>
       <use xlink:href="#DejaVuSans-30" transform="translate(63.623047 0)"/>
       <use xlink:href="#DejaVuSans-30" transform="translate(127.246094 0)"/>
       <use xlink:href="#DejaVuSans-30" transform="translate(190.869141 0)"/>
       <use xlink:href="#DejaVuSans-30" transform="translate(254.492188 0)"/>
      </g>
     </g>
    </g>
    <g id="xtick_3">
     <g id="line2d_5">
      <path d="M 322.466242 390.04 
L 322.466242 10.8 
" clip-path="url(#p08460bbe4b)" style="fill: none; stroke: #b0b0b0; stroke-width: 0.8; stroke-linecap: square"/>
     </g>
     <g id="line2d_6">
      <g>
       <use xlink:href="#mecb1af23a3" x="322.466242" y="390.04" style="stroke: #000000; stroke-width: 0.8"/>
      </g>
     </g>
     <g id="text_3">
      <!-- 20000 -->
      <g transform="translate(306.559992 404.638438) scale(0.1 -0.1)">
       <defs>
        <path id="DejaVuSans-32" d="M 1228 531 
L 3431 531 
L 3431 0 
L 469 0 
L 469 531 
Q 828 903 1448 1529 
Q 2069 2156 2228 2338 
Q 2531 2678 2651 2914 
Q 2772 3150 2772 3378 
Q 2772 3750 2511 3984 
Q 2250 4219 1831 4219 
Q 1534 4219 1204 4116 
Q 875 4013 500 3803 
L 500 4441 
Q 881 4594 1212 4672 
Q 1544 4750 1819 4750 
Q 2544 4750 2975 4387 
Q 3406 4025 3406 3419 
Q 3406 3131 3298 2873 
Q 3191 2616 2906 2266 
Q 2828 2175 2409 1742 
Q 1991 1309 1228 531 
z
" transform="scale(0.015625)"/>
       </defs>
       <use xlink:href="#DejaVuSans-32"/>
       <use xlink:href="#DejaVuSans-30" transform="translate(63.623047 0)"/>
       <use xlink:href="#DejaVuSans-30" transform="translate(127.246094 0)"/>
       <use xlink:href="#DejaVuSans-30" transform="translate(190.869141 0)"/>
       <use xlink:href="#DejaVuSans-30" transform="translate(254.492188 0)"/>
      </g>
     </g>
    </g>
    <g id="xtick_4">
     <g id="line2d_7">
      <path d="M 445.565952 390.04 
L 445.565952 10.8 
" clip-path="url(#p08460bbe4b)" style="fill: none; stroke: #b0b0b0; stroke-width: 0.8; stroke-linecap: square"/>
     </g>
     <g id="line2d_8">
      <g>
       <use xlink:href="#mecb1af23a3" x="445.565952" y="390.04" style="stroke: #000000; stroke-width: 0.8"/>
      </g>
     </g>
     <g id="text_4">
      <!-- 30000 -->
      <g transform="translate(429.659702 404.638438) scale(0.1 -0.1)">
       <defs>
        <path id="DejaVuSans-33" d="M 2597 2516 
Q 3050 2419 3304 2112 
Q 3559 1806 3559 1356 
Q 3559 666 3084 287 
Q 2609 -91 1734 -91 
Q 1441 -91 1130 -33 
Q 819 25 488 141 
L 488 750 
Q 750 597 1062 519 
Q 1375 441 1716 441 
Q 2309 441 2620 675 
Q 2931 909 2931 1356 
Q 2931 1769 2642 2001 
Q 2353 2234 1838 2234 
L 1294 2234 
L 1294 2753 
L 1863 2753 
Q 2328 2753 2575 2939 
Q 2822 3125 2822 3475 
Q 2822 3834 2567 4026 
Q 2313 4219 1838 4219 
Q 1578 4219 1281 4162 
Q 984 4106 628 3988 
L 628 4550 
Q 988 4650 1302 4700 
Q 1616 4750 1894 4750 
Q 2613 4750 3031 4423 
Q 3450 4097 3450 3541 
Q 3450 3153 3228 2886 
Q 3006 2619 2597 2516 
z
" transform="scale(0.015625)"/>
       </defs>
       <use xlink:href="#DejaVuSans-33"/>
       <use xlink:href="#DejaVuSans-30" transform="translate(63.623047 0)"/>
       <use xlink:href="#DejaVuSans-30" transform="translate(127.246094 0)"/>
       <use xlink:href="#DejaVuSans-30" transform="translate(190.869141 0)"/>
       <use xlink:href="#DejaVuSans-30" transform="translate(254.492188 0)"/>
      </g>
     </g>
    </g>
    <g id="xtick_5">
     <g id="line2d_9">
      <path d="M 568.665662 390.04 
L 568.665662 10.8 
" clip-path="url(#p08460bbe4b)" style="fill: none; stroke: #b0b0b0; stroke-width: 0.8; stroke-linecap: square"/>
     </g>
     <g id="line2d_10">
      <g>
       <use xlink:href="#mecb1af23a3" x="568.665662" y="390.04" style="stroke: #000000; stroke-width: 0.8"/>
      </g>
     </g>
     <g id="text_5">
      <!-- 40000 -->
      <g transform="translate(552.759412 404.638438) scale(0.1 -0.1)">
       <defs>
        <path id="DejaVuSans-34" d="M 2419 4116 
L 825 1625 
L 2419 1625 
L 2419 4116 
z
M 2253 4666 
L 3047 4666 
L 3047 1625 
L 3713 1625 
L 3713 1100 
L 3047 1100 
L 3047 0 
L 2419 0 
L 2419 1100 
L 313 1100 
L 313 1709 
L 2253 4666 
z
" transform="scale(0.015625)"/>
       </defs>
       <use xlink:href="#DejaVuSans-34"/>
       <use xlink:href="#DejaVuSans-30" transform="translate(63.623047 0)"/>
       <use xlink:href="#DejaVuSans-30" transform="translate(127.246094 0)"/>
       <use xlink:href="#DejaVuSans-30" transform="translate(190.869141 0)"/>
       <use xlink:href="#DejaVuSans-30" transform="translate(254.492188 0)"/>
      </g>
     </g>
    </g>
    <g id="xtick_6">
     <g id="line2d_11">
      <path d="M 691.765372 390.04 
L 691.765372 10.8 
" clip-path="url(#p08460bbe4b)" style="fill: none; stroke: #b0b0b0; stroke-width: 0.8; stroke-linecap: square"/>
     </g>
     <g id="line2d_12">
      <g>
       <use xlink:href="#mecb1af23a3" x="691.765372" y="390.04" style="stroke: #000000; stroke-width: 0.8"/>
      </g>
     </g>
     <g id="text_6">
      <!-- 50000 -->
      <g transform="translate(675.859122 404.638438) scale(0.1 -0.1)">
       <defs>
        <path id="DejaVuSans-35" d="M 691 4666 
L 3169 4666 
L 3169 4134 
L 1269 4134 
L 1269 2991 
Q 1406 3038 1543 3061 
Q 1681 3084 1819 3084 
Q 2600 3084 3056 2656 
Q 3513 2228 3513 1497 
Q 3513 744 3044 326 
Q 2575 -91 1722 -91 
Q 1428 -91 1123 -41 
Q 819 9 494 109 
L 494 744 
Q 775 591 1075 516 
Q 1375 441 1709 441 
Q 2250 441 2565 725 
Q 2881 1009 2881 1497 
Q 2881 1984 2565 2268 
Q 2250 2553 1709 2553 
Q 1456 2553 1204 2497 
Q 953 2441 691 2322 
L 691 4666 
z
" transform="scale(0.015625)"/>
       </defs>
       <use xlink:href="#DejaVuSans-35"/>
       <use xlink:href="#DejaVuSans-30" transform="translate(63.623047 0)"/>
       <use xlink:href="#DejaVuSans-30" transform="translate(127.246094 0)"/>
       <use xlink:href="#DejaVuSans-30" transform="translate(190.869141 0)"/>
       <use xlink:href="#DejaVuSans-30" transform="translate(254.492188 0)"/>
      </g>
     </g>
    </g>
    <g id="text_7">
     <!-- Episodes -->
     <g transform="translate(353.16924 418.316562) scale(0.1 -0.1)">
      <defs>
       <path id="DejaVuSans-45" d="M 628 4666 
L 3578 4666 
L 3578 4134 
L 1259 4134 
L 1259 2753 
L 3481 2753 
L 3481 2222 
L 1259 2222 
L 1259 531 
L 3634 531 
L 3634 0 
L 628 0 
L 628 4666 
z
" transform="scale(0.015625)"/>
       <path id="DejaVuSans-70" d="M 1159 525 
L 1159 -1331 
L 581 -1331 
L 581 3500 
L 1159 3500 
L 1159 2969 
Q 1341 3281 1617 3432 
Q 1894 3584 2278 3584 
Q 2916 3584 3314 3078 
Q 3713 2572 3713 1747 
Q 3713 922 3314 415 
Q 2916 -91 2278 -91 
Q 1894 -91 1617 61 
Q 1341 213 1159 525 
z
M 3116 1747 
Q 3116 2381 2855 2742 
Q 2594 3103 2138 3103 
Q 1681 3103 1420 2742 
Q 1159 2381 1159 1747 
Q 1159 1113 1420 752 
Q 1681 391 2138 391 
Q 2594 391 2855 752 
Q 3116 1113 3116 1747 
z
" transform="scale(0.015625)"/>
       <path id="DejaVuSans-69" d="M 603 3500 
L 1178 3500 
L 1178 0 
L 603 0 
L 603 3500 
z
M 603 4863 
L 1178 4863 
L 1178 4134 
L 603 4134 
L 603 4863 
z
" transform="scale(0.015625)"/>
       <path id="DejaVuSans-73" d="M 2834 3397 
L 2834 2853 
Q 2591 2978 2328 3040 
Q 2066 3103 1784 3103 
Q 1356 3103 1142 2972 
Q 928 2841 928 2578 
Q 928 2378 1081 2264 
Q 1234 2150 1697 2047 
L 1894 2003 
Q 2506 1872 2764 1633 
Q 3022 1394 3022 966 
Q 3022 478 2636 193 
Q 2250 -91 1575 -91 
Q 1294 -91 989 -36 
Q 684 19 347 128 
L 347 722 
Q 666 556 975 473 
Q 1284 391 1588 391 
Q 1994 391 2212 530 
Q 2431 669 2431 922 
Q 2431 1156 2273 1281 
Q 2116 1406 1581 1522 
L 1381 1569 
Q 847 1681 609 1914 
Q 372 2147 372 2553 
Q 372 3047 722 3315 
Q 1072 3584 1716 3584 
Q 2034 3584 2315 3537 
Q 2597 3491 2834 3397 
z
" transform="scale(0.015625)"/>
       <path id="DejaVuSans-6f" d="M 1959 3097 
Q 1497 3097 1228 2736 
Q 959 2375 959 1747 
Q 959 1119 1226 758 
Q 1494 397 1959 397 
Q 2419 397 2687 759 
Q 2956 1122 2956 1747 
Q 2956 2369 2687 2733 
Q 2419 3097 1959 3097 
z
M 1959 3584 
Q 2709 3584 3137 3096 
Q 3566 2609 3566 1747 
Q 3566 888 3137 398 
Q 2709 -91 1959 -91 
Q 1206 -91 779 398 
Q 353 888 353 1747 
Q 353 2609 779 3096 
Q 1206 3584 1959 3584 
z
" transform="scale(0.015625)"/>
       <path id="DejaVuSans-64" d="M 2906 2969 
L 2906 4863 
L 3481 4863 
L 3481 0 
L 2906 0 
L 2906 525 
Q 2725 213 2448 61 
Q 2172 -91 1784 -91 
Q 1150 -91 751 415 
Q 353 922 353 1747 
Q 353 2572 751 3078 
Q 1150 3584 1784 3584 
Q 2172 3584 2448 3432 
Q 2725 3281 2906 2969 
z
M 947 1747 
Q 947 1113 1208 752 
Q 1469 391 1925 391 
Q 2381 391 2643 752 
Q 2906 1113 2906 1747 
Q 2906 2381 2643 2742 
Q 2381 3103 1925 3103 
Q 1469 3103 1208 2742 
Q 947 2381 947 1747 
z
" transform="scale(0.015625)"/>
       <path id="DejaVuSans-65" d="M 3597 1894 
L 3597 1613 
L 953 1613 
Q 991 1019 1311 708 
Q 1631 397 2203 397 
Q 2534 397 2845 478 
Q 3156 559 3463 722 
L 3463 178 
Q 3153 47 2828 -22 
Q 2503 -91 2169 -91 
Q 1331 -91 842 396 
Q 353 884 353 1716 
Q 353 2575 817 3079 
Q 1281 3584 2069 3584 
Q 2775 3584 3186 3129 
Q 3597 2675 3597 1894 
z
M 3022 2063 
Q 3016 2534 2758 2815 
Q 2500 3097 2075 3097 
Q 1594 3097 1305 2825 
Q 1016 2553 972 2059 
L 3022 2063 
z
" transform="scale(0.015625)"/>
      </defs>
      <use xlink:href="#DejaVuSans-45"/>
      <use xlink:href="#DejaVuSans-70" transform="translate(63.183594 0)"/>
      <use xlink:href="#DejaVuSans-69" transform="translate(126.660156 0)"/>
      <use xlink:href="#DejaVuSans-73" transform="translate(154.443359 0)"/>
      <use xlink:href="#DejaVuSans-6f" transform="translate(206.542969 0)"/>
      <use xlink:href="#DejaVuSans-64" transform="translate(267.724609 0)"/>
      <use xlink:href="#DejaVuSans-65" transform="translate(331.201172 0)"/>
      <use xlink:href="#DejaVuSans-73" transform="translate(392.724609 0)"/>
     </g>
    </g>
   </g>
   <g id="matplotlib.axis_2">
    <g id="ytick_1">
     <g id="line2d_13">
      <path d="M 47.72 372.417228 
L 703.102855 372.417228 
" clip-path="url(#p08460bbe4b)" style="fill: none; stroke: #b0b0b0; stroke-width: 0.8; stroke-linecap: square"/>
     </g>
     <g id="line2d_14">
      <defs>
       <path id="m3e4af2308f" d="M 0 0 
L -3.5 0 
" style="stroke: #000000; stroke-width: 0.8"/>
      </defs>
      <g>
       <use xlink:href="#m3e4af2308f" x="47.72" y="372.417228" style="stroke: #000000; stroke-width: 0.8"/>
      </g>
     </g>
     <g id="text_8">
      <!-- 0.4 -->
      <g transform="translate(24.816875 376.216447) scale(0.1 -0.1)">
       <defs>
        <path id="DejaVuSans-2e" d="M 684 794 
L 1344 794 
L 1344 0 
L 684 0 
L 684 794 
z
" transform="scale(0.015625)"/>
       </defs>
       <use xlink:href="#DejaVuSans-30"/>
       <use xlink:href="#DejaVuSans-2e" transform="translate(63.623047 0)"/>
       <use xlink:href="#DejaVuSans-34" transform="translate(95.410156 0)"/>
      </g>
     </g>
    </g>
    <g id="ytick_2">
     <g id="line2d_15">
      <path d="M 47.72 315.02072 
L 703.102855 315.02072 
" clip-path="url(#p08460bbe4b)" style="fill: none; stroke: #b0b0b0; stroke-width: 0.8; stroke-linecap: square"/>
     </g>
     <g id="line2d_16">
      <g>
       <use xlink:href="#m3e4af2308f" x="47.72" y="315.02072" style="stroke: #000000; stroke-width: 0.8"/>
      </g>
     </g>
     <g id="text_9">
      <!-- 0.5 -->
      <g transform="translate(24.816875 318.819939) scale(0.1 -0.1)">
       <use xlink:href="#DejaVuSans-30"/>
       <use xlink:href="#DejaVuSans-2e" transform="translate(63.623047 0)"/>
       <use xlink:href="#DejaVuSans-35" transform="translate(95.410156 0)"/>
      </g>
     </g>
    </g>
    <g id="ytick_3">
     <g id="line2d_17">
      <path d="M 47.72 257.624212 
L 703.102855 257.624212 
" clip-path="url(#p08460bbe4b)" style="fill: none; stroke: #b0b0b0; stroke-width: 0.8; stroke-linecap: square"/>
     </g>
     <g id="line2d_18">
      <g>
       <use xlink:href="#m3e4af2308f" x="47.72" y="257.624212" style="stroke: #000000; stroke-width: 0.8"/>
      </g>
     </g>
     <g id="text_10">
      <!-- 0.6 -->
      <g transform="translate(24.816875 261.423431) scale(0.1 -0.1)">
       <defs>
        <path id="DejaVuSans-36" d="M 2113 2584 
Q 1688 2584 1439 2293 
Q 1191 2003 1191 1497 
Q 1191 994 1439 701 
Q 1688 409 2113 409 
Q 2538 409 2786 701 
Q 3034 994 3034 1497 
Q 3034 2003 2786 2293 
Q 2538 2584 2113 2584 
z
M 3366 4563 
L 3366 3988 
Q 3128 4100 2886 4159 
Q 2644 4219 2406 4219 
Q 1781 4219 1451 3797 
Q 1122 3375 1075 2522 
Q 1259 2794 1537 2939 
Q 1816 3084 2150 3084 
Q 2853 3084 3261 2657 
Q 3669 2231 3669 1497 
Q 3669 778 3244 343 
Q 2819 -91 2113 -91 
Q 1303 -91 875 529 
Q 447 1150 447 2328 
Q 447 3434 972 4092 
Q 1497 4750 2381 4750 
Q 2619 4750 2861 4703 
Q 3103 4656 3366 4563 
z
" transform="scale(0.015625)"/>
       </defs>
       <use xlink:href="#DejaVuSans-30"/>
       <use xlink:href="#DejaVuSans-2e" transform="translate(63.623047 0)"/>
       <use xlink:href="#DejaVuSans-36" transform="translate(95.410156 0)"/>
      </g>
     </g>
    </g>
    <g id="ytick_4">
     <g id="line2d_19">
      <path d="M 47.72 200.227705 
L 703.102855 200.227705 
" clip-path="url(#p08460bbe4b)" style="fill: none; stroke: #b0b0b0; stroke-width: 0.8; stroke-linecap: square"/>
     </g>
     <g id="line2d_20">
      <g>
       <use xlink:href="#m3e4af2308f" x="47.72" y="200.227705" style="stroke: #000000; stroke-width: 0.8"/>
      </g>
     </g>
     <g id="text_11">
      <!-- 0.7 -->
      <g transform="translate(24.816875 204.026924) scale(0.1 -0.1)">
       <defs>
        <path id="DejaVuSans-37" d="M 525 4666 
L 3525 4666 
L 3525 4397 
L 1831 0 
L 1172 0 
L 2766 4134 
L 525 4134 
L 525 4666 
z
" transform="scale(0.015625)"/>
       </defs>
       <use xlink:href="#DejaVuSans-30"/>
       <use xlink:href="#DejaVuSans-2e" transform="translate(63.623047 0)"/>
       <use xlink:href="#DejaVuSans-37" transform="translate(95.410156 0)"/>
      </g>
     </g>
    </g>
    <g id="ytick_5">
     <g id="line2d_21">
      <path d="M 47.72 142.831197 
L 703.102855 142.831197 
" clip-path="url(#p08460bbe4b)" style="fill: none; stroke: #b0b0b0; stroke-width: 0.8; stroke-linecap: square"/>
     </g>
     <g id="line2d_22">
      <g>
       <use xlink:href="#m3e4af2308f" x="47.72" y="142.831197" style="stroke: #000000; stroke-width: 0.8"/>
      </g>
     </g>
     <g id="text_12">
      <!-- 0.8 -->
      <g transform="translate(24.816875 146.630416) scale(0.1 -0.1)">
       <defs>
        <path id="DejaVuSans-38" d="M 2034 2216 
Q 1584 2216 1326 1975 
Q 1069 1734 1069 1313 
Q 1069 891 1326 650 
Q 1584 409 2034 409 
Q 2484 409 2743 651 
Q 3003 894 3003 1313 
Q 3003 1734 2745 1975 
Q 2488 2216 2034 2216 
z
M 1403 2484 
Q 997 2584 770 2862 
Q 544 3141 544 3541 
Q 544 4100 942 4425 
Q 1341 4750 2034 4750 
Q 2731 4750 3128 4425 
Q 3525 4100 3525 3541 
Q 3525 3141 3298 2862 
Q 3072 2584 2669 2484 
Q 3125 2378 3379 2068 
Q 3634 1759 3634 1313 
Q 3634 634 3220 271 
Q 2806 -91 2034 -91 
Q 1263 -91 848 271 
Q 434 634 434 1313 
Q 434 1759 690 2068 
Q 947 2378 1403 2484 
z
M 1172 3481 
Q 1172 3119 1398 2916 
Q 1625 2713 2034 2713 
Q 2441 2713 2670 2916 
Q 2900 3119 2900 3481 
Q 2900 3844 2670 4047 
Q 2441 4250 2034 4250 
Q 1625 4250 1398 4047 
Q 1172 3844 1172 3481 
z
" transform="scale(0.015625)"/>
       </defs>
       <use xlink:href="#DejaVuSans-30"/>
       <use xlink:href="#DejaVuSans-2e" transform="translate(63.623047 0)"/>
       <use xlink:href="#DejaVuSans-38" transform="translate(95.410156 0)"/>
      </g>
     </g>
    </g>
    <g id="ytick_6">
     <g id="line2d_23">
      <path d="M 47.72 85.434689 
L 703.102855 85.434689 
" clip-path="url(#p08460bbe4b)" style="fill: none; stroke: #b0b0b0; stroke-width: 0.8; stroke-linecap: square"/>
     </g>
     <g id="line2d_24">
      <g>
       <use xlink:href="#m3e4af2308f" x="47.72" y="85.434689" style="stroke: #000000; stroke-width: 0.8"/>
      </g>
     </g>
     <g id="text_13">
      <!-- 0.9 -->
      <g transform="translate(24.816875 89.233908) scale(0.1 -0.1)">
       <defs>
        <path id="DejaVuSans-39" d="M 703 97 
L 703 672 
Q 941 559 1184 500 
Q 1428 441 1663 441 
Q 2288 441 2617 861 
Q 2947 1281 2994 2138 
Q 2813 1869 2534 1725 
Q 2256 1581 1919 1581 
Q 1219 1581 811 2004 
Q 403 2428 403 3163 
Q 403 3881 828 4315 
Q 1253 4750 1959 4750 
Q 2769 4750 3195 4129 
Q 3622 3509 3622 2328 
Q 3622 1225 3098 567 
Q 2575 -91 1691 -91 
Q 1453 -91 1209 -44 
Q 966 3 703 97 
z
M 1959 2075 
Q 2384 2075 2632 2365 
Q 2881 2656 2881 3163 
Q 2881 3666 2632 3958 
Q 2384 4250 1959 4250 
Q 1534 4250 1286 3958 
Q 1038 3666 1038 3163 
Q 1038 2656 1286 2365 
Q 1534 2075 1959 2075 
z
" transform="scale(0.015625)"/>
       </defs>
       <use xlink:href="#DejaVuSans-30"/>
       <use xlink:href="#DejaVuSans-2e" transform="translate(63.623047 0)"/>
       <use xlink:href="#DejaVuSans-39" transform="translate(95.410156 0)"/>
      </g>
     </g>
    </g>
    <g id="ytick_7">
     <g id="line2d_25">
      <path d="M 47.72 28.038182 
L 703.102855 28.038182 
" clip-path="url(#p08460bbe4b)" style="fill: none; stroke: #b0b0b0; stroke-width: 0.8; stroke-linecap: square"/>
     </g>
     <g id="line2d_26">
      <g>
       <use xlink:href="#m3e4af2308f" x="47.72" y="28.038182" style="stroke: #000000; stroke-width: 0.8"/>
      </g>
     </g>
     <g id="text_14">
      <!-- 1.0 -->
      <g transform="translate(24.816875 31.837401) scale(0.1 -0.1)">
       <use xlink:href="#DejaVuSans-31"/>
       <use xlink:href="#DejaVuSans-2e" transform="translate(63.623047 0)"/>
       <use xlink:href="#DejaVuSans-30" transform="translate(95.410156 0)"/>
      </g>
     </g>
    </g>
    <g id="text_15">
     <!-- Accuracy on Test -->
     <g transform="translate(18.737188 242.499688) rotate(-90) scale(0.1 -0.1)">
      <defs>
       <path id="DejaVuSans-41" d="M 2188 4044 
L 1331 1722 
L 3047 1722 
L 2188 4044 
z
M 1831 4666 
L 2547 4666 
L 4325 0 
L 3669 0 
L 3244 1197 
L 1141 1197 
L 716 0 
L 50 0 
L 1831 4666 
z
" transform="scale(0.015625)"/>
       <path id="DejaVuSans-63" d="M 3122 3366 
L 3122 2828 
Q 2878 2963 2633 3030 
Q 2388 3097 2138 3097 
Q 1578 3097 1268 2742 
Q 959 2388 959 1747 
Q 959 1106 1268 751 
Q 1578 397 2138 397 
Q 2388 397 2633 464 
Q 2878 531 3122 666 
L 3122 134 
Q 2881 22 2623 -34 
Q 2366 -91 2075 -91 
Q 1284 -91 818 406 
Q 353 903 353 1747 
Q 353 2603 823 3093 
Q 1294 3584 2113 3584 
Q 2378 3584 2631 3529 
Q 2884 3475 3122 3366 
z
" transform="scale(0.015625)"/>
       <path id="DejaVuSans-75" d="M 544 1381 
L 544 3500 
L 1119 3500 
L 1119 1403 
Q 1119 906 1312 657 
Q 1506 409 1894 409 
Q 2359 409 2629 706 
Q 2900 1003 2900 1516 
L 2900 3500 
L 3475 3500 
L 3475 0 
L 2900 0 
L 2900 538 
Q 2691 219 2414 64 
Q 2138 -91 1772 -91 
Q 1169 -91 856 284 
Q 544 659 544 1381 
z
M 1991 3584 
L 1991 3584 
z
" transform="scale(0.015625)"/>
       <path id="DejaVuSans-72" d="M 2631 2963 
Q 2534 3019 2420 3045 
Q 2306 3072 2169 3072 
Q 1681 3072 1420 2755 
Q 1159 2438 1159 1844 
L 1159 0 
L 581 0 
L 581 3500 
L 1159 3500 
L 1159 2956 
Q 1341 3275 1631 3429 
Q 1922 3584 2338 3584 
Q 2397 3584 2469 3576 
Q 2541 3569 2628 3553 
L 2631 2963 
z
" transform="scale(0.015625)"/>
       <path id="DejaVuSans-61" d="M 2194 1759 
Q 1497 1759 1228 1600 
Q 959 1441 959 1056 
Q 959 750 1161 570 
Q 1363 391 1709 391 
Q 2188 391 2477 730 
Q 2766 1069 2766 1631 
L 2766 1759 
L 2194 1759 
z
M 3341 1997 
L 3341 0 
L 2766 0 
L 2766 531 
Q 2569 213 2275 61 
Q 1981 -91 1556 -91 
Q 1019 -91 701 211 
Q 384 513 384 1019 
Q 384 1609 779 1909 
Q 1175 2209 1959 2209 
L 2766 2209 
L 2766 2266 
Q 2766 2663 2505 2880 
Q 2244 3097 1772 3097 
Q 1472 3097 1187 3025 
Q 903 2953 641 2809 
L 641 3341 
Q 956 3463 1253 3523 
Q 1550 3584 1831 3584 
Q 2591 3584 2966 3190 
Q 3341 2797 3341 1997 
z
" transform="scale(0.015625)"/>
       <path id="DejaVuSans-79" d="M 2059 -325 
Q 1816 -950 1584 -1140 
Q 1353 -1331 966 -1331 
L 506 -1331 
L 506 -850 
L 844 -850 
Q 1081 -850 1212 -737 
Q 1344 -625 1503 -206 
L 1606 56 
L 191 3500 
L 800 3500 
L 1894 763 
L 2988 3500 
L 3597 3500 
L 2059 -325 
z
" transform="scale(0.015625)"/>
       <path id="DejaVuSans-20" transform="scale(0.015625)"/>
       <path id="DejaVuSans-6e" d="M 3513 2113 
L 3513 0 
L 2938 0 
L 2938 2094 
Q 2938 2591 2744 2837 
Q 2550 3084 2163 3084 
Q 1697 3084 1428 2787 
Q 1159 2491 1159 1978 
L 1159 0 
L 581 0 
L 581 3500 
L 1159 3500 
L 1159 2956 
Q 1366 3272 1645 3428 
Q 1925 3584 2291 3584 
Q 2894 3584 3203 3211 
Q 3513 2838 3513 2113 
z
" transform="scale(0.015625)"/>
       <path id="DejaVuSans-54" d="M -19 4666 
L 3928 4666 
L 3928 4134 
L 2272 4134 
L 2272 0 
L 1638 0 
L 1638 4134 
L -19 4134 
L -19 4666 
z
" transform="scale(0.015625)"/>
       <path id="DejaVuSans-74" d="M 1172 4494 
L 1172 3500 
L 2356 3500 
L 2356 3053 
L 1172 3053 
L 1172 1153 
Q 1172 725 1289 603 
Q 1406 481 1766 481 
L 2356 481 
L 2356 0 
L 1766 0 
Q 1100 0 847 248 
Q 594 497 594 1153 
L 594 3053 
L 172 3053 
L 172 3500 
L 594 3500 
L 594 4494 
L 1172 4494 
z
" transform="scale(0.015625)"/>
      </defs>
      <use xlink:href="#DejaVuSans-41"/>
      <use xlink:href="#DejaVuSans-63" transform="translate(66.658203 0)"/>
      <use xlink:href="#DejaVuSans-63" transform="translate(121.638672 0)"/>
      <use xlink:href="#DejaVuSans-75" transform="translate(176.619141 0)"/>
      <use xlink:href="#DejaVuSans-72" transform="translate(239.998047 0)"/>
      <use xlink:href="#DejaVuSans-61" transform="translate(281.111328 0)"/>
      <use xlink:href="#DejaVuSans-63" transform="translate(342.390625 0)"/>
      <use xlink:href="#DejaVuSans-79" transform="translate(397.371094 0)"/>
      <use xlink:href="#DejaVuSans-20" transform="translate(456.550781 0)"/>
      <use xlink:href="#DejaVuSans-6f" transform="translate(488.337891 0)"/>
      <use xlink:href="#DejaVuSans-6e" transform="translate(549.519531 0)"/>
      <use xlink:href="#DejaVuSans-20" transform="translate(612.898438 0)"/>
      <use xlink:href="#DejaVuSans-54" transform="translate(644.685547 0)"/>
      <use xlink:href="#DejaVuSans-65" transform="translate(688.769531 0)"/>
      <use xlink:href="#DejaVuSans-73" transform="translate(750.292969 0)"/>
      <use xlink:href="#DejaVuSans-74" transform="translate(802.392578 0)"/>
     </g>
    </g>
   </g>
   <g id="line2d_27">
    <path d="M 77.51013 292.912428 
L 79.972124 289.256057 
L 82.434118 276.394988 
L 84.896112 272.993713 
L 87.358107 272.377233 
L 89.820101 265.234556 
L 92.282095 263.491403 
L 94.744089 249.95008 
L 97.206083 228.479535 
L 99.668078 225.779774 
L 102.130072 205.287096 
L 104.592066 170.827934 
L 107.05406 157.818059 
L 109.516054 137.495444 
L 111.978049 113.0913 
L 116.902037 78.653397 
L 119.364031 58.628394 
L 121.826025 48.190733 
L 124.288019 46.723933 
L 126.750014 41.4307 
L 129.212008 34.288024 
L 131.674002 36.179982 
L 134.135996 32.948772 
L 136.59799 36.179983 
L 139.059985 34.755699 
L 141.521979 31.758326 
L 143.983973 34.755699 
L 146.445967 31.056813 
L 148.907961 32.927514 
L 153.83195 33.607769 
L 156.293944 31.205619 
L 158.755938 31.885874 
L 161.217932 31.099329 
L 163.679927 31.439456 
L 166.141921 30.334042 
L 168.603915 30.3553 
L 171.065909 29.504981 
L 173.527903 30.3553 
L 175.989898 29.398692 
L 178.451892 29.802593 
L 180.913886 32.587386 
L 183.37588 30.759201 
L 185.837874 30.46159 
L 188.299869 29.483723 
L 190.761863 29.249886 
L 193.223857 31.60952 
L 195.685851 28.463341 
L 198.147845 28.803469 
L 200.60984 29.271144 
L 203.071834 31.311908 
L 205.533828 29.441208 
L 207.995822 30.844233 
L 210.457816 28.484599 
L 212.919811 28.845984 
L 215.381805 29.398692 
L 217.843799 29.547497 
L 220.305793 32.077195 
L 222.767787 31.226877 
L 225.229782 63.198857 
L 227.691776 41.069315 
L 230.15377 33.79909 
L 232.615764 55.716053 
L 235.077758 51.443202 
L 237.539753 31.481972 
L 240.001747 42.57863 
L 242.463741 73.360164 
L 244.925735 42.429824 
L 247.387729 33.395189 
L 249.849723 39.092324 
L 252.311718 35.797339 
L 254.773712 35.924887 
L 257.235706 47.59551 
L 259.6977 59.92513 
L 262.159694 50.061434 
L 264.621689 33.395189 
L 267.083683 36.137466 
L 269.545677 32.566128 
L 272.007671 31.375682 
L 274.469665 30.822975 
L 276.93166 31.630778 
L 279.393654 32.268517 
L 281.855648 30.291526 
L 284.317642 39.602515 
L 286.779636 32.65116 
L 289.241631 32.055937 
L 291.703625 33.629027 
L 294.165619 29.887625 
L 296.627613 33.161351 
L 299.089607 31.035555 
L 301.551602 28.569631 
L 304.013596 31.71581 
L 306.47559 28.612147 
L 308.937584 29.10108 
L 311.399578 33.586511 
L 313.861573 77.590497 
L 316.323567 55.758568 
L 318.785561 38.81597 
L 321.247555 28.867242 
L 323.709549 28.931016 
L 326.171544 37.731814 
L 328.633538 34.819473 
L 331.095532 30.993039 
L 333.557526 29.908883 
L 336.01952 30.759201 
L 338.481515 31.333166 
L 340.943509 30.886749 
L 343.405503 29.866367 
L 345.867497 28.357051 
L 348.329491 31.992163 
L 350.791486 30.822975 
L 353.25348 28.675921 
L 355.715474 31.460714 
L 358.177468 31.970905 
L 360.639462 30.14272 
L 363.101457 30.376558 
L 365.563451 29.738819 
L 368.025445 33.331415 
L 370.487439 32.97003 
L 372.949433 32.821224 
L 377.873422 29.632529 
L 380.335416 40.686671 
L 382.79741 32.927514 
L 385.259404 30.610396 
L 387.721398 31.60952 
L 390.183393 29.866367 
L 392.645387 29.483723 
L 395.107381 29.31366 
L 397.569375 29.441207 
L 400.031369 29.717561 
L 402.493364 28.867242 
L 404.955358 28.16573 
L 407.417352 36.583884 
L 409.879346 128.375779 
L 412.34134 47.064061 
L 414.803335 32.54487 
L 417.265329 33.501479 
L 419.727323 31.949647 
L 422.189317 31.970905 
L 424.651311 31.588262 
L 427.113306 34.479345 
L 429.5753 40.601639 
L 432.037294 79.907617 
L 434.499288 37.051559 
L 436.961282 50.082692 
L 439.423277 43.365175 
L 441.885271 31.035555 
L 444.347265 30.227752 
L 446.809259 28.824727 
L 449.271253 29.972657 
L 451.733248 28.654663 
L 454.195242 28.080698 
L 456.657236 29.930141 
L 461.581224 30.163978 
L 464.043219 28.590889 
L 466.505213 29.164854 
L 468.967207 42.195987 
L 471.429201 39.198614 
L 473.891195 29.760077 
L 476.35319 30.865491 
L 478.815184 29.951399 
L 481.277178 30.397816 
L 483.739172 30.993039 
L 486.201166 29.632529 
L 488.663161 51.528233 
L 491.125155 35.988661 
L 493.587149 37.221623 
L 496.049143 30.46159 
L 498.511137 33.650284 
L 500.973131 30.610396 
L 503.435126 30.929265 
L 505.89712 67.790576 
L 508.359114 141.279362 
L 510.821108 66.536356 
L 513.283102 30.24901 
L 515.745097 29.122338 
L 518.207091 29.845109 
L 520.669085 29.058564 
L 523.131079 30.589138 
L 525.593073 30.015173 
L 528.055068 29.675045 
L 530.517062 30.716685 
L 532.979056 28.803469 
L 535.44105 34.054186 
L 537.903044 33.161351 
L 540.365039 33.012546 
L 542.827033 28.952274 
L 545.289027 28.931016 
L 547.751021 29.717561 
L 550.213015 29.186112 
L 552.67501 46.362548 
L 555.137004 40.218996 
L 557.598998 32.778708 
L 560.060992 29.653787 
L 562.522986 28.654663 
L 564.984981 28.569631 
L 569.908969 29.037306 
L 572.370963 28.399567 
L 574.832957 30.950523 
L 577.294952 29.590013 
L 579.756946 35.478469 
L 582.21894 34.521861 
L 584.680934 36.009919 
L 587.142928 30.227752 
L 589.604923 31.588262 
L 592.066917 29.016048 
L 594.528911 30.100204 
L 596.990905 28.697179 
L 599.452899 28.420825 
L 601.914894 28.952274 
L 604.376888 29.249886 
L 606.838882 31.779584 
L 609.300876 29.143596 
L 611.76287 30.589138 
L 614.224865 30.057688 
L 616.686859 30.397816 
L 619.148853 30.291526 
L 621.610847 31.524488 
L 624.072841 29.611271 
L 626.534835 32.332291 
L 628.99683 29.930141 
L 631.458824 30.270268 
L 633.920818 28.442083 
L 636.382812 30.036431 
L 638.844806 28.442083 
L 641.306801 29.823851 
L 643.768795 63.517725 
L 646.230789 39.432451 
L 648.692783 31.333166 
L 651.154777 29.079822 
L 653.616772 34.564377 
L 656.078766 31.375682 
L 658.54076 31.567004 
L 661.002754 31.630778 
L 663.464748 28.803469 
L 665.926743 29.632529 
L 668.388737 30.14272 
L 670.850731 29.356176 
L 673.312725 29.611271 
L 673.312725 29.611271 
" clip-path="url(#p08460bbe4b)" style="fill: none; stroke: #1f77b4; stroke-width: 1.5; stroke-linecap: square"/>
   </g>
   <g id="patch_3">
    <path d="M 47.72 390.04 
L 47.72 10.8 
" style="fill: none; stroke: #000000; stroke-width: 0.8; stroke-linejoin: miter; stroke-linecap: square"/>
   </g>
   <g id="patch_4">
    <path d="M 703.102855 390.04 
L 703.102855 10.8 
" style="fill: none; stroke: #000000; stroke-width: 0.8; stroke-linejoin: miter; stroke-linecap: square"/>
   </g>
   <g id="patch_5">
    <path d="M 47.72 390.04 
L 703.102855 390.04 
" style="fill: none; stroke: #000000; stroke-width: 0.8; stroke-linejoin: miter; stroke-linecap: square"/>
   </g>
   <g id="patch_6">
    <path d="M 47.72 10.8 
L 703.102855 10.8 
" style="fill: none; stroke: #000000; stroke-width: 0.8; stroke-linejoin: miter; stroke-linecap: square"/>
   </g>
  </g>
 </g>
 <defs>
  <clipPath id="p08460bbe4b">
   <rect x="47.72" y="10.8" width="655.382855" height="379.24"/>
  </clipPath>
 </defs>
</svg>
