<?xml version="1.0" encoding="utf-8" standalone="no"?>
<!DOCTYPE svg PUBLIC "-//W3C//DTD SVG 1.1//EN"
  "http://www.w3.org/Graphics/SVG/1.1/DTD/svg11.dtd">
<svg xmlns:xlink="http://www.w3.org/1999/xlink" width="720pt" height="432pt" viewBox="0 0 720 432" xmlns="http://www.w3.org/2000/svg" version="1.1">
 <metadata>
  <rdf:RDF xmlns:dc="http://purl.org/dc/elements/1.1/" xmlns:cc="http://creativecommons.org/ns#" xmlns:rdf="http://www.w3.org/1999/02/22-rdf-syntax-ns#">
   <cc:Work>
    <dc:type rdf:resource="http://purl.org/dc/dcmitype/StillImage"/>
    <dc:date>2025-04-15T14:19:05.759450</dc:date>
    <dc:format>image/svg+xml</dc:format>
    <dc:creator>
     <cc:Agent>
      <dc:title>Matplotlib v3.10.0, https://matplotlib.org/</dc:title>
     </cc:Agent>
    </dc:creator>
   </cc:Work>
  </rdf:RDF>
 </metadata>
 <defs>
  <style type="text/css">*{stroke-linejoin: round; stroke-linecap: butt}</style>
 </defs>
 <g id="figure_1">
  <g id="patch_1">
   <path d="M 0 432 
L 720 432 
L 720 0 
L 0 0 
z
" style="fill: #ffffff"/>
  </g>
  <g id="axes_1">
   <g id="patch_2">
    <path d="M 50.87 390.04 
L 703.102855 390.04 
L 703.102855 10.8 
L 50.87 10.8 
z
" style="fill: #ffffff"/>
   </g>
   <g id="FillBetweenPolyCollection_1">
    <path d="M 80.516948 355.754895 
L 80.516948 365.113071 
L 82.967109 364.579455 
L 85.41727 364.651034 
L 87.867431 364.919927 
L 90.317592 364.438114 
L 92.767753 364.145139 
L 95.217914 366.425564 
L 97.668075 367.548073 
L 100.118236 370.658034 
L 102.568397 372.238556 
L 105.018558 372.680229 
L 107.468719 372.801818 
L 109.91888 368.552536 
L 112.369041 359.491183 
L 114.819202 335.388644 
L 117.269363 286.299036 
L 119.719524 243.786091 
L 122.169685 188.63787 
L 124.619846 138.574053 
L 127.070007 120.877991 
L 129.520168 124.274441 
L 131.970329 81.616628 
L 134.42049 86.599681 
L 136.870651 72.989905 
L 139.320812 84.143039 
L 141.770973 74.305145 
L 144.221134 69.259204 
L 146.671295 77.721036 
L 149.121456 64.337424 
L 151.571617 68.098981 
L 154.021778 70.558781 
L 156.471939 71.796825 
L 158.9221 64.340551 
L 161.372261 66.816888 
L 163.822422 65.551793 
L 166.272583 67.289957 
L 168.722744 60.630676 
L 171.172905 61.851711 
L 173.623065 61.80427 
L 176.073226 59.408726 
L 178.523387 58.135137 
L 180.973548 60.599677 
L 183.423709 65.633197 
L 185.87387 64.316403 
L 188.324031 60.633988 
L 190.774192 59.362343 
L 193.224353 59.845926 
L 195.674514 71.682136 
L 198.124675 56.863032 
L 200.574836 58.105589 
L 203.024997 59.350134 
L 205.475158 68.00036 
L 207.925319 58.139313 
L 210.37548 61.874839 
L 212.825641 58.085599 
L 215.275802 58.102572 
L 217.725963 56.915621 
L 220.176124 58.146828 
L 222.626285 68.053932 
L 225.076446 59.457039 
L 227.526607 130.038877 
L 229.976768 81.96563 
L 232.426929 70.583402 
L 234.87709 110.835744 
L 237.327251 103.764803 
L 239.777412 61.911789 
L 242.227573 85.711938 
L 244.677734 146.964961 
L 247.127895 85.465024 
L 249.578056 73.005744 
L 252.028217 102.377731 
L 254.478378 95.584145 
L 256.928539 89.003594 
L 259.3787 114.321701 
L 261.828861 118.882311 
L 264.279022 99.307479 
L 266.729183 155.247534 
L 269.179344 190.840674 
L 271.629505 105.175108 
L 274.079666 69.227986 
L 276.529827 84.343597 
L 278.979988 89.265651 
L 281.430149 102.217468 
L 283.88031 63.065238 
L 286.330471 184.85755 
L 288.780632 108.336904 
L 291.230793 92.936517 
L 293.680954 87.652352 
L 296.131115 66.702978 
L 298.581276 85.184208 
L 301.031437 79.469876 
L 303.481598 60.528986 
L 305.931759 73.401845 
L 308.38192 60.532803 
L 310.832081 66.65943 
L 313.282242 135.054553 
L 315.732403 256.740022 
L 318.182564 164.292011 
L 320.632725 101.35918 
L 323.082886 63.490001 
L 325.533047 56.888268 
L 327.983208 138.903746 
L 330.433369 94.8182 
L 332.88353 72.864191 
L 335.333691 67.924127 
L 337.783852 65.530024 
L 340.234013 71.663199 
L 342.684174 71.638668 
L 345.134335 68.415377 
L 347.584496 56.857072 
L 350.034657 61.938016 
L 352.484818 66.754617 
L 354.934979 59.314821 
L 357.38514 72.888794 
L 359.835301 70.970394 
L 362.285462 74.036046 
L 364.735623 67.948738 
L 367.185784 64.253786 
L 369.635945 99.833165 
L 372.086106 97.86777 
L 374.536267 96.146744 
L 376.986427 77.755725 
L 379.436588 70.347631 
L 381.886749 88.041483 
L 384.33691 72.972166 
L 386.787071 63.081782 
L 389.237232 70.458372 
L 391.687393 60.601673 
L 394.137554 59.360055 
L 396.587715 60.56916 
L 399.037876 66.676741 
L 401.488037 69.133552 
L 403.938198 60.54576 
L 406.388359 55.625902 
L 408.83852 110.266295 
L 411.288681 271.703564 
L 413.738842 111.602068 
L 416.189003 72.9486 
L 418.639164 74.221921 
L 421.089325 68.036373 
L 423.539486 68.531359 
L 425.989647 87.320073 
L 428.439808 101.11673 
L 430.889969 126.847631 
L 433.34013 184.724474 
L 435.790291 96.379035 
L 438.240452 108.83316 
L 440.690613 89.901213 
L 443.140774 75.307242 
L 445.590935 61.841192 
L 448.041096 58.102811 
L 450.491257 61.827267 
L 452.941418 60.534071 
L 455.391579 55.621455 
L 457.84174 64.265411 
L 460.291901 60.611898 
L 462.742062 63.057535 
L 465.192223 59.310222 
L 467.642384 61.782858 
L 470.092545 103.272833 
L 472.542706 91.6238 
L 474.992867 63.036687 
L 477.443028 63.095774 
L 479.893189 63.046925 
L 482.34335 60.630072 
L 484.793511 61.882525 
L 487.243672 56.927467 
L 489.693833 117.923706 
L 492.143994 80.46214 
L 494.594155 76.868976 
L 497.044316 63.074176 
L 499.494477 100.850506 
L 501.944638 64.301561 
L 504.394799 80.18055 
L 506.84496 231.687895 
L 509.295121 318.632143 
L 511.745282 177.458033 
L 514.195443 69.162573 
L 516.645604 61.778931 
L 519.095765 66.700211 
L 521.545926 58.115313 
L 523.996087 75.064559 
L 526.446248 72.808756 
L 528.896409 65.470549 
L 531.34657 69.187838 
L 533.796731 61.763109 
L 536.246892 87.673068 
L 538.697053 88.122368 
L 541.147214 86.897115 
L 543.597375 62.989748 
L 546.047536 62.988432 
L 548.497697 66.692988 
L 550.947858 60.562369 
L 553.398019 223.623926 
L 555.84818 202.04158 
L 558.298341 110.061633 
L 560.748502 65.468969 
L 563.198663 61.75354 
L 565.648824 60.528487 
L 568.098985 62.98483 
L 570.549146 69.095378 
L 572.999307 56.85934 
L 575.449468 86.280957 
L 577.899629 65.465668 
L 580.349789 126.792847 
L 582.79995 108.439473 
L 585.250111 160.600591 
L 587.700272 82.589037 
L 590.150433 102.700743 
L 592.600594 62.994556 
L 595.050755 70.374862 
L 597.500916 60.5357 
L 599.951077 56.859943 
L 602.401238 60.5493 
L 604.851399 63.00718 
L 607.30156 91.20799 
L 609.751721 64.220196 
L 612.201882 78.941407 
L 614.652043 69.151143 
L 617.102204 74.050498 
L 619.552365 66.724142 
L 622.002526 74.112081 
L 624.452687 64.245946 
L 626.902848 64.396702 
L 629.353009 61.82377 
L 631.80317 64.282164 
L 634.253331 58.081823 
L 636.703492 66.710036 
L 639.153653 55.641087 
L 641.603814 70.359323 
L 644.053975 236.558339 
L 646.504136 218.528432 
L 648.954297 93.413507 
L 651.404458 64.216739 
L 653.854619 116.982899 
L 656.30478 86.304535 
L 658.754941 82.654922 
L 661.205102 78.998572 
L 663.655263 60.541243 
L 666.105424 66.687154 
L 668.555585 69.158155 
L 671.005746 65.45641 
L 673.455907 63.026849 
L 673.455907 51.426057 
L 673.455907 51.426057 
L 671.005746 51.00974 
L 668.555585 50.375326 
L 666.105424 50.799286 
L 663.655263 51.852583 
L 661.205102 48.689105 
L 658.754941 48.062627 
L 656.30478 47.437237 
L 653.854619 42.179311 
L 651.404458 51.222673 
L 648.954297 47.403267 
L 646.504136 34.881561 
L 644.053975 37.185261 
L 641.603814 50.17012 
L 639.153653 52.692377 
L 636.703492 50.79468 
L 634.253331 52.274083 
L 631.80317 51.210994 
L 629.353009 51.632613 
L 626.902848 51.190434 
L 624.452687 51.217434 
L 622.002526 49.526702 
L 619.552365 50.792782 
L 617.102204 49.537347 
L 614.652043 50.377003 
L 612.201882 48.699139 
L 609.751721 51.222079 
L 607.30156 46.596423 
L 604.851399 51.429664 
L 602.401238 51.850895 
L 599.951077 52.483489 
L 597.500916 51.853307 
L 595.050755 50.1666 
L 592.600594 51.431371 
L 590.150433 45.213713 
L 587.700272 48.071059 
L 585.250111 37.066327 
L 582.79995 43.643634 
L 580.349789 40.498297 
L 577.899629 51.008625 
L 575.449468 47.441282 
L 572.999307 52.483598 
L 570.549146 50.386492 
L 568.098985 51.43374 
L 565.648824 51.854544 
L 563.198663 51.644594 
L 560.748502 51.007447 
L 558.298341 43.95261 
L 555.84818 31.139949 
L 553.398019 28.038182 
L 550.947858 51.848731 
L 548.497697 50.797822 
L 546.047536 51.433182 
L 543.597375 51.432956 
L 541.147214 47.929823 
L 538.697053 47.722829 
L 536.246892 47.202136 
L 533.796731 51.642886 
L 531.34657 50.370095 
L 528.896409 51.007709 
L 526.446248 49.750161 
L 523.996087 50.553309 
L 521.545926 52.268258 
L 519.095765 50.797046 
L 516.645604 51.640464 
L 514.195443 50.374963 
L 511.745282 43.815991 
L 509.295121 60.719473 
L 506.84496 32.103541 
L 504.394799 48.486544 
L 501.944638 51.207883 
L 499.494477 46.137986 
L 497.044316 51.418391 
L 494.594155 49.053788 
L 492.143994 48.438458 
L 489.693833 42.018102 
L 487.243672 52.471677 
L 484.793511 51.622234 
L 482.34335 51.837111 
L 479.893189 51.423335 
L 477.443028 51.414765 
L 474.992867 51.424903 
L 472.542706 46.52527 
L 470.092545 45.125536 
L 467.642384 51.639559 
L 465.192223 52.063178 
L 462.742062 51.421587 
L 460.291901 51.840233 
L 457.84174 51.213942 
L 455.391579 52.695745 
L 452.941418 51.853824 
L 450.491257 51.632092 
L 448.041096 52.270481 
L 445.590935 51.629703 
L 443.140774 49.321337 
L 440.690613 47.418019 
L 438.240452 45.978181 
L 435.790291 45.708563 
L 433.34013 37.156835 
L 430.889969 41.686941 
L 428.439808 44.898005 
L 425.989647 48.453834 
L 423.539486 51.0837 
L 421.089325 50.566966 
L 418.639164 49.506415 
L 416.189003 49.724805 
L 413.738842 46.105281 
L 411.288681 37.303957 
L 408.83852 43.931839 
L 406.388359 52.694982 
L 403.938198 51.851581 
L 401.488037 50.379948 
L 399.037876 50.801073 
L 396.587715 51.847635 
L 394.137554 52.054702 
L 391.687393 51.842136 
L 389.237232 50.152953 
L 386.787071 51.417086 
L 384.33691 49.721974 
L 381.886749 47.139301 
L 379.436588 50.171726 
L 376.986427 48.902114 
L 374.536267 45.750155 
L 372.086106 46.057783 
L 369.635945 45.118676 
L 367.185784 51.215862 
L 364.735623 50.582918 
L 362.285462 49.539747 
L 359.835301 50.666939 
L 357.38514 49.736123 
L 354.934979 52.062769 
L 352.484818 50.78749 
L 350.034657 51.613099 
L 347.584496 52.483755 
L 345.134335 51.104693 
L 342.684174 49.949536 
L 340.234013 49.946166 
L 337.783852 50.996903 
L 335.333691 50.587063 
L 332.88353 49.739969 
L 330.433369 47.169128 
L 327.983208 39.612676 
L 325.533047 52.478471 
L 323.082886 51.940683 
L 320.632725 44.85396 
L 318.182564 35.260914 
L 315.732403 30.757912 
L 313.282242 40.256248 
L 310.832081 50.803816 
L 308.38192 51.854002 
L 305.931759 50.245777 
L 303.481598 51.854686 
L 301.031437 49.202273 
L 298.581276 47.627926 
L 296.131115 50.796335 
L 293.680954 47.205217 
L 291.230793 46.901975 
L 288.780632 43.661153 
L 286.330471 31.148424 
L 283.88031 51.419624 
L 281.430149 44.709843 
L 278.979988 47.523155 
L 276.529827 48.367303 
L 274.079666 50.363139 
L 271.629505 44.80318 
L 269.179344 33.108287 
L 266.729183 36.223024 
L 264.279022 46.405765 
L 261.828861 42.444292 
L 259.3787 44.424236 
L 256.928539 46.970401 
L 254.478378 46.449808 
L 252.028217 45.878652 
L 249.578056 49.716442 
L 247.127895 48.787842 
L 244.677734 38.247359 
L 242.227573 47.538777 
L 239.777412 51.614761 
L 237.327251 45.051153 
L 234.87709 43.231492 
L 232.426929 50.129709 
L 229.976768 48.180867 
L 227.526607 40.550913 
L 225.076446 52.036589 
L 222.626285 50.56603 
L 220.176124 52.261902 
L 217.725963 52.471448 
L 215.275802 52.267295 
L 212.825641 52.271104 
L 210.37548 51.620014 
L 207.925319 52.261398 
L 205.475158 50.569204 
L 203.024997 52.05165 
L 200.574836 52.265278 
L 198.124675 52.479165 
L 195.674514 49.938686 
L 193.224353 52.563984 
L 190.774192 52.051133 
L 188.324031 51.831847 
L 185.87387 51.202959 
L 183.423709 50.977409 
L 180.973548 51.841975 
L 178.523387 52.263979 
L 176.073226 52.046276 
L 173.623065 51.635736 
L 171.172905 51.627114 
L 168.722744 51.836787 
L 166.272583 51.296849 
L 163.822422 50.991498 
L 161.372261 50.774989 
L 158.9221 51.200332 
L 156.471939 49.921773 
L 154.021778 50.133887 
L 151.571617 50.55625 
L 149.121456 51.201032 
L 146.671295 50.123913 
L 144.221134 50.359181 
L 141.770973 49.492223 
L 139.320812 47.804954 
L 136.870651 49.719376 
L 134.42049 47.390084 
L 131.970329 48.242922 
L 129.520168 43.321442 
L 127.070007 43.922074 
L 124.619846 44.491104 
L 122.169685 45.453133 
L 119.719524 46.822946 
L 117.269363 61.686627 
L 114.819202 100.343288 
L 112.369041 161.251067 
L 109.91888 191.560396 
L 107.468719 224.296837 
L 105.018558 266.421219 
L 102.568397 296.086252 
L 100.118236 315.983443 
L 97.668075 330.159097 
L 95.217914 343.993948 
L 92.767753 353.403504 
L 90.317592 356.476375 
L 87.867431 352.980685 
L 85.41727 355.429966 
L 82.967109 358.117076 
L 80.516948 355.754895 
z
" clip-path="url(#p7777ad8b13)" style="fill: #1f77b4; fill-opacity: 0.2"/>
   </g>
   <g id="matplotlib.axis_1">
    <g id="xtick_1">
     <g id="line2d_1">
      <path d="M 79.279617 390.04 
L 79.279617 10.8 
" clip-path="url(#p7777ad8b13)" style="fill: none; stroke: #b0b0b0; stroke-width: 0.8; stroke-linecap: square"/>
     </g>
     <g id="line2d_2">
      <defs>
       <path id="m1e621f6cb9" d="M 0 0 
L 0 3.5 
" style="stroke: #000000; stroke-width: 0.8"/>
      </defs>
      <g>
       <use xlink:href="#m1e621f6cb9" x="79.279617" y="390.04" style="stroke: #000000; stroke-width: 0.8"/>
      </g>
     </g>
     <g id="text_1">
      <!-- 0 -->
      <g transform="translate(76.098367 404.638438) scale(0.1 -0.1)">
       <defs>
        <path id="DejaVuSans-30" d="M 2034 4250 
Q 1547 4250 1301 3770 
Q 1056 3291 1056 2328 
Q 1056 1369 1301 889 
Q 1547 409 2034 409 
Q 2525 409 2770 889 
Q 3016 1369 3016 2328 
Q 3016 3291 2770 3770 
Q 2525 4250 2034 4250 
z
M 2034 4750 
Q 2819 4750 3233 4129 
Q 3647 3509 3647 2328 
Q 3647 1150 3233 529 
Q 2819 -91 2034 -91 
Q 1250 -91 836 529 
Q 422 1150 422 2328 
Q 422 3509 836 4129 
Q 1250 4750 2034 4750 
z
" transform="scale(0.015625)"/>
       </defs>
       <use xlink:href="#DejaVuSans-30"/>
      </g>
     </g>
    </g>
    <g id="xtick_2">
     <g id="line2d_3">
      <path d="M 201.787666 390.04 
L 201.787666 10.8 
" clip-path="url(#p7777ad8b13)" style="fill: none; stroke: #b0b0b0; stroke-width: 0.8; stroke-linecap: square"/>
     </g>
     <g id="line2d_4">
      <g>
       <use xlink:href="#m1e621f6cb9" x="201.787666" y="390.04" style="stroke: #000000; stroke-width: 0.8"/>
      </g>
     </g>
     <g id="text_2">
      <!-- 10000 -->
      <g transform="translate(185.881416 404.638438) scale(0.1 -0.1)">
       <defs>
        <path id="DejaVuSans-31" d="M 794 531 
L 1825 531 
L 1825 4091 
L 703 3866 
L 703 4441 
L 1819 4666 
L 2450 4666 
L 2450 531 
L 3481 531 
L 3481 0 
L 794 0 
L 794 531 
z
" transform="scale(0.015625)"/>
       </defs>
       <use xlink:href="#DejaVuSans-31"/>
       <use xlink:href="#DejaVuSans-30" transform="translate(63.623047 0)"/>
       <use xlink:href="#DejaVuSans-30" transform="translate(127.246094 0)"/>
       <use xlink:href="#DejaVuSans-30" transform="translate(190.869141 0)"/>
       <use xlink:href="#DejaVuSans-30" transform="translate(254.492188 0)"/>
      </g>
     </g>
    </g>
    <g id="xtick_3">
     <g id="line2d_5">
      <path d="M 324.295715 390.04 
L 324.295715 10.8 
" clip-path="url(#p7777ad8b13)" style="fill: none; stroke: #b0b0b0; stroke-width: 0.8; stroke-linecap: square"/>
     </g>
     <g id="line2d_6">
      <g>
       <use xlink:href="#m1e621f6cb9" x="324.295715" y="390.04" style="stroke: #000000; stroke-width: 0.8"/>
      </g>
     </g>
     <g id="text_3">
      <!-- 20000 -->
      <g transform="translate(308.389465 404.638438) scale(0.1 -0.1)">
       <defs>
        <path id="DejaVuSans-32" d="M 1228 531 
L 3431 531 
L 3431 0 
L 469 0 
L 469 531 
Q 828 903 1448 1529 
Q 2069 2156 2228 2338 
Q 2531 2678 2651 2914 
Q 2772 3150 2772 3378 
Q 2772 3750 2511 3984 
Q 2250 4219 1831 4219 
Q 1534 4219 1204 4116 
Q 875 4013 500 3803 
L 500 4441 
Q 881 4594 1212 4672 
Q 1544 4750 1819 4750 
Q 2544 4750 2975 4387 
Q 3406 4025 3406 3419 
Q 3406 3131 3298 2873 
Q 3191 2616 2906 2266 
Q 2828 2175 2409 1742 
Q 1991 1309 1228 531 
z
" transform="scale(0.015625)"/>
       </defs>
       <use xlink:href="#DejaVuSans-32"/>
       <use xlink:href="#DejaVuSans-30" transform="translate(63.623047 0)"/>
       <use xlink:href="#DejaVuSans-30" transform="translate(127.246094 0)"/>
       <use xlink:href="#DejaVuSans-30" transform="translate(190.869141 0)"/>
       <use xlink:href="#DejaVuSans-30" transform="translate(254.492188 0)"/>
      </g>
     </g>
    </g>
    <g id="xtick_4">
     <g id="line2d_7">
      <path d="M 446.803765 390.04 
L 446.803765 10.8 
" clip-path="url(#p7777ad8b13)" style="fill: none; stroke: #b0b0b0; stroke-width: 0.8; stroke-linecap: square"/>
     </g>
     <g id="line2d_8">
      <g>
       <use xlink:href="#m1e621f6cb9" x="446.803765" y="390.04" style="stroke: #000000; stroke-width: 0.8"/>
      </g>
     </g>
     <g id="text_4">
      <!-- 30000 -->
      <g transform="translate(430.897515 404.638438) scale(0.1 -0.1)">
       <defs>
        <path id="DejaVuSans-33" d="M 2597 2516 
Q 3050 2419 3304 2112 
Q 3559 1806 3559 1356 
Q 3559 666 3084 287 
Q 2609 -91 1734 -91 
Q 1441 -91 1130 -33 
Q 819 25 488 141 
L 488 750 
Q 750 597 1062 519 
Q 1375 441 1716 441 
Q 2309 441 2620 675 
Q 2931 909 2931 1356 
Q 2931 1769 2642 2001 
Q 2353 2234 1838 2234 
L 1294 2234 
L 1294 2753 
L 1863 2753 
Q 2328 2753 2575 2939 
Q 2822 3125 2822 3475 
Q 2822 3834 2567 4026 
Q 2313 4219 1838 4219 
Q 1578 4219 1281 4162 
Q 984 4106 628 3988 
L 628 4550 
Q 988 4650 1302 4700 
Q 1616 4750 1894 4750 
Q 2613 4750 3031 4423 
Q 3450 4097 3450 3541 
Q 3450 3153 3228 2886 
Q 3006 2619 2597 2516 
z
" transform="scale(0.015625)"/>
       </defs>
       <use xlink:href="#DejaVuSans-33"/>
       <use xlink:href="#DejaVuSans-30" transform="translate(63.623047 0)"/>
       <use xlink:href="#DejaVuSans-30" transform="translate(127.246094 0)"/>
       <use xlink:href="#DejaVuSans-30" transform="translate(190.869141 0)"/>
       <use xlink:href="#DejaVuSans-30" transform="translate(254.492188 0)"/>
      </g>
     </g>
    </g>
    <g id="xtick_5">
     <g id="line2d_9">
      <path d="M 569.311814 390.04 
L 569.311814 10.8 
" clip-path="url(#p7777ad8b13)" style="fill: none; stroke: #b0b0b0; stroke-width: 0.8; stroke-linecap: square"/>
     </g>
     <g id="line2d_10">
      <g>
       <use xlink:href="#m1e621f6cb9" x="569.311814" y="390.04" style="stroke: #000000; stroke-width: 0.8"/>
      </g>
     </g>
     <g id="text_5">
      <!-- 40000 -->
      <g transform="translate(553.405564 404.638438) scale(0.1 -0.1)">
       <defs>
        <path id="DejaVuSans-34" d="M 2419 4116 
L 825 1625 
L 2419 1625 
L 2419 4116 
z
M 2253 4666 
L 3047 4666 
L 3047 1625 
L 3713 1625 
L 3713 1100 
L 3047 1100 
L 3047 0 
L 2419 0 
L 2419 1100 
L 313 1100 
L 313 1709 
L 2253 4666 
z
" transform="scale(0.015625)"/>
       </defs>
       <use xlink:href="#DejaVuSans-34"/>
       <use xlink:href="#DejaVuSans-30" transform="translate(63.623047 0)"/>
       <use xlink:href="#DejaVuSans-30" transform="translate(127.246094 0)"/>
       <use xlink:href="#DejaVuSans-30" transform="translate(190.869141 0)"/>
       <use xlink:href="#DejaVuSans-30" transform="translate(254.492188 0)"/>
      </g>
     </g>
    </g>
    <g id="xtick_6">
     <g id="line2d_11">
      <path d="M 691.819864 390.04 
L 691.819864 10.8 
" clip-path="url(#p7777ad8b13)" style="fill: none; stroke: #b0b0b0; stroke-width: 0.8; stroke-linecap: square"/>
     </g>
     <g id="line2d_12">
      <g>
       <use xlink:href="#m1e621f6cb9" x="691.819864" y="390.04" style="stroke: #000000; stroke-width: 0.8"/>
      </g>
     </g>
     <g id="text_6">
      <!-- 50000 -->
      <g transform="translate(675.913614 404.638438) scale(0.1 -0.1)">
       <defs>
        <path id="DejaVuSans-35" d="M 691 4666 
L 3169 4666 
L 3169 4134 
L 1269 4134 
L 1269 2991 
Q 1406 3038 1543 3061 
Q 1681 3084 1819 3084 
Q 2600 3084 3056 2656 
Q 3513 2228 3513 1497 
Q 3513 744 3044 326 
Q 2575 -91 1722 -91 
Q 1428 -91 1123 -41 
Q 819 9 494 109 
L 494 744 
Q 775 591 1075 516 
Q 1375 441 1709 441 
Q 2250 441 2565 725 
Q 2881 1009 2881 1497 
Q 2881 1984 2565 2268 
Q 2250 2553 1709 2553 
Q 1456 2553 1204 2497 
Q 953 2441 691 2322 
L 691 4666 
z
" transform="scale(0.015625)"/>
       </defs>
       <use xlink:href="#DejaVuSans-35"/>
       <use xlink:href="#DejaVuSans-30" transform="translate(63.623047 0)"/>
       <use xlink:href="#DejaVuSans-30" transform="translate(127.246094 0)"/>
       <use xlink:href="#DejaVuSans-30" transform="translate(190.869141 0)"/>
       <use xlink:href="#DejaVuSans-30" transform="translate(254.492188 0)"/>
      </g>
     </g>
    </g>
    <g id="text_7">
     <!-- Episodes -->
     <g transform="translate(354.74424 418.316562) scale(0.1 -0.1)">
      <defs>
       <path id="DejaVuSans-45" d="M 628 4666 
L 3578 4666 
L 3578 4134 
L 1259 4134 
L 1259 2753 
L 3481 2753 
L 3481 2222 
L 1259 2222 
L 1259 531 
L 3634 531 
L 3634 0 
L 628 0 
L 628 4666 
z
" transform="scale(0.015625)"/>
       <path id="DejaVuSans-70" d="M 1159 525 
L 1159 -1331 
L 581 -1331 
L 581 3500 
L 1159 3500 
L 1159 2969 
Q 1341 3281 1617 3432 
Q 1894 3584 2278 3584 
Q 2916 3584 3314 3078 
Q 3713 2572 3713 1747 
Q 3713 922 3314 415 
Q 2916 -91 2278 -91 
Q 1894 -91 1617 61 
Q 1341 213 1159 525 
z
M 3116 1747 
Q 3116 2381 2855 2742 
Q 2594 3103 2138 3103 
Q 1681 3103 1420 2742 
Q 1159 2381 1159 1747 
Q 1159 1113 1420 752 
Q 1681 391 2138 391 
Q 2594 391 2855 752 
Q 3116 1113 3116 1747 
z
" transform="scale(0.015625)"/>
       <path id="DejaVuSans-69" d="M 603 3500 
L 1178 3500 
L 1178 0 
L 603 0 
L 603 3500 
z
M 603 4863 
L 1178 4863 
L 1178 4134 
L 603 4134 
L 603 4863 
z
" transform="scale(0.015625)"/>
       <path id="DejaVuSans-73" d="M 2834 3397 
L 2834 2853 
Q 2591 2978 2328 3040 
Q 2066 3103 1784 3103 
Q 1356 3103 1142 2972 
Q 928 2841 928 2578 
Q 928 2378 1081 2264 
Q 1234 2150 1697 2047 
L 1894 2003 
Q 2506 1872 2764 1633 
Q 3022 1394 3022 966 
Q 3022 478 2636 193 
Q 2250 -91 1575 -91 
Q 1294 -91 989 -36 
Q 684 19 347 128 
L 347 722 
Q 666 556 975 473 
Q 1284 391 1588 391 
Q 1994 391 2212 530 
Q 2431 669 2431 922 
Q 2431 1156 2273 1281 
Q 2116 1406 1581 1522 
L 1381 1569 
Q 847 1681 609 1914 
Q 372 2147 372 2553 
Q 372 3047 722 3315 
Q 1072 3584 1716 3584 
Q 2034 3584 2315 3537 
Q 2597 3491 2834 3397 
z
" transform="scale(0.015625)"/>
       <path id="DejaVuSans-6f" d="M 1959 3097 
Q 1497 3097 1228 2736 
Q 959 2375 959 1747 
Q 959 1119 1226 758 
Q 1494 397 1959 397 
Q 2419 397 2687 759 
Q 2956 1122 2956 1747 
Q 2956 2369 2687 2733 
Q 2419 3097 1959 3097 
z
M 1959 3584 
Q 2709 3584 3137 3096 
Q 3566 2609 3566 1747 
Q 3566 888 3137 398 
Q 2709 -91 1959 -91 
Q 1206 -91 779 398 
Q 353 888 353 1747 
Q 353 2609 779 3096 
Q 1206 3584 1959 3584 
z
" transform="scale(0.015625)"/>
       <path id="DejaVuSans-64" d="M 2906 2969 
L 2906 4863 
L 3481 4863 
L 3481 0 
L 2906 0 
L 2906 525 
Q 2725 213 2448 61 
Q 2172 -91 1784 -91 
Q 1150 -91 751 415 
Q 353 922 353 1747 
Q 353 2572 751 3078 
Q 1150 3584 1784 3584 
Q 2172 3584 2448 3432 
Q 2725 3281 2906 2969 
z
M 947 1747 
Q 947 1113 1208 752 
Q 1469 391 1925 391 
Q 2381 391 2643 752 
Q 2906 1113 2906 1747 
Q 2906 2381 2643 2742 
Q 2381 3103 1925 3103 
Q 1469 3103 1208 2742 
Q 947 2381 947 1747 
z
" transform="scale(0.015625)"/>
       <path id="DejaVuSans-65" d="M 3597 1894 
L 3597 1613 
L 953 1613 
Q 991 1019 1311 708 
Q 1631 397 2203 397 
Q 2534 397 2845 478 
Q 3156 559 3463 722 
L 3463 178 
Q 3153 47 2828 -22 
Q 2503 -91 2169 -91 
Q 1331 -91 842 396 
Q 353 884 353 1716 
Q 353 2575 817 3079 
Q 1281 3584 2069 3584 
Q 2775 3584 3186 3129 
Q 3597 2675 3597 1894 
z
M 3022 2063 
Q 3016 2534 2758 2815 
Q 2500 3097 2075 3097 
Q 1594 3097 1305 2825 
Q 1016 2553 972 2059 
L 3022 2063 
z
" transform="scale(0.015625)"/>
      </defs>
      <use xlink:href="#DejaVuSans-45"/>
      <use xlink:href="#DejaVuSans-70" transform="translate(63.183594 0)"/>
      <use xlink:href="#DejaVuSans-69" transform="translate(126.660156 0)"/>
      <use xlink:href="#DejaVuSans-73" transform="translate(154.443359 0)"/>
      <use xlink:href="#DejaVuSans-6f" transform="translate(206.542969 0)"/>
      <use xlink:href="#DejaVuSans-64" transform="translate(267.724609 0)"/>
      <use xlink:href="#DejaVuSans-65" transform="translate(331.201172 0)"/>
      <use xlink:href="#DejaVuSans-73" transform="translate(392.724609 0)"/>
     </g>
    </g>
   </g>
   <g id="matplotlib.axis_2">
    <g id="ytick_1">
     <g id="line2d_13">
      <path d="M 50.87 369.749304 
L 703.102855 369.749304 
" clip-path="url(#p7777ad8b13)" style="fill: none; stroke: #b0b0b0; stroke-width: 0.8; stroke-linecap: square"/>
     </g>
     <g id="line2d_14">
      <defs>
       <path id="m9842707e3c" d="M 0 0 
L -3.5 0 
" style="stroke: #000000; stroke-width: 0.8"/>
      </defs>
      <g>
       <use xlink:href="#m9842707e3c" x="50.87" y="369.749304" style="stroke: #000000; stroke-width: 0.8"/>
      </g>
     </g>
     <g id="text_8">
      <!-- 0 -->
      <g transform="translate(37.5075 373.548522) scale(0.1 -0.1)">
       <use xlink:href="#DejaVuSans-30"/>
      </g>
     </g>
    </g>
    <g id="ytick_2">
     <g id="line2d_15">
      <path d="M 50.87 309.095923 
L 703.102855 309.095923 
" clip-path="url(#p7777ad8b13)" style="fill: none; stroke: #b0b0b0; stroke-width: 0.8; stroke-linecap: square"/>
     </g>
     <g id="line2d_16">
      <g>
       <use xlink:href="#m9842707e3c" x="50.87" y="309.095923" style="stroke: #000000; stroke-width: 0.8"/>
      </g>
     </g>
     <g id="text_9">
      <!-- 20 -->
      <g transform="translate(31.145 312.895142) scale(0.1 -0.1)">
       <use xlink:href="#DejaVuSans-32"/>
       <use xlink:href="#DejaVuSans-30" transform="translate(63.623047 0)"/>
      </g>
     </g>
    </g>
    <g id="ytick_3">
     <g id="line2d_17">
      <path d="M 50.87 248.442542 
L 703.102855 248.442542 
" clip-path="url(#p7777ad8b13)" style="fill: none; stroke: #b0b0b0; stroke-width: 0.8; stroke-linecap: square"/>
     </g>
     <g id="line2d_18">
      <g>
       <use xlink:href="#m9842707e3c" x="50.87" y="248.442542" style="stroke: #000000; stroke-width: 0.8"/>
      </g>
     </g>
     <g id="text_10">
      <!-- 40 -->
      <g transform="translate(31.145 252.241761) scale(0.1 -0.1)">
       <use xlink:href="#DejaVuSans-34"/>
       <use xlink:href="#DejaVuSans-30" transform="translate(63.623047 0)"/>
      </g>
     </g>
    </g>
    <g id="ytick_4">
     <g id="line2d_19">
      <path d="M 50.87 187.789162 
L 703.102855 187.789162 
" clip-path="url(#p7777ad8b13)" style="fill: none; stroke: #b0b0b0; stroke-width: 0.8; stroke-linecap: square"/>
     </g>
     <g id="line2d_20">
      <g>
       <use xlink:href="#m9842707e3c" x="50.87" y="187.789162" style="stroke: #000000; stroke-width: 0.8"/>
      </g>
     </g>
     <g id="text_11">
      <!-- 60 -->
      <g transform="translate(31.145 191.588381) scale(0.1 -0.1)">
       <defs>
        <path id="DejaVuSans-36" d="M 2113 2584 
Q 1688 2584 1439 2293 
Q 1191 2003 1191 1497 
Q 1191 994 1439 701 
Q 1688 409 2113 409 
Q 2538 409 2786 701 
Q 3034 994 3034 1497 
Q 3034 2003 2786 2293 
Q 2538 2584 2113 2584 
z
M 3366 4563 
L 3366 3988 
Q 3128 4100 2886 4159 
Q 2644 4219 2406 4219 
Q 1781 4219 1451 3797 
Q 1122 3375 1075 2522 
Q 1259 2794 1537 2939 
Q 1816 3084 2150 3084 
Q 2853 3084 3261 2657 
Q 3669 2231 3669 1497 
Q 3669 778 3244 343 
Q 2819 -91 2113 -91 
Q 1303 -91 875 529 
Q 447 1150 447 2328 
Q 447 3434 972 4092 
Q 1497 4750 2381 4750 
Q 2619 4750 2861 4703 
Q 3103 4656 3366 4563 
z
" transform="scale(0.015625)"/>
       </defs>
       <use xlink:href="#DejaVuSans-36"/>
       <use xlink:href="#DejaVuSans-30" transform="translate(63.623047 0)"/>
      </g>
     </g>
    </g>
    <g id="ytick_5">
     <g id="line2d_21">
      <path d="M 50.87 127.135781 
L 703.102855 127.135781 
" clip-path="url(#p7777ad8b13)" style="fill: none; stroke: #b0b0b0; stroke-width: 0.8; stroke-linecap: square"/>
     </g>
     <g id="line2d_22">
      <g>
       <use xlink:href="#m9842707e3c" x="50.87" y="127.135781" style="stroke: #000000; stroke-width: 0.8"/>
      </g>
     </g>
     <g id="text_12">
      <!-- 80 -->
      <g transform="translate(31.145 130.935) scale(0.1 -0.1)">
       <defs>
        <path id="DejaVuSans-38" d="M 2034 2216 
Q 1584 2216 1326 1975 
Q 1069 1734 1069 1313 
Q 1069 891 1326 650 
Q 1584 409 2034 409 
Q 2484 409 2743 651 
Q 3003 894 3003 1313 
Q 3003 1734 2745 1975 
Q 2488 2216 2034 2216 
z
M 1403 2484 
Q 997 2584 770 2862 
Q 544 3141 544 3541 
Q 544 4100 942 4425 
Q 1341 4750 2034 4750 
Q 2731 4750 3128 4425 
Q 3525 4100 3525 3541 
Q 3525 3141 3298 2862 
Q 3072 2584 2669 2484 
Q 3125 2378 3379 2068 
Q 3634 1759 3634 1313 
Q 3634 634 3220 271 
Q 2806 -91 2034 -91 
Q 1263 -91 848 271 
Q 434 634 434 1313 
Q 434 1759 690 2068 
Q 947 2378 1403 2484 
z
M 1172 3481 
Q 1172 3119 1398 2916 
Q 1625 2713 2034 2713 
Q 2441 2713 2670 2916 
Q 2900 3119 2900 3481 
Q 2900 3844 2670 4047 
Q 2441 4250 2034 4250 
Q 1625 4250 1398 4047 
Q 1172 3844 1172 3481 
z
" transform="scale(0.015625)"/>
       </defs>
       <use xlink:href="#DejaVuSans-38"/>
       <use xlink:href="#DejaVuSans-30" transform="translate(63.623047 0)"/>
      </g>
     </g>
    </g>
    <g id="ytick_6">
     <g id="line2d_23">
      <path d="M 50.87 66.482401 
L 703.102855 66.482401 
" clip-path="url(#p7777ad8b13)" style="fill: none; stroke: #b0b0b0; stroke-width: 0.8; stroke-linecap: square"/>
     </g>
     <g id="line2d_24">
      <g>
       <use xlink:href="#m9842707e3c" x="50.87" y="66.482401" style="stroke: #000000; stroke-width: 0.8"/>
      </g>
     </g>
     <g id="text_13">
      <!-- 100 -->
      <g transform="translate(24.7825 70.28162) scale(0.1 -0.1)">
       <use xlink:href="#DejaVuSans-31"/>
       <use xlink:href="#DejaVuSans-30" transform="translate(63.623047 0)"/>
       <use xlink:href="#DejaVuSans-30" transform="translate(127.246094 0)"/>
      </g>
     </g>
    </g>
    <g id="text_14">
     <!-- Reward -->
     <g transform="translate(18.702813 219.041094) rotate(-90) scale(0.1 -0.1)">
      <defs>
       <path id="DejaVuSans-52" d="M 2841 2188 
Q 3044 2119 3236 1894 
Q 3428 1669 3622 1275 
L 4263 0 
L 3584 0 
L 2988 1197 
Q 2756 1666 2539 1819 
Q 2322 1972 1947 1972 
L 1259 1972 
L 1259 0 
L 628 0 
L 628 4666 
L 2053 4666 
Q 2853 4666 3247 4331 
Q 3641 3997 3641 3322 
Q 3641 2881 3436 2590 
Q 3231 2300 2841 2188 
z
M 1259 4147 
L 1259 2491 
L 2053 2491 
Q 2509 2491 2742 2702 
Q 2975 2913 2975 3322 
Q 2975 3731 2742 3939 
Q 2509 4147 2053 4147 
L 1259 4147 
z
" transform="scale(0.015625)"/>
       <path id="DejaVuSans-77" d="M 269 3500 
L 844 3500 
L 1563 769 
L 2278 3500 
L 2956 3500 
L 3675 769 
L 4391 3500 
L 4966 3500 
L 4050 0 
L 3372 0 
L 2619 2869 
L 1863 0 
L 1184 0 
L 269 3500 
z
" transform="scale(0.015625)"/>
       <path id="DejaVuSans-61" d="M 2194 1759 
Q 1497 1759 1228 1600 
Q 959 1441 959 1056 
Q 959 750 1161 570 
Q 1363 391 1709 391 
Q 2188 391 2477 730 
Q 2766 1069 2766 1631 
L 2766 1759 
L 2194 1759 
z
M 3341 1997 
L 3341 0 
L 2766 0 
L 2766 531 
Q 2569 213 2275 61 
Q 1981 -91 1556 -91 
Q 1019 -91 701 211 
Q 384 513 384 1019 
Q 384 1609 779 1909 
Q 1175 2209 1959 2209 
L 2766 2209 
L 2766 2266 
Q 2766 2663 2505 2880 
Q 2244 3097 1772 3097 
Q 1472 3097 1187 3025 
Q 903 2953 641 2809 
L 641 3341 
Q 956 3463 1253 3523 
Q 1550 3584 1831 3584 
Q 2591 3584 2966 3190 
Q 3341 2797 3341 1997 
z
" transform="scale(0.015625)"/>
       <path id="DejaVuSans-72" d="M 2631 2963 
Q 2534 3019 2420 3045 
Q 2306 3072 2169 3072 
Q 1681 3072 1420 2755 
Q 1159 2438 1159 1844 
L 1159 0 
L 581 0 
L 581 3500 
L 1159 3500 
L 1159 2956 
Q 1341 3275 1631 3429 
Q 1922 3584 2338 3584 
Q 2397 3584 2469 3576 
Q 2541 3569 2628 3553 
L 2631 2963 
z
" transform="scale(0.015625)"/>
      </defs>
      <use xlink:href="#DejaVuSans-52"/>
      <use xlink:href="#DejaVuSans-65" transform="translate(64.982422 0)"/>
      <use xlink:href="#DejaVuSans-77" transform="translate(126.505859 0)"/>
      <use xlink:href="#DejaVuSans-61" transform="translate(208.292969 0)"/>
      <use xlink:href="#DejaVuSans-72" transform="translate(269.572266 0)"/>
      <use xlink:href="#DejaVuSans-64" transform="translate(308.935547 0)"/>
     </g>
    </g>
   </g>
   <g id="line2d_25">
    <path d="M 80.516948 360.433983 
L 82.967109 361.348265 
L 85.41727 360.0405 
L 87.867431 358.950306 
L 90.317592 360.457245 
L 92.767753 358.774321 
L 95.217914 355.209756 
L 97.668075 348.853585 
L 100.118236 343.320739 
L 102.568397 334.162404 
L 105.018558 319.550724 
L 107.468719 298.549328 
L 109.91888 280.056466 
L 112.369041 260.371125 
L 117.269363 173.992832 
L 122.169685 117.045502 
L 124.619846 91.532578 
L 127.070007 82.400032 
L 129.520168 83.797941 
L 131.970329 64.929775 
L 134.42049 66.994882 
L 136.870651 61.35464 
L 139.320812 65.973996 
L 141.770973 61.898684 
L 144.221134 59.809192 
L 146.671295 63.922474 
L 149.121456 57.769228 
L 151.571617 59.327616 
L 154.021778 60.346334 
L 156.471939 60.859299 
L 158.9221 57.770441 
L 161.372261 58.795938 
L 163.822422 58.271646 
L 166.272583 59.293403 
L 168.722744 56.233732 
L 171.172905 56.739412 
L 173.623065 56.720003 
L 176.073226 55.727501 
L 178.523387 55.199558 
L 180.973548 56.220826 
L 183.423709 58.305303 
L 185.87387 57.759681 
L 188.324031 56.232917 
L 190.774192 55.706738 
L 193.224353 56.204955 
L 195.674514 60.810411 
L 198.124675 54.671098 
L 203.024997 55.700892 
L 205.475158 59.284782 
L 207.925319 55.200355 
L 210.37548 56.747426 
L 212.825641 55.178352 
L 215.275802 55.184934 
L 217.725963 54.693535 
L 220.176124 55.204365 
L 222.626285 59.309981 
L 225.076446 55.746814 
L 227.526607 85.294895 
L 229.976768 65.073249 
L 232.426929 60.356555 
L 234.87709 77.033618 
L 237.327251 74.407978 
L 239.777412 56.763275 
L 242.227573 66.625357 
L 244.677734 92.60616 
L 247.127895 67.126433 
L 249.578056 61.361093 
L 252.028217 74.128192 
L 256.928539 67.986998 
L 259.3787 79.372968 
L 261.828861 80.663302 
L 264.279022 72.856622 
L 266.729183 95.735279 
L 269.179344 111.97448 
L 271.629505 74.989144 
L 274.079666 59.795562 
L 276.529827 66.35545 
L 278.979988 68.394403 
L 281.430149 73.463655 
L 283.88031 57.242431 
L 286.330471 108.002987 
L 288.780632 75.999028 
L 291.230793 69.919246 
L 293.680954 67.428784 
L 296.131115 58.749656 
L 298.581276 66.406067 
L 301.031437 64.336074 
L 303.481598 56.191836 
L 305.931759 61.823811 
L 308.38192 56.193403 
L 310.832081 58.731623 
L 313.282242 87.655401 
L 315.732403 143.748967 
L 318.182564 99.776462 
L 320.632725 73.10657 
L 323.082886 57.715342 
L 325.533047 54.683369 
L 327.983208 89.258211 
L 330.433369 70.993664 
L 332.88353 61.30208 
L 335.333691 59.255595 
L 337.783852 58.263463 
L 340.234013 60.804683 
L 342.684174 60.794102 
L 345.134335 59.760035 
L 347.584496 54.670413 
L 352.484818 58.771053 
L 354.934979 55.688795 
L 357.38514 61.312458 
L 359.835301 60.818667 
L 362.285462 61.787896 
L 364.735623 59.265828 
L 367.185784 57.734824 
L 369.635945 72.475921 
L 372.086106 71.962776 
L 374.536267 70.94845 
L 376.986427 63.328919 
L 379.436588 60.259678 
L 381.886749 67.590392 
L 384.33691 61.34707 
L 386.787071 57.249434 
L 389.237232 60.305663 
L 391.687393 56.221904 
L 394.137554 55.707378 
L 396.587715 56.208398 
L 399.037876 58.738907 
L 401.488037 59.75675 
L 403.938198 56.198671 
L 406.388359 54.160442 
L 408.83852 77.099067 
L 411.288681 154.50376 
L 413.738842 78.853674 
L 416.189003 61.336703 
L 418.639164 61.864168 
L 421.089325 59.301669 
L 423.539486 59.80753 
L 425.989647 67.886953 
L 428.439808 73.007368 
L 430.889969 84.267286 
L 433.34013 110.940655 
L 435.790291 71.043799 
L 438.240452 77.40567 
L 440.690613 68.659616 
L 443.140774 62.314289 
L 445.590935 56.735447 
L 448.041096 55.186646 
L 450.491257 56.72968 
L 452.941418 56.193948 
L 455.391579 54.1586 
L 457.84174 57.739676 
L 460.291901 56.226066 
L 462.742062 57.239561 
L 465.192223 55.6867 
L 467.642384 56.711209 
L 470.092545 74.199184 
L 472.542706 69.074535 
L 474.992867 57.230795 
L 479.893189 57.23513 
L 482.34335 56.233591 
L 484.793511 56.75238 
L 487.243672 54.699572 
L 489.693833 79.970904 
L 492.143994 64.450299 
L 494.594155 62.961382 
L 497.044316 57.246284 
L 499.494477 73.494246 
L 501.944638 57.754722 
L 504.394799 64.333547 
L 506.84496 131.895718 
L 509.295121 189.675808 
L 511.745282 110.637012 
L 514.195443 59.768768 
L 516.645604 56.709698 
L 519.095765 58.748629 
L 521.545926 55.191785 
L 523.996087 62.808934 
L 526.446248 61.279458 
L 528.896409 58.239129 
L 531.34657 59.778967 
L 533.796731 56.702998 
L 536.246892 67.437602 
L 538.697053 67.922598 
L 541.147214 67.413469 
L 543.597375 57.211352 
L 546.047536 57.210807 
L 548.497697 58.745405 
L 550.947858 56.20555 
L 553.398019 125.831054 
L 555.84818 116.590764 
L 558.298341 77.007121 
L 560.748502 58.238208 
L 563.198663 56.699067 
L 565.648824 56.191516 
L 568.098985 57.209285 
L 570.549146 59.740935 
L 572.999307 54.671469 
L 575.449468 66.861119 
L 577.899629 58.237146 
L 580.349789 83.645572 
L 582.79995 76.041553 
L 585.250111 98.833459 
L 587.700272 65.330048 
L 590.150433 73.957228 
L 592.600594 57.212964 
L 595.050755 60.270731 
L 597.500916 56.194504 
L 599.951077 54.671716 
L 602.401238 56.200097 
L 604.851399 57.218422 
L 607.30156 68.902207 
L 609.751721 57.721138 
L 612.201882 63.820273 
L 614.652043 59.764073 
L 617.102204 61.793923 
L 619.552365 58.758462 
L 622.002526 61.819391 
L 624.452687 57.73169 
L 626.902848 57.793568 
L 629.353009 56.728191 
L 631.80317 57.746579 
L 634.253331 55.177953 
L 636.703492 58.752358 
L 639.153653 54.166732 
L 641.603814 60.264722 
L 644.053975 136.8718 
L 646.504136 126.704996 
L 648.954297 70.408387 
L 651.404458 57.719706 
L 653.854619 79.581105 
L 656.30478 66.870886 
L 661.205102 63.843838 
L 663.655263 56.196913 
L 666.105424 58.74322 
L 668.555585 59.766741 
L 671.005746 58.233075 
L 673.455907 57.226453 
L 673.455907 57.226453 
" clip-path="url(#p7777ad8b13)" style="fill: none; stroke: #1f77b4; stroke-width: 1.5; stroke-linecap: square"/>
   </g>
   <g id="patch_3">
    <path d="M 50.87 390.04 
L 50.87 10.8 
" style="fill: none; stroke: #000000; stroke-width: 0.8; stroke-linejoin: miter; stroke-linecap: square"/>
   </g>
   <g id="patch_4">
    <path d="M 703.102855 390.04 
L 703.102855 10.8 
" style="fill: none; stroke: #000000; stroke-width: 0.8; stroke-linejoin: miter; stroke-linecap: square"/>
   </g>
   <g id="patch_5">
    <path d="M 50.87 390.04 
L 703.102855 390.04 
" style="fill: none; stroke: #000000; stroke-width: 0.8; stroke-linejoin: miter; stroke-linecap: square"/>
   </g>
   <g id="patch_6">
    <path d="M 50.87 10.8 
L 703.102855 10.8 
" style="fill: none; stroke: #000000; stroke-width: 0.8; stroke-linejoin: miter; stroke-linecap: square"/>
   </g>
  </g>
 </g>
 <defs>
  <clipPath id="p7777ad8b13">
   <rect x="50.87" y="10.8" width="652.232855" height="379.24"/>
  </clipPath>
 </defs>
</svg>
