<?xml version="1.0" encoding="utf-8" standalone="no"?>
<!DOCTYPE svg PUBLIC "-//W3C//DTD SVG 1.1//EN"
  "http://www.w3.org/Graphics/SVG/1.1/DTD/svg11.dtd">
<svg xmlns:xlink="http://www.w3.org/1999/xlink" width="720pt" height="432pt" viewBox="0 0 720 432" xmlns="http://www.w3.org/2000/svg" version="1.1">
 <metadata>
  <rdf:RDF xmlns:dc="http://purl.org/dc/elements/1.1/" xmlns:cc="http://creativecommons.org/ns#" xmlns:rdf="http://www.w3.org/1999/02/22-rdf-syntax-ns#">
   <cc:Work>
    <dc:type rdf:resource="http://purl.org/dc/dcmitype/StillImage"/>
    <dc:date>2025-04-15T22:48:02.618047</dc:date>
    <dc:format>image/svg+xml</dc:format>
    <dc:creator>
     <cc:Agent>
      <dc:title>Matplotlib v3.10.0, https://matplotlib.org/</dc:title>
     </cc:Agent>
    </dc:creator>
   </cc:Work>
  </rdf:RDF>
 </metadata>
 <defs>
  <style type="text/css">*{stroke-linejoin: round; stroke-linecap: butt}</style>
 </defs>
 <g id="figure_1">
  <g id="patch_1">
   <path d="M 0 432 
L 720 432 
L 720 0 
L 0 0 
z
" style="fill: #ffffff"/>
  </g>
  <g id="axes_1">
   <g id="patch_2">
    <path d="M 47.72 390.04 
L 709.2 390.04 
L 709.2 14.503079 
L 47.72 14.503079 
z
" style="fill: #ffffff"/>
   </g>
   <g id="FillBetweenPolyCollection_1">
    <defs>
     <path id="m1500534353" d="M 77.8479 -364.695349 
L 77.8479 -165.079796 
L 81.564363 -125.634758 
L 84.535108 -100.45618 
L 86.911703 -86.275288 
L 88.979099 -70.682736 
L 90.694856 -64.712609 
L 92.252981 -60.385767 
L 93.647413 -59.02986 
L 94.94484 -59.786675 
L 96.218016 -60.890338 
L 97.473005 -61.575318 
L 98.703742 -61.452689 
L 99.916291 -61.514004 
L 101.140965 -61.820577 
L 102.359577 -61.636633 
L 103.578189 -61.636633 
L 104.790737 -61.820577 
L 106.015412 -61.820577 
L 107.227961 -61.943206 
L 108.44051 -61.943206 
L 109.653059 -61.759262 
L 110.865608 -61.820577 
L 112.084219 -61.881891 
L 113.296768 -61.820577 
L 114.51538 -61.943206 
L 115.727929 -61.943206 
L 116.940478 -61.943206 
L 118.153027 -61.820577 
L 119.365576 -61.943206 
L 120.578125 -61.943206 
L 121.790673 -61.943206 
L 123.003222 -61.881891 
L 124.215771 -61.943206 
L 125.42832 -61.881891 
L 126.640869 -61.943206 
L 127.853418 -61.943206 
L 129.065967 -61.881891 
L 130.278516 -61.943206 
L 131.491065 -61.943206 
L 132.703614 -61.943206 
L 133.916163 -61.881891 
L 135.128712 -61.943206 
L 136.341261 -61.943206 
L 137.55381 -61.943206 
L 138.766359 -61.943206 
L 139.978907 -61.943206 
L 141.191456 -61.943206 
L 142.404005 -61.881891 
L 143.616554 -61.881891 
L 144.835166 -61.943206 
L 146.047715 -61.943206 
L 147.260264 -61.943206 
L 148.472813 -61.943206 
L 149.691424 -61.881891 
L 150.903973 -61.881891 
L 152.122585 -61.943206 
L 153.335134 -61.943206 
L 154.547683 -61.881891 
L 155.760232 -61.943206 
L 156.972781 -61.943206 
L 158.191392 -61.881891 
L 159.403941 -61.943206 
L 160.61649 -61.943206 
L 161.829039 -61.943206 
L 163.041588 -61.943206 
L 164.254137 -61.943206 
L 165.466686 -61.943206 
L 166.679235 -61.943206 
L 167.891784 -61.943206 
L 169.110396 -61.881891 
L 170.322944 -61.943206 
L 171.535493 -61.943206 
L 172.748042 -61.943206 
L 173.960591 -61.881891 
L 175.17314 -61.943206 
L 176.385689 -61.943206 
L 177.598238 -61.943206 
L 178.810787 -61.943206 
L 180.023336 -61.943206 
L 181.235885 -61.943206 
L 182.448434 -61.943206 
L 183.660983 -61.943206 
L 184.873532 -61.943206 
L 186.086081 -61.943206 
L 187.29863 -61.943206 
L 188.511178 -61.881891 
L 189.723727 -61.943206 
L 190.936276 -61.943206 
L 192.148825 -61.943206 
L 193.361374 -61.943206 
L 194.573923 -61.943206 
L 195.786472 -61.943206 
L 196.999021 -61.943206 
L 198.21157 -61.943206 
L 199.424119 -61.943206 
L 200.636668 -61.943206 
L 201.849217 -61.943206 
L 203.061766 -61.943206 
L 204.274315 -61.943206 
L 205.486863 -61.943206 
L 206.699412 -61.943206 
L 207.911961 -61.943206 
L 209.12451 -61.943206 
L 210.337059 -61.943206 
L 211.549608 -61.943206 
L 212.762157 -61.943206 
L 213.974706 -61.943206 
L 215.187255 -61.943206 
L 216.399804 -61.943206 
L 217.612353 -61.943206 
L 218.824902 -61.943206 
L 220.037451 -61.943206 
L 221.25 -61.943206 
L 222.462549 -61.943206 
L 223.675097 -61.943206 
L 224.887646 -61.943206 
L 226.100195 -61.943206 
L 227.312744 -61.943206 
L 228.525293 -61.943206 
L 229.737842 -61.943206 
L 230.950391 -61.943206 
L 232.16294 -61.943206 
L 233.375489 -61.943206 
L 234.588038 -61.943206 
L 235.800587 -61.943206 
L 237.013136 -61.943206 
L 238.231747 -61.881891 
L 239.444296 -61.943206 
L 240.656845 -61.943206 
L 241.869394 -61.943206 
L 243.081943 -61.943206 
L 244.294492 -61.943206 
L 245.507041 -61.943206 
L 246.71959 -61.943206 
L 247.932139 -61.943206 
L 249.144688 -61.943206 
L 250.357237 -61.943206 
L 251.569786 -61.943206 
L 252.782335 -61.943206 
L 253.994884 -61.943206 
L 255.207432 -61.943206 
L 256.419981 -61.943206 
L 257.63253 -61.943206 
L 258.845079 -61.943206 
L 260.057628 -61.943206 
L 261.270177 -61.943206 
L 262.482726 -61.943206 
L 263.695275 -61.943206 
L 264.907824 -61.943206 
L 266.120373 -61.943206 
L 267.332922 -61.943206 
L 268.545471 -61.943206 
L 269.75802 -61.943206 
L 270.970569 -61.881891 
L 272.183117 -61.943206 
L 273.395666 -61.943206 
L 274.608215 -61.943206 
L 275.820764 -61.943206 
L 277.033313 -61.943206 
L 278.245862 -61.943206 
L 279.458411 -61.943206 
L 280.67096 -61.943206 
L 281.883509 -61.943206 
L 283.096058 -61.881891 
L 284.308607 -61.943206 
L 285.521156 -61.943206 
L 286.733705 -61.943206 
L 287.946254 -61.943206 
L 289.158803 -61.943206 
L 290.371351 -61.943206 
L 291.5839 -61.943206 
L 292.796449 -61.943206 
L 294.008998 -61.943206 
L 295.221547 -61.943206 
L 296.434096 -61.943206 
L 297.646645 -61.943206 
L 298.859194 -61.943206 
L 300.071743 -61.943206 
L 301.284292 -61.943206 
L 302.496841 -61.943206 
L 303.70939 -61.943206 
L 304.921939 -61.943206 
L 306.134488 -61.943206 
L 307.347037 -61.881891 
L 308.559585 -61.943206 
L 309.772134 -61.943206 
L 310.984683 -61.943206 
L 312.197232 -61.943206 
L 313.409781 -61.943206 
L 314.62233 -61.943206 
L 315.834879 -61.943206 
L 317.047428 -61.943206 
L 318.259977 -61.943206 
L 319.472526 -61.943206 
L 320.685075 -61.943206 
L 321.897624 -61.943206 
L 323.110173 -61.943206 
L 324.322722 -61.943206 
L 325.53527 -61.943206 
L 326.747819 -61.943206 
L 327.960368 -61.943206 
L 329.172917 -61.943206 
L 330.385466 -61.943206 
L 331.598015 -61.943206 
L 332.810564 -61.943206 
L 334.023113 -61.943206 
L 335.235662 -61.943206 
L 336.448211 -61.943206 
L 337.66076 -61.943206 
L 338.873309 -61.943206 
L 340.085858 -61.943206 
L 341.298407 -61.943206 
L 342.510956 -61.943206 
L 343.723504 -61.943206 
L 344.936053 -61.943206 
L 346.148602 -61.943206 
L 347.361151 -61.943206 
L 348.5737 -61.943206 
L 349.786249 -61.943206 
L 350.998798 -61.943206 
L 352.211347 -61.943206 
L 353.423896 -61.943206 
L 354.636445 -61.943206 
L 355.848994 -61.943206 
L 357.061543 -61.943206 
L 358.274092 -61.943206 
L 359.486641 -61.943206 
L 360.69919 -61.943206 
L 361.911738 -61.943206 
L 363.124287 -61.943206 
L 364.336836 -61.943206 
L 365.549385 -61.943206 
L 366.761934 -61.943206 
L 367.974483 -61.943206 
L 369.187032 -61.943206 
L 370.399581 -61.943206 
L 371.61213 -61.943206 
L 372.824679 -61.943206 
L 374.037228 -61.943206 
L 375.249777 -61.943206 
L 376.462326 -61.943206 
L 377.674875 -61.943206 
L 378.887423 -61.943206 
L 380.099972 -61.943206 
L 381.312521 -61.943206 
L 382.52507 -61.943206 
L 383.737619 -61.943206 
L 384.950168 -61.943206 
L 386.162717 -61.943206 
L 387.375266 -61.943206 
L 388.587815 -61.943206 
L 389.800364 -61.943206 
L 391.012913 -61.943206 
L 392.225462 -61.943206 
L 393.438011 -61.943206 
L 394.65056 -61.943206 
L 395.863109 -61.943206 
L 397.075657 -61.943206 
L 398.288206 -61.943206 
L 399.500755 -61.943206 
L 400.713304 -61.943206 
L 401.925853 -61.943206 
L 403.138402 -61.943206 
L 404.350951 -61.943206 
L 405.5635 -61.943206 
L 406.776049 -61.943206 
L 407.988598 -61.943206 
L 409.201147 -61.943206 
L 410.413696 -61.881891 
L 411.626245 -61.943206 
L 412.838794 -61.943206 
L 414.051343 -61.881891 
L 415.263891 -61.943206 
L 416.47644 -61.943206 
L 417.688989 -61.943206 
L 418.901538 -61.943206 
L 420.114087 -61.943206 
L 421.326636 -61.943206 
L 422.539185 -61.943206 
L 423.751734 -61.943206 
L 424.964283 -61.943206 
L 426.176832 -61.943206 
L 427.389381 -61.943206 
L 428.60193 -61.943206 
L 429.814479 -61.943206 
L 431.027028 -61.943206 
L 432.239577 -61.943206 
L 433.452125 -61.943206 
L 434.664674 -61.943206 
L 435.877223 -61.943206 
L 437.089772 -61.943206 
L 438.302321 -61.943206 
L 439.51487 -61.943206 
L 440.727419 -61.943206 
L 441.939968 -61.943206 
L 443.152517 -61.943206 
L 444.365066 -61.943206 
L 445.577615 -61.943206 
L 446.790164 -61.943206 
L 448.002713 -61.943206 
L 449.215262 -61.943206 
L 450.42781 -61.943206 
L 451.640359 -61.943206 
L 452.852908 -61.943206 
L 454.065457 -61.943206 
L 455.278006 -61.943206 
L 456.490555 -61.943206 
L 457.703104 -61.943206 
L 458.915653 -61.943206 
L 460.128202 -61.943206 
L 461.340751 -61.943206 
L 462.5533 -61.943206 
L 463.765849 -61.943206 
L 464.978398 -61.943206 
L 466.190947 -61.943206 
L 467.403496 -61.943206 
L 468.616044 -61.943206 
L 469.828593 -61.943206 
L 471.041142 -61.943206 
L 472.253691 -61.943206 
L 473.46624 -61.943206 
L 474.678789 -61.943206 
L 475.891338 -61.943206 
L 477.103887 -61.943206 
L 478.316436 -61.943206 
L 479.528985 -61.943206 
L 480.741534 -61.943206 
L 481.954083 -61.943206 
L 483.166632 -61.943206 
L 484.379181 -61.943206 
L 485.59173 -61.943206 
L 486.804278 -61.943206 
L 488.016827 -61.943206 
L 489.229376 -61.943206 
L 490.441925 -61.943206 
L 491.654474 -61.943206 
L 492.867023 -61.943206 
L 494.079572 -61.943206 
L 495.292121 -61.943206 
L 496.50467 -61.943206 
L 497.717219 -61.943206 
L 498.929768 -61.943206 
L 500.142317 -61.943206 
L 501.354866 -61.943206 
L 502.567415 -61.943206 
L 503.779963 -61.943206 
L 504.992512 -61.943206 
L 506.205061 -61.943206 
L 507.41761 -61.943206 
L 508.630159 -61.943206 
L 509.842708 -61.943206 
L 511.055257 -61.943206 
L 512.267806 -61.943206 
L 513.480355 -61.943206 
L 514.692904 -61.943206 
L 515.905453 -61.943206 
L 517.118002 -61.943206 
L 518.330551 -61.943206 
L 519.5431 -61.943206 
L 520.755649 -61.943206 
L 521.968197 -61.943206 
L 523.180746 -61.943206 
L 524.393295 -61.943206 
L 525.605844 -61.943206 
L 526.818393 -61.943206 
L 528.030942 -61.943206 
L 529.243491 -61.943206 
L 530.45604 -61.881891 
L 531.674652 -61.943206 
L 532.887201 -61.943206 
L 534.09975 -61.943206 
L 535.312298 -61.943206 
L 536.524847 -61.943206 
L 537.737396 -61.943206 
L 538.949945 -61.943206 
L 540.162494 -61.943206 
L 541.375043 -61.881891 
L 542.587592 -61.943206 
L 543.800141 -61.943206 
L 545.01269 -61.943206 
L 546.225239 -61.943206 
L 547.437788 -61.943206 
L 548.650337 -61.943206 
L 549.862886 -61.943206 
L 551.075435 -61.943206 
L 552.287984 -61.943206 
L 553.500532 -61.943206 
L 554.713081 -61.943206 
L 555.92563 -61.943206 
L 557.138179 -61.943206 
L 558.350728 -61.943206 
L 559.563277 -61.943206 
L 560.775826 -61.943206 
L 561.988375 -61.943206 
L 563.200924 -61.943206 
L 564.413473 -61.943206 
L 565.626022 -61.943206 
L 566.838571 -61.943206 
L 568.05112 -61.943206 
L 569.263669 -61.943206 
L 570.476217 -61.943206 
L 571.688766 -61.943206 
L 572.901315 -61.943206 
L 574.113864 -61.943206 
L 575.326413 -61.943206 
L 576.538962 -61.943206 
L 577.751511 -61.943206 
L 578.96406 -61.943206 
L 580.176609 -61.943206 
L 581.389158 -61.943206 
L 582.601707 -61.943206 
L 583.814256 -61.943206 
L 585.026805 -61.943206 
L 586.239354 -61.943206 
L 587.451903 -61.943206 
L 588.664451 -61.943206 
L 589.877 -61.943206 
L 591.089549 -61.943206 
L 592.302098 -61.943206 
L 593.514647 -61.943206 
L 594.727196 -61.943206 
L 595.939745 -61.943206 
L 597.152294 -61.943206 
L 598.364843 -61.943206 
L 599.577392 -61.943206 
L 600.789941 -61.943206 
L 602.00249 -61.943206 
L 603.215039 -61.943206 
L 604.427588 -61.943206 
L 605.640137 -61.943206 
L 606.852685 -61.943206 
L 608.065234 -61.943206 
L 609.277783 -61.943206 
L 610.490332 -61.943206 
L 611.702881 -61.943206 
L 612.91543 -61.943206 
L 614.127979 -61.943206 
L 615.340528 -61.943206 
L 616.553077 -61.943206 
L 617.765626 -61.943206 
L 618.978175 -61.943206 
L 620.190724 -61.943206 
L 621.403273 -61.943206 
L 622.615822 -61.943206 
L 623.82837 -61.943206 
L 625.040919 -61.943206 
L 626.253468 -61.943206 
L 627.466017 -61.943206 
L 628.678566 -61.943206 
L 629.891115 -61.943206 
L 631.103664 -61.943206 
L 632.316213 -61.943206 
L 633.528762 -61.943206 
L 634.741311 -61.943206 
L 635.95386 -61.881891 
L 637.172471 -61.943206 
L 638.38502 -61.943206 
L 639.597569 -61.943206 
L 640.810118 -61.943206 
L 642.022667 -61.943206 
L 643.235216 -61.943206 
L 644.447765 -61.943206 
L 645.660314 -61.943206 
L 646.872863 -61.943206 
L 648.085412 -61.943206 
L 649.297961 -61.943206 
L 650.51051 -61.943206 
L 651.723059 -61.943206 
L 652.935608 -61.943206 
L 654.148157 -61.943206 
L 655.360705 -61.943206 
L 656.573254 -61.943206 
L 657.785803 -61.943206 
L 658.998352 -61.943206 
L 660.210901 -61.943206 
L 661.42345 -61.943206 
L 662.635999 -61.943206 
L 663.848548 -61.943206 
L 665.061097 -61.943206 
L 666.273646 -61.943206 
L 667.486195 -61.943206 
L 668.698744 -61.943206 
L 669.911293 -61.943206 
L 671.123842 -61.943206 
L 672.336391 -61.943206 
L 673.548939 -61.943206 
L 674.761488 -61.943206 
L 675.974037 -61.943206 
L 677.186586 -61.943206 
L 678.399135 -61.943206 
L 678.399135 -61.943206 
L 678.399135 -61.943206 
L 677.186586 -61.943206 
L 675.974037 -61.943206 
L 674.761488 -61.943206 
L 673.548939 -61.943206 
L 672.336391 -61.943206 
L 671.123842 -61.943206 
L 669.911293 -61.943206 
L 668.698744 -61.943206 
L 667.486195 -61.943206 
L 666.273646 -61.943206 
L 665.061097 -61.943206 
L 663.848548 -61.943206 
L 662.635999 -61.943206 
L 661.42345 -61.943206 
L 660.210901 -61.943206 
L 658.998352 -61.943206 
L 657.785803 -61.943206 
L 656.573254 -61.943206 
L 655.360705 -61.943206 
L 654.148157 -61.943206 
L 652.935608 -61.943206 
L 651.723059 -61.943206 
L 650.51051 -61.943206 
L 649.297961 -61.943206 
L 648.085412 -61.943206 
L 646.872863 -61.943206 
L 645.660314 -61.943206 
L 644.447765 -61.943206 
L 643.235216 -61.943206 
L 642.022667 -61.943206 
L 640.810118 -61.943206 
L 639.597569 -61.943206 
L 638.38502 -61.943206 
L 637.172471 -61.943206 
L 635.95386 -62.300573 
L 634.741311 -61.943206 
L 633.528762 -61.943206 
L 632.316213 -61.943206 
L 631.103664 -61.943206 
L 629.891115 -61.943206 
L 628.678566 -61.943206 
L 627.466017 -61.943206 
L 626.253468 -61.943206 
L 625.040919 -61.943206 
L 623.82837 -61.943206 
L 622.615822 -61.943206 
L 621.403273 -61.943206 
L 620.190724 -61.943206 
L 618.978175 -61.943206 
L 617.765626 -61.943206 
L 616.553077 -61.943206 
L 615.340528 -61.943206 
L 614.127979 -61.943206 
L 612.91543 -61.943206 
L 611.702881 -61.943206 
L 610.490332 -61.943206 
L 609.277783 -61.943206 
L 608.065234 -61.943206 
L 606.852685 -61.943206 
L 605.640137 -61.943206 
L 604.427588 -61.943206 
L 603.215039 -61.943206 
L 602.00249 -61.943206 
L 600.789941 -61.943206 
L 599.577392 -61.943206 
L 598.364843 -61.943206 
L 597.152294 -61.943206 
L 595.939745 -61.943206 
L 594.727196 -61.943206 
L 593.514647 -61.943206 
L 592.302098 -61.943206 
L 591.089549 -61.943206 
L 589.877 -61.943206 
L 588.664451 -61.943206 
L 587.451903 -61.943206 
L 586.239354 -61.943206 
L 585.026805 -61.943206 
L 583.814256 -61.943206 
L 582.601707 -61.943206 
L 581.389158 -61.943206 
L 580.176609 -61.943206 
L 578.96406 -61.943206 
L 577.751511 -61.943206 
L 576.538962 -61.943206 
L 575.326413 -61.943206 
L 574.113864 -61.943206 
L 572.901315 -61.943206 
L 571.688766 -61.943206 
L 570.476217 -61.943206 
L 569.263669 -61.943206 
L 568.05112 -61.943206 
L 566.838571 -61.943206 
L 565.626022 -61.943206 
L 564.413473 -61.943206 
L 563.200924 -61.943206 
L 561.988375 -61.943206 
L 560.775826 -61.943206 
L 559.563277 -61.943206 
L 558.350728 -61.943206 
L 557.138179 -61.943206 
L 555.92563 -61.943206 
L 554.713081 -61.943206 
L 553.500532 -61.943206 
L 552.287984 -61.943206 
L 551.075435 -61.943206 
L 549.862886 -61.943206 
L 548.650337 -61.943206 
L 547.437788 -61.943206 
L 546.225239 -61.943206 
L 545.01269 -61.943206 
L 543.800141 -61.943206 
L 542.587592 -61.943206 
L 541.375043 -62.300573 
L 540.162494 -61.943206 
L 538.949945 -61.943206 
L 537.737396 -61.943206 
L 536.524847 -61.943206 
L 535.312298 -61.943206 
L 534.09975 -61.943206 
L 532.887201 -61.943206 
L 531.674652 -61.943206 
L 530.45604 -62.300573 
L 529.243491 -61.943206 
L 528.030942 -61.943206 
L 526.818393 -61.943206 
L 525.605844 -61.943206 
L 524.393295 -61.943206 
L 523.180746 -61.943206 
L 521.968197 -61.943206 
L 520.755649 -61.943206 
L 519.5431 -61.943206 
L 518.330551 -61.943206 
L 517.118002 -61.943206 
L 515.905453 -61.943206 
L 514.692904 -61.943206 
L 513.480355 -61.943206 
L 512.267806 -61.943206 
L 511.055257 -61.943206 
L 509.842708 -61.943206 
L 508.630159 -61.943206 
L 507.41761 -61.943206 
L 506.205061 -61.943206 
L 504.992512 -61.943206 
L 503.779963 -61.943206 
L 502.567415 -61.943206 
L 501.354866 -61.943206 
L 500.142317 -61.943206 
L 498.929768 -61.943206 
L 497.717219 -61.943206 
L 496.50467 -61.943206 
L 495.292121 -61.943206 
L 494.079572 -61.943206 
L 492.867023 -61.943206 
L 491.654474 -61.943206 
L 490.441925 -61.943206 
L 489.229376 -61.943206 
L 488.016827 -61.943206 
L 486.804278 -61.943206 
L 485.59173 -61.943206 
L 484.379181 -61.943206 
L 483.166632 -61.943206 
L 481.954083 -61.943206 
L 480.741534 -61.943206 
L 479.528985 -61.943206 
L 478.316436 -61.943206 
L 477.103887 -61.943206 
L 475.891338 -61.943206 
L 474.678789 -61.943206 
L 473.46624 -61.943206 
L 472.253691 -61.943206 
L 471.041142 -61.943206 
L 469.828593 -61.943206 
L 468.616044 -61.943206 
L 467.403496 -61.943206 
L 466.190947 -61.943206 
L 464.978398 -61.943206 
L 463.765849 -61.943206 
L 462.5533 -61.943206 
L 461.340751 -61.943206 
L 460.128202 -61.943206 
L 458.915653 -61.943206 
L 457.703104 -61.943206 
L 456.490555 -61.943206 
L 455.278006 -61.943206 
L 454.065457 -61.943206 
L 452.852908 -61.943206 
L 451.640359 -61.943206 
L 450.42781 -61.943206 
L 449.215262 -61.943206 
L 448.002713 -61.943206 
L 446.790164 -61.943206 
L 445.577615 -61.943206 
L 444.365066 -61.943206 
L 443.152517 -61.943206 
L 441.939968 -61.943206 
L 440.727419 -61.943206 
L 439.51487 -61.943206 
L 438.302321 -61.943206 
L 437.089772 -61.943206 
L 435.877223 -61.943206 
L 434.664674 -61.943206 
L 433.452125 -61.943206 
L 432.239577 -61.943206 
L 431.027028 -61.943206 
L 429.814479 -61.943206 
L 428.60193 -61.943206 
L 427.389381 -61.943206 
L 426.176832 -61.943206 
L 424.964283 -61.943206 
L 423.751734 -61.943206 
L 422.539185 -61.943206 
L 421.326636 -61.943206 
L 420.114087 -61.943206 
L 418.901538 -61.943206 
L 417.688989 -61.943206 
L 416.47644 -61.943206 
L 415.263891 -61.943206 
L 414.051343 -62.300573 
L 412.838794 -61.943206 
L 411.626245 -61.943206 
L 410.413696 -62.300573 
L 409.201147 -61.943206 
L 407.988598 -61.943206 
L 406.776049 -61.943206 
L 405.5635 -61.943206 
L 404.350951 -61.943206 
L 403.138402 -61.943206 
L 401.925853 -61.943206 
L 400.713304 -61.943206 
L 399.500755 -61.943206 
L 398.288206 -61.943206 
L 397.075657 -61.943206 
L 395.863109 -61.943206 
L 394.65056 -61.943206 
L 393.438011 -61.943206 
L 392.225462 -61.943206 
L 391.012913 -61.943206 
L 389.800364 -61.943206 
L 388.587815 -61.943206 
L 387.375266 -61.943206 
L 386.162717 -61.943206 
L 384.950168 -61.943206 
L 383.737619 -61.943206 
L 382.52507 -61.943206 
L 381.312521 -61.943206 
L 380.099972 -61.943206 
L 378.887423 -61.943206 
L 377.674875 -61.943206 
L 376.462326 -61.943206 
L 375.249777 -61.943206 
L 374.037228 -61.943206 
L 372.824679 -61.943206 
L 371.61213 -61.943206 
L 370.399581 -61.943206 
L 369.187032 -61.943206 
L 367.974483 -61.943206 
L 366.761934 -61.943206 
L 365.549385 -61.943206 
L 364.336836 -61.943206 
L 363.124287 -61.943206 
L 361.911738 -61.943206 
L 360.69919 -61.943206 
L 359.486641 -61.943206 
L 358.274092 -61.943206 
L 357.061543 -61.943206 
L 355.848994 -61.943206 
L 354.636445 -61.943206 
L 353.423896 -61.943206 
L 352.211347 -61.943206 
L 350.998798 -61.943206 
L 349.786249 -61.943206 
L 348.5737 -61.943206 
L 347.361151 -61.943206 
L 346.148602 -61.943206 
L 344.936053 -61.943206 
L 343.723504 -61.943206 
L 342.510956 -61.943206 
L 341.298407 -61.943206 
L 340.085858 -61.943206 
L 338.873309 -61.943206 
L 337.66076 -61.943206 
L 336.448211 -61.943206 
L 335.235662 -61.943206 
L 334.023113 -61.943206 
L 332.810564 -61.943206 
L 331.598015 -61.943206 
L 330.385466 -61.943206 
L 329.172917 -61.943206 
L 327.960368 -61.943206 
L 326.747819 -61.943206 
L 325.53527 -61.943206 
L 324.322722 -61.943206 
L 323.110173 -61.943206 
L 321.897624 -61.943206 
L 320.685075 -61.943206 
L 319.472526 -61.943206 
L 318.259977 -61.943206 
L 317.047428 -61.943206 
L 315.834879 -61.943206 
L 314.62233 -61.943206 
L 313.409781 -61.943206 
L 312.197232 -61.943206 
L 310.984683 -61.943206 
L 309.772134 -61.943206 
L 308.559585 -61.943206 
L 307.347037 -62.300573 
L 306.134488 -61.943206 
L 304.921939 -61.943206 
L 303.70939 -61.943206 
L 302.496841 -61.943206 
L 301.284292 -61.943206 
L 300.071743 -61.943206 
L 298.859194 -61.943206 
L 297.646645 -61.943206 
L 296.434096 -61.943206 
L 295.221547 -61.943206 
L 294.008998 -61.943206 
L 292.796449 -61.943206 
L 291.5839 -61.943206 
L 290.371351 -61.943206 
L 289.158803 -61.943206 
L 287.946254 -61.943206 
L 286.733705 -61.943206 
L 285.521156 -61.943206 
L 284.308607 -61.943206 
L 283.096058 -62.300573 
L 281.883509 -61.943206 
L 280.67096 -61.943206 
L 279.458411 -61.943206 
L 278.245862 -61.943206 
L 277.033313 -61.943206 
L 275.820764 -61.943206 
L 274.608215 -61.943206 
L 273.395666 -61.943206 
L 272.183117 -61.943206 
L 270.970569 -62.300573 
L 269.75802 -61.943206 
L 268.545471 -61.943206 
L 267.332922 -61.943206 
L 266.120373 -61.943206 
L 264.907824 -61.943206 
L 263.695275 -61.943206 
L 262.482726 -61.943206 
L 261.270177 -61.943206 
L 260.057628 -61.943206 
L 258.845079 -61.943206 
L 257.63253 -61.943206 
L 256.419981 -61.943206 
L 255.207432 -61.943206 
L 253.994884 -61.943206 
L 252.782335 -61.943206 
L 251.569786 -61.943206 
L 250.357237 -61.943206 
L 249.144688 -61.943206 
L 247.932139 -61.943206 
L 246.71959 -61.943206 
L 245.507041 -61.943206 
L 244.294492 -61.943206 
L 243.081943 -61.943206 
L 241.869394 -61.943206 
L 240.656845 -61.943206 
L 239.444296 -61.943206 
L 238.231747 -62.300573 
L 237.013136 -61.943206 
L 235.800587 -61.943206 
L 234.588038 -61.943206 
L 233.375489 -61.943206 
L 232.16294 -61.943206 
L 230.950391 -61.943206 
L 229.737842 -61.943206 
L 228.525293 -61.943206 
L 227.312744 -61.943206 
L 226.100195 -61.943206 
L 224.887646 -61.943206 
L 223.675097 -61.943206 
L 222.462549 -61.943206 
L 221.25 -61.943206 
L 220.037451 -61.943206 
L 218.824902 -61.943206 
L 217.612353 -61.943206 
L 216.399804 -61.943206 
L 215.187255 -61.943206 
L 213.974706 -61.943206 
L 212.762157 -61.943206 
L 211.549608 -61.943206 
L 210.337059 -61.943206 
L 209.12451 -61.943206 
L 207.911961 -61.943206 
L 206.699412 -61.943206 
L 205.486863 -61.943206 
L 204.274315 -61.943206 
L 203.061766 -61.943206 
L 201.849217 -61.943206 
L 200.636668 -61.943206 
L 199.424119 -61.943206 
L 198.21157 -61.943206 
L 196.999021 -61.943206 
L 195.786472 -61.943206 
L 194.573923 -61.943206 
L 193.361374 -61.943206 
L 192.148825 -61.943206 
L 190.936276 -61.943206 
L 189.723727 -61.943206 
L 188.511178 -62.300573 
L 187.29863 -61.943206 
L 186.086081 -61.943206 
L 184.873532 -61.943206 
L 183.660983 -61.943206 
L 182.448434 -61.943206 
L 181.235885 -61.943206 
L 180.023336 -61.943206 
L 178.810787 -61.943206 
L 177.598238 -61.943206 
L 176.385689 -61.943206 
L 175.17314 -61.943206 
L 173.960591 -62.300573 
L 172.748042 -61.943206 
L 171.535493 -61.943206 
L 170.322944 -61.943206 
L 169.110396 -62.300573 
L 167.891784 -61.943206 
L 166.679235 -61.943206 
L 165.466686 -61.943206 
L 164.254137 -61.943206 
L 163.041588 -61.943206 
L 161.829039 -61.943206 
L 160.61649 -61.943206 
L 159.403941 -61.943206 
L 158.191392 -62.300573 
L 156.972781 -61.943206 
L 155.760232 -61.943206 
L 154.547683 -62.300573 
L 153.335134 -61.943206 
L 152.122585 -61.943206 
L 150.903973 -62.300573 
L 149.691424 -62.300573 
L 148.472813 -61.943206 
L 147.260264 -61.943206 
L 146.047715 -61.943206 
L 144.835166 -61.943206 
L 143.616554 -62.300573 
L 142.404005 -62.300573 
L 141.191456 -61.943206 
L 139.978907 -61.943206 
L 138.766359 -61.943206 
L 137.55381 -61.943206 
L 136.341261 -61.943206 
L 135.128712 -61.943206 
L 133.916163 -62.300573 
L 132.703614 -61.943206 
L 131.491065 -61.943206 
L 130.278516 -61.943206 
L 129.065967 -62.300573 
L 127.853418 -61.943206 
L 126.640869 -61.943206 
L 125.42832 -62.300573 
L 124.215771 -61.943206 
L 123.003222 -62.300573 
L 121.790673 -61.943206 
L 120.578125 -61.943206 
L 119.365576 -61.943206 
L 118.153027 -62.657941 
L 116.940478 -61.943206 
L 115.727929 -61.943206 
L 114.51538 -61.943206 
L 113.296768 -62.657941 
L 112.084219 -62.300573 
L 110.865608 -62.657941 
L 109.653059 -63.015309 
L 108.44051 -61.943206 
L 107.227961 -61.943206 
L 106.015412 -62.657941 
L 104.790737 -62.657941 
L 103.578189 -63.730044 
L 102.359577 -63.730044 
L 101.140965 -62.657941 
L 99.916291 -64.444779 
L 98.703742 -64.802147 
L 97.473005 -64.087412 
L 96.218016 -70.101347 
L 94.94484 -76.533965 
L 93.647413 -84.988159 
L 92.252981 -97.842798 
L 90.694856 -126.969951 
L 88.979099 -145.276174 
L 86.911703 -186.821862 
L 84.535108 -233.035792 
L 81.564363 -301.409979 
L 77.8479 -364.695349 
z
" style="stroke: #0000ff; stroke-opacity: 0.2"/>
    </defs>
    <g clip-path="url(#p91f9ae69d9)">
     <use xlink:href="#m1500534353" x="0" y="432" style="fill: #0000ff; fill-opacity: 0.2; stroke: #0000ff; stroke-opacity: 0.2"/>
    </g>
   </g>
   <g id="FillBetweenPolyCollection_2">
    <defs>
     <path id="mee23c58be5" d="M 77.787273 -385.687026 
L 77.787273 -155.042083 
L 81.873563 -165.474464 
L 85.729468 -161.189061 
L 89.912762 -180.556342 
L 93.798981 -165.223345 
L 97.703389 -167.259662 
L 101.916996 -166.575455 
L 106.051788 -163.595631 
L 110.289647 -163.22729 
L 114.321372 -167.260649 
L 118.462227 -167.520152 
L 122.639458 -176.817975 
L 126.810626 -168.698117 
L 131.024234 -161.015089 
L 135.037771 -178.402763 
L 139.36657 -168.991631 
L 143.471048 -152.715468 
L 147.508836 -175.770865 
L 151.425369 -161.557047 
L 155.487408 -160.096062 
L 159.507008 -164.228169 
L 163.490231 -166.516992 
L 167.625023 -169.314849 
L 171.590058 -163.681955 
L 175.603595 -170.232355 
L 179.920269 -170.130237 
L 184.170253 -162.149065 
L 188.286857 -177.163839 
L 192.730849 -165.111041 
L 196.871703 -181.028458 
L 201.06106 -166.491624 
L 205.220103 -163.292511 
L 209.263953 -165.606282 
L 213.404808 -165.670813 
L 217.569914 -159.378927 
L 221.565262 -161.19183 
L 225.772807 -171.030785 
L 229.743905 -152.870242 
L 233.90901 -176.036698 
L 237.9953 -170.46169 
L 242.0149 -174.476162 
L 246.192131 -173.343259 
L 250.290547 -164.895917 
L 254.619346 -174.616078 
L 258.711699 -168.321597 
L 262.731299 -164.636896 
L 266.678145 -163.034635 
L 270.806874 -163.359317 
L 275.244804 -160.269972 
L 279.203776 -158.44179 
L 283.374944 -170.257878 
L 287.212662 -168.894036 
L 291.2747 -164.169399 
L 295.476182 -164.863175 
L 299.720104 -168.333692 
L 303.9519 -163.829998 
L 307.959374 -165.944841 
L 312.075977 -164.539092 
L 316.180455 -169.930618 
L 320.206118 -169.614265 
L 324.34091 -170.865955 
L 328.25138 -153.755202 
L 332.446799 -166.586826 
L 336.478525 -169.172986 
L 340.740634 -171.611469 
L 345.014869 -171.077887 
L 349.198163 -164.121646 
L 353.387519 -172.920195 
L 357.528374 -159.511323 
L 361.669229 -181.902537 
L 366.08897 -171.999987 
L 370.096444 -159.945063 
L 374.231236 -165.518526 
L 378.184145 -159.325784 
L 382.264372 -161.197702 
L 386.508294 -168.935041 
L 390.624897 -154.66994 
L 394.753626 -163.045453 
L 398.882355 -171.94935 
L 403.338473 -169.347058 
L 407.55208 -169.741352 
L 411.686872 -159.027134 
L 415.718597 -164.258838 
L 420.041334 -165.358913 
L 423.976056 -164.068483 
L 428.062345 -164.946845 
L 432.003129 -164.314573 
L 436.137921 -163.454803 
L 440.163584 -158.282246 
L 444.334752 -151.479591 
L 448.342226 -171.017321 
L 452.664963 -159.500245 
L 456.975575 -176.449632 
L 461.164931 -167.231777 
L 465.117841 -162.731151 
L 469.416327 -162.941603 
L 473.217668 -166.933164 
L 477.073573 -179.231658 
L 481.026483 -162.659151 
L 485.343157 -165.744111 
L 489.332443 -165.146299 
L 493.473298 -162.74463 
L 497.553525 -168.133832 
L 501.682254 -176.483262 
L 506.071681 -157.162833 
L 509.933649 -164.96992 
L 514.11088 -168.22219 
L 518.154731 -159.339807 
L 522.077327 -169.870293 
L 526.115115 -164.250964 
L 530.262032 -169.067483 
L 534.706024 -180.819718 
L 538.956008 -168.131034 
L 543.236306 -168.164436 
L 547.298345 -166.92025 
L 551.39676 -164.847827 
L 555.713434 -182.78068 
L 560.102861 -178.203262 
L 564.255841 -168.46043 
L 568.475512 -151.259817 
L 572.604241 -168.876652 
L 577.127048 -165.633086 
L 581.267903 -174.569791 
L 585.123809 -162.472731 
L 589.343479 -170.258888 
L 593.393392 -151.12916 
L 597.419055 -167.752142 
L 601.620537 -169.299451 
L 605.597697 -169.636699 
L 609.696113 -161.176614 
L 613.897595 -156.771099 
L 618.002073 -172.862772 
L 622.167178 -166.954691 
L 626.095837 -163.076112 
L 630.25488 -162.152917 
L 634.250229 -162.779586 
L 638.300142 -166.918676 
L 642.550126 -174.173934 
L 646.703106 -159.132999 
L 650.649953 -165.979662 
L 654.802933 -162.144716 
L 658.846784 -165.750505 
L 662.654187 -156.494773 
L 666.788979 -163.767424 
L 670.89952 -172.803161 
L 675.101002 -183.151193 
L 679.132727 -154.43823 
L 679.132727 -371.192172 
L 679.132727 -371.192172 
L 675.101002 -384.814796 
L 670.89952 -375.623327 
L 666.788979 -369.560358 
L 662.654187 -368.24747 
L 658.846784 -377.050975 
L 654.802933 -383.913347 
L 650.649953 -384.81525 
L 646.703106 -378.043472 
L 642.550126 -374.548607 
L 638.300142 -371.145955 
L 634.250229 -379.429788 
L 630.25488 -371.174865 
L 626.095837 -364.034556 
L 622.167178 -380.87969 
L 618.002073 -365.497912 
L 613.897595 -377.148789 
L 609.696113 -382.216972 
L 605.597697 -385.895062 
L 601.620537 -380.015196 
L 597.419055 -381.562505 
L 593.393392 -378.942038 
L 589.343479 -380.832077 
L 585.123809 -373.223475 
L 581.267903 -375.633014 
L 577.127048 -379.240765 
L 572.604241 -383.694579 
L 568.475512 -383.844283 
L 564.255841 -384.406854 
L 560.102861 -384.729825 
L 555.713434 -394.362954 
L 551.39676 -374.401016 
L 547.298345 -384.466768 
L 543.236306 -385.294953 
L 538.956008 -400.427061 
L 534.706024 -392.475226 
L 530.262032 -376.694527 
L 526.115115 -374.10972 
L 522.077327 -380.924619 
L 518.154731 -361.8498 
L 514.11088 -383.164829 
L 509.933649 -373.686817 
L 506.071681 -381.19785 
L 501.682254 -391.77878 
L 497.553525 -369.042639 
L 493.473298 -378.872638 
L 489.332443 -382.095977 
L 485.343157 -373.800784 
L 481.026483 -383.694965 
L 477.073573 -388.142225 
L 473.217668 -378.23674 
L 469.416327 -378.379611 
L 465.117841 -386.583496 
L 461.164931 -379.418392 
L 456.975575 -385.595296 
L 452.664963 -378.564386 
L 448.342226 -381.553909 
L 444.334752 -364.085007 
L 440.163584 -388.663976 
L 436.137921 -380.234835 
L 432.003129 -379.671119 
L 428.062345 -371.045415 
L 423.976056 -377.844837 
L 420.041334 -383.363628 
L 415.718597 -381.503172 
L 411.686872 -380.221709 
L 407.55208 -379.573295 
L 403.338473 -387.961021 
L 398.882355 -385.950835 
L 394.753626 -371.762594 
L 390.624897 -372.144675 
L 386.508294 -376.234863 
L 382.264372 -383.084042 
L 378.184145 -370.745414 
L 374.231236 -381.427697 
L 370.096444 -378.415621 
L 366.08897 -373.762023 
L 361.669229 -395.241096 
L 357.528374 -382.994104 
L 353.387519 -386.460256 
L 349.198163 -385.489053 
L 345.014869 -391.559147 
L 340.740634 -387.768981 
L 336.478525 -382.510085 
L 332.446799 -378.583078 
L 328.25138 -364.473874 
L 324.34091 -382.001329 
L 320.206118 -383.845125 
L 316.180455 -390.930097 
L 312.075977 -380.630812 
L 307.959374 -384.257965 
L 303.9519 -376.010951 
L 299.720104 -384.829644 
L 295.476182 -384.747524 
L 291.2747 -373.007073 
L 287.212662 -371.242966 
L 283.374944 -384.97783 
L 279.203776 -376.070204 
L 275.244804 -373.353863 
L 270.806874 -382.10664 
L 266.678145 -369.108935 
L 262.731299 -372.835628 
L 258.711699 -374.479882 
L 254.619346 -392.165699 
L 250.290547 -382.050305 
L 246.192131 -367.089796 
L 242.0149 -386.088501 
L 237.9953 -388.326654 
L 233.90901 -389.560866 
L 229.743905 -377.497009 
L 225.772807 -370.290429 
L 221.565262 -384.57018 
L 217.569914 -378.38965 
L 213.404808 -373.874083 
L 209.263953 -370.385977 
L 205.220103 -379.508969 
L 201.06106 -379.270386 
L 196.871703 -386.345425 
L 192.730849 -386.57203 
L 188.286857 -385.473195 
L 184.170253 -371.178717 
L 179.920269 -380.960728 
L 175.603595 -382.042822 
L 171.590058 -383.856374 
L 167.625023 -393.322185 
L 163.490231 -390.791087 
L 159.507008 -382.422001 
L 155.487408 -390.106744 
L 151.425369 -379.468114 
L 147.508836 -375.024047 
L 143.471048 -366.697821 
L 139.36657 -387.132236 
L 135.037771 -378.31321 
L 131.024234 -370.536375 
L 126.810626 -375.583628 
L 122.639458 -381.970369 
L 118.462227 -376.761592 
L 114.321372 -382.053998 
L 110.289647 -366.843909 
L 106.051788 -377.133477 
L 101.916996 -366.752327 
L 97.703389 -382.943144 
L 93.798981 -374.321551 
L 89.912762 -383.264904 
L 85.729468 -375.395304 
L 81.873563 -374.662538 
L 77.787273 -385.687026 
z
" style="stroke: #ffa500; stroke-opacity: 0.2"/>
    </defs>
    <g clip-path="url(#p91f9ae69d9)">
     <use xlink:href="#mee23c58be5" x="0" y="432" style="fill: #ffa500; fill-opacity: 0.2; stroke: #ffa500; stroke-opacity: 0.2"/>
    </g>
   </g>
   <g id="matplotlib.axis_1">
    <g id="xtick_1">
     <g id="line2d_1">
      <path d="M 75.756253 390.04 
L 75.756253 14.503079 
" clip-path="url(#p91f9ae69d9)" style="fill: none; stroke: #b0b0b0; stroke-width: 0.8; stroke-linecap: square"/>
     </g>
     <g id="line2d_2">
      <defs>
       <path id="m640ac78bcc" d="M 0 0 
L 0 3.5 
" style="stroke: #000000; stroke-width: 0.8"/>
      </defs>
      <g>
       <use xlink:href="#m640ac78bcc" x="75.756253" y="390.04" style="stroke: #000000; stroke-width: 0.8"/>
      </g>
     </g>
     <g id="text_1">
      <!-- 0 -->
      <g transform="translate(72.575003 404.638438) scale(0.1 -0.1)">
       <defs>
        <path id="DejaVuSans-30" d="M 2034 4250 
Q 1547 4250 1301 3770 
Q 1056 3291 1056 2328 
Q 1056 1369 1301 889 
Q 1547 409 2034 409 
Q 2525 409 2770 889 
Q 3016 1369 3016 2328 
Q 3016 3291 2770 3770 
Q 2525 4250 2034 4250 
z
M 2034 4750 
Q 2819 4750 3233 4129 
Q 3647 3509 3647 2328 
Q 3647 1150 3233 529 
Q 2819 -91 2034 -91 
Q 1250 -91 836 529 
Q 422 1150 422 2328 
Q 422 3509 836 4129 
Q 1250 4750 2034 4750 
z
" transform="scale(0.015625)"/>
       </defs>
       <use xlink:href="#DejaVuSans-30"/>
      </g>
     </g>
    </g>
    <g id="xtick_2">
     <g id="line2d_3">
      <path d="M 197.011146 390.04 
L 197.011146 14.503079 
" clip-path="url(#p91f9ae69d9)" style="fill: none; stroke: #b0b0b0; stroke-width: 0.8; stroke-linecap: square"/>
     </g>
     <g id="line2d_4">
      <g>
       <use xlink:href="#m640ac78bcc" x="197.011146" y="390.04" style="stroke: #000000; stroke-width: 0.8"/>
      </g>
     </g>
     <g id="text_2">
      <!-- 20000 -->
      <g transform="translate(181.104896 404.638438) scale(0.1 -0.1)">
       <defs>
        <path id="DejaVuSans-32" d="M 1228 531 
L 3431 531 
L 3431 0 
L 469 0 
L 469 531 
Q 828 903 1448 1529 
Q 2069 2156 2228 2338 
Q 2531 2678 2651 2914 
Q 2772 3150 2772 3378 
Q 2772 3750 2511 3984 
Q 2250 4219 1831 4219 
Q 1534 4219 1204 4116 
Q 875 4013 500 3803 
L 500 4441 
Q 881 4594 1212 4672 
Q 1544 4750 1819 4750 
Q 2544 4750 2975 4387 
Q 3406 4025 3406 3419 
Q 3406 3131 3298 2873 
Q 3191 2616 2906 2266 
Q 2828 2175 2409 1742 
Q 1991 1309 1228 531 
z
" transform="scale(0.015625)"/>
       </defs>
       <use xlink:href="#DejaVuSans-32"/>
       <use xlink:href="#DejaVuSans-30" transform="translate(63.623047 0)"/>
       <use xlink:href="#DejaVuSans-30" transform="translate(127.246094 0)"/>
       <use xlink:href="#DejaVuSans-30" transform="translate(190.869141 0)"/>
       <use xlink:href="#DejaVuSans-30" transform="translate(254.492188 0)"/>
      </g>
     </g>
    </g>
    <g id="xtick_3">
     <g id="line2d_5">
      <path d="M 318.26604 390.04 
L 318.26604 14.503079 
" clip-path="url(#p91f9ae69d9)" style="fill: none; stroke: #b0b0b0; stroke-width: 0.8; stroke-linecap: square"/>
     </g>
     <g id="line2d_6">
      <g>
       <use xlink:href="#m640ac78bcc" x="318.26604" y="390.04" style="stroke: #000000; stroke-width: 0.8"/>
      </g>
     </g>
     <g id="text_3">
      <!-- 40000 -->
      <g transform="translate(302.35979 404.638438) scale(0.1 -0.1)">
       <defs>
        <path id="DejaVuSans-34" d="M 2419 4116 
L 825 1625 
L 2419 1625 
L 2419 4116 
z
M 2253 4666 
L 3047 4666 
L 3047 1625 
L 3713 1625 
L 3713 1100 
L 3047 1100 
L 3047 0 
L 2419 0 
L 2419 1100 
L 313 1100 
L 313 1709 
L 2253 4666 
z
" transform="scale(0.015625)"/>
       </defs>
       <use xlink:href="#DejaVuSans-34"/>
       <use xlink:href="#DejaVuSans-30" transform="translate(63.623047 0)"/>
       <use xlink:href="#DejaVuSans-30" transform="translate(127.246094 0)"/>
       <use xlink:href="#DejaVuSans-30" transform="translate(190.869141 0)"/>
       <use xlink:href="#DejaVuSans-30" transform="translate(254.492188 0)"/>
      </g>
     </g>
    </g>
    <g id="xtick_4">
     <g id="line2d_7">
      <path d="M 439.520933 390.04 
L 439.520933 14.503079 
" clip-path="url(#p91f9ae69d9)" style="fill: none; stroke: #b0b0b0; stroke-width: 0.8; stroke-linecap: square"/>
     </g>
     <g id="line2d_8">
      <g>
       <use xlink:href="#m640ac78bcc" x="439.520933" y="390.04" style="stroke: #000000; stroke-width: 0.8"/>
      </g>
     </g>
     <g id="text_4">
      <!-- 60000 -->
      <g transform="translate(423.614683 404.638438) scale(0.1 -0.1)">
       <defs>
        <path id="DejaVuSans-36" d="M 2113 2584 
Q 1688 2584 1439 2293 
Q 1191 2003 1191 1497 
Q 1191 994 1439 701 
Q 1688 409 2113 409 
Q 2538 409 2786 701 
Q 3034 994 3034 1497 
Q 3034 2003 2786 2293 
Q 2538 2584 2113 2584 
z
M 3366 4563 
L 3366 3988 
Q 3128 4100 2886 4159 
Q 2644 4219 2406 4219 
Q 1781 4219 1451 3797 
Q 1122 3375 1075 2522 
Q 1259 2794 1537 2939 
Q 1816 3084 2150 3084 
Q 2853 3084 3261 2657 
Q 3669 2231 3669 1497 
Q 3669 778 3244 343 
Q 2819 -91 2113 -91 
Q 1303 -91 875 529 
Q 447 1150 447 2328 
Q 447 3434 972 4092 
Q 1497 4750 2381 4750 
Q 2619 4750 2861 4703 
Q 3103 4656 3366 4563 
z
" transform="scale(0.015625)"/>
       </defs>
       <use xlink:href="#DejaVuSans-36"/>
       <use xlink:href="#DejaVuSans-30" transform="translate(63.623047 0)"/>
       <use xlink:href="#DejaVuSans-30" transform="translate(127.246094 0)"/>
       <use xlink:href="#DejaVuSans-30" transform="translate(190.869141 0)"/>
       <use xlink:href="#DejaVuSans-30" transform="translate(254.492188 0)"/>
      </g>
     </g>
    </g>
    <g id="xtick_5">
     <g id="line2d_9">
      <path d="M 560.775826 390.04 
L 560.775826 14.503079 
" clip-path="url(#p91f9ae69d9)" style="fill: none; stroke: #b0b0b0; stroke-width: 0.8; stroke-linecap: square"/>
     </g>
     <g id="line2d_10">
      <g>
       <use xlink:href="#m640ac78bcc" x="560.775826" y="390.04" style="stroke: #000000; stroke-width: 0.8"/>
      </g>
     </g>
     <g id="text_5">
      <!-- 80000 -->
      <g transform="translate(544.869576 404.638438) scale(0.1 -0.1)">
       <defs>
        <path id="DejaVuSans-38" d="M 2034 2216 
Q 1584 2216 1326 1975 
Q 1069 1734 1069 1313 
Q 1069 891 1326 650 
Q 1584 409 2034 409 
Q 2484 409 2743 651 
Q 3003 894 3003 1313 
Q 3003 1734 2745 1975 
Q 2488 2216 2034 2216 
z
M 1403 2484 
Q 997 2584 770 2862 
Q 544 3141 544 3541 
Q 544 4100 942 4425 
Q 1341 4750 2034 4750 
Q 2731 4750 3128 4425 
Q 3525 4100 3525 3541 
Q 3525 3141 3298 2862 
Q 3072 2584 2669 2484 
Q 3125 2378 3379 2068 
Q 3634 1759 3634 1313 
Q 3634 634 3220 271 
Q 2806 -91 2034 -91 
Q 1263 -91 848 271 
Q 434 634 434 1313 
Q 434 1759 690 2068 
Q 947 2378 1403 2484 
z
M 1172 3481 
Q 1172 3119 1398 2916 
Q 1625 2713 2034 2713 
Q 2441 2713 2670 2916 
Q 2900 3119 2900 3481 
Q 2900 3844 2670 4047 
Q 2441 4250 2034 4250 
Q 1625 4250 1398 4047 
Q 1172 3844 1172 3481 
z
" transform="scale(0.015625)"/>
       </defs>
       <use xlink:href="#DejaVuSans-38"/>
       <use xlink:href="#DejaVuSans-30" transform="translate(63.623047 0)"/>
       <use xlink:href="#DejaVuSans-30" transform="translate(127.246094 0)"/>
       <use xlink:href="#DejaVuSans-30" transform="translate(190.869141 0)"/>
       <use xlink:href="#DejaVuSans-30" transform="translate(254.492188 0)"/>
      </g>
     </g>
    </g>
    <g id="xtick_6">
     <g id="line2d_11">
      <path d="M 682.030719 390.04 
L 682.030719 14.503079 
" clip-path="url(#p91f9ae69d9)" style="fill: none; stroke: #b0b0b0; stroke-width: 0.8; stroke-linecap: square"/>
     </g>
     <g id="line2d_12">
      <g>
       <use xlink:href="#m640ac78bcc" x="682.030719" y="390.04" style="stroke: #000000; stroke-width: 0.8"/>
      </g>
     </g>
     <g id="text_6">
      <!-- 100000 -->
      <g transform="translate(662.943219 404.638438) scale(0.1 -0.1)">
       <defs>
        <path id="DejaVuSans-31" d="M 794 531 
L 1825 531 
L 1825 4091 
L 703 3866 
L 703 4441 
L 1819 4666 
L 2450 4666 
L 2450 531 
L 3481 531 
L 3481 0 
L 794 0 
L 794 531 
z
" transform="scale(0.015625)"/>
       </defs>
       <use xlink:href="#DejaVuSans-31"/>
       <use xlink:href="#DejaVuSans-30" transform="translate(63.623047 0)"/>
       <use xlink:href="#DejaVuSans-30" transform="translate(127.246094 0)"/>
       <use xlink:href="#DejaVuSans-30" transform="translate(190.869141 0)"/>
       <use xlink:href="#DejaVuSans-30" transform="translate(254.492188 0)"/>
       <use xlink:href="#DejaVuSans-30" transform="translate(318.115234 0)"/>
      </g>
     </g>
    </g>
    <g id="text_7">
     <!-- Steps -->
     <g transform="translate(364.470156 418.316562) scale(0.1 -0.1)">
      <defs>
       <path id="DejaVuSans-53" d="M 3425 4513 
L 3425 3897 
Q 3066 4069 2747 4153 
Q 2428 4238 2131 4238 
Q 1616 4238 1336 4038 
Q 1056 3838 1056 3469 
Q 1056 3159 1242 3001 
Q 1428 2844 1947 2747 
L 2328 2669 
Q 3034 2534 3370 2195 
Q 3706 1856 3706 1288 
Q 3706 609 3251 259 
Q 2797 -91 1919 -91 
Q 1588 -91 1214 -16 
Q 841 59 441 206 
L 441 856 
Q 825 641 1194 531 
Q 1563 422 1919 422 
Q 2459 422 2753 634 
Q 3047 847 3047 1241 
Q 3047 1584 2836 1778 
Q 2625 1972 2144 2069 
L 1759 2144 
Q 1053 2284 737 2584 
Q 422 2884 422 3419 
Q 422 4038 858 4394 
Q 1294 4750 2059 4750 
Q 2388 4750 2728 4690 
Q 3069 4631 3425 4513 
z
" transform="scale(0.015625)"/>
       <path id="DejaVuSans-74" d="M 1172 4494 
L 1172 3500 
L 2356 3500 
L 2356 3053 
L 1172 3053 
L 1172 1153 
Q 1172 725 1289 603 
Q 1406 481 1766 481 
L 2356 481 
L 2356 0 
L 1766 0 
Q 1100 0 847 248 
Q 594 497 594 1153 
L 594 3053 
L 172 3053 
L 172 3500 
L 594 3500 
L 594 4494 
L 1172 4494 
z
" transform="scale(0.015625)"/>
       <path id="DejaVuSans-65" d="M 3597 1894 
L 3597 1613 
L 953 1613 
Q 991 1019 1311 708 
Q 1631 397 2203 397 
Q 2534 397 2845 478 
Q 3156 559 3463 722 
L 3463 178 
Q 3153 47 2828 -22 
Q 2503 -91 2169 -91 
Q 1331 -91 842 396 
Q 353 884 353 1716 
Q 353 2575 817 3079 
Q 1281 3584 2069 3584 
Q 2775 3584 3186 3129 
Q 3597 2675 3597 1894 
z
M 3022 2063 
Q 3016 2534 2758 2815 
Q 2500 3097 2075 3097 
Q 1594 3097 1305 2825 
Q 1016 2553 972 2059 
L 3022 2063 
z
" transform="scale(0.015625)"/>
       <path id="DejaVuSans-70" d="M 1159 525 
L 1159 -1331 
L 581 -1331 
L 581 3500 
L 1159 3500 
L 1159 2969 
Q 1341 3281 1617 3432 
Q 1894 3584 2278 3584 
Q 2916 3584 3314 3078 
Q 3713 2572 3713 1747 
Q 3713 922 3314 415 
Q 2916 -91 2278 -91 
Q 1894 -91 1617 61 
Q 1341 213 1159 525 
z
M 3116 1747 
Q 3116 2381 2855 2742 
Q 2594 3103 2138 3103 
Q 1681 3103 1420 2742 
Q 1159 2381 1159 1747 
Q 1159 1113 1420 752 
Q 1681 391 2138 391 
Q 2594 391 2855 752 
Q 3116 1113 3116 1747 
z
" transform="scale(0.015625)"/>
       <path id="DejaVuSans-73" d="M 2834 3397 
L 2834 2853 
Q 2591 2978 2328 3040 
Q 2066 3103 1784 3103 
Q 1356 3103 1142 2972 
Q 928 2841 928 2578 
Q 928 2378 1081 2264 
Q 1234 2150 1697 2047 
L 1894 2003 
Q 2506 1872 2764 1633 
Q 3022 1394 3022 966 
Q 3022 478 2636 193 
Q 2250 -91 1575 -91 
Q 1294 -91 989 -36 
Q 684 19 347 128 
L 347 722 
Q 666 556 975 473 
Q 1284 391 1588 391 
Q 1994 391 2212 530 
Q 2431 669 2431 922 
Q 2431 1156 2273 1281 
Q 2116 1406 1581 1522 
L 1381 1569 
Q 847 1681 609 1914 
Q 372 2147 372 2553 
Q 372 3047 722 3315 
Q 1072 3584 1716 3584 
Q 2034 3584 2315 3537 
Q 2597 3491 2834 3397 
z
" transform="scale(0.015625)"/>
      </defs>
      <use xlink:href="#DejaVuSans-53"/>
      <use xlink:href="#DejaVuSans-74" transform="translate(63.476562 0)"/>
      <use xlink:href="#DejaVuSans-65" transform="translate(102.685547 0)"/>
      <use xlink:href="#DejaVuSans-70" transform="translate(164.208984 0)"/>
      <use xlink:href="#DejaVuSans-73" transform="translate(227.685547 0)"/>
     </g>
    </g>
   </g>
   <g id="matplotlib.axis_2">
    <g id="ytick_1">
     <g id="line2d_13">
      <path d="M 47.72 370.056794 
L 709.2 370.056794 
" clip-path="url(#p91f9ae69d9)" style="fill: none; stroke: #b0b0b0; stroke-width: 0.8; stroke-linecap: square"/>
     </g>
     <g id="line2d_14">
      <defs>
       <path id="md47489dd7d" d="M 0 0 
L -3.5 0 
" style="stroke: #000000; stroke-width: 0.8"/>
      </defs>
      <g>
       <use xlink:href="#md47489dd7d" x="47.72" y="370.056794" style="stroke: #000000; stroke-width: 0.8"/>
      </g>
     </g>
     <g id="text_8">
      <!-- 1.0 -->
      <g transform="translate(24.816875 373.856013) scale(0.1 -0.1)">
       <defs>
        <path id="DejaVuSans-2e" d="M 684 794 
L 1344 794 
L 1344 0 
L 684 0 
L 684 794 
z
" transform="scale(0.015625)"/>
       </defs>
       <use xlink:href="#DejaVuSans-31"/>
       <use xlink:href="#DejaVuSans-2e" transform="translate(63.623047 0)"/>
       <use xlink:href="#DejaVuSans-30" transform="translate(95.410156 0)"/>
      </g>
     </g>
    </g>
    <g id="ytick_2">
     <g id="line2d_15">
      <path d="M 47.72 325.648836 
L 709.2 325.648836 
" clip-path="url(#p91f9ae69d9)" style="fill: none; stroke: #b0b0b0; stroke-width: 0.8; stroke-linecap: square"/>
     </g>
     <g id="line2d_16">
      <g>
       <use xlink:href="#md47489dd7d" x="47.72" y="325.648836" style="stroke: #000000; stroke-width: 0.8"/>
      </g>
     </g>
     <g id="text_9">
      <!-- 1.5 -->
      <g transform="translate(24.816875 329.448055) scale(0.1 -0.1)">
       <defs>
        <path id="DejaVuSans-35" d="M 691 4666 
L 3169 4666 
L 3169 4134 
L 1269 4134 
L 1269 2991 
Q 1406 3038 1543 3061 
Q 1681 3084 1819 3084 
Q 2600 3084 3056 2656 
Q 3513 2228 3513 1497 
Q 3513 744 3044 326 
Q 2575 -91 1722 -91 
Q 1428 -91 1123 -41 
Q 819 9 494 109 
L 494 744 
Q 775 591 1075 516 
Q 1375 441 1709 441 
Q 2250 441 2565 725 
Q 2881 1009 2881 1497 
Q 2881 1984 2565 2268 
Q 2250 2553 1709 2553 
Q 1456 2553 1204 2497 
Q 953 2441 691 2322 
L 691 4666 
z
" transform="scale(0.015625)"/>
       </defs>
       <use xlink:href="#DejaVuSans-31"/>
       <use xlink:href="#DejaVuSans-2e" transform="translate(63.623047 0)"/>
       <use xlink:href="#DejaVuSans-35" transform="translate(95.410156 0)"/>
      </g>
     </g>
    </g>
    <g id="ytick_3">
     <g id="line2d_17">
      <path d="M 47.72 281.240879 
L 709.2 281.240879 
" clip-path="url(#p91f9ae69d9)" style="fill: none; stroke: #b0b0b0; stroke-width: 0.8; stroke-linecap: square"/>
     </g>
     <g id="line2d_18">
      <g>
       <use xlink:href="#md47489dd7d" x="47.72" y="281.240879" style="stroke: #000000; stroke-width: 0.8"/>
      </g>
     </g>
     <g id="text_10">
      <!-- 2.0 -->
      <g transform="translate(24.816875 285.040098) scale(0.1 -0.1)">
       <use xlink:href="#DejaVuSans-32"/>
       <use xlink:href="#DejaVuSans-2e" transform="translate(63.623047 0)"/>
       <use xlink:href="#DejaVuSans-30" transform="translate(95.410156 0)"/>
      </g>
     </g>
    </g>
    <g id="ytick_4">
     <g id="line2d_19">
      <path d="M 47.72 236.832921 
L 709.2 236.832921 
" clip-path="url(#p91f9ae69d9)" style="fill: none; stroke: #b0b0b0; stroke-width: 0.8; stroke-linecap: square"/>
     </g>
     <g id="line2d_20">
      <g>
       <use xlink:href="#md47489dd7d" x="47.72" y="236.832921" style="stroke: #000000; stroke-width: 0.8"/>
      </g>
     </g>
     <g id="text_11">
      <!-- 2.5 -->
      <g transform="translate(24.816875 240.63214) scale(0.1 -0.1)">
       <use xlink:href="#DejaVuSans-32"/>
       <use xlink:href="#DejaVuSans-2e" transform="translate(63.623047 0)"/>
       <use xlink:href="#DejaVuSans-35" transform="translate(95.410156 0)"/>
      </g>
     </g>
    </g>
    <g id="ytick_5">
     <g id="line2d_21">
      <path d="M 47.72 192.424963 
L 709.2 192.424963 
" clip-path="url(#p91f9ae69d9)" style="fill: none; stroke: #b0b0b0; stroke-width: 0.8; stroke-linecap: square"/>
     </g>
     <g id="line2d_22">
      <g>
       <use xlink:href="#md47489dd7d" x="47.72" y="192.424963" style="stroke: #000000; stroke-width: 0.8"/>
      </g>
     </g>
     <g id="text_12">
      <!-- 3.0 -->
      <g transform="translate(24.816875 196.224182) scale(0.1 -0.1)">
       <defs>
        <path id="DejaVuSans-33" d="M 2597 2516 
Q 3050 2419 3304 2112 
Q 3559 1806 3559 1356 
Q 3559 666 3084 287 
Q 2609 -91 1734 -91 
Q 1441 -91 1130 -33 
Q 819 25 488 141 
L 488 750 
Q 750 597 1062 519 
Q 1375 441 1716 441 
Q 2309 441 2620 675 
Q 2931 909 2931 1356 
Q 2931 1769 2642 2001 
Q 2353 2234 1838 2234 
L 1294 2234 
L 1294 2753 
L 1863 2753 
Q 2328 2753 2575 2939 
Q 2822 3125 2822 3475 
Q 2822 3834 2567 4026 
Q 2313 4219 1838 4219 
Q 1578 4219 1281 4162 
Q 984 4106 628 3988 
L 628 4550 
Q 988 4650 1302 4700 
Q 1616 4750 1894 4750 
Q 2613 4750 3031 4423 
Q 3450 4097 3450 3541 
Q 3450 3153 3228 2886 
Q 3006 2619 2597 2516 
z
" transform="scale(0.015625)"/>
       </defs>
       <use xlink:href="#DejaVuSans-33"/>
       <use xlink:href="#DejaVuSans-2e" transform="translate(63.623047 0)"/>
       <use xlink:href="#DejaVuSans-30" transform="translate(95.410156 0)"/>
      </g>
     </g>
    </g>
    <g id="ytick_6">
     <g id="line2d_23">
      <path d="M 47.72 148.017006 
L 709.2 148.017006 
" clip-path="url(#p91f9ae69d9)" style="fill: none; stroke: #b0b0b0; stroke-width: 0.8; stroke-linecap: square"/>
     </g>
     <g id="line2d_24">
      <g>
       <use xlink:href="#md47489dd7d" x="47.72" y="148.017006" style="stroke: #000000; stroke-width: 0.8"/>
      </g>
     </g>
     <g id="text_13">
      <!-- 3.5 -->
      <g transform="translate(24.816875 151.816224) scale(0.1 -0.1)">
       <use xlink:href="#DejaVuSans-33"/>
       <use xlink:href="#DejaVuSans-2e" transform="translate(63.623047 0)"/>
       <use xlink:href="#DejaVuSans-35" transform="translate(95.410156 0)"/>
      </g>
     </g>
    </g>
    <g id="ytick_7">
     <g id="line2d_25">
      <path d="M 47.72 103.609048 
L 709.2 103.609048 
" clip-path="url(#p91f9ae69d9)" style="fill: none; stroke: #b0b0b0; stroke-width: 0.8; stroke-linecap: square"/>
     </g>
     <g id="line2d_26">
      <g>
       <use xlink:href="#md47489dd7d" x="47.72" y="103.609048" style="stroke: #000000; stroke-width: 0.8"/>
      </g>
     </g>
     <g id="text_14">
      <!-- 4.0 -->
      <g transform="translate(24.816875 107.408267) scale(0.1 -0.1)">
       <use xlink:href="#DejaVuSans-34"/>
       <use xlink:href="#DejaVuSans-2e" transform="translate(63.623047 0)"/>
       <use xlink:href="#DejaVuSans-30" transform="translate(95.410156 0)"/>
      </g>
     </g>
    </g>
    <g id="ytick_8">
     <g id="line2d_27">
      <path d="M 47.72 59.20109 
L 709.2 59.20109 
" clip-path="url(#p91f9ae69d9)" style="fill: none; stroke: #b0b0b0; stroke-width: 0.8; stroke-linecap: square"/>
     </g>
     <g id="line2d_28">
      <g>
       <use xlink:href="#md47489dd7d" x="47.72" y="59.20109" style="stroke: #000000; stroke-width: 0.8"/>
      </g>
     </g>
     <g id="text_15">
      <!-- 4.5 -->
      <g transform="translate(24.816875 63.000309) scale(0.1 -0.1)">
       <use xlink:href="#DejaVuSans-34"/>
       <use xlink:href="#DejaVuSans-2e" transform="translate(63.623047 0)"/>
       <use xlink:href="#DejaVuSans-35" transform="translate(95.410156 0)"/>
      </g>
     </g>
    </g>
    <g id="ytick_9">
     <g id="line2d_29">
      <path d="M 47.72 14.793132 
L 709.2 14.793132 
" clip-path="url(#p91f9ae69d9)" style="fill: none; stroke: #b0b0b0; stroke-width: 0.8; stroke-linecap: square"/>
     </g>
     <g id="line2d_30">
      <g>
       <use xlink:href="#md47489dd7d" x="47.72" y="14.793132" style="stroke: #000000; stroke-width: 0.8"/>
      </g>
     </g>
     <g id="text_16">
      <!-- 5.0 -->
      <g transform="translate(24.816875 18.592351) scale(0.1 -0.1)">
       <use xlink:href="#DejaVuSans-35"/>
       <use xlink:href="#DejaVuSans-2e" transform="translate(63.623047 0)"/>
       <use xlink:href="#DejaVuSans-30" transform="translate(95.410156 0)"/>
      </g>
     </g>
    </g>
    <g id="text_17">
     <!-- Quantum Gates -->
     <g transform="translate(18.737188 241.777008) rotate(-90) scale(0.1 -0.1)">
      <defs>
       <path id="DejaVuSans-51" d="M 2522 4238 
Q 1834 4238 1429 3725 
Q 1025 3213 1025 2328 
Q 1025 1447 1429 934 
Q 1834 422 2522 422 
Q 3209 422 3611 934 
Q 4013 1447 4013 2328 
Q 4013 3213 3611 3725 
Q 3209 4238 2522 4238 
z
M 3406 84 
L 4238 -825 
L 3475 -825 
L 2784 -78 
Q 2681 -84 2626 -87 
Q 2572 -91 2522 -91 
Q 1538 -91 948 567 
Q 359 1225 359 2328 
Q 359 3434 948 4092 
Q 1538 4750 2522 4750 
Q 3503 4750 4090 4092 
Q 4678 3434 4678 2328 
Q 4678 1516 4351 937 
Q 4025 359 3406 84 
z
" transform="scale(0.015625)"/>
       <path id="DejaVuSans-75" d="M 544 1381 
L 544 3500 
L 1119 3500 
L 1119 1403 
Q 1119 906 1312 657 
Q 1506 409 1894 409 
Q 2359 409 2629 706 
Q 2900 1003 2900 1516 
L 2900 3500 
L 3475 3500 
L 3475 0 
L 2900 0 
L 2900 538 
Q 2691 219 2414 64 
Q 2138 -91 1772 -91 
Q 1169 -91 856 284 
Q 544 659 544 1381 
z
M 1991 3584 
L 1991 3584 
z
" transform="scale(0.015625)"/>
       <path id="DejaVuSans-61" d="M 2194 1759 
Q 1497 1759 1228 1600 
Q 959 1441 959 1056 
Q 959 750 1161 570 
Q 1363 391 1709 391 
Q 2188 391 2477 730 
Q 2766 1069 2766 1631 
L 2766 1759 
L 2194 1759 
z
M 3341 1997 
L 3341 0 
L 2766 0 
L 2766 531 
Q 2569 213 2275 61 
Q 1981 -91 1556 -91 
Q 1019 -91 701 211 
Q 384 513 384 1019 
Q 384 1609 779 1909 
Q 1175 2209 1959 2209 
L 2766 2209 
L 2766 2266 
Q 2766 2663 2505 2880 
Q 2244 3097 1772 3097 
Q 1472 3097 1187 3025 
Q 903 2953 641 2809 
L 641 3341 
Q 956 3463 1253 3523 
Q 1550 3584 1831 3584 
Q 2591 3584 2966 3190 
Q 3341 2797 3341 1997 
z
" transform="scale(0.015625)"/>
       <path id="DejaVuSans-6e" d="M 3513 2113 
L 3513 0 
L 2938 0 
L 2938 2094 
Q 2938 2591 2744 2837 
Q 2550 3084 2163 3084 
Q 1697 3084 1428 2787 
Q 1159 2491 1159 1978 
L 1159 0 
L 581 0 
L 581 3500 
L 1159 3500 
L 1159 2956 
Q 1366 3272 1645 3428 
Q 1925 3584 2291 3584 
Q 2894 3584 3203 3211 
Q 3513 2838 3513 2113 
z
" transform="scale(0.015625)"/>
       <path id="DejaVuSans-6d" d="M 3328 2828 
Q 3544 3216 3844 3400 
Q 4144 3584 4550 3584 
Q 5097 3584 5394 3201 
Q 5691 2819 5691 2113 
L 5691 0 
L 5113 0 
L 5113 2094 
Q 5113 2597 4934 2840 
Q 4756 3084 4391 3084 
Q 3944 3084 3684 2787 
Q 3425 2491 3425 1978 
L 3425 0 
L 2847 0 
L 2847 2094 
Q 2847 2600 2669 2842 
Q 2491 3084 2119 3084 
Q 1678 3084 1418 2786 
Q 1159 2488 1159 1978 
L 1159 0 
L 581 0 
L 581 3500 
L 1159 3500 
L 1159 2956 
Q 1356 3278 1631 3431 
Q 1906 3584 2284 3584 
Q 2666 3584 2933 3390 
Q 3200 3197 3328 2828 
z
" transform="scale(0.015625)"/>
       <path id="DejaVuSans-20" transform="scale(0.015625)"/>
       <path id="DejaVuSans-47" d="M 3809 666 
L 3809 1919 
L 2778 1919 
L 2778 2438 
L 4434 2438 
L 4434 434 
Q 4069 175 3628 42 
Q 3188 -91 2688 -91 
Q 1594 -91 976 548 
Q 359 1188 359 2328 
Q 359 3472 976 4111 
Q 1594 4750 2688 4750 
Q 3144 4750 3555 4637 
Q 3966 4525 4313 4306 
L 4313 3634 
Q 3963 3931 3569 4081 
Q 3175 4231 2741 4231 
Q 1884 4231 1454 3753 
Q 1025 3275 1025 2328 
Q 1025 1384 1454 906 
Q 1884 428 2741 428 
Q 3075 428 3337 486 
Q 3600 544 3809 666 
z
" transform="scale(0.015625)"/>
      </defs>
      <use xlink:href="#DejaVuSans-51"/>
      <use xlink:href="#DejaVuSans-75" transform="translate(78.710938 0)"/>
      <use xlink:href="#DejaVuSans-61" transform="translate(142.089844 0)"/>
      <use xlink:href="#DejaVuSans-6e" transform="translate(203.369141 0)"/>
      <use xlink:href="#DejaVuSans-74" transform="translate(266.748047 0)"/>
      <use xlink:href="#DejaVuSans-75" transform="translate(305.957031 0)"/>
      <use xlink:href="#DejaVuSans-6d" transform="translate(369.335938 0)"/>
      <use xlink:href="#DejaVuSans-20" transform="translate(466.748047 0)"/>
      <use xlink:href="#DejaVuSans-47" transform="translate(498.535156 0)"/>
      <use xlink:href="#DejaVuSans-61" transform="translate(576.025391 0)"/>
      <use xlink:href="#DejaVuSans-74" transform="translate(637.304688 0)"/>
      <use xlink:href="#DejaVuSans-65" transform="translate(676.513672 0)"/>
      <use xlink:href="#DejaVuSans-73" transform="translate(738.037109 0)"/>
     </g>
    </g>
   </g>
   <g id="line2d_31">
    <path d="M 77.8479 167.112427 
L 81.564363 218.477632 
L 84.535108 265.254014 
L 86.911703 295.451425 
L 88.979099 324.020545 
L 90.694856 336.15872 
L 92.252981 352.885717 
L 93.647413 359.99099 
L 94.94484 363.83968 
L 97.473005 369.168635 
L 98.703742 368.872582 
L 99.916291 369.020609 
L 101.140965 369.760741 
L 102.359577 369.316662 
L 103.578189 369.316662 
L 104.790737 369.760741 
L 106.015412 369.760741 
L 107.227961 370.056794 
L 108.44051 370.056794 
L 109.653059 369.612715 
L 112.084219 369.908768 
L 113.296768 369.760741 
L 114.51538 370.056794 
L 116.940478 370.056794 
L 118.153027 369.760741 
L 119.365576 370.056794 
L 121.790673 370.056794 
L 123.003222 369.908768 
L 124.215771 370.056794 
L 125.42832 369.908768 
L 126.640869 370.056794 
L 127.853418 370.056794 
L 129.065967 369.908768 
L 130.278516 370.056794 
L 132.703614 370.056794 
L 133.916163 369.908768 
L 135.128712 370.056794 
L 141.191456 370.056794 
L 142.404005 369.908768 
L 143.616554 369.908768 
L 144.835166 370.056794 
L 148.472813 370.056794 
L 149.691424 369.908768 
L 150.903973 369.908768 
L 152.122585 370.056794 
L 153.335134 370.056794 
L 154.547683 369.908768 
L 155.760232 370.056794 
L 156.972781 370.056794 
L 158.191392 369.908768 
L 159.403941 370.056794 
L 167.891784 370.056794 
L 169.110396 369.908768 
L 170.322944 370.056794 
L 172.748042 370.056794 
L 173.960591 369.908768 
L 175.17314 370.056794 
L 187.29863 370.056794 
L 188.511178 369.908768 
L 189.723727 370.056794 
L 237.013136 370.056794 
L 238.231747 369.908768 
L 239.444296 370.056794 
L 269.75802 370.056794 
L 270.970569 369.908768 
L 272.183117 370.056794 
L 281.883509 370.056794 
L 283.096058 369.908768 
L 284.308607 370.056794 
L 306.134488 370.056794 
L 307.347037 369.908768 
L 308.559585 370.056794 
L 409.201147 370.056794 
L 410.413696 369.908768 
L 411.626245 370.056794 
L 412.838794 370.056794 
L 414.051343 369.908768 
L 415.263891 370.056794 
L 529.243491 370.056794 
L 530.45604 369.908768 
L 531.674652 370.056794 
L 540.162494 370.056794 
L 541.375043 369.908768 
L 542.587592 370.056794 
L 634.741311 370.056794 
L 635.95386 369.908768 
L 637.172471 370.056794 
L 678.399135 370.056794 
L 678.399135 370.056794 
" clip-path="url(#p91f9ae69d9)" style="fill: none; stroke: #0000ff; stroke-width: 1.5; stroke-linecap: square"/>
   </g>
   <g id="line2d_32">
    <path d="M 77.787273 161.635446 
L 81.873563 161.931499 
L 85.729468 163.707817 
L 89.912762 150.089377 
L 93.798981 162.227552 
L 97.703389 156.898597 
L 101.916996 165.336109 
L 106.051788 161.635446 
L 110.289647 166.964401 
L 114.321372 157.342677 
L 118.462227 159.859128 
L 122.639458 152.605828 
L 126.810626 159.859128 
L 131.024234 166.224268 
L 135.037771 153.642014 
L 139.36657 153.938067 
L 143.471048 172.293356 
L 147.508836 156.602544 
L 151.425369 161.487419 
L 155.487408 156.898597 
L 159.507008 158.674915 
L 163.490231 153.34596 
L 167.625023 150.681483 
L 171.590058 158.230836 
L 175.603595 155.862411 
L 179.920269 156.454518 
L 184.170253 165.336109 
L 188.286857 150.681483 
L 192.730849 156.158464 
L 196.871703 148.313059 
L 201.06106 159.118995 
L 205.220103 160.59926 
L 209.263953 164.00387 
L 213.404808 162.227552 
L 217.569914 163.115711 
L 221.565262 159.118995 
L 225.772807 161.339393 
L 229.743905 166.816374 
L 233.90901 149.201218 
L 237.9953 152.605828 
L 242.0149 151.717669 
L 246.192131 161.783472 
L 250.290547 158.526889 
L 254.619346 148.609112 
L 258.711699 160.59926 
L 266.678145 165.928215 
L 270.806874 159.267021 
L 275.244804 165.188083 
L 279.203776 164.744003 
L 283.374944 154.382146 
L 287.212662 161.931499 
L 291.2747 163.411764 
L 295.476182 157.19465 
L 299.720104 155.418332 
L 303.9519 162.079525 
L 307.959374 156.898597 
L 312.075977 159.415048 
L 316.180455 151.569642 
L 320.206118 155.270305 
L 324.34091 155.566358 
L 328.25138 172.885462 
L 332.446799 159.415048 
L 336.478525 156.158464 
L 340.740634 152.309775 
L 345.014869 150.681483 
L 349.198163 157.19465 
L 353.387519 152.309775 
L 357.528374 160.747287 
L 361.669229 143.428183 
L 366.08897 159.118995 
L 370.096444 162.819658 
L 374.231236 158.526889 
L 378.184145 166.964401 
L 382.264372 159.859128 
L 386.508294 159.415048 
L 390.624897 168.592693 
L 394.753626 164.595976 
L 398.882355 153.049907 
L 403.338473 153.34596 
L 407.55208 157.342677 
L 411.686872 162.375579 
L 415.718597 159.118995 
L 420.041334 157.63873 
L 423.976056 161.04334 
L 428.062345 164.00387 
L 432.003129 160.007154 
L 436.137921 160.155181 
L 440.163584 158.526889 
L 444.334752 174.217701 
L 448.342226 155.714385 
L 452.664963 162.967685 
L 456.975575 150.977536 
L 461.164931 158.674915 
L 465.117841 157.342677 
L 469.416327 161.339393 
L 473.217668 159.415048 
L 477.073573 148.313059 
L 481.026483 158.822942 
L 485.343157 162.227552 
L 489.332443 158.378862 
L 493.473298 161.191366 
L 497.553525 163.411764 
L 501.682254 147.868979 
L 506.071681 162.819658 
L 509.933649 162.671632 
L 514.11088 156.306491 
L 518.154731 171.405197 
L 522.077327 156.602544 
L 526.115115 162.819658 
L 530.262032 159.118995 
L 534.706024 145.352528 
L 538.956008 147.720952 
L 543.236306 155.270305 
L 547.298345 156.306491 
L 551.39676 162.375579 
L 555.713434 143.428183 
L 560.102861 150.533456 
L 564.255841 155.566358 
L 568.475512 164.44795 
L 572.604241 155.714385 
L 577.127048 159.563075 
L 581.267903 156.898597 
L 585.123809 164.151897 
L 589.343479 156.454518 
L 593.393392 166.964401 
L 597.419055 157.342677 
L 601.620537 157.342677 
L 605.597697 154.23412 
L 609.696113 160.303207 
L 613.897595 165.040056 
L 618.002073 162.819658 
L 622.167178 158.082809 
L 626.095837 168.444666 
L 630.25488 165.336109 
L 634.250229 160.895313 
L 638.300142 162.967685 
L 642.550126 157.63873 
L 646.703106 163.411764 
L 650.649953 156.602544 
L 654.802933 158.970968 
L 658.846784 160.59926 
L 662.654187 169.628878 
L 666.788979 165.336109 
L 670.89952 157.786756 
L 675.101002 148.017006 
L 679.132727 169.184799 
L 679.132727 169.184799 
" clip-path="url(#p91f9ae69d9)" style="fill: none; stroke: #ffa500; stroke-width: 1.5; stroke-linecap: square"/>
   </g>
   <g id="patch_3">
    <path d="M 47.72 390.04 
L 47.72 14.503079 
" style="fill: none; stroke: #000000; stroke-width: 0.8; stroke-linejoin: miter; stroke-linecap: square"/>
   </g>
   <g id="patch_4">
    <path d="M 709.2 390.04 
L 709.2 14.503079 
" style="fill: none; stroke: #000000; stroke-width: 0.8; stroke-linejoin: miter; stroke-linecap: square"/>
   </g>
   <g id="patch_5">
    <path d="M 47.72 390.04 
L 709.2 390.04 
" style="fill: none; stroke: #000000; stroke-width: 0.8; stroke-linejoin: miter; stroke-linecap: square"/>
   </g>
   <g id="patch_6">
    <path d="M 47.72 14.503079 
L 709.2 14.503079 
" style="fill: none; stroke: #000000; stroke-width: 0.8; stroke-linejoin: miter; stroke-linecap: square"/>
   </g>
   <g id="legend_1">
    <g id="patch_7">
     <path d="M 628.803125 385.04 
L 702.2 385.04 
Q 704.2 385.04 704.2 383.04 
L 704.2 340.005625 
Q 704.2 338.005625 702.2 338.005625 
L 628.803125 338.005625 
Q 626.803125 338.005625 626.803125 340.005625 
L 626.803125 383.04 
Q 626.803125 385.04 628.803125 385.04 
z
" style="fill: #ffffff; opacity: 0.8; stroke: #cccccc; stroke-linejoin: miter"/>
    </g>
    <g id="text_18">
     <!-- Agent -->
     <g transform="translate(650.701563 349.604062) scale(0.1 -0.1)">
      <defs>
       <path id="DejaVuSans-41" d="M 2188 4044 
L 1331 1722 
L 3047 1722 
L 2188 4044 
z
M 1831 4666 
L 2547 4666 
L 4325 0 
L 3669 0 
L 3244 1197 
L 1141 1197 
L 716 0 
L 50 0 
L 1831 4666 
z
" transform="scale(0.015625)"/>
       <path id="DejaVuSans-67" d="M 2906 1791 
Q 2906 2416 2648 2759 
Q 2391 3103 1925 3103 
Q 1463 3103 1205 2759 
Q 947 2416 947 1791 
Q 947 1169 1205 825 
Q 1463 481 1925 481 
Q 2391 481 2648 825 
Q 2906 1169 2906 1791 
z
M 3481 434 
Q 3481 -459 3084 -895 
Q 2688 -1331 1869 -1331 
Q 1566 -1331 1297 -1286 
Q 1028 -1241 775 -1147 
L 775 -588 
Q 1028 -725 1275 -790 
Q 1522 -856 1778 -856 
Q 2344 -856 2625 -561 
Q 2906 -266 2906 331 
L 2906 616 
Q 2728 306 2450 153 
Q 2172 0 1784 0 
Q 1141 0 747 490 
Q 353 981 353 1791 
Q 353 2603 747 3093 
Q 1141 3584 1784 3584 
Q 2172 3584 2450 3431 
Q 2728 3278 2906 2969 
L 2906 3500 
L 3481 3500 
L 3481 434 
z
" transform="scale(0.015625)"/>
      </defs>
      <use xlink:href="#DejaVuSans-41"/>
      <use xlink:href="#DejaVuSans-67" transform="translate(68.408203 0)"/>
      <use xlink:href="#DejaVuSans-65" transform="translate(131.884766 0)"/>
      <use xlink:href="#DejaVuSans-6e" transform="translate(193.408203 0)"/>
      <use xlink:href="#DejaVuSans-74" transform="translate(256.787109 0)"/>
     </g>
    </g>
    <g id="line2d_33">
     <path d="M 630.803125 360.782187 
L 640.803125 360.782187 
L 650.803125 360.782187 
" style="fill: none; stroke: #0000ff; stroke-width: 1.5; stroke-linecap: square"/>
    </g>
    <g id="text_19">
     <!-- PPO -->
     <g transform="translate(658.803125 364.282187) scale(0.1 -0.1)">
      <defs>
       <path id="DejaVuSans-50" d="M 1259 4147 
L 1259 2394 
L 2053 2394 
Q 2494 2394 2734 2622 
Q 2975 2850 2975 3272 
Q 2975 3691 2734 3919 
Q 2494 4147 2053 4147 
L 1259 4147 
z
M 628 4666 
L 2053 4666 
Q 2838 4666 3239 4311 
Q 3641 3956 3641 3272 
Q 3641 2581 3239 2228 
Q 2838 1875 2053 1875 
L 1259 1875 
L 1259 0 
L 628 0 
L 628 4666 
z
" transform="scale(0.015625)"/>
       <path id="DejaVuSans-4f" d="M 2522 4238 
Q 1834 4238 1429 3725 
Q 1025 3213 1025 2328 
Q 1025 1447 1429 934 
Q 1834 422 2522 422 
Q 3209 422 3611 934 
Q 4013 1447 4013 2328 
Q 4013 3213 3611 3725 
Q 3209 4238 2522 4238 
z
M 2522 4750 
Q 3503 4750 4090 4092 
Q 4678 3434 4678 2328 
Q 4678 1225 4090 567 
Q 3503 -91 2522 -91 
Q 1538 -91 948 565 
Q 359 1222 359 2328 
Q 359 3434 948 4092 
Q 1538 4750 2522 4750 
z
" transform="scale(0.015625)"/>
      </defs>
      <use xlink:href="#DejaVuSans-50"/>
      <use xlink:href="#DejaVuSans-50" transform="translate(60.302734 0)"/>
      <use xlink:href="#DejaVuSans-4f" transform="translate(120.605469 0)"/>
     </g>
    </g>
    <g id="line2d_34">
     <path d="M 630.803125 375.460312 
L 640.803125 375.460312 
L 650.803125 375.460312 
" style="fill: none; stroke: #ffa500; stroke-width: 1.5; stroke-linecap: square"/>
    </g>
    <g id="text_20">
     <!-- Random -->
     <g transform="translate(658.803125 378.960312) scale(0.1 -0.1)">
      <defs>
       <path id="DejaVuSans-52" d="M 2841 2188 
Q 3044 2119 3236 1894 
Q 3428 1669 3622 1275 
L 4263 0 
L 3584 0 
L 2988 1197 
Q 2756 1666 2539 1819 
Q 2322 1972 1947 1972 
L 1259 1972 
L 1259 0 
L 628 0 
L 628 4666 
L 2053 4666 
Q 2853 4666 3247 4331 
Q 3641 3997 3641 3322 
Q 3641 2881 3436 2590 
Q 3231 2300 2841 2188 
z
M 1259 4147 
L 1259 2491 
L 2053 2491 
Q 2509 2491 2742 2702 
Q 2975 2913 2975 3322 
Q 2975 3731 2742 3939 
Q 2509 4147 2053 4147 
L 1259 4147 
z
" transform="scale(0.015625)"/>
       <path id="DejaVuSans-64" d="M 2906 2969 
L 2906 4863 
L 3481 4863 
L 3481 0 
L 2906 0 
L 2906 525 
Q 2725 213 2448 61 
Q 2172 -91 1784 -91 
Q 1150 -91 751 415 
Q 353 922 353 1747 
Q 353 2572 751 3078 
Q 1150 3584 1784 3584 
Q 2172 3584 2448 3432 
Q 2725 3281 2906 2969 
z
M 947 1747 
Q 947 1113 1208 752 
Q 1469 391 1925 391 
Q 2381 391 2643 752 
Q 2906 1113 2906 1747 
Q 2906 2381 2643 2742 
Q 2381 3103 1925 3103 
Q 1469 3103 1208 2742 
Q 947 2381 947 1747 
z
" transform="scale(0.015625)"/>
       <path id="DejaVuSans-6f" d="M 1959 3097 
Q 1497 3097 1228 2736 
Q 959 2375 959 1747 
Q 959 1119 1226 758 
Q 1494 397 1959 397 
Q 2419 397 2687 759 
Q 2956 1122 2956 1747 
Q 2956 2369 2687 2733 
Q 2419 3097 1959 3097 
z
M 1959 3584 
Q 2709 3584 3137 3096 
Q 3566 2609 3566 1747 
Q 3566 888 3137 398 
Q 2709 -91 1959 -91 
Q 1206 -91 779 398 
Q 353 888 353 1747 
Q 353 2609 779 3096 
Q 1206 3584 1959 3584 
z
" transform="scale(0.015625)"/>
      </defs>
      <use xlink:href="#DejaVuSans-52"/>
      <use xlink:href="#DejaVuSans-61" transform="translate(67.232422 0)"/>
      <use xlink:href="#DejaVuSans-6e" transform="translate(128.511719 0)"/>
      <use xlink:href="#DejaVuSans-64" transform="translate(191.890625 0)"/>
      <use xlink:href="#DejaVuSans-6f" transform="translate(255.367188 0)"/>
      <use xlink:href="#DejaVuSans-6d" transform="translate(316.548828 0)"/>
     </g>
    </g>
   </g>
  </g>
 </g>
 <defs>
  <clipPath id="p91f9ae69d9">
   <rect x="47.72" y="14.503079" width="661.48" height="375.536921"/>
  </clipPath>
 </defs>
</svg>
