<?xml version="1.0" encoding="utf-8" standalone="no"?>
<!DOCTYPE svg PUBLIC "-//W3C//DTD SVG 1.1//EN"
  "http://www.w3.org/Graphics/SVG/1.1/DTD/svg11.dtd">
<svg xmlns:xlink="http://www.w3.org/1999/xlink" width="720pt" height="432pt" viewBox="0 0 720 432" xmlns="http://www.w3.org/2000/svg" version="1.1">
 <metadata>
  <rdf:RDF xmlns:dc="http://purl.org/dc/elements/1.1/" xmlns:cc="http://creativecommons.org/ns#" xmlns:rdf="http://www.w3.org/1999/02/22-rdf-syntax-ns#">
   <cc:Work>
    <dc:type rdf:resource="http://purl.org/dc/dcmitype/StillImage"/>
    <dc:date>2025-04-22T22:24:58.393267</dc:date>
    <dc:format>image/svg+xml</dc:format>
    <dc:creator>
     <cc:Agent>
      <dc:title>Matplotlib v3.10.0, https://matplotlib.org/</dc:title>
     </cc:Agent>
    </dc:creator>
   </cc:Work>
  </rdf:RDF>
 </metadata>
 <defs>
  <style type="text/css">*{stroke-linejoin: round; stroke-linecap: butt}</style>
 </defs>
 <g id="figure_1">
  <g id="patch_1">
   <path d="M 0 432 
L 720 432 
L 720 0 
L 0 0 
z
" style="fill: #ffffff"/>
  </g>
  <g id="axes_1">
   <g id="patch_2">
    <path d="M 54.02 390.04 
L 709.2 390.04 
L 709.2 10.8 
L 54.02 10.8 
z
" style="fill: #ffffff"/>
   </g>
   <g id="FillBetweenPolyCollection_1">
    <path d="M 83.800909 253.285118 
L 83.800909 353.079576 
L 86.107635 351.325414 
L 88.490425 350.027279 
L 90.936051 344.678457 
L 93.345298 349.342645 
L 95.724782 352.437992 
L 98.109225 349.853516 
L 100.59619 354.382748 
L 103.064966 356.785348 
L 105.269171 361.331013 
L 107.574243 361.3915 
L 109.851205 363.978026 
L 112.05541 358.094934 
L 114.195126 361.803129 
L 116.48201 362.507413 
L 118.677947 364.751204 
L 120.763095 367.990814 
L 122.878007 367.615024 
L 124.768034 364.759728 
L 126.654754 367.332553 
L 128.438953 366.193532 
L 130.226459 367.431621 
L 132.040423 366.871447 
L 133.832889 367.84125 
L 135.590631 367.329272 
L 137.366562 368.429707 
L 139.159029 365.610252 
L 141.103624 358.155075 
L 143.021762 346.66465 
L 144.926671 342.984908 
L 146.972134 332.560513 
L 148.954761 326.93046 
L 150.962191 316.188847 
L 152.979543 303.701009 
L 154.919177 313.491863 
L 156.961333 316.01907 
L 158.905927 317.405429 
L 160.848869 321.171337 
L 162.826535 319.294517 
L 164.721523 327.60518 
L 166.585093 314.239451 
L 168.456931 314.577708 
L 170.242784 309.378584 
L 172.045172 294.145683 
L 173.835985 268.249789 
L 175.621837 269.129072 
L 177.447375 266.888846 
L 179.19685 279.722672 
L 181.01908 305.504627 
L 182.821469 315.965228 
L 184.580864 336.411069 
L 186.351834 349.060049 
L 188.164144 344.653777 
L 190.032675 355.907732 
L 191.921048 358.629204 
L 193.746587 343.90448 
L 195.778821 333.266141 
L 197.768062 333.703611 
L 199.796989 329.606872 
L 201.868908 318.993382 
L 203.949096 326.588997 
L 206.080544 321.670255 
L 208.337663 319.644842 
L 210.51045 318.004715 
L 212.760955 309.023459 
L 214.923821 307.090501 
L 217.076765 295.762617 
L 219.198292 289.290607 
L 221.151154 284.473421 
L 223.165199 269.821328 
L 225.29334 266.434844 
L 227.423134 268.984854 
L 229.51655 275.392443 
L 231.558706 266.6317 
L 233.602515 271.708781 
L 235.651284 270.536404 
L 237.838954 254.849781 
L 240.000166 248.976247 
L 242.090275 257.785767 
L 244.203533 247.037796 
L 246.298603 251.732095 
L 248.339105 251.061312 
L 250.386221 238.644746 
L 252.575544 239.187805 
L 254.824395 236.406003 
L 257.1212 241.972624 
L 259.464304 251.981067 
L 261.787566 240.959438 
L 264.168703 233.759516 
L 266.607714 236.120706 
L 269.035151 229.323637 
L 271.507234 252.149111 
L 274.000813 261.802257 
L 276.535731 247.76129 
L 279.021043 240.213151 
L 281.38399 267.191481 
L 283.636148 256.828999 
L 285.916418 244.091056 
L 288.277711 235.60512 
L 290.589398 236.587305 
L 292.811792 232.345789 
L 294.896941 230.053129 
L 297.003585 228.991515 
L 299.235901 234.145946 
L 301.416956 231.180118 
L 303.563286 245.547818 
L 305.727805 240.398626 
L 307.827835 243.962749 
L 309.972512 231.440645 
L 312.120496 230.038071 
L 314.200683 226.424837 
L 316.237878 230.936331 
L 318.344522 228.594911 
L 320.580145 229.095529 
L 322.857107 226.383314 
L 325.258086 226.59322 
L 327.728516 225.101692 
L 330.232016 229.081242 
L 332.780163 228.849499 
L 335.272089 254.788452 
L 337.777243 281.445717 
L 340.285704 256.856591 
L 342.837158 242.151187 
L 345.391919 260.665723 
L 347.91857 260.632446 
L 350.407189 254.674486 
L 352.96691 245.062218 
L 355.539861 234.933912 
L 358.124386 228.598671 
L 360.713872 225.780218 
L 363.366194 224.466234 
L 366.031744 228.446259 
L 368.730366 224.283423 
L 371.470326 220.188046 
L 374.203673 221.206795 
L 376.999855 229.617936 
L 379.971315 222.321716 
L 383.177582 231.735265 
L 386.474794 256.641435 
L 389.762086 279.35673 
L 392.974967 252.889598 
L 395.98942 234.633345 
L 398.898044 227.336538 
L 402.064625 224.544042 
L 405.292388 223.231195 
L 408.344873 221.7017 
L 410.873177 221.90307 
L 413.36841 221.403495 
L 415.666868 218.276131 
L 417.895877 218.862952 
L 420.200949 221.132138 
L 422.712718 218.952333 
L 425.494018 219.510681 
L 428.465478 219.585921 
L 431.524577 220.126579 
L 434.689504 216.239483 
L 437.872621 219.092828 
L 441.049124 218.475407 
L 444.298383 218.507517 
L 447.53276 222.094678 
L 450.773752 220.590703 
L 453.847733 217.443764 
L 456.865493 218.338329 
L 459.975853 219.452984 
L 463.069677 218.891458 
L 466.209801 220.11896 
L 469.396225 221.213793 
L 472.552884 217.729396 
L 475.691355 219.388849 
L 478.796754 219.372639 
L 481.592936 221.446997 
L 484.175807 220.539152 
L 486.854586 223.955895 
L 489.794628 223.550781 
L 492.904988 222.238557 
L 496.03023 217.358113 
L 499.044683 216.130332 
L 501.784644 217.826363 
L 504.493187 219.092828 
L 507.216612 219.073534 
L 510.064054 216.745381 
L 512.524562 216.19763 
L 514.654356 217.425489 
L 516.595644 218.319791 
L 518.441025 217.860358 
L 520.251681 216.765262 
L 522.254151 221.285622 
L 524.579066 216.748798 
L 527.099103 219.038539 
L 529.534807 215.65236 
L 532.215239 215.99233 
L 535.229692 218.066709 
L 538.417769 218.968499 
L 541.675297 216.874413 
L 544.917942 219.510473 
L 548.086176 219.280307 
L 551.242836 216.239483 
L 554.430913 217.292253 
L 557.645448 217.919627 
L 560.869904 271.024623 
L 564.087745 252.623458 
L 567.34858 230.846988 
L 570.27374 220.018338 
L 573.013701 219.747601 
L 575.912404 219.636848 
L 578.852446 219.493702 
L 581.875167 220.97296 
L 584.735838 218.969266 
L 587.475799 217.005696 
L 590.101663 228.140283 
L 592.78871 226.35293 
L 595.583238 219.833574 
L 598.460445 218.229178 
L 601.307888 219.422677 
L 604.190055 218.335678 
L 606.948205 217.083504 
L 609.393831 220.852122 
L 611.816307 218.760336 
L 614.098229 228.435292 
L 616.309048 221.21654 
L 618.521521 218.462602 
L 620.91754 217.391338 
L 623.361512 217.312071 
L 625.898084 220.558797 
L 628.547099 215.574552 
L 631.283752 239.330345 
L 633.843474 273.668283 
L 636.616506 291.945925 
L 639.511902 316.227929 
L 642.427141 311.833033 
L 645.340726 321.431567 
L 648.270847 312.949438 
L 651.247268 295.617647 
L 654.160853 279.180695 
L 656.973571 296.138973 
L 659.214154 320.890369 
L 661.687891 330.506941 
L 664.575019 338.561611 
L 667.399312 334.404569 
L 670.365811 317.29429 
L 673.287664 285.618863 
L 676.196289 264.065982 
L 679.068535 237.052262 
L 679.068535 101.661597 
L 679.068535 101.661597 
L 676.196289 99.880837 
L 673.287664 99.428221 
L 670.365811 109.281342 
L 667.399312 139.411472 
L 664.575019 152.389999 
L 661.687891 166.290924 
L 659.214154 150.43934 
L 656.973571 126.135975 
L 654.160853 100.28893 
L 651.247268 97.090041 
L 648.270847 95.012263 
L 645.340726 93.787551 
L 642.427141 94.9191 
L 639.511902 93.917717 
L 636.616506 96.763465 
L 633.843474 98.006339 
L 631.283752 101.50026 
L 628.547099 103.013417 
L 625.898084 103.371437 
L 623.361512 103.258248 
L 620.91754 103.313378 
L 618.521521 103.149291 
L 616.309048 102.142508 
L 614.098229 101.811581 
L 611.816307 103.422742 
L 609.393831 103.95169 
L 606.948205 103.016427 
L 604.190055 103.578607 
L 601.307888 103.129992 
L 598.460445 103.18112 
L 595.583238 103.760669 
L 592.78871 103.490754 
L 590.101663 103.080966 
L 587.475799 103.027037 
L 584.735838 103.516205 
L 581.875167 103.058071 
L 578.852446 103.058967 
L 575.912404 103.856597 
L 573.013701 103.10746 
L 570.27374 103.945495 
L 567.34858 112.839547 
L 564.087745 124.796625 
L 560.869904 136.601098 
L 557.645448 103.725865 
L 554.430913 103.378863 
L 551.242836 103.356461 
L 548.086176 103.440358 
L 544.917942 102.639006 
L 541.675297 103.326315 
L 538.417769 102.811389 
L 535.229692 104.015572 
L 532.215239 103.234023 
L 529.534807 103.002808 
L 527.099103 102.875746 
L 524.579066 103.720723 
L 522.254151 104.996553 
L 520.251681 102.931479 
L 518.441025 103.617139 
L 516.595644 103.695292 
L 514.654356 103.716016 
L 512.524562 102.860727 
L 510.064054 103.018559 
L 507.216612 103.411937 
L 504.493187 103.560639 
L 501.784644 103.214344 
L 499.044683 102.961625 
L 496.03023 104.421776 
L 492.904988 104.178014 
L 489.794628 105.990511 
L 486.854586 104.476625 
L 484.175807 105.675825 
L 481.592936 105.775954 
L 478.796754 105.397574 
L 475.691355 107.430912 
L 472.552884 105.058468 
L 469.396225 106.412349 
L 466.209801 104.819249 
L 463.069677 103.526814 
L 459.975853 103.603672 
L 456.865493 103.575956 
L 453.847733 104.504121 
L 450.773752 105.926666 
L 447.53276 108.152197 
L 444.298383 104.784334 
L 441.049124 103.674073 
L 437.872621 103.560639 
L 434.689504 103.356461 
L 431.524577 103.467663 
L 428.465478 102.697955 
L 425.494018 102.705996 
L 422.712718 102.760357 
L 420.200949 103.974066 
L 417.895877 103.891312 
L 415.666868 103.43656 
L 413.36841 103.501115 
L 410.873177 103.707122 
L 408.344873 103.673298 
L 405.292388 102.714988 
L 402.064625 102.645309 
L 398.898044 102.439948 
L 395.98942 102.333358 
L 392.974967 99.532713 
L 389.762086 98.130545 
L 386.474794 100.820748 
L 383.177582 101.569131 
L 379.971315 102.381298 
L 376.999855 102.644886 
L 374.203673 102.958633 
L 371.470326 102.767812 
L 368.730366 102.670734 
L 366.031744 101.935011 
L 363.366194 102.655919 
L 360.713872 102.786699 
L 358.124386 102.286586 
L 355.539861 102.032792 
L 352.96691 100.673863 
L 350.407189 99.898171 
L 347.91857 99.349673 
L 345.391919 100.122775 
L 342.837158 101.132152 
L 340.285704 99.463216 
L 337.777243 97.318315 
L 335.272089 100.019392 
L 332.780163 103.413323 
L 330.232016 102.879187 
L 327.728516 102.356451 
L 325.258086 103.653654 
L 322.857107 102.989981 
L 320.580145 102.764102 
L 318.344522 102.155948 
L 316.237878 101.662481 
L 314.200683 102.746863 
L 312.120496 102.795936 
L 309.972512 103.241315 
L 307.827835 103.419686 
L 305.727805 101.43995 
L 303.563286 101.868216 
L 301.416956 103.165851 
L 299.235901 103.223946 
L 297.003585 102.364129 
L 294.896941 102.041696 
L 292.811792 101.764985 
L 290.589398 103.201725 
L 288.277711 101.865568 
L 285.916418 101.846616 
L 283.636148 101.204364 
L 281.38399 100.081647 
L 279.021043 101.390231 
L 276.535731 100.965111 
L 274.000813 100.498197 
L 271.507234 101.583562 
L 269.035151 104.451147 
L 266.607714 104.6427 
L 264.168703 103.610376 
L 261.787566 102.02151 
L 259.464304 101.516412 
L 257.1212 104.872226 
L 254.824395 102.912638 
L 252.575544 103.053963 
L 250.386221 103.025836 
L 248.339105 106.064878 
L 246.298603 105.998881 
L 244.203533 102.662983 
L 242.090275 105.119477 
L 240.000166 103.513259 
L 237.838954 108.593048 
L 235.651284 102.918968 
L 233.602515 101.612195 
L 231.558706 104.63973 
L 229.51655 104.34597 
L 227.423134 104.604914 
L 225.29334 104.2318 
L 223.165199 105.280404 
L 221.151154 106.856699 
L 219.198292 104.861841 
L 217.076765 104.135282 
L 214.923821 106.549448 
L 212.760955 105.120476 
L 210.51045 106.689352 
L 208.337663 110.962676 
L 206.080544 111.75959 
L 203.949096 116.383008 
L 201.868908 115.982028 
L 199.796989 112.625957 
L 197.768062 113.300296 
L 195.778821 123.918311 
L 193.746587 120.436589 
L 191.921048 125.434567 
L 190.032675 121.805798 
L 188.164144 119.519299 
L 186.351834 120.052104 
L 184.580864 111.936811 
L 182.821469 107.922472 
L 181.01908 99.433152 
L 179.19685 86.273693 
L 177.447375 80.695184 
L 175.621837 83.192438 
L 173.835985 93.781876 
L 172.045172 108.809749 
L 170.242784 121.430545 
L 168.456931 129.906273 
L 166.585093 124.935863 
L 164.721523 134.887943 
L 162.826535 132.312478 
L 160.848869 123.480634 
L 158.905927 110.010174 
L 156.961333 110.388557 
L 154.919177 108.144683 
L 152.979543 115.516399 
L 150.962191 121.676091 
L 148.954761 132.068345 
L 146.972134 142.901877 
L 144.926671 166.883015 
L 143.021762 180.372439 
L 141.103624 202.615564 
L 139.159029 225.702017 
L 137.366562 234.74306 
L 135.590631 252.945462 
L 133.832889 260.262088 
L 132.040423 261.231891 
L 130.226459 257.950186 
L 128.438953 258.650689 
L 126.654754 253.446171 
L 124.768034 267.37551 
L 122.878007 263.041853 
L 120.763095 262.834059 
L 118.677947 260.731405 
L 116.48201 251.484285 
L 114.195126 251.81898 
L 112.05541 246.489003 
L 109.851205 249.207292 
L 107.574243 250.550652 
L 105.269171 255.483012 
L 103.064966 245.312248 
L 100.59619 238.710277 
L 98.109225 246.666623 
L 95.724782 234.741582 
L 93.345298 238.542513 
L 90.936051 235.3781 
L 88.490425 238.193871 
L 86.107635 241.767613 
L 83.800909 253.285118 
z
" clip-path="url(#p23f95f989a)" style="fill: #1f77b4; fill-opacity: 0.2"/>
   </g>
   <g id="FillBetweenPolyCollection_2">
    <path d="M 83.911698 242.9716 
L 83.911698 352.473369 
L 86.473074 351.542154 
L 89.074135 343.037008 
L 91.776063 344.426089 
L 94.425078 341.492153 
L 97.169999 349.396668 
L 99.823974 351.110798 
L 102.550707 354.017779 
L 105.203028 351.509685 
L 107.888421 356.020798 
L 110.517593 356.363724 
L 113.102118 357.341851 
L 115.519633 364.532096 
L 118.042977 366.837691 
L 120.389389 368.468129 
L 122.68454 366.823165 
L 124.971423 368.454621 
L 127.089643 368.744457 
L 129.295501 366.254806 
L 131.514588 366.423973 
L 133.725407 371.462855 
L 135.67827 366.478181 
L 137.639401 372.801818 
L 139.673288 371.601846 
L 141.579851 370.473746 
L 143.62366 367.203162 
L 145.712115 369.521813 
L 147.81876 365.426172 
L 150.128793 368.795259 
L 152.362762 365.663183 
L 154.661221 360.120623 
L 156.943143 360.930417 
L 159.187034 360.813311 
L 161.579745 360.474607 
L 163.881511 359.959971 
L 166.201466 350.695028 
L 168.488349 352.535834 
L 170.890982 353.236312 
L 173.242354 354.586478 
L 175.663177 347.800551 
L 178.016203 340.528494 
L 180.531278 340.781964 
L 182.960368 347.152474 
L 185.493633 335.504919 
L 188.13934 335.387515 
L 190.770166 339.155751 
L 193.415873 348.814217 
L 196.076463 344.755117 
L 198.656027 350.535275 
L 201.268663 347.504414 
L 203.730825 332.07854 
L 206.374879 329.632844 
L 209.007357 328.801884 
L 211.512512 325.414837 
L 214.068926 309.580554 
L 216.795659 285.85995 
L 219.568691 264.025856 
L 222.475662 269.718174 
L 225.349561 265.699342 
L 228.289604 265.816812 
L 231.277599 251.259978 
L 234.320163 241.953172 
L 237.329655 274.091556 
L 240.277965 278.434455 
L 243.19155 259.613862 
L 246.189468 250.139385 
L 249.202267 258.852066 
L 252.24483 267.054432 
L 255.403144 286.157719 
L 258.58626 276.081783 
L 261.772684 295.611447 
L 264.871469 280.91613 
L 267.985136 266.724091 
L 271.10707 235.758214 
L 274.243887 217.325494 
L 277.367476 243.084749 
L 280.429882 239.701872 
L 283.593156 212.365587 
L 286.726665 190.658685 
L 289.782457 206.285784 
L 292.69935 207.624981 
L 295.356632 203.244764 
L 297.90974 212.77519 
L 300.231348 207.289177 
L 302.457049 203.206194 
L 304.626529 205.28629 
L 306.647188 203.185591 
L 308.66454 195.74591 
L 310.738113 190.379449 
L 312.879483 192.25415 
L 315.040695 188.2805 
L 317.276318 179.958703 
L 319.564855 172.419516 
L 321.851738 180.355933 
L 324.132007 174.841625 
L 326.443694 174.234435 
L 328.733884 174.359994 
L 331.037303 174.322188 
L 333.385369 180.932214 
L 336.024462 179.710076 
L 338.656941 185.774515 
L 341.373751 202.438721 
L 343.916938 217.966594 
L 346.40721 230.678178 
L 348.963624 225.476906 
L 351.700278 201.721874 
L 354.499767 192.704331 
L 357.27776 180.885581 
L 359.964806 171.609907 
L 362.541064 170.865282 
L 365.013147 171.044935 
L 367.390976 177.364876 
L 369.740695 172.557254 
L 372.103643 171.517654 
L 374.473204 166.937569 
L 376.801427 166.843986 
L 379.295006 169.606358 
L 381.796853 180.259225 
L 384.18295 192.137934 
L 386.711255 189.6054 
L 389.227984 194.491449 
L 391.880305 180.38895 
L 394.57562 175.79786 
L 397.176681 183.371032 
L 399.819081 180.711246 
L 402.435024 171.223335 
L 405.178292 173.800366 
L 407.936442 173.578838 
L 410.689631 177.537308 
L 413.442821 172.165886 
L 416.136481 169.62276 
L 418.922742 168.575037 
L 421.869399 171.822883 
L 424.782984 166.896503 
L 427.732948 170.025864 
L 430.902836 173.018404 
L 434.072724 182.25947 
L 437.077255 198.372686 
L 440.119819 190.727031 
L 443.321125 215.47062 
L 446.507549 180.55454 
L 449.814683 173.158029 
L 453.146621 171.115743 
L 456.51163 167.887363 
L 459.952703 177.288701 
L 463.281333 173.87158 
L 466.436339 207.199552 
L 469.146536 231.110176 
L 471.590508 267.848188 
L 473.918731 285.712353 
L 475.80049 299.710875 
L 477.652485 307.093716 
L 479.521016 302.696319 
L 481.609471 273.640698 
L 483.67643 266.474867 
L 486.203081 231.728241 
L 489.366355 194.448676 
L 493.333262 175.353466 
L 497.361352 169.344617 
L 500.855339 189.478025 
L 504.307987 172.21494 
L 507.904496 192.476071 
L 511.02643 231.908283 
L 514.236004 186.684375 
L 517.764716 173.851851 
L 521.4191 178.252742 
L 524.84033 169.616657 
L 528.455028 169.798357 
L 532.154057 170.91524 
L 535.512452 182.230469 
L 538.650922 181.501107 
L 542.080421 165.384976 
L 545.822443 168.882808 
L 550.070457 171.559038 
L 554.358156 169.784671 
L 558.688849 166.852403 
L 562.784734 168.230322 
L 567.151805 169.277211 
L 571.614783 167.156102 
L 576.077761 170.425961 
L 580.62507 170.051246 
L 584.978912 175.056962 
L 589.455118 172.56205 
L 593.732897 182.591676 
L 597.896579 213.925955 
L 601.197099 194.514698 
L 604.330608 173.699283 
L 607.361597 177.988458 
L 610.476917 182.146148 
L 613.845233 195.118508 
L 617.230085 186.879613 
L 620.887776 180.966704 
L 624.838148 185.596746 
L 628.102289 214.338936 
L 630.881935 194.899425 
L 633.714496 185.357176 
L 636.54871 188.746369 
L 639.255599 181.298632 
L 641.81036 171.825884 
L 644.437879 173.20029 
L 647.081932 172.608336 
L 649.740868 170.965599 
L 652.39319 163.39928 
L 655.022362 176.142171 
L 657.648226 184.86607 
L 660.24598 168.150986 
L 662.822238 196.143951 
L 665.431567 177.695162 
L 668.126881 177.360611 
L 670.878417 171.092867 
L 673.658063 189.06703 
L 676.507159 181.916694 
L 679.419091 180.170723 
L 679.419091 61.777546 
L 679.419091 61.777546 
L 676.507159 62.148322 
L 673.658063 63.128981 
L 670.878417 62.354818 
L 668.126881 61.630934 
L 665.431567 61.296383 
L 662.822238 59.311176 
L 660.24598 62.339973 
L 657.648226 61.920478 
L 655.022362 62.009395 
L 652.39319 61.783013 
L 649.740868 63.288466 
L 647.081932 63.460083 
L 644.437879 61.99455 
L 641.81036 62.159387 
L 639.255599 60.246446 
L 636.54871 61.265696 
L 633.714496 62.840536 
L 630.881935 62.269259 
L 628.102289 65.542775 
L 624.838148 65.994481 
L 620.887776 63.703098 
L 617.230085 64.577217 
L 613.845233 66.048478 
L 610.476917 65.581177 
L 607.361597 63.623821 
L 604.330608 63.242714 
L 601.197099 65.677913 
L 597.896579 71.264428 
L 593.732897 59.826981 
L 589.455118 62.397596 
L 584.978912 63.69939 
L 580.62507 62.791654 
L 576.077761 62.416939 
L 571.614783 61.957293 
L 567.151805 61.818533 
L 562.784734 62.361435 
L 558.688849 62.596983 
L 554.358156 62.419846 
L 550.070457 62.896622 
L 545.822443 62.280134 
L 542.080421 62.518849 
L 538.650922 64.882253 
L 535.512452 64.320887 
L 532.154057 62.196453 
L 528.455028 62.641353 
L 524.84033 62.453463 
L 521.4191 62.082769 
L 517.764716 62.317365 
L 514.236004 63.898879 
L 511.02643 66.721757 
L 507.904496 65.263802 
L 504.307987 62.711107 
L 500.855339 58.988479 
L 497.361352 61.583131 
L 493.333262 61.99172 
L 489.366355 57.612938 
L 486.203081 52.084572 
L 483.67643 46.166017 
L 481.609471 44.073658 
L 479.521016 41.628565 
L 477.652485 42.371839 
L 475.80049 41.086098 
L 473.918731 41.745757 
L 471.590508 46.472653 
L 469.146536 52.131451 
L 466.436339 55.076204 
L 463.281333 60.55048 
L 459.952703 62.576423 
L 456.51163 61.797216 
L 453.146621 61.021575 
L 449.814683 62.070411 
L 446.507549 62.771295 
L 443.321125 67.401417 
L 440.119819 64.795297 
L 437.077255 58.628002 
L 434.072724 60.159187 
L 430.902836 62.84842 
L 427.732948 61.775463 
L 424.782984 62.552883 
L 421.869399 63.439157 
L 418.922742 62.890299 
L 416.136481 63.421736 
L 413.442821 63.700939 
L 410.689631 63.503787 
L 407.936442 62.321586 
L 405.178292 62.872838 
L 402.435024 61.585967 
L 399.819081 60.262649 
L 397.176681 62.441141 
L 394.57562 61.547326 
L 391.880305 62.332101 
L 389.227984 58.746136 
L 386.711255 60.742659 
L 384.18295 60.058078 
L 381.796853 61.15146 
L 379.295006 61.858977 
L 376.801427 62.269408 
L 374.473204 62.612615 
L 372.103643 63.475593 
L 369.740695 63.679162 
L 367.390976 64.583396 
L 365.013147 63.309928 
L 362.541064 62.918396 
L 359.964806 63.181745 
L 357.27776 61.667475 
L 354.499767 60.902846 
L 351.700278 59.478711 
L 348.963624 55.44638 
L 346.40721 54.881791 
L 343.916938 55.564879 
L 341.373751 62.12178 
L 338.656941 61.348026 
L 336.024462 61.633411 
L 333.385369 64.87996 
L 331.037303 63.930177 
L 328.733884 63.589978 
L 326.443694 63.58114 
L 324.132007 63.511537 
L 321.851738 63.406693 
L 319.564855 63.144917 
L 317.276318 64.643902 
L 315.040695 64.184306 
L 312.879483 62.79779 
L 310.738113 61.245378 
L 308.66454 60.817992 
L 306.647188 59.459758 
L 304.626529 59.912596 
L 302.457049 64.311036 
L 300.231348 63.92396 
L 297.90974 65.52737 
L 295.356632 66.086822 
L 292.69935 68.191243 
L 289.782457 72.083977 
L 286.726665 69.231541 
L 283.593156 71.884026 
L 280.429882 75.055771 
L 277.367476 80.442273 
L 274.243887 74.215136 
L 271.10707 82.090554 
L 267.985136 91.309262 
L 264.871469 100.972624 
L 261.772684 108.41915 
L 258.58626 92.770499 
L 255.403144 100.233319 
L 252.24483 88.794975 
L 249.202267 83.59128 
L 246.189468 84.206566 
L 243.19155 84.912629 
L 240.277965 91.593795 
L 237.329655 90.863221 
L 234.320163 78.281133 
L 231.277599 82.178792 
L 228.289604 89.528609 
L 225.349561 91.15804 
L 222.475662 87.475197 
L 219.568691 84.465335 
L 216.795659 95.424014 
L 214.068926 93.106069 
L 211.512512 117.389177 
L 209.007357 118.30282 
L 206.374879 136.757774 
L 203.730825 130.582571 
L 201.268663 146.538308 
L 198.656027 153.150405 
L 196.076463 145.222111 
L 193.415873 161.860088 
L 190.770166 139.128975 
L 188.13934 131.775889 
L 185.493633 122.385119 
L 182.960368 133.047401 
L 180.531278 122.584737 
L 178.016203 124.047774 
L 175.663177 130.148177 
L 173.242354 156.894202 
L 170.890982 134.59056 
L 168.488349 157.466483 
L 166.201466 160.987245 
L 163.881511 190.966112 
L 161.579745 192.904216 
L 159.187034 209.566683 
L 156.943143 225.207579 
L 154.661221 214.190474 
L 152.362762 228.169019 
L 150.128793 228.161663 
L 147.81876 227.59965 
L 145.712115 226.225539 
L 143.62366 209.594268 
L 141.579851 218.38578 
L 139.673288 239.769114 
L 137.639401 241.257073 
L 135.67827 224.766885 
L 133.725407 235.002628 
L 131.514588 235.942416 
L 129.295501 252.810361 
L 127.089643 253.042242 
L 124.971423 267.88051 
L 122.68454 279.793309 
L 120.389389 272.772479 
L 118.042977 267.783884 
L 115.519633 268.207927 
L 113.102118 238.976693 
L 110.517593 250.437752 
L 107.888421 234.955475 
L 105.203028 239.063404 
L 102.550707 230.91065 
L 99.823974 226.224223 
L 97.169999 231.936654 
L 94.425078 215.884974 
L 91.776063 222.459601 
L 89.074135 232.416465 
L 86.473074 235.200633 
L 83.911698 242.9716 
z
" clip-path="url(#p23f95f989a)" style="fill: #ff7f0e; fill-opacity: 0.2"/>
   </g>
   <g id="FillBetweenPolyCollection_3">
    <path d="M 84.027448 239.270645 
L 84.027448 353.1504 
L 86.75418 345.774053 
L 89.474298 343.989806 
L 92.379615 337.564989 
L 95.255168 343.413387 
L 98.347339 343.019192 
L 101.403131 346.403993 
L 104.430812 347.93389 
L 107.407233 349.664089 
L 110.271211 351.718725 
L 112.822666 352.664631 
L 115.365852 355.4608 
L 117.75691 361.844524 
L 120.124818 365.42 
L 122.256266 364.578059 
L 124.604331 363.396677 
L 126.745701 360.181124 
L 128.938331 367.622718 
L 131.059857 367.461743 
L 133.083823 366.774791 
L 135.051568 367.649102 
L 137.176402 364.940021 
L 139.317771 369.779686 
L 141.583158 359.889865 
L 143.752638 363.493143 
L 146.269368 360.974625 
L 148.582708 353.038379 
L 151.236683 354.211903 
L 153.92869 344.058076 
L 156.587626 347.867857 
L 159.274673 335.898739 
L 161.859198 336.20497 
L 164.529709 336.076156 
L 167.378805 338.387241 
L 170.108845 347.244969 
L 172.738016 345.512148 
L 175.443252 341.098566 
L 178.064156 337.946939 
L 180.580885 335.812766 
L 183.110843 341.42185 
L 185.665604 345.49247 
L 188.131073 340.797802 
L 190.580006 340.891485 
L 192.995867 332.519623 
L 195.431571 344.527228 
L 197.845779 354.870716 
L 200.218648 356.144631 
L 202.56506 351.388026 
L 205.037143 361.916668 
L 207.421587 353.729291 
L 209.92178 342.077442 
L 212.383941 339.709628 
L 214.864292 327.787922 
L 217.549685 328.27472 
L 220.218542 310.667804 
L 222.986614 303.520023 
L 225.794371 302.475486 
L 228.73772 292.37747 
L 231.84808 306.256365 
L 235.013007 301.276752 
L 238.192817 303.696714 
L 241.248609 297.807687 
L 244.387079 293.159192 
L 247.733899 295.326824 
L 251.031112 295.389103 
L 254.411003 290.474754 
L 257.678452 297.685463 
L 261.076532 294.42179 
L 264.277838 294.477523 
L 267.222841 302.441387 
L 270.174459 302.429275 
L 273.164108 298.737545 
L 276.195096 298.053565 
L 279.179785 284.818047 
L 282.276916 288.519523 
L 285.170659 295.964446 
L 288.089205 311.772417 
L 290.963104 335.250407 
L 293.805586 338.007615 
L 296.691061 316.960869 
L 299.776617 317.733214 
L 302.968002 298.452951 
L 306.225529 272.531938 
L 309.46156 270.375089 
L 312.763733 269.555965 
L 316.098978 265.743364 
L 319.538398 290.317961 
L 322.969549 299.190735 
L 326.453615 268.290171 
L 329.992249 269.766386 
L 333.671436 252.443239 
L 337.542436 246.449553 
L 341.50769 245.285343 
L 345.434912 236.543744 
L 349.706076 248.491476 
L 354.147557 266.07859 
L 358.410453 288.583178 
L 362.567521 299.716951 
L 366.674982 340.730292 
L 370.711339 351.773733 
L 374.580686 365.255072 
L 378.418615 364.75572 
L 382.301191 355.731041 
L 386.089513 350.625835 
L 389.783582 357.0834 
L 393.385051 359.519196 
L 397.280856 366.699009 
L 401.272567 360.998593 
L 405.168371 356.147926 
L 409.014568 348.363039 
L 412.668951 356.55369 
L 415.901675 348.244538 
L 419.527948 344.98075 
L 423.226977 342.742223 
L 426.959078 338.214525 
L 430.911104 343.793424 
L 434.937539 349.408453 
L 438.859801 337.973857 
L 442.694423 340.195019 
L 446.454634 344.604228 
L 450.125553 341.295829 
L 453.798126 331.959838 
L 457.57322 334.144089 
L 461.378078 259.072685 
L 465.381364 220.753868 
L 469.249057 273.151632 
L 472.827376 251.405555 
L 476.323017 219.307483 
L 480.008818 213.644209 
L 483.502806 201.762154 
L 487.46806 192.633188 
L 491.368824 190.817768 
L 495.195179 201.237082 
L 498.624677 239.743059 
L 501.845826 227.955062 
L 505.650684 201.412635 
L 509.652316 204.943869 
L 513.880487 213.873439 
L 518.116926 241.25439 
L 522.111944 287.095053 
L 525.887038 308.473386 
L 529.681974 291.515398 
L 533.653843 315.396598 
L 537.683586 358.544865 
L 541.886953 360.37519 
L 546.230874 363.138498 
L 550.624402 353.435861 
L 554.92533 359.125675 
L 559.452797 355.138915 
L 564.274598 345.268254 
L 569.129471 345.569067 
L 574.098441 339.384864 
L 578.893785 344.372283 
L 583.824722 346.031864 
L 588.669674 348.351535 
L 593.511319 342.234801 
L 598.053667 352.941706 
L 602.278531 359.902008 
L 606.652216 372.402099 
L 611.22433 371.068767 
L 615.599668 352.16687 
L 619.885714 298.178063 
L 624.50082 275.188427 
L 629.058051 251.712636 
L 633.633471 203.57635 
L 638.438737 186.293106 
L 643.182821 175.08014 
L 647.768163 191.721352 
L 652.282401 184.645922 
L 656.973571 201.025885 
L 661.487809 193.940749 
L 666.266618 208.400444 
L 671.18598 195.361874 
L 676.01605 195.784298 
L 676.01605 78.452759 
L 676.01605 78.452759 
L 671.18598 84.385439 
L 666.266618 90.498385 
L 661.487809 87.184124 
L 656.973571 88.028383 
L 652.282401 83.039289 
L 647.768163 83.490074 
L 643.182821 81.349356 
L 638.438737 84.651222 
L 633.633471 89.610617 
L 629.058051 106.08551 
L 624.50082 120.643959 
L 619.885714 142.00521 
L 615.599668 178.498926 
L 611.22433 184.32601 
L 606.652216 194.853179 
L 602.278531 188.168148 
L 598.053667 172.381824 
L 593.511319 151.505525 
L 588.669674 156.778907 
L 583.824722 151.135578 
L 578.893785 149.603239 
L 574.098441 138.967049 
L 569.129471 152.203157 
L 564.274598 149.883236 
L 559.452797 168.336664 
L 554.92533 173.892064 
L 550.624402 161.303939 
L 546.230874 167.695297 
L 541.886953 159.16929 
L 537.683586 159.218861 
L 533.653843 137.55436 
L 529.681974 138.655338 
L 525.887038 134.061832 
L 522.111944 113.206032 
L 518.116926 93.864345 
L 513.880487 79.212763 
L 509.652316 68.990821 
L 505.650684 64.391064 
L 501.845826 65.803129 
L 498.624677 63.758886 
L 495.195179 61.744287 
L 491.368824 62.151054 
L 487.46806 61.175613 
L 483.502806 64.075143 
L 480.008818 64.423178 
L 476.323017 66.655706 
L 472.827376 77.530947 
L 469.249057 85.520118 
L 465.381364 70.954776 
L 461.378078 79.137187 
L 457.57322 102.242506 
L 453.798126 93.67503 
L 450.125553 105.002516 
L 446.454634 115.133777 
L 442.694423 100.223476 
L 438.859801 96.76638 
L 434.937539 117.183779 
L 430.911104 107.779987 
L 426.959078 103.211939 
L 423.226977 115.11422 
L 419.527948 122.317049 
L 415.901675 131.24975 
L 412.668951 150.088713 
L 409.014568 139.12785 
L 405.168371 160.540626 
L 401.272567 174.371087 
L 397.280856 193.970835 
L 393.385051 172.524171 
L 389.783582 163.166664 
L 386.089513 141.837728 
L 382.301191 148.290633 
L 378.418615 166.649266 
L 374.580686 177.506431 
L 370.711339 151.206376 
L 366.674982 137.722437 
L 362.567521 98.333012 
L 358.410453 98.782254 
L 354.147557 86.377322 
L 349.706076 83.435345 
L 345.434912 82.816985 
L 341.50769 81.198402 
L 337.542436 83.965291 
L 333.671436 84.187448 
L 329.992249 91.962871 
L 326.453615 87.32404 
L 322.969549 106.183827 
L 319.538398 91.637996 
L 316.098978 87.586118 
L 312.763733 84.243903 
L 309.46156 82.685597 
L 306.225529 80.763941 
L 302.968002 91.264406 
L 299.776617 94.52917 
L 296.691061 84.180195 
L 293.805586 96.430207 
L 290.963104 106.075238 
L 288.089205 110.09932 
L 285.170659 113.542802 
L 282.276916 112.621533 
L 279.179785 110.073564 
L 276.195096 109.807318 
L 273.164108 111.844869 
L 270.174459 111.58025 
L 267.222841 108.409818 
L 264.277838 110.292236 
L 261.076532 110.381566 
L 257.678452 113.669728 
L 254.411003 110.162306 
L 251.031112 113.04296 
L 247.733899 111.55968 
L 244.387079 111.677764 
L 241.248609 112.438733 
L 238.192817 112.463158 
L 235.013007 115.857497 
L 231.84808 121.36082 
L 228.73772 115.449815 
L 225.794371 116.876315 
L 222.986614 119.72928 
L 220.218542 125.920363 
L 217.549685 121.148322 
L 214.864292 128.254154 
L 212.383941 138.776684 
L 209.92178 135.93848 
L 207.421587 147.873237 
L 205.037143 153.864703 
L 202.56506 162.175803 
L 200.218648 165.785388 
L 197.845779 168.235276 
L 195.431571 151.565046 
L 192.995867 164.47983 
L 190.580006 170.454806 
L 188.131073 169.977303 
L 185.665604 178.621496 
L 183.110843 180.20578 
L 180.580885 168.578498 
L 178.064156 170.106633 
L 175.443252 167.492593 
L 172.738016 185.590443 
L 170.108845 183.286437 
L 167.378805 178.536512 
L 164.529709 167.609527 
L 161.859198 155.48582 
L 159.274673 157.404807 
L 156.587626 171.172638 
L 153.92869 176.595178 
L 151.236683 205.349169 
L 148.582708 218.114396 
L 146.269368 218.544339 
L 143.752638 217.470585 
L 141.583158 208.037393 
L 139.317771 222.775751 
L 137.176402 252.915575 
L 135.051568 257.06072 
L 133.083823 244.56257 
L 131.059857 272.367698 
L 128.938331 258.296675 
L 126.745701 258.447252 
L 124.604331 269.17535 
L 122.256266 261.307734 
L 120.124818 272.964679 
L 117.75691 250.635207 
L 115.365852 242.604898 
L 112.822666 234.111751 
L 110.271211 226.355477 
L 107.407233 226.965349 
L 104.430812 229.434729 
L 101.403131 224.715185 
L 98.347339 217.71785 
L 95.255168 214.030936 
L 92.379615 216.116234 
L 89.474298 222.761484 
L 86.75418 224.404351 
L 84.027448 239.270645 
z
" clip-path="url(#p23f95f989a)" style="fill: #2ca02c; fill-opacity: 0.2"/>
   </g>
   <g id="FillBetweenPolyCollection_4">
    <path d="M 84.085323 231.869938 
L 84.085323 351.983325 
L 86.855048 341.642329 
L 89.806665 341.065766 
L 92.897182 343.693976 
L 95.952974 345.596946 
L 99.276644 335.470104 
L 102.646613 337.358284 
L 105.636263 347.543623 
L 108.845837 346.342456 
L 111.863597 345.743223 
L 114.926003 356.242622 
L 118.112427 353.715016 
L 121.212865 355.128037 
L 124.260389 355.836335 
L 127.218621 362.666656 
L 130.082599 360.23636 
L 132.913506 365.148762 
L 135.803941 363.395542 
L 138.588548 357.40454 
L 141.216066 361.792327 
L 143.875002 360.860773 
L 146.494253 369.129955 
L 148.771215 365.220344 
L 151.124241 365.469503 
L 153.426006 368.382402 
L 155.937774 365.2884 
L 158.659546 369.927786 
L 161.186196 364.902854 
L 163.676469 366.830989 
L 166.209733 366.738666 
L 168.792605 365.570189 
L 171.504455 361.894679 
L 174.161738 367.816131 
L 176.784295 362.140112 
L 179.583784 358.654067 
L 182.307209 359.990495 
L 184.883467 363.562585 
L 187.484528 357.749836 
L 190.011178 357.849613 
L 192.603972 358.145694 
L 195.132276 357.177211 
L 197.629162 357.128378 
L 200.02022 361.469193 
L 202.341828 361.357995 
L 204.807297 358.86312 
L 207.14048 354.822861 
L 209.399253 362.283016 
L 211.758893 356.491566 
L 214.077194 352.906609 
L 216.319431 354.173105 
L 218.672457 348.094817 
L 220.952726 346.783273 
L 223.22142 354.378616 
L 225.372711 350.181282 
L 227.550459 342.265291 
L 229.812539 341.006516 
L 232.132494 331.247321 
L 234.44418 327.668584 
L 236.893113 318.991417 
L 239.428032 319.709744 
L 241.981139 312.636299 
L 244.55905 291.232011 
L 247.087355 280.040803 
L 249.633848 283.796494 
L 252.044749 281.285347 
L 254.311789 286.816153 
L 256.696233 267.964836 
L 259.287373 271.876611 
L 261.850402 266.639621 
L 264.496109 268.13074 
L 267.131895 270.164159 
L 269.650278 262.468147 
L 272.35386 253.686151 
L 275.128546 266.800281 
L 277.845356 259.098978 
L 280.510907 246.878143 
L 283.282285 239.21785 
L 286.02886 243.902767 
L 288.659685 240.283797 
L 291.341771 232.325295 
L 294.214017 220.94577 
L 297.114374 229.525971 
L 300.104023 212.817705 
L 303.141626 227.823507 
L 306.09159 212.097116 
L 309.147382 216.21495 
L 312.137031 221.586216 
L 315.240777 225.004109 
L 318.301529 236.077669 
L 321.410236 249.802387 
L 324.566895 265.977059 
L 327.897179 238.042606 
L 330.814072 268.980144 
L 333.525922 238.998648 
L 336.798331 214.593269 
L 340.284051 187.161762 
L 343.619296 189.600192 
L 347.009108 173.070756 
L 350.283171 167.205054 
L 353.582037 168.322972 
L 356.783343 163.016585 
L 360.019374 158.497579 
L 363.238869 181.067382 
L 366.512932 177.679118 
L 369.861406 206.985678 
L 373.434764 221.837239 
L 377.257811 193.579329 
L 380.920463 183.055238 
L 384.485553 195.014323 
L 388.022533 216.479549 
L 391.567781 241.55243 
L 395.159329 237.718837 
L 398.74757 248.531393 
L 402.324235 250.013565 
L 406.008383 255.489201 
L 409.735523 247.909608 
L 413.379985 259.883259 
L 416.981454 272.447325 
L 420.548198 288.157635 
L 424.0951 276.720888 
L 427.751137 285.771568 
L 431.288117 285.577354 
L 434.881318 261.591898 
L 438.585309 269.44634 
L 442.223156 263.734656 
L 445.90565 244.974085 
L 449.553419 241.818913 
L 453.184653 243.896673 
L 456.784468 270.904063 
L 460.124674 278.12332 
L 463.544251 246.473559 
L 467.226744 249.615581 
L 470.626478 279.605461 
L 474.280862 258.947111 
L 477.915402 247.482579 
L 481.518525 243.50973 
L 485.037316 238.057682 
L 488.395711 240.82312 
L 491.924423 259.092655 
L 495.507703 256.983234 
L 499.052951 246.078279 
L 502.712295 252.885866 
L 506.320378 271.830742 
L 509.911926 258.223309 
L 513.670484 249.751294 
L 517.455499 241.593054 
L 521.559653 234.874837 
L 525.776249 225.241041 
L 529.95812 242.633926 
L 533.956445 250.361143 
L 537.819178 233.9093 
L 541.64884 217.604986 
L 545.341255 180.784769 
L 549.127924 180.010917 
L 552.85341 170.095472 
L 556.41354 153.812881 
L 559.841385 163.387265 
L 563.262615 162.563229 
L 566.566442 226.738676 
L 569.189 305.841539 
L 572.008332 207.673405 
L 575.470901 165.738972 
L 579.153395 166.797698 
L 583.07731 167.698485 
L 587.04091 153.599587 
L 590.997897 146.127798 
L 594.854015 147.100074 
L 598.830844 144.933945 
L 602.858934 149.109585 
L 606.868834 143.130501 
L 610.883695 143.732999 
L 614.400832 144.21043 
L 617.583949 146.736846 
L 620.854704 140.730607 
L 624.123807 152.163169 
L 627.417712 143.306912 
L 630.738075 144.326513 
L 634.11962 151.878394 
L 637.309351 148.703583 
L 640.451128 144.31844 
L 643.78968 145.277572 
L 647.346503 142.003112 
L 651.184432 144.068115 
L 655.025669 140.482777 
L 658.823912 149.514499 
L 662.689952 153.802108 
L 666.521267 148.264988 
L 670.78251 142.781706 
L 675.104934 154.89798 
L 679.286806 157.097985 
L 679.286806 38.416243 
L 679.286806 38.416243 
L 675.104934 33.258026 
L 670.78251 28.776312 
L 666.521267 29.912065 
L 662.689952 30.489992 
L 658.823912 30.443309 
L 655.025669 28.454507 
L 651.184432 29.001865 
L 647.346503 28.210939 
L 643.78968 28.363593 
L 640.451128 28.818738 
L 637.309351 29.574266 
L 634.11962 30.229758 
L 630.738075 29.01226 
L 627.417712 28.251106 
L 624.123807 29.911384 
L 620.854704 28.87866 
L 617.583949 29.25626 
L 614.400832 28.725153 
L 610.883695 28.866593 
L 606.868834 29.200297 
L 602.858934 29.974644 
L 598.830844 29.614398 
L 594.854015 29.497817 
L 590.997897 29.294123 
L 587.04091 28.038182 
L 583.07731 28.756514 
L 579.153395 29.186913 
L 575.470901 28.128892 
L 572.008332 46.034553 
L 569.189 102.825717 
L 566.566442 64.365138 
L 563.262615 28.952695 
L 559.841385 30.077406 
L 556.41354 29.437645 
L 552.85341 33.280954 
L 549.127924 39.123521 
L 545.341255 43.120748 
L 541.64884 57.136044 
L 537.819178 60.991218 
L 533.956445 56.500669 
L 529.95812 57.877647 
L 525.776249 50.339959 
L 521.559653 52.869056 
L 517.455499 50.283534 
L 513.670484 47.467559 
L 509.911926 52.972792 
L 506.320378 50.587477 
L 502.712295 50.448035 
L 499.052951 52.854135 
L 495.507703 54.61606 
L 491.924423 52.002653 
L 488.395711 57.336516 
L 485.037316 61.983507 
L 481.518525 63.217692 
L 477.915402 57.497684 
L 474.280862 61.555961 
L 470.626478 69.45689 
L 467.226744 64.436452 
L 463.544251 55.785171 
L 460.124674 61.934457 
L 456.784468 56.453235 
L 453.184653 58.194063 
L 449.553419 61.514992 
L 445.90565 54.630313 
L 442.223156 55.626044 
L 438.585309 57.037381 
L 434.881318 56.088844 
L 431.288117 80.452573 
L 427.751137 61.106839 
L 424.0951 46.537312 
L 420.548198 49.850595 
L 416.981454 47.820551 
L 413.379985 49.700089 
L 409.735523 50.653222 
L 406.008383 51.137429 
L 402.324235 46.130134 
L 398.74757 44.991577 
L 395.159329 38.63497 
L 391.567781 38.430086 
L 388.022533 37.866813 
L 384.485553 35.207846 
L 380.920463 36.885588 
L 377.257811 37.046026 
L 373.434764 39.329743 
L 369.861406 34.660198 
L 366.512932 35.508281 
L 363.238869 39.142242 
L 360.019374 37.520657 
L 356.783343 38.041524 
L 353.582037 38.950983 
L 350.283171 37.347366 
L 347.009108 36.958323 
L 343.619296 40.487578 
L 340.284051 35.2318 
L 336.798331 39.786687 
L 333.525922 52.575573 
L 330.814072 61.434701 
L 327.897179 38.747984 
L 324.566895 45.118267 
L 321.410236 47.886871 
L 318.301529 51.867834 
L 315.240777 51.080889 
L 312.137031 54.162787 
L 309.147382 53.116617 
L 306.09159 55.420095 
L 303.141626 66.405029 
L 300.104023 58.899396 
L 297.114374 68.835259 
L 294.214017 59.809504 
L 291.341771 66.808716 
L 288.659685 73.129853 
L 286.02886 79.288236 
L 283.282285 71.507867 
L 280.510907 80.445555 
L 277.845356 89.62738 
L 275.128546 83.774029 
L 272.35386 81.062959 
L 269.650278 97.984316 
L 267.131895 98.620894 
L 264.496109 96.992006 
L 261.850402 100.297481 
L 259.287373 108.768949 
L 256.696233 111.639152 
L 254.311789 127.025377 
L 252.044749 123.383616 
L 249.633848 124.904372 
L 247.087355 113.641247 
L 244.55905 120.391989 
L 241.981139 128.655756 
L 239.428032 134.551583 
L 236.893113 131.439607 
L 234.44418 147.390618 
L 232.132494 145.559035 
L 229.812539 160.696808 
L 227.550459 168.509807 
L 225.372711 182.198069 
L 223.22142 196.009882 
L 220.952726 169.569282 
L 218.672457 174.507181 
L 216.319431 183.615709 
L 214.077194 197.246693 
L 211.758893 178.407722 
L 209.399253 206.383419 
L 207.14048 210.685253 
L 204.807297 207.720168 
L 202.341828 224.007218 
L 200.02022 215.56343 
L 197.629162 209.555706 
L 195.132276 210.514847 
L 192.603972 217.542963 
L 190.011178 215.6551 
L 187.484528 214.142119 
L 184.883467 227.984874 
L 182.307209 229.541016 
L 179.583784 237.328479 
L 176.784295 237.60554 
L 174.161738 248.493906 
L 171.504455 244.839599 
L 168.792605 242.676051 
L 166.209733 249.067383 
L 163.676469 255.829288 
L 161.186196 234.002821 
L 158.659546 244.097509 
L 155.937774 222.831946 
L 153.426006 240.535819 
L 151.124241 245.027878 
L 148.771215 244.605055 
L 146.494253 246.474498 
L 143.875002 245.369517 
L 141.216066 246.353114 
L 138.588548 238.981199 
L 135.803941 248.580203 
L 132.913506 243.097476 
L 130.082599 252.680161 
L 127.218621 229.351193 
L 124.260389 242.027767 
L 121.212865 229.598795 
L 118.112427 227.920691 
L 114.926003 226.132272 
L 111.863597 224.972764 
L 108.845837 209.42191 
L 105.636263 231.572153 
L 102.646613 214.609377 
L 99.276644 210.584109 
L 95.952974 212.116173 
L 92.897182 225.006068 
L 89.806665 221.149639 
L 86.855048 223.395405 
L 84.085323 231.869938 
z
" clip-path="url(#p23f95f989a)" style="fill: #d62728; fill-opacity: 0.2"/>
   </g>
   <g id="matplotlib.axis_1">
    <g id="xtick_1">
     <g id="line2d_1">
      <path d="M 82.616955 390.04 
L 82.616955 10.8 
" clip-path="url(#p23f95f989a)" style="fill: none; stroke: #b0b0b0; stroke-width: 0.8; stroke-linecap: square"/>
     </g>
     <g id="line2d_2">
      <defs>
       <path id="m4063c1cfba" d="M 0 0 
L 0 3.5 
" style="stroke: #000000; stroke-width: 0.8"/>
      </defs>
      <g>
       <use xlink:href="#m4063c1cfba" x="82.616955" y="390.04" style="stroke: #000000; stroke-width: 0.8"/>
      </g>
     </g>
     <g id="text_1">
      <!-- 0 -->
      <g transform="translate(79.435705 404.638438) scale(0.1 -0.1)">
       <defs>
        <path id="DejaVuSans-30" d="M 2034 4250 
Q 1547 4250 1301 3770 
Q 1056 3291 1056 2328 
Q 1056 1369 1301 889 
Q 1547 409 2034 409 
Q 2525 409 2770 889 
Q 3016 1369 3016 2328 
Q 3016 3291 2770 3770 
Q 2525 4250 2034 4250 
z
M 2034 4750 
Q 2819 4750 3233 4129 
Q 3647 3509 3647 2328 
Q 3647 1150 3233 529 
Q 2819 -91 2034 -91 
Q 1250 -91 836 529 
Q 422 1150 422 2328 
Q 422 3509 836 4129 
Q 1250 4750 2034 4750 
z
" transform="scale(0.015625)"/>
       </defs>
       <use xlink:href="#DejaVuSans-30"/>
      </g>
     </g>
    </g>
    <g id="xtick_2">
     <g id="line2d_3">
      <path d="M 165.295311 390.04 
L 165.295311 10.8 
" clip-path="url(#p23f95f989a)" style="fill: none; stroke: #b0b0b0; stroke-width: 0.8; stroke-linecap: square"/>
     </g>
     <g id="line2d_4">
      <g>
       <use xlink:href="#m4063c1cfba" x="165.295311" y="390.04" style="stroke: #000000; stroke-width: 0.8"/>
      </g>
     </g>
     <g id="text_2">
      <!-- 50000 -->
      <g transform="translate(149.389061 404.638438) scale(0.1 -0.1)">
       <defs>
        <path id="DejaVuSans-35" d="M 691 4666 
L 3169 4666 
L 3169 4134 
L 1269 4134 
L 1269 2991 
Q 1406 3038 1543 3061 
Q 1681 3084 1819 3084 
Q 2600 3084 3056 2656 
Q 3513 2228 3513 1497 
Q 3513 744 3044 326 
Q 2575 -91 1722 -91 
Q 1428 -91 1123 -41 
Q 819 9 494 109 
L 494 744 
Q 775 591 1075 516 
Q 1375 441 1709 441 
Q 2250 441 2565 725 
Q 2881 1009 2881 1497 
Q 2881 1984 2565 2268 
Q 2250 2553 1709 2553 
Q 1456 2553 1204 2497 
Q 953 2441 691 2322 
L 691 4666 
z
" transform="scale(0.015625)"/>
       </defs>
       <use xlink:href="#DejaVuSans-35"/>
       <use xlink:href="#DejaVuSans-30" transform="translate(63.623047 0)"/>
       <use xlink:href="#DejaVuSans-30" transform="translate(127.246094 0)"/>
       <use xlink:href="#DejaVuSans-30" transform="translate(190.869141 0)"/>
       <use xlink:href="#DejaVuSans-30" transform="translate(254.492188 0)"/>
      </g>
     </g>
    </g>
    <g id="xtick_3">
     <g id="line2d_5">
      <path d="M 247.973666 390.04 
L 247.973666 10.8 
" clip-path="url(#p23f95f989a)" style="fill: none; stroke: #b0b0b0; stroke-width: 0.8; stroke-linecap: square"/>
     </g>
     <g id="line2d_6">
      <g>
       <use xlink:href="#m4063c1cfba" x="247.973666" y="390.04" style="stroke: #000000; stroke-width: 0.8"/>
      </g>
     </g>
     <g id="text_3">
      <!-- 100000 -->
      <g transform="translate(228.886166 404.638438) scale(0.1 -0.1)">
       <defs>
        <path id="DejaVuSans-31" d="M 794 531 
L 1825 531 
L 1825 4091 
L 703 3866 
L 703 4441 
L 1819 4666 
L 2450 4666 
L 2450 531 
L 3481 531 
L 3481 0 
L 794 0 
L 794 531 
z
" transform="scale(0.015625)"/>
       </defs>
       <use xlink:href="#DejaVuSans-31"/>
       <use xlink:href="#DejaVuSans-30" transform="translate(63.623047 0)"/>
       <use xlink:href="#DejaVuSans-30" transform="translate(127.246094 0)"/>
       <use xlink:href="#DejaVuSans-30" transform="translate(190.869141 0)"/>
       <use xlink:href="#DejaVuSans-30" transform="translate(254.492188 0)"/>
       <use xlink:href="#DejaVuSans-30" transform="translate(318.115234 0)"/>
      </g>
     </g>
    </g>
    <g id="xtick_4">
     <g id="line2d_7">
      <path d="M 330.652022 390.04 
L 330.652022 10.8 
" clip-path="url(#p23f95f989a)" style="fill: none; stroke: #b0b0b0; stroke-width: 0.8; stroke-linecap: square"/>
     </g>
     <g id="line2d_8">
      <g>
       <use xlink:href="#m4063c1cfba" x="330.652022" y="390.04" style="stroke: #000000; stroke-width: 0.8"/>
      </g>
     </g>
     <g id="text_4">
      <!-- 150000 -->
      <g transform="translate(311.564522 404.638438) scale(0.1 -0.1)">
       <use xlink:href="#DejaVuSans-31"/>
       <use xlink:href="#DejaVuSans-35" transform="translate(63.623047 0)"/>
       <use xlink:href="#DejaVuSans-30" transform="translate(127.246094 0)"/>
       <use xlink:href="#DejaVuSans-30" transform="translate(190.869141 0)"/>
       <use xlink:href="#DejaVuSans-30" transform="translate(254.492188 0)"/>
       <use xlink:href="#DejaVuSans-30" transform="translate(318.115234 0)"/>
      </g>
     </g>
    </g>
    <g id="xtick_5">
     <g id="line2d_9">
      <path d="M 413.330378 390.04 
L 413.330378 10.8 
" clip-path="url(#p23f95f989a)" style="fill: none; stroke: #b0b0b0; stroke-width: 0.8; stroke-linecap: square"/>
     </g>
     <g id="line2d_10">
      <g>
       <use xlink:href="#m4063c1cfba" x="413.330378" y="390.04" style="stroke: #000000; stroke-width: 0.8"/>
      </g>
     </g>
     <g id="text_5">
      <!-- 200000 -->
      <g transform="translate(394.242878 404.638438) scale(0.1 -0.1)">
       <defs>
        <path id="DejaVuSans-32" d="M 1228 531 
L 3431 531 
L 3431 0 
L 469 0 
L 469 531 
Q 828 903 1448 1529 
Q 2069 2156 2228 2338 
Q 2531 2678 2651 2914 
Q 2772 3150 2772 3378 
Q 2772 3750 2511 3984 
Q 2250 4219 1831 4219 
Q 1534 4219 1204 4116 
Q 875 4013 500 3803 
L 500 4441 
Q 881 4594 1212 4672 
Q 1544 4750 1819 4750 
Q 2544 4750 2975 4387 
Q 3406 4025 3406 3419 
Q 3406 3131 3298 2873 
Q 3191 2616 2906 2266 
Q 2828 2175 2409 1742 
Q 1991 1309 1228 531 
z
" transform="scale(0.015625)"/>
       </defs>
       <use xlink:href="#DejaVuSans-32"/>
       <use xlink:href="#DejaVuSans-30" transform="translate(63.623047 0)"/>
       <use xlink:href="#DejaVuSans-30" transform="translate(127.246094 0)"/>
       <use xlink:href="#DejaVuSans-30" transform="translate(190.869141 0)"/>
       <use xlink:href="#DejaVuSans-30" transform="translate(254.492188 0)"/>
       <use xlink:href="#DejaVuSans-30" transform="translate(318.115234 0)"/>
      </g>
     </g>
    </g>
    <g id="xtick_6">
     <g id="line2d_11">
      <path d="M 496.008734 390.04 
L 496.008734 10.8 
" clip-path="url(#p23f95f989a)" style="fill: none; stroke: #b0b0b0; stroke-width: 0.8; stroke-linecap: square"/>
     </g>
     <g id="line2d_12">
      <g>
       <use xlink:href="#m4063c1cfba" x="496.008734" y="390.04" style="stroke: #000000; stroke-width: 0.8"/>
      </g>
     </g>
     <g id="text_6">
      <!-- 250000 -->
      <g transform="translate(476.921234 404.638438) scale(0.1 -0.1)">
       <use xlink:href="#DejaVuSans-32"/>
       <use xlink:href="#DejaVuSans-35" transform="translate(63.623047 0)"/>
       <use xlink:href="#DejaVuSans-30" transform="translate(127.246094 0)"/>
       <use xlink:href="#DejaVuSans-30" transform="translate(190.869141 0)"/>
       <use xlink:href="#DejaVuSans-30" transform="translate(254.492188 0)"/>
       <use xlink:href="#DejaVuSans-30" transform="translate(318.115234 0)"/>
      </g>
     </g>
    </g>
    <g id="xtick_7">
     <g id="line2d_13">
      <path d="M 578.687089 390.04 
L 578.687089 10.8 
" clip-path="url(#p23f95f989a)" style="fill: none; stroke: #b0b0b0; stroke-width: 0.8; stroke-linecap: square"/>
     </g>
     <g id="line2d_14">
      <g>
       <use xlink:href="#m4063c1cfba" x="578.687089" y="390.04" style="stroke: #000000; stroke-width: 0.8"/>
      </g>
     </g>
     <g id="text_7">
      <!-- 300000 -->
      <g transform="translate(559.599589 404.638438) scale(0.1 -0.1)">
       <defs>
        <path id="DejaVuSans-33" d="M 2597 2516 
Q 3050 2419 3304 2112 
Q 3559 1806 3559 1356 
Q 3559 666 3084 287 
Q 2609 -91 1734 -91 
Q 1441 -91 1130 -33 
Q 819 25 488 141 
L 488 750 
Q 750 597 1062 519 
Q 1375 441 1716 441 
Q 2309 441 2620 675 
Q 2931 909 2931 1356 
Q 2931 1769 2642 2001 
Q 2353 2234 1838 2234 
L 1294 2234 
L 1294 2753 
L 1863 2753 
Q 2328 2753 2575 2939 
Q 2822 3125 2822 3475 
Q 2822 3834 2567 4026 
Q 2313 4219 1838 4219 
Q 1578 4219 1281 4162 
Q 984 4106 628 3988 
L 628 4550 
Q 988 4650 1302 4700 
Q 1616 4750 1894 4750 
Q 2613 4750 3031 4423 
Q 3450 4097 3450 3541 
Q 3450 3153 3228 2886 
Q 3006 2619 2597 2516 
z
" transform="scale(0.015625)"/>
       </defs>
       <use xlink:href="#DejaVuSans-33"/>
       <use xlink:href="#DejaVuSans-30" transform="translate(63.623047 0)"/>
       <use xlink:href="#DejaVuSans-30" transform="translate(127.246094 0)"/>
       <use xlink:href="#DejaVuSans-30" transform="translate(190.869141 0)"/>
       <use xlink:href="#DejaVuSans-30" transform="translate(254.492188 0)"/>
       <use xlink:href="#DejaVuSans-30" transform="translate(318.115234 0)"/>
      </g>
     </g>
    </g>
    <g id="xtick_8">
     <g id="line2d_15">
      <path d="M 661.365445 390.04 
L 661.365445 10.8 
" clip-path="url(#p23f95f989a)" style="fill: none; stroke: #b0b0b0; stroke-width: 0.8; stroke-linecap: square"/>
     </g>
     <g id="line2d_16">
      <g>
       <use xlink:href="#m4063c1cfba" x="661.365445" y="390.04" style="stroke: #000000; stroke-width: 0.8"/>
      </g>
     </g>
     <g id="text_8">
      <!-- 350000 -->
      <g transform="translate(642.277945 404.638438) scale(0.1 -0.1)">
       <use xlink:href="#DejaVuSans-33"/>
       <use xlink:href="#DejaVuSans-35" transform="translate(63.623047 0)"/>
       <use xlink:href="#DejaVuSans-30" transform="translate(127.246094 0)"/>
       <use xlink:href="#DejaVuSans-30" transform="translate(190.869141 0)"/>
       <use xlink:href="#DejaVuSans-30" transform="translate(254.492188 0)"/>
       <use xlink:href="#DejaVuSans-30" transform="translate(318.115234 0)"/>
      </g>
     </g>
    </g>
    <g id="text_9">
     <!-- Steps -->
     <g transform="translate(367.620156 418.316562) scale(0.1 -0.1)">
      <defs>
       <path id="DejaVuSans-53" d="M 3425 4513 
L 3425 3897 
Q 3066 4069 2747 4153 
Q 2428 4238 2131 4238 
Q 1616 4238 1336 4038 
Q 1056 3838 1056 3469 
Q 1056 3159 1242 3001 
Q 1428 2844 1947 2747 
L 2328 2669 
Q 3034 2534 3370 2195 
Q 3706 1856 3706 1288 
Q 3706 609 3251 259 
Q 2797 -91 1919 -91 
Q 1588 -91 1214 -16 
Q 841 59 441 206 
L 441 856 
Q 825 641 1194 531 
Q 1563 422 1919 422 
Q 2459 422 2753 634 
Q 3047 847 3047 1241 
Q 3047 1584 2836 1778 
Q 2625 1972 2144 2069 
L 1759 2144 
Q 1053 2284 737 2584 
Q 422 2884 422 3419 
Q 422 4038 858 4394 
Q 1294 4750 2059 4750 
Q 2388 4750 2728 4690 
Q 3069 4631 3425 4513 
z
" transform="scale(0.015625)"/>
       <path id="DejaVuSans-74" d="M 1172 4494 
L 1172 3500 
L 2356 3500 
L 2356 3053 
L 1172 3053 
L 1172 1153 
Q 1172 725 1289 603 
Q 1406 481 1766 481 
L 2356 481 
L 2356 0 
L 1766 0 
Q 1100 0 847 248 
Q 594 497 594 1153 
L 594 3053 
L 172 3053 
L 172 3500 
L 594 3500 
L 594 4494 
L 1172 4494 
z
" transform="scale(0.015625)"/>
       <path id="DejaVuSans-65" d="M 3597 1894 
L 3597 1613 
L 953 1613 
Q 991 1019 1311 708 
Q 1631 397 2203 397 
Q 2534 397 2845 478 
Q 3156 559 3463 722 
L 3463 178 
Q 3153 47 2828 -22 
Q 2503 -91 2169 -91 
Q 1331 -91 842 396 
Q 353 884 353 1716 
Q 353 2575 817 3079 
Q 1281 3584 2069 3584 
Q 2775 3584 3186 3129 
Q 3597 2675 3597 1894 
z
M 3022 2063 
Q 3016 2534 2758 2815 
Q 2500 3097 2075 3097 
Q 1594 3097 1305 2825 
Q 1016 2553 972 2059 
L 3022 2063 
z
" transform="scale(0.015625)"/>
       <path id="DejaVuSans-70" d="M 1159 525 
L 1159 -1331 
L 581 -1331 
L 581 3500 
L 1159 3500 
L 1159 2969 
Q 1341 3281 1617 3432 
Q 1894 3584 2278 3584 
Q 2916 3584 3314 3078 
Q 3713 2572 3713 1747 
Q 3713 922 3314 415 
Q 2916 -91 2278 -91 
Q 1894 -91 1617 61 
Q 1341 213 1159 525 
z
M 3116 1747 
Q 3116 2381 2855 2742 
Q 2594 3103 2138 3103 
Q 1681 3103 1420 2742 
Q 1159 2381 1159 1747 
Q 1159 1113 1420 752 
Q 1681 391 2138 391 
Q 2594 391 2855 752 
Q 3116 1113 3116 1747 
z
" transform="scale(0.015625)"/>
       <path id="DejaVuSans-73" d="M 2834 3397 
L 2834 2853 
Q 2591 2978 2328 3040 
Q 2066 3103 1784 3103 
Q 1356 3103 1142 2972 
Q 928 2841 928 2578 
Q 928 2378 1081 2264 
Q 1234 2150 1697 2047 
L 1894 2003 
Q 2506 1872 2764 1633 
Q 3022 1394 3022 966 
Q 3022 478 2636 193 
Q 2250 -91 1575 -91 
Q 1294 -91 989 -36 
Q 684 19 347 128 
L 347 722 
Q 666 556 975 473 
Q 1284 391 1588 391 
Q 1994 391 2212 530 
Q 2431 669 2431 922 
Q 2431 1156 2273 1281 
Q 2116 1406 1581 1522 
L 1381 1569 
Q 847 1681 609 1914 
Q 372 2147 372 2553 
Q 372 3047 722 3315 
Q 1072 3584 1716 3584 
Q 2034 3584 2315 3537 
Q 2597 3491 2834 3397 
z
" transform="scale(0.015625)"/>
      </defs>
      <use xlink:href="#DejaVuSans-53"/>
      <use xlink:href="#DejaVuSans-74" transform="translate(63.476562 0)"/>
      <use xlink:href="#DejaVuSans-65" transform="translate(102.685547 0)"/>
      <use xlink:href="#DejaVuSans-70" transform="translate(164.208984 0)"/>
      <use xlink:href="#DejaVuSans-73" transform="translate(227.685547 0)"/>
     </g>
    </g>
   </g>
   <g id="matplotlib.axis_2">
    <g id="ytick_1">
     <g id="line2d_17">
      <path d="M 54.02 353.95067 
L 709.2 353.95067 
" clip-path="url(#p23f95f989a)" style="fill: none; stroke: #b0b0b0; stroke-width: 0.8; stroke-linecap: square"/>
     </g>
     <g id="line2d_18">
      <defs>
       <path id="m8f51398aa6" d="M 0 0 
L -3.5 0 
" style="stroke: #000000; stroke-width: 0.8"/>
      </defs>
      <g>
       <use xlink:href="#m8f51398aa6" x="54.02" y="353.95067" style="stroke: #000000; stroke-width: 0.8"/>
      </g>
     </g>
     <g id="text_10">
      <!-- 0.50 -->
      <g transform="translate(24.754375 357.749889) scale(0.1 -0.1)">
       <defs>
        <path id="DejaVuSans-2e" d="M 684 794 
L 1344 794 
L 1344 0 
L 684 0 
L 684 794 
z
" transform="scale(0.015625)"/>
       </defs>
       <use xlink:href="#DejaVuSans-30"/>
       <use xlink:href="#DejaVuSans-2e" transform="translate(63.623047 0)"/>
       <use xlink:href="#DejaVuSans-35" transform="translate(95.410156 0)"/>
       <use xlink:href="#DejaVuSans-30" transform="translate(159.033203 0)"/>
      </g>
     </g>
    </g>
    <g id="ytick_2">
     <g id="line2d_19">
      <path d="M 54.02 299.520042 
L 709.2 299.520042 
" clip-path="url(#p23f95f989a)" style="fill: none; stroke: #b0b0b0; stroke-width: 0.8; stroke-linecap: square"/>
     </g>
     <g id="line2d_20">
      <g>
       <use xlink:href="#m8f51398aa6" x="54.02" y="299.520042" style="stroke: #000000; stroke-width: 0.8"/>
      </g>
     </g>
     <g id="text_11">
      <!-- 0.55 -->
      <g transform="translate(24.754375 303.319261) scale(0.1 -0.1)">
       <use xlink:href="#DejaVuSans-30"/>
       <use xlink:href="#DejaVuSans-2e" transform="translate(63.623047 0)"/>
       <use xlink:href="#DejaVuSans-35" transform="translate(95.410156 0)"/>
       <use xlink:href="#DejaVuSans-35" transform="translate(159.033203 0)"/>
      </g>
     </g>
    </g>
    <g id="ytick_3">
     <g id="line2d_21">
      <path d="M 54.02 245.089414 
L 709.2 245.089414 
" clip-path="url(#p23f95f989a)" style="fill: none; stroke: #b0b0b0; stroke-width: 0.8; stroke-linecap: square"/>
     </g>
     <g id="line2d_22">
      <g>
       <use xlink:href="#m8f51398aa6" x="54.02" y="245.089414" style="stroke: #000000; stroke-width: 0.8"/>
      </g>
     </g>
     <g id="text_12">
      <!-- 0.60 -->
      <g transform="translate(24.754375 248.888633) scale(0.1 -0.1)">
       <defs>
        <path id="DejaVuSans-36" d="M 2113 2584 
Q 1688 2584 1439 2293 
Q 1191 2003 1191 1497 
Q 1191 994 1439 701 
Q 1688 409 2113 409 
Q 2538 409 2786 701 
Q 3034 994 3034 1497 
Q 3034 2003 2786 2293 
Q 2538 2584 2113 2584 
z
M 3366 4563 
L 3366 3988 
Q 3128 4100 2886 4159 
Q 2644 4219 2406 4219 
Q 1781 4219 1451 3797 
Q 1122 3375 1075 2522 
Q 1259 2794 1537 2939 
Q 1816 3084 2150 3084 
Q 2853 3084 3261 2657 
Q 3669 2231 3669 1497 
Q 3669 778 3244 343 
Q 2819 -91 2113 -91 
Q 1303 -91 875 529 
Q 447 1150 447 2328 
Q 447 3434 972 4092 
Q 1497 4750 2381 4750 
Q 2619 4750 2861 4703 
Q 3103 4656 3366 4563 
z
" transform="scale(0.015625)"/>
       </defs>
       <use xlink:href="#DejaVuSans-30"/>
       <use xlink:href="#DejaVuSans-2e" transform="translate(63.623047 0)"/>
       <use xlink:href="#DejaVuSans-36" transform="translate(95.410156 0)"/>
       <use xlink:href="#DejaVuSans-30" transform="translate(159.033203 0)"/>
      </g>
     </g>
    </g>
    <g id="ytick_4">
     <g id="line2d_23">
      <path d="M 54.02 190.658786 
L 709.2 190.658786 
" clip-path="url(#p23f95f989a)" style="fill: none; stroke: #b0b0b0; stroke-width: 0.8; stroke-linecap: square"/>
     </g>
     <g id="line2d_24">
      <g>
       <use xlink:href="#m8f51398aa6" x="54.02" y="190.658786" style="stroke: #000000; stroke-width: 0.8"/>
      </g>
     </g>
     <g id="text_13">
      <!-- 0.65 -->
      <g transform="translate(24.754375 194.458005) scale(0.1 -0.1)">
       <use xlink:href="#DejaVuSans-30"/>
       <use xlink:href="#DejaVuSans-2e" transform="translate(63.623047 0)"/>
       <use xlink:href="#DejaVuSans-36" transform="translate(95.410156 0)"/>
       <use xlink:href="#DejaVuSans-35" transform="translate(159.033203 0)"/>
      </g>
     </g>
    </g>
    <g id="ytick_5">
     <g id="line2d_25">
      <path d="M 54.02 136.228158 
L 709.2 136.228158 
" clip-path="url(#p23f95f989a)" style="fill: none; stroke: #b0b0b0; stroke-width: 0.8; stroke-linecap: square"/>
     </g>
     <g id="line2d_26">
      <g>
       <use xlink:href="#m8f51398aa6" x="54.02" y="136.228158" style="stroke: #000000; stroke-width: 0.8"/>
      </g>
     </g>
     <g id="text_14">
      <!-- 0.70 -->
      <g transform="translate(24.754375 140.027377) scale(0.1 -0.1)">
       <defs>
        <path id="DejaVuSans-37" d="M 525 4666 
L 3525 4666 
L 3525 4397 
L 1831 0 
L 1172 0 
L 2766 4134 
L 525 4134 
L 525 4666 
z
" transform="scale(0.015625)"/>
       </defs>
       <use xlink:href="#DejaVuSans-30"/>
       <use xlink:href="#DejaVuSans-2e" transform="translate(63.623047 0)"/>
       <use xlink:href="#DejaVuSans-37" transform="translate(95.410156 0)"/>
       <use xlink:href="#DejaVuSans-30" transform="translate(159.033203 0)"/>
      </g>
     </g>
    </g>
    <g id="ytick_6">
     <g id="line2d_27">
      <path d="M 54.02 81.79753 
L 709.2 81.79753 
" clip-path="url(#p23f95f989a)" style="fill: none; stroke: #b0b0b0; stroke-width: 0.8; stroke-linecap: square"/>
     </g>
     <g id="line2d_28">
      <g>
       <use xlink:href="#m8f51398aa6" x="54.02" y="81.79753" style="stroke: #000000; stroke-width: 0.8"/>
      </g>
     </g>
     <g id="text_15">
      <!-- 0.75 -->
      <g transform="translate(24.754375 85.596749) scale(0.1 -0.1)">
       <use xlink:href="#DejaVuSans-30"/>
       <use xlink:href="#DejaVuSans-2e" transform="translate(63.623047 0)"/>
       <use xlink:href="#DejaVuSans-37" transform="translate(95.410156 0)"/>
       <use xlink:href="#DejaVuSans-35" transform="translate(159.033203 0)"/>
      </g>
     </g>
    </g>
    <g id="ytick_7">
     <g id="line2d_29">
      <path d="M 54.02 27.366902 
L 709.2 27.366902 
" clip-path="url(#p23f95f989a)" style="fill: none; stroke: #b0b0b0; stroke-width: 0.8; stroke-linecap: square"/>
     </g>
     <g id="line2d_30">
      <g>
       <use xlink:href="#m8f51398aa6" x="54.02" y="27.366902" style="stroke: #000000; stroke-width: 0.8"/>
      </g>
     </g>
     <g id="text_16">
      <!-- 0.80 -->
      <g transform="translate(24.754375 31.166121) scale(0.1 -0.1)">
       <defs>
        <path id="DejaVuSans-38" d="M 2034 2216 
Q 1584 2216 1326 1975 
Q 1069 1734 1069 1313 
Q 1069 891 1326 650 
Q 1584 409 2034 409 
Q 2484 409 2743 651 
Q 3003 894 3003 1313 
Q 3003 1734 2745 1975 
Q 2488 2216 2034 2216 
z
M 1403 2484 
Q 997 2584 770 2862 
Q 544 3141 544 3541 
Q 544 4100 942 4425 
Q 1341 4750 2034 4750 
Q 2731 4750 3128 4425 
Q 3525 4100 3525 3541 
Q 3525 3141 3298 2862 
Q 3072 2584 2669 2484 
Q 3125 2378 3379 2068 
Q 3634 1759 3634 1313 
Q 3634 634 3220 271 
Q 2806 -91 2034 -91 
Q 1263 -91 848 271 
Q 434 634 434 1313 
Q 434 1759 690 2068 
Q 947 2378 1403 2484 
z
M 1172 3481 
Q 1172 3119 1398 2916 
Q 1625 2713 2034 2713 
Q 2441 2713 2670 2916 
Q 2900 3119 2900 3481 
Q 2900 3844 2670 4047 
Q 2441 4250 2034 4250 
Q 1625 4250 1398 4047 
Q 1172 3844 1172 3481 
z
" transform="scale(0.015625)"/>
       </defs>
       <use xlink:href="#DejaVuSans-30"/>
       <use xlink:href="#DejaVuSans-2e" transform="translate(63.623047 0)"/>
       <use xlink:href="#DejaVuSans-38" transform="translate(95.410156 0)"/>
       <use xlink:href="#DejaVuSans-30" transform="translate(159.033203 0)"/>
      </g>
     </g>
    </g>
    <g id="text_17">
     <!-- Accuracy -->
     <g transform="translate(18.674688 223.248125) rotate(-90) scale(0.1 -0.1)">
      <defs>
       <path id="DejaVuSans-41" d="M 2188 4044 
L 1331 1722 
L 3047 1722 
L 2188 4044 
z
M 1831 4666 
L 2547 4666 
L 4325 0 
L 3669 0 
L 3244 1197 
L 1141 1197 
L 716 0 
L 50 0 
L 1831 4666 
z
" transform="scale(0.015625)"/>
       <path id="DejaVuSans-63" d="M 3122 3366 
L 3122 2828 
Q 2878 2963 2633 3030 
Q 2388 3097 2138 3097 
Q 1578 3097 1268 2742 
Q 959 2388 959 1747 
Q 959 1106 1268 751 
Q 1578 397 2138 397 
Q 2388 397 2633 464 
Q 2878 531 3122 666 
L 3122 134 
Q 2881 22 2623 -34 
Q 2366 -91 2075 -91 
Q 1284 -91 818 406 
Q 353 903 353 1747 
Q 353 2603 823 3093 
Q 1294 3584 2113 3584 
Q 2378 3584 2631 3529 
Q 2884 3475 3122 3366 
z
" transform="scale(0.015625)"/>
       <path id="DejaVuSans-75" d="M 544 1381 
L 544 3500 
L 1119 3500 
L 1119 1403 
Q 1119 906 1312 657 
Q 1506 409 1894 409 
Q 2359 409 2629 706 
Q 2900 1003 2900 1516 
L 2900 3500 
L 3475 3500 
L 3475 0 
L 2900 0 
L 2900 538 
Q 2691 219 2414 64 
Q 2138 -91 1772 -91 
Q 1169 -91 856 284 
Q 544 659 544 1381 
z
M 1991 3584 
L 1991 3584 
z
" transform="scale(0.015625)"/>
       <path id="DejaVuSans-72" d="M 2631 2963 
Q 2534 3019 2420 3045 
Q 2306 3072 2169 3072 
Q 1681 3072 1420 2755 
Q 1159 2438 1159 1844 
L 1159 0 
L 581 0 
L 581 3500 
L 1159 3500 
L 1159 2956 
Q 1341 3275 1631 3429 
Q 1922 3584 2338 3584 
Q 2397 3584 2469 3576 
Q 2541 3569 2628 3553 
L 2631 2963 
z
" transform="scale(0.015625)"/>
       <path id="DejaVuSans-61" d="M 2194 1759 
Q 1497 1759 1228 1600 
Q 959 1441 959 1056 
Q 959 750 1161 570 
Q 1363 391 1709 391 
Q 2188 391 2477 730 
Q 2766 1069 2766 1631 
L 2766 1759 
L 2194 1759 
z
M 3341 1997 
L 3341 0 
L 2766 0 
L 2766 531 
Q 2569 213 2275 61 
Q 1981 -91 1556 -91 
Q 1019 -91 701 211 
Q 384 513 384 1019 
Q 384 1609 779 1909 
Q 1175 2209 1959 2209 
L 2766 2209 
L 2766 2266 
Q 2766 2663 2505 2880 
Q 2244 3097 1772 3097 
Q 1472 3097 1187 3025 
Q 903 2953 641 2809 
L 641 3341 
Q 956 3463 1253 3523 
Q 1550 3584 1831 3584 
Q 2591 3584 2966 3190 
Q 3341 2797 3341 1997 
z
" transform="scale(0.015625)"/>
       <path id="DejaVuSans-79" d="M 2059 -325 
Q 1816 -950 1584 -1140 
Q 1353 -1331 966 -1331 
L 506 -1331 
L 506 -850 
L 844 -850 
Q 1081 -850 1212 -737 
Q 1344 -625 1503 -206 
L 1606 56 
L 191 3500 
L 800 3500 
L 1894 763 
L 2988 3500 
L 3597 3500 
L 2059 -325 
z
" transform="scale(0.015625)"/>
      </defs>
      <use xlink:href="#DejaVuSans-41"/>
      <use xlink:href="#DejaVuSans-63" transform="translate(66.658203 0)"/>
      <use xlink:href="#DejaVuSans-63" transform="translate(121.638672 0)"/>
      <use xlink:href="#DejaVuSans-75" transform="translate(176.619141 0)"/>
      <use xlink:href="#DejaVuSans-72" transform="translate(239.998047 0)"/>
      <use xlink:href="#DejaVuSans-61" transform="translate(281.111328 0)"/>
      <use xlink:href="#DejaVuSans-63" transform="translate(342.390625 0)"/>
      <use xlink:href="#DejaVuSans-79" transform="translate(397.371094 0)"/>
     </g>
    </g>
   </g>
   <g id="line2d_31">
    <path d="M 83.800909 303.182347 
L 86.107635 296.546513 
L 88.490425 294.110575 
L 90.936051 290.028278 
L 93.345298 293.942579 
L 95.724782 293.589787 
L 98.109225 298.26007 
L 100.59619 296.546512 
L 103.064966 301.048798 
L 105.269171 308.407012 
L 107.574243 305.971076 
L 109.851205 306.592659 
L 112.05541 302.291969 
L 114.195126 306.811055 
L 116.48201 306.995849 
L 118.677947 312.741304 
L 120.763095 315.412436 
L 122.878007 315.328439 
L 124.768034 316.067619 
L 126.654754 310.389362 
L 128.438953 312.42211 
L 130.226459 312.690904 
L 132.040423 314.051669 
L 133.832889 314.051669 
L 135.590631 310.137367 
L 137.366562 301.586383 
L 139.159029 295.656134 
L 141.103624 280.385319 
L 143.021762 263.518544 
L 144.926671 254.933961 
L 146.972134 237.731195 
L 148.954761 229.499402 
L 150.962191 218.932469 
L 152.979543 209.608704 
L 154.919177 210.818273 
L 156.961333 213.203814 
L 158.905927 213.707802 
L 160.848869 222.325986 
L 162.826535 225.803498 
L 164.721523 231.246562 
L 166.585093 219.587657 
L 168.456931 222.24199 
L 170.242784 215.404565 
L 172.045172 201.477716 
L 173.835985 181.015833 
L 175.621837 176.160755 
L 177.447375 173.792015 
L 179.19685 182.998182 
L 181.01908 202.468889 
L 182.821469 211.94385 
L 184.580864 224.17394 
L 186.351834 234.556077 
L 188.164144 232.086538 
L 190.032675 238.856765 
L 191.921048 242.031885 
L 193.746587 232.170535 
L 195.778821 228.592226 
L 197.768062 223.501953 
L 199.796989 221.116414 
L 201.868908 217.487705 
L 203.949096 221.486002 
L 206.080544 216.714923 
L 208.337663 215.303759 
L 210.51045 212.347033 
L 212.760955 207.071968 
L 214.923821 206.819975 
L 217.076765 199.948949 
L 219.198292 197.076224 
L 221.151154 195.66506 
L 223.165199 187.550866 
L 225.29334 185.333322 
L 227.423134 186.794884 
L 229.51655 189.869206 
L 231.558706 185.635715 
L 233.602515 186.660488 
L 235.651284 186.727686 
L 237.838954 181.721415 
L 240.000166 176.244753 
L 242.090275 181.452622 
L 244.203533 174.850389 
L 246.298603 178.865488 
L 248.339105 178.563095 
L 250.386221 170.835291 
L 252.575544 171.120884 
L 254.824395 169.659321 
L 257.1212 173.422425 
L 259.464304 176.74874 
L 261.787566 171.490474 
L 264.168703 168.684946 
L 266.607714 170.381703 
L 269.035151 166.887392 
L 271.507234 176.866336 
L 274.000813 181.150227 
L 276.535731 174.3632 
L 279.021043 170.801691 
L 281.38399 183.636564 
L 283.636148 179.016682 
L 285.916418 172.968836 
L 288.277711 168.735344 
L 290.589398 169.894515 
L 292.811792 167.055387 
L 294.896941 166.047412 
L 297.003585 165.677822 
L 299.235901 168.684946 
L 301.416956 167.172984 
L 303.563286 173.708017 
L 305.727805 170.919288 
L 307.827835 173.691218 
L 309.972512 167.34098 
L 312.120496 166.417003 
L 314.200683 164.58585 
L 316.237878 166.299406 
L 318.344522 165.37543 
L 320.580145 165.929816 
L 322.857107 164.686648 
L 325.258086 165.123437 
L 327.728516 163.729072 
L 330.232016 165.980214 
L 332.780163 166.131411 
L 335.272089 177.403922 
L 337.777243 189.382016 
L 340.285704 178.159903 
L 342.837158 171.64167 
L 345.391919 180.394249 
L 347.91857 179.99106 
L 350.407189 177.286328 
L 355.539861 168.483352 
L 358.124386 165.442629 
L 360.713872 164.283458 
L 363.366194 163.561076 
L 366.031744 165.190635 
L 368.730366 163.477079 
L 371.470326 161.477929 
L 374.203673 162.082714 
L 376.999855 166.131411 
L 379.971315 162.351507 
L 383.177582 166.652198 
L 386.474794 178.731092 
L 389.762086 188.743638 
L 392.974967 176.211155 
L 395.98942 168.483352 
L 398.898044 164.888243 
L 402.064625 163.594676 
L 405.292388 162.973091 
L 408.344873 162.687499 
L 410.873177 162.805096 
L 413.36841 162.452305 
L 415.666868 160.856345 
L 417.895877 161.377132 
L 420.200949 162.553102 
L 422.712718 160.856345 
L 425.494018 161.108339 
L 428.465478 161.141938 
L 431.524577 161.797121 
L 434.689504 159.797972 
L 437.872621 161.326733 
L 441.049124 161.07474 
L 444.298383 161.645925 
L 447.53276 165.123437 
L 450.773752 163.258685 
L 453.847733 160.973942 
L 456.865493 160.957143 
L 459.975853 161.528328 
L 463.069677 161.209136 
L 469.396225 163.813071 
L 472.552884 161.393932 
L 475.691355 163.409881 
L 478.796754 162.385107 
L 481.592936 163.611475 
L 484.175807 163.107488 
L 486.854586 164.21626 
L 489.794628 164.770646 
L 492.904988 163.208286 
L 496.03023 160.889944 
L 499.044683 159.545978 
L 501.784644 160.520354 
L 504.493187 161.326733 
L 507.216612 161.242735 
L 510.064054 159.88197 
L 512.524562 159.529179 
L 514.654356 160.570752 
L 516.595644 161.007541 
L 518.441025 160.738748 
L 520.251681 159.848371 
L 522.254151 163.141087 
L 524.579066 160.234761 
L 527.099103 160.957143 
L 529.534807 159.327584 
L 532.215239 159.613177 
L 535.229692 161.041141 
L 538.417769 160.889944 
L 541.675297 160.100364 
L 544.917942 161.074739 
L 548.086176 161.360332 
L 551.242836 159.797972 
L 557.645448 160.822746 
L 560.869904 203.812861 
L 564.087745 188.710042 
L 567.34858 171.843267 
L 570.27374 161.981917 
L 573.013701 161.42753 
L 575.912404 161.746723 
L 578.852446 161.276334 
L 581.875167 162.015516 
L 584.735838 161.242735 
L 587.475799 160.016366 
L 590.101663 165.610624 
L 592.78871 164.921842 
L 595.583238 161.797121 
L 598.460445 160.705149 
L 601.307888 161.276334 
L 604.190055 160.957143 
L 606.948205 160.049966 
L 609.393831 162.401906 
L 611.816307 161.091539 
L 614.098229 165.123437 
L 616.309048 161.679524 
L 618.521521 160.805946 
L 620.91754 160.352358 
L 623.361512 160.28516 
L 625.898084 161.965117 
L 628.547099 159.293985 
L 631.283752 170.415303 
L 633.843474 185.837311 
L 636.616506 194.354695 
L 639.511902 205.072823 
L 642.427141 203.376066 
L 645.340726 207.609559 
L 648.270847 203.980851 
L 651.247268 196.353844 
L 654.160853 189.734813 
L 656.973571 211.137474 
L 659.214154 235.664854 
L 661.687891 248.398932 
L 664.575019 245.475805 
L 667.399312 236.90802 
L 670.365811 213.287816 
L 673.287664 192.523542 
L 676.196289 181.973409 
L 679.068535 169.35693 
L 679.068535 169.35693 
" clip-path="url(#p23f95f989a)" style="fill: none; stroke: #1f77b4; stroke-width: 1.5; stroke-linecap: square"/>
   </g>
   <g id="line2d_32">
    <path d="M 83.911698 297.722484 
L 86.473074 293.371394 
L 89.074135 287.726737 
L 91.776063 283.442845 
L 94.425078 278.688564 
L 97.169999 290.666661 
L 99.823974 288.667511 
L 102.550707 292.464214 
L 105.203028 295.286544 
L 107.888421 295.488137 
L 110.517593 303.400738 
L 113.102118 298.159272 
L 115.519633 316.370011 
L 118.042977 317.310788 
L 120.389389 320.620304 
L 122.68454 323.308237 
L 124.971423 318.167565 
L 127.089643 310.893349 
L 129.295501 309.532583 
L 131.514588 301.183194 
L 133.725407 303.232742 
L 135.67827 295.622533 
L 137.639401 307.029446 
L 139.673288 305.68548 
L 141.579851 294.429763 
L 143.62366 288.398715 
L 145.712115 297.873676 
L 147.81876 296.512911 
L 150.128793 298.478461 
L 152.362762 296.916101 
L 154.661221 287.155549 
L 156.943143 293.068998 
L 161.579745 276.689411 
L 163.881511 275.463042 
L 166.201466 255.841137 
L 168.488349 255.001159 
L 170.890982 243.913436 
L 173.242354 255.74034 
L 175.663177 238.974364 
L 178.016203 232.288134 
L 180.531278 231.68335 
L 182.960368 240.099937 
L 185.493633 228.945019 
L 188.13934 233.581702 
L 190.770166 239.142363 
L 193.415873 255.337153 
L 196.076463 244.988614 
L 198.656027 251.84284 
L 201.268663 247.021361 
L 203.730825 231.330556 
L 206.374879 233.195309 
L 209.007357 223.552352 
L 211.512512 221.402007 
L 214.068926 201.343312 
L 216.795659 190.641982 
L 219.568691 174.245596 
L 222.475662 178.596686 
L 225.349561 178.428691 
L 228.289604 177.67271 
L 231.277599 166.719385 
L 234.320163 160.117152 
L 237.329655 182.477389 
L 240.277965 185.014125 
L 243.19155 172.263246 
L 246.189468 167.172976 
L 249.202267 171.221673 
L 252.24483 177.924703 
L 255.403144 193.195519 
L 258.58626 184.426141 
L 261.772684 202.015298 
L 264.871469 190.944377 
L 267.985136 179.016677 
L 271.10707 158.924384 
L 274.243887 145.770315 
L 277.367476 161.763511 
L 280.429882 157.378821 
L 283.593156 142.124807 
L 286.726665 129.945113 
L 289.782457 139.18488 
L 292.69935 137.908112 
L 295.356632 134.665793 
L 297.90974 139.15128 
L 300.231348 135.606569 
L 302.457049 133.758615 
L 304.626529 132.599443 
L 306.647188 131.322674 
L 308.66454 128.281951 
L 310.738113 125.812414 
L 312.879483 127.52597 
L 315.040695 126.232403 
L 317.276318 122.301302 
L 319.564855 117.782216 
L 321.851738 121.881313 
L 324.132007 119.176581 
L 326.443694 118.907788 
L 331.037303 119.126182 
L 333.385369 122.906087 
L 336.024462 120.671743 
L 338.656941 123.56127 
L 341.373751 132.28025 
L 343.916938 136.765736 
L 346.40721 142.779985 
L 348.963624 140.461643 
L 351.700278 130.600292 
L 354.499767 126.803588 
L 357.27776 121.276528 
L 359.964806 117.395826 
L 362.541064 116.891839 
L 365.013147 117.177431 
L 367.390976 120.974136 
L 369.740695 118.118208 
L 372.103643 117.496623 
L 374.473204 114.775092 
L 376.801427 114.556697 
L 379.295006 115.732668 
L 381.796853 120.705342 
L 384.18295 126.098006 
L 386.711255 125.174029 
L 389.227984 126.618793 
L 391.880305 121.360526 
L 394.57562 118.672593 
L 397.176681 122.906087 
L 399.819081 120.486948 
L 402.435024 116.404651 
L 405.178292 118.336602 
L 407.936442 117.950212 
L 410.689631 120.520547 
L 413.442821 117.933412 
L 416.136481 116.522248 
L 418.922742 115.732668 
L 421.869399 117.63102 
L 424.782984 114.724693 
L 427.732948 115.900663 
L 430.902836 117.933412 
L 434.072724 121.209328 
L 437.077255 128.500344 
L 440.119819 127.761164 
L 443.321125 141.436018 
L 446.507549 121.662918 
L 449.814683 117.61422 
L 453.146621 116.068659 
L 456.51163 114.84229 
L 459.952703 119.932562 
L 463.281333 117.21103 
L 466.436339 131.137878 
L 469.146536 141.620813 
L 471.590508 157.160421 
L 473.918731 163.729055 
L 475.80049 170.398486 
L 477.652485 174.732777 
L 479.521016 172.162442 
L 481.609471 158.857178 
L 483.67643 156.320442 
L 486.203081 141.906406 
L 489.366355 126.030807 
L 493.333262 118.672593 
L 497.361352 115.463874 
L 500.855339 124.233252 
L 504.307987 117.463024 
L 507.904496 128.869936 
L 511.02643 149.31502 
L 514.236004 125.291627 
L 517.764716 118.084608 
L 521.4191 120.167755 
L 524.84033 116.03506 
L 528.455028 116.219855 
L 532.154057 116.555847 
L 535.512452 123.275678 
L 538.650922 123.19168 
L 542.080421 113.951913 
L 545.822443 115.581471 
L 550.070457 117.22783 
L 554.358156 116.102258 
L 558.688849 114.724693 
L 562.784734 115.295879 
L 567.151805 115.547872 
L 571.614783 114.556697 
L 576.077761 116.42145 
L 580.62507 116.42145 
L 584.978912 119.378176 
L 589.455118 117.479823 
L 593.732897 121.209328 
L 597.896579 142.595191 
L 604.330608 118.470998 
L 607.361597 120.80614 
L 610.476917 123.863663 
L 613.845233 130.583493 
L 617.230085 125.728415 
L 620.887776 122.334901 
L 624.838148 125.795614 
L 628.102289 139.940855 
L 630.881935 128.584342 
L 633.714496 124.098856 
L 636.54871 125.006032 
L 639.255599 120.772539 
L 641.81036 116.992636 
L 644.437879 117.59742 
L 647.081932 118.03421 
L 649.740868 117.127033 
L 652.39319 112.591147 
L 655.022362 119.075783 
L 657.648226 123.393274 
L 660.24598 115.24548 
L 662.822238 127.727564 
L 665.431567 119.495772 
L 668.126881 119.495772 
L 670.878417 116.723842 
L 673.658063 126.098005 
L 676.507159 122.032508 
L 679.419091 120.974134 
L 679.419091 120.974134 
" clip-path="url(#p23f95f989a)" style="fill: none; stroke: #ff7f0e; stroke-width: 1.5; stroke-linecap: square"/>
   </g>
   <g id="line2d_33">
    <path d="M 84.027448 296.210523 
L 86.75418 285.089202 
L 89.474298 283.375645 
L 92.379615 276.840611 
L 95.255168 278.722162 
L 98.347339 280.368521 
L 101.403131 285.559589 
L 104.430812 288.68431 
L 107.407233 288.314719 
L 110.271211 289.037101 
L 112.822666 293.388191 
L 115.365852 299.032849 
L 117.75691 306.239866 
L 120.124818 319.19234 
L 122.256266 312.942896 
L 124.604331 316.286013 
L 126.745701 309.314188 
L 128.938331 312.959696 
L 131.059857 319.914721 
L 133.083823 305.668681 
L 135.051568 312.354911 
L 137.176402 308.927798 
L 139.317771 296.277718 
L 141.583158 283.963629 
L 143.752638 290.481864 
L 146.269368 289.759482 
L 148.582708 285.576387 
L 151.236683 279.780536 
L 153.92869 260.326627 
L 156.587626 259.520248 
L 159.274673 246.651773 
L 161.859198 245.845395 
L 167.378805 258.461876 
L 170.108845 265.265703 
L 172.738016 265.551295 
L 175.443252 254.29558 
L 178.064156 254.026786 
L 180.580885 252.195632 
L 183.110843 260.813815 
L 185.665604 262.056983 
L 188.131073 255.387553 
L 190.580006 255.673146 
L 192.995867 248.499727 
L 195.431571 248.046137 
L 197.845779 261.552996 
L 200.218648 260.96501 
L 202.56506 256.781914 
L 205.037143 257.890685 
L 207.421587 250.801264 
L 209.92178 239.007961 
L 212.383941 239.243156 
L 214.864292 228.021038 
L 217.549685 224.711521 
L 222.986614 211.624651 
L 225.794371 209.6759 
L 228.73772 203.913643 
L 231.84808 213.808593 
L 235.013007 208.567124 
L 238.192817 208.079936 
L 241.248609 205.12321 
L 244.387079 202.418478 
L 247.733899 203.443252 
L 251.031112 204.216032 
L 254.411003 200.31853 
L 257.678452 205.677595 
L 261.076532 202.401678 
L 264.277838 202.38488 
L 267.222841 205.425603 
L 270.174459 207.004763 
L 273.164108 205.291207 
L 276.195096 203.930442 
L 279.179785 197.445805 
L 282.276916 200.570528 
L 285.170659 204.753624 
L 288.089205 210.935868 
L 290.963104 220.662823 
L 293.805586 217.218911 
L 296.691061 200.570532 
L 299.776617 206.131192 
L 302.968002 194.858679 
L 306.225529 176.64794 
L 309.46156 176.530343 
L 312.763733 176.899934 
L 316.098978 176.664741 
L 319.538398 190.977979 
L 322.969549 202.687281 
L 326.453615 177.807105 
L 329.992249 180.864628 
L 333.671436 168.315344 
L 337.542436 165.207422 
L 341.50769 163.241873 
L 345.434912 159.680364 
L 349.706076 165.96341 
L 354.147557 176.227956 
L 358.410453 193.682716 
L 362.567521 199.024981 
L 366.674982 239.226364 
L 370.711339 251.490055 
L 374.580686 271.380751 
L 378.418615 265.702493 
L 382.301191 252.010837 
L 386.089513 246.231782 
L 389.783582 260.125032 
L 393.385051 266.021683 
L 397.280856 280.334922 
L 401.272567 267.68484 
L 405.168371 258.344276 
L 409.014568 243.745444 
L 412.668951 253.321202 
L 415.901675 239.747144 
L 419.527948 233.648899 
L 423.226977 228.928221 
L 426.959078 220.713232 
L 430.911104 225.786705 
L 434.937539 233.296116 
L 438.859801 217.370119 
L 442.694423 220.209247 
L 446.454634 229.869003 
L 450.125553 223.149173 
L 453.798126 212.817434 
L 457.57322 218.193298 
L 461.378078 169.104936 
L 465.381364 145.854322 
L 469.249057 179.335875 
L 472.827376 164.468251 
L 476.323017 142.981594 
L 480.008818 139.033693 
L 483.502806 132.918649 
L 487.46806 126.904401 
L 491.368824 126.484411 
L 495.195179 131.490685 
L 498.624677 151.750972 
L 501.845826 146.879095 
L 505.650684 132.901849 
L 509.652316 136.967345 
L 513.880487 146.543101 
L 518.116926 167.559367 
L 522.111944 200.150543 
L 525.887038 221.267609 
L 529.681974 215.085368 
L 533.653843 226.475479 
L 537.683586 258.881863 
L 541.886953 259.77224 
L 546.230874 265.416898 
L 550.624402 257.3699 
L 554.92533 266.508869 
L 559.452797 261.737789 
L 564.274598 247.575745 
L 569.129471 248.886112 
L 574.098441 239.175956 
L 578.893785 246.987761 
L 583.824722 248.583721 
L 588.669674 252.565221 
L 593.511319 246.870163 
L 598.053667 262.661765 
L 602.278531 274.035078 
L 606.652216 283.627639 
L 611.22433 277.697388 
L 615.599668 265.332898 
L 619.885714 220.091637 
L 624.50082 197.916193 
L 629.058051 178.899073 
L 633.633471 146.593483 
L 638.438737 135.472164 
L 643.182821 128.214748 
L 647.768163 137.605713 
L 652.282401 133.842606 
L 656.973571 144.527134 
L 661.487809 140.562436 
L 666.266618 149.449414 
L 671.18598 139.873657 
L 676.01605 137.118529 
L 676.01605 137.118529 
" clip-path="url(#p23f95f989a)" style="fill: none; stroke: #2ca02c; stroke-width: 1.5; stroke-linecap: square"/>
   </g>
   <g id="line2d_34">
    <path d="M 84.085323 291.926631 
L 86.855048 282.518867 
L 89.806665 281.107702 
L 92.897182 284.350022 
L 99.276644 273.027106 
L 102.646613 275.98383 
L 105.636263 289.557888 
L 108.845837 277.882183 
L 111.863597 285.357994 
L 114.926003 291.187447 
L 118.112427 290.817853 
L 121.212865 292.363416 
L 124.260389 298.932051 
L 127.218621 296.008924 
L 130.082599 306.458261 
L 132.913506 304.123119 
L 135.803941 305.987873 
L 138.588548 298.192869 
L 141.216066 304.072721 
L 143.875002 303.115145 
L 146.494253 307.802227 
L 148.771215 304.9127 
L 151.124241 305.248691 
L 153.426006 304.459111 
L 155.937774 294.060173 
L 158.659546 307.012647 
L 161.186196 299.452838 
L 163.676469 311.330139 
L 166.209733 307.903025 
L 168.792605 304.12312 
L 171.504455 303.367139 
L 174.161738 308.155019 
L 176.784295 299.872826 
L 179.583784 297.991273 
L 182.307209 294.765755 
L 184.883467 295.773729 
L 187.484528 285.945977 
L 190.011178 286.752356 
L 192.603972 287.844328 
L 195.132276 283.846029 
L 197.629162 283.342042 
L 200.02022 288.516312 
L 202.341828 292.682607 
L 204.807297 283.291644 
L 207.14048 282.754057 
L 209.399253 284.333218 
L 211.758893 267.449644 
L 214.077194 275.076651 
L 216.319431 268.894407 
L 218.672457 261.300999 
L 220.952726 258.176278 
L 223.22142 275.194249 
L 225.372711 266.189676 
L 227.550459 255.387549 
L 229.812539 250.851662 
L 232.132494 238.403178 
L 234.44418 237.529601 
L 236.893113 225.215512 
L 239.428032 227.130663 
L 241.981139 220.646027 
L 244.55905 205.812 
L 247.087355 196.841025 
L 249.633848 204.350433 
L 252.044749 202.334481 
L 254.311789 206.920765 
L 256.696233 189.801994 
L 259.287373 190.32278 
L 261.850402 183.468551 
L 264.496109 182.561373 
L 267.131895 184.392527 
L 269.650278 180.226231 
L 272.35386 167.374555 
L 275.128546 175.287155 
L 277.845356 174.363179 
L 280.510907 163.661849 
L 283.282285 155.362858 
L 286.02886 161.595502 
L 288.659685 156.706825 
L 291.341771 149.567006 
L 294.214017 140.377637 
L 297.114374 149.180615 
L 300.104023 135.85855 
L 303.141626 147.114268 
L 306.09159 133.758605 
L 309.147382 134.665783 
L 312.137031 137.874502 
L 315.240777 138.042499 
L 318.301529 143.972752 
L 321.410236 148.844629 
L 324.566895 155.547663 
L 327.897179 138.395295 
L 330.814072 165.207422 
L 333.525922 145.78711 
L 336.798331 127.189978 
L 340.284051 111.196781 
L 343.619296 115.043885 
L 347.009108 105.01454 
L 350.283171 102.27621 
L 353.582037 103.636977 
L 356.783343 100.529055 
L 360.019374 98.009118 
L 363.238869 110.104812 
L 366.512932 106.593699 
L 369.861406 120.822938 
L 373.434764 130.583491 
L 377.257811 115.312677 
L 380.920463 109.970413 
L 384.485553 115.111085 
L 388.022533 127.173181 
L 391.567781 139.991258 
L 395.159329 138.176904 
L 398.74757 146.761485 
L 402.324235 148.071849 
L 406.008383 153.313315 
L 409.735523 149.281415 
L 416.981454 160.133938 
L 420.548198 169.004115 
L 424.0951 161.6291 
L 427.751137 173.439203 
L 431.288117 183.014963 
L 434.881318 158.840371 
L 438.585309 163.241861 
L 442.223156 159.68035 
L 445.90565 149.802199 
L 449.553419 151.666953 
L 453.184653 151.045368 
L 456.784468 163.678649 
L 460.124674 170.028889 
L 463.544251 151.129365 
L 467.226744 157.026016 
L 470.626478 174.531175 
L 474.280862 160.251536 
L 477.915402 152.490132 
L 481.518525 153.363711 
L 485.037316 150.020595 
L 488.395711 149.079818 
L 491.924423 155.547654 
L 495.507703 155.799647 
L 499.052951 149.466207 
L 502.712295 151.66695 
L 506.320378 161.209109 
L 509.911926 155.598051 
L 513.670484 148.609427 
L 517.455499 145.938294 
L 521.559653 143.871947 
L 525.776249 137.7905 
L 529.95812 150.255786 
L 533.956445 153.430906 
L 537.819178 147.450259 
L 541.64884 137.370515 
L 545.341255 111.952759 
L 549.127924 109.567219 
L 552.85341 101.688213 
L 556.41354 91.625263 
L 559.841385 96.732336 
L 563.262615 95.757962 
L 566.566442 145.551907 
L 569.189 204.333628 
L 572.008332 126.853979 
L 575.470901 96.933932 
L 579.153395 97.992305 
L 583.07731 98.2275 
L 587.04091 90.818884 
L 590.997897 87.710961 
L 594.854015 88.298945 
L 598.830844 87.274172 
L 602.858934 89.542115 
L 606.868834 86.165399 
L 614.400832 86.467791 
L 617.583949 87.996553 
L 620.854704 84.804633 
L 624.123807 91.037277 
L 627.417712 85.779009 
L 630.738075 86.669386 
L 634.11962 91.054076 
L 637.309351 89.138924 
L 640.451128 86.568589 
L 643.78968 86.820582 
L 647.346503 85.107026 
L 651.184432 86.53499 
L 655.025669 84.468642 
L 658.823912 89.978904 
L 662.689952 92.14605 
L 670.78251 85.779009 
L 675.104934 94.078003 
L 679.286806 97.757114 
L 679.286806 97.757114 
" clip-path="url(#p23f95f989a)" style="fill: none; stroke: #d62728; stroke-width: 1.5; stroke-linecap: square"/>
   </g>
   <g id="patch_3">
    <path d="M 54.02 390.04 
L 54.02 10.8 
" style="fill: none; stroke: #000000; stroke-width: 0.8; stroke-linejoin: miter; stroke-linecap: square"/>
   </g>
   <g id="patch_4">
    <path d="M 709.2 390.04 
L 709.2 10.8 
" style="fill: none; stroke: #000000; stroke-width: 0.8; stroke-linejoin: miter; stroke-linecap: square"/>
   </g>
   <g id="patch_5">
    <path d="M 54.02 390.04 
L 709.2 390.04 
" style="fill: none; stroke: #000000; stroke-width: 0.8; stroke-linejoin: miter; stroke-linecap: square"/>
   </g>
   <g id="patch_6">
    <path d="M 54.02 10.8 
L 709.2 10.8 
" style="fill: none; stroke: #000000; stroke-width: 0.8; stroke-linejoin: miter; stroke-linecap: square"/>
   </g>
   <g id="legend_1">
    <g id="patch_7">
     <path d="M 608.528125 385.04 
L 702.2 385.04 
Q 704.2 385.04 704.2 383.04 
L 704.2 310.649375 
Q 704.2 308.649375 702.2 308.649375 
L 608.528125 308.649375 
Q 606.528125 308.649375 606.528125 310.649375 
L 606.528125 383.04 
Q 606.528125 385.04 608.528125 385.04 
z
" style="fill: #ffffff; opacity: 0.8; stroke: #cccccc; stroke-linejoin: miter"/>
    </g>
    <g id="text_18">
     <!-- Max Circuit Depth -->
     <g transform="translate(610.528125 320.247813) scale(0.1 -0.1)">
      <defs>
       <path id="DejaVuSans-4d" d="M 628 4666 
L 1569 4666 
L 2759 1491 
L 3956 4666 
L 4897 4666 
L 4897 0 
L 4281 0 
L 4281 4097 
L 3078 897 
L 2444 897 
L 1241 4097 
L 1241 0 
L 628 0 
L 628 4666 
z
" transform="scale(0.015625)"/>
       <path id="DejaVuSans-78" d="M 3513 3500 
L 2247 1797 
L 3578 0 
L 2900 0 
L 1881 1375 
L 863 0 
L 184 0 
L 1544 1831 
L 300 3500 
L 978 3500 
L 1906 2253 
L 2834 3500 
L 3513 3500 
z
" transform="scale(0.015625)"/>
       <path id="DejaVuSans-20" transform="scale(0.015625)"/>
       <path id="DejaVuSans-43" d="M 4122 4306 
L 4122 3641 
Q 3803 3938 3442 4084 
Q 3081 4231 2675 4231 
Q 1875 4231 1450 3742 
Q 1025 3253 1025 2328 
Q 1025 1406 1450 917 
Q 1875 428 2675 428 
Q 3081 428 3442 575 
Q 3803 722 4122 1019 
L 4122 359 
Q 3791 134 3420 21 
Q 3050 -91 2638 -91 
Q 1578 -91 968 557 
Q 359 1206 359 2328 
Q 359 3453 968 4101 
Q 1578 4750 2638 4750 
Q 3056 4750 3426 4639 
Q 3797 4528 4122 4306 
z
" transform="scale(0.015625)"/>
       <path id="DejaVuSans-69" d="M 603 3500 
L 1178 3500 
L 1178 0 
L 603 0 
L 603 3500 
z
M 603 4863 
L 1178 4863 
L 1178 4134 
L 603 4134 
L 603 4863 
z
" transform="scale(0.015625)"/>
       <path id="DejaVuSans-44" d="M 1259 4147 
L 1259 519 
L 2022 519 
Q 2988 519 3436 956 
Q 3884 1394 3884 2338 
Q 3884 3275 3436 3711 
Q 2988 4147 2022 4147 
L 1259 4147 
z
M 628 4666 
L 1925 4666 
Q 3281 4666 3915 4102 
Q 4550 3538 4550 2338 
Q 4550 1131 3912 565 
Q 3275 0 1925 0 
L 628 0 
L 628 4666 
z
" transform="scale(0.015625)"/>
       <path id="DejaVuSans-68" d="M 3513 2113 
L 3513 0 
L 2938 0 
L 2938 2094 
Q 2938 2591 2744 2837 
Q 2550 3084 2163 3084 
Q 1697 3084 1428 2787 
Q 1159 2491 1159 1978 
L 1159 0 
L 581 0 
L 581 4863 
L 1159 4863 
L 1159 2956 
Q 1366 3272 1645 3428 
Q 1925 3584 2291 3584 
Q 2894 3584 3203 3211 
Q 3513 2838 3513 2113 
z
" transform="scale(0.015625)"/>
      </defs>
      <use xlink:href="#DejaVuSans-4d"/>
      <use xlink:href="#DejaVuSans-61" transform="translate(86.279297 0)"/>
      <use xlink:href="#DejaVuSans-78" transform="translate(147.558594 0)"/>
      <use xlink:href="#DejaVuSans-20" transform="translate(206.738281 0)"/>
      <use xlink:href="#DejaVuSans-43" transform="translate(238.525391 0)"/>
      <use xlink:href="#DejaVuSans-69" transform="translate(308.349609 0)"/>
      <use xlink:href="#DejaVuSans-72" transform="translate(336.132812 0)"/>
      <use xlink:href="#DejaVuSans-63" transform="translate(374.996094 0)"/>
      <use xlink:href="#DejaVuSans-75" transform="translate(429.976562 0)"/>
      <use xlink:href="#DejaVuSans-69" transform="translate(493.355469 0)"/>
      <use xlink:href="#DejaVuSans-74" transform="translate(521.138672 0)"/>
      <use xlink:href="#DejaVuSans-20" transform="translate(560.347656 0)"/>
      <use xlink:href="#DejaVuSans-44" transform="translate(592.134766 0)"/>
      <use xlink:href="#DejaVuSans-65" transform="translate(669.136719 0)"/>
      <use xlink:href="#DejaVuSans-70" transform="translate(730.660156 0)"/>
      <use xlink:href="#DejaVuSans-74" transform="translate(794.136719 0)"/>
      <use xlink:href="#DejaVuSans-68" transform="translate(833.345703 0)"/>
     </g>
    </g>
    <g id="line2d_35">
     <path d="M 622.726562 331.425937 
L 632.726562 331.425937 
L 642.726562 331.425937 
" style="fill: none; stroke: #1f77b4; stroke-width: 1.5; stroke-linecap: square"/>
    </g>
    <g id="text_19">
     <!-- 4 (PPO) -->
     <g transform="translate(650.726562 334.925937) scale(0.1 -0.1)">
      <defs>
       <path id="DejaVuSans-34" d="M 2419 4116 
L 825 1625 
L 2419 1625 
L 2419 4116 
z
M 2253 4666 
L 3047 4666 
L 3047 1625 
L 3713 1625 
L 3713 1100 
L 3047 1100 
L 3047 0 
L 2419 0 
L 2419 1100 
L 313 1100 
L 313 1709 
L 2253 4666 
z
" transform="scale(0.015625)"/>
       <path id="DejaVuSans-28" d="M 1984 4856 
Q 1566 4138 1362 3434 
Q 1159 2731 1159 2009 
Q 1159 1288 1364 580 
Q 1569 -128 1984 -844 
L 1484 -844 
Q 1016 -109 783 600 
Q 550 1309 550 2009 
Q 550 2706 781 3412 
Q 1013 4119 1484 4856 
L 1984 4856 
z
" transform="scale(0.015625)"/>
       <path id="DejaVuSans-50" d="M 1259 4147 
L 1259 2394 
L 2053 2394 
Q 2494 2394 2734 2622 
Q 2975 2850 2975 3272 
Q 2975 3691 2734 3919 
Q 2494 4147 2053 4147 
L 1259 4147 
z
M 628 4666 
L 2053 4666 
Q 2838 4666 3239 4311 
Q 3641 3956 3641 3272 
Q 3641 2581 3239 2228 
Q 2838 1875 2053 1875 
L 1259 1875 
L 1259 0 
L 628 0 
L 628 4666 
z
" transform="scale(0.015625)"/>
       <path id="DejaVuSans-4f" d="M 2522 4238 
Q 1834 4238 1429 3725 
Q 1025 3213 1025 2328 
Q 1025 1447 1429 934 
Q 1834 422 2522 422 
Q 3209 422 3611 934 
Q 4013 1447 4013 2328 
Q 4013 3213 3611 3725 
Q 3209 4238 2522 4238 
z
M 2522 4750 
Q 3503 4750 4090 4092 
Q 4678 3434 4678 2328 
Q 4678 1225 4090 567 
Q 3503 -91 2522 -91 
Q 1538 -91 948 565 
Q 359 1222 359 2328 
Q 359 3434 948 4092 
Q 1538 4750 2522 4750 
z
" transform="scale(0.015625)"/>
       <path id="DejaVuSans-29" d="M 513 4856 
L 1013 4856 
Q 1481 4119 1714 3412 
Q 1947 2706 1947 2009 
Q 1947 1309 1714 600 
Q 1481 -109 1013 -844 
L 513 -844 
Q 928 -128 1133 580 
Q 1338 1288 1338 2009 
Q 1338 2731 1133 3434 
Q 928 4138 513 4856 
z
" transform="scale(0.015625)"/>
      </defs>
      <use xlink:href="#DejaVuSans-34"/>
      <use xlink:href="#DejaVuSans-20" transform="translate(63.623047 0)"/>
      <use xlink:href="#DejaVuSans-28" transform="translate(95.410156 0)"/>
      <use xlink:href="#DejaVuSans-50" transform="translate(134.423828 0)"/>
      <use xlink:href="#DejaVuSans-50" transform="translate(194.726562 0)"/>
      <use xlink:href="#DejaVuSans-4f" transform="translate(255.029297 0)"/>
      <use xlink:href="#DejaVuSans-29" transform="translate(333.740234 0)"/>
     </g>
    </g>
    <g id="line2d_36">
     <path d="M 622.726562 346.104062 
L 632.726562 346.104062 
L 642.726562 346.104062 
" style="fill: none; stroke: #ff7f0e; stroke-width: 1.5; stroke-linecap: square"/>
    </g>
    <g id="text_20">
     <!-- 5 (PPO) -->
     <g transform="translate(650.726562 349.604062) scale(0.1 -0.1)">
      <use xlink:href="#DejaVuSans-35"/>
      <use xlink:href="#DejaVuSans-20" transform="translate(63.623047 0)"/>
      <use xlink:href="#DejaVuSans-28" transform="translate(95.410156 0)"/>
      <use xlink:href="#DejaVuSans-50" transform="translate(134.423828 0)"/>
      <use xlink:href="#DejaVuSans-50" transform="translate(194.726562 0)"/>
      <use xlink:href="#DejaVuSans-4f" transform="translate(255.029297 0)"/>
      <use xlink:href="#DejaVuSans-29" transform="translate(333.740234 0)"/>
     </g>
    </g>
    <g id="line2d_37">
     <path d="M 622.726562 360.782187 
L 632.726562 360.782187 
L 642.726562 360.782187 
" style="fill: none; stroke: #2ca02c; stroke-width: 1.5; stroke-linecap: square"/>
    </g>
    <g id="text_21">
     <!-- 6 (PPO) -->
     <g transform="translate(650.726562 364.282187) scale(0.1 -0.1)">
      <use xlink:href="#DejaVuSans-36"/>
      <use xlink:href="#DejaVuSans-20" transform="translate(63.623047 0)"/>
      <use xlink:href="#DejaVuSans-28" transform="translate(95.410156 0)"/>
      <use xlink:href="#DejaVuSans-50" transform="translate(134.423828 0)"/>
      <use xlink:href="#DejaVuSans-50" transform="translate(194.726562 0)"/>
      <use xlink:href="#DejaVuSans-4f" transform="translate(255.029297 0)"/>
      <use xlink:href="#DejaVuSans-29" transform="translate(333.740234 0)"/>
     </g>
    </g>
    <g id="line2d_38">
     <path d="M 622.726562 375.460312 
L 632.726562 375.460312 
L 642.726562 375.460312 
" style="fill: none; stroke: #d62728; stroke-width: 1.5; stroke-linecap: square"/>
    </g>
    <g id="text_22">
     <!-- 7 (PPO) -->
     <g transform="translate(650.726562 378.960312) scale(0.1 -0.1)">
      <use xlink:href="#DejaVuSans-37"/>
      <use xlink:href="#DejaVuSans-20" transform="translate(63.623047 0)"/>
      <use xlink:href="#DejaVuSans-28" transform="translate(95.410156 0)"/>
      <use xlink:href="#DejaVuSans-50" transform="translate(134.423828 0)"/>
      <use xlink:href="#DejaVuSans-50" transform="translate(194.726562 0)"/>
      <use xlink:href="#DejaVuSans-4f" transform="translate(255.029297 0)"/>
      <use xlink:href="#DejaVuSans-29" transform="translate(333.740234 0)"/>
     </g>
    </g>
   </g>
  </g>
 </g>
 <defs>
  <clipPath id="p23f95f989a">
   <rect x="54.02" y="10.8" width="655.18" height="379.24"/>
  </clipPath>
 </defs>
</svg>
