<?xml version="1.0" encoding="utf-8" standalone="no"?>
<!DOCTYPE svg PUBLIC "-//W3C//DTD SVG 1.1//EN"
  "http://www.w3.org/Graphics/SVG/1.1/DTD/svg11.dtd">
<svg xmlns:xlink="http://www.w3.org/1999/xlink" width="720pt" height="432pt" viewBox="0 0 720 432" xmlns="http://www.w3.org/2000/svg" version="1.1">
 <metadata>
  <rdf:RDF xmlns:dc="http://purl.org/dc/elements/1.1/" xmlns:cc="http://creativecommons.org/ns#" xmlns:rdf="http://www.w3.org/1999/02/22-rdf-syntax-ns#">
   <cc:Work>
    <dc:type rdf:resource="http://purl.org/dc/dcmitype/StillImage"/>
    <dc:date>2025-04-16T00:41:06.528993</dc:date>
    <dc:format>image/svg+xml</dc:format>
    <dc:creator>
     <cc:Agent>
      <dc:title>Matplotlib v3.10.0, https://matplotlib.org/</dc:title>
     </cc:Agent>
    </dc:creator>
   </cc:Work>
  </rdf:RDF>
 </metadata>
 <defs>
  <style type="text/css">*{stroke-linejoin: round; stroke-linecap: butt}</style>
 </defs>
 <g id="figure_1">
  <g id="patch_1">
   <path d="M 0 432 
L 720 432 
L 720 0 
L 0 0 
z
" style="fill: #ffffff"/>
  </g>
  <g id="axes_1">
   <g id="patch_2">
    <path d="M 44.57 390.04 
L 706.670361 390.04 
L 706.670361 10.8 
L 44.57 10.8 
z
" style="fill: #ffffff"/>
   </g>
   <g id="FillBetweenPolyCollection_1">
    <path d="M 74.665471 50.501511 
L 74.665471 347.933922 
L 78.788138 365.414203 
L 82.910805 347.783187 
L 87.033473 355.537105 
L 91.15614 354.133256 
L 95.278807 356.065365 
L 99.401474 361.353601 
L 103.524142 341.740087 
L 107.646809 360.726864 
L 111.769476 368.714945 
L 115.892144 335.568723 
L 120.014811 356.57813 
L 124.137478 348.41269 
L 128.260145 346.289082 
L 132.382813 353.777274 
L 136.50548 356.406825 
L 140.628147 353.955225 
L 144.750814 366.209068 
L 148.873482 338.805796 
L 152.996149 359.259414 
L 157.118816 327.195142 
L 161.241483 368.204391 
L 165.364151 364.006605 
L 169.486818 344.462733 
L 173.609485 356.547521 
L 177.732152 355.070274 
L 181.85482 351.169045 
L 185.977487 353.084988 
L 190.100154 368.065087 
L 194.222821 351.612582 
L 198.345489 350.229688 
L 202.468156 337.759875 
L 206.590823 329.162552 
L 210.71349 366.036957 
L 214.836158 353.196439 
L 218.958825 347.455533 
L 223.081492 367.297774 
L 227.204159 346.947859 
L 231.326827 361.270119 
L 235.449494 342.420385 
L 239.572161 362.479132 
L 243.694828 360.575735 
L 247.817496 345.732335 
L 251.940163 359.373493 
L 256.06283 349.81372 
L 260.185497 353.749357 
L 264.308165 358.190376 
L 268.430832 344.985209 
L 272.553499 350.733301 
L 276.676166 346.278088 
L 280.798834 356.801098 
L 284.921501 358.910535 
L 289.044168 352.162563 
L 293.166835 353.152089 
L 297.289503 365.177465 
L 301.41217 354.79302 
L 305.534837 339.592916 
L 309.657504 344.28805 
L 313.780172 364.114387 
L 317.902839 364.56385 
L 322.025506 349.033045 
L 326.148174 341.580078 
L 330.270841 357.009254 
L 334.393508 354.761692 
L 338.516175 351.881607 
L 342.638843 346.735329 
L 346.76151 351.418577 
L 350.884177 341.953608 
L 355.006844 370.510208 
L 359.129512 353.049911 
L 363.252179 363.143969 
L 367.374846 346.807928 
L 371.497513 350.812656 
L 375.620181 352.817184 
L 379.742848 345.51721 
L 383.865515 352.513712 
L 387.988182 332.639109 
L 392.11085 356.024464 
L 396.233517 355.144107 
L 400.356184 329.335423 
L 404.478851 355.476334 
L 408.601519 358.640457 
L 412.724186 349.492238 
L 416.846853 356.134635 
L 420.96952 332.814961 
L 425.092188 339.226617 
L 429.214855 362.424388 
L 433.337522 350.513356 
L 437.460189 345.721212 
L 441.582857 327.342032 
L 445.705524 360.153432 
L 449.828191 342.724099 
L 453.950858 358.100675 
L 458.073526 359.153159 
L 462.196193 349.358853 
L 466.31886 353.715672 
L 470.441527 368.456815 
L 474.564195 361.952466 
L 478.686862 353.465896 
L 482.809529 324.069276 
L 486.932196 350.212023 
L 491.054864 362.920684 
L 495.177531 349.729407 
L 499.300198 355.03707 
L 503.422865 342.494486 
L 507.545533 343.086002 
L 511.6682 350.144384 
L 515.790867 335.533004 
L 519.913534 326.889565 
L 524.036202 345.85669 
L 528.158869 355.906719 
L 532.281536 363.313996 
L 536.404204 339.91093 
L 540.526871 343.045327 
L 544.649538 360.352936 
L 548.772205 342.37577 
L 552.894873 361.234912 
L 557.01754 366.699574 
L 561.140207 371.301394 
L 565.262874 353.748982 
L 569.385542 356.394656 
L 573.508209 359.930551 
L 577.630876 352.232262 
L 581.753543 355.083946 
L 585.876211 351.285324 
L 589.998878 350.368743 
L 594.121545 366.87941 
L 598.244212 358.045938 
L 602.36688 353.187976 
L 606.489547 368.353712 
L 610.612214 349.075303 
L 614.734881 334.191451 
L 618.857549 341.685565 
L 622.980216 369.096485 
L 627.102883 365.967677 
L 631.22555 348.017195 
L 635.348218 354.571264 
L 639.470885 359.922015 
L 643.593552 364.254443 
L 647.716219 340.465427 
L 651.838887 360.876971 
L 655.961554 351.044771 
L 660.084221 340.312101 
L 664.206888 356.362142 
L 668.329556 360.581932 
L 672.452223 372.801818 
L 676.57489 348.752262 
L 676.57489 78.929123 
L 676.57489 78.929123 
L 672.452223 57.683796 
L 668.329556 57.36937 
L 664.206888 49.124102 
L 660.084221 56.747717 
L 655.961554 75.242038 
L 651.838887 45.923671 
L 647.716219 51.024284 
L 643.593552 55.061325 
L 639.470885 56.677627 
L 635.348218 59.186886 
L 631.22555 44.858759 
L 627.102883 54.812173 
L 622.980216 59.992283 
L 618.857549 48.381844 
L 614.734881 64.379316 
L 610.612214 47.912511 
L 606.489547 69.103353 
L 602.36688 57.763878 
L 598.244212 62.663907 
L 594.121545 67.697832 
L 589.998878 45.304128 
L 585.876211 83.416944 
L 581.753543 51.782024 
L 577.630876 58.806832 
L 573.508209 70.475453 
L 569.385542 62.987711 
L 565.262874 54.486383 
L 561.140207 42.540114 
L 557.01754 49.851883 
L 552.894873 54.017271 
L 548.772205 49.082901 
L 544.649538 63.07778 
L 540.526871 45.732844 
L 536.404204 54.318523 
L 532.281536 69.984295 
L 528.158869 60.585904 
L 524.036202 72.136324 
L 519.913534 39.432926 
L 515.790867 32.347713 
L 511.6682 46.892841 
L 507.545533 59.494695 
L 503.422865 62.867528 
L 499.300198 36.301049 
L 495.177531 58.351436 
L 491.054864 77.265586 
L 486.932196 60.723073 
L 482.809529 46.542622 
L 478.686862 56.126873 
L 474.564195 68.577473 
L 470.441527 59.330271 
L 466.31886 64.294623 
L 462.196193 32.37146 
L 458.073526 65.733397 
L 453.950858 76.498912 
L 449.828191 57.192788 
L 445.705524 64.691093 
L 441.582857 28.038182 
L 437.460189 34.63101 
L 433.337522 49.40596 
L 429.214855 61.038164 
L 425.092188 63.474336 
L 420.96952 53.182301 
L 416.846853 54.885113 
L 412.724186 69.779251 
L 408.601519 59.221492 
L 404.478851 63.940979 
L 400.356184 53.736718 
L 396.233517 55.836062 
L 392.11085 50.788213 
L 387.988182 49.14586 
L 383.865515 47.313822 
L 379.742848 63.943199 
L 375.620181 65.282667 
L 371.497513 61.434045 
L 367.374846 57.28206 
L 363.252179 61.791066 
L 359.129512 63.486083 
L 355.006844 61.350295 
L 350.884177 46.724312 
L 346.76151 54.055315 
L 342.638843 61.325781 
L 338.516175 70.334169 
L 334.393508 67.341661 
L 330.270841 63.710604 
L 326.148174 34.526153 
L 322.025506 53.694067 
L 317.902839 47.736643 
L 313.780172 64.875855 
L 309.657504 76.474111 
L 305.534837 56.066854 
L 301.41217 43.699635 
L 297.289503 67.985969 
L 293.166835 43.951644 
L 289.044168 54.697799 
L 284.921501 67.392123 
L 280.798834 69.417862 
L 276.676166 54.943206 
L 272.553499 57.351175 
L 268.430832 43.710263 
L 264.308165 56.965007 
L 260.185497 54.454354 
L 256.06283 58.373505 
L 251.940163 73.847753 
L 247.817496 68.07057 
L 243.694828 57.410785 
L 239.572161 51.387535 
L 235.449494 68.609014 
L 231.326827 67.827391 
L 227.204159 31.975363 
L 223.081492 56.262328 
L 218.958825 53.893987 
L 214.836158 57.837228 
L 210.71349 58.836316 
L 206.590823 45.664387 
L 202.468156 62.081398 
L 198.345489 70.598187 
L 194.222821 75.983061 
L 190.100154 61.005402 
L 185.977487 63.600259 
L 181.85482 50.064419 
L 177.732152 42.092929 
L 173.609485 57.238536 
L 169.486818 60.953847 
L 165.364151 56.818069 
L 161.241483 51.101839 
L 157.118816 47.605524 
L 152.996149 60.066685 
L 148.873482 31.758939 
L 144.750814 53.17196 
L 140.628147 48.76848 
L 136.50548 43.402294 
L 132.382813 87.870353 
L 128.260145 64.728486 
L 124.137478 57.064835 
L 120.014811 57.298982 
L 115.892144 65.778867 
L 111.769476 67.431264 
L 107.646809 61.355122 
L 103.524142 62.213523 
L 99.401474 58.007786 
L 95.278807 64.629311 
L 91.15614 56.793303 
L 87.033473 68.046225 
L 82.910805 70.13201 
L 78.788138 48.45621 
L 74.665471 50.501511 
z
" clip-path="url(#p8dd4ca07c3)" style="fill: #1f77b4; fill-opacity: 0.2"/>
   </g>
   <g id="matplotlib.axis_1">
    <g id="xtick_1">
     <g id="line2d_1">
      <path d="M 72.583524 390.04 
L 72.583524 10.8 
" clip-path="url(#p8dd4ca07c3)" style="fill: none; stroke: #b0b0b0; stroke-width: 0.8; stroke-linecap: square"/>
     </g>
     <g id="line2d_2">
      <defs>
       <path id="ma7a0e88b87" d="M 0 0 
L 0 3.5 
" style="stroke: #000000; stroke-width: 0.8"/>
      </defs>
      <g>
       <use xlink:href="#ma7a0e88b87" x="72.583524" y="390.04" style="stroke: #000000; stroke-width: 0.8"/>
      </g>
     </g>
     <g id="text_1">
      <!-- 0 -->
      <g transform="translate(69.402274 404.638438) scale(0.1 -0.1)">
       <defs>
        <path id="DejaVuSans-30" d="M 2034 4250 
Q 1547 4250 1301 3770 
Q 1056 3291 1056 2328 
Q 1056 1369 1301 889 
Q 1547 409 2034 409 
Q 2525 409 2770 889 
Q 3016 1369 3016 2328 
Q 3016 3291 2770 3770 
Q 2525 4250 2034 4250 
z
M 2034 4750 
Q 2819 4750 3233 4129 
Q 3647 3509 3647 2328 
Q 3647 1150 3233 529 
Q 2819 -91 2034 -91 
Q 1250 -91 836 529 
Q 422 1150 422 2328 
Q 422 3509 836 4129 
Q 1250 4750 2034 4750 
z
" transform="scale(0.015625)"/>
       </defs>
       <use xlink:href="#DejaVuSans-30"/>
      </g>
     </g>
    </g>
    <g id="xtick_2">
     <g id="line2d_3">
      <path d="M 175.650205 390.04 
L 175.650205 10.8 
" clip-path="url(#p8dd4ca07c3)" style="fill: none; stroke: #b0b0b0; stroke-width: 0.8; stroke-linecap: square"/>
     </g>
     <g id="line2d_4">
      <g>
       <use xlink:href="#ma7a0e88b87" x="175.650205" y="390.04" style="stroke: #000000; stroke-width: 0.8"/>
      </g>
     </g>
     <g id="text_2">
      <!-- 5000 -->
      <g transform="translate(162.925205 404.638438) scale(0.1 -0.1)">
       <defs>
        <path id="DejaVuSans-35" d="M 691 4666 
L 3169 4666 
L 3169 4134 
L 1269 4134 
L 1269 2991 
Q 1406 3038 1543 3061 
Q 1681 3084 1819 3084 
Q 2600 3084 3056 2656 
Q 3513 2228 3513 1497 
Q 3513 744 3044 326 
Q 2575 -91 1722 -91 
Q 1428 -91 1123 -41 
Q 819 9 494 109 
L 494 744 
Q 775 591 1075 516 
Q 1375 441 1709 441 
Q 2250 441 2565 725 
Q 2881 1009 2881 1497 
Q 2881 1984 2565 2268 
Q 2250 2553 1709 2553 
Q 1456 2553 1204 2497 
Q 953 2441 691 2322 
L 691 4666 
z
" transform="scale(0.015625)"/>
       </defs>
       <use xlink:href="#DejaVuSans-35"/>
       <use xlink:href="#DejaVuSans-30" transform="translate(63.623047 0)"/>
       <use xlink:href="#DejaVuSans-30" transform="translate(127.246094 0)"/>
       <use xlink:href="#DejaVuSans-30" transform="translate(190.869141 0)"/>
      </g>
     </g>
    </g>
    <g id="xtick_3">
     <g id="line2d_5">
      <path d="M 278.716887 390.04 
L 278.716887 10.8 
" clip-path="url(#p8dd4ca07c3)" style="fill: none; stroke: #b0b0b0; stroke-width: 0.8; stroke-linecap: square"/>
     </g>
     <g id="line2d_6">
      <g>
       <use xlink:href="#ma7a0e88b87" x="278.716887" y="390.04" style="stroke: #000000; stroke-width: 0.8"/>
      </g>
     </g>
     <g id="text_3">
      <!-- 10000 -->
      <g transform="translate(262.810637 404.638438) scale(0.1 -0.1)">
       <defs>
        <path id="DejaVuSans-31" d="M 794 531 
L 1825 531 
L 1825 4091 
L 703 3866 
L 703 4441 
L 1819 4666 
L 2450 4666 
L 2450 531 
L 3481 531 
L 3481 0 
L 794 0 
L 794 531 
z
" transform="scale(0.015625)"/>
       </defs>
       <use xlink:href="#DejaVuSans-31"/>
       <use xlink:href="#DejaVuSans-30" transform="translate(63.623047 0)"/>
       <use xlink:href="#DejaVuSans-30" transform="translate(127.246094 0)"/>
       <use xlink:href="#DejaVuSans-30" transform="translate(190.869141 0)"/>
       <use xlink:href="#DejaVuSans-30" transform="translate(254.492188 0)"/>
      </g>
     </g>
    </g>
    <g id="xtick_4">
     <g id="line2d_7">
      <path d="M 381.783568 390.04 
L 381.783568 10.8 
" clip-path="url(#p8dd4ca07c3)" style="fill: none; stroke: #b0b0b0; stroke-width: 0.8; stroke-linecap: square"/>
     </g>
     <g id="line2d_8">
      <g>
       <use xlink:href="#ma7a0e88b87" x="381.783568" y="390.04" style="stroke: #000000; stroke-width: 0.8"/>
      </g>
     </g>
     <g id="text_4">
      <!-- 15000 -->
      <g transform="translate(365.877318 404.638438) scale(0.1 -0.1)">
       <use xlink:href="#DejaVuSans-31"/>
       <use xlink:href="#DejaVuSans-35" transform="translate(63.623047 0)"/>
       <use xlink:href="#DejaVuSans-30" transform="translate(127.246094 0)"/>
       <use xlink:href="#DejaVuSans-30" transform="translate(190.869141 0)"/>
       <use xlink:href="#DejaVuSans-30" transform="translate(254.492188 0)"/>
      </g>
     </g>
    </g>
    <g id="xtick_5">
     <g id="line2d_9">
      <path d="M 484.850249 390.04 
L 484.850249 10.8 
" clip-path="url(#p8dd4ca07c3)" style="fill: none; stroke: #b0b0b0; stroke-width: 0.8; stroke-linecap: square"/>
     </g>
     <g id="line2d_10">
      <g>
       <use xlink:href="#ma7a0e88b87" x="484.850249" y="390.04" style="stroke: #000000; stroke-width: 0.8"/>
      </g>
     </g>
     <g id="text_5">
      <!-- 20000 -->
      <g transform="translate(468.943999 404.638438) scale(0.1 -0.1)">
       <defs>
        <path id="DejaVuSans-32" d="M 1228 531 
L 3431 531 
L 3431 0 
L 469 0 
L 469 531 
Q 828 903 1448 1529 
Q 2069 2156 2228 2338 
Q 2531 2678 2651 2914 
Q 2772 3150 2772 3378 
Q 2772 3750 2511 3984 
Q 2250 4219 1831 4219 
Q 1534 4219 1204 4116 
Q 875 4013 500 3803 
L 500 4441 
Q 881 4594 1212 4672 
Q 1544 4750 1819 4750 
Q 2544 4750 2975 4387 
Q 3406 4025 3406 3419 
Q 3406 3131 3298 2873 
Q 3191 2616 2906 2266 
Q 2828 2175 2409 1742 
Q 1991 1309 1228 531 
z
" transform="scale(0.015625)"/>
       </defs>
       <use xlink:href="#DejaVuSans-32"/>
       <use xlink:href="#DejaVuSans-30" transform="translate(63.623047 0)"/>
       <use xlink:href="#DejaVuSans-30" transform="translate(127.246094 0)"/>
       <use xlink:href="#DejaVuSans-30" transform="translate(190.869141 0)"/>
       <use xlink:href="#DejaVuSans-30" transform="translate(254.492188 0)"/>
      </g>
     </g>
    </g>
    <g id="xtick_6">
     <g id="line2d_11">
      <path d="M 587.916931 390.04 
L 587.916931 10.8 
" clip-path="url(#p8dd4ca07c3)" style="fill: none; stroke: #b0b0b0; stroke-width: 0.8; stroke-linecap: square"/>
     </g>
     <g id="line2d_12">
      <g>
       <use xlink:href="#ma7a0e88b87" x="587.916931" y="390.04" style="stroke: #000000; stroke-width: 0.8"/>
      </g>
     </g>
     <g id="text_6">
      <!-- 25000 -->
      <g transform="translate(572.010681 404.638438) scale(0.1 -0.1)">
       <use xlink:href="#DejaVuSans-32"/>
       <use xlink:href="#DejaVuSans-35" transform="translate(63.623047 0)"/>
       <use xlink:href="#DejaVuSans-30" transform="translate(127.246094 0)"/>
       <use xlink:href="#DejaVuSans-30" transform="translate(190.869141 0)"/>
       <use xlink:href="#DejaVuSans-30" transform="translate(254.492188 0)"/>
      </g>
     </g>
    </g>
    <g id="xtick_7">
     <g id="line2d_13">
      <path d="M 690.983612 390.04 
L 690.983612 10.8 
" clip-path="url(#p8dd4ca07c3)" style="fill: none; stroke: #b0b0b0; stroke-width: 0.8; stroke-linecap: square"/>
     </g>
     <g id="line2d_14">
      <g>
       <use xlink:href="#ma7a0e88b87" x="690.983612" y="390.04" style="stroke: #000000; stroke-width: 0.8"/>
      </g>
     </g>
     <g id="text_7">
      <!-- 30000 -->
      <g transform="translate(675.077362 404.638438) scale(0.1 -0.1)">
       <defs>
        <path id="DejaVuSans-33" d="M 2597 2516 
Q 3050 2419 3304 2112 
Q 3559 1806 3559 1356 
Q 3559 666 3084 287 
Q 2609 -91 1734 -91 
Q 1441 -91 1130 -33 
Q 819 25 488 141 
L 488 750 
Q 750 597 1062 519 
Q 1375 441 1716 441 
Q 2309 441 2620 675 
Q 2931 909 2931 1356 
Q 2931 1769 2642 2001 
Q 2353 2234 1838 2234 
L 1294 2234 
L 1294 2753 
L 1863 2753 
Q 2328 2753 2575 2939 
Q 2822 3125 2822 3475 
Q 2822 3834 2567 4026 
Q 2313 4219 1838 4219 
Q 1578 4219 1281 4162 
Q 984 4106 628 3988 
L 628 4550 
Q 988 4650 1302 4700 
Q 1616 4750 1894 4750 
Q 2613 4750 3031 4423 
Q 3450 4097 3450 3541 
Q 3450 3153 3228 2886 
Q 3006 2619 2597 2516 
z
" transform="scale(0.015625)"/>
       </defs>
       <use xlink:href="#DejaVuSans-33"/>
       <use xlink:href="#DejaVuSans-30" transform="translate(63.623047 0)"/>
       <use xlink:href="#DejaVuSans-30" transform="translate(127.246094 0)"/>
       <use xlink:href="#DejaVuSans-30" transform="translate(190.869141 0)"/>
       <use xlink:href="#DejaVuSans-30" transform="translate(254.492188 0)"/>
      </g>
     </g>
    </g>
    <g id="text_8">
     <!-- Episodes -->
     <g transform="translate(353.377993 418.316562) scale(0.1 -0.1)">
      <defs>
       <path id="DejaVuSans-45" d="M 628 4666 
L 3578 4666 
L 3578 4134 
L 1259 4134 
L 1259 2753 
L 3481 2753 
L 3481 2222 
L 1259 2222 
L 1259 531 
L 3634 531 
L 3634 0 
L 628 0 
L 628 4666 
z
" transform="scale(0.015625)"/>
       <path id="DejaVuSans-70" d="M 1159 525 
L 1159 -1331 
L 581 -1331 
L 581 3500 
L 1159 3500 
L 1159 2969 
Q 1341 3281 1617 3432 
Q 1894 3584 2278 3584 
Q 2916 3584 3314 3078 
Q 3713 2572 3713 1747 
Q 3713 922 3314 415 
Q 2916 -91 2278 -91 
Q 1894 -91 1617 61 
Q 1341 213 1159 525 
z
M 3116 1747 
Q 3116 2381 2855 2742 
Q 2594 3103 2138 3103 
Q 1681 3103 1420 2742 
Q 1159 2381 1159 1747 
Q 1159 1113 1420 752 
Q 1681 391 2138 391 
Q 2594 391 2855 752 
Q 3116 1113 3116 1747 
z
" transform="scale(0.015625)"/>
       <path id="DejaVuSans-69" d="M 603 3500 
L 1178 3500 
L 1178 0 
L 603 0 
L 603 3500 
z
M 603 4863 
L 1178 4863 
L 1178 4134 
L 603 4134 
L 603 4863 
z
" transform="scale(0.015625)"/>
       <path id="DejaVuSans-73" d="M 2834 3397 
L 2834 2853 
Q 2591 2978 2328 3040 
Q 2066 3103 1784 3103 
Q 1356 3103 1142 2972 
Q 928 2841 928 2578 
Q 928 2378 1081 2264 
Q 1234 2150 1697 2047 
L 1894 2003 
Q 2506 1872 2764 1633 
Q 3022 1394 3022 966 
Q 3022 478 2636 193 
Q 2250 -91 1575 -91 
Q 1294 -91 989 -36 
Q 684 19 347 128 
L 347 722 
Q 666 556 975 473 
Q 1284 391 1588 391 
Q 1994 391 2212 530 
Q 2431 669 2431 922 
Q 2431 1156 2273 1281 
Q 2116 1406 1581 1522 
L 1381 1569 
Q 847 1681 609 1914 
Q 372 2147 372 2553 
Q 372 3047 722 3315 
Q 1072 3584 1716 3584 
Q 2034 3584 2315 3537 
Q 2597 3491 2834 3397 
z
" transform="scale(0.015625)"/>
       <path id="DejaVuSans-6f" d="M 1959 3097 
Q 1497 3097 1228 2736 
Q 959 2375 959 1747 
Q 959 1119 1226 758 
Q 1494 397 1959 397 
Q 2419 397 2687 759 
Q 2956 1122 2956 1747 
Q 2956 2369 2687 2733 
Q 2419 3097 1959 3097 
z
M 1959 3584 
Q 2709 3584 3137 3096 
Q 3566 2609 3566 1747 
Q 3566 888 3137 398 
Q 2709 -91 1959 -91 
Q 1206 -91 779 398 
Q 353 888 353 1747 
Q 353 2609 779 3096 
Q 1206 3584 1959 3584 
z
" transform="scale(0.015625)"/>
       <path id="DejaVuSans-64" d="M 2906 2969 
L 2906 4863 
L 3481 4863 
L 3481 0 
L 2906 0 
L 2906 525 
Q 2725 213 2448 61 
Q 2172 -91 1784 -91 
Q 1150 -91 751 415 
Q 353 922 353 1747 
Q 353 2572 751 3078 
Q 1150 3584 1784 3584 
Q 2172 3584 2448 3432 
Q 2725 3281 2906 2969 
z
M 947 1747 
Q 947 1113 1208 752 
Q 1469 391 1925 391 
Q 2381 391 2643 752 
Q 2906 1113 2906 1747 
Q 2906 2381 2643 2742 
Q 2381 3103 1925 3103 
Q 1469 3103 1208 2742 
Q 947 2381 947 1747 
z
" transform="scale(0.015625)"/>
       <path id="DejaVuSans-65" d="M 3597 1894 
L 3597 1613 
L 953 1613 
Q 991 1019 1311 708 
Q 1631 397 2203 397 
Q 2534 397 2845 478 
Q 3156 559 3463 722 
L 3463 178 
Q 3153 47 2828 -22 
Q 2503 -91 2169 -91 
Q 1331 -91 842 396 
Q 353 884 353 1716 
Q 353 2575 817 3079 
Q 1281 3584 2069 3584 
Q 2775 3584 3186 3129 
Q 3597 2675 3597 1894 
z
M 3022 2063 
Q 3016 2534 2758 2815 
Q 2500 3097 2075 3097 
Q 1594 3097 1305 2825 
Q 1016 2553 972 2059 
L 3022 2063 
z
" transform="scale(0.015625)"/>
      </defs>
      <use xlink:href="#DejaVuSans-45"/>
      <use xlink:href="#DejaVuSans-70" transform="translate(63.183594 0)"/>
      <use xlink:href="#DejaVuSans-69" transform="translate(126.660156 0)"/>
      <use xlink:href="#DejaVuSans-73" transform="translate(154.443359 0)"/>
      <use xlink:href="#DejaVuSans-6f" transform="translate(206.542969 0)"/>
      <use xlink:href="#DejaVuSans-64" transform="translate(267.724609 0)"/>
      <use xlink:href="#DejaVuSans-65" transform="translate(331.201172 0)"/>
      <use xlink:href="#DejaVuSans-73" transform="translate(392.724609 0)"/>
     </g>
    </g>
   </g>
   <g id="matplotlib.axis_2">
    <g id="ytick_1">
     <g id="line2d_15">
      <path d="M 44.57 330.235522 
L 706.670361 330.235522 
" clip-path="url(#p8dd4ca07c3)" style="fill: none; stroke: #b0b0b0; stroke-width: 0.8; stroke-linecap: square"/>
     </g>
     <g id="line2d_16">
      <defs>
       <path id="m86c4dfc8c8" d="M 0 0 
L -3.5 0 
" style="stroke: #000000; stroke-width: 0.8"/>
      </defs>
      <g>
       <use xlink:href="#m86c4dfc8c8" x="44.57" y="330.235522" style="stroke: #000000; stroke-width: 0.8"/>
      </g>
     </g>
     <g id="text_9">
      <!-- 20 -->
      <g transform="translate(24.845 334.034741) scale(0.1 -0.1)">
       <use xlink:href="#DejaVuSans-32"/>
       <use xlink:href="#DejaVuSans-30" transform="translate(63.623047 0)"/>
      </g>
     </g>
    </g>
    <g id="ytick_2">
     <g id="line2d_17">
      <path d="M 44.57 248.490149 
L 706.670361 248.490149 
" clip-path="url(#p8dd4ca07c3)" style="fill: none; stroke: #b0b0b0; stroke-width: 0.8; stroke-linecap: square"/>
     </g>
     <g id="line2d_18">
      <g>
       <use xlink:href="#m86c4dfc8c8" x="44.57" y="248.490149" style="stroke: #000000; stroke-width: 0.8"/>
      </g>
     </g>
     <g id="text_10">
      <!-- 40 -->
      <g transform="translate(24.845 252.289368) scale(0.1 -0.1)">
       <defs>
        <path id="DejaVuSans-34" d="M 2419 4116 
L 825 1625 
L 2419 1625 
L 2419 4116 
z
M 2253 4666 
L 3047 4666 
L 3047 1625 
L 3713 1625 
L 3713 1100 
L 3047 1100 
L 3047 0 
L 2419 0 
L 2419 1100 
L 313 1100 
L 313 1709 
L 2253 4666 
z
" transform="scale(0.015625)"/>
       </defs>
       <use xlink:href="#DejaVuSans-34"/>
       <use xlink:href="#DejaVuSans-30" transform="translate(63.623047 0)"/>
      </g>
     </g>
    </g>
    <g id="ytick_3">
     <g id="line2d_19">
      <path d="M 44.57 166.744776 
L 706.670361 166.744776 
" clip-path="url(#p8dd4ca07c3)" style="fill: none; stroke: #b0b0b0; stroke-width: 0.8; stroke-linecap: square"/>
     </g>
     <g id="line2d_20">
      <g>
       <use xlink:href="#m86c4dfc8c8" x="44.57" y="166.744776" style="stroke: #000000; stroke-width: 0.8"/>
      </g>
     </g>
     <g id="text_11">
      <!-- 60 -->
      <g transform="translate(24.845 170.543995) scale(0.1 -0.1)">
       <defs>
        <path id="DejaVuSans-36" d="M 2113 2584 
Q 1688 2584 1439 2293 
Q 1191 2003 1191 1497 
Q 1191 994 1439 701 
Q 1688 409 2113 409 
Q 2538 409 2786 701 
Q 3034 994 3034 1497 
Q 3034 2003 2786 2293 
Q 2538 2584 2113 2584 
z
M 3366 4563 
L 3366 3988 
Q 3128 4100 2886 4159 
Q 2644 4219 2406 4219 
Q 1781 4219 1451 3797 
Q 1122 3375 1075 2522 
Q 1259 2794 1537 2939 
Q 1816 3084 2150 3084 
Q 2853 3084 3261 2657 
Q 3669 2231 3669 1497 
Q 3669 778 3244 343 
Q 2819 -91 2113 -91 
Q 1303 -91 875 529 
Q 447 1150 447 2328 
Q 447 3434 972 4092 
Q 1497 4750 2381 4750 
Q 2619 4750 2861 4703 
Q 3103 4656 3366 4563 
z
" transform="scale(0.015625)"/>
       </defs>
       <use xlink:href="#DejaVuSans-36"/>
       <use xlink:href="#DejaVuSans-30" transform="translate(63.623047 0)"/>
      </g>
     </g>
    </g>
    <g id="ytick_4">
     <g id="line2d_21">
      <path d="M 44.57 84.999404 
L 706.670361 84.999404 
" clip-path="url(#p8dd4ca07c3)" style="fill: none; stroke: #b0b0b0; stroke-width: 0.8; stroke-linecap: square"/>
     </g>
     <g id="line2d_22">
      <g>
       <use xlink:href="#m86c4dfc8c8" x="44.57" y="84.999404" style="stroke: #000000; stroke-width: 0.8"/>
      </g>
     </g>
     <g id="text_12">
      <!-- 80 -->
      <g transform="translate(24.845 88.798622) scale(0.1 -0.1)">
       <defs>
        <path id="DejaVuSans-38" d="M 2034 2216 
Q 1584 2216 1326 1975 
Q 1069 1734 1069 1313 
Q 1069 891 1326 650 
Q 1584 409 2034 409 
Q 2484 409 2743 651 
Q 3003 894 3003 1313 
Q 3003 1734 2745 1975 
Q 2488 2216 2034 2216 
z
M 1403 2484 
Q 997 2584 770 2862 
Q 544 3141 544 3541 
Q 544 4100 942 4425 
Q 1341 4750 2034 4750 
Q 2731 4750 3128 4425 
Q 3525 4100 3525 3541 
Q 3525 3141 3298 2862 
Q 3072 2584 2669 2484 
Q 3125 2378 3379 2068 
Q 3634 1759 3634 1313 
Q 3634 634 3220 271 
Q 2806 -91 2034 -91 
Q 1263 -91 848 271 
Q 434 634 434 1313 
Q 434 1759 690 2068 
Q 947 2378 1403 2484 
z
M 1172 3481 
Q 1172 3119 1398 2916 
Q 1625 2713 2034 2713 
Q 2441 2713 2670 2916 
Q 2900 3119 2900 3481 
Q 2900 3844 2670 4047 
Q 2441 4250 2034 4250 
Q 1625 4250 1398 4047 
Q 1172 3844 1172 3481 
z
" transform="scale(0.015625)"/>
       </defs>
       <use xlink:href="#DejaVuSans-38"/>
       <use xlink:href="#DejaVuSans-30" transform="translate(63.623047 0)"/>
      </g>
     </g>
    </g>
    <g id="text_13">
     <!-- Reward -->
     <g transform="translate(18.765312 219.041094) rotate(-90) scale(0.1 -0.1)">
      <defs>
       <path id="DejaVuSans-52" d="M 2841 2188 
Q 3044 2119 3236 1894 
Q 3428 1669 3622 1275 
L 4263 0 
L 3584 0 
L 2988 1197 
Q 2756 1666 2539 1819 
Q 2322 1972 1947 1972 
L 1259 1972 
L 1259 0 
L 628 0 
L 628 4666 
L 2053 4666 
Q 2853 4666 3247 4331 
Q 3641 3997 3641 3322 
Q 3641 2881 3436 2590 
Q 3231 2300 2841 2188 
z
M 1259 4147 
L 1259 2491 
L 2053 2491 
Q 2509 2491 2742 2702 
Q 2975 2913 2975 3322 
Q 2975 3731 2742 3939 
Q 2509 4147 2053 4147 
L 1259 4147 
z
" transform="scale(0.015625)"/>
       <path id="DejaVuSans-77" d="M 269 3500 
L 844 3500 
L 1563 769 
L 2278 3500 
L 2956 3500 
L 3675 769 
L 4391 3500 
L 4966 3500 
L 4050 0 
L 3372 0 
L 2619 2869 
L 1863 0 
L 1184 0 
L 269 3500 
z
" transform="scale(0.015625)"/>
       <path id="DejaVuSans-61" d="M 2194 1759 
Q 1497 1759 1228 1600 
Q 959 1441 959 1056 
Q 959 750 1161 570 
Q 1363 391 1709 391 
Q 2188 391 2477 730 
Q 2766 1069 2766 1631 
L 2766 1759 
L 2194 1759 
z
M 3341 1997 
L 3341 0 
L 2766 0 
L 2766 531 
Q 2569 213 2275 61 
Q 1981 -91 1556 -91 
Q 1019 -91 701 211 
Q 384 513 384 1019 
Q 384 1609 779 1909 
Q 1175 2209 1959 2209 
L 2766 2209 
L 2766 2266 
Q 2766 2663 2505 2880 
Q 2244 3097 1772 3097 
Q 1472 3097 1187 3025 
Q 903 2953 641 2809 
L 641 3341 
Q 956 3463 1253 3523 
Q 1550 3584 1831 3584 
Q 2591 3584 2966 3190 
Q 3341 2797 3341 1997 
z
" transform="scale(0.015625)"/>
       <path id="DejaVuSans-72" d="M 2631 2963 
Q 2534 3019 2420 3045 
Q 2306 3072 2169 3072 
Q 1681 3072 1420 2755 
Q 1159 2438 1159 1844 
L 1159 0 
L 581 0 
L 581 3500 
L 1159 3500 
L 1159 2956 
Q 1341 3275 1631 3429 
Q 1922 3584 2338 3584 
Q 2397 3584 2469 3576 
Q 2541 3569 2628 3553 
L 2631 2963 
z
" transform="scale(0.015625)"/>
      </defs>
      <use xlink:href="#DejaVuSans-52"/>
      <use xlink:href="#DejaVuSans-65" transform="translate(64.982422 0)"/>
      <use xlink:href="#DejaVuSans-77" transform="translate(126.505859 0)"/>
      <use xlink:href="#DejaVuSans-61" transform="translate(208.292969 0)"/>
      <use xlink:href="#DejaVuSans-72" transform="translate(269.572266 0)"/>
      <use xlink:href="#DejaVuSans-64" transform="translate(308.935547 0)"/>
     </g>
    </g>
   </g>
   <g id="line2d_23">
    <path d="M 74.665471 199.217717 
L 78.788138 206.935207 
L 82.910805 208.957599 
L 87.033473 211.791665 
L 91.15614 205.463279 
L 95.278807 210.347338 
L 99.401474 209.680693 
L 103.524142 201.976805 
L 107.646809 211.040993 
L 111.769476 218.073105 
L 115.892144 200.673795 
L 120.014811 206.938556 
L 124.137478 202.738763 
L 128.260145 205.508784 
L 132.382813 220.823814 
L 136.50548 199.90456 
L 140.628147 201.361853 
L 144.750814 209.690514 
L 148.873482 185.282367 
L 152.996149 209.66305 
L 157.118816 187.400333 
L 161.241483 209.653115 
L 165.364151 210.412337 
L 169.486818 202.70829 
L 173.609485 206.893028 
L 177.732152 198.581602 
L 181.85482 200.616732 
L 185.977487 208.342624 
L 190.100154 214.535244 
L 194.222821 213.797822 
L 198.345489 210.413938 
L 202.468156 199.920636 
L 206.590823 187.413469 
L 210.71349 212.436636 
L 214.836158 205.516834 
L 218.958825 200.67476 
L 223.081492 211.780051 
L 227.204159 189.461611 
L 231.326827 214.548755 
L 235.449494 205.514699 
L 239.572161 206.933333 
L 243.694828 208.99326 
L 247.817496 206.901453 
L 251.940163 216.610623 
L 256.06283 204.093613 
L 260.185497 204.101855 
L 264.308165 207.577691 
L 268.430832 194.347736 
L 272.553499 204.042238 
L 276.676166 200.610647 
L 280.798834 213.10948 
L 284.921501 213.151329 
L 289.044168 203.430181 
L 293.166835 198.551867 
L 297.289503 216.581717 
L 301.41217 199.246328 
L 305.534837 197.829885 
L 309.657504 210.381081 
L 313.780172 214.495121 
L 317.902839 206.150247 
L 322.025506 201.363556 
L 326.148174 188.053116 
L 330.270841 210.359929 
L 334.393508 211.051677 
L 338.516175 211.107888 
L 342.638843 204.030555 
L 346.76151 202.736946 
L 350.884177 194.33896 
L 355.006844 215.930252 
L 359.129512 208.267997 
L 363.252179 212.467518 
L 367.374846 202.044994 
L 371.497513 206.12335 
L 375.620181 209.049925 
L 379.742848 204.730205 
L 383.865515 199.913767 
L 387.988182 190.892484 
L 392.11085 203.406338 
L 396.233517 205.490085 
L 400.356184 191.53607 
L 404.478851 209.708657 
L 408.601519 208.930975 
L 412.724186 209.635745 
L 416.846853 205.509874 
L 420.96952 192.998631 
L 425.092188 201.350476 
L 429.214855 211.731276 
L 433.337522 199.959658 
L 437.460189 190.176111 
L 441.582857 177.690107 
L 445.705524 212.422263 
L 449.828191 199.958444 
L 453.950858 217.299793 
L 458.073526 212.443278 
L 462.196193 190.865156 
L 466.31886 209.005147 
L 470.441527 213.893543 
L 474.564195 215.264969 
L 478.686862 204.796384 
L 482.809529 185.305949 
L 486.932196 205.467548 
L 491.054864 220.093135 
L 495.177531 204.040421 
L 499.300198 195.669059 
L 503.422865 202.681007 
L 507.545533 201.290348 
L 511.6682 198.518612 
L 515.790867 183.940358 
L 519.913534 183.161245 
L 524.036202 208.996507 
L 528.158869 208.246312 
L 532.281536 216.649146 
L 536.404204 197.114726 
L 540.526871 194.389086 
L 544.649538 211.715358 
L 548.772205 195.729335 
L 552.894873 207.626091 
L 557.01754 208.275729 
L 561.140207 206.920754 
L 565.262874 204.117682 
L 573.508209 215.203002 
L 577.630876 205.519547 
L 581.753543 203.432985 
L 585.876211 217.351134 
L 589.998878 197.836436 
L 594.121545 217.288621 
L 598.244212 210.354922 
L 602.36688 205.475927 
L 606.489547 218.728532 
L 610.612214 198.493907 
L 614.734881 199.285384 
L 618.857549 195.033705 
L 622.980216 214.544384 
L 627.102883 210.389925 
L 631.22555 196.437977 
L 635.348218 206.879075 
L 643.593552 209.657884 
L 647.716219 195.744856 
L 651.838887 203.400321 
L 655.961554 213.143404 
L 660.084221 198.529909 
L 664.206888 202.743122 
L 672.452223 215.242807 
L 676.57489 213.840692 
L 676.57489 213.840692 
" clip-path="url(#p8dd4ca07c3)" style="fill: none; stroke: #1f77b4; stroke-width: 1.5; stroke-linecap: square"/>
   </g>
   <g id="patch_3">
    <path d="M 44.57 390.04 
L 44.57 10.8 
" style="fill: none; stroke: #000000; stroke-width: 0.8; stroke-linejoin: miter; stroke-linecap: square"/>
   </g>
   <g id="patch_4">
    <path d="M 706.670361 390.04 
L 706.670361 10.8 
" style="fill: none; stroke: #000000; stroke-width: 0.8; stroke-linejoin: miter; stroke-linecap: square"/>
   </g>
   <g id="patch_5">
    <path d="M 44.57 390.04 
L 706.670361 390.04 
" style="fill: none; stroke: #000000; stroke-width: 0.8; stroke-linejoin: miter; stroke-linecap: square"/>
   </g>
   <g id="patch_6">
    <path d="M 44.57 10.8 
L 706.670361 10.8 
" style="fill: none; stroke: #000000; stroke-width: 0.8; stroke-linejoin: miter; stroke-linecap: square"/>
   </g>
  </g>
 </g>
 <defs>
  <clipPath id="p8dd4ca07c3">
   <rect x="44.57" y="10.8" width="662.100361" height="379.24"/>
  </clipPath>
 </defs>
</svg>
