<?xml version="1.0" encoding="utf-8" standalone="no"?>
<!DOCTYPE svg PUBLIC "-//W3C//DTD SVG 1.1//EN"
  "http://www.w3.org/Graphics/SVG/1.1/DTD/svg11.dtd">
<svg xmlns:xlink="http://www.w3.org/1999/xlink" width="720pt" height="432pt" viewBox="0 0 720 432" xmlns="http://www.w3.org/2000/svg" version="1.1">
 <metadata>
  <rdf:RDF xmlns:dc="http://purl.org/dc/elements/1.1/" xmlns:cc="http://creativecommons.org/ns#" xmlns:rdf="http://www.w3.org/1999/02/22-rdf-syntax-ns#">
   <cc:Work>
    <dc:type rdf:resource="http://purl.org/dc/dcmitype/StillImage"/>
    <dc:date>2025-04-15T19:19:49.254614</dc:date>
    <dc:format>image/svg+xml</dc:format>
    <dc:creator>
     <cc:Agent>
      <dc:title>Matplotlib v3.10.0, https://matplotlib.org/</dc:title>
     </cc:Agent>
    </dc:creator>
   </cc:Work>
  </rdf:RDF>
 </metadata>
 <defs>
  <style type="text/css">*{stroke-linejoin: round; stroke-linecap: butt}</style>
 </defs>
 <g id="figure_1">
  <g id="patch_1">
   <path d="M 0 432 
L 720 432 
L 720 0 
L 0 0 
z
" style="fill: #ffffff"/>
  </g>
  <g id="axes_1">
   <g id="patch_2">
    <path d="M 47.63 390.04 
L 700.508105 390.04 
L 700.508105 10.8 
L 47.63 10.8 
z
" style="fill: #ffffff"/>
   </g>
   <g id="FillBetweenPolyCollection_1">
    <path d="M 77.306277 174.47562 
L 77.306277 363.689334 
L 80.625838 365.872455 
L 83.850854 357.938483 
L 87.152907 357.093321 
L 90.574015 369.422395 
L 93.827045 369.825041 
L 97.111589 355.02239 
L 100.581721 340.093948 
L 104.097373 320.138352 
L 107.714574 320.032649 
L 111.377296 320.090436 
L 115.02251 301.36384 
L 118.559173 298.580806 
L 122.067822 286.024341 
L 125.471423 286.052168 
L 128.458327 280.900247 
L 131.406713 278.743135 
L 134.369106 272.927272 
L 137.243958 270.942299 
L 140.129314 273.748911 
L 143.011169 267.825005 
L 145.851004 265.803719 
L 148.690839 267.645699 
L 151.52017 264.904314 
L 154.363506 266.6678 
L 157.203342 265.975873 
L 160.036173 263.395276 
L 162.851497 265.704595 
L 165.663319 262.721513 
L 168.492649 263.332202 
L 171.307973 262.65312 
L 174.105788 264.852936 
L 176.910607 262.852018 
L 179.729432 261.686283 
L 182.537753 261.816788 
L 185.353076 264.011285 
L 188.182407 260.2522 
L 190.990727 261.45532 
L 193.809552 260.944127 
L 196.617873 261.863124 
L 199.422691 260.42009 
L 202.24852 262.028531 
L 205.05684 263.773853 
L 207.875666 262.116238 
L 210.690989 261.006145 
L 213.506313 260.538806 
L 216.325138 260.507797 
L 219.13696 261.679908 
L 221.94528 259.908897 
L 224.750099 260.944127 
L 227.579429 261.01899 
L 230.394753 262.178256 
L 233.199572 261.15587 
L 236.00439 262.165412 
L 238.812711 260.644677 
L 241.624533 259.908897 
L 244.436355 261.517338 
L 247.237672 261.230733 
L 250.056497 263.014588 
L 252.878824 264.060458 
L 255.610108 284.181888 
L 258.320382 269.009818 
L 261.104191 264.855419 
L 263.916013 278.534225 
L 266.479218 275.155829 
L 269.287539 263.549265 
L 272.095859 270.487754 
L 274.697582 292.422899 
L 277.425365 268.418349 
L 280.230183 264.117156 
L 283.05251 268.823764 
L 285.881841 263.973807 
L 288.700666 267.059129 
L 291.529996 282.910019 
L 294.359326 300.636997 
L 297.17465 289.037165 
L 300.042498 266.623313 
L 303.659699 270.112174 
L 306.926735 265.689268 
L 309.815593 262.614586 
L 312.683442 261.948348 
L 315.628326 262.852018 
L 318.566207 260.807247 
L 321.448062 260.85642 
L 324.431465 260.725915 
L 327.439379 261.081008 
L 330.401772 261.729081 
L 333.280125 264.434771 
L 336.137469 261.006145 
L 339.005317 262.601742 
L 341.855657 260.675686 
L 344.705997 259.759172 
L 347.552836 261.741926 
L 350.375163 260.058622 
L 353.204493 260.283209 
L 356.044328 260.058622 
L 358.884163 271.97345 
L 361.699487 265.910739 
L 364.518312 262.516239 
L 367.337137 259.908897 
L 370.145458 260.706695 
L 373.086841 265.317159 
L 376.052735 263.08945 
L 378.91358 261.530183 
L 381.76392 260.507797 
L 384.600254 261.442476 
L 387.405072 261.380458 
L 390.255412 260.794402 
L 393.084743 261.289913 
L 395.90707 259.834035 
L 398.704885 262.377155 
L 401.5027 262.028531 
L 404.339034 259.908897 
L 407.154358 262.614586 
L 410.004698 262.321512 
L 412.851536 260.494952 
L 415.701876 261.15587 
L 418.53821 260.644677 
L 421.423566 262.815689 
L 424.354444 262.67234 
L 427.274817 262.216789 
L 430.188187 261.468164 
L 433.024521 260.507797 
L 435.825838 268.21202 
L 438.623653 263.337522 
L 441.435475 261.579356 
L 444.268307 261.380458 
L 447.090634 260.85642 
L 449.902456 260.345227 
L 452.724783 259.98376 
L 455.550611 260.507797 
L 458.404453 260.582659 
L 461.230282 260.058622 
L 464.038602 259.759172 
L 466.871434 263.949267 
L 469.88285 325.205745 
L 472.785715 271.347571 
L 475.64656 262.165412 
L 478.479392 263.474403 
L 481.30522 262.676605 
L 484.152059 261.803944 
L 486.974386 261.630734 
L 489.793211 263.463762 
L 492.801125 267.728626 
L 495.749511 293.502852 
L 498.673386 265.19624 
L 501.534231 274.134405 
L 504.377568 269.813992 
L 507.213901 261.168715 
L 510.050235 260.931283 
L 512.876063 259.98376 
L 515.701892 260.058622 
L 518.524219 260.058622 
L 521.336041 259.834035 
L 524.165371 260.494952 
L 526.994701 260.631833 
L 529.82053 260.501328 
L 532.642857 260.133484 
L 535.454679 260.283209 
L 538.270002 263.587799 
L 541.351451 265.457157 
L 544.250814 260.345227 
L 547.066138 260.931283 
L 549.89897 260.42009 
L 552.738805 260.931283 
L 555.543624 261.217888 
L 558.358947 260.195503 
L 561.216291 270.295324 
L 564.147169 262.764311 
L 566.990506 263.337522 
L 569.823337 260.42009 
L 572.659671 262.0489 
L 575.474995 261.217888 
L 578.318331 261.256421 
L 581.210691 267.987482 
L 584.054028 311.719573 
L 586.918375 276.01436 
L 589.786223 260.657522 
L 592.612052 260.208347 
L 595.448385 260.71954 
L 598.270712 260.781558 
L 601.117551 260.520641 
L 603.957386 260.807247 
L 606.821733 260.794402 
L 609.658066 261.45532 
L 612.47339 260.133484 
L 615.34474 263.587799 
L 618.223093 261.811468 
L 621.076935 261.524862 
L 623.920271 260.283209 
L 626.756605 260.283209 
L 629.589437 260.358072 
L 632.411764 259.908897 
L 635.237592 271.392573 
L 638.073926 267.839911 
L 640.906758 264.036973 
L 643.73959 260.569815 
L 646.575923 259.98376 
L 649.394748 259.834035 
L 652.224079 259.95275 
L 655.049907 260.507797 
L 657.910752 259.98376 
L 660.747086 260.432934 
L 663.628941 260.42009 
L 666.514297 263.726883 
L 669.543221 263.190001 
L 669.543221 241.719899 
L 669.543221 241.719899 
L 666.514297 236.122466 
L 663.628941 257.864125 
L 660.747086 255.321005 
L 657.910752 257.938988 
L 655.049907 254.884675 
L 652.224079 256.885593 
L 649.394748 258.811649 
L 646.575923 257.938988 
L 643.73959 256.991465 
L 640.906758 246.656415 
L 638.073926 241.769073 
L 635.237592 243.276963 
L 632.411764 258.375318 
L 629.589437 255.757336 
L 626.756605 256.193666 
L 623.920271 256.193666 
L 621.076935 247.722654 
L 618.223093 248.520452 
L 615.34474 249.274397 
L 612.47339 257.066327 
L 609.658066 254.298619 
L 606.821733 255.682473 
L 603.957386 253.139353 
L 601.117551 252.341555 
L 598.270712 258.225593 
L 595.448385 256.118804 
L 592.612052 256.629997 
L 589.786223 254.012014 
L 586.918375 228.172605 
L 584.054028 205.841707 
L 581.210691 215.234341 
L 578.318331 250.52137 
L 575.474995 258.150731 
L 572.659671 244.668341 
L 569.823337 257.864125 
L 566.990506 255.669629 
L 564.147169 254.074032 
L 561.216291 244.735679 
L 558.358947 259.173117 
L 555.543624 258.150731 
L 552.738805 257.352933 
L 549.89897 257.864125 
L 547.066138 257.352933 
L 544.250814 258.300456 
L 541.351451 253.188527 
L 538.270002 249.274397 
L 535.454679 256.193666 
L 532.642857 257.066327 
L 529.82053 257.059951 
L 526.994701 259.098254 
L 524.165371 257.427795 
L 521.336041 258.811649 
L 518.524219 257.502657 
L 515.701892 257.502657 
L 512.876063 257.938988 
L 510.050235 257.352933 
L 507.213901 253.500821 
L 504.377568 254.615179 
L 501.534231 250.656234 
L 498.673386 247.304488 
L 495.749511 238.878615 
L 492.801125 236.819806 
L 489.793211 245.060818 
L 486.974386 248.339718 
L 484.152059 257.203208 
L 481.30522 257.053483 
L 478.479392 257.340088 
L 475.64656 257.564676 
L 472.785715 253.0816 
L 469.88285 238.623435 
L 466.871434 249.635865 
L 464.038602 259.247979 
L 461.230282 257.502657 
L 458.404453 254.448344 
L 455.550611 254.884675 
L 452.724783 257.938988 
L 449.902456 258.300456 
L 447.090634 257.789263 
L 444.268307 254.73495 
L 441.435475 258.512199 
L 438.623653 255.669629 
L 435.825838 254.409811 
L 433.024521 254.884675 
L 430.188187 251.755499 
L 427.274817 247.392195 
L 424.354444 244.406369 
L 421.423566 243.901551 
L 418.53821 256.555134 
L 415.701876 256.043941 
L 412.851536 257.427795 
L 410.004698 256.324171 
L 407.154358 254.946693 
L 404.339034 258.375318 
L 401.5027 255.894216 
L 398.704885 258.798804 
L 395.90707 258.811649 
L 393.084743 254.825495 
L 390.255412 255.682473 
L 387.405072 254.73495 
L 384.600254 256.84174 
L 381.76392 254.884675 
L 378.91358 253.862289 
L 376.052735 247.24247 
L 373.086841 230.556042 
L 370.145458 258.661924 
L 367.337137 258.375318 
L 364.518312 245.646873 
L 361.699487 220.925763 
L 358.884163 193.89791 
L 356.044328 257.502657 
L 353.204493 256.193666 
L 350.375163 257.502657 
L 347.552836 255.096418 
L 344.705997 259.247979 
L 341.855657 257.608529 
L 339.005317 257.489813 
L 336.137469 256.916602 
L 333.280125 254.210913 
L 330.401772 257.639538 
L 327.439379 256.480272 
L 324.431465 255.75096 
L 321.448062 257.789263 
L 318.566207 253.139353 
L 315.628326 251.094581 
L 312.683442 250.190912 
L 309.815593 254.946693 
L 306.926735 243.19678 
L 303.659699 217.447264 
L 300.042498 227.442549 
L 297.17465 252.742469 
L 294.359326 250.902271 
L 291.529996 250.555851 
L 288.700666 253.393894 
L 285.881841 252.864537 
L 283.05251 248.376048 
L 280.230183 252.359719 
L 277.425365 251.311738 
L 274.697582 246.826459 
L 272.095859 250.688205 
L 269.287539 256.903758 
L 266.479218 254.333894 
L 263.916013 253.485773 
L 261.104191 253.790264 
L 258.320382 254.696417 
L 255.610108 251.091322 
L 252.878824 256.392565 
L 250.056497 247.6788 
L 247.237672 255.607611 
L 244.436355 256.405409 
L 241.624533 258.375318 
L 238.812711 256.555134 
L 236.00439 257.564676 
L 233.199572 256.043941 
L 230.394753 255.021555 
L 227.579429 254.373482 
L 224.750099 254.809812 
L 221.94528 258.375318 
L 219.13696 252.989628 
L 216.325138 254.884675 
L 213.506313 255.93807 
L 210.690989 256.916602 
L 207.875666 252.914766 
L 205.05684 255.594766 
L 202.24852 255.894216 
L 199.422691 257.864125 
L 196.617873 256.421091 
L 193.809552 254.809812 
L 190.990727 254.298619 
L 188.182407 255.140271 
L 185.353076 251.742655 
L 182.537753 254.660087 
L 179.729432 252.621785 
L 176.910607 251.094581 
L 174.105788 250.539535 
L 171.307973 247.317332 
L 168.492649 249.529994 
L 165.663319 249.056279 
L 162.851497 243.904389 
L 160.036173 245.129305 
L 157.203342 243.994579 
L 154.363506 243.66412 
L 151.52017 240.367055 
L 148.690839 226.420163 
L 145.851004 228.623611 
L 143.011169 216.842689 
L 140.129314 221.039886 
L 137.243958 213.725395 
L 134.369106 211.378954 
L 131.406713 196.164924 
L 128.458327 192.56194 
L 125.471423 179.457724 
L 122.067822 175.509403 
L 118.559173 171.989637 
L 115.02251 171.375411 
L 111.377296 171.44515 
L 107.714574 172.225872 
L 104.097373 169.589894 
L 100.581721 171.322376 
L 97.111589 174.105864 
L 93.827045 191.83533 
L 90.574015 180.309534 
L 87.152907 175.649613 
L 83.850854 172.635644 
L 80.625838 179.16039 
L 77.306277 174.47562 
z
" clip-path="url(#peb6ad0371a)" style="fill: #1f77b4; fill-opacity: 0.2"/>
   </g>
   <g id="FillBetweenPolyCollection_2">
    <path d="M 77.505871 94.297332 
L 77.505871 357.476777 
L 81.070547 364.063375 
L 84.516167 347.498748 
L 88.143873 351.136523 
L 91.929153 352.166952 
L 95.532347 353.565136 
L 99.342138 353.053744 
L 103.193949 334.802834 
L 107.049261 321.14144 
L 110.820534 330.052058 
L 114.458745 316.625695 
L 118.303553 317.778997 
L 122.109842 310.014501 
L 126.066703 309.215151 
L 130.104101 304.632549 
L 134.127492 303.955528 
L 138.112366 302.281373 
L 142.149764 291.527568 
L 146.057601 288.020816 
L 149.811366 282.078565 
L 153.54062 283.229236 
L 157.168325 282.343113 
L 160.824044 279.644247 
L 164.399225 276.480432 
L 167.963901 281.638248 
L 171.560092 276.23388 
L 175.100256 275.012765 
L 178.657929 274.009599 
L 182.219103 274.894142 
L 185.752264 274.987262 
L 189.292428 275.464422 
L 192.822088 277.12213 
L 196.351747 274.588316 
L 199.881407 275.760072 
L 203.411066 275.093134 
L 206.944228 277.430531 
L 210.452877 275.897308 
L 213.982537 275.31479 
L 217.529704 275.062125 
L 221.066367 275.685565 
L 224.610033 275.059194 
L 228.146696 275.258185 
L 231.655346 277.487042 
L 235.178002 274.015105 
L 238.721668 275.436344 
L 242.251327 277.530027 
L 245.773984 277.258748 
L 249.289637 276.767037 
L 252.812293 275.59502 
L 256.348956 274.557307 
L 259.896123 275.504831 
L 263.415278 274.376573 
L 266.969449 275.888094 
L 270.513115 276.451999 
L 274.074289 276.738604 
L 277.614454 275.339423 
L 281.186133 274.302766 
L 284.862862 275.224694 
L 288.501072 276.006717 
L 292.04824 275.167996 
L 295.703959 275.467446 
L 299.324661 274.894142 
L 302.927855 276.374298 
L 306.503036 276.243093 
L 310.081718 276.732228 
L 313.649896 275.623453 
L 317.267097 275.70736 
L 320.835274 274.295335 
L 324.368435 274.956253 
L 327.996141 274.781895 
L 331.543309 267.547901 
L 335.07647 267.777995 
L 338.637644 273.852398 
L 342.216327 272.252488 
L 345.777501 274.081168 
L 349.335174 276.443205 
L 352.850826 278.403201 
L 356.383988 279.128474 
L 359.913647 281.358072 
L 363.506336 282.002281 
L 367.106029 273.497102 
L 370.674206 278.083169 
L 374.224876 281.833691 
L 377.772043 280.251808 
L 381.438267 280.77859 
L 384.981933 281.858325 
L 388.550111 283.405168 
L 392.083272 281.697166 
L 395.644446 280.478878 
L 399.209122 308.464764 
L 402.808815 311.844002 
L 406.313963 307.960224 
L 409.836619 319.719199 
L 413.338265 336.445309 
L 416.846915 318.674138 
L 420.355564 326.673458 
L 423.850207 322.500905 
L 427.355355 305.455351 
L 430.864005 325.659662 
L 434.372654 342.52158 
L 437.895311 333.721099 
L 441.40396 321.235674 
L 444.881095 308.017137 
L 448.389745 303.926074 
L 451.891391 306.601913 
L 455.403542 306.618563 
L 458.915694 297.197392 
L 462.420842 301.461103 
L 465.922488 293.076299 
L 469.431137 295.310045 
L 472.932784 283.83683 
L 476.441433 283.902648 
L 479.946581 279.730964 
L 483.451729 288.304939 
L 486.953376 308.016875 
L 490.455022 309.391067 
L 493.96017 300.604124 
L 497.461816 293.371593 
L 500.963463 287.068235 
L 504.482617 301.307933 
L 508.015778 307.842517 
L 511.531431 283.861463 
L 515.043582 276.295898 
L 518.54873 276.221036 
L 522.050377 274.837537 
L 525.54502 277.327497 
L 529.025656 276.003179 
L 532.537807 271.748446 
L 536.028949 275.280243 
L 539.527094 276.476632 
L 543.032241 275.532909 
L 546.533888 274.476069 
L 550.035534 274.476069 
L 553.53718 274.656803 
L 557.038827 275.760334 
L 560.540473 273.217307 
L 564.045621 273.765884 
L 567.550769 275.542215 
L 571.052415 275.438919 
L 574.554062 274.482445 
L 578.115236 274.390845 
L 582.019572 272.505012 
L 585.552733 274.33272 
L 589.057881 274.656803 
L 592.56653 274.731666 
L 596.068177 274.301711 
L 599.573325 274.226848 
L 603.074971 274.557307 
L 606.587122 271.686335 
L 610.088769 255.650095 
L 613.593916 269.051833 
L 617.179602 274.843913 
L 620.68475 269.421893 
L 624.067341 299.791578 
L 627.442928 277.367813 
L 630.944574 266.381293 
L 634.44622 271.659188 
L 637.951368 276.161855 
L 641.453015 274.370198 
L 644.961664 274.120977 
L 648.463311 274.482445 
L 651.964957 274.301711 
L 655.466603 274.554376 
L 658.971751 274.656803 
L 662.473397 274.656803 
L 665.975044 275.806763 
L 669.487195 274.476069 
L 669.487195 172.237488 
L 669.487195 172.237488 
L 665.975044 172.352666 
L 662.473397 172.418222 
L 658.971751 172.418222 
L 655.466603 170.351841 
L 651.964957 171.688911 
L 648.463311 171.869645 
L 644.961664 171.508177 
L 641.453015 171.620424 
L 637.951368 173.081978 
L 634.44622 168.909414 
L 630.944574 161.897397 
L 627.442928 175.129232 
L 624.067341 196.804559 
L 620.68475 166.809093 
L 617.179602 172.231113 
L 613.593916 156.335115 
L 610.088769 116.601061 
L 606.587122 163.460247 
L 603.074971 171.433314 
L 599.573325 172.125241 
L 596.068177 171.688911 
L 592.56653 171.981892 
L 589.057881 172.418222 
L 585.552733 172.742305 
L 582.019572 182.160841 
L 578.115236 178.467668 
L 574.554062 171.869645 
L 571.052415 172.359042 
L 567.550769 171.53281 
L 564.045621 170.778865 
L 560.540473 170.604507 
L 557.038827 172.399095 
L 553.53718 172.418222 
L 550.035534 172.237488 
L 546.533888 172.237488 
L 543.032241 170.819181 
L 539.527094 172.044265 
L 536.028949 172.15625 
L 532.537807 163.759604 
L 529.025656 172.879186 
L 525.54502 173.362208 
L 522.050377 172.598956 
L 518.54873 172.299862 
L 515.043582 171.863531 
L 511.531431 171.527325 
L 508.015778 168.872882 
L 504.482617 169.623978 
L 500.963463 169.404958 
L 497.461816 168.885087 
L 493.96017 167.797512 
L 490.455022 168.408736 
L 486.953376 169.42146 
L 483.451729 171.059997 
L 479.946581 168.428465 
L 476.441433 170.401737 
L 472.932784 170.106087 
L 469.431137 168.392507 
L 465.922488 168.457445 
L 462.420842 167.302001 
L 458.915694 168.673968 
L 455.403542 166.482156 
L 451.891391 166.860274 
L 448.389745 167.005838 
L 444.881095 170.867069 
L 441.40396 168.85404 
L 437.895311 168.297057 
L 434.372654 172.509423 
L 430.864005 165.875924 
L 427.355355 154.993989 
L 423.850207 168.311745 
L 420.355564 167.392403 
L 416.846915 169.246768 
L 413.338265 168.103124 
L 409.836619 169.28611 
L 406.313963 161.164348 
L 402.808815 169.57048 
L 399.209122 161.744212 
L 395.644446 164.788808 
L 392.083272 166.823731 
L 388.550111 165.477197 
L 384.981933 170.277252 
L 381.438267 164.489096 
L 377.772043 162.84707 
L 374.224876 168.856014 
L 370.674206 163.931305 
L 367.106029 154.420121 
L 363.506336 165.434212 
L 359.913647 162.102273 
L 356.383988 145.897005 
L 352.850826 169.39476 
L 349.335174 167.378608 
L 345.777501 163.234222 
L 342.216327 164.701434 
L 338.637644 160.932716 
L 335.07647 150.018125 
L 331.543309 148.802347 
L 327.996141 170.124323 
L 324.368435 170.6729 
L 320.835274 172.056754 
L 317.267097 169.560325 
L 313.649896 170.728636 
L 310.081718 171.788669 
L 306.503036 172.277804 
L 302.927855 168.170451 
L 299.324661 170.373544 
L 295.703959 170.161708 
L 292.04824 171.907029 
L 288.501072 169.622437 
L 284.862862 167.874184 
L 281.186133 165.181432 
L 277.614454 171.374134 
L 274.074289 171.420825 
L 270.513115 170.623027 
L 266.969449 169.741059 
L 263.415278 171.25258 
L 259.896123 170.847259 
L 256.348956 171.433314 
L 252.812293 171.118537 
L 249.289637 171.030924 
L 245.773984 171.985085 
L 242.251327 172.075274 
L 238.721668 170.915746 
L 235.178002 170.891112 
L 231.655346 170.672387 
L 228.146696 172.178308 
L 224.610033 170.208492 
L 221.066367 171.027993 
L 217.529704 171.289965 
L 213.982537 169.952896 
L 210.452877 172.262122 
L 206.944228 171.090366 
L 203.411066 172.34336 
L 199.881407 170.953486 
L 196.351747 172.486709 
L 192.822088 171.760235 
L 189.292428 170.887668 
L 185.752264 171.726295 
L 182.219103 170.373544 
L 178.657929 168.366343 
L 175.100256 170.254921 
L 171.560092 169.756742 
L 167.963901 169.051457 
L 164.399225 170.233125 
L 160.824044 165.26197 
L 157.168325 164.370445 
L 153.54062 162.761386 
L 149.811366 163.550588 
L 146.057601 163.753293 
L 142.149764 166.752964 
L 138.112366 162.144115 
L 134.127492 156.85528 
L 130.104101 155.093856 
L 126.066703 144.00483 
L 122.109842 142.121076 
L 118.303553 136.525388 
L 114.458745 115.267676 
L 110.820534 119.553243 
L 107.049261 102.076699 
L 103.193949 108.296043 
L 99.342138 117.516699 
L 95.532347 121.342923 
L 91.929153 119.126427 
L 88.143873 105.698138 
L 84.516167 95.961597 
L 81.070547 105.422664 
L 77.505871 94.297332 
z
" clip-path="url(#peb6ad0371a)" style="fill: #ff7f0e; fill-opacity: 0.2"/>
   </g>
   <g id="FillBetweenPolyCollection_3">
    <path d="M 77.558396 42.873623 
L 77.558396 343.836251 
L 81.235125 349.142552 
L 85.100942 343.851506 
L 89.029789 356.713181 
L 92.96564 372.801818 
L 96.848966 365.399087 
L 100.830337 365.003053 
L 104.860732 368.801131 
L 108.824596 362.997551 
L 112.76745 366.940432 
L 116.731313 348.379113 
L 120.649656 343.901704 
L 124.631028 330.111844 
L 128.601894 300.374613 
L 132.618283 299.09124 
L 136.603156 294.73636 
L 140.633551 290.62433 
L 144.345296 284.767696 
L 148.004517 273.271586 
L 151.611212 267.456576 
L 154.937776 268.27706 
L 158.026228 269.868775 
L 161.093671 269.593883 
L 164.073572 273.810655 
L 166.955427 276.730628 
L 169.85479 275.235569 
L 172.740146 273.954918 
L 175.629005 271.271107 
L 178.587896 273.963252 
L 181.497764 273.255654 
L 184.376117 272.703883 
L 187.219454 277.306402 
L 190.090804 273.055437 
L 192.920134 273.738058 
L 195.745963 272.962673 
L 198.624316 274.791546 
L 201.471154 273.884245 
L 204.317993 273.148913 
L 207.14032 275.246396 
L 209.976653 274.725897 
L 212.833997 273.81292 
L 215.663327 273.455252 
L 218.49966 274.08153 
L 221.314984 275.947537 
L 224.133809 276.795657 
L 226.94213 272.775208 
L 229.764457 274.853919 
L 232.60079 277.359283 
L 235.416114 274.311717 
L 238.231437 273.554235 
L 241.036256 276.352858 
L 243.862085 274.95084 
L 246.673907 275.49951 
L 249.475224 273.775891 
L 252.367584 272.261625 
L 255.203917 276.5008 
L 258.054257 273.886711 
L 261.01665 264.950549 
L 264.507791 267.940274 
L 267.638263 272.082553 
L 270.492105 275.366167 
L 273.454498 265.802779 
L 276.917626 270.269989 
L 279.823992 275.1646 
L 282.681336 283.899832 
L 285.528174 286.832591 
L 288.396023 280.526122 
L 291.253366 280.500433 
L 294.0897 286.091649 
L 296.912027 285.859338 
L 299.744858 280.076913 
L 302.574189 284.568246 
L 305.410522 278.632102 
L 308.236351 271.383088 
L 311.692476 259.423688 
L 315.033046 262.802995 
L 318.191531 271.315905 
L 321.25197 275.240362 
L 324.245878 271.219602 
L 327.239785 268.010151 
L 330.156657 281.530473 
L 333.164571 282.130449 
L 336.207502 278.843239 
L 339.26794 271.953907 
L 342.240838 270.79171 
L 345.30828 271.741808 
L 348.386227 272.511436 
L 351.387138 272.11809 
L 354.356534 273.614191 
L 357.329432 272.371017 
L 360.410881 274.233224 
L 363.478323 275.315845 
L 366.678828 273.056569 
L 369.931857 271.402398 
L 373.237411 270.242387 
L 376.528959 271.801251 
L 379.774985 270.916708 
L 383.024513 270.35271 
L 386.256532 270.617258 
L 389.439529 271.038262 
L 392.531483 271.713375 
L 395.602426 271.908922 
L 398.568321 271.77308 
L 401.506202 272.940522 
L 404.489605 271.040061 
L 407.480011 271.863362 
L 410.39338 268.726166 
L 413.418803 269.497034 
L 416.349681 271.186249 
L 419.207024 271.205113 
L 422.060866 269.274682 
L 425.02676 269.709619 
L 427.964642 272.386437 
L 430.885015 271.260849 
L 433.777375 270.965199 
L 436.634718 267.75023 
L 439.520075 268.528912 
L 442.398428 270.067905 
L 445.266276 267.558818 
L 448.239174 265.626993 
L 451.18756 269.279413 
L 454.14295 270.612169 
L 457.259415 271.765059 
L 460.260326 273.036573 
L 463.219217 315.7681 
L 466.1606 275.498362 
L 469.063465 271.911853 
L 471.955824 269.365895 
L 474.977745 266.77937 
L 477.905122 264.969875 
L 480.828996 267.322348 
L 483.728359 271.074001 
L 486.613716 271.298233 
L 489.513079 267.873594 
L 492.387931 258.724555 
L 495.283792 268.608413 
L 498.197162 271.908316 
L 501.121037 273.697398 
L 504.006393 274.127352 
L 506.853232 274.314462 
L 509.707073 274.05249 
L 512.644955 273.14882 
L 515.638862 265.66154 
L 518.531222 262.750669 
L 521.430585 268.428548 
L 524.315942 273.58515 
L 527.16278 268.301749 
L 530.020124 270.706158 
L 532.842451 272.214141 
L 535.780332 270.997077 
L 538.6902 273.578775 
L 541.558048 274.14561 
L 544.457412 273.0557 
L 547.32526 273.660013 
L 550.224623 274.495196 
L 553.180013 274.127352 
L 556.065369 273.86538 
L 558.936719 273.952994 
L 561.836082 273.825065 
L 564.742449 274.00873 
L 567.63831 274.354515 
L 570.474644 274.656803 
L 573.342492 273.148558 
L 576.21034 273.753133 
L 579.074687 274.918775 
L 581.918024 274.127352 
L 584.747354 268.979187 
L 587.888331 271.980854 
L 590.875235 315.769483 
L 593.82012 274.664048 
L 596.715981 275.318235 
L 599.730899 268.182258 
L 602.864872 268.15038 
L 605.960328 269.390529 
L 608.992753 270.141898 
L 612.004169 271.528328 
L 614.865014 274.25502 
L 617.858922 273.479279 
L 620.803806 270.415331 
L 623.752192 270.366064 
L 626.623542 274.114601 
L 629.561424 268.543726 
L 632.502807 273.750202 
L 635.510721 274.301711 
L 638.48712 275.398866 
L 641.386483 272.326388 
L 644.310358 273.143313 
L 647.178206 273.691115 
L 650.165111 276.865199 
L 653.127503 275.979694 
L 656.044375 272.241257 
L 659.108315 268.348037 
L 662.09522 270.313588 
L 665.050609 270.506297 
L 667.932464 272.600242 
L 670.831827 273.276487 
L 670.831827 169.822391 
L 670.831827 169.822391 
L 667.932464 170.498635 
L 665.050609 167.893497 
L 662.09522 167.36327 
L 659.108315 179.811392 
L 656.044375 173.387897 
L 653.127503 163.143036 
L 650.165111 160.450191 
L 647.178206 169.407763 
L 644.310358 168.148224 
L 641.386483 168.96515 
L 638.48712 172.037627 
L 635.510721 171.688911 
L 632.502807 170.433079 
L 629.561424 164.434049 
L 626.623542 171.87602 
L 623.752192 189.36034 
L 620.803806 192.202817 
L 617.858922 169.981067 
L 614.865014 170.28973 
L 612.004169 167.232935 
L 608.992753 166.450556 
L 605.960328 166.117522 
L 602.864872 165.911799 
L 599.730899 164.072581 
L 596.715981 168.503579 
L 593.82012 169.157766 
L 590.875235 205.767944 
L 587.888331 164.973068 
L 584.747354 167.251799 
L 581.918024 171.140333 
L 579.074687 171.794782 
L 576.21034 171.514552 
L 573.342492 169.227384 
L 570.474644 172.418222 
L 567.63831 171.274638 
L 564.742449 171.258956 
L 561.836082 169.996749 
L 558.936719 170.591756 
L 556.065369 171.763773 
L 553.180013 171.140333 
L 550.224623 171.133957 
L 547.32526 170.161801 
L 544.457412 169.320242 
L 541.558048 172.929415 
L 538.6902 170.965975 
L 535.780332 163.426569 
L 532.842451 168.715929 
L 530.020124 166.9707 
L 527.16278 161.061345 
L 524.315942 170.598131 
L 521.430585 163.103355 
L 518.531222 156.491322 
L 515.638862 158.279535 
L 512.644955 170.672994 
L 509.707073 171.576664 
L 506.853232 170.953223 
L 504.006393 171.140333 
L 501.121037 170.847352 
L 498.197162 170.829094 
L 495.283792 166.176702 
L 492.387931 155.818353 
L 489.513079 163.29684 
L 486.613716 166.017157 
L 483.728359 166.964325 
L 480.828996 163.486619 
L 477.905122 160.055604 
L 474.977745 164.029596 
L 471.955824 164.696283 
L 469.063465 167.572345 
L 466.1606 173.022535 
L 463.219217 211.191346 
L 460.260326 170.423773 
L 457.259415 169.526478 
L 454.14295 168.510561 
L 451.18756 164.421298 
L 448.239174 160.48289 
L 445.266276 164.334553 
L 442.398428 163.994274 
L 439.520075 161.19565 
L 436.634718 154.383506 
L 433.777375 165.265787 
L 430.885015 165.331605 
L 427.964642 165.290421 
L 425.02676 160.73788 
L 422.060866 160.811349 
L 419.207024 164.664405 
L 416.349681 167.213545 
L 413.418803 184.445882 
L 410.39338 192.446111 
L 407.480011 163.644688 
L 404.489605 164.829457 
L 401.506202 167.989548 
L 398.568321 165.180842 
L 395.602426 166.490872 
L 392.531483 163.071739 
L 389.439529 162.300981 
L 386.256532 163.083452 
L 383.024513 162.263596 
L 379.774985 161.338131 
L 376.528959 163.345331 
L 373.237411 152.614284 
L 369.931857 162.298312 
L 366.678828 166.427629 
L 363.478323 163.445417 
L 360.410881 171.757397 
L 357.329432 166.390245 
L 354.356534 165.870007 
L 351.387138 166.281704 
L 348.386227 164.803954 
L 345.30828 162.681838 
L 342.240838 161.824597 
L 339.26794 163.554143 
L 336.207502 169.316191 
L 333.164571 170.366596 
L 330.156657 162.291341 
L 327.239785 155.207988 
L 324.245878 158.143493 
L 321.25197 150.146585 
L 318.191531 156.601318 
L 315.033046 139.81147 
L 311.692476 119.695359 
L 308.236351 142.075416 
L 305.410522 163.74384 
L 302.574189 169.736139 
L 299.744858 167.721049 
L 296.912027 158.685412 
L 294.0897 170.381544 
L 291.253366 172.719548 
L 288.396023 167.633307 
L 285.528174 176.869961 
L 282.681336 178.356848 
L 279.823992 156.367303 
L 276.917626 132.705944 
L 273.454498 125.967647 
L 270.492105 159.780415 
L 267.638263 151.135586 
L 264.507791 123.107216 
L 261.01665 139.471256 
L 258.054257 155.837852 
L 255.203917 159.00725 
L 252.367584 162.162021 
L 249.475224 165.346839 
L 246.673907 164.707624 
L 243.862085 166.340698 
L 241.036256 169.276295 
L 238.231437 167.737303 
L 235.416114 166.256885 
L 232.60079 149.835004 
L 229.764457 166.799087 
L 226.94213 166.70899 
L 224.133809 167.026156 
L 221.314984 170.404553 
L 218.49966 166.84854 
L 215.663327 164.221606 
L 212.833997 166.394214 
L 209.976653 168.011513 
L 207.14032 168.213949 
L 204.317993 168.865561 
L 201.471154 169.214633 
L 198.624316 165.05412 
L 195.745963 166.160057 
L 192.920134 166.830544 
L 190.090804 167.874632 
L 187.219454 168.68422 
L 184.376117 163.888571 
L 181.497764 166.590012 
L 178.587896 161.183331 
L 175.629005 155.92318 
L 172.740146 161.191664 
L 169.85479 159.549545 
L 166.955427 151.909531 
L 164.073572 149.407484 
L 161.093671 146.756365 
L 158.026228 148.650281 
L 154.937776 139.036488 
L 151.611212 126.844126 
L 148.004517 114.88416 
L 144.345296 112.063281 
L 140.633551 66.445171 
L 136.603156 72.454244 
L 132.618283 67.737896 
L 128.601894 71.876542 
L 124.631028 70.333813 
L 120.649656 69.195332 
L 116.731313 75.923431 
L 112.76745 83.026338 
L 108.824596 79.016923 
L 104.860732 83.334446 
L 100.830337 71.950869 
L 96.848966 89.266765 
L 92.96564 76.803483 
L 89.029789 36.864585 
L 85.100942 28.038182 
L 81.235125 48.411362 
L 77.558396 42.873623 
z
" clip-path="url(#peb6ad0371a)" style="fill: #2ca02c; fill-opacity: 0.2"/>
   </g>
   <g id="matplotlib.axis_1">
    <g id="xtick_1">
     <g id="line2d_1">
      <path d="M 75.723533 390.04 
L 75.723533 10.8 
" clip-path="url(#peb6ad0371a)" style="fill: none; stroke: #b0b0b0; stroke-width: 0.8; stroke-linecap: square"/>
     </g>
     <g id="line2d_2">
      <defs>
       <path id="m12c677126e" d="M 0 0 
L 0 3.5 
" style="stroke: #000000; stroke-width: 0.8"/>
      </defs>
      <g>
       <use xlink:href="#m12c677126e" x="75.723533" y="390.04" style="stroke: #000000; stroke-width: 0.8"/>
      </g>
     </g>
     <g id="text_1">
      <!-- 0 -->
      <g transform="translate(72.542283 404.638438) scale(0.1 -0.1)">
       <defs>
        <path id="DejaVuSans-30" d="M 2034 4250 
Q 1547 4250 1301 3770 
Q 1056 3291 1056 2328 
Q 1056 1369 1301 889 
Q 1547 409 2034 409 
Q 2525 409 2770 889 
Q 3016 1369 3016 2328 
Q 3016 3291 2770 3770 
Q 2525 4250 2034 4250 
z
M 2034 4750 
Q 2819 4750 3233 4129 
Q 3647 3509 3647 2328 
Q 3647 1150 3233 529 
Q 2819 -91 2034 -91 
Q 1250 -91 836 529 
Q 422 1150 422 2328 
Q 422 3509 836 4129 
Q 1250 4750 2034 4750 
z
" transform="scale(0.015625)"/>
       </defs>
       <use xlink:href="#DejaVuSans-30"/>
      </g>
     </g>
    </g>
    <g id="xtick_2">
     <g id="line2d_3">
      <path d="M 163.264691 390.04 
L 163.264691 10.8 
" clip-path="url(#peb6ad0371a)" style="fill: none; stroke: #b0b0b0; stroke-width: 0.8; stroke-linecap: square"/>
     </g>
     <g id="line2d_4">
      <g>
       <use xlink:href="#m12c677126e" x="163.264691" y="390.04" style="stroke: #000000; stroke-width: 0.8"/>
      </g>
     </g>
     <g id="text_2">
      <!-- 25000 -->
      <g transform="translate(147.358441 404.638438) scale(0.1 -0.1)">
       <defs>
        <path id="DejaVuSans-32" d="M 1228 531 
L 3431 531 
L 3431 0 
L 469 0 
L 469 531 
Q 828 903 1448 1529 
Q 2069 2156 2228 2338 
Q 2531 2678 2651 2914 
Q 2772 3150 2772 3378 
Q 2772 3750 2511 3984 
Q 2250 4219 1831 4219 
Q 1534 4219 1204 4116 
Q 875 4013 500 3803 
L 500 4441 
Q 881 4594 1212 4672 
Q 1544 4750 1819 4750 
Q 2544 4750 2975 4387 
Q 3406 4025 3406 3419 
Q 3406 3131 3298 2873 
Q 3191 2616 2906 2266 
Q 2828 2175 2409 1742 
Q 1991 1309 1228 531 
z
" transform="scale(0.015625)"/>
        <path id="DejaVuSans-35" d="M 691 4666 
L 3169 4666 
L 3169 4134 
L 1269 4134 
L 1269 2991 
Q 1406 3038 1543 3061 
Q 1681 3084 1819 3084 
Q 2600 3084 3056 2656 
Q 3513 2228 3513 1497 
Q 3513 744 3044 326 
Q 2575 -91 1722 -91 
Q 1428 -91 1123 -41 
Q 819 9 494 109 
L 494 744 
Q 775 591 1075 516 
Q 1375 441 1709 441 
Q 2250 441 2565 725 
Q 2881 1009 2881 1497 
Q 2881 1984 2565 2268 
Q 2250 2553 1709 2553 
Q 1456 2553 1204 2497 
Q 953 2441 691 2322 
L 691 4666 
z
" transform="scale(0.015625)"/>
       </defs>
       <use xlink:href="#DejaVuSans-32"/>
       <use xlink:href="#DejaVuSans-35" transform="translate(63.623047 0)"/>
       <use xlink:href="#DejaVuSans-30" transform="translate(127.246094 0)"/>
       <use xlink:href="#DejaVuSans-30" transform="translate(190.869141 0)"/>
       <use xlink:href="#DejaVuSans-30" transform="translate(254.492188 0)"/>
      </g>
     </g>
    </g>
    <g id="xtick_3">
     <g id="line2d_5">
      <path d="M 250.805849 390.04 
L 250.805849 10.8 
" clip-path="url(#peb6ad0371a)" style="fill: none; stroke: #b0b0b0; stroke-width: 0.8; stroke-linecap: square"/>
     </g>
     <g id="line2d_6">
      <g>
       <use xlink:href="#m12c677126e" x="250.805849" y="390.04" style="stroke: #000000; stroke-width: 0.8"/>
      </g>
     </g>
     <g id="text_3">
      <!-- 50000 -->
      <g transform="translate(234.899599 404.638438) scale(0.1 -0.1)">
       <use xlink:href="#DejaVuSans-35"/>
       <use xlink:href="#DejaVuSans-30" transform="translate(63.623047 0)"/>
       <use xlink:href="#DejaVuSans-30" transform="translate(127.246094 0)"/>
       <use xlink:href="#DejaVuSans-30" transform="translate(190.869141 0)"/>
       <use xlink:href="#DejaVuSans-30" transform="translate(254.492188 0)"/>
      </g>
     </g>
    </g>
    <g id="xtick_4">
     <g id="line2d_7">
      <path d="M 338.347007 390.04 
L 338.347007 10.8 
" clip-path="url(#peb6ad0371a)" style="fill: none; stroke: #b0b0b0; stroke-width: 0.8; stroke-linecap: square"/>
     </g>
     <g id="line2d_8">
      <g>
       <use xlink:href="#m12c677126e" x="338.347007" y="390.04" style="stroke: #000000; stroke-width: 0.8"/>
      </g>
     </g>
     <g id="text_4">
      <!-- 75000 -->
      <g transform="translate(322.440757 404.638438) scale(0.1 -0.1)">
       <defs>
        <path id="DejaVuSans-37" d="M 525 4666 
L 3525 4666 
L 3525 4397 
L 1831 0 
L 1172 0 
L 2766 4134 
L 525 4134 
L 525 4666 
z
" transform="scale(0.015625)"/>
       </defs>
       <use xlink:href="#DejaVuSans-37"/>
       <use xlink:href="#DejaVuSans-35" transform="translate(63.623047 0)"/>
       <use xlink:href="#DejaVuSans-30" transform="translate(127.246094 0)"/>
       <use xlink:href="#DejaVuSans-30" transform="translate(190.869141 0)"/>
       <use xlink:href="#DejaVuSans-30" transform="translate(254.492188 0)"/>
      </g>
     </g>
    </g>
    <g id="xtick_5">
     <g id="line2d_9">
      <path d="M 425.888165 390.04 
L 425.888165 10.8 
" clip-path="url(#peb6ad0371a)" style="fill: none; stroke: #b0b0b0; stroke-width: 0.8; stroke-linecap: square"/>
     </g>
     <g id="line2d_10">
      <g>
       <use xlink:href="#m12c677126e" x="425.888165" y="390.04" style="stroke: #000000; stroke-width: 0.8"/>
      </g>
     </g>
     <g id="text_5">
      <!-- 100000 -->
      <g transform="translate(406.800665 404.638438) scale(0.1 -0.1)">
       <defs>
        <path id="DejaVuSans-31" d="M 794 531 
L 1825 531 
L 1825 4091 
L 703 3866 
L 703 4441 
L 1819 4666 
L 2450 4666 
L 2450 531 
L 3481 531 
L 3481 0 
L 794 0 
L 794 531 
z
" transform="scale(0.015625)"/>
       </defs>
       <use xlink:href="#DejaVuSans-31"/>
       <use xlink:href="#DejaVuSans-30" transform="translate(63.623047 0)"/>
       <use xlink:href="#DejaVuSans-30" transform="translate(127.246094 0)"/>
       <use xlink:href="#DejaVuSans-30" transform="translate(190.869141 0)"/>
       <use xlink:href="#DejaVuSans-30" transform="translate(254.492188 0)"/>
       <use xlink:href="#DejaVuSans-30" transform="translate(318.115234 0)"/>
      </g>
     </g>
    </g>
    <g id="xtick_6">
     <g id="line2d_11">
      <path d="M 513.429323 390.04 
L 513.429323 10.8 
" clip-path="url(#peb6ad0371a)" style="fill: none; stroke: #b0b0b0; stroke-width: 0.8; stroke-linecap: square"/>
     </g>
     <g id="line2d_12">
      <g>
       <use xlink:href="#m12c677126e" x="513.429323" y="390.04" style="stroke: #000000; stroke-width: 0.8"/>
      </g>
     </g>
     <g id="text_6">
      <!-- 125000 -->
      <g transform="translate(494.341823 404.638438) scale(0.1 -0.1)">
       <use xlink:href="#DejaVuSans-31"/>
       <use xlink:href="#DejaVuSans-32" transform="translate(63.623047 0)"/>
       <use xlink:href="#DejaVuSans-35" transform="translate(127.246094 0)"/>
       <use xlink:href="#DejaVuSans-30" transform="translate(190.869141 0)"/>
       <use xlink:href="#DejaVuSans-30" transform="translate(254.492188 0)"/>
       <use xlink:href="#DejaVuSans-30" transform="translate(318.115234 0)"/>
      </g>
     </g>
    </g>
    <g id="xtick_7">
     <g id="line2d_13">
      <path d="M 600.970481 390.04 
L 600.970481 10.8 
" clip-path="url(#peb6ad0371a)" style="fill: none; stroke: #b0b0b0; stroke-width: 0.8; stroke-linecap: square"/>
     </g>
     <g id="line2d_14">
      <g>
       <use xlink:href="#m12c677126e" x="600.970481" y="390.04" style="stroke: #000000; stroke-width: 0.8"/>
      </g>
     </g>
     <g id="text_7">
      <!-- 150000 -->
      <g transform="translate(581.882981 404.638438) scale(0.1 -0.1)">
       <use xlink:href="#DejaVuSans-31"/>
       <use xlink:href="#DejaVuSans-35" transform="translate(63.623047 0)"/>
       <use xlink:href="#DejaVuSans-30" transform="translate(127.246094 0)"/>
       <use xlink:href="#DejaVuSans-30" transform="translate(190.869141 0)"/>
       <use xlink:href="#DejaVuSans-30" transform="translate(254.492188 0)"/>
       <use xlink:href="#DejaVuSans-30" transform="translate(318.115234 0)"/>
      </g>
     </g>
    </g>
    <g id="xtick_8">
     <g id="line2d_15">
      <path d="M 688.51164 390.04 
L 688.51164 10.8 
" clip-path="url(#peb6ad0371a)" style="fill: none; stroke: #b0b0b0; stroke-width: 0.8; stroke-linecap: square"/>
     </g>
     <g id="line2d_16">
      <g>
       <use xlink:href="#m12c677126e" x="688.51164" y="390.04" style="stroke: #000000; stroke-width: 0.8"/>
      </g>
     </g>
     <g id="text_8">
      <!-- 175000 -->
      <g transform="translate(669.42414 404.638438) scale(0.1 -0.1)">
       <use xlink:href="#DejaVuSans-31"/>
       <use xlink:href="#DejaVuSans-37" transform="translate(63.623047 0)"/>
       <use xlink:href="#DejaVuSans-35" transform="translate(127.246094 0)"/>
       <use xlink:href="#DejaVuSans-30" transform="translate(190.869141 0)"/>
       <use xlink:href="#DejaVuSans-30" transform="translate(254.492188 0)"/>
       <use xlink:href="#DejaVuSans-30" transform="translate(318.115234 0)"/>
      </g>
     </g>
    </g>
    <g id="text_9">
     <!-- Steps -->
     <g transform="translate(360.079209 418.316562) scale(0.1 -0.1)">
      <defs>
       <path id="DejaVuSans-53" d="M 3425 4513 
L 3425 3897 
Q 3066 4069 2747 4153 
Q 2428 4238 2131 4238 
Q 1616 4238 1336 4038 
Q 1056 3838 1056 3469 
Q 1056 3159 1242 3001 
Q 1428 2844 1947 2747 
L 2328 2669 
Q 3034 2534 3370 2195 
Q 3706 1856 3706 1288 
Q 3706 609 3251 259 
Q 2797 -91 1919 -91 
Q 1588 -91 1214 -16 
Q 841 59 441 206 
L 441 856 
Q 825 641 1194 531 
Q 1563 422 1919 422 
Q 2459 422 2753 634 
Q 3047 847 3047 1241 
Q 3047 1584 2836 1778 
Q 2625 1972 2144 2069 
L 1759 2144 
Q 1053 2284 737 2584 
Q 422 2884 422 3419 
Q 422 4038 858 4394 
Q 1294 4750 2059 4750 
Q 2388 4750 2728 4690 
Q 3069 4631 3425 4513 
z
" transform="scale(0.015625)"/>
       <path id="DejaVuSans-74" d="M 1172 4494 
L 1172 3500 
L 2356 3500 
L 2356 3053 
L 1172 3053 
L 1172 1153 
Q 1172 725 1289 603 
Q 1406 481 1766 481 
L 2356 481 
L 2356 0 
L 1766 0 
Q 1100 0 847 248 
Q 594 497 594 1153 
L 594 3053 
L 172 3053 
L 172 3500 
L 594 3500 
L 594 4494 
L 1172 4494 
z
" transform="scale(0.015625)"/>
       <path id="DejaVuSans-65" d="M 3597 1894 
L 3597 1613 
L 953 1613 
Q 991 1019 1311 708 
Q 1631 397 2203 397 
Q 2534 397 2845 478 
Q 3156 559 3463 722 
L 3463 178 
Q 3153 47 2828 -22 
Q 2503 -91 2169 -91 
Q 1331 -91 842 396 
Q 353 884 353 1716 
Q 353 2575 817 3079 
Q 1281 3584 2069 3584 
Q 2775 3584 3186 3129 
Q 3597 2675 3597 1894 
z
M 3022 2063 
Q 3016 2534 2758 2815 
Q 2500 3097 2075 3097 
Q 1594 3097 1305 2825 
Q 1016 2553 972 2059 
L 3022 2063 
z
" transform="scale(0.015625)"/>
       <path id="DejaVuSans-70" d="M 1159 525 
L 1159 -1331 
L 581 -1331 
L 581 3500 
L 1159 3500 
L 1159 2969 
Q 1341 3281 1617 3432 
Q 1894 3584 2278 3584 
Q 2916 3584 3314 3078 
Q 3713 2572 3713 1747 
Q 3713 922 3314 415 
Q 2916 -91 2278 -91 
Q 1894 -91 1617 61 
Q 1341 213 1159 525 
z
M 3116 1747 
Q 3116 2381 2855 2742 
Q 2594 3103 2138 3103 
Q 1681 3103 1420 2742 
Q 1159 2381 1159 1747 
Q 1159 1113 1420 752 
Q 1681 391 2138 391 
Q 2594 391 2855 752 
Q 3116 1113 3116 1747 
z
" transform="scale(0.015625)"/>
       <path id="DejaVuSans-73" d="M 2834 3397 
L 2834 2853 
Q 2591 2978 2328 3040 
Q 2066 3103 1784 3103 
Q 1356 3103 1142 2972 
Q 928 2841 928 2578 
Q 928 2378 1081 2264 
Q 1234 2150 1697 2047 
L 1894 2003 
Q 2506 1872 2764 1633 
Q 3022 1394 3022 966 
Q 3022 478 2636 193 
Q 2250 -91 1575 -91 
Q 1294 -91 989 -36 
Q 684 19 347 128 
L 347 722 
Q 666 556 975 473 
Q 1284 391 1588 391 
Q 1994 391 2212 530 
Q 2431 669 2431 922 
Q 2431 1156 2273 1281 
Q 2116 1406 1581 1522 
L 1381 1569 
Q 847 1681 609 1914 
Q 372 2147 372 2553 
Q 372 3047 722 3315 
Q 1072 3584 1716 3584 
Q 2034 3584 2315 3537 
Q 2597 3491 2834 3397 
z
" transform="scale(0.015625)"/>
      </defs>
      <use xlink:href="#DejaVuSans-53"/>
      <use xlink:href="#DejaVuSans-74" transform="translate(63.476562 0)"/>
      <use xlink:href="#DejaVuSans-65" transform="translate(102.685547 0)"/>
      <use xlink:href="#DejaVuSans-70" transform="translate(164.208984 0)"/>
      <use xlink:href="#DejaVuSans-73" transform="translate(227.685547 0)"/>
     </g>
    </g>
   </g>
   <g id="matplotlib.axis_2">
    <g id="ytick_1">
     <g id="line2d_17">
      <path d="M 47.63 368.124701 
L 700.508105 368.124701 
" clip-path="url(#peb6ad0371a)" style="fill: none; stroke: #b0b0b0; stroke-width: 0.8; stroke-linecap: square"/>
     </g>
     <g id="line2d_18">
      <defs>
       <path id="m49ed54cc53" d="M 0 0 
L -3.5 0 
" style="stroke: #000000; stroke-width: 0.8"/>
      </defs>
      <g>
       <use xlink:href="#m49ed54cc53" x="47.63" y="368.124701" style="stroke: #000000; stroke-width: 0.8"/>
      </g>
     </g>
     <g id="text_10">
      <!-- 2.0 -->
      <g transform="translate(24.726875 371.923919) scale(0.1 -0.1)">
       <defs>
        <path id="DejaVuSans-2e" d="M 684 794 
L 1344 794 
L 1344 0 
L 684 0 
L 684 794 
z
" transform="scale(0.015625)"/>
       </defs>
       <use xlink:href="#DejaVuSans-32"/>
       <use xlink:href="#DejaVuSans-2e" transform="translate(63.623047 0)"/>
       <use xlink:href="#DejaVuSans-30" transform="translate(95.410156 0)"/>
      </g>
     </g>
    </g>
    <g id="ytick_2">
     <g id="line2d_19">
      <path d="M 47.63 313.904505 
L 700.508105 313.904505 
" clip-path="url(#peb6ad0371a)" style="fill: none; stroke: #b0b0b0; stroke-width: 0.8; stroke-linecap: square"/>
     </g>
     <g id="line2d_20">
      <g>
       <use xlink:href="#m49ed54cc53" x="47.63" y="313.904505" style="stroke: #000000; stroke-width: 0.8"/>
      </g>
     </g>
     <g id="text_11">
      <!-- 2.5 -->
      <g transform="translate(24.726875 317.703724) scale(0.1 -0.1)">
       <use xlink:href="#DejaVuSans-32"/>
       <use xlink:href="#DejaVuSans-2e" transform="translate(63.623047 0)"/>
       <use xlink:href="#DejaVuSans-35" transform="translate(95.410156 0)"/>
      </g>
     </g>
    </g>
    <g id="ytick_3">
     <g id="line2d_21">
      <path d="M 47.63 259.68431 
L 700.508105 259.68431 
" clip-path="url(#peb6ad0371a)" style="fill: none; stroke: #b0b0b0; stroke-width: 0.8; stroke-linecap: square"/>
     </g>
     <g id="line2d_22">
      <g>
       <use xlink:href="#m49ed54cc53" x="47.63" y="259.68431" style="stroke: #000000; stroke-width: 0.8"/>
      </g>
     </g>
     <g id="text_12">
      <!-- 3.0 -->
      <g transform="translate(24.726875 263.483528) scale(0.1 -0.1)">
       <defs>
        <path id="DejaVuSans-33" d="M 2597 2516 
Q 3050 2419 3304 2112 
Q 3559 1806 3559 1356 
Q 3559 666 3084 287 
Q 2609 -91 1734 -91 
Q 1441 -91 1130 -33 
Q 819 25 488 141 
L 488 750 
Q 750 597 1062 519 
Q 1375 441 1716 441 
Q 2309 441 2620 675 
Q 2931 909 2931 1356 
Q 2931 1769 2642 2001 
Q 2353 2234 1838 2234 
L 1294 2234 
L 1294 2753 
L 1863 2753 
Q 2328 2753 2575 2939 
Q 2822 3125 2822 3475 
Q 2822 3834 2567 4026 
Q 2313 4219 1838 4219 
Q 1578 4219 1281 4162 
Q 984 4106 628 3988 
L 628 4550 
Q 988 4650 1302 4700 
Q 1616 4750 1894 4750 
Q 2613 4750 3031 4423 
Q 3450 4097 3450 3541 
Q 3450 3153 3228 2886 
Q 3006 2619 2597 2516 
z
" transform="scale(0.015625)"/>
       </defs>
       <use xlink:href="#DejaVuSans-33"/>
       <use xlink:href="#DejaVuSans-2e" transform="translate(63.623047 0)"/>
       <use xlink:href="#DejaVuSans-30" transform="translate(95.410156 0)"/>
      </g>
     </g>
    </g>
    <g id="ytick_4">
     <g id="line2d_23">
      <path d="M 47.63 205.464114 
L 700.508105 205.464114 
" clip-path="url(#peb6ad0371a)" style="fill: none; stroke: #b0b0b0; stroke-width: 0.8; stroke-linecap: square"/>
     </g>
     <g id="line2d_24">
      <g>
       <use xlink:href="#m49ed54cc53" x="47.63" y="205.464114" style="stroke: #000000; stroke-width: 0.8"/>
      </g>
     </g>
     <g id="text_13">
      <!-- 3.5 -->
      <g transform="translate(24.726875 209.263333) scale(0.1 -0.1)">
       <use xlink:href="#DejaVuSans-33"/>
       <use xlink:href="#DejaVuSans-2e" transform="translate(63.623047 0)"/>
       <use xlink:href="#DejaVuSans-35" transform="translate(95.410156 0)"/>
      </g>
     </g>
    </g>
    <g id="ytick_5">
     <g id="line2d_25">
      <path d="M 47.63 151.243919 
L 700.508105 151.243919 
" clip-path="url(#peb6ad0371a)" style="fill: none; stroke: #b0b0b0; stroke-width: 0.8; stroke-linecap: square"/>
     </g>
     <g id="line2d_26">
      <g>
       <use xlink:href="#m49ed54cc53" x="47.63" y="151.243919" style="stroke: #000000; stroke-width: 0.8"/>
      </g>
     </g>
     <g id="text_14">
      <!-- 4.0 -->
      <g transform="translate(24.726875 155.043137) scale(0.1 -0.1)">
       <defs>
        <path id="DejaVuSans-34" d="M 2419 4116 
L 825 1625 
L 2419 1625 
L 2419 4116 
z
M 2253 4666 
L 3047 4666 
L 3047 1625 
L 3713 1625 
L 3713 1100 
L 3047 1100 
L 3047 0 
L 2419 0 
L 2419 1100 
L 313 1100 
L 313 1709 
L 2253 4666 
z
" transform="scale(0.015625)"/>
       </defs>
       <use xlink:href="#DejaVuSans-34"/>
       <use xlink:href="#DejaVuSans-2e" transform="translate(63.623047 0)"/>
       <use xlink:href="#DejaVuSans-30" transform="translate(95.410156 0)"/>
      </g>
     </g>
    </g>
    <g id="ytick_6">
     <g id="line2d_27">
      <path d="M 47.63 97.023723 
L 700.508105 97.023723 
" clip-path="url(#peb6ad0371a)" style="fill: none; stroke: #b0b0b0; stroke-width: 0.8; stroke-linecap: square"/>
     </g>
     <g id="line2d_28">
      <g>
       <use xlink:href="#m49ed54cc53" x="47.63" y="97.023723" style="stroke: #000000; stroke-width: 0.8"/>
      </g>
     </g>
     <g id="text_15">
      <!-- 4.5 -->
      <g transform="translate(24.726875 100.822942) scale(0.1 -0.1)">
       <use xlink:href="#DejaVuSans-34"/>
       <use xlink:href="#DejaVuSans-2e" transform="translate(63.623047 0)"/>
       <use xlink:href="#DejaVuSans-35" transform="translate(95.410156 0)"/>
      </g>
     </g>
    </g>
    <g id="ytick_7">
     <g id="line2d_29">
      <path d="M 47.63 42.803528 
L 700.508105 42.803528 
" clip-path="url(#peb6ad0371a)" style="fill: none; stroke: #b0b0b0; stroke-width: 0.8; stroke-linecap: square"/>
     </g>
     <g id="line2d_30">
      <g>
       <use xlink:href="#m49ed54cc53" x="47.63" y="42.803528" style="stroke: #000000; stroke-width: 0.8"/>
      </g>
     </g>
     <g id="text_16">
      <!-- 5.0 -->
      <g transform="translate(24.726875 46.602747) scale(0.1 -0.1)">
       <use xlink:href="#DejaVuSans-35"/>
       <use xlink:href="#DejaVuSans-2e" transform="translate(63.623047 0)"/>
       <use xlink:href="#DejaVuSans-30" transform="translate(95.410156 0)"/>
      </g>
     </g>
    </g>
    <g id="text_17">
     <!-- Circuit Depth -->
     <g transform="translate(18.647187 233.329375) rotate(-90) scale(0.1 -0.1)">
      <defs>
       <path id="DejaVuSans-43" d="M 4122 4306 
L 4122 3641 
Q 3803 3938 3442 4084 
Q 3081 4231 2675 4231 
Q 1875 4231 1450 3742 
Q 1025 3253 1025 2328 
Q 1025 1406 1450 917 
Q 1875 428 2675 428 
Q 3081 428 3442 575 
Q 3803 722 4122 1019 
L 4122 359 
Q 3791 134 3420 21 
Q 3050 -91 2638 -91 
Q 1578 -91 968 557 
Q 359 1206 359 2328 
Q 359 3453 968 4101 
Q 1578 4750 2638 4750 
Q 3056 4750 3426 4639 
Q 3797 4528 4122 4306 
z
" transform="scale(0.015625)"/>
       <path id="DejaVuSans-69" d="M 603 3500 
L 1178 3500 
L 1178 0 
L 603 0 
L 603 3500 
z
M 603 4863 
L 1178 4863 
L 1178 4134 
L 603 4134 
L 603 4863 
z
" transform="scale(0.015625)"/>
       <path id="DejaVuSans-72" d="M 2631 2963 
Q 2534 3019 2420 3045 
Q 2306 3072 2169 3072 
Q 1681 3072 1420 2755 
Q 1159 2438 1159 1844 
L 1159 0 
L 581 0 
L 581 3500 
L 1159 3500 
L 1159 2956 
Q 1341 3275 1631 3429 
Q 1922 3584 2338 3584 
Q 2397 3584 2469 3576 
Q 2541 3569 2628 3553 
L 2631 2963 
z
" transform="scale(0.015625)"/>
       <path id="DejaVuSans-63" d="M 3122 3366 
L 3122 2828 
Q 2878 2963 2633 3030 
Q 2388 3097 2138 3097 
Q 1578 3097 1268 2742 
Q 959 2388 959 1747 
Q 959 1106 1268 751 
Q 1578 397 2138 397 
Q 2388 397 2633 464 
Q 2878 531 3122 666 
L 3122 134 
Q 2881 22 2623 -34 
Q 2366 -91 2075 -91 
Q 1284 -91 818 406 
Q 353 903 353 1747 
Q 353 2603 823 3093 
Q 1294 3584 2113 3584 
Q 2378 3584 2631 3529 
Q 2884 3475 3122 3366 
z
" transform="scale(0.015625)"/>
       <path id="DejaVuSans-75" d="M 544 1381 
L 544 3500 
L 1119 3500 
L 1119 1403 
Q 1119 906 1312 657 
Q 1506 409 1894 409 
Q 2359 409 2629 706 
Q 2900 1003 2900 1516 
L 2900 3500 
L 3475 3500 
L 3475 0 
L 2900 0 
L 2900 538 
Q 2691 219 2414 64 
Q 2138 -91 1772 -91 
Q 1169 -91 856 284 
Q 544 659 544 1381 
z
M 1991 3584 
L 1991 3584 
z
" transform="scale(0.015625)"/>
       <path id="DejaVuSans-20" transform="scale(0.015625)"/>
       <path id="DejaVuSans-44" d="M 1259 4147 
L 1259 519 
L 2022 519 
Q 2988 519 3436 956 
Q 3884 1394 3884 2338 
Q 3884 3275 3436 3711 
Q 2988 4147 2022 4147 
L 1259 4147 
z
M 628 4666 
L 1925 4666 
Q 3281 4666 3915 4102 
Q 4550 3538 4550 2338 
Q 4550 1131 3912 565 
Q 3275 0 1925 0 
L 628 0 
L 628 4666 
z
" transform="scale(0.015625)"/>
       <path id="DejaVuSans-68" d="M 3513 2113 
L 3513 0 
L 2938 0 
L 2938 2094 
Q 2938 2591 2744 2837 
Q 2550 3084 2163 3084 
Q 1697 3084 1428 2787 
Q 1159 2491 1159 1978 
L 1159 0 
L 581 0 
L 581 4863 
L 1159 4863 
L 1159 2956 
Q 1366 3272 1645 3428 
Q 1925 3584 2291 3584 
Q 2894 3584 3203 3211 
Q 3513 2838 3513 2113 
z
" transform="scale(0.015625)"/>
      </defs>
      <use xlink:href="#DejaVuSans-43"/>
      <use xlink:href="#DejaVuSans-69" transform="translate(69.824219 0)"/>
      <use xlink:href="#DejaVuSans-72" transform="translate(97.607422 0)"/>
      <use xlink:href="#DejaVuSans-63" transform="translate(136.470703 0)"/>
      <use xlink:href="#DejaVuSans-75" transform="translate(191.451172 0)"/>
      <use xlink:href="#DejaVuSans-69" transform="translate(254.830078 0)"/>
      <use xlink:href="#DejaVuSans-74" transform="translate(282.613281 0)"/>
      <use xlink:href="#DejaVuSans-20" transform="translate(321.822266 0)"/>
      <use xlink:href="#DejaVuSans-44" transform="translate(353.609375 0)"/>
      <use xlink:href="#DejaVuSans-65" transform="translate(430.611328 0)"/>
      <use xlink:href="#DejaVuSans-70" transform="translate(492.134766 0)"/>
      <use xlink:href="#DejaVuSans-74" transform="translate(555.611328 0)"/>
      <use xlink:href="#DejaVuSans-68" transform="translate(594.820312 0)"/>
     </g>
    </g>
   </g>
   <g id="line2d_31">
    <path d="M 77.306277 269.082477 
L 80.625838 272.516423 
L 83.850854 265.287063 
L 87.152907 266.371467 
L 90.574015 274.865964 
L 93.827045 280.830186 
L 97.111589 264.564127 
L 100.581721 255.708162 
L 104.097373 244.864123 
L 107.714574 246.129261 
L 111.377296 245.767793 
L 115.02251 236.369626 
L 118.559173 235.285222 
L 122.067822 230.766872 
L 125.471423 232.754946 
L 128.458327 236.731094 
L 131.406713 237.45403 
L 134.369106 242.153113 
L 137.243958 242.333847 
L 140.129314 247.394399 
L 143.011169 242.333847 
L 145.851004 247.213665 
L 148.690839 247.032931 
L 151.52017 252.635684 
L 154.363506 255.16596 
L 157.203342 254.985226 
L 160.036173 254.26229 
L 162.851497 254.804492 
L 165.663319 255.888896 
L 168.492649 256.431098 
L 171.307973 254.985226 
L 174.105788 257.696236 
L 176.910607 256.9733 
L 179.729432 257.154034 
L 182.537753 258.238438 
L 185.353076 257.87697 
L 188.182407 257.696236 
L 190.990727 257.87697 
L 193.809552 257.87697 
L 196.617873 259.142108 
L 199.422691 259.142108 
L 202.24852 258.961374 
L 205.05684 259.68431 
L 207.875666 257.515502 
L 210.690989 258.961374 
L 213.506313 258.238438 
L 216.325138 257.696236 
L 219.13696 257.334768 
L 221.94528 259.142108 
L 224.750099 257.87697 
L 227.579429 257.696236 
L 230.394753 258.599906 
L 233.199572 258.599906 
L 236.00439 259.865044 
L 238.812711 258.599906 
L 241.624533 259.142108 
L 244.436355 258.961374 
L 247.237672 258.419172 
L 250.056497 255.346694 
L 252.878824 260.226512 
L 255.610108 267.636605 
L 258.320382 261.853117 
L 261.104191 259.322842 
L 263.916013 266.009999 
L 266.479218 264.744861 
L 269.287539 260.226512 
L 272.095859 260.58798 
L 274.697582 269.624679 
L 277.425365 259.865044 
L 280.230183 258.238438 
L 283.05251 258.599906 
L 285.881841 258.419172 
L 288.700666 260.226512 
L 291.529996 266.732935 
L 294.359326 275.769634 
L 297.17465 270.889817 
L 300.042498 247.032931 
L 303.659699 243.779719 
L 306.926735 254.443024 
L 309.815593 258.78064 
L 312.683442 256.06963 
L 315.628326 256.9733 
L 318.566207 256.9733 
L 321.448062 259.322842 
L 324.431465 258.238438 
L 327.439379 258.78064 
L 330.401772 259.68431 
L 336.137469 258.961374 
L 339.005317 260.045778 
L 341.855657 259.142108 
L 344.705997 259.503576 
L 347.552836 258.419172 
L 350.375163 258.78064 
L 353.204493 258.238438 
L 356.044328 258.78064 
L 358.884163 232.93568 
L 364.518312 254.081556 
L 367.337137 259.142108 
L 370.145458 259.68431 
L 373.086841 247.936601 
L 376.052735 255.16596 
L 378.91358 257.696236 
L 381.76392 257.696236 
L 384.600254 259.142108 
L 387.405072 258.057704 
L 390.255412 258.238438 
L 393.084743 258.057704 
L 398.704885 260.58798 
L 401.5027 258.961374 
L 404.339034 259.142108 
L 407.154358 258.78064 
L 410.004698 259.322842 
L 415.701876 258.599906 
L 418.53821 258.599906 
L 421.423566 253.35862 
L 424.354444 253.539354 
L 427.274817 254.804492 
L 430.188187 256.611832 
L 433.024521 257.696236 
L 435.825838 261.310915 
L 438.623653 259.503576 
L 441.435475 260.045778 
L 444.268307 258.057704 
L 447.090634 259.322842 
L 449.902456 259.322842 
L 452.724783 258.961374 
L 455.550611 257.696236 
L 458.404453 257.515502 
L 461.230282 258.78064 
L 464.038602 259.503576 
L 466.871434 256.792566 
L 469.88285 281.91459 
L 472.785715 262.214585 
L 475.64656 259.865044 
L 478.479392 260.407246 
L 481.30522 259.865044 
L 484.152059 259.503576 
L 486.974386 254.985226 
L 489.793211 254.26229 
L 492.801125 252.274216 
L 495.749511 266.190733 
L 498.673386 256.250364 
L 501.534231 262.395319 
L 504.377568 262.214585 
L 507.213901 257.334768 
L 510.050235 259.142108 
L 515.701892 258.78064 
L 518.524219 258.78064 
L 521.336041 259.322842 
L 524.165371 258.961374 
L 526.994701 259.865044 
L 529.82053 258.78064 
L 532.642857 258.599906 
L 535.454679 258.238438 
L 538.270002 256.431098 
L 541.351451 259.322842 
L 544.250814 259.322842 
L 547.066138 259.142108 
L 552.738805 259.142108 
L 555.543624 259.68431 
L 558.358947 259.68431 
L 561.216291 257.515502 
L 564.147169 258.419172 
L 566.990506 259.503576 
L 569.823337 259.142108 
L 572.659671 253.35862 
L 575.474995 259.68431 
L 578.318331 255.888896 
L 581.210691 241.610911 
L 584.054028 258.78064 
L 586.918375 252.093482 
L 589.786223 257.334768 
L 592.612052 258.419172 
L 595.448385 258.419172 
L 598.270712 259.503576 
L 601.117551 256.431098 
L 603.957386 256.9733 
L 606.821733 258.238438 
L 609.658066 257.87697 
L 612.47339 258.599906 
L 615.34474 256.431098 
L 618.223093 255.16596 
L 621.076935 254.623758 
L 623.920271 258.238438 
L 626.756605 258.238438 
L 629.589437 258.057704 
L 632.411764 259.142108 
L 635.237592 257.334768 
L 638.073926 254.804492 
L 640.906758 255.346694 
L 643.73959 258.78064 
L 646.575923 258.961374 
L 649.394748 259.322842 
L 652.224079 258.419172 
L 655.049907 257.696236 
L 657.910752 258.961374 
L 660.747086 257.87697 
L 663.628941 259.142108 
L 666.514297 249.924674 
L 669.543221 252.45495 
L 669.543221 252.45495 
" clip-path="url(#peb6ad0371a)" style="fill: none; stroke: #1f77b4; stroke-width: 1.5; stroke-linecap: square"/>
   </g>
   <g id="line2d_32">
    <path d="M 77.505871 225.887054 
L 81.070547 234.74302 
L 84.516167 221.730173 
L 88.143873 228.41733 
L 91.929153 235.64669 
L 95.532347 237.45403 
L 99.342138 235.285222 
L 103.193949 221.549439 
L 107.049261 211.60907 
L 110.820534 224.802651 
L 114.458745 215.946685 
L 118.303553 227.152192 
L 122.109842 226.067788 
L 126.066703 226.60999 
L 130.104101 229.863202 
L 134.127492 230.405404 
L 138.112366 232.212744 
L 142.149764 229.140266 
L 149.811366 222.814577 
L 153.54062 222.995311 
L 157.168325 223.356779 
L 160.824044 222.453109 
L 164.399225 223.356779 
L 167.963901 225.344853 
L 171.560092 222.995311 
L 175.100256 222.633843 
L 178.657929 221.187971 
L 182.219103 222.633843 
L 185.752264 223.356779 
L 189.292428 223.176045 
L 192.822088 224.441183 
L 196.351747 223.537513 
L 199.881407 223.356779 
L 203.411066 223.718247 
L 206.944228 224.260449 
L 210.452877 224.079715 
L 213.982537 222.633843 
L 217.529704 223.176045 
L 221.066367 223.356779 
L 224.610033 222.633843 
L 228.146696 223.718247 
L 231.655346 224.079715 
L 235.178002 222.453109 
L 238.721668 223.176045 
L 242.251327 224.802651 
L 245.773984 224.621917 
L 249.289637 223.898981 
L 252.812293 223.356779 
L 256.348956 222.995311 
L 259.896123 223.176045 
L 263.415278 222.814577 
L 266.969449 222.814577 
L 270.513115 223.537513 
L 274.074289 224.079715 
L 277.614454 223.356779 
L 281.186133 219.742099 
L 284.862862 221.549439 
L 288.501072 222.814577 
L 292.04824 223.537513 
L 295.703959 222.814577 
L 299.324661 222.633843 
L 302.927855 222.272375 
L 306.503036 224.260449 
L 310.081718 224.260449 
L 313.649896 223.176045 
L 317.267097 222.633843 
L 320.835274 223.176045 
L 327.996141 222.453109 
L 331.543309 208.175124 
L 335.07647 208.89806 
L 338.637644 217.392557 
L 342.216327 218.476961 
L 345.777501 218.657695 
L 349.335174 221.910907 
L 352.850826 223.898981 
L 356.383988 212.51274 
L 359.913647 221.730173 
L 363.506336 223.718247 
L 367.106029 213.958611 
L 370.674206 221.007237 
L 374.224876 225.344853 
L 377.772043 221.549439 
L 381.438267 222.633843 
L 384.981933 226.067788 
L 388.550111 224.441183 
L 392.083272 224.260449 
L 395.644446 222.633843 
L 399.209122 235.104488 
L 402.808815 240.707241 
L 406.313963 234.562286 
L 409.836619 244.502655 
L 413.338265 252.274216 
L 416.846915 243.960453 
L 420.355564 247.032931 
L 423.850207 245.406325 
L 427.355355 230.22467 
L 430.864005 245.767793 
L 434.372654 257.515502 
L 437.895311 251.009078 
L 441.40396 245.044857 
L 444.881095 239.442103 
L 448.389745 235.465956 
L 451.891391 236.731094 
L 455.403542 236.55036 
L 458.915694 232.93568 
L 462.420842 234.381552 
L 465.922488 230.766872 
L 469.431137 231.851276 
L 472.932784 226.971458 
L 476.441433 227.152192 
L 479.946581 224.079715 
L 483.451729 229.682468 
L 486.953376 238.719167 
L 490.455022 238.899901 
L 493.96017 234.200818 
L 497.461816 231.12834 
L 500.963463 228.236596 
L 504.482617 235.465956 
L 508.015778 238.357699 
L 511.531431 227.694394 
L 515.043582 224.079715 
L 518.54873 224.260449 
L 522.050377 223.718247 
L 525.54502 225.344853 
L 529.025656 224.441183 
L 532.537807 217.754025 
L 536.028949 223.718247 
L 539.527094 224.260449 
L 543.032241 223.176045 
L 546.533888 223.356779 
L 550.035534 223.356779 
L 553.53718 223.537513 
L 557.038827 224.079715 
L 560.540473 221.910907 
L 564.045621 222.272375 
L 567.550769 223.537513 
L 571.052415 223.898981 
L 574.554062 223.176045 
L 578.115236 226.429256 
L 582.019572 227.332926 
L 585.552733 223.537513 
L 589.057881 223.537513 
L 592.56653 223.356779 
L 596.068177 222.995311 
L 599.573325 223.176045 
L 603.074971 222.995311 
L 606.587122 217.573291 
L 610.088769 186.125578 
L 613.593916 212.693474 
L 617.179602 223.537513 
L 620.68475 218.115493 
L 624.067341 248.298069 
L 627.442928 226.248522 
L 630.944574 214.139345 
L 634.44622 220.284301 
L 637.951368 224.621917 
L 641.453015 222.995311 
L 644.961664 222.814577 
L 648.463311 223.176045 
L 651.964957 222.995311 
L 655.466603 222.453109 
L 658.971751 223.537513 
L 662.473397 223.537513 
L 665.975044 224.079715 
L 669.487195 223.356779 
L 669.487195 223.356779 
" clip-path="url(#peb6ad0371a)" style="fill: none; stroke: #ff7f0e; stroke-width: 1.5; stroke-linecap: square"/>
   </g>
   <g id="line2d_33">
    <path d="M 77.558396 193.354937 
L 81.235125 198.776957 
L 85.100942 185.944844 
L 89.029789 196.788883 
L 92.96564 224.802651 
L 96.848966 227.332926 
L 100.830337 218.476961 
L 104.860732 226.067788 
L 108.824596 221.007237 
L 112.76745 224.983385 
L 116.731313 212.151272 
L 120.649656 206.548518 
L 124.631028 200.222829 
L 128.601894 186.125578 
L 132.618283 183.414568 
L 136.603156 183.595302 
L 140.633551 178.53475 
L 144.345296 198.415489 
L 148.004517 194.077873 
L 151.611212 197.150351 
L 154.937776 203.656774 
L 158.026228 209.259528 
L 161.093671 208.175124 
L 164.073572 211.60907 
L 166.955427 214.320079 
L 169.85479 217.392557 
L 172.740146 217.573291 
L 175.629005 213.597144 
L 178.587896 217.573291 
L 181.497764 219.922833 
L 184.376117 218.296227 
L 187.219454 222.995311 
L 190.090804 220.465035 
L 192.920134 220.284301 
L 195.745963 219.561365 
L 198.624316 219.922833 
L 201.471154 221.549439 
L 204.317993 221.007237 
L 207.14032 221.730173 
L 209.976653 221.368705 
L 215.663327 218.838429 
L 218.49966 220.465035 
L 221.314984 223.176045 
L 224.133809 221.910907 
L 226.94213 219.742099 
L 229.764457 220.826503 
L 232.60079 213.597144 
L 235.416114 220.284301 
L 238.231437 220.645769 
L 241.036256 222.814577 
L 243.862085 220.645769 
L 249.475224 219.561365 
L 252.367584 217.211823 
L 255.203917 217.754025 
L 258.054257 214.862281 
L 261.01665 202.210902 
L 264.507791 195.523745 
L 267.638263 211.60907 
L 270.492105 217.573291 
L 273.454498 195.885213 
L 276.917626 201.487967 
L 279.823992 215.765951 
L 282.681336 231.12834 
L 285.528174 231.851276 
L 288.396023 224.079715 
L 291.253366 226.60999 
L 294.0897 228.236596 
L 296.912027 222.272375 
L 299.744858 223.898981 
L 302.574189 227.152192 
L 305.410522 221.187971 
L 311.692476 189.559524 
L 315.033046 201.307233 
L 318.191531 213.958611 
L 321.25197 212.693474 
L 324.245878 214.681547 
L 327.239785 211.60907 
L 330.156657 221.910907 
L 333.164571 226.248522 
L 336.207502 224.079715 
L 339.26794 217.754025 
L 342.240838 216.308153 
L 345.30828 217.211823 
L 348.386227 218.657695 
L 354.356534 219.742099 
L 357.329432 219.380631 
L 360.410881 222.995311 
L 363.478323 219.380631 
L 366.678828 219.742099 
L 369.931857 216.850355 
L 373.237411 211.428336 
L 376.528959 217.573291 
L 379.774985 216.127419 
L 383.024513 216.308153 
L 386.256532 216.850355 
L 389.439529 216.669621 
L 392.531483 217.392557 
L 395.602426 219.199897 
L 398.568321 218.476961 
L 401.506202 220.465035 
L 404.489605 217.934759 
L 407.480011 217.754025 
L 410.39338 230.586138 
L 413.418803 226.971458 
L 416.349681 219.199897 
L 419.207024 217.934759 
L 422.060866 215.043015 
L 425.02676 215.223749 
L 427.964642 218.838429 
L 430.885015 218.296227 
L 433.777375 218.115493 
L 436.634718 211.066868 
L 439.520075 214.862281 
L 442.398428 217.031089 
L 445.266276 215.946685 
L 448.239174 213.054942 
L 451.18756 216.850355 
L 454.14295 219.561365 
L 460.260326 221.730173 
L 463.219217 263.479723 
L 466.1606 224.260449 
L 469.063465 219.742099 
L 471.955824 217.031089 
L 474.977745 215.404483 
L 477.905122 212.51274 
L 480.828996 215.404483 
L 483.728359 219.019163 
L 486.613716 218.657695 
L 489.513079 215.585217 
L 492.387931 207.271454 
L 495.283792 217.392557 
L 498.197162 221.368705 
L 501.121037 222.272375 
L 504.006393 222.633843 
L 506.853232 222.633843 
L 509.707073 222.814577 
L 512.644955 221.910907 
L 515.638862 211.970538 
L 518.531222 209.620996 
L 524.315942 222.091641 
L 527.16278 214.681547 
L 530.020124 218.838429 
L 532.842451 220.465035 
L 535.780332 217.211823 
L 538.6902 222.272375 
L 541.558048 223.537513 
L 544.457412 221.187971 
L 547.32526 221.910907 
L 550.224623 222.814577 
L 553.180013 222.633843 
L 556.065369 222.814577 
L 558.936719 222.272375 
L 561.836082 221.910907 
L 564.742449 222.633843 
L 567.63831 222.814577 
L 570.474644 223.537513 
L 573.342492 221.187971 
L 576.21034 222.633843 
L 579.074687 223.356779 
L 581.918024 222.633843 
L 584.747354 218.115493 
L 587.888331 218.476961 
L 590.875235 260.768714 
L 593.82012 221.910907 
L 596.715981 221.910907 
L 599.730899 216.127419 
L 602.864872 217.031089 
L 605.960328 217.754025 
L 608.992753 218.296227 
L 612.004169 219.380631 
L 614.865014 222.272375 
L 617.858922 221.730173 
L 620.803806 231.309074 
L 623.752192 229.863202 
L 626.623542 222.995311 
L 629.561424 216.488887 
L 632.502807 222.091641 
L 635.510721 222.995311 
L 638.48712 223.718247 
L 641.386483 220.645769 
L 644.310358 220.645769 
L 647.178206 221.549439 
L 650.165111 218.657695 
L 653.127503 219.561365 
L 656.044375 222.814577 
L 659.108315 224.079715 
L 662.09522 218.838429 
L 665.050609 219.199897 
L 667.932464 221.549439 
L 670.831827 221.549439 
L 670.831827 221.549439 
" clip-path="url(#peb6ad0371a)" style="fill: none; stroke: #2ca02c; stroke-width: 1.5; stroke-linecap: square"/>
   </g>
   <g id="patch_3">
    <path d="M 47.63 390.04 
L 47.63 10.8 
" style="fill: none; stroke: #000000; stroke-width: 0.8; stroke-linejoin: miter; stroke-linecap: square"/>
   </g>
   <g id="patch_4">
    <path d="M 700.508105 390.04 
L 700.508105 10.8 
" style="fill: none; stroke: #000000; stroke-width: 0.8; stroke-linejoin: miter; stroke-linecap: square"/>
   </g>
   <g id="patch_5">
    <path d="M 47.63 390.04 
L 700.508105 390.04 
" style="fill: none; stroke: #000000; stroke-width: 0.8; stroke-linejoin: miter; stroke-linecap: square"/>
   </g>
   <g id="patch_6">
    <path d="M 47.63 10.8 
L 700.508105 10.8 
" style="fill: none; stroke: #000000; stroke-width: 0.8; stroke-linejoin: miter; stroke-linecap: square"/>
   </g>
   <g id="legend_1">
    <g id="patch_7">
     <path d="M 599.83623 385.04 
L 693.508105 385.04 
Q 695.508105 385.04 695.508105 383.04 
L 695.508105 325.3275 
Q 695.508105 323.3275 693.508105 323.3275 
L 599.83623 323.3275 
Q 597.83623 323.3275 597.83623 325.3275 
L 597.83623 383.04 
Q 597.83623 385.04 599.83623 385.04 
z
" style="fill: #ffffff; opacity: 0.8; stroke: #cccccc; stroke-linejoin: miter"/>
    </g>
    <g id="text_18">
     <!-- Max Circuit Depth -->
     <g transform="translate(601.83623 334.925937) scale(0.1 -0.1)">
      <defs>
       <path id="DejaVuSans-4d" d="M 628 4666 
L 1569 4666 
L 2759 1491 
L 3956 4666 
L 4897 4666 
L 4897 0 
L 4281 0 
L 4281 4097 
L 3078 897 
L 2444 897 
L 1241 4097 
L 1241 0 
L 628 0 
L 628 4666 
z
" transform="scale(0.015625)"/>
       <path id="DejaVuSans-61" d="M 2194 1759 
Q 1497 1759 1228 1600 
Q 959 1441 959 1056 
Q 959 750 1161 570 
Q 1363 391 1709 391 
Q 2188 391 2477 730 
Q 2766 1069 2766 1631 
L 2766 1759 
L 2194 1759 
z
M 3341 1997 
L 3341 0 
L 2766 0 
L 2766 531 
Q 2569 213 2275 61 
Q 1981 -91 1556 -91 
Q 1019 -91 701 211 
Q 384 513 384 1019 
Q 384 1609 779 1909 
Q 1175 2209 1959 2209 
L 2766 2209 
L 2766 2266 
Q 2766 2663 2505 2880 
Q 2244 3097 1772 3097 
Q 1472 3097 1187 3025 
Q 903 2953 641 2809 
L 641 3341 
Q 956 3463 1253 3523 
Q 1550 3584 1831 3584 
Q 2591 3584 2966 3190 
Q 3341 2797 3341 1997 
z
" transform="scale(0.015625)"/>
       <path id="DejaVuSans-78" d="M 3513 3500 
L 2247 1797 
L 3578 0 
L 2900 0 
L 1881 1375 
L 863 0 
L 184 0 
L 1544 1831 
L 300 3500 
L 978 3500 
L 1906 2253 
L 2834 3500 
L 3513 3500 
z
" transform="scale(0.015625)"/>
      </defs>
      <use xlink:href="#DejaVuSans-4d"/>
      <use xlink:href="#DejaVuSans-61" transform="translate(86.279297 0)"/>
      <use xlink:href="#DejaVuSans-78" transform="translate(147.558594 0)"/>
      <use xlink:href="#DejaVuSans-20" transform="translate(206.738281 0)"/>
      <use xlink:href="#DejaVuSans-43" transform="translate(238.525391 0)"/>
      <use xlink:href="#DejaVuSans-69" transform="translate(308.349609 0)"/>
      <use xlink:href="#DejaVuSans-72" transform="translate(336.132812 0)"/>
      <use xlink:href="#DejaVuSans-63" transform="translate(374.996094 0)"/>
      <use xlink:href="#DejaVuSans-75" transform="translate(429.976562 0)"/>
      <use xlink:href="#DejaVuSans-69" transform="translate(493.355469 0)"/>
      <use xlink:href="#DejaVuSans-74" transform="translate(521.138672 0)"/>
      <use xlink:href="#DejaVuSans-20" transform="translate(560.347656 0)"/>
      <use xlink:href="#DejaVuSans-44" transform="translate(592.134766 0)"/>
      <use xlink:href="#DejaVuSans-65" transform="translate(669.136719 0)"/>
      <use xlink:href="#DejaVuSans-70" transform="translate(730.660156 0)"/>
      <use xlink:href="#DejaVuSans-74" transform="translate(794.136719 0)"/>
      <use xlink:href="#DejaVuSans-68" transform="translate(833.345703 0)"/>
     </g>
    </g>
    <g id="line2d_34">
     <path d="M 629.490917 346.104062 
L 639.490917 346.104062 
L 649.490917 346.104062 
" style="fill: none; stroke: #1f77b4; stroke-width: 1.5; stroke-linecap: square"/>
    </g>
    <g id="text_19">
     <!-- 4 -->
     <g transform="translate(657.490917 349.604062) scale(0.1 -0.1)">
      <use xlink:href="#DejaVuSans-34"/>
     </g>
    </g>
    <g id="line2d_35">
     <path d="M 629.490917 360.782187 
L 639.490917 360.782187 
L 649.490917 360.782187 
" style="fill: none; stroke: #ff7f0e; stroke-width: 1.5; stroke-linecap: square"/>
    </g>
    <g id="text_20">
     <!-- 5 -->
     <g transform="translate(657.490917 364.282187) scale(0.1 -0.1)">
      <use xlink:href="#DejaVuSans-35"/>
     </g>
    </g>
    <g id="line2d_36">
     <path d="M 629.490917 375.460312 
L 639.490917 375.460312 
L 649.490917 375.460312 
" style="fill: none; stroke: #2ca02c; stroke-width: 1.5; stroke-linecap: square"/>
    </g>
    <g id="text_21">
     <!-- 6 -->
     <g transform="translate(657.490917 378.960312) scale(0.1 -0.1)">
      <defs>
       <path id="DejaVuSans-36" d="M 2113 2584 
Q 1688 2584 1439 2293 
Q 1191 2003 1191 1497 
Q 1191 994 1439 701 
Q 1688 409 2113 409 
Q 2538 409 2786 701 
Q 3034 994 3034 1497 
Q 3034 2003 2786 2293 
Q 2538 2584 2113 2584 
z
M 3366 4563 
L 3366 3988 
Q 3128 4100 2886 4159 
Q 2644 4219 2406 4219 
Q 1781 4219 1451 3797 
Q 1122 3375 1075 2522 
Q 1259 2794 1537 2939 
Q 1816 3084 2150 3084 
Q 2853 3084 3261 2657 
Q 3669 2231 3669 1497 
Q 3669 778 3244 343 
Q 2819 -91 2113 -91 
Q 1303 -91 875 529 
Q 447 1150 447 2328 
Q 447 3434 972 4092 
Q 1497 4750 2381 4750 
Q 2619 4750 2861 4703 
Q 3103 4656 3366 4563 
z
" transform="scale(0.015625)"/>
      </defs>
      <use xlink:href="#DejaVuSans-36"/>
     </g>
    </g>
   </g>
  </g>
 </g>
 <defs>
  <clipPath id="peb6ad0371a">
   <rect x="47.63" y="10.8" width="652.878105" height="379.24"/>
  </clipPath>
 </defs>
</svg>
