<?xml version="1.0" encoding="utf-8" standalone="no"?>
<!DOCTYPE svg PUBLIC "-//W3C//DTD SVG 1.1//EN"
  "http://www.w3.org/Graphics/SVG/1.1/DTD/svg11.dtd">
<svg xmlns:xlink="http://www.w3.org/1999/xlink" width="720pt" height="432pt" viewBox="0 0 720 432" xmlns="http://www.w3.org/2000/svg" version="1.1">
 <metadata>
  <rdf:RDF xmlns:dc="http://purl.org/dc/elements/1.1/" xmlns:cc="http://creativecommons.org/ns#" xmlns:rdf="http://www.w3.org/1999/02/22-rdf-syntax-ns#">
   <cc:Work>
    <dc:type rdf:resource="http://purl.org/dc/dcmitype/StillImage"/>
    <dc:date>2025-04-17T16:36:08.498842</dc:date>
    <dc:format>image/svg+xml</dc:format>
    <dc:creator>
     <cc:Agent>
      <dc:title>Matplotlib v3.10.0, https://matplotlib.org/</dc:title>
     </cc:Agent>
    </dc:creator>
   </cc:Work>
  </rdf:RDF>
 </metadata>
 <defs>
  <style type="text/css">*{stroke-linejoin: round; stroke-linecap: butt}</style>
 </defs>
 <g id="figure_1">
  <g id="patch_1">
   <path d="M 0 432 
L 720 432 
L 720 0 
L 0 0 
z
" style="fill: #ffffff"/>
  </g>
  <g id="axes_1">
   <g id="patch_2">
    <path d="M 47.63 390.04 
L 700.508105 390.04 
L 700.508105 10.8 
L 47.63 10.8 
z
" style="fill: #ffffff"/>
   </g>
   <g id="FillBetweenPolyCollection_1">
    <path d="M 77.306277 183.123723 
L 77.306277 364.086688 
L 80.625838 366.174613 
L 83.850854 358.586605 
L 87.152907 357.778298 
L 90.574015 369.569756 
L 93.827045 369.954845 
L 97.111589 355.79767 
L 100.581721 341.520189 
L 104.097373 322.434766 
L 107.714574 322.333673 
L 111.377296 322.38894 
L 115.02251 304.478926 
L 118.559173 301.817247 
L 122.067822 289.808312 
L 125.471423 289.834925 
L 128.458327 284.907656 
L 131.406713 282.844606 
L 134.369106 277.282347 
L 137.243958 275.383929 
L 140.129314 278.068158 
L 143.011169 272.402567 
L 145.851004 270.469419 
L 148.690839 272.231079 
L 151.52017 269.609233 
L 154.363506 271.295822 
L 157.203342 270.634067 
L 160.036173 268.165997 
L 162.851497 270.374618 
L 165.663319 267.521615 
L 168.492649 268.105674 
L 171.307973 267.456203 
L 174.105788 269.560096 
L 176.910607 267.646429 
L 179.729432 266.531526 
L 182.537753 266.65634 
L 185.353076 268.755145 
L 188.182407 265.159977 
L 190.990727 266.310634 
L 193.809552 265.821732 
L 196.617873 266.700656 
L 199.422691 265.320546 
L 202.24852 266.85885 
L 205.05684 268.528066 
L 207.875666 266.942733 
L 210.690989 265.881046 
L 213.506313 265.434085 
L 216.325138 265.404428 
L 219.13696 266.525429 
L 221.94528 264.831644 
L 224.750099 265.821732 
L 227.579429 265.89333 
L 230.394753 267.002046 
L 233.199572 266.024242 
L 236.00439 266.989762 
L 238.812711 265.53534 
L 241.624533 264.831644 
L 244.436355 266.369948 
L 247.237672 266.09584 
L 250.056497 267.801909 
L 252.878824 268.802174 
L 255.610108 288.0462 
L 258.320382 273.535715 
L 261.104191 269.56247 
L 263.916013 282.644806 
L 266.479218 279.413726 
L 269.287539 268.313272 
L 272.095859 274.949205 
L 274.697582 295.927858 
L 277.425365 272.970038 
L 280.230183 268.8564 
L 283.05251 273.357774 
L 285.881841 268.719301 
L 288.700666 271.670087 
L 291.529996 286.829791 
L 294.359326 303.783777 
L 297.17465 292.68976 
L 300.042498 271.253274 
L 303.659699 274.590002 
L 306.926735 270.359959 
L 309.815593 267.41935 
L 312.683442 266.782164 
L 315.628326 267.646429 
L 318.566207 265.69082 
L 321.448062 265.73785 
L 324.431465 265.613036 
L 327.439379 265.952644 
L 330.401772 266.572458 
L 333.280125 269.160165 
L 336.137469 265.881046 
L 339.005317 267.407066 
L 341.855657 265.564997 
L 344.705997 264.688448 
L 347.552836 266.584742 
L 350.375163 264.97484 
L 353.204493 265.189634 
L 356.044328 264.97484 
L 358.884163 276.370117 
L 361.699487 270.571773 
L 364.518312 267.325291 
L 367.337137 264.831644 
L 370.145458 265.594654 
L 373.086841 270.004076 
L 376.052735 267.873507 
L 378.91358 266.382232 
L 381.76392 265.404428 
L 384.600254 266.29835 
L 387.405072 266.239036 
L 390.255412 265.678536 
L 393.084743 266.15244 
L 395.90707 264.760046 
L 398.704885 267.192272 
L 401.5027 266.85885 
L 404.339034 264.831644 
L 407.154358 267.41935 
L 410.004698 267.139056 
L 412.851536 265.392144 
L 415.701876 266.024242 
L 418.53821 265.53534 
L 421.423566 267.611684 
L 424.354444 267.474585 
L 427.274817 267.038899 
L 430.188187 266.322919 
L 433.024521 265.404428 
L 435.825838 272.772705 
L 438.623653 268.110762 
L 441.435475 266.429262 
L 444.268307 266.239036 
L 447.090634 265.73785 
L 449.902456 265.248948 
L 452.724783 264.903242 
L 455.550611 265.404428 
L 458.404453 265.476026 
L 461.230282 264.97484 
L 464.038602 264.688448 
L 466.871434 268.695831 
L 469.88285 327.281193 
L 472.785715 275.771529 
L 475.64656 266.989762 
L 478.479392 268.241674 
L 481.30522 267.478664 
L 484.152059 266.644056 
L 486.974386 266.478399 
L 489.793211 268.231498 
L 492.801125 272.31039 
L 495.749511 296.960719 
L 498.673386 269.88843 
L 501.534231 278.436842 
L 504.377568 274.304823 
L 507.213901 266.036526 
L 510.050235 265.809448 
L 512.876063 264.903242 
L 515.701892 264.97484 
L 518.524219 264.97484 
L 521.336041 264.760046 
L 524.165371 265.392144 
L 526.994701 265.523056 
L 529.82053 265.398242 
L 532.642857 265.046438 
L 535.454679 265.189634 
L 538.270002 268.350125 
L 541.351451 270.137969 
L 544.250814 265.248948 
L 547.066138 265.809448 
L 549.89897 265.320546 
L 552.738805 265.809448 
L 555.543624 266.083556 
L 558.358947 265.105752 
L 561.216291 274.765166 
L 564.147169 267.562547 
L 566.990506 268.110762 
L 569.823337 265.320546 
L 572.659671 266.878331 
L 575.474995 266.083556 
L 578.318331 266.120409 
L 581.210691 272.557958 
L 584.054028 314.383092 
L 586.918375 280.234821 
L 589.786223 265.547624 
L 592.612052 265.118036 
L 595.448385 265.606938 
L 598.270712 265.666252 
L 601.117551 265.416713 
L 603.957386 265.69082 
L 606.821733 265.678536 
L 609.658066 266.310634 
L 612.47339 265.046438 
L 615.34474 268.350125 
L 618.223093 266.651252 
L 621.076935 266.377144 
L 623.920271 265.189634 
L 626.756605 265.189634 
L 629.589437 265.261232 
L 632.411764 264.831644 
L 635.237592 275.814569 
L 638.073926 272.416822 
L 640.906758 268.779713 
L 643.73959 265.463742 
L 646.575923 264.903242 
L 649.394748 264.760046 
L 652.224079 264.873585 
L 655.049907 265.404428 
L 657.910752 264.903242 
L 660.747086 265.33283 
L 663.628941 265.320546 
L 666.514297 268.483145 
L 669.543221 267.969674 
L 669.543221 247.435785 
L 669.543221 247.435785 
L 666.514297 242.082431 
L 663.628941 262.876035 
L 660.747086 260.443809 
L 657.910752 262.947633 
L 655.049907 260.026505 
L 652.224079 261.940172 
L 649.394748 263.782241 
L 646.575923 262.947633 
L 643.73959 262.041427 
L 640.906758 252.157042 
L 638.073926 247.482815 
L 635.237592 248.924953 
L 632.411764 263.364937 
L 629.589437 260.861113 
L 626.756605 261.278417 
L 623.920271 261.278417 
L 621.076935 253.176787 
L 618.223093 253.939797 
L 615.34474 254.660866 
L 612.47339 262.113025 
L 609.658066 259.466005 
L 606.821733 260.789515 
L 603.957386 258.357289 
L 601.117551 257.594279 
L 598.270712 263.221741 
L 595.448385 261.206819 
L 592.612052 261.695721 
L 589.786223 259.191897 
L 586.918375 234.479227 
L 584.054028 213.122078 
L 581.210691 222.105142 
L 578.318331 255.853465 
L 575.474995 263.150143 
L 572.659671 250.255659 
L 569.823337 262.876035 
L 566.990506 260.777231 
L 564.147169 259.251211 
L 561.216291 250.320061 
L 558.358947 264.127947 
L 555.543624 263.150143 
L 552.738805 262.387133 
L 549.89897 262.876035 
L 547.066138 262.387133 
L 544.250814 263.293339 
L 541.351451 258.404318 
L 538.270002 254.660866 
L 535.454679 261.278417 
L 532.642857 262.113025 
L 529.82053 262.106928 
L 526.994701 264.056349 
L 524.165371 262.458731 
L 521.336041 263.782241 
L 518.524219 262.530329 
L 515.701892 262.530329 
L 512.876063 262.947633 
L 510.050235 262.387133 
L 507.213901 258.702995 
L 504.377568 259.76876 
L 501.534231 255.982447 
L 498.673386 252.776856 
L 495.749511 244.718396 
L 492.801125 242.749363 
L 489.793211 250.631022 
L 486.974386 253.766944 
L 484.152059 262.243937 
L 481.30522 262.100741 
L 478.479392 262.374849 
L 475.64656 262.589643 
L 472.785715 258.302054 
L 469.88285 244.474344 
L 466.871434 255.006572 
L 464.038602 264.199546 
L 461.230282 262.530329 
L 458.404453 259.609201 
L 455.550611 260.026505 
L 452.724783 262.947633 
L 449.902456 263.293339 
L 447.090634 262.804437 
L 444.268307 259.883309 
L 441.435475 263.495849 
L 438.623653 260.777231 
L 435.825838 259.572348 
L 433.024521 260.026505 
L 430.188187 257.033779 
L 427.274817 252.860738 
L 424.354444 250.00511 
L 421.423566 249.522306 
L 418.53821 261.624123 
L 415.701876 261.135221 
L 412.851536 262.458731 
L 410.004698 261.403231 
L 407.154358 260.085819 
L 404.339034 263.364937 
L 401.5027 260.992025 
L 398.704885 263.769957 
L 395.90707 263.782241 
L 393.084743 259.969905 
L 390.255412 260.789515 
L 387.405072 259.883309 
L 384.600254 261.898231 
L 381.76392 260.026505 
L 378.91358 259.048701 
L 376.052735 252.717542 
L 373.086841 236.758733 
L 370.145458 263.639045 
L 367.337137 263.364937 
L 364.518312 251.191522 
L 361.699487 227.548387 
L 358.884163 201.699095 
L 356.044328 262.530329 
L 353.204493 261.278417 
L 350.375163 262.530329 
L 347.552836 260.229015 
L 344.705997 264.199546 
L 341.855657 262.631584 
L 339.005317 262.518045 
L 336.137469 261.969829 
L 333.280125 259.382123 
L 330.401772 262.661241 
L 327.439379 261.552525 
L 324.431465 260.855016 
L 321.448062 262.804437 
L 318.566207 258.357289 
L 315.628326 256.40168 
L 312.683442 255.537415 
L 309.815593 260.085819 
L 306.926735 248.848266 
L 303.659699 224.22157 
L 300.042498 233.781005 
L 297.17465 257.977711 
L 294.359326 256.217756 
L 291.529996 255.886442 
L 288.700666 258.600731 
L 285.881841 258.094456 
L 283.05251 253.801689 
L 280.230183 257.611651 
L 277.425365 256.609368 
L 274.697582 252.319671 
L 272.095859 256.013024 
L 269.287539 261.957545 
L 266.479218 259.499741 
L 263.916013 258.688603 
L 261.104191 258.979817 
L 258.320382 259.846456 
L 255.610108 256.398563 
L 252.878824 261.468643 
L 250.056497 253.134846 
L 247.237672 260.717917 
L 244.436355 261.480927 
L 241.624533 263.364937 
L 238.812711 261.624123 
L 236.00439 262.589643 
L 233.199572 261.135221 
L 230.394753 260.157417 
L 227.579429 259.537603 
L 224.750099 259.954907 
L 221.94528 263.364937 
L 219.13696 258.214093 
L 216.325138 260.026505 
L 213.506313 261.033966 
L 210.690989 261.969829 
L 207.875666 258.142495 
L 205.05684 260.705633 
L 202.24852 260.992025 
L 199.422691 262.876035 
L 196.617873 261.495925 
L 193.809552 259.954907 
L 190.990727 259.466005 
L 188.182407 260.270956 
L 185.353076 257.021494 
L 182.537753 259.811711 
L 179.729432 257.862289 
L 176.910607 256.40168 
L 174.105788 255.870837 
L 171.307973 252.78914 
L 168.492649 254.905317 
L 165.663319 254.452259 
L 162.851497 249.52502 
L 160.036173 250.696522 
L 157.203342 249.611276 
L 154.363506 249.295227 
L 151.52017 246.141932 
L 148.690839 232.803201 
L 145.851004 234.910566 
L 143.011169 223.643357 
L 140.129314 227.657534 
L 137.243958 220.661995 
L 134.369106 218.417871 
L 131.406713 203.867255 
L 128.458327 200.421381 
L 125.471423 187.888581 
L 122.067822 184.112428 
L 118.559173 180.746143 
L 115.02251 180.1587 
L 111.377296 180.225398 
L 107.714574 180.972077 
L 104.097373 178.451042 
L 100.581721 180.107978 
L 97.111589 182.770091 
L 93.827045 199.726456 
L 90.574015 188.703247 
L 87.152907 184.246524 
L 83.850854 181.36398 
L 80.625838 187.604212 
L 77.306277 183.123723 
z
" clip-path="url(#paad1e89bd6)" style="fill: #1f77b4; fill-opacity: 0.2"/>
   </g>
   <g id="FillBetweenPolyCollection_2">
    <path d="M 77.505871 106.441646 
L 77.505871 358.145032 
L 81.070547 364.444419 
L 84.516167 348.6021 
L 88.143873 352.081247 
L 91.929153 353.066744 
L 95.532347 354.40396 
L 99.342138 353.914868 
L 103.193949 336.459797 
L 107.049261 323.394114 
L 110.820534 331.91618 
L 114.458745 319.07528 
L 118.303553 320.178292 
L 122.109842 312.75237 
L 126.066703 311.987876 
L 130.104101 307.6051 
L 134.127492 306.957602 
L 138.112366 305.356449 
L 142.149764 295.071568 
L 146.057601 291.717729 
L 149.811366 286.034593 
L 153.54062 287.135088 
L 157.168325 286.287605 
L 160.824044 283.706425 
L 164.399225 280.680569 
L 167.963901 285.613477 
L 171.560092 280.444768 
L 175.100256 279.2769 
L 178.657929 278.317478 
L 182.219103 279.16345 
L 185.752264 279.25251 
L 189.292428 279.708863 
L 192.822088 281.294286 
L 196.351747 278.87096 
L 199.881407 279.991621 
L 203.411066 279.353765 
L 206.944228 281.589239 
L 210.452877 280.122872 
L 213.982537 279.565756 
L 217.529704 279.324108 
L 221.066367 279.920363 
L 224.610033 279.321305 
L 228.146696 279.511619 
L 231.655346 281.643286 
L 235.178002 278.322744 
L 238.721668 279.682009 
L 242.251327 281.684396 
L 245.773984 281.424947 
L 249.289637 280.954677 
L 252.812293 279.833766 
L 256.348956 278.841303 
L 259.896123 279.74751 
L 263.415278 278.66845 
L 266.969449 280.114061 
L 270.513115 280.653376 
L 274.074289 280.927484 
L 277.614454 279.589315 
L 281.186133 278.597862 
L 284.862862 279.479588 
L 288.501072 280.227511 
L 292.04824 279.425363 
L 295.703959 279.711755 
L 299.324661 279.16345 
L 302.927855 280.579064 
L 306.503036 280.45358 
L 310.081718 280.921386 
L 313.649896 279.86096 
L 317.267097 279.941208 
L 320.835274 278.590755 
L 324.368435 279.222853 
L 327.996141 279.056098 
L 331.543309 272.137545 
L 335.07647 272.357606 
L 338.637644 278.167132 
L 342.216327 276.636987 
L 345.777501 278.385927 
L 349.335174 280.644966 
L 352.850826 282.519495 
L 356.383988 283.213142 
L 359.913647 285.345518 
L 363.506336 285.961636 
L 367.106029 277.827329 
L 370.674206 282.213419 
L 374.224876 285.800398 
L 377.772043 284.287493 
L 381.438267 284.791304 
L 384.981933 285.823957 
L 388.550111 287.30335 
L 392.083272 285.669826 
L 395.644446 284.504661 
L 399.209122 311.27021 
L 402.808815 314.502095 
L 406.313963 310.787671 
L 409.836619 322.033891 
L 413.338265 338.030651 
L 416.846915 321.0344 
L 420.355564 328.684906 
L 423.850207 324.694299 
L 427.355355 308.392024 
L 430.864005 327.715317 
L 434.372654 343.841964 
L 437.895311 335.425232 
L 441.40396 323.484239 
L 444.881095 310.842103 
L 448.389745 306.929432 
L 451.891391 309.48859 
L 455.403542 309.504514 
L 458.915694 300.494157 
L 462.420842 304.571947 
L 465.922488 296.552766 
L 469.431137 298.689108 
L 472.932784 287.716188 
L 476.441433 287.779136 
L 479.946581 283.78936 
L 483.451729 291.989464 
L 486.953376 310.841852 
L 490.455022 312.156121 
L 493.96017 303.752337 
L 497.461816 296.835184 
L 500.963463 290.806686 
L 504.482617 304.425456 
L 508.015778 310.675096 
L 511.531431 287.739747 
L 515.043582 280.504082 
L 518.54873 280.432484 
L 522.050377 279.109314 
L 525.54502 281.490698 
L 529.025656 280.224127 
L 532.537807 276.154924 
L 536.028949 279.532715 
L 539.527094 280.676935 
L 543.032241 279.774363 
L 546.533888 278.763608 
L 550.035534 278.763608 
L 553.53718 278.936461 
L 557.038827 279.991872 
L 560.540473 277.559734 
L 564.045621 278.084391 
L 567.550769 279.783264 
L 571.052415 279.684472 
L 574.554062 278.769705 
L 578.115236 278.6821 
L 582.019572 276.878499 
L 585.552733 278.626509 
L 589.057881 278.936461 
L 592.56653 279.008059 
L 596.068177 278.596852 
L 599.573325 278.525254 
L 603.074971 278.841303 
L 606.587122 276.095521 
L 610.088769 260.758549 
L 613.593916 273.575897 
L 617.179602 279.115411 
L 620.68475 273.929821 
L 624.067341 302.975223 
L 627.442928 281.529256 
L 630.944574 271.021808 
L 634.44622 276.069558 
L 637.951368 280.375884 
L 641.453015 278.662353 
L 644.961664 278.423999 
L 648.463311 278.769705 
L 651.964957 278.596852 
L 655.466603 278.8385 
L 658.971751 278.936461 
L 662.473397 278.936461 
L 665.975044 280.036276 
L 669.487195 278.763608 
L 669.487195 180.983186 
L 669.487195 180.983186 
L 665.975044 181.093342 
L 662.473397 181.156039 
L 658.971751 181.156039 
L 655.466603 179.179764 
L 651.964957 180.45853 
L 648.463311 180.631383 
L 644.961664 180.285677 
L 641.453015 180.393029 
L 637.951368 181.790852 
L 634.44622 177.800234 
L 630.944574 171.09398 
L 627.442928 183.748834 
L 624.067341 204.478999 
L 620.68475 175.791499 
L 617.179602 180.977089 
L 613.593916 165.774243 
L 610.088769 127.77281 
L 606.587122 172.588681 
L 603.074971 180.214079 
L 599.573325 180.875834 
L 596.068177 180.45853 
L 592.56653 180.738735 
L 589.057881 181.156039 
L 585.552733 181.465991 
L 582.019572 190.473827 
L 578.115236 186.941696 
L 574.554062 180.631383 
L 571.052415 181.09944 
L 567.550769 180.309236 
L 564.045621 179.588167 
L 560.540473 179.421412 
L 557.038827 181.137746 
L 553.53718 181.156039 
L 550.035534 180.983186 
L 546.533888 180.983186 
L 543.032241 179.626725 
L 539.527094 180.798389 
L 536.028949 180.905491 
L 532.537807 172.874984 
L 529.025656 181.596903 
L 525.54502 182.058862 
L 522.050377 181.328892 
L 518.54873 181.04284 
L 515.043582 180.625536 
L 511.531431 180.30399 
L 508.015778 177.765295 
L 504.482617 178.48364 
L 500.963463 178.274169 
L 497.461816 177.776968 
L 493.96017 176.736817 
L 490.455022 177.321388 
L 486.953376 178.289952 
L 483.451729 179.85704 
L 479.946581 177.340258 
L 476.441433 179.227484 
L 472.932784 178.944726 
L 469.431137 177.305867 
L 465.922488 177.367974 
L 462.420842 176.262913 
L 458.915694 177.575055 
L 455.403542 175.478818 
L 451.891391 175.840448 
L 448.389745 175.979664 
L 444.881095 179.672525 
L 441.40396 177.747274 
L 437.895311 177.21458 
L 434.372654 181.243264 
L 430.864005 174.899021 
L 427.355355 164.491598 
L 423.850207 177.228626 
L 420.355564 176.349374 
L 416.846915 178.122878 
L 413.338265 177.029103 
L 409.836619 178.160505 
L 406.313963 170.392895 
L 402.808815 178.432474 
L 399.209122 170.947474 
L 395.644446 173.859309 
L 392.083272 175.805498 
L 388.550111 174.517681 
L 384.981933 179.108427 
L 381.438267 173.572666 
L 377.772043 172.002241 
L 374.224876 177.749162 
L 370.674206 173.039198 
L 367.106029 163.942753 
L 363.506336 174.47657 
L 359.913647 171.289922 
L 356.383988 155.791292 
L 352.850826 178.264417 
L 349.335174 176.33618 
L 345.777501 172.372511 
L 342.216327 173.775745 
L 338.637644 170.171364 
L 335.07647 159.732708 
L 331.543309 158.569945 
L 327.996141 178.962166 
L 324.368435 179.486823 
L 320.835274 180.810333 
L 317.267097 178.422762 
L 313.649896 179.540128 
L 310.081718 180.553938 
L 306.503036 181.021744 
L 302.927855 177.093494 
L 299.324661 179.20052 
L 295.703959 178.997921 
L 292.04824 180.667137 
L 288.501072 178.482165 
L 284.862862 176.810146 
L 281.186133 174.234812 
L 277.614454 180.157479 
L 274.074289 180.202134 
L 270.513115 179.439124 
L 266.969449 178.595615 
L 263.415278 180.041226 
L 259.896123 179.653578 
L 256.348956 180.214079 
L 252.812293 179.913028 
L 249.289637 179.829235 
L 245.773984 180.741789 
L 242.251327 180.828046 
L 238.721668 179.719079 
L 235.178002 179.69552 
L 231.655346 179.486332 
L 228.146696 180.926587 
L 224.610033 179.042665 
L 221.066367 179.826431 
L 217.529704 180.07698 
L 213.982537 178.798214 
L 210.452877 181.006746 
L 206.944228 179.886085 
L 203.411066 181.084441 
L 199.881407 179.755173 
L 196.351747 181.22154 
L 192.822088 180.526744 
L 189.292428 179.692225 
L 185.752264 180.494284 
L 182.219103 179.20052 
L 178.657929 177.280844 
L 175.100256 179.08707 
L 171.560092 178.610614 
L 167.963901 177.936083 
L 164.399225 179.066225 
L 160.824044 174.311839 
L 157.168325 173.459189 
L 153.54062 171.920294 
L 149.811366 172.675083 
L 146.057601 172.868948 
L 142.149764 175.737818 
L 138.112366 171.329939 
L 134.127492 166.271726 
L 130.104101 164.587109 
L 126.066703 153.981626 
L 122.109842 152.180014 
L 118.303553 146.828328 
L 114.458745 126.497568 
L 110.820534 130.596262 
L 107.049261 113.88179 
L 103.193949 119.829937 
L 99.342138 128.648522 
L 95.532347 132.307902 
L 91.929153 130.188057 
L 88.143873 117.345314 
L 84.516167 108.03334 
L 81.070547 117.081853 
L 77.505871 106.441646 
z
" clip-path="url(#paad1e89bd6)" style="fill: #ff7f0e; fill-opacity: 0.2"/>
   </g>
   <g id="FillBetweenPolyCollection_3">
    <path d="M 77.558396 57.260291 
L 77.558396 345.099308 
L 81.235125 350.174225 
L 85.100942 345.113897 
L 89.029789 357.414733 
L 92.96564 372.801818 
L 96.848966 365.721887 
L 100.830337 365.343121 
L 104.860732 368.975582 
L 108.824596 363.42507 
L 112.76745 367.19602 
L 116.731313 349.444076 
L 120.649656 345.161907 
L 124.631028 331.97336 
L 128.601894 303.532834 
L 132.618283 302.305423 
L 136.603156 298.140439 
L 140.633551 294.207716 
L 144.345296 288.606464 
L 148.004517 277.611646 
L 151.611212 272.050202 
L 154.937776 272.83491 
L 158.026228 274.357217 
L 161.093671 274.094311 
L 164.073572 278.12721 
L 166.955427 280.919855 
L 169.85479 279.48999 
L 172.740146 278.265182 
L 175.629005 275.698399 
L 178.587896 278.273152 
L 181.497764 277.596409 
L 184.376117 277.068698 
L 187.219454 281.470522 
L 190.090804 277.404923 
L 192.920134 278.057778 
L 195.745963 277.316204 
L 198.624316 279.065328 
L 201.471154 278.19759 
L 204.317993 277.494323 
L 207.14032 279.500344 
L 209.976653 279.002542 
L 212.833997 278.129376 
L 215.663327 277.787304 
L 218.49966 278.386273 
L 221.314984 280.170911 
L 224.133809 280.982049 
L 226.94213 277.136913 
L 229.764457 279.124982 
L 232.60079 281.521098 
L 235.416114 278.606423 
L 238.231437 277.88197 
L 241.036256 280.558558 
L 243.862085 279.217676 
L 246.673907 279.742421 
L 249.475224 278.093961 
L 252.367584 276.645726 
L 255.203917 280.70005 
L 258.054257 278.199949 
L 261.01665 269.653452 
L 264.507791 272.512809 
L 267.638263 276.474462 
L 270.492105 279.614893 
L 273.454498 270.468521 
L 276.917626 274.740936 
L 279.823992 279.422115 
L 282.681336 287.776443 
L 285.528174 290.581318 
L 288.396023 284.549845 
L 291.253366 284.525277 
L 294.0897 289.872685 
L 296.912027 289.650504 
L 299.744858 284.120224 
L 302.574189 288.41571 
L 305.410522 282.738415 
L 308.236351 275.805498 
L 311.692476 264.367592 
L 315.033046 267.599543 
L 318.191531 275.741244 
L 321.25197 279.494573 
L 324.245878 275.649141 
L 327.239785 272.579639 
L 330.156657 285.510401 
L 333.164571 286.084215 
L 336.207502 282.940345 
L 339.26794 276.351426 
L 342.240838 275.239906 
L 345.30828 276.148576 
L 348.386227 276.884643 
L 351.387138 276.508449 
L 354.356534 277.939312 
L 357.329432 276.750348 
L 360.410881 278.531352 
L 363.478323 279.566765 
L 366.678828 277.406005 
L 369.931857 275.823966 
L 373.237411 274.714538 
L 376.528959 276.205426 
L 379.774985 275.359454 
L 383.024513 274.82005 
L 386.256532 275.073062 
L 389.439529 275.475707 
L 392.531483 276.121382 
L 395.602426 276.308403 
L 398.568321 276.178483 
L 401.506202 277.295018 
L 404.489605 275.477429 
L 407.480011 276.264829 
L 410.39338 273.264431 
L 413.418803 274.001686 
L 416.349681 275.617241 
L 419.207024 275.635283 
L 422.060866 273.789029 
L 425.02676 274.205001 
L 427.964642 276.765095 
L 430.885015 275.688589 
L 433.777375 275.405831 
L 436.634718 272.331052 
L 439.520075 273.07578 
L 442.398428 274.547663 
L 445.266276 272.147986 
L 448.239174 270.3004 
L 451.18756 273.793554 
L 454.14295 275.068194 
L 457.259415 276.170813 
L 460.260326 277.386881 
L 463.219217 318.255081 
L 466.1606 279.741323 
L 469.063465 276.311206 
L 471.955824 273.876265 
L 474.977745 271.402527 
L 477.905122 269.671936 
L 480.828996 271.921828 
L 483.728359 275.509889 
L 486.613716 275.724343 
L 489.513079 272.449037 
L 492.387931 263.698945 
L 495.283792 273.151813 
L 498.197162 276.307822 
L 501.121037 278.018891 
L 504.006393 278.430097 
L 506.853232 278.609048 
L 509.707073 278.358499 
L 512.644955 277.494234 
L 515.638862 270.33344 
L 518.531222 267.549499 
L 521.430585 272.979791 
L 524.315942 277.911538 
L 527.16278 272.858522 
L 530.020124 275.158085 
L 532.842451 276.600312 
L 535.780332 275.436319 
L 538.6902 277.90544 
L 541.558048 278.447559 
L 544.457412 277.405174 
L 547.32526 277.983136 
L 550.224623 278.781901 
L 553.180013 278.430097 
L 556.065369 278.179548 
L 558.936719 278.263342 
L 561.836082 278.140991 
L 564.742449 278.316647 
L 567.63831 278.647354 
L 570.474644 278.936461 
L 573.342492 277.493983 
L 576.21034 278.072196 
L 579.074687 279.187009 
L 581.918024 278.430097 
L 584.747354 273.50642 
L 587.888331 276.377197 
L 590.875235 318.256404 
L 593.82012 278.943389 
L 596.715981 279.56905 
L 599.730899 272.744241 
L 602.864872 272.713753 
L 605.960328 273.899825 
L 608.992753 274.61843 
L 612.004169 275.944404 
L 614.865014 278.552197 
L 617.858922 277.810283 
L 620.803806 274.87994 
L 623.752192 274.832822 
L 626.623542 278.417902 
L 629.561424 273.089947 
L 632.502807 278.069393 
L 635.510721 278.596852 
L 638.48712 279.646166 
L 641.386483 276.707665 
L 644.310358 277.488967 
L 647.178206 278.012882 
L 650.165111 281.048559 
L 653.127503 280.201667 
L 656.044375 276.626246 
L 659.108315 272.902791 
L 662.09522 274.782633 
L 665.050609 274.966939 
L 667.932464 276.969577 
L 670.831827 277.616334 
L 670.831827 178.6734 
L 670.831827 178.6734 
L 667.932464 179.320157 
L 665.050609 176.828617 
L 662.09522 176.321511 
L 659.108315 188.226827 
L 656.044375 182.08343 
L 653.127503 172.285302 
L 650.165111 169.709879 
L 647.178206 178.276852 
L 644.310358 177.072237 
L 641.386483 177.853539 
L 638.48712 180.79204 
L 635.510721 180.45853 
L 632.502807 179.257459 
L 629.561424 173.520019 
L 626.623542 180.63748 
L 623.752192 197.359388 
L 620.803806 200.077918 
L 617.858922 178.825157 
L 614.865014 179.120361 
L 612.004169 176.196858 
L 608.992753 175.448596 
L 605.960328 175.130084 
L 602.864872 174.933331 
L 599.730899 173.174313 
L 596.715981 177.412096 
L 593.82012 178.037757 
L 590.875235 213.051532 
L 587.888331 174.035535 
L 584.747354 176.2149 
L 581.918024 179.933873 
L 579.074687 180.559785 
L 576.21034 180.291774 
L 573.342492 178.104339 
L 570.474644 181.156039 
L 567.63831 180.062322 
L 564.742449 180.047323 
L 561.836082 178.840155 
L 558.936719 179.409216 
L 556.065369 180.530128 
L 553.180013 179.933873 
L 550.224623 179.927775 
L 547.32526 178.99801 
L 544.457412 178.193148 
L 541.558048 181.644941 
L 538.6902 179.767118 
L 535.780332 172.556472 
L 532.842451 177.615186 
L 530.020124 175.946059 
L 527.16278 170.294384 
L 524.315942 179.415314 
L 521.430585 172.247351 
L 518.531222 165.923639 
L 515.638862 167.633876 
L 512.644955 179.486912 
L 509.707073 180.351177 
L 506.853232 179.754922 
L 504.006393 179.933873 
L 501.121037 179.653668 
L 498.197162 179.636206 
L 495.283792 175.186683 
L 492.387931 165.280015 
L 489.513079 172.432399 
L 486.613716 175.034095 
L 483.728359 175.939961 
L 480.828996 172.613902 
L 477.905122 169.332499 
L 474.977745 173.133203 
L 471.955824 173.770819 
L 469.063465 176.521468 
L 466.1606 181.734001 
L 463.219217 218.238444 
L 460.260326 179.248559 
L 457.259415 178.390391 
L 454.14295 177.418774 
L 451.18756 173.507824 
L 448.239174 169.741153 
L 445.266276 173.424862 
L 442.398428 173.099421 
L 439.520075 170.422833 
L 436.634718 163.907735 
L 433.777375 174.31549 
L 430.885015 174.378438 
L 427.964642 174.339049 
L 425.02676 169.985023 
L 422.060866 170.055289 
L 419.207024 173.740331 
L 416.349681 176.178315 
L 413.418803 192.659228 
L 410.39338 200.310603 
L 407.480011 172.765079 
L 404.489605 173.898185 
L 401.506202 176.92048 
L 398.568321 174.234249 
L 395.602426 175.487154 
L 392.531483 172.217114 
L 389.439529 171.479965 
L 386.256532 172.228316 
L 383.024513 171.44421 
L 379.774985 170.5591 
L 376.528959 172.478776 
L 373.237411 162.215661 
L 369.931857 171.477412 
L 366.678828 175.426669 
L 363.478323 172.574497 
L 360.410881 180.52403 
L 357.329432 175.390914 
L 354.356534 174.893362 
L 351.387138 175.287107 
L 348.386227 173.873795 
L 345.30828 171.844214 
L 342.240838 171.024354 
L 339.26794 172.678483 
L 336.207502 178.189273 
L 333.164571 179.193875 
L 330.156657 171.470745 
L 327.239785 164.696266 
L 324.245878 167.503766 
L 321.25197 159.855567 
L 318.191531 166.028838 
L 315.033046 149.971119 
L 311.692476 130.73218 
L 308.236351 152.136345 
L 305.410522 172.859907 
L 302.574189 178.59091 
L 299.744858 176.663688 
L 296.912027 168.022054 
L 294.0897 179.208171 
L 291.253366 181.444225 
L 288.396023 176.579773 
L 285.528174 185.413658 
L 282.681336 186.835709 
L 279.823992 165.805027 
L 276.917626 143.175432 
L 273.454498 136.730962 
L 270.492105 169.069309 
L 267.638263 160.801442 
L 264.507791 133.995261 
L 261.01665 149.64574 
L 258.054257 165.298663 
L 255.203917 168.329858 
L 252.367584 171.347064 
L 249.475224 174.393007 
L 246.673907 173.781665 
L 243.862085 175.343528 
L 241.036256 178.151118 
L 238.231437 176.679234 
L 235.416114 175.26337 
L 232.60079 159.557573 
L 229.764457 175.781929 
L 226.94213 175.695761 
L 224.133809 175.999097 
L 221.314984 179.230177 
L 218.49966 175.829225 
L 215.663327 173.31684 
L 212.833997 175.39471 
L 209.976653 176.941487 
L 207.14032 177.135096 
L 204.317993 177.758293 
L 201.471154 178.092144 
L 198.624316 174.113052 
L 195.745963 175.170765 
L 192.920134 175.812014 
L 190.090804 176.810575 
L 187.219454 177.58486 
L 184.376117 172.998328 
L 181.497764 175.581971 
L 178.587896 170.41105 
L 175.629005 165.380271 
L 172.740146 170.41902 
L 169.85479 168.848507 
L 166.955427 161.541639 
L 164.073572 159.148695 
L 161.093671 156.613179 
L 158.026228 158.42451 
L 154.937776 149.229931 
L 151.611212 137.569222 
L 148.004517 126.130776 
L 144.345296 123.432903 
L 140.633551 79.803991 
L 136.603156 85.551036 
L 132.618283 81.040346 
L 128.601894 84.998525 
L 124.631028 83.523067 
L 120.649656 82.43423 
L 116.731313 88.868947 
L 112.76745 95.662128 
L 108.824596 91.827546 
L 104.860732 95.956802 
L 100.830337 85.069611 
L 96.848966 101.630439 
L 92.96564 89.710624 
L 89.029789 51.51328 
L 85.100942 43.071756 
L 81.235125 62.556554 
L 77.558396 57.260291 
z
" clip-path="url(#paad1e89bd6)" style="fill: #2ca02c; fill-opacity: 0.2"/>
   </g>
   <g id="FillBetweenPolyCollection_4">
    <path d="M 77.726475 51.429048 
L 77.726475 349.547727 
L 81.445223 347.199215 
L 85.349559 350.482913 
L 89.208373 347.978197 
L 93.095201 338.806007 
L 96.929503 346.967513 
L 100.788318 346.397822 
L 104.654135 346.428543 
L 108.544464 343.975285 
L 112.455803 344.627705 
L 116.265594 351.043126 
L 120.23296 341.38525 
L 124.294869 351.344203 
L 128.010116 339.283114 
L 131.886439 340.52005 
L 135.703233 349.574574 
L 139.71612 338.437477 
L 143.760521 345.120312 
L 147.699873 342.934601 
L 151.516668 345.858176 
L 155.697634 352.444996 
L 159.570455 357.223728 
L 163.523813 349.763937 
L 167.498182 352.723252 
L 171.378006 343.869198 
L 175.254328 350.961574 
L 179.116644 339.34496 
L 183.119026 341.837488 
L 186.95683 343.79176 
L 191.225337 345.293989 
L 194.989607 338.786622 
L 198.872933 351.517663 
L 202.756259 340.392384 
L 206.706116 342.739989 
L 210.75752 349.781158 
L 214.637345 346.628745 
L 218.569693 315.782792 
L 222.565072 362.828922 
L 226.343348 358.195662 
L 230.293205 345.712377 
L 234.285082 348.447727 
L 238.227936 347.043384 
L 242.181295 357.149454 
L 245.928056 353.429459 
L 249.720339 356.201294 
L 253.663193 343.532826 
L 257.578033 337.894679 
L 261.555904 358.199516 
L 265.603807 329.364299 
L 269.665716 344.409684 
L 273.654092 347.361734 
L 277.698493 342.091478 
L 281.357714 363.645492 
L 285.223531 330.780276 
L 289.365979 348.566941 
L 293.326341 345.351847 
L 297.318217 336.242545 
L 301.205045 350.510557 
L 304.934298 357.753745 
L 308.740588 346.190635 
L 312.623914 339.707629 
L 316.65781 361.952565 
L 320.516624 338.735185 
L 324.448973 352.914087 
L 328.451355 339.671615 
L 332.282156 340.080834 
L 336.049927 346.388251 
L 339.919247 326.035494 
L 344.107216 329.836821 
L 348.004548 345.87163 
L 351.929894 326.393438 
L 355.939279 337.806833 
L 360.001188 360.913301 
L 363.937039 336.958074 
L 367.844876 352.959942 
L 371.882274 350.806349 
L 375.930177 347.367297 
L 379.8065 345.676206 
L 383.658311 352.102676 
L 387.576653 360.311102 
L 391.431966 351.905612 
L 395.409836 345.707213 
L 399.261647 348.662128 
L 403.264029 353.323651 
L 407.206882 366.62266 
L 411.118221 346.949868 
L 414.952524 361.153085 
L 418.681777 349.580077 
L 422.544093 350.121157 
L 426.283851 366.074877 
L 430.25822 349.910398 
L 434.106529 347.526788 
L 438.164937 345.643896 
L 442.065771 341.518624 
L 446.012127 353.039068 
L 449.923466 354.530694 
L 453.523158 353.462527 
L 457.395979 343.268132 
L 461.366846 341.979542 
L 465.285188 348.047761 
L 469.045956 350.063979 
L 473.023827 362.87899 
L 477.124254 339.862022 
L 481.168656 359.733449 
L 484.988952 349.644287 
L 488.798743 336.619331 
L 492.622541 343.882355 
L 496.453342 344.522596 
L 500.308655 355.403081 
L 504.086931 358.11665 
L 507.893221 338.819964 
L 511.825569 353.134645 
L 515.705394 331.088628 
L 519.658752 343.632342 
L 523.56659 355.410163 
L 527.579476 347.282206 
L 531.616874 343.729071 
L 535.454679 345.726103 
L 539.239959 351.206478 
L 542.895677 360.024699 
L 546.814019 353.600066 
L 550.683339 352.713064 
L 554.503635 357.782103 
L 558.169859 349.356503 
L 562.011165 355.969031 
L 565.908497 327.104804 
L 569.959902 341.412359 
L 573.804709 344.503452 
L 577.639012 343.249871 
L 581.704423 338.412616 
L 585.626267 334.059314 
L 589.576124 342.500146 
L 593.645037 351.530827 
L 597.395301 348.471921 
L 601.341656 365.932146 
L 604.972863 340.390934 
L 608.6671 367.261754 
L 612.4944 347.033512 
L 616.447758 325.476717 
L 620.310074 365.945529 
L 624.319459 329.893962 
L 628.360359 351.350419 
L 632.292708 331.255334 
L 636.309096 352.38723 
L 640.265957 330.199817 
L 644.054738 363.461967 
L 647.748975 362.446106 
L 651.362674 351.697636 
L 655.123442 353.953169 
L 658.922728 354.461731 
L 662.799051 345.907913 
L 666.745406 355.431629 
L 670.600719 355.744299 
L 670.600719 74.617485 
L 670.600719 74.617485 
L 666.745406 50.039324 
L 662.799051 47.809036 
L 658.922728 39.94663 
L 655.123442 42.875134 
L 651.362674 46.167785 
L 647.748975 46.481907 
L 644.054738 52.03446 
L 640.265957 42.08336 
L 636.309096 52.738017 
L 632.292708 40.682137 
L 628.360359 35.45241 
L 624.319459 35.820802 
L 620.310074 49.205192 
L 616.447758 57.523346 
L 612.4944 41.843553 
L 608.6671 62.062912 
L 604.972863 42.609129 
L 601.341656 52.329928 
L 597.395301 35.910966 
L 593.645037 39.420474 
L 589.576124 47.414036 
L 585.626267 37.532451 
L 581.704423 31.796325 
L 577.639012 37.675956 
L 573.804709 57.856147 
L 569.959902 45.736176 
L 565.908497 32.732957 
L 562.011165 43.62492 
L 558.169859 50.92886 
L 554.503635 61.862795 
L 550.683339 48.263711 
L 546.814019 51.179475 
L 542.895677 58.928788 
L 539.239959 46.313237 
L 535.454679 40.385314 
L 531.616874 54.482056 
L 527.579476 55.423099 
L 523.56659 37.269668 
L 519.658752 49.393195 
L 515.705394 42.923079 
L 511.825569 46.113599 
L 507.893221 33.808919 
L 504.086931 47.700008 
L 500.308655 49.030753 
L 496.453342 37.786055 
L 492.622541 47.068946 
L 488.798743 46.726438 
L 484.988952 58.592313 
L 481.168656 46.774621 
L 477.124254 51.089279 
L 473.023827 47.431846 
L 469.045956 55.75268 
L 465.285188 28.038182 
L 461.366846 39.291991 
L 457.395979 61.857115 
L 453.523158 45.440011 
L 449.923466 65.805617 
L 446.012127 52.431885 
L 442.065771 58.766739 
L 438.164937 35.281931 
L 434.106529 54.83281 
L 430.25822 55.214849 
L 426.283851 54.952845 
L 422.544093 47.052852 
L 418.681777 50.013874 
L 414.952524 63.677403 
L 411.118221 43.655727 
L 407.206882 51.98512 
L 403.264029 50.073066 
L 399.261647 44.709115 
L 395.409836 52.158208 
L 391.431966 46.651221 
L 387.576653 43.085615 
L 383.658311 62.010927 
L 379.8065 38.015269 
L 375.930177 42.892592 
L 371.882274 56.393134 
L 367.844876 30.731533 
L 363.937039 44.313459 
L 360.001188 58.040185 
L 355.939279 34.82205 
L 351.929894 43.124091 
L 348.004548 42.659729 
L 344.107216 39.680708 
L 339.919247 40.370681 
L 336.049927 60.11982 
L 332.282156 61.933059 
L 328.451355 51.625392 
L 324.448973 60.508104 
L 320.516624 38.04217 
L 316.65781 50.778214 
L 312.623914 38.106844 
L 308.740588 43.723548 
L 304.934298 47.025795 
L 301.205045 54.61469 
L 297.318217 50.214578 
L 293.326341 57.353458 
L 289.365979 51.372716 
L 285.223531 41.157195 
L 281.357714 58.419349 
L 277.698493 51.625471 
L 273.654092 39.095389 
L 269.665716 45.850204 
L 265.603807 45.684526 
L 261.555904 57.642617 
L 257.578033 51.328092 
L 253.663193 49.147005 
L 249.720339 62.752192 
L 245.928056 42.361726 
L 242.181295 58.692679 
L 238.227936 46.673565 
L 234.285082 41.466456 
L 230.293205 46.967453 
L 226.343348 55.917941 
L 222.565072 57.507389 
L 218.569693 34.375201 
L 214.637345 63.336386 
L 210.75752 35.638847 
L 206.706116 46.828488 
L 202.756259 45.719033 
L 198.872933 45.656345 
L 194.989607 39.373557 
L 191.225337 48.077254 
L 186.95683 31.257065 
L 183.119026 39.779751 
L 179.116644 41.926573 
L 175.254328 71.794679 
L 171.378006 43.625043 
L 167.498182 42.722227 
L 163.523813 58.472664 
L 159.570455 54.815639 
L 155.697634 65.471372 
L 151.516668 52.698657 
L 147.699873 56.313644 
L 143.760521 45.830989 
L 139.71612 52.513824 
L 135.703233 43.105257 
L 131.886439 43.862837 
L 128.010116 44.062655 
L 124.294869 43.064158 
L 120.23296 37.812047 
L 116.265594 46.822295 
L 112.455803 30.42112 
L 108.544464 50.08737 
L 104.654135 54.202526 
L 100.788318 51.121893 
L 96.929503 58.50344 
L 93.095201 44.539762 
L 89.208373 53.68999 
L 85.349559 39.776976 
L 81.445223 35.800848 
L 77.726475 51.429048 
z
" clip-path="url(#paad1e89bd6)" style="fill: #d62728; fill-opacity: 0.2"/>
   </g>
   <g id="matplotlib.axis_1">
    <g id="xtick_1">
     <g id="line2d_1">
      <path d="M 75.723533 390.04 
L 75.723533 10.8 
" clip-path="url(#paad1e89bd6)" style="fill: none; stroke: #b0b0b0; stroke-width: 0.8; stroke-linecap: square"/>
     </g>
     <g id="line2d_2">
      <defs>
       <path id="m603627fa08" d="M 0 0 
L 0 3.5 
" style="stroke: #000000; stroke-width: 0.8"/>
      </defs>
      <g>
       <use xlink:href="#m603627fa08" x="75.723533" y="390.04" style="stroke: #000000; stroke-width: 0.8"/>
      </g>
     </g>
     <g id="text_1">
      <!-- 0 -->
      <g transform="translate(72.542283 404.638438) scale(0.1 -0.1)">
       <defs>
        <path id="DejaVuSans-30" d="M 2034 4250 
Q 1547 4250 1301 3770 
Q 1056 3291 1056 2328 
Q 1056 1369 1301 889 
Q 1547 409 2034 409 
Q 2525 409 2770 889 
Q 3016 1369 3016 2328 
Q 3016 3291 2770 3770 
Q 2525 4250 2034 4250 
z
M 2034 4750 
Q 2819 4750 3233 4129 
Q 3647 3509 3647 2328 
Q 3647 1150 3233 529 
Q 2819 -91 2034 -91 
Q 1250 -91 836 529 
Q 422 1150 422 2328 
Q 422 3509 836 4129 
Q 1250 4750 2034 4750 
z
" transform="scale(0.015625)"/>
       </defs>
       <use xlink:href="#DejaVuSans-30"/>
      </g>
     </g>
    </g>
    <g id="xtick_2">
     <g id="line2d_3">
      <path d="M 163.264691 390.04 
L 163.264691 10.8 
" clip-path="url(#paad1e89bd6)" style="fill: none; stroke: #b0b0b0; stroke-width: 0.8; stroke-linecap: square"/>
     </g>
     <g id="line2d_4">
      <g>
       <use xlink:href="#m603627fa08" x="163.264691" y="390.04" style="stroke: #000000; stroke-width: 0.8"/>
      </g>
     </g>
     <g id="text_2">
      <!-- 25000 -->
      <g transform="translate(147.358441 404.638438) scale(0.1 -0.1)">
       <defs>
        <path id="DejaVuSans-32" d="M 1228 531 
L 3431 531 
L 3431 0 
L 469 0 
L 469 531 
Q 828 903 1448 1529 
Q 2069 2156 2228 2338 
Q 2531 2678 2651 2914 
Q 2772 3150 2772 3378 
Q 2772 3750 2511 3984 
Q 2250 4219 1831 4219 
Q 1534 4219 1204 4116 
Q 875 4013 500 3803 
L 500 4441 
Q 881 4594 1212 4672 
Q 1544 4750 1819 4750 
Q 2544 4750 2975 4387 
Q 3406 4025 3406 3419 
Q 3406 3131 3298 2873 
Q 3191 2616 2906 2266 
Q 2828 2175 2409 1742 
Q 1991 1309 1228 531 
z
" transform="scale(0.015625)"/>
        <path id="DejaVuSans-35" d="M 691 4666 
L 3169 4666 
L 3169 4134 
L 1269 4134 
L 1269 2991 
Q 1406 3038 1543 3061 
Q 1681 3084 1819 3084 
Q 2600 3084 3056 2656 
Q 3513 2228 3513 1497 
Q 3513 744 3044 326 
Q 2575 -91 1722 -91 
Q 1428 -91 1123 -41 
Q 819 9 494 109 
L 494 744 
Q 775 591 1075 516 
Q 1375 441 1709 441 
Q 2250 441 2565 725 
Q 2881 1009 2881 1497 
Q 2881 1984 2565 2268 
Q 2250 2553 1709 2553 
Q 1456 2553 1204 2497 
Q 953 2441 691 2322 
L 691 4666 
z
" transform="scale(0.015625)"/>
       </defs>
       <use xlink:href="#DejaVuSans-32"/>
       <use xlink:href="#DejaVuSans-35" transform="translate(63.623047 0)"/>
       <use xlink:href="#DejaVuSans-30" transform="translate(127.246094 0)"/>
       <use xlink:href="#DejaVuSans-30" transform="translate(190.869141 0)"/>
       <use xlink:href="#DejaVuSans-30" transform="translate(254.492188 0)"/>
      </g>
     </g>
    </g>
    <g id="xtick_3">
     <g id="line2d_5">
      <path d="M 250.805849 390.04 
L 250.805849 10.8 
" clip-path="url(#paad1e89bd6)" style="fill: none; stroke: #b0b0b0; stroke-width: 0.8; stroke-linecap: square"/>
     </g>
     <g id="line2d_6">
      <g>
       <use xlink:href="#m603627fa08" x="250.805849" y="390.04" style="stroke: #000000; stroke-width: 0.8"/>
      </g>
     </g>
     <g id="text_3">
      <!-- 50000 -->
      <g transform="translate(234.899599 404.638438) scale(0.1 -0.1)">
       <use xlink:href="#DejaVuSans-35"/>
       <use xlink:href="#DejaVuSans-30" transform="translate(63.623047 0)"/>
       <use xlink:href="#DejaVuSans-30" transform="translate(127.246094 0)"/>
       <use xlink:href="#DejaVuSans-30" transform="translate(190.869141 0)"/>
       <use xlink:href="#DejaVuSans-30" transform="translate(254.492188 0)"/>
      </g>
     </g>
    </g>
    <g id="xtick_4">
     <g id="line2d_7">
      <path d="M 338.347007 390.04 
L 338.347007 10.8 
" clip-path="url(#paad1e89bd6)" style="fill: none; stroke: #b0b0b0; stroke-width: 0.8; stroke-linecap: square"/>
     </g>
     <g id="line2d_8">
      <g>
       <use xlink:href="#m603627fa08" x="338.347007" y="390.04" style="stroke: #000000; stroke-width: 0.8"/>
      </g>
     </g>
     <g id="text_4">
      <!-- 75000 -->
      <g transform="translate(322.440757 404.638438) scale(0.1 -0.1)">
       <defs>
        <path id="DejaVuSans-37" d="M 525 4666 
L 3525 4666 
L 3525 4397 
L 1831 0 
L 1172 0 
L 2766 4134 
L 525 4134 
L 525 4666 
z
" transform="scale(0.015625)"/>
       </defs>
       <use xlink:href="#DejaVuSans-37"/>
       <use xlink:href="#DejaVuSans-35" transform="translate(63.623047 0)"/>
       <use xlink:href="#DejaVuSans-30" transform="translate(127.246094 0)"/>
       <use xlink:href="#DejaVuSans-30" transform="translate(190.869141 0)"/>
       <use xlink:href="#DejaVuSans-30" transform="translate(254.492188 0)"/>
      </g>
     </g>
    </g>
    <g id="xtick_5">
     <g id="line2d_9">
      <path d="M 425.888165 390.04 
L 425.888165 10.8 
" clip-path="url(#paad1e89bd6)" style="fill: none; stroke: #b0b0b0; stroke-width: 0.8; stroke-linecap: square"/>
     </g>
     <g id="line2d_10">
      <g>
       <use xlink:href="#m603627fa08" x="425.888165" y="390.04" style="stroke: #000000; stroke-width: 0.8"/>
      </g>
     </g>
     <g id="text_5">
      <!-- 100000 -->
      <g transform="translate(406.800665 404.638438) scale(0.1 -0.1)">
       <defs>
        <path id="DejaVuSans-31" d="M 794 531 
L 1825 531 
L 1825 4091 
L 703 3866 
L 703 4441 
L 1819 4666 
L 2450 4666 
L 2450 531 
L 3481 531 
L 3481 0 
L 794 0 
L 794 531 
z
" transform="scale(0.015625)"/>
       </defs>
       <use xlink:href="#DejaVuSans-31"/>
       <use xlink:href="#DejaVuSans-30" transform="translate(63.623047 0)"/>
       <use xlink:href="#DejaVuSans-30" transform="translate(127.246094 0)"/>
       <use xlink:href="#DejaVuSans-30" transform="translate(190.869141 0)"/>
       <use xlink:href="#DejaVuSans-30" transform="translate(254.492188 0)"/>
       <use xlink:href="#DejaVuSans-30" transform="translate(318.115234 0)"/>
      </g>
     </g>
    </g>
    <g id="xtick_6">
     <g id="line2d_11">
      <path d="M 513.429323 390.04 
L 513.429323 10.8 
" clip-path="url(#paad1e89bd6)" style="fill: none; stroke: #b0b0b0; stroke-width: 0.8; stroke-linecap: square"/>
     </g>
     <g id="line2d_12">
      <g>
       <use xlink:href="#m603627fa08" x="513.429323" y="390.04" style="stroke: #000000; stroke-width: 0.8"/>
      </g>
     </g>
     <g id="text_6">
      <!-- 125000 -->
      <g transform="translate(494.341823 404.638438) scale(0.1 -0.1)">
       <use xlink:href="#DejaVuSans-31"/>
       <use xlink:href="#DejaVuSans-32" transform="translate(63.623047 0)"/>
       <use xlink:href="#DejaVuSans-35" transform="translate(127.246094 0)"/>
       <use xlink:href="#DejaVuSans-30" transform="translate(190.869141 0)"/>
       <use xlink:href="#DejaVuSans-30" transform="translate(254.492188 0)"/>
       <use xlink:href="#DejaVuSans-30" transform="translate(318.115234 0)"/>
      </g>
     </g>
    </g>
    <g id="xtick_7">
     <g id="line2d_13">
      <path d="M 600.970481 390.04 
L 600.970481 10.8 
" clip-path="url(#paad1e89bd6)" style="fill: none; stroke: #b0b0b0; stroke-width: 0.8; stroke-linecap: square"/>
     </g>
     <g id="line2d_14">
      <g>
       <use xlink:href="#m603627fa08" x="600.970481" y="390.04" style="stroke: #000000; stroke-width: 0.8"/>
      </g>
     </g>
     <g id="text_7">
      <!-- 150000 -->
      <g transform="translate(581.882981 404.638438) scale(0.1 -0.1)">
       <use xlink:href="#DejaVuSans-31"/>
       <use xlink:href="#DejaVuSans-35" transform="translate(63.623047 0)"/>
       <use xlink:href="#DejaVuSans-30" transform="translate(127.246094 0)"/>
       <use xlink:href="#DejaVuSans-30" transform="translate(190.869141 0)"/>
       <use xlink:href="#DejaVuSans-30" transform="translate(254.492188 0)"/>
       <use xlink:href="#DejaVuSans-30" transform="translate(318.115234 0)"/>
      </g>
     </g>
    </g>
    <g id="xtick_8">
     <g id="line2d_15">
      <path d="M 688.51164 390.04 
L 688.51164 10.8 
" clip-path="url(#paad1e89bd6)" style="fill: none; stroke: #b0b0b0; stroke-width: 0.8; stroke-linecap: square"/>
     </g>
     <g id="line2d_16">
      <g>
       <use xlink:href="#m603627fa08" x="688.51164" y="390.04" style="stroke: #000000; stroke-width: 0.8"/>
      </g>
     </g>
     <g id="text_8">
      <!-- 175000 -->
      <g transform="translate(669.42414 404.638438) scale(0.1 -0.1)">
       <use xlink:href="#DejaVuSans-31"/>
       <use xlink:href="#DejaVuSans-37" transform="translate(63.623047 0)"/>
       <use xlink:href="#DejaVuSans-35" transform="translate(127.246094 0)"/>
       <use xlink:href="#DejaVuSans-30" transform="translate(190.869141 0)"/>
       <use xlink:href="#DejaVuSans-30" transform="translate(254.492188 0)"/>
       <use xlink:href="#DejaVuSans-30" transform="translate(318.115234 0)"/>
      </g>
     </g>
    </g>
    <g id="text_9">
     <!-- Steps -->
     <g transform="translate(360.079209 418.316562) scale(0.1 -0.1)">
      <defs>
       <path id="DejaVuSans-53" d="M 3425 4513 
L 3425 3897 
Q 3066 4069 2747 4153 
Q 2428 4238 2131 4238 
Q 1616 4238 1336 4038 
Q 1056 3838 1056 3469 
Q 1056 3159 1242 3001 
Q 1428 2844 1947 2747 
L 2328 2669 
Q 3034 2534 3370 2195 
Q 3706 1856 3706 1288 
Q 3706 609 3251 259 
Q 2797 -91 1919 -91 
Q 1588 -91 1214 -16 
Q 841 59 441 206 
L 441 856 
Q 825 641 1194 531 
Q 1563 422 1919 422 
Q 2459 422 2753 634 
Q 3047 847 3047 1241 
Q 3047 1584 2836 1778 
Q 2625 1972 2144 2069 
L 1759 2144 
Q 1053 2284 737 2584 
Q 422 2884 422 3419 
Q 422 4038 858 4394 
Q 1294 4750 2059 4750 
Q 2388 4750 2728 4690 
Q 3069 4631 3425 4513 
z
" transform="scale(0.015625)"/>
       <path id="DejaVuSans-74" d="M 1172 4494 
L 1172 3500 
L 2356 3500 
L 2356 3053 
L 1172 3053 
L 1172 1153 
Q 1172 725 1289 603 
Q 1406 481 1766 481 
L 2356 481 
L 2356 0 
L 1766 0 
Q 1100 0 847 248 
Q 594 497 594 1153 
L 594 3053 
L 172 3053 
L 172 3500 
L 594 3500 
L 594 4494 
L 1172 4494 
z
" transform="scale(0.015625)"/>
       <path id="DejaVuSans-65" d="M 3597 1894 
L 3597 1613 
L 953 1613 
Q 991 1019 1311 708 
Q 1631 397 2203 397 
Q 2534 397 2845 478 
Q 3156 559 3463 722 
L 3463 178 
Q 3153 47 2828 -22 
Q 2503 -91 2169 -91 
Q 1331 -91 842 396 
Q 353 884 353 1716 
Q 353 2575 817 3079 
Q 1281 3584 2069 3584 
Q 2775 3584 3186 3129 
Q 3597 2675 3597 1894 
z
M 3022 2063 
Q 3016 2534 2758 2815 
Q 2500 3097 2075 3097 
Q 1594 3097 1305 2825 
Q 1016 2553 972 2059 
L 3022 2063 
z
" transform="scale(0.015625)"/>
       <path id="DejaVuSans-70" d="M 1159 525 
L 1159 -1331 
L 581 -1331 
L 581 3500 
L 1159 3500 
L 1159 2969 
Q 1341 3281 1617 3432 
Q 1894 3584 2278 3584 
Q 2916 3584 3314 3078 
Q 3713 2572 3713 1747 
Q 3713 922 3314 415 
Q 2916 -91 2278 -91 
Q 1894 -91 1617 61 
Q 1341 213 1159 525 
z
M 3116 1747 
Q 3116 2381 2855 2742 
Q 2594 3103 2138 3103 
Q 1681 3103 1420 2742 
Q 1159 2381 1159 1747 
Q 1159 1113 1420 752 
Q 1681 391 2138 391 
Q 2594 391 2855 752 
Q 3116 1113 3116 1747 
z
" transform="scale(0.015625)"/>
       <path id="DejaVuSans-73" d="M 2834 3397 
L 2834 2853 
Q 2591 2978 2328 3040 
Q 2066 3103 1784 3103 
Q 1356 3103 1142 2972 
Q 928 2841 928 2578 
Q 928 2378 1081 2264 
Q 1234 2150 1697 2047 
L 1894 2003 
Q 2506 1872 2764 1633 
Q 3022 1394 3022 966 
Q 3022 478 2636 193 
Q 2250 -91 1575 -91 
Q 1294 -91 989 -36 
Q 684 19 347 128 
L 347 722 
Q 666 556 975 473 
Q 1284 391 1588 391 
Q 1994 391 2212 530 
Q 2431 669 2431 922 
Q 2431 1156 2273 1281 
Q 2116 1406 1581 1522 
L 1381 1569 
Q 847 1681 609 1914 
Q 372 2147 372 2553 
Q 372 3047 722 3315 
Q 1072 3584 1716 3584 
Q 2034 3584 2315 3537 
Q 2597 3491 2834 3397 
z
" transform="scale(0.015625)"/>
      </defs>
      <use xlink:href="#DejaVuSans-53"/>
      <use xlink:href="#DejaVuSans-74" transform="translate(63.476562 0)"/>
      <use xlink:href="#DejaVuSans-65" transform="translate(102.685547 0)"/>
      <use xlink:href="#DejaVuSans-70" transform="translate(164.208984 0)"/>
      <use xlink:href="#DejaVuSans-73" transform="translate(227.685547 0)"/>
     </g>
    </g>
   </g>
   <g id="matplotlib.axis_2">
    <g id="ytick_1">
     <g id="line2d_17">
      <path d="M 47.63 368.328648 
L 700.508105 368.328648 
" clip-path="url(#paad1e89bd6)" style="fill: none; stroke: #b0b0b0; stroke-width: 0.8; stroke-linecap: square"/>
     </g>
     <g id="line2d_18">
      <defs>
       <path id="m1b8e46b6c1" d="M 0 0 
L -3.5 0 
" style="stroke: #000000; stroke-width: 0.8"/>
      </defs>
      <g>
       <use xlink:href="#m1b8e46b6c1" x="47.63" y="368.328648" style="stroke: #000000; stroke-width: 0.8"/>
      </g>
     </g>
     <g id="text_10">
      <!-- 2.0 -->
      <g transform="translate(24.726875 372.127867) scale(0.1 -0.1)">
       <defs>
        <path id="DejaVuSans-2e" d="M 684 794 
L 1344 794 
L 1344 0 
L 684 0 
L 684 794 
z
" transform="scale(0.015625)"/>
       </defs>
       <use xlink:href="#DejaVuSans-32"/>
       <use xlink:href="#DejaVuSans-2e" transform="translate(63.623047 0)"/>
       <use xlink:href="#DejaVuSans-30" transform="translate(95.410156 0)"/>
      </g>
     </g>
    </g>
    <g id="ytick_2">
     <g id="line2d_19">
      <path d="M 47.63 316.472749 
L 700.508105 316.472749 
" clip-path="url(#paad1e89bd6)" style="fill: none; stroke: #b0b0b0; stroke-width: 0.8; stroke-linecap: square"/>
     </g>
     <g id="line2d_20">
      <g>
       <use xlink:href="#m1b8e46b6c1" x="47.63" y="316.472749" style="stroke: #000000; stroke-width: 0.8"/>
      </g>
     </g>
     <g id="text_11">
      <!-- 2.5 -->
      <g transform="translate(24.726875 320.271968) scale(0.1 -0.1)">
       <use xlink:href="#DejaVuSans-32"/>
       <use xlink:href="#DejaVuSans-2e" transform="translate(63.623047 0)"/>
       <use xlink:href="#DejaVuSans-35" transform="translate(95.410156 0)"/>
      </g>
     </g>
    </g>
    <g id="ytick_3">
     <g id="line2d_21">
      <path d="M 47.63 264.61685 
L 700.508105 264.61685 
" clip-path="url(#paad1e89bd6)" style="fill: none; stroke: #b0b0b0; stroke-width: 0.8; stroke-linecap: square"/>
     </g>
     <g id="line2d_22">
      <g>
       <use xlink:href="#m1b8e46b6c1" x="47.63" y="264.61685" style="stroke: #000000; stroke-width: 0.8"/>
      </g>
     </g>
     <g id="text_12">
      <!-- 3.0 -->
      <g transform="translate(24.726875 268.416068) scale(0.1 -0.1)">
       <defs>
        <path id="DejaVuSans-33" d="M 2597 2516 
Q 3050 2419 3304 2112 
Q 3559 1806 3559 1356 
Q 3559 666 3084 287 
Q 2609 -91 1734 -91 
Q 1441 -91 1130 -33 
Q 819 25 488 141 
L 488 750 
Q 750 597 1062 519 
Q 1375 441 1716 441 
Q 2309 441 2620 675 
Q 2931 909 2931 1356 
Q 2931 1769 2642 2001 
Q 2353 2234 1838 2234 
L 1294 2234 
L 1294 2753 
L 1863 2753 
Q 2328 2753 2575 2939 
Q 2822 3125 2822 3475 
Q 2822 3834 2567 4026 
Q 2313 4219 1838 4219 
Q 1578 4219 1281 4162 
Q 984 4106 628 3988 
L 628 4550 
Q 988 4650 1302 4700 
Q 1616 4750 1894 4750 
Q 2613 4750 3031 4423 
Q 3450 4097 3450 3541 
Q 3450 3153 3228 2886 
Q 3006 2619 2597 2516 
z
" transform="scale(0.015625)"/>
       </defs>
       <use xlink:href="#DejaVuSans-33"/>
       <use xlink:href="#DejaVuSans-2e" transform="translate(63.623047 0)"/>
       <use xlink:href="#DejaVuSans-30" transform="translate(95.410156 0)"/>
      </g>
     </g>
    </g>
    <g id="ytick_4">
     <g id="line2d_23">
      <path d="M 47.63 212.76095 
L 700.508105 212.76095 
" clip-path="url(#paad1e89bd6)" style="fill: none; stroke: #b0b0b0; stroke-width: 0.8; stroke-linecap: square"/>
     </g>
     <g id="line2d_24">
      <g>
       <use xlink:href="#m1b8e46b6c1" x="47.63" y="212.76095" style="stroke: #000000; stroke-width: 0.8"/>
      </g>
     </g>
     <g id="text_13">
      <!-- 3.5 -->
      <g transform="translate(24.726875 216.560169) scale(0.1 -0.1)">
       <use xlink:href="#DejaVuSans-33"/>
       <use xlink:href="#DejaVuSans-2e" transform="translate(63.623047 0)"/>
       <use xlink:href="#DejaVuSans-35" transform="translate(95.410156 0)"/>
      </g>
     </g>
    </g>
    <g id="ytick_5">
     <g id="line2d_25">
      <path d="M 47.63 160.905051 
L 700.508105 160.905051 
" clip-path="url(#paad1e89bd6)" style="fill: none; stroke: #b0b0b0; stroke-width: 0.8; stroke-linecap: square"/>
     </g>
     <g id="line2d_26">
      <g>
       <use xlink:href="#m1b8e46b6c1" x="47.63" y="160.905051" style="stroke: #000000; stroke-width: 0.8"/>
      </g>
     </g>
     <g id="text_14">
      <!-- 4.0 -->
      <g transform="translate(24.726875 164.70427) scale(0.1 -0.1)">
       <defs>
        <path id="DejaVuSans-34" d="M 2419 4116 
L 825 1625 
L 2419 1625 
L 2419 4116 
z
M 2253 4666 
L 3047 4666 
L 3047 1625 
L 3713 1625 
L 3713 1100 
L 3047 1100 
L 3047 0 
L 2419 0 
L 2419 1100 
L 313 1100 
L 313 1709 
L 2253 4666 
z
" transform="scale(0.015625)"/>
       </defs>
       <use xlink:href="#DejaVuSans-34"/>
       <use xlink:href="#DejaVuSans-2e" transform="translate(63.623047 0)"/>
       <use xlink:href="#DejaVuSans-30" transform="translate(95.410156 0)"/>
      </g>
     </g>
    </g>
    <g id="ytick_6">
     <g id="line2d_27">
      <path d="M 47.63 109.049151 
L 700.508105 109.049151 
" clip-path="url(#paad1e89bd6)" style="fill: none; stroke: #b0b0b0; stroke-width: 0.8; stroke-linecap: square"/>
     </g>
     <g id="line2d_28">
      <g>
       <use xlink:href="#m1b8e46b6c1" x="47.63" y="109.049151" style="stroke: #000000; stroke-width: 0.8"/>
      </g>
     </g>
     <g id="text_15">
      <!-- 4.5 -->
      <g transform="translate(24.726875 112.84837) scale(0.1 -0.1)">
       <use xlink:href="#DejaVuSans-34"/>
       <use xlink:href="#DejaVuSans-2e" transform="translate(63.623047 0)"/>
       <use xlink:href="#DejaVuSans-35" transform="translate(95.410156 0)"/>
      </g>
     </g>
    </g>
    <g id="ytick_7">
     <g id="line2d_29">
      <path d="M 47.63 57.193252 
L 700.508105 57.193252 
" clip-path="url(#paad1e89bd6)" style="fill: none; stroke: #b0b0b0; stroke-width: 0.8; stroke-linecap: square"/>
     </g>
     <g id="line2d_30">
      <g>
       <use xlink:href="#m1b8e46b6c1" x="47.63" y="57.193252" style="stroke: #000000; stroke-width: 0.8"/>
      </g>
     </g>
     <g id="text_16">
      <!-- 5.0 -->
      <g transform="translate(24.726875 60.992471) scale(0.1 -0.1)">
       <use xlink:href="#DejaVuSans-35"/>
       <use xlink:href="#DejaVuSans-2e" transform="translate(63.623047 0)"/>
       <use xlink:href="#DejaVuSans-30" transform="translate(95.410156 0)"/>
      </g>
     </g>
    </g>
    <g id="text_17">
     <!-- Circuit Depth -->
     <g transform="translate(18.647187 233.329375) rotate(-90) scale(0.1 -0.1)">
      <defs>
       <path id="DejaVuSans-43" d="M 4122 4306 
L 4122 3641 
Q 3803 3938 3442 4084 
Q 3081 4231 2675 4231 
Q 1875 4231 1450 3742 
Q 1025 3253 1025 2328 
Q 1025 1406 1450 917 
Q 1875 428 2675 428 
Q 3081 428 3442 575 
Q 3803 722 4122 1019 
L 4122 359 
Q 3791 134 3420 21 
Q 3050 -91 2638 -91 
Q 1578 -91 968 557 
Q 359 1206 359 2328 
Q 359 3453 968 4101 
Q 1578 4750 2638 4750 
Q 3056 4750 3426 4639 
Q 3797 4528 4122 4306 
z
" transform="scale(0.015625)"/>
       <path id="DejaVuSans-69" d="M 603 3500 
L 1178 3500 
L 1178 0 
L 603 0 
L 603 3500 
z
M 603 4863 
L 1178 4863 
L 1178 4134 
L 603 4134 
L 603 4863 
z
" transform="scale(0.015625)"/>
       <path id="DejaVuSans-72" d="M 2631 2963 
Q 2534 3019 2420 3045 
Q 2306 3072 2169 3072 
Q 1681 3072 1420 2755 
Q 1159 2438 1159 1844 
L 1159 0 
L 581 0 
L 581 3500 
L 1159 3500 
L 1159 2956 
Q 1341 3275 1631 3429 
Q 1922 3584 2338 3584 
Q 2397 3584 2469 3576 
Q 2541 3569 2628 3553 
L 2631 2963 
z
" transform="scale(0.015625)"/>
       <path id="DejaVuSans-63" d="M 3122 3366 
L 3122 2828 
Q 2878 2963 2633 3030 
Q 2388 3097 2138 3097 
Q 1578 3097 1268 2742 
Q 959 2388 959 1747 
Q 959 1106 1268 751 
Q 1578 397 2138 397 
Q 2388 397 2633 464 
Q 2878 531 3122 666 
L 3122 134 
Q 2881 22 2623 -34 
Q 2366 -91 2075 -91 
Q 1284 -91 818 406 
Q 353 903 353 1747 
Q 353 2603 823 3093 
Q 1294 3584 2113 3584 
Q 2378 3584 2631 3529 
Q 2884 3475 3122 3366 
z
" transform="scale(0.015625)"/>
       <path id="DejaVuSans-75" d="M 544 1381 
L 544 3500 
L 1119 3500 
L 1119 1403 
Q 1119 906 1312 657 
Q 1506 409 1894 409 
Q 2359 409 2629 706 
Q 2900 1003 2900 1516 
L 2900 3500 
L 3475 3500 
L 3475 0 
L 2900 0 
L 2900 538 
Q 2691 219 2414 64 
Q 2138 -91 1772 -91 
Q 1169 -91 856 284 
Q 544 659 544 1381 
z
M 1991 3584 
L 1991 3584 
z
" transform="scale(0.015625)"/>
       <path id="DejaVuSans-20" transform="scale(0.015625)"/>
       <path id="DejaVuSans-44" d="M 1259 4147 
L 1259 519 
L 2022 519 
Q 2988 519 3436 956 
Q 3884 1394 3884 2338 
Q 3884 3275 3436 3711 
Q 2988 4147 2022 4147 
L 1259 4147 
z
M 628 4666 
L 1925 4666 
Q 3281 4666 3915 4102 
Q 4550 3538 4550 2338 
Q 4550 1131 3912 565 
Q 3275 0 1925 0 
L 628 0 
L 628 4666 
z
" transform="scale(0.015625)"/>
       <path id="DejaVuSans-68" d="M 3513 2113 
L 3513 0 
L 2938 0 
L 2938 2094 
Q 2938 2591 2744 2837 
Q 2550 3084 2163 3084 
Q 1697 3084 1428 2787 
Q 1159 2491 1159 1978 
L 1159 0 
L 581 0 
L 581 4863 
L 1159 4863 
L 1159 2956 
Q 1366 3272 1645 3428 
Q 1925 3584 2291 3584 
Q 2894 3584 3203 3211 
Q 3513 2838 3513 2113 
z
" transform="scale(0.015625)"/>
      </defs>
      <use xlink:href="#DejaVuSans-43"/>
      <use xlink:href="#DejaVuSans-69" transform="translate(69.824219 0)"/>
      <use xlink:href="#DejaVuSans-72" transform="translate(97.607422 0)"/>
      <use xlink:href="#DejaVuSans-63" transform="translate(136.470703 0)"/>
      <use xlink:href="#DejaVuSans-75" transform="translate(191.451172 0)"/>
      <use xlink:href="#DejaVuSans-69" transform="translate(254.830078 0)"/>
      <use xlink:href="#DejaVuSans-74" transform="translate(282.613281 0)"/>
      <use xlink:href="#DejaVuSans-20" transform="translate(321.822266 0)"/>
      <use xlink:href="#DejaVuSans-44" transform="translate(353.609375 0)"/>
      <use xlink:href="#DejaVuSans-65" transform="translate(430.611328 0)"/>
      <use xlink:href="#DejaVuSans-70" transform="translate(492.134766 0)"/>
      <use xlink:href="#DejaVuSans-74" transform="translate(555.611328 0)"/>
      <use xlink:href="#DejaVuSans-68" transform="translate(594.820312 0)"/>
     </g>
    </g>
   </g>
   <g id="line2d_31">
    <path d="M 77.306277 273.605205 
L 80.625838 276.889412 
L 83.850854 269.975293 
L 87.152907 271.012411 
L 90.574015 279.136501 
L 93.827045 284.84065 
L 97.111589 269.283881 
L 100.581721 260.814084 
L 104.097373 250.442904 
L 107.714574 251.652875 
L 111.377296 251.307169 
L 115.02251 242.318813 
L 118.559173 241.281695 
L 122.067822 236.96037 
L 125.471423 238.861753 
L 128.458327 242.664519 
L 131.406713 243.355931 
L 134.369106 247.850109 
L 137.243958 248.022962 
L 140.129314 252.862846 
L 143.011169 248.022962 
L 145.851004 252.689993 
L 148.690839 252.51714 
L 151.52017 257.875583 
L 154.363506 260.295525 
L 157.203342 260.122672 
L 160.036173 259.43126 
L 162.851497 259.949819 
L 165.663319 260.986937 
L 168.492649 261.505496 
L 171.307973 260.122672 
L 174.105788 262.715467 
L 176.910607 262.024055 
L 179.729432 262.196908 
L 182.537753 263.234026 
L 185.353076 262.88832 
L 188.182407 262.715467 
L 190.990727 262.88832 
L 193.809552 262.88832 
L 196.617873 264.098291 
L 199.422691 264.098291 
L 202.24852 263.925438 
L 205.05684 264.61685 
L 207.875666 262.542614 
L 210.690989 263.925438 
L 213.506313 263.234026 
L 216.325138 262.715467 
L 219.13696 262.369761 
L 221.94528 264.098291 
L 224.750099 262.88832 
L 227.579429 262.715467 
L 230.394753 263.579732 
L 233.199572 263.579732 
L 236.00439 264.789703 
L 238.812711 263.579732 
L 241.624533 264.098291 
L 244.436355 263.925438 
L 247.237672 263.406879 
L 250.056497 260.468378 
L 252.878824 265.135409 
L 255.610108 272.222382 
L 258.320382 266.691086 
L 261.104191 264.271144 
L 263.916013 270.666705 
L 266.479218 269.456734 
L 269.287539 265.135409 
L 272.095859 265.481115 
L 274.697582 274.123764 
L 277.425365 264.789703 
L 280.230183 263.234026 
L 283.05251 263.579732 
L 285.881841 263.406879 
L 288.700666 265.135409 
L 291.529996 271.358117 
L 294.359326 280.000766 
L 297.17465 275.333735 
L 300.042498 252.51714 
L 303.659699 249.405786 
L 306.926735 259.604113 
L 309.815593 263.752585 
L 312.683442 261.15979 
L 315.628326 262.024055 
L 318.566207 262.024055 
L 321.448062 264.271144 
L 324.431465 263.234026 
L 327.439379 263.752585 
L 330.401772 264.61685 
L 336.137469 263.925438 
L 339.005317 264.962556 
L 341.855657 264.098291 
L 344.705997 264.443997 
L 347.552836 263.406879 
L 350.375163 263.752585 
L 353.204493 263.234026 
L 356.044328 263.752585 
L 358.884163 239.034606 
L 364.518312 259.258407 
L 367.337137 264.098291 
L 370.145458 264.61685 
L 373.086841 253.381405 
L 376.052735 260.295525 
L 378.91358 262.715467 
L 381.76392 262.715467 
L 384.600254 264.098291 
L 387.405072 263.061173 
L 390.255412 263.234026 
L 393.084743 263.061173 
L 398.704885 265.481115 
L 401.5027 263.925438 
L 404.339034 264.098291 
L 407.154358 263.752585 
L 410.004698 264.271144 
L 415.701876 263.579732 
L 418.53821 263.579732 
L 421.423566 258.566995 
L 424.354444 258.739848 
L 427.274817 259.949819 
L 430.188187 261.678349 
L 433.024521 262.715467 
L 435.825838 266.172527 
L 438.623653 264.443997 
L 441.435475 264.962556 
L 444.268307 263.061173 
L 447.090634 264.271144 
L 449.902456 264.271144 
L 452.724783 263.925438 
L 455.550611 262.715467 
L 458.404453 262.542614 
L 461.230282 263.752585 
L 464.038602 264.443997 
L 466.871434 261.851202 
L 469.88285 285.877768 
L 472.785715 267.036792 
L 475.64656 264.789703 
L 478.479392 265.308262 
L 481.30522 264.789703 
L 484.152059 264.443997 
L 486.974386 260.122672 
L 489.793211 259.43126 
L 492.801125 257.529877 
L 495.749511 270.839558 
L 498.673386 261.332643 
L 501.534231 267.209645 
L 504.377568 267.036792 
L 507.213901 262.369761 
L 510.050235 264.098291 
L 515.701892 263.752585 
L 518.524219 263.752585 
L 521.336041 264.271144 
L 524.165371 263.925438 
L 526.994701 264.789703 
L 529.82053 263.752585 
L 532.642857 263.579732 
L 535.454679 263.234026 
L 538.270002 261.505496 
L 541.351451 264.271144 
L 544.250814 264.271144 
L 547.066138 264.098291 
L 552.738805 264.098291 
L 555.543624 264.61685 
L 558.358947 264.61685 
L 561.216291 262.542614 
L 564.147169 263.406879 
L 566.990506 264.443997 
L 569.823337 264.098291 
L 572.659671 258.566995 
L 575.474995 264.61685 
L 578.318331 260.986937 
L 581.210691 247.33155 
L 584.054028 263.752585 
L 586.918375 257.357024 
L 589.786223 262.369761 
L 592.612052 263.406879 
L 595.448385 263.406879 
L 598.270712 264.443997 
L 601.117551 261.505496 
L 603.957386 262.024055 
L 606.821733 263.234026 
L 609.658066 262.88832 
L 612.47339 263.579732 
L 615.34474 261.505496 
L 618.223093 260.295525 
L 621.076935 259.776966 
L 623.920271 263.234026 
L 626.756605 263.234026 
L 629.589437 263.061173 
L 632.411764 264.098291 
L 635.237592 262.369761 
L 638.073926 259.949819 
L 640.906758 260.468378 
L 643.73959 263.752585 
L 646.575923 263.925438 
L 649.394748 264.271144 
L 652.224079 263.406879 
L 655.049907 262.715467 
L 657.910752 263.925438 
L 660.747086 262.88832 
L 663.628941 264.098291 
L 666.514297 255.282788 
L 669.543221 257.70273 
L 669.543221 257.70273 
" clip-path="url(#paad1e89bd6)" style="fill: none; stroke: #1f77b4; stroke-width: 1.5; stroke-linecap: square"/>
   </g>
   <g id="line2d_32">
    <path d="M 77.505871 232.293339 
L 81.070547 240.763136 
L 84.516167 228.31772 
L 88.143873 234.713281 
L 91.929153 241.627401 
L 95.532347 243.355931 
L 99.342138 241.281695 
L 103.193949 228.144867 
L 107.049261 218.637952 
L 110.820534 231.256221 
L 114.458745 222.786424 
L 118.303553 233.50331 
L 122.109842 232.466192 
L 126.066703 232.984751 
L 130.104101 236.096105 
L 134.127492 236.614664 
L 138.112366 238.343194 
L 142.149764 235.404693 
L 149.811366 229.354838 
L 153.54062 229.527691 
L 157.168325 229.873397 
L 160.824044 229.009132 
L 164.399225 229.873397 
L 167.963901 231.77478 
L 171.560092 229.527691 
L 175.100256 229.181985 
L 178.657929 227.799161 
L 182.219103 229.181985 
L 185.752264 229.873397 
L 189.292428 229.700544 
L 192.822088 230.910515 
L 196.351747 230.04625 
L 199.881407 229.873397 
L 203.411066 230.219103 
L 206.944228 230.737662 
L 210.452877 230.564809 
L 213.982537 229.181985 
L 217.529704 229.700544 
L 221.066367 229.873397 
L 224.610033 229.181985 
L 228.146696 230.219103 
L 231.655346 230.564809 
L 235.178002 229.009132 
L 238.721668 229.700544 
L 242.251327 231.256221 
L 245.773984 231.083368 
L 249.289637 230.391956 
L 252.812293 229.873397 
L 256.348956 229.527691 
L 259.896123 229.700544 
L 263.415278 229.354838 
L 266.969449 229.354838 
L 270.513115 230.04625 
L 274.074289 230.564809 
L 277.614454 229.873397 
L 281.186133 226.416337 
L 284.862862 228.144867 
L 288.501072 229.354838 
L 292.04824 230.04625 
L 295.703959 229.354838 
L 299.324661 229.181985 
L 302.927855 228.836279 
L 306.503036 230.737662 
L 310.081718 230.737662 
L 313.649896 229.700544 
L 317.267097 229.181985 
L 320.835274 229.700544 
L 327.996141 229.009132 
L 331.543309 215.353745 
L 335.07647 216.045157 
L 338.637644 224.169248 
L 342.216327 225.206366 
L 345.777501 225.379219 
L 349.335174 228.490573 
L 352.850826 230.391956 
L 356.383988 219.502217 
L 359.913647 228.31772 
L 363.506336 230.219103 
L 367.106029 220.885041 
L 370.674206 227.626308 
L 374.224876 231.77478 
L 377.772043 228.144867 
L 381.438267 229.181985 
L 384.981933 232.466192 
L 388.550111 230.910515 
L 392.083272 230.737662 
L 395.644446 229.181985 
L 399.209122 241.108842 
L 402.808815 246.467285 
L 406.313963 240.590283 
L 409.836619 250.097198 
L 413.338265 257.529877 
L 416.846915 249.578639 
L 420.355564 252.51714 
L 423.850207 250.961463 
L 427.355355 236.441811 
L 430.864005 251.307169 
L 434.372654 262.542614 
L 437.895311 256.319906 
L 441.40396 250.615757 
L 444.881095 245.257314 
L 448.389745 241.454548 
L 451.891391 242.664519 
L 455.403542 242.491666 
L 458.915694 239.034606 
L 462.420842 240.41743 
L 465.922488 236.96037 
L 469.431137 237.997488 
L 472.932784 233.330457 
L 476.441433 233.50331 
L 479.946581 230.564809 
L 483.451729 235.923252 
L 486.953376 244.565902 
L 490.455022 244.738755 
L 493.96017 240.244577 
L 497.461816 237.306076 
L 500.963463 234.540428 
L 504.482617 241.454548 
L 508.015778 244.220196 
L 511.531431 234.021869 
L 515.043582 230.564809 
L 518.54873 230.737662 
L 522.050377 230.219103 
L 525.54502 231.77478 
L 529.025656 230.910515 
L 532.537807 224.514954 
L 536.028949 230.219103 
L 539.527094 230.737662 
L 543.032241 229.700544 
L 546.533888 229.873397 
L 550.035534 229.873397 
L 553.53718 230.04625 
L 557.038827 230.564809 
L 560.540473 228.490573 
L 564.045621 228.836279 
L 567.550769 230.04625 
L 571.052415 230.391956 
L 574.554062 229.700544 
L 578.115236 232.811898 
L 582.019572 233.676163 
L 585.552733 230.04625 
L 589.057881 230.04625 
L 592.56653 229.873397 
L 596.068177 229.527691 
L 599.573325 229.700544 
L 603.074971 229.527691 
L 606.587122 224.342101 
L 610.088769 194.265679 
L 613.593916 219.67507 
L 617.179602 230.04625 
L 620.68475 224.86066 
L 624.067341 253.727111 
L 627.442928 232.639045 
L 630.944574 221.057894 
L 634.44622 226.934896 
L 637.951368 231.083368 
L 641.453015 229.527691 
L 644.961664 229.354838 
L 648.463311 229.700544 
L 651.964957 229.527691 
L 655.466603 229.009132 
L 658.971751 230.04625 
L 662.473397 230.04625 
L 665.975044 230.564809 
L 669.487195 229.873397 
L 669.487195 229.873397 
" clip-path="url(#paad1e89bd6)" style="fill: none; stroke: #ff7f0e; stroke-width: 1.5; stroke-linecap: square"/>
   </g>
   <g id="line2d_33">
    <path d="M 77.558396 201.179799 
L 81.235125 206.365389 
L 85.100942 194.092826 
L 89.029789 204.464006 
L 92.96564 231.256221 
L 96.848966 233.676163 
L 100.830337 225.206366 
L 104.860732 232.466192 
L 108.824596 227.626308 
L 112.76745 231.429074 
L 116.731313 219.156511 
L 120.649656 213.798068 
L 124.631028 207.748213 
L 128.601894 194.265679 
L 132.618283 191.672884 
L 136.603156 191.845737 
L 140.633551 187.005854 
L 144.345296 206.019683 
L 148.004517 201.871211 
L 151.611212 204.809712 
L 154.937776 211.03242 
L 158.026228 216.390863 
L 161.093671 215.353745 
L 164.073572 218.637952 
L 166.955427 221.230747 
L 169.85479 224.169248 
L 172.740146 224.342101 
L 175.629005 220.539335 
L 178.587896 224.342101 
L 181.497764 226.58919 
L 184.376117 225.033513 
L 187.219454 229.527691 
L 190.090804 227.107749 
L 192.920134 226.934896 
L 195.745963 226.243484 
L 198.624316 226.58919 
L 201.471154 228.144867 
L 204.317993 227.626308 
L 207.14032 228.31772 
L 209.976653 227.972014 
L 215.663327 225.552072 
L 218.49966 227.107749 
L 221.314984 229.700544 
L 224.133809 228.490573 
L 226.94213 226.416337 
L 229.764457 227.453455 
L 232.60079 220.539335 
L 235.416114 226.934896 
L 238.231437 227.280602 
L 241.036256 229.354838 
L 243.862085 227.280602 
L 249.475224 226.243484 
L 252.367584 223.996395 
L 255.203917 224.514954 
L 258.054257 221.749306 
L 261.01665 209.649596 
L 264.507791 203.254035 
L 267.638263 218.637952 
L 270.492105 224.342101 
L 273.454498 203.599741 
L 276.917626 208.958184 
L 279.823992 222.613571 
L 282.681336 237.306076 
L 285.528174 237.997488 
L 288.396023 230.564809 
L 291.253366 232.984751 
L 294.0897 234.540428 
L 296.912027 228.836279 
L 299.744858 230.391956 
L 302.574189 233.50331 
L 305.410522 227.799161 
L 311.692476 197.549886 
L 315.033046 208.785331 
L 318.191531 220.885041 
L 321.25197 219.67507 
L 324.245878 221.576453 
L 327.239785 218.637952 
L 330.156657 228.490573 
L 333.164571 232.639045 
L 336.207502 230.564809 
L 339.26794 224.514954 
L 342.240838 223.13213 
L 345.30828 223.996395 
L 348.386227 225.379219 
L 354.356534 226.416337 
L 357.329432 226.070631 
L 360.410881 229.527691 
L 363.478323 226.070631 
L 366.678828 226.416337 
L 369.931857 223.650689 
L 373.237411 218.465099 
L 376.528959 224.342101 
L 379.774985 222.959277 
L 383.024513 223.13213 
L 386.256532 223.650689 
L 389.439529 223.477836 
L 392.531483 224.169248 
L 395.602426 225.897778 
L 398.568321 225.206366 
L 401.506202 227.107749 
L 404.489605 224.687807 
L 407.480011 224.514954 
L 410.39338 236.787517 
L 413.418803 233.330457 
L 416.349681 225.897778 
L 419.207024 224.687807 
L 422.060866 221.922159 
L 425.02676 222.095012 
L 427.964642 225.552072 
L 430.885015 225.033513 
L 433.777375 224.86066 
L 436.634718 218.119393 
L 439.520075 221.749306 
L 442.398428 223.823542 
L 445.266276 222.786424 
L 448.239174 220.020776 
L 451.18756 223.650689 
L 454.14295 226.243484 
L 460.260326 228.31772 
L 463.219217 268.246763 
L 466.1606 230.737662 
L 469.063465 226.416337 
L 471.955824 223.823542 
L 474.977745 222.267865 
L 477.905122 219.502217 
L 480.828996 222.267865 
L 483.728359 225.724925 
L 486.613716 225.379219 
L 489.513079 222.440718 
L 492.387931 214.48948 
L 495.283792 224.169248 
L 498.197162 227.972014 
L 501.121037 228.836279 
L 504.006393 229.181985 
L 506.853232 229.181985 
L 509.707073 229.354838 
L 512.644955 228.490573 
L 515.638862 218.983658 
L 518.531222 216.736569 
L 524.315942 228.663426 
L 527.16278 221.576453 
L 530.020124 225.552072 
L 532.842451 227.107749 
L 535.780332 223.996395 
L 538.6902 228.836279 
L 541.558048 230.04625 
L 544.457412 227.799161 
L 547.32526 228.490573 
L 550.224623 229.354838 
L 553.180013 229.181985 
L 556.065369 229.354838 
L 558.936719 228.836279 
L 561.836082 228.490573 
L 564.742449 229.181985 
L 567.63831 229.354838 
L 570.474644 230.04625 
L 573.342492 227.799161 
L 576.21034 229.181985 
L 579.074687 229.873397 
L 581.918024 229.181985 
L 584.747354 224.86066 
L 587.888331 225.206366 
L 590.875235 265.653968 
L 593.82012 228.490573 
L 596.715981 228.490573 
L 599.730899 222.959277 
L 602.864872 223.823542 
L 605.960328 224.514954 
L 608.992753 225.033513 
L 612.004169 226.070631 
L 614.865014 228.836279 
L 617.858922 228.31772 
L 620.803806 237.478929 
L 623.752192 236.096105 
L 626.623542 229.527691 
L 629.561424 223.304983 
L 632.502807 228.663426 
L 635.510721 229.527691 
L 638.48712 230.219103 
L 641.386483 227.280602 
L 644.310358 227.280602 
L 647.178206 228.144867 
L 650.165111 225.379219 
L 653.127503 226.243484 
L 656.044375 229.354838 
L 659.108315 230.564809 
L 662.09522 225.552072 
L 665.050609 225.897778 
L 667.932464 228.144867 
L 670.831827 228.144867 
L 670.831827 228.144867 
" clip-path="url(#paad1e89bd6)" style="fill: none; stroke: #2ca02c; stroke-width: 1.5; stroke-linecap: square"/>
   </g>
   <g id="line2d_34">
    <path d="M 77.726475 200.488387 
L 81.445223 191.500031 
L 85.349559 195.129944 
L 89.208373 200.834093 
L 93.095201 191.672884 
L 96.929503 202.735476 
L 100.788318 198.759857 
L 104.654135 200.315534 
L 108.544464 197.031327 
L 112.455803 187.524413 
L 116.265594 198.93271 
L 120.23296 189.598649 
L 124.294869 197.20418 
L 128.010116 191.672884 
L 131.886439 192.191443 
L 135.703233 196.339915 
L 139.71612 195.47565 
L 143.760521 195.47565 
L 147.699873 199.624122 
L 151.516668 199.278416 
L 155.697634 208.958184 
L 159.570455 206.019683 
L 163.523813 204.1183 
L 167.498182 197.722739 
L 171.378006 193.74712 
L 175.254328 211.378126 
L 179.116644 190.635766 
L 183.119026 190.808619 
L 186.95683 187.524413 
L 191.225337 196.685621 
L 194.989607 189.08009 
L 198.872933 198.587004 
L 202.756259 193.055708 
L 206.706116 194.784238 
L 210.75752 192.710002 
L 214.637345 204.982565 
L 218.569693 175.078997 
L 222.565072 210.168155 
L 226.343348 207.056801 
L 230.293205 196.339915 
L 234.285082 194.957091 
L 238.227936 196.858474 
L 242.181295 207.921066 
L 245.928056 197.895592 
L 249.720339 209.476743 
L 253.663193 196.339915 
L 257.578033 194.611385 
L 261.555904 207.921066 
L 265.603807 187.524413 
L 269.665716 195.129944 
L 273.654092 193.228561 
L 277.698493 196.858474 
L 281.357714 211.03242 
L 285.223531 185.968736 
L 289.365979 199.969828 
L 293.326341 201.352652 
L 297.318217 193.228561 
L 301.205045 202.562623 
L 304.934298 202.38977 
L 308.740588 194.957091 
L 312.623914 188.907237 
L 316.65781 206.365389 
L 320.516624 188.388678 
L 324.448973 206.711095 
L 328.451355 195.648503 
L 332.282156 201.006946 
L 336.049927 203.254035 
L 339.919247 183.203088 
L 344.107216 184.758765 
L 348.004548 194.265679 
L 351.929894 184.758765 
L 355.939279 186.314442 
L 360.001188 209.476743 
L 363.937039 190.635766 
L 367.844876 191.845737 
L 371.882274 203.599741 
L 375.930177 195.129944 
L 379.8065 191.845737 
L 383.658311 207.056801 
L 387.576653 201.698358 
L 391.431966 199.278416 
L 395.409836 198.93271 
L 399.261647 196.685621 
L 403.264029 201.698358 
L 407.206882 209.30389 
L 411.118221 195.302797 
L 414.952524 212.415244 
L 418.681777 199.796975 
L 422.544093 198.587004 
L 426.283851 210.513861 
L 430.25822 202.562623 
L 434.106529 201.179799 
L 438.164937 190.462913 
L 442.065771 200.142681 
L 446.012127 202.735476 
L 449.923466 210.168155 
L 453.523158 199.451269 
L 457.395979 202.562623 
L 461.366846 190.635766 
L 465.285188 188.042972 
L 469.045956 202.908329 
L 473.023827 205.155418 
L 477.124254 195.47565 
L 481.168656 203.254035 
L 484.988952 204.1183 
L 488.798743 191.672884 
L 492.622541 195.47565 
L 496.453342 191.154325 
L 500.308655 202.216917 
L 504.086931 202.908329 
L 507.893221 186.314442 
L 511.825569 199.624122 
L 515.705394 187.005854 
L 519.658752 196.512768 
L 523.56659 196.339915 
L 527.579476 201.352652 
L 531.616874 199.105563 
L 535.454679 193.055708 
L 539.239959 198.759857 
L 542.895677 209.476743 
L 546.814019 202.38977 
L 550.683339 200.488387 
L 554.503635 209.822449 
L 558.169859 200.142681 
L 562.011165 199.796975 
L 565.908497 179.918881 
L 569.959902 193.574267 
L 573.804709 201.179799 
L 577.639012 190.462913 
L 581.704423 185.104471 
L 585.626267 185.795883 
L 589.576124 194.957091 
L 593.645037 195.47565 
L 597.395301 192.191443 
L 601.341656 209.131037 
L 604.972863 191.500031 
L 608.6671 214.662333 
L 612.4944 194.438532 
L 616.447758 191.500031 
L 620.310074 207.57536 
L 624.319459 182.857382 
L 628.360359 193.401414 
L 632.292708 185.968736 
L 636.309096 202.562623 
L 640.265957 186.141589 
L 644.054738 207.748213 
L 647.748975 204.464006 
L 651.362674 198.93271 
L 655.123442 198.414151 
L 658.922728 197.20418 
L 662.799051 196.858474 
L 666.745406 202.735476 
L 670.600719 215.180892 
L 670.600719 215.180892 
" clip-path="url(#paad1e89bd6)" style="fill: none; stroke: #d62728; stroke-width: 1.5; stroke-linecap: square"/>
   </g>
   <g id="patch_3">
    <path d="M 47.63 390.04 
L 47.63 10.8 
" style="fill: none; stroke: #000000; stroke-width: 0.8; stroke-linejoin: miter; stroke-linecap: square"/>
   </g>
   <g id="patch_4">
    <path d="M 700.508105 390.04 
L 700.508105 10.8 
" style="fill: none; stroke: #000000; stroke-width: 0.8; stroke-linejoin: miter; stroke-linecap: square"/>
   </g>
   <g id="patch_5">
    <path d="M 47.63 390.04 
L 700.508105 390.04 
" style="fill: none; stroke: #000000; stroke-width: 0.8; stroke-linejoin: miter; stroke-linecap: square"/>
   </g>
   <g id="patch_6">
    <path d="M 47.63 10.8 
L 700.508105 10.8 
" style="fill: none; stroke: #000000; stroke-width: 0.8; stroke-linejoin: miter; stroke-linecap: square"/>
   </g>
   <g id="legend_1">
    <g id="patch_7">
     <path d="M 599.83623 385.04 
L 693.508105 385.04 
Q 695.508105 385.04 695.508105 383.04 
L 695.508105 310.649375 
Q 695.508105 308.649375 693.508105 308.649375 
L 599.83623 308.649375 
Q 597.83623 308.649375 597.83623 310.649375 
L 597.83623 383.04 
Q 597.83623 385.04 599.83623 385.04 
z
" style="fill: #ffffff; opacity: 0.8; stroke: #cccccc; stroke-linejoin: miter"/>
    </g>
    <g id="text_18">
     <!-- Max Circuit Depth -->
     <g transform="translate(601.83623 320.247813) scale(0.1 -0.1)">
      <defs>
       <path id="DejaVuSans-4d" d="M 628 4666 
L 1569 4666 
L 2759 1491 
L 3956 4666 
L 4897 4666 
L 4897 0 
L 4281 0 
L 4281 4097 
L 3078 897 
L 2444 897 
L 1241 4097 
L 1241 0 
L 628 0 
L 628 4666 
z
" transform="scale(0.015625)"/>
       <path id="DejaVuSans-61" d="M 2194 1759 
Q 1497 1759 1228 1600 
Q 959 1441 959 1056 
Q 959 750 1161 570 
Q 1363 391 1709 391 
Q 2188 391 2477 730 
Q 2766 1069 2766 1631 
L 2766 1759 
L 2194 1759 
z
M 3341 1997 
L 3341 0 
L 2766 0 
L 2766 531 
Q 2569 213 2275 61 
Q 1981 -91 1556 -91 
Q 1019 -91 701 211 
Q 384 513 384 1019 
Q 384 1609 779 1909 
Q 1175 2209 1959 2209 
L 2766 2209 
L 2766 2266 
Q 2766 2663 2505 2880 
Q 2244 3097 1772 3097 
Q 1472 3097 1187 3025 
Q 903 2953 641 2809 
L 641 3341 
Q 956 3463 1253 3523 
Q 1550 3584 1831 3584 
Q 2591 3584 2966 3190 
Q 3341 2797 3341 1997 
z
" transform="scale(0.015625)"/>
       <path id="DejaVuSans-78" d="M 3513 3500 
L 2247 1797 
L 3578 0 
L 2900 0 
L 1881 1375 
L 863 0 
L 184 0 
L 1544 1831 
L 300 3500 
L 978 3500 
L 1906 2253 
L 2834 3500 
L 3513 3500 
z
" transform="scale(0.015625)"/>
      </defs>
      <use xlink:href="#DejaVuSans-4d"/>
      <use xlink:href="#DejaVuSans-61" transform="translate(86.279297 0)"/>
      <use xlink:href="#DejaVuSans-78" transform="translate(147.558594 0)"/>
      <use xlink:href="#DejaVuSans-20" transform="translate(206.738281 0)"/>
      <use xlink:href="#DejaVuSans-43" transform="translate(238.525391 0)"/>
      <use xlink:href="#DejaVuSans-69" transform="translate(308.349609 0)"/>
      <use xlink:href="#DejaVuSans-72" transform="translate(336.132812 0)"/>
      <use xlink:href="#DejaVuSans-63" transform="translate(374.996094 0)"/>
      <use xlink:href="#DejaVuSans-75" transform="translate(429.976562 0)"/>
      <use xlink:href="#DejaVuSans-69" transform="translate(493.355469 0)"/>
      <use xlink:href="#DejaVuSans-74" transform="translate(521.138672 0)"/>
      <use xlink:href="#DejaVuSans-20" transform="translate(560.347656 0)"/>
      <use xlink:href="#DejaVuSans-44" transform="translate(592.134766 0)"/>
      <use xlink:href="#DejaVuSans-65" transform="translate(669.136719 0)"/>
      <use xlink:href="#DejaVuSans-70" transform="translate(730.660156 0)"/>
      <use xlink:href="#DejaVuSans-74" transform="translate(794.136719 0)"/>
      <use xlink:href="#DejaVuSans-68" transform="translate(833.345703 0)"/>
     </g>
    </g>
    <g id="line2d_35">
     <path d="M 603.301855 331.425937 
L 613.301855 331.425937 
L 623.301855 331.425937 
" style="fill: none; stroke: #1f77b4; stroke-width: 1.5; stroke-linecap: square"/>
    </g>
    <g id="text_19">
     <!-- 4 (PPO) -->
     <g transform="translate(631.301855 334.925937) scale(0.1 -0.1)">
      <defs>
       <path id="DejaVuSans-28" d="M 1984 4856 
Q 1566 4138 1362 3434 
Q 1159 2731 1159 2009 
Q 1159 1288 1364 580 
Q 1569 -128 1984 -844 
L 1484 -844 
Q 1016 -109 783 600 
Q 550 1309 550 2009 
Q 550 2706 781 3412 
Q 1013 4119 1484 4856 
L 1984 4856 
z
" transform="scale(0.015625)"/>
       <path id="DejaVuSans-50" d="M 1259 4147 
L 1259 2394 
L 2053 2394 
Q 2494 2394 2734 2622 
Q 2975 2850 2975 3272 
Q 2975 3691 2734 3919 
Q 2494 4147 2053 4147 
L 1259 4147 
z
M 628 4666 
L 2053 4666 
Q 2838 4666 3239 4311 
Q 3641 3956 3641 3272 
Q 3641 2581 3239 2228 
Q 2838 1875 2053 1875 
L 1259 1875 
L 1259 0 
L 628 0 
L 628 4666 
z
" transform="scale(0.015625)"/>
       <path id="DejaVuSans-4f" d="M 2522 4238 
Q 1834 4238 1429 3725 
Q 1025 3213 1025 2328 
Q 1025 1447 1429 934 
Q 1834 422 2522 422 
Q 3209 422 3611 934 
Q 4013 1447 4013 2328 
Q 4013 3213 3611 3725 
Q 3209 4238 2522 4238 
z
M 2522 4750 
Q 3503 4750 4090 4092 
Q 4678 3434 4678 2328 
Q 4678 1225 4090 567 
Q 3503 -91 2522 -91 
Q 1538 -91 948 565 
Q 359 1222 359 2328 
Q 359 3434 948 4092 
Q 1538 4750 2522 4750 
z
" transform="scale(0.015625)"/>
       <path id="DejaVuSans-29" d="M 513 4856 
L 1013 4856 
Q 1481 4119 1714 3412 
Q 1947 2706 1947 2009 
Q 1947 1309 1714 600 
Q 1481 -109 1013 -844 
L 513 -844 
Q 928 -128 1133 580 
Q 1338 1288 1338 2009 
Q 1338 2731 1133 3434 
Q 928 4138 513 4856 
z
" transform="scale(0.015625)"/>
      </defs>
      <use xlink:href="#DejaVuSans-34"/>
      <use xlink:href="#DejaVuSans-20" transform="translate(63.623047 0)"/>
      <use xlink:href="#DejaVuSans-28" transform="translate(95.410156 0)"/>
      <use xlink:href="#DejaVuSans-50" transform="translate(134.423828 0)"/>
      <use xlink:href="#DejaVuSans-50" transform="translate(194.726562 0)"/>
      <use xlink:href="#DejaVuSans-4f" transform="translate(255.029297 0)"/>
      <use xlink:href="#DejaVuSans-29" transform="translate(333.740234 0)"/>
     </g>
    </g>
    <g id="line2d_36">
     <path d="M 603.301855 346.104062 
L 613.301855 346.104062 
L 623.301855 346.104062 
" style="fill: none; stroke: #ff7f0e; stroke-width: 1.5; stroke-linecap: square"/>
    </g>
    <g id="text_20">
     <!-- 5 (PPO) -->
     <g transform="translate(631.301855 349.604062) scale(0.1 -0.1)">
      <use xlink:href="#DejaVuSans-35"/>
      <use xlink:href="#DejaVuSans-20" transform="translate(63.623047 0)"/>
      <use xlink:href="#DejaVuSans-28" transform="translate(95.410156 0)"/>
      <use xlink:href="#DejaVuSans-50" transform="translate(134.423828 0)"/>
      <use xlink:href="#DejaVuSans-50" transform="translate(194.726562 0)"/>
      <use xlink:href="#DejaVuSans-4f" transform="translate(255.029297 0)"/>
      <use xlink:href="#DejaVuSans-29" transform="translate(333.740234 0)"/>
     </g>
    </g>
    <g id="line2d_37">
     <path d="M 603.301855 360.782187 
L 613.301855 360.782187 
L 623.301855 360.782187 
" style="fill: none; stroke: #2ca02c; stroke-width: 1.5; stroke-linecap: square"/>
    </g>
    <g id="text_21">
     <!-- 6 (PPO) -->
     <g transform="translate(631.301855 364.282187) scale(0.1 -0.1)">
      <defs>
       <path id="DejaVuSans-36" d="M 2113 2584 
Q 1688 2584 1439 2293 
Q 1191 2003 1191 1497 
Q 1191 994 1439 701 
Q 1688 409 2113 409 
Q 2538 409 2786 701 
Q 3034 994 3034 1497 
Q 3034 2003 2786 2293 
Q 2538 2584 2113 2584 
z
M 3366 4563 
L 3366 3988 
Q 3128 4100 2886 4159 
Q 2644 4219 2406 4219 
Q 1781 4219 1451 3797 
Q 1122 3375 1075 2522 
Q 1259 2794 1537 2939 
Q 1816 3084 2150 3084 
Q 2853 3084 3261 2657 
Q 3669 2231 3669 1497 
Q 3669 778 3244 343 
Q 2819 -91 2113 -91 
Q 1303 -91 875 529 
Q 447 1150 447 2328 
Q 447 3434 972 4092 
Q 1497 4750 2381 4750 
Q 2619 4750 2861 4703 
Q 3103 4656 3366 4563 
z
" transform="scale(0.015625)"/>
      </defs>
      <use xlink:href="#DejaVuSans-36"/>
      <use xlink:href="#DejaVuSans-20" transform="translate(63.623047 0)"/>
      <use xlink:href="#DejaVuSans-28" transform="translate(95.410156 0)"/>
      <use xlink:href="#DejaVuSans-50" transform="translate(134.423828 0)"/>
      <use xlink:href="#DejaVuSans-50" transform="translate(194.726562 0)"/>
      <use xlink:href="#DejaVuSans-4f" transform="translate(255.029297 0)"/>
      <use xlink:href="#DejaVuSans-29" transform="translate(333.740234 0)"/>
     </g>
    </g>
    <g id="line2d_38">
     <path d="M 603.301855 375.460312 
L 613.301855 375.460312 
L 623.301855 375.460312 
" style="fill: none; stroke: #d62728; stroke-width: 1.5; stroke-linecap: square"/>
    </g>
    <g id="text_22">
     <!-- 6 (Random) -->
     <g transform="translate(631.301855 378.960312) scale(0.1 -0.1)">
      <defs>
       <path id="DejaVuSans-52" d="M 2841 2188 
Q 3044 2119 3236 1894 
Q 3428 1669 3622 1275 
L 4263 0 
L 3584 0 
L 2988 1197 
Q 2756 1666 2539 1819 
Q 2322 1972 1947 1972 
L 1259 1972 
L 1259 0 
L 628 0 
L 628 4666 
L 2053 4666 
Q 2853 4666 3247 4331 
Q 3641 3997 3641 3322 
Q 3641 2881 3436 2590 
Q 3231 2300 2841 2188 
z
M 1259 4147 
L 1259 2491 
L 2053 2491 
Q 2509 2491 2742 2702 
Q 2975 2913 2975 3322 
Q 2975 3731 2742 3939 
Q 2509 4147 2053 4147 
L 1259 4147 
z
" transform="scale(0.015625)"/>
       <path id="DejaVuSans-6e" d="M 3513 2113 
L 3513 0 
L 2938 0 
L 2938 2094 
Q 2938 2591 2744 2837 
Q 2550 3084 2163 3084 
Q 1697 3084 1428 2787 
Q 1159 2491 1159 1978 
L 1159 0 
L 581 0 
L 581 3500 
L 1159 3500 
L 1159 2956 
Q 1366 3272 1645 3428 
Q 1925 3584 2291 3584 
Q 2894 3584 3203 3211 
Q 3513 2838 3513 2113 
z
" transform="scale(0.015625)"/>
       <path id="DejaVuSans-64" d="M 2906 2969 
L 2906 4863 
L 3481 4863 
L 3481 0 
L 2906 0 
L 2906 525 
Q 2725 213 2448 61 
Q 2172 -91 1784 -91 
Q 1150 -91 751 415 
Q 353 922 353 1747 
Q 353 2572 751 3078 
Q 1150 3584 1784 3584 
Q 2172 3584 2448 3432 
Q 2725 3281 2906 2969 
z
M 947 1747 
Q 947 1113 1208 752 
Q 1469 391 1925 391 
Q 2381 391 2643 752 
Q 2906 1113 2906 1747 
Q 2906 2381 2643 2742 
Q 2381 3103 1925 3103 
Q 1469 3103 1208 2742 
Q 947 2381 947 1747 
z
" transform="scale(0.015625)"/>
       <path id="DejaVuSans-6f" d="M 1959 3097 
Q 1497 3097 1228 2736 
Q 959 2375 959 1747 
Q 959 1119 1226 758 
Q 1494 397 1959 397 
Q 2419 397 2687 759 
Q 2956 1122 2956 1747 
Q 2956 2369 2687 2733 
Q 2419 3097 1959 3097 
z
M 1959 3584 
Q 2709 3584 3137 3096 
Q 3566 2609 3566 1747 
Q 3566 888 3137 398 
Q 2709 -91 1959 -91 
Q 1206 -91 779 398 
Q 353 888 353 1747 
Q 353 2609 779 3096 
Q 1206 3584 1959 3584 
z
" transform="scale(0.015625)"/>
       <path id="DejaVuSans-6d" d="M 3328 2828 
Q 3544 3216 3844 3400 
Q 4144 3584 4550 3584 
Q 5097 3584 5394 3201 
Q 5691 2819 5691 2113 
L 5691 0 
L 5113 0 
L 5113 2094 
Q 5113 2597 4934 2840 
Q 4756 3084 4391 3084 
Q 3944 3084 3684 2787 
Q 3425 2491 3425 1978 
L 3425 0 
L 2847 0 
L 2847 2094 
Q 2847 2600 2669 2842 
Q 2491 3084 2119 3084 
Q 1678 3084 1418 2786 
Q 1159 2488 1159 1978 
L 1159 0 
L 581 0 
L 581 3500 
L 1159 3500 
L 1159 2956 
Q 1356 3278 1631 3431 
Q 1906 3584 2284 3584 
Q 2666 3584 2933 3390 
Q 3200 3197 3328 2828 
z
" transform="scale(0.015625)"/>
      </defs>
      <use xlink:href="#DejaVuSans-36"/>
      <use xlink:href="#DejaVuSans-20" transform="translate(63.623047 0)"/>
      <use xlink:href="#DejaVuSans-28" transform="translate(95.410156 0)"/>
      <use xlink:href="#DejaVuSans-52" transform="translate(134.423828 0)"/>
      <use xlink:href="#DejaVuSans-61" transform="translate(201.65625 0)"/>
      <use xlink:href="#DejaVuSans-6e" transform="translate(262.935547 0)"/>
      <use xlink:href="#DejaVuSans-64" transform="translate(326.314453 0)"/>
      <use xlink:href="#DejaVuSans-6f" transform="translate(389.791016 0)"/>
      <use xlink:href="#DejaVuSans-6d" transform="translate(450.972656 0)"/>
      <use xlink:href="#DejaVuSans-29" transform="translate(548.384766 0)"/>
     </g>
    </g>
   </g>
  </g>
 </g>
 <defs>
  <clipPath id="paad1e89bd6">
   <rect x="47.63" y="10.8" width="652.878105" height="379.24"/>
  </clipPath>
 </defs>
</svg>
