<?xml version="1.0" encoding="utf-8" standalone="no"?>
<!DOCTYPE svg PUBLIC "-//W3C//DTD SVG 1.1//EN"
  "http://www.w3.org/Graphics/SVG/1.1/DTD/svg11.dtd">
<svg xmlns:xlink="http://www.w3.org/1999/xlink" width="720pt" height="432pt" viewBox="0 0 720 432" xmlns="http://www.w3.org/2000/svg" version="1.1">
 <metadata>
  <rdf:RDF xmlns:dc="http://purl.org/dc/elements/1.1/" xmlns:cc="http://creativecommons.org/ns#" xmlns:rdf="http://www.w3.org/1999/02/22-rdf-syntax-ns#">
   <cc:Work>
    <dc:type rdf:resource="http://purl.org/dc/dcmitype/StillImage"/>
    <dc:date>2025-04-15T19:19:33.049143</dc:date>
    <dc:format>image/svg+xml</dc:format>
    <dc:creator>
     <cc:Agent>
      <dc:title>Matplotlib v3.10.0, https://matplotlib.org/</dc:title>
     </cc:Agent>
    </dc:creator>
   </cc:Work>
  </rdf:RDF>
 </metadata>
 <defs>
  <style type="text/css">*{stroke-linejoin: round; stroke-linecap: butt}</style>
 </defs>
 <g id="figure_1">
  <g id="patch_1">
   <path d="M 0 432 
L 720 432 
L 720 0 
L 0 0 
z
" style="fill: #ffffff"/>
  </g>
  <g id="axes_1">
   <g id="patch_2">
    <path d="M 47.72 390.04 
L 700.508105 390.04 
L 700.508105 10.8 
L 47.72 10.8 
z
" style="fill: #ffffff"/>
   </g>
   <g id="FillBetweenPolyCollection_1">
    <path d="M 77.392187 211.379032 
L 77.392187 369.737819 
L 80.71129 364.68407 
L 83.935861 349.980073 
L 87.237459 343.829653 
L 90.658096 349.665221 
L 93.910677 340.82508 
L 97.194768 346.422328 
L 100.664421 348.759351 
L 104.179589 331.788235 
L 107.796291 332.166402 
L 111.458509 315.957598 
L 115.10322 272.60982 
L 118.639395 256.294247 
L 122.147561 234.524174 
L 125.550692 200.102792 
L 128.537185 167.445576 
L 131.485164 138.739643 
L 134.447149 95.948733 
L 137.321604 73.090004 
L 140.206563 71.47547 
L 143.088021 59.649543 
L 145.927464 42.99254 
L 148.766908 47.519539 
L 151.595848 39.788034 
L 154.438793 47.519539 
L 157.278237 44.111573 
L 160.110678 36.939585 
L 162.925614 42.492589 
L 165.737048 35.261035 
L 168.565988 39.737169 
L 171.380924 40.551012 
L 174.178354 41.364855 
L 176.982786 35.617091 
L 179.801222 37.244776 
L 182.609156 35.362765 
L 185.424091 36.004192 
L 188.253031 33.531619 
L 191.060965 33.582485 
L 193.879401 31.547878 
L 196.687334 33.582485 
L 199.491766 31.293552 
L 202.317206 32.25999 
L 205.125139 38.923327 
L 207.943575 34.548923 
L 210.758511 33.83681 
L 213.573447 31.497013 
L 216.391883 30.851288 
L 219.203318 36.583529 
L 222.011251 29.055485 
L 224.815683 29.869328 
L 227.644623 30.988361 
L 230.459559 35.871417 
L 233.263991 31.395283 
L 236.068423 34.752383 
L 238.876356 29.10635 
L 241.68779 29.971058 
L 244.499225 31.293552 
L 247.300156 31.649608 
L 250.118592 37.702563 
L 252.94053 35.667956 
L 255.671438 111.275279 
L 258.381338 59.218527 
L 261.164764 41.822641 
L 263.976198 94.264625 
L 266.53905 83.146844 
L 269.346983 36.278338 
L 272.154916 62.829954 
L 274.756281 135.906781 
L 277.483687 61.819349 
L 280.288119 40.856203 
L 283.110057 54.31237 
L 285.938997 45.710083 
L 288.757434 46.909157 
L 291.586374 74.444819 
L 294.415314 104.291612 
L 297.23025 79.691627 
L 300.097703 40.811887 
L 303.714405 47.118001 
L 306.980991 38.828146 
L 309.869451 36.024012 
L 312.736904 34.658843 
L 315.681382 36.533253 
L 318.618858 38.160349 
L 321.500316 33.429889 
L 324.483308 55.495831 
L 327.490807 39.075922 
L 330.452792 37.479281 
L 333.330748 41.41572 
L 336.187698 32.463451 
L 339.055151 40.296686 
L 341.905098 35.167936 
L 344.755045 29.309811 
L 347.601491 36.601771 
L 350.423429 29.411541 
L 353.252369 30.58144 
L 356.091813 41.20349 
L 358.931256 143.229711 
L 361.746192 93.894185 
L 364.564629 53.826819 
L 367.383065 29.920782 
L 370.190999 30.174519 
L 373.131976 50.957496 
L 376.097462 43.98541 
L 378.957912 35.108439 
L 381.807859 32.514316 
L 384.643802 34.548923 
L 387.448234 35.922282 
L 390.298181 34.854114 
L 393.127121 32.159183 
L 395.949059 28.801159 
L 398.746489 37.499102 
L 401.543919 34.701518 
L 404.379861 29.564137 
L 407.194797 36.227473 
L 410.044744 37.194835 
L 412.89119 33.073833 
L 415.741137 33.63335 
L 418.57708 32.107395 
L 421.462039 40.703607 
L 424.392512 39.585497 
L 427.312483 39.482843 
L 430.225451 35.617091 
L 433.061394 31.853069 
L 435.862324 58.302954 
L 438.659754 39.737169 
L 441.471189 34.192867 
L 444.30363 36.583529 
L 447.125568 32.412586 
L 449.937002 31.497013 
L 452.75894 31.090092 
L 455.584379 31.395282 
L 458.437827 32.05653 
L 461.263266 30.021923 
L 464.0712 28.343373 
L 466.903641 48.193515 
L 469.914642 260.054023 
L 472.817106 72.619436 
L 475.677557 38.821596 
L 478.509998 41.110529 
L 481.335437 37.397372 
L 484.181884 37.275821 
L 487.003821 36.228192 
L 489.822258 43.450326 
L 492.829758 57.610007 
L 495.777737 149.630781 
L 498.701209 49.605011 
L 501.56166 79.771747 
L 504.404605 64.458562 
L 507.240547 35.21017 
L 510.07649 33.277294 
L 512.901929 29.920193 
L 515.727368 32.666912 
L 518.549306 29.513272 
L 521.36074 28.139912 
L 524.18968 32.565181 
L 527.01862 32.921237 
L 529.844059 33.124698 
L 532.665997 29.360676 
L 535.477432 30.734035 
L 538.292367 61.756991 
L 541.373391 54.742393 
L 544.272355 32.15826 
L 547.08729 34.803249 
L 549.919732 32.616046 
L 552.759175 33.684215 
L 555.563607 35.108439 
L 558.378543 31.853069 
L 561.235492 84.244187 
L 564.165966 47.061753 
L 567.008911 50.011932 
L 569.841353 33.83681 
L 572.677295 40.994417 
L 575.492231 34.192867 
L 578.335175 34.955844 
L 581.227137 118.415388 
L 584.070081 255.581594 
L 586.934033 113.243666 
L 589.801486 33.328159 
L 592.626925 30.632305 
L 595.462868 32.361721 
L 598.284806 30.47971 
L 601.131252 33.849885 
L 603.970695 32.768642 
L 606.834647 31.954799 
L 609.67059 34.447192 
L 612.485525 29.869328 
L 615.35648 42.433023 
L 618.234436 40.060602 
L 621.087884 39.77877 
L 623.930829 30.225384 
L 626.766772 30.174519 
L 629.599213 32.05653 
L 632.421151 30.784901 
L 635.24659 71.262521 
L 638.082533 56.678928 
L 640.914974 39.296645 
L 643.747415 31.903934 
L 646.583358 29.513272 
L 649.401795 29.309811 
L 652.230735 29.971058 
L 655.056174 30.428844 
L 657.916624 28.90289 
L 660.752567 35.006709 
L 663.634025 31.751339 
L 666.518983 45.840988 
L 669.54749 43.552056 
L 669.54749 28.038182 
L 669.54749 28.038182 
L 666.518983 28.038182 
L 663.634025 28.038182 
L 660.752567 28.038182 
L 657.916624 28.038182 
L 655.056174 28.038182 
L 652.230735 28.038182 
L 649.401795 28.038182 
L 646.583358 28.038182 
L 643.747415 28.038182 
L 640.914974 28.038182 
L 638.082533 28.038182 
L 635.24659 28.038182 
L 632.421151 28.038182 
L 629.599213 28.038182 
L 626.766772 28.038182 
L 623.930829 28.038182 
L 621.087884 28.038182 
L 618.234436 28.038182 
L 615.35648 28.038182 
L 612.485525 28.038182 
L 609.67059 28.038182 
L 606.834647 28.038182 
L 603.970695 28.038182 
L 601.131252 28.038182 
L 598.284806 28.038182 
L 595.462868 28.038182 
L 592.626925 28.038182 
L 589.801486 28.038182 
L 586.934033 28.038182 
L 584.070081 28.038182 
L 581.227137 28.038182 
L 578.335175 28.038182 
L 575.492231 28.038182 
L 572.677295 28.038182 
L 569.841353 28.038182 
L 567.008911 28.038182 
L 564.165966 28.038182 
L 561.235492 28.038182 
L 558.378543 28.038182 
L 555.563607 28.038182 
L 552.759175 28.038182 
L 549.919732 28.038182 
L 547.08729 28.038182 
L 544.272355 28.038182 
L 541.373391 28.038182 
L 538.292367 28.038182 
L 535.477432 28.038182 
L 532.665997 28.038182 
L 529.844059 28.038182 
L 527.01862 28.038182 
L 524.18968 28.038182 
L 521.36074 28.038182 
L 518.549306 28.038182 
L 515.727368 28.038182 
L 512.901929 28.038182 
L 510.07649 28.038182 
L 507.240547 28.038182 
L 504.404605 28.038182 
L 501.56166 28.038182 
L 498.701209 28.038182 
L 495.777737 28.038182 
L 492.829758 28.038182 
L 489.822258 28.038182 
L 487.003821 28.038182 
L 484.181884 28.038182 
L 481.335437 28.038182 
L 478.509998 28.038182 
L 475.677557 28.038182 
L 472.817106 28.038182 
L 469.914642 28.038182 
L 466.903641 28.038182 
L 464.0712 28.038182 
L 461.263266 28.038182 
L 458.437827 28.038182 
L 455.584379 28.038182 
L 452.75894 28.038182 
L 449.937002 28.038182 
L 447.125568 28.038182 
L 444.30363 28.038182 
L 441.471189 28.038182 
L 438.659754 28.038182 
L 435.862324 28.038182 
L 433.061394 28.038182 
L 430.225451 28.038182 
L 427.312483 28.038182 
L 424.392512 28.038182 
L 421.462039 28.038182 
L 418.57708 28.038182 
L 415.741137 28.038182 
L 412.89119 28.038182 
L 410.044744 28.038182 
L 407.194797 28.038182 
L 404.379861 28.038182 
L 401.543919 28.038182 
L 398.746489 28.038182 
L 395.949059 28.038182 
L 393.127121 28.038182 
L 390.298181 28.038182 
L 387.448234 28.038182 
L 384.643802 28.038182 
L 381.807859 28.038182 
L 378.957912 28.038182 
L 376.097462 28.038182 
L 373.131976 28.038182 
L 370.190999 28.038182 
L 367.383065 28.038182 
L 364.564629 28.038182 
L 361.746192 28.038182 
L 358.931256 28.038182 
L 356.091813 28.038182 
L 353.252369 28.038182 
L 350.423429 28.038182 
L 347.601491 28.038182 
L 344.755045 28.038182 
L 341.905098 28.038182 
L 339.055151 28.038182 
L 336.187698 28.038182 
L 333.330748 28.038182 
L 330.452792 28.038182 
L 327.490807 28.038182 
L 324.483308 28.038182 
L 321.500316 28.038182 
L 318.618858 28.038182 
L 315.681382 28.038182 
L 312.736904 28.038182 
L 309.869451 28.038182 
L 306.980991 28.038182 
L 303.714405 28.038182 
L 300.097703 28.038182 
L 297.23025 28.038182 
L 294.415314 28.038182 
L 291.586374 28.038182 
L 288.757434 28.038182 
L 285.938997 28.038182 
L 283.110057 28.038182 
L 280.288119 28.038182 
L 277.483687 28.038182 
L 274.756281 28.038182 
L 272.154916 28.038182 
L 269.346983 28.038182 
L 266.53905 28.038182 
L 263.976198 28.038182 
L 261.164764 28.038182 
L 258.381338 28.038182 
L 255.671438 28.038182 
L 252.94053 28.038182 
L 250.118592 28.038182 
L 247.300156 28.038182 
L 244.499225 28.038182 
L 241.68779 28.038182 
L 238.876356 28.038182 
L 236.068423 28.038182 
L 233.263991 28.038182 
L 230.459559 28.038182 
L 227.644623 28.038182 
L 224.815683 28.038182 
L 222.011251 28.038182 
L 219.203318 28.038182 
L 216.391883 28.038182 
L 213.573447 28.038182 
L 210.758511 28.038182 
L 207.943575 28.038182 
L 205.125139 28.038182 
L 202.317206 28.038182 
L 199.491766 28.038182 
L 196.687334 28.038182 
L 193.879401 28.038182 
L 191.060965 28.038182 
L 188.253031 28.038182 
L 185.424091 28.038182 
L 182.609156 28.038182 
L 179.801222 28.038182 
L 176.982786 28.038182 
L 174.178354 28.038182 
L 171.380924 28.038182 
L 168.565988 28.038182 
L 165.737048 28.038182 
L 162.925614 28.038182 
L 160.110678 28.038182 
L 157.278237 28.038182 
L 154.438793 28.038182 
L 151.595848 28.038182 
L 148.766908 28.038182 
L 145.927464 28.038182 
L 143.088021 28.038182 
L 140.206563 28.038182 
L 137.321604 28.038182 
L 134.447149 28.038182 
L 131.485164 28.038182 
L 128.537185 28.038182 
L 125.550692 28.038182 
L 122.147561 38.521168 
L 118.639395 57.035101 
L 115.10322 66.508033 
L 111.458509 91.466085 
L 107.796291 115.87839 
L 104.179589 121.608093 
L 100.664421 147.196439 
L 97.194768 176.375418 
L 93.910677 185.427988 
L 90.658096 190.746242 
L 87.237459 197.803813 
L 83.935861 198.395487 
L 80.71129 209.18503 
L 77.392187 211.379032 
z
" clip-path="url(#p37014b9017)" style="fill: #1f77b4; fill-opacity: 0.2"/>
   </g>
   <g id="FillBetweenPolyCollection_2">
    <path d="M 77.591753 201.78363 
L 77.591753 372.801818 
L 81.155937 353.595441 
L 84.601082 353.531266 
L 88.228288 339.555549 
L 92.013046 333.374742 
L 95.615743 334.936771 
L 99.425009 336.350759 
L 103.276289 319.738807 
L 107.13107 314.049671 
L 110.901824 314.264198 
L 114.539533 282.088205 
L 118.38381 284.168406 
L 122.189575 258.59482 
L 126.14589 232.736486 
L 130.182732 199.759228 
L 134.205569 174.14719 
L 138.189893 159.338291 
L 142.226734 110.599829 
L 146.134033 80.155839 
L 149.88728 63.944133 
L 153.61602 58.178389 
L 157.243225 51.792213 
L 160.89844 42.861634 
L 164.473128 40.50426 
L 168.037313 53.674224 
L 171.633008 36.990451 
L 175.172684 35.3119 
L 178.729866 37.092181 
L 182.29055 34.803249 
L 185.823224 33.887676 
L 189.3629 36.227473 
L 192.892073 37.411878 
L 196.421246 30.072788 
L 199.950419 34.294597 
L 203.479592 31.395283 
L 207.012266 36.380069 
L 210.520432 33.887676 
L 214.049605 35.3119 
L 217.596284 30.327114 
L 221.132459 31.242687 
L 224.675636 30.734035 
L 228.211812 30.937496 
L 231.719978 39.8389 
L 235.242148 30.68317 
L 238.785326 31.642426 
L 242.314499 34.904979 
L 245.836669 38.211215 
L 249.351838 40.500147 
L 252.874008 34.498058 
L 256.410183 30.225384 
L 259.956862 34.447192 
L 263.475532 31.395282 
L 267.029213 34.904979 
L 270.57239 34.294597 
L 274.133074 34.752383 
L 277.67275 31.446148 
L 281.243937 51.401671 
L 284.920159 47.875595 
L 288.557868 44.620225 
L 292.104546 38.974192 
L 295.759761 39.025057 
L 299.379964 42.026101 
L 302.982662 38.996228 
L 306.55735 35.006709 
L 310.135539 35.21017 
L 313.703225 34.142001 
L 317.319927 36.278338 
L 320.887613 34.243732 
L 324.420287 34.192866 
L 328.047492 41.72091 
L 331.594171 76.665219 
L 335.126845 59.922638 
L 338.687528 65.144368 
L 342.265718 52.622073 
L 345.826401 46.931681 
L 349.383583 47.161047 
L 352.898751 46.745405 
L 356.431426 126.78988 
L 359.960598 88.900734 
L 363.552792 75.921888 
L 367.151989 73.848697 
L 370.719674 79.062632 
L 374.269854 62.596071 
L 377.816533 77.1125 
L 381.482251 76.421686 
L 385.025429 60.540846 
L 388.593114 69.943325 
L 392.125789 63.896145 
L 395.686472 63.7194 
L 399.250657 135.471041 
L 402.849853 112.905385 
L 406.354518 110.20836 
L 409.876688 122.221413 
L 413.377852 151.729156 
L 416.886018 115.99107 
L 420.394184 134.585727 
L 423.888345 125.255712 
L 427.39301 114.815395 
L 430.901176 135.687967 
L 434.409342 180.36458 
L 437.931512 146.248964 
L 441.439678 126.317368 
L 444.916334 96.626112 
L 448.4245 101.348488 
L 451.925663 96.899699 
L 455.43733 100.794758 
L 458.948997 77.997019 
L 462.453662 91.835826 
L 465.954826 79.664686 
L 469.462992 77.682581 
L 472.964155 54.124828 
L 476.472321 57.264616 
L 479.976986 47.258031 
L 483.481651 61.265759 
L 486.982814 93.857704 
L 490.483978 97.570861 
L 493.988643 90.704063 
L 497.489806 85.566682 
L 500.99097 61.100538 
L 504.509639 89.78849 
L 508.042314 98.404096 
L 511.557482 47.773865 
L 515.069149 32.921238 
L 518.573814 31.903934 
L 522.074977 29.411541 
L 525.569139 37.041316 
L 529.049295 33.328159 
L 532.560962 39.94063 
L 536.051622 29.818463 
L 539.549285 32.972103 
L 543.05395 33.379024 
L 546.555113 28.190777 
L 550.056277 28.038182 
L 553.557441 28.038182 
L 557.058604 31.853069 
L 560.559768 29.309811 
L 564.064433 29.513272 
L 567.569097 31.090092 
L 571.070261 31.446148 
L 574.571425 30.021923 
L 578.132108 106.357624 
L 582.035905 77.609144 
L 585.568579 30.58144 
L 589.073244 28.445103 
L 592.58141 28.038182 
L 596.082574 28.394238 
L 599.587239 29.055485 
L 603.088402 29.208081 
L 606.600069 47.061753 
L 610.101233 143.400373 
L 613.605898 67.000897 
L 617.191089 30.225384 
L 620.695754 30.327114 
L 624.077878 129.005532 
L 627.453 39.788035 
L 630.954163 33.887675 
L 634.455327 30.327114 
L 637.959992 31.802204 
L 641.461155 28.597699 
L 644.969321 28.292508 
L 648.470485 28.953755 
L 651.971649 28.597699 
L 655.472812 30.276249 
L 658.977477 28.139912 
L 662.478641 28.089047 
L 665.979804 31.090092 
L 669.491471 28.292508 
L 669.491471 28.038182 
L 669.491471 28.038182 
L 665.979804 28.038182 
L 662.478641 28.038182 
L 658.977477 28.038182 
L 655.472812 28.038182 
L 651.971649 28.038182 
L 648.470485 28.038182 
L 644.969321 28.038182 
L 641.461155 28.038182 
L 637.959992 28.038182 
L 634.455327 28.038182 
L 630.954163 28.038182 
L 627.453 28.038182 
L 624.077878 28.038182 
L 620.695754 28.038182 
L 617.191089 28.038182 
L 613.605898 28.038182 
L 610.101233 28.038182 
L 606.600069 28.038182 
L 603.088402 28.038182 
L 599.587239 28.038182 
L 596.082574 28.038182 
L 592.58141 28.038182 
L 589.073244 28.038182 
L 585.568579 28.038182 
L 582.035905 28.038182 
L 578.132108 28.038182 
L 574.571425 28.038182 
L 571.070261 28.038182 
L 567.569097 28.038182 
L 564.064433 28.038182 
L 560.559768 28.038182 
L 557.058604 28.038182 
L 553.557441 28.038182 
L 550.056277 28.038182 
L 546.555113 28.038182 
L 543.05395 28.038182 
L 539.549285 28.038182 
L 536.051622 28.038182 
L 532.560962 28.038182 
L 529.049295 28.038182 
L 525.569139 28.038182 
L 522.074977 28.038182 
L 518.573814 28.038182 
L 515.069149 28.038182 
L 511.557482 28.038182 
L 508.042314 28.038182 
L 504.509639 28.038182 
L 500.99097 28.038182 
L 497.489806 28.038182 
L 493.988643 28.038182 
L 490.483978 28.038182 
L 486.982814 28.038182 
L 483.481651 28.038182 
L 479.976986 28.038182 
L 476.472321 28.038182 
L 472.964155 28.038182 
L 469.462992 28.038182 
L 465.954826 28.038182 
L 462.453662 28.038182 
L 458.948997 28.038182 
L 455.43733 28.038182 
L 451.925663 28.038182 
L 448.4245 28.038182 
L 444.916334 28.038182 
L 441.439678 28.038182 
L 437.931512 28.038182 
L 434.409342 28.038182 
L 430.901176 28.038182 
L 427.39301 28.038182 
L 423.888345 28.038182 
L 420.394184 28.038182 
L 416.886018 28.038182 
L 413.377852 28.038182 
L 409.876688 28.038182 
L 406.354518 28.038182 
L 402.849853 28.038182 
L 399.250657 28.038182 
L 395.686472 28.038182 
L 392.125789 28.038182 
L 388.593114 28.038182 
L 385.025429 28.038182 
L 381.482251 28.038182 
L 377.816533 28.038182 
L 374.269854 28.038182 
L 370.719674 28.038182 
L 367.151989 28.038182 
L 363.552792 28.038182 
L 359.960598 28.038182 
L 356.431426 28.038182 
L 352.898751 28.038182 
L 349.383583 28.038182 
L 345.826401 28.038182 
L 342.265718 28.038182 
L 338.687528 28.038182 
L 335.126845 28.038182 
L 331.594171 28.038182 
L 328.047492 28.038182 
L 324.420287 28.038182 
L 320.887613 28.038182 
L 317.319927 28.038182 
L 313.703225 28.038182 
L 310.135539 28.038182 
L 306.55735 28.038182 
L 302.982662 28.038182 
L 299.379964 28.038182 
L 295.759761 28.038182 
L 292.104546 28.038182 
L 288.557868 28.038182 
L 284.920159 28.038182 
L 281.243937 28.038182 
L 277.67275 28.038182 
L 274.133074 28.038182 
L 270.57239 28.038182 
L 267.029213 28.038182 
L 263.475532 28.038182 
L 259.956862 28.038182 
L 256.410183 28.038182 
L 252.874008 28.038182 
L 249.351838 28.038182 
L 245.836669 28.038182 
L 242.314499 28.038182 
L 238.785326 28.038182 
L 235.242148 28.038182 
L 231.719978 28.038182 
L 228.211812 28.038182 
L 224.675636 28.038182 
L 221.132459 28.038182 
L 217.596284 28.038182 
L 214.049605 28.038182 
L 210.520432 28.038182 
L 207.012266 28.038182 
L 203.479592 28.038182 
L 199.950419 28.038182 
L 196.421246 28.038182 
L 192.892073 28.038182 
L 189.3629 28.038182 
L 185.823224 28.038182 
L 182.29055 28.038182 
L 178.729866 28.038182 
L 175.172684 28.038182 
L 171.633008 28.038182 
L 168.037313 28.038182 
L 164.473128 28.038182 
L 160.89844 28.038182 
L 157.243225 28.038182 
L 153.61602 28.038182 
L 149.88728 28.038182 
L 146.134033 28.038182 
L 142.226734 28.038182 
L 138.189893 28.038182 
L 134.205569 28.038182 
L 130.182732 28.038182 
L 126.14589 29.732196 
L 122.189575 55.28232 
L 118.38381 70.245568 
L 114.539533 82.649598 
L 110.901824 117.051774 
L 107.13107 130.919037 
L 103.276289 146.931014 
L 99.425009 163.102489 
L 95.615743 175.472377 
L 92.013046 173.410532 
L 88.228288 179.449768 
L 84.601082 191.431109 
L 81.155937 200.131656 
L 77.591753 201.78363 
z
" clip-path="url(#p37014b9017)" style="fill: #ff7f0e; fill-opacity: 0.2"/>
   </g>
   <g id="FillBetweenPolyCollection_3">
    <path d="M 77.64427 197.057271 
L 77.64427 358.102521 
L 81.320492 353.201344 
L 85.185777 349.19488 
L 89.114082 340.613619 
L 93.04939 345.163053 
L 96.932181 327.869685 
L 100.913004 332.751909 
L 104.942843 320.872432 
L 108.90616 322.525249 
L 112.848471 328.776628 
L 116.811788 319.566378 
L 120.72959 309.715474 
L 124.710413 298.406929 
L 128.680732 286.169785 
L 132.696567 272.341566 
L 136.680891 251.033815 
L 140.710731 235.393648 
L 144.421964 193.287641 
L 148.08068 141.284318 
L 151.686878 110.545821 
L 155.012984 72.528847 
L 158.10101 66.340554 
L 161.16803 59.072481 
L 164.14752 45.678479 
L 167.028977 50.99283 
L 169.927941 39.551951 
L 172.8129 41.87521 
L 175.70136 41.873506 
L 178.659843 49.40155 
L 181.56931 38.437711 
L 184.447266 37.797249 
L 187.290211 42.483888 
L 190.161165 32.107395 
L 192.990106 33.83681 
L 195.815545 34.650653 
L 198.693501 35.3119 
L 201.539947 33.740629 
L 204.386393 28.495968 
L 207.208331 32.819507 
L 210.044274 31.802204 
L 212.901223 32.616046 
L 215.730163 33.073833 
L 218.566106 34.803249 
L 221.381041 33.838514 
L 224.199478 33.277293 
L 227.007411 30.632305 
L 229.829349 31.090092 
L 232.665292 52.453459 
L 235.480227 39.025057 
L 238.295163 29.055485 
L 241.099595 34.091136 
L 243.925034 29.767597 
L 246.736468 33.277294 
L 249.537399 32.463451 
L 252.42936 29.10635 
L 255.265303 33.582485 
L 258.11525 30.072788 
L 261.077234 53.432955 
L 264.567895 55.289902 
L 267.697935 35.150577 
L 270.551383 35.21017 
L 273.513368 59.320167 
L 276.976018 57.804637 
L 279.881984 35.817316 
L 282.738934 60.07275 
L 285.58538 60.527181 
L 288.452833 47.775982 
L 291.309782 48.740303 
L 294.145725 65.601079 
L 296.967663 102.953582 
L 299.800104 75.783318 
L 302.629044 96.449134 
L 305.464987 90.537996 
L 308.290426 93.130332 
L 311.746074 100.327219 
L 315.086184 95.722956 
L 318.244234 97.725222 
L 321.304251 92.485857 
L 324.297746 88.790476 
L 327.291241 75.322129 
L 330.20771 97.326919 
L 333.21521 93.110029 
L 336.257721 76.673791 
L 339.317738 64.510094 
L 342.290226 57.016413 
L 345.357245 60.442564 
L 348.434768 56.94498 
L 351.435265 53.477231 
L 354.404252 53.972676 
L 357.37674 54.258334 
L 360.457764 54.554216 
L 363.524783 72.938941 
L 366.724847 69.018711 
L 369.977428 76.803331 
L 373.282526 89.701818 
L 376.57362 81.258055 
L 379.819198 80.939304 
L 383.068278 85.268344 
L 386.299852 91.981135 
L 389.48241 92.634442 
L 392.573938 91.586651 
L 395.644458 99.32475 
L 398.609944 100.493321 
L 401.54742 98.876193 
L 404.530411 94.490059 
L 407.520405 99.092031 
L 410.433373 118.602141 
L 413.458378 110.670215 
L 416.388852 104.389844 
L 419.245802 107.81246 
L 422.09925 106.073233 
L 425.064736 106.957517 
L 428.002212 112.752903 
L 430.922183 109.399059 
L 433.814144 107.968122 
L 436.671093 111.051984 
L 439.556052 109.611761 
L 442.434009 111.298561 
L 445.301462 106.961543 
L 448.273949 93.018365 
L 451.221929 97.111906 
L 454.176911 87.503501 
L 457.292947 86.672179 
L 460.293444 92.864776 
L 463.251927 224.677669 
L 466.192905 102.012279 
L 469.095369 96.038043 
L 471.987331 117.785035 
L 475.008835 104.824808 
L 477.935808 106.499006 
L 480.859279 104.297285 
L 483.758243 97.712968 
L 486.643202 99.374198 
L 489.542165 102.040244 
L 492.41662 118.173675 
L 495.312083 105.23696 
L 498.225051 97.479841 
L 501.148522 98.082792 
L 504.033481 97.38462 
L 506.879927 99.980668 
L 509.733376 98.180026 
L 512.670852 101.480887 
L 515.664347 110.083168 
L 518.556308 109.196418 
L 521.455271 101.400006 
L 524.34023 98.65144 
L 527.186676 103.499989 
L 530.043626 101.612941 
L 532.865564 98.854082 
L 535.80304 97.068056 
L 538.712507 96.195156 
L 541.57996 97.697839 
L 544.478923 96.81829 
L 547.346376 98.957359 
L 550.24534 93.717834 
L 553.200322 95.071825 
L 556.085281 96.775721 
L 558.956235 94.785899 
L 561.855198 96.655285 
L 564.761164 95.775538 
L 567.656626 97.519993 
L 570.492569 98.04127 
L 573.360022 96.228713 
L 576.227475 96.973101 
L 579.091427 99.604354 
L 581.934372 98.365749 
L 584.763312 91.021877 
L 587.903856 97.202512 
L 590.890348 154.17856 
L 593.834827 100.782 
L 596.730289 103.912198 
L 599.744791 82.746924 
L 602.878332 84.94112 
L 605.973361 89.813739 
L 609.005369 90.817697 
L 612.016369 95.576321 
L 614.87682 97.355491 
L 617.870315 92.424667 
L 620.814794 127.129277 
L 623.762773 115.903552 
L 626.633728 100.075513 
L 629.571204 95.024355 
L 632.512181 95.947712 
L 635.519681 90.551465 
L 638.49567 98.096714 
L 641.394633 95.89552 
L 644.318105 98.630584 
L 647.185558 99.690243 
L 650.172051 144.29505 
L 653.134035 104.184937 
L 656.050504 98.607002 
L 659.114022 103.066621 
L 662.100515 93.386926 
L 665.055497 94.754393 
L 667.936955 96.66791 
L 670.835918 99.296126 
L 670.835918 28.038182 
L 670.835918 28.038182 
L 667.936955 28.038182 
L 665.055497 28.038182 
L 662.100515 28.038182 
L 659.114022 28.038182 
L 656.050504 28.038182 
L 653.134035 28.038182 
L 650.172051 28.672347 
L 647.185558 28.038182 
L 644.318105 28.038182 
L 641.394633 28.038182 
L 638.49567 28.038182 
L 635.519681 28.038182 
L 632.512181 28.038182 
L 629.571204 28.038182 
L 626.633728 28.038182 
L 623.762773 28.038182 
L 620.814794 31.848277 
L 617.870315 28.038182 
L 614.87682 28.038182 
L 612.016369 28.038182 
L 609.005369 28.038182 
L 605.973361 28.038182 
L 602.878332 28.038182 
L 599.744791 28.038182 
L 596.730289 28.038182 
L 593.834827 28.038182 
L 590.890348 30.12398 
L 587.903856 28.038182 
L 584.763312 28.038182 
L 581.934372 28.038182 
L 579.091427 28.038182 
L 576.227475 28.038182 
L 573.360022 28.038182 
L 570.492569 28.038182 
L 567.656626 28.038182 
L 564.761164 28.038182 
L 561.855198 28.038182 
L 558.956235 28.038182 
L 556.085281 28.038182 
L 553.200322 28.038182 
L 550.24534 28.038182 
L 547.346376 28.038182 
L 544.478923 28.038182 
L 541.57996 28.038182 
L 538.712507 28.038182 
L 535.80304 28.038182 
L 532.865564 28.038182 
L 530.043626 28.038182 
L 527.186676 28.038182 
L 524.34023 28.038182 
L 521.455271 28.038182 
L 518.556308 31.91459 
L 515.664347 33.640401 
L 512.670852 33.393685 
L 509.733376 28.038182 
L 506.879927 28.038182 
L 504.033481 28.038182 
L 501.148522 28.038182 
L 498.225051 28.038182 
L 495.312083 28.038182 
L 492.41662 28.038182 
L 489.542165 28.038182 
L 486.643202 28.038182 
L 483.758243 28.038182 
L 480.859279 28.038182 
L 477.935808 28.038182 
L 475.008835 28.038182 
L 471.987331 29.267443 
L 469.095369 28.038182 
L 466.192905 28.038182 
L 463.251927 28.038182 
L 460.293444 28.038182 
L 457.292947 28.038182 
L 454.176911 28.038182 
L 451.221929 28.038182 
L 448.273949 28.038182 
L 445.301462 28.460825 
L 442.434009 28.038182 
L 439.556052 32.97408 
L 436.671093 33.303656 
L 433.814144 31.499501 
L 430.922183 34.282372 
L 428.002212 37.24924 
L 425.064736 35.122667 
L 422.09925 32.088109 
L 419.245802 32.202958 
L 416.388852 30.063348 
L 413.458378 33.769702 
L 410.433373 37.004366 
L 407.520405 28.038182 
L 404.530411 28.038182 
L 401.54742 28.038182 
L 398.609944 28.038182 
L 395.644458 28.038182 
L 392.573938 28.038182 
L 389.48241 28.038182 
L 386.299852 28.038182 
L 383.068278 28.038182 
L 379.819198 28.038182 
L 376.57362 28.038182 
L 373.282526 30.508702 
L 369.977428 28.038182 
L 366.724847 28.038182 
L 363.524783 28.038182 
L 360.457764 28.038182 
L 357.37674 28.038182 
L 354.404252 28.038182 
L 351.435265 28.038182 
L 348.434768 28.038182 
L 345.357245 28.038182 
L 342.290226 28.038182 
L 339.317738 28.038182 
L 336.257721 28.038182 
L 333.21521 28.038182 
L 330.20771 28.038182 
L 327.291241 28.038182 
L 324.297746 28.038182 
L 321.304251 28.038182 
L 318.244234 29.185254 
L 315.086184 28.195716 
L 311.746074 30.164993 
L 308.290426 28.038182 
L 305.464987 28.038182 
L 302.629044 28.038182 
L 299.800104 28.038182 
L 296.967663 28.038182 
L 294.145725 28.038182 
L 291.309782 28.038182 
L 288.452833 28.038182 
L 285.58538 28.038182 
L 282.738934 28.038182 
L 279.881984 28.038182 
L 276.976018 28.038182 
L 273.513368 28.038182 
L 270.551383 28.038182 
L 267.697935 28.038182 
L 264.567895 28.038182 
L 261.077234 28.038182 
L 258.11525 28.038182 
L 255.265303 28.038182 
L 252.42936 28.038182 
L 249.537399 28.038182 
L 246.736468 28.038182 
L 243.925034 28.038182 
L 241.099595 28.038182 
L 238.295163 28.038182 
L 235.480227 28.038182 
L 232.665292 28.038182 
L 229.829349 28.038182 
L 227.007411 28.038182 
L 224.199478 28.038182 
L 221.381041 28.038182 
L 218.566106 28.038182 
L 215.730163 28.038182 
L 212.901223 28.038182 
L 210.044274 28.038182 
L 207.208331 28.038182 
L 204.386393 28.038182 
L 201.539947 28.038182 
L 198.693501 28.038182 
L 195.815545 28.038182 
L 192.990106 28.038182 
L 190.161165 28.038182 
L 187.290211 28.038182 
L 184.447266 28.038182 
L 181.56931 28.038182 
L 178.659843 28.038182 
L 175.70136 28.038182 
L 172.8129 28.038182 
L 169.927941 28.038182 
L 167.028977 28.038182 
L 164.14752 28.038182 
L 161.16803 28.038182 
L 158.10101 28.038182 
L 155.012984 28.038182 
L 151.686878 28.038182 
L 148.08068 28.038182 
L 144.421964 34.080021 
L 140.710731 44.857305 
L 136.680891 61.115664 
L 132.696567 78.701361 
L 128.680732 95.507527 
L 124.710413 112.682763 
L 120.72959 129.311765 
L 116.811788 149.252484 
L 112.848471 155.844016 
L 108.90616 154.93192 
L 104.942843 164.001039 
L 100.913004 175.128954 
L 96.932181 171.499286 
L 93.04939 177.550415 
L 89.114082 183.996063 
L 85.185777 187.129189 
L 81.320492 193.78366 
L 77.64427 197.057271 
z
" clip-path="url(#p37014b9017)" style="fill: #2ca02c; fill-opacity: 0.2"/>
   </g>
   <g id="matplotlib.axis_1">
    <g id="xtick_1">
     <g id="line2d_1">
      <path d="M 75.809661 390.04 
L 75.809661 10.8 
" clip-path="url(#p37014b9017)" style="fill: none; stroke: #b0b0b0; stroke-width: 0.8; stroke-linecap: square"/>
     </g>
     <g id="line2d_2">
      <defs>
       <path id="m8fb0510f3c" d="M 0 0 
L 0 3.5 
" style="stroke: #000000; stroke-width: 0.8"/>
      </defs>
      <g>
       <use xlink:href="#m8fb0510f3c" x="75.809661" y="390.04" style="stroke: #000000; stroke-width: 0.8"/>
      </g>
     </g>
     <g id="text_1">
      <!-- 0 -->
      <g transform="translate(72.628411 404.638438) scale(0.1 -0.1)">
       <defs>
        <path id="DejaVuSans-30" d="M 2034 4250 
Q 1547 4250 1301 3770 
Q 1056 3291 1056 2328 
Q 1056 1369 1301 889 
Q 1547 409 2034 409 
Q 2525 409 2770 889 
Q 3016 1369 3016 2328 
Q 3016 3291 2770 3770 
Q 2525 4250 2034 4250 
z
M 2034 4750 
Q 2819 4750 3233 4129 
Q 3647 3509 3647 2328 
Q 3647 1150 3233 529 
Q 2819 -91 2034 -91 
Q 1250 -91 836 529 
Q 422 1150 422 2328 
Q 422 3509 836 4129 
Q 1250 4750 2034 4750 
z
" transform="scale(0.015625)"/>
       </defs>
       <use xlink:href="#DejaVuSans-30"/>
      </g>
     </g>
    </g>
    <g id="xtick_2">
     <g id="line2d_3">
      <path d="M 163.338751 390.04 
L 163.338751 10.8 
" clip-path="url(#p37014b9017)" style="fill: none; stroke: #b0b0b0; stroke-width: 0.8; stroke-linecap: square"/>
     </g>
     <g id="line2d_4">
      <g>
       <use xlink:href="#m8fb0510f3c" x="163.338751" y="390.04" style="stroke: #000000; stroke-width: 0.8"/>
      </g>
     </g>
     <g id="text_2">
      <!-- 25000 -->
      <g transform="translate(147.432501 404.638438) scale(0.1 -0.1)">
       <defs>
        <path id="DejaVuSans-32" d="M 1228 531 
L 3431 531 
L 3431 0 
L 469 0 
L 469 531 
Q 828 903 1448 1529 
Q 2069 2156 2228 2338 
Q 2531 2678 2651 2914 
Q 2772 3150 2772 3378 
Q 2772 3750 2511 3984 
Q 2250 4219 1831 4219 
Q 1534 4219 1204 4116 
Q 875 4013 500 3803 
L 500 4441 
Q 881 4594 1212 4672 
Q 1544 4750 1819 4750 
Q 2544 4750 2975 4387 
Q 3406 4025 3406 3419 
Q 3406 3131 3298 2873 
Q 3191 2616 2906 2266 
Q 2828 2175 2409 1742 
Q 1991 1309 1228 531 
z
" transform="scale(0.015625)"/>
        <path id="DejaVuSans-35" d="M 691 4666 
L 3169 4666 
L 3169 4134 
L 1269 4134 
L 1269 2991 
Q 1406 3038 1543 3061 
Q 1681 3084 1819 3084 
Q 2600 3084 3056 2656 
Q 3513 2228 3513 1497 
Q 3513 744 3044 326 
Q 2575 -91 1722 -91 
Q 1428 -91 1123 -41 
Q 819 9 494 109 
L 494 744 
Q 775 591 1075 516 
Q 1375 441 1709 441 
Q 2250 441 2565 725 
Q 2881 1009 2881 1497 
Q 2881 1984 2565 2268 
Q 2250 2553 1709 2553 
Q 1456 2553 1204 2497 
Q 953 2441 691 2322 
L 691 4666 
z
" transform="scale(0.015625)"/>
       </defs>
       <use xlink:href="#DejaVuSans-32"/>
       <use xlink:href="#DejaVuSans-35" transform="translate(63.623047 0)"/>
       <use xlink:href="#DejaVuSans-30" transform="translate(127.246094 0)"/>
       <use xlink:href="#DejaVuSans-30" transform="translate(190.869141 0)"/>
       <use xlink:href="#DejaVuSans-30" transform="translate(254.492188 0)"/>
      </g>
     </g>
    </g>
    <g id="xtick_3">
     <g id="line2d_5">
      <path d="M 250.867841 390.04 
L 250.867841 10.8 
" clip-path="url(#p37014b9017)" style="fill: none; stroke: #b0b0b0; stroke-width: 0.8; stroke-linecap: square"/>
     </g>
     <g id="line2d_6">
      <g>
       <use xlink:href="#m8fb0510f3c" x="250.867841" y="390.04" style="stroke: #000000; stroke-width: 0.8"/>
      </g>
     </g>
     <g id="text_3">
      <!-- 50000 -->
      <g transform="translate(234.961591 404.638438) scale(0.1 -0.1)">
       <use xlink:href="#DejaVuSans-35"/>
       <use xlink:href="#DejaVuSans-30" transform="translate(63.623047 0)"/>
       <use xlink:href="#DejaVuSans-30" transform="translate(127.246094 0)"/>
       <use xlink:href="#DejaVuSans-30" transform="translate(190.869141 0)"/>
       <use xlink:href="#DejaVuSans-30" transform="translate(254.492188 0)"/>
      </g>
     </g>
    </g>
    <g id="xtick_4">
     <g id="line2d_7">
      <path d="M 338.396932 390.04 
L 338.396932 10.8 
" clip-path="url(#p37014b9017)" style="fill: none; stroke: #b0b0b0; stroke-width: 0.8; stroke-linecap: square"/>
     </g>
     <g id="line2d_8">
      <g>
       <use xlink:href="#m8fb0510f3c" x="338.396932" y="390.04" style="stroke: #000000; stroke-width: 0.8"/>
      </g>
     </g>
     <g id="text_4">
      <!-- 75000 -->
      <g transform="translate(322.490682 404.638438) scale(0.1 -0.1)">
       <defs>
        <path id="DejaVuSans-37" d="M 525 4666 
L 3525 4666 
L 3525 4397 
L 1831 0 
L 1172 0 
L 2766 4134 
L 525 4134 
L 525 4666 
z
" transform="scale(0.015625)"/>
       </defs>
       <use xlink:href="#DejaVuSans-37"/>
       <use xlink:href="#DejaVuSans-35" transform="translate(63.623047 0)"/>
       <use xlink:href="#DejaVuSans-30" transform="translate(127.246094 0)"/>
       <use xlink:href="#DejaVuSans-30" transform="translate(190.869141 0)"/>
       <use xlink:href="#DejaVuSans-30" transform="translate(254.492188 0)"/>
      </g>
     </g>
    </g>
    <g id="xtick_5">
     <g id="line2d_9">
      <path d="M 425.926022 390.04 
L 425.926022 10.8 
" clip-path="url(#p37014b9017)" style="fill: none; stroke: #b0b0b0; stroke-width: 0.8; stroke-linecap: square"/>
     </g>
     <g id="line2d_10">
      <g>
       <use xlink:href="#m8fb0510f3c" x="425.926022" y="390.04" style="stroke: #000000; stroke-width: 0.8"/>
      </g>
     </g>
     <g id="text_5">
      <!-- 100000 -->
      <g transform="translate(406.838522 404.638438) scale(0.1 -0.1)">
       <defs>
        <path id="DejaVuSans-31" d="M 794 531 
L 1825 531 
L 1825 4091 
L 703 3866 
L 703 4441 
L 1819 4666 
L 2450 4666 
L 2450 531 
L 3481 531 
L 3481 0 
L 794 0 
L 794 531 
z
" transform="scale(0.015625)"/>
       </defs>
       <use xlink:href="#DejaVuSans-31"/>
       <use xlink:href="#DejaVuSans-30" transform="translate(63.623047 0)"/>
       <use xlink:href="#DejaVuSans-30" transform="translate(127.246094 0)"/>
       <use xlink:href="#DejaVuSans-30" transform="translate(190.869141 0)"/>
       <use xlink:href="#DejaVuSans-30" transform="translate(254.492188 0)"/>
       <use xlink:href="#DejaVuSans-30" transform="translate(318.115234 0)"/>
      </g>
     </g>
    </g>
    <g id="xtick_6">
     <g id="line2d_11">
      <path d="M 513.455113 390.04 
L 513.455113 10.8 
" clip-path="url(#p37014b9017)" style="fill: none; stroke: #b0b0b0; stroke-width: 0.8; stroke-linecap: square"/>
     </g>
     <g id="line2d_12">
      <g>
       <use xlink:href="#m8fb0510f3c" x="513.455113" y="390.04" style="stroke: #000000; stroke-width: 0.8"/>
      </g>
     </g>
     <g id="text_6">
      <!-- 125000 -->
      <g transform="translate(494.367613 404.638438) scale(0.1 -0.1)">
       <use xlink:href="#DejaVuSans-31"/>
       <use xlink:href="#DejaVuSans-32" transform="translate(63.623047 0)"/>
       <use xlink:href="#DejaVuSans-35" transform="translate(127.246094 0)"/>
       <use xlink:href="#DejaVuSans-30" transform="translate(190.869141 0)"/>
       <use xlink:href="#DejaVuSans-30" transform="translate(254.492188 0)"/>
       <use xlink:href="#DejaVuSans-30" transform="translate(318.115234 0)"/>
      </g>
     </g>
    </g>
    <g id="xtick_7">
     <g id="line2d_13">
      <path d="M 600.984203 390.04 
L 600.984203 10.8 
" clip-path="url(#p37014b9017)" style="fill: none; stroke: #b0b0b0; stroke-width: 0.8; stroke-linecap: square"/>
     </g>
     <g id="line2d_14">
      <g>
       <use xlink:href="#m8fb0510f3c" x="600.984203" y="390.04" style="stroke: #000000; stroke-width: 0.8"/>
      </g>
     </g>
     <g id="text_7">
      <!-- 150000 -->
      <g transform="translate(581.896703 404.638438) scale(0.1 -0.1)">
       <use xlink:href="#DejaVuSans-31"/>
       <use xlink:href="#DejaVuSans-35" transform="translate(63.623047 0)"/>
       <use xlink:href="#DejaVuSans-30" transform="translate(127.246094 0)"/>
       <use xlink:href="#DejaVuSans-30" transform="translate(190.869141 0)"/>
       <use xlink:href="#DejaVuSans-30" transform="translate(254.492188 0)"/>
       <use xlink:href="#DejaVuSans-30" transform="translate(318.115234 0)"/>
      </g>
     </g>
    </g>
    <g id="xtick_8">
     <g id="line2d_15">
      <path d="M 688.513293 390.04 
L 688.513293 10.8 
" clip-path="url(#p37014b9017)" style="fill: none; stroke: #b0b0b0; stroke-width: 0.8; stroke-linecap: square"/>
     </g>
     <g id="line2d_16">
      <g>
       <use xlink:href="#m8fb0510f3c" x="688.513293" y="390.04" style="stroke: #000000; stroke-width: 0.8"/>
      </g>
     </g>
     <g id="text_8">
      <!-- 175000 -->
      <g transform="translate(669.425793 404.638438) scale(0.1 -0.1)">
       <use xlink:href="#DejaVuSans-31"/>
       <use xlink:href="#DejaVuSans-37" transform="translate(63.623047 0)"/>
       <use xlink:href="#DejaVuSans-35" transform="translate(127.246094 0)"/>
       <use xlink:href="#DejaVuSans-30" transform="translate(190.869141 0)"/>
       <use xlink:href="#DejaVuSans-30" transform="translate(254.492188 0)"/>
       <use xlink:href="#DejaVuSans-30" transform="translate(318.115234 0)"/>
      </g>
     </g>
    </g>
    <g id="text_9">
     <!-- Steps -->
     <g transform="translate(360.124209 418.316562) scale(0.1 -0.1)">
      <defs>
       <path id="DejaVuSans-53" d="M 3425 4513 
L 3425 3897 
Q 3066 4069 2747 4153 
Q 2428 4238 2131 4238 
Q 1616 4238 1336 4038 
Q 1056 3838 1056 3469 
Q 1056 3159 1242 3001 
Q 1428 2844 1947 2747 
L 2328 2669 
Q 3034 2534 3370 2195 
Q 3706 1856 3706 1288 
Q 3706 609 3251 259 
Q 2797 -91 1919 -91 
Q 1588 -91 1214 -16 
Q 841 59 441 206 
L 441 856 
Q 825 641 1194 531 
Q 1563 422 1919 422 
Q 2459 422 2753 634 
Q 3047 847 3047 1241 
Q 3047 1584 2836 1778 
Q 2625 1972 2144 2069 
L 1759 2144 
Q 1053 2284 737 2584 
Q 422 2884 422 3419 
Q 422 4038 858 4394 
Q 1294 4750 2059 4750 
Q 2388 4750 2728 4690 
Q 3069 4631 3425 4513 
z
" transform="scale(0.015625)"/>
       <path id="DejaVuSans-74" d="M 1172 4494 
L 1172 3500 
L 2356 3500 
L 2356 3053 
L 1172 3053 
L 1172 1153 
Q 1172 725 1289 603 
Q 1406 481 1766 481 
L 2356 481 
L 2356 0 
L 1766 0 
Q 1100 0 847 248 
Q 594 497 594 1153 
L 594 3053 
L 172 3053 
L 172 3500 
L 594 3500 
L 594 4494 
L 1172 4494 
z
" transform="scale(0.015625)"/>
       <path id="DejaVuSans-65" d="M 3597 1894 
L 3597 1613 
L 953 1613 
Q 991 1019 1311 708 
Q 1631 397 2203 397 
Q 2534 397 2845 478 
Q 3156 559 3463 722 
L 3463 178 
Q 3153 47 2828 -22 
Q 2503 -91 2169 -91 
Q 1331 -91 842 396 
Q 353 884 353 1716 
Q 353 2575 817 3079 
Q 1281 3584 2069 3584 
Q 2775 3584 3186 3129 
Q 3597 2675 3597 1894 
z
M 3022 2063 
Q 3016 2534 2758 2815 
Q 2500 3097 2075 3097 
Q 1594 3097 1305 2825 
Q 1016 2553 972 2059 
L 3022 2063 
z
" transform="scale(0.015625)"/>
       <path id="DejaVuSans-70" d="M 1159 525 
L 1159 -1331 
L 581 -1331 
L 581 3500 
L 1159 3500 
L 1159 2969 
Q 1341 3281 1617 3432 
Q 1894 3584 2278 3584 
Q 2916 3584 3314 3078 
Q 3713 2572 3713 1747 
Q 3713 922 3314 415 
Q 2916 -91 2278 -91 
Q 1894 -91 1617 61 
Q 1341 213 1159 525 
z
M 3116 1747 
Q 3116 2381 2855 2742 
Q 2594 3103 2138 3103 
Q 1681 3103 1420 2742 
Q 1159 2381 1159 1747 
Q 1159 1113 1420 752 
Q 1681 391 2138 391 
Q 2594 391 2855 752 
Q 3116 1113 3116 1747 
z
" transform="scale(0.015625)"/>
       <path id="DejaVuSans-73" d="M 2834 3397 
L 2834 2853 
Q 2591 2978 2328 3040 
Q 2066 3103 1784 3103 
Q 1356 3103 1142 2972 
Q 928 2841 928 2578 
Q 928 2378 1081 2264 
Q 1234 2150 1697 2047 
L 1894 2003 
Q 2506 1872 2764 1633 
Q 3022 1394 3022 966 
Q 3022 478 2636 193 
Q 2250 -91 1575 -91 
Q 1294 -91 989 -36 
Q 684 19 347 128 
L 347 722 
Q 666 556 975 473 
Q 1284 391 1588 391 
Q 1994 391 2212 530 
Q 2431 669 2431 922 
Q 2431 1156 2273 1281 
Q 2116 1406 1581 1522 
L 1381 1569 
Q 847 1681 609 1914 
Q 372 2147 372 2553 
Q 372 3047 722 3315 
Q 1072 3584 1716 3584 
Q 2034 3584 2315 3537 
Q 2597 3491 2834 3397 
z
" transform="scale(0.015625)"/>
      </defs>
      <use xlink:href="#DejaVuSans-53"/>
      <use xlink:href="#DejaVuSans-74" transform="translate(63.476562 0)"/>
      <use xlink:href="#DejaVuSans-65" transform="translate(102.685547 0)"/>
      <use xlink:href="#DejaVuSans-70" transform="translate(164.208984 0)"/>
      <use xlink:href="#DejaVuSans-73" transform="translate(227.685547 0)"/>
     </g>
    </g>
   </g>
   <g id="matplotlib.axis_2">
    <g id="ytick_1">
     <g id="line2d_17">
      <path d="M 47.72 369.356647 
L 700.508105 369.356647 
" clip-path="url(#p37014b9017)" style="fill: none; stroke: #b0b0b0; stroke-width: 0.8; stroke-linecap: square"/>
     </g>
     <g id="line2d_18">
      <defs>
       <path id="m0bb7474a3a" d="M 0 0 
L -3.5 0 
" style="stroke: #000000; stroke-width: 0.8"/>
      </defs>
      <g>
       <use xlink:href="#m0bb7474a3a" x="47.72" y="369.356647" style="stroke: #000000; stroke-width: 0.8"/>
      </g>
     </g>
     <g id="text_10">
      <!-- 0.4 -->
      <g transform="translate(24.816875 373.155865) scale(0.1 -0.1)">
       <defs>
        <path id="DejaVuSans-2e" d="M 684 794 
L 1344 794 
L 1344 0 
L 684 0 
L 684 794 
z
" transform="scale(0.015625)"/>
        <path id="DejaVuSans-34" d="M 2419 4116 
L 825 1625 
L 2419 1625 
L 2419 4116 
z
M 2253 4666 
L 3047 4666 
L 3047 1625 
L 3713 1625 
L 3713 1100 
L 3047 1100 
L 3047 0 
L 2419 0 
L 2419 1100 
L 313 1100 
L 313 1709 
L 2253 4666 
z
" transform="scale(0.015625)"/>
       </defs>
       <use xlink:href="#DejaVuSans-30"/>
       <use xlink:href="#DejaVuSans-2e" transform="translate(63.623047 0)"/>
       <use xlink:href="#DejaVuSans-34" transform="translate(95.410156 0)"/>
      </g>
     </g>
    </g>
    <g id="ytick_2">
     <g id="line2d_19">
      <path d="M 47.72 312.470236 
L 700.508105 312.470236 
" clip-path="url(#p37014b9017)" style="fill: none; stroke: #b0b0b0; stroke-width: 0.8; stroke-linecap: square"/>
     </g>
     <g id="line2d_20">
      <g>
       <use xlink:href="#m0bb7474a3a" x="47.72" y="312.470236" style="stroke: #000000; stroke-width: 0.8"/>
      </g>
     </g>
     <g id="text_11">
      <!-- 0.5 -->
      <g transform="translate(24.816875 316.269455) scale(0.1 -0.1)">
       <use xlink:href="#DejaVuSans-30"/>
       <use xlink:href="#DejaVuSans-2e" transform="translate(63.623047 0)"/>
       <use xlink:href="#DejaVuSans-35" transform="translate(95.410156 0)"/>
      </g>
     </g>
    </g>
    <g id="ytick_3">
     <g id="line2d_21">
      <path d="M 47.72 255.583825 
L 700.508105 255.583825 
" clip-path="url(#p37014b9017)" style="fill: none; stroke: #b0b0b0; stroke-width: 0.8; stroke-linecap: square"/>
     </g>
     <g id="line2d_22">
      <g>
       <use xlink:href="#m0bb7474a3a" x="47.72" y="255.583825" style="stroke: #000000; stroke-width: 0.8"/>
      </g>
     </g>
     <g id="text_12">
      <!-- 0.6 -->
      <g transform="translate(24.816875 259.383044) scale(0.1 -0.1)">
       <defs>
        <path id="DejaVuSans-36" d="M 2113 2584 
Q 1688 2584 1439 2293 
Q 1191 2003 1191 1497 
Q 1191 994 1439 701 
Q 1688 409 2113 409 
Q 2538 409 2786 701 
Q 3034 994 3034 1497 
Q 3034 2003 2786 2293 
Q 2538 2584 2113 2584 
z
M 3366 4563 
L 3366 3988 
Q 3128 4100 2886 4159 
Q 2644 4219 2406 4219 
Q 1781 4219 1451 3797 
Q 1122 3375 1075 2522 
Q 1259 2794 1537 2939 
Q 1816 3084 2150 3084 
Q 2853 3084 3261 2657 
Q 3669 2231 3669 1497 
Q 3669 778 3244 343 
Q 2819 -91 2113 -91 
Q 1303 -91 875 529 
Q 447 1150 447 2328 
Q 447 3434 972 4092 
Q 1497 4750 2381 4750 
Q 2619 4750 2861 4703 
Q 3103 4656 3366 4563 
z
" transform="scale(0.015625)"/>
       </defs>
       <use xlink:href="#DejaVuSans-30"/>
       <use xlink:href="#DejaVuSans-2e" transform="translate(63.623047 0)"/>
       <use xlink:href="#DejaVuSans-36" transform="translate(95.410156 0)"/>
      </g>
     </g>
    </g>
    <g id="ytick_4">
     <g id="line2d_23">
      <path d="M 47.72 198.697414 
L 700.508105 198.697414 
" clip-path="url(#p37014b9017)" style="fill: none; stroke: #b0b0b0; stroke-width: 0.8; stroke-linecap: square"/>
     </g>
     <g id="line2d_24">
      <g>
       <use xlink:href="#m0bb7474a3a" x="47.72" y="198.697414" style="stroke: #000000; stroke-width: 0.8"/>
      </g>
     </g>
     <g id="text_13">
      <!-- 0.7 -->
      <g transform="translate(24.816875 202.496633) scale(0.1 -0.1)">
       <use xlink:href="#DejaVuSans-30"/>
       <use xlink:href="#DejaVuSans-2e" transform="translate(63.623047 0)"/>
       <use xlink:href="#DejaVuSans-37" transform="translate(95.410156 0)"/>
      </g>
     </g>
    </g>
    <g id="ytick_5">
     <g id="line2d_25">
      <path d="M 47.72 141.811003 
L 700.508105 141.811003 
" clip-path="url(#p37014b9017)" style="fill: none; stroke: #b0b0b0; stroke-width: 0.8; stroke-linecap: square"/>
     </g>
     <g id="line2d_26">
      <g>
       <use xlink:href="#m0bb7474a3a" x="47.72" y="141.811003" style="stroke: #000000; stroke-width: 0.8"/>
      </g>
     </g>
     <g id="text_14">
      <!-- 0.8 -->
      <g transform="translate(24.816875 145.610222) scale(0.1 -0.1)">
       <defs>
        <path id="DejaVuSans-38" d="M 2034 2216 
Q 1584 2216 1326 1975 
Q 1069 1734 1069 1313 
Q 1069 891 1326 650 
Q 1584 409 2034 409 
Q 2484 409 2743 651 
Q 3003 894 3003 1313 
Q 3003 1734 2745 1975 
Q 2488 2216 2034 2216 
z
M 1403 2484 
Q 997 2584 770 2862 
Q 544 3141 544 3541 
Q 544 4100 942 4425 
Q 1341 4750 2034 4750 
Q 2731 4750 3128 4425 
Q 3525 4100 3525 3541 
Q 3525 3141 3298 2862 
Q 3072 2584 2669 2484 
Q 3125 2378 3379 2068 
Q 3634 1759 3634 1313 
Q 3634 634 3220 271 
Q 2806 -91 2034 -91 
Q 1263 -91 848 271 
Q 434 634 434 1313 
Q 434 1759 690 2068 
Q 947 2378 1403 2484 
z
M 1172 3481 
Q 1172 3119 1398 2916 
Q 1625 2713 2034 2713 
Q 2441 2713 2670 2916 
Q 2900 3119 2900 3481 
Q 2900 3844 2670 4047 
Q 2441 4250 2034 4250 
Q 1625 4250 1398 4047 
Q 1172 3844 1172 3481 
z
" transform="scale(0.015625)"/>
       </defs>
       <use xlink:href="#DejaVuSans-30"/>
       <use xlink:href="#DejaVuSans-2e" transform="translate(63.623047 0)"/>
       <use xlink:href="#DejaVuSans-38" transform="translate(95.410156 0)"/>
      </g>
     </g>
    </g>
    <g id="ytick_6">
     <g id="line2d_27">
      <path d="M 47.72 84.924593 
L 700.508105 84.924593 
" clip-path="url(#p37014b9017)" style="fill: none; stroke: #b0b0b0; stroke-width: 0.8; stroke-linecap: square"/>
     </g>
     <g id="line2d_28">
      <g>
       <use xlink:href="#m0bb7474a3a" x="47.72" y="84.924593" style="stroke: #000000; stroke-width: 0.8"/>
      </g>
     </g>
     <g id="text_15">
      <!-- 0.9 -->
      <g transform="translate(24.816875 88.723811) scale(0.1 -0.1)">
       <defs>
        <path id="DejaVuSans-39" d="M 703 97 
L 703 672 
Q 941 559 1184 500 
Q 1428 441 1663 441 
Q 2288 441 2617 861 
Q 2947 1281 2994 2138 
Q 2813 1869 2534 1725 
Q 2256 1581 1919 1581 
Q 1219 1581 811 2004 
Q 403 2428 403 3163 
Q 403 3881 828 4315 
Q 1253 4750 1959 4750 
Q 2769 4750 3195 4129 
Q 3622 3509 3622 2328 
Q 3622 1225 3098 567 
Q 2575 -91 1691 -91 
Q 1453 -91 1209 -44 
Q 966 3 703 97 
z
M 1959 2075 
Q 2384 2075 2632 2365 
Q 2881 2656 2881 3163 
Q 2881 3666 2632 3958 
Q 2384 4250 1959 4250 
Q 1534 4250 1286 3958 
Q 1038 3666 1038 3163 
Q 1038 2656 1286 2365 
Q 1534 2075 1959 2075 
z
" transform="scale(0.015625)"/>
       </defs>
       <use xlink:href="#DejaVuSans-30"/>
       <use xlink:href="#DejaVuSans-2e" transform="translate(63.623047 0)"/>
       <use xlink:href="#DejaVuSans-39" transform="translate(95.410156 0)"/>
      </g>
     </g>
    </g>
    <g id="ytick_7">
     <g id="line2d_29">
      <path d="M 47.72 28.038182 
L 700.508105 28.038182 
" clip-path="url(#p37014b9017)" style="fill: none; stroke: #b0b0b0; stroke-width: 0.8; stroke-linecap: square"/>
     </g>
     <g id="line2d_30">
      <g>
       <use xlink:href="#m0bb7474a3a" x="47.72" y="28.038182" style="stroke: #000000; stroke-width: 0.8"/>
      </g>
     </g>
     <g id="text_16">
      <!-- 1.0 -->
      <g transform="translate(24.816875 31.837401) scale(0.1 -0.1)">
       <use xlink:href="#DejaVuSans-31"/>
       <use xlink:href="#DejaVuSans-2e" transform="translate(63.623047 0)"/>
       <use xlink:href="#DejaVuSans-30" transform="translate(95.410156 0)"/>
      </g>
     </g>
    </g>
    <g id="text_17">
     <!-- Accuracy -->
     <g transform="translate(18.737188 223.248125) rotate(-90) scale(0.1 -0.1)">
      <defs>
       <path id="DejaVuSans-41" d="M 2188 4044 
L 1331 1722 
L 3047 1722 
L 2188 4044 
z
M 1831 4666 
L 2547 4666 
L 4325 0 
L 3669 0 
L 3244 1197 
L 1141 1197 
L 716 0 
L 50 0 
L 1831 4666 
z
" transform="scale(0.015625)"/>
       <path id="DejaVuSans-63" d="M 3122 3366 
L 3122 2828 
Q 2878 2963 2633 3030 
Q 2388 3097 2138 3097 
Q 1578 3097 1268 2742 
Q 959 2388 959 1747 
Q 959 1106 1268 751 
Q 1578 397 2138 397 
Q 2388 397 2633 464 
Q 2878 531 3122 666 
L 3122 134 
Q 2881 22 2623 -34 
Q 2366 -91 2075 -91 
Q 1284 -91 818 406 
Q 353 903 353 1747 
Q 353 2603 823 3093 
Q 1294 3584 2113 3584 
Q 2378 3584 2631 3529 
Q 2884 3475 3122 3366 
z
" transform="scale(0.015625)"/>
       <path id="DejaVuSans-75" d="M 544 1381 
L 544 3500 
L 1119 3500 
L 1119 1403 
Q 1119 906 1312 657 
Q 1506 409 1894 409 
Q 2359 409 2629 706 
Q 2900 1003 2900 1516 
L 2900 3500 
L 3475 3500 
L 3475 0 
L 2900 0 
L 2900 538 
Q 2691 219 2414 64 
Q 2138 -91 1772 -91 
Q 1169 -91 856 284 
Q 544 659 544 1381 
z
M 1991 3584 
L 1991 3584 
z
" transform="scale(0.015625)"/>
       <path id="DejaVuSans-72" d="M 2631 2963 
Q 2534 3019 2420 3045 
Q 2306 3072 2169 3072 
Q 1681 3072 1420 2755 
Q 1159 2438 1159 1844 
L 1159 0 
L 581 0 
L 581 3500 
L 1159 3500 
L 1159 2956 
Q 1341 3275 1631 3429 
Q 1922 3584 2338 3584 
Q 2397 3584 2469 3576 
Q 2541 3569 2628 3553 
L 2631 2963 
z
" transform="scale(0.015625)"/>
       <path id="DejaVuSans-61" d="M 2194 1759 
Q 1497 1759 1228 1600 
Q 959 1441 959 1056 
Q 959 750 1161 570 
Q 1363 391 1709 391 
Q 2188 391 2477 730 
Q 2766 1069 2766 1631 
L 2766 1759 
L 2194 1759 
z
M 3341 1997 
L 3341 0 
L 2766 0 
L 2766 531 
Q 2569 213 2275 61 
Q 1981 -91 1556 -91 
Q 1019 -91 701 211 
Q 384 513 384 1019 
Q 384 1609 779 1909 
Q 1175 2209 1959 2209 
L 2766 2209 
L 2766 2266 
Q 2766 2663 2505 2880 
Q 2244 3097 1772 3097 
Q 1472 3097 1187 3025 
Q 903 2953 641 2809 
L 641 3341 
Q 956 3463 1253 3523 
Q 1550 3584 1831 3584 
Q 2591 3584 2966 3190 
Q 3341 2797 3341 1997 
z
" transform="scale(0.015625)"/>
       <path id="DejaVuSans-79" d="M 2059 -325 
Q 1816 -950 1584 -1140 
Q 1353 -1331 966 -1331 
L 506 -1331 
L 506 -850 
L 844 -850 
Q 1081 -850 1212 -737 
Q 1344 -625 1503 -206 
L 1606 56 
L 191 3500 
L 800 3500 
L 1894 763 
L 2988 3500 
L 3597 3500 
L 2059 -325 
z
" transform="scale(0.015625)"/>
      </defs>
      <use xlink:href="#DejaVuSans-41"/>
      <use xlink:href="#DejaVuSans-63" transform="translate(66.658203 0)"/>
      <use xlink:href="#DejaVuSans-63" transform="translate(121.638672 0)"/>
      <use xlink:href="#DejaVuSans-75" transform="translate(176.619141 0)"/>
      <use xlink:href="#DejaVuSans-72" transform="translate(239.998047 0)"/>
      <use xlink:href="#DejaVuSans-61" transform="translate(281.111328 0)"/>
      <use xlink:href="#DejaVuSans-63" transform="translate(342.390625 0)"/>
      <use xlink:href="#DejaVuSans-79" transform="translate(397.371094 0)"/>
     </g>
    </g>
   </g>
   <g id="line2d_31">
    <path d="M 77.392187 290.558425 
L 80.71129 286.93455 
L 83.935861 274.18778 
L 87.237459 270.816733 
L 90.658096 270.205732 
L 93.910677 263.126534 
L 97.194768 261.398873 
L 100.664421 247.977895 
L 104.179589 226.698164 
L 107.796291 224.022396 
L 111.458509 203.711841 
L 115.10322 169.558926 
L 118.639395 156.664674 
L 122.147561 136.522671 
L 125.550692 112.335412 
L 131.485164 78.203567 
L 134.447149 58.356531 
L 137.321604 48.011632 
L 140.206563 46.557868 
L 143.088021 41.311677 
L 145.927464 34.23248 
L 148.766908 36.107624 
L 151.595848 32.90513 
L 154.438793 36.107624 
L 157.278237 34.695999 
L 160.110678 31.725264 
L 162.925614 34.695999 
L 165.737048 31.029986 
L 168.565988 32.884061 
L 174.178354 33.55827 
L 176.982786 31.177469 
L 179.801222 31.851678 
L 182.609156 31.072124 
L 185.424091 31.409228 
L 188.253031 30.313638 
L 191.060965 30.334707 
L 193.879401 29.491946 
L 196.687334 30.334707 
L 199.491766 29.3866 
L 202.317206 29.786912 
L 205.125139 32.546957 
L 207.943575 30.735019 
L 210.758511 30.440052 
L 213.573447 29.470877 
L 216.391883 29.239117 
L 219.203318 31.577781 
L 222.011251 28.459563 
L 224.815683 28.796667 
L 227.644623 29.260186 
L 230.459559 31.282814 
L 233.263991 29.428739 
L 236.068423 30.819295 
L 238.876356 28.480632 
L 241.68779 28.838805 
L 244.499225 29.3866 
L 247.300156 29.534084 
L 250.118592 32.041299 
L 252.94053 31.198538 
L 255.671438 62.886375 
L 258.381338 40.953504 
L 261.164764 33.747892 
L 263.976198 55.470073 
L 266.53905 51.235196 
L 269.346983 31.451366 
L 272.154916 42.449406 
L 274.756281 72.957377 
L 277.483687 42.301922 
L 280.288119 33.34758 
L 283.110057 38.994083 
L 285.938997 35.728382 
L 288.757434 35.854796 
L 291.586374 47.421699 
L 294.415314 59.641743 
L 297.23025 49.865708 
L 300.097703 33.34758 
L 303.714405 36.065486 
L 306.980991 32.525887 
L 309.869451 31.346021 
L 312.736904 30.798226 
L 315.681382 31.59885 
L 318.618858 32.230921 
L 321.500316 30.2715 
L 324.483308 39.499739 
L 327.490807 32.610163 
L 330.452792 32.02023 
L 333.330748 33.579339 
L 336.187698 29.871188 
L 339.055151 33.115821 
L 341.905098 31.008916 
L 344.755045 28.564908 
L 347.601491 31.683126 
L 350.423429 28.607046 
L 353.252369 29.091634 
L 356.091813 33.537201 
L 358.931256 77.150114 
L 361.746192 55.51221 
L 364.564629 38.720185 
L 367.383065 28.859874 
L 370.190999 28.923082 
L 373.131976 37.645664 
L 376.097462 34.759206 
L 378.957912 30.966778 
L 381.807859 29.892257 
L 384.643802 30.735019 
L 387.448234 31.303883 
L 390.298181 30.861433 
L 393.127121 29.850119 
L 395.949059 28.354217 
L 398.746489 31.957023 
L 401.543919 30.798226 
L 404.379861 28.670253 
L 407.194797 31.430297 
L 410.044744 31.935954 
L 412.89119 30.124017 
L 415.741137 30.355776 
L 418.57708 29.723705 
L 421.462039 33.284373 
L 424.392512 32.926199 
L 427.312483 32.778716 
L 433.061394 29.61836 
L 435.862324 40.574261 
L 438.659754 32.884061 
L 441.471189 30.587536 
L 444.30363 31.577781 
L 447.125568 29.850119 
L 449.937002 29.470877 
L 452.75894 29.302324 
L 455.584379 29.428738 
L 458.437827 29.702636 
L 461.263266 28.859874 
L 464.0712 28.164596 
L 466.903641 36.507936 
L 469.914642 127.484054 
L 472.817106 46.894973 
L 475.677557 32.504818 
L 478.509998 33.452925 
L 481.335437 31.914885 
L 484.181884 31.935954 
L 487.003821 31.556711 
L 489.822258 34.422101 
L 492.829758 40.489985 
L 495.777737 79.446641 
L 498.701209 36.971455 
L 501.56166 49.886777 
L 504.404605 43.22896 
L 507.240547 31.008916 
L 510.07649 30.208293 
L 512.901929 28.817736 
L 515.727368 29.955464 
L 518.549306 28.649184 
L 521.36074 28.08032 
L 524.18968 29.913326 
L 529.844059 30.145086 
L 532.665997 28.585977 
L 535.477432 29.154841 
L 538.292367 42.070163 
L 541.373391 39.099428 
L 544.272355 29.744774 
L 547.08729 30.840364 
L 549.919732 29.934395 
L 552.759175 30.376845 
L 555.563607 30.966778 
L 558.378543 29.61836 
L 561.235492 51.319471 
L 564.165966 35.918003 
L 567.008911 37.140007 
L 569.841353 30.440052 
L 572.677295 33.600408 
L 575.492231 30.587536 
L 578.335175 30.903571 
L 581.227137 67.437286 
L 584.070081 140.27296 
L 586.934033 66.194214 
L 589.801486 30.229362 
L 592.626925 29.112703 
L 595.462868 29.82905 
L 598.284806 29.049496 
L 601.131252 30.566467 
L 603.970695 29.997603 
L 606.834647 29.660498 
L 609.67059 30.692881 
L 612.485525 28.796667 
L 615.35648 34.00072 
L 618.234436 33.11582 
L 621.087884 32.968337 
L 623.930829 28.944151 
L 626.766772 28.923081 
L 629.599213 29.702636 
L 632.421151 29.17591 
L 635.24659 46.199695 
L 638.082533 40.110742 
L 640.914974 32.736578 
L 643.747415 29.639429 
L 646.583358 28.649184 
L 649.401795 28.564908 
L 655.056174 29.028427 
L 657.916624 28.396355 
L 660.752567 30.92464 
L 663.634025 29.576222 
L 666.518983 35.412346 
L 669.54749 34.464239 
L 669.54749 34.464239 
" clip-path="url(#p37014b9017)" style="fill: none; stroke: #1f77b4; stroke-width: 1.5; stroke-linecap: square"/>
   </g>
   <g id="line2d_32">
    <path d="M 77.591753 287.292724 
L 81.155937 276.863548 
L 84.601082 272.481188 
L 88.228288 259.502659 
L 92.013046 253.392637 
L 95.615743 255.204574 
L 99.425009 249.726624 
L 103.276289 233.33491 
L 107.13107 222.484354 
L 110.901824 215.657986 
L 114.539533 182.368902 
L 118.38381 177.206987 
L 122.189575 156.93857 
L 126.14589 131.234341 
L 130.182732 109.680713 
L 134.205569 93.120447 
L 138.189893 86.715459 
L 142.226734 64.95114 
L 146.134033 51.087712 
L 149.88728 43.481788 
L 153.61602 40.848158 
L 157.243225 37.877424 
L 160.89844 34.548515 
L 164.473128 33.305442 
L 168.037313 38.656978 
L 171.633008 31.746333 
L 175.172684 31.051055 
L 178.729866 31.788471 
L 182.29055 30.840364 
L 185.823224 30.461121 
L 189.3629 31.430297 
L 192.892073 32.525887 
L 196.421246 28.880943 
L 199.950419 30.629674 
L 203.479592 29.428739 
L 207.012266 31.493504 
L 210.520432 30.461121 
L 214.049605 31.051055 
L 217.596284 28.986289 
L 221.132459 29.365531 
L 224.675636 29.154841 
L 228.211812 29.239117 
L 231.719978 32.926199 
L 235.242148 29.133772 
L 238.785326 29.765843 
L 242.314499 30.882502 
L 245.836669 32.25199 
L 249.351838 33.200097 
L 252.874008 30.71395 
L 256.410183 28.944151 
L 259.956862 30.692881 
L 263.475532 29.428738 
L 267.029213 30.882502 
L 270.57239 30.629674 
L 274.133074 30.819295 
L 277.67275 29.449808 
L 281.243937 37.751009 
L 284.920159 36.255107 
L 288.557868 34.906689 
L 292.104546 32.568025 
L 295.759761 32.589094 
L 299.379964 33.832168 
L 302.982662 32.715509 
L 306.55735 30.92464 
L 310.135539 31.008917 
L 313.703225 30.566467 
L 317.319927 31.451366 
L 320.887613 30.608605 
L 324.420287 30.587536 
L 328.047492 33.705754 
L 331.594171 48.685841 
L 335.126845 41.648782 
L 338.687528 43.65034 
L 342.265718 38.551633 
L 345.826401 36.212969 
L 352.898751 36.107624 
L 356.431426 73.52624 
L 359.960598 55.259382 
L 363.552792 49.001877 
L 367.151989 48.201253 
L 370.719674 50.6874 
L 374.269854 42.639027 
L 377.816533 50.181743 
L 381.482251 49.402189 
L 385.025429 41.880541 
L 388.593114 46.600006 
L 392.125789 43.207891 
L 395.686472 43.250029 
L 399.250657 74.958935 
L 402.849853 66.425974 
L 406.354518 63.370963 
L 409.876688 69.438847 
L 413.377852 81.195372 
L 416.886018 65.814972 
L 420.394184 73.652655 
L 427.39301 65.119693 
L 430.901176 73.926552 
L 434.409342 93.183655 
L 437.931512 78.077153 
L 441.439678 69.691675 
L 444.916334 56.818491 
L 448.4245 59.093948 
L 451.925663 56.649939 
L 455.43733 58.356531 
L 458.948997 49.528603 
L 462.453662 54.585173 
L 465.954826 50.013191 
L 469.462992 48.601565 
L 472.964155 39.078359 
L 476.472321 40.426778 
L 479.976986 36.234039 
L 483.481651 41.901611 
L 486.982814 55.301521 
L 490.483978 56.83956 
L 493.988643 53.99524 
L 497.489806 51.867267 
L 500.99097 41.733058 
L 504.509639 53.615997 
L 508.042314 57.366286 
L 511.557482 36.21297 
L 515.069149 30.06081 
L 518.573814 29.639429 
L 522.074977 28.607046 
L 525.569139 31.767402 
L 529.049295 30.229362 
L 532.560962 32.968337 
L 536.051622 28.775598 
L 539.549285 30.081879 
L 543.05395 30.250431 
L 546.555113 28.101389 
L 553.557441 28.038182 
L 557.058604 29.61836 
L 560.559768 28.564908 
L 564.064433 28.649184 
L 567.569097 29.302324 
L 571.070261 29.449808 
L 574.571425 28.859874 
L 578.132108 60.800539 
L 582.035905 48.791186 
L 585.568579 29.091634 
L 589.073244 28.206734 
L 592.58141 28.038182 
L 596.082574 28.185665 
L 599.587239 28.459563 
L 603.088402 28.52277 
L 606.600069 35.918003 
L 610.101233 75.822766 
L 613.605898 44.177067 
L 617.191089 28.944151 
L 620.695754 28.986289 
L 624.077878 69.860228 
L 627.453 32.90513 
L 630.954163 30.461121 
L 634.455327 28.986289 
L 637.959992 29.597291 
L 641.461155 28.269941 
L 644.969321 28.143527 
L 648.470485 28.417425 
L 651.971649 28.269941 
L 655.472812 28.96522 
L 658.977477 28.08032 
L 662.478641 28.059251 
L 665.979804 29.302324 
L 669.491471 28.143527 
L 669.491471 28.143527 
" clip-path="url(#p37014b9017)" style="fill: none; stroke: #ff7f0e; stroke-width: 1.5; stroke-linecap: square"/>
   </g>
   <g id="line2d_33">
    <path d="M 77.64427 277.579896 
L 81.320492 273.492502 
L 85.185777 268.162034 
L 89.114082 262.304841 
L 93.04939 261.356734 
L 96.932181 249.684485 
L 100.913004 253.940432 
L 104.942843 242.436735 
L 108.90616 238.728584 
L 112.848471 242.310322 
L 116.811788 234.409431 
L 120.72959 219.51362 
L 124.710413 205.544846 
L 128.680732 190.838656 
L 132.696567 175.521464 
L 136.680891 156.07474 
L 140.710731 140.125477 
L 144.421964 113.683831 
L 148.08068 80.436885 
L 151.686878 64.424415 
L 155.012984 46.831766 
L 158.10101 44.240274 
L 161.16803 40.911366 
L 164.14752 35.433415 
L 167.028977 37.793147 
L 169.927941 32.90513 
L 172.8129 33.853237 
L 175.70136 33.768961 
L 178.659843 36.887179 
L 181.56931 32.378404 
L 184.447266 32.25199 
L 187.290211 34.021789 
L 190.161165 29.723705 
L 192.990106 30.440052 
L 198.693501 31.051055 
L 201.539947 30.48219 
L 204.386393 28.227803 
L 207.208331 30.018672 
L 210.044274 29.597291 
L 212.901223 29.934395 
L 215.730163 30.124017 
L 218.566106 30.840364 
L 224.199478 30.208293 
L 227.007411 29.112703 
L 229.829349 29.302324 
L 232.665292 38.151321 
L 235.480227 32.589094 
L 238.295163 28.459563 
L 241.099595 30.545398 
L 243.925034 28.754529 
L 246.736468 30.208293 
L 249.537399 29.871188 
L 252.42936 28.480632 
L 255.265303 30.334707 
L 258.11525 28.880943 
L 261.077234 38.720185 
L 264.567895 39.815775 
L 267.697935 31.008916 
L 270.551383 31.008916 
L 273.513368 41.648782 
L 276.976018 41.058848 
L 279.881984 31.324952 
L 282.738934 41.501298 
L 285.58538 41.606643 
L 288.452833 36.42366 
L 291.309782 36.613281 
L 294.145725 44.134928 
L 296.967663 60.969092 
L 299.800104 48.770117 
L 302.629044 58.946463 
L 305.464987 55.996798 
L 308.290426 59.431051 
L 311.746074 65.246106 
L 315.086184 61.959336 
L 318.244234 63.455238 
L 321.304251 59.283568 
L 324.297746 56.397109 
L 327.291241 49.212567 
L 330.20771 61.285127 
L 333.21521 60.084191 
L 336.257721 50.560985 
L 339.317738 45.356933 
L 342.290226 40.911365 
L 345.357245 43.376443 
L 348.434768 41.227401 
L 351.435265 39.605085 
L 360.457764 40.468915 
L 363.524783 49.191498 
L 366.724847 47.779872 
L 369.977428 51.930473 
L 373.282526 60.10526 
L 376.57362 53.763479 
L 379.819198 52.731096 
L 383.068278 55.554348 
L 386.299852 59.978846 
L 389.48241 58.019425 
L 392.573938 57.47163 
L 395.644458 62.338579 
L 398.609944 62.717821 
L 401.54742 60.653055 
L 404.530411 58.398668 
L 407.520405 62.31751 
L 410.433373 77.803254 
L 413.458378 72.219958 
L 416.388852 67.226596 
L 419.245802 70.007709 
L 422.09925 69.080671 
L 425.064736 71.040092 
L 428.002212 75.001072 
L 430.922183 71.840716 
L 433.814144 69.733812 
L 436.671093 72.17782 
L 439.556052 71.292921 
L 442.434009 69.628466 
L 445.301462 67.711184 
L 448.273949 57.555907 
L 451.221929 57.850873 
L 454.176911 53.110339 
L 457.292947 52.815373 
L 460.293444 55.217243 
L 463.251927 122.153586 
L 466.192905 59.68388 
L 469.095369 56.797421 
L 471.987331 73.526239 
L 475.008835 64.340137 
L 477.935808 63.960895 
L 480.859279 61.896129 
L 483.758243 57.576976 
L 486.643202 58.482944 
L 489.542165 60.863746 
L 492.41662 71.777509 
L 495.312083 62.802097 
L 498.225051 57.640183 
L 501.148522 57.787666 
L 504.033481 57.071319 
L 506.879927 58.35653 
L 509.733376 57.303078 
L 512.670852 67.437286 
L 515.664347 71.861785 
L 518.556308 70.555504 
L 521.455271 62.064681 
L 524.34023 57.808735 
L 527.186676 62.127888 
L 532.865564 58.440806 
L 535.80304 57.745528 
L 538.712507 56.460316 
L 541.57996 57.092388 
L 544.478923 56.649938 
L 547.346376 58.525082 
L 550.24534 55.364726 
L 553.200322 56.123212 
L 556.085281 56.671007 
L 558.956235 55.786107 
L 561.855198 56.460316 
L 564.761164 56.312833 
L 567.656626 56.81849 
L 570.492569 57.134526 
L 573.360022 56.502455 
L 576.227475 56.692076 
L 579.091427 57.91408 
L 581.934372 57.366285 
L 584.763312 54.226998 
L 587.903856 58.630428 
L 590.890348 92.15127 
L 593.834827 59.262499 
L 596.730289 60.294882 
L 599.744791 50.940228 
L 602.878332 51.78299 
L 605.973361 53.826687 
L 609.005369 54.248067 
L 612.016369 56.228557 
L 614.87682 57.197733 
L 617.870315 54.774793 
L 620.814794 79.488777 
L 623.762773 71.292921 
L 626.633728 58.377599 
L 629.571204 58.398668 
L 632.512181 56.944904 
L 635.519681 53.932032 
L 638.49567 57.598045 
L 641.394633 56.881697 
L 644.318105 57.935149 
L 647.185558 58.504013 
L 650.172051 86.483698 
L 653.134035 62.591407 
L 656.050504 59.178223 
L 659.114022 62.486062 
L 662.100515 55.406865 
L 665.055497 55.743969 
L 667.936955 56.565662 
L 670.835918 57.829804 
L 670.835918 57.829804 
" clip-path="url(#p37014b9017)" style="fill: none; stroke: #2ca02c; stroke-width: 1.5; stroke-linecap: square"/>
   </g>
   <g id="patch_3">
    <path d="M 47.72 390.04 
L 47.72 10.8 
" style="fill: none; stroke: #000000; stroke-width: 0.8; stroke-linejoin: miter; stroke-linecap: square"/>
   </g>
   <g id="patch_4">
    <path d="M 700.508105 390.04 
L 700.508105 10.8 
" style="fill: none; stroke: #000000; stroke-width: 0.8; stroke-linejoin: miter; stroke-linecap: square"/>
   </g>
   <g id="patch_5">
    <path d="M 47.72 390.04 
L 700.508105 390.04 
" style="fill: none; stroke: #000000; stroke-width: 0.8; stroke-linejoin: miter; stroke-linecap: square"/>
   </g>
   <g id="patch_6">
    <path d="M 47.72 10.8 
L 700.508105 10.8 
" style="fill: none; stroke: #000000; stroke-width: 0.8; stroke-linejoin: miter; stroke-linecap: square"/>
   </g>
   <g id="legend_1">
    <g id="patch_7">
     <path d="M 599.83623 385.04 
L 693.508105 385.04 
Q 695.508105 385.04 695.508105 383.04 
L 695.508105 325.3275 
Q 695.508105 323.3275 693.508105 323.3275 
L 599.83623 323.3275 
Q 597.83623 323.3275 597.83623 325.3275 
L 597.83623 383.04 
Q 597.83623 385.04 599.83623 385.04 
z
" style="fill: #ffffff; opacity: 0.8; stroke: #cccccc; stroke-linejoin: miter"/>
    </g>
    <g id="text_18">
     <!-- Max Circuit Depth -->
     <g transform="translate(601.83623 334.925937) scale(0.1 -0.1)">
      <defs>
       <path id="DejaVuSans-4d" d="M 628 4666 
L 1569 4666 
L 2759 1491 
L 3956 4666 
L 4897 4666 
L 4897 0 
L 4281 0 
L 4281 4097 
L 3078 897 
L 2444 897 
L 1241 4097 
L 1241 0 
L 628 0 
L 628 4666 
z
" transform="scale(0.015625)"/>
       <path id="DejaVuSans-78" d="M 3513 3500 
L 2247 1797 
L 3578 0 
L 2900 0 
L 1881 1375 
L 863 0 
L 184 0 
L 1544 1831 
L 300 3500 
L 978 3500 
L 1906 2253 
L 2834 3500 
L 3513 3500 
z
" transform="scale(0.015625)"/>
       <path id="DejaVuSans-20" transform="scale(0.015625)"/>
       <path id="DejaVuSans-43" d="M 4122 4306 
L 4122 3641 
Q 3803 3938 3442 4084 
Q 3081 4231 2675 4231 
Q 1875 4231 1450 3742 
Q 1025 3253 1025 2328 
Q 1025 1406 1450 917 
Q 1875 428 2675 428 
Q 3081 428 3442 575 
Q 3803 722 4122 1019 
L 4122 359 
Q 3791 134 3420 21 
Q 3050 -91 2638 -91 
Q 1578 -91 968 557 
Q 359 1206 359 2328 
Q 359 3453 968 4101 
Q 1578 4750 2638 4750 
Q 3056 4750 3426 4639 
Q 3797 4528 4122 4306 
z
" transform="scale(0.015625)"/>
       <path id="DejaVuSans-69" d="M 603 3500 
L 1178 3500 
L 1178 0 
L 603 0 
L 603 3500 
z
M 603 4863 
L 1178 4863 
L 1178 4134 
L 603 4134 
L 603 4863 
z
" transform="scale(0.015625)"/>
       <path id="DejaVuSans-44" d="M 1259 4147 
L 1259 519 
L 2022 519 
Q 2988 519 3436 956 
Q 3884 1394 3884 2338 
Q 3884 3275 3436 3711 
Q 2988 4147 2022 4147 
L 1259 4147 
z
M 628 4666 
L 1925 4666 
Q 3281 4666 3915 4102 
Q 4550 3538 4550 2338 
Q 4550 1131 3912 565 
Q 3275 0 1925 0 
L 628 0 
L 628 4666 
z
" transform="scale(0.015625)"/>
       <path id="DejaVuSans-68" d="M 3513 2113 
L 3513 0 
L 2938 0 
L 2938 2094 
Q 2938 2591 2744 2837 
Q 2550 3084 2163 3084 
Q 1697 3084 1428 2787 
Q 1159 2491 1159 1978 
L 1159 0 
L 581 0 
L 581 4863 
L 1159 4863 
L 1159 2956 
Q 1366 3272 1645 3428 
Q 1925 3584 2291 3584 
Q 2894 3584 3203 3211 
Q 3513 2838 3513 2113 
z
" transform="scale(0.015625)"/>
      </defs>
      <use xlink:href="#DejaVuSans-4d"/>
      <use xlink:href="#DejaVuSans-61" transform="translate(86.279297 0)"/>
      <use xlink:href="#DejaVuSans-78" transform="translate(147.558594 0)"/>
      <use xlink:href="#DejaVuSans-20" transform="translate(206.738281 0)"/>
      <use xlink:href="#DejaVuSans-43" transform="translate(238.525391 0)"/>
      <use xlink:href="#DejaVuSans-69" transform="translate(308.349609 0)"/>
      <use xlink:href="#DejaVuSans-72" transform="translate(336.132812 0)"/>
      <use xlink:href="#DejaVuSans-63" transform="translate(374.996094 0)"/>
      <use xlink:href="#DejaVuSans-75" transform="translate(429.976562 0)"/>
      <use xlink:href="#DejaVuSans-69" transform="translate(493.355469 0)"/>
      <use xlink:href="#DejaVuSans-74" transform="translate(521.138672 0)"/>
      <use xlink:href="#DejaVuSans-20" transform="translate(560.347656 0)"/>
      <use xlink:href="#DejaVuSans-44" transform="translate(592.134766 0)"/>
      <use xlink:href="#DejaVuSans-65" transform="translate(669.136719 0)"/>
      <use xlink:href="#DejaVuSans-70" transform="translate(730.660156 0)"/>
      <use xlink:href="#DejaVuSans-74" transform="translate(794.136719 0)"/>
      <use xlink:href="#DejaVuSans-68" transform="translate(833.345703 0)"/>
     </g>
    </g>
    <g id="line2d_34">
     <path d="M 629.490917 346.104062 
L 639.490917 346.104062 
L 649.490917 346.104062 
" style="fill: none; stroke: #1f77b4; stroke-width: 1.5; stroke-linecap: square"/>
    </g>
    <g id="text_19">
     <!-- 4 -->
     <g transform="translate(657.490917 349.604062) scale(0.1 -0.1)">
      <use xlink:href="#DejaVuSans-34"/>
     </g>
    </g>
    <g id="line2d_35">
     <path d="M 629.490917 360.782187 
L 639.490917 360.782187 
L 649.490917 360.782187 
" style="fill: none; stroke: #ff7f0e; stroke-width: 1.5; stroke-linecap: square"/>
    </g>
    <g id="text_20">
     <!-- 5 -->
     <g transform="translate(657.490917 364.282187) scale(0.1 -0.1)">
      <use xlink:href="#DejaVuSans-35"/>
     </g>
    </g>
    <g id="line2d_36">
     <path d="M 629.490917 375.460312 
L 639.490917 375.460312 
L 649.490917 375.460312 
" style="fill: none; stroke: #2ca02c; stroke-width: 1.5; stroke-linecap: square"/>
    </g>
    <g id="text_21">
     <!-- 6 -->
     <g transform="translate(657.490917 378.960312) scale(0.1 -0.1)">
      <use xlink:href="#DejaVuSans-36"/>
     </g>
    </g>
   </g>
  </g>
 </g>
 <defs>
  <clipPath id="p37014b9017">
   <rect x="47.72" y="10.8" width="652.788105" height="379.24"/>
  </clipPath>
 </defs>
</svg>
