<?xml version="1.0" encoding="utf-8" standalone="no"?>
<!DOCTYPE svg PUBLIC "-//W3C//DTD SVG 1.1//EN"
  "http://www.w3.org/Graphics/SVG/1.1/DTD/svg11.dtd">
<svg xmlns:xlink="http://www.w3.org/1999/xlink" width="720pt" height="432pt" viewBox="0 0 720 432" xmlns="http://www.w3.org/2000/svg" version="1.1">
 <metadata>
  <rdf:RDF xmlns:dc="http://purl.org/dc/elements/1.1/" xmlns:cc="http://creativecommons.org/ns#" xmlns:rdf="http://www.w3.org/1999/02/22-rdf-syntax-ns#">
   <cc:Work>
    <dc:type rdf:resource="http://purl.org/dc/dcmitype/StillImage"/>
    <dc:date>2025-04-17T16:35:46.324705</dc:date>
    <dc:format>image/svg+xml</dc:format>
    <dc:creator>
     <cc:Agent>
      <dc:title>Matplotlib v3.10.0, https://matplotlib.org/</dc:title>
     </cc:Agent>
    </dc:creator>
   </cc:Work>
  </rdf:RDF>
 </metadata>
 <defs>
  <style type="text/css">*{stroke-linejoin: round; stroke-linecap: butt}</style>
 </defs>
 <g id="figure_1">
  <g id="patch_1">
   <path d="M 0 432 
L 720 432 
L 720 0 
L 0 0 
z
" style="fill: #ffffff"/>
  </g>
  <g id="axes_1">
   <g id="patch_2">
    <path d="M 47.72 390.04 
L 700.508105 390.04 
L 700.508105 10.8 
L 47.72 10.8 
z
" style="fill: #ffffff"/>
   </g>
   <g id="FillBetweenPolyCollection_1">
    <path d="M 77.392187 210.456945 
L 77.392187 368.019289 
L 80.71129 362.990957 
L 83.935861 348.360911 
L 87.237459 342.241425 
L 90.658096 348.047643 
L 93.910677 339.251962 
L 97.194768 344.82106 
L 100.664421 347.146329 
L 104.179589 330.260567 
L 107.796291 330.636832 
L 111.458509 314.509548 
L 115.10322 271.379781 
L 118.639395 255.146265 
L 122.147561 233.485682 
L 125.550692 199.237418 
L 128.537185 166.744446 
L 131.485164 138.182885 
L 134.447149 95.607187 
L 137.321604 72.863423 
L 140.206563 71.257008 
L 143.088021 59.490558 
L 145.927464 42.917329 
L 148.766908 47.42156 
L 151.595848 39.72894 
L 154.438793 47.421561 
L 157.278237 44.030735 
L 160.110678 36.894817 
L 162.925614 42.419892 
L 165.737048 35.224709 
L 168.565988 39.678331 
L 171.380924 40.48808 
L 174.178354 41.29783 
L 176.982786 35.578974 
L 179.801222 37.198473 
L 182.609156 35.325927 
L 185.424091 35.964128 
L 188.253031 33.503991 
L 191.060965 33.5546 
L 193.879401 31.530227 
L 196.687334 33.5546 
L 199.491766 31.27718 
L 202.317206 32.238757 
L 205.125139 38.868582 
L 207.943575 34.516178 
L 210.758511 33.807647 
L 213.573447 31.479617 
L 216.391883 30.83714 
L 219.203318 36.540551 
L 222.011251 29.050369 
L 224.815683 29.860118 
L 227.644623 30.973524 
L 230.459559 35.832021 
L 233.263991 31.378399 
L 236.068423 34.718615 
L 238.876356 29.100978 
L 241.68779 29.961337 
L 244.499225 31.27718 
L 247.300156 31.631445 
L 250.118592 37.653957 
L 252.94053 35.629584 
L 255.671438 110.85665 
L 258.381338 59.06171 
L 261.164764 41.753314 
L 263.976198 93.931549 
L 266.53905 82.869682 
L 269.346983 36.236896 
L 272.154916 62.654974 
L 274.756281 135.364272 
L 277.483687 61.649452 
L 280.288119 40.791737 
L 283.110057 54.180227 
L 285.938997 45.621204 
L 288.757434 46.814249 
L 291.586374 74.211424 
L 294.415314 103.908106 
L 297.23025 79.431844 
L 300.097703 40.747644 
L 303.714405 47.022042 
L 306.980991 38.773879 
L 309.869451 35.983849 
L 312.736904 34.625545 
L 315.681382 36.490528 
L 318.618858 38.109441 
L 321.500316 33.402772 
L 324.483308 55.357736 
L 327.490807 39.020409 
L 330.452792 37.431799 
L 333.330748 41.348439 
L 336.187698 32.441195 
L 339.055151 40.235034 
L 341.905098 35.132078 
L 344.755045 29.303415 
L 347.601491 36.558702 
L 350.423429 29.404634 
L 353.252369 30.568649 
L 356.091813 41.137277 
L 358.931256 142.650372 
L 361.746192 93.562972 
L 364.564629 53.697119 
L 367.383065 29.911313 
L 370.190999 30.163774 
L 373.131976 50.842227 
L 376.097462 43.905206 
L 378.957912 35.072881 
L 381.807859 32.491804 
L 384.643802 34.516178 
L 387.448234 35.88263 
L 390.298181 34.819834 
L 393.127121 32.138457 
L 395.949059 28.797322 
L 398.746489 37.45152 
L 401.543919 34.668006 
L 404.379861 29.556462 
L 407.194797 36.186286 
L 410.044744 37.148782 
L 412.89119 33.048507 
L 415.741137 33.60521 
L 418.57708 32.086929 
L 421.462039 40.639908 
L 424.392512 39.527421 
L 427.312483 39.425284 
L 430.225451 35.578974 
L 433.061394 31.833883 
L 435.862324 58.150742 
L 438.659754 39.678331 
L 441.471189 34.161912 
L 444.30363 36.540551 
L 447.125568 32.390585 
L 449.937002 31.479617 
L 452.75894 31.074742 
L 455.584379 31.378398 
L 458.437827 32.03632 
L 461.263266 30.011946 
L 464.0712 28.341838 
L 466.903641 48.092147 
L 469.914642 258.887132 
L 472.817106 72.395221 
L 475.677557 38.767363 
L 478.509998 41.044783 
L 481.335437 37.350301 
L 484.181884 37.229362 
L 487.003821 36.187002 
L 489.822258 43.372813 
L 492.829758 57.461279 
L 495.777737 149.019248 
L 498.701209 49.496544 
L 501.56166 79.51156 
L 504.404605 64.275391 
L 507.240547 35.174099 
L 510.07649 33.250944 
L 512.901929 29.910727 
L 515.727368 32.643632 
L 518.549306 29.505853 
L 521.36074 28.139401 
L 524.18968 32.542413 
L 527.01862 32.896679 
L 529.844059 33.099116 
L 532.665997 29.354025 
L 535.477432 30.720477 
L 538.292367 61.587407 
L 541.373391 54.608088 
L 544.272355 32.137539 
L 547.08729 34.769225 
L 549.919732 32.593023 
L 552.759175 33.655819 
L 555.563607 35.072881 
L 558.378543 31.833883 
L 561.235492 83.961507 
L 564.165966 46.966076 
L 567.008911 49.901419 
L 569.841353 33.807647 
L 572.677295 40.929256 
L 575.492231 34.161912 
L 578.335175 34.921052 
L 581.227137 117.960849 
L 584.070081 254.437197 
L 586.934033 112.815137 
L 589.801486 33.301553 
L 592.626925 30.619258 
L 595.462868 32.339976 
L 598.284806 30.46743 
L 601.131252 33.820655 
L 603.970695 32.744851 
L 606.834647 31.935101 
L 609.67059 34.414959 
L 612.485525 29.860118 
L 615.35648 42.360626 
L 618.234436 40.000137 
L 621.087884 39.719722 
L 623.930829 30.214384 
L 626.766772 30.163774 
L 629.599213 32.03632 
L 632.421151 30.771086 
L 635.24659 71.045131 
L 638.082533 56.534884 
L 640.914974 39.240023 
L 643.747415 31.884492 
L 646.583358 29.505853 
L 649.401795 29.303415 
L 652.230735 29.961337 
L 655.056174 30.416821 
L 657.916624 28.898541 
L 660.752567 34.971662 
L 663.634025 31.732664 
L 666.518983 45.751452 
L 669.54749 43.474031 
L 669.54749 28.038182 
L 669.54749 28.038182 
L 666.518983 28.038182 
L 663.634025 28.038182 
L 660.752567 28.038182 
L 657.916624 28.038182 
L 655.056174 28.038182 
L 652.230735 28.038182 
L 649.401795 28.038182 
L 646.583358 28.038182 
L 643.747415 28.038182 
L 640.914974 28.038182 
L 638.082533 28.038182 
L 635.24659 28.038182 
L 632.421151 28.038182 
L 629.599213 28.038182 
L 626.766772 28.038182 
L 623.930829 28.038182 
L 621.087884 28.038182 
L 618.234436 28.038182 
L 615.35648 28.038182 
L 612.485525 28.038182 
L 609.67059 28.038182 
L 606.834647 28.038182 
L 603.970695 28.038182 
L 601.131252 28.038182 
L 598.284806 28.038182 
L 595.462868 28.038182 
L 592.626925 28.038182 
L 589.801486 28.038182 
L 586.934033 28.038182 
L 584.070081 28.038182 
L 581.227137 28.038182 
L 578.335175 28.038182 
L 575.492231 28.038182 
L 572.677295 28.038182 
L 569.841353 28.038182 
L 567.008911 28.038182 
L 564.165966 28.038182 
L 561.235492 28.038182 
L 558.378543 28.038182 
L 555.563607 28.038182 
L 552.759175 28.038182 
L 549.919732 28.038182 
L 547.08729 28.038182 
L 544.272355 28.038182 
L 541.373391 28.038182 
L 538.292367 28.038182 
L 535.477432 28.038182 
L 532.665997 28.038182 
L 529.844059 28.038182 
L 527.01862 28.038182 
L 524.18968 28.038182 
L 521.36074 28.038182 
L 518.549306 28.038182 
L 515.727368 28.038182 
L 512.901929 28.038182 
L 510.07649 28.038182 
L 507.240547 28.038182 
L 504.404605 28.038182 
L 501.56166 28.038182 
L 498.701209 28.038182 
L 495.777737 28.038182 
L 492.829758 28.038182 
L 489.822258 28.038182 
L 487.003821 28.038182 
L 484.181884 28.038182 
L 481.335437 28.038182 
L 478.509998 28.038182 
L 475.677557 28.038182 
L 472.817106 28.038182 
L 469.914642 28.038182 
L 466.903641 28.038182 
L 464.0712 28.038182 
L 461.263266 28.038182 
L 458.437827 28.038182 
L 455.584379 28.038182 
L 452.75894 28.038182 
L 449.937002 28.038182 
L 447.125568 28.038182 
L 444.30363 28.038182 
L 441.471189 28.038182 
L 438.659754 28.038182 
L 435.862324 28.038182 
L 433.061394 28.038182 
L 430.225451 28.038182 
L 427.312483 28.038182 
L 424.392512 28.038182 
L 421.462039 28.038182 
L 418.57708 28.038182 
L 415.741137 28.038182 
L 412.89119 28.038182 
L 410.044744 28.038182 
L 407.194797 28.038182 
L 404.379861 28.038182 
L 401.543919 28.038182 
L 398.746489 28.038182 
L 395.949059 28.038182 
L 393.127121 28.038182 
L 390.298181 28.038182 
L 387.448234 28.038182 
L 384.643802 28.038182 
L 381.807859 28.038182 
L 378.957912 28.038182 
L 376.097462 28.038182 
L 373.131976 28.038182 
L 370.190999 28.038182 
L 367.383065 28.038182 
L 364.564629 28.038182 
L 361.746192 28.038182 
L 358.931256 28.038182 
L 356.091813 28.038182 
L 353.252369 28.038182 
L 350.423429 28.038182 
L 347.601491 28.038182 
L 344.755045 28.038182 
L 341.905098 28.038182 
L 339.055151 28.038182 
L 336.187698 28.038182 
L 333.330748 28.038182 
L 330.452792 28.038182 
L 327.490807 28.038182 
L 324.483308 28.038182 
L 321.500316 28.038182 
L 318.618858 28.038182 
L 315.681382 28.038182 
L 312.736904 28.038182 
L 309.869451 28.038182 
L 306.980991 28.038182 
L 303.714405 28.038182 
L 300.097703 28.038182 
L 297.23025 28.038182 
L 294.415314 28.038182 
L 291.586374 28.038182 
L 288.757434 28.038182 
L 285.938997 28.038182 
L 283.110057 28.038182 
L 280.288119 28.038182 
L 277.483687 28.038182 
L 274.756281 28.038182 
L 272.154916 28.038182 
L 269.346983 28.038182 
L 266.53905 28.038182 
L 263.976198 28.038182 
L 261.164764 28.038182 
L 258.381338 28.038182 
L 255.671438 28.038182 
L 252.94053 28.038182 
L 250.118592 28.038182 
L 247.300156 28.038182 
L 244.499225 28.038182 
L 241.68779 28.038182 
L 238.876356 28.038182 
L 236.068423 28.038182 
L 233.263991 28.038182 
L 230.459559 28.038182 
L 227.644623 28.038182 
L 224.815683 28.038182 
L 222.011251 28.038182 
L 219.203318 28.038182 
L 216.391883 28.038182 
L 213.573447 28.038182 
L 210.758511 28.038182 
L 207.943575 28.038182 
L 205.125139 28.038182 
L 202.317206 28.038182 
L 199.491766 28.038182 
L 196.687334 28.038182 
L 193.879401 28.038182 
L 191.060965 28.038182 
L 188.253031 28.038182 
L 185.424091 28.038182 
L 182.609156 28.038182 
L 179.801222 28.038182 
L 176.982786 28.038182 
L 174.178354 28.038182 
L 171.380924 28.038182 
L 168.565988 28.038182 
L 165.737048 28.038182 
L 162.925614 28.038182 
L 160.110678 28.038182 
L 157.278237 28.038182 
L 154.438793 28.038182 
L 151.595848 28.038182 
L 148.766908 28.038182 
L 145.927464 28.038182 
L 143.088021 28.038182 
L 140.206563 28.038182 
L 137.321604 28.038182 
L 134.447149 28.038182 
L 131.485164 28.038182 
L 128.537185 28.038182 
L 125.550692 28.038182 
L 122.147561 38.468445 
L 118.639395 56.889265 
L 115.10322 66.314554 
L 111.458509 91.147083 
L 107.796291 115.43661 
L 104.179589 121.137496 
L 100.664421 146.597149 
L 97.194768 175.629376 
L 93.910677 184.636418 
L 90.658096 189.927925 
L 87.237459 196.950001 
L 83.935861 197.538699 
L 80.71129 208.273977 
L 77.392187 210.456945 
z
" clip-path="url(#p38a82a616d)" style="fill: #1f77b4; fill-opacity: 0.2"/>
   </g>
   <g id="FillBetweenPolyCollection_2">
    <path d="M 77.591753 200.909802 
L 77.591753 371.067878 
L 81.155937 351.958097 
L 84.601082 351.894245 
L 88.228288 337.988817 
L 92.013046 331.839095 
L 95.615743 333.393268 
L 99.425009 334.800144 
L 103.276289 318.27174 
L 107.13107 312.611217 
L 110.901824 312.824665 
L 114.539533 280.810496 
L 118.38381 282.880236 
L 122.189575 257.435268 
L 126.14589 231.706985 
L 130.182732 198.895581 
L 134.205569 173.412356 
L 138.189893 158.677936 
L 142.226734 110.184597 
L 146.134033 79.893721 
L 149.88728 63.763549 
L 153.61602 58.026804 
L 157.243225 51.672745 
L 160.89844 42.787081 
L 164.473128 40.441564 
L 168.037313 53.545291 
L 171.633008 36.945426 
L 175.172684 35.275318 
L 178.729866 37.046645 
L 182.29055 34.769225 
L 185.823224 33.858256 
L 189.3629 36.186286 
L 192.892073 37.364735 
L 196.421246 30.062556 
L 199.950419 34.263131 
L 203.479592 31.378399 
L 207.012266 36.338114 
L 210.520432 33.858256 
L 214.049605 35.275318 
L 217.596284 30.315602 
L 221.132459 31.22657 
L 224.675636 30.720477 
L 228.211812 30.922914 
L 231.719978 39.77955 
L 235.242148 30.669868 
L 238.785326 31.624299 
L 242.314499 34.870443 
L 245.836669 38.160051 
L 249.351838 40.437471 
L 252.874008 34.465569 
L 256.410183 30.214384 
L 259.956862 34.414959 
L 263.475532 31.378398 
L 267.029213 34.870443 
L 270.57239 34.263131 
L 274.133074 34.718615 
L 277.67275 31.429008 
L 281.243937 51.284168 
L 284.920159 47.775825 
L 288.557868 44.536828 
L 292.104546 38.919191 
L 295.759761 38.9698 
L 299.379964 41.955751 
L 302.982662 38.941116 
L 306.55735 34.971662 
L 310.135539 35.174099 
L 313.703225 34.111303 
L 317.319927 36.236895 
L 320.887613 34.212522 
L 324.420287 34.161912 
L 328.047492 41.652095 
L 331.594171 76.420656 
L 335.126845 59.76228 
L 338.687528 64.957748 
L 342.265718 52.498432 
L 345.826401 46.836659 
L 349.383583 47.064872 
L 352.898751 46.65132 
L 356.431426 126.293222 
L 359.960598 88.594634 
L 363.552792 75.681063 
L 367.151989 73.6183 
L 370.719674 78.806012 
L 374.269854 62.422267 
L 377.816533 76.865688 
L 381.482251 76.178348 
L 385.025429 60.377379 
L 388.593114 69.732569 
L 392.125789 63.715802 
L 395.686472 63.539946 
L 399.250657 134.930722 
L 402.849853 112.478557 
L 406.354518 109.795096 
L 409.876688 121.747732 
L 413.377852 151.107069 
L 416.886018 115.548723 
L 420.394184 134.049861 
L 423.888345 124.766771 
L 427.39301 114.378961 
L 430.901176 135.146557 
L 434.409342 179.598476 
L 437.931512 145.654439 
L 441.439678 125.823087 
L 444.916334 96.281158 
L 448.4245 100.979784 
L 451.925663 96.55337 
L 455.43733 100.428839 
L 458.948997 77.745758 
L 462.453662 91.514965 
L 465.954826 79.405038 
L 469.462992 77.432902 
L 472.964155 53.993629 
L 476.472321 57.117626 
L 479.976986 47.161367 
L 483.481651 61.098646 
L 486.982814 93.526674 
L 490.483978 97.221156 
L 493.988643 90.388894 
L 497.489806 85.27735 
L 500.99097 60.934256 
L 504.509639 89.477926 
L 508.042314 98.0502 
L 511.557482 47.674608 
L 515.069149 32.896679 
L 518.573814 31.884492 
L 522.074977 29.404634 
L 525.569139 36.996036 
L 529.049295 33.301554 
L 532.560962 39.880768 
L 536.051622 29.809509 
L 539.549285 32.947288 
L 543.05395 33.352163 
L 546.555113 28.19001 
L 550.056277 28.038182 
L 553.557441 28.038182 
L 557.058604 31.833883 
L 560.559768 29.303415 
L 564.064433 29.505853 
L 567.569097 31.074743 
L 571.070261 31.429008 
L 574.571425 30.011946 
L 578.132108 105.963727 
L 582.035905 77.359833 
L 585.568579 30.568649 
L 589.073244 28.443057 
L 592.58141 28.038182 
L 596.082574 28.392447 
L 599.587239 29.050369 
L 603.088402 29.202197 
L 606.600069 46.966077 
L 610.101233 142.820175 
L 613.605898 66.804939 
L 617.191089 30.214384 
L 620.695754 30.315602 
L 624.077878 128.497731 
L 627.453 39.72894 
L 630.954163 33.858256 
L 634.455327 30.315602 
L 637.959992 31.783273 
L 641.461155 28.594885 
L 644.969321 28.291229 
L 648.470485 28.94915 
L 651.971649 28.594885 
L 655.472812 30.264993 
L 658.977477 28.139401 
L 662.478641 28.088791 
L 665.979804 31.074743 
L 669.491471 28.291229 
L 669.491471 28.038182 
L 669.491471 28.038182 
L 665.979804 28.038182 
L 662.478641 28.038182 
L 658.977477 28.038182 
L 655.472812 28.038182 
L 651.971649 28.038182 
L 648.470485 28.038182 
L 644.969321 28.038182 
L 641.461155 28.038182 
L 637.959992 28.038182 
L 634.455327 28.038182 
L 630.954163 28.038182 
L 627.453 28.038182 
L 624.077878 28.038182 
L 620.695754 28.038182 
L 617.191089 28.038182 
L 613.605898 28.038182 
L 610.101233 28.038182 
L 606.600069 28.038182 
L 603.088402 28.038182 
L 599.587239 28.038182 
L 596.082574 28.038182 
L 592.58141 28.038182 
L 589.073244 28.038182 
L 585.568579 28.038182 
L 582.035905 28.038182 
L 578.132108 28.038182 
L 574.571425 28.038182 
L 571.070261 28.038182 
L 567.569097 28.038182 
L 564.064433 28.038182 
L 560.559768 28.038182 
L 557.058604 28.038182 
L 553.557441 28.038182 
L 550.056277 28.038182 
L 546.555113 28.038182 
L 543.05395 28.038182 
L 539.549285 28.038182 
L 536.051622 28.038182 
L 532.560962 28.038182 
L 529.049295 28.038182 
L 525.569139 28.038182 
L 522.074977 28.038182 
L 518.573814 28.038182 
L 515.069149 28.038182 
L 511.557482 28.038182 
L 508.042314 28.038182 
L 504.509639 28.038182 
L 500.99097 28.038182 
L 497.489806 28.038182 
L 493.988643 28.038182 
L 490.483978 28.038182 
L 486.982814 28.038182 
L 483.481651 28.038182 
L 479.976986 28.038182 
L 476.472321 28.038182 
L 472.964155 28.038182 
L 469.462992 28.038182 
L 465.954826 28.038182 
L 462.453662 28.038182 
L 458.948997 28.038182 
L 455.43733 28.038182 
L 451.925663 28.038182 
L 448.4245 28.038182 
L 444.916334 28.038182 
L 441.439678 28.038182 
L 437.931512 28.038182 
L 434.409342 28.038182 
L 430.901176 28.038182 
L 427.39301 28.038182 
L 423.888345 28.038182 
L 420.394184 28.038182 
L 416.886018 28.038182 
L 413.377852 28.038182 
L 409.876688 28.038182 
L 406.354518 28.038182 
L 402.849853 28.038182 
L 399.250657 28.038182 
L 395.686472 28.038182 
L 392.125789 28.038182 
L 388.593114 28.038182 
L 385.025429 28.038182 
L 381.482251 28.038182 
L 377.816533 28.038182 
L 374.269854 28.038182 
L 370.719674 28.038182 
L 367.151989 28.038182 
L 363.552792 28.038182 
L 359.960598 28.038182 
L 356.431426 28.038182 
L 352.898751 28.038182 
L 349.383583 28.038182 
L 345.826401 28.038182 
L 342.265718 28.038182 
L 338.687528 28.038182 
L 335.126845 28.038182 
L 331.594171 28.038182 
L 328.047492 28.038182 
L 324.420287 28.038182 
L 320.887613 28.038182 
L 317.319927 28.038182 
L 313.703225 28.038182 
L 310.135539 28.038182 
L 306.55735 28.038182 
L 302.982662 28.038182 
L 299.379964 28.038182 
L 295.759761 28.038182 
L 292.104546 28.038182 
L 288.557868 28.038182 
L 284.920159 28.038182 
L 281.243937 28.038182 
L 277.67275 28.038182 
L 274.133074 28.038182 
L 270.57239 28.038182 
L 267.029213 28.038182 
L 263.475532 28.038182 
L 259.956862 28.038182 
L 256.410183 28.038182 
L 252.874008 28.038182 
L 249.351838 28.038182 
L 245.836669 28.038182 
L 242.314499 28.038182 
L 238.785326 28.038182 
L 235.242148 28.038182 
L 231.719978 28.038182 
L 228.211812 28.038182 
L 224.675636 28.038182 
L 221.132459 28.038182 
L 217.596284 28.038182 
L 214.049605 28.038182 
L 210.520432 28.038182 
L 207.012266 28.038182 
L 203.479592 28.038182 
L 199.950419 28.038182 
L 196.421246 28.038182 
L 192.892073 28.038182 
L 189.3629 28.038182 
L 185.823224 28.038182 
L 182.29055 28.038182 
L 178.729866 28.038182 
L 175.172684 28.038182 
L 171.633008 28.038182 
L 168.037313 28.038182 
L 164.473128 28.038182 
L 160.89844 28.038182 
L 157.243225 28.038182 
L 153.61602 28.038182 
L 149.88728 28.038182 
L 146.134033 28.038182 
L 142.226734 28.038182 
L 138.189893 28.038182 
L 134.205569 28.038182 
L 130.182732 28.038182 
L 126.14589 29.723677 
L 122.189575 55.1453 
L 118.38381 70.033292 
L 114.539533 82.374938 
L 110.901824 116.604092 
L 107.13107 130.401613 
L 103.276289 146.333059 
L 99.425009 162.423202 
L 95.615743 174.730878 
L 92.013046 172.679402 
L 88.228288 178.688265 
L 84.601082 190.609347 
L 81.155937 199.266136 
L 77.591753 200.909802 
z
" clip-path="url(#p38a82a616d)" style="fill: #ff7f0e; fill-opacity: 0.2"/>
   </g>
   <g id="FillBetweenPolyCollection_3">
    <path d="M 77.64427 196.207213 
L 77.64427 356.442509 
L 81.320492 351.565982 
L 85.185777 347.579668 
L 89.114082 339.041565 
L 93.04939 343.568119 
L 96.932181 326.361725 
L 100.913004 331.219394 
L 104.942843 319.399663 
L 108.90616 321.044168 
L 112.848471 327.264106 
L 116.811788 318.100179 
L 120.72959 308.298818 
L 124.710413 297.047148 
L 128.680732 284.871549 
L 132.696567 271.112877 
L 136.680891 249.91229 
L 140.710731 234.350783 
L 144.421964 192.456542 
L 148.08068 140.714763 
L 151.686878 110.130861 
L 155.012984 72.305088 
L 158.10101 66.147918 
L 161.16803 58.916398 
L 164.14752 45.589759 
L 167.028977 50.877383 
L 169.927941 39.494044 
L 172.8129 41.805619 
L 175.70136 41.803923 
L 178.659843 49.294106 
L 181.56931 38.385408 
L 184.447266 37.748167 
L 187.290211 42.411236 
L 190.161165 32.086929 
L 192.990106 33.807647 
L 195.815545 34.617397 
L 198.693501 35.275318 
L 201.539947 33.71195 
L 204.386393 28.493666 
L 207.208331 32.79546 
L 210.044274 31.783273 
L 212.901223 32.593023 
L 215.730163 33.048507 
L 218.566106 34.769225 
L 221.381041 33.809342 
L 224.199478 33.250944 
L 227.007411 30.619258 
L 229.829349 31.074742 
L 232.665292 52.330666 
L 235.480227 38.9698 
L 238.295163 29.050369 
L 241.099595 34.060694 
L 243.925034 29.758899 
L 246.736468 33.250944 
L 249.537399 32.441195 
L 252.42936 29.100978 
L 255.265303 33.5546 
L 258.11525 30.062556 
L 261.077234 53.305236 
L 264.567895 55.152844 
L 267.697935 35.114807 
L 270.551383 35.174099 
L 273.513368 59.162839 
L 276.976018 57.654931 
L 279.881984 35.778192 
L 282.738934 59.911636 
L 285.58538 60.363782 
L 288.452833 47.676714 
L 291.309782 48.636184 
L 294.145725 65.412162 
L 296.967663 102.576806 
L 299.800104 75.543191 
L 302.629044 96.105071 
L 305.464987 90.223662 
L 308.290426 92.80296 
L 311.746074 99.963651 
L 315.086184 95.382545 
L 318.244234 97.374741 
L 321.304251 92.161727 
L 324.297746 88.484931 
L 327.291241 75.084321 
L 330.20771 96.978442 
L 333.21521 92.782759 
L 336.257721 76.429185 
L 339.317738 64.326663 
L 342.290226 56.870671 
L 345.357245 60.279591 
L 348.434768 56.799597 
L 351.435265 53.349289 
L 354.404252 53.842243 
L 357.37674 54.126464 
L 360.457764 54.420857 
L 363.524783 72.713119 
L 366.724847 68.812605 
L 369.977428 76.558073 
L 373.282526 89.39169 
L 376.57362 80.990394 
L 379.819198 80.673245 
L 383.068278 84.980513 
L 386.299852 91.659543 
L 389.48241 92.309564 
L 392.573938 91.267043 
L 395.644458 98.966225 
L 398.609944 100.128918 
L 401.54742 98.519924 
L 404.530411 94.155849 
L 407.520405 98.734676 
L 410.433373 118.146663 
L 413.458378 110.254629 
L 416.388852 104.005844 
L 419.245802 107.411247 
L 422.09925 105.680767 
L 425.064736 106.560604 
L 428.002212 112.326842 
L 430.922183 108.989866 
L 433.814144 107.566125 
L 436.671093 110.634478 
L 439.556052 109.201498 
L 442.434009 110.879815 
L 445.301462 106.564609 
L 448.273949 92.691557 
L 451.221929 96.76451 
L 454.176911 87.204428 
L 457.292947 86.377287 
L 460.293444 92.53874 
L 463.251927 223.688699 
L 466.192905 101.640236 
L 469.095369 95.696047 
L 471.987331 117.333666 
L 475.008835 104.43862 
L 477.935808 106.104398 
L 480.859279 103.913751 
L 483.758243 97.362549 
L 486.643202 99.015424 
L 489.542165 101.668061 
L 492.41662 117.720352 
L 495.312083 104.848699 
L 498.225051 97.130594 
L 501.148522 97.730513 
L 504.033481 97.035852 
L 506.879927 99.618843 
L 509.733376 97.827257 
L 512.670852 101.111517 
L 515.664347 109.670534 
L 518.556308 108.788244 
L 521.455271 101.031043 
L 524.34023 98.296301 
L 527.186676 103.120465 
L 530.043626 101.242907 
L 532.865564 98.497923 
L 535.80304 96.72088 
L 538.712507 95.85237 
L 541.57996 97.347496 
L 544.478923 96.472371 
L 547.346376 98.600681 
L 550.24534 93.387508 
L 553.200322 94.734689 
L 556.085281 96.430016 
L 558.956235 94.450201 
L 561.855198 96.310185 
L 564.761164 95.434863 
L 567.656626 97.170544 
L 570.492569 97.689199 
L 573.360022 95.885758 
L 576.227475 96.626403 
L 579.091427 99.244422 
L 581.934372 98.012046 
L 584.763312 90.70511 
L 587.903856 96.85466 
L 590.890348 153.544154 
L 593.834827 100.416145 
L 596.730289 103.530601 
L 599.744791 82.471774 
L 602.878332 84.654934 
L 605.973361 89.503047 
L 609.005369 90.501956 
L 612.016369 95.236647 
L 614.87682 97.00687 
L 617.870315 92.100844 
L 620.814794 126.630913 
L 623.762773 115.461646 
L 626.633728 99.713211 
L 629.571204 94.687458 
L 632.512181 95.606171 
L 635.519681 90.237064 
L 638.49567 97.744365 
L 641.394633 95.554242 
L 644.318105 98.27555 
L 647.185558 99.329879 
L 650.172051 143.710352 
L 653.134035 103.801967 
L 656.050504 98.252086 
L 659.114022 102.689276 
L 662.100515 93.058263 
L 665.055497 94.418853 
L 667.936955 96.322747 
L 670.835918 98.937744 
L 670.835918 28.038182 
L 670.835918 28.038182 
L 667.936955 28.038182 
L 665.055497 28.038182 
L 662.100515 28.038182 
L 659.114022 28.038182 
L 656.050504 28.038182 
L 653.134035 28.038182 
L 650.172051 28.669157 
L 647.185558 28.038182 
L 644.318105 28.038182 
L 641.394633 28.038182 
L 638.49567 28.038182 
L 635.519681 28.038182 
L 632.512181 28.038182 
L 629.571204 28.038182 
L 626.633728 28.038182 
L 623.762773 28.038182 
L 620.814794 31.829114 
L 617.870315 28.038182 
L 614.87682 28.038182 
L 612.016369 28.038182 
L 609.005369 28.038182 
L 605.973361 28.038182 
L 602.878332 28.038182 
L 599.744791 28.038182 
L 596.730289 28.038182 
L 593.834827 28.038182 
L 590.890348 30.11349 
L 587.903856 28.038182 
L 584.763312 28.038182 
L 581.934372 28.038182 
L 579.091427 28.038182 
L 576.227475 28.038182 
L 573.360022 28.038182 
L 570.492569 28.038182 
L 567.656626 28.038182 
L 564.761164 28.038182 
L 561.855198 28.038182 
L 558.956235 28.038182 
L 556.085281 28.038182 
L 553.200322 28.038182 
L 550.24534 28.038182 
L 547.346376 28.038182 
L 544.478923 28.038182 
L 541.57996 28.038182 
L 538.712507 28.038182 
L 535.80304 28.038182 
L 532.865564 28.038182 
L 530.043626 28.038182 
L 527.186676 28.038182 
L 524.34023 28.038182 
L 521.455271 28.038182 
L 518.556308 31.895095 
L 515.664347 33.612226 
L 512.670852 33.366751 
L 509.733376 28.038182 
L 506.879927 28.038182 
L 504.033481 28.038182 
L 501.148522 28.038182 
L 498.225051 28.038182 
L 495.312083 28.038182 
L 492.41662 28.038182 
L 489.542165 28.038182 
L 486.643202 28.038182 
L 483.758243 28.038182 
L 480.859279 28.038182 
L 477.935808 28.038182 
L 475.008835 28.038182 
L 471.987331 29.26126 
L 469.095369 28.038182 
L 466.192905 28.038182 
L 463.251927 28.038182 
L 460.293444 28.038182 
L 457.292947 28.038182 
L 454.176911 28.038182 
L 451.221929 28.038182 
L 448.273949 28.038182 
L 445.301462 28.458699 
L 442.434009 28.038182 
L 439.556052 32.949256 
L 436.671093 33.277174 
L 433.814144 31.482093 
L 430.922183 34.250967 
L 428.002212 37.202914 
L 425.064736 35.087036 
L 422.09925 32.067741 
L 419.245802 32.182012 
L 416.388852 30.053162 
L 413.458378 33.740876 
L 410.433373 36.959272 
L 407.520405 28.038182 
L 404.530411 28.038182 
L 401.54742 28.038182 
L 398.609944 28.038182 
L 395.644458 28.038182 
L 392.573938 28.038182 
L 389.48241 28.038182 
L 386.299852 28.038182 
L 383.068278 28.038182 
L 379.819198 28.038182 
L 376.57362 28.038182 
L 373.282526 30.496277 
L 369.977428 28.038182 
L 366.724847 28.038182 
L 363.524783 28.038182 
L 360.457764 28.038182 
L 357.37674 28.038182 
L 354.404252 28.038182 
L 351.435265 28.038182 
L 348.434768 28.038182 
L 345.357245 28.038182 
L 342.290226 28.038182 
L 339.317738 28.038182 
L 336.257721 28.038182 
L 333.21521 28.038182 
L 330.20771 28.038182 
L 327.291241 28.038182 
L 324.297746 28.038182 
L 321.304251 28.038182 
L 318.244234 29.179485 
L 315.086184 28.194924 
L 311.746074 30.154297 
L 308.290426 28.038182 
L 305.464987 28.038182 
L 302.629044 28.038182 
L 299.800104 28.038182 
L 296.967663 28.038182 
L 294.145725 28.038182 
L 291.309782 28.038182 
L 288.452833 28.038182 
L 285.58538 28.038182 
L 282.738934 28.038182 
L 279.881984 28.038182 
L 276.976018 28.038182 
L 273.513368 28.038182 
L 270.551383 28.038182 
L 267.697935 28.038182 
L 264.567895 28.038182 
L 261.077234 28.038182 
L 258.11525 28.038182 
L 255.265303 28.038182 
L 252.42936 28.038182 
L 249.537399 28.038182 
L 246.736468 28.038182 
L 243.925034 28.038182 
L 241.099595 28.038182 
L 238.295163 28.038182 
L 235.480227 28.038182 
L 232.665292 28.038182 
L 229.829349 28.038182 
L 227.007411 28.038182 
L 224.199478 28.038182 
L 221.381041 28.038182 
L 218.566106 28.038182 
L 215.730163 28.038182 
L 212.901223 28.038182 
L 210.044274 28.038182 
L 207.208331 28.038182 
L 204.386393 28.038182 
L 201.539947 28.038182 
L 198.693501 28.038182 
L 195.815545 28.038182 
L 192.990106 28.038182 
L 190.161165 28.038182 
L 187.290211 28.038182 
L 184.447266 28.038182 
L 181.56931 28.038182 
L 178.659843 28.038182 
L 175.70136 28.038182 
L 172.8129 28.038182 
L 169.927941 28.038182 
L 167.028977 28.038182 
L 164.14752 28.038182 
L 161.16803 28.038182 
L 158.10101 28.038182 
L 155.012984 28.038182 
L 151.686878 28.038182 
L 148.08068 28.038182 
L 144.421964 34.049635 
L 140.710731 44.772715 
L 136.680891 60.949306 
L 132.696567 78.446558 
L 128.680732 95.1682 
L 124.710413 112.257055 
L 120.72959 128.802424 
L 116.811788 148.642854 
L 112.848471 155.201234 
L 108.90616 154.293726 
L 104.942843 163.317233 
L 100.913004 174.389182 
L 96.932181 170.777768 
L 93.04939 176.798465 
L 89.114082 183.211695 
L 85.185777 186.329063 
L 81.320492 192.950067 
L 77.64427 196.207213 
z
" clip-path="url(#p38a82a616d)" style="fill: #2ca02c; fill-opacity: 0.2"/>
   </g>
   <g id="FillBetweenPolyCollection_4">
    <path d="M 77.812326 209.439766 
L 77.812326 368.365649 
L 81.530562 358.594633 
L 85.434359 358.740211 
L 89.292642 364.435946 
L 93.178933 356.150091 
L 97.012707 358.946503 
L 100.87099 357.697997 
L 104.736274 360.783446 
L 108.626067 363.646015 
L 112.536867 364.527952 
L 116.346133 353.46135 
L 120.312951 355.182968 
L 124.374301 362.516118 
L 128.089036 353.882882 
L 131.964824 347.543307 
L 135.781092 356.202728 
L 139.793426 352.723263 
L 143.83727 356.911279 
L 147.776079 358.881159 
L 151.592347 365.863266 
L 155.772736 362.727226 
L 159.645023 350.526217 
L 163.597837 357.588827 
L 167.571658 362.560156 
L 171.450947 358.828508 
L 175.326735 361.429345 
L 179.188519 358.420312 
L 183.190349 356.201897 
L 187.027624 363.962734 
L 191.295542 362.845762 
L 195.059293 359.451926 
L 198.942084 366.48617 
L 202.824874 359.124239 
L 206.774187 364.519257 
L 210.825033 352.743299 
L 214.704322 362.090262 
L 218.636129 349.793316 
L 222.630957 365.028813 
L 226.408712 359.322005 
L 230.358025 364.066906 
L 234.349351 360.45241 
L 238.291662 359.535286 
L 242.244475 366.145365 
L 245.99072 369.578649 
L 249.782481 361.551366 
L 253.724791 355.090531 
L 257.639092 359.55249 
L 261.616414 364.624146 
L 265.663759 352.510877 
L 269.725109 359.719764 
L 273.712934 361.8402 
L 277.756778 361.227877 
L 281.415494 363.007546 
L 285.280779 360.238515 
L 289.422655 352.204141 
L 293.382471 358.71646 
L 297.373798 366.47817 
L 301.260089 361.298009 
L 304.988829 364.242919 
L 308.794593 361.136909 
L 312.677384 359.323628 
L 316.710724 369.32632 
L 320.569007 349.87976 
L 324.500813 360.417958 
L 328.502643 357.805432 
L 332.332916 350.44581 
L 336.100168 360.911749 
L 339.968954 351.540336 
L 344.156346 353.597457 
L 348.053141 364.389358 
L 351.977945 357.064802 
L 355.986778 360.336306 
L 360.048128 364.594269 
L 363.983435 368.547977 
L 367.890734 355.658379 
L 371.927576 360.42006 
L 375.974921 360.041334 
L 379.850709 367.52647 
L 383.701989 359.247723 
L 387.619791 363.983775 
L 391.474572 353.121005 
L 395.451894 364.855918 
L 399.303174 365.642021 
L 403.305004 361.535702 
L 407.247314 367.025669 
L 411.158114 354.905285 
L 414.991888 362.450647 
L 418.720627 356.156067 
L 422.582411 368.28141 
L 426.321654 367.110682 
L 430.295474 357.059921 
L 434.143253 359.563603 
L 438.201102 360.144091 
L 442.101398 363.019679 
L 446.047209 365.882443 
L 449.958009 370.390999 
L 453.557205 362.879246 
L 457.429492 358.490696 
L 461.399812 355.495443 
L 465.317614 365.198641 
L 469.077864 356.048694 
L 473.055186 364.943466 
L 477.155048 353.049767 
L 481.198892 361.034042 
L 485.018662 364.771538 
L 488.827928 361.802373 
L 492.651198 362.318294 
L 496.481471 357.345982 
L 500.336252 364.385357 
L 504.114008 356.601119 
L 507.919773 355.452768 
L 511.85158 365.103948 
L 515.730869 354.250525 
L 519.683683 359.36816 
L 523.590981 362.208143 
L 527.603315 359.7893 
L 531.640156 353.480594 
L 535.477432 367.102108 
L 539.26219 369.235629 
L 542.917404 361.225792 
L 546.835206 363.1675 
L 550.703992 363.595654 
L 554.523762 366.418113 
L 558.18948 356.565589 
L 562.030256 358.811587 
L 565.927052 359.749485 
L 569.977898 354.506278 
L 573.822176 359.78353 
L 577.65595 359.616129 
L 581.720801 345.603552 
L 585.642104 347.832064 
L 589.591416 352.106095 
L 593.659769 359.467284 
L 597.409515 361.119343 
L 601.355326 366.276959 
L 604.986033 359.986845 
L 608.679761 363.440233 
L 612.506532 354.472218 
L 616.459346 364.405096 
L 620.32113 372.801818 
L 624.329962 353.40973 
L 628.370305 357.102729 
L 632.302111 353.176927 
L 636.317946 364.336578 
L 640.274261 353.074579 
L 644.06252 362.624887 
L 647.756248 360.843266 
L 651.369448 363.891156 
L 655.129698 358.84535 
L 658.928461 362.29213 
L 662.804249 360.410925 
L 666.75006 362.910903 
L 670.604841 370.64536 
L 670.604841 222.840437 
L 670.604841 222.840437 
L 666.75006 201.855478 
L 662.804249 199.785505 
L 658.928461 195.598361 
L 655.129698 204.872877 
L 651.369448 212.321065 
L 647.756248 201.701029 
L 644.06252 206.501814 
L 640.274261 197.353056 
L 636.317946 208.85696 
L 632.302111 195.992925 
L 628.370305 205.06423 
L 624.329962 201.504005 
L 620.32113 209.573548 
L 616.459346 205.518202 
L 612.506532 199.057954 
L 608.679761 213.40088 
L 604.986033 206.540435 
L 601.355326 208.929034 
L 597.409515 203.772816 
L 593.659769 201.945005 
L 589.591416 201.969116 
L 585.642104 197.396729 
L 581.720801 190.988453 
L 577.65595 201.376899 
L 573.822176 207.288789 
L 569.977898 205.438595 
L 565.927052 200.698502 
L 562.030256 203.942338 
L 558.18948 200.570232 
L 554.523762 202.457031 
L 550.703992 212.197305 
L 546.835206 204.030598 
L 542.917404 205.553045 
L 539.26219 204.544876 
L 535.477432 205.043276 
L 531.640156 196.569706 
L 527.603315 206.486423 
L 523.590981 207.505524 
L 519.683683 198.522331 
L 515.730869 195.464366 
L 511.85158 214.588144 
L 507.919773 209.313612 
L 504.114008 196.132456 
L 500.336252 210.359448 
L 496.481471 207.797735 
L 492.651198 200.980671 
L 488.827928 202.167411 
L 485.018662 203.558566 
L 481.198892 204.361231 
L 477.155048 203.205604 
L 473.055186 204.183235 
L 469.077864 205.112038 
L 465.317614 200.154706 
L 461.399812 195.057971 
L 457.429492 209.755555 
L 453.557205 202.390249 
L 449.958009 210.64273 
L 446.047209 215.402843 
L 442.101398 204.220345 
L 438.201102 204.244955 
L 434.143253 206.502489 
L 430.295474 204.184663 
L 426.321654 208.388794 
L 422.582411 210.530233 
L 418.720627 199.59619 
L 414.991888 197.242669 
L 411.158114 197.450954 
L 407.247314 202.897629 
L 403.305004 201.427855 
L 399.303174 207.341886 
L 395.451894 209.469626 
L 391.474572 204.140594 
L 387.619791 208.203536 
L 383.701989 213.400774 
L 379.850709 197.197985 
L 375.974921 201.957921 
L 371.927576 204.933287 
L 367.890734 197.997571 
L 363.983435 203.220071 
L 360.048128 202.436125 
L 355.986778 200.363237 
L 351.977945 202.712366 
L 348.053141 199.286943 
L 344.156346 209.03069 
L 339.968954 194.191571 
L 336.100168 204.399672 
L 332.332916 197.256626 
L 328.502643 197.443712 
L 324.500813 204.138792 
L 320.569007 192.875389 
L 316.710724 205.502338 
L 312.677384 191.271713 
L 308.794593 190.883921 
L 304.988829 206.057715 
L 301.260089 202.29444 
L 297.373798 215.477935 
L 293.382471 200.473742 
L 289.422655 200.571359 
L 285.280779 207.630402 
L 281.415494 207.963905 
L 277.756778 197.333433 
L 273.712934 202.674624 
L 269.725109 204.25002 
L 265.663759 197.623276 
L 261.616414 200.058383 
L 257.639092 202.782173 
L 253.724791 202.506477 
L 249.782481 202.753827 
L 245.99072 206.717425 
L 242.244475 201.849331 
L 238.291662 197.726313 
L 234.349351 190.897602 
L 230.358025 199.651321 
L 226.408712 198.442708 
L 222.630957 201.037279 
L 218.636129 203.736855 
L 214.704322 213.912329 
L 210.825033 201.289986 
L 206.774187 203.726994 
L 202.824874 205.22288 
L 198.942084 204.191799 
L 195.059293 199.528645 
L 191.295542 214.456539 
L 187.027624 205.247819 
L 183.190349 204.623425 
L 179.188519 207.64578 
L 175.326735 200.989172 
L 171.450947 199.64895 
L 167.571658 206.776175 
L 163.597837 200.720926 
L 159.645023 208.202797 
L 155.772736 203.590422 
L 151.592347 201.460611 
L 147.776079 209.113536 
L 143.83727 202.153145 
L 139.793426 190.073813 
L 135.781092 208.563652 
L 131.964824 197.056593 
L 128.089036 193.190662 
L 124.374301 201.705223 
L 120.312951 196.250895 
L 116.346133 197.217843 
L 112.536867 208.120546 
L 108.626067 199.485246 
L 104.736274 193.585248 
L 100.87099 204.720519 
L 97.012707 215.043632 
L 93.178933 198.428234 
L 89.292642 204.858459 
L 85.434359 196.467007 
L 81.530562 204.410849 
L 77.812326 209.439766 
z
" clip-path="url(#p38a82a616d)" style="fill: #d62728; fill-opacity: 0.2"/>
   </g>
   <g id="matplotlib.axis_1">
    <g id="xtick_1">
     <g id="line2d_1">
      <path d="M 75.809661 390.04 
L 75.809661 10.8 
" clip-path="url(#p38a82a616d)" style="fill: none; stroke: #b0b0b0; stroke-width: 0.8; stroke-linecap: square"/>
     </g>
     <g id="line2d_2">
      <defs>
       <path id="m1c740c4980" d="M 0 0 
L 0 3.5 
" style="stroke: #000000; stroke-width: 0.8"/>
      </defs>
      <g>
       <use xlink:href="#m1c740c4980" x="75.809661" y="390.04" style="stroke: #000000; stroke-width: 0.8"/>
      </g>
     </g>
     <g id="text_1">
      <!-- 0 -->
      <g transform="translate(72.628411 404.638438) scale(0.1 -0.1)">
       <defs>
        <path id="DejaVuSans-30" d="M 2034 4250 
Q 1547 4250 1301 3770 
Q 1056 3291 1056 2328 
Q 1056 1369 1301 889 
Q 1547 409 2034 409 
Q 2525 409 2770 889 
Q 3016 1369 3016 2328 
Q 3016 3291 2770 3770 
Q 2525 4250 2034 4250 
z
M 2034 4750 
Q 2819 4750 3233 4129 
Q 3647 3509 3647 2328 
Q 3647 1150 3233 529 
Q 2819 -91 2034 -91 
Q 1250 -91 836 529 
Q 422 1150 422 2328 
Q 422 3509 836 4129 
Q 1250 4750 2034 4750 
z
" transform="scale(0.015625)"/>
       </defs>
       <use xlink:href="#DejaVuSans-30"/>
      </g>
     </g>
    </g>
    <g id="xtick_2">
     <g id="line2d_3">
      <path d="M 163.338751 390.04 
L 163.338751 10.8 
" clip-path="url(#p38a82a616d)" style="fill: none; stroke: #b0b0b0; stroke-width: 0.8; stroke-linecap: square"/>
     </g>
     <g id="line2d_4">
      <g>
       <use xlink:href="#m1c740c4980" x="163.338751" y="390.04" style="stroke: #000000; stroke-width: 0.8"/>
      </g>
     </g>
     <g id="text_2">
      <!-- 25000 -->
      <g transform="translate(147.432501 404.638438) scale(0.1 -0.1)">
       <defs>
        <path id="DejaVuSans-32" d="M 1228 531 
L 3431 531 
L 3431 0 
L 469 0 
L 469 531 
Q 828 903 1448 1529 
Q 2069 2156 2228 2338 
Q 2531 2678 2651 2914 
Q 2772 3150 2772 3378 
Q 2772 3750 2511 3984 
Q 2250 4219 1831 4219 
Q 1534 4219 1204 4116 
Q 875 4013 500 3803 
L 500 4441 
Q 881 4594 1212 4672 
Q 1544 4750 1819 4750 
Q 2544 4750 2975 4387 
Q 3406 4025 3406 3419 
Q 3406 3131 3298 2873 
Q 3191 2616 2906 2266 
Q 2828 2175 2409 1742 
Q 1991 1309 1228 531 
z
" transform="scale(0.015625)"/>
        <path id="DejaVuSans-35" d="M 691 4666 
L 3169 4666 
L 3169 4134 
L 1269 4134 
L 1269 2991 
Q 1406 3038 1543 3061 
Q 1681 3084 1819 3084 
Q 2600 3084 3056 2656 
Q 3513 2228 3513 1497 
Q 3513 744 3044 326 
Q 2575 -91 1722 -91 
Q 1428 -91 1123 -41 
Q 819 9 494 109 
L 494 744 
Q 775 591 1075 516 
Q 1375 441 1709 441 
Q 2250 441 2565 725 
Q 2881 1009 2881 1497 
Q 2881 1984 2565 2268 
Q 2250 2553 1709 2553 
Q 1456 2553 1204 2497 
Q 953 2441 691 2322 
L 691 4666 
z
" transform="scale(0.015625)"/>
       </defs>
       <use xlink:href="#DejaVuSans-32"/>
       <use xlink:href="#DejaVuSans-35" transform="translate(63.623047 0)"/>
       <use xlink:href="#DejaVuSans-30" transform="translate(127.246094 0)"/>
       <use xlink:href="#DejaVuSans-30" transform="translate(190.869141 0)"/>
       <use xlink:href="#DejaVuSans-30" transform="translate(254.492188 0)"/>
      </g>
     </g>
    </g>
    <g id="xtick_3">
     <g id="line2d_5">
      <path d="M 250.867841 390.04 
L 250.867841 10.8 
" clip-path="url(#p38a82a616d)" style="fill: none; stroke: #b0b0b0; stroke-width: 0.8; stroke-linecap: square"/>
     </g>
     <g id="line2d_6">
      <g>
       <use xlink:href="#m1c740c4980" x="250.867841" y="390.04" style="stroke: #000000; stroke-width: 0.8"/>
      </g>
     </g>
     <g id="text_3">
      <!-- 50000 -->
      <g transform="translate(234.961591 404.638438) scale(0.1 -0.1)">
       <use xlink:href="#DejaVuSans-35"/>
       <use xlink:href="#DejaVuSans-30" transform="translate(63.623047 0)"/>
       <use xlink:href="#DejaVuSans-30" transform="translate(127.246094 0)"/>
       <use xlink:href="#DejaVuSans-30" transform="translate(190.869141 0)"/>
       <use xlink:href="#DejaVuSans-30" transform="translate(254.492188 0)"/>
      </g>
     </g>
    </g>
    <g id="xtick_4">
     <g id="line2d_7">
      <path d="M 338.396932 390.04 
L 338.396932 10.8 
" clip-path="url(#p38a82a616d)" style="fill: none; stroke: #b0b0b0; stroke-width: 0.8; stroke-linecap: square"/>
     </g>
     <g id="line2d_8">
      <g>
       <use xlink:href="#m1c740c4980" x="338.396932" y="390.04" style="stroke: #000000; stroke-width: 0.8"/>
      </g>
     </g>
     <g id="text_4">
      <!-- 75000 -->
      <g transform="translate(322.490682 404.638438) scale(0.1 -0.1)">
       <defs>
        <path id="DejaVuSans-37" d="M 525 4666 
L 3525 4666 
L 3525 4397 
L 1831 0 
L 1172 0 
L 2766 4134 
L 525 4134 
L 525 4666 
z
" transform="scale(0.015625)"/>
       </defs>
       <use xlink:href="#DejaVuSans-37"/>
       <use xlink:href="#DejaVuSans-35" transform="translate(63.623047 0)"/>
       <use xlink:href="#DejaVuSans-30" transform="translate(127.246094 0)"/>
       <use xlink:href="#DejaVuSans-30" transform="translate(190.869141 0)"/>
       <use xlink:href="#DejaVuSans-30" transform="translate(254.492188 0)"/>
      </g>
     </g>
    </g>
    <g id="xtick_5">
     <g id="line2d_9">
      <path d="M 425.926022 390.04 
L 425.926022 10.8 
" clip-path="url(#p38a82a616d)" style="fill: none; stroke: #b0b0b0; stroke-width: 0.8; stroke-linecap: square"/>
     </g>
     <g id="line2d_10">
      <g>
       <use xlink:href="#m1c740c4980" x="425.926022" y="390.04" style="stroke: #000000; stroke-width: 0.8"/>
      </g>
     </g>
     <g id="text_5">
      <!-- 100000 -->
      <g transform="translate(406.838522 404.638438) scale(0.1 -0.1)">
       <defs>
        <path id="DejaVuSans-31" d="M 794 531 
L 1825 531 
L 1825 4091 
L 703 3866 
L 703 4441 
L 1819 4666 
L 2450 4666 
L 2450 531 
L 3481 531 
L 3481 0 
L 794 0 
L 794 531 
z
" transform="scale(0.015625)"/>
       </defs>
       <use xlink:href="#DejaVuSans-31"/>
       <use xlink:href="#DejaVuSans-30" transform="translate(63.623047 0)"/>
       <use xlink:href="#DejaVuSans-30" transform="translate(127.246094 0)"/>
       <use xlink:href="#DejaVuSans-30" transform="translate(190.869141 0)"/>
       <use xlink:href="#DejaVuSans-30" transform="translate(254.492188 0)"/>
       <use xlink:href="#DejaVuSans-30" transform="translate(318.115234 0)"/>
      </g>
     </g>
    </g>
    <g id="xtick_6">
     <g id="line2d_11">
      <path d="M 513.455113 390.04 
L 513.455113 10.8 
" clip-path="url(#p38a82a616d)" style="fill: none; stroke: #b0b0b0; stroke-width: 0.8; stroke-linecap: square"/>
     </g>
     <g id="line2d_12">
      <g>
       <use xlink:href="#m1c740c4980" x="513.455113" y="390.04" style="stroke: #000000; stroke-width: 0.8"/>
      </g>
     </g>
     <g id="text_6">
      <!-- 125000 -->
      <g transform="translate(494.367613 404.638438) scale(0.1 -0.1)">
       <use xlink:href="#DejaVuSans-31"/>
       <use xlink:href="#DejaVuSans-32" transform="translate(63.623047 0)"/>
       <use xlink:href="#DejaVuSans-35" transform="translate(127.246094 0)"/>
       <use xlink:href="#DejaVuSans-30" transform="translate(190.869141 0)"/>
       <use xlink:href="#DejaVuSans-30" transform="translate(254.492188 0)"/>
       <use xlink:href="#DejaVuSans-30" transform="translate(318.115234 0)"/>
      </g>
     </g>
    </g>
    <g id="xtick_7">
     <g id="line2d_13">
      <path d="M 600.984203 390.04 
L 600.984203 10.8 
" clip-path="url(#p38a82a616d)" style="fill: none; stroke: #b0b0b0; stroke-width: 0.8; stroke-linecap: square"/>
     </g>
     <g id="line2d_14">
      <g>
       <use xlink:href="#m1c740c4980" x="600.984203" y="390.04" style="stroke: #000000; stroke-width: 0.8"/>
      </g>
     </g>
     <g id="text_7">
      <!-- 150000 -->
      <g transform="translate(581.896703 404.638438) scale(0.1 -0.1)">
       <use xlink:href="#DejaVuSans-31"/>
       <use xlink:href="#DejaVuSans-35" transform="translate(63.623047 0)"/>
       <use xlink:href="#DejaVuSans-30" transform="translate(127.246094 0)"/>
       <use xlink:href="#DejaVuSans-30" transform="translate(190.869141 0)"/>
       <use xlink:href="#DejaVuSans-30" transform="translate(254.492188 0)"/>
       <use xlink:href="#DejaVuSans-30" transform="translate(318.115234 0)"/>
      </g>
     </g>
    </g>
    <g id="xtick_8">
     <g id="line2d_15">
      <path d="M 688.513293 390.04 
L 688.513293 10.8 
" clip-path="url(#p38a82a616d)" style="fill: none; stroke: #b0b0b0; stroke-width: 0.8; stroke-linecap: square"/>
     </g>
     <g id="line2d_16">
      <g>
       <use xlink:href="#m1c740c4980" x="688.513293" y="390.04" style="stroke: #000000; stroke-width: 0.8"/>
      </g>
     </g>
     <g id="text_8">
      <!-- 175000 -->
      <g transform="translate(669.425793 404.638438) scale(0.1 -0.1)">
       <use xlink:href="#DejaVuSans-31"/>
       <use xlink:href="#DejaVuSans-37" transform="translate(63.623047 0)"/>
       <use xlink:href="#DejaVuSans-35" transform="translate(127.246094 0)"/>
       <use xlink:href="#DejaVuSans-30" transform="translate(190.869141 0)"/>
       <use xlink:href="#DejaVuSans-30" transform="translate(254.492188 0)"/>
       <use xlink:href="#DejaVuSans-30" transform="translate(318.115234 0)"/>
      </g>
     </g>
    </g>
    <g id="text_9">
     <!-- Steps -->
     <g transform="translate(360.124209 418.316562) scale(0.1 -0.1)">
      <defs>
       <path id="DejaVuSans-53" d="M 3425 4513 
L 3425 3897 
Q 3066 4069 2747 4153 
Q 2428 4238 2131 4238 
Q 1616 4238 1336 4038 
Q 1056 3838 1056 3469 
Q 1056 3159 1242 3001 
Q 1428 2844 1947 2747 
L 2328 2669 
Q 3034 2534 3370 2195 
Q 3706 1856 3706 1288 
Q 3706 609 3251 259 
Q 2797 -91 1919 -91 
Q 1588 -91 1214 -16 
Q 841 59 441 206 
L 441 856 
Q 825 641 1194 531 
Q 1563 422 1919 422 
Q 2459 422 2753 634 
Q 3047 847 3047 1241 
Q 3047 1584 2836 1778 
Q 2625 1972 2144 2069 
L 1759 2144 
Q 1053 2284 737 2584 
Q 422 2884 422 3419 
Q 422 4038 858 4394 
Q 1294 4750 2059 4750 
Q 2388 4750 2728 4690 
Q 3069 4631 3425 4513 
z
" transform="scale(0.015625)"/>
       <path id="DejaVuSans-74" d="M 1172 4494 
L 1172 3500 
L 2356 3500 
L 2356 3053 
L 1172 3053 
L 1172 1153 
Q 1172 725 1289 603 
Q 1406 481 1766 481 
L 2356 481 
L 2356 0 
L 1766 0 
Q 1100 0 847 248 
Q 594 497 594 1153 
L 594 3053 
L 172 3053 
L 172 3500 
L 594 3500 
L 594 4494 
L 1172 4494 
z
" transform="scale(0.015625)"/>
       <path id="DejaVuSans-65" d="M 3597 1894 
L 3597 1613 
L 953 1613 
Q 991 1019 1311 708 
Q 1631 397 2203 397 
Q 2534 397 2845 478 
Q 3156 559 3463 722 
L 3463 178 
Q 3153 47 2828 -22 
Q 2503 -91 2169 -91 
Q 1331 -91 842 396 
Q 353 884 353 1716 
Q 353 2575 817 3079 
Q 1281 3584 2069 3584 
Q 2775 3584 3186 3129 
Q 3597 2675 3597 1894 
z
M 3022 2063 
Q 3016 2534 2758 2815 
Q 2500 3097 2075 3097 
Q 1594 3097 1305 2825 
Q 1016 2553 972 2059 
L 3022 2063 
z
" transform="scale(0.015625)"/>
       <path id="DejaVuSans-70" d="M 1159 525 
L 1159 -1331 
L 581 -1331 
L 581 3500 
L 1159 3500 
L 1159 2969 
Q 1341 3281 1617 3432 
Q 1894 3584 2278 3584 
Q 2916 3584 3314 3078 
Q 3713 2572 3713 1747 
Q 3713 922 3314 415 
Q 2916 -91 2278 -91 
Q 1894 -91 1617 61 
Q 1341 213 1159 525 
z
M 3116 1747 
Q 3116 2381 2855 2742 
Q 2594 3103 2138 3103 
Q 1681 3103 1420 2742 
Q 1159 2381 1159 1747 
Q 1159 1113 1420 752 
Q 1681 391 2138 391 
Q 2594 391 2855 752 
Q 3116 1113 3116 1747 
z
" transform="scale(0.015625)"/>
       <path id="DejaVuSans-73" d="M 2834 3397 
L 2834 2853 
Q 2591 2978 2328 3040 
Q 2066 3103 1784 3103 
Q 1356 3103 1142 2972 
Q 928 2841 928 2578 
Q 928 2378 1081 2264 
Q 1234 2150 1697 2047 
L 1894 2003 
Q 2506 1872 2764 1633 
Q 3022 1394 3022 966 
Q 3022 478 2636 193 
Q 2250 -91 1575 -91 
Q 1294 -91 989 -36 
Q 684 19 347 128 
L 347 722 
Q 666 556 975 473 
Q 1284 391 1588 391 
Q 1994 391 2212 530 
Q 2431 669 2431 922 
Q 2431 1156 2273 1281 
Q 2116 1406 1581 1522 
L 1381 1569 
Q 847 1681 609 1914 
Q 372 2147 372 2553 
Q 372 3047 722 3315 
Q 1072 3584 1716 3584 
Q 2034 3584 2315 3537 
Q 2597 3491 2834 3397 
z
" transform="scale(0.015625)"/>
      </defs>
      <use xlink:href="#DejaVuSans-53"/>
      <use xlink:href="#DejaVuSans-74" transform="translate(63.476562 0)"/>
      <use xlink:href="#DejaVuSans-65" transform="translate(102.685547 0)"/>
      <use xlink:href="#DejaVuSans-70" transform="translate(164.208984 0)"/>
      <use xlink:href="#DejaVuSans-73" transform="translate(227.685547 0)"/>
     </g>
    </g>
   </g>
   <g id="matplotlib.axis_2">
    <g id="ytick_1">
     <g id="line2d_17">
      <path d="M 47.72 367.640034 
L 700.508105 367.640034 
" clip-path="url(#p38a82a616d)" style="fill: none; stroke: #b0b0b0; stroke-width: 0.8; stroke-linecap: square"/>
     </g>
     <g id="line2d_18">
      <defs>
       <path id="mf2cbf8fff8" d="M 0 0 
L -3.5 0 
" style="stroke: #000000; stroke-width: 0.8"/>
      </defs>
      <g>
       <use xlink:href="#mf2cbf8fff8" x="47.72" y="367.640034" style="stroke: #000000; stroke-width: 0.8"/>
      </g>
     </g>
     <g id="text_10">
      <!-- 0.4 -->
      <g transform="translate(24.816875 371.439252) scale(0.1 -0.1)">
       <defs>
        <path id="DejaVuSans-2e" d="M 684 794 
L 1344 794 
L 1344 0 
L 684 0 
L 684 794 
z
" transform="scale(0.015625)"/>
        <path id="DejaVuSans-34" d="M 2419 4116 
L 825 1625 
L 2419 1625 
L 2419 4116 
z
M 2253 4666 
L 3047 4666 
L 3047 1625 
L 3713 1625 
L 3713 1100 
L 3047 1100 
L 3047 0 
L 2419 0 
L 2419 1100 
L 313 1100 
L 313 1709 
L 2253 4666 
z
" transform="scale(0.015625)"/>
       </defs>
       <use xlink:href="#DejaVuSans-30"/>
       <use xlink:href="#DejaVuSans-2e" transform="translate(63.623047 0)"/>
       <use xlink:href="#DejaVuSans-34" transform="translate(95.410156 0)"/>
      </g>
     </g>
    </g>
    <g id="ytick_2">
     <g id="line2d_19">
      <path d="M 47.72 311.039725 
L 700.508105 311.039725 
" clip-path="url(#p38a82a616d)" style="fill: none; stroke: #b0b0b0; stroke-width: 0.8; stroke-linecap: square"/>
     </g>
     <g id="line2d_20">
      <g>
       <use xlink:href="#mf2cbf8fff8" x="47.72" y="311.039725" style="stroke: #000000; stroke-width: 0.8"/>
      </g>
     </g>
     <g id="text_11">
      <!-- 0.5 -->
      <g transform="translate(24.816875 314.838944) scale(0.1 -0.1)">
       <use xlink:href="#DejaVuSans-30"/>
       <use xlink:href="#DejaVuSans-2e" transform="translate(63.623047 0)"/>
       <use xlink:href="#DejaVuSans-35" transform="translate(95.410156 0)"/>
      </g>
     </g>
    </g>
    <g id="ytick_3">
     <g id="line2d_21">
      <path d="M 47.72 254.439416 
L 700.508105 254.439416 
" clip-path="url(#p38a82a616d)" style="fill: none; stroke: #b0b0b0; stroke-width: 0.8; stroke-linecap: square"/>
     </g>
     <g id="line2d_22">
      <g>
       <use xlink:href="#mf2cbf8fff8" x="47.72" y="254.439416" style="stroke: #000000; stroke-width: 0.8"/>
      </g>
     </g>
     <g id="text_12">
      <!-- 0.6 -->
      <g transform="translate(24.816875 258.238635) scale(0.1 -0.1)">
       <defs>
        <path id="DejaVuSans-36" d="M 2113 2584 
Q 1688 2584 1439 2293 
Q 1191 2003 1191 1497 
Q 1191 994 1439 701 
Q 1688 409 2113 409 
Q 2538 409 2786 701 
Q 3034 994 3034 1497 
Q 3034 2003 2786 2293 
Q 2538 2584 2113 2584 
z
M 3366 4563 
L 3366 3988 
Q 3128 4100 2886 4159 
Q 2644 4219 2406 4219 
Q 1781 4219 1451 3797 
Q 1122 3375 1075 2522 
Q 1259 2794 1537 2939 
Q 1816 3084 2150 3084 
Q 2853 3084 3261 2657 
Q 3669 2231 3669 1497 
Q 3669 778 3244 343 
Q 2819 -91 2113 -91 
Q 1303 -91 875 529 
Q 447 1150 447 2328 
Q 447 3434 972 4092 
Q 1497 4750 2381 4750 
Q 2619 4750 2861 4703 
Q 3103 4656 3366 4563 
z
" transform="scale(0.015625)"/>
       </defs>
       <use xlink:href="#DejaVuSans-30"/>
       <use xlink:href="#DejaVuSans-2e" transform="translate(63.623047 0)"/>
       <use xlink:href="#DejaVuSans-36" transform="translate(95.410156 0)"/>
      </g>
     </g>
    </g>
    <g id="ytick_4">
     <g id="line2d_23">
      <path d="M 47.72 197.839108 
L 700.508105 197.839108 
" clip-path="url(#p38a82a616d)" style="fill: none; stroke: #b0b0b0; stroke-width: 0.8; stroke-linecap: square"/>
     </g>
     <g id="line2d_24">
      <g>
       <use xlink:href="#mf2cbf8fff8" x="47.72" y="197.839108" style="stroke: #000000; stroke-width: 0.8"/>
      </g>
     </g>
     <g id="text_13">
      <!-- 0.7 -->
      <g transform="translate(24.816875 201.638327) scale(0.1 -0.1)">
       <use xlink:href="#DejaVuSans-30"/>
       <use xlink:href="#DejaVuSans-2e" transform="translate(63.623047 0)"/>
       <use xlink:href="#DejaVuSans-37" transform="translate(95.410156 0)"/>
      </g>
     </g>
    </g>
    <g id="ytick_5">
     <g id="line2d_25">
      <path d="M 47.72 141.238799 
L 700.508105 141.238799 
" clip-path="url(#p38a82a616d)" style="fill: none; stroke: #b0b0b0; stroke-width: 0.8; stroke-linecap: square"/>
     </g>
     <g id="line2d_26">
      <g>
       <use xlink:href="#mf2cbf8fff8" x="47.72" y="141.238799" style="stroke: #000000; stroke-width: 0.8"/>
      </g>
     </g>
     <g id="text_14">
      <!-- 0.8 -->
      <g transform="translate(24.816875 145.038018) scale(0.1 -0.1)">
       <defs>
        <path id="DejaVuSans-38" d="M 2034 2216 
Q 1584 2216 1326 1975 
Q 1069 1734 1069 1313 
Q 1069 891 1326 650 
Q 1584 409 2034 409 
Q 2484 409 2743 651 
Q 3003 894 3003 1313 
Q 3003 1734 2745 1975 
Q 2488 2216 2034 2216 
z
M 1403 2484 
Q 997 2584 770 2862 
Q 544 3141 544 3541 
Q 544 4100 942 4425 
Q 1341 4750 2034 4750 
Q 2731 4750 3128 4425 
Q 3525 4100 3525 3541 
Q 3525 3141 3298 2862 
Q 3072 2584 2669 2484 
Q 3125 2378 3379 2068 
Q 3634 1759 3634 1313 
Q 3634 634 3220 271 
Q 2806 -91 2034 -91 
Q 1263 -91 848 271 
Q 434 634 434 1313 
Q 434 1759 690 2068 
Q 947 2378 1403 2484 
z
M 1172 3481 
Q 1172 3119 1398 2916 
Q 1625 2713 2034 2713 
Q 2441 2713 2670 2916 
Q 2900 3119 2900 3481 
Q 2900 3844 2670 4047 
Q 2441 4250 2034 4250 
Q 1625 4250 1398 4047 
Q 1172 3844 1172 3481 
z
" transform="scale(0.015625)"/>
       </defs>
       <use xlink:href="#DejaVuSans-30"/>
       <use xlink:href="#DejaVuSans-2e" transform="translate(63.623047 0)"/>
       <use xlink:href="#DejaVuSans-38" transform="translate(95.410156 0)"/>
      </g>
     </g>
    </g>
    <g id="ytick_6">
     <g id="line2d_27">
      <path d="M 47.72 84.63849 
L 700.508105 84.63849 
" clip-path="url(#p38a82a616d)" style="fill: none; stroke: #b0b0b0; stroke-width: 0.8; stroke-linecap: square"/>
     </g>
     <g id="line2d_28">
      <g>
       <use xlink:href="#mf2cbf8fff8" x="47.72" y="84.63849" style="stroke: #000000; stroke-width: 0.8"/>
      </g>
     </g>
     <g id="text_15">
      <!-- 0.9 -->
      <g transform="translate(24.816875 88.437709) scale(0.1 -0.1)">
       <defs>
        <path id="DejaVuSans-39" d="M 703 97 
L 703 672 
Q 941 559 1184 500 
Q 1428 441 1663 441 
Q 2288 441 2617 861 
Q 2947 1281 2994 2138 
Q 2813 1869 2534 1725 
Q 2256 1581 1919 1581 
Q 1219 1581 811 2004 
Q 403 2428 403 3163 
Q 403 3881 828 4315 
Q 1253 4750 1959 4750 
Q 2769 4750 3195 4129 
Q 3622 3509 3622 2328 
Q 3622 1225 3098 567 
Q 2575 -91 1691 -91 
Q 1453 -91 1209 -44 
Q 966 3 703 97 
z
M 1959 2075 
Q 2384 2075 2632 2365 
Q 2881 2656 2881 3163 
Q 2881 3666 2632 3958 
Q 2384 4250 1959 4250 
Q 1534 4250 1286 3958 
Q 1038 3666 1038 3163 
Q 1038 2656 1286 2365 
Q 1534 2075 1959 2075 
z
" transform="scale(0.015625)"/>
       </defs>
       <use xlink:href="#DejaVuSans-30"/>
       <use xlink:href="#DejaVuSans-2e" transform="translate(63.623047 0)"/>
       <use xlink:href="#DejaVuSans-39" transform="translate(95.410156 0)"/>
      </g>
     </g>
    </g>
    <g id="ytick_7">
     <g id="line2d_29">
      <path d="M 47.72 28.038182 
L 700.508105 28.038182 
" clip-path="url(#p38a82a616d)" style="fill: none; stroke: #b0b0b0; stroke-width: 0.8; stroke-linecap: square"/>
     </g>
     <g id="line2d_30">
      <g>
       <use xlink:href="#mf2cbf8fff8" x="47.72" y="28.038182" style="stroke: #000000; stroke-width: 0.8"/>
      </g>
     </g>
     <g id="text_16">
      <!-- 1.0 -->
      <g transform="translate(24.816875 31.837401) scale(0.1 -0.1)">
       <use xlink:href="#DejaVuSans-31"/>
       <use xlink:href="#DejaVuSans-2e" transform="translate(63.623047 0)"/>
       <use xlink:href="#DejaVuSans-30" transform="translate(95.410156 0)"/>
      </g>
     </g>
    </g>
    <g id="text_17">
     <!-- Accuracy -->
     <g transform="translate(18.737188 223.248125) rotate(-90) scale(0.1 -0.1)">
      <defs>
       <path id="DejaVuSans-41" d="M 2188 4044 
L 1331 1722 
L 3047 1722 
L 2188 4044 
z
M 1831 4666 
L 2547 4666 
L 4325 0 
L 3669 0 
L 3244 1197 
L 1141 1197 
L 716 0 
L 50 0 
L 1831 4666 
z
" transform="scale(0.015625)"/>
       <path id="DejaVuSans-63" d="M 3122 3366 
L 3122 2828 
Q 2878 2963 2633 3030 
Q 2388 3097 2138 3097 
Q 1578 3097 1268 2742 
Q 959 2388 959 1747 
Q 959 1106 1268 751 
Q 1578 397 2138 397 
Q 2388 397 2633 464 
Q 2878 531 3122 666 
L 3122 134 
Q 2881 22 2623 -34 
Q 2366 -91 2075 -91 
Q 1284 -91 818 406 
Q 353 903 353 1747 
Q 353 2603 823 3093 
Q 1294 3584 2113 3584 
Q 2378 3584 2631 3529 
Q 2884 3475 3122 3366 
z
" transform="scale(0.015625)"/>
       <path id="DejaVuSans-75" d="M 544 1381 
L 544 3500 
L 1119 3500 
L 1119 1403 
Q 1119 906 1312 657 
Q 1506 409 1894 409 
Q 2359 409 2629 706 
Q 2900 1003 2900 1516 
L 2900 3500 
L 3475 3500 
L 3475 0 
L 2900 0 
L 2900 538 
Q 2691 219 2414 64 
Q 2138 -91 1772 -91 
Q 1169 -91 856 284 
Q 544 659 544 1381 
z
M 1991 3584 
L 1991 3584 
z
" transform="scale(0.015625)"/>
       <path id="DejaVuSans-72" d="M 2631 2963 
Q 2534 3019 2420 3045 
Q 2306 3072 2169 3072 
Q 1681 3072 1420 2755 
Q 1159 2438 1159 1844 
L 1159 0 
L 581 0 
L 581 3500 
L 1159 3500 
L 1159 2956 
Q 1341 3275 1631 3429 
Q 1922 3584 2338 3584 
Q 2397 3584 2469 3576 
Q 2541 3569 2628 3553 
L 2631 2963 
z
" transform="scale(0.015625)"/>
       <path id="DejaVuSans-61" d="M 2194 1759 
Q 1497 1759 1228 1600 
Q 959 1441 959 1056 
Q 959 750 1161 570 
Q 1363 391 1709 391 
Q 2188 391 2477 730 
Q 2766 1069 2766 1631 
L 2766 1759 
L 2194 1759 
z
M 3341 1997 
L 3341 0 
L 2766 0 
L 2766 531 
Q 2569 213 2275 61 
Q 1981 -91 1556 -91 
Q 1019 -91 701 211 
Q 384 513 384 1019 
Q 384 1609 779 1909 
Q 1175 2209 1959 2209 
L 2766 2209 
L 2766 2266 
Q 2766 2663 2505 2880 
Q 2244 3097 1772 3097 
Q 1472 3097 1187 3025 
Q 903 2953 641 2809 
L 641 3341 
Q 956 3463 1253 3523 
Q 1550 3584 1831 3584 
Q 2591 3584 2966 3190 
Q 3341 2797 3341 1997 
z
" transform="scale(0.015625)"/>
       <path id="DejaVuSans-79" d="M 2059 -325 
Q 1816 -950 1584 -1140 
Q 1353 -1331 966 -1331 
L 506 -1331 
L 506 -850 
L 844 -850 
Q 1081 -850 1212 -737 
Q 1344 -625 1503 -206 
L 1606 56 
L 191 3500 
L 800 3500 
L 1894 763 
L 2988 3500 
L 3597 3500 
L 2059 -325 
z
" transform="scale(0.015625)"/>
      </defs>
      <use xlink:href="#DejaVuSans-41"/>
      <use xlink:href="#DejaVuSans-63" transform="translate(66.658203 0)"/>
      <use xlink:href="#DejaVuSans-63" transform="translate(121.638672 0)"/>
      <use xlink:href="#DejaVuSans-75" transform="translate(176.619141 0)"/>
      <use xlink:href="#DejaVuSans-72" transform="translate(239.998047 0)"/>
      <use xlink:href="#DejaVuSans-61" transform="translate(281.111328 0)"/>
      <use xlink:href="#DejaVuSans-63" transform="translate(342.390625 0)"/>
      <use xlink:href="#DejaVuSans-79" transform="translate(397.371094 0)"/>
     </g>
    </g>
   </g>
   <g id="line2d_31">
    <path d="M 77.392187 289.238117 
L 80.71129 285.632467 
L 83.935861 272.949805 
L 87.237459 269.595713 
L 90.658096 268.987784 
L 93.910677 261.94419 
L 97.194768 260.225218 
L 100.664421 246.871739 
L 104.179589 225.699031 
L 107.796291 223.036721 
L 111.458509 202.828315 
L 115.10322 168.847168 
L 118.639395 156.017765 
L 122.147561 135.977063 
L 125.550692 111.911451 
L 131.485164 77.951267 
L 134.447149 58.204049 
L 137.321604 47.911178 
L 140.206563 46.464726 
L 143.088021 41.24492 
L 145.927464 34.201326 
L 148.766908 36.06704 
L 151.595848 32.880653 
L 154.438793 36.06704 
L 157.278237 34.662514 
L 160.110678 31.70672 
L 162.925614 34.662514 
L 165.737048 31.014939 
L 168.565988 32.859689 
L 174.178354 33.530508 
L 176.982786 31.16168 
L 179.801222 31.832499 
L 182.609156 31.056865 
L 185.424091 31.392274 
L 188.253031 30.302194 
L 191.060965 30.323157 
L 193.879401 29.484634 
L 196.687334 30.323157 
L 199.491766 29.379819 
L 202.317206 29.778117 
L 205.125139 32.52428 
L 207.943575 30.721456 
L 210.758511 30.427973 
L 213.573447 29.463671 
L 216.391883 29.233077 
L 219.203318 31.559979 
L 222.011251 28.457443 
L 224.815683 28.792853 
L 227.644623 29.25404 
L 230.459559 31.266496 
L 233.263991 29.421745 
L 236.068423 30.805308 
L 238.876356 28.478406 
L 241.68779 28.834779 
L 244.499225 29.379819 
L 247.300156 29.52656 
L 250.118592 32.021166 
L 252.94053 31.182643 
L 255.671438 62.711111 
L 258.381338 40.888548 
L 261.164764 33.719176 
L 263.976198 55.332108 
L 266.53905 51.11853 
L 269.346983 31.4342 
L 272.154916 42.376926 
L 274.756281 72.731462 
L 277.483687 42.230185 
L 280.288119 33.320877 
L 283.110057 38.938982 
L 285.938997 35.689705 
L 288.757434 35.815483 
L 291.586374 47.324213 
L 294.415314 59.482797 
L 297.23025 49.75593 
L 300.097703 33.320877 
L 303.714405 36.025114 
L 306.980991 32.503317 
L 309.869451 31.329385 
L 312.736904 30.784345 
L 315.681382 31.580942 
L 318.618858 32.209834 
L 321.500316 30.260268 
L 324.483308 39.442095 
L 327.490807 32.587169 
L 330.452792 32.000203 
L 333.330748 33.551471 
L 336.187698 29.861969 
L 339.055151 33.090283 
L 341.905098 30.993976 
L 344.755045 28.562259 
L 347.601491 31.664794 
L 350.423429 28.604185 
L 353.252369 29.086336 
L 356.091813 33.509545 
L 358.931256 76.903112 
L 361.746192 55.374033 
L 364.564629 38.666461 
L 367.383065 28.855742 
L 370.190999 28.918631 
L 373.131976 37.597345 
L 376.097462 34.725403 
L 378.957912 30.952049 
L 381.807859 29.882933 
L 384.643802 30.721456 
L 387.448234 31.287459 
L 390.298181 30.847234 
L 393.127121 29.841006 
L 395.949059 28.352628 
L 398.746489 31.937314 
L 401.543919 30.784345 
L 404.379861 28.667074 
L 407.194797 31.413237 
L 410.044744 31.916351 
L 412.89119 30.113526 
L 415.741137 30.34412 
L 418.57708 29.715228 
L 421.462039 33.257988 
L 424.392512 32.901615 
L 427.312483 32.754874 
L 433.061394 29.610413 
L 435.862324 40.511213 
L 438.659754 32.859689 
L 441.471189 30.574714 
L 444.30363 31.559979 
L 447.125568 29.841006 
L 449.937002 29.463671 
L 452.75894 29.295966 
L 455.584379 29.421745 
L 458.437827 29.694265 
L 461.263266 28.855742 
L 464.0712 28.16396 
L 466.903641 36.465339 
L 469.914642 126.983905 
L 472.817106 46.800136 
L 475.677557 32.482354 
L 478.509998 33.425693 
L 481.335437 31.895388 
L 484.181884 31.916351 
L 487.003821 31.539016 
L 489.822258 34.389994 
L 492.829758 40.42736 
L 495.777737 79.188089 
L 498.701209 36.926526 
L 501.56166 49.776893 
L 504.404605 43.15256 
L 507.240547 30.993976 
L 510.07649 30.197379 
L 512.901929 28.813816 
L 515.727368 29.945822 
L 518.549306 28.646111 
L 521.36074 28.080108 
L 524.18968 29.903896 
L 529.844059 30.134489 
L 532.665997 28.583222 
L 535.477432 29.149225 
L 538.292367 41.999591 
L 541.373391 39.043797 
L 544.272355 29.736191 
L 547.08729 30.826271 
L 549.919732 29.924859 
L 552.759175 30.365083 
L 555.563607 30.952049 
L 558.378543 29.610413 
L 561.235492 51.202382 
L 564.165966 35.878372 
L 567.008911 37.094231 
L 569.841353 30.427973 
L 572.677295 33.572434 
L 575.492231 30.574714 
L 578.335175 30.88916 
L 581.227137 67.239134 
L 584.070081 139.708491 
L 586.934033 66.002313 
L 589.801486 30.218342 
L 592.626925 29.107299 
L 595.462868 29.820043 
L 598.284806 29.044409 
L 601.131252 30.553751 
L 603.970695 29.987748 
L 606.834647 29.652339 
L 609.67059 30.679529 
L 612.485525 28.792853 
L 615.35648 33.970732 
L 618.234436 33.090283 
L 621.087884 32.943542 
L 623.930829 28.939594 
L 626.766772 28.918631 
L 629.599213 29.694265 
L 632.421151 29.170188 
L 635.24659 46.108354 
L 638.082533 40.050025 
L 640.914974 32.712948 
L 643.747415 29.631376 
L 646.583358 28.646111 
L 649.401795 28.562259 
L 655.056174 29.023446 
L 657.916624 28.394554 
L 660.752567 30.910123 
L 663.634025 29.568486 
L 666.518983 35.375258 
L 669.54749 34.43192 
L 669.54749 34.43192 
" clip-path="url(#p38a82a616d)" style="fill: none; stroke: #1f77b4; stroke-width: 1.5; stroke-linecap: square"/>
   </g>
   <g id="line2d_32">
    <path d="M 77.591753 285.98884 
L 81.155937 275.612116 
L 84.601082 271.251796 
L 88.228288 258.338541 
L 92.013046 252.259248 
L 95.615743 254.062073 
L 99.425009 248.611673 
L 103.276289 232.302399 
L 107.13107 221.506415 
L 110.901824 214.714379 
L 114.539533 181.592717 
L 118.38381 176.456764 
L 122.189575 156.290284 
L 126.14589 130.715331 
L 130.182732 109.270103 
L 134.205569 92.793125 
L 138.189893 86.42035 
L 142.226734 64.765492 
L 146.134033 50.971788 
L 149.88728 43.404117 
L 153.61602 40.783732 
L 157.243225 37.827939 
L 160.89844 34.515773 
L 164.473128 33.278951 
L 168.037313 38.603573 
L 171.633008 31.727683 
L 175.172684 31.035902 
L 178.729866 31.769609 
L 182.29055 30.826271 
L 185.823224 30.448936 
L 189.3629 31.413237 
L 192.892073 32.503317 
L 196.421246 28.876705 
L 199.950419 30.61664 
L 203.479592 29.421745 
L 207.012266 31.476126 
L 210.520432 30.448936 
L 214.049605 31.035902 
L 217.596284 28.98152 
L 221.132459 29.358856 
L 224.675636 29.149225 
L 228.211812 29.233077 
L 231.719978 32.901616 
L 235.242148 29.128262 
L 238.785326 29.757154 
L 242.314499 30.868197 
L 245.836669 32.230797 
L 249.351838 33.174136 
L 252.874008 30.700493 
L 256.410183 28.939594 
L 259.956862 30.679529 
L 263.475532 29.421745 
L 267.029213 30.868197 
L 270.57239 30.61664 
L 274.133074 30.805308 
L 277.67275 29.442708 
L 281.243937 37.70216 
L 284.920159 36.213781 
L 288.557868 34.872145 
L 292.104546 32.545243 
L 295.759761 32.566206 
L 299.379964 33.803028 
L 302.982662 32.691985 
L 306.55735 30.910123 
L 310.135539 30.993976 
L 313.703225 30.553751 
L 317.319927 31.4342 
L 320.887613 30.595677 
L 324.420287 30.574714 
L 328.047492 33.677249 
L 331.594171 48.581997 
L 335.126845 41.580329 
L 338.687528 43.571821 
L 342.265718 38.498757 
L 345.826401 36.171855 
L 352.898751 36.06704 
L 356.431426 73.297464 
L 359.960598 55.122477 
L 363.552792 48.896443 
L 367.151989 48.099846 
L 370.719674 50.573489 
L 374.269854 42.565594 
L 377.816533 50.070375 
L 381.482251 49.294741 
L 385.025429 41.810923 
L 388.593114 46.506652 
L 392.125789 43.131597 
L 395.686472 43.173523 
L 399.250657 74.722954 
L 402.849853 66.232908 
L 406.354518 63.193262 
L 409.876688 69.230628 
L 413.377852 80.928025 
L 416.886018 65.624979 
L 420.394184 73.423243 
L 427.39301 64.933197 
L 430.901176 73.695763 
L 434.409342 92.856015 
L 437.931512 77.82549 
L 441.439678 69.482185 
L 444.916334 56.673745 
L 448.4245 58.937757 
L 451.925663 56.50604 
L 455.43733 58.204049 
L 458.948997 49.42052 
L 462.453662 54.451659 
L 465.954826 49.902671 
L 469.462992 48.498145 
L 472.964155 39.022834 
L 476.472321 40.364471 
L 479.976986 36.192819 
L 483.481651 41.831886 
L 486.982814 55.164403 
L 490.483978 56.694708 
L 493.988643 53.864692 
L 497.489806 51.747422 
L 500.99097 41.664182 
L 504.509639 53.487357 
L 508.042314 57.218785 
L 511.557482 36.171856 
L 515.069149 30.050637 
L 518.573814 29.631376 
L 522.074977 28.604185 
L 525.569139 31.748646 
L 529.049295 30.218342 
L 532.560962 32.943542 
L 536.051622 28.77189 
L 539.549285 30.0716 
L 543.05395 30.239305 
L 546.555113 28.101071 
L 553.557441 28.038182 
L 557.058604 29.610413 
L 560.559768 28.562259 
L 564.064433 28.646111 
L 567.569097 29.295966 
L 571.070261 29.442708 
L 574.571425 28.855742 
L 578.132108 60.635765 
L 582.035905 48.686812 
L 585.568579 29.086336 
L 589.073244 28.205886 
L 592.58141 28.038182 
L 596.082574 28.184923 
L 599.587239 28.457443 
L 603.088402 28.520333 
L 606.600069 35.878373 
L 610.101233 75.58244 
L 613.605898 44.095898 
L 617.191089 28.939594 
L 620.695754 28.98152 
L 624.077878 69.64989 
L 627.453 32.880653 
L 630.954163 30.448936 
L 634.455327 28.98152 
L 637.959992 29.589449 
L 641.461155 28.268776 
L 644.969321 28.142997 
L 648.470485 28.415517 
L 651.971649 28.268776 
L 655.472812 28.960557 
L 658.977477 28.080108 
L 662.478641 28.059145 
L 665.979804 29.295966 
L 669.491471 28.142997 
L 669.491471 28.142997 
" clip-path="url(#p38a82a616d)" style="fill: none; stroke: #ff7f0e; stroke-width: 1.5; stroke-linecap: square"/>
   </g>
   <g id="line2d_33">
    <path d="M 77.64427 276.324861 
L 81.320492 272.258024 
L 85.185777 266.954365 
L 89.114082 261.12663 
L 93.04939 260.183292 
L 96.932181 248.569747 
L 100.913004 252.804288 
L 104.942843 241.358448 
L 108.90616 237.668947 
L 112.848471 241.23267 
L 116.811788 233.371516 
L 120.72959 218.550621 
L 124.710413 204.652101 
L 128.680732 190.019874 
L 132.696567 174.779717 
L 136.680891 155.430798 
L 140.710731 139.561749 
L 144.421964 113.253088 
L 148.08068 80.173353 
L 151.686878 64.241415 
L 155.012984 46.737246 
L 158.10101 44.158788 
L 161.16803 40.846622 
L 164.14752 35.396222 
L 167.028977 37.744086 
L 169.927941 32.880652 
L 172.8129 33.823991 
L 175.70136 33.740139 
L 178.659843 36.842674 
L 181.56931 32.356576 
L 184.447266 32.230797 
L 187.290211 33.991696 
L 190.161165 29.715228 
L 192.990106 30.427973 
L 198.693501 31.035902 
L 201.539947 30.469899 
L 204.386393 28.22685 
L 207.208331 30.008711 
L 210.044274 29.58945 
L 212.901223 29.924859 
L 215.730163 30.113526 
L 218.566106 30.826271 
L 224.199478 30.197379 
L 227.007411 29.107299 
L 229.829349 29.295966 
L 232.665292 38.100458 
L 235.480227 32.566206 
L 238.295163 28.457443 
L 241.099595 30.532788 
L 243.925034 28.750926 
L 246.736468 30.197379 
L 249.537399 29.861969 
L 252.42936 28.478406 
L 255.265303 30.323157 
L 258.11525 28.876705 
L 261.077234 38.666461 
L 264.567895 39.756541 
L 267.697935 30.993976 
L 270.551383 30.993976 
L 273.513368 41.580329 
L 276.976018 40.993363 
L 279.881984 31.308422 
L 282.738934 41.433587 
L 285.58538 41.538403 
L 288.452833 36.381486 
L 291.309782 36.570154 
L 294.145725 44.053972 
L 296.967663 60.80347 
L 299.800104 48.665849 
L 302.629044 58.791015 
L 305.464987 55.856184 
L 308.290426 59.273165 
L 311.746074 65.058974 
L 315.086184 61.788734 
L 318.244234 63.277113 
L 321.304251 59.126424 
L 324.297746 56.254482 
L 327.291241 49.106073 
L 330.20771 61.117916 
L 333.21521 59.92302 
L 336.257721 50.44771 
L 339.317738 45.26983 
L 342.290226 40.846621 
L 345.357245 43.299301 
L 348.434768 41.161067 
L 351.435265 39.546911 
L 360.457764 40.406397 
L 363.524783 49.08511 
L 366.724847 47.680584 
L 369.977428 51.81031 
L 373.282526 59.943984 
L 376.57362 53.634098 
L 379.819198 52.606907 
L 383.068278 55.415959 
L 386.299852 59.818205 
L 389.48241 57.868639 
L 392.573938 57.323599 
L 395.644458 62.16607 
L 398.609944 62.543405 
L 401.54742 60.489024 
L 404.530411 58.245974 
L 407.520405 62.145107 
L 410.433373 77.552967 
L 413.458378 71.997752 
L 416.388852 67.029503 
L 419.245802 69.796629 
L 422.09925 68.874254 
L 425.064736 70.82382 
L 428.002212 74.764878 
L 430.922183 71.620417 
L 433.814144 69.524109 
L 436.671093 71.955826 
L 439.556052 71.075377 
L 442.434009 69.419294 
L 445.301462 67.511654 
L 448.273949 57.407451 
L 451.221929 57.700934 
L 454.176911 52.984242 
L 457.292947 52.690759 
L 460.293444 55.08055 
L 463.251927 121.680246 
L 466.192905 59.524722 
L 469.095369 56.652781 
L 471.987331 73.297463 
L 475.008835 64.157562 
L 477.935808 63.780227 
L 480.859279 61.725845 
L 483.758243 57.428414 
L 486.643202 58.329827 
L 489.542165 60.698654 
L 492.41662 71.557528 
L 495.312083 62.627257 
L 498.225051 57.491304 
L 501.148522 57.638045 
L 504.033481 56.925301 
L 506.879927 58.204048 
L 509.733376 57.155894 
L 512.670852 67.239134 
L 515.664347 71.64138 
L 518.556308 70.341669 
L 521.455271 61.89355 
L 524.34023 57.659008 
L 527.186676 61.956439 
L 532.865564 58.287901 
L 535.80304 57.596119 
L 538.712507 56.317371 
L 541.57996 56.946264 
L 544.478923 56.506039 
L 547.346376 58.371753 
L 550.24534 55.227291 
L 553.200322 55.981962 
L 556.085281 56.527002 
L 558.956235 55.646553 
L 561.855198 56.317371 
L 564.761164 56.17063 
L 567.656626 56.673744 
L 570.492569 56.98819 
L 573.360022 56.359298 
L 576.227475 56.547965 
L 579.091427 57.763824 
L 581.934372 57.218784 
L 584.763312 54.095285 
L 587.903856 58.476568 
L 590.890348 91.828822 
L 593.834827 59.105461 
L 596.730289 60.132651 
L 599.744791 50.825046 
L 602.878332 51.663569 
L 605.973361 53.696987 
L 609.005369 54.116248 
L 612.016369 56.086778 
L 614.87682 57.051079 
L 617.870315 54.640325 
L 620.814794 79.230013 
L 623.762773 71.075377 
L 626.633728 58.225011 
L 629.571204 58.245974 
L 632.512181 56.799522 
L 635.519681 53.801802 
L 638.49567 57.449378 
L 641.394633 56.736633 
L 644.318105 57.784787 
L 647.185558 58.35079 
L 650.172051 86.189755 
L 653.134035 62.417627 
L 656.050504 59.021608 
L 659.114022 62.312811 
L 662.100515 55.269218 
L 665.055497 55.604627 
L 667.936955 56.422187 
L 670.835918 57.679971 
L 670.835918 57.679971 
" clip-path="url(#p38a82a616d)" style="fill: none; stroke: #2ca02c; stroke-width: 1.5; stroke-linecap: square"/>
   </g>
   <g id="line2d_34">
    <path d="M 77.812326 288.902708 
L 81.530562 281.502741 
L 85.434359 277.603609 
L 89.292642 284.647203 
L 93.178933 277.289163 
L 97.012707 286.995067 
L 100.87099 281.209258 
L 104.736274 277.184347 
L 108.626067 281.56563 
L 112.536867 286.324249 
L 116.346133 275.339597 
L 120.312951 275.716932 
L 124.374301 282.110671 
L 128.089036 273.536772 
L 131.964824 272.29995 
L 135.781092 282.38319 
L 139.793426 271.398538 
L 143.83727 279.532212 
L 147.776079 283.997347 
L 151.592347 283.661938 
L 155.772736 283.158824 
L 159.645023 279.364507 
L 163.597837 279.154876 
L 167.571658 284.668166 
L 171.450947 279.238729 
L 175.326735 281.209258 
L 179.188519 283.033046 
L 183.190349 280.412661 
L 187.027624 284.605277 
L 191.295542 288.651151 
L 195.059293 279.490286 
L 198.942084 285.338985 
L 202.824874 282.17356 
L 206.774187 284.123126 
L 210.825033 277.016643 
L 214.704322 288.001295 
L 218.636129 276.765086 
L 222.630957 283.033046 
L 226.408712 278.882357 
L 230.358025 281.859113 
L 234.349351 275.675006 
L 238.291662 278.6308 
L 242.244475 283.997348 
L 245.99072 288.148037 
L 249.782481 282.152597 
L 253.724791 278.798504 
L 257.639092 281.167332 
L 261.616414 282.341264 
L 265.663759 275.067076 
L 269.725109 281.984892 
L 273.712934 282.257412 
L 277.756778 279.280655 
L 281.415494 285.485726 
L 285.280779 283.934458 
L 289.422655 276.38775 
L 293.382471 279.595101 
L 297.373798 290.978052 
L 301.260089 281.796224 
L 304.988829 285.150317 
L 308.794593 276.010415 
L 312.677384 275.29767 
L 316.710724 287.414329 
L 320.569007 271.377575 
L 324.500813 282.278375 
L 328.502643 277.624572 
L 332.332916 273.851218 
L 336.100168 282.65571 
L 339.968954 272.865953 
L 344.156346 281.314073 
L 348.053141 281.83815 
L 351.977945 279.888584 
L 355.986778 280.349772 
L 360.048128 283.515197 
L 363.983435 285.884024 
L 367.890734 276.827975 
L 371.927576 282.676673 
L 375.974921 280.999627 
L 379.850709 282.362228 
L 383.701989 286.324249 
L 387.619791 286.093655 
L 391.474572 278.6308 
L 395.451894 287.162772 
L 399.303174 286.491954 
L 403.305004 281.481778 
L 407.247314 284.961649 
L 411.158114 276.178119 
L 414.991888 279.846658 
L 418.720627 277.876129 
L 422.582411 289.405821 
L 426.321654 287.749738 
L 430.295474 280.622292 
L 434.143253 283.033046 
L 438.201102 282.194523 
L 442.101398 283.620012 
L 446.047209 290.642643 
L 449.958009 290.516864 
L 453.557205 282.634747 
L 457.429492 284.123126 
L 461.399812 275.276707 
L 465.317614 282.676674 
L 469.077864 280.580366 
L 473.055186 284.56335 
L 477.155048 278.127686 
L 481.198892 282.697637 
L 485.018662 284.165052 
L 488.827928 281.984892 
L 492.651198 281.649483 
L 496.481471 282.571858 
L 500.336252 287.372403 
L 504.114008 276.366787 
L 507.919773 282.38319 
L 511.85158 289.846046 
L 515.730869 274.857446 
L 519.683683 278.945246 
L 523.590981 284.856834 
L 527.603315 283.137861 
L 531.640156 275.02515 
L 535.477432 286.072692 
L 539.26219 286.890252 
L 542.917404 283.389418 
L 546.835206 283.599049 
L 550.703992 287.89648 
L 554.523762 284.437572 
L 558.18948 278.56791 
L 562.030256 281.376963 
L 565.927052 280.223994 
L 569.977898 279.972437 
L 573.822176 283.536159 
L 577.65595 280.496514 
L 581.720801 268.296002 
L 589.591416 277.037606 
L 593.659769 280.706144 
L 597.409515 282.44608 
L 601.355326 287.602997 
L 604.986033 283.26364 
L 608.679761 288.420557 
L 612.506532 276.765086 
L 616.459346 284.961649 
L 620.32113 291.187683 
L 624.329962 277.456867 
L 628.370305 281.08348 
L 632.302111 274.584926 
L 636.317946 286.596769 
L 640.274261 275.213818 
L 644.06252 284.563351 
L 647.756248 281.272148 
L 651.369448 288.106111 
L 655.129698 281.859114 
L 658.928461 278.945246 
L 662.804249 280.098215 
L 666.75006 282.38319 
L 670.604841 296.742898 
L 670.604841 296.742898 
" clip-path="url(#p38a82a616d)" style="fill: none; stroke: #d62728; stroke-width: 1.5; stroke-linecap: square"/>
   </g>
   <g id="patch_3">
    <path d="M 47.72 390.04 
L 47.72 10.8 
" style="fill: none; stroke: #000000; stroke-width: 0.8; stroke-linejoin: miter; stroke-linecap: square"/>
   </g>
   <g id="patch_4">
    <path d="M 700.508105 390.04 
L 700.508105 10.8 
" style="fill: none; stroke: #000000; stroke-width: 0.8; stroke-linejoin: miter; stroke-linecap: square"/>
   </g>
   <g id="patch_5">
    <path d="M 47.72 390.04 
L 700.508105 390.04 
" style="fill: none; stroke: #000000; stroke-width: 0.8; stroke-linejoin: miter; stroke-linecap: square"/>
   </g>
   <g id="patch_6">
    <path d="M 47.72 10.8 
L 700.508105 10.8 
" style="fill: none; stroke: #000000; stroke-width: 0.8; stroke-linejoin: miter; stroke-linecap: square"/>
   </g>
   <g id="legend_1">
    <g id="patch_7">
     <path d="M 599.83623 385.04 
L 693.508105 385.04 
Q 695.508105 385.04 695.508105 383.04 
L 695.508105 310.649375 
Q 695.508105 308.649375 693.508105 308.649375 
L 599.83623 308.649375 
Q 597.83623 308.649375 597.83623 310.649375 
L 597.83623 383.04 
Q 597.83623 385.04 599.83623 385.04 
z
" style="fill: #ffffff; opacity: 0.8; stroke: #cccccc; stroke-linejoin: miter"/>
    </g>
    <g id="text_18">
     <!-- Max Circuit Depth -->
     <g transform="translate(601.83623 320.247813) scale(0.1 -0.1)">
      <defs>
       <path id="DejaVuSans-4d" d="M 628 4666 
L 1569 4666 
L 2759 1491 
L 3956 4666 
L 4897 4666 
L 4897 0 
L 4281 0 
L 4281 4097 
L 3078 897 
L 2444 897 
L 1241 4097 
L 1241 0 
L 628 0 
L 628 4666 
z
" transform="scale(0.015625)"/>
       <path id="DejaVuSans-78" d="M 3513 3500 
L 2247 1797 
L 3578 0 
L 2900 0 
L 1881 1375 
L 863 0 
L 184 0 
L 1544 1831 
L 300 3500 
L 978 3500 
L 1906 2253 
L 2834 3500 
L 3513 3500 
z
" transform="scale(0.015625)"/>
       <path id="DejaVuSans-20" transform="scale(0.015625)"/>
       <path id="DejaVuSans-43" d="M 4122 4306 
L 4122 3641 
Q 3803 3938 3442 4084 
Q 3081 4231 2675 4231 
Q 1875 4231 1450 3742 
Q 1025 3253 1025 2328 
Q 1025 1406 1450 917 
Q 1875 428 2675 428 
Q 3081 428 3442 575 
Q 3803 722 4122 1019 
L 4122 359 
Q 3791 134 3420 21 
Q 3050 -91 2638 -91 
Q 1578 -91 968 557 
Q 359 1206 359 2328 
Q 359 3453 968 4101 
Q 1578 4750 2638 4750 
Q 3056 4750 3426 4639 
Q 3797 4528 4122 4306 
z
" transform="scale(0.015625)"/>
       <path id="DejaVuSans-69" d="M 603 3500 
L 1178 3500 
L 1178 0 
L 603 0 
L 603 3500 
z
M 603 4863 
L 1178 4863 
L 1178 4134 
L 603 4134 
L 603 4863 
z
" transform="scale(0.015625)"/>
       <path id="DejaVuSans-44" d="M 1259 4147 
L 1259 519 
L 2022 519 
Q 2988 519 3436 956 
Q 3884 1394 3884 2338 
Q 3884 3275 3436 3711 
Q 2988 4147 2022 4147 
L 1259 4147 
z
M 628 4666 
L 1925 4666 
Q 3281 4666 3915 4102 
Q 4550 3538 4550 2338 
Q 4550 1131 3912 565 
Q 3275 0 1925 0 
L 628 0 
L 628 4666 
z
" transform="scale(0.015625)"/>
       <path id="DejaVuSans-68" d="M 3513 2113 
L 3513 0 
L 2938 0 
L 2938 2094 
Q 2938 2591 2744 2837 
Q 2550 3084 2163 3084 
Q 1697 3084 1428 2787 
Q 1159 2491 1159 1978 
L 1159 0 
L 581 0 
L 581 4863 
L 1159 4863 
L 1159 2956 
Q 1366 3272 1645 3428 
Q 1925 3584 2291 3584 
Q 2894 3584 3203 3211 
Q 3513 2838 3513 2113 
z
" transform="scale(0.015625)"/>
      </defs>
      <use xlink:href="#DejaVuSans-4d"/>
      <use xlink:href="#DejaVuSans-61" transform="translate(86.279297 0)"/>
      <use xlink:href="#DejaVuSans-78" transform="translate(147.558594 0)"/>
      <use xlink:href="#DejaVuSans-20" transform="translate(206.738281 0)"/>
      <use xlink:href="#DejaVuSans-43" transform="translate(238.525391 0)"/>
      <use xlink:href="#DejaVuSans-69" transform="translate(308.349609 0)"/>
      <use xlink:href="#DejaVuSans-72" transform="translate(336.132812 0)"/>
      <use xlink:href="#DejaVuSans-63" transform="translate(374.996094 0)"/>
      <use xlink:href="#DejaVuSans-75" transform="translate(429.976562 0)"/>
      <use xlink:href="#DejaVuSans-69" transform="translate(493.355469 0)"/>
      <use xlink:href="#DejaVuSans-74" transform="translate(521.138672 0)"/>
      <use xlink:href="#DejaVuSans-20" transform="translate(560.347656 0)"/>
      <use xlink:href="#DejaVuSans-44" transform="translate(592.134766 0)"/>
      <use xlink:href="#DejaVuSans-65" transform="translate(669.136719 0)"/>
      <use xlink:href="#DejaVuSans-70" transform="translate(730.660156 0)"/>
      <use xlink:href="#DejaVuSans-74" transform="translate(794.136719 0)"/>
      <use xlink:href="#DejaVuSans-68" transform="translate(833.345703 0)"/>
     </g>
    </g>
    <g id="line2d_35">
     <path d="M 603.301855 331.425937 
L 613.301855 331.425937 
L 623.301855 331.425937 
" style="fill: none; stroke: #1f77b4; stroke-width: 1.5; stroke-linecap: square"/>
    </g>
    <g id="text_19">
     <!-- 4 (PPO) -->
     <g transform="translate(631.301855 334.925937) scale(0.1 -0.1)">
      <defs>
       <path id="DejaVuSans-28" d="M 1984 4856 
Q 1566 4138 1362 3434 
Q 1159 2731 1159 2009 
Q 1159 1288 1364 580 
Q 1569 -128 1984 -844 
L 1484 -844 
Q 1016 -109 783 600 
Q 550 1309 550 2009 
Q 550 2706 781 3412 
Q 1013 4119 1484 4856 
L 1984 4856 
z
" transform="scale(0.015625)"/>
       <path id="DejaVuSans-50" d="M 1259 4147 
L 1259 2394 
L 2053 2394 
Q 2494 2394 2734 2622 
Q 2975 2850 2975 3272 
Q 2975 3691 2734 3919 
Q 2494 4147 2053 4147 
L 1259 4147 
z
M 628 4666 
L 2053 4666 
Q 2838 4666 3239 4311 
Q 3641 3956 3641 3272 
Q 3641 2581 3239 2228 
Q 2838 1875 2053 1875 
L 1259 1875 
L 1259 0 
L 628 0 
L 628 4666 
z
" transform="scale(0.015625)"/>
       <path id="DejaVuSans-4f" d="M 2522 4238 
Q 1834 4238 1429 3725 
Q 1025 3213 1025 2328 
Q 1025 1447 1429 934 
Q 1834 422 2522 422 
Q 3209 422 3611 934 
Q 4013 1447 4013 2328 
Q 4013 3213 3611 3725 
Q 3209 4238 2522 4238 
z
M 2522 4750 
Q 3503 4750 4090 4092 
Q 4678 3434 4678 2328 
Q 4678 1225 4090 567 
Q 3503 -91 2522 -91 
Q 1538 -91 948 565 
Q 359 1222 359 2328 
Q 359 3434 948 4092 
Q 1538 4750 2522 4750 
z
" transform="scale(0.015625)"/>
       <path id="DejaVuSans-29" d="M 513 4856 
L 1013 4856 
Q 1481 4119 1714 3412 
Q 1947 2706 1947 2009 
Q 1947 1309 1714 600 
Q 1481 -109 1013 -844 
L 513 -844 
Q 928 -128 1133 580 
Q 1338 1288 1338 2009 
Q 1338 2731 1133 3434 
Q 928 4138 513 4856 
z
" transform="scale(0.015625)"/>
      </defs>
      <use xlink:href="#DejaVuSans-34"/>
      <use xlink:href="#DejaVuSans-20" transform="translate(63.623047 0)"/>
      <use xlink:href="#DejaVuSans-28" transform="translate(95.410156 0)"/>
      <use xlink:href="#DejaVuSans-50" transform="translate(134.423828 0)"/>
      <use xlink:href="#DejaVuSans-50" transform="translate(194.726562 0)"/>
      <use xlink:href="#DejaVuSans-4f" transform="translate(255.029297 0)"/>
      <use xlink:href="#DejaVuSans-29" transform="translate(333.740234 0)"/>
     </g>
    </g>
    <g id="line2d_36">
     <path d="M 603.301855 346.104062 
L 613.301855 346.104062 
L 623.301855 346.104062 
" style="fill: none; stroke: #ff7f0e; stroke-width: 1.5; stroke-linecap: square"/>
    </g>
    <g id="text_20">
     <!-- 5 (PPO) -->
     <g transform="translate(631.301855 349.604062) scale(0.1 -0.1)">
      <use xlink:href="#DejaVuSans-35"/>
      <use xlink:href="#DejaVuSans-20" transform="translate(63.623047 0)"/>
      <use xlink:href="#DejaVuSans-28" transform="translate(95.410156 0)"/>
      <use xlink:href="#DejaVuSans-50" transform="translate(134.423828 0)"/>
      <use xlink:href="#DejaVuSans-50" transform="translate(194.726562 0)"/>
      <use xlink:href="#DejaVuSans-4f" transform="translate(255.029297 0)"/>
      <use xlink:href="#DejaVuSans-29" transform="translate(333.740234 0)"/>
     </g>
    </g>
    <g id="line2d_37">
     <path d="M 603.301855 360.782187 
L 613.301855 360.782187 
L 623.301855 360.782187 
" style="fill: none; stroke: #2ca02c; stroke-width: 1.5; stroke-linecap: square"/>
    </g>
    <g id="text_21">
     <!-- 6 (PPO) -->
     <g transform="translate(631.301855 364.282187) scale(0.1 -0.1)">
      <use xlink:href="#DejaVuSans-36"/>
      <use xlink:href="#DejaVuSans-20" transform="translate(63.623047 0)"/>
      <use xlink:href="#DejaVuSans-28" transform="translate(95.410156 0)"/>
      <use xlink:href="#DejaVuSans-50" transform="translate(134.423828 0)"/>
      <use xlink:href="#DejaVuSans-50" transform="translate(194.726562 0)"/>
      <use xlink:href="#DejaVuSans-4f" transform="translate(255.029297 0)"/>
      <use xlink:href="#DejaVuSans-29" transform="translate(333.740234 0)"/>
     </g>
    </g>
    <g id="line2d_38">
     <path d="M 603.301855 375.460312 
L 613.301855 375.460312 
L 623.301855 375.460312 
" style="fill: none; stroke: #d62728; stroke-width: 1.5; stroke-linecap: square"/>
    </g>
    <g id="text_22">
     <!-- 6 (Random) -->
     <g transform="translate(631.301855 378.960312) scale(0.1 -0.1)">
      <defs>
       <path id="DejaVuSans-52" d="M 2841 2188 
Q 3044 2119 3236 1894 
Q 3428 1669 3622 1275 
L 4263 0 
L 3584 0 
L 2988 1197 
Q 2756 1666 2539 1819 
Q 2322 1972 1947 1972 
L 1259 1972 
L 1259 0 
L 628 0 
L 628 4666 
L 2053 4666 
Q 2853 4666 3247 4331 
Q 3641 3997 3641 3322 
Q 3641 2881 3436 2590 
Q 3231 2300 2841 2188 
z
M 1259 4147 
L 1259 2491 
L 2053 2491 
Q 2509 2491 2742 2702 
Q 2975 2913 2975 3322 
Q 2975 3731 2742 3939 
Q 2509 4147 2053 4147 
L 1259 4147 
z
" transform="scale(0.015625)"/>
       <path id="DejaVuSans-6e" d="M 3513 2113 
L 3513 0 
L 2938 0 
L 2938 2094 
Q 2938 2591 2744 2837 
Q 2550 3084 2163 3084 
Q 1697 3084 1428 2787 
Q 1159 2491 1159 1978 
L 1159 0 
L 581 0 
L 581 3500 
L 1159 3500 
L 1159 2956 
Q 1366 3272 1645 3428 
Q 1925 3584 2291 3584 
Q 2894 3584 3203 3211 
Q 3513 2838 3513 2113 
z
" transform="scale(0.015625)"/>
       <path id="DejaVuSans-64" d="M 2906 2969 
L 2906 4863 
L 3481 4863 
L 3481 0 
L 2906 0 
L 2906 525 
Q 2725 213 2448 61 
Q 2172 -91 1784 -91 
Q 1150 -91 751 415 
Q 353 922 353 1747 
Q 353 2572 751 3078 
Q 1150 3584 1784 3584 
Q 2172 3584 2448 3432 
Q 2725 3281 2906 2969 
z
M 947 1747 
Q 947 1113 1208 752 
Q 1469 391 1925 391 
Q 2381 391 2643 752 
Q 2906 1113 2906 1747 
Q 2906 2381 2643 2742 
Q 2381 3103 1925 3103 
Q 1469 3103 1208 2742 
Q 947 2381 947 1747 
z
" transform="scale(0.015625)"/>
       <path id="DejaVuSans-6f" d="M 1959 3097 
Q 1497 3097 1228 2736 
Q 959 2375 959 1747 
Q 959 1119 1226 758 
Q 1494 397 1959 397 
Q 2419 397 2687 759 
Q 2956 1122 2956 1747 
Q 2956 2369 2687 2733 
Q 2419 3097 1959 3097 
z
M 1959 3584 
Q 2709 3584 3137 3096 
Q 3566 2609 3566 1747 
Q 3566 888 3137 398 
Q 2709 -91 1959 -91 
Q 1206 -91 779 398 
Q 353 888 353 1747 
Q 353 2609 779 3096 
Q 1206 3584 1959 3584 
z
" transform="scale(0.015625)"/>
       <path id="DejaVuSans-6d" d="M 3328 2828 
Q 3544 3216 3844 3400 
Q 4144 3584 4550 3584 
Q 5097 3584 5394 3201 
Q 5691 2819 5691 2113 
L 5691 0 
L 5113 0 
L 5113 2094 
Q 5113 2597 4934 2840 
Q 4756 3084 4391 3084 
Q 3944 3084 3684 2787 
Q 3425 2491 3425 1978 
L 3425 0 
L 2847 0 
L 2847 2094 
Q 2847 2600 2669 2842 
Q 2491 3084 2119 3084 
Q 1678 3084 1418 2786 
Q 1159 2488 1159 1978 
L 1159 0 
L 581 0 
L 581 3500 
L 1159 3500 
L 1159 2956 
Q 1356 3278 1631 3431 
Q 1906 3584 2284 3584 
Q 2666 3584 2933 3390 
Q 3200 3197 3328 2828 
z
" transform="scale(0.015625)"/>
      </defs>
      <use xlink:href="#DejaVuSans-36"/>
      <use xlink:href="#DejaVuSans-20" transform="translate(63.623047 0)"/>
      <use xlink:href="#DejaVuSans-28" transform="translate(95.410156 0)"/>
      <use xlink:href="#DejaVuSans-52" transform="translate(134.423828 0)"/>
      <use xlink:href="#DejaVuSans-61" transform="translate(201.65625 0)"/>
      <use xlink:href="#DejaVuSans-6e" transform="translate(262.935547 0)"/>
      <use xlink:href="#DejaVuSans-64" transform="translate(326.314453 0)"/>
      <use xlink:href="#DejaVuSans-6f" transform="translate(389.791016 0)"/>
      <use xlink:href="#DejaVuSans-6d" transform="translate(450.972656 0)"/>
      <use xlink:href="#DejaVuSans-29" transform="translate(548.384766 0)"/>
     </g>
    </g>
   </g>
  </g>
 </g>
 <defs>
  <clipPath id="p38a82a616d">
   <rect x="47.72" y="10.8" width="652.788105" height="379.24"/>
  </clipPath>
 </defs>
</svg>
