<?xml version="1.0" encoding="utf-8" standalone="no"?>
<!DOCTYPE svg PUBLIC "-//W3C//DTD SVG 1.1//EN"
  "http://www.w3.org/Graphics/SVG/1.1/DTD/svg11.dtd">
<svg xmlns:xlink="http://www.w3.org/1999/xlink" width="720pt" height="432pt" viewBox="0 0 720 432" xmlns="http://www.w3.org/2000/svg" version="1.1">
 <metadata>
  <rdf:RDF xmlns:dc="http://purl.org/dc/elements/1.1/" xmlns:cc="http://creativecommons.org/ns#" xmlns:rdf="http://www.w3.org/1999/02/22-rdf-syntax-ns#">
   <cc:Work>
    <dc:type rdf:resource="http://purl.org/dc/dcmitype/StillImage"/>
    <dc:date>2025-04-17T16:32:56.111985</dc:date>
    <dc:format>image/svg+xml</dc:format>
    <dc:creator>
     <cc:Agent>
      <dc:title>Matplotlib v3.10.0, https://matplotlib.org/</dc:title>
     </cc:Agent>
    </dc:creator>
   </cc:Work>
  </rdf:RDF>
 </metadata>
 <defs>
  <style type="text/css">*{stroke-linejoin: round; stroke-linecap: butt}</style>
 </defs>
 <g id="figure_1">
  <g id="patch_1">
   <path d="M 0 432 
L 720 432 
L 720 0 
L 0 0 
z
" style="fill: #ffffff"/>
  </g>
  <g id="axes_1">
   <g id="patch_2">
    <path d="M 50.87 390.04 
L 700.508105 390.04 
L 700.508105 10.8 
L 50.87 10.8 
z
" style="fill: #ffffff"/>
   </g>
   <g id="FillBetweenPolyCollection_1">
    <path d="M 80.399005 350.270848 
L 80.399005 358.840841 
L 83.702092 358.352169 
L 86.911103 358.417719 
L 90.196769 358.663965 
L 93.6009 358.222732 
L 96.837785 357.954433 
L 100.10603 360.042791 
L 103.55894 361.070758 
L 107.057146 363.918786 
L 110.656396 365.36619 
L 114.300941 365.770664 
L 117.928065 365.882012 
L 121.447177 361.990621 
L 124.938414 353.692451 
L 128.325124 331.619922 
L 131.297205 286.664835 
L 134.230959 247.732498 
L 137.178651 197.229078 
L 140.039236 151.381832 
L 142.910273 135.176202 
L 145.777827 138.28659 
L 148.603569 99.221586 
L 151.429311 103.784947 
L 154.2446 91.321439 
L 157.073826 101.535213 
L 159.899568 92.525905 
L 162.718342 87.904953 
L 165.519694 95.654096 
L 168.317562 83.397705 
L 171.132851 86.842449 
L 173.934204 89.095075 
L 176.718134 90.228845 
L 179.509034 83.400568 
L 182.31387 85.668338 
L 185.108254 84.509795 
L 187.909606 86.101563 
L 190.724895 80.003154 
L 193.519279 81.121348 
L 196.324116 81.077903 
L 199.118499 78.884121 
L 201.909399 77.717799 
L 204.721204 79.974766 
L 207.515587 84.584342 
L 210.320424 83.378454 
L 213.121776 80.006186 
L 215.923128 78.841645 
L 218.727965 79.284498 
L 221.525833 90.123816 
L 224.320216 76.552835 
L 227.111116 77.690739 
L 229.926405 78.830464 
L 232.727757 86.752134 
L 235.518656 77.721623 
L 238.309556 81.142529 
L 241.103939 77.672433 
L 243.901807 77.687977 
L 246.699675 76.600995 
L 249.48709 77.728505 
L 252.291927 86.801194 
L 255.100248 78.928365 
L 257.817977 143.565522 
L 260.514802 99.541194 
L 263.284795 89.117622 
L 266.082663 125.979753 
L 268.633148 119.504355 
L 271.427532 81.176366 
L 274.221915 102.971973 
L 276.810727 159.066025 
L 279.524973 102.745855 
L 282.315872 91.335945 
L 285.124193 118.234108 
L 287.939482 112.012704 
L 290.744319 105.986393 
L 293.559608 129.172109 
L 296.374897 133.348606 
L 299.176249 115.422444 
L 302.029866 166.651007 
L 305.629115 199.246352 
L 308.879938 120.795878 
L 311.75446 87.876364 
L 314.608076 101.718879 
L 317.538346 106.226379 
L 320.461648 118.087342 
L 323.329201 82.232667 
L 326.297798 193.767151 
L 329.290785 123.691375 
L 332.238477 109.588069 
L 335.102546 104.748957 
L 337.945709 85.564022 
L 340.799326 102.488691 
L 343.635521 97.255642 
L 346.471715 79.910028 
L 349.304426 91.698684 
L 352.112747 79.913524 
L 354.928036 85.524142 
L 357.753778 148.158759 
L 360.57952 259.595398 
L 363.380872 174.933722 
L 366.185709 117.301343 
L 368.990545 82.621655 
L 371.784929 76.575946 
L 374.711715 151.683757 
L 377.662891 111.31127 
L 380.509538 91.206314 
L 383.345733 86.682322 
L 386.167991 84.489859 
L 388.95889 90.106474 
L 391.795085 90.084009 
L 394.610375 87.132197 
L 397.418695 76.547377 
L 400.202626 81.200384 
L 402.986557 85.611312 
L 405.808815 78.798125 
L 408.610167 91.228845 
L 411.446362 89.47202 
L 414.279073 92.27947 
L 417.115268 86.704859 
L 419.937525 83.321111 
L 422.808563 115.903855 
L 425.724896 114.103992 
L 428.630776 112.527919 
L 431.529688 95.685863 
L 434.351946 88.901708 
L 437.139361 105.105315 
L 439.923292 91.305194 
L 442.72116 82.247818 
L 445.539933 89.003123 
L 448.348254 79.976593 
L 451.146122 78.839549 
L 453.954443 79.946819 
L 456.766248 85.539996 
L 459.605927 87.789884 
L 462.417732 79.92539 
L 465.212115 75.419901 
L 468.030889 125.458266 
L 471.02736 273.298651 
L 473.915819 126.681534 
L 476.762467 91.283614 
L 479.58124 92.44969 
L 482.393045 86.785113 
L 485.225756 87.23841 
L 488.034077 104.444664 
L 490.838913 117.079313 
L 493.8319 140.643056 
L 496.765655 193.645283 
L 499.675019 112.740645 
L 502.521667 124.145834 
L 505.350893 106.80841 
L 508.173151 93.443601 
L 510.995409 81.111715 
L 513.807214 77.688196 
L 516.619019 81.098963 
L 519.42734 79.914685 
L 522.225208 75.415829 
L 525.040497 83.331757 
L 527.855786 79.985957 
L 530.667591 82.225613 
L 533.475912 78.793913 
L 536.27378 81.058294 
L 539.075132 119.05382 
L 542.141289 108.385915 
L 545.026263 82.206521 
L 547.827616 82.260631 
L 550.646389 82.215897 
L 553.472131 80.0026 
L 556.263031 81.149567 
L 559.064383 76.611843 
L 561.907546 132.470739 
L 564.823879 98.164334 
L 567.653106 94.8738 
L 570.471879 82.240852 
L 573.294137 116.835511 
L 576.095489 83.364862 
L 578.924715 97.90646 
L 581.802722 236.65326 
L 584.631948 316.27472 
L 587.48208 186.99085 
L 590.335696 87.816461 
L 593.147501 81.054698 
L 595.969759 85.561488 
L 598.77808 77.699644 
L 601.61079 93.221358 
L 604.436532 91.155547 
L 607.286664 84.435394 
L 610.108922 87.839598 
L 612.910274 81.040209 
L 615.767375 104.767928 
L 618.631444 105.179387 
L 621.471123 104.05733 
L 624.300349 82.163535 
L 627.122607 82.162331 
L 629.941381 85.554874 
L 632.749702 79.9406 
L 635.561507 229.26847 
L 638.383764 209.503874 
L 641.202538 125.27084 
L 644.021311 84.433946 
L 646.843569 81.031445 
L 649.648406 79.909571 
L 652.463695 82.159031 
L 655.2755 87.754925 
L 658.122148 76.549455 
L 660.944406 103.493066 
L 663.811959 84.430923 
L 666.682996 140.592886 
L 669.696889 123.785305 
L 669.696889 64.446827 
L 669.696889 64.446827 
L 666.682996 61.566403 
L 663.811959 71.19151 
L 660.944406 67.924622 
L 658.122148 72.542254 
L 655.2755 70.621775 
L 652.463695 71.58082 
L 649.648406 71.966182 
L 646.843569 71.773915 
L 644.021311 71.190431 
L 641.202538 64.72978 
L 638.383764 52.996252 
L 635.561507 50.155728 
L 632.749702 71.960859 
L 629.941381 70.998461 
L 627.122607 71.580308 
L 624.300349 71.580102 
L 621.471123 68.372017 
L 618.631444 68.182456 
L 615.767375 67.705618 
L 612.910274 71.772351 
L 610.108922 70.606759 
L 607.286664 71.190671 
L 604.436532 70.039038 
L 601.61079 70.774543 
L 598.77808 72.345051 
L 595.969759 70.997751 
L 593.147501 71.770133 
L 590.335696 70.611217 
L 587.48208 64.604667 
L 584.631948 80.084472 
L 581.802722 53.878687 
L 578.924715 68.881849 
L 576.095489 71.373985 
L 573.294137 66.731095 
L 570.471879 71.566764 
L 567.653106 69.401317 
L 564.823879 68.837812 
L 561.907546 62.958204 
L 559.064383 72.531337 
L 556.263031 71.753439 
L 553.472131 71.950217 
L 550.646389 71.571291 
L 547.827616 71.563443 
L 545.026263 71.572727 
L 542.141289 67.085761 
L 539.075132 65.803917 
L 536.27378 71.769304 
L 533.475912 72.157244 
L 530.667591 71.569691 
L 527.855786 71.953077 
L 525.040497 71.379534 
L 522.225208 72.736534 
L 519.42734 71.965523 
L 516.619019 71.762466 
L 513.807214 72.347088 
L 510.995409 71.760278 
L 508.173151 69.646331 
L 505.350893 67.903318 
L 502.521667 66.584749 
L 499.675019 66.33784 
L 496.765655 58.506372 
L 493.8319 62.654934 
L 490.838913 65.59555 
L 488.034077 68.851893 
L 485.225756 71.260262 
L 482.393045 70.787049 
L 479.58124 69.815822 
L 476.762467 70.015818 
L 473.915819 66.701145 
L 471.02736 58.641103 
L 468.030889 64.710759 
L 465.212115 72.735835 
L 462.417732 71.963468 
L 459.605927 70.615782 
L 456.766248 71.001439 
L 453.954443 71.959855 
L 451.146122 72.149482 
L 448.348254 71.954819 
L 445.539933 70.407906 
L 442.72116 71.565569 
L 439.923292 70.013226 
L 437.139361 67.648075 
L 434.351946 70.425098 
L 431.529688 69.262417 
L 428.630776 66.375929 
L 425.724896 66.657647 
L 422.808563 65.797636 
L 419.937525 71.381293 
L 417.115268 70.801658 
L 414.279073 69.846347 
L 411.446362 70.878602 
L 408.610167 70.026182 
L 405.808815 72.156869 
L 402.986557 70.989 
L 400.202626 71.745072 
L 397.418695 72.542398 
L 394.610375 71.279486 
L 391.795085 70.221622 
L 388.95889 70.218535 
L 386.167991 71.180775 
L 383.345733 70.805454 
L 380.509538 70.029705 
L 377.662891 67.675391 
L 374.711715 60.755373 
L 371.784929 72.53756 
L 368.990545 72.045066 
L 366.185709 65.555214 
L 363.380872 56.770133 
L 360.57952 52.646391 
L 357.753778 61.344741 
L 354.928036 71.003951 
L 352.112747 71.965686 
L 349.304426 70.492912 
L 346.471715 71.966312 
L 343.635521 69.537295 
L 340.799326 68.095547 
L 337.945709 70.997099 
L 335.102546 67.70844 
L 332.238477 67.430738 
L 329.290785 64.462871 
L 326.297798 53.004013 
L 323.329201 71.567893 
L 320.461648 65.423236 
L 317.538346 67.9996 
L 314.608076 68.77265 
L 311.75446 70.600389 
L 308.879938 65.508712 
L 305.629115 54.798809 
L 302.029866 57.65121 
L 299.176249 66.976321 
L 296.374897 63.348499 
L 293.559608 65.161684 
L 290.744319 67.493401 
L 287.939482 67.016654 
L 285.124193 66.493603 
L 282.315872 70.00816 
L 279.524973 69.15777 
L 276.810727 59.505047 
L 274.221915 68.013906 
L 271.427532 71.746595 
L 268.633148 65.735799 
L 266.082663 64.069397 
L 263.284795 70.386619 
L 260.514802 68.601917 
L 257.817977 61.614587 
L 255.100248 72.132895 
L 252.291927 70.786192 
L 249.48709 72.339231 
L 246.699675 72.531128 
L 243.901807 72.34417 
L 241.103939 72.347658 
L 238.309556 71.751405 
L 235.518656 72.338769 
L 232.727757 70.789098 
L 229.926405 72.146687 
L 227.111116 72.342323 
L 224.320216 72.538195 
L 221.525833 70.211686 
L 218.727965 72.61587 
L 215.923128 72.146213 
L 213.121776 71.945397 
L 210.320424 71.369476 
L 207.515587 71.162923 
L 204.721204 71.954671 
L 201.909399 72.341133 
L 199.118499 72.141765 
L 196.324116 71.765803 
L 193.519279 71.757907 
L 190.724895 71.949921 
L 187.909606 71.455458 
L 185.108254 71.175826 
L 182.31387 70.977551 
L 179.509034 71.36707 
L 176.718134 70.196196 
L 173.934204 70.390446 
L 171.132851 70.777236 
L 168.317562 71.367712 
L 165.519694 70.381311 
L 162.718342 70.596764 
L 159.899568 69.802825 
L 157.073826 68.257664 
L 154.2446 70.010847 
L 151.429311 67.877736 
L 148.603569 68.658745 
L 145.777827 64.151771 
L 142.910273 64.701816 
L 140.039236 65.22292 
L 137.178651 66.103923 
L 134.230959 67.358365 
L 131.297205 80.970169 
L 128.325124 116.371013 
L 124.938414 172.148899 
L 121.447177 199.905457 
L 117.928065 229.884706 
L 114.300941 268.461206 
L 110.656396 295.627733 
L 107.057146 313.849104 
L 103.55894 326.830829 
L 100.10603 339.500454 
L 96.837785 348.1175 
L 93.6009 350.931563 
L 90.196769 347.730293 
L 86.911103 349.973286 
L 83.702092 352.434077 
L 80.399005 350.270848 
z
" clip-path="url(#pf66f21c4d6)" style="fill: #1f77b4; fill-opacity: 0.2"/>
   </g>
   <g id="FillBetweenPolyCollection_2">
    <path d="M 80.597608 338.937124 
L 80.597608 359.161747 
L 84.144594 357.711613 
L 87.573114 357.327639 
L 91.182817 358.641717 
L 94.949312 357.527067 
L 98.534624 358.701783 
L 102.325509 361.212439 
L 106.158205 360.11033 
L 109.994385 361.092042 
L 113.746942 362.847064 
L 117.367098 370.309021 
L 121.192825 359.394149 
L 124.980225 359.019085 
L 128.917449 335.351403 
L 132.934811 307.994146 
L 136.938236 279.411922 
L 140.903334 250.388795 
L 144.920696 190.912963 
L 148.80914 143.901868 
L 152.544277 121.515238 
L 156.255023 107.035742 
L 159.864726 100.810154 
L 163.502302 87.633473 
L 167.059741 84.671202 
L 170.606727 100.858843 
L 174.185071 79.187541 
L 177.707667 79.13964 
L 181.247684 89.241376 
L 184.791185 81.359335 
L 188.306813 76.864203 
L 191.829409 84.748591 
L 195.341552 80.116691 
L 198.853695 74.528034 
L 202.365838 79.10944 
L 205.877981 73.445189 
L 209.393608 79.166087 
L 212.884846 75.745708 
L 216.396989 80.25227 
L 219.926553 75.652987 
L 223.445665 74.564525 
L 226.971745 75.665195 
L 230.490856 74.550683 
L 233.982094 81.493923 
L 237.487268 79.014078 
L 241.013348 73.912045 
L 244.525492 75.774661 
L 248.030666 79.213704 
L 251.528872 87.095882 
L 255.034047 76.879954 
L 258.553158 73.414895 
L 262.082723 76.879558 
L 265.584413 77.913621 
L 269.120946 80.241102 
L 272.647026 81.341895 
L 276.190527 79.120804 
L 279.713123 74.562999 
L 283.267078 129.169244 
L 286.92556 114.093726 
L 290.545715 103.957065 
L 294.07528 93.75305 
L 297.712856 95.985833 
L 301.31559 94.953804 
L 304.900903 88.634336 
L 308.458342 80.241739 
L 312.019265 80.250474 
L 315.569735 79.103979 
L 319.168984 88.094997 
L 322.719454 86.9248 
L 326.235082 82.454022 
L 329.844784 97.174676 
L 333.374349 142.398538 
L 336.889976 160.763074 
L 340.433477 156.157674 
L 343.9944 135.520367 
L 347.537902 113.677947 
L 351.077919 106.524492 
L 354.576125 109.206031 
L 358.091752 233.574559 
L 361.603895 185.41368 
L 365.178755 159.004811 
L 368.760584 148.461778 
L 372.311054 168.30536 
L 375.844102 135.991726 
L 379.373667 168.785953 
L 383.021696 149.235445 
L 386.547776 115.817764 
L 390.098246 137.376974 
L 393.613874 132.21245 
L 397.157375 124.649581 
L 400.704361 199.079599 
L 404.286189 154.699027 
L 407.773943 144.703805 
L 411.279117 146.148876 
L 414.763386 169.936145 
L 418.254623 141.244045 
L 421.745861 156.269742 
L 425.223161 149.971243 
L 428.710914 150.601654 
L 432.202152 161.21559 
L 435.693389 208.533511 
L 439.198564 164.391887 
L 442.689801 154.266974 
L 446.14968 130.400344 
L 449.640918 142.615383 
L 453.125187 131.519141 
L 456.619908 138.331021 
L 460.11463 117.41459 
L 463.602383 138.090057 
L 467.086652 139.802954 
L 470.57789 126.082323 
L 474.062159 102.446942 
L 477.553396 116.857058 
L 481.041149 105.615882 
L 484.528902 108.225565 
L 488.013171 120.925403 
L 491.49744 127.730122 
L 494.985193 139.838768 
L 498.469462 149.758038 
L 501.953731 117.816649 
L 505.455421 136.462123 
L 508.971049 136.032231 
L 512.469255 88.407647 
L 515.963976 74.603418 
L 519.45173 75.69285 
L 522.935998 73.391342 
L 526.413299 78.064393 
L 529.876662 77.964041 
L 533.371384 89.316692 
L 536.8452 72.285223 
L 540.325985 76.839866 
L 543.813738 75.732967 
L 547.298007 71.124849 
L 550.782276 70.003228 
L 554.266544 70.002779 
L 557.750813 73.455956 
L 561.235082 71.155221 
L 564.722835 72.277313 
L 568.210589 72.319854 
L 571.694858 73.44597 
L 575.179126 74.524316 
L 578.722628 191.886412 
L 582.607588 153.802114 
L 586.123215 73.422578 
L 589.610968 71.130623 
L 593.102206 70.003155 
L 596.586475 72.247503 
L 600.074228 73.381703 
L 603.558497 72.268895 
L 607.053218 90.617044 
L 610.537487 195.959148 
L 614.02524 125.784375 
L 617.593132 73.412002 
L 621.080885 73.419889 
L 624.446689 154.251957 
L 627.805524 81.48863 
L 631.289793 77.986132 
L 634.774062 72.301367 
L 638.261815 73.454937 
L 641.746084 71.135637 
L 645.237321 71.12739 
L 648.72159 71.144168 
L 652.205859 71.135276 
L 655.690128 77.884714 
L 659.177881 71.122739 
L 662.66215 71.121535 
L 666.146419 72.31923 
L 669.641141 71.127404 
L 669.641141 69.764898 
L 669.641141 69.764898 
L 666.146419 69.560569 
L 662.66215 69.765717 
L 659.177881 69.765532 
L 655.690128 68.605826 
L 652.205859 69.763682 
L 648.72159 69.761969 
L 645.237321 69.765222 
L 641.746084 69.76365 
L 638.261815 69.365453 
L 634.774062 69.567127 
L 631.289793 68.59648 
L 627.805524 67.987389 
L 624.446689 55.506596 
L 621.080885 69.377121 
L 617.593132 69.373117 
L 614.02524 60.393696 
L 610.537487 48.367875 
L 607.053218 66.42413 
L 603.558497 69.569039 
L 600.074228 69.378009 
L 596.586475 69.572718 
L 593.102206 69.957588 
L 589.610968 69.764149 
L 586.123215 69.371141 
L 582.607588 56.680775 
L 578.722628 50.70296 
L 575.179126 69.182817 
L 571.694858 69.367323 
L 568.210589 69.560366 
L 564.722835 69.568016 
L 561.235082 69.761079 
L 557.750813 69.365432 
L 554.266544 69.957614 
L 550.782276 69.957576 
L 547.298007 69.765335 
L 543.813738 68.975518 
L 540.325985 68.784884 
L 536.8452 69.566238 
L 533.371384 66.646951 
L 529.876662 68.592166 
L 526.413299 68.575081 
L 522.935998 69.376373 
L 519.45173 68.981609 
L 515.963976 69.168456 
L 512.469255 66.800771 
L 508.971049 59.187914 
L 505.455421 58.558318 
L 501.953731 61.756216 
L 498.469462 56.277361 
L 494.985193 57.978935 
L 491.49744 60.055799 
L 488.013171 61.223204 
L 484.528902 63.949129 
L 481.041149 64.406447 
L 477.553396 63.572279 
L 474.062159 64.950016 
L 470.57789 60.339179 
L 467.086652 59.654589 
L 463.602383 58.834402 
L 460.11463 63.499685 
L 456.619908 58.79413 
L 453.125187 59.960866 
L 449.640918 59.176157 
L 446.14968 60.160725 
L 442.689801 58.273094 
L 439.198564 56.000782 
L 435.693389 53.394656 
L 432.202152 57.10585 
L 428.710914 58.923878 
L 425.223161 57.927893 
L 421.745861 57.409459 
L 418.254623 59.983118 
L 414.763386 56.181486 
L 411.279117 60.827464 
L 407.773943 61.02371 
L 404.286189 63.220051 
L 400.704361 57.239262 
L 397.157375 63.33333 
L 393.613874 60.392291 
L 390.098246 62.816139 
L 386.547776 63.757066 
L 383.021696 64.059107 
L 379.373667 63.992644 
L 375.844102 60.295365 
L 372.311054 60.807983 
L 368.760584 61.998616 
L 365.178755 60.754624 
L 361.603895 60.607391 
L 358.091752 63.417127 
L 354.576125 65.434436 
L 351.077919 65.342535 
L 347.537902 64.665452 
L 343.9944 61.457918 
L 340.433477 56.826835 
L 336.889976 57.675472 
L 333.374349 59.75316 
L 329.844784 65.296805 
L 326.235082 67.821781 
L 322.719454 67.054892 
L 319.168984 66.854427 
L 315.569735 68.396739 
L 312.019265 68.200051 
L 308.458342 68.201555 
L 304.900903 67.31213 
L 301.31559 65.678122 
L 297.712856 65.500579 
L 294.07528 65.883789 
L 290.545715 64.13369 
L 286.92556 62.394421 
L 283.267078 60.355696 
L 279.713123 69.175672 
L 276.190527 68.394129 
L 272.647026 68.012861 
L 269.120946 68.201595 
L 265.584413 68.601062 
L 262.082723 68.778292 
L 258.553158 69.372414 
L 255.034047 68.777609 
L 251.528872 67.02616 
L 248.030666 68.377726 
L 244.525492 68.967933 
L 241.013348 69.844606 
L 237.487268 68.411963 
L 233.982094 67.987269 
L 230.490856 69.17799 
L 226.971745 68.986891 
L 223.445665 69.175401 
L 219.926553 68.988864 
L 216.396989 68.199994 
L 212.884846 68.972899 
L 209.393608 68.386503 
L 205.877981 69.367538 
L 202.365838 68.396205 
L 198.853695 69.181589 
L 195.341552 69.342468 
L 191.829409 67.429081 
L 188.306813 68.781284 
L 184.791185 68.010253 
L 181.247684 66.658648 
L 177.707667 68.390907 
L 174.185071 68.382547 
L 170.606727 64.666343 
L 167.059741 68.538206 
L 163.502302 67.497079 
L 159.864726 64.673888 
L 156.255023 64.16667 
L 152.544277 62.787287 
L 148.80914 61.174774 
L 144.920696 60.262049 
L 140.903334 52.857855 
L 136.938236 59.352285 
L 132.934811 70.539521 
L 128.917449 96.170465 
L 124.980225 146.079428 
L 121.192825 195.843379 
L 117.367098 239.832978 
L 113.746942 289.775695 
L 109.994385 313.177012 
L 106.158205 320.291809 
L 102.325509 320.06015 
L 98.534624 334.872729 
L 94.949312 341.511614 
L 91.182817 336.108897 
L 87.573114 346.463301 
L 84.144594 344.458124 
L 80.597608 338.937124 
z
" clip-path="url(#pf66f21c4d6)" style="fill: #ff7f0e; fill-opacity: 0.2"/>
   </g>
   <g id="FillBetweenPolyCollection_3">
    <path d="M 80.649872 331.181563 
L 80.649872 357.27283 
L 84.308354 356.894196 
L 88.154987 357.52059 
L 92.064337 357.593861 
L 95.980655 357.183075 
L 99.84471 357.85908 
L 103.806323 357.539367 
L 107.816717 356.320188 
L 111.760909 359.119994 
L 115.684196 358.117183 
L 119.628388 358.356602 
L 123.527285 359.844307 
L 127.488899 361.783403 
L 131.44006 362.300379 
L 135.436516 354.144134 
L 139.401614 347.694161 
L 143.412008 333.697526 
L 147.105333 284.079986 
L 150.746394 244.205343 
L 154.335191 191.80099 
L 157.645246 142.52707 
L 160.718372 125.770487 
L 163.770591 111.858514 
L 166.735704 98.025921 
L 169.603257 102.658461 
L 172.488232 84.414455 
L 175.35927 87.840238 
L 178.233791 95.204078 
L 181.177999 96.561748 
L 184.073426 78.793501 
L 186.937495 78.774168 
L 189.766721 84.044769 
L 192.623822 72.536937 
L 195.439111 78.177317 
L 198.250916 75.971852 
L 201.114985 81.577215 
L 203.947696 74.164131 
L 206.780407 70.185048 
L 209.588727 74.792301 
L 212.410985 72.523641 
L 215.254148 73.664638 
L 218.069438 77.034448 
L 220.891696 77.088683 
L 223.693048 76.397688 
L 226.497884 74.803557 
L 229.292268 71.367834 
L 232.100589 70.268154 
L 234.922846 113.399857 
L 237.724199 87.275362 
L 240.525551 70.20028 
L 243.31645 74.830099 
L 246.128255 71.339752 
L 248.926123 75.92035 
L 251.713538 74.783435 
L 254.591544 71.326249 
L 257.413802 81.522807 
L 260.249997 73.592617 
L 263.197689 166.221358 
L 266.671505 160.759701 
L 269.786441 88.739615 
L 272.62612 81.574079 
L 275.573812 163.319503 
L 279.019754 149.93737 
L 281.911697 90.333466 
L 284.75486 119.031993 
L 287.587571 120.821153 
L 290.441187 106.358431 
L 293.284351 106.578881 
L 296.106608 125.069971 
L 298.914929 206.457605 
L 301.733703 184.02738 
L 304.548992 221.832852 
L 307.37125 234.537073 
L 310.183055 262.83188 
L 313.622028 322.228541 
L 316.946021 313.94618 
L 320.088831 314.13383 
L 323.134082 303.11645 
L 326.113132 296.096579 
L 329.092182 278.829416 
L 331.994578 305.637656 
L 334.987565 309.218427 
L 338.015395 263.510092 
L 341.060646 249.856388 
L 344.01879 210.12535 
L 347.07101 237.837785 
L 350.133682 215.137981 
L 353.119701 198.462089 
L 356.074361 203.21775 
L 359.032505 188.494963 
L 362.098662 208.902913 
L 365.150881 237.145748 
L 368.335503 263.569921 
L 371.572389 290.692829 
L 374.861539 325.595334 
L 378.136751 304.894224 
L 381.366669 301.295085 
L 384.60007 314.607446 
L 387.81605 320.422381 
L 390.983251 312.641585 
L 394.05986 317.338398 
L 397.115564 333.67268 
L 400.06674 330.54698 
L 402.990041 323.937822 
L 405.958638 320.579549 
L 408.934204 334.400379 
L 411.833116 346.394579 
L 414.843524 344.475062 
L 417.759857 347.812542 
L 420.603021 355.323883 
L 423.4427 352.964095 
L 426.393876 363.174146 
L 429.317177 372.801818 
L 432.223057 360.866692 
L 435.101064 349.98995 
L 437.944227 358.140521 
L 440.815265 355.326559 
L 443.679334 338.527495 
L 446.53295 338.130537 
L 449.491094 305.791436 
L 452.424849 302.182732 
L 455.365572 287.847904 
L 458.466571 292.302127 
L 461.452589 295.116283 
L 464.396797 347.002255 
L 467.323582 296.572827 
L 470.212041 298.446112 
L 473.090047 330.560135 
L 476.096972 310.800428 
L 479.00982 313.17453 
L 481.919185 304.975931 
L 484.80416 295.083845 
L 487.675197 298.094838 
L 490.560172 308.793746 
L 493.420757 333.782717 
L 496.302247 307.986687 
L 499.201159 296.645007 
L 502.110523 295.085113 
L 504.981561 293.219636 
L 507.814271 294.872688 
L 510.653951 293.438735 
L 513.577252 360.4159 
L 516.556302 354.887466 
L 519.434308 347.733284 
L 522.319283 315.279846 
L 525.19032 295.75934 
L 528.023031 306.631722 
L 530.866194 303.261019 
L 533.674515 298.54532 
L 536.597817 298.949395 
L 539.493244 293.375064 
L 542.346861 293.424836 
L 545.231835 293.392083 
L 548.085451 300.861718 
L 550.970426 291.709145 
L 553.911149 292.023542 
L 556.782187 292.277257 
L 559.639287 290.633551 
L 562.524262 292.466743 
L 565.416205 288.889212 
L 568.297695 292.49385 
L 571.119953 292.973711 
L 573.973569 292.25818 
L 576.827186 292.939117 
L 579.677318 292.359857 
L 582.506544 293.445247 
L 585.321833 289.398019 
L 588.447222 293.424233 
L 591.419304 345.036791 
L 594.349574 294.310433 
L 597.231064 293.653704 
L 600.23102 268.350926 
L 603.349441 271.110462 
L 606.429534 285.349874 
L 609.446911 287.617307 
L 612.443382 288.224317 
L 615.29003 293.666751 
L 618.26908 288.321498 
L 621.19935 342.973617 
L 624.133105 326.823637 
L 626.990205 294.889451 
L 629.913507 308.609716 
L 632.840293 296.600176 
L 635.83328 288.918139 
L 638.794908 294.797011 
L 641.679883 297.067974 
L 644.589247 296.224945 
L 647.442864 296.70333 
L 650.414945 342.822738 
L 653.362636 306.36935 
L 656.265032 298.685944 
L 659.313768 307.808069 
L 662.285849 287.045721 
L 665.226572 292.868487 
L 668.094125 290.694794 
L 670.9791 293.923245 
L 670.9791 29.451771 
L 670.9791 29.451771 
L 668.094125 28.895423 
L 665.226572 28.521086 
L 662.285849 30.619051 
L 659.313768 47.340284 
L 656.265032 39.58628 
L 653.362636 43.239457 
L 650.414945 77.741045 
L 647.442864 32.268731 
L 644.589247 31.786951 
L 641.679883 32.726759 
L 638.794908 30.414001 
L 635.83328 28.651302 
L 632.840293 32.271575 
L 629.913507 44.429359 
L 626.990205 30.373002 
L 624.133105 62.217862 
L 621.19935 80.846127 
L 618.26908 29.301873 
L 615.29003 30.59324 
L 612.443382 30.418807 
L 609.446911 29.972675 
L 606.429534 30.36017 
L 603.349441 33.358824 
L 600.23102 33.287802 
L 597.231064 31.733046 
L 594.349574 33.783319 
L 591.419304 82.337909 
L 588.447222 38.330587 
L 585.321833 29.117589 
L 582.506544 28.974345 
L 579.677318 29.169082 
L 576.827186 28.511062 
L 573.973569 29.180654 
L 571.119953 28.50529 
L 568.297695 28.038182 
L 565.416205 29.760887 
L 562.524262 28.042968 
L 559.639287 28.906346 
L 556.782187 29.170947 
L 553.911149 30.315355 
L 550.970426 28.729571 
L 548.085451 36.445732 
L 545.231835 28.981438 
L 542.346861 28.976334 
L 539.493244 28.986494 
L 536.597817 34.605873 
L 533.674515 34.127914 
L 530.866194 38.792312 
L 528.023031 44.797621 
L 525.19032 31.317981 
L 522.319283 50.957256 
L 519.434308 84.785626 
L 516.556302 90.677217 
L 513.577252 97.825294 
L 510.653951 28.97626 
L 507.814271 30.387893 
L 504.981561 30.107025 
L 502.110523 31.991015 
L 499.201159 32.275768 
L 496.302247 43.494025 
L 493.420757 69.210347 
L 490.560172 44.410041 
L 487.675197 33.657205 
L 484.80416 31.981524 
L 481.919185 41.814414 
L 479.00982 51.33994 
L 476.096972 55.583652 
L 473.090047 72.510981 
L 470.212041 34.121608 
L 467.323582 33.402509 
L 464.396797 84.189111 
L 461.452589 30.867924 
L 458.466571 33.528324 
L 455.365572 34.297522 
L 452.424849 37.860798 
L 449.491094 50.898453 
L 446.53295 73.836611 
L 443.679334 75.415304 
L 440.815265 91.128076 
L 437.944227 93.925478 
L 435.101064 87.104925 
L 432.223057 96.733103 
L 429.317177 109.999711 
L 426.393876 101.780114 
L 423.4427 91.495419 
L 420.603021 93.826604 
L 417.759857 86.345005 
L 414.843524 103.882891 
L 411.833116 122.685392 
L 408.934204 71.664649 
L 405.958638 56.532445 
L 402.990041 59.800249 
L 400.06674 69.064994 
L 397.115564 69.617221 
L 394.05986 56.012352 
L 390.983251 55.185193 
L 387.81605 76.231517 
L 384.60007 61.394772 
L 381.366669 56.008626 
L 378.136751 63.584754 
L 374.861539 86.808561 
L 371.572389 66.557878 
L 368.335503 61.93552 
L 365.150881 61.598771 
L 362.098662 58.728318 
L 359.032505 60.605703 
L 356.074361 56.970915 
L 353.119701 56.153765 
L 350.133682 54.395797 
L 347.07101 58.686233 
L 344.01879 51.982742 
L 341.060646 58.830002 
L 338.015395 60.320536 
L 334.987565 78.179086 
L 331.994578 67.947432 
L 329.092182 46.779606 
L 326.113132 55.893799 
L 323.134082 69.429526 
L 320.088831 79.047658 
L 316.946021 73.605234 
L 313.622028 83.126818 
L 310.183055 64.376506 
L 307.37125 51.717534 
L 304.548992 57.195126 
L 301.733703 52.691245 
L 298.914929 53.267486 
L 296.106608 59.504971 
L 293.284351 59.924976 
L 290.441187 61.062606 
L 287.587571 58.033464 
L 284.75486 58.890591 
L 281.911697 63.805054 
L 279.019754 58.525938 
L 275.573812 53.516089 
L 272.62612 64.214878 
L 269.786441 63.53344 
L 266.671505 55.036184 
L 263.197689 51.355142 
L 260.249997 65.585528 
L 257.413802 64.222661 
L 254.591544 65.975425 
L 251.713538 65.380509 
L 248.926123 65.182303 
L 246.128255 65.968628 
L 243.31645 65.369394 
L 240.525551 66.163878 
L 237.724199 63.235499 
L 234.922846 58.755057 
L 232.100589 66.153575 
L 229.292268 65.964101 
L 226.497884 65.374315 
L 223.693048 65.650802 
L 220.891696 64.983362 
L 218.069438 64.99238 
L 215.254148 65.570883 
L 212.410985 65.766578 
L 209.588727 65.376653 
L 206.780407 66.168176 
L 203.947696 66.034344 
L 201.114985 64.214746 
L 198.250916 65.176224 
L 195.439111 64.796696 
L 192.623822 65.765152 
L 189.766721 63.791193 
L 186.937495 65.2506 
L 184.073426 65.239002 
L 181.177999 61.647319 
L 178.233791 61.880472 
L 175.35927 63.694892 
L 172.488232 64.280962 
L 169.603257 61.162566 
L 166.735704 61.95579 
L 163.770591 59.588367 
L 160.718372 58.861758 
L 157.645246 57.095503 
L 154.335191 58.037745 
L 150.746394 67.763206 
L 147.105333 101.311307 
L 143.412008 142.283098 
L 139.401614 187.62921 
L 135.436516 224.077653 
L 131.44006 242.816606 
L 127.488899 271.118978 
L 123.527285 297.996074 
L 119.628388 312.472371 
L 115.684196 315.993218 
L 111.760909 311.984646 
L 107.816717 331.682459 
L 103.806323 330.284734 
L 99.84471 324.115864 
L 95.980655 334.823085 
L 92.064337 331.716046 
L 88.154987 334.03038 
L 84.308354 338.702613 
L 80.649872 331.181563 
z
" clip-path="url(#pf66f21c4d6)" style="fill: #2ca02c; fill-opacity: 0.2"/>
   </g>
   <g id="FillBetweenPolyCollection_4">
    <path d="M 80.458237 347.206631 
L 80.458237 359.668852 
L 83.719513 358.850859 
L 86.966852 359.213855 
L 90.141021 358.933945 
L 93.381391 359.586379 
L 96.597371 358.872295 
L 99.834257 358.93987 
L 103.133859 358.878962 
L 106.311513 359.106036 
L 109.618084 358.961981 
L 112.910718 358.33679 
L 116.130182 358.666293 
L 119.31132 358.957318 
L 122.617891 358.589609 
L 125.934915 358.828578 
L 129.286782 359.262275 
L 132.593353 358.708161 
L 135.802365 359.436034 
L 139.108936 358.394104 
L 142.443381 358.418279 
L 145.809185 358.555275 
L 149.046071 358.955877 
L 152.272504 359.64508 
L 155.64876 359.642012 
L 158.976237 358.601523 
L 162.303714 359.375051 
L 165.474399 359.581731 
L 168.812328 358.906327 
L 172.038761 359.343771 
L 175.317458 358.507173 
L 178.57525 358.820532 
L 181.874852 358.504353 
L 185.087348 358.978723 
L 188.226675 358.900984 
L 191.690038 358.811483 
L 194.968735 358.866787 
L 198.261369 358.235209 
L 201.491286 358.724324 
L 204.682877 358.658403 
L 207.930215 358.995264 
L 211.250724 358.580174 
L 214.532905 358.661637 
L 217.752369 358.93971 
L 221.086815 359.436464 
L 224.355059 358.659543 
L 227.665114 358.40976 
L 230.971686 359.071739 
L 234.313099 358.683768 
L 237.703293 359.109044 
L 240.947147 359.050461 
L 244.302498 359.060173 
L 247.539384 358.960744 
L 250.866861 358.438356 
L 254.138589 358.674781 
L 257.61589 358.49941 
L 260.828386 358.550919 
L 264.152378 358.942035 
L 267.584383 359.681478 
L 270.901407 358.440891 
L 274.145262 358.934769 
L 277.41699 359.637228 
L 280.646907 358.56703 
L 283.789718 359.675972 
L 287.117195 359.012935 
L 290.514357 359.161017 
L 293.824412 359.07197 
L 297.197185 358.568472 
L 300.402712 358.768787 
L 303.684893 359.041753 
L 306.872999 358.633421 
L 310.158665 358.866028 
L 313.430393 358.965843 
L 316.761355 358.52061 
L 319.97385 358.867461 
L 323.235126 358.290815 
L 326.548666 358.256496 
L 329.81691 358.972668 
L 333.168777 358.285446 
L 336.433537 358.519129 
L 339.694812 358.743439 
L 343.085006 359.098408 
L 346.457778 358.775344 
L 349.771318 358.393481 
L 353.067436 359.578209 
L 356.405366 358.506463 
L 359.732843 359.264252 
L 363.025477 359.932692 
L 366.370375 358.667435 
L 369.596808 358.980795 
L 372.875505 359.687985 
L 376.161171 359.002669 
L 379.38412 358.644187 
L 382.64888 358.654965 
L 385.871828 358.883955 
L 389.272475 358.642457 
L 392.568593 358.82028 
L 395.857743 359.006896 
L 399.024943 359.680774 
L 402.35242 358.916154 
L 405.488262 360.103598 
L 408.749538 358.916878 
L 412.167606 358.585225 
L 415.414944 358.698939 
L 418.679704 358.817293 
L 421.909622 359.017218 
L 425.226646 359.662427 
L 428.414752 358.741032 
L 431.700417 358.525797 
L 435.010473 358.614223 
L 438.365824 358.394895 
L 441.599225 358.886926 
L 444.759457 358.879079 
L 448.003311 358.642721 
L 451.22626 358.970695 
L 454.271511 358.61727 
L 457.550208 358.491629 
L 460.828905 358.264928 
L 464.121539 359.041165 
L 467.483859 358.784474 
L 470.773009 358.991999 
L 474.034284 358.849349 
L 477.452352 358.575709 
L 480.776345 358.949512 
L 484.016715 359.115637 
L 487.330255 358.795779 
L 490.504423 358.519533 
L 493.699498 358.721939 
L 496.866698 359.342987 
L 500.155848 358.783014 
L 503.319565 359.070247 
L 506.493733 358.689094 
L 509.727135 358.514284 
L 513.047643 359.12508 
L 516.308919 358.217832 
L 519.63988 359.227663 
L 522.963873 358.226187 
L 526.291349 358.781284 
L 529.580499 358.484757 
L 532.901008 358.761838 
L 536.120472 359.527688 
L 539.305094 358.841617 
L 542.507137 359.838353 
L 545.705696 359.166043 
L 548.953034 359.421712 
L 552.182952 358.677915 
L 555.364089 359.323787 
L 558.594006 358.42914 
L 561.879672 358.614776 
L 565.008545 359.055088 
L 568.27679 359.10165 
L 571.600782 358.091625 
L 574.80631 359.184592 
L 577.9979 359.181597 
L 581.31144 358.804482 
L 584.701633 358.292553 
L 587.928066 358.998618 
L 591.279933 358.439 
L 594.520303 358.378231 
L 597.718862 358.95114 
L 600.941811 358.306341 
L 604.206571 359.647717 
L 607.457394 358.762467 
L 610.708216 358.635004 
L 613.83709 358.83211 
L 617.070491 358.674127 
L 620.408421 359.172868 
L 623.746351 359.110233 
L 627.105186 359.444504 
L 630.293292 358.539895 
L 633.693938 359.135529 
L 636.930824 358.543271 
L 640.171194 359.666947 
L 643.380206 359.712261 
L 646.543922 359.736152 
L 649.752934 358.824746 
L 652.982851 359.014812 
L 656.25458 358.88838 
L 659.561151 358.928928 
L 662.860753 358.183935 
L 666.146419 359.019695 
L 669.519191 359.030171 
L 669.519191 350.48352 
L 669.519191 350.48352 
L 666.146419 350.48732 
L 662.860753 354.987769 
L 659.561151 350.479259 
L 656.25458 350.480288 
L 652.982851 351.632386 
L 649.752934 351.880662 
L 646.543922 346.219702 
L 643.380206 345.979148 
L 640.171194 345.811571 
L 636.930824 352.549676 
L 633.693938 349.584302 
L 630.293292 352.712722 
L 627.105186 348.245041 
L 623.746351 348.096348 
L 620.408421 349.458327 
L 617.070491 352.843419 
L 613.83709 351.680279 
L 610.708216 352.808389 
L 607.457394 351.671222 
L 604.206571 347.142905 
L 600.941811 353.788584 
L 597.718862 350.457551 
L 594.520303 350.013617 
L 591.279933 354.018921 
L 587.928066 350.468148 
L 584.701633 353.903422 
L 581.31144 350.310982 
L 577.9979 348.093778 
L 574.80631 349.467052 
L 571.600782 352.309447 
L 568.27679 350.446828 
L 565.008545 349.516747 
L 561.879672 352.904086 
L 558.594006 353.83784 
L 555.364089 349.381571 
L 552.182952 352.543772 
L 548.953034 348.329158 
L 545.705696 349.40178 
L 542.507137 346.141941 
L 539.305094 351.60818 
L 536.120472 348.477455 
L 532.901008 351.578022 
L 529.580499 352.661029 
L 526.291349 352.752185 
L 522.963873 355.089635 
L 519.63988 348.286318 
L 516.308919 353.655685 
L 513.047643 349.336385 
L 509.727135 353.890941 
L 506.493733 351.716843 
L 503.319565 349.267939 
L 500.155848 351.744691 
L 496.866698 349.560585 
L 493.699498 351.535674 
L 490.504423 352.736026 
L 487.330255 351.678088 
L 484.016715 349.270111 
L 480.776345 351.65827 
L 477.452352 351.421171 
L 474.034284 351.621731 
L 470.773009 350.588623 
L 467.483859 351.596901 
L 464.121539 350.549199 
L 460.828905 349.75229 
L 457.550208 352.763416 
L 454.271511 352.850244 
L 451.22626 350.639829 
L 448.003311 353.259906 
L 444.759457 351.759674 
L 441.599225 351.725536 
L 438.365824 352.695551 
L 435.010473 352.821559 
L 431.700417 352.769322 
L 428.414752 351.663373 
L 425.226646 347.195127 
L 421.909622 350.696157 
L 418.679704 351.568412 
L 415.414944 351.468156 
L 412.167606 351.457366 
L 408.749538 350.432461 
L 405.488262 344.819594 
L 402.35242 350.411318 
L 399.024943 346.94849 
L 395.857743 351.631569 
L 392.568593 351.609819 
L 389.272475 351.688012 
L 385.871828 351.740748 
L 382.64888 352.85393 
L 379.38412 352.756004 
L 376.161171 350.48398 
L 372.875505 345.926679 
L 369.596808 350.590066 
L 366.370375 351.74345 
L 363.025477 344.850927 
L 359.732843 349.577777 
L 356.405366 352.765842 
L 353.067436 347.121844 
L 349.771318 353.873016 
L 346.457778 350.216472 
L 343.085006 349.226581 
L 339.694812 351.437583 
L 336.433537 352.757064 
L 333.168777 353.818016 
L 329.81691 349.253112 
L 326.548666 353.74931 
L 323.235126 353.814479 
L 319.97385 350.543266 
L 316.761355 350.045053 
L 313.430393 349.121711 
L 310.158665 350.458738 
L 306.872999 352.745982 
L 303.684893 349.318003 
L 300.402712 351.551817 
L 297.197185 352.719056 
L 293.824412 349.382922 
L 290.514357 347.976493 
L 287.117195 350.51672 
L 283.789718 346.188305 
L 280.646907 352.732183 
L 277.41699 345.742605 
L 274.145262 350.411074 
L 270.901407 352.538363 
L 267.584383 345.834059 
L 264.152378 350.549304 
L 260.828386 352.764577 
L 257.61589 353.863282 
L 254.138589 351.597993 
L 250.866861 352.66322 
L 247.539384 350.434513 
L 244.302498 350.539139 
L 240.947147 350.530645 
L 237.703293 349.260277 
L 234.313099 351.639748 
L 230.971686 349.498419 
L 227.665114 352.669712 
L 224.355059 351.413465 
L 221.086815 347.131094 
L 217.752369 350.428823 
L 214.532905 352.782497 
L 211.250724 352.717383 
L 207.930215 350.635986 
L 204.682877 352.696057 
L 201.491286 352.650729 
L 198.261369 353.726768 
L 194.968735 351.822758 
L 191.690038 351.690712 
L 188.226675 351.688468 
L 185.087348 350.560066 
L 181.874852 352.585682 
L 178.57525 351.662274 
L 175.317458 352.601069 
L 172.038761 348.26406 
L 168.812328 350.510778 
L 165.474399 347.258038 
L 162.303714 346.940364 
L 158.976237 352.90872 
L 155.64876 346.121626 
L 152.272504 346.020582 
L 149.046071 350.570538 
L 145.809185 353.899159 
L 142.443381 349.993442 
L 139.108936 353.836679 
L 135.802365 347.155727 
L 132.593353 351.540492 
L 129.286782 348.221897 
L 125.934915 350.291783 
L 122.617891 351.470222 
L 119.31132 351.470457 
L 116.130182 351.530755 
L 112.910718 354.164476 
L 109.618084 350.424563 
L 106.311513 349.249873 
L 103.133859 350.586097 
L 99.834257 350.543477 
L 96.597371 350.576224 
L 93.381391 347.31162 
L 90.141021 350.385987 
L 86.966852 349.340853 
L 83.719513 351.643498 
L 80.458237 347.206631 
z
" clip-path="url(#pf66f21c4d6)" style="fill: #d62728; fill-opacity: 0.2"/>
   </g>
   <g id="matplotlib.axis_1">
    <g id="xtick_1">
     <g id="line2d_1">
      <path d="M 78.824115 390.04 
L 78.824115 10.8 
" clip-path="url(#pf66f21c4d6)" style="fill: none; stroke: #b0b0b0; stroke-width: 0.8; stroke-linecap: square"/>
     </g>
     <g id="line2d_2">
      <defs>
       <path id="m4e8fcf2a42" d="M 0 0 
L 0 3.5 
" style="stroke: #000000; stroke-width: 0.8"/>
      </defs>
      <g>
       <use xlink:href="#m4e8fcf2a42" x="78.824115" y="390.04" style="stroke: #000000; stroke-width: 0.8"/>
      </g>
     </g>
     <g id="text_1">
      <!-- 0 -->
      <g transform="translate(75.642865 404.638438) scale(0.1 -0.1)">
       <defs>
        <path id="DejaVuSans-30" d="M 2034 4250 
Q 1547 4250 1301 3770 
Q 1056 3291 1056 2328 
Q 1056 1369 1301 889 
Q 1547 409 2034 409 
Q 2525 409 2770 889 
Q 3016 1369 3016 2328 
Q 3016 3291 2770 3770 
Q 2525 4250 2034 4250 
z
M 2034 4750 
Q 2819 4750 3233 4129 
Q 3647 3509 3647 2328 
Q 3647 1150 3233 529 
Q 2819 -91 2034 -91 
Q 1250 -91 836 529 
Q 422 1150 422 2328 
Q 422 3509 836 4129 
Q 1250 4750 2034 4750 
z
" transform="scale(0.015625)"/>
       </defs>
       <use xlink:href="#DejaVuSans-30"/>
      </g>
     </g>
    </g>
    <g id="xtick_2">
     <g id="line2d_3">
      <path d="M 165.930838 390.04 
L 165.930838 10.8 
" clip-path="url(#pf66f21c4d6)" style="fill: none; stroke: #b0b0b0; stroke-width: 0.8; stroke-linecap: square"/>
     </g>
     <g id="line2d_4">
      <g>
       <use xlink:href="#m4e8fcf2a42" x="165.930838" y="390.04" style="stroke: #000000; stroke-width: 0.8"/>
      </g>
     </g>
     <g id="text_2">
      <!-- 25000 -->
      <g transform="translate(150.024588 404.638438) scale(0.1 -0.1)">
       <defs>
        <path id="DejaVuSans-32" d="M 1228 531 
L 3431 531 
L 3431 0 
L 469 0 
L 469 531 
Q 828 903 1448 1529 
Q 2069 2156 2228 2338 
Q 2531 2678 2651 2914 
Q 2772 3150 2772 3378 
Q 2772 3750 2511 3984 
Q 2250 4219 1831 4219 
Q 1534 4219 1204 4116 
Q 875 4013 500 3803 
L 500 4441 
Q 881 4594 1212 4672 
Q 1544 4750 1819 4750 
Q 2544 4750 2975 4387 
Q 3406 4025 3406 3419 
Q 3406 3131 3298 2873 
Q 3191 2616 2906 2266 
Q 2828 2175 2409 1742 
Q 1991 1309 1228 531 
z
" transform="scale(0.015625)"/>
        <path id="DejaVuSans-35" d="M 691 4666 
L 3169 4666 
L 3169 4134 
L 1269 4134 
L 1269 2991 
Q 1406 3038 1543 3061 
Q 1681 3084 1819 3084 
Q 2600 3084 3056 2656 
Q 3513 2228 3513 1497 
Q 3513 744 3044 326 
Q 2575 -91 1722 -91 
Q 1428 -91 1123 -41 
Q 819 9 494 109 
L 494 744 
Q 775 591 1075 516 
Q 1375 441 1709 441 
Q 2250 441 2565 725 
Q 2881 1009 2881 1497 
Q 2881 1984 2565 2268 
Q 2250 2553 1709 2553 
Q 1456 2553 1204 2497 
Q 953 2441 691 2322 
L 691 4666 
z
" transform="scale(0.015625)"/>
       </defs>
       <use xlink:href="#DejaVuSans-32"/>
       <use xlink:href="#DejaVuSans-35" transform="translate(63.623047 0)"/>
       <use xlink:href="#DejaVuSans-30" transform="translate(127.246094 0)"/>
       <use xlink:href="#DejaVuSans-30" transform="translate(190.869141 0)"/>
       <use xlink:href="#DejaVuSans-30" transform="translate(254.492188 0)"/>
      </g>
     </g>
    </g>
    <g id="xtick_3">
     <g id="line2d_5">
      <path d="M 253.03756 390.04 
L 253.03756 10.8 
" clip-path="url(#pf66f21c4d6)" style="fill: none; stroke: #b0b0b0; stroke-width: 0.8; stroke-linecap: square"/>
     </g>
     <g id="line2d_6">
      <g>
       <use xlink:href="#m4e8fcf2a42" x="253.03756" y="390.04" style="stroke: #000000; stroke-width: 0.8"/>
      </g>
     </g>
     <g id="text_3">
      <!-- 50000 -->
      <g transform="translate(237.13131 404.638438) scale(0.1 -0.1)">
       <use xlink:href="#DejaVuSans-35"/>
       <use xlink:href="#DejaVuSans-30" transform="translate(63.623047 0)"/>
       <use xlink:href="#DejaVuSans-30" transform="translate(127.246094 0)"/>
       <use xlink:href="#DejaVuSans-30" transform="translate(190.869141 0)"/>
       <use xlink:href="#DejaVuSans-30" transform="translate(254.492188 0)"/>
      </g>
     </g>
    </g>
    <g id="xtick_4">
     <g id="line2d_7">
      <path d="M 340.144283 390.04 
L 340.144283 10.8 
" clip-path="url(#pf66f21c4d6)" style="fill: none; stroke: #b0b0b0; stroke-width: 0.8; stroke-linecap: square"/>
     </g>
     <g id="line2d_8">
      <g>
       <use xlink:href="#m4e8fcf2a42" x="340.144283" y="390.04" style="stroke: #000000; stroke-width: 0.8"/>
      </g>
     </g>
     <g id="text_4">
      <!-- 75000 -->
      <g transform="translate(324.238033 404.638438) scale(0.1 -0.1)">
       <defs>
        <path id="DejaVuSans-37" d="M 525 4666 
L 3525 4666 
L 3525 4397 
L 1831 0 
L 1172 0 
L 2766 4134 
L 525 4134 
L 525 4666 
z
" transform="scale(0.015625)"/>
       </defs>
       <use xlink:href="#DejaVuSans-37"/>
       <use xlink:href="#DejaVuSans-35" transform="translate(63.623047 0)"/>
       <use xlink:href="#DejaVuSans-30" transform="translate(127.246094 0)"/>
       <use xlink:href="#DejaVuSans-30" transform="translate(190.869141 0)"/>
       <use xlink:href="#DejaVuSans-30" transform="translate(254.492188 0)"/>
      </g>
     </g>
    </g>
    <g id="xtick_5">
     <g id="line2d_9">
      <path d="M 427.251006 390.04 
L 427.251006 10.8 
" clip-path="url(#pf66f21c4d6)" style="fill: none; stroke: #b0b0b0; stroke-width: 0.8; stroke-linecap: square"/>
     </g>
     <g id="line2d_10">
      <g>
       <use xlink:href="#m4e8fcf2a42" x="427.251006" y="390.04" style="stroke: #000000; stroke-width: 0.8"/>
      </g>
     </g>
     <g id="text_5">
      <!-- 100000 -->
      <g transform="translate(408.163506 404.638438) scale(0.1 -0.1)">
       <defs>
        <path id="DejaVuSans-31" d="M 794 531 
L 1825 531 
L 1825 4091 
L 703 3866 
L 703 4441 
L 1819 4666 
L 2450 4666 
L 2450 531 
L 3481 531 
L 3481 0 
L 794 0 
L 794 531 
z
" transform="scale(0.015625)"/>
       </defs>
       <use xlink:href="#DejaVuSans-31"/>
       <use xlink:href="#DejaVuSans-30" transform="translate(63.623047 0)"/>
       <use xlink:href="#DejaVuSans-30" transform="translate(127.246094 0)"/>
       <use xlink:href="#DejaVuSans-30" transform="translate(190.869141 0)"/>
       <use xlink:href="#DejaVuSans-30" transform="translate(254.492188 0)"/>
       <use xlink:href="#DejaVuSans-30" transform="translate(318.115234 0)"/>
      </g>
     </g>
    </g>
    <g id="xtick_6">
     <g id="line2d_11">
      <path d="M 514.357728 390.04 
L 514.357728 10.8 
" clip-path="url(#pf66f21c4d6)" style="fill: none; stroke: #b0b0b0; stroke-width: 0.8; stroke-linecap: square"/>
     </g>
     <g id="line2d_12">
      <g>
       <use xlink:href="#m4e8fcf2a42" x="514.357728" y="390.04" style="stroke: #000000; stroke-width: 0.8"/>
      </g>
     </g>
     <g id="text_6">
      <!-- 125000 -->
      <g transform="translate(495.270228 404.638438) scale(0.1 -0.1)">
       <use xlink:href="#DejaVuSans-31"/>
       <use xlink:href="#DejaVuSans-32" transform="translate(63.623047 0)"/>
       <use xlink:href="#DejaVuSans-35" transform="translate(127.246094 0)"/>
       <use xlink:href="#DejaVuSans-30" transform="translate(190.869141 0)"/>
       <use xlink:href="#DejaVuSans-30" transform="translate(254.492188 0)"/>
       <use xlink:href="#DejaVuSans-30" transform="translate(318.115234 0)"/>
      </g>
     </g>
    </g>
    <g id="xtick_7">
     <g id="line2d_13">
      <path d="M 601.464451 390.04 
L 601.464451 10.8 
" clip-path="url(#pf66f21c4d6)" style="fill: none; stroke: #b0b0b0; stroke-width: 0.8; stroke-linecap: square"/>
     </g>
     <g id="line2d_14">
      <g>
       <use xlink:href="#m4e8fcf2a42" x="601.464451" y="390.04" style="stroke: #000000; stroke-width: 0.8"/>
      </g>
     </g>
     <g id="text_7">
      <!-- 150000 -->
      <g transform="translate(582.376951 404.638438) scale(0.1 -0.1)">
       <use xlink:href="#DejaVuSans-31"/>
       <use xlink:href="#DejaVuSans-35" transform="translate(63.623047 0)"/>
       <use xlink:href="#DejaVuSans-30" transform="translate(127.246094 0)"/>
       <use xlink:href="#DejaVuSans-30" transform="translate(190.869141 0)"/>
       <use xlink:href="#DejaVuSans-30" transform="translate(254.492188 0)"/>
       <use xlink:href="#DejaVuSans-30" transform="translate(318.115234 0)"/>
      </g>
     </g>
    </g>
    <g id="xtick_8">
     <g id="line2d_15">
      <path d="M 688.571174 390.04 
L 688.571174 10.8 
" clip-path="url(#pf66f21c4d6)" style="fill: none; stroke: #b0b0b0; stroke-width: 0.8; stroke-linecap: square"/>
     </g>
     <g id="line2d_16">
      <g>
       <use xlink:href="#m4e8fcf2a42" x="688.571174" y="390.04" style="stroke: #000000; stroke-width: 0.8"/>
      </g>
     </g>
     <g id="text_8">
      <!-- 175000 -->
      <g transform="translate(669.483674 404.638438) scale(0.1 -0.1)">
       <use xlink:href="#DejaVuSans-31"/>
       <use xlink:href="#DejaVuSans-37" transform="translate(63.623047 0)"/>
       <use xlink:href="#DejaVuSans-35" transform="translate(127.246094 0)"/>
       <use xlink:href="#DejaVuSans-30" transform="translate(190.869141 0)"/>
       <use xlink:href="#DejaVuSans-30" transform="translate(254.492188 0)"/>
       <use xlink:href="#DejaVuSans-30" transform="translate(318.115234 0)"/>
      </g>
     </g>
    </g>
    <g id="text_9">
     <!-- Steps -->
     <g transform="translate(361.699209 418.316562) scale(0.1 -0.1)">
      <defs>
       <path id="DejaVuSans-53" d="M 3425 4513 
L 3425 3897 
Q 3066 4069 2747 4153 
Q 2428 4238 2131 4238 
Q 1616 4238 1336 4038 
Q 1056 3838 1056 3469 
Q 1056 3159 1242 3001 
Q 1428 2844 1947 2747 
L 2328 2669 
Q 3034 2534 3370 2195 
Q 3706 1856 3706 1288 
Q 3706 609 3251 259 
Q 2797 -91 1919 -91 
Q 1588 -91 1214 -16 
Q 841 59 441 206 
L 441 856 
Q 825 641 1194 531 
Q 1563 422 1919 422 
Q 2459 422 2753 634 
Q 3047 847 3047 1241 
Q 3047 1584 2836 1778 
Q 2625 1972 2144 2069 
L 1759 2144 
Q 1053 2284 737 2584 
Q 422 2884 422 3419 
Q 422 4038 858 4394 
Q 1294 4750 2059 4750 
Q 2388 4750 2728 4690 
Q 3069 4631 3425 4513 
z
" transform="scale(0.015625)"/>
       <path id="DejaVuSans-74" d="M 1172 4494 
L 1172 3500 
L 2356 3500 
L 2356 3053 
L 1172 3053 
L 1172 1153 
Q 1172 725 1289 603 
Q 1406 481 1766 481 
L 2356 481 
L 2356 0 
L 1766 0 
Q 1100 0 847 248 
Q 594 497 594 1153 
L 594 3053 
L 172 3053 
L 172 3500 
L 594 3500 
L 594 4494 
L 1172 4494 
z
" transform="scale(0.015625)"/>
       <path id="DejaVuSans-65" d="M 3597 1894 
L 3597 1613 
L 953 1613 
Q 991 1019 1311 708 
Q 1631 397 2203 397 
Q 2534 397 2845 478 
Q 3156 559 3463 722 
L 3463 178 
Q 3153 47 2828 -22 
Q 2503 -91 2169 -91 
Q 1331 -91 842 396 
Q 353 884 353 1716 
Q 353 2575 817 3079 
Q 1281 3584 2069 3584 
Q 2775 3584 3186 3129 
Q 3597 2675 3597 1894 
z
M 3022 2063 
Q 3016 2534 2758 2815 
Q 2500 3097 2075 3097 
Q 1594 3097 1305 2825 
Q 1016 2553 972 2059 
L 3022 2063 
z
" transform="scale(0.015625)"/>
       <path id="DejaVuSans-70" d="M 1159 525 
L 1159 -1331 
L 581 -1331 
L 581 3500 
L 1159 3500 
L 1159 2969 
Q 1341 3281 1617 3432 
Q 1894 3584 2278 3584 
Q 2916 3584 3314 3078 
Q 3713 2572 3713 1747 
Q 3713 922 3314 415 
Q 2916 -91 2278 -91 
Q 1894 -91 1617 61 
Q 1341 213 1159 525 
z
M 3116 1747 
Q 3116 2381 2855 2742 
Q 2594 3103 2138 3103 
Q 1681 3103 1420 2742 
Q 1159 2381 1159 1747 
Q 1159 1113 1420 752 
Q 1681 391 2138 391 
Q 2594 391 2855 752 
Q 3116 1113 3116 1747 
z
" transform="scale(0.015625)"/>
       <path id="DejaVuSans-73" d="M 2834 3397 
L 2834 2853 
Q 2591 2978 2328 3040 
Q 2066 3103 1784 3103 
Q 1356 3103 1142 2972 
Q 928 2841 928 2578 
Q 928 2378 1081 2264 
Q 1234 2150 1697 2047 
L 1894 2003 
Q 2506 1872 2764 1633 
Q 3022 1394 3022 966 
Q 3022 478 2636 193 
Q 2250 -91 1575 -91 
Q 1294 -91 989 -36 
Q 684 19 347 128 
L 347 722 
Q 666 556 975 473 
Q 1284 391 1588 391 
Q 1994 391 2212 530 
Q 2431 669 2431 922 
Q 2431 1156 2273 1281 
Q 2116 1406 1581 1522 
L 1381 1569 
Q 847 1681 609 1914 
Q 372 2147 372 2553 
Q 372 3047 722 3315 
Q 1072 3584 1716 3584 
Q 2034 3584 2315 3537 
Q 2597 3491 2834 3397 
z
" transform="scale(0.015625)"/>
      </defs>
      <use xlink:href="#DejaVuSans-53"/>
      <use xlink:href="#DejaVuSans-74" transform="translate(63.476562 0)"/>
      <use xlink:href="#DejaVuSans-65" transform="translate(102.685547 0)"/>
      <use xlink:href="#DejaVuSans-70" transform="translate(164.208984 0)"/>
      <use xlink:href="#DejaVuSans-73" transform="translate(227.685547 0)"/>
     </g>
    </g>
   </g>
   <g id="matplotlib.axis_2">
    <g id="ytick_1">
     <g id="line2d_17">
      <path d="M 50.87 363.086592 
L 700.508105 363.086592 
" clip-path="url(#pf66f21c4d6)" style="fill: none; stroke: #b0b0b0; stroke-width: 0.8; stroke-linecap: square"/>
     </g>
     <g id="line2d_18">
      <defs>
       <path id="ma557b0d397" d="M 0 0 
L -3.5 0 
" style="stroke: #000000; stroke-width: 0.8"/>
      </defs>
      <g>
       <use xlink:href="#ma557b0d397" x="50.87" y="363.086592" style="stroke: #000000; stroke-width: 0.8"/>
      </g>
     </g>
     <g id="text_10">
      <!-- 0 -->
      <g transform="translate(37.5075 366.885811) scale(0.1 -0.1)">
       <use xlink:href="#DejaVuSans-30"/>
      </g>
     </g>
    </g>
    <g id="ytick_2">
     <g id="line2d_19">
      <path d="M 50.87 307.541679 
L 700.508105 307.541679 
" clip-path="url(#pf66f21c4d6)" style="fill: none; stroke: #b0b0b0; stroke-width: 0.8; stroke-linecap: square"/>
     </g>
     <g id="line2d_20">
      <g>
       <use xlink:href="#ma557b0d397" x="50.87" y="307.541679" style="stroke: #000000; stroke-width: 0.8"/>
      </g>
     </g>
     <g id="text_11">
      <!-- 20 -->
      <g transform="translate(31.145 311.340897) scale(0.1 -0.1)">
       <use xlink:href="#DejaVuSans-32"/>
       <use xlink:href="#DejaVuSans-30" transform="translate(63.623047 0)"/>
      </g>
     </g>
    </g>
    <g id="ytick_3">
     <g id="line2d_21">
      <path d="M 50.87 251.996765 
L 700.508105 251.996765 
" clip-path="url(#pf66f21c4d6)" style="fill: none; stroke: #b0b0b0; stroke-width: 0.8; stroke-linecap: square"/>
     </g>
     <g id="line2d_22">
      <g>
       <use xlink:href="#ma557b0d397" x="50.87" y="251.996765" style="stroke: #000000; stroke-width: 0.8"/>
      </g>
     </g>
     <g id="text_12">
      <!-- 40 -->
      <g transform="translate(31.145 255.795983) scale(0.1 -0.1)">
       <defs>
        <path id="DejaVuSans-34" d="M 2419 4116 
L 825 1625 
L 2419 1625 
L 2419 4116 
z
M 2253 4666 
L 3047 4666 
L 3047 1625 
L 3713 1625 
L 3713 1100 
L 3047 1100 
L 3047 0 
L 2419 0 
L 2419 1100 
L 313 1100 
L 313 1709 
L 2253 4666 
z
" transform="scale(0.015625)"/>
       </defs>
       <use xlink:href="#DejaVuSans-34"/>
       <use xlink:href="#DejaVuSans-30" transform="translate(63.623047 0)"/>
      </g>
     </g>
    </g>
    <g id="ytick_4">
     <g id="line2d_23">
      <path d="M 50.87 196.451851 
L 700.508105 196.451851 
" clip-path="url(#pf66f21c4d6)" style="fill: none; stroke: #b0b0b0; stroke-width: 0.8; stroke-linecap: square"/>
     </g>
     <g id="line2d_24">
      <g>
       <use xlink:href="#ma557b0d397" x="50.87" y="196.451851" style="stroke: #000000; stroke-width: 0.8"/>
      </g>
     </g>
     <g id="text_13">
      <!-- 60 -->
      <g transform="translate(31.145 200.25107) scale(0.1 -0.1)">
       <defs>
        <path id="DejaVuSans-36" d="M 2113 2584 
Q 1688 2584 1439 2293 
Q 1191 2003 1191 1497 
Q 1191 994 1439 701 
Q 1688 409 2113 409 
Q 2538 409 2786 701 
Q 3034 994 3034 1497 
Q 3034 2003 2786 2293 
Q 2538 2584 2113 2584 
z
M 3366 4563 
L 3366 3988 
Q 3128 4100 2886 4159 
Q 2644 4219 2406 4219 
Q 1781 4219 1451 3797 
Q 1122 3375 1075 2522 
Q 1259 2794 1537 2939 
Q 1816 3084 2150 3084 
Q 2853 3084 3261 2657 
Q 3669 2231 3669 1497 
Q 3669 778 3244 343 
Q 2819 -91 2113 -91 
Q 1303 -91 875 529 
Q 447 1150 447 2328 
Q 447 3434 972 4092 
Q 1497 4750 2381 4750 
Q 2619 4750 2861 4703 
Q 3103 4656 3366 4563 
z
" transform="scale(0.015625)"/>
       </defs>
       <use xlink:href="#DejaVuSans-36"/>
       <use xlink:href="#DejaVuSans-30" transform="translate(63.623047 0)"/>
      </g>
     </g>
    </g>
    <g id="ytick_5">
     <g id="line2d_25">
      <path d="M 50.87 140.906937 
L 700.508105 140.906937 
" clip-path="url(#pf66f21c4d6)" style="fill: none; stroke: #b0b0b0; stroke-width: 0.8; stroke-linecap: square"/>
     </g>
     <g id="line2d_26">
      <g>
       <use xlink:href="#ma557b0d397" x="50.87" y="140.906937" style="stroke: #000000; stroke-width: 0.8"/>
      </g>
     </g>
     <g id="text_14">
      <!-- 80 -->
      <g transform="translate(31.145 144.706156) scale(0.1 -0.1)">
       <defs>
        <path id="DejaVuSans-38" d="M 2034 2216 
Q 1584 2216 1326 1975 
Q 1069 1734 1069 1313 
Q 1069 891 1326 650 
Q 1584 409 2034 409 
Q 2484 409 2743 651 
Q 3003 894 3003 1313 
Q 3003 1734 2745 1975 
Q 2488 2216 2034 2216 
z
M 1403 2484 
Q 997 2584 770 2862 
Q 544 3141 544 3541 
Q 544 4100 942 4425 
Q 1341 4750 2034 4750 
Q 2731 4750 3128 4425 
Q 3525 4100 3525 3541 
Q 3525 3141 3298 2862 
Q 3072 2584 2669 2484 
Q 3125 2378 3379 2068 
Q 3634 1759 3634 1313 
Q 3634 634 3220 271 
Q 2806 -91 2034 -91 
Q 1263 -91 848 271 
Q 434 634 434 1313 
Q 434 1759 690 2068 
Q 947 2378 1403 2484 
z
M 1172 3481 
Q 1172 3119 1398 2916 
Q 1625 2713 2034 2713 
Q 2441 2713 2670 2916 
Q 2900 3119 2900 3481 
Q 2900 3844 2670 4047 
Q 2441 4250 2034 4250 
Q 1625 4250 1398 4047 
Q 1172 3844 1172 3481 
z
" transform="scale(0.015625)"/>
       </defs>
       <use xlink:href="#DejaVuSans-38"/>
       <use xlink:href="#DejaVuSans-30" transform="translate(63.623047 0)"/>
      </g>
     </g>
    </g>
    <g id="ytick_6">
     <g id="line2d_27">
      <path d="M 50.87 85.362023 
L 700.508105 85.362023 
" clip-path="url(#pf66f21c4d6)" style="fill: none; stroke: #b0b0b0; stroke-width: 0.8; stroke-linecap: square"/>
     </g>
     <g id="line2d_28">
      <g>
       <use xlink:href="#ma557b0d397" x="50.87" y="85.362023" style="stroke: #000000; stroke-width: 0.8"/>
      </g>
     </g>
     <g id="text_15">
      <!-- 100 -->
      <g transform="translate(24.7825 89.161242) scale(0.1 -0.1)">
       <use xlink:href="#DejaVuSans-31"/>
       <use xlink:href="#DejaVuSans-30" transform="translate(63.623047 0)"/>
       <use xlink:href="#DejaVuSans-30" transform="translate(127.246094 0)"/>
      </g>
     </g>
    </g>
    <g id="ytick_7">
     <g id="line2d_29">
      <path d="M 50.87 29.817109 
L 700.508105 29.817109 
" clip-path="url(#pf66f21c4d6)" style="fill: none; stroke: #b0b0b0; stroke-width: 0.8; stroke-linecap: square"/>
     </g>
     <g id="line2d_30">
      <g>
       <use xlink:href="#ma557b0d397" x="50.87" y="29.817109" style="stroke: #000000; stroke-width: 0.8"/>
      </g>
     </g>
     <g id="text_16">
      <!-- 120 -->
      <g transform="translate(24.7825 33.616328) scale(0.1 -0.1)">
       <use xlink:href="#DejaVuSans-31"/>
       <use xlink:href="#DejaVuSans-32" transform="translate(63.623047 0)"/>
       <use xlink:href="#DejaVuSans-30" transform="translate(127.246094 0)"/>
      </g>
     </g>
    </g>
    <g id="text_17">
     <!-- Reward -->
     <g transform="translate(18.702813 219.041094) rotate(-90) scale(0.1 -0.1)">
      <defs>
       <path id="DejaVuSans-52" d="M 2841 2188 
Q 3044 2119 3236 1894 
Q 3428 1669 3622 1275 
L 4263 0 
L 3584 0 
L 2988 1197 
Q 2756 1666 2539 1819 
Q 2322 1972 1947 1972 
L 1259 1972 
L 1259 0 
L 628 0 
L 628 4666 
L 2053 4666 
Q 2853 4666 3247 4331 
Q 3641 3997 3641 3322 
Q 3641 2881 3436 2590 
Q 3231 2300 2841 2188 
z
M 1259 4147 
L 1259 2491 
L 2053 2491 
Q 2509 2491 2742 2702 
Q 2975 2913 2975 3322 
Q 2975 3731 2742 3939 
Q 2509 4147 2053 4147 
L 1259 4147 
z
" transform="scale(0.015625)"/>
       <path id="DejaVuSans-77" d="M 269 3500 
L 844 3500 
L 1563 769 
L 2278 3500 
L 2956 3500 
L 3675 769 
L 4391 3500 
L 4966 3500 
L 4050 0 
L 3372 0 
L 2619 2869 
L 1863 0 
L 1184 0 
L 269 3500 
z
" transform="scale(0.015625)"/>
       <path id="DejaVuSans-61" d="M 2194 1759 
Q 1497 1759 1228 1600 
Q 959 1441 959 1056 
Q 959 750 1161 570 
Q 1363 391 1709 391 
Q 2188 391 2477 730 
Q 2766 1069 2766 1631 
L 2766 1759 
L 2194 1759 
z
M 3341 1997 
L 3341 0 
L 2766 0 
L 2766 531 
Q 2569 213 2275 61 
Q 1981 -91 1556 -91 
Q 1019 -91 701 211 
Q 384 513 384 1019 
Q 384 1609 779 1909 
Q 1175 2209 1959 2209 
L 2766 2209 
L 2766 2266 
Q 2766 2663 2505 2880 
Q 2244 3097 1772 3097 
Q 1472 3097 1187 3025 
Q 903 2953 641 2809 
L 641 3341 
Q 956 3463 1253 3523 
Q 1550 3584 1831 3584 
Q 2591 3584 2966 3190 
Q 3341 2797 3341 1997 
z
" transform="scale(0.015625)"/>
       <path id="DejaVuSans-72" d="M 2631 2963 
Q 2534 3019 2420 3045 
Q 2306 3072 2169 3072 
Q 1681 3072 1420 2755 
Q 1159 2438 1159 1844 
L 1159 0 
L 581 0 
L 581 3500 
L 1159 3500 
L 1159 2956 
Q 1341 3275 1631 3429 
Q 1922 3584 2338 3584 
Q 2397 3584 2469 3576 
Q 2541 3569 2628 3553 
L 2631 2963 
z
" transform="scale(0.015625)"/>
       <path id="DejaVuSans-64" d="M 2906 2969 
L 2906 4863 
L 3481 4863 
L 3481 0 
L 2906 0 
L 2906 525 
Q 2725 213 2448 61 
Q 2172 -91 1784 -91 
Q 1150 -91 751 415 
Q 353 922 353 1747 
Q 353 2572 751 3078 
Q 1150 3584 1784 3584 
Q 2172 3584 2448 3432 
Q 2725 3281 2906 2969 
z
M 947 1747 
Q 947 1113 1208 752 
Q 1469 391 1925 391 
Q 2381 391 2643 752 
Q 2906 1113 2906 1747 
Q 2906 2381 2643 2742 
Q 2381 3103 1925 3103 
Q 1469 3103 1208 2742 
Q 947 2381 947 1747 
z
" transform="scale(0.015625)"/>
      </defs>
      <use xlink:href="#DejaVuSans-52"/>
      <use xlink:href="#DejaVuSans-65" transform="translate(64.982422 0)"/>
      <use xlink:href="#DejaVuSans-77" transform="translate(126.505859 0)"/>
      <use xlink:href="#DejaVuSans-61" transform="translate(208.292969 0)"/>
      <use xlink:href="#DejaVuSans-72" transform="translate(269.572266 0)"/>
      <use xlink:href="#DejaVuSans-64" transform="translate(308.935547 0)"/>
     </g>
    </g>
   </g>
   <g id="line2d_31">
    <path d="M 80.399005 354.555845 
L 83.702092 355.393123 
L 86.911103 354.195502 
L 90.196769 353.197129 
L 93.6009 354.577147 
L 96.837785 353.035966 
L 100.10603 349.771623 
L 103.55894 343.950793 
L 107.057146 338.883945 
L 110.656396 330.496962 
L 114.300941 317.115935 
L 117.928065 297.883359 
L 121.447177 280.948039 
L 124.938414 262.920675 
L 128.325124 223.995468 
L 131.297205 183.817502 
L 137.178651 131.6665 
L 140.039236 108.302376 
L 142.910273 99.939009 
L 145.777827 101.21918 
L 148.603569 83.940166 
L 151.429311 85.831342 
L 154.2446 80.666143 
L 157.073826 84.896438 
L 159.899568 81.164365 
L 162.718342 79.250858 
L 165.519694 83.017704 
L 168.317562 77.382708 
L 171.132851 78.809842 
L 173.934204 79.74276 
L 176.718134 80.212521 
L 179.509034 77.383819 
L 182.31387 78.322945 
L 185.108254 77.84281 
L 187.909606 78.778511 
L 190.724895 75.976537 
L 193.519279 76.439628 
L 196.324116 76.421853 
L 199.118499 75.512943 
L 201.909399 75.029466 
L 204.721204 75.964719 
L 207.515587 77.873633 
L 210.320424 77.373965 
L 213.121776 75.975792 
L 215.923128 75.493929 
L 218.727965 75.950184 
L 221.525833 80.167751 
L 224.320216 74.545515 
L 229.926405 75.488575 
L 232.727757 78.770616 
L 235.518656 75.030196 
L 238.309556 76.446967 
L 241.103939 75.010045 
L 243.901807 75.016073 
L 246.699675 74.566062 
L 249.48709 75.033868 
L 252.291927 78.793693 
L 255.100248 75.53063 
L 257.817977 102.590055 
L 260.514802 84.071555 
L 263.284795 79.75212 
L 266.082663 95.024575 
L 268.633148 92.620077 
L 271.427532 76.46148 
L 274.221915 85.492939 
L 276.810727 109.285536 
L 279.524973 85.951812 
L 282.315872 80.672052 
L 285.124193 92.363855 
L 290.744319 86.739897 
L 293.559608 97.166896 
L 296.374897 98.348552 
L 299.176249 91.199382 
L 302.029866 112.151109 
L 305.629115 127.022581 
L 308.879938 93.152295 
L 311.75446 79.238376 
L 314.608076 85.245764 
L 317.538346 87.112989 
L 320.461648 91.755289 
L 323.329201 76.90028 
L 326.297798 123.385582 
L 329.290785 94.077123 
L 332.238477 88.509404 
L 335.102546 86.228699 
L 337.945709 78.280561 
L 340.799326 85.292119 
L 343.635521 83.396469 
L 346.471715 75.93817 
L 349.304426 81.095798 
L 352.112747 75.939605 
L 354.928036 78.264047 
L 357.753778 104.75175 
L 360.57952 156.120894 
L 363.380872 115.851927 
L 366.185709 91.428279 
L 368.990545 77.333361 
L 371.784929 74.556753 
L 374.711715 106.219565 
L 377.662891 89.49333 
L 380.509538 80.618009 
L 383.345733 78.743888 
L 386.167991 77.835317 
L 388.95889 80.162505 
L 391.795085 80.152815 
L 394.610375 79.205841 
L 397.418695 74.544888 
L 402.986557 78.300156 
L 405.808815 75.477497 
L 408.610167 80.627513 
L 411.446362 80.175311 
L 414.279073 81.062908 
L 417.115268 78.753258 
L 419.937525 77.351202 
L 422.808563 90.850745 
L 425.724896 90.38082 
L 428.630776 89.451924 
L 431.529688 82.47414 
L 434.351946 79.663403 
L 437.139361 86.376695 
L 439.923292 80.65921 
L 442.72116 76.906693 
L 445.539933 79.705514 
L 448.348254 75.965706 
L 451.146122 75.494515 
L 453.954443 75.953337 
L 456.766248 78.270717 
L 459.605927 79.202833 
L 462.417732 75.944429 
L 465.212115 74.077868 
L 468.030889 95.084512 
L 471.02736 165.969877 
L 473.915819 96.691339 
L 476.762467 80.649716 
L 479.58124 81.132756 
L 482.393045 78.786081 
L 485.225756 79.249336 
L 488.034077 86.648279 
L 490.838913 91.337432 
L 493.8319 101.648995 
L 496.765655 126.075828 
L 499.675019 89.539242 
L 502.521667 95.365292 
L 505.350893 87.355864 
L 508.173151 81.544966 
L 510.995409 76.435997 
L 513.807214 75.017642 
L 516.619019 76.430715 
L 519.42734 75.940104 
L 522.225208 74.076181 
L 525.040497 77.355645 
L 527.855786 75.969517 
L 530.667591 76.897652 
L 533.475912 75.475579 
L 536.27378 76.413799 
L 539.075132 92.428869 
L 542.141289 87.735838 
L 545.026263 76.889624 
L 550.646389 76.893594 
L 553.472131 75.976409 
L 556.263031 76.451503 
L 559.064383 74.57159 
L 561.907546 97.714471 
L 564.823879 83.501073 
L 567.653106 82.137559 
L 570.471879 76.903808 
L 573.294137 91.783303 
L 576.095489 77.369424 
L 578.924715 83.394154 
L 581.802722 145.265973 
L 584.631948 198.179596 
L 587.48208 125.797759 
L 590.335696 79.213839 
L 593.147501 76.412416 
L 595.969759 78.27962 
L 598.77808 75.022348 
L 601.61079 81.99795 
L 604.436532 80.597293 
L 607.286664 77.813032 
L 610.108922 79.223179 
L 612.910274 76.40628 
L 615.767375 86.236773 
L 618.631444 86.680922 
L 621.471123 86.214673 
L 624.300349 76.871818 
L 627.122607 76.87132 
L 629.941381 78.276668 
L 632.749702 75.950729 
L 635.561507 139.712099 
L 638.383764 131.250063 
L 641.202538 95.00031 
L 644.021311 77.812189 
L 646.843569 76.40268 
L 649.648406 75.937877 
L 652.463695 76.869926 
L 655.2755 79.18835 
L 658.122148 74.545855 
L 660.944406 85.708844 
L 663.811959 77.811217 
L 666.682996 101.079644 
L 669.696889 94.116066 
L 669.696889 94.116066 
" clip-path="url(#pf66f21c4d6)" style="fill: none; stroke: #1f77b4; stroke-width: 1.5; stroke-linecap: square"/>
   </g>
   <g id="line2d_32">
    <path d="M 80.597608 349.049436 
L 84.144594 351.084869 
L 87.573114 351.89547 
L 91.182817 347.375307 
L 94.949312 349.519341 
L 98.534624 346.787256 
L 102.325509 340.636295 
L 106.158205 340.201069 
L 109.994385 337.134527 
L 113.746942 326.31138 
L 117.367098 305.070999 
L 121.192825 277.618764 
L 124.980225 252.549256 
L 128.917449 215.760934 
L 132.934811 189.266833 
L 136.938236 169.382104 
L 140.903334 151.623325 
L 144.920696 125.587506 
L 148.80914 102.538321 
L 152.544277 92.151262 
L 156.255023 85.601206 
L 159.864726 82.742021 
L 163.502302 77.565276 
L 167.059741 76.604704 
L 170.606727 82.762593 
L 174.185071 73.785044 
L 177.707667 73.765274 
L 181.247684 77.950012 
L 184.791185 74.684794 
L 188.306813 72.822743 
L 191.829409 76.088836 
L 195.341552 74.72958 
L 198.853695 71.854811 
L 202.365838 73.752822 
L 205.877981 71.406363 
L 209.393608 73.776295 
L 212.884846 72.359303 
L 216.396989 74.226132 
L 219.926553 72.320926 
L 223.445665 71.869963 
L 226.971745 72.326043 
L 230.490856 71.864336 
L 233.982094 74.740596 
L 237.487268 73.71302 
L 241.013348 71.878325 
L 244.525492 72.371297 
L 248.030666 73.795715 
L 251.528872 77.061021 
L 255.034047 72.828781 
L 258.553158 71.393655 
L 262.082723 72.828925 
L 265.584413 73.257341 
L 269.120946 74.221349 
L 272.647026 74.677378 
L 276.190527 73.757467 
L 279.713123 71.869335 
L 283.267078 94.76247 
L 286.92556 88.244074 
L 294.07528 79.818419 
L 297.712856 80.743206 
L 301.31559 80.315963 
L 304.900903 77.973233 
L 308.458342 74.221647 
L 312.019265 74.225263 
L 315.569735 73.750359 
L 319.168984 77.474712 
L 322.719454 76.989846 
L 326.235082 75.137902 
L 329.844784 81.235741 
L 333.374349 101.075849 
L 336.889976 109.219273 
L 340.433477 106.492255 
L 343.9944 98.489143 
L 347.537902 89.1717 
L 351.077919 85.933513 
L 354.576125 87.320233 
L 358.091752 148.495843 
L 361.603895 123.010535 
L 365.178755 109.879718 
L 368.760584 105.230197 
L 372.311054 114.556671 
L 375.844102 98.143545 
L 379.373667 116.389299 
L 383.021696 106.647276 
L 386.547776 89.787415 
L 390.098246 100.096556 
L 393.613874 96.30237 
L 397.157375 93.991455 
L 400.704361 128.159431 
L 404.286189 108.959539 
L 407.773943 102.863757 
L 411.279117 103.48817 
L 414.763386 113.058815 
L 418.254623 100.613581 
L 421.745861 106.839601 
L 425.223161 103.949568 
L 428.710914 104.762766 
L 432.202152 109.16072 
L 435.693389 130.964084 
L 439.198564 110.196334 
L 442.689801 106.270034 
L 446.14968 95.280534 
L 449.640918 100.89577 
L 453.125187 95.740004 
L 456.619908 98.562575 
L 460.11463 90.457137 
L 463.602383 98.462229 
L 467.086652 99.728772 
L 470.57789 93.210751 
L 474.062159 83.698479 
L 477.553396 90.214668 
L 481.041149 85.011164 
L 484.528902 86.087347 
L 488.013171 91.074303 
L 491.49744 93.892961 
L 494.985193 98.908852 
L 498.469462 103.017699 
L 501.953731 89.786433 
L 505.455421 97.51022 
L 508.971049 97.610073 
L 512.469255 77.604209 
L 515.963976 71.885937 
L 519.45173 72.337229 
L 522.935998 71.383857 
L 526.413299 73.319737 
L 529.876662 73.278104 
L 533.371384 77.981822 
L 536.8452 70.92573 
L 540.325985 72.812375 
L 543.813738 72.354243 
L 547.298007 70.445092 
L 550.782276 69.980402 
L 554.266544 69.980196 
L 557.750813 71.410694 
L 561.235082 70.45815 
L 564.722835 70.922665 
L 568.210589 70.94011 
L 575.179126 71.853567 
L 578.722628 121.294686 
L 582.607588 105.241445 
L 586.123215 71.396859 
L 589.610968 70.447386 
L 593.102206 69.980371 
L 596.586475 70.910111 
L 600.074228 71.379856 
L 603.558497 70.918967 
L 607.053218 78.520587 
L 610.537487 122.163511 
L 614.02524 93.089035 
L 617.593132 71.39256 
L 621.080885 71.398505 
L 624.446689 104.879277 
L 627.805524 74.738009 
L 631.289793 73.291306 
L 634.774062 70.934247 
L 638.261815 71.410195 
L 641.746084 70.449643 
L 652.205859 70.449479 
L 655.690128 73.24527 
L 659.177881 70.444135 
L 662.66215 70.443626 
L 666.146419 70.939899 
L 669.641141 70.446151 
L 669.641141 70.446151 
" clip-path="url(#pf66f21c4d6)" style="fill: none; stroke: #ff7f0e; stroke-width: 1.5; stroke-linecap: square"/>
   </g>
   <g id="line2d_33">
    <path d="M 80.649872 344.227196 
L 84.308354 347.798405 
L 88.154987 345.775485 
L 92.064337 344.654954 
L 95.980655 346.00308 
L 99.84471 340.987472 
L 103.806323 343.912051 
L 107.816717 344.001324 
L 111.760909 335.55232 
L 115.684196 337.055201 
L 119.628388 335.414486 
L 123.527285 328.92019 
L 127.488899 316.45119 
L 131.44006 302.558492 
L 135.436516 289.110894 
L 139.401614 267.661685 
L 143.412008 237.990312 
L 147.105333 192.695646 
L 150.746394 155.984275 
L 154.335191 124.919367 
L 157.645246 99.811287 
L 160.718372 92.316123 
L 163.770591 85.72344 
L 166.735704 79.990856 
L 169.603257 81.910514 
L 172.488232 74.347708 
L 175.35927 75.767565 
L 178.233791 78.542275 
L 181.177999 79.104534 
L 184.073426 72.016252 
L 186.937495 72.012384 
L 189.766721 73.917981 
L 192.623822 69.151045 
L 195.439111 71.487006 
L 198.250916 70.574038 
L 201.114985 72.89598 
L 203.947696 70.099237 
L 206.780407 68.176612 
L 209.588727 70.084477 
L 212.410985 69.145109 
L 215.254148 69.617761 
L 218.069438 71.013414 
L 223.693048 71.024245 
L 226.497884 70.088936 
L 229.292268 68.665968 
L 232.100589 68.210865 
L 234.922846 86.077457 
L 237.724199 75.255431 
L 240.525551 68.182079 
L 243.31645 70.099746 
L 246.128255 68.65419 
L 248.926123 70.551327 
L 251.713538 70.081972 
L 254.591544 68.650837 
L 257.413802 72.872734 
L 260.249997 69.589073 
L 263.197689 108.78825 
L 266.671505 107.897942 
L 269.786441 76.136527 
L 272.62612 72.894479 
L 275.573812 108.417796 
L 279.019754 104.231654 
L 281.911697 77.06926 
L 284.75486 88.961292 
L 287.587571 89.427309 
L 290.441187 83.710518 
L 293.284351 83.251928 
L 296.106608 92.287471 
L 298.914929 129.862546 
L 301.733703 118.359312 
L 304.548992 139.513989 
L 307.37125 143.127304 
L 310.183055 163.604193 
L 313.622028 202.67768 
L 316.946021 193.775707 
L 320.088831 196.590744 
L 326.113132 175.995189 
L 329.092182 162.804511 
L 331.994578 186.792544 
L 334.987565 193.698757 
L 338.015395 161.915314 
L 341.060646 154.343195 
L 344.01879 131.054046 
L 347.07101 148.262009 
L 350.133682 134.766889 
L 353.119701 127.307927 
L 356.074361 130.094333 
L 359.032505 124.550333 
L 362.098662 133.815615 
L 365.150881 149.372259 
L 368.335503 162.752721 
L 371.572389 178.625354 
L 374.861539 206.201948 
L 378.136751 184.239489 
L 381.366669 178.651856 
L 384.60007 188.001109 
L 387.81605 198.326949 
L 390.983251 183.913389 
L 394.05986 186.675375 
L 397.115564 201.64495 
L 400.06674 199.805987 
L 402.990041 191.869035 
L 405.958638 188.555997 
L 408.934204 203.032514 
L 411.833116 234.539986 
L 414.843524 224.178977 
L 417.759857 217.078773 
L 420.603021 224.575243 
L 423.4427 222.229757 
L 426.393876 232.47713 
L 429.317177 241.400765 
L 432.223057 228.799897 
L 435.101064 218.547437 
L 437.944227 226.032999 
L 440.815265 223.227318 
L 443.679334 206.971399 
L 446.53295 205.983574 
L 449.491094 178.344944 
L 452.424849 170.021765 
L 455.365572 161.072713 
L 458.466571 162.915226 
L 461.452589 162.992104 
L 464.396797 215.595683 
L 467.323582 164.987668 
L 470.212041 166.28386 
L 473.090047 201.535558 
L 476.096972 183.19204 
L 479.00982 182.257235 
L 481.919185 173.395172 
L 484.80416 163.532684 
L 487.675197 165.876021 
L 490.560172 176.601893 
L 493.420757 201.496532 
L 496.302247 175.740356 
L 499.201159 164.460387 
L 502.110523 163.538064 
L 504.981561 161.663331 
L 507.814271 162.63029 
L 510.653951 161.207497 
L 513.577252 229.120597 
L 516.556302 222.782341 
L 519.434308 216.259455 
L 522.319283 183.118551 
L 525.19032 163.538661 
L 528.023031 175.714671 
L 533.674515 166.336617 
L 536.597817 166.777634 
L 539.493244 161.180779 
L 545.231835 161.18676 
L 548.085451 168.653725 
L 550.970426 160.219358 
L 553.911149 161.169449 
L 556.782187 160.724102 
L 559.639287 159.769948 
L 562.524262 160.254856 
L 565.416205 159.325049 
L 568.297695 160.266016 
L 571.119953 160.7395 
L 579.677318 160.76447 
L 582.506544 161.209796 
L 585.321833 159.257804 
L 588.447222 165.87741 
L 591.419304 213.68735 
L 594.349574 164.046876 
L 597.231064 162.693375 
L 600.23102 150.819364 
L 603.349441 152.234643 
L 606.429534 157.855022 
L 609.446911 158.794991 
L 612.443382 159.321562 
L 615.29003 162.129995 
L 618.26908 158.811686 
L 621.19935 211.909872 
L 624.133105 194.520749 
L 626.990205 162.631226 
L 629.913507 176.519538 
L 632.840293 164.435876 
L 635.83328 158.784721 
L 638.794908 162.605506 
L 641.679883 164.897366 
L 644.589247 164.005948 
L 647.442864 164.486031 
L 650.414945 210.281891 
L 653.362636 174.804403 
L 656.265032 169.136112 
L 659.313768 177.574176 
L 662.285849 158.832386 
L 665.226572 160.694787 
L 668.094125 159.795108 
L 670.9791 161.687508 
L 670.9791 161.687508 
" clip-path="url(#pf66f21c4d6)" style="fill: none; stroke: #2ca02c; stroke-width: 1.5; stroke-linecap: square"/>
   </g>
   <g id="line2d_34">
    <path d="M 80.458237 353.437741 
L 83.719513 355.247179 
L 86.966852 354.277354 
L 90.141021 354.659966 
L 93.381391 353.448999 
L 96.597371 354.724259 
L 103.133859 354.732529 
L 106.311513 354.177954 
L 109.618084 354.693272 
L 112.910718 356.250633 
L 116.130182 355.098524 
L 119.31132 355.213888 
L 122.617891 355.029916 
L 125.934915 354.56018 
L 129.286782 353.742086 
L 132.593353 355.124327 
L 135.802365 353.295881 
L 139.108936 356.115392 
L 142.443381 354.205861 
L 145.809185 356.227217 
L 149.046071 354.763207 
L 152.272504 352.832831 
L 155.64876 352.881819 
L 158.976237 355.755121 
L 162.303714 353.157707 
L 165.474399 353.419885 
L 168.812328 354.708552 
L 172.038761 353.803916 
L 175.317458 355.554121 
L 178.57525 355.241403 
L 181.874852 355.545018 
L 185.087348 354.769395 
L 188.226675 355.294726 
L 191.690038 355.251098 
L 194.968735 355.344773 
L 198.261369 355.980989 
L 201.491286 355.687526 
L 204.682877 355.67723 
L 207.930215 354.815625 
L 211.250724 355.648779 
L 214.532905 355.722067 
L 217.752369 354.684267 
L 221.086815 353.283779 
L 224.355059 355.036504 
L 227.665114 355.539736 
L 230.971686 354.285079 
L 234.313099 355.161758 
L 237.703293 354.184661 
L 240.947147 354.790553 
L 247.539384 354.697628 
L 250.866861 355.550788 
L 254.138589 355.136387 
L 257.61589 356.181346 
L 260.828386 355.657748 
L 264.152378 354.74567 
L 267.584383 352.757769 
L 270.901407 355.489627 
L 274.145262 354.672921 
L 277.41699 352.689916 
L 280.646907 355.649607 
L 283.789718 352.932138 
L 287.117195 354.764828 
L 290.514357 353.568755 
L 293.824412 354.227446 
L 297.197185 355.643764 
L 300.402712 355.160302 
L 303.684893 354.179878 
L 306.872999 355.689702 
L 310.158665 354.662383 
L 313.430393 354.043777 
L 316.761355 354.282831 
L 319.97385 354.705364 
L 323.235126 356.052647 
L 326.548666 356.002903 
L 329.81691 354.11289 
L 333.168777 356.051731 
L 336.433537 355.638096 
L 339.694812 355.090511 
L 343.085006 354.162494 
L 346.457778 354.495908 
L 349.771318 356.133248 
L 353.067436 353.350027 
L 356.405366 355.636152 
L 359.732843 354.421015 
L 363.025477 352.39181 
L 366.370375 355.205443 
L 369.596808 354.785431 
L 372.875505 352.807332 
L 376.161171 354.743324 
L 379.38412 355.700096 
L 382.64888 355.754448 
L 385.871828 355.312351 
L 389.272475 355.165234 
L 395.857743 355.319233 
L 399.024943 353.314632 
L 402.35242 354.663736 
L 405.488262 352.461596 
L 408.749538 354.67467 
L 412.167606 355.021296 
L 418.679704 355.192852 
L 421.909622 354.856687 
L 425.226646 353.428777 
L 428.414752 355.202203 
L 431.700417 355.64756 
L 435.010473 355.717891 
L 444.759457 355.319377 
L 448.003311 355.951313 
L 451.22626 354.805262 
L 454.271511 355.733757 
L 457.550208 355.627522 
L 460.828905 354.008609 
L 464.121539 354.795182 
L 467.483859 355.190687 
L 470.773009 354.790311 
L 474.034284 355.23554 
L 477.452352 354.99844 
L 480.776345 355.303891 
L 484.016715 354.192874 
L 487.330255 355.236934 
L 490.504423 355.627779 
L 493.699498 355.128806 
L 496.866698 354.451786 
L 500.155848 355.263852 
L 503.319565 354.169093 
L 509.727135 356.202613 
L 513.047643 354.230732 
L 516.308919 355.936758 
L 519.63988 353.756991 
L 522.963873 356.657911 
L 526.291349 355.766734 
L 529.580499 355.572893 
L 532.901008 355.16993 
L 536.120472 354.002571 
L 539.305094 355.224899 
L 542.507137 352.990147 
L 545.705696 354.283911 
L 548.953034 353.875435 
L 552.182952 355.610843 
L 555.364089 354.352679 
L 558.594006 356.13349 
L 561.879672 355.759431 
L 565.008545 354.285917 
L 571.600782 355.200536 
L 574.80631 354.325822 
L 577.9979 353.637687 
L 581.31144 354.557732 
L 584.701633 356.097988 
L 587.928066 354.733383 
L 591.279933 356.228961 
L 594.520303 354.195924 
L 597.718862 354.704345 
L 600.941811 356.047462 
L 604.206571 353.395311 
L 607.457394 355.216845 
L 610.708216 355.721697 
L 613.83709 355.256194 
L 617.070491 355.758773 
L 620.408421 354.315598 
L 623.746351 353.603291 
L 627.105186 353.844772 
L 630.293292 355.626309 
L 633.693938 354.359915 
L 636.930824 355.546473 
L 640.171194 352.739259 
L 646.543922 352.977927 
L 649.752934 355.352704 
L 652.982851 355.323599 
L 656.25458 354.684334 
L 659.561151 354.704093 
L 662.860753 356.585852 
L 666.146419 354.753508 
L 669.519191 354.756845 
L 669.519191 354.756845 
" clip-path="url(#pf66f21c4d6)" style="fill: none; stroke: #d62728; stroke-width: 1.5; stroke-linecap: square"/>
   </g>
   <g id="patch_3">
    <path d="M 50.87 390.04 
L 50.87 10.8 
" style="fill: none; stroke: #000000; stroke-width: 0.8; stroke-linejoin: miter; stroke-linecap: square"/>
   </g>
   <g id="patch_4">
    <path d="M 700.508105 390.04 
L 700.508105 10.8 
" style="fill: none; stroke: #000000; stroke-width: 0.8; stroke-linejoin: miter; stroke-linecap: square"/>
   </g>
   <g id="patch_5">
    <path d="M 50.87 390.04 
L 700.508105 390.04 
" style="fill: none; stroke: #000000; stroke-width: 0.8; stroke-linejoin: miter; stroke-linecap: square"/>
   </g>
   <g id="patch_6">
    <path d="M 50.87 10.8 
L 700.508105 10.8 
" style="fill: none; stroke: #000000; stroke-width: 0.8; stroke-linejoin: miter; stroke-linecap: square"/>
   </g>
   <g id="legend_1">
    <g id="patch_7">
     <path d="M 599.83623 385.04 
L 693.508105 385.04 
Q 695.508105 385.04 695.508105 383.04 
L 695.508105 310.649375 
Q 695.508105 308.649375 693.508105 308.649375 
L 599.83623 308.649375 
Q 597.83623 308.649375 597.83623 310.649375 
L 597.83623 383.04 
Q 597.83623 385.04 599.83623 385.04 
z
" style="fill: #ffffff; opacity: 0.8; stroke: #cccccc; stroke-linejoin: miter"/>
    </g>
    <g id="text_18">
     <!-- Max Circuit Depth -->
     <g transform="translate(601.83623 320.247813) scale(0.1 -0.1)">
      <defs>
       <path id="DejaVuSans-4d" d="M 628 4666 
L 1569 4666 
L 2759 1491 
L 3956 4666 
L 4897 4666 
L 4897 0 
L 4281 0 
L 4281 4097 
L 3078 897 
L 2444 897 
L 1241 4097 
L 1241 0 
L 628 0 
L 628 4666 
z
" transform="scale(0.015625)"/>
       <path id="DejaVuSans-78" d="M 3513 3500 
L 2247 1797 
L 3578 0 
L 2900 0 
L 1881 1375 
L 863 0 
L 184 0 
L 1544 1831 
L 300 3500 
L 978 3500 
L 1906 2253 
L 2834 3500 
L 3513 3500 
z
" transform="scale(0.015625)"/>
       <path id="DejaVuSans-20" transform="scale(0.015625)"/>
       <path id="DejaVuSans-43" d="M 4122 4306 
L 4122 3641 
Q 3803 3938 3442 4084 
Q 3081 4231 2675 4231 
Q 1875 4231 1450 3742 
Q 1025 3253 1025 2328 
Q 1025 1406 1450 917 
Q 1875 428 2675 428 
Q 3081 428 3442 575 
Q 3803 722 4122 1019 
L 4122 359 
Q 3791 134 3420 21 
Q 3050 -91 2638 -91 
Q 1578 -91 968 557 
Q 359 1206 359 2328 
Q 359 3453 968 4101 
Q 1578 4750 2638 4750 
Q 3056 4750 3426 4639 
Q 3797 4528 4122 4306 
z
" transform="scale(0.015625)"/>
       <path id="DejaVuSans-69" d="M 603 3500 
L 1178 3500 
L 1178 0 
L 603 0 
L 603 3500 
z
M 603 4863 
L 1178 4863 
L 1178 4134 
L 603 4134 
L 603 4863 
z
" transform="scale(0.015625)"/>
       <path id="DejaVuSans-63" d="M 3122 3366 
L 3122 2828 
Q 2878 2963 2633 3030 
Q 2388 3097 2138 3097 
Q 1578 3097 1268 2742 
Q 959 2388 959 1747 
Q 959 1106 1268 751 
Q 1578 397 2138 397 
Q 2388 397 2633 464 
Q 2878 531 3122 666 
L 3122 134 
Q 2881 22 2623 -34 
Q 2366 -91 2075 -91 
Q 1284 -91 818 406 
Q 353 903 353 1747 
Q 353 2603 823 3093 
Q 1294 3584 2113 3584 
Q 2378 3584 2631 3529 
Q 2884 3475 3122 3366 
z
" transform="scale(0.015625)"/>
       <path id="DejaVuSans-75" d="M 544 1381 
L 544 3500 
L 1119 3500 
L 1119 1403 
Q 1119 906 1312 657 
Q 1506 409 1894 409 
Q 2359 409 2629 706 
Q 2900 1003 2900 1516 
L 2900 3500 
L 3475 3500 
L 3475 0 
L 2900 0 
L 2900 538 
Q 2691 219 2414 64 
Q 2138 -91 1772 -91 
Q 1169 -91 856 284 
Q 544 659 544 1381 
z
M 1991 3584 
L 1991 3584 
z
" transform="scale(0.015625)"/>
       <path id="DejaVuSans-44" d="M 1259 4147 
L 1259 519 
L 2022 519 
Q 2988 519 3436 956 
Q 3884 1394 3884 2338 
Q 3884 3275 3436 3711 
Q 2988 4147 2022 4147 
L 1259 4147 
z
M 628 4666 
L 1925 4666 
Q 3281 4666 3915 4102 
Q 4550 3538 4550 2338 
Q 4550 1131 3912 565 
Q 3275 0 1925 0 
L 628 0 
L 628 4666 
z
" transform="scale(0.015625)"/>
       <path id="DejaVuSans-68" d="M 3513 2113 
L 3513 0 
L 2938 0 
L 2938 2094 
Q 2938 2591 2744 2837 
Q 2550 3084 2163 3084 
Q 1697 3084 1428 2787 
Q 1159 2491 1159 1978 
L 1159 0 
L 581 0 
L 581 4863 
L 1159 4863 
L 1159 2956 
Q 1366 3272 1645 3428 
Q 1925 3584 2291 3584 
Q 2894 3584 3203 3211 
Q 3513 2838 3513 2113 
z
" transform="scale(0.015625)"/>
      </defs>
      <use xlink:href="#DejaVuSans-4d"/>
      <use xlink:href="#DejaVuSans-61" transform="translate(86.279297 0)"/>
      <use xlink:href="#DejaVuSans-78" transform="translate(147.558594 0)"/>
      <use xlink:href="#DejaVuSans-20" transform="translate(206.738281 0)"/>
      <use xlink:href="#DejaVuSans-43" transform="translate(238.525391 0)"/>
      <use xlink:href="#DejaVuSans-69" transform="translate(308.349609 0)"/>
      <use xlink:href="#DejaVuSans-72" transform="translate(336.132812 0)"/>
      <use xlink:href="#DejaVuSans-63" transform="translate(374.996094 0)"/>
      <use xlink:href="#DejaVuSans-75" transform="translate(429.976562 0)"/>
      <use xlink:href="#DejaVuSans-69" transform="translate(493.355469 0)"/>
      <use xlink:href="#DejaVuSans-74" transform="translate(521.138672 0)"/>
      <use xlink:href="#DejaVuSans-20" transform="translate(560.347656 0)"/>
      <use xlink:href="#DejaVuSans-44" transform="translate(592.134766 0)"/>
      <use xlink:href="#DejaVuSans-65" transform="translate(669.136719 0)"/>
      <use xlink:href="#DejaVuSans-70" transform="translate(730.660156 0)"/>
      <use xlink:href="#DejaVuSans-74" transform="translate(794.136719 0)"/>
      <use xlink:href="#DejaVuSans-68" transform="translate(833.345703 0)"/>
     </g>
    </g>
    <g id="line2d_35">
     <path d="M 603.301855 331.425937 
L 613.301855 331.425937 
L 623.301855 331.425937 
" style="fill: none; stroke: #1f77b4; stroke-width: 1.5; stroke-linecap: square"/>
    </g>
    <g id="text_19">
     <!-- 4 (PPO) -->
     <g transform="translate(631.301855 334.925937) scale(0.1 -0.1)">
      <defs>
       <path id="DejaVuSans-28" d="M 1984 4856 
Q 1566 4138 1362 3434 
Q 1159 2731 1159 2009 
Q 1159 1288 1364 580 
Q 1569 -128 1984 -844 
L 1484 -844 
Q 1016 -109 783 600 
Q 550 1309 550 2009 
Q 550 2706 781 3412 
Q 1013 4119 1484 4856 
L 1984 4856 
z
" transform="scale(0.015625)"/>
       <path id="DejaVuSans-50" d="M 1259 4147 
L 1259 2394 
L 2053 2394 
Q 2494 2394 2734 2622 
Q 2975 2850 2975 3272 
Q 2975 3691 2734 3919 
Q 2494 4147 2053 4147 
L 1259 4147 
z
M 628 4666 
L 2053 4666 
Q 2838 4666 3239 4311 
Q 3641 3956 3641 3272 
Q 3641 2581 3239 2228 
Q 2838 1875 2053 1875 
L 1259 1875 
L 1259 0 
L 628 0 
L 628 4666 
z
" transform="scale(0.015625)"/>
       <path id="DejaVuSans-4f" d="M 2522 4238 
Q 1834 4238 1429 3725 
Q 1025 3213 1025 2328 
Q 1025 1447 1429 934 
Q 1834 422 2522 422 
Q 3209 422 3611 934 
Q 4013 1447 4013 2328 
Q 4013 3213 3611 3725 
Q 3209 4238 2522 4238 
z
M 2522 4750 
Q 3503 4750 4090 4092 
Q 4678 3434 4678 2328 
Q 4678 1225 4090 567 
Q 3503 -91 2522 -91 
Q 1538 -91 948 565 
Q 359 1222 359 2328 
Q 359 3434 948 4092 
Q 1538 4750 2522 4750 
z
" transform="scale(0.015625)"/>
       <path id="DejaVuSans-29" d="M 513 4856 
L 1013 4856 
Q 1481 4119 1714 3412 
Q 1947 2706 1947 2009 
Q 1947 1309 1714 600 
Q 1481 -109 1013 -844 
L 513 -844 
Q 928 -128 1133 580 
Q 1338 1288 1338 2009 
Q 1338 2731 1133 3434 
Q 928 4138 513 4856 
z
" transform="scale(0.015625)"/>
      </defs>
      <use xlink:href="#DejaVuSans-34"/>
      <use xlink:href="#DejaVuSans-20" transform="translate(63.623047 0)"/>
      <use xlink:href="#DejaVuSans-28" transform="translate(95.410156 0)"/>
      <use xlink:href="#DejaVuSans-50" transform="translate(134.423828 0)"/>
      <use xlink:href="#DejaVuSans-50" transform="translate(194.726562 0)"/>
      <use xlink:href="#DejaVuSans-4f" transform="translate(255.029297 0)"/>
      <use xlink:href="#DejaVuSans-29" transform="translate(333.740234 0)"/>
     </g>
    </g>
    <g id="line2d_36">
     <path d="M 603.301855 346.104062 
L 613.301855 346.104062 
L 623.301855 346.104062 
" style="fill: none; stroke: #ff7f0e; stroke-width: 1.5; stroke-linecap: square"/>
    </g>
    <g id="text_20">
     <!-- 5 (PPO) -->
     <g transform="translate(631.301855 349.604062) scale(0.1 -0.1)">
      <use xlink:href="#DejaVuSans-35"/>
      <use xlink:href="#DejaVuSans-20" transform="translate(63.623047 0)"/>
      <use xlink:href="#DejaVuSans-28" transform="translate(95.410156 0)"/>
      <use xlink:href="#DejaVuSans-50" transform="translate(134.423828 0)"/>
      <use xlink:href="#DejaVuSans-50" transform="translate(194.726562 0)"/>
      <use xlink:href="#DejaVuSans-4f" transform="translate(255.029297 0)"/>
      <use xlink:href="#DejaVuSans-29" transform="translate(333.740234 0)"/>
     </g>
    </g>
    <g id="line2d_37">
     <path d="M 603.301855 360.782187 
L 613.301855 360.782187 
L 623.301855 360.782187 
" style="fill: none; stroke: #2ca02c; stroke-width: 1.5; stroke-linecap: square"/>
    </g>
    <g id="text_21">
     <!-- 6 (PPO) -->
     <g transform="translate(631.301855 364.282187) scale(0.1 -0.1)">
      <use xlink:href="#DejaVuSans-36"/>
      <use xlink:href="#DejaVuSans-20" transform="translate(63.623047 0)"/>
      <use xlink:href="#DejaVuSans-28" transform="translate(95.410156 0)"/>
      <use xlink:href="#DejaVuSans-50" transform="translate(134.423828 0)"/>
      <use xlink:href="#DejaVuSans-50" transform="translate(194.726562 0)"/>
      <use xlink:href="#DejaVuSans-4f" transform="translate(255.029297 0)"/>
      <use xlink:href="#DejaVuSans-29" transform="translate(333.740234 0)"/>
     </g>
    </g>
    <g id="line2d_38">
     <path d="M 603.301855 375.460312 
L 613.301855 375.460312 
L 623.301855 375.460312 
" style="fill: none; stroke: #d62728; stroke-width: 1.5; stroke-linecap: square"/>
    </g>
    <g id="text_22">
     <!-- 4 (Random) -->
     <g transform="translate(631.301855 378.960312) scale(0.1 -0.1)">
      <defs>
       <path id="DejaVuSans-6e" d="M 3513 2113 
L 3513 0 
L 2938 0 
L 2938 2094 
Q 2938 2591 2744 2837 
Q 2550 3084 2163 3084 
Q 1697 3084 1428 2787 
Q 1159 2491 1159 1978 
L 1159 0 
L 581 0 
L 581 3500 
L 1159 3500 
L 1159 2956 
Q 1366 3272 1645 3428 
Q 1925 3584 2291 3584 
Q 2894 3584 3203 3211 
Q 3513 2838 3513 2113 
z
" transform="scale(0.015625)"/>
       <path id="DejaVuSans-6f" d="M 1959 3097 
Q 1497 3097 1228 2736 
Q 959 2375 959 1747 
Q 959 1119 1226 758 
Q 1494 397 1959 397 
Q 2419 397 2687 759 
Q 2956 1122 2956 1747 
Q 2956 2369 2687 2733 
Q 2419 3097 1959 3097 
z
M 1959 3584 
Q 2709 3584 3137 3096 
Q 3566 2609 3566 1747 
Q 3566 888 3137 398 
Q 2709 -91 1959 -91 
Q 1206 -91 779 398 
Q 353 888 353 1747 
Q 353 2609 779 3096 
Q 1206 3584 1959 3584 
z
" transform="scale(0.015625)"/>
       <path id="DejaVuSans-6d" d="M 3328 2828 
Q 3544 3216 3844 3400 
Q 4144 3584 4550 3584 
Q 5097 3584 5394 3201 
Q 5691 2819 5691 2113 
L 5691 0 
L 5113 0 
L 5113 2094 
Q 5113 2597 4934 2840 
Q 4756 3084 4391 3084 
Q 3944 3084 3684 2787 
Q 3425 2491 3425 1978 
L 3425 0 
L 2847 0 
L 2847 2094 
Q 2847 2600 2669 2842 
Q 2491 3084 2119 3084 
Q 1678 3084 1418 2786 
Q 1159 2488 1159 1978 
L 1159 0 
L 581 0 
L 581 3500 
L 1159 3500 
L 1159 2956 
Q 1356 3278 1631 3431 
Q 1906 3584 2284 3584 
Q 2666 3584 2933 3390 
Q 3200 3197 3328 2828 
z
" transform="scale(0.015625)"/>
      </defs>
      <use xlink:href="#DejaVuSans-34"/>
      <use xlink:href="#DejaVuSans-20" transform="translate(63.623047 0)"/>
      <use xlink:href="#DejaVuSans-28" transform="translate(95.410156 0)"/>
      <use xlink:href="#DejaVuSans-52" transform="translate(134.423828 0)"/>
      <use xlink:href="#DejaVuSans-61" transform="translate(201.65625 0)"/>
      <use xlink:href="#DejaVuSans-6e" transform="translate(262.935547 0)"/>
      <use xlink:href="#DejaVuSans-64" transform="translate(326.314453 0)"/>
      <use xlink:href="#DejaVuSans-6f" transform="translate(389.791016 0)"/>
      <use xlink:href="#DejaVuSans-6d" transform="translate(450.972656 0)"/>
      <use xlink:href="#DejaVuSans-29" transform="translate(548.384766 0)"/>
     </g>
    </g>
   </g>
  </g>
 </g>
 <defs>
  <clipPath id="pf66f21c4d6">
   <rect x="50.87" y="10.8" width="649.638105" height="379.24"/>
  </clipPath>
 </defs>
</svg>
