<?xml version="1.0" encoding="utf-8" standalone="no"?>
<!DOCTYPE svg PUBLIC "-//W3C//DTD SVG 1.1//EN"
  "http://www.w3.org/Graphics/SVG/1.1/DTD/svg11.dtd">
<svg xmlns:xlink="http://www.w3.org/1999/xlink" width="720pt" height="432pt" viewBox="0 0 720 432" xmlns="http://www.w3.org/2000/svg" version="1.1">
 <metadata>
  <rdf:RDF xmlns:dc="http://purl.org/dc/elements/1.1/" xmlns:cc="http://creativecommons.org/ns#" xmlns:rdf="http://www.w3.org/1999/02/22-rdf-syntax-ns#">
   <cc:Work>
    <dc:type rdf:resource="http://purl.org/dc/dcmitype/StillImage"/>
    <dc:date>2025-04-15T19:19:41.380315</dc:date>
    <dc:format>image/svg+xml</dc:format>
    <dc:creator>
     <cc:Agent>
      <dc:title>Matplotlib v3.10.0, https://matplotlib.org/</dc:title>
     </cc:Agent>
    </dc:creator>
   </cc:Work>
  </rdf:RDF>
 </metadata>
 <defs>
  <style type="text/css">*{stroke-linejoin: round; stroke-linecap: butt}</style>
 </defs>
 <g id="figure_1">
  <g id="patch_1">
   <path d="M 0 432 
L 720 432 
L 720 0 
L 0 0 
z
" style="fill: #ffffff"/>
  </g>
  <g id="axes_1">
   <g id="patch_2">
    <path d="M 38.27 390.04 
L 700.508105 390.04 
L 700.508105 10.8 
L 38.27 10.8 
z
" style="fill: #ffffff"/>
   </g>
   <g id="FillBetweenPolyCollection_1">
    <path d="M 68.371732 160.66223 
L 68.371732 352.523647 
L 71.738884 351.132921 
L 75.010135 343.189413 
L 78.359528 337.559962 
L 81.829683 352.624311 
L 85.12935 356.23711 
L 88.460983 346.68857 
L 91.980864 335.952575 
L 95.546919 316.677765 
L 99.215978 322.743462 
L 102.931211 318.707608 
L 106.628684 304.201778 
L 110.21605 301.40623 
L 113.775002 303.786733 
L 117.227398 310.34037 
L 120.257124 318.806652 
L 123.24778 321.810734 
L 126.252643 321.460181 
L 129.16871 320.239247 
L 132.095432 323.345244 
L 135.018603 319.642953 
L 137.899152 316.416805 
L 140.7797 318.382423 
L 143.649593 316.161813 
L 146.533693 317.651578 
L 149.414242 316.579028 
L 152.287687 314.657668 
L 155.143372 316.544265 
L 157.995506 314.146462 
L 160.865399 314.601144 
L 163.721085 313.88215 
L 166.559011 315.905354 
L 169.404041 313.863024 
L 172.263279 313.134467 
L 175.11186 313.640071 
L 177.967546 315.373764 
L 180.837439 312.196481 
L 183.686021 313.036515 
L 186.545258 312.442521 
L 189.39384 313.172927 
L 192.23887 312.321482 
L 195.105211 313.519032 
L 197.953793 314.437891 
L 200.813031 313.649634 
L 203.668716 312.321482 
L 206.524402 312.358879 
L 209.383639 312.14549 
L 212.235773 313.761111 
L 215.084355 311.88514 
L 217.929385 312.331045 
L 220.799278 312.386783 
L 223.654964 313.472857 
L 226.499994 312.757824 
L 229.345024 313.620945 
L 232.193606 312.37722 
L 235.045739 311.773663 
L 237.897873 312.915475 
L 240.739351 312.62326 
L 243.598589 314.253191 
L 246.461378 314.753194 
L 249.231819 329.957369 
L 251.980949 318.605408 
L 254.804668 315.08551 
L 257.656802 325.696717 
L 260.256755 323.460054 
L 263.105336 314.1592 
L 265.953918 319.54814 
L 268.592941 335.986408 
L 271.359831 318.387988 
L 274.204861 315.408527 
L 277.06765 320.380842 
L 279.937543 316.472299 
L 282.79678 317.993929 
L 285.666673 330.183742 
L 288.536566 342.230038 
L 291.392252 333.465592 
L 294.301215 320.07851 
L 297.970274 323.723722 
L 301.284148 317.977229 
L 304.214422 314.345541 
L 307.123386 314.204903 
L 310.110489 314.894145 
L 313.09049 314.058928 
L 316.01366 312.534871 
L 319.039835 316.567145 
L 322.090872 314.652921 
L 325.095735 314.622119 
L 328.015354 315.812219 
L 330.913662 312.757824 
L 333.822625 314.949098 
L 336.713829 313.101816 
L 339.605033 311.829402 
L 342.492685 312.600173 
L 345.355475 312.052354 
L 348.225368 312.275307 
L 351.105916 317.756772 
L 353.986465 318.377643 
L 356.84215 316.353755 
L 359.701388 313.947452 
L 362.560625 312.034014 
L 365.409207 312.367657 
L 368.392759 315.786741 
L 371.401174 313.886897 
L 374.303034 312.386783 
L 377.194238 312.219569 
L 380.071234 312.210006 
L 382.916265 312.8693 
L 385.807469 312.767387 
L 388.677362 313.024839 
L 391.540151 311.717925 
L 394.378077 313.499905 
L 397.216004 313.407555 
L 400.093 311.773663 
L 402.948686 313.899636 
L 405.83989 312.97596 
L 408.727542 312.767387 
L 411.618746 312.8693 
L 414.495743 312.544434 
L 417.422465 313.937888 
L 420.395362 313.942635 
L 423.357603 313.937888 
L 426.31274 312.609736 
L 429.189737 312.331045 
L 432.031215 318.067153 
L 434.869141 314.326415 
L 437.721275 313.017388 
L 440.59472 312.980777 
L 443.457509 312.098529 
L 446.309643 312.154267 
L 449.172432 311.829402 
L 452.038773 312.108092 
L 454.933529 312.498259 
L 457.79987 311.88514 
L 460.648452 311.662187 
L 463.521897 313.557284 
L 466.576486 314.328055 
L 469.520968 313.213292 
L 472.422828 312.219569 
L 475.296272 312.813562 
L 478.162614 313.026952 
L 481.050266 312.163831 
L 483.913055 313.950085 
L 486.772293 313.445808 
L 489.82333 314.337619 
L 492.813986 313.65042 
L 495.779778 312.999903 
L 498.681638 312.386783 
L 501.565738 311.940878 
L 504.442735 312.832688 
L 507.319732 312.479133 
L 510.186073 311.829402 
L 513.052414 311.940878 
L 515.915203 311.996616 
L 518.767337 311.717925 
L 521.63723 312.219569 
L 524.507123 311.829402 
L 527.373464 312.309806 
L 530.236253 311.996616 
L 533.088387 312.331045 
L 535.944073 315.981074 
L 539.069699 314.429969 
L 542.010629 312.275307 
L 544.866314 311.88514 
L 547.739759 312.767387 
L 550.620308 311.773663 
L 553.465338 312.042791 
L 556.321023 311.550711 
L 559.219331 319.860337 
L 562.192228 314.512755 
L 565.076328 312.980777 
L 567.949773 312.432958 
L 570.826769 315.382855 
L 573.682455 312.803999 
L 576.566555 312.832688 
L 579.500382 318.328464 
L 582.384482 318.91771 
L 585.289893 315.207127 
L 588.198857 312.331045 
L 591.065198 311.88514 
L 593.942194 312.163831 
L 596.804984 312.311919 
L 599.692636 312.389417 
L 602.573184 312.442521 
L 605.478596 312.432958 
L 608.355593 312.980777 
L 611.211278 311.996616 
L 614.123793 313.48242 
L 617.043412 312.976815 
L 619.938168 313.260253 
L 622.822268 311.996616 
L 625.699265 312.219569 
L 628.57271 312.219569 
L 631.435499 311.88514 
L 634.30184 318.70029 
L 637.178837 318.324503 
L 640.052282 315.647431 
L 642.925727 312.275307 
L 645.802723 312.052354 
L 648.661961 311.88514 
L 651.531854 311.91779 
L 654.398195 312.77695 
L 657.300055 311.773663 
L 660.177051 312.832688 
L 663.100222 311.996616 
L 666.026944 314.839262 
L 669.099293 314.216579 
L 669.099293 297.470006 
L 669.099293 297.470006 
L 666.026944 292.003026 
L 663.100222 308.571181 
L 660.177051 303.698194 
L 657.300055 309.870644 
L 654.398195 304.02306 
L 651.531854 308.111751 
L 648.661961 309.220912 
L 645.802723 308.246315 
L 642.925727 306.946852 
L 640.052282 287.965326 
L 637.178837 261.335896 
L 634.30184 262.574874 
L 631.435499 309.220912 
L 628.57271 307.271718 
L 625.699265 307.271718 
L 622.822268 308.571181 
L 619.938168 300.041098 
L 617.043412 301.939301 
L 614.123793 303.586718 
L 611.211278 308.571181 
L 608.355593 306.51051 
L 605.478596 307.865711 
L 602.573184 305.972255 
L 599.692636 303.872338 
L 596.804984 310.408899 
L 593.942194 307.596583 
L 591.065198 309.220912 
L 588.198857 306.621986 
L 585.289893 284.099588 
L 582.384482 266.394368 
L 579.500382 265.907104 
L 576.566555 303.698194 
L 573.682455 309.378564 
L 570.826769 286.346009 
L 567.949773 307.865711 
L 565.076328 306.51051 
L 562.192228 303.094638 
L 559.219331 293.97927 
L 556.321023 311.170107 
L 553.465338 310.139771 
L 550.620308 309.870644 
L 547.739759 305.916516 
L 544.866314 309.220912 
L 542.010629 306.946852 
L 539.069699 298.064 
L 535.944073 290.861214 
L 533.088387 306.621986 
L 530.236253 308.571181 
L 527.373464 308.257991 
L 524.507123 309.545778 
L 521.63723 307.271718 
L 518.767337 310.19551 
L 515.915203 308.571181 
L 513.052414 308.896046 
L 510.186073 309.545778 
L 507.319732 309.434302 
L 504.442735 303.698194 
L 501.565738 308.896046 
L 498.681638 306.29712 
L 495.779778 302.723597 
L 492.813986 297.767038 
L 489.82333 294.926818 
L 486.772293 300.124671 
L 483.913055 294.776096 
L 481.050266 307.596583 
L 478.162614 308.0791 
L 475.296272 307.485107 
L 472.422828 307.271718 
L 469.520968 303.31759 
L 466.576486 296.820275 
L 463.521897 299.474939 
L 460.648452 310.520375 
L 457.79987 309.220912 
L 454.933529 305.647389 
L 452.038773 307.921449 
L 449.172432 309.545778 
L 446.309643 309.49004 
L 443.457509 309.814906 
L 440.59472 306.51051 
L 437.721275 309.972557 
L 434.869141 307.856148 
L 432.031215 306.268431 
L 429.189737 306.621986 
L 426.31274 304.997657 
L 423.357603 299.094335 
L 420.395362 298.820461 
L 417.422465 299.094335 
L 414.495743 307.215979 
L 411.618746 307.160241 
L 408.727542 305.916516 
L 405.83989 308.130092 
L 402.948686 306.668161 
L 400.093 309.870644 
L 397.216004 307.698497 
L 394.378077 310.835678 
L 391.540151 310.19551 
L 388.677362 305.928192 
L 385.807469 305.916516 
L 382.916265 307.160241 
L 380.071234 309.165174 
L 377.194238 307.271718 
L 374.303034 306.29712 
L 371.401174 299.145326 
L 368.392759 287.826016 
L 365.409207 310.084033 
L 362.560625 307.188145 
L 359.701388 297.200879 
L 356.84215 281.338194 
L 353.986465 250.786778 
L 351.105916 271.323093 
L 348.225368 306.946852 
L 345.355475 308.246315 
L 342.492685 306.891114 
L 339.605033 309.545778 
L 336.713829 303.967322 
L 333.822625 302.389168 
L 330.913662 307.809973 
L 328.015354 302.871685 
L 325.095735 300.293998 
L 322.090872 296.764537 
L 319.039835 281.932187 
L 316.01366 309.109436 
L 313.09049 296.551147 
L 310.110489 297.868951 
L 307.123386 297.212555 
L 304.214422 304.069235 
L 301.284148 287.250293 
L 297.970274 250.015869 
L 294.301215 264.157058 
L 291.392252 305.402883 
L 288.536566 303.366627 
L 285.666673 295.228352 
L 282.79678 299.344336 
L 279.937543 296.021669 
L 277.06765 287.537957 
L 274.204861 302.467994 
L 271.359831 302.987192 
L 268.592941 300.998173 
L 265.953918 302.90355 
L 263.105336 308.830745 
L 260.256755 304.912444 
L 257.656802 305.905312 
L 254.804668 304.944032 
L 251.980949 306.806686 
L 249.231819 303.797681 
L 246.461378 309.044135 
L 243.598589 300.932053 
L 240.739351 307.675409 
L 237.897873 308.728832 
L 235.045739 309.870644 
L 232.193606 308.190577 
L 229.345024 308.29249 
L 226.499994 307.809973 
L 223.654964 305.480174 
L 220.799278 306.29712 
L 217.929385 306.621986 
L 215.084355 309.220912 
L 212.235773 301.962389 
L 209.383639 306.538414 
L 206.524402 307.132407 
L 203.668716 308.515443 
L 200.813031 302.61212 
L 197.953793 307.206416 
L 195.105211 307.048765 
L 192.23887 308.515443 
L 189.39384 308.740508 
L 186.545258 305.972255 
L 183.686021 306.185644 
L 180.837439 306.487422 
L 177.967546 301.426247 
L 175.11186 304.505577 
L 172.263279 302.858161 
L 169.404041 303.206114 
L 166.559011 301.163784 
L 163.721085 299.419201 
L 160.865399 301.660611 
L 157.995506 301.30791 
L 155.143372 294.604065 
L 152.287687 296.490662 
L 149.414242 295.645812 
L 146.533693 292.151114 
L 143.649593 292.564369 
L 140.7797 279.309527 
L 137.899152 279.660378 
L 135.018603 260.017445 
L 132.095432 264.927239 
L 129.16871 259.421152 
L 126.252643 232.902222 
L 123.24778 211.021459 
L 120.257124 199.223522 
L 117.227398 168.935427 
L 113.775002 148.307174 
L 110.21605 153.917209 
L 106.628684 146.008235 
L 102.931211 145.76617 
L 99.215978 158.416228 
L 95.546919 147.796013 
L 91.980864 156.510475 
L 88.460983 161.922137 
L 85.12935 172.289041 
L 81.829683 157.332035 
L 78.359528 143.868855 
L 75.010135 151.426658 
L 71.738884 161.514701 
L 68.371732 160.66223 
z
" clip-path="url(#p14211d3d2a)" style="fill: #1f77b4; fill-opacity: 0.2"/>
   </g>
   <g id="FillBetweenPolyCollection_2">
    <path d="M 68.574187 89.617995 
L 68.574187 344.713489 
L 72.189968 344.428946 
L 75.684987 334.00104 
L 79.364701 329.793535 
L 83.204248 331.270518 
L 86.8591 335.870242 
L 90.72351 330.553776 
L 94.630542 318.96462 
L 98.541127 308.667556 
L 102.366467 318.230782 
L 106.056837 306.308493 
L 109.956765 320.879036 
L 113.817624 324.188042 
L 117.831212 333.480683 
L 121.926492 335.076951 
L 126.007565 340.671994 
L 130.049568 341.261373 
L 134.144849 334.355717 
L 138.108711 333.75087 
L 141.916291 329.909208 
L 145.699009 328.198738 
L 149.378724 328.853098 
L 153.086853 327.268544 
L 156.713289 324.304387 
L 160.32907 327.512073 
L 163.976818 324.193444 
L 167.567736 323.78056 
L 171.176413 322.809801 
L 174.788642 323.309079 
L 178.372457 323.274711 
L 181.963375 323.12319 
L 185.543637 324.116662 
L 189.1239 322.673072 
L 192.704162 324.249113 
L 196.284425 323.306645 
L 199.868239 324.313629 
L 203.427191 323.250907 
L 207.007453 323.397599 
L 210.605475 323.005583 
L 214.192841 323.696812 
L 217.787311 323.570936 
L 221.374677 323.058423 
L 224.933629 324.331089 
L 228.506788 322.475906 
L 232.101257 323.445761 
L 235.68152 324.656835 
L 239.254679 324.858548 
L 242.820734 323.815531 
L 246.393893 323.831112 
L 249.981259 322.716857 
L 253.579281 323.39985 
L 257.148888 322.723532 
L 260.754013 324.093644 
L 264.348483 324.85267 
L 267.960712 324.682556 
L 271.55163 323.596747 
L 275.174515 323.763616 
L 278.903955 325.355433 
L 282.594325 324.681494 
L 286.192347 323.785201 
L 289.900476 325.596726 
L 293.573086 323.109931 
L 297.227938 325.076339 
L 300.854374 324.938424 
L 304.484363 325.179453 
L 308.103695 324.58651 
L 311.772754 324.537436 
L 315.392087 323.047081 
L 318.975901 323.455589 
L 322.655616 324.10512 
L 326.253637 318.289321 
L 329.837452 317.130143 
L 333.449681 322.168832 
L 337.079669 320.868809 
L 340.691899 322.198417 
L 344.300576 323.801734 
L 347.866631 324.181773 
L 351.450445 312.098719 
L 355.030708 320.445011 
L 358.674904 325.425564 
L 362.326203 319.705619 
L 365.945536 317.998231 
L 369.54711 323.511098 
L 373.145131 324.441521 
L 376.863916 326.594402 
L 380.458386 327.562209 
L 384.077719 327.630055 
L 387.661533 326.219852 
L 391.273762 324.721907 
L 394.889543 348.534442 
L 398.540843 350.14606 
L 402.096242 347.138942 
L 405.669401 355.707972 
L 409.221249 368.551144 
L 412.7802 355.324726 
L 416.339152 361.259555 
L 419.883896 357.823127 
L 423.439295 346.069586 
L 426.998247 360.26961 
L 430.557198 372.801818 
L 434.130357 366.500041 
L 437.689309 356.610787 
L 441.216293 346.799065 
L 444.775245 342.757065 
L 448.327093 346.006623 
L 451.889596 345.290495 
L 455.452099 338.779042 
L 459.007499 340.190672 
L 462.559346 332.908731 
L 466.118298 335.872616 
L 469.670146 328.221837 
L 473.229097 326.622461 
L 476.784497 324.117173 
L 480.339896 331.533284 
L 483.891744 347.524597 
L 487.443592 348.236919 
L 490.998991 339.642584 
L 494.550839 332.232199 
L 498.102687 329.761974 
L 501.672294 340.801878 
L 505.256108 345.919252 
L 508.822163 329.173811 
L 512.384667 323.995623 
L 515.940066 323.403547 
L 519.491914 322.38297 
L 523.036658 323.902487 
L 526.567195 323.111527 
L 530.129698 320.826425 
L 533.67089 323.146095 
L 537.219186 323.417788 
L 540.774586 323.096752 
L 544.326433 322.378223 
L 547.878281 322.50804 
L 551.430129 322.642604 
L 554.981977 323.464227 
L 558.533824 321.665893 
L 562.089224 322.018594 
L 565.644624 323.301829 
L 569.196471 322.944117 
L 572.748319 322.164834 
L 576.360548 327.835746 
L 580.320858 324.717113 
L 583.904673 322.512787 
L 587.460072 322.698342 
L 591.019024 322.75408 
L 594.570872 322.509688 
L 598.126271 322.478023 
L 601.678119 322.680001 
L 605.240622 320.340468 
L 608.79247 308.680787 
L 612.347869 319.583652 
L 615.984962 322.893391 
L 619.540361 318.515188 
L 622.971446 318.973449 
L 626.395427 322.032118 
L 629.947275 316.564527 
L 633.499123 320.007066 
L 637.054522 323.224921 
L 640.60637 322.489699 
L 644.165322 322.282974 
L 647.717169 322.512787 
L 651.269017 322.417538 
L 654.820865 322.250775 
L 658.376264 322.563778 
L 661.928112 322.50804 
L 665.47996 323.554534 
L 669.042463 322.680001 
L 669.042463 245.138782 
L 669.042463 245.138782 
L 665.47996 246.148143 
L 661.928112 246.387254 
L 658.376264 246.062388 
L 654.820865 243.414987 
L 651.269017 245.670373 
L 647.717169 246.113379 
L 644.165322 245.535809 
L 640.60637 245.329084 
L 637.054522 246.477756 
L 633.499123 243.505676 
L 629.947275 237.797875 
L 626.395427 247.670559 
L 622.971446 266.069502 
L 619.540361 241.768022 
L 615.984962 245.732776 
L 612.347869 224.821028 
L 608.79247 201.813813 
L 605.240622 239.13536 
L 601.678119 245.138782 
L 598.126271 245.071633 
L 594.570872 244.77084 
L 591.019024 245.872086 
L 587.460072 246.196952 
L 583.904673 246.113379 
L 580.320858 230.183545 
L 576.360548 215.761552 
L 572.748319 245.384822 
L 569.196471 245.951177 
L 565.644624 245.862592 
L 562.089224 244.992807 
L 558.533824 244.538124 
L 554.981977 246.507577 
L 551.430129 246.521818 
L 547.878281 246.387254 
L 544.326433 245.978816 
L 540.774586 244.452903 
L 537.219186 245.208379 
L 533.67089 246.018326 
L 530.129698 237.034637 
L 526.567195 246.052894 
L 523.036658 246.8767 
L 519.491914 245.704941 
L 515.940066 246.030002 
L 512.384667 245.168799 
L 508.822163 244.56578 
L 505.256108 239.931082 
L 501.672294 237.243755 
L 498.102687 237.787682 
L 494.550839 235.855712 
L 490.998991 237.595666 
L 487.443592 241.112074 
L 483.891744 243.708289 
L 480.339896 242.744562 
L 476.784497 237.511675 
L 473.229097 239.043301 
L 469.670146 241.749967 
L 466.118298 238.674358 
L 462.559346 237.332201 
L 459.007499 238.931472 
L 455.452099 241.150484 
L 451.889596 238.675946 
L 448.327093 238.7672 
L 444.775245 237.979844 
L 441.216293 243.088183 
L 437.689309 240.273779 
L 434.130357 242.226141 
L 430.557198 237.808257 
L 426.998247 237.691467 
L 423.439295 228.477388 
L 419.883896 241.752715 
L 416.339152 239.392798 
L 412.7802 241.828968 
L 409.221249 240.175038 
L 405.669401 243.060488 
L 402.096242 233.867094 
L 398.540843 238.39555 
L 394.889543 221.70649 
L 391.273762 235.023048 
L 387.661533 234.063358 
L 384.077719 229.423624 
L 380.458386 239.987447 
L 376.863916 226.153235 
L 373.145131 217.002756 
L 369.54711 233.542581 
L 365.945536 224.791684 
L 362.326203 223.353423 
L 358.674904 223.823414 
L 355.030708 224.767052 
L 351.450445 208.891859 
L 347.866631 237.177948 
L 344.300576 234.866711 
L 340.691899 231.894857 
L 337.079669 226.765403 
L 333.449681 223.043231 
L 329.837452 210.319498 
L 326.253637 216.426766 
L 322.655616 236.716345 
L 318.975901 240.864536 
L 315.392087 242.080426 
L 311.772754 235.745774 
L 308.103695 234.62019 
L 304.484363 239.948054 
L 300.854374 239.919955 
L 297.227938 234.130361 
L 293.573086 236.365897 
L 289.900476 229.303932 
L 286.192347 240.534923 
L 282.594325 235.332589 
L 278.903955 229.545225 
L 275.174515 231.40617 
L 271.55163 243.145525 
L 267.960712 242.597972 
L 264.348483 238.9292 
L 260.754013 240.495608 
L 257.148888 242.403975 
L 253.579281 241.189402 
L 249.981259 242.948905 
L 246.393893 242.372906 
L 242.820734 241.311976 
L 239.254679 244.575001 
L 235.68152 244.238459 
L 232.101257 243.027385 
L 228.506788 239.960325 
L 224.933629 242.142056 
L 221.374677 243.952978 
L 217.787311 240.749188 
L 214.192841 241.96895 
L 210.605475 241.583669 
L 207.007453 241.729908 
L 203.427191 244.567876 
L 199.868239 243.236027 
L 196.284425 244.243011 
L 192.704162 240.609267 
L 189.1239 244.607456 
L 185.543637 242.625611 
L 181.963375 239.313041 
L 178.372457 241.852796 
L 174.788642 237.781514 
L 171.176413 235.589516 
L 167.567736 237.848289 
L 163.976818 239.588425 
L 160.32907 233.847648 
L 156.713289 236.517079 
L 153.086853 230.592517 
L 149.378724 229.815346 
L 145.699009 223.203261 
L 141.916291 213.68809 
L 138.108711 205.002131 
L 134.144849 192.824796 
L 130.049568 175.423162 
L 126.007565 166.862202 
L 121.926492 160.077375 
L 117.831212 147.679007 
L 113.817624 134.903183 
L 109.956765 132.022254 
L 106.056837 104.878016 
L 102.366467 105.335597 
L 98.541127 93.099486 
L 94.630542 97.604441 
L 90.72351 96.242135 
L 86.8591 94.424328 
L 83.204248 90.14284 
L 79.364701 95.387611 
L 75.684987 89.834467 
L 72.189968 95.823345 
L 68.574187 89.617995 
z
" clip-path="url(#p14211d3d2a)" style="fill: #ff7f0e; fill-opacity: 0.2"/>
   </g>
   <g id="FillBetweenPolyCollection_3">
    <path d="M 68.627465 50.585787 
L 68.627465 326.152387 
L 72.356905 329.882537 
L 76.278145 321.78723 
L 80.263318 334.061931 
L 84.255595 345.006442 
L 88.194594 338.774092 
L 92.233045 337.021153 
L 96.321222 340.897313 
L 100.341914 338.237765 
L 104.341294 344.248319 
L 108.361986 330.669614 
L 112.336503 330.055502 
L 116.374954 318.6805 
L 120.40275 298.677667 
L 124.476719 297.926792 
L 128.518722 297.947479 
L 132.606898 302.399738 
L 136.371857 308.439777 
L 140.083538 306.074347 
L 143.741941 308.559446 
L 147.116197 315.449044 
L 150.248926 316.564039 
L 153.360345 318.942954 
L 156.382967 320.99489 
L 159.306138 323.254227 
L 162.247068 322.151081 
L 165.17379 320.775906 
L 168.104065 320.862228 
L 171.105376 322.440732 
L 174.056962 321.161005 
L 176.97658 320.506909 
L 179.860681 324.297853 
L 182.773196 321.559685 
L 185.643089 322.034462 
L 188.50943 321.300316 
L 191.429049 322.29033 
L 194.316701 321.875252 
L 197.204353 321.553216 
L 200.067143 322.968918 
L 202.944139 322.996195 
L 205.842447 322.744222 
L 208.71234 322.728862 
L 211.589337 321.900635 
L 214.445022 324.751876 
L 217.30426 325.842697 
L 220.152842 322.582961 
L 223.015631 323.941525 
L 225.892628 327.869182 
L 228.748313 323.0102 
L 231.603999 321.965823 
L 234.449029 324.494432 
L 237.31537 322.478809 
L 240.167504 324.071342 
L 243.008982 322.516011 
L 245.942808 321.132971 
L 248.819805 324.064598 
L 251.711009 322.317982 
L 254.715872 314.263525 
L 258.257064 317.469154 
L 261.432416 320.602348 
L 264.327172 323.11802 
L 267.332035 314.615857 
L 270.844813 319.261183 
L 273.792846 323.417832 
L 276.691154 323.540809 
L 279.578806 321.832705 
L 282.48777 322.231372 
L 285.386077 322.243916 
L 288.263074 324.369215 
L 291.125863 319.605399 
L 293.999308 316.648391 
L 296.869201 313.746933 
L 299.746198 308.809955 
L 302.612539 298.064637 
L 306.118213 275.172822 
L 309.506675 279.572714 
L 312.710442 288.159259 
L 315.814757 290.721593 
L 318.851587 294.567738 
L 321.888417 295.159618 
L 324.847106 299.715246 
L 327.898143 288.944573 
L 330.984699 296.148685 
L 334.089014 294.833923 
L 337.104532 302.179911 
L 340.215951 293.373384 
L 343.338025 299.427698 
L 346.381959 302.942441 
L 349.393925 301.638639 
L 352.409444 302.982095 
L 355.53507 299.137016 
L 358.646489 299.253842 
L 361.892878 291.132244 
L 365.192544 285.61235 
L 368.545489 280.601999 
L 371.884225 287.092288 
L 375.176788 292.904843 
L 378.472903 289.944709 
L 381.751258 291.273239 
L 384.979888 302.982937 
L 388.11617 302.139138 
L 391.23114 300.030733 
L 394.239555 303.401871 
L 397.219555 309.513314 
L 400.24573 304.132415 
L 403.279008 302.171349 
L 406.234145 302.539482 
L 409.302941 303.247318 
L 412.275838 301.091663 
L 415.174146 304.423709 
L 418.068902 302.093766 
L 421.077317 296.595856 
L 424.057317 301.060535 
L 427.019558 302.446217 
L 429.953384 305.650284 
L 432.851692 307.005866 
L 435.778414 305.761491 
L 438.698033 309.432311 
L 441.606997 309.195452 
L 444.622515 307.63072 
L 447.613171 314.685042 
L 450.610931 313.152847 
L 453.772075 311.168507 
L 456.816009 315.613282 
L 459.81732 315.705665 
L 462.800872 318.007527 
L 465.745354 317.369654 
L 468.67918 319.874043 
L 471.744425 318.593935 
L 474.713769 314.256373 
L 477.679562 315.676979 
L 480.620492 318.63654 
L 483.547215 318.141626 
L 486.488145 315.247679 
L 489.404212 309.143457 
L 492.34159 315.133329 
L 495.296727 315.354919 
L 498.26252 317.779701 
L 501.189243 320.044199 
L 504.076895 320.239443 
L 506.971651 320.863257 
L 509.951651 288.201336 
L 512.988481 303.209725 
L 515.922307 303.722328 
L 518.863237 312.480647 
L 521.789959 319.18602 
L 524.677612 316.655676 
L 527.575919 317.835635 
L 530.438709 318.708319 
L 533.418709 314.655559 
L 536.370294 318.666174 
L 539.279258 320.545321 
L 542.220188 318.746648 
L 545.129151 318.710237 
L 548.070081 317.766108 
L 551.06784 317.292633 
L 553.994563 319.956074 
L 556.907078 318.685162 
L 559.848008 319.827906 
L 562.796042 319.315906 
L 565.73342 320.533645 
L 568.610416 321.69188 
L 571.51938 320.046759 
L 574.428343 320.36926 
L 577.333754 321.951444 
L 580.217855 320.807519 
L 583.087748 317.758681 
L 586.273755 313.966682 
L 589.303481 316.59662 
L 592.290585 319.597023 
L 595.227963 320.417799 
L 598.286104 312.535428 
L 601.465008 313.428904 
L 604.604841 314.464341 
L 607.680742 316.837989 
L 610.735331 317.94183 
L 613.63719 318.80805 
L 616.67402 316.194683 
L 619.661124 321.138496 
L 622.65178 319.521417 
L 625.564295 321.311276 
L 628.544295 309.010092 
L 631.527847 316.5179 
L 634.578885 315.849828 
L 637.597955 317.178058 
L 640.538885 316.685045 
L 643.504678 318.130484 
L 646.413641 318.361013 
L 649.443367 321.004639 
L 652.448231 318.745822 
L 655.40692 318.200373 
L 658.514786 316.459287 
L 661.544513 317.999327 
L 664.542272 318.667399 
L 667.465443 320.647881 
L 670.406373 320.180606 
L 670.406373 241.986497 
L 670.406373 241.986497 
L 667.465443 243.133988 
L 664.542272 238.924535 
L 661.544513 237.977841 
L 658.514786 234.942712 
L 655.40692 235.085519 
L 652.448231 224.851476 
L 649.443367 197.832918 
L 646.413641 237.347028 
L 643.504678 240.268833 
L 640.538885 239.830378 
L 637.597955 240.683004 
L 634.578885 238.512574 
L 631.527847 239.459268 
L 628.544295 233.779823 
L 625.564295 243.008849 
L 622.65178 229.996688 
L 619.661124 220.305781 
L 616.67402 237.898592 
L 613.63719 240.667777 
L 610.735331 238.842721 
L 607.680742 234.833137 
L 604.604841 235.053764 
L 601.465008 233.128797 
L 598.286104 229.985359 
L 595.227963 239.865411 
L 592.290585 241.762698 
L 589.303481 271.406735 
L 586.273755 235.013168 
L 583.087748 236.065467 
L 580.217855 243.781733 
L 577.333754 244.790829 
L 574.428343 243.41261 
L 571.51938 238.352558 
L 568.610416 242.628245 
L 565.73342 243.78648 
L 562.796042 241.774687 
L 559.848008 241.531815 
L 556.907078 240.790665 
L 553.994563 243.556667 
L 551.06784 241.375812 
L 548.070081 239.556699 
L 545.129151 241.303846 
L 542.220188 240.729179 
L 539.279258 244.043931 
L 536.370294 241.886163 
L 533.418709 235.400801 
L 530.438709 240.229253 
L 527.575919 241.640192 
L 524.677612 236.361089 
L 521.789959 242.711956 
L 518.863237 234.077054 
L 515.922307 228.033354 
L 512.988481 227.200319 
L 509.951651 227.40669 
L 506.971651 243.456867 
L 504.076895 243.004171 
L 501.189243 242.392032 
L 498.26252 240.888743 
L 495.296727 240.891377 
L 492.34159 236.537797 
L 489.404212 222.881353 
L 486.488145 231.310023 
L 483.547215 238.10467 
L 480.620492 238.686266 
L 477.679562 234.64851 
L 474.713769 227.457031 
L 471.744425 207.24094 
L 468.67918 198.425259 
L 465.745354 236.185366 
L 462.800872 241.737428 
L 459.81732 270.413797 
L 456.816009 238.479993 
L 453.772075 233.505301 
L 450.610931 232.328344 
L 447.613171 234.294808 
L 444.622515 227.354494 
L 441.606997 232.78708 
L 438.698033 232.281093 
L 435.778414 225.994192 
L 432.851692 218.290754 
L 429.953384 229.33493 
L 427.019558 228.77121 
L 424.057317 224.236085 
L 421.077317 219.819552 
L 418.068902 219.973323 
L 415.174146 223.295059 
L 412.275838 227.16536 
L 409.302941 226.893599 
L 406.234145 223.833648 
L 403.279008 225.547419 
L 400.24573 226.546757 
L 397.219555 230.585324 
L 394.239555 226.469918 
L 391.23114 227.149779 
L 388.11617 222.080971 
L 384.979888 226.350596 
L 381.751258 221.105255 
L 378.472903 220.819019 
L 375.176788 221.088416 
L 371.884225 222.864058 
L 368.545489 206.478499 
L 365.192544 221.114463 
L 361.892878 224.475781 
L 358.646489 216.892438 
L 355.53507 229.658262 
L 352.409444 227.427949 
L 349.393925 226.887512 
L 346.381959 226.391093 
L 343.338025 224.254156 
L 340.215951 222.503768 
L 337.104532 223.116709 
L 334.089014 218.890209 
L 330.984699 222.150617 
L 327.898143 216.705731 
L 324.847106 208.626334 
L 321.888417 210.759813 
L 318.851587 212.697331 
L 315.814757 206.585754 
L 312.710442 210.762854 
L 309.506675 201.856104 
L 306.118213 189.839211 
L 302.612539 200.857476 
L 299.746198 211.642367 
L 296.869201 222.583919 
L 293.999308 224.526759 
L 291.125863 216.99458 
L 288.263074 238.605271 
L 285.386077 241.537954 
L 282.48777 235.091434 
L 279.578806 246.524334 
L 276.691154 239.433677 
L 273.792846 224.485508 
L 270.844813 204.151544 
L 267.332035 206.643848 
L 264.327172 231.782638 
L 261.432416 224.340587 
L 258.257064 189.526788 
L 254.715872 205.650542 
L 251.711009 229.891399 
L 248.819805 228.683038 
L 245.942808 234.844197 
L 243.008982 237.767199 
L 240.167504 234.86623 
L 237.31537 240.22655 
L 234.449029 240.633075 
L 231.603999 241.27779 
L 228.748313 235.927372 
L 225.892628 209.807308 
L 223.015631 234.457791 
L 220.152842 233.932463 
L 217.30426 230.134472 
L 214.445022 231.225292 
L 211.589337 238.92083 
L 208.71234 232.979178 
L 205.842447 236.731605 
L 202.944139 239.170909 
L 200.067143 240.812951 
L 197.204353 240.613888 
L 194.316701 241.906617 
L 191.429049 234.494221 
L 188.50943 239.252022 
L 185.643089 237.172237 
L 182.773196 240.338291 
L 179.860681 241.098782 
L 176.97658 237.892408 
L 174.056962 239.391332 
L 171.105376 230.306904 
L 168.104065 224.080707 
L 165.17379 232.779113 
L 162.247068 230.327428 
L 159.306138 221.688709 
L 156.382967 218.834621 
L 153.360345 212.543601 
L 150.248926 212.500367 
L 147.116197 195.314684 
L 143.741941 170.985478 
L 140.083538 148.710836 
L 136.371857 133.696408 
L 132.606898 74.069308 
L 128.518722 66.679952 
L 124.476719 59.972448 
L 120.40275 67.833657 
L 116.374954 63.709354 
L 112.336503 56.909521 
L 108.361986 69.751791 
L 104.341294 72.58987 
L 100.341914 63.26015 
L 96.321222 71.365707 
L 92.233045 61.516357 
L 88.194594 74.565438 
L 84.255595 62.41228 
L 80.263318 33.525904 
L 76.278145 28.038182 
L 72.356905 50.354295 
L 68.627465 50.585787 
z
" clip-path="url(#p14211d3d2a)" style="fill: #2ca02c; fill-opacity: 0.2"/>
   </g>
   <g id="matplotlib.axis_1">
    <g id="xtick_1">
     <g id="line2d_1">
      <path d="M 66.766297 390.04 
L 66.766297 10.8 
" clip-path="url(#p14211d3d2a)" style="fill: none; stroke: #b0b0b0; stroke-width: 0.8; stroke-linecap: square"/>
     </g>
     <g id="line2d_2">
      <defs>
       <path id="me12a6c2702" d="M 0 0 
L 0 3.5 
" style="stroke: #000000; stroke-width: 0.8"/>
      </defs>
      <g>
       <use xlink:href="#me12a6c2702" x="66.766297" y="390.04" style="stroke: #000000; stroke-width: 0.8"/>
      </g>
     </g>
     <g id="text_1">
      <!-- 0 -->
      <g transform="translate(63.585047 404.638438) scale(0.1 -0.1)">
       <defs>
        <path id="DejaVuSans-30" d="M 2034 4250 
Q 1547 4250 1301 3770 
Q 1056 3291 1056 2328 
Q 1056 1369 1301 889 
Q 1547 409 2034 409 
Q 2525 409 2770 889 
Q 3016 1369 3016 2328 
Q 3016 3291 2770 3770 
Q 2525 4250 2034 4250 
z
M 2034 4750 
Q 2819 4750 3233 4129 
Q 3647 3509 3647 2328 
Q 3647 1150 3233 529 
Q 2819 -91 2034 -91 
Q 1250 -91 836 529 
Q 422 1150 422 2328 
Q 422 3509 836 4129 
Q 1250 4750 2034 4750 
z
" transform="scale(0.015625)"/>
       </defs>
       <use xlink:href="#DejaVuSans-30"/>
      </g>
     </g>
    </g>
    <g id="xtick_2">
     <g id="line2d_3">
      <path d="M 155.56249 390.04 
L 155.56249 10.8 
" clip-path="url(#p14211d3d2a)" style="fill: none; stroke: #b0b0b0; stroke-width: 0.8; stroke-linecap: square"/>
     </g>
     <g id="line2d_4">
      <g>
       <use xlink:href="#me12a6c2702" x="155.56249" y="390.04" style="stroke: #000000; stroke-width: 0.8"/>
      </g>
     </g>
     <g id="text_2">
      <!-- 25000 -->
      <g transform="translate(139.65624 404.638438) scale(0.1 -0.1)">
       <defs>
        <path id="DejaVuSans-32" d="M 1228 531 
L 3431 531 
L 3431 0 
L 469 0 
L 469 531 
Q 828 903 1448 1529 
Q 2069 2156 2228 2338 
Q 2531 2678 2651 2914 
Q 2772 3150 2772 3378 
Q 2772 3750 2511 3984 
Q 2250 4219 1831 4219 
Q 1534 4219 1204 4116 
Q 875 4013 500 3803 
L 500 4441 
Q 881 4594 1212 4672 
Q 1544 4750 1819 4750 
Q 2544 4750 2975 4387 
Q 3406 4025 3406 3419 
Q 3406 3131 3298 2873 
Q 3191 2616 2906 2266 
Q 2828 2175 2409 1742 
Q 1991 1309 1228 531 
z
" transform="scale(0.015625)"/>
        <path id="DejaVuSans-35" d="M 691 4666 
L 3169 4666 
L 3169 4134 
L 1269 4134 
L 1269 2991 
Q 1406 3038 1543 3061 
Q 1681 3084 1819 3084 
Q 2600 3084 3056 2656 
Q 3513 2228 3513 1497 
Q 3513 744 3044 326 
Q 2575 -91 1722 -91 
Q 1428 -91 1123 -41 
Q 819 9 494 109 
L 494 744 
Q 775 591 1075 516 
Q 1375 441 1709 441 
Q 2250 441 2565 725 
Q 2881 1009 2881 1497 
Q 2881 1984 2565 2268 
Q 2250 2553 1709 2553 
Q 1456 2553 1204 2497 
Q 953 2441 691 2322 
L 691 4666 
z
" transform="scale(0.015625)"/>
       </defs>
       <use xlink:href="#DejaVuSans-32"/>
       <use xlink:href="#DejaVuSans-35" transform="translate(63.623047 0)"/>
       <use xlink:href="#DejaVuSans-30" transform="translate(127.246094 0)"/>
       <use xlink:href="#DejaVuSans-30" transform="translate(190.869141 0)"/>
       <use xlink:href="#DejaVuSans-30" transform="translate(254.492188 0)"/>
      </g>
     </g>
    </g>
    <g id="xtick_3">
     <g id="line2d_5">
      <path d="M 244.358684 390.04 
L 244.358684 10.8 
" clip-path="url(#p14211d3d2a)" style="fill: none; stroke: #b0b0b0; stroke-width: 0.8; stroke-linecap: square"/>
     </g>
     <g id="line2d_6">
      <g>
       <use xlink:href="#me12a6c2702" x="244.358684" y="390.04" style="stroke: #000000; stroke-width: 0.8"/>
      </g>
     </g>
     <g id="text_3">
      <!-- 50000 -->
      <g transform="translate(228.452434 404.638438) scale(0.1 -0.1)">
       <use xlink:href="#DejaVuSans-35"/>
       <use xlink:href="#DejaVuSans-30" transform="translate(63.623047 0)"/>
       <use xlink:href="#DejaVuSans-30" transform="translate(127.246094 0)"/>
       <use xlink:href="#DejaVuSans-30" transform="translate(190.869141 0)"/>
       <use xlink:href="#DejaVuSans-30" transform="translate(254.492188 0)"/>
      </g>
     </g>
    </g>
    <g id="xtick_4">
     <g id="line2d_7">
      <path d="M 333.154878 390.04 
L 333.154878 10.8 
" clip-path="url(#p14211d3d2a)" style="fill: none; stroke: #b0b0b0; stroke-width: 0.8; stroke-linecap: square"/>
     </g>
     <g id="line2d_8">
      <g>
       <use xlink:href="#me12a6c2702" x="333.154878" y="390.04" style="stroke: #000000; stroke-width: 0.8"/>
      </g>
     </g>
     <g id="text_4">
      <!-- 75000 -->
      <g transform="translate(317.248628 404.638438) scale(0.1 -0.1)">
       <defs>
        <path id="DejaVuSans-37" d="M 525 4666 
L 3525 4666 
L 3525 4397 
L 1831 0 
L 1172 0 
L 2766 4134 
L 525 4134 
L 525 4666 
z
" transform="scale(0.015625)"/>
       </defs>
       <use xlink:href="#DejaVuSans-37"/>
       <use xlink:href="#DejaVuSans-35" transform="translate(63.623047 0)"/>
       <use xlink:href="#DejaVuSans-30" transform="translate(127.246094 0)"/>
       <use xlink:href="#DejaVuSans-30" transform="translate(190.869141 0)"/>
       <use xlink:href="#DejaVuSans-30" transform="translate(254.492188 0)"/>
      </g>
     </g>
    </g>
    <g id="xtick_5">
     <g id="line2d_9">
      <path d="M 421.951071 390.04 
L 421.951071 10.8 
" clip-path="url(#p14211d3d2a)" style="fill: none; stroke: #b0b0b0; stroke-width: 0.8; stroke-linecap: square"/>
     </g>
     <g id="line2d_10">
      <g>
       <use xlink:href="#me12a6c2702" x="421.951071" y="390.04" style="stroke: #000000; stroke-width: 0.8"/>
      </g>
     </g>
     <g id="text_5">
      <!-- 100000 -->
      <g transform="translate(402.863571 404.638438) scale(0.1 -0.1)">
       <defs>
        <path id="DejaVuSans-31" d="M 794 531 
L 1825 531 
L 1825 4091 
L 703 3866 
L 703 4441 
L 1819 4666 
L 2450 4666 
L 2450 531 
L 3481 531 
L 3481 0 
L 794 0 
L 794 531 
z
" transform="scale(0.015625)"/>
       </defs>
       <use xlink:href="#DejaVuSans-31"/>
       <use xlink:href="#DejaVuSans-30" transform="translate(63.623047 0)"/>
       <use xlink:href="#DejaVuSans-30" transform="translate(127.246094 0)"/>
       <use xlink:href="#DejaVuSans-30" transform="translate(190.869141 0)"/>
       <use xlink:href="#DejaVuSans-30" transform="translate(254.492188 0)"/>
       <use xlink:href="#DejaVuSans-30" transform="translate(318.115234 0)"/>
      </g>
     </g>
    </g>
    <g id="xtick_6">
     <g id="line2d_11">
      <path d="M 510.747265 390.04 
L 510.747265 10.8 
" clip-path="url(#p14211d3d2a)" style="fill: none; stroke: #b0b0b0; stroke-width: 0.8; stroke-linecap: square"/>
     </g>
     <g id="line2d_12">
      <g>
       <use xlink:href="#me12a6c2702" x="510.747265" y="390.04" style="stroke: #000000; stroke-width: 0.8"/>
      </g>
     </g>
     <g id="text_6">
      <!-- 125000 -->
      <g transform="translate(491.659765 404.638438) scale(0.1 -0.1)">
       <use xlink:href="#DejaVuSans-31"/>
       <use xlink:href="#DejaVuSans-32" transform="translate(63.623047 0)"/>
       <use xlink:href="#DejaVuSans-35" transform="translate(127.246094 0)"/>
       <use xlink:href="#DejaVuSans-30" transform="translate(190.869141 0)"/>
       <use xlink:href="#DejaVuSans-30" transform="translate(254.492188 0)"/>
       <use xlink:href="#DejaVuSans-30" transform="translate(318.115234 0)"/>
      </g>
     </g>
    </g>
    <g id="xtick_7">
     <g id="line2d_13">
      <path d="M 599.543458 390.04 
L 599.543458 10.8 
" clip-path="url(#p14211d3d2a)" style="fill: none; stroke: #b0b0b0; stroke-width: 0.8; stroke-linecap: square"/>
     </g>
     <g id="line2d_14">
      <g>
       <use xlink:href="#me12a6c2702" x="599.543458" y="390.04" style="stroke: #000000; stroke-width: 0.8"/>
      </g>
     </g>
     <g id="text_7">
      <!-- 150000 -->
      <g transform="translate(580.455958 404.638438) scale(0.1 -0.1)">
       <use xlink:href="#DejaVuSans-31"/>
       <use xlink:href="#DejaVuSans-35" transform="translate(63.623047 0)"/>
       <use xlink:href="#DejaVuSans-30" transform="translate(127.246094 0)"/>
       <use xlink:href="#DejaVuSans-30" transform="translate(190.869141 0)"/>
       <use xlink:href="#DejaVuSans-30" transform="translate(254.492188 0)"/>
       <use xlink:href="#DejaVuSans-30" transform="translate(318.115234 0)"/>
      </g>
     </g>
    </g>
    <g id="xtick_8">
     <g id="line2d_15">
      <path d="M 688.339652 390.04 
L 688.339652 10.8 
" clip-path="url(#p14211d3d2a)" style="fill: none; stroke: #b0b0b0; stroke-width: 0.8; stroke-linecap: square"/>
     </g>
     <g id="line2d_16">
      <g>
       <use xlink:href="#me12a6c2702" x="688.339652" y="390.04" style="stroke: #000000; stroke-width: 0.8"/>
      </g>
     </g>
     <g id="text_8">
      <!-- 175000 -->
      <g transform="translate(669.252152 404.638438) scale(0.1 -0.1)">
       <use xlink:href="#DejaVuSans-31"/>
       <use xlink:href="#DejaVuSans-37" transform="translate(63.623047 0)"/>
       <use xlink:href="#DejaVuSans-35" transform="translate(127.246094 0)"/>
       <use xlink:href="#DejaVuSans-30" transform="translate(190.869141 0)"/>
       <use xlink:href="#DejaVuSans-30" transform="translate(254.492188 0)"/>
       <use xlink:href="#DejaVuSans-30" transform="translate(318.115234 0)"/>
      </g>
     </g>
    </g>
    <g id="text_9">
     <!-- Steps -->
     <g transform="translate(355.399209 418.316562) scale(0.1 -0.1)">
      <defs>
       <path id="DejaVuSans-53" d="M 3425 4513 
L 3425 3897 
Q 3066 4069 2747 4153 
Q 2428 4238 2131 4238 
Q 1616 4238 1336 4038 
Q 1056 3838 1056 3469 
Q 1056 3159 1242 3001 
Q 1428 2844 1947 2747 
L 2328 2669 
Q 3034 2534 3370 2195 
Q 3706 1856 3706 1288 
Q 3706 609 3251 259 
Q 2797 -91 1919 -91 
Q 1588 -91 1214 -16 
Q 841 59 441 206 
L 441 856 
Q 825 641 1194 531 
Q 1563 422 1919 422 
Q 2459 422 2753 634 
Q 3047 847 3047 1241 
Q 3047 1584 2836 1778 
Q 2625 1972 2144 2069 
L 1759 2144 
Q 1053 2284 737 2584 
Q 422 2884 422 3419 
Q 422 4038 858 4394 
Q 1294 4750 2059 4750 
Q 2388 4750 2728 4690 
Q 3069 4631 3425 4513 
z
" transform="scale(0.015625)"/>
       <path id="DejaVuSans-74" d="M 1172 4494 
L 1172 3500 
L 2356 3500 
L 2356 3053 
L 1172 3053 
L 1172 1153 
Q 1172 725 1289 603 
Q 1406 481 1766 481 
L 2356 481 
L 2356 0 
L 1766 0 
Q 1100 0 847 248 
Q 594 497 594 1153 
L 594 3053 
L 172 3053 
L 172 3500 
L 594 3500 
L 594 4494 
L 1172 4494 
z
" transform="scale(0.015625)"/>
       <path id="DejaVuSans-65" d="M 3597 1894 
L 3597 1613 
L 953 1613 
Q 991 1019 1311 708 
Q 1631 397 2203 397 
Q 2534 397 2845 478 
Q 3156 559 3463 722 
L 3463 178 
Q 3153 47 2828 -22 
Q 2503 -91 2169 -91 
Q 1331 -91 842 396 
Q 353 884 353 1716 
Q 353 2575 817 3079 
Q 1281 3584 2069 3584 
Q 2775 3584 3186 3129 
Q 3597 2675 3597 1894 
z
M 3022 2063 
Q 3016 2534 2758 2815 
Q 2500 3097 2075 3097 
Q 1594 3097 1305 2825 
Q 1016 2553 972 2059 
L 3022 2063 
z
" transform="scale(0.015625)"/>
       <path id="DejaVuSans-70" d="M 1159 525 
L 1159 -1331 
L 581 -1331 
L 581 3500 
L 1159 3500 
L 1159 2969 
Q 1341 3281 1617 3432 
Q 1894 3584 2278 3584 
Q 2916 3584 3314 3078 
Q 3713 2572 3713 1747 
Q 3713 922 3314 415 
Q 2916 -91 2278 -91 
Q 1894 -91 1617 61 
Q 1341 213 1159 525 
z
M 3116 1747 
Q 3116 2381 2855 2742 
Q 2594 3103 2138 3103 
Q 1681 3103 1420 2742 
Q 1159 2381 1159 1747 
Q 1159 1113 1420 752 
Q 1681 391 2138 391 
Q 2594 391 2855 752 
Q 3116 1113 3116 1747 
z
" transform="scale(0.015625)"/>
       <path id="DejaVuSans-73" d="M 2834 3397 
L 2834 2853 
Q 2591 2978 2328 3040 
Q 2066 3103 1784 3103 
Q 1356 3103 1142 2972 
Q 928 2841 928 2578 
Q 928 2378 1081 2264 
Q 1234 2150 1697 2047 
L 1894 2003 
Q 2506 1872 2764 1633 
Q 3022 1394 3022 966 
Q 3022 478 2636 193 
Q 2250 -91 1575 -91 
Q 1294 -91 989 -36 
Q 684 19 347 128 
L 347 722 
Q 666 556 975 473 
Q 1284 391 1588 391 
Q 1994 391 2212 530 
Q 2431 669 2431 922 
Q 2431 1156 2273 1281 
Q 2116 1406 1581 1522 
L 1381 1569 
Q 847 1681 609 1914 
Q 372 2147 372 2553 
Q 372 3047 722 3315 
Q 1072 3584 1716 3584 
Q 2034 3584 2315 3537 
Q 2597 3491 2834 3397 
z
" transform="scale(0.015625)"/>
      </defs>
      <use xlink:href="#DejaVuSans-53"/>
      <use xlink:href="#DejaVuSans-74" transform="translate(63.476562 0)"/>
      <use xlink:href="#DejaVuSans-65" transform="translate(102.685547 0)"/>
      <use xlink:href="#DejaVuSans-70" transform="translate(164.208984 0)"/>
      <use xlink:href="#DejaVuSans-73" transform="translate(227.685547 0)"/>
     </g>
    </g>
   </g>
   <g id="matplotlib.axis_2">
    <g id="ytick_1">
     <g id="line2d_17">
      <path d="M 38.27 311.494973 
L 700.508105 311.494973 
" clip-path="url(#p14211d3d2a)" style="fill: none; stroke: #b0b0b0; stroke-width: 0.8; stroke-linecap: square"/>
     </g>
     <g id="line2d_18">
      <defs>
       <path id="m5cbe6d8a28" d="M 0 0 
L -3.5 0 
" style="stroke: #000000; stroke-width: 0.8"/>
      </defs>
      <g>
       <use xlink:href="#m5cbe6d8a28" x="38.27" y="311.494973" style="stroke: #000000; stroke-width: 0.8"/>
      </g>
     </g>
     <g id="text_10">
      <!-- 4 -->
      <g transform="translate(24.9075 315.294191) scale(0.1 -0.1)">
       <defs>
        <path id="DejaVuSans-34" d="M 2419 4116 
L 825 1625 
L 2419 1625 
L 2419 4116 
z
M 2253 4666 
L 3047 4666 
L 3047 1625 
L 3713 1625 
L 3713 1100 
L 3047 1100 
L 3047 0 
L 2419 0 
L 2419 1100 
L 313 1100 
L 313 1709 
L 2253 4666 
z
" transform="scale(0.015625)"/>
       </defs>
       <use xlink:href="#DejaVuSans-34"/>
      </g>
     </g>
    </g>
    <g id="ytick_2">
     <g id="line2d_19">
      <path d="M 38.27 230.756687 
L 700.508105 230.756687 
" clip-path="url(#p14211d3d2a)" style="fill: none; stroke: #b0b0b0; stroke-width: 0.8; stroke-linecap: square"/>
     </g>
     <g id="line2d_20">
      <g>
       <use xlink:href="#m5cbe6d8a28" x="38.27" y="230.756687" style="stroke: #000000; stroke-width: 0.8"/>
      </g>
     </g>
     <g id="text_11">
      <!-- 5 -->
      <g transform="translate(24.9075 234.555906) scale(0.1 -0.1)">
       <use xlink:href="#DejaVuSans-35"/>
      </g>
     </g>
    </g>
    <g id="ytick_3">
     <g id="line2d_21">
      <path d="M 38.27 150.018401 
L 700.508105 150.018401 
" clip-path="url(#p14211d3d2a)" style="fill: none; stroke: #b0b0b0; stroke-width: 0.8; stroke-linecap: square"/>
     </g>
     <g id="line2d_22">
      <g>
       <use xlink:href="#m5cbe6d8a28" x="38.27" y="150.018401" style="stroke: #000000; stroke-width: 0.8"/>
      </g>
     </g>
     <g id="text_12">
      <!-- 6 -->
      <g transform="translate(24.9075 153.81762) scale(0.1 -0.1)">
       <defs>
        <path id="DejaVuSans-36" d="M 2113 2584 
Q 1688 2584 1439 2293 
Q 1191 2003 1191 1497 
Q 1191 994 1439 701 
Q 1688 409 2113 409 
Q 2538 409 2786 701 
Q 3034 994 3034 1497 
Q 3034 2003 2786 2293 
Q 2538 2584 2113 2584 
z
M 3366 4563 
L 3366 3988 
Q 3128 4100 2886 4159 
Q 2644 4219 2406 4219 
Q 1781 4219 1451 3797 
Q 1122 3375 1075 2522 
Q 1259 2794 1537 2939 
Q 1816 3084 2150 3084 
Q 2853 3084 3261 2657 
Q 3669 2231 3669 1497 
Q 3669 778 3244 343 
Q 2819 -91 2113 -91 
Q 1303 -91 875 529 
Q 447 1150 447 2328 
Q 447 3434 972 4092 
Q 1497 4750 2381 4750 
Q 2619 4750 2861 4703 
Q 3103 4656 3366 4563 
z
" transform="scale(0.015625)"/>
       </defs>
       <use xlink:href="#DejaVuSans-36"/>
      </g>
     </g>
    </g>
    <g id="ytick_4">
     <g id="line2d_23">
      <path d="M 38.27 69.280115 
L 700.508105 69.280115 
" clip-path="url(#p14211d3d2a)" style="fill: none; stroke: #b0b0b0; stroke-width: 0.8; stroke-linecap: square"/>
     </g>
     <g id="line2d_24">
      <g>
       <use xlink:href="#m5cbe6d8a28" x="38.27" y="69.280115" style="stroke: #000000; stroke-width: 0.8"/>
      </g>
     </g>
     <g id="text_13">
      <!-- 7 -->
      <g transform="translate(24.9075 73.079334) scale(0.1 -0.1)">
       <use xlink:href="#DejaVuSans-37"/>
      </g>
     </g>
    </g>
    <g id="text_14">
     <!-- Quantum Gates -->
     <g transform="translate(18.827813 239.925469) rotate(-90) scale(0.1 -0.1)">
      <defs>
       <path id="DejaVuSans-51" d="M 2522 4238 
Q 1834 4238 1429 3725 
Q 1025 3213 1025 2328 
Q 1025 1447 1429 934 
Q 1834 422 2522 422 
Q 3209 422 3611 934 
Q 4013 1447 4013 2328 
Q 4013 3213 3611 3725 
Q 3209 4238 2522 4238 
z
M 3406 84 
L 4238 -825 
L 3475 -825 
L 2784 -78 
Q 2681 -84 2626 -87 
Q 2572 -91 2522 -91 
Q 1538 -91 948 567 
Q 359 1225 359 2328 
Q 359 3434 948 4092 
Q 1538 4750 2522 4750 
Q 3503 4750 4090 4092 
Q 4678 3434 4678 2328 
Q 4678 1516 4351 937 
Q 4025 359 3406 84 
z
" transform="scale(0.015625)"/>
       <path id="DejaVuSans-75" d="M 544 1381 
L 544 3500 
L 1119 3500 
L 1119 1403 
Q 1119 906 1312 657 
Q 1506 409 1894 409 
Q 2359 409 2629 706 
Q 2900 1003 2900 1516 
L 2900 3500 
L 3475 3500 
L 3475 0 
L 2900 0 
L 2900 538 
Q 2691 219 2414 64 
Q 2138 -91 1772 -91 
Q 1169 -91 856 284 
Q 544 659 544 1381 
z
M 1991 3584 
L 1991 3584 
z
" transform="scale(0.015625)"/>
       <path id="DejaVuSans-61" d="M 2194 1759 
Q 1497 1759 1228 1600 
Q 959 1441 959 1056 
Q 959 750 1161 570 
Q 1363 391 1709 391 
Q 2188 391 2477 730 
Q 2766 1069 2766 1631 
L 2766 1759 
L 2194 1759 
z
M 3341 1997 
L 3341 0 
L 2766 0 
L 2766 531 
Q 2569 213 2275 61 
Q 1981 -91 1556 -91 
Q 1019 -91 701 211 
Q 384 513 384 1019 
Q 384 1609 779 1909 
Q 1175 2209 1959 2209 
L 2766 2209 
L 2766 2266 
Q 2766 2663 2505 2880 
Q 2244 3097 1772 3097 
Q 1472 3097 1187 3025 
Q 903 2953 641 2809 
L 641 3341 
Q 956 3463 1253 3523 
Q 1550 3584 1831 3584 
Q 2591 3584 2966 3190 
Q 3341 2797 3341 1997 
z
" transform="scale(0.015625)"/>
       <path id="DejaVuSans-6e" d="M 3513 2113 
L 3513 0 
L 2938 0 
L 2938 2094 
Q 2938 2591 2744 2837 
Q 2550 3084 2163 3084 
Q 1697 3084 1428 2787 
Q 1159 2491 1159 1978 
L 1159 0 
L 581 0 
L 581 3500 
L 1159 3500 
L 1159 2956 
Q 1366 3272 1645 3428 
Q 1925 3584 2291 3584 
Q 2894 3584 3203 3211 
Q 3513 2838 3513 2113 
z
" transform="scale(0.015625)"/>
       <path id="DejaVuSans-6d" d="M 3328 2828 
Q 3544 3216 3844 3400 
Q 4144 3584 4550 3584 
Q 5097 3584 5394 3201 
Q 5691 2819 5691 2113 
L 5691 0 
L 5113 0 
L 5113 2094 
Q 5113 2597 4934 2840 
Q 4756 3084 4391 3084 
Q 3944 3084 3684 2787 
Q 3425 2491 3425 1978 
L 3425 0 
L 2847 0 
L 2847 2094 
Q 2847 2600 2669 2842 
Q 2491 3084 2119 3084 
Q 1678 3084 1418 2786 
Q 1159 2488 1159 1978 
L 1159 0 
L 581 0 
L 581 3500 
L 1159 3500 
L 1159 2956 
Q 1356 3278 1631 3431 
Q 1906 3584 2284 3584 
Q 2666 3584 2933 3390 
Q 3200 3197 3328 2828 
z
" transform="scale(0.015625)"/>
       <path id="DejaVuSans-20" transform="scale(0.015625)"/>
       <path id="DejaVuSans-47" d="M 3809 666 
L 3809 1919 
L 2778 1919 
L 2778 2438 
L 4434 2438 
L 4434 434 
Q 4069 175 3628 42 
Q 3188 -91 2688 -91 
Q 1594 -91 976 548 
Q 359 1188 359 2328 
Q 359 3472 976 4111 
Q 1594 4750 2688 4750 
Q 3144 4750 3555 4637 
Q 3966 4525 4313 4306 
L 4313 3634 
Q 3963 3931 3569 4081 
Q 3175 4231 2741 4231 
Q 1884 4231 1454 3753 
Q 1025 3275 1025 2328 
Q 1025 1384 1454 906 
Q 1884 428 2741 428 
Q 3075 428 3337 486 
Q 3600 544 3809 666 
z
" transform="scale(0.015625)"/>
      </defs>
      <use xlink:href="#DejaVuSans-51"/>
      <use xlink:href="#DejaVuSans-75" transform="translate(78.710938 0)"/>
      <use xlink:href="#DejaVuSans-61" transform="translate(142.089844 0)"/>
      <use xlink:href="#DejaVuSans-6e" transform="translate(203.369141 0)"/>
      <use xlink:href="#DejaVuSans-74" transform="translate(266.748047 0)"/>
      <use xlink:href="#DejaVuSans-75" transform="translate(305.957031 0)"/>
      <use xlink:href="#DejaVuSans-6d" transform="translate(369.335938 0)"/>
      <use xlink:href="#DejaVuSans-20" transform="translate(466.748047 0)"/>
      <use xlink:href="#DejaVuSans-47" transform="translate(498.535156 0)"/>
      <use xlink:href="#DejaVuSans-61" transform="translate(576.025391 0)"/>
      <use xlink:href="#DejaVuSans-74" transform="translate(637.304688 0)"/>
      <use xlink:href="#DejaVuSans-65" transform="translate(676.513672 0)"/>
      <use xlink:href="#DejaVuSans-73" transform="translate(738.037109 0)"/>
     </g>
    </g>
   </g>
   <g id="line2d_25">
    <path d="M 68.371732 256.592938 
L 71.738884 256.323811 
L 75.010135 247.308035 
L 78.359528 240.714409 
L 81.829683 254.978173 
L 85.12935 264.263075 
L 88.460983 254.305354 
L 91.980864 246.231525 
L 95.546919 232.236889 
L 99.215978 240.579845 
L 102.931211 232.236889 
L 106.628684 225.105007 
L 110.21605 227.661719 
L 113.775002 226.046954 
L 117.227398 239.637898 
L 120.257124 259.015087 
L 123.24778 266.416096 
L 126.252643 277.181201 
L 129.16871 289.830199 
L 132.095432 294.136241 
L 135.018603 289.830199 
L 137.899152 298.038592 
L 140.7797 298.845975 
L 143.649593 304.363091 
L 146.533693 304.901346 
L 149.414242 306.11242 
L 152.287687 305.574165 
L 155.143372 305.574165 
L 157.995506 307.727186 
L 160.865399 308.130877 
L 163.721085 306.650676 
L 166.559011 308.534569 
L 169.404041 308.534569 
L 172.263279 307.996314 
L 175.11186 309.072824 
L 177.967546 308.400005 
L 180.837439 309.341952 
L 183.686021 309.611079 
L 186.545258 309.207388 
L 189.39384 310.956717 
L 192.23887 310.418462 
L 195.105211 310.283898 
L 197.953793 310.822154 
L 200.813031 308.130877 
L 203.668716 310.418462 
L 206.524402 309.745643 
L 209.383639 309.341952 
L 212.235773 307.86175 
L 215.084355 310.553026 
L 217.929385 309.476516 
L 220.799278 309.341952 
L 223.654964 309.476516 
L 226.499994 310.283898 
L 229.345024 310.956717 
L 232.193606 310.283898 
L 235.045739 310.822154 
L 237.897873 310.822154 
L 240.739351 310.149335 
L 243.598589 307.592622 
L 246.461378 311.898664 
L 249.231819 316.877525 
L 251.980949 312.706047 
L 254.804668 310.014771 
L 257.656802 315.801015 
L 260.256755 314.186249 
L 263.105336 311.494973 
L 265.953918 311.225845 
L 268.592941 318.492291 
L 271.359831 310.68759 
L 274.204861 308.93826 
L 277.06765 303.959399 
L 279.937543 306.246984 
L 282.79678 308.669133 
L 285.666673 312.706047 
L 288.536566 322.798333 
L 291.392252 319.434237 
L 294.301215 292.117784 
L 297.970274 286.869796 
L 301.284148 302.613761 
L 304.214422 309.207388 
L 307.123386 305.708729 
L 310.110489 306.381548 
L 313.09049 305.305037 
L 316.01366 310.822154 
L 319.039835 299.249666 
L 322.090872 305.708729 
L 325.095735 307.458058 
L 328.015354 309.341952 
L 330.913662 310.283898 
L 333.822625 308.669133 
L 336.713829 308.534569 
L 339.605033 310.68759 
L 342.492685 309.745643 
L 345.355475 310.149335 
L 348.225368 309.611079 
L 351.105916 294.539933 
L 353.986465 284.582211 
L 356.84215 298.845975 
L 359.701388 305.574165 
L 362.560625 309.611079 
L 365.409207 311.225845 
L 368.392759 301.806378 
L 371.401174 306.516112 
L 374.303034 309.341952 
L 377.194238 309.745643 
L 380.071234 310.68759 
L 385.807469 309.341952 
L 388.677362 309.476516 
L 391.540151 310.956717 
L 394.378077 312.167792 
L 397.216004 310.553026 
L 400.093 310.822154 
L 402.948686 310.283898 
L 405.83989 310.553026 
L 408.727542 309.341952 
L 411.618746 310.014771 
L 414.495743 309.880207 
L 417.422465 306.516112 
L 420.395362 306.381548 
L 423.357603 306.516112 
L 426.31274 308.803696 
L 429.189737 309.476516 
L 432.031215 312.167792 
L 434.869141 311.091281 
L 437.721275 311.494973 
L 440.59472 309.745643 
L 443.457509 310.956717 
L 449.172432 310.68759 
L 452.038773 310.014771 
L 454.933529 309.072824 
L 457.79987 310.553026 
L 460.648452 311.091281 
L 463.521897 306.516112 
L 466.576486 305.574165 
L 469.520968 308.265441 
L 472.422828 309.745643 
L 478.162614 310.553026 
L 481.050266 309.880207 
L 483.913055 304.363091 
L 486.772293 306.785239 
L 489.82333 304.632218 
L 492.813986 305.708729 
L 495.779778 307.86175 
L 498.681638 309.341952 
L 501.565738 310.418462 
L 504.442735 308.265441 
L 507.319732 310.956717 
L 513.052414 310.418462 
L 515.915203 310.283898 
L 518.767337 310.956717 
L 521.63723 309.745643 
L 524.507123 310.68759 
L 527.373464 310.283898 
L 530.236253 310.283898 
L 533.088387 309.476516 
L 535.944073 303.421144 
L 539.069699 306.246984 
L 542.010629 309.611079 
L 544.866314 310.553026 
L 547.739759 309.341952 
L 550.620308 310.822154 
L 556.321023 311.360409 
L 559.219331 306.919803 
L 562.192228 308.803696 
L 565.076328 309.745643 
L 567.949773 310.149335 
L 570.826769 300.864432 
L 573.682455 311.091281 
L 576.566555 308.265441 
L 579.500382 292.117784 
L 582.384482 292.656039 
L 585.289893 299.653357 
L 588.198857 309.476516 
L 591.065198 310.553026 
L 593.942194 309.880207 
L 596.804984 311.360409 
L 599.692636 308.130877 
L 602.573184 309.207388 
L 605.478596 310.149335 
L 608.355593 309.745643 
L 611.211278 310.283898 
L 614.123793 308.534569 
L 617.043412 307.458058 
L 619.938168 306.650676 
L 622.822268 310.283898 
L 625.699265 309.745643 
L 628.57271 309.745643 
L 631.435499 310.553026 
L 634.30184 290.637582 
L 637.178837 289.830199 
L 640.052282 301.806378 
L 642.925727 309.611079 
L 645.802723 310.149335 
L 648.661961 310.553026 
L 651.531854 310.014771 
L 654.398195 308.400005 
L 657.300055 310.822154 
L 660.177051 308.265441 
L 663.100222 310.283898 
L 666.026944 303.421144 
L 669.099293 305.843293 
L 669.099293 305.843293 
" clip-path="url(#p14211d3d2a)" style="fill: none; stroke: #1f77b4; stroke-width: 1.5; stroke-linecap: square"/>
   </g>
   <g id="line2d_26">
    <path d="M 68.574187 217.165742 
L 72.189968 220.126146 
L 75.684987 211.917754 
L 79.364701 212.590573 
L 83.204248 210.706679 
L 86.8591 215.147285 
L 90.72351 213.397955 
L 94.630542 208.284531 
L 98.541127 200.883521 
L 102.366467 211.78319 
L 106.056837 205.593254 
L 109.956765 226.450645 
L 113.817624 229.545613 
L 117.831212 240.579845 
L 121.926492 247.577163 
L 126.007565 253.767098 
L 130.049568 258.342268 
L 134.144849 263.590256 
L 138.108711 269.3765 
L 141.916291 271.798649 
L 145.699009 275.700999 
L 149.378724 279.334222 
L 153.086853 278.930531 
L 156.713289 280.410733 
L 160.32907 280.67986 
L 163.976818 281.890935 
L 167.567736 280.814424 
L 171.176413 279.199658 
L 174.788642 280.545296 
L 178.372457 282.563754 
L 181.963375 281.218116 
L 185.543637 283.371136 
L 189.1239 283.640264 
L 192.704162 282.42919 
L 196.284425 283.774828 
L 199.868239 283.774828 
L 203.427191 283.909392 
L 207.007453 282.563754 
L 210.605475 282.294626 
L 214.192841 282.832881 
L 217.787311 282.160062 
L 221.374677 283.5057 
L 224.933629 283.236573 
L 228.506788 281.218116 
L 232.101257 283.236573 
L 235.68152 284.447647 
L 239.254679 284.716775 
L 242.820734 282.563754 
L 246.393893 283.102009 
L 249.981259 282.832881 
L 253.579281 282.294626 
L 257.148888 282.563754 
L 260.754013 282.294626 
L 264.348483 281.890935 
L 267.960712 283.640264 
L 271.55163 283.371136 
L 275.174515 277.584893 
L 278.903955 277.450329 
L 282.594325 280.007041 
L 286.192347 282.160062 
L 289.900476 277.450329 
L 293.573086 279.737914 
L 297.227938 279.60335 
L 300.854374 282.42919 
L 304.484363 282.563754 
L 308.103695 279.60335 
L 311.772754 280.141605 
L 315.392087 282.563754 
L 318.975901 282.160062 
L 322.655616 280.410733 
L 326.253637 267.358043 
L 329.837452 263.72482 
L 333.449681 272.606032 
L 337.079669 273.817106 
L 340.691899 277.046637 
L 344.300576 279.334222 
L 347.866631 280.67986 
L 351.450445 260.495289 
L 355.030708 272.606032 
L 358.674904 274.624489 
L 362.326203 271.529521 
L 365.945536 271.394957 
L 369.54711 278.526839 
L 373.145131 270.722138 
L 376.863916 276.373818 
L 380.458386 283.774828 
L 384.077719 278.526839 
L 387.661533 280.141605 
L 391.273762 279.872477 
L 394.889543 285.120466 
L 398.540843 294.270805 
L 402.096242 290.503018 
L 405.669401 299.38423 
L 409.221249 304.363091 
L 412.7802 298.576847 
L 416.339152 300.326176 
L 419.883896 299.787921 
L 423.439295 287.273487 
L 426.998247 298.980538 
L 430.557198 305.305037 
L 434.130357 304.363091 
L 437.689309 298.442283 
L 441.216293 294.943624 
L 444.775245 290.368455 
L 448.327093 292.386912 
L 451.889596 291.98322 
L 455.452099 289.964763 
L 459.007499 289.561072 
L 462.559346 285.120466 
L 466.118298 287.273487 
L 469.670146 284.985902 
L 473.229097 282.832881 
L 476.784497 280.814424 
L 480.339896 287.138923 
L 483.891744 295.616443 
L 487.443592 294.674496 
L 490.998991 288.619125 
L 494.550839 284.043956 
L 498.102687 283.774828 
L 501.672294 289.022816 
L 505.256108 292.925167 
L 508.822163 286.869796 
L 512.384667 284.582211 
L 515.940066 284.716775 
L 519.491914 284.043956 
L 523.036658 285.389594 
L 526.567195 284.582211 
L 530.129698 278.930531 
L 533.67089 284.582211 
L 537.219186 284.313083 
L 540.774586 283.774828 
L 544.326433 284.178519 
L 547.878281 284.447647 
L 551.430129 284.582211 
L 554.981977 284.985902 
L 558.533824 283.102009 
L 562.089224 283.5057 
L 565.644624 284.582211 
L 569.196471 284.447647 
L 572.748319 283.774828 
L 576.360548 271.798649 
L 580.320858 277.450329 
L 583.904673 284.313083 
L 587.460072 284.447647 
L 591.019024 284.313083 
L 594.570872 283.640264 
L 601.678119 283.909392 
L 605.240622 279.737914 
L 608.79247 255.2473 
L 612.347869 272.20234 
L 615.984962 284.313083 
L 619.540361 280.141605 
L 622.971446 292.521476 
L 626.395427 284.851338 
L 629.947275 277.181201 
L 633.499123 281.756371 
L 637.054522 284.851338 
L 640.60637 283.909392 
L 644.165322 283.909392 
L 647.717169 284.313083 
L 651.269017 284.043956 
L 654.820865 282.832881 
L 658.376264 284.313083 
L 661.928112 284.447647 
L 665.47996 284.851338 
L 669.042463 283.909392 
L 669.042463 283.909392 
" clip-path="url(#p14211d3d2a)" style="fill: none; stroke: #ff7f0e; stroke-width: 1.5; stroke-linecap: square"/>
   </g>
   <g id="line2d_27">
    <path d="M 68.627465 188.369087 
L 72.356905 190.118416 
L 76.278145 174.912706 
L 80.263318 183.793917 
L 84.255595 203.709361 
L 88.194594 206.669765 
L 92.233045 199.268755 
L 96.321222 206.13151 
L 100.341914 200.748957 
L 104.341294 208.419094 
L 108.361986 200.210702 
L 112.336503 193.482512 
L 116.374954 191.194927 
L 120.40275 183.255662 
L 124.476719 178.94962 
L 128.518722 182.313715 
L 132.606898 188.234523 
L 136.371857 221.068093 
L 140.083538 227.392592 
L 143.741941 239.772462 
L 147.116197 255.381864 
L 150.248926 264.532203 
L 153.360345 265.743277 
L 156.382967 269.914755 
L 159.306138 272.471468 
L 162.247068 276.239255 
L 165.17379 276.77751 
L 168.104065 272.471468 
L 174.056962 280.276169 
L 176.97658 279.199658 
L 179.860681 282.698317 
L 182.773196 280.948988 
L 185.643089 279.60335 
L 188.50943 280.276169 
L 191.429049 278.392276 
L 194.316701 281.890935 
L 197.204353 281.083552 
L 200.067143 281.890935 
L 202.944139 281.083552 
L 205.842447 279.737914 
L 208.71234 277.85402 
L 211.589337 280.410733 
L 214.445022 277.988584 
L 217.30426 277.988584 
L 220.152842 278.257712 
L 223.015631 279.199658 
L 225.892628 268.838245 
L 228.748313 279.468786 
L 231.603999 281.621807 
L 234.449029 282.563754 
L 237.31537 281.352679 
L 240.167504 279.468786 
L 243.008982 280.141605 
L 245.942808 277.988584 
L 248.819805 276.373818 
L 251.711009 276.104691 
L 254.715872 259.957034 
L 258.257064 253.497971 
L 261.432416 272.471468 
L 264.327172 277.450329 
L 267.332035 260.629853 
L 270.844813 261.706363 
L 273.792846 273.95167 
L 276.691154 281.487243 
L 279.578806 284.178519 
L 282.48777 278.661403 
L 285.386077 281.890935 
L 288.263074 281.487243 
L 291.125863 268.29999 
L 293.999308 270.587575 
L 296.869201 268.165426 
L 299.746198 260.226161 
L 302.612539 249.461056 
L 306.118213 232.506016 
L 309.506675 240.714409 
L 312.710442 249.461056 
L 315.814757 248.653674 
L 318.851587 253.632535 
L 321.888417 252.959715 
L 324.847106 254.17079 
L 327.898143 252.825152 
L 330.984699 259.149651 
L 334.089014 256.862066 
L 337.104532 262.64831 
L 340.215951 257.938576 
L 343.338025 261.840927 
L 346.381959 264.666767 
L 349.393925 264.263075 
L 352.409444 265.205022 
L 355.53507 264.397639 
L 358.646489 258.07314 
L 361.892878 257.804013 
L 365.192544 253.363407 
L 368.545489 243.540249 
L 371.884225 254.978173 
L 375.176788 256.99663 
L 378.472903 255.381864 
L 381.751258 256.189247 
L 384.979888 264.666767 
L 388.11617 262.110055 
L 394.239555 264.935895 
L 397.219555 270.049319 
L 400.24573 265.339586 
L 403.279008 263.859384 
L 406.234145 263.186565 
L 409.302941 265.070458 
L 412.275838 264.128512 
L 415.174146 263.859384 
L 421.077317 258.207704 
L 424.057317 262.64831 
L 427.019558 265.608714 
L 429.953384 267.492607 
L 432.851692 262.64831 
L 435.778414 265.877841 
L 438.698033 270.856702 
L 441.606997 270.991266 
L 444.622515 267.492607 
L 447.613171 274.489925 
L 450.610931 272.740596 
L 453.772075 272.336904 
L 456.816009 277.046637 
L 459.81732 293.059731 
L 462.800872 279.872477 
L 465.745354 276.77751 
L 468.67918 259.149651 
L 471.744425 262.917437 
L 474.713769 270.856702 
L 477.679562 275.162744 
L 480.620492 278.661403 
L 483.547215 278.123148 
L 486.488145 273.278851 
L 489.404212 266.012405 
L 492.34159 275.835563 
L 495.296727 278.123148 
L 498.26252 279.334222 
L 501.189243 281.218116 
L 504.076895 281.621807 
L 506.971651 282.160062 
L 509.951651 257.804013 
L 512.988481 265.205022 
L 515.922307 265.877841 
L 518.863237 273.278851 
L 521.789959 280.948988 
L 524.677612 276.508382 
L 527.575919 279.737914 
L 530.438709 279.468786 
L 533.418709 275.02818 
L 536.370294 280.276169 
L 539.279258 282.294626 
L 542.220188 279.737914 
L 545.129151 280.007041 
L 548.070081 278.661403 
L 551.06784 279.334222 
L 553.994563 281.756371 
L 556.907078 279.737914 
L 559.848008 280.67986 
L 562.796042 280.545296 
L 565.73342 282.160062 
L 568.610416 282.160062 
L 571.51938 279.199658 
L 574.428343 281.890935 
L 577.333754 283.371136 
L 580.217855 282.294626 
L 583.087748 276.912074 
L 586.273755 274.489925 
L 589.303481 294.001677 
L 592.290585 280.67986 
L 595.227963 280.141605 
L 598.286104 271.260394 
L 601.465008 273.278851 
L 604.604841 274.759053 
L 607.680742 275.835563 
L 610.735331 278.392276 
L 613.63719 279.737914 
L 616.67402 277.046637 
L 619.661124 270.722138 
L 622.65178 274.759053 
L 625.564295 282.160062 
L 628.544295 271.394957 
L 631.527847 277.988584 
L 634.578885 277.181201 
L 637.597955 278.930531 
L 640.538885 278.257712 
L 643.504678 279.199658 
L 646.413641 277.85402 
L 649.443367 259.418778 
L 652.448231 271.798649 
L 655.40692 276.642946 
L 658.514786 275.700999 
L 661.544513 277.988584 
L 664.542272 278.795967 
L 667.465443 281.890935 
L 670.406373 281.083552 
L 670.406373 281.083552 
" clip-path="url(#p14211d3d2a)" style="fill: none; stroke: #2ca02c; stroke-width: 1.5; stroke-linecap: square"/>
   </g>
   <g id="patch_3">
    <path d="M 38.27 390.04 
L 38.27 10.8 
" style="fill: none; stroke: #000000; stroke-width: 0.8; stroke-linejoin: miter; stroke-linecap: square"/>
   </g>
   <g id="patch_4">
    <path d="M 700.508105 390.04 
L 700.508105 10.8 
" style="fill: none; stroke: #000000; stroke-width: 0.8; stroke-linejoin: miter; stroke-linecap: square"/>
   </g>
   <g id="patch_5">
    <path d="M 38.27 390.04 
L 700.508105 390.04 
" style="fill: none; stroke: #000000; stroke-width: 0.8; stroke-linejoin: miter; stroke-linecap: square"/>
   </g>
   <g id="patch_6">
    <path d="M 38.27 10.8 
L 700.508105 10.8 
" style="fill: none; stroke: #000000; stroke-width: 0.8; stroke-linejoin: miter; stroke-linecap: square"/>
   </g>
   <g id="legend_1">
    <g id="patch_7">
     <path d="M 599.83623 385.04 
L 693.508105 385.04 
Q 695.508105 385.04 695.508105 383.04 
L 695.508105 325.3275 
Q 695.508105 323.3275 693.508105 323.3275 
L 599.83623 323.3275 
Q 597.83623 323.3275 597.83623 325.3275 
L 597.83623 383.04 
Q 597.83623 385.04 599.83623 385.04 
z
" style="fill: #ffffff; opacity: 0.8; stroke: #cccccc; stroke-linejoin: miter"/>
    </g>
    <g id="text_15">
     <!-- Max Circuit Depth -->
     <g transform="translate(601.83623 334.925937) scale(0.1 -0.1)">
      <defs>
       <path id="DejaVuSans-4d" d="M 628 4666 
L 1569 4666 
L 2759 1491 
L 3956 4666 
L 4897 4666 
L 4897 0 
L 4281 0 
L 4281 4097 
L 3078 897 
L 2444 897 
L 1241 4097 
L 1241 0 
L 628 0 
L 628 4666 
z
" transform="scale(0.015625)"/>
       <path id="DejaVuSans-78" d="M 3513 3500 
L 2247 1797 
L 3578 0 
L 2900 0 
L 1881 1375 
L 863 0 
L 184 0 
L 1544 1831 
L 300 3500 
L 978 3500 
L 1906 2253 
L 2834 3500 
L 3513 3500 
z
" transform="scale(0.015625)"/>
       <path id="DejaVuSans-43" d="M 4122 4306 
L 4122 3641 
Q 3803 3938 3442 4084 
Q 3081 4231 2675 4231 
Q 1875 4231 1450 3742 
Q 1025 3253 1025 2328 
Q 1025 1406 1450 917 
Q 1875 428 2675 428 
Q 3081 428 3442 575 
Q 3803 722 4122 1019 
L 4122 359 
Q 3791 134 3420 21 
Q 3050 -91 2638 -91 
Q 1578 -91 968 557 
Q 359 1206 359 2328 
Q 359 3453 968 4101 
Q 1578 4750 2638 4750 
Q 3056 4750 3426 4639 
Q 3797 4528 4122 4306 
z
" transform="scale(0.015625)"/>
       <path id="DejaVuSans-69" d="M 603 3500 
L 1178 3500 
L 1178 0 
L 603 0 
L 603 3500 
z
M 603 4863 
L 1178 4863 
L 1178 4134 
L 603 4134 
L 603 4863 
z
" transform="scale(0.015625)"/>
       <path id="DejaVuSans-72" d="M 2631 2963 
Q 2534 3019 2420 3045 
Q 2306 3072 2169 3072 
Q 1681 3072 1420 2755 
Q 1159 2438 1159 1844 
L 1159 0 
L 581 0 
L 581 3500 
L 1159 3500 
L 1159 2956 
Q 1341 3275 1631 3429 
Q 1922 3584 2338 3584 
Q 2397 3584 2469 3576 
Q 2541 3569 2628 3553 
L 2631 2963 
z
" transform="scale(0.015625)"/>
       <path id="DejaVuSans-63" d="M 3122 3366 
L 3122 2828 
Q 2878 2963 2633 3030 
Q 2388 3097 2138 3097 
Q 1578 3097 1268 2742 
Q 959 2388 959 1747 
Q 959 1106 1268 751 
Q 1578 397 2138 397 
Q 2388 397 2633 464 
Q 2878 531 3122 666 
L 3122 134 
Q 2881 22 2623 -34 
Q 2366 -91 2075 -91 
Q 1284 -91 818 406 
Q 353 903 353 1747 
Q 353 2603 823 3093 
Q 1294 3584 2113 3584 
Q 2378 3584 2631 3529 
Q 2884 3475 3122 3366 
z
" transform="scale(0.015625)"/>
       <path id="DejaVuSans-44" d="M 1259 4147 
L 1259 519 
L 2022 519 
Q 2988 519 3436 956 
Q 3884 1394 3884 2338 
Q 3884 3275 3436 3711 
Q 2988 4147 2022 4147 
L 1259 4147 
z
M 628 4666 
L 1925 4666 
Q 3281 4666 3915 4102 
Q 4550 3538 4550 2338 
Q 4550 1131 3912 565 
Q 3275 0 1925 0 
L 628 0 
L 628 4666 
z
" transform="scale(0.015625)"/>
       <path id="DejaVuSans-68" d="M 3513 2113 
L 3513 0 
L 2938 0 
L 2938 2094 
Q 2938 2591 2744 2837 
Q 2550 3084 2163 3084 
Q 1697 3084 1428 2787 
Q 1159 2491 1159 1978 
L 1159 0 
L 581 0 
L 581 4863 
L 1159 4863 
L 1159 2956 
Q 1366 3272 1645 3428 
Q 1925 3584 2291 3584 
Q 2894 3584 3203 3211 
Q 3513 2838 3513 2113 
z
" transform="scale(0.015625)"/>
      </defs>
      <use xlink:href="#DejaVuSans-4d"/>
      <use xlink:href="#DejaVuSans-61" transform="translate(86.279297 0)"/>
      <use xlink:href="#DejaVuSans-78" transform="translate(147.558594 0)"/>
      <use xlink:href="#DejaVuSans-20" transform="translate(206.738281 0)"/>
      <use xlink:href="#DejaVuSans-43" transform="translate(238.525391 0)"/>
      <use xlink:href="#DejaVuSans-69" transform="translate(308.349609 0)"/>
      <use xlink:href="#DejaVuSans-72" transform="translate(336.132812 0)"/>
      <use xlink:href="#DejaVuSans-63" transform="translate(374.996094 0)"/>
      <use xlink:href="#DejaVuSans-75" transform="translate(429.976562 0)"/>
      <use xlink:href="#DejaVuSans-69" transform="translate(493.355469 0)"/>
      <use xlink:href="#DejaVuSans-74" transform="translate(521.138672 0)"/>
      <use xlink:href="#DejaVuSans-20" transform="translate(560.347656 0)"/>
      <use xlink:href="#DejaVuSans-44" transform="translate(592.134766 0)"/>
      <use xlink:href="#DejaVuSans-65" transform="translate(669.136719 0)"/>
      <use xlink:href="#DejaVuSans-70" transform="translate(730.660156 0)"/>
      <use xlink:href="#DejaVuSans-74" transform="translate(794.136719 0)"/>
      <use xlink:href="#DejaVuSans-68" transform="translate(833.345703 0)"/>
     </g>
    </g>
    <g id="line2d_28">
     <path d="M 629.490917 346.104062 
L 639.490917 346.104062 
L 649.490917 346.104062 
" style="fill: none; stroke: #1f77b4; stroke-width: 1.5; stroke-linecap: square"/>
    </g>
    <g id="text_16">
     <!-- 4 -->
     <g transform="translate(657.490917 349.604062) scale(0.1 -0.1)">
      <use xlink:href="#DejaVuSans-34"/>
     </g>
    </g>
    <g id="line2d_29">
     <path d="M 629.490917 360.782187 
L 639.490917 360.782187 
L 649.490917 360.782187 
" style="fill: none; stroke: #ff7f0e; stroke-width: 1.5; stroke-linecap: square"/>
    </g>
    <g id="text_17">
     <!-- 5 -->
     <g transform="translate(657.490917 364.282187) scale(0.1 -0.1)">
      <use xlink:href="#DejaVuSans-35"/>
     </g>
    </g>
    <g id="line2d_30">
     <path d="M 629.490917 375.460312 
L 639.490917 375.460312 
L 649.490917 375.460312 
" style="fill: none; stroke: #2ca02c; stroke-width: 1.5; stroke-linecap: square"/>
    </g>
    <g id="text_18">
     <!-- 6 -->
     <g transform="translate(657.490917 378.960312) scale(0.1 -0.1)">
      <use xlink:href="#DejaVuSans-36"/>
     </g>
    </g>
   </g>
  </g>
 </g>
 <defs>
  <clipPath id="p14211d3d2a">
   <rect x="38.27" y="10.8" width="662.238105" height="379.24"/>
  </clipPath>
 </defs>
</svg>
