<?xml version="1.0" encoding="utf-8" standalone="no"?>
<!DOCTYPE svg PUBLIC "-//W3C//DTD SVG 1.1//EN"
  "http://www.w3.org/Graphics/SVG/1.1/DTD/svg11.dtd">
<svg xmlns:xlink="http://www.w3.org/1999/xlink" width="720pt" height="432pt" viewBox="0 0 720 432" xmlns="http://www.w3.org/2000/svg" version="1.1">
 <metadata>
  <rdf:RDF xmlns:dc="http://purl.org/dc/elements/1.1/" xmlns:cc="http://creativecommons.org/ns#" xmlns:rdf="http://www.w3.org/1999/02/22-rdf-syntax-ns#">
   <cc:Work>
    <dc:type rdf:resource="http://purl.org/dc/dcmitype/StillImage"/>
    <dc:date>2025-04-17T16:35:56.894116</dc:date>
    <dc:format>image/svg+xml</dc:format>
    <dc:creator>
     <cc:Agent>
      <dc:title>Matplotlib v3.10.0, https://matplotlib.org/</dc:title>
     </cc:Agent>
    </dc:creator>
   </cc:Work>
  </rdf:RDF>
 </metadata>
 <defs>
  <style type="text/css">*{stroke-linejoin: round; stroke-linecap: butt}</style>
 </defs>
 <g id="figure_1">
  <g id="patch_1">
   <path d="M 0 432 
L 720 432 
L 720 0 
L 0 0 
z
" style="fill: #ffffff"/>
  </g>
  <g id="axes_1">
   <g id="patch_2">
    <path d="M 38.27 390.04 
L 700.508105 390.04 
L 700.508105 10.8 
L 38.27 10.8 
z
" style="fill: #ffffff"/>
   </g>
   <g id="FillBetweenPolyCollection_1">
    <path d="M 68.371732 167.977853 
L 68.371732 353.222938 
L 71.738884 351.880171 
L 75.010135 344.210595 
L 78.359528 338.775276 
L 81.829683 353.320131 
L 85.12935 356.808343 
L 88.460983 347.589084 
L 91.980864 337.223319 
L 95.546919 318.6132 
L 99.215978 324.469722 
L 102.931211 320.573044 
L 106.628684 306.567447 
L 110.21605 303.868303 
L 113.775002 306.166715 
L 117.227398 312.49435 
L 120.257124 320.668673 
L 123.24778 323.569159 
L 126.252643 323.230694 
L 129.16871 322.051864 
L 132.095432 325.050751 
L 135.018603 321.476134 
L 137.899152 318.361239 
L 140.7797 320.259073 
L 143.649593 318.11504 
L 146.533693 319.553431 
L 149.414242 318.517868 
L 152.287687 316.662766 
L 155.143372 318.484304 
L 157.995506 316.169189 
L 160.865399 316.608191 
L 163.721085 315.913992 
L 166.559011 317.867426 
L 169.404041 315.895525 
L 172.263279 315.192092 
L 175.11186 315.680261 
L 177.967546 317.354167 
L 180.837439 314.286453 
L 183.686021 315.097518 
L 186.545258 314.524009 
L 189.39384 315.229226 
L 192.23887 314.407143 
L 195.105211 315.563396 
L 197.953793 316.450568 
L 200.813031 315.689494 
L 203.668716 314.407143 
L 206.524402 314.443251 
L 209.383639 314.23722 
L 212.235773 315.797126 
L 215.084355 313.985848 
L 217.929385 314.416377 
L 220.799278 314.470193 
L 223.654964 315.518813 
L 226.499994 314.828438 
L 229.345024 315.661794 
L 232.193606 314.460959 
L 235.045739 313.878216 
L 237.897873 314.980653 
L 240.739351 314.698515 
L 243.598589 316.272237 
L 246.461378 316.754997 
L 249.231819 331.434858 
L 251.980949 320.474368 
L 254.804668 317.075854 
L 257.656802 327.321134 
L 260.256755 325.161602 
L 263.105336 316.181488 
L 265.953918 321.384591 
L 268.592941 337.255986 
L 271.359831 320.264446 
L 274.204861 317.387732 
L 277.06765 322.188577 
L 279.937543 318.41482 
L 282.79678 319.883976 
L 285.666673 331.653424 
L 288.536566 343.284305 
L 291.392252 334.822099 
L 294.301215 321.89667 
L 297.970274 325.416178 
L 301.284148 319.867852 
L 304.214422 316.361403 
L 307.123386 316.225615 
L 310.110489 316.891088 
L 313.09049 316.084673 
L 316.01366 314.613174 
L 319.039835 318.506395 
L 322.090872 316.658183 
L 325.095735 316.628443 
L 328.015354 317.777502 
L 330.913662 314.828438 
L 333.822625 316.944146 
L 336.713829 315.160568 
L 339.605033 313.932032 
L 342.492685 314.676223 
L 345.355475 314.147296 
L 348.225368 314.36256 
L 351.105916 319.654998 
L 353.986465 320.254458 
L 356.84215 318.300364 
L 359.701388 315.977041 
L 362.560625 314.129588 
L 365.409207 314.451726 
L 368.392759 317.752903 
L 371.401174 315.918575 
L 374.303034 314.470193 
L 377.194238 314.308744 
L 380.071234 314.299511 
L 382.916265 314.93607 
L 385.807469 314.837671 
L 388.677362 315.086245 
L 391.540151 313.8244 
L 394.378077 315.544929 
L 397.216004 315.455764 
L 400.093 313.878216 
L 402.948686 315.930874 
L 405.83989 315.039052 
L 408.727542 314.837671 
L 411.618746 314.93607 
L 414.495743 314.622407 
L 417.422465 315.967808 
L 420.395362 315.972391 
L 423.357603 315.967808 
L 426.31274 314.685457 
L 429.189737 314.416377 
L 432.031215 319.954675 
L 434.869141 316.342936 
L 437.721275 315.079051 
L 440.59472 315.043702 
L 443.457509 314.191879 
L 446.309643 314.245695 
L 449.172432 313.932032 
L 452.038773 314.201112 
L 454.933529 314.577825 
L 457.79987 313.985848 
L 460.648452 313.770584 
L 463.521897 315.600329 
L 466.576486 316.34452 
L 469.520968 315.2682 
L 472.422828 314.308744 
L 475.296272 314.882254 
L 478.162614 315.088285 
L 481.050266 314.254928 
L 483.913055 315.979584 
L 486.772293 315.492697 
L 489.82333 316.353754 
L 492.813986 315.690253 
L 495.779778 315.062169 
L 498.681638 314.470193 
L 501.565738 314.039664 
L 504.442735 314.900721 
L 507.319732 314.559358 
L 510.186073 313.932032 
L 513.052414 314.039664 
L 515.915203 314.09348 
L 518.767337 313.8244 
L 521.63723 314.308744 
L 524.507123 313.932032 
L 527.373464 314.39587 
L 530.236253 314.09348 
L 533.088387 314.416377 
L 535.944073 317.940534 
L 539.069699 316.442919 
L 542.010629 314.36256 
L 544.866314 313.985848 
L 547.739759 314.837671 
L 550.620308 313.878216 
L 553.465338 314.138063 
L 556.321023 313.662952 
L 559.219331 321.686021 
L 562.192228 316.522851 
L 565.076328 315.043702 
L 567.949773 314.514775 
L 570.826769 317.362945 
L 573.682455 314.873021 
L 576.566555 314.900721 
L 579.500382 320.206975 
L 582.384482 320.775901 
L 585.289893 317.193277 
L 588.198857 314.416377 
L 591.065198 313.985848 
L 593.942194 314.254928 
L 596.804984 314.39791 
L 599.692636 314.472736 
L 602.573184 314.524009 
L 605.478596 314.514775 
L 608.355593 315.043702 
L 611.211278 314.09348 
L 614.123793 315.528046 
L 617.043412 315.039878 
L 619.938168 315.313541 
L 622.822268 314.09348 
L 625.699265 314.308744 
L 628.57271 314.308744 
L 631.435499 313.985848 
L 634.30184 320.565979 
L 637.178837 320.20315 
L 640.052282 317.618397 
L 642.925727 314.36256 
L 645.802723 314.147296 
L 648.661961 313.985848 
L 651.531854 314.017373 
L 654.398195 314.846905 
L 657.300055 313.878216 
L 660.177051 314.900721 
L 663.100222 314.09348 
L 666.026944 316.838098 
L 669.099293 316.236888 
L 669.099293 300.06782 
L 669.099293 300.06782 
L 666.026944 294.789368 
L 663.100222 310.786171 
L 660.177051 306.081229 
L 657.300055 312.040822 
L 654.398195 306.394892 
L 651.531854 310.342585 
L 648.661961 311.413497 
L 645.802723 310.472508 
L 642.925727 309.217857 
L 640.052282 290.890908 
L 637.178837 265.179792 
L 634.30184 266.376044 
L 631.435499 311.413497 
L 628.57271 309.53152 
L 625.699265 309.53152 
L 622.822268 310.786171 
L 619.938168 302.550248 
L 617.043412 304.382992 
L 614.123793 305.973597 
L 611.211278 310.786171 
L 608.355593 308.796562 
L 605.478596 310.105029 
L 602.573184 308.276869 
L 599.692636 306.249367 
L 596.804984 312.560516 
L 593.942194 309.845183 
L 591.065198 311.413497 
L 588.198857 308.904194 
L 585.289893 287.158479 
L 582.384482 270.063824 
L 579.500382 269.593363 
L 576.566555 306.081229 
L 573.682455 311.565711 
L 570.826769 289.327433 
L 567.949773 310.105029 
L 565.076328 308.796562 
L 562.192228 305.498486 
L 559.219331 296.697461 
L 556.321023 313.295473 
L 553.465338 312.300669 
L 550.620308 312.040822 
L 547.739759 308.223053 
L 544.866314 311.413497 
L 542.010629 309.217857 
L 539.069699 300.641329 
L 535.944073 293.686932 
L 533.088387 308.904194 
L 530.236253 310.786171 
L 527.373464 310.483782 
L 524.507123 311.727159 
L 521.63723 309.53152 
L 518.767337 312.354485 
L 515.915203 310.786171 
L 513.052414 311.099834 
L 510.186073 311.727159 
L 507.319732 311.619527 
L 504.442735 306.081229 
L 501.565738 311.099834 
L 498.681638 308.590531 
L 495.779778 305.140241 
L 492.813986 300.354608 
L 489.82333 297.612334 
L 486.772293 302.630938 
L 483.913055 297.466809 
L 481.050266 309.845183 
L 478.162614 310.31106 
L 475.296272 309.737551 
L 472.422828 309.53152 
L 469.520968 305.71375 
L 466.576486 299.440494 
L 463.521897 302.003613 
L 460.648452 312.668148 
L 457.79987 311.413497 
L 454.933529 307.963206 
L 452.038773 310.158845 
L 449.172432 311.727159 
L 446.309643 311.673343 
L 443.457509 311.987006 
L 440.59472 308.796562 
L 437.721275 312.139221 
L 434.869141 310.095796 
L 432.031215 308.562831 
L 429.189737 308.904194 
L 426.31274 307.33588 
L 423.357603 301.636134 
L 420.395362 301.371704 
L 417.422465 301.636134 
L 414.495743 309.477704 
L 411.618746 309.423888 
L 408.727542 308.223053 
L 405.83989 310.360293 
L 402.948686 308.948777 
L 400.093 312.040822 
L 397.216004 309.943581 
L 394.378077 312.972577 
L 391.540151 312.354485 
L 388.677362 308.234326 
L 385.807469 308.223053 
L 382.916265 309.423888 
L 380.071234 311.359681 
L 377.194238 309.53152 
L 374.303034 308.590531 
L 371.401174 301.685367 
L 368.392759 290.756402 
L 365.409207 312.246853 
L 362.560625 309.450829 
L 359.701388 299.807973 
L 356.84215 284.492312 
L 353.986465 254.994461 
L 351.105916 274.822582 
L 348.225368 309.217857 
L 345.355475 310.472508 
L 342.492685 309.164041 
L 339.605033 311.727159 
L 336.713829 306.341076 
L 333.822625 304.817344 
L 330.913662 310.051213 
L 328.015354 305.283222 
L 325.095735 302.794426 
L 322.090872 299.386678 
L 319.039835 285.065822 
L 316.01366 311.305864 
L 313.09049 299.180648 
L 310.110489 300.453007 
L 307.123386 299.819247 
L 304.214422 306.439474 
L 301.284148 290.200533 
L 297.970274 254.250136 
L 294.301215 267.903667 
L 291.392252 307.727132 
L 288.536566 305.761096 
L 285.666673 297.903469 
L 282.79678 301.877514 
L 279.937543 298.669429 
L 277.06765 290.478277 
L 274.204861 304.893452 
L 271.359831 305.394746 
L 268.592941 303.474318 
L 265.953918 305.313988 
L 263.105336 311.036784 
L 260.256755 307.253605 
L 257.656802 308.212235 
L 254.804668 307.284104 
L 251.980949 309.082525 
L 249.231819 306.177285 
L 246.461378 311.242815 
L 243.598589 303.410479 
L 240.739351 309.92129 
L 237.897873 310.938386 
L 235.045739 312.040822 
L 232.193606 310.418692 
L 229.345024 310.517091 
L 226.499994 310.051213 
L 223.654964 307.801758 
L 220.799278 308.590531 
L 217.929385 308.904194 
L 215.084355 311.413497 
L 212.235773 304.405283 
L 209.383639 308.823504 
L 206.524402 309.397013 
L 203.668716 310.732355 
L 200.813031 305.032609 
L 197.953793 309.46847 
L 195.105211 309.316256 
L 192.23887 310.732355 
L 189.39384 310.949659 
L 186.545258 308.276869 
L 183.686021 308.482899 
L 180.837439 308.774271 
L 177.967546 303.88763 
L 175.11186 306.860769 
L 172.263279 305.270164 
L 169.404041 305.606118 
L 166.559011 303.634217 
L 163.721085 301.949797 
L 160.865399 304.113912 
L 157.995506 303.773374 
L 155.143372 297.300711 
L 152.287687 299.122248 
L 149.414242 298.306533 
L 146.533693 294.93235 
L 143.649593 295.331353 
L 140.7797 282.533603 
L 137.899152 282.872356 
L 135.018603 263.906808 
L 132.095432 268.647288 
L 129.16871 263.331078 
L 126.252643 237.726652 
L 123.24778 216.600446 
L 120.257124 205.20936 
L 117.227398 175.965749 
L 113.775002 156.04886 
L 110.21605 161.465433 
L 106.628684 153.8292 
L 102.931211 153.595482 
L 99.215978 165.809304 
L 95.546919 155.555326 
L 91.980864 163.969271 
L 88.460983 169.194312 
L 85.12935 179.203714 
L 81.829683 164.762499 
L 78.359528 151.763597 
L 75.010135 159.060769 
L 71.738884 168.800926 
L 68.371732 167.977853 
z
" clip-path="url(#pa6f2c3755e)" style="fill: #1f77b4; fill-opacity: 0.2"/>
   </g>
   <g id="FillBetweenPolyCollection_2">
    <path d="M 68.574187 99.383575 
L 68.574187 345.682114 
L 72.189968 345.407383 
L 75.684987 335.339083 
L 79.364701 331.276673 
L 83.204248 332.702723 
L 86.8591 337.143826 
L 90.72351 332.010698 
L 94.630542 320.821193 
L 98.541127 310.879223 
L 102.366467 320.112661 
L 106.056837 308.601512 
L 109.956765 322.66959 
L 113.817624 325.864486 
L 117.831212 334.836671 
L 121.926492 336.377891 
L 126.007565 341.77999 
L 130.049568 342.349044 
L 134.144849 335.681529 
L 138.108711 335.09754 
L 141.916291 331.388358 
L 145.699009 329.736873 
L 149.378724 330.368667 
L 153.086853 328.838757 
L 156.713289 325.976818 
L 160.32907 329.073887 
L 163.976818 325.869702 
L 167.567736 325.471055 
L 171.176413 324.533773 
L 174.788642 325.015834 
L 178.372457 324.982651 
L 181.963375 324.836355 
L 185.543637 325.795567 
L 189.1239 324.401759 
L 192.704162 325.923451 
L 196.284425 325.013484 
L 199.868239 325.985741 
L 203.427191 324.959668 
L 207.007453 325.101301 
L 210.605475 324.722804 
L 214.192841 325.390196 
L 217.787311 325.268661 
L 221.374677 324.773821 
L 224.933629 326.0026 
L 228.506788 324.211392 
L 232.101257 325.147802 
L 235.68152 326.317112 
L 239.254679 326.51187 
L 242.820734 325.50482 
L 246.393893 325.519864 
L 249.981259 324.444034 
L 253.579281 325.103475 
L 257.148888 324.450479 
L 260.754013 325.773343 
L 264.348483 326.506194 
L 267.960712 326.341947 
L 271.55163 325.293582 
L 275.174515 325.454696 
L 278.903955 326.991619 
L 282.594325 326.340921 
L 286.192347 325.475537 
L 289.900476 327.224591 
L 293.573086 324.823553 
L 297.227938 326.722149 
L 300.854374 326.588991 
L 304.484363 326.821708 
L 308.103695 326.249212 
L 311.772754 326.201831 
L 315.392087 324.76287 
L 318.975901 325.157291 
L 322.655616 325.784423 
L 326.253637 320.169181 
L 329.837452 319.049977 
L 333.449681 323.914908 
L 337.079669 322.659716 
L 340.691899 323.943473 
L 344.300576 325.491499 
L 347.866631 325.858433 
L 351.450445 314.192062 
L 355.030708 322.250533 
L 358.674904 327.059331 
L 362.326203 321.536639 
L 365.945536 319.888129 
L 369.54711 325.210886 
L 373.145131 326.109223 
L 376.863916 328.187862 
L 380.458386 329.122294 
L 384.077719 329.187801 
L 387.661533 327.826228 
L 391.273762 326.37994 
L 394.889543 349.371301 
L 398.540843 350.927343 
L 402.096242 348.023925 
L 405.669401 356.297452 
L 409.221249 368.697728 
L 412.7802 355.927422 
L 416.339152 361.657589 
L 419.883896 358.339667 
L 423.439295 346.991446 
L 426.998247 360.701783 
L 430.557198 372.801818 
L 434.130357 366.717357 
L 437.689309 357.169134 
L 441.216293 347.695768 
L 444.775245 343.793157 
L 448.327093 346.930654 
L 451.889596 346.239221 
L 455.452099 339.952315 
L 459.007499 341.315265 
L 462.559346 334.284442 
L 466.118298 337.146117 
L 469.670146 329.759175 
L 473.229097 328.214954 
L 476.784497 325.796061 
L 480.339896 332.956428 
L 483.891744 348.396281 
L 487.443592 349.084038 
L 490.998991 340.786079 
L 494.550839 333.63124 
L 498.102687 331.246201 
L 501.672294 341.905395 
L 505.256108 346.846295 
L 508.822163 330.678321 
L 512.384667 325.678702 
L 515.940066 325.107044 
L 519.491914 324.121661 
L 523.036658 325.588778 
L 526.567195 324.825094 
L 530.129698 322.618794 
L 533.67089 324.85847 
L 537.219186 325.120793 
L 540.774586 324.810829 
L 544.326433 324.117078 
L 547.878281 324.242418 
L 551.430129 324.372342 
L 554.981977 325.165632 
L 558.533824 323.429313 
L 562.089224 323.769851 
L 565.644624 325.008834 
L 569.196471 324.663458 
L 572.748319 323.911047 
L 576.360548 329.386399 
L 580.320858 326.375311 
L 583.904673 324.247001 
L 587.460072 324.426158 
L 591.019024 324.479974 
L 594.570872 324.24401 
L 598.126271 324.213437 
L 601.678119 324.40845 
L 605.240622 322.149595 
L 608.79247 310.891998 
L 612.347869 321.418878 
L 615.984962 324.61448 
L 619.540361 320.387259 
L 622.971446 320.829717 
L 626.395427 323.782908 
L 629.947275 318.503867 
L 633.499123 321.82769 
L 637.054522 324.934578 
L 640.60637 324.22471 
L 644.165322 324.025114 
L 647.717169 324.247001 
L 651.269017 324.155037 
L 654.820865 323.994026 
L 658.376264 324.296234 
L 661.928112 324.242418 
L 665.47996 325.252824 
L 669.042463 324.40845 
L 669.042463 249.541235 
L 669.042463 249.541235 
L 665.47996 250.515789 
L 661.928112 250.746654 
L 658.376264 250.432991 
L 654.820865 247.876885 
L 651.269017 250.054494 
L 647.717169 250.482224 
L 644.165322 249.924571 
L 640.60637 249.724975 
L 637.054522 250.834035 
L 633.499123 247.964447 
L 629.947275 242.453479 
L 626.395427 251.985704 
L 622.971446 269.750161 
L 619.540361 246.286716 
L 615.984962 250.114745 
L 612.347869 229.924138 
L 608.79247 207.710326 
L 605.240622 243.744841 
L 601.678119 249.541235 
L 598.126271 249.476401 
L 594.570872 249.185982 
L 591.019024 250.249252 
L 587.460072 250.562914 
L 583.904673 250.482224 
L 580.320858 235.101729 
L 576.360548 221.177077 
L 572.748319 249.778791 
L 569.196471 250.325614 
L 565.644624 250.240085 
L 562.089224 249.400294 
L 558.533824 248.961291 
L 554.981977 250.862828 
L 551.430129 250.876577 
L 547.878281 250.746654 
L 544.326433 250.3523 
L 540.774586 248.879009 
L 537.219186 249.608432 
L 533.67089 250.390448 
L 530.129698 241.716561 
L 526.567195 250.423825 
L 523.036658 251.219221 
L 519.491914 250.08787 
L 515.940066 250.401722 
L 512.384667 249.570217 
L 508.822163 248.987993 
L 505.256108 244.513123 
L 501.672294 241.918467 
L 498.102687 242.443637 
L 494.550839 240.578291 
L 490.998991 242.258243 
L 487.443592 245.653388 
L 483.891744 248.160073 
L 480.339896 247.22958 
L 476.784497 242.177148 
L 473.229097 243.655957 
L 469.670146 246.269284 
L 466.118298 243.299737 
L 462.559346 242.003864 
L 459.007499 243.547984 
L 455.452099 245.690474 
L 451.889596 243.30127 
L 448.327093 243.389377 
L 444.775245 242.629173 
L 441.216293 247.561351 
L 437.689309 244.844002 
L 434.130357 246.729036 
L 430.557198 242.463503 
L 426.998247 242.35074 
L 423.439295 233.454408 
L 419.883896 246.271937 
L 416.339152 243.993401 
L 412.7802 246.34556 
L 409.221249 244.748665 
L 405.669401 247.534611 
L 402.096242 238.658251 
L 398.540843 243.030543 
L 394.889543 226.917005 
L 391.273762 239.774341 
L 387.661533 238.847747 
L 384.077719 234.368013 
L 380.458386 244.567544 
L 376.863916 231.210404 
L 373.145131 222.375479 
L 369.54711 238.344929 
L 365.945536 229.895806 
L 362.326203 228.507143 
L 358.674904 228.960927 
L 355.030708 229.872024 
L 351.450445 214.544285 
L 347.866631 241.85493 
L 344.300576 239.623396 
L 340.691899 236.754027 
L 337.079669 231.801462 
L 333.449681 228.207648 
L 329.837452 215.922692 
L 326.253637 221.819351 
L 322.655616 241.409246 
L 318.975901 245.414386 
L 315.392087 246.588347 
L 311.772754 240.472144 
L 308.103695 239.385376 
L 304.484363 244.529509 
L 300.854374 244.502379 
L 297.227938 238.912439 
L 293.573086 241.070882 
L 289.900476 234.252449 
L 286.192347 245.09614 
L 282.594325 240.073208 
L 278.903955 234.485421 
L 275.174515 236.282191 
L 271.55163 247.616716 
L 267.960712 247.088045 
L 264.348483 243.54579 
L 260.754013 245.058181 
L 257.148888 246.900738 
L 253.579281 245.728049 
L 249.981259 247.426876 
L 246.393893 246.87074 
L 242.820734 245.846397 
L 239.254679 248.996896 
L 235.68152 248.67196 
L 232.101257 247.502649 
L 228.506788 244.541357 
L 224.933629 246.647852 
L 221.374677 248.396323 
L 217.787311 245.303016 
L 214.192841 246.480715 
L 210.605475 246.10872 
L 207.007453 246.249917 
L 203.427191 248.990017 
L 199.868239 247.704097 
L 196.284425 248.676354 
L 192.704162 245.16792 
L 189.1239 249.028232 
L 185.543637 247.114731 
L 181.963375 243.916394 
L 178.372457 246.368567 
L 174.788642 242.437682 
L 171.176413 240.321275 
L 167.567736 242.502154 
L 163.976818 244.182282 
L 160.32907 238.639475 
L 156.713289 241.216851 
L 153.086853 235.496598 
L 149.378724 234.746228 
L 145.699009 228.362159 
L 141.916291 219.175118 
L 138.108711 210.788694 
L 134.144849 199.031294 
L 130.049568 182.229755 
L 126.007565 173.964019 
L 121.926492 167.413166 
L 117.831212 155.442355 
L 113.817624 143.107105 
L 109.956765 140.325525 
L 106.056837 114.117355 
L 102.366467 114.559156 
L 98.541127 102.745006 
L 94.630542 107.094609 
L 90.72351 105.779281 
L 86.8591 104.024161 
L 83.204248 99.890321 
L 79.364701 104.954225 
L 75.684987 99.592582 
L 72.189968 105.374934 
L 68.574187 99.383575 
z
" clip-path="url(#pa6f2c3755e)" style="fill: #ff7f0e; fill-opacity: 0.2"/>
   </g>
   <g id="FillBetweenPolyCollection_3">
    <path d="M 68.627465 61.69739 
L 68.627465 327.76109 
L 72.356905 331.362607 
L 76.278145 323.546465 
L 80.263318 335.397874 
L 84.255595 345.964964 
L 88.194594 339.947536 
L 92.233045 338.255048 
L 96.321222 341.997538 
L 100.341914 339.429705 
L 104.341294 345.232985 
L 108.361986 332.12254 
L 112.336503 331.529607 
L 116.374954 320.546871 
L 120.40275 301.233835 
L 124.476719 300.508853 
L 128.518722 300.528827 
L 132.606898 304.827551 
L 136.371857 310.659299 
L 140.083538 308.375441 
L 143.741941 310.774841 
L 147.116197 317.426851 
L 150.248926 318.503396 
L 153.360345 320.800274 
L 156.382967 322.781449 
L 159.306138 324.962873 
L 162.247068 323.897769 
L 165.17379 322.570017 
L 168.104065 322.653363 
L 171.105376 324.177432 
L 174.056962 322.941836 
L 176.97658 322.310296 
L 179.860681 325.970509 
L 182.773196 323.326767 
L 185.643089 323.785172 
L 188.50943 323.076343 
L 191.429049 324.032216 
L 194.316701 323.631452 
L 197.204353 323.320521 
L 200.067143 324.687403 
L 202.944139 324.713739 
L 205.842447 324.470456 
L 208.71234 324.455625 
L 211.589337 323.65596 
L 214.445022 326.408876 
L 217.30426 327.46208 
L 220.152842 324.314756 
L 223.015631 325.62647 
L 225.892628 329.418682 
L 228.748313 324.727261 
L 231.603999 323.7189 
L 234.449029 326.16031 
L 237.31537 324.214195 
L 240.167504 325.75181 
L 243.008982 324.250115 
L 245.942808 322.914768 
L 248.819805 325.745299 
L 251.711009 324.058915 
L 254.715872 316.282215 
L 258.257064 319.377298 
L 261.432416 322.402444 
L 264.327172 324.831363 
L 267.332035 316.622397 
L 270.844813 321.107529 
L 273.792846 325.120836 
L 276.691154 325.239573 
L 279.578806 323.590372 
L 282.48777 323.975291 
L 285.386077 323.987402 
L 288.263074 326.039411 
L 291.125863 321.439875 
L 293.999308 318.584839 
L 296.869201 315.783438 
L 299.746198 311.016711 
L 302.612539 300.641944 
L 306.118213 278.539553 
L 309.506675 282.787714 
L 312.710442 291.078153 
L 315.814757 293.552125 
L 318.851587 297.265636 
L 321.888417 297.837106 
L 324.847106 302.235633 
L 327.898143 291.836385 
L 330.984699 298.792064 
L 334.089014 297.522642 
L 337.104532 304.615304 
L 340.215951 296.11247 
L 343.338025 301.958001 
L 346.381959 305.351538 
L 349.393925 304.092698 
L 352.409444 305.389825 
L 355.53507 301.677343 
L 358.646489 301.79014 
L 361.892878 293.948615 
L 365.192544 288.619075 
L 368.545489 283.781505 
L 371.884225 290.047976 
L 375.176788 295.660086 
L 378.472903 292.802032 
L 381.751258 294.084748 
L 384.979888 305.390638 
L 388.11617 304.575937 
L 391.23114 302.540241 
L 394.239555 305.795125 
L 397.219555 311.695815 
L 400.24573 306.500476 
L 403.279008 304.607037 
L 406.234145 304.962475 
L 409.302941 305.645901 
L 412.275838 303.564584 
L 415.174146 306.781724 
L 418.068902 304.532129 
L 421.077317 299.223815 
L 424.057317 303.534529 
L 427.019558 304.872427 
L 429.953384 307.966001 
L 432.851692 309.274836 
L 435.778414 308.073373 
L 438.698033 311.617605 
L 441.606997 311.388914 
L 444.622515 309.878142 
L 447.613171 316.689196 
L 450.610931 315.209839 
L 453.772075 313.293928 
L 456.816009 317.585426 
L 459.81732 317.674622 
L 462.800872 319.897105 
L 465.745354 319.281229 
L 468.67918 321.699255 
L 471.744425 320.463291 
L 474.713769 316.27531 
L 477.679562 317.646926 
L 480.620492 320.504427 
L 483.547215 320.02658 
L 486.488145 317.23243 
L 489.404212 311.338712 
L 492.34159 317.122024 
L 495.296727 317.335972 
L 498.26252 319.677136 
L 501.189243 321.863542 
L 504.076895 322.052054 
L 506.971651 322.654356 
L 509.951651 291.118779 
L 512.988481 305.609605 
L 515.922307 306.104531 
L 518.863237 314.56082 
L 521.789959 321.034958 
L 524.677612 318.591873 
L 527.575919 319.731141 
L 530.438709 320.57373 
L 533.418709 316.66073 
L 536.370294 320.533039 
L 539.279258 322.347384 
L 542.220188 320.610738 
L 545.129151 320.575582 
L 548.070081 319.664011 
L 551.06784 319.206864 
L 553.994563 321.778457 
L 556.907078 320.551372 
L 559.848008 321.654708 
L 562.796042 321.160365 
L 565.73342 322.33611 
L 568.610416 323.454403 
L 571.51938 321.866014 
L 574.428343 322.177394 
L 577.333754 323.705017 
L 580.217855 322.60054 
L 583.087748 319.65684 
L 586.273755 315.995609 
L 589.303481 318.534853 
L 592.290585 321.431787 
L 595.227963 322.22426 
L 598.286104 314.613711 
L 601.465008 315.476376 
L 604.604841 316.476106 
L 607.680742 318.767899 
L 610.735331 319.833674 
L 613.63719 320.670022 
L 616.67402 318.146777 
L 619.661124 322.920103 
L 622.65178 321.358789 
L 625.564295 323.086924 
L 628.544295 311.209946 
L 631.527847 318.458848 
L 634.578885 317.813815 
L 637.597955 319.09624 
L 640.538885 318.62023 
L 643.504678 320.015822 
L 646.413641 320.238401 
L 649.443367 322.790862 
L 652.448231 320.60994 
L 655.40692 320.083301 
L 658.514786 318.402256 
L 661.544513 319.889188 
L 664.542272 320.534222 
L 667.465443 322.446407 
L 670.406373 321.995246 
L 670.406373 246.497657 
L 670.406373 246.497657 
L 667.465443 247.605577 
L 664.542272 243.541286 
L 661.544513 242.627239 
L 658.514786 239.696776 
L 655.40692 239.834659 
L 652.448231 229.953536 
L 649.443367 203.866712 
L 646.413641 242.018179 
L 643.504678 244.839226 
L 640.538885 244.415891 
L 637.597955 245.239114 
L 634.578885 243.143532 
L 631.527847 244.057579 
L 628.544295 238.573989 
L 625.564295 247.484753 
L 622.65178 234.921316 
L 619.661124 225.564599 
L 616.67402 242.550723 
L 613.63719 245.224413 
L 610.735331 243.462293 
L 607.680742 239.59098 
L 604.604841 239.803999 
L 601.465008 237.945414 
L 598.286104 234.910377 
L 595.227963 244.449716 
L 592.290585 246.281575 
L 589.303481 274.903339 
L 586.273755 239.764802 
L 583.087748 240.780813 
L 580.217855 248.230984 
L 577.333754 249.205281 
L 574.428343 247.87459 
L 571.51938 242.989034 
L 568.610416 247.117274 
L 565.73342 248.235567 
L 562.796042 246.293151 
L 559.848008 246.058654 
L 556.907078 245.343063 
L 553.994563 248.013679 
L 551.06784 245.908031 
L 548.070081 244.15165 
L 545.129151 245.838547 
L 542.220188 245.283697 
L 539.279258 248.48414 
L 536.370294 246.400783 
L 533.418709 240.139068 
L 530.438709 244.801011 
L 527.575919 246.163294 
L 524.677612 241.06624 
L 521.789959 247.198098 
L 518.863237 238.86097 
L 515.922307 233.025687 
L 512.988481 232.221379 
L 509.951651 232.420633 
L 506.971651 247.917321 
L 504.076895 247.480236 
L 501.189243 246.889207 
L 498.26252 245.437759 
L 495.296727 245.440302 
L 492.34159 241.236855 
L 489.404212 228.051353 
L 486.488145 236.18936 
L 483.547215 242.749694 
L 480.620492 243.311234 
L 477.679562 239.412719 
L 474.713769 232.469238 
L 471.744425 212.950299 
L 468.67918 204.438625 
L 465.745354 240.896577 
L 462.800872 246.257177 
L 459.81732 273.944643 
L 456.816009 243.112074 
L 453.772075 238.308934 
L 450.610931 237.172564 
L 447.613171 239.071215 
L 444.622515 232.370238 
L 441.606997 237.615481 
L 438.698033 237.126943 
L 435.778414 231.056845 
L 432.851692 223.61906 
L 429.953384 234.282378 
L 427.019558 233.738098 
L 424.057317 229.359366 
L 421.077317 225.095138 
L 418.068902 225.243605 
L 415.174146 228.450792 
L 412.275838 232.187626 
L 409.302941 231.925236 
L 406.234145 228.970808 
L 403.279008 230.625479 
L 400.24573 231.590355 
L 397.219555 235.489653 
L 394.239555 231.516166 
L 391.23114 232.172583 
L 388.11617 227.278572 
L 384.979888 231.400959 
L 381.751258 226.336503 
L 378.472903 226.060138 
L 375.176788 226.320245 
L 371.884225 228.034654 
L 368.545489 212.21415 
L 365.192544 226.345394 
L 361.892878 229.590797 
L 358.646489 222.268965 
L 355.53507 234.59456 
L 352.409444 232.44116 
L 349.393925 231.919359 
L 346.381959 231.440059 
L 343.338025 229.376814 
L 340.215951 227.686789 
L 337.104532 228.278592 
L 334.089014 224.197843 
L 330.984699 227.345815 
L 327.898143 222.088696 
L 324.847106 214.287917 
L 321.888417 216.347823 
L 318.851587 218.218526 
L 315.814757 212.317706 
L 312.710442 216.35076 
L 309.506675 207.751158 
L 306.118213 196.148667 
L 302.612539 206.786968 
L 299.746198 217.199942 
L 296.869201 227.764175 
L 293.999308 229.640016 
L 291.125863 222.367585 
L 288.263074 243.233032 
L 285.386077 246.064581 
L 282.48777 239.84037 
L 279.578806 250.879007 
L 276.691154 244.03287 
L 273.792846 229.600188 
L 270.844813 209.96744 
L 267.332035 212.373797 
L 264.327172 236.645677 
L 261.432416 229.460265 
L 258.257064 195.847018 
L 254.715872 211.414745 
L 251.711009 234.819658 
L 248.819805 233.652967 
L 245.942808 239.601659 
L 243.008982 242.423861 
L 240.167504 239.622931 
L 237.31537 244.798401 
L 234.449029 245.190907 
L 231.603999 245.81339 
L 228.748313 240.64748 
L 225.892628 215.428165 
L 223.015631 239.228578 
L 220.152842 238.721365 
L 217.30426 235.054348 
L 214.445022 236.107551 
L 211.589337 243.537709 
L 208.71234 237.800955 
L 205.842447 241.423979 
L 202.944139 243.779164 
L 200.067143 245.36458 
L 197.204353 245.172382 
L 194.316701 246.420531 
L 191.429049 239.263751 
L 188.50943 243.85748 
L 185.643089 241.849417 
L 182.773196 244.906289 
L 179.860681 245.640555 
L 176.97658 242.544752 
L 174.056962 243.991986 
L 171.105376 235.220834 
L 168.104065 229.209347 
L 165.17379 237.607789 
L 162.247068 235.24065 
L 159.306138 226.899836 
L 156.382967 224.144172 
L 153.360345 218.070097 
L 150.248926 218.028355 
L 147.116197 201.435319 
L 143.741941 177.945104 
L 140.083538 156.438602 
L 136.371857 141.941946 
L 132.606898 84.371083 
L 128.518722 77.236549 
L 124.476719 70.760353 
L 120.40275 78.350468 
L 116.374954 74.368392 
L 112.336503 67.80305 
L 108.361986 80.202455 
L 104.341294 82.942664 
L 100.341914 73.934678 
L 96.321222 81.760716 
L 92.233045 72.25102 
L 88.194594 84.850104 
L 84.255595 73.116047 
L 80.263318 45.225816 
L 76.278145 39.927338 
L 72.356905 61.473882 
L 68.627465 61.69739 
z
" clip-path="url(#pa6f2c3755e)" style="fill: #2ca02c; fill-opacity: 0.2"/>
   </g>
   <g id="FillBetweenPolyCollection_4">
    <path d="M 68.797954 57.903396 
L 68.797954 339.610334 
L 72.570016 333.795311 
L 76.530326 335.15642 
L 80.444463 330.235244 
L 84.387014 329.767409 
L 88.276287 335.36315 
L 92.190423 331.618045 
L 96.111663 327.600703 
L 100.057766 328.13083 
L 104.02518 335.062409 
L 107.88959 336.085256 
L 111.913834 325.40412 
L 116.033977 333.840219 
L 119.802487 326.857797 
L 123.734383 328.682801 
L 127.605897 331.384218 
L 131.676314 322.250201 
L 135.778699 337.122855 
L 139.774527 330.484249 
L 143.646041 334.039373 
L 147.886947 340.943279 
L 151.815291 342.154495 
L 155.825327 337.742901 
L 159.856674 341.426516 
L 163.792122 328.023162 
L 167.724017 331.314847 
L 171.641705 332.244975 
L 175.701467 326.124508 
L 179.594292 328.029678 
L 183.923995 332.724235 
L 187.742231 324.084144 
L 191.68123 341.378346 
L 195.620229 324.731829 
L 199.626714 333.012706 
L 203.736201 332.663031 
L 207.671649 337.604105 
L 211.660374 309.002039 
L 215.713032 347.394742 
L 219.545476 343.178749 
L 223.55196 331.591575 
L 227.601066 333.064976 
L 231.600447 333.704406 
L 235.610483 338.50697 
L 239.41096 338.167648 
L 243.257611 342.277199 
L 247.256992 333.116674 
L 251.227958 322.734608 
L 255.262857 345.125835 
L 259.368793 321.242258 
L 263.488936 328.772516 
L 267.534491 336.659922 
L 271.636875 329.020477 
L 275.348556 346.593293 
L 279.269795 317.355406 
L 283.471631 335.697012 
L 287.488771 326.943114 
L 291.537878 324.745802 
L 295.480429 333.469927 
L 299.263146 345.540823 
L 303.124005 332.085399 
L 307.063004 325.755318 
L 311.154733 346.600243 
L 315.068869 330.808797 
L 319.057594 339.763941 
L 323.117356 326.963448 
L 327.003077 327.061816 
L 330.824865 329.948654 
L 334.749657 315.904034 
L 338.997667 317.358806 
L 342.950874 334.241126 
L 346.932495 316.634659 
L 350.999361 324.833296 
L 355.119504 350.594456 
L 359.111781 322.988957 
L 363.075643 335.455431 
L 367.170923 337.322487 
L 371.276859 336.624251 
L 375.208755 331.210797 
L 379.115787 336.704785 
L 383.090305 345.173955 
L 387.000889 336.941298 
L 391.035788 338.751115 
L 394.942821 336.76538 
L 399.002583 340.86109 
L 403.001963 354.832642 
L 406.969377 334.529134 
L 410.858651 350.54453 
L 414.641369 339.369472 
L 418.559057 338.532508 
L 422.35243 350.202094 
L 426.383777 334.740307 
L 430.287258 336.667452 
L 434.403849 328.006443 
L 438.360608 333.300274 
L 442.36354 340.082792 
L 446.330954 344.397785 
L 449.982254 339.070842 
L 453.910597 328.630783 
L 457.938393 328.800965 
L 461.91291 336.408901 
L 465.727595 338.804735 
L 469.762494 348.551906 
L 473.921707 331.440325 
L 478.024092 340.102972 
L 481.899157 335.480435 
L 485.763568 326.921342 
L 489.642185 331.554777 
L 493.527907 332.770683 
L 497.438491 339.165557 
L 501.270935 338.590288 
L 505.131794 322.976591 
L 509.120519 337.595137 
L 513.055966 322.563291 
L 517.066002 332.229191 
L 521.029864 340.447387 
L 525.100282 333.276892 
L 529.195562 330.959488 
L 533.088387 334.328943 
L 536.927935 341.854607 
L 540.636064 349.785226 
L 544.610581 336.775513 
L 548.535373 340.010634 
L 552.410439 344.906551 
L 556.129223 333.101098 
L 560.0256 337.549449 
L 563.978807 315.830118 
L 568.088295 329.948366 
L 571.988224 334.031984 
L 575.877497 332.248718 
L 580.001192 322.183436 
L 583.979262 321.725225 
L 587.985746 327.973946 
L 592.112993 338.482073 
L 595.917022 333.429663 
L 599.919954 347.440925 
L 603.60322 331.88866 
L 607.35042 351.102581 
L 611.232589 331.419407 
L 615.242625 315.464745 
L 619.160313 356.33727 
L 623.227179 317.741584 
L 627.326011 337.819245 
L 631.314736 320.62382 
L 635.388706 334.946568 
L 639.402294 319.862737 
L 643.245393 345.460667 
L 646.992592 343.363447 
L 650.658099 339.01382 
L 654.472784 338.800759 
L 658.326539 343.687521 
L 662.258434 336.313787 
L 666.261366 337.922439 
L 670.171951 342.860459 
L 670.171951 78.299327 
L 670.171951 78.299327 
L 666.261366 53.354968 
L 662.258434 55.483315 
L 658.326539 38.49525 
L 654.472784 60.791745 
L 650.658099 55.901442 
L 646.992592 54.669976 
L 643.245393 62.446934 
L 639.402294 50.107235 
L 635.388706 58.409614 
L 631.314736 41.810597 
L 627.326011 42.804445 
L 623.227179 36.897429 
L 619.160313 44.034775 
L 615.242625 57.883236 
L 611.232589 48.944436 
L 607.35042 63.820882 
L 603.60322 53.152425 
L 599.919954 54.750047 
L 595.917022 36.800156 
L 592.112993 43.700698 
L 587.985746 49.271736 
L 583.979262 34.213022 
L 580.001192 28.038182 
L 575.877497 41.359109 
L 571.988224 60.363585 
L 568.088295 52.494251 
L 563.978807 43.486137 
L 560.0256 45.412862 
L 556.129223 59.475543 
L 552.410439 61.441969 
L 548.535373 52.566008 
L 544.610581 52.942814 
L 540.636064 65.657931 
L 536.927935 53.060655 
L 533.088387 42.397046 
L 529.195562 55.120984 
L 525.100282 56.701282 
L 521.029864 35.239214 
L 517.066002 46.835419 
L 513.055966 54.682391 
L 509.120519 53.942118 
L 505.131794 47.772922 
L 501.270935 57.884055 
L 497.438491 54.450472 
L 493.527907 40.837144 
L 489.642185 52.187074 
L 485.763568 48.765259 
L 481.899157 61.253755 
L 478.024092 60.788766 
L 473.921707 52.561373 
L 469.762494 42.205808 
L 465.727595 53.252213 
L 461.91291 35.639846 
L 457.938393 41.169008 
L 453.910597 66.024633 
L 449.982254 56.883807 
L 446.330954 73.64384 
L 442.36354 57.690785 
L 438.360608 63.953609 
L 434.403849 40.144603 
L 430.287258 52.791028 
L 426.383777 53.418939 
L 422.35243 59.524434 
L 418.559057 50.146431 
L 414.641369 55.805637 
L 410.858651 66.717554 
L 406.969377 51.291492 
L 403.001963 49.437104 
L 399.002583 64.188196 
L 394.942821 47.236318 
L 391.035788 55.12476 
L 387.000889 48.359634 
L 383.090305 45.843606 
L 379.115787 64.706646 
L 375.208755 43.176571 
L 371.276859 41.141125 
L 367.170923 62.270017 
L 363.075643 42.569791 
L 359.111781 42.303773 
L 355.119504 65.108547 
L 350.999361 36.04204 
L 346.932495 48.398225 
L 342.950874 51.059805 
L 338.997667 38.059748 
L 334.749657 40.034213 
L 330.824865 65.486302 
L 327.003077 56.420188 
L 323.117356 54.179935 
L 319.057594 65.805039 
L 315.068869 32.924853 
L 311.154733 59.748277 
L 307.063004 35.899558 
L 303.124005 46.97921 
L 299.263146 52.492601 
L 295.480429 55.988553 
L 291.537878 51.200646 
L 287.488771 56.279044 
L 283.471631 50.38346 
L 279.269795 42.480542 
L 275.348556 64.172622 
L 271.636875 54.201681 
L 267.534491 45.782695 
L 263.488936 50.032247 
L 259.368793 40.152772 
L 255.262857 64.86054 
L 251.227958 48.534599 
L 247.256992 49.845637 
L 243.257611 71.606877 
L 239.41096 44.015123 
L 235.610483 57.707526 
L 231.600447 45.62005 
L 227.601066 36.385303 
L 223.55196 46.433647 
L 219.545476 57.712989 
L 215.713032 54.276537 
L 211.660374 37.841571 
L 207.671649 68.744415 
L 203.736201 37.306942 
L 199.626714 47.870831 
L 195.620229 50.435079 
L 191.68123 56.914924 
L 187.742231 47.964603 
L 183.923995 58.813019 
L 179.594292 41.940294 
L 175.701467 48.003013 
L 171.641705 45.780248 
L 167.724017 68.797351 
L 163.792122 47.403593 
L 159.856674 45.433497 
L 155.825327 63.148837 
L 151.815291 54.060001 
L 147.886947 63.06662 
L 143.646041 47.623704 
L 139.774527 56.375763 
L 135.778699 45.059916 
L 131.676314 50.318239 
L 127.605897 43.262997 
L 123.734383 47.263647 
L 119.802487 33.237998 
L 116.033977 43.405463 
L 111.913834 43.266619 
L 107.88959 50.514909 
L 104.02518 35.687104 
L 100.057766 52.752707 
L 96.111663 55.881301 
L 92.190423 58.619976 
L 88.276287 68.386902 
L 84.387014 44.360112 
L 80.444463 58.963389 
L 76.530326 44.947576 
L 72.570016 46.308686 
L 68.797954 57.903396 
z
" clip-path="url(#pa6f2c3755e)" style="fill: #d62728; fill-opacity: 0.2"/>
   </g>
   <g id="matplotlib.axis_1">
    <g id="xtick_1">
     <g id="line2d_1">
      <path d="M 66.766297 390.04 
L 66.766297 10.8 
" clip-path="url(#pa6f2c3755e)" style="fill: none; stroke: #b0b0b0; stroke-width: 0.8; stroke-linecap: square"/>
     </g>
     <g id="line2d_2">
      <defs>
       <path id="mba9f08442a" d="M 0 0 
L 0 3.5 
" style="stroke: #000000; stroke-width: 0.8"/>
      </defs>
      <g>
       <use xlink:href="#mba9f08442a" x="66.766297" y="390.04" style="stroke: #000000; stroke-width: 0.8"/>
      </g>
     </g>
     <g id="text_1">
      <!-- 0 -->
      <g transform="translate(63.585047 404.638438) scale(0.1 -0.1)">
       <defs>
        <path id="DejaVuSans-30" d="M 2034 4250 
Q 1547 4250 1301 3770 
Q 1056 3291 1056 2328 
Q 1056 1369 1301 889 
Q 1547 409 2034 409 
Q 2525 409 2770 889 
Q 3016 1369 3016 2328 
Q 3016 3291 2770 3770 
Q 2525 4250 2034 4250 
z
M 2034 4750 
Q 2819 4750 3233 4129 
Q 3647 3509 3647 2328 
Q 3647 1150 3233 529 
Q 2819 -91 2034 -91 
Q 1250 -91 836 529 
Q 422 1150 422 2328 
Q 422 3509 836 4129 
Q 1250 4750 2034 4750 
z
" transform="scale(0.015625)"/>
       </defs>
       <use xlink:href="#DejaVuSans-30"/>
      </g>
     </g>
    </g>
    <g id="xtick_2">
     <g id="line2d_3">
      <path d="M 155.56249 390.04 
L 155.56249 10.8 
" clip-path="url(#pa6f2c3755e)" style="fill: none; stroke: #b0b0b0; stroke-width: 0.8; stroke-linecap: square"/>
     </g>
     <g id="line2d_4">
      <g>
       <use xlink:href="#mba9f08442a" x="155.56249" y="390.04" style="stroke: #000000; stroke-width: 0.8"/>
      </g>
     </g>
     <g id="text_2">
      <!-- 25000 -->
      <g transform="translate(139.65624 404.638438) scale(0.1 -0.1)">
       <defs>
        <path id="DejaVuSans-32" d="M 1228 531 
L 3431 531 
L 3431 0 
L 469 0 
L 469 531 
Q 828 903 1448 1529 
Q 2069 2156 2228 2338 
Q 2531 2678 2651 2914 
Q 2772 3150 2772 3378 
Q 2772 3750 2511 3984 
Q 2250 4219 1831 4219 
Q 1534 4219 1204 4116 
Q 875 4013 500 3803 
L 500 4441 
Q 881 4594 1212 4672 
Q 1544 4750 1819 4750 
Q 2544 4750 2975 4387 
Q 3406 4025 3406 3419 
Q 3406 3131 3298 2873 
Q 3191 2616 2906 2266 
Q 2828 2175 2409 1742 
Q 1991 1309 1228 531 
z
" transform="scale(0.015625)"/>
        <path id="DejaVuSans-35" d="M 691 4666 
L 3169 4666 
L 3169 4134 
L 1269 4134 
L 1269 2991 
Q 1406 3038 1543 3061 
Q 1681 3084 1819 3084 
Q 2600 3084 3056 2656 
Q 3513 2228 3513 1497 
Q 3513 744 3044 326 
Q 2575 -91 1722 -91 
Q 1428 -91 1123 -41 
Q 819 9 494 109 
L 494 744 
Q 775 591 1075 516 
Q 1375 441 1709 441 
Q 2250 441 2565 725 
Q 2881 1009 2881 1497 
Q 2881 1984 2565 2268 
Q 2250 2553 1709 2553 
Q 1456 2553 1204 2497 
Q 953 2441 691 2322 
L 691 4666 
z
" transform="scale(0.015625)"/>
       </defs>
       <use xlink:href="#DejaVuSans-32"/>
       <use xlink:href="#DejaVuSans-35" transform="translate(63.623047 0)"/>
       <use xlink:href="#DejaVuSans-30" transform="translate(127.246094 0)"/>
       <use xlink:href="#DejaVuSans-30" transform="translate(190.869141 0)"/>
       <use xlink:href="#DejaVuSans-30" transform="translate(254.492188 0)"/>
      </g>
     </g>
    </g>
    <g id="xtick_3">
     <g id="line2d_5">
      <path d="M 244.358684 390.04 
L 244.358684 10.8 
" clip-path="url(#pa6f2c3755e)" style="fill: none; stroke: #b0b0b0; stroke-width: 0.8; stroke-linecap: square"/>
     </g>
     <g id="line2d_6">
      <g>
       <use xlink:href="#mba9f08442a" x="244.358684" y="390.04" style="stroke: #000000; stroke-width: 0.8"/>
      </g>
     </g>
     <g id="text_3">
      <!-- 50000 -->
      <g transform="translate(228.452434 404.638438) scale(0.1 -0.1)">
       <use xlink:href="#DejaVuSans-35"/>
       <use xlink:href="#DejaVuSans-30" transform="translate(63.623047 0)"/>
       <use xlink:href="#DejaVuSans-30" transform="translate(127.246094 0)"/>
       <use xlink:href="#DejaVuSans-30" transform="translate(190.869141 0)"/>
       <use xlink:href="#DejaVuSans-30" transform="translate(254.492188 0)"/>
      </g>
     </g>
    </g>
    <g id="xtick_4">
     <g id="line2d_7">
      <path d="M 333.154878 390.04 
L 333.154878 10.8 
" clip-path="url(#pa6f2c3755e)" style="fill: none; stroke: #b0b0b0; stroke-width: 0.8; stroke-linecap: square"/>
     </g>
     <g id="line2d_8">
      <g>
       <use xlink:href="#mba9f08442a" x="333.154878" y="390.04" style="stroke: #000000; stroke-width: 0.8"/>
      </g>
     </g>
     <g id="text_4">
      <!-- 75000 -->
      <g transform="translate(317.248628 404.638438) scale(0.1 -0.1)">
       <defs>
        <path id="DejaVuSans-37" d="M 525 4666 
L 3525 4666 
L 3525 4397 
L 1831 0 
L 1172 0 
L 2766 4134 
L 525 4134 
L 525 4666 
z
" transform="scale(0.015625)"/>
       </defs>
       <use xlink:href="#DejaVuSans-37"/>
       <use xlink:href="#DejaVuSans-35" transform="translate(63.623047 0)"/>
       <use xlink:href="#DejaVuSans-30" transform="translate(127.246094 0)"/>
       <use xlink:href="#DejaVuSans-30" transform="translate(190.869141 0)"/>
       <use xlink:href="#DejaVuSans-30" transform="translate(254.492188 0)"/>
      </g>
     </g>
    </g>
    <g id="xtick_5">
     <g id="line2d_9">
      <path d="M 421.951071 390.04 
L 421.951071 10.8 
" clip-path="url(#pa6f2c3755e)" style="fill: none; stroke: #b0b0b0; stroke-width: 0.8; stroke-linecap: square"/>
     </g>
     <g id="line2d_10">
      <g>
       <use xlink:href="#mba9f08442a" x="421.951071" y="390.04" style="stroke: #000000; stroke-width: 0.8"/>
      </g>
     </g>
     <g id="text_5">
      <!-- 100000 -->
      <g transform="translate(402.863571 404.638438) scale(0.1 -0.1)">
       <defs>
        <path id="DejaVuSans-31" d="M 794 531 
L 1825 531 
L 1825 4091 
L 703 3866 
L 703 4441 
L 1819 4666 
L 2450 4666 
L 2450 531 
L 3481 531 
L 3481 0 
L 794 0 
L 794 531 
z
" transform="scale(0.015625)"/>
       </defs>
       <use xlink:href="#DejaVuSans-31"/>
       <use xlink:href="#DejaVuSans-30" transform="translate(63.623047 0)"/>
       <use xlink:href="#DejaVuSans-30" transform="translate(127.246094 0)"/>
       <use xlink:href="#DejaVuSans-30" transform="translate(190.869141 0)"/>
       <use xlink:href="#DejaVuSans-30" transform="translate(254.492188 0)"/>
       <use xlink:href="#DejaVuSans-30" transform="translate(318.115234 0)"/>
      </g>
     </g>
    </g>
    <g id="xtick_6">
     <g id="line2d_11">
      <path d="M 510.747265 390.04 
L 510.747265 10.8 
" clip-path="url(#pa6f2c3755e)" style="fill: none; stroke: #b0b0b0; stroke-width: 0.8; stroke-linecap: square"/>
     </g>
     <g id="line2d_12">
      <g>
       <use xlink:href="#mba9f08442a" x="510.747265" y="390.04" style="stroke: #000000; stroke-width: 0.8"/>
      </g>
     </g>
     <g id="text_6">
      <!-- 125000 -->
      <g transform="translate(491.659765 404.638438) scale(0.1 -0.1)">
       <use xlink:href="#DejaVuSans-31"/>
       <use xlink:href="#DejaVuSans-32" transform="translate(63.623047 0)"/>
       <use xlink:href="#DejaVuSans-35" transform="translate(127.246094 0)"/>
       <use xlink:href="#DejaVuSans-30" transform="translate(190.869141 0)"/>
       <use xlink:href="#DejaVuSans-30" transform="translate(254.492188 0)"/>
       <use xlink:href="#DejaVuSans-30" transform="translate(318.115234 0)"/>
      </g>
     </g>
    </g>
    <g id="xtick_7">
     <g id="line2d_13">
      <path d="M 599.543458 390.04 
L 599.543458 10.8 
" clip-path="url(#pa6f2c3755e)" style="fill: none; stroke: #b0b0b0; stroke-width: 0.8; stroke-linecap: square"/>
     </g>
     <g id="line2d_14">
      <g>
       <use xlink:href="#mba9f08442a" x="599.543458" y="390.04" style="stroke: #000000; stroke-width: 0.8"/>
      </g>
     </g>
     <g id="text_7">
      <!-- 150000 -->
      <g transform="translate(580.455958 404.638438) scale(0.1 -0.1)">
       <use xlink:href="#DejaVuSans-31"/>
       <use xlink:href="#DejaVuSans-35" transform="translate(63.623047 0)"/>
       <use xlink:href="#DejaVuSans-30" transform="translate(127.246094 0)"/>
       <use xlink:href="#DejaVuSans-30" transform="translate(190.869141 0)"/>
       <use xlink:href="#DejaVuSans-30" transform="translate(254.492188 0)"/>
       <use xlink:href="#DejaVuSans-30" transform="translate(318.115234 0)"/>
      </g>
     </g>
    </g>
    <g id="xtick_8">
     <g id="line2d_15">
      <path d="M 688.339652 390.04 
L 688.339652 10.8 
" clip-path="url(#pa6f2c3755e)" style="fill: none; stroke: #b0b0b0; stroke-width: 0.8; stroke-linecap: square"/>
     </g>
     <g id="line2d_16">
      <g>
       <use xlink:href="#mba9f08442a" x="688.339652" y="390.04" style="stroke: #000000; stroke-width: 0.8"/>
      </g>
     </g>
     <g id="text_8">
      <!-- 175000 -->
      <g transform="translate(669.252152 404.638438) scale(0.1 -0.1)">
       <use xlink:href="#DejaVuSans-31"/>
       <use xlink:href="#DejaVuSans-37" transform="translate(63.623047 0)"/>
       <use xlink:href="#DejaVuSans-35" transform="translate(127.246094 0)"/>
       <use xlink:href="#DejaVuSans-30" transform="translate(190.869141 0)"/>
       <use xlink:href="#DejaVuSans-30" transform="translate(254.492188 0)"/>
       <use xlink:href="#DejaVuSans-30" transform="translate(318.115234 0)"/>
      </g>
     </g>
    </g>
    <g id="text_9">
     <!-- Steps -->
     <g transform="translate(355.399209 418.316562) scale(0.1 -0.1)">
      <defs>
       <path id="DejaVuSans-53" d="M 3425 4513 
L 3425 3897 
Q 3066 4069 2747 4153 
Q 2428 4238 2131 4238 
Q 1616 4238 1336 4038 
Q 1056 3838 1056 3469 
Q 1056 3159 1242 3001 
Q 1428 2844 1947 2747 
L 2328 2669 
Q 3034 2534 3370 2195 
Q 3706 1856 3706 1288 
Q 3706 609 3251 259 
Q 2797 -91 1919 -91 
Q 1588 -91 1214 -16 
Q 841 59 441 206 
L 441 856 
Q 825 641 1194 531 
Q 1563 422 1919 422 
Q 2459 422 2753 634 
Q 3047 847 3047 1241 
Q 3047 1584 2836 1778 
Q 2625 1972 2144 2069 
L 1759 2144 
Q 1053 2284 737 2584 
Q 422 2884 422 3419 
Q 422 4038 858 4394 
Q 1294 4750 2059 4750 
Q 2388 4750 2728 4690 
Q 3069 4631 3425 4513 
z
" transform="scale(0.015625)"/>
       <path id="DejaVuSans-74" d="M 1172 4494 
L 1172 3500 
L 2356 3500 
L 2356 3053 
L 1172 3053 
L 1172 1153 
Q 1172 725 1289 603 
Q 1406 481 1766 481 
L 2356 481 
L 2356 0 
L 1766 0 
Q 1100 0 847 248 
Q 594 497 594 1153 
L 594 3053 
L 172 3053 
L 172 3500 
L 594 3500 
L 594 4494 
L 1172 4494 
z
" transform="scale(0.015625)"/>
       <path id="DejaVuSans-65" d="M 3597 1894 
L 3597 1613 
L 953 1613 
Q 991 1019 1311 708 
Q 1631 397 2203 397 
Q 2534 397 2845 478 
Q 3156 559 3463 722 
L 3463 178 
Q 3153 47 2828 -22 
Q 2503 -91 2169 -91 
Q 1331 -91 842 396 
Q 353 884 353 1716 
Q 353 2575 817 3079 
Q 1281 3584 2069 3584 
Q 2775 3584 3186 3129 
Q 3597 2675 3597 1894 
z
M 3022 2063 
Q 3016 2534 2758 2815 
Q 2500 3097 2075 3097 
Q 1594 3097 1305 2825 
Q 1016 2553 972 2059 
L 3022 2063 
z
" transform="scale(0.015625)"/>
       <path id="DejaVuSans-70" d="M 1159 525 
L 1159 -1331 
L 581 -1331 
L 581 3500 
L 1159 3500 
L 1159 2969 
Q 1341 3281 1617 3432 
Q 1894 3584 2278 3584 
Q 2916 3584 3314 3078 
Q 3713 2572 3713 1747 
Q 3713 922 3314 415 
Q 2916 -91 2278 -91 
Q 1894 -91 1617 61 
Q 1341 213 1159 525 
z
M 3116 1747 
Q 3116 2381 2855 2742 
Q 2594 3103 2138 3103 
Q 1681 3103 1420 2742 
Q 1159 2381 1159 1747 
Q 1159 1113 1420 752 
Q 1681 391 2138 391 
Q 2594 391 2855 752 
Q 3116 1113 3116 1747 
z
" transform="scale(0.015625)"/>
       <path id="DejaVuSans-73" d="M 2834 3397 
L 2834 2853 
Q 2591 2978 2328 3040 
Q 2066 3103 1784 3103 
Q 1356 3103 1142 2972 
Q 928 2841 928 2578 
Q 928 2378 1081 2264 
Q 1234 2150 1697 2047 
L 1894 2003 
Q 2506 1872 2764 1633 
Q 3022 1394 3022 966 
Q 3022 478 2636 193 
Q 2250 -91 1575 -91 
Q 1294 -91 989 -36 
Q 684 19 347 128 
L 347 722 
Q 666 556 975 473 
Q 1284 391 1588 391 
Q 1994 391 2212 530 
Q 2431 669 2431 922 
Q 2431 1156 2273 1281 
Q 2116 1406 1581 1522 
L 1381 1569 
Q 847 1681 609 1914 
Q 372 2147 372 2553 
Q 372 3047 722 3315 
Q 1072 3584 1716 3584 
Q 2034 3584 2315 3537 
Q 2597 3491 2834 3397 
z
" transform="scale(0.015625)"/>
      </defs>
      <use xlink:href="#DejaVuSans-53"/>
      <use xlink:href="#DejaVuSans-74" transform="translate(63.476562 0)"/>
      <use xlink:href="#DejaVuSans-65" transform="translate(102.685547 0)"/>
      <use xlink:href="#DejaVuSans-70" transform="translate(164.208984 0)"/>
      <use xlink:href="#DejaVuSans-73" transform="translate(227.685547 0)"/>
     </g>
    </g>
   </g>
   <g id="matplotlib.axis_2">
    <g id="ytick_1">
     <g id="line2d_17">
      <path d="M 38.27 313.609136 
L 700.508105 313.609136 
" clip-path="url(#pa6f2c3755e)" style="fill: none; stroke: #b0b0b0; stroke-width: 0.8; stroke-linecap: square"/>
     </g>
     <g id="line2d_18">
      <defs>
       <path id="mcd9732dc3b" d="M 0 0 
L -3.5 0 
" style="stroke: #000000; stroke-width: 0.8"/>
      </defs>
      <g>
       <use xlink:href="#mcd9732dc3b" x="38.27" y="313.609136" style="stroke: #000000; stroke-width: 0.8"/>
      </g>
     </g>
     <g id="text_10">
      <!-- 4 -->
      <g transform="translate(24.9075 317.408355) scale(0.1 -0.1)">
       <defs>
        <path id="DejaVuSans-34" d="M 2419 4116 
L 825 1625 
L 2419 1625 
L 2419 4116 
z
M 2253 4666 
L 3047 4666 
L 3047 1625 
L 3713 1625 
L 3713 1100 
L 3047 1100 
L 3047 0 
L 2419 0 
L 2419 1100 
L 313 1100 
L 313 1709 
L 2253 4666 
z
" transform="scale(0.015625)"/>
       </defs>
       <use xlink:href="#DejaVuSans-34"/>
      </g>
     </g>
    </g>
    <g id="ytick_2">
     <g id="line2d_19">
      <path d="M 38.27 235.655106 
L 700.508105 235.655106 
" clip-path="url(#pa6f2c3755e)" style="fill: none; stroke: #b0b0b0; stroke-width: 0.8; stroke-linecap: square"/>
     </g>
     <g id="line2d_20">
      <g>
       <use xlink:href="#mcd9732dc3b" x="38.27" y="235.655106" style="stroke: #000000; stroke-width: 0.8"/>
      </g>
     </g>
     <g id="text_11">
      <!-- 5 -->
      <g transform="translate(24.9075 239.454325) scale(0.1 -0.1)">
       <use xlink:href="#DejaVuSans-35"/>
      </g>
     </g>
    </g>
    <g id="ytick_3">
     <g id="line2d_21">
      <path d="M 38.27 157.701076 
L 700.508105 157.701076 
" clip-path="url(#pa6f2c3755e)" style="fill: none; stroke: #b0b0b0; stroke-width: 0.8; stroke-linecap: square"/>
     </g>
     <g id="line2d_22">
      <g>
       <use xlink:href="#mcd9732dc3b" x="38.27" y="157.701076" style="stroke: #000000; stroke-width: 0.8"/>
      </g>
     </g>
     <g id="text_12">
      <!-- 6 -->
      <g transform="translate(24.9075 161.500294) scale(0.1 -0.1)">
       <defs>
        <path id="DejaVuSans-36" d="M 2113 2584 
Q 1688 2584 1439 2293 
Q 1191 2003 1191 1497 
Q 1191 994 1439 701 
Q 1688 409 2113 409 
Q 2538 409 2786 701 
Q 3034 994 3034 1497 
Q 3034 2003 2786 2293 
Q 2538 2584 2113 2584 
z
M 3366 4563 
L 3366 3988 
Q 3128 4100 2886 4159 
Q 2644 4219 2406 4219 
Q 1781 4219 1451 3797 
Q 1122 3375 1075 2522 
Q 1259 2794 1537 2939 
Q 1816 3084 2150 3084 
Q 2853 3084 3261 2657 
Q 3669 2231 3669 1497 
Q 3669 778 3244 343 
Q 2819 -91 2113 -91 
Q 1303 -91 875 529 
Q 447 1150 447 2328 
Q 447 3434 972 4092 
Q 1497 4750 2381 4750 
Q 2619 4750 2861 4703 
Q 3103 4656 3366 4563 
z
" transform="scale(0.015625)"/>
       </defs>
       <use xlink:href="#DejaVuSans-36"/>
      </g>
     </g>
    </g>
    <g id="ytick_4">
     <g id="line2d_23">
      <path d="M 38.27 79.747046 
L 700.508105 79.747046 
" clip-path="url(#pa6f2c3755e)" style="fill: none; stroke: #b0b0b0; stroke-width: 0.8; stroke-linecap: square"/>
     </g>
     <g id="line2d_24">
      <g>
       <use xlink:href="#mcd9732dc3b" x="38.27" y="79.747046" style="stroke: #000000; stroke-width: 0.8"/>
      </g>
     </g>
     <g id="text_13">
      <!-- 7 -->
      <g transform="translate(24.9075 83.546264) scale(0.1 -0.1)">
       <use xlink:href="#DejaVuSans-37"/>
      </g>
     </g>
    </g>
    <g id="text_14">
     <!-- Quantum Gates -->
     <g transform="translate(18.827813 239.925469) rotate(-90) scale(0.1 -0.1)">
      <defs>
       <path id="DejaVuSans-51" d="M 2522 4238 
Q 1834 4238 1429 3725 
Q 1025 3213 1025 2328 
Q 1025 1447 1429 934 
Q 1834 422 2522 422 
Q 3209 422 3611 934 
Q 4013 1447 4013 2328 
Q 4013 3213 3611 3725 
Q 3209 4238 2522 4238 
z
M 3406 84 
L 4238 -825 
L 3475 -825 
L 2784 -78 
Q 2681 -84 2626 -87 
Q 2572 -91 2522 -91 
Q 1538 -91 948 567 
Q 359 1225 359 2328 
Q 359 3434 948 4092 
Q 1538 4750 2522 4750 
Q 3503 4750 4090 4092 
Q 4678 3434 4678 2328 
Q 4678 1516 4351 937 
Q 4025 359 3406 84 
z
" transform="scale(0.015625)"/>
       <path id="DejaVuSans-75" d="M 544 1381 
L 544 3500 
L 1119 3500 
L 1119 1403 
Q 1119 906 1312 657 
Q 1506 409 1894 409 
Q 2359 409 2629 706 
Q 2900 1003 2900 1516 
L 2900 3500 
L 3475 3500 
L 3475 0 
L 2900 0 
L 2900 538 
Q 2691 219 2414 64 
Q 2138 -91 1772 -91 
Q 1169 -91 856 284 
Q 544 659 544 1381 
z
M 1991 3584 
L 1991 3584 
z
" transform="scale(0.015625)"/>
       <path id="DejaVuSans-61" d="M 2194 1759 
Q 1497 1759 1228 1600 
Q 959 1441 959 1056 
Q 959 750 1161 570 
Q 1363 391 1709 391 
Q 2188 391 2477 730 
Q 2766 1069 2766 1631 
L 2766 1759 
L 2194 1759 
z
M 3341 1997 
L 3341 0 
L 2766 0 
L 2766 531 
Q 2569 213 2275 61 
Q 1981 -91 1556 -91 
Q 1019 -91 701 211 
Q 384 513 384 1019 
Q 384 1609 779 1909 
Q 1175 2209 1959 2209 
L 2766 2209 
L 2766 2266 
Q 2766 2663 2505 2880 
Q 2244 3097 1772 3097 
Q 1472 3097 1187 3025 
Q 903 2953 641 2809 
L 641 3341 
Q 956 3463 1253 3523 
Q 1550 3584 1831 3584 
Q 2591 3584 2966 3190 
Q 3341 2797 3341 1997 
z
" transform="scale(0.015625)"/>
       <path id="DejaVuSans-6e" d="M 3513 2113 
L 3513 0 
L 2938 0 
L 2938 2094 
Q 2938 2591 2744 2837 
Q 2550 3084 2163 3084 
Q 1697 3084 1428 2787 
Q 1159 2491 1159 1978 
L 1159 0 
L 581 0 
L 581 3500 
L 1159 3500 
L 1159 2956 
Q 1366 3272 1645 3428 
Q 1925 3584 2291 3584 
Q 2894 3584 3203 3211 
Q 3513 2838 3513 2113 
z
" transform="scale(0.015625)"/>
       <path id="DejaVuSans-6d" d="M 3328 2828 
Q 3544 3216 3844 3400 
Q 4144 3584 4550 3584 
Q 5097 3584 5394 3201 
Q 5691 2819 5691 2113 
L 5691 0 
L 5113 0 
L 5113 2094 
Q 5113 2597 4934 2840 
Q 4756 3084 4391 3084 
Q 3944 3084 3684 2787 
Q 3425 2491 3425 1978 
L 3425 0 
L 2847 0 
L 2847 2094 
Q 2847 2600 2669 2842 
Q 2491 3084 2119 3084 
Q 1678 3084 1418 2786 
Q 1159 2488 1159 1978 
L 1159 0 
L 581 0 
L 581 3500 
L 1159 3500 
L 1159 2956 
Q 1356 3278 1631 3431 
Q 1906 3584 2284 3584 
Q 2666 3584 2933 3390 
Q 3200 3197 3328 2828 
z
" transform="scale(0.015625)"/>
       <path id="DejaVuSans-20" transform="scale(0.015625)"/>
       <path id="DejaVuSans-47" d="M 3809 666 
L 3809 1919 
L 2778 1919 
L 2778 2438 
L 4434 2438 
L 4434 434 
Q 4069 175 3628 42 
Q 3188 -91 2688 -91 
Q 1594 -91 976 548 
Q 359 1188 359 2328 
Q 359 3472 976 4111 
Q 1594 4750 2688 4750 
Q 3144 4750 3555 4637 
Q 3966 4525 4313 4306 
L 4313 3634 
Q 3963 3931 3569 4081 
Q 3175 4231 2741 4231 
Q 1884 4231 1454 3753 
Q 1025 3275 1025 2328 
Q 1025 1384 1454 906 
Q 1884 428 2741 428 
Q 3075 428 3337 486 
Q 3600 544 3809 666 
z
" transform="scale(0.015625)"/>
      </defs>
      <use xlink:href="#DejaVuSans-51"/>
      <use xlink:href="#DejaVuSans-75" transform="translate(78.710938 0)"/>
      <use xlink:href="#DejaVuSans-61" transform="translate(142.089844 0)"/>
      <use xlink:href="#DejaVuSans-6e" transform="translate(203.369141 0)"/>
      <use xlink:href="#DejaVuSans-74" transform="translate(266.748047 0)"/>
      <use xlink:href="#DejaVuSans-75" transform="translate(305.957031 0)"/>
      <use xlink:href="#DejaVuSans-6d" transform="translate(369.335938 0)"/>
      <use xlink:href="#DejaVuSans-20" transform="translate(466.748047 0)"/>
      <use xlink:href="#DejaVuSans-47" transform="translate(498.535156 0)"/>
      <use xlink:href="#DejaVuSans-61" transform="translate(576.025391 0)"/>
      <use xlink:href="#DejaVuSans-74" transform="translate(637.304688 0)"/>
      <use xlink:href="#DejaVuSans-65" transform="translate(676.513672 0)"/>
      <use xlink:href="#DejaVuSans-73" transform="translate(738.037109 0)"/>
     </g>
    </g>
   </g>
   <g id="line2d_25">
    <path d="M 68.371732 260.600396 
L 71.738884 260.340549 
L 75.010135 251.635682 
L 78.359528 245.269436 
L 81.829683 259.041315 
L 85.12935 268.006028 
L 88.460983 258.391698 
L 91.980864 250.596295 
L 95.546919 237.084263 
L 99.215978 245.139513 
L 102.931211 237.084263 
L 106.628684 230.198324 
L 110.21605 232.666868 
L 113.775002 231.107787 
L 117.227398 244.230049 
L 120.257124 262.939016 
L 123.24778 270.084803 
L 126.252643 280.478673 
L 129.16871 292.691471 
L 132.095432 296.84902 
L 135.018603 292.691471 
L 137.899152 300.616798 
L 140.7797 301.396338 
L 143.649593 306.723197 
L 146.533693 307.24289 
L 149.414242 308.412201 
L 152.287687 307.892507 
L 155.143372 307.892507 
L 157.995506 309.971281 
L 160.865399 310.361052 
L 163.721085 308.931894 
L 166.559011 310.750822 
L 169.404041 310.750822 
L 172.263279 310.231128 
L 175.11186 311.270515 
L 177.967546 310.620898 
L 180.837439 311.530362 
L 183.686021 311.790209 
L 186.545258 311.400439 
L 189.39384 313.089443 
L 192.23887 312.569749 
L 195.105211 312.439826 
L 197.953793 312.959519 
L 200.813031 310.361052 
L 203.668716 312.569749 
L 206.524402 311.920132 
L 209.383639 311.530362 
L 212.235773 310.101205 
L 215.084355 312.699672 
L 217.929385 311.660285 
L 220.799278 311.530362 
L 223.654964 311.660285 
L 226.499994 312.439826 
L 229.345024 313.089443 
L 232.193606 312.439826 
L 235.045739 312.959519 
L 237.897873 312.959519 
L 240.739351 312.309902 
L 243.598589 309.841358 
L 246.461378 313.998906 
L 249.231819 318.806071 
L 251.980949 314.778447 
L 254.804668 312.179979 
L 257.656802 317.766684 
L 260.256755 316.207604 
L 263.105336 313.609136 
L 265.953918 313.349289 
L 268.592941 320.365152 
L 271.359831 312.829596 
L 274.204861 311.140592 
L 277.06765 306.333427 
L 282.79678 310.880745 
L 285.666673 314.778447 
L 288.536566 324.5227 
L 291.392252 321.274616 
L 294.301215 294.900169 
L 297.970274 289.833157 
L 301.284148 305.034193 
L 304.214422 311.400439 
L 307.123386 308.022431 
L 310.110489 308.672048 
L 313.09049 307.63266 
L 316.01366 312.959519 
L 319.039835 301.786108 
L 322.090872 308.022431 
L 325.095735 309.711435 
L 328.015354 311.530362 
L 330.913662 312.439826 
L 333.822625 310.880745 
L 336.713829 310.750822 
L 339.605033 312.829596 
L 342.492685 311.920132 
L 345.355475 312.309902 
L 348.225368 311.790209 
L 351.105916 297.23879 
L 353.986465 287.624459 
L 356.84215 301.396338 
L 359.701388 307.892507 
L 362.560625 311.790209 
L 365.409207 313.349289 
L 368.392759 304.254652 
L 371.401174 308.801971 
L 374.303034 311.530362 
L 377.194238 311.920132 
L 380.071234 312.829596 
L 385.807469 311.530362 
L 388.677362 311.660285 
L 391.540151 313.089443 
L 394.378077 314.258753 
L 397.216004 312.699672 
L 400.093 312.959519 
L 402.948686 312.439826 
L 405.83989 312.699672 
L 408.727542 311.530362 
L 411.618746 312.179979 
L 414.495743 312.050055 
L 417.422465 308.801971 
L 420.395362 308.672048 
L 423.357603 308.801971 
L 426.31274 311.010668 
L 429.189737 311.660285 
L 432.031215 314.258753 
L 434.869141 313.219366 
L 437.721275 313.609136 
L 440.59472 311.920132 
L 443.457509 313.089443 
L 449.172432 312.829596 
L 452.038773 312.179979 
L 454.933529 311.270515 
L 457.79987 312.699672 
L 460.648452 313.219366 
L 463.521897 308.801971 
L 466.576486 307.892507 
L 469.520968 310.490975 
L 472.422828 311.920132 
L 478.162614 312.699672 
L 481.050266 312.050055 
L 483.913055 306.723197 
L 486.772293 309.061818 
L 489.82333 306.983044 
L 492.813986 308.022431 
L 495.779778 310.101205 
L 498.681638 311.530362 
L 501.565738 312.569749 
L 504.442735 310.490975 
L 507.319732 313.089443 
L 513.052414 312.569749 
L 515.915203 312.439826 
L 518.767337 313.089443 
L 521.63723 311.920132 
L 524.507123 312.829596 
L 527.373464 312.439826 
L 530.236253 312.439826 
L 533.088387 311.660285 
L 535.944073 305.813733 
L 539.069699 308.542124 
L 542.010629 311.790209 
L 544.866314 312.699672 
L 547.739759 311.530362 
L 550.620308 312.959519 
L 556.321023 313.479213 
L 559.219331 309.191741 
L 562.192228 311.010668 
L 565.076328 311.920132 
L 567.949773 312.309902 
L 570.826769 303.345189 
L 573.682455 313.219366 
L 576.566555 310.490975 
L 579.500382 294.900169 
L 582.384482 295.419862 
L 585.289893 302.175878 
L 588.198857 311.660285 
L 591.065198 312.699672 
L 593.942194 312.050055 
L 596.804984 313.479213 
L 599.692636 310.361052 
L 602.573184 311.400439 
L 605.478596 312.309902 
L 608.355593 311.920132 
L 611.211278 312.439826 
L 614.123793 310.750822 
L 617.043412 309.711435 
L 619.938168 308.931894 
L 622.822268 312.439826 
L 625.699265 311.920132 
L 628.57271 311.920132 
L 631.435499 312.699672 
L 634.30184 293.471012 
L 637.178837 292.691471 
L 640.052282 304.254652 
L 642.925727 311.790209 
L 645.802723 312.309902 
L 648.661961 312.699672 
L 651.531854 312.179979 
L 654.398195 310.620898 
L 657.300055 312.959519 
L 660.177051 310.490975 
L 663.100222 312.439826 
L 666.026944 305.813733 
L 669.099293 308.152354 
L 669.099293 308.152354 
" clip-path="url(#pa6f2c3755e)" style="fill: none; stroke: #1f77b4; stroke-width: 1.5; stroke-linecap: square"/>
   </g>
   <g id="line2d_26">
    <path d="M 68.574187 222.532844 
L 72.189968 225.391159 
L 75.684987 217.465832 
L 79.364701 218.115449 
L 83.204248 216.296522 
L 86.8591 220.583993 
L 90.72351 218.894989 
L 94.630542 213.957901 
L 98.541127 206.812115 
L 102.366467 217.335909 
L 106.056837 211.359433 
L 109.956765 231.497558 
L 113.817624 234.485795 
L 117.831212 245.139513 
L 121.926492 251.895529 
L 126.007565 257.872005 
L 130.049568 262.2894 
L 134.144849 267.356412 
L 138.108711 272.943117 
L 141.916291 275.281738 
L 145.699009 279.049516 
L 149.378724 282.557447 
L 153.086853 282.167677 
L 156.713289 283.596834 
L 160.32907 283.856681 
L 163.976818 285.025992 
L 167.567736 283.986605 
L 171.176413 282.427524 
L 174.788642 283.726758 
L 178.372457 285.675609 
L 181.963375 284.376375 
L 185.543637 286.455149 
L 189.1239 286.714996 
L 192.704162 285.545685 
L 196.284425 286.844919 
L 199.868239 286.844919 
L 203.427191 286.974842 
L 207.007453 285.675609 
L 210.605475 285.415762 
L 214.192841 285.935455 
L 217.787311 285.285838 
L 221.374677 286.585072 
L 224.933629 286.325226 
L 228.506788 284.376375 
L 232.101257 286.325226 
L 235.68152 287.494536 
L 239.254679 287.754383 
L 242.820734 285.675609 
L 246.393893 286.195302 
L 249.981259 285.935455 
L 253.579281 285.415762 
L 257.148888 285.675609 
L 260.754013 285.415762 
L 264.348483 285.025992 
L 267.960712 286.714996 
L 271.55163 286.455149 
L 275.174515 280.868443 
L 278.903955 280.73852 
L 282.594325 283.207064 
L 286.192347 285.285838 
L 289.900476 280.73852 
L 293.573086 282.947218 
L 297.227938 282.817294 
L 300.854374 285.545685 
L 304.484363 285.675609 
L 308.103695 282.817294 
L 311.772754 283.336988 
L 315.392087 285.675609 
L 318.975901 285.285838 
L 322.655616 283.596834 
L 326.253637 270.994266 
L 329.837452 267.486335 
L 333.449681 276.061278 
L 337.079669 277.230589 
L 340.691899 280.34875 
L 344.300576 282.557447 
L 347.866631 283.856681 
L 351.450445 264.368174 
L 355.030708 276.061278 
L 358.674904 278.010129 
L 362.326203 275.021891 
L 365.945536 274.891968 
L 369.54711 281.777907 
L 373.145131 274.242351 
L 376.863916 279.699133 
L 380.458386 286.844919 
L 384.077719 281.777907 
L 387.661533 283.336988 
L 391.273762 283.077141 
L 394.889543 288.144153 
L 398.540843 296.978943 
L 402.096242 293.341088 
L 405.669401 301.916032 
L 409.221249 306.723197 
L 412.7802 301.136491 
L 416.339152 302.825495 
L 419.883896 302.305802 
L 423.439295 290.222927 
L 426.998247 301.526261 
L 430.557198 307.63266 
L 434.130357 306.723197 
L 437.689309 301.006568 
L 441.216293 297.62856 
L 444.775245 293.211165 
L 448.327093 295.160016 
L 451.889596 294.770245 
L 455.452099 292.821395 
L 459.007499 292.431625 
L 462.559346 288.144153 
L 466.118298 290.222927 
L 469.670146 288.01423 
L 476.784497 283.986605 
L 480.339896 290.093004 
L 483.891744 298.278177 
L 487.443592 297.368713 
L 490.998991 291.522161 
L 494.550839 287.104766 
L 498.102687 286.844919 
L 501.672294 291.911931 
L 505.256108 295.679709 
L 508.822163 289.833157 
L 512.384667 287.624459 
L 515.940066 287.754383 
L 519.491914 287.104766 
L 523.036658 288.404 
L 526.567195 287.624459 
L 530.129698 282.167677 
L 533.67089 287.624459 
L 537.219186 287.364613 
L 540.774586 286.844919 
L 544.326433 287.234689 
L 547.878281 287.494536 
L 551.430129 287.624459 
L 554.981977 288.01423 
L 558.533824 286.195302 
L 562.089224 286.585072 
L 565.644624 287.624459 
L 569.196471 287.494536 
L 572.748319 286.844919 
L 576.360548 275.281738 
L 580.320858 280.73852 
L 583.904673 287.364613 
L 587.460072 287.494536 
L 591.019024 287.364613 
L 594.570872 286.714996 
L 601.678119 286.974842 
L 605.240622 282.947218 
L 608.79247 259.301162 
L 612.347869 275.671508 
L 615.984962 287.364613 
L 619.540361 283.336988 
L 622.971446 295.289939 
L 626.395427 287.884306 
L 629.947275 280.478673 
L 633.499123 284.896068 
L 637.054522 287.884306 
L 640.60637 286.974842 
L 644.165322 286.974842 
L 647.717169 287.364613 
L 651.269017 287.104766 
L 654.820865 285.935455 
L 658.376264 287.364613 
L 661.928112 287.494536 
L 665.47996 287.884306 
L 669.042463 286.974842 
L 669.042463 286.974842 
" clip-path="url(#pa6f2c3755e)" style="fill: none; stroke: #ff7f0e; stroke-width: 1.5; stroke-linecap: square"/>
   </g>
   <g id="line2d_27">
    <path d="M 68.627465 194.72924 
L 72.356905 196.418244 
L 76.278145 181.736902 
L 80.263318 190.311845 
L 84.255595 209.540506 
L 88.194594 212.39882 
L 92.233045 205.253034 
L 96.321222 211.879127 
L 100.341914 206.682191 
L 104.341294 214.087824 
L 108.361986 206.162498 
L 112.336503 199.666329 
L 116.374954 197.457631 
L 120.40275 189.792151 
L 124.476719 185.634603 
L 128.518722 188.882688 
L 132.606898 194.599317 
L 136.371857 226.300622 
L 140.083538 232.407021 
L 143.741941 244.359973 
L 147.116197 259.431085 
L 150.248926 268.265875 
L 153.360345 269.435186 
L 156.382967 273.462811 
L 159.306138 275.931355 
L 162.247068 279.56921 
L 165.17379 280.088903 
L 168.104065 275.931355 
L 174.056962 283.466911 
L 176.97658 282.427524 
L 179.860681 285.805532 
L 182.773196 284.116528 
L 185.643089 282.817294 
L 188.50943 283.466911 
L 191.429049 281.647984 
L 194.316701 285.025992 
L 197.204353 284.246451 
L 200.067143 285.025992 
L 202.944139 284.246451 
L 205.842447 282.947218 
L 208.71234 281.12829 
L 211.589337 283.596834 
L 214.445022 281.258214 
L 217.30426 281.258214 
L 220.152842 281.51806 
L 223.015631 282.427524 
L 225.892628 272.423423 
L 228.748313 282.687371 
L 231.603999 284.766145 
L 234.449029 285.675609 
L 237.31537 284.506298 
L 240.167504 282.687371 
L 243.008982 283.336988 
L 245.942808 281.258214 
L 248.819805 279.699133 
L 251.711009 279.439286 
L 254.715872 263.84848 
L 258.257064 257.612158 
L 261.432416 275.931355 
L 264.327172 280.73852 
L 267.332035 264.498097 
L 270.844813 265.537484 
L 273.792846 277.360512 
L 276.691154 284.636222 
L 279.578806 287.234689 
L 282.48777 281.90783 
L 285.386077 285.025992 
L 288.263074 284.636222 
L 291.125863 271.90373 
L 293.999308 274.112427 
L 296.869201 271.773807 
L 299.746198 264.108327 
L 302.612539 253.714456 
L 306.118213 237.34411 
L 309.506675 245.269436 
L 312.710442 253.714456 
L 315.814757 252.934916 
L 318.851587 257.742081 
L 321.888417 257.092464 
L 324.847106 258.261775 
L 327.898143 256.962541 
L 330.984699 263.06894 
L 334.089014 260.860242 
L 337.104532 266.446948 
L 340.215951 261.899629 
L 343.338025 265.667408 
L 346.381959 268.395799 
L 349.393925 268.006028 
L 352.409444 268.915492 
L 355.53507 268.135952 
L 358.646489 262.029553 
L 361.892878 261.769706 
L 365.192544 257.482234 
L 368.545489 247.997827 
L 371.884225 259.041315 
L 375.176788 260.990166 
L 378.472903 259.431085 
L 381.751258 260.210625 
L 384.979888 268.395799 
L 388.11617 265.927254 
L 394.239555 268.655645 
L 397.219555 273.592734 
L 400.24573 269.045416 
L 403.279008 267.616258 
L 406.234145 266.966641 
L 409.302941 268.785569 
L 412.275838 267.876105 
L 415.174146 267.616258 
L 421.077317 262.159476 
L 424.057317 266.446948 
L 427.019558 269.305262 
L 429.953384 271.12419 
L 432.851692 266.446948 
L 435.778414 269.565109 
L 438.698033 274.372274 
L 441.606997 274.502198 
L 444.622515 271.12419 
L 447.613171 277.880206 
L 450.610931 276.191202 
L 453.772075 275.801431 
L 456.816009 280.34875 
L 459.81732 295.809633 
L 462.800872 283.077141 
L 465.745354 280.088903 
L 468.67918 263.06894 
L 471.744425 266.706795 
L 474.713769 274.372274 
L 477.679562 278.529823 
L 480.620492 281.90783 
L 483.547215 281.388137 
L 486.488145 276.710895 
L 489.404212 269.695032 
L 492.34159 279.179439 
L 495.296727 281.388137 
L 498.26252 282.557447 
L 501.189243 284.376375 
L 504.076895 284.766145 
L 506.971651 285.285838 
L 509.951651 261.769706 
L 512.988481 268.915492 
L 515.922307 269.565109 
L 518.863237 276.710895 
L 521.789959 284.116528 
L 524.677612 279.829056 
L 527.575919 282.947218 
L 530.438709 282.687371 
L 533.418709 278.399899 
L 536.370294 283.466911 
L 539.279258 285.415762 
L 542.220188 282.947218 
L 545.129151 283.207064 
L 548.070081 281.90783 
L 551.06784 282.557447 
L 553.994563 284.896068 
L 556.907078 282.947218 
L 559.848008 283.856681 
L 562.796042 283.726758 
L 565.73342 285.285838 
L 568.610416 285.285838 
L 571.51938 282.427524 
L 574.428343 285.025992 
L 577.333754 286.455149 
L 580.217855 285.415762 
L 583.087748 280.218827 
L 586.273755 277.880206 
L 589.303481 296.719096 
L 592.290585 283.856681 
L 595.227963 283.336988 
L 598.286104 274.762044 
L 601.465008 276.710895 
L 604.604841 278.140052 
L 607.680742 279.179439 
L 610.735331 281.647984 
L 613.63719 282.947218 
L 616.67402 280.34875 
L 619.661124 274.242351 
L 622.65178 278.140052 
L 625.564295 285.285838 
L 628.544295 274.891968 
L 631.527847 281.258214 
L 634.578885 280.478673 
L 637.597955 282.167677 
L 640.538885 281.51806 
L 643.504678 282.427524 
L 646.413641 281.12829 
L 649.443367 263.328787 
L 652.448231 275.281738 
L 655.40692 279.95898 
L 658.514786 279.049516 
L 661.544513 281.258214 
L 664.542272 282.037754 
L 667.465443 285.025992 
L 670.406373 284.246451 
L 670.406373 284.246451 
" clip-path="url(#pa6f2c3755e)" style="fill: none; stroke: #2ca02c; stroke-width: 1.5; stroke-linecap: square"/>
   </g>
   <g id="line2d_28">
    <path d="M 68.797954 198.756865 
L 72.570016 190.051998 
L 76.530326 190.051998 
L 80.444463 194.599317 
L 84.387014 187.06376 
L 88.276287 201.875026 
L 92.190423 195.11901 
L 96.111663 191.741002 
L 100.057766 190.441768 
L 104.02518 185.374756 
L 107.88959 193.300083 
L 111.913834 184.335369 
L 116.033977 188.622841 
L 119.802487 180.047898 
L 123.734383 187.973224 
L 127.605897 187.323607 
L 131.676314 186.28422 
L 135.778699 191.091385 
L 139.774527 193.430006 
L 143.646041 190.831539 
L 147.886947 202.00495 
L 151.815291 198.107248 
L 155.825327 200.445869 
L 159.856674 193.430006 
L 163.792122 187.713377 
L 167.724017 200.056099 
L 171.641705 189.012611 
L 175.701467 187.06376 
L 179.594292 184.984986 
L 183.923995 195.768627 
L 187.742231 186.024373 
L 191.68123 199.146635 
L 195.620229 187.583454 
L 199.626714 190.441768 
L 203.736201 184.984986 
L 207.671649 203.17426 
L 211.660374 173.421805 
L 215.713032 200.835639 
L 219.545476 200.445869 
L 223.55196 189.012611 
L 227.601066 184.72514 
L 231.600447 189.662228 
L 235.610483 198.107248 
L 239.41096 191.091385 
L 243.257611 206.942038 
L 247.256992 191.481155 
L 251.227958 185.634603 
L 255.262857 204.993187 
L 259.368793 180.697515 
L 263.488936 189.402381 
L 267.534491 191.221309 
L 271.636875 191.611079 
L 275.348556 205.382958 
L 279.269795 179.917974 
L 283.471631 193.040236 
L 287.488771 191.611079 
L 291.537878 187.973224 
L 295.480429 194.72924 
L 299.263146 199.016712 
L 303.124005 189.532305 
L 307.063004 180.827438 
L 311.154733 203.17426 
L 315.068869 181.866825 
L 319.057594 202.78449 
L 323.117356 190.571692 
L 327.003077 191.741002 
L 330.824865 197.717478 
L 334.749657 177.969124 
L 338.997667 177.709277 
L 342.950874 192.650466 
L 346.932495 182.516442 
L 350.999361 180.437668 
L 355.119504 207.851502 
L 359.111781 182.646365 
L 363.075643 189.012611 
L 367.170923 199.796252 
L 371.276859 188.882688 
L 375.208755 187.193684 
L 379.115787 200.705716 
L 383.090305 195.50878 
L 387.000889 192.650466 
L 391.035788 196.937938 
L 394.942821 192.000849 
L 399.002583 202.524643 
L 403.001963 202.134873 
L 406.969377 192.910313 
L 410.858651 208.631042 
L 414.641369 197.587555 
L 418.559057 194.33947 
L 422.35243 204.863264 
L 426.383777 194.079623 
L 430.287258 194.72924 
L 434.403849 184.075523 
L 438.360608 198.626942 
L 442.36354 198.886788 
L 446.330954 209.020812 
L 449.982254 197.977325 
L 453.910597 197.327708 
L 457.938393 184.984986 
L 461.91291 186.024373 
L 465.727595 196.028474 
L 469.762494 195.378857 
L 473.921707 192.000849 
L 478.024092 200.445869 
L 481.899157 198.367095 
L 485.763568 187.843301 
L 489.642185 191.870926 
L 493.527907 186.803914 
L 497.438491 196.808014 
L 501.270935 198.237171 
L 505.131794 185.374756 
L 509.120519 195.768627 
L 513.055966 188.622841 
L 517.066002 189.532305 
L 521.029864 187.843301 
L 525.100282 194.989087 
L 529.195562 193.040236 
L 533.088387 188.362994 
L 536.927935 197.457631 
L 540.636064 207.721578 
L 544.610581 194.859163 
L 548.535373 196.288321 
L 552.410439 203.17426 
L 556.129223 196.288321 
L 560.0256 191.481155 
L 563.978807 179.658128 
L 568.088295 191.221309 
L 571.988224 197.197784 
L 575.877497 186.803914 
L 580.001192 175.110809 
L 583.979262 177.969124 
L 587.985746 188.622841 
L 592.112993 191.091385 
L 595.917022 185.11491 
L 599.919954 201.095486 
L 603.60322 192.520543 
L 607.35042 207.461732 
L 611.232589 190.181922 
L 615.242625 186.67399 
L 619.160313 200.186022 
L 623.227179 177.319507 
L 627.326011 190.311845 
L 631.314736 181.217208 
L 635.388706 196.678091 
L 639.402294 184.984986 
L 643.245393 203.9538 
L 646.992592 199.016712 
L 650.658099 197.457631 
L 654.472784 199.796252 
L 658.326539 191.091385 
L 662.258434 195.898551 
L 666.261366 195.638704 
L 670.171951 210.579893 
L 670.171951 210.579893 
" clip-path="url(#pa6f2c3755e)" style="fill: none; stroke: #d62728; stroke-width: 1.5; stroke-linecap: square"/>
   </g>
   <g id="patch_3">
    <path d="M 38.27 390.04 
L 38.27 10.8 
" style="fill: none; stroke: #000000; stroke-width: 0.8; stroke-linejoin: miter; stroke-linecap: square"/>
   </g>
   <g id="patch_4">
    <path d="M 700.508105 390.04 
L 700.508105 10.8 
" style="fill: none; stroke: #000000; stroke-width: 0.8; stroke-linejoin: miter; stroke-linecap: square"/>
   </g>
   <g id="patch_5">
    <path d="M 38.27 390.04 
L 700.508105 390.04 
" style="fill: none; stroke: #000000; stroke-width: 0.8; stroke-linejoin: miter; stroke-linecap: square"/>
   </g>
   <g id="patch_6">
    <path d="M 38.27 10.8 
L 700.508105 10.8 
" style="fill: none; stroke: #000000; stroke-width: 0.8; stroke-linejoin: miter; stroke-linecap: square"/>
   </g>
   <g id="legend_1">
    <g id="patch_7">
     <path d="M 599.83623 385.04 
L 693.508105 385.04 
Q 695.508105 385.04 695.508105 383.04 
L 695.508105 310.649375 
Q 695.508105 308.649375 693.508105 308.649375 
L 599.83623 308.649375 
Q 597.83623 308.649375 597.83623 310.649375 
L 597.83623 383.04 
Q 597.83623 385.04 599.83623 385.04 
z
" style="fill: #ffffff; opacity: 0.8; stroke: #cccccc; stroke-linejoin: miter"/>
    </g>
    <g id="text_15">
     <!-- Max Circuit Depth -->
     <g transform="translate(601.83623 320.247813) scale(0.1 -0.1)">
      <defs>
       <path id="DejaVuSans-4d" d="M 628 4666 
L 1569 4666 
L 2759 1491 
L 3956 4666 
L 4897 4666 
L 4897 0 
L 4281 0 
L 4281 4097 
L 3078 897 
L 2444 897 
L 1241 4097 
L 1241 0 
L 628 0 
L 628 4666 
z
" transform="scale(0.015625)"/>
       <path id="DejaVuSans-78" d="M 3513 3500 
L 2247 1797 
L 3578 0 
L 2900 0 
L 1881 1375 
L 863 0 
L 184 0 
L 1544 1831 
L 300 3500 
L 978 3500 
L 1906 2253 
L 2834 3500 
L 3513 3500 
z
" transform="scale(0.015625)"/>
       <path id="DejaVuSans-43" d="M 4122 4306 
L 4122 3641 
Q 3803 3938 3442 4084 
Q 3081 4231 2675 4231 
Q 1875 4231 1450 3742 
Q 1025 3253 1025 2328 
Q 1025 1406 1450 917 
Q 1875 428 2675 428 
Q 3081 428 3442 575 
Q 3803 722 4122 1019 
L 4122 359 
Q 3791 134 3420 21 
Q 3050 -91 2638 -91 
Q 1578 -91 968 557 
Q 359 1206 359 2328 
Q 359 3453 968 4101 
Q 1578 4750 2638 4750 
Q 3056 4750 3426 4639 
Q 3797 4528 4122 4306 
z
" transform="scale(0.015625)"/>
       <path id="DejaVuSans-69" d="M 603 3500 
L 1178 3500 
L 1178 0 
L 603 0 
L 603 3500 
z
M 603 4863 
L 1178 4863 
L 1178 4134 
L 603 4134 
L 603 4863 
z
" transform="scale(0.015625)"/>
       <path id="DejaVuSans-72" d="M 2631 2963 
Q 2534 3019 2420 3045 
Q 2306 3072 2169 3072 
Q 1681 3072 1420 2755 
Q 1159 2438 1159 1844 
L 1159 0 
L 581 0 
L 581 3500 
L 1159 3500 
L 1159 2956 
Q 1341 3275 1631 3429 
Q 1922 3584 2338 3584 
Q 2397 3584 2469 3576 
Q 2541 3569 2628 3553 
L 2631 2963 
z
" transform="scale(0.015625)"/>
       <path id="DejaVuSans-63" d="M 3122 3366 
L 3122 2828 
Q 2878 2963 2633 3030 
Q 2388 3097 2138 3097 
Q 1578 3097 1268 2742 
Q 959 2388 959 1747 
Q 959 1106 1268 751 
Q 1578 397 2138 397 
Q 2388 397 2633 464 
Q 2878 531 3122 666 
L 3122 134 
Q 2881 22 2623 -34 
Q 2366 -91 2075 -91 
Q 1284 -91 818 406 
Q 353 903 353 1747 
Q 353 2603 823 3093 
Q 1294 3584 2113 3584 
Q 2378 3584 2631 3529 
Q 2884 3475 3122 3366 
z
" transform="scale(0.015625)"/>
       <path id="DejaVuSans-44" d="M 1259 4147 
L 1259 519 
L 2022 519 
Q 2988 519 3436 956 
Q 3884 1394 3884 2338 
Q 3884 3275 3436 3711 
Q 2988 4147 2022 4147 
L 1259 4147 
z
M 628 4666 
L 1925 4666 
Q 3281 4666 3915 4102 
Q 4550 3538 4550 2338 
Q 4550 1131 3912 565 
Q 3275 0 1925 0 
L 628 0 
L 628 4666 
z
" transform="scale(0.015625)"/>
       <path id="DejaVuSans-68" d="M 3513 2113 
L 3513 0 
L 2938 0 
L 2938 2094 
Q 2938 2591 2744 2837 
Q 2550 3084 2163 3084 
Q 1697 3084 1428 2787 
Q 1159 2491 1159 1978 
L 1159 0 
L 581 0 
L 581 4863 
L 1159 4863 
L 1159 2956 
Q 1366 3272 1645 3428 
Q 1925 3584 2291 3584 
Q 2894 3584 3203 3211 
Q 3513 2838 3513 2113 
z
" transform="scale(0.015625)"/>
      </defs>
      <use xlink:href="#DejaVuSans-4d"/>
      <use xlink:href="#DejaVuSans-61" transform="translate(86.279297 0)"/>
      <use xlink:href="#DejaVuSans-78" transform="translate(147.558594 0)"/>
      <use xlink:href="#DejaVuSans-20" transform="translate(206.738281 0)"/>
      <use xlink:href="#DejaVuSans-43" transform="translate(238.525391 0)"/>
      <use xlink:href="#DejaVuSans-69" transform="translate(308.349609 0)"/>
      <use xlink:href="#DejaVuSans-72" transform="translate(336.132812 0)"/>
      <use xlink:href="#DejaVuSans-63" transform="translate(374.996094 0)"/>
      <use xlink:href="#DejaVuSans-75" transform="translate(429.976562 0)"/>
      <use xlink:href="#DejaVuSans-69" transform="translate(493.355469 0)"/>
      <use xlink:href="#DejaVuSans-74" transform="translate(521.138672 0)"/>
      <use xlink:href="#DejaVuSans-20" transform="translate(560.347656 0)"/>
      <use xlink:href="#DejaVuSans-44" transform="translate(592.134766 0)"/>
      <use xlink:href="#DejaVuSans-65" transform="translate(669.136719 0)"/>
      <use xlink:href="#DejaVuSans-70" transform="translate(730.660156 0)"/>
      <use xlink:href="#DejaVuSans-74" transform="translate(794.136719 0)"/>
      <use xlink:href="#DejaVuSans-68" transform="translate(833.345703 0)"/>
     </g>
    </g>
    <g id="line2d_29">
     <path d="M 603.301855 331.425937 
L 613.301855 331.425937 
L 623.301855 331.425937 
" style="fill: none; stroke: #1f77b4; stroke-width: 1.5; stroke-linecap: square"/>
    </g>
    <g id="text_16">
     <!-- 4 (PPO) -->
     <g transform="translate(631.301855 334.925937) scale(0.1 -0.1)">
      <defs>
       <path id="DejaVuSans-28" d="M 1984 4856 
Q 1566 4138 1362 3434 
Q 1159 2731 1159 2009 
Q 1159 1288 1364 580 
Q 1569 -128 1984 -844 
L 1484 -844 
Q 1016 -109 783 600 
Q 550 1309 550 2009 
Q 550 2706 781 3412 
Q 1013 4119 1484 4856 
L 1984 4856 
z
" transform="scale(0.015625)"/>
       <path id="DejaVuSans-50" d="M 1259 4147 
L 1259 2394 
L 2053 2394 
Q 2494 2394 2734 2622 
Q 2975 2850 2975 3272 
Q 2975 3691 2734 3919 
Q 2494 4147 2053 4147 
L 1259 4147 
z
M 628 4666 
L 2053 4666 
Q 2838 4666 3239 4311 
Q 3641 3956 3641 3272 
Q 3641 2581 3239 2228 
Q 2838 1875 2053 1875 
L 1259 1875 
L 1259 0 
L 628 0 
L 628 4666 
z
" transform="scale(0.015625)"/>
       <path id="DejaVuSans-4f" d="M 2522 4238 
Q 1834 4238 1429 3725 
Q 1025 3213 1025 2328 
Q 1025 1447 1429 934 
Q 1834 422 2522 422 
Q 3209 422 3611 934 
Q 4013 1447 4013 2328 
Q 4013 3213 3611 3725 
Q 3209 4238 2522 4238 
z
M 2522 4750 
Q 3503 4750 4090 4092 
Q 4678 3434 4678 2328 
Q 4678 1225 4090 567 
Q 3503 -91 2522 -91 
Q 1538 -91 948 565 
Q 359 1222 359 2328 
Q 359 3434 948 4092 
Q 1538 4750 2522 4750 
z
" transform="scale(0.015625)"/>
       <path id="DejaVuSans-29" d="M 513 4856 
L 1013 4856 
Q 1481 4119 1714 3412 
Q 1947 2706 1947 2009 
Q 1947 1309 1714 600 
Q 1481 -109 1013 -844 
L 513 -844 
Q 928 -128 1133 580 
Q 1338 1288 1338 2009 
Q 1338 2731 1133 3434 
Q 928 4138 513 4856 
z
" transform="scale(0.015625)"/>
      </defs>
      <use xlink:href="#DejaVuSans-34"/>
      <use xlink:href="#DejaVuSans-20" transform="translate(63.623047 0)"/>
      <use xlink:href="#DejaVuSans-28" transform="translate(95.410156 0)"/>
      <use xlink:href="#DejaVuSans-50" transform="translate(134.423828 0)"/>
      <use xlink:href="#DejaVuSans-50" transform="translate(194.726562 0)"/>
      <use xlink:href="#DejaVuSans-4f" transform="translate(255.029297 0)"/>
      <use xlink:href="#DejaVuSans-29" transform="translate(333.740234 0)"/>
     </g>
    </g>
    <g id="line2d_30">
     <path d="M 603.301855 346.104062 
L 613.301855 346.104062 
L 623.301855 346.104062 
" style="fill: none; stroke: #ff7f0e; stroke-width: 1.5; stroke-linecap: square"/>
    </g>
    <g id="text_17">
     <!-- 5 (PPO) -->
     <g transform="translate(631.301855 349.604062) scale(0.1 -0.1)">
      <use xlink:href="#DejaVuSans-35"/>
      <use xlink:href="#DejaVuSans-20" transform="translate(63.623047 0)"/>
      <use xlink:href="#DejaVuSans-28" transform="translate(95.410156 0)"/>
      <use xlink:href="#DejaVuSans-50" transform="translate(134.423828 0)"/>
      <use xlink:href="#DejaVuSans-50" transform="translate(194.726562 0)"/>
      <use xlink:href="#DejaVuSans-4f" transform="translate(255.029297 0)"/>
      <use xlink:href="#DejaVuSans-29" transform="translate(333.740234 0)"/>
     </g>
    </g>
    <g id="line2d_31">
     <path d="M 603.301855 360.782187 
L 613.301855 360.782187 
L 623.301855 360.782187 
" style="fill: none; stroke: #2ca02c; stroke-width: 1.5; stroke-linecap: square"/>
    </g>
    <g id="text_18">
     <!-- 6 (PPO) -->
     <g transform="translate(631.301855 364.282187) scale(0.1 -0.1)">
      <use xlink:href="#DejaVuSans-36"/>
      <use xlink:href="#DejaVuSans-20" transform="translate(63.623047 0)"/>
      <use xlink:href="#DejaVuSans-28" transform="translate(95.410156 0)"/>
      <use xlink:href="#DejaVuSans-50" transform="translate(134.423828 0)"/>
      <use xlink:href="#DejaVuSans-50" transform="translate(194.726562 0)"/>
      <use xlink:href="#DejaVuSans-4f" transform="translate(255.029297 0)"/>
      <use xlink:href="#DejaVuSans-29" transform="translate(333.740234 0)"/>
     </g>
    </g>
    <g id="line2d_32">
     <path d="M 603.301855 375.460312 
L 613.301855 375.460312 
L 623.301855 375.460312 
" style="fill: none; stroke: #d62728; stroke-width: 1.5; stroke-linecap: square"/>
    </g>
    <g id="text_19">
     <!-- 6 (Random) -->
     <g transform="translate(631.301855 378.960312) scale(0.1 -0.1)">
      <defs>
       <path id="DejaVuSans-52" d="M 2841 2188 
Q 3044 2119 3236 1894 
Q 3428 1669 3622 1275 
L 4263 0 
L 3584 0 
L 2988 1197 
Q 2756 1666 2539 1819 
Q 2322 1972 1947 1972 
L 1259 1972 
L 1259 0 
L 628 0 
L 628 4666 
L 2053 4666 
Q 2853 4666 3247 4331 
Q 3641 3997 3641 3322 
Q 3641 2881 3436 2590 
Q 3231 2300 2841 2188 
z
M 1259 4147 
L 1259 2491 
L 2053 2491 
Q 2509 2491 2742 2702 
Q 2975 2913 2975 3322 
Q 2975 3731 2742 3939 
Q 2509 4147 2053 4147 
L 1259 4147 
z
" transform="scale(0.015625)"/>
       <path id="DejaVuSans-64" d="M 2906 2969 
L 2906 4863 
L 3481 4863 
L 3481 0 
L 2906 0 
L 2906 525 
Q 2725 213 2448 61 
Q 2172 -91 1784 -91 
Q 1150 -91 751 415 
Q 353 922 353 1747 
Q 353 2572 751 3078 
Q 1150 3584 1784 3584 
Q 2172 3584 2448 3432 
Q 2725 3281 2906 2969 
z
M 947 1747 
Q 947 1113 1208 752 
Q 1469 391 1925 391 
Q 2381 391 2643 752 
Q 2906 1113 2906 1747 
Q 2906 2381 2643 2742 
Q 2381 3103 1925 3103 
Q 1469 3103 1208 2742 
Q 947 2381 947 1747 
z
" transform="scale(0.015625)"/>
       <path id="DejaVuSans-6f" d="M 1959 3097 
Q 1497 3097 1228 2736 
Q 959 2375 959 1747 
Q 959 1119 1226 758 
Q 1494 397 1959 397 
Q 2419 397 2687 759 
Q 2956 1122 2956 1747 
Q 2956 2369 2687 2733 
Q 2419 3097 1959 3097 
z
M 1959 3584 
Q 2709 3584 3137 3096 
Q 3566 2609 3566 1747 
Q 3566 888 3137 398 
Q 2709 -91 1959 -91 
Q 1206 -91 779 398 
Q 353 888 353 1747 
Q 353 2609 779 3096 
Q 1206 3584 1959 3584 
z
" transform="scale(0.015625)"/>
      </defs>
      <use xlink:href="#DejaVuSans-36"/>
      <use xlink:href="#DejaVuSans-20" transform="translate(63.623047 0)"/>
      <use xlink:href="#DejaVuSans-28" transform="translate(95.410156 0)"/>
      <use xlink:href="#DejaVuSans-52" transform="translate(134.423828 0)"/>
      <use xlink:href="#DejaVuSans-61" transform="translate(201.65625 0)"/>
      <use xlink:href="#DejaVuSans-6e" transform="translate(262.935547 0)"/>
      <use xlink:href="#DejaVuSans-64" transform="translate(326.314453 0)"/>
      <use xlink:href="#DejaVuSans-6f" transform="translate(389.791016 0)"/>
      <use xlink:href="#DejaVuSans-6d" transform="translate(450.972656 0)"/>
      <use xlink:href="#DejaVuSans-29" transform="translate(548.384766 0)"/>
     </g>
    </g>
   </g>
  </g>
 </g>
 <defs>
  <clipPath id="pa6f2c3755e">
   <rect x="38.27" y="10.8" width="662.238105" height="379.24"/>
  </clipPath>
 </defs>
</svg>
