<?xml version="1.0" encoding="utf-8" standalone="no"?>
<!DOCTYPE svg PUBLIC "-//W3C//DTD SVG 1.1//EN"
  "http://www.w3.org/Graphics/SVG/1.1/DTD/svg11.dtd">
<svg xmlns:xlink="http://www.w3.org/1999/xlink" width="720pt" height="432pt" viewBox="0 0 720 432" xmlns="http://www.w3.org/2000/svg" version="1.1">
 <metadata>
  <rdf:RDF xmlns:dc="http://purl.org/dc/elements/1.1/" xmlns:cc="http://creativecommons.org/ns#" xmlns:rdf="http://www.w3.org/1999/02/22-rdf-syntax-ns#">
   <cc:Work>
    <dc:type rdf:resource="http://purl.org/dc/dcmitype/StillImage"/>
    <dc:date>2025-04-16T01:13:16.615627</dc:date>
    <dc:format>image/svg+xml</dc:format>
    <dc:creator>
     <cc:Agent>
      <dc:title>Matplotlib v3.10.0, https://matplotlib.org/</dc:title>
     </cc:Agent>
    </dc:creator>
   </cc:Work>
  </rdf:RDF>
 </metadata>
 <defs>
  <style type="text/css">*{stroke-linejoin: round; stroke-linecap: butt}</style>
 </defs>
 <g id="figure_1">
  <g id="patch_1">
   <path d="M 0 432 
L 720 432 
L 720 0 
L 0 0 
z
" style="fill: #ffffff"/>
  </g>
  <g id="axes_1">
   <g id="patch_2">
    <path d="M 47.72 390.04 
L 698.611726 390.04 
L 698.611726 10.8 
L 47.72 10.8 
z
" style="fill: #ffffff"/>
   </g>
   <g id="FillBetweenPolyCollection_1">
    <defs>
     <path id="me23f97778e" d="M 77.33057 -382.066732 
L 77.33057 -180.035813 
L 83.513074 -188.674014 
L 89.714016 -180.803717 
L 95.662986 -193.293701 
L 101.771743 -209.272926 
L 107.524053 -204.322813 
L 113.227198 -220.320161 
L 119.065547 -212.612411 
L 124.682654 -216.328695 
L 130.189139 -214.758703 
L 135.523546 -227.044199 
L 140.796497 -187.750124 
L 145.866642 -182.314648 
L 151.00439 -172.087401 
L 156.129846 -162.278185 
L 161.224573 -154.719996 
L 166.184097 -153.242446 
L 171.155912 -146.420988 
L 176.109291 -149.585223 
L 180.853717 -151.359789 
L 185.118785 -156.729841 
L 189.101154 -162.523854 
L 192.929882 -164.849931 
L 196.869231 -165.803408 
L 200.605774 -167.743717 
L 204.323881 -167.517739 
L 208.115735 -167.703126 
L 211.827696 -167.095773 
L 215.533511 -168.670649 
L 219.325365 -167.033978 
L 223.049617 -169.597582 
L 226.767724 -167.60074 
L 230.479685 -167.888512 
L 234.197791 -168.866638 
L 237.903606 -168.073899 
L 241.615567 -168.578865 
L 245.315237 -168.619456 
L 249.002615 -168.928434 
L 252.702285 -168.619456 
L 256.4081 -168.856036 
L 260.120061 -168.804843 
L 263.807439 -168.866638 
L 267.507109 -169.052025 
L 271.200633 -169.361002 
L 274.900302 -169.422798 
L 278.587681 -168.866638 
L 282.281205 -168.630058 
L 285.968583 -169.299207 
L 289.655962 -168.146297 
L 293.386359 -167.692524 
L 297.122903 -168.199832 
L 300.853301 -169.226809 
L 304.546824 -169.052025 
L 308.258785 -169.3504 
L 311.952309 -169.175616 
L 315.633542 -168.815445 
L 319.339357 -169.782968 
L 323.026736 -168.815445 
L 326.707968 -169.052025 
L 330.419929 -169.165013 
L 334.107308 -169.721173 
L 337.794686 -167.939706 
L 341.463627 -163.997738 
L 345.175588 -167.568933 
L 348.856821 -168.444672 
L 352.544199 -169.165013 
L 356.231578 -169.659377 
L 359.918956 -169.535786 
L 363.618626 -169.041422 
L 367.31215 -169.422798 
L 370.993383 -169.535786 
L 374.686907 -168.691854 
L 378.374285 -169.782968 
L 382.067809 -169.165013 
L 385.755187 -169.782968 
L 389.43642 -169.299207 
L 393.123798 -167.743717 
L 396.805031 -168.79424 
L 400.492409 -168.455274 
L 404.192079 -166.810343 
L 407.891749 -164.500362 
L 411.597564 -167.311148 
L 415.284942 -167.651933 
L 418.978466 -165.60026 
L 422.665845 -168.257466 
L 426.353223 -167.867308 
L 430.040601 -167.085171 
L 433.666523 -160.327273 
L 436.94829 -129.459152 
L 439.855173 -115.423102 
L 442.534668 -105.526055 
L 445.072814 -99.899862 
L 447.561794 -98.242934 
L 450.075357 -91.195205 
L 452.558192 -75.867431 
L 455.02259 -68.768446 
L 457.499279 -68.682882 
L 459.957531 -66.304664 
L 462.415783 -66.96855 
L 464.880181 -59.198182 
L 467.338433 -65.395068 
L 469.796686 -65.094351 
L 472.261083 -67.792441 
L 474.719336 -67.393729 
L 477.177588 -67.813353 
L 479.63584 -67.826298 
L 482.094092 -67.540574 
L 484.552345 -67.973143 
L 487.010597 -68.034938 
L 489.474995 -67.911347 
L 491.939393 -68.024336 
L 494.397645 -67.787756 
L 496.862043 -68.034938 
L 499.326441 -67.973143 
L 501.784693 -70.506758 
L 504.249091 -76.809899 
L 506.707343 -79.096333 
L 509.165595 -79.837879 
L 511.636139 -78.849151 
L 514.100537 -80.146856 
L 516.6141 -80.023265 
L 519.232138 -79.96147 
L 521.819449 -80.208652 
L 524.314575 -80.085061 
L 526.803555 -80.270447 
L 529.267953 -80.394038 
L 531.738496 -80.332243 
L 534.196749 -80.394038 
L 536.655001 -80.394038 
L 539.119399 -80.394038 
L 541.577651 -80.146856 
L 544.035903 -80.394038 
L 546.494155 -80.394038 
L 548.958553 -80.394038 
L 551.435242 -80.394038 
L 553.89964 -80.394038 
L 556.364038 -80.394038 
L 558.82229 -80.394038 
L 561.286688 -80.394038 
L 563.751086 -79.899674 
L 566.215484 -80.332243 
L 568.679882 -80.023265 
L 571.150425 -80.394038 
L 573.614823 -80.394038 
L 576.103804 -80.394038 
L 578.562056 -80.394038 
L 581.026454 -80.146856 
L 583.484706 -80.394038 
L 585.942958 -80.394038 
L 588.530269 -80.394038 
L 591.111434 -80.394038 
L 593.993734 -80.394038 
L 596.746977 -80.332243 
L 599.334287 -80.332243 
L 601.897015 -80.394038 
L 604.398287 -80.394038 
L 606.997889 -80.394038 
L 609.634364 -80.332243 
L 612.147927 -80.394038 
L 614.636908 -80.394038 
L 617.119742 -80.394038 
L 619.596431 -80.394038 
L 622.060829 -80.394038 
L 624.519082 -80.394038 
L 627.008062 -80.394038 
L 629.484751 -80.394038 
L 631.949149 -80.394038 
L 634.431984 -80.394038 
L 636.890236 -80.394038 
L 639.348488 -80.394038 
L 641.84976 -80.332243 
L 644.320303 -80.394038 
L 646.778556 -80.394038 
L 649.279827 -80.394038 
L 651.744225 -80.208652 
L 654.208623 -80.394038 
L 656.666875 -80.394038 
L 659.143564 -80.394038 
L 661.607962 -80.394038 
L 664.066214 -80.394038 
L 666.549049 -80.394038 
L 669.025738 -80.270447 
L 669.025738 -81.11438 
L 669.025738 -81.11438 
L 666.549049 -80.394038 
L 664.066214 -80.394038 
L 661.607962 -80.394038 
L 659.143564 -80.394038 
L 656.666875 -80.394038 
L 654.208623 -80.394038 
L 651.744225 -81.47455 
L 649.279827 -80.394038 
L 646.778556 -80.394038 
L 644.320303 -80.394038 
L 641.84976 -80.754209 
L 639.348488 -80.394038 
L 636.890236 -80.394038 
L 634.431984 -80.394038 
L 631.949149 -80.394038 
L 629.484751 -80.394038 
L 627.008062 -80.394038 
L 624.519082 -80.394038 
L 622.060829 -80.394038 
L 619.596431 -80.394038 
L 617.119742 -80.394038 
L 614.636908 -80.394038 
L 612.147927 -80.394038 
L 609.634364 -80.754209 
L 606.997889 -80.394038 
L 604.398287 -80.394038 
L 601.897015 -80.394038 
L 599.334287 -80.754209 
L 596.746977 -80.754209 
L 593.993734 -80.394038 
L 591.111434 -80.394038 
L 588.530269 -80.394038 
L 585.942958 -80.394038 
L 583.484706 -80.394038 
L 581.026454 -81.834721 
L 578.562056 -80.394038 
L 576.103804 -80.394038 
L 573.614823 -80.394038 
L 571.150425 -80.394038 
L 568.679882 -82.555062 
L 566.215484 -80.754209 
L 563.751086 -83.275403 
L 561.286688 -80.394038 
L 558.82229 -80.394038 
L 556.364038 -80.394038 
L 553.89964 -80.394038 
L 551.435242 -80.394038 
L 548.958553 -80.394038 
L 546.494155 -80.394038 
L 544.035903 -80.394038 
L 541.577651 -81.834721 
L 539.119399 -80.394038 
L 536.655001 -80.394038 
L 534.196749 -80.394038 
L 531.738496 -80.754209 
L 529.267953 -80.394038 
L 526.803555 -81.11438 
L 524.314575 -82.194891 
L 521.819449 -81.47455 
L 519.232138 -82.915232 
L 516.6141 -82.555062 
L 514.100537 -81.834721 
L 511.636139 -89.398303 
L 509.165595 -83.635573 
L 506.707343 -87.95762 
L 504.249091 -101.283931 
L 501.784693 -138.021329 
L 499.326441 -152.788323 
L 496.862043 -152.428152 
L 494.397645 -153.868834 
L 491.939393 -154.52738 
L 489.474995 -153.148493 
L 487.010597 -152.428152 
L 484.552345 -152.788323 
L 482.094092 -155.309517 
L 479.63584 -155.023793 
L 477.177588 -154.738363 
L 474.719336 -157.544987 
L 472.261083 -158.638151 
L 469.796686 -170.585868 
L 467.338433 -173.268901 
L 464.880181 -203.932544 
L 462.415783 -160.953918 
L 459.957531 -162.512928 
L 457.499279 -154.76396 
L 455.02259 -157.065396 
L 452.558192 -160.111164 
L 450.075357 -174.322521 
L 447.561794 -184.878921 
L 445.072814 -184.117118 
L 442.534668 -183.563301 
L 439.855173 -180.528881 
L 436.94829 -180.218084 
L 433.666523 -181.276096 
L 430.040601 -182.275949 
L 426.353223 -181.792188 
L 422.665845 -187.667906 
L 418.978466 -203.15524 
L 415.284942 -176.935186 
L 411.597564 -185.033723 
L 407.891749 -195.303885 
L 404.192079 -180.163777 
L 400.492409 -172.252969 
L 396.805031 -176.389629 
L 393.123798 -182.512529 
L 389.43642 -171.409037 
L 385.755187 -170.6269 
L 382.067809 -174.228606 
L 378.374285 -170.6269 
L 374.686907 -172.911515 
L 370.993383 -172.067583 
L 367.31215 -170.688696 
L 363.618626 -174.948947 
L 359.918956 -172.067583 
L 356.231578 -171.347241 
L 352.544199 -174.228606 
L 348.856821 -174.352197 
L 345.175588 -181.493813 
L 341.463627 -202.669136 
L 337.794686 -179.332789 
L 334.107308 -170.987071 
L 330.419929 -174.228606 
L 326.707968 -172.849719 
L 323.026736 -172.191174 
L 319.339357 -170.6269 
L 315.633542 -172.191174 
L 311.952309 -172.129378 
L 308.258785 -173.148094 
L 304.546824 -172.849719 
L 300.853301 -173.868435 
L 297.122903 -178.177537 
L 293.386359 -180.773472 
L 289.655962 -174.053822 
L 285.968583 -171.409037 
L 282.281205 -173.271685 
L 278.587681 -173.930231 
L 274.900302 -170.688696 
L 271.200633 -171.048866 
L 267.507109 -172.849719 
L 263.807439 -173.930231 
L 260.120061 -174.290401 
L 256.4081 -176.029459 
L 252.702285 -175.370913 
L 249.002615 -173.57006 
L 245.315237 -175.370913 
L 241.615567 -171.532628 
L 237.903606 -176.51322 
L 234.197791 -173.930231 
L 230.479685 -177.593732 
L 226.767724 -175.196129 
L 223.049617 -171.707412 
L 219.325365 -180.536892 
L 215.533511 -177.10997 
L 211.827696 -180.176722 
L 208.115735 -178.674244 
L 204.323881 -179.754755 
L 200.605774 -182.512529 
L 196.869231 -185.944713 
L 192.929882 -197.341318 
L 189.101154 -199.965769 
L 185.118785 -221.872036 
L 180.853717 -265.732472 
L 176.109291 -311.666548 
L 171.155912 -315.725909 
L 166.184097 -323.823204 
L 161.224573 -323.539154 
L 156.129846 -337.762346 
L 151.00439 -341.976757 
L 145.866642 -347.861764 
L 140.796497 -354.659666 
L 135.523546 -364.597477 
L 130.189139 -369.721971 
L 124.682654 -380.086983 
L 119.065547 -396.931769 
L 113.227198 -389.82077 
L 107.524053 -395.97174 
L 101.771743 -393.110253 
L 95.662986 -397.751225 
L 89.714016 -383.685829 
L 83.513074 -383.871658 
L 77.33057 -382.066732 
z
" style="stroke: #0000ff; stroke-opacity: 0.2"/>
    </defs>
    <g clip-path="url(#pfcfc40f687)">
     <use xlink:href="#me23f97778e" x="0" y="432" style="fill: #0000ff; fill-opacity: 0.2; stroke: #0000ff; stroke-opacity: 0.2"/>
    </g>
   </g>
   <g id="FillBetweenPolyCollection_2">
    <defs>
     <path id="m00276e797c" d="M 77.305988 -388.081998 
L 77.305988 -185.657174 
L 83.451618 -178.742757 
L 89.769326 -195.751488 
L 95.822773 -184.623275 
L 102.029859 -173.468027 
L 108.5135 -178.267661 
L 114.536218 -190.746118 
L 120.69414 -187.93368 
L 126.931955 -172.353088 
L 133.12675 -184.355914 
L 139.26009 -187.466536 
L 145.374992 -184.047625 
L 151.631244 -186.571005 
L 157.973535 -191.437104 
L 164.051563 -178.2038 
L 170.031262 -194.233531 
L 176.367407 -172.070028 
L 182.758863 -174.995924 
L 189.06428 -191.140725 
L 195.480318 -184.305417 
L 201.589075 -167.873148 
L 207.753143 -176.386738 
L 214.304385 -177.777889 
L 220.382413 -177.841368 
L 226.466588 -172.222351 
L 232.772005 -182.425236 
L 239.071276 -178.372714 
L 245.223052 -175.38124 
L 251.559197 -173.353622 
L 257.680246 -182.315809 
L 263.942643 -183.973886 
L 270.082128 -194.421256 
L 276.897632 -176.812423 
L 282.754418 -180.823081 
L 289.078272 -185.57899 
L 295.150155 -184.556997 
L 301.38797 -189.966573 
L 307.638077 -185.554017 
L 313.925057 -174.033433 
L 319.874027 -189.472342 
L 326.48058 -190.119732 
L 332.638502 -173.164926 
L 338.691948 -176.097493 
L 345.040385 -184.405621 
L 351.444132 -186.187835 
L 357.804859 -179.984946 
L 363.968927 -181.563672 
L 370.255907 -182.546576 
L 376.370809 -171.048467 
L 382.41811 -171.055975 
L 388.883313 -173.522557 
L 394.942905 -173.084435 
L 401.039371 -186.394419 
L 407.553739 -191.861286 
L 414.074253 -178.333402 
L 420.391961 -181.055492 
L 426.752689 -191.91355 
L 432.726242 -170.040421 
L 438.902601 -186.607249 
L 445.158853 -189.027443 
L 451.476561 -172.459593 
L 457.855725 -175.532898 
L 464.241036 -192.17954 
L 470.411249 -184.030369 
L 476.323345 -178.335517 
L 482.438248 -185.483473 
L 488.725228 -192.949268 
L 495.067519 -172.848395 
L 501.17013 -179.519909 
L 507.721372 -182.974241 
L 513.768673 -181.624693 
L 520.332206 -174.770536 
L 526.391798 -184.300185 
L 532.531283 -177.316942 
L 538.818263 -200.518682 
L 545.369505 -193.198336 
L 551.65034 -183.159768 
L 558.023358 -199.316486 
L 564.427106 -192.163729 
L 570.898455 -177.24787 
L 577.154707 -190.22892 
L 583.533871 -191.279639 
L 589.740958 -179.611627 
L 596.083249 -183.017585 
L 602.376374 -184.118085 
L 608.442112 -200.494645 
L 614.575451 -177.743569 
L 620.764101 -175.639047 
L 626.989625 -174.581562 
L 633.202858 -174.725565 
L 639.21943 -167.07659 
L 645.64776 -186.659362 
L 651.621312 -168.258167 
L 657.834545 -190.830355 
L 664.330477 -179.109356 
L 664.330477 -390.750941 
L 664.330477 -390.750941 
L 657.834545 -385.892568 
L 651.621312 -387.280126 
L 645.64776 -393.644062 
L 639.21943 -388.461703 
L 633.202858 -390.95748 
L 626.989625 -389.907983 
L 620.764101 -385.568373 
L 614.575451 -382.568725 
L 608.442112 -389.356781 
L 602.376374 -382.75846 
L 596.083249 -383.560585 
L 589.740958 -383.684418 
L 583.533871 -386.338409 
L 577.154707 -398.429006 
L 570.898455 -389.628676 
L 564.427106 -386.946195 
L 558.023358 -403.961818 
L 551.65034 -394.756655 
L 545.369505 -395.161214 
L 538.818263 -396.79212 
L 532.531283 -390.156354 
L 526.391798 -391.825988 
L 520.332206 -382.259633 
L 513.768673 -393.30798 
L 507.721372 -391.063307 
L 501.17013 -393.920889 
L 495.067519 -386.270399 
L 488.725228 -390.934656 
L 482.438248 -386.465449 
L 476.323345 -378.097902 
L 470.411249 -380.757551 
L 464.241036 -386.333634 
L 457.855725 -392.238773 
L 451.476561 -390.538076 
L 445.158853 -394.856482 
L 438.902601 -399.962051 
L 432.726242 -380.127121 
L 426.752689 -391.07525 
L 420.391961 -386.716179 
L 414.074253 -390.930145 
L 407.553739 -396.498264 
L 401.039371 -390.925254 
L 394.942905 -381.857108 
L 388.883313 -393.055614 
L 382.41811 -386.869318 
L 376.370809 -392.844328 
L 370.255907 -382.241345 
L 363.968927 -390.683625 
L 357.804859 -386.8916 
L 351.444132 -395.607465 
L 345.040385 -384.261175 
L 338.691948 -389.883928 
L 332.638502 -379.687991 
L 326.48058 -393.465818 
L 319.874027 -387.548956 
L 313.925057 -381.803235 
L 307.638077 -393.257532 
L 301.38797 -398.392978 
L 295.150155 -392.762676 
L 289.078272 -396.514684 
L 282.754418 -389.037215 
L 276.897632 -391.854373 
L 270.082128 -398.413921 
L 263.942643 -390.063662 
L 257.680246 -392.915239 
L 251.559197 -386.660297 
L 245.223052 -384.334304 
L 239.071276 -394.769708 
L 232.772005 -392.507437 
L 226.466588 -386.001318 
L 220.382413 -384.559552 
L 214.304385 -379.550655 
L 207.753143 -393.175183 
L 201.589075 -383.487894 
L 195.480318 -396.594757 
L 189.06428 -401.694451 
L 182.758863 -389.493621 
L 176.367407 -389.435767 
L 170.031262 -399.795146 
L 164.051563 -382.705244 
L 157.973535 -396.922447 
L 151.631244 -392.538918 
L 145.374992 -384.917546 
L 139.26009 -395.820638 
L 133.12675 -391.173508 
L 126.931955 -385.870581 
L 120.69414 -396.845369 
L 114.536218 -383.88818 
L 108.5135 -388.90726 
L 102.029859 -391.021519 
L 95.822773 -387.325646 
L 89.769326 -393.204813 
L 83.451618 -384.851663 
L 77.305988 -388.081998 
z
" style="stroke: #ffa500; stroke-opacity: 0.2"/>
    </defs>
    <g clip-path="url(#pfcfc40f687)">
     <use xlink:href="#m00276e797c" x="0" y="432" style="fill: #ffa500; fill-opacity: 0.2; stroke: #ffa500; stroke-opacity: 0.2"/>
    </g>
   </g>
   <g id="matplotlib.axis_1">
    <g id="xtick_1">
     <g id="line2d_1">
      <path d="M 74.300774 390.04 
L 74.300774 10.8 
" clip-path="url(#pfcfc40f687)" style="fill: none; stroke: #b0b0b0; stroke-width: 0.8; stroke-linecap: square"/>
     </g>
     <g id="line2d_2">
      <defs>
       <path id="m9ea45c2ea0" d="M 0 0 
L 0 3.5 
" style="stroke: #000000; stroke-width: 0.8"/>
      </defs>
      <g>
       <use xlink:href="#m9ea45c2ea0" x="74.300774" y="390.04" style="stroke: #000000; stroke-width: 0.8"/>
      </g>
     </g>
     <g id="text_1">
      <!-- 0 -->
      <g transform="translate(71.119524 404.638438) scale(0.1 -0.1)">
       <defs>
        <path id="DejaVuSans-30" d="M 2034 4250 
Q 1547 4250 1301 3770 
Q 1056 3291 1056 2328 
Q 1056 1369 1301 889 
Q 1547 409 2034 409 
Q 2525 409 2770 889 
Q 3016 1369 3016 2328 
Q 3016 3291 2770 3770 
Q 2525 4250 2034 4250 
z
M 2034 4750 
Q 2819 4750 3233 4129 
Q 3647 3509 3647 2328 
Q 3647 1150 3233 529 
Q 2819 -91 2034 -91 
Q 1250 -91 836 529 
Q 422 1150 422 2328 
Q 422 3509 836 4129 
Q 1250 4750 2034 4750 
z
" transform="scale(0.015625)"/>
       </defs>
       <use xlink:href="#DejaVuSans-30"/>
      </g>
     </g>
    </g>
    <g id="xtick_2">
     <g id="line2d_3">
      <path d="M 197.213386 390.04 
L 197.213386 10.8 
" clip-path="url(#pfcfc40f687)" style="fill: none; stroke: #b0b0b0; stroke-width: 0.8; stroke-linecap: square"/>
     </g>
     <g id="line2d_4">
      <g>
       <use xlink:href="#m9ea45c2ea0" x="197.213386" y="390.04" style="stroke: #000000; stroke-width: 0.8"/>
      </g>
     </g>
     <g id="text_2">
      <!-- 20000 -->
      <g transform="translate(181.307136 404.638438) scale(0.1 -0.1)">
       <defs>
        <path id="DejaVuSans-32" d="M 1228 531 
L 3431 531 
L 3431 0 
L 469 0 
L 469 531 
Q 828 903 1448 1529 
Q 2069 2156 2228 2338 
Q 2531 2678 2651 2914 
Q 2772 3150 2772 3378 
Q 2772 3750 2511 3984 
Q 2250 4219 1831 4219 
Q 1534 4219 1204 4116 
Q 875 4013 500 3803 
L 500 4441 
Q 881 4594 1212 4672 
Q 1544 4750 1819 4750 
Q 2544 4750 2975 4387 
Q 3406 4025 3406 3419 
Q 3406 3131 3298 2873 
Q 3191 2616 2906 2266 
Q 2828 2175 2409 1742 
Q 1991 1309 1228 531 
z
" transform="scale(0.015625)"/>
       </defs>
       <use xlink:href="#DejaVuSans-32"/>
       <use xlink:href="#DejaVuSans-30" transform="translate(63.623047 0)"/>
       <use xlink:href="#DejaVuSans-30" transform="translate(127.246094 0)"/>
       <use xlink:href="#DejaVuSans-30" transform="translate(190.869141 0)"/>
       <use xlink:href="#DejaVuSans-30" transform="translate(254.492188 0)"/>
      </g>
     </g>
    </g>
    <g id="xtick_3">
     <g id="line2d_5">
      <path d="M 320.125998 390.04 
L 320.125998 10.8 
" clip-path="url(#pfcfc40f687)" style="fill: none; stroke: #b0b0b0; stroke-width: 0.8; stroke-linecap: square"/>
     </g>
     <g id="line2d_6">
      <g>
       <use xlink:href="#m9ea45c2ea0" x="320.125998" y="390.04" style="stroke: #000000; stroke-width: 0.8"/>
      </g>
     </g>
     <g id="text_3">
      <!-- 40000 -->
      <g transform="translate(304.219748 404.638438) scale(0.1 -0.1)">
       <defs>
        <path id="DejaVuSans-34" d="M 2419 4116 
L 825 1625 
L 2419 1625 
L 2419 4116 
z
M 2253 4666 
L 3047 4666 
L 3047 1625 
L 3713 1625 
L 3713 1100 
L 3047 1100 
L 3047 0 
L 2419 0 
L 2419 1100 
L 313 1100 
L 313 1709 
L 2253 4666 
z
" transform="scale(0.015625)"/>
       </defs>
       <use xlink:href="#DejaVuSans-34"/>
       <use xlink:href="#DejaVuSans-30" transform="translate(63.623047 0)"/>
       <use xlink:href="#DejaVuSans-30" transform="translate(127.246094 0)"/>
       <use xlink:href="#DejaVuSans-30" transform="translate(190.869141 0)"/>
       <use xlink:href="#DejaVuSans-30" transform="translate(254.492188 0)"/>
      </g>
     </g>
    </g>
    <g id="xtick_4">
     <g id="line2d_7">
      <path d="M 443.03861 390.04 
L 443.03861 10.8 
" clip-path="url(#pfcfc40f687)" style="fill: none; stroke: #b0b0b0; stroke-width: 0.8; stroke-linecap: square"/>
     </g>
     <g id="line2d_8">
      <g>
       <use xlink:href="#m9ea45c2ea0" x="443.03861" y="390.04" style="stroke: #000000; stroke-width: 0.8"/>
      </g>
     </g>
     <g id="text_4">
      <!-- 60000 -->
      <g transform="translate(427.13236 404.638438) scale(0.1 -0.1)">
       <defs>
        <path id="DejaVuSans-36" d="M 2113 2584 
Q 1688 2584 1439 2293 
Q 1191 2003 1191 1497 
Q 1191 994 1439 701 
Q 1688 409 2113 409 
Q 2538 409 2786 701 
Q 3034 994 3034 1497 
Q 3034 2003 2786 2293 
Q 2538 2584 2113 2584 
z
M 3366 4563 
L 3366 3988 
Q 3128 4100 2886 4159 
Q 2644 4219 2406 4219 
Q 1781 4219 1451 3797 
Q 1122 3375 1075 2522 
Q 1259 2794 1537 2939 
Q 1816 3084 2150 3084 
Q 2853 3084 3261 2657 
Q 3669 2231 3669 1497 
Q 3669 778 3244 343 
Q 2819 -91 2113 -91 
Q 1303 -91 875 529 
Q 447 1150 447 2328 
Q 447 3434 972 4092 
Q 1497 4750 2381 4750 
Q 2619 4750 2861 4703 
Q 3103 4656 3366 4563 
z
" transform="scale(0.015625)"/>
       </defs>
       <use xlink:href="#DejaVuSans-36"/>
       <use xlink:href="#DejaVuSans-30" transform="translate(63.623047 0)"/>
       <use xlink:href="#DejaVuSans-30" transform="translate(127.246094 0)"/>
       <use xlink:href="#DejaVuSans-30" transform="translate(190.869141 0)"/>
       <use xlink:href="#DejaVuSans-30" transform="translate(254.492188 0)"/>
      </g>
     </g>
    </g>
    <g id="xtick_5">
     <g id="line2d_9">
      <path d="M 565.951222 390.04 
L 565.951222 10.8 
" clip-path="url(#pfcfc40f687)" style="fill: none; stroke: #b0b0b0; stroke-width: 0.8; stroke-linecap: square"/>
     </g>
     <g id="line2d_10">
      <g>
       <use xlink:href="#m9ea45c2ea0" x="565.951222" y="390.04" style="stroke: #000000; stroke-width: 0.8"/>
      </g>
     </g>
     <g id="text_5">
      <!-- 80000 -->
      <g transform="translate(550.044972 404.638438) scale(0.1 -0.1)">
       <defs>
        <path id="DejaVuSans-38" d="M 2034 2216 
Q 1584 2216 1326 1975 
Q 1069 1734 1069 1313 
Q 1069 891 1326 650 
Q 1584 409 2034 409 
Q 2484 409 2743 651 
Q 3003 894 3003 1313 
Q 3003 1734 2745 1975 
Q 2488 2216 2034 2216 
z
M 1403 2484 
Q 997 2584 770 2862 
Q 544 3141 544 3541 
Q 544 4100 942 4425 
Q 1341 4750 2034 4750 
Q 2731 4750 3128 4425 
Q 3525 4100 3525 3541 
Q 3525 3141 3298 2862 
Q 3072 2584 2669 2484 
Q 3125 2378 3379 2068 
Q 3634 1759 3634 1313 
Q 3634 634 3220 271 
Q 2806 -91 2034 -91 
Q 1263 -91 848 271 
Q 434 634 434 1313 
Q 434 1759 690 2068 
Q 947 2378 1403 2484 
z
M 1172 3481 
Q 1172 3119 1398 2916 
Q 1625 2713 2034 2713 
Q 2441 2713 2670 2916 
Q 2900 3119 2900 3481 
Q 2900 3844 2670 4047 
Q 2441 4250 2034 4250 
Q 1625 4250 1398 4047 
Q 1172 3844 1172 3481 
z
" transform="scale(0.015625)"/>
       </defs>
       <use xlink:href="#DejaVuSans-38"/>
       <use xlink:href="#DejaVuSans-30" transform="translate(63.623047 0)"/>
       <use xlink:href="#DejaVuSans-30" transform="translate(127.246094 0)"/>
       <use xlink:href="#DejaVuSans-30" transform="translate(190.869141 0)"/>
       <use xlink:href="#DejaVuSans-30" transform="translate(254.492188 0)"/>
      </g>
     </g>
    </g>
    <g id="xtick_6">
     <g id="line2d_11">
      <path d="M 688.863834 390.04 
L 688.863834 10.8 
" clip-path="url(#pfcfc40f687)" style="fill: none; stroke: #b0b0b0; stroke-width: 0.8; stroke-linecap: square"/>
     </g>
     <g id="line2d_12">
      <g>
       <use xlink:href="#m9ea45c2ea0" x="688.863834" y="390.04" style="stroke: #000000; stroke-width: 0.8"/>
      </g>
     </g>
     <g id="text_6">
      <!-- 100000 -->
      <g transform="translate(669.776334 404.638438) scale(0.1 -0.1)">
       <defs>
        <path id="DejaVuSans-31" d="M 794 531 
L 1825 531 
L 1825 4091 
L 703 3866 
L 703 4441 
L 1819 4666 
L 2450 4666 
L 2450 531 
L 3481 531 
L 3481 0 
L 794 0 
L 794 531 
z
" transform="scale(0.015625)"/>
       </defs>
       <use xlink:href="#DejaVuSans-31"/>
       <use xlink:href="#DejaVuSans-30" transform="translate(63.623047 0)"/>
       <use xlink:href="#DejaVuSans-30" transform="translate(127.246094 0)"/>
       <use xlink:href="#DejaVuSans-30" transform="translate(190.869141 0)"/>
       <use xlink:href="#DejaVuSans-30" transform="translate(254.492188 0)"/>
       <use xlink:href="#DejaVuSans-30" transform="translate(318.115234 0)"/>
      </g>
     </g>
    </g>
    <g id="text_7">
     <!-- Steps -->
     <g transform="translate(359.176019 418.316562) scale(0.1 -0.1)">
      <defs>
       <path id="DejaVuSans-53" d="M 3425 4513 
L 3425 3897 
Q 3066 4069 2747 4153 
Q 2428 4238 2131 4238 
Q 1616 4238 1336 4038 
Q 1056 3838 1056 3469 
Q 1056 3159 1242 3001 
Q 1428 2844 1947 2747 
L 2328 2669 
Q 3034 2534 3370 2195 
Q 3706 1856 3706 1288 
Q 3706 609 3251 259 
Q 2797 -91 1919 -91 
Q 1588 -91 1214 -16 
Q 841 59 441 206 
L 441 856 
Q 825 641 1194 531 
Q 1563 422 1919 422 
Q 2459 422 2753 634 
Q 3047 847 3047 1241 
Q 3047 1584 2836 1778 
Q 2625 1972 2144 2069 
L 1759 2144 
Q 1053 2284 737 2584 
Q 422 2884 422 3419 
Q 422 4038 858 4394 
Q 1294 4750 2059 4750 
Q 2388 4750 2728 4690 
Q 3069 4631 3425 4513 
z
" transform="scale(0.015625)"/>
       <path id="DejaVuSans-74" d="M 1172 4494 
L 1172 3500 
L 2356 3500 
L 2356 3053 
L 1172 3053 
L 1172 1153 
Q 1172 725 1289 603 
Q 1406 481 1766 481 
L 2356 481 
L 2356 0 
L 1766 0 
Q 1100 0 847 248 
Q 594 497 594 1153 
L 594 3053 
L 172 3053 
L 172 3500 
L 594 3500 
L 594 4494 
L 1172 4494 
z
" transform="scale(0.015625)"/>
       <path id="DejaVuSans-65" d="M 3597 1894 
L 3597 1613 
L 953 1613 
Q 991 1019 1311 708 
Q 1631 397 2203 397 
Q 2534 397 2845 478 
Q 3156 559 3463 722 
L 3463 178 
Q 3153 47 2828 -22 
Q 2503 -91 2169 -91 
Q 1331 -91 842 396 
Q 353 884 353 1716 
Q 353 2575 817 3079 
Q 1281 3584 2069 3584 
Q 2775 3584 3186 3129 
Q 3597 2675 3597 1894 
z
M 3022 2063 
Q 3016 2534 2758 2815 
Q 2500 3097 2075 3097 
Q 1594 3097 1305 2825 
Q 1016 2553 972 2059 
L 3022 2063 
z
" transform="scale(0.015625)"/>
       <path id="DejaVuSans-70" d="M 1159 525 
L 1159 -1331 
L 581 -1331 
L 581 3500 
L 1159 3500 
L 1159 2969 
Q 1341 3281 1617 3432 
Q 1894 3584 2278 3584 
Q 2916 3584 3314 3078 
Q 3713 2572 3713 1747 
Q 3713 922 3314 415 
Q 2916 -91 2278 -91 
Q 1894 -91 1617 61 
Q 1341 213 1159 525 
z
M 3116 1747 
Q 3116 2381 2855 2742 
Q 2594 3103 2138 3103 
Q 1681 3103 1420 2742 
Q 1159 2381 1159 1747 
Q 1159 1113 1420 752 
Q 1681 391 2138 391 
Q 2594 391 2855 752 
Q 3116 1113 3116 1747 
z
" transform="scale(0.015625)"/>
       <path id="DejaVuSans-73" d="M 2834 3397 
L 2834 2853 
Q 2591 2978 2328 3040 
Q 2066 3103 1784 3103 
Q 1356 3103 1142 2972 
Q 928 2841 928 2578 
Q 928 2378 1081 2264 
Q 1234 2150 1697 2047 
L 1894 2003 
Q 2506 1872 2764 1633 
Q 3022 1394 3022 966 
Q 3022 478 2636 193 
Q 2250 -91 1575 -91 
Q 1294 -91 989 -36 
Q 684 19 347 128 
L 347 722 
Q 666 556 975 473 
Q 1284 391 1588 391 
Q 1994 391 2212 530 
Q 2431 669 2431 922 
Q 2431 1156 2273 1281 
Q 2116 1406 1581 1522 
L 1381 1569 
Q 847 1681 609 1914 
Q 372 2147 372 2553 
Q 372 3047 722 3315 
Q 1072 3584 1716 3584 
Q 2034 3584 2315 3537 
Q 2597 3491 2834 3397 
z
" transform="scale(0.015625)"/>
      </defs>
      <use xlink:href="#DejaVuSans-53"/>
      <use xlink:href="#DejaVuSans-74" transform="translate(63.476562 0)"/>
      <use xlink:href="#DejaVuSans-65" transform="translate(102.685547 0)"/>
      <use xlink:href="#DejaVuSans-70" transform="translate(164.208984 0)"/>
      <use xlink:href="#DejaVuSans-73" transform="translate(227.685547 0)"/>
     </g>
    </g>
   </g>
   <g id="matplotlib.axis_2">
    <g id="ytick_1">
     <g id="line2d_13">
      <path d="M 47.72 351.605962 
L 698.611726 351.605962 
" clip-path="url(#pfcfc40f687)" style="fill: none; stroke: #b0b0b0; stroke-width: 0.8; stroke-linecap: square"/>
     </g>
     <g id="line2d_14">
      <defs>
       <path id="m5f617e0f84" d="M 0 0 
L -3.5 0 
" style="stroke: #000000; stroke-width: 0.8"/>
      </defs>
      <g>
       <use xlink:href="#m5f617e0f84" x="47.72" y="351.605962" style="stroke: #000000; stroke-width: 0.8"/>
      </g>
     </g>
     <g id="text_8">
      <!-- 1.0 -->
      <g transform="translate(24.816875 355.40518) scale(0.1 -0.1)">
       <defs>
        <path id="DejaVuSans-2e" d="M 684 794 
L 1344 794 
L 1344 0 
L 684 0 
L 684 794 
z
" transform="scale(0.015625)"/>
       </defs>
       <use xlink:href="#DejaVuSans-31"/>
       <use xlink:href="#DejaVuSans-2e" transform="translate(63.623047 0)"/>
       <use xlink:href="#DejaVuSans-30" transform="translate(95.410156 0)"/>
      </g>
     </g>
    </g>
    <g id="ytick_2">
     <g id="line2d_15">
      <path d="M 47.72 306.849701 
L 698.611726 306.849701 
" clip-path="url(#pfcfc40f687)" style="fill: none; stroke: #b0b0b0; stroke-width: 0.8; stroke-linecap: square"/>
     </g>
     <g id="line2d_16">
      <g>
       <use xlink:href="#m5f617e0f84" x="47.72" y="306.849701" style="stroke: #000000; stroke-width: 0.8"/>
      </g>
     </g>
     <g id="text_9">
      <!-- 1.5 -->
      <g transform="translate(24.816875 310.64892) scale(0.1 -0.1)">
       <defs>
        <path id="DejaVuSans-35" d="M 691 4666 
L 3169 4666 
L 3169 4134 
L 1269 4134 
L 1269 2991 
Q 1406 3038 1543 3061 
Q 1681 3084 1819 3084 
Q 2600 3084 3056 2656 
Q 3513 2228 3513 1497 
Q 3513 744 3044 326 
Q 2575 -91 1722 -91 
Q 1428 -91 1123 -41 
Q 819 9 494 109 
L 494 744 
Q 775 591 1075 516 
Q 1375 441 1709 441 
Q 2250 441 2565 725 
Q 2881 1009 2881 1497 
Q 2881 1984 2565 2268 
Q 2250 2553 1709 2553 
Q 1456 2553 1204 2497 
Q 953 2441 691 2322 
L 691 4666 
z
" transform="scale(0.015625)"/>
       </defs>
       <use xlink:href="#DejaVuSans-31"/>
       <use xlink:href="#DejaVuSans-2e" transform="translate(63.623047 0)"/>
       <use xlink:href="#DejaVuSans-35" transform="translate(95.410156 0)"/>
      </g>
     </g>
    </g>
    <g id="ytick_3">
     <g id="line2d_17">
      <path d="M 47.72 262.093441 
L 698.611726 262.093441 
" clip-path="url(#pfcfc40f687)" style="fill: none; stroke: #b0b0b0; stroke-width: 0.8; stroke-linecap: square"/>
     </g>
     <g id="line2d_18">
      <g>
       <use xlink:href="#m5f617e0f84" x="47.72" y="262.093441" style="stroke: #000000; stroke-width: 0.8"/>
      </g>
     </g>
     <g id="text_10">
      <!-- 2.0 -->
      <g transform="translate(24.816875 265.89266) scale(0.1 -0.1)">
       <use xlink:href="#DejaVuSans-32"/>
       <use xlink:href="#DejaVuSans-2e" transform="translate(63.623047 0)"/>
       <use xlink:href="#DejaVuSans-30" transform="translate(95.410156 0)"/>
      </g>
     </g>
    </g>
    <g id="ytick_4">
     <g id="line2d_19">
      <path d="M 47.72 217.337181 
L 698.611726 217.337181 
" clip-path="url(#pfcfc40f687)" style="fill: none; stroke: #b0b0b0; stroke-width: 0.8; stroke-linecap: square"/>
     </g>
     <g id="line2d_20">
      <g>
       <use xlink:href="#m5f617e0f84" x="47.72" y="217.337181" style="stroke: #000000; stroke-width: 0.8"/>
      </g>
     </g>
     <g id="text_11">
      <!-- 2.5 -->
      <g transform="translate(24.816875 221.136399) scale(0.1 -0.1)">
       <use xlink:href="#DejaVuSans-32"/>
       <use xlink:href="#DejaVuSans-2e" transform="translate(63.623047 0)"/>
       <use xlink:href="#DejaVuSans-35" transform="translate(95.410156 0)"/>
      </g>
     </g>
    </g>
    <g id="ytick_5">
     <g id="line2d_21">
      <path d="M 47.72 172.58092 
L 698.611726 172.58092 
" clip-path="url(#pfcfc40f687)" style="fill: none; stroke: #b0b0b0; stroke-width: 0.8; stroke-linecap: square"/>
     </g>
     <g id="line2d_22">
      <g>
       <use xlink:href="#m5f617e0f84" x="47.72" y="172.58092" style="stroke: #000000; stroke-width: 0.8"/>
      </g>
     </g>
     <g id="text_12">
      <!-- 3.0 -->
      <g transform="translate(24.816875 176.380139) scale(0.1 -0.1)">
       <defs>
        <path id="DejaVuSans-33" d="M 2597 2516 
Q 3050 2419 3304 2112 
Q 3559 1806 3559 1356 
Q 3559 666 3084 287 
Q 2609 -91 1734 -91 
Q 1441 -91 1130 -33 
Q 819 25 488 141 
L 488 750 
Q 750 597 1062 519 
Q 1375 441 1716 441 
Q 2309 441 2620 675 
Q 2931 909 2931 1356 
Q 2931 1769 2642 2001 
Q 2353 2234 1838 2234 
L 1294 2234 
L 1294 2753 
L 1863 2753 
Q 2328 2753 2575 2939 
Q 2822 3125 2822 3475 
Q 2822 3834 2567 4026 
Q 2313 4219 1838 4219 
Q 1578 4219 1281 4162 
Q 984 4106 628 3988 
L 628 4550 
Q 988 4650 1302 4700 
Q 1616 4750 1894 4750 
Q 2613 4750 3031 4423 
Q 3450 4097 3450 3541 
Q 3450 3153 3228 2886 
Q 3006 2619 2597 2516 
z
" transform="scale(0.015625)"/>
       </defs>
       <use xlink:href="#DejaVuSans-33"/>
       <use xlink:href="#DejaVuSans-2e" transform="translate(63.623047 0)"/>
       <use xlink:href="#DejaVuSans-30" transform="translate(95.410156 0)"/>
      </g>
     </g>
    </g>
    <g id="ytick_6">
     <g id="line2d_23">
      <path d="M 47.72 127.82466 
L 698.611726 127.82466 
" clip-path="url(#pfcfc40f687)" style="fill: none; stroke: #b0b0b0; stroke-width: 0.8; stroke-linecap: square"/>
     </g>
     <g id="line2d_24">
      <g>
       <use xlink:href="#m5f617e0f84" x="47.72" y="127.82466" style="stroke: #000000; stroke-width: 0.8"/>
      </g>
     </g>
     <g id="text_13">
      <!-- 3.5 -->
      <g transform="translate(24.816875 131.623879) scale(0.1 -0.1)">
       <use xlink:href="#DejaVuSans-33"/>
       <use xlink:href="#DejaVuSans-2e" transform="translate(63.623047 0)"/>
       <use xlink:href="#DejaVuSans-35" transform="translate(95.410156 0)"/>
      </g>
     </g>
    </g>
    <g id="ytick_7">
     <g id="line2d_25">
      <path d="M 47.72 83.068399 
L 698.611726 83.068399 
" clip-path="url(#pfcfc40f687)" style="fill: none; stroke: #b0b0b0; stroke-width: 0.8; stroke-linecap: square"/>
     </g>
     <g id="line2d_26">
      <g>
       <use xlink:href="#m5f617e0f84" x="47.72" y="83.068399" style="stroke: #000000; stroke-width: 0.8"/>
      </g>
     </g>
     <g id="text_14">
      <!-- 4.0 -->
      <g transform="translate(24.816875 86.867618) scale(0.1 -0.1)">
       <use xlink:href="#DejaVuSans-34"/>
       <use xlink:href="#DejaVuSans-2e" transform="translate(63.623047 0)"/>
       <use xlink:href="#DejaVuSans-30" transform="translate(95.410156 0)"/>
      </g>
     </g>
    </g>
    <g id="ytick_8">
     <g id="line2d_27">
      <path d="M 47.72 38.312139 
L 698.611726 38.312139 
" clip-path="url(#pfcfc40f687)" style="fill: none; stroke: #b0b0b0; stroke-width: 0.8; stroke-linecap: square"/>
     </g>
     <g id="line2d_28">
      <g>
       <use xlink:href="#m5f617e0f84" x="47.72" y="38.312139" style="stroke: #000000; stroke-width: 0.8"/>
      </g>
     </g>
     <g id="text_15">
      <!-- 4.5 -->
      <g transform="translate(24.816875 42.111358) scale(0.1 -0.1)">
       <use xlink:href="#DejaVuSans-34"/>
       <use xlink:href="#DejaVuSans-2e" transform="translate(63.623047 0)"/>
       <use xlink:href="#DejaVuSans-35" transform="translate(95.410156 0)"/>
      </g>
     </g>
    </g>
    <g id="text_16">
     <!-- Circuit Depth -->
     <g transform="translate(18.737188 233.329375) rotate(-90) scale(0.1 -0.1)">
      <defs>
       <path id="DejaVuSans-43" d="M 4122 4306 
L 4122 3641 
Q 3803 3938 3442 4084 
Q 3081 4231 2675 4231 
Q 1875 4231 1450 3742 
Q 1025 3253 1025 2328 
Q 1025 1406 1450 917 
Q 1875 428 2675 428 
Q 3081 428 3442 575 
Q 3803 722 4122 1019 
L 4122 359 
Q 3791 134 3420 21 
Q 3050 -91 2638 -91 
Q 1578 -91 968 557 
Q 359 1206 359 2328 
Q 359 3453 968 4101 
Q 1578 4750 2638 4750 
Q 3056 4750 3426 4639 
Q 3797 4528 4122 4306 
z
" transform="scale(0.015625)"/>
       <path id="DejaVuSans-69" d="M 603 3500 
L 1178 3500 
L 1178 0 
L 603 0 
L 603 3500 
z
M 603 4863 
L 1178 4863 
L 1178 4134 
L 603 4134 
L 603 4863 
z
" transform="scale(0.015625)"/>
       <path id="DejaVuSans-72" d="M 2631 2963 
Q 2534 3019 2420 3045 
Q 2306 3072 2169 3072 
Q 1681 3072 1420 2755 
Q 1159 2438 1159 1844 
L 1159 0 
L 581 0 
L 581 3500 
L 1159 3500 
L 1159 2956 
Q 1341 3275 1631 3429 
Q 1922 3584 2338 3584 
Q 2397 3584 2469 3576 
Q 2541 3569 2628 3553 
L 2631 2963 
z
" transform="scale(0.015625)"/>
       <path id="DejaVuSans-63" d="M 3122 3366 
L 3122 2828 
Q 2878 2963 2633 3030 
Q 2388 3097 2138 3097 
Q 1578 3097 1268 2742 
Q 959 2388 959 1747 
Q 959 1106 1268 751 
Q 1578 397 2138 397 
Q 2388 397 2633 464 
Q 2878 531 3122 666 
L 3122 134 
Q 2881 22 2623 -34 
Q 2366 -91 2075 -91 
Q 1284 -91 818 406 
Q 353 903 353 1747 
Q 353 2603 823 3093 
Q 1294 3584 2113 3584 
Q 2378 3584 2631 3529 
Q 2884 3475 3122 3366 
z
" transform="scale(0.015625)"/>
       <path id="DejaVuSans-75" d="M 544 1381 
L 544 3500 
L 1119 3500 
L 1119 1403 
Q 1119 906 1312 657 
Q 1506 409 1894 409 
Q 2359 409 2629 706 
Q 2900 1003 2900 1516 
L 2900 3500 
L 3475 3500 
L 3475 0 
L 2900 0 
L 2900 538 
Q 2691 219 2414 64 
Q 2138 -91 1772 -91 
Q 1169 -91 856 284 
Q 544 659 544 1381 
z
M 1991 3584 
L 1991 3584 
z
" transform="scale(0.015625)"/>
       <path id="DejaVuSans-20" transform="scale(0.015625)"/>
       <path id="DejaVuSans-44" d="M 1259 4147 
L 1259 519 
L 2022 519 
Q 2988 519 3436 956 
Q 3884 1394 3884 2338 
Q 3884 3275 3436 3711 
Q 2988 4147 2022 4147 
L 1259 4147 
z
M 628 4666 
L 1925 4666 
Q 3281 4666 3915 4102 
Q 4550 3538 4550 2338 
Q 4550 1131 3912 565 
Q 3275 0 1925 0 
L 628 0 
L 628 4666 
z
" transform="scale(0.015625)"/>
       <path id="DejaVuSans-68" d="M 3513 2113 
L 3513 0 
L 2938 0 
L 2938 2094 
Q 2938 2591 2744 2837 
Q 2550 3084 2163 3084 
Q 1697 3084 1428 2787 
Q 1159 2491 1159 1978 
L 1159 0 
L 581 0 
L 581 4863 
L 1159 4863 
L 1159 2956 
Q 1366 3272 1645 3428 
Q 1925 3584 2291 3584 
Q 2894 3584 3203 3211 
Q 3513 2838 3513 2113 
z
" transform="scale(0.015625)"/>
      </defs>
      <use xlink:href="#DejaVuSans-43"/>
      <use xlink:href="#DejaVuSans-69" transform="translate(69.824219 0)"/>
      <use xlink:href="#DejaVuSans-72" transform="translate(97.607422 0)"/>
      <use xlink:href="#DejaVuSans-63" transform="translate(136.470703 0)"/>
      <use xlink:href="#DejaVuSans-75" transform="translate(191.451172 0)"/>
      <use xlink:href="#DejaVuSans-69" transform="translate(254.830078 0)"/>
      <use xlink:href="#DejaVuSans-74" transform="translate(282.613281 0)"/>
      <use xlink:href="#DejaVuSans-20" transform="translate(321.822266 0)"/>
      <use xlink:href="#DejaVuSans-44" transform="translate(353.609375 0)"/>
      <use xlink:href="#DejaVuSans-65" transform="translate(430.611328 0)"/>
      <use xlink:href="#DejaVuSans-70" transform="translate(492.134766 0)"/>
      <use xlink:href="#DejaVuSans-74" transform="translate(555.611328 0)"/>
      <use xlink:href="#DejaVuSans-68" transform="translate(594.820312 0)"/>
     </g>
    </g>
   </g>
   <g id="line2d_29">
    <path d="M 77.33057 150.948728 
L 83.513074 145.727164 
L 89.714016 149.755227 
L 95.662986 136.477537 
L 101.771743 130.808411 
L 107.524053 131.852723 
L 113.227198 126.929535 
L 119.065547 127.22791 
L 124.682654 133.792161 
L 130.189139 139.759663 
L 135.523546 136.179162 
L 140.796497 160.795105 
L 145.866642 166.911794 
L 151.00439 174.967921 
L 156.129846 181.979735 
L 161.224573 192.870425 
L 166.184097 193.467175 
L 171.155912 200.926552 
L 176.109291 201.374114 
L 180.853717 223.453869 
L 185.118785 242.699061 
L 189.101154 250.755188 
L 192.929882 250.904376 
L 196.869231 256.12594 
L 200.605774 256.871877 
L 204.323881 258.363753 
L 208.115735 258.811315 
L 211.827696 258.363753 
L 215.533511 259.10969 
L 219.325365 258.214565 
L 223.049617 261.347503 
L 226.767724 260.601566 
L 230.479685 259.258878 
L 234.197791 260.601566 
L 237.903606 259.70644 
L 241.615567 261.944253 
L 245.315237 260.004815 
L 249.002615 260.750753 
L 252.702285 260.004815 
L 256.4081 259.557253 
L 260.120061 260.452378 
L 263.807439 260.601566 
L 267.507109 261.049128 
L 271.200633 261.795066 
L 274.900302 261.944253 
L 278.587681 260.601566 
L 282.281205 261.049128 
L 285.968583 261.645878 
L 289.655962 260.899941 
L 293.386359 257.767002 
L 297.122903 258.811315 
L 300.853301 260.452378 
L 304.546824 261.049128 
L 308.258785 260.750753 
L 311.952309 261.347503 
L 315.633542 261.496691 
L 319.339357 261.795066 
L 323.026736 261.496691 
L 326.707968 261.049128 
L 330.419929 260.30319 
L 334.107308 261.645878 
L 337.794686 258.363753 
L 341.463627 248.666563 
L 345.175588 257.468627 
L 348.856821 260.601566 
L 352.544199 260.30319 
L 356.231578 261.496691 
L 359.918956 261.198316 
L 363.618626 260.004815 
L 367.31215 261.944253 
L 370.993383 261.198316 
L 374.686907 261.198316 
L 378.374285 261.795066 
L 382.067809 260.30319 
L 385.755187 261.795066 
L 389.43642 261.645878 
L 393.123798 256.871877 
L 396.805031 259.408065 
L 400.492409 261.645878 
L 404.192079 258.51294 
L 407.891749 252.097876 
L 411.597564 255.827564 
L 415.284942 259.70644 
L 418.978466 247.62225 
L 422.665845 254.037314 
L 426.353223 257.170252 
L 430.040601 257.31944 
L 433.666523 261.198316 
L 436.94829 277.161382 
L 439.855173 284.024008 
L 442.534668 287.455322 
L 445.072814 289.99151 
L 447.561794 290.439072 
L 450.075357 299.241137 
L 452.558192 314.010703 
L 455.02259 319.083079 
L 457.499279 320.276579 
L 459.957531 317.591204 
L 462.415783 318.038766 
L 464.880181 300.434637 
L 467.338433 312.668015 
L 469.796686 314.15989 
L 472.261083 318.784704 
L 474.719336 319.530642 
L 477.177588 320.724142 
L 479.63584 320.574954 
L 482.094092 320.574954 
L 484.552345 321.619267 
L 487.010597 321.768455 
L 489.474995 321.47008 
L 491.939393 320.724142 
L 494.397645 321.171705 
L 496.862043 321.768455 
L 499.326441 321.619267 
L 501.784693 327.735956 
L 504.249091 342.953085 
L 506.707343 348.473023 
L 509.165595 350.263274 
L 511.636139 347.876273 
L 514.100537 351.009211 
L 516.6141 350.710836 
L 519.232138 350.561649 
L 521.819449 351.158399 
L 524.314575 350.860024 
L 526.803555 351.307587 
L 529.267953 351.605962 
L 531.738496 351.456774 
L 534.196749 351.605962 
L 539.119399 351.605962 
L 541.577651 351.009211 
L 544.035903 351.605962 
L 561.286688 351.605962 
L 563.751086 350.412461 
L 566.215484 351.456774 
L 568.679882 350.710836 
L 571.150425 351.605962 
L 578.562056 351.605962 
L 581.026454 351.009211 
L 583.484706 351.605962 
L 593.993734 351.605962 
L 596.746977 351.456774 
L 599.334287 351.456774 
L 601.897015 351.605962 
L 606.997889 351.605962 
L 609.634364 351.456774 
L 612.147927 351.605962 
L 639.348488 351.605962 
L 641.84976 351.456774 
L 644.320303 351.605962 
L 649.279827 351.605962 
L 651.744225 351.158399 
L 654.208623 351.605962 
L 666.549049 351.605962 
L 669.025738 351.307587 
L 669.025738 351.307587 
" clip-path="url(#pfcfc40f687)" style="fill: none; stroke: #0000ff; stroke-width: 1.5; stroke-linecap: square"/>
   </g>
   <g id="line2d_30">
    <path d="M 77.305988 145.130414 
L 83.451618 150.20279 
L 89.769326 137.52185 
L 95.822773 146.025539 
L 102.029859 149.755227 
L 108.5135 148.41254 
L 114.536218 144.682851 
L 120.69414 139.610475 
L 126.931955 152.888166 
L 133.12675 144.235289 
L 139.26009 140.356413 
L 145.374992 147.517414 
L 151.631244 142.445038 
L 157.973535 137.820225 
L 164.051563 151.545478 
L 170.031262 134.985661 
L 176.367407 151.247103 
L 182.758863 149.755227 
L 189.06428 135.582412 
L 195.480318 141.549913 
L 201.589075 156.319479 
L 207.753143 147.219039 
L 214.304385 153.335728 
L 220.382413 150.79954 
L 226.466588 152.888166 
L 232.772005 144.533664 
L 239.071276 145.428789 
L 245.223052 152.142228 
L 251.559197 151.99304 
L 257.680246 144.384476 
L 263.942643 144.981226 
L 270.082128 135.582412 
L 276.897632 147.666602 
L 282.754418 147.069852 
L 289.078272 140.953163 
L 295.150155 143.340163 
L 301.38797 137.820225 
L 307.638077 142.594226 
L 313.925057 154.081666 
L 319.874027 143.489351 
L 326.48058 140.207225 
L 332.638502 155.573541 
L 338.691948 149.00929 
L 345.040385 147.666602 
L 351.444132 141.10235 
L 357.804859 148.561727 
L 363.968927 145.876352 
L 370.255907 149.60604 
L 376.370809 150.053602 
L 382.41811 153.037353 
L 388.883313 148.710915 
L 394.942905 154.529229 
L 401.039371 143.340163 
L 407.553739 137.820225 
L 414.074253 147.368227 
L 420.391961 148.114165 
L 426.752689 140.5056 
L 432.726242 156.916229 
L 438.902601 138.71535 
L 445.158853 140.058038 
L 451.476561 150.501165 
L 457.855725 148.114165 
L 464.241036 142.743413 
L 470.411249 149.60604 
L 476.323345 153.783291 
L 482.438248 146.025539 
L 488.725228 140.058038 
L 495.067519 152.440603 
L 501.17013 145.279601 
L 507.721372 144.981226 
L 513.768673 144.533664 
L 520.332206 153.484916 
L 526.391798 143.936914 
L 532.531283 148.263352 
L 538.818263 133.344599 
L 545.369505 137.820225 
L 551.65034 143.041788 
L 558.023358 130.360848 
L 564.427106 142.445038 
L 570.898455 148.561727 
L 577.154707 137.671037 
L 583.533871 143.190976 
L 589.740958 150.351978 
L 596.083249 148.710915 
L 602.376374 148.561727 
L 608.442112 137.074287 
L 614.575451 151.843853 
L 620.764101 151.39629 
L 626.989625 149.755227 
L 633.202858 149.158477 
L 639.21943 154.230853 
L 645.64776 141.848288 
L 651.621312 154.230853 
L 657.834545 143.638538 
L 664.330477 147.069852 
" clip-path="url(#pfcfc40f687)" style="fill: none; stroke: #ffa500; stroke-width: 1.5; stroke-linecap: square"/>
   </g>
   <g id="patch_3">
    <path d="M 47.72 390.04 
L 47.72 10.8 
" style="fill: none; stroke: #000000; stroke-width: 0.8; stroke-linejoin: miter; stroke-linecap: square"/>
   </g>
   <g id="patch_4">
    <path d="M 698.611726 390.04 
L 698.611726 10.8 
" style="fill: none; stroke: #000000; stroke-width: 0.8; stroke-linejoin: miter; stroke-linecap: square"/>
   </g>
   <g id="patch_5">
    <path d="M 47.72 390.04 
L 698.611726 390.04 
" style="fill: none; stroke: #000000; stroke-width: 0.8; stroke-linejoin: miter; stroke-linecap: square"/>
   </g>
   <g id="patch_6">
    <path d="M 47.72 10.8 
L 698.611726 10.8 
" style="fill: none; stroke: #000000; stroke-width: 0.8; stroke-linejoin: miter; stroke-linecap: square"/>
   </g>
   <g id="legend_1">
    <g id="patch_7">
     <path d="M 618.214851 385.04 
L 691.611726 385.04 
Q 693.611726 385.04 693.611726 383.04 
L 693.611726 340.005625 
Q 693.611726 338.005625 691.611726 338.005625 
L 618.214851 338.005625 
Q 616.214851 338.005625 616.214851 340.005625 
L 616.214851 383.04 
Q 616.214851 385.04 618.214851 385.04 
z
" style="fill: #ffffff; opacity: 0.8; stroke: #cccccc; stroke-linejoin: miter"/>
    </g>
    <g id="text_17">
     <!-- Agent -->
     <g transform="translate(640.113288 349.604062) scale(0.1 -0.1)">
      <defs>
       <path id="DejaVuSans-41" d="M 2188 4044 
L 1331 1722 
L 3047 1722 
L 2188 4044 
z
M 1831 4666 
L 2547 4666 
L 4325 0 
L 3669 0 
L 3244 1197 
L 1141 1197 
L 716 0 
L 50 0 
L 1831 4666 
z
" transform="scale(0.015625)"/>
       <path id="DejaVuSans-67" d="M 2906 1791 
Q 2906 2416 2648 2759 
Q 2391 3103 1925 3103 
Q 1463 3103 1205 2759 
Q 947 2416 947 1791 
Q 947 1169 1205 825 
Q 1463 481 1925 481 
Q 2391 481 2648 825 
Q 2906 1169 2906 1791 
z
M 3481 434 
Q 3481 -459 3084 -895 
Q 2688 -1331 1869 -1331 
Q 1566 -1331 1297 -1286 
Q 1028 -1241 775 -1147 
L 775 -588 
Q 1028 -725 1275 -790 
Q 1522 -856 1778 -856 
Q 2344 -856 2625 -561 
Q 2906 -266 2906 331 
L 2906 616 
Q 2728 306 2450 153 
Q 2172 0 1784 0 
Q 1141 0 747 490 
Q 353 981 353 1791 
Q 353 2603 747 3093 
Q 1141 3584 1784 3584 
Q 2172 3584 2450 3431 
Q 2728 3278 2906 2969 
L 2906 3500 
L 3481 3500 
L 3481 434 
z
" transform="scale(0.015625)"/>
       <path id="DejaVuSans-6e" d="M 3513 2113 
L 3513 0 
L 2938 0 
L 2938 2094 
Q 2938 2591 2744 2837 
Q 2550 3084 2163 3084 
Q 1697 3084 1428 2787 
Q 1159 2491 1159 1978 
L 1159 0 
L 581 0 
L 581 3500 
L 1159 3500 
L 1159 2956 
Q 1366 3272 1645 3428 
Q 1925 3584 2291 3584 
Q 2894 3584 3203 3211 
Q 3513 2838 3513 2113 
z
" transform="scale(0.015625)"/>
      </defs>
      <use xlink:href="#DejaVuSans-41"/>
      <use xlink:href="#DejaVuSans-67" transform="translate(68.408203 0)"/>
      <use xlink:href="#DejaVuSans-65" transform="translate(131.884766 0)"/>
      <use xlink:href="#DejaVuSans-6e" transform="translate(193.408203 0)"/>
      <use xlink:href="#DejaVuSans-74" transform="translate(256.787109 0)"/>
     </g>
    </g>
    <g id="line2d_31">
     <path d="M 620.214851 360.782187 
L 630.214851 360.782187 
L 640.214851 360.782187 
" style="fill: none; stroke: #0000ff; stroke-width: 1.5; stroke-linecap: square"/>
    </g>
    <g id="text_18">
     <!-- PPO -->
     <g transform="translate(648.214851 364.282187) scale(0.1 -0.1)">
      <defs>
       <path id="DejaVuSans-50" d="M 1259 4147 
L 1259 2394 
L 2053 2394 
Q 2494 2394 2734 2622 
Q 2975 2850 2975 3272 
Q 2975 3691 2734 3919 
Q 2494 4147 2053 4147 
L 1259 4147 
z
M 628 4666 
L 2053 4666 
Q 2838 4666 3239 4311 
Q 3641 3956 3641 3272 
Q 3641 2581 3239 2228 
Q 2838 1875 2053 1875 
L 1259 1875 
L 1259 0 
L 628 0 
L 628 4666 
z
" transform="scale(0.015625)"/>
       <path id="DejaVuSans-4f" d="M 2522 4238 
Q 1834 4238 1429 3725 
Q 1025 3213 1025 2328 
Q 1025 1447 1429 934 
Q 1834 422 2522 422 
Q 3209 422 3611 934 
Q 4013 1447 4013 2328 
Q 4013 3213 3611 3725 
Q 3209 4238 2522 4238 
z
M 2522 4750 
Q 3503 4750 4090 4092 
Q 4678 3434 4678 2328 
Q 4678 1225 4090 567 
Q 3503 -91 2522 -91 
Q 1538 -91 948 565 
Q 359 1222 359 2328 
Q 359 3434 948 4092 
Q 1538 4750 2522 4750 
z
" transform="scale(0.015625)"/>
      </defs>
      <use xlink:href="#DejaVuSans-50"/>
      <use xlink:href="#DejaVuSans-50" transform="translate(60.302734 0)"/>
      <use xlink:href="#DejaVuSans-4f" transform="translate(120.605469 0)"/>
     </g>
    </g>
    <g id="line2d_32">
     <path d="M 620.214851 375.460312 
L 630.214851 375.460312 
L 640.214851 375.460312 
" style="fill: none; stroke: #ffa500; stroke-width: 1.5; stroke-linecap: square"/>
    </g>
    <g id="text_19">
     <!-- Random -->
     <g transform="translate(648.214851 378.960312) scale(0.1 -0.1)">
      <defs>
       <path id="DejaVuSans-52" d="M 2841 2188 
Q 3044 2119 3236 1894 
Q 3428 1669 3622 1275 
L 4263 0 
L 3584 0 
L 2988 1197 
Q 2756 1666 2539 1819 
Q 2322 1972 1947 1972 
L 1259 1972 
L 1259 0 
L 628 0 
L 628 4666 
L 2053 4666 
Q 2853 4666 3247 4331 
Q 3641 3997 3641 3322 
Q 3641 2881 3436 2590 
Q 3231 2300 2841 2188 
z
M 1259 4147 
L 1259 2491 
L 2053 2491 
Q 2509 2491 2742 2702 
Q 2975 2913 2975 3322 
Q 2975 3731 2742 3939 
Q 2509 4147 2053 4147 
L 1259 4147 
z
" transform="scale(0.015625)"/>
       <path id="DejaVuSans-61" d="M 2194 1759 
Q 1497 1759 1228 1600 
Q 959 1441 959 1056 
Q 959 750 1161 570 
Q 1363 391 1709 391 
Q 2188 391 2477 730 
Q 2766 1069 2766 1631 
L 2766 1759 
L 2194 1759 
z
M 3341 1997 
L 3341 0 
L 2766 0 
L 2766 531 
Q 2569 213 2275 61 
Q 1981 -91 1556 -91 
Q 1019 -91 701 211 
Q 384 513 384 1019 
Q 384 1609 779 1909 
Q 1175 2209 1959 2209 
L 2766 2209 
L 2766 2266 
Q 2766 2663 2505 2880 
Q 2244 3097 1772 3097 
Q 1472 3097 1187 3025 
Q 903 2953 641 2809 
L 641 3341 
Q 956 3463 1253 3523 
Q 1550 3584 1831 3584 
Q 2591 3584 2966 3190 
Q 3341 2797 3341 1997 
z
" transform="scale(0.015625)"/>
       <path id="DejaVuSans-64" d="M 2906 2969 
L 2906 4863 
L 3481 4863 
L 3481 0 
L 2906 0 
L 2906 525 
Q 2725 213 2448 61 
Q 2172 -91 1784 -91 
Q 1150 -91 751 415 
Q 353 922 353 1747 
Q 353 2572 751 3078 
Q 1150 3584 1784 3584 
Q 2172 3584 2448 3432 
Q 2725 3281 2906 2969 
z
M 947 1747 
Q 947 1113 1208 752 
Q 1469 391 1925 391 
Q 2381 391 2643 752 
Q 2906 1113 2906 1747 
Q 2906 2381 2643 2742 
Q 2381 3103 1925 3103 
Q 1469 3103 1208 2742 
Q 947 2381 947 1747 
z
" transform="scale(0.015625)"/>
       <path id="DejaVuSans-6f" d="M 1959 3097 
Q 1497 3097 1228 2736 
Q 959 2375 959 1747 
Q 959 1119 1226 758 
Q 1494 397 1959 397 
Q 2419 397 2687 759 
Q 2956 1122 2956 1747 
Q 2956 2369 2687 2733 
Q 2419 3097 1959 3097 
z
M 1959 3584 
Q 2709 3584 3137 3096 
Q 3566 2609 3566 1747 
Q 3566 888 3137 398 
Q 2709 -91 1959 -91 
Q 1206 -91 779 398 
Q 353 888 353 1747 
Q 353 2609 779 3096 
Q 1206 3584 1959 3584 
z
" transform="scale(0.015625)"/>
       <path id="DejaVuSans-6d" d="M 3328 2828 
Q 3544 3216 3844 3400 
Q 4144 3584 4550 3584 
Q 5097 3584 5394 3201 
Q 5691 2819 5691 2113 
L 5691 0 
L 5113 0 
L 5113 2094 
Q 5113 2597 4934 2840 
Q 4756 3084 4391 3084 
Q 3944 3084 3684 2787 
Q 3425 2491 3425 1978 
L 3425 0 
L 2847 0 
L 2847 2094 
Q 2847 2600 2669 2842 
Q 2491 3084 2119 3084 
Q 1678 3084 1418 2786 
Q 1159 2488 1159 1978 
L 1159 0 
L 581 0 
L 581 3500 
L 1159 3500 
L 1159 2956 
Q 1356 3278 1631 3431 
Q 1906 3584 2284 3584 
Q 2666 3584 2933 3390 
Q 3200 3197 3328 2828 
z
" transform="scale(0.015625)"/>
      </defs>
      <use xlink:href="#DejaVuSans-52"/>
      <use xlink:href="#DejaVuSans-61" transform="translate(67.232422 0)"/>
      <use xlink:href="#DejaVuSans-6e" transform="translate(128.511719 0)"/>
      <use xlink:href="#DejaVuSans-64" transform="translate(191.890625 0)"/>
      <use xlink:href="#DejaVuSans-6f" transform="translate(255.367188 0)"/>
      <use xlink:href="#DejaVuSans-6d" transform="translate(316.548828 0)"/>
     </g>
    </g>
   </g>
  </g>
 </g>
 <defs>
  <clipPath id="pfcfc40f687">
   <rect x="47.72" y="10.8" width="650.891726" height="379.24"/>
  </clipPath>
 </defs>
</svg>
