<?xml version="1.0" encoding="utf-8" standalone="no"?>
<!DOCTYPE svg PUBLIC "-//W3C//DTD SVG 1.1//EN"
  "http://www.w3.org/Graphics/SVG/1.1/DTD/svg11.dtd">
<svg xmlns:xlink="http://www.w3.org/1999/xlink" width="720pt" height="432pt" viewBox="0 0 720 432" xmlns="http://www.w3.org/2000/svg" version="1.1">
 <metadata>
  <rdf:RDF xmlns:dc="http://purl.org/dc/elements/1.1/" xmlns:cc="http://creativecommons.org/ns#" xmlns:rdf="http://www.w3.org/1999/02/22-rdf-syntax-ns#">
   <cc:Work>
    <dc:type rdf:resource="http://purl.org/dc/dcmitype/StillImage"/>
    <dc:date>2025-04-16T01:13:05.762454</dc:date>
    <dc:format>image/svg+xml</dc:format>
    <dc:creator>
     <cc:Agent>
      <dc:title>Matplotlib v3.10.0, https://matplotlib.org/</dc:title>
     </cc:Agent>
    </dc:creator>
   </cc:Work>
  </rdf:RDF>
 </metadata>
 <defs>
  <style type="text/css">*{stroke-linejoin: round; stroke-linecap: butt}</style>
 </defs>
 <g id="figure_1">
  <g id="patch_1">
   <path d="M 0 432 
L 720 432 
L 720 0 
L 0 0 
z
" style="fill: #ffffff"/>
  </g>
  <g id="axes_1">
   <g id="patch_2">
    <path d="M 50.87 390.04 
L 698.611726 390.04 
L 698.611726 10.8 
L 50.87 10.8 
z
" style="fill: #ffffff"/>
   </g>
   <g id="FillBetweenPolyCollection_1">
    <defs>
     <path id="m72eaa30c21" d="M 80.337269 -105.714465 
L 80.337269 -64.087907 
L 86.489853 -62.123655 
L 92.660785 -60.920122 
L 98.580965 -60.496657 
L 104.660159 -60.761526 
L 110.384631 -65.266301 
L 116.060175 -73.815792 
L 121.87027 -116.534515 
L 127.460192 -176.69347 
L 132.940028 -240.388267 
L 138.24862 -305.120982 
L 143.496052 -317.095943 
L 148.54166 -315.915047 
L 153.654543 -318.45232 
L 158.755195 -338.660149 
L 163.825266 -341.919376 
L 168.760789 -356.671857 
L 173.708542 -353.749999 
L 178.637949 -362.575633 
L 183.359415 -342.616625 
L 187.603842 -343.841995 
L 191.566938 -355.59282 
L 195.377136 -360.220571 
L 199.297421 -356.751307 
L 203.015881 -363.808236 
L 206.715994 -363.811635 
L 210.489497 -361.429123 
L 214.183494 -361.468737 
L 217.871375 -366.157396 
L 221.644878 -360.301895 
L 225.351107 -366.159149 
L 229.05122 -360.303375 
L 232.745216 -363.810895 
L 236.445329 -364.988742 
L 240.13321 -363.815686 
L 243.827207 -362.648415 
L 247.508972 -363.815647 
L 251.178505 -363.80515 
L 254.86027 -363.785381 
L 258.548151 -363.814673 
L 262.242148 -364.986911 
L 265.911681 -363.818374 
L 269.593446 -364.989229 
L 273.269095 -364.990514 
L 276.95086 -364.990573 
L 280.620393 -364.988002 
L 284.296042 -363.816543 
L 287.965576 -362.64787 
L 291.635109 -362.647032 
L 295.347453 -364.984301 
L 299.065914 -362.614589 
L 302.778258 -366.159597 
L 306.453907 -364.988956 
L 310.147904 -366.158253 
L 313.823553 -364.989677 
L 317.486971 -362.644539 
L 321.174852 -366.161798 
L 324.844385 -363.818822 
L 328.507802 -364.989229 
L 332.201799 -366.159188 
L 335.871332 -366.161389 
L 339.540865 -363.814011 
L 343.192051 -363.800352 
L 346.886048 -363.801176 
L 350.549465 -362.635717 
L 354.218998 -366.159188 
L 357.888532 -366.16098 
L 361.558065 -366.160532 
L 365.23983 -366.15874 
L 368.915479 -364.989833 
L 372.578896 -364.97877 
L 376.254545 -363.818374 
L 379.924079 -366.161427 
L 383.599728 -366.159188 
L 387.269261 -366.161427 
L 390.932678 -363.819718 
L 394.602212 -363.801458 
L 398.265629 -366.158233 
L 401.935162 -362.647967 
L 405.616927 -361.472578 
L 409.298692 -362.632191 
L 412.986573 -363.788945 
L 416.656106 -362.64524 
L 420.331755 -363.788621 
L 424.001289 -366.15083 
L 427.670822 -364.983668 
L 431.340355 -362.641559 
L 434.94873 -340.397191 
L 438.214614 -236.195536 
L 441.107429 -189.362687 
L 443.773957 -158.15043 
L 446.299819 -139.216707 
L 448.776754 -134.650433 
L 451.278152 -110.284308 
L 453.748971 -60.129679 
L 456.201443 -59.198182 
L 458.666146 -59.198182 
L 461.112501 -59.198182 
L 463.558857 -59.198182 
L 466.011328 -59.198182 
L 468.457684 -59.198182 
L 470.904039 -59.198182 
L 473.356511 -59.198182 
L 475.802866 -59.198182 
L 478.249222 -59.198182 
L 480.695577 -59.198182 
L 483.141933 -59.198182 
L 485.588288 -59.198182 
L 488.034644 -59.198182 
L 490.487115 -59.198182 
L 492.939586 -59.198182 
L 495.385942 -59.198182 
L 497.838413 -59.198182 
L 500.290885 -59.198182 
L 502.73724 -59.198182 
L 505.189712 -63.520063 
L 507.636067 -70.952879 
L 510.082423 -73.363522 
L 512.54101 -70.149332 
L 514.993481 -74.367957 
L 517.49488 -74.367957 
L 520.100248 -73.765296 
L 522.675037 -74.568844 
L 525.158088 -74.16707 
L 527.635023 -74.970073 
L 530.087495 -75.171505 
L 532.546082 -74.970618 
L 534.992437 -75.171505 
L 537.438793 -75.171505 
L 539.891264 -75.171505 
L 542.33762 -74.970731 
L 544.783975 -75.171505 
L 547.230331 -75.171505 
L 549.682802 -75.171505 
L 552.147505 -75.171505 
L 554.599977 -75.171505 
L 557.052448 -75.171505 
L 559.498803 -75.171505 
L 561.951275 -75.171505 
L 564.403746 -74.744256 
L 566.856218 -74.970618 
L 569.308689 -74.768796 
L 571.767276 -75.171505 
L 574.219748 -75.171505 
L 576.696683 -75.171505 
L 579.143038 -75.171505 
L 581.595509 -74.367957 
L 584.041865 -75.171505 
L 586.48822 -75.171505 
L 589.06301 -75.171505 
L 591.631683 -75.171505 
L 594.500035 -75.171505 
L 597.239953 -74.970618 
L 599.814742 -74.970618 
L 602.365068 -75.171505 
L 604.854234 -75.171505 
L 607.441255 -75.171505 
L 610.064971 -74.970618 
L 612.56637 -75.171505 
L 615.043305 -75.171505 
L 617.514124 -75.171505 
L 619.978827 -75.171505 
L 622.431298 -75.171505 
L 624.877654 -75.171505 
L 627.354589 -75.171505 
L 629.819292 -75.171505 
L 632.271763 -75.171505 
L 634.742582 -75.171505 
L 637.188938 -75.171505 
L 639.635293 -75.171505 
L 642.12446 -75.170959 
L 644.583047 -75.171505 
L 647.029403 -75.171505 
L 649.51857 -75.171505 
L 651.971041 -75.14603 
L 654.423512 -75.171505 
L 656.869868 -75.171505 
L 659.334571 -75.171505 
L 661.787042 -75.171505 
L 664.233398 -75.171505 
L 666.704217 -75.171505 
L 669.16892 -74.769731 
L 669.16892 -77.513214 
L 669.16892 -77.513214 
L 666.704217 -75.171505 
L 664.233398 -75.171505 
L 661.787042 -75.171505 
L 659.334571 -75.171505 
L 656.869868 -75.171505 
L 654.423512 -75.171505 
L 651.971041 -75.175876 
L 649.51857 -75.171505 
L 647.029403 -75.171505 
L 644.583047 -75.171505 
L 642.12446 -75.171598 
L 639.635293 -75.171505 
L 637.188938 -75.171505 
L 634.742582 -75.171505 
L 632.271763 -75.171505 
L 629.819292 -75.171505 
L 627.354589 -75.171505 
L 624.877654 -75.171505 
L 622.431298 -75.171505 
L 619.978827 -75.171505 
L 617.514124 -75.171505 
L 615.043305 -75.171505 
L 612.56637 -75.171505 
L 610.064971 -76.34236 
L 607.441255 -75.171505 
L 604.854234 -75.171505 
L 602.365068 -75.171505 
L 599.814742 -76.34236 
L 597.239953 -76.34236 
L 594.500035 -75.171505 
L 591.631683 -75.171505 
L 589.06301 -75.171505 
L 586.48822 -75.171505 
L 584.041865 -75.171505 
L 581.595509 -79.854924 
L 579.143038 -75.171505 
L 576.696683 -75.171505 
L 574.219748 -75.171505 
L 571.767276 -75.171505 
L 569.308689 -77.513375 
L 566.856218 -76.34236 
L 564.403746 -77.517585 
L 561.951275 -75.171505 
L 559.498803 -75.171505 
L 557.052448 -75.171505 
L 554.599977 -75.171505 
L 552.147505 -75.171505 
L 549.682802 -75.171505 
L 547.230331 -75.171505 
L 544.783975 -75.171505 
L 542.33762 -76.341697 
L 539.891264 -75.171505 
L 537.438793 -75.171505 
L 534.992437 -75.171505 
L 532.546082 -76.34236 
L 530.087495 -75.171505 
L 527.635023 -76.342453 
L 525.158088 -81.025779 
L 522.675037 -78.684069 
L 520.100248 -83.367489 
L 517.49488 -79.854924 
L 514.993481 -79.854924 
L 512.54101 -104.442876 
L 510.082423 -85.709198 
L 507.636067 -99.759456 
L 505.189712 -143.081085 
L 502.73724 -262.508278 
L 500.290885 -308.171168 
L 497.838413 -305.829459 
L 495.385942 -309.341575 
L 492.939586 -310.311504 
L 490.487115 -309.342023 
L 488.034644 -309.342471 
L 485.588288 -308.171168 
L 483.141933 -309.340679 
L 480.695577 -308.17234 
L 478.249222 -309.826111 
L 475.802866 -309.339531 
L 473.356511 -311.279334 
L 470.904039 -309.816256 
L 468.457684 -310.585996 
L 466.011328 -305.802859 
L 463.558857 -309.822528 
L 461.112501 -309.3362 
L 458.666146 -312.251479 
L 456.201443 -311.564853 
L 453.748971 -331.734822 
L 451.278152 -380.517435 
L 448.776754 -400.767446 
L 446.299819 -403.961818 
L 443.773957 -399.577243 
L 441.107429 -396.495168 
L 438.214614 -388.459922 
L 434.94873 -370.58207 
L 431.340355 -366.765866 
L 427.670822 -366.363807 
L 424.001289 -366.162901 
L 420.331755 -366.567975 
L 416.656106 -366.765235 
L 412.986573 -366.569006 
L 409.298692 -366.767473 
L 405.616927 -366.966106 
L 401.935162 -366.764767 
L 398.265629 -366.1625 
L 394.602212 -366.566642 
L 390.932678 -366.563726 
L 387.269261 -366.161952 
L 383.599728 -366.162337 
L 379.924079 -366.161952 
L 376.254545 -366.563957 
L 372.578896 -366.364864 
L 368.915479 -366.362966 
L 365.23983 -366.162413 
L 361.558065 -366.162106 
L 357.888532 -366.162029 
L 354.218998 -366.162337 
L 350.549465 -366.766869 
L 346.886048 -366.566907 
L 343.192051 -366.566505 
L 339.540865 -366.564705 
L 335.871332 -366.161959 
L 332.201799 -366.162337 
L 328.507802 -366.36307 
L 324.844385 -366.56388 
L 321.174852 -366.161889 
L 317.486971 -366.765355 
L 313.823553 -366.362993 
L 310.147904 -366.162497 
L 306.453907 -366.363117 
L 302.778258 -366.162266 
L 299.065914 -366.770168 
L 295.347453 -366.363915 
L 291.635109 -366.764927 
L 287.965576 -366.764784 
L 284.296042 -366.564271 
L 280.620393 -366.36328 
L 276.95086 -366.362839 
L 273.269095 -366.362849 
L 269.593446 -366.36307 
L 265.911681 -366.563957 
L 262.242148 -366.363467 
L 258.548151 -366.564592 
L 254.86027 -366.569617 
L 251.178505 -366.566226 
L 247.508972 -366.564425 
L 243.827207 -366.76469 
L 240.13321 -366.564418 
L 236.445329 -366.363153 
L 232.745216 -366.56524 
L 229.05122 -367.167035 
L 225.351107 -366.162343 
L 221.644878 -367.167289 
L 217.871375 -366.162644 
L 214.183494 -366.967091 
L 210.489497 -366.973887 
L 206.715994 -366.565113 
L 203.015881 -366.565479 
L 199.297421 -367.776156 
L 195.377136 -367.181025 
L 191.566938 -367.975211 
L 187.603842 -369.991038 
L 183.359415 -370.198633 
L 178.637949 -366.774676 
L 173.708542 -367.712199 
L 168.760789 -367.784677 
L 163.825266 -369.730572 
L 158.755195 -369.149376 
L 153.654543 -373.746849 
L 148.54166 -372.470272 
L 143.496052 -372.251116 
L 138.24862 -373.128023 
L 132.940028 -371.690733 
L 127.460192 -360.796294 
L 121.87027 -326.026504 
L 116.060175 -268.790549 
L 110.384631 -227.50805 
L 104.660159 -198.534354 
L 98.580965 -179.677769 
L 92.660785 -135.069657 
L 86.489853 -135.126629 
L 80.337269 -105.714465 
z
" style="stroke: #0000ff; stroke-opacity: 0.2"/>
    </defs>
    <g clip-path="url(#pa5921d1f3d)">
     <use xlink:href="#m72eaa30c21" x="0" y="432" style="fill: #0000ff; fill-opacity: 0.2; stroke: #0000ff; stroke-opacity: 0.2"/>
    </g>
   </g>
   <g id="FillBetweenPolyCollection_2">
    <defs>
     <path id="m55af548b20" d="M 80.312806 -107.633922 
L 80.312806 -63.134643 
L 86.428694 -64.589218 
L 92.715828 -62.992212 
L 98.739978 -61.948045 
L 104.917026 -63.117404 
L 111.369289 -60.870794 
L 117.36286 -62.844234 
L 123.49098 -62.908246 
L 129.698607 -62.751578 
L 135.863423 -63.021824 
L 141.96708 -59.198182 
L 148.052389 -63.66695 
L 154.278364 -61.863703 
L 160.589961 -62.981734 
L 166.638575 -62.831349 
L 172.589335 -61.154473 
L 178.894816 -65.180953 
L 185.25534 -61.087106 
L 191.530242 -59.565329 
L 197.91523 -60.260356 
L 203.994423 -61.726485 
L 210.12866 -62.060672 
L 216.648197 -62.197037 
L 222.696811 -62.118164 
L 228.751541 -62.684209 
L 235.026443 -64.500121 
L 241.295229 -60.476539 
L 247.417233 -62.928503 
L 253.722715 -60.839879 
L 259.81414 -63.371158 
L 266.046231 -62.800971 
L 272.156003 -62.420142 
L 278.938524 -62.651132 
L 284.766966 -61.779774 
L 291.060215 -62.795613 
L 297.102713 -62.130594 
L 303.310341 -61.477064 
L 309.530199 -61.016292 
L 315.786754 -63.259441 
L 321.706934 -61.862382 
L 328.281514 -59.763823 
L 334.409635 -62.204794 
L 340.433785 -62.579534 
L 346.751498 -62.757431 
L 353.124254 -64.452167 
L 359.454199 -62.540617 
L 365.588435 -61.612493 
L 371.84499 -64.792394 
L 377.930299 -61.689386 
L 383.948333 -61.657289 
L 390.382248 -62.756359 
L 396.412515 -62.820609 
L 402.479476 -60.42059 
L 408.962318 -61.674612 
L 415.451276 -60.789874 
L 421.73841 -61.436645 
L 428.068355 -60.228977 
L 434.012999 -61.85975 
L 440.159467 -61.423704 
L 446.385441 -63.212826 
L 452.672575 -63.031831 
L 459.020868 -62.912701 
L 465.375276 -62.486852 
L 471.515628 -61.407542 
L 477.399113 -60.374447 
L 483.484422 -61.367392 
L 489.740977 -62.632638 
L 496.052574 -61.420912 
L 502.125651 -60.706543 
L 508.645189 -62.586206 
L 514.663223 -63.041402 
L 521.194992 -62.868301 
L 527.225259 -61.202923 
L 533.335031 -59.619803 
L 539.591586 -61.875432 
L 546.111123 -60.635711 
L 552.361561 -61.68845 
L 558.703738 -61.433439 
L 565.076494 -62.899415 
L 571.516525 -62.070704 
L 577.7425 -63.295165 
L 584.090792 -62.405504 
L 590.26784 -63.688656 
L 596.579437 -62.462091 
L 602.842107 -59.198182 
L 608.878489 -60.620869 
L 614.982146 -61.858131 
L 621.140846 -64.382527 
L 627.336241 -61.128701 
L 633.519405 -62.727346 
L 639.50686 -64.13753 
L 645.904079 -61.307499 
L 651.848723 -62.203633 
L 658.031887 -63.465341 
L 664.496381 -60.215117 
L 664.496381 -128.364832 
L 664.496381 -128.364832 
L 658.031887 -120.397637 
L 651.848723 -117.547199 
L 645.904079 -122.511964 
L 639.50686 -112.686134 
L 633.519405 -123.743027 
L 627.336241 -131.680112 
L 621.140846 -118.357768 
L 614.982146 -121.425725 
L 608.878489 -130.047147 
L 602.842107 -133.540881 
L 596.579437 -124.735358 
L 590.26784 -121.934195 
L 584.090792 -120.87156 
L 577.7425 -124.367672 
L 571.516525 -113.596459 
L 565.076494 -122.685697 
L 558.703738 -126.374046 
L 552.361561 -117.335853 
L 546.111123 -128.346911 
L 539.591586 -120.090851 
L 533.335031 -125.08513 
L 527.225259 -123.747274 
L 521.194992 -121.203234 
L 514.663223 -119.846768 
L 508.645189 -125.1706 
L 502.125651 -127.206576 
L 496.052574 -118.130253 
L 489.740977 -133.033673 
L 483.484422 -122.328915 
L 477.399113 -124.212123 
L 471.515628 -126.447169 
L 465.375276 -120.856622 
L 459.020868 -118.640696 
L 452.672575 -126.85046 
L 446.385441 -123.053443 
L 440.159467 -118.404912 
L 434.012999 -123.84655 
L 428.068355 -123.8524 
L 421.73841 -122.921942 
L 415.451276 -119.243314 
L 408.962318 -126.78694 
L 402.479476 -127.019234 
L 396.412515 -127.825028 
L 390.382248 -111.310632 
L 383.948333 -113.129212 
L 377.930299 -124.00649 
L 371.84499 -121.594676 
L 365.588435 -123.553295 
L 359.454199 -121.003991 
L 353.124254 -114.731547 
L 346.751498 -115.089978 
L 340.433785 -114.398054 
L 334.409635 -115.134679 
L 328.281514 -126.209134 
L 321.706934 -125.420726 
L 315.786754 -109.194292 
L 309.530199 -125.932845 
L 303.310341 -125.489223 
L 297.102713 -113.548848 
L 291.060215 -120.848546 
L 284.766966 -117.151449 
L 278.938524 -116.950857 
L 272.156003 -119.449414 
L 266.046231 -114.370912 
L 259.81414 -116.50425 
L 253.722715 -120.485954 
L 247.417233 -114.826421 
L 241.295229 -124.146608 
L 235.026443 -110.323667 
L 228.751541 -119.610786 
L 222.696811 -130.158786 
L 216.648197 -117.678048 
L 210.12866 -114.720219 
L 203.994423 -118.958238 
L 197.91523 -133.879261 
L 191.530242 -130.213587 
L 185.25534 -124.969557 
L 178.894816 -118.212732 
L 172.589335 -124.867598 
L 166.638575 -120.846645 
L 160.589961 -114.4651 
L 154.278364 -131.109005 
L 148.052389 -119.283774 
L 141.96708 -134.768882 
L 135.863423 -107.801953 
L 129.698607 -114.257408 
L 123.49098 -110.157912 
L 117.36286 -106.289615 
L 111.369289 -118.579174 
L 104.917026 -114.601831 
L 98.739978 -120.119532 
L 92.715828 -119.691241 
L 86.428694 -102.449867 
L 80.312806 -107.633922 
z
" style="stroke: #ffa500; stroke-opacity: 0.2"/>
    </defs>
    <g clip-path="url(#pa5921d1f3d)">
     <use xlink:href="#m55af548b20" x="0" y="432" style="fill: #ffa500; fill-opacity: 0.2; stroke: #ffa500; stroke-opacity: 0.2"/>
    </g>
   </g>
   <g id="matplotlib.axis_1">
    <g id="xtick_1">
     <g id="line2d_1">
      <path d="M 77.322136 390.04 
L 77.322136 10.8 
" clip-path="url(#pa5921d1f3d)" style="fill: none; stroke: #b0b0b0; stroke-width: 0.8; stroke-linecap: square"/>
     </g>
     <g id="line2d_2">
      <defs>
       <path id="m7204a989b7" d="M 0 0 
L 0 3.5 
" style="stroke: #000000; stroke-width: 0.8"/>
      </defs>
      <g>
       <use xlink:href="#m7204a989b7" x="77.322136" y="390.04" style="stroke: #000000; stroke-width: 0.8"/>
      </g>
     </g>
     <g id="text_1">
      <!-- 0 -->
      <g transform="translate(74.140886 404.638438) scale(0.1 -0.1)">
       <defs>
        <path id="DejaVuSans-30" d="M 2034 4250 
Q 1547 4250 1301 3770 
Q 1056 3291 1056 2328 
Q 1056 1369 1301 889 
Q 1547 409 2034 409 
Q 2525 409 2770 889 
Q 3016 1369 3016 2328 
Q 3016 3291 2770 3770 
Q 2525 4250 2034 4250 
z
M 2034 4750 
Q 2819 4750 3233 4129 
Q 3647 3509 3647 2328 
Q 3647 1150 3233 529 
Q 2819 -91 2034 -91 
Q 1250 -91 836 529 
Q 422 1150 422 2328 
Q 422 3509 836 4129 
Q 1250 4750 2034 4750 
z
" transform="scale(0.015625)"/>
       </defs>
       <use xlink:href="#DejaVuSans-30"/>
      </g>
     </g>
    </g>
    <g id="xtick_2">
     <g id="line2d_3">
      <path d="M 199.639911 390.04 
L 199.639911 10.8 
" clip-path="url(#pa5921d1f3d)" style="fill: none; stroke: #b0b0b0; stroke-width: 0.8; stroke-linecap: square"/>
     </g>
     <g id="line2d_4">
      <g>
       <use xlink:href="#m7204a989b7" x="199.639911" y="390.04" style="stroke: #000000; stroke-width: 0.8"/>
      </g>
     </g>
     <g id="text_2">
      <!-- 20000 -->
      <g transform="translate(183.733661 404.638438) scale(0.1 -0.1)">
       <defs>
        <path id="DejaVuSans-32" d="M 1228 531 
L 3431 531 
L 3431 0 
L 469 0 
L 469 531 
Q 828 903 1448 1529 
Q 2069 2156 2228 2338 
Q 2531 2678 2651 2914 
Q 2772 3150 2772 3378 
Q 2772 3750 2511 3984 
Q 2250 4219 1831 4219 
Q 1534 4219 1204 4116 
Q 875 4013 500 3803 
L 500 4441 
Q 881 4594 1212 4672 
Q 1544 4750 1819 4750 
Q 2544 4750 2975 4387 
Q 3406 4025 3406 3419 
Q 3406 3131 3298 2873 
Q 3191 2616 2906 2266 
Q 2828 2175 2409 1742 
Q 1991 1309 1228 531 
z
" transform="scale(0.015625)"/>
       </defs>
       <use xlink:href="#DejaVuSans-32"/>
       <use xlink:href="#DejaVuSans-30" transform="translate(63.623047 0)"/>
       <use xlink:href="#DejaVuSans-30" transform="translate(127.246094 0)"/>
       <use xlink:href="#DejaVuSans-30" transform="translate(190.869141 0)"/>
       <use xlink:href="#DejaVuSans-30" transform="translate(254.492188 0)"/>
      </g>
     </g>
    </g>
    <g id="xtick_3">
     <g id="line2d_5">
      <path d="M 321.957685 390.04 
L 321.957685 10.8 
" clip-path="url(#pa5921d1f3d)" style="fill: none; stroke: #b0b0b0; stroke-width: 0.8; stroke-linecap: square"/>
     </g>
     <g id="line2d_6">
      <g>
       <use xlink:href="#m7204a989b7" x="321.957685" y="390.04" style="stroke: #000000; stroke-width: 0.8"/>
      </g>
     </g>
     <g id="text_3">
      <!-- 40000 -->
      <g transform="translate(306.051435 404.638438) scale(0.1 -0.1)">
       <defs>
        <path id="DejaVuSans-34" d="M 2419 4116 
L 825 1625 
L 2419 1625 
L 2419 4116 
z
M 2253 4666 
L 3047 4666 
L 3047 1625 
L 3713 1625 
L 3713 1100 
L 3047 1100 
L 3047 0 
L 2419 0 
L 2419 1100 
L 313 1100 
L 313 1709 
L 2253 4666 
z
" transform="scale(0.015625)"/>
       </defs>
       <use xlink:href="#DejaVuSans-34"/>
       <use xlink:href="#DejaVuSans-30" transform="translate(63.623047 0)"/>
       <use xlink:href="#DejaVuSans-30" transform="translate(127.246094 0)"/>
       <use xlink:href="#DejaVuSans-30" transform="translate(190.869141 0)"/>
       <use xlink:href="#DejaVuSans-30" transform="translate(254.492188 0)"/>
      </g>
     </g>
    </g>
    <g id="xtick_4">
     <g id="line2d_7">
      <path d="M 444.27546 390.04 
L 444.27546 10.8 
" clip-path="url(#pa5921d1f3d)" style="fill: none; stroke: #b0b0b0; stroke-width: 0.8; stroke-linecap: square"/>
     </g>
     <g id="line2d_8">
      <g>
       <use xlink:href="#m7204a989b7" x="444.27546" y="390.04" style="stroke: #000000; stroke-width: 0.8"/>
      </g>
     </g>
     <g id="text_4">
      <!-- 60000 -->
      <g transform="translate(428.36921 404.638438) scale(0.1 -0.1)">
       <defs>
        <path id="DejaVuSans-36" d="M 2113 2584 
Q 1688 2584 1439 2293 
Q 1191 2003 1191 1497 
Q 1191 994 1439 701 
Q 1688 409 2113 409 
Q 2538 409 2786 701 
Q 3034 994 3034 1497 
Q 3034 2003 2786 2293 
Q 2538 2584 2113 2584 
z
M 3366 4563 
L 3366 3988 
Q 3128 4100 2886 4159 
Q 2644 4219 2406 4219 
Q 1781 4219 1451 3797 
Q 1122 3375 1075 2522 
Q 1259 2794 1537 2939 
Q 1816 3084 2150 3084 
Q 2853 3084 3261 2657 
Q 3669 2231 3669 1497 
Q 3669 778 3244 343 
Q 2819 -91 2113 -91 
Q 1303 -91 875 529 
Q 447 1150 447 2328 
Q 447 3434 972 4092 
Q 1497 4750 2381 4750 
Q 2619 4750 2861 4703 
Q 3103 4656 3366 4563 
z
" transform="scale(0.015625)"/>
       </defs>
       <use xlink:href="#DejaVuSans-36"/>
       <use xlink:href="#DejaVuSans-30" transform="translate(63.623047 0)"/>
       <use xlink:href="#DejaVuSans-30" transform="translate(127.246094 0)"/>
       <use xlink:href="#DejaVuSans-30" transform="translate(190.869141 0)"/>
       <use xlink:href="#DejaVuSans-30" transform="translate(254.492188 0)"/>
      </g>
     </g>
    </g>
    <g id="xtick_5">
     <g id="line2d_9">
      <path d="M 566.593234 390.04 
L 566.593234 10.8 
" clip-path="url(#pa5921d1f3d)" style="fill: none; stroke: #b0b0b0; stroke-width: 0.8; stroke-linecap: square"/>
     </g>
     <g id="line2d_10">
      <g>
       <use xlink:href="#m7204a989b7" x="566.593234" y="390.04" style="stroke: #000000; stroke-width: 0.8"/>
      </g>
     </g>
     <g id="text_5">
      <!-- 80000 -->
      <g transform="translate(550.686984 404.638438) scale(0.1 -0.1)">
       <defs>
        <path id="DejaVuSans-38" d="M 2034 2216 
Q 1584 2216 1326 1975 
Q 1069 1734 1069 1313 
Q 1069 891 1326 650 
Q 1584 409 2034 409 
Q 2484 409 2743 651 
Q 3003 894 3003 1313 
Q 3003 1734 2745 1975 
Q 2488 2216 2034 2216 
z
M 1403 2484 
Q 997 2584 770 2862 
Q 544 3141 544 3541 
Q 544 4100 942 4425 
Q 1341 4750 2034 4750 
Q 2731 4750 3128 4425 
Q 3525 4100 3525 3541 
Q 3525 3141 3298 2862 
Q 3072 2584 2669 2484 
Q 3125 2378 3379 2068 
Q 3634 1759 3634 1313 
Q 3634 634 3220 271 
Q 2806 -91 2034 -91 
Q 1263 -91 848 271 
Q 434 634 434 1313 
Q 434 1759 690 2068 
Q 947 2378 1403 2484 
z
M 1172 3481 
Q 1172 3119 1398 2916 
Q 1625 2713 2034 2713 
Q 2441 2713 2670 2916 
Q 2900 3119 2900 3481 
Q 2900 3844 2670 4047 
Q 2441 4250 2034 4250 
Q 1625 4250 1398 4047 
Q 1172 3844 1172 3481 
z
" transform="scale(0.015625)"/>
       </defs>
       <use xlink:href="#DejaVuSans-38"/>
       <use xlink:href="#DejaVuSans-30" transform="translate(63.623047 0)"/>
       <use xlink:href="#DejaVuSans-30" transform="translate(127.246094 0)"/>
       <use xlink:href="#DejaVuSans-30" transform="translate(190.869141 0)"/>
       <use xlink:href="#DejaVuSans-30" transform="translate(254.492188 0)"/>
      </g>
     </g>
    </g>
    <g id="xtick_6">
     <g id="line2d_11">
      <path d="M 688.911009 390.04 
L 688.911009 10.8 
" clip-path="url(#pa5921d1f3d)" style="fill: none; stroke: #b0b0b0; stroke-width: 0.8; stroke-linecap: square"/>
     </g>
     <g id="line2d_12">
      <g>
       <use xlink:href="#m7204a989b7" x="688.911009" y="390.04" style="stroke: #000000; stroke-width: 0.8"/>
      </g>
     </g>
     <g id="text_6">
      <!-- 100000 -->
      <g transform="translate(669.823509 404.638438) scale(0.1 -0.1)">
       <defs>
        <path id="DejaVuSans-31" d="M 794 531 
L 1825 531 
L 1825 4091 
L 703 3866 
L 703 4441 
L 1819 4666 
L 2450 4666 
L 2450 531 
L 3481 531 
L 3481 0 
L 794 0 
L 794 531 
z
" transform="scale(0.015625)"/>
       </defs>
       <use xlink:href="#DejaVuSans-31"/>
       <use xlink:href="#DejaVuSans-30" transform="translate(63.623047 0)"/>
       <use xlink:href="#DejaVuSans-30" transform="translate(127.246094 0)"/>
       <use xlink:href="#DejaVuSans-30" transform="translate(190.869141 0)"/>
       <use xlink:href="#DejaVuSans-30" transform="translate(254.492188 0)"/>
       <use xlink:href="#DejaVuSans-30" transform="translate(318.115234 0)"/>
      </g>
     </g>
    </g>
    <g id="text_7">
     <!-- Steps -->
     <g transform="translate(360.751019 418.316562) scale(0.1 -0.1)">
      <defs>
       <path id="DejaVuSans-53" d="M 3425 4513 
L 3425 3897 
Q 3066 4069 2747 4153 
Q 2428 4238 2131 4238 
Q 1616 4238 1336 4038 
Q 1056 3838 1056 3469 
Q 1056 3159 1242 3001 
Q 1428 2844 1947 2747 
L 2328 2669 
Q 3034 2534 3370 2195 
Q 3706 1856 3706 1288 
Q 3706 609 3251 259 
Q 2797 -91 1919 -91 
Q 1588 -91 1214 -16 
Q 841 59 441 206 
L 441 856 
Q 825 641 1194 531 
Q 1563 422 1919 422 
Q 2459 422 2753 634 
Q 3047 847 3047 1241 
Q 3047 1584 2836 1778 
Q 2625 1972 2144 2069 
L 1759 2144 
Q 1053 2284 737 2584 
Q 422 2884 422 3419 
Q 422 4038 858 4394 
Q 1294 4750 2059 4750 
Q 2388 4750 2728 4690 
Q 3069 4631 3425 4513 
z
" transform="scale(0.015625)"/>
       <path id="DejaVuSans-74" d="M 1172 4494 
L 1172 3500 
L 2356 3500 
L 2356 3053 
L 1172 3053 
L 1172 1153 
Q 1172 725 1289 603 
Q 1406 481 1766 481 
L 2356 481 
L 2356 0 
L 1766 0 
Q 1100 0 847 248 
Q 594 497 594 1153 
L 594 3053 
L 172 3053 
L 172 3500 
L 594 3500 
L 594 4494 
L 1172 4494 
z
" transform="scale(0.015625)"/>
       <path id="DejaVuSans-65" d="M 3597 1894 
L 3597 1613 
L 953 1613 
Q 991 1019 1311 708 
Q 1631 397 2203 397 
Q 2534 397 2845 478 
Q 3156 559 3463 722 
L 3463 178 
Q 3153 47 2828 -22 
Q 2503 -91 2169 -91 
Q 1331 -91 842 396 
Q 353 884 353 1716 
Q 353 2575 817 3079 
Q 1281 3584 2069 3584 
Q 2775 3584 3186 3129 
Q 3597 2675 3597 1894 
z
M 3022 2063 
Q 3016 2534 2758 2815 
Q 2500 3097 2075 3097 
Q 1594 3097 1305 2825 
Q 1016 2553 972 2059 
L 3022 2063 
z
" transform="scale(0.015625)"/>
       <path id="DejaVuSans-70" d="M 1159 525 
L 1159 -1331 
L 581 -1331 
L 581 3500 
L 1159 3500 
L 1159 2969 
Q 1341 3281 1617 3432 
Q 1894 3584 2278 3584 
Q 2916 3584 3314 3078 
Q 3713 2572 3713 1747 
Q 3713 922 3314 415 
Q 2916 -91 2278 -91 
Q 1894 -91 1617 61 
Q 1341 213 1159 525 
z
M 3116 1747 
Q 3116 2381 2855 2742 
Q 2594 3103 2138 3103 
Q 1681 3103 1420 2742 
Q 1159 2381 1159 1747 
Q 1159 1113 1420 752 
Q 1681 391 2138 391 
Q 2594 391 2855 752 
Q 3116 1113 3116 1747 
z
" transform="scale(0.015625)"/>
       <path id="DejaVuSans-73" d="M 2834 3397 
L 2834 2853 
Q 2591 2978 2328 3040 
Q 2066 3103 1784 3103 
Q 1356 3103 1142 2972 
Q 928 2841 928 2578 
Q 928 2378 1081 2264 
Q 1234 2150 1697 2047 
L 1894 2003 
Q 2506 1872 2764 1633 
Q 3022 1394 3022 966 
Q 3022 478 2636 193 
Q 2250 -91 1575 -91 
Q 1294 -91 989 -36 
Q 684 19 347 128 
L 347 722 
Q 666 556 975 473 
Q 1284 391 1588 391 
Q 1994 391 2212 530 
Q 2431 669 2431 922 
Q 2431 1156 2273 1281 
Q 2116 1406 1581 1522 
L 1381 1569 
Q 847 1681 609 1914 
Q 372 2147 372 2553 
Q 372 3047 722 3315 
Q 1072 3584 1716 3584 
Q 2034 3584 2315 3537 
Q 2597 3491 2834 3397 
z
" transform="scale(0.015625)"/>
      </defs>
      <use xlink:href="#DejaVuSans-53"/>
      <use xlink:href="#DejaVuSans-74" transform="translate(63.476562 0)"/>
      <use xlink:href="#DejaVuSans-65" transform="translate(102.685547 0)"/>
      <use xlink:href="#DejaVuSans-70" transform="translate(164.208984 0)"/>
      <use xlink:href="#DejaVuSans-73" transform="translate(227.685547 0)"/>
     </g>
    </g>
   </g>
   <g id="matplotlib.axis_2">
    <g id="ytick_1">
     <g id="line2d_13">
      <path d="M 50.87 372.801818 
L 698.611726 372.801818 
" clip-path="url(#pa5921d1f3d)" style="fill: none; stroke: #b0b0b0; stroke-width: 0.8; stroke-linecap: square"/>
     </g>
     <g id="line2d_14">
      <defs>
       <path id="m156af4f002" d="M 0 0 
L -3.5 0 
" style="stroke: #000000; stroke-width: 0.8"/>
      </defs>
      <g>
       <use xlink:href="#m156af4f002" x="50.87" y="372.801818" style="stroke: #000000; stroke-width: 0.8"/>
      </g>
     </g>
     <g id="text_8">
      <!-- 0 -->
      <g transform="translate(37.5075 376.601037) scale(0.1 -0.1)">
       <use xlink:href="#DejaVuSans-30"/>
      </g>
     </g>
    </g>
    <g id="ytick_2">
     <g id="line2d_15">
      <path d="M 50.87 314.717009 
L 698.611726 314.717009 
" clip-path="url(#pa5921d1f3d)" style="fill: none; stroke: #b0b0b0; stroke-width: 0.8; stroke-linecap: square"/>
     </g>
     <g id="line2d_16">
      <g>
       <use xlink:href="#m156af4f002" x="50.87" y="314.717009" style="stroke: #000000; stroke-width: 0.8"/>
      </g>
     </g>
     <g id="text_9">
      <!-- 20 -->
      <g transform="translate(31.145 318.516228) scale(0.1 -0.1)">
       <use xlink:href="#DejaVuSans-32"/>
       <use xlink:href="#DejaVuSans-30" transform="translate(63.623047 0)"/>
      </g>
     </g>
    </g>
    <g id="ytick_3">
     <g id="line2d_17">
      <path d="M 50.87 256.6322 
L 698.611726 256.6322 
" clip-path="url(#pa5921d1f3d)" style="fill: none; stroke: #b0b0b0; stroke-width: 0.8; stroke-linecap: square"/>
     </g>
     <g id="line2d_18">
      <g>
       <use xlink:href="#m156af4f002" x="50.87" y="256.6322" style="stroke: #000000; stroke-width: 0.8"/>
      </g>
     </g>
     <g id="text_10">
      <!-- 40 -->
      <g transform="translate(31.145 260.431419) scale(0.1 -0.1)">
       <use xlink:href="#DejaVuSans-34"/>
       <use xlink:href="#DejaVuSans-30" transform="translate(63.623047 0)"/>
      </g>
     </g>
    </g>
    <g id="ytick_4">
     <g id="line2d_19">
      <path d="M 50.87 198.547392 
L 698.611726 198.547392 
" clip-path="url(#pa5921d1f3d)" style="fill: none; stroke: #b0b0b0; stroke-width: 0.8; stroke-linecap: square"/>
     </g>
     <g id="line2d_20">
      <g>
       <use xlink:href="#m156af4f002" x="50.87" y="198.547392" style="stroke: #000000; stroke-width: 0.8"/>
      </g>
     </g>
     <g id="text_11">
      <!-- 60 -->
      <g transform="translate(31.145 202.34661) scale(0.1 -0.1)">
       <use xlink:href="#DejaVuSans-36"/>
       <use xlink:href="#DejaVuSans-30" transform="translate(63.623047 0)"/>
      </g>
     </g>
    </g>
    <g id="ytick_5">
     <g id="line2d_21">
      <path d="M 50.87 140.462583 
L 698.611726 140.462583 
" clip-path="url(#pa5921d1f3d)" style="fill: none; stroke: #b0b0b0; stroke-width: 0.8; stroke-linecap: square"/>
     </g>
     <g id="line2d_22">
      <g>
       <use xlink:href="#m156af4f002" x="50.87" y="140.462583" style="stroke: #000000; stroke-width: 0.8"/>
      </g>
     </g>
     <g id="text_12">
      <!-- 80 -->
      <g transform="translate(31.145 144.261802) scale(0.1 -0.1)">
       <use xlink:href="#DejaVuSans-38"/>
       <use xlink:href="#DejaVuSans-30" transform="translate(63.623047 0)"/>
      </g>
     </g>
    </g>
    <g id="ytick_6">
     <g id="line2d_23">
      <path d="M 50.87 82.377774 
L 698.611726 82.377774 
" clip-path="url(#pa5921d1f3d)" style="fill: none; stroke: #b0b0b0; stroke-width: 0.8; stroke-linecap: square"/>
     </g>
     <g id="line2d_24">
      <g>
       <use xlink:href="#m156af4f002" x="50.87" y="82.377774" style="stroke: #000000; stroke-width: 0.8"/>
      </g>
     </g>
     <g id="text_13">
      <!-- 100 -->
      <g transform="translate(24.7825 86.176993) scale(0.1 -0.1)">
       <use xlink:href="#DejaVuSans-31"/>
       <use xlink:href="#DejaVuSans-30" transform="translate(63.623047 0)"/>
       <use xlink:href="#DejaVuSans-30" transform="translate(127.246094 0)"/>
      </g>
     </g>
    </g>
    <g id="ytick_7">
     <g id="line2d_25">
      <path d="M 50.87 24.292965 
L 698.611726 24.292965 
" clip-path="url(#pa5921d1f3d)" style="fill: none; stroke: #b0b0b0; stroke-width: 0.8; stroke-linecap: square"/>
     </g>
     <g id="line2d_26">
      <g>
       <use xlink:href="#m156af4f002" x="50.87" y="24.292965" style="stroke: #000000; stroke-width: 0.8"/>
      </g>
     </g>
     <g id="text_14">
      <!-- 120 -->
      <g transform="translate(24.7825 28.092184) scale(0.1 -0.1)">
       <use xlink:href="#DejaVuSans-31"/>
       <use xlink:href="#DejaVuSans-32" transform="translate(63.623047 0)"/>
       <use xlink:href="#DejaVuSans-30" transform="translate(127.246094 0)"/>
      </g>
     </g>
    </g>
    <g id="text_15">
     <!-- Reward -->
     <g transform="translate(18.702813 219.041094) rotate(-90) scale(0.1 -0.1)">
      <defs>
       <path id="DejaVuSans-52" d="M 2841 2188 
Q 3044 2119 3236 1894 
Q 3428 1669 3622 1275 
L 4263 0 
L 3584 0 
L 2988 1197 
Q 2756 1666 2539 1819 
Q 2322 1972 1947 1972 
L 1259 1972 
L 1259 0 
L 628 0 
L 628 4666 
L 2053 4666 
Q 2853 4666 3247 4331 
Q 3641 3997 3641 3322 
Q 3641 2881 3436 2590 
Q 3231 2300 2841 2188 
z
M 1259 4147 
L 1259 2491 
L 2053 2491 
Q 2509 2491 2742 2702 
Q 2975 2913 2975 3322 
Q 2975 3731 2742 3939 
Q 2509 4147 2053 4147 
L 1259 4147 
z
" transform="scale(0.015625)"/>
       <path id="DejaVuSans-77" d="M 269 3500 
L 844 3500 
L 1563 769 
L 2278 3500 
L 2956 3500 
L 3675 769 
L 4391 3500 
L 4966 3500 
L 4050 0 
L 3372 0 
L 2619 2869 
L 1863 0 
L 1184 0 
L 269 3500 
z
" transform="scale(0.015625)"/>
       <path id="DejaVuSans-61" d="M 2194 1759 
Q 1497 1759 1228 1600 
Q 959 1441 959 1056 
Q 959 750 1161 570 
Q 1363 391 1709 391 
Q 2188 391 2477 730 
Q 2766 1069 2766 1631 
L 2766 1759 
L 2194 1759 
z
M 3341 1997 
L 3341 0 
L 2766 0 
L 2766 531 
Q 2569 213 2275 61 
Q 1981 -91 1556 -91 
Q 1019 -91 701 211 
Q 384 513 384 1019 
Q 384 1609 779 1909 
Q 1175 2209 1959 2209 
L 2766 2209 
L 2766 2266 
Q 2766 2663 2505 2880 
Q 2244 3097 1772 3097 
Q 1472 3097 1187 3025 
Q 903 2953 641 2809 
L 641 3341 
Q 956 3463 1253 3523 
Q 1550 3584 1831 3584 
Q 2591 3584 2966 3190 
Q 3341 2797 3341 1997 
z
" transform="scale(0.015625)"/>
       <path id="DejaVuSans-72" d="M 2631 2963 
Q 2534 3019 2420 3045 
Q 2306 3072 2169 3072 
Q 1681 3072 1420 2755 
Q 1159 2438 1159 1844 
L 1159 0 
L 581 0 
L 581 3500 
L 1159 3500 
L 1159 2956 
Q 1341 3275 1631 3429 
Q 1922 3584 2338 3584 
Q 2397 3584 2469 3576 
Q 2541 3569 2628 3553 
L 2631 2963 
z
" transform="scale(0.015625)"/>
       <path id="DejaVuSans-64" d="M 2906 2969 
L 2906 4863 
L 3481 4863 
L 3481 0 
L 2906 0 
L 2906 525 
Q 2725 213 2448 61 
Q 2172 -91 1784 -91 
Q 1150 -91 751 415 
Q 353 922 353 1747 
Q 353 2572 751 3078 
Q 1150 3584 1784 3584 
Q 2172 3584 2448 3432 
Q 2725 3281 2906 2969 
z
M 947 1747 
Q 947 1113 1208 752 
Q 1469 391 1925 391 
Q 2381 391 2643 752 
Q 2906 1113 2906 1747 
Q 2906 2381 2643 2742 
Q 2381 3103 1925 3103 
Q 1469 3103 1208 2742 
Q 947 2381 947 1747 
z
" transform="scale(0.015625)"/>
      </defs>
      <use xlink:href="#DejaVuSans-52"/>
      <use xlink:href="#DejaVuSans-65" transform="translate(64.982422 0)"/>
      <use xlink:href="#DejaVuSans-77" transform="translate(126.505859 0)"/>
      <use xlink:href="#DejaVuSans-61" transform="translate(208.292969 0)"/>
      <use xlink:href="#DejaVuSans-72" transform="translate(269.572266 0)"/>
      <use xlink:href="#DejaVuSans-64" transform="translate(308.935547 0)"/>
     </g>
    </g>
   </g>
   <g id="line2d_27">
    <path d="M 80.337269 347.098814 
L 86.489853 333.374858 
L 92.660785 334.00511 
L 98.580965 311.912787 
L 104.660159 302.35206 
L 110.384631 285.612825 
L 116.060175 260.69683 
L 127.460192 163.255118 
L 132.940028 125.9605 
L 138.24862 92.875498 
L 143.496052 87.32647 
L 148.54166 87.80734 
L 153.654543 85.900416 
L 158.755195 78.095237 
L 163.825266 76.175026 
L 168.760789 69.771733 
L 173.708542 71.268901 
L 178.637949 67.324846 
L 183.359415 75.592371 
L 187.603842 75.083484 
L 191.566938 70.215985 
L 195.377136 68.299202 
L 199.297421 69.736269 
L 203.015881 66.813143 
L 206.715994 66.811626 
L 210.489497 67.798495 
L 214.183494 67.782086 
L 217.871375 65.83998 
L 221.644878 68.265408 
L 225.351107 65.839254 
L 229.05122 68.264795 
L 232.745216 66.811933 
L 236.445329 66.324052 
L 243.827207 67.293448 
L 247.508972 66.809964 
L 258.548151 66.810367 
L 262.242148 66.324811 
L 265.911681 66.808835 
L 269.593446 66.323851 
L 280.620393 66.324359 
L 287.965576 67.293673 
L 291.635109 67.29402 
L 295.347453 66.325892 
L 299.065914 67.307622 
L 302.778258 65.839068 
L 306.453907 66.323964 
L 310.147904 65.839625 
L 313.823553 66.323665 
L 317.486971 67.295053 
L 321.174852 65.838157 
L 324.844385 66.808649 
L 332.201799 65.839238 
L 335.871332 65.838326 
L 339.540865 66.810642 
L 346.886048 66.815958 
L 350.549465 67.298707 
L 354.218998 65.839238 
L 365.23983 65.839423 
L 368.915479 66.323601 
L 372.578896 66.328183 
L 376.254545 66.808835 
L 379.924079 65.83831 
L 387.269261 65.83831 
L 390.932678 66.808278 
L 394.602212 66.81595 
L 398.265629 65.839633 
L 401.935162 67.293633 
L 405.616927 67.780658 
L 412.986573 66.821024 
L 416.656106 67.294762 
L 420.331755 66.821702 
L 424.001289 65.843134 
L 427.670822 66.326263 
L 431.340355 67.296287 
L 434.94873 76.510369 
L 438.214614 119.672271 
L 441.107429 139.071072 
L 443.773957 153.136164 
L 446.299819 160.410737 
L 448.776754 164.291061 
L 451.278152 186.599128 
L 453.748971 236.06775 
L 456.201443 256.923253 
L 458.666146 256.922172 
L 461.112501 259.834303 
L 463.558857 259.348762 
L 466.011328 261.313739 
L 468.457684 257.901482 
L 470.904039 259.35136 
L 473.356511 257.893108 
L 475.802866 259.833681 
L 478.249222 259.347278 
L 480.695577 260.322441 
L 483.141933 259.832447 
L 485.588288 260.316875 
L 488.034644 259.831705 
L 490.487115 259.831891 
L 492.939586 258.862124 
L 495.385942 259.832076 
L 497.838413 261.286842 
L 500.290885 260.316875 
L 502.73724 279.231063 
L 505.189712 328.699426 
L 507.636067 346.643832 
L 510.082423 352.46364 
L 512.54101 344.703896 
L 514.993481 354.888559 
L 517.49488 354.888559 
L 520.100248 353.433608 
L 522.675037 355.373543 
L 525.158088 354.403575 
L 527.635023 356.343737 
L 530.087495 356.828495 
L 532.546082 356.343511 
L 534.992437 356.828495 
L 539.891264 356.828495 
L 542.33762 356.343786 
L 544.783975 356.828495 
L 561.951275 356.828495 
L 564.403746 355.869079 
L 566.856218 356.343511 
L 569.308689 355.858915 
L 571.767276 356.828495 
L 579.143038 356.828495 
L 581.595509 354.888559 
L 584.041865 356.828495 
L 594.500035 356.828495 
L 597.239953 356.343511 
L 599.814742 356.343511 
L 602.365068 356.828495 
L 607.441255 356.828495 
L 610.064971 356.343511 
L 612.56637 356.828495 
L 666.704217 356.828495 
L 669.16892 355.858527 
L 669.16892 355.858527 
" clip-path="url(#pa5921d1f3d)" style="fill: none; stroke: #0000ff; stroke-width: 1.5; stroke-linecap: square"/>
   </g>
   <g id="line2d_28">
    <path d="M 80.312806 346.615718 
L 86.428694 348.480458 
L 92.715828 340.658274 
L 98.739978 340.966212 
L 104.917026 343.140383 
L 111.369289 342.275016 
L 117.36286 347.433076 
L 123.49098 345.466921 
L 129.698607 343.495507 
L 135.863423 346.588111 
L 141.96708 335.211605 
L 148.052389 340.524638 
L 154.278364 335.513646 
L 160.589961 343.276583 
L 166.638575 340.161003 
L 172.589335 338.988965 
L 178.894816 340.303158 
L 185.25534 338.971668 
L 191.530242 337.110542 
L 197.91523 334.930192 
L 203.994423 341.657639 
L 210.12866 343.609555 
L 216.648197 342.062458 
L 222.696811 335.861525 
L 228.751541 340.852503 
L 235.026443 344.588106 
L 241.295229 339.688427 
L 247.417233 343.122538 
L 253.722715 341.337083 
L 259.81414 342.062296 
L 266.046231 343.414059 
L 272.156003 341.065222 
L 278.938524 342.199005 
L 284.766966 342.534389 
L 291.060215 340.17792 
L 297.102713 344.160279 
L 303.310341 338.516856 
L 309.530199 338.525432 
L 315.786754 345.773133 
L 321.706934 338.358446 
L 328.281514 339.013521 
L 334.409635 343.330264 
L 340.433785 343.511206 
L 346.751498 343.076296 
L 353.124254 342.408143 
L 359.454199 340.227696 
L 365.588435 339.417106 
L 371.84499 338.806465 
L 377.930299 339.152062 
L 383.948333 344.60675 
L 390.382248 344.966504 
L 396.412515 336.677181 
L 402.479476 338.280088 
L 408.962318 337.769224 
L 415.451276 341.983406 
L 421.73841 339.820707 
L 428.068355 339.959312 
L 434.012999 339.14685 
L 440.159467 342.085692 
L 446.385441 338.866865 
L 452.672575 337.058855 
L 459.020868 341.223302 
L 465.375276 340.328263 
L 471.515628 338.072644 
L 477.399113 339.706715 
L 483.484422 340.151847 
L 489.740977 334.166844 
L 496.052574 342.224417 
L 502.125651 338.043441 
L 508.645189 338.121597 
L 514.663223 340.555915 
L 521.194992 339.964233 
L 527.225259 339.524902 
L 533.335031 339.647533 
L 539.591586 341.016858 
L 546.111123 337.508689 
L 552.361561 342.487848 
L 558.703738 338.096257 
L 565.076494 339.207444 
L 571.516525 344.166419 
L 577.7425 338.168581 
L 584.090792 340.361468 
L 590.26784 339.188575 
L 596.579437 338.401275 
L 602.842107 335.743686 
L 608.878489 336.665992 
L 614.982146 340.358072 
L 621.140846 340.629852 
L 627.336241 335.595594 
L 633.519405 338.764814 
L 639.50686 343.588168 
L 645.904079 340.090269 
L 651.848723 342.124584 
L 658.031887 340.068511 
L 664.496381 337.710026 
" clip-path="url(#pa5921d1f3d)" style="fill: none; stroke: #ffa500; stroke-width: 1.5; stroke-linecap: square"/>
   </g>
   <g id="patch_3">
    <path d="M 50.87 390.04 
L 50.87 10.8 
" style="fill: none; stroke: #000000; stroke-width: 0.8; stroke-linejoin: miter; stroke-linecap: square"/>
   </g>
   <g id="patch_4">
    <path d="M 698.611726 390.04 
L 698.611726 10.8 
" style="fill: none; stroke: #000000; stroke-width: 0.8; stroke-linejoin: miter; stroke-linecap: square"/>
   </g>
   <g id="patch_5">
    <path d="M 50.87 390.04 
L 698.611726 390.04 
" style="fill: none; stroke: #000000; stroke-width: 0.8; stroke-linejoin: miter; stroke-linecap: square"/>
   </g>
   <g id="patch_6">
    <path d="M 50.87 10.8 
L 698.611726 10.8 
" style="fill: none; stroke: #000000; stroke-width: 0.8; stroke-linejoin: miter; stroke-linecap: square"/>
   </g>
   <g id="legend_1">
    <g id="patch_7">
     <path d="M 618.214851 385.04 
L 691.611726 385.04 
Q 693.611726 385.04 693.611726 383.04 
L 693.611726 340.005625 
Q 693.611726 338.005625 691.611726 338.005625 
L 618.214851 338.005625 
Q 616.214851 338.005625 616.214851 340.005625 
L 616.214851 383.04 
Q 616.214851 385.04 618.214851 385.04 
z
" style="fill: #ffffff; opacity: 0.8; stroke: #cccccc; stroke-linejoin: miter"/>
    </g>
    <g id="text_16">
     <!-- Agent -->
     <g transform="translate(640.113288 349.604062) scale(0.1 -0.1)">
      <defs>
       <path id="DejaVuSans-41" d="M 2188 4044 
L 1331 1722 
L 3047 1722 
L 2188 4044 
z
M 1831 4666 
L 2547 4666 
L 4325 0 
L 3669 0 
L 3244 1197 
L 1141 1197 
L 716 0 
L 50 0 
L 1831 4666 
z
" transform="scale(0.015625)"/>
       <path id="DejaVuSans-67" d="M 2906 1791 
Q 2906 2416 2648 2759 
Q 2391 3103 1925 3103 
Q 1463 3103 1205 2759 
Q 947 2416 947 1791 
Q 947 1169 1205 825 
Q 1463 481 1925 481 
Q 2391 481 2648 825 
Q 2906 1169 2906 1791 
z
M 3481 434 
Q 3481 -459 3084 -895 
Q 2688 -1331 1869 -1331 
Q 1566 -1331 1297 -1286 
Q 1028 -1241 775 -1147 
L 775 -588 
Q 1028 -725 1275 -790 
Q 1522 -856 1778 -856 
Q 2344 -856 2625 -561 
Q 2906 -266 2906 331 
L 2906 616 
Q 2728 306 2450 153 
Q 2172 0 1784 0 
Q 1141 0 747 490 
Q 353 981 353 1791 
Q 353 2603 747 3093 
Q 1141 3584 1784 3584 
Q 2172 3584 2450 3431 
Q 2728 3278 2906 2969 
L 2906 3500 
L 3481 3500 
L 3481 434 
z
" transform="scale(0.015625)"/>
       <path id="DejaVuSans-6e" d="M 3513 2113 
L 3513 0 
L 2938 0 
L 2938 2094 
Q 2938 2591 2744 2837 
Q 2550 3084 2163 3084 
Q 1697 3084 1428 2787 
Q 1159 2491 1159 1978 
L 1159 0 
L 581 0 
L 581 3500 
L 1159 3500 
L 1159 2956 
Q 1366 3272 1645 3428 
Q 1925 3584 2291 3584 
Q 2894 3584 3203 3211 
Q 3513 2838 3513 2113 
z
" transform="scale(0.015625)"/>
      </defs>
      <use xlink:href="#DejaVuSans-41"/>
      <use xlink:href="#DejaVuSans-67" transform="translate(68.408203 0)"/>
      <use xlink:href="#DejaVuSans-65" transform="translate(131.884766 0)"/>
      <use xlink:href="#DejaVuSans-6e" transform="translate(193.408203 0)"/>
      <use xlink:href="#DejaVuSans-74" transform="translate(256.787109 0)"/>
     </g>
    </g>
    <g id="line2d_29">
     <path d="M 620.214851 360.782187 
L 630.214851 360.782187 
L 640.214851 360.782187 
" style="fill: none; stroke: #0000ff; stroke-width: 1.5; stroke-linecap: square"/>
    </g>
    <g id="text_17">
     <!-- PPO -->
     <g transform="translate(648.214851 364.282187) scale(0.1 -0.1)">
      <defs>
       <path id="DejaVuSans-50" d="M 1259 4147 
L 1259 2394 
L 2053 2394 
Q 2494 2394 2734 2622 
Q 2975 2850 2975 3272 
Q 2975 3691 2734 3919 
Q 2494 4147 2053 4147 
L 1259 4147 
z
M 628 4666 
L 2053 4666 
Q 2838 4666 3239 4311 
Q 3641 3956 3641 3272 
Q 3641 2581 3239 2228 
Q 2838 1875 2053 1875 
L 1259 1875 
L 1259 0 
L 628 0 
L 628 4666 
z
" transform="scale(0.015625)"/>
       <path id="DejaVuSans-4f" d="M 2522 4238 
Q 1834 4238 1429 3725 
Q 1025 3213 1025 2328 
Q 1025 1447 1429 934 
Q 1834 422 2522 422 
Q 3209 422 3611 934 
Q 4013 1447 4013 2328 
Q 4013 3213 3611 3725 
Q 3209 4238 2522 4238 
z
M 2522 4750 
Q 3503 4750 4090 4092 
Q 4678 3434 4678 2328 
Q 4678 1225 4090 567 
Q 3503 -91 2522 -91 
Q 1538 -91 948 565 
Q 359 1222 359 2328 
Q 359 3434 948 4092 
Q 1538 4750 2522 4750 
z
" transform="scale(0.015625)"/>
      </defs>
      <use xlink:href="#DejaVuSans-50"/>
      <use xlink:href="#DejaVuSans-50" transform="translate(60.302734 0)"/>
      <use xlink:href="#DejaVuSans-4f" transform="translate(120.605469 0)"/>
     </g>
    </g>
    <g id="line2d_30">
     <path d="M 620.214851 375.460312 
L 630.214851 375.460312 
L 640.214851 375.460312 
" style="fill: none; stroke: #ffa500; stroke-width: 1.5; stroke-linecap: square"/>
    </g>
    <g id="text_18">
     <!-- Random -->
     <g transform="translate(648.214851 378.960312) scale(0.1 -0.1)">
      <defs>
       <path id="DejaVuSans-6f" d="M 1959 3097 
Q 1497 3097 1228 2736 
Q 959 2375 959 1747 
Q 959 1119 1226 758 
Q 1494 397 1959 397 
Q 2419 397 2687 759 
Q 2956 1122 2956 1747 
Q 2956 2369 2687 2733 
Q 2419 3097 1959 3097 
z
M 1959 3584 
Q 2709 3584 3137 3096 
Q 3566 2609 3566 1747 
Q 3566 888 3137 398 
Q 2709 -91 1959 -91 
Q 1206 -91 779 398 
Q 353 888 353 1747 
Q 353 2609 779 3096 
Q 1206 3584 1959 3584 
z
" transform="scale(0.015625)"/>
       <path id="DejaVuSans-6d" d="M 3328 2828 
Q 3544 3216 3844 3400 
Q 4144 3584 4550 3584 
Q 5097 3584 5394 3201 
Q 5691 2819 5691 2113 
L 5691 0 
L 5113 0 
L 5113 2094 
Q 5113 2597 4934 2840 
Q 4756 3084 4391 3084 
Q 3944 3084 3684 2787 
Q 3425 2491 3425 1978 
L 3425 0 
L 2847 0 
L 2847 2094 
Q 2847 2600 2669 2842 
Q 2491 3084 2119 3084 
Q 1678 3084 1418 2786 
Q 1159 2488 1159 1978 
L 1159 0 
L 581 0 
L 581 3500 
L 1159 3500 
L 1159 2956 
Q 1356 3278 1631 3431 
Q 1906 3584 2284 3584 
Q 2666 3584 2933 3390 
Q 3200 3197 3328 2828 
z
" transform="scale(0.015625)"/>
      </defs>
      <use xlink:href="#DejaVuSans-52"/>
      <use xlink:href="#DejaVuSans-61" transform="translate(67.232422 0)"/>
      <use xlink:href="#DejaVuSans-6e" transform="translate(128.511719 0)"/>
      <use xlink:href="#DejaVuSans-64" transform="translate(191.890625 0)"/>
      <use xlink:href="#DejaVuSans-6f" transform="translate(255.367188 0)"/>
      <use xlink:href="#DejaVuSans-6d" transform="translate(316.548828 0)"/>
     </g>
    </g>
   </g>
  </g>
 </g>
 <defs>
  <clipPath id="pa5921d1f3d">
   <rect x="50.87" y="10.8" width="647.741726" height="379.24"/>
  </clipPath>
 </defs>
</svg>
