<?xml version="1.0" encoding="utf-8" standalone="no"?>
<!DOCTYPE svg PUBLIC "-//W3C//DTD SVG 1.1//EN"
  "http://www.w3.org/Graphics/SVG/1.1/DTD/svg11.dtd">
<svg xmlns:xlink="http://www.w3.org/1999/xlink" width="720pt" height="432pt" viewBox="0 0 720 432" xmlns="http://www.w3.org/2000/svg" version="1.1">
 <metadata>
  <rdf:RDF xmlns:dc="http://purl.org/dc/elements/1.1/" xmlns:cc="http://creativecommons.org/ns#" xmlns:rdf="http://www.w3.org/1999/02/22-rdf-syntax-ns#">
   <cc:Work>
    <dc:type rdf:resource="http://purl.org/dc/dcmitype/StillImage"/>
    <dc:date>2025-04-22T23:10:32.206488</dc:date>
    <dc:format>image/svg+xml</dc:format>
    <dc:creator>
     <cc:Agent>
      <dc:title>Matplotlib v3.10.0, https://matplotlib.org/</dc:title>
     </cc:Agent>
    </dc:creator>
   </cc:Work>
  </rdf:RDF>
 </metadata>
 <defs>
  <style type="text/css">*{stroke-linejoin: round; stroke-linecap: butt}</style>
 </defs>
 <g id="figure_1">
  <g id="patch_1">
   <path d="M 0 432 
L 720 432 
L 720 0 
L 0 0 
z
" style="fill: #ffffff"/>
  </g>
  <g id="axes_1">
   <g id="patch_2">
    <path d="M 38.27 390.04 
L 709.2 390.04 
L 709.2 10.8 
L 38.27 10.8 
z
" style="fill: #ffffff"/>
   </g>
   <g id="FillBetweenPolyCollection_1">
    <path d="M 68.766818 146.53642 
L 68.766818 372.801818 
L 71.8165 369.477635 
L 74.866182 370.754835 
L 77.915864 357.008799 
L 80.965545 331.60183 
L 84.015227 312.141266 
L 87.064909 307.433241 
L 90.114591 308.143858 
L 93.164273 306.516535 
L 96.213955 283.543913 
L 99.263636 312.281394 
L 102.313318 320.069173 
L 105.363 303.437926 
L 108.412682 330.000497 
L 111.462364 341.513573 
L 114.512045 346.914879 
L 117.561727 353.872883 
L 120.611409 335.978797 
L 123.661091 368.187938 
L 126.710773 337.210443 
L 129.760455 333.460816 
L 132.810136 360.854795 
L 135.859818 342.648219 
L 138.9095 330.029995 
L 141.959182 331.691792 
L 145.008864 335.409138 
L 148.058545 335.744382 
L 151.108227 301.587466 
L 154.157909 315.723128 
L 157.207591 322.194728 
L 160.257273 317.048661 
L 163.306955 312.495176 
L 166.356636 319.189183 
L 169.406318 315.378952 
L 172.456 332.505341 
L 175.505682 321.886561 
L 178.555364 307.406742 
L 181.605045 319.451193 
L 184.654727 317.131339 
L 187.704409 309.012894 
L 190.754091 287.497917 
L 193.803773 292.866244 
L 196.853455 298.695744 
L 199.903136 272.977911 
L 202.952818 258.27069 
L 206.0025 260.583555 
L 209.052182 268.15376 
L 212.101864 228.167561 
L 215.151545 231.394938 
L 218.201227 227.281217 
L 221.250909 237.910354 
L 224.300591 241.216175 
L 227.350273 217.647281 
L 230.399955 216.468589 
L 233.449636 197.267818 
L 236.499318 195.39103 
L 239.549 205.775362 
L 242.598682 225.580091 
L 245.648364 226.158534 
L 248.698045 220.104366 
L 251.747727 204.493858 
L 254.797409 225.987553 
L 257.847091 202.486313 
L 260.896773 197.543905 
L 263.946455 177.42847 
L 266.996136 169.569131 
L 270.045818 163.718969 
L 273.0955 142.700919 
L 276.145182 140.4556 
L 279.194864 107.06125 
L 282.244545 122.200798 
L 285.294227 127.118366 
L 288.343909 144.176311 
L 291.393591 211.315937 
L 294.443273 272.10126 
L 297.492955 296.240973 
L 300.542636 310.326556 
L 303.592318 302.442067 
L 306.642 290.427837 
L 309.691682 294.285234 
L 312.741364 282.466181 
L 315.791045 286.228927 
L 318.840727 248.564268 
L 321.890409 234.133156 
L 324.940091 207.008547 
L 327.989773 219.97125 
L 331.039455 208.372948 
L 334.089136 166.574253 
L 337.138818 178.987531 
L 340.1885 160.959097 
L 343.238182 175.61482 
L 346.287864 158.779667 
L 349.337545 148.792555 
L 352.387227 116.920059 
L 355.436909 122.738591 
L 358.486591 133.934735 
L 361.536273 130.005912 
L 364.585955 110.025833 
L 367.635636 140.912283 
L 370.685318 169.798069 
L 373.735 135.662663 
L 376.784682 121.35621 
L 379.834364 124.503901 
L 382.884045 146.379766 
L 385.933727 143.542602 
L 388.983409 114.568811 
L 392.033091 110.768478 
L 395.082773 109.907392 
L 398.132455 108.413222 
L 401.182136 107.352653 
L 404.231818 103.829041 
L 407.2815 136.733145 
L 410.331182 88.903947 
L 413.380864 87.488592 
L 416.430545 73.744651 
L 419.480227 86.325438 
L 422.529909 74.421344 
L 425.579591 69.824641 
L 428.629273 66.301029 
L 431.678955 66.301029 
L 434.728636 76.938778 
L 437.778318 67.992762 
L 440.828 67.794563 
L 443.877682 83.982085 
L 446.927364 72.391265 
L 449.977045 77.466462 
L 453.026727 67.992762 
L 456.076409 142.494864 
L 459.126091 100.47402 
L 462.175773 72.565346 
L 465.225455 67.654415 
L 468.275136 68.331108 
L 471.324818 81.339669 
L 474.3745 76.451423 
L 477.424182 76.451423 
L 480.473864 92.676795 
L 483.523545 100.935667 
L 486.573227 116.463249 
L 489.622909 80.700899 
L 492.672591 71.714572 
L 495.722273 112.910333 
L 498.771955 111.400013 
L 501.821636 89.658268 
L 504.871318 81.250241 
L 507.921 121.576449 
L 510.970682 125.652889 
L 514.020364 102.046218 
L 517.070045 90.926058 
L 520.119727 92.43642 
L 523.169409 92.428452 
L 526.219091 108.481989 
L 529.268773 80.853844 
L 532.318455 90.78591 
L 535.368136 90.78591 
L 538.417818 106.517538 
L 541.4675 72.811708 
L 544.517182 73.406305 
L 547.566864 94.922783 
L 550.616545 79.834887 
L 553.666227 72.391265 
L 556.715909 67.316069 
L 559.765591 72.391265 
L 562.815273 91.536228 
L 565.864955 81.864966 
L 568.914636 75.510237 
L 571.964318 64.947644 
L 575.014 98.105595 
L 578.063682 109.392923 
L 581.113364 97.402947 
L 584.163045 109.46085 
L 587.212727 95.723461 
L 590.262409 114.070331 
L 593.312091 68.51246 
L 596.361773 61.564179 
L 599.411455 59.872447 
L 602.461136 86.403617 
L 605.510818 184.878233 
L 608.5605 126.934978 
L 611.610182 70.361187 
L 614.659864 64.00254 
L 617.709545 86.43755 
L 620.759227 71.529456 
L 623.808909 68.726869 
L 626.858591 62.917565 
L 629.908273 64.609297 
L 632.957955 62.240872 
L 636.007636 67.992762 
L 639.057318 62.917565 
L 642.107 62.917565 
L 645.156682 60.210793 
L 648.206364 62.641187 
L 651.256045 58.519061 
L 654.305727 79.215609 
L 657.355409 66.301029 
L 660.405091 93.204479 
L 663.454773 72.227 
L 666.504455 65.624337 
L 669.554136 63.640076 
L 672.603818 65.962683 
L 675.6535 64.019645 
L 678.703182 77.804808 
L 678.703182 51.642573 
L 678.703182 51.642573 
L 675.6535 54.215921 
L 672.603818 53.67436 
L 669.554136 54.875785 
L 666.504455 53.732411 
L 663.454773 53.015951 
L 660.405091 49.416784 
L 657.355409 53.616309 
L 654.305727 51.633249 
L 651.256045 54.951484 
L 648.206364 54.473198 
L 645.156682 54.661228 
L 642.107 54.19682 
L 639.057318 54.19682 
L 636.007636 53.326054 
L 632.957955 54.312922 
L 629.908273 53.906564 
L 626.858591 54.19682 
L 623.808909 53.432832 
L 620.759227 53.152904 
L 617.709545 50.577806 
L 614.659864 54.233026 
L 611.610182 52.919696 
L 608.5605 43.435527 
L 605.510818 34.543961 
L 602.461136 50.331443 
L 599.411455 54.719279 
L 596.361773 54.429024 
L 593.312091 53.927537 
L 590.262409 47.330722 
L 587.212727 49.700756 
L 584.163045 47.455477 
L 581.113364 49.142451 
L 578.063682 48.644585 
L 575.014 48.159508 
L 571.964318 53.848513 
L 568.914636 52.815963 
L 565.864955 50.94596 
L 562.815273 49.683558 
L 559.765591 52.57139 
L 556.715909 53.442156 
L 553.666227 52.57139 
L 550.616545 51.294266 
L 547.566864 50.501434 
L 544.517182 52.397237 
L 541.4675 52.991833 
L 538.417818 48.156426 
L 535.368136 49.873286 
L 532.318455 49.873286 
L 529.268773 51.676786 
L 526.219091 47.873748 
L 523.169409 50.192811 
L 520.119727 50.184843 
L 517.070045 50.013433 
L 514.020364 49.264202 
L 510.970682 46.959979 
L 507.921 47.95317 
L 504.871318 51.280389 
L 501.821636 50.720633 
L 498.771955 47.758677 
L 495.722273 46.528652 
L 492.672591 52.687492 
L 489.622909 51.829731 
L 486.573227 47.180167 
L 483.523545 48.692981 
L 480.473864 49.944468 
L 477.424182 51.874777 
L 474.3745 51.874777 
L 471.324818 52.312142 
L 468.275136 53.268003 
L 465.225455 53.384105 
L 462.175773 52.957899 
L 459.126091 47.753151 
L 456.076409 41.329818 
L 453.026727 53.326054 
L 449.977045 51.700624 
L 446.927364 52.57139 
L 443.877682 50.790908 
L 440.828 53.524252 
L 437.778318 53.326054 
L 434.728636 52.228308 
L 431.678955 53.616309 
L 428.629273 53.616309 
L 425.579591 53.175946 
L 422.529909 52.223083 
L 419.480227 50.409623 
L 416.430545 52.339185 
L 413.380864 50.36765 
L 410.331182 50.353772 
L 407.2815 47.091537 
L 404.231818 48.602561 
L 401.182136 48.162198 
L 398.132455 47.662219 
L 395.082773 47.008935 
L 392.033091 46.70844 
L 388.983409 46.832242 
L 385.933727 43.645625 
L 382.884045 42.770529 
L 379.834364 45.306013 
L 376.784682 46.771932 
L 373.735 46.760542 
L 370.685318 46.821172 
L 367.635636 47.11683 
L 364.585955 48.291971 
L 361.536273 47.371977 
L 358.486591 47.92788 
L 355.436909 44.548665 
L 352.387227 47.844538 
L 349.337545 43.160693 
L 346.287864 39.620375 
L 343.238182 37.640876 
L 340.1885 40.524194 
L 337.138818 38.472596 
L 334.089136 39.393764 
L 331.039455 34.313762 
L 327.989773 30.844026 
L 324.940091 36.519049 
L 321.890409 30.977183 
L 318.840727 28.038182 
L 315.791045 29.895169 
L 312.741364 43.187958 
L 309.691682 56.315193 
L 306.642 59.051409 
L 303.592318 62.173129 
L 300.542636 69.424589 
L 297.492955 59.685066 
L 294.443273 55.234651 
L 291.393591 44.26436 
L 288.343909 46.936051 
L 285.294227 49.979227 
L 282.244545 48.730297 
L 279.194864 50.135373 
L 276.145182 45.611445 
L 273.0955 48.131148 
L 270.045818 46.173183 
L 266.996136 45.088042 
L 263.946455 43.395202 
L 260.896773 40.097488 
L 257.847091 39.35951 
L 254.797409 36.319833 
L 251.747727 40.435215 
L 248.698045 32.672977 
L 245.648364 36.429147 
L 242.598682 33.083454 
L 239.549 41.115778 
L 236.499318 40.848886 
L 233.449636 43.176529 
L 230.399955 41.35407 
L 227.350273 44.660105 
L 224.300591 39.030114 
L 221.250909 43.176821 
L 218.201227 48.200051 
L 215.151545 52.214896 
L 212.101864 50.957547 
L 209.052182 57.500379 
L 206.0025 53.298178 
L 202.952818 54.770158 
L 199.903136 60.804793 
L 196.853455 71.245063 
L 193.803773 67.824816 
L 190.754091 81.321709 
L 187.704409 88.677154 
L 184.654727 101.020272 
L 181.605045 108.79105 
L 178.555364 101.214826 
L 175.505682 110.560113 
L 172.456 112.834921 
L 169.406318 103.052954 
L 166.356636 105.689516 
L 163.306955 101.732299 
L 160.257273 103.625608 
L 157.207591 97.638655 
L 154.157909 101.307301 
L 151.108227 98.06465 
L 148.058545 96.702293 
L 145.008864 116.938508 
L 141.959182 104.398722 
L 138.9095 105.780223 
L 135.859818 105.775291 
L 132.810136 103.265256 
L 129.760455 91.137588 
L 126.710773 101.96332 
L 123.661091 98.735067 
L 120.611409 96.748173 
L 117.561727 108.004805 
L 114.512045 98.705678 
L 111.462364 94.296646 
L 108.412682 91.794953 
L 105.363 96.494485 
L 102.313318 85.749441 
L 99.263636 84.848064 
L 96.213955 87.23778 
L 93.164273 90.612923 
L 90.114591 85.34176 
L 87.064909 86.332673 
L 84.015227 96.760597 
L 80.965545 108.973411 
L 77.915864 127.572814 
L 74.866182 135.689816 
L 71.8165 138.648789 
L 68.766818 146.53642 
z
" clip-path="url(#p75ed22d38b)" style="fill: #1f77b4; fill-opacity: 0.2"/>
   </g>
   <g id="matplotlib.axis_1">
    <g id="xtick_1">
     <g id="line2d_1">
      <path d="M 67.226729 390.04 
L 67.226729 10.8 
" clip-path="url(#p75ed22d38b)" style="fill: none; stroke: #b0b0b0; stroke-width: 0.8; stroke-linecap: square"/>
     </g>
     <g id="line2d_2">
      <defs>
       <path id="m4808bd122c" d="M 0 0 
L 0 3.5 
" style="stroke: #000000; stroke-width: 0.8"/>
      </defs>
      <g>
       <use xlink:href="#m4808bd122c" x="67.226729" y="390.04" style="stroke: #000000; stroke-width: 0.8"/>
      </g>
     </g>
     <g id="text_1">
      <!-- 0 -->
      <g transform="translate(64.045479 404.638438) scale(0.1 -0.1)">
       <defs>
        <path id="DejaVuSans-30" d="M 2034 4250 
Q 1547 4250 1301 3770 
Q 1056 3291 1056 2328 
Q 1056 1369 1301 889 
Q 1547 409 2034 409 
Q 2525 409 2770 889 
Q 3016 1369 3016 2328 
Q 3016 3291 2770 3770 
Q 2525 4250 2034 4250 
z
M 2034 4750 
Q 2819 4750 3233 4129 
Q 3647 3509 3647 2328 
Q 3647 1150 3233 529 
Q 2819 -91 2034 -91 
Q 1250 -91 836 529 
Q 422 1150 422 2328 
Q 422 3509 836 4129 
Q 1250 4750 2034 4750 
z
" transform="scale(0.015625)"/>
       </defs>
       <use xlink:href="#DejaVuSans-30"/>
      </g>
     </g>
    </g>
    <g id="xtick_2">
     <g id="line2d_3">
      <path d="M 143.468774 390.04 
L 143.468774 10.8 
" clip-path="url(#p75ed22d38b)" style="fill: none; stroke: #b0b0b0; stroke-width: 0.8; stroke-linecap: square"/>
     </g>
     <g id="line2d_4">
      <g>
       <use xlink:href="#m4808bd122c" x="143.468774" y="390.04" style="stroke: #000000; stroke-width: 0.8"/>
      </g>
     </g>
     <g id="text_2">
      <!-- 5000 -->
      <g transform="translate(130.743774 404.638438) scale(0.1 -0.1)">
       <defs>
        <path id="DejaVuSans-35" d="M 691 4666 
L 3169 4666 
L 3169 4134 
L 1269 4134 
L 1269 2991 
Q 1406 3038 1543 3061 
Q 1681 3084 1819 3084 
Q 2600 3084 3056 2656 
Q 3513 2228 3513 1497 
Q 3513 744 3044 326 
Q 2575 -91 1722 -91 
Q 1428 -91 1123 -41 
Q 819 9 494 109 
L 494 744 
Q 775 591 1075 516 
Q 1375 441 1709 441 
Q 2250 441 2565 725 
Q 2881 1009 2881 1497 
Q 2881 1984 2565 2268 
Q 2250 2553 1709 2553 
Q 1456 2553 1204 2497 
Q 953 2441 691 2322 
L 691 4666 
z
" transform="scale(0.015625)"/>
       </defs>
       <use xlink:href="#DejaVuSans-35"/>
       <use xlink:href="#DejaVuSans-30" transform="translate(63.623047 0)"/>
       <use xlink:href="#DejaVuSans-30" transform="translate(127.246094 0)"/>
       <use xlink:href="#DejaVuSans-30" transform="translate(190.869141 0)"/>
      </g>
     </g>
    </g>
    <g id="xtick_3">
     <g id="line2d_5">
      <path d="M 219.71082 390.04 
L 219.71082 10.8 
" clip-path="url(#p75ed22d38b)" style="fill: none; stroke: #b0b0b0; stroke-width: 0.8; stroke-linecap: square"/>
     </g>
     <g id="line2d_6">
      <g>
       <use xlink:href="#m4808bd122c" x="219.71082" y="390.04" style="stroke: #000000; stroke-width: 0.8"/>
      </g>
     </g>
     <g id="text_3">
      <!-- 10000 -->
      <g transform="translate(203.80457 404.638438) scale(0.1 -0.1)">
       <defs>
        <path id="DejaVuSans-31" d="M 794 531 
L 1825 531 
L 1825 4091 
L 703 3866 
L 703 4441 
L 1819 4666 
L 2450 4666 
L 2450 531 
L 3481 531 
L 3481 0 
L 794 0 
L 794 531 
z
" transform="scale(0.015625)"/>
       </defs>
       <use xlink:href="#DejaVuSans-31"/>
       <use xlink:href="#DejaVuSans-30" transform="translate(63.623047 0)"/>
       <use xlink:href="#DejaVuSans-30" transform="translate(127.246094 0)"/>
       <use xlink:href="#DejaVuSans-30" transform="translate(190.869141 0)"/>
       <use xlink:href="#DejaVuSans-30" transform="translate(254.492188 0)"/>
      </g>
     </g>
    </g>
    <g id="xtick_4">
     <g id="line2d_7">
      <path d="M 295.952865 390.04 
L 295.952865 10.8 
" clip-path="url(#p75ed22d38b)" style="fill: none; stroke: #b0b0b0; stroke-width: 0.8; stroke-linecap: square"/>
     </g>
     <g id="line2d_8">
      <g>
       <use xlink:href="#m4808bd122c" x="295.952865" y="390.04" style="stroke: #000000; stroke-width: 0.8"/>
      </g>
     </g>
     <g id="text_4">
      <!-- 15000 -->
      <g transform="translate(280.046615 404.638438) scale(0.1 -0.1)">
       <use xlink:href="#DejaVuSans-31"/>
       <use xlink:href="#DejaVuSans-35" transform="translate(63.623047 0)"/>
       <use xlink:href="#DejaVuSans-30" transform="translate(127.246094 0)"/>
       <use xlink:href="#DejaVuSans-30" transform="translate(190.869141 0)"/>
       <use xlink:href="#DejaVuSans-30" transform="translate(254.492188 0)"/>
      </g>
     </g>
    </g>
    <g id="xtick_5">
     <g id="line2d_9">
      <path d="M 372.194911 390.04 
L 372.194911 10.8 
" clip-path="url(#p75ed22d38b)" style="fill: none; stroke: #b0b0b0; stroke-width: 0.8; stroke-linecap: square"/>
     </g>
     <g id="line2d_10">
      <g>
       <use xlink:href="#m4808bd122c" x="372.194911" y="390.04" style="stroke: #000000; stroke-width: 0.8"/>
      </g>
     </g>
     <g id="text_5">
      <!-- 20000 -->
      <g transform="translate(356.288661 404.638438) scale(0.1 -0.1)">
       <defs>
        <path id="DejaVuSans-32" d="M 1228 531 
L 3431 531 
L 3431 0 
L 469 0 
L 469 531 
Q 828 903 1448 1529 
Q 2069 2156 2228 2338 
Q 2531 2678 2651 2914 
Q 2772 3150 2772 3378 
Q 2772 3750 2511 3984 
Q 2250 4219 1831 4219 
Q 1534 4219 1204 4116 
Q 875 4013 500 3803 
L 500 4441 
Q 881 4594 1212 4672 
Q 1544 4750 1819 4750 
Q 2544 4750 2975 4387 
Q 3406 4025 3406 3419 
Q 3406 3131 3298 2873 
Q 3191 2616 2906 2266 
Q 2828 2175 2409 1742 
Q 1991 1309 1228 531 
z
" transform="scale(0.015625)"/>
       </defs>
       <use xlink:href="#DejaVuSans-32"/>
       <use xlink:href="#DejaVuSans-30" transform="translate(63.623047 0)"/>
       <use xlink:href="#DejaVuSans-30" transform="translate(127.246094 0)"/>
       <use xlink:href="#DejaVuSans-30" transform="translate(190.869141 0)"/>
       <use xlink:href="#DejaVuSans-30" transform="translate(254.492188 0)"/>
      </g>
     </g>
    </g>
    <g id="xtick_6">
     <g id="line2d_11">
      <path d="M 448.436956 390.04 
L 448.436956 10.8 
" clip-path="url(#p75ed22d38b)" style="fill: none; stroke: #b0b0b0; stroke-width: 0.8; stroke-linecap: square"/>
     </g>
     <g id="line2d_12">
      <g>
       <use xlink:href="#m4808bd122c" x="448.436956" y="390.04" style="stroke: #000000; stroke-width: 0.8"/>
      </g>
     </g>
     <g id="text_6">
      <!-- 25000 -->
      <g transform="translate(432.530706 404.638438) scale(0.1 -0.1)">
       <use xlink:href="#DejaVuSans-32"/>
       <use xlink:href="#DejaVuSans-35" transform="translate(63.623047 0)"/>
       <use xlink:href="#DejaVuSans-30" transform="translate(127.246094 0)"/>
       <use xlink:href="#DejaVuSans-30" transform="translate(190.869141 0)"/>
       <use xlink:href="#DejaVuSans-30" transform="translate(254.492188 0)"/>
      </g>
     </g>
    </g>
    <g id="xtick_7">
     <g id="line2d_13">
      <path d="M 524.679002 390.04 
L 524.679002 10.8 
" clip-path="url(#p75ed22d38b)" style="fill: none; stroke: #b0b0b0; stroke-width: 0.8; stroke-linecap: square"/>
     </g>
     <g id="line2d_14">
      <g>
       <use xlink:href="#m4808bd122c" x="524.679002" y="390.04" style="stroke: #000000; stroke-width: 0.8"/>
      </g>
     </g>
     <g id="text_7">
      <!-- 30000 -->
      <g transform="translate(508.772752 404.638438) scale(0.1 -0.1)">
       <defs>
        <path id="DejaVuSans-33" d="M 2597 2516 
Q 3050 2419 3304 2112 
Q 3559 1806 3559 1356 
Q 3559 666 3084 287 
Q 2609 -91 1734 -91 
Q 1441 -91 1130 -33 
Q 819 25 488 141 
L 488 750 
Q 750 597 1062 519 
Q 1375 441 1716 441 
Q 2309 441 2620 675 
Q 2931 909 2931 1356 
Q 2931 1769 2642 2001 
Q 2353 2234 1838 2234 
L 1294 2234 
L 1294 2753 
L 1863 2753 
Q 2328 2753 2575 2939 
Q 2822 3125 2822 3475 
Q 2822 3834 2567 4026 
Q 2313 4219 1838 4219 
Q 1578 4219 1281 4162 
Q 984 4106 628 3988 
L 628 4550 
Q 988 4650 1302 4700 
Q 1616 4750 1894 4750 
Q 2613 4750 3031 4423 
Q 3450 4097 3450 3541 
Q 3450 3153 3228 2886 
Q 3006 2619 2597 2516 
z
" transform="scale(0.015625)"/>
       </defs>
       <use xlink:href="#DejaVuSans-33"/>
       <use xlink:href="#DejaVuSans-30" transform="translate(63.623047 0)"/>
       <use xlink:href="#DejaVuSans-30" transform="translate(127.246094 0)"/>
       <use xlink:href="#DejaVuSans-30" transform="translate(190.869141 0)"/>
       <use xlink:href="#DejaVuSans-30" transform="translate(254.492188 0)"/>
      </g>
     </g>
    </g>
    <g id="xtick_8">
     <g id="line2d_15">
      <path d="M 600.921047 390.04 
L 600.921047 10.8 
" clip-path="url(#p75ed22d38b)" style="fill: none; stroke: #b0b0b0; stroke-width: 0.8; stroke-linecap: square"/>
     </g>
     <g id="line2d_16">
      <g>
       <use xlink:href="#m4808bd122c" x="600.921047" y="390.04" style="stroke: #000000; stroke-width: 0.8"/>
      </g>
     </g>
     <g id="text_8">
      <!-- 35000 -->
      <g transform="translate(585.014797 404.638438) scale(0.1 -0.1)">
       <use xlink:href="#DejaVuSans-33"/>
       <use xlink:href="#DejaVuSans-35" transform="translate(63.623047 0)"/>
       <use xlink:href="#DejaVuSans-30" transform="translate(127.246094 0)"/>
       <use xlink:href="#DejaVuSans-30" transform="translate(190.869141 0)"/>
       <use xlink:href="#DejaVuSans-30" transform="translate(254.492188 0)"/>
      </g>
     </g>
    </g>
    <g id="xtick_9">
     <g id="line2d_17">
      <path d="M 677.163093 390.04 
L 677.163093 10.8 
" clip-path="url(#p75ed22d38b)" style="fill: none; stroke: #b0b0b0; stroke-width: 0.8; stroke-linecap: square"/>
     </g>
     <g id="line2d_18">
      <g>
       <use xlink:href="#m4808bd122c" x="677.163093" y="390.04" style="stroke: #000000; stroke-width: 0.8"/>
      </g>
     </g>
     <g id="text_9">
      <!-- 40000 -->
      <g transform="translate(661.256843 404.638438) scale(0.1 -0.1)">
       <defs>
        <path id="DejaVuSans-34" d="M 2419 4116 
L 825 1625 
L 2419 1625 
L 2419 4116 
z
M 2253 4666 
L 3047 4666 
L 3047 1625 
L 3713 1625 
L 3713 1100 
L 3047 1100 
L 3047 0 
L 2419 0 
L 2419 1100 
L 313 1100 
L 313 1709 
L 2253 4666 
z
" transform="scale(0.015625)"/>
       </defs>
       <use xlink:href="#DejaVuSans-34"/>
       <use xlink:href="#DejaVuSans-30" transform="translate(63.623047 0)"/>
       <use xlink:href="#DejaVuSans-30" transform="translate(127.246094 0)"/>
       <use xlink:href="#DejaVuSans-30" transform="translate(190.869141 0)"/>
       <use xlink:href="#DejaVuSans-30" transform="translate(254.492188 0)"/>
      </g>
     </g>
    </g>
    <g id="text_10">
     <!-- Episodes -->
     <g transform="translate(351.492813 418.316562) scale(0.1 -0.1)">
      <defs>
       <path id="DejaVuSans-45" d="M 628 4666 
L 3578 4666 
L 3578 4134 
L 1259 4134 
L 1259 2753 
L 3481 2753 
L 3481 2222 
L 1259 2222 
L 1259 531 
L 3634 531 
L 3634 0 
L 628 0 
L 628 4666 
z
" transform="scale(0.015625)"/>
       <path id="DejaVuSans-70" d="M 1159 525 
L 1159 -1331 
L 581 -1331 
L 581 3500 
L 1159 3500 
L 1159 2969 
Q 1341 3281 1617 3432 
Q 1894 3584 2278 3584 
Q 2916 3584 3314 3078 
Q 3713 2572 3713 1747 
Q 3713 922 3314 415 
Q 2916 -91 2278 -91 
Q 1894 -91 1617 61 
Q 1341 213 1159 525 
z
M 3116 1747 
Q 3116 2381 2855 2742 
Q 2594 3103 2138 3103 
Q 1681 3103 1420 2742 
Q 1159 2381 1159 1747 
Q 1159 1113 1420 752 
Q 1681 391 2138 391 
Q 2594 391 2855 752 
Q 3116 1113 3116 1747 
z
" transform="scale(0.015625)"/>
       <path id="DejaVuSans-69" d="M 603 3500 
L 1178 3500 
L 1178 0 
L 603 0 
L 603 3500 
z
M 603 4863 
L 1178 4863 
L 1178 4134 
L 603 4134 
L 603 4863 
z
" transform="scale(0.015625)"/>
       <path id="DejaVuSans-73" d="M 2834 3397 
L 2834 2853 
Q 2591 2978 2328 3040 
Q 2066 3103 1784 3103 
Q 1356 3103 1142 2972 
Q 928 2841 928 2578 
Q 928 2378 1081 2264 
Q 1234 2150 1697 2047 
L 1894 2003 
Q 2506 1872 2764 1633 
Q 3022 1394 3022 966 
Q 3022 478 2636 193 
Q 2250 -91 1575 -91 
Q 1294 -91 989 -36 
Q 684 19 347 128 
L 347 722 
Q 666 556 975 473 
Q 1284 391 1588 391 
Q 1994 391 2212 530 
Q 2431 669 2431 922 
Q 2431 1156 2273 1281 
Q 2116 1406 1581 1522 
L 1381 1569 
Q 847 1681 609 1914 
Q 372 2147 372 2553 
Q 372 3047 722 3315 
Q 1072 3584 1716 3584 
Q 2034 3584 2315 3537 
Q 2597 3491 2834 3397 
z
" transform="scale(0.015625)"/>
       <path id="DejaVuSans-6f" d="M 1959 3097 
Q 1497 3097 1228 2736 
Q 959 2375 959 1747 
Q 959 1119 1226 758 
Q 1494 397 1959 397 
Q 2419 397 2687 759 
Q 2956 1122 2956 1747 
Q 2956 2369 2687 2733 
Q 2419 3097 1959 3097 
z
M 1959 3584 
Q 2709 3584 3137 3096 
Q 3566 2609 3566 1747 
Q 3566 888 3137 398 
Q 2709 -91 1959 -91 
Q 1206 -91 779 398 
Q 353 888 353 1747 
Q 353 2609 779 3096 
Q 1206 3584 1959 3584 
z
" transform="scale(0.015625)"/>
       <path id="DejaVuSans-64" d="M 2906 2969 
L 2906 4863 
L 3481 4863 
L 3481 0 
L 2906 0 
L 2906 525 
Q 2725 213 2448 61 
Q 2172 -91 1784 -91 
Q 1150 -91 751 415 
Q 353 922 353 1747 
Q 353 2572 751 3078 
Q 1150 3584 1784 3584 
Q 2172 3584 2448 3432 
Q 2725 3281 2906 2969 
z
M 947 1747 
Q 947 1113 1208 752 
Q 1469 391 1925 391 
Q 2381 391 2643 752 
Q 2906 1113 2906 1747 
Q 2906 2381 2643 2742 
Q 2381 3103 1925 3103 
Q 1469 3103 1208 2742 
Q 947 2381 947 1747 
z
" transform="scale(0.015625)"/>
       <path id="DejaVuSans-65" d="M 3597 1894 
L 3597 1613 
L 953 1613 
Q 991 1019 1311 708 
Q 1631 397 2203 397 
Q 2534 397 2845 478 
Q 3156 559 3463 722 
L 3463 178 
Q 3153 47 2828 -22 
Q 2503 -91 2169 -91 
Q 1331 -91 842 396 
Q 353 884 353 1716 
Q 353 2575 817 3079 
Q 1281 3584 2069 3584 
Q 2775 3584 3186 3129 
Q 3597 2675 3597 1894 
z
M 3022 2063 
Q 3016 2534 2758 2815 
Q 2500 3097 2075 3097 
Q 1594 3097 1305 2825 
Q 1016 2553 972 2059 
L 3022 2063 
z
" transform="scale(0.015625)"/>
      </defs>
      <use xlink:href="#DejaVuSans-45"/>
      <use xlink:href="#DejaVuSans-70" transform="translate(63.183594 0)"/>
      <use xlink:href="#DejaVuSans-69" transform="translate(126.660156 0)"/>
      <use xlink:href="#DejaVuSans-73" transform="translate(154.443359 0)"/>
      <use xlink:href="#DejaVuSans-6f" transform="translate(206.542969 0)"/>
      <use xlink:href="#DejaVuSans-64" transform="translate(267.724609 0)"/>
      <use xlink:href="#DejaVuSans-65" transform="translate(331.201172 0)"/>
      <use xlink:href="#DejaVuSans-73" transform="translate(392.724609 0)"/>
     </g>
    </g>
   </g>
   <g id="matplotlib.axis_2">
    <g id="ytick_1">
     <g id="line2d_19">
      <path d="M 38.27 307.739775 
L 709.2 307.739775 
" clip-path="url(#p75ed22d38b)" style="fill: none; stroke: #b0b0b0; stroke-width: 0.8; stroke-linecap: square"/>
     </g>
     <g id="line2d_20">
      <defs>
       <path id="m514333ead1" d="M 0 0 
L -3.5 0 
" style="stroke: #000000; stroke-width: 0.8"/>
      </defs>
      <g>
       <use xlink:href="#m514333ead1" x="38.27" y="307.739775" style="stroke: #000000; stroke-width: 0.8"/>
      </g>
     </g>
     <g id="text_11">
      <!-- 3 -->
      <g transform="translate(24.9075 311.538994) scale(0.1 -0.1)">
       <use xlink:href="#DejaVuSans-33"/>
      </g>
     </g>
    </g>
    <g id="ytick_2">
     <g id="line2d_21">
      <path d="M 38.27 223.651164 
L 709.2 223.651164 
" clip-path="url(#p75ed22d38b)" style="fill: none; stroke: #b0b0b0; stroke-width: 0.8; stroke-linecap: square"/>
     </g>
     <g id="line2d_22">
      <g>
       <use xlink:href="#m514333ead1" x="38.27" y="223.651164" style="stroke: #000000; stroke-width: 0.8"/>
      </g>
     </g>
     <g id="text_12">
      <!-- 4 -->
      <g transform="translate(24.9075 227.450383) scale(0.1 -0.1)">
       <use xlink:href="#DejaVuSans-34"/>
      </g>
     </g>
    </g>
    <g id="ytick_3">
     <g id="line2d_23">
      <path d="M 38.27 139.562554 
L 709.2 139.562554 
" clip-path="url(#p75ed22d38b)" style="fill: none; stroke: #b0b0b0; stroke-width: 0.8; stroke-linecap: square"/>
     </g>
     <g id="line2d_24">
      <g>
       <use xlink:href="#m514333ead1" x="38.27" y="139.562554" style="stroke: #000000; stroke-width: 0.8"/>
      </g>
     </g>
     <g id="text_13">
      <!-- 5 -->
      <g transform="translate(24.9075 143.361773) scale(0.1 -0.1)">
       <use xlink:href="#DejaVuSans-35"/>
      </g>
     </g>
    </g>
    <g id="ytick_4">
     <g id="line2d_25">
      <path d="M 38.27 55.473943 
L 709.2 55.473943 
" clip-path="url(#p75ed22d38b)" style="fill: none; stroke: #b0b0b0; stroke-width: 0.8; stroke-linecap: square"/>
     </g>
     <g id="line2d_26">
      <g>
       <use xlink:href="#m514333ead1" x="38.27" y="55.473943" style="stroke: #000000; stroke-width: 0.8"/>
      </g>
     </g>
     <g id="text_14">
      <!-- 6 -->
      <g transform="translate(24.9075 59.273162) scale(0.1 -0.1)">
       <defs>
        <path id="DejaVuSans-36" d="M 2113 2584 
Q 1688 2584 1439 2293 
Q 1191 2003 1191 1497 
Q 1191 994 1439 701 
Q 1688 409 2113 409 
Q 2538 409 2786 701 
Q 3034 994 3034 1497 
Q 3034 2003 2786 2293 
Q 2538 2584 2113 2584 
z
M 3366 4563 
L 3366 3988 
Q 3128 4100 2886 4159 
Q 2644 4219 2406 4219 
Q 1781 4219 1451 3797 
Q 1122 3375 1075 2522 
Q 1259 2794 1537 2939 
Q 1816 3084 2150 3084 
Q 2853 3084 3261 2657 
Q 3669 2231 3669 1497 
Q 3669 778 3244 343 
Q 2819 -91 2113 -91 
Q 1303 -91 875 529 
Q 447 1150 447 2328 
Q 447 3434 972 4092 
Q 1497 4750 2381 4750 
Q 2619 4750 2861 4703 
Q 3103 4656 3366 4563 
z
" transform="scale(0.015625)"/>
       </defs>
       <use xlink:href="#DejaVuSans-36"/>
      </g>
     </g>
    </g>
    <g id="text_15">
     <!-- Circuit Depth -->
     <g transform="translate(18.827813 233.329375) rotate(-90) scale(0.1 -0.1)">
      <defs>
       <path id="DejaVuSans-43" d="M 4122 4306 
L 4122 3641 
Q 3803 3938 3442 4084 
Q 3081 4231 2675 4231 
Q 1875 4231 1450 3742 
Q 1025 3253 1025 2328 
Q 1025 1406 1450 917 
Q 1875 428 2675 428 
Q 3081 428 3442 575 
Q 3803 722 4122 1019 
L 4122 359 
Q 3791 134 3420 21 
Q 3050 -91 2638 -91 
Q 1578 -91 968 557 
Q 359 1206 359 2328 
Q 359 3453 968 4101 
Q 1578 4750 2638 4750 
Q 3056 4750 3426 4639 
Q 3797 4528 4122 4306 
z
" transform="scale(0.015625)"/>
       <path id="DejaVuSans-72" d="M 2631 2963 
Q 2534 3019 2420 3045 
Q 2306 3072 2169 3072 
Q 1681 3072 1420 2755 
Q 1159 2438 1159 1844 
L 1159 0 
L 581 0 
L 581 3500 
L 1159 3500 
L 1159 2956 
Q 1341 3275 1631 3429 
Q 1922 3584 2338 3584 
Q 2397 3584 2469 3576 
Q 2541 3569 2628 3553 
L 2631 2963 
z
" transform="scale(0.015625)"/>
       <path id="DejaVuSans-63" d="M 3122 3366 
L 3122 2828 
Q 2878 2963 2633 3030 
Q 2388 3097 2138 3097 
Q 1578 3097 1268 2742 
Q 959 2388 959 1747 
Q 959 1106 1268 751 
Q 1578 397 2138 397 
Q 2388 397 2633 464 
Q 2878 531 3122 666 
L 3122 134 
Q 2881 22 2623 -34 
Q 2366 -91 2075 -91 
Q 1284 -91 818 406 
Q 353 903 353 1747 
Q 353 2603 823 3093 
Q 1294 3584 2113 3584 
Q 2378 3584 2631 3529 
Q 2884 3475 3122 3366 
z
" transform="scale(0.015625)"/>
       <path id="DejaVuSans-75" d="M 544 1381 
L 544 3500 
L 1119 3500 
L 1119 1403 
Q 1119 906 1312 657 
Q 1506 409 1894 409 
Q 2359 409 2629 706 
Q 2900 1003 2900 1516 
L 2900 3500 
L 3475 3500 
L 3475 0 
L 2900 0 
L 2900 538 
Q 2691 219 2414 64 
Q 2138 -91 1772 -91 
Q 1169 -91 856 284 
Q 544 659 544 1381 
z
M 1991 3584 
L 1991 3584 
z
" transform="scale(0.015625)"/>
       <path id="DejaVuSans-74" d="M 1172 4494 
L 1172 3500 
L 2356 3500 
L 2356 3053 
L 1172 3053 
L 1172 1153 
Q 1172 725 1289 603 
Q 1406 481 1766 481 
L 2356 481 
L 2356 0 
L 1766 0 
Q 1100 0 847 248 
Q 594 497 594 1153 
L 594 3053 
L 172 3053 
L 172 3500 
L 594 3500 
L 594 4494 
L 1172 4494 
z
" transform="scale(0.015625)"/>
       <path id="DejaVuSans-20" transform="scale(0.015625)"/>
       <path id="DejaVuSans-44" d="M 1259 4147 
L 1259 519 
L 2022 519 
Q 2988 519 3436 956 
Q 3884 1394 3884 2338 
Q 3884 3275 3436 3711 
Q 2988 4147 2022 4147 
L 1259 4147 
z
M 628 4666 
L 1925 4666 
Q 3281 4666 3915 4102 
Q 4550 3538 4550 2338 
Q 4550 1131 3912 565 
Q 3275 0 1925 0 
L 628 0 
L 628 4666 
z
" transform="scale(0.015625)"/>
       <path id="DejaVuSans-68" d="M 3513 2113 
L 3513 0 
L 2938 0 
L 2938 2094 
Q 2938 2591 2744 2837 
Q 2550 3084 2163 3084 
Q 1697 3084 1428 2787 
Q 1159 2491 1159 1978 
L 1159 0 
L 581 0 
L 581 4863 
L 1159 4863 
L 1159 2956 
Q 1366 3272 1645 3428 
Q 1925 3584 2291 3584 
Q 2894 3584 3203 3211 
Q 3513 2838 3513 2113 
z
" transform="scale(0.015625)"/>
      </defs>
      <use xlink:href="#DejaVuSans-43"/>
      <use xlink:href="#DejaVuSans-69" transform="translate(69.824219 0)"/>
      <use xlink:href="#DejaVuSans-72" transform="translate(97.607422 0)"/>
      <use xlink:href="#DejaVuSans-63" transform="translate(136.470703 0)"/>
      <use xlink:href="#DejaVuSans-75" transform="translate(191.451172 0)"/>
      <use xlink:href="#DejaVuSans-69" transform="translate(254.830078 0)"/>
      <use xlink:href="#DejaVuSans-74" transform="translate(282.613281 0)"/>
      <use xlink:href="#DejaVuSans-20" transform="translate(321.822266 0)"/>
      <use xlink:href="#DejaVuSans-44" transform="translate(353.609375 0)"/>
      <use xlink:href="#DejaVuSans-65" transform="translate(430.611328 0)"/>
      <use xlink:href="#DejaVuSans-70" transform="translate(492.134766 0)"/>
      <use xlink:href="#DejaVuSans-74" transform="translate(555.611328 0)"/>
      <use xlink:href="#DejaVuSans-68" transform="translate(594.820312 0)"/>
     </g>
    </g>
   </g>
   <g id="line2d_27">
    <path d="M 68.766818 259.669119 
L 71.8165 254.063212 
L 74.866182 253.222326 
L 77.915864 242.290806 
L 80.965545 220.28762 
L 84.015227 204.450932 
L 87.064909 196.882957 
L 90.114591 196.742809 
L 93.164273 198.564729 
L 96.213955 185.390847 
L 99.263636 198.564729 
L 102.313318 202.909307 
L 105.363 199.966206 
L 108.412682 210.897725 
L 111.462364 217.905109 
L 114.512045 222.810278 
L 117.561727 230.938844 
L 120.611409 216.363485 
L 123.661091 233.461502 
L 126.710773 219.586882 
L 129.760455 212.299202 
L 132.810136 232.060026 
L 135.859818 224.211755 
L 138.9095 217.905109 
L 141.959182 218.045257 
L 145.008864 226.173823 
L 148.058545 216.223337 
L 151.108227 199.826058 
L 154.157909 208.515215 
L 157.207591 209.916691 
L 160.257273 210.337134 
L 163.306955 207.113738 
L 166.356636 212.43935 
L 169.406318 209.215953 
L 172.456 222.670131 
L 175.505682 216.223337 
L 178.555364 204.310784 
L 181.605045 214.121122 
L 184.654727 209.075805 
L 187.704409 198.845024 
L 190.754091 184.409813 
L 193.803773 180.34553 
L 196.853455 184.970404 
L 199.903136 166.891352 
L 202.952818 156.520424 
L 206.0025 156.940867 
L 209.052182 162.827069 
L 212.101864 139.562554 
L 215.151545 141.804917 
L 218.201227 137.740634 
L 221.250909 140.543588 
L 224.300591 140.123145 
L 227.350273 131.153693 
L 230.399955 128.91133 
L 233.449636 120.222173 
L 236.499318 118.119958 
L 239.549 123.44557 
L 242.598682 129.331773 
L 245.648364 131.293841 
L 248.698045 126.388672 
L 251.747727 122.464536 
L 254.797409 131.153693 
L 257.847091 120.922912 
L 260.896773 118.820697 
L 263.946455 110.411836 
L 266.996136 107.328587 
L 270.045818 104.946076 
L 273.0955 95.416033 
L 276.145182 93.033523 
L 279.194864 78.598311 
L 282.244545 85.465548 
L 285.294227 88.548797 
L 288.343909 95.556181 
L 291.393591 127.790148 
L 294.443273 163.667956 
L 297.492955 177.963019 
L 300.542636 189.875573 
L 306.642 174.739623 
L 309.691682 175.300213 
L 312.741364 162.827069 
L 315.791045 158.062048 
L 318.840727 138.301225 
L 321.890409 132.55517 
L 324.940091 121.763798 
L 327.989773 125.407638 
L 331.039455 121.343355 
L 334.089136 102.984008 
L 337.138818 108.730063 
L 340.1885 100.741645 
L 343.238182 106.627848 
L 346.287864 99.200021 
L 349.337545 95.976624 
L 352.387227 82.382299 
L 355.436909 83.643628 
L 358.486591 90.931307 
L 361.536273 88.688944 
L 364.585955 79.158902 
L 367.635636 94.014556 
L 370.685318 108.30962 
L 373.735 91.211603 
L 376.784682 84.064071 
L 379.834364 84.904957 
L 382.884045 94.575147 
L 385.933727 93.594113 
L 388.983409 80.700526 
L 392.033091 78.738459 
L 395.082773 78.458164 
L 398.132455 78.03772 
L 401.182136 77.757425 
L 404.231818 76.215801 
L 407.2815 91.912341 
L 410.331182 69.628859 
L 413.380864 68.928121 
L 416.430545 63.041918 
L 419.480227 68.36753 
L 422.529909 63.322214 
L 425.579591 61.500294 
L 428.629273 59.958669 
L 431.678955 59.958669 
L 434.728636 64.583543 
L 437.778318 60.659408 
L 440.828 60.659408 
L 443.877682 67.386496 
L 446.927364 62.481328 
L 449.977045 64.583543 
L 453.026727 60.659408 
L 456.076409 91.912341 
L 459.126091 74.113585 
L 462.175773 62.761623 
L 465.225455 60.51926 
L 468.275136 60.799555 
L 471.324818 66.825906 
L 474.3745 64.1631 
L 477.424182 64.1631 
L 480.473864 71.310632 
L 483.523545 74.814324 
L 486.573227 81.821708 
L 489.622909 66.265315 
L 492.672591 62.201032 
L 495.722273 79.719493 
L 498.771955 79.579345 
L 501.821636 70.18945 
L 504.871318 66.265315 
L 507.921 84.764809 
L 510.970682 86.306434 
L 514.020364 75.65521 
L 517.070045 70.469746 
L 520.119727 71.310632 
L 523.169409 71.310632 
L 526.219091 78.177868 
L 529.268773 66.265315 
L 532.318455 70.329598 
L 535.368136 70.329598 
L 538.417818 77.336982 
L 541.4675 62.901771 
L 544.517182 62.901771 
L 547.566864 72.712108 
L 550.616545 65.564577 
L 553.666227 62.481328 
L 556.715909 60.379112 
L 559.765591 62.481328 
L 562.815273 70.609893 
L 565.864955 66.405463 
L 568.914636 64.1631 
L 571.964318 59.398078 
L 575.014 73.132552 
L 578.063682 79.018754 
L 581.113364 73.272699 
L 584.163045 78.458164 
L 587.212727 72.712108 
L 590.262409 80.700526 
L 593.312091 61.219998 
L 596.361773 57.996602 
L 599.411455 57.295863 
L 602.461136 68.36753 
L 605.510818 109.711097 
L 608.5605 85.185252 
L 611.610182 61.640441 
L 614.659864 59.117783 
L 617.709545 68.507678 
L 620.759227 62.34118 
L 623.808909 61.079851 
L 626.858591 58.557192 
L 629.908273 59.257931 
L 632.957955 58.276897 
L 636.007636 60.659408 
L 639.057318 58.557192 
L 642.107 58.557192 
L 645.156682 57.436011 
L 648.206364 58.557192 
L 651.256045 56.735272 
L 654.305727 65.424429 
L 657.355409 59.958669 
L 660.405091 71.310632 
L 663.454773 62.621475 
L 666.504455 59.678374 
L 669.554136 59.257931 
L 672.603818 59.818522 
L 675.6535 59.117783 
L 678.703182 64.72369 
L 678.703182 64.72369 
" clip-path="url(#p75ed22d38b)" style="fill: none; stroke: #1f77b4; stroke-width: 1.5; stroke-linecap: square"/>
   </g>
   <g id="patch_3">
    <path d="M 38.27 390.04 
L 38.27 10.8 
" style="fill: none; stroke: #000000; stroke-width: 0.8; stroke-linejoin: miter; stroke-linecap: square"/>
   </g>
   <g id="patch_4">
    <path d="M 709.2 390.04 
L 709.2 10.8 
" style="fill: none; stroke: #000000; stroke-width: 0.8; stroke-linejoin: miter; stroke-linecap: square"/>
   </g>
   <g id="patch_5">
    <path d="M 38.27 390.04 
L 709.2 390.04 
" style="fill: none; stroke: #000000; stroke-width: 0.8; stroke-linejoin: miter; stroke-linecap: square"/>
   </g>
   <g id="patch_6">
    <path d="M 38.27 10.8 
L 709.2 10.8 
" style="fill: none; stroke: #000000; stroke-width: 0.8; stroke-linejoin: miter; stroke-linecap: square"/>
   </g>
  </g>
 </g>
 <defs>
  <clipPath id="p75ed22d38b">
   <rect x="38.27" y="10.8" width="670.93" height="379.24"/>
  </clipPath>
 </defs>
</svg>
