<?xml version="1.0" encoding="utf-8" standalone="no"?>
<!DOCTYPE svg PUBLIC "-//W3C//DTD SVG 1.1//EN"
  "http://www.w3.org/Graphics/SVG/1.1/DTD/svg11.dtd">
<svg xmlns:xlink="http://www.w3.org/1999/xlink" width="720pt" height="432pt" viewBox="0 0 720 432" xmlns="http://www.w3.org/2000/svg" version="1.1">
 <metadata>
  <rdf:RDF xmlns:dc="http://purl.org/dc/elements/1.1/" xmlns:cc="http://creativecommons.org/ns#" xmlns:rdf="http://www.w3.org/1999/02/22-rdf-syntax-ns#">
   <cc:Work>
    <dc:type rdf:resource="http://purl.org/dc/dcmitype/StillImage"/>
    <dc:date>2025-04-22T23:10:23.414672</dc:date>
    <dc:format>image/svg+xml</dc:format>
    <dc:creator>
     <cc:Agent>
      <dc:title>Matplotlib v3.10.0, https://matplotlib.org/</dc:title>
     </cc:Agent>
    </dc:creator>
   </cc:Work>
  </rdf:RDF>
 </metadata>
 <defs>
  <style type="text/css">*{stroke-linejoin: round; stroke-linecap: butt}</style>
 </defs>
 <g id="figure_1">
  <g id="patch_1">
   <path d="M 0 432 
L 720 432 
L 720 0 
L 0 0 
z
" style="fill: #ffffff"/>
  </g>
  <g id="axes_1">
   <g id="patch_2">
    <path d="M 53.93 390.04 
L 709.2 390.04 
L 709.2 10.8 
L 53.93 10.8 
z
" style="fill: #ffffff"/>
   </g>
   <g id="FillBetweenPolyCollection_1">
    <path d="M 83.715 217.335495 
L 83.715 351.25247 
L 86.6935 342.779545 
L 89.672 340.355716 
L 92.6505 332.896093 
L 95.629 336.38063 
L 98.6075 331.781177 
L 101.586 343.761779 
L 104.5645 342.877192 
L 107.543 346.951115 
L 110.5215 345.997754 
L 113.5 356.003204 
L 116.4785 362.03881 
L 119.457 362.587127 
L 122.4355 365.40582 
L 125.414 361.020375 
L 128.3925 364.312397 
L 131.371 365.115107 
L 134.3495 364.963523 
L 137.328 368.707392 
L 140.3065 366.644584 
L 143.285 363.052548 
L 146.2635 369.992312 
L 149.242 370.23129 
L 152.2205 370.447269 
L 155.199 366.525039 
L 158.1775 372.801818 
L 161.156 368.956613 
L 164.1345 370.364724 
L 167.113 371.757029 
L 170.0915 366.242837 
L 173.07 364.418064 
L 176.0485 363.819445 
L 179.027 367.241199 
L 182.0055 363.130107 
L 184.984 362.712315 
L 187.9625 362.301249 
L 190.941 364.527558 
L 193.9195 359.949339 
L 196.898 364.677472 
L 199.8765 355.802156 
L 202.855 342.693572 
L 205.8335 344.164928 
L 208.812 339.063041 
L 211.7905 339.904298 
L 214.769 337.333273 
L 217.7475 347.857903 
L 220.726 347.984514 
L 223.7045 345.262251 
L 226.683 351.383945 
L 229.6615 341.368197 
L 232.64 320.605284 
L 235.6185 315.372265 
L 238.597 289.225208 
L 241.5755 279.098065 
L 244.554 263.744627 
L 247.5325 259.056815 
L 250.511 270.254182 
L 253.4895 279.88356 
L 256.468 286.8951 
L 259.4465 287.588097 
L 262.425 288.716718 
L 265.4035 291.314118 
L 268.382 292.37073 
L 271.3605 298.874992 
L 274.339 295.146407 
L 277.3175 288.029294 
L 280.296 279.543349 
L 283.2745 266.620057 
L 286.253 240.379352 
L 289.2315 215.327511 
L 292.21 237.337197 
L 295.1885 243.296924 
L 298.167 245.297368 
L 301.1455 285.199189 
L 304.124 325.398352 
L 307.1025 343.209472 
L 310.081 351.354053 
L 313.0595 346.077774 
L 316.038 342.723663 
L 319.0165 335.678978 
L 321.995 313.0987 
L 324.9735 303.075331 
L 327.952 271.670519 
L 330.9305 271.294363 
L 333.909 300.063838 
L 336.8875 324.402005 
L 339.866 300.73504 
L 342.8445 251.44806 
L 345.823 239.004061 
L 348.8015 206.018517 
L 351.78 215.691572 
L 354.7585 183.60714 
L 357.737 173.572924 
L 360.7155 150.228585 
L 363.694 153.09919 
L 366.6725 151.320145 
L 369.651 143.802384 
L 372.6295 120.039869 
L 375.608 145.47827 
L 378.5865 197.7535 
L 381.565 151.724284 
L 384.5435 138.61052 
L 387.522 134.203713 
L 390.5005 168.333594 
L 393.479 158.003291 
L 396.4575 133.688494 
L 399.436 127.736023 
L 402.4145 125.647765 
L 405.393 137.939495 
L 408.3715 151.11978 
L 411.35 176.912429 
L 414.3285 231.475853 
L 417.307 203.790884 
L 420.2855 191.490027 
L 423.264 201.861981 
L 426.2425 245.786362 
L 429.221 265.098474 
L 432.1995 255.655167 
L 435.178 243.890983 
L 438.1565 255.553734 
L 441.135 263.324076 
L 444.1135 242.219698 
L 447.092 240.61696 
L 450.0705 259.895991 
L 453.049 229.99182 
L 456.0275 221.569523 
L 459.006 225.120698 
L 461.9845 257.708885 
L 464.963 239.600597 
L 467.9415 216.465631 
L 470.92 218.728164 
L 473.8985 221.886893 
L 476.877 217.873864 
L 479.8555 232.868696 
L 482.834 231.73271 
L 485.8125 240.362798 
L 488.791 251.880643 
L 491.7695 255.801397 
L 494.748 220.144322 
L 497.7265 200.047778 
L 500.705 235.757329 
L 503.6835 234.548315 
L 506.662 227.884264 
L 509.6405 224.525483 
L 512.619 266.009581 
L 515.5975 234.778523 
L 518.576 219.805633 
L 521.5545 186.535562 
L 524.533 169.983773 
L 527.5115 168.439391 
L 530.49 182.816763 
L 533.4685 166.551878 
L 536.447 151.737795 
L 539.4255 144.286495 
L 542.404 170.529739 
L 545.3825 125.25193 
L 548.361 131.032615 
L 551.3395 190.082888 
L 554.318 150.78868 
L 557.2965 126.522248 
L 560.275 113.463464 
L 563.2535 139.997319 
L 566.232 152.691809 
L 569.2105 151.301561 
L 572.189 160.085092 
L 575.1675 130.889155 
L 578.146 163.320213 
L 581.1245 187.469776 
L 584.103 209.115554 
L 587.0815 221.954087 
L 590.06 191.612612 
L 593.0385 220.3511 
L 596.017 176.459064 
L 598.9955 188.613255 
L 601.974 191.387713 
L 604.9525 224.788346 
L 607.931 297.541068 
L 610.9095 234.970837 
L 613.888 151.594077 
L 616.8665 127.153832 
L 619.845 138.900517 
L 622.8235 137.208905 
L 625.802 123.691979 
L 628.7805 120.969929 
L 631.759 119.842199 
L 634.7375 106.066955 
L 637.716 110.901042 
L 640.6945 104.049216 
L 643.673 102.41245 
L 646.6515 99.773003 
L 649.63 96.391097 
L 652.6085 91.740677 
L 655.587 121.979923 
L 658.5655 104.248241 
L 661.544 148.815453 
L 664.5225 133.533449 
L 667.501 122.190817 
L 670.4795 107.509954 
L 673.458 103.730054 
L 676.4365 105.275482 
L 679.415 106.934537 
L 679.415 44.8428 
L 679.415 44.8428 
L 676.4365 46.278553 
L 673.458 46.339101 
L 670.4795 46.339957 
L 667.501 43.602314 
L 664.5225 44.298644 
L 661.544 42.496462 
L 658.5655 46.264341 
L 655.587 44.907182 
L 652.6085 47.56038 
L 649.63 47.783093 
L 646.6515 46.776892 
L 643.673 46.425894 
L 640.6945 46.300531 
L 637.716 45.400161 
L 634.7375 46.084855 
L 631.759 45.226399 
L 628.7805 45.365552 
L 625.802 44.862997 
L 622.8235 43.985456 
L 619.845 43.113591 
L 616.8665 47.224512 
L 613.888 46.110609 
L 610.9095 56.789711 
L 607.931 66.266804 
L 604.9525 53.399832 
L 601.974 46.634177 
L 598.9955 46.024885 
L 596.017 46.704197 
L 593.0385 47.310828 
L 590.06 43.219373 
L 587.0815 39.752665 
L 584.103 42.502021 
L 581.1245 42.384319 
L 578.146 42.401066 
L 575.1675 43.229817 
L 572.189 44.090573 
L 569.2105 41.181497 
L 566.232 41.898031 
L 563.2535 43.119506 
L 560.275 45.218473 
L 557.2965 43.894727 
L 554.318 41.219661 
L 551.3395 41.244415 
L 548.361 42.614816 
L 545.3825 42.837608 
L 542.404 41.067137 
L 539.4255 42.707621 
L 536.447 41.48465 
L 533.4685 42.50169 
L 530.49 39.16128 
L 527.5115 42.259771 
L 524.533 42.95584 
L 521.5545 40.702298 
L 518.576 43.514371 
L 515.5975 52.195609 
L 512.619 57.38456 
L 509.6405 45.122309 
L 506.662 46.893116 
L 503.6835 56.070794 
L 500.705 53.345873 
L 497.7265 45.698195 
L 494.748 46.587548 
L 491.7695 54.507288 
L 488.791 57.37624 
L 485.8125 59.932295 
L 482.834 57.841756 
L 479.8555 59.832799 
L 476.877 52.008904 
L 473.8985 40.896876 
L 470.92 35.916213 
L 467.9415 37.932372 
L 464.963 43.414302 
L 461.9845 50.383757 
L 459.006 35.364278 
L 456.0275 38.117986 
L 453.049 37.515242 
L 450.0705 38.322814 
L 447.092 33.965226 
L 444.1135 31.611694 
L 441.135 31.377584 
L 438.1565 29.832615 
L 435.178 32.018549 
L 432.1995 31.758406 
L 429.221 35.622 
L 426.2425 38.132343 
L 423.264 35.707184 
L 420.2855 38.376004 
L 417.307 37.971957 
L 414.3285 42.319983 
L 411.35 40.390328 
L 408.3715 38.729794 
L 405.393 39.217123 
L 402.4145 39.662695 
L 399.436 37.513439 
L 396.4575 36.664034 
L 393.479 33.455807 
L 390.5005 30.437457 
L 387.522 37.403763 
L 384.5435 37.303879 
L 381.565 35.907647 
L 378.5865 28.038182 
L 375.608 37.390057 
L 372.6295 40.107059 
L 369.651 42.512014 
L 366.6725 39.276775 
L 363.694 36.405351 
L 360.7155 43.294602 
L 357.737 37.37924 
L 354.7585 34.905209 
L 351.78 30.077439 
L 348.8015 34.297359 
L 345.823 37.270106 
L 342.8445 45.091979 
L 339.866 55.836174 
L 336.8875 66.726427 
L 333.909 64.158274 
L 330.9305 42.447402 
L 327.952 34.970132 
L 324.9735 39.441128 
L 321.995 54.496558 
L 319.0165 78.551705 
L 316.038 92.929982 
L 313.0595 111.466396 
L 310.081 135.74744 
L 307.1025 131.26272 
L 304.124 126.320881 
L 301.1455 111.48003 
L 298.167 102.326173 
L 295.1885 100.515891 
L 292.21 94.265071 
L 289.2315 93.461858 
L 286.253 88.040454 
L 283.2745 90.311882 
L 280.296 99.86202 
L 277.3175 105.109956 
L 274.339 104.222228 
L 271.3605 102.912042 
L 268.382 94.899535 
L 265.4035 83.815347 
L 262.425 73.602568 
L 259.4465 46.446856 
L 256.468 48.447047 
L 253.4895 43.557002 
L 250.511 45.409258 
L 247.5325 46.021252 
L 244.554 43.809124 
L 241.5755 47.533173 
L 238.597 58.906692 
L 235.6185 66.949802 
L 232.64 71.211635 
L 229.6615 86.408598 
L 226.683 105.124845 
L 223.7045 98.961737 
L 220.726 112.776038 
L 217.7475 114.439774 
L 214.769 101.305775 
L 211.7905 122.522006 
L 208.812 129.330102 
L 205.8335 136.764168 
L 202.855 151.877381 
L 199.8765 170.581146 
L 196.898 189.063004 
L 193.9195 205.729057 
L 190.941 212.097685 
L 187.9625 206.924525 
L 184.984 231.713456 
L 182.0055 226.321491 
L 179.027 251.540959 
L 176.0485 249.378036 
L 173.07 245.033933 
L 170.0915 250.931388 
L 167.113 250.748866 
L 164.1345 232.363015 
L 161.156 246.040016 
L 158.1775 261.067031 
L 155.199 265.332233 
L 152.2205 266.127729 
L 149.242 265.538814 
L 146.2635 267.566861 
L 143.285 246.113563 
L 140.3065 249.685496 
L 137.328 254.987419 
L 134.3495 250.073684 
L 131.371 253.23981 
L 128.3925 248.221543 
L 125.414 261.780163 
L 122.4355 259.168404 
L 119.457 236.883369 
L 116.4785 242.83337 
L 113.5 221.148739 
L 110.5215 205.289853 
L 107.543 209.263726 
L 104.5645 202.707457 
L 101.586 191.611966 
L 98.6075 189.657928 
L 95.629 193.869364 
L 92.6505 190.377966 
L 89.672 198.035528 
L 86.6935 200.017543 
L 83.715 217.335495 
z
" clip-path="url(#p1ecdcea319)" style="fill: #1f77b4; fill-opacity: 0.2"/>
   </g>
   <g id="matplotlib.axis_1">
    <g id="xtick_1">
     <g id="line2d_1">
      <path d="M 82.210858 390.04 
L 82.210858 10.8 
" clip-path="url(#p1ecdcea319)" style="fill: none; stroke: #b0b0b0; stroke-width: 0.8; stroke-linecap: square"/>
     </g>
     <g id="line2d_2">
      <defs>
       <path id="mbb8f765d66" d="M 0 0 
L 0 3.5 
" style="stroke: #000000; stroke-width: 0.8"/>
      </defs>
      <g>
       <use xlink:href="#mbb8f765d66" x="82.210858" y="390.04" style="stroke: #000000; stroke-width: 0.8"/>
      </g>
     </g>
     <g id="text_1">
      <!-- 0 -->
      <g transform="translate(79.029607 404.638438) scale(0.1 -0.1)">
       <defs>
        <path id="DejaVuSans-30" d="M 2034 4250 
Q 1547 4250 1301 3770 
Q 1056 3291 1056 2328 
Q 1056 1369 1301 889 
Q 1547 409 2034 409 
Q 2525 409 2770 889 
Q 3016 1369 3016 2328 
Q 3016 3291 2770 3770 
Q 2525 4250 2034 4250 
z
M 2034 4750 
Q 2819 4750 3233 4129 
Q 3647 3509 3647 2328 
Q 3647 1150 3233 529 
Q 2819 -91 2034 -91 
Q 1250 -91 836 529 
Q 422 1150 422 2328 
Q 422 3509 836 4129 
Q 1250 4750 2034 4750 
z
" transform="scale(0.015625)"/>
       </defs>
       <use xlink:href="#DejaVuSans-30"/>
      </g>
     </g>
    </g>
    <g id="xtick_2">
     <g id="line2d_3">
      <path d="M 156.673358 390.04 
L 156.673358 10.8 
" clip-path="url(#p1ecdcea319)" style="fill: none; stroke: #b0b0b0; stroke-width: 0.8; stroke-linecap: square"/>
     </g>
     <g id="line2d_4">
      <g>
       <use xlink:href="#mbb8f765d66" x="156.673358" y="390.04" style="stroke: #000000; stroke-width: 0.8"/>
      </g>
     </g>
     <g id="text_2">
      <!-- 5000 -->
      <g transform="translate(143.948358 404.638438) scale(0.1 -0.1)">
       <defs>
        <path id="DejaVuSans-35" d="M 691 4666 
L 3169 4666 
L 3169 4134 
L 1269 4134 
L 1269 2991 
Q 1406 3038 1543 3061 
Q 1681 3084 1819 3084 
Q 2600 3084 3056 2656 
Q 3513 2228 3513 1497 
Q 3513 744 3044 326 
Q 2575 -91 1722 -91 
Q 1428 -91 1123 -41 
Q 819 9 494 109 
L 494 744 
Q 775 591 1075 516 
Q 1375 441 1709 441 
Q 2250 441 2565 725 
Q 2881 1009 2881 1497 
Q 2881 1984 2565 2268 
Q 2250 2553 1709 2553 
Q 1456 2553 1204 2497 
Q 953 2441 691 2322 
L 691 4666 
z
" transform="scale(0.015625)"/>
       </defs>
       <use xlink:href="#DejaVuSans-35"/>
       <use xlink:href="#DejaVuSans-30" transform="translate(63.623047 0)"/>
       <use xlink:href="#DejaVuSans-30" transform="translate(127.246094 0)"/>
       <use xlink:href="#DejaVuSans-30" transform="translate(190.869141 0)"/>
      </g>
     </g>
    </g>
    <g id="xtick_3">
     <g id="line2d_5">
      <path d="M 231.135857 390.04 
L 231.135857 10.8 
" clip-path="url(#p1ecdcea319)" style="fill: none; stroke: #b0b0b0; stroke-width: 0.8; stroke-linecap: square"/>
     </g>
     <g id="line2d_6">
      <g>
       <use xlink:href="#mbb8f765d66" x="231.135857" y="390.04" style="stroke: #000000; stroke-width: 0.8"/>
      </g>
     </g>
     <g id="text_3">
      <!-- 10000 -->
      <g transform="translate(215.229607 404.638438) scale(0.1 -0.1)">
       <defs>
        <path id="DejaVuSans-31" d="M 794 531 
L 1825 531 
L 1825 4091 
L 703 3866 
L 703 4441 
L 1819 4666 
L 2450 4666 
L 2450 531 
L 3481 531 
L 3481 0 
L 794 0 
L 794 531 
z
" transform="scale(0.015625)"/>
       </defs>
       <use xlink:href="#DejaVuSans-31"/>
       <use xlink:href="#DejaVuSans-30" transform="translate(63.623047 0)"/>
       <use xlink:href="#DejaVuSans-30" transform="translate(127.246094 0)"/>
       <use xlink:href="#DejaVuSans-30" transform="translate(190.869141 0)"/>
       <use xlink:href="#DejaVuSans-30" transform="translate(254.492188 0)"/>
      </g>
     </g>
    </g>
    <g id="xtick_4">
     <g id="line2d_7">
      <path d="M 305.598358 390.04 
L 305.598358 10.8 
" clip-path="url(#p1ecdcea319)" style="fill: none; stroke: #b0b0b0; stroke-width: 0.8; stroke-linecap: square"/>
     </g>
     <g id="line2d_8">
      <g>
       <use xlink:href="#mbb8f765d66" x="305.598358" y="390.04" style="stroke: #000000; stroke-width: 0.8"/>
      </g>
     </g>
     <g id="text_4">
      <!-- 15000 -->
      <g transform="translate(289.692108 404.638438) scale(0.1 -0.1)">
       <use xlink:href="#DejaVuSans-31"/>
       <use xlink:href="#DejaVuSans-35" transform="translate(63.623047 0)"/>
       <use xlink:href="#DejaVuSans-30" transform="translate(127.246094 0)"/>
       <use xlink:href="#DejaVuSans-30" transform="translate(190.869141 0)"/>
       <use xlink:href="#DejaVuSans-30" transform="translate(254.492188 0)"/>
      </g>
     </g>
    </g>
    <g id="xtick_5">
     <g id="line2d_9">
      <path d="M 380.060857 390.04 
L 380.060857 10.8 
" clip-path="url(#p1ecdcea319)" style="fill: none; stroke: #b0b0b0; stroke-width: 0.8; stroke-linecap: square"/>
     </g>
     <g id="line2d_10">
      <g>
       <use xlink:href="#mbb8f765d66" x="380.060857" y="390.04" style="stroke: #000000; stroke-width: 0.8"/>
      </g>
     </g>
     <g id="text_5">
      <!-- 20000 -->
      <g transform="translate(364.154607 404.638438) scale(0.1 -0.1)">
       <defs>
        <path id="DejaVuSans-32" d="M 1228 531 
L 3431 531 
L 3431 0 
L 469 0 
L 469 531 
Q 828 903 1448 1529 
Q 2069 2156 2228 2338 
Q 2531 2678 2651 2914 
Q 2772 3150 2772 3378 
Q 2772 3750 2511 3984 
Q 2250 4219 1831 4219 
Q 1534 4219 1204 4116 
Q 875 4013 500 3803 
L 500 4441 
Q 881 4594 1212 4672 
Q 1544 4750 1819 4750 
Q 2544 4750 2975 4387 
Q 3406 4025 3406 3419 
Q 3406 3131 3298 2873 
Q 3191 2616 2906 2266 
Q 2828 2175 2409 1742 
Q 1991 1309 1228 531 
z
" transform="scale(0.015625)"/>
       </defs>
       <use xlink:href="#DejaVuSans-32"/>
       <use xlink:href="#DejaVuSans-30" transform="translate(63.623047 0)"/>
       <use xlink:href="#DejaVuSans-30" transform="translate(127.246094 0)"/>
       <use xlink:href="#DejaVuSans-30" transform="translate(190.869141 0)"/>
       <use xlink:href="#DejaVuSans-30" transform="translate(254.492188 0)"/>
      </g>
     </g>
    </g>
    <g id="xtick_6">
     <g id="line2d_11">
      <path d="M 454.523357 390.04 
L 454.523357 10.8 
" clip-path="url(#p1ecdcea319)" style="fill: none; stroke: #b0b0b0; stroke-width: 0.8; stroke-linecap: square"/>
     </g>
     <g id="line2d_12">
      <g>
       <use xlink:href="#mbb8f765d66" x="454.523357" y="390.04" style="stroke: #000000; stroke-width: 0.8"/>
      </g>
     </g>
     <g id="text_6">
      <!-- 25000 -->
      <g transform="translate(438.617107 404.638438) scale(0.1 -0.1)">
       <use xlink:href="#DejaVuSans-32"/>
       <use xlink:href="#DejaVuSans-35" transform="translate(63.623047 0)"/>
       <use xlink:href="#DejaVuSans-30" transform="translate(127.246094 0)"/>
       <use xlink:href="#DejaVuSans-30" transform="translate(190.869141 0)"/>
       <use xlink:href="#DejaVuSans-30" transform="translate(254.492188 0)"/>
      </g>
     </g>
    </g>
    <g id="xtick_7">
     <g id="line2d_13">
      <path d="M 528.985857 390.04 
L 528.985857 10.8 
" clip-path="url(#p1ecdcea319)" style="fill: none; stroke: #b0b0b0; stroke-width: 0.8; stroke-linecap: square"/>
     </g>
     <g id="line2d_14">
      <g>
       <use xlink:href="#mbb8f765d66" x="528.985857" y="390.04" style="stroke: #000000; stroke-width: 0.8"/>
      </g>
     </g>
     <g id="text_7">
      <!-- 30000 -->
      <g transform="translate(513.079607 404.638438) scale(0.1 -0.1)">
       <defs>
        <path id="DejaVuSans-33" d="M 2597 2516 
Q 3050 2419 3304 2112 
Q 3559 1806 3559 1356 
Q 3559 666 3084 287 
Q 2609 -91 1734 -91 
Q 1441 -91 1130 -33 
Q 819 25 488 141 
L 488 750 
Q 750 597 1062 519 
Q 1375 441 1716 441 
Q 2309 441 2620 675 
Q 2931 909 2931 1356 
Q 2931 1769 2642 2001 
Q 2353 2234 1838 2234 
L 1294 2234 
L 1294 2753 
L 1863 2753 
Q 2328 2753 2575 2939 
Q 2822 3125 2822 3475 
Q 2822 3834 2567 4026 
Q 2313 4219 1838 4219 
Q 1578 4219 1281 4162 
Q 984 4106 628 3988 
L 628 4550 
Q 988 4650 1302 4700 
Q 1616 4750 1894 4750 
Q 2613 4750 3031 4423 
Q 3450 4097 3450 3541 
Q 3450 3153 3228 2886 
Q 3006 2619 2597 2516 
z
" transform="scale(0.015625)"/>
       </defs>
       <use xlink:href="#DejaVuSans-33"/>
       <use xlink:href="#DejaVuSans-30" transform="translate(63.623047 0)"/>
       <use xlink:href="#DejaVuSans-30" transform="translate(127.246094 0)"/>
       <use xlink:href="#DejaVuSans-30" transform="translate(190.869141 0)"/>
       <use xlink:href="#DejaVuSans-30" transform="translate(254.492188 0)"/>
      </g>
     </g>
    </g>
    <g id="xtick_8">
     <g id="line2d_15">
      <path d="M 603.448357 390.04 
L 603.448357 10.8 
" clip-path="url(#p1ecdcea319)" style="fill: none; stroke: #b0b0b0; stroke-width: 0.8; stroke-linecap: square"/>
     </g>
     <g id="line2d_16">
      <g>
       <use xlink:href="#mbb8f765d66" x="603.448357" y="390.04" style="stroke: #000000; stroke-width: 0.8"/>
      </g>
     </g>
     <g id="text_8">
      <!-- 35000 -->
      <g transform="translate(587.542107 404.638438) scale(0.1 -0.1)">
       <use xlink:href="#DejaVuSans-33"/>
       <use xlink:href="#DejaVuSans-35" transform="translate(63.623047 0)"/>
       <use xlink:href="#DejaVuSans-30" transform="translate(127.246094 0)"/>
       <use xlink:href="#DejaVuSans-30" transform="translate(190.869141 0)"/>
       <use xlink:href="#DejaVuSans-30" transform="translate(254.492188 0)"/>
      </g>
     </g>
    </g>
    <g id="xtick_9">
     <g id="line2d_17">
      <path d="M 677.910857 390.04 
L 677.910857 10.8 
" clip-path="url(#p1ecdcea319)" style="fill: none; stroke: #b0b0b0; stroke-width: 0.8; stroke-linecap: square"/>
     </g>
     <g id="line2d_18">
      <g>
       <use xlink:href="#mbb8f765d66" x="677.910857" y="390.04" style="stroke: #000000; stroke-width: 0.8"/>
      </g>
     </g>
     <g id="text_9">
      <!-- 40000 -->
      <g transform="translate(662.004607 404.638438) scale(0.1 -0.1)">
       <defs>
        <path id="DejaVuSans-34" d="M 2419 4116 
L 825 1625 
L 2419 1625 
L 2419 4116 
z
M 2253 4666 
L 3047 4666 
L 3047 1625 
L 3713 1625 
L 3713 1100 
L 3047 1100 
L 3047 0 
L 2419 0 
L 2419 1100 
L 313 1100 
L 313 1709 
L 2253 4666 
z
" transform="scale(0.015625)"/>
       </defs>
       <use xlink:href="#DejaVuSans-34"/>
       <use xlink:href="#DejaVuSans-30" transform="translate(63.623047 0)"/>
       <use xlink:href="#DejaVuSans-30" transform="translate(127.246094 0)"/>
       <use xlink:href="#DejaVuSans-30" transform="translate(190.869141 0)"/>
       <use xlink:href="#DejaVuSans-30" transform="translate(254.492188 0)"/>
      </g>
     </g>
    </g>
    <g id="text_10">
     <!-- Episodes -->
     <g transform="translate(359.322812 418.316562) scale(0.1 -0.1)">
      <defs>
       <path id="DejaVuSans-45" d="M 628 4666 
L 3578 4666 
L 3578 4134 
L 1259 4134 
L 1259 2753 
L 3481 2753 
L 3481 2222 
L 1259 2222 
L 1259 531 
L 3634 531 
L 3634 0 
L 628 0 
L 628 4666 
z
" transform="scale(0.015625)"/>
       <path id="DejaVuSans-70" d="M 1159 525 
L 1159 -1331 
L 581 -1331 
L 581 3500 
L 1159 3500 
L 1159 2969 
Q 1341 3281 1617 3432 
Q 1894 3584 2278 3584 
Q 2916 3584 3314 3078 
Q 3713 2572 3713 1747 
Q 3713 922 3314 415 
Q 2916 -91 2278 -91 
Q 1894 -91 1617 61 
Q 1341 213 1159 525 
z
M 3116 1747 
Q 3116 2381 2855 2742 
Q 2594 3103 2138 3103 
Q 1681 3103 1420 2742 
Q 1159 2381 1159 1747 
Q 1159 1113 1420 752 
Q 1681 391 2138 391 
Q 2594 391 2855 752 
Q 3116 1113 3116 1747 
z
" transform="scale(0.015625)"/>
       <path id="DejaVuSans-69" d="M 603 3500 
L 1178 3500 
L 1178 0 
L 603 0 
L 603 3500 
z
M 603 4863 
L 1178 4863 
L 1178 4134 
L 603 4134 
L 603 4863 
z
" transform="scale(0.015625)"/>
       <path id="DejaVuSans-73" d="M 2834 3397 
L 2834 2853 
Q 2591 2978 2328 3040 
Q 2066 3103 1784 3103 
Q 1356 3103 1142 2972 
Q 928 2841 928 2578 
Q 928 2378 1081 2264 
Q 1234 2150 1697 2047 
L 1894 2003 
Q 2506 1872 2764 1633 
Q 3022 1394 3022 966 
Q 3022 478 2636 193 
Q 2250 -91 1575 -91 
Q 1294 -91 989 -36 
Q 684 19 347 128 
L 347 722 
Q 666 556 975 473 
Q 1284 391 1588 391 
Q 1994 391 2212 530 
Q 2431 669 2431 922 
Q 2431 1156 2273 1281 
Q 2116 1406 1581 1522 
L 1381 1569 
Q 847 1681 609 1914 
Q 372 2147 372 2553 
Q 372 3047 722 3315 
Q 1072 3584 1716 3584 
Q 2034 3584 2315 3537 
Q 2597 3491 2834 3397 
z
" transform="scale(0.015625)"/>
       <path id="DejaVuSans-6f" d="M 1959 3097 
Q 1497 3097 1228 2736 
Q 959 2375 959 1747 
Q 959 1119 1226 758 
Q 1494 397 1959 397 
Q 2419 397 2687 759 
Q 2956 1122 2956 1747 
Q 2956 2369 2687 2733 
Q 2419 3097 1959 3097 
z
M 1959 3584 
Q 2709 3584 3137 3096 
Q 3566 2609 3566 1747 
Q 3566 888 3137 398 
Q 2709 -91 1959 -91 
Q 1206 -91 779 398 
Q 353 888 353 1747 
Q 353 2609 779 3096 
Q 1206 3584 1959 3584 
z
" transform="scale(0.015625)"/>
       <path id="DejaVuSans-64" d="M 2906 2969 
L 2906 4863 
L 3481 4863 
L 3481 0 
L 2906 0 
L 2906 525 
Q 2725 213 2448 61 
Q 2172 -91 1784 -91 
Q 1150 -91 751 415 
Q 353 922 353 1747 
Q 353 2572 751 3078 
Q 1150 3584 1784 3584 
Q 2172 3584 2448 3432 
Q 2725 3281 2906 2969 
z
M 947 1747 
Q 947 1113 1208 752 
Q 1469 391 1925 391 
Q 2381 391 2643 752 
Q 2906 1113 2906 1747 
Q 2906 2381 2643 2742 
Q 2381 3103 1925 3103 
Q 1469 3103 1208 2742 
Q 947 2381 947 1747 
z
" transform="scale(0.015625)"/>
       <path id="DejaVuSans-65" d="M 3597 1894 
L 3597 1613 
L 953 1613 
Q 991 1019 1311 708 
Q 1631 397 2203 397 
Q 2534 397 2845 478 
Q 3156 559 3463 722 
L 3463 178 
Q 3153 47 2828 -22 
Q 2503 -91 2169 -91 
Q 1331 -91 842 396 
Q 353 884 353 1716 
Q 353 2575 817 3079 
Q 1281 3584 2069 3584 
Q 2775 3584 3186 3129 
Q 3597 2675 3597 1894 
z
M 3022 2063 
Q 3016 2534 2758 2815 
Q 2500 3097 2075 3097 
Q 1594 3097 1305 2825 
Q 1016 2553 972 2059 
L 3022 2063 
z
" transform="scale(0.015625)"/>
      </defs>
      <use xlink:href="#DejaVuSans-45"/>
      <use xlink:href="#DejaVuSans-70" transform="translate(63.183594 0)"/>
      <use xlink:href="#DejaVuSans-69" transform="translate(126.660156 0)"/>
      <use xlink:href="#DejaVuSans-73" transform="translate(154.443359 0)"/>
      <use xlink:href="#DejaVuSans-6f" transform="translate(206.542969 0)"/>
      <use xlink:href="#DejaVuSans-64" transform="translate(267.724609 0)"/>
      <use xlink:href="#DejaVuSans-65" transform="translate(331.201172 0)"/>
      <use xlink:href="#DejaVuSans-73" transform="translate(392.724609 0)"/>
     </g>
    </g>
   </g>
   <g id="matplotlib.axis_2">
    <g id="ytick_1">
     <g id="line2d_19">
      <path d="M 53.93 371.821296 
L 709.2 371.821296 
" clip-path="url(#p1ecdcea319)" style="fill: none; stroke: #b0b0b0; stroke-width: 0.8; stroke-linecap: square"/>
     </g>
     <g id="line2d_20">
      <defs>
       <path id="m5e48b6c2ab" d="M 0 0 
L -3.5 0 
" style="stroke: #000000; stroke-width: 0.8"/>
      </defs>
      <g>
       <use xlink:href="#m5e48b6c2ab" x="53.93" y="371.821296" style="stroke: #000000; stroke-width: 0.8"/>
      </g>
     </g>
     <g id="text_11">
      <!-- 3.75 -->
      <g transform="translate(24.664375 375.620515) scale(0.1 -0.1)">
       <defs>
        <path id="DejaVuSans-2e" d="M 684 794 
L 1344 794 
L 1344 0 
L 684 0 
L 684 794 
z
" transform="scale(0.015625)"/>
        <path id="DejaVuSans-37" d="M 525 4666 
L 3525 4666 
L 3525 4397 
L 1831 0 
L 1172 0 
L 2766 4134 
L 525 4134 
L 525 4666 
z
" transform="scale(0.015625)"/>
       </defs>
       <use xlink:href="#DejaVuSans-33"/>
       <use xlink:href="#DejaVuSans-2e" transform="translate(63.623047 0)"/>
       <use xlink:href="#DejaVuSans-37" transform="translate(95.410156 0)"/>
       <use xlink:href="#DejaVuSans-35" transform="translate(159.033203 0)"/>
      </g>
     </g>
    </g>
    <g id="ytick_2">
     <g id="line2d_21">
      <path d="M 53.93 328.858161 
L 709.2 328.858161 
" clip-path="url(#p1ecdcea319)" style="fill: none; stroke: #b0b0b0; stroke-width: 0.8; stroke-linecap: square"/>
     </g>
     <g id="line2d_22">
      <g>
       <use xlink:href="#m5e48b6c2ab" x="53.93" y="328.858161" style="stroke: #000000; stroke-width: 0.8"/>
      </g>
     </g>
     <g id="text_12">
      <!-- 4.00 -->
      <g transform="translate(24.664375 332.65738) scale(0.1 -0.1)">
       <use xlink:href="#DejaVuSans-34"/>
       <use xlink:href="#DejaVuSans-2e" transform="translate(63.623047 0)"/>
       <use xlink:href="#DejaVuSans-30" transform="translate(95.410156 0)"/>
       <use xlink:href="#DejaVuSans-30" transform="translate(159.033203 0)"/>
      </g>
     </g>
    </g>
    <g id="ytick_3">
     <g id="line2d_23">
      <path d="M 53.93 285.895026 
L 709.2 285.895026 
" clip-path="url(#p1ecdcea319)" style="fill: none; stroke: #b0b0b0; stroke-width: 0.8; stroke-linecap: square"/>
     </g>
     <g id="line2d_24">
      <g>
       <use xlink:href="#m5e48b6c2ab" x="53.93" y="285.895026" style="stroke: #000000; stroke-width: 0.8"/>
      </g>
     </g>
     <g id="text_13">
      <!-- 4.25 -->
      <g transform="translate(24.664375 289.694245) scale(0.1 -0.1)">
       <use xlink:href="#DejaVuSans-34"/>
       <use xlink:href="#DejaVuSans-2e" transform="translate(63.623047 0)"/>
       <use xlink:href="#DejaVuSans-32" transform="translate(95.410156 0)"/>
       <use xlink:href="#DejaVuSans-35" transform="translate(159.033203 0)"/>
      </g>
     </g>
    </g>
    <g id="ytick_4">
     <g id="line2d_25">
      <path d="M 53.93 242.931891 
L 709.2 242.931891 
" clip-path="url(#p1ecdcea319)" style="fill: none; stroke: #b0b0b0; stroke-width: 0.8; stroke-linecap: square"/>
     </g>
     <g id="line2d_26">
      <g>
       <use xlink:href="#m5e48b6c2ab" x="53.93" y="242.931891" style="stroke: #000000; stroke-width: 0.8"/>
      </g>
     </g>
     <g id="text_14">
      <!-- 4.50 -->
      <g transform="translate(24.664375 246.73111) scale(0.1 -0.1)">
       <use xlink:href="#DejaVuSans-34"/>
       <use xlink:href="#DejaVuSans-2e" transform="translate(63.623047 0)"/>
       <use xlink:href="#DejaVuSans-35" transform="translate(95.410156 0)"/>
       <use xlink:href="#DejaVuSans-30" transform="translate(159.033203 0)"/>
      </g>
     </g>
    </g>
    <g id="ytick_5">
     <g id="line2d_27">
      <path d="M 53.93 199.968756 
L 709.2 199.968756 
" clip-path="url(#p1ecdcea319)" style="fill: none; stroke: #b0b0b0; stroke-width: 0.8; stroke-linecap: square"/>
     </g>
     <g id="line2d_28">
      <g>
       <use xlink:href="#m5e48b6c2ab" x="53.93" y="199.968756" style="stroke: #000000; stroke-width: 0.8"/>
      </g>
     </g>
     <g id="text_15">
      <!-- 4.75 -->
      <g transform="translate(24.664375 203.767975) scale(0.1 -0.1)">
       <use xlink:href="#DejaVuSans-34"/>
       <use xlink:href="#DejaVuSans-2e" transform="translate(63.623047 0)"/>
       <use xlink:href="#DejaVuSans-37" transform="translate(95.410156 0)"/>
       <use xlink:href="#DejaVuSans-35" transform="translate(159.033203 0)"/>
      </g>
     </g>
    </g>
    <g id="ytick_6">
     <g id="line2d_29">
      <path d="M 53.93 157.005621 
L 709.2 157.005621 
" clip-path="url(#p1ecdcea319)" style="fill: none; stroke: #b0b0b0; stroke-width: 0.8; stroke-linecap: square"/>
     </g>
     <g id="line2d_30">
      <g>
       <use xlink:href="#m5e48b6c2ab" x="53.93" y="157.005621" style="stroke: #000000; stroke-width: 0.8"/>
      </g>
     </g>
     <g id="text_16">
      <!-- 5.00 -->
      <g transform="translate(24.664375 160.80484) scale(0.1 -0.1)">
       <use xlink:href="#DejaVuSans-35"/>
       <use xlink:href="#DejaVuSans-2e" transform="translate(63.623047 0)"/>
       <use xlink:href="#DejaVuSans-30" transform="translate(95.410156 0)"/>
       <use xlink:href="#DejaVuSans-30" transform="translate(159.033203 0)"/>
      </g>
     </g>
    </g>
    <g id="ytick_7">
     <g id="line2d_31">
      <path d="M 53.93 114.042486 
L 709.2 114.042486 
" clip-path="url(#p1ecdcea319)" style="fill: none; stroke: #b0b0b0; stroke-width: 0.8; stroke-linecap: square"/>
     </g>
     <g id="line2d_32">
      <g>
       <use xlink:href="#m5e48b6c2ab" x="53.93" y="114.042486" style="stroke: #000000; stroke-width: 0.8"/>
      </g>
     </g>
     <g id="text_17">
      <!-- 5.25 -->
      <g transform="translate(24.664375 117.841705) scale(0.1 -0.1)">
       <use xlink:href="#DejaVuSans-35"/>
       <use xlink:href="#DejaVuSans-2e" transform="translate(63.623047 0)"/>
       <use xlink:href="#DejaVuSans-32" transform="translate(95.410156 0)"/>
       <use xlink:href="#DejaVuSans-35" transform="translate(159.033203 0)"/>
      </g>
     </g>
    </g>
    <g id="ytick_8">
     <g id="line2d_33">
      <path d="M 53.93 71.079351 
L 709.2 71.079351 
" clip-path="url(#p1ecdcea319)" style="fill: none; stroke: #b0b0b0; stroke-width: 0.8; stroke-linecap: square"/>
     </g>
     <g id="line2d_34">
      <g>
       <use xlink:href="#m5e48b6c2ab" x="53.93" y="71.079351" style="stroke: #000000; stroke-width: 0.8"/>
      </g>
     </g>
     <g id="text_18">
      <!-- 5.50 -->
      <g transform="translate(24.664375 74.87857) scale(0.1 -0.1)">
       <use xlink:href="#DejaVuSans-35"/>
       <use xlink:href="#DejaVuSans-2e" transform="translate(63.623047 0)"/>
       <use xlink:href="#DejaVuSans-35" transform="translate(95.410156 0)"/>
       <use xlink:href="#DejaVuSans-30" transform="translate(159.033203 0)"/>
      </g>
     </g>
    </g>
    <g id="ytick_9">
     <g id="line2d_35">
      <path d="M 53.93 28.116216 
L 709.2 28.116216 
" clip-path="url(#p1ecdcea319)" style="fill: none; stroke: #b0b0b0; stroke-width: 0.8; stroke-linecap: square"/>
     </g>
     <g id="line2d_36">
      <g>
       <use xlink:href="#m5e48b6c2ab" x="53.93" y="28.116216" style="stroke: #000000; stroke-width: 0.8"/>
      </g>
     </g>
     <g id="text_19">
      <!-- 5.75 -->
      <g transform="translate(24.664375 31.915434) scale(0.1 -0.1)">
       <use xlink:href="#DejaVuSans-35"/>
       <use xlink:href="#DejaVuSans-2e" transform="translate(63.623047 0)"/>
       <use xlink:href="#DejaVuSans-37" transform="translate(95.410156 0)"/>
       <use xlink:href="#DejaVuSans-35" transform="translate(159.033203 0)"/>
      </g>
     </g>
    </g>
    <g id="text_20">
     <!-- Reward -->
     <g transform="translate(18.584688 219.041094) rotate(-90) scale(0.1 -0.1)">
      <defs>
       <path id="DejaVuSans-52" d="M 2841 2188 
Q 3044 2119 3236 1894 
Q 3428 1669 3622 1275 
L 4263 0 
L 3584 0 
L 2988 1197 
Q 2756 1666 2539 1819 
Q 2322 1972 1947 1972 
L 1259 1972 
L 1259 0 
L 628 0 
L 628 4666 
L 2053 4666 
Q 2853 4666 3247 4331 
Q 3641 3997 3641 3322 
Q 3641 2881 3436 2590 
Q 3231 2300 2841 2188 
z
M 1259 4147 
L 1259 2491 
L 2053 2491 
Q 2509 2491 2742 2702 
Q 2975 2913 2975 3322 
Q 2975 3731 2742 3939 
Q 2509 4147 2053 4147 
L 1259 4147 
z
" transform="scale(0.015625)"/>
       <path id="DejaVuSans-77" d="M 269 3500 
L 844 3500 
L 1563 769 
L 2278 3500 
L 2956 3500 
L 3675 769 
L 4391 3500 
L 4966 3500 
L 4050 0 
L 3372 0 
L 2619 2869 
L 1863 0 
L 1184 0 
L 269 3500 
z
" transform="scale(0.015625)"/>
       <path id="DejaVuSans-61" d="M 2194 1759 
Q 1497 1759 1228 1600 
Q 959 1441 959 1056 
Q 959 750 1161 570 
Q 1363 391 1709 391 
Q 2188 391 2477 730 
Q 2766 1069 2766 1631 
L 2766 1759 
L 2194 1759 
z
M 3341 1997 
L 3341 0 
L 2766 0 
L 2766 531 
Q 2569 213 2275 61 
Q 1981 -91 1556 -91 
Q 1019 -91 701 211 
Q 384 513 384 1019 
Q 384 1609 779 1909 
Q 1175 2209 1959 2209 
L 2766 2209 
L 2766 2266 
Q 2766 2663 2505 2880 
Q 2244 3097 1772 3097 
Q 1472 3097 1187 3025 
Q 903 2953 641 2809 
L 641 3341 
Q 956 3463 1253 3523 
Q 1550 3584 1831 3584 
Q 2591 3584 2966 3190 
Q 3341 2797 3341 1997 
z
" transform="scale(0.015625)"/>
       <path id="DejaVuSans-72" d="M 2631 2963 
Q 2534 3019 2420 3045 
Q 2306 3072 2169 3072 
Q 1681 3072 1420 2755 
Q 1159 2438 1159 1844 
L 1159 0 
L 581 0 
L 581 3500 
L 1159 3500 
L 1159 2956 
Q 1341 3275 1631 3429 
Q 1922 3584 2338 3584 
Q 2397 3584 2469 3576 
Q 2541 3569 2628 3553 
L 2631 2963 
z
" transform="scale(0.015625)"/>
      </defs>
      <use xlink:href="#DejaVuSans-52"/>
      <use xlink:href="#DejaVuSans-65" transform="translate(64.982422 0)"/>
      <use xlink:href="#DejaVuSans-77" transform="translate(126.505859 0)"/>
      <use xlink:href="#DejaVuSans-61" transform="translate(208.292969 0)"/>
      <use xlink:href="#DejaVuSans-72" transform="translate(269.572266 0)"/>
      <use xlink:href="#DejaVuSans-64" transform="translate(308.935547 0)"/>
     </g>
    </g>
   </g>
   <g id="line2d_37">
    <path d="M 83.715 284.293983 
L 86.6935 271.398544 
L 89.672 269.195622 
L 92.6505 261.637029 
L 95.629 265.124997 
L 98.6075 260.719552 
L 101.586 267.686872 
L 107.543 278.10742 
L 110.5215 275.643803 
L 113.5 288.575972 
L 116.4785 302.43609 
L 119.457 299.735248 
L 122.4355 312.287112 
L 125.414 311.400269 
L 128.3925 306.26697 
L 131.371 309.177458 
L 134.3495 307.518604 
L 137.328 311.847405 
L 143.285 304.583056 
L 146.2635 318.779586 
L 149.242 317.885052 
L 152.2205 318.287499 
L 155.199 315.928636 
L 158.1775 316.934424 
L 161.156 307.498315 
L 164.1345 301.363869 
L 167.113 311.252947 
L 170.0915 308.587112 
L 173.07 304.725999 
L 176.0485 306.59874 
L 179.027 309.391079 
L 182.0055 294.725799 
L 184.984 297.212886 
L 187.9625 284.612887 
L 190.941 288.312621 
L 193.9195 282.839198 
L 196.898 276.870238 
L 199.8765 263.191651 
L 202.855 247.285477 
L 205.8335 240.464548 
L 208.812 234.196571 
L 211.7905 231.213152 
L 214.769 219.319524 
L 217.7475 231.148838 
L 220.726 230.380276 
L 223.7045 222.111994 
L 226.683 228.254395 
L 229.6615 213.888397 
L 232.64 195.908459 
L 235.6185 191.161033 
L 238.597 174.06595 
L 241.5755 163.315619 
L 244.554 153.776876 
L 247.5325 152.539033 
L 250.511 157.83172 
L 253.4895 161.720281 
L 256.468 167.671073 
L 259.4465 167.017476 
L 262.425 181.159643 
L 265.4035 187.564732 
L 268.382 193.635132 
L 271.3605 200.893517 
L 274.339 199.684318 
L 277.3175 196.569625 
L 280.296 189.702685 
L 283.2745 178.46597 
L 286.253 164.209903 
L 289.2315 154.394684 
L 292.21 165.801134 
L 295.1885 171.906408 
L 298.167 173.811771 
L 301.1455 198.33961 
L 304.124 225.859617 
L 307.1025 237.236096 
L 310.081 243.550747 
L 313.0595 228.772085 
L 319.0165 207.115341 
L 321.995 183.797629 
L 324.9735 171.258229 
L 327.952 153.320326 
L 330.9305 156.870883 
L 333.909 182.111056 
L 336.8875 195.564216 
L 339.866 178.285607 
L 342.8445 148.27002 
L 345.823 138.137083 
L 348.8015 120.157938 
L 351.78 122.884506 
L 354.7585 109.256175 
L 357.737 105.476082 
L 360.7155 96.761594 
L 363.694 94.752271 
L 366.6725 95.29846 
L 369.651 93.157199 
L 372.6295 80.073464 
L 375.608 91.434164 
L 378.5865 112.895841 
L 381.565 93.815966 
L 384.5435 87.9572 
L 387.522 85.803738 
L 390.5005 99.385526 
L 393.479 95.729549 
L 396.4575 85.176264 
L 399.436 82.624731 
L 402.4145 82.65523 
L 405.393 88.578309 
L 408.3715 94.924787 
L 411.35 108.651378 
L 414.3285 136.897918 
L 417.307 120.881421 
L 420.2855 114.933016 
L 423.264 118.784583 
L 426.2425 141.959352 
L 429.221 150.360237 
L 432.1995 143.706786 
L 435.178 137.954766 
L 441.135 147.35083 
L 444.1135 136.915696 
L 447.092 137.291093 
L 450.0705 149.109403 
L 453.049 133.753531 
L 456.0275 129.843754 
L 459.006 130.242488 
L 461.9845 154.046321 
L 464.963 141.507449 
L 467.9415 127.199002 
L 470.92 127.322189 
L 473.8985 131.391885 
L 476.877 134.941384 
L 479.8555 146.350747 
L 482.834 144.787233 
L 485.8125 150.147546 
L 488.791 154.628442 
L 491.7695 155.154343 
L 494.748 133.365935 
L 497.7265 122.872987 
L 500.705 144.551601 
L 503.6835 145.309555 
L 506.662 137.38869 
L 509.6405 134.823896 
L 512.619 161.69707 
L 515.5975 143.487066 
L 518.576 131.660002 
L 521.5545 113.61893 
L 524.533 106.469807 
L 527.5115 105.349581 
L 530.49 110.989022 
L 533.4685 104.526784 
L 536.447 96.611222 
L 539.4255 93.497058 
L 542.404 105.798438 
L 545.3825 84.044769 
L 548.361 86.823716 
L 551.3395 115.663652 
L 554.318 96.00417 
L 557.2965 85.208487 
L 560.275 79.340969 
L 563.2535 91.558413 
L 566.232 97.29492 
L 569.2105 96.241529 
L 572.189 102.087832 
L 575.1675 87.059486 
L 578.146 102.860639 
L 581.1245 114.927048 
L 584.103 125.808788 
L 587.0815 130.853376 
L 590.06 117.415992 
L 593.0385 133.830964 
L 596.017 111.58163 
L 598.9955 117.31907 
L 601.974 119.010945 
L 604.9525 139.094089 
L 607.931 181.903936 
L 610.9095 145.880274 
L 613.888 98.852343 
L 616.8665 87.189172 
L 619.845 91.007054 
L 622.8235 90.59718 
L 625.802 84.277488 
L 628.7805 83.167741 
L 631.759 82.534299 
L 634.7375 76.075905 
L 637.716 78.150601 
L 640.6945 75.174874 
L 643.673 74.419172 
L 649.63 72.087095 
L 652.6085 69.650528 
L 655.587 83.443552 
L 658.5655 75.256291 
L 661.544 95.655957 
L 664.5225 88.916046 
L 670.4795 76.924955 
L 673.458 75.034577 
L 676.4365 75.777018 
L 679.415 75.888669 
L 679.415 75.888669 
" clip-path="url(#p1ecdcea319)" style="fill: none; stroke: #1f77b4; stroke-width: 1.5; stroke-linecap: square"/>
   </g>
   <g id="patch_3">
    <path d="M 53.93 390.04 
L 53.93 10.8 
" style="fill: none; stroke: #000000; stroke-width: 0.8; stroke-linejoin: miter; stroke-linecap: square"/>
   </g>
   <g id="patch_4">
    <path d="M 709.2 390.04 
L 709.2 10.8 
" style="fill: none; stroke: #000000; stroke-width: 0.8; stroke-linejoin: miter; stroke-linecap: square"/>
   </g>
   <g id="patch_5">
    <path d="M 53.93 390.04 
L 709.2 390.04 
" style="fill: none; stroke: #000000; stroke-width: 0.8; stroke-linejoin: miter; stroke-linecap: square"/>
   </g>
   <g id="patch_6">
    <path d="M 53.93 10.8 
L 709.2 10.8 
" style="fill: none; stroke: #000000; stroke-width: 0.8; stroke-linejoin: miter; stroke-linecap: square"/>
   </g>
  </g>
 </g>
 <defs>
  <clipPath id="p1ecdcea319">
   <rect x="53.93" y="10.8" width="655.27" height="379.24"/>
  </clipPath>
 </defs>
</svg>
