<?xml version="1.0" encoding="utf-8" standalone="no"?>
<!DOCTYPE svg PUBLIC "-//W3C//DTD SVG 1.1//EN"
  "http://www.w3.org/Graphics/SVG/1.1/DTD/svg11.dtd">
<svg xmlns:xlink="http://www.w3.org/1999/xlink" width="720pt" height="432pt" viewBox="0 0 720 432" xmlns="http://www.w3.org/2000/svg" version="1.1">
 <metadata>
  <rdf:RDF xmlns:dc="http://purl.org/dc/elements/1.1/" xmlns:cc="http://creativecommons.org/ns#" xmlns:rdf="http://www.w3.org/1999/02/22-rdf-syntax-ns#">
   <cc:Work>
    <dc:type rdf:resource="http://purl.org/dc/dcmitype/StillImage"/>
    <dc:date>2025-04-22T23:10:29.026654</dc:date>
    <dc:format>image/svg+xml</dc:format>
    <dc:creator>
     <cc:Agent>
      <dc:title>Matplotlib v3.10.0, https://matplotlib.org/</dc:title>
     </cc:Agent>
    </dc:creator>
   </cc:Work>
  </rdf:RDF>
 </metadata>
 <defs>
  <style type="text/css">*{stroke-linejoin: round; stroke-linecap: butt}</style>
 </defs>
 <g id="figure_1">
  <g id="patch_1">
   <path d="M 0 432 
L 720 432 
L 720 0 
L 0 0 
z
" style="fill: #ffffff"/>
  </g>
  <g id="axes_1">
   <g id="patch_2">
    <path d="M 44.57 390.04 
L 709.2 390.04 
L 709.2 10.8 
L 44.57 10.8 
z
" style="fill: #ffffff"/>
   </g>
   <g id="FillBetweenPolyCollection_1">
    <path d="M 74.780455 111.889407 
L 74.780455 328.659056 
L 77.8015 312.527085 
L 80.822545 321.321974 
L 83.843591 310.09255 
L 86.864636 299.785211 
L 89.885682 286.637025 
L 92.906727 293.43764 
L 95.927773 297.287054 
L 98.948818 301.393641 
L 101.969864 288.598151 
L 104.990909 315.89309 
L 108.011955 323.308884 
L 111.033 318.908327 
L 114.054045 339.645018 
L 117.075091 348.640874 
L 120.096136 354.73762 
L 123.117182 362.691037 
L 126.138227 355.356061 
L 129.159273 372.801818 
L 132.180318 359.063799 
L 135.201364 357.225834 
L 138.222409 371.647663 
L 141.243455 363.803314 
L 144.2645 356.911969 
L 147.285545 351.497073 
L 150.306591 358.572183 
L 153.327636 353.493162 
L 156.348682 337.119725 
L 159.369727 340.118113 
L 162.390773 342.656781 
L 165.411818 339.244803 
L 168.432864 337.930814 
L 171.453909 342.452356 
L 174.474955 342.009773 
L 177.496 356.236995 
L 180.517045 352.044676 
L 183.538091 340.4501 
L 186.559136 348.325677 
L 189.580182 346.533443 
L 192.601227 346.080667 
L 195.622273 332.717128 
L 198.643318 332.203687 
L 201.664364 335.689329 
L 204.685409 324.610189 
L 207.706455 321.231471 
L 210.7275 321.554312 
L 213.748545 321.666579 
L 216.769591 305.807651 
L 219.790636 303.278354 
L 222.811682 294.222761 
L 225.832727 295.604409 
L 228.853773 290.94543 
L 231.874818 279.999764 
L 234.895864 275.01182 
L 237.916909 263.17077 
L 240.937955 261.538029 
L 243.959 261.43285 
L 246.980045 266.540369 
L 250.001091 270.844039 
L 253.022136 266.438498 
L 256.043182 274.803215 
L 259.064227 283.723465 
L 262.085273 279.934738 
L 265.106318 284.453032 
L 268.127364 282.076258 
L 271.148409 282.388022 
L 274.169455 281.513267 
L 277.1905 275.008118 
L 280.211545 273.460878 
L 283.232591 264.826845 
L 286.253636 268.84721 
L 289.274682 271.102435 
L 292.295727 277.779215 
L 295.316773 305.715018 
L 298.337818 327.030037 
L 301.358864 333.578858 
L 304.379909 339.227331 
L 307.400955 336.231509 
L 310.422 331.790916 
L 313.443045 332.068533 
L 316.464091 325.211746 
L 319.485136 324.579779 
L 322.506182 305.551905 
L 325.527227 301.505692 
L 328.548273 280.986028 
L 331.569318 283.088014 
L 334.590364 269.645016 
L 337.611409 245.375923 
L 340.632455 247.987292 
L 343.6535 241.082802 
L 346.674545 253.53174 
L 349.695591 249.015048 
L 352.716636 242.795557 
L 355.737682 229.014304 
L 358.758727 234.673648 
L 361.779773 234.371463 
L 364.800818 223.713766 
L 367.821864 216.260658 
L 370.842909 221.877071 
L 373.863955 231.174815 
L 376.885 224.70393 
L 379.906045 213.437533 
L 382.927091 212.001045 
L 385.948136 219.488195 
L 388.969182 215.170796 
L 391.990227 189.56047 
L 395.011273 183.338789 
L 398.032318 177.87115 
L 401.053364 182.855591 
L 404.074409 188.939609 
L 407.095455 183.78256 
L 410.1165 202.053083 
L 413.137545 170.983166 
L 416.158591 166.384003 
L 419.179636 153.881482 
L 422.200682 153.174054 
L 425.221727 136.435065 
L 428.242773 130.591584 
L 431.263818 123.373386 
L 434.284864 132.278957 
L 437.305909 129.777937 
L 440.326955 125.401029 
L 443.348 125.257412 
L 446.369045 131.762302 
L 449.390091 128.222859 
L 452.411136 150.749703 
L 455.432182 167.201855 
L 458.453227 204.303427 
L 461.474273 180.65295 
L 464.495318 175.244714 
L 467.516364 195.259774 
L 470.537409 185.816957 
L 473.558455 189.62535 
L 476.5795 219.233627 
L 479.600545 226.574005 
L 482.621591 231.415958 
L 485.642636 220.848049 
L 488.663682 208.018017 
L 491.684727 167.899953 
L 494.705773 144.421054 
L 497.726818 156.091709 
L 500.747864 151.883497 
L 503.768909 143.353863 
L 506.789955 140.337577 
L 509.811 163.582469 
L 512.832045 180.975239 
L 515.853091 157.06101 
L 518.874136 150.630195 
L 521.895182 151.167173 
L 524.916227 153.492018 
L 527.937273 170.959632 
L 530.958318 162.787977 
L 533.979364 169.876334 
L 537.000409 158.071248 
L 540.021455 172.628693 
L 543.0425 148.739393 
L 546.063545 163.120775 
L 549.084591 163.23965 
L 552.105636 148.340375 
L 555.126682 140.539362 
L 558.147727 144.628221 
L 561.168773 144.074532 
L 564.189818 156.570222 
L 567.210864 165.545693 
L 570.231909 145.444385 
L 573.252955 145.256419 
L 576.274 174.950812 
L 579.295045 189.417249 
L 582.316091 197.667211 
L 585.337136 223.198272 
L 588.358182 244.018438 
L 591.379227 254.159391 
L 594.400273 238.694346 
L 597.421318 234.014107 
L 600.442364 235.264042 
L 603.463409 243.539474 
L 606.484455 277.894033 
L 609.5055 259.477177 
L 612.526545 240.057647 
L 615.547591 237.289634 
L 618.568636 245.991738 
L 621.589682 238.918486 
L 624.610727 239.130006 
L 627.631773 236.863258 
L 630.652818 235.099258 
L 633.673864 232.231609 
L 636.694909 227.567562 
L 639.715955 213.895466 
L 642.737 197.834896 
L 645.758045 181.752259 
L 648.779091 154.934235 
L 651.800136 122.435786 
L 654.821182 134.720741 
L 657.842227 117.465076 
L 660.863273 148.896109 
L 663.884318 133.725288 
L 666.905364 130.478961 
L 669.926409 128.337017 
L 672.947455 144.2757 
L 675.9685 192.675897 
L 678.989545 204.509345 
L 678.989545 59.564748 
L 678.989545 59.564748 
L 675.9685 57.823245 
L 672.947455 50.870406 
L 669.926409 40.244314 
L 666.905364 28.038182 
L 663.884318 40.356238 
L 660.863273 31.03669 
L 657.842227 31.104904 
L 654.821182 38.073505 
L 651.800136 34.560026 
L 648.779091 40.094846 
L 645.758045 41.596979 
L 642.737 36.280684 
L 639.715955 41.752795 
L 636.694909 44.932363 
L 633.673864 39.91724 
L 630.652818 46.060549 
L 627.631773 54.711814 
L 624.610727 57.126084 
L 621.589682 55.699248 
L 618.568636 64.073354 
L 615.547591 46.678784 
L 612.526545 56.666545 
L 609.5055 83.355039 
L 606.484455 111.982412 
L 603.463409 63.599982 
L 600.442364 46.363868 
L 597.421318 46.209497 
L 594.400273 51.710471 
L 591.379227 75.331925 
L 588.358182 66.046654 
L 585.337136 67.323571 
L 582.316091 57.278898 
L 579.295045 50.432577 
L 576.274 57.760462 
L 573.252955 47.78323 
L 570.231909 61.170215 
L 567.210864 67.282607 
L 564.189818 66.779017 
L 561.168773 68.040264 
L 558.147727 65.965244 
L 555.126682 58.58561 
L 552.105636 58.1572 
L 549.084591 69.822701 
L 546.063545 74.622593 
L 543.0425 68.875599 
L 540.021455 73.189431 
L 537.000409 66.682295 
L 533.979364 83.548444 
L 530.958318 67.933865 
L 527.937273 64.326202 
L 524.916227 56.282269 
L 521.895182 56.383631 
L 518.874136 57.505736 
L 515.853091 57.043218 
L 512.832045 67.53447 
L 509.811 61.288101 
L 506.789955 58.436318 
L 503.768909 59.515923 
L 500.747864 60.582375 
L 497.726818 58.246571 
L 494.705773 59.970063 
L 491.684727 59.1941 
L 488.663682 64.832984 
L 485.642636 61.83309 
L 482.621591 57.467529 
L 479.600545 48.149404 
L 476.5795 47.06395 
L 473.558455 44.256178 
L 470.537409 45.25596 
L 467.516364 59.569309 
L 464.495318 60.977324 
L 461.474273 58.728774 
L 458.453227 56.142878 
L 455.432182 59.775172 
L 452.411136 48.492294 
L 449.390091 34.156123 
L 446.369045 33.659342 
L 443.348 41.568537 
L 440.326955 39.318462 
L 437.305909 44.420615 
L 434.284864 46.366562 
L 431.263818 35.377807 
L 428.242773 35.181136 
L 425.221727 33.667597 
L 422.200682 34.365399 
L 419.179636 47.349948 
L 416.158591 56.497133 
L 413.137545 60.90893 
L 410.1165 68.808486 
L 407.095455 65.780378 
L 404.074409 83.794367 
L 401.053364 70.920262 
L 398.032318 61.978676 
L 395.011273 72.543523 
L 391.990227 78.492488 
L 388.969182 89.277075 
L 385.948136 95.257915 
L 382.927091 116.554067 
L 379.906045 119.798597 
L 376.885 139.543943 
L 373.863955 144.07345 
L 370.842909 145.764539 
L 367.821864 141.19974 
L 364.800818 152.938804 
L 361.779773 155.504982 
L 358.758727 149.819627 
L 355.737682 146.819088 
L 352.716636 147.666016 
L 349.695591 146.478619 
L 346.674545 158.228463 
L 343.6535 144.463702 
L 340.632455 142.006178 
L 337.611409 147.660209 
L 334.590364 148.902663 
L 331.569318 152.662405 
L 328.548273 155.934646 
L 325.527227 145.47917 
L 322.506182 151.146069 
L 319.485136 162.778861 
L 316.464091 177.126151 
L 313.443045 200.93003 
L 310.422 209.165377 
L 307.400955 216.310303 
L 304.379909 226.772407 
L 301.358864 219.665107 
L 298.337818 205.734475 
L 295.316773 181.058495 
L 292.295727 156.098797 
L 289.274682 160.435069 
L 286.253636 147.945087 
L 283.232591 135.932966 
L 280.211545 143.916547 
L 277.1905 140.496899 
L 274.169455 145.109168 
L 271.148409 146.574922 
L 268.127364 150.397449 
L 265.106318 156.09543 
L 262.085273 150.432511 
L 259.064227 152.846133 
L 256.043182 138.829396 
L 253.022136 132.448906 
L 250.001091 119.266457 
L 246.980045 118.655059 
L 243.959 125.283908 
L 240.937955 120.614737 
L 237.916909 129.865362 
L 234.895864 146.695546 
L 231.874818 149.431281 
L 228.853773 149.954109 
L 225.832727 161.912742 
L 222.811682 170.784019 
L 219.790636 175.537428 
L 216.769591 183.540422 
L 213.748545 190.618481 
L 210.7275 190.496697 
L 207.706455 195.734607 
L 204.685409 201.366848 
L 201.664364 207.724499 
L 198.643318 194.475503 
L 195.622273 190.9194 
L 192.601227 194.173473 
L 189.580182 202.38058 
L 186.559136 201.407525 
L 183.538091 180.143766 
L 180.517045 186.688134 
L 177.496 181.442586 
L 174.474955 174.956304 
L 171.453909 169.949729 
L 168.432864 170.960508 
L 165.411818 163.795246 
L 162.390773 165.532388 
L 159.369727 160.581428 
L 156.348682 163.46279 
L 153.327636 166.515577 
L 150.306591 169.394286 
L 147.285545 167.107361 
L 144.2645 180.299511 
L 141.243455 174.929496 
L 138.222409 179.021742 
L 135.201364 163.602083 
L 132.180318 166.445135 
L 129.159273 172.250366 
L 126.138227 161.727042 
L 123.117182 168.66917 
L 120.096136 160.941177 
L 117.075091 155.452405 
L 114.054045 141.979375 
L 111.033 141.768512 
L 108.011955 130.697505 
L 104.990909 123.602144 
L 101.969864 111.576534 
L 98.948818 112.355995 
L 95.927773 109.55808 
L 92.906727 93.981271 
L 89.885682 86.270731 
L 86.864636 104.602389 
L 83.843591 102.837908 
L 80.822545 108.694198 
L 77.8015 108.829205 
L 74.780455 111.889407 
z
" clip-path="url(#pbaae504a0f)" style="fill: #1f77b4; fill-opacity: 0.2"/>
   </g>
   <g id="matplotlib.axis_1">
    <g id="xtick_1">
     <g id="line2d_1">
      <path d="M 73.254827 390.04 
L 73.254827 10.8 
" clip-path="url(#pbaae504a0f)" style="fill: none; stroke: #b0b0b0; stroke-width: 0.8; stroke-linecap: square"/>
     </g>
     <g id="line2d_2">
      <defs>
       <path id="m3ee1782cc6" d="M 0 0 
L 0 3.5 
" style="stroke: #000000; stroke-width: 0.8"/>
      </defs>
      <g>
       <use xlink:href="#m3ee1782cc6" x="73.254827" y="390.04" style="stroke: #000000; stroke-width: 0.8"/>
      </g>
     </g>
     <g id="text_1">
      <!-- 0 -->
      <g transform="translate(70.073577 404.638438) scale(0.1 -0.1)">
       <defs>
        <path id="DejaVuSans-30" d="M 2034 4250 
Q 1547 4250 1301 3770 
Q 1056 3291 1056 2328 
Q 1056 1369 1301 889 
Q 1547 409 2034 409 
Q 2525 409 2770 889 
Q 3016 1369 3016 2328 
Q 3016 3291 2770 3770 
Q 2525 4250 2034 4250 
z
M 2034 4750 
Q 2819 4750 3233 4129 
Q 3647 3509 3647 2328 
Q 3647 1150 3233 529 
Q 2819 -91 2034 -91 
Q 1250 -91 836 529 
Q 422 1150 422 2328 
Q 422 3509 836 4129 
Q 1250 4750 2034 4750 
z
" transform="scale(0.015625)"/>
       </defs>
       <use xlink:href="#DejaVuSans-30"/>
      </g>
     </g>
    </g>
    <g id="xtick_2">
     <g id="line2d_3">
      <path d="M 148.780963 390.04 
L 148.780963 10.8 
" clip-path="url(#pbaae504a0f)" style="fill: none; stroke: #b0b0b0; stroke-width: 0.8; stroke-linecap: square"/>
     </g>
     <g id="line2d_4">
      <g>
       <use xlink:href="#m3ee1782cc6" x="148.780963" y="390.04" style="stroke: #000000; stroke-width: 0.8"/>
      </g>
     </g>
     <g id="text_2">
      <!-- 5000 -->
      <g transform="translate(136.055963 404.638438) scale(0.1 -0.1)">
       <defs>
        <path id="DejaVuSans-35" d="M 691 4666 
L 3169 4666 
L 3169 4134 
L 1269 4134 
L 1269 2991 
Q 1406 3038 1543 3061 
Q 1681 3084 1819 3084 
Q 2600 3084 3056 2656 
Q 3513 2228 3513 1497 
Q 3513 744 3044 326 
Q 2575 -91 1722 -91 
Q 1428 -91 1123 -41 
Q 819 9 494 109 
L 494 744 
Q 775 591 1075 516 
Q 1375 441 1709 441 
Q 2250 441 2565 725 
Q 2881 1009 2881 1497 
Q 2881 1984 2565 2268 
Q 2250 2553 1709 2553 
Q 1456 2553 1204 2497 
Q 953 2441 691 2322 
L 691 4666 
z
" transform="scale(0.015625)"/>
       </defs>
       <use xlink:href="#DejaVuSans-35"/>
       <use xlink:href="#DejaVuSans-30" transform="translate(63.623047 0)"/>
       <use xlink:href="#DejaVuSans-30" transform="translate(127.246094 0)"/>
       <use xlink:href="#DejaVuSans-30" transform="translate(190.869141 0)"/>
      </g>
     </g>
    </g>
    <g id="xtick_3">
     <g id="line2d_5">
      <path d="M 224.307099 390.04 
L 224.307099 10.8 
" clip-path="url(#pbaae504a0f)" style="fill: none; stroke: #b0b0b0; stroke-width: 0.8; stroke-linecap: square"/>
     </g>
     <g id="line2d_6">
      <g>
       <use xlink:href="#m3ee1782cc6" x="224.307099" y="390.04" style="stroke: #000000; stroke-width: 0.8"/>
      </g>
     </g>
     <g id="text_3">
      <!-- 10000 -->
      <g transform="translate(208.400849 404.638438) scale(0.1 -0.1)">
       <defs>
        <path id="DejaVuSans-31" d="M 794 531 
L 1825 531 
L 1825 4091 
L 703 3866 
L 703 4441 
L 1819 4666 
L 2450 4666 
L 2450 531 
L 3481 531 
L 3481 0 
L 794 0 
L 794 531 
z
" transform="scale(0.015625)"/>
       </defs>
       <use xlink:href="#DejaVuSans-31"/>
       <use xlink:href="#DejaVuSans-30" transform="translate(63.623047 0)"/>
       <use xlink:href="#DejaVuSans-30" transform="translate(127.246094 0)"/>
       <use xlink:href="#DejaVuSans-30" transform="translate(190.869141 0)"/>
       <use xlink:href="#DejaVuSans-30" transform="translate(254.492188 0)"/>
      </g>
     </g>
    </g>
    <g id="xtick_4">
     <g id="line2d_7">
      <path d="M 299.833236 390.04 
L 299.833236 10.8 
" clip-path="url(#pbaae504a0f)" style="fill: none; stroke: #b0b0b0; stroke-width: 0.8; stroke-linecap: square"/>
     </g>
     <g id="line2d_8">
      <g>
       <use xlink:href="#m3ee1782cc6" x="299.833236" y="390.04" style="stroke: #000000; stroke-width: 0.8"/>
      </g>
     </g>
     <g id="text_4">
      <!-- 15000 -->
      <g transform="translate(283.926986 404.638438) scale(0.1 -0.1)">
       <use xlink:href="#DejaVuSans-31"/>
       <use xlink:href="#DejaVuSans-35" transform="translate(63.623047 0)"/>
       <use xlink:href="#DejaVuSans-30" transform="translate(127.246094 0)"/>
       <use xlink:href="#DejaVuSans-30" transform="translate(190.869141 0)"/>
       <use xlink:href="#DejaVuSans-30" transform="translate(254.492188 0)"/>
      </g>
     </g>
    </g>
    <g id="xtick_5">
     <g id="line2d_9">
      <path d="M 375.359372 390.04 
L 375.359372 10.8 
" clip-path="url(#pbaae504a0f)" style="fill: none; stroke: #b0b0b0; stroke-width: 0.8; stroke-linecap: square"/>
     </g>
     <g id="line2d_10">
      <g>
       <use xlink:href="#m3ee1782cc6" x="375.359372" y="390.04" style="stroke: #000000; stroke-width: 0.8"/>
      </g>
     </g>
     <g id="text_5">
      <!-- 20000 -->
      <g transform="translate(359.453122 404.638438) scale(0.1 -0.1)">
       <defs>
        <path id="DejaVuSans-32" d="M 1228 531 
L 3431 531 
L 3431 0 
L 469 0 
L 469 531 
Q 828 903 1448 1529 
Q 2069 2156 2228 2338 
Q 2531 2678 2651 2914 
Q 2772 3150 2772 3378 
Q 2772 3750 2511 3984 
Q 2250 4219 1831 4219 
Q 1534 4219 1204 4116 
Q 875 4013 500 3803 
L 500 4441 
Q 881 4594 1212 4672 
Q 1544 4750 1819 4750 
Q 2544 4750 2975 4387 
Q 3406 4025 3406 3419 
Q 3406 3131 3298 2873 
Q 3191 2616 2906 2266 
Q 2828 2175 2409 1742 
Q 1991 1309 1228 531 
z
" transform="scale(0.015625)"/>
       </defs>
       <use xlink:href="#DejaVuSans-32"/>
       <use xlink:href="#DejaVuSans-30" transform="translate(63.623047 0)"/>
       <use xlink:href="#DejaVuSans-30" transform="translate(127.246094 0)"/>
       <use xlink:href="#DejaVuSans-30" transform="translate(190.869141 0)"/>
       <use xlink:href="#DejaVuSans-30" transform="translate(254.492188 0)"/>
      </g>
     </g>
    </g>
    <g id="xtick_6">
     <g id="line2d_11">
      <path d="M 450.885508 390.04 
L 450.885508 10.8 
" clip-path="url(#pbaae504a0f)" style="fill: none; stroke: #b0b0b0; stroke-width: 0.8; stroke-linecap: square"/>
     </g>
     <g id="line2d_12">
      <g>
       <use xlink:href="#m3ee1782cc6" x="450.885508" y="390.04" style="stroke: #000000; stroke-width: 0.8"/>
      </g>
     </g>
     <g id="text_6">
      <!-- 25000 -->
      <g transform="translate(434.979258 404.638438) scale(0.1 -0.1)">
       <use xlink:href="#DejaVuSans-32"/>
       <use xlink:href="#DejaVuSans-35" transform="translate(63.623047 0)"/>
       <use xlink:href="#DejaVuSans-30" transform="translate(127.246094 0)"/>
       <use xlink:href="#DejaVuSans-30" transform="translate(190.869141 0)"/>
       <use xlink:href="#DejaVuSans-30" transform="translate(254.492188 0)"/>
      </g>
     </g>
    </g>
    <g id="xtick_7">
     <g id="line2d_13">
      <path d="M 526.411645 390.04 
L 526.411645 10.8 
" clip-path="url(#pbaae504a0f)" style="fill: none; stroke: #b0b0b0; stroke-width: 0.8; stroke-linecap: square"/>
     </g>
     <g id="line2d_14">
      <g>
       <use xlink:href="#m3ee1782cc6" x="526.411645" y="390.04" style="stroke: #000000; stroke-width: 0.8"/>
      </g>
     </g>
     <g id="text_7">
      <!-- 30000 -->
      <g transform="translate(510.505395 404.638438) scale(0.1 -0.1)">
       <defs>
        <path id="DejaVuSans-33" d="M 2597 2516 
Q 3050 2419 3304 2112 
Q 3559 1806 3559 1356 
Q 3559 666 3084 287 
Q 2609 -91 1734 -91 
Q 1441 -91 1130 -33 
Q 819 25 488 141 
L 488 750 
Q 750 597 1062 519 
Q 1375 441 1716 441 
Q 2309 441 2620 675 
Q 2931 909 2931 1356 
Q 2931 1769 2642 2001 
Q 2353 2234 1838 2234 
L 1294 2234 
L 1294 2753 
L 1863 2753 
Q 2328 2753 2575 2939 
Q 2822 3125 2822 3475 
Q 2822 3834 2567 4026 
Q 2313 4219 1838 4219 
Q 1578 4219 1281 4162 
Q 984 4106 628 3988 
L 628 4550 
Q 988 4650 1302 4700 
Q 1616 4750 1894 4750 
Q 2613 4750 3031 4423 
Q 3450 4097 3450 3541 
Q 3450 3153 3228 2886 
Q 3006 2619 2597 2516 
z
" transform="scale(0.015625)"/>
       </defs>
       <use xlink:href="#DejaVuSans-33"/>
       <use xlink:href="#DejaVuSans-30" transform="translate(63.623047 0)"/>
       <use xlink:href="#DejaVuSans-30" transform="translate(127.246094 0)"/>
       <use xlink:href="#DejaVuSans-30" transform="translate(190.869141 0)"/>
       <use xlink:href="#DejaVuSans-30" transform="translate(254.492188 0)"/>
      </g>
     </g>
    </g>
    <g id="xtick_8">
     <g id="line2d_15">
      <path d="M 601.937781 390.04 
L 601.937781 10.8 
" clip-path="url(#pbaae504a0f)" style="fill: none; stroke: #b0b0b0; stroke-width: 0.8; stroke-linecap: square"/>
     </g>
     <g id="line2d_16">
      <g>
       <use xlink:href="#m3ee1782cc6" x="601.937781" y="390.04" style="stroke: #000000; stroke-width: 0.8"/>
      </g>
     </g>
     <g id="text_8">
      <!-- 35000 -->
      <g transform="translate(586.031531 404.638438) scale(0.1 -0.1)">
       <use xlink:href="#DejaVuSans-33"/>
       <use xlink:href="#DejaVuSans-35" transform="translate(63.623047 0)"/>
       <use xlink:href="#DejaVuSans-30" transform="translate(127.246094 0)"/>
       <use xlink:href="#DejaVuSans-30" transform="translate(190.869141 0)"/>
       <use xlink:href="#DejaVuSans-30" transform="translate(254.492188 0)"/>
      </g>
     </g>
    </g>
    <g id="xtick_9">
     <g id="line2d_17">
      <path d="M 677.463917 390.04 
L 677.463917 10.8 
" clip-path="url(#pbaae504a0f)" style="fill: none; stroke: #b0b0b0; stroke-width: 0.8; stroke-linecap: square"/>
     </g>
     <g id="line2d_18">
      <g>
       <use xlink:href="#m3ee1782cc6" x="677.463917" y="390.04" style="stroke: #000000; stroke-width: 0.8"/>
      </g>
     </g>
     <g id="text_9">
      <!-- 40000 -->
      <g transform="translate(661.557667 404.638438) scale(0.1 -0.1)">
       <defs>
        <path id="DejaVuSans-34" d="M 2419 4116 
L 825 1625 
L 2419 1625 
L 2419 4116 
z
M 2253 4666 
L 3047 4666 
L 3047 1625 
L 3713 1625 
L 3713 1100 
L 3047 1100 
L 3047 0 
L 2419 0 
L 2419 1100 
L 313 1100 
L 313 1709 
L 2253 4666 
z
" transform="scale(0.015625)"/>
       </defs>
       <use xlink:href="#DejaVuSans-34"/>
       <use xlink:href="#DejaVuSans-30" transform="translate(63.623047 0)"/>
       <use xlink:href="#DejaVuSans-30" transform="translate(127.246094 0)"/>
       <use xlink:href="#DejaVuSans-30" transform="translate(190.869141 0)"/>
       <use xlink:href="#DejaVuSans-30" transform="translate(254.492188 0)"/>
      </g>
     </g>
    </g>
    <g id="text_10">
     <!-- Episodes -->
     <g transform="translate(354.642812 418.316562) scale(0.1 -0.1)">
      <defs>
       <path id="DejaVuSans-45" d="M 628 4666 
L 3578 4666 
L 3578 4134 
L 1259 4134 
L 1259 2753 
L 3481 2753 
L 3481 2222 
L 1259 2222 
L 1259 531 
L 3634 531 
L 3634 0 
L 628 0 
L 628 4666 
z
" transform="scale(0.015625)"/>
       <path id="DejaVuSans-70" d="M 1159 525 
L 1159 -1331 
L 581 -1331 
L 581 3500 
L 1159 3500 
L 1159 2969 
Q 1341 3281 1617 3432 
Q 1894 3584 2278 3584 
Q 2916 3584 3314 3078 
Q 3713 2572 3713 1747 
Q 3713 922 3314 415 
Q 2916 -91 2278 -91 
Q 1894 -91 1617 61 
Q 1341 213 1159 525 
z
M 3116 1747 
Q 3116 2381 2855 2742 
Q 2594 3103 2138 3103 
Q 1681 3103 1420 2742 
Q 1159 2381 1159 1747 
Q 1159 1113 1420 752 
Q 1681 391 2138 391 
Q 2594 391 2855 752 
Q 3116 1113 3116 1747 
z
" transform="scale(0.015625)"/>
       <path id="DejaVuSans-69" d="M 603 3500 
L 1178 3500 
L 1178 0 
L 603 0 
L 603 3500 
z
M 603 4863 
L 1178 4863 
L 1178 4134 
L 603 4134 
L 603 4863 
z
" transform="scale(0.015625)"/>
       <path id="DejaVuSans-73" d="M 2834 3397 
L 2834 2853 
Q 2591 2978 2328 3040 
Q 2066 3103 1784 3103 
Q 1356 3103 1142 2972 
Q 928 2841 928 2578 
Q 928 2378 1081 2264 
Q 1234 2150 1697 2047 
L 1894 2003 
Q 2506 1872 2764 1633 
Q 3022 1394 3022 966 
Q 3022 478 2636 193 
Q 2250 -91 1575 -91 
Q 1294 -91 989 -36 
Q 684 19 347 128 
L 347 722 
Q 666 556 975 473 
Q 1284 391 1588 391 
Q 1994 391 2212 530 
Q 2431 669 2431 922 
Q 2431 1156 2273 1281 
Q 2116 1406 1581 1522 
L 1381 1569 
Q 847 1681 609 1914 
Q 372 2147 372 2553 
Q 372 3047 722 3315 
Q 1072 3584 1716 3584 
Q 2034 3584 2315 3537 
Q 2597 3491 2834 3397 
z
" transform="scale(0.015625)"/>
       <path id="DejaVuSans-6f" d="M 1959 3097 
Q 1497 3097 1228 2736 
Q 959 2375 959 1747 
Q 959 1119 1226 758 
Q 1494 397 1959 397 
Q 2419 397 2687 759 
Q 2956 1122 2956 1747 
Q 2956 2369 2687 2733 
Q 2419 3097 1959 3097 
z
M 1959 3584 
Q 2709 3584 3137 3096 
Q 3566 2609 3566 1747 
Q 3566 888 3137 398 
Q 2709 -91 1959 -91 
Q 1206 -91 779 398 
Q 353 888 353 1747 
Q 353 2609 779 3096 
Q 1206 3584 1959 3584 
z
" transform="scale(0.015625)"/>
       <path id="DejaVuSans-64" d="M 2906 2969 
L 2906 4863 
L 3481 4863 
L 3481 0 
L 2906 0 
L 2906 525 
Q 2725 213 2448 61 
Q 2172 -91 1784 -91 
Q 1150 -91 751 415 
Q 353 922 353 1747 
Q 353 2572 751 3078 
Q 1150 3584 1784 3584 
Q 2172 3584 2448 3432 
Q 2725 3281 2906 2969 
z
M 947 1747 
Q 947 1113 1208 752 
Q 1469 391 1925 391 
Q 2381 391 2643 752 
Q 2906 1113 2906 1747 
Q 2906 2381 2643 2742 
Q 2381 3103 1925 3103 
Q 1469 3103 1208 2742 
Q 947 2381 947 1747 
z
" transform="scale(0.015625)"/>
       <path id="DejaVuSans-65" d="M 3597 1894 
L 3597 1613 
L 953 1613 
Q 991 1019 1311 708 
Q 1631 397 2203 397 
Q 2534 397 2845 478 
Q 3156 559 3463 722 
L 3463 178 
Q 3153 47 2828 -22 
Q 2503 -91 2169 -91 
Q 1331 -91 842 396 
Q 353 884 353 1716 
Q 353 2575 817 3079 
Q 1281 3584 2069 3584 
Q 2775 3584 3186 3129 
Q 3597 2675 3597 1894 
z
M 3022 2063 
Q 3016 2534 2758 2815 
Q 2500 3097 2075 3097 
Q 1594 3097 1305 2825 
Q 1016 2553 972 2059 
L 3022 2063 
z
" transform="scale(0.015625)"/>
      </defs>
      <use xlink:href="#DejaVuSans-45"/>
      <use xlink:href="#DejaVuSans-70" transform="translate(63.183594 0)"/>
      <use xlink:href="#DejaVuSans-69" transform="translate(126.660156 0)"/>
      <use xlink:href="#DejaVuSans-73" transform="translate(154.443359 0)"/>
      <use xlink:href="#DejaVuSans-6f" transform="translate(206.542969 0)"/>
      <use xlink:href="#DejaVuSans-64" transform="translate(267.724609 0)"/>
      <use xlink:href="#DejaVuSans-65" transform="translate(331.201172 0)"/>
      <use xlink:href="#DejaVuSans-73" transform="translate(392.724609 0)"/>
     </g>
    </g>
   </g>
   <g id="matplotlib.axis_2">
    <g id="ytick_1">
     <g id="line2d_19">
      <path d="M 44.57 372.465821 
L 709.2 372.465821 
" clip-path="url(#pbaae504a0f)" style="fill: none; stroke: #b0b0b0; stroke-width: 0.8; stroke-linecap: square"/>
     </g>
     <g id="line2d_20">
      <defs>
       <path id="m5f28ed66e5" d="M 0 0 
L -3.5 0 
" style="stroke: #000000; stroke-width: 0.8"/>
      </defs>
      <g>
       <use xlink:href="#m5f28ed66e5" x="44.57" y="372.465821" style="stroke: #000000; stroke-width: 0.8"/>
      </g>
     </g>
     <g id="text_11">
      <!-- 4 -->
      <g transform="translate(31.2075 376.26504) scale(0.1 -0.1)">
       <use xlink:href="#DejaVuSans-34"/>
      </g>
     </g>
    </g>
    <g id="ytick_2">
     <g id="line2d_21">
      <path d="M 44.57 302.250555 
L 709.2 302.250555 
" clip-path="url(#pbaae504a0f)" style="fill: none; stroke: #b0b0b0; stroke-width: 0.8; stroke-linecap: square"/>
     </g>
     <g id="line2d_22">
      <g>
       <use xlink:href="#m5f28ed66e5" x="44.57" y="302.250555" style="stroke: #000000; stroke-width: 0.8"/>
      </g>
     </g>
     <g id="text_12">
      <!-- 6 -->
      <g transform="translate(31.2075 306.049773) scale(0.1 -0.1)">
       <defs>
        <path id="DejaVuSans-36" d="M 2113 2584 
Q 1688 2584 1439 2293 
Q 1191 2003 1191 1497 
Q 1191 994 1439 701 
Q 1688 409 2113 409 
Q 2538 409 2786 701 
Q 3034 994 3034 1497 
Q 3034 2003 2786 2293 
Q 2538 2584 2113 2584 
z
M 3366 4563 
L 3366 3988 
Q 3128 4100 2886 4159 
Q 2644 4219 2406 4219 
Q 1781 4219 1451 3797 
Q 1122 3375 1075 2522 
Q 1259 2794 1537 2939 
Q 1816 3084 2150 3084 
Q 2853 3084 3261 2657 
Q 3669 2231 3669 1497 
Q 3669 778 3244 343 
Q 2819 -91 2113 -91 
Q 1303 -91 875 529 
Q 447 1150 447 2328 
Q 447 3434 972 4092 
Q 1497 4750 2381 4750 
Q 2619 4750 2861 4703 
Q 3103 4656 3366 4563 
z
" transform="scale(0.015625)"/>
       </defs>
       <use xlink:href="#DejaVuSans-36"/>
      </g>
     </g>
    </g>
    <g id="ytick_3">
     <g id="line2d_23">
      <path d="M 44.57 232.035288 
L 709.2 232.035288 
" clip-path="url(#pbaae504a0f)" style="fill: none; stroke: #b0b0b0; stroke-width: 0.8; stroke-linecap: square"/>
     </g>
     <g id="line2d_24">
      <g>
       <use xlink:href="#m5f28ed66e5" x="44.57" y="232.035288" style="stroke: #000000; stroke-width: 0.8"/>
      </g>
     </g>
     <g id="text_13">
      <!-- 8 -->
      <g transform="translate(31.2075 235.834507) scale(0.1 -0.1)">
       <defs>
        <path id="DejaVuSans-38" d="M 2034 2216 
Q 1584 2216 1326 1975 
Q 1069 1734 1069 1313 
Q 1069 891 1326 650 
Q 1584 409 2034 409 
Q 2484 409 2743 651 
Q 3003 894 3003 1313 
Q 3003 1734 2745 1975 
Q 2488 2216 2034 2216 
z
M 1403 2484 
Q 997 2584 770 2862 
Q 544 3141 544 3541 
Q 544 4100 942 4425 
Q 1341 4750 2034 4750 
Q 2731 4750 3128 4425 
Q 3525 4100 3525 3541 
Q 3525 3141 3298 2862 
Q 3072 2584 2669 2484 
Q 3125 2378 3379 2068 
Q 3634 1759 3634 1313 
Q 3634 634 3220 271 
Q 2806 -91 2034 -91 
Q 1263 -91 848 271 
Q 434 634 434 1313 
Q 434 1759 690 2068 
Q 947 2378 1403 2484 
z
M 1172 3481 
Q 1172 3119 1398 2916 
Q 1625 2713 2034 2713 
Q 2441 2713 2670 2916 
Q 2900 3119 2900 3481 
Q 2900 3844 2670 4047 
Q 2441 4250 2034 4250 
Q 1625 4250 1398 4047 
Q 1172 3844 1172 3481 
z
" transform="scale(0.015625)"/>
       </defs>
       <use xlink:href="#DejaVuSans-38"/>
      </g>
     </g>
    </g>
    <g id="ytick_4">
     <g id="line2d_25">
      <path d="M 44.57 161.820022 
L 709.2 161.820022 
" clip-path="url(#pbaae504a0f)" style="fill: none; stroke: #b0b0b0; stroke-width: 0.8; stroke-linecap: square"/>
     </g>
     <g id="line2d_26">
      <g>
       <use xlink:href="#m5f28ed66e5" x="44.57" y="161.820022" style="stroke: #000000; stroke-width: 0.8"/>
      </g>
     </g>
     <g id="text_14">
      <!-- 10 -->
      <g transform="translate(24.845 165.619241) scale(0.1 -0.1)">
       <use xlink:href="#DejaVuSans-31"/>
       <use xlink:href="#DejaVuSans-30" transform="translate(63.623047 0)"/>
      </g>
     </g>
    </g>
    <g id="ytick_5">
     <g id="line2d_27">
      <path d="M 44.57 91.604756 
L 709.2 91.604756 
" clip-path="url(#pbaae504a0f)" style="fill: none; stroke: #b0b0b0; stroke-width: 0.8; stroke-linecap: square"/>
     </g>
     <g id="line2d_28">
      <g>
       <use xlink:href="#m5f28ed66e5" x="44.57" y="91.604756" style="stroke: #000000; stroke-width: 0.8"/>
      </g>
     </g>
     <g id="text_15">
      <!-- 12 -->
      <g transform="translate(24.845 95.403974) scale(0.1 -0.1)">
       <use xlink:href="#DejaVuSans-31"/>
       <use xlink:href="#DejaVuSans-32" transform="translate(63.623047 0)"/>
      </g>
     </g>
    </g>
    <g id="ytick_6">
     <g id="line2d_29">
      <path d="M 44.57 21.389489 
L 709.2 21.389489 
" clip-path="url(#pbaae504a0f)" style="fill: none; stroke: #b0b0b0; stroke-width: 0.8; stroke-linecap: square"/>
     </g>
     <g id="line2d_30">
      <g>
       <use xlink:href="#m5f28ed66e5" x="44.57" y="21.389489" style="stroke: #000000; stroke-width: 0.8"/>
      </g>
     </g>
     <g id="text_16">
      <!-- 14 -->
      <g transform="translate(24.845 25.188708) scale(0.1 -0.1)">
       <use xlink:href="#DejaVuSans-31"/>
       <use xlink:href="#DejaVuSans-34" transform="translate(63.623047 0)"/>
      </g>
     </g>
    </g>
    <g id="text_17">
     <!-- Quantum Gates -->
     <g transform="translate(18.765312 239.925469) rotate(-90) scale(0.1 -0.1)">
      <defs>
       <path id="DejaVuSans-51" d="M 2522 4238 
Q 1834 4238 1429 3725 
Q 1025 3213 1025 2328 
Q 1025 1447 1429 934 
Q 1834 422 2522 422 
Q 3209 422 3611 934 
Q 4013 1447 4013 2328 
Q 4013 3213 3611 3725 
Q 3209 4238 2522 4238 
z
M 3406 84 
L 4238 -825 
L 3475 -825 
L 2784 -78 
Q 2681 -84 2626 -87 
Q 2572 -91 2522 -91 
Q 1538 -91 948 567 
Q 359 1225 359 2328 
Q 359 3434 948 4092 
Q 1538 4750 2522 4750 
Q 3503 4750 4090 4092 
Q 4678 3434 4678 2328 
Q 4678 1516 4351 937 
Q 4025 359 3406 84 
z
" transform="scale(0.015625)"/>
       <path id="DejaVuSans-75" d="M 544 1381 
L 544 3500 
L 1119 3500 
L 1119 1403 
Q 1119 906 1312 657 
Q 1506 409 1894 409 
Q 2359 409 2629 706 
Q 2900 1003 2900 1516 
L 2900 3500 
L 3475 3500 
L 3475 0 
L 2900 0 
L 2900 538 
Q 2691 219 2414 64 
Q 2138 -91 1772 -91 
Q 1169 -91 856 284 
Q 544 659 544 1381 
z
M 1991 3584 
L 1991 3584 
z
" transform="scale(0.015625)"/>
       <path id="DejaVuSans-61" d="M 2194 1759 
Q 1497 1759 1228 1600 
Q 959 1441 959 1056 
Q 959 750 1161 570 
Q 1363 391 1709 391 
Q 2188 391 2477 730 
Q 2766 1069 2766 1631 
L 2766 1759 
L 2194 1759 
z
M 3341 1997 
L 3341 0 
L 2766 0 
L 2766 531 
Q 2569 213 2275 61 
Q 1981 -91 1556 -91 
Q 1019 -91 701 211 
Q 384 513 384 1019 
Q 384 1609 779 1909 
Q 1175 2209 1959 2209 
L 2766 2209 
L 2766 2266 
Q 2766 2663 2505 2880 
Q 2244 3097 1772 3097 
Q 1472 3097 1187 3025 
Q 903 2953 641 2809 
L 641 3341 
Q 956 3463 1253 3523 
Q 1550 3584 1831 3584 
Q 2591 3584 2966 3190 
Q 3341 2797 3341 1997 
z
" transform="scale(0.015625)"/>
       <path id="DejaVuSans-6e" d="M 3513 2113 
L 3513 0 
L 2938 0 
L 2938 2094 
Q 2938 2591 2744 2837 
Q 2550 3084 2163 3084 
Q 1697 3084 1428 2787 
Q 1159 2491 1159 1978 
L 1159 0 
L 581 0 
L 581 3500 
L 1159 3500 
L 1159 2956 
Q 1366 3272 1645 3428 
Q 1925 3584 2291 3584 
Q 2894 3584 3203 3211 
Q 3513 2838 3513 2113 
z
" transform="scale(0.015625)"/>
       <path id="DejaVuSans-74" d="M 1172 4494 
L 1172 3500 
L 2356 3500 
L 2356 3053 
L 1172 3053 
L 1172 1153 
Q 1172 725 1289 603 
Q 1406 481 1766 481 
L 2356 481 
L 2356 0 
L 1766 0 
Q 1100 0 847 248 
Q 594 497 594 1153 
L 594 3053 
L 172 3053 
L 172 3500 
L 594 3500 
L 594 4494 
L 1172 4494 
z
" transform="scale(0.015625)"/>
       <path id="DejaVuSans-6d" d="M 3328 2828 
Q 3544 3216 3844 3400 
Q 4144 3584 4550 3584 
Q 5097 3584 5394 3201 
Q 5691 2819 5691 2113 
L 5691 0 
L 5113 0 
L 5113 2094 
Q 5113 2597 4934 2840 
Q 4756 3084 4391 3084 
Q 3944 3084 3684 2787 
Q 3425 2491 3425 1978 
L 3425 0 
L 2847 0 
L 2847 2094 
Q 2847 2600 2669 2842 
Q 2491 3084 2119 3084 
Q 1678 3084 1418 2786 
Q 1159 2488 1159 1978 
L 1159 0 
L 581 0 
L 581 3500 
L 1159 3500 
L 1159 2956 
Q 1356 3278 1631 3431 
Q 1906 3584 2284 3584 
Q 2666 3584 2933 3390 
Q 3200 3197 3328 2828 
z
" transform="scale(0.015625)"/>
       <path id="DejaVuSans-20" transform="scale(0.015625)"/>
       <path id="DejaVuSans-47" d="M 3809 666 
L 3809 1919 
L 2778 1919 
L 2778 2438 
L 4434 2438 
L 4434 434 
Q 4069 175 3628 42 
Q 3188 -91 2688 -91 
Q 1594 -91 976 548 
Q 359 1188 359 2328 
Q 359 3472 976 4111 
Q 1594 4750 2688 4750 
Q 3144 4750 3555 4637 
Q 3966 4525 4313 4306 
L 4313 3634 
Q 3963 3931 3569 4081 
Q 3175 4231 2741 4231 
Q 1884 4231 1454 3753 
Q 1025 3275 1025 2328 
Q 1025 1384 1454 906 
Q 1884 428 2741 428 
Q 3075 428 3337 486 
Q 3600 544 3809 666 
z
" transform="scale(0.015625)"/>
      </defs>
      <use xlink:href="#DejaVuSans-51"/>
      <use xlink:href="#DejaVuSans-75" transform="translate(78.710938 0)"/>
      <use xlink:href="#DejaVuSans-61" transform="translate(142.089844 0)"/>
      <use xlink:href="#DejaVuSans-6e" transform="translate(203.369141 0)"/>
      <use xlink:href="#DejaVuSans-74" transform="translate(266.748047 0)"/>
      <use xlink:href="#DejaVuSans-75" transform="translate(305.957031 0)"/>
      <use xlink:href="#DejaVuSans-6d" transform="translate(369.335938 0)"/>
      <use xlink:href="#DejaVuSans-20" transform="translate(466.748047 0)"/>
      <use xlink:href="#DejaVuSans-47" transform="translate(498.535156 0)"/>
      <use xlink:href="#DejaVuSans-61" transform="translate(576.025391 0)"/>
      <use xlink:href="#DejaVuSans-74" transform="translate(637.304688 0)"/>
      <use xlink:href="#DejaVuSans-65" transform="translate(676.513672 0)"/>
      <use xlink:href="#DejaVuSans-73" transform="translate(738.037109 0)"/>
     </g>
    </g>
   </g>
   <g id="line2d_31">
    <path d="M 74.780455 220.274231 
L 77.8015 210.678145 
L 80.822545 215.008086 
L 83.843591 206.465229 
L 86.864636 202.1938 
L 89.885682 186.453878 
L 92.906727 193.709455 
L 95.927773 203.422567 
L 98.948818 206.874818 
L 101.969864 200.087342 
L 104.990909 219.747617 
L 108.011955 227.003194 
L 111.033 230.338419 
L 114.054045 240.812197 
L 117.075091 252.046639 
L 120.096136 257.839399 
L 123.117182 265.680103 
L 126.138227 258.541551 
L 129.159273 272.526092 
L 132.180318 262.754467 
L 135.201364 260.413958 
L 138.222409 275.334703 
L 141.243455 269.366405 
L 144.2645 268.60574 
L 147.285545 259.302217 
L 150.306591 263.983235 
L 153.327636 260.004369 
L 156.348682 250.291258 
L 159.369727 250.34977 
L 162.390773 254.094585 
L 165.411818 251.520025 
L 168.432864 254.445661 
L 171.453909 256.201043 
L 174.474955 258.483039 
L 177.496 268.83979 
L 180.517045 269.366405 
L 183.538091 260.296933 
L 186.559136 274.866601 
L 189.580182 274.457012 
L 192.601227 270.12707 
L 195.622273 261.818264 
L 198.643318 263.339595 
L 201.664364 271.706914 
L 204.685409 262.988518 
L 207.706455 258.483039 
L 210.7275 256.025504 
L 213.748545 256.14253 
L 216.769591 244.674036 
L 219.790636 239.407891 
L 222.811682 232.50339 
L 225.832727 228.758576 
L 228.853773 220.449769 
L 231.874818 214.715523 
L 234.895864 210.853683 
L 237.916909 196.518066 
L 240.937955 191.076383 
L 243.959 193.358379 
L 246.980045 192.597714 
L 250.001091 195.055248 
L 253.022136 199.443702 
L 256.043182 206.816305 
L 259.064227 218.284799 
L 262.085273 215.183624 
L 265.106318 220.274231 
L 268.127364 216.236853 
L 271.148409 214.481472 
L 274.169455 213.311217 
L 277.1905 207.752509 
L 280.211545 208.688712 
L 283.232591 200.379906 
L 286.253636 208.396149 
L 289.274682 215.768752 
L 292.295727 216.939006 
L 295.316773 243.386756 
L 298.337818 266.382256 
L 301.358864 276.621982 
L 304.379909 282.999869 
L 307.400955 276.270906 
L 310.422 270.478147 
L 313.443045 266.499282 
L 316.464091 251.168948 
L 319.485136 243.67932 
L 322.506182 228.348987 
L 328.548273 218.460337 
L 331.569318 217.87521 
L 334.590364 209.273839 
L 337.611409 196.518066 
L 340.632455 194.996735 
L 343.6535 192.773252 
L 346.674545 205.880102 
L 349.695591 197.746833 
L 352.716636 195.230786 
L 355.737682 187.916696 
L 358.758727 192.246637 
L 361.779773 194.938223 
L 364.800818 188.326285 
L 367.821864 178.730199 
L 370.842909 183.820805 
L 373.863955 187.624132 
L 376.885 182.123936 
L 379.906045 166.618065 
L 382.927091 164.277556 
L 385.948136 157.373055 
L 388.969182 152.223936 
L 391.990227 134.026479 
L 395.011273 127.941156 
L 398.032318 119.924913 
L 401.053364 126.887927 
L 404.074409 136.366988 
L 407.095455 124.781469 
L 410.1165 135.430784 
L 413.137545 115.946048 
L 416.158591 111.440568 
L 419.179636 100.615715 
L 422.200682 93.769726 
L 425.221727 85.051331 
L 428.242773 82.88636 
L 431.263818 79.375597 
L 434.284864 89.322759 
L 437.305909 87.099276 
L 440.326955 82.359746 
L 443.348 83.412975 
L 446.369045 82.710822 
L 449.390091 81.189491 
L 452.411136 99.620999 
L 455.432182 113.488514 
L 458.453227 130.223152 
L 461.474273 119.690862 
L 464.495318 118.111019 
L 467.516364 127.414541 
L 470.537409 115.536459 
L 473.558455 116.940764 
L 476.5795 133.148788 
L 479.600545 137.361704 
L 482.621591 144.441744 
L 485.642636 141.340569 
L 488.663682 136.425501 
L 491.684727 113.547026 
L 494.705773 102.195558 
L 497.726818 107.16914 
L 500.747864 106.232936 
L 503.768909 101.434893 
L 506.789955 99.386948 
L 509.811 112.435285 
L 512.832045 124.254854 
L 515.853091 107.052114 
L 518.874136 104.067965 
L 521.895182 103.775402 
L 524.916227 104.887143 
L 527.937273 117.642917 
L 530.958318 115.360921 
L 533.979364 126.712389 
L 537.000409 112.376772 
L 540.021455 122.909062 
L 543.0425 108.807496 
L 546.063545 118.871684 
L 549.084591 116.531175 
L 552.105636 103.248787 
L 555.126682 99.562486 
L 558.147727 105.296733 
L 561.168773 106.057398 
L 564.189818 111.674619 
L 567.210864 116.41415 
L 570.231909 103.3073 
L 573.252955 96.519824 
L 576.274 116.355637 
L 579.295045 119.924913 
L 582.316091 127.473054 
L 585.337136 145.260922 
L 591.379227 164.745658 
L 594.400273 145.202409 
L 597.421318 140.111802 
L 600.442364 140.813955 
L 603.463409 153.569728 
L 606.484455 194.938223 
L 612.526545 148.362096 
L 615.547591 141.984209 
L 618.568636 155.032546 
L 621.589682 147.308867 
L 624.610727 148.128045 
L 627.631773 145.787536 
L 630.652818 140.579904 
L 633.673864 136.074424 
L 636.694909 136.249962 
L 639.715955 127.82413 
L 642.737 117.05779 
L 645.758045 111.674619 
L 648.779091 97.514541 
L 651.800136 78.497906 
L 654.821182 86.397123 
L 657.842227 74.28499 
L 660.863273 89.966399 
L 663.884318 87.040763 
L 666.905364 79.258571 
L 669.926409 84.290665 
L 672.947455 97.573053 
L 675.9685 125.249571 
L 678.989545 132.037046 
L 678.989545 132.037046 
" clip-path="url(#pbaae504a0f)" style="fill: none; stroke: #1f77b4; stroke-width: 1.5; stroke-linecap: square"/>
   </g>
   <g id="patch_3">
    <path d="M 44.57 390.04 
L 44.57 10.8 
" style="fill: none; stroke: #000000; stroke-width: 0.8; stroke-linejoin: miter; stroke-linecap: square"/>
   </g>
   <g id="patch_4">
    <path d="M 709.2 390.04 
L 709.2 10.8 
" style="fill: none; stroke: #000000; stroke-width: 0.8; stroke-linejoin: miter; stroke-linecap: square"/>
   </g>
   <g id="patch_5">
    <path d="M 44.57 390.04 
L 709.2 390.04 
" style="fill: none; stroke: #000000; stroke-width: 0.8; stroke-linejoin: miter; stroke-linecap: square"/>
   </g>
   <g id="patch_6">
    <path d="M 44.57 10.8 
L 709.2 10.8 
" style="fill: none; stroke: #000000; stroke-width: 0.8; stroke-linejoin: miter; stroke-linecap: square"/>
   </g>
  </g>
 </g>
 <defs>
  <clipPath id="pbaae504a0f">
   <rect x="44.57" y="10.8" width="664.63" height="379.24"/>
  </clipPath>
 </defs>
</svg>
