<?xml version="1.0" encoding="utf-8" standalone="no"?>
<!DOCTYPE svg PUBLIC "-//W3C//DTD SVG 1.1//EN"
  "http://www.w3.org/Graphics/SVG/1.1/DTD/svg11.dtd">
<svg xmlns:xlink="http://www.w3.org/1999/xlink" width="720pt" height="432pt" viewBox="0 0 720 432" xmlns="http://www.w3.org/2000/svg" version="1.1">
 <metadata>
  <rdf:RDF xmlns:dc="http://purl.org/dc/elements/1.1/" xmlns:cc="http://creativecommons.org/ns#" xmlns:rdf="http://www.w3.org/1999/02/22-rdf-syntax-ns#">
   <cc:Work>
    <dc:type rdf:resource="http://purl.org/dc/dcmitype/StillImage"/>
    <dc:date>2025-04-16T01:00:45.502710</dc:date>
    <dc:format>image/svg+xml</dc:format>
    <dc:creator>
     <cc:Agent>
      <dc:title>Matplotlib v3.10.0, https://matplotlib.org/</dc:title>
     </cc:Agent>
    </dc:creator>
   </cc:Work>
  </rdf:RDF>
 </metadata>
 <defs>
  <style type="text/css">*{stroke-linejoin: round; stroke-linecap: butt}</style>
 </defs>
 <g id="figure_1">
  <g id="patch_1">
   <path d="M 0 432 
L 720 432 
L 720 0 
L 0 0 
z
" style="fill: #ffffff"/>
  </g>
  <g id="axes_1">
   <g id="patch_2">
    <path d="M 47.63 390.04 
L 706.670361 390.04 
L 706.670361 10.8 
L 47.63 10.8 
z
" style="fill: #ffffff"/>
   </g>
   <g id="FillBetweenPolyCollection_1">
    <path d="M 77.58638 47.244539 
L 77.58638 370.107671 
L 81.689994 354.584406 
L 85.793607 362.619412 
L 89.897221 340.175345 
L 94.000835 364.023401 
L 98.104449 356.285011 
L 102.208062 353.734756 
L 106.311676 361.372211 
L 110.41529 362.67207 
L 114.518903 354.309208 
L 118.622517 360.914339 
L 122.726131 341.638019 
L 126.829745 351.236088 
L 130.933358 363.878555 
L 135.036972 344.408395 
L 139.140586 347.782284 
L 143.244199 370.076302 
L 147.347813 343.968049 
L 151.451427 354.298682 
L 155.55504 355.930874 
L 159.658654 349.261778 
L 163.762268 348.984182 
L 167.865882 350.841413 
L 171.969495 358.489615 
L 176.073109 352.946667 
L 180.176723 352.021911 
L 184.280336 352.231971 
L 188.38395 350.963302 
L 192.487564 347.050073 
L 196.591178 344.043741 
L 200.694791 355.375849 
L 204.798405 370.657064 
L 208.902019 349.452225 
L 213.005632 361.83331 
L 217.109246 368.268742 
L 221.21286 352.596008 
L 225.316473 348.105354 
L 229.420087 367.597807 
L 233.523701 330.676285 
L 237.627315 351.95137 
L 241.730928 343.579844 
L 245.834542 350.98917 
L 249.938156 347.383324 
L 254.041769 344.678769 
L 258.145383 365.514318 
L 262.248997 348.762928 
L 266.352611 358.180449 
L 270.456224 352.297605 
L 274.559838 366.723279 
L 278.663452 358.372009 
L 282.767065 351.353601 
L 286.870679 350.941025 
L 290.974293 349.339598 
L 295.077906 356.443596 
L 299.18152 343.536485 
L 303.285134 361.850267 
L 307.388748 353.019358 
L 311.492361 358.208208 
L 315.595975 341.701657 
L 319.699589 355.971792 
L 323.803202 350.41812 
L 327.906816 371.108373 
L 332.01043 356.106067 
L 336.114044 347.091526 
L 340.217657 351.039281 
L 344.321271 361.56975 
L 348.424885 345.307636 
L 352.528498 344.753241 
L 356.632112 361.521017 
L 360.735726 338.063986 
L 364.839339 342.966403 
L 368.942953 349.580869 
L 373.046567 351.406288 
L 377.150181 368.18776 
L 381.253794 360.41867 
L 385.357408 349.890471 
L 389.461022 372.801818 
L 393.564635 367.496542 
L 397.668249 355.821506 
L 401.771863 350.824353 
L 405.875477 347.084942 
L 409.97909 361.573351 
L 414.082704 351.123091 
L 418.186318 354.925636 
L 422.289931 371.368722 
L 426.393545 352.216456 
L 430.497159 345.315764 
L 434.600772 350.213797 
L 438.704386 363.921275 
L 442.808 370.924737 
L 446.911614 351.831025 
L 451.015227 354.331333 
L 455.118841 352.599182 
L 459.222455 355.541236 
L 463.326068 349.410701 
L 467.429682 354.479541 
L 471.533296 355.789896 
L 475.63691 338.068338 
L 479.740523 360.813257 
L 483.844137 350.827422 
L 487.947751 356.515914 
L 492.051364 365.434922 
L 496.154978 354.342345 
L 500.258592 342.879746 
L 504.362205 360.354736 
L 508.465819 360.101621 
L 512.569433 358.600245 
L 516.673047 351.817723 
L 520.77666 358.969767 
L 524.880274 351.326003 
L 528.983888 364.126595 
L 533.087501 333.193158 
L 537.191115 346.563652 
L 541.294729 352.134335 
L 545.398343 352.581286 
L 549.501956 355.096846 
L 553.60557 332.671982 
L 557.709184 332.162743 
L 561.812797 346.706328 
L 565.916411 364.5904 
L 570.020025 359.001584 
L 574.123638 343.390579 
L 578.227252 347.123823 
L 582.330866 367.871748 
L 586.43448 347.954459 
L 590.538093 362.748715 
L 594.641707 362.073212 
L 598.745321 345.300522 
L 602.848934 352.919778 
L 606.952548 356.557976 
L 611.056162 356.47345 
L 615.159776 358.625381 
L 619.263389 349.427559 
L 623.367003 365.287071 
L 627.470617 365.284828 
L 631.57423 357.641668 
L 635.677844 352.881667 
L 639.781458 337.239494 
L 643.885071 365.213514 
L 647.988685 353.520941 
L 652.092299 363.137971 
L 656.195913 359.598457 
L 660.299526 353.23832 
L 664.40314 359.432348 
L 668.506754 357.252172 
L 672.610367 341.3134 
L 676.713981 363.569035 
L 676.713981 54.199841 
L 676.713981 54.199841 
L 672.610367 53.122124 
L 668.506754 57.600036 
L 664.40314 65.836535 
L 660.299526 75.780566 
L 656.195913 56.503752 
L 652.092299 47.547566 
L 647.988685 46.331254 
L 643.885071 70.055377 
L 639.781458 51.779359 
L 635.677844 71.970549 
L 631.57423 56.377206 
L 627.470617 66.23406 
L 623.367003 62.481813 
L 619.263389 61.257979 
L 615.159776 67.893503 
L 611.056162 62.545427 
L 606.952548 57.877564 
L 602.848934 36.932409 
L 598.745321 54.968341 
L 594.641707 56.528999 
L 590.538093 55.020162 
L 586.43448 62.731078 
L 582.330866 60.730471 
L 578.227252 50.228371 
L 574.123638 60.628286 
L 570.020025 54.600622 
L 565.916411 56.511813 
L 561.812797 56.89587 
L 557.709184 42.272765 
L 553.60557 37.596856 
L 549.501956 69.75537 
L 545.398343 41.437571 
L 541.294729 50.63453 
L 537.191115 28.288523 
L 533.087501 48.325689 
L 528.983888 49.475611 
L 524.880274 50.609528 
L 520.77666 60.04911 
L 516.673047 80.534499 
L 512.569433 57.501964 
L 508.465819 54.333919 
L 504.362205 54.080804 
L 500.258592 31.139095 
L 496.154978 68.843203 
L 492.051364 51.083954 
L 487.947751 58.752961 
L 483.844137 61.108116 
L 479.740523 53.205616 
L 475.63691 39.283839 
L 471.533296 48.645636 
L 467.429682 75.789346 
L 463.326068 43.774822 
L 459.222455 59.727639 
L 455.118841 39.33634 
L 451.015227 57.187539 
L 446.911614 56.771178 
L 442.808 77.677498 
L 438.704386 44.264261 
L 434.600772 55.888403 
L 430.497159 63.703106 
L 426.393545 66.385755 
L 422.289931 59.733498 
L 418.186318 56.176569 
L 414.082704 45.812435 
L 409.97909 60.362196 
L 405.875477 49.850584 
L 401.771863 45.694506 
L 397.668249 38.614018 
L 393.564635 65.689014 
L 389.461022 64.550408 
L 385.357408 59.545066 
L 381.253794 45.683531 
L 377.150181 66.247797 
L 373.046567 53.862579 
L 368.942953 63.604671 
L 364.839339 63.969131 
L 360.735726 28.038182 
L 356.632112 60.414529 
L 352.528498 50.515617 
L 348.424885 49.127888 
L 344.321271 36.615778 
L 340.217657 42.146242 
L 336.114044 52.344002 
L 332.01043 54.996137 
L 327.906816 74.577193 
L 323.803202 44.017404 
L 319.699589 52.213743 
L 315.595975 36.483854 
L 311.492361 61.644004 
L 307.388748 52.249508 
L 303.285134 53.835274 
L 299.18152 50.482372 
L 295.077906 55.90861 
L 290.974293 61.762607 
L 286.870679 78.494528 
L 282.767065 44.331924 
L 278.663452 65.230205 
L 274.559838 63.128941 
L 270.456224 58.804599 
L 266.352611 68.755102 
L 262.248997 66.922614 
L 258.145383 53.50456 
L 254.041769 38.090079 
L 249.938156 54.552206 
L 245.834542 70.113042 
L 241.730928 41.689006 
L 237.627315 44.150823 
L 233.523701 46.675892 
L 229.420087 71.837754 
L 225.316473 60.913516 
L 221.21286 56.839529 
L 217.109246 55.75014 
L 213.005632 63.018906 
L 208.902019 62.066646 
L 204.798405 47.945147 
L 200.694791 53.643021 
L 196.591178 34.558438 
L 192.487564 49.885454 
L 188.38395 41.388888 
L 184.280336 70.953577 
L 180.176723 54.496956 
L 176.073109 49.822198 
L 171.969495 50.529255 
L 167.865882 31.510768 
L 163.762268 46.284676 
L 159.658654 51.840418 
L 155.55504 53.504662 
L 151.451427 60.970193 
L 147.347813 57.134147 
L 143.244199 76.442598 
L 139.140586 45.819906 
L 135.036972 56.693801 
L 130.933358 65.140331 
L 126.829745 60.69945 
L 122.726131 47.797501 
L 118.622517 51.0212 
L 114.518903 50.959659 
L 110.41529 64.680148 
L 106.311676 55.563331 
L 102.208062 73.200795 
L 98.104449 48.983856 
L 94.000835 57.078812 
L 89.897221 41.343502 
L 85.793607 61.39947 
L 81.689994 61.517802 
L 77.58638 47.244539 
z
" clip-path="url(#p6978e2ebbc)" style="fill: #1f77b4; fill-opacity: 0.2"/>
   </g>
   <g id="matplotlib.axis_1">
    <g id="xtick_1">
     <g id="line2d_1">
      <path d="M 75.514055 390.04 
L 75.514055 10.8 
" clip-path="url(#p6978e2ebbc)" style="fill: none; stroke: #b0b0b0; stroke-width: 0.8; stroke-linecap: square"/>
     </g>
     <g id="line2d_2">
      <defs>
       <path id="m6c7ae3a2fa" d="M 0 0 
L 0 3.5 
" style="stroke: #000000; stroke-width: 0.8"/>
      </defs>
      <g>
       <use xlink:href="#m6c7ae3a2fa" x="75.514055" y="390.04" style="stroke: #000000; stroke-width: 0.8"/>
      </g>
     </g>
     <g id="text_1">
      <!-- 0 -->
      <g transform="translate(72.332805 404.638438) scale(0.1 -0.1)">
       <defs>
        <path id="DejaVuSans-30" d="M 2034 4250 
Q 1547 4250 1301 3770 
Q 1056 3291 1056 2328 
Q 1056 1369 1301 889 
Q 1547 409 2034 409 
Q 2525 409 2770 889 
Q 3016 1369 3016 2328 
Q 3016 3291 2770 3770 
Q 2525 4250 2034 4250 
z
M 2034 4750 
Q 2819 4750 3233 4129 
Q 3647 3509 3647 2328 
Q 3647 1150 3233 529 
Q 2819 -91 2034 -91 
Q 1250 -91 836 529 
Q 422 1150 422 2328 
Q 422 3509 836 4129 
Q 1250 4750 2034 4750 
z
" transform="scale(0.015625)"/>
       </defs>
       <use xlink:href="#DejaVuSans-30"/>
      </g>
     </g>
    </g>
    <g id="xtick_2">
     <g id="line2d_3">
      <path d="M 178.104398 390.04 
L 178.104398 10.8 
" clip-path="url(#p6978e2ebbc)" style="fill: none; stroke: #b0b0b0; stroke-width: 0.8; stroke-linecap: square"/>
     </g>
     <g id="line2d_4">
      <g>
       <use xlink:href="#m6c7ae3a2fa" x="178.104398" y="390.04" style="stroke: #000000; stroke-width: 0.8"/>
      </g>
     </g>
     <g id="text_2">
      <!-- 5000 -->
      <g transform="translate(165.379398 404.638438) scale(0.1 -0.1)">
       <defs>
        <path id="DejaVuSans-35" d="M 691 4666 
L 3169 4666 
L 3169 4134 
L 1269 4134 
L 1269 2991 
Q 1406 3038 1543 3061 
Q 1681 3084 1819 3084 
Q 2600 3084 3056 2656 
Q 3513 2228 3513 1497 
Q 3513 744 3044 326 
Q 2575 -91 1722 -91 
Q 1428 -91 1123 -41 
Q 819 9 494 109 
L 494 744 
Q 775 591 1075 516 
Q 1375 441 1709 441 
Q 2250 441 2565 725 
Q 2881 1009 2881 1497 
Q 2881 1984 2565 2268 
Q 2250 2553 1709 2553 
Q 1456 2553 1204 2497 
Q 953 2441 691 2322 
L 691 4666 
z
" transform="scale(0.015625)"/>
       </defs>
       <use xlink:href="#DejaVuSans-35"/>
       <use xlink:href="#DejaVuSans-30" transform="translate(63.623047 0)"/>
       <use xlink:href="#DejaVuSans-30" transform="translate(127.246094 0)"/>
       <use xlink:href="#DejaVuSans-30" transform="translate(190.869141 0)"/>
      </g>
     </g>
    </g>
    <g id="xtick_3">
     <g id="line2d_5">
      <path d="M 280.69474 390.04 
L 280.69474 10.8 
" clip-path="url(#p6978e2ebbc)" style="fill: none; stroke: #b0b0b0; stroke-width: 0.8; stroke-linecap: square"/>
     </g>
     <g id="line2d_6">
      <g>
       <use xlink:href="#m6c7ae3a2fa" x="280.69474" y="390.04" style="stroke: #000000; stroke-width: 0.8"/>
      </g>
     </g>
     <g id="text_3">
      <!-- 10000 -->
      <g transform="translate(264.78849 404.638438) scale(0.1 -0.1)">
       <defs>
        <path id="DejaVuSans-31" d="M 794 531 
L 1825 531 
L 1825 4091 
L 703 3866 
L 703 4441 
L 1819 4666 
L 2450 4666 
L 2450 531 
L 3481 531 
L 3481 0 
L 794 0 
L 794 531 
z
" transform="scale(0.015625)"/>
       </defs>
       <use xlink:href="#DejaVuSans-31"/>
       <use xlink:href="#DejaVuSans-30" transform="translate(63.623047 0)"/>
       <use xlink:href="#DejaVuSans-30" transform="translate(127.246094 0)"/>
       <use xlink:href="#DejaVuSans-30" transform="translate(190.869141 0)"/>
       <use xlink:href="#DejaVuSans-30" transform="translate(254.492188 0)"/>
      </g>
     </g>
    </g>
    <g id="xtick_4">
     <g id="line2d_7">
      <path d="M 383.285083 390.04 
L 383.285083 10.8 
" clip-path="url(#p6978e2ebbc)" style="fill: none; stroke: #b0b0b0; stroke-width: 0.8; stroke-linecap: square"/>
     </g>
     <g id="line2d_8">
      <g>
       <use xlink:href="#m6c7ae3a2fa" x="383.285083" y="390.04" style="stroke: #000000; stroke-width: 0.8"/>
      </g>
     </g>
     <g id="text_4">
      <!-- 15000 -->
      <g transform="translate(367.378833 404.638438) scale(0.1 -0.1)">
       <use xlink:href="#DejaVuSans-31"/>
       <use xlink:href="#DejaVuSans-35" transform="translate(63.623047 0)"/>
       <use xlink:href="#DejaVuSans-30" transform="translate(127.246094 0)"/>
       <use xlink:href="#DejaVuSans-30" transform="translate(190.869141 0)"/>
       <use xlink:href="#DejaVuSans-30" transform="translate(254.492188 0)"/>
      </g>
     </g>
    </g>
    <g id="xtick_5">
     <g id="line2d_9">
      <path d="M 485.875426 390.04 
L 485.875426 10.8 
" clip-path="url(#p6978e2ebbc)" style="fill: none; stroke: #b0b0b0; stroke-width: 0.8; stroke-linecap: square"/>
     </g>
     <g id="line2d_10">
      <g>
       <use xlink:href="#m6c7ae3a2fa" x="485.875426" y="390.04" style="stroke: #000000; stroke-width: 0.8"/>
      </g>
     </g>
     <g id="text_5">
      <!-- 20000 -->
      <g transform="translate(469.969176 404.638438) scale(0.1 -0.1)">
       <defs>
        <path id="DejaVuSans-32" d="M 1228 531 
L 3431 531 
L 3431 0 
L 469 0 
L 469 531 
Q 828 903 1448 1529 
Q 2069 2156 2228 2338 
Q 2531 2678 2651 2914 
Q 2772 3150 2772 3378 
Q 2772 3750 2511 3984 
Q 2250 4219 1831 4219 
Q 1534 4219 1204 4116 
Q 875 4013 500 3803 
L 500 4441 
Q 881 4594 1212 4672 
Q 1544 4750 1819 4750 
Q 2544 4750 2975 4387 
Q 3406 4025 3406 3419 
Q 3406 3131 3298 2873 
Q 3191 2616 2906 2266 
Q 2828 2175 2409 1742 
Q 1991 1309 1228 531 
z
" transform="scale(0.015625)"/>
       </defs>
       <use xlink:href="#DejaVuSans-32"/>
       <use xlink:href="#DejaVuSans-30" transform="translate(63.623047 0)"/>
       <use xlink:href="#DejaVuSans-30" transform="translate(127.246094 0)"/>
       <use xlink:href="#DejaVuSans-30" transform="translate(190.869141 0)"/>
       <use xlink:href="#DejaVuSans-30" transform="translate(254.492188 0)"/>
      </g>
     </g>
    </g>
    <g id="xtick_6">
     <g id="line2d_11">
      <path d="M 588.465768 390.04 
L 588.465768 10.8 
" clip-path="url(#p6978e2ebbc)" style="fill: none; stroke: #b0b0b0; stroke-width: 0.8; stroke-linecap: square"/>
     </g>
     <g id="line2d_12">
      <g>
       <use xlink:href="#m6c7ae3a2fa" x="588.465768" y="390.04" style="stroke: #000000; stroke-width: 0.8"/>
      </g>
     </g>
     <g id="text_6">
      <!-- 25000 -->
      <g transform="translate(572.559518 404.638438) scale(0.1 -0.1)">
       <use xlink:href="#DejaVuSans-32"/>
       <use xlink:href="#DejaVuSans-35" transform="translate(63.623047 0)"/>
       <use xlink:href="#DejaVuSans-30" transform="translate(127.246094 0)"/>
       <use xlink:href="#DejaVuSans-30" transform="translate(190.869141 0)"/>
       <use xlink:href="#DejaVuSans-30" transform="translate(254.492188 0)"/>
      </g>
     </g>
    </g>
    <g id="xtick_7">
     <g id="line2d_13">
      <path d="M 691.056111 390.04 
L 691.056111 10.8 
" clip-path="url(#p6978e2ebbc)" style="fill: none; stroke: #b0b0b0; stroke-width: 0.8; stroke-linecap: square"/>
     </g>
     <g id="line2d_14">
      <g>
       <use xlink:href="#m6c7ae3a2fa" x="691.056111" y="390.04" style="stroke: #000000; stroke-width: 0.8"/>
      </g>
     </g>
     <g id="text_7">
      <!-- 30000 -->
      <g transform="translate(675.149861 404.638438) scale(0.1 -0.1)">
       <defs>
        <path id="DejaVuSans-33" d="M 2597 2516 
Q 3050 2419 3304 2112 
Q 3559 1806 3559 1356 
Q 3559 666 3084 287 
Q 2609 -91 1734 -91 
Q 1441 -91 1130 -33 
Q 819 25 488 141 
L 488 750 
Q 750 597 1062 519 
Q 1375 441 1716 441 
Q 2309 441 2620 675 
Q 2931 909 2931 1356 
Q 2931 1769 2642 2001 
Q 2353 2234 1838 2234 
L 1294 2234 
L 1294 2753 
L 1863 2753 
Q 2328 2753 2575 2939 
Q 2822 3125 2822 3475 
Q 2822 3834 2567 4026 
Q 2313 4219 1838 4219 
Q 1578 4219 1281 4162 
Q 984 4106 628 3988 
L 628 4550 
Q 988 4650 1302 4700 
Q 1616 4750 1894 4750 
Q 2613 4750 3031 4423 
Q 3450 4097 3450 3541 
Q 3450 3153 3228 2886 
Q 3006 2619 2597 2516 
z
" transform="scale(0.015625)"/>
       </defs>
       <use xlink:href="#DejaVuSans-33"/>
       <use xlink:href="#DejaVuSans-30" transform="translate(63.623047 0)"/>
       <use xlink:href="#DejaVuSans-30" transform="translate(127.246094 0)"/>
       <use xlink:href="#DejaVuSans-30" transform="translate(190.869141 0)"/>
       <use xlink:href="#DejaVuSans-30" transform="translate(254.492188 0)"/>
      </g>
     </g>
    </g>
    <g id="text_8">
     <!-- Episodes -->
     <g transform="translate(354.907993 418.316562) scale(0.1 -0.1)">
      <defs>
       <path id="DejaVuSans-45" d="M 628 4666 
L 3578 4666 
L 3578 4134 
L 1259 4134 
L 1259 2753 
L 3481 2753 
L 3481 2222 
L 1259 2222 
L 1259 531 
L 3634 531 
L 3634 0 
L 628 0 
L 628 4666 
z
" transform="scale(0.015625)"/>
       <path id="DejaVuSans-70" d="M 1159 525 
L 1159 -1331 
L 581 -1331 
L 581 3500 
L 1159 3500 
L 1159 2969 
Q 1341 3281 1617 3432 
Q 1894 3584 2278 3584 
Q 2916 3584 3314 3078 
Q 3713 2572 3713 1747 
Q 3713 922 3314 415 
Q 2916 -91 2278 -91 
Q 1894 -91 1617 61 
Q 1341 213 1159 525 
z
M 3116 1747 
Q 3116 2381 2855 2742 
Q 2594 3103 2138 3103 
Q 1681 3103 1420 2742 
Q 1159 2381 1159 1747 
Q 1159 1113 1420 752 
Q 1681 391 2138 391 
Q 2594 391 2855 752 
Q 3116 1113 3116 1747 
z
" transform="scale(0.015625)"/>
       <path id="DejaVuSans-69" d="M 603 3500 
L 1178 3500 
L 1178 0 
L 603 0 
L 603 3500 
z
M 603 4863 
L 1178 4863 
L 1178 4134 
L 603 4134 
L 603 4863 
z
" transform="scale(0.015625)"/>
       <path id="DejaVuSans-73" d="M 2834 3397 
L 2834 2853 
Q 2591 2978 2328 3040 
Q 2066 3103 1784 3103 
Q 1356 3103 1142 2972 
Q 928 2841 928 2578 
Q 928 2378 1081 2264 
Q 1234 2150 1697 2047 
L 1894 2003 
Q 2506 1872 2764 1633 
Q 3022 1394 3022 966 
Q 3022 478 2636 193 
Q 2250 -91 1575 -91 
Q 1294 -91 989 -36 
Q 684 19 347 128 
L 347 722 
Q 666 556 975 473 
Q 1284 391 1588 391 
Q 1994 391 2212 530 
Q 2431 669 2431 922 
Q 2431 1156 2273 1281 
Q 2116 1406 1581 1522 
L 1381 1569 
Q 847 1681 609 1914 
Q 372 2147 372 2553 
Q 372 3047 722 3315 
Q 1072 3584 1716 3584 
Q 2034 3584 2315 3537 
Q 2597 3491 2834 3397 
z
" transform="scale(0.015625)"/>
       <path id="DejaVuSans-6f" d="M 1959 3097 
Q 1497 3097 1228 2736 
Q 959 2375 959 1747 
Q 959 1119 1226 758 
Q 1494 397 1959 397 
Q 2419 397 2687 759 
Q 2956 1122 2956 1747 
Q 2956 2369 2687 2733 
Q 2419 3097 1959 3097 
z
M 1959 3584 
Q 2709 3584 3137 3096 
Q 3566 2609 3566 1747 
Q 3566 888 3137 398 
Q 2709 -91 1959 -91 
Q 1206 -91 779 398 
Q 353 888 353 1747 
Q 353 2609 779 3096 
Q 1206 3584 1959 3584 
z
" transform="scale(0.015625)"/>
       <path id="DejaVuSans-64" d="M 2906 2969 
L 2906 4863 
L 3481 4863 
L 3481 0 
L 2906 0 
L 2906 525 
Q 2725 213 2448 61 
Q 2172 -91 1784 -91 
Q 1150 -91 751 415 
Q 353 922 353 1747 
Q 353 2572 751 3078 
Q 1150 3584 1784 3584 
Q 2172 3584 2448 3432 
Q 2725 3281 2906 2969 
z
M 947 1747 
Q 947 1113 1208 752 
Q 1469 391 1925 391 
Q 2381 391 2643 752 
Q 2906 1113 2906 1747 
Q 2906 2381 2643 2742 
Q 2381 3103 1925 3103 
Q 1469 3103 1208 2742 
Q 947 2381 947 1747 
z
" transform="scale(0.015625)"/>
       <path id="DejaVuSans-65" d="M 3597 1894 
L 3597 1613 
L 953 1613 
Q 991 1019 1311 708 
Q 1631 397 2203 397 
Q 2534 397 2845 478 
Q 3156 559 3463 722 
L 3463 178 
Q 3153 47 2828 -22 
Q 2503 -91 2169 -91 
Q 1331 -91 842 396 
Q 353 884 353 1716 
Q 353 2575 817 3079 
Q 1281 3584 2069 3584 
Q 2775 3584 3186 3129 
Q 3597 2675 3597 1894 
z
M 3022 2063 
Q 3016 2534 2758 2815 
Q 2500 3097 2075 3097 
Q 1594 3097 1305 2825 
Q 1016 2553 972 2059 
L 3022 2063 
z
" transform="scale(0.015625)"/>
      </defs>
      <use xlink:href="#DejaVuSans-45"/>
      <use xlink:href="#DejaVuSans-70" transform="translate(63.183594 0)"/>
      <use xlink:href="#DejaVuSans-69" transform="translate(126.660156 0)"/>
      <use xlink:href="#DejaVuSans-73" transform="translate(154.443359 0)"/>
      <use xlink:href="#DejaVuSans-6f" transform="translate(206.542969 0)"/>
      <use xlink:href="#DejaVuSans-64" transform="translate(267.724609 0)"/>
      <use xlink:href="#DejaVuSans-65" transform="translate(331.201172 0)"/>
      <use xlink:href="#DejaVuSans-73" transform="translate(392.724609 0)"/>
     </g>
    </g>
   </g>
   <g id="matplotlib.axis_2">
    <g id="ytick_1">
     <g id="line2d_15">
      <path d="M 47.63 376.384575 
L 706.670361 376.384575 
" clip-path="url(#p6978e2ebbc)" style="fill: none; stroke: #b0b0b0; stroke-width: 0.8; stroke-linecap: square"/>
     </g>
     <g id="line2d_16">
      <defs>
       <path id="mbcfaeb3d1f" d="M 0 0 
L -3.5 0 
" style="stroke: #000000; stroke-width: 0.8"/>
      </defs>
      <g>
       <use xlink:href="#mbcfaeb3d1f" x="47.63" y="376.384575" style="stroke: #000000; stroke-width: 0.8"/>
      </g>
     </g>
     <g id="text_9">
      <!-- 2.0 -->
      <g transform="translate(24.726875 380.183793) scale(0.1 -0.1)">
       <defs>
        <path id="DejaVuSans-2e" d="M 684 794 
L 1344 794 
L 1344 0 
L 684 0 
L 684 794 
z
" transform="scale(0.015625)"/>
       </defs>
       <use xlink:href="#DejaVuSans-32"/>
       <use xlink:href="#DejaVuSans-2e" transform="translate(63.623047 0)"/>
       <use xlink:href="#DejaVuSans-30" transform="translate(95.410156 0)"/>
      </g>
     </g>
    </g>
    <g id="ytick_2">
     <g id="line2d_17">
      <path d="M 47.63 313.884524 
L 706.670361 313.884524 
" clip-path="url(#p6978e2ebbc)" style="fill: none; stroke: #b0b0b0; stroke-width: 0.8; stroke-linecap: square"/>
     </g>
     <g id="line2d_18">
      <g>
       <use xlink:href="#mbcfaeb3d1f" x="47.63" y="313.884524" style="stroke: #000000; stroke-width: 0.8"/>
      </g>
     </g>
     <g id="text_10">
      <!-- 2.5 -->
      <g transform="translate(24.726875 317.683742) scale(0.1 -0.1)">
       <use xlink:href="#DejaVuSans-32"/>
       <use xlink:href="#DejaVuSans-2e" transform="translate(63.623047 0)"/>
       <use xlink:href="#DejaVuSans-35" transform="translate(95.410156 0)"/>
      </g>
     </g>
    </g>
    <g id="ytick_3">
     <g id="line2d_19">
      <path d="M 47.63 251.384473 
L 706.670361 251.384473 
" clip-path="url(#p6978e2ebbc)" style="fill: none; stroke: #b0b0b0; stroke-width: 0.8; stroke-linecap: square"/>
     </g>
     <g id="line2d_20">
      <g>
       <use xlink:href="#mbcfaeb3d1f" x="47.63" y="251.384473" style="stroke: #000000; stroke-width: 0.8"/>
      </g>
     </g>
     <g id="text_11">
      <!-- 3.0 -->
      <g transform="translate(24.726875 255.183692) scale(0.1 -0.1)">
       <use xlink:href="#DejaVuSans-33"/>
       <use xlink:href="#DejaVuSans-2e" transform="translate(63.623047 0)"/>
       <use xlink:href="#DejaVuSans-30" transform="translate(95.410156 0)"/>
      </g>
     </g>
    </g>
    <g id="ytick_4">
     <g id="line2d_21">
      <path d="M 47.63 188.884422 
L 706.670361 188.884422 
" clip-path="url(#p6978e2ebbc)" style="fill: none; stroke: #b0b0b0; stroke-width: 0.8; stroke-linecap: square"/>
     </g>
     <g id="line2d_22">
      <g>
       <use xlink:href="#mbcfaeb3d1f" x="47.63" y="188.884422" style="stroke: #000000; stroke-width: 0.8"/>
      </g>
     </g>
     <g id="text_12">
      <!-- 3.5 -->
      <g transform="translate(24.726875 192.683641) scale(0.1 -0.1)">
       <use xlink:href="#DejaVuSans-33"/>
       <use xlink:href="#DejaVuSans-2e" transform="translate(63.623047 0)"/>
       <use xlink:href="#DejaVuSans-35" transform="translate(95.410156 0)"/>
      </g>
     </g>
    </g>
    <g id="ytick_5">
     <g id="line2d_23">
      <path d="M 47.63 126.384371 
L 706.670361 126.384371 
" clip-path="url(#p6978e2ebbc)" style="fill: none; stroke: #b0b0b0; stroke-width: 0.8; stroke-linecap: square"/>
     </g>
     <g id="line2d_24">
      <g>
       <use xlink:href="#mbcfaeb3d1f" x="47.63" y="126.384371" style="stroke: #000000; stroke-width: 0.8"/>
      </g>
     </g>
     <g id="text_13">
      <!-- 4.0 -->
      <g transform="translate(24.726875 130.18359) scale(0.1 -0.1)">
       <defs>
        <path id="DejaVuSans-34" d="M 2419 4116 
L 825 1625 
L 2419 1625 
L 2419 4116 
z
M 2253 4666 
L 3047 4666 
L 3047 1625 
L 3713 1625 
L 3713 1100 
L 3047 1100 
L 3047 0 
L 2419 0 
L 2419 1100 
L 313 1100 
L 313 1709 
L 2253 4666 
z
" transform="scale(0.015625)"/>
       </defs>
       <use xlink:href="#DejaVuSans-34"/>
       <use xlink:href="#DejaVuSans-2e" transform="translate(63.623047 0)"/>
       <use xlink:href="#DejaVuSans-30" transform="translate(95.410156 0)"/>
      </g>
     </g>
    </g>
    <g id="ytick_6">
     <g id="line2d_25">
      <path d="M 47.63 63.88432 
L 706.670361 63.88432 
" clip-path="url(#p6978e2ebbc)" style="fill: none; stroke: #b0b0b0; stroke-width: 0.8; stroke-linecap: square"/>
     </g>
     <g id="line2d_26">
      <g>
       <use xlink:href="#mbcfaeb3d1f" x="47.63" y="63.88432" style="stroke: #000000; stroke-width: 0.8"/>
      </g>
     </g>
     <g id="text_14">
      <!-- 4.5 -->
      <g transform="translate(24.726875 67.683539) scale(0.1 -0.1)">
       <use xlink:href="#DejaVuSans-34"/>
       <use xlink:href="#DejaVuSans-2e" transform="translate(63.623047 0)"/>
       <use xlink:href="#DejaVuSans-35" transform="translate(95.410156 0)"/>
      </g>
     </g>
    </g>
    <g id="text_15">
     <!-- Quantum Gates -->
     <g transform="translate(18.647187 239.925469) rotate(-90) scale(0.1 -0.1)">
      <defs>
       <path id="DejaVuSans-51" d="M 2522 4238 
Q 1834 4238 1429 3725 
Q 1025 3213 1025 2328 
Q 1025 1447 1429 934 
Q 1834 422 2522 422 
Q 3209 422 3611 934 
Q 4013 1447 4013 2328 
Q 4013 3213 3611 3725 
Q 3209 4238 2522 4238 
z
M 3406 84 
L 4238 -825 
L 3475 -825 
L 2784 -78 
Q 2681 -84 2626 -87 
Q 2572 -91 2522 -91 
Q 1538 -91 948 567 
Q 359 1225 359 2328 
Q 359 3434 948 4092 
Q 1538 4750 2522 4750 
Q 3503 4750 4090 4092 
Q 4678 3434 4678 2328 
Q 4678 1516 4351 937 
Q 4025 359 3406 84 
z
" transform="scale(0.015625)"/>
       <path id="DejaVuSans-75" d="M 544 1381 
L 544 3500 
L 1119 3500 
L 1119 1403 
Q 1119 906 1312 657 
Q 1506 409 1894 409 
Q 2359 409 2629 706 
Q 2900 1003 2900 1516 
L 2900 3500 
L 3475 3500 
L 3475 0 
L 2900 0 
L 2900 538 
Q 2691 219 2414 64 
Q 2138 -91 1772 -91 
Q 1169 -91 856 284 
Q 544 659 544 1381 
z
M 1991 3584 
L 1991 3584 
z
" transform="scale(0.015625)"/>
       <path id="DejaVuSans-61" d="M 2194 1759 
Q 1497 1759 1228 1600 
Q 959 1441 959 1056 
Q 959 750 1161 570 
Q 1363 391 1709 391 
Q 2188 391 2477 730 
Q 2766 1069 2766 1631 
L 2766 1759 
L 2194 1759 
z
M 3341 1997 
L 3341 0 
L 2766 0 
L 2766 531 
Q 2569 213 2275 61 
Q 1981 -91 1556 -91 
Q 1019 -91 701 211 
Q 384 513 384 1019 
Q 384 1609 779 1909 
Q 1175 2209 1959 2209 
L 2766 2209 
L 2766 2266 
Q 2766 2663 2505 2880 
Q 2244 3097 1772 3097 
Q 1472 3097 1187 3025 
Q 903 2953 641 2809 
L 641 3341 
Q 956 3463 1253 3523 
Q 1550 3584 1831 3584 
Q 2591 3584 2966 3190 
Q 3341 2797 3341 1997 
z
" transform="scale(0.015625)"/>
       <path id="DejaVuSans-6e" d="M 3513 2113 
L 3513 0 
L 2938 0 
L 2938 2094 
Q 2938 2591 2744 2837 
Q 2550 3084 2163 3084 
Q 1697 3084 1428 2787 
Q 1159 2491 1159 1978 
L 1159 0 
L 581 0 
L 581 3500 
L 1159 3500 
L 1159 2956 
Q 1366 3272 1645 3428 
Q 1925 3584 2291 3584 
Q 2894 3584 3203 3211 
Q 3513 2838 3513 2113 
z
" transform="scale(0.015625)"/>
       <path id="DejaVuSans-74" d="M 1172 4494 
L 1172 3500 
L 2356 3500 
L 2356 3053 
L 1172 3053 
L 1172 1153 
Q 1172 725 1289 603 
Q 1406 481 1766 481 
L 2356 481 
L 2356 0 
L 1766 0 
Q 1100 0 847 248 
Q 594 497 594 1153 
L 594 3053 
L 172 3053 
L 172 3500 
L 594 3500 
L 594 4494 
L 1172 4494 
z
" transform="scale(0.015625)"/>
       <path id="DejaVuSans-6d" d="M 3328 2828 
Q 3544 3216 3844 3400 
Q 4144 3584 4550 3584 
Q 5097 3584 5394 3201 
Q 5691 2819 5691 2113 
L 5691 0 
L 5113 0 
L 5113 2094 
Q 5113 2597 4934 2840 
Q 4756 3084 4391 3084 
Q 3944 3084 3684 2787 
Q 3425 2491 3425 1978 
L 3425 0 
L 2847 0 
L 2847 2094 
Q 2847 2600 2669 2842 
Q 2491 3084 2119 3084 
Q 1678 3084 1418 2786 
Q 1159 2488 1159 1978 
L 1159 0 
L 581 0 
L 581 3500 
L 1159 3500 
L 1159 2956 
Q 1356 3278 1631 3431 
Q 1906 3584 2284 3584 
Q 2666 3584 2933 3390 
Q 3200 3197 3328 2828 
z
" transform="scale(0.015625)"/>
       <path id="DejaVuSans-20" transform="scale(0.015625)"/>
       <path id="DejaVuSans-47" d="M 3809 666 
L 3809 1919 
L 2778 1919 
L 2778 2438 
L 4434 2438 
L 4434 434 
Q 4069 175 3628 42 
Q 3188 -91 2688 -91 
Q 1594 -91 976 548 
Q 359 1188 359 2328 
Q 359 3472 976 4111 
Q 1594 4750 2688 4750 
Q 3144 4750 3555 4637 
Q 3966 4525 4313 4306 
L 4313 3634 
Q 3963 3931 3569 4081 
Q 3175 4231 2741 4231 
Q 1884 4231 1454 3753 
Q 1025 3275 1025 2328 
Q 1025 1384 1454 906 
Q 1884 428 2741 428 
Q 3075 428 3337 486 
Q 3600 544 3809 666 
z
" transform="scale(0.015625)"/>
      </defs>
      <use xlink:href="#DejaVuSans-51"/>
      <use xlink:href="#DejaVuSans-75" transform="translate(78.710938 0)"/>
      <use xlink:href="#DejaVuSans-61" transform="translate(142.089844 0)"/>
      <use xlink:href="#DejaVuSans-6e" transform="translate(203.369141 0)"/>
      <use xlink:href="#DejaVuSans-74" transform="translate(266.748047 0)"/>
      <use xlink:href="#DejaVuSans-75" transform="translate(305.957031 0)"/>
      <use xlink:href="#DejaVuSans-6d" transform="translate(369.335938 0)"/>
      <use xlink:href="#DejaVuSans-20" transform="translate(466.748047 0)"/>
      <use xlink:href="#DejaVuSans-47" transform="translate(498.535156 0)"/>
      <use xlink:href="#DejaVuSans-61" transform="translate(576.025391 0)"/>
      <use xlink:href="#DejaVuSans-74" transform="translate(637.304688 0)"/>
      <use xlink:href="#DejaVuSans-65" transform="translate(676.513672 0)"/>
      <use xlink:href="#DejaVuSans-73" transform="translate(738.037109 0)"/>
     </g>
    </g>
   </g>
   <g id="line2d_27">
    <path d="M 77.58638 208.676105 
L 81.689994 208.051104 
L 85.793607 212.009441 
L 89.897221 190.759424 
L 94.000835 210.551106 
L 98.104449 202.634433 
L 102.208062 213.467775 
L 106.311676 208.467771 
L 110.41529 213.676109 
L 114.518903 202.634433 
L 118.622517 205.967769 
L 122.726131 194.71776 
L 126.829745 205.967769 
L 130.933358 214.509443 
L 135.036972 200.551098 
L 139.140586 196.801095 
L 143.244199 223.25945 
L 147.347813 200.551098 
L 151.451427 207.634437 
L 155.55504 204.717768 
L 159.658654 200.551098 
L 163.762268 197.634429 
L 167.865882 191.176091 
L 171.969495 204.509435 
L 176.073109 201.384432 
L 180.176723 203.259434 
L 184.280336 211.592774 
L 188.38395 196.176095 
L 192.487564 198.467763 
L 196.591178 189.301089 
L 200.694791 204.509435 
L 204.798405 209.301105 
L 208.902019 205.759436 
L 213.005632 212.426108 
L 217.109246 212.009441 
L 221.21286 204.717768 
L 225.316473 204.509435 
L 229.420087 219.71778 
L 233.523701 188.676089 
L 237.627315 198.051096 
L 241.730928 192.634425 
L 245.834542 210.551106 
L 254.041769 191.384424 
L 258.145383 209.509439 
L 262.248997 207.842771 
L 266.352611 213.467775 
L 270.456224 205.551102 
L 274.559838 214.92611 
L 278.663452 211.801107 
L 282.767065 197.842763 
L 286.870679 214.717776 
L 290.974293 205.551102 
L 295.077906 206.176103 
L 299.18152 197.009429 
L 303.285134 207.842771 
L 307.388748 202.634433 
L 311.492361 209.926106 
L 315.595975 189.092756 
L 319.699589 204.092768 
L 323.803202 197.217762 
L 327.906816 222.842783 
L 332.01043 205.551102 
L 336.114044 199.717764 
L 340.217657 196.592762 
L 344.321271 199.092764 
L 348.424885 197.217762 
L 352.528498 197.634429 
L 356.632112 210.967773 
L 360.735726 183.051084 
L 364.839339 203.467767 
L 368.942953 206.59277 
L 373.046567 202.634433 
L 377.150181 217.217778 
L 381.253794 203.0511 
L 385.357408 204.717768 
L 389.461022 218.676113 
L 393.564635 216.592778 
L 397.668249 197.217762 
L 401.771863 198.25943 
L 405.875477 198.467763 
L 409.97909 210.967773 
L 414.082704 198.467763 
L 418.186318 205.551102 
L 422.289931 215.55111 
L 426.393545 209.301105 
L 430.497159 204.509435 
L 434.600772 203.0511 
L 438.704386 204.092768 
L 442.808 224.301118 
L 446.911614 204.301101 
L 451.015227 205.759436 
L 455.118841 195.967761 
L 459.222455 207.634437 
L 463.326068 196.592762 
L 467.429682 215.134443 
L 471.533296 202.217766 
L 475.63691 188.676089 
L 479.740523 207.009437 
L 483.844137 205.967769 
L 487.947751 207.634437 
L 492.051364 208.259438 
L 496.154978 211.592774 
L 500.258592 187.009421 
L 504.362205 207.21777 
L 508.465819 207.21777 
L 512.569433 208.051104 
L 516.673047 216.176111 
L 520.77666 209.509439 
L 524.880274 200.967765 
L 528.983888 206.801103 
L 533.087501 190.759424 
L 537.191115 187.426088 
L 541.294729 201.384432 
L 545.398343 197.009429 
L 549.501956 212.426108 
L 553.60557 185.134419 
L 557.709184 187.217754 
L 561.812797 201.801099 
L 565.916411 210.551106 
L 570.020025 206.801103 
L 574.123638 202.009433 
L 578.227252 198.676097 
L 582.330866 214.301109 
L 586.43448 205.342769 
L 590.538093 208.884438 
L 594.641707 209.301105 
L 598.745321 200.134431 
L 602.848934 194.926094 
L 606.952548 207.21777 
L 611.056162 209.509439 
L 615.159776 213.259442 
L 619.263389 205.342769 
L 623.367003 213.884442 
L 627.470617 215.759444 
L 631.57423 207.009437 
L 635.677844 212.426108 
L 639.781458 194.509427 
L 643.885071 217.634445 
L 647.988685 199.926098 
L 652.092299 205.342769 
L 656.195913 208.051104 
L 660.299526 214.509443 
L 664.40314 212.634441 
L 668.506754 207.426104 
L 672.610367 197.217762 
L 676.713981 208.884438 
L 676.713981 208.884438 
" clip-path="url(#p6978e2ebbc)" style="fill: none; stroke: #1f77b4; stroke-width: 1.5; stroke-linecap: square"/>
   </g>
   <g id="patch_3">
    <path d="M 47.63 390.04 
L 47.63 10.8 
" style="fill: none; stroke: #000000; stroke-width: 0.8; stroke-linejoin: miter; stroke-linecap: square"/>
   </g>
   <g id="patch_4">
    <path d="M 706.670361 390.04 
L 706.670361 10.8 
" style="fill: none; stroke: #000000; stroke-width: 0.8; stroke-linejoin: miter; stroke-linecap: square"/>
   </g>
   <g id="patch_5">
    <path d="M 47.63 390.04 
L 706.670361 390.04 
" style="fill: none; stroke: #000000; stroke-width: 0.8; stroke-linejoin: miter; stroke-linecap: square"/>
   </g>
   <g id="patch_6">
    <path d="M 47.63 10.8 
L 706.670361 10.8 
" style="fill: none; stroke: #000000; stroke-width: 0.8; stroke-linejoin: miter; stroke-linecap: square"/>
   </g>
  </g>
 </g>
 <defs>
  <clipPath id="p6978e2ebbc">
   <rect x="47.63" y="10.8" width="659.040361" height="379.24"/>
  </clipPath>
 </defs>
</svg>
