<?xml version="1.0" encoding="utf-8" standalone="no"?>
<!DOCTYPE svg PUBLIC "-//W3C//DTD SVG 1.1//EN"
  "http://www.w3.org/Graphics/SVG/1.1/DTD/svg11.dtd">
<svg xmlns:xlink="http://www.w3.org/1999/xlink" width="720pt" height="432pt" viewBox="0 0 720 432" xmlns="http://www.w3.org/2000/svg" version="1.1">
 <metadata>
  <rdf:RDF xmlns:dc="http://purl.org/dc/elements/1.1/" xmlns:cc="http://creativecommons.org/ns#" xmlns:rdf="http://www.w3.org/1999/02/22-rdf-syntax-ns#">
   <cc:Work>
    <dc:type rdf:resource="http://purl.org/dc/dcmitype/StillImage"/>
    <dc:date>2025-04-16T01:28:11.371165</dc:date>
    <dc:format>image/svg+xml</dc:format>
    <dc:creator>
     <cc:Agent>
      <dc:title>Matplotlib v3.10.0, https://matplotlib.org/</dc:title>
     </cc:Agent>
    </dc:creator>
   </cc:Work>
  </rdf:RDF>
 </metadata>
 <defs>
  <style type="text/css">*{stroke-linejoin: round; stroke-linecap: butt}</style>
 </defs>
 <g id="figure_1">
  <g id="patch_1">
   <path d="M 0 432 
L 720 432 
L 720 0 
L 0 0 
z
" style="fill: #ffffff"/>
  </g>
  <g id="axes_1">
   <g id="patch_2">
    <path d="M 54.02 390.04 
L 708.445694 390.04 
L 708.445694 10.8 
L 54.02 10.8 
z
" style="fill: #ffffff"/>
   </g>
   <g id="FillBetweenPolyCollection_1">
    <path d="M 83.766622 123.989641 
L 83.766622 372.801818 
L 87.24576 351.555815 
L 90.724897 304.26214 
L 94.204034 299.92454 
L 97.683171 249.756408 
L 101.162308 216.028535 
L 104.641445 179.562827 
L 108.120582 120.652717 
L 111.599719 83.919579 
L 115.078857 62.73097 
L 118.557994 44.968238 
L 122.037131 34.598434 
L 125.516268 37.128145 
L 128.995405 32.242289 
L 132.474542 36.380298 
L 135.953679 32.355914 
L 139.432816 30.310673 
L 142.911954 32.015041 
L 146.391091 30.992419 
L 149.870228 30.197048 
L 153.349365 29.401676 
L 156.828502 28.265431 
L 160.307639 28.49268 
L 163.786776 28.265431 
L 167.265914 28.606304 
L 170.745051 31.446918 
L 174.224188 28.265431 
L 177.703325 29.969799 
L 181.182462 28.49268 
L 184.661599 28.151806 
L 188.140736 29.856175 
L 191.619873 28.038182 
L 195.099011 28.49268 
L 198.578148 28.151806 
L 202.057285 29.74255 
L 205.536422 28.151806 
L 209.015559 28.265431 
L 212.494696 28.833553 
L 215.973833 28.151806 
L 219.45297 28.151806 
L 222.932108 29.74255 
L 226.411245 28.038182 
L 229.890382 28.151806 
L 233.369519 28.038182 
L 236.848656 28.265431 
L 240.327793 28.038182 
L 243.80693 28.265431 
L 247.286067 28.151806 
L 250.765205 28.038182 
L 254.244342 28.038182 
L 257.723479 28.038182 
L 261.202616 29.856175 
L 264.681753 28.151806 
L 268.16089 28.038182 
L 271.640027 28.151806 
L 275.119164 28.038182 
L 278.598302 28.379055 
L 282.077439 28.151806 
L 285.556576 28.038182 
L 289.035713 28.038182 
L 292.51485 28.151806 
L 295.993987 28.151806 
L 299.473124 28.379055 
L 302.952262 28.151806 
L 306.431399 28.265431 
L 309.910536 28.379055 
L 313.389673 28.038182 
L 316.86881 28.038182 
L 320.347947 28.719929 
L 323.827084 28.151806 
L 327.306221 29.515301 
L 330.785359 28.038182 
L 334.264496 28.038182 
L 337.743633 28.038182 
L 341.22277 28.151806 
L 344.701907 28.038182 
L 348.181044 28.038182 
L 351.660181 28.719929 
L 355.139318 28.038182 
L 358.618456 28.151806 
L 362.097593 28.151806 
L 365.57673 28.038182 
L 369.055867 28.151806 
L 372.535004 28.038182 
L 376.014141 29.74255 
L 379.493278 28.151806 
L 382.972415 28.151806 
L 386.451553 28.151806 
L 389.93069 28.379055 
L 393.409827 28.038182 
L 396.888964 28.038182 
L 400.368101 28.038182 
L 403.847238 28.265431 
L 407.326375 28.151806 
L 410.805512 28.265431 
L 414.28465 29.742549 
L 417.763787 37.88452 
L 421.242924 52.538157 
L 424.722061 56.207825 
L 428.201198 58.669959 
L 431.680335 58.764088 
L 435.159472 59.375931 
L 438.63861 59.638824 
L 442.117747 60.034838 
L 445.596884 60.176032 
L 449.076021 60.081902 
L 452.555158 60.72466 
L 456.034295 60.128967 
L 459.513432 60.176032 
L 462.992569 60.128967 
L 466.471707 60.176032 
L 469.950844 60.176032 
L 473.429981 60.128967 
L 476.909118 60.137042 
L 480.388255 60.176032 
L 483.867392 60.081902 
L 487.346529 60.176032 
L 490.825666 60.176032 
L 494.304804 60.176032 
L 497.783941 60.128967 
L 501.263078 60.176032 
L 504.742215 60.128967 
L 508.221352 60.176032 
L 511.700489 60.176032 
L 515.179626 60.176032 
L 518.658763 60.705165 
L 522.137901 60.72466 
L 525.617038 60.156537 
L 529.096175 60.271822 
L 532.575312 60.156537 
L 536.054449 60.109472 
L 539.533586 59.415732 
L 543.012723 58.187555 
L 546.49186 56.472006 
L 549.970998 56.433016 
L 553.450135 56.277057 
L 556.929272 56.296552 
L 560.408409 56.277057 
L 563.887546 56.277057 
L 567.366683 56.277057 
L 570.84582 56.277057 
L 574.324957 56.277057 
L 577.804095 56.296552 
L 581.283232 56.277057 
L 584.762369 56.277057 
L 588.241506 56.277057 
L 591.720643 56.277057 
L 595.19978 57.640552 
L 598.678917 56.277057 
L 602.158055 56.277057 
L 605.637192 56.277057 
L 609.116329 56.277057 
L 612.595466 56.277057 
L 616.074603 56.277057 
L 619.55374 56.277057 
L 623.032877 56.277057 
L 626.512014 56.390681 
L 629.991152 56.277057 
L 633.470289 56.296552 
L 636.949426 56.277057 
L 640.428563 56.277057 
L 643.9077 56.277057 
L 647.386837 56.277057 
L 650.865974 56.277057 
L 654.345111 56.296552 
L 657.824249 56.277057 
L 661.303386 56.277057 
L 664.782523 56.277057 
L 668.26166 56.277057 
L 671.740797 56.277057 
L 675.219934 56.296552 
L 678.699071 56.277057 
L 678.699071 56.277057 
L 678.699071 56.277057 
L 675.219934 56.163432 
L 671.740797 56.277057 
L 668.26166 56.277057 
L 664.782523 56.277057 
L 661.303386 56.277057 
L 657.824249 56.277057 
L 654.345111 56.163432 
L 650.865974 56.277057 
L 647.386837 56.277057 
L 643.9077 56.277057 
L 640.428563 56.277057 
L 636.949426 56.277057 
L 633.470289 56.163432 
L 629.991152 56.277057 
L 626.512014 56.257562 
L 623.032877 56.277057 
L 619.55374 56.277057 
L 616.074603 56.277057 
L 612.595466 56.277057 
L 609.116329 56.277057 
L 605.637192 56.277057 
L 602.158055 56.277057 
L 598.678917 56.277057 
L 595.19978 56.043118 
L 591.720643 56.277057 
L 588.241506 56.277057 
L 584.762369 56.277057 
L 581.283232 56.277057 
L 577.804095 56.163432 
L 574.324957 56.277057 
L 570.84582 56.277057 
L 567.366683 56.277057 
L 563.887546 56.277057 
L 560.408409 56.277057 
L 556.929272 56.163432 
L 553.450135 56.277057 
L 549.970998 55.368061 
L 546.49186 55.140812 
L 543.012723 45.14186 
L 539.533586 37.983519 
L 536.054449 33.618725 
L 532.575312 33.66579 
L 529.096175 33.550505 
L 525.617038 33.66579 
L 522.137901 33.568315 
L 518.658763 33.68194 
L 515.179626 33.552165 
L 511.700489 33.552165 
L 508.221352 33.552165 
L 504.742215 33.5051 
L 501.263078 33.552165 
L 497.783941 33.5051 
L 494.304804 33.552165 
L 490.825666 33.552165 
L 487.346529 33.552165 
L 483.867392 33.458036 
L 480.388255 33.552165 
L 476.909118 33.779414 
L 473.429981 33.5051 
L 469.950844 33.552165 
L 466.471707 33.552165 
L 462.992569 33.5051 
L 459.513432 33.552165 
L 456.034295 33.5051 
L 452.555158 33.568315 
L 449.076021 33.458036 
L 445.596884 33.552165 
L 442.117747 33.410971 
L 438.63861 33.148077 
L 435.159472 32.752064 
L 431.680335 32.140221 
L 428.201198 32.046092 
L 424.722061 30.648913 
L 421.242924 28.576676 
L 417.763787 28.038182 
L 414.28465 28.038182 
L 410.805512 28.038182 
L 407.326375 28.038182 
L 403.847238 28.038182 
L 400.368101 28.038182 
L 396.888964 28.038182 
L 393.409827 28.038182 
L 389.93069 28.038182 
L 386.451553 28.038182 
L 382.972415 28.038182 
L 379.493278 28.038182 
L 376.014141 28.038182 
L 372.535004 28.038182 
L 369.055867 28.038182 
L 365.57673 28.038182 
L 362.097593 28.038182 
L 358.618456 28.038182 
L 355.139318 28.038182 
L 351.660181 28.038182 
L 348.181044 28.038182 
L 344.701907 28.038182 
L 341.22277 28.038182 
L 337.743633 28.038182 
L 334.264496 28.038182 
L 330.785359 28.038182 
L 327.306221 28.038182 
L 323.827084 28.038182 
L 320.347947 28.038182 
L 316.86881 28.038182 
L 313.389673 28.038182 
L 309.910536 28.038182 
L 306.431399 28.038182 
L 302.952262 28.038182 
L 299.473124 28.038182 
L 295.993987 28.038182 
L 292.51485 28.038182 
L 289.035713 28.038182 
L 285.556576 28.038182 
L 282.077439 28.038182 
L 278.598302 28.038182 
L 275.119164 28.038182 
L 271.640027 28.038182 
L 268.16089 28.038182 
L 264.681753 28.038182 
L 261.202616 28.038182 
L 257.723479 28.038182 
L 254.244342 28.038182 
L 250.765205 28.038182 
L 247.286067 28.038182 
L 243.80693 28.038182 
L 240.327793 28.038182 
L 236.848656 28.038182 
L 233.369519 28.038182 
L 229.890382 28.038182 
L 226.411245 28.038182 
L 222.932108 28.038182 
L 219.45297 28.038182 
L 215.973833 28.038182 
L 212.494696 28.038182 
L 209.015559 28.038182 
L 205.536422 28.038182 
L 202.057285 28.038182 
L 198.578148 28.038182 
L 195.099011 28.038182 
L 191.619873 28.038182 
L 188.140736 28.038182 
L 184.661599 28.038182 
L 181.182462 28.038182 
L 177.703325 28.038182 
L 174.224188 28.038182 
L 170.745051 28.038182 
L 167.265914 28.038182 
L 163.786776 28.038182 
L 160.307639 28.038182 
L 156.828502 28.038182 
L 153.349365 28.038182 
L 149.870228 28.038182 
L 146.391091 28.038182 
L 142.911954 28.038182 
L 139.432816 28.038182 
L 135.953679 28.038182 
L 132.474542 28.038182 
L 128.995405 28.038182 
L 125.516268 28.038182 
L 122.037131 28.038182 
L 118.557994 28.038182 
L 115.078857 28.038182 
L 111.599719 28.038182 
L 108.120582 28.038182 
L 104.641445 28.038182 
L 101.162308 36.967066 
L 97.683171 46.727096 
L 94.204034 54.636978 
L 90.724897 69.690085 
L 87.24576 91.769984 
L 83.766622 123.989641 
z
" clip-path="url(#p03abe8eb1a)" style="fill: #1f77b4; fill-opacity: 0.2"/>
   </g>
   <g id="matplotlib.axis_1">
    <g id="xtick_1">
     <g id="line2d_1">
      <path d="M 82.009658 390.04 
L 82.009658 10.8 
" clip-path="url(#p03abe8eb1a)" style="fill: none; stroke: #b0b0b0; stroke-width: 0.8; stroke-linecap: square"/>
     </g>
     <g id="line2d_2">
      <defs>
       <path id="m0c5d642bd9" d="M 0 0 
L 0 3.5 
" style="stroke: #000000; stroke-width: 0.8"/>
      </defs>
      <g>
       <use xlink:href="#m0c5d642bd9" x="82.009658" y="390.04" style="stroke: #000000; stroke-width: 0.8"/>
      </g>
     </g>
     <g id="text_1">
      <!-- 0 -->
      <g transform="translate(78.828408 404.638438) scale(0.1 -0.1)">
       <defs>
        <path id="DejaVuSans-30" d="M 2034 4250 
Q 1547 4250 1301 3770 
Q 1056 3291 1056 2328 
Q 1056 1369 1301 889 
Q 1547 409 2034 409 
Q 2525 409 2770 889 
Q 3016 1369 3016 2328 
Q 3016 3291 2770 3770 
Q 2525 4250 2034 4250 
z
M 2034 4750 
Q 2819 4750 3233 4129 
Q 3647 3509 3647 2328 
Q 3647 1150 3233 529 
Q 2819 -91 2034 -91 
Q 1250 -91 836 529 
Q 422 1150 422 2328 
Q 422 3509 836 4129 
Q 1250 4750 2034 4750 
z
" transform="scale(0.015625)"/>
       </defs>
       <use xlink:href="#DejaVuSans-30"/>
      </g>
     </g>
    </g>
    <g id="xtick_2">
     <g id="line2d_3">
      <path d="M 168.988086 390.04 
L 168.988086 10.8 
" clip-path="url(#p03abe8eb1a)" style="fill: none; stroke: #b0b0b0; stroke-width: 0.8; stroke-linecap: square"/>
     </g>
     <g id="line2d_4">
      <g>
       <use xlink:href="#m0c5d642bd9" x="168.988086" y="390.04" style="stroke: #000000; stroke-width: 0.8"/>
      </g>
     </g>
     <g id="text_2">
      <!-- 5000 -->
      <g transform="translate(156.263086 404.638438) scale(0.1 -0.1)">
       <defs>
        <path id="DejaVuSans-35" d="M 691 4666 
L 3169 4666 
L 3169 4134 
L 1269 4134 
L 1269 2991 
Q 1406 3038 1543 3061 
Q 1681 3084 1819 3084 
Q 2600 3084 3056 2656 
Q 3513 2228 3513 1497 
Q 3513 744 3044 326 
Q 2575 -91 1722 -91 
Q 1428 -91 1123 -41 
Q 819 9 494 109 
L 494 744 
Q 775 591 1075 516 
Q 1375 441 1709 441 
Q 2250 441 2565 725 
Q 2881 1009 2881 1497 
Q 2881 1984 2565 2268 
Q 2250 2553 1709 2553 
Q 1456 2553 1204 2497 
Q 953 2441 691 2322 
L 691 4666 
z
" transform="scale(0.015625)"/>
       </defs>
       <use xlink:href="#DejaVuSans-35"/>
       <use xlink:href="#DejaVuSans-30" transform="translate(63.623047 0)"/>
       <use xlink:href="#DejaVuSans-30" transform="translate(127.246094 0)"/>
       <use xlink:href="#DejaVuSans-30" transform="translate(190.869141 0)"/>
      </g>
     </g>
    </g>
    <g id="xtick_3">
     <g id="line2d_5">
      <path d="M 255.966515 390.04 
L 255.966515 10.8 
" clip-path="url(#p03abe8eb1a)" style="fill: none; stroke: #b0b0b0; stroke-width: 0.8; stroke-linecap: square"/>
     </g>
     <g id="line2d_6">
      <g>
       <use xlink:href="#m0c5d642bd9" x="255.966515" y="390.04" style="stroke: #000000; stroke-width: 0.8"/>
      </g>
     </g>
     <g id="text_3">
      <!-- 10000 -->
      <g transform="translate(240.060265 404.638438) scale(0.1 -0.1)">
       <defs>
        <path id="DejaVuSans-31" d="M 794 531 
L 1825 531 
L 1825 4091 
L 703 3866 
L 703 4441 
L 1819 4666 
L 2450 4666 
L 2450 531 
L 3481 531 
L 3481 0 
L 794 0 
L 794 531 
z
" transform="scale(0.015625)"/>
       </defs>
       <use xlink:href="#DejaVuSans-31"/>
       <use xlink:href="#DejaVuSans-30" transform="translate(63.623047 0)"/>
       <use xlink:href="#DejaVuSans-30" transform="translate(127.246094 0)"/>
       <use xlink:href="#DejaVuSans-30" transform="translate(190.869141 0)"/>
       <use xlink:href="#DejaVuSans-30" transform="translate(254.492188 0)"/>
      </g>
     </g>
    </g>
    <g id="xtick_4">
     <g id="line2d_7">
      <path d="M 342.944943 390.04 
L 342.944943 10.8 
" clip-path="url(#p03abe8eb1a)" style="fill: none; stroke: #b0b0b0; stroke-width: 0.8; stroke-linecap: square"/>
     </g>
     <g id="line2d_8">
      <g>
       <use xlink:href="#m0c5d642bd9" x="342.944943" y="390.04" style="stroke: #000000; stroke-width: 0.8"/>
      </g>
     </g>
     <g id="text_4">
      <!-- 15000 -->
      <g transform="translate(327.038693 404.638438) scale(0.1 -0.1)">
       <use xlink:href="#DejaVuSans-31"/>
       <use xlink:href="#DejaVuSans-35" transform="translate(63.623047 0)"/>
       <use xlink:href="#DejaVuSans-30" transform="translate(127.246094 0)"/>
       <use xlink:href="#DejaVuSans-30" transform="translate(190.869141 0)"/>
       <use xlink:href="#DejaVuSans-30" transform="translate(254.492188 0)"/>
      </g>
     </g>
    </g>
    <g id="xtick_5">
     <g id="line2d_9">
      <path d="M 429.923371 390.04 
L 429.923371 10.8 
" clip-path="url(#p03abe8eb1a)" style="fill: none; stroke: #b0b0b0; stroke-width: 0.8; stroke-linecap: square"/>
     </g>
     <g id="line2d_10">
      <g>
       <use xlink:href="#m0c5d642bd9" x="429.923371" y="390.04" style="stroke: #000000; stroke-width: 0.8"/>
      </g>
     </g>
     <g id="text_5">
      <!-- 20000 -->
      <g transform="translate(414.017121 404.638438) scale(0.1 -0.1)">
       <defs>
        <path id="DejaVuSans-32" d="M 1228 531 
L 3431 531 
L 3431 0 
L 469 0 
L 469 531 
Q 828 903 1448 1529 
Q 2069 2156 2228 2338 
Q 2531 2678 2651 2914 
Q 2772 3150 2772 3378 
Q 2772 3750 2511 3984 
Q 2250 4219 1831 4219 
Q 1534 4219 1204 4116 
Q 875 4013 500 3803 
L 500 4441 
Q 881 4594 1212 4672 
Q 1544 4750 1819 4750 
Q 2544 4750 2975 4387 
Q 3406 4025 3406 3419 
Q 3406 3131 3298 2873 
Q 3191 2616 2906 2266 
Q 2828 2175 2409 1742 
Q 1991 1309 1228 531 
z
" transform="scale(0.015625)"/>
       </defs>
       <use xlink:href="#DejaVuSans-32"/>
       <use xlink:href="#DejaVuSans-30" transform="translate(63.623047 0)"/>
       <use xlink:href="#DejaVuSans-30" transform="translate(127.246094 0)"/>
       <use xlink:href="#DejaVuSans-30" transform="translate(190.869141 0)"/>
       <use xlink:href="#DejaVuSans-30" transform="translate(254.492188 0)"/>
      </g>
     </g>
    </g>
    <g id="xtick_6">
     <g id="line2d_11">
      <path d="M 516.901799 390.04 
L 516.901799 10.8 
" clip-path="url(#p03abe8eb1a)" style="fill: none; stroke: #b0b0b0; stroke-width: 0.8; stroke-linecap: square"/>
     </g>
     <g id="line2d_12">
      <g>
       <use xlink:href="#m0c5d642bd9" x="516.901799" y="390.04" style="stroke: #000000; stroke-width: 0.8"/>
      </g>
     </g>
     <g id="text_6">
      <!-- 25000 -->
      <g transform="translate(500.995549 404.638438) scale(0.1 -0.1)">
       <use xlink:href="#DejaVuSans-32"/>
       <use xlink:href="#DejaVuSans-35" transform="translate(63.623047 0)"/>
       <use xlink:href="#DejaVuSans-30" transform="translate(127.246094 0)"/>
       <use xlink:href="#DejaVuSans-30" transform="translate(190.869141 0)"/>
       <use xlink:href="#DejaVuSans-30" transform="translate(254.492188 0)"/>
      </g>
     </g>
    </g>
    <g id="xtick_7">
     <g id="line2d_13">
      <path d="M 603.880227 390.04 
L 603.880227 10.8 
" clip-path="url(#p03abe8eb1a)" style="fill: none; stroke: #b0b0b0; stroke-width: 0.8; stroke-linecap: square"/>
     </g>
     <g id="line2d_14">
      <g>
       <use xlink:href="#m0c5d642bd9" x="603.880227" y="390.04" style="stroke: #000000; stroke-width: 0.8"/>
      </g>
     </g>
     <g id="text_7">
      <!-- 30000 -->
      <g transform="translate(587.973977 404.638438) scale(0.1 -0.1)">
       <defs>
        <path id="DejaVuSans-33" d="M 2597 2516 
Q 3050 2419 3304 2112 
Q 3559 1806 3559 1356 
Q 3559 666 3084 287 
Q 2609 -91 1734 -91 
Q 1441 -91 1130 -33 
Q 819 25 488 141 
L 488 750 
Q 750 597 1062 519 
Q 1375 441 1716 441 
Q 2309 441 2620 675 
Q 2931 909 2931 1356 
Q 2931 1769 2642 2001 
Q 2353 2234 1838 2234 
L 1294 2234 
L 1294 2753 
L 1863 2753 
Q 2328 2753 2575 2939 
Q 2822 3125 2822 3475 
Q 2822 3834 2567 4026 
Q 2313 4219 1838 4219 
Q 1578 4219 1281 4162 
Q 984 4106 628 3988 
L 628 4550 
Q 988 4650 1302 4700 
Q 1616 4750 1894 4750 
Q 2613 4750 3031 4423 
Q 3450 4097 3450 3541 
Q 3450 3153 3228 2886 
Q 3006 2619 2597 2516 
z
" transform="scale(0.015625)"/>
       </defs>
       <use xlink:href="#DejaVuSans-33"/>
       <use xlink:href="#DejaVuSans-30" transform="translate(63.623047 0)"/>
       <use xlink:href="#DejaVuSans-30" transform="translate(127.246094 0)"/>
       <use xlink:href="#DejaVuSans-30" transform="translate(190.869141 0)"/>
       <use xlink:href="#DejaVuSans-30" transform="translate(254.492188 0)"/>
      </g>
     </g>
    </g>
    <g id="xtick_8">
     <g id="line2d_15">
      <path d="M 690.858656 390.04 
L 690.858656 10.8 
" clip-path="url(#p03abe8eb1a)" style="fill: none; stroke: #b0b0b0; stroke-width: 0.8; stroke-linecap: square"/>
     </g>
     <g id="line2d_16">
      <g>
       <use xlink:href="#m0c5d642bd9" x="690.858656" y="390.04" style="stroke: #000000; stroke-width: 0.8"/>
      </g>
     </g>
     <g id="text_8">
      <!-- 35000 -->
      <g transform="translate(674.952406 404.638438) scale(0.1 -0.1)">
       <use xlink:href="#DejaVuSans-33"/>
       <use xlink:href="#DejaVuSans-35" transform="translate(63.623047 0)"/>
       <use xlink:href="#DejaVuSans-30" transform="translate(127.246094 0)"/>
       <use xlink:href="#DejaVuSans-30" transform="translate(190.869141 0)"/>
       <use xlink:href="#DejaVuSans-30" transform="translate(254.492188 0)"/>
      </g>
     </g>
    </g>
    <g id="text_9">
     <!-- Episodes -->
     <g transform="translate(358.990659 418.316562) scale(0.1 -0.1)">
      <defs>
       <path id="DejaVuSans-45" d="M 628 4666 
L 3578 4666 
L 3578 4134 
L 1259 4134 
L 1259 2753 
L 3481 2753 
L 3481 2222 
L 1259 2222 
L 1259 531 
L 3634 531 
L 3634 0 
L 628 0 
L 628 4666 
z
" transform="scale(0.015625)"/>
       <path id="DejaVuSans-70" d="M 1159 525 
L 1159 -1331 
L 581 -1331 
L 581 3500 
L 1159 3500 
L 1159 2969 
Q 1341 3281 1617 3432 
Q 1894 3584 2278 3584 
Q 2916 3584 3314 3078 
Q 3713 2572 3713 1747 
Q 3713 922 3314 415 
Q 2916 -91 2278 -91 
Q 1894 -91 1617 61 
Q 1341 213 1159 525 
z
M 3116 1747 
Q 3116 2381 2855 2742 
Q 2594 3103 2138 3103 
Q 1681 3103 1420 2742 
Q 1159 2381 1159 1747 
Q 1159 1113 1420 752 
Q 1681 391 2138 391 
Q 2594 391 2855 752 
Q 3116 1113 3116 1747 
z
" transform="scale(0.015625)"/>
       <path id="DejaVuSans-69" d="M 603 3500 
L 1178 3500 
L 1178 0 
L 603 0 
L 603 3500 
z
M 603 4863 
L 1178 4863 
L 1178 4134 
L 603 4134 
L 603 4863 
z
" transform="scale(0.015625)"/>
       <path id="DejaVuSans-73" d="M 2834 3397 
L 2834 2853 
Q 2591 2978 2328 3040 
Q 2066 3103 1784 3103 
Q 1356 3103 1142 2972 
Q 928 2841 928 2578 
Q 928 2378 1081 2264 
Q 1234 2150 1697 2047 
L 1894 2003 
Q 2506 1872 2764 1633 
Q 3022 1394 3022 966 
Q 3022 478 2636 193 
Q 2250 -91 1575 -91 
Q 1294 -91 989 -36 
Q 684 19 347 128 
L 347 722 
Q 666 556 975 473 
Q 1284 391 1588 391 
Q 1994 391 2212 530 
Q 2431 669 2431 922 
Q 2431 1156 2273 1281 
Q 2116 1406 1581 1522 
L 1381 1569 
Q 847 1681 609 1914 
Q 372 2147 372 2553 
Q 372 3047 722 3315 
Q 1072 3584 1716 3584 
Q 2034 3584 2315 3537 
Q 2597 3491 2834 3397 
z
" transform="scale(0.015625)"/>
       <path id="DejaVuSans-6f" d="M 1959 3097 
Q 1497 3097 1228 2736 
Q 959 2375 959 1747 
Q 959 1119 1226 758 
Q 1494 397 1959 397 
Q 2419 397 2687 759 
Q 2956 1122 2956 1747 
Q 2956 2369 2687 2733 
Q 2419 3097 1959 3097 
z
M 1959 3584 
Q 2709 3584 3137 3096 
Q 3566 2609 3566 1747 
Q 3566 888 3137 398 
Q 2709 -91 1959 -91 
Q 1206 -91 779 398 
Q 353 888 353 1747 
Q 353 2609 779 3096 
Q 1206 3584 1959 3584 
z
" transform="scale(0.015625)"/>
       <path id="DejaVuSans-64" d="M 2906 2969 
L 2906 4863 
L 3481 4863 
L 3481 0 
L 2906 0 
L 2906 525 
Q 2725 213 2448 61 
Q 2172 -91 1784 -91 
Q 1150 -91 751 415 
Q 353 922 353 1747 
Q 353 2572 751 3078 
Q 1150 3584 1784 3584 
Q 2172 3584 2448 3432 
Q 2725 3281 2906 2969 
z
M 947 1747 
Q 947 1113 1208 752 
Q 1469 391 1925 391 
Q 2381 391 2643 752 
Q 2906 1113 2906 1747 
Q 2906 2381 2643 2742 
Q 2381 3103 1925 3103 
Q 1469 3103 1208 2742 
Q 947 2381 947 1747 
z
" transform="scale(0.015625)"/>
       <path id="DejaVuSans-65" d="M 3597 1894 
L 3597 1613 
L 953 1613 
Q 991 1019 1311 708 
Q 1631 397 2203 397 
Q 2534 397 2845 478 
Q 3156 559 3463 722 
L 3463 178 
Q 3153 47 2828 -22 
Q 2503 -91 2169 -91 
Q 1331 -91 842 396 
Q 353 884 353 1716 
Q 353 2575 817 3079 
Q 1281 3584 2069 3584 
Q 2775 3584 3186 3129 
Q 3597 2675 3597 1894 
z
M 3022 2063 
Q 3016 2534 2758 2815 
Q 2500 3097 2075 3097 
Q 1594 3097 1305 2825 
Q 1016 2553 972 2059 
L 3022 2063 
z
" transform="scale(0.015625)"/>
      </defs>
      <use xlink:href="#DejaVuSans-45"/>
      <use xlink:href="#DejaVuSans-70" transform="translate(63.183594 0)"/>
      <use xlink:href="#DejaVuSans-69" transform="translate(126.660156 0)"/>
      <use xlink:href="#DejaVuSans-73" transform="translate(154.443359 0)"/>
      <use xlink:href="#DejaVuSans-6f" transform="translate(206.542969 0)"/>
      <use xlink:href="#DejaVuSans-64" transform="translate(267.724609 0)"/>
      <use xlink:href="#DejaVuSans-65" transform="translate(331.201172 0)"/>
      <use xlink:href="#DejaVuSans-73" transform="translate(392.724609 0)"/>
     </g>
    </g>
   </g>
   <g id="matplotlib.axis_2">
    <g id="ytick_1">
     <g id="line2d_17">
      <path d="M 54.02 366.905007 
L 708.445694 366.905007 
" clip-path="url(#p03abe8eb1a)" style="fill: none; stroke: #b0b0b0; stroke-width: 0.8; stroke-linecap: square"/>
     </g>
     <g id="line2d_18">
      <defs>
       <path id="m42954fd2ed" d="M 0 0 
L -3.5 0 
" style="stroke: #000000; stroke-width: 0.8"/>
      </defs>
      <g>
       <use xlink:href="#m42954fd2ed" x="54.02" y="366.905007" style="stroke: #000000; stroke-width: 0.8"/>
      </g>
     </g>
     <g id="text_10">
      <!-- 0.60 -->
      <g transform="translate(24.754375 370.704225) scale(0.1 -0.1)">
       <defs>
        <path id="DejaVuSans-2e" d="M 684 794 
L 1344 794 
L 1344 0 
L 684 0 
L 684 794 
z
" transform="scale(0.015625)"/>
        <path id="DejaVuSans-36" d="M 2113 2584 
Q 1688 2584 1439 2293 
Q 1191 2003 1191 1497 
Q 1191 994 1439 701 
Q 1688 409 2113 409 
Q 2538 409 2786 701 
Q 3034 994 3034 1497 
Q 3034 2003 2786 2293 
Q 2538 2584 2113 2584 
z
M 3366 4563 
L 3366 3988 
Q 3128 4100 2886 4159 
Q 2644 4219 2406 4219 
Q 1781 4219 1451 3797 
Q 1122 3375 1075 2522 
Q 1259 2794 1537 2939 
Q 1816 3084 2150 3084 
Q 2853 3084 3261 2657 
Q 3669 2231 3669 1497 
Q 3669 778 3244 343 
Q 2819 -91 2113 -91 
Q 1303 -91 875 529 
Q 447 1150 447 2328 
Q 447 3434 972 4092 
Q 1497 4750 2381 4750 
Q 2619 4750 2861 4703 
Q 3103 4656 3366 4563 
z
" transform="scale(0.015625)"/>
       </defs>
       <use xlink:href="#DejaVuSans-30"/>
       <use xlink:href="#DejaVuSans-2e" transform="translate(63.623047 0)"/>
       <use xlink:href="#DejaVuSans-36" transform="translate(95.410156 0)"/>
       <use xlink:href="#DejaVuSans-30" transform="translate(159.033203 0)"/>
      </g>
     </g>
    </g>
    <g id="ytick_2">
     <g id="line2d_19">
      <path d="M 54.02 324.546654 
L 708.445694 324.546654 
" clip-path="url(#p03abe8eb1a)" style="fill: none; stroke: #b0b0b0; stroke-width: 0.8; stroke-linecap: square"/>
     </g>
     <g id="line2d_20">
      <g>
       <use xlink:href="#m42954fd2ed" x="54.02" y="324.546654" style="stroke: #000000; stroke-width: 0.8"/>
      </g>
     </g>
     <g id="text_11">
      <!-- 0.65 -->
      <g transform="translate(24.754375 328.345872) scale(0.1 -0.1)">
       <use xlink:href="#DejaVuSans-30"/>
       <use xlink:href="#DejaVuSans-2e" transform="translate(63.623047 0)"/>
       <use xlink:href="#DejaVuSans-36" transform="translate(95.410156 0)"/>
       <use xlink:href="#DejaVuSans-35" transform="translate(159.033203 0)"/>
      </g>
     </g>
    </g>
    <g id="ytick_3">
     <g id="line2d_21">
      <path d="M 54.02 282.1883 
L 708.445694 282.1883 
" clip-path="url(#p03abe8eb1a)" style="fill: none; stroke: #b0b0b0; stroke-width: 0.8; stroke-linecap: square"/>
     </g>
     <g id="line2d_22">
      <g>
       <use xlink:href="#m42954fd2ed" x="54.02" y="282.1883" style="stroke: #000000; stroke-width: 0.8"/>
      </g>
     </g>
     <g id="text_12">
      <!-- 0.70 -->
      <g transform="translate(24.754375 285.987519) scale(0.1 -0.1)">
       <defs>
        <path id="DejaVuSans-37" d="M 525 4666 
L 3525 4666 
L 3525 4397 
L 1831 0 
L 1172 0 
L 2766 4134 
L 525 4134 
L 525 4666 
z
" transform="scale(0.015625)"/>
       </defs>
       <use xlink:href="#DejaVuSans-30"/>
       <use xlink:href="#DejaVuSans-2e" transform="translate(63.623047 0)"/>
       <use xlink:href="#DejaVuSans-37" transform="translate(95.410156 0)"/>
       <use xlink:href="#DejaVuSans-30" transform="translate(159.033203 0)"/>
      </g>
     </g>
    </g>
    <g id="ytick_4">
     <g id="line2d_23">
      <path d="M 54.02 239.829947 
L 708.445694 239.829947 
" clip-path="url(#p03abe8eb1a)" style="fill: none; stroke: #b0b0b0; stroke-width: 0.8; stroke-linecap: square"/>
     </g>
     <g id="line2d_24">
      <g>
       <use xlink:href="#m42954fd2ed" x="54.02" y="239.829947" style="stroke: #000000; stroke-width: 0.8"/>
      </g>
     </g>
     <g id="text_13">
      <!-- 0.75 -->
      <g transform="translate(24.754375 243.629166) scale(0.1 -0.1)">
       <use xlink:href="#DejaVuSans-30"/>
       <use xlink:href="#DejaVuSans-2e" transform="translate(63.623047 0)"/>
       <use xlink:href="#DejaVuSans-37" transform="translate(95.410156 0)"/>
       <use xlink:href="#DejaVuSans-35" transform="translate(159.033203 0)"/>
      </g>
     </g>
    </g>
    <g id="ytick_5">
     <g id="line2d_25">
      <path d="M 54.02 197.471594 
L 708.445694 197.471594 
" clip-path="url(#p03abe8eb1a)" style="fill: none; stroke: #b0b0b0; stroke-width: 0.8; stroke-linecap: square"/>
     </g>
     <g id="line2d_26">
      <g>
       <use xlink:href="#m42954fd2ed" x="54.02" y="197.471594" style="stroke: #000000; stroke-width: 0.8"/>
      </g>
     </g>
     <g id="text_14">
      <!-- 0.80 -->
      <g transform="translate(24.754375 201.270813) scale(0.1 -0.1)">
       <defs>
        <path id="DejaVuSans-38" d="M 2034 2216 
Q 1584 2216 1326 1975 
Q 1069 1734 1069 1313 
Q 1069 891 1326 650 
Q 1584 409 2034 409 
Q 2484 409 2743 651 
Q 3003 894 3003 1313 
Q 3003 1734 2745 1975 
Q 2488 2216 2034 2216 
z
M 1403 2484 
Q 997 2584 770 2862 
Q 544 3141 544 3541 
Q 544 4100 942 4425 
Q 1341 4750 2034 4750 
Q 2731 4750 3128 4425 
Q 3525 4100 3525 3541 
Q 3525 3141 3298 2862 
Q 3072 2584 2669 2484 
Q 3125 2378 3379 2068 
Q 3634 1759 3634 1313 
Q 3634 634 3220 271 
Q 2806 -91 2034 -91 
Q 1263 -91 848 271 
Q 434 634 434 1313 
Q 434 1759 690 2068 
Q 947 2378 1403 2484 
z
M 1172 3481 
Q 1172 3119 1398 2916 
Q 1625 2713 2034 2713 
Q 2441 2713 2670 2916 
Q 2900 3119 2900 3481 
Q 2900 3844 2670 4047 
Q 2441 4250 2034 4250 
Q 1625 4250 1398 4047 
Q 1172 3844 1172 3481 
z
" transform="scale(0.015625)"/>
       </defs>
       <use xlink:href="#DejaVuSans-30"/>
       <use xlink:href="#DejaVuSans-2e" transform="translate(63.623047 0)"/>
       <use xlink:href="#DejaVuSans-38" transform="translate(95.410156 0)"/>
       <use xlink:href="#DejaVuSans-30" transform="translate(159.033203 0)"/>
      </g>
     </g>
    </g>
    <g id="ytick_6">
     <g id="line2d_27">
      <path d="M 54.02 155.113241 
L 708.445694 155.113241 
" clip-path="url(#p03abe8eb1a)" style="fill: none; stroke: #b0b0b0; stroke-width: 0.8; stroke-linecap: square"/>
     </g>
     <g id="line2d_28">
      <g>
       <use xlink:href="#m42954fd2ed" x="54.02" y="155.113241" style="stroke: #000000; stroke-width: 0.8"/>
      </g>
     </g>
     <g id="text_15">
      <!-- 0.85 -->
      <g transform="translate(24.754375 158.91246) scale(0.1 -0.1)">
       <use xlink:href="#DejaVuSans-30"/>
       <use xlink:href="#DejaVuSans-2e" transform="translate(63.623047 0)"/>
       <use xlink:href="#DejaVuSans-38" transform="translate(95.410156 0)"/>
       <use xlink:href="#DejaVuSans-35" transform="translate(159.033203 0)"/>
      </g>
     </g>
    </g>
    <g id="ytick_7">
     <g id="line2d_29">
      <path d="M 54.02 112.754888 
L 708.445694 112.754888 
" clip-path="url(#p03abe8eb1a)" style="fill: none; stroke: #b0b0b0; stroke-width: 0.8; stroke-linecap: square"/>
     </g>
     <g id="line2d_30">
      <g>
       <use xlink:href="#m42954fd2ed" x="54.02" y="112.754888" style="stroke: #000000; stroke-width: 0.8"/>
      </g>
     </g>
     <g id="text_16">
      <!-- 0.90 -->
      <g transform="translate(24.754375 116.554107) scale(0.1 -0.1)">
       <defs>
        <path id="DejaVuSans-39" d="M 703 97 
L 703 672 
Q 941 559 1184 500 
Q 1428 441 1663 441 
Q 2288 441 2617 861 
Q 2947 1281 2994 2138 
Q 2813 1869 2534 1725 
Q 2256 1581 1919 1581 
Q 1219 1581 811 2004 
Q 403 2428 403 3163 
Q 403 3881 828 4315 
Q 1253 4750 1959 4750 
Q 2769 4750 3195 4129 
Q 3622 3509 3622 2328 
Q 3622 1225 3098 567 
Q 2575 -91 1691 -91 
Q 1453 -91 1209 -44 
Q 966 3 703 97 
z
M 1959 2075 
Q 2384 2075 2632 2365 
Q 2881 2656 2881 3163 
Q 2881 3666 2632 3958 
Q 2384 4250 1959 4250 
Q 1534 4250 1286 3958 
Q 1038 3666 1038 3163 
Q 1038 2656 1286 2365 
Q 1534 2075 1959 2075 
z
" transform="scale(0.015625)"/>
       </defs>
       <use xlink:href="#DejaVuSans-30"/>
       <use xlink:href="#DejaVuSans-2e" transform="translate(63.623047 0)"/>
       <use xlink:href="#DejaVuSans-39" transform="translate(95.410156 0)"/>
       <use xlink:href="#DejaVuSans-30" transform="translate(159.033203 0)"/>
      </g>
     </g>
    </g>
    <g id="ytick_8">
     <g id="line2d_31">
      <path d="M 54.02 70.396535 
L 708.445694 70.396535 
" clip-path="url(#p03abe8eb1a)" style="fill: none; stroke: #b0b0b0; stroke-width: 0.8; stroke-linecap: square"/>
     </g>
     <g id="line2d_32">
      <g>
       <use xlink:href="#m42954fd2ed" x="54.02" y="70.396535" style="stroke: #000000; stroke-width: 0.8"/>
      </g>
     </g>
     <g id="text_17">
      <!-- 0.95 -->
      <g transform="translate(24.754375 74.195754) scale(0.1 -0.1)">
       <use xlink:href="#DejaVuSans-30"/>
       <use xlink:href="#DejaVuSans-2e" transform="translate(63.623047 0)"/>
       <use xlink:href="#DejaVuSans-39" transform="translate(95.410156 0)"/>
       <use xlink:href="#DejaVuSans-35" transform="translate(159.033203 0)"/>
      </g>
     </g>
    </g>
    <g id="ytick_9">
     <g id="line2d_33">
      <path d="M 54.02 28.038182 
L 708.445694 28.038182 
" clip-path="url(#p03abe8eb1a)" style="fill: none; stroke: #b0b0b0; stroke-width: 0.8; stroke-linecap: square"/>
     </g>
     <g id="line2d_34">
      <g>
       <use xlink:href="#m42954fd2ed" x="54.02" y="28.038182" style="stroke: #000000; stroke-width: 0.8"/>
      </g>
     </g>
     <g id="text_18">
      <!-- 1.00 -->
      <g transform="translate(24.754375 31.837401) scale(0.1 -0.1)">
       <use xlink:href="#DejaVuSans-31"/>
       <use xlink:href="#DejaVuSans-2e" transform="translate(63.623047 0)"/>
       <use xlink:href="#DejaVuSans-30" transform="translate(95.410156 0)"/>
       <use xlink:href="#DejaVuSans-30" transform="translate(159.033203 0)"/>
      </g>
     </g>
    </g>
    <g id="text_19">
     <!-- Accuracy on Test -->
     <g transform="translate(18.674688 242.499688) rotate(-90) scale(0.1 -0.1)">
      <defs>
       <path id="DejaVuSans-41" d="M 2188 4044 
L 1331 1722 
L 3047 1722 
L 2188 4044 
z
M 1831 4666 
L 2547 4666 
L 4325 0 
L 3669 0 
L 3244 1197 
L 1141 1197 
L 716 0 
L 50 0 
L 1831 4666 
z
" transform="scale(0.015625)"/>
       <path id="DejaVuSans-63" d="M 3122 3366 
L 3122 2828 
Q 2878 2963 2633 3030 
Q 2388 3097 2138 3097 
Q 1578 3097 1268 2742 
Q 959 2388 959 1747 
Q 959 1106 1268 751 
Q 1578 397 2138 397 
Q 2388 397 2633 464 
Q 2878 531 3122 666 
L 3122 134 
Q 2881 22 2623 -34 
Q 2366 -91 2075 -91 
Q 1284 -91 818 406 
Q 353 903 353 1747 
Q 353 2603 823 3093 
Q 1294 3584 2113 3584 
Q 2378 3584 2631 3529 
Q 2884 3475 3122 3366 
z
" transform="scale(0.015625)"/>
       <path id="DejaVuSans-75" d="M 544 1381 
L 544 3500 
L 1119 3500 
L 1119 1403 
Q 1119 906 1312 657 
Q 1506 409 1894 409 
Q 2359 409 2629 706 
Q 2900 1003 2900 1516 
L 2900 3500 
L 3475 3500 
L 3475 0 
L 2900 0 
L 2900 538 
Q 2691 219 2414 64 
Q 2138 -91 1772 -91 
Q 1169 -91 856 284 
Q 544 659 544 1381 
z
M 1991 3584 
L 1991 3584 
z
" transform="scale(0.015625)"/>
       <path id="DejaVuSans-72" d="M 2631 2963 
Q 2534 3019 2420 3045 
Q 2306 3072 2169 3072 
Q 1681 3072 1420 2755 
Q 1159 2438 1159 1844 
L 1159 0 
L 581 0 
L 581 3500 
L 1159 3500 
L 1159 2956 
Q 1341 3275 1631 3429 
Q 1922 3584 2338 3584 
Q 2397 3584 2469 3576 
Q 2541 3569 2628 3553 
L 2631 2963 
z
" transform="scale(0.015625)"/>
       <path id="DejaVuSans-61" d="M 2194 1759 
Q 1497 1759 1228 1600 
Q 959 1441 959 1056 
Q 959 750 1161 570 
Q 1363 391 1709 391 
Q 2188 391 2477 730 
Q 2766 1069 2766 1631 
L 2766 1759 
L 2194 1759 
z
M 3341 1997 
L 3341 0 
L 2766 0 
L 2766 531 
Q 2569 213 2275 61 
Q 1981 -91 1556 -91 
Q 1019 -91 701 211 
Q 384 513 384 1019 
Q 384 1609 779 1909 
Q 1175 2209 1959 2209 
L 2766 2209 
L 2766 2266 
Q 2766 2663 2505 2880 
Q 2244 3097 1772 3097 
Q 1472 3097 1187 3025 
Q 903 2953 641 2809 
L 641 3341 
Q 956 3463 1253 3523 
Q 1550 3584 1831 3584 
Q 2591 3584 2966 3190 
Q 3341 2797 3341 1997 
z
" transform="scale(0.015625)"/>
       <path id="DejaVuSans-79" d="M 2059 -325 
Q 1816 -950 1584 -1140 
Q 1353 -1331 966 -1331 
L 506 -1331 
L 506 -850 
L 844 -850 
Q 1081 -850 1212 -737 
Q 1344 -625 1503 -206 
L 1606 56 
L 191 3500 
L 800 3500 
L 1894 763 
L 2988 3500 
L 3597 3500 
L 2059 -325 
z
" transform="scale(0.015625)"/>
       <path id="DejaVuSans-20" transform="scale(0.015625)"/>
       <path id="DejaVuSans-6e" d="M 3513 2113 
L 3513 0 
L 2938 0 
L 2938 2094 
Q 2938 2591 2744 2837 
Q 2550 3084 2163 3084 
Q 1697 3084 1428 2787 
Q 1159 2491 1159 1978 
L 1159 0 
L 581 0 
L 581 3500 
L 1159 3500 
L 1159 2956 
Q 1366 3272 1645 3428 
Q 1925 3584 2291 3584 
Q 2894 3584 3203 3211 
Q 3513 2838 3513 2113 
z
" transform="scale(0.015625)"/>
       <path id="DejaVuSans-54" d="M -19 4666 
L 3928 4666 
L 3928 4134 
L 2272 4134 
L 2272 0 
L 1638 0 
L 1638 4134 
L -19 4134 
L -19 4666 
z
" transform="scale(0.015625)"/>
       <path id="DejaVuSans-74" d="M 1172 4494 
L 1172 3500 
L 2356 3500 
L 2356 3053 
L 1172 3053 
L 1172 1153 
Q 1172 725 1289 603 
Q 1406 481 1766 481 
L 2356 481 
L 2356 0 
L 1766 0 
Q 1100 0 847 248 
Q 594 497 594 1153 
L 594 3053 
L 172 3053 
L 172 3500 
L 594 3500 
L 594 4494 
L 1172 4494 
z
" transform="scale(0.015625)"/>
      </defs>
      <use xlink:href="#DejaVuSans-41"/>
      <use xlink:href="#DejaVuSans-63" transform="translate(66.658203 0)"/>
      <use xlink:href="#DejaVuSans-63" transform="translate(121.638672 0)"/>
      <use xlink:href="#DejaVuSans-75" transform="translate(176.619141 0)"/>
      <use xlink:href="#DejaVuSans-72" transform="translate(239.998047 0)"/>
      <use xlink:href="#DejaVuSans-61" transform="translate(281.111328 0)"/>
      <use xlink:href="#DejaVuSans-63" transform="translate(342.390625 0)"/>
      <use xlink:href="#DejaVuSans-79" transform="translate(397.371094 0)"/>
      <use xlink:href="#DejaVuSans-20" transform="translate(456.550781 0)"/>
      <use xlink:href="#DejaVuSans-6f" transform="translate(488.337891 0)"/>
      <use xlink:href="#DejaVuSans-6e" transform="translate(549.519531 0)"/>
      <use xlink:href="#DejaVuSans-20" transform="translate(612.898438 0)"/>
      <use xlink:href="#DejaVuSans-54" transform="translate(644.685547 0)"/>
      <use xlink:href="#DejaVuSans-65" transform="translate(688.769531 0)"/>
      <use xlink:href="#DejaVuSans-73" transform="translate(750.292969 0)"/>
      <use xlink:href="#DejaVuSans-74" transform="translate(802.392578 0)"/>
     </g>
    </g>
   </g>
   <g id="line2d_35">
    <path d="M 83.766622 248.395729 
L 87.24576 221.662899 
L 90.724897 186.976112 
L 94.204034 177.280759 
L 97.683171 148.241752 
L 101.162308 126.4978 
L 104.641445 102.024088 
L 108.120582 71.949663 
L 111.599719 52.276567 
L 115.078857 42.581212 
L 118.557994 35.050841 
L 122.037131 30.862071 
L 125.516268 31.803368 
L 128.995405 29.77958 
L 132.474542 31.568043 
L 135.953679 29.826645 
L 139.432816 28.979478 
L 142.911954 29.685451 
L 149.870228 28.932414 
L 153.349365 28.602959 
L 156.828502 28.132311 
L 160.307639 28.226441 
L 163.786776 28.132311 
L 167.265914 28.273506 
L 170.745051 29.450127 
L 174.224188 28.132311 
L 177.703325 28.838284 
L 181.182462 28.226441 
L 184.661599 28.085247 
L 188.140736 28.791219 
L 191.619873 28.038182 
L 195.099011 28.226441 
L 198.578148 28.085247 
L 202.057285 28.744154 
L 205.536422 28.085247 
L 209.015559 28.132311 
L 212.494696 28.367635 
L 215.973833 28.085247 
L 219.45297 28.085247 
L 222.932108 28.744154 
L 226.411245 28.038182 
L 236.848656 28.132311 
L 240.327793 28.038182 
L 243.80693 28.132311 
L 257.723479 28.038182 
L 261.202616 28.791219 
L 264.681753 28.085247 
L 275.119164 28.038182 
L 278.598302 28.179376 
L 285.556576 28.038182 
L 295.993987 28.085247 
L 299.473124 28.179376 
L 302.952262 28.085247 
L 309.910536 28.179376 
L 313.389673 28.038182 
L 316.86881 28.038182 
L 320.347947 28.320571 
L 323.827084 28.085247 
L 327.306221 28.650025 
L 330.785359 28.038182 
L 348.181044 28.038182 
L 351.660181 28.320571 
L 355.139318 28.038182 
L 362.097593 28.085247 
L 372.535004 28.038182 
L 376.014141 28.744154 
L 379.493278 28.085247 
L 410.805512 28.132311 
L 414.28465 28.744154 
L 417.763787 32.226948 
L 421.242924 40.557416 
L 424.722061 43.428369 
L 428.201198 45.358025 
L 431.680335 45.452155 
L 435.159472 46.063997 
L 442.117747 46.722904 
L 445.596884 46.864099 
L 449.076021 46.769969 
L 452.555158 47.146487 
L 456.034295 46.817034 
L 466.471707 46.864099 
L 515.179626 46.864099 
L 518.658763 47.193552 
L 522.137901 47.146487 
L 525.617038 46.911163 
L 536.054449 46.864099 
L 539.533586 48.699625 
L 543.012723 51.664707 
L 546.49186 55.806409 
L 549.970998 55.900539 
L 553.450135 56.277057 
L 560.408409 56.277057 
L 591.720643 56.277057 
L 595.19978 56.841835 
L 598.678917 56.277057 
L 678.699071 56.277057 
L 678.699071 56.277057 
" clip-path="url(#p03abe8eb1a)" style="fill: none; stroke: #1f77b4; stroke-width: 1.5; stroke-linecap: square"/>
   </g>
   <g id="patch_3">
    <path d="M 54.02 390.04 
L 54.02 10.8 
" style="fill: none; stroke: #000000; stroke-width: 0.8; stroke-linejoin: miter; stroke-linecap: square"/>
   </g>
   <g id="patch_4">
    <path d="M 708.445694 390.04 
L 708.445694 10.8 
" style="fill: none; stroke: #000000; stroke-width: 0.8; stroke-linejoin: miter; stroke-linecap: square"/>
   </g>
   <g id="patch_5">
    <path d="M 54.02 390.04 
L 708.445694 390.04 
" style="fill: none; stroke: #000000; stroke-width: 0.8; stroke-linejoin: miter; stroke-linecap: square"/>
   </g>
   <g id="patch_6">
    <path d="M 54.02 10.8 
L 708.445694 10.8 
" style="fill: none; stroke: #000000; stroke-width: 0.8; stroke-linejoin: miter; stroke-linecap: square"/>
   </g>
  </g>
 </g>
 <defs>
  <clipPath id="p03abe8eb1a">
   <rect x="54.02" y="10.8" width="654.425694" height="379.24"/>
  </clipPath>
 </defs>
</svg>
