<?xml version="1.0" encoding="utf-8" standalone="no"?>
<!DOCTYPE svg PUBLIC "-//W3C//DTD SVG 1.1//EN"
  "http://www.w3.org/Graphics/SVG/1.1/DTD/svg11.dtd">
<svg xmlns:xlink="http://www.w3.org/1999/xlink" width="720pt" height="432pt" viewBox="0 0 720 432" xmlns="http://www.w3.org/2000/svg" version="1.1">
 <metadata>
  <rdf:RDF xmlns:dc="http://purl.org/dc/elements/1.1/" xmlns:cc="http://creativecommons.org/ns#" xmlns:rdf="http://www.w3.org/1999/02/22-rdf-syntax-ns#">
   <cc:Work>
    <dc:type rdf:resource="http://purl.org/dc/dcmitype/StillImage"/>
    <dc:date>2025-04-16T01:28:07.277192</dc:date>
    <dc:format>image/svg+xml</dc:format>
    <dc:creator>
     <cc:Agent>
      <dc:title>Matplotlib v3.10.0, https://matplotlib.org/</dc:title>
     </cc:Agent>
    </dc:creator>
   </cc:Work>
  </rdf:RDF>
 </metadata>
 <defs>
  <style type="text/css">*{stroke-linejoin: round; stroke-linecap: butt}</style>
 </defs>
 <g id="figure_1">
  <g id="patch_1">
   <path d="M 0 432 
L 720 432 
L 720 0 
L 0 0 
z
" style="fill: #ffffff"/>
  </g>
  <g id="axes_1">
   <g id="patch_2">
    <path d="M 50.87 390.04 
L 708.445694 390.04 
L 708.445694 10.8 
L 50.87 10.8 
z
" style="fill: #ffffff"/>
   </g>
   <g id="FillBetweenPolyCollection_1">
    <path d="M 80.759804 296.099604 
L 80.759804 341.536026 
L 84.255688 346.677508 
L 87.751571 347.215935 
L 91.247455 348.001661 
L 94.743338 339.421332 
L 98.239222 321.299236 
L 101.735105 300.880429 
L 105.230989 224.681563 
L 108.726873 168.196779 
L 112.222756 131.704214 
L 115.71864 87.745398 
L 119.214523 73.842485 
L 122.710407 68.950138 
L 126.20629 64.186133 
L 129.702174 66.383083 
L 133.198057 57.174573 
L 136.693941 50.142014 
L 140.189824 52.512363 
L 143.685708 54.813674 
L 147.181592 48.976072 
L 150.677475 51.280009 
L 154.173359 45.444899 
L 157.669242 47.771642 
L 161.165126 45.442881 
L 164.661009 48.940026 
L 168.156893 47.830234 
L 171.652776 45.439255 
L 175.14866 46.633525 
L 178.644543 47.770304 
L 182.140427 44.27217 
L 185.63631 45.470589 
L 189.132194 43.107858 
L 192.628078 47.768772 
L 196.123961 44.272655 
L 199.619845 44.304047 
L 203.115728 44.275214 
L 206.611612 45.43846 
L 210.107495 50.103718 
L 213.603379 44.273023 
L 217.099262 44.284463 
L 220.595146 44.307223 
L 224.091029 43.106966 
L 227.586913 44.271278 
L 231.082796 43.105628 
L 234.57868 45.436483 
L 238.074564 43.104736 
L 241.570447 45.440012 
L 245.066331 44.278414 
L 248.562214 43.113365 
L 252.058098 43.11098 
L 255.553981 43.11098 
L 259.049865 45.47328 
L 262.545748 44.276184 
L 266.041632 43.107412 
L 269.537515 44.272267 
L 273.033399 43.106966 
L 276.529282 45.441505 
L 280.025166 44.273353 
L 283.52105 43.105221 
L 287.016933 43.105628 
L 290.512817 44.272849 
L 294.0087 44.271317 
L 297.504584 46.606437 
L 301.000467 44.274478 
L 304.496351 45.436929 
L 307.992234 46.602579 
L 311.488118 43.105182 
L 314.984001 43.105182 
L 318.479885 44.28615 
L 321.975768 44.288807 
L 325.471652 44.309554 
L 328.967536 43.121743 
L 332.463419 43.109642 
L 335.959303 43.128392 
L 339.455186 44.275738 
L 342.95107 43.110534 
L 346.446953 43.10875 
L 349.942837 44.28615 
L 353.43872 43.109196 
L 356.934604 44.275292 
L 360.430487 44.272616 
L 363.926371 43.108343 
L 367.422255 44.272636 
L 370.918138 43.10875 
L 374.414022 44.305346 
L 377.909905 44.273547 
L 381.405789 44.271317 
L 384.901672 44.272248 
L 388.397556 46.603025 
L 391.893439 43.106074 
L 395.389323 43.105182 
L 398.885206 43.106966 
L 402.38109 45.437375 
L 405.876973 44.273547 
L 409.372857 45.439158 
L 412.868741 60.590491 
L 416.364624 144.116968 
L 419.860508 294.446666 
L 423.356391 332.09104 
L 426.852275 357.349062 
L 430.348158 358.31533 
L 433.844042 364.592272 
L 437.339925 367.289247 
L 440.835809 371.35149 
L 444.331692 372.800197 
L 447.827576 371.834235 
L 451.323459 372.607618 
L 454.819343 372.314385 
L 458.315227 372.798361 
L 461.81111 372.316527 
L 465.306994 372.800197 
L 468.802877 372.799662 
L 472.298761 372.317362 
L 475.794644 372.400439 
L 479.290528 372.80035 
L 482.786411 371.834771 
L 486.282295 372.800427 
L 489.778178 372.80035 
L 493.274062 372.800427 
L 496.769945 372.317522 
L 500.265829 372.800344 
L 503.761713 372.317599 
L 507.257596 372.800427 
L 510.75348 372.799279 
L 514.249363 372.799356 
L 517.745247 372.411378 
L 521.24113 372.610968 
L 524.737014 372.600433 
L 528.232897 372.801818 
L 531.728781 372.600433 
L 535.224664 372.117605 
L 538.720548 365.000585 
L 542.216431 352.401042 
L 545.712315 334.801572 
L 549.208199 334.401551 
L 552.704082 332.801632 
L 556.199966 333.00161 
L 559.695849 332.801632 
L 563.191733 332.801632 
L 566.687616 332.801632 
L 570.1835 332.801632 
L 573.679383 332.801632 
L 577.175267 333.001626 
L 580.67115 332.801632 
L 584.167034 332.801632 
L 587.662917 332.801632 
L 591.158801 332.801632 
L 594.654685 332.826994 
L 598.150568 332.801632 
L 601.646452 332.801632 
L 605.142335 332.801632 
L 608.638219 332.801632 
L 612.134102 332.801632 
L 615.629986 332.801632 
L 619.125869 332.801632 
L 622.621753 332.801632 
L 626.117636 332.803707 
L 629.61352 332.801632 
L 633.109404 333.001626 
L 636.605287 332.801632 
L 640.101171 332.801632 
L 643.597054 332.801632 
L 647.092938 332.801632 
L 650.588821 332.801632 
L 654.084705 333.001626 
L 657.580588 332.801632 
L 661.076472 332.801632 
L 664.572355 332.801632 
L 668.068239 332.801632 
L 671.564122 332.801632 
L 675.060006 333.001527 
L 678.55589 332.802175 
L 678.55589 332.801539 
L 678.55589 332.801539 
L 675.060006 331.636564 
L 671.564122 332.801632 
L 668.068239 332.801632 
L 664.572355 332.801632 
L 661.076472 332.801632 
L 657.580588 332.801632 
L 654.084705 331.635982 
L 650.588821 332.801632 
L 647.092938 332.801632 
L 643.597054 332.801632 
L 640.101171 332.801632 
L 636.605287 332.801632 
L 633.109404 331.635982 
L 629.61352 332.801632 
L 626.117636 332.801276 
L 622.621753 332.801632 
L 619.125869 332.801632 
L 615.629986 332.801632 
L 612.134102 332.801632 
L 608.638219 332.801632 
L 605.142335 332.801632 
L 601.646452 332.801632 
L 598.150568 332.801632 
L 594.654685 332.797281 
L 591.158801 332.801632 
L 587.662917 332.801632 
L 584.167034 332.801632 
L 580.67115 332.801632 
L 577.175267 331.635982 
L 573.679383 332.801632 
L 570.1835 332.801632 
L 566.687616 332.801632 
L 563.191733 332.801632 
L 559.695849 332.801632 
L 556.199966 331.636079 
L 552.704082 332.801632 
L 549.208199 323.476624 
L 545.712315 321.145129 
L 542.216431 218.567904 
L 538.720548 145.132381 
L 535.224664 100.354396 
L 531.728781 100.837224 
L 528.232897 99.672271 
L 524.737014 100.837224 
L 521.24113 100.837242 
L 517.745247 102.003613 
L 514.249363 99.677817 
L 510.75348 99.678263 
L 507.257596 99.671574 
L 503.761713 99.188746 
L 500.265829 99.672058 
L 496.769945 99.189192 
L 493.274062 99.671574 
L 489.778178 99.67202 
L 486.282295 99.671574 
L 482.786411 98.705917 
L 479.290528 99.67202 
L 475.794644 102.002874 
L 472.298761 99.190122 
L 468.802877 99.676033 
L 465.306994 99.672912 
L 461.81111 99.194989 
L 458.315227 99.683615 
L 454.819343 99.207476 
L 451.323459 100.856767 
L 447.827576 98.709039 
L 444.331692 99.672912 
L 440.835809 98.225806 
L 437.339925 95.52656 
L 433.844042 91.463941 
L 430.348158 85.188828 
L 426.852275 84.226739 
L 423.356391 69.895438 
L 419.860508 48.639579 
L 416.364624 28.038182 
L 412.868741 40.105304 
L 409.372857 42.704213 
L 405.876973 42.9042 
L 402.38109 42.704519 
L 398.885206 43.104354 
L 395.389323 43.10466 
L 391.893439 43.104507 
L 388.397556 42.504525 
L 384.901672 42.904423 
L 381.405789 42.904582 
L 377.909905 42.9042 
L 374.414022 42.898744 
L 370.918138 43.104047 
L 367.422255 42.904356 
L 363.926371 43.104117 
L 360.430487 42.90436 
L 356.934604 42.9039 
L 353.43872 43.103971 
L 349.942837 42.902038 
L 346.446953 43.104047 
L 342.95107 43.103741 
L 339.455186 42.903824 
L 335.959303 43.100678 
L 332.463419 43.103894 
L 328.967536 43.102684 
L 325.471652 42.898022 
L 321.975768 42.901582 
L 318.479885 42.902038 
L 314.984001 43.10466 
L 311.488118 43.10466 
L 307.992234 42.504601 
L 304.496351 42.704595 
L 301.000467 42.90404 
L 297.504584 42.503939 
L 294.0087 42.904582 
L 290.512817 42.90432 
L 287.016933 43.104583 
L 283.52105 43.104653 
L 280.025166 42.904233 
L 276.529282 42.70381 
L 273.033399 43.104354 
L 269.537515 42.904419 
L 266.041632 43.104277 
L 262.545748 42.903747 
L 259.049865 42.698683 
L 255.553981 43.103665 
L 252.058098 43.103665 
L 248.562214 43.103256 
L 245.066331 42.903365 
L 241.570447 42.704066 
L 238.074564 43.104736 
L 234.57868 42.704672 
L 231.082796 43.104583 
L 227.586913 42.904589 
L 224.091029 43.104354 
L 220.595146 42.898747 
L 217.099262 42.902327 
L 213.603379 42.90429 
L 210.107495 41.903901 
L 206.611612 42.704332 
L 203.115728 42.903914 
L 199.619845 42.898967 
L 196.123961 42.904353 
L 192.628078 42.304514 
L 189.132194 43.104201 
L 185.63631 42.69882 
L 182.140427 42.904436 
L 178.644543 42.304251 
L 175.14866 42.499292 
L 171.652776 42.704196 
L 168.156893 42.294261 
L 164.661009 42.103559 
L 161.165126 42.703574 
L 157.669242 42.304022 
L 154.173359 42.703468 
L 150.677475 41.702519 
L 147.181592 42.097374 
L 143.685708 41.095828 
L 140.189824 41.492459 
L 136.693941 41.897682 
L 133.198057 40.692376 
L 129.702174 40.249931 
L 126.20629 39.495973 
L 122.710407 38.683582 
L 119.214523 39.553593 
L 115.71864 35.482667 
L 112.222756 31.349139 
L 108.726873 34.78974 
L 105.230989 48.470473 
L 101.735105 91.062064 
L 98.239222 150.644053 
L 94.743338 190.264613 
L 91.247455 218.467812 
L 87.751571 257.212937 
L 84.255688 272.590734 
L 80.759804 296.099604 
z
" clip-path="url(#pb74a252060)" style="fill: #1f77b4; fill-opacity: 0.2"/>
   </g>
   <g id="matplotlib.axis_1">
    <g id="xtick_1">
     <g id="line2d_1">
      <path d="M 78.994383 390.04 
L 78.994383 10.8 
" clip-path="url(#pb74a252060)" style="fill: none; stroke: #b0b0b0; stroke-width: 0.8; stroke-linecap: square"/>
     </g>
     <g id="line2d_2">
      <defs>
       <path id="m184e4c76d6" d="M 0 0 
L 0 3.5 
" style="stroke: #000000; stroke-width: 0.8"/>
      </defs>
      <g>
       <use xlink:href="#m184e4c76d6" x="78.994383" y="390.04" style="stroke: #000000; stroke-width: 0.8"/>
      </g>
     </g>
     <g id="text_1">
      <!-- 0 -->
      <g transform="translate(75.813133 404.638438) scale(0.1 -0.1)">
       <defs>
        <path id="DejaVuSans-30" d="M 2034 4250 
Q 1547 4250 1301 3770 
Q 1056 3291 1056 2328 
Q 1056 1369 1301 889 
Q 1547 409 2034 409 
Q 2525 409 2770 889 
Q 3016 1369 3016 2328 
Q 3016 3291 2770 3770 
Q 2525 4250 2034 4250 
z
M 2034 4750 
Q 2819 4750 3233 4129 
Q 3647 3509 3647 2328 
Q 3647 1150 3233 529 
Q 2819 -91 2034 -91 
Q 1250 -91 836 529 
Q 422 1150 422 2328 
Q 422 3509 836 4129 
Q 1250 4750 2034 4750 
z
" transform="scale(0.015625)"/>
       </defs>
       <use xlink:href="#DejaVuSans-30"/>
      </g>
     </g>
    </g>
    <g id="xtick_2">
     <g id="line2d_3">
      <path d="M 166.391472 390.04 
L 166.391472 10.8 
" clip-path="url(#pb74a252060)" style="fill: none; stroke: #b0b0b0; stroke-width: 0.8; stroke-linecap: square"/>
     </g>
     <g id="line2d_4">
      <g>
       <use xlink:href="#m184e4c76d6" x="166.391472" y="390.04" style="stroke: #000000; stroke-width: 0.8"/>
      </g>
     </g>
     <g id="text_2">
      <!-- 5000 -->
      <g transform="translate(153.666472 404.638438) scale(0.1 -0.1)">
       <defs>
        <path id="DejaVuSans-35" d="M 691 4666 
L 3169 4666 
L 3169 4134 
L 1269 4134 
L 1269 2991 
Q 1406 3038 1543 3061 
Q 1681 3084 1819 3084 
Q 2600 3084 3056 2656 
Q 3513 2228 3513 1497 
Q 3513 744 3044 326 
Q 2575 -91 1722 -91 
Q 1428 -91 1123 -41 
Q 819 9 494 109 
L 494 744 
Q 775 591 1075 516 
Q 1375 441 1709 441 
Q 2250 441 2565 725 
Q 2881 1009 2881 1497 
Q 2881 1984 2565 2268 
Q 2250 2553 1709 2553 
Q 1456 2553 1204 2497 
Q 953 2441 691 2322 
L 691 4666 
z
" transform="scale(0.015625)"/>
       </defs>
       <use xlink:href="#DejaVuSans-35"/>
       <use xlink:href="#DejaVuSans-30" transform="translate(63.623047 0)"/>
       <use xlink:href="#DejaVuSans-30" transform="translate(127.246094 0)"/>
       <use xlink:href="#DejaVuSans-30" transform="translate(190.869141 0)"/>
      </g>
     </g>
    </g>
    <g id="xtick_3">
     <g id="line2d_5">
      <path d="M 253.78856 390.04 
L 253.78856 10.8 
" clip-path="url(#pb74a252060)" style="fill: none; stroke: #b0b0b0; stroke-width: 0.8; stroke-linecap: square"/>
     </g>
     <g id="line2d_6">
      <g>
       <use xlink:href="#m184e4c76d6" x="253.78856" y="390.04" style="stroke: #000000; stroke-width: 0.8"/>
      </g>
     </g>
     <g id="text_3">
      <!-- 10000 -->
      <g transform="translate(237.88231 404.638438) scale(0.1 -0.1)">
       <defs>
        <path id="DejaVuSans-31" d="M 794 531 
L 1825 531 
L 1825 4091 
L 703 3866 
L 703 4441 
L 1819 4666 
L 2450 4666 
L 2450 531 
L 3481 531 
L 3481 0 
L 794 0 
L 794 531 
z
" transform="scale(0.015625)"/>
       </defs>
       <use xlink:href="#DejaVuSans-31"/>
       <use xlink:href="#DejaVuSans-30" transform="translate(63.623047 0)"/>
       <use xlink:href="#DejaVuSans-30" transform="translate(127.246094 0)"/>
       <use xlink:href="#DejaVuSans-30" transform="translate(190.869141 0)"/>
       <use xlink:href="#DejaVuSans-30" transform="translate(254.492188 0)"/>
      </g>
     </g>
    </g>
    <g id="xtick_4">
     <g id="line2d_7">
      <path d="M 341.185649 390.04 
L 341.185649 10.8 
" clip-path="url(#pb74a252060)" style="fill: none; stroke: #b0b0b0; stroke-width: 0.8; stroke-linecap: square"/>
     </g>
     <g id="line2d_8">
      <g>
       <use xlink:href="#m184e4c76d6" x="341.185649" y="390.04" style="stroke: #000000; stroke-width: 0.8"/>
      </g>
     </g>
     <g id="text_4">
      <!-- 15000 -->
      <g transform="translate(325.279399 404.638438) scale(0.1 -0.1)">
       <use xlink:href="#DejaVuSans-31"/>
       <use xlink:href="#DejaVuSans-35" transform="translate(63.623047 0)"/>
       <use xlink:href="#DejaVuSans-30" transform="translate(127.246094 0)"/>
       <use xlink:href="#DejaVuSans-30" transform="translate(190.869141 0)"/>
       <use xlink:href="#DejaVuSans-30" transform="translate(254.492188 0)"/>
      </g>
     </g>
    </g>
    <g id="xtick_5">
     <g id="line2d_9">
      <path d="M 428.582737 390.04 
L 428.582737 10.8 
" clip-path="url(#pb74a252060)" style="fill: none; stroke: #b0b0b0; stroke-width: 0.8; stroke-linecap: square"/>
     </g>
     <g id="line2d_10">
      <g>
       <use xlink:href="#m184e4c76d6" x="428.582737" y="390.04" style="stroke: #000000; stroke-width: 0.8"/>
      </g>
     </g>
     <g id="text_5">
      <!-- 20000 -->
      <g transform="translate(412.676487 404.638438) scale(0.1 -0.1)">
       <defs>
        <path id="DejaVuSans-32" d="M 1228 531 
L 3431 531 
L 3431 0 
L 469 0 
L 469 531 
Q 828 903 1448 1529 
Q 2069 2156 2228 2338 
Q 2531 2678 2651 2914 
Q 2772 3150 2772 3378 
Q 2772 3750 2511 3984 
Q 2250 4219 1831 4219 
Q 1534 4219 1204 4116 
Q 875 4013 500 3803 
L 500 4441 
Q 881 4594 1212 4672 
Q 1544 4750 1819 4750 
Q 2544 4750 2975 4387 
Q 3406 4025 3406 3419 
Q 3406 3131 3298 2873 
Q 3191 2616 2906 2266 
Q 2828 2175 2409 1742 
Q 1991 1309 1228 531 
z
" transform="scale(0.015625)"/>
       </defs>
       <use xlink:href="#DejaVuSans-32"/>
       <use xlink:href="#DejaVuSans-30" transform="translate(63.623047 0)"/>
       <use xlink:href="#DejaVuSans-30" transform="translate(127.246094 0)"/>
       <use xlink:href="#DejaVuSans-30" transform="translate(190.869141 0)"/>
       <use xlink:href="#DejaVuSans-30" transform="translate(254.492188 0)"/>
      </g>
     </g>
    </g>
    <g id="xtick_6">
     <g id="line2d_11">
      <path d="M 515.979826 390.04 
L 515.979826 10.8 
" clip-path="url(#pb74a252060)" style="fill: none; stroke: #b0b0b0; stroke-width: 0.8; stroke-linecap: square"/>
     </g>
     <g id="line2d_12">
      <g>
       <use xlink:href="#m184e4c76d6" x="515.979826" y="390.04" style="stroke: #000000; stroke-width: 0.8"/>
      </g>
     </g>
     <g id="text_6">
      <!-- 25000 -->
      <g transform="translate(500.073576 404.638438) scale(0.1 -0.1)">
       <use xlink:href="#DejaVuSans-32"/>
       <use xlink:href="#DejaVuSans-35" transform="translate(63.623047 0)"/>
       <use xlink:href="#DejaVuSans-30" transform="translate(127.246094 0)"/>
       <use xlink:href="#DejaVuSans-30" transform="translate(190.869141 0)"/>
       <use xlink:href="#DejaVuSans-30" transform="translate(254.492188 0)"/>
      </g>
     </g>
    </g>
    <g id="xtick_7">
     <g id="line2d_13">
      <path d="M 603.376914 390.04 
L 603.376914 10.8 
" clip-path="url(#pb74a252060)" style="fill: none; stroke: #b0b0b0; stroke-width: 0.8; stroke-linecap: square"/>
     </g>
     <g id="line2d_14">
      <g>
       <use xlink:href="#m184e4c76d6" x="603.376914" y="390.04" style="stroke: #000000; stroke-width: 0.8"/>
      </g>
     </g>
     <g id="text_7">
      <!-- 30000 -->
      <g transform="translate(587.470664 404.638438) scale(0.1 -0.1)">
       <defs>
        <path id="DejaVuSans-33" d="M 2597 2516 
Q 3050 2419 3304 2112 
Q 3559 1806 3559 1356 
Q 3559 666 3084 287 
Q 2609 -91 1734 -91 
Q 1441 -91 1130 -33 
Q 819 25 488 141 
L 488 750 
Q 750 597 1062 519 
Q 1375 441 1716 441 
Q 2309 441 2620 675 
Q 2931 909 2931 1356 
Q 2931 1769 2642 2001 
Q 2353 2234 1838 2234 
L 1294 2234 
L 1294 2753 
L 1863 2753 
Q 2328 2753 2575 2939 
Q 2822 3125 2822 3475 
Q 2822 3834 2567 4026 
Q 2313 4219 1838 4219 
Q 1578 4219 1281 4162 
Q 984 4106 628 3988 
L 628 4550 
Q 988 4650 1302 4700 
Q 1616 4750 1894 4750 
Q 2613 4750 3031 4423 
Q 3450 4097 3450 3541 
Q 3450 3153 3228 2886 
Q 3006 2619 2597 2516 
z
" transform="scale(0.015625)"/>
       </defs>
       <use xlink:href="#DejaVuSans-33"/>
       <use xlink:href="#DejaVuSans-30" transform="translate(63.623047 0)"/>
       <use xlink:href="#DejaVuSans-30" transform="translate(127.246094 0)"/>
       <use xlink:href="#DejaVuSans-30" transform="translate(190.869141 0)"/>
       <use xlink:href="#DejaVuSans-30" transform="translate(254.492188 0)"/>
      </g>
     </g>
    </g>
    <g id="xtick_8">
     <g id="line2d_15">
      <path d="M 690.774002 390.04 
L 690.774002 10.8 
" clip-path="url(#pb74a252060)" style="fill: none; stroke: #b0b0b0; stroke-width: 0.8; stroke-linecap: square"/>
     </g>
     <g id="line2d_16">
      <g>
       <use xlink:href="#m184e4c76d6" x="690.774002" y="390.04" style="stroke: #000000; stroke-width: 0.8"/>
      </g>
     </g>
     <g id="text_8">
      <!-- 35000 -->
      <g transform="translate(674.867752 404.638438) scale(0.1 -0.1)">
       <use xlink:href="#DejaVuSans-33"/>
       <use xlink:href="#DejaVuSans-35" transform="translate(63.623047 0)"/>
       <use xlink:href="#DejaVuSans-30" transform="translate(127.246094 0)"/>
       <use xlink:href="#DejaVuSans-30" transform="translate(190.869141 0)"/>
       <use xlink:href="#DejaVuSans-30" transform="translate(254.492188 0)"/>
      </g>
     </g>
    </g>
    <g id="text_9">
     <!-- Episodes -->
     <g transform="translate(357.415659 418.316562) scale(0.1 -0.1)">
      <defs>
       <path id="DejaVuSans-45" d="M 628 4666 
L 3578 4666 
L 3578 4134 
L 1259 4134 
L 1259 2753 
L 3481 2753 
L 3481 2222 
L 1259 2222 
L 1259 531 
L 3634 531 
L 3634 0 
L 628 0 
L 628 4666 
z
" transform="scale(0.015625)"/>
       <path id="DejaVuSans-70" d="M 1159 525 
L 1159 -1331 
L 581 -1331 
L 581 3500 
L 1159 3500 
L 1159 2969 
Q 1341 3281 1617 3432 
Q 1894 3584 2278 3584 
Q 2916 3584 3314 3078 
Q 3713 2572 3713 1747 
Q 3713 922 3314 415 
Q 2916 -91 2278 -91 
Q 1894 -91 1617 61 
Q 1341 213 1159 525 
z
M 3116 1747 
Q 3116 2381 2855 2742 
Q 2594 3103 2138 3103 
Q 1681 3103 1420 2742 
Q 1159 2381 1159 1747 
Q 1159 1113 1420 752 
Q 1681 391 2138 391 
Q 2594 391 2855 752 
Q 3116 1113 3116 1747 
z
" transform="scale(0.015625)"/>
       <path id="DejaVuSans-69" d="M 603 3500 
L 1178 3500 
L 1178 0 
L 603 0 
L 603 3500 
z
M 603 4863 
L 1178 4863 
L 1178 4134 
L 603 4134 
L 603 4863 
z
" transform="scale(0.015625)"/>
       <path id="DejaVuSans-73" d="M 2834 3397 
L 2834 2853 
Q 2591 2978 2328 3040 
Q 2066 3103 1784 3103 
Q 1356 3103 1142 2972 
Q 928 2841 928 2578 
Q 928 2378 1081 2264 
Q 1234 2150 1697 2047 
L 1894 2003 
Q 2506 1872 2764 1633 
Q 3022 1394 3022 966 
Q 3022 478 2636 193 
Q 2250 -91 1575 -91 
Q 1294 -91 989 -36 
Q 684 19 347 128 
L 347 722 
Q 666 556 975 473 
Q 1284 391 1588 391 
Q 1994 391 2212 530 
Q 2431 669 2431 922 
Q 2431 1156 2273 1281 
Q 2116 1406 1581 1522 
L 1381 1569 
Q 847 1681 609 1914 
Q 372 2147 372 2553 
Q 372 3047 722 3315 
Q 1072 3584 1716 3584 
Q 2034 3584 2315 3537 
Q 2597 3491 2834 3397 
z
" transform="scale(0.015625)"/>
       <path id="DejaVuSans-6f" d="M 1959 3097 
Q 1497 3097 1228 2736 
Q 959 2375 959 1747 
Q 959 1119 1226 758 
Q 1494 397 1959 397 
Q 2419 397 2687 759 
Q 2956 1122 2956 1747 
Q 2956 2369 2687 2733 
Q 2419 3097 1959 3097 
z
M 1959 3584 
Q 2709 3584 3137 3096 
Q 3566 2609 3566 1747 
Q 3566 888 3137 398 
Q 2709 -91 1959 -91 
Q 1206 -91 779 398 
Q 353 888 353 1747 
Q 353 2609 779 3096 
Q 1206 3584 1959 3584 
z
" transform="scale(0.015625)"/>
       <path id="DejaVuSans-64" d="M 2906 2969 
L 2906 4863 
L 3481 4863 
L 3481 0 
L 2906 0 
L 2906 525 
Q 2725 213 2448 61 
Q 2172 -91 1784 -91 
Q 1150 -91 751 415 
Q 353 922 353 1747 
Q 353 2572 751 3078 
Q 1150 3584 1784 3584 
Q 2172 3584 2448 3432 
Q 2725 3281 2906 2969 
z
M 947 1747 
Q 947 1113 1208 752 
Q 1469 391 1925 391 
Q 2381 391 2643 752 
Q 2906 1113 2906 1747 
Q 2906 2381 2643 2742 
Q 2381 3103 1925 3103 
Q 1469 3103 1208 2742 
Q 947 2381 947 1747 
z
" transform="scale(0.015625)"/>
       <path id="DejaVuSans-65" d="M 3597 1894 
L 3597 1613 
L 953 1613 
Q 991 1019 1311 708 
Q 1631 397 2203 397 
Q 2534 397 2845 478 
Q 3156 559 3463 722 
L 3463 178 
Q 3153 47 2828 -22 
Q 2503 -91 2169 -91 
Q 1331 -91 842 396 
Q 353 884 353 1716 
Q 353 2575 817 3079 
Q 1281 3584 2069 3584 
Q 2775 3584 3186 3129 
Q 3597 2675 3597 1894 
z
M 3022 2063 
Q 3016 2534 2758 2815 
Q 2500 3097 2075 3097 
Q 1594 3097 1305 2825 
Q 1016 2553 972 2059 
L 3022 2063 
z
" transform="scale(0.015625)"/>
      </defs>
      <use xlink:href="#DejaVuSans-45"/>
      <use xlink:href="#DejaVuSans-70" transform="translate(63.183594 0)"/>
      <use xlink:href="#DejaVuSans-69" transform="translate(126.660156 0)"/>
      <use xlink:href="#DejaVuSans-73" transform="translate(154.443359 0)"/>
      <use xlink:href="#DejaVuSans-6f" transform="translate(206.542969 0)"/>
      <use xlink:href="#DejaVuSans-64" transform="translate(267.724609 0)"/>
      <use xlink:href="#DejaVuSans-65" transform="translate(331.201172 0)"/>
      <use xlink:href="#DejaVuSans-73" transform="translate(392.724609 0)"/>
     </g>
    </g>
   </g>
   <g id="matplotlib.axis_2">
    <g id="ytick_1">
     <g id="line2d_17">
      <path d="M 50.87 348.703953 
L 708.445694 348.703953 
" clip-path="url(#pb74a252060)" style="fill: none; stroke: #b0b0b0; stroke-width: 0.8; stroke-linecap: square"/>
     </g>
     <g id="line2d_18">
      <defs>
       <path id="m5cf7fb389e" d="M 0 0 
L -3.5 0 
" style="stroke: #000000; stroke-width: 0.8"/>
      </defs>
      <g>
       <use xlink:href="#m5cf7fb389e" x="50.87" y="348.703953" style="stroke: #000000; stroke-width: 0.8"/>
      </g>
     </g>
     <g id="text_10">
      <!-- 0 -->
      <g transform="translate(37.5075 352.503171) scale(0.1 -0.1)">
       <use xlink:href="#DejaVuSans-30"/>
      </g>
     </g>
    </g>
    <g id="ytick_2">
     <g id="line2d_19">
      <path d="M 50.87 290.877335 
L 708.445694 290.877335 
" clip-path="url(#pb74a252060)" style="fill: none; stroke: #b0b0b0; stroke-width: 0.8; stroke-linecap: square"/>
     </g>
     <g id="line2d_20">
      <g>
       <use xlink:href="#m5cf7fb389e" x="50.87" y="290.877335" style="stroke: #000000; stroke-width: 0.8"/>
      </g>
     </g>
     <g id="text_11">
      <!-- 20 -->
      <g transform="translate(31.145 294.676554) scale(0.1 -0.1)">
       <use xlink:href="#DejaVuSans-32"/>
       <use xlink:href="#DejaVuSans-30" transform="translate(63.623047 0)"/>
      </g>
     </g>
    </g>
    <g id="ytick_3">
     <g id="line2d_21">
      <path d="M 50.87 233.050718 
L 708.445694 233.050718 
" clip-path="url(#pb74a252060)" style="fill: none; stroke: #b0b0b0; stroke-width: 0.8; stroke-linecap: square"/>
     </g>
     <g id="line2d_22">
      <g>
       <use xlink:href="#m5cf7fb389e" x="50.87" y="233.050718" style="stroke: #000000; stroke-width: 0.8"/>
      </g>
     </g>
     <g id="text_12">
      <!-- 40 -->
      <g transform="translate(31.145 236.849937) scale(0.1 -0.1)">
       <defs>
        <path id="DejaVuSans-34" d="M 2419 4116 
L 825 1625 
L 2419 1625 
L 2419 4116 
z
M 2253 4666 
L 3047 4666 
L 3047 1625 
L 3713 1625 
L 3713 1100 
L 3047 1100 
L 3047 0 
L 2419 0 
L 2419 1100 
L 313 1100 
L 313 1709 
L 2253 4666 
z
" transform="scale(0.015625)"/>
       </defs>
       <use xlink:href="#DejaVuSans-34"/>
       <use xlink:href="#DejaVuSans-30" transform="translate(63.623047 0)"/>
      </g>
     </g>
    </g>
    <g id="ytick_4">
     <g id="line2d_23">
      <path d="M 50.87 175.2241 
L 708.445694 175.2241 
" clip-path="url(#pb74a252060)" style="fill: none; stroke: #b0b0b0; stroke-width: 0.8; stroke-linecap: square"/>
     </g>
     <g id="line2d_24">
      <g>
       <use xlink:href="#m5cf7fb389e" x="50.87" y="175.2241" style="stroke: #000000; stroke-width: 0.8"/>
      </g>
     </g>
     <g id="text_13">
      <!-- 60 -->
      <g transform="translate(31.145 179.023319) scale(0.1 -0.1)">
       <defs>
        <path id="DejaVuSans-36" d="M 2113 2584 
Q 1688 2584 1439 2293 
Q 1191 2003 1191 1497 
Q 1191 994 1439 701 
Q 1688 409 2113 409 
Q 2538 409 2786 701 
Q 3034 994 3034 1497 
Q 3034 2003 2786 2293 
Q 2538 2584 2113 2584 
z
M 3366 4563 
L 3366 3988 
Q 3128 4100 2886 4159 
Q 2644 4219 2406 4219 
Q 1781 4219 1451 3797 
Q 1122 3375 1075 2522 
Q 1259 2794 1537 2939 
Q 1816 3084 2150 3084 
Q 2853 3084 3261 2657 
Q 3669 2231 3669 1497 
Q 3669 778 3244 343 
Q 2819 -91 2113 -91 
Q 1303 -91 875 529 
Q 447 1150 447 2328 
Q 447 3434 972 4092 
Q 1497 4750 2381 4750 
Q 2619 4750 2861 4703 
Q 3103 4656 3366 4563 
z
" transform="scale(0.015625)"/>
       </defs>
       <use xlink:href="#DejaVuSans-36"/>
       <use xlink:href="#DejaVuSans-30" transform="translate(63.623047 0)"/>
      </g>
     </g>
    </g>
    <g id="ytick_5">
     <g id="line2d_25">
      <path d="M 50.87 117.397483 
L 708.445694 117.397483 
" clip-path="url(#pb74a252060)" style="fill: none; stroke: #b0b0b0; stroke-width: 0.8; stroke-linecap: square"/>
     </g>
     <g id="line2d_26">
      <g>
       <use xlink:href="#m5cf7fb389e" x="50.87" y="117.397483" style="stroke: #000000; stroke-width: 0.8"/>
      </g>
     </g>
     <g id="text_14">
      <!-- 80 -->
      <g transform="translate(31.145 121.196702) scale(0.1 -0.1)">
       <defs>
        <path id="DejaVuSans-38" d="M 2034 2216 
Q 1584 2216 1326 1975 
Q 1069 1734 1069 1313 
Q 1069 891 1326 650 
Q 1584 409 2034 409 
Q 2484 409 2743 651 
Q 3003 894 3003 1313 
Q 3003 1734 2745 1975 
Q 2488 2216 2034 2216 
z
M 1403 2484 
Q 997 2584 770 2862 
Q 544 3141 544 3541 
Q 544 4100 942 4425 
Q 1341 4750 2034 4750 
Q 2731 4750 3128 4425 
Q 3525 4100 3525 3541 
Q 3525 3141 3298 2862 
Q 3072 2584 2669 2484 
Q 3125 2378 3379 2068 
Q 3634 1759 3634 1313 
Q 3634 634 3220 271 
Q 2806 -91 2034 -91 
Q 1263 -91 848 271 
Q 434 634 434 1313 
Q 434 1759 690 2068 
Q 947 2378 1403 2484 
z
M 1172 3481 
Q 1172 3119 1398 2916 
Q 1625 2713 2034 2713 
Q 2441 2713 2670 2916 
Q 2900 3119 2900 3481 
Q 2900 3844 2670 4047 
Q 2441 4250 2034 4250 
Q 1625 4250 1398 4047 
Q 1172 3844 1172 3481 
z
" transform="scale(0.015625)"/>
       </defs>
       <use xlink:href="#DejaVuSans-38"/>
       <use xlink:href="#DejaVuSans-30" transform="translate(63.623047 0)"/>
      </g>
     </g>
    </g>
    <g id="ytick_6">
     <g id="line2d_27">
      <path d="M 50.87 59.570865 
L 708.445694 59.570865 
" clip-path="url(#pb74a252060)" style="fill: none; stroke: #b0b0b0; stroke-width: 0.8; stroke-linecap: square"/>
     </g>
     <g id="line2d_28">
      <g>
       <use xlink:href="#m5cf7fb389e" x="50.87" y="59.570865" style="stroke: #000000; stroke-width: 0.8"/>
      </g>
     </g>
     <g id="text_15">
      <!-- 100 -->
      <g transform="translate(24.7825 63.370084) scale(0.1 -0.1)">
       <use xlink:href="#DejaVuSans-31"/>
       <use xlink:href="#DejaVuSans-30" transform="translate(63.623047 0)"/>
       <use xlink:href="#DejaVuSans-30" transform="translate(127.246094 0)"/>
      </g>
     </g>
    </g>
    <g id="text_16">
     <!-- Reward -->
     <g transform="translate(18.702813 219.041094) rotate(-90) scale(0.1 -0.1)">
      <defs>
       <path id="DejaVuSans-52" d="M 2841 2188 
Q 3044 2119 3236 1894 
Q 3428 1669 3622 1275 
L 4263 0 
L 3584 0 
L 2988 1197 
Q 2756 1666 2539 1819 
Q 2322 1972 1947 1972 
L 1259 1972 
L 1259 0 
L 628 0 
L 628 4666 
L 2053 4666 
Q 2853 4666 3247 4331 
Q 3641 3997 3641 3322 
Q 3641 2881 3436 2590 
Q 3231 2300 2841 2188 
z
M 1259 4147 
L 1259 2491 
L 2053 2491 
Q 2509 2491 2742 2702 
Q 2975 2913 2975 3322 
Q 2975 3731 2742 3939 
Q 2509 4147 2053 4147 
L 1259 4147 
z
" transform="scale(0.015625)"/>
       <path id="DejaVuSans-77" d="M 269 3500 
L 844 3500 
L 1563 769 
L 2278 3500 
L 2956 3500 
L 3675 769 
L 4391 3500 
L 4966 3500 
L 4050 0 
L 3372 0 
L 2619 2869 
L 1863 0 
L 1184 0 
L 269 3500 
z
" transform="scale(0.015625)"/>
       <path id="DejaVuSans-61" d="M 2194 1759 
Q 1497 1759 1228 1600 
Q 959 1441 959 1056 
Q 959 750 1161 570 
Q 1363 391 1709 391 
Q 2188 391 2477 730 
Q 2766 1069 2766 1631 
L 2766 1759 
L 2194 1759 
z
M 3341 1997 
L 3341 0 
L 2766 0 
L 2766 531 
Q 2569 213 2275 61 
Q 1981 -91 1556 -91 
Q 1019 -91 701 211 
Q 384 513 384 1019 
Q 384 1609 779 1909 
Q 1175 2209 1959 2209 
L 2766 2209 
L 2766 2266 
Q 2766 2663 2505 2880 
Q 2244 3097 1772 3097 
Q 1472 3097 1187 3025 
Q 903 2953 641 2809 
L 641 3341 
Q 956 3463 1253 3523 
Q 1550 3584 1831 3584 
Q 2591 3584 2966 3190 
Q 3341 2797 3341 1997 
z
" transform="scale(0.015625)"/>
       <path id="DejaVuSans-72" d="M 2631 2963 
Q 2534 3019 2420 3045 
Q 2306 3072 2169 3072 
Q 1681 3072 1420 2755 
Q 1159 2438 1159 1844 
L 1159 0 
L 581 0 
L 581 3500 
L 1159 3500 
L 1159 2956 
Q 1341 3275 1631 3429 
Q 1922 3584 2338 3584 
Q 2397 3584 2469 3576 
Q 2541 3569 2628 3553 
L 2631 2963 
z
" transform="scale(0.015625)"/>
      </defs>
      <use xlink:href="#DejaVuSans-52"/>
      <use xlink:href="#DejaVuSans-65" transform="translate(64.982422 0)"/>
      <use xlink:href="#DejaVuSans-77" transform="translate(126.505859 0)"/>
      <use xlink:href="#DejaVuSans-61" transform="translate(208.292969 0)"/>
      <use xlink:href="#DejaVuSans-72" transform="translate(269.572266 0)"/>
      <use xlink:href="#DejaVuSans-64" transform="translate(308.935547 0)"/>
     </g>
    </g>
   </g>
   <g id="line2d_29">
    <path d="M 80.759804 318.817815 
L 84.255688 309.634121 
L 87.751571 302.214436 
L 94.743338 264.842972 
L 98.239222 235.971644 
L 101.735105 195.971246 
L 105.230989 136.576018 
L 108.726873 101.49326 
L 115.71864 61.614032 
L 119.214523 56.698039 
L 122.710407 53.81686 
L 126.20629 51.841053 
L 129.702174 53.316507 
L 133.198057 48.933474 
L 136.693941 46.019848 
L 143.685708 47.954751 
L 147.181592 45.536723 
L 150.677475 46.491264 
L 154.173359 44.074183 
L 157.669242 45.037832 
L 161.165126 44.073228 
L 164.661009 45.521792 
L 168.156893 45.062247 
L 171.652776 44.071726 
L 178.644543 45.037278 
L 182.140427 43.588303 
L 185.63631 44.084705 
L 189.132194 43.106029 
L 192.628078 45.036643 
L 196.123961 43.588504 
L 203.115728 43.589564 
L 206.611612 44.071396 
L 210.107495 46.003809 
L 213.603379 43.588657 
L 220.595146 43.602985 
L 224.091029 43.10566 
L 227.586913 43.587934 
L 231.082796 43.105106 
L 234.57868 44.070577 
L 238.074564 43.104736 
L 241.570447 44.072039 
L 248.562214 43.10831 
L 255.553981 43.107322 
L 259.049865 44.085982 
L 266.041632 43.105844 
L 269.537515 43.588343 
L 273.033399 43.10566 
L 276.529282 44.072657 
L 283.52105 43.104937 
L 287.016933 43.105106 
L 290.512817 43.588584 
L 294.0087 43.58795 
L 297.504584 44.555188 
L 301.000467 43.589259 
L 307.992234 44.55359 
L 311.488118 43.104921 
L 314.984001 43.104921 
L 318.479885 43.594094 
L 325.471652 43.603788 
L 328.967536 43.112213 
L 335.959303 43.114535 
L 339.455186 43.589781 
L 342.95107 43.107138 
L 346.446953 43.106399 
L 349.942837 43.594094 
L 353.43872 43.106583 
L 356.934604 43.589596 
L 360.430487 43.588488 
L 363.926371 43.10623 
L 367.422255 43.588496 
L 370.918138 43.106399 
L 374.414022 43.602045 
L 384.901672 43.588335 
L 388.397556 44.553775 
L 391.893439 43.10529 
L 398.885206 43.10566 
L 402.38109 44.070947 
L 405.876973 43.588873 
L 409.372857 44.071686 
L 412.868741 50.347897 
L 416.364624 86.077575 
L 419.860508 171.543123 
L 423.356391 200.993239 
L 426.852275 220.787901 
L 430.348158 221.752079 
L 433.844042 228.028106 
L 440.835809 234.788648 
L 444.331692 236.236554 
L 447.827576 235.271637 
L 451.323459 236.732193 
L 454.819343 235.760931 
L 458.315227 236.240988 
L 461.81111 235.755758 
L 465.306994 236.236554 
L 468.802877 236.237848 
L 472.298761 235.753742 
L 475.794644 237.201657 
L 482.786411 235.270344 
L 486.282295 236.236 
L 493.274062 236.236 
L 496.769945 235.753357 
L 500.265829 236.236201 
L 503.761713 235.753172 
L 507.257596 236.236 
L 514.249363 236.238586 
L 517.745247 237.207496 
L 521.24113 236.724105 
L 524.737014 236.718828 
L 528.232897 236.237044 
L 531.728781 236.718828 
L 535.224664 236.236 
L 538.720548 255.066483 
L 542.216431 285.484473 
L 545.712315 327.973351 
L 549.208199 328.939087 
L 552.704082 332.801632 
L 556.199966 332.318844 
L 559.695849 332.801632 
L 573.679383 332.801632 
L 577.175267 332.318804 
L 580.67115 332.801632 
L 629.61352 332.801632 
L 633.109404 332.318804 
L 636.605287 332.801632 
L 650.588821 332.801632 
L 654.084705 332.318804 
L 657.580588 332.801632 
L 671.564122 332.801632 
L 675.060006 332.319045 
L 678.55589 332.801857 
L 678.55589 332.801857 
" clip-path="url(#pb74a252060)" style="fill: none; stroke: #1f77b4; stroke-width: 1.5; stroke-linecap: square"/>
   </g>
   <g id="patch_3">
    <path d="M 50.87 390.04 
L 50.87 10.8 
" style="fill: none; stroke: #000000; stroke-width: 0.8; stroke-linejoin: miter; stroke-linecap: square"/>
   </g>
   <g id="patch_4">
    <path d="M 708.445694 390.04 
L 708.445694 10.8 
" style="fill: none; stroke: #000000; stroke-width: 0.8; stroke-linejoin: miter; stroke-linecap: square"/>
   </g>
   <g id="patch_5">
    <path d="M 50.87 390.04 
L 708.445694 390.04 
" style="fill: none; stroke: #000000; stroke-width: 0.8; stroke-linejoin: miter; stroke-linecap: square"/>
   </g>
   <g id="patch_6">
    <path d="M 50.87 10.8 
L 708.445694 10.8 
" style="fill: none; stroke: #000000; stroke-width: 0.8; stroke-linejoin: miter; stroke-linecap: square"/>
   </g>
  </g>
 </g>
 <defs>
  <clipPath id="pb74a252060">
   <rect x="50.87" y="10.8" width="657.575694" height="379.24"/>
  </clipPath>
 </defs>
</svg>
