<?xml version="1.0" encoding="utf-8" standalone="no"?>
<!DOCTYPE svg PUBLIC "-//W3C//DTD SVG 1.1//EN"
  "http://www.w3.org/Graphics/SVG/1.1/DTD/svg11.dtd">
<svg xmlns:xlink="http://www.w3.org/1999/xlink" width="720pt" height="432pt" viewBox="0 0 720 432" xmlns="http://www.w3.org/2000/svg" version="1.1">
 <metadata>
  <rdf:RDF xmlns:dc="http://purl.org/dc/elements/1.1/" xmlns:cc="http://creativecommons.org/ns#" xmlns:rdf="http://www.w3.org/1999/02/22-rdf-syntax-ns#">
   <cc:Work>
    <dc:type rdf:resource="http://purl.org/dc/dcmitype/StillImage"/>
    <dc:date>2025-04-16T01:28:15.032814</dc:date>
    <dc:format>image/svg+xml</dc:format>
    <dc:creator>
     <cc:Agent>
      <dc:title>Matplotlib v3.10.0, https://matplotlib.org/</dc:title>
     </cc:Agent>
    </dc:creator>
   </cc:Work>
  </rdf:RDF>
 </metadata>
 <defs>
  <style type="text/css">*{stroke-linejoin: round; stroke-linecap: butt}</style>
 </defs>
 <g id="figure_1">
  <g id="patch_1">
   <path d="M 0 432 
L 720 432 
L 720 0 
L 0 0 
z
" style="fill: #ffffff"/>
  </g>
  <g id="axes_1">
   <g id="patch_2">
    <path d="M 38.27 390.04 
L 708.445694 390.04 
L 708.445694 10.8 
L 38.27 10.8 
z
" style="fill: #ffffff"/>
   </g>
   <g id="FillBetweenPolyCollection_1">
    <path d="M 68.732532 28.038182 
L 68.732532 241.709604 
L 72.295401 236.610661 
L 75.85827 238.79614 
L 79.421139 249.933629 
L 82.984008 242.74303 
L 86.546877 259.360612 
L 90.109747 260.829798 
L 93.672616 265.439413 
L 97.235485 275.500692 
L 100.798354 277.391951 
L 104.361223 281.245624 
L 107.924093 286.170938 
L 111.486962 289.281012 
L 115.049831 291.040351 
L 118.6127 291.048711 
L 122.175569 289.336443 
L 125.738439 288.246563 
L 129.301308 287.635192 
L 132.864177 288.358342 
L 136.427046 287.214087 
L 139.989915 287.097927 
L 143.552784 286.712852 
L 147.115654 286.390979 
L 150.678523 286.6482 
L 154.241392 287.196434 
L 157.804261 286.382878 
L 161.36713 285.988252 
L 164.93 286.22782 
L 168.492869 286.433597 
L 172.055738 285.731031 
L 175.618607 286.082314 
L 179.181476 285.885364 
L 182.744345 285.927981 
L 186.307215 286.133758 
L 189.870084 285.988252 
L 193.432953 286.288091 
L 196.995822 285.833919 
L 200.558691 287.033275 
L 204.121561 286.082314 
L 207.68443 287.368419 
L 211.247299 286.296917 
L 214.810168 285.782475 
L 218.373037 285.927981 
L 221.935907 285.628142 
L 225.498776 285.876537 
L 229.061645 285.525254 
L 232.624514 286.288091 
L 236.187383 286.751089 
L 239.750252 286.502694 
L 243.313122 286.245473 
L 246.875991 286.245473 
L 250.43886 286.549693 
L 254.001729 286.296917 
L 257.564598 285.833919 
L 261.127468 285.782475 
L 264.690337 285.782475 
L 268.253206 286.185202 
L 271.816075 286.442423 
L 275.378944 285.628142 
L 278.941813 285.628142 
L 282.504683 286.185202 
L 286.067552 285.979426 
L 289.630421 286.442423 
L 293.19329 286.142585 
L 296.756159 285.927981 
L 300.319029 286.527659 
L 303.881898 285.576698 
L 307.444767 285.576698 
L 311.007636 286.09114 
L 314.570505 288.088638 
L 318.133375 287.120025 
L 321.696244 286.983345 
L 325.259113 286.09114 
L 328.821982 288.303242 
L 332.384851 286.442423 
L 335.94772 286.194029 
L 339.51059 285.988252 
L 343.073459 286.142585 
L 346.636328 286.039696 
L 350.199197 286.142585 
L 353.762066 286.082314 
L 357.324936 285.988252 
L 360.887805 285.885364 
L 364.450674 285.988252 
L 368.013543 286.142585 
L 371.576412 286.236647 
L 375.139281 285.979426 
L 378.702151 286.133758 
L 382.26502 286.03087 
L 385.827889 285.679587 
L 389.390758 285.576698 
L 392.953627 285.782475 
L 396.516497 285.979426 
L 400.079366 286.236647 
L 403.642235 286.485041 
L 407.205104 289.937538 
L 410.767973 311.680205 
L 414.330843 351.121874 
L 417.893712 360.466275 
L 421.456581 366.979893 
L 425.01945 366.816734 
L 428.582319 368.272585 
L 432.145188 368.966325 
L 435.708058 370.27295 
L 439.270927 370.486828 
L 442.833796 370.444211 
L 446.396665 372.801818 
L 449.959534 372.368956 
L 453.522404 371.72149 
L 457.085273 370.928517 
L 460.648142 370.486828 
L 464.211011 370.846938 
L 467.77388 370.414075 
L 471.336749 370.281051 
L 474.899619 370.38394 
L 478.462488 370.084101 
L 482.025357 370.332496 
L 485.588226 370.38394 
L 489.151095 370.332496 
L 492.713965 370.259743 
L 496.276834 370.435384 
L 499.839703 370.208298 
L 503.402572 370.332496 
L 506.965441 371.104159 
L 510.528311 371.052715 
L 514.09118 370.744049 
L 517.654049 370.744049 
L 521.216918 370.435384 
L 524.779787 370.441045 
L 528.342656 370.281051 
L 531.905526 370.156854 
L 535.468395 370.332496 
L 539.031264 367.040066 
L 542.594133 361.895644 
L 546.157002 361.947088 
L 549.719872 360.969648 
L 553.282741 360.558094 
L 556.84561 360.197985 
L 560.408479 360.300873 
L 563.971348 360.197985 
L 567.534217 360.095096 
L 571.097087 360.095096 
L 574.659956 361.072536 
L 578.222825 360.866759 
L 581.785694 360.815315 
L 585.348563 360.403762 
L 588.911433 360.14654 
L 592.474302 360.403762 
L 596.037171 360.095096 
L 599.60004 360.095096 
L 603.162909 360.043652 
L 606.725779 360.095096 
L 610.288648 360.609538 
L 613.851517 360.300873 
L 617.414386 360.300873 
L 620.977255 360.14654 
L 624.540124 360.403762 
L 628.102994 360.043652 
L 631.665863 360.14654 
L 635.228732 360.043652 
L 638.791601 360.095096 
L 642.35447 360.197985 
L 645.91734 360.14654 
L 649.480209 360.249429 
L 653.043078 360.095096 
L 656.605947 360.043652 
L 660.168816 360.043652 
L 663.731686 360.095096 
L 667.294555 360.043652 
L 670.857424 360.249429 
L 674.420293 360.609538 
L 677.983162 360.50665 
L 677.983162 357.345102 
L 677.983162 357.345102 
L 674.420293 356.745424 
L 670.857424 358.844296 
L 667.294555 360.043652 
L 663.731686 359.743813 
L 660.168816 360.043652 
L 656.605947 360.043652 
L 653.043078 359.743813 
L 649.480209 358.844296 
L 645.91734 359.443974 
L 642.35447 359.144135 
L 638.791601 359.743813 
L 635.228732 360.043652 
L 631.665863 359.443974 
L 628.102994 360.043652 
L 624.540124 357.94478 
L 620.977255 359.443974 
L 617.414386 358.544458 
L 613.851517 358.544458 
L 610.288648 356.745424 
L 606.725779 359.743813 
L 603.162909 360.043652 
L 599.60004 359.743813 
L 596.037171 359.743813 
L 592.474302 357.94478 
L 588.911433 359.443974 
L 585.348563 357.94478 
L 581.785694 355.546069 
L 578.222825 355.24623 
L 574.659956 354.046874 
L 571.097087 359.743813 
L 567.534217 359.743813 
L 563.971348 359.144135 
L 560.408479 358.544458 
L 556.84561 359.144135 
L 553.282741 357.045263 
L 549.719872 354.646552 
L 546.157002 348.949613 
L 542.594133 349.249452 
L 539.031264 319.265565 
L 535.468395 300.075876 
L 531.905526 300.251518 
L 528.342656 300.375715 
L 524.779787 298.228564 
L 521.216918 299.476199 
L 517.654049 297.677165 
L 514.09118 297.677165 
L 510.528311 295.878132 
L 506.965441 295.578293 
L 503.402572 300.075876 
L 499.839703 299.951679 
L 496.276834 299.476199 
L 492.713965 299.65184 
L 489.151095 300.075876 
L 485.588226 299.776037 
L 482.025357 300.075876 
L 478.462488 299.827482 
L 474.899619 299.776037 
L 471.336749 300.375715 
L 467.77388 298.752323 
L 464.211011 297.077488 
L 460.648142 299.17636 
L 457.085273 295.753935 
L 453.522404 291.980227 
L 449.959534 287.358446 
L 446.396665 285.68361 
L 442.833796 297.728609 
L 439.270927 299.17636 
L 435.708058 297.651475 
L 432.145188 298.709706 
L 428.582319 297.664683 
L 425.01945 294.897825 
L 421.456581 292.250719 
L 417.893712 286.841393 
L 414.330843 277.80459 
L 410.767973 279.738665 
L 407.205104 283.100128 
L 403.642235 283.323493 
L 400.079366 283.075099 
L 396.516497 284.574293 
L 392.953627 284.02606 
L 389.390758 285.225415 
L 385.827889 284.625737 
L 382.26502 284.274454 
L 378.702151 283.674777 
L 375.139281 284.574293 
L 371.576412 283.075099 
L 368.013543 281.927187 
L 364.450674 282.826704 
L 360.887805 283.426382 
L 357.324936 282.826704 
L 353.762066 283.974615 
L 350.199197 281.927187 
L 346.636328 282.526865 
L 343.073459 281.927187 
L 339.51059 282.826704 
L 335.94772 281.627349 
L 332.384851 281.875743 
L 328.821982 269.333955 
L 325.259113 282.227026 
L 321.696244 273.634587 
L 318.133375 276.230249 
L 314.570505 272.280899 
L 311.007636 282.227026 
L 307.444767 285.225415 
L 303.881898 285.225415 
L 300.319029 284.771244 
L 296.756159 284.874132 
L 293.19329 281.927187 
L 289.630421 281.875743 
L 286.067552 284.574293 
L 282.504683 283.374938 
L 278.941813 284.925576 
L 275.378944 284.925576 
L 271.816075 281.875743 
L 268.253206 283.374938 
L 264.690337 284.02606 
L 261.127468 284.02606 
L 257.564598 283.726221 
L 254.001729 281.027671 
L 250.43886 281.02329 
L 246.875991 281.32751 
L 243.313122 281.32751 
L 239.750252 279.828315 
L 236.187383 280.07671 
L 232.624514 282.77526 
L 229.061645 285.525254 
L 225.498776 285.173971 
L 221.935907 284.925576 
L 218.373037 284.874132 
L 214.810168 284.02606 
L 211.247299 281.027671 
L 207.68443 276.478643 
L 204.121561 283.974615 
L 200.558691 283.520444 
L 196.995822 283.726221 
L 193.432953 282.77526 
L 189.870084 282.826704 
L 186.307215 283.674777 
L 182.744345 284.874132 
L 179.181476 283.426382 
L 175.618607 283.974615 
L 172.055738 284.325898 
L 168.492869 283.623332 
L 164.93 284.822688 
L 161.36713 282.826704 
L 157.804261 279.451342 
L 154.241392 280.873338 
L 150.678523 280.676388 
L 147.115654 282.175582 
L 143.552784 278.376184 
L 139.989915 281.22024 
L 136.427046 277.37816 
L 132.864177 273.253169 
L 129.301308 268.760031 
L 125.738439 276.842473 
L 122.175569 264.326438 
L 118.6127 245.971728 
L 115.049831 242.254169 
L 111.486962 227.867854 
L 107.924093 216.322644 
L 104.361223 198.644044 
L 100.798354 183.619723 
L 97.235485 160.671516 
L 93.672616 141.422224 
L 90.109747 109.517825 
L 86.546877 95.834937 
L 82.984008 62.525192 
L 79.421139 63.034828 
L 75.85827 41.135826 
L 72.295401 29.659599 
L 68.732532 28.038182 
z
" clip-path="url(#p781dfbcefa)" style="fill: #1f77b4; fill-opacity: 0.2"/>
   </g>
   <g id="matplotlib.axis_1">
    <g id="xtick_1">
     <g id="line2d_1">
      <path d="M 66.933283 390.04 
L 66.933283 10.8 
" clip-path="url(#p781dfbcefa)" style="fill: none; stroke: #b0b0b0; stroke-width: 0.8; stroke-linecap: square"/>
     </g>
     <g id="line2d_2">
      <defs>
       <path id="mabb108ad54" d="M 0 0 
L 0 3.5 
" style="stroke: #000000; stroke-width: 0.8"/>
      </defs>
      <g>
       <use xlink:href="#mabb108ad54" x="66.933283" y="390.04" style="stroke: #000000; stroke-width: 0.8"/>
      </g>
     </g>
     <g id="text_1">
      <!-- 0 -->
      <g transform="translate(63.752033 404.638438) scale(0.1 -0.1)">
       <defs>
        <path id="DejaVuSans-30" d="M 2034 4250 
Q 1547 4250 1301 3770 
Q 1056 3291 1056 2328 
Q 1056 1369 1301 889 
Q 1547 409 2034 409 
Q 2525 409 2770 889 
Q 3016 1369 3016 2328 
Q 3016 3291 2770 3770 
Q 2525 4250 2034 4250 
z
M 2034 4750 
Q 2819 4750 3233 4129 
Q 3647 3509 3647 2328 
Q 3647 1150 3233 529 
Q 2819 -91 2034 -91 
Q 1250 -91 836 529 
Q 422 1150 422 2328 
Q 422 3509 836 4129 
Q 1250 4750 2034 4750 
z
" transform="scale(0.015625)"/>
       </defs>
       <use xlink:href="#DejaVuSans-30"/>
      </g>
     </g>
    </g>
    <g id="xtick_2">
     <g id="line2d_3">
      <path d="M 156.005012 390.04 
L 156.005012 10.8 
" clip-path="url(#p781dfbcefa)" style="fill: none; stroke: #b0b0b0; stroke-width: 0.8; stroke-linecap: square"/>
     </g>
     <g id="line2d_4">
      <g>
       <use xlink:href="#mabb108ad54" x="156.005012" y="390.04" style="stroke: #000000; stroke-width: 0.8"/>
      </g>
     </g>
     <g id="text_2">
      <!-- 5000 -->
      <g transform="translate(143.280012 404.638438) scale(0.1 -0.1)">
       <defs>
        <path id="DejaVuSans-35" d="M 691 4666 
L 3169 4666 
L 3169 4134 
L 1269 4134 
L 1269 2991 
Q 1406 3038 1543 3061 
Q 1681 3084 1819 3084 
Q 2600 3084 3056 2656 
Q 3513 2228 3513 1497 
Q 3513 744 3044 326 
Q 2575 -91 1722 -91 
Q 1428 -91 1123 -41 
Q 819 9 494 109 
L 494 744 
Q 775 591 1075 516 
Q 1375 441 1709 441 
Q 2250 441 2565 725 
Q 2881 1009 2881 1497 
Q 2881 1984 2565 2268 
Q 2250 2553 1709 2553 
Q 1456 2553 1204 2497 
Q 953 2441 691 2322 
L 691 4666 
z
" transform="scale(0.015625)"/>
       </defs>
       <use xlink:href="#DejaVuSans-35"/>
       <use xlink:href="#DejaVuSans-30" transform="translate(63.623047 0)"/>
       <use xlink:href="#DejaVuSans-30" transform="translate(127.246094 0)"/>
       <use xlink:href="#DejaVuSans-30" transform="translate(190.869141 0)"/>
      </g>
     </g>
    </g>
    <g id="xtick_3">
     <g id="line2d_5">
      <path d="M 245.076742 390.04 
L 245.076742 10.8 
" clip-path="url(#p781dfbcefa)" style="fill: none; stroke: #b0b0b0; stroke-width: 0.8; stroke-linecap: square"/>
     </g>
     <g id="line2d_6">
      <g>
       <use xlink:href="#mabb108ad54" x="245.076742" y="390.04" style="stroke: #000000; stroke-width: 0.8"/>
      </g>
     </g>
     <g id="text_3">
      <!-- 10000 -->
      <g transform="translate(229.170492 404.638438) scale(0.1 -0.1)">
       <defs>
        <path id="DejaVuSans-31" d="M 794 531 
L 1825 531 
L 1825 4091 
L 703 3866 
L 703 4441 
L 1819 4666 
L 2450 4666 
L 2450 531 
L 3481 531 
L 3481 0 
L 794 0 
L 794 531 
z
" transform="scale(0.015625)"/>
       </defs>
       <use xlink:href="#DejaVuSans-31"/>
       <use xlink:href="#DejaVuSans-30" transform="translate(63.623047 0)"/>
       <use xlink:href="#DejaVuSans-30" transform="translate(127.246094 0)"/>
       <use xlink:href="#DejaVuSans-30" transform="translate(190.869141 0)"/>
       <use xlink:href="#DejaVuSans-30" transform="translate(254.492188 0)"/>
      </g>
     </g>
    </g>
    <g id="xtick_4">
     <g id="line2d_7">
      <path d="M 334.148472 390.04 
L 334.148472 10.8 
" clip-path="url(#p781dfbcefa)" style="fill: none; stroke: #b0b0b0; stroke-width: 0.8; stroke-linecap: square"/>
     </g>
     <g id="line2d_8">
      <g>
       <use xlink:href="#mabb108ad54" x="334.148472" y="390.04" style="stroke: #000000; stroke-width: 0.8"/>
      </g>
     </g>
     <g id="text_4">
      <!-- 15000 -->
      <g transform="translate(318.242222 404.638438) scale(0.1 -0.1)">
       <use xlink:href="#DejaVuSans-31"/>
       <use xlink:href="#DejaVuSans-35" transform="translate(63.623047 0)"/>
       <use xlink:href="#DejaVuSans-30" transform="translate(127.246094 0)"/>
       <use xlink:href="#DejaVuSans-30" transform="translate(190.869141 0)"/>
       <use xlink:href="#DejaVuSans-30" transform="translate(254.492188 0)"/>
      </g>
     </g>
    </g>
    <g id="xtick_5">
     <g id="line2d_9">
      <path d="M 423.220201 390.04 
L 423.220201 10.8 
" clip-path="url(#p781dfbcefa)" style="fill: none; stroke: #b0b0b0; stroke-width: 0.8; stroke-linecap: square"/>
     </g>
     <g id="line2d_10">
      <g>
       <use xlink:href="#mabb108ad54" x="423.220201" y="390.04" style="stroke: #000000; stroke-width: 0.8"/>
      </g>
     </g>
     <g id="text_5">
      <!-- 20000 -->
      <g transform="translate(407.313951 404.638438) scale(0.1 -0.1)">
       <defs>
        <path id="DejaVuSans-32" d="M 1228 531 
L 3431 531 
L 3431 0 
L 469 0 
L 469 531 
Q 828 903 1448 1529 
Q 2069 2156 2228 2338 
Q 2531 2678 2651 2914 
Q 2772 3150 2772 3378 
Q 2772 3750 2511 3984 
Q 2250 4219 1831 4219 
Q 1534 4219 1204 4116 
Q 875 4013 500 3803 
L 500 4441 
Q 881 4594 1212 4672 
Q 1544 4750 1819 4750 
Q 2544 4750 2975 4387 
Q 3406 4025 3406 3419 
Q 3406 3131 3298 2873 
Q 3191 2616 2906 2266 
Q 2828 2175 2409 1742 
Q 1991 1309 1228 531 
z
" transform="scale(0.015625)"/>
       </defs>
       <use xlink:href="#DejaVuSans-32"/>
       <use xlink:href="#DejaVuSans-30" transform="translate(63.623047 0)"/>
       <use xlink:href="#DejaVuSans-30" transform="translate(127.246094 0)"/>
       <use xlink:href="#DejaVuSans-30" transform="translate(190.869141 0)"/>
       <use xlink:href="#DejaVuSans-30" transform="translate(254.492188 0)"/>
      </g>
     </g>
    </g>
    <g id="xtick_6">
     <g id="line2d_11">
      <path d="M 512.291931 390.04 
L 512.291931 10.8 
" clip-path="url(#p781dfbcefa)" style="fill: none; stroke: #b0b0b0; stroke-width: 0.8; stroke-linecap: square"/>
     </g>
     <g id="line2d_12">
      <g>
       <use xlink:href="#mabb108ad54" x="512.291931" y="390.04" style="stroke: #000000; stroke-width: 0.8"/>
      </g>
     </g>
     <g id="text_6">
      <!-- 25000 -->
      <g transform="translate(496.385681 404.638438) scale(0.1 -0.1)">
       <use xlink:href="#DejaVuSans-32"/>
       <use xlink:href="#DejaVuSans-35" transform="translate(63.623047 0)"/>
       <use xlink:href="#DejaVuSans-30" transform="translate(127.246094 0)"/>
       <use xlink:href="#DejaVuSans-30" transform="translate(190.869141 0)"/>
       <use xlink:href="#DejaVuSans-30" transform="translate(254.492188 0)"/>
      </g>
     </g>
    </g>
    <g id="xtick_7">
     <g id="line2d_13">
      <path d="M 601.36366 390.04 
L 601.36366 10.8 
" clip-path="url(#p781dfbcefa)" style="fill: none; stroke: #b0b0b0; stroke-width: 0.8; stroke-linecap: square"/>
     </g>
     <g id="line2d_14">
      <g>
       <use xlink:href="#mabb108ad54" x="601.36366" y="390.04" style="stroke: #000000; stroke-width: 0.8"/>
      </g>
     </g>
     <g id="text_7">
      <!-- 30000 -->
      <g transform="translate(585.45741 404.638438) scale(0.1 -0.1)">
       <defs>
        <path id="DejaVuSans-33" d="M 2597 2516 
Q 3050 2419 3304 2112 
Q 3559 1806 3559 1356 
Q 3559 666 3084 287 
Q 2609 -91 1734 -91 
Q 1441 -91 1130 -33 
Q 819 25 488 141 
L 488 750 
Q 750 597 1062 519 
Q 1375 441 1716 441 
Q 2309 441 2620 675 
Q 2931 909 2931 1356 
Q 2931 1769 2642 2001 
Q 2353 2234 1838 2234 
L 1294 2234 
L 1294 2753 
L 1863 2753 
Q 2328 2753 2575 2939 
Q 2822 3125 2822 3475 
Q 2822 3834 2567 4026 
Q 2313 4219 1838 4219 
Q 1578 4219 1281 4162 
Q 984 4106 628 3988 
L 628 4550 
Q 988 4650 1302 4700 
Q 1616 4750 1894 4750 
Q 2613 4750 3031 4423 
Q 3450 4097 3450 3541 
Q 3450 3153 3228 2886 
Q 3006 2619 2597 2516 
z
" transform="scale(0.015625)"/>
       </defs>
       <use xlink:href="#DejaVuSans-33"/>
       <use xlink:href="#DejaVuSans-30" transform="translate(63.623047 0)"/>
       <use xlink:href="#DejaVuSans-30" transform="translate(127.246094 0)"/>
       <use xlink:href="#DejaVuSans-30" transform="translate(190.869141 0)"/>
       <use xlink:href="#DejaVuSans-30" transform="translate(254.492188 0)"/>
      </g>
     </g>
    </g>
    <g id="xtick_8">
     <g id="line2d_15">
      <path d="M 690.43539 390.04 
L 690.43539 10.8 
" clip-path="url(#p781dfbcefa)" style="fill: none; stroke: #b0b0b0; stroke-width: 0.8; stroke-linecap: square"/>
     </g>
     <g id="line2d_16">
      <g>
       <use xlink:href="#mabb108ad54" x="690.43539" y="390.04" style="stroke: #000000; stroke-width: 0.8"/>
      </g>
     </g>
     <g id="text_8">
      <!-- 35000 -->
      <g transform="translate(674.52914 404.638438) scale(0.1 -0.1)">
       <use xlink:href="#DejaVuSans-33"/>
       <use xlink:href="#DejaVuSans-35" transform="translate(63.623047 0)"/>
       <use xlink:href="#DejaVuSans-30" transform="translate(127.246094 0)"/>
       <use xlink:href="#DejaVuSans-30" transform="translate(190.869141 0)"/>
       <use xlink:href="#DejaVuSans-30" transform="translate(254.492188 0)"/>
      </g>
     </g>
    </g>
    <g id="text_9">
     <!-- Episodes -->
     <g transform="translate(351.115659 418.316562) scale(0.1 -0.1)">
      <defs>
       <path id="DejaVuSans-45" d="M 628 4666 
L 3578 4666 
L 3578 4134 
L 1259 4134 
L 1259 2753 
L 3481 2753 
L 3481 2222 
L 1259 2222 
L 1259 531 
L 3634 531 
L 3634 0 
L 628 0 
L 628 4666 
z
" transform="scale(0.015625)"/>
       <path id="DejaVuSans-70" d="M 1159 525 
L 1159 -1331 
L 581 -1331 
L 581 3500 
L 1159 3500 
L 1159 2969 
Q 1341 3281 1617 3432 
Q 1894 3584 2278 3584 
Q 2916 3584 3314 3078 
Q 3713 2572 3713 1747 
Q 3713 922 3314 415 
Q 2916 -91 2278 -91 
Q 1894 -91 1617 61 
Q 1341 213 1159 525 
z
M 3116 1747 
Q 3116 2381 2855 2742 
Q 2594 3103 2138 3103 
Q 1681 3103 1420 2742 
Q 1159 2381 1159 1747 
Q 1159 1113 1420 752 
Q 1681 391 2138 391 
Q 2594 391 2855 752 
Q 3116 1113 3116 1747 
z
" transform="scale(0.015625)"/>
       <path id="DejaVuSans-69" d="M 603 3500 
L 1178 3500 
L 1178 0 
L 603 0 
L 603 3500 
z
M 603 4863 
L 1178 4863 
L 1178 4134 
L 603 4134 
L 603 4863 
z
" transform="scale(0.015625)"/>
       <path id="DejaVuSans-73" d="M 2834 3397 
L 2834 2853 
Q 2591 2978 2328 3040 
Q 2066 3103 1784 3103 
Q 1356 3103 1142 2972 
Q 928 2841 928 2578 
Q 928 2378 1081 2264 
Q 1234 2150 1697 2047 
L 1894 2003 
Q 2506 1872 2764 1633 
Q 3022 1394 3022 966 
Q 3022 478 2636 193 
Q 2250 -91 1575 -91 
Q 1294 -91 989 -36 
Q 684 19 347 128 
L 347 722 
Q 666 556 975 473 
Q 1284 391 1588 391 
Q 1994 391 2212 530 
Q 2431 669 2431 922 
Q 2431 1156 2273 1281 
Q 2116 1406 1581 1522 
L 1381 1569 
Q 847 1681 609 1914 
Q 372 2147 372 2553 
Q 372 3047 722 3315 
Q 1072 3584 1716 3584 
Q 2034 3584 2315 3537 
Q 2597 3491 2834 3397 
z
" transform="scale(0.015625)"/>
       <path id="DejaVuSans-6f" d="M 1959 3097 
Q 1497 3097 1228 2736 
Q 959 2375 959 1747 
Q 959 1119 1226 758 
Q 1494 397 1959 397 
Q 2419 397 2687 759 
Q 2956 1122 2956 1747 
Q 2956 2369 2687 2733 
Q 2419 3097 1959 3097 
z
M 1959 3584 
Q 2709 3584 3137 3096 
Q 3566 2609 3566 1747 
Q 3566 888 3137 398 
Q 2709 -91 1959 -91 
Q 1206 -91 779 398 
Q 353 888 353 1747 
Q 353 2609 779 3096 
Q 1206 3584 1959 3584 
z
" transform="scale(0.015625)"/>
       <path id="DejaVuSans-64" d="M 2906 2969 
L 2906 4863 
L 3481 4863 
L 3481 0 
L 2906 0 
L 2906 525 
Q 2725 213 2448 61 
Q 2172 -91 1784 -91 
Q 1150 -91 751 415 
Q 353 922 353 1747 
Q 353 2572 751 3078 
Q 1150 3584 1784 3584 
Q 2172 3584 2448 3432 
Q 2725 3281 2906 2969 
z
M 947 1747 
Q 947 1113 1208 752 
Q 1469 391 1925 391 
Q 2381 391 2643 752 
Q 2906 1113 2906 1747 
Q 2906 2381 2643 2742 
Q 2381 3103 1925 3103 
Q 1469 3103 1208 2742 
Q 947 2381 947 1747 
z
" transform="scale(0.015625)"/>
       <path id="DejaVuSans-65" d="M 3597 1894 
L 3597 1613 
L 953 1613 
Q 991 1019 1311 708 
Q 1631 397 2203 397 
Q 2534 397 2845 478 
Q 3156 559 3463 722 
L 3463 178 
Q 3153 47 2828 -22 
Q 2503 -91 2169 -91 
Q 1331 -91 842 396 
Q 353 884 353 1716 
Q 353 2575 817 3079 
Q 1281 3584 2069 3584 
Q 2775 3584 3186 3129 
Q 3597 2675 3597 1894 
z
M 3022 2063 
Q 3016 2534 2758 2815 
Q 2500 3097 2075 3097 
Q 1594 3097 1305 2825 
Q 1016 2553 972 2059 
L 3022 2063 
z
" transform="scale(0.015625)"/>
      </defs>
      <use xlink:href="#DejaVuSans-45"/>
      <use xlink:href="#DejaVuSans-70" transform="translate(63.183594 0)"/>
      <use xlink:href="#DejaVuSans-69" transform="translate(126.660156 0)"/>
      <use xlink:href="#DejaVuSans-73" transform="translate(154.443359 0)"/>
      <use xlink:href="#DejaVuSans-6f" transform="translate(206.542969 0)"/>
      <use xlink:href="#DejaVuSans-64" transform="translate(267.724609 0)"/>
      <use xlink:href="#DejaVuSans-65" transform="translate(331.201172 0)"/>
      <use xlink:href="#DejaVuSans-73" transform="translate(392.724609 0)"/>
     </g>
    </g>
   </g>
   <g id="matplotlib.axis_2">
    <g id="ytick_1">
     <g id="line2d_17">
      <path d="M 38.27 360.043652 
L 708.445694 360.043652 
" clip-path="url(#p781dfbcefa)" style="fill: none; stroke: #b0b0b0; stroke-width: 0.8; stroke-linecap: square"/>
     </g>
     <g id="line2d_18">
      <defs>
       <path id="mf755c99e75" d="M 0 0 
L -3.5 0 
" style="stroke: #000000; stroke-width: 0.8"/>
      </defs>
      <g>
       <use xlink:href="#mf755c99e75" x="38.27" y="360.043652" style="stroke: #000000; stroke-width: 0.8"/>
      </g>
     </g>
     <g id="text_10">
      <!-- 2 -->
      <g transform="translate(24.9075 363.842871) scale(0.1 -0.1)">
       <use xlink:href="#DejaVuSans-32"/>
      </g>
     </g>
    </g>
    <g id="ytick_2">
     <g id="line2d_19">
      <path d="M 38.27 285.525254 
L 708.445694 285.525254 
" clip-path="url(#p781dfbcefa)" style="fill: none; stroke: #b0b0b0; stroke-width: 0.8; stroke-linecap: square"/>
     </g>
     <g id="line2d_20">
      <g>
       <use xlink:href="#mf755c99e75" x="38.27" y="285.525254" style="stroke: #000000; stroke-width: 0.8"/>
      </g>
     </g>
     <g id="text_11">
      <!-- 3 -->
      <g transform="translate(24.9075 289.324473) scale(0.1 -0.1)">
       <use xlink:href="#DejaVuSans-33"/>
      </g>
     </g>
    </g>
    <g id="ytick_3">
     <g id="line2d_21">
      <path d="M 38.27 211.006856 
L 708.445694 211.006856 
" clip-path="url(#p781dfbcefa)" style="fill: none; stroke: #b0b0b0; stroke-width: 0.8; stroke-linecap: square"/>
     </g>
     <g id="line2d_22">
      <g>
       <use xlink:href="#mf755c99e75" x="38.27" y="211.006856" style="stroke: #000000; stroke-width: 0.8"/>
      </g>
     </g>
     <g id="text_12">
      <!-- 4 -->
      <g transform="translate(24.9075 214.806075) scale(0.1 -0.1)">
       <defs>
        <path id="DejaVuSans-34" d="M 2419 4116 
L 825 1625 
L 2419 1625 
L 2419 4116 
z
M 2253 4666 
L 3047 4666 
L 3047 1625 
L 3713 1625 
L 3713 1100 
L 3047 1100 
L 3047 0 
L 2419 0 
L 2419 1100 
L 313 1100 
L 313 1709 
L 2253 4666 
z
" transform="scale(0.015625)"/>
       </defs>
       <use xlink:href="#DejaVuSans-34"/>
      </g>
     </g>
    </g>
    <g id="ytick_4">
     <g id="line2d_23">
      <path d="M 38.27 136.488458 
L 708.445694 136.488458 
" clip-path="url(#p781dfbcefa)" style="fill: none; stroke: #b0b0b0; stroke-width: 0.8; stroke-linecap: square"/>
     </g>
     <g id="line2d_24">
      <g>
       <use xlink:href="#mf755c99e75" x="38.27" y="136.488458" style="stroke: #000000; stroke-width: 0.8"/>
      </g>
     </g>
     <g id="text_13">
      <!-- 5 -->
      <g transform="translate(24.9075 140.287677) scale(0.1 -0.1)">
       <use xlink:href="#DejaVuSans-35"/>
      </g>
     </g>
    </g>
    <g id="ytick_5">
     <g id="line2d_25">
      <path d="M 38.27 61.97006 
L 708.445694 61.97006 
" clip-path="url(#p781dfbcefa)" style="fill: none; stroke: #b0b0b0; stroke-width: 0.8; stroke-linecap: square"/>
     </g>
     <g id="line2d_26">
      <g>
       <use xlink:href="#mf755c99e75" x="38.27" y="61.97006" style="stroke: #000000; stroke-width: 0.8"/>
      </g>
     </g>
     <g id="text_14">
      <!-- 6 -->
      <g transform="translate(24.9075 65.769279) scale(0.1 -0.1)">
       <defs>
        <path id="DejaVuSans-36" d="M 2113 2584 
Q 1688 2584 1439 2293 
Q 1191 2003 1191 1497 
Q 1191 994 1439 701 
Q 1688 409 2113 409 
Q 2538 409 2786 701 
Q 3034 994 3034 1497 
Q 3034 2003 2786 2293 
Q 2538 2584 2113 2584 
z
M 3366 4563 
L 3366 3988 
Q 3128 4100 2886 4159 
Q 2644 4219 2406 4219 
Q 1781 4219 1451 3797 
Q 1122 3375 1075 2522 
Q 1259 2794 1537 2939 
Q 1816 3084 2150 3084 
Q 2853 3084 3261 2657 
Q 3669 2231 3669 1497 
Q 3669 778 3244 343 
Q 2819 -91 2113 -91 
Q 1303 -91 875 529 
Q 447 1150 447 2328 
Q 447 3434 972 4092 
Q 1497 4750 2381 4750 
Q 2619 4750 2861 4703 
Q 3103 4656 3366 4563 
z
" transform="scale(0.015625)"/>
       </defs>
       <use xlink:href="#DejaVuSans-36"/>
      </g>
     </g>
    </g>
    <g id="text_15">
     <!-- Quantum Gates -->
     <g transform="translate(18.827813 239.925469) rotate(-90) scale(0.1 -0.1)">
      <defs>
       <path id="DejaVuSans-51" d="M 2522 4238 
Q 1834 4238 1429 3725 
Q 1025 3213 1025 2328 
Q 1025 1447 1429 934 
Q 1834 422 2522 422 
Q 3209 422 3611 934 
Q 4013 1447 4013 2328 
Q 4013 3213 3611 3725 
Q 3209 4238 2522 4238 
z
M 3406 84 
L 4238 -825 
L 3475 -825 
L 2784 -78 
Q 2681 -84 2626 -87 
Q 2572 -91 2522 -91 
Q 1538 -91 948 567 
Q 359 1225 359 2328 
Q 359 3434 948 4092 
Q 1538 4750 2522 4750 
Q 3503 4750 4090 4092 
Q 4678 3434 4678 2328 
Q 4678 1516 4351 937 
Q 4025 359 3406 84 
z
" transform="scale(0.015625)"/>
       <path id="DejaVuSans-75" d="M 544 1381 
L 544 3500 
L 1119 3500 
L 1119 1403 
Q 1119 906 1312 657 
Q 1506 409 1894 409 
Q 2359 409 2629 706 
Q 2900 1003 2900 1516 
L 2900 3500 
L 3475 3500 
L 3475 0 
L 2900 0 
L 2900 538 
Q 2691 219 2414 64 
Q 2138 -91 1772 -91 
Q 1169 -91 856 284 
Q 544 659 544 1381 
z
M 1991 3584 
L 1991 3584 
z
" transform="scale(0.015625)"/>
       <path id="DejaVuSans-61" d="M 2194 1759 
Q 1497 1759 1228 1600 
Q 959 1441 959 1056 
Q 959 750 1161 570 
Q 1363 391 1709 391 
Q 2188 391 2477 730 
Q 2766 1069 2766 1631 
L 2766 1759 
L 2194 1759 
z
M 3341 1997 
L 3341 0 
L 2766 0 
L 2766 531 
Q 2569 213 2275 61 
Q 1981 -91 1556 -91 
Q 1019 -91 701 211 
Q 384 513 384 1019 
Q 384 1609 779 1909 
Q 1175 2209 1959 2209 
L 2766 2209 
L 2766 2266 
Q 2766 2663 2505 2880 
Q 2244 3097 1772 3097 
Q 1472 3097 1187 3025 
Q 903 2953 641 2809 
L 641 3341 
Q 956 3463 1253 3523 
Q 1550 3584 1831 3584 
Q 2591 3584 2966 3190 
Q 3341 2797 3341 1997 
z
" transform="scale(0.015625)"/>
       <path id="DejaVuSans-6e" d="M 3513 2113 
L 3513 0 
L 2938 0 
L 2938 2094 
Q 2938 2591 2744 2837 
Q 2550 3084 2163 3084 
Q 1697 3084 1428 2787 
Q 1159 2491 1159 1978 
L 1159 0 
L 581 0 
L 581 3500 
L 1159 3500 
L 1159 2956 
Q 1366 3272 1645 3428 
Q 1925 3584 2291 3584 
Q 2894 3584 3203 3211 
Q 3513 2838 3513 2113 
z
" transform="scale(0.015625)"/>
       <path id="DejaVuSans-74" d="M 1172 4494 
L 1172 3500 
L 2356 3500 
L 2356 3053 
L 1172 3053 
L 1172 1153 
Q 1172 725 1289 603 
Q 1406 481 1766 481 
L 2356 481 
L 2356 0 
L 1766 0 
Q 1100 0 847 248 
Q 594 497 594 1153 
L 594 3053 
L 172 3053 
L 172 3500 
L 594 3500 
L 594 4494 
L 1172 4494 
z
" transform="scale(0.015625)"/>
       <path id="DejaVuSans-6d" d="M 3328 2828 
Q 3544 3216 3844 3400 
Q 4144 3584 4550 3584 
Q 5097 3584 5394 3201 
Q 5691 2819 5691 2113 
L 5691 0 
L 5113 0 
L 5113 2094 
Q 5113 2597 4934 2840 
Q 4756 3084 4391 3084 
Q 3944 3084 3684 2787 
Q 3425 2491 3425 1978 
L 3425 0 
L 2847 0 
L 2847 2094 
Q 2847 2600 2669 2842 
Q 2491 3084 2119 3084 
Q 1678 3084 1418 2786 
Q 1159 2488 1159 1978 
L 1159 0 
L 581 0 
L 581 3500 
L 1159 3500 
L 1159 2956 
Q 1356 3278 1631 3431 
Q 1906 3584 2284 3584 
Q 2666 3584 2933 3390 
Q 3200 3197 3328 2828 
z
" transform="scale(0.015625)"/>
       <path id="DejaVuSans-20" transform="scale(0.015625)"/>
       <path id="DejaVuSans-47" d="M 3809 666 
L 3809 1919 
L 2778 1919 
L 2778 2438 
L 4434 2438 
L 4434 434 
Q 4069 175 3628 42 
Q 3188 -91 2688 -91 
Q 1594 -91 976 548 
Q 359 1188 359 2328 
Q 359 3472 976 4111 
Q 1594 4750 2688 4750 
Q 3144 4750 3555 4637 
Q 3966 4525 4313 4306 
L 4313 3634 
Q 3963 3931 3569 4081 
Q 3175 4231 2741 4231 
Q 1884 4231 1454 3753 
Q 1025 3275 1025 2328 
Q 1025 1384 1454 906 
Q 1884 428 2741 428 
Q 3075 428 3337 486 
Q 3600 544 3809 666 
z
" transform="scale(0.015625)"/>
      </defs>
      <use xlink:href="#DejaVuSans-51"/>
      <use xlink:href="#DejaVuSans-75" transform="translate(78.710938 0)"/>
      <use xlink:href="#DejaVuSans-61" transform="translate(142.089844 0)"/>
      <use xlink:href="#DejaVuSans-6e" transform="translate(203.369141 0)"/>
      <use xlink:href="#DejaVuSans-74" transform="translate(266.748047 0)"/>
      <use xlink:href="#DejaVuSans-75" transform="translate(305.957031 0)"/>
      <use xlink:href="#DejaVuSans-6d" transform="translate(369.335938 0)"/>
      <use xlink:href="#DejaVuSans-20" transform="translate(466.748047 0)"/>
      <use xlink:href="#DejaVuSans-47" transform="translate(498.535156 0)"/>
      <use xlink:href="#DejaVuSans-61" transform="translate(576.025391 0)"/>
      <use xlink:href="#DejaVuSans-74" transform="translate(637.304688 0)"/>
      <use xlink:href="#DejaVuSans-65" transform="translate(676.513672 0)"/>
      <use xlink:href="#DejaVuSans-73" transform="translate(738.037109 0)"/>
     </g>
    </g>
   </g>
   <g id="line2d_27">
    <path d="M 68.732532 134.873893 
L 72.295401 133.13513 
L 75.85827 139.965983 
L 79.421139 156.484228 
L 82.984008 152.634111 
L 86.546877 177.597774 
L 90.109747 185.173811 
L 93.672616 203.430819 
L 97.235485 218.086104 
L 100.798354 230.505837 
L 104.361223 239.944834 
L 107.924093 251.246791 
L 111.486962 258.574433 
L 115.049831 266.64726 
L 118.6127 268.51022 
L 122.175569 276.831441 
L 125.738439 282.544518 
L 129.301308 278.197612 
L 132.864177 280.805755 
L 136.427046 282.296123 
L 139.989915 284.159083 
L 143.552784 282.544518 
L 147.115654 284.283281 
L 150.678523 283.662294 
L 154.241392 284.034886 
L 157.804261 282.91711 
L 161.36713 284.407478 
L 164.93 285.525254 
L 168.492869 285.028465 
L 175.618607 285.028465 
L 179.181476 284.655873 
L 182.744345 285.401057 
L 189.870084 284.407478 
L 193.432953 284.531675 
L 196.995822 284.78007 
L 200.558691 285.276859 
L 204.121561 285.028465 
L 207.68443 281.923531 
L 211.247299 283.662294 
L 214.810168 284.904267 
L 218.373037 285.401057 
L 221.935907 285.276859 
L 225.498776 285.525254 
L 229.061645 285.525254 
L 232.624514 284.531675 
L 236.187383 283.413899 
L 239.750252 283.165505 
L 243.313122 283.786491 
L 250.43886 283.786491 
L 254.001729 283.662294 
L 257.564598 284.78007 
L 261.127468 284.904267 
L 264.690337 284.904267 
L 268.253206 284.78007 
L 271.816075 284.159083 
L 275.378944 285.276859 
L 278.941813 285.276859 
L 282.504683 284.78007 
L 286.067552 285.276859 
L 289.630421 284.159083 
L 293.19329 284.034886 
L 296.756159 285.401057 
L 300.319029 285.649451 
L 303.881898 285.401057 
L 307.444767 285.401057 
L 311.007636 284.159083 
L 314.570505 280.184769 
L 318.133375 281.675137 
L 321.696244 280.308966 
L 325.259113 284.159083 
L 328.821982 278.818598 
L 332.384851 284.159083 
L 335.94772 283.910689 
L 339.51059 284.407478 
L 343.073459 284.034886 
L 346.636328 284.283281 
L 350.199197 284.034886 
L 353.762066 285.028465 
L 357.324936 284.407478 
L 360.887805 284.655873 
L 364.450674 284.407478 
L 368.013543 284.034886 
L 375.139281 285.276859 
L 378.702151 284.904267 
L 382.26502 285.152662 
L 385.827889 285.152662 
L 389.390758 285.401057 
L 392.953627 284.904267 
L 396.516497 285.276859 
L 400.079366 284.655873 
L 403.642235 284.904267 
L 407.205104 286.518833 
L 410.767973 295.709435 
L 414.330843 314.463232 
L 417.893712 323.653834 
L 421.456581 329.615306 
L 425.01945 330.857279 
L 428.582319 332.968634 
L 432.145188 333.838015 
L 435.708058 333.962213 
L 439.270927 334.831594 
L 442.833796 334.08641 
L 446.396665 329.242714 
L 449.959534 329.863701 
L 453.522404 331.850858 
L 460.648142 334.831594 
L 464.211011 333.962213 
L 467.77388 334.583199 
L 471.336749 335.328383 
L 474.899619 335.079989 
L 478.462488 334.955791 
L 482.025357 335.204186 
L 485.588226 335.079989 
L 489.151095 335.204186 
L 492.713965 334.955791 
L 496.276834 334.955791 
L 503.402572 335.204186 
L 506.965441 333.341226 
L 510.528311 333.465423 
L 514.09118 334.210607 
L 517.654049 334.210607 
L 521.216918 334.955791 
L 524.779787 334.334805 
L 528.342656 335.328383 
L 531.905526 335.204186 
L 535.468395 335.204186 
L 539.031264 343.152815 
L 542.594133 355.572548 
L 546.157002 355.448351 
L 549.719872 357.8081 
L 553.282741 358.801679 
L 556.84561 359.67106 
L 560.408479 359.422665 
L 567.534217 359.919455 
L 571.097087 359.919455 
L 574.659956 357.559705 
L 578.222825 358.056495 
L 581.785694 358.180692 
L 585.348563 359.174271 
L 588.911433 359.795257 
L 592.474302 359.174271 
L 596.037171 359.919455 
L 599.60004 359.919455 
L 603.162909 360.043652 
L 606.725779 359.919455 
L 610.288648 358.677481 
L 613.851517 359.422665 
L 617.414386 359.422665 
L 620.977255 359.795257 
L 624.540124 359.174271 
L 628.102994 360.043652 
L 631.665863 359.795257 
L 635.228732 360.043652 
L 638.791601 359.919455 
L 642.35447 359.67106 
L 645.91734 359.795257 
L 649.480209 359.546863 
L 653.043078 359.919455 
L 656.605947 360.043652 
L 660.168816 360.043652 
L 663.731686 359.919455 
L 667.294555 360.043652 
L 670.857424 359.546863 
L 674.420293 358.677481 
L 677.983162 358.925876 
L 677.983162 358.925876 
" clip-path="url(#p781dfbcefa)" style="fill: none; stroke: #1f77b4; stroke-width: 1.5; stroke-linecap: square"/>
   </g>
   <g id="patch_3">
    <path d="M 38.27 390.04 
L 38.27 10.8 
" style="fill: none; stroke: #000000; stroke-width: 0.8; stroke-linejoin: miter; stroke-linecap: square"/>
   </g>
   <g id="patch_4">
    <path d="M 708.445694 390.04 
L 708.445694 10.8 
" style="fill: none; stroke: #000000; stroke-width: 0.8; stroke-linejoin: miter; stroke-linecap: square"/>
   </g>
   <g id="patch_5">
    <path d="M 38.27 390.04 
L 708.445694 390.04 
" style="fill: none; stroke: #000000; stroke-width: 0.8; stroke-linejoin: miter; stroke-linecap: square"/>
   </g>
   <g id="patch_6">
    <path d="M 38.27 10.8 
L 708.445694 10.8 
" style="fill: none; stroke: #000000; stroke-width: 0.8; stroke-linejoin: miter; stroke-linecap: square"/>
   </g>
  </g>
 </g>
 <defs>
  <clipPath id="p781dfbcefa">
   <rect x="38.27" y="10.8" width="670.175694" height="379.24"/>
  </clipPath>
 </defs>
</svg>
