<?xml version="1.0" encoding="utf-8" standalone="no"?>
<!DOCTYPE svg PUBLIC "-//W3C//DTD SVG 1.1//EN"
  "http://www.w3.org/Graphics/SVG/1.1/DTD/svg11.dtd">
<svg xmlns:xlink="http://www.w3.org/1999/xlink" width="720pt" height="432pt" viewBox="0 0 720 432" xmlns="http://www.w3.org/2000/svg" version="1.1">
 <metadata>
  <rdf:RDF xmlns:dc="http://purl.org/dc/elements/1.1/" xmlns:cc="http://creativecommons.org/ns#" xmlns:rdf="http://www.w3.org/1999/02/22-rdf-syntax-ns#">
   <cc:Work>
    <dc:type rdf:resource="http://purl.org/dc/dcmitype/StillImage"/>
    <dc:date>2025-04-16T00:55:42.071725</dc:date>
    <dc:format>image/svg+xml</dc:format>
    <dc:creator>
     <cc:Agent>
      <dc:title>Matplotlib v3.10.0, https://matplotlib.org/</dc:title>
     </cc:Agent>
    </dc:creator>
   </cc:Work>
  </rdf:RDF>
 </metadata>
 <defs>
  <style type="text/css">*{stroke-linejoin: round; stroke-linecap: butt}</style>
 </defs>
 <g id="figure_1">
  <g id="patch_1">
   <path d="M 0 432 
L 720 432 
L 720 0 
L 0 0 
z
" style="fill: #ffffff"/>
  </g>
  <g id="axes_1">
   <g id="patch_2">
    <path d="M 47.72 390.04 
L 709.2 390.04 
L 709.2 10.8 
L 47.72 10.8 
z
" style="fill: #ffffff"/>
   </g>
   <g id="FillBetweenPolyCollection_1">
    <defs>
     <path id="m38db7c20df" d="M 77.847939 -369.660233 
L 77.847939 -167.22616 
L 81.542535 -128.90276 
L 84.490931 -105.337486 
L 86.923661 -88.88306 
L 88.992392 -70.394343 
L 90.72139 -65.589518 
L 92.274455 -59.699153 
L 93.669786 -59.198182 
L 94.974118 -60.392518 
L 96.24205 -61.114281 
L 97.497848 -61.810239 
L 98.72938 -61.810239 
L 99.942712 -61.872537 
L 101.168177 -62.059428 
L 102.387576 -61.934834 
L 103.606974 -61.934834 
L 104.820306 -62.121726 
L 106.045771 -62.121726 
L 107.259103 -62.24632 
L 108.472435 -62.24632 
L 109.685767 -62.121726 
L 110.899098 -62.059428 
L 112.118497 -62.184023 
L 113.331829 -62.121726 
L 114.551227 -62.24632 
L 115.764559 -62.24632 
L 116.977891 -62.24632 
L 118.191223 -62.121726 
L 119.404554 -62.24632 
L 120.617886 -62.24632 
L 121.831218 -62.24632 
L 123.04455 -62.184023 
L 124.257882 -62.24632 
L 125.471214 -62.184023 
L 126.684545 -62.24632 
L 127.897877 -62.24632 
L 129.111209 -62.24632 
L 130.324541 -62.24632 
L 131.537873 -62.24632 
L 132.751205 -62.24632 
L 133.964536 -62.184023 
L 135.177868 -62.24632 
L 136.3912 -62.24632 
L 137.604532 -62.24632 
L 138.817864 -62.24632 
L 140.031196 -62.24632 
L 141.244527 -62.24632 
L 142.457859 -62.184023 
L 143.671191 -62.184023 
L 144.89059 -62.24632 
L 146.103921 -62.24632 
L 147.317253 -62.24632 
L 148.530585 -62.24632 
L 149.749984 -62.184023 
L 150.963315 -62.184023 
L 152.182714 -62.24632 
L 153.396046 -62.24632 
L 154.609377 -62.184023 
L 155.822709 -62.24632 
L 157.036041 -62.24632 
L 158.25544 -62.184023 
L 159.468771 -62.24632 
L 160.682103 -62.24632 
L 161.895435 -62.24632 
L 163.108767 -62.24632 
L 164.322099 -62.24632 
L 165.535431 -62.24632 
L 166.748762 -62.24632 
L 167.962094 -62.24632 
L 169.181493 -62.184023 
L 170.394825 -62.184023 
L 171.608156 -62.24632 
L 172.821488 -62.24632 
L 174.03482 -62.184023 
L 175.248152 -62.24632 
L 176.461484 -62.24632 
L 177.674816 -62.24632 
L 178.888147 -62.24632 
L 180.101479 -62.24632 
L 181.314811 -62.24632 
L 182.528143 -62.24632 
L 183.741475 -62.24632 
L 184.954807 -62.24632 
L 186.168138 -62.24632 
L 187.38147 -62.24632 
L 188.594802 -62.184023 
L 189.808134 -62.24632 
L 191.021466 -62.24632 
L 192.234798 -62.24632 
L 193.448129 -62.24632 
L 194.661461 -62.24632 
L 195.874793 -62.24632 
L 197.088125 -62.24632 
L 198.301457 -62.24632 
L 199.514788 -62.24632 
L 200.72812 -62.24632 
L 201.941452 -62.24632 
L 203.154784 -62.24632 
L 204.368116 -62.24632 
L 205.581448 -62.24632 
L 206.794779 -62.24632 
L 208.008111 -62.24632 
L 209.221443 -62.24632 
L 210.434775 -62.24632 
L 211.648107 -62.24632 
L 212.861439 -62.24632 
L 214.07477 -62.24632 
L 215.288102 -62.24632 
L 216.501434 -62.24632 
L 217.714766 -62.24632 
L 218.928098 -62.24632 
L 220.14143 -62.24632 
L 221.354761 -62.24632 
L 222.568093 -62.24632 
L 223.781425 -62.24632 
L 224.994757 -62.24632 
L 226.208089 -62.24632 
L 227.421421 -62.24632 
L 228.634752 -62.24632 
L 229.848084 -62.24632 
L 231.061416 -62.24632 
L 232.274748 -62.24632 
L 233.48808 -62.24632 
L 234.701412 -62.24632 
L 235.914743 -62.24632 
L 237.128075 -62.24632 
L 238.347474 -62.184023 
L 239.560806 -62.24632 
L 240.774137 -62.24632 
L 241.987469 -62.24632 
L 243.200801 -62.24632 
L 244.414133 -62.24632 
L 245.627465 -62.24632 
L 246.840796 -62.24632 
L 248.054128 -62.24632 
L 249.26746 -62.24632 
L 250.480792 -62.24632 
L 251.694124 -62.24632 
L 252.907456 -62.24632 
L 254.120787 -62.24632 
L 255.334119 -62.24632 
L 256.547451 -62.24632 
L 257.760783 -62.24632 
L 258.974115 -62.24632 
L 260.187447 -62.24632 
L 261.400778 -62.24632 
L 262.61411 -62.24632 
L 263.827442 -62.24632 
L 265.040774 -62.24632 
L 266.254106 -62.24632 
L 267.467438 -62.24632 
L 268.680769 -62.24632 
L 269.894101 -62.24632 
L 271.107433 -62.184023 
L 272.320765 -62.24632 
L 273.534097 -62.24632 
L 274.747429 -62.24632 
L 275.96076 -62.24632 
L 277.174092 -62.24632 
L 278.387424 -62.24632 
L 279.600756 -62.24632 
L 280.814088 -62.24632 
L 282.02742 -62.24632 
L 283.240751 -62.184023 
L 284.454083 -62.24632 
L 285.667415 -62.24632 
L 286.880747 -62.24632 
L 288.094079 -62.24632 
L 289.307411 -62.24632 
L 290.520742 -62.24632 
L 291.734074 -62.24632 
L 292.947406 -62.24632 
L 294.160738 -62.24632 
L 295.37407 -62.24632 
L 296.587401 -62.24632 
L 297.800733 -62.24632 
L 299.014065 -62.24632 
L 300.227397 -62.24632 
L 301.440729 -62.24632 
L 302.654061 -62.24632 
L 303.867392 -62.24632 
L 305.080724 -62.24632 
L 306.294056 -62.24632 
L 307.507388 -62.184023 
L 308.72072 -62.24632 
L 309.934052 -62.24632 
L 311.147383 -62.24632 
L 312.360715 -62.24632 
L 313.574047 -62.24632 
L 314.787379 -62.24632 
L 316.000711 -62.24632 
L 317.214043 -62.24632 
L 318.427374 -62.24632 
L 319.640706 -62.24632 
L 320.854038 -62.24632 
L 322.06737 -62.24632 
L 323.280702 -62.24632 
L 324.494034 -62.24632 
L 325.707365 -62.24632 
L 326.920697 -62.24632 
L 328.134029 -62.24632 
L 329.347361 -62.24632 
L 330.560693 -62.24632 
L 331.774025 -62.24632 
L 332.987356 -62.24632 
L 334.200688 -62.24632 
L 335.41402 -62.24632 
L 336.627352 -62.24632 
L 337.840684 -62.24632 
L 339.054016 -62.24632 
L 340.267347 -62.24632 
L 341.480679 -62.24632 
L 342.694011 -62.24632 
L 343.907343 -62.24632 
L 345.120675 -62.24632 
L 346.334006 -62.24632 
L 347.547338 -62.24632 
L 348.76067 -62.24632 
L 349.974002 -62.24632 
L 351.187334 -62.24632 
L 352.400666 -62.24632 
L 353.613997 -62.24632 
L 354.827329 -62.24632 
L 356.040661 -62.24632 
L 357.253993 -62.24632 
L 358.467325 -62.24632 
L 359.680657 -62.24632 
L 360.893988 -62.24632 
L 362.10732 -62.24632 
L 363.320652 -62.24632 
L 364.533984 -62.24632 
L 365.747316 -62.24632 
L 366.960648 -62.24632 
L 368.173979 -62.24632 
L 369.387311 -62.24632 
L 370.600643 -62.24632 
L 371.813975 -62.24632 
L 373.027307 -62.24632 
L 374.240639 -62.24632 
L 375.45397 -62.24632 
L 376.667302 -62.24632 
L 377.880634 -62.24632 
L 379.093966 -62.24632 
L 380.307298 -62.24632 
L 381.52063 -62.24632 
L 382.733961 -62.24632 
L 383.947293 -62.24632 
L 385.160625 -62.24632 
L 386.373957 -62.24632 
L 387.587289 -62.24632 
L 388.800621 -62.24632 
L 390.013952 -62.24632 
L 391.227284 -62.24632 
L 392.440616 -62.24632 
L 393.653948 -62.24632 
L 394.86728 -62.24632 
L 396.080611 -62.24632 
L 397.293943 -62.24632 
L 398.507275 -62.24632 
L 399.720607 -62.24632 
L 400.933939 -62.24632 
L 402.147271 -62.24632 
L 403.360602 -62.24632 
L 404.573934 -62.24632 
L 405.787266 -62.24632 
L 407.000598 -62.24632 
L 408.21393 -62.24632 
L 409.427262 -62.24632 
L 410.640593 -62.184023 
L 411.853925 -62.24632 
L 413.067257 -62.24632 
L 414.280589 -62.24632 
L 415.493921 -62.24632 
L 416.707253 -62.24632 
L 417.920584 -62.24632 
L 419.133916 -62.24632 
L 420.347248 -62.24632 
L 421.56058 -62.24632 
L 422.773912 -62.24632 
L 423.987244 -62.24632 
L 425.200575 -62.24632 
L 426.413907 -62.24632 
L 427.627239 -62.24632 
L 428.840571 -62.24632 
L 430.053903 -62.24632 
L 431.267235 -62.24632 
L 432.480566 -62.24632 
L 433.693898 -62.24632 
L 434.90723 -62.24632 
L 436.120562 -62.24632 
L 437.333894 -62.24632 
L 438.547226 -62.24632 
L 439.760557 -62.24632 
L 440.973889 -62.24632 
L 442.187221 -62.24632 
L 443.400553 -62.24632 
L 444.613885 -62.24632 
L 445.827216 -62.24632 
L 447.040548 -62.24632 
L 448.25388 -62.24632 
L 449.467212 -62.24632 
L 450.680544 -62.24632 
L 451.893876 -62.24632 
L 453.107207 -62.24632 
L 454.320539 -62.24632 
L 455.533871 -62.24632 
L 456.747203 -62.24632 
L 457.960535 -62.24632 
L 459.173867 -62.24632 
L 460.387198 -62.24632 
L 461.60053 -62.24632 
L 462.813862 -62.24632 
L 464.027194 -62.24632 
L 465.240526 -62.24632 
L 466.453858 -62.24632 
L 467.667189 -62.24632 
L 468.880521 -62.24632 
L 470.093853 -62.24632 
L 471.307185 -62.24632 
L 472.520517 -62.24632 
L 473.733849 -62.24632 
L 474.94718 -62.24632 
L 476.160512 -62.24632 
L 477.373844 -62.24632 
L 478.587176 -62.24632 
L 479.800508 -62.24632 
L 481.01384 -62.24632 
L 482.227171 -62.24632 
L 483.440503 -62.24632 
L 484.653835 -62.24632 
L 485.867167 -62.24632 
L 487.080499 -62.24632 
L 488.293831 -62.24632 
L 489.507162 -62.24632 
L 490.720494 -62.24632 
L 491.933826 -62.24632 
L 493.147158 -62.24632 
L 494.36049 -62.24632 
L 495.573821 -62.24632 
L 496.787153 -62.24632 
L 498.000485 -62.24632 
L 499.213817 -62.24632 
L 500.427149 -62.24632 
L 501.640481 -62.24632 
L 502.853812 -62.24632 
L 504.067144 -62.24632 
L 505.280476 -62.24632 
L 506.493808 -62.24632 
L 507.70714 -62.24632 
L 508.920472 -62.24632 
L 510.133803 -62.24632 
L 511.347135 -62.24632 
L 512.560467 -62.24632 
L 513.773799 -62.24632 
L 514.987131 -62.24632 
L 516.200463 -62.24632 
L 517.413794 -62.24632 
L 518.627126 -62.24632 
L 519.840458 -62.24632 
L 521.05379 -62.24632 
L 522.267122 -62.24632 
L 523.480454 -62.24632 
L 524.693785 -62.24632 
L 525.907117 -62.24632 
L 527.120449 -62.24632 
L 528.333781 -62.24632 
L 529.547113 -62.24632 
L 530.760445 -62.184023 
L 531.979843 -62.24632 
L 533.193175 -62.24632 
L 534.406507 -62.24632 
L 535.619839 -62.24632 
L 536.83317 -62.24632 
L 538.046502 -62.24632 
L 539.259834 -62.24632 
L 540.473166 -62.24632 
L 541.686498 -62.184023 
L 542.899829 -62.24632 
L 544.113161 -62.24632 
L 545.326493 -62.24632 
L 546.539825 -62.24632 
L 547.753157 -62.24632 
L 548.966489 -62.24632 
L 550.17982 -62.24632 
L 551.393152 -62.24632 
L 552.606484 -62.24632 
L 553.819816 -62.24632 
L 555.033148 -62.24632 
L 556.24648 -62.24632 
L 557.459811 -62.24632 
L 558.673143 -62.24632 
L 559.886475 -62.24632 
L 561.099807 -62.24632 
L 562.313139 -62.24632 
L 563.526471 -62.24632 
L 564.739802 -62.24632 
L 565.953134 -62.24632 
L 567.166466 -62.24632 
L 568.379798 -62.24632 
L 569.59313 -62.24632 
L 570.806462 -62.24632 
L 572.019793 -62.24632 
L 573.233125 -62.24632 
L 574.446457 -62.24632 
L 575.659789 -62.24632 
L 576.873121 -62.24632 
L 578.086453 -62.24632 
L 579.299784 -62.24632 
L 580.513116 -62.24632 
L 581.726448 -62.24632 
L 582.93978 -62.24632 
L 584.153112 -62.24632 
L 585.366444 -62.24632 
L 586.579775 -62.24632 
L 587.793107 -62.24632 
L 589.006439 -62.24632 
L 590.219771 -62.24632 
L 591.433103 -62.24632 
L 592.646434 -62.24632 
L 593.859766 -62.24632 
L 595.073098 -62.24632 
L 596.28643 -62.24632 
L 597.499762 -62.24632 
L 598.713094 -62.24632 
L 599.926425 -62.24632 
L 601.139757 -62.24632 
L 602.353089 -62.24632 
L 603.566421 -62.24632 
L 604.779753 -62.24632 
L 605.993085 -62.24632 
L 607.206416 -62.24632 
L 608.419748 -62.24632 
L 609.63308 -62.24632 
L 610.846412 -62.24632 
L 612.059744 -62.24632 
L 613.273076 -62.24632 
L 614.486407 -62.24632 
L 615.699739 -62.24632 
L 616.913071 -62.24632 
L 618.126403 -62.24632 
L 619.339735 -62.24632 
L 620.553067 -62.24632 
L 621.766398 -62.24632 
L 622.97973 -62.24632 
L 624.193062 -62.24632 
L 625.406394 -62.24632 
L 626.619726 -62.24632 
L 627.833058 -62.24632 
L 629.046389 -62.24632 
L 630.259721 -62.24632 
L 631.473053 -62.24632 
L 632.686385 -62.24632 
L 633.899717 -62.24632 
L 635.113049 -62.24632 
L 636.32638 -62.184023 
L 637.545779 -62.24632 
L 638.759111 -62.24632 
L 639.972442 -62.24632 
L 641.185774 -62.24632 
L 642.399106 -62.24632 
L 643.612438 -62.24632 
L 644.82577 -62.24632 
L 646.039102 -62.24632 
L 647.252433 -62.24632 
L 648.465765 -62.24632 
L 649.679097 -62.24632 
L 650.892429 -62.24632 
L 652.105761 -62.24632 
L 653.319093 -62.24632 
L 654.532424 -62.24632 
L 655.745756 -62.24632 
L 656.959088 -62.24632 
L 658.17242 -62.24632 
L 659.385752 -62.24632 
L 660.599084 -62.24632 
L 661.812415 -62.24632 
L 663.025747 -62.24632 
L 664.239079 -62.24632 
L 665.452411 -62.24632 
L 666.665743 -62.24632 
L 667.879075 -62.24632 
L 669.092406 -62.24632 
L 670.305738 -62.24632 
L 671.51907 -62.24632 
L 672.732402 -62.24632 
L 673.945734 -62.24632 
L 675.159066 -62.24632 
L 676.372397 -62.24632 
L 677.585729 -62.24632 
L 678.799061 -62.24632 
L 678.799061 -62.24632 
L 678.799061 -62.24632 
L 677.585729 -62.24632 
L 676.372397 -62.24632 
L 675.159066 -62.24632 
L 673.945734 -62.24632 
L 672.732402 -62.24632 
L 671.51907 -62.24632 
L 670.305738 -62.24632 
L 669.092406 -62.24632 
L 667.879075 -62.24632 
L 666.665743 -62.24632 
L 665.452411 -62.24632 
L 664.239079 -62.24632 
L 663.025747 -62.24632 
L 661.812415 -62.24632 
L 660.599084 -62.24632 
L 659.385752 -62.24632 
L 658.17242 -62.24632 
L 656.959088 -62.24632 
L 655.745756 -62.24632 
L 654.532424 -62.24632 
L 653.319093 -62.24632 
L 652.105761 -62.24632 
L 650.892429 -62.24632 
L 649.679097 -62.24632 
L 648.465765 -62.24632 
L 647.252433 -62.24632 
L 646.039102 -62.24632 
L 644.82577 -62.24632 
L 643.612438 -62.24632 
L 642.399106 -62.24632 
L 641.185774 -62.24632 
L 639.972442 -62.24632 
L 638.759111 -62.24632 
L 637.545779 -62.24632 
L 636.32638 -62.609415 
L 635.113049 -62.24632 
L 633.899717 -62.24632 
L 632.686385 -62.24632 
L 631.473053 -62.24632 
L 630.259721 -62.24632 
L 629.046389 -62.24632 
L 627.833058 -62.24632 
L 626.619726 -62.24632 
L 625.406394 -62.24632 
L 624.193062 -62.24632 
L 622.97973 -62.24632 
L 621.766398 -62.24632 
L 620.553067 -62.24632 
L 619.339735 -62.24632 
L 618.126403 -62.24632 
L 616.913071 -62.24632 
L 615.699739 -62.24632 
L 614.486407 -62.24632 
L 613.273076 -62.24632 
L 612.059744 -62.24632 
L 610.846412 -62.24632 
L 609.63308 -62.24632 
L 608.419748 -62.24632 
L 607.206416 -62.24632 
L 605.993085 -62.24632 
L 604.779753 -62.24632 
L 603.566421 -62.24632 
L 602.353089 -62.24632 
L 601.139757 -62.24632 
L 599.926425 -62.24632 
L 598.713094 -62.24632 
L 597.499762 -62.24632 
L 596.28643 -62.24632 
L 595.073098 -62.24632 
L 593.859766 -62.24632 
L 592.646434 -62.24632 
L 591.433103 -62.24632 
L 590.219771 -62.24632 
L 589.006439 -62.24632 
L 587.793107 -62.24632 
L 586.579775 -62.24632 
L 585.366444 -62.24632 
L 584.153112 -62.24632 
L 582.93978 -62.24632 
L 581.726448 -62.24632 
L 580.513116 -62.24632 
L 579.299784 -62.24632 
L 578.086453 -62.24632 
L 576.873121 -62.24632 
L 575.659789 -62.24632 
L 574.446457 -62.24632 
L 573.233125 -62.24632 
L 572.019793 -62.24632 
L 570.806462 -62.24632 
L 569.59313 -62.24632 
L 568.379798 -62.24632 
L 567.166466 -62.24632 
L 565.953134 -62.24632 
L 564.739802 -62.24632 
L 563.526471 -62.24632 
L 562.313139 -62.24632 
L 561.099807 -62.24632 
L 559.886475 -62.24632 
L 558.673143 -62.24632 
L 557.459811 -62.24632 
L 556.24648 -62.24632 
L 555.033148 -62.24632 
L 553.819816 -62.24632 
L 552.606484 -62.24632 
L 551.393152 -62.24632 
L 550.17982 -62.24632 
L 548.966489 -62.24632 
L 547.753157 -62.24632 
L 546.539825 -62.24632 
L 545.326493 -62.24632 
L 544.113161 -62.24632 
L 542.899829 -62.24632 
L 541.686498 -62.609415 
L 540.473166 -62.24632 
L 539.259834 -62.24632 
L 538.046502 -62.24632 
L 536.83317 -62.24632 
L 535.619839 -62.24632 
L 534.406507 -62.24632 
L 533.193175 -62.24632 
L 531.979843 -62.24632 
L 530.760445 -62.609415 
L 529.547113 -62.24632 
L 528.333781 -62.24632 
L 527.120449 -62.24632 
L 525.907117 -62.24632 
L 524.693785 -62.24632 
L 523.480454 -62.24632 
L 522.267122 -62.24632 
L 521.05379 -62.24632 
L 519.840458 -62.24632 
L 518.627126 -62.24632 
L 517.413794 -62.24632 
L 516.200463 -62.24632 
L 514.987131 -62.24632 
L 513.773799 -62.24632 
L 512.560467 -62.24632 
L 511.347135 -62.24632 
L 510.133803 -62.24632 
L 508.920472 -62.24632 
L 507.70714 -62.24632 
L 506.493808 -62.24632 
L 505.280476 -62.24632 
L 504.067144 -62.24632 
L 502.853812 -62.24632 
L 501.640481 -62.24632 
L 500.427149 -62.24632 
L 499.213817 -62.24632 
L 498.000485 -62.24632 
L 496.787153 -62.24632 
L 495.573821 -62.24632 
L 494.36049 -62.24632 
L 493.147158 -62.24632 
L 491.933826 -62.24632 
L 490.720494 -62.24632 
L 489.507162 -62.24632 
L 488.293831 -62.24632 
L 487.080499 -62.24632 
L 485.867167 -62.24632 
L 484.653835 -62.24632 
L 483.440503 -62.24632 
L 482.227171 -62.24632 
L 481.01384 -62.24632 
L 479.800508 -62.24632 
L 478.587176 -62.24632 
L 477.373844 -62.24632 
L 476.160512 -62.24632 
L 474.94718 -62.24632 
L 473.733849 -62.24632 
L 472.520517 -62.24632 
L 471.307185 -62.24632 
L 470.093853 -62.24632 
L 468.880521 -62.24632 
L 467.667189 -62.24632 
L 466.453858 -62.24632 
L 465.240526 -62.24632 
L 464.027194 -62.24632 
L 462.813862 -62.24632 
L 461.60053 -62.24632 
L 460.387198 -62.24632 
L 459.173867 -62.24632 
L 457.960535 -62.24632 
L 456.747203 -62.24632 
L 455.533871 -62.24632 
L 454.320539 -62.24632 
L 453.107207 -62.24632 
L 451.893876 -62.24632 
L 450.680544 -62.24632 
L 449.467212 -62.24632 
L 448.25388 -62.24632 
L 447.040548 -62.24632 
L 445.827216 -62.24632 
L 444.613885 -62.24632 
L 443.400553 -62.24632 
L 442.187221 -62.24632 
L 440.973889 -62.24632 
L 439.760557 -62.24632 
L 438.547226 -62.24632 
L 437.333894 -62.24632 
L 436.120562 -62.24632 
L 434.90723 -62.24632 
L 433.693898 -62.24632 
L 432.480566 -62.24632 
L 431.267235 -62.24632 
L 430.053903 -62.24632 
L 428.840571 -62.24632 
L 427.627239 -62.24632 
L 426.413907 -62.24632 
L 425.200575 -62.24632 
L 423.987244 -62.24632 
L 422.773912 -62.24632 
L 421.56058 -62.24632 
L 420.347248 -62.24632 
L 419.133916 -62.24632 
L 417.920584 -62.24632 
L 416.707253 -62.24632 
L 415.493921 -62.24632 
L 414.280589 -62.24632 
L 413.067257 -62.24632 
L 411.853925 -62.24632 
L 410.640593 -62.609415 
L 409.427262 -62.24632 
L 408.21393 -62.24632 
L 407.000598 -62.24632 
L 405.787266 -62.24632 
L 404.573934 -62.24632 
L 403.360602 -62.24632 
L 402.147271 -62.24632 
L 400.933939 -62.24632 
L 399.720607 -62.24632 
L 398.507275 -62.24632 
L 397.293943 -62.24632 
L 396.080611 -62.24632 
L 394.86728 -62.24632 
L 393.653948 -62.24632 
L 392.440616 -62.24632 
L 391.227284 -62.24632 
L 390.013952 -62.24632 
L 388.800621 -62.24632 
L 387.587289 -62.24632 
L 386.373957 -62.24632 
L 385.160625 -62.24632 
L 383.947293 -62.24632 
L 382.733961 -62.24632 
L 381.52063 -62.24632 
L 380.307298 -62.24632 
L 379.093966 -62.24632 
L 377.880634 -62.24632 
L 376.667302 -62.24632 
L 375.45397 -62.24632 
L 374.240639 -62.24632 
L 373.027307 -62.24632 
L 371.813975 -62.24632 
L 370.600643 -62.24632 
L 369.387311 -62.24632 
L 368.173979 -62.24632 
L 366.960648 -62.24632 
L 365.747316 -62.24632 
L 364.533984 -62.24632 
L 363.320652 -62.24632 
L 362.10732 -62.24632 
L 360.893988 -62.24632 
L 359.680657 -62.24632 
L 358.467325 -62.24632 
L 357.253993 -62.24632 
L 356.040661 -62.24632 
L 354.827329 -62.24632 
L 353.613997 -62.24632 
L 352.400666 -62.24632 
L 351.187334 -62.24632 
L 349.974002 -62.24632 
L 348.76067 -62.24632 
L 347.547338 -62.24632 
L 346.334006 -62.24632 
L 345.120675 -62.24632 
L 343.907343 -62.24632 
L 342.694011 -62.24632 
L 341.480679 -62.24632 
L 340.267347 -62.24632 
L 339.054016 -62.24632 
L 337.840684 -62.24632 
L 336.627352 -62.24632 
L 335.41402 -62.24632 
L 334.200688 -62.24632 
L 332.987356 -62.24632 
L 331.774025 -62.24632 
L 330.560693 -62.24632 
L 329.347361 -62.24632 
L 328.134029 -62.24632 
L 326.920697 -62.24632 
L 325.707365 -62.24632 
L 324.494034 -62.24632 
L 323.280702 -62.24632 
L 322.06737 -62.24632 
L 320.854038 -62.24632 
L 319.640706 -62.24632 
L 318.427374 -62.24632 
L 317.214043 -62.24632 
L 316.000711 -62.24632 
L 314.787379 -62.24632 
L 313.574047 -62.24632 
L 312.360715 -62.24632 
L 311.147383 -62.24632 
L 309.934052 -62.24632 
L 308.72072 -62.24632 
L 307.507388 -62.609415 
L 306.294056 -62.24632 
L 305.080724 -62.24632 
L 303.867392 -62.24632 
L 302.654061 -62.24632 
L 301.440729 -62.24632 
L 300.227397 -62.24632 
L 299.014065 -62.24632 
L 297.800733 -62.24632 
L 296.587401 -62.24632 
L 295.37407 -62.24632 
L 294.160738 -62.24632 
L 292.947406 -62.24632 
L 291.734074 -62.24632 
L 290.520742 -62.24632 
L 289.307411 -62.24632 
L 288.094079 -62.24632 
L 286.880747 -62.24632 
L 285.667415 -62.24632 
L 284.454083 -62.24632 
L 283.240751 -62.609415 
L 282.02742 -62.24632 
L 280.814088 -62.24632 
L 279.600756 -62.24632 
L 278.387424 -62.24632 
L 277.174092 -62.24632 
L 275.96076 -62.24632 
L 274.747429 -62.24632 
L 273.534097 -62.24632 
L 272.320765 -62.24632 
L 271.107433 -62.609415 
L 269.894101 -62.24632 
L 268.680769 -62.24632 
L 267.467438 -62.24632 
L 266.254106 -62.24632 
L 265.040774 -62.24632 
L 263.827442 -62.24632 
L 262.61411 -62.24632 
L 261.400778 -62.24632 
L 260.187447 -62.24632 
L 258.974115 -62.24632 
L 257.760783 -62.24632 
L 256.547451 -62.24632 
L 255.334119 -62.24632 
L 254.120787 -62.24632 
L 252.907456 -62.24632 
L 251.694124 -62.24632 
L 250.480792 -62.24632 
L 249.26746 -62.24632 
L 248.054128 -62.24632 
L 246.840796 -62.24632 
L 245.627465 -62.24632 
L 244.414133 -62.24632 
L 243.200801 -62.24632 
L 241.987469 -62.24632 
L 240.774137 -62.24632 
L 239.560806 -62.24632 
L 238.347474 -62.609415 
L 237.128075 -62.24632 
L 235.914743 -62.24632 
L 234.701412 -62.24632 
L 233.48808 -62.24632 
L 232.274748 -62.24632 
L 231.061416 -62.24632 
L 229.848084 -62.24632 
L 228.634752 -62.24632 
L 227.421421 -62.24632 
L 226.208089 -62.24632 
L 224.994757 -62.24632 
L 223.781425 -62.24632 
L 222.568093 -62.24632 
L 221.354761 -62.24632 
L 220.14143 -62.24632 
L 218.928098 -62.24632 
L 217.714766 -62.24632 
L 216.501434 -62.24632 
L 215.288102 -62.24632 
L 214.07477 -62.24632 
L 212.861439 -62.24632 
L 211.648107 -62.24632 
L 210.434775 -62.24632 
L 209.221443 -62.24632 
L 208.008111 -62.24632 
L 206.794779 -62.24632 
L 205.581448 -62.24632 
L 204.368116 -62.24632 
L 203.154784 -62.24632 
L 201.941452 -62.24632 
L 200.72812 -62.24632 
L 199.514788 -62.24632 
L 198.301457 -62.24632 
L 197.088125 -62.24632 
L 195.874793 -62.24632 
L 194.661461 -62.24632 
L 193.448129 -62.24632 
L 192.234798 -62.24632 
L 191.021466 -62.24632 
L 189.808134 -62.24632 
L 188.594802 -62.609415 
L 187.38147 -62.24632 
L 186.168138 -62.24632 
L 184.954807 -62.24632 
L 183.741475 -62.24632 
L 182.528143 -62.24632 
L 181.314811 -62.24632 
L 180.101479 -62.24632 
L 178.888147 -62.24632 
L 177.674816 -62.24632 
L 176.461484 -62.24632 
L 175.248152 -62.24632 
L 174.03482 -62.609415 
L 172.821488 -62.24632 
L 171.608156 -62.24632 
L 170.394825 -62.609415 
L 169.181493 -62.609415 
L 167.962094 -62.24632 
L 166.748762 -62.24632 
L 165.535431 -62.24632 
L 164.322099 -62.24632 
L 163.108767 -62.24632 
L 161.895435 -62.24632 
L 160.682103 -62.24632 
L 159.468771 -62.24632 
L 158.25544 -62.609415 
L 157.036041 -62.24632 
L 155.822709 -62.24632 
L 154.609377 -62.609415 
L 153.396046 -62.24632 
L 152.182714 -62.24632 
L 150.963315 -62.609415 
L 149.749984 -62.609415 
L 148.530585 -62.24632 
L 147.317253 -62.24632 
L 146.103921 -62.24632 
L 144.89059 -62.24632 
L 143.671191 -62.609415 
L 142.457859 -62.609415 
L 141.244527 -62.24632 
L 140.031196 -62.24632 
L 138.817864 -62.24632 
L 137.604532 -62.24632 
L 136.3912 -62.24632 
L 135.177868 -62.24632 
L 133.964536 -62.609415 
L 132.751205 -62.24632 
L 131.537873 -62.24632 
L 130.324541 -62.24632 
L 129.111209 -62.24632 
L 127.897877 -62.24632 
L 126.684545 -62.24632 
L 125.471214 -62.609415 
L 124.257882 -62.24632 
L 123.04455 -62.609415 
L 121.831218 -62.24632 
L 120.617886 -62.24632 
L 119.404554 -62.24632 
L 118.191223 -62.97251 
L 116.977891 -62.24632 
L 115.764559 -62.24632 
L 114.551227 -62.24632 
L 113.331829 -62.97251 
L 112.118497 -62.609415 
L 110.899098 -63.335605 
L 109.685767 -62.97251 
L 108.472435 -62.24632 
L 107.259103 -62.24632 
L 106.045771 -62.97251 
L 104.820306 -62.97251 
L 103.606974 -64.061795 
L 102.387576 -64.061795 
L 101.168177 -63.335605 
L 99.942712 -64.42489 
L 98.72938 -64.787985 
L 97.497848 -64.787985 
L 96.24205 -70.898304 
L 94.974118 -76.132033 
L 93.669786 -85.147112 
L 92.274455 -99.686029 
L 90.72139 -127.485015 
L 88.992392 -148.849597 
L 86.923661 -186.309267 
L 84.490931 -234.82716 
L 81.542535 -301.200421 
L 77.847939 -369.660233 
z
" style="stroke: #0000ff; stroke-opacity: 0.2"/>
    </defs>
    <g clip-path="url(#pc1db3bab27)">
     <use xlink:href="#m38db7c20df" x="0" y="432" style="fill: #0000ff; fill-opacity: 0.2; stroke: #0000ff; stroke-opacity: 0.2"/>
    </g>
   </g>
   <g id="FillBetweenPolyCollection_2">
    <defs>
     <path id="m6ad69cacbb" d="M 77.787273 -390.096479 
L 77.787273 -157.017039 
L 81.876201 -168.223502 
L 85.734596 -162.422918 
L 89.920591 -178.625606 
L 93.80932 -161.409359 
L 97.673781 -166.995811 
L 101.89011 -168.836876 
L 106.033638 -163.32329 
L 110.262099 -162.384903 
L 114.308561 -168.422171 
L 118.458156 -163.653834 
L 122.60775 -177.569681 
L 126.757345 -170.6407 
L 130.973673 -161.513925 
L 134.983735 -175.569707 
L 139.321396 -173.134049 
L 143.416391 -157.039684 
L 147.420386 -175.887599 
L 151.375848 -168.42977 
L 155.42231 -167.251467 
L 159.505171 -172.065982 
L 163.497033 -172.266382 
L 167.604161 -170.925621 
L 171.596023 -165.404277 
L 175.600018 -169.405809 
L 179.870946 -170.073403 
L 184.123674 -169.921758 
L 188.255069 -170.837628 
L 192.671597 -173.662643 
L 196.857592 -175.832957 
L 201.049653 -167.652148 
L 205.162848 -156.620424 
L 209.239643 -171.928495 
L 213.395305 -162.990416 
L 217.544899 -158.344587 
L 221.573161 -169.658955 
L 225.722756 -172.900821 
L 229.714618 -158.828944 
L 233.894546 -185.483111 
L 238.056274 -170.124328 
L 242.060269 -176.16785 
L 246.191664 -170.818953 
L 250.310926 -173.422064 
L 254.67892 -175.374521 
L 258.737515 -160.333045 
L 262.771843 -172.426109 
L 266.721239 -165.627468 
L 270.8405 -169.874375 
L 275.323761 -159.460279 
L 279.273156 -165.489178 
L 283.356018 -170.555865 
L 287.27508 -170.85371 
L 291.309408 -172.009803 
L 295.459003 -166.881326 
L 299.742064 -176.199152 
L 303.976592 -162.978174 
L 308.016987 -169.353332 
L 312.118049 -165.607428 
L 316.206977 -177.52374 
L 320.241306 -167.221928 
L 324.324167 -171.231202 
L 328.303896 -156.294617 
L 332.52629 -167.124993 
L 336.463552 -173.632717 
L 340.69808 -170.782777 
L 344.981142 -163.180684 
L 349.221736 -174.920532 
L 353.389531 -175.320758 
L 357.514859 -163.215864 
L 361.640188 -180.149826 
L 366.074915 -176.610701 
L 370.11531 -171.835626 
L 374.246705 -170.51783 
L 378.202167 -158.403049 
L 382.248629 -164.011665 
L 386.489223 -171.61212 
L 390.669152 -155.072096 
L 394.673147 -158.902049 
L 398.804541 -167.330422 
L 403.312069 -170.937937 
L 407.558731 -173.63747 
L 411.647659 -163.178084 
L 415.681987 -170.722274 
L 420.001449 -167.977163 
L 423.944777 -156.106668 
L 428.088305 -169.932958 
L 432.013434 -174.914665 
L 436.102362 -171.378706 
L 440.179157 -161.483085 
L 444.353018 -156.427187 
L 448.350947 -170.211207 
L 452.670408 -168.406199 
L 456.923136 -169.656663 
L 461.169797 -167.532753 
L 465.082793 -171.958472 
L 469.347654 -168.299206 
L 473.266716 -167.353241 
L 477.040178 -180.146684 
L 481.038106 -163.726806 
L 485.266568 -170.935721 
L 489.331229 -166.829119 
L 493.480824 -160.390362 
L 497.539419 -168.398249 
L 501.682947 -176.673261 
L 506.014542 -164.057819 
L 509.951804 -164.240546 
L 514.119598 -165.324411 
L 518.12966 -170.22081 
L 522.066922 -165.057648 
L 526.070917 -170.575789 
L 530.250845 -161.334861 
L 534.70984 -183.666145 
L 538.950434 -174.013797 
L 543.203162 -169.992243 
L 547.267824 -169.669582 
L 551.350686 -167.853564 
L 555.670147 -184.042389 
L 560.038142 -184.410016 
L 564.242336 -173.910797 
L 568.361598 -161.000034 
L 572.486926 -165.034679 
L 577.140054 -176.304483 
L 581.192582 -173.609402 
L 585.15411 -158.631183 
L 589.261239 -173.009754 
L 593.3623 -162.329572 
L 597.329895 -162.817228 
L 601.485557 -174.925669 
L 605.641218 -169.42522 
L 609.730147 -166.798754 
L 613.770542 -166.859774 
L 617.93227 -165.306265 
L 622.130398 -171.946302 
L 626.055526 -160.497097 
L 630.192988 -160.498716 
L 634.18485 -166.016421 
L 638.243445 -169.452733 
L 642.453706 -180.745038 
L 646.603301 -160.550199 
L 650.601229 -168.991232 
L 654.811491 -162.048563 
L 658.827619 -164.603788 
L 662.625348 -169.19526 
L 666.683943 -164.723704 
L 670.851738 -166.297604 
L 674.989199 -177.804028 
L 679.132727 -161.737371 
L 679.132727 -385.075348 
L 679.132727 -385.075348 
L 674.989199 -385.853367 
L 670.851738 -382.620699 
L 666.683943 -376.674655 
L 662.625348 -369.495919 
L 658.827619 -383.412122 
L 654.811491 -389.877719 
L 650.601229 -390.755792 
L 646.603301 -373.629014 
L 642.453706 -386.822728 
L 638.243445 -372.246424 
L 634.18485 -383.503478 
L 630.192988 -376.387676 
L 626.055526 -379.096476 
L 622.130398 -379.979979 
L 617.93227 -375.189701 
L 613.770542 -379.050552 
L 609.730147 -382.420348 
L 605.641218 -397.54095 
L 601.485557 -384.520557 
L 597.329895 -383.393896 
L 593.3623 -384.483147 
L 589.261239 -378.916528 
L 585.15411 -380.360795 
L 581.192582 -387.942408 
L 577.140054 -380.434563 
L 572.486926 -384.786018 
L 568.361598 -383.406303 
L 564.242336 -383.129046 
L 560.038142 -393.685672 
L 555.670147 -397.061277 
L 551.350686 -373.845593 
L 547.267824 -394.28861 
L 543.203162 -387.649197 
L 538.950434 -403.781093 
L 534.70984 -389.315981 
L 530.250845 -388.485836 
L 526.070917 -387.667246 
L 522.066922 -380.852678 
L 518.12966 -366.063988 
L 514.119598 -382.691499 
L 509.951804 -384.978555 
L 506.014542 -385.161282 
L 501.682947 -401.723225 
L 497.539419 -374.504099 
L 493.480824 -387.324751 
L 489.331229 -381.788387 
L 485.266568 -380.088167 
L 481.038106 -385.793093 
L 477.040178 -395.84342 
L 473.266716 -389.085007 
L 469.347654 -369.48958 
L 465.082793 -392.601316 
L 461.169797 -381.084753 
L 456.923136 -395.805519 
L 452.670408 -382.918487 
L 448.350947 -383.219064 
L 444.353018 -368.126497 
L 440.179157 -392.247983 
L 436.102362 -383.856351 
L 432.013434 -378.214808 
L 428.088305 -376.278165 
L 423.944777 -381.080523 
L 420.001449 -383.64832 
L 415.681987 -391.130334 
L 411.647659 -380.626657 
L 407.558731 -388.215138 
L 403.312069 -391.215469 
L 398.804541 -396.326973 
L 394.673147 -376.781152 
L 390.669152 -377.603128 
L 386.489223 -381.216555 
L 382.248629 -391.223392 
L 378.202167 -376.377759 
L 374.246705 -385.318822 
L 370.11531 -378.285869 
L 366.074915 -378.02276 
L 361.640188 -403.961818 
L 357.514859 -380.588877 
L 353.389531 -387.735041 
L 349.221736 -388.736862 
L 344.981142 -397.769531 
L 340.69808 -393.777011 
L 336.463552 -386.415104 
L 332.52629 -384.500491 
L 328.303896 -370.364651 
L 324.324167 -392.426193 
L 320.241306 -386.50914 
L 316.206977 -397.864768 
L 312.118049 -379.701302 
L 308.016987 -386.483321 
L 303.976592 -385.338534 
L 299.742064 -387.759041 
L 295.459003 -383.841764 
L 291.309408 -379.615681 
L 287.27508 -367.536672 
L 283.356018 -392.199136 
L 279.273156 -377.112373 
L 275.323761 -378.629305 
L 270.8405 -381.751108 
L 266.721239 -374.5677 
L 262.771843 -375.8906 
L 258.737515 -385.577281 
L 254.67892 -396.705212 
L 250.310926 -384.820971 
L 246.191664 -373.587384 
L 242.060269 -394.107096 
L 238.056274 -392.329876 
L 233.894546 -390.506993 
L 229.714618 -372.342291 
L 225.722756 -380.228652 
L 221.573161 -383.16972 
L 217.544899 -383.956166 
L 213.395305 -378.708741 
L 209.239643 -379.396191 
L 205.162848 -389.5907 
L 201.049653 -385.477324 
L 196.857592 -399.254754 
L 192.671597 -388.189965 
L 188.255069 -394.323756 
L 184.123674 -372.98059 
L 179.870946 -384.860856 
L 175.600018 -388.235631 
L 171.596023 -387.725196 
L 167.604161 -401.454909 
L 163.497033 -390.789417 
L 159.505171 -386.778649 
L 155.42231 -385.577208 
L 151.375848 -380.187736 
L 147.420386 -382.957031 
L 143.416391 -369.017989 
L 139.321396 -391.124941 
L 134.983735 -383.274923 
L 130.973673 -377.177254 
L 126.757345 -380.383189 
L 122.60775 -389.697287 
L 118.458156 -387.370054 
L 114.308561 -387.414481 
L 110.262099 -377.509467 
L 106.033638 -384.091025 
L 101.89011 -371.358292 
L 97.673781 -388.840841 
L 93.80932 -382.996979 
L 89.920591 -394.35652 
L 85.734596 -379.877835 
L 81.876201 -379.792409 
L 77.787273 -390.096479 
z
" style="stroke: #ffa500; stroke-opacity: 0.2"/>
    </defs>
    <g clip-path="url(#pc1db3bab27)">
     <use xlink:href="#m6ad69cacbb" x="0" y="432" style="fill: #ffa500; fill-opacity: 0.2; stroke: #ffa500; stroke-opacity: 0.2"/>
    </g>
   </g>
   <g id="matplotlib.axis_1">
    <g id="xtick_1">
     <g id="line2d_1">
      <path d="M 75.754942 390.04 
L 75.754942 10.8 
" clip-path="url(#pc1db3bab27)" style="fill: none; stroke: #b0b0b0; stroke-width: 0.8; stroke-linecap: square"/>
     </g>
     <g id="line2d_2">
      <defs>
       <path id="mf9193c0505" d="M 0 0 
L 0 3.5 
" style="stroke: #000000; stroke-width: 0.8"/>
      </defs>
      <g>
       <use xlink:href="#mf9193c0505" x="75.754942" y="390.04" style="stroke: #000000; stroke-width: 0.8"/>
      </g>
     </g>
     <g id="text_1">
      <!-- 0 -->
      <g transform="translate(72.573692 404.638438) scale(0.1 -0.1)">
       <defs>
        <path id="DejaVuSans-30" d="M 2034 4250 
Q 1547 4250 1301 3770 
Q 1056 3291 1056 2328 
Q 1056 1369 1301 889 
Q 1547 409 2034 409 
Q 2525 409 2770 889 
Q 3016 1369 3016 2328 
Q 3016 3291 2770 3770 
Q 2525 4250 2034 4250 
z
M 2034 4750 
Q 2819 4750 3233 4129 
Q 3647 3509 3647 2328 
Q 3647 1150 3233 529 
Q 2819 -91 2034 -91 
Q 1250 -91 836 529 
Q 422 1150 422 2328 
Q 422 3509 836 4129 
Q 1250 4750 2034 4750 
z
" transform="scale(0.015625)"/>
       </defs>
       <use xlink:href="#DejaVuSans-30"/>
      </g>
     </g>
    </g>
    <g id="xtick_2">
     <g id="line2d_3">
      <path d="M 197.088125 390.04 
L 197.088125 10.8 
" clip-path="url(#pc1db3bab27)" style="fill: none; stroke: #b0b0b0; stroke-width: 0.8; stroke-linecap: square"/>
     </g>
     <g id="line2d_4">
      <g>
       <use xlink:href="#mf9193c0505" x="197.088125" y="390.04" style="stroke: #000000; stroke-width: 0.8"/>
      </g>
     </g>
     <g id="text_2">
      <!-- 20000 -->
      <g transform="translate(181.181875 404.638438) scale(0.1 -0.1)">
       <defs>
        <path id="DejaVuSans-32" d="M 1228 531 
L 3431 531 
L 3431 0 
L 469 0 
L 469 531 
Q 828 903 1448 1529 
Q 2069 2156 2228 2338 
Q 2531 2678 2651 2914 
Q 2772 3150 2772 3378 
Q 2772 3750 2511 3984 
Q 2250 4219 1831 4219 
Q 1534 4219 1204 4116 
Q 875 4013 500 3803 
L 500 4441 
Q 881 4594 1212 4672 
Q 1544 4750 1819 4750 
Q 2544 4750 2975 4387 
Q 3406 4025 3406 3419 
Q 3406 3131 3298 2873 
Q 3191 2616 2906 2266 
Q 2828 2175 2409 1742 
Q 1991 1309 1228 531 
z
" transform="scale(0.015625)"/>
       </defs>
       <use xlink:href="#DejaVuSans-32"/>
       <use xlink:href="#DejaVuSans-30" transform="translate(63.623047 0)"/>
       <use xlink:href="#DejaVuSans-30" transform="translate(127.246094 0)"/>
       <use xlink:href="#DejaVuSans-30" transform="translate(190.869141 0)"/>
       <use xlink:href="#DejaVuSans-30" transform="translate(254.492188 0)"/>
      </g>
     </g>
    </g>
    <g id="xtick_3">
     <g id="line2d_5">
      <path d="M 318.421308 390.04 
L 318.421308 10.8 
" clip-path="url(#pc1db3bab27)" style="fill: none; stroke: #b0b0b0; stroke-width: 0.8; stroke-linecap: square"/>
     </g>
     <g id="line2d_6">
      <g>
       <use xlink:href="#mf9193c0505" x="318.421308" y="390.04" style="stroke: #000000; stroke-width: 0.8"/>
      </g>
     </g>
     <g id="text_3">
      <!-- 40000 -->
      <g transform="translate(302.515058 404.638438) scale(0.1 -0.1)">
       <defs>
        <path id="DejaVuSans-34" d="M 2419 4116 
L 825 1625 
L 2419 1625 
L 2419 4116 
z
M 2253 4666 
L 3047 4666 
L 3047 1625 
L 3713 1625 
L 3713 1100 
L 3047 1100 
L 3047 0 
L 2419 0 
L 2419 1100 
L 313 1100 
L 313 1709 
L 2253 4666 
z
" transform="scale(0.015625)"/>
       </defs>
       <use xlink:href="#DejaVuSans-34"/>
       <use xlink:href="#DejaVuSans-30" transform="translate(63.623047 0)"/>
       <use xlink:href="#DejaVuSans-30" transform="translate(127.246094 0)"/>
       <use xlink:href="#DejaVuSans-30" transform="translate(190.869141 0)"/>
       <use xlink:href="#DejaVuSans-30" transform="translate(254.492188 0)"/>
      </g>
     </g>
    </g>
    <g id="xtick_4">
     <g id="line2d_7">
      <path d="M 439.754491 390.04 
L 439.754491 10.8 
" clip-path="url(#pc1db3bab27)" style="fill: none; stroke: #b0b0b0; stroke-width: 0.8; stroke-linecap: square"/>
     </g>
     <g id="line2d_8">
      <g>
       <use xlink:href="#mf9193c0505" x="439.754491" y="390.04" style="stroke: #000000; stroke-width: 0.8"/>
      </g>
     </g>
     <g id="text_4">
      <!-- 60000 -->
      <g transform="translate(423.848241 404.638438) scale(0.1 -0.1)">
       <defs>
        <path id="DejaVuSans-36" d="M 2113 2584 
Q 1688 2584 1439 2293 
Q 1191 2003 1191 1497 
Q 1191 994 1439 701 
Q 1688 409 2113 409 
Q 2538 409 2786 701 
Q 3034 994 3034 1497 
Q 3034 2003 2786 2293 
Q 2538 2584 2113 2584 
z
M 3366 4563 
L 3366 3988 
Q 3128 4100 2886 4159 
Q 2644 4219 2406 4219 
Q 1781 4219 1451 3797 
Q 1122 3375 1075 2522 
Q 1259 2794 1537 2939 
Q 1816 3084 2150 3084 
Q 2853 3084 3261 2657 
Q 3669 2231 3669 1497 
Q 3669 778 3244 343 
Q 2819 -91 2113 -91 
Q 1303 -91 875 529 
Q 447 1150 447 2328 
Q 447 3434 972 4092 
Q 1497 4750 2381 4750 
Q 2619 4750 2861 4703 
Q 3103 4656 3366 4563 
z
" transform="scale(0.015625)"/>
       </defs>
       <use xlink:href="#DejaVuSans-36"/>
       <use xlink:href="#DejaVuSans-30" transform="translate(63.623047 0)"/>
       <use xlink:href="#DejaVuSans-30" transform="translate(127.246094 0)"/>
       <use xlink:href="#DejaVuSans-30" transform="translate(190.869141 0)"/>
       <use xlink:href="#DejaVuSans-30" transform="translate(254.492188 0)"/>
      </g>
     </g>
    </g>
    <g id="xtick_5">
     <g id="line2d_9">
      <path d="M 561.087674 390.04 
L 561.087674 10.8 
" clip-path="url(#pc1db3bab27)" style="fill: none; stroke: #b0b0b0; stroke-width: 0.8; stroke-linecap: square"/>
     </g>
     <g id="line2d_10">
      <g>
       <use xlink:href="#mf9193c0505" x="561.087674" y="390.04" style="stroke: #000000; stroke-width: 0.8"/>
      </g>
     </g>
     <g id="text_5">
      <!-- 80000 -->
      <g transform="translate(545.181424 404.638438) scale(0.1 -0.1)">
       <defs>
        <path id="DejaVuSans-38" d="M 2034 2216 
Q 1584 2216 1326 1975 
Q 1069 1734 1069 1313 
Q 1069 891 1326 650 
Q 1584 409 2034 409 
Q 2484 409 2743 651 
Q 3003 894 3003 1313 
Q 3003 1734 2745 1975 
Q 2488 2216 2034 2216 
z
M 1403 2484 
Q 997 2584 770 2862 
Q 544 3141 544 3541 
Q 544 4100 942 4425 
Q 1341 4750 2034 4750 
Q 2731 4750 3128 4425 
Q 3525 4100 3525 3541 
Q 3525 3141 3298 2862 
Q 3072 2584 2669 2484 
Q 3125 2378 3379 2068 
Q 3634 1759 3634 1313 
Q 3634 634 3220 271 
Q 2806 -91 2034 -91 
Q 1263 -91 848 271 
Q 434 634 434 1313 
Q 434 1759 690 2068 
Q 947 2378 1403 2484 
z
M 1172 3481 
Q 1172 3119 1398 2916 
Q 1625 2713 2034 2713 
Q 2441 2713 2670 2916 
Q 2900 3119 2900 3481 
Q 2900 3844 2670 4047 
Q 2441 4250 2034 4250 
Q 1625 4250 1398 4047 
Q 1172 3844 1172 3481 
z
" transform="scale(0.015625)"/>
       </defs>
       <use xlink:href="#DejaVuSans-38"/>
       <use xlink:href="#DejaVuSans-30" transform="translate(63.623047 0)"/>
       <use xlink:href="#DejaVuSans-30" transform="translate(127.246094 0)"/>
       <use xlink:href="#DejaVuSans-30" transform="translate(190.869141 0)"/>
       <use xlink:href="#DejaVuSans-30" transform="translate(254.492188 0)"/>
      </g>
     </g>
    </g>
    <g id="xtick_6">
     <g id="line2d_11">
      <path d="M 682.420857 390.04 
L 682.420857 10.8 
" clip-path="url(#pc1db3bab27)" style="fill: none; stroke: #b0b0b0; stroke-width: 0.8; stroke-linecap: square"/>
     </g>
     <g id="line2d_12">
      <g>
       <use xlink:href="#mf9193c0505" x="682.420857" y="390.04" style="stroke: #000000; stroke-width: 0.8"/>
      </g>
     </g>
     <g id="text_6">
      <!-- 100000 -->
      <g transform="translate(663.333357 404.638438) scale(0.1 -0.1)">
       <defs>
        <path id="DejaVuSans-31" d="M 794 531 
L 1825 531 
L 1825 4091 
L 703 3866 
L 703 4441 
L 1819 4666 
L 2450 4666 
L 2450 531 
L 3481 531 
L 3481 0 
L 794 0 
L 794 531 
z
" transform="scale(0.015625)"/>
       </defs>
       <use xlink:href="#DejaVuSans-31"/>
       <use xlink:href="#DejaVuSans-30" transform="translate(63.623047 0)"/>
       <use xlink:href="#DejaVuSans-30" transform="translate(127.246094 0)"/>
       <use xlink:href="#DejaVuSans-30" transform="translate(190.869141 0)"/>
       <use xlink:href="#DejaVuSans-30" transform="translate(254.492188 0)"/>
       <use xlink:href="#DejaVuSans-30" transform="translate(318.115234 0)"/>
      </g>
     </g>
    </g>
    <g id="text_7">
     <!-- Steps -->
     <g transform="translate(364.470156 418.316562) scale(0.1 -0.1)">
      <defs>
       <path id="DejaVuSans-53" d="M 3425 4513 
L 3425 3897 
Q 3066 4069 2747 4153 
Q 2428 4238 2131 4238 
Q 1616 4238 1336 4038 
Q 1056 3838 1056 3469 
Q 1056 3159 1242 3001 
Q 1428 2844 1947 2747 
L 2328 2669 
Q 3034 2534 3370 2195 
Q 3706 1856 3706 1288 
Q 3706 609 3251 259 
Q 2797 -91 1919 -91 
Q 1588 -91 1214 -16 
Q 841 59 441 206 
L 441 856 
Q 825 641 1194 531 
Q 1563 422 1919 422 
Q 2459 422 2753 634 
Q 3047 847 3047 1241 
Q 3047 1584 2836 1778 
Q 2625 1972 2144 2069 
L 1759 2144 
Q 1053 2284 737 2584 
Q 422 2884 422 3419 
Q 422 4038 858 4394 
Q 1294 4750 2059 4750 
Q 2388 4750 2728 4690 
Q 3069 4631 3425 4513 
z
" transform="scale(0.015625)"/>
       <path id="DejaVuSans-74" d="M 1172 4494 
L 1172 3500 
L 2356 3500 
L 2356 3053 
L 1172 3053 
L 1172 1153 
Q 1172 725 1289 603 
Q 1406 481 1766 481 
L 2356 481 
L 2356 0 
L 1766 0 
Q 1100 0 847 248 
Q 594 497 594 1153 
L 594 3053 
L 172 3053 
L 172 3500 
L 594 3500 
L 594 4494 
L 1172 4494 
z
" transform="scale(0.015625)"/>
       <path id="DejaVuSans-65" d="M 3597 1894 
L 3597 1613 
L 953 1613 
Q 991 1019 1311 708 
Q 1631 397 2203 397 
Q 2534 397 2845 478 
Q 3156 559 3463 722 
L 3463 178 
Q 3153 47 2828 -22 
Q 2503 -91 2169 -91 
Q 1331 -91 842 396 
Q 353 884 353 1716 
Q 353 2575 817 3079 
Q 1281 3584 2069 3584 
Q 2775 3584 3186 3129 
Q 3597 2675 3597 1894 
z
M 3022 2063 
Q 3016 2534 2758 2815 
Q 2500 3097 2075 3097 
Q 1594 3097 1305 2825 
Q 1016 2553 972 2059 
L 3022 2063 
z
" transform="scale(0.015625)"/>
       <path id="DejaVuSans-70" d="M 1159 525 
L 1159 -1331 
L 581 -1331 
L 581 3500 
L 1159 3500 
L 1159 2969 
Q 1341 3281 1617 3432 
Q 1894 3584 2278 3584 
Q 2916 3584 3314 3078 
Q 3713 2572 3713 1747 
Q 3713 922 3314 415 
Q 2916 -91 2278 -91 
Q 1894 -91 1617 61 
Q 1341 213 1159 525 
z
M 3116 1747 
Q 3116 2381 2855 2742 
Q 2594 3103 2138 3103 
Q 1681 3103 1420 2742 
Q 1159 2381 1159 1747 
Q 1159 1113 1420 752 
Q 1681 391 2138 391 
Q 2594 391 2855 752 
Q 3116 1113 3116 1747 
z
" transform="scale(0.015625)"/>
       <path id="DejaVuSans-73" d="M 2834 3397 
L 2834 2853 
Q 2591 2978 2328 3040 
Q 2066 3103 1784 3103 
Q 1356 3103 1142 2972 
Q 928 2841 928 2578 
Q 928 2378 1081 2264 
Q 1234 2150 1697 2047 
L 1894 2003 
Q 2506 1872 2764 1633 
Q 3022 1394 3022 966 
Q 3022 478 2636 193 
Q 2250 -91 1575 -91 
Q 1294 -91 989 -36 
Q 684 19 347 128 
L 347 722 
Q 666 556 975 473 
Q 1284 391 1588 391 
Q 1994 391 2212 530 
Q 2431 669 2431 922 
Q 2431 1156 2273 1281 
Q 2116 1406 1581 1522 
L 1381 1569 
Q 847 1681 609 1914 
Q 372 2147 372 2553 
Q 372 3047 722 3315 
Q 1072 3584 1716 3584 
Q 2034 3584 2315 3537 
Q 2597 3491 2834 3397 
z
" transform="scale(0.015625)"/>
      </defs>
      <use xlink:href="#DejaVuSans-53"/>
      <use xlink:href="#DejaVuSans-74" transform="translate(63.476562 0)"/>
      <use xlink:href="#DejaVuSans-65" transform="translate(102.685547 0)"/>
      <use xlink:href="#DejaVuSans-70" transform="translate(164.208984 0)"/>
      <use xlink:href="#DejaVuSans-73" transform="translate(227.685547 0)"/>
     </g>
    </g>
   </g>
   <g id="matplotlib.axis_2">
    <g id="ytick_1">
     <g id="line2d_13">
      <path d="M 47.72 369.75368 
L 709.2 369.75368 
" clip-path="url(#pc1db3bab27)" style="fill: none; stroke: #b0b0b0; stroke-width: 0.8; stroke-linecap: square"/>
     </g>
     <g id="line2d_14">
      <defs>
       <path id="m4eacefaad5" d="M 0 0 
L -3.5 0 
" style="stroke: #000000; stroke-width: 0.8"/>
      </defs>
      <g>
       <use xlink:href="#m4eacefaad5" x="47.72" y="369.75368" style="stroke: #000000; stroke-width: 0.8"/>
      </g>
     </g>
     <g id="text_8">
      <!-- 1.0 -->
      <g transform="translate(24.816875 373.552899) scale(0.1 -0.1)">
       <defs>
        <path id="DejaVuSans-2e" d="M 684 794 
L 1344 794 
L 1344 0 
L 684 0 
L 684 794 
z
" transform="scale(0.015625)"/>
       </defs>
       <use xlink:href="#DejaVuSans-31"/>
       <use xlink:href="#DejaVuSans-2e" transform="translate(63.623047 0)"/>
       <use xlink:href="#DejaVuSans-30" transform="translate(95.410156 0)"/>
      </g>
     </g>
    </g>
    <g id="ytick_2">
     <g id="line2d_15">
      <path d="M 47.72 324.634013 
L 709.2 324.634013 
" clip-path="url(#pc1db3bab27)" style="fill: none; stroke: #b0b0b0; stroke-width: 0.8; stroke-linecap: square"/>
     </g>
     <g id="line2d_16">
      <g>
       <use xlink:href="#m4eacefaad5" x="47.72" y="324.634013" style="stroke: #000000; stroke-width: 0.8"/>
      </g>
     </g>
     <g id="text_9">
      <!-- 1.5 -->
      <g transform="translate(24.816875 328.433232) scale(0.1 -0.1)">
       <defs>
        <path id="DejaVuSans-35" d="M 691 4666 
L 3169 4666 
L 3169 4134 
L 1269 4134 
L 1269 2991 
Q 1406 3038 1543 3061 
Q 1681 3084 1819 3084 
Q 2600 3084 3056 2656 
Q 3513 2228 3513 1497 
Q 3513 744 3044 326 
Q 2575 -91 1722 -91 
Q 1428 -91 1123 -41 
Q 819 9 494 109 
L 494 744 
Q 775 591 1075 516 
Q 1375 441 1709 441 
Q 2250 441 2565 725 
Q 2881 1009 2881 1497 
Q 2881 1984 2565 2268 
Q 2250 2553 1709 2553 
Q 1456 2553 1204 2497 
Q 953 2441 691 2322 
L 691 4666 
z
" transform="scale(0.015625)"/>
       </defs>
       <use xlink:href="#DejaVuSans-31"/>
       <use xlink:href="#DejaVuSans-2e" transform="translate(63.623047 0)"/>
       <use xlink:href="#DejaVuSans-35" transform="translate(95.410156 0)"/>
      </g>
     </g>
    </g>
    <g id="ytick_3">
     <g id="line2d_17">
      <path d="M 47.72 279.514347 
L 709.2 279.514347 
" clip-path="url(#pc1db3bab27)" style="fill: none; stroke: #b0b0b0; stroke-width: 0.8; stroke-linecap: square"/>
     </g>
     <g id="line2d_18">
      <g>
       <use xlink:href="#m4eacefaad5" x="47.72" y="279.514347" style="stroke: #000000; stroke-width: 0.8"/>
      </g>
     </g>
     <g id="text_10">
      <!-- 2.0 -->
      <g transform="translate(24.816875 283.313565) scale(0.1 -0.1)">
       <use xlink:href="#DejaVuSans-32"/>
       <use xlink:href="#DejaVuSans-2e" transform="translate(63.623047 0)"/>
       <use xlink:href="#DejaVuSans-30" transform="translate(95.410156 0)"/>
      </g>
     </g>
    </g>
    <g id="ytick_4">
     <g id="line2d_19">
      <path d="M 47.72 234.39468 
L 709.2 234.39468 
" clip-path="url(#pc1db3bab27)" style="fill: none; stroke: #b0b0b0; stroke-width: 0.8; stroke-linecap: square"/>
     </g>
     <g id="line2d_20">
      <g>
       <use xlink:href="#m4eacefaad5" x="47.72" y="234.39468" style="stroke: #000000; stroke-width: 0.8"/>
      </g>
     </g>
     <g id="text_11">
      <!-- 2.5 -->
      <g transform="translate(24.816875 238.193899) scale(0.1 -0.1)">
       <use xlink:href="#DejaVuSans-32"/>
       <use xlink:href="#DejaVuSans-2e" transform="translate(63.623047 0)"/>
       <use xlink:href="#DejaVuSans-35" transform="translate(95.410156 0)"/>
      </g>
     </g>
    </g>
    <g id="ytick_5">
     <g id="line2d_21">
      <path d="M 47.72 189.275014 
L 709.2 189.275014 
" clip-path="url(#pc1db3bab27)" style="fill: none; stroke: #b0b0b0; stroke-width: 0.8; stroke-linecap: square"/>
     </g>
     <g id="line2d_22">
      <g>
       <use xlink:href="#m4eacefaad5" x="47.72" y="189.275014" style="stroke: #000000; stroke-width: 0.8"/>
      </g>
     </g>
     <g id="text_12">
      <!-- 3.0 -->
      <g transform="translate(24.816875 193.074232) scale(0.1 -0.1)">
       <defs>
        <path id="DejaVuSans-33" d="M 2597 2516 
Q 3050 2419 3304 2112 
Q 3559 1806 3559 1356 
Q 3559 666 3084 287 
Q 2609 -91 1734 -91 
Q 1441 -91 1130 -33 
Q 819 25 488 141 
L 488 750 
Q 750 597 1062 519 
Q 1375 441 1716 441 
Q 2309 441 2620 675 
Q 2931 909 2931 1356 
Q 2931 1769 2642 2001 
Q 2353 2234 1838 2234 
L 1294 2234 
L 1294 2753 
L 1863 2753 
Q 2328 2753 2575 2939 
Q 2822 3125 2822 3475 
Q 2822 3834 2567 4026 
Q 2313 4219 1838 4219 
Q 1578 4219 1281 4162 
Q 984 4106 628 3988 
L 628 4550 
Q 988 4650 1302 4700 
Q 1616 4750 1894 4750 
Q 2613 4750 3031 4423 
Q 3450 4097 3450 3541 
Q 3450 3153 3228 2886 
Q 3006 2619 2597 2516 
z
" transform="scale(0.015625)"/>
       </defs>
       <use xlink:href="#DejaVuSans-33"/>
       <use xlink:href="#DejaVuSans-2e" transform="translate(63.623047 0)"/>
       <use xlink:href="#DejaVuSans-30" transform="translate(95.410156 0)"/>
      </g>
     </g>
    </g>
    <g id="ytick_6">
     <g id="line2d_23">
      <path d="M 47.72 144.155347 
L 709.2 144.155347 
" clip-path="url(#pc1db3bab27)" style="fill: none; stroke: #b0b0b0; stroke-width: 0.8; stroke-linecap: square"/>
     </g>
     <g id="line2d_24">
      <g>
       <use xlink:href="#m4eacefaad5" x="47.72" y="144.155347" style="stroke: #000000; stroke-width: 0.8"/>
      </g>
     </g>
     <g id="text_13">
      <!-- 3.5 -->
      <g transform="translate(24.816875 147.954566) scale(0.1 -0.1)">
       <use xlink:href="#DejaVuSans-33"/>
       <use xlink:href="#DejaVuSans-2e" transform="translate(63.623047 0)"/>
       <use xlink:href="#DejaVuSans-35" transform="translate(95.410156 0)"/>
      </g>
     </g>
    </g>
    <g id="ytick_7">
     <g id="line2d_25">
      <path d="M 47.72 99.03568 
L 709.2 99.03568 
" clip-path="url(#pc1db3bab27)" style="fill: none; stroke: #b0b0b0; stroke-width: 0.8; stroke-linecap: square"/>
     </g>
     <g id="line2d_26">
      <g>
       <use xlink:href="#m4eacefaad5" x="47.72" y="99.03568" style="stroke: #000000; stroke-width: 0.8"/>
      </g>
     </g>
     <g id="text_14">
      <!-- 4.0 -->
      <g transform="translate(24.816875 102.834899) scale(0.1 -0.1)">
       <use xlink:href="#DejaVuSans-34"/>
       <use xlink:href="#DejaVuSans-2e" transform="translate(63.623047 0)"/>
       <use xlink:href="#DejaVuSans-30" transform="translate(95.410156 0)"/>
      </g>
     </g>
    </g>
    <g id="ytick_8">
     <g id="line2d_27">
      <path d="M 47.72 53.916014 
L 709.2 53.916014 
" clip-path="url(#pc1db3bab27)" style="fill: none; stroke: #b0b0b0; stroke-width: 0.8; stroke-linecap: square"/>
     </g>
     <g id="line2d_28">
      <g>
       <use xlink:href="#m4eacefaad5" x="47.72" y="53.916014" style="stroke: #000000; stroke-width: 0.8"/>
      </g>
     </g>
     <g id="text_15">
      <!-- 4.5 -->
      <g transform="translate(24.816875 57.715233) scale(0.1 -0.1)">
       <use xlink:href="#DejaVuSans-34"/>
       <use xlink:href="#DejaVuSans-2e" transform="translate(63.623047 0)"/>
       <use xlink:href="#DejaVuSans-35" transform="translate(95.410156 0)"/>
      </g>
     </g>
    </g>
    <g id="text_16">
     <!-- Quantum Gates -->
     <g transform="translate(18.737188 239.925469) rotate(-90) scale(0.1 -0.1)">
      <defs>
       <path id="DejaVuSans-51" d="M 2522 4238 
Q 1834 4238 1429 3725 
Q 1025 3213 1025 2328 
Q 1025 1447 1429 934 
Q 1834 422 2522 422 
Q 3209 422 3611 934 
Q 4013 1447 4013 2328 
Q 4013 3213 3611 3725 
Q 3209 4238 2522 4238 
z
M 3406 84 
L 4238 -825 
L 3475 -825 
L 2784 -78 
Q 2681 -84 2626 -87 
Q 2572 -91 2522 -91 
Q 1538 -91 948 567 
Q 359 1225 359 2328 
Q 359 3434 948 4092 
Q 1538 4750 2522 4750 
Q 3503 4750 4090 4092 
Q 4678 3434 4678 2328 
Q 4678 1516 4351 937 
Q 4025 359 3406 84 
z
" transform="scale(0.015625)"/>
       <path id="DejaVuSans-75" d="M 544 1381 
L 544 3500 
L 1119 3500 
L 1119 1403 
Q 1119 906 1312 657 
Q 1506 409 1894 409 
Q 2359 409 2629 706 
Q 2900 1003 2900 1516 
L 2900 3500 
L 3475 3500 
L 3475 0 
L 2900 0 
L 2900 538 
Q 2691 219 2414 64 
Q 2138 -91 1772 -91 
Q 1169 -91 856 284 
Q 544 659 544 1381 
z
M 1991 3584 
L 1991 3584 
z
" transform="scale(0.015625)"/>
       <path id="DejaVuSans-61" d="M 2194 1759 
Q 1497 1759 1228 1600 
Q 959 1441 959 1056 
Q 959 750 1161 570 
Q 1363 391 1709 391 
Q 2188 391 2477 730 
Q 2766 1069 2766 1631 
L 2766 1759 
L 2194 1759 
z
M 3341 1997 
L 3341 0 
L 2766 0 
L 2766 531 
Q 2569 213 2275 61 
Q 1981 -91 1556 -91 
Q 1019 -91 701 211 
Q 384 513 384 1019 
Q 384 1609 779 1909 
Q 1175 2209 1959 2209 
L 2766 2209 
L 2766 2266 
Q 2766 2663 2505 2880 
Q 2244 3097 1772 3097 
Q 1472 3097 1187 3025 
Q 903 2953 641 2809 
L 641 3341 
Q 956 3463 1253 3523 
Q 1550 3584 1831 3584 
Q 2591 3584 2966 3190 
Q 3341 2797 3341 1997 
z
" transform="scale(0.015625)"/>
       <path id="DejaVuSans-6e" d="M 3513 2113 
L 3513 0 
L 2938 0 
L 2938 2094 
Q 2938 2591 2744 2837 
Q 2550 3084 2163 3084 
Q 1697 3084 1428 2787 
Q 1159 2491 1159 1978 
L 1159 0 
L 581 0 
L 581 3500 
L 1159 3500 
L 1159 2956 
Q 1366 3272 1645 3428 
Q 1925 3584 2291 3584 
Q 2894 3584 3203 3211 
Q 3513 2838 3513 2113 
z
" transform="scale(0.015625)"/>
       <path id="DejaVuSans-6d" d="M 3328 2828 
Q 3544 3216 3844 3400 
Q 4144 3584 4550 3584 
Q 5097 3584 5394 3201 
Q 5691 2819 5691 2113 
L 5691 0 
L 5113 0 
L 5113 2094 
Q 5113 2597 4934 2840 
Q 4756 3084 4391 3084 
Q 3944 3084 3684 2787 
Q 3425 2491 3425 1978 
L 3425 0 
L 2847 0 
L 2847 2094 
Q 2847 2600 2669 2842 
Q 2491 3084 2119 3084 
Q 1678 3084 1418 2786 
Q 1159 2488 1159 1978 
L 1159 0 
L 581 0 
L 581 3500 
L 1159 3500 
L 1159 2956 
Q 1356 3278 1631 3431 
Q 1906 3584 2284 3584 
Q 2666 3584 2933 3390 
Q 3200 3197 3328 2828 
z
" transform="scale(0.015625)"/>
       <path id="DejaVuSans-20" transform="scale(0.015625)"/>
       <path id="DejaVuSans-47" d="M 3809 666 
L 3809 1919 
L 2778 1919 
L 2778 2438 
L 4434 2438 
L 4434 434 
Q 4069 175 3628 42 
Q 3188 -91 2688 -91 
Q 1594 -91 976 548 
Q 359 1188 359 2328 
Q 359 3472 976 4111 
Q 1594 4750 2688 4750 
Q 3144 4750 3555 4637 
Q 3966 4525 4313 4306 
L 4313 3634 
Q 3963 3931 3569 4081 
Q 3175 4231 2741 4231 
Q 1884 4231 1454 3753 
Q 1025 3275 1025 2328 
Q 1025 1384 1454 906 
Q 1884 428 2741 428 
Q 3075 428 3337 486 
Q 3600 544 3809 666 
z
" transform="scale(0.015625)"/>
      </defs>
      <use xlink:href="#DejaVuSans-51"/>
      <use xlink:href="#DejaVuSans-75" transform="translate(78.710938 0)"/>
      <use xlink:href="#DejaVuSans-61" transform="translate(142.089844 0)"/>
      <use xlink:href="#DejaVuSans-6e" transform="translate(203.369141 0)"/>
      <use xlink:href="#DejaVuSans-74" transform="translate(266.748047 0)"/>
      <use xlink:href="#DejaVuSans-75" transform="translate(305.957031 0)"/>
      <use xlink:href="#DejaVuSans-6d" transform="translate(369.335938 0)"/>
      <use xlink:href="#DejaVuSans-20" transform="translate(466.748047 0)"/>
      <use xlink:href="#DejaVuSans-47" transform="translate(498.535156 0)"/>
      <use xlink:href="#DejaVuSans-61" transform="translate(576.025391 0)"/>
      <use xlink:href="#DejaVuSans-74" transform="translate(637.304688 0)"/>
      <use xlink:href="#DejaVuSans-65" transform="translate(676.513672 0)"/>
      <use xlink:href="#DejaVuSans-73" transform="translate(738.037109 0)"/>
     </g>
    </g>
   </g>
   <g id="line2d_29">
    <path d="M 77.847939 163.556804 
L 81.542535 216.948409 
L 84.490931 261.917677 
L 88.992392 322.37803 
L 90.72139 335.462733 
L 92.274455 352.307409 
L 93.669786 359.827353 
L 94.974118 363.737724 
L 96.24205 365.993708 
L 97.497848 368.700888 
L 98.72938 368.700888 
L 99.942712 368.851286 
L 101.168177 369.302483 
L 102.387576 369.001685 
L 103.606974 369.001685 
L 104.820306 369.452882 
L 106.045771 369.452882 
L 107.259103 369.75368 
L 108.472435 369.75368 
L 109.685767 369.452882 
L 110.899098 369.302483 
L 112.118497 369.603281 
L 113.331829 369.452882 
L 114.551227 369.75368 
L 116.977891 369.75368 
L 118.191223 369.452882 
L 119.404554 369.75368 
L 121.831218 369.75368 
L 123.04455 369.603281 
L 124.257882 369.75368 
L 125.471214 369.603281 
L 126.684545 369.75368 
L 132.751205 369.75368 
L 133.964536 369.603281 
L 135.177868 369.75368 
L 141.244527 369.75368 
L 142.457859 369.603281 
L 143.671191 369.603281 
L 144.89059 369.75368 
L 148.530585 369.75368 
L 149.749984 369.603281 
L 150.963315 369.603281 
L 152.182714 369.75368 
L 153.396046 369.75368 
L 154.609377 369.603281 
L 155.822709 369.75368 
L 157.036041 369.75368 
L 158.25544 369.603281 
L 159.468771 369.75368 
L 167.962094 369.75368 
L 169.181493 369.603281 
L 170.394825 369.603281 
L 171.608156 369.75368 
L 172.821488 369.75368 
L 174.03482 369.603281 
L 175.248152 369.75368 
L 187.38147 369.75368 
L 188.594802 369.603281 
L 189.808134 369.75368 
L 237.128075 369.75368 
L 238.347474 369.603281 
L 239.560806 369.75368 
L 269.894101 369.75368 
L 271.107433 369.603281 
L 272.320765 369.75368 
L 282.02742 369.75368 
L 283.240751 369.603281 
L 284.454083 369.75368 
L 306.294056 369.75368 
L 307.507388 369.603281 
L 308.72072 369.75368 
L 409.427262 369.75368 
L 410.640593 369.603281 
L 411.853925 369.75368 
L 529.547113 369.75368 
L 530.760445 369.603281 
L 531.979843 369.75368 
L 540.473166 369.75368 
L 541.686498 369.603281 
L 542.899829 369.75368 
L 635.113049 369.75368 
L 636.32638 369.603281 
L 637.545779 369.75368 
L 678.799061 369.75368 
L 678.799061 369.75368 
" clip-path="url(#pc1db3bab27)" style="fill: none; stroke: #0000ff; stroke-width: 1.5; stroke-linecap: square"/>
   </g>
   <g id="line2d_30">
    <path d="M 77.787273 158.443241 
L 81.876201 157.992045 
L 85.734596 160.849624 
L 89.920591 145.508937 
L 93.80932 159.796831 
L 97.673781 154.081674 
L 101.89011 161.902416 
L 106.033638 158.292843 
L 110.262099 162.052815 
L 114.308561 154.081674 
L 118.458156 156.488056 
L 122.60775 148.366516 
L 126.757345 156.488056 
L 130.973673 162.65441 
L 134.983735 152.577685 
L 139.321396 149.870505 
L 143.416391 168.971164 
L 147.420386 152.577685 
L 151.375848 157.691247 
L 155.42231 155.585663 
L 159.505171 152.577685 
L 163.497033 150.4721 
L 167.604161 145.809735 
L 171.596023 155.435264 
L 175.600018 153.17928 
L 179.870946 154.53287 
L 184.123674 160.548826 
L 188.255069 149.419308 
L 192.671597 151.073696 
L 196.857592 144.456145 
L 201.049653 155.435264 
L 205.162848 158.894438 
L 209.239643 156.337657 
L 213.395305 161.150421 
L 217.544899 160.849624 
L 221.573161 155.585663 
L 225.722756 155.435264 
L 229.714618 166.414383 
L 233.894546 144.004948 
L 238.056274 150.772898 
L 242.060269 146.862527 
L 246.191664 159.796831 
L 250.310926 152.878483 
L 254.67892 145.960134 
L 258.737515 159.044837 
L 262.771843 157.841646 
L 266.721239 161.902416 
L 270.8405 156.187258 
L 275.323761 162.955208 
L 279.273156 160.699225 
L 283.356018 150.622499 
L 287.27508 162.804809 
L 291.309408 156.187258 
L 295.459003 156.638455 
L 299.742064 150.020904 
L 303.976592 157.841646 
L 308.016987 154.081674 
L 312.118049 159.345635 
L 316.206977 144.305746 
L 320.241306 155.134466 
L 324.324167 150.171303 
L 328.303896 168.670366 
L 332.52629 156.187258 
L 336.463552 151.976089 
L 340.69808 149.720106 
L 344.981142 151.524893 
L 349.221736 150.171303 
L 353.389531 150.4721 
L 357.514859 160.097629 
L 361.640188 139.944178 
L 366.074915 154.683269 
L 370.11531 156.939253 
L 374.246705 154.081674 
L 378.202167 164.609596 
L 382.248629 154.382471 
L 386.489223 155.585663 
L 390.669152 165.662388 
L 394.673147 164.158399 
L 398.804541 150.171303 
L 403.312069 150.923297 
L 407.558731 151.073696 
L 411.647659 160.097629 
L 415.681987 151.073696 
L 420.001449 156.187258 
L 423.944777 163.406405 
L 428.088305 158.894438 
L 432.013434 155.435264 
L 436.102362 154.382471 
L 440.179157 155.134466 
L 444.353018 169.723158 
L 448.350947 155.284865 
L 452.670408 156.337657 
L 456.923136 149.268909 
L 461.169797 157.691247 
L 465.082793 149.720106 
L 469.347654 163.105607 
L 473.266716 153.780876 
L 477.040178 144.004948 
L 481.038106 157.24005 
L 485.266568 156.488056 
L 489.331229 157.691247 
L 493.480824 158.142444 
L 497.539419 160.548826 
L 501.682947 142.801757 
L 506.014542 157.390449 
L 509.951804 157.390449 
L 514.119598 157.992045 
L 518.12966 163.857601 
L 522.066922 159.044837 
L 526.070917 152.878483 
L 530.250845 157.089651 
L 534.70984 145.508937 
L 538.950434 143.102555 
L 543.203162 153.17928 
L 547.267824 150.020904 
L 551.350686 161.150421 
L 555.670147 141.448167 
L 560.038142 142.952156 
L 564.242336 153.480078 
L 568.361598 159.796831 
L 572.486926 157.089651 
L 577.140054 153.630477 
L 581.192582 151.224095 
L 585.15411 162.504011 
L 589.261239 156.036859 
L 593.3623 158.59364 
L 597.329895 158.894438 
L 601.485557 152.276887 
L 605.641218 148.516915 
L 609.730147 157.390449 
L 613.770542 159.044837 
L 617.93227 161.752017 
L 622.130398 156.036859 
L 626.055526 162.203214 
L 630.192988 163.556804 
L 634.18485 157.24005 
L 638.243445 161.150421 
L 642.453706 148.216117 
L 646.603301 164.910394 
L 650.601229 152.126488 
L 654.811491 156.036859 
L 658.827619 157.992045 
L 662.625348 162.65441 
L 666.683943 161.30082 
L 670.851738 157.540848 
L 674.989199 150.171303 
L 679.132727 158.59364 
L 679.132727 158.59364 
" clip-path="url(#pc1db3bab27)" style="fill: none; stroke: #ffa500; stroke-width: 1.5; stroke-linecap: square"/>
   </g>
   <g id="patch_3">
    <path d="M 47.72 390.04 
L 47.72 10.8 
" style="fill: none; stroke: #000000; stroke-width: 0.8; stroke-linejoin: miter; stroke-linecap: square"/>
   </g>
   <g id="patch_4">
    <path d="M 709.2 390.04 
L 709.2 10.8 
" style="fill: none; stroke: #000000; stroke-width: 0.8; stroke-linejoin: miter; stroke-linecap: square"/>
   </g>
   <g id="patch_5">
    <path d="M 47.72 390.04 
L 709.2 390.04 
" style="fill: none; stroke: #000000; stroke-width: 0.8; stroke-linejoin: miter; stroke-linecap: square"/>
   </g>
   <g id="patch_6">
    <path d="M 47.72 10.8 
L 709.2 10.8 
" style="fill: none; stroke: #000000; stroke-width: 0.8; stroke-linejoin: miter; stroke-linecap: square"/>
   </g>
   <g id="legend_1">
    <g id="patch_7">
     <path d="M 628.803125 385.04 
L 702.2 385.04 
Q 704.2 385.04 704.2 383.04 
L 704.2 340.005625 
Q 704.2 338.005625 702.2 338.005625 
L 628.803125 338.005625 
Q 626.803125 338.005625 626.803125 340.005625 
L 626.803125 383.04 
Q 626.803125 385.04 628.803125 385.04 
z
" style="fill: #ffffff; opacity: 0.8; stroke: #cccccc; stroke-linejoin: miter"/>
    </g>
    <g id="text_17">
     <!-- Agent -->
     <g transform="translate(650.701563 349.604062) scale(0.1 -0.1)">
      <defs>
       <path id="DejaVuSans-41" d="M 2188 4044 
L 1331 1722 
L 3047 1722 
L 2188 4044 
z
M 1831 4666 
L 2547 4666 
L 4325 0 
L 3669 0 
L 3244 1197 
L 1141 1197 
L 716 0 
L 50 0 
L 1831 4666 
z
" transform="scale(0.015625)"/>
       <path id="DejaVuSans-67" d="M 2906 1791 
Q 2906 2416 2648 2759 
Q 2391 3103 1925 3103 
Q 1463 3103 1205 2759 
Q 947 2416 947 1791 
Q 947 1169 1205 825 
Q 1463 481 1925 481 
Q 2391 481 2648 825 
Q 2906 1169 2906 1791 
z
M 3481 434 
Q 3481 -459 3084 -895 
Q 2688 -1331 1869 -1331 
Q 1566 -1331 1297 -1286 
Q 1028 -1241 775 -1147 
L 775 -588 
Q 1028 -725 1275 -790 
Q 1522 -856 1778 -856 
Q 2344 -856 2625 -561 
Q 2906 -266 2906 331 
L 2906 616 
Q 2728 306 2450 153 
Q 2172 0 1784 0 
Q 1141 0 747 490 
Q 353 981 353 1791 
Q 353 2603 747 3093 
Q 1141 3584 1784 3584 
Q 2172 3584 2450 3431 
Q 2728 3278 2906 2969 
L 2906 3500 
L 3481 3500 
L 3481 434 
z
" transform="scale(0.015625)"/>
      </defs>
      <use xlink:href="#DejaVuSans-41"/>
      <use xlink:href="#DejaVuSans-67" transform="translate(68.408203 0)"/>
      <use xlink:href="#DejaVuSans-65" transform="translate(131.884766 0)"/>
      <use xlink:href="#DejaVuSans-6e" transform="translate(193.408203 0)"/>
      <use xlink:href="#DejaVuSans-74" transform="translate(256.787109 0)"/>
     </g>
    </g>
    <g id="line2d_31">
     <path d="M 630.803125 360.782187 
L 640.803125 360.782187 
L 650.803125 360.782187 
" style="fill: none; stroke: #0000ff; stroke-width: 1.5; stroke-linecap: square"/>
    </g>
    <g id="text_18">
     <!-- PPO -->
     <g transform="translate(658.803125 364.282187) scale(0.1 -0.1)">
      <defs>
       <path id="DejaVuSans-50" d="M 1259 4147 
L 1259 2394 
L 2053 2394 
Q 2494 2394 2734 2622 
Q 2975 2850 2975 3272 
Q 2975 3691 2734 3919 
Q 2494 4147 2053 4147 
L 1259 4147 
z
M 628 4666 
L 2053 4666 
Q 2838 4666 3239 4311 
Q 3641 3956 3641 3272 
Q 3641 2581 3239 2228 
Q 2838 1875 2053 1875 
L 1259 1875 
L 1259 0 
L 628 0 
L 628 4666 
z
" transform="scale(0.015625)"/>
       <path id="DejaVuSans-4f" d="M 2522 4238 
Q 1834 4238 1429 3725 
Q 1025 3213 1025 2328 
Q 1025 1447 1429 934 
Q 1834 422 2522 422 
Q 3209 422 3611 934 
Q 4013 1447 4013 2328 
Q 4013 3213 3611 3725 
Q 3209 4238 2522 4238 
z
M 2522 4750 
Q 3503 4750 4090 4092 
Q 4678 3434 4678 2328 
Q 4678 1225 4090 567 
Q 3503 -91 2522 -91 
Q 1538 -91 948 565 
Q 359 1222 359 2328 
Q 359 3434 948 4092 
Q 1538 4750 2522 4750 
z
" transform="scale(0.015625)"/>
      </defs>
      <use xlink:href="#DejaVuSans-50"/>
      <use xlink:href="#DejaVuSans-50" transform="translate(60.302734 0)"/>
      <use xlink:href="#DejaVuSans-4f" transform="translate(120.605469 0)"/>
     </g>
    </g>
    <g id="line2d_32">
     <path d="M 630.803125 375.460312 
L 640.803125 375.460312 
L 650.803125 375.460312 
" style="fill: none; stroke: #ffa500; stroke-width: 1.5; stroke-linecap: square"/>
    </g>
    <g id="text_19">
     <!-- Random -->
     <g transform="translate(658.803125 378.960312) scale(0.1 -0.1)">
      <defs>
       <path id="DejaVuSans-52" d="M 2841 2188 
Q 3044 2119 3236 1894 
Q 3428 1669 3622 1275 
L 4263 0 
L 3584 0 
L 2988 1197 
Q 2756 1666 2539 1819 
Q 2322 1972 1947 1972 
L 1259 1972 
L 1259 0 
L 628 0 
L 628 4666 
L 2053 4666 
Q 2853 4666 3247 4331 
Q 3641 3997 3641 3322 
Q 3641 2881 3436 2590 
Q 3231 2300 2841 2188 
z
M 1259 4147 
L 1259 2491 
L 2053 2491 
Q 2509 2491 2742 2702 
Q 2975 2913 2975 3322 
Q 2975 3731 2742 3939 
Q 2509 4147 2053 4147 
L 1259 4147 
z
" transform="scale(0.015625)"/>
       <path id="DejaVuSans-64" d="M 2906 2969 
L 2906 4863 
L 3481 4863 
L 3481 0 
L 2906 0 
L 2906 525 
Q 2725 213 2448 61 
Q 2172 -91 1784 -91 
Q 1150 -91 751 415 
Q 353 922 353 1747 
Q 353 2572 751 3078 
Q 1150 3584 1784 3584 
Q 2172 3584 2448 3432 
Q 2725 3281 2906 2969 
z
M 947 1747 
Q 947 1113 1208 752 
Q 1469 391 1925 391 
Q 2381 391 2643 752 
Q 2906 1113 2906 1747 
Q 2906 2381 2643 2742 
Q 2381 3103 1925 3103 
Q 1469 3103 1208 2742 
Q 947 2381 947 1747 
z
" transform="scale(0.015625)"/>
       <path id="DejaVuSans-6f" d="M 1959 3097 
Q 1497 3097 1228 2736 
Q 959 2375 959 1747 
Q 959 1119 1226 758 
Q 1494 397 1959 397 
Q 2419 397 2687 759 
Q 2956 1122 2956 1747 
Q 2956 2369 2687 2733 
Q 2419 3097 1959 3097 
z
M 1959 3584 
Q 2709 3584 3137 3096 
Q 3566 2609 3566 1747 
Q 3566 888 3137 398 
Q 2709 -91 1959 -91 
Q 1206 -91 779 398 
Q 353 888 353 1747 
Q 353 2609 779 3096 
Q 1206 3584 1959 3584 
z
" transform="scale(0.015625)"/>
      </defs>
      <use xlink:href="#DejaVuSans-52"/>
      <use xlink:href="#DejaVuSans-61" transform="translate(67.232422 0)"/>
      <use xlink:href="#DejaVuSans-6e" transform="translate(128.511719 0)"/>
      <use xlink:href="#DejaVuSans-64" transform="translate(191.890625 0)"/>
      <use xlink:href="#DejaVuSans-6f" transform="translate(255.367188 0)"/>
      <use xlink:href="#DejaVuSans-6d" transform="translate(316.548828 0)"/>
     </g>
    </g>
   </g>
  </g>
 </g>
 <defs>
  <clipPath id="pc1db3bab27">
   <rect x="47.72" y="10.8" width="661.48" height="379.24"/>
  </clipPath>
 </defs>
</svg>
