<?xml version="1.0" encoding="utf-8" standalone="no"?>
<!DOCTYPE svg PUBLIC "-//W3C//DTD SVG 1.1//EN"
  "http://www.w3.org/Graphics/SVG/1.1/DTD/svg11.dtd">
<svg xmlns:xlink="http://www.w3.org/1999/xlink" width="720pt" height="432pt" viewBox="0 0 720 432" xmlns="http://www.w3.org/2000/svg" version="1.1">
 <metadata>
  <rdf:RDF xmlns:dc="http://purl.org/dc/elements/1.1/" xmlns:cc="http://creativecommons.org/ns#" xmlns:rdf="http://www.w3.org/1999/02/22-rdf-syntax-ns#">
   <cc:Work>
    <dc:type rdf:resource="http://purl.org/dc/dcmitype/StillImage"/>
    <dc:date>2025-04-22T23:15:29.742834</dc:date>
    <dc:format>image/svg+xml</dc:format>
    <dc:creator>
     <cc:Agent>
      <dc:title>Matplotlib v3.10.0, https://matplotlib.org/</dc:title>
     </cc:Agent>
    </dc:creator>
   </cc:Work>
  </rdf:RDF>
 </metadata>
 <defs>
  <style type="text/css">*{stroke-linejoin: round; stroke-linecap: butt}</style>
 </defs>
 <g id="figure_1">
  <g id="patch_1">
   <path d="M 0 432 
L 720 432 
L 720 0 
L 0 0 
z
" style="fill: #ffffff"/>
  </g>
  <g id="axes_1">
   <g id="patch_2">
    <path d="M 47.72 390.04 
L 709.2 390.04 
L 709.2 10.8 
L 47.72 10.8 
z
" style="fill: #ffffff"/>
   </g>
   <g id="FillBetweenPolyCollection_1">
    <path d="M 77.787273 228.008125 
L 77.787273 353.587557 
L 80.678357 342.852289 
L 83.569441 342.124791 
L 86.460524 344.991081 
L 89.351608 346.867772 
L 92.242692 336.212377 
L 95.133776 338.436009 
L 98.02486 349.111458 
L 100.915944 347.854785 
L 103.807028 347.301087 
L 106.698112 358.128917 
L 109.589196 355.633907 
L 112.48028 357.410418 
L 115.371364 358.02543 
L 118.262448 365.131268 
L 121.153531 362.554842 
L 124.044615 367.742028 
L 126.935699 365.842084 
L 129.826783 359.519404 
L 132.717867 364.078821 
L 135.608951 363.266761 
L 138.500035 371.87633 
L 141.391119 367.887552 
L 144.282203 368.147922 
L 147.173287 371.300458 
L 150.064371 367.90917 
L 152.955455 372.801818 
L 155.846538 367.595948 
L 158.737622 369.546082 
L 161.628706 369.467852 
L 164.51979 368.167176 
L 167.410874 364.263863 
L 170.301958 370.483726 
L 173.193042 364.607012 
L 176.084126 360.99701 
L 178.97521 362.349163 
L 181.866294 365.909764 
L 184.757378 359.937324 
L 187.648462 360.054504 
L 190.539545 360.286253 
L 193.430629 359.275021 
L 196.321713 359.155853 
L 199.212797 363.815562 
L 202.103881 363.678664 
L 204.994965 361.039084 
L 207.886049 356.949021 
L 210.777133 364.620363 
L 213.668217 358.439371 
L 216.559301 354.582375 
L 219.450385 355.858528 
L 222.341469 349.569752 
L 225.232552 348.152758 
L 228.123636 356.262346 
L 231.01472 351.742349 
L 233.905804 343.481282 
L 236.796888 342.04708 
L 239.687972 331.712665 
L 242.579056 328.03679 
L 245.47014 318.892887 
L 248.361224 319.460355 
L 251.252308 312.201865 
L 254.143392 289.831833 
L 257.034476 278.042122 
L 259.925559 282.138352 
L 262.816643 279.39491 
L 265.707727 285.257675 
L 268.598811 265.294885 
L 271.489895 269.419452 
L 274.380979 263.98447 
L 277.272063 265.441582 
L 280.163147 267.69991 
L 283.054231 259.595637 
L 285.945315 250.246398 
L 288.836399 263.953877 
L 291.727483 256.177522 
L 294.618566 243.371634 
L 297.50965 235.412847 
L 300.400734 240.469849 
L 303.291818 236.677671 
L 306.182902 228.355121 
L 309.073986 216.349055 
L 311.96507 225.460082 
L 314.856154 208.053114 
L 317.747238 223.767515 
L 320.638322 207.43157 
L 323.529406 211.642139 
L 326.42049 217.170331 
L 329.311573 220.724154 
L 332.202657 232.891321 
L 335.093741 247.127091 
L 337.984825 264.196641 
L 340.875909 235.467258 
L 343.766993 267.835852 
L 346.658077 236.521278 
L 349.549161 211.15714 
L 352.440245 183.062462 
L 355.331329 185.604444 
L 358.222413 168.421641 
L 361.113497 162.404295 
L 364.00458 163.651358 
L 366.895664 158.118822 
L 369.786748 153.246616 
L 372.677832 176.492589 
L 375.568916 172.954264 
L 378.46 203.345537 
L 381.351084 218.181771 
L 384.242168 188.992134 
L 387.133252 178.191078 
L 390.024336 190.487425 
L 392.91542 212.707413 
L 395.806503 238.548737 
L 398.697587 234.559228 
L 401.588671 245.955436 
L 404.479755 247.112101 
L 407.370839 252.252454 
L 410.261923 244.230451 
L 413.153007 256.657548 
L 416.044091 269.67706 
L 418.935175 286.201503 
L 421.826259 274.216005 
L 424.717343 283.779238 
L 427.608427 283.707559 
L 430.49951 258.314329 
L 433.390594 266.539599 
L 436.281678 260.542463 
L 439.172762 240.912405 
L 442.063846 237.714897 
L 444.95493 239.76885 
L 447.846014 268.091415 
L 450.737098 275.592365 
L 453.628182 242.46168 
L 456.519266 245.866811 
L 459.41035 277.267733 
L 462.301434 255.637444 
L 465.192517 243.541271 
L 468.083601 239.378584 
L 470.974685 233.487058 
L 473.865769 236.352348 
L 476.756853 255.395556 
L 479.647937 253.34931 
L 482.539021 241.870383 
L 485.430105 249.089277 
L 488.321189 268.980465 
L 491.212273 254.725864 
L 494.103357 245.824361 
L 496.994441 237.30918 
L 499.885524 230.31048 
L 502.776608 220.237149 
L 505.667692 238.50206 
L 508.558776 246.603563 
L 511.44986 229.240875 
L 514.340944 212.365387 
L 517.232028 174.723751 
L 520.123112 174.212283 
L 523.014196 164.285165 
L 525.90528 147.65746 
L 528.796364 157.42204 
L 531.687448 156.452449 
L 534.578531 223.266419 
L 537.469615 305.354785 
L 540.360699 203.20486 
L 543.251783 159.714097 
L 546.142867 160.784581 
L 549.033951 161.734971 
L 551.925035 147.37748 
L 554.816119 139.764994 
L 557.707203 140.83082 
L 560.598287 138.574006 
L 563.489371 142.897723 
L 566.380455 136.696068 
L 569.271538 137.34896 
L 572.162622 137.885036 
L 575.053706 140.492565 
L 577.94479 134.20578 
L 580.835874 146.0595 
L 583.726958 136.916363 
L 586.618042 137.952604 
L 589.509126 145.774954 
L 592.40021 142.481885 
L 595.291294 138.035359 
L 598.182378 139.08946 
L 601.073462 135.644762 
L 603.964545 137.803982 
L 606.855629 134.049951 
L 609.746713 143.174039 
L 612.637797 147.395426 
L 615.528881 142.07797 
L 618.419965 136.428184 
L 621.311049 148.669299 
L 624.202133 150.850823 
L 627.093217 149.398958 
L 629.984301 153.436412 
L 632.875385 151.204305 
L 635.766469 146.596883 
L 638.657552 150.249229 
L 641.548636 149.385961 
L 644.43972 142.563458 
L 647.330804 257.834576 
L 650.221888 263.208997 
L 653.112972 209.194518 
L 656.004056 141.725782 
L 658.89514 169.417153 
L 661.786224 199.352301 
L 664.677308 152.045672 
L 667.568392 138.105028 
L 670.459476 134.297271 
L 673.350559 216.538041 
L 676.241643 170.442429 
L 679.132727 143.736849 
L 679.132727 29.629809 
L 679.132727 29.629809 
L 676.241643 37.305766 
L 673.350559 45.986528 
L 670.459476 28.064836 
L 667.568392 29.725399 
L 664.677308 32.225085 
L 661.786224 43.373457 
L 658.89514 37.248938 
L 656.004056 31.063848 
L 653.112972 48.078395 
L 650.221888 62.661263 
L 647.330804 59.715779 
L 644.43972 33.429236 
L 641.548636 34.425202 
L 638.657552 37.095448 
L 635.766469 41.033382 
L 632.875385 44.604595 
L 629.984301 45.172536 
L 627.093217 44.834487 
L 624.202133 37.459542 
L 621.311049 32.638916 
L 618.419965 28.734777 
L 615.528881 29.779522 
L 612.637797 29.741616 
L 609.746713 30.074786 
L 606.855629 28.461716 
L 603.964545 28.922107 
L 601.073462 28.210337 
L 598.182378 28.30885 
L 595.291294 28.762075 
L 592.40021 29.418049 
L 589.509126 29.971964 
L 586.618042 28.874944 
L 583.726958 28.207186 
L 580.835874 29.654675 
L 577.94479 28.871596 
L 575.053706 29.132404 
L 572.162622 28.720998 
L 569.271538 28.845981 
L 566.380455 29.154677 
L 563.489371 29.820357 
L 560.598287 29.556352 
L 557.707203 29.380474 
L 554.816119 29.297097 
L 551.925035 28.038182 
L 549.033951 28.58599 
L 546.142867 29.142464 
L 543.251783 28.112608 
L 540.360699 44.888569 
L 537.469615 99.042128 
L 534.578531 62.537922 
L 531.687448 28.736099 
L 528.796364 29.885439 
L 525.90528 29.414299 
L 523.014196 32.809553 
L 520.123112 37.883943 
L 517.232028 41.455121 
L 514.340944 54.494471 
L 511.44986 57.874561 
L 508.558776 52.947971 
L 505.667692 54.401027 
L 502.776608 47.353535 
L 499.885524 49.676288 
L 496.994441 46.937484 
L 494.103357 43.962168 
L 491.212273 49.335374 
L 488.321189 46.793317 
L 485.430105 46.996858 
L 482.539021 49.615703 
L 479.647937 51.197199 
L 476.756853 48.676196 
L 473.865769 54.269919 
L 470.974685 59.032629 
L 468.083601 59.980142 
L 465.192517 54.210467 
L 462.301434 58.088553 
L 459.41035 65.391689 
L 456.519266 60.890796 
L 453.628182 52.441905 
L 450.737098 58.116968 
L 447.846014 52.687655 
L 444.95493 55.019533 
L 442.063846 58.328799 
L 439.172762 51.398095 
L 436.281678 51.936306 
L 433.390594 53.307739 
L 430.49951 52.483683 
L 427.608427 76.098776 
L 424.717343 56.965182 
L 421.826259 42.616843 
L 418.935175 45.768867 
L 416.044091 44.136248 
L 413.153007 45.992758 
L 410.261923 47.196627 
L 407.370839 47.674614 
L 404.479755 42.615229 
L 401.588671 41.540997 
L 398.697587 35.78363 
L 395.806503 35.637265 
L 392.91542 35.480626 
L 390.024336 33.277902 
L 387.133252 35.210188 
L 384.242168 35.267351 
L 381.351084 36.869145 
L 378.46 32.127276 
L 375.568916 33.68861 
L 372.677832 37.246208 
L 369.786748 35.961345 
L 366.895664 36.382633 
L 364.00458 37.201442 
L 361.113497 35.854204 
L 358.222413 35.425228 
L 355.331329 38.511746 
L 352.440245 33.250417 
L 349.549161 37.358919 
L 346.658077 49.474076 
L 343.766993 57.41192 
L 340.875909 35.491023 
L 337.984825 41.176927 
L 335.093741 44.121124 
L 332.202657 48.096316 
L 329.311573 47.835461 
L 326.42049 50.726963 
L 323.529406 49.778301 
L 320.638322 52.017274 
L 317.747238 62.547359 
L 314.856154 55.310821 
L 311.96507 64.818393 
L 309.073986 56.236 
L 306.182902 62.875298 
L 303.291818 68.898798 
L 300.400734 74.788958 
L 297.50965 67.537389 
L 294.618566 76.391826 
L 291.727483 85.354522 
L 288.836399 79.830898 
L 285.945315 77.262364 
L 283.054231 93.597819 
L 280.163147 94.129554 
L 277.272063 93.049006 
L 274.380979 95.937471 
L 271.489895 104.702621 
L 268.598811 107.223843 
L 265.707727 122.050048 
L 262.816643 118.519901 
L 259.925559 119.99513 
L 257.034476 109.343314 
L 254.143392 116.154906 
L 251.252308 124.429377 
L 248.361224 130.253542 
L 245.47014 127.161586 
L 242.579056 143.388494 
L 239.687972 141.658342 
L 236.796888 156.898464 
L 233.905804 164.979456 
L 231.01472 178.72809 
L 228.123636 192.57717 
L 225.232552 165.930104 
L 222.341469 171.043726 
L 219.450385 180.955372 
L 216.559301 195.03749 
L 213.668217 176.006191 
L 210.777133 204.611763 
L 207.886049 208.694418 
L 204.994965 206.080577 
L 202.103881 222.468752 
L 199.212797 213.145294 
L 196.321713 206.88433 
L 193.430629 207.829075 
L 190.539545 215.059533 
L 187.648462 212.434037 
L 184.757378 210.750206 
L 181.866294 225.414731 
L 178.97521 226.972006 
L 176.084126 235.326299 
L 173.193042 235.519828 
L 170.301958 246.930291 
L 167.410874 242.945359 
L 164.51979 240.590419 
L 161.628706 246.810098 
L 158.737622 253.732393 
L 155.846538 231.04093 
L 152.955455 241.687044 
L 150.064371 219.515995 
L 147.173287 237.68249 
L 144.282203 242.937791 
L 141.391119 241.822188 
L 138.500035 244.40263 
L 135.608951 243.007696 
L 132.717867 244.290113 
L 129.826783 236.437682 
L 126.935699 246.45852 
L 124.044615 240.863174 
L 121.153531 250.804824 
L 118.262448 226.537221 
L 115.371364 240.10698 
L 112.48028 226.782787 
L 109.589196 224.803463 
L 106.698112 223.162378 
L 103.807028 221.260237 
L 100.915944 205.738591 
L 98.02486 228.257467 
L 95.133776 210.187655 
L 92.242692 205.880877 
L 89.351608 207.913817 
L 86.460524 220.31828 
L 83.569441 216.969649 
L 80.678357 218.938718 
L 77.787273 228.008125 
z
" clip-path="url(#p23dc514d2a)" style="fill: #1f77b4; fill-opacity: 0.2"/>
   </g>
   <g id="matplotlib.axis_1">
    <g id="xtick_1">
     <g id="line2d_1">
      <path d="M 76.327275 390.04 
L 76.327275 10.8 
" clip-path="url(#p23dc514d2a)" style="fill: none; stroke: #b0b0b0; stroke-width: 0.8; stroke-linecap: square"/>
     </g>
     <g id="line2d_2">
      <defs>
       <path id="mf9e088413e" d="M 0 0 
L 0 3.5 
" style="stroke: #000000; stroke-width: 0.8"/>
      </defs>
      <g>
       <use xlink:href="#mf9e088413e" x="76.327275" y="390.04" style="stroke: #000000; stroke-width: 0.8"/>
      </g>
     </g>
     <g id="text_1">
      <!-- 0 -->
      <g transform="translate(73.146025 404.638438) scale(0.1 -0.1)">
       <defs>
        <path id="DejaVuSans-30" d="M 2034 4250 
Q 1547 4250 1301 3770 
Q 1056 3291 1056 2328 
Q 1056 1369 1301 889 
Q 1547 409 2034 409 
Q 2525 409 2770 889 
Q 3016 1369 3016 2328 
Q 3016 3291 2770 3770 
Q 2525 4250 2034 4250 
z
M 2034 4750 
Q 2819 4750 3233 4129 
Q 3647 3509 3647 2328 
Q 3647 1150 3233 529 
Q 2819 -91 2034 -91 
Q 1250 -91 836 529 
Q 422 1150 422 2328 
Q 422 3509 836 4129 
Q 1250 4750 2034 4750 
z
" transform="scale(0.015625)"/>
       </defs>
       <use xlink:href="#DejaVuSans-30"/>
      </g>
     </g>
    </g>
    <g id="xtick_2">
     <g id="line2d_3">
      <path d="M 220.881471 390.04 
L 220.881471 10.8 
" clip-path="url(#p23dc514d2a)" style="fill: none; stroke: #b0b0b0; stroke-width: 0.8; stroke-linecap: square"/>
     </g>
     <g id="line2d_4">
      <g>
       <use xlink:href="#mf9e088413e" x="220.881471" y="390.04" style="stroke: #000000; stroke-width: 0.8"/>
      </g>
     </g>
     <g id="text_2">
      <!-- 10000 -->
      <g transform="translate(204.975221 404.638438) scale(0.1 -0.1)">
       <defs>
        <path id="DejaVuSans-31" d="M 794 531 
L 1825 531 
L 1825 4091 
L 703 3866 
L 703 4441 
L 1819 4666 
L 2450 4666 
L 2450 531 
L 3481 531 
L 3481 0 
L 794 0 
L 794 531 
z
" transform="scale(0.015625)"/>
       </defs>
       <use xlink:href="#DejaVuSans-31"/>
       <use xlink:href="#DejaVuSans-30" transform="translate(63.623047 0)"/>
       <use xlink:href="#DejaVuSans-30" transform="translate(127.246094 0)"/>
       <use xlink:href="#DejaVuSans-30" transform="translate(190.869141 0)"/>
       <use xlink:href="#DejaVuSans-30" transform="translate(254.492188 0)"/>
      </g>
     </g>
    </g>
    <g id="xtick_3">
     <g id="line2d_5">
      <path d="M 365.435667 390.04 
L 365.435667 10.8 
" clip-path="url(#p23dc514d2a)" style="fill: none; stroke: #b0b0b0; stroke-width: 0.8; stroke-linecap: square"/>
     </g>
     <g id="line2d_6">
      <g>
       <use xlink:href="#mf9e088413e" x="365.435667" y="390.04" style="stroke: #000000; stroke-width: 0.8"/>
      </g>
     </g>
     <g id="text_3">
      <!-- 20000 -->
      <g transform="translate(349.529417 404.638438) scale(0.1 -0.1)">
       <defs>
        <path id="DejaVuSans-32" d="M 1228 531 
L 3431 531 
L 3431 0 
L 469 0 
L 469 531 
Q 828 903 1448 1529 
Q 2069 2156 2228 2338 
Q 2531 2678 2651 2914 
Q 2772 3150 2772 3378 
Q 2772 3750 2511 3984 
Q 2250 4219 1831 4219 
Q 1534 4219 1204 4116 
Q 875 4013 500 3803 
L 500 4441 
Q 881 4594 1212 4672 
Q 1544 4750 1819 4750 
Q 2544 4750 2975 4387 
Q 3406 4025 3406 3419 
Q 3406 3131 3298 2873 
Q 3191 2616 2906 2266 
Q 2828 2175 2409 1742 
Q 1991 1309 1228 531 
z
" transform="scale(0.015625)"/>
       </defs>
       <use xlink:href="#DejaVuSans-32"/>
       <use xlink:href="#DejaVuSans-30" transform="translate(63.623047 0)"/>
       <use xlink:href="#DejaVuSans-30" transform="translate(127.246094 0)"/>
       <use xlink:href="#DejaVuSans-30" transform="translate(190.869141 0)"/>
       <use xlink:href="#DejaVuSans-30" transform="translate(254.492188 0)"/>
      </g>
     </g>
    </g>
    <g id="xtick_4">
     <g id="line2d_7">
      <path d="M 509.989863 390.04 
L 509.989863 10.8 
" clip-path="url(#p23dc514d2a)" style="fill: none; stroke: #b0b0b0; stroke-width: 0.8; stroke-linecap: square"/>
     </g>
     <g id="line2d_8">
      <g>
       <use xlink:href="#mf9e088413e" x="509.989863" y="390.04" style="stroke: #000000; stroke-width: 0.8"/>
      </g>
     </g>
     <g id="text_4">
      <!-- 30000 -->
      <g transform="translate(494.083613 404.638438) scale(0.1 -0.1)">
       <defs>
        <path id="DejaVuSans-33" d="M 2597 2516 
Q 3050 2419 3304 2112 
Q 3559 1806 3559 1356 
Q 3559 666 3084 287 
Q 2609 -91 1734 -91 
Q 1441 -91 1130 -33 
Q 819 25 488 141 
L 488 750 
Q 750 597 1062 519 
Q 1375 441 1716 441 
Q 2309 441 2620 675 
Q 2931 909 2931 1356 
Q 2931 1769 2642 2001 
Q 2353 2234 1838 2234 
L 1294 2234 
L 1294 2753 
L 1863 2753 
Q 2328 2753 2575 2939 
Q 2822 3125 2822 3475 
Q 2822 3834 2567 4026 
Q 2313 4219 1838 4219 
Q 1578 4219 1281 4162 
Q 984 4106 628 3988 
L 628 4550 
Q 988 4650 1302 4700 
Q 1616 4750 1894 4750 
Q 2613 4750 3031 4423 
Q 3450 4097 3450 3541 
Q 3450 3153 3228 2886 
Q 3006 2619 2597 2516 
z
" transform="scale(0.015625)"/>
       </defs>
       <use xlink:href="#DejaVuSans-33"/>
       <use xlink:href="#DejaVuSans-30" transform="translate(63.623047 0)"/>
       <use xlink:href="#DejaVuSans-30" transform="translate(127.246094 0)"/>
       <use xlink:href="#DejaVuSans-30" transform="translate(190.869141 0)"/>
       <use xlink:href="#DejaVuSans-30" transform="translate(254.492188 0)"/>
      </g>
     </g>
    </g>
    <g id="xtick_5">
     <g id="line2d_9">
      <path d="M 654.544059 390.04 
L 654.544059 10.8 
" clip-path="url(#p23dc514d2a)" style="fill: none; stroke: #b0b0b0; stroke-width: 0.8; stroke-linecap: square"/>
     </g>
     <g id="line2d_10">
      <g>
       <use xlink:href="#mf9e088413e" x="654.544059" y="390.04" style="stroke: #000000; stroke-width: 0.8"/>
      </g>
     </g>
     <g id="text_5">
      <!-- 40000 -->
      <g transform="translate(638.637809 404.638438) scale(0.1 -0.1)">
       <defs>
        <path id="DejaVuSans-34" d="M 2419 4116 
L 825 1625 
L 2419 1625 
L 2419 4116 
z
M 2253 4666 
L 3047 4666 
L 3047 1625 
L 3713 1625 
L 3713 1100 
L 3047 1100 
L 3047 0 
L 2419 0 
L 2419 1100 
L 313 1100 
L 313 1709 
L 2253 4666 
z
" transform="scale(0.015625)"/>
       </defs>
       <use xlink:href="#DejaVuSans-34"/>
       <use xlink:href="#DejaVuSans-30" transform="translate(63.623047 0)"/>
       <use xlink:href="#DejaVuSans-30" transform="translate(127.246094 0)"/>
       <use xlink:href="#DejaVuSans-30" transform="translate(190.869141 0)"/>
       <use xlink:href="#DejaVuSans-30" transform="translate(254.492188 0)"/>
      </g>
     </g>
    </g>
    <g id="text_6">
     <!-- Episodes -->
     <g transform="translate(356.217813 418.316562) scale(0.1 -0.1)">
      <defs>
       <path id="DejaVuSans-45" d="M 628 4666 
L 3578 4666 
L 3578 4134 
L 1259 4134 
L 1259 2753 
L 3481 2753 
L 3481 2222 
L 1259 2222 
L 1259 531 
L 3634 531 
L 3634 0 
L 628 0 
L 628 4666 
z
" transform="scale(0.015625)"/>
       <path id="DejaVuSans-70" d="M 1159 525 
L 1159 -1331 
L 581 -1331 
L 581 3500 
L 1159 3500 
L 1159 2969 
Q 1341 3281 1617 3432 
Q 1894 3584 2278 3584 
Q 2916 3584 3314 3078 
Q 3713 2572 3713 1747 
Q 3713 922 3314 415 
Q 2916 -91 2278 -91 
Q 1894 -91 1617 61 
Q 1341 213 1159 525 
z
M 3116 1747 
Q 3116 2381 2855 2742 
Q 2594 3103 2138 3103 
Q 1681 3103 1420 2742 
Q 1159 2381 1159 1747 
Q 1159 1113 1420 752 
Q 1681 391 2138 391 
Q 2594 391 2855 752 
Q 3116 1113 3116 1747 
z
" transform="scale(0.015625)"/>
       <path id="DejaVuSans-69" d="M 603 3500 
L 1178 3500 
L 1178 0 
L 603 0 
L 603 3500 
z
M 603 4863 
L 1178 4863 
L 1178 4134 
L 603 4134 
L 603 4863 
z
" transform="scale(0.015625)"/>
       <path id="DejaVuSans-73" d="M 2834 3397 
L 2834 2853 
Q 2591 2978 2328 3040 
Q 2066 3103 1784 3103 
Q 1356 3103 1142 2972 
Q 928 2841 928 2578 
Q 928 2378 1081 2264 
Q 1234 2150 1697 2047 
L 1894 2003 
Q 2506 1872 2764 1633 
Q 3022 1394 3022 966 
Q 3022 478 2636 193 
Q 2250 -91 1575 -91 
Q 1294 -91 989 -36 
Q 684 19 347 128 
L 347 722 
Q 666 556 975 473 
Q 1284 391 1588 391 
Q 1994 391 2212 530 
Q 2431 669 2431 922 
Q 2431 1156 2273 1281 
Q 2116 1406 1581 1522 
L 1381 1569 
Q 847 1681 609 1914 
Q 372 2147 372 2553 
Q 372 3047 722 3315 
Q 1072 3584 1716 3584 
Q 2034 3584 2315 3537 
Q 2597 3491 2834 3397 
z
" transform="scale(0.015625)"/>
       <path id="DejaVuSans-6f" d="M 1959 3097 
Q 1497 3097 1228 2736 
Q 959 2375 959 1747 
Q 959 1119 1226 758 
Q 1494 397 1959 397 
Q 2419 397 2687 759 
Q 2956 1122 2956 1747 
Q 2956 2369 2687 2733 
Q 2419 3097 1959 3097 
z
M 1959 3584 
Q 2709 3584 3137 3096 
Q 3566 2609 3566 1747 
Q 3566 888 3137 398 
Q 2709 -91 1959 -91 
Q 1206 -91 779 398 
Q 353 888 353 1747 
Q 353 2609 779 3096 
Q 1206 3584 1959 3584 
z
" transform="scale(0.015625)"/>
       <path id="DejaVuSans-64" d="M 2906 2969 
L 2906 4863 
L 3481 4863 
L 3481 0 
L 2906 0 
L 2906 525 
Q 2725 213 2448 61 
Q 2172 -91 1784 -91 
Q 1150 -91 751 415 
Q 353 922 353 1747 
Q 353 2572 751 3078 
Q 1150 3584 1784 3584 
Q 2172 3584 2448 3432 
Q 2725 3281 2906 2969 
z
M 947 1747 
Q 947 1113 1208 752 
Q 1469 391 1925 391 
Q 2381 391 2643 752 
Q 2906 1113 2906 1747 
Q 2906 2381 2643 2742 
Q 2381 3103 1925 3103 
Q 1469 3103 1208 2742 
Q 947 2381 947 1747 
z
" transform="scale(0.015625)"/>
       <path id="DejaVuSans-65" d="M 3597 1894 
L 3597 1613 
L 953 1613 
Q 991 1019 1311 708 
Q 1631 397 2203 397 
Q 2534 397 2845 478 
Q 3156 559 3463 722 
L 3463 178 
Q 3153 47 2828 -22 
Q 2503 -91 2169 -91 
Q 1331 -91 842 396 
Q 353 884 353 1716 
Q 353 2575 817 3079 
Q 1281 3584 2069 3584 
Q 2775 3584 3186 3129 
Q 3597 2675 3597 1894 
z
M 3022 2063 
Q 3016 2534 2758 2815 
Q 2500 3097 2075 3097 
Q 1594 3097 1305 2825 
Q 1016 2553 972 2059 
L 3022 2063 
z
" transform="scale(0.015625)"/>
      </defs>
      <use xlink:href="#DejaVuSans-45"/>
      <use xlink:href="#DejaVuSans-70" transform="translate(63.183594 0)"/>
      <use xlink:href="#DejaVuSans-69" transform="translate(126.660156 0)"/>
      <use xlink:href="#DejaVuSans-73" transform="translate(154.443359 0)"/>
      <use xlink:href="#DejaVuSans-6f" transform="translate(206.542969 0)"/>
      <use xlink:href="#DejaVuSans-64" transform="translate(267.724609 0)"/>
      <use xlink:href="#DejaVuSans-65" transform="translate(331.201172 0)"/>
      <use xlink:href="#DejaVuSans-73" transform="translate(392.724609 0)"/>
     </g>
    </g>
   </g>
   <g id="matplotlib.axis_2">
    <g id="ytick_1">
     <g id="line2d_11">
      <path d="M 47.72 357.590633 
L 709.2 357.590633 
" clip-path="url(#p23dc514d2a)" style="fill: none; stroke: #b0b0b0; stroke-width: 0.8; stroke-linecap: square"/>
     </g>
     <g id="line2d_12">
      <defs>
       <path id="m81176c08ba" d="M 0 0 
L -3.5 0 
" style="stroke: #000000; stroke-width: 0.8"/>
      </defs>
      <g>
       <use xlink:href="#m81176c08ba" x="47.72" y="357.590633" style="stroke: #000000; stroke-width: 0.8"/>
      </g>
     </g>
     <g id="text_7">
      <!-- 4.5 -->
      <g transform="translate(24.816875 361.389851) scale(0.1 -0.1)">
       <defs>
        <path id="DejaVuSans-2e" d="M 684 794 
L 1344 794 
L 1344 0 
L 684 0 
L 684 794 
z
" transform="scale(0.015625)"/>
        <path id="DejaVuSans-35" d="M 691 4666 
L 3169 4666 
L 3169 4134 
L 1269 4134 
L 1269 2991 
Q 1406 3038 1543 3061 
Q 1681 3084 1819 3084 
Q 2600 3084 3056 2656 
Q 3513 2228 3513 1497 
Q 3513 744 3044 326 
Q 2575 -91 1722 -91 
Q 1428 -91 1123 -41 
Q 819 9 494 109 
L 494 744 
Q 775 591 1075 516 
Q 1375 441 1709 441 
Q 2250 441 2565 725 
Q 2881 1009 2881 1497 
Q 2881 1984 2565 2268 
Q 2250 2553 1709 2553 
Q 1456 2553 1204 2497 
Q 953 2441 691 2322 
L 691 4666 
z
" transform="scale(0.015625)"/>
       </defs>
       <use xlink:href="#DejaVuSans-34"/>
       <use xlink:href="#DejaVuSans-2e" transform="translate(63.623047 0)"/>
       <use xlink:href="#DejaVuSans-35" transform="translate(95.410156 0)"/>
      </g>
     </g>
    </g>
    <g id="ytick_2">
     <g id="line2d_13">
      <path d="M 47.72 292.106614 
L 709.2 292.106614 
" clip-path="url(#p23dc514d2a)" style="fill: none; stroke: #b0b0b0; stroke-width: 0.8; stroke-linecap: square"/>
     </g>
     <g id="line2d_14">
      <g>
       <use xlink:href="#m81176c08ba" x="47.72" y="292.106614" style="stroke: #000000; stroke-width: 0.8"/>
      </g>
     </g>
     <g id="text_8">
      <!-- 5.0 -->
      <g transform="translate(24.816875 295.905833) scale(0.1 -0.1)">
       <use xlink:href="#DejaVuSans-35"/>
       <use xlink:href="#DejaVuSans-2e" transform="translate(63.623047 0)"/>
       <use xlink:href="#DejaVuSans-30" transform="translate(95.410156 0)"/>
      </g>
     </g>
    </g>
    <g id="ytick_3">
     <g id="line2d_15">
      <path d="M 47.72 226.622595 
L 709.2 226.622595 
" clip-path="url(#p23dc514d2a)" style="fill: none; stroke: #b0b0b0; stroke-width: 0.8; stroke-linecap: square"/>
     </g>
     <g id="line2d_16">
      <g>
       <use xlink:href="#m81176c08ba" x="47.72" y="226.622595" style="stroke: #000000; stroke-width: 0.8"/>
      </g>
     </g>
     <g id="text_9">
      <!-- 5.5 -->
      <g transform="translate(24.816875 230.421814) scale(0.1 -0.1)">
       <use xlink:href="#DejaVuSans-35"/>
       <use xlink:href="#DejaVuSans-2e" transform="translate(63.623047 0)"/>
       <use xlink:href="#DejaVuSans-35" transform="translate(95.410156 0)"/>
      </g>
     </g>
    </g>
    <g id="ytick_4">
     <g id="line2d_17">
      <path d="M 47.72 161.138577 
L 709.2 161.138577 
" clip-path="url(#p23dc514d2a)" style="fill: none; stroke: #b0b0b0; stroke-width: 0.8; stroke-linecap: square"/>
     </g>
     <g id="line2d_18">
      <g>
       <use xlink:href="#m81176c08ba" x="47.72" y="161.138577" style="stroke: #000000; stroke-width: 0.8"/>
      </g>
     </g>
     <g id="text_10">
      <!-- 6.0 -->
      <g transform="translate(24.816875 164.937796) scale(0.1 -0.1)">
       <defs>
        <path id="DejaVuSans-36" d="M 2113 2584 
Q 1688 2584 1439 2293 
Q 1191 2003 1191 1497 
Q 1191 994 1439 701 
Q 1688 409 2113 409 
Q 2538 409 2786 701 
Q 3034 994 3034 1497 
Q 3034 2003 2786 2293 
Q 2538 2584 2113 2584 
z
M 3366 4563 
L 3366 3988 
Q 3128 4100 2886 4159 
Q 2644 4219 2406 4219 
Q 1781 4219 1451 3797 
Q 1122 3375 1075 2522 
Q 1259 2794 1537 2939 
Q 1816 3084 2150 3084 
Q 2853 3084 3261 2657 
Q 3669 2231 3669 1497 
Q 3669 778 3244 343 
Q 2819 -91 2113 -91 
Q 1303 -91 875 529 
Q 447 1150 447 2328 
Q 447 3434 972 4092 
Q 1497 4750 2381 4750 
Q 2619 4750 2861 4703 
Q 3103 4656 3366 4563 
z
" transform="scale(0.015625)"/>
       </defs>
       <use xlink:href="#DejaVuSans-36"/>
       <use xlink:href="#DejaVuSans-2e" transform="translate(63.623047 0)"/>
       <use xlink:href="#DejaVuSans-30" transform="translate(95.410156 0)"/>
      </g>
     </g>
    </g>
    <g id="ytick_5">
     <g id="line2d_19">
      <path d="M 47.72 95.654558 
L 709.2 95.654558 
" clip-path="url(#p23dc514d2a)" style="fill: none; stroke: #b0b0b0; stroke-width: 0.8; stroke-linecap: square"/>
     </g>
     <g id="line2d_20">
      <g>
       <use xlink:href="#m81176c08ba" x="47.72" y="95.654558" style="stroke: #000000; stroke-width: 0.8"/>
      </g>
     </g>
     <g id="text_11">
      <!-- 6.5 -->
      <g transform="translate(24.816875 99.453777) scale(0.1 -0.1)">
       <use xlink:href="#DejaVuSans-36"/>
       <use xlink:href="#DejaVuSans-2e" transform="translate(63.623047 0)"/>
       <use xlink:href="#DejaVuSans-35" transform="translate(95.410156 0)"/>
      </g>
     </g>
    </g>
    <g id="ytick_6">
     <g id="line2d_21">
      <path d="M 47.72 30.17054 
L 709.2 30.17054 
" clip-path="url(#p23dc514d2a)" style="fill: none; stroke: #b0b0b0; stroke-width: 0.8; stroke-linecap: square"/>
     </g>
     <g id="line2d_22">
      <g>
       <use xlink:href="#m81176c08ba" x="47.72" y="30.17054" style="stroke: #000000; stroke-width: 0.8"/>
      </g>
     </g>
     <g id="text_12">
      <!-- 7.0 -->
      <g transform="translate(24.816875 33.969758) scale(0.1 -0.1)">
       <defs>
        <path id="DejaVuSans-37" d="M 525 4666 
L 3525 4666 
L 3525 4397 
L 1831 0 
L 1172 0 
L 2766 4134 
L 525 4134 
L 525 4666 
z
" transform="scale(0.015625)"/>
       </defs>
       <use xlink:href="#DejaVuSans-37"/>
       <use xlink:href="#DejaVuSans-2e" transform="translate(63.623047 0)"/>
       <use xlink:href="#DejaVuSans-30" transform="translate(95.410156 0)"/>
      </g>
     </g>
    </g>
    <g id="text_13">
     <!-- Reward -->
     <g transform="translate(18.737188 219.041094) rotate(-90) scale(0.1 -0.1)">
      <defs>
       <path id="DejaVuSans-52" d="M 2841 2188 
Q 3044 2119 3236 1894 
Q 3428 1669 3622 1275 
L 4263 0 
L 3584 0 
L 2988 1197 
Q 2756 1666 2539 1819 
Q 2322 1972 1947 1972 
L 1259 1972 
L 1259 0 
L 628 0 
L 628 4666 
L 2053 4666 
Q 2853 4666 3247 4331 
Q 3641 3997 3641 3322 
Q 3641 2881 3436 2590 
Q 3231 2300 2841 2188 
z
M 1259 4147 
L 1259 2491 
L 2053 2491 
Q 2509 2491 2742 2702 
Q 2975 2913 2975 3322 
Q 2975 3731 2742 3939 
Q 2509 4147 2053 4147 
L 1259 4147 
z
" transform="scale(0.015625)"/>
       <path id="DejaVuSans-77" d="M 269 3500 
L 844 3500 
L 1563 769 
L 2278 3500 
L 2956 3500 
L 3675 769 
L 4391 3500 
L 4966 3500 
L 4050 0 
L 3372 0 
L 2619 2869 
L 1863 0 
L 1184 0 
L 269 3500 
z
" transform="scale(0.015625)"/>
       <path id="DejaVuSans-61" d="M 2194 1759 
Q 1497 1759 1228 1600 
Q 959 1441 959 1056 
Q 959 750 1161 570 
Q 1363 391 1709 391 
Q 2188 391 2477 730 
Q 2766 1069 2766 1631 
L 2766 1759 
L 2194 1759 
z
M 3341 1997 
L 3341 0 
L 2766 0 
L 2766 531 
Q 2569 213 2275 61 
Q 1981 -91 1556 -91 
Q 1019 -91 701 211 
Q 384 513 384 1019 
Q 384 1609 779 1909 
Q 1175 2209 1959 2209 
L 2766 2209 
L 2766 2266 
Q 2766 2663 2505 2880 
Q 2244 3097 1772 3097 
Q 1472 3097 1187 3025 
Q 903 2953 641 2809 
L 641 3341 
Q 956 3463 1253 3523 
Q 1550 3584 1831 3584 
Q 2591 3584 2966 3190 
Q 3341 2797 3341 1997 
z
" transform="scale(0.015625)"/>
       <path id="DejaVuSans-72" d="M 2631 2963 
Q 2534 3019 2420 3045 
Q 2306 3072 2169 3072 
Q 1681 3072 1420 2755 
Q 1159 2438 1159 1844 
L 1159 0 
L 581 0 
L 581 3500 
L 1159 3500 
L 1159 2956 
Q 1341 3275 1631 3429 
Q 1922 3584 2338 3584 
Q 2397 3584 2469 3576 
Q 2541 3569 2628 3553 
L 2631 2963 
z
" transform="scale(0.015625)"/>
      </defs>
      <use xlink:href="#DejaVuSans-52"/>
      <use xlink:href="#DejaVuSans-65" transform="translate(64.982422 0)"/>
      <use xlink:href="#DejaVuSans-77" transform="translate(126.505859 0)"/>
      <use xlink:href="#DejaVuSans-61" transform="translate(208.292969 0)"/>
      <use xlink:href="#DejaVuSans-72" transform="translate(269.572266 0)"/>
      <use xlink:href="#DejaVuSans-64" transform="translate(308.935547 0)"/>
     </g>
    </g>
   </g>
   <g id="line2d_23">
    <path d="M 77.787273 290.797841 
L 80.678357 280.895504 
L 83.569441 279.54722 
L 86.460524 282.65468 
L 89.351608 277.390795 
L 92.242692 271.046627 
L 95.133776 274.311832 
L 98.02486 288.684462 
L 100.915944 276.796688 
L 103.807028 284.280662 
L 106.698112 290.645648 
L 109.589196 290.218685 
L 112.48028 292.096602 
L 115.371364 299.066205 
L 118.262448 295.834245 
L 121.153531 306.679833 
L 124.044615 304.302601 
L 126.935699 306.150302 
L 129.826783 297.978543 
L 132.717867 304.184467 
L 135.608951 303.137229 
L 138.500035 308.13948 
L 141.391119 304.85487 
L 144.282203 305.542856 
L 147.173287 304.491474 
L 150.064371 293.712583 
L 152.955455 307.244431 
L 155.846538 299.318439 
L 158.737622 311.639238 
L 161.628706 308.138975 
L 164.51979 304.378798 
L 167.410874 303.604611 
L 170.301958 308.707009 
L 173.193042 300.06342 
L 176.084126 298.161655 
L 178.97521 294.660585 
L 181.866294 295.662247 
L 184.757378 285.343765 
L 187.648462 286.24427 
L 190.539545 287.672893 
L 193.430629 283.552048 
L 196.321713 283.020092 
L 199.212797 288.480428 
L 202.103881 293.073708 
L 204.994965 283.559831 
L 207.886049 282.82172 
L 210.777133 284.616063 
L 213.668217 267.222781 
L 216.559301 274.809933 
L 219.450385 268.40695 
L 222.341469 260.306739 
L 225.232552 257.041431 
L 228.123636 274.419758 
L 231.01472 265.23522 
L 233.905804 254.230369 
L 236.796888 249.472772 
L 239.687972 236.685503 
L 242.579056 235.712642 
L 245.47014 223.027236 
L 248.361224 224.856948 
L 251.252308 218.315621 
L 254.143392 202.99337 
L 257.034476 193.692718 
L 259.925559 201.066741 
L 262.816643 198.957406 
L 265.707727 203.653862 
L 268.598811 186.259364 
L 271.489895 187.061036 
L 274.380979 179.960971 
L 277.272063 179.245294 
L 280.163147 180.914732 
L 283.054231 176.596728 
L 285.945315 163.754381 
L 288.836399 171.892388 
L 291.727483 170.766022 
L 294.618566 159.88173 
L 297.50965 151.475118 
L 300.400734 157.629404 
L 303.291818 152.788235 
L 306.182902 145.615209 
L 309.073986 136.292528 
L 311.96507 145.139237 
L 314.856154 131.681968 
L 317.747238 143.157437 
L 320.638322 129.724422 
L 323.529406 130.71022 
L 326.42049 133.948647 
L 329.311573 134.279807 
L 332.202657 140.493818 
L 335.093741 145.624107 
L 337.984825 152.686784 
L 340.875909 135.47914 
L 343.766993 162.623886 
L 346.658077 142.997677 
L 349.549161 124.25803 
L 352.440245 108.156439 
L 355.331329 112.058095 
L 358.222413 101.923435 
L 361.113497 99.129249 
L 364.00458 100.4264 
L 366.895664 97.250727 
L 369.786748 94.60398 
L 372.677832 106.869398 
L 375.568916 103.321437 
L 378.46 117.736407 
L 381.351084 127.525458 
L 384.242168 112.129742 
L 387.133252 106.700633 
L 390.024336 111.882664 
L 392.91542 124.094019 
L 395.806503 137.093001 
L 398.697587 135.171429 
L 401.588671 143.748216 
L 404.479755 144.863665 
L 407.370839 149.963534 
L 410.261923 145.713539 
L 416.044091 156.906654 
L 418.935175 165.985185 
L 421.826259 158.416424 
L 424.717343 170.37221 
L 427.608427 179.903168 
L 430.49951 155.399006 
L 433.390594 159.923669 
L 436.281678 156.239384 
L 439.172762 146.15525 
L 442.063846 148.021848 
L 444.95493 147.394191 
L 447.846014 160.389535 
L 450.737098 166.854667 
L 453.628182 147.451792 
L 456.519266 153.378803 
L 459.41035 171.329711 
L 462.301434 156.862999 
L 465.192517 148.875869 
L 468.083601 149.679363 
L 470.974685 146.259843 
L 473.865769 145.311133 
L 476.756853 152.035876 
L 479.647937 152.273255 
L 482.539021 145.743043 
L 485.430105 148.043067 
L 488.321189 157.886891 
L 491.212273 152.030619 
L 494.103357 144.893265 
L 496.994441 142.123332 
L 499.885524 139.993384 
L 502.776608 133.795342 
L 505.667692 146.451543 
L 508.558776 149.775767 
L 511.44986 143.557718 
L 514.340944 133.429929 
L 517.232028 108.089436 
L 520.123112 106.048113 
L 523.014196 98.547359 
L 525.90528 88.535879 
L 528.796364 93.65374 
L 531.687448 92.594274 
L 534.578531 142.90217 
L 537.469615 202.198457 
L 540.360699 124.046715 
L 543.251783 93.913353 
L 546.142867 94.963523 
L 549.033951 95.16048 
L 551.925035 87.707831 
L 554.816119 84.531045 
L 557.707203 85.105647 
L 560.598287 84.065179 
L 563.489371 86.35904 
L 566.380455 82.925373 
L 572.162622 83.303017 
L 575.053706 84.812485 
L 577.94479 81.538688 
L 580.835874 87.857088 
L 583.726958 82.561775 
L 586.618042 83.413774 
L 589.509126 87.873459 
L 592.40021 85.949967 
L 595.291294 83.398717 
L 598.182378 83.699155 
L 601.073462 81.92755 
L 603.964545 83.363045 
L 606.855629 81.255834 
L 609.746713 86.624412 
L 612.637797 88.568521 
L 615.528881 85.928746 
L 618.419965 82.581481 
L 621.311049 90.654107 
L 624.202133 94.155182 
L 627.093217 97.116722 
L 629.984301 99.304474 
L 632.875385 97.90445 
L 635.766469 93.815132 
L 638.657552 93.672339 
L 641.548636 91.905581 
L 644.43972 87.996347 
L 647.330804 158.775178 
L 650.221888 162.93513 
L 653.112972 128.636457 
L 656.004056 86.394815 
L 658.89514 103.333046 
L 661.786224 121.362879 
L 664.677308 92.135379 
L 667.568392 83.915214 
L 670.459476 81.181053 
L 673.350559 131.262284 
L 676.241643 103.874097 
L 679.132727 86.683329 
L 679.132727 86.683329 
" clip-path="url(#p23dc514d2a)" style="fill: none; stroke: #1f77b4; stroke-width: 1.5; stroke-linecap: square"/>
   </g>
   <g id="patch_3">
    <path d="M 47.72 390.04 
L 47.72 10.8 
" style="fill: none; stroke: #000000; stroke-width: 0.8; stroke-linejoin: miter; stroke-linecap: square"/>
   </g>
   <g id="patch_4">
    <path d="M 709.2 390.04 
L 709.2 10.8 
" style="fill: none; stroke: #000000; stroke-width: 0.8; stroke-linejoin: miter; stroke-linecap: square"/>
   </g>
   <g id="patch_5">
    <path d="M 47.72 390.04 
L 709.2 390.04 
" style="fill: none; stroke: #000000; stroke-width: 0.8; stroke-linejoin: miter; stroke-linecap: square"/>
   </g>
   <g id="patch_6">
    <path d="M 47.72 10.8 
L 709.2 10.8 
" style="fill: none; stroke: #000000; stroke-width: 0.8; stroke-linejoin: miter; stroke-linecap: square"/>
   </g>
  </g>
 </g>
 <defs>
  <clipPath id="p23dc514d2a">
   <rect x="47.72" y="10.8" width="661.48" height="379.24"/>
  </clipPath>
 </defs>
</svg>
