<?xml version="1.0" encoding="utf-8" standalone="no"?>
<!DOCTYPE svg PUBLIC "-//W3C//DTD SVG 1.1//EN"
  "http://www.w3.org/Graphics/SVG/1.1/DTD/svg11.dtd">
<svg xmlns:xlink="http://www.w3.org/1999/xlink" width="720pt" height="432pt" viewBox="0 0 720 432" xmlns="http://www.w3.org/2000/svg" version="1.1">
 <metadata>
  <rdf:RDF xmlns:dc="http://purl.org/dc/elements/1.1/" xmlns:cc="http://creativecommons.org/ns#" xmlns:rdf="http://www.w3.org/1999/02/22-rdf-syntax-ns#">
   <cc:Work>
    <dc:type rdf:resource="http://purl.org/dc/dcmitype/StillImage"/>
    <dc:date>2025-04-16T00:58:32.744375</dc:date>
    <dc:format>image/svg+xml</dc:format>
    <dc:creator>
     <cc:Agent>
      <dc:title>Matplotlib v3.10.0, https://matplotlib.org/</dc:title>
     </cc:Agent>
    </dc:creator>
   </cc:Work>
  </rdf:RDF>
 </metadata>
 <defs>
  <style type="text/css">*{stroke-linejoin: round; stroke-linecap: butt}</style>
 </defs>
 <g id="figure_1">
  <g id="patch_1">
   <path d="M 0 432 
L 720 432 
L 720 0 
L 0 0 
z
" style="fill: #ffffff"/>
  </g>
  <g id="axes_1">
   <g id="patch_2">
    <path d="M 47.72 390.04 
L 706.842095 390.04 
L 706.842095 10.8 
L 47.72 10.8 
z
" style="fill: #ffffff"/>
   </g>
   <g id="FillBetweenPolyCollection_1">
    <path d="M 77.680095 28.038182 
L 77.680095 252.838304 
L 78.900466 295.395887 
L 80.120836 321.564785 
L 81.341207 339.837189 
L 82.561577 360.368643 
L 83.781948 365.704331 
L 85.002318 372.245496 
L 86.222689 372.801818 
L 87.443059 371.475525 
L 88.66343 370.674018 
L 89.8838 369.901166 
L 91.10417 369.901166 
L 92.324541 369.831986 
L 93.544911 369.624445 
L 94.765282 369.762805 
L 95.985652 369.762805 
L 97.206023 369.555265 
L 98.426393 369.555265 
L 99.646764 369.416904 
L 100.867134 369.416904 
L 102.087505 369.555265 
L 103.307875 369.624445 
L 104.528246 369.486085 
L 105.748616 369.555265 
L 106.968987 369.416904 
L 108.189357 369.416904 
L 109.409728 369.416904 
L 110.630098 369.555265 
L 111.850469 369.416904 
L 113.070839 369.416904 
L 114.29121 369.416904 
L 115.51158 369.486085 
L 116.731951 369.416904 
L 117.952321 369.486085 
L 119.172691 369.416904 
L 120.393062 369.416904 
L 121.613432 369.416904 
L 122.833803 369.416904 
L 124.054173 369.416904 
L 125.274544 369.416904 
L 126.494914 369.486085 
L 127.715285 369.416904 
L 128.935655 369.416904 
L 130.156026 369.416904 
L 131.376396 369.416904 
L 132.596767 369.416904 
L 133.817137 369.416904 
L 135.037508 369.486085 
L 136.257878 369.486085 
L 137.478249 369.416904 
L 138.698619 369.416904 
L 139.91899 369.416904 
L 141.13936 369.416904 
L 142.359731 369.486085 
L 143.580101 369.486085 
L 144.800471 369.416904 
L 146.020842 369.416904 
L 147.241212 369.486085 
L 148.461583 369.416904 
L 149.681953 369.416904 
L 150.902324 369.486085 
L 152.122694 369.416904 
L 153.343065 369.416904 
L 154.563435 369.416904 
L 155.783806 369.416904 
L 157.004176 369.416904 
L 158.224547 369.416904 
L 159.444917 369.416904 
L 160.665288 369.416904 
L 161.885658 369.486085 
L 163.106029 369.486085 
L 164.326399 369.416904 
L 165.54677 369.416904 
L 166.76714 369.486085 
L 167.987511 369.416904 
L 169.207881 369.416904 
L 170.428252 369.416904 
L 171.648622 369.416904 
L 172.868992 369.416904 
L 174.089363 369.416904 
L 175.309733 369.416904 
L 176.530104 369.416904 
L 177.750474 369.416904 
L 178.970845 369.416904 
L 180.191215 369.416904 
L 181.411586 369.486085 
L 182.631956 369.416904 
L 183.852327 369.416904 
L 185.072697 369.416904 
L 186.293068 369.416904 
L 187.513438 369.416904 
L 188.733809 369.416904 
L 189.954179 369.416904 
L 191.17455 369.416904 
L 192.39492 369.416904 
L 193.615291 369.416904 
L 194.835661 369.416904 
L 196.056032 369.416904 
L 197.276402 369.416904 
L 198.496773 369.416904 
L 199.717143 369.416904 
L 200.937513 369.416904 
L 202.157884 369.416904 
L 203.378254 369.416904 
L 204.598625 369.416904 
L 205.818995 369.416904 
L 207.039366 369.416904 
L 208.259736 369.416904 
L 209.480107 369.416904 
L 210.700477 369.416904 
L 211.920848 369.416904 
L 213.141218 369.416904 
L 214.361589 369.416904 
L 215.581959 369.416904 
L 216.80233 369.416904 
L 218.0227 369.416904 
L 219.243071 369.416904 
L 220.463441 369.416904 
L 221.683812 369.416904 
L 222.904182 369.416904 
L 224.124553 369.416904 
L 225.344923 369.416904 
L 226.565294 369.416904 
L 227.785664 369.416904 
L 229.006034 369.416904 
L 230.226405 369.416904 
L 231.446775 369.486085 
L 232.667146 369.416904 
L 233.887516 369.416904 
L 235.107887 369.416904 
L 236.328257 369.416904 
L 237.548628 369.416904 
L 238.768998 369.416904 
L 239.989369 369.416904 
L 241.209739 369.416904 
L 242.43011 369.416904 
L 243.65048 369.416904 
L 244.870851 369.416904 
L 246.091221 369.416904 
L 247.311592 369.416904 
L 248.531962 369.416904 
L 249.752333 369.416904 
L 250.972703 369.416904 
L 252.193074 369.416904 
L 253.413444 369.416904 
L 254.633814 369.416904 
L 255.854185 369.416904 
L 257.074555 369.416904 
L 258.294926 369.416904 
L 259.515296 369.416904 
L 260.735667 369.416904 
L 261.956037 369.416904 
L 263.176408 369.416904 
L 264.396778 369.486085 
L 265.617149 369.416904 
L 266.837519 369.416904 
L 268.05789 369.416904 
L 269.27826 369.416904 
L 270.498631 369.416904 
L 271.719001 369.416904 
L 272.939372 369.416904 
L 274.159742 369.416904 
L 275.380113 369.416904 
L 276.600483 369.486085 
L 277.820854 369.416904 
L 279.041224 369.416904 
L 280.261595 369.416904 
L 281.481965 369.416904 
L 282.702335 369.416904 
L 283.922706 369.416904 
L 285.143076 369.416904 
L 286.363447 369.416904 
L 287.583817 369.416904 
L 288.804188 369.416904 
L 290.024558 369.416904 
L 291.244929 369.416904 
L 292.465299 369.416904 
L 293.68567 369.416904 
L 294.90604 369.416904 
L 296.126411 369.416904 
L 297.346781 369.416904 
L 298.567152 369.416904 
L 299.787522 369.416904 
L 301.007893 369.486085 
L 302.228263 369.416904 
L 303.448634 369.416904 
L 304.669004 369.416904 
L 305.889375 369.416904 
L 307.109745 369.416904 
L 308.330116 369.416904 
L 309.550486 369.416904 
L 310.770856 369.416904 
L 311.991227 369.416904 
L 313.211597 369.416904 
L 314.431968 369.416904 
L 315.652338 369.416904 
L 316.872709 369.416904 
L 318.093079 369.416904 
L 319.31345 369.416904 
L 320.53382 369.416904 
L 321.754191 369.416904 
L 322.974561 369.416904 
L 324.194932 369.416904 
L 325.415302 369.416904 
L 326.635673 369.416904 
L 327.856043 369.416904 
L 329.076414 369.416904 
L 330.296784 369.416904 
L 331.517155 369.416904 
L 332.737525 369.416904 
L 333.957896 369.416904 
L 335.178266 369.416904 
L 336.398636 369.416904 
L 337.619007 369.416904 
L 338.839377 369.416904 
L 340.059748 369.416904 
L 341.280118 369.416904 
L 342.500489 369.416904 
L 343.720859 369.416904 
L 344.94123 369.416904 
L 346.1616 369.416904 
L 347.381971 369.416904 
L 348.602341 369.416904 
L 349.822712 369.416904 
L 351.043082 369.416904 
L 352.263453 369.416904 
L 353.483823 369.416904 
L 354.704194 369.416904 
L 355.924564 369.416904 
L 357.144935 369.416904 
L 358.365305 369.416904 
L 359.585676 369.416904 
L 360.806046 369.416904 
L 362.026417 369.416904 
L 363.246787 369.416904 
L 364.467157 369.416904 
L 365.687528 369.416904 
L 366.907898 369.416904 
L 368.128269 369.416904 
L 369.348639 369.416904 
L 370.56901 369.416904 
L 371.78938 369.416904 
L 373.009751 369.416904 
L 374.230121 369.416904 
L 375.450492 369.416904 
L 376.670862 369.416904 
L 377.891233 369.416904 
L 379.111603 369.416904 
L 380.331974 369.416904 
L 381.552344 369.416904 
L 382.772715 369.416904 
L 383.993085 369.416904 
L 385.213456 369.416904 
L 386.433826 369.416904 
L 387.654197 369.416904 
L 388.874567 369.416904 
L 390.094938 369.416904 
L 391.315308 369.416904 
L 392.535678 369.416904 
L 393.756049 369.416904 
L 394.976419 369.416904 
L 396.19679 369.416904 
L 397.41716 369.416904 
L 398.637531 369.416904 
L 399.857901 369.416904 
L 401.078272 369.416904 
L 402.298642 369.416904 
L 403.519013 369.416904 
L 404.739383 369.486085 
L 405.959754 369.416904 
L 407.180124 369.416904 
L 408.400495 369.416904 
L 409.620865 369.416904 
L 410.841236 369.416904 
L 412.061606 369.416904 
L 413.281977 369.416904 
L 414.502347 369.416904 
L 415.722718 369.416904 
L 416.943088 369.416904 
L 418.163458 369.416904 
L 419.383829 369.416904 
L 420.604199 369.416904 
L 421.82457 369.416904 
L 423.04494 369.416904 
L 424.265311 369.416904 
L 425.485681 369.416904 
L 426.706052 369.416904 
L 427.926422 369.416904 
L 429.146793 369.416904 
L 430.367163 369.416904 
L 431.587534 369.416904 
L 432.807904 369.416904 
L 434.028275 369.416904 
L 435.248645 369.416904 
L 436.469016 369.416904 
L 437.689386 369.416904 
L 438.909757 369.416904 
L 440.130127 369.416904 
L 441.350498 369.416904 
L 442.570868 369.416904 
L 443.791239 369.416904 
L 445.011609 369.416904 
L 446.231979 369.416904 
L 447.45235 369.416904 
L 448.67272 369.416904 
L 449.893091 369.416904 
L 451.113461 369.416904 
L 452.333832 369.416904 
L 453.554202 369.416904 
L 454.774573 369.416904 
L 455.994943 369.416904 
L 457.215314 369.416904 
L 458.435684 369.416904 
L 459.656055 369.416904 
L 460.876425 369.416904 
L 462.096796 369.416904 
L 463.317166 369.416904 
L 464.537537 369.416904 
L 465.757907 369.416904 
L 466.978278 369.416904 
L 468.198648 369.416904 
L 469.419019 369.416904 
L 470.639389 369.416904 
L 471.85976 369.416904 
L 473.08013 369.416904 
L 474.3005 369.416904 
L 475.520871 369.416904 
L 476.741241 369.416904 
L 477.961612 369.416904 
L 479.181982 369.416904 
L 480.402353 369.416904 
L 481.622723 369.416904 
L 482.843094 369.416904 
L 484.063464 369.416904 
L 485.283835 369.416904 
L 486.504205 369.416904 
L 487.724576 369.416904 
L 488.944946 369.416904 
L 490.165317 369.416904 
L 491.385687 369.416904 
L 492.606058 369.416904 
L 493.826428 369.416904 
L 495.046799 369.416904 
L 496.267169 369.416904 
L 497.48754 369.416904 
L 498.70791 369.416904 
L 499.92828 369.416904 
L 501.148651 369.416904 
L 502.369021 369.416904 
L 503.589392 369.416904 
L 504.809762 369.416904 
L 506.030133 369.416904 
L 507.250503 369.416904 
L 508.470874 369.416904 
L 509.691244 369.416904 
L 510.911615 369.416904 
L 512.131985 369.416904 
L 513.352356 369.416904 
L 514.572726 369.416904 
L 515.793097 369.416904 
L 517.013467 369.416904 
L 518.233838 369.416904 
L 519.454208 369.416904 
L 520.674579 369.416904 
L 521.894949 369.416904 
L 523.11532 369.416904 
L 524.33569 369.416904 
L 525.556061 369.486085 
L 526.776431 369.416904 
L 527.996801 369.416904 
L 529.217172 369.416904 
L 530.437542 369.416904 
L 531.657913 369.416904 
L 532.878283 369.416904 
L 534.098654 369.416904 
L 535.319024 369.416904 
L 536.539395 369.486085 
L 537.759765 369.416904 
L 538.980136 369.416904 
L 540.200506 369.416904 
L 541.420877 369.416904 
L 542.641247 369.416904 
L 543.861618 369.416904 
L 545.081988 369.416904 
L 546.302359 369.416904 
L 547.522729 369.416904 
L 548.7431 369.416904 
L 549.96347 369.416904 
L 551.183841 369.416904 
L 552.404211 369.416904 
L 553.624582 369.416904 
L 554.844952 369.416904 
L 556.065322 369.416904 
L 557.285693 369.416904 
L 558.506063 369.416904 
L 559.726434 369.416904 
L 560.946804 369.416904 
L 562.167175 369.416904 
L 563.387545 369.416904 
L 564.607916 369.416904 
L 565.828286 369.416904 
L 567.048657 369.416904 
L 568.269027 369.416904 
L 569.489398 369.416904 
L 570.709768 369.416904 
L 571.930139 369.416904 
L 573.150509 369.416904 
L 574.37088 369.416904 
L 575.59125 369.416904 
L 576.811621 369.416904 
L 578.031991 369.416904 
L 579.252362 369.416904 
L 580.472732 369.416904 
L 581.693102 369.416904 
L 582.913473 369.416904 
L 584.133843 369.416904 
L 585.354214 369.416904 
L 586.574584 369.416904 
L 587.794955 369.416904 
L 589.015325 369.416904 
L 590.235696 369.416904 
L 591.456066 369.416904 
L 592.676437 369.416904 
L 593.896807 369.416904 
L 595.117178 369.416904 
L 596.337548 369.416904 
L 597.557919 369.416904 
L 598.778289 369.416904 
L 599.99866 369.416904 
L 601.21903 369.416904 
L 602.439401 369.416904 
L 603.659771 369.416904 
L 604.880142 369.416904 
L 606.100512 369.416904 
L 607.320883 369.416904 
L 608.541253 369.416904 
L 609.761623 369.416904 
L 610.981994 369.416904 
L 612.202364 369.416904 
L 613.422735 369.416904 
L 614.643105 369.416904 
L 615.863476 369.416904 
L 617.083846 369.416904 
L 618.304217 369.416904 
L 619.524587 369.416904 
L 620.744958 369.416904 
L 621.965328 369.416904 
L 623.185699 369.416904 
L 624.406069 369.416904 
L 625.62644 369.416904 
L 626.84681 369.416904 
L 628.067181 369.416904 
L 629.287551 369.416904 
L 630.507922 369.416904 
L 631.728292 369.486085 
L 632.948663 369.416904 
L 634.169033 369.416904 
L 635.389404 369.416904 
L 636.609774 369.416904 
L 637.830144 369.416904 
L 639.050515 369.416904 
L 640.270885 369.416904 
L 641.491256 369.416904 
L 642.711626 369.416904 
L 643.931997 369.416904 
L 645.152367 369.416904 
L 646.372738 369.416904 
L 647.593108 369.416904 
L 648.813479 369.416904 
L 650.033849 369.416904 
L 651.25422 369.416904 
L 652.47459 369.416904 
L 653.694961 369.416904 
L 654.915331 369.416904 
L 656.135702 369.416904 
L 657.356072 369.416904 
L 658.576443 369.416904 
L 659.796813 369.416904 
L 661.017184 369.416904 
L 662.237554 369.416904 
L 663.457925 369.416904 
L 664.678295 369.416904 
L 665.898665 369.416904 
L 667.119036 369.416904 
L 668.339406 369.416904 
L 669.559777 369.416904 
L 670.780147 369.416904 
L 672.000518 369.416904 
L 673.220888 369.416904 
L 674.441259 369.416904 
L 675.661629 369.416904 
L 676.882 369.416904 
L 676.882 369.416904 
L 676.882 369.416904 
L 675.661629 369.416904 
L 674.441259 369.416904 
L 673.220888 369.416904 
L 672.000518 369.416904 
L 670.780147 369.416904 
L 669.559777 369.416904 
L 668.339406 369.416904 
L 667.119036 369.416904 
L 665.898665 369.416904 
L 664.678295 369.416904 
L 663.457925 369.416904 
L 662.237554 369.416904 
L 661.017184 369.416904 
L 659.796813 369.416904 
L 658.576443 369.416904 
L 657.356072 369.416904 
L 656.135702 369.416904 
L 654.915331 369.416904 
L 653.694961 369.416904 
L 652.47459 369.416904 
L 651.25422 369.416904 
L 650.033849 369.416904 
L 648.813479 369.416904 
L 647.593108 369.416904 
L 646.372738 369.416904 
L 645.152367 369.416904 
L 643.931997 369.416904 
L 642.711626 369.416904 
L 641.491256 369.416904 
L 640.270885 369.416904 
L 639.050515 369.416904 
L 637.830144 369.416904 
L 636.609774 369.416904 
L 635.389404 369.416904 
L 634.169033 369.416904 
L 632.948663 369.416904 
L 631.728292 369.013693 
L 630.507922 369.416904 
L 629.287551 369.416904 
L 628.067181 369.416904 
L 626.84681 369.416904 
L 625.62644 369.416904 
L 624.406069 369.416904 
L 623.185699 369.416904 
L 621.965328 369.416904 
L 620.744958 369.416904 
L 619.524587 369.416904 
L 618.304217 369.416904 
L 617.083846 369.416904 
L 615.863476 369.416904 
L 614.643105 369.416904 
L 613.422735 369.416904 
L 612.202364 369.416904 
L 610.981994 369.416904 
L 609.761623 369.416904 
L 608.541253 369.416904 
L 607.320883 369.416904 
L 606.100512 369.416904 
L 604.880142 369.416904 
L 603.659771 369.416904 
L 602.439401 369.416904 
L 601.21903 369.416904 
L 599.99866 369.416904 
L 598.778289 369.416904 
L 597.557919 369.416904 
L 596.337548 369.416904 
L 595.117178 369.416904 
L 593.896807 369.416904 
L 592.676437 369.416904 
L 591.456066 369.416904 
L 590.235696 369.416904 
L 589.015325 369.416904 
L 587.794955 369.416904 
L 586.574584 369.416904 
L 585.354214 369.416904 
L 584.133843 369.416904 
L 582.913473 369.416904 
L 581.693102 369.416904 
L 580.472732 369.416904 
L 579.252362 369.416904 
L 578.031991 369.416904 
L 576.811621 369.416904 
L 575.59125 369.416904 
L 574.37088 369.416904 
L 573.150509 369.416904 
L 571.930139 369.416904 
L 570.709768 369.416904 
L 569.489398 369.416904 
L 568.269027 369.416904 
L 567.048657 369.416904 
L 565.828286 369.416904 
L 564.607916 369.416904 
L 563.387545 369.416904 
L 562.167175 369.416904 
L 560.946804 369.416904 
L 559.726434 369.416904 
L 558.506063 369.416904 
L 557.285693 369.416904 
L 556.065322 369.416904 
L 554.844952 369.416904 
L 553.624582 369.416904 
L 552.404211 369.416904 
L 551.183841 369.416904 
L 549.96347 369.416904 
L 548.7431 369.416904 
L 547.522729 369.416904 
L 546.302359 369.416904 
L 545.081988 369.416904 
L 543.861618 369.416904 
L 542.641247 369.416904 
L 541.420877 369.416904 
L 540.200506 369.416904 
L 538.980136 369.416904 
L 537.759765 369.416904 
L 536.539395 369.013693 
L 535.319024 369.416904 
L 534.098654 369.416904 
L 532.878283 369.416904 
L 531.657913 369.416904 
L 530.437542 369.416904 
L 529.217172 369.416904 
L 527.996801 369.416904 
L 526.776431 369.416904 
L 525.556061 369.013693 
L 524.33569 369.416904 
L 523.11532 369.416904 
L 521.894949 369.416904 
L 520.674579 369.416904 
L 519.454208 369.416904 
L 518.233838 369.416904 
L 517.013467 369.416904 
L 515.793097 369.416904 
L 514.572726 369.416904 
L 513.352356 369.416904 
L 512.131985 369.416904 
L 510.911615 369.416904 
L 509.691244 369.416904 
L 508.470874 369.416904 
L 507.250503 369.416904 
L 506.030133 369.416904 
L 504.809762 369.416904 
L 503.589392 369.416904 
L 502.369021 369.416904 
L 501.148651 369.416904 
L 499.92828 369.416904 
L 498.70791 369.416904 
L 497.48754 369.416904 
L 496.267169 369.416904 
L 495.046799 369.416904 
L 493.826428 369.416904 
L 492.606058 369.416904 
L 491.385687 369.416904 
L 490.165317 369.416904 
L 488.944946 369.416904 
L 487.724576 369.416904 
L 486.504205 369.416904 
L 485.283835 369.416904 
L 484.063464 369.416904 
L 482.843094 369.416904 
L 481.622723 369.416904 
L 480.402353 369.416904 
L 479.181982 369.416904 
L 477.961612 369.416904 
L 476.741241 369.416904 
L 475.520871 369.416904 
L 474.3005 369.416904 
L 473.08013 369.416904 
L 471.85976 369.416904 
L 470.639389 369.416904 
L 469.419019 369.416904 
L 468.198648 369.416904 
L 466.978278 369.416904 
L 465.757907 369.416904 
L 464.537537 369.416904 
L 463.317166 369.416904 
L 462.096796 369.416904 
L 460.876425 369.416904 
L 459.656055 369.416904 
L 458.435684 369.416904 
L 457.215314 369.416904 
L 455.994943 369.416904 
L 454.774573 369.416904 
L 453.554202 369.416904 
L 452.333832 369.416904 
L 451.113461 369.416904 
L 449.893091 369.416904 
L 448.67272 369.416904 
L 447.45235 369.416904 
L 446.231979 369.416904 
L 445.011609 369.416904 
L 443.791239 369.416904 
L 442.570868 369.416904 
L 441.350498 369.416904 
L 440.130127 369.416904 
L 438.909757 369.416904 
L 437.689386 369.416904 
L 436.469016 369.416904 
L 435.248645 369.416904 
L 434.028275 369.416904 
L 432.807904 369.416904 
L 431.587534 369.416904 
L 430.367163 369.416904 
L 429.146793 369.416904 
L 427.926422 369.416904 
L 426.706052 369.416904 
L 425.485681 369.416904 
L 424.265311 369.416904 
L 423.04494 369.416904 
L 421.82457 369.416904 
L 420.604199 369.416904 
L 419.383829 369.416904 
L 418.163458 369.416904 
L 416.943088 369.416904 
L 415.722718 369.416904 
L 414.502347 369.416904 
L 413.281977 369.416904 
L 412.061606 369.416904 
L 410.841236 369.416904 
L 409.620865 369.416904 
L 408.400495 369.416904 
L 407.180124 369.416904 
L 405.959754 369.416904 
L 404.739383 369.013693 
L 403.519013 369.416904 
L 402.298642 369.416904 
L 401.078272 369.416904 
L 399.857901 369.416904 
L 398.637531 369.416904 
L 397.41716 369.416904 
L 396.19679 369.416904 
L 394.976419 369.416904 
L 393.756049 369.416904 
L 392.535678 369.416904 
L 391.315308 369.416904 
L 390.094938 369.416904 
L 388.874567 369.416904 
L 387.654197 369.416904 
L 386.433826 369.416904 
L 385.213456 369.416904 
L 383.993085 369.416904 
L 382.772715 369.416904 
L 381.552344 369.416904 
L 380.331974 369.416904 
L 379.111603 369.416904 
L 377.891233 369.416904 
L 376.670862 369.416904 
L 375.450492 369.416904 
L 374.230121 369.416904 
L 373.009751 369.416904 
L 371.78938 369.416904 
L 370.56901 369.416904 
L 369.348639 369.416904 
L 368.128269 369.416904 
L 366.907898 369.416904 
L 365.687528 369.416904 
L 364.467157 369.416904 
L 363.246787 369.416904 
L 362.026417 369.416904 
L 360.806046 369.416904 
L 359.585676 369.416904 
L 358.365305 369.416904 
L 357.144935 369.416904 
L 355.924564 369.416904 
L 354.704194 369.416904 
L 353.483823 369.416904 
L 352.263453 369.416904 
L 351.043082 369.416904 
L 349.822712 369.416904 
L 348.602341 369.416904 
L 347.381971 369.416904 
L 346.1616 369.416904 
L 344.94123 369.416904 
L 343.720859 369.416904 
L 342.500489 369.416904 
L 341.280118 369.416904 
L 340.059748 369.416904 
L 338.839377 369.416904 
L 337.619007 369.416904 
L 336.398636 369.416904 
L 335.178266 369.416904 
L 333.957896 369.416904 
L 332.737525 369.416904 
L 331.517155 369.416904 
L 330.296784 369.416904 
L 329.076414 369.416904 
L 327.856043 369.416904 
L 326.635673 369.416904 
L 325.415302 369.416904 
L 324.194932 369.416904 
L 322.974561 369.416904 
L 321.754191 369.416904 
L 320.53382 369.416904 
L 319.31345 369.416904 
L 318.093079 369.416904 
L 316.872709 369.416904 
L 315.652338 369.416904 
L 314.431968 369.416904 
L 313.211597 369.416904 
L 311.991227 369.416904 
L 310.770856 369.416904 
L 309.550486 369.416904 
L 308.330116 369.416904 
L 307.109745 369.416904 
L 305.889375 369.416904 
L 304.669004 369.416904 
L 303.448634 369.416904 
L 302.228263 369.416904 
L 301.007893 369.013693 
L 299.787522 369.416904 
L 298.567152 369.416904 
L 297.346781 369.416904 
L 296.126411 369.416904 
L 294.90604 369.416904 
L 293.68567 369.416904 
L 292.465299 369.416904 
L 291.244929 369.416904 
L 290.024558 369.416904 
L 288.804188 369.416904 
L 287.583817 369.416904 
L 286.363447 369.416904 
L 285.143076 369.416904 
L 283.922706 369.416904 
L 282.702335 369.416904 
L 281.481965 369.416904 
L 280.261595 369.416904 
L 279.041224 369.416904 
L 277.820854 369.416904 
L 276.600483 369.013693 
L 275.380113 369.416904 
L 274.159742 369.416904 
L 272.939372 369.416904 
L 271.719001 369.416904 
L 270.498631 369.416904 
L 269.27826 369.416904 
L 268.05789 369.416904 
L 266.837519 369.416904 
L 265.617149 369.416904 
L 264.396778 369.013693 
L 263.176408 369.416904 
L 261.956037 369.416904 
L 260.735667 369.416904 
L 259.515296 369.416904 
L 258.294926 369.416904 
L 257.074555 369.416904 
L 255.854185 369.416904 
L 254.633814 369.416904 
L 253.413444 369.416904 
L 252.193074 369.416904 
L 250.972703 369.416904 
L 249.752333 369.416904 
L 248.531962 369.416904 
L 247.311592 369.416904 
L 246.091221 369.416904 
L 244.870851 369.416904 
L 243.65048 369.416904 
L 242.43011 369.416904 
L 241.209739 369.416904 
L 239.989369 369.416904 
L 238.768998 369.416904 
L 237.548628 369.416904 
L 236.328257 369.416904 
L 235.107887 369.416904 
L 233.887516 369.416904 
L 232.667146 369.416904 
L 231.446775 369.013693 
L 230.226405 369.416904 
L 229.006034 369.416904 
L 227.785664 369.416904 
L 226.565294 369.416904 
L 225.344923 369.416904 
L 224.124553 369.416904 
L 222.904182 369.416904 
L 221.683812 369.416904 
L 220.463441 369.416904 
L 219.243071 369.416904 
L 218.0227 369.416904 
L 216.80233 369.416904 
L 215.581959 369.416904 
L 214.361589 369.416904 
L 213.141218 369.416904 
L 211.920848 369.416904 
L 210.700477 369.416904 
L 209.480107 369.416904 
L 208.259736 369.416904 
L 207.039366 369.416904 
L 205.818995 369.416904 
L 204.598625 369.416904 
L 203.378254 369.416904 
L 202.157884 369.416904 
L 200.937513 369.416904 
L 199.717143 369.416904 
L 198.496773 369.416904 
L 197.276402 369.416904 
L 196.056032 369.416904 
L 194.835661 369.416904 
L 193.615291 369.416904 
L 192.39492 369.416904 
L 191.17455 369.416904 
L 189.954179 369.416904 
L 188.733809 369.416904 
L 187.513438 369.416904 
L 186.293068 369.416904 
L 185.072697 369.416904 
L 183.852327 369.416904 
L 182.631956 369.416904 
L 181.411586 369.013693 
L 180.191215 369.416904 
L 178.970845 369.416904 
L 177.750474 369.416904 
L 176.530104 369.416904 
L 175.309733 369.416904 
L 174.089363 369.416904 
L 172.868992 369.416904 
L 171.648622 369.416904 
L 170.428252 369.416904 
L 169.207881 369.416904 
L 167.987511 369.416904 
L 166.76714 369.013693 
L 165.54677 369.416904 
L 164.326399 369.416904 
L 163.106029 369.013693 
L 161.885658 369.013693 
L 160.665288 369.416904 
L 159.444917 369.416904 
L 158.224547 369.416904 
L 157.004176 369.416904 
L 155.783806 369.416904 
L 154.563435 369.416904 
L 153.343065 369.416904 
L 152.122694 369.416904 
L 150.902324 369.013693 
L 149.681953 369.416904 
L 148.461583 369.416904 
L 147.241212 369.013693 
L 146.020842 369.416904 
L 144.800471 369.416904 
L 143.580101 369.013693 
L 142.359731 369.013693 
L 141.13936 369.416904 
L 139.91899 369.416904 
L 138.698619 369.416904 
L 137.478249 369.416904 
L 136.257878 369.013693 
L 135.037508 369.013693 
L 133.817137 369.416904 
L 132.596767 369.416904 
L 131.376396 369.416904 
L 130.156026 369.416904 
L 128.935655 369.416904 
L 127.715285 369.416904 
L 126.494914 369.013693 
L 125.274544 369.416904 
L 124.054173 369.416904 
L 122.833803 369.416904 
L 121.613432 369.416904 
L 120.393062 369.416904 
L 119.172691 369.416904 
L 117.952321 369.013693 
L 116.731951 369.416904 
L 115.51158 369.013693 
L 114.29121 369.416904 
L 113.070839 369.416904 
L 111.850469 369.416904 
L 110.630098 368.610481 
L 109.409728 369.416904 
L 108.189357 369.416904 
L 106.968987 369.416904 
L 105.748616 368.610481 
L 104.528246 369.013693 
L 103.307875 368.207269 
L 102.087505 368.610481 
L 100.867134 369.416904 
L 99.646764 369.416904 
L 98.426393 368.610481 
L 97.206023 368.610481 
L 95.985652 367.400845 
L 94.765282 367.400845 
L 93.544911 368.207269 
L 92.324541 366.997634 
L 91.10417 366.594422 
L 89.8838 366.594422 
L 88.66343 359.809001 
L 87.443059 353.99702 
L 86.222689 343.985905 
L 85.002318 327.840647 
L 83.781948 296.970273 
L 82.561577 273.245212 
L 81.341207 231.646789 
L 80.120836 177.768367 
L 78.900466 104.061816 
L 77.680095 28.038182 
z
" clip-path="url(#p1b28fd8e2c)" style="fill: #1f77b4; fill-opacity: 0.2"/>
   </g>
   <g id="matplotlib.axis_1">
    <g id="xtick_1">
     <g id="line2d_1">
      <path d="M 77.063808 390.04 
L 77.063808 10.8 
" clip-path="url(#p1b28fd8e2c)" style="fill: none; stroke: #b0b0b0; stroke-width: 0.8; stroke-linecap: square"/>
     </g>
     <g id="line2d_2">
      <defs>
       <path id="mce086211fd" d="M 0 0 
L 0 3.5 
" style="stroke: #000000; stroke-width: 0.8"/>
      </defs>
      <g>
       <use xlink:href="#mce086211fd" x="77.063808" y="390.04" style="stroke: #000000; stroke-width: 0.8"/>
      </g>
     </g>
     <g id="text_1">
      <!-- 0 -->
      <g transform="translate(73.882558 404.638438) scale(0.1 -0.1)">
       <defs>
        <path id="DejaVuSans-30" d="M 2034 4250 
Q 1547 4250 1301 3770 
Q 1056 3291 1056 2328 
Q 1056 1369 1301 889 
Q 1547 409 2034 409 
Q 2525 409 2770 889 
Q 3016 1369 3016 2328 
Q 3016 3291 2770 3770 
Q 2525 4250 2034 4250 
z
M 2034 4750 
Q 2819 4750 3233 4129 
Q 3647 3509 3647 2328 
Q 3647 1150 3233 529 
Q 2819 -91 2034 -91 
Q 1250 -91 836 529 
Q 422 1150 422 2328 
Q 422 3509 836 4129 
Q 1250 4750 2034 4750 
z
" transform="scale(0.015625)"/>
       </defs>
       <use xlink:href="#DejaVuSans-30"/>
      </g>
     </g>
    </g>
    <g id="xtick_2">
     <g id="line2d_3">
      <path d="M 199.100856 390.04 
L 199.100856 10.8 
" clip-path="url(#p1b28fd8e2c)" style="fill: none; stroke: #b0b0b0; stroke-width: 0.8; stroke-linecap: square"/>
     </g>
     <g id="line2d_4">
      <g>
       <use xlink:href="#mce086211fd" x="199.100856" y="390.04" style="stroke: #000000; stroke-width: 0.8"/>
      </g>
     </g>
     <g id="text_2">
      <!-- 20000 -->
      <g transform="translate(183.194606 404.638438) scale(0.1 -0.1)">
       <defs>
        <path id="DejaVuSans-32" d="M 1228 531 
L 3431 531 
L 3431 0 
L 469 0 
L 469 531 
Q 828 903 1448 1529 
Q 2069 2156 2228 2338 
Q 2531 2678 2651 2914 
Q 2772 3150 2772 3378 
Q 2772 3750 2511 3984 
Q 2250 4219 1831 4219 
Q 1534 4219 1204 4116 
Q 875 4013 500 3803 
L 500 4441 
Q 881 4594 1212 4672 
Q 1544 4750 1819 4750 
Q 2544 4750 2975 4387 
Q 3406 4025 3406 3419 
Q 3406 3131 3298 2873 
Q 3191 2616 2906 2266 
Q 2828 2175 2409 1742 
Q 1991 1309 1228 531 
z
" transform="scale(0.015625)"/>
       </defs>
       <use xlink:href="#DejaVuSans-32"/>
       <use xlink:href="#DejaVuSans-30" transform="translate(63.623047 0)"/>
       <use xlink:href="#DejaVuSans-30" transform="translate(127.246094 0)"/>
       <use xlink:href="#DejaVuSans-30" transform="translate(190.869141 0)"/>
       <use xlink:href="#DejaVuSans-30" transform="translate(254.492188 0)"/>
      </g>
     </g>
    </g>
    <g id="xtick_3">
     <g id="line2d_5">
      <path d="M 321.137904 390.04 
L 321.137904 10.8 
" clip-path="url(#p1b28fd8e2c)" style="fill: none; stroke: #b0b0b0; stroke-width: 0.8; stroke-linecap: square"/>
     </g>
     <g id="line2d_6">
      <g>
       <use xlink:href="#mce086211fd" x="321.137904" y="390.04" style="stroke: #000000; stroke-width: 0.8"/>
      </g>
     </g>
     <g id="text_3">
      <!-- 40000 -->
      <g transform="translate(305.231654 404.638438) scale(0.1 -0.1)">
       <defs>
        <path id="DejaVuSans-34" d="M 2419 4116 
L 825 1625 
L 2419 1625 
L 2419 4116 
z
M 2253 4666 
L 3047 4666 
L 3047 1625 
L 3713 1625 
L 3713 1100 
L 3047 1100 
L 3047 0 
L 2419 0 
L 2419 1100 
L 313 1100 
L 313 1709 
L 2253 4666 
z
" transform="scale(0.015625)"/>
       </defs>
       <use xlink:href="#DejaVuSans-34"/>
       <use xlink:href="#DejaVuSans-30" transform="translate(63.623047 0)"/>
       <use xlink:href="#DejaVuSans-30" transform="translate(127.246094 0)"/>
       <use xlink:href="#DejaVuSans-30" transform="translate(190.869141 0)"/>
       <use xlink:href="#DejaVuSans-30" transform="translate(254.492188 0)"/>
      </g>
     </g>
    </g>
    <g id="xtick_4">
     <g id="line2d_7">
      <path d="M 443.174951 390.04 
L 443.174951 10.8 
" clip-path="url(#p1b28fd8e2c)" style="fill: none; stroke: #b0b0b0; stroke-width: 0.8; stroke-linecap: square"/>
     </g>
     <g id="line2d_8">
      <g>
       <use xlink:href="#mce086211fd" x="443.174951" y="390.04" style="stroke: #000000; stroke-width: 0.8"/>
      </g>
     </g>
     <g id="text_4">
      <!-- 60000 -->
      <g transform="translate(427.268701 404.638438) scale(0.1 -0.1)">
       <defs>
        <path id="DejaVuSans-36" d="M 2113 2584 
Q 1688 2584 1439 2293 
Q 1191 2003 1191 1497 
Q 1191 994 1439 701 
Q 1688 409 2113 409 
Q 2538 409 2786 701 
Q 3034 994 3034 1497 
Q 3034 2003 2786 2293 
Q 2538 2584 2113 2584 
z
M 3366 4563 
L 3366 3988 
Q 3128 4100 2886 4159 
Q 2644 4219 2406 4219 
Q 1781 4219 1451 3797 
Q 1122 3375 1075 2522 
Q 1259 2794 1537 2939 
Q 1816 3084 2150 3084 
Q 2853 3084 3261 2657 
Q 3669 2231 3669 1497 
Q 3669 778 3244 343 
Q 2819 -91 2113 -91 
Q 1303 -91 875 529 
Q 447 1150 447 2328 
Q 447 3434 972 4092 
Q 1497 4750 2381 4750 
Q 2619 4750 2861 4703 
Q 3103 4656 3366 4563 
z
" transform="scale(0.015625)"/>
       </defs>
       <use xlink:href="#DejaVuSans-36"/>
       <use xlink:href="#DejaVuSans-30" transform="translate(63.623047 0)"/>
       <use xlink:href="#DejaVuSans-30" transform="translate(127.246094 0)"/>
       <use xlink:href="#DejaVuSans-30" transform="translate(190.869141 0)"/>
       <use xlink:href="#DejaVuSans-30" transform="translate(254.492188 0)"/>
      </g>
     </g>
    </g>
    <g id="xtick_5">
     <g id="line2d_9">
      <path d="M 565.211999 390.04 
L 565.211999 10.8 
" clip-path="url(#p1b28fd8e2c)" style="fill: none; stroke: #b0b0b0; stroke-width: 0.8; stroke-linecap: square"/>
     </g>
     <g id="line2d_10">
      <g>
       <use xlink:href="#mce086211fd" x="565.211999" y="390.04" style="stroke: #000000; stroke-width: 0.8"/>
      </g>
     </g>
     <g id="text_5">
      <!-- 80000 -->
      <g transform="translate(549.305749 404.638438) scale(0.1 -0.1)">
       <defs>
        <path id="DejaVuSans-38" d="M 2034 2216 
Q 1584 2216 1326 1975 
Q 1069 1734 1069 1313 
Q 1069 891 1326 650 
Q 1584 409 2034 409 
Q 2484 409 2743 651 
Q 3003 894 3003 1313 
Q 3003 1734 2745 1975 
Q 2488 2216 2034 2216 
z
M 1403 2484 
Q 997 2584 770 2862 
Q 544 3141 544 3541 
Q 544 4100 942 4425 
Q 1341 4750 2034 4750 
Q 2731 4750 3128 4425 
Q 3525 4100 3525 3541 
Q 3525 3141 3298 2862 
Q 3072 2584 2669 2484 
Q 3125 2378 3379 2068 
Q 3634 1759 3634 1313 
Q 3634 634 3220 271 
Q 2806 -91 2034 -91 
Q 1263 -91 848 271 
Q 434 634 434 1313 
Q 434 1759 690 2068 
Q 947 2378 1403 2484 
z
M 1172 3481 
Q 1172 3119 1398 2916 
Q 1625 2713 2034 2713 
Q 2441 2713 2670 2916 
Q 2900 3119 2900 3481 
Q 2900 3844 2670 4047 
Q 2441 4250 2034 4250 
Q 1625 4250 1398 4047 
Q 1172 3844 1172 3481 
z
" transform="scale(0.015625)"/>
       </defs>
       <use xlink:href="#DejaVuSans-38"/>
       <use xlink:href="#DejaVuSans-30" transform="translate(63.623047 0)"/>
       <use xlink:href="#DejaVuSans-30" transform="translate(127.246094 0)"/>
       <use xlink:href="#DejaVuSans-30" transform="translate(190.869141 0)"/>
       <use xlink:href="#DejaVuSans-30" transform="translate(254.492188 0)"/>
      </g>
     </g>
    </g>
    <g id="xtick_6">
     <g id="line2d_11">
      <path d="M 687.249047 390.04 
L 687.249047 10.8 
" clip-path="url(#p1b28fd8e2c)" style="fill: none; stroke: #b0b0b0; stroke-width: 0.8; stroke-linecap: square"/>
     </g>
     <g id="line2d_12">
      <g>
       <use xlink:href="#mce086211fd" x="687.249047" y="390.04" style="stroke: #000000; stroke-width: 0.8"/>
      </g>
     </g>
     <g id="text_6">
      <!-- 100000 -->
      <g transform="translate(668.161547 404.638438) scale(0.1 -0.1)">
       <defs>
        <path id="DejaVuSans-31" d="M 794 531 
L 1825 531 
L 1825 4091 
L 703 3866 
L 703 4441 
L 1819 4666 
L 2450 4666 
L 2450 531 
L 3481 531 
L 3481 0 
L 794 0 
L 794 531 
z
" transform="scale(0.015625)"/>
       </defs>
       <use xlink:href="#DejaVuSans-31"/>
       <use xlink:href="#DejaVuSans-30" transform="translate(63.623047 0)"/>
       <use xlink:href="#DejaVuSans-30" transform="translate(127.246094 0)"/>
       <use xlink:href="#DejaVuSans-30" transform="translate(190.869141 0)"/>
       <use xlink:href="#DejaVuSans-30" transform="translate(254.492188 0)"/>
       <use xlink:href="#DejaVuSans-30" transform="translate(318.115234 0)"/>
      </g>
     </g>
    </g>
    <g id="text_7">
     <!-- Episodes -->
     <g transform="translate(355.03886 418.316562) scale(0.1 -0.1)">
      <defs>
       <path id="DejaVuSans-45" d="M 628 4666 
L 3578 4666 
L 3578 4134 
L 1259 4134 
L 1259 2753 
L 3481 2753 
L 3481 2222 
L 1259 2222 
L 1259 531 
L 3634 531 
L 3634 0 
L 628 0 
L 628 4666 
z
" transform="scale(0.015625)"/>
       <path id="DejaVuSans-70" d="M 1159 525 
L 1159 -1331 
L 581 -1331 
L 581 3500 
L 1159 3500 
L 1159 2969 
Q 1341 3281 1617 3432 
Q 1894 3584 2278 3584 
Q 2916 3584 3314 3078 
Q 3713 2572 3713 1747 
Q 3713 922 3314 415 
Q 2916 -91 2278 -91 
Q 1894 -91 1617 61 
Q 1341 213 1159 525 
z
M 3116 1747 
Q 3116 2381 2855 2742 
Q 2594 3103 2138 3103 
Q 1681 3103 1420 2742 
Q 1159 2381 1159 1747 
Q 1159 1113 1420 752 
Q 1681 391 2138 391 
Q 2594 391 2855 752 
Q 3116 1113 3116 1747 
z
" transform="scale(0.015625)"/>
       <path id="DejaVuSans-69" d="M 603 3500 
L 1178 3500 
L 1178 0 
L 603 0 
L 603 3500 
z
M 603 4863 
L 1178 4863 
L 1178 4134 
L 603 4134 
L 603 4863 
z
" transform="scale(0.015625)"/>
       <path id="DejaVuSans-73" d="M 2834 3397 
L 2834 2853 
Q 2591 2978 2328 3040 
Q 2066 3103 1784 3103 
Q 1356 3103 1142 2972 
Q 928 2841 928 2578 
Q 928 2378 1081 2264 
Q 1234 2150 1697 2047 
L 1894 2003 
Q 2506 1872 2764 1633 
Q 3022 1394 3022 966 
Q 3022 478 2636 193 
Q 2250 -91 1575 -91 
Q 1294 -91 989 -36 
Q 684 19 347 128 
L 347 722 
Q 666 556 975 473 
Q 1284 391 1588 391 
Q 1994 391 2212 530 
Q 2431 669 2431 922 
Q 2431 1156 2273 1281 
Q 2116 1406 1581 1522 
L 1381 1569 
Q 847 1681 609 1914 
Q 372 2147 372 2553 
Q 372 3047 722 3315 
Q 1072 3584 1716 3584 
Q 2034 3584 2315 3537 
Q 2597 3491 2834 3397 
z
" transform="scale(0.015625)"/>
       <path id="DejaVuSans-6f" d="M 1959 3097 
Q 1497 3097 1228 2736 
Q 959 2375 959 1747 
Q 959 1119 1226 758 
Q 1494 397 1959 397 
Q 2419 397 2687 759 
Q 2956 1122 2956 1747 
Q 2956 2369 2687 2733 
Q 2419 3097 1959 3097 
z
M 1959 3584 
Q 2709 3584 3137 3096 
Q 3566 2609 3566 1747 
Q 3566 888 3137 398 
Q 2709 -91 1959 -91 
Q 1206 -91 779 398 
Q 353 888 353 1747 
Q 353 2609 779 3096 
Q 1206 3584 1959 3584 
z
" transform="scale(0.015625)"/>
       <path id="DejaVuSans-64" d="M 2906 2969 
L 2906 4863 
L 3481 4863 
L 3481 0 
L 2906 0 
L 2906 525 
Q 2725 213 2448 61 
Q 2172 -91 1784 -91 
Q 1150 -91 751 415 
Q 353 922 353 1747 
Q 353 2572 751 3078 
Q 1150 3584 1784 3584 
Q 2172 3584 2448 3432 
Q 2725 3281 2906 2969 
z
M 947 1747 
Q 947 1113 1208 752 
Q 1469 391 1925 391 
Q 2381 391 2643 752 
Q 2906 1113 2906 1747 
Q 2906 2381 2643 2742 
Q 2381 3103 1925 3103 
Q 1469 3103 1208 2742 
Q 947 2381 947 1747 
z
" transform="scale(0.015625)"/>
       <path id="DejaVuSans-65" d="M 3597 1894 
L 3597 1613 
L 953 1613 
Q 991 1019 1311 708 
Q 1631 397 2203 397 
Q 2534 397 2845 478 
Q 3156 559 3463 722 
L 3463 178 
Q 3153 47 2828 -22 
Q 2503 -91 2169 -91 
Q 1331 -91 842 396 
Q 353 884 353 1716 
Q 353 2575 817 3079 
Q 1281 3584 2069 3584 
Q 2775 3584 3186 3129 
Q 3597 2675 3597 1894 
z
M 3022 2063 
Q 3016 2534 2758 2815 
Q 2500 3097 2075 3097 
Q 1594 3097 1305 2825 
Q 1016 2553 972 2059 
L 3022 2063 
z
" transform="scale(0.015625)"/>
      </defs>
      <use xlink:href="#DejaVuSans-45"/>
      <use xlink:href="#DejaVuSans-70" transform="translate(63.183594 0)"/>
      <use xlink:href="#DejaVuSans-69" transform="translate(126.660156 0)"/>
      <use xlink:href="#DejaVuSans-73" transform="translate(154.443359 0)"/>
      <use xlink:href="#DejaVuSans-6f" transform="translate(206.542969 0)"/>
      <use xlink:href="#DejaVuSans-64" transform="translate(267.724609 0)"/>
      <use xlink:href="#DejaVuSans-65" transform="translate(331.201172 0)"/>
      <use xlink:href="#DejaVuSans-73" transform="translate(392.724609 0)"/>
     </g>
    </g>
   </g>
   <g id="matplotlib.axis_2">
    <g id="ytick_1">
     <g id="line2d_13">
      <path d="M 47.72 369.416904 
L 706.842095 369.416904 
" clip-path="url(#p1b28fd8e2c)" style="fill: none; stroke: #b0b0b0; stroke-width: 0.8; stroke-linecap: square"/>
     </g>
     <g id="line2d_14">
      <defs>
       <path id="m35fdc55c05" d="M 0 0 
L -3.5 0 
" style="stroke: #000000; stroke-width: 0.8"/>
      </defs>
      <g>
       <use xlink:href="#m35fdc55c05" x="47.72" y="369.416904" style="stroke: #000000; stroke-width: 0.8"/>
      </g>
     </g>
     <g id="text_8">
      <!-- 1.0 -->
      <g transform="translate(24.816875 373.216123) scale(0.1 -0.1)">
       <defs>
        <path id="DejaVuSans-2e" d="M 684 794 
L 1344 794 
L 1344 0 
L 684 0 
L 684 794 
z
" transform="scale(0.015625)"/>
       </defs>
       <use xlink:href="#DejaVuSans-31"/>
       <use xlink:href="#DejaVuSans-2e" transform="translate(63.623047 0)"/>
       <use xlink:href="#DejaVuSans-30" transform="translate(95.410156 0)"/>
      </g>
     </g>
    </g>
    <g id="ytick_2">
     <g id="line2d_15">
      <path d="M 47.72 319.312165 
L 706.842095 319.312165 
" clip-path="url(#p1b28fd8e2c)" style="fill: none; stroke: #b0b0b0; stroke-width: 0.8; stroke-linecap: square"/>
     </g>
     <g id="line2d_16">
      <g>
       <use xlink:href="#m35fdc55c05" x="47.72" y="319.312165" style="stroke: #000000; stroke-width: 0.8"/>
      </g>
     </g>
     <g id="text_9">
      <!-- 1.5 -->
      <g transform="translate(24.816875 323.111383) scale(0.1 -0.1)">
       <defs>
        <path id="DejaVuSans-35" d="M 691 4666 
L 3169 4666 
L 3169 4134 
L 1269 4134 
L 1269 2991 
Q 1406 3038 1543 3061 
Q 1681 3084 1819 3084 
Q 2600 3084 3056 2656 
Q 3513 2228 3513 1497 
Q 3513 744 3044 326 
Q 2575 -91 1722 -91 
Q 1428 -91 1123 -41 
Q 819 9 494 109 
L 494 744 
Q 775 591 1075 516 
Q 1375 441 1709 441 
Q 2250 441 2565 725 
Q 2881 1009 2881 1497 
Q 2881 1984 2565 2268 
Q 2250 2553 1709 2553 
Q 1456 2553 1204 2497 
Q 953 2441 691 2322 
L 691 4666 
z
" transform="scale(0.015625)"/>
       </defs>
       <use xlink:href="#DejaVuSans-31"/>
       <use xlink:href="#DejaVuSans-2e" transform="translate(63.623047 0)"/>
       <use xlink:href="#DejaVuSans-35" transform="translate(95.410156 0)"/>
      </g>
     </g>
    </g>
    <g id="ytick_3">
     <g id="line2d_17">
      <path d="M 47.72 269.207425 
L 706.842095 269.207425 
" clip-path="url(#p1b28fd8e2c)" style="fill: none; stroke: #b0b0b0; stroke-width: 0.8; stroke-linecap: square"/>
     </g>
     <g id="line2d_18">
      <g>
       <use xlink:href="#m35fdc55c05" x="47.72" y="269.207425" style="stroke: #000000; stroke-width: 0.8"/>
      </g>
     </g>
     <g id="text_10">
      <!-- 2.0 -->
      <g transform="translate(24.816875 273.006643) scale(0.1 -0.1)">
       <use xlink:href="#DejaVuSans-32"/>
       <use xlink:href="#DejaVuSans-2e" transform="translate(63.623047 0)"/>
       <use xlink:href="#DejaVuSans-30" transform="translate(95.410156 0)"/>
      </g>
     </g>
    </g>
    <g id="ytick_4">
     <g id="line2d_19">
      <path d="M 47.72 219.102685 
L 706.842095 219.102685 
" clip-path="url(#p1b28fd8e2c)" style="fill: none; stroke: #b0b0b0; stroke-width: 0.8; stroke-linecap: square"/>
     </g>
     <g id="line2d_20">
      <g>
       <use xlink:href="#m35fdc55c05" x="47.72" y="219.102685" style="stroke: #000000; stroke-width: 0.8"/>
      </g>
     </g>
     <g id="text_11">
      <!-- 2.5 -->
      <g transform="translate(24.816875 222.901903) scale(0.1 -0.1)">
       <use xlink:href="#DejaVuSans-32"/>
       <use xlink:href="#DejaVuSans-2e" transform="translate(63.623047 0)"/>
       <use xlink:href="#DejaVuSans-35" transform="translate(95.410156 0)"/>
      </g>
     </g>
    </g>
    <g id="ytick_5">
     <g id="line2d_21">
      <path d="M 47.72 168.997945 
L 706.842095 168.997945 
" clip-path="url(#p1b28fd8e2c)" style="fill: none; stroke: #b0b0b0; stroke-width: 0.8; stroke-linecap: square"/>
     </g>
     <g id="line2d_22">
      <g>
       <use xlink:href="#m35fdc55c05" x="47.72" y="168.997945" style="stroke: #000000; stroke-width: 0.8"/>
      </g>
     </g>
     <g id="text_12">
      <!-- 3.0 -->
      <g transform="translate(24.816875 172.797164) scale(0.1 -0.1)">
       <defs>
        <path id="DejaVuSans-33" d="M 2597 2516 
Q 3050 2419 3304 2112 
Q 3559 1806 3559 1356 
Q 3559 666 3084 287 
Q 2609 -91 1734 -91 
Q 1441 -91 1130 -33 
Q 819 25 488 141 
L 488 750 
Q 750 597 1062 519 
Q 1375 441 1716 441 
Q 2309 441 2620 675 
Q 2931 909 2931 1356 
Q 2931 1769 2642 2001 
Q 2353 2234 1838 2234 
L 1294 2234 
L 1294 2753 
L 1863 2753 
Q 2328 2753 2575 2939 
Q 2822 3125 2822 3475 
Q 2822 3834 2567 4026 
Q 2313 4219 1838 4219 
Q 1578 4219 1281 4162 
Q 984 4106 628 3988 
L 628 4550 
Q 988 4650 1302 4700 
Q 1616 4750 1894 4750 
Q 2613 4750 3031 4423 
Q 3450 4097 3450 3541 
Q 3450 3153 3228 2886 
Q 3006 2619 2597 2516 
z
" transform="scale(0.015625)"/>
       </defs>
       <use xlink:href="#DejaVuSans-33"/>
       <use xlink:href="#DejaVuSans-2e" transform="translate(63.623047 0)"/>
       <use xlink:href="#DejaVuSans-30" transform="translate(95.410156 0)"/>
      </g>
     </g>
    </g>
    <g id="ytick_6">
     <g id="line2d_23">
      <path d="M 47.72 118.893205 
L 706.842095 118.893205 
" clip-path="url(#p1b28fd8e2c)" style="fill: none; stroke: #b0b0b0; stroke-width: 0.8; stroke-linecap: square"/>
     </g>
     <g id="line2d_24">
      <g>
       <use xlink:href="#m35fdc55c05" x="47.72" y="118.893205" style="stroke: #000000; stroke-width: 0.8"/>
      </g>
     </g>
     <g id="text_13">
      <!-- 3.5 -->
      <g transform="translate(24.816875 122.692424) scale(0.1 -0.1)">
       <use xlink:href="#DejaVuSans-33"/>
       <use xlink:href="#DejaVuSans-2e" transform="translate(63.623047 0)"/>
       <use xlink:href="#DejaVuSans-35" transform="translate(95.410156 0)"/>
      </g>
     </g>
    </g>
    <g id="ytick_7">
     <g id="line2d_25">
      <path d="M 47.72 68.788465 
L 706.842095 68.788465 
" clip-path="url(#p1b28fd8e2c)" style="fill: none; stroke: #b0b0b0; stroke-width: 0.8; stroke-linecap: square"/>
     </g>
     <g id="line2d_26">
      <g>
       <use xlink:href="#m35fdc55c05" x="47.72" y="68.788465" style="stroke: #000000; stroke-width: 0.8"/>
      </g>
     </g>
     <g id="text_14">
      <!-- 4.0 -->
      <g transform="translate(24.816875 72.587684) scale(0.1 -0.1)">
       <use xlink:href="#DejaVuSans-34"/>
       <use xlink:href="#DejaVuSans-2e" transform="translate(63.623047 0)"/>
       <use xlink:href="#DejaVuSans-30" transform="translate(95.410156 0)"/>
      </g>
     </g>
    </g>
    <g id="ytick_8">
     <g id="line2d_27">
      <path d="M 47.72 18.683725 
L 706.842095 18.683725 
" clip-path="url(#p1b28fd8e2c)" style="fill: none; stroke: #b0b0b0; stroke-width: 0.8; stroke-linecap: square"/>
     </g>
     <g id="line2d_28">
      <g>
       <use xlink:href="#m35fdc55c05" x="47.72" y="18.683725" style="stroke: #000000; stroke-width: 0.8"/>
      </g>
     </g>
     <g id="text_15">
      <!-- 4.5 -->
      <g transform="translate(24.816875 22.482944) scale(0.1 -0.1)">
       <use xlink:href="#DejaVuSans-34"/>
       <use xlink:href="#DejaVuSans-2e" transform="translate(63.623047 0)"/>
       <use xlink:href="#DejaVuSans-35" transform="translate(95.410156 0)"/>
      </g>
     </g>
    </g>
    <g id="text_16">
     <!-- Quantum Gates -->
     <g transform="translate(18.737188 239.925469) rotate(-90) scale(0.1 -0.1)">
      <defs>
       <path id="DejaVuSans-51" d="M 2522 4238 
Q 1834 4238 1429 3725 
Q 1025 3213 1025 2328 
Q 1025 1447 1429 934 
Q 1834 422 2522 422 
Q 3209 422 3611 934 
Q 4013 1447 4013 2328 
Q 4013 3213 3611 3725 
Q 3209 4238 2522 4238 
z
M 3406 84 
L 4238 -825 
L 3475 -825 
L 2784 -78 
Q 2681 -84 2626 -87 
Q 2572 -91 2522 -91 
Q 1538 -91 948 567 
Q 359 1225 359 2328 
Q 359 3434 948 4092 
Q 1538 4750 2522 4750 
Q 3503 4750 4090 4092 
Q 4678 3434 4678 2328 
Q 4678 1516 4351 937 
Q 4025 359 3406 84 
z
" transform="scale(0.015625)"/>
       <path id="DejaVuSans-75" d="M 544 1381 
L 544 3500 
L 1119 3500 
L 1119 1403 
Q 1119 906 1312 657 
Q 1506 409 1894 409 
Q 2359 409 2629 706 
Q 2900 1003 2900 1516 
L 2900 3500 
L 3475 3500 
L 3475 0 
L 2900 0 
L 2900 538 
Q 2691 219 2414 64 
Q 2138 -91 1772 -91 
Q 1169 -91 856 284 
Q 544 659 544 1381 
z
M 1991 3584 
L 1991 3584 
z
" transform="scale(0.015625)"/>
       <path id="DejaVuSans-61" d="M 2194 1759 
Q 1497 1759 1228 1600 
Q 959 1441 959 1056 
Q 959 750 1161 570 
Q 1363 391 1709 391 
Q 2188 391 2477 730 
Q 2766 1069 2766 1631 
L 2766 1759 
L 2194 1759 
z
M 3341 1997 
L 3341 0 
L 2766 0 
L 2766 531 
Q 2569 213 2275 61 
Q 1981 -91 1556 -91 
Q 1019 -91 701 211 
Q 384 513 384 1019 
Q 384 1609 779 1909 
Q 1175 2209 1959 2209 
L 2766 2209 
L 2766 2266 
Q 2766 2663 2505 2880 
Q 2244 3097 1772 3097 
Q 1472 3097 1187 3025 
Q 903 2953 641 2809 
L 641 3341 
Q 956 3463 1253 3523 
Q 1550 3584 1831 3584 
Q 2591 3584 2966 3190 
Q 3341 2797 3341 1997 
z
" transform="scale(0.015625)"/>
       <path id="DejaVuSans-6e" d="M 3513 2113 
L 3513 0 
L 2938 0 
L 2938 2094 
Q 2938 2591 2744 2837 
Q 2550 3084 2163 3084 
Q 1697 3084 1428 2787 
Q 1159 2491 1159 1978 
L 1159 0 
L 581 0 
L 581 3500 
L 1159 3500 
L 1159 2956 
Q 1366 3272 1645 3428 
Q 1925 3584 2291 3584 
Q 2894 3584 3203 3211 
Q 3513 2838 3513 2113 
z
" transform="scale(0.015625)"/>
       <path id="DejaVuSans-74" d="M 1172 4494 
L 1172 3500 
L 2356 3500 
L 2356 3053 
L 1172 3053 
L 1172 1153 
Q 1172 725 1289 603 
Q 1406 481 1766 481 
L 2356 481 
L 2356 0 
L 1766 0 
Q 1100 0 847 248 
Q 594 497 594 1153 
L 594 3053 
L 172 3053 
L 172 3500 
L 594 3500 
L 594 4494 
L 1172 4494 
z
" transform="scale(0.015625)"/>
       <path id="DejaVuSans-6d" d="M 3328 2828 
Q 3544 3216 3844 3400 
Q 4144 3584 4550 3584 
Q 5097 3584 5394 3201 
Q 5691 2819 5691 2113 
L 5691 0 
L 5113 0 
L 5113 2094 
Q 5113 2597 4934 2840 
Q 4756 3084 4391 3084 
Q 3944 3084 3684 2787 
Q 3425 2491 3425 1978 
L 3425 0 
L 2847 0 
L 2847 2094 
Q 2847 2600 2669 2842 
Q 2491 3084 2119 3084 
Q 1678 3084 1418 2786 
Q 1159 2488 1159 1978 
L 1159 0 
L 581 0 
L 581 3500 
L 1159 3500 
L 1159 2956 
Q 1356 3278 1631 3431 
Q 1906 3584 2284 3584 
Q 2666 3584 2933 3390 
Q 3200 3197 3328 2828 
z
" transform="scale(0.015625)"/>
       <path id="DejaVuSans-20" transform="scale(0.015625)"/>
       <path id="DejaVuSans-47" d="M 3809 666 
L 3809 1919 
L 2778 1919 
L 2778 2438 
L 4434 2438 
L 4434 434 
Q 4069 175 3628 42 
Q 3188 -91 2688 -91 
Q 1594 -91 976 548 
Q 359 1188 359 2328 
Q 359 3472 976 4111 
Q 1594 4750 2688 4750 
Q 3144 4750 3555 4637 
Q 3966 4525 4313 4306 
L 4313 3634 
Q 3963 3931 3569 4081 
Q 3175 4231 2741 4231 
Q 1884 4231 1454 3753 
Q 1025 3275 1025 2328 
Q 1025 1384 1454 906 
Q 1884 428 2741 428 
Q 3075 428 3337 486 
Q 3600 544 3809 666 
z
" transform="scale(0.015625)"/>
      </defs>
      <use xlink:href="#DejaVuSans-51"/>
      <use xlink:href="#DejaVuSans-75" transform="translate(78.710938 0)"/>
      <use xlink:href="#DejaVuSans-61" transform="translate(142.089844 0)"/>
      <use xlink:href="#DejaVuSans-6e" transform="translate(203.369141 0)"/>
      <use xlink:href="#DejaVuSans-74" transform="translate(266.748047 0)"/>
      <use xlink:href="#DejaVuSans-75" transform="translate(305.957031 0)"/>
      <use xlink:href="#DejaVuSans-6d" transform="translate(369.335938 0)"/>
      <use xlink:href="#DejaVuSans-20" transform="translate(466.748047 0)"/>
      <use xlink:href="#DejaVuSans-47" transform="translate(498.535156 0)"/>
      <use xlink:href="#DejaVuSans-61" transform="translate(576.025391 0)"/>
      <use xlink:href="#DejaVuSans-74" transform="translate(637.304688 0)"/>
      <use xlink:href="#DejaVuSans-65" transform="translate(676.513672 0)"/>
      <use xlink:href="#DejaVuSans-73" transform="translate(738.037109 0)"/>
     </g>
    </g>
   </g>
   <g id="line2d_29">
    <path d="M 77.680095 140.438243 
L 78.900466 199.728852 
L 80.120836 249.666576 
L 81.341207 285.741989 
L 82.561577 316.806928 
L 83.781948 331.337302 
L 85.002318 350.043072 
L 86.222689 358.393862 
L 87.443059 362.736272 
L 88.66343 365.241509 
L 89.8838 368.247794 
L 91.10417 368.247794 
L 92.324541 368.41481 
L 93.544911 368.915857 
L 94.765282 368.581825 
L 95.985652 368.581825 
L 97.206023 369.082873 
L 98.426393 369.082873 
L 99.646764 369.416904 
L 100.867134 369.416904 
L 102.087505 369.082873 
L 103.307875 368.915857 
L 104.528246 369.249889 
L 105.748616 369.082873 
L 106.968987 369.416904 
L 109.409728 369.416904 
L 110.630098 369.082873 
L 111.850469 369.416904 
L 114.29121 369.416904 
L 115.51158 369.249889 
L 116.731951 369.416904 
L 117.952321 369.249889 
L 119.172691 369.416904 
L 125.274544 369.416904 
L 126.494914 369.249889 
L 127.715285 369.416904 
L 133.817137 369.416904 
L 135.037508 369.249889 
L 136.257878 369.249889 
L 137.478249 369.416904 
L 141.13936 369.416904 
L 142.359731 369.249889 
L 143.580101 369.249889 
L 144.800471 369.416904 
L 146.020842 369.416904 
L 147.241212 369.249889 
L 148.461583 369.416904 
L 149.681953 369.416904 
L 150.902324 369.249889 
L 152.122694 369.416904 
L 160.665288 369.416904 
L 161.885658 369.249889 
L 163.106029 369.249889 
L 164.326399 369.416904 
L 165.54677 369.416904 
L 166.76714 369.249889 
L 167.987511 369.416904 
L 180.191215 369.416904 
L 181.411586 369.249889 
L 182.631956 369.416904 
L 230.226405 369.416904 
L 231.446775 369.249889 
L 232.667146 369.416904 
L 263.176408 369.416904 
L 264.396778 369.249889 
L 265.617149 369.416904 
L 275.380113 369.416904 
L 276.600483 369.249889 
L 277.820854 369.416904 
L 299.787522 369.416904 
L 301.007893 369.249889 
L 302.228263 369.416904 
L 403.519013 369.416904 
L 404.739383 369.249889 
L 405.959754 369.416904 
L 524.33569 369.416904 
L 525.556061 369.249889 
L 526.776431 369.416904 
L 535.319024 369.416904 
L 536.539395 369.249889 
L 537.759765 369.416904 
L 630.507922 369.416904 
L 631.728292 369.249889 
L 632.948663 369.416904 
L 676.882 369.416904 
L 676.882 369.416904 
" clip-path="url(#p1b28fd8e2c)" style="fill: none; stroke: #1f77b4; stroke-width: 1.5; stroke-linecap: square"/>
   </g>
   <g id="patch_3">
    <path d="M 47.72 390.04 
L 47.72 10.8 
" style="fill: none; stroke: #000000; stroke-width: 0.8; stroke-linejoin: miter; stroke-linecap: square"/>
   </g>
   <g id="patch_4">
    <path d="M 706.842095 390.04 
L 706.842095 10.8 
" style="fill: none; stroke: #000000; stroke-width: 0.8; stroke-linejoin: miter; stroke-linecap: square"/>
   </g>
   <g id="patch_5">
    <path d="M 47.72 390.04 
L 706.842095 390.04 
" style="fill: none; stroke: #000000; stroke-width: 0.8; stroke-linejoin: miter; stroke-linecap: square"/>
   </g>
   <g id="patch_6">
    <path d="M 47.72 10.8 
L 706.842095 10.8 
" style="fill: none; stroke: #000000; stroke-width: 0.8; stroke-linejoin: miter; stroke-linecap: square"/>
   </g>
  </g>
 </g>
 <defs>
  <clipPath id="p1b28fd8e2c">
   <rect x="47.72" y="10.8" width="659.122095" height="379.24"/>
  </clipPath>
 </defs>
</svg>
