<?xml version="1.0" encoding="utf-8" standalone="no"?>
<!DOCTYPE svg PUBLIC "-//W3C//DTD SVG 1.1//EN"
  "http://www.w3.org/Graphics/SVG/1.1/DTD/svg11.dtd">
<svg xmlns:xlink="http://www.w3.org/1999/xlink" width="720pt" height="432pt" viewBox="0 0 720 432" xmlns="http://www.w3.org/2000/svg" version="1.1">
 <metadata>
  <rdf:RDF xmlns:dc="http://purl.org/dc/elements/1.1/" xmlns:cc="http://creativecommons.org/ns#" xmlns:rdf="http://www.w3.org/1999/02/22-rdf-syntax-ns#">
   <cc:Work>
    <dc:type rdf:resource="http://purl.org/dc/dcmitype/StillImage"/>
    <dc:date>2025-04-22T23:11:28.043112</dc:date>
    <dc:format>image/svg+xml</dc:format>
    <dc:creator>
     <cc:Agent>
      <dc:title>Matplotlib v3.10.0, https://matplotlib.org/</dc:title>
     </cc:Agent>
    </dc:creator>
   </cc:Work>
  </rdf:RDF>
 </metadata>
 <defs>
  <style type="text/css">*{stroke-linejoin: round; stroke-linecap: butt}</style>
 </defs>
 <g id="figure_1">
  <g id="patch_1">
   <path d="M 0 432 
L 720 432 
L 720 0 
L 0 0 
z
" style="fill: #ffffff"/>
  </g>
  <g id="axes_1">
   <g id="patch_2">
    <path d="M 54.02 390.04 
L 709.2 390.04 
L 709.2 10.8 
L 54.02 10.8 
z
" style="fill: #ffffff"/>
   </g>
   <g id="FillBetweenPolyCollection_1">
    <path d="M 83.800909 238.488148 
L 83.800909 357.570954 
L 87.020467 347.318685 
L 90.240025 346.747068 
L 93.459582 349.352728 
L 96.67914 351.23937 
L 99.898698 341.199417 
L 103.118256 343.071397 
L 106.337813 353.169345 
L 109.557371 351.978483 
L 112.776929 351.384392 
L 115.996486 361.793705 
L 119.216044 359.287787 
L 122.435602 360.688684 
L 125.65516 361.390904 
L 128.874717 368.162621 
L 132.094275 365.753177 
L 135.313833 370.62343 
L 138.533391 368.885253 
L 141.752948 362.945655 
L 144.972506 367.295794 
L 148.192064 365.696179 
L 151.411622 372.333999 
L 154.631179 369.446819 
L 157.850737 371.43699 
L 161.070295 371.479785 
L 164.289853 372.801818 
L 167.50941 371.526162 
L 170.728968 370.523559 
L 173.948526 371.916506 
L 177.168084 372.165456 
L 180.387641 370.060195 
L 183.607199 368.864709 
L 186.826757 371.376594 
L 190.046314 365.926537 
L 193.265872 363.428078 
L 196.48543 362.986109 
L 199.704988 361.94867 
L 202.924545 361.604827 
L 206.144103 364.227255 
L 209.363661 363.228874 
L 212.583219 362.492769 
L 215.802776 360.735016 
L 219.022334 360.484881 
L 222.241892 362.073075 
L 225.46145 355.803984 
L 228.681007 355.73535 
L 231.900565 360.810363 
L 235.120123 350.993449 
L 238.339681 351.789997 
L 241.559238 351.590052 
L 244.778796 351.191575 
L 247.998354 346.859895 
L 251.217912 348.629804 
L 254.437469 342.310183 
L 257.657027 328.811064 
L 260.876585 324.993176 
L 264.096143 326.915686 
L 267.3157 319.831811 
L 270.535258 304.355161 
L 273.754816 308.927101 
L 276.974373 297.100781 
L 280.193931 285.181557 
L 283.413489 264.428894 
L 286.633047 278.562549 
L 289.852604 273.371244 
L 293.072162 275.979819 
L 296.29172 258.915182 
L 299.511278 253.253713 
L 302.730835 254.492627 
L 305.950393 253.974295 
L 309.169951 263.603706 
L 312.389509 258.943614 
L 315.609066 243.305012 
L 318.828624 251.092739 
L 322.048182 245.634461 
L 325.26774 235.015395 
L 328.487297 233.097456 
L 331.706855 242.32945 
L 334.926413 239.388969 
L 338.145971 231.514868 
L 341.365528 215.439194 
L 344.585086 223.565173 
L 347.804644 206.855466 
L 351.024201 221.386891 
L 354.243759 199.567261 
L 357.463317 208.347474 
L 360.682875 213.105565 
L 363.902432 213.299108 
L 367.12199 231.119859 
L 370.341548 243.694516 
L 373.561106 260.721299 
L 376.780663 229.029354 
L 380.000221 263.466378 
L 383.219779 226.285719 
L 386.439337 196.838311 
L 389.658894 173.925438 
L 392.878452 172.488121 
L 396.09801 151.77104 
L 399.317568 149.203099 
L 402.537125 154.491301 
L 405.756683 148.366152 
L 408.976241 140.510823 
L 412.195799 163.943822 
L 415.415356 161.295622 
L 418.634914 192.869684 
L 421.854472 203.382065 
L 425.074029 164.823797 
L 428.293587 161.832099 
L 431.513145 173.818077 
L 434.732703 199.436553 
L 437.95226 225.293369 
L 441.171818 231.078997 
L 444.391376 242.480082 
L 447.610934 240.929504 
L 450.830491 243.080026 
L 454.050049 242.075917 
L 457.269607 261.766814 
L 460.489165 265.918415 
L 463.708722 284.689426 
L 466.92828 267.989889 
L 470.147838 278.804925 
L 473.367396 277.26304 
L 476.586953 250.677167 
L 479.806511 258.121006 
L 483.026069 250.814369 
L 486.245627 238.317106 
L 489.465184 232.812751 
L 492.684742 229.710943 
L 495.9043 266.12032 
L 499.123857 280.592636 
L 502.343415 240.671654 
L 505.562973 239.259782 
L 508.782531 274.309181 
L 512.002088 249.11829 
L 515.221646 236.633683 
L 518.441204 230.970145 
L 521.660762 222.014854 
L 524.880319 227.957132 
L 528.099877 251.400062 
L 531.319435 247.889964 
L 534.538993 233.674782 
L 537.75855 239.646265 
L 540.978108 261.724068 
L 544.197666 247.39294 
L 547.417224 237.805372 
L 550.636781 228.065539 
L 553.856339 217.729993 
L 557.075897 209.698449 
L 560.295455 229.753454 
L 563.515012 237.804606 
L 566.73457 215.774759 
L 569.954128 195.584722 
L 573.173686 141.312302 
L 576.393243 132.533251 
L 579.612801 118.89599 
L 582.832359 104.874104 
L 586.051916 114.837353 
L 589.271474 107.64431 
L 592.491032 194.367117 
L 595.71059 295.095633 
L 598.930147 163.007866 
L 602.149705 108.47725 
L 605.369263 109.012236 
L 608.588821 111.776184 
L 611.808378 99.718773 
L 615.027936 101.221584 
L 618.247494 105.193486 
L 621.467052 102.497123 
L 624.686609 106.028848 
L 627.906167 104.201921 
L 631.125725 105.236857 
L 634.345283 101.238686 
L 637.56484 105.097219 
L 640.784398 99.301336 
L 644.003956 109.993248 
L 647.223514 100.575303 
L 650.443071 104.345132 
L 653.662629 111.830675 
L 656.882187 108.738902 
L 660.101744 103.788442 
L 663.321302 103.31571 
L 666.54086 100.503385 
L 669.760418 100.855231 
L 672.979975 96.434602 
L 676.199533 107.107493 
L 679.419091 110.688525 
L 679.419091 40.40395 
L 679.419091 40.40395 
L 676.199533 40.187541 
L 672.979975 40.367507 
L 669.760418 40.310601 
L 666.54086 39.396633 
L 663.321302 39.482354 
L 660.101744 39.475974 
L 656.882187 39.388901 
L 653.662629 39.461662 
L 650.443071 39.718746 
L 647.223514 39.85769 
L 644.003956 39.500301 
L 640.784398 40.09902 
L 637.56484 39.632876 
L 634.345283 40.226944 
L 631.125725 39.359995 
L 627.906167 39.728713 
L 624.686609 40.133616 
L 621.467052 41.133714 
L 618.247494 39.96965 
L 615.027936 40.677088 
L 611.808378 40.780841 
L 608.588821 39.582776 
L 605.369263 40.581247 
L 602.149705 40.216839 
L 598.930147 45.745723 
L 595.71059 68.153777 
L 592.491032 53.993099 
L 589.271474 40.883227 
L 586.051916 40.618843 
L 582.832359 40.622141 
L 579.612801 42.389611 
L 576.393243 44.008738 
L 573.173686 43.790582 
L 569.954128 41.616356 
L 566.73457 40.546757 
L 563.515012 36.771265 
L 560.295455 38.226865 
L 557.075897 34.031556 
L 553.856339 35.093879 
L 550.636781 32.35321 
L 547.417224 29.475415 
L 544.197666 33.711859 
L 540.978108 31.539199 
L 537.75855 32.264734 
L 534.538993 34.905131 
L 531.319435 38.344709 
L 528.099877 35.56745 
L 524.880319 38.957238 
L 521.660762 43.400529 
L 518.441204 44.271944 
L 515.221646 40.773611 
L 512.002088 42.312881 
L 508.782531 49.266979 
L 505.562973 47.507869 
L 502.343415 41.465784 
L 499.123857 47.746976 
L 495.9043 39.767769 
L 492.684742 41.46722 
L 489.465184 44.594545 
L 486.245627 40.25607 
L 483.026069 35.020578 
L 479.806511 35.208887 
L 476.586953 36.190416 
L 473.367396 53.708138 
L 470.147838 39.54143 
L 466.92828 28.038182 
L 463.708722 34.123278 
L 460.489165 32.607969 
L 457.269607 36.892814 
L 454.050049 36.430637 
L 450.830491 35.859571 
L 447.610934 37.610365 
L 444.391376 41.722638 
L 441.171818 33.703491 
L 437.95226 30.661738 
L 434.732703 35.765882 
L 431.513145 36.034784 
L 428.293587 38.860271 
L 425.074029 37.667359 
L 421.854472 34.085501 
L 418.634914 34.104959 
L 415.415356 39.929723 
L 412.195799 41.278831 
L 408.976241 43.093077 
L 405.756683 43.432221 
L 402.537125 42.203765 
L 399.317568 42.228856 
L 396.09801 40.427063 
L 392.878452 40.296095 
L 389.658894 36.493707 
L 386.439337 37.264862 
L 383.219779 46.657932 
L 380.000221 55.546207 
L 376.780663 33.787786 
L 373.561106 38.271445 
L 370.341548 37.51022 
L 367.12199 43.589256 
L 363.902432 40.490776 
L 360.682875 45.081352 
L 357.463317 44.076663 
L 354.243759 46.261324 
L 351.024201 55.820533 
L 347.804644 48.999689 
L 344.585086 55.774147 
L 341.365528 51.44186 
L 338.145971 57.051563 
L 334.926413 61.00282 
L 331.706855 64.624581 
L 328.487297 55.968637 
L 325.26774 61.4124 
L 322.048182 63.984441 
L 318.828624 58.992514 
L 315.609066 59.685026 
L 312.389509 74.15945 
L 309.169951 71.83112 
L 305.950393 71.46727 
L 302.730835 77.178071 
L 299.511278 72.920698 
L 296.29172 76.619584 
L 293.072162 87.436149 
L 289.852604 85.780935 
L 286.633047 87.884714 
L 283.413489 79.33367 
L 280.193931 85.8293 
L 276.974373 81.005296 
L 273.754816 85.201503 
L 270.535258 87.741479 
L 267.3157 100.379202 
L 264.096143 110.250556 
L 260.876585 101.913318 
L 257.657027 109.454438 
L 254.437469 126.901115 
L 251.217912 146.563972 
L 247.998354 134.043515 
L 244.778796 166.620276 
L 241.559238 168.320386 
L 238.339681 180.312217 
L 235.120123 159.456702 
L 231.900565 181.651531 
L 228.681007 188.558642 
L 225.46145 203.113482 
L 222.241892 217.497131 
L 219.022334 213.788898 
L 215.802776 212.206327 
L 212.583219 205.618498 
L 209.363661 214.509234 
L 206.144103 221.338908 
L 202.924545 213.801521 
L 199.704988 234.843255 
L 196.48543 220.981134 
L 193.265872 235.462434 
L 190.046314 236.161819 
L 186.826757 238.806309 
L 183.607199 228.426885 
L 180.387641 245.419134 
L 177.168084 259.069915 
L 173.948526 277.240113 
L 170.728968 250.252199 
L 167.50941 266.004965 
L 164.289853 255.069155 
L 161.070295 253.093412 
L 157.850737 261.630478 
L 154.631179 265.119638 
L 151.411622 264.997262 
L 148.192064 254.346741 
L 144.972506 252.847058 
L 141.752948 245.538394 
L 138.533391 255.055038 
L 135.313833 249.619353 
L 132.094275 259.119819 
L 128.874717 235.991014 
L 125.65516 248.558823 
L 122.435602 236.236492 
L 119.216044 234.572786 
L 115.996486 232.799712 
L 112.776929 231.650153 
L 109.557371 216.232726 
L 106.337813 238.192918 
L 103.118256 221.375684 
L 99.898698 217.384954 
L 96.67914 218.903872 
L 93.459582 231.683171 
L 90.240025 227.85983 
L 87.020467 230.086327 
L 83.800909 238.488148 
z
" clip-path="url(#pafb9b3111d)" style="fill: #1f77b4; fill-opacity: 0.2"/>
   </g>
   <g id="matplotlib.axis_1">
    <g id="xtick_1">
     <g id="line2d_1">
      <path d="M 82.175032 390.04 
L 82.175032 10.8 
" clip-path="url(#pafb9b3111d)" style="fill: none; stroke: #b0b0b0; stroke-width: 0.8; stroke-linecap: square"/>
     </g>
     <g id="line2d_2">
      <defs>
       <path id="m6e313f0f94" d="M 0 0 
L 0 3.5 
" style="stroke: #000000; stroke-width: 0.8"/>
      </defs>
      <g>
       <use xlink:href="#m6e313f0f94" x="82.175032" y="390.04" style="stroke: #000000; stroke-width: 0.8"/>
      </g>
     </g>
     <g id="text_1">
      <!-- 0 -->
      <g transform="translate(78.993782 404.638438) scale(0.1 -0.1)">
       <defs>
        <path id="DejaVuSans-30" d="M 2034 4250 
Q 1547 4250 1301 3770 
Q 1056 3291 1056 2328 
Q 1056 1369 1301 889 
Q 1547 409 2034 409 
Q 2525 409 2770 889 
Q 3016 1369 3016 2328 
Q 3016 3291 2770 3770 
Q 2525 4250 2034 4250 
z
M 2034 4750 
Q 2819 4750 3233 4129 
Q 3647 3509 3647 2328 
Q 3647 1150 3233 529 
Q 2819 -91 2034 -91 
Q 1250 -91 836 529 
Q 422 1150 422 2328 
Q 422 3509 836 4129 
Q 1250 4750 2034 4750 
z
" transform="scale(0.015625)"/>
       </defs>
       <use xlink:href="#DejaVuSans-30"/>
      </g>
     </g>
    </g>
    <g id="xtick_2">
     <g id="line2d_3">
      <path d="M 162.663976 390.04 
L 162.663976 10.8 
" clip-path="url(#pafb9b3111d)" style="fill: none; stroke: #b0b0b0; stroke-width: 0.8; stroke-linecap: square"/>
     </g>
     <g id="line2d_4">
      <g>
       <use xlink:href="#m6e313f0f94" x="162.663976" y="390.04" style="stroke: #000000; stroke-width: 0.8"/>
      </g>
     </g>
     <g id="text_2">
      <!-- 5000 -->
      <g transform="translate(149.938976 404.638438) scale(0.1 -0.1)">
       <defs>
        <path id="DejaVuSans-35" d="M 691 4666 
L 3169 4666 
L 3169 4134 
L 1269 4134 
L 1269 2991 
Q 1406 3038 1543 3061 
Q 1681 3084 1819 3084 
Q 2600 3084 3056 2656 
Q 3513 2228 3513 1497 
Q 3513 744 3044 326 
Q 2575 -91 1722 -91 
Q 1428 -91 1123 -41 
Q 819 9 494 109 
L 494 744 
Q 775 591 1075 516 
Q 1375 441 1709 441 
Q 2250 441 2565 725 
Q 2881 1009 2881 1497 
Q 2881 1984 2565 2268 
Q 2250 2553 1709 2553 
Q 1456 2553 1204 2497 
Q 953 2441 691 2322 
L 691 4666 
z
" transform="scale(0.015625)"/>
       </defs>
       <use xlink:href="#DejaVuSans-35"/>
       <use xlink:href="#DejaVuSans-30" transform="translate(63.623047 0)"/>
       <use xlink:href="#DejaVuSans-30" transform="translate(127.246094 0)"/>
       <use xlink:href="#DejaVuSans-30" transform="translate(190.869141 0)"/>
      </g>
     </g>
    </g>
    <g id="xtick_3">
     <g id="line2d_5">
      <path d="M 243.152919 390.04 
L 243.152919 10.8 
" clip-path="url(#pafb9b3111d)" style="fill: none; stroke: #b0b0b0; stroke-width: 0.8; stroke-linecap: square"/>
     </g>
     <g id="line2d_6">
      <g>
       <use xlink:href="#m6e313f0f94" x="243.152919" y="390.04" style="stroke: #000000; stroke-width: 0.8"/>
      </g>
     </g>
     <g id="text_3">
      <!-- 10000 -->
      <g transform="translate(227.246669 404.638438) scale(0.1 -0.1)">
       <defs>
        <path id="DejaVuSans-31" d="M 794 531 
L 1825 531 
L 1825 4091 
L 703 3866 
L 703 4441 
L 1819 4666 
L 2450 4666 
L 2450 531 
L 3481 531 
L 3481 0 
L 794 0 
L 794 531 
z
" transform="scale(0.015625)"/>
       </defs>
       <use xlink:href="#DejaVuSans-31"/>
       <use xlink:href="#DejaVuSans-30" transform="translate(63.623047 0)"/>
       <use xlink:href="#DejaVuSans-30" transform="translate(127.246094 0)"/>
       <use xlink:href="#DejaVuSans-30" transform="translate(190.869141 0)"/>
       <use xlink:href="#DejaVuSans-30" transform="translate(254.492188 0)"/>
      </g>
     </g>
    </g>
    <g id="xtick_4">
     <g id="line2d_7">
      <path d="M 323.641863 390.04 
L 323.641863 10.8 
" clip-path="url(#pafb9b3111d)" style="fill: none; stroke: #b0b0b0; stroke-width: 0.8; stroke-linecap: square"/>
     </g>
     <g id="line2d_8">
      <g>
       <use xlink:href="#m6e313f0f94" x="323.641863" y="390.04" style="stroke: #000000; stroke-width: 0.8"/>
      </g>
     </g>
     <g id="text_4">
      <!-- 15000 -->
      <g transform="translate(307.735613 404.638438) scale(0.1 -0.1)">
       <use xlink:href="#DejaVuSans-31"/>
       <use xlink:href="#DejaVuSans-35" transform="translate(63.623047 0)"/>
       <use xlink:href="#DejaVuSans-30" transform="translate(127.246094 0)"/>
       <use xlink:href="#DejaVuSans-30" transform="translate(190.869141 0)"/>
       <use xlink:href="#DejaVuSans-30" transform="translate(254.492188 0)"/>
      </g>
     </g>
    </g>
    <g id="xtick_5">
     <g id="line2d_9">
      <path d="M 404.130806 390.04 
L 404.130806 10.8 
" clip-path="url(#pafb9b3111d)" style="fill: none; stroke: #b0b0b0; stroke-width: 0.8; stroke-linecap: square"/>
     </g>
     <g id="line2d_10">
      <g>
       <use xlink:href="#m6e313f0f94" x="404.130806" y="390.04" style="stroke: #000000; stroke-width: 0.8"/>
      </g>
     </g>
     <g id="text_5">
      <!-- 20000 -->
      <g transform="translate(388.224556 404.638438) scale(0.1 -0.1)">
       <defs>
        <path id="DejaVuSans-32" d="M 1228 531 
L 3431 531 
L 3431 0 
L 469 0 
L 469 531 
Q 828 903 1448 1529 
Q 2069 2156 2228 2338 
Q 2531 2678 2651 2914 
Q 2772 3150 2772 3378 
Q 2772 3750 2511 3984 
Q 2250 4219 1831 4219 
Q 1534 4219 1204 4116 
Q 875 4013 500 3803 
L 500 4441 
Q 881 4594 1212 4672 
Q 1544 4750 1819 4750 
Q 2544 4750 2975 4387 
Q 3406 4025 3406 3419 
Q 3406 3131 3298 2873 
Q 3191 2616 2906 2266 
Q 2828 2175 2409 1742 
Q 1991 1309 1228 531 
z
" transform="scale(0.015625)"/>
       </defs>
       <use xlink:href="#DejaVuSans-32"/>
       <use xlink:href="#DejaVuSans-30" transform="translate(63.623047 0)"/>
       <use xlink:href="#DejaVuSans-30" transform="translate(127.246094 0)"/>
       <use xlink:href="#DejaVuSans-30" transform="translate(190.869141 0)"/>
       <use xlink:href="#DejaVuSans-30" transform="translate(254.492188 0)"/>
      </g>
     </g>
    </g>
    <g id="xtick_6">
     <g id="line2d_11">
      <path d="M 484.61975 390.04 
L 484.61975 10.8 
" clip-path="url(#pafb9b3111d)" style="fill: none; stroke: #b0b0b0; stroke-width: 0.8; stroke-linecap: square"/>
     </g>
     <g id="line2d_12">
      <g>
       <use xlink:href="#m6e313f0f94" x="484.61975" y="390.04" style="stroke: #000000; stroke-width: 0.8"/>
      </g>
     </g>
     <g id="text_6">
      <!-- 25000 -->
      <g transform="translate(468.7135 404.638438) scale(0.1 -0.1)">
       <use xlink:href="#DejaVuSans-32"/>
       <use xlink:href="#DejaVuSans-35" transform="translate(63.623047 0)"/>
       <use xlink:href="#DejaVuSans-30" transform="translate(127.246094 0)"/>
       <use xlink:href="#DejaVuSans-30" transform="translate(190.869141 0)"/>
       <use xlink:href="#DejaVuSans-30" transform="translate(254.492188 0)"/>
      </g>
     </g>
    </g>
    <g id="xtick_7">
     <g id="line2d_13">
      <path d="M 565.108693 390.04 
L 565.108693 10.8 
" clip-path="url(#pafb9b3111d)" style="fill: none; stroke: #b0b0b0; stroke-width: 0.8; stroke-linecap: square"/>
     </g>
     <g id="line2d_14">
      <g>
       <use xlink:href="#m6e313f0f94" x="565.108693" y="390.04" style="stroke: #000000; stroke-width: 0.8"/>
      </g>
     </g>
     <g id="text_7">
      <!-- 30000 -->
      <g transform="translate(549.202443 404.638438) scale(0.1 -0.1)">
       <defs>
        <path id="DejaVuSans-33" d="M 2597 2516 
Q 3050 2419 3304 2112 
Q 3559 1806 3559 1356 
Q 3559 666 3084 287 
Q 2609 -91 1734 -91 
Q 1441 -91 1130 -33 
Q 819 25 488 141 
L 488 750 
Q 750 597 1062 519 
Q 1375 441 1716 441 
Q 2309 441 2620 675 
Q 2931 909 2931 1356 
Q 2931 1769 2642 2001 
Q 2353 2234 1838 2234 
L 1294 2234 
L 1294 2753 
L 1863 2753 
Q 2328 2753 2575 2939 
Q 2822 3125 2822 3475 
Q 2822 3834 2567 4026 
Q 2313 4219 1838 4219 
Q 1578 4219 1281 4162 
Q 984 4106 628 3988 
L 628 4550 
Q 988 4650 1302 4700 
Q 1616 4750 1894 4750 
Q 2613 4750 3031 4423 
Q 3450 4097 3450 3541 
Q 3450 3153 3228 2886 
Q 3006 2619 2597 2516 
z
" transform="scale(0.015625)"/>
       </defs>
       <use xlink:href="#DejaVuSans-33"/>
       <use xlink:href="#DejaVuSans-30" transform="translate(63.623047 0)"/>
       <use xlink:href="#DejaVuSans-30" transform="translate(127.246094 0)"/>
       <use xlink:href="#DejaVuSans-30" transform="translate(190.869141 0)"/>
       <use xlink:href="#DejaVuSans-30" transform="translate(254.492188 0)"/>
      </g>
     </g>
    </g>
    <g id="xtick_8">
     <g id="line2d_15">
      <path d="M 645.597637 390.04 
L 645.597637 10.8 
" clip-path="url(#pafb9b3111d)" style="fill: none; stroke: #b0b0b0; stroke-width: 0.8; stroke-linecap: square"/>
     </g>
     <g id="line2d_16">
      <g>
       <use xlink:href="#m6e313f0f94" x="645.597637" y="390.04" style="stroke: #000000; stroke-width: 0.8"/>
      </g>
     </g>
     <g id="text_8">
      <!-- 35000 -->
      <g transform="translate(629.691387 404.638438) scale(0.1 -0.1)">
       <use xlink:href="#DejaVuSans-33"/>
       <use xlink:href="#DejaVuSans-35" transform="translate(63.623047 0)"/>
       <use xlink:href="#DejaVuSans-30" transform="translate(127.246094 0)"/>
       <use xlink:href="#DejaVuSans-30" transform="translate(190.869141 0)"/>
       <use xlink:href="#DejaVuSans-30" transform="translate(254.492188 0)"/>
      </g>
     </g>
    </g>
    <g id="text_9">
     <!-- Episodes -->
     <g transform="translate(359.367813 418.316562) scale(0.1 -0.1)">
      <defs>
       <path id="DejaVuSans-45" d="M 628 4666 
L 3578 4666 
L 3578 4134 
L 1259 4134 
L 1259 2753 
L 3481 2753 
L 3481 2222 
L 1259 2222 
L 1259 531 
L 3634 531 
L 3634 0 
L 628 0 
L 628 4666 
z
" transform="scale(0.015625)"/>
       <path id="DejaVuSans-70" d="M 1159 525 
L 1159 -1331 
L 581 -1331 
L 581 3500 
L 1159 3500 
L 1159 2969 
Q 1341 3281 1617 3432 
Q 1894 3584 2278 3584 
Q 2916 3584 3314 3078 
Q 3713 2572 3713 1747 
Q 3713 922 3314 415 
Q 2916 -91 2278 -91 
Q 1894 -91 1617 61 
Q 1341 213 1159 525 
z
M 3116 1747 
Q 3116 2381 2855 2742 
Q 2594 3103 2138 3103 
Q 1681 3103 1420 2742 
Q 1159 2381 1159 1747 
Q 1159 1113 1420 752 
Q 1681 391 2138 391 
Q 2594 391 2855 752 
Q 3116 1113 3116 1747 
z
" transform="scale(0.015625)"/>
       <path id="DejaVuSans-69" d="M 603 3500 
L 1178 3500 
L 1178 0 
L 603 0 
L 603 3500 
z
M 603 4863 
L 1178 4863 
L 1178 4134 
L 603 4134 
L 603 4863 
z
" transform="scale(0.015625)"/>
       <path id="DejaVuSans-73" d="M 2834 3397 
L 2834 2853 
Q 2591 2978 2328 3040 
Q 2066 3103 1784 3103 
Q 1356 3103 1142 2972 
Q 928 2841 928 2578 
Q 928 2378 1081 2264 
Q 1234 2150 1697 2047 
L 1894 2003 
Q 2506 1872 2764 1633 
Q 3022 1394 3022 966 
Q 3022 478 2636 193 
Q 2250 -91 1575 -91 
Q 1294 -91 989 -36 
Q 684 19 347 128 
L 347 722 
Q 666 556 975 473 
Q 1284 391 1588 391 
Q 1994 391 2212 530 
Q 2431 669 2431 922 
Q 2431 1156 2273 1281 
Q 2116 1406 1581 1522 
L 1381 1569 
Q 847 1681 609 1914 
Q 372 2147 372 2553 
Q 372 3047 722 3315 
Q 1072 3584 1716 3584 
Q 2034 3584 2315 3537 
Q 2597 3491 2834 3397 
z
" transform="scale(0.015625)"/>
       <path id="DejaVuSans-6f" d="M 1959 3097 
Q 1497 3097 1228 2736 
Q 959 2375 959 1747 
Q 959 1119 1226 758 
Q 1494 397 1959 397 
Q 2419 397 2687 759 
Q 2956 1122 2956 1747 
Q 2956 2369 2687 2733 
Q 2419 3097 1959 3097 
z
M 1959 3584 
Q 2709 3584 3137 3096 
Q 3566 2609 3566 1747 
Q 3566 888 3137 398 
Q 2709 -91 1959 -91 
Q 1206 -91 779 398 
Q 353 888 353 1747 
Q 353 2609 779 3096 
Q 1206 3584 1959 3584 
z
" transform="scale(0.015625)"/>
       <path id="DejaVuSans-64" d="M 2906 2969 
L 2906 4863 
L 3481 4863 
L 3481 0 
L 2906 0 
L 2906 525 
Q 2725 213 2448 61 
Q 2172 -91 1784 -91 
Q 1150 -91 751 415 
Q 353 922 353 1747 
Q 353 2572 751 3078 
Q 1150 3584 1784 3584 
Q 2172 3584 2448 3432 
Q 2725 3281 2906 2969 
z
M 947 1747 
Q 947 1113 1208 752 
Q 1469 391 1925 391 
Q 2381 391 2643 752 
Q 2906 1113 2906 1747 
Q 2906 2381 2643 2742 
Q 2381 3103 1925 3103 
Q 1469 3103 1208 2742 
Q 947 2381 947 1747 
z
" transform="scale(0.015625)"/>
       <path id="DejaVuSans-65" d="M 3597 1894 
L 3597 1613 
L 953 1613 
Q 991 1019 1311 708 
Q 1631 397 2203 397 
Q 2534 397 2845 478 
Q 3156 559 3463 722 
L 3463 178 
Q 3153 47 2828 -22 
Q 2503 -91 2169 -91 
Q 1331 -91 842 396 
Q 353 884 353 1716 
Q 353 2575 817 3079 
Q 1281 3584 2069 3584 
Q 2775 3584 3186 3129 
Q 3597 2675 3597 1894 
z
M 3022 2063 
Q 3016 2534 2758 2815 
Q 2500 3097 2075 3097 
Q 1594 3097 1305 2825 
Q 1016 2553 972 2059 
L 3022 2063 
z
" transform="scale(0.015625)"/>
      </defs>
      <use xlink:href="#DejaVuSans-45"/>
      <use xlink:href="#DejaVuSans-70" transform="translate(63.183594 0)"/>
      <use xlink:href="#DejaVuSans-69" transform="translate(126.660156 0)"/>
      <use xlink:href="#DejaVuSans-73" transform="translate(154.443359 0)"/>
      <use xlink:href="#DejaVuSans-6f" transform="translate(206.542969 0)"/>
      <use xlink:href="#DejaVuSans-64" transform="translate(267.724609 0)"/>
      <use xlink:href="#DejaVuSans-65" transform="translate(331.201172 0)"/>
      <use xlink:href="#DejaVuSans-73" transform="translate(392.724609 0)"/>
     </g>
    </g>
   </g>
   <g id="matplotlib.axis_2">
    <g id="ytick_1">
     <g id="line2d_17">
      <path d="M 54.02 359.521419 
L 709.2 359.521419 
" clip-path="url(#pafb9b3111d)" style="fill: none; stroke: #b0b0b0; stroke-width: 0.8; stroke-linecap: square"/>
     </g>
     <g id="line2d_18">
      <defs>
       <path id="m8426330a95" d="M 0 0 
L -3.5 0 
" style="stroke: #000000; stroke-width: 0.8"/>
      </defs>
      <g>
       <use xlink:href="#m8426330a95" x="54.02" y="359.521419" style="stroke: #000000; stroke-width: 0.8"/>
      </g>
     </g>
     <g id="text_10">
      <!-- 0.50 -->
      <g transform="translate(24.754375 363.320637) scale(0.1 -0.1)">
       <defs>
        <path id="DejaVuSans-2e" d="M 684 794 
L 1344 794 
L 1344 0 
L 684 0 
L 684 794 
z
" transform="scale(0.015625)"/>
       </defs>
       <use xlink:href="#DejaVuSans-30"/>
       <use xlink:href="#DejaVuSans-2e" transform="translate(63.623047 0)"/>
       <use xlink:href="#DejaVuSans-35" transform="translate(95.410156 0)"/>
       <use xlink:href="#DejaVuSans-30" transform="translate(159.033203 0)"/>
      </g>
     </g>
    </g>
    <g id="ytick_2">
     <g id="line2d_19">
      <path d="M 54.02 305.55781 
L 709.2 305.55781 
" clip-path="url(#pafb9b3111d)" style="fill: none; stroke: #b0b0b0; stroke-width: 0.8; stroke-linecap: square"/>
     </g>
     <g id="line2d_20">
      <g>
       <use xlink:href="#m8426330a95" x="54.02" y="305.55781" style="stroke: #000000; stroke-width: 0.8"/>
      </g>
     </g>
     <g id="text_11">
      <!-- 0.55 -->
      <g transform="translate(24.754375 309.357028) scale(0.1 -0.1)">
       <use xlink:href="#DejaVuSans-30"/>
       <use xlink:href="#DejaVuSans-2e" transform="translate(63.623047 0)"/>
       <use xlink:href="#DejaVuSans-35" transform="translate(95.410156 0)"/>
       <use xlink:href="#DejaVuSans-35" transform="translate(159.033203 0)"/>
      </g>
     </g>
    </g>
    <g id="ytick_3">
     <g id="line2d_21">
      <path d="M 54.02 251.5942 
L 709.2 251.5942 
" clip-path="url(#pafb9b3111d)" style="fill: none; stroke: #b0b0b0; stroke-width: 0.8; stroke-linecap: square"/>
     </g>
     <g id="line2d_22">
      <g>
       <use xlink:href="#m8426330a95" x="54.02" y="251.5942" style="stroke: #000000; stroke-width: 0.8"/>
      </g>
     </g>
     <g id="text_12">
      <!-- 0.60 -->
      <g transform="translate(24.754375 255.393419) scale(0.1 -0.1)">
       <defs>
        <path id="DejaVuSans-36" d="M 2113 2584 
Q 1688 2584 1439 2293 
Q 1191 2003 1191 1497 
Q 1191 994 1439 701 
Q 1688 409 2113 409 
Q 2538 409 2786 701 
Q 3034 994 3034 1497 
Q 3034 2003 2786 2293 
Q 2538 2584 2113 2584 
z
M 3366 4563 
L 3366 3988 
Q 3128 4100 2886 4159 
Q 2644 4219 2406 4219 
Q 1781 4219 1451 3797 
Q 1122 3375 1075 2522 
Q 1259 2794 1537 2939 
Q 1816 3084 2150 3084 
Q 2853 3084 3261 2657 
Q 3669 2231 3669 1497 
Q 3669 778 3244 343 
Q 2819 -91 2113 -91 
Q 1303 -91 875 529 
Q 447 1150 447 2328 
Q 447 3434 972 4092 
Q 1497 4750 2381 4750 
Q 2619 4750 2861 4703 
Q 3103 4656 3366 4563 
z
" transform="scale(0.015625)"/>
       </defs>
       <use xlink:href="#DejaVuSans-30"/>
       <use xlink:href="#DejaVuSans-2e" transform="translate(63.623047 0)"/>
       <use xlink:href="#DejaVuSans-36" transform="translate(95.410156 0)"/>
       <use xlink:href="#DejaVuSans-30" transform="translate(159.033203 0)"/>
      </g>
     </g>
    </g>
    <g id="ytick_4">
     <g id="line2d_23">
      <path d="M 54.02 197.630591 
L 709.2 197.630591 
" clip-path="url(#pafb9b3111d)" style="fill: none; stroke: #b0b0b0; stroke-width: 0.8; stroke-linecap: square"/>
     </g>
     <g id="line2d_24">
      <g>
       <use xlink:href="#m8426330a95" x="54.02" y="197.630591" style="stroke: #000000; stroke-width: 0.8"/>
      </g>
     </g>
     <g id="text_13">
      <!-- 0.65 -->
      <g transform="translate(24.754375 201.42981) scale(0.1 -0.1)">
       <use xlink:href="#DejaVuSans-30"/>
       <use xlink:href="#DejaVuSans-2e" transform="translate(63.623047 0)"/>
       <use xlink:href="#DejaVuSans-36" transform="translate(95.410156 0)"/>
       <use xlink:href="#DejaVuSans-35" transform="translate(159.033203 0)"/>
      </g>
     </g>
    </g>
    <g id="ytick_5">
     <g id="line2d_25">
      <path d="M 54.02 143.666982 
L 709.2 143.666982 
" clip-path="url(#pafb9b3111d)" style="fill: none; stroke: #b0b0b0; stroke-width: 0.8; stroke-linecap: square"/>
     </g>
     <g id="line2d_26">
      <g>
       <use xlink:href="#m8426330a95" x="54.02" y="143.666982" style="stroke: #000000; stroke-width: 0.8"/>
      </g>
     </g>
     <g id="text_14">
      <!-- 0.70 -->
      <g transform="translate(24.754375 147.466201) scale(0.1 -0.1)">
       <defs>
        <path id="DejaVuSans-37" d="M 525 4666 
L 3525 4666 
L 3525 4397 
L 1831 0 
L 1172 0 
L 2766 4134 
L 525 4134 
L 525 4666 
z
" transform="scale(0.015625)"/>
       </defs>
       <use xlink:href="#DejaVuSans-30"/>
       <use xlink:href="#DejaVuSans-2e" transform="translate(63.623047 0)"/>
       <use xlink:href="#DejaVuSans-37" transform="translate(95.410156 0)"/>
       <use xlink:href="#DejaVuSans-30" transform="translate(159.033203 0)"/>
      </g>
     </g>
    </g>
    <g id="ytick_6">
     <g id="line2d_27">
      <path d="M 54.02 89.703373 
L 709.2 89.703373 
" clip-path="url(#pafb9b3111d)" style="fill: none; stroke: #b0b0b0; stroke-width: 0.8; stroke-linecap: square"/>
     </g>
     <g id="line2d_28">
      <g>
       <use xlink:href="#m8426330a95" x="54.02" y="89.703373" style="stroke: #000000; stroke-width: 0.8"/>
      </g>
     </g>
     <g id="text_15">
      <!-- 0.75 -->
      <g transform="translate(24.754375 93.502592) scale(0.1 -0.1)">
       <use xlink:href="#DejaVuSans-30"/>
       <use xlink:href="#DejaVuSans-2e" transform="translate(63.623047 0)"/>
       <use xlink:href="#DejaVuSans-37" transform="translate(95.410156 0)"/>
       <use xlink:href="#DejaVuSans-35" transform="translate(159.033203 0)"/>
      </g>
     </g>
    </g>
    <g id="ytick_7">
     <g id="line2d_29">
      <path d="M 54.02 35.739764 
L 709.2 35.739764 
" clip-path="url(#pafb9b3111d)" style="fill: none; stroke: #b0b0b0; stroke-width: 0.8; stroke-linecap: square"/>
     </g>
     <g id="line2d_30">
      <g>
       <use xlink:href="#m8426330a95" x="54.02" y="35.739764" style="stroke: #000000; stroke-width: 0.8"/>
      </g>
     </g>
     <g id="text_16">
      <!-- 0.80 -->
      <g transform="translate(24.754375 39.538983) scale(0.1 -0.1)">
       <defs>
        <path id="DejaVuSans-38" d="M 2034 2216 
Q 1584 2216 1326 1975 
Q 1069 1734 1069 1313 
Q 1069 891 1326 650 
Q 1584 409 2034 409 
Q 2484 409 2743 651 
Q 3003 894 3003 1313 
Q 3003 1734 2745 1975 
Q 2488 2216 2034 2216 
z
M 1403 2484 
Q 997 2584 770 2862 
Q 544 3141 544 3541 
Q 544 4100 942 4425 
Q 1341 4750 2034 4750 
Q 2731 4750 3128 4425 
Q 3525 4100 3525 3541 
Q 3525 3141 3298 2862 
Q 3072 2584 2669 2484 
Q 3125 2378 3379 2068 
Q 3634 1759 3634 1313 
Q 3634 634 3220 271 
Q 2806 -91 2034 -91 
Q 1263 -91 848 271 
Q 434 634 434 1313 
Q 434 1759 690 2068 
Q 947 2378 1403 2484 
z
M 1172 3481 
Q 1172 3119 1398 2916 
Q 1625 2713 2034 2713 
Q 2441 2713 2670 2916 
Q 2900 3119 2900 3481 
Q 2900 3844 2670 4047 
Q 2441 4250 2034 4250 
Q 1625 4250 1398 4047 
Q 1172 3844 1172 3481 
z
" transform="scale(0.015625)"/>
       </defs>
       <use xlink:href="#DejaVuSans-30"/>
       <use xlink:href="#DejaVuSans-2e" transform="translate(63.623047 0)"/>
       <use xlink:href="#DejaVuSans-38" transform="translate(95.410156 0)"/>
       <use xlink:href="#DejaVuSans-30" transform="translate(159.033203 0)"/>
      </g>
     </g>
    </g>
    <g id="text_17">
     <!-- Accuracy on Test -->
     <g transform="translate(18.674688 242.499688) rotate(-90) scale(0.1 -0.1)">
      <defs>
       <path id="DejaVuSans-41" d="M 2188 4044 
L 1331 1722 
L 3047 1722 
L 2188 4044 
z
M 1831 4666 
L 2547 4666 
L 4325 0 
L 3669 0 
L 3244 1197 
L 1141 1197 
L 716 0 
L 50 0 
L 1831 4666 
z
" transform="scale(0.015625)"/>
       <path id="DejaVuSans-63" d="M 3122 3366 
L 3122 2828 
Q 2878 2963 2633 3030 
Q 2388 3097 2138 3097 
Q 1578 3097 1268 2742 
Q 959 2388 959 1747 
Q 959 1106 1268 751 
Q 1578 397 2138 397 
Q 2388 397 2633 464 
Q 2878 531 3122 666 
L 3122 134 
Q 2881 22 2623 -34 
Q 2366 -91 2075 -91 
Q 1284 -91 818 406 
Q 353 903 353 1747 
Q 353 2603 823 3093 
Q 1294 3584 2113 3584 
Q 2378 3584 2631 3529 
Q 2884 3475 3122 3366 
z
" transform="scale(0.015625)"/>
       <path id="DejaVuSans-75" d="M 544 1381 
L 544 3500 
L 1119 3500 
L 1119 1403 
Q 1119 906 1312 657 
Q 1506 409 1894 409 
Q 2359 409 2629 706 
Q 2900 1003 2900 1516 
L 2900 3500 
L 3475 3500 
L 3475 0 
L 2900 0 
L 2900 538 
Q 2691 219 2414 64 
Q 2138 -91 1772 -91 
Q 1169 -91 856 284 
Q 544 659 544 1381 
z
M 1991 3584 
L 1991 3584 
z
" transform="scale(0.015625)"/>
       <path id="DejaVuSans-72" d="M 2631 2963 
Q 2534 3019 2420 3045 
Q 2306 3072 2169 3072 
Q 1681 3072 1420 2755 
Q 1159 2438 1159 1844 
L 1159 0 
L 581 0 
L 581 3500 
L 1159 3500 
L 1159 2956 
Q 1341 3275 1631 3429 
Q 1922 3584 2338 3584 
Q 2397 3584 2469 3576 
Q 2541 3569 2628 3553 
L 2631 2963 
z
" transform="scale(0.015625)"/>
       <path id="DejaVuSans-61" d="M 2194 1759 
Q 1497 1759 1228 1600 
Q 959 1441 959 1056 
Q 959 750 1161 570 
Q 1363 391 1709 391 
Q 2188 391 2477 730 
Q 2766 1069 2766 1631 
L 2766 1759 
L 2194 1759 
z
M 3341 1997 
L 3341 0 
L 2766 0 
L 2766 531 
Q 2569 213 2275 61 
Q 1981 -91 1556 -91 
Q 1019 -91 701 211 
Q 384 513 384 1019 
Q 384 1609 779 1909 
Q 1175 2209 1959 2209 
L 2766 2209 
L 2766 2266 
Q 2766 2663 2505 2880 
Q 2244 3097 1772 3097 
Q 1472 3097 1187 3025 
Q 903 2953 641 2809 
L 641 3341 
Q 956 3463 1253 3523 
Q 1550 3584 1831 3584 
Q 2591 3584 2966 3190 
Q 3341 2797 3341 1997 
z
" transform="scale(0.015625)"/>
       <path id="DejaVuSans-79" d="M 2059 -325 
Q 1816 -950 1584 -1140 
Q 1353 -1331 966 -1331 
L 506 -1331 
L 506 -850 
L 844 -850 
Q 1081 -850 1212 -737 
Q 1344 -625 1503 -206 
L 1606 56 
L 191 3500 
L 800 3500 
L 1894 763 
L 2988 3500 
L 3597 3500 
L 2059 -325 
z
" transform="scale(0.015625)"/>
       <path id="DejaVuSans-20" transform="scale(0.015625)"/>
       <path id="DejaVuSans-6e" d="M 3513 2113 
L 3513 0 
L 2938 0 
L 2938 2094 
Q 2938 2591 2744 2837 
Q 2550 3084 2163 3084 
Q 1697 3084 1428 2787 
Q 1159 2491 1159 1978 
L 1159 0 
L 581 0 
L 581 3500 
L 1159 3500 
L 1159 2956 
Q 1366 3272 1645 3428 
Q 1925 3584 2291 3584 
Q 2894 3584 3203 3211 
Q 3513 2838 3513 2113 
z
" transform="scale(0.015625)"/>
       <path id="DejaVuSans-54" d="M -19 4666 
L 3928 4666 
L 3928 4134 
L 2272 4134 
L 2272 0 
L 1638 0 
L 1638 4134 
L -19 4134 
L -19 4666 
z
" transform="scale(0.015625)"/>
       <path id="DejaVuSans-74" d="M 1172 4494 
L 1172 3500 
L 2356 3500 
L 2356 3053 
L 1172 3053 
L 1172 1153 
Q 1172 725 1289 603 
Q 1406 481 1766 481 
L 2356 481 
L 2356 0 
L 1766 0 
Q 1100 0 847 248 
Q 594 497 594 1153 
L 594 3053 
L 172 3053 
L 172 3500 
L 594 3500 
L 594 4494 
L 1172 4494 
z
" transform="scale(0.015625)"/>
      </defs>
      <use xlink:href="#DejaVuSans-41"/>
      <use xlink:href="#DejaVuSans-63" transform="translate(66.658203 0)"/>
      <use xlink:href="#DejaVuSans-63" transform="translate(121.638672 0)"/>
      <use xlink:href="#DejaVuSans-75" transform="translate(176.619141 0)"/>
      <use xlink:href="#DejaVuSans-72" transform="translate(239.998047 0)"/>
      <use xlink:href="#DejaVuSans-61" transform="translate(281.111328 0)"/>
      <use xlink:href="#DejaVuSans-63" transform="translate(342.390625 0)"/>
      <use xlink:href="#DejaVuSans-79" transform="translate(397.371094 0)"/>
      <use xlink:href="#DejaVuSans-20" transform="translate(456.550781 0)"/>
      <use xlink:href="#DejaVuSans-6f" transform="translate(488.337891 0)"/>
      <use xlink:href="#DejaVuSans-6e" transform="translate(549.519531 0)"/>
      <use xlink:href="#DejaVuSans-20" transform="translate(612.898438 0)"/>
      <use xlink:href="#DejaVuSans-54" transform="translate(644.685547 0)"/>
      <use xlink:href="#DejaVuSans-65" transform="translate(688.769531 0)"/>
      <use xlink:href="#DejaVuSans-73" transform="translate(750.292969 0)"/>
      <use xlink:href="#DejaVuSans-74" transform="translate(802.392578 0)"/>
     </g>
    </g>
   </g>
   <g id="line2d_31">
    <path d="M 83.800909 298.029551 
L 87.020467 288.702506 
L 90.240025 287.303449 
L 93.459582 290.517949 
L 96.67914 285.071621 
L 99.898698 279.292185 
L 103.118256 282.223541 
L 106.337813 295.681132 
L 109.557371 284.105605 
L 112.776929 291.517273 
L 115.996486 297.296709 
L 119.216044 296.930286 
L 122.435602 298.462588 
L 125.65516 304.974864 
L 128.874717 302.076817 
L 132.094275 312.436498 
L 135.313833 310.121392 
L 138.533391 311.970146 
L 141.752948 304.242024 
L 144.972506 310.071426 
L 148.192064 310.02146 
L 151.411622 318.665631 
L 154.631179 317.283228 
L 157.850737 316.533734 
L 161.070295 312.286599 
L 164.289853 313.935486 
L 167.50941 318.765563 
L 170.728968 310.387879 
L 173.948526 324.578309 
L 177.168084 315.617685 
L 180.387641 307.739664 
L 183.607199 298.645797 
L 186.826757 305.091451 
L 190.046314 301.044178 
L 193.265872 299.445256 
L 196.48543 291.983621 
L 199.704988 298.395963 
L 202.924545 287.703174 
L 206.144103 292.783081 
L 209.363661 288.869054 
L 212.583219 284.055634 
L 215.802776 286.470672 
L 219.022334 287.136889 
L 222.241892 289.785103 
L 225.46145 279.458733 
L 228.681007 272.146996 
L 231.900565 271.230947 
L 235.120123 255.225075 
L 238.339681 266.051107 
L 241.559238 259.955219 
L 244.778796 258.905926 
L 247.998354 240.451705 
L 251.217912 247.596888 
L 254.437469 234.605649 
L 257.657027 219.132751 
L 260.876585 213.453247 
L 264.096143 218.583121 
L 267.3157 210.105507 
L 270.535258 196.04832 
L 273.754816 197.064302 
L 276.974373 189.053039 
L 280.193931 185.505429 
L 283.413489 171.881282 
L 286.633047 183.223631 
L 289.852604 179.576089 
L 293.072162 181.707984 
L 296.29172 167.767383 
L 299.511278 163.087205 
L 302.730835 165.835349 
L 305.950393 162.720783 
L 309.169951 167.717413 
L 312.389509 166.551532 
L 315.609066 151.495019 
L 318.828624 155.042626 
L 322.048182 154.809451 
L 325.26774 148.213898 
L 328.487297 144.533047 
L 331.706855 153.477015 
L 334.926413 150.195894 
L 338.145971 144.283216 
L 341.365528 133.440527 
L 344.585086 139.66966 
L 347.804644 127.927578 
L 351.024201 138.603712 
L 354.243759 122.914293 
L 357.463317 126.212069 
L 360.682875 129.093458 
L 363.902432 126.894942 
L 367.12199 137.354557 
L 370.341548 140.602368 
L 373.561106 149.496372 
L 376.780663 131.40857 
L 380.000221 159.506292 
L 383.219779 136.471826 
L 386.439337 117.051587 
L 389.658894 105.209572 
L 392.878452 106.392108 
L 396.09801 96.099052 
L 399.317568 95.715977 
L 402.537125 98.347533 
L 405.756683 95.899186 
L 408.976241 91.80195 
L 412.195799 102.611326 
L 415.415356 100.612672 
L 418.634914 113.487322 
L 421.854472 118.733783 
L 425.074029 101.245578 
L 428.293587 100.346185 
L 431.513145 104.926431 
L 434.732703 117.601217 
L 437.95226 127.977554 
L 441.171818 132.391244 
L 444.391376 142.10136 
L 447.610934 139.269935 
L 450.830491 139.469799 
L 454.050049 139.253277 
L 457.269607 149.329814 
L 460.489165 149.263192 
L 463.708722 159.406352 
L 466.92828 148.014035 
L 470.147838 159.173178 
L 473.367396 165.485589 
L 476.586953 143.433792 
L 479.806511 146.664947 
L 486.245627 139.286588 
L 489.465184 138.703648 
L 492.684742 135.589082 
L 495.9043 152.944044 
L 499.123857 164.169806 
L 502.343415 141.068719 
L 505.562973 143.383825 
L 508.782531 161.78808 
L 512.002088 145.715586 
L 515.221646 138.703647 
L 518.441204 137.621045 
L 521.660762 132.707691 
L 524.880319 133.457185 
L 528.099877 143.483756 
L 531.319435 143.117336 
L 534.538993 134.289957 
L 537.75855 135.9555 
L 540.978108 146.631633 
L 544.197666 140.5524 
L 547.417224 133.640394 
L 550.636781 130.209375 
L 553.856339 126.411936 
L 557.075897 121.865002 
L 560.295455 133.990159 
L 563.515012 137.287935 
L 566.73457 128.160758 
L 569.954128 118.600539 
L 573.173686 92.551442 
L 576.393243 88.270994 
L 582.832359 72.748123 
L 586.051916 77.728098 
L 589.271474 74.263768 
L 592.491032 124.180108 
L 595.71059 181.624705 
L 598.930147 104.376795 
L 602.149705 74.347044 
L 605.369263 74.796741 
L 608.588821 75.67948 
L 611.808378 70.249807 
L 615.027936 70.949336 
L 618.247494 72.581568 
L 621.467052 71.815418 
L 624.686609 73.081232 
L 627.906167 71.965317 
L 631.125725 72.298426 
L 634.345283 70.732815 
L 637.56484 72.365048 
L 640.784398 69.700178 
L 644.003956 74.746775 
L 647.223514 70.216496 
L 650.443071 72.031939 
L 653.662629 75.646168 
L 656.882187 74.063902 
L 660.101744 71.632208 
L 663.321302 71.399032 
L 666.54086 69.950009 
L 669.760418 70.582916 
L 672.979975 68.401054 
L 676.199533 73.647517 
L 679.419091 75.546237 
L 679.419091 75.546237 
" clip-path="url(#pafb9b3111d)" style="fill: none; stroke: #1f77b4; stroke-width: 1.5; stroke-linecap: square"/>
   </g>
   <g id="patch_3">
    <path d="M 54.02 390.04 
L 54.02 10.8 
" style="fill: none; stroke: #000000; stroke-width: 0.8; stroke-linejoin: miter; stroke-linecap: square"/>
   </g>
   <g id="patch_4">
    <path d="M 709.2 390.04 
L 709.2 10.8 
" style="fill: none; stroke: #000000; stroke-width: 0.8; stroke-linejoin: miter; stroke-linecap: square"/>
   </g>
   <g id="patch_5">
    <path d="M 54.02 390.04 
L 709.2 390.04 
" style="fill: none; stroke: #000000; stroke-width: 0.8; stroke-linejoin: miter; stroke-linecap: square"/>
   </g>
   <g id="patch_6">
    <path d="M 54.02 10.8 
L 709.2 10.8 
" style="fill: none; stroke: #000000; stroke-width: 0.8; stroke-linejoin: miter; stroke-linecap: square"/>
   </g>
  </g>
 </g>
 <defs>
  <clipPath id="pafb9b3111d">
   <rect x="54.02" y="10.8" width="655.18" height="379.24"/>
  </clipPath>
 </defs>
</svg>
