<?xml version="1.0" encoding="utf-8" standalone="no"?>
<!DOCTYPE svg PUBLIC "-//W3C//DTD SVG 1.1//EN"
  "http://www.w3.org/Graphics/SVG/1.1/DTD/svg11.dtd">
<svg xmlns:xlink="http://www.w3.org/1999/xlink" width="720pt" height="432pt" viewBox="0 0 720 432" xmlns="http://www.w3.org/2000/svg" version="1.1">
 <metadata>
  <rdf:RDF xmlns:dc="http://purl.org/dc/elements/1.1/" xmlns:cc="http://creativecommons.org/ns#" xmlns:rdf="http://www.w3.org/1999/02/22-rdf-syntax-ns#">
   <cc:Work>
    <dc:type rdf:resource="http://purl.org/dc/dcmitype/StillImage"/>
    <dc:date>2025-04-16T00:53:45.408568</dc:date>
    <dc:format>image/svg+xml</dc:format>
    <dc:creator>
     <cc:Agent>
      <dc:title>Matplotlib v3.10.0, https://matplotlib.org/</dc:title>
     </cc:Agent>
    </dc:creator>
   </cc:Work>
  </rdf:RDF>
 </metadata>
 <defs>
  <style type="text/css">*{stroke-linejoin: round; stroke-linecap: butt}</style>
 </defs>
 <g id="figure_1">
  <g id="patch_1">
   <path d="M 0 432 
L 720 432 
L 720 0 
L 0 0 
z
" style="fill: #ffffff"/>
  </g>
  <g id="axes_1">
   <g id="patch_2">
    <path d="M 47.72 390.04 
L 706.842095 390.04 
L 706.842095 10.8 
L 47.72 10.8 
z
" style="fill: #ffffff"/>
   </g>
   <g id="FillBetweenPolyCollection_1">
    <path d="M 77.680095 28.038182 
L 77.680095 294.322881 
L 78.900466 325.507646 
L 80.120836 342.926455 
L 81.341207 353.078335 
L 82.561577 367.220873 
L 83.781948 365.999676 
L 85.002318 372.801818 
L 86.222689 371.533504 
L 87.443059 369.204957 
L 88.66343 368.43133 
L 89.8838 367.720894 
L 91.10417 367.61302 
L 92.324541 367.505146 
L 93.544911 367.397272 
L 94.765282 367.505146 
L 95.985652 367.61302 
L 97.206023 367.289398 
L 98.426393 367.289398 
L 99.646764 367.181524 
L 100.867134 367.181524 
L 102.087505 367.289398 
L 103.307875 367.505146 
L 104.528246 367.289398 
L 105.748616 367.289398 
L 106.968987 367.181524 
L 108.189357 367.181524 
L 109.409728 367.181524 
L 110.630098 367.181524 
L 111.850469 367.181524 
L 113.070839 367.181524 
L 114.29121 367.181524 
L 115.51158 367.289398 
L 116.731951 367.181524 
L 117.952321 367.181524 
L 119.172691 367.181524 
L 120.393062 367.181524 
L 121.613432 367.181524 
L 122.833803 367.181524 
L 124.054173 367.181524 
L 125.274544 367.181524 
L 126.494914 367.289398 
L 127.715285 367.181524 
L 128.935655 367.181524 
L 130.156026 367.181524 
L 131.376396 367.181524 
L 132.596767 367.181524 
L 133.817137 367.181524 
L 135.037508 367.181524 
L 136.257878 367.289398 
L 137.478249 367.181524 
L 138.698619 367.181524 
L 139.91899 367.181524 
L 141.13936 367.181524 
L 142.359731 367.289398 
L 143.580101 367.289398 
L 144.800471 367.181524 
L 146.020842 367.181524 
L 147.241212 367.181524 
L 148.461583 367.181524 
L 149.681953 367.181524 
L 150.902324 367.289398 
L 152.122694 367.181524 
L 153.343065 367.181524 
L 154.563435 367.181524 
L 155.783806 367.181524 
L 157.004176 367.181524 
L 158.224547 367.181524 
L 159.444917 367.181524 
L 160.665288 367.181524 
L 161.885658 367.181524 
L 163.106029 367.289398 
L 164.326399 367.181524 
L 165.54677 367.181524 
L 166.76714 367.289398 
L 167.987511 367.181524 
L 169.207881 367.181524 
L 170.428252 367.181524 
L 171.648622 367.181524 
L 172.868992 367.181524 
L 174.089363 367.181524 
L 175.309733 367.181524 
L 176.530104 367.181524 
L 177.750474 367.181524 
L 178.970845 367.181524 
L 180.191215 367.181524 
L 181.411586 367.289398 
L 182.631956 367.181524 
L 183.852327 367.181524 
L 185.072697 367.181524 
L 186.293068 367.181524 
L 187.513438 367.181524 
L 188.733809 367.181524 
L 189.954179 367.181524 
L 191.17455 367.181524 
L 192.39492 367.181524 
L 193.615291 367.181524 
L 194.835661 367.181524 
L 196.056032 367.181524 
L 197.276402 367.181524 
L 198.496773 367.181524 
L 199.717143 367.181524 
L 200.937513 367.181524 
L 202.157884 367.181524 
L 203.378254 367.181524 
L 204.598625 367.181524 
L 205.818995 367.181524 
L 207.039366 367.181524 
L 208.259736 367.181524 
L 209.480107 367.181524 
L 210.700477 367.181524 
L 211.920848 367.181524 
L 213.141218 367.181524 
L 214.361589 367.181524 
L 215.581959 367.181524 
L 216.80233 367.181524 
L 218.0227 367.181524 
L 219.243071 367.181524 
L 220.463441 367.181524 
L 221.683812 367.181524 
L 222.904182 367.181524 
L 224.124553 367.181524 
L 225.344923 367.181524 
L 226.565294 367.181524 
L 227.785664 367.181524 
L 229.006034 367.181524 
L 230.226405 367.181524 
L 231.446775 367.181524 
L 232.667146 367.181524 
L 233.887516 367.181524 
L 235.107887 367.181524 
L 236.328257 367.181524 
L 237.548628 367.181524 
L 238.768998 367.181524 
L 239.989369 367.181524 
L 241.209739 367.181524 
L 242.43011 367.181524 
L 243.65048 367.181524 
L 244.870851 367.181524 
L 246.091221 367.181524 
L 247.311592 367.181524 
L 248.531962 367.181524 
L 249.752333 367.181524 
L 250.972703 367.181524 
L 252.193074 367.181524 
L 253.413444 367.181524 
L 254.633814 367.181524 
L 255.854185 367.181524 
L 257.074555 367.181524 
L 258.294926 367.181524 
L 259.515296 367.181524 
L 260.735667 367.181524 
L 261.956037 367.181524 
L 263.176408 367.181524 
L 264.396778 367.289398 
L 265.617149 367.181524 
L 266.837519 367.181524 
L 268.05789 367.181524 
L 269.27826 367.181524 
L 270.498631 367.181524 
L 271.719001 367.181524 
L 272.939372 367.181524 
L 274.159742 367.181524 
L 275.380113 367.181524 
L 276.600483 367.289398 
L 277.820854 367.181524 
L 279.041224 367.181524 
L 280.261595 367.181524 
L 281.481965 367.181524 
L 282.702335 367.181524 
L 283.922706 367.181524 
L 285.143076 367.181524 
L 286.363447 367.181524 
L 287.583817 367.181524 
L 288.804188 367.181524 
L 290.024558 367.181524 
L 291.244929 367.181524 
L 292.465299 367.181524 
L 293.68567 367.181524 
L 294.90604 367.181524 
L 296.126411 367.181524 
L 297.346781 367.181524 
L 298.567152 367.181524 
L 299.787522 367.181524 
L 301.007893 367.289398 
L 302.228263 367.181524 
L 303.448634 367.181524 
L 304.669004 367.181524 
L 305.889375 367.181524 
L 307.109745 367.181524 
L 308.330116 367.181524 
L 309.550486 367.181524 
L 310.770856 367.181524 
L 311.991227 367.181524 
L 313.211597 367.181524 
L 314.431968 367.181524 
L 315.652338 367.181524 
L 316.872709 367.181524 
L 318.093079 367.181524 
L 319.31345 367.181524 
L 320.53382 367.181524 
L 321.754191 367.181524 
L 322.974561 367.181524 
L 324.194932 367.181524 
L 325.415302 367.181524 
L 326.635673 367.181524 
L 327.856043 367.181524 
L 329.076414 367.181524 
L 330.296784 367.181524 
L 331.517155 367.181524 
L 332.737525 367.181524 
L 333.957896 367.181524 
L 335.178266 367.181524 
L 336.398636 367.181524 
L 337.619007 367.181524 
L 338.839377 367.181524 
L 340.059748 367.181524 
L 341.280118 367.181524 
L 342.500489 367.181524 
L 343.720859 367.181524 
L 344.94123 367.181524 
L 346.1616 367.181524 
L 347.381971 367.181524 
L 348.602341 367.181524 
L 349.822712 367.181524 
L 351.043082 367.181524 
L 352.263453 367.181524 
L 353.483823 367.181524 
L 354.704194 367.181524 
L 355.924564 367.181524 
L 357.144935 367.181524 
L 358.365305 367.181524 
L 359.585676 367.181524 
L 360.806046 367.181524 
L 362.026417 367.181524 
L 363.246787 367.181524 
L 364.467157 367.181524 
L 365.687528 367.181524 
L 366.907898 367.181524 
L 368.128269 367.181524 
L 369.348639 367.181524 
L 370.56901 367.181524 
L 371.78938 367.181524 
L 373.009751 367.181524 
L 374.230121 367.181524 
L 375.450492 367.181524 
L 376.670862 367.181524 
L 377.891233 367.181524 
L 379.111603 367.181524 
L 380.331974 367.181524 
L 381.552344 367.181524 
L 382.772715 367.181524 
L 383.993085 367.181524 
L 385.213456 367.181524 
L 386.433826 367.181524 
L 387.654197 367.181524 
L 388.874567 367.181524 
L 390.094938 367.181524 
L 391.315308 367.181524 
L 392.535678 367.181524 
L 393.756049 367.181524 
L 394.976419 367.181524 
L 396.19679 367.181524 
L 397.41716 367.181524 
L 398.637531 367.181524 
L 399.857901 367.181524 
L 401.078272 367.181524 
L 402.298642 367.181524 
L 403.519013 367.181524 
L 404.739383 367.289398 
L 405.959754 367.181524 
L 407.180124 367.181524 
L 408.400495 367.181524 
L 409.620865 367.181524 
L 410.841236 367.181524 
L 412.061606 367.181524 
L 413.281977 367.181524 
L 414.502347 367.181524 
L 415.722718 367.181524 
L 416.943088 367.181524 
L 418.163458 367.181524 
L 419.383829 367.181524 
L 420.604199 367.181524 
L 421.82457 367.181524 
L 423.04494 367.181524 
L 424.265311 367.181524 
L 425.485681 367.181524 
L 426.706052 367.181524 
L 427.926422 367.181524 
L 429.146793 367.181524 
L 430.367163 367.181524 
L 431.587534 367.181524 
L 432.807904 367.181524 
L 434.028275 367.181524 
L 435.248645 367.181524 
L 436.469016 367.181524 
L 437.689386 367.181524 
L 438.909757 367.181524 
L 440.130127 367.181524 
L 441.350498 367.181524 
L 442.570868 367.181524 
L 443.791239 367.181524 
L 445.011609 367.181524 
L 446.231979 367.181524 
L 447.45235 367.181524 
L 448.67272 367.181524 
L 449.893091 367.181524 
L 451.113461 367.181524 
L 452.333832 367.181524 
L 453.554202 367.181524 
L 454.774573 367.181524 
L 455.994943 367.181524 
L 457.215314 367.181524 
L 458.435684 367.181524 
L 459.656055 367.181524 
L 460.876425 367.181524 
L 462.096796 367.181524 
L 463.317166 367.181524 
L 464.537537 367.181524 
L 465.757907 367.181524 
L 466.978278 367.181524 
L 468.198648 367.181524 
L 469.419019 367.181524 
L 470.639389 367.181524 
L 471.85976 367.181524 
L 473.08013 367.181524 
L 474.3005 367.181524 
L 475.520871 367.181524 
L 476.741241 367.181524 
L 477.961612 367.181524 
L 479.181982 367.181524 
L 480.402353 367.181524 
L 481.622723 367.181524 
L 482.843094 367.181524 
L 484.063464 367.181524 
L 485.283835 367.181524 
L 486.504205 367.181524 
L 487.724576 367.181524 
L 488.944946 367.181524 
L 490.165317 367.181524 
L 491.385687 367.181524 
L 492.606058 367.181524 
L 493.826428 367.181524 
L 495.046799 367.181524 
L 496.267169 367.181524 
L 497.48754 367.181524 
L 498.70791 367.181524 
L 499.92828 367.181524 
L 501.148651 367.181524 
L 502.369021 367.181524 
L 503.589392 367.181524 
L 504.809762 367.181524 
L 506.030133 367.181524 
L 507.250503 367.181524 
L 508.470874 367.181524 
L 509.691244 367.181524 
L 510.911615 367.181524 
L 512.131985 367.181524 
L 513.352356 367.181524 
L 514.572726 367.181524 
L 515.793097 367.181524 
L 517.013467 367.181524 
L 518.233838 367.181524 
L 519.454208 367.181524 
L 520.674579 367.181524 
L 521.894949 367.181524 
L 523.11532 367.181524 
L 524.33569 367.181524 
L 525.556061 367.181524 
L 526.776431 367.181524 
L 527.996801 367.181524 
L 529.217172 367.181524 
L 530.437542 367.181524 
L 531.657913 367.181524 
L 532.878283 367.181524 
L 534.098654 367.181524 
L 535.319024 367.181524 
L 536.539395 367.289398 
L 537.759765 367.181524 
L 538.980136 367.181524 
L 540.200506 367.181524 
L 541.420877 367.181524 
L 542.641247 367.181524 
L 543.861618 367.181524 
L 545.081988 367.181524 
L 546.302359 367.181524 
L 547.522729 367.181524 
L 548.7431 367.181524 
L 549.96347 367.181524 
L 551.183841 367.181524 
L 552.404211 367.181524 
L 553.624582 367.181524 
L 554.844952 367.181524 
L 556.065322 367.181524 
L 557.285693 367.181524 
L 558.506063 367.181524 
L 559.726434 367.181524 
L 560.946804 367.181524 
L 562.167175 367.181524 
L 563.387545 367.181524 
L 564.607916 367.181524 
L 565.828286 367.181524 
L 567.048657 367.181524 
L 568.269027 367.181524 
L 569.489398 367.181524 
L 570.709768 367.181524 
L 571.930139 367.181524 
L 573.150509 367.181524 
L 574.37088 367.181524 
L 575.59125 367.181524 
L 576.811621 367.181524 
L 578.031991 367.181524 
L 579.252362 367.181524 
L 580.472732 367.181524 
L 581.693102 367.181524 
L 582.913473 367.181524 
L 584.133843 367.181524 
L 585.354214 367.181524 
L 586.574584 367.181524 
L 587.794955 367.181524 
L 589.015325 367.181524 
L 590.235696 367.181524 
L 591.456066 367.181524 
L 592.676437 367.181524 
L 593.896807 367.181524 
L 595.117178 367.181524 
L 596.337548 367.181524 
L 597.557919 367.181524 
L 598.778289 367.181524 
L 599.99866 367.181524 
L 601.21903 367.181524 
L 602.439401 367.181524 
L 603.659771 367.181524 
L 604.880142 367.181524 
L 606.100512 367.181524 
L 607.320883 367.181524 
L 608.541253 367.181524 
L 609.761623 367.181524 
L 610.981994 367.181524 
L 612.202364 367.181524 
L 613.422735 367.181524 
L 614.643105 367.181524 
L 615.863476 367.181524 
L 617.083846 367.181524 
L 618.304217 367.181524 
L 619.524587 367.181524 
L 620.744958 367.181524 
L 621.965328 367.181524 
L 623.185699 367.181524 
L 624.406069 367.181524 
L 625.62644 367.181524 
L 626.84681 367.181524 
L 628.067181 367.181524 
L 629.287551 367.181524 
L 630.507922 367.181524 
L 631.728292 367.289398 
L 632.948663 367.181524 
L 634.169033 367.181524 
L 635.389404 367.181524 
L 636.609774 367.181524 
L 637.830144 367.181524 
L 639.050515 367.181524 
L 640.270885 367.181524 
L 641.491256 367.181524 
L 642.711626 367.181524 
L 643.931997 367.181524 
L 645.152367 367.181524 
L 646.372738 367.181524 
L 647.593108 367.181524 
L 648.813479 367.181524 
L 650.033849 367.181524 
L 651.25422 367.181524 
L 652.47459 367.181524 
L 653.694961 367.181524 
L 654.915331 367.181524 
L 656.135702 367.181524 
L 657.356072 367.181524 
L 658.576443 367.181524 
L 659.796813 367.181524 
L 661.017184 367.181524 
L 662.237554 367.181524 
L 663.457925 367.181524 
L 664.678295 367.181524 
L 665.898665 367.181524 
L 667.119036 367.181524 
L 668.339406 367.181524 
L 669.559777 367.181524 
L 670.780147 367.181524 
L 672.000518 367.181524 
L 673.220888 367.181524 
L 674.441259 367.181524 
L 675.661629 367.181524 
L 676.882 367.181524 
L 676.882 367.181524 
L 676.882 367.181524 
L 675.661629 367.181524 
L 674.441259 367.181524 
L 673.220888 367.181524 
L 672.000518 367.181524 
L 670.780147 367.181524 
L 669.559777 367.181524 
L 668.339406 367.181524 
L 667.119036 367.181524 
L 665.898665 367.181524 
L 664.678295 367.181524 
L 663.457925 367.181524 
L 662.237554 367.181524 
L 661.017184 367.181524 
L 659.796813 367.181524 
L 658.576443 367.181524 
L 657.356072 367.181524 
L 656.135702 367.181524 
L 654.915331 367.181524 
L 653.694961 367.181524 
L 652.47459 367.181524 
L 651.25422 367.181524 
L 650.033849 367.181524 
L 648.813479 367.181524 
L 647.593108 367.181524 
L 646.372738 367.181524 
L 645.152367 367.181524 
L 643.931997 367.181524 
L 642.711626 367.181524 
L 641.491256 367.181524 
L 640.270885 367.181524 
L 639.050515 367.181524 
L 637.830144 367.181524 
L 636.609774 367.181524 
L 635.389404 367.181524 
L 634.169033 367.181524 
L 632.948663 367.181524 
L 631.728292 366.552787 
L 630.507922 367.181524 
L 629.287551 367.181524 
L 628.067181 367.181524 
L 626.84681 367.181524 
L 625.62644 367.181524 
L 624.406069 367.181524 
L 623.185699 367.181524 
L 621.965328 367.181524 
L 620.744958 367.181524 
L 619.524587 367.181524 
L 618.304217 367.181524 
L 617.083846 367.181524 
L 615.863476 367.181524 
L 614.643105 367.181524 
L 613.422735 367.181524 
L 612.202364 367.181524 
L 610.981994 367.181524 
L 609.761623 367.181524 
L 608.541253 367.181524 
L 607.320883 367.181524 
L 606.100512 367.181524 
L 604.880142 367.181524 
L 603.659771 367.181524 
L 602.439401 367.181524 
L 601.21903 367.181524 
L 599.99866 367.181524 
L 598.778289 367.181524 
L 597.557919 367.181524 
L 596.337548 367.181524 
L 595.117178 367.181524 
L 593.896807 367.181524 
L 592.676437 367.181524 
L 591.456066 367.181524 
L 590.235696 367.181524 
L 589.015325 367.181524 
L 587.794955 367.181524 
L 586.574584 367.181524 
L 585.354214 367.181524 
L 584.133843 367.181524 
L 582.913473 367.181524 
L 581.693102 367.181524 
L 580.472732 367.181524 
L 579.252362 367.181524 
L 578.031991 367.181524 
L 576.811621 367.181524 
L 575.59125 367.181524 
L 574.37088 367.181524 
L 573.150509 367.181524 
L 571.930139 367.181524 
L 570.709768 367.181524 
L 569.489398 367.181524 
L 568.269027 367.181524 
L 567.048657 367.181524 
L 565.828286 367.181524 
L 564.607916 367.181524 
L 563.387545 367.181524 
L 562.167175 367.181524 
L 560.946804 367.181524 
L 559.726434 367.181524 
L 558.506063 367.181524 
L 557.285693 367.181524 
L 556.065322 367.181524 
L 554.844952 367.181524 
L 553.624582 367.181524 
L 552.404211 367.181524 
L 551.183841 367.181524 
L 549.96347 367.181524 
L 548.7431 367.181524 
L 547.522729 367.181524 
L 546.302359 367.181524 
L 545.081988 367.181524 
L 543.861618 367.181524 
L 542.641247 367.181524 
L 541.420877 367.181524 
L 540.200506 367.181524 
L 538.980136 367.181524 
L 537.759765 367.181524 
L 536.539395 366.552787 
L 535.319024 367.181524 
L 534.098654 367.181524 
L 532.878283 367.181524 
L 531.657913 367.181524 
L 530.437542 367.181524 
L 529.217172 367.181524 
L 527.996801 367.181524 
L 526.776431 367.181524 
L 525.556061 367.181524 
L 524.33569 367.181524 
L 523.11532 367.181524 
L 521.894949 367.181524 
L 520.674579 367.181524 
L 519.454208 367.181524 
L 518.233838 367.181524 
L 517.013467 367.181524 
L 515.793097 367.181524 
L 514.572726 367.181524 
L 513.352356 367.181524 
L 512.131985 367.181524 
L 510.911615 367.181524 
L 509.691244 367.181524 
L 508.470874 367.181524 
L 507.250503 367.181524 
L 506.030133 367.181524 
L 504.809762 367.181524 
L 503.589392 367.181524 
L 502.369021 367.181524 
L 501.148651 367.181524 
L 499.92828 367.181524 
L 498.70791 367.181524 
L 497.48754 367.181524 
L 496.267169 367.181524 
L 495.046799 367.181524 
L 493.826428 367.181524 
L 492.606058 367.181524 
L 491.385687 367.181524 
L 490.165317 367.181524 
L 488.944946 367.181524 
L 487.724576 367.181524 
L 486.504205 367.181524 
L 485.283835 367.181524 
L 484.063464 367.181524 
L 482.843094 367.181524 
L 481.622723 367.181524 
L 480.402353 367.181524 
L 479.181982 367.181524 
L 477.961612 367.181524 
L 476.741241 367.181524 
L 475.520871 367.181524 
L 474.3005 367.181524 
L 473.08013 367.181524 
L 471.85976 367.181524 
L 470.639389 367.181524 
L 469.419019 367.181524 
L 468.198648 367.181524 
L 466.978278 367.181524 
L 465.757907 367.181524 
L 464.537537 367.181524 
L 463.317166 367.181524 
L 462.096796 367.181524 
L 460.876425 367.181524 
L 459.656055 367.181524 
L 458.435684 367.181524 
L 457.215314 367.181524 
L 455.994943 367.181524 
L 454.774573 367.181524 
L 453.554202 367.181524 
L 452.333832 367.181524 
L 451.113461 367.181524 
L 449.893091 367.181524 
L 448.67272 367.181524 
L 447.45235 367.181524 
L 446.231979 367.181524 
L 445.011609 367.181524 
L 443.791239 367.181524 
L 442.570868 367.181524 
L 441.350498 367.181524 
L 440.130127 367.181524 
L 438.909757 367.181524 
L 437.689386 367.181524 
L 436.469016 367.181524 
L 435.248645 367.181524 
L 434.028275 367.181524 
L 432.807904 367.181524 
L 431.587534 367.181524 
L 430.367163 367.181524 
L 429.146793 367.181524 
L 427.926422 367.181524 
L 426.706052 367.181524 
L 425.485681 367.181524 
L 424.265311 367.181524 
L 423.04494 367.181524 
L 421.82457 367.181524 
L 420.604199 367.181524 
L 419.383829 367.181524 
L 418.163458 367.181524 
L 416.943088 367.181524 
L 415.722718 367.181524 
L 414.502347 367.181524 
L 413.281977 367.181524 
L 412.061606 367.181524 
L 410.841236 367.181524 
L 409.620865 367.181524 
L 408.400495 367.181524 
L 407.180124 367.181524 
L 405.959754 367.181524 
L 404.739383 366.552787 
L 403.519013 367.181524 
L 402.298642 367.181524 
L 401.078272 367.181524 
L 399.857901 367.181524 
L 398.637531 367.181524 
L 397.41716 367.181524 
L 396.19679 367.181524 
L 394.976419 367.181524 
L 393.756049 367.181524 
L 392.535678 367.181524 
L 391.315308 367.181524 
L 390.094938 367.181524 
L 388.874567 367.181524 
L 387.654197 367.181524 
L 386.433826 367.181524 
L 385.213456 367.181524 
L 383.993085 367.181524 
L 382.772715 367.181524 
L 381.552344 367.181524 
L 380.331974 367.181524 
L 379.111603 367.181524 
L 377.891233 367.181524 
L 376.670862 367.181524 
L 375.450492 367.181524 
L 374.230121 367.181524 
L 373.009751 367.181524 
L 371.78938 367.181524 
L 370.56901 367.181524 
L 369.348639 367.181524 
L 368.128269 367.181524 
L 366.907898 367.181524 
L 365.687528 367.181524 
L 364.467157 367.181524 
L 363.246787 367.181524 
L 362.026417 367.181524 
L 360.806046 367.181524 
L 359.585676 367.181524 
L 358.365305 367.181524 
L 357.144935 367.181524 
L 355.924564 367.181524 
L 354.704194 367.181524 
L 353.483823 367.181524 
L 352.263453 367.181524 
L 351.043082 367.181524 
L 349.822712 367.181524 
L 348.602341 367.181524 
L 347.381971 367.181524 
L 346.1616 367.181524 
L 344.94123 367.181524 
L 343.720859 367.181524 
L 342.500489 367.181524 
L 341.280118 367.181524 
L 340.059748 367.181524 
L 338.839377 367.181524 
L 337.619007 367.181524 
L 336.398636 367.181524 
L 335.178266 367.181524 
L 333.957896 367.181524 
L 332.737525 367.181524 
L 331.517155 367.181524 
L 330.296784 367.181524 
L 329.076414 367.181524 
L 327.856043 367.181524 
L 326.635673 367.181524 
L 325.415302 367.181524 
L 324.194932 367.181524 
L 322.974561 367.181524 
L 321.754191 367.181524 
L 320.53382 367.181524 
L 319.31345 367.181524 
L 318.093079 367.181524 
L 316.872709 367.181524 
L 315.652338 367.181524 
L 314.431968 367.181524 
L 313.211597 367.181524 
L 311.991227 367.181524 
L 310.770856 367.181524 
L 309.550486 367.181524 
L 308.330116 367.181524 
L 307.109745 367.181524 
L 305.889375 367.181524 
L 304.669004 367.181524 
L 303.448634 367.181524 
L 302.228263 367.181524 
L 301.007893 366.552787 
L 299.787522 367.181524 
L 298.567152 367.181524 
L 297.346781 367.181524 
L 296.126411 367.181524 
L 294.90604 367.181524 
L 293.68567 367.181524 
L 292.465299 367.181524 
L 291.244929 367.181524 
L 290.024558 367.181524 
L 288.804188 367.181524 
L 287.583817 367.181524 
L 286.363447 367.181524 
L 285.143076 367.181524 
L 283.922706 367.181524 
L 282.702335 367.181524 
L 281.481965 367.181524 
L 280.261595 367.181524 
L 279.041224 367.181524 
L 277.820854 367.181524 
L 276.600483 366.552787 
L 275.380113 367.181524 
L 274.159742 367.181524 
L 272.939372 367.181524 
L 271.719001 367.181524 
L 270.498631 367.181524 
L 269.27826 367.181524 
L 268.05789 367.181524 
L 266.837519 367.181524 
L 265.617149 367.181524 
L 264.396778 366.552787 
L 263.176408 367.181524 
L 261.956037 367.181524 
L 260.735667 367.181524 
L 259.515296 367.181524 
L 258.294926 367.181524 
L 257.074555 367.181524 
L 255.854185 367.181524 
L 254.633814 367.181524 
L 253.413444 367.181524 
L 252.193074 367.181524 
L 250.972703 367.181524 
L 249.752333 367.181524 
L 248.531962 367.181524 
L 247.311592 367.181524 
L 246.091221 367.181524 
L 244.870851 367.181524 
L 243.65048 367.181524 
L 242.43011 367.181524 
L 241.209739 367.181524 
L 239.989369 367.181524 
L 238.768998 367.181524 
L 237.548628 367.181524 
L 236.328257 367.181524 
L 235.107887 367.181524 
L 233.887516 367.181524 
L 232.667146 367.181524 
L 231.446775 367.181524 
L 230.226405 367.181524 
L 229.006034 367.181524 
L 227.785664 367.181524 
L 226.565294 367.181524 
L 225.344923 367.181524 
L 224.124553 367.181524 
L 222.904182 367.181524 
L 221.683812 367.181524 
L 220.463441 367.181524 
L 219.243071 367.181524 
L 218.0227 367.181524 
L 216.80233 367.181524 
L 215.581959 367.181524 
L 214.361589 367.181524 
L 213.141218 367.181524 
L 211.920848 367.181524 
L 210.700477 367.181524 
L 209.480107 367.181524 
L 208.259736 367.181524 
L 207.039366 367.181524 
L 205.818995 367.181524 
L 204.598625 367.181524 
L 203.378254 367.181524 
L 202.157884 367.181524 
L 200.937513 367.181524 
L 199.717143 367.181524 
L 198.496773 367.181524 
L 197.276402 367.181524 
L 196.056032 367.181524 
L 194.835661 367.181524 
L 193.615291 367.181524 
L 192.39492 367.181524 
L 191.17455 367.181524 
L 189.954179 367.181524 
L 188.733809 367.181524 
L 187.513438 367.181524 
L 186.293068 367.181524 
L 185.072697 367.181524 
L 183.852327 367.181524 
L 182.631956 367.181524 
L 181.411586 366.552787 
L 180.191215 367.181524 
L 178.970845 367.181524 
L 177.750474 367.181524 
L 176.530104 367.181524 
L 175.309733 367.181524 
L 174.089363 367.181524 
L 172.868992 367.181524 
L 171.648622 367.181524 
L 170.428252 367.181524 
L 169.207881 367.181524 
L 167.987511 367.181524 
L 166.76714 366.552787 
L 165.54677 367.181524 
L 164.326399 367.181524 
L 163.106029 366.552787 
L 161.885658 367.181524 
L 160.665288 367.181524 
L 159.444917 367.181524 
L 158.224547 367.181524 
L 157.004176 367.181524 
L 155.783806 367.181524 
L 154.563435 367.181524 
L 153.343065 367.181524 
L 152.122694 367.181524 
L 150.902324 366.552787 
L 149.681953 367.181524 
L 148.461583 367.181524 
L 147.241212 367.181524 
L 146.020842 367.181524 
L 144.800471 367.181524 
L 143.580101 366.552787 
L 142.359731 366.552787 
L 141.13936 367.181524 
L 139.91899 367.181524 
L 138.698619 367.181524 
L 137.478249 367.181524 
L 136.257878 366.552787 
L 135.037508 367.181524 
L 133.817137 367.181524 
L 132.596767 367.181524 
L 131.376396 367.181524 
L 130.156026 367.181524 
L 128.935655 367.181524 
L 127.715285 367.181524 
L 126.494914 366.552787 
L 125.274544 367.181524 
L 124.054173 367.181524 
L 122.833803 367.181524 
L 121.613432 367.181524 
L 120.393062 367.181524 
L 119.172691 367.181524 
L 117.952321 367.181524 
L 116.731951 367.181524 
L 115.51158 366.552787 
L 114.29121 367.181524 
L 113.070839 367.181524 
L 111.850469 367.181524 
L 110.630098 367.181524 
L 109.409728 367.181524 
L 108.189357 367.181524 
L 106.968987 367.181524 
L 105.748616 366.552787 
L 104.528246 366.552787 
L 103.307875 365.295315 
L 102.087505 366.552787 
L 100.867134 367.181524 
L 99.646764 367.181524 
L 98.426393 366.552787 
L 97.206023 366.552787 
L 95.985652 364.666579 
L 94.765282 365.295315 
L 93.544911 365.924051 
L 92.324541 365.295315 
L 91.10417 364.666579 
L 89.8838 364.037842 
L 88.66343 358.118785 
L 87.443059 350.053087 
L 86.222689 334.702986 
L 85.002318 321.975703 
L 83.781948 285.025423 
L 82.561577 254.635943 
L 81.341207 216.171402 
L 80.120836 154.4443 
L 78.900466 109.359647 
L 77.680095 28.038182 
z
" clip-path="url(#p038d380cd8)" style="fill: #1f77b4; fill-opacity: 0.2"/>
   </g>
   <g id="matplotlib.axis_1">
    <g id="xtick_1">
     <g id="line2d_1">
      <path d="M 77.063808 390.04 
L 77.063808 10.8 
" clip-path="url(#p038d380cd8)" style="fill: none; stroke: #b0b0b0; stroke-width: 0.8; stroke-linecap: square"/>
     </g>
     <g id="line2d_2">
      <defs>
       <path id="m25136dc99b" d="M 0 0 
L 0 3.5 
" style="stroke: #000000; stroke-width: 0.8"/>
      </defs>
      <g>
       <use xlink:href="#m25136dc99b" x="77.063808" y="390.04" style="stroke: #000000; stroke-width: 0.8"/>
      </g>
     </g>
     <g id="text_1">
      <!-- 0 -->
      <g transform="translate(73.882558 404.638438) scale(0.1 -0.1)">
       <defs>
        <path id="DejaVuSans-30" d="M 2034 4250 
Q 1547 4250 1301 3770 
Q 1056 3291 1056 2328 
Q 1056 1369 1301 889 
Q 1547 409 2034 409 
Q 2525 409 2770 889 
Q 3016 1369 3016 2328 
Q 3016 3291 2770 3770 
Q 2525 4250 2034 4250 
z
M 2034 4750 
Q 2819 4750 3233 4129 
Q 3647 3509 3647 2328 
Q 3647 1150 3233 529 
Q 2819 -91 2034 -91 
Q 1250 -91 836 529 
Q 422 1150 422 2328 
Q 422 3509 836 4129 
Q 1250 4750 2034 4750 
z
" transform="scale(0.015625)"/>
       </defs>
       <use xlink:href="#DejaVuSans-30"/>
      </g>
     </g>
    </g>
    <g id="xtick_2">
     <g id="line2d_3">
      <path d="M 199.100856 390.04 
L 199.100856 10.8 
" clip-path="url(#p038d380cd8)" style="fill: none; stroke: #b0b0b0; stroke-width: 0.8; stroke-linecap: square"/>
     </g>
     <g id="line2d_4">
      <g>
       <use xlink:href="#m25136dc99b" x="199.100856" y="390.04" style="stroke: #000000; stroke-width: 0.8"/>
      </g>
     </g>
     <g id="text_2">
      <!-- 20000 -->
      <g transform="translate(183.194606 404.638438) scale(0.1 -0.1)">
       <defs>
        <path id="DejaVuSans-32" d="M 1228 531 
L 3431 531 
L 3431 0 
L 469 0 
L 469 531 
Q 828 903 1448 1529 
Q 2069 2156 2228 2338 
Q 2531 2678 2651 2914 
Q 2772 3150 2772 3378 
Q 2772 3750 2511 3984 
Q 2250 4219 1831 4219 
Q 1534 4219 1204 4116 
Q 875 4013 500 3803 
L 500 4441 
Q 881 4594 1212 4672 
Q 1544 4750 1819 4750 
Q 2544 4750 2975 4387 
Q 3406 4025 3406 3419 
Q 3406 3131 3298 2873 
Q 3191 2616 2906 2266 
Q 2828 2175 2409 1742 
Q 1991 1309 1228 531 
z
" transform="scale(0.015625)"/>
       </defs>
       <use xlink:href="#DejaVuSans-32"/>
       <use xlink:href="#DejaVuSans-30" transform="translate(63.623047 0)"/>
       <use xlink:href="#DejaVuSans-30" transform="translate(127.246094 0)"/>
       <use xlink:href="#DejaVuSans-30" transform="translate(190.869141 0)"/>
       <use xlink:href="#DejaVuSans-30" transform="translate(254.492188 0)"/>
      </g>
     </g>
    </g>
    <g id="xtick_3">
     <g id="line2d_5">
      <path d="M 321.137904 390.04 
L 321.137904 10.8 
" clip-path="url(#p038d380cd8)" style="fill: none; stroke: #b0b0b0; stroke-width: 0.8; stroke-linecap: square"/>
     </g>
     <g id="line2d_6">
      <g>
       <use xlink:href="#m25136dc99b" x="321.137904" y="390.04" style="stroke: #000000; stroke-width: 0.8"/>
      </g>
     </g>
     <g id="text_3">
      <!-- 40000 -->
      <g transform="translate(305.231654 404.638438) scale(0.1 -0.1)">
       <defs>
        <path id="DejaVuSans-34" d="M 2419 4116 
L 825 1625 
L 2419 1625 
L 2419 4116 
z
M 2253 4666 
L 3047 4666 
L 3047 1625 
L 3713 1625 
L 3713 1100 
L 3047 1100 
L 3047 0 
L 2419 0 
L 2419 1100 
L 313 1100 
L 313 1709 
L 2253 4666 
z
" transform="scale(0.015625)"/>
       </defs>
       <use xlink:href="#DejaVuSans-34"/>
       <use xlink:href="#DejaVuSans-30" transform="translate(63.623047 0)"/>
       <use xlink:href="#DejaVuSans-30" transform="translate(127.246094 0)"/>
       <use xlink:href="#DejaVuSans-30" transform="translate(190.869141 0)"/>
       <use xlink:href="#DejaVuSans-30" transform="translate(254.492188 0)"/>
      </g>
     </g>
    </g>
    <g id="xtick_4">
     <g id="line2d_7">
      <path d="M 443.174951 390.04 
L 443.174951 10.8 
" clip-path="url(#p038d380cd8)" style="fill: none; stroke: #b0b0b0; stroke-width: 0.8; stroke-linecap: square"/>
     </g>
     <g id="line2d_8">
      <g>
       <use xlink:href="#m25136dc99b" x="443.174951" y="390.04" style="stroke: #000000; stroke-width: 0.8"/>
      </g>
     </g>
     <g id="text_4">
      <!-- 60000 -->
      <g transform="translate(427.268701 404.638438) scale(0.1 -0.1)">
       <defs>
        <path id="DejaVuSans-36" d="M 2113 2584 
Q 1688 2584 1439 2293 
Q 1191 2003 1191 1497 
Q 1191 994 1439 701 
Q 1688 409 2113 409 
Q 2538 409 2786 701 
Q 3034 994 3034 1497 
Q 3034 2003 2786 2293 
Q 2538 2584 2113 2584 
z
M 3366 4563 
L 3366 3988 
Q 3128 4100 2886 4159 
Q 2644 4219 2406 4219 
Q 1781 4219 1451 3797 
Q 1122 3375 1075 2522 
Q 1259 2794 1537 2939 
Q 1816 3084 2150 3084 
Q 2853 3084 3261 2657 
Q 3669 2231 3669 1497 
Q 3669 778 3244 343 
Q 2819 -91 2113 -91 
Q 1303 -91 875 529 
Q 447 1150 447 2328 
Q 447 3434 972 4092 
Q 1497 4750 2381 4750 
Q 2619 4750 2861 4703 
Q 3103 4656 3366 4563 
z
" transform="scale(0.015625)"/>
       </defs>
       <use xlink:href="#DejaVuSans-36"/>
       <use xlink:href="#DejaVuSans-30" transform="translate(63.623047 0)"/>
       <use xlink:href="#DejaVuSans-30" transform="translate(127.246094 0)"/>
       <use xlink:href="#DejaVuSans-30" transform="translate(190.869141 0)"/>
       <use xlink:href="#DejaVuSans-30" transform="translate(254.492188 0)"/>
      </g>
     </g>
    </g>
    <g id="xtick_5">
     <g id="line2d_9">
      <path d="M 565.211999 390.04 
L 565.211999 10.8 
" clip-path="url(#p038d380cd8)" style="fill: none; stroke: #b0b0b0; stroke-width: 0.8; stroke-linecap: square"/>
     </g>
     <g id="line2d_10">
      <g>
       <use xlink:href="#m25136dc99b" x="565.211999" y="390.04" style="stroke: #000000; stroke-width: 0.8"/>
      </g>
     </g>
     <g id="text_5">
      <!-- 80000 -->
      <g transform="translate(549.305749 404.638438) scale(0.1 -0.1)">
       <defs>
        <path id="DejaVuSans-38" d="M 2034 2216 
Q 1584 2216 1326 1975 
Q 1069 1734 1069 1313 
Q 1069 891 1326 650 
Q 1584 409 2034 409 
Q 2484 409 2743 651 
Q 3003 894 3003 1313 
Q 3003 1734 2745 1975 
Q 2488 2216 2034 2216 
z
M 1403 2484 
Q 997 2584 770 2862 
Q 544 3141 544 3541 
Q 544 4100 942 4425 
Q 1341 4750 2034 4750 
Q 2731 4750 3128 4425 
Q 3525 4100 3525 3541 
Q 3525 3141 3298 2862 
Q 3072 2584 2669 2484 
Q 3125 2378 3379 2068 
Q 3634 1759 3634 1313 
Q 3634 634 3220 271 
Q 2806 -91 2034 -91 
Q 1263 -91 848 271 
Q 434 634 434 1313 
Q 434 1759 690 2068 
Q 947 2378 1403 2484 
z
M 1172 3481 
Q 1172 3119 1398 2916 
Q 1625 2713 2034 2713 
Q 2441 2713 2670 2916 
Q 2900 3119 2900 3481 
Q 2900 3844 2670 4047 
Q 2441 4250 2034 4250 
Q 1625 4250 1398 4047 
Q 1172 3844 1172 3481 
z
" transform="scale(0.015625)"/>
       </defs>
       <use xlink:href="#DejaVuSans-38"/>
       <use xlink:href="#DejaVuSans-30" transform="translate(63.623047 0)"/>
       <use xlink:href="#DejaVuSans-30" transform="translate(127.246094 0)"/>
       <use xlink:href="#DejaVuSans-30" transform="translate(190.869141 0)"/>
       <use xlink:href="#DejaVuSans-30" transform="translate(254.492188 0)"/>
      </g>
     </g>
    </g>
    <g id="xtick_6">
     <g id="line2d_11">
      <path d="M 687.249047 390.04 
L 687.249047 10.8 
" clip-path="url(#p038d380cd8)" style="fill: none; stroke: #b0b0b0; stroke-width: 0.8; stroke-linecap: square"/>
     </g>
     <g id="line2d_12">
      <g>
       <use xlink:href="#m25136dc99b" x="687.249047" y="390.04" style="stroke: #000000; stroke-width: 0.8"/>
      </g>
     </g>
     <g id="text_6">
      <!-- 100000 -->
      <g transform="translate(668.161547 404.638438) scale(0.1 -0.1)">
       <defs>
        <path id="DejaVuSans-31" d="M 794 531 
L 1825 531 
L 1825 4091 
L 703 3866 
L 703 4441 
L 1819 4666 
L 2450 4666 
L 2450 531 
L 3481 531 
L 3481 0 
L 794 0 
L 794 531 
z
" transform="scale(0.015625)"/>
       </defs>
       <use xlink:href="#DejaVuSans-31"/>
       <use xlink:href="#DejaVuSans-30" transform="translate(63.623047 0)"/>
       <use xlink:href="#DejaVuSans-30" transform="translate(127.246094 0)"/>
       <use xlink:href="#DejaVuSans-30" transform="translate(190.869141 0)"/>
       <use xlink:href="#DejaVuSans-30" transform="translate(254.492188 0)"/>
       <use xlink:href="#DejaVuSans-30" transform="translate(318.115234 0)"/>
      </g>
     </g>
    </g>
    <g id="text_7">
     <!-- Episodes -->
     <g transform="translate(355.03886 418.316562) scale(0.1 -0.1)">
      <defs>
       <path id="DejaVuSans-45" d="M 628 4666 
L 3578 4666 
L 3578 4134 
L 1259 4134 
L 1259 2753 
L 3481 2753 
L 3481 2222 
L 1259 2222 
L 1259 531 
L 3634 531 
L 3634 0 
L 628 0 
L 628 4666 
z
" transform="scale(0.015625)"/>
       <path id="DejaVuSans-70" d="M 1159 525 
L 1159 -1331 
L 581 -1331 
L 581 3500 
L 1159 3500 
L 1159 2969 
Q 1341 3281 1617 3432 
Q 1894 3584 2278 3584 
Q 2916 3584 3314 3078 
Q 3713 2572 3713 1747 
Q 3713 922 3314 415 
Q 2916 -91 2278 -91 
Q 1894 -91 1617 61 
Q 1341 213 1159 525 
z
M 3116 1747 
Q 3116 2381 2855 2742 
Q 2594 3103 2138 3103 
Q 1681 3103 1420 2742 
Q 1159 2381 1159 1747 
Q 1159 1113 1420 752 
Q 1681 391 2138 391 
Q 2594 391 2855 752 
Q 3116 1113 3116 1747 
z
" transform="scale(0.015625)"/>
       <path id="DejaVuSans-69" d="M 603 3500 
L 1178 3500 
L 1178 0 
L 603 0 
L 603 3500 
z
M 603 4863 
L 1178 4863 
L 1178 4134 
L 603 4134 
L 603 4863 
z
" transform="scale(0.015625)"/>
       <path id="DejaVuSans-73" d="M 2834 3397 
L 2834 2853 
Q 2591 2978 2328 3040 
Q 2066 3103 1784 3103 
Q 1356 3103 1142 2972 
Q 928 2841 928 2578 
Q 928 2378 1081 2264 
Q 1234 2150 1697 2047 
L 1894 2003 
Q 2506 1872 2764 1633 
Q 3022 1394 3022 966 
Q 3022 478 2636 193 
Q 2250 -91 1575 -91 
Q 1294 -91 989 -36 
Q 684 19 347 128 
L 347 722 
Q 666 556 975 473 
Q 1284 391 1588 391 
Q 1994 391 2212 530 
Q 2431 669 2431 922 
Q 2431 1156 2273 1281 
Q 2116 1406 1581 1522 
L 1381 1569 
Q 847 1681 609 1914 
Q 372 2147 372 2553 
Q 372 3047 722 3315 
Q 1072 3584 1716 3584 
Q 2034 3584 2315 3537 
Q 2597 3491 2834 3397 
z
" transform="scale(0.015625)"/>
       <path id="DejaVuSans-6f" d="M 1959 3097 
Q 1497 3097 1228 2736 
Q 959 2375 959 1747 
Q 959 1119 1226 758 
Q 1494 397 1959 397 
Q 2419 397 2687 759 
Q 2956 1122 2956 1747 
Q 2956 2369 2687 2733 
Q 2419 3097 1959 3097 
z
M 1959 3584 
Q 2709 3584 3137 3096 
Q 3566 2609 3566 1747 
Q 3566 888 3137 398 
Q 2709 -91 1959 -91 
Q 1206 -91 779 398 
Q 353 888 353 1747 
Q 353 2609 779 3096 
Q 1206 3584 1959 3584 
z
" transform="scale(0.015625)"/>
       <path id="DejaVuSans-64" d="M 2906 2969 
L 2906 4863 
L 3481 4863 
L 3481 0 
L 2906 0 
L 2906 525 
Q 2725 213 2448 61 
Q 2172 -91 1784 -91 
Q 1150 -91 751 415 
Q 353 922 353 1747 
Q 353 2572 751 3078 
Q 1150 3584 1784 3584 
Q 2172 3584 2448 3432 
Q 2725 3281 2906 2969 
z
M 947 1747 
Q 947 1113 1208 752 
Q 1469 391 1925 391 
Q 2381 391 2643 752 
Q 2906 1113 2906 1747 
Q 2906 2381 2643 2742 
Q 2381 3103 1925 3103 
Q 1469 3103 1208 2742 
Q 947 2381 947 1747 
z
" transform="scale(0.015625)"/>
       <path id="DejaVuSans-65" d="M 3597 1894 
L 3597 1613 
L 953 1613 
Q 991 1019 1311 708 
Q 1631 397 2203 397 
Q 2534 397 2845 478 
Q 3156 559 3463 722 
L 3463 178 
Q 3153 47 2828 -22 
Q 2503 -91 2169 -91 
Q 1331 -91 842 396 
Q 353 884 353 1716 
Q 353 2575 817 3079 
Q 1281 3584 2069 3584 
Q 2775 3584 3186 3129 
Q 3597 2675 3597 1894 
z
M 3022 2063 
Q 3016 2534 2758 2815 
Q 2500 3097 2075 3097 
Q 1594 3097 1305 2825 
Q 1016 2553 972 2059 
L 3022 2063 
z
" transform="scale(0.015625)"/>
      </defs>
      <use xlink:href="#DejaVuSans-45"/>
      <use xlink:href="#DejaVuSans-70" transform="translate(63.183594 0)"/>
      <use xlink:href="#DejaVuSans-69" transform="translate(126.660156 0)"/>
      <use xlink:href="#DejaVuSans-73" transform="translate(154.443359 0)"/>
      <use xlink:href="#DejaVuSans-6f" transform="translate(206.542969 0)"/>
      <use xlink:href="#DejaVuSans-64" transform="translate(267.724609 0)"/>
      <use xlink:href="#DejaVuSans-65" transform="translate(331.201172 0)"/>
      <use xlink:href="#DejaVuSans-73" transform="translate(392.724609 0)"/>
     </g>
    </g>
   </g>
   <g id="matplotlib.axis_2">
    <g id="ytick_1">
     <g id="line2d_13">
      <path d="M 47.72 367.181524 
L 706.842095 367.181524 
" clip-path="url(#p038d380cd8)" style="fill: none; stroke: #b0b0b0; stroke-width: 0.8; stroke-linecap: square"/>
     </g>
     <g id="line2d_14">
      <defs>
       <path id="m2bd1f98c8b" d="M 0 0 
L -3.5 0 
" style="stroke: #000000; stroke-width: 0.8"/>
      </defs>
      <g>
       <use xlink:href="#m2bd1f98c8b" x="47.72" y="367.181524" style="stroke: #000000; stroke-width: 0.8"/>
      </g>
     </g>
     <g id="text_8">
      <!-- 1.0 -->
      <g transform="translate(24.816875 370.980742) scale(0.1 -0.1)">
       <defs>
        <path id="DejaVuSans-2e" d="M 684 794 
L 1344 794 
L 1344 0 
L 684 0 
L 684 794 
z
" transform="scale(0.015625)"/>
       </defs>
       <use xlink:href="#DejaVuSans-31"/>
       <use xlink:href="#DejaVuSans-2e" transform="translate(63.623047 0)"/>
       <use xlink:href="#DejaVuSans-30" transform="translate(95.410156 0)"/>
      </g>
     </g>
    </g>
    <g id="ytick_2">
     <g id="line2d_15">
      <path d="M 47.72 289.052197 
L 706.842095 289.052197 
" clip-path="url(#p038d380cd8)" style="fill: none; stroke: #b0b0b0; stroke-width: 0.8; stroke-linecap: square"/>
     </g>
     <g id="line2d_16">
      <g>
       <use xlink:href="#m2bd1f98c8b" x="47.72" y="289.052197" style="stroke: #000000; stroke-width: 0.8"/>
      </g>
     </g>
     <g id="text_9">
      <!-- 1.5 -->
      <g transform="translate(24.816875 292.851415) scale(0.1 -0.1)">
       <defs>
        <path id="DejaVuSans-35" d="M 691 4666 
L 3169 4666 
L 3169 4134 
L 1269 4134 
L 1269 2991 
Q 1406 3038 1543 3061 
Q 1681 3084 1819 3084 
Q 2600 3084 3056 2656 
Q 3513 2228 3513 1497 
Q 3513 744 3044 326 
Q 2575 -91 1722 -91 
Q 1428 -91 1123 -41 
Q 819 9 494 109 
L 494 744 
Q 775 591 1075 516 
Q 1375 441 1709 441 
Q 2250 441 2565 725 
Q 2881 1009 2881 1497 
Q 2881 1984 2565 2268 
Q 2250 2553 1709 2553 
Q 1456 2553 1204 2497 
Q 953 2441 691 2322 
L 691 4666 
z
" transform="scale(0.015625)"/>
       </defs>
       <use xlink:href="#DejaVuSans-31"/>
       <use xlink:href="#DejaVuSans-2e" transform="translate(63.623047 0)"/>
       <use xlink:href="#DejaVuSans-35" transform="translate(95.410156 0)"/>
      </g>
     </g>
    </g>
    <g id="ytick_3">
     <g id="line2d_17">
      <path d="M 47.72 210.92287 
L 706.842095 210.92287 
" clip-path="url(#p038d380cd8)" style="fill: none; stroke: #b0b0b0; stroke-width: 0.8; stroke-linecap: square"/>
     </g>
     <g id="line2d_18">
      <g>
       <use xlink:href="#m2bd1f98c8b" x="47.72" y="210.92287" style="stroke: #000000; stroke-width: 0.8"/>
      </g>
     </g>
     <g id="text_10">
      <!-- 2.0 -->
      <g transform="translate(24.816875 214.722088) scale(0.1 -0.1)">
       <use xlink:href="#DejaVuSans-32"/>
       <use xlink:href="#DejaVuSans-2e" transform="translate(63.623047 0)"/>
       <use xlink:href="#DejaVuSans-30" transform="translate(95.410156 0)"/>
      </g>
     </g>
    </g>
    <g id="ytick_4">
     <g id="line2d_19">
      <path d="M 47.72 132.793543 
L 706.842095 132.793543 
" clip-path="url(#p038d380cd8)" style="fill: none; stroke: #b0b0b0; stroke-width: 0.8; stroke-linecap: square"/>
     </g>
     <g id="line2d_20">
      <g>
       <use xlink:href="#m2bd1f98c8b" x="47.72" y="132.793543" style="stroke: #000000; stroke-width: 0.8"/>
      </g>
     </g>
     <g id="text_11">
      <!-- 2.5 -->
      <g transform="translate(24.816875 136.592761) scale(0.1 -0.1)">
       <use xlink:href="#DejaVuSans-32"/>
       <use xlink:href="#DejaVuSans-2e" transform="translate(63.623047 0)"/>
       <use xlink:href="#DejaVuSans-35" transform="translate(95.410156 0)"/>
      </g>
     </g>
    </g>
    <g id="ytick_5">
     <g id="line2d_21">
      <path d="M 47.72 54.664216 
L 706.842095 54.664216 
" clip-path="url(#p038d380cd8)" style="fill: none; stroke: #b0b0b0; stroke-width: 0.8; stroke-linecap: square"/>
     </g>
     <g id="line2d_22">
      <g>
       <use xlink:href="#m2bd1f98c8b" x="47.72" y="54.664216" style="stroke: #000000; stroke-width: 0.8"/>
      </g>
     </g>
     <g id="text_12">
      <!-- 3.0 -->
      <g transform="translate(24.816875 58.463434) scale(0.1 -0.1)">
       <defs>
        <path id="DejaVuSans-33" d="M 2597 2516 
Q 3050 2419 3304 2112 
Q 3559 1806 3559 1356 
Q 3559 666 3084 287 
Q 2609 -91 1734 -91 
Q 1441 -91 1130 -33 
Q 819 25 488 141 
L 488 750 
Q 750 597 1062 519 
Q 1375 441 1716 441 
Q 2309 441 2620 675 
Q 2931 909 2931 1356 
Q 2931 1769 2642 2001 
Q 2353 2234 1838 2234 
L 1294 2234 
L 1294 2753 
L 1863 2753 
Q 2328 2753 2575 2939 
Q 2822 3125 2822 3475 
Q 2822 3834 2567 4026 
Q 2313 4219 1838 4219 
Q 1578 4219 1281 4162 
Q 984 4106 628 3988 
L 628 4550 
Q 988 4650 1302 4700 
Q 1616 4750 1894 4750 
Q 2613 4750 3031 4423 
Q 3450 4097 3450 3541 
Q 3450 3153 3228 2886 
Q 3006 2619 2597 2516 
z
" transform="scale(0.015625)"/>
       </defs>
       <use xlink:href="#DejaVuSans-33"/>
       <use xlink:href="#DejaVuSans-2e" transform="translate(63.623047 0)"/>
       <use xlink:href="#DejaVuSans-30" transform="translate(95.410156 0)"/>
      </g>
     </g>
    </g>
    <g id="text_13">
     <!-- Circuit Depth -->
     <g transform="translate(18.737188 233.329375) rotate(-90) scale(0.1 -0.1)">
      <defs>
       <path id="DejaVuSans-43" d="M 4122 4306 
L 4122 3641 
Q 3803 3938 3442 4084 
Q 3081 4231 2675 4231 
Q 1875 4231 1450 3742 
Q 1025 3253 1025 2328 
Q 1025 1406 1450 917 
Q 1875 428 2675 428 
Q 3081 428 3442 575 
Q 3803 722 4122 1019 
L 4122 359 
Q 3791 134 3420 21 
Q 3050 -91 2638 -91 
Q 1578 -91 968 557 
Q 359 1206 359 2328 
Q 359 3453 968 4101 
Q 1578 4750 2638 4750 
Q 3056 4750 3426 4639 
Q 3797 4528 4122 4306 
z
" transform="scale(0.015625)"/>
       <path id="DejaVuSans-72" d="M 2631 2963 
Q 2534 3019 2420 3045 
Q 2306 3072 2169 3072 
Q 1681 3072 1420 2755 
Q 1159 2438 1159 1844 
L 1159 0 
L 581 0 
L 581 3500 
L 1159 3500 
L 1159 2956 
Q 1341 3275 1631 3429 
Q 1922 3584 2338 3584 
Q 2397 3584 2469 3576 
Q 2541 3569 2628 3553 
L 2631 2963 
z
" transform="scale(0.015625)"/>
       <path id="DejaVuSans-63" d="M 3122 3366 
L 3122 2828 
Q 2878 2963 2633 3030 
Q 2388 3097 2138 3097 
Q 1578 3097 1268 2742 
Q 959 2388 959 1747 
Q 959 1106 1268 751 
Q 1578 397 2138 397 
Q 2388 397 2633 464 
Q 2878 531 3122 666 
L 3122 134 
Q 2881 22 2623 -34 
Q 2366 -91 2075 -91 
Q 1284 -91 818 406 
Q 353 903 353 1747 
Q 353 2603 823 3093 
Q 1294 3584 2113 3584 
Q 2378 3584 2631 3529 
Q 2884 3475 3122 3366 
z
" transform="scale(0.015625)"/>
       <path id="DejaVuSans-75" d="M 544 1381 
L 544 3500 
L 1119 3500 
L 1119 1403 
Q 1119 906 1312 657 
Q 1506 409 1894 409 
Q 2359 409 2629 706 
Q 2900 1003 2900 1516 
L 2900 3500 
L 3475 3500 
L 3475 0 
L 2900 0 
L 2900 538 
Q 2691 219 2414 64 
Q 2138 -91 1772 -91 
Q 1169 -91 856 284 
Q 544 659 544 1381 
z
M 1991 3584 
L 1991 3584 
z
" transform="scale(0.015625)"/>
       <path id="DejaVuSans-74" d="M 1172 4494 
L 1172 3500 
L 2356 3500 
L 2356 3053 
L 1172 3053 
L 1172 1153 
Q 1172 725 1289 603 
Q 1406 481 1766 481 
L 2356 481 
L 2356 0 
L 1766 0 
Q 1100 0 847 248 
Q 594 497 594 1153 
L 594 3053 
L 172 3053 
L 172 3500 
L 594 3500 
L 594 4494 
L 1172 4494 
z
" transform="scale(0.015625)"/>
       <path id="DejaVuSans-20" transform="scale(0.015625)"/>
       <path id="DejaVuSans-44" d="M 1259 4147 
L 1259 519 
L 2022 519 
Q 2988 519 3436 956 
Q 3884 1394 3884 2338 
Q 3884 3275 3436 3711 
Q 2988 4147 2022 4147 
L 1259 4147 
z
M 628 4666 
L 1925 4666 
Q 3281 4666 3915 4102 
Q 4550 3538 4550 2338 
Q 4550 1131 3912 565 
Q 3275 0 1925 0 
L 628 0 
L 628 4666 
z
" transform="scale(0.015625)"/>
       <path id="DejaVuSans-68" d="M 3513 2113 
L 3513 0 
L 2938 0 
L 2938 2094 
Q 2938 2591 2744 2837 
Q 2550 3084 2163 3084 
Q 1697 3084 1428 2787 
Q 1159 2491 1159 1978 
L 1159 0 
L 581 0 
L 581 4863 
L 1159 4863 
L 1159 2956 
Q 1366 3272 1645 3428 
Q 1925 3584 2291 3584 
Q 2894 3584 3203 3211 
Q 3513 2838 3513 2113 
z
" transform="scale(0.015625)"/>
      </defs>
      <use xlink:href="#DejaVuSans-43"/>
      <use xlink:href="#DejaVuSans-69" transform="translate(69.824219 0)"/>
      <use xlink:href="#DejaVuSans-72" transform="translate(97.607422 0)"/>
      <use xlink:href="#DejaVuSans-63" transform="translate(136.470703 0)"/>
      <use xlink:href="#DejaVuSans-75" transform="translate(191.451172 0)"/>
      <use xlink:href="#DejaVuSans-69" transform="translate(254.830078 0)"/>
      <use xlink:href="#DejaVuSans-74" transform="translate(282.613281 0)"/>
      <use xlink:href="#DejaVuSans-20" transform="translate(321.822266 0)"/>
      <use xlink:href="#DejaVuSans-44" transform="translate(353.609375 0)"/>
      <use xlink:href="#DejaVuSans-65" transform="translate(430.611328 0)"/>
      <use xlink:href="#DejaVuSans-70" transform="translate(492.134766 0)"/>
      <use xlink:href="#DejaVuSans-74" transform="translate(555.611328 0)"/>
      <use xlink:href="#DejaVuSans-68" transform="translate(594.820312 0)"/>
     </g>
    </g>
   </g>
   <g id="line2d_23">
    <path d="M 77.680095 161.180531 
L 78.900466 217.433647 
L 80.120836 248.685378 
L 81.341207 284.624868 
L 82.561577 310.928408 
L 83.781948 325.512549 
L 85.002318 347.388761 
L 86.222689 353.118245 
L 87.443059 359.629022 
L 88.66343 363.275057 
L 89.8838 365.879368 
L 93.544911 366.660661 
L 95.985652 366.139799 
L 97.206023 366.921093 
L 98.426393 366.921093 
L 99.646764 367.181524 
L 100.867134 367.181524 
L 102.087505 366.921093 
L 103.307875 366.40023 
L 104.528246 366.921093 
L 105.748616 366.921093 
L 106.968987 367.181524 
L 114.29121 367.181524 
L 115.51158 366.921093 
L 116.731951 367.181524 
L 125.274544 367.181524 
L 126.494914 366.921093 
L 127.715285 367.181524 
L 135.037508 367.181524 
L 136.257878 366.921093 
L 137.478249 367.181524 
L 141.13936 367.181524 
L 142.359731 366.921093 
L 143.580101 366.921093 
L 144.800471 367.181524 
L 149.681953 367.181524 
L 150.902324 366.921093 
L 152.122694 367.181524 
L 161.885658 367.181524 
L 163.106029 366.921093 
L 164.326399 367.181524 
L 165.54677 367.181524 
L 166.76714 366.921093 
L 167.987511 367.181524 
L 180.191215 367.181524 
L 181.411586 366.921093 
L 182.631956 367.181524 
L 263.176408 367.181524 
L 264.396778 366.921093 
L 265.617149 367.181524 
L 275.380113 367.181524 
L 276.600483 366.921093 
L 277.820854 367.181524 
L 299.787522 367.181524 
L 301.007893 366.921093 
L 302.228263 367.181524 
L 403.519013 367.181524 
L 404.739383 366.921093 
L 405.959754 367.181524 
L 535.319024 367.181524 
L 536.539395 366.921093 
L 537.759765 367.181524 
L 630.507922 367.181524 
L 631.728292 366.921093 
L 632.948663 367.181524 
L 676.882 367.181524 
L 676.882 367.181524 
" clip-path="url(#p038d380cd8)" style="fill: none; stroke: #1f77b4; stroke-width: 1.5; stroke-linecap: square"/>
   </g>
   <g id="patch_3">
    <path d="M 47.72 390.04 
L 47.72 10.8 
" style="fill: none; stroke: #000000; stroke-width: 0.8; stroke-linejoin: miter; stroke-linecap: square"/>
   </g>
   <g id="patch_4">
    <path d="M 706.842095 390.04 
L 706.842095 10.8 
" style="fill: none; stroke: #000000; stroke-width: 0.8; stroke-linejoin: miter; stroke-linecap: square"/>
   </g>
   <g id="patch_5">
    <path d="M 47.72 390.04 
L 706.842095 390.04 
" style="fill: none; stroke: #000000; stroke-width: 0.8; stroke-linejoin: miter; stroke-linecap: square"/>
   </g>
   <g id="patch_6">
    <path d="M 47.72 10.8 
L 706.842095 10.8 
" style="fill: none; stroke: #000000; stroke-width: 0.8; stroke-linejoin: miter; stroke-linecap: square"/>
   </g>
  </g>
 </g>
 <defs>
  <clipPath id="p038d380cd8">
   <rect x="47.72" y="10.8" width="659.122095" height="379.24"/>
  </clipPath>
 </defs>
</svg>
