<?xml version="1.0" encoding="utf-8" standalone="no"?>
<!DOCTYPE svg PUBLIC "-//W3C//DTD SVG 1.1//EN"
  "http://www.w3.org/Graphics/SVG/1.1/DTD/svg11.dtd">
<svg xmlns:xlink="http://www.w3.org/1999/xlink" width="720pt" height="432pt" viewBox="0 0 720 432" xmlns="http://www.w3.org/2000/svg" version="1.1">
 <metadata>
  <rdf:RDF xmlns:dc="http://purl.org/dc/elements/1.1/" xmlns:cc="http://creativecommons.org/ns#" xmlns:rdf="http://www.w3.org/1999/02/22-rdf-syntax-ns#">
   <cc:Work>
    <dc:type rdf:resource="http://purl.org/dc/dcmitype/StillImage"/>
    <dc:date>2025-04-16T00:53:25.637120</dc:date>
    <dc:format>image/svg+xml</dc:format>
    <dc:creator>
     <cc:Agent>
      <dc:title>Matplotlib v3.10.0, https://matplotlib.org/</dc:title>
     </cc:Agent>
    </dc:creator>
   </cc:Work>
  </rdf:RDF>
 </metadata>
 <defs>
  <style type="text/css">*{stroke-linejoin: round; stroke-linecap: butt}</style>
 </defs>
 <g id="figure_1">
  <g id="patch_1">
   <path d="M 0 432 
L 720 432 
L 720 0 
L 0 0 
z
" style="fill: #ffffff"/>
  </g>
  <g id="axes_1">
   <g id="patch_2">
    <path d="M 50.87 390.04 
L 706.842095 390.04 
L 706.842095 10.8 
L 50.87 10.8 
z
" style="fill: #ffffff"/>
   </g>
   <g id="FillBetweenPolyCollection_1">
    <path d="M 80.686913 92.312128 
L 80.686913 372.801818 
L 81.901452 258.925664 
L 83.11599 136.783997 
L 84.330528 98.056851 
L 85.545066 51.91187 
L 86.759605 45.123481 
L 87.974143 38.322952 
L 89.188681 38.298871 
L 90.403219 38.278632 
L 91.617757 38.267335 
L 92.832296 38.256579 
L 94.046834 38.256167 
L 95.261372 38.255342 
L 96.47591 38.253693 
L 97.690449 38.25493 
L 98.904987 38.255342 
L 100.119525 38.252868 
L 101.334063 38.252868 
L 102.548601 38.251631 
L 103.76314 38.251631 
L 104.977678 38.252868 
L 106.192216 38.254105 
L 107.406754 38.252456 
L 108.621293 38.252868 
L 109.835831 38.251631 
L 111.050369 38.251631 
L 112.264907 38.251631 
L 113.479445 38.252456 
L 114.693984 38.251631 
L 115.908522 38.251631 
L 117.12306 38.251631 
L 118.337598 38.252456 
L 119.552137 38.251631 
L 120.766675 38.252043 
L 121.981213 38.251631 
L 123.195751 38.251631 
L 124.410289 38.251631 
L 125.624828 38.251631 
L 126.839366 38.251631 
L 128.053904 38.251631 
L 129.268442 38.252456 
L 130.482981 38.251631 
L 131.697519 38.251631 
L 132.912057 38.251631 
L 134.126595 38.251631 
L 135.341134 38.251631 
L 136.555672 38.251631 
L 137.77021 38.252043 
L 138.984748 38.252456 
L 140.199286 38.251631 
L 141.413825 38.251631 
L 142.628363 38.251631 
L 143.842901 38.251631 
L 145.057439 38.252456 
L 146.271978 38.252456 
L 147.486516 38.251631 
L 148.701054 38.251631 
L 149.915592 38.252043 
L 151.13013 38.251631 
L 152.344669 38.251631 
L 153.559207 38.252456 
L 154.773745 38.251631 
L 155.988283 38.251631 
L 157.202822 38.251631 
L 158.41736 38.251631 
L 159.631898 38.251631 
L 160.846436 38.251631 
L 162.060974 38.251631 
L 163.275513 38.251631 
L 164.490051 38.252043 
L 165.704589 38.252456 
L 166.919127 38.251631 
L 168.133666 38.251631 
L 169.348204 38.252456 
L 170.562742 38.251631 
L 171.77728 38.251631 
L 172.991818 38.251631 
L 174.206357 38.251631 
L 175.420895 38.251631 
L 176.635433 38.251631 
L 177.849971 38.251631 
L 179.06451 38.251631 
L 180.279048 38.251631 
L 181.493586 38.251631 
L 182.708124 38.251631 
L 183.922662 38.252456 
L 185.137201 38.251631 
L 186.351739 38.251631 
L 187.566277 38.251631 
L 188.780815 38.251631 
L 189.995354 38.251631 
L 191.209892 38.251631 
L 192.42443 38.251631 
L 193.638968 38.251631 
L 194.853506 38.251631 
L 196.068045 38.251631 
L 197.282583 38.251631 
L 198.497121 38.251631 
L 199.711659 38.251631 
L 200.926198 38.251631 
L 202.140736 38.251631 
L 203.355274 38.251631 
L 204.569812 38.251631 
L 205.784351 38.251631 
L 206.998889 38.251631 
L 208.213427 38.251631 
L 209.427965 38.251631 
L 210.642503 38.251631 
L 211.857042 38.251631 
L 213.07158 38.251631 
L 214.286118 38.251631 
L 215.500656 38.251631 
L 216.715195 38.251631 
L 217.929733 38.251631 
L 219.144271 38.251631 
L 220.358809 38.251631 
L 221.573347 38.251631 
L 222.787886 38.251631 
L 224.002424 38.251631 
L 225.216962 38.251631 
L 226.4315 38.251631 
L 227.646039 38.251631 
L 228.860577 38.251631 
L 230.075115 38.251631 
L 231.289653 38.251631 
L 232.504191 38.251631 
L 233.71873 38.252043 
L 234.933268 38.251631 
L 236.147806 38.251631 
L 237.362344 38.251631 
L 238.576883 38.251631 
L 239.791421 38.251631 
L 241.005959 38.251631 
L 242.220497 38.251631 
L 243.435035 38.251631 
L 244.649574 38.251631 
L 245.864112 38.251631 
L 247.07865 38.251631 
L 248.293188 38.251631 
L 249.507727 38.251631 
L 250.722265 38.251631 
L 251.936803 38.251631 
L 253.151341 38.251631 
L 254.365879 38.251631 
L 255.580418 38.251631 
L 256.794956 38.251631 
L 258.009494 38.251631 
L 259.224032 38.251631 
L 260.438571 38.251631 
L 261.653109 38.251631 
L 262.867647 38.251631 
L 264.082185 38.251631 
L 265.296724 38.251631 
L 266.511262 38.252456 
L 267.7258 38.251631 
L 268.940338 38.251631 
L 270.154876 38.251631 
L 271.369415 38.251631 
L 272.583953 38.251631 
L 273.798491 38.251631 
L 275.013029 38.251631 
L 276.227568 38.251631 
L 277.442106 38.251631 
L 278.656644 38.252456 
L 279.871182 38.251631 
L 281.08572 38.251631 
L 282.300259 38.251631 
L 283.514797 38.251631 
L 284.729335 38.251631 
L 285.943873 38.251631 
L 287.158412 38.251631 
L 288.37295 38.251631 
L 289.587488 38.251631 
L 290.802026 38.251631 
L 292.016564 38.251631 
L 293.231103 38.251631 
L 294.445641 38.251631 
L 295.660179 38.251631 
L 296.874717 38.251631 
L 298.089256 38.251631 
L 299.303794 38.251631 
L 300.518332 38.251631 
L 301.73287 38.251631 
L 302.947408 38.252456 
L 304.161947 38.251631 
L 305.376485 38.251631 
L 306.591023 38.251631 
L 307.805561 38.251631 
L 309.0201 38.251631 
L 310.234638 38.251631 
L 311.449176 38.251631 
L 312.663714 38.251631 
L 313.878252 38.251631 
L 315.092791 38.251631 
L 316.307329 38.251631 
L 317.521867 38.251631 
L 318.736405 38.251631 
L 319.950944 38.251631 
L 321.165482 38.251631 
L 322.38002 38.251631 
L 323.594558 38.251631 
L 324.809097 38.251631 
L 326.023635 38.251631 
L 327.238173 38.251631 
L 328.452711 38.251631 
L 329.667249 38.251631 
L 330.881788 38.251631 
L 332.096326 38.251631 
L 333.310864 38.251631 
L 334.525402 38.251631 
L 335.739941 38.251631 
L 336.954479 38.251631 
L 338.169017 38.251631 
L 339.383555 38.251631 
L 340.598093 38.251631 
L 341.812632 38.251631 
L 343.02717 38.251631 
L 344.241708 38.251631 
L 345.456246 38.251631 
L 346.670785 38.251631 
L 347.885323 38.251631 
L 349.099861 38.251631 
L 350.314399 38.251631 
L 351.528937 38.251631 
L 352.743476 38.251631 
L 353.958014 38.251631 
L 355.172552 38.251631 
L 356.38709 38.251631 
L 357.601629 38.251631 
L 358.816167 38.251631 
L 360.030705 38.251631 
L 361.245243 38.251631 
L 362.459781 38.251631 
L 363.67432 38.251631 
L 364.888858 38.251631 
L 366.103396 38.251631 
L 367.317934 38.251631 
L 368.532473 38.251631 
L 369.747011 38.251631 
L 370.961549 38.251631 
L 372.176087 38.251631 
L 373.390625 38.251631 
L 374.605164 38.251631 
L 375.819702 38.251631 
L 377.03424 38.251631 
L 378.248778 38.251631 
L 379.463317 38.251631 
L 380.677855 38.251631 
L 381.892393 38.251631 
L 383.106931 38.251631 
L 384.32147 38.251631 
L 385.536008 38.251631 
L 386.750546 38.251631 
L 387.965084 38.251631 
L 389.179622 38.251631 
L 390.394161 38.251631 
L 391.608699 38.251631 
L 392.823237 38.251631 
L 394.037775 38.251631 
L 395.252314 38.251631 
L 396.466852 38.251631 
L 397.68139 38.251631 
L 398.895928 38.251631 
L 400.110466 38.251631 
L 401.325005 38.251631 
L 402.539543 38.251631 
L 403.754081 38.251631 
L 404.968619 38.251631 
L 406.183158 38.252456 
L 407.397696 38.251631 
L 408.612234 38.251631 
L 409.826772 38.251631 
L 411.04131 38.251631 
L 412.255849 38.251631 
L 413.470387 38.251631 
L 414.684925 38.251631 
L 415.899463 38.251631 
L 417.114002 38.251631 
L 418.32854 38.251631 
L 419.543078 38.251631 
L 420.757616 38.251631 
L 421.972154 38.251631 
L 423.186693 38.251631 
L 424.401231 38.251631 
L 425.615769 38.251631 
L 426.830307 38.251631 
L 428.044846 38.251631 
L 429.259384 38.251631 
L 430.473922 38.251631 
L 431.68846 38.251631 
L 432.902998 38.251631 
L 434.117537 38.251631 
L 435.332075 38.251631 
L 436.546613 38.251631 
L 437.761151 38.251631 
L 438.97569 38.251631 
L 440.190228 38.251631 
L 441.404766 38.251631 
L 442.619304 38.251631 
L 443.833842 38.251631 
L 445.048381 38.251631 
L 446.262919 38.251631 
L 447.477457 38.251631 
L 448.691995 38.251631 
L 449.906534 38.251631 
L 451.121072 38.251631 
L 452.33561 38.251631 
L 453.550148 38.251631 
L 454.764687 38.251631 
L 455.979225 38.251631 
L 457.193763 38.251631 
L 458.408301 38.251631 
L 459.622839 38.251631 
L 460.837378 38.251631 
L 462.051916 38.251631 
L 463.266454 38.251631 
L 464.480992 38.251631 
L 465.695531 38.251631 
L 466.910069 38.251631 
L 468.124607 38.251631 
L 469.339145 38.251631 
L 470.553683 38.251631 
L 471.768222 38.251631 
L 472.98276 38.251631 
L 474.197298 38.251631 
L 475.411836 38.251631 
L 476.626375 38.251631 
L 477.840913 38.251631 
L 479.055451 38.251631 
L 480.269989 38.251631 
L 481.484527 38.251631 
L 482.699066 38.251631 
L 483.913604 38.251631 
L 485.128142 38.251631 
L 486.34268 38.251631 
L 487.557219 38.251631 
L 488.771757 38.251631 
L 489.986295 38.251631 
L 491.200833 38.251631 
L 492.415371 38.251631 
L 493.62991 38.251631 
L 494.844448 38.251631 
L 496.058986 38.251631 
L 497.273524 38.251631 
L 498.488063 38.251631 
L 499.702601 38.251631 
L 500.917139 38.251631 
L 502.131677 38.251631 
L 503.346215 38.251631 
L 504.560754 38.251631 
L 505.775292 38.251631 
L 506.98983 38.251631 
L 508.204368 38.251631 
L 509.418907 38.251631 
L 510.633445 38.251631 
L 511.847983 38.251631 
L 513.062521 38.251631 
L 514.27706 38.251631 
L 515.491598 38.251631 
L 516.706136 38.251631 
L 517.920674 38.251631 
L 519.135212 38.251631 
L 520.349751 38.251631 
L 521.564289 38.251631 
L 522.778827 38.251631 
L 523.993365 38.251631 
L 525.207904 38.251631 
L 526.422442 38.252043 
L 527.63698 38.251631 
L 528.851518 38.251631 
L 530.066056 38.251631 
L 531.280595 38.251631 
L 532.495133 38.251631 
L 533.709671 38.251631 
L 534.924209 38.251631 
L 536.138748 38.251631 
L 537.353286 38.252456 
L 538.567824 38.251631 
L 539.782362 38.251631 
L 540.9969 38.251631 
L 542.211439 38.251631 
L 543.425977 38.251631 
L 544.640515 38.251631 
L 545.855053 38.251631 
L 547.069592 38.251631 
L 548.28413 38.251631 
L 549.498668 38.251631 
L 550.713206 38.251631 
L 551.927744 38.251631 
L 553.142283 38.251631 
L 554.356821 38.251631 
L 555.571359 38.251631 
L 556.785897 38.251631 
L 558.000436 38.251631 
L 559.214974 38.251631 
L 560.429512 38.251631 
L 561.64405 38.251631 
L 562.858588 38.251631 
L 564.073127 38.251631 
L 565.287665 38.251631 
L 566.502203 38.251631 
L 567.716741 38.251631 
L 568.93128 38.251631 
L 570.145818 38.251631 
L 571.360356 38.251631 
L 572.574894 38.251631 
L 573.789433 38.251631 
L 575.003971 38.251631 
L 576.218509 38.251631 
L 577.433047 38.251631 
L 578.647585 38.251631 
L 579.862124 38.251631 
L 581.076662 38.251631 
L 582.2912 38.251631 
L 583.505738 38.251631 
L 584.720277 38.251631 
L 585.934815 38.251631 
L 587.149353 38.251631 
L 588.363891 38.251631 
L 589.578429 38.251631 
L 590.792968 38.251631 
L 592.007506 38.251631 
L 593.222044 38.251631 
L 594.436582 38.251631 
L 595.651121 38.251631 
L 596.865659 38.251631 
L 598.080197 38.251631 
L 599.294735 38.251631 
L 600.509273 38.251631 
L 601.723812 38.251631 
L 602.93835 38.251631 
L 604.152888 38.251631 
L 605.367426 38.251631 
L 606.581965 38.251631 
L 607.796503 38.251631 
L 609.011041 38.251631 
L 610.225579 38.251631 
L 611.440117 38.251631 
L 612.654656 38.251631 
L 613.869194 38.251631 
L 615.083732 38.251631 
L 616.29827 38.251631 
L 617.512809 38.251631 
L 618.727347 38.251631 
L 619.941885 38.251631 
L 621.156423 38.251631 
L 622.370961 38.251631 
L 623.5855 38.251631 
L 624.800038 38.251631 
L 626.014576 38.251631 
L 627.229114 38.251631 
L 628.443653 38.251631 
L 629.658191 38.251631 
L 630.872729 38.251631 
L 632.087267 38.252456 
L 633.301805 38.251631 
L 634.516344 38.251631 
L 635.730882 38.251631 
L 636.94542 38.251631 
L 638.159958 38.251631 
L 639.374497 38.251631 
L 640.589035 38.251631 
L 641.803573 38.251631 
L 643.018111 38.251631 
L 644.23265 38.251631 
L 645.447188 38.251631 
L 646.661726 38.251631 
L 647.876264 38.251631 
L 649.090802 38.251631 
L 650.305341 38.251631 
L 651.519879 38.251631 
L 652.734417 38.251631 
L 653.948955 38.251631 
L 655.163494 38.251631 
L 656.378032 38.251631 
L 657.59257 38.251631 
L 658.807108 38.251631 
L 660.021646 38.251631 
L 661.236185 38.251631 
L 662.450723 38.251631 
L 663.665261 38.251631 
L 664.879799 38.251631 
L 666.094338 38.251631 
L 667.308876 38.251631 
L 668.523414 38.251631 
L 669.737952 38.251631 
L 670.95249 38.251631 
L 672.167029 38.251631 
L 673.381567 38.251631 
L 674.596105 38.251631 
L 675.810643 38.251631 
L 677.025182 38.251631 
L 677.025182 38.251631 
L 677.025182 38.251631 
L 675.810643 38.251631 
L 674.596105 38.251631 
L 673.381567 38.251631 
L 672.167029 38.251631 
L 670.95249 38.251631 
L 669.737952 38.251631 
L 668.523414 38.251631 
L 667.308876 38.251631 
L 666.094338 38.251631 
L 664.879799 38.251631 
L 663.665261 38.251631 
L 662.450723 38.251631 
L 661.236185 38.251631 
L 660.021646 38.251631 
L 658.807108 38.251631 
L 657.59257 38.251631 
L 656.378032 38.251631 
L 655.163494 38.251631 
L 653.948955 38.251631 
L 652.734417 38.251631 
L 651.519879 38.251631 
L 650.305341 38.251631 
L 649.090802 38.251631 
L 647.876264 38.251631 
L 646.661726 38.251631 
L 645.447188 38.251631 
L 644.23265 38.251631 
L 643.018111 38.251631 
L 641.803573 38.251631 
L 640.589035 38.251631 
L 639.374497 38.251631 
L 638.159958 38.251631 
L 636.94542 38.251631 
L 635.730882 38.251631 
L 634.516344 38.251631 
L 633.301805 38.251631 
L 632.087267 38.251489 
L 630.872729 38.251631 
L 629.658191 38.251631 
L 628.443653 38.251631 
L 627.229114 38.251631 
L 626.014576 38.251631 
L 624.800038 38.251631 
L 623.5855 38.251631 
L 622.370961 38.251631 
L 621.156423 38.251631 
L 619.941885 38.251631 
L 618.727347 38.251631 
L 617.512809 38.251631 
L 616.29827 38.251631 
L 615.083732 38.251631 
L 613.869194 38.251631 
L 612.654656 38.251631 
L 611.440117 38.251631 
L 610.225579 38.251631 
L 609.011041 38.251631 
L 607.796503 38.251631 
L 606.581965 38.251631 
L 605.367426 38.251631 
L 604.152888 38.251631 
L 602.93835 38.251631 
L 601.723812 38.251631 
L 600.509273 38.251631 
L 599.294735 38.251631 
L 598.080197 38.251631 
L 596.865659 38.251631 
L 595.651121 38.251631 
L 594.436582 38.251631 
L 593.222044 38.251631 
L 592.007506 38.251631 
L 590.792968 38.251631 
L 589.578429 38.251631 
L 588.363891 38.251631 
L 587.149353 38.251631 
L 585.934815 38.251631 
L 584.720277 38.251631 
L 583.505738 38.251631 
L 582.2912 38.251631 
L 581.076662 38.251631 
L 579.862124 38.251631 
L 578.647585 38.251631 
L 577.433047 38.251631 
L 576.218509 38.251631 
L 575.003971 38.251631 
L 573.789433 38.251631 
L 572.574894 38.251631 
L 571.360356 38.251631 
L 570.145818 38.251631 
L 568.93128 38.251631 
L 567.716741 38.251631 
L 566.502203 38.251631 
L 565.287665 38.251631 
L 564.073127 38.251631 
L 562.858588 38.251631 
L 561.64405 38.251631 
L 560.429512 38.251631 
L 559.214974 38.251631 
L 558.000436 38.251631 
L 556.785897 38.251631 
L 555.571359 38.251631 
L 554.356821 38.251631 
L 553.142283 38.251631 
L 551.927744 38.251631 
L 550.713206 38.251631 
L 549.498668 38.251631 
L 548.28413 38.251631 
L 547.069592 38.251631 
L 545.855053 38.251631 
L 544.640515 38.251631 
L 543.425977 38.251631 
L 542.211439 38.251631 
L 540.9969 38.251631 
L 539.782362 38.251631 
L 538.567824 38.251631 
L 537.353286 38.251489 
L 536.138748 38.251631 
L 534.924209 38.251631 
L 533.709671 38.251631 
L 532.495133 38.251631 
L 531.280595 38.251631 
L 530.066056 38.251631 
L 528.851518 38.251631 
L 527.63698 38.251631 
L 526.422442 38.25156 
L 525.207904 38.251631 
L 523.993365 38.251631 
L 522.778827 38.251631 
L 521.564289 38.251631 
L 520.349751 38.251631 
L 519.135212 38.251631 
L 517.920674 38.251631 
L 516.706136 38.251631 
L 515.491598 38.251631 
L 514.27706 38.251631 
L 513.062521 38.251631 
L 511.847983 38.251631 
L 510.633445 38.251631 
L 509.418907 38.251631 
L 508.204368 38.251631 
L 506.98983 38.251631 
L 505.775292 38.251631 
L 504.560754 38.251631 
L 503.346215 38.251631 
L 502.131677 38.251631 
L 500.917139 38.251631 
L 499.702601 38.251631 
L 498.488063 38.251631 
L 497.273524 38.251631 
L 496.058986 38.251631 
L 494.844448 38.251631 
L 493.62991 38.251631 
L 492.415371 38.251631 
L 491.200833 38.251631 
L 489.986295 38.251631 
L 488.771757 38.251631 
L 487.557219 38.251631 
L 486.34268 38.251631 
L 485.128142 38.251631 
L 483.913604 38.251631 
L 482.699066 38.251631 
L 481.484527 38.251631 
L 480.269989 38.251631 
L 479.055451 38.251631 
L 477.840913 38.251631 
L 476.626375 38.251631 
L 475.411836 38.251631 
L 474.197298 38.251631 
L 472.98276 38.251631 
L 471.768222 38.251631 
L 470.553683 38.251631 
L 469.339145 38.251631 
L 468.124607 38.251631 
L 466.910069 38.251631 
L 465.695531 38.251631 
L 464.480992 38.251631 
L 463.266454 38.251631 
L 462.051916 38.251631 
L 460.837378 38.251631 
L 459.622839 38.251631 
L 458.408301 38.251631 
L 457.193763 38.251631 
L 455.979225 38.251631 
L 454.764687 38.251631 
L 453.550148 38.251631 
L 452.33561 38.251631 
L 451.121072 38.251631 
L 449.906534 38.251631 
L 448.691995 38.251631 
L 447.477457 38.251631 
L 446.262919 38.251631 
L 445.048381 38.251631 
L 443.833842 38.251631 
L 442.619304 38.251631 
L 441.404766 38.251631 
L 440.190228 38.251631 
L 438.97569 38.251631 
L 437.761151 38.251631 
L 436.546613 38.251631 
L 435.332075 38.251631 
L 434.117537 38.251631 
L 432.902998 38.251631 
L 431.68846 38.251631 
L 430.473922 38.251631 
L 429.259384 38.251631 
L 428.044846 38.251631 
L 426.830307 38.251631 
L 425.615769 38.251631 
L 424.401231 38.251631 
L 423.186693 38.251631 
L 421.972154 38.251631 
L 420.757616 38.251631 
L 419.543078 38.251631 
L 418.32854 38.251631 
L 417.114002 38.251631 
L 415.899463 38.251631 
L 414.684925 38.251631 
L 413.470387 38.251631 
L 412.255849 38.251631 
L 411.04131 38.251631 
L 409.826772 38.251631 
L 408.612234 38.251631 
L 407.397696 38.251631 
L 406.183158 38.251489 
L 404.968619 38.251631 
L 403.754081 38.251631 
L 402.539543 38.251631 
L 401.325005 38.251631 
L 400.110466 38.251631 
L 398.895928 38.251631 
L 397.68139 38.251631 
L 396.466852 38.251631 
L 395.252314 38.251631 
L 394.037775 38.251631 
L 392.823237 38.251631 
L 391.608699 38.251631 
L 390.394161 38.251631 
L 389.179622 38.251631 
L 387.965084 38.251631 
L 386.750546 38.251631 
L 385.536008 38.251631 
L 384.32147 38.251631 
L 383.106931 38.251631 
L 381.892393 38.251631 
L 380.677855 38.251631 
L 379.463317 38.251631 
L 378.248778 38.251631 
L 377.03424 38.251631 
L 375.819702 38.251631 
L 374.605164 38.251631 
L 373.390625 38.251631 
L 372.176087 38.251631 
L 370.961549 38.251631 
L 369.747011 38.251631 
L 368.532473 38.251631 
L 367.317934 38.251631 
L 366.103396 38.251631 
L 364.888858 38.251631 
L 363.67432 38.251631 
L 362.459781 38.251631 
L 361.245243 38.251631 
L 360.030705 38.251631 
L 358.816167 38.251631 
L 357.601629 38.251631 
L 356.38709 38.251631 
L 355.172552 38.251631 
L 353.958014 38.251631 
L 352.743476 38.251631 
L 351.528937 38.251631 
L 350.314399 38.251631 
L 349.099861 38.251631 
L 347.885323 38.251631 
L 346.670785 38.251631 
L 345.456246 38.251631 
L 344.241708 38.251631 
L 343.02717 38.251631 
L 341.812632 38.251631 
L 340.598093 38.251631 
L 339.383555 38.251631 
L 338.169017 38.251631 
L 336.954479 38.251631 
L 335.739941 38.251631 
L 334.525402 38.251631 
L 333.310864 38.251631 
L 332.096326 38.251631 
L 330.881788 38.251631 
L 329.667249 38.251631 
L 328.452711 38.251631 
L 327.238173 38.251631 
L 326.023635 38.251631 
L 324.809097 38.251631 
L 323.594558 38.251631 
L 322.38002 38.251631 
L 321.165482 38.251631 
L 319.950944 38.251631 
L 318.736405 38.251631 
L 317.521867 38.251631 
L 316.307329 38.251631 
L 315.092791 38.251631 
L 313.878252 38.251631 
L 312.663714 38.251631 
L 311.449176 38.251631 
L 310.234638 38.251631 
L 309.0201 38.251631 
L 307.805561 38.251631 
L 306.591023 38.251631 
L 305.376485 38.251631 
L 304.161947 38.251631 
L 302.947408 38.251489 
L 301.73287 38.251631 
L 300.518332 38.251631 
L 299.303794 38.251631 
L 298.089256 38.251631 
L 296.874717 38.251631 
L 295.660179 38.251631 
L 294.445641 38.251631 
L 293.231103 38.251631 
L 292.016564 38.251631 
L 290.802026 38.251631 
L 289.587488 38.251631 
L 288.37295 38.251631 
L 287.158412 38.251631 
L 285.943873 38.251631 
L 284.729335 38.251631 
L 283.514797 38.251631 
L 282.300259 38.251631 
L 281.08572 38.251631 
L 279.871182 38.251631 
L 278.656644 38.251489 
L 277.442106 38.251631 
L 276.227568 38.251631 
L 275.013029 38.251631 
L 273.798491 38.251631 
L 272.583953 38.251631 
L 271.369415 38.251631 
L 270.154876 38.251631 
L 268.940338 38.251631 
L 267.7258 38.251631 
L 266.511262 38.251489 
L 265.296724 38.251631 
L 264.082185 38.251631 
L 262.867647 38.251631 
L 261.653109 38.251631 
L 260.438571 38.251631 
L 259.224032 38.251631 
L 258.009494 38.251631 
L 256.794956 38.251631 
L 255.580418 38.251631 
L 254.365879 38.251631 
L 253.151341 38.251631 
L 251.936803 38.251631 
L 250.722265 38.251631 
L 249.507727 38.251631 
L 248.293188 38.251631 
L 247.07865 38.251631 
L 245.864112 38.251631 
L 244.649574 38.251631 
L 243.435035 38.251631 
L 242.220497 38.251631 
L 241.005959 38.251631 
L 239.791421 38.251631 
L 238.576883 38.251631 
L 237.362344 38.251631 
L 236.147806 38.251631 
L 234.933268 38.251631 
L 233.71873 38.25156 
L 232.504191 38.251631 
L 231.289653 38.251631 
L 230.075115 38.251631 
L 228.860577 38.251631 
L 227.646039 38.251631 
L 226.4315 38.251631 
L 225.216962 38.251631 
L 224.002424 38.251631 
L 222.787886 38.251631 
L 221.573347 38.251631 
L 220.358809 38.251631 
L 219.144271 38.251631 
L 217.929733 38.251631 
L 216.715195 38.251631 
L 215.500656 38.251631 
L 214.286118 38.251631 
L 213.07158 38.251631 
L 211.857042 38.251631 
L 210.642503 38.251631 
L 209.427965 38.251631 
L 208.213427 38.251631 
L 206.998889 38.251631 
L 205.784351 38.251631 
L 204.569812 38.251631 
L 203.355274 38.251631 
L 202.140736 38.251631 
L 200.926198 38.251631 
L 199.711659 38.251631 
L 198.497121 38.251631 
L 197.282583 38.251631 
L 196.068045 38.251631 
L 194.853506 38.251631 
L 193.638968 38.251631 
L 192.42443 38.251631 
L 191.209892 38.251631 
L 189.995354 38.251631 
L 188.780815 38.251631 
L 187.566277 38.251631 
L 186.351739 38.251631 
L 185.137201 38.251631 
L 183.922662 38.251489 
L 182.708124 38.251631 
L 181.493586 38.251631 
L 180.279048 38.251631 
L 179.06451 38.251631 
L 177.849971 38.251631 
L 176.635433 38.251631 
L 175.420895 38.251631 
L 174.206357 38.251631 
L 172.991818 38.251631 
L 171.77728 38.251631 
L 170.562742 38.251631 
L 169.348204 38.251489 
L 168.133666 38.251631 
L 166.919127 38.251631 
L 165.704589 38.251489 
L 164.490051 38.25156 
L 163.275513 38.251631 
L 162.060974 38.251631 
L 160.846436 38.251631 
L 159.631898 38.251631 
L 158.41736 38.251631 
L 157.202822 38.251631 
L 155.988283 38.251631 
L 154.773745 38.251631 
L 153.559207 38.251489 
L 152.344669 38.251631 
L 151.13013 38.251631 
L 149.915592 38.25156 
L 148.701054 38.251631 
L 147.486516 38.251631 
L 146.271978 38.251489 
L 145.057439 38.251489 
L 143.842901 38.251631 
L 142.628363 38.251631 
L 141.413825 38.251631 
L 140.199286 38.251631 
L 138.984748 38.251489 
L 137.77021 38.25156 
L 136.555672 38.251631 
L 135.341134 38.251631 
L 134.126595 38.251631 
L 132.912057 38.251631 
L 131.697519 38.251631 
L 130.482981 38.251631 
L 129.268442 38.251489 
L 128.053904 38.251631 
L 126.839366 38.251631 
L 125.624828 38.251631 
L 124.410289 38.251631 
L 123.195751 38.251631 
L 121.981213 38.251631 
L 120.766675 38.25156 
L 119.552137 38.251631 
L 118.337598 38.251489 
L 117.12306 38.251631 
L 115.908522 38.251631 
L 114.693984 38.251631 
L 113.479445 38.251489 
L 112.264907 38.251631 
L 111.050369 38.251631 
L 109.835831 38.251631 
L 108.621293 38.251419 
L 107.406754 38.251489 
L 106.192216 38.251207 
L 104.977678 38.251419 
L 103.76314 38.251631 
L 102.548601 38.251631 
L 101.334063 38.251419 
L 100.119525 38.251419 
L 98.904987 38.250994 
L 97.690449 38.251065 
L 96.47591 38.251277 
L 95.261372 38.250994 
L 94.046834 38.250853 
L 92.832296 38.250782 
L 91.617757 38.249591 
L 90.403219 38.248199 
L 89.188681 38.24538 
L 87.974143 38.245894 
L 86.759605 37.100452 
L 85.545066 35.94973 
L 84.330528 28.902948 
L 83.11599 28.038182 
L 81.901452 35.778847 
L 80.686913 92.312128 
z
" clip-path="url(#p81d85f0327)" style="fill: #1f77b4; fill-opacity: 0.2"/>
   </g>
   <g id="matplotlib.axis_1">
    <g id="xtick_1">
     <g id="line2d_1">
      <path d="M 80.073572 390.04 
L 80.073572 10.8 
" clip-path="url(#p81d85f0327)" style="fill: none; stroke: #b0b0b0; stroke-width: 0.8; stroke-linecap: square"/>
     </g>
     <g id="line2d_2">
      <defs>
       <path id="m178d501b7d" d="M 0 0 
L 0 3.5 
" style="stroke: #000000; stroke-width: 0.8"/>
      </defs>
      <g>
       <use xlink:href="#m178d501b7d" x="80.073572" y="390.04" style="stroke: #000000; stroke-width: 0.8"/>
      </g>
     </g>
     <g id="text_1">
      <!-- 0 -->
      <g transform="translate(76.892322 404.638438) scale(0.1 -0.1)">
       <defs>
        <path id="DejaVuSans-30" d="M 2034 4250 
Q 1547 4250 1301 3770 
Q 1056 3291 1056 2328 
Q 1056 1369 1301 889 
Q 1547 409 2034 409 
Q 2525 409 2770 889 
Q 3016 1369 3016 2328 
Q 3016 3291 2770 3770 
Q 2525 4250 2034 4250 
z
M 2034 4750 
Q 2819 4750 3233 4129 
Q 3647 3509 3647 2328 
Q 3647 1150 3233 529 
Q 2819 -91 2034 -91 
Q 1250 -91 836 529 
Q 422 1150 422 2328 
Q 422 3509 836 4129 
Q 1250 4750 2034 4750 
z
" transform="scale(0.015625)"/>
       </defs>
       <use xlink:href="#DejaVuSans-30"/>
      </g>
     </g>
    </g>
    <g id="xtick_2">
     <g id="line2d_3">
      <path d="M 201.527394 390.04 
L 201.527394 10.8 
" clip-path="url(#p81d85f0327)" style="fill: none; stroke: #b0b0b0; stroke-width: 0.8; stroke-linecap: square"/>
     </g>
     <g id="line2d_4">
      <g>
       <use xlink:href="#m178d501b7d" x="201.527394" y="390.04" style="stroke: #000000; stroke-width: 0.8"/>
      </g>
     </g>
     <g id="text_2">
      <!-- 20000 -->
      <g transform="translate(185.621144 404.638438) scale(0.1 -0.1)">
       <defs>
        <path id="DejaVuSans-32" d="M 1228 531 
L 3431 531 
L 3431 0 
L 469 0 
L 469 531 
Q 828 903 1448 1529 
Q 2069 2156 2228 2338 
Q 2531 2678 2651 2914 
Q 2772 3150 2772 3378 
Q 2772 3750 2511 3984 
Q 2250 4219 1831 4219 
Q 1534 4219 1204 4116 
Q 875 4013 500 3803 
L 500 4441 
Q 881 4594 1212 4672 
Q 1544 4750 1819 4750 
Q 2544 4750 2975 4387 
Q 3406 4025 3406 3419 
Q 3406 3131 3298 2873 
Q 3191 2616 2906 2266 
Q 2828 2175 2409 1742 
Q 1991 1309 1228 531 
z
" transform="scale(0.015625)"/>
       </defs>
       <use xlink:href="#DejaVuSans-32"/>
       <use xlink:href="#DejaVuSans-30" transform="translate(63.623047 0)"/>
       <use xlink:href="#DejaVuSans-30" transform="translate(127.246094 0)"/>
       <use xlink:href="#DejaVuSans-30" transform="translate(190.869141 0)"/>
       <use xlink:href="#DejaVuSans-30" transform="translate(254.492188 0)"/>
      </g>
     </g>
    </g>
    <g id="xtick_3">
     <g id="line2d_5">
      <path d="M 322.981216 390.04 
L 322.981216 10.8 
" clip-path="url(#p81d85f0327)" style="fill: none; stroke: #b0b0b0; stroke-width: 0.8; stroke-linecap: square"/>
     </g>
     <g id="line2d_6">
      <g>
       <use xlink:href="#m178d501b7d" x="322.981216" y="390.04" style="stroke: #000000; stroke-width: 0.8"/>
      </g>
     </g>
     <g id="text_3">
      <!-- 40000 -->
      <g transform="translate(307.074966 404.638438) scale(0.1 -0.1)">
       <defs>
        <path id="DejaVuSans-34" d="M 2419 4116 
L 825 1625 
L 2419 1625 
L 2419 4116 
z
M 2253 4666 
L 3047 4666 
L 3047 1625 
L 3713 1625 
L 3713 1100 
L 3047 1100 
L 3047 0 
L 2419 0 
L 2419 1100 
L 313 1100 
L 313 1709 
L 2253 4666 
z
" transform="scale(0.015625)"/>
       </defs>
       <use xlink:href="#DejaVuSans-34"/>
       <use xlink:href="#DejaVuSans-30" transform="translate(63.623047 0)"/>
       <use xlink:href="#DejaVuSans-30" transform="translate(127.246094 0)"/>
       <use xlink:href="#DejaVuSans-30" transform="translate(190.869141 0)"/>
       <use xlink:href="#DejaVuSans-30" transform="translate(254.492188 0)"/>
      </g>
     </g>
    </g>
    <g id="xtick_4">
     <g id="line2d_7">
      <path d="M 444.435039 390.04 
L 444.435039 10.8 
" clip-path="url(#p81d85f0327)" style="fill: none; stroke: #b0b0b0; stroke-width: 0.8; stroke-linecap: square"/>
     </g>
     <g id="line2d_8">
      <g>
       <use xlink:href="#m178d501b7d" x="444.435039" y="390.04" style="stroke: #000000; stroke-width: 0.8"/>
      </g>
     </g>
     <g id="text_4">
      <!-- 60000 -->
      <g transform="translate(428.528789 404.638438) scale(0.1 -0.1)">
       <defs>
        <path id="DejaVuSans-36" d="M 2113 2584 
Q 1688 2584 1439 2293 
Q 1191 2003 1191 1497 
Q 1191 994 1439 701 
Q 1688 409 2113 409 
Q 2538 409 2786 701 
Q 3034 994 3034 1497 
Q 3034 2003 2786 2293 
Q 2538 2584 2113 2584 
z
M 3366 4563 
L 3366 3988 
Q 3128 4100 2886 4159 
Q 2644 4219 2406 4219 
Q 1781 4219 1451 3797 
Q 1122 3375 1075 2522 
Q 1259 2794 1537 2939 
Q 1816 3084 2150 3084 
Q 2853 3084 3261 2657 
Q 3669 2231 3669 1497 
Q 3669 778 3244 343 
Q 2819 -91 2113 -91 
Q 1303 -91 875 529 
Q 447 1150 447 2328 
Q 447 3434 972 4092 
Q 1497 4750 2381 4750 
Q 2619 4750 2861 4703 
Q 3103 4656 3366 4563 
z
" transform="scale(0.015625)"/>
       </defs>
       <use xlink:href="#DejaVuSans-36"/>
       <use xlink:href="#DejaVuSans-30" transform="translate(63.623047 0)"/>
       <use xlink:href="#DejaVuSans-30" transform="translate(127.246094 0)"/>
       <use xlink:href="#DejaVuSans-30" transform="translate(190.869141 0)"/>
       <use xlink:href="#DejaVuSans-30" transform="translate(254.492188 0)"/>
      </g>
     </g>
    </g>
    <g id="xtick_5">
     <g id="line2d_9">
      <path d="M 565.888861 390.04 
L 565.888861 10.8 
" clip-path="url(#p81d85f0327)" style="fill: none; stroke: #b0b0b0; stroke-width: 0.8; stroke-linecap: square"/>
     </g>
     <g id="line2d_10">
      <g>
       <use xlink:href="#m178d501b7d" x="565.888861" y="390.04" style="stroke: #000000; stroke-width: 0.8"/>
      </g>
     </g>
     <g id="text_5">
      <!-- 80000 -->
      <g transform="translate(549.982611 404.638438) scale(0.1 -0.1)">
       <defs>
        <path id="DejaVuSans-38" d="M 2034 2216 
Q 1584 2216 1326 1975 
Q 1069 1734 1069 1313 
Q 1069 891 1326 650 
Q 1584 409 2034 409 
Q 2484 409 2743 651 
Q 3003 894 3003 1313 
Q 3003 1734 2745 1975 
Q 2488 2216 2034 2216 
z
M 1403 2484 
Q 997 2584 770 2862 
Q 544 3141 544 3541 
Q 544 4100 942 4425 
Q 1341 4750 2034 4750 
Q 2731 4750 3128 4425 
Q 3525 4100 3525 3541 
Q 3525 3141 3298 2862 
Q 3072 2584 2669 2484 
Q 3125 2378 3379 2068 
Q 3634 1759 3634 1313 
Q 3634 634 3220 271 
Q 2806 -91 2034 -91 
Q 1263 -91 848 271 
Q 434 634 434 1313 
Q 434 1759 690 2068 
Q 947 2378 1403 2484 
z
M 1172 3481 
Q 1172 3119 1398 2916 
Q 1625 2713 2034 2713 
Q 2441 2713 2670 2916 
Q 2900 3119 2900 3481 
Q 2900 3844 2670 4047 
Q 2441 4250 2034 4250 
Q 1625 4250 1398 4047 
Q 1172 3844 1172 3481 
z
" transform="scale(0.015625)"/>
       </defs>
       <use xlink:href="#DejaVuSans-38"/>
       <use xlink:href="#DejaVuSans-30" transform="translate(63.623047 0)"/>
       <use xlink:href="#DejaVuSans-30" transform="translate(127.246094 0)"/>
       <use xlink:href="#DejaVuSans-30" transform="translate(190.869141 0)"/>
       <use xlink:href="#DejaVuSans-30" transform="translate(254.492188 0)"/>
      </g>
     </g>
    </g>
    <g id="xtick_6">
     <g id="line2d_11">
      <path d="M 687.342684 390.04 
L 687.342684 10.8 
" clip-path="url(#p81d85f0327)" style="fill: none; stroke: #b0b0b0; stroke-width: 0.8; stroke-linecap: square"/>
     </g>
     <g id="line2d_12">
      <g>
       <use xlink:href="#m178d501b7d" x="687.342684" y="390.04" style="stroke: #000000; stroke-width: 0.8"/>
      </g>
     </g>
     <g id="text_6">
      <!-- 100000 -->
      <g transform="translate(668.255184 404.638438) scale(0.1 -0.1)">
       <defs>
        <path id="DejaVuSans-31" d="M 794 531 
L 1825 531 
L 1825 4091 
L 703 3866 
L 703 4441 
L 1819 4666 
L 2450 4666 
L 2450 531 
L 3481 531 
L 3481 0 
L 794 0 
L 794 531 
z
" transform="scale(0.015625)"/>
       </defs>
       <use xlink:href="#DejaVuSans-31"/>
       <use xlink:href="#DejaVuSans-30" transform="translate(63.623047 0)"/>
       <use xlink:href="#DejaVuSans-30" transform="translate(127.246094 0)"/>
       <use xlink:href="#DejaVuSans-30" transform="translate(190.869141 0)"/>
       <use xlink:href="#DejaVuSans-30" transform="translate(254.492188 0)"/>
       <use xlink:href="#DejaVuSans-30" transform="translate(318.115234 0)"/>
      </g>
     </g>
    </g>
    <g id="text_7">
     <!-- Episodes -->
     <g transform="translate(356.61386 418.316562) scale(0.1 -0.1)">
      <defs>
       <path id="DejaVuSans-45" d="M 628 4666 
L 3578 4666 
L 3578 4134 
L 1259 4134 
L 1259 2753 
L 3481 2753 
L 3481 2222 
L 1259 2222 
L 1259 531 
L 3634 531 
L 3634 0 
L 628 0 
L 628 4666 
z
" transform="scale(0.015625)"/>
       <path id="DejaVuSans-70" d="M 1159 525 
L 1159 -1331 
L 581 -1331 
L 581 3500 
L 1159 3500 
L 1159 2969 
Q 1341 3281 1617 3432 
Q 1894 3584 2278 3584 
Q 2916 3584 3314 3078 
Q 3713 2572 3713 1747 
Q 3713 922 3314 415 
Q 2916 -91 2278 -91 
Q 1894 -91 1617 61 
Q 1341 213 1159 525 
z
M 3116 1747 
Q 3116 2381 2855 2742 
Q 2594 3103 2138 3103 
Q 1681 3103 1420 2742 
Q 1159 2381 1159 1747 
Q 1159 1113 1420 752 
Q 1681 391 2138 391 
Q 2594 391 2855 752 
Q 3116 1113 3116 1747 
z
" transform="scale(0.015625)"/>
       <path id="DejaVuSans-69" d="M 603 3500 
L 1178 3500 
L 1178 0 
L 603 0 
L 603 3500 
z
M 603 4863 
L 1178 4863 
L 1178 4134 
L 603 4134 
L 603 4863 
z
" transform="scale(0.015625)"/>
       <path id="DejaVuSans-73" d="M 2834 3397 
L 2834 2853 
Q 2591 2978 2328 3040 
Q 2066 3103 1784 3103 
Q 1356 3103 1142 2972 
Q 928 2841 928 2578 
Q 928 2378 1081 2264 
Q 1234 2150 1697 2047 
L 1894 2003 
Q 2506 1872 2764 1633 
Q 3022 1394 3022 966 
Q 3022 478 2636 193 
Q 2250 -91 1575 -91 
Q 1294 -91 989 -36 
Q 684 19 347 128 
L 347 722 
Q 666 556 975 473 
Q 1284 391 1588 391 
Q 1994 391 2212 530 
Q 2431 669 2431 922 
Q 2431 1156 2273 1281 
Q 2116 1406 1581 1522 
L 1381 1569 
Q 847 1681 609 1914 
Q 372 2147 372 2553 
Q 372 3047 722 3315 
Q 1072 3584 1716 3584 
Q 2034 3584 2315 3537 
Q 2597 3491 2834 3397 
z
" transform="scale(0.015625)"/>
       <path id="DejaVuSans-6f" d="M 1959 3097 
Q 1497 3097 1228 2736 
Q 959 2375 959 1747 
Q 959 1119 1226 758 
Q 1494 397 1959 397 
Q 2419 397 2687 759 
Q 2956 1122 2956 1747 
Q 2956 2369 2687 2733 
Q 2419 3097 1959 3097 
z
M 1959 3584 
Q 2709 3584 3137 3096 
Q 3566 2609 3566 1747 
Q 3566 888 3137 398 
Q 2709 -91 1959 -91 
Q 1206 -91 779 398 
Q 353 888 353 1747 
Q 353 2609 779 3096 
Q 1206 3584 1959 3584 
z
" transform="scale(0.015625)"/>
       <path id="DejaVuSans-64" d="M 2906 2969 
L 2906 4863 
L 3481 4863 
L 3481 0 
L 2906 0 
L 2906 525 
Q 2725 213 2448 61 
Q 2172 -91 1784 -91 
Q 1150 -91 751 415 
Q 353 922 353 1747 
Q 353 2572 751 3078 
Q 1150 3584 1784 3584 
Q 2172 3584 2448 3432 
Q 2725 3281 2906 2969 
z
M 947 1747 
Q 947 1113 1208 752 
Q 1469 391 1925 391 
Q 2381 391 2643 752 
Q 2906 1113 2906 1747 
Q 2906 2381 2643 2742 
Q 2381 3103 1925 3103 
Q 1469 3103 1208 2742 
Q 947 2381 947 1747 
z
" transform="scale(0.015625)"/>
       <path id="DejaVuSans-65" d="M 3597 1894 
L 3597 1613 
L 953 1613 
Q 991 1019 1311 708 
Q 1631 397 2203 397 
Q 2534 397 2845 478 
Q 3156 559 3463 722 
L 3463 178 
Q 3153 47 2828 -22 
Q 2503 -91 2169 -91 
Q 1331 -91 842 396 
Q 353 884 353 1716 
Q 353 2575 817 3079 
Q 1281 3584 2069 3584 
Q 2775 3584 3186 3129 
Q 3597 2675 3597 1894 
z
M 3022 2063 
Q 3016 2534 2758 2815 
Q 2500 3097 2075 3097 
Q 1594 3097 1305 2825 
Q 1016 2553 972 2059 
L 3022 2063 
z
" transform="scale(0.015625)"/>
      </defs>
      <use xlink:href="#DejaVuSans-45"/>
      <use xlink:href="#DejaVuSans-70" transform="translate(63.183594 0)"/>
      <use xlink:href="#DejaVuSans-69" transform="translate(126.660156 0)"/>
      <use xlink:href="#DejaVuSans-73" transform="translate(154.443359 0)"/>
      <use xlink:href="#DejaVuSans-6f" transform="translate(206.542969 0)"/>
      <use xlink:href="#DejaVuSans-64" transform="translate(267.724609 0)"/>
      <use xlink:href="#DejaVuSans-65" transform="translate(331.201172 0)"/>
      <use xlink:href="#DejaVuSans-73" transform="translate(392.724609 0)"/>
     </g>
    </g>
   </g>
   <g id="matplotlib.axis_2">
    <g id="ytick_1">
     <g id="line2d_13">
      <path d="M 50.87 384.820275 
L 706.842095 384.820275 
" clip-path="url(#p81d85f0327)" style="fill: none; stroke: #b0b0b0; stroke-width: 0.8; stroke-linecap: square"/>
     </g>
     <g id="line2d_14">
      <defs>
       <path id="m782932e8b6" d="M 0 0 
L -3.5 0 
" style="stroke: #000000; stroke-width: 0.8"/>
      </defs>
      <g>
       <use xlink:href="#m782932e8b6" x="50.87" y="384.820275" style="stroke: #000000; stroke-width: 0.8"/>
      </g>
     </g>
     <g id="text_8">
      <!-- 20 -->
      <g transform="translate(31.145 388.619494) scale(0.1 -0.1)">
       <use xlink:href="#DejaVuSans-32"/>
       <use xlink:href="#DejaVuSans-30" transform="translate(63.623047 0)"/>
      </g>
     </g>
    </g>
    <g id="ytick_2">
     <g id="line2d_15">
      <path d="M 50.87 302.840702 
L 706.842095 302.840702 
" clip-path="url(#p81d85f0327)" style="fill: none; stroke: #b0b0b0; stroke-width: 0.8; stroke-linecap: square"/>
     </g>
     <g id="line2d_16">
      <g>
       <use xlink:href="#m782932e8b6" x="50.87" y="302.840702" style="stroke: #000000; stroke-width: 0.8"/>
      </g>
     </g>
     <g id="text_9">
      <!-- 40 -->
      <g transform="translate(31.145 306.639921) scale(0.1 -0.1)">
       <use xlink:href="#DejaVuSans-34"/>
       <use xlink:href="#DejaVuSans-30" transform="translate(63.623047 0)"/>
      </g>
     </g>
    </g>
    <g id="ytick_3">
     <g id="line2d_17">
      <path d="M 50.87 220.86113 
L 706.842095 220.86113 
" clip-path="url(#p81d85f0327)" style="fill: none; stroke: #b0b0b0; stroke-width: 0.8; stroke-linecap: square"/>
     </g>
     <g id="line2d_18">
      <g>
       <use xlink:href="#m782932e8b6" x="50.87" y="220.86113" style="stroke: #000000; stroke-width: 0.8"/>
      </g>
     </g>
     <g id="text_10">
      <!-- 60 -->
      <g transform="translate(31.145 224.660348) scale(0.1 -0.1)">
       <use xlink:href="#DejaVuSans-36"/>
       <use xlink:href="#DejaVuSans-30" transform="translate(63.623047 0)"/>
      </g>
     </g>
    </g>
    <g id="ytick_4">
     <g id="line2d_19">
      <path d="M 50.87 138.881557 
L 706.842095 138.881557 
" clip-path="url(#p81d85f0327)" style="fill: none; stroke: #b0b0b0; stroke-width: 0.8; stroke-linecap: square"/>
     </g>
     <g id="line2d_20">
      <g>
       <use xlink:href="#m782932e8b6" x="50.87" y="138.881557" style="stroke: #000000; stroke-width: 0.8"/>
      </g>
     </g>
     <g id="text_11">
      <!-- 80 -->
      <g transform="translate(31.145 142.680775) scale(0.1 -0.1)">
       <use xlink:href="#DejaVuSans-38"/>
       <use xlink:href="#DejaVuSans-30" transform="translate(63.623047 0)"/>
      </g>
     </g>
    </g>
    <g id="ytick_5">
     <g id="line2d_21">
      <path d="M 50.87 56.901984 
L 706.842095 56.901984 
" clip-path="url(#p81d85f0327)" style="fill: none; stroke: #b0b0b0; stroke-width: 0.8; stroke-linecap: square"/>
     </g>
     <g id="line2d_22">
      <g>
       <use xlink:href="#m782932e8b6" x="50.87" y="56.901984" style="stroke: #000000; stroke-width: 0.8"/>
      </g>
     </g>
     <g id="text_12">
      <!-- 100 -->
      <g transform="translate(24.7825 60.701203) scale(0.1 -0.1)">
       <use xlink:href="#DejaVuSans-31"/>
       <use xlink:href="#DejaVuSans-30" transform="translate(63.623047 0)"/>
       <use xlink:href="#DejaVuSans-30" transform="translate(127.246094 0)"/>
      </g>
     </g>
    </g>
    <g id="text_13">
     <!-- Reward -->
     <g transform="translate(18.702813 219.041094) rotate(-90) scale(0.1 -0.1)">
      <defs>
       <path id="DejaVuSans-52" d="M 2841 2188 
Q 3044 2119 3236 1894 
Q 3428 1669 3622 1275 
L 4263 0 
L 3584 0 
L 2988 1197 
Q 2756 1666 2539 1819 
Q 2322 1972 1947 1972 
L 1259 1972 
L 1259 0 
L 628 0 
L 628 4666 
L 2053 4666 
Q 2853 4666 3247 4331 
Q 3641 3997 3641 3322 
Q 3641 2881 3436 2590 
Q 3231 2300 2841 2188 
z
M 1259 4147 
L 1259 2491 
L 2053 2491 
Q 2509 2491 2742 2702 
Q 2975 2913 2975 3322 
Q 2975 3731 2742 3939 
Q 2509 4147 2053 4147 
L 1259 4147 
z
" transform="scale(0.015625)"/>
       <path id="DejaVuSans-77" d="M 269 3500 
L 844 3500 
L 1563 769 
L 2278 3500 
L 2956 3500 
L 3675 769 
L 4391 3500 
L 4966 3500 
L 4050 0 
L 3372 0 
L 2619 2869 
L 1863 0 
L 1184 0 
L 269 3500 
z
" transform="scale(0.015625)"/>
       <path id="DejaVuSans-61" d="M 2194 1759 
Q 1497 1759 1228 1600 
Q 959 1441 959 1056 
Q 959 750 1161 570 
Q 1363 391 1709 391 
Q 2188 391 2477 730 
Q 2766 1069 2766 1631 
L 2766 1759 
L 2194 1759 
z
M 3341 1997 
L 3341 0 
L 2766 0 
L 2766 531 
Q 2569 213 2275 61 
Q 1981 -91 1556 -91 
Q 1019 -91 701 211 
Q 384 513 384 1019 
Q 384 1609 779 1909 
Q 1175 2209 1959 2209 
L 2766 2209 
L 2766 2266 
Q 2766 2663 2505 2880 
Q 2244 3097 1772 3097 
Q 1472 3097 1187 3025 
Q 903 2953 641 2809 
L 641 3341 
Q 956 3463 1253 3523 
Q 1550 3584 1831 3584 
Q 2591 3584 2966 3190 
Q 3341 2797 3341 1997 
z
" transform="scale(0.015625)"/>
       <path id="DejaVuSans-72" d="M 2631 2963 
Q 2534 3019 2420 3045 
Q 2306 3072 2169 3072 
Q 1681 3072 1420 2755 
Q 1159 2438 1159 1844 
L 1159 0 
L 581 0 
L 581 3500 
L 1159 3500 
L 1159 2956 
Q 1341 3275 1631 3429 
Q 1922 3584 2338 3584 
Q 2397 3584 2469 3576 
Q 2541 3569 2628 3553 
L 2631 2963 
z
" transform="scale(0.015625)"/>
      </defs>
      <use xlink:href="#DejaVuSans-52"/>
      <use xlink:href="#DejaVuSans-65" transform="translate(64.982422 0)"/>
      <use xlink:href="#DejaVuSans-77" transform="translate(126.505859 0)"/>
      <use xlink:href="#DejaVuSans-61" transform="translate(208.292969 0)"/>
      <use xlink:href="#DejaVuSans-72" transform="translate(269.572266 0)"/>
      <use xlink:href="#DejaVuSans-64" transform="translate(308.935547 0)"/>
     </g>
    </g>
   </g>
   <g id="line2d_23">
    <path d="M 80.686913 232.556973 
L 81.901452 147.352255 
L 83.11599 82.411089 
L 85.545066 43.9308 
L 87.974143 38.284423 
L 101.334063 38.252143 
L 364.888858 38.251631 
L 677.025182 38.251631 
L 677.025182 38.251631 
" clip-path="url(#p81d85f0327)" style="fill: none; stroke: #1f77b4; stroke-width: 1.5; stroke-linecap: square"/>
   </g>
   <g id="patch_3">
    <path d="M 50.87 390.04 
L 50.87 10.8 
" style="fill: none; stroke: #000000; stroke-width: 0.8; stroke-linejoin: miter; stroke-linecap: square"/>
   </g>
   <g id="patch_4">
    <path d="M 706.842095 390.04 
L 706.842095 10.8 
" style="fill: none; stroke: #000000; stroke-width: 0.8; stroke-linejoin: miter; stroke-linecap: square"/>
   </g>
   <g id="patch_5">
    <path d="M 50.87 390.04 
L 706.842095 390.04 
" style="fill: none; stroke: #000000; stroke-width: 0.8; stroke-linejoin: miter; stroke-linecap: square"/>
   </g>
   <g id="patch_6">
    <path d="M 50.87 10.8 
L 706.842095 10.8 
" style="fill: none; stroke: #000000; stroke-width: 0.8; stroke-linejoin: miter; stroke-linecap: square"/>
   </g>
  </g>
 </g>
 <defs>
  <clipPath id="p81d85f0327">
   <rect x="50.87" y="10.8" width="655.972095" height="379.24"/>
  </clipPath>
 </defs>
</svg>
