<?xml version="1.0" encoding="utf-8" standalone="no"?>
<!DOCTYPE svg PUBLIC "-//W3C//DTD SVG 1.1//EN"
  "http://www.w3.org/Graphics/SVG/1.1/DTD/svg11.dtd">
<svg xmlns:xlink="http://www.w3.org/1999/xlink" width="720pt" height="432pt" viewBox="0 0 720 432" xmlns="http://www.w3.org/2000/svg" version="1.1">
 <metadata>
  <rdf:RDF xmlns:dc="http://purl.org/dc/elements/1.1/" xmlns:cc="http://creativecommons.org/ns#" xmlns:rdf="http://www.w3.org/1999/02/22-rdf-syntax-ns#">
   <cc:Work>
    <dc:type rdf:resource="http://purl.org/dc/dcmitype/StillImage"/>
    <dc:date>2025-04-25T10:11:51.738515</dc:date>
    <dc:format>image/svg+xml</dc:format>
    <dc:creator>
     <cc:Agent>
      <dc:title>Matplotlib v3.10.1, https://matplotlib.org/</dc:title>
     </cc:Agent>
    </dc:creator>
   </cc:Work>
  </rdf:RDF>
 </metadata>
 <defs>
  <style type="text/css">*{stroke-linejoin: round; stroke-linecap: butt}</style>
 </defs>
 <g id="figure_1">
  <g id="patch_1">
   <path d="M 0 432 
L 720 432 
L 720 0 
L 0 0 
z
" style="fill: #ffffff"/>
  </g>
  <g id="axes_1">
   <g id="patch_2">
    <path d="M 54.02 390.04 
L 709.2 390.04 
L 709.2 26.88 
L 54.02 26.88 
z
" style="fill: #ffffff"/>
   </g>
   <g id="matplotlib.axis_1">
    <g id="xtick_1">
     <g id="line2d_1">
      <path d="M 83.388078 390.04 
L 83.388078 26.88 
" clip-path="url(#p817a87f5a4)" style="fill: none; stroke: #b0b0b0; stroke-width: 0.8; stroke-linecap: square"/>
     </g>
     <g id="line2d_2">
      <defs>
       <path id="m30db917a85" d="M 0 0 
L 0 3.5 
" style="stroke: #000000; stroke-width: 0.8"/>
      </defs>
      <g>
       <use xlink:href="#m30db917a85" x="83.388078" y="390.04" style="stroke: #000000; stroke-width: 0.8"/>
      </g>
     </g>
     <g id="text_1">
      <!-- 0 -->
      <g transform="translate(80.206828 404.638438) scale(0.1 -0.1)">
       <defs>
        <path id="DejaVuSans-30" d="M 2034 4250 
Q 1547 4250 1301 3770 
Q 1056 3291 1056 2328 
Q 1056 1369 1301 889 
Q 1547 409 2034 409 
Q 2525 409 2770 889 
Q 3016 1369 3016 2328 
Q 3016 3291 2770 3770 
Q 2525 4250 2034 4250 
z
M 2034 4750 
Q 2819 4750 3233 4129 
Q 3647 3509 3647 2328 
Q 3647 1150 3233 529 
Q 2819 -91 2034 -91 
Q 1250 -91 836 529 
Q 422 1150 422 2328 
Q 422 3509 836 4129 
Q 1250 4750 2034 4750 
z
" transform="scale(0.015625)"/>
       </defs>
       <use xlink:href="#DejaVuSans-30"/>
      </g>
     </g>
    </g>
    <g id="xtick_2">
     <g id="line2d_3">
      <path d="M 192.027965 390.04 
L 192.027965 26.88 
" clip-path="url(#p817a87f5a4)" style="fill: none; stroke: #b0b0b0; stroke-width: 0.8; stroke-linecap: square"/>
     </g>
     <g id="line2d_4">
      <g>
       <use xlink:href="#m30db917a85" x="192.027965" y="390.04" style="stroke: #000000; stroke-width: 0.8"/>
      </g>
     </g>
     <g id="text_2">
      <!-- 10000 -->
      <g transform="translate(176.121715 404.638438) scale(0.1 -0.1)">
       <defs>
        <path id="DejaVuSans-31" d="M 794 531 
L 1825 531 
L 1825 4091 
L 703 3866 
L 703 4441 
L 1819 4666 
L 2450 4666 
L 2450 531 
L 3481 531 
L 3481 0 
L 794 0 
L 794 531 
z
" transform="scale(0.015625)"/>
       </defs>
       <use xlink:href="#DejaVuSans-31"/>
       <use xlink:href="#DejaVuSans-30" transform="translate(63.623047 0)"/>
       <use xlink:href="#DejaVuSans-30" transform="translate(127.246094 0)"/>
       <use xlink:href="#DejaVuSans-30" transform="translate(190.869141 0)"/>
       <use xlink:href="#DejaVuSans-30" transform="translate(254.492188 0)"/>
      </g>
     </g>
    </g>
    <g id="xtick_3">
     <g id="line2d_5">
      <path d="M 300.667852 390.04 
L 300.667852 26.88 
" clip-path="url(#p817a87f5a4)" style="fill: none; stroke: #b0b0b0; stroke-width: 0.8; stroke-linecap: square"/>
     </g>
     <g id="line2d_6">
      <g>
       <use xlink:href="#m30db917a85" x="300.667852" y="390.04" style="stroke: #000000; stroke-width: 0.8"/>
      </g>
     </g>
     <g id="text_3">
      <!-- 20000 -->
      <g transform="translate(284.761602 404.638438) scale(0.1 -0.1)">
       <defs>
        <path id="DejaVuSans-32" d="M 1228 531 
L 3431 531 
L 3431 0 
L 469 0 
L 469 531 
Q 828 903 1448 1529 
Q 2069 2156 2228 2338 
Q 2531 2678 2651 2914 
Q 2772 3150 2772 3378 
Q 2772 3750 2511 3984 
Q 2250 4219 1831 4219 
Q 1534 4219 1204 4116 
Q 875 4013 500 3803 
L 500 4441 
Q 881 4594 1212 4672 
Q 1544 4750 1819 4750 
Q 2544 4750 2975 4387 
Q 3406 4025 3406 3419 
Q 3406 3131 3298 2873 
Q 3191 2616 2906 2266 
Q 2828 2175 2409 1742 
Q 1991 1309 1228 531 
z
" transform="scale(0.015625)"/>
       </defs>
       <use xlink:href="#DejaVuSans-32"/>
       <use xlink:href="#DejaVuSans-30" transform="translate(63.623047 0)"/>
       <use xlink:href="#DejaVuSans-30" transform="translate(127.246094 0)"/>
       <use xlink:href="#DejaVuSans-30" transform="translate(190.869141 0)"/>
       <use xlink:href="#DejaVuSans-30" transform="translate(254.492188 0)"/>
      </g>
     </g>
    </g>
    <g id="xtick_4">
     <g id="line2d_7">
      <path d="M 409.307739 390.04 
L 409.307739 26.88 
" clip-path="url(#p817a87f5a4)" style="fill: none; stroke: #b0b0b0; stroke-width: 0.8; stroke-linecap: square"/>
     </g>
     <g id="line2d_8">
      <g>
       <use xlink:href="#m30db917a85" x="409.307739" y="390.04" style="stroke: #000000; stroke-width: 0.8"/>
      </g>
     </g>
     <g id="text_4">
      <!-- 30000 -->
      <g transform="translate(393.401489 404.638438) scale(0.1 -0.1)">
       <defs>
        <path id="DejaVuSans-33" d="M 2597 2516 
Q 3050 2419 3304 2112 
Q 3559 1806 3559 1356 
Q 3559 666 3084 287 
Q 2609 -91 1734 -91 
Q 1441 -91 1130 -33 
Q 819 25 488 141 
L 488 750 
Q 750 597 1062 519 
Q 1375 441 1716 441 
Q 2309 441 2620 675 
Q 2931 909 2931 1356 
Q 2931 1769 2642 2001 
Q 2353 2234 1838 2234 
L 1294 2234 
L 1294 2753 
L 1863 2753 
Q 2328 2753 2575 2939 
Q 2822 3125 2822 3475 
Q 2822 3834 2567 4026 
Q 2313 4219 1838 4219 
Q 1578 4219 1281 4162 
Q 984 4106 628 3988 
L 628 4550 
Q 988 4650 1302 4700 
Q 1616 4750 1894 4750 
Q 2613 4750 3031 4423 
Q 3450 4097 3450 3541 
Q 3450 3153 3228 2886 
Q 3006 2619 2597 2516 
z
" transform="scale(0.015625)"/>
       </defs>
       <use xlink:href="#DejaVuSans-33"/>
       <use xlink:href="#DejaVuSans-30" transform="translate(63.623047 0)"/>
       <use xlink:href="#DejaVuSans-30" transform="translate(127.246094 0)"/>
       <use xlink:href="#DejaVuSans-30" transform="translate(190.869141 0)"/>
       <use xlink:href="#DejaVuSans-30" transform="translate(254.492188 0)"/>
      </g>
     </g>
    </g>
    <g id="xtick_5">
     <g id="line2d_9">
      <path d="M 517.947626 390.04 
L 517.947626 26.88 
" clip-path="url(#p817a87f5a4)" style="fill: none; stroke: #b0b0b0; stroke-width: 0.8; stroke-linecap: square"/>
     </g>
     <g id="line2d_10">
      <g>
       <use xlink:href="#m30db917a85" x="517.947626" y="390.04" style="stroke: #000000; stroke-width: 0.8"/>
      </g>
     </g>
     <g id="text_5">
      <!-- 40000 -->
      <g transform="translate(502.041376 404.638438) scale(0.1 -0.1)">
       <defs>
        <path id="DejaVuSans-34" d="M 2419 4116 
L 825 1625 
L 2419 1625 
L 2419 4116 
z
M 2253 4666 
L 3047 4666 
L 3047 1625 
L 3713 1625 
L 3713 1100 
L 3047 1100 
L 3047 0 
L 2419 0 
L 2419 1100 
L 313 1100 
L 313 1709 
L 2253 4666 
z
" transform="scale(0.015625)"/>
       </defs>
       <use xlink:href="#DejaVuSans-34"/>
       <use xlink:href="#DejaVuSans-30" transform="translate(63.623047 0)"/>
       <use xlink:href="#DejaVuSans-30" transform="translate(127.246094 0)"/>
       <use xlink:href="#DejaVuSans-30" transform="translate(190.869141 0)"/>
       <use xlink:href="#DejaVuSans-30" transform="translate(254.492188 0)"/>
      </g>
     </g>
    </g>
    <g id="xtick_6">
     <g id="line2d_11">
      <path d="M 626.587514 390.04 
L 626.587514 26.88 
" clip-path="url(#p817a87f5a4)" style="fill: none; stroke: #b0b0b0; stroke-width: 0.8; stroke-linecap: square"/>
     </g>
     <g id="line2d_12">
      <g>
       <use xlink:href="#m30db917a85" x="626.587514" y="390.04" style="stroke: #000000; stroke-width: 0.8"/>
      </g>
     </g>
     <g id="text_6">
      <!-- 50000 -->
      <g transform="translate(610.681264 404.638438) scale(0.1 -0.1)">
       <defs>
        <path id="DejaVuSans-35" d="M 691 4666 
L 3169 4666 
L 3169 4134 
L 1269 4134 
L 1269 2991 
Q 1406 3038 1543 3061 
Q 1681 3084 1819 3084 
Q 2600 3084 3056 2656 
Q 3513 2228 3513 1497 
Q 3513 744 3044 326 
Q 2575 -91 1722 -91 
Q 1428 -91 1123 -41 
Q 819 9 494 109 
L 494 744 
Q 775 591 1075 516 
Q 1375 441 1709 441 
Q 2250 441 2565 725 
Q 2881 1009 2881 1497 
Q 2881 1984 2565 2268 
Q 2250 2553 1709 2553 
Q 1456 2553 1204 2497 
Q 953 2441 691 2322 
L 691 4666 
z
" transform="scale(0.015625)"/>
       </defs>
       <use xlink:href="#DejaVuSans-35"/>
       <use xlink:href="#DejaVuSans-30" transform="translate(63.623047 0)"/>
       <use xlink:href="#DejaVuSans-30" transform="translate(127.246094 0)"/>
       <use xlink:href="#DejaVuSans-30" transform="translate(190.869141 0)"/>
       <use xlink:href="#DejaVuSans-30" transform="translate(254.492188 0)"/>
      </g>
     </g>
    </g>
    <g id="text_7">
     <!-- Episode Number -->
     <g transform="translate(340.2975 418.316562) scale(0.1 -0.1)">
      <defs>
       <path id="DejaVuSans-45" d="M 628 4666 
L 3578 4666 
L 3578 4134 
L 1259 4134 
L 1259 2753 
L 3481 2753 
L 3481 2222 
L 1259 2222 
L 1259 531 
L 3634 531 
L 3634 0 
L 628 0 
L 628 4666 
z
" transform="scale(0.015625)"/>
       <path id="DejaVuSans-70" d="M 1159 525 
L 1159 -1331 
L 581 -1331 
L 581 3500 
L 1159 3500 
L 1159 2969 
Q 1341 3281 1617 3432 
Q 1894 3584 2278 3584 
Q 2916 3584 3314 3078 
Q 3713 2572 3713 1747 
Q 3713 922 3314 415 
Q 2916 -91 2278 -91 
Q 1894 -91 1617 61 
Q 1341 213 1159 525 
z
M 3116 1747 
Q 3116 2381 2855 2742 
Q 2594 3103 2138 3103 
Q 1681 3103 1420 2742 
Q 1159 2381 1159 1747 
Q 1159 1113 1420 752 
Q 1681 391 2138 391 
Q 2594 391 2855 752 
Q 3116 1113 3116 1747 
z
" transform="scale(0.015625)"/>
       <path id="DejaVuSans-69" d="M 603 3500 
L 1178 3500 
L 1178 0 
L 603 0 
L 603 3500 
z
M 603 4863 
L 1178 4863 
L 1178 4134 
L 603 4134 
L 603 4863 
z
" transform="scale(0.015625)"/>
       <path id="DejaVuSans-73" d="M 2834 3397 
L 2834 2853 
Q 2591 2978 2328 3040 
Q 2066 3103 1784 3103 
Q 1356 3103 1142 2972 
Q 928 2841 928 2578 
Q 928 2378 1081 2264 
Q 1234 2150 1697 2047 
L 1894 2003 
Q 2506 1872 2764 1633 
Q 3022 1394 3022 966 
Q 3022 478 2636 193 
Q 2250 -91 1575 -91 
Q 1294 -91 989 -36 
Q 684 19 347 128 
L 347 722 
Q 666 556 975 473 
Q 1284 391 1588 391 
Q 1994 391 2212 530 
Q 2431 669 2431 922 
Q 2431 1156 2273 1281 
Q 2116 1406 1581 1522 
L 1381 1569 
Q 847 1681 609 1914 
Q 372 2147 372 2553 
Q 372 3047 722 3315 
Q 1072 3584 1716 3584 
Q 2034 3584 2315 3537 
Q 2597 3491 2834 3397 
z
" transform="scale(0.015625)"/>
       <path id="DejaVuSans-6f" d="M 1959 3097 
Q 1497 3097 1228 2736 
Q 959 2375 959 1747 
Q 959 1119 1226 758 
Q 1494 397 1959 397 
Q 2419 397 2687 759 
Q 2956 1122 2956 1747 
Q 2956 2369 2687 2733 
Q 2419 3097 1959 3097 
z
M 1959 3584 
Q 2709 3584 3137 3096 
Q 3566 2609 3566 1747 
Q 3566 888 3137 398 
Q 2709 -91 1959 -91 
Q 1206 -91 779 398 
Q 353 888 353 1747 
Q 353 2609 779 3096 
Q 1206 3584 1959 3584 
z
" transform="scale(0.015625)"/>
       <path id="DejaVuSans-64" d="M 2906 2969 
L 2906 4863 
L 3481 4863 
L 3481 0 
L 2906 0 
L 2906 525 
Q 2725 213 2448 61 
Q 2172 -91 1784 -91 
Q 1150 -91 751 415 
Q 353 922 353 1747 
Q 353 2572 751 3078 
Q 1150 3584 1784 3584 
Q 2172 3584 2448 3432 
Q 2725 3281 2906 2969 
z
M 947 1747 
Q 947 1113 1208 752 
Q 1469 391 1925 391 
Q 2381 391 2643 752 
Q 2906 1113 2906 1747 
Q 2906 2381 2643 2742 
Q 2381 3103 1925 3103 
Q 1469 3103 1208 2742 
Q 947 2381 947 1747 
z
" transform="scale(0.015625)"/>
       <path id="DejaVuSans-65" d="M 3597 1894 
L 3597 1613 
L 953 1613 
Q 991 1019 1311 708 
Q 1631 397 2203 397 
Q 2534 397 2845 478 
Q 3156 559 3463 722 
L 3463 178 
Q 3153 47 2828 -22 
Q 2503 -91 2169 -91 
Q 1331 -91 842 396 
Q 353 884 353 1716 
Q 353 2575 817 3079 
Q 1281 3584 2069 3584 
Q 2775 3584 3186 3129 
Q 3597 2675 3597 1894 
z
M 3022 2063 
Q 3016 2534 2758 2815 
Q 2500 3097 2075 3097 
Q 1594 3097 1305 2825 
Q 1016 2553 972 2059 
L 3022 2063 
z
" transform="scale(0.015625)"/>
       <path id="DejaVuSans-20" transform="scale(0.015625)"/>
       <path id="DejaVuSans-4e" d="M 628 4666 
L 1478 4666 
L 3547 763 
L 3547 4666 
L 4159 4666 
L 4159 0 
L 3309 0 
L 1241 3903 
L 1241 0 
L 628 0 
L 628 4666 
z
" transform="scale(0.015625)"/>
       <path id="DejaVuSans-75" d="M 544 1381 
L 544 3500 
L 1119 3500 
L 1119 1403 
Q 1119 906 1312 657 
Q 1506 409 1894 409 
Q 2359 409 2629 706 
Q 2900 1003 2900 1516 
L 2900 3500 
L 3475 3500 
L 3475 0 
L 2900 0 
L 2900 538 
Q 2691 219 2414 64 
Q 2138 -91 1772 -91 
Q 1169 -91 856 284 
Q 544 659 544 1381 
z
M 1991 3584 
L 1991 3584 
z
" transform="scale(0.015625)"/>
       <path id="DejaVuSans-6d" d="M 3328 2828 
Q 3544 3216 3844 3400 
Q 4144 3584 4550 3584 
Q 5097 3584 5394 3201 
Q 5691 2819 5691 2113 
L 5691 0 
L 5113 0 
L 5113 2094 
Q 5113 2597 4934 2840 
Q 4756 3084 4391 3084 
Q 3944 3084 3684 2787 
Q 3425 2491 3425 1978 
L 3425 0 
L 2847 0 
L 2847 2094 
Q 2847 2600 2669 2842 
Q 2491 3084 2119 3084 
Q 1678 3084 1418 2786 
Q 1159 2488 1159 1978 
L 1159 0 
L 581 0 
L 581 3500 
L 1159 3500 
L 1159 2956 
Q 1356 3278 1631 3431 
Q 1906 3584 2284 3584 
Q 2666 3584 2933 3390 
Q 3200 3197 3328 2828 
z
" transform="scale(0.015625)"/>
       <path id="DejaVuSans-62" d="M 3116 1747 
Q 3116 2381 2855 2742 
Q 2594 3103 2138 3103 
Q 1681 3103 1420 2742 
Q 1159 2381 1159 1747 
Q 1159 1113 1420 752 
Q 1681 391 2138 391 
Q 2594 391 2855 752 
Q 3116 1113 3116 1747 
z
M 1159 2969 
Q 1341 3281 1617 3432 
Q 1894 3584 2278 3584 
Q 2916 3584 3314 3078 
Q 3713 2572 3713 1747 
Q 3713 922 3314 415 
Q 2916 -91 2278 -91 
Q 1894 -91 1617 61 
Q 1341 213 1159 525 
L 1159 0 
L 581 0 
L 581 4863 
L 1159 4863 
L 1159 2969 
z
" transform="scale(0.015625)"/>
       <path id="DejaVuSans-72" d="M 2631 2963 
Q 2534 3019 2420 3045 
Q 2306 3072 2169 3072 
Q 1681 3072 1420 2755 
Q 1159 2438 1159 1844 
L 1159 0 
L 581 0 
L 581 3500 
L 1159 3500 
L 1159 2956 
Q 1341 3275 1631 3429 
Q 1922 3584 2338 3584 
Q 2397 3584 2469 3576 
Q 2541 3569 2628 3553 
L 2631 2963 
z
" transform="scale(0.015625)"/>
      </defs>
      <use xlink:href="#DejaVuSans-45"/>
      <use xlink:href="#DejaVuSans-70" transform="translate(63.183594 0)"/>
      <use xlink:href="#DejaVuSans-69" transform="translate(126.660156 0)"/>
      <use xlink:href="#DejaVuSans-73" transform="translate(154.443359 0)"/>
      <use xlink:href="#DejaVuSans-6f" transform="translate(206.542969 0)"/>
      <use xlink:href="#DejaVuSans-64" transform="translate(267.724609 0)"/>
      <use xlink:href="#DejaVuSans-65" transform="translate(331.201172 0)"/>
      <use xlink:href="#DejaVuSans-20" transform="translate(392.724609 0)"/>
      <use xlink:href="#DejaVuSans-4e" transform="translate(424.511719 0)"/>
      <use xlink:href="#DejaVuSans-75" transform="translate(499.316406 0)"/>
      <use xlink:href="#DejaVuSans-6d" transform="translate(562.695312 0)"/>
      <use xlink:href="#DejaVuSans-62" transform="translate(660.107422 0)"/>
      <use xlink:href="#DejaVuSans-65" transform="translate(723.583984 0)"/>
      <use xlink:href="#DejaVuSans-72" transform="translate(785.107422 0)"/>
     </g>
    </g>
   </g>
   <g id="matplotlib.axis_2">
    <g id="ytick_1">
     <g id="line2d_13">
      <path d="M 54.02 378.297743 
L 709.2 378.297743 
" clip-path="url(#p817a87f5a4)" style="fill: none; stroke: #b0b0b0; stroke-width: 0.8; stroke-linecap: square"/>
     </g>
     <g id="line2d_14">
      <defs>
       <path id="mc4d1918d14" d="M 0 0 
L -3.5 0 
" style="stroke: #000000; stroke-width: 0.8"/>
      </defs>
      <g>
       <use xlink:href="#mc4d1918d14" x="54.02" y="378.297743" style="stroke: #000000; stroke-width: 0.8"/>
      </g>
     </g>
     <g id="text_8">
      <!-- 0.52 -->
      <g transform="translate(24.754375 382.096962) scale(0.1 -0.1)">
       <defs>
        <path id="DejaVuSans-2e" d="M 684 794 
L 1344 794 
L 1344 0 
L 684 0 
L 684 794 
z
" transform="scale(0.015625)"/>
       </defs>
       <use xlink:href="#DejaVuSans-30"/>
       <use xlink:href="#DejaVuSans-2e" transform="translate(63.623047 0)"/>
       <use xlink:href="#DejaVuSans-35" transform="translate(95.410156 0)"/>
       <use xlink:href="#DejaVuSans-32" transform="translate(159.033203 0)"/>
      </g>
     </g>
    </g>
    <g id="ytick_2">
     <g id="line2d_15">
      <path d="M 54.02 323.160046 
L 709.2 323.160046 
" clip-path="url(#p817a87f5a4)" style="fill: none; stroke: #b0b0b0; stroke-width: 0.8; stroke-linecap: square"/>
     </g>
     <g id="line2d_16">
      <g>
       <use xlink:href="#mc4d1918d14" x="54.02" y="323.160046" style="stroke: #000000; stroke-width: 0.8"/>
      </g>
     </g>
     <g id="text_9">
      <!-- 0.53 -->
      <g transform="translate(24.754375 326.959265) scale(0.1 -0.1)">
       <use xlink:href="#DejaVuSans-30"/>
       <use xlink:href="#DejaVuSans-2e" transform="translate(63.623047 0)"/>
       <use xlink:href="#DejaVuSans-35" transform="translate(95.410156 0)"/>
       <use xlink:href="#DejaVuSans-33" transform="translate(159.033203 0)"/>
      </g>
     </g>
    </g>
    <g id="ytick_3">
     <g id="line2d_17">
      <path d="M 54.02 268.022349 
L 709.2 268.022349 
" clip-path="url(#p817a87f5a4)" style="fill: none; stroke: #b0b0b0; stroke-width: 0.8; stroke-linecap: square"/>
     </g>
     <g id="line2d_18">
      <g>
       <use xlink:href="#mc4d1918d14" x="54.02" y="268.022349" style="stroke: #000000; stroke-width: 0.8"/>
      </g>
     </g>
     <g id="text_10">
      <!-- 0.54 -->
      <g transform="translate(24.754375 271.821568) scale(0.1 -0.1)">
       <use xlink:href="#DejaVuSans-30"/>
       <use xlink:href="#DejaVuSans-2e" transform="translate(63.623047 0)"/>
       <use xlink:href="#DejaVuSans-35" transform="translate(95.410156 0)"/>
       <use xlink:href="#DejaVuSans-34" transform="translate(159.033203 0)"/>
      </g>
     </g>
    </g>
    <g id="ytick_4">
     <g id="line2d_19">
      <path d="M 54.02 212.884651 
L 709.2 212.884651 
" clip-path="url(#p817a87f5a4)" style="fill: none; stroke: #b0b0b0; stroke-width: 0.8; stroke-linecap: square"/>
     </g>
     <g id="line2d_20">
      <g>
       <use xlink:href="#mc4d1918d14" x="54.02" y="212.884651" style="stroke: #000000; stroke-width: 0.8"/>
      </g>
     </g>
     <g id="text_11">
      <!-- 0.55 -->
      <g transform="translate(24.754375 216.68387) scale(0.1 -0.1)">
       <use xlink:href="#DejaVuSans-30"/>
       <use xlink:href="#DejaVuSans-2e" transform="translate(63.623047 0)"/>
       <use xlink:href="#DejaVuSans-35" transform="translate(95.410156 0)"/>
       <use xlink:href="#DejaVuSans-35" transform="translate(159.033203 0)"/>
      </g>
     </g>
    </g>
    <g id="ytick_5">
     <g id="line2d_21">
      <path d="M 54.02 157.746954 
L 709.2 157.746954 
" clip-path="url(#p817a87f5a4)" style="fill: none; stroke: #b0b0b0; stroke-width: 0.8; stroke-linecap: square"/>
     </g>
     <g id="line2d_22">
      <g>
       <use xlink:href="#mc4d1918d14" x="54.02" y="157.746954" style="stroke: #000000; stroke-width: 0.8"/>
      </g>
     </g>
     <g id="text_12">
      <!-- 0.56 -->
      <g transform="translate(24.754375 161.546173) scale(0.1 -0.1)">
       <defs>
        <path id="DejaVuSans-36" d="M 2113 2584 
Q 1688 2584 1439 2293 
Q 1191 2003 1191 1497 
Q 1191 994 1439 701 
Q 1688 409 2113 409 
Q 2538 409 2786 701 
Q 3034 994 3034 1497 
Q 3034 2003 2786 2293 
Q 2538 2584 2113 2584 
z
M 3366 4563 
L 3366 3988 
Q 3128 4100 2886 4159 
Q 2644 4219 2406 4219 
Q 1781 4219 1451 3797 
Q 1122 3375 1075 2522 
Q 1259 2794 1537 2939 
Q 1816 3084 2150 3084 
Q 2853 3084 3261 2657 
Q 3669 2231 3669 1497 
Q 3669 778 3244 343 
Q 2819 -91 2113 -91 
Q 1303 -91 875 529 
Q 447 1150 447 2328 
Q 447 3434 972 4092 
Q 1497 4750 2381 4750 
Q 2619 4750 2861 4703 
Q 3103 4656 3366 4563 
z
" transform="scale(0.015625)"/>
       </defs>
       <use xlink:href="#DejaVuSans-30"/>
       <use xlink:href="#DejaVuSans-2e" transform="translate(63.623047 0)"/>
       <use xlink:href="#DejaVuSans-35" transform="translate(95.410156 0)"/>
       <use xlink:href="#DejaVuSans-36" transform="translate(159.033203 0)"/>
      </g>
     </g>
    </g>
    <g id="ytick_6">
     <g id="line2d_23">
      <path d="M 54.02 102.609257 
L 709.2 102.609257 
" clip-path="url(#p817a87f5a4)" style="fill: none; stroke: #b0b0b0; stroke-width: 0.8; stroke-linecap: square"/>
     </g>
     <g id="line2d_24">
      <g>
       <use xlink:href="#mc4d1918d14" x="54.02" y="102.609257" style="stroke: #000000; stroke-width: 0.8"/>
      </g>
     </g>
     <g id="text_13">
      <!-- 0.57 -->
      <g transform="translate(24.754375 106.408476) scale(0.1 -0.1)">
       <defs>
        <path id="DejaVuSans-37" d="M 525 4666 
L 3525 4666 
L 3525 4397 
L 1831 0 
L 1172 0 
L 2766 4134 
L 525 4134 
L 525 4666 
z
" transform="scale(0.015625)"/>
       </defs>
       <use xlink:href="#DejaVuSans-30"/>
       <use xlink:href="#DejaVuSans-2e" transform="translate(63.623047 0)"/>
       <use xlink:href="#DejaVuSans-35" transform="translate(95.410156 0)"/>
       <use xlink:href="#DejaVuSans-37" transform="translate(159.033203 0)"/>
      </g>
     </g>
    </g>
    <g id="ytick_7">
     <g id="line2d_25">
      <path d="M 54.02 47.47156 
L 709.2 47.47156 
" clip-path="url(#p817a87f5a4)" style="fill: none; stroke: #b0b0b0; stroke-width: 0.8; stroke-linecap: square"/>
     </g>
     <g id="line2d_26">
      <g>
       <use xlink:href="#mc4d1918d14" x="54.02" y="47.47156" style="stroke: #000000; stroke-width: 0.8"/>
      </g>
     </g>
     <g id="text_14">
      <!-- 0.58 -->
      <g transform="translate(24.754375 51.270778) scale(0.1 -0.1)">
       <defs>
        <path id="DejaVuSans-38" d="M 2034 2216 
Q 1584 2216 1326 1975 
Q 1069 1734 1069 1313 
Q 1069 891 1326 650 
Q 1584 409 2034 409 
Q 2484 409 2743 651 
Q 3003 894 3003 1313 
Q 3003 1734 2745 1975 
Q 2488 2216 2034 2216 
z
M 1403 2484 
Q 997 2584 770 2862 
Q 544 3141 544 3541 
Q 544 4100 942 4425 
Q 1341 4750 2034 4750 
Q 2731 4750 3128 4425 
Q 3525 4100 3525 3541 
Q 3525 3141 3298 2862 
Q 3072 2584 2669 2484 
Q 3125 2378 3379 2068 
Q 3634 1759 3634 1313 
Q 3634 634 3220 271 
Q 2806 -91 2034 -91 
Q 1263 -91 848 271 
Q 434 634 434 1313 
Q 434 1759 690 2068 
Q 947 2378 1403 2484 
z
M 1172 3481 
Q 1172 3119 1398 2916 
Q 1625 2713 2034 2713 
Q 2441 2713 2670 2916 
Q 2900 3119 2900 3481 
Q 2900 3844 2670 4047 
Q 2441 4250 2034 4250 
Q 1625 4250 1398 4047 
Q 1172 3844 1172 3481 
z
" transform="scale(0.015625)"/>
       </defs>
       <use xlink:href="#DejaVuSans-30"/>
       <use xlink:href="#DejaVuSans-2e" transform="translate(63.623047 0)"/>
       <use xlink:href="#DejaVuSans-35" transform="translate(95.410156 0)"/>
       <use xlink:href="#DejaVuSans-38" transform="translate(159.033203 0)"/>
      </g>
     </g>
    </g>
    <g id="text_15">
     <!-- Classification Accuracy per Episode -->
     <g transform="translate(18.674688 297.081875) rotate(-90) scale(0.1 -0.1)">
      <defs>
       <path id="DejaVuSans-43" d="M 4122 4306 
L 4122 3641 
Q 3803 3938 3442 4084 
Q 3081 4231 2675 4231 
Q 1875 4231 1450 3742 
Q 1025 3253 1025 2328 
Q 1025 1406 1450 917 
Q 1875 428 2675 428 
Q 3081 428 3442 575 
Q 3803 722 4122 1019 
L 4122 359 
Q 3791 134 3420 21 
Q 3050 -91 2638 -91 
Q 1578 -91 968 557 
Q 359 1206 359 2328 
Q 359 3453 968 4101 
Q 1578 4750 2638 4750 
Q 3056 4750 3426 4639 
Q 3797 4528 4122 4306 
z
" transform="scale(0.015625)"/>
       <path id="DejaVuSans-6c" d="M 603 4863 
L 1178 4863 
L 1178 0 
L 603 0 
L 603 4863 
z
" transform="scale(0.015625)"/>
       <path id="DejaVuSans-61" d="M 2194 1759 
Q 1497 1759 1228 1600 
Q 959 1441 959 1056 
Q 959 750 1161 570 
Q 1363 391 1709 391 
Q 2188 391 2477 730 
Q 2766 1069 2766 1631 
L 2766 1759 
L 2194 1759 
z
M 3341 1997 
L 3341 0 
L 2766 0 
L 2766 531 
Q 2569 213 2275 61 
Q 1981 -91 1556 -91 
Q 1019 -91 701 211 
Q 384 513 384 1019 
Q 384 1609 779 1909 
Q 1175 2209 1959 2209 
L 2766 2209 
L 2766 2266 
Q 2766 2663 2505 2880 
Q 2244 3097 1772 3097 
Q 1472 3097 1187 3025 
Q 903 2953 641 2809 
L 641 3341 
Q 956 3463 1253 3523 
Q 1550 3584 1831 3584 
Q 2591 3584 2966 3190 
Q 3341 2797 3341 1997 
z
" transform="scale(0.015625)"/>
       <path id="DejaVuSans-66" d="M 2375 4863 
L 2375 4384 
L 1825 4384 
Q 1516 4384 1395 4259 
Q 1275 4134 1275 3809 
L 1275 3500 
L 2222 3500 
L 2222 3053 
L 1275 3053 
L 1275 0 
L 697 0 
L 697 3053 
L 147 3053 
L 147 3500 
L 697 3500 
L 697 3744 
Q 697 4328 969 4595 
Q 1241 4863 1831 4863 
L 2375 4863 
z
" transform="scale(0.015625)"/>
       <path id="DejaVuSans-63" d="M 3122 3366 
L 3122 2828 
Q 2878 2963 2633 3030 
Q 2388 3097 2138 3097 
Q 1578 3097 1268 2742 
Q 959 2388 959 1747 
Q 959 1106 1268 751 
Q 1578 397 2138 397 
Q 2388 397 2633 464 
Q 2878 531 3122 666 
L 3122 134 
Q 2881 22 2623 -34 
Q 2366 -91 2075 -91 
Q 1284 -91 818 406 
Q 353 903 353 1747 
Q 353 2603 823 3093 
Q 1294 3584 2113 3584 
Q 2378 3584 2631 3529 
Q 2884 3475 3122 3366 
z
" transform="scale(0.015625)"/>
       <path id="DejaVuSans-74" d="M 1172 4494 
L 1172 3500 
L 2356 3500 
L 2356 3053 
L 1172 3053 
L 1172 1153 
Q 1172 725 1289 603 
Q 1406 481 1766 481 
L 2356 481 
L 2356 0 
L 1766 0 
Q 1100 0 847 248 
Q 594 497 594 1153 
L 594 3053 
L 172 3053 
L 172 3500 
L 594 3500 
L 594 4494 
L 1172 4494 
z
" transform="scale(0.015625)"/>
       <path id="DejaVuSans-6e" d="M 3513 2113 
L 3513 0 
L 2938 0 
L 2938 2094 
Q 2938 2591 2744 2837 
Q 2550 3084 2163 3084 
Q 1697 3084 1428 2787 
Q 1159 2491 1159 1978 
L 1159 0 
L 581 0 
L 581 3500 
L 1159 3500 
L 1159 2956 
Q 1366 3272 1645 3428 
Q 1925 3584 2291 3584 
Q 2894 3584 3203 3211 
Q 3513 2838 3513 2113 
z
" transform="scale(0.015625)"/>
       <path id="DejaVuSans-41" d="M 2188 4044 
L 1331 1722 
L 3047 1722 
L 2188 4044 
z
M 1831 4666 
L 2547 4666 
L 4325 0 
L 3669 0 
L 3244 1197 
L 1141 1197 
L 716 0 
L 50 0 
L 1831 4666 
z
" transform="scale(0.015625)"/>
       <path id="DejaVuSans-79" d="M 2059 -325 
Q 1816 -950 1584 -1140 
Q 1353 -1331 966 -1331 
L 506 -1331 
L 506 -850 
L 844 -850 
Q 1081 -850 1212 -737 
Q 1344 -625 1503 -206 
L 1606 56 
L 191 3500 
L 800 3500 
L 1894 763 
L 2988 3500 
L 3597 3500 
L 2059 -325 
z
" transform="scale(0.015625)"/>
      </defs>
      <use xlink:href="#DejaVuSans-43"/>
      <use xlink:href="#DejaVuSans-6c" transform="translate(69.824219 0)"/>
      <use xlink:href="#DejaVuSans-61" transform="translate(97.607422 0)"/>
      <use xlink:href="#DejaVuSans-73" transform="translate(158.886719 0)"/>
      <use xlink:href="#DejaVuSans-73" transform="translate(210.986328 0)"/>
      <use xlink:href="#DejaVuSans-69" transform="translate(263.085938 0)"/>
      <use xlink:href="#DejaVuSans-66" transform="translate(290.869141 0)"/>
      <use xlink:href="#DejaVuSans-69" transform="translate(326.074219 0)"/>
      <use xlink:href="#DejaVuSans-63" transform="translate(353.857422 0)"/>
      <use xlink:href="#DejaVuSans-61" transform="translate(408.837891 0)"/>
      <use xlink:href="#DejaVuSans-74" transform="translate(470.117188 0)"/>
      <use xlink:href="#DejaVuSans-69" transform="translate(509.326172 0)"/>
      <use xlink:href="#DejaVuSans-6f" transform="translate(537.109375 0)"/>
      <use xlink:href="#DejaVuSans-6e" transform="translate(598.291016 0)"/>
      <use xlink:href="#DejaVuSans-20" transform="translate(661.669922 0)"/>
      <use xlink:href="#DejaVuSans-41" transform="translate(693.457031 0)"/>
      <use xlink:href="#DejaVuSans-63" transform="translate(760.115234 0)"/>
      <use xlink:href="#DejaVuSans-63" transform="translate(815.095703 0)"/>
      <use xlink:href="#DejaVuSans-75" transform="translate(870.076172 0)"/>
      <use xlink:href="#DejaVuSans-72" transform="translate(933.455078 0)"/>
      <use xlink:href="#DejaVuSans-61" transform="translate(974.568359 0)"/>
      <use xlink:href="#DejaVuSans-63" transform="translate(1035.847656 0)"/>
      <use xlink:href="#DejaVuSans-79" transform="translate(1090.828125 0)"/>
      <use xlink:href="#DejaVuSans-20" transform="translate(1150.007812 0)"/>
      <use xlink:href="#DejaVuSans-70" transform="translate(1181.794922 0)"/>
      <use xlink:href="#DejaVuSans-65" transform="translate(1245.271484 0)"/>
      <use xlink:href="#DejaVuSans-72" transform="translate(1306.794922 0)"/>
      <use xlink:href="#DejaVuSans-20" transform="translate(1347.908203 0)"/>
      <use xlink:href="#DejaVuSans-45" transform="translate(1379.695312 0)"/>
      <use xlink:href="#DejaVuSans-70" transform="translate(1442.878906 0)"/>
      <use xlink:href="#DejaVuSans-69" transform="translate(1506.355469 0)"/>
      <use xlink:href="#DejaVuSans-73" transform="translate(1534.138672 0)"/>
      <use xlink:href="#DejaVuSans-6f" transform="translate(1586.238281 0)"/>
      <use xlink:href="#DejaVuSans-64" transform="translate(1647.419922 0)"/>
      <use xlink:href="#DejaVuSans-65" transform="translate(1710.896484 0)"/>
     </g>
    </g>
   </g>
   <g id="line2d_27">
    <path d="M 83.800909 163.192634 
L 84.615708 232.625273 
L 85.430507 197.908963 
L 86.245307 204.035373 
L 87.060106 285.720843 
L 87.874905 204.035379 
L 88.689704 204.035392 
L 90.319302 251.685232 
L 91.134101 180.210465 
L 91.948901 156.385533 
L 92.7637 221.733906 
L 93.578499 206.077508 
L 94.393298 223.776024 
L 95.208097 136.644874 
L 96.022896 236.709566 
L 96.837696 253.046654 
L 97.652495 174.084029 
L 98.467294 172.72261 
L 99.282093 189.059708 
L 100.096892 225.818176 
L 100.911691 274.829453 
L 101.72649 222.414598 
L 102.54129 221.05319 
L 103.356089 114.181346 
L 104.170888 245.558832 
L 104.985687 206.077506 
L 105.800486 210.842494 
L 106.615285 210.842498 
L 107.430085 196.547535 
L 108.244884 198.589682 
L 109.059683 169.999773 
L 109.874482 206.758205 
L 110.689281 182.933303 
L 111.50408 190.421115 
L 112.318879 248.28166 
L 113.133679 226.498885 
L 113.948478 264.618745 
L 114.763277 221.733893 
L 115.578076 333.370703 
L 117.207674 163.192645 
L 118.022474 174.764732 
L 118.837273 302.738636 
L 119.652072 289.124403 
L 120.466871 245.558821 
L 121.28167 189.059695 
L 122.096469 235.348153 
L 122.911268 212.203926 
L 123.726068 236.709564 
L 124.540867 208.11964 
L 125.355666 228.541021 
L 126.170465 276.871577 
L 126.985264 177.487578 
L 127.800063 222.414577 
L 128.614863 257.130928 
L 129.429662 266.660916 
L 130.244461 240.793831 
L 131.05926 106.012808 
L 131.874059 145.494133 
L 132.688858 204.716095 
L 133.503658 118.946343 
L 134.318457 112.139224 
L 135.133256 191.10184 
L 135.948055 202.673942 
L 136.762854 195.186116 
L 137.577653 206.758227 
L 138.392452 135.283431 
L 139.207252 215.607495 
L 140.83685 236.028852 
L 141.651649 254.408076 
L 142.466448 150.939824 
L 143.281247 201.312532 
L 144.096047 200.631806 
L 144.910846 235.348149 
L 145.725645 191.782541 
L 146.540444 220.372476 
L 147.355243 281.636583 
L 148.170042 169.31905 
L 148.984841 264.618759 
L 149.799641 124.392025 
L 150.61444 187.017562 
L 151.429239 192.463261 
L 152.244038 238.07099 
L 153.058837 244.8781 
L 153.873636 259.173077 
L 154.688436 163.192638 
L 155.503235 247.600959 
L 156.318034 233.306009 
L 157.132833 191.782554 
L 157.947632 226.498872 
L 158.762431 194.505404 
L 160.39203 286.401559 
L 161.206829 188.378992 
L 162.021628 177.487602 
L 162.836427 201.993215 
L 163.651226 191.101835 
L 164.466025 223.095306 
L 165.280825 238.751689 
L 166.095624 213.565337 
L 166.910423 236.709566 
L 168.540021 174.764752 
L 169.35482 190.421128 
L 170.169619 156.385522 
L 171.799218 261.895924 
L 172.614017 230.583159 
L 173.428816 220.372469 
L 174.243615 134.602741 
L 175.058414 216.2882 
L 175.873214 255.08879 
L 176.688013 221.053181 
L 177.502812 245.558816 
L 178.317611 252.365933 
L 179.13241 282.997995 
L 179.947209 247.600965 
L 180.762008 223.095324 
L 181.576808 184.975437 
L 182.391607 269.383751 
L 183.206406 180.210436 
L 184.021205 148.216985 
L 184.836004 246.239537 
L 185.650803 244.878118 
L 186.465603 178.168307 
L 187.280402 212.884638 
L 188.095201 195.866825 
L 188.91 188.379003 
L 189.724799 248.962383 
L 190.539598 274.14873 
L 191.354397 201.312543 
L 192.169197 228.54101 
L 192.983996 145.494125 
L 193.798795 213.565339 
L 194.613594 188.378999 
L 195.428393 200.631831 
L 196.243192 227.179595 
L 197.057992 146.855542 
L 197.872791 201.31251 
L 198.68759 229.902438 
L 199.502389 216.288189 
L 200.317188 169.319063 
L 201.131987 242.835978 
L 201.946786 117.584903 
L 202.761586 219.011056 
L 203.576385 229.221744 
L 204.391184 186.336859 
L 205.205983 208.800365 
L 206.020782 167.957642 
L 207.650381 194.505404 
L 208.46518 185.656136 
L 209.279979 142.771251 
L 210.094778 131.199179 
L 210.909577 134.602734 
L 211.724376 276.871577 
L 212.539175 195.866819 
L 213.353975 238.751708 
L 214.168774 231.263875 
L 214.983573 246.92024 
L 215.798372 169.31905 
L 216.613171 216.288204 
L 217.42797 105.332096 
L 218.24277 206.077508 
L 219.057569 246.239531 
L 219.872368 227.8603 
L 220.687167 240.793831 
L 221.501966 215.607482 
L 222.316765 210.842505 
L 223.131564 230.583152 
L 223.946364 208.800369 
L 224.761163 152.981973 
L 225.575962 210.842507 
L 226.390761 285.040133 
L 227.20556 237.390287 
L 228.020359 236.709568 
L 228.835159 265.9802 
L 229.649958 189.740414 
L 230.464757 276.190879 
L 231.279556 225.818154 
L 232.094355 273.468024 
L 232.909154 157.746937 
L 233.723953 332.00927 
L 234.538753 195.186109 
L 235.353552 262.576627 
L 236.168351 280.95586 
L 236.98315 172.041904 
L 237.797949 174.084031 
L 238.612748 288.443689 
L 239.427548 229.221715 
L 241.057146 163.192652 
L 241.871945 180.89117 
L 242.686744 272.787315 
L 243.501543 212.884636 
L 244.316342 226.49887 
L 245.131142 252.365944 
L 245.945941 160.469786 
L 246.76074 304.100067 
L 247.575539 244.197399 
L 248.390338 131.87988 
L 249.205137 221.05319 
L 250.019937 207.438937 
L 250.834736 210.161799 
L 251.649535 203.354652 
L 252.464334 204.035384 
L 253.279133 228.54101 
L 254.093932 203.354654 
L 254.908732 171.361186 
L 255.723531 244.197386 
L 256.53833 295.250814 
L 257.353129 233.986714 
L 258.167928 265.980182 
L 258.982727 211.523217 
L 259.797526 117.584923 
L 260.612326 248.281666 
L 261.427125 215.607486 
L 262.241924 136.644876 
L 263.056723 202.673944 
L 263.871522 178.84903 
L 264.686321 176.806885 
L 265.501121 201.312516 
L 266.31592 155.704818 
L 267.945518 310.907216 
L 269.575116 224.45676 
L 272.019514 208.119653 
L 272.834313 222.414605 
L 273.649112 264.618748 
L 274.463911 170.680491 
L 275.27871 274.148747 
L 276.09351 216.2882 
L 276.908309 167.957622 
L 277.723108 197.228249 
L 278.537907 170.680463 
L 280.167505 199.270387 
L 280.982304 217.64963 
L 281.797104 226.498876 
L 282.611903 186.336861 
L 283.426702 217.64962 
L 284.241501 236.028843 
L 285.0563 167.957626 
L 285.871099 191.101835 
L 286.685899 237.390295 
L 287.500698 235.348131 
L 288.315497 169.999751 
L 289.130296 194.50541 
L 289.945095 184.294723 
L 290.759894 164.554062 
L 291.574693 206.758231 
L 292.389493 167.276897 
L 293.204292 236.709564 
L 294.019091 234.66743 
L 294.83389 185.656138 
L 295.648689 261.895933 
L 296.463488 256.4502 
L 297.278288 261.895904 
L 298.093087 197.90897 
L 298.907886 245.558825 
L 299.722685 163.192654 
L 300.537484 259.173052 
L 301.352283 272.787319 
L 302.167082 120.307782 
L 302.981882 174.084044 
L 303.796681 204.035377 
L 304.61148 272.10659 
L 305.426279 163.873348 
L 306.241078 161.150494 
L 307.055877 160.469791 
L 307.870677 262.576616 
L 308.685476 256.450214 
L 309.500275 204.035388 
L 310.315074 233.305987 
L 311.129873 189.059711 
L 311.944672 222.414601 
L 312.759471 265.980191 
L 313.574271 213.56535 
L 314.38907 144.813415 
L 315.203869 202.673955 
L 316.018668 236.709575 
L 317.648266 118.265631 
L 318.463066 219.69176 
L 319.277865 240.793835 
L 320.092664 158.427655 
L 320.907463 261.895904 
L 321.722262 193.143991 
L 322.537061 304.100069 
L 323.35186 219.691757 
L 324.16666 373.532727 
L 324.981459 109.416374 
L 325.796258 226.498885 
L 326.611057 258.492354 
L 327.425856 217.649613 
L 328.240655 201.993222 
L 329.055455 43.387273 
L 329.870254 204.035368 
L 330.685053 146.174839 
L 331.499852 204.716089 
L 332.314651 280.275143 
L 333.12945 226.498876 
L 333.944249 219.691771 
L 334.759049 258.492362 
L 335.573848 227.179595 
L 336.388647 218.330338 
L 337.203446 219.01105 
L 338.018245 230.58315 
L 338.833044 255.769506 
L 339.647844 144.132703 
L 340.462643 220.372478 
L 341.277442 271.425875 
L 342.90704 132.560598 
L 343.721839 272.787321 
L 344.536638 216.288191 
L 345.351438 121.669181 
L 346.166237 264.618772 
L 346.981036 203.354648 
L 347.795835 212.203931 
L 348.610634 229.902443 
L 349.425433 207.43895 
L 350.240233 251.004547 
L 351.055032 153.662656 
L 351.869831 180.210451 
L 352.68463 257.811642 
L 353.499429 188.379001 
L 354.314228 204.035384 
L 355.129027 191.101846 
L 355.943827 204.71608 
L 356.758626 295.250827 
L 357.573425 211.523219 
L 358.388224 229.221739 
L 359.203023 180.89115 
L 360.017822 267.341608 
L 360.832622 135.283446 
L 361.647421 173.403313 
L 363.277019 303.41937 
L 364.091818 273.468029 
L 364.906617 208.11967 
L 365.721416 268.703043 
L 366.536216 265.980178 
L 367.351015 238.751695 
L 368.165814 225.13745 
L 368.980613 195.186124 
L 369.795412 177.487606 
L 371.425011 280.955858 
L 372.23981 128.476327 
L 373.054609 169.319046 
L 373.869408 163.873357 
L 374.684207 267.341615 
L 375.499006 182.933295 
L 376.313805 266.660903 
L 377.128605 127.795584 
L 377.943404 198.589677 
L 378.758203 177.487582 
L 379.573002 237.390274 
L 380.387801 230.583144 
L 381.2026 205.396807 
L 382.0174 176.126165 
L 382.832199 272.106605 
L 383.646998 285.720845 
L 384.461797 241.474547 
L 385.276596 185.656127 
L 386.091395 246.920253 
L 386.906195 231.944585 
L 387.720994 244.878109 
L 388.535793 328.605722 
L 389.350592 231.944585 
L 390.165391 251.004514 
L 390.98019 180.891137 
L 391.794989 164.554082 
L 392.609789 201.312545 
L 393.424588 169.31905 
L 394.239387 212.203922 
L 395.054186 268.02232 
L 395.868985 129.157015 
L 396.683784 189.059713 
L 397.498584 188.379005 
L 398.313383 285.720847 
L 399.128182 225.137479 
L 399.942981 210.842503 
L 400.75778 198.589671 
L 401.572579 270.064452 
L 402.387378 208.119646 
L 403.202178 287.762974 
L 404.016977 200.631817 
L 404.831776 197.228271 
L 405.646575 234.667424 
L 406.461374 189.740436 
L 407.276173 255.769504 
L 408.090973 164.554056 
L 408.905772 271.425882 
L 409.720571 235.348138 
L 410.53537 173.403321 
L 411.350169 171.361186 
L 412.164968 218.330327 
L 412.979767 201.993248 
L 413.794567 258.492345 
L 414.609366 227.8603 
L 415.424165 240.793842 
L 416.238964 244.878111 
L 417.053763 127.795611 
L 417.868562 225.137472 
L 418.683362 237.390278 
L 419.498161 178.849017 
L 420.31296 201.993233 
L 421.127759 186.336841 
L 421.942558 211.52321 
L 422.757357 246.23955 
L 423.572156 249.64309 
L 424.386956 214.246047 
L 425.201755 242.835969 
L 426.016554 243.516681 
L 426.831353 161.831206 
L 427.646152 218.330331 
L 428.460951 161.150503 
L 429.275751 248.962376 
L 430.09055 253.72737 
L 430.905349 261.895913 
L 431.720148 254.408076 
L 432.534947 192.463261 
L 433.349746 285.720845 
L 434.164545 105.332083 
L 434.979345 185.65614 
L 435.794144 295.250827 
L 436.608943 225.137461 
L 437.423742 199.270391 
L 438.238541 184.294714 
L 439.05334 192.463261 
L 440.682939 148.897677 
L 441.497738 272.78731 
L 442.312537 195.866821 
L 443.127336 192.463264 
L 443.942135 208.119659 
L 444.756934 253.727375 
L 445.571734 257.811637 
L 446.386533 97.844258 
L 447.201332 182.933299 
L 448.016131 240.113117 
L 448.83093 235.34814 
L 449.645729 277.5523 
L 450.460529 244.878124 
L 451.275328 160.469793 
L 452.090127 239.432411 
L 452.904926 163.873331 
L 453.719725 240.113119 
L 454.534524 261.895915 
L 455.349323 219.011048 
L 456.164123 158.427662 
L 456.978922 188.378994 
L 457.793721 213.565352 
L 458.60852 231.944585 
L 459.423319 119.627065 
L 460.238118 229.902445 
L 461.052918 204.7161 
L 461.867717 143.451987 
L 462.682516 189.740418 
L 463.497315 215.607479 
L 464.312114 293.208681 
L 465.126913 270.06446 
L 465.941712 209.481068 
L 466.756512 174.764745 
L 467.571311 160.469782 
L 468.38611 202.673938 
L 469.200909 193.143978 
L 470.015708 153.662656 
L 470.830507 201.993243 
L 471.645307 257.811648 
L 472.460106 238.07099 
L 473.274905 248.281697 
L 474.089704 283.678712 
L 474.904503 171.361194 
L 475.719302 252.365953 
L 476.534101 199.951108 
L 477.348901 201.31251 
L 478.1637 150.259099 
L 478.978499 255.769504 
L 479.793298 103.289969 
L 480.608097 246.239539 
L 481.422896 167.957622 
L 482.237696 236.709555 
L 483.052495 230.58315 
L 483.867294 189.740418 
L 484.682093 223.776046 
L 485.496892 185.656158 
L 486.311691 191.101853 
L 487.12649 228.541003 
L 487.94129 231.944596 
L 488.756089 198.589675 
L 489.570888 224.456745 
L 491.200486 174.084062 
L 492.015285 251.685235 
L 492.830085 155.024093 
L 493.644884 251.004527 
L 494.459683 219.011046 
L 496.089281 290.485822 
L 496.90408 187.698298 
L 497.718879 208.119642 
L 498.533679 253.046645 
L 499.348478 238.070983 
L 500.163277 235.348136 
L 500.978076 296.612249 
L 501.792875 244.878122 
L 502.607674 238.751708 
L 503.422474 189.740429 
L 504.237273 232.625297 
L 505.052072 249.643097 
L 505.866871 240.79384 
L 506.68167 323.160022 
L 507.496469 235.348147 
L 508.311268 227.860292 
L 509.126068 206.077517 
L 509.940867 193.824698 
L 510.755666 258.492358 
L 511.570465 155.704816 
L 512.385264 317.714333 
L 514.014863 197.908972 
L 514.829662 176.806877 
L 515.644461 289.1244 
L 516.45926 204.716102 
L 517.274059 176.126165 
L 518.088858 236.028841 
L 518.903658 184.294721 
L 519.718457 210.842496 
L 520.533256 219.691771 
L 521.348055 246.920245 
L 522.162854 182.933297 
L 522.977653 246.920245 
L 523.792452 243.516694 
L 524.607252 236.028837 
L 525.422051 235.348142 
L 527.051649 284.359415 
L 527.866448 260.534489 
L 529.496047 159.789092 
L 530.310846 184.975446 
L 531.125645 198.589671 
L 531.940444 278.913713 
L 532.755243 318.395041 
L 533.570042 207.438952 
L 534.384841 168.638358 
L 535.199641 219.691749 
L 536.01444 168.638342 
L 536.829239 166.596202 
L 537.644038 194.50541 
L 538.458837 228.541019 
L 539.273636 165.234761 
L 540.088436 197.908959 
L 540.903235 219.691771 
L 541.718034 201.312523 
L 542.532833 278.232995 
L 543.347632 170.680467 
L 544.162431 153.662667 
L 544.97723 168.638353 
L 545.79203 244.197388 
L 546.606829 185.656142 
L 547.421628 225.818169 
L 548.236427 221.733889 
L 549.051226 215.607468 
L 549.866025 125.753473 
L 550.680825 237.390282 
L 551.495624 262.576636 
L 552.310423 245.558806 
L 553.125222 275.510156 
L 553.940021 210.16178 
L 554.75482 202.673947 
L 555.569619 193.143971 
L 556.384419 237.390285 
L 557.199218 197.908954 
L 558.014017 227.179582 
L 558.828816 229.902451 
L 559.643615 133.241312 
L 560.458414 259.853788 
L 561.273214 222.414605 
L 562.088013 261.895922 
L 562.902812 183.613998 
L 563.717611 206.758229 
L 564.53241 178.849028 
L 565.347209 208.800367 
L 566.162008 195.866841 
L 566.976808 193.82469 
L 567.791607 148.216977 
L 568.606406 138.006283 
L 569.421205 251.685246 
L 570.236004 229.221722 
L 571.050803 289.124409 
L 571.865603 230.583148 
L 572.680402 255.769502 
L 573.495201 223.776018 
L 574.31 242.835973 
L 575.124799 281.636576 
L 575.939598 219.011048 
L 576.754397 284.359419 
L 577.569197 224.45675 
L 578.383996 212.884614 
L 579.198795 143.451993 
L 580.013594 235.348142 
L 580.828393 187.69828 
L 581.643192 215.607495 
L 582.457992 158.427651 
L 583.272791 204.035392 
L 584.08759 195.186138 
L 584.902389 201.993248 
L 585.717188 197.908957 
L 586.531987 119.627059 
L 587.346786 201.312521 
L 588.161586 159.789083 
L 588.976385 194.505397 
L 589.791184 214.246078 
L 590.605983 187.017582 
L 591.420782 231.26388 
L 592.235581 174.084031 
L 593.050381 232.625297 
L 593.86518 184.294721 
L 594.679979 219.691762 
L 595.494778 229.221731 
L 596.309577 199.270398 
L 597.124376 261.215193 
L 597.939175 228.541023 
L 598.753975 103.289964 
L 599.568774 237.390274 
L 600.383573 228.541021 
L 601.198372 251.004518 
L 602.013171 221.053177 
L 602.82797 236.028848 
L 603.64277 235.348158 
L 604.457569 214.246064 
L 605.272368 181.57188 
L 606.087167 223.095328 
L 606.901966 205.396796 
L 607.716765 263.257352 
L 608.531564 283.678707 
L 609.346364 202.673955 
L 610.161163 239.432414 
L 610.975962 225.818178 
L 611.790761 233.986721 
L 612.60556 133.241284 
L 613.420359 183.614007 
L 614.235159 138.687003 
L 615.049958 254.408076 
L 615.864757 236.709555 
L 616.679556 276.190879 
L 617.494355 178.84903 
L 618.309154 159.108369 
L 619.938753 248.281651 
L 620.753552 150.939831 
L 621.568351 270.064441 
L 622.38315 199.951101 
L 623.197949 187.01759 
L 624.012748 214.246056 
L 624.827548 284.35943 
L 625.642347 239.43242 
L 626.457146 291.166534 
L 627.271945 227.179595 
L 628.086744 246.92024 
L 628.901543 257.811651 
L 629.716342 244.878111 
L 630.531142 191.101844 
L 631.345941 231.944583 
L 632.16074 249.643105 
L 632.975539 161.831219 
L 633.790338 264.618776 
L 634.605137 216.968912 
L 635.419937 194.505415 
L 636.234736 217.649633 
L 637.049535 172.722618 
L 637.864334 250.323804 
L 638.679133 199.951114 
L 639.493932 165.915515 
L 640.308732 236.709555 
L 641.123531 150.259112 
L 641.93833 204.716076 
L 642.753129 223.095313 
L 643.567928 217.649606 
L 644.382727 230.583146 
L 645.197526 241.474556 
L 646.012326 197.228258 
L 646.827125 226.498872 
L 647.641924 224.456741 
L 648.456723 238.751691 
L 649.271522 159.78907 
L 650.086321 193.824709 
L 650.901121 156.385506 
L 651.71592 194.505399 
L 652.530719 129.837731 
L 653.345518 212.884647 
L 654.160317 189.059711 
L 654.975116 243.516703 
L 655.789915 240.793831 
L 656.604715 258.492354 
L 657.419514 291.166541 
L 658.234313 181.57188 
L 659.049112 131.199172 
L 659.863911 260.534505 
L 660.67871 261.215195 
L 661.49351 223.095321 
L 662.308309 195.186111 
L 663.123108 174.764737 
L 663.937907 160.469802 
L 664.752706 231.26386 
L 665.567505 199.95111 
L 666.382304 255.088794 
L 667.197104 175.445457 
L 668.011903 190.421126 
L 668.826702 181.571873 
L 669.641501 211.52321 
L 670.4563 219.691749 
L 671.271099 233.986707 
L 672.085899 201.993226 
L 672.900698 230.583159 
L 674.530296 178.168307 
L 675.345095 229.221735 
L 676.159894 131.199157 
L 676.974693 248.281658 
L 677.789493 253.727379 
L 678.604292 181.571873 
L 679.419091 201.993224 
L 679.419091 201.993224 
" clip-path="url(#p817a87f5a4)" style="fill: none; stroke: #1f77b4; stroke-width: 1.5; stroke-linecap: square"/>
   </g>
   <g id="patch_3">
    <path d="M 54.02 390.04 
L 54.02 26.88 
" style="fill: none; stroke: #000000; stroke-width: 0.8; stroke-linejoin: miter; stroke-linecap: square"/>
   </g>
   <g id="patch_4">
    <path d="M 709.2 390.04 
L 709.2 26.88 
" style="fill: none; stroke: #000000; stroke-width: 0.8; stroke-linejoin: miter; stroke-linecap: square"/>
   </g>
   <g id="patch_5">
    <path d="M 54.02 390.04 
L 709.2 390.04 
" style="fill: none; stroke: #000000; stroke-width: 0.8; stroke-linejoin: miter; stroke-linecap: square"/>
   </g>
   <g id="patch_6">
    <path d="M 54.02 26.88 
L 709.2 26.88 
" style="fill: none; stroke: #000000; stroke-width: 0.8; stroke-linejoin: miter; stroke-linecap: square"/>
   </g>
   <g id="text_16">
    <!-- Classification Accuracy per Episode -->
    <g transform="translate(275.26375 20.88) scale(0.12 -0.12)">
     <use xlink:href="#DejaVuSans-43"/>
     <use xlink:href="#DejaVuSans-6c" transform="translate(69.824219 0)"/>
     <use xlink:href="#DejaVuSans-61" transform="translate(97.607422 0)"/>
     <use xlink:href="#DejaVuSans-73" transform="translate(158.886719 0)"/>
     <use xlink:href="#DejaVuSans-73" transform="translate(210.986328 0)"/>
     <use xlink:href="#DejaVuSans-69" transform="translate(263.085938 0)"/>
     <use xlink:href="#DejaVuSans-66" transform="translate(290.869141 0)"/>
     <use xlink:href="#DejaVuSans-69" transform="translate(326.074219 0)"/>
     <use xlink:href="#DejaVuSans-63" transform="translate(353.857422 0)"/>
     <use xlink:href="#DejaVuSans-61" transform="translate(408.837891 0)"/>
     <use xlink:href="#DejaVuSans-74" transform="translate(470.117188 0)"/>
     <use xlink:href="#DejaVuSans-69" transform="translate(509.326172 0)"/>
     <use xlink:href="#DejaVuSans-6f" transform="translate(537.109375 0)"/>
     <use xlink:href="#DejaVuSans-6e" transform="translate(598.291016 0)"/>
     <use xlink:href="#DejaVuSans-20" transform="translate(661.669922 0)"/>
     <use xlink:href="#DejaVuSans-41" transform="translate(693.457031 0)"/>
     <use xlink:href="#DejaVuSans-63" transform="translate(760.115234 0)"/>
     <use xlink:href="#DejaVuSans-63" transform="translate(815.095703 0)"/>
     <use xlink:href="#DejaVuSans-75" transform="translate(870.076172 0)"/>
     <use xlink:href="#DejaVuSans-72" transform="translate(933.455078 0)"/>
     <use xlink:href="#DejaVuSans-61" transform="translate(974.568359 0)"/>
     <use xlink:href="#DejaVuSans-63" transform="translate(1035.847656 0)"/>
     <use xlink:href="#DejaVuSans-79" transform="translate(1090.828125 0)"/>
     <use xlink:href="#DejaVuSans-20" transform="translate(1150.007812 0)"/>
     <use xlink:href="#DejaVuSans-70" transform="translate(1181.794922 0)"/>
     <use xlink:href="#DejaVuSans-65" transform="translate(1245.271484 0)"/>
     <use xlink:href="#DejaVuSans-72" transform="translate(1306.794922 0)"/>
     <use xlink:href="#DejaVuSans-20" transform="translate(1347.908203 0)"/>
     <use xlink:href="#DejaVuSans-45" transform="translate(1379.695312 0)"/>
     <use xlink:href="#DejaVuSans-70" transform="translate(1442.878906 0)"/>
     <use xlink:href="#DejaVuSans-69" transform="translate(1506.355469 0)"/>
     <use xlink:href="#DejaVuSans-73" transform="translate(1534.138672 0)"/>
     <use xlink:href="#DejaVuSans-6f" transform="translate(1586.238281 0)"/>
     <use xlink:href="#DejaVuSans-64" transform="translate(1647.419922 0)"/>
     <use xlink:href="#DejaVuSans-65" transform="translate(1710.896484 0)"/>
    </g>
   </g>
   <g id="legend_1">
    <g id="patch_7">
     <path d="M 397.3 49.558125 
L 702.2 49.558125 
Q 704.2 49.558125 704.2 47.558125 
L 704.2 33.88 
Q 704.2 31.88 702.2 31.88 
L 397.3 31.88 
Q 395.3 31.88 395.3 33.88 
L 395.3 47.558125 
Q 395.3 49.558125 397.3 49.558125 
z
" style="fill: #ffffff; opacity: 0.8; stroke: #cccccc; stroke-linejoin: miter"/>
    </g>
    <g id="line2d_28">
     <path d="M 399.3 39.978438 
L 409.3 39.978438 
L 419.3 39.978438 
" style="fill: none; stroke: #1f77b4; stroke-width: 1.5; stroke-linecap: square"/>
    </g>
    <g id="text_17">
     <!-- Average Episode Classification Accuracy (75 episodes) -->
     <g transform="translate(427.3 43.478438) scale(0.1 -0.1)">
      <defs>
       <path id="DejaVuSans-76" d="M 191 3500 
L 800 3500 
L 1894 563 
L 2988 3500 
L 3597 3500 
L 2284 0 
L 1503 0 
L 191 3500 
z
" transform="scale(0.015625)"/>
       <path id="DejaVuSans-67" d="M 2906 1791 
Q 2906 2416 2648 2759 
Q 2391 3103 1925 3103 
Q 1463 3103 1205 2759 
Q 947 2416 947 1791 
Q 947 1169 1205 825 
Q 1463 481 1925 481 
Q 2391 481 2648 825 
Q 2906 1169 2906 1791 
z
M 3481 434 
Q 3481 -459 3084 -895 
Q 2688 -1331 1869 -1331 
Q 1566 -1331 1297 -1286 
Q 1028 -1241 775 -1147 
L 775 -588 
Q 1028 -725 1275 -790 
Q 1522 -856 1778 -856 
Q 2344 -856 2625 -561 
Q 2906 -266 2906 331 
L 2906 616 
Q 2728 306 2450 153 
Q 2172 0 1784 0 
Q 1141 0 747 490 
Q 353 981 353 1791 
Q 353 2603 747 3093 
Q 1141 3584 1784 3584 
Q 2172 3584 2450 3431 
Q 2728 3278 2906 2969 
L 2906 3500 
L 3481 3500 
L 3481 434 
z
" transform="scale(0.015625)"/>
       <path id="DejaVuSans-28" d="M 1984 4856 
Q 1566 4138 1362 3434 
Q 1159 2731 1159 2009 
Q 1159 1288 1364 580 
Q 1569 -128 1984 -844 
L 1484 -844 
Q 1016 -109 783 600 
Q 550 1309 550 2009 
Q 550 2706 781 3412 
Q 1013 4119 1484 4856 
L 1984 4856 
z
" transform="scale(0.015625)"/>
       <path id="DejaVuSans-29" d="M 513 4856 
L 1013 4856 
Q 1481 4119 1714 3412 
Q 1947 2706 1947 2009 
Q 1947 1309 1714 600 
Q 1481 -109 1013 -844 
L 513 -844 
Q 928 -128 1133 580 
Q 1338 1288 1338 2009 
Q 1338 2731 1133 3434 
Q 928 4138 513 4856 
z
" transform="scale(0.015625)"/>
      </defs>
      <use xlink:href="#DejaVuSans-41"/>
      <use xlink:href="#DejaVuSans-76" transform="translate(62.533203 0)"/>
      <use xlink:href="#DejaVuSans-65" transform="translate(121.712891 0)"/>
      <use xlink:href="#DejaVuSans-72" transform="translate(183.236328 0)"/>
      <use xlink:href="#DejaVuSans-61" transform="translate(224.349609 0)"/>
      <use xlink:href="#DejaVuSans-67" transform="translate(285.628906 0)"/>
      <use xlink:href="#DejaVuSans-65" transform="translate(349.105469 0)"/>
      <use xlink:href="#DejaVuSans-20" transform="translate(410.628906 0)"/>
      <use xlink:href="#DejaVuSans-45" transform="translate(442.416016 0)"/>
      <use xlink:href="#DejaVuSans-70" transform="translate(505.599609 0)"/>
      <use xlink:href="#DejaVuSans-69" transform="translate(569.076172 0)"/>
      <use xlink:href="#DejaVuSans-73" transform="translate(596.859375 0)"/>
      <use xlink:href="#DejaVuSans-6f" transform="translate(648.958984 0)"/>
      <use xlink:href="#DejaVuSans-64" transform="translate(710.140625 0)"/>
      <use xlink:href="#DejaVuSans-65" transform="translate(773.617188 0)"/>
      <use xlink:href="#DejaVuSans-20" transform="translate(835.140625 0)"/>
      <use xlink:href="#DejaVuSans-43" transform="translate(866.927734 0)"/>
      <use xlink:href="#DejaVuSans-6c" transform="translate(936.751953 0)"/>
      <use xlink:href="#DejaVuSans-61" transform="translate(964.535156 0)"/>
      <use xlink:href="#DejaVuSans-73" transform="translate(1025.814453 0)"/>
      <use xlink:href="#DejaVuSans-73" transform="translate(1077.914062 0)"/>
      <use xlink:href="#DejaVuSans-69" transform="translate(1130.013672 0)"/>
      <use xlink:href="#DejaVuSans-66" transform="translate(1157.796875 0)"/>
      <use xlink:href="#DejaVuSans-69" transform="translate(1193.001953 0)"/>
      <use xlink:href="#DejaVuSans-63" transform="translate(1220.785156 0)"/>
      <use xlink:href="#DejaVuSans-61" transform="translate(1275.765625 0)"/>
      <use xlink:href="#DejaVuSans-74" transform="translate(1337.044922 0)"/>
      <use xlink:href="#DejaVuSans-69" transform="translate(1376.253906 0)"/>
      <use xlink:href="#DejaVuSans-6f" transform="translate(1404.037109 0)"/>
      <use xlink:href="#DejaVuSans-6e" transform="translate(1465.21875 0)"/>
      <use xlink:href="#DejaVuSans-20" transform="translate(1528.597656 0)"/>
      <use xlink:href="#DejaVuSans-41" transform="translate(1560.384766 0)"/>
      <use xlink:href="#DejaVuSans-63" transform="translate(1627.042969 0)"/>
      <use xlink:href="#DejaVuSans-63" transform="translate(1682.023438 0)"/>
      <use xlink:href="#DejaVuSans-75" transform="translate(1737.003906 0)"/>
      <use xlink:href="#DejaVuSans-72" transform="translate(1800.382812 0)"/>
      <use xlink:href="#DejaVuSans-61" transform="translate(1841.496094 0)"/>
      <use xlink:href="#DejaVuSans-63" transform="translate(1902.775391 0)"/>
      <use xlink:href="#DejaVuSans-79" transform="translate(1957.755859 0)"/>
      <use xlink:href="#DejaVuSans-20" transform="translate(2016.935547 0)"/>
      <use xlink:href="#DejaVuSans-28" transform="translate(2048.722656 0)"/>
      <use xlink:href="#DejaVuSans-37" transform="translate(2087.736328 0)"/>
      <use xlink:href="#DejaVuSans-35" transform="translate(2151.359375 0)"/>
      <use xlink:href="#DejaVuSans-20" transform="translate(2214.982422 0)"/>
      <use xlink:href="#DejaVuSans-65" transform="translate(2246.769531 0)"/>
      <use xlink:href="#DejaVuSans-70" transform="translate(2308.292969 0)"/>
      <use xlink:href="#DejaVuSans-69" transform="translate(2371.769531 0)"/>
      <use xlink:href="#DejaVuSans-73" transform="translate(2399.552734 0)"/>
      <use xlink:href="#DejaVuSans-6f" transform="translate(2451.652344 0)"/>
      <use xlink:href="#DejaVuSans-64" transform="translate(2512.833984 0)"/>
      <use xlink:href="#DejaVuSans-65" transform="translate(2576.310547 0)"/>
      <use xlink:href="#DejaVuSans-73" transform="translate(2637.833984 0)"/>
      <use xlink:href="#DejaVuSans-29" transform="translate(2689.933594 0)"/>
     </g>
    </g>
   </g>
  </g>
 </g>
 <defs>
  <clipPath id="p817a87f5a4">
   <rect x="54.02" y="26.88" width="655.18" height="363.16"/>
  </clipPath>
 </defs>
</svg>
