<?xml version="1.0" encoding="utf-8" standalone="no"?>
<!DOCTYPE svg PUBLIC "-//W3C//DTD SVG 1.1//EN"
  "http://www.w3.org/Graphics/SVG/1.1/DTD/svg11.dtd">
<svg xmlns:xlink="http://www.w3.org/1999/xlink" width="720pt" height="432pt" viewBox="0 0 720 432" xmlns="http://www.w3.org/2000/svg" version="1.1">
 <metadata>
  <rdf:RDF xmlns:dc="http://purl.org/dc/elements/1.1/" xmlns:cc="http://creativecommons.org/ns#" xmlns:rdf="http://www.w3.org/1999/02/22-rdf-syntax-ns#">
   <cc:Work>
    <dc:type rdf:resource="http://purl.org/dc/dcmitype/StillImage"/>
    <dc:date>2025-04-25T10:11:50.412177</dc:date>
    <dc:format>image/svg+xml</dc:format>
    <dc:creator>
     <cc:Agent>
      <dc:title>Matplotlib v3.10.1, https://matplotlib.org/</dc:title>
     </cc:Agent>
    </dc:creator>
   </cc:Work>
  </rdf:RDF>
 </metadata>
 <defs>
  <style type="text/css">*{stroke-linejoin: round; stroke-linecap: butt}</style>
 </defs>
 <g id="figure_1">
  <g id="patch_1">
   <path d="M 0 432 
L 720 432 
L 720 0 
L 0 0 
z
" style="fill: #ffffff"/>
  </g>
  <g id="axes_1">
   <g id="patch_2">
    <path d="M 54.02 390.04 
L 709.2 390.04 
L 709.2 26.88 
L 54.02 26.88 
z
" style="fill: #ffffff"/>
   </g>
   <g id="matplotlib.axis_1">
    <g id="xtick_1">
     <g id="line2d_1">
      <path d="M 83.388078 390.04 
L 83.388078 26.88 
" clip-path="url(#p8d20c195e0)" style="fill: none; stroke: #b0b0b0; stroke-width: 0.8; stroke-linecap: square"/>
     </g>
     <g id="line2d_2">
      <defs>
       <path id="m888b87804a" d="M 0 0 
L 0 3.5 
" style="stroke: #000000; stroke-width: 0.8"/>
      </defs>
      <g>
       <use xlink:href="#m888b87804a" x="83.388078" y="390.04" style="stroke: #000000; stroke-width: 0.8"/>
      </g>
     </g>
     <g id="text_1">
      <!-- 0 -->
      <g transform="translate(80.206828 404.638438) scale(0.1 -0.1)">
       <defs>
        <path id="DejaVuSans-30" d="M 2034 4250 
Q 1547 4250 1301 3770 
Q 1056 3291 1056 2328 
Q 1056 1369 1301 889 
Q 1547 409 2034 409 
Q 2525 409 2770 889 
Q 3016 1369 3016 2328 
Q 3016 3291 2770 3770 
Q 2525 4250 2034 4250 
z
M 2034 4750 
Q 2819 4750 3233 4129 
Q 3647 3509 3647 2328 
Q 3647 1150 3233 529 
Q 2819 -91 2034 -91 
Q 1250 -91 836 529 
Q 422 1150 422 2328 
Q 422 3509 836 4129 
Q 1250 4750 2034 4750 
z
" transform="scale(0.015625)"/>
       </defs>
       <use xlink:href="#DejaVuSans-30"/>
      </g>
     </g>
    </g>
    <g id="xtick_2">
     <g id="line2d_3">
      <path d="M 192.027965 390.04 
L 192.027965 26.88 
" clip-path="url(#p8d20c195e0)" style="fill: none; stroke: #b0b0b0; stroke-width: 0.8; stroke-linecap: square"/>
     </g>
     <g id="line2d_4">
      <g>
       <use xlink:href="#m888b87804a" x="192.027965" y="390.04" style="stroke: #000000; stroke-width: 0.8"/>
      </g>
     </g>
     <g id="text_2">
      <!-- 10000 -->
      <g transform="translate(176.121715 404.638438) scale(0.1 -0.1)">
       <defs>
        <path id="DejaVuSans-31" d="M 794 531 
L 1825 531 
L 1825 4091 
L 703 3866 
L 703 4441 
L 1819 4666 
L 2450 4666 
L 2450 531 
L 3481 531 
L 3481 0 
L 794 0 
L 794 531 
z
" transform="scale(0.015625)"/>
       </defs>
       <use xlink:href="#DejaVuSans-31"/>
       <use xlink:href="#DejaVuSans-30" transform="translate(63.623047 0)"/>
       <use xlink:href="#DejaVuSans-30" transform="translate(127.246094 0)"/>
       <use xlink:href="#DejaVuSans-30" transform="translate(190.869141 0)"/>
       <use xlink:href="#DejaVuSans-30" transform="translate(254.492188 0)"/>
      </g>
     </g>
    </g>
    <g id="xtick_3">
     <g id="line2d_5">
      <path d="M 300.667852 390.04 
L 300.667852 26.88 
" clip-path="url(#p8d20c195e0)" style="fill: none; stroke: #b0b0b0; stroke-width: 0.8; stroke-linecap: square"/>
     </g>
     <g id="line2d_6">
      <g>
       <use xlink:href="#m888b87804a" x="300.667852" y="390.04" style="stroke: #000000; stroke-width: 0.8"/>
      </g>
     </g>
     <g id="text_3">
      <!-- 20000 -->
      <g transform="translate(284.761602 404.638438) scale(0.1 -0.1)">
       <defs>
        <path id="DejaVuSans-32" d="M 1228 531 
L 3431 531 
L 3431 0 
L 469 0 
L 469 531 
Q 828 903 1448 1529 
Q 2069 2156 2228 2338 
Q 2531 2678 2651 2914 
Q 2772 3150 2772 3378 
Q 2772 3750 2511 3984 
Q 2250 4219 1831 4219 
Q 1534 4219 1204 4116 
Q 875 4013 500 3803 
L 500 4441 
Q 881 4594 1212 4672 
Q 1544 4750 1819 4750 
Q 2544 4750 2975 4387 
Q 3406 4025 3406 3419 
Q 3406 3131 3298 2873 
Q 3191 2616 2906 2266 
Q 2828 2175 2409 1742 
Q 1991 1309 1228 531 
z
" transform="scale(0.015625)"/>
       </defs>
       <use xlink:href="#DejaVuSans-32"/>
       <use xlink:href="#DejaVuSans-30" transform="translate(63.623047 0)"/>
       <use xlink:href="#DejaVuSans-30" transform="translate(127.246094 0)"/>
       <use xlink:href="#DejaVuSans-30" transform="translate(190.869141 0)"/>
       <use xlink:href="#DejaVuSans-30" transform="translate(254.492188 0)"/>
      </g>
     </g>
    </g>
    <g id="xtick_4">
     <g id="line2d_7">
      <path d="M 409.307739 390.04 
L 409.307739 26.88 
" clip-path="url(#p8d20c195e0)" style="fill: none; stroke: #b0b0b0; stroke-width: 0.8; stroke-linecap: square"/>
     </g>
     <g id="line2d_8">
      <g>
       <use xlink:href="#m888b87804a" x="409.307739" y="390.04" style="stroke: #000000; stroke-width: 0.8"/>
      </g>
     </g>
     <g id="text_4">
      <!-- 30000 -->
      <g transform="translate(393.401489 404.638438) scale(0.1 -0.1)">
       <defs>
        <path id="DejaVuSans-33" d="M 2597 2516 
Q 3050 2419 3304 2112 
Q 3559 1806 3559 1356 
Q 3559 666 3084 287 
Q 2609 -91 1734 -91 
Q 1441 -91 1130 -33 
Q 819 25 488 141 
L 488 750 
Q 750 597 1062 519 
Q 1375 441 1716 441 
Q 2309 441 2620 675 
Q 2931 909 2931 1356 
Q 2931 1769 2642 2001 
Q 2353 2234 1838 2234 
L 1294 2234 
L 1294 2753 
L 1863 2753 
Q 2328 2753 2575 2939 
Q 2822 3125 2822 3475 
Q 2822 3834 2567 4026 
Q 2313 4219 1838 4219 
Q 1578 4219 1281 4162 
Q 984 4106 628 3988 
L 628 4550 
Q 988 4650 1302 4700 
Q 1616 4750 1894 4750 
Q 2613 4750 3031 4423 
Q 3450 4097 3450 3541 
Q 3450 3153 3228 2886 
Q 3006 2619 2597 2516 
z
" transform="scale(0.015625)"/>
       </defs>
       <use xlink:href="#DejaVuSans-33"/>
       <use xlink:href="#DejaVuSans-30" transform="translate(63.623047 0)"/>
       <use xlink:href="#DejaVuSans-30" transform="translate(127.246094 0)"/>
       <use xlink:href="#DejaVuSans-30" transform="translate(190.869141 0)"/>
       <use xlink:href="#DejaVuSans-30" transform="translate(254.492188 0)"/>
      </g>
     </g>
    </g>
    <g id="xtick_5">
     <g id="line2d_9">
      <path d="M 517.947626 390.04 
L 517.947626 26.88 
" clip-path="url(#p8d20c195e0)" style="fill: none; stroke: #b0b0b0; stroke-width: 0.8; stroke-linecap: square"/>
     </g>
     <g id="line2d_10">
      <g>
       <use xlink:href="#m888b87804a" x="517.947626" y="390.04" style="stroke: #000000; stroke-width: 0.8"/>
      </g>
     </g>
     <g id="text_5">
      <!-- 40000 -->
      <g transform="translate(502.041376 404.638438) scale(0.1 -0.1)">
       <defs>
        <path id="DejaVuSans-34" d="M 2419 4116 
L 825 1625 
L 2419 1625 
L 2419 4116 
z
M 2253 4666 
L 3047 4666 
L 3047 1625 
L 3713 1625 
L 3713 1100 
L 3047 1100 
L 3047 0 
L 2419 0 
L 2419 1100 
L 313 1100 
L 313 1709 
L 2253 4666 
z
" transform="scale(0.015625)"/>
       </defs>
       <use xlink:href="#DejaVuSans-34"/>
       <use xlink:href="#DejaVuSans-30" transform="translate(63.623047 0)"/>
       <use xlink:href="#DejaVuSans-30" transform="translate(127.246094 0)"/>
       <use xlink:href="#DejaVuSans-30" transform="translate(190.869141 0)"/>
       <use xlink:href="#DejaVuSans-30" transform="translate(254.492188 0)"/>
      </g>
     </g>
    </g>
    <g id="xtick_6">
     <g id="line2d_11">
      <path d="M 626.587514 390.04 
L 626.587514 26.88 
" clip-path="url(#p8d20c195e0)" style="fill: none; stroke: #b0b0b0; stroke-width: 0.8; stroke-linecap: square"/>
     </g>
     <g id="line2d_12">
      <g>
       <use xlink:href="#m888b87804a" x="626.587514" y="390.04" style="stroke: #000000; stroke-width: 0.8"/>
      </g>
     </g>
     <g id="text_6">
      <!-- 50000 -->
      <g transform="translate(610.681264 404.638438) scale(0.1 -0.1)">
       <defs>
        <path id="DejaVuSans-35" d="M 691 4666 
L 3169 4666 
L 3169 4134 
L 1269 4134 
L 1269 2991 
Q 1406 3038 1543 3061 
Q 1681 3084 1819 3084 
Q 2600 3084 3056 2656 
Q 3513 2228 3513 1497 
Q 3513 744 3044 326 
Q 2575 -91 1722 -91 
Q 1428 -91 1123 -41 
Q 819 9 494 109 
L 494 744 
Q 775 591 1075 516 
Q 1375 441 1709 441 
Q 2250 441 2565 725 
Q 2881 1009 2881 1497 
Q 2881 1984 2565 2268 
Q 2250 2553 1709 2553 
Q 1456 2553 1204 2497 
Q 953 2441 691 2322 
L 691 4666 
z
" transform="scale(0.015625)"/>
       </defs>
       <use xlink:href="#DejaVuSans-35"/>
       <use xlink:href="#DejaVuSans-30" transform="translate(63.623047 0)"/>
       <use xlink:href="#DejaVuSans-30" transform="translate(127.246094 0)"/>
       <use xlink:href="#DejaVuSans-30" transform="translate(190.869141 0)"/>
       <use xlink:href="#DejaVuSans-30" transform="translate(254.492188 0)"/>
      </g>
     </g>
    </g>
    <g id="text_7">
     <!-- Episode Number -->
     <g transform="translate(340.2975 418.316562) scale(0.1 -0.1)">
      <defs>
       <path id="DejaVuSans-45" d="M 628 4666 
L 3578 4666 
L 3578 4134 
L 1259 4134 
L 1259 2753 
L 3481 2753 
L 3481 2222 
L 1259 2222 
L 1259 531 
L 3634 531 
L 3634 0 
L 628 0 
L 628 4666 
z
" transform="scale(0.015625)"/>
       <path id="DejaVuSans-70" d="M 1159 525 
L 1159 -1331 
L 581 -1331 
L 581 3500 
L 1159 3500 
L 1159 2969 
Q 1341 3281 1617 3432 
Q 1894 3584 2278 3584 
Q 2916 3584 3314 3078 
Q 3713 2572 3713 1747 
Q 3713 922 3314 415 
Q 2916 -91 2278 -91 
Q 1894 -91 1617 61 
Q 1341 213 1159 525 
z
M 3116 1747 
Q 3116 2381 2855 2742 
Q 2594 3103 2138 3103 
Q 1681 3103 1420 2742 
Q 1159 2381 1159 1747 
Q 1159 1113 1420 752 
Q 1681 391 2138 391 
Q 2594 391 2855 752 
Q 3116 1113 3116 1747 
z
" transform="scale(0.015625)"/>
       <path id="DejaVuSans-69" d="M 603 3500 
L 1178 3500 
L 1178 0 
L 603 0 
L 603 3500 
z
M 603 4863 
L 1178 4863 
L 1178 4134 
L 603 4134 
L 603 4863 
z
" transform="scale(0.015625)"/>
       <path id="DejaVuSans-73" d="M 2834 3397 
L 2834 2853 
Q 2591 2978 2328 3040 
Q 2066 3103 1784 3103 
Q 1356 3103 1142 2972 
Q 928 2841 928 2578 
Q 928 2378 1081 2264 
Q 1234 2150 1697 2047 
L 1894 2003 
Q 2506 1872 2764 1633 
Q 3022 1394 3022 966 
Q 3022 478 2636 193 
Q 2250 -91 1575 -91 
Q 1294 -91 989 -36 
Q 684 19 347 128 
L 347 722 
Q 666 556 975 473 
Q 1284 391 1588 391 
Q 1994 391 2212 530 
Q 2431 669 2431 922 
Q 2431 1156 2273 1281 
Q 2116 1406 1581 1522 
L 1381 1569 
Q 847 1681 609 1914 
Q 372 2147 372 2553 
Q 372 3047 722 3315 
Q 1072 3584 1716 3584 
Q 2034 3584 2315 3537 
Q 2597 3491 2834 3397 
z
" transform="scale(0.015625)"/>
       <path id="DejaVuSans-6f" d="M 1959 3097 
Q 1497 3097 1228 2736 
Q 959 2375 959 1747 
Q 959 1119 1226 758 
Q 1494 397 1959 397 
Q 2419 397 2687 759 
Q 2956 1122 2956 1747 
Q 2956 2369 2687 2733 
Q 2419 3097 1959 3097 
z
M 1959 3584 
Q 2709 3584 3137 3096 
Q 3566 2609 3566 1747 
Q 3566 888 3137 398 
Q 2709 -91 1959 -91 
Q 1206 -91 779 398 
Q 353 888 353 1747 
Q 353 2609 779 3096 
Q 1206 3584 1959 3584 
z
" transform="scale(0.015625)"/>
       <path id="DejaVuSans-64" d="M 2906 2969 
L 2906 4863 
L 3481 4863 
L 3481 0 
L 2906 0 
L 2906 525 
Q 2725 213 2448 61 
Q 2172 -91 1784 -91 
Q 1150 -91 751 415 
Q 353 922 353 1747 
Q 353 2572 751 3078 
Q 1150 3584 1784 3584 
Q 2172 3584 2448 3432 
Q 2725 3281 2906 2969 
z
M 947 1747 
Q 947 1113 1208 752 
Q 1469 391 1925 391 
Q 2381 391 2643 752 
Q 2906 1113 2906 1747 
Q 2906 2381 2643 2742 
Q 2381 3103 1925 3103 
Q 1469 3103 1208 2742 
Q 947 2381 947 1747 
z
" transform="scale(0.015625)"/>
       <path id="DejaVuSans-65" d="M 3597 1894 
L 3597 1613 
L 953 1613 
Q 991 1019 1311 708 
Q 1631 397 2203 397 
Q 2534 397 2845 478 
Q 3156 559 3463 722 
L 3463 178 
Q 3153 47 2828 -22 
Q 2503 -91 2169 -91 
Q 1331 -91 842 396 
Q 353 884 353 1716 
Q 353 2575 817 3079 
Q 1281 3584 2069 3584 
Q 2775 3584 3186 3129 
Q 3597 2675 3597 1894 
z
M 3022 2063 
Q 3016 2534 2758 2815 
Q 2500 3097 2075 3097 
Q 1594 3097 1305 2825 
Q 1016 2553 972 2059 
L 3022 2063 
z
" transform="scale(0.015625)"/>
       <path id="DejaVuSans-20" transform="scale(0.015625)"/>
       <path id="DejaVuSans-4e" d="M 628 4666 
L 1478 4666 
L 3547 763 
L 3547 4666 
L 4159 4666 
L 4159 0 
L 3309 0 
L 1241 3903 
L 1241 0 
L 628 0 
L 628 4666 
z
" transform="scale(0.015625)"/>
       <path id="DejaVuSans-75" d="M 544 1381 
L 544 3500 
L 1119 3500 
L 1119 1403 
Q 1119 906 1312 657 
Q 1506 409 1894 409 
Q 2359 409 2629 706 
Q 2900 1003 2900 1516 
L 2900 3500 
L 3475 3500 
L 3475 0 
L 2900 0 
L 2900 538 
Q 2691 219 2414 64 
Q 2138 -91 1772 -91 
Q 1169 -91 856 284 
Q 544 659 544 1381 
z
M 1991 3584 
L 1991 3584 
z
" transform="scale(0.015625)"/>
       <path id="DejaVuSans-6d" d="M 3328 2828 
Q 3544 3216 3844 3400 
Q 4144 3584 4550 3584 
Q 5097 3584 5394 3201 
Q 5691 2819 5691 2113 
L 5691 0 
L 5113 0 
L 5113 2094 
Q 5113 2597 4934 2840 
Q 4756 3084 4391 3084 
Q 3944 3084 3684 2787 
Q 3425 2491 3425 1978 
L 3425 0 
L 2847 0 
L 2847 2094 
Q 2847 2600 2669 2842 
Q 2491 3084 2119 3084 
Q 1678 3084 1418 2786 
Q 1159 2488 1159 1978 
L 1159 0 
L 581 0 
L 581 3500 
L 1159 3500 
L 1159 2956 
Q 1356 3278 1631 3431 
Q 1906 3584 2284 3584 
Q 2666 3584 2933 3390 
Q 3200 3197 3328 2828 
z
" transform="scale(0.015625)"/>
       <path id="DejaVuSans-62" d="M 3116 1747 
Q 3116 2381 2855 2742 
Q 2594 3103 2138 3103 
Q 1681 3103 1420 2742 
Q 1159 2381 1159 1747 
Q 1159 1113 1420 752 
Q 1681 391 2138 391 
Q 2594 391 2855 752 
Q 3116 1113 3116 1747 
z
M 1159 2969 
Q 1341 3281 1617 3432 
Q 1894 3584 2278 3584 
Q 2916 3584 3314 3078 
Q 3713 2572 3713 1747 
Q 3713 922 3314 415 
Q 2916 -91 2278 -91 
Q 1894 -91 1617 61 
Q 1341 213 1159 525 
L 1159 0 
L 581 0 
L 581 4863 
L 1159 4863 
L 1159 2969 
z
" transform="scale(0.015625)"/>
       <path id="DejaVuSans-72" d="M 2631 2963 
Q 2534 3019 2420 3045 
Q 2306 3072 2169 3072 
Q 1681 3072 1420 2755 
Q 1159 2438 1159 1844 
L 1159 0 
L 581 0 
L 581 3500 
L 1159 3500 
L 1159 2956 
Q 1341 3275 1631 3429 
Q 1922 3584 2338 3584 
Q 2397 3584 2469 3576 
Q 2541 3569 2628 3553 
L 2631 2963 
z
" transform="scale(0.015625)"/>
      </defs>
      <use xlink:href="#DejaVuSans-45"/>
      <use xlink:href="#DejaVuSans-70" transform="translate(63.183594 0)"/>
      <use xlink:href="#DejaVuSans-69" transform="translate(126.660156 0)"/>
      <use xlink:href="#DejaVuSans-73" transform="translate(154.443359 0)"/>
      <use xlink:href="#DejaVuSans-6f" transform="translate(206.542969 0)"/>
      <use xlink:href="#DejaVuSans-64" transform="translate(267.724609 0)"/>
      <use xlink:href="#DejaVuSans-65" transform="translate(331.201172 0)"/>
      <use xlink:href="#DejaVuSans-20" transform="translate(392.724609 0)"/>
      <use xlink:href="#DejaVuSans-4e" transform="translate(424.511719 0)"/>
      <use xlink:href="#DejaVuSans-75" transform="translate(499.316406 0)"/>
      <use xlink:href="#DejaVuSans-6d" transform="translate(562.695312 0)"/>
      <use xlink:href="#DejaVuSans-62" transform="translate(660.107422 0)"/>
      <use xlink:href="#DejaVuSans-65" transform="translate(723.583984 0)"/>
      <use xlink:href="#DejaVuSans-72" transform="translate(785.107422 0)"/>
     </g>
    </g>
   </g>
   <g id="matplotlib.axis_2">
    <g id="ytick_1">
     <g id="line2d_13">
      <path d="M 54.02 334.292212 
L 709.2 334.292212 
" clip-path="url(#p8d20c195e0)" style="fill: none; stroke: #b0b0b0; stroke-width: 0.8; stroke-linecap: square"/>
     </g>
     <g id="line2d_14">
      <defs>
       <path id="md47b27bdc5" d="M 0 0 
L -3.5 0 
" style="stroke: #000000; stroke-width: 0.8"/>
      </defs>
      <g>
       <use xlink:href="#md47b27bdc5" x="54.02" y="334.292212" style="stroke: #000000; stroke-width: 0.8"/>
      </g>
     </g>
     <g id="text_8">
      <!-- 2.70 -->
      <g transform="translate(24.754375 338.091431) scale(0.1 -0.1)">
       <defs>
        <path id="DejaVuSans-2e" d="M 684 794 
L 1344 794 
L 1344 0 
L 684 0 
L 684 794 
z
" transform="scale(0.015625)"/>
        <path id="DejaVuSans-37" d="M 525 4666 
L 3525 4666 
L 3525 4397 
L 1831 0 
L 1172 0 
L 2766 4134 
L 525 4134 
L 525 4666 
z
" transform="scale(0.015625)"/>
       </defs>
       <use xlink:href="#DejaVuSans-32"/>
       <use xlink:href="#DejaVuSans-2e" transform="translate(63.623047 0)"/>
       <use xlink:href="#DejaVuSans-37" transform="translate(95.410156 0)"/>
       <use xlink:href="#DejaVuSans-30" transform="translate(159.033203 0)"/>
      </g>
     </g>
    </g>
    <g id="ytick_2">
     <g id="line2d_15">
      <path d="M 54.02 277.755673 
L 709.2 277.755673 
" clip-path="url(#p8d20c195e0)" style="fill: none; stroke: #b0b0b0; stroke-width: 0.8; stroke-linecap: square"/>
     </g>
     <g id="line2d_16">
      <g>
       <use xlink:href="#md47b27bdc5" x="54.02" y="277.755673" style="stroke: #000000; stroke-width: 0.8"/>
      </g>
     </g>
     <g id="text_9">
      <!-- 2.75 -->
      <g transform="translate(24.754375 281.554891) scale(0.1 -0.1)">
       <use xlink:href="#DejaVuSans-32"/>
       <use xlink:href="#DejaVuSans-2e" transform="translate(63.623047 0)"/>
       <use xlink:href="#DejaVuSans-37" transform="translate(95.410156 0)"/>
       <use xlink:href="#DejaVuSans-35" transform="translate(159.033203 0)"/>
      </g>
     </g>
    </g>
    <g id="ytick_3">
     <g id="line2d_17">
      <path d="M 54.02 221.219133 
L 709.2 221.219133 
" clip-path="url(#p8d20c195e0)" style="fill: none; stroke: #b0b0b0; stroke-width: 0.8; stroke-linecap: square"/>
     </g>
     <g id="line2d_18">
      <g>
       <use xlink:href="#md47b27bdc5" x="54.02" y="221.219133" style="stroke: #000000; stroke-width: 0.8"/>
      </g>
     </g>
     <g id="text_10">
      <!-- 2.80 -->
      <g transform="translate(24.754375 225.018352) scale(0.1 -0.1)">
       <defs>
        <path id="DejaVuSans-38" d="M 2034 2216 
Q 1584 2216 1326 1975 
Q 1069 1734 1069 1313 
Q 1069 891 1326 650 
Q 1584 409 2034 409 
Q 2484 409 2743 651 
Q 3003 894 3003 1313 
Q 3003 1734 2745 1975 
Q 2488 2216 2034 2216 
z
M 1403 2484 
Q 997 2584 770 2862 
Q 544 3141 544 3541 
Q 544 4100 942 4425 
Q 1341 4750 2034 4750 
Q 2731 4750 3128 4425 
Q 3525 4100 3525 3541 
Q 3525 3141 3298 2862 
Q 3072 2584 2669 2484 
Q 3125 2378 3379 2068 
Q 3634 1759 3634 1313 
Q 3634 634 3220 271 
Q 2806 -91 2034 -91 
Q 1263 -91 848 271 
Q 434 634 434 1313 
Q 434 1759 690 2068 
Q 947 2378 1403 2484 
z
M 1172 3481 
Q 1172 3119 1398 2916 
Q 1625 2713 2034 2713 
Q 2441 2713 2670 2916 
Q 2900 3119 2900 3481 
Q 2900 3844 2670 4047 
Q 2441 4250 2034 4250 
Q 1625 4250 1398 4047 
Q 1172 3844 1172 3481 
z
" transform="scale(0.015625)"/>
       </defs>
       <use xlink:href="#DejaVuSans-32"/>
       <use xlink:href="#DejaVuSans-2e" transform="translate(63.623047 0)"/>
       <use xlink:href="#DejaVuSans-38" transform="translate(95.410156 0)"/>
       <use xlink:href="#DejaVuSans-30" transform="translate(159.033203 0)"/>
      </g>
     </g>
    </g>
    <g id="ytick_4">
     <g id="line2d_19">
      <path d="M 54.02 164.682593 
L 709.2 164.682593 
" clip-path="url(#p8d20c195e0)" style="fill: none; stroke: #b0b0b0; stroke-width: 0.8; stroke-linecap: square"/>
     </g>
     <g id="line2d_20">
      <g>
       <use xlink:href="#md47b27bdc5" x="54.02" y="164.682593" style="stroke: #000000; stroke-width: 0.8"/>
      </g>
     </g>
     <g id="text_11">
      <!-- 2.85 -->
      <g transform="translate(24.754375 168.481812) scale(0.1 -0.1)">
       <use xlink:href="#DejaVuSans-32"/>
       <use xlink:href="#DejaVuSans-2e" transform="translate(63.623047 0)"/>
       <use xlink:href="#DejaVuSans-38" transform="translate(95.410156 0)"/>
       <use xlink:href="#DejaVuSans-35" transform="translate(159.033203 0)"/>
      </g>
     </g>
    </g>
    <g id="ytick_5">
     <g id="line2d_21">
      <path d="M 54.02 108.146053 
L 709.2 108.146053 
" clip-path="url(#p8d20c195e0)" style="fill: none; stroke: #b0b0b0; stroke-width: 0.8; stroke-linecap: square"/>
     </g>
     <g id="line2d_22">
      <g>
       <use xlink:href="#md47b27bdc5" x="54.02" y="108.146053" style="stroke: #000000; stroke-width: 0.8"/>
      </g>
     </g>
     <g id="text_12">
      <!-- 2.90 -->
      <g transform="translate(24.754375 111.945272) scale(0.1 -0.1)">
       <defs>
        <path id="DejaVuSans-39" d="M 703 97 
L 703 672 
Q 941 559 1184 500 
Q 1428 441 1663 441 
Q 2288 441 2617 861 
Q 2947 1281 2994 2138 
Q 2813 1869 2534 1725 
Q 2256 1581 1919 1581 
Q 1219 1581 811 2004 
Q 403 2428 403 3163 
Q 403 3881 828 4315 
Q 1253 4750 1959 4750 
Q 2769 4750 3195 4129 
Q 3622 3509 3622 2328 
Q 3622 1225 3098 567 
Q 2575 -91 1691 -91 
Q 1453 -91 1209 -44 
Q 966 3 703 97 
z
M 1959 2075 
Q 2384 2075 2632 2365 
Q 2881 2656 2881 3163 
Q 2881 3666 2632 3958 
Q 2384 4250 1959 4250 
Q 1534 4250 1286 3958 
Q 1038 3666 1038 3163 
Q 1038 2656 1286 2365 
Q 1534 2075 1959 2075 
z
" transform="scale(0.015625)"/>
       </defs>
       <use xlink:href="#DejaVuSans-32"/>
       <use xlink:href="#DejaVuSans-2e" transform="translate(63.623047 0)"/>
       <use xlink:href="#DejaVuSans-39" transform="translate(95.410156 0)"/>
       <use xlink:href="#DejaVuSans-30" transform="translate(159.033203 0)"/>
      </g>
     </g>
    </g>
    <g id="ytick_6">
     <g id="line2d_23">
      <path d="M 54.02 51.609514 
L 709.2 51.609514 
" clip-path="url(#p8d20c195e0)" style="fill: none; stroke: #b0b0b0; stroke-width: 0.8; stroke-linecap: square"/>
     </g>
     <g id="line2d_24">
      <g>
       <use xlink:href="#md47b27bdc5" x="54.02" y="51.609514" style="stroke: #000000; stroke-width: 0.8"/>
      </g>
     </g>
     <g id="text_13">
      <!-- 2.95 -->
      <g transform="translate(24.754375 55.408732) scale(0.1 -0.1)">
       <use xlink:href="#DejaVuSans-32"/>
       <use xlink:href="#DejaVuSans-2e" transform="translate(63.623047 0)"/>
       <use xlink:href="#DejaVuSans-39" transform="translate(95.410156 0)"/>
       <use xlink:href="#DejaVuSans-35" transform="translate(159.033203 0)"/>
      </g>
     </g>
    </g>
    <g id="text_14">
     <!-- Reward per Episode -->
     <g transform="translate(18.674688 258.202969) rotate(-90) scale(0.1 -0.1)">
      <defs>
       <path id="DejaVuSans-52" d="M 2841 2188 
Q 3044 2119 3236 1894 
Q 3428 1669 3622 1275 
L 4263 0 
L 3584 0 
L 2988 1197 
Q 2756 1666 2539 1819 
Q 2322 1972 1947 1972 
L 1259 1972 
L 1259 0 
L 628 0 
L 628 4666 
L 2053 4666 
Q 2853 4666 3247 4331 
Q 3641 3997 3641 3322 
Q 3641 2881 3436 2590 
Q 3231 2300 2841 2188 
z
M 1259 4147 
L 1259 2491 
L 2053 2491 
Q 2509 2491 2742 2702 
Q 2975 2913 2975 3322 
Q 2975 3731 2742 3939 
Q 2509 4147 2053 4147 
L 1259 4147 
z
" transform="scale(0.015625)"/>
       <path id="DejaVuSans-77" d="M 269 3500 
L 844 3500 
L 1563 769 
L 2278 3500 
L 2956 3500 
L 3675 769 
L 4391 3500 
L 4966 3500 
L 4050 0 
L 3372 0 
L 2619 2869 
L 1863 0 
L 1184 0 
L 269 3500 
z
" transform="scale(0.015625)"/>
       <path id="DejaVuSans-61" d="M 2194 1759 
Q 1497 1759 1228 1600 
Q 959 1441 959 1056 
Q 959 750 1161 570 
Q 1363 391 1709 391 
Q 2188 391 2477 730 
Q 2766 1069 2766 1631 
L 2766 1759 
L 2194 1759 
z
M 3341 1997 
L 3341 0 
L 2766 0 
L 2766 531 
Q 2569 213 2275 61 
Q 1981 -91 1556 -91 
Q 1019 -91 701 211 
Q 384 513 384 1019 
Q 384 1609 779 1909 
Q 1175 2209 1959 2209 
L 2766 2209 
L 2766 2266 
Q 2766 2663 2505 2880 
Q 2244 3097 1772 3097 
Q 1472 3097 1187 3025 
Q 903 2953 641 2809 
L 641 3341 
Q 956 3463 1253 3523 
Q 1550 3584 1831 3584 
Q 2591 3584 2966 3190 
Q 3341 2797 3341 1997 
z
" transform="scale(0.015625)"/>
      </defs>
      <use xlink:href="#DejaVuSans-52"/>
      <use xlink:href="#DejaVuSans-65" transform="translate(64.982422 0)"/>
      <use xlink:href="#DejaVuSans-77" transform="translate(126.505859 0)"/>
      <use xlink:href="#DejaVuSans-61" transform="translate(208.292969 0)"/>
      <use xlink:href="#DejaVuSans-72" transform="translate(269.572266 0)"/>
      <use xlink:href="#DejaVuSans-64" transform="translate(308.935547 0)"/>
      <use xlink:href="#DejaVuSans-20" transform="translate(372.412109 0)"/>
      <use xlink:href="#DejaVuSans-70" transform="translate(404.199219 0)"/>
      <use xlink:href="#DejaVuSans-65" transform="translate(467.675781 0)"/>
      <use xlink:href="#DejaVuSans-72" transform="translate(529.199219 0)"/>
      <use xlink:href="#DejaVuSans-20" transform="translate(570.3125 0)"/>
      <use xlink:href="#DejaVuSans-45" transform="translate(602.099609 0)"/>
      <use xlink:href="#DejaVuSans-70" transform="translate(665.283203 0)"/>
      <use xlink:href="#DejaVuSans-69" transform="translate(728.759766 0)"/>
      <use xlink:href="#DejaVuSans-73" transform="translate(756.542969 0)"/>
      <use xlink:href="#DejaVuSans-6f" transform="translate(808.642578 0)"/>
      <use xlink:href="#DejaVuSans-64" transform="translate(869.824219 0)"/>
      <use xlink:href="#DejaVuSans-65" transform="translate(933.300781 0)"/>
     </g>
    </g>
   </g>
   <g id="line2d_25">
    <path d="M 83.800909 160.766894 
L 84.615708 231.437552 
L 85.430507 194.297949 
L 86.245307 200.293614 
L 87.060106 284.742445 
L 87.874905 201.84314 
L 88.689704 201.5849 
L 89.504503 223.431705 
L 90.319302 250.310999 
L 91.134101 177.986132 
L 91.948901 158.030826 
L 92.7637 220.68866 
L 93.578499 202.296821 
L 94.393298 222.224201 
L 95.208097 128.980817 
L 96.022896 234.941441 
L 96.837696 252.86561 
L 97.652495 173.135133 
L 98.467294 172.053266 
L 99.282093 182.11119 
L 100.096892 224.36702 
L 100.911691 273.162931 
L 101.72649 221.735612 
L 102.54129 220.227988 
L 103.356089 113.192442 
L 104.170888 242.374954 
L 104.985687 204.16043 
L 105.800486 208.11799 
L 106.615285 208.683359 
L 107.430085 194.486402 
L 108.244884 195.393787 
L 109.059683 168.52149 
L 109.874482 202.862171 
L 110.689281 175.166275 
L 111.50408 190.144943 
L 112.318879 245.473974 
L 113.133679 222.761659 
L 113.948478 261.716004 
L 114.763277 216.298341 
L 115.578076 330.481201 
L 117.207674 159.629195 
L 118.022474 173.142104 
L 118.837273 299.47683 
L 119.652072 289.104829 
L 120.466871 244.008222 
L 121.28167 189.830857 
L 122.096469 237.635662 
L 122.911268 212.585082 
L 123.726068 229.238926 
L 124.540867 204.160426 
L 125.355666 226.54472 
L 126.170465 274.921834 
L 126.985264 172.981564 
L 127.800063 221.519217 
L 128.614863 256.955784 
L 129.429662 266.231981 
L 130.244461 240.315892 
L 131.05926 108.132081 
L 131.874059 140.979126 
L 132.688858 203.413603 
L 133.503658 115.118882 
L 134.318457 112.941183 
L 135.133256 189.970461 
L 135.948055 201.577894 
L 136.762854 190.521869 
L 137.577653 206.163646 
L 138.392452 129.825355 
L 139.207252 211.36362 
L 140.022051 224.974262 
L 140.83685 233.978224 
L 141.651649 254.394188 
L 142.466448 146.353579 
L 143.281247 196.126669 
L 144.096047 199.532808 
L 144.910846 230.041615 
L 145.725645 188.281333 
L 146.540444 217.959545 
L 147.355243 279.619271 
L 148.170042 170.196636 
L 148.984841 260.787701 
L 149.799641 124.115854 
L 150.61444 186.759739 
L 151.429239 191.715412 
L 152.244038 234.641307 
L 153.873636 254.575678 
L 154.688436 160.110796 
L 155.503235 246.876928 
L 156.318034 227.919747 
L 157.132833 190.214757 
L 157.947632 223.564325 
L 158.762431 189.167784 
L 159.57723 242.291183 
L 160.39203 285.908078 
L 161.206829 185.042711 
L 162.021628 175.068553 
L 162.836427 199.60957 
L 163.651226 188.602412 
L 164.466025 221.65883 
L 165.280825 240.050653 
L 166.095624 210.330586 
L 166.910423 236.393243 
L 168.540021 172.220788 
L 169.35482 187.618262 
L 170.169619 149.997043 
L 171.799218 256.306672 
L 172.614017 227.01935 
L 173.428816 219.299663 
L 174.243615 130.49544 
L 175.058414 216.382104 
L 175.873214 252.572456 
L 176.688013 218.280609 
L 177.502812 241.488503 
L 178.317611 250.108573 
L 179.13241 278.621145 
L 179.947209 243.687158 
L 180.762008 221.679787 
L 181.576808 184.700705 
L 182.391607 265.910895 
L 183.206406 175.982896 
L 184.021205 147.910088 
L 184.836004 244.133862 
L 185.650803 240.057653 
L 186.465603 172.974602 
L 187.280402 209.646578 
L 188.095201 197.780879 
L 188.91 183.353606 
L 189.724799 246.842029 
L 190.539598 273.204798 
L 191.354397 195.491517 
L 192.169197 225.790889 
L 192.983996 141.26529 
L 193.798795 213.687881 
L 194.613594 182.139112 
L 195.428393 196.447752 
L 196.243192 225.064997 
L 197.057992 147.463361 
L 197.872791 201.556946 
L 198.68759 226.370218 
L 199.502389 213.066679 
L 200.317188 165.066481 
L 201.131987 239.67376 
L 201.946786 116.340336 
L 202.761586 216.05406 
L 203.576385 225.937486 
L 204.391184 185.461502 
L 205.205983 205.912374 
L 206.020782 166.553186 
L 206.835581 181.524886 
L 207.650381 189.195703 
L 208.46518 182.285675 
L 209.279979 142.779885 
L 210.094778 129.811417 
L 210.909577 134.006283 
L 211.724376 274.747338 
L 212.539175 194.605054 
L 213.353975 236.679421 
L 214.168774 227.186869 
L 214.983573 246.583769 
L 215.798372 168.640136 
L 216.613171 212.975956 
L 217.42797 100.293744 
L 218.24277 202.820307 
L 219.057569 242.954266 
L 219.872368 225.714114 
L 220.687167 236.051223 
L 221.501966 212.850309 
L 222.316765 205.912377 
L 223.131564 230.704687 
L 223.946364 204.30004 
L 224.761163 150.199472 
L 225.575962 206.003117 
L 226.390761 284.805265 
L 227.20556 235.220642 
L 228.020359 232.966154 
L 228.835159 264.005414 
L 229.649958 187.199471 
L 230.464757 271.753008 
L 231.279556 223.040832 
L 232.094355 271.948438 
L 232.909154 153.919693 
L 233.723953 328.931673 
L 234.538753 188.344159 
L 235.353552 259.817511 
L 236.168351 278.565307 
L 236.98315 167.544309 
L 237.797949 170.098914 
L 238.612748 284.609825 
L 239.427548 227.333422 
L 240.242347 190.884811 
L 241.057146 163.754274 
L 241.871945 180.184768 
L 242.686744 271.9624 
L 243.501543 212.026693 
L 244.316342 224.918409 
L 245.131142 253.696211 
L 245.945941 159.615225 
L 246.76074 298.464762 
L 247.575539 245.006337 
L 248.390338 129.155303 
L 249.205137 217.491899 
L 250.019937 201.480185 
L 250.834736 205.647151 
L 251.649535 201.089305 
L 252.464334 199.791078 
L 253.279133 223.773721 
L 254.093932 198.981401 
L 254.908732 170.308311 
L 255.723531 243.477745 
L 256.53833 294.102382 
L 257.353129 231.856357 
L 258.167928 263.146879 
L 258.982727 209.116114 
L 259.797526 116.97552 
L 260.612326 244.957474 
L 261.427125 212.208169 
L 262.241924 132.575425 
L 263.056723 197.794835 
L 263.871522 176.86935 
L 264.686321 171.774075 
L 265.501121 198.436974 
L 266.31592 151.916503 
L 267.130719 225.051023 
L 267.945518 309.025256 
L 269.575116 219.390419 
L 270.389915 219.348532 
L 272.019514 203.36474 
L 272.834313 220.465293 
L 273.649112 261.045943 
L 274.463911 167.872373 
L 275.27871 273.253675 
L 276.908309 162.204739 
L 277.723108 197.124775 
L 278.537907 168.381872 
L 279.352706 184.030636 
L 280.167505 195.81955 
L 280.982304 216.36815 
L 281.797104 223.417754 
L 282.611903 187.080823 
L 283.426702 215.404924 
L 284.241501 231.437561 
L 285.0563 164.766337 
L 285.871099 186.410748 
L 286.685899 232.624158 
L 287.500698 236.13498 
L 288.315497 165.827258 
L 289.130296 188.058 
L 289.945095 180.861803 
L 290.759894 160.620322 
L 291.574693 204.516413 
L 292.389493 168.681998 
L 293.204292 235.492844 
L 294.019091 234.550571 
L 294.83389 182.341515 
L 295.648689 258.589081 
L 296.463488 256.732415 
L 297.278288 257.57698 
L 298.093087 194.632988 
L 298.907886 244.859764 
L 299.722685 160.15269 
L 300.537484 257.241944 
L 301.352283 267.474381 
L 302.167082 117.799147 
L 302.981882 169.23343 
L 303.796681 198.28343 
L 304.61148 267.278929 
L 305.426279 160.327167 
L 306.241078 158.009863 
L 307.055877 158.296044 
L 307.870677 262.441913 
L 308.685476 255.064252 
L 309.500275 201.612814 
L 310.315074 231.786545 
L 311.129873 186.85747 
L 311.944672 219.111203 
L 312.759471 263.82393 
L 313.574271 211.991796 
L 314.38907 140.616168 
L 315.203869 202.938972 
L 316.018668 232.721867 
L 317.648266 113.799697 
L 318.463066 218.113097 
L 319.277865 239.457379 
L 320.092664 156.118341 
L 320.907463 257.842212 
L 321.722262 189.698263 
L 322.537061 300.321396 
L 323.35186 220.151201 
L 324.16666 373.532727 
L 324.981459 106.01022 
L 325.796258 221.826364 
L 326.611057 257.667727 
L 327.425856 216.759002 
L 328.240655 203.015728 
L 329.055455 43.387273 
L 329.870254 203.141375 
L 330.685053 141.823676 
L 331.499852 200.028384 
L 332.314651 277.336855 
L 333.12945 224.848617 
L 333.944249 215.998223 
L 334.759049 255.57379 
L 335.573848 223.892387 
L 336.388647 216.479822 
L 337.203446 218.992556 
L 338.018245 227.354372 
L 338.833044 252.342127 
L 339.647844 137.531089 
L 340.462643 218.839004 
L 341.277442 269.337974 
L 342.90704 127.647668 
L 343.721839 272.904683 
L 344.536638 216.368136 
L 345.351438 124.632366 
L 346.166237 263.914673 
L 346.981036 201.187018 
L 347.795835 210.09329 
L 348.610634 225.839756 
L 349.425433 204.50246 
L 350.240233 251.413837 
L 351.055032 151.372051 
L 351.869831 179.298325 
L 352.68463 253.814867 
L 353.499429 185.719761 
L 354.314228 202.687702 
L 355.129027 187.269278 
L 355.943827 204.174388 
L 356.758626 292.671532 
L 357.573425 207.796931 
L 358.388224 227.333446 
L 359.203023 176.65994 
L 360.017822 264.005399 
L 360.832622 130.21624 
L 361.647421 169.540521 
L 363.277019 302.771326 
L 364.091818 272.101999 
L 364.906617 206.959365 
L 365.721416 268.353835 
L 366.536216 261.527557 
L 367.351015 233.964259 
L 368.165814 221.777494 
L 368.980613 191.331537 
L 369.795412 177.427738 
L 371.425011 280.547574 
L 372.23981 125.009299 
L 373.054609 165.65975 
L 373.869408 156.599953 
L 374.684207 263.000311 
L 375.499006 181.61562 
L 376.313805 264.57077 
L 377.128605 125.302421 
L 377.943404 195.659016 
L 378.758203 175.843294 
L 379.573002 234.564525 
L 380.387801 231.36776 
L 382.0174 174.880086 
L 382.832199 270.664157 
L 383.646998 283.45118 
L 384.461797 235.520761 
L 385.276596 180.736146 
L 386.091395 243.477763 
L 386.906195 233.063874 
L 387.720994 245.285529 
L 388.535793 327.444985 
L 389.350592 228.457194 
L 390.165391 247.058397 
L 390.98019 179.444874 
L 391.794989 161.646376 
L 392.609789 197.180635 
L 393.424588 165.359621 
L 394.239387 207.47585 
L 395.054186 267.062559 
L 395.868985 131.151515 
L 396.683784 188.413971 
L 397.498584 185.517351 
L 398.313383 283.353466 
L 399.128182 218.887878 
L 399.942981 210.072347 
L 400.75778 195.847465 
L 401.572579 265.492094 
L 402.387378 205.695993 
L 403.202178 285.691695 
L 404.016977 195.896334 
L 404.831776 190.912758 
L 405.646575 233.391916 
L 406.461374 182.146104 
L 407.276173 252.258367 
L 408.090973 158.91724 
L 408.905772 268.619058 
L 409.720571 231.221194 
L 410.53537 169.079863 
L 411.350169 169.819725 
L 412.164968 217.652421 
L 412.979767 202.834279 
L 413.794567 259.398714 
L 414.609366 225.413982 
L 415.424165 239.596982 
L 416.238964 241.230255 
L 417.053763 127.766324 
L 417.868562 220.695645 
L 418.683362 235.213654 
L 419.498161 176.331892 
L 420.31296 199.637507 
L 421.127759 183.856127 
L 421.942558 205.612238 
L 422.757357 243.589449 
L 423.572156 244.880695 
L 424.386956 213.19231 
L 425.201755 242.40984 
L 426.016554 241.830515 
L 426.831353 159.671059 
L 427.646152 214.574325 
L 428.460951 158.638056 
L 429.275751 248.670734 
L 430.09055 249.431543 
L 430.905349 258.421546 
L 431.720148 251.97917 
L 432.534947 187.618259 
L 433.349746 284.958821 
L 434.164545 101.759493 
L 434.979345 185.698809 
L 435.794144 292.315561 
L 436.608943 222.643003 
L 437.423742 197.850681 
L 438.238541 182.655608 
L 439.05334 190.221732 
L 440.682939 145.871961 
L 441.497738 272.011255 
L 442.312537 195.791626 
L 443.127336 189.956501 
L 443.942135 204.858428 
L 444.756934 251.63717 
L 445.571734 259.824487 
L 446.386533 96.594438 
L 447.201332 177.630147 
L 448.016131 239.757505 
L 448.83093 238.466247 
L 449.645729 274.105205 
L 450.460529 244.420046 
L 451.275328 157.039679 
L 452.090127 237.056322 
L 452.904926 157.549182 
L 453.719725 238.403423 
L 454.534524 261.129718 
L 455.349323 215.32815 
L 456.164123 154.282656 
L 456.978922 184.554125 
L 457.793721 210.274763 
L 458.60852 227.277604 
L 459.423319 116.096068 
L 460.238118 224.360036 
L 461.052918 200.105173 
L 461.867717 138.822351 
L 462.682516 186.934243 
L 463.497315 212.152325 
L 464.312114 291.163881 
L 465.126913 268.716779 
L 465.941712 208.355302 
L 466.756512 171.836891 
L 467.571311 157.339801 
L 468.38611 201.431313 
L 469.200909 187.981214 
L 470.015708 150.855546 
L 471.645307 254.582654 
L 472.460106 235.772038 
L 473.274905 246.953732 
L 474.089704 281.420056 
L 474.904503 165.645802 
L 475.719302 248.789407 
L 476.534101 196.89445 
L 477.348901 198.297372 
L 478.1637 147.38658 
L 478.978499 252.767894 
L 479.793298 99.574834 
L 480.608097 244.755068 
L 481.422896 165.471294 
L 482.237696 234.704115 
L 483.052495 229.099327 
L 483.867294 187.094779 
L 484.682093 220.995775 
L 485.496892 189.984436 
L 486.311691 187.841629 
L 487.12649 229.664682 
L 487.94129 229.364581 
L 488.756089 193.048562 
L 489.570888 222.859374 
L 490.385687 196.789763 
L 491.200486 166.951047 
L 492.015285 248.635845 
L 492.830085 154.401306 
L 493.644884 250.269127 
L 494.459683 217.854841 
L 496.089281 287.862417 
L 496.90408 179.856723 
L 497.718879 207.001215 
L 498.533679 250.632059 
L 499.348478 235.437 
L 500.163277 236.805045 
L 500.978076 296.08466 
L 501.792875 243.40797 
L 502.607674 235.276477 
L 503.422474 181.866905 
L 504.237273 233.336086 
L 505.052072 248.042558 
L 505.866871 243.373062 
L 506.68167 320.192951 
L 507.496469 234.655273 
L 508.311268 225.358134 
L 509.126068 203.322863 
L 509.940867 193.551117 
L 510.755666 255.964655 
L 511.570465 154.540913 
L 512.385264 315.928291 
L 514.014863 193.697693 
L 514.829662 174.565995 
L 515.644461 288.99315 
L 516.45926 199.483971 
L 517.274059 172.82104 
L 518.088858 237.16101 
L 518.903658 182.934807 
L 519.718457 207.280414 
L 520.533256 218.357401 
L 521.348055 245.411164 
L 522.162854 179.619393 
L 522.977653 245.990489 
L 523.792452 238.410416 
L 524.607252 232.791639 
L 525.422051 231.968038 
L 527.051649 282.048231 
L 527.866448 260.124622 
L 528.681247 204.746747 
L 529.496047 157.451499 
L 530.310846 181.168925 
L 531.125645 196.629204 
L 531.940444 275.235924 
L 532.755243 316.779824 
L 533.570042 204.307027 
L 534.384841 166.720705 
L 535.199641 217.101012 
L 536.01444 167.188338 
L 536.829239 167.069678 
L 537.644038 193.495278 
L 538.458837 225.965393 
L 539.273636 161.911576 
L 540.088436 193.250973 
L 540.903235 215.33514 
L 541.718034 198.039131 
L 542.532833 275.577928 
L 543.347632 167.635036 
L 544.162431 150.72992 
L 544.97723 165.952922 
L 545.79203 243.624323 
L 546.606829 183.618826 
L 547.421628 221.40059 
L 549.051226 215.174575 
L 549.866025 121.002878 
L 550.680825 238.438334 
L 551.495624 261.513617 
L 552.310423 246.15101 
L 553.125222 273.225739 
L 553.940021 207.65034 
L 554.75482 201.214948 
L 555.569619 191.157025 
L 556.384419 233.119714 
L 557.199218 193.062513 
L 558.014017 226.970474 
L 558.828816 224.84863 
L 559.643615 126.544859 
L 560.458414 257.528141 
L 561.273214 223.906343 
L 562.088013 260.473621 
L 562.902812 178.684086 
L 563.717611 203.280984 
L 564.53241 175.033657 
L 565.347209 206.296266 
L 566.162008 191.087247 
L 566.976808 190.354352 
L 567.791607 143.100984 
L 568.606406 134.690293 
L 569.421205 250.373831 
L 570.236004 226.237597 
L 571.050803 283.883932 
L 571.865603 226.656388 
L 572.680402 251.008977 
L 573.495201 219.871996 
L 574.31 243.142725 
L 575.124799 277.06465 
L 575.939598 215.712039 
L 576.754397 285.168214 
L 577.569197 223.005954 
L 578.383996 210.595809 
L 579.198795 140.769728 
L 580.013594 229.21101 
L 580.828393 187.527526 
L 581.643192 212.180259 
L 582.457992 153.72426 
L 583.272791 197.355129 
L 584.08759 191.973693 
L 584.902389 203.120452 
L 585.717188 196.964233 
L 586.531987 119.683689 
L 587.346786 197.801816 
L 588.161586 157.681825 
L 588.976385 193.530164 
L 589.791184 211.6498 
L 590.605983 185.964059 
L 591.420782 227.794118 
L 592.235581 168.088726 
L 593.050381 231.737708 
L 593.86518 176.569212 
L 594.679979 215.956335 
L 595.494778 227.347396 
L 596.309577 198.569609 
L 597.124376 256.976715 
L 597.939175 222.475488 
L 598.753975 101.536158 
L 599.568774 236.630552 
L 600.383573 228.338534 
L 601.198372 248.684699 
L 602.013171 219.481134 
L 602.82797 236.609611 
L 603.64277 231.926175 
L 604.457569 212.710719 
L 605.272368 178.432831 
L 606.087167 217.966528 
L 606.901966 201.466222 
L 607.716765 261.862611 
L 608.531564 282.878833 
L 609.346364 196.705993 
L 610.161163 238.933896 
L 610.975962 223.117635 
L 611.790761 230.655836 
L 612.60556 127.975694 
L 613.420359 181.336427 
L 614.235159 132.875547 
L 615.049958 253.235538 
L 615.864757 235.081027 
L 616.679556 271.829787 
L 617.494355 178.46075 
L 618.309154 156.941963 
L 619.938753 244.713164 
L 620.753552 144.182862 
L 621.568351 267.306836 
L 622.38315 200.733344 
L 623.197949 187.43681 
L 624.012748 210.086298 
L 624.827548 279.549471 
L 625.642347 237.126129 
L 626.457146 288.176508 
L 627.271945 222.217232 
L 628.086744 243.86862 
L 628.901543 253.786957 
L 629.716342 245.418147 
L 630.531142 189.921607 
L 631.345941 232.554344 
L 632.16074 245.467015 
L 632.975539 159.245304 
L 633.790338 259.133502 
L 634.605137 212.738637 
L 635.419937 196.357009 
L 636.234736 214.441722 
L 637.049535 166.81143 
L 637.864334 248.168191 
L 638.679133 194.423601 
L 639.493932 161.38115 
L 640.308732 232.603191 
L 641.123531 148.768596 
L 641.93833 205.395852 
L 642.753129 223.871439 
L 643.567928 215.495649 
L 644.382727 230.250992 
L 645.197526 237.879949 
L 646.012326 195.296071 
L 646.827125 221.526218 
L 647.641924 224.325131 
L 648.456723 236.239675 
L 649.271522 152.823858 
L 650.086321 191.157051 
L 650.901121 152.921573 
L 651.71592 191.212867 
L 652.530719 126.593697 
L 653.345518 210.756377 
L 654.160317 183.576955 
L 654.975116 242.514559 
L 655.789915 237.754299 
L 656.604715 260.327038 
L 657.419514 288.260273 
L 658.234313 182.006499 
L 659.049112 125.295469 
L 659.863911 253.424012 
L 660.67871 259.754685 
L 661.49351 222.768637 
L 662.308309 194.353785 
L 663.123108 172.409228 
L 663.937907 157.612033 
L 664.752706 227.71732 
L 665.567505 196.008015 
L 666.382304 253.207625 
L 667.197104 173.602785 
L 668.011903 187.771816 
L 668.826702 181.336429 
L 669.641501 207.531689 
L 670.4563 215.949342 
L 671.271099 234.641298 
L 672.085899 201.319637 
L 672.900698 225.756002 
L 674.530296 177.302089 
L 675.345095 228.792223 
L 676.159894 128.778382 
L 676.974693 244.894645 
L 677.789493 251.05785 
L 678.604292 181.476026 
L 679.419091 200.642593 
L 679.419091 200.642593 
" clip-path="url(#p8d20c195e0)" style="fill: none; stroke: #1f77b4; stroke-width: 1.5; stroke-linecap: square"/>
   </g>
   <g id="patch_3">
    <path d="M 54.02 390.04 
L 54.02 26.88 
" style="fill: none; stroke: #000000; stroke-width: 0.8; stroke-linejoin: miter; stroke-linecap: square"/>
   </g>
   <g id="patch_4">
    <path d="M 709.2 390.04 
L 709.2 26.88 
" style="fill: none; stroke: #000000; stroke-width: 0.8; stroke-linejoin: miter; stroke-linecap: square"/>
   </g>
   <g id="patch_5">
    <path d="M 54.02 390.04 
L 709.2 390.04 
" style="fill: none; stroke: #000000; stroke-width: 0.8; stroke-linejoin: miter; stroke-linecap: square"/>
   </g>
   <g id="patch_6">
    <path d="M 54.02 26.88 
L 709.2 26.88 
" style="fill: none; stroke: #000000; stroke-width: 0.8; stroke-linejoin: miter; stroke-linecap: square"/>
   </g>
   <g id="text_15">
    <!-- Reward per Episode -->
    <g transform="translate(321.918438 20.88) scale(0.12 -0.12)">
     <use xlink:href="#DejaVuSans-52"/>
     <use xlink:href="#DejaVuSans-65" transform="translate(64.982422 0)"/>
     <use xlink:href="#DejaVuSans-77" transform="translate(126.505859 0)"/>
     <use xlink:href="#DejaVuSans-61" transform="translate(208.292969 0)"/>
     <use xlink:href="#DejaVuSans-72" transform="translate(269.572266 0)"/>
     <use xlink:href="#DejaVuSans-64" transform="translate(308.935547 0)"/>
     <use xlink:href="#DejaVuSans-20" transform="translate(372.412109 0)"/>
     <use xlink:href="#DejaVuSans-70" transform="translate(404.199219 0)"/>
     <use xlink:href="#DejaVuSans-65" transform="translate(467.675781 0)"/>
     <use xlink:href="#DejaVuSans-72" transform="translate(529.199219 0)"/>
     <use xlink:href="#DejaVuSans-20" transform="translate(570.3125 0)"/>
     <use xlink:href="#DejaVuSans-45" transform="translate(602.099609 0)"/>
     <use xlink:href="#DejaVuSans-70" transform="translate(665.283203 0)"/>
     <use xlink:href="#DejaVuSans-69" transform="translate(728.759766 0)"/>
     <use xlink:href="#DejaVuSans-73" transform="translate(756.542969 0)"/>
     <use xlink:href="#DejaVuSans-6f" transform="translate(808.642578 0)"/>
     <use xlink:href="#DejaVuSans-64" transform="translate(869.824219 0)"/>
     <use xlink:href="#DejaVuSans-65" transform="translate(933.300781 0)"/>
    </g>
   </g>
   <g id="legend_1">
    <g id="patch_7">
     <path d="M 475.057813 49.558125 
L 702.2 49.558125 
Q 704.2 49.558125 704.2 47.558125 
L 704.2 33.88 
Q 704.2 31.88 702.2 31.88 
L 475.057813 31.88 
Q 473.057813 31.88 473.057813 33.88 
L 473.057813 47.558125 
Q 473.057813 49.558125 475.057813 49.558125 
z
" style="fill: #ffffff; opacity: 0.8; stroke: #cccccc; stroke-linejoin: miter"/>
    </g>
    <g id="line2d_26">
     <path d="M 477.057813 39.978438 
L 487.057813 39.978438 
L 497.057813 39.978438 
" style="fill: none; stroke: #1f77b4; stroke-width: 1.5; stroke-linecap: square"/>
    </g>
    <g id="text_16">
     <!-- Average Episode Reward (75 episodes) -->
     <g transform="translate(505.057813 43.478438) scale(0.1 -0.1)">
      <defs>
       <path id="DejaVuSans-41" d="M 2188 4044 
L 1331 1722 
L 3047 1722 
L 2188 4044 
z
M 1831 4666 
L 2547 4666 
L 4325 0 
L 3669 0 
L 3244 1197 
L 1141 1197 
L 716 0 
L 50 0 
L 1831 4666 
z
" transform="scale(0.015625)"/>
       <path id="DejaVuSans-76" d="M 191 3500 
L 800 3500 
L 1894 563 
L 2988 3500 
L 3597 3500 
L 2284 0 
L 1503 0 
L 191 3500 
z
" transform="scale(0.015625)"/>
       <path id="DejaVuSans-67" d="M 2906 1791 
Q 2906 2416 2648 2759 
Q 2391 3103 1925 3103 
Q 1463 3103 1205 2759 
Q 947 2416 947 1791 
Q 947 1169 1205 825 
Q 1463 481 1925 481 
Q 2391 481 2648 825 
Q 2906 1169 2906 1791 
z
M 3481 434 
Q 3481 -459 3084 -895 
Q 2688 -1331 1869 -1331 
Q 1566 -1331 1297 -1286 
Q 1028 -1241 775 -1147 
L 775 -588 
Q 1028 -725 1275 -790 
Q 1522 -856 1778 -856 
Q 2344 -856 2625 -561 
Q 2906 -266 2906 331 
L 2906 616 
Q 2728 306 2450 153 
Q 2172 0 1784 0 
Q 1141 0 747 490 
Q 353 981 353 1791 
Q 353 2603 747 3093 
Q 1141 3584 1784 3584 
Q 2172 3584 2450 3431 
Q 2728 3278 2906 2969 
L 2906 3500 
L 3481 3500 
L 3481 434 
z
" transform="scale(0.015625)"/>
       <path id="DejaVuSans-28" d="M 1984 4856 
Q 1566 4138 1362 3434 
Q 1159 2731 1159 2009 
Q 1159 1288 1364 580 
Q 1569 -128 1984 -844 
L 1484 -844 
Q 1016 -109 783 600 
Q 550 1309 550 2009 
Q 550 2706 781 3412 
Q 1013 4119 1484 4856 
L 1984 4856 
z
" transform="scale(0.015625)"/>
       <path id="DejaVuSans-29" d="M 513 4856 
L 1013 4856 
Q 1481 4119 1714 3412 
Q 1947 2706 1947 2009 
Q 1947 1309 1714 600 
Q 1481 -109 1013 -844 
L 513 -844 
Q 928 -128 1133 580 
Q 1338 1288 1338 2009 
Q 1338 2731 1133 3434 
Q 928 4138 513 4856 
z
" transform="scale(0.015625)"/>
      </defs>
      <use xlink:href="#DejaVuSans-41"/>
      <use xlink:href="#DejaVuSans-76" transform="translate(62.533203 0)"/>
      <use xlink:href="#DejaVuSans-65" transform="translate(121.712891 0)"/>
      <use xlink:href="#DejaVuSans-72" transform="translate(183.236328 0)"/>
      <use xlink:href="#DejaVuSans-61" transform="translate(224.349609 0)"/>
      <use xlink:href="#DejaVuSans-67" transform="translate(285.628906 0)"/>
      <use xlink:href="#DejaVuSans-65" transform="translate(349.105469 0)"/>
      <use xlink:href="#DejaVuSans-20" transform="translate(410.628906 0)"/>
      <use xlink:href="#DejaVuSans-45" transform="translate(442.416016 0)"/>
      <use xlink:href="#DejaVuSans-70" transform="translate(505.599609 0)"/>
      <use xlink:href="#DejaVuSans-69" transform="translate(569.076172 0)"/>
      <use xlink:href="#DejaVuSans-73" transform="translate(596.859375 0)"/>
      <use xlink:href="#DejaVuSans-6f" transform="translate(648.958984 0)"/>
      <use xlink:href="#DejaVuSans-64" transform="translate(710.140625 0)"/>
      <use xlink:href="#DejaVuSans-65" transform="translate(773.617188 0)"/>
      <use xlink:href="#DejaVuSans-20" transform="translate(835.140625 0)"/>
      <use xlink:href="#DejaVuSans-52" transform="translate(866.927734 0)"/>
      <use xlink:href="#DejaVuSans-65" transform="translate(931.910156 0)"/>
      <use xlink:href="#DejaVuSans-77" transform="translate(993.433594 0)"/>
      <use xlink:href="#DejaVuSans-61" transform="translate(1075.220703 0)"/>
      <use xlink:href="#DejaVuSans-72" transform="translate(1136.5 0)"/>
      <use xlink:href="#DejaVuSans-64" transform="translate(1175.863281 0)"/>
      <use xlink:href="#DejaVuSans-20" transform="translate(1239.339844 0)"/>
      <use xlink:href="#DejaVuSans-28" transform="translate(1271.126953 0)"/>
      <use xlink:href="#DejaVuSans-37" transform="translate(1310.140625 0)"/>
      <use xlink:href="#DejaVuSans-35" transform="translate(1373.763672 0)"/>
      <use xlink:href="#DejaVuSans-20" transform="translate(1437.386719 0)"/>
      <use xlink:href="#DejaVuSans-65" transform="translate(1469.173828 0)"/>
      <use xlink:href="#DejaVuSans-70" transform="translate(1530.697266 0)"/>
      <use xlink:href="#DejaVuSans-69" transform="translate(1594.173828 0)"/>
      <use xlink:href="#DejaVuSans-73" transform="translate(1621.957031 0)"/>
      <use xlink:href="#DejaVuSans-6f" transform="translate(1674.056641 0)"/>
      <use xlink:href="#DejaVuSans-64" transform="translate(1735.238281 0)"/>
      <use xlink:href="#DejaVuSans-65" transform="translate(1798.714844 0)"/>
      <use xlink:href="#DejaVuSans-73" transform="translate(1860.238281 0)"/>
      <use xlink:href="#DejaVuSans-29" transform="translate(1912.337891 0)"/>
     </g>
    </g>
   </g>
  </g>
 </g>
 <defs>
  <clipPath id="p8d20c195e0">
   <rect x="54.02" y="26.88" width="655.18" height="363.16"/>
  </clipPath>
 </defs>
</svg>
