<?xml version="1.0" encoding="utf-8" standalone="no"?>
<!DOCTYPE svg PUBLIC "-//W3C//DTD SVG 1.1//EN"
  "http://www.w3.org/Graphics/SVG/1.1/DTD/svg11.dtd">
<svg xmlns:xlink="http://www.w3.org/1999/xlink" width="720pt" height="432pt" viewBox="0 0 720 432" xmlns="http://www.w3.org/2000/svg" version="1.1">
 <metadata>
  <rdf:RDF xmlns:dc="http://purl.org/dc/elements/1.1/" xmlns:cc="http://creativecommons.org/ns#" xmlns:rdf="http://www.w3.org/1999/02/22-rdf-syntax-ns#">
   <cc:Work>
    <dc:type rdf:resource="http://purl.org/dc/dcmitype/StillImage"/>
    <dc:date>2025-04-25T10:11:52.627601</dc:date>
    <dc:format>image/svg+xml</dc:format>
    <dc:creator>
     <cc:Agent>
      <dc:title>Matplotlib v3.10.1, https://matplotlib.org/</dc:title>
     </cc:Agent>
    </dc:creator>
   </cc:Work>
  </rdf:RDF>
 </metadata>
 <defs>
  <style type="text/css">*{stroke-linejoin: round; stroke-linecap: butt}</style>
 </defs>
 <g id="figure_1">
  <g id="patch_1">
   <path d="M 0 432 
L 720 432 
L 720 0 
L 0 0 
z
" style="fill: #ffffff"/>
  </g>
  <g id="axes_1">
   <g id="patch_2">
    <path d="M 54.02 390.04 
L 709.2 390.04 
L 709.2 26.88 
L 54.02 26.88 
z
" style="fill: #ffffff"/>
   </g>
   <g id="matplotlib.axis_1">
    <g id="xtick_1">
     <g id="line2d_1">
      <path d="M 83.388078 390.04 
L 83.388078 26.88 
" clip-path="url(#p080e010ffc)" style="fill: none; stroke: #b0b0b0; stroke-width: 0.8; stroke-linecap: square"/>
     </g>
     <g id="line2d_2">
      <defs>
       <path id="m93876da00f" d="M 0 0 
L 0 3.5 
" style="stroke: #000000; stroke-width: 0.8"/>
      </defs>
      <g>
       <use xlink:href="#m93876da00f" x="83.388078" y="390.04" style="stroke: #000000; stroke-width: 0.8"/>
      </g>
     </g>
     <g id="text_1">
      <!-- 0 -->
      <g transform="translate(80.206828 404.638438) scale(0.1 -0.1)">
       <defs>
        <path id="DejaVuSans-30" d="M 2034 4250 
Q 1547 4250 1301 3770 
Q 1056 3291 1056 2328 
Q 1056 1369 1301 889 
Q 1547 409 2034 409 
Q 2525 409 2770 889 
Q 3016 1369 3016 2328 
Q 3016 3291 2770 3770 
Q 2525 4250 2034 4250 
z
M 2034 4750 
Q 2819 4750 3233 4129 
Q 3647 3509 3647 2328 
Q 3647 1150 3233 529 
Q 2819 -91 2034 -91 
Q 1250 -91 836 529 
Q 422 1150 422 2328 
Q 422 3509 836 4129 
Q 1250 4750 2034 4750 
z
" transform="scale(0.015625)"/>
       </defs>
       <use xlink:href="#DejaVuSans-30"/>
      </g>
     </g>
    </g>
    <g id="xtick_2">
     <g id="line2d_3">
      <path d="M 192.027965 390.04 
L 192.027965 26.88 
" clip-path="url(#p080e010ffc)" style="fill: none; stroke: #b0b0b0; stroke-width: 0.8; stroke-linecap: square"/>
     </g>
     <g id="line2d_4">
      <g>
       <use xlink:href="#m93876da00f" x="192.027965" y="390.04" style="stroke: #000000; stroke-width: 0.8"/>
      </g>
     </g>
     <g id="text_2">
      <!-- 10000 -->
      <g transform="translate(176.121715 404.638438) scale(0.1 -0.1)">
       <defs>
        <path id="DejaVuSans-31" d="M 794 531 
L 1825 531 
L 1825 4091 
L 703 3866 
L 703 4441 
L 1819 4666 
L 2450 4666 
L 2450 531 
L 3481 531 
L 3481 0 
L 794 0 
L 794 531 
z
" transform="scale(0.015625)"/>
       </defs>
       <use xlink:href="#DejaVuSans-31"/>
       <use xlink:href="#DejaVuSans-30" transform="translate(63.623047 0)"/>
       <use xlink:href="#DejaVuSans-30" transform="translate(127.246094 0)"/>
       <use xlink:href="#DejaVuSans-30" transform="translate(190.869141 0)"/>
       <use xlink:href="#DejaVuSans-30" transform="translate(254.492188 0)"/>
      </g>
     </g>
    </g>
    <g id="xtick_3">
     <g id="line2d_5">
      <path d="M 300.667852 390.04 
L 300.667852 26.88 
" clip-path="url(#p080e010ffc)" style="fill: none; stroke: #b0b0b0; stroke-width: 0.8; stroke-linecap: square"/>
     </g>
     <g id="line2d_6">
      <g>
       <use xlink:href="#m93876da00f" x="300.667852" y="390.04" style="stroke: #000000; stroke-width: 0.8"/>
      </g>
     </g>
     <g id="text_3">
      <!-- 20000 -->
      <g transform="translate(284.761602 404.638438) scale(0.1 -0.1)">
       <defs>
        <path id="DejaVuSans-32" d="M 1228 531 
L 3431 531 
L 3431 0 
L 469 0 
L 469 531 
Q 828 903 1448 1529 
Q 2069 2156 2228 2338 
Q 2531 2678 2651 2914 
Q 2772 3150 2772 3378 
Q 2772 3750 2511 3984 
Q 2250 4219 1831 4219 
Q 1534 4219 1204 4116 
Q 875 4013 500 3803 
L 500 4441 
Q 881 4594 1212 4672 
Q 1544 4750 1819 4750 
Q 2544 4750 2975 4387 
Q 3406 4025 3406 3419 
Q 3406 3131 3298 2873 
Q 3191 2616 2906 2266 
Q 2828 2175 2409 1742 
Q 1991 1309 1228 531 
z
" transform="scale(0.015625)"/>
       </defs>
       <use xlink:href="#DejaVuSans-32"/>
       <use xlink:href="#DejaVuSans-30" transform="translate(63.623047 0)"/>
       <use xlink:href="#DejaVuSans-30" transform="translate(127.246094 0)"/>
       <use xlink:href="#DejaVuSans-30" transform="translate(190.869141 0)"/>
       <use xlink:href="#DejaVuSans-30" transform="translate(254.492188 0)"/>
      </g>
     </g>
    </g>
    <g id="xtick_4">
     <g id="line2d_7">
      <path d="M 409.307739 390.04 
L 409.307739 26.88 
" clip-path="url(#p080e010ffc)" style="fill: none; stroke: #b0b0b0; stroke-width: 0.8; stroke-linecap: square"/>
     </g>
     <g id="line2d_8">
      <g>
       <use xlink:href="#m93876da00f" x="409.307739" y="390.04" style="stroke: #000000; stroke-width: 0.8"/>
      </g>
     </g>
     <g id="text_4">
      <!-- 30000 -->
      <g transform="translate(393.401489 404.638438) scale(0.1 -0.1)">
       <defs>
        <path id="DejaVuSans-33" d="M 2597 2516 
Q 3050 2419 3304 2112 
Q 3559 1806 3559 1356 
Q 3559 666 3084 287 
Q 2609 -91 1734 -91 
Q 1441 -91 1130 -33 
Q 819 25 488 141 
L 488 750 
Q 750 597 1062 519 
Q 1375 441 1716 441 
Q 2309 441 2620 675 
Q 2931 909 2931 1356 
Q 2931 1769 2642 2001 
Q 2353 2234 1838 2234 
L 1294 2234 
L 1294 2753 
L 1863 2753 
Q 2328 2753 2575 2939 
Q 2822 3125 2822 3475 
Q 2822 3834 2567 4026 
Q 2313 4219 1838 4219 
Q 1578 4219 1281 4162 
Q 984 4106 628 3988 
L 628 4550 
Q 988 4650 1302 4700 
Q 1616 4750 1894 4750 
Q 2613 4750 3031 4423 
Q 3450 4097 3450 3541 
Q 3450 3153 3228 2886 
Q 3006 2619 2597 2516 
z
" transform="scale(0.015625)"/>
       </defs>
       <use xlink:href="#DejaVuSans-33"/>
       <use xlink:href="#DejaVuSans-30" transform="translate(63.623047 0)"/>
       <use xlink:href="#DejaVuSans-30" transform="translate(127.246094 0)"/>
       <use xlink:href="#DejaVuSans-30" transform="translate(190.869141 0)"/>
       <use xlink:href="#DejaVuSans-30" transform="translate(254.492188 0)"/>
      </g>
     </g>
    </g>
    <g id="xtick_5">
     <g id="line2d_9">
      <path d="M 517.947626 390.04 
L 517.947626 26.88 
" clip-path="url(#p080e010ffc)" style="fill: none; stroke: #b0b0b0; stroke-width: 0.8; stroke-linecap: square"/>
     </g>
     <g id="line2d_10">
      <g>
       <use xlink:href="#m93876da00f" x="517.947626" y="390.04" style="stroke: #000000; stroke-width: 0.8"/>
      </g>
     </g>
     <g id="text_5">
      <!-- 40000 -->
      <g transform="translate(502.041376 404.638438) scale(0.1 -0.1)">
       <defs>
        <path id="DejaVuSans-34" d="M 2419 4116 
L 825 1625 
L 2419 1625 
L 2419 4116 
z
M 2253 4666 
L 3047 4666 
L 3047 1625 
L 3713 1625 
L 3713 1100 
L 3047 1100 
L 3047 0 
L 2419 0 
L 2419 1100 
L 313 1100 
L 313 1709 
L 2253 4666 
z
" transform="scale(0.015625)"/>
       </defs>
       <use xlink:href="#DejaVuSans-34"/>
       <use xlink:href="#DejaVuSans-30" transform="translate(63.623047 0)"/>
       <use xlink:href="#DejaVuSans-30" transform="translate(127.246094 0)"/>
       <use xlink:href="#DejaVuSans-30" transform="translate(190.869141 0)"/>
       <use xlink:href="#DejaVuSans-30" transform="translate(254.492188 0)"/>
      </g>
     </g>
    </g>
    <g id="xtick_6">
     <g id="line2d_11">
      <path d="M 626.587514 390.04 
L 626.587514 26.88 
" clip-path="url(#p080e010ffc)" style="fill: none; stroke: #b0b0b0; stroke-width: 0.8; stroke-linecap: square"/>
     </g>
     <g id="line2d_12">
      <g>
       <use xlink:href="#m93876da00f" x="626.587514" y="390.04" style="stroke: #000000; stroke-width: 0.8"/>
      </g>
     </g>
     <g id="text_6">
      <!-- 50000 -->
      <g transform="translate(610.681264 404.638438) scale(0.1 -0.1)">
       <defs>
        <path id="DejaVuSans-35" d="M 691 4666 
L 3169 4666 
L 3169 4134 
L 1269 4134 
L 1269 2991 
Q 1406 3038 1543 3061 
Q 1681 3084 1819 3084 
Q 2600 3084 3056 2656 
Q 3513 2228 3513 1497 
Q 3513 744 3044 326 
Q 2575 -91 1722 -91 
Q 1428 -91 1123 -41 
Q 819 9 494 109 
L 494 744 
Q 775 591 1075 516 
Q 1375 441 1709 441 
Q 2250 441 2565 725 
Q 2881 1009 2881 1497 
Q 2881 1984 2565 2268 
Q 2250 2553 1709 2553 
Q 1456 2553 1204 2497 
Q 953 2441 691 2322 
L 691 4666 
z
" transform="scale(0.015625)"/>
       </defs>
       <use xlink:href="#DejaVuSans-35"/>
       <use xlink:href="#DejaVuSans-30" transform="translate(63.623047 0)"/>
       <use xlink:href="#DejaVuSans-30" transform="translate(127.246094 0)"/>
       <use xlink:href="#DejaVuSans-30" transform="translate(190.869141 0)"/>
       <use xlink:href="#DejaVuSans-30" transform="translate(254.492188 0)"/>
      </g>
     </g>
    </g>
    <g id="text_7">
     <!-- Episode Number -->
     <g transform="translate(340.2975 418.316562) scale(0.1 -0.1)">
      <defs>
       <path id="DejaVuSans-45" d="M 628 4666 
L 3578 4666 
L 3578 4134 
L 1259 4134 
L 1259 2753 
L 3481 2753 
L 3481 2222 
L 1259 2222 
L 1259 531 
L 3634 531 
L 3634 0 
L 628 0 
L 628 4666 
z
" transform="scale(0.015625)"/>
       <path id="DejaVuSans-70" d="M 1159 525 
L 1159 -1331 
L 581 -1331 
L 581 3500 
L 1159 3500 
L 1159 2969 
Q 1341 3281 1617 3432 
Q 1894 3584 2278 3584 
Q 2916 3584 3314 3078 
Q 3713 2572 3713 1747 
Q 3713 922 3314 415 
Q 2916 -91 2278 -91 
Q 1894 -91 1617 61 
Q 1341 213 1159 525 
z
M 3116 1747 
Q 3116 2381 2855 2742 
Q 2594 3103 2138 3103 
Q 1681 3103 1420 2742 
Q 1159 2381 1159 1747 
Q 1159 1113 1420 752 
Q 1681 391 2138 391 
Q 2594 391 2855 752 
Q 3116 1113 3116 1747 
z
" transform="scale(0.015625)"/>
       <path id="DejaVuSans-69" d="M 603 3500 
L 1178 3500 
L 1178 0 
L 603 0 
L 603 3500 
z
M 603 4863 
L 1178 4863 
L 1178 4134 
L 603 4134 
L 603 4863 
z
" transform="scale(0.015625)"/>
       <path id="DejaVuSans-73" d="M 2834 3397 
L 2834 2853 
Q 2591 2978 2328 3040 
Q 2066 3103 1784 3103 
Q 1356 3103 1142 2972 
Q 928 2841 928 2578 
Q 928 2378 1081 2264 
Q 1234 2150 1697 2047 
L 1894 2003 
Q 2506 1872 2764 1633 
Q 3022 1394 3022 966 
Q 3022 478 2636 193 
Q 2250 -91 1575 -91 
Q 1294 -91 989 -36 
Q 684 19 347 128 
L 347 722 
Q 666 556 975 473 
Q 1284 391 1588 391 
Q 1994 391 2212 530 
Q 2431 669 2431 922 
Q 2431 1156 2273 1281 
Q 2116 1406 1581 1522 
L 1381 1569 
Q 847 1681 609 1914 
Q 372 2147 372 2553 
Q 372 3047 722 3315 
Q 1072 3584 1716 3584 
Q 2034 3584 2315 3537 
Q 2597 3491 2834 3397 
z
" transform="scale(0.015625)"/>
       <path id="DejaVuSans-6f" d="M 1959 3097 
Q 1497 3097 1228 2736 
Q 959 2375 959 1747 
Q 959 1119 1226 758 
Q 1494 397 1959 397 
Q 2419 397 2687 759 
Q 2956 1122 2956 1747 
Q 2956 2369 2687 2733 
Q 2419 3097 1959 3097 
z
M 1959 3584 
Q 2709 3584 3137 3096 
Q 3566 2609 3566 1747 
Q 3566 888 3137 398 
Q 2709 -91 1959 -91 
Q 1206 -91 779 398 
Q 353 888 353 1747 
Q 353 2609 779 3096 
Q 1206 3584 1959 3584 
z
" transform="scale(0.015625)"/>
       <path id="DejaVuSans-64" d="M 2906 2969 
L 2906 4863 
L 3481 4863 
L 3481 0 
L 2906 0 
L 2906 525 
Q 2725 213 2448 61 
Q 2172 -91 1784 -91 
Q 1150 -91 751 415 
Q 353 922 353 1747 
Q 353 2572 751 3078 
Q 1150 3584 1784 3584 
Q 2172 3584 2448 3432 
Q 2725 3281 2906 2969 
z
M 947 1747 
Q 947 1113 1208 752 
Q 1469 391 1925 391 
Q 2381 391 2643 752 
Q 2906 1113 2906 1747 
Q 2906 2381 2643 2742 
Q 2381 3103 1925 3103 
Q 1469 3103 1208 2742 
Q 947 2381 947 1747 
z
" transform="scale(0.015625)"/>
       <path id="DejaVuSans-65" d="M 3597 1894 
L 3597 1613 
L 953 1613 
Q 991 1019 1311 708 
Q 1631 397 2203 397 
Q 2534 397 2845 478 
Q 3156 559 3463 722 
L 3463 178 
Q 3153 47 2828 -22 
Q 2503 -91 2169 -91 
Q 1331 -91 842 396 
Q 353 884 353 1716 
Q 353 2575 817 3079 
Q 1281 3584 2069 3584 
Q 2775 3584 3186 3129 
Q 3597 2675 3597 1894 
z
M 3022 2063 
Q 3016 2534 2758 2815 
Q 2500 3097 2075 3097 
Q 1594 3097 1305 2825 
Q 1016 2553 972 2059 
L 3022 2063 
z
" transform="scale(0.015625)"/>
       <path id="DejaVuSans-20" transform="scale(0.015625)"/>
       <path id="DejaVuSans-4e" d="M 628 4666 
L 1478 4666 
L 3547 763 
L 3547 4666 
L 4159 4666 
L 4159 0 
L 3309 0 
L 1241 3903 
L 1241 0 
L 628 0 
L 628 4666 
z
" transform="scale(0.015625)"/>
       <path id="DejaVuSans-75" d="M 544 1381 
L 544 3500 
L 1119 3500 
L 1119 1403 
Q 1119 906 1312 657 
Q 1506 409 1894 409 
Q 2359 409 2629 706 
Q 2900 1003 2900 1516 
L 2900 3500 
L 3475 3500 
L 3475 0 
L 2900 0 
L 2900 538 
Q 2691 219 2414 64 
Q 2138 -91 1772 -91 
Q 1169 -91 856 284 
Q 544 659 544 1381 
z
M 1991 3584 
L 1991 3584 
z
" transform="scale(0.015625)"/>
       <path id="DejaVuSans-6d" d="M 3328 2828 
Q 3544 3216 3844 3400 
Q 4144 3584 4550 3584 
Q 5097 3584 5394 3201 
Q 5691 2819 5691 2113 
L 5691 0 
L 5113 0 
L 5113 2094 
Q 5113 2597 4934 2840 
Q 4756 3084 4391 3084 
Q 3944 3084 3684 2787 
Q 3425 2491 3425 1978 
L 3425 0 
L 2847 0 
L 2847 2094 
Q 2847 2600 2669 2842 
Q 2491 3084 2119 3084 
Q 1678 3084 1418 2786 
Q 1159 2488 1159 1978 
L 1159 0 
L 581 0 
L 581 3500 
L 1159 3500 
L 1159 2956 
Q 1356 3278 1631 3431 
Q 1906 3584 2284 3584 
Q 2666 3584 2933 3390 
Q 3200 3197 3328 2828 
z
" transform="scale(0.015625)"/>
       <path id="DejaVuSans-62" d="M 3116 1747 
Q 3116 2381 2855 2742 
Q 2594 3103 2138 3103 
Q 1681 3103 1420 2742 
Q 1159 2381 1159 1747 
Q 1159 1113 1420 752 
Q 1681 391 2138 391 
Q 2594 391 2855 752 
Q 3116 1113 3116 1747 
z
M 1159 2969 
Q 1341 3281 1617 3432 
Q 1894 3584 2278 3584 
Q 2916 3584 3314 3078 
Q 3713 2572 3713 1747 
Q 3713 922 3314 415 
Q 2916 -91 2278 -91 
Q 1894 -91 1617 61 
Q 1341 213 1159 525 
L 1159 0 
L 581 0 
L 581 4863 
L 1159 4863 
L 1159 2969 
z
" transform="scale(0.015625)"/>
       <path id="DejaVuSans-72" d="M 2631 2963 
Q 2534 3019 2420 3045 
Q 2306 3072 2169 3072 
Q 1681 3072 1420 2755 
Q 1159 2438 1159 1844 
L 1159 0 
L 581 0 
L 581 3500 
L 1159 3500 
L 1159 2956 
Q 1341 3275 1631 3429 
Q 1922 3584 2338 3584 
Q 2397 3584 2469 3576 
Q 2541 3569 2628 3553 
L 2631 2963 
z
" transform="scale(0.015625)"/>
      </defs>
      <use xlink:href="#DejaVuSans-45"/>
      <use xlink:href="#DejaVuSans-70" transform="translate(63.183594 0)"/>
      <use xlink:href="#DejaVuSans-69" transform="translate(126.660156 0)"/>
      <use xlink:href="#DejaVuSans-73" transform="translate(154.443359 0)"/>
      <use xlink:href="#DejaVuSans-6f" transform="translate(206.542969 0)"/>
      <use xlink:href="#DejaVuSans-64" transform="translate(267.724609 0)"/>
      <use xlink:href="#DejaVuSans-65" transform="translate(331.201172 0)"/>
      <use xlink:href="#DejaVuSans-20" transform="translate(392.724609 0)"/>
      <use xlink:href="#DejaVuSans-4e" transform="translate(424.511719 0)"/>
      <use xlink:href="#DejaVuSans-75" transform="translate(499.316406 0)"/>
      <use xlink:href="#DejaVuSans-6d" transform="translate(562.695312 0)"/>
      <use xlink:href="#DejaVuSans-62" transform="translate(660.107422 0)"/>
      <use xlink:href="#DejaVuSans-65" transform="translate(723.583984 0)"/>
      <use xlink:href="#DejaVuSans-72" transform="translate(785.107422 0)"/>
     </g>
    </g>
   </g>
   <g id="matplotlib.axis_2">
    <g id="ytick_1">
     <g id="line2d_13">
      <path d="M 54.02 378.876808 
L 709.2 378.876808 
" clip-path="url(#p080e010ffc)" style="fill: none; stroke: #b0b0b0; stroke-width: 0.8; stroke-linecap: square"/>
     </g>
     <g id="line2d_14">
      <defs>
       <path id="ma253ca8491" d="M 0 0 
L -3.5 0 
" style="stroke: #000000; stroke-width: 0.8"/>
      </defs>
      <g>
       <use xlink:href="#ma253ca8491" x="54.02" y="378.876808" style="stroke: #000000; stroke-width: 0.8"/>
      </g>
     </g>
     <g id="text_8">
      <!-- 6.25 -->
      <g transform="translate(24.754375 382.676027) scale(0.1 -0.1)">
       <defs>
        <path id="DejaVuSans-36" d="M 2113 2584 
Q 1688 2584 1439 2293 
Q 1191 2003 1191 1497 
Q 1191 994 1439 701 
Q 1688 409 2113 409 
Q 2538 409 2786 701 
Q 3034 994 3034 1497 
Q 3034 2003 2786 2293 
Q 2538 2584 2113 2584 
z
M 3366 4563 
L 3366 3988 
Q 3128 4100 2886 4159 
Q 2644 4219 2406 4219 
Q 1781 4219 1451 3797 
Q 1122 3375 1075 2522 
Q 1259 2794 1537 2939 
Q 1816 3084 2150 3084 
Q 2853 3084 3261 2657 
Q 3669 2231 3669 1497 
Q 3669 778 3244 343 
Q 2819 -91 2113 -91 
Q 1303 -91 875 529 
Q 447 1150 447 2328 
Q 447 3434 972 4092 
Q 1497 4750 2381 4750 
Q 2619 4750 2861 4703 
Q 3103 4656 3366 4563 
z
" transform="scale(0.015625)"/>
        <path id="DejaVuSans-2e" d="M 684 794 
L 1344 794 
L 1344 0 
L 684 0 
L 684 794 
z
" transform="scale(0.015625)"/>
       </defs>
       <use xlink:href="#DejaVuSans-36"/>
       <use xlink:href="#DejaVuSans-2e" transform="translate(63.623047 0)"/>
       <use xlink:href="#DejaVuSans-32" transform="translate(95.410156 0)"/>
       <use xlink:href="#DejaVuSans-35" transform="translate(159.033203 0)"/>
      </g>
     </g>
    </g>
    <g id="ytick_2">
     <g id="line2d_15">
      <path d="M 54.02 334.342799 
L 709.2 334.342799 
" clip-path="url(#p080e010ffc)" style="fill: none; stroke: #b0b0b0; stroke-width: 0.8; stroke-linecap: square"/>
     </g>
     <g id="line2d_16">
      <g>
       <use xlink:href="#ma253ca8491" x="54.02" y="334.342799" style="stroke: #000000; stroke-width: 0.8"/>
      </g>
     </g>
     <g id="text_9">
      <!-- 6.50 -->
      <g transform="translate(24.754375 338.142018) scale(0.1 -0.1)">
       <use xlink:href="#DejaVuSans-36"/>
       <use xlink:href="#DejaVuSans-2e" transform="translate(63.623047 0)"/>
       <use xlink:href="#DejaVuSans-35" transform="translate(95.410156 0)"/>
       <use xlink:href="#DejaVuSans-30" transform="translate(159.033203 0)"/>
      </g>
     </g>
    </g>
    <g id="ytick_3">
     <g id="line2d_17">
      <path d="M 54.02 289.80879 
L 709.2 289.80879 
" clip-path="url(#p080e010ffc)" style="fill: none; stroke: #b0b0b0; stroke-width: 0.8; stroke-linecap: square"/>
     </g>
     <g id="line2d_18">
      <g>
       <use xlink:href="#ma253ca8491" x="54.02" y="289.80879" style="stroke: #000000; stroke-width: 0.8"/>
      </g>
     </g>
     <g id="text_10">
      <!-- 6.75 -->
      <g transform="translate(24.754375 293.608009) scale(0.1 -0.1)">
       <defs>
        <path id="DejaVuSans-37" d="M 525 4666 
L 3525 4666 
L 3525 4397 
L 1831 0 
L 1172 0 
L 2766 4134 
L 525 4134 
L 525 4666 
z
" transform="scale(0.015625)"/>
       </defs>
       <use xlink:href="#DejaVuSans-36"/>
       <use xlink:href="#DejaVuSans-2e" transform="translate(63.623047 0)"/>
       <use xlink:href="#DejaVuSans-37" transform="translate(95.410156 0)"/>
       <use xlink:href="#DejaVuSans-35" transform="translate(159.033203 0)"/>
      </g>
     </g>
    </g>
    <g id="ytick_4">
     <g id="line2d_19">
      <path d="M 54.02 245.274781 
L 709.2 245.274781 
" clip-path="url(#p080e010ffc)" style="fill: none; stroke: #b0b0b0; stroke-width: 0.8; stroke-linecap: square"/>
     </g>
     <g id="line2d_20">
      <g>
       <use xlink:href="#ma253ca8491" x="54.02" y="245.274781" style="stroke: #000000; stroke-width: 0.8"/>
      </g>
     </g>
     <g id="text_11">
      <!-- 7.00 -->
      <g transform="translate(24.754375 249.074) scale(0.1 -0.1)">
       <use xlink:href="#DejaVuSans-37"/>
       <use xlink:href="#DejaVuSans-2e" transform="translate(63.623047 0)"/>
       <use xlink:href="#DejaVuSans-30" transform="translate(95.410156 0)"/>
       <use xlink:href="#DejaVuSans-30" transform="translate(159.033203 0)"/>
      </g>
     </g>
    </g>
    <g id="ytick_5">
     <g id="line2d_21">
      <path d="M 54.02 200.740772 
L 709.2 200.740772 
" clip-path="url(#p080e010ffc)" style="fill: none; stroke: #b0b0b0; stroke-width: 0.8; stroke-linecap: square"/>
     </g>
     <g id="line2d_22">
      <g>
       <use xlink:href="#ma253ca8491" x="54.02" y="200.740772" style="stroke: #000000; stroke-width: 0.8"/>
      </g>
     </g>
     <g id="text_12">
      <!-- 7.25 -->
      <g transform="translate(24.754375 204.53999) scale(0.1 -0.1)">
       <use xlink:href="#DejaVuSans-37"/>
       <use xlink:href="#DejaVuSans-2e" transform="translate(63.623047 0)"/>
       <use xlink:href="#DejaVuSans-32" transform="translate(95.410156 0)"/>
       <use xlink:href="#DejaVuSans-35" transform="translate(159.033203 0)"/>
      </g>
     </g>
    </g>
    <g id="ytick_6">
     <g id="line2d_23">
      <path d="M 54.02 156.206763 
L 709.2 156.206763 
" clip-path="url(#p080e010ffc)" style="fill: none; stroke: #b0b0b0; stroke-width: 0.8; stroke-linecap: square"/>
     </g>
     <g id="line2d_24">
      <g>
       <use xlink:href="#ma253ca8491" x="54.02" y="156.206763" style="stroke: #000000; stroke-width: 0.8"/>
      </g>
     </g>
     <g id="text_13">
      <!-- 7.50 -->
      <g transform="translate(24.754375 160.005981) scale(0.1 -0.1)">
       <use xlink:href="#DejaVuSans-37"/>
       <use xlink:href="#DejaVuSans-2e" transform="translate(63.623047 0)"/>
       <use xlink:href="#DejaVuSans-35" transform="translate(95.410156 0)"/>
       <use xlink:href="#DejaVuSans-30" transform="translate(159.033203 0)"/>
      </g>
     </g>
    </g>
    <g id="ytick_7">
     <g id="line2d_25">
      <path d="M 54.02 111.672753 
L 709.2 111.672753 
" clip-path="url(#p080e010ffc)" style="fill: none; stroke: #b0b0b0; stroke-width: 0.8; stroke-linecap: square"/>
     </g>
     <g id="line2d_26">
      <g>
       <use xlink:href="#ma253ca8491" x="54.02" y="111.672753" style="stroke: #000000; stroke-width: 0.8"/>
      </g>
     </g>
     <g id="text_14">
      <!-- 7.75 -->
      <g transform="translate(24.754375 115.471972) scale(0.1 -0.1)">
       <use xlink:href="#DejaVuSans-37"/>
       <use xlink:href="#DejaVuSans-2e" transform="translate(63.623047 0)"/>
       <use xlink:href="#DejaVuSans-37" transform="translate(95.410156 0)"/>
       <use xlink:href="#DejaVuSans-35" transform="translate(159.033203 0)"/>
      </g>
     </g>
    </g>
    <g id="ytick_8">
     <g id="line2d_27">
      <path d="M 54.02 67.138744 
L 709.2 67.138744 
" clip-path="url(#p080e010ffc)" style="fill: none; stroke: #b0b0b0; stroke-width: 0.8; stroke-linecap: square"/>
     </g>
     <g id="line2d_28">
      <g>
       <use xlink:href="#ma253ca8491" x="54.02" y="67.138744" style="stroke: #000000; stroke-width: 0.8"/>
      </g>
     </g>
     <g id="text_15">
      <!-- 8.00 -->
      <g transform="translate(24.754375 70.937963) scale(0.1 -0.1)">
       <defs>
        <path id="DejaVuSans-38" d="M 2034 2216 
Q 1584 2216 1326 1975 
Q 1069 1734 1069 1313 
Q 1069 891 1326 650 
Q 1584 409 2034 409 
Q 2484 409 2743 651 
Q 3003 894 3003 1313 
Q 3003 1734 2745 1975 
Q 2488 2216 2034 2216 
z
M 1403 2484 
Q 997 2584 770 2862 
Q 544 3141 544 3541 
Q 544 4100 942 4425 
Q 1341 4750 2034 4750 
Q 2731 4750 3128 4425 
Q 3525 4100 3525 3541 
Q 3525 3141 3298 2862 
Q 3072 2584 2669 2484 
Q 3125 2378 3379 2068 
Q 3634 1759 3634 1313 
Q 3634 634 3220 271 
Q 2806 -91 2034 -91 
Q 1263 -91 848 271 
Q 434 634 434 1313 
Q 434 1759 690 2068 
Q 947 2378 1403 2484 
z
M 1172 3481 
Q 1172 3119 1398 2916 
Q 1625 2713 2034 2713 
Q 2441 2713 2670 2916 
Q 2900 3119 2900 3481 
Q 2900 3844 2670 4047 
Q 2441 4250 2034 4250 
Q 1625 4250 1398 4047 
Q 1172 3844 1172 3481 
z
" transform="scale(0.015625)"/>
       </defs>
       <use xlink:href="#DejaVuSans-38"/>
       <use xlink:href="#DejaVuSans-2e" transform="translate(63.623047 0)"/>
       <use xlink:href="#DejaVuSans-30" transform="translate(95.410156 0)"/>
       <use xlink:href="#DejaVuSans-30" transform="translate(159.033203 0)"/>
      </g>
     </g>
    </g>
    <g id="text_16">
     <!-- Quantum Gates used per Episode -->
     <g transform="translate(18.674688 292.700625) rotate(-90) scale(0.1 -0.1)">
      <defs>
       <path id="DejaVuSans-51" d="M 2522 4238 
Q 1834 4238 1429 3725 
Q 1025 3213 1025 2328 
Q 1025 1447 1429 934 
Q 1834 422 2522 422 
Q 3209 422 3611 934 
Q 4013 1447 4013 2328 
Q 4013 3213 3611 3725 
Q 3209 4238 2522 4238 
z
M 3406 84 
L 4238 -825 
L 3475 -825 
L 2784 -78 
Q 2681 -84 2626 -87 
Q 2572 -91 2522 -91 
Q 1538 -91 948 567 
Q 359 1225 359 2328 
Q 359 3434 948 4092 
Q 1538 4750 2522 4750 
Q 3503 4750 4090 4092 
Q 4678 3434 4678 2328 
Q 4678 1516 4351 937 
Q 4025 359 3406 84 
z
" transform="scale(0.015625)"/>
       <path id="DejaVuSans-61" d="M 2194 1759 
Q 1497 1759 1228 1600 
Q 959 1441 959 1056 
Q 959 750 1161 570 
Q 1363 391 1709 391 
Q 2188 391 2477 730 
Q 2766 1069 2766 1631 
L 2766 1759 
L 2194 1759 
z
M 3341 1997 
L 3341 0 
L 2766 0 
L 2766 531 
Q 2569 213 2275 61 
Q 1981 -91 1556 -91 
Q 1019 -91 701 211 
Q 384 513 384 1019 
Q 384 1609 779 1909 
Q 1175 2209 1959 2209 
L 2766 2209 
L 2766 2266 
Q 2766 2663 2505 2880 
Q 2244 3097 1772 3097 
Q 1472 3097 1187 3025 
Q 903 2953 641 2809 
L 641 3341 
Q 956 3463 1253 3523 
Q 1550 3584 1831 3584 
Q 2591 3584 2966 3190 
Q 3341 2797 3341 1997 
z
" transform="scale(0.015625)"/>
       <path id="DejaVuSans-6e" d="M 3513 2113 
L 3513 0 
L 2938 0 
L 2938 2094 
Q 2938 2591 2744 2837 
Q 2550 3084 2163 3084 
Q 1697 3084 1428 2787 
Q 1159 2491 1159 1978 
L 1159 0 
L 581 0 
L 581 3500 
L 1159 3500 
L 1159 2956 
Q 1366 3272 1645 3428 
Q 1925 3584 2291 3584 
Q 2894 3584 3203 3211 
Q 3513 2838 3513 2113 
z
" transform="scale(0.015625)"/>
       <path id="DejaVuSans-74" d="M 1172 4494 
L 1172 3500 
L 2356 3500 
L 2356 3053 
L 1172 3053 
L 1172 1153 
Q 1172 725 1289 603 
Q 1406 481 1766 481 
L 2356 481 
L 2356 0 
L 1766 0 
Q 1100 0 847 248 
Q 594 497 594 1153 
L 594 3053 
L 172 3053 
L 172 3500 
L 594 3500 
L 594 4494 
L 1172 4494 
z
" transform="scale(0.015625)"/>
       <path id="DejaVuSans-47" d="M 3809 666 
L 3809 1919 
L 2778 1919 
L 2778 2438 
L 4434 2438 
L 4434 434 
Q 4069 175 3628 42 
Q 3188 -91 2688 -91 
Q 1594 -91 976 548 
Q 359 1188 359 2328 
Q 359 3472 976 4111 
Q 1594 4750 2688 4750 
Q 3144 4750 3555 4637 
Q 3966 4525 4313 4306 
L 4313 3634 
Q 3963 3931 3569 4081 
Q 3175 4231 2741 4231 
Q 1884 4231 1454 3753 
Q 1025 3275 1025 2328 
Q 1025 1384 1454 906 
Q 1884 428 2741 428 
Q 3075 428 3337 486 
Q 3600 544 3809 666 
z
" transform="scale(0.015625)"/>
      </defs>
      <use xlink:href="#DejaVuSans-51"/>
      <use xlink:href="#DejaVuSans-75" transform="translate(78.710938 0)"/>
      <use xlink:href="#DejaVuSans-61" transform="translate(142.089844 0)"/>
      <use xlink:href="#DejaVuSans-6e" transform="translate(203.369141 0)"/>
      <use xlink:href="#DejaVuSans-74" transform="translate(266.748047 0)"/>
      <use xlink:href="#DejaVuSans-75" transform="translate(305.957031 0)"/>
      <use xlink:href="#DejaVuSans-6d" transform="translate(369.335938 0)"/>
      <use xlink:href="#DejaVuSans-20" transform="translate(466.748047 0)"/>
      <use xlink:href="#DejaVuSans-47" transform="translate(498.535156 0)"/>
      <use xlink:href="#DejaVuSans-61" transform="translate(576.025391 0)"/>
      <use xlink:href="#DejaVuSans-74" transform="translate(637.304688 0)"/>
      <use xlink:href="#DejaVuSans-65" transform="translate(676.513672 0)"/>
      <use xlink:href="#DejaVuSans-73" transform="translate(738.037109 0)"/>
      <use xlink:href="#DejaVuSans-20" transform="translate(790.136719 0)"/>
      <use xlink:href="#DejaVuSans-75" transform="translate(821.923828 0)"/>
      <use xlink:href="#DejaVuSans-73" transform="translate(885.302734 0)"/>
      <use xlink:href="#DejaVuSans-65" transform="translate(937.402344 0)"/>
      <use xlink:href="#DejaVuSans-64" transform="translate(998.925781 0)"/>
      <use xlink:href="#DejaVuSans-20" transform="translate(1062.402344 0)"/>
      <use xlink:href="#DejaVuSans-70" transform="translate(1094.189453 0)"/>
      <use xlink:href="#DejaVuSans-65" transform="translate(1157.666016 0)"/>
      <use xlink:href="#DejaVuSans-72" transform="translate(1219.189453 0)"/>
      <use xlink:href="#DejaVuSans-20" transform="translate(1260.302734 0)"/>
      <use xlink:href="#DejaVuSans-45" transform="translate(1292.089844 0)"/>
      <use xlink:href="#DejaVuSans-70" transform="translate(1355.273438 0)"/>
      <use xlink:href="#DejaVuSans-69" transform="translate(1418.75 0)"/>
      <use xlink:href="#DejaVuSans-73" transform="translate(1446.533203 0)"/>
      <use xlink:href="#DejaVuSans-6f" transform="translate(1498.632812 0)"/>
      <use xlink:href="#DejaVuSans-64" transform="translate(1559.814453 0)"/>
      <use xlink:href="#DejaVuSans-65" transform="translate(1623.291016 0)"/>
     </g>
    </g>
   </g>
   <g id="line2d_29">
    <path d="M 83.800909 242.899634 
L 84.615708 257.150517 
L 85.430507 250.025075 
L 86.245307 166.894925 
L 87.060106 181.145808 
L 87.874905 233.399045 
L 88.689704 261.900811 
L 89.504503 204.897279 
L 90.319302 181.145808 
L 91.134101 207.272426 
L 91.948901 100.390804 
L 92.7637 276.151694 
L 93.578499 193.021543 
L 94.393298 195.396691 
L 95.208097 86.139922 
L 96.022896 214.397868 
L 96.837696 266.651105 
L 97.652495 176.395513 
L 98.467294 240.524487 
L 99.282093 226.273604 
L 100.096892 254.77537 
L 100.911691 259.525664 
L 101.72649 136.018012 
L 102.54129 271.4014 
L 103.356089 98.015657 
L 104.170888 238.149339 
L 104.985687 133.642865 
L 105.800486 76.639333 
L 106.615285 76.639333 
L 107.430085 209.647574 
L 108.244884 181.145808 
L 109.059683 207.272426 
L 109.874482 185.896102 
L 110.689281 250.025075 
L 111.50408 126.517423 
L 112.318879 288.02743 
L 113.133679 252.400222 
L 114.763277 204.897279 
L 115.578076 314.154048 
L 116.392875 240.524487 
L 117.207674 304.65346 
L 118.022474 133.642865 
L 118.837273 326.029784 
L 119.652072 314.154048 
L 120.466871 212.022721 
L 121.28167 133.642865 
L 122.096469 159.769483 
L 122.911268 221.523309 
L 123.726068 212.022721 
L 124.540867 200.146985 
L 125.355666 79.01448 
L 126.170465 190.646396 
L 126.985264 195.396691 
L 127.800063 105.141099 
L 128.614863 209.647574 
L 129.429662 157.394336 
L 131.05926 202.522132 
L 132.688858 121.767129 
L 133.503658 159.769483 
L 134.318457 52.887861 
L 135.133256 140.768306 
L 135.948055 162.14463 
L 136.762854 276.151694 
L 137.577653 207.272426 
L 138.392452 60.013303 
L 139.207252 193.021543 
L 140.022051 257.150517 
L 140.83685 100.390804 
L 141.651649 133.642865 
L 142.466448 140.768306 
L 143.281247 183.520955 
L 144.096047 297.528018 
L 144.910846 228.648751 
L 145.725645 266.651105 
L 146.540444 212.022721 
L 147.355243 188.271249 
L 148.170042 221.523309 
L 148.984841 285.652283 
L 149.799641 202.522132 
L 150.61444 259.525664 
L 151.429239 114.641687 
L 152.244038 193.021543 
L 153.058837 166.894925 
L 153.873636 273.776547 
L 154.688436 247.649928 
L 155.503235 214.397868 
L 156.318034 233.399045 
L 157.132833 107.516246 
L 157.947632 209.647574 
L 158.762431 197.771838 
L 159.57723 264.275958 
L 160.39203 174.020366 
L 162.021628 197.771838 
L 162.836427 178.770661 
L 163.651226 140.768306 
L 164.466025 195.396691 
L 165.280825 240.524487 
L 166.095624 143.143453 
L 166.910423 171.645219 
L 167.725222 176.395513 
L 168.540021 128.89257 
L 169.35482 152.644042 
L 170.169619 162.14463 
L 170.984419 273.776547 
L 171.799218 223.898457 
L 172.614017 181.145808 
L 173.428816 159.769483 
L 174.243615 200.146985 
L 175.058414 147.893748 
L 175.873214 86.139922 
L 176.688013 185.896102 
L 177.502812 307.028607 
L 178.317611 150.268895 
L 179.13241 257.150517 
L 179.947209 209.647574 
L 180.762008 98.015657 
L 181.576808 195.396691 
L 182.391607 316.529196 
L 183.206406 207.272426 
L 184.021205 157.394336 
L 184.836004 257.150517 
L 185.650803 231.023898 
L 186.465603 174.020366 
L 187.280402 181.145808 
L 188.095201 112.26654 
L 188.91 185.896102 
L 189.724799 188.271249 
L 190.539598 185.896102 
L 191.354397 335.530373 
L 192.169197 216.773015 
L 192.983996 121.767129 
L 193.798795 250.025075 
L 194.613594 235.774192 
L 195.428393 164.519778 
L 196.243192 128.89257 
L 197.057992 157.394336 
L 197.872791 81.389627 
L 198.68759 250.025075 
L 199.502389 150.268895 
L 200.317188 174.020366 
L 201.131987 147.893748 
L 201.946786 159.769483 
L 202.761586 131.267717 
L 203.576385 226.273604 
L 204.391184 181.145808 
L 205.205983 202.522132 
L 206.020782 207.272426 
L 206.835581 155.019189 
L 207.650381 202.522132 
L 208.46518 88.515069 
L 209.279979 209.647574 
L 210.094778 112.26654 
L 210.909577 121.767129 
L 211.724376 212.022721 
L 212.539175 166.894925 
L 213.353975 212.022721 
L 214.168774 178.770661 
L 214.983573 79.01448 
L 215.798372 140.768306 
L 216.613171 157.394336 
L 217.42797 155.019189 
L 218.24277 131.267717 
L 219.057569 295.152871 
L 219.872368 326.029784 
L 220.687167 261.900811 
L 221.501966 252.400222 
L 222.316765 166.894925 
L 223.131564 181.145808 
L 223.946364 143.143453 
L 224.761163 250.025075 
L 225.575962 252.400222 
L 226.390761 278.526841 
L 227.20556 297.528018 
L 228.020359 295.152871 
L 228.835159 226.273604 
L 229.649958 109.891393 
L 230.464757 233.399045 
L 231.279556 145.5186 
L 232.094355 181.145808 
L 232.909154 204.897279 
L 233.723953 292.777724 
L 234.538753 152.644042 
L 235.353552 261.900811 
L 236.168351 259.525664 
L 236.98315 166.894925 
L 237.797949 207.272426 
L 238.612748 261.900811 
L 239.427548 200.146985 
L 240.242347 245.274781 
L 241.057146 79.01448 
L 241.871945 138.393159 
L 242.686744 209.647574 
L 243.501543 162.14463 
L 244.316342 176.395513 
L 245.131142 200.146985 
L 245.945941 121.767129 
L 246.76074 278.526841 
L 247.575539 112.26654 
L 248.390338 136.018012 
L 249.205137 259.525664 
L 250.019937 254.77537 
L 250.834736 257.150517 
L 251.649535 219.148162 
L 252.464334 164.519778 
L 253.279133 261.900811 
L 254.093932 233.399045 
L 254.908732 159.769483 
L 256.53833 228.648751 
L 257.353129 252.400222 
L 258.167928 176.395513 
L 258.982727 185.896102 
L 259.797526 114.641687 
L 260.612326 190.646396 
L 261.427125 247.649928 
L 262.241924 112.26654 
L 263.056723 155.019189 
L 263.871522 100.390804 
L 264.686321 195.396691 
L 265.501121 195.396691 
L 266.31592 212.022721 
L 267.130719 214.397868 
L 267.945518 278.526841 
L 268.760317 183.520955 
L 269.575116 337.90552 
L 270.389915 221.523309 
L 271.204715 285.652283 
L 272.019514 221.523309 
L 272.834313 219.148162 
L 273.649112 292.777724 
L 274.463911 81.389627 
L 275.27871 345.030961 
L 276.09351 233.399045 
L 276.908309 190.646396 
L 277.723108 197.771838 
L 278.537907 157.394336 
L 279.352706 102.765952 
L 280.167505 169.270072 
L 280.982304 226.273604 
L 281.797104 223.898457 
L 282.611903 231.023898 
L 283.426702 169.270072 
L 284.241501 209.647574 
L 285.0563 185.896102 
L 285.871099 155.019189 
L 286.685899 150.268895 
L 287.500698 195.396691 
L 288.315497 138.393159 
L 289.130296 221.523309 
L 289.945095 214.397868 
L 290.759894 159.769483 
L 291.574693 254.77537 
L 292.389493 69.513891 
L 293.204292 216.773015 
L 294.019091 190.646396 
L 294.83389 83.764774 
L 295.648689 140.768306 
L 296.463488 216.773015 
L 298.093087 174.020366 
L 298.907886 117.016835 
L 299.722685 124.142276 
L 300.537484 226.273604 
L 301.352283 271.4014 
L 302.167082 223.898457 
L 302.981882 166.894925 
L 303.796681 81.389627 
L 304.61148 174.020366 
L 305.426279 121.767129 
L 306.241078 200.146985 
L 307.055877 176.395513 
L 307.870677 190.646396 
L 308.685476 145.5186 
L 309.500275 74.264186 
L 310.315074 119.391982 
L 311.129873 238.149339 
L 311.944672 76.639333 
L 312.759471 171.645219 
L 313.574271 212.022721 
L 314.38907 138.393159 
L 315.203869 105.141099 
L 316.018668 250.025075 
L 316.833467 228.648751 
L 317.648266 176.395513 
L 318.463066 197.771838 
L 320.092664 126.517423 
L 320.907463 259.525664 
L 321.722262 181.145808 
L 322.537061 233.399045 
L 323.35186 185.896102 
L 324.16666 252.400222 
L 324.981459 131.267717 
L 325.796258 292.777724 
L 327.425856 95.64051 
L 328.240655 214.397868 
L 329.055455 155.019189 
L 329.870254 169.270072 
L 330.685053 109.891393 
L 331.499852 121.767129 
L 332.314651 240.524487 
L 333.12945 231.023898 
L 333.944249 200.146985 
L 334.759049 226.273604 
L 335.573848 226.273604 
L 336.388647 119.391982 
L 337.203446 273.776547 
L 338.018245 273.776547 
L 338.833044 223.898457 
L 339.647844 207.272426 
L 340.462643 121.767129 
L 341.277442 145.5186 
L 342.092241 100.390804 
L 342.90704 185.896102 
L 343.721839 233.399045 
L 344.536638 162.14463 
L 345.351438 112.26654 
L 346.166237 185.896102 
L 346.981036 193.021543 
L 347.795835 231.023898 
L 348.610634 226.273604 
L 349.425433 88.515069 
L 350.240233 245.274781 
L 351.055032 250.025075 
L 351.869831 257.150517 
L 352.68463 231.023898 
L 353.499429 297.528018 
L 355.129027 76.639333 
L 355.943827 223.898457 
L 356.758626 231.023898 
L 357.573425 257.150517 
L 358.388224 74.264186 
L 359.203023 204.897279 
L 360.017822 121.767129 
L 360.832622 109.891393 
L 361.647421 197.771838 
L 362.46222 181.145808 
L 363.277019 288.02743 
L 364.091818 162.14463 
L 364.906617 171.645219 
L 365.721416 136.018012 
L 366.536216 276.151694 
L 367.351015 195.396691 
L 368.165814 200.146985 
L 368.980613 145.5186 
L 369.795412 117.016835 
L 370.610211 140.768306 
L 371.425011 214.397868 
L 372.23981 131.267717 
L 373.054609 188.271249 
L 373.869408 212.022721 
L 374.684207 271.4014 
L 375.499006 166.894925 
L 376.313805 176.395513 
L 377.128605 157.394336 
L 377.943404 166.894925 
L 378.758203 152.644042 
L 379.573002 200.146985 
L 380.387801 117.016835 
L 381.2026 207.272426 
L 382.0174 195.396691 
L 382.832199 226.273604 
L 383.646998 235.774192 
L 384.461797 252.400222 
L 385.276596 178.770661 
L 386.091395 228.648751 
L 386.906195 207.272426 
L 387.720994 245.274781 
L 388.535793 373.532727 
L 389.350592 261.900811 
L 390.165391 292.777724 
L 390.98019 124.142276 
L 392.609789 226.273604 
L 393.424588 100.390804 
L 395.054186 297.528018 
L 395.868985 176.395513 
L 396.683784 188.271249 
L 397.498584 261.900811 
L 398.313383 171.645219 
L 399.128182 219.148162 
L 399.942981 178.770661 
L 400.75778 117.016835 
L 401.572579 228.648751 
L 402.387378 107.516246 
L 403.202178 295.152871 
L 404.016977 164.519778 
L 404.831776 257.150517 
L 405.646575 193.021543 
L 406.461374 290.402577 
L 407.276173 102.765952 
L 408.090973 212.022721 
L 408.905772 250.025075 
L 409.720571 212.022721 
L 410.53537 283.277135 
L 411.350169 114.641687 
L 412.164968 254.77537 
L 412.979767 216.773015 
L 413.794567 223.898457 
L 414.609366 197.771838 
L 415.424165 292.777724 
L 416.238964 145.5186 
L 417.053763 136.018012 
L 418.683362 150.268895 
L 419.498161 150.268895 
L 420.31296 162.14463 
L 421.127759 133.642865 
L 421.942558 261.900811 
L 422.757357 254.77537 
L 423.572156 285.652283 
L 424.386956 178.770661 
L 425.201755 164.519778 
L 426.016554 188.271249 
L 426.831353 133.642865 
L 427.646152 145.5186 
L 428.460951 219.148162 
L 429.275751 193.021543 
L 430.09055 214.397868 
L 430.905349 288.02743 
L 431.720148 266.651105 
L 432.534947 143.143453 
L 433.349746 228.648751 
L 434.164545 216.773015 
L 434.979345 235.774192 
L 435.794144 288.02743 
L 436.608943 152.644042 
L 437.423742 138.393159 
L 438.238541 150.268895 
L 439.05334 176.395513 
L 439.86814 185.896102 
L 440.682939 81.389627 
L 441.497738 302.278313 
L 442.312537 216.773015 
L 443.127336 233.399045 
L 443.942135 157.394336 
L 444.756934 176.395513 
L 445.571734 261.900811 
L 446.386533 98.015657 
L 447.201332 259.525664 
L 448.016131 169.270072 
L 448.83093 119.391982 
L 449.645729 307.028607 
L 450.460529 197.771838 
L 451.275328 164.519778 
L 452.090127 216.773015 
L 452.904926 138.393159 
L 453.719725 164.519778 
L 454.534524 216.773015 
L 455.349323 285.652283 
L 456.164123 176.395513 
L 456.978922 176.395513 
L 457.793721 259.525664 
L 458.60852 138.393159 
L 459.423319 112.26654 
L 460.238118 185.896102 
L 461.052918 204.897279 
L 461.867717 188.271249 
L 462.682516 109.891393 
L 464.312114 359.281844 
L 465.126913 200.146985 
L 465.941712 247.649928 
L 466.756512 174.020366 
L 467.571311 128.89257 
L 468.38611 297.528018 
L 469.200909 166.894925 
L 470.015708 269.026252 
L 470.830507 159.769483 
L 471.645307 288.02743 
L 472.460106 74.264186 
L 473.274905 131.267717 
L 474.089704 219.148162 
L 474.904503 133.642865 
L 475.719302 233.399045 
L 476.534101 190.646396 
L 477.348901 105.141099 
L 478.1637 178.770661 
L 478.978499 283.277135 
L 479.793298 109.891393 
L 480.608097 285.652283 
L 481.422896 145.5186 
L 482.237696 140.768306 
L 483.052495 231.023898 
L 483.867294 171.645219 
L 484.682093 86.139922 
L 485.496892 162.14463 
L 486.311691 259.525664 
L 487.12649 183.520955 
L 487.94129 171.645219 
L 488.756089 183.520955 
L 489.570888 219.148162 
L 490.385687 219.148162 
L 491.200486 212.022721 
L 492.015285 240.524487 
L 492.830085 235.774192 
L 493.644884 185.896102 
L 494.459683 233.399045 
L 495.274482 288.02743 
L 496.089281 209.647574 
L 496.90408 252.400222 
L 497.718879 247.649928 
L 498.533679 166.894925 
L 499.348478 226.273604 
L 500.163277 143.143453 
L 500.978076 259.525664 
L 501.792875 245.274781 
L 502.607674 107.516246 
L 503.422474 188.271249 
L 504.237273 43.387273 
L 505.052072 292.777724 
L 505.866871 162.14463 
L 506.68167 307.028607 
L 507.496469 259.525664 
L 509.126068 98.015657 
L 509.940867 102.765952 
L 510.755666 264.275958 
L 511.570465 128.89257 
L 512.385264 238.149339 
L 513.200063 152.644042 
L 514.014863 221.523309 
L 514.829662 207.272426 
L 516.45926 143.143453 
L 518.088858 195.396691 
L 518.903658 226.273604 
L 519.718457 214.397868 
L 520.533256 133.642865 
L 521.348055 214.397868 
L 522.162854 117.016835 
L 522.977653 252.400222 
L 523.792452 185.896102 
L 524.607252 209.647574 
L 525.422051 190.646396 
L 526.23685 280.901988 
L 527.051649 240.524487 
L 527.866448 254.77537 
L 528.681247 145.5186 
L 529.496047 207.272426 
L 530.310846 226.273604 
L 531.125645 76.639333 
L 531.940444 235.774192 
L 532.755243 290.402577 
L 533.570042 209.647574 
L 534.384841 112.26654 
L 535.199641 226.273604 
L 536.01444 207.272426 
L 536.829239 266.651105 
L 537.644038 200.146985 
L 538.458837 152.644042 
L 539.273636 166.894925 
L 540.088436 162.14463 
L 540.903235 261.900811 
L 541.718034 240.524487 
L 542.532833 250.025075 
L 543.347632 64.763597 
L 544.162431 90.890216 
L 544.97723 247.649928 
L 545.79203 128.89257 
L 546.606829 264.275958 
L 547.421628 231.023898 
L 548.236427 204.897279 
L 549.051226 169.270072 
L 549.866025 140.768306 
L 550.680825 202.522132 
L 551.495624 297.528018 
L 552.310423 195.396691 
L 553.125222 214.397868 
L 553.940021 271.4014 
L 554.75482 155.019189 
L 555.569619 207.272426 
L 556.384419 126.517423 
L 557.199218 145.5186 
L 558.014017 209.647574 
L 558.828816 155.019189 
L 559.643615 145.5186 
L 560.458414 257.150517 
L 561.273214 136.018012 
L 562.088013 219.148162 
L 562.902812 212.022721 
L 563.717611 169.270072 
L 564.53241 233.399045 
L 565.347209 128.89257 
L 566.162008 259.525664 
L 566.976808 276.151694 
L 567.791607 195.396691 
L 569.421205 235.774192 
L 570.236004 228.648751 
L 571.050803 212.022721 
L 571.865603 290.402577 
L 572.680402 209.647574 
L 573.495201 226.273604 
L 574.31 162.14463 
L 575.124799 235.774192 
L 575.939598 207.272426 
L 576.754397 216.773015 
L 577.569197 216.773015 
L 578.383996 231.023898 
L 579.198795 121.767129 
L 580.013594 266.651105 
L 580.828393 119.391982 
L 581.643192 143.143453 
L 582.457992 124.142276 
L 583.272791 283.277135 
L 584.08759 166.894925 
L 584.902389 226.273604 
L 586.531987 140.768306 
L 587.346786 88.515069 
L 588.161586 138.393159 
L 588.976385 231.023898 
L 589.791184 76.639333 
L 590.605983 288.02743 
L 591.420782 155.019189 
L 592.235581 169.270072 
L 593.050381 102.765952 
L 593.86518 157.394336 
L 594.679979 228.648751 
L 595.494778 131.267717 
L 596.309577 93.265363 
L 597.124376 221.523309 
L 597.939175 221.523309 
L 598.753975 147.893748 
L 599.568774 136.018012 
L 600.383573 133.642865 
L 601.198372 162.14463 
L 602.013171 174.020366 
L 602.82797 195.396691 
L 603.64277 266.651105 
L 604.457569 226.273604 
L 605.272368 169.270072 
L 606.087167 197.771838 
L 606.901966 107.516246 
L 607.716765 276.151694 
L 608.531564 124.142276 
L 609.346364 226.273604 
L 610.161163 309.403754 
L 610.975962 171.645219 
L 611.790761 200.146985 
L 612.60556 216.773015 
L 613.420359 202.522132 
L 614.235159 200.146985 
L 615.049958 252.400222 
L 615.864757 178.770661 
L 616.679556 318.904343 
L 617.494355 190.646396 
L 618.309154 200.146985 
L 619.123953 171.645219 
L 619.938753 240.524487 
L 620.753552 245.274781 
L 621.568351 261.900811 
L 622.38315 200.146985 
L 623.197949 271.4014 
L 624.012748 169.270072 
L 624.827548 290.402577 
L 625.642347 200.146985 
L 626.457146 299.903165 
L 627.271945 162.14463 
L 628.086744 304.65346 
L 628.901543 216.773015 
L 629.716342 174.020366 
L 630.531142 185.896102 
L 631.345941 157.394336 
L 632.16074 302.278313 
L 632.975539 169.270072 
L 633.790338 311.778901 
L 634.605137 181.145808 
L 635.419937 136.018012 
L 636.234736 171.645219 
L 637.049535 176.395513 
L 637.864334 169.270072 
L 638.679133 202.522132 
L 639.493932 183.520955 
L 640.308732 264.275958 
L 641.123531 202.522132 
L 641.93833 212.022721 
L 642.753129 169.270072 
L 643.567928 114.641687 
L 644.382727 178.770661 
L 645.197526 254.77537 
L 646.012326 171.645219 
L 646.827125 128.89257 
L 647.641924 169.270072 
L 648.456723 261.900811 
L 649.271522 202.522132 
L 650.901121 311.778901 
L 652.530719 157.394336 
L 653.345518 188.271249 
L 654.160317 162.14463 
L 654.975116 269.026252 
L 655.789915 280.901988 
L 657.419514 138.393159 
L 658.234313 90.890216 
L 659.049112 145.5186 
L 659.863911 166.894925 
L 660.67871 204.897279 
L 661.49351 145.5186 
L 662.308309 261.900811 
L 663.123108 143.143453 
L 663.937907 126.517423 
L 664.752706 223.898457 
L 666.382304 164.519778 
L 667.197104 124.142276 
L 668.011903 209.647574 
L 668.826702 202.522132 
L 669.641501 164.519778 
L 670.4563 228.648751 
L 671.271099 209.647574 
L 672.085899 207.272426 
L 672.900698 280.901988 
L 673.715497 223.898457 
L 674.530296 145.5186 
L 675.345095 226.273604 
L 676.159894 131.267717 
L 676.974693 316.529196 
L 677.789493 147.893748 
L 678.604292 193.021543 
L 679.419091 202.522132 
L 679.419091 202.522132 
" clip-path="url(#p080e010ffc)" style="fill: none; stroke: #1f77b4; stroke-width: 1.5; stroke-linecap: square"/>
   </g>
   <g id="patch_3">
    <path d="M 54.02 390.04 
L 54.02 26.88 
" style="fill: none; stroke: #000000; stroke-width: 0.8; stroke-linejoin: miter; stroke-linecap: square"/>
   </g>
   <g id="patch_4">
    <path d="M 709.2 390.04 
L 709.2 26.88 
" style="fill: none; stroke: #000000; stroke-width: 0.8; stroke-linejoin: miter; stroke-linecap: square"/>
   </g>
   <g id="patch_5">
    <path d="M 54.02 390.04 
L 709.2 390.04 
" style="fill: none; stroke: #000000; stroke-width: 0.8; stroke-linejoin: miter; stroke-linecap: square"/>
   </g>
   <g id="patch_6">
    <path d="M 54.02 26.88 
L 709.2 26.88 
" style="fill: none; stroke: #000000; stroke-width: 0.8; stroke-linejoin: miter; stroke-linecap: square"/>
   </g>
   <g id="text_17">
    <!-- Quantum Gates used per Episode -->
    <g transform="translate(280.52125 20.88) scale(0.12 -0.12)">
     <use xlink:href="#DejaVuSans-51"/>
     <use xlink:href="#DejaVuSans-75" transform="translate(78.710938 0)"/>
     <use xlink:href="#DejaVuSans-61" transform="translate(142.089844 0)"/>
     <use xlink:href="#DejaVuSans-6e" transform="translate(203.369141 0)"/>
     <use xlink:href="#DejaVuSans-74" transform="translate(266.748047 0)"/>
     <use xlink:href="#DejaVuSans-75" transform="translate(305.957031 0)"/>
     <use xlink:href="#DejaVuSans-6d" transform="translate(369.335938 0)"/>
     <use xlink:href="#DejaVuSans-20" transform="translate(466.748047 0)"/>
     <use xlink:href="#DejaVuSans-47" transform="translate(498.535156 0)"/>
     <use xlink:href="#DejaVuSans-61" transform="translate(576.025391 0)"/>
     <use xlink:href="#DejaVuSans-74" transform="translate(637.304688 0)"/>
     <use xlink:href="#DejaVuSans-65" transform="translate(676.513672 0)"/>
     <use xlink:href="#DejaVuSans-73" transform="translate(738.037109 0)"/>
     <use xlink:href="#DejaVuSans-20" transform="translate(790.136719 0)"/>
     <use xlink:href="#DejaVuSans-75" transform="translate(821.923828 0)"/>
     <use xlink:href="#DejaVuSans-73" transform="translate(885.302734 0)"/>
     <use xlink:href="#DejaVuSans-65" transform="translate(937.402344 0)"/>
     <use xlink:href="#DejaVuSans-64" transform="translate(998.925781 0)"/>
     <use xlink:href="#DejaVuSans-20" transform="translate(1062.402344 0)"/>
     <use xlink:href="#DejaVuSans-70" transform="translate(1094.189453 0)"/>
     <use xlink:href="#DejaVuSans-65" transform="translate(1157.666016 0)"/>
     <use xlink:href="#DejaVuSans-72" transform="translate(1219.189453 0)"/>
     <use xlink:href="#DejaVuSans-20" transform="translate(1260.302734 0)"/>
     <use xlink:href="#DejaVuSans-45" transform="translate(1292.089844 0)"/>
     <use xlink:href="#DejaVuSans-70" transform="translate(1355.273438 0)"/>
     <use xlink:href="#DejaVuSans-69" transform="translate(1418.75 0)"/>
     <use xlink:href="#DejaVuSans-73" transform="translate(1446.533203 0)"/>
     <use xlink:href="#DejaVuSans-6f" transform="translate(1498.632812 0)"/>
     <use xlink:href="#DejaVuSans-64" transform="translate(1559.814453 0)"/>
     <use xlink:href="#DejaVuSans-65" transform="translate(1623.291016 0)"/>
    </g>
   </g>
   <g id="legend_1">
    <g id="patch_7">
     <path d="M 61.02 49.558125 
L 357.1575 49.558125 
Q 359.1575 49.558125 359.1575 47.558125 
L 359.1575 33.88 
Q 359.1575 31.88 357.1575 31.88 
L 61.02 31.88 
Q 59.02 31.88 59.02 33.88 
L 59.02 47.558125 
Q 59.02 49.558125 61.02 49.558125 
z
" style="fill: #ffffff; opacity: 0.8; stroke: #cccccc; stroke-linejoin: miter"/>
    </g>
    <g id="line2d_30">
     <path d="M 63.02 39.978438 
L 73.02 39.978438 
L 83.02 39.978438 
" style="fill: none; stroke: #1f77b4; stroke-width: 1.5; stroke-linecap: square"/>
    </g>
    <g id="text_18">
     <!-- Average Episode Quantum Gates used (75 episodes) -->
     <g transform="translate(91.02 43.478438) scale(0.1 -0.1)">
      <defs>
       <path id="DejaVuSans-41" d="M 2188 4044 
L 1331 1722 
L 3047 1722 
L 2188 4044 
z
M 1831 4666 
L 2547 4666 
L 4325 0 
L 3669 0 
L 3244 1197 
L 1141 1197 
L 716 0 
L 50 0 
L 1831 4666 
z
" transform="scale(0.015625)"/>
       <path id="DejaVuSans-76" d="M 191 3500 
L 800 3500 
L 1894 563 
L 2988 3500 
L 3597 3500 
L 2284 0 
L 1503 0 
L 191 3500 
z
" transform="scale(0.015625)"/>
       <path id="DejaVuSans-67" d="M 2906 1791 
Q 2906 2416 2648 2759 
Q 2391 3103 1925 3103 
Q 1463 3103 1205 2759 
Q 947 2416 947 1791 
Q 947 1169 1205 825 
Q 1463 481 1925 481 
Q 2391 481 2648 825 
Q 2906 1169 2906 1791 
z
M 3481 434 
Q 3481 -459 3084 -895 
Q 2688 -1331 1869 -1331 
Q 1566 -1331 1297 -1286 
Q 1028 -1241 775 -1147 
L 775 -588 
Q 1028 -725 1275 -790 
Q 1522 -856 1778 -856 
Q 2344 -856 2625 -561 
Q 2906 -266 2906 331 
L 2906 616 
Q 2728 306 2450 153 
Q 2172 0 1784 0 
Q 1141 0 747 490 
Q 353 981 353 1791 
Q 353 2603 747 3093 
Q 1141 3584 1784 3584 
Q 2172 3584 2450 3431 
Q 2728 3278 2906 2969 
L 2906 3500 
L 3481 3500 
L 3481 434 
z
" transform="scale(0.015625)"/>
       <path id="DejaVuSans-28" d="M 1984 4856 
Q 1566 4138 1362 3434 
Q 1159 2731 1159 2009 
Q 1159 1288 1364 580 
Q 1569 -128 1984 -844 
L 1484 -844 
Q 1016 -109 783 600 
Q 550 1309 550 2009 
Q 550 2706 781 3412 
Q 1013 4119 1484 4856 
L 1984 4856 
z
" transform="scale(0.015625)"/>
       <path id="DejaVuSans-29" d="M 513 4856 
L 1013 4856 
Q 1481 4119 1714 3412 
Q 1947 2706 1947 2009 
Q 1947 1309 1714 600 
Q 1481 -109 1013 -844 
L 513 -844 
Q 928 -128 1133 580 
Q 1338 1288 1338 2009 
Q 1338 2731 1133 3434 
Q 928 4138 513 4856 
z
" transform="scale(0.015625)"/>
      </defs>
      <use xlink:href="#DejaVuSans-41"/>
      <use xlink:href="#DejaVuSans-76" transform="translate(62.533203 0)"/>
      <use xlink:href="#DejaVuSans-65" transform="translate(121.712891 0)"/>
      <use xlink:href="#DejaVuSans-72" transform="translate(183.236328 0)"/>
      <use xlink:href="#DejaVuSans-61" transform="translate(224.349609 0)"/>
      <use xlink:href="#DejaVuSans-67" transform="translate(285.628906 0)"/>
      <use xlink:href="#DejaVuSans-65" transform="translate(349.105469 0)"/>
      <use xlink:href="#DejaVuSans-20" transform="translate(410.628906 0)"/>
      <use xlink:href="#DejaVuSans-45" transform="translate(442.416016 0)"/>
      <use xlink:href="#DejaVuSans-70" transform="translate(505.599609 0)"/>
      <use xlink:href="#DejaVuSans-69" transform="translate(569.076172 0)"/>
      <use xlink:href="#DejaVuSans-73" transform="translate(596.859375 0)"/>
      <use xlink:href="#DejaVuSans-6f" transform="translate(648.958984 0)"/>
      <use xlink:href="#DejaVuSans-64" transform="translate(710.140625 0)"/>
      <use xlink:href="#DejaVuSans-65" transform="translate(773.617188 0)"/>
      <use xlink:href="#DejaVuSans-20" transform="translate(835.140625 0)"/>
      <use xlink:href="#DejaVuSans-51" transform="translate(866.927734 0)"/>
      <use xlink:href="#DejaVuSans-75" transform="translate(945.638672 0)"/>
      <use xlink:href="#DejaVuSans-61" transform="translate(1009.017578 0)"/>
      <use xlink:href="#DejaVuSans-6e" transform="translate(1070.296875 0)"/>
      <use xlink:href="#DejaVuSans-74" transform="translate(1133.675781 0)"/>
      <use xlink:href="#DejaVuSans-75" transform="translate(1172.884766 0)"/>
      <use xlink:href="#DejaVuSans-6d" transform="translate(1236.263672 0)"/>
      <use xlink:href="#DejaVuSans-20" transform="translate(1333.675781 0)"/>
      <use xlink:href="#DejaVuSans-47" transform="translate(1365.462891 0)"/>
      <use xlink:href="#DejaVuSans-61" transform="translate(1442.953125 0)"/>
      <use xlink:href="#DejaVuSans-74" transform="translate(1504.232422 0)"/>
      <use xlink:href="#DejaVuSans-65" transform="translate(1543.441406 0)"/>
      <use xlink:href="#DejaVuSans-73" transform="translate(1604.964844 0)"/>
      <use xlink:href="#DejaVuSans-20" transform="translate(1657.064453 0)"/>
      <use xlink:href="#DejaVuSans-75" transform="translate(1688.851562 0)"/>
      <use xlink:href="#DejaVuSans-73" transform="translate(1752.230469 0)"/>
      <use xlink:href="#DejaVuSans-65" transform="translate(1804.330078 0)"/>
      <use xlink:href="#DejaVuSans-64" transform="translate(1865.853516 0)"/>
      <use xlink:href="#DejaVuSans-20" transform="translate(1929.330078 0)"/>
      <use xlink:href="#DejaVuSans-28" transform="translate(1961.117188 0)"/>
      <use xlink:href="#DejaVuSans-37" transform="translate(2000.130859 0)"/>
      <use xlink:href="#DejaVuSans-35" transform="translate(2063.753906 0)"/>
      <use xlink:href="#DejaVuSans-20" transform="translate(2127.376953 0)"/>
      <use xlink:href="#DejaVuSans-65" transform="translate(2159.164062 0)"/>
      <use xlink:href="#DejaVuSans-70" transform="translate(2220.6875 0)"/>
      <use xlink:href="#DejaVuSans-69" transform="translate(2284.164062 0)"/>
      <use xlink:href="#DejaVuSans-73" transform="translate(2311.947266 0)"/>
      <use xlink:href="#DejaVuSans-6f" transform="translate(2364.046875 0)"/>
      <use xlink:href="#DejaVuSans-64" transform="translate(2425.228516 0)"/>
      <use xlink:href="#DejaVuSans-65" transform="translate(2488.705078 0)"/>
      <use xlink:href="#DejaVuSans-73" transform="translate(2550.228516 0)"/>
      <use xlink:href="#DejaVuSans-29" transform="translate(2602.328125 0)"/>
     </g>
    </g>
   </g>
  </g>
 </g>
 <defs>
  <clipPath id="p080e010ffc">
   <rect x="54.02" y="26.88" width="655.18" height="363.16"/>
  </clipPath>
 </defs>
</svg>
