<?xml version="1.0" encoding="utf-8" standalone="no"?>
<!DOCTYPE svg PUBLIC "-//W3C//DTD SVG 1.1//EN"
  "http://www.w3.org/Graphics/SVG/1.1/DTD/svg11.dtd">
<svg xmlns:xlink="http://www.w3.org/1999/xlink" width="720pt" height="432pt" viewBox="0 0 720 432" xmlns="http://www.w3.org/2000/svg" version="1.1">
 <metadata>
  <rdf:RDF xmlns:dc="http://purl.org/dc/elements/1.1/" xmlns:cc="http://creativecommons.org/ns#" xmlns:rdf="http://www.w3.org/1999/02/22-rdf-syntax-ns#">
   <cc:Work>
    <dc:type rdf:resource="http://purl.org/dc/dcmitype/StillImage"/>
    <dc:date>2025-04-15T14:49:43.723865</dc:date>
    <dc:format>image/svg+xml</dc:format>
    <dc:creator>
     <cc:Agent>
      <dc:title>Matplotlib v3.10.0, https://matplotlib.org/</dc:title>
     </cc:Agent>
    </dc:creator>
   </cc:Work>
  </rdf:RDF>
 </metadata>
 <defs>
  <style type="text/css">*{stroke-linejoin: round; stroke-linecap: butt}</style>
 </defs>
 <g id="figure_1">
  <g id="patch_1">
   <path d="M 0 432 
L 720 432 
L 720 0 
L 0 0 
z
" style="fill: #ffffff"/>
  </g>
  <g id="axes_1">
   <g id="patch_2">
    <path d="M 50.87 390.04 
L 707.12035 390.04 
L 707.12035 10.8 
L 50.87 10.8 
z
" style="fill: #ffffff"/>
   </g>
   <g id="FillBetweenPolyCollection_1">
    <path d="M 80.699561 339.358429 
L 80.699561 360.918488 
L 83.759004 359.372601 
L 86.818446 358.963273 
L 89.877888 360.36412 
L 92.93733 359.175869 
L 95.996772 360.428152 
L 99.056214 363.104587 
L 102.115657 361.929705 
L 105.175099 362.976241 
L 108.234541 364.847147 
L 111.293983 372.801818 
L 114.353425 361.166235 
L 117.412868 360.766405 
L 120.47231 335.535942 
L 123.531752 306.37228 
L 126.591194 275.902767 
L 129.650636 244.963238 
L 132.710079 181.560205 
L 135.769521 131.444959 
L 138.828963 107.580136 
L 141.888405 92.144556 
L 144.947847 85.507892 
L 148.00729 71.461153 
L 151.066732 68.303282 
L 154.126174 85.559796 
L 157.185616 62.457533 
L 160.245058 62.40647 
L 163.3045 73.175226 
L 166.363943 64.772731 
L 169.423385 59.980785 
L 172.482827 68.385781 
L 175.542269 63.448036 
L 178.601711 57.490359 
L 181.661154 62.374275 
L 184.720596 56.336014 
L 187.780038 62.434664 
L 190.83948 58.788436 
L 193.898922 63.592567 
L 196.958365 58.689593 
L 200.017807 57.529259 
L 203.077249 58.702607 
L 206.136691 57.514504 
L 209.196133 64.916207 
L 212.255575 62.272617 
L 215.315018 56.833695 
L 218.37446 58.8193 
L 221.433902 62.485425 
L 224.493344 70.888064 
L 227.552786 59.997576 
L 230.612229 56.30372 
L 233.671671 59.997155 
L 236.731113 61.099496 
L 239.790555 63.580662 
L 242.849997 64.75414 
L 245.90944 62.38639 
L 248.968882 57.527633 
L 252.028324 115.739538 
L 255.087766 99.668581 
L 258.147208 88.862594 
L 261.206651 77.984807 
L 264.266093 80.36502 
L 267.325535 79.264846 
L 270.384977 72.528102 
L 273.444419 63.581341 
L 276.503861 63.590653 
L 279.563304 62.368454 
L 282.622746 71.953151 
L 285.682188 70.705685 
L 288.74163 65.939701 
L 291.801072 81.632363 
L 294.860515 129.842365 
L 297.919957 149.419515 
L 300.979399 144.510019 
L 304.038841 122.510027 
L 307.098283 99.225348 
L 310.157726 91.599549 
L 313.217168 94.45815 
L 316.27661 227.038754 
L 319.336052 175.697804 
L 322.395494 147.545153 
L 325.454937 136.305962 
L 328.514379 157.459818 
L 331.573821 123.01251 
L 334.633263 157.972146 
L 337.692705 137.130714 
L 340.752147 101.506457 
L 343.81159 124.489225 
L 346.871032 118.983687 
L 349.930474 110.92144 
L 352.989916 190.266086 
L 356.049358 142.955057 
L 359.108801 132.299849 
L 362.168243 133.840338 
L 365.227685 159.198284 
L 368.287127 128.61164 
L 371.346569 144.629487 
L 374.406012 137.915097 
L 377.465454 138.587134 
L 380.524896 149.901909 
L 383.584338 200.344242 
L 386.64378 153.287938 
L 389.703222 142.494475 
L 392.762665 117.051927 
L 395.822107 130.073528 
L 398.881549 118.244599 
L 401.940991 125.506269 
L 405.000433 103.208722 
L 408.059876 125.249393 
L 411.119318 127.075394 
L 414.17876 112.448786 
L 417.238202 87.252757 
L 420.297644 102.614376 
L 423.357087 90.630943 
L 426.416529 93.412944 
L 429.475971 106.951354 
L 432.535413 114.205391 
L 435.594855 127.113573 
L 438.654298 137.687813 
L 441.71374 103.637329 
L 444.773182 123.513967 
L 447.832624 123.055689 
L 450.892066 72.286445 
L 453.951508 57.570721 
L 457.010951 58.732088 
L 460.070393 56.27861 
L 463.129835 61.260224 
L 466.189277 61.153246 
L 469.248719 73.255515 
L 472.308162 55.099455 
L 475.367604 59.954842 
L 478.427046 58.774853 
L 481.486488 53.86246 
L 484.54593 52.666779 
L 487.605373 52.6663 
L 490.664815 56.347491 
L 493.724257 53.894838 
L 496.783699 55.091023 
L 499.843141 55.136372 
L 502.902584 56.336846 
L 505.962026 57.486396 
L 509.021468 182.597932 
L 512.08091 141.998921 
L 515.140352 56.311909 
L 518.199794 53.868616 
L 521.259237 52.666701 
L 524.318679 55.059244 
L 527.378121 56.268335 
L 530.437563 55.082049 
L 533.497005 74.641729 
L 536.556448 186.939591 
L 539.61589 112.131165 
L 542.675332 56.300635 
L 545.734774 56.309043 
L 548.794216 142.478467 
L 551.853659 64.910564 
L 554.913101 61.176795 
L 557.972543 55.116664 
L 561.031985 56.346405 
L 564.091427 53.873961 
L 567.150869 53.865169 
L 570.210312 53.883056 
L 573.269754 53.873576 
L 576.329196 61.068681 
L 579.388638 53.860211 
L 582.44808 53.858928 
L 585.507523 55.135707 
L 588.566965 53.865185 
L 591.626407 52.6663 
L 594.685849 55.079691 
L 597.745291 70.80553 
L 600.804734 52.666533 
L 603.864176 53.870195 
L 606.923618 69.58137 
L 609.98306 53.900925 
L 613.042502 185.300774 
L 616.101945 57.518611 
L 619.161387 53.872152 
L 622.220829 82.806376 
L 625.280271 195.967739 
L 628.339713 166.700452 
L 631.399155 66.166684 
L 634.458598 52.666761 
L 637.51804 53.900901 
L 640.577482 52.66641 
L 643.636924 52.6663 
L 646.696366 109.846936 
L 649.755809 57.497443 
L 652.815251 53.864913 
L 655.874693 53.901034 
L 658.934135 55.072837 
L 661.993577 55.107913 
L 665.05302 52.66641 
L 668.112462 52.66663 
L 671.171904 52.66666 
L 674.231346 53.900901 
L 677.290788 52.667047 
L 677.290788 52.618108 
L 677.290788 52.618108 
L 674.231346 52.406384 
L 671.171904 52.618123 
L 668.112462 52.618153 
L 665.05302 52.618153 
L 661.993577 52.199373 
L 658.934135 52.205402 
L 655.874693 52.406524 
L 652.815251 52.412611 
L 649.755809 51.78967 
L 646.696366 43.392109 
L 643.636924 52.618153 
L 640.577482 52.618153 
L 637.51804 52.406384 
L 634.458598 52.618109 
L 631.399155 50.302516 
L 628.339713 33.058312 
L 625.280271 28.038182 
L 622.220829 47.448648 
L 619.161387 52.411338 
L 616.101945 51.786134 
L 613.042502 29.866851 
L 609.98306 52.406524 
L 606.923618 49.717226 
L 603.864176 52.411661 
L 600.804734 52.61814 
L 597.745291 49.506949 
L 594.685849 52.20437 
L 591.626407 52.618153 
L 588.566965 52.412712 
L 585.507523 52.194891 
L 582.44808 52.413585 
L 579.388638 52.413388 
L 576.329196 51.177107 
L 573.269754 52.411415 
L 570.210312 52.40959 
L 567.150869 52.413057 
L 564.091427 52.411381 
L 561.031985 51.986892 
L 557.972543 52.201883 
L 554.913101 51.167143 
L 551.853659 50.517833 
L 548.794216 37.212932 
L 545.734774 51.99933 
L 542.675332 51.995062 
L 539.61589 42.422728 
L 536.556448 29.60284 
L 533.497005 48.851352 
L 530.437563 52.20392 
L 527.378121 52.000277 
L 524.318679 52.207843 
L 521.259237 52.618125 
L 518.199794 52.411913 
L 515.140352 51.992955 
L 512.08091 38.464642 
L 509.021468 32.092111 
L 505.962026 51.792196 
L 502.902584 51.988885 
L 499.843141 52.194675 
L 496.783699 52.20283 
L 493.724257 52.408641 
L 490.664815 51.986869 
L 487.605373 52.618153 
L 484.54593 52.618113 
L 481.486488 52.413178 
L 478.427046 51.57121 
L 475.367604 51.367987 
L 472.308162 52.200934 
L 469.248719 49.088887 
L 466.189277 51.162545 
L 463.129835 51.144331 
L 460.070393 51.998533 
L 457.010951 51.577702 
L 453.951508 51.776887 
L 450.892066 49.252863 
L 447.832624 41.137328 
L 444.773182 40.466159 
L 441.71374 43.875215 
L 438.654298 38.03459 
L 435.594855 39.84852 
L 432.535413 42.06252 
L 429.475971 43.307008 
L 426.416529 46.212927 
L 423.357087 46.700442 
L 420.297644 45.811193 
L 417.238202 47.279902 
L 414.17876 42.364611 
L 411.119318 41.634818 
L 408.059876 40.760473 
L 405.000433 45.733806 
L 401.940991 40.717542 
L 398.881549 41.961319 
L 395.822107 41.124795 
L 392.762665 42.174374 
L 389.703222 40.162102 
L 386.64378 37.739749 
L 383.584338 34.96154 
L 380.524896 38.917785 
L 377.465454 40.855857 
L 374.406012 39.794107 
L 371.346569 39.241441 
L 368.287127 41.985039 
L 365.227685 37.932385 
L 362.168243 42.885137 
L 359.108801 43.094342 
L 356.049358 45.435708 
L 352.989916 39.060006 
L 349.930474 45.556466 
L 346.871032 42.42123 
L 343.81159 45.005125 
L 340.752147 46.008182 
L 337.692705 46.330167 
L 334.633263 46.259315 
L 331.573821 42.317904 
L 328.514379 42.864371 
L 325.454937 44.133621 
L 322.395494 42.807488 
L 319.336052 42.650533 
L 316.27661 45.645797 
L 313.217168 47.796309 
L 310.157726 47.698339 
L 307.098283 46.976548 
L 304.038841 43.557221 
L 300.979399 38.620347 
L 297.919957 39.525019 
L 294.860515 41.739897 
L 291.801072 47.64959 
L 288.74163 50.341291 
L 285.682188 49.523764 
L 282.622746 49.310062 
L 279.563304 50.954213 
L 276.503861 50.744538 
L 273.444419 50.746141 
L 270.384977 49.797987 
L 267.325535 48.056086 
L 264.266093 47.86682 
L 261.206651 48.275332 
L 258.147208 46.409674 
L 255.087766 44.555561 
L 252.028324 42.382219 
L 248.968882 51.784579 
L 245.90944 50.951431 
L 242.849997 50.544988 
L 239.790555 50.746184 
L 236.731113 51.172027 
L 233.671671 51.36096 
L 230.612229 51.994313 
L 227.552786 51.360232 
L 224.493344 49.493135 
L 221.433902 50.933945 
L 218.37446 51.563123 
L 215.315018 52.497684 
L 212.255575 50.970442 
L 209.196133 50.517706 
L 206.136691 51.78705 
L 203.077249 51.583334 
L 200.017807 51.784291 
L 196.958365 51.585437 
L 193.898922 50.744477 
L 190.83948 51.568417 
L 187.780038 50.943302 
L 184.720596 51.989114 
L 181.661154 50.953644 
L 178.601711 51.790887 
L 175.542269 51.962389 
L 172.482827 49.92266 
L 169.423385 51.36415 
L 166.363943 50.542208 
L 163.3045 49.101356 
L 160.245058 50.947997 
L 157.185616 50.939084 
L 154.126174 46.977499 
L 151.066732 51.105021 
L 148.00729 49.995149 
L 144.947847 46.985541 
L 141.888405 46.444832 
L 138.828963 44.974369 
L 135.769521 43.25538 
L 132.710079 42.282388 
L 129.650636 34.389294 
L 126.591194 41.312553 
L 123.531752 53.238484 
L 120.47231 80.561844 
L 117.412868 133.766304 
L 114.353425 186.816178 
L 111.293983 233.710418 
L 108.234541 286.950862 
L 105.175099 311.897372 
L 102.115657 319.481961 
L 99.056214 319.235005 
L 95.996772 335.025662 
L 92.93733 342.102914 
L 89.877888 336.343453 
L 86.818446 347.381561 
L 83.759004 345.243982 
L 80.699561 339.358429 
z
" clip-path="url(#p27227f9b4b)" style="fill: #1f77b4; fill-opacity: 0.2"/>
   </g>
   <g id="matplotlib.axis_1">
    <g id="xtick_1">
     <g id="line2d_1">
      <path d="M 79.154543 390.04 
L 79.154543 10.8 
" clip-path="url(#p27227f9b4b)" style="fill: none; stroke: #b0b0b0; stroke-width: 0.8; stroke-linecap: square"/>
     </g>
     <g id="line2d_2">
      <defs>
       <path id="m90da6db1db" d="M 0 0 
L 0 3.5 
" style="stroke: #000000; stroke-width: 0.8"/>
      </defs>
      <g>
       <use xlink:href="#m90da6db1db" x="79.154543" y="390.04" style="stroke: #000000; stroke-width: 0.8"/>
      </g>
     </g>
     <g id="text_1">
      <!-- 0 -->
      <g transform="translate(75.973293 404.638438) scale(0.1 -0.1)">
       <defs>
        <path id="DejaVuSans-30" d="M 2034 4250 
Q 1547 4250 1301 3770 
Q 1056 3291 1056 2328 
Q 1056 1369 1301 889 
Q 1547 409 2034 409 
Q 2525 409 2770 889 
Q 3016 1369 3016 2328 
Q 3016 3291 2770 3770 
Q 2525 4250 2034 4250 
z
M 2034 4750 
Q 2819 4750 3233 4129 
Q 3647 3509 3647 2328 
Q 3647 1150 3233 529 
Q 2819 -91 2034 -91 
Q 1250 -91 836 529 
Q 422 1150 422 2328 
Q 422 3509 836 4129 
Q 1250 4750 2034 4750 
z
" transform="scale(0.015625)"/>
       </defs>
       <use xlink:href="#DejaVuSans-30"/>
      </g>
     </g>
    </g>
    <g id="xtick_2">
     <g id="line2d_3">
      <path d="M 155.640598 390.04 
L 155.640598 10.8 
" clip-path="url(#p27227f9b4b)" style="fill: none; stroke: #b0b0b0; stroke-width: 0.8; stroke-linecap: square"/>
     </g>
     <g id="line2d_4">
      <g>
       <use xlink:href="#m90da6db1db" x="155.640598" y="390.04" style="stroke: #000000; stroke-width: 0.8"/>
      </g>
     </g>
     <g id="text_2">
      <!-- 5000 -->
      <g transform="translate(142.915598 404.638438) scale(0.1 -0.1)">
       <defs>
        <path id="DejaVuSans-35" d="M 691 4666 
L 3169 4666 
L 3169 4134 
L 1269 4134 
L 1269 2991 
Q 1406 3038 1543 3061 
Q 1681 3084 1819 3084 
Q 2600 3084 3056 2656 
Q 3513 2228 3513 1497 
Q 3513 744 3044 326 
Q 2575 -91 1722 -91 
Q 1428 -91 1123 -41 
Q 819 9 494 109 
L 494 744 
Q 775 591 1075 516 
Q 1375 441 1709 441 
Q 2250 441 2565 725 
Q 2881 1009 2881 1497 
Q 2881 1984 2565 2268 
Q 2250 2553 1709 2553 
Q 1456 2553 1204 2497 
Q 953 2441 691 2322 
L 691 4666 
z
" transform="scale(0.015625)"/>
       </defs>
       <use xlink:href="#DejaVuSans-35"/>
       <use xlink:href="#DejaVuSans-30" transform="translate(63.623047 0)"/>
       <use xlink:href="#DejaVuSans-30" transform="translate(127.246094 0)"/>
       <use xlink:href="#DejaVuSans-30" transform="translate(190.869141 0)"/>
      </g>
     </g>
    </g>
    <g id="xtick_3">
     <g id="line2d_5">
      <path d="M 232.126653 390.04 
L 232.126653 10.8 
" clip-path="url(#p27227f9b4b)" style="fill: none; stroke: #b0b0b0; stroke-width: 0.8; stroke-linecap: square"/>
     </g>
     <g id="line2d_6">
      <g>
       <use xlink:href="#m90da6db1db" x="232.126653" y="390.04" style="stroke: #000000; stroke-width: 0.8"/>
      </g>
     </g>
     <g id="text_3">
      <!-- 10000 -->
      <g transform="translate(216.220403 404.638438) scale(0.1 -0.1)">
       <defs>
        <path id="DejaVuSans-31" d="M 794 531 
L 1825 531 
L 1825 4091 
L 703 3866 
L 703 4441 
L 1819 4666 
L 2450 4666 
L 2450 531 
L 3481 531 
L 3481 0 
L 794 0 
L 794 531 
z
" transform="scale(0.015625)"/>
       </defs>
       <use xlink:href="#DejaVuSans-31"/>
       <use xlink:href="#DejaVuSans-30" transform="translate(63.623047 0)"/>
       <use xlink:href="#DejaVuSans-30" transform="translate(127.246094 0)"/>
       <use xlink:href="#DejaVuSans-30" transform="translate(190.869141 0)"/>
       <use xlink:href="#DejaVuSans-30" transform="translate(254.492188 0)"/>
      </g>
     </g>
    </g>
    <g id="xtick_4">
     <g id="line2d_7">
      <path d="M 308.612707 390.04 
L 308.612707 10.8 
" clip-path="url(#p27227f9b4b)" style="fill: none; stroke: #b0b0b0; stroke-width: 0.8; stroke-linecap: square"/>
     </g>
     <g id="line2d_8">
      <g>
       <use xlink:href="#m90da6db1db" x="308.612707" y="390.04" style="stroke: #000000; stroke-width: 0.8"/>
      </g>
     </g>
     <g id="text_4">
      <!-- 15000 -->
      <g transform="translate(292.706457 404.638438) scale(0.1 -0.1)">
       <use xlink:href="#DejaVuSans-31"/>
       <use xlink:href="#DejaVuSans-35" transform="translate(63.623047 0)"/>
       <use xlink:href="#DejaVuSans-30" transform="translate(127.246094 0)"/>
       <use xlink:href="#DejaVuSans-30" transform="translate(190.869141 0)"/>
       <use xlink:href="#DejaVuSans-30" transform="translate(254.492188 0)"/>
      </g>
     </g>
    </g>
    <g id="xtick_5">
     <g id="line2d_9">
      <path d="M 385.098762 390.04 
L 385.098762 10.8 
" clip-path="url(#p27227f9b4b)" style="fill: none; stroke: #b0b0b0; stroke-width: 0.8; stroke-linecap: square"/>
     </g>
     <g id="line2d_10">
      <g>
       <use xlink:href="#m90da6db1db" x="385.098762" y="390.04" style="stroke: #000000; stroke-width: 0.8"/>
      </g>
     </g>
     <g id="text_5">
      <!-- 20000 -->
      <g transform="translate(369.192512 404.638438) scale(0.1 -0.1)">
       <defs>
        <path id="DejaVuSans-32" d="M 1228 531 
L 3431 531 
L 3431 0 
L 469 0 
L 469 531 
Q 828 903 1448 1529 
Q 2069 2156 2228 2338 
Q 2531 2678 2651 2914 
Q 2772 3150 2772 3378 
Q 2772 3750 2511 3984 
Q 2250 4219 1831 4219 
Q 1534 4219 1204 4116 
Q 875 4013 500 3803 
L 500 4441 
Q 881 4594 1212 4672 
Q 1544 4750 1819 4750 
Q 2544 4750 2975 4387 
Q 3406 4025 3406 3419 
Q 3406 3131 3298 2873 
Q 3191 2616 2906 2266 
Q 2828 2175 2409 1742 
Q 1991 1309 1228 531 
z
" transform="scale(0.015625)"/>
       </defs>
       <use xlink:href="#DejaVuSans-32"/>
       <use xlink:href="#DejaVuSans-30" transform="translate(63.623047 0)"/>
       <use xlink:href="#DejaVuSans-30" transform="translate(127.246094 0)"/>
       <use xlink:href="#DejaVuSans-30" transform="translate(190.869141 0)"/>
       <use xlink:href="#DejaVuSans-30" transform="translate(254.492188 0)"/>
      </g>
     </g>
    </g>
    <g id="xtick_6">
     <g id="line2d_11">
      <path d="M 461.584817 390.04 
L 461.584817 10.8 
" clip-path="url(#p27227f9b4b)" style="fill: none; stroke: #b0b0b0; stroke-width: 0.8; stroke-linecap: square"/>
     </g>
     <g id="line2d_12">
      <g>
       <use xlink:href="#m90da6db1db" x="461.584817" y="390.04" style="stroke: #000000; stroke-width: 0.8"/>
      </g>
     </g>
     <g id="text_6">
      <!-- 25000 -->
      <g transform="translate(445.678567 404.638438) scale(0.1 -0.1)">
       <use xlink:href="#DejaVuSans-32"/>
       <use xlink:href="#DejaVuSans-35" transform="translate(63.623047 0)"/>
       <use xlink:href="#DejaVuSans-30" transform="translate(127.246094 0)"/>
       <use xlink:href="#DejaVuSans-30" transform="translate(190.869141 0)"/>
       <use xlink:href="#DejaVuSans-30" transform="translate(254.492188 0)"/>
      </g>
     </g>
    </g>
    <g id="xtick_7">
     <g id="line2d_13">
      <path d="M 538.070871 390.04 
L 538.070871 10.8 
" clip-path="url(#p27227f9b4b)" style="fill: none; stroke: #b0b0b0; stroke-width: 0.8; stroke-linecap: square"/>
     </g>
     <g id="line2d_14">
      <g>
       <use xlink:href="#m90da6db1db" x="538.070871" y="390.04" style="stroke: #000000; stroke-width: 0.8"/>
      </g>
     </g>
     <g id="text_7">
      <!-- 30000 -->
      <g transform="translate(522.164621 404.638438) scale(0.1 -0.1)">
       <defs>
        <path id="DejaVuSans-33" d="M 2597 2516 
Q 3050 2419 3304 2112 
Q 3559 1806 3559 1356 
Q 3559 666 3084 287 
Q 2609 -91 1734 -91 
Q 1441 -91 1130 -33 
Q 819 25 488 141 
L 488 750 
Q 750 597 1062 519 
Q 1375 441 1716 441 
Q 2309 441 2620 675 
Q 2931 909 2931 1356 
Q 2931 1769 2642 2001 
Q 2353 2234 1838 2234 
L 1294 2234 
L 1294 2753 
L 1863 2753 
Q 2328 2753 2575 2939 
Q 2822 3125 2822 3475 
Q 2822 3834 2567 4026 
Q 2313 4219 1838 4219 
Q 1578 4219 1281 4162 
Q 984 4106 628 3988 
L 628 4550 
Q 988 4650 1302 4700 
Q 1616 4750 1894 4750 
Q 2613 4750 3031 4423 
Q 3450 4097 3450 3541 
Q 3450 3153 3228 2886 
Q 3006 2619 2597 2516 
z
" transform="scale(0.015625)"/>
       </defs>
       <use xlink:href="#DejaVuSans-33"/>
       <use xlink:href="#DejaVuSans-30" transform="translate(63.623047 0)"/>
       <use xlink:href="#DejaVuSans-30" transform="translate(127.246094 0)"/>
       <use xlink:href="#DejaVuSans-30" transform="translate(190.869141 0)"/>
       <use xlink:href="#DejaVuSans-30" transform="translate(254.492188 0)"/>
      </g>
     </g>
    </g>
    <g id="xtick_8">
     <g id="line2d_15">
      <path d="M 614.556926 390.04 
L 614.556926 10.8 
" clip-path="url(#p27227f9b4b)" style="fill: none; stroke: #b0b0b0; stroke-width: 0.8; stroke-linecap: square"/>
     </g>
     <g id="line2d_16">
      <g>
       <use xlink:href="#m90da6db1db" x="614.556926" y="390.04" style="stroke: #000000; stroke-width: 0.8"/>
      </g>
     </g>
     <g id="text_8">
      <!-- 35000 -->
      <g transform="translate(598.650676 404.638438) scale(0.1 -0.1)">
       <use xlink:href="#DejaVuSans-33"/>
       <use xlink:href="#DejaVuSans-35" transform="translate(63.623047 0)"/>
       <use xlink:href="#DejaVuSans-30" transform="translate(127.246094 0)"/>
       <use xlink:href="#DejaVuSans-30" transform="translate(190.869141 0)"/>
       <use xlink:href="#DejaVuSans-30" transform="translate(254.492188 0)"/>
      </g>
     </g>
    </g>
    <g id="xtick_9">
     <g id="line2d_17">
      <path d="M 691.042981 390.04 
L 691.042981 10.8 
" clip-path="url(#p27227f9b4b)" style="fill: none; stroke: #b0b0b0; stroke-width: 0.8; stroke-linecap: square"/>
     </g>
     <g id="line2d_18">
      <g>
       <use xlink:href="#m90da6db1db" x="691.042981" y="390.04" style="stroke: #000000; stroke-width: 0.8"/>
      </g>
     </g>
     <g id="text_9">
      <!-- 40000 -->
      <g transform="translate(675.136731 404.638438) scale(0.1 -0.1)">
       <defs>
        <path id="DejaVuSans-34" d="M 2419 4116 
L 825 1625 
L 2419 1625 
L 2419 4116 
z
M 2253 4666 
L 3047 4666 
L 3047 1625 
L 3713 1625 
L 3713 1100 
L 3047 1100 
L 3047 0 
L 2419 0 
L 2419 1100 
L 313 1100 
L 313 1709 
L 2253 4666 
z
" transform="scale(0.015625)"/>
       </defs>
       <use xlink:href="#DejaVuSans-34"/>
       <use xlink:href="#DejaVuSans-30" transform="translate(63.623047 0)"/>
       <use xlink:href="#DejaVuSans-30" transform="translate(127.246094 0)"/>
       <use xlink:href="#DejaVuSans-30" transform="translate(190.869141 0)"/>
       <use xlink:href="#DejaVuSans-30" transform="translate(254.492188 0)"/>
      </g>
     </g>
    </g>
    <g id="text_10">
     <!-- Episodes -->
     <g transform="translate(356.752987 418.316562) scale(0.1 -0.1)">
      <defs>
       <path id="DejaVuSans-45" d="M 628 4666 
L 3578 4666 
L 3578 4134 
L 1259 4134 
L 1259 2753 
L 3481 2753 
L 3481 2222 
L 1259 2222 
L 1259 531 
L 3634 531 
L 3634 0 
L 628 0 
L 628 4666 
z
" transform="scale(0.015625)"/>
       <path id="DejaVuSans-70" d="M 1159 525 
L 1159 -1331 
L 581 -1331 
L 581 3500 
L 1159 3500 
L 1159 2969 
Q 1341 3281 1617 3432 
Q 1894 3584 2278 3584 
Q 2916 3584 3314 3078 
Q 3713 2572 3713 1747 
Q 3713 922 3314 415 
Q 2916 -91 2278 -91 
Q 1894 -91 1617 61 
Q 1341 213 1159 525 
z
M 3116 1747 
Q 3116 2381 2855 2742 
Q 2594 3103 2138 3103 
Q 1681 3103 1420 2742 
Q 1159 2381 1159 1747 
Q 1159 1113 1420 752 
Q 1681 391 2138 391 
Q 2594 391 2855 752 
Q 3116 1113 3116 1747 
z
" transform="scale(0.015625)"/>
       <path id="DejaVuSans-69" d="M 603 3500 
L 1178 3500 
L 1178 0 
L 603 0 
L 603 3500 
z
M 603 4863 
L 1178 4863 
L 1178 4134 
L 603 4134 
L 603 4863 
z
" transform="scale(0.015625)"/>
       <path id="DejaVuSans-73" d="M 2834 3397 
L 2834 2853 
Q 2591 2978 2328 3040 
Q 2066 3103 1784 3103 
Q 1356 3103 1142 2972 
Q 928 2841 928 2578 
Q 928 2378 1081 2264 
Q 1234 2150 1697 2047 
L 1894 2003 
Q 2506 1872 2764 1633 
Q 3022 1394 3022 966 
Q 3022 478 2636 193 
Q 2250 -91 1575 -91 
Q 1294 -91 989 -36 
Q 684 19 347 128 
L 347 722 
Q 666 556 975 473 
Q 1284 391 1588 391 
Q 1994 391 2212 530 
Q 2431 669 2431 922 
Q 2431 1156 2273 1281 
Q 2116 1406 1581 1522 
L 1381 1569 
Q 847 1681 609 1914 
Q 372 2147 372 2553 
Q 372 3047 722 3315 
Q 1072 3584 1716 3584 
Q 2034 3584 2315 3537 
Q 2597 3491 2834 3397 
z
" transform="scale(0.015625)"/>
       <path id="DejaVuSans-6f" d="M 1959 3097 
Q 1497 3097 1228 2736 
Q 959 2375 959 1747 
Q 959 1119 1226 758 
Q 1494 397 1959 397 
Q 2419 397 2687 759 
Q 2956 1122 2956 1747 
Q 2956 2369 2687 2733 
Q 2419 3097 1959 3097 
z
M 1959 3584 
Q 2709 3584 3137 3096 
Q 3566 2609 3566 1747 
Q 3566 888 3137 398 
Q 2709 -91 1959 -91 
Q 1206 -91 779 398 
Q 353 888 353 1747 
Q 353 2609 779 3096 
Q 1206 3584 1959 3584 
z
" transform="scale(0.015625)"/>
       <path id="DejaVuSans-64" d="M 2906 2969 
L 2906 4863 
L 3481 4863 
L 3481 0 
L 2906 0 
L 2906 525 
Q 2725 213 2448 61 
Q 2172 -91 1784 -91 
Q 1150 -91 751 415 
Q 353 922 353 1747 
Q 353 2572 751 3078 
Q 1150 3584 1784 3584 
Q 2172 3584 2448 3432 
Q 2725 3281 2906 2969 
z
M 947 1747 
Q 947 1113 1208 752 
Q 1469 391 1925 391 
Q 2381 391 2643 752 
Q 2906 1113 2906 1747 
Q 2906 2381 2643 2742 
Q 2381 3103 1925 3103 
Q 1469 3103 1208 2742 
Q 947 2381 947 1747 
z
" transform="scale(0.015625)"/>
       <path id="DejaVuSans-65" d="M 3597 1894 
L 3597 1613 
L 953 1613 
Q 991 1019 1311 708 
Q 1631 397 2203 397 
Q 2534 397 2845 478 
Q 3156 559 3463 722 
L 3463 178 
Q 3153 47 2828 -22 
Q 2503 -91 2169 -91 
Q 1331 -91 842 396 
Q 353 884 353 1716 
Q 353 2575 817 3079 
Q 1281 3584 2069 3584 
Q 2775 3584 3186 3129 
Q 3597 2675 3597 1894 
z
M 3022 2063 
Q 3016 2534 2758 2815 
Q 2500 3097 2075 3097 
Q 1594 3097 1305 2825 
Q 1016 2553 972 2059 
L 3022 2063 
z
" transform="scale(0.015625)"/>
      </defs>
      <use xlink:href="#DejaVuSans-45"/>
      <use xlink:href="#DejaVuSans-70" transform="translate(63.183594 0)"/>
      <use xlink:href="#DejaVuSans-69" transform="translate(126.660156 0)"/>
      <use xlink:href="#DejaVuSans-73" transform="translate(154.443359 0)"/>
      <use xlink:href="#DejaVuSans-6f" transform="translate(206.542969 0)"/>
      <use xlink:href="#DejaVuSans-64" transform="translate(267.724609 0)"/>
      <use xlink:href="#DejaVuSans-65" transform="translate(331.201172 0)"/>
      <use xlink:href="#DejaVuSans-73" transform="translate(392.724609 0)"/>
     </g>
    </g>
   </g>
   <g id="matplotlib.axis_2">
    <g id="ytick_1">
     <g id="line2d_19">
      <path d="M 50.87 365.102491 
L 707.12035 365.102491 
" clip-path="url(#p27227f9b4b)" style="fill: none; stroke: #b0b0b0; stroke-width: 0.8; stroke-linecap: square"/>
     </g>
     <g id="line2d_20">
      <defs>
       <path id="m9c563b32de" d="M 0 0 
L -3.5 0 
" style="stroke: #000000; stroke-width: 0.8"/>
      </defs>
      <g>
       <use xlink:href="#m9c563b32de" x="50.87" y="365.102491" style="stroke: #000000; stroke-width: 0.8"/>
      </g>
     </g>
     <g id="text_11">
      <!-- 0 -->
      <g transform="translate(37.5075 368.90171) scale(0.1 -0.1)">
       <use xlink:href="#DejaVuSans-30"/>
      </g>
     </g>
    </g>
    <g id="ytick_2">
     <g id="line2d_21">
      <path d="M 50.87 305.889937 
L 707.12035 305.889937 
" clip-path="url(#p27227f9b4b)" style="fill: none; stroke: #b0b0b0; stroke-width: 0.8; stroke-linecap: square"/>
     </g>
     <g id="line2d_22">
      <g>
       <use xlink:href="#m9c563b32de" x="50.87" y="305.889937" style="stroke: #000000; stroke-width: 0.8"/>
      </g>
     </g>
     <g id="text_12">
      <!-- 20 -->
      <g transform="translate(31.145 309.689155) scale(0.1 -0.1)">
       <use xlink:href="#DejaVuSans-32"/>
       <use xlink:href="#DejaVuSans-30" transform="translate(63.623047 0)"/>
      </g>
     </g>
    </g>
    <g id="ytick_3">
     <g id="line2d_23">
      <path d="M 50.87 246.677382 
L 707.12035 246.677382 
" clip-path="url(#p27227f9b4b)" style="fill: none; stroke: #b0b0b0; stroke-width: 0.8; stroke-linecap: square"/>
     </g>
     <g id="line2d_24">
      <g>
       <use xlink:href="#m9c563b32de" x="50.87" y="246.677382" style="stroke: #000000; stroke-width: 0.8"/>
      </g>
     </g>
     <g id="text_13">
      <!-- 40 -->
      <g transform="translate(31.145 250.476601) scale(0.1 -0.1)">
       <use xlink:href="#DejaVuSans-34"/>
       <use xlink:href="#DejaVuSans-30" transform="translate(63.623047 0)"/>
      </g>
     </g>
    </g>
    <g id="ytick_4">
     <g id="line2d_25">
      <path d="M 50.87 187.464827 
L 707.12035 187.464827 
" clip-path="url(#p27227f9b4b)" style="fill: none; stroke: #b0b0b0; stroke-width: 0.8; stroke-linecap: square"/>
     </g>
     <g id="line2d_26">
      <g>
       <use xlink:href="#m9c563b32de" x="50.87" y="187.464827" style="stroke: #000000; stroke-width: 0.8"/>
      </g>
     </g>
     <g id="text_14">
      <!-- 60 -->
      <g transform="translate(31.145 191.264046) scale(0.1 -0.1)">
       <defs>
        <path id="DejaVuSans-36" d="M 2113 2584 
Q 1688 2584 1439 2293 
Q 1191 2003 1191 1497 
Q 1191 994 1439 701 
Q 1688 409 2113 409 
Q 2538 409 2786 701 
Q 3034 994 3034 1497 
Q 3034 2003 2786 2293 
Q 2538 2584 2113 2584 
z
M 3366 4563 
L 3366 3988 
Q 3128 4100 2886 4159 
Q 2644 4219 2406 4219 
Q 1781 4219 1451 3797 
Q 1122 3375 1075 2522 
Q 1259 2794 1537 2939 
Q 1816 3084 2150 3084 
Q 2853 3084 3261 2657 
Q 3669 2231 3669 1497 
Q 3669 778 3244 343 
Q 2819 -91 2113 -91 
Q 1303 -91 875 529 
Q 447 1150 447 2328 
Q 447 3434 972 4092 
Q 1497 4750 2381 4750 
Q 2619 4750 2861 4703 
Q 3103 4656 3366 4563 
z
" transform="scale(0.015625)"/>
       </defs>
       <use xlink:href="#DejaVuSans-36"/>
       <use xlink:href="#DejaVuSans-30" transform="translate(63.623047 0)"/>
      </g>
     </g>
    </g>
    <g id="ytick_5">
     <g id="line2d_27">
      <path d="M 50.87 128.252273 
L 707.12035 128.252273 
" clip-path="url(#p27227f9b4b)" style="fill: none; stroke: #b0b0b0; stroke-width: 0.8; stroke-linecap: square"/>
     </g>
     <g id="line2d_28">
      <g>
       <use xlink:href="#m9c563b32de" x="50.87" y="128.252273" style="stroke: #000000; stroke-width: 0.8"/>
      </g>
     </g>
     <g id="text_15">
      <!-- 80 -->
      <g transform="translate(31.145 132.051492) scale(0.1 -0.1)">
       <defs>
        <path id="DejaVuSans-38" d="M 2034 2216 
Q 1584 2216 1326 1975 
Q 1069 1734 1069 1313 
Q 1069 891 1326 650 
Q 1584 409 2034 409 
Q 2484 409 2743 651 
Q 3003 894 3003 1313 
Q 3003 1734 2745 1975 
Q 2488 2216 2034 2216 
z
M 1403 2484 
Q 997 2584 770 2862 
Q 544 3141 544 3541 
Q 544 4100 942 4425 
Q 1341 4750 2034 4750 
Q 2731 4750 3128 4425 
Q 3525 4100 3525 3541 
Q 3525 3141 3298 2862 
Q 3072 2584 2669 2484 
Q 3125 2378 3379 2068 
Q 3634 1759 3634 1313 
Q 3634 634 3220 271 
Q 2806 -91 2034 -91 
Q 1263 -91 848 271 
Q 434 634 434 1313 
Q 434 1759 690 2068 
Q 947 2378 1403 2484 
z
M 1172 3481 
Q 1172 3119 1398 2916 
Q 1625 2713 2034 2713 
Q 2441 2713 2670 2916 
Q 2900 3119 2900 3481 
Q 2900 3844 2670 4047 
Q 2441 4250 2034 4250 
Q 1625 4250 1398 4047 
Q 1172 3844 1172 3481 
z
" transform="scale(0.015625)"/>
       </defs>
       <use xlink:href="#DejaVuSans-38"/>
       <use xlink:href="#DejaVuSans-30" transform="translate(63.623047 0)"/>
      </g>
     </g>
    </g>
    <g id="ytick_6">
     <g id="line2d_29">
      <path d="M 50.87 69.039718 
L 707.12035 69.039718 
" clip-path="url(#p27227f9b4b)" style="fill: none; stroke: #b0b0b0; stroke-width: 0.8; stroke-linecap: square"/>
     </g>
     <g id="line2d_30">
      <g>
       <use xlink:href="#m9c563b32de" x="50.87" y="69.039718" style="stroke: #000000; stroke-width: 0.8"/>
      </g>
     </g>
     <g id="text_16">
      <!-- 100 -->
      <g transform="translate(24.7825 72.838937) scale(0.1 -0.1)">
       <use xlink:href="#DejaVuSans-31"/>
       <use xlink:href="#DejaVuSans-30" transform="translate(63.623047 0)"/>
       <use xlink:href="#DejaVuSans-30" transform="translate(127.246094 0)"/>
      </g>
     </g>
    </g>
    <g id="text_17">
     <!-- Reward -->
     <g transform="translate(18.702813 219.041094) rotate(-90) scale(0.1 -0.1)">
      <defs>
       <path id="DejaVuSans-52" d="M 2841 2188 
Q 3044 2119 3236 1894 
Q 3428 1669 3622 1275 
L 4263 0 
L 3584 0 
L 2988 1197 
Q 2756 1666 2539 1819 
Q 2322 1972 1947 1972 
L 1259 1972 
L 1259 0 
L 628 0 
L 628 4666 
L 2053 4666 
Q 2853 4666 3247 4331 
Q 3641 3997 3641 3322 
Q 3641 2881 3436 2590 
Q 3231 2300 2841 2188 
z
M 1259 4147 
L 1259 2491 
L 2053 2491 
Q 2509 2491 2742 2702 
Q 2975 2913 2975 3322 
Q 2975 3731 2742 3939 
Q 2509 4147 2053 4147 
L 1259 4147 
z
" transform="scale(0.015625)"/>
       <path id="DejaVuSans-77" d="M 269 3500 
L 844 3500 
L 1563 769 
L 2278 3500 
L 2956 3500 
L 3675 769 
L 4391 3500 
L 4966 3500 
L 4050 0 
L 3372 0 
L 2619 2869 
L 1863 0 
L 1184 0 
L 269 3500 
z
" transform="scale(0.015625)"/>
       <path id="DejaVuSans-61" d="M 2194 1759 
Q 1497 1759 1228 1600 
Q 959 1441 959 1056 
Q 959 750 1161 570 
Q 1363 391 1709 391 
Q 2188 391 2477 730 
Q 2766 1069 2766 1631 
L 2766 1759 
L 2194 1759 
z
M 3341 1997 
L 3341 0 
L 2766 0 
L 2766 531 
Q 2569 213 2275 61 
Q 1981 -91 1556 -91 
Q 1019 -91 701 211 
Q 384 513 384 1019 
Q 384 1609 779 1909 
Q 1175 2209 1959 2209 
L 2766 2209 
L 2766 2266 
Q 2766 2663 2505 2880 
Q 2244 3097 1772 3097 
Q 1472 3097 1187 3025 
Q 903 2953 641 2809 
L 641 3341 
Q 956 3463 1253 3523 
Q 1550 3584 1831 3584 
Q 2591 3584 2966 3190 
Q 3341 2797 3341 1997 
z
" transform="scale(0.015625)"/>
       <path id="DejaVuSans-72" d="M 2631 2963 
Q 2534 3019 2420 3045 
Q 2306 3072 2169 3072 
Q 1681 3072 1420 2755 
Q 1159 2438 1159 1844 
L 1159 0 
L 581 0 
L 581 3500 
L 1159 3500 
L 1159 2956 
Q 1341 3275 1631 3429 
Q 1922 3584 2338 3584 
Q 2397 3584 2469 3576 
Q 2541 3569 2628 3553 
L 2631 2963 
z
" transform="scale(0.015625)"/>
      </defs>
      <use xlink:href="#DejaVuSans-52"/>
      <use xlink:href="#DejaVuSans-65" transform="translate(64.982422 0)"/>
      <use xlink:href="#DejaVuSans-77" transform="translate(126.505859 0)"/>
      <use xlink:href="#DejaVuSans-61" transform="translate(208.292969 0)"/>
      <use xlink:href="#DejaVuSans-72" transform="translate(269.572266 0)"/>
      <use xlink:href="#DejaVuSans-64" transform="translate(308.935547 0)"/>
     </g>
    </g>
   </g>
   <g id="line2d_31">
    <path d="M 80.699561 350.138459 
L 83.759004 352.308292 
L 86.818446 353.172417 
L 89.877888 348.353787 
L 92.93733 350.639391 
L 95.996772 347.726907 
L 99.056214 341.169796 
L 102.115657 340.705833 
L 105.175099 337.436806 
L 108.234541 325.899004 
L 111.293983 303.256118 
L 114.353425 273.991207 
L 117.412868 247.266355 
L 120.47231 208.048893 
L 123.531752 179.805382 
L 126.591194 158.60766 
L 129.650636 139.676266 
L 132.710079 111.921297 
L 135.769521 87.35017 
L 138.828963 76.277252 
L 141.888405 69.294694 
L 144.947847 66.246717 
L 148.00729 60.728151 
L 151.066732 59.704152 
L 154.126174 66.268647 
L 157.185616 56.698309 
L 160.245058 56.677233 
L 163.3045 61.138291 
L 166.363943 57.65747 
L 169.423385 55.672467 
L 172.482827 59.154221 
L 175.542269 57.705213 
L 178.601711 54.640623 
L 181.661154 56.66396 
L 184.720596 54.162564 
L 187.780038 56.688983 
L 190.83948 55.178426 
L 193.898922 57.168522 
L 196.958365 55.137515 
L 200.017807 54.656775 
L 203.077249 55.14297 
L 206.136691 54.650777 
L 209.196133 57.716956 
L 212.255575 56.62153 
L 215.315018 54.66569 
L 218.37446 55.191212 
L 221.433902 56.709685 
L 224.493344 60.190599 
L 227.552786 55.678904 
L 230.612229 54.149016 
L 233.671671 55.679058 
L 236.731113 56.135762 
L 239.790555 57.163423 
L 242.849997 57.649564 
L 245.90944 56.668911 
L 248.968882 54.656106 
L 252.028324 79.060878 
L 255.087766 72.112071 
L 261.206651 63.130069 
L 264.266093 64.11592 
L 267.325535 63.660466 
L 270.384977 61.163045 
L 273.444419 57.163741 
L 276.503861 57.167595 
L 279.563304 56.661334 
L 282.622746 60.631607 
L 285.682188 60.114725 
L 288.74163 58.140496 
L 291.801072 64.640976 
L 294.860515 85.791131 
L 297.919957 94.472267 
L 300.979399 91.565183 
L 304.038841 83.033624 
L 307.098283 73.100948 
L 310.157726 69.648944 
L 313.217168 71.127229 
L 316.27661 136.342276 
L 319.336052 109.174169 
L 322.395494 95.176321 
L 325.454937 90.219791 
L 328.514379 100.162094 
L 331.573821 82.665207 
L 334.633263 102.11573 
L 337.692705 91.730441 
L 340.752147 73.757319 
L 343.81159 84.747175 
L 346.871032 80.702459 
L 349.930474 78.238953 
L 352.989916 114.663046 
L 356.049358 94.195382 
L 359.108801 87.697095 
L 362.168243 88.362737 
L 365.227685 98.565335 
L 368.287127 85.29834 
L 371.346569 91.935464 
L 374.406012 88.854602 
L 377.465454 89.721496 
L 380.524896 94.409847 
L 383.584338 117.652891 
L 386.64378 95.513843 
L 389.703222 91.328289 
L 392.762665 79.61315 
L 395.822107 85.599161 
L 398.881549 80.102959 
L 401.940991 83.111905 
L 405.000433 74.471264 
L 408.059876 83.004933 
L 411.119318 84.355106 
L 414.17876 77.406699 
L 417.238202 67.26633 
L 420.297644 74.212785 
L 423.357087 68.665692 
L 426.416529 69.812935 
L 429.475971 75.129181 
L 432.535413 78.133955 
L 435.594855 83.481046 
L 438.654298 87.861202 
L 441.71374 73.756272 
L 444.773182 81.990063 
L 447.832624 82.096509 
L 450.892066 60.769654 
L 453.951508 54.673804 
L 457.010951 55.154895 
L 460.070393 54.138572 
L 463.129835 56.202277 
L 466.189277 56.157895 
L 469.248719 61.172201 
L 472.308162 53.650194 
L 475.367604 55.661414 
L 478.427046 55.173032 
L 481.486488 53.137819 
L 484.54593 52.642446 
L 487.605373 52.642227 
L 490.664815 54.16718 
L 493.724257 53.15174 
L 496.783699 53.646927 
L 499.843141 53.665524 
L 505.962026 54.639296 
L 509.021468 107.345021 
L 512.08091 90.231782 
L 515.140352 54.152432 
L 518.199794 53.140265 
L 521.259237 52.642413 
L 524.318679 53.633543 
L 527.378121 54.134306 
L 530.437563 53.642985 
L 533.497005 61.746541 
L 536.556448 108.271215 
L 539.61589 77.276947 
L 542.675332 54.147848 
L 545.734774 54.154186 
L 548.794216 89.845699 
L 551.853659 57.714199 
L 554.913101 56.171969 
L 557.972543 53.659274 
L 561.031985 54.166648 
L 564.091427 53.142671 
L 573.269754 53.142496 
L 576.329196 56.122894 
L 579.388638 53.136799 
L 582.44808 53.136257 
L 585.507523 53.665299 
L 591.626407 52.642227 
L 594.685849 53.642031 
L 597.745291 60.156239 
L 600.804734 52.642336 
L 603.864176 53.140928 
L 606.923618 59.649298 
L 609.98306 53.153724 
L 613.042502 107.583813 
L 616.101945 54.652372 
L 619.161387 53.141745 
L 622.220829 65.127512 
L 625.280271 112.002961 
L 628.339713 99.879382 
L 631.399155 58.2346 
L 634.458598 52.642435 
L 637.51804 53.153642 
L 640.577482 52.642281 
L 643.636924 52.642227 
L 646.696366 76.619523 
L 649.755809 54.643556 
L 652.815251 53.138762 
L 655.874693 53.153779 
L 658.934135 53.639119 
L 661.993577 53.653643 
L 665.05302 52.642281 
L 671.171904 52.642391 
L 674.231346 53.153642 
L 677.290788 52.642578 
L 677.290788 52.642578 
" clip-path="url(#p27227f9b4b)" style="fill: none; stroke: #1f77b4; stroke-width: 1.5; stroke-linecap: square"/>
   </g>
   <g id="patch_3">
    <path d="M 50.87 390.04 
L 50.87 10.8 
" style="fill: none; stroke: #000000; stroke-width: 0.8; stroke-linejoin: miter; stroke-linecap: square"/>
   </g>
   <g id="patch_4">
    <path d="M 707.12035 390.04 
L 707.12035 10.8 
" style="fill: none; stroke: #000000; stroke-width: 0.8; stroke-linejoin: miter; stroke-linecap: square"/>
   </g>
   <g id="patch_5">
    <path d="M 50.87 390.04 
L 707.12035 390.04 
" style="fill: none; stroke: #000000; stroke-width: 0.8; stroke-linejoin: miter; stroke-linecap: square"/>
   </g>
   <g id="patch_6">
    <path d="M 50.87 10.8 
L 707.12035 10.8 
" style="fill: none; stroke: #000000; stroke-width: 0.8; stroke-linejoin: miter; stroke-linecap: square"/>
   </g>
  </g>
 </g>
 <defs>
  <clipPath id="p27227f9b4b">
   <rect x="50.87" y="10.8" width="656.25035" height="379.24"/>
  </clipPath>
 </defs>
</svg>
