<?xml version="1.0" encoding="utf-8" standalone="no"?>
<!DOCTYPE svg PUBLIC "-//W3C//DTD SVG 1.1//EN"
  "http://www.w3.org/Graphics/SVG/1.1/DTD/svg11.dtd">
<svg xmlns:xlink="http://www.w3.org/1999/xlink" width="720pt" height="432pt" viewBox="0 0 720 432" xmlns="http://www.w3.org/2000/svg" version="1.1">
 <metadata>
  <rdf:RDF xmlns:dc="http://purl.org/dc/elements/1.1/" xmlns:cc="http://creativecommons.org/ns#" xmlns:rdf="http://www.w3.org/1999/02/22-rdf-syntax-ns#">
   <cc:Work>
    <dc:type rdf:resource="http://purl.org/dc/dcmitype/StillImage"/>
    <dc:date>2025-04-23T13:26:25.647075</dc:date>
    <dc:format>image/svg+xml</dc:format>
    <dc:creator>
     <cc:Agent>
      <dc:title>Matplotlib v3.10.1, https://matplotlib.org/</dc:title>
     </cc:Agent>
    </dc:creator>
   </cc:Work>
  </rdf:RDF>
 </metadata>
 <defs>
  <style type="text/css">*{stroke-linejoin: round; stroke-linecap: butt}</style>
 </defs>
 <g id="figure_1">
  <g id="patch_1">
   <path d="M 0 432 
L 720 432 
L 720 0 
L 0 0 
z
" style="fill: #ffffff"/>
  </g>
  <g id="axes_1">
   <g id="patch_2">
    <path d="M 54.02 390.04 
L 709.2 390.04 
L 709.2 26.88 
L 54.02 26.88 
z
" style="fill: #ffffff"/>
   </g>
   <g id="matplotlib.axis_1">
    <g id="xtick_1">
     <g id="line2d_1">
      <path d="M 83.388078 390.04 
L 83.388078 26.88 
" clip-path="url(#p84f202475f)" style="fill: none; stroke: #b0b0b0; stroke-width: 0.8; stroke-linecap: square"/>
     </g>
     <g id="line2d_2">
      <defs>
       <path id="m944c8e782c" d="M 0 0 
L 0 3.5 
" style="stroke: #000000; stroke-width: 0.8"/>
      </defs>
      <g>
       <use xlink:href="#m944c8e782c" x="83.388078" y="390.04" style="stroke: #000000; stroke-width: 0.8"/>
      </g>
     </g>
     <g id="text_1">
      <!-- 0 -->
      <g transform="translate(80.206828 404.638438) scale(0.1 -0.1)">
       <defs>
        <path id="DejaVuSans-30" d="M 2034 4250 
Q 1547 4250 1301 3770 
Q 1056 3291 1056 2328 
Q 1056 1369 1301 889 
Q 1547 409 2034 409 
Q 2525 409 2770 889 
Q 3016 1369 3016 2328 
Q 3016 3291 2770 3770 
Q 2525 4250 2034 4250 
z
M 2034 4750 
Q 2819 4750 3233 4129 
Q 3647 3509 3647 2328 
Q 3647 1150 3233 529 
Q 2819 -91 2034 -91 
Q 1250 -91 836 529 
Q 422 1150 422 2328 
Q 422 3509 836 4129 
Q 1250 4750 2034 4750 
z
" transform="scale(0.015625)"/>
       </defs>
       <use xlink:href="#DejaVuSans-30"/>
      </g>
     </g>
    </g>
    <g id="xtick_2">
     <g id="line2d_3">
      <path d="M 192.027965 390.04 
L 192.027965 26.88 
" clip-path="url(#p84f202475f)" style="fill: none; stroke: #b0b0b0; stroke-width: 0.8; stroke-linecap: square"/>
     </g>
     <g id="line2d_4">
      <g>
       <use xlink:href="#m944c8e782c" x="192.027965" y="390.04" style="stroke: #000000; stroke-width: 0.8"/>
      </g>
     </g>
     <g id="text_2">
      <!-- 10000 -->
      <g transform="translate(176.121715 404.638438) scale(0.1 -0.1)">
       <defs>
        <path id="DejaVuSans-31" d="M 794 531 
L 1825 531 
L 1825 4091 
L 703 3866 
L 703 4441 
L 1819 4666 
L 2450 4666 
L 2450 531 
L 3481 531 
L 3481 0 
L 794 0 
L 794 531 
z
" transform="scale(0.015625)"/>
       </defs>
       <use xlink:href="#DejaVuSans-31"/>
       <use xlink:href="#DejaVuSans-30" transform="translate(63.623047 0)"/>
       <use xlink:href="#DejaVuSans-30" transform="translate(127.246094 0)"/>
       <use xlink:href="#DejaVuSans-30" transform="translate(190.869141 0)"/>
       <use xlink:href="#DejaVuSans-30" transform="translate(254.492188 0)"/>
      </g>
     </g>
    </g>
    <g id="xtick_3">
     <g id="line2d_5">
      <path d="M 300.667852 390.04 
L 300.667852 26.88 
" clip-path="url(#p84f202475f)" style="fill: none; stroke: #b0b0b0; stroke-width: 0.8; stroke-linecap: square"/>
     </g>
     <g id="line2d_6">
      <g>
       <use xlink:href="#m944c8e782c" x="300.667852" y="390.04" style="stroke: #000000; stroke-width: 0.8"/>
      </g>
     </g>
     <g id="text_3">
      <!-- 20000 -->
      <g transform="translate(284.761602 404.638438) scale(0.1 -0.1)">
       <defs>
        <path id="DejaVuSans-32" d="M 1228 531 
L 3431 531 
L 3431 0 
L 469 0 
L 469 531 
Q 828 903 1448 1529 
Q 2069 2156 2228 2338 
Q 2531 2678 2651 2914 
Q 2772 3150 2772 3378 
Q 2772 3750 2511 3984 
Q 2250 4219 1831 4219 
Q 1534 4219 1204 4116 
Q 875 4013 500 3803 
L 500 4441 
Q 881 4594 1212 4672 
Q 1544 4750 1819 4750 
Q 2544 4750 2975 4387 
Q 3406 4025 3406 3419 
Q 3406 3131 3298 2873 
Q 3191 2616 2906 2266 
Q 2828 2175 2409 1742 
Q 1991 1309 1228 531 
z
" transform="scale(0.015625)"/>
       </defs>
       <use xlink:href="#DejaVuSans-32"/>
       <use xlink:href="#DejaVuSans-30" transform="translate(63.623047 0)"/>
       <use xlink:href="#DejaVuSans-30" transform="translate(127.246094 0)"/>
       <use xlink:href="#DejaVuSans-30" transform="translate(190.869141 0)"/>
       <use xlink:href="#DejaVuSans-30" transform="translate(254.492188 0)"/>
      </g>
     </g>
    </g>
    <g id="xtick_4">
     <g id="line2d_7">
      <path d="M 409.307739 390.04 
L 409.307739 26.88 
" clip-path="url(#p84f202475f)" style="fill: none; stroke: #b0b0b0; stroke-width: 0.8; stroke-linecap: square"/>
     </g>
     <g id="line2d_8">
      <g>
       <use xlink:href="#m944c8e782c" x="409.307739" y="390.04" style="stroke: #000000; stroke-width: 0.8"/>
      </g>
     </g>
     <g id="text_4">
      <!-- 30000 -->
      <g transform="translate(393.401489 404.638438) scale(0.1 -0.1)">
       <defs>
        <path id="DejaVuSans-33" d="M 2597 2516 
Q 3050 2419 3304 2112 
Q 3559 1806 3559 1356 
Q 3559 666 3084 287 
Q 2609 -91 1734 -91 
Q 1441 -91 1130 -33 
Q 819 25 488 141 
L 488 750 
Q 750 597 1062 519 
Q 1375 441 1716 441 
Q 2309 441 2620 675 
Q 2931 909 2931 1356 
Q 2931 1769 2642 2001 
Q 2353 2234 1838 2234 
L 1294 2234 
L 1294 2753 
L 1863 2753 
Q 2328 2753 2575 2939 
Q 2822 3125 2822 3475 
Q 2822 3834 2567 4026 
Q 2313 4219 1838 4219 
Q 1578 4219 1281 4162 
Q 984 4106 628 3988 
L 628 4550 
Q 988 4650 1302 4700 
Q 1616 4750 1894 4750 
Q 2613 4750 3031 4423 
Q 3450 4097 3450 3541 
Q 3450 3153 3228 2886 
Q 3006 2619 2597 2516 
z
" transform="scale(0.015625)"/>
       </defs>
       <use xlink:href="#DejaVuSans-33"/>
       <use xlink:href="#DejaVuSans-30" transform="translate(63.623047 0)"/>
       <use xlink:href="#DejaVuSans-30" transform="translate(127.246094 0)"/>
       <use xlink:href="#DejaVuSans-30" transform="translate(190.869141 0)"/>
       <use xlink:href="#DejaVuSans-30" transform="translate(254.492188 0)"/>
      </g>
     </g>
    </g>
    <g id="xtick_5">
     <g id="line2d_9">
      <path d="M 517.947626 390.04 
L 517.947626 26.88 
" clip-path="url(#p84f202475f)" style="fill: none; stroke: #b0b0b0; stroke-width: 0.8; stroke-linecap: square"/>
     </g>
     <g id="line2d_10">
      <g>
       <use xlink:href="#m944c8e782c" x="517.947626" y="390.04" style="stroke: #000000; stroke-width: 0.8"/>
      </g>
     </g>
     <g id="text_5">
      <!-- 40000 -->
      <g transform="translate(502.041376 404.638438) scale(0.1 -0.1)">
       <defs>
        <path id="DejaVuSans-34" d="M 2419 4116 
L 825 1625 
L 2419 1625 
L 2419 4116 
z
M 2253 4666 
L 3047 4666 
L 3047 1625 
L 3713 1625 
L 3713 1100 
L 3047 1100 
L 3047 0 
L 2419 0 
L 2419 1100 
L 313 1100 
L 313 1709 
L 2253 4666 
z
" transform="scale(0.015625)"/>
       </defs>
       <use xlink:href="#DejaVuSans-34"/>
       <use xlink:href="#DejaVuSans-30" transform="translate(63.623047 0)"/>
       <use xlink:href="#DejaVuSans-30" transform="translate(127.246094 0)"/>
       <use xlink:href="#DejaVuSans-30" transform="translate(190.869141 0)"/>
       <use xlink:href="#DejaVuSans-30" transform="translate(254.492188 0)"/>
      </g>
     </g>
    </g>
    <g id="xtick_6">
     <g id="line2d_11">
      <path d="M 626.587514 390.04 
L 626.587514 26.88 
" clip-path="url(#p84f202475f)" style="fill: none; stroke: #b0b0b0; stroke-width: 0.8; stroke-linecap: square"/>
     </g>
     <g id="line2d_12">
      <g>
       <use xlink:href="#m944c8e782c" x="626.587514" y="390.04" style="stroke: #000000; stroke-width: 0.8"/>
      </g>
     </g>
     <g id="text_6">
      <!-- 50000 -->
      <g transform="translate(610.681264 404.638438) scale(0.1 -0.1)">
       <defs>
        <path id="DejaVuSans-35" d="M 691 4666 
L 3169 4666 
L 3169 4134 
L 1269 4134 
L 1269 2991 
Q 1406 3038 1543 3061 
Q 1681 3084 1819 3084 
Q 2600 3084 3056 2656 
Q 3513 2228 3513 1497 
Q 3513 744 3044 326 
Q 2575 -91 1722 -91 
Q 1428 -91 1123 -41 
Q 819 9 494 109 
L 494 744 
Q 775 591 1075 516 
Q 1375 441 1709 441 
Q 2250 441 2565 725 
Q 2881 1009 2881 1497 
Q 2881 1984 2565 2268 
Q 2250 2553 1709 2553 
Q 1456 2553 1204 2497 
Q 953 2441 691 2322 
L 691 4666 
z
" transform="scale(0.015625)"/>
       </defs>
       <use xlink:href="#DejaVuSans-35"/>
       <use xlink:href="#DejaVuSans-30" transform="translate(63.623047 0)"/>
       <use xlink:href="#DejaVuSans-30" transform="translate(127.246094 0)"/>
       <use xlink:href="#DejaVuSans-30" transform="translate(190.869141 0)"/>
       <use xlink:href="#DejaVuSans-30" transform="translate(254.492188 0)"/>
      </g>
     </g>
    </g>
    <g id="text_7">
     <!-- Episode Number -->
     <g transform="translate(340.2975 418.316562) scale(0.1 -0.1)">
      <defs>
       <path id="DejaVuSans-45" d="M 628 4666 
L 3578 4666 
L 3578 4134 
L 1259 4134 
L 1259 2753 
L 3481 2753 
L 3481 2222 
L 1259 2222 
L 1259 531 
L 3634 531 
L 3634 0 
L 628 0 
L 628 4666 
z
" transform="scale(0.015625)"/>
       <path id="DejaVuSans-70" d="M 1159 525 
L 1159 -1331 
L 581 -1331 
L 581 3500 
L 1159 3500 
L 1159 2969 
Q 1341 3281 1617 3432 
Q 1894 3584 2278 3584 
Q 2916 3584 3314 3078 
Q 3713 2572 3713 1747 
Q 3713 922 3314 415 
Q 2916 -91 2278 -91 
Q 1894 -91 1617 61 
Q 1341 213 1159 525 
z
M 3116 1747 
Q 3116 2381 2855 2742 
Q 2594 3103 2138 3103 
Q 1681 3103 1420 2742 
Q 1159 2381 1159 1747 
Q 1159 1113 1420 752 
Q 1681 391 2138 391 
Q 2594 391 2855 752 
Q 3116 1113 3116 1747 
z
" transform="scale(0.015625)"/>
       <path id="DejaVuSans-69" d="M 603 3500 
L 1178 3500 
L 1178 0 
L 603 0 
L 603 3500 
z
M 603 4863 
L 1178 4863 
L 1178 4134 
L 603 4134 
L 603 4863 
z
" transform="scale(0.015625)"/>
       <path id="DejaVuSans-73" d="M 2834 3397 
L 2834 2853 
Q 2591 2978 2328 3040 
Q 2066 3103 1784 3103 
Q 1356 3103 1142 2972 
Q 928 2841 928 2578 
Q 928 2378 1081 2264 
Q 1234 2150 1697 2047 
L 1894 2003 
Q 2506 1872 2764 1633 
Q 3022 1394 3022 966 
Q 3022 478 2636 193 
Q 2250 -91 1575 -91 
Q 1294 -91 989 -36 
Q 684 19 347 128 
L 347 722 
Q 666 556 975 473 
Q 1284 391 1588 391 
Q 1994 391 2212 530 
Q 2431 669 2431 922 
Q 2431 1156 2273 1281 
Q 2116 1406 1581 1522 
L 1381 1569 
Q 847 1681 609 1914 
Q 372 2147 372 2553 
Q 372 3047 722 3315 
Q 1072 3584 1716 3584 
Q 2034 3584 2315 3537 
Q 2597 3491 2834 3397 
z
" transform="scale(0.015625)"/>
       <path id="DejaVuSans-6f" d="M 1959 3097 
Q 1497 3097 1228 2736 
Q 959 2375 959 1747 
Q 959 1119 1226 758 
Q 1494 397 1959 397 
Q 2419 397 2687 759 
Q 2956 1122 2956 1747 
Q 2956 2369 2687 2733 
Q 2419 3097 1959 3097 
z
M 1959 3584 
Q 2709 3584 3137 3096 
Q 3566 2609 3566 1747 
Q 3566 888 3137 398 
Q 2709 -91 1959 -91 
Q 1206 -91 779 398 
Q 353 888 353 1747 
Q 353 2609 779 3096 
Q 1206 3584 1959 3584 
z
" transform="scale(0.015625)"/>
       <path id="DejaVuSans-64" d="M 2906 2969 
L 2906 4863 
L 3481 4863 
L 3481 0 
L 2906 0 
L 2906 525 
Q 2725 213 2448 61 
Q 2172 -91 1784 -91 
Q 1150 -91 751 415 
Q 353 922 353 1747 
Q 353 2572 751 3078 
Q 1150 3584 1784 3584 
Q 2172 3584 2448 3432 
Q 2725 3281 2906 2969 
z
M 947 1747 
Q 947 1113 1208 752 
Q 1469 391 1925 391 
Q 2381 391 2643 752 
Q 2906 1113 2906 1747 
Q 2906 2381 2643 2742 
Q 2381 3103 1925 3103 
Q 1469 3103 1208 2742 
Q 947 2381 947 1747 
z
" transform="scale(0.015625)"/>
       <path id="DejaVuSans-65" d="M 3597 1894 
L 3597 1613 
L 953 1613 
Q 991 1019 1311 708 
Q 1631 397 2203 397 
Q 2534 397 2845 478 
Q 3156 559 3463 722 
L 3463 178 
Q 3153 47 2828 -22 
Q 2503 -91 2169 -91 
Q 1331 -91 842 396 
Q 353 884 353 1716 
Q 353 2575 817 3079 
Q 1281 3584 2069 3584 
Q 2775 3584 3186 3129 
Q 3597 2675 3597 1894 
z
M 3022 2063 
Q 3016 2534 2758 2815 
Q 2500 3097 2075 3097 
Q 1594 3097 1305 2825 
Q 1016 2553 972 2059 
L 3022 2063 
z
" transform="scale(0.015625)"/>
       <path id="DejaVuSans-20" transform="scale(0.015625)"/>
       <path id="DejaVuSans-4e" d="M 628 4666 
L 1478 4666 
L 3547 763 
L 3547 4666 
L 4159 4666 
L 4159 0 
L 3309 0 
L 1241 3903 
L 1241 0 
L 628 0 
L 628 4666 
z
" transform="scale(0.015625)"/>
       <path id="DejaVuSans-75" d="M 544 1381 
L 544 3500 
L 1119 3500 
L 1119 1403 
Q 1119 906 1312 657 
Q 1506 409 1894 409 
Q 2359 409 2629 706 
Q 2900 1003 2900 1516 
L 2900 3500 
L 3475 3500 
L 3475 0 
L 2900 0 
L 2900 538 
Q 2691 219 2414 64 
Q 2138 -91 1772 -91 
Q 1169 -91 856 284 
Q 544 659 544 1381 
z
M 1991 3584 
L 1991 3584 
z
" transform="scale(0.015625)"/>
       <path id="DejaVuSans-6d" d="M 3328 2828 
Q 3544 3216 3844 3400 
Q 4144 3584 4550 3584 
Q 5097 3584 5394 3201 
Q 5691 2819 5691 2113 
L 5691 0 
L 5113 0 
L 5113 2094 
Q 5113 2597 4934 2840 
Q 4756 3084 4391 3084 
Q 3944 3084 3684 2787 
Q 3425 2491 3425 1978 
L 3425 0 
L 2847 0 
L 2847 2094 
Q 2847 2600 2669 2842 
Q 2491 3084 2119 3084 
Q 1678 3084 1418 2786 
Q 1159 2488 1159 1978 
L 1159 0 
L 581 0 
L 581 3500 
L 1159 3500 
L 1159 2956 
Q 1356 3278 1631 3431 
Q 1906 3584 2284 3584 
Q 2666 3584 2933 3390 
Q 3200 3197 3328 2828 
z
" transform="scale(0.015625)"/>
       <path id="DejaVuSans-62" d="M 3116 1747 
Q 3116 2381 2855 2742 
Q 2594 3103 2138 3103 
Q 1681 3103 1420 2742 
Q 1159 2381 1159 1747 
Q 1159 1113 1420 752 
Q 1681 391 2138 391 
Q 2594 391 2855 752 
Q 3116 1113 3116 1747 
z
M 1159 2969 
Q 1341 3281 1617 3432 
Q 1894 3584 2278 3584 
Q 2916 3584 3314 3078 
Q 3713 2572 3713 1747 
Q 3713 922 3314 415 
Q 2916 -91 2278 -91 
Q 1894 -91 1617 61 
Q 1341 213 1159 525 
L 1159 0 
L 581 0 
L 581 4863 
L 1159 4863 
L 1159 2969 
z
" transform="scale(0.015625)"/>
       <path id="DejaVuSans-72" d="M 2631 2963 
Q 2534 3019 2420 3045 
Q 2306 3072 2169 3072 
Q 1681 3072 1420 2755 
Q 1159 2438 1159 1844 
L 1159 0 
L 581 0 
L 581 3500 
L 1159 3500 
L 1159 2956 
Q 1341 3275 1631 3429 
Q 1922 3584 2338 3584 
Q 2397 3584 2469 3576 
Q 2541 3569 2628 3553 
L 2631 2963 
z
" transform="scale(0.015625)"/>
      </defs>
      <use xlink:href="#DejaVuSans-45"/>
      <use xlink:href="#DejaVuSans-70" transform="translate(63.183594 0)"/>
      <use xlink:href="#DejaVuSans-69" transform="translate(126.660156 0)"/>
      <use xlink:href="#DejaVuSans-73" transform="translate(154.443359 0)"/>
      <use xlink:href="#DejaVuSans-6f" transform="translate(206.542969 0)"/>
      <use xlink:href="#DejaVuSans-64" transform="translate(267.724609 0)"/>
      <use xlink:href="#DejaVuSans-65" transform="translate(331.201172 0)"/>
      <use xlink:href="#DejaVuSans-20" transform="translate(392.724609 0)"/>
      <use xlink:href="#DejaVuSans-4e" transform="translate(424.511719 0)"/>
      <use xlink:href="#DejaVuSans-75" transform="translate(499.316406 0)"/>
      <use xlink:href="#DejaVuSans-6d" transform="translate(562.695312 0)"/>
      <use xlink:href="#DejaVuSans-62" transform="translate(660.107422 0)"/>
      <use xlink:href="#DejaVuSans-65" transform="translate(723.583984 0)"/>
      <use xlink:href="#DejaVuSans-72" transform="translate(785.107422 0)"/>
     </g>
    </g>
   </g>
   <g id="matplotlib.axis_2">
    <g id="ytick_1">
     <g id="line2d_13">
      <path d="M 54.02 388.573564 
L 709.2 388.573564 
" clip-path="url(#p84f202475f)" style="fill: none; stroke: #b0b0b0; stroke-width: 0.8; stroke-linecap: square"/>
     </g>
     <g id="line2d_14">
      <defs>
       <path id="m346cfb5bc5" d="M 0 0 
L -3.5 0 
" style="stroke: #000000; stroke-width: 0.8"/>
      </defs>
      <g>
       <use xlink:href="#m346cfb5bc5" x="54.02" y="388.573564" style="stroke: #000000; stroke-width: 0.8"/>
      </g>
     </g>
     <g id="text_8">
      <!-- 0.52 -->
      <g transform="translate(24.754375 392.372782) scale(0.1 -0.1)">
       <defs>
        <path id="DejaVuSans-2e" d="M 684 794 
L 1344 794 
L 1344 0 
L 684 0 
L 684 794 
z
" transform="scale(0.015625)"/>
       </defs>
       <use xlink:href="#DejaVuSans-30"/>
       <use xlink:href="#DejaVuSans-2e" transform="translate(63.623047 0)"/>
       <use xlink:href="#DejaVuSans-35" transform="translate(95.410156 0)"/>
       <use xlink:href="#DejaVuSans-32" transform="translate(159.033203 0)"/>
      </g>
     </g>
    </g>
    <g id="ytick_2">
     <g id="line2d_15">
      <path d="M 54.02 327.658336 
L 709.2 327.658336 
" clip-path="url(#p84f202475f)" style="fill: none; stroke: #b0b0b0; stroke-width: 0.8; stroke-linecap: square"/>
     </g>
     <g id="line2d_16">
      <g>
       <use xlink:href="#m346cfb5bc5" x="54.02" y="327.658336" style="stroke: #000000; stroke-width: 0.8"/>
      </g>
     </g>
     <g id="text_9">
      <!-- 0.53 -->
      <g transform="translate(24.754375 331.457555) scale(0.1 -0.1)">
       <use xlink:href="#DejaVuSans-30"/>
       <use xlink:href="#DejaVuSans-2e" transform="translate(63.623047 0)"/>
       <use xlink:href="#DejaVuSans-35" transform="translate(95.410156 0)"/>
       <use xlink:href="#DejaVuSans-33" transform="translate(159.033203 0)"/>
      </g>
     </g>
    </g>
    <g id="ytick_3">
     <g id="line2d_17">
      <path d="M 54.02 266.743109 
L 709.2 266.743109 
" clip-path="url(#p84f202475f)" style="fill: none; stroke: #b0b0b0; stroke-width: 0.8; stroke-linecap: square"/>
     </g>
     <g id="line2d_18">
      <g>
       <use xlink:href="#m346cfb5bc5" x="54.02" y="266.743109" style="stroke: #000000; stroke-width: 0.8"/>
      </g>
     </g>
     <g id="text_10">
      <!-- 0.54 -->
      <g transform="translate(24.754375 270.542328) scale(0.1 -0.1)">
       <use xlink:href="#DejaVuSans-30"/>
       <use xlink:href="#DejaVuSans-2e" transform="translate(63.623047 0)"/>
       <use xlink:href="#DejaVuSans-35" transform="translate(95.410156 0)"/>
       <use xlink:href="#DejaVuSans-34" transform="translate(159.033203 0)"/>
      </g>
     </g>
    </g>
    <g id="ytick_4">
     <g id="line2d_19">
      <path d="M 54.02 205.827881 
L 709.2 205.827881 
" clip-path="url(#p84f202475f)" style="fill: none; stroke: #b0b0b0; stroke-width: 0.8; stroke-linecap: square"/>
     </g>
     <g id="line2d_20">
      <g>
       <use xlink:href="#m346cfb5bc5" x="54.02" y="205.827881" style="stroke: #000000; stroke-width: 0.8"/>
      </g>
     </g>
     <g id="text_11">
      <!-- 0.55 -->
      <g transform="translate(24.754375 209.6271) scale(0.1 -0.1)">
       <use xlink:href="#DejaVuSans-30"/>
       <use xlink:href="#DejaVuSans-2e" transform="translate(63.623047 0)"/>
       <use xlink:href="#DejaVuSans-35" transform="translate(95.410156 0)"/>
       <use xlink:href="#DejaVuSans-35" transform="translate(159.033203 0)"/>
      </g>
     </g>
    </g>
    <g id="ytick_5">
     <g id="line2d_21">
      <path d="M 54.02 144.912654 
L 709.2 144.912654 
" clip-path="url(#p84f202475f)" style="fill: none; stroke: #b0b0b0; stroke-width: 0.8; stroke-linecap: square"/>
     </g>
     <g id="line2d_22">
      <g>
       <use xlink:href="#m346cfb5bc5" x="54.02" y="144.912654" style="stroke: #000000; stroke-width: 0.8"/>
      </g>
     </g>
     <g id="text_12">
      <!-- 0.56 -->
      <g transform="translate(24.754375 148.711873) scale(0.1 -0.1)">
       <defs>
        <path id="DejaVuSans-36" d="M 2113 2584 
Q 1688 2584 1439 2293 
Q 1191 2003 1191 1497 
Q 1191 994 1439 701 
Q 1688 409 2113 409 
Q 2538 409 2786 701 
Q 3034 994 3034 1497 
Q 3034 2003 2786 2293 
Q 2538 2584 2113 2584 
z
M 3366 4563 
L 3366 3988 
Q 3128 4100 2886 4159 
Q 2644 4219 2406 4219 
Q 1781 4219 1451 3797 
Q 1122 3375 1075 2522 
Q 1259 2794 1537 2939 
Q 1816 3084 2150 3084 
Q 2853 3084 3261 2657 
Q 3669 2231 3669 1497 
Q 3669 778 3244 343 
Q 2819 -91 2113 -91 
Q 1303 -91 875 529 
Q 447 1150 447 2328 
Q 447 3434 972 4092 
Q 1497 4750 2381 4750 
Q 2619 4750 2861 4703 
Q 3103 4656 3366 4563 
z
" transform="scale(0.015625)"/>
       </defs>
       <use xlink:href="#DejaVuSans-30"/>
       <use xlink:href="#DejaVuSans-2e" transform="translate(63.623047 0)"/>
       <use xlink:href="#DejaVuSans-35" transform="translate(95.410156 0)"/>
       <use xlink:href="#DejaVuSans-36" transform="translate(159.033203 0)"/>
      </g>
     </g>
    </g>
    <g id="ytick_6">
     <g id="line2d_23">
      <path d="M 54.02 83.997427 
L 709.2 83.997427 
" clip-path="url(#p84f202475f)" style="fill: none; stroke: #b0b0b0; stroke-width: 0.8; stroke-linecap: square"/>
     </g>
     <g id="line2d_24">
      <g>
       <use xlink:href="#m346cfb5bc5" x="54.02" y="83.997427" style="stroke: #000000; stroke-width: 0.8"/>
      </g>
     </g>
     <g id="text_13">
      <!-- 0.57 -->
      <g transform="translate(24.754375 87.796645) scale(0.1 -0.1)">
       <defs>
        <path id="DejaVuSans-37" d="M 525 4666 
L 3525 4666 
L 3525 4397 
L 1831 0 
L 1172 0 
L 2766 4134 
L 525 4134 
L 525 4666 
z
" transform="scale(0.015625)"/>
       </defs>
       <use xlink:href="#DejaVuSans-30"/>
       <use xlink:href="#DejaVuSans-2e" transform="translate(63.623047 0)"/>
       <use xlink:href="#DejaVuSans-35" transform="translate(95.410156 0)"/>
       <use xlink:href="#DejaVuSans-37" transform="translate(159.033203 0)"/>
      </g>
     </g>
    </g>
    <g id="text_14">
     <!-- Classification Accuracy per Episode -->
     <g transform="translate(18.674688 297.081875) rotate(-90) scale(0.1 -0.1)">
      <defs>
       <path id="DejaVuSans-43" d="M 4122 4306 
L 4122 3641 
Q 3803 3938 3442 4084 
Q 3081 4231 2675 4231 
Q 1875 4231 1450 3742 
Q 1025 3253 1025 2328 
Q 1025 1406 1450 917 
Q 1875 428 2675 428 
Q 3081 428 3442 575 
Q 3803 722 4122 1019 
L 4122 359 
Q 3791 134 3420 21 
Q 3050 -91 2638 -91 
Q 1578 -91 968 557 
Q 359 1206 359 2328 
Q 359 3453 968 4101 
Q 1578 4750 2638 4750 
Q 3056 4750 3426 4639 
Q 3797 4528 4122 4306 
z
" transform="scale(0.015625)"/>
       <path id="DejaVuSans-6c" d="M 603 4863 
L 1178 4863 
L 1178 0 
L 603 0 
L 603 4863 
z
" transform="scale(0.015625)"/>
       <path id="DejaVuSans-61" d="M 2194 1759 
Q 1497 1759 1228 1600 
Q 959 1441 959 1056 
Q 959 750 1161 570 
Q 1363 391 1709 391 
Q 2188 391 2477 730 
Q 2766 1069 2766 1631 
L 2766 1759 
L 2194 1759 
z
M 3341 1997 
L 3341 0 
L 2766 0 
L 2766 531 
Q 2569 213 2275 61 
Q 1981 -91 1556 -91 
Q 1019 -91 701 211 
Q 384 513 384 1019 
Q 384 1609 779 1909 
Q 1175 2209 1959 2209 
L 2766 2209 
L 2766 2266 
Q 2766 2663 2505 2880 
Q 2244 3097 1772 3097 
Q 1472 3097 1187 3025 
Q 903 2953 641 2809 
L 641 3341 
Q 956 3463 1253 3523 
Q 1550 3584 1831 3584 
Q 2591 3584 2966 3190 
Q 3341 2797 3341 1997 
z
" transform="scale(0.015625)"/>
       <path id="DejaVuSans-66" d="M 2375 4863 
L 2375 4384 
L 1825 4384 
Q 1516 4384 1395 4259 
Q 1275 4134 1275 3809 
L 1275 3500 
L 2222 3500 
L 2222 3053 
L 1275 3053 
L 1275 0 
L 697 0 
L 697 3053 
L 147 3053 
L 147 3500 
L 697 3500 
L 697 3744 
Q 697 4328 969 4595 
Q 1241 4863 1831 4863 
L 2375 4863 
z
" transform="scale(0.015625)"/>
       <path id="DejaVuSans-63" d="M 3122 3366 
L 3122 2828 
Q 2878 2963 2633 3030 
Q 2388 3097 2138 3097 
Q 1578 3097 1268 2742 
Q 959 2388 959 1747 
Q 959 1106 1268 751 
Q 1578 397 2138 397 
Q 2388 397 2633 464 
Q 2878 531 3122 666 
L 3122 134 
Q 2881 22 2623 -34 
Q 2366 -91 2075 -91 
Q 1284 -91 818 406 
Q 353 903 353 1747 
Q 353 2603 823 3093 
Q 1294 3584 2113 3584 
Q 2378 3584 2631 3529 
Q 2884 3475 3122 3366 
z
" transform="scale(0.015625)"/>
       <path id="DejaVuSans-74" d="M 1172 4494 
L 1172 3500 
L 2356 3500 
L 2356 3053 
L 1172 3053 
L 1172 1153 
Q 1172 725 1289 603 
Q 1406 481 1766 481 
L 2356 481 
L 2356 0 
L 1766 0 
Q 1100 0 847 248 
Q 594 497 594 1153 
L 594 3053 
L 172 3053 
L 172 3500 
L 594 3500 
L 594 4494 
L 1172 4494 
z
" transform="scale(0.015625)"/>
       <path id="DejaVuSans-6e" d="M 3513 2113 
L 3513 0 
L 2938 0 
L 2938 2094 
Q 2938 2591 2744 2837 
Q 2550 3084 2163 3084 
Q 1697 3084 1428 2787 
Q 1159 2491 1159 1978 
L 1159 0 
L 581 0 
L 581 3500 
L 1159 3500 
L 1159 2956 
Q 1366 3272 1645 3428 
Q 1925 3584 2291 3584 
Q 2894 3584 3203 3211 
Q 3513 2838 3513 2113 
z
" transform="scale(0.015625)"/>
       <path id="DejaVuSans-41" d="M 2188 4044 
L 1331 1722 
L 3047 1722 
L 2188 4044 
z
M 1831 4666 
L 2547 4666 
L 4325 0 
L 3669 0 
L 3244 1197 
L 1141 1197 
L 716 0 
L 50 0 
L 1831 4666 
z
" transform="scale(0.015625)"/>
       <path id="DejaVuSans-79" d="M 2059 -325 
Q 1816 -950 1584 -1140 
Q 1353 -1331 966 -1331 
L 506 -1331 
L 506 -850 
L 844 -850 
Q 1081 -850 1212 -737 
Q 1344 -625 1503 -206 
L 1606 56 
L 191 3500 
L 800 3500 
L 1894 763 
L 2988 3500 
L 3597 3500 
L 2059 -325 
z
" transform="scale(0.015625)"/>
      </defs>
      <use xlink:href="#DejaVuSans-43"/>
      <use xlink:href="#DejaVuSans-6c" transform="translate(69.824219 0)"/>
      <use xlink:href="#DejaVuSans-61" transform="translate(97.607422 0)"/>
      <use xlink:href="#DejaVuSans-73" transform="translate(158.886719 0)"/>
      <use xlink:href="#DejaVuSans-73" transform="translate(210.986328 0)"/>
      <use xlink:href="#DejaVuSans-69" transform="translate(263.085938 0)"/>
      <use xlink:href="#DejaVuSans-66" transform="translate(290.869141 0)"/>
      <use xlink:href="#DejaVuSans-69" transform="translate(326.074219 0)"/>
      <use xlink:href="#DejaVuSans-63" transform="translate(353.857422 0)"/>
      <use xlink:href="#DejaVuSans-61" transform="translate(408.837891 0)"/>
      <use xlink:href="#DejaVuSans-74" transform="translate(470.117188 0)"/>
      <use xlink:href="#DejaVuSans-69" transform="translate(509.326172 0)"/>
      <use xlink:href="#DejaVuSans-6f" transform="translate(537.109375 0)"/>
      <use xlink:href="#DejaVuSans-6e" transform="translate(598.291016 0)"/>
      <use xlink:href="#DejaVuSans-20" transform="translate(661.669922 0)"/>
      <use xlink:href="#DejaVuSans-41" transform="translate(693.457031 0)"/>
      <use xlink:href="#DejaVuSans-63" transform="translate(760.115234 0)"/>
      <use xlink:href="#DejaVuSans-63" transform="translate(815.095703 0)"/>
      <use xlink:href="#DejaVuSans-75" transform="translate(870.076172 0)"/>
      <use xlink:href="#DejaVuSans-72" transform="translate(933.455078 0)"/>
      <use xlink:href="#DejaVuSans-61" transform="translate(974.568359 0)"/>
      <use xlink:href="#DejaVuSans-63" transform="translate(1035.847656 0)"/>
      <use xlink:href="#DejaVuSans-79" transform="translate(1090.828125 0)"/>
      <use xlink:href="#DejaVuSans-20" transform="translate(1150.007812 0)"/>
      <use xlink:href="#DejaVuSans-70" transform="translate(1181.794922 0)"/>
      <use xlink:href="#DejaVuSans-65" transform="translate(1245.271484 0)"/>
      <use xlink:href="#DejaVuSans-72" transform="translate(1306.794922 0)"/>
      <use xlink:href="#DejaVuSans-20" transform="translate(1347.908203 0)"/>
      <use xlink:href="#DejaVuSans-45" transform="translate(1379.695312 0)"/>
      <use xlink:href="#DejaVuSans-70" transform="translate(1442.878906 0)"/>
      <use xlink:href="#DejaVuSans-69" transform="translate(1506.355469 0)"/>
      <use xlink:href="#DejaVuSans-73" transform="translate(1534.138672 0)"/>
      <use xlink:href="#DejaVuSans-6f" transform="translate(1586.238281 0)"/>
      <use xlink:href="#DejaVuSans-64" transform="translate(1647.419922 0)"/>
      <use xlink:href="#DejaVuSans-65" transform="translate(1710.896484 0)"/>
     </g>
    </g>
   </g>
   <g id="line2d_25">
    <path d="M 83.800909 190.035011 
L 84.615708 186.274848 
L 85.430507 174.242191 
L 86.245307 173.490144 
L 87.060106 178.754434 
L 87.874905 140.400401 
L 88.689704 212.596241 
L 89.504503 305.097104 
L 90.319302 244.93394 
L 91.134101 162.209543 
L 91.948901 193.043188 
L 92.7637 187.778902 
L 93.578499 275.767557 
L 94.393298 108.062692 
L 95.208097 161.457511 
L 96.022896 197.555414 
L 96.837696 209.588052 
L 97.652495 225.380903 
L 98.467294 215.604367 
L 99.282093 164.465642 
L 100.096892 205.075823 
L 100.911691 204.323778 
L 101.72649 53.163795 
L 102.54129 156.193223 
L 103.356089 99.038212 
L 104.170888 236.661487 
L 104.985687 215.604391 
L 105.800486 263.734922 
L 106.615285 227.637002 
L 107.430085 184.0187 
L 108.244884 224.628857 
L 109.059683 185.522794 
L 109.874482 205.827857 
L 110.689281 265.99104 
L 111.50408 101.294326 
L 112.318879 191.539087 
L 113.133679 190.035025 
L 113.948478 113.32697 
L 114.763277 257.71859 
L 115.578076 146.416733 
L 117.207674 241.925787 
L 118.022474 241.173721 
L 118.837273 214.852345 
L 119.652072 236.661494 
L 120.466871 108.062685 
L 121.28167 276.519609 
L 122.096469 222.372717 
L 122.911268 199.059503 
L 123.726068 134.384076 
L 124.540867 246.438006 
L 125.355666 333.674627 
L 126.170465 320.889962 
L 126.985264 162.961602 
L 127.800063 228.389051 
L 128.614863 207.331948 
L 129.429662 165.217708 
L 130.244461 200.563577 
L 131.05926 139.648371 
L 131.874059 184.018724 
L 132.688858 216.356418 
L 133.503658 43.387273 
L 134.318457 154.689169 
L 135.133256 217.860505 
L 135.948055 258.470644 
L 136.762854 272.759402 
L 137.577653 279.527754 
L 138.392452 202.81969 
L 139.207252 164.465678 
L 140.022051 199.059508 
L 140.83685 260.726772 
L 141.651649 156.19324 
L 142.466448 215.604369 
L 143.281247 186.274816 
L 144.096047 279.527766 
L 144.910846 168.22588 
L 146.540444 226.132938 
L 147.355243 241.925753 
L 148.170042 210.340089 
L 148.984841 284.792037 
L 149.799641 177.250363 
L 150.61444 293.064468 
L 151.429239 190.787067 
L 152.244038 238.16558 
L 153.058837 216.356421 
L 153.873636 247.942083 
L 154.688436 171.234035 
L 155.503235 240.421701 
L 156.318034 142.656517 
L 157.132833 258.470654 
L 157.947632 202.067665 
L 158.762431 192.291134 
L 159.57723 244.181883 
L 161.206829 212.596214 
L 162.021628 281.03185 
L 162.836427 150.928955 
L 163.651226 233.653334 
L 164.466025 174.994223 
L 165.280825 186.274821 
L 166.095624 175.746274 
L 166.910423 134.384069 
L 167.725222 247.942092 
L 168.540021 117.839221 
L 169.35482 209.588054 
L 170.169619 220.86865 
L 170.984419 150.928945 
L 171.799218 234.405362 
L 172.614017 229.893116 
L 173.428816 204.323788 
L 174.243615 278.775708 
L 175.058414 223.876822 
L 175.873214 216.356409 
L 176.688013 222.372768 
L 177.502812 256.966558 
L 179.13241 120.847362 
L 179.947209 253.206378 
L 180.762008 241.173709 
L 181.576808 162.961595 
L 182.391607 173.490149 
L 183.206406 260.726767 
L 184.021205 168.977908 
L 184.836004 215.604398 
L 185.650803 196.051355 
L 186.465603 215.604396 
L 187.280402 184.770761 
L 188.095201 193.79522 
L 188.91 211.844168 
L 189.724799 211.844187 
L 190.539598 210.340091 
L 191.354397 168.97792 
L 192.169197 190.78706 
L 192.983996 114.831049 
L 193.798795 289.304271 
L 194.613594 249.446183 
L 195.428393 279.527783 
L 196.243192 256.214526 
L 197.057992 166.721794 
L 197.872791 191.539109 
L 198.68759 224.628869 
L 199.502389 238.165578 
L 200.317188 277.271636 
L 201.131987 149.424898 
L 201.946786 217.108458 
L 202.761586 256.96656 
L 203.576385 269.751235 
L 204.391184 272.007368 
L 205.205983 150.928962 
L 206.020782 281.783868 
L 206.835581 244.933942 
L 207.650381 266.743094 
L 208.46518 192.291138 
L 209.279979 278.775722 
L 210.094778 229.141081 
L 210.909577 117.087155 
L 211.724376 203.571749 
L 212.539175 265.991028 
L 213.353975 208.836034 
L 214.168774 266.74307 
L 214.983573 214.100293 
L 215.798372 252.454317 
L 216.613171 202.06767 
L 217.42797 112.574921 
L 218.24277 247.190051 
L 219.057569 126.86368 
L 219.872368 128.367758 
L 220.687167 222.372739 
L 221.501966 192.291146 
L 222.316765 189.282978 
L 223.131564 217.860495 
L 223.946364 225.380886 
L 224.761163 214.852335 
L 225.575962 190.035028 
L 226.390761 181.762592 
L 227.20556 145.664696 
L 228.020359 241.173733 
L 228.835159 205.075806 
L 229.649958 154.689147 
L 230.464757 192.291143 
L 231.279556 246.438011 
L 232.094355 223.876817 
L 232.909154 209.588049 
L 233.723953 191.539101 
L 234.538753 264.486981 
L 235.353552 195.299306 
L 236.168351 266.743087 
L 236.98315 187.7789 
L 237.797949 168.225863 
L 238.612748 229.893128 
L 239.427548 216.356433 
L 240.242347 221.620699 
L 241.057146 243.429863 
L 241.871945 217.860492 
L 242.686744 223.876808 
L 243.501543 241.17374 
L 244.316342 138.896322 
L 245.131142 223.876803 
L 245.945941 247.190043 
L 247.575539 138.144285 
L 248.390338 225.380882 
L 249.205137 155.441186 
L 250.019937 263.734932 
L 250.834736 181.010557 
L 251.649535 248.694127 
L 252.464334 216.356411 
L 253.279133 261.478806 
L 254.093932 169.729957 
L 254.908732 174.242186 
L 255.723531 204.323791 
L 256.53833 116.335121 
L 257.353129 230.645182 
L 258.167928 290.80836 
L 258.982727 270.503265 
L 259.797526 240.421708 
L 260.612326 205.075815 
L 261.427125 244.181898 
L 262.241924 118.591232 
L 263.056723 207.331936 
L 263.871522 190.035013 
L 264.686321 239.669649 
L 265.501121 193.795239 
L 266.31592 258.470651 
L 267.130719 217.860485 
L 267.945518 199.811557 
L 268.760317 235.157413 
L 269.575116 196.051345 
L 270.389915 268.999198 
L 271.204715 214.100305 
L 272.019514 176.498301 
L 272.834313 229.893137 
L 273.649112 194.547269 
L 274.463911 259.222683 
L 275.27871 263.73492 
L 276.09351 237.413529 
L 276.908309 309.609345 
L 277.723108 238.165559 
L 278.537907 136.640197 
L 279.352706 289.304274 
L 280.167505 240.421689 
L 280.982304 229.141103 
L 281.797104 187.02687 
L 282.611903 192.291143 
L 283.426702 302.840993 
L 284.241501 178.75442 
L 285.0563 126.863684 
L 285.871099 220.11662 
L 286.685899 168.225861 
L 287.500698 249.446166 
L 288.315497 256.214514 
L 289.130296 198.307454 
L 289.945095 247.942092 
L 290.759894 269.751247 
L 291.574693 160.705481 
L 292.389493 210.340111 
L 293.204292 165.96975 
L 294.019091 235.909455 
L 294.83389 353.979701 
L 295.648689 209.588066 
L 296.463488 267.495139 
L 297.278288 251.702294 
L 298.093087 284.039998 
L 298.907886 232.149258 
L 299.722685 273.511444 
L 300.537484 259.974733 
L 301.352283 206.579916 
L 302.167082 259.222683 
L 302.981882 96.030057 
L 303.796681 247.942085 
L 304.61148 199.059512 
L 305.426279 242.677822 
L 306.241078 116.335126 
L 307.055877 256.214531 
L 307.870677 171.234035 
L 308.685476 187.778909 
L 309.500275 252.454331 
L 310.315074 150.176918 
L 311.944672 241.17374 
L 312.759471 275.767567 
L 313.574271 199.811564 
L 314.38907 141.152447 
L 315.203869 262.230853 
L 316.018668 223.876825 
L 316.833467 157.697317 
L 317.648266 258.470634 
L 318.463066 246.438016 
L 319.277865 165.217732 
L 320.092664 230.645172 
L 320.907463 156.945277 
L 321.722262 213.348251 
L 322.537061 159.20141 
L 323.35186 253.206371 
L 324.16666 240.421696 
L 324.981459 169.72994 
L 325.796258 237.413531 
L 326.611057 226.132935 
L 327.425856 147.920785 
L 328.240655 195.299318 
L 329.055455 213.348254 
L 329.870254 201.315611 
L 330.685053 217.108455 
L 331.499852 202.06767 
L 332.314651 172.738117 
L 333.12945 171.234035 
L 333.944249 179.506454 
L 334.759049 260.726757 
L 335.573848 226.132931 
L 336.388647 254.710445 
L 337.203446 181.010535 
L 338.018245 185.522796 
L 338.833044 193.795222 
L 339.647844 200.563569 
L 340.462643 170.481998 
L 341.277442 212.596231 
L 342.092241 194.547259 
L 342.90704 211.092148 
L 343.721839 201.315621 
L 344.536638 145.664681 
L 345.351438 300.584857 
L 346.166237 123.103485 
L 346.981036 217.108475 
L 347.795835 134.384088 
L 348.610634 309.609352 
L 349.425433 182.514619 
L 350.240233 167.473846 
L 351.055032 199.059505 
L 351.869831 272.759395 
L 352.68463 223.876827 
L 353.499429 151.681001 
L 354.314228 232.149258 
L 355.129027 249.446169 
L 355.943827 105.05453 
L 356.758626 165.96974 
L 357.573425 203.571742 
L 358.388224 232.901295 
L 359.203023 270.503289 
L 360.017822 94.525971 
L 360.832622 214.100305 
L 361.647421 163.713632 
L 363.277019 304.345062 
L 364.091818 199.811545 
L 364.906617 144.160591 
L 365.721416 205.075825 
L 366.536216 180.258513 
L 367.351015 202.06766 
L 368.165814 210.340086 
L 368.980613 283.287956 
L 369.795412 80.989252 
L 370.610211 250.198213 
L 371.425011 188.530956 
L 372.23981 197.555419 
L 373.054609 235.909445 
L 373.869408 176.498321 
L 374.684207 182.514619 
L 375.499006 180.258515 
L 376.313805 177.250355 
L 377.128605 263.734927 
L 377.943404 231.397211 
L 378.758203 176.498318 
L 379.573002 191.539104 
L 380.387801 116.335133 
L 381.2026 184.770757 
L 382.832199 135.13611 
L 383.646998 235.157423 
L 384.461797 76.477026 
L 385.276596 203.571758 
L 386.091395 93.021897 
L 386.906195 199.059505 
L 387.720994 162.9616 
L 388.535793 194.547266 
L 389.350592 157.697329 
L 390.165391 156.945284 
L 390.98019 222.372741 
L 391.794989 208.836027 
L 392.609789 166.721797 
L 393.424588 202.067672 
L 394.239387 192.291155 
L 395.054186 162.961614 
L 395.868985 287.04817 
L 396.683784 213.348273 
L 397.498584 267.495126 
L 398.313383 190.787067 
L 399.128182 222.372748 
L 399.942981 150.928972 
L 400.75778 191.539106 
L 401.572579 190.787065 
L 402.387378 241.925758 
L 403.202178 267.495129 
L 404.016977 241.92577 
L 404.831776 96.782104 
L 405.646575 220.116611 
L 406.461374 243.429859 
L 407.276173 204.323783 
L 408.090973 285.544077 
L 408.905772 199.811549 
L 409.720571 205.075823 
L 410.53537 247.942088 
L 411.350169 167.473836 
L 412.164968 220.86866 
L 412.979767 261.478809 
L 413.794567 160.705481 
L 414.609366 148.672827 
L 415.424165 172.738117 
L 416.238964 153.185083 
L 417.053763 223.124773 
L 417.868562 143.408554 
L 418.683362 211.844189 
L 419.498161 208.836029 
L 420.31296 159.201393 
L 421.127759 259.974723 
L 421.942558 196.051348 
L 422.757357 192.291165 
L 423.572156 235.157413 
L 424.386956 166.721801 
L 425.201755 235.157401 
L 426.016554 99.038212 
L 426.831353 179.506478 
L 427.646152 281.783868 
L 428.460951 220.868657 
L 429.275751 134.384098 
L 430.09055 165.96974 
L 430.905349 157.697321 
L 431.720148 188.530954 
L 432.534947 164.465671 
L 433.349746 229.89314 
L 434.164545 229.893125 
L 434.979345 183.26668 
L 435.794144 123.85552 
L 436.608943 209.588042 
L 437.423742 228.389054 
L 438.238541 126.11163 
L 439.05334 275.767574 
L 439.86814 226.132935 
L 440.682939 155.441203 
L 442.312537 236.661477 
L 443.127336 181.762582 
L 443.942135 250.198218 
L 445.571734 149.424871 
L 446.386533 223.87682 
L 447.201332 205.075799 
L 448.016131 217.108458 
L 448.83093 235.15742 
L 449.645729 174.994223 
L 450.460529 193.043185 
L 451.275328 268.247161 
L 452.090127 279.527759 
L 452.904926 128.367775 
L 453.719725 199.059522 
L 454.534524 202.067663 
L 455.349323 190.787057 
L 456.164123 328.410347 
L 456.978922 144.160593 
L 457.793721 247.942085 
L 458.60852 214.852332 
L 459.423319 226.132931 
L 460.238118 155.441203 
L 461.052918 106.558609 
L 461.867717 225.380903 
L 462.682516 185.522791 
L 463.497315 219.364571 
L 464.312114 196.051362 
L 465.126913 184.018717 
L 465.941712 147.168765 
L 466.756512 259.222691 
L 467.571311 184.770766 
L 468.38611 151.681001 
L 469.200909 276.519599 
L 470.015708 110.31882 
L 470.830507 105.05453 
L 471.645307 224.628857 
L 472.460106 172.738126 
L 473.274905 257.718593 
L 474.089704 237.413536 
L 474.904503 241.925763 
L 475.719302 207.331938 
L 476.534101 232.149265 
L 477.348901 165.969774 
L 478.1637 253.958396 
L 478.978499 187.026863 
L 479.793298 257.718614 
L 480.608097 206.579911 
L 481.422896 201.315631 
L 482.237696 220.116628 
L 483.052495 262.98289 
L 483.867294 171.986068 
L 484.682093 206.579916 
L 485.496892 144.160593 
L 486.311691 248.694122 
L 487.12649 218.612546 
L 487.94129 235.909457 
L 488.756089 229.141095 
L 489.570888 159.201407 
L 490.385687 290.056325 
L 491.200486 221.620702 
L 492.015285 190.787057 
L 492.830085 153.185073 
L 493.644884 147.9208 
L 494.459683 260.726782 
L 495.274482 272.007363 
L 496.089281 119.343276 
L 496.90408 329.914423 
L 497.718879 174.242195 
L 498.533679 245.685972 
L 499.348478 171.986058 
L 500.163277 157.697319 
L 500.978076 163.713637 
L 501.792875 205.075825 
L 502.607674 220.86866 
L 503.422474 238.917622 
L 504.237273 292.312448 
L 505.052072 259.97473 
L 505.866871 180.258508 
L 506.68167 164.465691 
L 507.496469 172.738104 
L 509.126068 299.0808 
L 509.940867 154.689147 
L 510.755666 183.266675 
L 511.570465 174.242198 
L 512.385264 185.522801 
L 513.200063 186.274818 
L 514.014863 281.783882 
L 514.829662 203.571746 
L 515.644461 231.397211 
L 516.45926 219.364581 
L 517.274059 200.563582 
L 518.088858 286.296107 
L 518.903658 221.620697 
L 519.718457 240.421699 
L 520.533256 153.18509 
L 521.348055 218.61252 
L 522.162854 184.770754 
L 522.977653 209.588069 
L 523.792452 195.299308 
L 524.607252 289.304279 
L 525.422051 205.075832 
L 526.23685 290.80836 
L 527.051649 225.380896 
L 527.866448 227.637034 
L 528.681247 214.1003 
L 529.496047 213.348263 
L 530.310846 297.576695 
L 531.125645 262.230831 
L 531.940444 165.217718 
L 532.755243 230.645162 
L 533.570042 174.242186 
L 534.384841 230.645162 
L 535.199641 324.650135 
L 536.01444 250.198203 
L 536.829239 202.819709 
L 537.644038 178.002375 
L 538.458837 187.026882 
L 539.273636 120.847352 
L 540.088436 260.726767 
L 540.903235 173.490166 
L 541.718034 256.966551 
L 542.532833 196.803387 
L 543.347632 231.397209 
L 544.162431 205.07582 
L 544.97723 172.738107 
L 545.79203 204.323795 
L 546.606829 252.454326 
L 548.236427 299.0808 
L 549.051226 178.002392 
L 549.866025 185.522794 
L 550.680825 144.91263 
L 551.495624 187.778917 
L 552.310423 196.803385 
L 553.125222 272.007373 
L 553.940021 241.925775 
L 554.75482 197.555431 
L 555.569619 227.637007 
L 556.384419 265.239013 
L 557.199218 190.787077 
L 558.014017 195.299306 
L 558.828816 102.798426 
L 559.643615 256.966575 
L 560.458414 296.072626 
L 561.273214 221.620697 
L 562.088013 183.266675 
L 562.902812 238.91762 
L 563.717611 214.100295 
L 564.53241 133.632051 
L 565.347209 96.030069 
L 566.162008 161.457526 
L 566.976808 188.530941 
L 567.791607 211.844168 
L 568.606406 209.588064 
L 569.421205 178.00238 
L 570.236004 250.198203 
L 571.050803 180.258515 
L 571.865603 235.157423 
L 572.680402 211.844168 
L 573.495201 211.844182 
L 574.31 249.446169 
L 575.124799 143.408539 
L 575.939598 148.672839 
L 576.754397 128.36778 
L 577.569197 210.340111 
L 578.383996 232.14926 
L 579.198795 181.762592 
L 580.828393 211.844163 
L 581.643192 192.291134 
L 582.457992 247.19006 
L 583.272791 155.441194 
L 584.08759 168.225868 
L 584.902389 308.10528 
L 585.717188 215.604394 
L 586.531987 256.96656 
L 587.346786 183.266661 
L 588.161586 123.103478 
L 588.976385 277.271643 
L 589.791184 138.144292 
L 590.605983 209.588071 
L 591.420782 247.942097 
L 592.235581 193.795205 
L 593.050381 174.994232 
L 593.86518 271.255321 
L 594.679979 153.185075 
L 595.494778 178.754434 
L 596.309577 238.165549 
L 597.124376 191.539106 
L 597.939175 223.124763 
L 598.753975 223.12478 
L 599.568774 271.255304 
L 600.383573 181.762589 
L 601.198372 185.522791 
L 602.013171 308.857313 
L 602.82797 188.530949 
L 603.64277 144.1606 
L 604.457569 303.593022 
L 605.272368 148.672854 
L 606.087167 173.490161 
L 606.901966 168.225892 
L 607.716765 240.421703 
L 608.531564 142.656502 
L 609.346364 228.389071 
L 610.161163 220.868655 
L 610.975962 176.498304 
L 611.790761 244.933928 
L 612.60556 209.588062 
L 613.420359 147.920824 
L 614.235159 256.966565 
L 615.049958 196.051314 
L 615.864757 276.519606 
L 616.679556 223.876825 
L 617.494355 278.023685 
L 618.309154 200.563582 
L 619.123953 328.410347 
L 619.938753 277.271648 
L 620.753552 187.778895 
L 621.568351 140.400394 
L 622.38315 219.364579 
L 623.197949 262.9829 
L 624.012748 196.05135 
L 624.827548 165.969745 
L 625.642347 195.299306 
L 626.457146 202.06767 
L 627.271945 159.95344 
L 628.086744 265.991048 
L 628.901543 189.282976 
L 629.716342 211.092155 
L 630.531142 279.527759 
L 631.345941 259.222688 
L 632.16074 248.694129 
L 632.975539 262.230841 
L 633.790338 143.408568 
L 634.605137 246.438019 
L 635.419937 244.181888 
L 636.234736 216.356426 
L 637.049535 254.710445 
L 637.864334 81.741289 
L 638.679133 202.067663 
L 639.493932 278.023685 
L 640.308732 186.27484 
L 641.123531 129.871844 
L 641.93833 215.604382 
L 642.753129 223.876815 
L 643.567928 181.762599 
L 644.382727 284.04 
L 645.197526 299.832823 
L 646.827125 202.067658 
L 647.641924 278.023695 
L 648.456723 213.348266 
L 649.271522 247.942085 
L 650.086321 149.424874 
L 650.901121 224.628876 
L 651.71592 229.141091 
L 652.530719 222.372722 
L 653.345518 235.157413 
L 654.160317 157.697304 
L 654.975116 166.721787 
L 655.789915 208.083988 
L 656.604715 275.767562 
L 657.419514 230.645167 
L 658.234313 235.909467 
L 659.049112 141.152445 
L 659.863911 163.713632 
L 660.67871 202.8197 
L 661.49351 184.01872 
L 662.308309 83.245366 
L 663.123108 281.78386 
L 663.937907 181.010535 
L 664.752706 236.661485 
L 665.567505 206.579909 
L 666.382304 185.522784 
L 667.197104 185.522765 
L 668.011903 373.532727 
L 668.826702 271.255316 
L 669.641501 300.584853 
L 670.4563 106.558621 
L 671.271099 186.274826 
L 672.085899 241.925785 
L 672.900698 102.798419 
L 673.715497 173.490151 
L 674.530296 151.680999 
L 675.345095 153.185083 
L 676.159894 184.770766 
L 676.974693 232.149253 
L 677.789493 235.909448 
L 678.604292 143.408556 
L 679.419091 323.89811 
L 679.419091 323.89811 
" clip-path="url(#p84f202475f)" style="fill: none; stroke: #1f77b4; stroke-width: 1.5; stroke-linecap: square"/>
   </g>
   <g id="patch_3">
    <path d="M 54.02 390.04 
L 54.02 26.88 
" style="fill: none; stroke: #000000; stroke-width: 0.8; stroke-linejoin: miter; stroke-linecap: square"/>
   </g>
   <g id="patch_4">
    <path d="M 709.2 390.04 
L 709.2 26.88 
" style="fill: none; stroke: #000000; stroke-width: 0.8; stroke-linejoin: miter; stroke-linecap: square"/>
   </g>
   <g id="patch_5">
    <path d="M 54.02 390.04 
L 709.2 390.04 
" style="fill: none; stroke: #000000; stroke-width: 0.8; stroke-linejoin: miter; stroke-linecap: square"/>
   </g>
   <g id="patch_6">
    <path d="M 54.02 26.88 
L 709.2 26.88 
" style="fill: none; stroke: #000000; stroke-width: 0.8; stroke-linejoin: miter; stroke-linecap: square"/>
   </g>
   <g id="text_15">
    <!-- Classification Accuracy per Episode -->
    <g transform="translate(275.26375 20.88) scale(0.12 -0.12)">
     <use xlink:href="#DejaVuSans-43"/>
     <use xlink:href="#DejaVuSans-6c" transform="translate(69.824219 0)"/>
     <use xlink:href="#DejaVuSans-61" transform="translate(97.607422 0)"/>
     <use xlink:href="#DejaVuSans-73" transform="translate(158.886719 0)"/>
     <use xlink:href="#DejaVuSans-73" transform="translate(210.986328 0)"/>
     <use xlink:href="#DejaVuSans-69" transform="translate(263.085938 0)"/>
     <use xlink:href="#DejaVuSans-66" transform="translate(290.869141 0)"/>
     <use xlink:href="#DejaVuSans-69" transform="translate(326.074219 0)"/>
     <use xlink:href="#DejaVuSans-63" transform="translate(353.857422 0)"/>
     <use xlink:href="#DejaVuSans-61" transform="translate(408.837891 0)"/>
     <use xlink:href="#DejaVuSans-74" transform="translate(470.117188 0)"/>
     <use xlink:href="#DejaVuSans-69" transform="translate(509.326172 0)"/>
     <use xlink:href="#DejaVuSans-6f" transform="translate(537.109375 0)"/>
     <use xlink:href="#DejaVuSans-6e" transform="translate(598.291016 0)"/>
     <use xlink:href="#DejaVuSans-20" transform="translate(661.669922 0)"/>
     <use xlink:href="#DejaVuSans-41" transform="translate(693.457031 0)"/>
     <use xlink:href="#DejaVuSans-63" transform="translate(760.115234 0)"/>
     <use xlink:href="#DejaVuSans-63" transform="translate(815.095703 0)"/>
     <use xlink:href="#DejaVuSans-75" transform="translate(870.076172 0)"/>
     <use xlink:href="#DejaVuSans-72" transform="translate(933.455078 0)"/>
     <use xlink:href="#DejaVuSans-61" transform="translate(974.568359 0)"/>
     <use xlink:href="#DejaVuSans-63" transform="translate(1035.847656 0)"/>
     <use xlink:href="#DejaVuSans-79" transform="translate(1090.828125 0)"/>
     <use xlink:href="#DejaVuSans-20" transform="translate(1150.007812 0)"/>
     <use xlink:href="#DejaVuSans-70" transform="translate(1181.794922 0)"/>
     <use xlink:href="#DejaVuSans-65" transform="translate(1245.271484 0)"/>
     <use xlink:href="#DejaVuSans-72" transform="translate(1306.794922 0)"/>
     <use xlink:href="#DejaVuSans-20" transform="translate(1347.908203 0)"/>
     <use xlink:href="#DejaVuSans-45" transform="translate(1379.695312 0)"/>
     <use xlink:href="#DejaVuSans-70" transform="translate(1442.878906 0)"/>
     <use xlink:href="#DejaVuSans-69" transform="translate(1506.355469 0)"/>
     <use xlink:href="#DejaVuSans-73" transform="translate(1534.138672 0)"/>
     <use xlink:href="#DejaVuSans-6f" transform="translate(1586.238281 0)"/>
     <use xlink:href="#DejaVuSans-64" transform="translate(1647.419922 0)"/>
     <use xlink:href="#DejaVuSans-65" transform="translate(1710.896484 0)"/>
    </g>
   </g>
   <g id="legend_1">
    <g id="patch_7">
     <path d="M 397.3 49.558125 
L 702.2 49.558125 
Q 704.2 49.558125 704.2 47.558125 
L 704.2 33.88 
Q 704.2 31.88 702.2 31.88 
L 397.3 31.88 
Q 395.3 31.88 395.3 33.88 
L 395.3 47.558125 
Q 395.3 49.558125 397.3 49.558125 
z
" style="fill: #ffffff; opacity: 0.8; stroke: #cccccc; stroke-linejoin: miter"/>
    </g>
    <g id="line2d_26">
     <path d="M 399.3 39.978438 
L 409.3 39.978438 
L 419.3 39.978438 
" style="fill: none; stroke: #1f77b4; stroke-width: 1.5; stroke-linecap: square"/>
    </g>
    <g id="text_16">
     <!-- Average Episode Classification Accuracy (75 episodes) -->
     <g transform="translate(427.3 43.478438) scale(0.1 -0.1)">
      <defs>
       <path id="DejaVuSans-76" d="M 191 3500 
L 800 3500 
L 1894 563 
L 2988 3500 
L 3597 3500 
L 2284 0 
L 1503 0 
L 191 3500 
z
" transform="scale(0.015625)"/>
       <path id="DejaVuSans-67" d="M 2906 1791 
Q 2906 2416 2648 2759 
Q 2391 3103 1925 3103 
Q 1463 3103 1205 2759 
Q 947 2416 947 1791 
Q 947 1169 1205 825 
Q 1463 481 1925 481 
Q 2391 481 2648 825 
Q 2906 1169 2906 1791 
z
M 3481 434 
Q 3481 -459 3084 -895 
Q 2688 -1331 1869 -1331 
Q 1566 -1331 1297 -1286 
Q 1028 -1241 775 -1147 
L 775 -588 
Q 1028 -725 1275 -790 
Q 1522 -856 1778 -856 
Q 2344 -856 2625 -561 
Q 2906 -266 2906 331 
L 2906 616 
Q 2728 306 2450 153 
Q 2172 0 1784 0 
Q 1141 0 747 490 
Q 353 981 353 1791 
Q 353 2603 747 3093 
Q 1141 3584 1784 3584 
Q 2172 3584 2450 3431 
Q 2728 3278 2906 2969 
L 2906 3500 
L 3481 3500 
L 3481 434 
z
" transform="scale(0.015625)"/>
       <path id="DejaVuSans-28" d="M 1984 4856 
Q 1566 4138 1362 3434 
Q 1159 2731 1159 2009 
Q 1159 1288 1364 580 
Q 1569 -128 1984 -844 
L 1484 -844 
Q 1016 -109 783 600 
Q 550 1309 550 2009 
Q 550 2706 781 3412 
Q 1013 4119 1484 4856 
L 1984 4856 
z
" transform="scale(0.015625)"/>
       <path id="DejaVuSans-29" d="M 513 4856 
L 1013 4856 
Q 1481 4119 1714 3412 
Q 1947 2706 1947 2009 
Q 1947 1309 1714 600 
Q 1481 -109 1013 -844 
L 513 -844 
Q 928 -128 1133 580 
Q 1338 1288 1338 2009 
Q 1338 2731 1133 3434 
Q 928 4138 513 4856 
z
" transform="scale(0.015625)"/>
      </defs>
      <use xlink:href="#DejaVuSans-41"/>
      <use xlink:href="#DejaVuSans-76" transform="translate(62.533203 0)"/>
      <use xlink:href="#DejaVuSans-65" transform="translate(121.712891 0)"/>
      <use xlink:href="#DejaVuSans-72" transform="translate(183.236328 0)"/>
      <use xlink:href="#DejaVuSans-61" transform="translate(224.349609 0)"/>
      <use xlink:href="#DejaVuSans-67" transform="translate(285.628906 0)"/>
      <use xlink:href="#DejaVuSans-65" transform="translate(349.105469 0)"/>
      <use xlink:href="#DejaVuSans-20" transform="translate(410.628906 0)"/>
      <use xlink:href="#DejaVuSans-45" transform="translate(442.416016 0)"/>
      <use xlink:href="#DejaVuSans-70" transform="translate(505.599609 0)"/>
      <use xlink:href="#DejaVuSans-69" transform="translate(569.076172 0)"/>
      <use xlink:href="#DejaVuSans-73" transform="translate(596.859375 0)"/>
      <use xlink:href="#DejaVuSans-6f" transform="translate(648.958984 0)"/>
      <use xlink:href="#DejaVuSans-64" transform="translate(710.140625 0)"/>
      <use xlink:href="#DejaVuSans-65" transform="translate(773.617188 0)"/>
      <use xlink:href="#DejaVuSans-20" transform="translate(835.140625 0)"/>
      <use xlink:href="#DejaVuSans-43" transform="translate(866.927734 0)"/>
      <use xlink:href="#DejaVuSans-6c" transform="translate(936.751953 0)"/>
      <use xlink:href="#DejaVuSans-61" transform="translate(964.535156 0)"/>
      <use xlink:href="#DejaVuSans-73" transform="translate(1025.814453 0)"/>
      <use xlink:href="#DejaVuSans-73" transform="translate(1077.914062 0)"/>
      <use xlink:href="#DejaVuSans-69" transform="translate(1130.013672 0)"/>
      <use xlink:href="#DejaVuSans-66" transform="translate(1157.796875 0)"/>
      <use xlink:href="#DejaVuSans-69" transform="translate(1193.001953 0)"/>
      <use xlink:href="#DejaVuSans-63" transform="translate(1220.785156 0)"/>
      <use xlink:href="#DejaVuSans-61" transform="translate(1275.765625 0)"/>
      <use xlink:href="#DejaVuSans-74" transform="translate(1337.044922 0)"/>
      <use xlink:href="#DejaVuSans-69" transform="translate(1376.253906 0)"/>
      <use xlink:href="#DejaVuSans-6f" transform="translate(1404.037109 0)"/>
      <use xlink:href="#DejaVuSans-6e" transform="translate(1465.21875 0)"/>
      <use xlink:href="#DejaVuSans-20" transform="translate(1528.597656 0)"/>
      <use xlink:href="#DejaVuSans-41" transform="translate(1560.384766 0)"/>
      <use xlink:href="#DejaVuSans-63" transform="translate(1627.042969 0)"/>
      <use xlink:href="#DejaVuSans-63" transform="translate(1682.023438 0)"/>
      <use xlink:href="#DejaVuSans-75" transform="translate(1737.003906 0)"/>
      <use xlink:href="#DejaVuSans-72" transform="translate(1800.382812 0)"/>
      <use xlink:href="#DejaVuSans-61" transform="translate(1841.496094 0)"/>
      <use xlink:href="#DejaVuSans-63" transform="translate(1902.775391 0)"/>
      <use xlink:href="#DejaVuSans-79" transform="translate(1957.755859 0)"/>
      <use xlink:href="#DejaVuSans-20" transform="translate(2016.935547 0)"/>
      <use xlink:href="#DejaVuSans-28" transform="translate(2048.722656 0)"/>
      <use xlink:href="#DejaVuSans-37" transform="translate(2087.736328 0)"/>
      <use xlink:href="#DejaVuSans-35" transform="translate(2151.359375 0)"/>
      <use xlink:href="#DejaVuSans-20" transform="translate(2214.982422 0)"/>
      <use xlink:href="#DejaVuSans-65" transform="translate(2246.769531 0)"/>
      <use xlink:href="#DejaVuSans-70" transform="translate(2308.292969 0)"/>
      <use xlink:href="#DejaVuSans-69" transform="translate(2371.769531 0)"/>
      <use xlink:href="#DejaVuSans-73" transform="translate(2399.552734 0)"/>
      <use xlink:href="#DejaVuSans-6f" transform="translate(2451.652344 0)"/>
      <use xlink:href="#DejaVuSans-64" transform="translate(2512.833984 0)"/>
      <use xlink:href="#DejaVuSans-65" transform="translate(2576.310547 0)"/>
      <use xlink:href="#DejaVuSans-73" transform="translate(2637.833984 0)"/>
      <use xlink:href="#DejaVuSans-29" transform="translate(2689.933594 0)"/>
     </g>
    </g>
   </g>
  </g>
 </g>
 <defs>
  <clipPath id="p84f202475f">
   <rect x="54.02" y="26.88" width="655.18" height="363.16"/>
  </clipPath>
 </defs>
</svg>
