<?xml version="1.0" encoding="utf-8" standalone="no"?>
<!DOCTYPE svg PUBLIC "-//W3C//DTD SVG 1.1//EN"
  "http://www.w3.org/Graphics/SVG/1.1/DTD/svg11.dtd">
<svg xmlns:xlink="http://www.w3.org/1999/xlink" width="720pt" height="432pt" viewBox="0 0 720 432" xmlns="http://www.w3.org/2000/svg" version="1.1">
 <metadata>
  <rdf:RDF xmlns:dc="http://purl.org/dc/elements/1.1/" xmlns:cc="http://creativecommons.org/ns#" xmlns:rdf="http://www.w3.org/1999/02/22-rdf-syntax-ns#">
   <cc:Work>
    <dc:type rdf:resource="http://purl.org/dc/dcmitype/StillImage"/>
    <dc:date>2025-04-23T13:26:24.748977</dc:date>
    <dc:format>image/svg+xml</dc:format>
    <dc:creator>
     <cc:Agent>
      <dc:title>Matplotlib v3.10.1, https://matplotlib.org/</dc:title>
     </cc:Agent>
    </dc:creator>
   </cc:Work>
  </rdf:RDF>
 </metadata>
 <defs>
  <style type="text/css">*{stroke-linejoin: round; stroke-linecap: butt}</style>
 </defs>
 <g id="figure_1">
  <g id="patch_1">
   <path d="M 0 432 
L 720 432 
L 720 0 
L 0 0 
z
" style="fill: #ffffff"/>
  </g>
  <g id="axes_1">
   <g id="patch_2">
    <path d="M 54.02 390.04 
L 709.2 390.04 
L 709.2 26.88 
L 54.02 26.88 
z
" style="fill: #ffffff"/>
   </g>
   <g id="matplotlib.axis_1">
    <g id="xtick_1">
     <g id="line2d_1">
      <path d="M 83.388078 390.04 
L 83.388078 26.88 
" clip-path="url(#pa293527000)" style="fill: none; stroke: #b0b0b0; stroke-width: 0.8; stroke-linecap: square"/>
     </g>
     <g id="line2d_2">
      <defs>
       <path id="mab8d7d1fb6" d="M 0 0 
L 0 3.5 
" style="stroke: #000000; stroke-width: 0.8"/>
      </defs>
      <g>
       <use xlink:href="#mab8d7d1fb6" x="83.388078" y="390.04" style="stroke: #000000; stroke-width: 0.8"/>
      </g>
     </g>
     <g id="text_1">
      <!-- 0 -->
      <g transform="translate(80.206828 404.638438) scale(0.1 -0.1)">
       <defs>
        <path id="DejaVuSans-30" d="M 2034 4250 
Q 1547 4250 1301 3770 
Q 1056 3291 1056 2328 
Q 1056 1369 1301 889 
Q 1547 409 2034 409 
Q 2525 409 2770 889 
Q 3016 1369 3016 2328 
Q 3016 3291 2770 3770 
Q 2525 4250 2034 4250 
z
M 2034 4750 
Q 2819 4750 3233 4129 
Q 3647 3509 3647 2328 
Q 3647 1150 3233 529 
Q 2819 -91 2034 -91 
Q 1250 -91 836 529 
Q 422 1150 422 2328 
Q 422 3509 836 4129 
Q 1250 4750 2034 4750 
z
" transform="scale(0.015625)"/>
       </defs>
       <use xlink:href="#DejaVuSans-30"/>
      </g>
     </g>
    </g>
    <g id="xtick_2">
     <g id="line2d_3">
      <path d="M 192.027965 390.04 
L 192.027965 26.88 
" clip-path="url(#pa293527000)" style="fill: none; stroke: #b0b0b0; stroke-width: 0.8; stroke-linecap: square"/>
     </g>
     <g id="line2d_4">
      <g>
       <use xlink:href="#mab8d7d1fb6" x="192.027965" y="390.04" style="stroke: #000000; stroke-width: 0.8"/>
      </g>
     </g>
     <g id="text_2">
      <!-- 10000 -->
      <g transform="translate(176.121715 404.638438) scale(0.1 -0.1)">
       <defs>
        <path id="DejaVuSans-31" d="M 794 531 
L 1825 531 
L 1825 4091 
L 703 3866 
L 703 4441 
L 1819 4666 
L 2450 4666 
L 2450 531 
L 3481 531 
L 3481 0 
L 794 0 
L 794 531 
z
" transform="scale(0.015625)"/>
       </defs>
       <use xlink:href="#DejaVuSans-31"/>
       <use xlink:href="#DejaVuSans-30" transform="translate(63.623047 0)"/>
       <use xlink:href="#DejaVuSans-30" transform="translate(127.246094 0)"/>
       <use xlink:href="#DejaVuSans-30" transform="translate(190.869141 0)"/>
       <use xlink:href="#DejaVuSans-30" transform="translate(254.492188 0)"/>
      </g>
     </g>
    </g>
    <g id="xtick_3">
     <g id="line2d_5">
      <path d="M 300.667852 390.04 
L 300.667852 26.88 
" clip-path="url(#pa293527000)" style="fill: none; stroke: #b0b0b0; stroke-width: 0.8; stroke-linecap: square"/>
     </g>
     <g id="line2d_6">
      <g>
       <use xlink:href="#mab8d7d1fb6" x="300.667852" y="390.04" style="stroke: #000000; stroke-width: 0.8"/>
      </g>
     </g>
     <g id="text_3">
      <!-- 20000 -->
      <g transform="translate(284.761602 404.638438) scale(0.1 -0.1)">
       <defs>
        <path id="DejaVuSans-32" d="M 1228 531 
L 3431 531 
L 3431 0 
L 469 0 
L 469 531 
Q 828 903 1448 1529 
Q 2069 2156 2228 2338 
Q 2531 2678 2651 2914 
Q 2772 3150 2772 3378 
Q 2772 3750 2511 3984 
Q 2250 4219 1831 4219 
Q 1534 4219 1204 4116 
Q 875 4013 500 3803 
L 500 4441 
Q 881 4594 1212 4672 
Q 1544 4750 1819 4750 
Q 2544 4750 2975 4387 
Q 3406 4025 3406 3419 
Q 3406 3131 3298 2873 
Q 3191 2616 2906 2266 
Q 2828 2175 2409 1742 
Q 1991 1309 1228 531 
z
" transform="scale(0.015625)"/>
       </defs>
       <use xlink:href="#DejaVuSans-32"/>
       <use xlink:href="#DejaVuSans-30" transform="translate(63.623047 0)"/>
       <use xlink:href="#DejaVuSans-30" transform="translate(127.246094 0)"/>
       <use xlink:href="#DejaVuSans-30" transform="translate(190.869141 0)"/>
       <use xlink:href="#DejaVuSans-30" transform="translate(254.492188 0)"/>
      </g>
     </g>
    </g>
    <g id="xtick_4">
     <g id="line2d_7">
      <path d="M 409.307739 390.04 
L 409.307739 26.88 
" clip-path="url(#pa293527000)" style="fill: none; stroke: #b0b0b0; stroke-width: 0.8; stroke-linecap: square"/>
     </g>
     <g id="line2d_8">
      <g>
       <use xlink:href="#mab8d7d1fb6" x="409.307739" y="390.04" style="stroke: #000000; stroke-width: 0.8"/>
      </g>
     </g>
     <g id="text_4">
      <!-- 30000 -->
      <g transform="translate(393.401489 404.638438) scale(0.1 -0.1)">
       <defs>
        <path id="DejaVuSans-33" d="M 2597 2516 
Q 3050 2419 3304 2112 
Q 3559 1806 3559 1356 
Q 3559 666 3084 287 
Q 2609 -91 1734 -91 
Q 1441 -91 1130 -33 
Q 819 25 488 141 
L 488 750 
Q 750 597 1062 519 
Q 1375 441 1716 441 
Q 2309 441 2620 675 
Q 2931 909 2931 1356 
Q 2931 1769 2642 2001 
Q 2353 2234 1838 2234 
L 1294 2234 
L 1294 2753 
L 1863 2753 
Q 2328 2753 2575 2939 
Q 2822 3125 2822 3475 
Q 2822 3834 2567 4026 
Q 2313 4219 1838 4219 
Q 1578 4219 1281 4162 
Q 984 4106 628 3988 
L 628 4550 
Q 988 4650 1302 4700 
Q 1616 4750 1894 4750 
Q 2613 4750 3031 4423 
Q 3450 4097 3450 3541 
Q 3450 3153 3228 2886 
Q 3006 2619 2597 2516 
z
" transform="scale(0.015625)"/>
       </defs>
       <use xlink:href="#DejaVuSans-33"/>
       <use xlink:href="#DejaVuSans-30" transform="translate(63.623047 0)"/>
       <use xlink:href="#DejaVuSans-30" transform="translate(127.246094 0)"/>
       <use xlink:href="#DejaVuSans-30" transform="translate(190.869141 0)"/>
       <use xlink:href="#DejaVuSans-30" transform="translate(254.492188 0)"/>
      </g>
     </g>
    </g>
    <g id="xtick_5">
     <g id="line2d_9">
      <path d="M 517.947626 390.04 
L 517.947626 26.88 
" clip-path="url(#pa293527000)" style="fill: none; stroke: #b0b0b0; stroke-width: 0.8; stroke-linecap: square"/>
     </g>
     <g id="line2d_10">
      <g>
       <use xlink:href="#mab8d7d1fb6" x="517.947626" y="390.04" style="stroke: #000000; stroke-width: 0.8"/>
      </g>
     </g>
     <g id="text_5">
      <!-- 40000 -->
      <g transform="translate(502.041376 404.638438) scale(0.1 -0.1)">
       <defs>
        <path id="DejaVuSans-34" d="M 2419 4116 
L 825 1625 
L 2419 1625 
L 2419 4116 
z
M 2253 4666 
L 3047 4666 
L 3047 1625 
L 3713 1625 
L 3713 1100 
L 3047 1100 
L 3047 0 
L 2419 0 
L 2419 1100 
L 313 1100 
L 313 1709 
L 2253 4666 
z
" transform="scale(0.015625)"/>
       </defs>
       <use xlink:href="#DejaVuSans-34"/>
       <use xlink:href="#DejaVuSans-30" transform="translate(63.623047 0)"/>
       <use xlink:href="#DejaVuSans-30" transform="translate(127.246094 0)"/>
       <use xlink:href="#DejaVuSans-30" transform="translate(190.869141 0)"/>
       <use xlink:href="#DejaVuSans-30" transform="translate(254.492188 0)"/>
      </g>
     </g>
    </g>
    <g id="xtick_6">
     <g id="line2d_11">
      <path d="M 626.587514 390.04 
L 626.587514 26.88 
" clip-path="url(#pa293527000)" style="fill: none; stroke: #b0b0b0; stroke-width: 0.8; stroke-linecap: square"/>
     </g>
     <g id="line2d_12">
      <g>
       <use xlink:href="#mab8d7d1fb6" x="626.587514" y="390.04" style="stroke: #000000; stroke-width: 0.8"/>
      </g>
     </g>
     <g id="text_6">
      <!-- 50000 -->
      <g transform="translate(610.681264 404.638438) scale(0.1 -0.1)">
       <defs>
        <path id="DejaVuSans-35" d="M 691 4666 
L 3169 4666 
L 3169 4134 
L 1269 4134 
L 1269 2991 
Q 1406 3038 1543 3061 
Q 1681 3084 1819 3084 
Q 2600 3084 3056 2656 
Q 3513 2228 3513 1497 
Q 3513 744 3044 326 
Q 2575 -91 1722 -91 
Q 1428 -91 1123 -41 
Q 819 9 494 109 
L 494 744 
Q 775 591 1075 516 
Q 1375 441 1709 441 
Q 2250 441 2565 725 
Q 2881 1009 2881 1497 
Q 2881 1984 2565 2268 
Q 2250 2553 1709 2553 
Q 1456 2553 1204 2497 
Q 953 2441 691 2322 
L 691 4666 
z
" transform="scale(0.015625)"/>
       </defs>
       <use xlink:href="#DejaVuSans-35"/>
       <use xlink:href="#DejaVuSans-30" transform="translate(63.623047 0)"/>
       <use xlink:href="#DejaVuSans-30" transform="translate(127.246094 0)"/>
       <use xlink:href="#DejaVuSans-30" transform="translate(190.869141 0)"/>
       <use xlink:href="#DejaVuSans-30" transform="translate(254.492188 0)"/>
      </g>
     </g>
    </g>
    <g id="text_7">
     <!-- Episode Number -->
     <g transform="translate(340.2975 418.316562) scale(0.1 -0.1)">
      <defs>
       <path id="DejaVuSans-45" d="M 628 4666 
L 3578 4666 
L 3578 4134 
L 1259 4134 
L 1259 2753 
L 3481 2753 
L 3481 2222 
L 1259 2222 
L 1259 531 
L 3634 531 
L 3634 0 
L 628 0 
L 628 4666 
z
" transform="scale(0.015625)"/>
       <path id="DejaVuSans-70" d="M 1159 525 
L 1159 -1331 
L 581 -1331 
L 581 3500 
L 1159 3500 
L 1159 2969 
Q 1341 3281 1617 3432 
Q 1894 3584 2278 3584 
Q 2916 3584 3314 3078 
Q 3713 2572 3713 1747 
Q 3713 922 3314 415 
Q 2916 -91 2278 -91 
Q 1894 -91 1617 61 
Q 1341 213 1159 525 
z
M 3116 1747 
Q 3116 2381 2855 2742 
Q 2594 3103 2138 3103 
Q 1681 3103 1420 2742 
Q 1159 2381 1159 1747 
Q 1159 1113 1420 752 
Q 1681 391 2138 391 
Q 2594 391 2855 752 
Q 3116 1113 3116 1747 
z
" transform="scale(0.015625)"/>
       <path id="DejaVuSans-69" d="M 603 3500 
L 1178 3500 
L 1178 0 
L 603 0 
L 603 3500 
z
M 603 4863 
L 1178 4863 
L 1178 4134 
L 603 4134 
L 603 4863 
z
" transform="scale(0.015625)"/>
       <path id="DejaVuSans-73" d="M 2834 3397 
L 2834 2853 
Q 2591 2978 2328 3040 
Q 2066 3103 1784 3103 
Q 1356 3103 1142 2972 
Q 928 2841 928 2578 
Q 928 2378 1081 2264 
Q 1234 2150 1697 2047 
L 1894 2003 
Q 2506 1872 2764 1633 
Q 3022 1394 3022 966 
Q 3022 478 2636 193 
Q 2250 -91 1575 -91 
Q 1294 -91 989 -36 
Q 684 19 347 128 
L 347 722 
Q 666 556 975 473 
Q 1284 391 1588 391 
Q 1994 391 2212 530 
Q 2431 669 2431 922 
Q 2431 1156 2273 1281 
Q 2116 1406 1581 1522 
L 1381 1569 
Q 847 1681 609 1914 
Q 372 2147 372 2553 
Q 372 3047 722 3315 
Q 1072 3584 1716 3584 
Q 2034 3584 2315 3537 
Q 2597 3491 2834 3397 
z
" transform="scale(0.015625)"/>
       <path id="DejaVuSans-6f" d="M 1959 3097 
Q 1497 3097 1228 2736 
Q 959 2375 959 1747 
Q 959 1119 1226 758 
Q 1494 397 1959 397 
Q 2419 397 2687 759 
Q 2956 1122 2956 1747 
Q 2956 2369 2687 2733 
Q 2419 3097 1959 3097 
z
M 1959 3584 
Q 2709 3584 3137 3096 
Q 3566 2609 3566 1747 
Q 3566 888 3137 398 
Q 2709 -91 1959 -91 
Q 1206 -91 779 398 
Q 353 888 353 1747 
Q 353 2609 779 3096 
Q 1206 3584 1959 3584 
z
" transform="scale(0.015625)"/>
       <path id="DejaVuSans-64" d="M 2906 2969 
L 2906 4863 
L 3481 4863 
L 3481 0 
L 2906 0 
L 2906 525 
Q 2725 213 2448 61 
Q 2172 -91 1784 -91 
Q 1150 -91 751 415 
Q 353 922 353 1747 
Q 353 2572 751 3078 
Q 1150 3584 1784 3584 
Q 2172 3584 2448 3432 
Q 2725 3281 2906 2969 
z
M 947 1747 
Q 947 1113 1208 752 
Q 1469 391 1925 391 
Q 2381 391 2643 752 
Q 2906 1113 2906 1747 
Q 2906 2381 2643 2742 
Q 2381 3103 1925 3103 
Q 1469 3103 1208 2742 
Q 947 2381 947 1747 
z
" transform="scale(0.015625)"/>
       <path id="DejaVuSans-65" d="M 3597 1894 
L 3597 1613 
L 953 1613 
Q 991 1019 1311 708 
Q 1631 397 2203 397 
Q 2534 397 2845 478 
Q 3156 559 3463 722 
L 3463 178 
Q 3153 47 2828 -22 
Q 2503 -91 2169 -91 
Q 1331 -91 842 396 
Q 353 884 353 1716 
Q 353 2575 817 3079 
Q 1281 3584 2069 3584 
Q 2775 3584 3186 3129 
Q 3597 2675 3597 1894 
z
M 3022 2063 
Q 3016 2534 2758 2815 
Q 2500 3097 2075 3097 
Q 1594 3097 1305 2825 
Q 1016 2553 972 2059 
L 3022 2063 
z
" transform="scale(0.015625)"/>
       <path id="DejaVuSans-20" transform="scale(0.015625)"/>
       <path id="DejaVuSans-4e" d="M 628 4666 
L 1478 4666 
L 3547 763 
L 3547 4666 
L 4159 4666 
L 4159 0 
L 3309 0 
L 1241 3903 
L 1241 0 
L 628 0 
L 628 4666 
z
" transform="scale(0.015625)"/>
       <path id="DejaVuSans-75" d="M 544 1381 
L 544 3500 
L 1119 3500 
L 1119 1403 
Q 1119 906 1312 657 
Q 1506 409 1894 409 
Q 2359 409 2629 706 
Q 2900 1003 2900 1516 
L 2900 3500 
L 3475 3500 
L 3475 0 
L 2900 0 
L 2900 538 
Q 2691 219 2414 64 
Q 2138 -91 1772 -91 
Q 1169 -91 856 284 
Q 544 659 544 1381 
z
M 1991 3584 
L 1991 3584 
z
" transform="scale(0.015625)"/>
       <path id="DejaVuSans-6d" d="M 3328 2828 
Q 3544 3216 3844 3400 
Q 4144 3584 4550 3584 
Q 5097 3584 5394 3201 
Q 5691 2819 5691 2113 
L 5691 0 
L 5113 0 
L 5113 2094 
Q 5113 2597 4934 2840 
Q 4756 3084 4391 3084 
Q 3944 3084 3684 2787 
Q 3425 2491 3425 1978 
L 3425 0 
L 2847 0 
L 2847 2094 
Q 2847 2600 2669 2842 
Q 2491 3084 2119 3084 
Q 1678 3084 1418 2786 
Q 1159 2488 1159 1978 
L 1159 0 
L 581 0 
L 581 3500 
L 1159 3500 
L 1159 2956 
Q 1356 3278 1631 3431 
Q 1906 3584 2284 3584 
Q 2666 3584 2933 3390 
Q 3200 3197 3328 2828 
z
" transform="scale(0.015625)"/>
       <path id="DejaVuSans-62" d="M 3116 1747 
Q 3116 2381 2855 2742 
Q 2594 3103 2138 3103 
Q 1681 3103 1420 2742 
Q 1159 2381 1159 1747 
Q 1159 1113 1420 752 
Q 1681 391 2138 391 
Q 2594 391 2855 752 
Q 3116 1113 3116 1747 
z
M 1159 2969 
Q 1341 3281 1617 3432 
Q 1894 3584 2278 3584 
Q 2916 3584 3314 3078 
Q 3713 2572 3713 1747 
Q 3713 922 3314 415 
Q 2916 -91 2278 -91 
Q 1894 -91 1617 61 
Q 1341 213 1159 525 
L 1159 0 
L 581 0 
L 581 4863 
L 1159 4863 
L 1159 2969 
z
" transform="scale(0.015625)"/>
       <path id="DejaVuSans-72" d="M 2631 2963 
Q 2534 3019 2420 3045 
Q 2306 3072 2169 3072 
Q 1681 3072 1420 2755 
Q 1159 2438 1159 1844 
L 1159 0 
L 581 0 
L 581 3500 
L 1159 3500 
L 1159 2956 
Q 1341 3275 1631 3429 
Q 1922 3584 2338 3584 
Q 2397 3584 2469 3576 
Q 2541 3569 2628 3553 
L 2631 2963 
z
" transform="scale(0.015625)"/>
      </defs>
      <use xlink:href="#DejaVuSans-45"/>
      <use xlink:href="#DejaVuSans-70" transform="translate(63.183594 0)"/>
      <use xlink:href="#DejaVuSans-69" transform="translate(126.660156 0)"/>
      <use xlink:href="#DejaVuSans-73" transform="translate(154.443359 0)"/>
      <use xlink:href="#DejaVuSans-6f" transform="translate(206.542969 0)"/>
      <use xlink:href="#DejaVuSans-64" transform="translate(267.724609 0)"/>
      <use xlink:href="#DejaVuSans-65" transform="translate(331.201172 0)"/>
      <use xlink:href="#DejaVuSans-20" transform="translate(392.724609 0)"/>
      <use xlink:href="#DejaVuSans-4e" transform="translate(424.511719 0)"/>
      <use xlink:href="#DejaVuSans-75" transform="translate(499.316406 0)"/>
      <use xlink:href="#DejaVuSans-6d" transform="translate(562.695312 0)"/>
      <use xlink:href="#DejaVuSans-62" transform="translate(660.107422 0)"/>
      <use xlink:href="#DejaVuSans-65" transform="translate(723.583984 0)"/>
      <use xlink:href="#DejaVuSans-72" transform="translate(785.107422 0)"/>
     </g>
    </g>
   </g>
   <g id="matplotlib.axis_2">
    <g id="ytick_1">
     <g id="line2d_13">
      <path d="M 54.02 341.966421 
L 709.2 341.966421 
" clip-path="url(#pa293527000)" style="fill: none; stroke: #b0b0b0; stroke-width: 0.8; stroke-linecap: square"/>
     </g>
     <g id="line2d_14">
      <defs>
       <path id="m601a0ecd61" d="M 0 0 
L -3.5 0 
" style="stroke: #000000; stroke-width: 0.8"/>
      </defs>
      <g>
       <use xlink:href="#m601a0ecd61" x="54.02" y="341.966421" style="stroke: #000000; stroke-width: 0.8"/>
      </g>
     </g>
     <g id="text_8">
      <!-- 2.70 -->
      <g transform="translate(24.754375 345.76564) scale(0.1 -0.1)">
       <defs>
        <path id="DejaVuSans-2e" d="M 684 794 
L 1344 794 
L 1344 0 
L 684 0 
L 684 794 
z
" transform="scale(0.015625)"/>
        <path id="DejaVuSans-37" d="M 525 4666 
L 3525 4666 
L 3525 4397 
L 1831 0 
L 1172 0 
L 2766 4134 
L 525 4134 
L 525 4666 
z
" transform="scale(0.015625)"/>
       </defs>
       <use xlink:href="#DejaVuSans-32"/>
       <use xlink:href="#DejaVuSans-2e" transform="translate(63.623047 0)"/>
       <use xlink:href="#DejaVuSans-37" transform="translate(95.410156 0)"/>
       <use xlink:href="#DejaVuSans-30" transform="translate(159.033203 0)"/>
      </g>
     </g>
    </g>
    <g id="ytick_2">
     <g id="line2d_15">
      <path d="M 54.02 279.603639 
L 709.2 279.603639 
" clip-path="url(#pa293527000)" style="fill: none; stroke: #b0b0b0; stroke-width: 0.8; stroke-linecap: square"/>
     </g>
     <g id="line2d_16">
      <g>
       <use xlink:href="#m601a0ecd61" x="54.02" y="279.603639" style="stroke: #000000; stroke-width: 0.8"/>
      </g>
     </g>
     <g id="text_9">
      <!-- 2.75 -->
      <g transform="translate(24.754375 283.402857) scale(0.1 -0.1)">
       <use xlink:href="#DejaVuSans-32"/>
       <use xlink:href="#DejaVuSans-2e" transform="translate(63.623047 0)"/>
       <use xlink:href="#DejaVuSans-37" transform="translate(95.410156 0)"/>
       <use xlink:href="#DejaVuSans-35" transform="translate(159.033203 0)"/>
      </g>
     </g>
    </g>
    <g id="ytick_3">
     <g id="line2d_17">
      <path d="M 54.02 217.240856 
L 709.2 217.240856 
" clip-path="url(#pa293527000)" style="fill: none; stroke: #b0b0b0; stroke-width: 0.8; stroke-linecap: square"/>
     </g>
     <g id="line2d_18">
      <g>
       <use xlink:href="#m601a0ecd61" x="54.02" y="217.240856" style="stroke: #000000; stroke-width: 0.8"/>
      </g>
     </g>
     <g id="text_10">
      <!-- 2.80 -->
      <g transform="translate(24.754375 221.040075) scale(0.1 -0.1)">
       <defs>
        <path id="DejaVuSans-38" d="M 2034 2216 
Q 1584 2216 1326 1975 
Q 1069 1734 1069 1313 
Q 1069 891 1326 650 
Q 1584 409 2034 409 
Q 2484 409 2743 651 
Q 3003 894 3003 1313 
Q 3003 1734 2745 1975 
Q 2488 2216 2034 2216 
z
M 1403 2484 
Q 997 2584 770 2862 
Q 544 3141 544 3541 
Q 544 4100 942 4425 
Q 1341 4750 2034 4750 
Q 2731 4750 3128 4425 
Q 3525 4100 3525 3541 
Q 3525 3141 3298 2862 
Q 3072 2584 2669 2484 
Q 3125 2378 3379 2068 
Q 3634 1759 3634 1313 
Q 3634 634 3220 271 
Q 2806 -91 2034 -91 
Q 1263 -91 848 271 
Q 434 634 434 1313 
Q 434 1759 690 2068 
Q 947 2378 1403 2484 
z
M 1172 3481 
Q 1172 3119 1398 2916 
Q 1625 2713 2034 2713 
Q 2441 2713 2670 2916 
Q 2900 3119 2900 3481 
Q 2900 3844 2670 4047 
Q 2441 4250 2034 4250 
Q 1625 4250 1398 4047 
Q 1172 3844 1172 3481 
z
" transform="scale(0.015625)"/>
       </defs>
       <use xlink:href="#DejaVuSans-32"/>
       <use xlink:href="#DejaVuSans-2e" transform="translate(63.623047 0)"/>
       <use xlink:href="#DejaVuSans-38" transform="translate(95.410156 0)"/>
       <use xlink:href="#DejaVuSans-30" transform="translate(159.033203 0)"/>
      </g>
     </g>
    </g>
    <g id="ytick_4">
     <g id="line2d_19">
      <path d="M 54.02 154.878073 
L 709.2 154.878073 
" clip-path="url(#pa293527000)" style="fill: none; stroke: #b0b0b0; stroke-width: 0.8; stroke-linecap: square"/>
     </g>
     <g id="line2d_20">
      <g>
       <use xlink:href="#m601a0ecd61" x="54.02" y="154.878073" style="stroke: #000000; stroke-width: 0.8"/>
      </g>
     </g>
     <g id="text_11">
      <!-- 2.85 -->
      <g transform="translate(24.754375 158.677292) scale(0.1 -0.1)">
       <use xlink:href="#DejaVuSans-32"/>
       <use xlink:href="#DejaVuSans-2e" transform="translate(63.623047 0)"/>
       <use xlink:href="#DejaVuSans-38" transform="translate(95.410156 0)"/>
       <use xlink:href="#DejaVuSans-35" transform="translate(159.033203 0)"/>
      </g>
     </g>
    </g>
    <g id="ytick_5">
     <g id="line2d_21">
      <path d="M 54.02 92.515291 
L 709.2 92.515291 
" clip-path="url(#pa293527000)" style="fill: none; stroke: #b0b0b0; stroke-width: 0.8; stroke-linecap: square"/>
     </g>
     <g id="line2d_22">
      <g>
       <use xlink:href="#m601a0ecd61" x="54.02" y="92.515291" style="stroke: #000000; stroke-width: 0.8"/>
      </g>
     </g>
     <g id="text_12">
      <!-- 2.90 -->
      <g transform="translate(24.754375 96.314509) scale(0.1 -0.1)">
       <defs>
        <path id="DejaVuSans-39" d="M 703 97 
L 703 672 
Q 941 559 1184 500 
Q 1428 441 1663 441 
Q 2288 441 2617 861 
Q 2947 1281 2994 2138 
Q 2813 1869 2534 1725 
Q 2256 1581 1919 1581 
Q 1219 1581 811 2004 
Q 403 2428 403 3163 
Q 403 3881 828 4315 
Q 1253 4750 1959 4750 
Q 2769 4750 3195 4129 
Q 3622 3509 3622 2328 
Q 3622 1225 3098 567 
Q 2575 -91 1691 -91 
Q 1453 -91 1209 -44 
Q 966 3 703 97 
z
M 1959 2075 
Q 2384 2075 2632 2365 
Q 2881 2656 2881 3163 
Q 2881 3666 2632 3958 
Q 2384 4250 1959 4250 
Q 1534 4250 1286 3958 
Q 1038 3666 1038 3163 
Q 1038 2656 1286 2365 
Q 1534 2075 1959 2075 
z
" transform="scale(0.015625)"/>
       </defs>
       <use xlink:href="#DejaVuSans-32"/>
       <use xlink:href="#DejaVuSans-2e" transform="translate(63.623047 0)"/>
       <use xlink:href="#DejaVuSans-39" transform="translate(95.410156 0)"/>
       <use xlink:href="#DejaVuSans-30" transform="translate(159.033203 0)"/>
      </g>
     </g>
    </g>
    <g id="ytick_6">
     <g id="line2d_23">
      <path d="M 54.02 30.152508 
L 709.2 30.152508 
" clip-path="url(#pa293527000)" style="fill: none; stroke: #b0b0b0; stroke-width: 0.8; stroke-linecap: square"/>
     </g>
     <g id="line2d_24">
      <g>
       <use xlink:href="#m601a0ecd61" x="54.02" y="30.152508" style="stroke: #000000; stroke-width: 0.8"/>
      </g>
     </g>
     <g id="text_13">
      <!-- 2.95 -->
      <g transform="translate(24.754375 33.951727) scale(0.1 -0.1)">
       <use xlink:href="#DejaVuSans-32"/>
       <use xlink:href="#DejaVuSans-2e" transform="translate(63.623047 0)"/>
       <use xlink:href="#DejaVuSans-39" transform="translate(95.410156 0)"/>
       <use xlink:href="#DejaVuSans-35" transform="translate(159.033203 0)"/>
      </g>
     </g>
    </g>
    <g id="text_14">
     <!-- Reward per Episode -->
     <g transform="translate(18.674688 258.202969) rotate(-90) scale(0.1 -0.1)">
      <defs>
       <path id="DejaVuSans-52" d="M 2841 2188 
Q 3044 2119 3236 1894 
Q 3428 1669 3622 1275 
L 4263 0 
L 3584 0 
L 2988 1197 
Q 2756 1666 2539 1819 
Q 2322 1972 1947 1972 
L 1259 1972 
L 1259 0 
L 628 0 
L 628 4666 
L 2053 4666 
Q 2853 4666 3247 4331 
Q 3641 3997 3641 3322 
Q 3641 2881 3436 2590 
Q 3231 2300 2841 2188 
z
M 1259 4147 
L 1259 2491 
L 2053 2491 
Q 2509 2491 2742 2702 
Q 2975 2913 2975 3322 
Q 2975 3731 2742 3939 
Q 2509 4147 2053 4147 
L 1259 4147 
z
" transform="scale(0.015625)"/>
       <path id="DejaVuSans-77" d="M 269 3500 
L 844 3500 
L 1563 769 
L 2278 3500 
L 2956 3500 
L 3675 769 
L 4391 3500 
L 4966 3500 
L 4050 0 
L 3372 0 
L 2619 2869 
L 1863 0 
L 1184 0 
L 269 3500 
z
" transform="scale(0.015625)"/>
       <path id="DejaVuSans-61" d="M 2194 1759 
Q 1497 1759 1228 1600 
Q 959 1441 959 1056 
Q 959 750 1161 570 
Q 1363 391 1709 391 
Q 2188 391 2477 730 
Q 2766 1069 2766 1631 
L 2766 1759 
L 2194 1759 
z
M 3341 1997 
L 3341 0 
L 2766 0 
L 2766 531 
Q 2569 213 2275 61 
Q 1981 -91 1556 -91 
Q 1019 -91 701 211 
Q 384 513 384 1019 
Q 384 1609 779 1909 
Q 1175 2209 1959 2209 
L 2766 2209 
L 2766 2266 
Q 2766 2663 2505 2880 
Q 2244 3097 1772 3097 
Q 1472 3097 1187 3025 
Q 903 2953 641 2809 
L 641 3341 
Q 956 3463 1253 3523 
Q 1550 3584 1831 3584 
Q 2591 3584 2966 3190 
Q 3341 2797 3341 1997 
z
" transform="scale(0.015625)"/>
      </defs>
      <use xlink:href="#DejaVuSans-52"/>
      <use xlink:href="#DejaVuSans-65" transform="translate(64.982422 0)"/>
      <use xlink:href="#DejaVuSans-77" transform="translate(126.505859 0)"/>
      <use xlink:href="#DejaVuSans-61" transform="translate(208.292969 0)"/>
      <use xlink:href="#DejaVuSans-72" transform="translate(269.572266 0)"/>
      <use xlink:href="#DejaVuSans-64" transform="translate(308.935547 0)"/>
      <use xlink:href="#DejaVuSans-20" transform="translate(372.412109 0)"/>
      <use xlink:href="#DejaVuSans-70" transform="translate(404.199219 0)"/>
      <use xlink:href="#DejaVuSans-65" transform="translate(467.675781 0)"/>
      <use xlink:href="#DejaVuSans-72" transform="translate(529.199219 0)"/>
      <use xlink:href="#DejaVuSans-20" transform="translate(570.3125 0)"/>
      <use xlink:href="#DejaVuSans-45" transform="translate(602.099609 0)"/>
      <use xlink:href="#DejaVuSans-70" transform="translate(665.283203 0)"/>
      <use xlink:href="#DejaVuSans-69" transform="translate(728.759766 0)"/>
      <use xlink:href="#DejaVuSans-73" transform="translate(756.542969 0)"/>
      <use xlink:href="#DejaVuSans-6f" transform="translate(808.642578 0)"/>
      <use xlink:href="#DejaVuSans-64" transform="translate(869.824219 0)"/>
      <use xlink:href="#DejaVuSans-65" transform="translate(933.300781 0)"/>
     </g>
    </g>
   </g>
   <g id="line2d_25">
    <path d="M 83.800909 186.806243 
L 84.615708 186.028668 
L 85.430507 172.355032 
L 86.245307 174.379891 
L 87.060106 177.698218 
L 87.874905 139.094884 
L 88.689704 210.173074 
L 89.504503 304.902872 
L 90.319302 240.661532 
L 91.134101 165.618301 
L 91.948901 191.956963 
L 92.7637 189.454747 
L 93.578499 279.919271 
L 94.393298 109.145356 
L 95.208097 164.702116 
L 96.022896 197.661991 
L 96.837696 206.438976 
L 97.652495 225.910037 
L 98.467294 215.870381 
L 99.282093 166.426688 
L 100.096892 205.576686 
L 100.911691 203.266948 
L 101.72649 50.732227 
L 102.54129 153.215036 
L 103.356089 99.113415 
L 104.170888 240.653816 
L 104.985687 210.727401 
L 105.800486 260.733094 
L 106.615285 231.384082 
L 107.430085 184.99696 
L 108.244884 227.488347 
L 109.059683 188.731042 
L 109.874482 207.101104 
L 110.689281 267.069459 
L 111.50408 98.158719 
L 112.318879 190.301635 
L 113.133679 184.419534 
L 113.948478 111.593671 
L 114.763277 259.285647 
L 115.578076 143.722062 
L 117.207674 239.637556 
L 118.022474 242.239828 
L 118.837273 213.791639 
L 119.652072 234.802501 
L 120.466871 106.735526 
L 121.28167 272.566635 
L 122.096469 224.347091 
L 122.911268 200.16421 
L 123.726068 131.642142 
L 124.540867 248.329829 
L 125.355666 331.657285 
L 126.170465 318.753591 
L 126.985264 165.687612 
L 127.800063 223.931355 
L 128.614863 206.870142 
L 129.429662 169.152198 
L 130.244461 198.170136 
L 131.05926 138.463568 
L 131.874059 182.525571 
L 132.688858 217.641187 
L 133.503658 43.387273 
L 134.318457 155.4709 
L 135.133256 218.857652 
L 135.948055 259.04699 
L 136.762854 272.697511 
L 137.577653 276.308387 
L 138.392452 201.773313 
L 139.207252 161.553187 
L 140.022051 197.892979 
L 140.83685 261.087263 
L 141.651649 152.960983 
L 142.466448 216.724985 
L 143.281247 188.007309 
L 144.096047 281.55919 
L 144.910846 167.827964 
L 146.540444 226.002421 
L 147.355243 241.169645 
L 148.170042 212.644454 
L 148.984841 285.085375 
L 149.799641 177.382562 
L 150.61444 296.087394 
L 151.429239 191.102362 
L 152.244038 236.542507 
L 153.058837 216.701898 
L 153.873636 249.384605 
L 154.688436 170.668931 
L 155.503235 240.530645 
L 156.318034 141.00426 
L 157.132833 255.405322 
L 157.947632 199.301914 
L 158.762431 189.077483 
L 159.57723 244.010626 
L 160.39203 230.467912 
L 161.206829 211.220126 
L 162.021628 283.830432 
L 162.836427 157.75752 
L 163.651226 239.714532 
L 164.466025 172.847768 
L 165.280825 186.582978 
L 166.095624 172.077868 
L 166.910423 135.237617 
L 167.725222 246.874706 
L 168.540021 119.677746 
L 169.35482 208.995082 
L 170.169619 220.23578 
L 170.984419 149.072917 
L 171.799218 233.793905 
L 172.614017 229.798061 
L 173.428816 202.281471 
L 174.243615 280.820057 
L 175.058414 224.616586 
L 175.873214 215.654808 
L 176.688013 222.576347 
L 177.502812 253.980971 
L 179.13241 118.823128 
L 179.947209 251.370991 
L 180.762008 242.609373 
L 181.576808 161.06814 
L 182.391607 171.423438 
L 183.206406 259.154781 
L 184.021205 168.035827 
L 184.836004 216.794305 
L 185.650803 199.04785 
L 186.465603 210.119176 
L 187.280402 183.788221 
L 188.095201 196.268458 
L 188.91 213.368169 
L 189.724799 209.47244 
L 190.539598 210.273132 
L 191.354397 167.735574 
L 192.169197 187.129614 
L 192.983996 114.311455 
L 193.798795 291.113771 
L 194.613594 251.386394 
L 195.428393 282.275225 
L 196.243192 255.151242 
L 197.057992 167.54309 
L 198.68759 221.837214 
L 199.502389 237.358609 
L 200.317188 277.555643 
L 201.131987 148.503214 
L 201.946786 216.724993 
L 202.761586 256.714155 
L 203.576385 271.234672 
L 204.391184 268.678581 
L 205.205983 150.451073 
L 206.020782 278.7336 
L 206.835581 244.372503 
L 207.650381 270.89593 
L 208.46518 188.784922 
L 209.279979 279.388038 
L 210.094778 225.494264 
L 210.909577 115.243035 
L 211.724376 204.029171 
L 212.539175 265.106174 
L 213.353975 209.688022 
L 214.168774 267.83166 
L 214.983573 215.785697 
L 215.798372 251.863712 
L 216.613171 196.822805 
L 217.42797 116.036047 
L 218.24277 248.029568 
L 219.057569 124.112415 
L 219.872368 128.162146 
L 220.687167 223.823572 
L 221.501966 197.007577 
L 222.316765 190.00138 
L 223.131564 219.65835 
L 223.946364 226.810816 
L 224.761163 213.391275 
L 225.575962 185.820774 
L 226.390761 178.252552 
L 227.20556 140.403749 
L 228.020359 240.422851 
L 228.835159 206.939411 
L 229.649958 155.501675 
L 230.464757 187.014132 
L 231.279556 246.543641 
L 232.094355 220.228089 
L 232.909154 208.494636 
L 233.723953 193.396691 
L 234.538753 261.988068 
L 235.353552 195.021209 
L 236.168351 266.661414 
L 236.98315 189.108284 
L 237.797949 170.74591 
L 238.612748 227.557632 
L 239.427548 212.159437 
L 240.242347 219.319594 
L 241.057146 239.868526 
L 241.871945 217.887553 
L 242.686744 225.432677 
L 243.501543 239.160204 
L 244.316342 139.926388 
L 245.131142 223.723469 
L 245.945941 245.496555 
L 246.76074 196.006696 
L 247.575539 138.563649 
L 248.390338 223.946743 
L 249.205137 154.739464 
L 250.019937 264.929118 
L 250.834736 178.706805 
L 251.649535 249.915847 
L 252.464334 217.956843 
L 253.279133 260.748497 
L 254.093932 171.246365 
L 254.908732 172.293435 
L 255.723531 204.837578 
L 256.53833 118.076311 
L 257.353129 228.843397 
L 258.167928 291.221568 
L 258.982727 271.550326 
L 260.612326 206.007828 
L 261.427125 244.280109 
L 262.241924 124.474263 
L 263.056723 210.026764 
L 263.871522 189.670313 
L 264.686321 240.168776 
L 265.501121 194.228213 
L 266.31592 258.392573 
L 267.130719 220.428252 
L 267.945518 200.064136 
L 268.760317 236.565596 
L 269.575116 196.330056 
L 270.389915 270.087508 
L 271.204715 215.362257 
L 272.019514 176.497145 
L 272.834313 230.090648 
L 273.649112 193.30431 
L 274.463911 261.210439 
L 275.27871 260.887074 
L 276.09351 234.594619 
L 276.908309 308.606145 
L 277.723108 238.320978 
L 278.537907 136.769749 
L 279.352706 289.781829 
L 280.167505 240.777005 
L 280.982304 229.759591 
L 281.797104 185.466617 
L 282.611903 195.044303 
L 283.426702 306.296418 
L 284.241501 179.268821 
L 285.0563 125.937108 
L 285.871099 220.181896 
L 286.685899 163.862904 
L 287.500698 247.290451 
L 288.315497 252.264064 
L 289.130296 199.748449 
L 289.945095 249.962048 
L 290.759894 268.116544 
L 291.574693 158.450449 
L 292.389493 208.517756 
L 293.204292 165.656804 
L 294.019091 235.895775 
L 294.83389 352.013727 
L 295.648689 210.927571 
L 296.463488 263.181428 
L 297.278288 250.493289 
L 298.093087 283.083607 
L 298.907886 232.731443 
L 299.722685 271.696629 
L 300.537484 259.38576 
L 301.352283 207.031831 
L 302.167082 254.712392 
L 302.981882 96.772888 
L 303.796681 252.695224 
L 304.61148 197.377143 
L 305.426279 241.901088 
L 306.241078 112.679242 
L 307.055877 255.513105 
L 307.870677 171.261762 
L 308.685476 191.094664 
L 309.500275 253.318858 
L 310.315074 146.131869 
L 311.129873 197.01527 
L 312.759471 279.749899 
L 313.574271 198.331845 
L 314.38907 141.912765 
L 315.203869 261.733988 
L 316.018668 225.925436 
L 316.833467 155.609472 
L 317.648266 256.821938 
L 318.463066 245.943116 
L 319.277865 164.209394 
L 320.092664 229.751883 
L 320.907463 158.065488 
L 321.722262 218.195516 
L 322.537061 159.335855 
L 323.35186 255.528503 
L 324.16666 240.807809 
L 324.981459 170.414845 
L 325.796258 239.190989 
L 326.611057 223.977553 
L 327.425856 148.60327 
L 328.240655 197.877589 
L 329.055455 218.357199 
L 329.870254 198.870749 
L 330.685053 218.072334 
L 331.499852 201.996607 
L 332.314651 172.863178 
L 333.12945 170.33017 
L 333.944249 182.802707 
L 334.759049 261.118044 
L 335.573848 225.394185 
L 336.388647 257.168407 
L 337.203446 173.101832 
L 338.018245 185.674498 
L 338.833044 195.098195 
L 339.647844 199.425083 
L 340.462643 171.423447 
L 341.277442 214.369077 
L 342.092241 194.074211 
L 342.90704 211.150846 
L 343.721839 204.006064 
L 344.536638 142.474795 
L 345.351438 301.168797 
L 346.166237 125.359674 
L 346.981036 218.472707 
L 347.795835 129.478704 
L 348.610634 310.138275 
L 349.425433 184.688995 
L 350.240233 166.580714 
L 351.055032 197.130765 
L 351.869831 276.570155 
L 352.68463 224.162342 
L 353.499429 149.742755 
L 354.314228 231.907639 
L 355.129027 248.676293 
L 355.943827 103.748277 
L 356.758626 165.726087 
L 357.573425 203.813589 
L 358.388224 234.178873 
L 359.203023 271.296279 
L 360.017822 95.517928 
L 360.832622 217.933759 
L 361.647421 163.177693 
L 363.277019 304.194552 
L 364.091818 196.722711 
L 364.906617 143.999207 
L 365.721416 204.506512 
L 366.536216 178.560517 
L 367.351015 201.819518 
L 368.165814 212.48277 
L 368.980613 285.046878 
L 369.795412 82.329352 
L 370.610211 248.399129 
L 371.425011 184.604323 
L 372.23981 195.306069 
L 373.054609 233.370458 
L 373.869408 176.104509 
L 374.684207 182.517846 
L 375.499006 175.380788 
L 376.313805 178.229457 
L 377.128605 263.335398 
L 377.943404 228.435334 
L 378.758203 177.967691 
L 379.573002 191.040766 
L 380.387801 115.51252 
L 381.2026 184.250163 
L 382.0174 157.434155 
L 382.832199 135.761159 
L 383.646998 233.478262 
L 384.461797 80.158216 
L 385.276596 202.204491 
L 386.091395 90.159355 
L 386.906195 197.107667 
L 387.720994 159.674606 
L 388.535793 199.971735 
L 389.350592 156.310103 
L 390.165391 154.085057 
L 390.98019 220.867117 
L 391.794989 207.732441 
L 392.609789 169.63725 
L 393.424588 202.189087 
L 394.239387 193.312015 
L 395.054186 160.7217 
L 395.868985 285.131583 
L 396.683784 215.677928 
L 397.498584 263.974424 
L 398.313383 192.195635 
L 399.128182 220.882523 
L 399.942981 146.801706 
L 400.75778 193.61997 
L 401.572579 190.001387 
L 402.387378 242.771063 
L 403.202178 267.662299 
L 404.016977 243.671871 
L 404.831776 95.025199 
L 405.646575 220.40516 
L 406.461374 243.310022 
L 407.276173 203.644209 
L 408.090973 286.432718 
L 408.905772 199.848554 
L 409.720571 202.527839 
L 410.53537 246.813107 
L 411.350169 167.843357 
L 412.164968 219.45818 
L 412.979767 261.718586 
L 413.794567 163.470268 
L 414.609366 150.350969 
L 415.424165 171.885392 
L 416.238964 151.305676 
L 417.053763 222.145162 
L 417.868562 145.138678 
L 418.683362 211.789874 
L 419.498161 205.607489 
L 420.31296 156.733539 
L 421.127759 261.079554 
L 421.942558 197.223155 
L 422.757357 188.892737 
L 423.572156 235.410729 
L 424.386956 166.357435 
L 425.201755 235.510805 
L 426.016554 97.019256 
L 426.831353 177.313267 
L 427.646152 281.705456 
L 428.460951 220.80552 
L 429.275751 132.335082 
L 430.09055 163.862904 
L 430.905349 152.160278 
L 431.720148 191.956968 
L 432.534947 160.367519 
L 433.349746 230.86826 
L 434.164545 226.818514 
L 434.979345 183.026009 
L 435.794144 121.094363 
L 436.608943 214.446038 
L 437.423742 231.076129 
L 438.238541 128.80886 
L 439.05334 275.900352 
L 439.86814 225.956224 
L 440.682939 150.15081 
L 442.312537 235.233635 
L 443.127336 183.919086 
L 443.942135 249.20754 
L 445.571734 148.557082 
L 446.386533 225.525077 
L 447.201332 204.953034 
L 448.016131 212.821545 
L 448.83093 232.96242 
L 449.645729 174.03343 
L 450.460529 192.903952 
L 451.275328 270.318484 
L 452.090127 279.403433 
L 452.904926 127.022693 
L 453.719725 198.208656 
L 454.534524 200.649256 
L 455.349323 193.350492 
L 456.164123 332.388699 
L 456.978922 148.664869 
L 457.793721 245.758327 
L 458.60852 212.929326 
L 459.423319 227.819403 
L 460.238118 156.833637 
L 461.052918 108.421635 
L 461.867717 227.380567 
L 462.682516 187.529978 
L 463.497315 221.382948 
L 464.312114 195.567861 
L 465.126913 185.374233 
L 465.941712 145.038602 
L 466.756512 259.262571 
L 467.571311 183.503359 
L 468.38611 151.143992 
L 469.200909 276.323789 
L 470.015708 105.765456 
L 470.830507 103.909958 
L 471.645307 227.996488 
L 472.460106 175.103628 
L 473.274905 258.484943 
L 474.089704 235.757193 
L 474.904503 242.209034 
L 475.719302 204.922257 
L 476.534101 232.716052 
L 477.348901 164.263289 
L 478.1637 252.91079 
L 478.978499 188.161297 
L 479.793298 257.129922 
L 480.608097 209.018195 
L 481.422896 197.146168 
L 482.237696 221.390663 
L 483.052495 258.923811 
L 483.867294 170.09919 
L 484.682093 207.247405 
L 485.496892 141.627884 
L 486.311691 249.738763 
L 487.12649 218.811461 
L 487.94129 233.324275 
L 488.756089 230.644982 
L 489.570888 157.195501 
L 490.385687 289.458478 
L 491.200486 224.231628 
L 492.830085 153.800177 
L 493.644884 142.805855 
L 494.459683 259.385768 
L 495.274482 271.173088 
L 496.089281 122.441703 
L 496.90408 330.01737 
L 497.718879 177.028396 
L 498.533679 246.158686 
L 499.348478 175.527051 
L 500.163277 159.759295 
L 500.978076 166.211146 
L 501.792875 205.153237 
L 502.607674 219.542869 
L 503.422474 240.653833 
L 504.237273 290.467064 
L 505.052072 262.742568 
L 505.866871 180.585378 
L 506.68167 164.478861 
L 507.496469 171.939274 
L 509.126068 298.089176 
L 509.940867 152.606811 
L 510.755666 183.588038 
L 511.570465 177.213176 
L 513.200063 187.599258 
L 514.014863 285.216263 
L 514.829662 203.06678 
L 515.644461 231.722853 
L 516.45926 221.560036 
L 517.274059 198.139345 
L 518.088858 286.571293 
L 518.903658 219.42738 
L 519.718457 240.253476 
L 520.533256 152.198779 
L 521.348055 221.159661 
L 522.162854 184.057683 
L 522.977653 211.936156 
L 523.792452 196.638023 
L 524.607252 291.768204 
L 525.422051 203.351653 
L 526.23685 288.96573 
L 527.051649 225.271004 
L 527.866448 225.655977 
L 528.681247 215.801101 
L 529.496047 214.369071 
L 530.310846 294.362782 
L 531.125645 264.613434 
L 531.940444 166.726988 
L 532.755243 229.713376 
L 533.570042 176.289271 
L 534.384841 230.55258 
L 535.199641 324.258427 
L 536.01444 247.552217 
L 536.829239 204.583506 
L 537.644038 181.663239 
L 538.458837 185.274151 
L 539.273636 119.970286 
L 540.088436 261.033363 
L 540.903235 174.603186 
L 541.718034 260.717682 
L 542.532833 196.129882 
L 543.347632 234.140371 
L 544.97723 171.508126 
L 545.79203 205.823069 
L 546.606829 254.881773 
L 547.421628 275.576974 
L 548.236427 300.591386 
L 549.051226 177.182376 
L 549.866025 181.75565 
L 550.680825 144.130092 
L 551.495624 186.067154 
L 552.310423 197.261648 
L 553.125222 272.150885 
L 553.940021 242.940461 
L 554.75482 192.457412 
L 555.569619 225.679048 
L 556.384419 265.275579 
L 557.199218 190.440248 
L 558.014017 197.85448 
L 558.828816 99.729359 
L 559.643615 258.746734 
L 560.458414 298.989956 
L 561.273214 222.414634 
L 562.088013 181.147422 
L 562.902812 240.892502 
L 563.717611 215.346849 
L 564.53241 131.68835 
L 565.347209 98.074051 
L 566.162008 161.576292 
L 566.976808 189.154482 
L 567.791607 212.359587 
L 568.606406 209.895887 
L 569.421205 176.119887 
L 570.236004 252.564337 
L 571.050803 182.279189 
L 571.865603 236.835074 
L 572.680402 217.695069 
L 573.495201 209.749604 
L 574.31 247.883284 
L 575.124799 143.521852 
L 575.939598 147.225143 
L 576.754397 126.799424 
L 577.569197 212.451998 
L 578.383996 232.323392 
L 579.198795 181.37839 
L 580.013594 191.402631 
L 580.828393 213.198785 
L 581.643192 189.28536 
L 582.457992 243.487105 
L 583.272791 153.684692 
L 584.08759 165.926272 
L 584.902389 308.405984 
L 585.717188 213.614569 
L 586.531987 255.998138 
L 587.346786 182.017405 
L 588.161586 126.252764 
L 588.976385 274.568397 
L 589.791184 131.411186 
L 590.605983 211.019965 
L 591.420782 244.480287 
L 592.235581 198.832245 
L 593.050381 174.433794 
L 593.86518 272.204766 
L 594.679979 155.26301 
L 595.494778 177.93689 
L 596.309577 238.544243 
L 597.124376 191.325635 
L 597.939175 222.25294 
L 598.753975 219.974021 
L 599.568774 266.553604 
L 600.383573 179.715381 
L 601.198372 187.930332 
L 602.013171 306.281022 
L 602.82797 186.914049 
L 603.64277 146.863285 
L 604.457569 301.869422 
L 605.272368 145.115602 
L 606.087167 175.811941 
L 606.901966 167.44302 
L 607.716765 237.112244 
L 608.531564 138.625221 
L 609.346364 228.789512 
L 610.161163 219.84313 
L 610.975962 175.272988 
L 611.790761 246.797707 
L 612.60556 208.648629 
L 613.420359 145.954814 
L 614.235159 255.25133 
L 615.049958 197.446396 
L 615.864757 274.529904 
L 616.679556 220.28199 
L 617.494355 276.901228 
L 618.309154 197.577309 
L 619.123953 327.746136 
L 619.938753 276.216011 
L 620.753552 185.251027 
L 621.568351 142.243813 
L 622.38315 219.704549 
L 623.197949 262.011164 
L 624.012748 193.997231 
L 624.827548 165.841579 
L 625.642347 194.597757 
L 626.457146 201.334483 
L 627.271945 163.246992 
L 628.086744 263.966726 
L 628.901543 187.837929 
L 629.716342 208.679441 
L 630.531142 279.957769 
L 631.345941 261.718584 
L 632.16074 247.829392 
L 632.975539 260.971765 
L 633.790338 146.101081 
L 634.605137 246.589843 
L 635.419937 242.478509 
L 636.234736 217.656592 
L 637.049535 256.583274 
L 637.864334 83.407225 
L 638.679133 201.719431 
L 639.493932 278.795209 
L 640.308732 185.805388 
L 641.123531 126.198877 
L 641.93833 215.65482 
L 642.753129 226.456665 
L 643.567928 184.735209 
L 644.382727 281.482195 
L 645.197526 301.469067 
L 646.827125 202.373851 
L 647.641924 277.563361 
L 648.456723 212.221021 
L 649.271522 246.612927 
L 650.086321 145.023193 
L 650.901121 223.469432 
L 651.71592 225.956221 
L 652.530719 223.115237 
L 653.345518 234.486836 
L 654.160317 156.048309 
L 654.975116 164.278662 
L 655.789915 207.008725 
L 656.604715 276.239102 
L 657.419514 233.909397 
L 658.234313 234.933398 
L 659.049112 139.333561 
L 659.863911 162.261499 
L 660.67871 201.134296 
L 661.49351 185.559014 
L 662.308309 82.082976 
L 663.123108 281.643855 
L 663.937907 180.084924 
L 664.752706 237.758949 
L 665.567505 204.437223 
L 666.382304 181.678649 
L 667.197104 186.42128 
L 668.011903 373.532727 
L 668.826702 269.779542 
L 669.641501 300.244899 
L 670.4563 102.839793 
L 671.271099 185.189444 
L 672.085899 245.304097 
L 672.900698 102.554924 
L 673.715497 174.649367 
L 674.530296 153.122662 
L 675.345095 153.299745 
L 676.159894 182.679555 
L 676.974693 232.538962 
L 677.789493 231.122321 
L 678.604292 147.094254 
L 679.419091 323.195965 
L 679.419091 323.195965 
" clip-path="url(#pa293527000)" style="fill: none; stroke: #1f77b4; stroke-width: 1.5; stroke-linecap: square"/>
   </g>
   <g id="patch_3">
    <path d="M 54.02 390.04 
L 54.02 26.88 
" style="fill: none; stroke: #000000; stroke-width: 0.8; stroke-linejoin: miter; stroke-linecap: square"/>
   </g>
   <g id="patch_4">
    <path d="M 709.2 390.04 
L 709.2 26.88 
" style="fill: none; stroke: #000000; stroke-width: 0.8; stroke-linejoin: miter; stroke-linecap: square"/>
   </g>
   <g id="patch_5">
    <path d="M 54.02 390.04 
L 709.2 390.04 
" style="fill: none; stroke: #000000; stroke-width: 0.8; stroke-linejoin: miter; stroke-linecap: square"/>
   </g>
   <g id="patch_6">
    <path d="M 54.02 26.88 
L 709.2 26.88 
" style="fill: none; stroke: #000000; stroke-width: 0.8; stroke-linejoin: miter; stroke-linecap: square"/>
   </g>
   <g id="text_15">
    <!-- Reward per Episode -->
    <g transform="translate(321.918438 20.88) scale(0.12 -0.12)">
     <use xlink:href="#DejaVuSans-52"/>
     <use xlink:href="#DejaVuSans-65" transform="translate(64.982422 0)"/>
     <use xlink:href="#DejaVuSans-77" transform="translate(126.505859 0)"/>
     <use xlink:href="#DejaVuSans-61" transform="translate(208.292969 0)"/>
     <use xlink:href="#DejaVuSans-72" transform="translate(269.572266 0)"/>
     <use xlink:href="#DejaVuSans-64" transform="translate(308.935547 0)"/>
     <use xlink:href="#DejaVuSans-20" transform="translate(372.412109 0)"/>
     <use xlink:href="#DejaVuSans-70" transform="translate(404.199219 0)"/>
     <use xlink:href="#DejaVuSans-65" transform="translate(467.675781 0)"/>
     <use xlink:href="#DejaVuSans-72" transform="translate(529.199219 0)"/>
     <use xlink:href="#DejaVuSans-20" transform="translate(570.3125 0)"/>
     <use xlink:href="#DejaVuSans-45" transform="translate(602.099609 0)"/>
     <use xlink:href="#DejaVuSans-70" transform="translate(665.283203 0)"/>
     <use xlink:href="#DejaVuSans-69" transform="translate(728.759766 0)"/>
     <use xlink:href="#DejaVuSans-73" transform="translate(756.542969 0)"/>
     <use xlink:href="#DejaVuSans-6f" transform="translate(808.642578 0)"/>
     <use xlink:href="#DejaVuSans-64" transform="translate(869.824219 0)"/>
     <use xlink:href="#DejaVuSans-65" transform="translate(933.300781 0)"/>
    </g>
   </g>
   <g id="legend_1">
    <g id="patch_7">
     <path d="M 475.057813 49.558125 
L 702.2 49.558125 
Q 704.2 49.558125 704.2 47.558125 
L 704.2 33.88 
Q 704.2 31.88 702.2 31.88 
L 475.057813 31.88 
Q 473.057813 31.88 473.057813 33.88 
L 473.057813 47.558125 
Q 473.057813 49.558125 475.057813 49.558125 
z
" style="fill: #ffffff; opacity: 0.8; stroke: #cccccc; stroke-linejoin: miter"/>
    </g>
    <g id="line2d_26">
     <path d="M 477.057813 39.978438 
L 487.057813 39.978438 
L 497.057813 39.978438 
" style="fill: none; stroke: #1f77b4; stroke-width: 1.5; stroke-linecap: square"/>
    </g>
    <g id="text_16">
     <!-- Average Episode Reward (75 episodes) -->
     <g transform="translate(505.057813 43.478438) scale(0.1 -0.1)">
      <defs>
       <path id="DejaVuSans-41" d="M 2188 4044 
L 1331 1722 
L 3047 1722 
L 2188 4044 
z
M 1831 4666 
L 2547 4666 
L 4325 0 
L 3669 0 
L 3244 1197 
L 1141 1197 
L 716 0 
L 50 0 
L 1831 4666 
z
" transform="scale(0.015625)"/>
       <path id="DejaVuSans-76" d="M 191 3500 
L 800 3500 
L 1894 563 
L 2988 3500 
L 3597 3500 
L 2284 0 
L 1503 0 
L 191 3500 
z
" transform="scale(0.015625)"/>
       <path id="DejaVuSans-67" d="M 2906 1791 
Q 2906 2416 2648 2759 
Q 2391 3103 1925 3103 
Q 1463 3103 1205 2759 
Q 947 2416 947 1791 
Q 947 1169 1205 825 
Q 1463 481 1925 481 
Q 2391 481 2648 825 
Q 2906 1169 2906 1791 
z
M 3481 434 
Q 3481 -459 3084 -895 
Q 2688 -1331 1869 -1331 
Q 1566 -1331 1297 -1286 
Q 1028 -1241 775 -1147 
L 775 -588 
Q 1028 -725 1275 -790 
Q 1522 -856 1778 -856 
Q 2344 -856 2625 -561 
Q 2906 -266 2906 331 
L 2906 616 
Q 2728 306 2450 153 
Q 2172 0 1784 0 
Q 1141 0 747 490 
Q 353 981 353 1791 
Q 353 2603 747 3093 
Q 1141 3584 1784 3584 
Q 2172 3584 2450 3431 
Q 2728 3278 2906 2969 
L 2906 3500 
L 3481 3500 
L 3481 434 
z
" transform="scale(0.015625)"/>
       <path id="DejaVuSans-28" d="M 1984 4856 
Q 1566 4138 1362 3434 
Q 1159 2731 1159 2009 
Q 1159 1288 1364 580 
Q 1569 -128 1984 -844 
L 1484 -844 
Q 1016 -109 783 600 
Q 550 1309 550 2009 
Q 550 2706 781 3412 
Q 1013 4119 1484 4856 
L 1984 4856 
z
" transform="scale(0.015625)"/>
       <path id="DejaVuSans-29" d="M 513 4856 
L 1013 4856 
Q 1481 4119 1714 3412 
Q 1947 2706 1947 2009 
Q 1947 1309 1714 600 
Q 1481 -109 1013 -844 
L 513 -844 
Q 928 -128 1133 580 
Q 1338 1288 1338 2009 
Q 1338 2731 1133 3434 
Q 928 4138 513 4856 
z
" transform="scale(0.015625)"/>
      </defs>
      <use xlink:href="#DejaVuSans-41"/>
      <use xlink:href="#DejaVuSans-76" transform="translate(62.533203 0)"/>
      <use xlink:href="#DejaVuSans-65" transform="translate(121.712891 0)"/>
      <use xlink:href="#DejaVuSans-72" transform="translate(183.236328 0)"/>
      <use xlink:href="#DejaVuSans-61" transform="translate(224.349609 0)"/>
      <use xlink:href="#DejaVuSans-67" transform="translate(285.628906 0)"/>
      <use xlink:href="#DejaVuSans-65" transform="translate(349.105469 0)"/>
      <use xlink:href="#DejaVuSans-20" transform="translate(410.628906 0)"/>
      <use xlink:href="#DejaVuSans-45" transform="translate(442.416016 0)"/>
      <use xlink:href="#DejaVuSans-70" transform="translate(505.599609 0)"/>
      <use xlink:href="#DejaVuSans-69" transform="translate(569.076172 0)"/>
      <use xlink:href="#DejaVuSans-73" transform="translate(596.859375 0)"/>
      <use xlink:href="#DejaVuSans-6f" transform="translate(648.958984 0)"/>
      <use xlink:href="#DejaVuSans-64" transform="translate(710.140625 0)"/>
      <use xlink:href="#DejaVuSans-65" transform="translate(773.617188 0)"/>
      <use xlink:href="#DejaVuSans-20" transform="translate(835.140625 0)"/>
      <use xlink:href="#DejaVuSans-52" transform="translate(866.927734 0)"/>
      <use xlink:href="#DejaVuSans-65" transform="translate(931.910156 0)"/>
      <use xlink:href="#DejaVuSans-77" transform="translate(993.433594 0)"/>
      <use xlink:href="#DejaVuSans-61" transform="translate(1075.220703 0)"/>
      <use xlink:href="#DejaVuSans-72" transform="translate(1136.5 0)"/>
      <use xlink:href="#DejaVuSans-64" transform="translate(1175.863281 0)"/>
      <use xlink:href="#DejaVuSans-20" transform="translate(1239.339844 0)"/>
      <use xlink:href="#DejaVuSans-28" transform="translate(1271.126953 0)"/>
      <use xlink:href="#DejaVuSans-37" transform="translate(1310.140625 0)"/>
      <use xlink:href="#DejaVuSans-35" transform="translate(1373.763672 0)"/>
      <use xlink:href="#DejaVuSans-20" transform="translate(1437.386719 0)"/>
      <use xlink:href="#DejaVuSans-65" transform="translate(1469.173828 0)"/>
      <use xlink:href="#DejaVuSans-70" transform="translate(1530.697266 0)"/>
      <use xlink:href="#DejaVuSans-69" transform="translate(1594.173828 0)"/>
      <use xlink:href="#DejaVuSans-73" transform="translate(1621.957031 0)"/>
      <use xlink:href="#DejaVuSans-6f" transform="translate(1674.056641 0)"/>
      <use xlink:href="#DejaVuSans-64" transform="translate(1735.238281 0)"/>
      <use xlink:href="#DejaVuSans-65" transform="translate(1798.714844 0)"/>
      <use xlink:href="#DejaVuSans-73" transform="translate(1860.238281 0)"/>
      <use xlink:href="#DejaVuSans-29" transform="translate(1912.337891 0)"/>
     </g>
    </g>
   </g>
  </g>
 </g>
 <defs>
  <clipPath id="pa293527000">
   <rect x="54.02" y="26.88" width="655.18" height="363.16"/>
  </clipPath>
 </defs>
</svg>
