<?xml version="1.0" encoding="utf-8" standalone="no"?>
<!DOCTYPE svg PUBLIC "-//W3C//DTD SVG 1.1//EN"
  "http://www.w3.org/Graphics/SVG/1.1/DTD/svg11.dtd">
<svg xmlns:xlink="http://www.w3.org/1999/xlink" width="720pt" height="432pt" viewBox="0 0 720 432" xmlns="http://www.w3.org/2000/svg" version="1.1">
 <metadata>
  <rdf:RDF xmlns:dc="http://purl.org/dc/elements/1.1/" xmlns:cc="http://creativecommons.org/ns#" xmlns:rdf="http://www.w3.org/1999/02/22-rdf-syntax-ns#">
   <cc:Work>
    <dc:type rdf:resource="http://purl.org/dc/dcmitype/StillImage"/>
    <dc:date>2025-04-16T01:04:08.853207</dc:date>
    <dc:format>image/svg+xml</dc:format>
    <dc:creator>
     <cc:Agent>
      <dc:title>Matplotlib v3.10.0, https://matplotlib.org/</dc:title>
     </cc:Agent>
    </dc:creator>
   </cc:Work>
  </rdf:RDF>
 </metadata>
 <defs>
  <style type="text/css">*{stroke-linejoin: round; stroke-linecap: butt}</style>
 </defs>
 <g id="figure_1">
  <g id="patch_1">
   <path d="M 0 432 
L 720 432 
L 720 0 
L 0 0 
z
" style="fill: #ffffff"/>
  </g>
  <g id="axes_1">
   <g id="patch_2">
    <path d="M 47.72 390.04 
L 709.2 390.04 
L 709.2 13.487717 
L 47.72 13.487717 
z
" style="fill: #ffffff"/>
   </g>
   <g id="FillBetweenPolyCollection_1">
    <path d="M 77.787273 41.162721 
L 77.787273 235.099226 
L 81.263258 232.428069 
L 84.739243 236.341712 
L 88.215229 224.018156 
L 91.691214 205.520705 
L 95.167199 216.333233 
L 98.643184 231.339495 
L 102.11917 241.717933 
L 105.595155 243.58557 
L 109.07114 267.471883 
L 112.547126 263.379151 
L 116.023111 267.918025 
L 119.499096 269.217944 
L 122.975081 272.525035 
L 126.451067 273.335542 
L 129.927052 269.326974 
L 133.403037 271.119923 
L 136.879023 274.077717 
L 140.355008 273.983068 
L 143.830993 273.014712 
L 147.306978 274.452218 
L 150.782964 275.735978 
L 154.258949 272.581044 
L 157.734934 273.960202 
L 161.21092 273.435042 
L 164.686905 275.332269 
L 168.16289 274.705367 
L 171.638875 273.785929 
L 175.114861 274.744756 
L 178.590846 274.570581 
L 182.066831 274.866108 
L 185.542817 270.082319 
L 189.018802 272.620531 
L 192.494787 273.972623 
L 195.970772 274.183296 
L 199.446758 275.890376 
L 202.922743 273.815886 
L 206.398728 273.723576 
L 209.874714 274.143907 
L 213.350699 273.48396 
L 216.826684 274.603626 
L 220.302669 271.84232 
L 223.778655 274.222782 
L 227.25464 273.651142 
L 230.730625 274.183296 
L 234.206611 274.72189 
L 237.682596 275.355134 
L 241.158581 276.602495 
L 244.634566 274.324524 
L 248.110552 274.603626 
L 251.586537 274.747844 
L 255.062522 271.01828 
L 258.538508 270.795187 
L 262.014493 273.444572 
L 265.490478 270.795187 
L 268.966463 272.9225 
L 272.442449 274.20626 
L 275.918434 272.318563 
L 279.394419 273.461094 
L 282.870405 272.784625 
L 286.34639 273.828406 
L 289.822375 274.576561 
L 293.29836 275.335259 
L 296.774346 273.890758 
L 300.250331 274.498699 
L 303.726316 274.573571 
L 307.202302 274.262171 
L 310.678287 274.892062 
L 314.154272 274.222782 
L 317.630257 275.588407 
L 321.106243 274.603626 
L 324.582228 277.623312 
L 328.058213 278.59456 
L 331.534199 306.087234 
L 335.010184 327.717426 
L 338.486169 332.545559 
L 341.962154 333.024791 
L 345.43814 335.26664 
L 348.914125 334.15379 
L 352.39011 335.949453 
L 355.866096 334.340847 
L 359.342081 335.076218 
L 362.818066 335.640755 
L 366.294051 336.342856 
L 369.770037 334.429517 
L 373.246022 334.754063 
L 376.722007 337.015863 
L 380.197993 336.129482 
L 383.673978 336.625237 
L 387.149963 336.68759 
L 390.625949 336.749942 
L 394.101934 337.685229 
L 397.577919 336.320192 
L 401.053904 336.18877 
L 404.52989 335.991993 
L 408.005875 335.634314 
L 411.48186 336.562885 
L 414.957846 335.656979 
L 418.433831 336.323268 
L 421.909816 335.318899 
L 425.385801 336.18877 
L 428.861787 336.749942 
L 432.337772 335.512686 
L 435.813757 335.44054 
L 439.289743 335.814655 
L 442.765728 335.752302 
L 446.241713 335.627597 
L 449.717698 335.93936 
L 453.193684 335.627597 
L 456.669669 335.565245 
L 460.145654 341.159916 
L 463.62164 363.173815 
L 467.097625 370.222418 
L 470.57361 369.844564 
L 474.049595 371.459974 
L 477.525581 371.335269 
L 481.001566 372.923987 
L 484.477551 372.608486 
L 487.953537 370.623069 
L 491.429522 362.656657 
L 494.905507 360.290396 
L 498.381492 358.239637 
L 501.857478 358.00301 
L 505.333463 357.924135 
L 508.809448 357.687509 
L 512.285434 358.160761 
L 515.761419 357.766384 
L 519.237404 357.766384 
L 522.713389 357.687509 
L 526.189375 357.687509 
L 529.66536 357.84526 
L 533.141345 357.687509 
L 536.617331 357.687509 
L 540.093316 357.687509 
L 543.569301 357.687509 
L 547.045286 357.687509 
L 550.521272 357.687509 
L 553.997257 357.766384 
L 557.473242 357.766384 
L 560.949228 357.687509 
L 564.425213 358.00301 
L 567.901198 357.687509 
L 571.377183 357.687509 
L 574.853169 357.84526 
L 578.329154 357.687509 
L 581.805139 357.687509 
L 585.281125 357.687509 
L 588.75711 357.766384 
L 592.233095 357.924135 
L 595.70908 357.687509 
L 599.185066 357.687509 
L 602.661051 357.687509 
L 606.137036 357.687509 
L 609.613022 357.687509 
L 613.089007 357.687509 
L 616.564992 357.84526 
L 620.040977 357.766384 
L 623.516963 357.687509 
L 626.992948 357.687509 
L 630.468933 357.924135 
L 633.944919 357.687509 
L 637.420904 357.687509 
L 640.896889 357.687509 
L 644.372874 357.687509 
L 647.84886 357.687509 
L 651.324845 357.687509 
L 654.80083 358.160761 
L 658.276816 357.84526 
L 661.752801 357.687509 
L 665.228786 357.687509 
L 668.704771 357.687509 
L 672.180757 357.687509 
L 675.656742 357.687509 
L 679.132727 357.687509 
L 679.132727 357.687509 
L 679.132727 357.687509 
L 675.656742 357.687509 
L 672.180757 357.687509 
L 668.704771 357.687509 
L 665.228786 357.687509 
L 661.752801 357.687509 
L 658.276816 356.76807 
L 654.80083 354.929193 
L 651.324845 357.687509 
L 647.84886 357.687509 
L 644.372874 357.687509 
L 640.896889 357.687509 
L 637.420904 357.687509 
L 633.944919 357.687509 
L 630.468933 356.308351 
L 626.992948 357.687509 
L 623.516963 357.687509 
L 620.040977 357.22779 
L 616.564992 356.76807 
L 613.089007 357.687509 
L 609.613022 357.687509 
L 606.137036 357.687509 
L 602.661051 357.687509 
L 599.185066 357.687509 
L 595.70908 357.687509 
L 592.233095 356.308351 
L 588.75711 357.22779 
L 585.281125 357.687509 
L 581.805139 357.687509 
L 578.329154 357.687509 
L 574.853169 356.76807 
L 571.377183 357.687509 
L 567.901198 357.687509 
L 564.425213 355.848632 
L 560.949228 357.687509 
L 557.473242 357.22779 
L 553.997257 357.22779 
L 550.521272 357.687509 
L 547.045286 357.687509 
L 543.569301 357.687509 
L 540.093316 357.687509 
L 536.617331 357.687509 
L 533.141345 357.687509 
L 529.66536 356.76807 
L 526.189375 357.687509 
L 522.713389 357.687509 
L 519.237404 357.22779 
L 515.761419 357.22779 
L 512.285434 354.929193 
L 508.809448 357.687509 
L 505.333463 356.308351 
L 501.857478 355.848632 
L 498.381492 354.469474 
L 494.905507 342.516772 
L 491.429522 328.725192 
L 487.953537 282.293542 
L 484.477551 268.121118 
L 481.001566 266.282241 
L 477.525581 262.539144 
L 474.049595 260.891063 
L 470.57361 262.125629 
L 467.097625 259.462711 
L 463.62164 249.373337 
L 460.145654 232.160309 
L 456.669669 225.187131 
L 453.193684 224.36309 
L 449.717698 220.242888 
L 446.241713 224.36309 
L 442.765728 222.715009 
L 439.289743 221.890969 
L 435.813757 226.835211 
L 432.337772 221.050406 
L 428.861787 209.530363 
L 425.385801 216.946727 
L 421.909816 218.197441 
L 418.433831 210.337881 
L 414.957846 209.480795 
L 411.48186 212.002484 
L 408.005875 223.975529 
L 404.52989 211.05 
L 401.053904 216.946727 
L 397.577919 214.911085 
L 394.101934 197.169757 
L 390.625949 209.530363 
L 387.149963 210.354404 
L 383.673978 211.178444 
L 380.197993 207.484916 
L 376.722007 200.885875 
L 373.246022 210.002866 
L 369.770037 216.040072 
L 366.294051 200.41635 
L 362.818066 222.064868 
L 359.342081 226.818689 
L 355.866096 221.460556 
L 352.39011 228.230518 
L 348.914125 223.932678 
L 345.43814 227.009111 
L 341.962154 220.110705 
L 338.486169 216.781498 
L 335.010184 205.995029 
L 331.534199 146.124616 
L 328.058213 72.312799 
L 324.582228 67.571389 
L 321.106243 59.165756 
L 317.630257 61.227726 
L 314.154272 58.784912 
L 310.678287 62.68576 
L 307.202302 59.507211 
L 303.726316 61.480875 
L 300.250331 60.032371 
L 296.774346 60.259468 
L 293.29836 62.242563 
L 289.822375 64.524637 
L 286.34639 61.083509 
L 282.870405 56.795474 
L 279.394419 58.023224 
L 275.918434 56.880692 
L 272.442449 58.420591 
L 268.966463 58.561819 
L 265.490478 55.357316 
L 262.014493 57.658903 
L 258.538508 55.357316 
L 255.062522 56.657599 
L 251.586537 60.925758 
L 248.110552 59.165756 
L 244.634566 58.683171 
L 241.158581 61.737014 
L 237.682596 59.55678 
L 234.206611 59.428336 
L 230.730625 59.966931 
L 227.25464 58.594864 
L 223.778655 58.784912 
L 220.302669 56.595247 
L 216.826684 59.165756 
L 213.350699 58.381202 
L 209.874714 59.244631 
L 206.398728 60.045806 
L 202.922743 58.810964 
L 199.446758 62.06829 
L 195.970772 59.966931 
L 192.494787 62.84351 
L 189.018802 57.721255 
L 185.542817 56.451029 
L 182.066831 61.188338 
L 178.590846 58.437114 
L 175.114861 59.786314 
L 171.638875 59.221766 
L 168.16289 59.064015 
L 164.686905 59.198802 
L 161.21092 58.43012 
L 157.734934 58.666648 
L 154.258949 58.903274 
L 150.782964 59.937624 
L 147.306978 60.078852 
L 143.830993 59.231295 
L 140.355008 59.024626 
L 136.879023 59.691665 
L 133.403037 58.460176 
L 129.927052 55.682998 
L 126.451067 62.33806 
L 122.975081 59.720972 
L 119.499096 60.362155 
L 116.023111 54.045195 
L 112.547126 57.441537 
L 109.07114 64.39328 
L 105.595155 56.288701 
L 102.11917 42.541736 
L 98.643184 42.256543 
L 95.167199 30.603729 
L 91.691214 39.131193 
L 88.215229 36.248344 
L 84.739243 43.34783 
L 81.263258 38.882906 
L 77.787273 41.162721 
z
" clip-path="url(#pcc2851b9dd)" style="fill: #1f77b4; fill-opacity: 0.2"/>
   </g>
   <g id="matplotlib.axis_1">
    <g id="xtick_1">
     <g id="line2d_1">
      <path d="M 76.0319 390.04 
L 76.0319 13.487717 
" clip-path="url(#pcc2851b9dd)" style="fill: none; stroke: #b0b0b0; stroke-width: 0.8; stroke-linecap: square"/>
     </g>
     <g id="line2d_2">
      <defs>
       <path id="m93def2d9bf" d="M 0 0 
L 0 3.5 
" style="stroke: #000000; stroke-width: 0.8"/>
      </defs>
      <g>
       <use xlink:href="#m93def2d9bf" x="76.0319" y="390.04" style="stroke: #000000; stroke-width: 0.8"/>
      </g>
     </g>
     <g id="text_1">
      <!-- 0 -->
      <g transform="translate(72.85065 404.638438) scale(0.1 -0.1)">
       <defs>
        <path id="DejaVuSans-30" d="M 2034 4250 
Q 1547 4250 1301 3770 
Q 1056 3291 1056 2328 
Q 1056 1369 1301 889 
Q 1547 409 2034 409 
Q 2525 409 2770 889 
Q 3016 1369 3016 2328 
Q 3016 3291 2770 3770 
Q 2525 4250 2034 4250 
z
M 2034 4750 
Q 2819 4750 3233 4129 
Q 3647 3509 3647 2328 
Q 3647 1150 3233 529 
Q 2819 -91 2034 -91 
Q 1250 -91 836 529 
Q 422 1150 422 2328 
Q 422 3509 836 4129 
Q 1250 4750 2034 4750 
z
" transform="scale(0.015625)"/>
       </defs>
       <use xlink:href="#DejaVuSans-30"/>
      </g>
     </g>
    </g>
    <g id="xtick_2">
     <g id="line2d_3">
      <path d="M 162.931532 390.04 
L 162.931532 13.487717 
" clip-path="url(#pcc2851b9dd)" style="fill: none; stroke: #b0b0b0; stroke-width: 0.8; stroke-linecap: square"/>
     </g>
     <g id="line2d_4">
      <g>
       <use xlink:href="#m93def2d9bf" x="162.931532" y="390.04" style="stroke: #000000; stroke-width: 0.8"/>
      </g>
     </g>
     <g id="text_2">
      <!-- 5000 -->
      <g transform="translate(150.206532 404.638438) scale(0.1 -0.1)">
       <defs>
        <path id="DejaVuSans-35" d="M 691 4666 
L 3169 4666 
L 3169 4134 
L 1269 4134 
L 1269 2991 
Q 1406 3038 1543 3061 
Q 1681 3084 1819 3084 
Q 2600 3084 3056 2656 
Q 3513 2228 3513 1497 
Q 3513 744 3044 326 
Q 2575 -91 1722 -91 
Q 1428 -91 1123 -41 
Q 819 9 494 109 
L 494 744 
Q 775 591 1075 516 
Q 1375 441 1709 441 
Q 2250 441 2565 725 
Q 2881 1009 2881 1497 
Q 2881 1984 2565 2268 
Q 2250 2553 1709 2553 
Q 1456 2553 1204 2497 
Q 953 2441 691 2322 
L 691 4666 
z
" transform="scale(0.015625)"/>
       </defs>
       <use xlink:href="#DejaVuSans-35"/>
       <use xlink:href="#DejaVuSans-30" transform="translate(63.623047 0)"/>
       <use xlink:href="#DejaVuSans-30" transform="translate(127.246094 0)"/>
       <use xlink:href="#DejaVuSans-30" transform="translate(190.869141 0)"/>
      </g>
     </g>
    </g>
    <g id="xtick_3">
     <g id="line2d_5">
      <path d="M 249.831164 390.04 
L 249.831164 13.487717 
" clip-path="url(#pcc2851b9dd)" style="fill: none; stroke: #b0b0b0; stroke-width: 0.8; stroke-linecap: square"/>
     </g>
     <g id="line2d_6">
      <g>
       <use xlink:href="#m93def2d9bf" x="249.831164" y="390.04" style="stroke: #000000; stroke-width: 0.8"/>
      </g>
     </g>
     <g id="text_3">
      <!-- 10000 -->
      <g transform="translate(233.924914 404.638438) scale(0.1 -0.1)">
       <defs>
        <path id="DejaVuSans-31" d="M 794 531 
L 1825 531 
L 1825 4091 
L 703 3866 
L 703 4441 
L 1819 4666 
L 2450 4666 
L 2450 531 
L 3481 531 
L 3481 0 
L 794 0 
L 794 531 
z
" transform="scale(0.015625)"/>
       </defs>
       <use xlink:href="#DejaVuSans-31"/>
       <use xlink:href="#DejaVuSans-30" transform="translate(63.623047 0)"/>
       <use xlink:href="#DejaVuSans-30" transform="translate(127.246094 0)"/>
       <use xlink:href="#DejaVuSans-30" transform="translate(190.869141 0)"/>
       <use xlink:href="#DejaVuSans-30" transform="translate(254.492188 0)"/>
      </g>
     </g>
    </g>
    <g id="xtick_4">
     <g id="line2d_7">
      <path d="M 336.730797 390.04 
L 336.730797 13.487717 
" clip-path="url(#pcc2851b9dd)" style="fill: none; stroke: #b0b0b0; stroke-width: 0.8; stroke-linecap: square"/>
     </g>
     <g id="line2d_8">
      <g>
       <use xlink:href="#m93def2d9bf" x="336.730797" y="390.04" style="stroke: #000000; stroke-width: 0.8"/>
      </g>
     </g>
     <g id="text_4">
      <!-- 15000 -->
      <g transform="translate(320.824547 404.638438) scale(0.1 -0.1)">
       <use xlink:href="#DejaVuSans-31"/>
       <use xlink:href="#DejaVuSans-35" transform="translate(63.623047 0)"/>
       <use xlink:href="#DejaVuSans-30" transform="translate(127.246094 0)"/>
       <use xlink:href="#DejaVuSans-30" transform="translate(190.869141 0)"/>
       <use xlink:href="#DejaVuSans-30" transform="translate(254.492188 0)"/>
      </g>
     </g>
    </g>
    <g id="xtick_5">
     <g id="line2d_9">
      <path d="M 423.630429 390.04 
L 423.630429 13.487717 
" clip-path="url(#pcc2851b9dd)" style="fill: none; stroke: #b0b0b0; stroke-width: 0.8; stroke-linecap: square"/>
     </g>
     <g id="line2d_10">
      <g>
       <use xlink:href="#m93def2d9bf" x="423.630429" y="390.04" style="stroke: #000000; stroke-width: 0.8"/>
      </g>
     </g>
     <g id="text_5">
      <!-- 20000 -->
      <g transform="translate(407.724179 404.638438) scale(0.1 -0.1)">
       <defs>
        <path id="DejaVuSans-32" d="M 1228 531 
L 3431 531 
L 3431 0 
L 469 0 
L 469 531 
Q 828 903 1448 1529 
Q 2069 2156 2228 2338 
Q 2531 2678 2651 2914 
Q 2772 3150 2772 3378 
Q 2772 3750 2511 3984 
Q 2250 4219 1831 4219 
Q 1534 4219 1204 4116 
Q 875 4013 500 3803 
L 500 4441 
Q 881 4594 1212 4672 
Q 1544 4750 1819 4750 
Q 2544 4750 2975 4387 
Q 3406 4025 3406 3419 
Q 3406 3131 3298 2873 
Q 3191 2616 2906 2266 
Q 2828 2175 2409 1742 
Q 1991 1309 1228 531 
z
" transform="scale(0.015625)"/>
       </defs>
       <use xlink:href="#DejaVuSans-32"/>
       <use xlink:href="#DejaVuSans-30" transform="translate(63.623047 0)"/>
       <use xlink:href="#DejaVuSans-30" transform="translate(127.246094 0)"/>
       <use xlink:href="#DejaVuSans-30" transform="translate(190.869141 0)"/>
       <use xlink:href="#DejaVuSans-30" transform="translate(254.492188 0)"/>
      </g>
     </g>
    </g>
    <g id="xtick_6">
     <g id="line2d_11">
      <path d="M 510.530061 390.04 
L 510.530061 13.487717 
" clip-path="url(#pcc2851b9dd)" style="fill: none; stroke: #b0b0b0; stroke-width: 0.8; stroke-linecap: square"/>
     </g>
     <g id="line2d_12">
      <g>
       <use xlink:href="#m93def2d9bf" x="510.530061" y="390.04" style="stroke: #000000; stroke-width: 0.8"/>
      </g>
     </g>
     <g id="text_6">
      <!-- 25000 -->
      <g transform="translate(494.623811 404.638438) scale(0.1 -0.1)">
       <use xlink:href="#DejaVuSans-32"/>
       <use xlink:href="#DejaVuSans-35" transform="translate(63.623047 0)"/>
       <use xlink:href="#DejaVuSans-30" transform="translate(127.246094 0)"/>
       <use xlink:href="#DejaVuSans-30" transform="translate(190.869141 0)"/>
       <use xlink:href="#DejaVuSans-30" transform="translate(254.492188 0)"/>
      </g>
     </g>
    </g>
    <g id="xtick_7">
     <g id="line2d_13">
      <path d="M 597.429693 390.04 
L 597.429693 13.487717 
" clip-path="url(#pcc2851b9dd)" style="fill: none; stroke: #b0b0b0; stroke-width: 0.8; stroke-linecap: square"/>
     </g>
     <g id="line2d_14">
      <g>
       <use xlink:href="#m93def2d9bf" x="597.429693" y="390.04" style="stroke: #000000; stroke-width: 0.8"/>
      </g>
     </g>
     <g id="text_7">
      <!-- 30000 -->
      <g transform="translate(581.523443 404.638438) scale(0.1 -0.1)">
       <defs>
        <path id="DejaVuSans-33" d="M 2597 2516 
Q 3050 2419 3304 2112 
Q 3559 1806 3559 1356 
Q 3559 666 3084 287 
Q 2609 -91 1734 -91 
Q 1441 -91 1130 -33 
Q 819 25 488 141 
L 488 750 
Q 750 597 1062 519 
Q 1375 441 1716 441 
Q 2309 441 2620 675 
Q 2931 909 2931 1356 
Q 2931 1769 2642 2001 
Q 2353 2234 1838 2234 
L 1294 2234 
L 1294 2753 
L 1863 2753 
Q 2328 2753 2575 2939 
Q 2822 3125 2822 3475 
Q 2822 3834 2567 4026 
Q 2313 4219 1838 4219 
Q 1578 4219 1281 4162 
Q 984 4106 628 3988 
L 628 4550 
Q 988 4650 1302 4700 
Q 1616 4750 1894 4750 
Q 2613 4750 3031 4423 
Q 3450 4097 3450 3541 
Q 3450 3153 3228 2886 
Q 3006 2619 2597 2516 
z
" transform="scale(0.015625)"/>
       </defs>
       <use xlink:href="#DejaVuSans-33"/>
       <use xlink:href="#DejaVuSans-30" transform="translate(63.623047 0)"/>
       <use xlink:href="#DejaVuSans-30" transform="translate(127.246094 0)"/>
       <use xlink:href="#DejaVuSans-30" transform="translate(190.869141 0)"/>
       <use xlink:href="#DejaVuSans-30" transform="translate(254.492188 0)"/>
      </g>
     </g>
    </g>
    <g id="xtick_8">
     <g id="line2d_15">
      <path d="M 684.329325 390.04 
L 684.329325 13.487717 
" clip-path="url(#pcc2851b9dd)" style="fill: none; stroke: #b0b0b0; stroke-width: 0.8; stroke-linecap: square"/>
     </g>
     <g id="line2d_16">
      <g>
       <use xlink:href="#m93def2d9bf" x="684.329325" y="390.04" style="stroke: #000000; stroke-width: 0.8"/>
      </g>
     </g>
     <g id="text_8">
      <!-- 35000 -->
      <g transform="translate(668.423075 404.638438) scale(0.1 -0.1)">
       <use xlink:href="#DejaVuSans-33"/>
       <use xlink:href="#DejaVuSans-35" transform="translate(63.623047 0)"/>
       <use xlink:href="#DejaVuSans-30" transform="translate(127.246094 0)"/>
       <use xlink:href="#DejaVuSans-30" transform="translate(190.869141 0)"/>
       <use xlink:href="#DejaVuSans-30" transform="translate(254.492188 0)"/>
      </g>
     </g>
    </g>
    <g id="text_9">
     <!-- Episodes -->
     <g transform="translate(356.217813 418.316562) scale(0.1 -0.1)">
      <defs>
       <path id="DejaVuSans-45" d="M 628 4666 
L 3578 4666 
L 3578 4134 
L 1259 4134 
L 1259 2753 
L 3481 2753 
L 3481 2222 
L 1259 2222 
L 1259 531 
L 3634 531 
L 3634 0 
L 628 0 
L 628 4666 
z
" transform="scale(0.015625)"/>
       <path id="DejaVuSans-70" d="M 1159 525 
L 1159 -1331 
L 581 -1331 
L 581 3500 
L 1159 3500 
L 1159 2969 
Q 1341 3281 1617 3432 
Q 1894 3584 2278 3584 
Q 2916 3584 3314 3078 
Q 3713 2572 3713 1747 
Q 3713 922 3314 415 
Q 2916 -91 2278 -91 
Q 1894 -91 1617 61 
Q 1341 213 1159 525 
z
M 3116 1747 
Q 3116 2381 2855 2742 
Q 2594 3103 2138 3103 
Q 1681 3103 1420 2742 
Q 1159 2381 1159 1747 
Q 1159 1113 1420 752 
Q 1681 391 2138 391 
Q 2594 391 2855 752 
Q 3116 1113 3116 1747 
z
" transform="scale(0.015625)"/>
       <path id="DejaVuSans-69" d="M 603 3500 
L 1178 3500 
L 1178 0 
L 603 0 
L 603 3500 
z
M 603 4863 
L 1178 4863 
L 1178 4134 
L 603 4134 
L 603 4863 
z
" transform="scale(0.015625)"/>
       <path id="DejaVuSans-73" d="M 2834 3397 
L 2834 2853 
Q 2591 2978 2328 3040 
Q 2066 3103 1784 3103 
Q 1356 3103 1142 2972 
Q 928 2841 928 2578 
Q 928 2378 1081 2264 
Q 1234 2150 1697 2047 
L 1894 2003 
Q 2506 1872 2764 1633 
Q 3022 1394 3022 966 
Q 3022 478 2636 193 
Q 2250 -91 1575 -91 
Q 1294 -91 989 -36 
Q 684 19 347 128 
L 347 722 
Q 666 556 975 473 
Q 1284 391 1588 391 
Q 1994 391 2212 530 
Q 2431 669 2431 922 
Q 2431 1156 2273 1281 
Q 2116 1406 1581 1522 
L 1381 1569 
Q 847 1681 609 1914 
Q 372 2147 372 2553 
Q 372 3047 722 3315 
Q 1072 3584 1716 3584 
Q 2034 3584 2315 3537 
Q 2597 3491 2834 3397 
z
" transform="scale(0.015625)"/>
       <path id="DejaVuSans-6f" d="M 1959 3097 
Q 1497 3097 1228 2736 
Q 959 2375 959 1747 
Q 959 1119 1226 758 
Q 1494 397 1959 397 
Q 2419 397 2687 759 
Q 2956 1122 2956 1747 
Q 2956 2369 2687 2733 
Q 2419 3097 1959 3097 
z
M 1959 3584 
Q 2709 3584 3137 3096 
Q 3566 2609 3566 1747 
Q 3566 888 3137 398 
Q 2709 -91 1959 -91 
Q 1206 -91 779 398 
Q 353 888 353 1747 
Q 353 2609 779 3096 
Q 1206 3584 1959 3584 
z
" transform="scale(0.015625)"/>
       <path id="DejaVuSans-64" d="M 2906 2969 
L 2906 4863 
L 3481 4863 
L 3481 0 
L 2906 0 
L 2906 525 
Q 2725 213 2448 61 
Q 2172 -91 1784 -91 
Q 1150 -91 751 415 
Q 353 922 353 1747 
Q 353 2572 751 3078 
Q 1150 3584 1784 3584 
Q 2172 3584 2448 3432 
Q 2725 3281 2906 2969 
z
M 947 1747 
Q 947 1113 1208 752 
Q 1469 391 1925 391 
Q 2381 391 2643 752 
Q 2906 1113 2906 1747 
Q 2906 2381 2643 2742 
Q 2381 3103 1925 3103 
Q 1469 3103 1208 2742 
Q 947 2381 947 1747 
z
" transform="scale(0.015625)"/>
       <path id="DejaVuSans-65" d="M 3597 1894 
L 3597 1613 
L 953 1613 
Q 991 1019 1311 708 
Q 1631 397 2203 397 
Q 2534 397 2845 478 
Q 3156 559 3463 722 
L 3463 178 
Q 3153 47 2828 -22 
Q 2503 -91 2169 -91 
Q 1331 -91 842 396 
Q 353 884 353 1716 
Q 353 2575 817 3079 
Q 1281 3584 2069 3584 
Q 2775 3584 3186 3129 
Q 3597 2675 3597 1894 
z
M 3022 2063 
Q 3016 2534 2758 2815 
Q 2500 3097 2075 3097 
Q 1594 3097 1305 2825 
Q 1016 2553 972 2059 
L 3022 2063 
z
" transform="scale(0.015625)"/>
      </defs>
      <use xlink:href="#DejaVuSans-45"/>
      <use xlink:href="#DejaVuSans-70" transform="translate(63.183594 0)"/>
      <use xlink:href="#DejaVuSans-69" transform="translate(126.660156 0)"/>
      <use xlink:href="#DejaVuSans-73" transform="translate(154.443359 0)"/>
      <use xlink:href="#DejaVuSans-6f" transform="translate(206.542969 0)"/>
      <use xlink:href="#DejaVuSans-64" transform="translate(267.724609 0)"/>
      <use xlink:href="#DejaVuSans-65" transform="translate(331.201172 0)"/>
      <use xlink:href="#DejaVuSans-73" transform="translate(392.724609 0)"/>
     </g>
    </g>
   </g>
   <g id="matplotlib.axis_2">
    <g id="ytick_1">
     <g id="line2d_17">
      <path d="M 47.72 357.687509 
L 709.2 357.687509 
" clip-path="url(#pcc2851b9dd)" style="fill: none; stroke: #b0b0b0; stroke-width: 0.8; stroke-linecap: square"/>
     </g>
     <g id="line2d_18">
      <defs>
       <path id="mc537443838" d="M 0 0 
L -3.5 0 
" style="stroke: #000000; stroke-width: 0.8"/>
      </defs>
      <g>
       <use xlink:href="#mc537443838" x="47.72" y="357.687509" style="stroke: #000000; stroke-width: 0.8"/>
      </g>
     </g>
     <g id="text_10">
      <!-- 1.0 -->
      <g transform="translate(24.816875 361.486728) scale(0.1 -0.1)">
       <defs>
        <path id="DejaVuSans-2e" d="M 684 794 
L 1344 794 
L 1344 0 
L 684 0 
L 684 794 
z
" transform="scale(0.015625)"/>
       </defs>
       <use xlink:href="#DejaVuSans-31"/>
       <use xlink:href="#DejaVuSans-2e" transform="translate(63.623047 0)"/>
       <use xlink:href="#DejaVuSans-30" transform="translate(95.410156 0)"/>
      </g>
     </g>
    </g>
    <g id="ytick_2">
     <g id="line2d_19">
      <path d="M 47.72 300.560917 
L 709.2 300.560917 
" clip-path="url(#pcc2851b9dd)" style="fill: none; stroke: #b0b0b0; stroke-width: 0.8; stroke-linecap: square"/>
     </g>
     <g id="line2d_20">
      <g>
       <use xlink:href="#mc537443838" x="47.72" y="300.560917" style="stroke: #000000; stroke-width: 0.8"/>
      </g>
     </g>
     <g id="text_11">
      <!-- 1.5 -->
      <g transform="translate(24.816875 304.360136) scale(0.1 -0.1)">
       <use xlink:href="#DejaVuSans-31"/>
       <use xlink:href="#DejaVuSans-2e" transform="translate(63.623047 0)"/>
       <use xlink:href="#DejaVuSans-35" transform="translate(95.410156 0)"/>
      </g>
     </g>
    </g>
    <g id="ytick_3">
     <g id="line2d_21">
      <path d="M 47.72 243.434325 
L 709.2 243.434325 
" clip-path="url(#pcc2851b9dd)" style="fill: none; stroke: #b0b0b0; stroke-width: 0.8; stroke-linecap: square"/>
     </g>
     <g id="line2d_22">
      <g>
       <use xlink:href="#mc537443838" x="47.72" y="243.434325" style="stroke: #000000; stroke-width: 0.8"/>
      </g>
     </g>
     <g id="text_12">
      <!-- 2.0 -->
      <g transform="translate(24.816875 247.233543) scale(0.1 -0.1)">
       <use xlink:href="#DejaVuSans-32"/>
       <use xlink:href="#DejaVuSans-2e" transform="translate(63.623047 0)"/>
       <use xlink:href="#DejaVuSans-30" transform="translate(95.410156 0)"/>
      </g>
     </g>
    </g>
    <g id="ytick_4">
     <g id="line2d_23">
      <path d="M 47.72 186.307732 
L 709.2 186.307732 
" clip-path="url(#pcc2851b9dd)" style="fill: none; stroke: #b0b0b0; stroke-width: 0.8; stroke-linecap: square"/>
     </g>
     <g id="line2d_24">
      <g>
       <use xlink:href="#mc537443838" x="47.72" y="186.307732" style="stroke: #000000; stroke-width: 0.8"/>
      </g>
     </g>
     <g id="text_13">
      <!-- 2.5 -->
      <g transform="translate(24.816875 190.106951) scale(0.1 -0.1)">
       <use xlink:href="#DejaVuSans-32"/>
       <use xlink:href="#DejaVuSans-2e" transform="translate(63.623047 0)"/>
       <use xlink:href="#DejaVuSans-35" transform="translate(95.410156 0)"/>
      </g>
     </g>
    </g>
    <g id="ytick_5">
     <g id="line2d_25">
      <path d="M 47.72 129.18114 
L 709.2 129.18114 
" clip-path="url(#pcc2851b9dd)" style="fill: none; stroke: #b0b0b0; stroke-width: 0.8; stroke-linecap: square"/>
     </g>
     <g id="line2d_26">
      <g>
       <use xlink:href="#mc537443838" x="47.72" y="129.18114" style="stroke: #000000; stroke-width: 0.8"/>
      </g>
     </g>
     <g id="text_14">
      <!-- 3.0 -->
      <g transform="translate(24.816875 132.980359) scale(0.1 -0.1)">
       <use xlink:href="#DejaVuSans-33"/>
       <use xlink:href="#DejaVuSans-2e" transform="translate(63.623047 0)"/>
       <use xlink:href="#DejaVuSans-30" transform="translate(95.410156 0)"/>
      </g>
     </g>
    </g>
    <g id="ytick_6">
     <g id="line2d_27">
      <path d="M 47.72 72.054548 
L 709.2 72.054548 
" clip-path="url(#pcc2851b9dd)" style="fill: none; stroke: #b0b0b0; stroke-width: 0.8; stroke-linecap: square"/>
     </g>
     <g id="line2d_28">
      <g>
       <use xlink:href="#mc537443838" x="47.72" y="72.054548" style="stroke: #000000; stroke-width: 0.8"/>
      </g>
     </g>
     <g id="text_15">
      <!-- 3.5 -->
      <g transform="translate(24.816875 75.853767) scale(0.1 -0.1)">
       <use xlink:href="#DejaVuSans-33"/>
       <use xlink:href="#DejaVuSans-2e" transform="translate(63.623047 0)"/>
       <use xlink:href="#DejaVuSans-35" transform="translate(95.410156 0)"/>
      </g>
     </g>
    </g>
    <g id="ytick_7">
     <g id="line2d_29">
      <path d="M 47.72 14.927956 
L 709.2 14.927956 
" clip-path="url(#pcc2851b9dd)" style="fill: none; stroke: #b0b0b0; stroke-width: 0.8; stroke-linecap: square"/>
     </g>
     <g id="line2d_30">
      <g>
       <use xlink:href="#mc537443838" x="47.72" y="14.927956" style="stroke: #000000; stroke-width: 0.8"/>
      </g>
     </g>
     <g id="text_16">
      <!-- 4.0 -->
      <g transform="translate(24.816875 18.727175) scale(0.1 -0.1)">
       <defs>
        <path id="DejaVuSans-34" d="M 2419 4116 
L 825 1625 
L 2419 1625 
L 2419 4116 
z
M 2253 4666 
L 3047 4666 
L 3047 1625 
L 3713 1625 
L 3713 1100 
L 3047 1100 
L 3047 0 
L 2419 0 
L 2419 1100 
L 313 1100 
L 313 1709 
L 2253 4666 
z
" transform="scale(0.015625)"/>
       </defs>
       <use xlink:href="#DejaVuSans-34"/>
       <use xlink:href="#DejaVuSans-2e" transform="translate(63.623047 0)"/>
       <use xlink:href="#DejaVuSans-30" transform="translate(95.410156 0)"/>
      </g>
     </g>
    </g>
    <g id="text_17">
     <!-- Circuit Depth -->
     <g transform="translate(18.737188 234.673233) rotate(-90) scale(0.1 -0.1)">
      <defs>
       <path id="DejaVuSans-43" d="M 4122 4306 
L 4122 3641 
Q 3803 3938 3442 4084 
Q 3081 4231 2675 4231 
Q 1875 4231 1450 3742 
Q 1025 3253 1025 2328 
Q 1025 1406 1450 917 
Q 1875 428 2675 428 
Q 3081 428 3442 575 
Q 3803 722 4122 1019 
L 4122 359 
Q 3791 134 3420 21 
Q 3050 -91 2638 -91 
Q 1578 -91 968 557 
Q 359 1206 359 2328 
Q 359 3453 968 4101 
Q 1578 4750 2638 4750 
Q 3056 4750 3426 4639 
Q 3797 4528 4122 4306 
z
" transform="scale(0.015625)"/>
       <path id="DejaVuSans-72" d="M 2631 2963 
Q 2534 3019 2420 3045 
Q 2306 3072 2169 3072 
Q 1681 3072 1420 2755 
Q 1159 2438 1159 1844 
L 1159 0 
L 581 0 
L 581 3500 
L 1159 3500 
L 1159 2956 
Q 1341 3275 1631 3429 
Q 1922 3584 2338 3584 
Q 2397 3584 2469 3576 
Q 2541 3569 2628 3553 
L 2631 2963 
z
" transform="scale(0.015625)"/>
       <path id="DejaVuSans-63" d="M 3122 3366 
L 3122 2828 
Q 2878 2963 2633 3030 
Q 2388 3097 2138 3097 
Q 1578 3097 1268 2742 
Q 959 2388 959 1747 
Q 959 1106 1268 751 
Q 1578 397 2138 397 
Q 2388 397 2633 464 
Q 2878 531 3122 666 
L 3122 134 
Q 2881 22 2623 -34 
Q 2366 -91 2075 -91 
Q 1284 -91 818 406 
Q 353 903 353 1747 
Q 353 2603 823 3093 
Q 1294 3584 2113 3584 
Q 2378 3584 2631 3529 
Q 2884 3475 3122 3366 
z
" transform="scale(0.015625)"/>
       <path id="DejaVuSans-75" d="M 544 1381 
L 544 3500 
L 1119 3500 
L 1119 1403 
Q 1119 906 1312 657 
Q 1506 409 1894 409 
Q 2359 409 2629 706 
Q 2900 1003 2900 1516 
L 2900 3500 
L 3475 3500 
L 3475 0 
L 2900 0 
L 2900 538 
Q 2691 219 2414 64 
Q 2138 -91 1772 -91 
Q 1169 -91 856 284 
Q 544 659 544 1381 
z
M 1991 3584 
L 1991 3584 
z
" transform="scale(0.015625)"/>
       <path id="DejaVuSans-74" d="M 1172 4494 
L 1172 3500 
L 2356 3500 
L 2356 3053 
L 1172 3053 
L 1172 1153 
Q 1172 725 1289 603 
Q 1406 481 1766 481 
L 2356 481 
L 2356 0 
L 1766 0 
Q 1100 0 847 248 
Q 594 497 594 1153 
L 594 3053 
L 172 3053 
L 172 3500 
L 594 3500 
L 594 4494 
L 1172 4494 
z
" transform="scale(0.015625)"/>
       <path id="DejaVuSans-20" transform="scale(0.015625)"/>
       <path id="DejaVuSans-44" d="M 1259 4147 
L 1259 519 
L 2022 519 
Q 2988 519 3436 956 
Q 3884 1394 3884 2338 
Q 3884 3275 3436 3711 
Q 2988 4147 2022 4147 
L 1259 4147 
z
M 628 4666 
L 1925 4666 
Q 3281 4666 3915 4102 
Q 4550 3538 4550 2338 
Q 4550 1131 3912 565 
Q 3275 0 1925 0 
L 628 0 
L 628 4666 
z
" transform="scale(0.015625)"/>
       <path id="DejaVuSans-68" d="M 3513 2113 
L 3513 0 
L 2938 0 
L 2938 2094 
Q 2938 2591 2744 2837 
Q 2550 3084 2163 3084 
Q 1697 3084 1428 2787 
Q 1159 2491 1159 1978 
L 1159 0 
L 581 0 
L 581 4863 
L 1159 4863 
L 1159 2956 
Q 1366 3272 1645 3428 
Q 1925 3584 2291 3584 
Q 2894 3584 3203 3211 
Q 3513 2838 3513 2113 
z
" transform="scale(0.015625)"/>
      </defs>
      <use xlink:href="#DejaVuSans-43"/>
      <use xlink:href="#DejaVuSans-69" transform="translate(69.824219 0)"/>
      <use xlink:href="#DejaVuSans-72" transform="translate(97.607422 0)"/>
      <use xlink:href="#DejaVuSans-63" transform="translate(136.470703 0)"/>
      <use xlink:href="#DejaVuSans-75" transform="translate(191.451172 0)"/>
      <use xlink:href="#DejaVuSans-69" transform="translate(254.830078 0)"/>
      <use xlink:href="#DejaVuSans-74" transform="translate(282.613281 0)"/>
      <use xlink:href="#DejaVuSans-20" transform="translate(321.822266 0)"/>
      <use xlink:href="#DejaVuSans-44" transform="translate(353.609375 0)"/>
      <use xlink:href="#DejaVuSans-65" transform="translate(430.611328 0)"/>
      <use xlink:href="#DejaVuSans-70" transform="translate(492.134766 0)"/>
      <use xlink:href="#DejaVuSans-74" transform="translate(555.611328 0)"/>
      <use xlink:href="#DejaVuSans-68" transform="translate(594.820312 0)"/>
     </g>
    </g>
   </g>
   <g id="line2d_31">
    <path d="M 77.787273 138.130973 
L 81.263258 135.655487 
L 84.739243 139.844771 
L 88.215229 130.13325 
L 91.691214 122.325949 
L 95.167199 123.468481 
L 98.643184 136.798019 
L 102.11917 142.129835 
L 105.595155 149.937135 
L 109.07114 165.932581 
L 112.547126 160.410344 
L 116.023111 160.98161 
L 119.499096 164.790049 
L 122.975081 166.123003 
L 126.451067 167.836801 
L 129.927052 162.504986 
L 133.403037 164.790049 
L 136.879023 166.884691 
L 143.830993 166.123003 
L 147.306978 167.265535 
L 150.782964 167.836801 
L 154.258949 165.742159 
L 157.734934 166.313425 
L 161.21092 165.932581 
L 164.686905 167.265535 
L 171.638875 166.503847 
L 175.114861 167.265535 
L 178.590846 166.503847 
L 182.066831 168.027223 
L 185.542817 163.266674 
L 189.018802 165.170893 
L 192.494787 168.408067 
L 195.970772 167.075113 
L 199.446758 168.979333 
L 202.922743 166.313425 
L 206.398728 166.884691 
L 209.874714 166.694269 
L 213.350699 165.932581 
L 216.826684 166.884691 
L 220.302669 164.218783 
L 223.778655 166.503847 
L 227.25464 166.123003 
L 230.730625 167.075113 
L 234.206611 167.075113 
L 237.682596 167.455957 
L 241.158581 169.169755 
L 244.634566 166.503847 
L 248.110552 166.884691 
L 251.586537 167.836801 
L 255.062522 163.83794 
L 258.538508 163.076252 
L 262.014493 165.551737 
L 265.490478 163.076252 
L 268.966463 165.742159 
L 272.442449 166.313425 
L 275.918434 164.599627 
L 279.394419 165.742159 
L 282.870405 164.790049 
L 286.34639 167.455957 
L 289.822375 169.550599 
L 293.29836 168.788911 
L 296.774346 167.075113 
L 300.250331 167.265535 
L 303.726316 168.027223 
L 307.202302 166.884691 
L 310.678287 168.788911 
L 314.154272 166.503847 
L 317.630257 168.408067 
L 321.106243 166.884691 
L 324.582228 172.59735 
L 328.058213 175.45368 
L 331.534199 226.105925 
L 335.010184 266.856227 
L 338.486169 274.663528 
L 341.962154 276.567748 
L 345.43814 281.137875 
L 348.914125 279.043234 
L 352.39011 282.089985 
L 355.866096 277.900702 
L 359.342081 280.947453 
L 362.818066 278.852812 
L 366.294051 268.379603 
L 369.770037 275.234794 
L 373.246022 272.378465 
L 376.722007 268.950869 
L 380.197993 271.807199 
L 383.673978 273.90184 
L 390.625949 273.140153 
L 394.101934 267.427493 
L 397.577919 275.615638 
L 401.053904 276.567748 
L 404.52989 273.520997 
L 408.005875 279.804922 
L 411.48186 274.282684 
L 414.957846 272.568887 
L 418.433831 273.330575 
L 421.909816 276.75817 
L 425.385801 276.567748 
L 428.861787 273.140153 
L 432.337772 278.281546 
L 435.813757 281.137875 
L 439.289743 278.852812 
L 442.765728 279.233656 
L 446.241713 279.995344 
L 449.717698 278.091124 
L 453.193684 279.995344 
L 456.669669 280.376188 
L 460.145654 286.660113 
L 463.62164 306.273576 
L 467.097625 314.842565 
L 470.57361 315.985097 
L 474.049595 316.175519 
L 477.525581 316.937207 
L 481.001566 319.603114 
L 484.477551 320.364802 
L 487.953537 326.458305 
L 491.429522 345.690925 
L 494.905507 351.403584 
L 498.381492 356.354555 
L 501.857478 356.925821 
L 505.333463 357.116243 
L 508.809448 357.687509 
L 512.285434 356.544977 
L 515.761419 357.497087 
L 519.237404 357.497087 
L 522.713389 357.687509 
L 526.189375 357.687509 
L 529.66536 357.306665 
L 533.141345 357.687509 
L 550.521272 357.687509 
L 553.997257 357.497087 
L 557.473242 357.497087 
L 560.949228 357.687509 
L 564.425213 356.925821 
L 567.901198 357.687509 
L 571.377183 357.687509 
L 574.853169 357.306665 
L 578.329154 357.687509 
L 585.281125 357.687509 
L 588.75711 357.497087 
L 592.233095 357.116243 
L 595.70908 357.687509 
L 613.089007 357.687509 
L 616.564992 357.306665 
L 623.516963 357.687509 
L 626.992948 357.687509 
L 630.468933 357.116243 
L 633.944919 357.687509 
L 651.324845 357.687509 
L 654.80083 356.544977 
L 658.276816 357.306665 
L 661.752801 357.687509 
L 679.132727 357.687509 
L 679.132727 357.687509 
" clip-path="url(#pcc2851b9dd)" style="fill: none; stroke: #1f77b4; stroke-width: 1.5; stroke-linecap: square"/>
   </g>
   <g id="patch_3">
    <path d="M 47.72 390.04 
L 47.72 13.487717 
" style="fill: none; stroke: #000000; stroke-width: 0.8; stroke-linejoin: miter; stroke-linecap: square"/>
   </g>
   <g id="patch_4">
    <path d="M 709.2 390.04 
L 709.2 13.487717 
" style="fill: none; stroke: #000000; stroke-width: 0.8; stroke-linejoin: miter; stroke-linecap: square"/>
   </g>
   <g id="patch_5">
    <path d="M 47.72 390.04 
L 709.2 390.04 
" style="fill: none; stroke: #000000; stroke-width: 0.8; stroke-linejoin: miter; stroke-linecap: square"/>
   </g>
   <g id="patch_6">
    <path d="M 47.72 13.487717 
L 709.2 13.487717 
" style="fill: none; stroke: #000000; stroke-width: 0.8; stroke-linejoin: miter; stroke-linecap: square"/>
   </g>
  </g>
 </g>
 <defs>
  <clipPath id="pcc2851b9dd">
   <rect x="47.72" y="13.487717" width="661.48" height="376.552283"/>
  </clipPath>
 </defs>
</svg>
