<?xml version="1.0" encoding="utf-8" standalone="no"?>
<!DOCTYPE svg PUBLIC "-//W3C//DTD SVG 1.1//EN"
  "http://www.w3.org/Graphics/SVG/1.1/DTD/svg11.dtd">
<svg xmlns:xlink="http://www.w3.org/1999/xlink" width="720pt" height="432pt" viewBox="0 0 720 432" xmlns="http://www.w3.org/2000/svg" version="1.1">
 <metadata>
  <rdf:RDF xmlns:dc="http://purl.org/dc/elements/1.1/" xmlns:cc="http://creativecommons.org/ns#" xmlns:rdf="http://www.w3.org/1999/02/22-rdf-syntax-ns#">
   <cc:Work>
    <dc:type rdf:resource="http://purl.org/dc/dcmitype/StillImage"/>
    <dc:date>2025-04-16T01:04:05.603480</dc:date>
    <dc:format>image/svg+xml</dc:format>
    <dc:creator>
     <cc:Agent>
      <dc:title>Matplotlib v3.10.0, https://matplotlib.org/</dc:title>
     </cc:Agent>
    </dc:creator>
   </cc:Work>
  </rdf:RDF>
 </metadata>
 <defs>
  <style type="text/css">*{stroke-linejoin: round; stroke-linecap: butt}</style>
 </defs>
 <g id="figure_1">
  <g id="patch_1">
   <path d="M 0 432 
L 720 432 
L 720 0 
L 0 0 
z
" style="fill: #ffffff"/>
  </g>
  <g id="axes_1">
   <g id="patch_2">
    <path d="M 47.72 390.04 
L 709.2 390.04 
L 709.2 14.395014 
L 47.72 14.395014 
z
" style="fill: #ffffff"/>
   </g>
   <g id="FillBetweenPolyCollection_1">
    <path d="M 77.787273 31.469786 
L 77.787273 225.746935 
L 81.263258 233.429055 
L 84.739243 243.275027 
L 88.215229 236.280237 
L 91.691214 226.042244 
L 95.167199 237.360536 
L 98.643184 258.189057 
L 102.11917 266.175571 
L 105.595155 271.522466 
L 109.07114 286.402809 
L 112.547126 284.848746 
L 116.023111 284.735014 
L 119.499096 285.900834 
L 122.975081 286.233511 
L 126.451067 287.366343 
L 129.927052 284.911241 
L 133.403037 285.55079 
L 136.879023 287.503324 
L 140.355008 286.738421 
L 143.830993 285.891598 
L 147.306978 287.211736 
L 150.782964 287.52535 
L 154.258949 285.652319 
L 157.734934 286.210306 
L 161.21092 286.065889 
L 164.686905 286.87767 
L 168.16289 286.847797 
L 171.638875 286.317415 
L 175.114861 286.787977 
L 178.590846 286.87767 
L 182.066831 286.867481 
L 185.542817 285.079743 
L 189.018802 285.921471 
L 192.494787 287.275956 
L 195.970772 286.374408 
L 199.446758 287.589569 
L 202.922743 286.150487 
L 206.398728 286.499142 
L 209.874714 286.578645 
L 213.350699 286.006069 
L 216.826684 286.578645 
L 220.302669 285.986385 
L 223.778655 286.434228 
L 227.25464 286.529015 
L 230.730625 286.374408 
L 234.206611 286.638465 
L 237.682596 287.226325 
L 241.158581 288.446581 
L 244.634566 286.690848 
L 248.110552 286.578645 
L 251.586537 286.807661 
L 255.062522 285.219066 
L 258.538508 285.194288 
L 262.014493 286.299999 
L 265.490478 285.254108 
L 268.966463 286.000974 
L 272.442449 286.703379 
L 275.918434 285.712139 
L 279.394419 286.265032 
L 282.870405 286.207964 
L 286.34639 286.459006 
L 289.822375 286.917037 
L 293.29836 287.011899 
L 296.774346 286.4641 
L 300.250331 286.638465 
L 303.726316 286.752936 
L 307.202302 286.494047 
L 310.678287 287.55226 
L 314.154272 286.673507 
L 317.630257 287.300734 
L 321.106243 286.758105 
L 324.582228 289.561861 
L 328.058213 291.215371 
L 331.534199 316.473116 
L 335.010184 337.124852 
L 338.486169 341.617085 
L 341.962154 342.184567 
L 345.43814 343.997083 
L 348.914125 343.339909 
L 352.39011 344.92341 
L 355.866096 343.295373 
L 359.342081 344.201321 
L 362.818066 344.376306 
L 366.294051 343.860873 
L 369.770037 343.190728 
L 373.246022 343.324292 
L 376.722007 344.364345 
L 380.197993 344.216271 
L 383.673978 344.634241 
L 387.149963 344.602235 
L 390.625949 344.612424 
L 394.101934 344.678653 
L 397.577919 344.571668 
L 401.053904 344.556385 
L 404.52989 344.407567 
L 408.005875 344.557823 
L 411.48186 344.586952 
L 414.957846 344.111295 
L 418.433831 344.303211 
L 421.909816 344.112943 
L 425.385801 344.556385 
L 428.861787 344.602235 
L 432.337772 344.236982 
L 435.813757 344.495251 
L 439.289743 344.525818 
L 442.765728 344.520723 
L 446.241713 344.510534 
L 449.717698 344.536007 
L 453.193684 344.510534 
L 456.669669 344.50544 
L 460.145654 348.832877 
L 463.62164 365.246943 
L 467.097625 370.7545 
L 470.57361 370.629766 
L 474.049595 371.854907 
L 477.525581 371.70051 
L 481.001566 372.965228 
L 484.477551 372.725949 
L 487.953537 371.160371 
L 491.429522 365.178393 
L 494.905507 363.383799 
L 498.381492 361.828485 
L 501.857478 361.649025 
L 505.333463 361.589206 
L 508.809448 361.409746 
L 512.285434 361.708845 
L 515.761419 361.469566 
L 519.237404 361.469566 
L 522.713389 361.469566 
L 526.189375 361.409746 
L 529.66536 361.529386 
L 533.141345 361.409746 
L 536.617331 361.409746 
L 540.093316 361.409746 
L 543.569301 361.409746 
L 547.045286 361.409746 
L 550.521272 361.409746 
L 553.997257 361.469566 
L 557.473242 361.469566 
L 560.949228 361.469566 
L 564.425213 361.649025 
L 567.901198 361.409746 
L 571.377183 361.529386 
L 574.853169 361.649025 
L 578.329154 361.409746 
L 581.805139 361.409746 
L 585.281125 361.589206 
L 588.75711 361.469566 
L 592.233095 361.589206 
L 595.70908 361.469566 
L 599.185066 361.409746 
L 602.661051 361.409746 
L 606.137036 361.409746 
L 609.613022 361.409746 
L 613.089007 361.409746 
L 616.564992 361.649025 
L 620.040977 361.529386 
L 623.516963 361.469566 
L 626.992948 361.409746 
L 630.468933 361.589206 
L 633.944919 361.409746 
L 637.420904 361.409746 
L 640.896889 361.409746 
L 644.372874 361.469566 
L 647.84886 361.409746 
L 651.324845 361.409746 
L 654.80083 361.768665 
L 658.276816 361.529386 
L 661.752801 361.409746 
L 665.228786 361.409746 
L 668.704771 361.409746 
L 672.180757 361.409746 
L 675.656742 361.409746 
L 679.132727 361.409746 
L 679.132727 361.409746 
L 679.132727 361.409746 
L 675.656742 361.409746 
L 672.180757 361.409746 
L 668.704771 361.409746 
L 665.228786 361.409746 
L 661.752801 361.409746 
L 658.276816 360.712436 
L 654.80083 359.317815 
L 651.324845 361.409746 
L 647.84886 361.409746 
L 644.372874 361.061091 
L 640.896889 361.409746 
L 637.420904 361.409746 
L 633.944919 361.409746 
L 630.468933 360.36378 
L 626.992948 361.409746 
L 623.516963 361.061091 
L 620.040977 360.712436 
L 616.564992 360.015125 
L 613.089007 361.409746 
L 609.613022 361.409746 
L 606.137036 361.409746 
L 602.661051 361.409746 
L 599.185066 361.409746 
L 595.70908 361.061091 
L 592.233095 360.36378 
L 588.75711 361.061091 
L 585.281125 360.36378 
L 581.805139 361.409746 
L 578.329154 361.409746 
L 574.853169 360.015125 
L 571.377183 360.712436 
L 567.901198 361.409746 
L 564.425213 360.015125 
L 560.949228 361.061091 
L 557.473242 361.061091 
L 553.997257 361.061091 
L 550.521272 361.409746 
L 547.045286 361.409746 
L 543.569301 361.409746 
L 540.093316 361.409746 
L 536.617331 361.409746 
L 533.141345 361.409746 
L 529.66536 360.712436 
L 526.189375 361.409746 
L 522.713389 361.061091 
L 519.237404 361.061091 
L 515.761419 361.061091 
L 512.285434 359.66647 
L 508.809448 361.409746 
L 505.333463 360.36378 
L 501.857478 360.015125 
L 498.381492 358.969159 
L 494.905507 349.904123 
L 491.429522 339.444465 
L 487.953537 304.57894 
L 484.477551 293.481792 
L 481.001566 292.087171 
L 477.525581 289.597028 
L 474.049595 287.998454 
L 470.57361 288.934759 
L 467.097625 287.943519 
L 463.62164 281.319987 
L 460.145654 266.539822 
L 456.669669 261.91336 
L 453.193684 261.61943 
L 449.717698 260.14978 
L 446.241713 261.61943 
L 442.765728 261.03157 
L 439.289743 260.73764 
L 435.813757 262.50122 
L 432.337772 260.448804 
L 428.861787 256.32869 
L 425.385801 258.97406 
L 421.909816 259.128667 
L 418.433831 256.627715 
L 414.957846 255.953124 
L 411.48186 257.21048 
L 408.005875 260.99447 
L 404.52989 256.812194 
L 401.053904 258.97406 
L 397.577919 258.09227 
L 394.101934 251.919741 
L 390.625949 255.74083 
L 387.149963 256.32869 
L 383.673978 256.585521 
L 380.197993 255.270477 
L 376.722007 253.100555 
L 373.246022 255.873621 
L 369.770037 257.740198 
L 366.294051 252.448685 
L 362.818066 260.887152 
L 359.342081 262.506314 
L 355.866096 260.812743 
L 352.39011 263.228403 
L 348.914125 261.345878 
L 345.43814 262.710552 
L 341.962154 260.190536 
L 338.486169 259.025005 
L 335.010184 255.429845 
L 331.534199 234.778109 
L 328.058213 207.178964 
L 324.582228 206.232955 
L 321.106243 203.837673 
L 317.630257 205.605727 
L 314.154272 203.3446 
L 310.678287 204.77653 
L 307.202302 204.390566 
L 303.726316 205.575855 
L 300.250331 204.534983 
L 296.774346 205.287019 
L 293.29836 205.316892 
L 289.822375 206.855931 
L 286.34639 205.580949 
L 282.870405 202.943636 
L 279.394419 203.753075 
L 275.918434 204.017132 
L 272.442449 203.892398 
L 268.966463 204.305968 
L 265.490478 202.742151 
L 262.014493 204.006943 
L 258.538508 203.090806 
L 255.062522 203.932534 
L 251.586537 205.521129 
L 248.110552 204.883639 
L 244.634566 203.616094 
L 241.158581 205.037551 
L 237.682596 204.524794 
L 234.206611 204.534983 
L 230.730625 205.087876 
L 227.25464 204.644434 
L 223.778655 204.739221 
L 220.302669 202.87638 
L 216.826684 204.883639 
L 213.350699 204.012038 
L 209.874714 204.883639 
L 206.398728 204.096636 
L 202.922743 204.156455 
L 199.446758 205.894563 
L 195.970772 205.087876 
L 192.494787 204.763999 
L 189.018802 203.518965 
L 185.542817 203.494187 
L 182.066831 205.172474 
L 178.590846 204.584614 
L 175.114861 204.385471 
L 171.638875 202.834185 
L 168.16289 204.036816 
L 164.686905 204.584614 
L 161.21092 203.663382 
L 157.734934 203.8078 
L 154.258949 204.365787 
L 150.782964 204.22577 
L 147.306978 203.095206 
L 143.830993 202.971166 
L 140.355008 202.702015 
L 136.879023 202.225947 
L 133.403037 201.578962 
L 129.927052 200.196663 
L 126.451067 202.651764 
L 122.975081 200.029734 
L 119.499096 196.896386 
L 116.023111 193.440838 
L 112.547126 180.329511 
L 109.07114 170.399219 
L 105.595155 131.845001 
L 102.11917 100.220957 
L 98.643184 90.299672 
L 95.167199 68.958214 
L 91.691214 57.458504 
L 88.215229 48.664689 
L 84.739243 46.868937 
L 81.263258 36.207591 
L 77.787273 31.469786 
z
" clip-path="url(#p4a1e0d42b9)" style="fill: #1f77b4; fill-opacity: 0.2"/>
   </g>
   <g id="matplotlib.axis_1">
    <g id="xtick_1">
     <g id="line2d_1">
      <path d="M 76.0319 390.04 
L 76.0319 14.395014 
" clip-path="url(#p4a1e0d42b9)" style="fill: none; stroke: #b0b0b0; stroke-width: 0.8; stroke-linecap: square"/>
     </g>
     <g id="line2d_2">
      <defs>
       <path id="m9bfa2b96e1" d="M 0 0 
L 0 3.5 
" style="stroke: #000000; stroke-width: 0.8"/>
      </defs>
      <g>
       <use xlink:href="#m9bfa2b96e1" x="76.0319" y="390.04" style="stroke: #000000; stroke-width: 0.8"/>
      </g>
     </g>
     <g id="text_1">
      <!-- 0 -->
      <g transform="translate(72.85065 404.638438) scale(0.1 -0.1)">
       <defs>
        <path id="DejaVuSans-30" d="M 2034 4250 
Q 1547 4250 1301 3770 
Q 1056 3291 1056 2328 
Q 1056 1369 1301 889 
Q 1547 409 2034 409 
Q 2525 409 2770 889 
Q 3016 1369 3016 2328 
Q 3016 3291 2770 3770 
Q 2525 4250 2034 4250 
z
M 2034 4750 
Q 2819 4750 3233 4129 
Q 3647 3509 3647 2328 
Q 3647 1150 3233 529 
Q 2819 -91 2034 -91 
Q 1250 -91 836 529 
Q 422 1150 422 2328 
Q 422 3509 836 4129 
Q 1250 4750 2034 4750 
z
" transform="scale(0.015625)"/>
       </defs>
       <use xlink:href="#DejaVuSans-30"/>
      </g>
     </g>
    </g>
    <g id="xtick_2">
     <g id="line2d_3">
      <path d="M 162.931532 390.04 
L 162.931532 14.395014 
" clip-path="url(#p4a1e0d42b9)" style="fill: none; stroke: #b0b0b0; stroke-width: 0.8; stroke-linecap: square"/>
     </g>
     <g id="line2d_4">
      <g>
       <use xlink:href="#m9bfa2b96e1" x="162.931532" y="390.04" style="stroke: #000000; stroke-width: 0.8"/>
      </g>
     </g>
     <g id="text_2">
      <!-- 5000 -->
      <g transform="translate(150.206532 404.638438) scale(0.1 -0.1)">
       <defs>
        <path id="DejaVuSans-35" d="M 691 4666 
L 3169 4666 
L 3169 4134 
L 1269 4134 
L 1269 2991 
Q 1406 3038 1543 3061 
Q 1681 3084 1819 3084 
Q 2600 3084 3056 2656 
Q 3513 2228 3513 1497 
Q 3513 744 3044 326 
Q 2575 -91 1722 -91 
Q 1428 -91 1123 -41 
Q 819 9 494 109 
L 494 744 
Q 775 591 1075 516 
Q 1375 441 1709 441 
Q 2250 441 2565 725 
Q 2881 1009 2881 1497 
Q 2881 1984 2565 2268 
Q 2250 2553 1709 2553 
Q 1456 2553 1204 2497 
Q 953 2441 691 2322 
L 691 4666 
z
" transform="scale(0.015625)"/>
       </defs>
       <use xlink:href="#DejaVuSans-35"/>
       <use xlink:href="#DejaVuSans-30" transform="translate(63.623047 0)"/>
       <use xlink:href="#DejaVuSans-30" transform="translate(127.246094 0)"/>
       <use xlink:href="#DejaVuSans-30" transform="translate(190.869141 0)"/>
      </g>
     </g>
    </g>
    <g id="xtick_3">
     <g id="line2d_5">
      <path d="M 249.831164 390.04 
L 249.831164 14.395014 
" clip-path="url(#p4a1e0d42b9)" style="fill: none; stroke: #b0b0b0; stroke-width: 0.8; stroke-linecap: square"/>
     </g>
     <g id="line2d_6">
      <g>
       <use xlink:href="#m9bfa2b96e1" x="249.831164" y="390.04" style="stroke: #000000; stroke-width: 0.8"/>
      </g>
     </g>
     <g id="text_3">
      <!-- 10000 -->
      <g transform="translate(233.924914 404.638438) scale(0.1 -0.1)">
       <defs>
        <path id="DejaVuSans-31" d="M 794 531 
L 1825 531 
L 1825 4091 
L 703 3866 
L 703 4441 
L 1819 4666 
L 2450 4666 
L 2450 531 
L 3481 531 
L 3481 0 
L 794 0 
L 794 531 
z
" transform="scale(0.015625)"/>
       </defs>
       <use xlink:href="#DejaVuSans-31"/>
       <use xlink:href="#DejaVuSans-30" transform="translate(63.623047 0)"/>
       <use xlink:href="#DejaVuSans-30" transform="translate(127.246094 0)"/>
       <use xlink:href="#DejaVuSans-30" transform="translate(190.869141 0)"/>
       <use xlink:href="#DejaVuSans-30" transform="translate(254.492188 0)"/>
      </g>
     </g>
    </g>
    <g id="xtick_4">
     <g id="line2d_7">
      <path d="M 336.730797 390.04 
L 336.730797 14.395014 
" clip-path="url(#p4a1e0d42b9)" style="fill: none; stroke: #b0b0b0; stroke-width: 0.8; stroke-linecap: square"/>
     </g>
     <g id="line2d_8">
      <g>
       <use xlink:href="#m9bfa2b96e1" x="336.730797" y="390.04" style="stroke: #000000; stroke-width: 0.8"/>
      </g>
     </g>
     <g id="text_4">
      <!-- 15000 -->
      <g transform="translate(320.824547 404.638438) scale(0.1 -0.1)">
       <use xlink:href="#DejaVuSans-31"/>
       <use xlink:href="#DejaVuSans-35" transform="translate(63.623047 0)"/>
       <use xlink:href="#DejaVuSans-30" transform="translate(127.246094 0)"/>
       <use xlink:href="#DejaVuSans-30" transform="translate(190.869141 0)"/>
       <use xlink:href="#DejaVuSans-30" transform="translate(254.492188 0)"/>
      </g>
     </g>
    </g>
    <g id="xtick_5">
     <g id="line2d_9">
      <path d="M 423.630429 390.04 
L 423.630429 14.395014 
" clip-path="url(#p4a1e0d42b9)" style="fill: none; stroke: #b0b0b0; stroke-width: 0.8; stroke-linecap: square"/>
     </g>
     <g id="line2d_10">
      <g>
       <use xlink:href="#m9bfa2b96e1" x="423.630429" y="390.04" style="stroke: #000000; stroke-width: 0.8"/>
      </g>
     </g>
     <g id="text_5">
      <!-- 20000 -->
      <g transform="translate(407.724179 404.638438) scale(0.1 -0.1)">
       <defs>
        <path id="DejaVuSans-32" d="M 1228 531 
L 3431 531 
L 3431 0 
L 469 0 
L 469 531 
Q 828 903 1448 1529 
Q 2069 2156 2228 2338 
Q 2531 2678 2651 2914 
Q 2772 3150 2772 3378 
Q 2772 3750 2511 3984 
Q 2250 4219 1831 4219 
Q 1534 4219 1204 4116 
Q 875 4013 500 3803 
L 500 4441 
Q 881 4594 1212 4672 
Q 1544 4750 1819 4750 
Q 2544 4750 2975 4387 
Q 3406 4025 3406 3419 
Q 3406 3131 3298 2873 
Q 3191 2616 2906 2266 
Q 2828 2175 2409 1742 
Q 1991 1309 1228 531 
z
" transform="scale(0.015625)"/>
       </defs>
       <use xlink:href="#DejaVuSans-32"/>
       <use xlink:href="#DejaVuSans-30" transform="translate(63.623047 0)"/>
       <use xlink:href="#DejaVuSans-30" transform="translate(127.246094 0)"/>
       <use xlink:href="#DejaVuSans-30" transform="translate(190.869141 0)"/>
       <use xlink:href="#DejaVuSans-30" transform="translate(254.492188 0)"/>
      </g>
     </g>
    </g>
    <g id="xtick_6">
     <g id="line2d_11">
      <path d="M 510.530061 390.04 
L 510.530061 14.395014 
" clip-path="url(#p4a1e0d42b9)" style="fill: none; stroke: #b0b0b0; stroke-width: 0.8; stroke-linecap: square"/>
     </g>
     <g id="line2d_12">
      <g>
       <use xlink:href="#m9bfa2b96e1" x="510.530061" y="390.04" style="stroke: #000000; stroke-width: 0.8"/>
      </g>
     </g>
     <g id="text_6">
      <!-- 25000 -->
      <g transform="translate(494.623811 404.638438) scale(0.1 -0.1)">
       <use xlink:href="#DejaVuSans-32"/>
       <use xlink:href="#DejaVuSans-35" transform="translate(63.623047 0)"/>
       <use xlink:href="#DejaVuSans-30" transform="translate(127.246094 0)"/>
       <use xlink:href="#DejaVuSans-30" transform="translate(190.869141 0)"/>
       <use xlink:href="#DejaVuSans-30" transform="translate(254.492188 0)"/>
      </g>
     </g>
    </g>
    <g id="xtick_7">
     <g id="line2d_13">
      <path d="M 597.429693 390.04 
L 597.429693 14.395014 
" clip-path="url(#p4a1e0d42b9)" style="fill: none; stroke: #b0b0b0; stroke-width: 0.8; stroke-linecap: square"/>
     </g>
     <g id="line2d_14">
      <g>
       <use xlink:href="#m9bfa2b96e1" x="597.429693" y="390.04" style="stroke: #000000; stroke-width: 0.8"/>
      </g>
     </g>
     <g id="text_7">
      <!-- 30000 -->
      <g transform="translate(581.523443 404.638438) scale(0.1 -0.1)">
       <defs>
        <path id="DejaVuSans-33" d="M 2597 2516 
Q 3050 2419 3304 2112 
Q 3559 1806 3559 1356 
Q 3559 666 3084 287 
Q 2609 -91 1734 -91 
Q 1441 -91 1130 -33 
Q 819 25 488 141 
L 488 750 
Q 750 597 1062 519 
Q 1375 441 1716 441 
Q 2309 441 2620 675 
Q 2931 909 2931 1356 
Q 2931 1769 2642 2001 
Q 2353 2234 1838 2234 
L 1294 2234 
L 1294 2753 
L 1863 2753 
Q 2328 2753 2575 2939 
Q 2822 3125 2822 3475 
Q 2822 3834 2567 4026 
Q 2313 4219 1838 4219 
Q 1578 4219 1281 4162 
Q 984 4106 628 3988 
L 628 4550 
Q 988 4650 1302 4700 
Q 1616 4750 1894 4750 
Q 2613 4750 3031 4423 
Q 3450 4097 3450 3541 
Q 3450 3153 3228 2886 
Q 3006 2619 2597 2516 
z
" transform="scale(0.015625)"/>
       </defs>
       <use xlink:href="#DejaVuSans-33"/>
       <use xlink:href="#DejaVuSans-30" transform="translate(63.623047 0)"/>
       <use xlink:href="#DejaVuSans-30" transform="translate(127.246094 0)"/>
       <use xlink:href="#DejaVuSans-30" transform="translate(190.869141 0)"/>
       <use xlink:href="#DejaVuSans-30" transform="translate(254.492188 0)"/>
      </g>
     </g>
    </g>
    <g id="xtick_8">
     <g id="line2d_15">
      <path d="M 684.329325 390.04 
L 684.329325 14.395014 
" clip-path="url(#p4a1e0d42b9)" style="fill: none; stroke: #b0b0b0; stroke-width: 0.8; stroke-linecap: square"/>
     </g>
     <g id="line2d_16">
      <g>
       <use xlink:href="#m9bfa2b96e1" x="684.329325" y="390.04" style="stroke: #000000; stroke-width: 0.8"/>
      </g>
     </g>
     <g id="text_8">
      <!-- 35000 -->
      <g transform="translate(668.423075 404.638438) scale(0.1 -0.1)">
       <use xlink:href="#DejaVuSans-33"/>
       <use xlink:href="#DejaVuSans-35" transform="translate(63.623047 0)"/>
       <use xlink:href="#DejaVuSans-30" transform="translate(127.246094 0)"/>
       <use xlink:href="#DejaVuSans-30" transform="translate(190.869141 0)"/>
       <use xlink:href="#DejaVuSans-30" transform="translate(254.492188 0)"/>
      </g>
     </g>
    </g>
    <g id="text_9">
     <!-- Episodes -->
     <g transform="translate(356.217813 418.316562) scale(0.1 -0.1)">
      <defs>
       <path id="DejaVuSans-45" d="M 628 4666 
L 3578 4666 
L 3578 4134 
L 1259 4134 
L 1259 2753 
L 3481 2753 
L 3481 2222 
L 1259 2222 
L 1259 531 
L 3634 531 
L 3634 0 
L 628 0 
L 628 4666 
z
" transform="scale(0.015625)"/>
       <path id="DejaVuSans-70" d="M 1159 525 
L 1159 -1331 
L 581 -1331 
L 581 3500 
L 1159 3500 
L 1159 2969 
Q 1341 3281 1617 3432 
Q 1894 3584 2278 3584 
Q 2916 3584 3314 3078 
Q 3713 2572 3713 1747 
Q 3713 922 3314 415 
Q 2916 -91 2278 -91 
Q 1894 -91 1617 61 
Q 1341 213 1159 525 
z
M 3116 1747 
Q 3116 2381 2855 2742 
Q 2594 3103 2138 3103 
Q 1681 3103 1420 2742 
Q 1159 2381 1159 1747 
Q 1159 1113 1420 752 
Q 1681 391 2138 391 
Q 2594 391 2855 752 
Q 3116 1113 3116 1747 
z
" transform="scale(0.015625)"/>
       <path id="DejaVuSans-69" d="M 603 3500 
L 1178 3500 
L 1178 0 
L 603 0 
L 603 3500 
z
M 603 4863 
L 1178 4863 
L 1178 4134 
L 603 4134 
L 603 4863 
z
" transform="scale(0.015625)"/>
       <path id="DejaVuSans-73" d="M 2834 3397 
L 2834 2853 
Q 2591 2978 2328 3040 
Q 2066 3103 1784 3103 
Q 1356 3103 1142 2972 
Q 928 2841 928 2578 
Q 928 2378 1081 2264 
Q 1234 2150 1697 2047 
L 1894 2003 
Q 2506 1872 2764 1633 
Q 3022 1394 3022 966 
Q 3022 478 2636 193 
Q 2250 -91 1575 -91 
Q 1294 -91 989 -36 
Q 684 19 347 128 
L 347 722 
Q 666 556 975 473 
Q 1284 391 1588 391 
Q 1994 391 2212 530 
Q 2431 669 2431 922 
Q 2431 1156 2273 1281 
Q 2116 1406 1581 1522 
L 1381 1569 
Q 847 1681 609 1914 
Q 372 2147 372 2553 
Q 372 3047 722 3315 
Q 1072 3584 1716 3584 
Q 2034 3584 2315 3537 
Q 2597 3491 2834 3397 
z
" transform="scale(0.015625)"/>
       <path id="DejaVuSans-6f" d="M 1959 3097 
Q 1497 3097 1228 2736 
Q 959 2375 959 1747 
Q 959 1119 1226 758 
Q 1494 397 1959 397 
Q 2419 397 2687 759 
Q 2956 1122 2956 1747 
Q 2956 2369 2687 2733 
Q 2419 3097 1959 3097 
z
M 1959 3584 
Q 2709 3584 3137 3096 
Q 3566 2609 3566 1747 
Q 3566 888 3137 398 
Q 2709 -91 1959 -91 
Q 1206 -91 779 398 
Q 353 888 353 1747 
Q 353 2609 779 3096 
Q 1206 3584 1959 3584 
z
" transform="scale(0.015625)"/>
       <path id="DejaVuSans-64" d="M 2906 2969 
L 2906 4863 
L 3481 4863 
L 3481 0 
L 2906 0 
L 2906 525 
Q 2725 213 2448 61 
Q 2172 -91 1784 -91 
Q 1150 -91 751 415 
Q 353 922 353 1747 
Q 353 2572 751 3078 
Q 1150 3584 1784 3584 
Q 2172 3584 2448 3432 
Q 2725 3281 2906 2969 
z
M 947 1747 
Q 947 1113 1208 752 
Q 1469 391 1925 391 
Q 2381 391 2643 752 
Q 2906 1113 2906 1747 
Q 2906 2381 2643 2742 
Q 2381 3103 1925 3103 
Q 1469 3103 1208 2742 
Q 947 2381 947 1747 
z
" transform="scale(0.015625)"/>
       <path id="DejaVuSans-65" d="M 3597 1894 
L 3597 1613 
L 953 1613 
Q 991 1019 1311 708 
Q 1631 397 2203 397 
Q 2534 397 2845 478 
Q 3156 559 3463 722 
L 3463 178 
Q 3153 47 2828 -22 
Q 2503 -91 2169 -91 
Q 1331 -91 842 396 
Q 353 884 353 1716 
Q 353 2575 817 3079 
Q 1281 3584 2069 3584 
Q 2775 3584 3186 3129 
Q 3597 2675 3597 1894 
z
M 3022 2063 
Q 3016 2534 2758 2815 
Q 2500 3097 2075 3097 
Q 1594 3097 1305 2825 
Q 1016 2553 972 2059 
L 3022 2063 
z
" transform="scale(0.015625)"/>
      </defs>
      <use xlink:href="#DejaVuSans-45"/>
      <use xlink:href="#DejaVuSans-70" transform="translate(63.183594 0)"/>
      <use xlink:href="#DejaVuSans-69" transform="translate(126.660156 0)"/>
      <use xlink:href="#DejaVuSans-73" transform="translate(154.443359 0)"/>
      <use xlink:href="#DejaVuSans-6f" transform="translate(206.542969 0)"/>
      <use xlink:href="#DejaVuSans-64" transform="translate(267.724609 0)"/>
      <use xlink:href="#DejaVuSans-65" transform="translate(331.201172 0)"/>
      <use xlink:href="#DejaVuSans-73" transform="translate(392.724609 0)"/>
     </g>
    </g>
   </g>
   <g id="matplotlib.axis_2">
    <g id="ytick_1">
     <g id="line2d_17">
      <path d="M 47.72 361.409746 
L 709.2 361.409746 
" clip-path="url(#p4a1e0d42b9)" style="fill: none; stroke: #b0b0b0; stroke-width: 0.8; stroke-linecap: square"/>
     </g>
     <g id="line2d_18">
      <defs>
       <path id="m0e85d246ab" d="M 0 0 
L -3.5 0 
" style="stroke: #000000; stroke-width: 0.8"/>
      </defs>
      <g>
       <use xlink:href="#m0e85d246ab" x="47.72" y="361.409746" style="stroke: #000000; stroke-width: 0.8"/>
      </g>
     </g>
     <g id="text_10">
      <!-- 2.0 -->
      <g transform="translate(24.816875 365.208965) scale(0.1 -0.1)">
       <defs>
        <path id="DejaVuSans-2e" d="M 684 794 
L 1344 794 
L 1344 0 
L 684 0 
L 684 794 
z
" transform="scale(0.015625)"/>
       </defs>
       <use xlink:href="#DejaVuSans-32"/>
       <use xlink:href="#DejaVuSans-2e" transform="translate(63.623047 0)"/>
       <use xlink:href="#DejaVuSans-30" transform="translate(95.410156 0)"/>
      </g>
     </g>
    </g>
    <g id="ytick_2">
     <g id="line2d_19">
      <path d="M 47.72 318.084426 
L 709.2 318.084426 
" clip-path="url(#p4a1e0d42b9)" style="fill: none; stroke: #b0b0b0; stroke-width: 0.8; stroke-linecap: square"/>
     </g>
     <g id="line2d_20">
      <g>
       <use xlink:href="#m0e85d246ab" x="47.72" y="318.084426" style="stroke: #000000; stroke-width: 0.8"/>
      </g>
     </g>
     <g id="text_11">
      <!-- 2.5 -->
      <g transform="translate(24.816875 321.883645) scale(0.1 -0.1)">
       <use xlink:href="#DejaVuSans-32"/>
       <use xlink:href="#DejaVuSans-2e" transform="translate(63.623047 0)"/>
       <use xlink:href="#DejaVuSans-35" transform="translate(95.410156 0)"/>
      </g>
     </g>
    </g>
    <g id="ytick_3">
     <g id="line2d_21">
      <path d="M 47.72 274.759106 
L 709.2 274.759106 
" clip-path="url(#p4a1e0d42b9)" style="fill: none; stroke: #b0b0b0; stroke-width: 0.8; stroke-linecap: square"/>
     </g>
     <g id="line2d_22">
      <g>
       <use xlink:href="#m0e85d246ab" x="47.72" y="274.759106" style="stroke: #000000; stroke-width: 0.8"/>
      </g>
     </g>
     <g id="text_12">
      <!-- 3.0 -->
      <g transform="translate(24.816875 278.558325) scale(0.1 -0.1)">
       <use xlink:href="#DejaVuSans-33"/>
       <use xlink:href="#DejaVuSans-2e" transform="translate(63.623047 0)"/>
       <use xlink:href="#DejaVuSans-30" transform="translate(95.410156 0)"/>
      </g>
     </g>
    </g>
    <g id="ytick_4">
     <g id="line2d_23">
      <path d="M 47.72 231.433786 
L 709.2 231.433786 
" clip-path="url(#p4a1e0d42b9)" style="fill: none; stroke: #b0b0b0; stroke-width: 0.8; stroke-linecap: square"/>
     </g>
     <g id="line2d_24">
      <g>
       <use xlink:href="#m0e85d246ab" x="47.72" y="231.433786" style="stroke: #000000; stroke-width: 0.8"/>
      </g>
     </g>
     <g id="text_13">
      <!-- 3.5 -->
      <g transform="translate(24.816875 235.233005) scale(0.1 -0.1)">
       <use xlink:href="#DejaVuSans-33"/>
       <use xlink:href="#DejaVuSans-2e" transform="translate(63.623047 0)"/>
       <use xlink:href="#DejaVuSans-35" transform="translate(95.410156 0)"/>
      </g>
     </g>
    </g>
    <g id="ytick_5">
     <g id="line2d_25">
      <path d="M 47.72 188.108466 
L 709.2 188.108466 
" clip-path="url(#p4a1e0d42b9)" style="fill: none; stroke: #b0b0b0; stroke-width: 0.8; stroke-linecap: square"/>
     </g>
     <g id="line2d_26">
      <g>
       <use xlink:href="#m0e85d246ab" x="47.72" y="188.108466" style="stroke: #000000; stroke-width: 0.8"/>
      </g>
     </g>
     <g id="text_14">
      <!-- 4.0 -->
      <g transform="translate(24.816875 191.907685) scale(0.1 -0.1)">
       <defs>
        <path id="DejaVuSans-34" d="M 2419 4116 
L 825 1625 
L 2419 1625 
L 2419 4116 
z
M 2253 4666 
L 3047 4666 
L 3047 1625 
L 3713 1625 
L 3713 1100 
L 3047 1100 
L 3047 0 
L 2419 0 
L 2419 1100 
L 313 1100 
L 313 1709 
L 2253 4666 
z
" transform="scale(0.015625)"/>
       </defs>
       <use xlink:href="#DejaVuSans-34"/>
       <use xlink:href="#DejaVuSans-2e" transform="translate(63.623047 0)"/>
       <use xlink:href="#DejaVuSans-30" transform="translate(95.410156 0)"/>
      </g>
     </g>
    </g>
    <g id="ytick_6">
     <g id="line2d_27">
      <path d="M 47.72 144.783147 
L 709.2 144.783147 
" clip-path="url(#p4a1e0d42b9)" style="fill: none; stroke: #b0b0b0; stroke-width: 0.8; stroke-linecap: square"/>
     </g>
     <g id="line2d_28">
      <g>
       <use xlink:href="#m0e85d246ab" x="47.72" y="144.783147" style="stroke: #000000; stroke-width: 0.8"/>
      </g>
     </g>
     <g id="text_15">
      <!-- 4.5 -->
      <g transform="translate(24.816875 148.582365) scale(0.1 -0.1)">
       <use xlink:href="#DejaVuSans-34"/>
       <use xlink:href="#DejaVuSans-2e" transform="translate(63.623047 0)"/>
       <use xlink:href="#DejaVuSans-35" transform="translate(95.410156 0)"/>
      </g>
     </g>
    </g>
    <g id="ytick_7">
     <g id="line2d_29">
      <path d="M 47.72 101.457827 
L 709.2 101.457827 
" clip-path="url(#p4a1e0d42b9)" style="fill: none; stroke: #b0b0b0; stroke-width: 0.8; stroke-linecap: square"/>
     </g>
     <g id="line2d_30">
      <g>
       <use xlink:href="#m0e85d246ab" x="47.72" y="101.457827" style="stroke: #000000; stroke-width: 0.8"/>
      </g>
     </g>
     <g id="text_16">
      <!-- 5.0 -->
      <g transform="translate(24.816875 105.257045) scale(0.1 -0.1)">
       <use xlink:href="#DejaVuSans-35"/>
       <use xlink:href="#DejaVuSans-2e" transform="translate(63.623047 0)"/>
       <use xlink:href="#DejaVuSans-30" transform="translate(95.410156 0)"/>
      </g>
     </g>
    </g>
    <g id="ytick_8">
     <g id="line2d_31">
      <path d="M 47.72 58.132507 
L 709.2 58.132507 
" clip-path="url(#p4a1e0d42b9)" style="fill: none; stroke: #b0b0b0; stroke-width: 0.8; stroke-linecap: square"/>
     </g>
     <g id="line2d_32">
      <g>
       <use xlink:href="#m0e85d246ab" x="47.72" y="58.132507" style="stroke: #000000; stroke-width: 0.8"/>
      </g>
     </g>
     <g id="text_17">
      <!-- 5.5 -->
      <g transform="translate(24.816875 61.931725) scale(0.1 -0.1)">
       <use xlink:href="#DejaVuSans-35"/>
       <use xlink:href="#DejaVuSans-2e" transform="translate(63.623047 0)"/>
       <use xlink:href="#DejaVuSans-35" transform="translate(95.410156 0)"/>
      </g>
     </g>
    </g>
    <g id="ytick_9">
     <g id="line2d_33">
      <path d="M 47.72 14.807187 
L 709.2 14.807187 
" clip-path="url(#p4a1e0d42b9)" style="fill: none; stroke: #b0b0b0; stroke-width: 0.8; stroke-linecap: square"/>
     </g>
     <g id="line2d_34">
      <g>
       <use xlink:href="#m0e85d246ab" x="47.72" y="14.807187" style="stroke: #000000; stroke-width: 0.8"/>
      </g>
     </g>
     <g id="text_18">
      <!-- 6.0 -->
      <g transform="translate(24.816875 18.606406) scale(0.1 -0.1)">
       <defs>
        <path id="DejaVuSans-36" d="M 2113 2584 
Q 1688 2584 1439 2293 
Q 1191 2003 1191 1497 
Q 1191 994 1439 701 
Q 1688 409 2113 409 
Q 2538 409 2786 701 
Q 3034 994 3034 1497 
Q 3034 2003 2786 2293 
Q 2538 2584 2113 2584 
z
M 3366 4563 
L 3366 3988 
Q 3128 4100 2886 4159 
Q 2644 4219 2406 4219 
Q 1781 4219 1451 3797 
Q 1122 3375 1075 2522 
Q 1259 2794 1537 2939 
Q 1816 3084 2150 3084 
Q 2853 3084 3261 2657 
Q 3669 2231 3669 1497 
Q 3669 778 3244 343 
Q 2819 -91 2113 -91 
Q 1303 -91 875 529 
Q 447 1150 447 2328 
Q 447 3434 972 4092 
Q 1497 4750 2381 4750 
Q 2619 4750 2861 4703 
Q 3103 4656 3366 4563 
z
" transform="scale(0.015625)"/>
       </defs>
       <use xlink:href="#DejaVuSans-36"/>
       <use xlink:href="#DejaVuSans-2e" transform="translate(63.623047 0)"/>
       <use xlink:href="#DejaVuSans-30" transform="translate(95.410156 0)"/>
      </g>
     </g>
    </g>
    <g id="text_19">
     <!-- Quantum Gates -->
     <g transform="translate(18.737188 241.722976) rotate(-90) scale(0.1 -0.1)">
      <defs>
       <path id="DejaVuSans-51" d="M 2522 4238 
Q 1834 4238 1429 3725 
Q 1025 3213 1025 2328 
Q 1025 1447 1429 934 
Q 1834 422 2522 422 
Q 3209 422 3611 934 
Q 4013 1447 4013 2328 
Q 4013 3213 3611 3725 
Q 3209 4238 2522 4238 
z
M 3406 84 
L 4238 -825 
L 3475 -825 
L 2784 -78 
Q 2681 -84 2626 -87 
Q 2572 -91 2522 -91 
Q 1538 -91 948 567 
Q 359 1225 359 2328 
Q 359 3434 948 4092 
Q 1538 4750 2522 4750 
Q 3503 4750 4090 4092 
Q 4678 3434 4678 2328 
Q 4678 1516 4351 937 
Q 4025 359 3406 84 
z
" transform="scale(0.015625)"/>
       <path id="DejaVuSans-75" d="M 544 1381 
L 544 3500 
L 1119 3500 
L 1119 1403 
Q 1119 906 1312 657 
Q 1506 409 1894 409 
Q 2359 409 2629 706 
Q 2900 1003 2900 1516 
L 2900 3500 
L 3475 3500 
L 3475 0 
L 2900 0 
L 2900 538 
Q 2691 219 2414 64 
Q 2138 -91 1772 -91 
Q 1169 -91 856 284 
Q 544 659 544 1381 
z
M 1991 3584 
L 1991 3584 
z
" transform="scale(0.015625)"/>
       <path id="DejaVuSans-61" d="M 2194 1759 
Q 1497 1759 1228 1600 
Q 959 1441 959 1056 
Q 959 750 1161 570 
Q 1363 391 1709 391 
Q 2188 391 2477 730 
Q 2766 1069 2766 1631 
L 2766 1759 
L 2194 1759 
z
M 3341 1997 
L 3341 0 
L 2766 0 
L 2766 531 
Q 2569 213 2275 61 
Q 1981 -91 1556 -91 
Q 1019 -91 701 211 
Q 384 513 384 1019 
Q 384 1609 779 1909 
Q 1175 2209 1959 2209 
L 2766 2209 
L 2766 2266 
Q 2766 2663 2505 2880 
Q 2244 3097 1772 3097 
Q 1472 3097 1187 3025 
Q 903 2953 641 2809 
L 641 3341 
Q 956 3463 1253 3523 
Q 1550 3584 1831 3584 
Q 2591 3584 2966 3190 
Q 3341 2797 3341 1997 
z
" transform="scale(0.015625)"/>
       <path id="DejaVuSans-6e" d="M 3513 2113 
L 3513 0 
L 2938 0 
L 2938 2094 
Q 2938 2591 2744 2837 
Q 2550 3084 2163 3084 
Q 1697 3084 1428 2787 
Q 1159 2491 1159 1978 
L 1159 0 
L 581 0 
L 581 3500 
L 1159 3500 
L 1159 2956 
Q 1366 3272 1645 3428 
Q 1925 3584 2291 3584 
Q 2894 3584 3203 3211 
Q 3513 2838 3513 2113 
z
" transform="scale(0.015625)"/>
       <path id="DejaVuSans-74" d="M 1172 4494 
L 1172 3500 
L 2356 3500 
L 2356 3053 
L 1172 3053 
L 1172 1153 
Q 1172 725 1289 603 
Q 1406 481 1766 481 
L 2356 481 
L 2356 0 
L 1766 0 
Q 1100 0 847 248 
Q 594 497 594 1153 
L 594 3053 
L 172 3053 
L 172 3500 
L 594 3500 
L 594 4494 
L 1172 4494 
z
" transform="scale(0.015625)"/>
       <path id="DejaVuSans-6d" d="M 3328 2828 
Q 3544 3216 3844 3400 
Q 4144 3584 4550 3584 
Q 5097 3584 5394 3201 
Q 5691 2819 5691 2113 
L 5691 0 
L 5113 0 
L 5113 2094 
Q 5113 2597 4934 2840 
Q 4756 3084 4391 3084 
Q 3944 3084 3684 2787 
Q 3425 2491 3425 1978 
L 3425 0 
L 2847 0 
L 2847 2094 
Q 2847 2600 2669 2842 
Q 2491 3084 2119 3084 
Q 1678 3084 1418 2786 
Q 1159 2488 1159 1978 
L 1159 0 
L 581 0 
L 581 3500 
L 1159 3500 
L 1159 2956 
Q 1356 3278 1631 3431 
Q 1906 3584 2284 3584 
Q 2666 3584 2933 3390 
Q 3200 3197 3328 2828 
z
" transform="scale(0.015625)"/>
       <path id="DejaVuSans-20" transform="scale(0.015625)"/>
       <path id="DejaVuSans-47" d="M 3809 666 
L 3809 1919 
L 2778 1919 
L 2778 2438 
L 4434 2438 
L 4434 434 
Q 4069 175 3628 42 
Q 3188 -91 2688 -91 
Q 1594 -91 976 548 
Q 359 1188 359 2328 
Q 359 3472 976 4111 
Q 1594 4750 2688 4750 
Q 3144 4750 3555 4637 
Q 3966 4525 4313 4306 
L 4313 3634 
Q 3963 3931 3569 4081 
Q 3175 4231 2741 4231 
Q 1884 4231 1454 3753 
Q 1025 3275 1025 2328 
Q 1025 1384 1454 906 
Q 1884 428 2741 428 
Q 3075 428 3337 486 
Q 3600 544 3809 666 
z
" transform="scale(0.015625)"/>
      </defs>
      <use xlink:href="#DejaVuSans-51"/>
      <use xlink:href="#DejaVuSans-75" transform="translate(78.710938 0)"/>
      <use xlink:href="#DejaVuSans-61" transform="translate(142.089844 0)"/>
      <use xlink:href="#DejaVuSans-6e" transform="translate(203.369141 0)"/>
      <use xlink:href="#DejaVuSans-74" transform="translate(266.748047 0)"/>
      <use xlink:href="#DejaVuSans-75" transform="translate(305.957031 0)"/>
      <use xlink:href="#DejaVuSans-6d" transform="translate(369.335938 0)"/>
      <use xlink:href="#DejaVuSans-20" transform="translate(466.748047 0)"/>
      <use xlink:href="#DejaVuSans-47" transform="translate(498.535156 0)"/>
      <use xlink:href="#DejaVuSans-61" transform="translate(576.025391 0)"/>
      <use xlink:href="#DejaVuSans-74" transform="translate(637.304688 0)"/>
      <use xlink:href="#DejaVuSans-65" transform="translate(676.513672 0)"/>
      <use xlink:href="#DejaVuSans-73" transform="translate(738.037109 0)"/>
     </g>
    </g>
   </g>
   <g id="line2d_35">
    <path d="M 77.787273 128.60836 
L 81.263258 134.818323 
L 84.739243 145.071982 
L 88.215229 142.472463 
L 91.691214 141.750374 
L 95.167199 153.159375 
L 98.643184 174.244364 
L 102.11917 183.198264 
L 105.595155 201.683733 
L 109.07114 228.401014 
L 112.547126 232.589128 
L 116.023111 239.087926 
L 119.499096 241.39861 
L 122.975081 243.131623 
L 126.451067 245.009053 
L 129.927052 242.553952 
L 133.403037 243.564876 
L 136.879023 244.864636 
L 140.355008 244.720218 
L 143.830993 244.431382 
L 150.782964 245.87556 
L 154.258949 245.009053 
L 157.734934 245.009053 
L 161.21092 244.864636 
L 164.686905 245.731142 
L 168.16289 245.442307 
L 171.638875 244.5758 
L 175.114861 245.586724 
L 178.590846 245.731142 
L 182.066831 246.019977 
L 185.542817 244.286965 
L 189.018802 244.720218 
L 192.494787 246.019977 
L 195.970772 245.731142 
L 199.446758 246.742066 
L 202.922743 245.153471 
L 206.398728 245.297889 
L 209.874714 245.731142 
L 213.350699 245.009053 
L 216.826684 245.731142 
L 220.302669 244.431382 
L 223.778655 245.586724 
L 227.25464 245.586724 
L 230.730625 245.731142 
L 234.206611 245.586724 
L 237.682596 245.87556 
L 241.158581 246.742066 
L 244.634566 245.153471 
L 248.110552 245.731142 
L 251.586537 246.164395 
L 255.062522 244.5758 
L 258.538508 244.142547 
L 262.014493 245.153471 
L 265.490478 243.998129 
L 268.966463 245.153471 
L 272.442449 245.297889 
L 275.918434 244.864636 
L 279.394419 245.009053 
L 282.870405 244.5758 
L 286.34639 246.019977 
L 289.822375 246.886484 
L 293.29836 246.164395 
L 300.250331 245.586724 
L 303.726316 246.164395 
L 307.202302 245.442307 
L 310.678287 246.164395 
L 314.154272 245.009053 
L 317.630257 246.453231 
L 321.106243 245.297889 
L 324.582228 247.897408 
L 328.058213 249.197168 
L 331.534199 275.625613 
L 335.010184 296.277349 
L 338.486169 300.321045 
L 341.962154 301.187552 
L 345.43814 303.353818 
L 348.914125 302.342893 
L 352.39011 304.075906 
L 355.866096 302.054058 
L 359.342081 303.353818 
L 362.818066 302.631729 
L 366.294051 298.154779 
L 369.770037 300.465463 
L 376.722007 298.73245 
L 380.197993 299.743374 
L 383.673978 300.609881 
L 387.149963 300.465463 
L 390.625949 300.176627 
L 394.101934 298.299197 
L 397.577919 301.331969 
L 401.053904 301.765222 
L 404.52989 300.609881 
L 408.005875 302.776147 
L 411.48186 300.898716 
L 414.957846 300.03221 
L 418.433831 300.465463 
L 421.909816 301.620805 
L 425.385801 301.765222 
L 428.861787 300.465463 
L 432.337772 302.342893 
L 435.813757 303.498235 
L 439.289743 302.631729 
L 442.765728 302.776147 
L 446.241713 303.064982 
L 449.717698 302.342893 
L 453.193684 303.064982 
L 456.669669 303.2094 
L 460.145654 307.68635 
L 463.62164 323.283465 
L 467.097625 329.349009 
L 470.57361 329.782263 
L 474.049595 329.92668 
L 477.525581 330.648769 
L 481.001566 332.5262 
L 484.477551 333.103871 
L 487.953537 337.869656 
L 491.429522 352.311429 
L 494.905507 356.643961 
L 498.381492 360.398822 
L 501.857478 360.832075 
L 505.333463 360.976493 
L 508.809448 361.409746 
L 512.285434 360.687658 
L 515.761419 361.265328 
L 522.713389 361.265328 
L 526.189375 361.409746 
L 529.66536 361.120911 
L 533.141345 361.409746 
L 550.521272 361.409746 
L 553.997257 361.265328 
L 560.949228 361.265328 
L 564.425213 360.832075 
L 567.901198 361.409746 
L 574.853169 360.832075 
L 578.329154 361.409746 
L 581.805139 361.409746 
L 585.281125 360.976493 
L 588.75711 361.265328 
L 592.233095 360.976493 
L 595.70908 361.265328 
L 599.185066 361.409746 
L 613.089007 361.409746 
L 616.564992 360.832075 
L 620.040977 361.120911 
L 626.992948 361.409746 
L 630.468933 360.976493 
L 633.944919 361.409746 
L 640.896889 361.409746 
L 644.372874 361.265328 
L 647.84886 361.409746 
L 651.324845 361.409746 
L 654.80083 360.54324 
L 658.276816 361.120911 
L 661.752801 361.409746 
L 679.132727 361.409746 
L 679.132727 361.409746 
" clip-path="url(#p4a1e0d42b9)" style="fill: none; stroke: #1f77b4; stroke-width: 1.5; stroke-linecap: square"/>
   </g>
   <g id="patch_3">
    <path d="M 47.72 390.04 
L 47.72 14.395014 
" style="fill: none; stroke: #000000; stroke-width: 0.8; stroke-linejoin: miter; stroke-linecap: square"/>
   </g>
   <g id="patch_4">
    <path d="M 709.2 390.04 
L 709.2 14.395014 
" style="fill: none; stroke: #000000; stroke-width: 0.8; stroke-linejoin: miter; stroke-linecap: square"/>
   </g>
   <g id="patch_5">
    <path d="M 47.72 390.04 
L 709.2 390.04 
" style="fill: none; stroke: #000000; stroke-width: 0.8; stroke-linejoin: miter; stroke-linecap: square"/>
   </g>
   <g id="patch_6">
    <path d="M 47.72 14.395014 
L 709.2 14.395014 
" style="fill: none; stroke: #000000; stroke-width: 0.8; stroke-linejoin: miter; stroke-linecap: square"/>
   </g>
  </g>
 </g>
 <defs>
  <clipPath id="p4a1e0d42b9">
   <rect x="47.72" y="14.395014" width="661.48" height="375.644986"/>
  </clipPath>
 </defs>
</svg>
