<?xml version="1.0" encoding="utf-8" standalone="no"?>
<!DOCTYPE svg PUBLIC "-//W3C//DTD SVG 1.1//EN"
  "http://www.w3.org/Graphics/SVG/1.1/DTD/svg11.dtd">
<svg xmlns:xlink="http://www.w3.org/1999/xlink" width="720pt" height="432pt" viewBox="0 0 720 432" xmlns="http://www.w3.org/2000/svg" version="1.1">
 <metadata>
  <rdf:RDF xmlns:dc="http://purl.org/dc/elements/1.1/" xmlns:cc="http://creativecommons.org/ns#" xmlns:rdf="http://www.w3.org/1999/02/22-rdf-syntax-ns#">
   <cc:Work>
    <dc:type rdf:resource="http://purl.org/dc/dcmitype/StillImage"/>
    <dc:date>2025-04-15T17:24:54.838951</dc:date>
    <dc:format>image/svg+xml</dc:format>
    <dc:creator>
     <cc:Agent>
      <dc:title>Matplotlib v3.10.0, https://matplotlib.org/</dc:title>
     </cc:Agent>
    </dc:creator>
   </cc:Work>
  </rdf:RDF>
 </metadata>
 <defs>
  <style type="text/css">*{stroke-linejoin: round; stroke-linecap: butt}</style>
 </defs>
 <g id="figure_1">
  <g id="patch_1">
   <path d="M 0 432 
L 720 432 
L 720 0 
L 0 0 
z
" style="fill: #ffffff"/>
  </g>
  <g id="axes_1">
   <g id="patch_2">
    <path d="M 47.63 390.04 
L 700.501683 390.04 
L 700.501683 10.8 
L 47.63 10.8 
z
" style="fill: #ffffff"/>
   </g>
   <g id="FillBetweenPolyCollection_1">
    <defs>
     <path id="maf517b7798" d="M 77.305986 -374.739709 
L 77.305986 -86.900692 
L 80.984241 -81.825775 
L 84.851663 -86.886103 
L 88.782141 -74.585267 
L 92.719625 -59.198182 
L 96.604563 -66.278113 
L 100.587588 -66.656879 
L 104.619656 -63.024418 
L 108.585165 -68.57493 
L 112.529655 -64.80398 
L 116.495165 -82.555924 
L 120.415133 -86.838093 
L 124.398158 -100.02664 
L 128.370673 -128.467166 
L 132.388729 -129.694577 
L 136.375257 -133.859561 
L 140.407325 -137.792284 
L 144.120611 -143.393536 
L 147.78135 -154.388354 
L 151.389543 -159.949798 
L 154.717488 -159.16509 
L 157.807222 -157.642783 
L 160.875938 -157.905689 
L 163.857076 -153.87279 
L 166.740127 -151.080145 
L 169.640694 -152.51001 
L 172.527248 -153.734818 
L 175.417305 -156.301601 
L 178.377425 -153.726848 
L 181.288501 -154.403591 
L 184.168049 -154.931302 
L 187.012566 -150.529478 
L 189.885108 -154.595077 
L 192.715613 -153.942222 
L 195.542615 -154.683796 
L 198.422163 -152.934672 
L 201.270183 -153.80241 
L 204.118203 -154.505677 
L 206.941702 -152.499656 
L 209.779213 -152.997458 
L 212.637742 -153.870624 
L 215.468247 -154.212696 
L 218.305758 -153.613727 
L 221.12225 -151.829089 
L 223.942246 -151.017951 
L 226.751732 -154.863087 
L 229.57523 -152.875018 
L 232.412741 -150.478902 
L 235.229234 -153.393577 
L 238.045726 -154.11803 
L 240.851709 -151.441442 
L 243.678711 -152.782324 
L 246.4917 -152.257579 
L 249.29418 -153.906039 
L 252.18774 -155.354274 
L 255.025251 -151.29995 
L 257.876775 -153.800051 
L 260.840397 -162.346548 
L 264.332988 -159.487191 
L 267.464759 -155.525538 
L 270.319786 -152.385107 
L 273.283408 -161.531479 
L 276.747974 -157.259064 
L 279.655547 -152.577885 
L 282.514077 -144.223557 
L 285.362097 -141.418682 
L 288.231136 -147.450155 
L 291.089665 -147.474723 
L 293.927176 -142.127315 
L 296.750675 -142.349496 
L 299.584682 -147.879776 
L 302.415187 -143.58429 
L 305.252698 -149.261585 
L 308.0797 -156.194502 
L 311.537259 -167.632408 
L 314.879217 -164.400457 
L 318.039013 -156.258756 
L 321.100722 -152.505427 
L 324.095873 -156.350859 
L 327.091023 -159.420361 
L 330.009105 -146.489599 
L 333.018268 -145.915785 
L 336.062462 -149.059655 
L 339.124171 -155.648574 
L 342.098303 -156.760094 
L 345.167019 -155.851424 
L 348.246244 -155.115357 
L 351.2484 -155.491551 
L 354.219029 -154.060688 
L 357.193161 -155.249652 
L 360.275889 -153.468648 
L 363.344604 -152.433235 
L 366.546438 -154.593995 
L 369.800818 -156.176034 
L 373.107744 -157.285462 
L 376.400658 -155.794574 
L 379.648031 -156.640546 
L 382.898908 -157.17995 
L 386.132269 -156.926938 
L 389.316587 -156.524293 
L 392.409824 -155.878618 
L 395.482043 -155.691597 
L 398.449169 -155.821517 
L 401.38827 -154.704982 
L 404.372911 -156.522571 
L 407.364558 -155.735171 
L 410.279137 -158.735569 
L 413.305816 -157.998314 
L 416.23791 -156.382759 
L 419.09644 -156.364717 
L 421.951466 -158.210971 
L 424.918592 -157.794999 
L 427.857693 -155.234905 
L 430.779278 -156.311411 
L 433.672839 -156.594169 
L 436.531368 -159.668948 
L 439.417922 -158.92422 
L 442.297471 -157.452337 
L 445.166509 -159.852014 
L 448.140641 -161.6996 
L 451.090251 -158.206446 
L 454.046868 -156.931806 
L 457.164627 -155.829187 
L 460.166783 -154.613119 
L 463.126903 -113.744919 
L 466.069507 -152.258677 
L 468.973577 -155.688794 
L 471.867137 -158.123735 
L 474.890312 -160.597473 
L 477.818904 -162.328064 
L 480.743992 -160.078172 
L 483.644559 -156.490111 
L 486.531113 -156.275657 
L 489.43168 -159.550963 
L 492.307725 -168.301055 
L 495.204789 -158.848187 
L 498.119368 -155.692178 
L 501.044456 -153.981109 
L 503.931011 -153.569903 
L 506.779031 -153.390952 
L 509.634057 -153.641501 
L 512.573158 -154.505766 
L 515.568309 -161.66656 
L 518.461869 -164.450501 
L 521.362436 -159.020209 
L 524.24899 -154.088462 
L 527.097011 -159.141478 
L 529.95554 -156.841915 
L 532.779039 -155.399688 
L 535.71814 -156.563681 
L 538.629216 -154.09456 
L 541.498254 -153.552441 
L 544.398821 -154.594826 
L 547.26786 -154.016864 
L 550.168427 -153.218099 
L 553.125043 -153.569903 
L 556.011597 -153.820452 
L 558.884139 -153.736658 
L 561.784706 -153.859009 
L 564.692279 -153.683353 
L 567.589343 -153.352646 
L 570.426854 -153.063539 
L 573.295893 -154.506017 
L 576.164931 -153.927804 
L 579.030467 -152.812991 
L 581.874984 -153.569903 
L 584.705489 -158.49358 
L 587.84777 -155.622803 
L 590.835914 -113.743596 
L 593.782021 -153.056611 
L 596.679085 -152.43095 
L 599.695254 -159.255759 
L 602.830528 -159.286247 
L 605.927268 -158.100175 
L 608.960953 -157.38157 
L 611.973619 -156.055596 
L 614.835652 -153.447803 
L 617.830802 -154.189717 
L 620.776909 -157.12006 
L 623.726519 -157.167178 
L 626.599061 -153.582098 
L 629.538162 -158.910053 
L 632.480766 -153.930607 
L 635.489929 -153.403148 
L 638.467564 -152.353834 
L 641.36813 -155.292335 
L 644.293219 -154.511033 
L 647.162258 -153.987118 
L 650.150402 -150.951441 
L 653.114024 -151.798333 
L 656.032107 -155.373754 
L 659.097319 -159.097209 
L 662.085463 -157.217367 
L 665.04208 -157.033061 
L 667.925131 -155.030423 
L 670.825698 -154.383666 
L 670.825698 -253.3266 
L 670.825698 -253.3266 
L 667.925131 -252.679843 
L 665.04208 -255.171383 
L 662.085463 -255.678489 
L 659.097319 -243.773173 
L 656.032107 -249.91657 
L 653.114024 -259.714698 
L 650.150402 -262.290121 
L 647.162258 -253.723148 
L 644.293219 -254.927763 
L 641.36813 -254.146461 
L 638.467564 -251.20796 
L 635.489929 -251.54147 
L 632.480766 -252.742541 
L 629.538162 -258.479981 
L 626.599061 -251.36252 
L 623.726519 -234.640612 
L 620.776909 -231.922082 
L 617.830802 -253.174843 
L 614.835652 -252.879639 
L 611.973619 -255.803142 
L 608.960953 -256.551404 
L 605.927268 -256.869916 
L 602.830528 -257.066669 
L 599.695254 -258.825687 
L 596.679085 -254.587904 
L 593.782021 -253.962243 
L 590.835914 -218.948468 
L 587.84777 -257.964465 
L 584.705489 -255.7851 
L 581.874984 -252.066127 
L 579.030467 -251.440215 
L 576.164931 -251.708226 
L 573.295893 -253.895661 
L 570.426854 -250.843961 
L 567.589343 -251.937678 
L 564.692279 -251.952677 
L 561.784706 -253.159845 
L 558.884139 -252.590784 
L 556.011597 -251.469872 
L 553.125043 -252.066127 
L 550.168427 -252.072225 
L 547.26786 -253.00199 
L 544.398821 -253.806852 
L 541.498254 -250.355059 
L 538.629216 -252.232882 
L 535.71814 -259.443528 
L 532.779039 -254.384814 
L 529.95554 -256.053941 
L 527.097011 -261.705616 
L 524.24899 -252.584686 
L 521.362436 -259.752649 
L 518.461869 -266.076361 
L 515.568309 -264.366124 
L 512.573158 -252.513088 
L 509.634057 -251.648823 
L 506.779031 -252.245078 
L 503.931011 -252.066127 
L 501.044456 -252.346332 
L 498.119368 -252.363794 
L 495.204789 -256.813317 
L 492.307725 -266.719985 
L 489.43168 -259.567601 
L 486.531113 -256.965905 
L 483.644559 -256.060039 
L 480.743992 -259.386098 
L 477.818904 -262.667501 
L 474.890312 -258.866797 
L 471.867137 -258.229181 
L 468.973577 -255.478532 
L 466.069507 -250.265999 
L 463.126903 -213.761556 
L 460.166783 -252.751441 
L 457.164627 -253.609609 
L 454.046868 -254.581226 
L 451.090251 -258.492176 
L 448.140641 -262.258847 
L 445.166509 -258.575138 
L 442.297471 -258.900579 
L 439.417922 -261.577167 
L 436.531368 -268.092265 
L 433.672839 -257.68451 
L 430.779278 -257.621562 
L 427.857693 -257.660951 
L 424.918592 -262.014977 
L 421.951466 -261.944711 
L 419.09644 -258.259669 
L 416.23791 -255.821685 
L 413.305816 -239.340772 
L 410.279137 -231.689397 
L 407.364558 -259.234921 
L 404.372911 -258.101815 
L 401.38827 -255.07952 
L 398.449169 -257.765751 
L 395.482043 -256.512846 
L 392.409824 -259.782886 
L 389.316587 -260.520035 
L 386.132269 -259.771684 
L 382.898908 -260.55579 
L 379.648031 -261.4409 
L 376.400658 -259.521224 
L 373.107744 -269.784339 
L 369.800818 -260.522588 
L 366.546438 -256.573331 
L 363.344604 -259.425503 
L 360.275889 -251.47597 
L 357.193161 -256.609086 
L 354.219029 -257.106638 
L 351.2484 -256.712893 
L 348.246244 -258.126205 
L 345.167019 -260.155786 
L 342.098303 -260.975646 
L 339.124171 -259.321517 
L 336.062462 -253.810727 
L 333.018268 -252.806125 
L 330.009105 -260.529255 
L 327.091023 -267.303734 
L 324.095873 -264.496234 
L 321.100722 -272.144433 
L 318.039013 -265.971162 
L 314.879217 -282.028881 
L 311.537259 -301.26782 
L 308.0797 -279.863655 
L 305.252698 -259.140093 
L 302.415187 -253.40909 
L 299.584682 -255.336312 
L 296.750675 -263.977946 
L 293.927176 -252.791829 
L 291.089665 -250.555775 
L 288.231136 -255.420227 
L 285.362097 -246.586342 
L 282.514077 -245.164291 
L 279.655547 -266.194973 
L 276.747974 -288.824568 
L 273.283408 -295.269038 
L 270.319786 -262.930691 
L 267.464759 -271.198558 
L 264.332988 -298.004739 
L 260.840397 -282.35426 
L 257.876775 -266.701337 
L 255.025251 -263.670142 
L 252.18774 -260.652936 
L 249.29418 -257.606993 
L 246.4917 -258.218335 
L 243.678711 -256.656472 
L 240.851709 -253.848882 
L 238.045726 -255.320766 
L 235.229234 -256.73663 
L 232.412741 -272.442427 
L 229.57523 -256.218071 
L 226.751732 -256.304239 
L 223.942246 -256.000903 
L 221.12225 -252.769823 
L 218.305758 -256.170775 
L 215.468247 -258.68316 
L 212.637742 -256.60529 
L 209.779213 -255.058513 
L 206.941702 -254.864904 
L 204.118203 -254.241707 
L 201.270183 -253.907856 
L 198.422163 -257.886948 
L 195.542615 -256.829235 
L 192.715613 -256.187986 
L 189.885108 -255.189425 
L 187.012566 -254.41514 
L 184.168049 -259.001672 
L 181.288501 -256.418029 
L 178.377425 -261.58895 
L 175.417305 -266.619729 
L 172.527248 -261.58098 
L 169.640694 -263.151493 
L 166.740127 -270.458361 
L 163.857076 -272.851305 
L 160.875938 -275.386821 
L 157.807222 -273.57549 
L 154.717488 -282.770069 
L 151.389543 -294.430778 
L 147.78135 -305.869224 
L 144.120611 -308.567097 
L 140.407325 -352.196009 
L 136.375257 -346.448964 
L 132.388729 -350.959654 
L 128.370673 -347.001475 
L 124.398158 -348.476933 
L 120.415133 -349.56577 
L 116.495165 -343.131053 
L 112.529655 -336.337872 
L 108.585165 -340.172454 
L 104.619656 -336.043198 
L 100.587588 -346.930389 
L 96.604563 -330.369561 
L 92.719625 -342.289376 
L 88.782141 -380.48672 
L 84.851663 -388.928244 
L 80.984241 -369.443446 
L 77.305986 -374.739709 
z
" style="stroke: #0000ff; stroke-opacity: 0.2"/>
    </defs>
    <g clip-path="url(#pc64f95e6a0)">
     <use xlink:href="#maf517b7798" x="0" y="432" style="fill: #0000ff; fill-opacity: 0.2; stroke: #0000ff; stroke-opacity: 0.2"/>
    </g>
   </g>
   <g id="FillBetweenPolyCollection_2">
    <defs>
     <path id="m4acf0b546c" d="M 77.474134 -380.570952 
L 77.474134 -82.452273 
L 81.194427 -84.800785 
L 85.100383 -81.517087 
L 88.960799 -84.021803 
L 92.84924 -93.193993 
L 96.685134 -85.032487 
L 100.545551 -85.602178 
L 104.412973 -85.571457 
L 108.304917 -88.024715 
L 112.21788 -87.372295 
L 116.029252 -80.956874 
L 119.998264 -90.61475 
L 124.06186 -80.655797 
L 127.778649 -92.716886 
L 131.656581 -91.47995 
L 135.47496 -82.425426 
L 139.489512 -93.562523 
L 143.535593 -86.879688 
L 147.47658 -89.065399 
L 151.294959 -86.141824 
L 155.477661 -79.555004 
L 159.352089 -74.776272 
L 163.307089 -82.236063 
L 167.283107 -79.276748 
L 171.164542 -88.130802 
L 175.042474 -81.038426 
L 178.906393 -92.65504 
L 182.910436 -90.162512 
L 186.749834 -88.20824 
L 191.020112 -86.706011 
L 194.785945 -93.213378 
L 198.670883 -80.482337 
L 202.555821 -91.607616 
L 206.507317 -89.260011 
L 210.560404 -82.218842 
L 214.441839 -85.371255 
L 218.37582 -116.217208 
L 222.372857 -69.171078 
L 226.152702 -73.804338 
L 230.104198 -86.287623 
L 234.097732 -83.552273 
L 238.042223 -84.956616 
L 241.997223 -74.850546 
L 245.74554 -78.570541 
L 249.539397 -75.798706 
L 253.483887 -88.467174 
L 257.400353 -94.105321 
L 261.379875 -73.800484 
L 265.429458 -102.635701 
L 269.493054 -87.590316 
L 273.483085 -84.638266 
L 277.529165 -89.908522 
L 281.189905 -68.354508 
L 285.057327 -101.219724 
L 289.201494 -83.433059 
L 293.1635 -86.648153 
L 297.157034 -95.757455 
L 301.045475 -81.489443 
L 304.776277 -74.246255 
L 308.584146 -85.809365 
L 312.469084 -92.292371 
L 316.504655 -70.047435 
L 320.365071 -93.264815 
L 324.299052 -79.085913 
L 328.303096 -92.328385 
L 332.135487 -91.919166 
L 335.904823 -85.611749 
L 339.775748 -105.964506 
L 343.965456 -102.163179 
L 347.864406 -86.12837 
L 351.791381 -105.606562 
L 355.80243 -94.193167 
L 359.866026 -71.086699 
L 363.80351 -95.041926 
L 367.71297 -79.040058 
L 371.752044 -81.193651 
L 375.801628 -84.632703 
L 379.679559 -86.323794 
L 383.532969 -79.897324 
L 387.452938 -71.688898 
L 391.309851 -80.094388 
L 395.289373 -86.292787 
L 399.142783 -83.337872 
L 403.146826 -78.676349 
L 407.091316 -65.37734 
L 411.004279 -85.050132 
L 414.840173 -70.846915 
L 418.570975 -82.419923 
L 422.434894 -81.878843 
L 426.176205 -65.925123 
L 430.152223 -82.089602 
L 434.00213 -84.473212 
L 438.062223 -86.356104 
L 441.964676 -90.481376 
L 445.91267 -78.960932 
L 449.825632 -77.469306 
L 453.426819 -78.537473 
L 457.301248 -88.731868 
L 461.273763 -90.020458 
L 465.193732 -83.952239 
L 468.956061 -81.936021 
L 472.935583 -69.12101 
L 477.037713 -92.137978 
L 481.083793 -72.266551 
L 484.905675 -82.355713 
L 488.717048 -95.380669 
L 492.542433 -88.117645 
L 496.374824 -87.477404 
L 500.231737 -76.596919 
L 504.011582 -73.88335 
L 507.819452 -93.180036 
L 511.753433 -78.865355 
L 515.634868 -100.911372 
L 519.589867 -88.367658 
L 523.499327 -76.589837 
L 527.51388 -84.717794 
L 531.552954 -88.270929 
L 535.392351 -86.273897 
L 539.179202 -80.793522 
L 542.836439 -71.975301 
L 546.756407 -78.399934 
L 550.627333 -79.286936 
L 554.449215 -74.217897 
L 558.116961 -82.643497 
L 561.959861 -76.030969 
L 565.858811 -104.895196 
L 569.911898 -90.587641 
L 573.758302 -87.496548 
L 577.594196 -88.750129 
L 581.661295 -93.587384 
L 585.584767 -97.940686 
L 589.536264 -89.499854 
L 593.606866 -80.469173 
L 597.358686 -83.528079 
L 601.30668 -66.067854 
L 604.939394 -91.609066 
L 608.635165 -64.738246 
L 612.464053 -84.966488 
L 616.419053 -106.523283 
L 620.282972 -66.054471 
L 624.294021 -102.106038 
L 628.336599 -80.649581 
L 632.27058 -100.744666 
L 636.288636 -79.61277 
L 640.247138 -101.800183 
L 644.037493 -68.538033 
L 647.733263 -69.553894 
L 651.348462 -80.302364 
L 655.110791 -78.046831 
L 658.911655 -77.538269 
L 662.789586 -86.092087 
L 666.73758 -76.568371 
L 670.594493 -76.255701 
L 670.594493 -357.382515 
L 670.594493 -357.382515 
L 666.73758 -381.960676 
L 662.789586 -384.190964 
L 658.911655 -392.05337 
L 655.110791 -389.124866 
L 651.348462 -385.832215 
L 647.733263 -385.518093 
L 644.037493 -379.96554 
L 640.247138 -389.91664 
L 636.288636 -379.261983 
L 632.27058 -391.317863 
L 628.336599 -396.54759 
L 624.294021 -396.179198 
L 620.282972 -382.794808 
L 616.419053 -374.476654 
L 612.464053 -390.156447 
L 608.635165 -369.937088 
L 604.939394 -389.390871 
L 601.30668 -379.670072 
L 597.358686 -396.089034 
L 593.606866 -392.579526 
L 589.536264 -384.585964 
L 585.584767 -394.467549 
L 581.661295 -400.203675 
L 577.594196 -394.324044 
L 573.758302 -374.143853 
L 569.911898 -386.263824 
L 565.858811 -399.267043 
L 561.959861 -388.37508 
L 558.116961 -381.07114 
L 554.449215 -370.137205 
L 550.627333 -383.736289 
L 546.756407 -380.820525 
L 542.836439 -373.071212 
L 539.179202 -385.686763 
L 535.392351 -391.614686 
L 531.552954 -377.517944 
L 527.51388 -376.576901 
L 523.499327 -394.730332 
L 519.589867 -382.606805 
L 515.634868 -389.076921 
L 511.753433 -385.886401 
L 507.819452 -398.191081 
L 504.011582 -384.299992 
L 500.231737 -382.969247 
L 496.374824 -394.213945 
L 492.542433 -384.931054 
L 488.717048 -385.273562 
L 484.905675 -373.407687 
L 481.083793 -385.225379 
L 477.037713 -380.910721 
L 472.935583 -384.568154 
L 468.956061 -376.24732 
L 465.193732 -403.961818 
L 461.273763 -392.708009 
L 457.301248 -370.142885 
L 453.426819 -386.559989 
L 449.825632 -366.194383 
L 445.91267 -379.568115 
L 441.964676 -373.233261 
L 438.062223 -396.718069 
L 434.00213 -377.16719 
L 430.152223 -376.785151 
L 426.176205 -377.047155 
L 422.434894 -384.947148 
L 418.570975 -381.986126 
L 414.840173 -368.322597 
L 411.004279 -388.344273 
L 407.091316 -380.01488 
L 403.146826 -381.926934 
L 399.142783 -387.290885 
L 395.289373 -379.841792 
L 391.309851 -385.348779 
L 387.452938 -388.914385 
L 383.532969 -369.989073 
L 379.679559 -393.984731 
L 375.801628 -389.107408 
L 371.752044 -375.606866 
L 367.71297 -401.268467 
L 363.80351 -387.686541 
L 359.866026 -373.959815 
L 355.80243 -397.17795 
L 351.791381 -388.875909 
L 347.864406 -389.340271 
L 343.965456 -392.319292 
L 339.775748 -391.629319 
L 335.904823 -371.88018 
L 332.135487 -370.066941 
L 328.303096 -380.374608 
L 324.299052 -371.491896 
L 320.365071 -393.95783 
L 316.504655 -381.221786 
L 312.469084 -393.893156 
L 308.584146 -388.276452 
L 304.776277 -384.974205 
L 301.045475 -377.38531 
L 297.157034 -381.785422 
L 293.1635 -374.646542 
L 289.201494 -380.627284 
L 285.057327 -390.842805 
L 281.189905 -373.580651 
L 277.529165 -380.374529 
L 273.483085 -392.904611 
L 269.493054 -386.149796 
L 265.429458 -386.315474 
L 261.379875 -374.357383 
L 257.400353 -380.671908 
L 253.483887 -382.852995 
L 249.539397 -369.247808 
L 245.74554 -389.638274 
L 241.997223 -373.307321 
L 238.042223 -385.326435 
L 234.097732 -390.533544 
L 230.104198 -385.032547 
L 226.152702 -376.082059 
L 222.372857 -374.492611 
L 218.37582 -397.624799 
L 214.441839 -368.663614 
L 210.560404 -396.361153 
L 206.507317 -385.171512 
L 202.555821 -386.280967 
L 198.670883 -386.343655 
L 194.785945 -392.626443 
L 191.020112 -383.922746 
L 186.749834 -400.742935 
L 182.910436 -392.220249 
L 178.906393 -390.073427 
L 175.042474 -360.205321 
L 171.164542 -388.374957 
L 167.283107 -389.277773 
L 163.307089 -373.527336 
L 159.352089 -377.184361 
L 155.477661 -366.528628 
L 151.294959 -379.301343 
L 147.47658 -375.686356 
L 143.535593 -386.169011 
L 139.489512 -379.486176 
L 135.47496 -388.894743 
L 131.656581 -388.137163 
L 127.778649 -387.937345 
L 124.06186 -388.935842 
L 119.998264 -394.187953 
L 116.029252 -385.177705 
L 112.21788 -401.57888 
L 108.304917 -381.91263 
L 104.412973 -377.797474 
L 100.545551 -380.878107 
L 96.685134 -373.49656 
L 92.84924 -387.460238 
L 88.960799 -378.31001 
L 85.100383 -392.223024 
L 81.194427 -396.199152 
L 77.474134 -380.570952 
z
" style="stroke: #ffa500; stroke-opacity: 0.2"/>
    </defs>
    <g clip-path="url(#pc64f95e6a0)">
     <use xlink:href="#m4acf0b546c" x="0" y="432" style="fill: #ffa500; fill-opacity: 0.2; stroke: #ffa500; stroke-opacity: 0.2"/>
    </g>
   </g>
   <g id="matplotlib.axis_1">
    <g id="xtick_1">
     <g id="line2d_1">
      <path d="M 75.470361 390.04 
L 75.470361 10.8 
" clip-path="url(#pc64f95e6a0)" style="fill: none; stroke: #b0b0b0; stroke-width: 0.8; stroke-linecap: square"/>
     </g>
     <g id="line2d_2">
      <defs>
       <path id="m467fb49f36" d="M 0 0 
L 0 3.5 
" style="stroke: #000000; stroke-width: 0.8"/>
      </defs>
      <g>
       <use xlink:href="#m467fb49f36" x="75.470361" y="390.04" style="stroke: #000000; stroke-width: 0.8"/>
      </g>
     </g>
     <g id="text_1">
      <!-- 0 -->
      <g transform="translate(72.289111 404.638438) scale(0.1 -0.1)">
       <defs>
        <path id="DejaVuSans-30" d="M 2034 4250 
Q 1547 4250 1301 3770 
Q 1056 3291 1056 2328 
Q 1056 1369 1301 889 
Q 1547 409 2034 409 
Q 2525 409 2770 889 
Q 3016 1369 3016 2328 
Q 3016 3291 2770 3770 
Q 2525 4250 2034 4250 
z
M 2034 4750 
Q 2819 4750 3233 4129 
Q 3647 3509 3647 2328 
Q 3647 1150 3233 529 
Q 2819 -91 2034 -91 
Q 1250 -91 836 529 
Q 422 1150 422 2328 
Q 422 3509 836 4129 
Q 1250 4750 2034 4750 
z
" transform="scale(0.015625)"/>
       </defs>
       <use xlink:href="#DejaVuSans-30"/>
      </g>
     </g>
    </g>
    <g id="xtick_2">
     <g id="line2d_3">
      <path d="M 163.04786 390.04 
L 163.04786 10.8 
" clip-path="url(#pc64f95e6a0)" style="fill: none; stroke: #b0b0b0; stroke-width: 0.8; stroke-linecap: square"/>
     </g>
     <g id="line2d_4">
      <g>
       <use xlink:href="#m467fb49f36" x="163.04786" y="390.04" style="stroke: #000000; stroke-width: 0.8"/>
      </g>
     </g>
     <g id="text_2">
      <!-- 25000 -->
      <g transform="translate(147.14161 404.638438) scale(0.1 -0.1)">
       <defs>
        <path id="DejaVuSans-32" d="M 1228 531 
L 3431 531 
L 3431 0 
L 469 0 
L 469 531 
Q 828 903 1448 1529 
Q 2069 2156 2228 2338 
Q 2531 2678 2651 2914 
Q 2772 3150 2772 3378 
Q 2772 3750 2511 3984 
Q 2250 4219 1831 4219 
Q 1534 4219 1204 4116 
Q 875 4013 500 3803 
L 500 4441 
Q 881 4594 1212 4672 
Q 1544 4750 1819 4750 
Q 2544 4750 2975 4387 
Q 3406 4025 3406 3419 
Q 3406 3131 3298 2873 
Q 3191 2616 2906 2266 
Q 2828 2175 2409 1742 
Q 1991 1309 1228 531 
z
" transform="scale(0.015625)"/>
        <path id="DejaVuSans-35" d="M 691 4666 
L 3169 4666 
L 3169 4134 
L 1269 4134 
L 1269 2991 
Q 1406 3038 1543 3061 
Q 1681 3084 1819 3084 
Q 2600 3084 3056 2656 
Q 3513 2228 3513 1497 
Q 3513 744 3044 326 
Q 2575 -91 1722 -91 
Q 1428 -91 1123 -41 
Q 819 9 494 109 
L 494 744 
Q 775 591 1075 516 
Q 1375 441 1709 441 
Q 2250 441 2565 725 
Q 2881 1009 2881 1497 
Q 2881 1984 2565 2268 
Q 2250 2553 1709 2553 
Q 1456 2553 1204 2497 
Q 953 2441 691 2322 
L 691 4666 
z
" transform="scale(0.015625)"/>
       </defs>
       <use xlink:href="#DejaVuSans-32"/>
       <use xlink:href="#DejaVuSans-35" transform="translate(63.623047 0)"/>
       <use xlink:href="#DejaVuSans-30" transform="translate(127.246094 0)"/>
       <use xlink:href="#DejaVuSans-30" transform="translate(190.869141 0)"/>
       <use xlink:href="#DejaVuSans-30" transform="translate(254.492188 0)"/>
      </g>
     </g>
    </g>
    <g id="xtick_3">
     <g id="line2d_5">
      <path d="M 250.625358 390.04 
L 250.625358 10.8 
" clip-path="url(#pc64f95e6a0)" style="fill: none; stroke: #b0b0b0; stroke-width: 0.8; stroke-linecap: square"/>
     </g>
     <g id="line2d_6">
      <g>
       <use xlink:href="#m467fb49f36" x="250.625358" y="390.04" style="stroke: #000000; stroke-width: 0.8"/>
      </g>
     </g>
     <g id="text_3">
      <!-- 50000 -->
      <g transform="translate(234.719108 404.638438) scale(0.1 -0.1)">
       <use xlink:href="#DejaVuSans-35"/>
       <use xlink:href="#DejaVuSans-30" transform="translate(63.623047 0)"/>
       <use xlink:href="#DejaVuSans-30" transform="translate(127.246094 0)"/>
       <use xlink:href="#DejaVuSans-30" transform="translate(190.869141 0)"/>
       <use xlink:href="#DejaVuSans-30" transform="translate(254.492188 0)"/>
      </g>
     </g>
    </g>
    <g id="xtick_4">
     <g id="line2d_7">
      <path d="M 338.202856 390.04 
L 338.202856 10.8 
" clip-path="url(#pc64f95e6a0)" style="fill: none; stroke: #b0b0b0; stroke-width: 0.8; stroke-linecap: square"/>
     </g>
     <g id="line2d_8">
      <g>
       <use xlink:href="#m467fb49f36" x="338.202856" y="390.04" style="stroke: #000000; stroke-width: 0.8"/>
      </g>
     </g>
     <g id="text_4">
      <!-- 75000 -->
      <g transform="translate(322.296606 404.638438) scale(0.1 -0.1)">
       <defs>
        <path id="DejaVuSans-37" d="M 525 4666 
L 3525 4666 
L 3525 4397 
L 1831 0 
L 1172 0 
L 2766 4134 
L 525 4134 
L 525 4666 
z
" transform="scale(0.015625)"/>
       </defs>
       <use xlink:href="#DejaVuSans-37"/>
       <use xlink:href="#DejaVuSans-35" transform="translate(63.623047 0)"/>
       <use xlink:href="#DejaVuSans-30" transform="translate(127.246094 0)"/>
       <use xlink:href="#DejaVuSans-30" transform="translate(190.869141 0)"/>
       <use xlink:href="#DejaVuSans-30" transform="translate(254.492188 0)"/>
      </g>
     </g>
    </g>
    <g id="xtick_5">
     <g id="line2d_9">
      <path d="M 425.780354 390.04 
L 425.780354 10.8 
" clip-path="url(#pc64f95e6a0)" style="fill: none; stroke: #b0b0b0; stroke-width: 0.8; stroke-linecap: square"/>
     </g>
     <g id="line2d_10">
      <g>
       <use xlink:href="#m467fb49f36" x="425.780354" y="390.04" style="stroke: #000000; stroke-width: 0.8"/>
      </g>
     </g>
     <g id="text_5">
      <!-- 100000 -->
      <g transform="translate(406.692854 404.638438) scale(0.1 -0.1)">
       <defs>
        <path id="DejaVuSans-31" d="M 794 531 
L 1825 531 
L 1825 4091 
L 703 3866 
L 703 4441 
L 1819 4666 
L 2450 4666 
L 2450 531 
L 3481 531 
L 3481 0 
L 794 0 
L 794 531 
z
" transform="scale(0.015625)"/>
       </defs>
       <use xlink:href="#DejaVuSans-31"/>
       <use xlink:href="#DejaVuSans-30" transform="translate(63.623047 0)"/>
       <use xlink:href="#DejaVuSans-30" transform="translate(127.246094 0)"/>
       <use xlink:href="#DejaVuSans-30" transform="translate(190.869141 0)"/>
       <use xlink:href="#DejaVuSans-30" transform="translate(254.492188 0)"/>
       <use xlink:href="#DejaVuSans-30" transform="translate(318.115234 0)"/>
      </g>
     </g>
    </g>
    <g id="xtick_6">
     <g id="line2d_11">
      <path d="M 513.357853 390.04 
L 513.357853 10.8 
" clip-path="url(#pc64f95e6a0)" style="fill: none; stroke: #b0b0b0; stroke-width: 0.8; stroke-linecap: square"/>
     </g>
     <g id="line2d_12">
      <g>
       <use xlink:href="#m467fb49f36" x="513.357853" y="390.04" style="stroke: #000000; stroke-width: 0.8"/>
      </g>
     </g>
     <g id="text_6">
      <!-- 125000 -->
      <g transform="translate(494.270353 404.638438) scale(0.1 -0.1)">
       <use xlink:href="#DejaVuSans-31"/>
       <use xlink:href="#DejaVuSans-32" transform="translate(63.623047 0)"/>
       <use xlink:href="#DejaVuSans-35" transform="translate(127.246094 0)"/>
       <use xlink:href="#DejaVuSans-30" transform="translate(190.869141 0)"/>
       <use xlink:href="#DejaVuSans-30" transform="translate(254.492188 0)"/>
       <use xlink:href="#DejaVuSans-30" transform="translate(318.115234 0)"/>
      </g>
     </g>
    </g>
    <g id="xtick_7">
     <g id="line2d_13">
      <path d="M 600.935351 390.04 
L 600.935351 10.8 
" clip-path="url(#pc64f95e6a0)" style="fill: none; stroke: #b0b0b0; stroke-width: 0.8; stroke-linecap: square"/>
     </g>
     <g id="line2d_14">
      <g>
       <use xlink:href="#m467fb49f36" x="600.935351" y="390.04" style="stroke: #000000; stroke-width: 0.8"/>
      </g>
     </g>
     <g id="text_7">
      <!-- 150000 -->
      <g transform="translate(581.847851 404.638438) scale(0.1 -0.1)">
       <use xlink:href="#DejaVuSans-31"/>
       <use xlink:href="#DejaVuSans-35" transform="translate(63.623047 0)"/>
       <use xlink:href="#DejaVuSans-30" transform="translate(127.246094 0)"/>
       <use xlink:href="#DejaVuSans-30" transform="translate(190.869141 0)"/>
       <use xlink:href="#DejaVuSans-30" transform="translate(254.492188 0)"/>
       <use xlink:href="#DejaVuSans-30" transform="translate(318.115234 0)"/>
      </g>
     </g>
    </g>
    <g id="xtick_8">
     <g id="line2d_15">
      <path d="M 688.512849 390.04 
L 688.512849 10.8 
" clip-path="url(#pc64f95e6a0)" style="fill: none; stroke: #b0b0b0; stroke-width: 0.8; stroke-linecap: square"/>
     </g>
     <g id="line2d_16">
      <g>
       <use xlink:href="#m467fb49f36" x="688.512849" y="390.04" style="stroke: #000000; stroke-width: 0.8"/>
      </g>
     </g>
     <g id="text_8">
      <!-- 175000 -->
      <g transform="translate(669.425349 404.638438) scale(0.1 -0.1)">
       <use xlink:href="#DejaVuSans-31"/>
       <use xlink:href="#DejaVuSans-37" transform="translate(63.623047 0)"/>
       <use xlink:href="#DejaVuSans-35" transform="translate(127.246094 0)"/>
       <use xlink:href="#DejaVuSans-30" transform="translate(190.869141 0)"/>
       <use xlink:href="#DejaVuSans-30" transform="translate(254.492188 0)"/>
       <use xlink:href="#DejaVuSans-30" transform="translate(318.115234 0)"/>
      </g>
     </g>
    </g>
    <g id="text_9">
     <!-- Steps -->
     <g transform="translate(360.075998 418.316562) scale(0.1 -0.1)">
      <defs>
       <path id="DejaVuSans-53" d="M 3425 4513 
L 3425 3897 
Q 3066 4069 2747 4153 
Q 2428 4238 2131 4238 
Q 1616 4238 1336 4038 
Q 1056 3838 1056 3469 
Q 1056 3159 1242 3001 
Q 1428 2844 1947 2747 
L 2328 2669 
Q 3034 2534 3370 2195 
Q 3706 1856 3706 1288 
Q 3706 609 3251 259 
Q 2797 -91 1919 -91 
Q 1588 -91 1214 -16 
Q 841 59 441 206 
L 441 856 
Q 825 641 1194 531 
Q 1563 422 1919 422 
Q 2459 422 2753 634 
Q 3047 847 3047 1241 
Q 3047 1584 2836 1778 
Q 2625 1972 2144 2069 
L 1759 2144 
Q 1053 2284 737 2584 
Q 422 2884 422 3419 
Q 422 4038 858 4394 
Q 1294 4750 2059 4750 
Q 2388 4750 2728 4690 
Q 3069 4631 3425 4513 
z
" transform="scale(0.015625)"/>
       <path id="DejaVuSans-74" d="M 1172 4494 
L 1172 3500 
L 2356 3500 
L 2356 3053 
L 1172 3053 
L 1172 1153 
Q 1172 725 1289 603 
Q 1406 481 1766 481 
L 2356 481 
L 2356 0 
L 1766 0 
Q 1100 0 847 248 
Q 594 497 594 1153 
L 594 3053 
L 172 3053 
L 172 3500 
L 594 3500 
L 594 4494 
L 1172 4494 
z
" transform="scale(0.015625)"/>
       <path id="DejaVuSans-65" d="M 3597 1894 
L 3597 1613 
L 953 1613 
Q 991 1019 1311 708 
Q 1631 397 2203 397 
Q 2534 397 2845 478 
Q 3156 559 3463 722 
L 3463 178 
Q 3153 47 2828 -22 
Q 2503 -91 2169 -91 
Q 1331 -91 842 396 
Q 353 884 353 1716 
Q 353 2575 817 3079 
Q 1281 3584 2069 3584 
Q 2775 3584 3186 3129 
Q 3597 2675 3597 1894 
z
M 3022 2063 
Q 3016 2534 2758 2815 
Q 2500 3097 2075 3097 
Q 1594 3097 1305 2825 
Q 1016 2553 972 2059 
L 3022 2063 
z
" transform="scale(0.015625)"/>
       <path id="DejaVuSans-70" d="M 1159 525 
L 1159 -1331 
L 581 -1331 
L 581 3500 
L 1159 3500 
L 1159 2969 
Q 1341 3281 1617 3432 
Q 1894 3584 2278 3584 
Q 2916 3584 3314 3078 
Q 3713 2572 3713 1747 
Q 3713 922 3314 415 
Q 2916 -91 2278 -91 
Q 1894 -91 1617 61 
Q 1341 213 1159 525 
z
M 3116 1747 
Q 3116 2381 2855 2742 
Q 2594 3103 2138 3103 
Q 1681 3103 1420 2742 
Q 1159 2381 1159 1747 
Q 1159 1113 1420 752 
Q 1681 391 2138 391 
Q 2594 391 2855 752 
Q 3116 1113 3116 1747 
z
" transform="scale(0.015625)"/>
       <path id="DejaVuSans-73" d="M 2834 3397 
L 2834 2853 
Q 2591 2978 2328 3040 
Q 2066 3103 1784 3103 
Q 1356 3103 1142 2972 
Q 928 2841 928 2578 
Q 928 2378 1081 2264 
Q 1234 2150 1697 2047 
L 1894 2003 
Q 2506 1872 2764 1633 
Q 3022 1394 3022 966 
Q 3022 478 2636 193 
Q 2250 -91 1575 -91 
Q 1294 -91 989 -36 
Q 684 19 347 128 
L 347 722 
Q 666 556 975 473 
Q 1284 391 1588 391 
Q 1994 391 2212 530 
Q 2431 669 2431 922 
Q 2431 1156 2273 1281 
Q 2116 1406 1581 1522 
L 1381 1569 
Q 847 1681 609 1914 
Q 372 2147 372 2553 
Q 372 3047 722 3315 
Q 1072 3584 1716 3584 
Q 2034 3584 2315 3537 
Q 2597 3491 2834 3397 
z
" transform="scale(0.015625)"/>
      </defs>
      <use xlink:href="#DejaVuSans-53"/>
      <use xlink:href="#DejaVuSans-74" transform="translate(63.476562 0)"/>
      <use xlink:href="#DejaVuSans-65" transform="translate(102.685547 0)"/>
      <use xlink:href="#DejaVuSans-70" transform="translate(164.208984 0)"/>
      <use xlink:href="#DejaVuSans-73" transform="translate(227.685547 0)"/>
     </g>
    </g>
   </g>
   <g id="matplotlib.axis_2">
    <g id="ytick_1">
     <g id="line2d_17">
      <path d="M 47.63 368.328648 
L 700.501683 368.328648 
" clip-path="url(#pc64f95e6a0)" style="fill: none; stroke: #b0b0b0; stroke-width: 0.8; stroke-linecap: square"/>
     </g>
     <g id="line2d_18">
      <defs>
       <path id="me645746fbe" d="M 0 0 
L -3.5 0 
" style="stroke: #000000; stroke-width: 0.8"/>
      </defs>
      <g>
       <use xlink:href="#me645746fbe" x="47.63" y="368.328648" style="stroke: #000000; stroke-width: 0.8"/>
      </g>
     </g>
     <g id="text_10">
      <!-- 2.0 -->
      <g transform="translate(24.726875 372.127867) scale(0.1 -0.1)">
       <defs>
        <path id="DejaVuSans-2e" d="M 684 794 
L 1344 794 
L 1344 0 
L 684 0 
L 684 794 
z
" transform="scale(0.015625)"/>
       </defs>
       <use xlink:href="#DejaVuSans-32"/>
       <use xlink:href="#DejaVuSans-2e" transform="translate(63.623047 0)"/>
       <use xlink:href="#DejaVuSans-30" transform="translate(95.410156 0)"/>
      </g>
     </g>
    </g>
    <g id="ytick_2">
     <g id="line2d_19">
      <path d="M 47.63 316.472749 
L 700.501683 316.472749 
" clip-path="url(#pc64f95e6a0)" style="fill: none; stroke: #b0b0b0; stroke-width: 0.8; stroke-linecap: square"/>
     </g>
     <g id="line2d_20">
      <g>
       <use xlink:href="#me645746fbe" x="47.63" y="316.472749" style="stroke: #000000; stroke-width: 0.8"/>
      </g>
     </g>
     <g id="text_11">
      <!-- 2.5 -->
      <g transform="translate(24.726875 320.271968) scale(0.1 -0.1)">
       <use xlink:href="#DejaVuSans-32"/>
       <use xlink:href="#DejaVuSans-2e" transform="translate(63.623047 0)"/>
       <use xlink:href="#DejaVuSans-35" transform="translate(95.410156 0)"/>
      </g>
     </g>
    </g>
    <g id="ytick_3">
     <g id="line2d_21">
      <path d="M 47.63 264.61685 
L 700.501683 264.61685 
" clip-path="url(#pc64f95e6a0)" style="fill: none; stroke: #b0b0b0; stroke-width: 0.8; stroke-linecap: square"/>
     </g>
     <g id="line2d_22">
      <g>
       <use xlink:href="#me645746fbe" x="47.63" y="264.61685" style="stroke: #000000; stroke-width: 0.8"/>
      </g>
     </g>
     <g id="text_12">
      <!-- 3.0 -->
      <g transform="translate(24.726875 268.416068) scale(0.1 -0.1)">
       <defs>
        <path id="DejaVuSans-33" d="M 2597 2516 
Q 3050 2419 3304 2112 
Q 3559 1806 3559 1356 
Q 3559 666 3084 287 
Q 2609 -91 1734 -91 
Q 1441 -91 1130 -33 
Q 819 25 488 141 
L 488 750 
Q 750 597 1062 519 
Q 1375 441 1716 441 
Q 2309 441 2620 675 
Q 2931 909 2931 1356 
Q 2931 1769 2642 2001 
Q 2353 2234 1838 2234 
L 1294 2234 
L 1294 2753 
L 1863 2753 
Q 2328 2753 2575 2939 
Q 2822 3125 2822 3475 
Q 2822 3834 2567 4026 
Q 2313 4219 1838 4219 
Q 1578 4219 1281 4162 
Q 984 4106 628 3988 
L 628 4550 
Q 988 4650 1302 4700 
Q 1616 4750 1894 4750 
Q 2613 4750 3031 4423 
Q 3450 4097 3450 3541 
Q 3450 3153 3228 2886 
Q 3006 2619 2597 2516 
z
" transform="scale(0.015625)"/>
       </defs>
       <use xlink:href="#DejaVuSans-33"/>
       <use xlink:href="#DejaVuSans-2e" transform="translate(63.623047 0)"/>
       <use xlink:href="#DejaVuSans-30" transform="translate(95.410156 0)"/>
      </g>
     </g>
    </g>
    <g id="ytick_4">
     <g id="line2d_23">
      <path d="M 47.63 212.76095 
L 700.501683 212.76095 
" clip-path="url(#pc64f95e6a0)" style="fill: none; stroke: #b0b0b0; stroke-width: 0.8; stroke-linecap: square"/>
     </g>
     <g id="line2d_24">
      <g>
       <use xlink:href="#me645746fbe" x="47.63" y="212.76095" style="stroke: #000000; stroke-width: 0.8"/>
      </g>
     </g>
     <g id="text_13">
      <!-- 3.5 -->
      <g transform="translate(24.726875 216.560169) scale(0.1 -0.1)">
       <use xlink:href="#DejaVuSans-33"/>
       <use xlink:href="#DejaVuSans-2e" transform="translate(63.623047 0)"/>
       <use xlink:href="#DejaVuSans-35" transform="translate(95.410156 0)"/>
      </g>
     </g>
    </g>
    <g id="ytick_5">
     <g id="line2d_25">
      <path d="M 47.63 160.905051 
L 700.501683 160.905051 
" clip-path="url(#pc64f95e6a0)" style="fill: none; stroke: #b0b0b0; stroke-width: 0.8; stroke-linecap: square"/>
     </g>
     <g id="line2d_26">
      <g>
       <use xlink:href="#me645746fbe" x="47.63" y="160.905051" style="stroke: #000000; stroke-width: 0.8"/>
      </g>
     </g>
     <g id="text_14">
      <!-- 4.0 -->
      <g transform="translate(24.726875 164.70427) scale(0.1 -0.1)">
       <defs>
        <path id="DejaVuSans-34" d="M 2419 4116 
L 825 1625 
L 2419 1625 
L 2419 4116 
z
M 2253 4666 
L 3047 4666 
L 3047 1625 
L 3713 1625 
L 3713 1100 
L 3047 1100 
L 3047 0 
L 2419 0 
L 2419 1100 
L 313 1100 
L 313 1709 
L 2253 4666 
z
" transform="scale(0.015625)"/>
       </defs>
       <use xlink:href="#DejaVuSans-34"/>
       <use xlink:href="#DejaVuSans-2e" transform="translate(63.623047 0)"/>
       <use xlink:href="#DejaVuSans-30" transform="translate(95.410156 0)"/>
      </g>
     </g>
    </g>
    <g id="ytick_6">
     <g id="line2d_27">
      <path d="M 47.63 109.049151 
L 700.501683 109.049151 
" clip-path="url(#pc64f95e6a0)" style="fill: none; stroke: #b0b0b0; stroke-width: 0.8; stroke-linecap: square"/>
     </g>
     <g id="line2d_28">
      <g>
       <use xlink:href="#me645746fbe" x="47.63" y="109.049151" style="stroke: #000000; stroke-width: 0.8"/>
      </g>
     </g>
     <g id="text_15">
      <!-- 4.5 -->
      <g transform="translate(24.726875 112.84837) scale(0.1 -0.1)">
       <use xlink:href="#DejaVuSans-34"/>
       <use xlink:href="#DejaVuSans-2e" transform="translate(63.623047 0)"/>
       <use xlink:href="#DejaVuSans-35" transform="translate(95.410156 0)"/>
      </g>
     </g>
    </g>
    <g id="ytick_7">
     <g id="line2d_29">
      <path d="M 47.63 57.193252 
L 700.501683 57.193252 
" clip-path="url(#pc64f95e6a0)" style="fill: none; stroke: #b0b0b0; stroke-width: 0.8; stroke-linecap: square"/>
     </g>
     <g id="line2d_30">
      <g>
       <use xlink:href="#me645746fbe" x="47.63" y="57.193252" style="stroke: #000000; stroke-width: 0.8"/>
      </g>
     </g>
     <g id="text_16">
      <!-- 5.0 -->
      <g transform="translate(24.726875 60.992471) scale(0.1 -0.1)">
       <use xlink:href="#DejaVuSans-35"/>
       <use xlink:href="#DejaVuSans-2e" transform="translate(63.623047 0)"/>
       <use xlink:href="#DejaVuSans-30" transform="translate(95.410156 0)"/>
      </g>
     </g>
    </g>
    <g id="text_17">
     <!-- Circuit Depth -->
     <g transform="translate(18.647187 233.329375) rotate(-90) scale(0.1 -0.1)">
      <defs>
       <path id="DejaVuSans-43" d="M 4122 4306 
L 4122 3641 
Q 3803 3938 3442 4084 
Q 3081 4231 2675 4231 
Q 1875 4231 1450 3742 
Q 1025 3253 1025 2328 
Q 1025 1406 1450 917 
Q 1875 428 2675 428 
Q 3081 428 3442 575 
Q 3803 722 4122 1019 
L 4122 359 
Q 3791 134 3420 21 
Q 3050 -91 2638 -91 
Q 1578 -91 968 557 
Q 359 1206 359 2328 
Q 359 3453 968 4101 
Q 1578 4750 2638 4750 
Q 3056 4750 3426 4639 
Q 3797 4528 4122 4306 
z
" transform="scale(0.015625)"/>
       <path id="DejaVuSans-69" d="M 603 3500 
L 1178 3500 
L 1178 0 
L 603 0 
L 603 3500 
z
M 603 4863 
L 1178 4863 
L 1178 4134 
L 603 4134 
L 603 4863 
z
" transform="scale(0.015625)"/>
       <path id="DejaVuSans-72" d="M 2631 2963 
Q 2534 3019 2420 3045 
Q 2306 3072 2169 3072 
Q 1681 3072 1420 2755 
Q 1159 2438 1159 1844 
L 1159 0 
L 581 0 
L 581 3500 
L 1159 3500 
L 1159 2956 
Q 1341 3275 1631 3429 
Q 1922 3584 2338 3584 
Q 2397 3584 2469 3576 
Q 2541 3569 2628 3553 
L 2631 2963 
z
" transform="scale(0.015625)"/>
       <path id="DejaVuSans-63" d="M 3122 3366 
L 3122 2828 
Q 2878 2963 2633 3030 
Q 2388 3097 2138 3097 
Q 1578 3097 1268 2742 
Q 959 2388 959 1747 
Q 959 1106 1268 751 
Q 1578 397 2138 397 
Q 2388 397 2633 464 
Q 2878 531 3122 666 
L 3122 134 
Q 2881 22 2623 -34 
Q 2366 -91 2075 -91 
Q 1284 -91 818 406 
Q 353 903 353 1747 
Q 353 2603 823 3093 
Q 1294 3584 2113 3584 
Q 2378 3584 2631 3529 
Q 2884 3475 3122 3366 
z
" transform="scale(0.015625)"/>
       <path id="DejaVuSans-75" d="M 544 1381 
L 544 3500 
L 1119 3500 
L 1119 1403 
Q 1119 906 1312 657 
Q 1506 409 1894 409 
Q 2359 409 2629 706 
Q 2900 1003 2900 1516 
L 2900 3500 
L 3475 3500 
L 3475 0 
L 2900 0 
L 2900 538 
Q 2691 219 2414 64 
Q 2138 -91 1772 -91 
Q 1169 -91 856 284 
Q 544 659 544 1381 
z
M 1991 3584 
L 1991 3584 
z
" transform="scale(0.015625)"/>
       <path id="DejaVuSans-20" transform="scale(0.015625)"/>
       <path id="DejaVuSans-44" d="M 1259 4147 
L 1259 519 
L 2022 519 
Q 2988 519 3436 956 
Q 3884 1394 3884 2338 
Q 3884 3275 3436 3711 
Q 2988 4147 2022 4147 
L 1259 4147 
z
M 628 4666 
L 1925 4666 
Q 3281 4666 3915 4102 
Q 4550 3538 4550 2338 
Q 4550 1131 3912 565 
Q 3275 0 1925 0 
L 628 0 
L 628 4666 
z
" transform="scale(0.015625)"/>
       <path id="DejaVuSans-68" d="M 3513 2113 
L 3513 0 
L 2938 0 
L 2938 2094 
Q 2938 2591 2744 2837 
Q 2550 3084 2163 3084 
Q 1697 3084 1428 2787 
Q 1159 2491 1159 1978 
L 1159 0 
L 581 0 
L 581 4863 
L 1159 4863 
L 1159 2956 
Q 1366 3272 1645 3428 
Q 1925 3584 2291 3584 
Q 2894 3584 3203 3211 
Q 3513 2838 3513 2113 
z
" transform="scale(0.015625)"/>
      </defs>
      <use xlink:href="#DejaVuSans-43"/>
      <use xlink:href="#DejaVuSans-69" transform="translate(69.824219 0)"/>
      <use xlink:href="#DejaVuSans-72" transform="translate(97.607422 0)"/>
      <use xlink:href="#DejaVuSans-63" transform="translate(136.470703 0)"/>
      <use xlink:href="#DejaVuSans-75" transform="translate(191.451172 0)"/>
      <use xlink:href="#DejaVuSans-69" transform="translate(254.830078 0)"/>
      <use xlink:href="#DejaVuSans-74" transform="translate(282.613281 0)"/>
      <use xlink:href="#DejaVuSans-20" transform="translate(321.822266 0)"/>
      <use xlink:href="#DejaVuSans-44" transform="translate(353.609375 0)"/>
      <use xlink:href="#DejaVuSans-65" transform="translate(430.611328 0)"/>
      <use xlink:href="#DejaVuSans-70" transform="translate(492.134766 0)"/>
      <use xlink:href="#DejaVuSans-74" transform="translate(555.611328 0)"/>
      <use xlink:href="#DejaVuSans-68" transform="translate(594.820312 0)"/>
     </g>
    </g>
   </g>
   <g id="line2d_31">
    <path d="M 77.305986 201.179799 
L 80.984241 206.365389 
L 84.851663 194.092826 
L 88.782141 204.464006 
L 92.719625 231.256221 
L 96.604563 233.676163 
L 100.587588 225.206366 
L 104.619656 232.466192 
L 108.585165 227.626308 
L 112.529655 231.429074 
L 116.495165 219.156511 
L 120.415133 213.798068 
L 124.398158 207.748213 
L 128.370673 194.265679 
L 132.388729 191.672884 
L 136.375257 191.845737 
L 140.407325 187.005854 
L 144.120611 206.019683 
L 147.78135 201.871211 
L 151.389543 204.809712 
L 154.717488 211.03242 
L 157.807222 216.390863 
L 160.875938 215.353745 
L 163.857076 218.637952 
L 166.740127 221.230747 
L 169.640694 224.169248 
L 172.527248 224.342101 
L 175.417305 220.539335 
L 178.377425 224.342101 
L 181.288501 226.58919 
L 184.168049 225.033513 
L 187.012566 229.527691 
L 189.885108 227.107749 
L 192.715613 226.934896 
L 195.542615 226.243484 
L 198.422163 226.58919 
L 201.270183 228.144867 
L 204.118203 227.626308 
L 206.941702 228.31772 
L 209.779213 227.972014 
L 215.468247 225.552072 
L 218.305758 227.107749 
L 221.12225 229.700544 
L 223.942246 228.490573 
L 226.751732 226.416337 
L 229.57523 227.453455 
L 232.412741 220.539335 
L 235.229234 226.934896 
L 238.045726 227.280602 
L 240.851709 229.354838 
L 243.678711 227.280602 
L 249.29418 226.243484 
L 252.18774 223.996395 
L 255.025251 224.514954 
L 257.876775 221.749306 
L 260.840397 209.649596 
L 264.332988 203.254035 
L 267.464759 218.637952 
L 270.319786 224.342101 
L 273.283408 203.599741 
L 276.747974 208.958184 
L 279.655547 222.613571 
L 282.514077 237.306076 
L 285.362097 237.997488 
L 288.231136 230.564809 
L 291.089665 232.984751 
L 293.927176 234.540428 
L 296.750675 228.836279 
L 299.584682 230.391956 
L 302.415187 233.50331 
L 305.252698 227.799161 
L 311.537259 197.549886 
L 314.879217 208.785331 
L 318.039013 220.885041 
L 321.100722 219.67507 
L 324.095873 221.576453 
L 327.091023 218.637952 
L 330.009105 228.490573 
L 333.018268 232.639045 
L 336.062462 230.564809 
L 339.124171 224.514954 
L 342.098303 223.13213 
L 345.167019 223.996395 
L 348.246244 225.379219 
L 354.219029 226.416337 
L 357.193161 226.070631 
L 360.275889 229.527691 
L 363.344604 226.070631 
L 366.546438 226.416337 
L 369.800818 223.650689 
L 373.107744 218.465099 
L 376.400658 224.342101 
L 379.648031 222.959277 
L 382.898908 223.13213 
L 386.132269 223.650689 
L 389.316587 223.477836 
L 392.409824 224.169248 
L 395.482043 225.897778 
L 398.449169 225.206366 
L 401.38827 227.107749 
L 404.372911 224.687807 
L 407.364558 224.514954 
L 410.279137 236.787517 
L 413.305816 233.330457 
L 416.23791 225.897778 
L 419.09644 224.687807 
L 421.951466 221.922159 
L 424.918592 222.095012 
L 427.857693 225.552072 
L 430.779278 225.033513 
L 433.672839 224.86066 
L 436.531368 218.119393 
L 439.417922 221.749306 
L 442.297471 223.823542 
L 445.166509 222.786424 
L 448.140641 220.020776 
L 451.090251 223.650689 
L 454.046868 226.243484 
L 460.166783 228.31772 
L 463.126903 268.246763 
L 466.069507 230.737662 
L 468.973577 226.416337 
L 471.867137 223.823542 
L 474.890312 222.267865 
L 477.818904 219.502217 
L 480.743992 222.267865 
L 483.644559 225.724925 
L 486.531113 225.379219 
L 489.43168 222.440718 
L 492.307725 214.48948 
L 495.204789 224.169248 
L 498.119368 227.972014 
L 501.044456 228.836279 
L 503.931011 229.181985 
L 506.779031 229.181985 
L 509.634057 229.354838 
L 512.573158 228.490573 
L 515.568309 218.983658 
L 518.461869 216.736569 
L 524.24899 228.663426 
L 527.097011 221.576453 
L 529.95554 225.552072 
L 532.779039 227.107749 
L 535.71814 223.996395 
L 538.629216 228.836279 
L 541.498254 230.04625 
L 544.398821 227.799161 
L 547.26786 228.490573 
L 550.168427 229.354838 
L 553.125043 229.181985 
L 556.011597 229.354838 
L 558.884139 228.836279 
L 561.784706 228.490573 
L 564.692279 229.181985 
L 567.589343 229.354838 
L 570.426854 230.04625 
L 573.295893 227.799161 
L 576.164931 229.181985 
L 579.030467 229.873397 
L 581.874984 229.181985 
L 584.705489 224.86066 
L 587.84777 225.206366 
L 590.835914 265.653968 
L 593.782021 228.490573 
L 596.679085 228.490573 
L 599.695254 222.959277 
L 602.830528 223.823542 
L 605.927268 224.514954 
L 608.960953 225.033513 
L 611.973619 226.070631 
L 614.835652 228.836279 
L 617.830802 228.31772 
L 620.776909 237.478929 
L 623.726519 236.096105 
L 626.599061 229.527691 
L 629.538162 223.304983 
L 632.480766 228.663426 
L 635.489929 229.527691 
L 638.467564 230.219103 
L 641.36813 227.280602 
L 644.293219 227.280602 
L 647.162258 228.144867 
L 650.150402 225.379219 
L 653.114024 226.243484 
L 656.032107 229.354838 
L 659.097319 230.564809 
L 662.085463 225.552072 
L 665.04208 225.897778 
L 667.925131 228.144867 
L 670.825698 228.144867 
L 670.825698 228.144867 
" clip-path="url(#pc64f95e6a0)" style="fill: none; stroke: #0000ff; stroke-width: 1.5; stroke-linecap: square"/>
   </g>
   <g id="line2d_32">
    <path d="M 77.474134 200.488387 
L 81.194427 191.500031 
L 85.100383 195.129944 
L 88.960799 200.834093 
L 92.84924 191.672884 
L 96.685134 202.735476 
L 100.545551 198.759857 
L 104.412973 200.315534 
L 108.304917 197.031327 
L 112.21788 187.524413 
L 116.029252 198.93271 
L 119.998264 189.598649 
L 124.06186 197.20418 
L 127.778649 191.672884 
L 131.656581 192.191443 
L 135.47496 196.339915 
L 139.489512 195.47565 
L 143.535593 195.47565 
L 147.47658 199.624122 
L 151.294959 199.278416 
L 155.477661 208.958184 
L 159.352089 206.019683 
L 163.307089 204.1183 
L 167.283107 197.722739 
L 171.164542 193.74712 
L 175.042474 211.378126 
L 178.906393 190.635766 
L 182.910436 190.808619 
L 186.749834 187.524413 
L 191.020112 196.685621 
L 194.785945 189.08009 
L 198.670883 198.587004 
L 202.555821 193.055708 
L 206.507317 194.784238 
L 210.560404 192.710002 
L 214.441839 204.982565 
L 218.37582 175.078997 
L 222.372857 210.168155 
L 226.152702 207.056801 
L 230.104198 196.339915 
L 234.097732 194.957091 
L 238.042223 196.858474 
L 241.997223 207.921066 
L 245.74554 197.895592 
L 249.539397 209.476743 
L 253.483887 196.339915 
L 257.400353 194.611385 
L 261.379875 207.921066 
L 265.429458 187.524413 
L 269.493054 195.129944 
L 273.483085 193.228561 
L 277.529165 196.858474 
L 281.189905 211.03242 
L 285.057327 185.968736 
L 289.201494 199.969828 
L 293.1635 201.352652 
L 297.157034 193.228561 
L 301.045475 202.562623 
L 304.776277 202.38977 
L 308.584146 194.957091 
L 312.469084 188.907237 
L 316.504655 206.365389 
L 320.365071 188.388678 
L 324.299052 206.711095 
L 328.303096 195.648503 
L 332.135487 201.006946 
L 335.904823 203.254035 
L 339.775748 183.203088 
L 343.965456 184.758765 
L 347.864406 194.265679 
L 351.791381 184.758765 
L 355.80243 186.314442 
L 359.866026 209.476743 
L 363.80351 190.635766 
L 367.71297 191.845737 
L 371.752044 203.599741 
L 375.801628 195.129944 
L 379.679559 191.845737 
L 383.532969 207.056801 
L 387.452938 201.698358 
L 391.309851 199.278416 
L 395.289373 198.93271 
L 399.142783 196.685621 
L 403.146826 201.698358 
L 407.091316 209.30389 
L 411.004279 195.302797 
L 414.840173 212.415244 
L 418.570975 199.796975 
L 422.434894 198.587004 
L 426.176205 210.513861 
L 430.152223 202.562623 
L 434.00213 201.179799 
L 438.062223 190.462913 
L 441.964676 200.142681 
L 445.91267 202.735476 
L 449.825632 210.168155 
L 453.426819 199.451269 
L 457.301248 202.562623 
L 461.273763 190.635766 
L 465.193732 188.042972 
L 468.956061 202.908329 
L 472.935583 205.155418 
L 477.037713 195.47565 
L 481.083793 203.254035 
L 484.905675 204.1183 
L 488.717048 191.672884 
L 492.542433 195.47565 
L 496.374824 191.154325 
L 500.231737 202.216917 
L 504.011582 202.908329 
L 507.819452 186.314442 
L 511.753433 199.624122 
L 515.634868 187.005854 
L 519.589867 196.512768 
L 523.499327 196.339915 
L 527.51388 201.352652 
L 531.552954 199.105563 
L 535.392351 193.055708 
L 539.179202 198.759857 
L 542.836439 209.476743 
L 546.756407 202.38977 
L 550.627333 200.488387 
L 554.449215 209.822449 
L 558.116961 200.142681 
L 561.959861 199.796975 
L 565.858811 179.918881 
L 569.911898 193.574267 
L 573.758302 201.179799 
L 577.594196 190.462913 
L 581.661295 185.104471 
L 585.584767 185.795883 
L 589.536264 194.957091 
L 593.606866 195.47565 
L 597.358686 192.191443 
L 601.30668 209.131037 
L 604.939394 191.500031 
L 608.635165 214.662333 
L 612.464053 194.438532 
L 616.419053 191.500031 
L 620.282972 207.57536 
L 624.294021 182.857382 
L 628.336599 193.401414 
L 632.27058 185.968736 
L 636.288636 202.562623 
L 640.247138 186.141589 
L 644.037493 207.748213 
L 647.733263 204.464006 
L 651.348462 198.93271 
L 655.110791 198.414151 
L 658.911655 197.20418 
L 662.789586 196.858474 
L 666.73758 202.735476 
L 670.594493 215.180892 
L 670.594493 215.180892 
" clip-path="url(#pc64f95e6a0)" style="fill: none; stroke: #ffa500; stroke-width: 1.5; stroke-linecap: square"/>
   </g>
   <g id="patch_3">
    <path d="M 47.63 390.04 
L 47.63 10.8 
" style="fill: none; stroke: #000000; stroke-width: 0.8; stroke-linejoin: miter; stroke-linecap: square"/>
   </g>
   <g id="patch_4">
    <path d="M 700.501683 390.04 
L 700.501683 10.8 
" style="fill: none; stroke: #000000; stroke-width: 0.8; stroke-linejoin: miter; stroke-linecap: square"/>
   </g>
   <g id="patch_5">
    <path d="M 47.63 390.04 
L 700.501683 390.04 
" style="fill: none; stroke: #000000; stroke-width: 0.8; stroke-linejoin: miter; stroke-linecap: square"/>
   </g>
   <g id="patch_6">
    <path d="M 47.63 10.8 
L 700.501683 10.8 
" style="fill: none; stroke: #000000; stroke-width: 0.8; stroke-linejoin: miter; stroke-linecap: square"/>
   </g>
   <g id="legend_1">
    <g id="patch_7">
     <path d="M 620.104808 385.04 
L 693.501683 385.04 
Q 695.501683 385.04 695.501683 383.04 
L 695.501683 340.005625 
Q 695.501683 338.005625 693.501683 338.005625 
L 620.104808 338.005625 
Q 618.104808 338.005625 618.104808 340.005625 
L 618.104808 383.04 
Q 618.104808 385.04 620.104808 385.04 
z
" style="fill: #ffffff; opacity: 0.8; stroke: #cccccc; stroke-linejoin: miter"/>
    </g>
    <g id="text_18">
     <!-- Agent -->
     <g transform="translate(642.003246 349.604062) scale(0.1 -0.1)">
      <defs>
       <path id="DejaVuSans-41" d="M 2188 4044 
L 1331 1722 
L 3047 1722 
L 2188 4044 
z
M 1831 4666 
L 2547 4666 
L 4325 0 
L 3669 0 
L 3244 1197 
L 1141 1197 
L 716 0 
L 50 0 
L 1831 4666 
z
" transform="scale(0.015625)"/>
       <path id="DejaVuSans-67" d="M 2906 1791 
Q 2906 2416 2648 2759 
Q 2391 3103 1925 3103 
Q 1463 3103 1205 2759 
Q 947 2416 947 1791 
Q 947 1169 1205 825 
Q 1463 481 1925 481 
Q 2391 481 2648 825 
Q 2906 1169 2906 1791 
z
M 3481 434 
Q 3481 -459 3084 -895 
Q 2688 -1331 1869 -1331 
Q 1566 -1331 1297 -1286 
Q 1028 -1241 775 -1147 
L 775 -588 
Q 1028 -725 1275 -790 
Q 1522 -856 1778 -856 
Q 2344 -856 2625 -561 
Q 2906 -266 2906 331 
L 2906 616 
Q 2728 306 2450 153 
Q 2172 0 1784 0 
Q 1141 0 747 490 
Q 353 981 353 1791 
Q 353 2603 747 3093 
Q 1141 3584 1784 3584 
Q 2172 3584 2450 3431 
Q 2728 3278 2906 2969 
L 2906 3500 
L 3481 3500 
L 3481 434 
z
" transform="scale(0.015625)"/>
       <path id="DejaVuSans-6e" d="M 3513 2113 
L 3513 0 
L 2938 0 
L 2938 2094 
Q 2938 2591 2744 2837 
Q 2550 3084 2163 3084 
Q 1697 3084 1428 2787 
Q 1159 2491 1159 1978 
L 1159 0 
L 581 0 
L 581 3500 
L 1159 3500 
L 1159 2956 
Q 1366 3272 1645 3428 
Q 1925 3584 2291 3584 
Q 2894 3584 3203 3211 
Q 3513 2838 3513 2113 
z
" transform="scale(0.015625)"/>
      </defs>
      <use xlink:href="#DejaVuSans-41"/>
      <use xlink:href="#DejaVuSans-67" transform="translate(68.408203 0)"/>
      <use xlink:href="#DejaVuSans-65" transform="translate(131.884766 0)"/>
      <use xlink:href="#DejaVuSans-6e" transform="translate(193.408203 0)"/>
      <use xlink:href="#DejaVuSans-74" transform="translate(256.787109 0)"/>
     </g>
    </g>
    <g id="line2d_33">
     <path d="M 622.104808 360.782187 
L 632.104808 360.782187 
L 642.104808 360.782187 
" style="fill: none; stroke: #0000ff; stroke-width: 1.5; stroke-linecap: square"/>
    </g>
    <g id="text_19">
     <!-- PPO -->
     <g transform="translate(650.104808 364.282187) scale(0.1 -0.1)">
      <defs>
       <path id="DejaVuSans-50" d="M 1259 4147 
L 1259 2394 
L 2053 2394 
Q 2494 2394 2734 2622 
Q 2975 2850 2975 3272 
Q 2975 3691 2734 3919 
Q 2494 4147 2053 4147 
L 1259 4147 
z
M 628 4666 
L 2053 4666 
Q 2838 4666 3239 4311 
Q 3641 3956 3641 3272 
Q 3641 2581 3239 2228 
Q 2838 1875 2053 1875 
L 1259 1875 
L 1259 0 
L 628 0 
L 628 4666 
z
" transform="scale(0.015625)"/>
       <path id="DejaVuSans-4f" d="M 2522 4238 
Q 1834 4238 1429 3725 
Q 1025 3213 1025 2328 
Q 1025 1447 1429 934 
Q 1834 422 2522 422 
Q 3209 422 3611 934 
Q 4013 1447 4013 2328 
Q 4013 3213 3611 3725 
Q 3209 4238 2522 4238 
z
M 2522 4750 
Q 3503 4750 4090 4092 
Q 4678 3434 4678 2328 
Q 4678 1225 4090 567 
Q 3503 -91 2522 -91 
Q 1538 -91 948 565 
Q 359 1222 359 2328 
Q 359 3434 948 4092 
Q 1538 4750 2522 4750 
z
" transform="scale(0.015625)"/>
      </defs>
      <use xlink:href="#DejaVuSans-50"/>
      <use xlink:href="#DejaVuSans-50" transform="translate(60.302734 0)"/>
      <use xlink:href="#DejaVuSans-4f" transform="translate(120.605469 0)"/>
     </g>
    </g>
    <g id="line2d_34">
     <path d="M 622.104808 375.460312 
L 632.104808 375.460312 
L 642.104808 375.460312 
" style="fill: none; stroke: #ffa500; stroke-width: 1.5; stroke-linecap: square"/>
    </g>
    <g id="text_20">
     <!-- Random -->
     <g transform="translate(650.104808 378.960312) scale(0.1 -0.1)">
      <defs>
       <path id="DejaVuSans-52" d="M 2841 2188 
Q 3044 2119 3236 1894 
Q 3428 1669 3622 1275 
L 4263 0 
L 3584 0 
L 2988 1197 
Q 2756 1666 2539 1819 
Q 2322 1972 1947 1972 
L 1259 1972 
L 1259 0 
L 628 0 
L 628 4666 
L 2053 4666 
Q 2853 4666 3247 4331 
Q 3641 3997 3641 3322 
Q 3641 2881 3436 2590 
Q 3231 2300 2841 2188 
z
M 1259 4147 
L 1259 2491 
L 2053 2491 
Q 2509 2491 2742 2702 
Q 2975 2913 2975 3322 
Q 2975 3731 2742 3939 
Q 2509 4147 2053 4147 
L 1259 4147 
z
" transform="scale(0.015625)"/>
       <path id="DejaVuSans-61" d="M 2194 1759 
Q 1497 1759 1228 1600 
Q 959 1441 959 1056 
Q 959 750 1161 570 
Q 1363 391 1709 391 
Q 2188 391 2477 730 
Q 2766 1069 2766 1631 
L 2766 1759 
L 2194 1759 
z
M 3341 1997 
L 3341 0 
L 2766 0 
L 2766 531 
Q 2569 213 2275 61 
Q 1981 -91 1556 -91 
Q 1019 -91 701 211 
Q 384 513 384 1019 
Q 384 1609 779 1909 
Q 1175 2209 1959 2209 
L 2766 2209 
L 2766 2266 
Q 2766 2663 2505 2880 
Q 2244 3097 1772 3097 
Q 1472 3097 1187 3025 
Q 903 2953 641 2809 
L 641 3341 
Q 956 3463 1253 3523 
Q 1550 3584 1831 3584 
Q 2591 3584 2966 3190 
Q 3341 2797 3341 1997 
z
" transform="scale(0.015625)"/>
       <path id="DejaVuSans-64" d="M 2906 2969 
L 2906 4863 
L 3481 4863 
L 3481 0 
L 2906 0 
L 2906 525 
Q 2725 213 2448 61 
Q 2172 -91 1784 -91 
Q 1150 -91 751 415 
Q 353 922 353 1747 
Q 353 2572 751 3078 
Q 1150 3584 1784 3584 
Q 2172 3584 2448 3432 
Q 2725 3281 2906 2969 
z
M 947 1747 
Q 947 1113 1208 752 
Q 1469 391 1925 391 
Q 2381 391 2643 752 
Q 2906 1113 2906 1747 
Q 2906 2381 2643 2742 
Q 2381 3103 1925 3103 
Q 1469 3103 1208 2742 
Q 947 2381 947 1747 
z
" transform="scale(0.015625)"/>
       <path id="DejaVuSans-6f" d="M 1959 3097 
Q 1497 3097 1228 2736 
Q 959 2375 959 1747 
Q 959 1119 1226 758 
Q 1494 397 1959 397 
Q 2419 397 2687 759 
Q 2956 1122 2956 1747 
Q 2956 2369 2687 2733 
Q 2419 3097 1959 3097 
z
M 1959 3584 
Q 2709 3584 3137 3096 
Q 3566 2609 3566 1747 
Q 3566 888 3137 398 
Q 2709 -91 1959 -91 
Q 1206 -91 779 398 
Q 353 888 353 1747 
Q 353 2609 779 3096 
Q 1206 3584 1959 3584 
z
" transform="scale(0.015625)"/>
       <path id="DejaVuSans-6d" d="M 3328 2828 
Q 3544 3216 3844 3400 
Q 4144 3584 4550 3584 
Q 5097 3584 5394 3201 
Q 5691 2819 5691 2113 
L 5691 0 
L 5113 0 
L 5113 2094 
Q 5113 2597 4934 2840 
Q 4756 3084 4391 3084 
Q 3944 3084 3684 2787 
Q 3425 2491 3425 1978 
L 3425 0 
L 2847 0 
L 2847 2094 
Q 2847 2600 2669 2842 
Q 2491 3084 2119 3084 
Q 1678 3084 1418 2786 
Q 1159 2488 1159 1978 
L 1159 0 
L 581 0 
L 581 3500 
L 1159 3500 
L 1159 2956 
Q 1356 3278 1631 3431 
Q 1906 3584 2284 3584 
Q 2666 3584 2933 3390 
Q 3200 3197 3328 2828 
z
" transform="scale(0.015625)"/>
      </defs>
      <use xlink:href="#DejaVuSans-52"/>
      <use xlink:href="#DejaVuSans-61" transform="translate(67.232422 0)"/>
      <use xlink:href="#DejaVuSans-6e" transform="translate(128.511719 0)"/>
      <use xlink:href="#DejaVuSans-64" transform="translate(191.890625 0)"/>
      <use xlink:href="#DejaVuSans-6f" transform="translate(255.367188 0)"/>
      <use xlink:href="#DejaVuSans-6d" transform="translate(316.548828 0)"/>
     </g>
    </g>
   </g>
  </g>
 </g>
 <defs>
  <clipPath id="pc64f95e6a0">
   <rect x="47.63" y="10.8" width="652.871683" height="379.24"/>
  </clipPath>
 </defs>
</svg>
