<?xml version="1.0" encoding="utf-8" standalone="no"?>
<!DOCTYPE svg PUBLIC "-//W3C//DTD SVG 1.1//EN"
  "http://www.w3.org/Graphics/SVG/1.1/DTD/svg11.dtd">
<svg xmlns:xlink="http://www.w3.org/1999/xlink" width="720pt" height="432pt" viewBox="0 0 720 432" xmlns="http://www.w3.org/2000/svg" version="1.1">
 <metadata>
  <rdf:RDF xmlns:dc="http://purl.org/dc/elements/1.1/" xmlns:cc="http://creativecommons.org/ns#" xmlns:rdf="http://www.w3.org/1999/02/22-rdf-syntax-ns#">
   <cc:Work>
    <dc:type rdf:resource="http://purl.org/dc/dcmitype/StillImage"/>
    <dc:date>2025-04-15T17:24:44.605694</dc:date>
    <dc:format>image/svg+xml</dc:format>
    <dc:creator>
     <cc:Agent>
      <dc:title>Matplotlib v3.10.0, https://matplotlib.org/</dc:title>
     </cc:Agent>
    </dc:creator>
   </cc:Work>
  </rdf:RDF>
 </metadata>
 <defs>
  <style type="text/css">*{stroke-linejoin: round; stroke-linecap: butt}</style>
 </defs>
 <g id="figure_1">
  <g id="patch_1">
   <path d="M 0 432 
L 720 432 
L 720 0 
L 0 0 
z
" style="fill: #ffffff"/>
  </g>
  <g id="axes_1">
   <g id="patch_2">
    <path d="M 47.72 390.04 
L 700.501683 390.04 
L 700.501683 10.8 
L 47.72 10.8 
z
" style="fill: #ffffff"/>
   </g>
   <g id="FillBetweenPolyCollection_1">
    <defs>
     <path id="maef2c8d9d5" d="M 77.391895 -235.792787 
L 77.391895 -75.557491 
L 81.069643 -80.434018 
L 84.936532 -84.420332 
L 88.866468 -92.958435 
L 92.80341 -88.431881 
L 96.687812 -105.638275 
L 100.670287 -100.780606 
L 104.7018 -112.600337 
L 108.666762 -110.955832 
L 112.610709 -104.735894 
L 116.575671 -113.899821 
L 120.4951 -123.701182 
L 124.477575 -134.952852 
L 128.449543 -147.128451 
L 132.467045 -160.887123 
L 136.453023 -182.08771 
L 140.484535 -197.649217 
L 144.197309 -239.543458 
L 147.857544 -291.285237 
L 151.465239 -321.869139 
L 154.792726 -359.694912 
L 157.882034 -365.852082 
L 160.950326 -373.083602 
L 163.931053 -386.410241 
L 166.813707 -381.122617 
L 169.713874 -392.505956 
L 172.600031 -390.194381 
L 175.48969 -390.196077 
L 178.449401 -382.705894 
L 181.360076 -393.614592 
L 184.239227 -394.251833 
L 187.083352 -389.588764 
L 189.955498 -399.913071 
L 192.785612 -398.192353 
L 195.612224 -397.382603 
L 198.491376 -396.724682 
L 201.339003 -398.28805 
L 204.186631 -403.506334 
L 207.00974 -399.20454 
L 209.84686 -400.216727 
L 212.704995 -399.406977 
L 215.53511 -398.951493 
L 218.37223 -397.230775 
L 221.188334 -398.190658 
L 224.007941 -398.749056 
L 226.817039 -401.380742 
L 229.640149 -400.925258 
L 232.477269 -379.669334 
L 235.293373 -393.0302 
L 238.109477 -402.949631 
L 240.915073 -397.939306 
L 243.741685 -402.241101 
L 246.554286 -398.749056 
L 249.35638 -399.558805 
L 252.249542 -402.899022 
L 255.086661 -398.4454 
L 257.937792 -401.937444 
L 260.901006 -378.694764 
L 264.393115 -376.847156 
L 267.524454 -396.885193 
L 270.379087 -396.825901 
L 273.342301 -372.837161 
L 276.80639 -374.345069 
L 279.713562 -396.221808 
L 282.571697 -372.088364 
L 285.419325 -371.636218 
L 288.287968 -384.323286 
L 291.146104 -383.363816 
L 293.983223 -366.587838 
L 296.806333 -329.423194 
L 299.63995 -356.456809 
L 302.470064 -335.894929 
L 305.307184 -341.776338 
L 308.133796 -339.19704 
L 311.590879 -332.036349 
L 314.932376 -336.617455 
L 318.091736 -334.625259 
L 321.153024 -339.838273 
L 324.147761 -343.515069 
L 327.142499 -356.915679 
L 330.060179 -335.021558 
L 333.068927 -339.217241 
L 336.112701 -355.570815 
L 339.173988 -367.673337 
L 342.14771 -375.129329 
L 345.216003 -371.720409 
L 348.294803 -375.200403 
L 351.296546 -378.650711 
L 354.266765 -378.157757 
L 357.240487 -377.873536 
L 360.32279 -377.579143 
L 363.391082 -359.286881 
L 366.592474 -363.187395 
L 369.846405 -355.441927 
L 373.152876 -342.60831 
L 376.445336 -351.009606 
L 379.692262 -351.326755 
L 382.94269 -347.019487 
L 386.175606 -340.340457 
L 389.359485 -339.690436 
L 392.452296 -340.732957 
L 395.524091 -333.033775 
L 398.490807 -331.871082 
L 401.429503 -333.480076 
L 404.413733 -337.844151 
L 407.404968 -333.265324 
L 410.319145 -313.853337 
L 413.345406 -321.745371 
L 416.277097 -327.994156 
L 419.135232 -324.588753 
L 421.989865 -326.319233 
L 424.956582 -325.439396 
L 427.895277 -319.673158 
L 430.81646 -323.010134 
L 433.709622 -324.433875 
L 436.567757 -321.365522 
L 439.453913 -322.798502 
L 442.333065 -321.120185 
L 445.201708 -325.435391 
L 448.17543 -339.308443 
L 451.124633 -335.23549 
L 454.080842 -344.795572 
L 457.198171 -345.622713 
L 460.199914 -339.46126 
L 463.159625 -208.311301 
L 466.101824 -330.359764 
L 469.005493 -336.303953 
L 471.898655 -314.666334 
L 474.921413 -327.56138 
L 477.849601 -325.895602 
L 480.774286 -328.086249 
L 483.674453 -334.637451 
L 486.56061 -332.984576 
L 489.460777 -330.331939 
L 492.336425 -314.279648 
L 495.23309 -327.151301 
L 498.147267 -334.869406 
L 501.071952 -334.269487 
L 503.958109 -334.964148 
L 506.805736 -332.381157 
L 509.660369 -334.172743 
L 512.599065 -330.888483 
L 515.593802 -322.329466 
L 518.486964 -323.211756 
L 521.387131 -330.968957 
L 524.273287 -333.703699 
L 527.120915 -328.879535 
L 529.97905 -330.757093 
L 532.80216 -333.502077 
L 535.740855 -335.27912 
L 538.65153 -336.14763 
L 541.520173 -334.652504 
L 544.42034 -335.527629 
L 547.288984 -333.399319 
L 550.189151 -338.612492 
L 553.145359 -337.265311 
L 556.031516 -335.569984 
L 558.903662 -337.549799 
L 561.803829 -335.689815 
L 564.711001 -336.565137 
L 567.607665 -334.829456 
L 570.444785 -334.310801 
L 573.313428 -336.114242 
L 576.182072 -335.373597 
L 579.047212 -332.755578 
L 581.891337 -333.987954 
L 584.721452 -341.29489 
L 587.863299 -335.14534 
L 590.851032 -278.455846 
L 593.796733 -331.583855 
L 596.693397 -328.469399 
L 599.70915 -349.528226 
L 602.843992 -347.345066 
L 605.940306 -342.496953 
L 608.973572 -341.498044 
L 611.985823 -336.763353 
L 614.847461 -334.99313 
L 617.842198 -339.899156 
L 620.787899 -305.369087 
L 623.737103 -316.538354 
L 626.609249 -332.286789 
L 629.547944 -337.312542 
L 632.490143 -336.393829 
L 635.498891 -341.762936 
L 638.476115 -334.255635 
L 641.376282 -336.445758 
L 644.300967 -333.72445 
L 647.169611 -332.670121 
L 650.157343 -288.289648 
L 653.120557 -328.198033 
L 656.038237 -333.747914 
L 659.103027 -329.310724 
L 662.090759 -338.941737 
L 665.046968 -337.581147 
L 667.929622 -335.677253 
L 670.829789 -333.062256 
L 670.829789 -403.961818 
L 670.829789 -403.961818 
L 667.929622 -403.961818 
L 665.046968 -403.961818 
L 662.090759 -403.961818 
L 659.103027 -403.961818 
L 656.038237 -403.961818 
L 653.120557 -403.961818 
L 650.157343 -403.330843 
L 647.169611 -403.961818 
L 644.300967 -403.961818 
L 641.376282 -403.961818 
L 638.476115 -403.961818 
L 635.498891 -403.961818 
L 632.490143 -403.961818 
L 629.547944 -403.961818 
L 626.609249 -403.961818 
L 623.737103 -403.961818 
L 620.787899 -400.170886 
L 617.842198 -403.961818 
L 614.847461 -403.961818 
L 611.985823 -403.961818 
L 608.973572 -403.961818 
L 605.940306 -403.961818 
L 602.843992 -403.961818 
L 599.70915 -403.961818 
L 596.693397 -403.961818 
L 593.796733 -403.961818 
L 590.851032 -401.88651 
L 587.863299 -403.961818 
L 584.721452 -403.961818 
L 581.891337 -403.961818 
L 579.047212 -403.961818 
L 576.182072 -403.961818 
L 573.313428 -403.961818 
L 570.444785 -403.961818 
L 567.607665 -403.961818 
L 564.711001 -403.961818 
L 561.803829 -403.961818 
L 558.903662 -403.961818 
L 556.031516 -403.961818 
L 553.145359 -403.961818 
L 550.189151 -403.961818 
L 547.288984 -403.961818 
L 544.42034 -403.961818 
L 541.520173 -403.961818 
L 538.65153 -403.961818 
L 535.740855 -403.961818 
L 532.80216 -403.961818 
L 529.97905 -403.961818 
L 527.120915 -403.961818 
L 524.273287 -403.961818 
L 521.387131 -403.961818 
L 518.486964 -400.104905 
L 515.593802 -398.387774 
L 512.599065 -398.633249 
L 509.660369 -403.961818 
L 506.805736 -403.961818 
L 503.958109 -403.961818 
L 501.071952 -403.961818 
L 498.147267 -403.961818 
L 495.23309 -403.961818 
L 492.336425 -403.961818 
L 489.460777 -403.961818 
L 486.56061 -403.961818 
L 483.674453 -403.961818 
L 480.774286 -403.961818 
L 477.849601 -403.961818 
L 474.921413 -403.961818 
L 471.898655 -402.73874 
L 469.005493 -403.961818 
L 466.101824 -403.961818 
L 463.159625 -403.961818 
L 460.199914 -403.961818 
L 457.198171 -403.961818 
L 454.080842 -403.961818 
L 451.124633 -403.961818 
L 448.17543 -403.961818 
L 445.201708 -403.541301 
L 442.333065 -403.961818 
L 439.453913 -399.050744 
L 436.567757 -398.722826 
L 433.709622 -400.517907 
L 430.81646 -397.749033 
L 427.895277 -394.797086 
L 424.956582 -396.912964 
L 421.989865 -399.932259 
L 419.135232 -399.817988 
L 416.277097 -401.946838 
L 413.345406 -398.259124 
L 410.319145 -395.040728 
L 407.404968 -403.961818 
L 404.413733 -403.961818 
L 401.429503 -403.961818 
L 398.490807 -403.961818 
L 395.524091 -403.961818 
L 392.452296 -403.961818 
L 389.359485 -403.961818 
L 386.175606 -403.961818 
L 382.94269 -403.961818 
L 379.692262 -403.961818 
L 376.445336 -403.961818 
L 373.152876 -401.503723 
L 369.846405 -403.961818 
L 366.592474 -403.961818 
L 363.391082 -403.961818 
L 360.32279 -403.961818 
L 357.240487 -403.961818 
L 354.266765 -403.961818 
L 351.296546 -403.961818 
L 348.294803 -403.961818 
L 345.216003 -403.961818 
L 342.14771 -403.961818 
L 339.173988 -403.961818 
L 336.112701 -403.961818 
L 333.068927 -403.961818 
L 330.060179 -403.961818 
L 327.142499 -403.961818 
L 324.147761 -403.961818 
L 321.153024 -403.961818 
L 318.091736 -402.820515 
L 314.932376 -403.805076 
L 311.590879 -401.845703 
L 308.133796 -403.961818 
L 305.307184 -403.961818 
L 302.470064 -403.961818 
L 299.63995 -403.961818 
L 296.806333 -403.961818 
L 293.983223 -403.961818 
L 291.146104 -403.961818 
L 288.287968 -403.961818 
L 285.419325 -403.961818 
L 282.571697 -403.961818 
L 279.713562 -403.961818 
L 276.80639 -403.961818 
L 273.342301 -403.961818 
L 270.379087 -403.961818 
L 267.524454 -403.961818 
L 264.393115 -403.961818 
L 260.901006 -403.961818 
L 257.937792 -403.961818 
L 255.086661 -403.961818 
L 252.249542 -403.961818 
L 249.35638 -403.961818 
L 246.554286 -403.961818 
L 243.741685 -403.961818 
L 240.915073 -403.961818 
L 238.109477 -403.961818 
L 235.293373 -403.961818 
L 232.477269 -403.961818 
L 229.640149 -403.961818 
L 226.817039 -403.961818 
L 224.007941 -403.961818 
L 221.188334 -403.961818 
L 218.37223 -403.961818 
L 215.53511 -403.961818 
L 212.704995 -403.961818 
L 209.84686 -403.961818 
L 207.00974 -403.961818 
L 204.186631 -403.961818 
L 201.339003 -403.961818 
L 198.491376 -403.961818 
L 195.612224 -403.961818 
L 192.785612 -403.961818 
L 189.955498 -403.961818 
L 187.083352 -403.961818 
L 184.239227 -403.961818 
L 181.360076 -403.961818 
L 178.449401 -403.961818 
L 175.48969 -403.961818 
L 172.600031 -403.961818 
L 169.713874 -403.961818 
L 166.813707 -403.961818 
L 163.931053 -403.961818 
L 160.950326 -403.961818 
L 157.882034 -403.961818 
L 154.792726 -403.961818 
L 151.465239 -403.961818 
L 147.857544 -403.961818 
L 144.197309 -397.950365 
L 140.484535 -387.227285 
L 136.453023 -371.050694 
L 132.467045 -353.553442 
L 128.449543 -336.8318 
L 124.477575 -319.742945 
L 120.4951 -303.197576 
L 116.575671 -283.357146 
L 112.610709 -276.798766 
L 108.666762 -277.706274 
L 104.7018 -268.682767 
L 100.670287 -257.610818 
L 96.687812 -261.222232 
L 92.80341 -255.201535 
L 88.866468 -248.788305 
L 84.936532 -245.670937 
L 81.069643 -239.049933 
L 77.391895 -235.792787 
z
" style="stroke: #0000ff; stroke-opacity: 0.2"/>
    </defs>
    <g clip-path="url(#p71d9e540f0)">
     <use xlink:href="#maef2c8d9d5" x="0" y="432" style="fill: #0000ff; fill-opacity: 0.2; stroke: #0000ff; stroke-opacity: 0.2"/>
    </g>
   </g>
   <g id="FillBetweenPolyCollection_2">
    <defs>
     <path id="m86e197afb8" d="M 77.56002 -222.560234 
L 77.56002 -63.634351 
L 81.2798 -73.405367 
L 85.185218 -73.259789 
L 89.045102 -67.564054 
L 92.933006 -75.849909 
L 96.768372 -73.053497 
L 100.628256 -74.302003 
L 104.495145 -71.216554 
L 108.386553 -68.353985 
L 112.298976 -67.472048 
L 116.109823 -78.53865 
L 120.078288 -76.817032 
L 124.141324 -69.483882 
L 127.857601 -78.117118 
L 131.734998 -84.456693 
L 135.55285 -75.797272 
L 139.566849 -79.276737 
L 143.612372 -75.088721 
L 147.552816 -73.118841 
L 151.370669 -66.136734 
L 155.552794 -69.272774 
L 159.426688 -81.473783 
L 163.381143 -74.411173 
L 167.356613 -69.439844 
L 171.237513 -73.171492 
L 175.11491 -70.570655 
L 178.978296 -73.579688 
L 182.981787 -75.798103 
L 186.820656 -68.037266 
L 191.090346 -69.154238 
L 194.855659 -72.548074 
L 198.740061 -65.51383 
L 202.624464 -72.875761 
L 206.575416 -67.480743 
L 210.627944 -79.256701 
L 214.508843 -69.909738 
L 218.442282 -82.206684 
L 222.438768 -66.971187 
L 226.218092 -72.677995 
L 230.169044 -67.933094 
L 234.162027 -71.54759 
L 238.105974 -72.464714 
L 242.060429 -65.854635 
L 245.808229 -62.421351 
L 249.601563 -70.448634 
L 253.54551 -76.909469 
L 257.461436 -72.44751 
L 261.440409 -67.375854 
L 265.489434 -79.489123 
L 269.55247 -72.280236 
L 273.54195 -70.1598 
L 277.587473 -70.772123 
L 281.247708 -68.992454 
L 285.114597 -71.761485 
L 289.258193 -79.795859 
L 293.219653 -73.28354 
L 297.212636 -65.52183 
L 301.100541 -70.701991 
L 304.830828 -67.757081 
L 308.638173 -70.863091 
L 312.522575 -72.676372 
L 316.55759 -62.67368 
L 320.417474 -82.12024 
L 324.350913 -71.582042 
L 328.354404 -74.194568 
L 332.186267 -81.55419 
L 335.955083 -71.088251 
L 339.825475 -80.459664 
L 344.014605 -78.402543 
L 347.913018 -67.610642 
L 351.839451 -74.935198 
L 355.849948 -71.663694 
L 359.912984 -67.405731 
L 363.849925 -63.452023 
L 367.758846 -76.341621 
L 371.797363 -71.57994 
L 375.846388 -71.958666 
L 379.723785 -64.47353 
L 383.576664 -72.752277 
L 387.496093 -68.016225 
L 391.352474 -78.878995 
L 395.331447 -67.144082 
L 399.184326 -66.357979 
L 403.187817 -70.464298 
L 407.131764 -64.974331 
L 411.044187 -77.094715 
L 414.879552 -69.549353 
L 418.60984 -75.843933 
L 422.473226 -63.71859 
L 426.214021 -64.889318 
L 430.189491 -74.940079 
L 434.038868 -72.436397 
L 438.098401 -71.855909 
L 442.000316 -68.980321 
L 445.947765 -66.117557 
L 449.860189 -61.609001 
L 453.460879 -69.120754 
L 457.334773 -73.509304 
L 461.306741 -76.504557 
L 465.22617 -66.801359 
L 468.98798 -75.951306 
L 472.966953 -67.056534 
L 477.068518 -78.950233 
L 481.11404 -70.965958 
L 484.935396 -67.228462 
L 488.746243 -70.197627 
L 492.571101 -69.681706 
L 496.402964 -74.654018 
L 500.259345 -67.614643 
L 504.038669 -75.398881 
L 507.846013 -76.547232 
L 511.779452 -66.896052 
L 515.660352 -77.749475 
L 519.614807 -72.63184 
L 523.523727 -69.791857 
L 527.537726 -72.2107 
L 531.576244 -78.519406 
L 535.415112 -64.897892 
L 539.201441 -62.764371 
L 542.858173 -70.774208 
L 546.777602 -68.8325 
L 550.647993 -68.404346 
L 554.469349 -65.581887 
L 558.136589 -75.434411 
L 561.978959 -73.188413 
L 565.877372 -72.250515 
L 569.9299 -77.493722 
L 573.775774 -72.21647 
L 577.611139 -72.383871 
L 581.677678 -86.396448 
L 585.600609 -84.167936 
L 589.551561 -79.893905 
L 593.621602 -72.532716 
L 597.372904 -70.880657 
L 601.320354 -65.723041 
L 604.952568 -72.013155 
L 608.647829 -68.559767 
L 612.476189 -77.527782 
L 616.430644 -67.594904 
L 620.29403 -59.198182 
L 624.304527 -78.59027 
L 628.346547 -74.897271 
L 632.279986 -78.823073 
L 636.297487 -67.663422 
L 640.255445 -78.925421 
L 644.045276 -69.375113 
L 647.740537 -71.156734 
L 651.355238 -68.108844 
L 655.117049 -73.15465 
L 658.917388 -69.70787 
L 662.794785 -71.589075 
L 666.742235 -69.089097 
L 670.598616 -61.35464 
L 670.598616 -209.159563 
L 670.598616 -209.159563 
L 666.742235 -230.144522 
L 662.794785 -232.214495 
L 658.917388 -236.401639 
L 655.117049 -227.127123 
L 651.355238 -219.678935 
L 647.740537 -230.298971 
L 644.045276 -225.498186 
L 640.255445 -234.646944 
L 636.297487 -223.14304 
L 632.279986 -236.007075 
L 628.346547 -226.93577 
L 624.304527 -230.495995 
L 620.29403 -222.426452 
L 616.430644 -226.481798 
L 612.476189 -232.942046 
L 608.647829 -218.59912 
L 604.952568 -225.459565 
L 601.320354 -223.070966 
L 597.372904 -228.227184 
L 593.621602 -230.054995 
L 589.551561 -230.030884 
L 585.600609 -234.603271 
L 581.677678 -241.011547 
L 577.611139 -230.623101 
L 573.775774 -224.711211 
L 569.9299 -226.561405 
L 565.877372 -231.301498 
L 561.978959 -228.057662 
L 558.136589 -231.429768 
L 554.469349 -229.542969 
L 550.647993 -219.802695 
L 546.777602 -227.969402 
L 542.858173 -226.446955 
L 539.201441 -227.455124 
L 535.415112 -226.956724 
L 531.576244 -235.430294 
L 527.537726 -225.513577 
L 523.523727 -224.494476 
L 519.614807 -233.477669 
L 515.660352 -236.535634 
L 511.779452 -217.411856 
L 507.846013 -222.686388 
L 504.038669 -235.867544 
L 500.259345 -221.640552 
L 496.402964 -224.202265 
L 492.571101 -231.019329 
L 488.746243 -229.832589 
L 484.935396 -228.441434 
L 481.11404 -227.638769 
L 477.068518 -228.794396 
L 472.966953 -227.816765 
L 468.98798 -226.887962 
L 465.22617 -231.845294 
L 461.306741 -236.942029 
L 457.334773 -222.244445 
L 453.460879 -229.609751 
L 449.860189 -221.35727 
L 445.947765 -216.597157 
L 442.000316 -227.779655 
L 438.098401 -227.755045 
L 434.038868 -225.497511 
L 430.189491 -227.815337 
L 426.214021 -223.611206 
L 422.473226 -221.469767 
L 418.60984 -232.40381 
L 414.879552 -234.757331 
L 411.044187 -234.549046 
L 407.131764 -229.102371 
L 403.187817 -230.572145 
L 399.184326 -224.658114 
L 395.331447 -222.530374 
L 391.352474 -227.859406 
L 387.496093 -223.796464 
L 383.576664 -218.599226 
L 379.723785 -234.802015 
L 375.846388 -230.042079 
L 371.797363 -227.066713 
L 367.758846 -234.002429 
L 363.849925 -228.779929 
L 359.912984 -229.563875 
L 355.849948 -231.636763 
L 351.839451 -229.287634 
L 347.913018 -232.713057 
L 344.014605 -222.96931 
L 339.825475 -237.808429 
L 335.955083 -227.600328 
L 332.186267 -234.743374 
L 328.354404 -234.556288 
L 324.350913 -227.861208 
L 320.417474 -239.124611 
L 316.55759 -226.497662 
L 312.522575 -240.728287 
L 308.638173 -241.116079 
L 304.830828 -225.942285 
L 301.100541 -229.70556 
L 297.212636 -216.522065 
L 293.219653 -231.526258 
L 289.258193 -231.428641 
L 285.114597 -224.369598 
L 281.247708 -224.036095 
L 277.587473 -234.666567 
L 273.54195 -229.325376 
L 269.55247 -227.74998 
L 265.489434 -234.376724 
L 261.440409 -231.941617 
L 257.461436 -229.217827 
L 253.54551 -229.493523 
L 249.601563 -229.246173 
L 245.808229 -225.282575 
L 242.060429 -230.150669 
L 238.105974 -234.273687 
L 234.162027 -241.102398 
L 230.169044 -232.348679 
L 226.218092 -233.557292 
L 222.438768 -230.962721 
L 218.442282 -228.263145 
L 214.508843 -218.087671 
L 210.627944 -230.710014 
L 206.575416 -228.273006 
L 202.624464 -226.77712 
L 198.740061 -227.808201 
L 194.855659 -232.471355 
L 191.090346 -217.543461 
L 186.820656 -226.752181 
L 182.981787 -227.376575 
L 178.978296 -224.35422 
L 175.11491 -231.010828 
L 171.237513 -232.35105 
L 167.356613 -225.223825 
L 163.381143 -231.279074 
L 159.426688 -223.797203 
L 155.552794 -228.409578 
L 151.370669 -230.539389 
L 147.552816 -222.886464 
L 143.612372 -229.846855 
L 139.566849 -241.926187 
L 135.55285 -223.436348 
L 131.734998 -234.943407 
L 127.857601 -238.809338 
L 124.141324 -230.294777 
L 120.078288 -235.749105 
L 116.109823 -234.782157 
L 112.298976 -223.879454 
L 108.386553 -232.514754 
L 104.495145 -238.414752 
L 100.628256 -227.279481 
L 96.768372 -216.956368 
L 92.933006 -233.571766 
L 89.045102 -227.141541 
L 85.185218 -235.532993 
L 81.2798 -227.589151 
L 77.56002 -222.560234 
z
" style="stroke: #ffa500; stroke-opacity: 0.2"/>
    </defs>
    <g clip-path="url(#p71d9e540f0)">
     <use xlink:href="#m86e197afb8" x="0" y="432" style="fill: #ffa500; fill-opacity: 0.2; stroke: #ffa500; stroke-opacity: 0.2"/>
    </g>
   </g>
   <g id="matplotlib.axis_1">
    <g id="xtick_1">
     <g id="line2d_1">
      <path d="M 75.556523 390.04 
L 75.556523 10.8 
" clip-path="url(#p71d9e540f0)" style="fill: none; stroke: #b0b0b0; stroke-width: 0.8; stroke-linecap: square"/>
     </g>
     <g id="line2d_2">
      <defs>
       <path id="mab8cf436a5" d="M 0 0 
L 0 3.5 
" style="stroke: #000000; stroke-width: 0.8"/>
      </defs>
      <g>
       <use xlink:href="#mab8cf436a5" x="75.556523" y="390.04" style="stroke: #000000; stroke-width: 0.8"/>
      </g>
     </g>
     <g id="text_1">
      <!-- 0 -->
      <g transform="translate(72.375273 404.638438) scale(0.1 -0.1)">
       <defs>
        <path id="DejaVuSans-30" d="M 2034 4250 
Q 1547 4250 1301 3770 
Q 1056 3291 1056 2328 
Q 1056 1369 1301 889 
Q 1547 409 2034 409 
Q 2525 409 2770 889 
Q 3016 1369 3016 2328 
Q 3016 3291 2770 3770 
Q 2525 4250 2034 4250 
z
M 2034 4750 
Q 2819 4750 3233 4129 
Q 3647 3509 3647 2328 
Q 3647 1150 3233 529 
Q 2819 -91 2034 -91 
Q 1250 -91 836 529 
Q 422 1150 422 2328 
Q 422 3509 836 4129 
Q 1250 4750 2034 4750 
z
" transform="scale(0.015625)"/>
       </defs>
       <use xlink:href="#DejaVuSans-30"/>
      </g>
     </g>
    </g>
    <g id="xtick_2">
     <g id="line2d_3">
      <path d="M 163.121949 390.04 
L 163.121949 10.8 
" clip-path="url(#p71d9e540f0)" style="fill: none; stroke: #b0b0b0; stroke-width: 0.8; stroke-linecap: square"/>
     </g>
     <g id="line2d_4">
      <g>
       <use xlink:href="#mab8cf436a5" x="163.121949" y="390.04" style="stroke: #000000; stroke-width: 0.8"/>
      </g>
     </g>
     <g id="text_2">
      <!-- 25000 -->
      <g transform="translate(147.215699 404.638438) scale(0.1 -0.1)">
       <defs>
        <path id="DejaVuSans-32" d="M 1228 531 
L 3431 531 
L 3431 0 
L 469 0 
L 469 531 
Q 828 903 1448 1529 
Q 2069 2156 2228 2338 
Q 2531 2678 2651 2914 
Q 2772 3150 2772 3378 
Q 2772 3750 2511 3984 
Q 2250 4219 1831 4219 
Q 1534 4219 1204 4116 
Q 875 4013 500 3803 
L 500 4441 
Q 881 4594 1212 4672 
Q 1544 4750 1819 4750 
Q 2544 4750 2975 4387 
Q 3406 4025 3406 3419 
Q 3406 3131 3298 2873 
Q 3191 2616 2906 2266 
Q 2828 2175 2409 1742 
Q 1991 1309 1228 531 
z
" transform="scale(0.015625)"/>
        <path id="DejaVuSans-35" d="M 691 4666 
L 3169 4666 
L 3169 4134 
L 1269 4134 
L 1269 2991 
Q 1406 3038 1543 3061 
Q 1681 3084 1819 3084 
Q 2600 3084 3056 2656 
Q 3513 2228 3513 1497 
Q 3513 744 3044 326 
Q 2575 -91 1722 -91 
Q 1428 -91 1123 -41 
Q 819 9 494 109 
L 494 744 
Q 775 591 1075 516 
Q 1375 441 1709 441 
Q 2250 441 2565 725 
Q 2881 1009 2881 1497 
Q 2881 1984 2565 2268 
Q 2250 2553 1709 2553 
Q 1456 2553 1204 2497 
Q 953 2441 691 2322 
L 691 4666 
z
" transform="scale(0.015625)"/>
       </defs>
       <use xlink:href="#DejaVuSans-32"/>
       <use xlink:href="#DejaVuSans-35" transform="translate(63.623047 0)"/>
       <use xlink:href="#DejaVuSans-30" transform="translate(127.246094 0)"/>
       <use xlink:href="#DejaVuSans-30" transform="translate(190.869141 0)"/>
       <use xlink:href="#DejaVuSans-30" transform="translate(254.492188 0)"/>
      </g>
     </g>
    </g>
    <g id="xtick_3">
     <g id="line2d_5">
      <path d="M 250.687374 390.04 
L 250.687374 10.8 
" clip-path="url(#p71d9e540f0)" style="fill: none; stroke: #b0b0b0; stroke-width: 0.8; stroke-linecap: square"/>
     </g>
     <g id="line2d_6">
      <g>
       <use xlink:href="#mab8cf436a5" x="250.687374" y="390.04" style="stroke: #000000; stroke-width: 0.8"/>
      </g>
     </g>
     <g id="text_3">
      <!-- 50000 -->
      <g transform="translate(234.781124 404.638438) scale(0.1 -0.1)">
       <use xlink:href="#DejaVuSans-35"/>
       <use xlink:href="#DejaVuSans-30" transform="translate(63.623047 0)"/>
       <use xlink:href="#DejaVuSans-30" transform="translate(127.246094 0)"/>
       <use xlink:href="#DejaVuSans-30" transform="translate(190.869141 0)"/>
       <use xlink:href="#DejaVuSans-30" transform="translate(254.492188 0)"/>
      </g>
     </g>
    </g>
    <g id="xtick_4">
     <g id="line2d_7">
      <path d="M 338.2528 390.04 
L 338.2528 10.8 
" clip-path="url(#p71d9e540f0)" style="fill: none; stroke: #b0b0b0; stroke-width: 0.8; stroke-linecap: square"/>
     </g>
     <g id="line2d_8">
      <g>
       <use xlink:href="#mab8cf436a5" x="338.2528" y="390.04" style="stroke: #000000; stroke-width: 0.8"/>
      </g>
     </g>
     <g id="text_4">
      <!-- 75000 -->
      <g transform="translate(322.34655 404.638438) scale(0.1 -0.1)">
       <defs>
        <path id="DejaVuSans-37" d="M 525 4666 
L 3525 4666 
L 3525 4397 
L 1831 0 
L 1172 0 
L 2766 4134 
L 525 4134 
L 525 4666 
z
" transform="scale(0.015625)"/>
       </defs>
       <use xlink:href="#DejaVuSans-37"/>
       <use xlink:href="#DejaVuSans-35" transform="translate(63.623047 0)"/>
       <use xlink:href="#DejaVuSans-30" transform="translate(127.246094 0)"/>
       <use xlink:href="#DejaVuSans-30" transform="translate(190.869141 0)"/>
       <use xlink:href="#DejaVuSans-30" transform="translate(254.492188 0)"/>
      </g>
     </g>
    </g>
    <g id="xtick_5">
     <g id="line2d_9">
      <path d="M 425.818225 390.04 
L 425.818225 10.8 
" clip-path="url(#p71d9e540f0)" style="fill: none; stroke: #b0b0b0; stroke-width: 0.8; stroke-linecap: square"/>
     </g>
     <g id="line2d_10">
      <g>
       <use xlink:href="#mab8cf436a5" x="425.818225" y="390.04" style="stroke: #000000; stroke-width: 0.8"/>
      </g>
     </g>
     <g id="text_5">
      <!-- 100000 -->
      <g transform="translate(406.730725 404.638438) scale(0.1 -0.1)">
       <defs>
        <path id="DejaVuSans-31" d="M 794 531 
L 1825 531 
L 1825 4091 
L 703 3866 
L 703 4441 
L 1819 4666 
L 2450 4666 
L 2450 531 
L 3481 531 
L 3481 0 
L 794 0 
L 794 531 
z
" transform="scale(0.015625)"/>
       </defs>
       <use xlink:href="#DejaVuSans-31"/>
       <use xlink:href="#DejaVuSans-30" transform="translate(63.623047 0)"/>
       <use xlink:href="#DejaVuSans-30" transform="translate(127.246094 0)"/>
       <use xlink:href="#DejaVuSans-30" transform="translate(190.869141 0)"/>
       <use xlink:href="#DejaVuSans-30" transform="translate(254.492188 0)"/>
       <use xlink:href="#DejaVuSans-30" transform="translate(318.115234 0)"/>
      </g>
     </g>
    </g>
    <g id="xtick_6">
     <g id="line2d_11">
      <path d="M 513.383651 390.04 
L 513.383651 10.8 
" clip-path="url(#p71d9e540f0)" style="fill: none; stroke: #b0b0b0; stroke-width: 0.8; stroke-linecap: square"/>
     </g>
     <g id="line2d_12">
      <g>
       <use xlink:href="#mab8cf436a5" x="513.383651" y="390.04" style="stroke: #000000; stroke-width: 0.8"/>
      </g>
     </g>
     <g id="text_6">
      <!-- 125000 -->
      <g transform="translate(494.296151 404.638438) scale(0.1 -0.1)">
       <use xlink:href="#DejaVuSans-31"/>
       <use xlink:href="#DejaVuSans-32" transform="translate(63.623047 0)"/>
       <use xlink:href="#DejaVuSans-35" transform="translate(127.246094 0)"/>
       <use xlink:href="#DejaVuSans-30" transform="translate(190.869141 0)"/>
       <use xlink:href="#DejaVuSans-30" transform="translate(254.492188 0)"/>
       <use xlink:href="#DejaVuSans-30" transform="translate(318.115234 0)"/>
      </g>
     </g>
    </g>
    <g id="xtick_7">
     <g id="line2d_13">
      <path d="M 600.949076 390.04 
L 600.949076 10.8 
" clip-path="url(#p71d9e540f0)" style="fill: none; stroke: #b0b0b0; stroke-width: 0.8; stroke-linecap: square"/>
     </g>
     <g id="line2d_14">
      <g>
       <use xlink:href="#mab8cf436a5" x="600.949076" y="390.04" style="stroke: #000000; stroke-width: 0.8"/>
      </g>
     </g>
     <g id="text_7">
      <!-- 150000 -->
      <g transform="translate(581.861576 404.638438) scale(0.1 -0.1)">
       <use xlink:href="#DejaVuSans-31"/>
       <use xlink:href="#DejaVuSans-35" transform="translate(63.623047 0)"/>
       <use xlink:href="#DejaVuSans-30" transform="translate(127.246094 0)"/>
       <use xlink:href="#DejaVuSans-30" transform="translate(190.869141 0)"/>
       <use xlink:href="#DejaVuSans-30" transform="translate(254.492188 0)"/>
       <use xlink:href="#DejaVuSans-30" transform="translate(318.115234 0)"/>
      </g>
     </g>
    </g>
    <g id="xtick_8">
     <g id="line2d_15">
      <path d="M 688.514502 390.04 
L 688.514502 10.8 
" clip-path="url(#p71d9e540f0)" style="fill: none; stroke: #b0b0b0; stroke-width: 0.8; stroke-linecap: square"/>
     </g>
     <g id="line2d_16">
      <g>
       <use xlink:href="#mab8cf436a5" x="688.514502" y="390.04" style="stroke: #000000; stroke-width: 0.8"/>
      </g>
     </g>
     <g id="text_8">
      <!-- 175000 -->
      <g transform="translate(669.427002 404.638438) scale(0.1 -0.1)">
       <use xlink:href="#DejaVuSans-31"/>
       <use xlink:href="#DejaVuSans-37" transform="translate(63.623047 0)"/>
       <use xlink:href="#DejaVuSans-35" transform="translate(127.246094 0)"/>
       <use xlink:href="#DejaVuSans-30" transform="translate(190.869141 0)"/>
       <use xlink:href="#DejaVuSans-30" transform="translate(254.492188 0)"/>
       <use xlink:href="#DejaVuSans-30" transform="translate(318.115234 0)"/>
      </g>
     </g>
    </g>
    <g id="text_9">
     <!-- Steps -->
     <g transform="translate(360.120998 418.316562) scale(0.1 -0.1)">
      <defs>
       <path id="DejaVuSans-53" d="M 3425 4513 
L 3425 3897 
Q 3066 4069 2747 4153 
Q 2428 4238 2131 4238 
Q 1616 4238 1336 4038 
Q 1056 3838 1056 3469 
Q 1056 3159 1242 3001 
Q 1428 2844 1947 2747 
L 2328 2669 
Q 3034 2534 3370 2195 
Q 3706 1856 3706 1288 
Q 3706 609 3251 259 
Q 2797 -91 1919 -91 
Q 1588 -91 1214 -16 
Q 841 59 441 206 
L 441 856 
Q 825 641 1194 531 
Q 1563 422 1919 422 
Q 2459 422 2753 634 
Q 3047 847 3047 1241 
Q 3047 1584 2836 1778 
Q 2625 1972 2144 2069 
L 1759 2144 
Q 1053 2284 737 2584 
Q 422 2884 422 3419 
Q 422 4038 858 4394 
Q 1294 4750 2059 4750 
Q 2388 4750 2728 4690 
Q 3069 4631 3425 4513 
z
" transform="scale(0.015625)"/>
       <path id="DejaVuSans-74" d="M 1172 4494 
L 1172 3500 
L 2356 3500 
L 2356 3053 
L 1172 3053 
L 1172 1153 
Q 1172 725 1289 603 
Q 1406 481 1766 481 
L 2356 481 
L 2356 0 
L 1766 0 
Q 1100 0 847 248 
Q 594 497 594 1153 
L 594 3053 
L 172 3053 
L 172 3500 
L 594 3500 
L 594 4494 
L 1172 4494 
z
" transform="scale(0.015625)"/>
       <path id="DejaVuSans-65" d="M 3597 1894 
L 3597 1613 
L 953 1613 
Q 991 1019 1311 708 
Q 1631 397 2203 397 
Q 2534 397 2845 478 
Q 3156 559 3463 722 
L 3463 178 
Q 3153 47 2828 -22 
Q 2503 -91 2169 -91 
Q 1331 -91 842 396 
Q 353 884 353 1716 
Q 353 2575 817 3079 
Q 1281 3584 2069 3584 
Q 2775 3584 3186 3129 
Q 3597 2675 3597 1894 
z
M 3022 2063 
Q 3016 2534 2758 2815 
Q 2500 3097 2075 3097 
Q 1594 3097 1305 2825 
Q 1016 2553 972 2059 
L 3022 2063 
z
" transform="scale(0.015625)"/>
       <path id="DejaVuSans-70" d="M 1159 525 
L 1159 -1331 
L 581 -1331 
L 581 3500 
L 1159 3500 
L 1159 2969 
Q 1341 3281 1617 3432 
Q 1894 3584 2278 3584 
Q 2916 3584 3314 3078 
Q 3713 2572 3713 1747 
Q 3713 922 3314 415 
Q 2916 -91 2278 -91 
Q 1894 -91 1617 61 
Q 1341 213 1159 525 
z
M 3116 1747 
Q 3116 2381 2855 2742 
Q 2594 3103 2138 3103 
Q 1681 3103 1420 2742 
Q 1159 2381 1159 1747 
Q 1159 1113 1420 752 
Q 1681 391 2138 391 
Q 2594 391 2855 752 
Q 3116 1113 3116 1747 
z
" transform="scale(0.015625)"/>
       <path id="DejaVuSans-73" d="M 2834 3397 
L 2834 2853 
Q 2591 2978 2328 3040 
Q 2066 3103 1784 3103 
Q 1356 3103 1142 2972 
Q 928 2841 928 2578 
Q 928 2378 1081 2264 
Q 1234 2150 1697 2047 
L 1894 2003 
Q 2506 1872 2764 1633 
Q 3022 1394 3022 966 
Q 3022 478 2636 193 
Q 2250 -91 1575 -91 
Q 1294 -91 989 -36 
Q 684 19 347 128 
L 347 722 
Q 666 556 975 473 
Q 1284 391 1588 391 
Q 1994 391 2212 530 
Q 2431 669 2431 922 
Q 2431 1156 2273 1281 
Q 2116 1406 1581 1522 
L 1381 1569 
Q 847 1681 609 1914 
Q 372 2147 372 2553 
Q 372 3047 722 3315 
Q 1072 3584 1716 3584 
Q 2034 3584 2315 3537 
Q 2597 3491 2834 3397 
z
" transform="scale(0.015625)"/>
      </defs>
      <use xlink:href="#DejaVuSans-53"/>
      <use xlink:href="#DejaVuSans-74" transform="translate(63.476562 0)"/>
      <use xlink:href="#DejaVuSans-65" transform="translate(102.685547 0)"/>
      <use xlink:href="#DejaVuSans-70" transform="translate(164.208984 0)"/>
      <use xlink:href="#DejaVuSans-73" transform="translate(227.685547 0)"/>
     </g>
    </g>
   </g>
   <g id="matplotlib.axis_2">
    <g id="ytick_1">
     <g id="line2d_17">
      <path d="M 47.72 367.640034 
L 700.501683 367.640034 
" clip-path="url(#p71d9e540f0)" style="fill: none; stroke: #b0b0b0; stroke-width: 0.8; stroke-linecap: square"/>
     </g>
     <g id="line2d_18">
      <defs>
       <path id="m4d75fb0e3f" d="M 0 0 
L -3.5 0 
" style="stroke: #000000; stroke-width: 0.8"/>
      </defs>
      <g>
       <use xlink:href="#m4d75fb0e3f" x="47.72" y="367.640034" style="stroke: #000000; stroke-width: 0.8"/>
      </g>
     </g>
     <g id="text_10">
      <!-- 0.4 -->
      <g transform="translate(24.816875 371.439252) scale(0.1 -0.1)">
       <defs>
        <path id="DejaVuSans-2e" d="M 684 794 
L 1344 794 
L 1344 0 
L 684 0 
L 684 794 
z
" transform="scale(0.015625)"/>
        <path id="DejaVuSans-34" d="M 2419 4116 
L 825 1625 
L 2419 1625 
L 2419 4116 
z
M 2253 4666 
L 3047 4666 
L 3047 1625 
L 3713 1625 
L 3713 1100 
L 3047 1100 
L 3047 0 
L 2419 0 
L 2419 1100 
L 313 1100 
L 313 1709 
L 2253 4666 
z
" transform="scale(0.015625)"/>
       </defs>
       <use xlink:href="#DejaVuSans-30"/>
       <use xlink:href="#DejaVuSans-2e" transform="translate(63.623047 0)"/>
       <use xlink:href="#DejaVuSans-34" transform="translate(95.410156 0)"/>
      </g>
     </g>
    </g>
    <g id="ytick_2">
     <g id="line2d_19">
      <path d="M 47.72 311.039725 
L 700.501683 311.039725 
" clip-path="url(#p71d9e540f0)" style="fill: none; stroke: #b0b0b0; stroke-width: 0.8; stroke-linecap: square"/>
     </g>
     <g id="line2d_20">
      <g>
       <use xlink:href="#m4d75fb0e3f" x="47.72" y="311.039725" style="stroke: #000000; stroke-width: 0.8"/>
      </g>
     </g>
     <g id="text_11">
      <!-- 0.5 -->
      <g transform="translate(24.816875 314.838944) scale(0.1 -0.1)">
       <use xlink:href="#DejaVuSans-30"/>
       <use xlink:href="#DejaVuSans-2e" transform="translate(63.623047 0)"/>
       <use xlink:href="#DejaVuSans-35" transform="translate(95.410156 0)"/>
      </g>
     </g>
    </g>
    <g id="ytick_3">
     <g id="line2d_21">
      <path d="M 47.72 254.439416 
L 700.501683 254.439416 
" clip-path="url(#p71d9e540f0)" style="fill: none; stroke: #b0b0b0; stroke-width: 0.8; stroke-linecap: square"/>
     </g>
     <g id="line2d_22">
      <g>
       <use xlink:href="#m4d75fb0e3f" x="47.72" y="254.439416" style="stroke: #000000; stroke-width: 0.8"/>
      </g>
     </g>
     <g id="text_12">
      <!-- 0.6 -->
      <g transform="translate(24.816875 258.238635) scale(0.1 -0.1)">
       <defs>
        <path id="DejaVuSans-36" d="M 2113 2584 
Q 1688 2584 1439 2293 
Q 1191 2003 1191 1497 
Q 1191 994 1439 701 
Q 1688 409 2113 409 
Q 2538 409 2786 701 
Q 3034 994 3034 1497 
Q 3034 2003 2786 2293 
Q 2538 2584 2113 2584 
z
M 3366 4563 
L 3366 3988 
Q 3128 4100 2886 4159 
Q 2644 4219 2406 4219 
Q 1781 4219 1451 3797 
Q 1122 3375 1075 2522 
Q 1259 2794 1537 2939 
Q 1816 3084 2150 3084 
Q 2853 3084 3261 2657 
Q 3669 2231 3669 1497 
Q 3669 778 3244 343 
Q 2819 -91 2113 -91 
Q 1303 -91 875 529 
Q 447 1150 447 2328 
Q 447 3434 972 4092 
Q 1497 4750 2381 4750 
Q 2619 4750 2861 4703 
Q 3103 4656 3366 4563 
z
" transform="scale(0.015625)"/>
       </defs>
       <use xlink:href="#DejaVuSans-30"/>
       <use xlink:href="#DejaVuSans-2e" transform="translate(63.623047 0)"/>
       <use xlink:href="#DejaVuSans-36" transform="translate(95.410156 0)"/>
      </g>
     </g>
    </g>
    <g id="ytick_4">
     <g id="line2d_23">
      <path d="M 47.72 197.839108 
L 700.501683 197.839108 
" clip-path="url(#p71d9e540f0)" style="fill: none; stroke: #b0b0b0; stroke-width: 0.8; stroke-linecap: square"/>
     </g>
     <g id="line2d_24">
      <g>
       <use xlink:href="#m4d75fb0e3f" x="47.72" y="197.839108" style="stroke: #000000; stroke-width: 0.8"/>
      </g>
     </g>
     <g id="text_13">
      <!-- 0.7 -->
      <g transform="translate(24.816875 201.638327) scale(0.1 -0.1)">
       <use xlink:href="#DejaVuSans-30"/>
       <use xlink:href="#DejaVuSans-2e" transform="translate(63.623047 0)"/>
       <use xlink:href="#DejaVuSans-37" transform="translate(95.410156 0)"/>
      </g>
     </g>
    </g>
    <g id="ytick_5">
     <g id="line2d_25">
      <path d="M 47.72 141.238799 
L 700.501683 141.238799 
" clip-path="url(#p71d9e540f0)" style="fill: none; stroke: #b0b0b0; stroke-width: 0.8; stroke-linecap: square"/>
     </g>
     <g id="line2d_26">
      <g>
       <use xlink:href="#m4d75fb0e3f" x="47.72" y="141.238799" style="stroke: #000000; stroke-width: 0.8"/>
      </g>
     </g>
     <g id="text_14">
      <!-- 0.8 -->
      <g transform="translate(24.816875 145.038018) scale(0.1 -0.1)">
       <defs>
        <path id="DejaVuSans-38" d="M 2034 2216 
Q 1584 2216 1326 1975 
Q 1069 1734 1069 1313 
Q 1069 891 1326 650 
Q 1584 409 2034 409 
Q 2484 409 2743 651 
Q 3003 894 3003 1313 
Q 3003 1734 2745 1975 
Q 2488 2216 2034 2216 
z
M 1403 2484 
Q 997 2584 770 2862 
Q 544 3141 544 3541 
Q 544 4100 942 4425 
Q 1341 4750 2034 4750 
Q 2731 4750 3128 4425 
Q 3525 4100 3525 3541 
Q 3525 3141 3298 2862 
Q 3072 2584 2669 2484 
Q 3125 2378 3379 2068 
Q 3634 1759 3634 1313 
Q 3634 634 3220 271 
Q 2806 -91 2034 -91 
Q 1263 -91 848 271 
Q 434 634 434 1313 
Q 434 1759 690 2068 
Q 947 2378 1403 2484 
z
M 1172 3481 
Q 1172 3119 1398 2916 
Q 1625 2713 2034 2713 
Q 2441 2713 2670 2916 
Q 2900 3119 2900 3481 
Q 2900 3844 2670 4047 
Q 2441 4250 2034 4250 
Q 1625 4250 1398 4047 
Q 1172 3844 1172 3481 
z
" transform="scale(0.015625)"/>
       </defs>
       <use xlink:href="#DejaVuSans-30"/>
       <use xlink:href="#DejaVuSans-2e" transform="translate(63.623047 0)"/>
       <use xlink:href="#DejaVuSans-38" transform="translate(95.410156 0)"/>
      </g>
     </g>
    </g>
    <g id="ytick_6">
     <g id="line2d_27">
      <path d="M 47.72 84.63849 
L 700.501683 84.63849 
" clip-path="url(#p71d9e540f0)" style="fill: none; stroke: #b0b0b0; stroke-width: 0.8; stroke-linecap: square"/>
     </g>
     <g id="line2d_28">
      <g>
       <use xlink:href="#m4d75fb0e3f" x="47.72" y="84.63849" style="stroke: #000000; stroke-width: 0.8"/>
      </g>
     </g>
     <g id="text_15">
      <!-- 0.9 -->
      <g transform="translate(24.816875 88.437709) scale(0.1 -0.1)">
       <defs>
        <path id="DejaVuSans-39" d="M 703 97 
L 703 672 
Q 941 559 1184 500 
Q 1428 441 1663 441 
Q 2288 441 2617 861 
Q 2947 1281 2994 2138 
Q 2813 1869 2534 1725 
Q 2256 1581 1919 1581 
Q 1219 1581 811 2004 
Q 403 2428 403 3163 
Q 403 3881 828 4315 
Q 1253 4750 1959 4750 
Q 2769 4750 3195 4129 
Q 3622 3509 3622 2328 
Q 3622 1225 3098 567 
Q 2575 -91 1691 -91 
Q 1453 -91 1209 -44 
Q 966 3 703 97 
z
M 1959 2075 
Q 2384 2075 2632 2365 
Q 2881 2656 2881 3163 
Q 2881 3666 2632 3958 
Q 2384 4250 1959 4250 
Q 1534 4250 1286 3958 
Q 1038 3666 1038 3163 
Q 1038 2656 1286 2365 
Q 1534 2075 1959 2075 
z
" transform="scale(0.015625)"/>
       </defs>
       <use xlink:href="#DejaVuSans-30"/>
       <use xlink:href="#DejaVuSans-2e" transform="translate(63.623047 0)"/>
       <use xlink:href="#DejaVuSans-39" transform="translate(95.410156 0)"/>
      </g>
     </g>
    </g>
    <g id="ytick_7">
     <g id="line2d_29">
      <path d="M 47.72 28.038182 
L 700.501683 28.038182 
" clip-path="url(#p71d9e540f0)" style="fill: none; stroke: #b0b0b0; stroke-width: 0.8; stroke-linecap: square"/>
     </g>
     <g id="line2d_30">
      <g>
       <use xlink:href="#m4d75fb0e3f" x="47.72" y="28.038182" style="stroke: #000000; stroke-width: 0.8"/>
      </g>
     </g>
     <g id="text_16">
      <!-- 1.0 -->
      <g transform="translate(24.816875 31.837401) scale(0.1 -0.1)">
       <use xlink:href="#DejaVuSans-31"/>
       <use xlink:href="#DejaVuSans-2e" transform="translate(63.623047 0)"/>
       <use xlink:href="#DejaVuSans-30" transform="translate(95.410156 0)"/>
      </g>
     </g>
    </g>
    <g id="text_17">
     <!-- Accuracy -->
     <g transform="translate(18.737188 223.248125) rotate(-90) scale(0.1 -0.1)">
      <defs>
       <path id="DejaVuSans-41" d="M 2188 4044 
L 1331 1722 
L 3047 1722 
L 2188 4044 
z
M 1831 4666 
L 2547 4666 
L 4325 0 
L 3669 0 
L 3244 1197 
L 1141 1197 
L 716 0 
L 50 0 
L 1831 4666 
z
" transform="scale(0.015625)"/>
       <path id="DejaVuSans-63" d="M 3122 3366 
L 3122 2828 
Q 2878 2963 2633 3030 
Q 2388 3097 2138 3097 
Q 1578 3097 1268 2742 
Q 959 2388 959 1747 
Q 959 1106 1268 751 
Q 1578 397 2138 397 
Q 2388 397 2633 464 
Q 2878 531 3122 666 
L 3122 134 
Q 2881 22 2623 -34 
Q 2366 -91 2075 -91 
Q 1284 -91 818 406 
Q 353 903 353 1747 
Q 353 2603 823 3093 
Q 1294 3584 2113 3584 
Q 2378 3584 2631 3529 
Q 2884 3475 3122 3366 
z
" transform="scale(0.015625)"/>
       <path id="DejaVuSans-75" d="M 544 1381 
L 544 3500 
L 1119 3500 
L 1119 1403 
Q 1119 906 1312 657 
Q 1506 409 1894 409 
Q 2359 409 2629 706 
Q 2900 1003 2900 1516 
L 2900 3500 
L 3475 3500 
L 3475 0 
L 2900 0 
L 2900 538 
Q 2691 219 2414 64 
Q 2138 -91 1772 -91 
Q 1169 -91 856 284 
Q 544 659 544 1381 
z
M 1991 3584 
L 1991 3584 
z
" transform="scale(0.015625)"/>
       <path id="DejaVuSans-72" d="M 2631 2963 
Q 2534 3019 2420 3045 
Q 2306 3072 2169 3072 
Q 1681 3072 1420 2755 
Q 1159 2438 1159 1844 
L 1159 0 
L 581 0 
L 581 3500 
L 1159 3500 
L 1159 2956 
Q 1341 3275 1631 3429 
Q 1922 3584 2338 3584 
Q 2397 3584 2469 3576 
Q 2541 3569 2628 3553 
L 2631 2963 
z
" transform="scale(0.015625)"/>
       <path id="DejaVuSans-61" d="M 2194 1759 
Q 1497 1759 1228 1600 
Q 959 1441 959 1056 
Q 959 750 1161 570 
Q 1363 391 1709 391 
Q 2188 391 2477 730 
Q 2766 1069 2766 1631 
L 2766 1759 
L 2194 1759 
z
M 3341 1997 
L 3341 0 
L 2766 0 
L 2766 531 
Q 2569 213 2275 61 
Q 1981 -91 1556 -91 
Q 1019 -91 701 211 
Q 384 513 384 1019 
Q 384 1609 779 1909 
Q 1175 2209 1959 2209 
L 2766 2209 
L 2766 2266 
Q 2766 2663 2505 2880 
Q 2244 3097 1772 3097 
Q 1472 3097 1187 3025 
Q 903 2953 641 2809 
L 641 3341 
Q 956 3463 1253 3523 
Q 1550 3584 1831 3584 
Q 2591 3584 2966 3190 
Q 3341 2797 3341 1997 
z
" transform="scale(0.015625)"/>
       <path id="DejaVuSans-79" d="M 2059 -325 
Q 1816 -950 1584 -1140 
Q 1353 -1331 966 -1331 
L 506 -1331 
L 506 -850 
L 844 -850 
Q 1081 -850 1212 -737 
Q 1344 -625 1503 -206 
L 1606 56 
L 191 3500 
L 800 3500 
L 1894 763 
L 2988 3500 
L 3597 3500 
L 2059 -325 
z
" transform="scale(0.015625)"/>
      </defs>
      <use xlink:href="#DejaVuSans-41"/>
      <use xlink:href="#DejaVuSans-63" transform="translate(66.658203 0)"/>
      <use xlink:href="#DejaVuSans-63" transform="translate(121.638672 0)"/>
      <use xlink:href="#DejaVuSans-75" transform="translate(176.619141 0)"/>
      <use xlink:href="#DejaVuSans-72" transform="translate(239.998047 0)"/>
      <use xlink:href="#DejaVuSans-61" transform="translate(281.111328 0)"/>
      <use xlink:href="#DejaVuSans-63" transform="translate(342.390625 0)"/>
      <use xlink:href="#DejaVuSans-79" transform="translate(397.371094 0)"/>
     </g>
    </g>
   </g>
   <g id="line2d_31">
    <path d="M 77.391895 276.324861 
L 81.069643 272.258024 
L 84.936532 266.954365 
L 88.866468 261.12663 
L 92.80341 260.183292 
L 96.687812 248.569747 
L 100.670287 252.804288 
L 104.7018 241.358448 
L 108.666762 237.668947 
L 112.610709 241.23267 
L 116.575671 233.371516 
L 120.4951 218.550621 
L 124.477575 204.652101 
L 128.449543 190.019874 
L 132.467045 174.779717 
L 136.453023 155.430798 
L 140.484535 139.561749 
L 144.197309 113.253088 
L 147.857544 80.173353 
L 151.465239 64.241415 
L 154.792726 46.737246 
L 157.882034 44.158788 
L 160.950326 40.846622 
L 163.931053 35.396222 
L 166.813707 37.744086 
L 169.713874 32.880652 
L 172.600031 33.823991 
L 175.48969 33.740139 
L 178.449401 36.842674 
L 181.360076 32.356576 
L 184.239227 32.230797 
L 187.083352 33.991696 
L 189.955498 29.715228 
L 192.785612 30.427973 
L 198.491376 31.035902 
L 201.339003 30.469899 
L 204.186631 28.22685 
L 207.00974 30.008711 
L 209.84686 29.58945 
L 212.704995 29.924859 
L 215.53511 30.113526 
L 218.37223 30.826271 
L 224.007941 30.197379 
L 226.817039 29.107299 
L 229.640149 29.295966 
L 232.477269 38.100458 
L 235.293373 32.566206 
L 238.109477 28.457443 
L 240.915073 30.532788 
L 243.741685 28.750926 
L 246.554286 30.197379 
L 249.35638 29.861969 
L 252.249542 28.478406 
L 255.086661 30.323157 
L 257.937792 28.876705 
L 260.901006 38.666461 
L 264.393115 39.756541 
L 267.524454 30.993976 
L 270.379087 30.993976 
L 273.342301 41.580329 
L 276.80639 40.993363 
L 279.713562 31.308422 
L 282.571697 41.433587 
L 285.419325 41.538403 
L 288.287968 36.381486 
L 291.146104 36.570154 
L 293.983223 44.053972 
L 296.806333 60.80347 
L 299.63995 48.665849 
L 302.470064 58.791015 
L 305.307184 55.856184 
L 308.133796 59.273165 
L 311.590879 65.058974 
L 314.932376 61.788734 
L 318.091736 63.277113 
L 321.153024 59.126424 
L 324.147761 56.254482 
L 327.142499 49.106073 
L 330.060179 61.117916 
L 333.068927 59.92302 
L 336.112701 50.44771 
L 339.173988 45.26983 
L 342.14771 40.846621 
L 345.216003 43.299301 
L 348.294803 41.161067 
L 351.296546 39.546911 
L 360.32279 40.406397 
L 363.391082 49.08511 
L 366.592474 47.680584 
L 369.846405 51.81031 
L 373.152876 59.943984 
L 376.445336 53.634098 
L 379.692262 52.606907 
L 382.94269 55.415959 
L 386.175606 59.818205 
L 389.359485 57.868639 
L 392.452296 57.323599 
L 395.524091 62.16607 
L 398.490807 62.543405 
L 401.429503 60.489024 
L 404.413733 58.245974 
L 407.404968 62.145107 
L 410.319145 77.552967 
L 413.345406 71.997752 
L 416.277097 67.029503 
L 419.135232 69.796629 
L 421.989865 68.874254 
L 424.956582 70.82382 
L 427.895277 74.764878 
L 430.81646 71.620417 
L 433.709622 69.524109 
L 436.567757 71.955826 
L 439.453913 71.075377 
L 442.333065 69.419294 
L 445.201708 67.511654 
L 448.17543 57.407451 
L 451.124633 57.700934 
L 454.080842 52.984242 
L 457.198171 52.690759 
L 460.199914 55.08055 
L 463.159625 121.680246 
L 466.101824 59.524722 
L 469.005493 56.652781 
L 471.898655 73.297463 
L 474.921413 64.157562 
L 477.849601 63.780227 
L 480.774286 61.725845 
L 483.674453 57.428414 
L 486.56061 58.329827 
L 489.460777 60.698654 
L 492.336425 71.557528 
L 495.23309 62.627257 
L 498.147267 57.491304 
L 501.071952 57.638045 
L 503.958109 56.925301 
L 506.805736 58.204048 
L 509.660369 57.155894 
L 512.599065 67.239134 
L 515.593802 71.64138 
L 518.486964 70.341669 
L 521.387131 61.89355 
L 524.273287 57.659008 
L 527.120915 61.956439 
L 532.80216 58.287901 
L 535.740855 57.596119 
L 538.65153 56.317371 
L 541.520173 56.946264 
L 544.42034 56.506039 
L 547.288984 58.371753 
L 550.189151 55.227291 
L 553.145359 55.981962 
L 556.031516 56.527002 
L 558.903662 55.646553 
L 561.803829 56.317371 
L 564.711001 56.17063 
L 567.607665 56.673744 
L 570.444785 56.98819 
L 573.313428 56.359298 
L 576.182072 56.547965 
L 579.047212 57.763824 
L 581.891337 57.218784 
L 584.721452 54.095285 
L 587.863299 58.476568 
L 590.851032 91.828822 
L 593.796733 59.105461 
L 596.693397 60.132651 
L 599.70915 50.825046 
L 602.843992 51.663569 
L 605.940306 53.696987 
L 608.973572 54.116248 
L 611.985823 56.086778 
L 614.847461 57.051079 
L 617.842198 54.640325 
L 620.787899 79.230013 
L 623.737103 71.075377 
L 626.609249 58.225011 
L 629.547944 58.245974 
L 632.490143 56.799522 
L 635.498891 53.801802 
L 638.476115 57.449378 
L 641.376282 56.736633 
L 644.300967 57.784787 
L 647.169611 58.35079 
L 650.157343 86.189755 
L 653.120557 62.417627 
L 656.038237 59.021608 
L 659.103027 62.312811 
L 662.090759 55.269218 
L 665.046968 55.604627 
L 667.929622 56.422187 
L 670.829789 57.679971 
L 670.829789 57.679971 
" clip-path="url(#p71d9e540f0)" style="fill: none; stroke: #0000ff; stroke-width: 1.5; stroke-linecap: square"/>
   </g>
   <g id="line2d_32">
    <path d="M 77.56002 288.902708 
L 81.2798 281.502741 
L 85.185218 277.603609 
L 89.045102 284.647203 
L 92.933006 277.289163 
L 96.768372 286.995067 
L 100.628256 281.209258 
L 104.495145 277.184347 
L 108.386553 281.56563 
L 112.298976 286.324249 
L 116.109823 275.339597 
L 120.078288 275.716932 
L 124.141324 282.110671 
L 127.857601 273.536772 
L 131.734998 272.29995 
L 135.55285 282.38319 
L 139.566849 271.398538 
L 143.612372 279.532212 
L 147.552816 283.997347 
L 151.370669 283.661938 
L 155.552794 283.158824 
L 159.426688 279.364507 
L 163.381143 279.154876 
L 167.356613 284.668166 
L 171.237513 279.238729 
L 175.11491 281.209258 
L 178.978296 283.033046 
L 182.981787 280.412661 
L 186.820656 284.605277 
L 191.090346 288.651151 
L 194.855659 279.490286 
L 198.740061 285.338985 
L 202.624464 282.17356 
L 206.575416 284.123126 
L 210.627944 277.016643 
L 214.508843 288.001295 
L 218.442282 276.765086 
L 222.438768 283.033046 
L 226.218092 278.882357 
L 230.169044 281.859113 
L 234.162027 275.675006 
L 238.105974 278.6308 
L 242.060429 283.997348 
L 245.808229 288.148037 
L 249.601563 282.152597 
L 253.54551 278.798504 
L 257.461436 281.167332 
L 261.440409 282.341264 
L 265.489434 275.067076 
L 269.55247 281.984892 
L 273.54195 282.257412 
L 277.587473 279.280655 
L 281.247708 285.485726 
L 285.114597 283.934458 
L 289.258193 276.38775 
L 293.219653 279.595101 
L 297.212636 290.978052 
L 301.100541 281.796224 
L 304.830828 285.150317 
L 308.638173 276.010415 
L 312.522575 275.29767 
L 316.55759 287.414329 
L 320.417474 271.377575 
L 324.350913 282.278375 
L 328.354404 277.624572 
L 332.186267 273.851218 
L 335.955083 282.65571 
L 339.825475 272.865953 
L 344.014605 281.314073 
L 347.913018 281.83815 
L 351.839451 279.888584 
L 355.849948 280.349772 
L 359.912984 283.515197 
L 363.849925 285.884024 
L 367.758846 276.827975 
L 371.797363 282.676673 
L 375.846388 280.999627 
L 379.723785 282.362228 
L 383.576664 286.324249 
L 387.496093 286.093655 
L 391.352474 278.6308 
L 395.331447 287.162772 
L 399.184326 286.491954 
L 403.187817 281.481778 
L 407.131764 284.961649 
L 411.044187 276.178119 
L 414.879552 279.846658 
L 418.60984 277.876129 
L 422.473226 289.405821 
L 426.214021 287.749738 
L 430.189491 280.622292 
L 434.038868 283.033046 
L 438.098401 282.194523 
L 442.000316 283.620012 
L 445.947765 290.642643 
L 449.860189 290.516864 
L 453.460879 282.634747 
L 457.334773 284.123126 
L 461.306741 275.276707 
L 465.22617 282.676674 
L 468.98798 280.580366 
L 472.966953 284.56335 
L 477.068518 278.127686 
L 481.11404 282.697637 
L 484.935396 284.165052 
L 488.746243 281.984892 
L 492.571101 281.649483 
L 496.402964 282.571858 
L 500.259345 287.372403 
L 504.038669 276.366787 
L 507.846013 282.38319 
L 511.779452 289.846046 
L 515.660352 274.857446 
L 519.614807 278.945246 
L 523.523727 284.856834 
L 527.537726 283.137861 
L 531.576244 275.02515 
L 535.415112 286.072692 
L 539.201441 286.890252 
L 542.858173 283.389418 
L 546.777602 283.599049 
L 550.647993 287.89648 
L 554.469349 284.437572 
L 558.136589 278.56791 
L 561.978959 281.376963 
L 565.877372 280.223994 
L 569.9299 279.972437 
L 573.775774 283.536159 
L 577.611139 280.496514 
L 581.677678 268.296002 
L 589.551561 277.037606 
L 593.621602 280.706144 
L 597.372904 282.44608 
L 601.320354 287.602997 
L 604.952568 283.26364 
L 608.647829 288.420557 
L 612.476189 276.765086 
L 616.430644 284.961649 
L 620.29403 291.187683 
L 624.304527 277.456867 
L 628.346547 281.08348 
L 632.279986 274.584926 
L 636.297487 286.596769 
L 640.255445 275.213818 
L 644.045276 284.563351 
L 647.740537 281.272148 
L 651.355238 288.106111 
L 655.117049 281.859114 
L 658.917388 278.945246 
L 662.794785 280.098215 
L 666.742235 282.38319 
L 670.598616 296.742898 
L 670.598616 296.742898 
" clip-path="url(#p71d9e540f0)" style="fill: none; stroke: #ffa500; stroke-width: 1.5; stroke-linecap: square"/>
   </g>
   <g id="patch_3">
    <path d="M 47.72 390.04 
L 47.72 10.8 
" style="fill: none; stroke: #000000; stroke-width: 0.8; stroke-linejoin: miter; stroke-linecap: square"/>
   </g>
   <g id="patch_4">
    <path d="M 700.501683 390.04 
L 700.501683 10.8 
" style="fill: none; stroke: #000000; stroke-width: 0.8; stroke-linejoin: miter; stroke-linecap: square"/>
   </g>
   <g id="patch_5">
    <path d="M 47.72 390.04 
L 700.501683 390.04 
" style="fill: none; stroke: #000000; stroke-width: 0.8; stroke-linejoin: miter; stroke-linecap: square"/>
   </g>
   <g id="patch_6">
    <path d="M 47.72 10.8 
L 700.501683 10.8 
" style="fill: none; stroke: #000000; stroke-width: 0.8; stroke-linejoin: miter; stroke-linecap: square"/>
   </g>
   <g id="legend_1">
    <g id="patch_7">
     <path d="M 620.104808 385.04 
L 693.501683 385.04 
Q 695.501683 385.04 695.501683 383.04 
L 695.501683 340.005625 
Q 695.501683 338.005625 693.501683 338.005625 
L 620.104808 338.005625 
Q 618.104808 338.005625 618.104808 340.005625 
L 618.104808 383.04 
Q 618.104808 385.04 620.104808 385.04 
z
" style="fill: #ffffff; opacity: 0.8; stroke: #cccccc; stroke-linejoin: miter"/>
    </g>
    <g id="text_18">
     <!-- Agent -->
     <g transform="translate(642.003246 349.604062) scale(0.1 -0.1)">
      <defs>
       <path id="DejaVuSans-67" d="M 2906 1791 
Q 2906 2416 2648 2759 
Q 2391 3103 1925 3103 
Q 1463 3103 1205 2759 
Q 947 2416 947 1791 
Q 947 1169 1205 825 
Q 1463 481 1925 481 
Q 2391 481 2648 825 
Q 2906 1169 2906 1791 
z
M 3481 434 
Q 3481 -459 3084 -895 
Q 2688 -1331 1869 -1331 
Q 1566 -1331 1297 -1286 
Q 1028 -1241 775 -1147 
L 775 -588 
Q 1028 -725 1275 -790 
Q 1522 -856 1778 -856 
Q 2344 -856 2625 -561 
Q 2906 -266 2906 331 
L 2906 616 
Q 2728 306 2450 153 
Q 2172 0 1784 0 
Q 1141 0 747 490 
Q 353 981 353 1791 
Q 353 2603 747 3093 
Q 1141 3584 1784 3584 
Q 2172 3584 2450 3431 
Q 2728 3278 2906 2969 
L 2906 3500 
L 3481 3500 
L 3481 434 
z
" transform="scale(0.015625)"/>
       <path id="DejaVuSans-6e" d="M 3513 2113 
L 3513 0 
L 2938 0 
L 2938 2094 
Q 2938 2591 2744 2837 
Q 2550 3084 2163 3084 
Q 1697 3084 1428 2787 
Q 1159 2491 1159 1978 
L 1159 0 
L 581 0 
L 581 3500 
L 1159 3500 
L 1159 2956 
Q 1366 3272 1645 3428 
Q 1925 3584 2291 3584 
Q 2894 3584 3203 3211 
Q 3513 2838 3513 2113 
z
" transform="scale(0.015625)"/>
      </defs>
      <use xlink:href="#DejaVuSans-41"/>
      <use xlink:href="#DejaVuSans-67" transform="translate(68.408203 0)"/>
      <use xlink:href="#DejaVuSans-65" transform="translate(131.884766 0)"/>
      <use xlink:href="#DejaVuSans-6e" transform="translate(193.408203 0)"/>
      <use xlink:href="#DejaVuSans-74" transform="translate(256.787109 0)"/>
     </g>
    </g>
    <g id="line2d_33">
     <path d="M 622.104808 360.782187 
L 632.104808 360.782187 
L 642.104808 360.782187 
" style="fill: none; stroke: #0000ff; stroke-width: 1.5; stroke-linecap: square"/>
    </g>
    <g id="text_19">
     <!-- PPO -->
     <g transform="translate(650.104808 364.282187) scale(0.1 -0.1)">
      <defs>
       <path id="DejaVuSans-50" d="M 1259 4147 
L 1259 2394 
L 2053 2394 
Q 2494 2394 2734 2622 
Q 2975 2850 2975 3272 
Q 2975 3691 2734 3919 
Q 2494 4147 2053 4147 
L 1259 4147 
z
M 628 4666 
L 2053 4666 
Q 2838 4666 3239 4311 
Q 3641 3956 3641 3272 
Q 3641 2581 3239 2228 
Q 2838 1875 2053 1875 
L 1259 1875 
L 1259 0 
L 628 0 
L 628 4666 
z
" transform="scale(0.015625)"/>
       <path id="DejaVuSans-4f" d="M 2522 4238 
Q 1834 4238 1429 3725 
Q 1025 3213 1025 2328 
Q 1025 1447 1429 934 
Q 1834 422 2522 422 
Q 3209 422 3611 934 
Q 4013 1447 4013 2328 
Q 4013 3213 3611 3725 
Q 3209 4238 2522 4238 
z
M 2522 4750 
Q 3503 4750 4090 4092 
Q 4678 3434 4678 2328 
Q 4678 1225 4090 567 
Q 3503 -91 2522 -91 
Q 1538 -91 948 565 
Q 359 1222 359 2328 
Q 359 3434 948 4092 
Q 1538 4750 2522 4750 
z
" transform="scale(0.015625)"/>
      </defs>
      <use xlink:href="#DejaVuSans-50"/>
      <use xlink:href="#DejaVuSans-50" transform="translate(60.302734 0)"/>
      <use xlink:href="#DejaVuSans-4f" transform="translate(120.605469 0)"/>
     </g>
    </g>
    <g id="line2d_34">
     <path d="M 622.104808 375.460312 
L 632.104808 375.460312 
L 642.104808 375.460312 
" style="fill: none; stroke: #ffa500; stroke-width: 1.5; stroke-linecap: square"/>
    </g>
    <g id="text_20">
     <!-- Random -->
     <g transform="translate(650.104808 378.960312) scale(0.1 -0.1)">
      <defs>
       <path id="DejaVuSans-52" d="M 2841 2188 
Q 3044 2119 3236 1894 
Q 3428 1669 3622 1275 
L 4263 0 
L 3584 0 
L 2988 1197 
Q 2756 1666 2539 1819 
Q 2322 1972 1947 1972 
L 1259 1972 
L 1259 0 
L 628 0 
L 628 4666 
L 2053 4666 
Q 2853 4666 3247 4331 
Q 3641 3997 3641 3322 
Q 3641 2881 3436 2590 
Q 3231 2300 2841 2188 
z
M 1259 4147 
L 1259 2491 
L 2053 2491 
Q 2509 2491 2742 2702 
Q 2975 2913 2975 3322 
Q 2975 3731 2742 3939 
Q 2509 4147 2053 4147 
L 1259 4147 
z
" transform="scale(0.015625)"/>
       <path id="DejaVuSans-64" d="M 2906 2969 
L 2906 4863 
L 3481 4863 
L 3481 0 
L 2906 0 
L 2906 525 
Q 2725 213 2448 61 
Q 2172 -91 1784 -91 
Q 1150 -91 751 415 
Q 353 922 353 1747 
Q 353 2572 751 3078 
Q 1150 3584 1784 3584 
Q 2172 3584 2448 3432 
Q 2725 3281 2906 2969 
z
M 947 1747 
Q 947 1113 1208 752 
Q 1469 391 1925 391 
Q 2381 391 2643 752 
Q 2906 1113 2906 1747 
Q 2906 2381 2643 2742 
Q 2381 3103 1925 3103 
Q 1469 3103 1208 2742 
Q 947 2381 947 1747 
z
" transform="scale(0.015625)"/>
       <path id="DejaVuSans-6f" d="M 1959 3097 
Q 1497 3097 1228 2736 
Q 959 2375 959 1747 
Q 959 1119 1226 758 
Q 1494 397 1959 397 
Q 2419 397 2687 759 
Q 2956 1122 2956 1747 
Q 2956 2369 2687 2733 
Q 2419 3097 1959 3097 
z
M 1959 3584 
Q 2709 3584 3137 3096 
Q 3566 2609 3566 1747 
Q 3566 888 3137 398 
Q 2709 -91 1959 -91 
Q 1206 -91 779 398 
Q 353 888 353 1747 
Q 353 2609 779 3096 
Q 1206 3584 1959 3584 
z
" transform="scale(0.015625)"/>
       <path id="DejaVuSans-6d" d="M 3328 2828 
Q 3544 3216 3844 3400 
Q 4144 3584 4550 3584 
Q 5097 3584 5394 3201 
Q 5691 2819 5691 2113 
L 5691 0 
L 5113 0 
L 5113 2094 
Q 5113 2597 4934 2840 
Q 4756 3084 4391 3084 
Q 3944 3084 3684 2787 
Q 3425 2491 3425 1978 
L 3425 0 
L 2847 0 
L 2847 2094 
Q 2847 2600 2669 2842 
Q 2491 3084 2119 3084 
Q 1678 3084 1418 2786 
Q 1159 2488 1159 1978 
L 1159 0 
L 581 0 
L 581 3500 
L 1159 3500 
L 1159 2956 
Q 1356 3278 1631 3431 
Q 1906 3584 2284 3584 
Q 2666 3584 2933 3390 
Q 3200 3197 3328 2828 
z
" transform="scale(0.015625)"/>
      </defs>
      <use xlink:href="#DejaVuSans-52"/>
      <use xlink:href="#DejaVuSans-61" transform="translate(67.232422 0)"/>
      <use xlink:href="#DejaVuSans-6e" transform="translate(128.511719 0)"/>
      <use xlink:href="#DejaVuSans-64" transform="translate(191.890625 0)"/>
      <use xlink:href="#DejaVuSans-6f" transform="translate(255.367188 0)"/>
      <use xlink:href="#DejaVuSans-6d" transform="translate(316.548828 0)"/>
     </g>
    </g>
   </g>
  </g>
 </g>
 <defs>
  <clipPath id="p71d9e540f0">
   <rect x="47.72" y="10.8" width="652.781683" height="379.24"/>
  </clipPath>
 </defs>
</svg>
