<?xml version="1.0" encoding="utf-8" standalone="no"?>
<!DOCTYPE svg PUBLIC "-//W3C//DTD SVG 1.1//EN"
  "http://www.w3.org/Graphics/SVG/1.1/DTD/svg11.dtd">
<svg xmlns:xlink="http://www.w3.org/1999/xlink" width="720pt" height="432pt" viewBox="0 0 720 432" xmlns="http://www.w3.org/2000/svg" version="1.1">
 <metadata>
  <rdf:RDF xmlns:dc="http://purl.org/dc/elements/1.1/" xmlns:cc="http://creativecommons.org/ns#" xmlns:rdf="http://www.w3.org/1999/02/22-rdf-syntax-ns#">
   <cc:Work>
    <dc:type rdf:resource="http://purl.org/dc/dcmitype/StillImage"/>
    <dc:date>2025-04-15T17:24:39.605817</dc:date>
    <dc:format>image/svg+xml</dc:format>
    <dc:creator>
     <cc:Agent>
      <dc:title>Matplotlib v3.10.0, https://matplotlib.org/</dc:title>
     </cc:Agent>
    </dc:creator>
   </cc:Work>
  </rdf:RDF>
 </metadata>
 <defs>
  <style type="text/css">*{stroke-linejoin: round; stroke-linecap: butt}</style>
 </defs>
 <g id="figure_1">
  <g id="patch_1">
   <path d="M 0 432 
L 720 432 
L 720 0 
L 0 0 
z
" style="fill: #ffffff"/>
  </g>
  <g id="axes_1">
   <g id="patch_2">
    <path d="M 50.87 390.04 
L 700.501683 390.04 
L 700.501683 10.8 
L 50.87 10.8 
z
" style="fill: #ffffff"/>
   </g>
   <g id="FillBetweenPolyCollection_1">
    <defs>
     <path id="mdc54fea1bb" d="M 80.398713 -92.028345 
L 80.398713 -65.180523 
L 84.058714 -65.570136 
L 87.906943 -64.925579 
L 91.817916 -64.850183 
L 95.735859 -65.27288 
L 99.601518 -64.577274 
L 103.564776 -64.906257 
L 107.576834 -66.160788 
L 111.522663 -63.279798 
L 115.447579 -64.311686 
L 119.393408 -64.065326 
L 123.293923 -62.534483 
L 127.257181 -60.539159 
L 131.209982 -60.007193 
L 135.208098 -68.39994 
L 139.174841 -75.03694 
L 143.1869 -89.439428 
L 146.881758 -140.495702 
L 150.52433 -181.526569 
L 154.114616 -235.450465 
L 157.426046 -286.153154 
L 160.500447 -303.395619 
L 163.553933 -317.710991 
L 166.520277 -331.944681 
L 169.38902 -327.177813 
L 172.275192 -345.950831 
L 175.147422 -342.425713 
L 178.023137 -334.848347 
L 180.968566 -333.45131 
L 183.865195 -351.734773 
L 186.730453 -351.754667 
L 189.560854 -346.331237 
L 192.41914 -358.172755 
L 195.235598 -352.368824 
L 198.04857 -354.63824 
L 200.913828 -348.870341 
L 203.747714 -356.498379 
L 206.581601 -360.592841 
L 209.391087 -355.851994 
L 212.214516 -358.186437 
L 215.05886 -357.012355 
L 217.875318 -353.544833 
L 220.698747 -353.489024 
L 223.501262 -354.200056 
L 226.307263 -355.840412 
L 229.102806 -359.375758 
L 231.912292 -360.507326 
L 234.735722 -316.124954 
L 237.538237 -343.006968 
L 240.340752 -360.577168 
L 243.13281 -355.8131 
L 245.945782 -359.404655 
L 248.744811 -354.691236 
L 251.533383 -355.861117 
L 254.412584 -359.418549 
L 257.236013 -348.926327 
L 260.073385 -357.086464 
L 263.0223 -261.771816 
L 266.497558 -267.391842 
L 269.613787 -341.500257 
L 272.454645 -348.873568 
L 275.40356 -264.757814 
L 278.850932 -278.527982 
L 281.744076 -339.86019 
L 284.58842 -310.329506 
L 287.422306 -308.488467 
L 290.277107 -323.370557 
L 293.12145 -323.143715 
L 295.944879 -304.116449 
L 298.754366 -220.368859 
L 301.574309 -243.449482 
L 304.390767 -204.547784 
L 307.214196 -191.475185 
L 310.027169 -162.359928 
L 313.467569 -101.240973 
L 316.792942 -109.763494 
L 319.937057 -109.570402 
L 322.983572 -120.907248 
L 325.963858 -128.13067 
L 328.944145 -145.89852 
L 331.847745 -118.312936 
L 334.841975 -114.628334 
L 337.871061 -161.662051 
L 340.917576 -175.711664 
L 343.876948 -216.594763 
L 346.930435 -188.078764 
L 349.994378 -211.436782 
L 352.981636 -228.596217 
L 355.937523 -223.702658 
L 358.896895 -238.852355 
L 361.964324 -217.852646 
L 365.017811 -188.790868 
L 368.203754 -161.600486 
L 371.441983 -133.69111 
L 374.732499 -97.776555 
L 378.009071 -119.077925 
L 381.240329 -122.781425 
L 384.475072 -109.083053 
L 387.692387 -103.099505 
L 390.860902 -111.105917 
L 393.938789 -106.272913 
L 396.995761 -89.464994 
L 399.948162 -92.681329 
L 402.872677 -99.482129 
L 405.842506 -102.93778 
L 408.819307 -88.716195 
L 411.719422 -76.374205 
L 414.73108 -78.349381 
L 417.648623 -74.915126 
L 420.492967 -67.185983 
L 423.333825 -69.614196 
L 426.286225 -59.198182 
L 429.21074 -59.198182 
L 432.117827 -61.482452 
L 434.997027 -72.674581 
L 437.841371 -64.287672 
L 440.7136 -67.183229 
L 443.578858 -84.469407 
L 446.433659 -84.877875 
L 449.393031 -118.154696 
L 452.328003 -121.86804 
L 455.269947 -136.618527 
L 458.372233 -132.035147 
L 461.359491 -129.139391 
L 464.30492 -75.748908 
L 467.232921 -127.640613 
L 470.122579 -125.713009 
L 473.00178 -92.667793 
L 476.009952 -113.000461 
L 478.92401 -110.557518 
L 481.834582 -118.993848 
L 484.720754 -129.17277 
L 487.592983 -126.074468 
L 490.479155 -115.06533 
L 493.340927 -89.351766 
L 496.223614 -115.895791 
L 499.123729 -127.56634 
L 502.034301 -129.171465 
L 504.90653 -131.091035 
L 507.740417 -129.39005 
L 510.581274 -130.865582 
L 513.505789 -61.946315 
L 516.486076 -67.635054 
L 519.365277 -74.996682 
L 522.251449 -108.391155 
L 525.123678 -128.477688 
L 527.957564 -117.290045 
L 530.801908 -120.758487 
L 533.611394 -125.610924 
L 536.535909 -125.195133 
L 539.432539 -130.9311 
L 542.287339 -130.879885 
L 545.173511 -130.913587 
L 548.028312 -123.227359 
L 550.914484 -132.645324 
L 553.856428 -132.32181 
L 556.728657 -132.060739 
L 559.586943 -133.752107 
L 562.473116 -131.865759 
L 565.366259 -135.547026 
L 568.248946 -131.837865 
L 571.072375 -131.34409 
L 573.927175 -132.080369 
L 576.781976 -131.379687 
L 579.633291 -131.975744 
L 582.463692 -130.858881 
L 585.28015 -135.023465 
L 588.406836 -130.880505 
L 591.380151 -77.771364 
L 594.311638 -129.968608 
L 597.194324 -130.64438 
L 600.195525 -156.680849 
L 603.31524 -153.841296 
L 606.396612 -139.188991 
L 609.415241 -136.855811 
L 612.412956 -136.2312 
L 615.260786 -130.630954 
L 618.241072 -136.131201 
L 621.172558 -79.894363 
L 624.107531 -96.512635 
L 626.965817 -129.3728 
L 629.890332 -115.254696 
L 632.818333 -127.61247 
L 635.812562 -135.517259 
L 638.77542 -129.467921 
L 641.661592 -127.131108 
L 644.572164 -127.998582 
L 647.426965 -127.506326 
L 650.40028 -80.049617 
L 653.349195 -117.560025 
L 656.252795 -125.466223 
L 659.302796 -116.079588 
L 662.276111 -137.443971 
L 665.218055 -131.452365 
L 668.086798 -133.689088 
L 670.97297 -130.367023 
L 670.97297 -402.50724 
L 670.97297 -402.50724 
L 668.086798 -403.07972 
L 665.218055 -403.464911 
L 662.276111 -401.306113 
L 659.302796 -384.100023 
L 656.252795 -392.078866 
L 653.349195 -388.319759 
L 650.40028 -352.817747 
L 647.426965 -399.608597 
L 644.572164 -400.104348 
L 641.661592 -399.137289 
L 638.77542 -401.517108 
L 635.812562 -403.33092 
L 632.818333 -399.605672 
L 629.890332 -387.095354 
L 626.965817 -401.559297 
L 624.107531 -368.791048 
L 621.172558 -349.622629 
L 618.241072 -402.661485 
L 615.260786 -401.332673 
L 612.412956 -401.512163 
L 609.415241 -401.971231 
L 606.396612 -401.572501 
L 603.31524 -398.486896 
L 600.195525 -398.559978 
L 597.194324 -400.159816 
L 594.311638 -398.050092 
L 591.380151 -348.08759 
L 588.406836 -393.370969 
L 585.28015 -402.851112 
L 582.463692 -402.99851 
L 579.633291 -402.798125 
L 576.781976 -403.475226 
L 573.927175 -402.786218 
L 571.072375 -403.481166 
L 568.248946 -403.961818 
L 565.366259 -402.189161 
L 562.473116 -403.956893 
L 559.586943 -403.06848 
L 556.728657 -402.796207 
L 553.856428 -401.618615 
L 550.914484 -403.250381 
L 548.028312 -395.310479 
L 545.173511 -402.991211 
L 542.287339 -402.996463 
L 539.432539 -402.986008 
L 536.535909 -397.203687 
L 533.611394 -397.695505 
L 530.801908 -392.895856 
L 527.957564 -386.716414 
L 525.123678 -400.586916 
L 522.251449 -380.378171 
L 519.365277 -345.568898 
L 516.486076 -339.506472 
L 513.505789 -332.151125 
L 510.581274 -402.99654 
L 507.740417 -401.543974 
L 504.90653 -401.832985 
L 502.034301 -399.894367 
L 499.123729 -399.601357 
L 496.223614 -388.05781 
L 493.340927 -361.595805 
L 490.479155 -387.115233 
L 487.592983 -398.179864 
L 484.720754 -399.904133 
L 481.834582 -389.786124 
L 478.92401 -379.984391 
L 476.009952 -375.617626 
L 473.00178 -358.199464 
L 470.122579 -397.701994 
L 467.232921 -398.441944 
L 464.30492 -346.18271 
L 461.359491 -401.050023 
L 458.372233 -398.312482 
L 455.269947 -397.520979 
L 452.328003 -393.85438 
L 449.393031 -380.43868 
L 446.433659 -356.835396 
L 443.578858 -355.210927 
L 440.7136 -339.042538 
L 437.841371 -336.164022 
L 434.997027 -343.182347 
L 432.117827 -333.274986 
L 429.21074 -319.623692 
L 426.286225 -328.08163 
L 423.333825 -338.664545 
L 420.492967 -336.265763 
L 417.648623 -343.964302 
L 414.73108 -325.917879 
L 411.719422 -306.570171 
L 408.819307 -359.070337 
L 405.842506 -374.641321 
L 402.872677 -371.278763 
L 399.948162 -361.745373 
L 396.995761 -361.177133 
L 393.938789 -375.176495 
L 390.860902 -376.02764 
L 387.692387 -354.371046 
L 384.475072 -369.638004 
L 381.240329 -375.180329 
L 378.009071 -367.38452 
L 374.732499 -343.487304 
L 371.441983 -364.325186 
L 368.203754 -369.081576 
L 365.017811 -369.42809 
L 361.964324 -372.381776 
L 358.896895 -370.449953 
L 355.937523 -374.190138 
L 352.981636 -375.030982 
L 349.994378 -376.839925 
L 346.930435 -372.425081 
L 343.876948 -379.32295 
L 340.917576 -372.277143 
L 337.871061 -370.743389 
L 334.841975 -352.367004 
L 331.847745 -362.89534 
L 328.944145 -384.676959 
L 325.963858 -375.298486 
L 322.983572 -361.37027 
L 319.937057 -351.473247 
L 316.792942 -357.073481 
L 313.467569 -347.275805 
L 310.027169 -366.56981 
L 307.214196 -379.595848 
L 304.390767 -373.959426 
L 301.574309 -378.593903 
L 298.754366 -378.000953 
L 295.944879 -371.582603 
L 293.12145 -371.150419 
L 290.277107 -369.979802 
L 287.422306 -373.096778 
L 284.58842 -372.214797 
L 281.744076 -367.157832 
L 278.850932 -372.590025 
L 275.40356 -377.745141 
L 272.454645 -366.736125 
L 269.613787 -367.437323 
L 266.497558 -376.180969 
L 263.0223 -379.968749 
L 260.073385 -365.325731 
L 257.236013 -366.728117 
L 254.412584 -364.924529 
L 251.533383 -365.536695 
L 248.744811 -365.740648 
L 245.945782 -364.931522 
L 243.13281 -365.548133 
L 240.340752 -364.730611 
L 237.538237 -367.743903 
L 234.735722 -372.354262 
L 231.912292 -364.741212 
L 229.102806 -364.93618 
L 226.307263 -365.543069 
L 223.501262 -365.258564 
L 220.698747 -365.945357 
L 217.875318 -365.936078 
L 215.05886 -365.340801 
L 212.214516 -365.139431 
L 209.391087 -365.540663 
L 206.581601 -364.726189 
L 203.747714 -364.863901 
L 200.913828 -366.736261 
L 198.04857 -365.746903 
L 195.235598 -366.137437 
L 192.41914 -365.140899 
L 189.560854 -367.172095 
L 186.730453 -365.67037 
L 183.865195 -365.682305 
L 180.968566 -369.378134 
L 178.023137 -369.13822 
L 175.147422 -367.271189 
L 172.275192 -366.668125 
L 169.38902 -369.876944 
L 166.520277 -369.060718 
L 163.553933 -371.496789 
L 160.500447 -372.244466 
L 157.426046 -374.061937 
L 154.114616 -373.092373 
L 150.52433 -363.084908 
L 146.881758 -328.56403 
L 143.1869 -286.404201 
L 139.174841 -239.743212 
L 135.208098 -202.237892 
L 131.209982 -182.955575 
L 127.257181 -153.832534 
L 123.293923 -126.176096 
L 119.393408 -111.280038 
L 115.447579 -107.657098 
L 111.522663 -111.781905 
L 107.576834 -91.512924 
L 103.564776 -92.951178 
L 99.601518 -99.298924 
L 95.735859 -88.281231 
L 91.817916 -91.478363 
L 87.906943 -89.096922 
L 84.058714 -84.28921 
L 80.398713 -92.028345 
z
" style="stroke: #0000ff; stroke-opacity: 0.2"/>
    </defs>
    <g clip-path="url(#pf529c1953c)">
     <use xlink:href="#mdc54fea1bb" x="0" y="432" style="fill: #0000ff; fill-opacity: 0.2; stroke: #0000ff; stroke-opacity: 0.2"/>
    </g>
   </g>
   <g id="FillBetweenPolyCollection_2">
    <defs>
     <path id="maf80969a77" d="M 80.566027 -81.90224 
L 80.566027 -65.89031 
L 84.267857 -65.915853 
L 88.154429 -64.935148 
L 91.995687 -65.538362 
L 95.864831 -64.620331 
L 99.681689 -65.797656 
L 103.522947 -65.162533 
L 107.371177 -65.076757 
L 111.243806 -64.964162 
L 115.13735 -65.93051 
L 118.929808 -66.097012 
L 122.879123 -65.256384 
L 126.922553 -65.602337 
L 130.620896 -65.670311 
L 134.479583 -65.129277 
L 138.279013 -66.204441 
L 142.273642 -64.948582 
L 146.299643 -65.180545 
L 150.221073 -65.988197 
L 154.020502 -65.574121 
L 158.182446 -65.773295 
L 162.037647 -65.426787 
L 165.973019 -64.190455 
L 169.929306 -64.408024 
L 173.791478 -65.122872 
L 177.650165 -65.053124 
L 181.494909 -66.522915 
L 185.479081 -65.799802 
L 189.299425 -66.150361 
L 193.548512 -65.585004 
L 197.295656 -65.117772 
L 201.161314 -65.262705 
L 205.026972 -65.522553 
L 208.958858 -65.729814 
L 212.991831 -65.724826 
L 216.854003 -65.21261 
L 220.768461 -66.512089 
L 224.745662 -65.905746 
L 228.506749 -65.514512 
L 232.438635 -65.544646 
L 236.412351 -64.709655 
L 240.337266 -64.712464 
L 244.272638 -64.887505 
L 248.002354 -65.170308 
L 251.777383 -64.840744 
L 255.702298 -65.452384 
L 259.599328 -66.094084 
L 263.5591 -65.725029 
L 267.588587 -65.923159 
L 271.632016 -65.320333 
L 275.602246 -65.219618 
L 279.628247 -64.883116 
L 283.270819 -64.793116 
L 287.119049 -65.476734 
L 291.24265 -65.560241 
L 295.184994 -66.008821 
L 299.158709 -66.046699 
L 303.027853 -65.649886 
L 306.740139 -65.141249 
L 310.529112 -64.661725 
L 314.39477 -65.517788 
L 318.410313 -65.953003 
L 322.251572 -65.438183 
L 326.16603 -64.291869 
L 330.150202 -65.384262 
L 333.963574 -65.693842 
L 337.714204 -65.445901 
L 341.565919 -65.950022 
L 345.734834 -67.16221 
L 349.614435 -64.964274 
L 353.521922 -65.764663 
L 357.513066 -64.890035 
L 361.556495 -64.158853 
L 365.474439 -65.192815 
L 369.364497 -65.060434 
L 373.383527 -65.665937 
L 377.413014 -65.772073 
L 381.2717 -64.462541 
L 385.105987 -65.70342 
L 389.006502 -65.954299 
L 392.844274 -66.118477 
L 396.804047 -66.105179 
L 400.638333 -64.909414 
L 404.622506 -64.651309 
L 408.547421 -63.87495 
L 412.440965 -65.649959 
L 416.257823 -65.220987 
L 419.97011 -66.019539 
L 423.814853 -66.18941 
L 427.537597 -64.472655 
L 431.493884 -66.166852 
L 435.324685 -65.893046 
L 439.364629 -65.301535 
L 443.247715 -65.00666 
L 447.176116 -65.687085 
L 451.06966 -65.529858 
L 454.652975 -65.194444 
L 458.508176 -66.321888 
L 462.460977 -65.433945 
L 466.361492 -64.135655 
L 470.10515 -65.036592 
L 474.064923 -65.127195 
L 478.146695 -66.29309 
L 482.172696 -64.298044 
L 485.975611 -65.141752 
L 489.768069 -64.825519 
L 493.57447 -64.819109 
L 497.387843 -65.08761 
L 501.225615 -66.117924 
L 504.986702 -65.405575 
L 508.775674 -66.799819 
L 512.690132 -66.086632 
L 516.552304 -65.676369 
L 520.487677 -65.578159 
L 524.377735 -66.777792 
L 528.372364 -65.698633 
L 532.391394 -65.896658 
L 536.211738 -65.436667 
L 539.979796 -65.36221 
L 543.618882 -65.827901 
L 547.519398 -65.275163 
L 551.371113 -66.141716 
L 555.174028 -64.971004 
L 558.823572 -66.652331 
L 562.647401 -66.705495 
L 566.527002 -64.700868 
L 570.559975 -65.287406 
L 574.38729 -65.962669 
L 578.204148 -65.105458 
L 582.251063 -64.970869 
L 586.155064 -66.290751 
L 590.086951 -65.339235 
L 594.137352 -66.092581 
L 597.870553 -65.856666 
L 601.798954 -65.487482 
L 605.41364 -65.089765 
L 609.09107 -65.173955 
L 612.900956 -64.674804 
L 616.836329 -65.331902 
L 620.681073 -65.726477 
L 624.672216 -65.33187 
L 628.694732 -66.066893 
L 632.60919 -65.116957 
L 636.607305 -65.738617 
L 640.546163 -66.388153 
L 644.317707 -65.791926 
L 647.995136 -63.972116 
L 651.592394 -65.756442 
L 655.336052 -65.812512 
L 659.118053 -65.2236 
L 662.97674 -63.714156 
L 666.905141 -66.358843 
L 670.742913 -65.903605 
L 670.742913 -77.564335 
L 670.742913 -77.564335 
L 666.905141 -77.116793 
L 662.97674 -93.2103 
L 659.118053 -84.178576 
L 655.336052 -84.353103 
L 651.592394 -80.178775 
L 647.995136 -94.797861 
L 644.317707 -80.391505 
L 640.546163 -82.300023 
L 636.607305 -80.309334 
L 632.60919 -86.47164 
L 628.694732 -83.196363 
L 624.672216 -85.130838 
L 620.681073 -81.905296 
L 616.836329 -82.725807 
L 612.900956 -88.676183 
L 609.09107 -83.606157 
L 605.41364 -84.984348 
L 601.798954 -81.447586 
L 597.870553 -80.472078 
L 594.137352 -79.387032 
L 590.086951 -85.134131 
L 586.155064 -80.674578 
L 582.251063 -88.936199 
L 578.204148 -85.130649 
L 574.38729 -83.15302 
L 570.559975 -85.014652 
L 566.527002 -87.478029 
L 562.647401 -75.880229 
L 558.823572 -79.919906 
L 555.174028 -87.87783 
L 551.371113 -77.910238 
L 547.519398 -86.668137 
L 543.618882 -80.422836 
L 539.979796 -81.596842 
L 536.211738 -81.574556 
L 532.391394 -81.867853 
L 528.372364 -81.515121 
L 524.377735 -74.620229 
L 520.487677 -85.726724 
L 516.552304 -83.06221 
L 512.690132 -77.842289 
L 508.775674 -75.707136 
L 504.986702 -84.16177 
L 501.225615 -77.981702 
L 497.387843 -88.833176 
L 493.57447 -86.313599 
L 489.768069 -86.277996 
L 485.975611 -83.920623 
L 482.172696 -89.621503 
L 478.146695 -79.337435 
L 474.064923 -83.903428 
L 470.10515 -86.153324 
L 466.361492 -89.762724 
L 462.460977 -84.207818 
L 458.508176 -77.9906 
L 454.652975 -83.957581 
L 451.06966 -80.242509 
L 447.176116 -80.076401 
L 443.247715 -85.030874 
L 439.364629 -83.91226 
L 435.324685 -80.393233 
L 431.493884 -79.329972 
L 427.537597 -87.197028 
L 423.814853 -76.797895 
L 419.97011 -80.607831 
L 416.257823 -84.135972 
L 412.440965 -82.997933 
L 408.547421 -90.84488 
L 404.622506 -87.439357 
L 400.638333 -84.968571 
L 396.804047 -77.99651 
L 392.844274 -80.446149 
L 389.006502 -79.184847 
L 385.105987 -81.30287 
L 381.2717 -87.57115 
L 377.413014 -84.465134 
L 373.383527 -81.587001 
L 369.364497 -86.389805 
L 365.474439 -82.800943 
L 361.556495 -89.711148 
L 357.513066 -86.314741 
L 353.521922 -81.668611 
L 349.614435 -85.207332 
L 345.734834 -77.32675 
L 341.565919 -81.937247 
L 337.714204 -82.752876 
L 333.963574 -86.909868 
L 330.150202 -84.118201 
L 326.16603 -89.643544 
L 322.251572 -85.419913 
L 318.410313 -78.133339 
L 314.39477 -83.181004 
L 310.529112 -87.79226 
L 306.740139 -83.834885 
L 303.027853 -81.66352 
L 299.158709 -77.792202 
L 295.184994 -83.362734 
L 291.24265 -84.037089 
L 287.119049 -82.647053 
L 283.270819 -86.08001 
L 279.628247 -86.40443 
L 275.602246 -83.958021 
L 271.632016 -83.905952 
L 267.588587 -81.816818 
L 263.5591 -80.592887 
L 259.599328 -79.35582 
L 255.702298 -83.996628 
L 251.777383 -86.256252 
L 248.002354 -82.672211 
L 244.272638 -85.121821 
L 240.337266 -87.564286 
L 236.412351 -87.770515 
L 232.438635 -81.743623 
L 228.506749 -82.933993 
L 224.745662 -79.419103 
L 220.768461 -82.075748 
L 216.854003 -83.572413 
L 212.991831 -82.851431 
L 208.958858 -80.463661 
L 205.026972 -82.725188 
L 201.161314 -82.775391 
L 197.295656 -85.216441 
L 193.548512 -81.261802 
L 189.299425 -78.125049 
L 185.479081 -81.597496 
L 181.494909 -76.901418 
L 177.650165 -85.163868 
L 173.791478 -85.22363 
L 169.929306 -88.421609 
L 165.973019 -90.919928 
L 162.037647 -84.913152 
L 158.182446 -80.493763 
L 154.020502 -84.474452 
L 150.221073 -83.09214 
L 146.299643 -85.120581 
L 142.273642 -87.807999 
L 138.279013 -79.173658 
L 134.479583 -87.566687 
L 130.620896 -83.128832 
L 126.922553 -81.695859 
L 122.879123 -85.323037 
L 118.929808 -80.680106 
L 115.13735 -79.188442 
L 111.243806 -85.211963 
L 107.371177 -85.400747 
L 103.522947 -85.044011 
L 99.681689 -84.048682 
L 95.864831 -88.696935 
L 91.995687 -81.582366 
L 88.154429 -86.464211 
L 84.267857 -80.469919 
L 80.566027 -81.90224 
z
" style="stroke: #ffa500; stroke-opacity: 0.2"/>
    </defs>
    <g clip-path="url(#pf529c1953c)">
     <use xlink:href="#maf80969a77" x="0" y="432" style="fill: #ffa500; fill-opacity: 0.2; stroke: #ffa500; stroke-opacity: 0.2"/>
    </g>
   </g>
   <g id="matplotlib.axis_1">
    <g id="xtick_1">
     <g id="line2d_1">
      <path d="M 78.572198 390.04 
L 78.572198 10.8 
" clip-path="url(#pf529c1953c)" style="fill: none; stroke: #b0b0b0; stroke-width: 0.8; stroke-linecap: square"/>
     </g>
     <g id="line2d_2">
      <defs>
       <path id="m5319c7d6e7" d="M 0 0 
L 0 3.5 
" style="stroke: #000000; stroke-width: 0.8"/>
      </defs>
      <g>
       <use xlink:href="#m5319c7d6e7" x="78.572198" y="390.04" style="stroke: #000000; stroke-width: 0.8"/>
      </g>
     </g>
     <g id="text_1">
      <!-- 0 -->
      <g transform="translate(75.390948 404.638438) scale(0.1 -0.1)">
       <defs>
        <path id="DejaVuSans-30" d="M 2034 4250 
Q 1547 4250 1301 3770 
Q 1056 3291 1056 2328 
Q 1056 1369 1301 889 
Q 1547 409 2034 409 
Q 2525 409 2770 889 
Q 3016 1369 3016 2328 
Q 3016 3291 2770 3770 
Q 2525 4250 2034 4250 
z
M 2034 4750 
Q 2819 4750 3233 4129 
Q 3647 3509 3647 2328 
Q 3647 1150 3233 529 
Q 2819 -91 2034 -91 
Q 1250 -91 836 529 
Q 422 1150 422 2328 
Q 422 3509 836 4129 
Q 1250 4750 2034 4750 
z
" transform="scale(0.015625)"/>
       </defs>
       <use xlink:href="#DejaVuSans-30"/>
      </g>
     </g>
    </g>
    <g id="xtick_2">
     <g id="line2d_3">
      <path d="M 165.715076 390.04 
L 165.715076 10.8 
" clip-path="url(#pf529c1953c)" style="fill: none; stroke: #b0b0b0; stroke-width: 0.8; stroke-linecap: square"/>
     </g>
     <g id="line2d_4">
      <g>
       <use xlink:href="#m5319c7d6e7" x="165.715076" y="390.04" style="stroke: #000000; stroke-width: 0.8"/>
      </g>
     </g>
     <g id="text_2">
      <!-- 25000 -->
      <g transform="translate(149.808826 404.638438) scale(0.1 -0.1)">
       <defs>
        <path id="DejaVuSans-32" d="M 1228 531 
L 3431 531 
L 3431 0 
L 469 0 
L 469 531 
Q 828 903 1448 1529 
Q 2069 2156 2228 2338 
Q 2531 2678 2651 2914 
Q 2772 3150 2772 3378 
Q 2772 3750 2511 3984 
Q 2250 4219 1831 4219 
Q 1534 4219 1204 4116 
Q 875 4013 500 3803 
L 500 4441 
Q 881 4594 1212 4672 
Q 1544 4750 1819 4750 
Q 2544 4750 2975 4387 
Q 3406 4025 3406 3419 
Q 3406 3131 3298 2873 
Q 3191 2616 2906 2266 
Q 2828 2175 2409 1742 
Q 1991 1309 1228 531 
z
" transform="scale(0.015625)"/>
        <path id="DejaVuSans-35" d="M 691 4666 
L 3169 4666 
L 3169 4134 
L 1269 4134 
L 1269 2991 
Q 1406 3038 1543 3061 
Q 1681 3084 1819 3084 
Q 2600 3084 3056 2656 
Q 3513 2228 3513 1497 
Q 3513 744 3044 326 
Q 2575 -91 1722 -91 
Q 1428 -91 1123 -41 
Q 819 9 494 109 
L 494 744 
Q 775 591 1075 516 
Q 1375 441 1709 441 
Q 2250 441 2565 725 
Q 2881 1009 2881 1497 
Q 2881 1984 2565 2268 
Q 2250 2553 1709 2553 
Q 1456 2553 1204 2497 
Q 953 2441 691 2322 
L 691 4666 
z
" transform="scale(0.015625)"/>
       </defs>
       <use xlink:href="#DejaVuSans-32"/>
       <use xlink:href="#DejaVuSans-35" transform="translate(63.623047 0)"/>
       <use xlink:href="#DejaVuSans-30" transform="translate(127.246094 0)"/>
       <use xlink:href="#DejaVuSans-30" transform="translate(190.869141 0)"/>
       <use xlink:href="#DejaVuSans-30" transform="translate(254.492188 0)"/>
      </g>
     </g>
    </g>
    <g id="xtick_3">
     <g id="line2d_5">
      <path d="M 252.857955 390.04 
L 252.857955 10.8 
" clip-path="url(#pf529c1953c)" style="fill: none; stroke: #b0b0b0; stroke-width: 0.8; stroke-linecap: square"/>
     </g>
     <g id="line2d_6">
      <g>
       <use xlink:href="#m5319c7d6e7" x="252.857955" y="390.04" style="stroke: #000000; stroke-width: 0.8"/>
      </g>
     </g>
     <g id="text_3">
      <!-- 50000 -->
      <g transform="translate(236.951705 404.638438) scale(0.1 -0.1)">
       <use xlink:href="#DejaVuSans-35"/>
       <use xlink:href="#DejaVuSans-30" transform="translate(63.623047 0)"/>
       <use xlink:href="#DejaVuSans-30" transform="translate(127.246094 0)"/>
       <use xlink:href="#DejaVuSans-30" transform="translate(190.869141 0)"/>
       <use xlink:href="#DejaVuSans-30" transform="translate(254.492188 0)"/>
      </g>
     </g>
    </g>
    <g id="xtick_4">
     <g id="line2d_7">
      <path d="M 340.000833 390.04 
L 340.000833 10.8 
" clip-path="url(#pf529c1953c)" style="fill: none; stroke: #b0b0b0; stroke-width: 0.8; stroke-linecap: square"/>
     </g>
     <g id="line2d_8">
      <g>
       <use xlink:href="#m5319c7d6e7" x="340.000833" y="390.04" style="stroke: #000000; stroke-width: 0.8"/>
      </g>
     </g>
     <g id="text_4">
      <!-- 75000 -->
      <g transform="translate(324.094583 404.638438) scale(0.1 -0.1)">
       <defs>
        <path id="DejaVuSans-37" d="M 525 4666 
L 3525 4666 
L 3525 4397 
L 1831 0 
L 1172 0 
L 2766 4134 
L 525 4134 
L 525 4666 
z
" transform="scale(0.015625)"/>
       </defs>
       <use xlink:href="#DejaVuSans-37"/>
       <use xlink:href="#DejaVuSans-35" transform="translate(63.623047 0)"/>
       <use xlink:href="#DejaVuSans-30" transform="translate(127.246094 0)"/>
       <use xlink:href="#DejaVuSans-30" transform="translate(190.869141 0)"/>
       <use xlink:href="#DejaVuSans-30" transform="translate(254.492188 0)"/>
      </g>
     </g>
    </g>
    <g id="xtick_5">
     <g id="line2d_9">
      <path d="M 427.143711 390.04 
L 427.143711 10.8 
" clip-path="url(#pf529c1953c)" style="fill: none; stroke: #b0b0b0; stroke-width: 0.8; stroke-linecap: square"/>
     </g>
     <g id="line2d_10">
      <g>
       <use xlink:href="#m5319c7d6e7" x="427.143711" y="390.04" style="stroke: #000000; stroke-width: 0.8"/>
      </g>
     </g>
     <g id="text_5">
      <!-- 100000 -->
      <g transform="translate(408.056211 404.638438) scale(0.1 -0.1)">
       <defs>
        <path id="DejaVuSans-31" d="M 794 531 
L 1825 531 
L 1825 4091 
L 703 3866 
L 703 4441 
L 1819 4666 
L 2450 4666 
L 2450 531 
L 3481 531 
L 3481 0 
L 794 0 
L 794 531 
z
" transform="scale(0.015625)"/>
       </defs>
       <use xlink:href="#DejaVuSans-31"/>
       <use xlink:href="#DejaVuSans-30" transform="translate(63.623047 0)"/>
       <use xlink:href="#DejaVuSans-30" transform="translate(127.246094 0)"/>
       <use xlink:href="#DejaVuSans-30" transform="translate(190.869141 0)"/>
       <use xlink:href="#DejaVuSans-30" transform="translate(254.492188 0)"/>
       <use xlink:href="#DejaVuSans-30" transform="translate(318.115234 0)"/>
      </g>
     </g>
    </g>
    <g id="xtick_6">
     <g id="line2d_11">
      <path d="M 514.28659 390.04 
L 514.28659 10.8 
" clip-path="url(#pf529c1953c)" style="fill: none; stroke: #b0b0b0; stroke-width: 0.8; stroke-linecap: square"/>
     </g>
     <g id="line2d_12">
      <g>
       <use xlink:href="#m5319c7d6e7" x="514.28659" y="390.04" style="stroke: #000000; stroke-width: 0.8"/>
      </g>
     </g>
     <g id="text_6">
      <!-- 125000 -->
      <g transform="translate(495.19909 404.638438) scale(0.1 -0.1)">
       <use xlink:href="#DejaVuSans-31"/>
       <use xlink:href="#DejaVuSans-32" transform="translate(63.623047 0)"/>
       <use xlink:href="#DejaVuSans-35" transform="translate(127.246094 0)"/>
       <use xlink:href="#DejaVuSans-30" transform="translate(190.869141 0)"/>
       <use xlink:href="#DejaVuSans-30" transform="translate(254.492188 0)"/>
       <use xlink:href="#DejaVuSans-30" transform="translate(318.115234 0)"/>
      </g>
     </g>
    </g>
    <g id="xtick_7">
     <g id="line2d_13">
      <path d="M 601.429468 390.04 
L 601.429468 10.8 
" clip-path="url(#pf529c1953c)" style="fill: none; stroke: #b0b0b0; stroke-width: 0.8; stroke-linecap: square"/>
     </g>
     <g id="line2d_14">
      <g>
       <use xlink:href="#m5319c7d6e7" x="601.429468" y="390.04" style="stroke: #000000; stroke-width: 0.8"/>
      </g>
     </g>
     <g id="text_7">
      <!-- 150000 -->
      <g transform="translate(582.341968 404.638438) scale(0.1 -0.1)">
       <use xlink:href="#DejaVuSans-31"/>
       <use xlink:href="#DejaVuSans-35" transform="translate(63.623047 0)"/>
       <use xlink:href="#DejaVuSans-30" transform="translate(127.246094 0)"/>
       <use xlink:href="#DejaVuSans-30" transform="translate(190.869141 0)"/>
       <use xlink:href="#DejaVuSans-30" transform="translate(254.492188 0)"/>
       <use xlink:href="#DejaVuSans-30" transform="translate(318.115234 0)"/>
      </g>
     </g>
    </g>
    <g id="xtick_8">
     <g id="line2d_15">
      <path d="M 688.572346 390.04 
L 688.572346 10.8 
" clip-path="url(#pf529c1953c)" style="fill: none; stroke: #b0b0b0; stroke-width: 0.8; stroke-linecap: square"/>
     </g>
     <g id="line2d_16">
      <g>
       <use xlink:href="#m5319c7d6e7" x="688.572346" y="390.04" style="stroke: #000000; stroke-width: 0.8"/>
      </g>
     </g>
     <g id="text_8">
      <!-- 175000 -->
      <g transform="translate(669.484846 404.638438) scale(0.1 -0.1)">
       <use xlink:href="#DejaVuSans-31"/>
       <use xlink:href="#DejaVuSans-37" transform="translate(63.623047 0)"/>
       <use xlink:href="#DejaVuSans-35" transform="translate(127.246094 0)"/>
       <use xlink:href="#DejaVuSans-30" transform="translate(190.869141 0)"/>
       <use xlink:href="#DejaVuSans-30" transform="translate(254.492188 0)"/>
       <use xlink:href="#DejaVuSans-30" transform="translate(318.115234 0)"/>
      </g>
     </g>
    </g>
    <g id="text_9">
     <!-- Steps -->
     <g transform="translate(361.695998 418.316562) scale(0.1 -0.1)">
      <defs>
       <path id="DejaVuSans-53" d="M 3425 4513 
L 3425 3897 
Q 3066 4069 2747 4153 
Q 2428 4238 2131 4238 
Q 1616 4238 1336 4038 
Q 1056 3838 1056 3469 
Q 1056 3159 1242 3001 
Q 1428 2844 1947 2747 
L 2328 2669 
Q 3034 2534 3370 2195 
Q 3706 1856 3706 1288 
Q 3706 609 3251 259 
Q 2797 -91 1919 -91 
Q 1588 -91 1214 -16 
Q 841 59 441 206 
L 441 856 
Q 825 641 1194 531 
Q 1563 422 1919 422 
Q 2459 422 2753 634 
Q 3047 847 3047 1241 
Q 3047 1584 2836 1778 
Q 2625 1972 2144 2069 
L 1759 2144 
Q 1053 2284 737 2584 
Q 422 2884 422 3419 
Q 422 4038 858 4394 
Q 1294 4750 2059 4750 
Q 2388 4750 2728 4690 
Q 3069 4631 3425 4513 
z
" transform="scale(0.015625)"/>
       <path id="DejaVuSans-74" d="M 1172 4494 
L 1172 3500 
L 2356 3500 
L 2356 3053 
L 1172 3053 
L 1172 1153 
Q 1172 725 1289 603 
Q 1406 481 1766 481 
L 2356 481 
L 2356 0 
L 1766 0 
Q 1100 0 847 248 
Q 594 497 594 1153 
L 594 3053 
L 172 3053 
L 172 3500 
L 594 3500 
L 594 4494 
L 1172 4494 
z
" transform="scale(0.015625)"/>
       <path id="DejaVuSans-65" d="M 3597 1894 
L 3597 1613 
L 953 1613 
Q 991 1019 1311 708 
Q 1631 397 2203 397 
Q 2534 397 2845 478 
Q 3156 559 3463 722 
L 3463 178 
Q 3153 47 2828 -22 
Q 2503 -91 2169 -91 
Q 1331 -91 842 396 
Q 353 884 353 1716 
Q 353 2575 817 3079 
Q 1281 3584 2069 3584 
Q 2775 3584 3186 3129 
Q 3597 2675 3597 1894 
z
M 3022 2063 
Q 3016 2534 2758 2815 
Q 2500 3097 2075 3097 
Q 1594 3097 1305 2825 
Q 1016 2553 972 2059 
L 3022 2063 
z
" transform="scale(0.015625)"/>
       <path id="DejaVuSans-70" d="M 1159 525 
L 1159 -1331 
L 581 -1331 
L 581 3500 
L 1159 3500 
L 1159 2969 
Q 1341 3281 1617 3432 
Q 1894 3584 2278 3584 
Q 2916 3584 3314 3078 
Q 3713 2572 3713 1747 
Q 3713 922 3314 415 
Q 2916 -91 2278 -91 
Q 1894 -91 1617 61 
Q 1341 213 1159 525 
z
M 3116 1747 
Q 3116 2381 2855 2742 
Q 2594 3103 2138 3103 
Q 1681 3103 1420 2742 
Q 1159 2381 1159 1747 
Q 1159 1113 1420 752 
Q 1681 391 2138 391 
Q 2594 391 2855 752 
Q 3116 1113 3116 1747 
z
" transform="scale(0.015625)"/>
       <path id="DejaVuSans-73" d="M 2834 3397 
L 2834 2853 
Q 2591 2978 2328 3040 
Q 2066 3103 1784 3103 
Q 1356 3103 1142 2972 
Q 928 2841 928 2578 
Q 928 2378 1081 2264 
Q 1234 2150 1697 2047 
L 1894 2003 
Q 2506 1872 2764 1633 
Q 3022 1394 3022 966 
Q 3022 478 2636 193 
Q 2250 -91 1575 -91 
Q 1294 -91 989 -36 
Q 684 19 347 128 
L 347 722 
Q 666 556 975 473 
Q 1284 391 1588 391 
Q 1994 391 2212 530 
Q 2431 669 2431 922 
Q 2431 1156 2273 1281 
Q 2116 1406 1581 1522 
L 1381 1569 
Q 847 1681 609 1914 
Q 372 2147 372 2553 
Q 372 3047 722 3315 
Q 1072 3584 1716 3584 
Q 2034 3584 2315 3537 
Q 2597 3491 2834 3397 
z
" transform="scale(0.015625)"/>
      </defs>
      <use xlink:href="#DejaVuSans-53"/>
      <use xlink:href="#DejaVuSans-74" transform="translate(63.476562 0)"/>
      <use xlink:href="#DejaVuSans-65" transform="translate(102.685547 0)"/>
      <use xlink:href="#DejaVuSans-70" transform="translate(164.208984 0)"/>
      <use xlink:href="#DejaVuSans-73" transform="translate(227.685547 0)"/>
     </g>
    </g>
   </g>
   <g id="matplotlib.axis_2">
    <g id="ytick_1">
     <g id="line2d_17">
      <path d="M 50.87 372.801818 
L 700.501683 372.801818 
" clip-path="url(#pf529c1953c)" style="fill: none; stroke: #b0b0b0; stroke-width: 0.8; stroke-linecap: square"/>
     </g>
     <g id="line2d_18">
      <defs>
       <path id="m3a976c36cf" d="M 0 0 
L -3.5 0 
" style="stroke: #000000; stroke-width: 0.8"/>
      </defs>
      <g>
       <use xlink:href="#m3a976c36cf" x="50.87" y="372.801818" style="stroke: #000000; stroke-width: 0.8"/>
      </g>
     </g>
     <g id="text_10">
      <!-- 0 -->
      <g transform="translate(37.5075 376.601037) scale(0.1 -0.1)">
       <use xlink:href="#DejaVuSans-30"/>
      </g>
     </g>
    </g>
    <g id="ytick_2">
     <g id="line2d_19">
      <path d="M 50.87 315.646297 
L 700.501683 315.646297 
" clip-path="url(#pf529c1953c)" style="fill: none; stroke: #b0b0b0; stroke-width: 0.8; stroke-linecap: square"/>
     </g>
     <g id="line2d_20">
      <g>
       <use xlink:href="#m3a976c36cf" x="50.87" y="315.646297" style="stroke: #000000; stroke-width: 0.8"/>
      </g>
     </g>
     <g id="text_11">
      <!-- 20 -->
      <g transform="translate(31.145 319.445516) scale(0.1 -0.1)">
       <use xlink:href="#DejaVuSans-32"/>
       <use xlink:href="#DejaVuSans-30" transform="translate(63.623047 0)"/>
      </g>
     </g>
    </g>
    <g id="ytick_3">
     <g id="line2d_21">
      <path d="M 50.87 258.490776 
L 700.501683 258.490776 
" clip-path="url(#pf529c1953c)" style="fill: none; stroke: #b0b0b0; stroke-width: 0.8; stroke-linecap: square"/>
     </g>
     <g id="line2d_22">
      <g>
       <use xlink:href="#m3a976c36cf" x="50.87" y="258.490776" style="stroke: #000000; stroke-width: 0.8"/>
      </g>
     </g>
     <g id="text_12">
      <!-- 40 -->
      <g transform="translate(31.145 262.289995) scale(0.1 -0.1)">
       <defs>
        <path id="DejaVuSans-34" d="M 2419 4116 
L 825 1625 
L 2419 1625 
L 2419 4116 
z
M 2253 4666 
L 3047 4666 
L 3047 1625 
L 3713 1625 
L 3713 1100 
L 3047 1100 
L 3047 0 
L 2419 0 
L 2419 1100 
L 313 1100 
L 313 1709 
L 2253 4666 
z
" transform="scale(0.015625)"/>
       </defs>
       <use xlink:href="#DejaVuSans-34"/>
       <use xlink:href="#DejaVuSans-30" transform="translate(63.623047 0)"/>
      </g>
     </g>
    </g>
    <g id="ytick_4">
     <g id="line2d_23">
      <path d="M 50.87 201.335255 
L 700.501683 201.335255 
" clip-path="url(#pf529c1953c)" style="fill: none; stroke: #b0b0b0; stroke-width: 0.8; stroke-linecap: square"/>
     </g>
     <g id="line2d_24">
      <g>
       <use xlink:href="#m3a976c36cf" x="50.87" y="201.335255" style="stroke: #000000; stroke-width: 0.8"/>
      </g>
     </g>
     <g id="text_13">
      <!-- 60 -->
      <g transform="translate(31.145 205.134474) scale(0.1 -0.1)">
       <defs>
        <path id="DejaVuSans-36" d="M 2113 2584 
Q 1688 2584 1439 2293 
Q 1191 2003 1191 1497 
Q 1191 994 1439 701 
Q 1688 409 2113 409 
Q 2538 409 2786 701 
Q 3034 994 3034 1497 
Q 3034 2003 2786 2293 
Q 2538 2584 2113 2584 
z
M 3366 4563 
L 3366 3988 
Q 3128 4100 2886 4159 
Q 2644 4219 2406 4219 
Q 1781 4219 1451 3797 
Q 1122 3375 1075 2522 
Q 1259 2794 1537 2939 
Q 1816 3084 2150 3084 
Q 2853 3084 3261 2657 
Q 3669 2231 3669 1497 
Q 3669 778 3244 343 
Q 2819 -91 2113 -91 
Q 1303 -91 875 529 
Q 447 1150 447 2328 
Q 447 3434 972 4092 
Q 1497 4750 2381 4750 
Q 2619 4750 2861 4703 
Q 3103 4656 3366 4563 
z
" transform="scale(0.015625)"/>
       </defs>
       <use xlink:href="#DejaVuSans-36"/>
       <use xlink:href="#DejaVuSans-30" transform="translate(63.623047 0)"/>
      </g>
     </g>
    </g>
    <g id="ytick_5">
     <g id="line2d_25">
      <path d="M 50.87 144.179734 
L 700.501683 144.179734 
" clip-path="url(#pf529c1953c)" style="fill: none; stroke: #b0b0b0; stroke-width: 0.8; stroke-linecap: square"/>
     </g>
     <g id="line2d_26">
      <g>
       <use xlink:href="#m3a976c36cf" x="50.87" y="144.179734" style="stroke: #000000; stroke-width: 0.8"/>
      </g>
     </g>
     <g id="text_14">
      <!-- 80 -->
      <g transform="translate(31.145 147.978953) scale(0.1 -0.1)">
       <defs>
        <path id="DejaVuSans-38" d="M 2034 2216 
Q 1584 2216 1326 1975 
Q 1069 1734 1069 1313 
Q 1069 891 1326 650 
Q 1584 409 2034 409 
Q 2484 409 2743 651 
Q 3003 894 3003 1313 
Q 3003 1734 2745 1975 
Q 2488 2216 2034 2216 
z
M 1403 2484 
Q 997 2584 770 2862 
Q 544 3141 544 3541 
Q 544 4100 942 4425 
Q 1341 4750 2034 4750 
Q 2731 4750 3128 4425 
Q 3525 4100 3525 3541 
Q 3525 3141 3298 2862 
Q 3072 2584 2669 2484 
Q 3125 2378 3379 2068 
Q 3634 1759 3634 1313 
Q 3634 634 3220 271 
Q 2806 -91 2034 -91 
Q 1263 -91 848 271 
Q 434 634 434 1313 
Q 434 1759 690 2068 
Q 947 2378 1403 2484 
z
M 1172 3481 
Q 1172 3119 1398 2916 
Q 1625 2713 2034 2713 
Q 2441 2713 2670 2916 
Q 2900 3119 2900 3481 
Q 2900 3844 2670 4047 
Q 2441 4250 2034 4250 
Q 1625 4250 1398 4047 
Q 1172 3844 1172 3481 
z
" transform="scale(0.015625)"/>
       </defs>
       <use xlink:href="#DejaVuSans-38"/>
       <use xlink:href="#DejaVuSans-30" transform="translate(63.623047 0)"/>
      </g>
     </g>
    </g>
    <g id="ytick_6">
     <g id="line2d_27">
      <path d="M 50.87 87.024213 
L 700.501683 87.024213 
" clip-path="url(#pf529c1953c)" style="fill: none; stroke: #b0b0b0; stroke-width: 0.8; stroke-linecap: square"/>
     </g>
     <g id="line2d_28">
      <g>
       <use xlink:href="#m3a976c36cf" x="50.87" y="87.024213" style="stroke: #000000; stroke-width: 0.8"/>
      </g>
     </g>
     <g id="text_15">
      <!-- 100 -->
      <g transform="translate(24.7825 90.823432) scale(0.1 -0.1)">
       <use xlink:href="#DejaVuSans-31"/>
       <use xlink:href="#DejaVuSans-30" transform="translate(63.623047 0)"/>
       <use xlink:href="#DejaVuSans-30" transform="translate(127.246094 0)"/>
      </g>
     </g>
    </g>
    <g id="ytick_7">
     <g id="line2d_29">
      <path d="M 50.87 29.868692 
L 700.501683 29.868692 
" clip-path="url(#pf529c1953c)" style="fill: none; stroke: #b0b0b0; stroke-width: 0.8; stroke-linecap: square"/>
     </g>
     <g id="line2d_30">
      <g>
       <use xlink:href="#m3a976c36cf" x="50.87" y="29.868692" style="stroke: #000000; stroke-width: 0.8"/>
      </g>
     </g>
     <g id="text_16">
      <!-- 120 -->
      <g transform="translate(24.7825 33.667911) scale(0.1 -0.1)">
       <use xlink:href="#DejaVuSans-31"/>
       <use xlink:href="#DejaVuSans-32" transform="translate(63.623047 0)"/>
       <use xlink:href="#DejaVuSans-30" transform="translate(127.246094 0)"/>
      </g>
     </g>
    </g>
    <g id="text_17">
     <!-- Reward -->
     <g transform="translate(18.702813 219.041094) rotate(-90) scale(0.1 -0.1)">
      <defs>
       <path id="DejaVuSans-52" d="M 2841 2188 
Q 3044 2119 3236 1894 
Q 3428 1669 3622 1275 
L 4263 0 
L 3584 0 
L 2988 1197 
Q 2756 1666 2539 1819 
Q 2322 1972 1947 1972 
L 1259 1972 
L 1259 0 
L 628 0 
L 628 4666 
L 2053 4666 
Q 2853 4666 3247 4331 
Q 3641 3997 3641 3322 
Q 3641 2881 3436 2590 
Q 3231 2300 2841 2188 
z
M 1259 4147 
L 1259 2491 
L 2053 2491 
Q 2509 2491 2742 2702 
Q 2975 2913 2975 3322 
Q 2975 3731 2742 3939 
Q 2509 4147 2053 4147 
L 1259 4147 
z
" transform="scale(0.015625)"/>
       <path id="DejaVuSans-77" d="M 269 3500 
L 844 3500 
L 1563 769 
L 2278 3500 
L 2956 3500 
L 3675 769 
L 4391 3500 
L 4966 3500 
L 4050 0 
L 3372 0 
L 2619 2869 
L 1863 0 
L 1184 0 
L 269 3500 
z
" transform="scale(0.015625)"/>
       <path id="DejaVuSans-61" d="M 2194 1759 
Q 1497 1759 1228 1600 
Q 959 1441 959 1056 
Q 959 750 1161 570 
Q 1363 391 1709 391 
Q 2188 391 2477 730 
Q 2766 1069 2766 1631 
L 2766 1759 
L 2194 1759 
z
M 3341 1997 
L 3341 0 
L 2766 0 
L 2766 531 
Q 2569 213 2275 61 
Q 1981 -91 1556 -91 
Q 1019 -91 701 211 
Q 384 513 384 1019 
Q 384 1609 779 1909 
Q 1175 2209 1959 2209 
L 2766 2209 
L 2766 2266 
Q 2766 2663 2505 2880 
Q 2244 3097 1772 3097 
Q 1472 3097 1187 3025 
Q 903 2953 641 2809 
L 641 3341 
Q 956 3463 1253 3523 
Q 1550 3584 1831 3584 
Q 2591 3584 2966 3190 
Q 3341 2797 3341 1997 
z
" transform="scale(0.015625)"/>
       <path id="DejaVuSans-72" d="M 2631 2963 
Q 2534 3019 2420 3045 
Q 2306 3072 2169 3072 
Q 1681 3072 1420 2755 
Q 1159 2438 1159 1844 
L 1159 0 
L 581 0 
L 581 3500 
L 1159 3500 
L 1159 2956 
Q 1341 3275 1631 3429 
Q 1922 3584 2338 3584 
Q 2397 3584 2469 3576 
Q 2541 3569 2628 3553 
L 2631 2963 
z
" transform="scale(0.015625)"/>
       <path id="DejaVuSans-64" d="M 2906 2969 
L 2906 4863 
L 3481 4863 
L 3481 0 
L 2906 0 
L 2906 525 
Q 2725 213 2448 61 
Q 2172 -91 1784 -91 
Q 1150 -91 751 415 
Q 353 922 353 1747 
Q 353 2572 751 3078 
Q 1150 3584 1784 3584 
Q 2172 3584 2448 3432 
Q 2725 3281 2906 2969 
z
M 947 1747 
Q 947 1113 1208 752 
Q 1469 391 1925 391 
Q 2381 391 2643 752 
Q 2906 1113 2906 1747 
Q 2906 2381 2643 2742 
Q 2381 3103 1925 3103 
Q 1469 3103 1208 2742 
Q 947 2381 947 1747 
z
" transform="scale(0.015625)"/>
      </defs>
      <use xlink:href="#DejaVuSans-52"/>
      <use xlink:href="#DejaVuSans-65" transform="translate(64.982422 0)"/>
      <use xlink:href="#DejaVuSans-77" transform="translate(126.505859 0)"/>
      <use xlink:href="#DejaVuSans-61" transform="translate(208.292969 0)"/>
      <use xlink:href="#DejaVuSans-72" transform="translate(269.572266 0)"/>
      <use xlink:href="#DejaVuSans-64" transform="translate(308.935547 0)"/>
     </g>
    </g>
   </g>
   <g id="line2d_31">
    <path d="M 80.398713 353.395566 
L 84.058714 357.070327 
L 87.906943 354.988749 
L 91.817916 353.835727 
L 95.735859 355.222944 
L 99.601518 350.061901 
L 103.564776 353.071282 
L 107.576834 353.163144 
L 111.522663 344.469149 
L 115.447579 346.015608 
L 119.393408 344.327318 
L 123.293923 337.644711 
L 127.257181 324.814154 
L 131.209982 310.518616 
L 135.208098 296.681084 
L 139.174841 274.609924 
L 143.1869 244.078186 
L 146.881758 197.470134 
L 150.52433 159.694261 
L 154.114616 127.728581 
L 157.426046 101.892454 
L 160.500447 94.179957 
L 163.553933 87.39611 
L 166.520277 81.4973 
L 169.38902 83.472622 
L 172.275192 75.690522 
L 175.147422 77.151549 
L 178.023137 80.006716 
L 180.968566 80.585278 
L 183.865195 73.291461 
L 186.730453 73.287481 
L 189.560854 75.248334 
L 192.41914 70.343173 
L 195.235598 72.74687 
L 198.04857 71.807429 
L 200.913828 74.196699 
L 203.747714 71.31886 
L 206.581601 69.340485 
L 209.391087 71.303671 
L 212.214516 70.337066 
L 215.05886 70.823422 
L 217.875318 72.259545 
L 223.501262 72.27069 
L 226.307263 71.30826 
L 229.102806 69.844031 
L 231.912292 69.375731 
L 234.735722 87.760392 
L 237.538237 76.624565 
L 240.340752 69.346111 
L 243.13281 71.319384 
L 245.945782 69.831912 
L 248.744811 71.784058 
L 251.533383 71.301094 
L 254.412584 69.828461 
L 257.236013 74.172778 
L 260.073385 70.793902 
L 263.0223 111.129718 
L 266.497558 110.213594 
L 269.613787 77.53121 
L 272.454645 74.195153 
L 275.40356 110.748522 
L 278.850932 106.440997 
L 281.744076 78.490989 
L 284.58842 90.727848 
L 287.422306 91.207378 
L 290.277107 85.32482 
L 293.12145 84.852933 
L 295.944879 94.150474 
L 298.754366 132.815094 
L 301.574309 120.978307 
L 304.390767 142.746395 
L 307.214196 146.464484 
L 310.027169 167.535131 
L 313.467569 207.741611 
L 316.792942 198.581513 
L 319.937057 201.478175 
L 325.963858 180.285422 
L 328.944145 166.712261 
L 331.847745 191.395862 
L 334.841975 198.502331 
L 337.871061 165.79728 
L 340.917576 158.005596 
L 343.876948 134.041144 
L 346.930435 151.748077 
L 349.994378 137.861646 
L 352.981636 130.186401 
L 355.937523 133.053602 
L 358.896895 127.348846 
L 361.964324 136.882789 
L 365.017811 152.890521 
L 368.203754 166.658969 
L 371.441983 182.991852 
L 374.732499 211.36807 
L 378.009071 188.768777 
L 381.240329 183.019123 
L 384.475072 192.639471 
L 387.692387 203.264725 
L 390.860902 188.433222 
L 393.938789 191.275296 
L 396.995761 206.678936 
L 399.948162 204.786649 
L 402.872677 196.619554 
L 405.842506 193.210449 
L 408.819307 208.106734 
L 411.719422 240.527812 
L 414.73108 229.86637 
L 417.648623 222.560286 
L 420.492967 230.274127 
L 423.333825 227.860629 
L 426.286225 238.40514 
L 429.21074 247.587529 
L 432.117827 234.621281 
L 434.997027 224.071536 
L 437.841371 231.774153 
L 440.7136 228.887116 
L 443.578858 212.159833 
L 446.433659 211.143365 
L 449.393031 182.703312 
L 452.328003 174.13879 
L 455.269947 164.930247 
L 458.372233 166.826186 
L 461.359491 166.905293 
L 464.30492 221.034191 
L 467.232921 168.958722 
L 470.122579 170.292499 
L 473.00178 206.566372 
L 476.009952 187.690957 
L 478.92401 186.729045 
L 481.834582 177.610014 
L 484.720754 167.461549 
L 487.592983 169.872834 
L 490.479155 180.909719 
L 493.340927 206.526215 
L 496.223614 180.0232 
L 499.123729 168.416152 
L 502.034301 167.467084 
L 504.90653 165.53799 
L 507.740417 166.532988 
L 510.581274 165.068939 
L 513.505789 234.95128 
L 516.486076 228.429237 
L 519.365277 221.71721 
L 522.251449 187.615337 
L 525.123678 167.467698 
L 527.957564 179.99677 
L 533.611394 170.346786 
L 536.535909 170.80059 
L 539.432539 165.041446 
L 545.173511 165.047601 
L 548.028312 172.731081 
L 550.914484 164.052148 
L 553.856428 165.029787 
L 556.728657 164.571527 
L 559.586943 163.589707 
L 562.473116 164.088674 
L 565.366259 163.131907 
L 568.248946 164.100158 
L 571.072375 164.587372 
L 579.633291 164.613066 
L 582.463692 165.071305 
L 585.28015 163.062711 
L 588.406836 169.874263 
L 591.380151 219.070523 
L 594.311638 167.99065 
L 597.194324 166.597902 
L 600.195525 154.379586 
L 603.31524 155.835904 
L 606.396612 161.619254 
L 609.415241 162.586479 
L 612.412956 163.128319 
L 615.260786 166.018186 
L 618.241072 162.603657 
L 621.172558 217.241504 
L 624.107531 199.348159 
L 626.965817 166.533951 
L 629.890332 180.824975 
L 632.818333 168.390929 
L 635.812562 162.57591 
L 638.77542 166.507485 
L 641.661592 168.865801 
L 644.572164 167.948535 
L 647.426965 168.442538 
L 650.40028 215.566318 
L 653.349195 179.060108 
L 656.252795 173.227456 
L 659.302796 181.910194 
L 662.276111 162.624958 
L 665.218055 164.541362 
L 668.086798 163.615596 
L 670.97297 165.562869 
L 670.97297 165.562869 
" clip-path="url(#pf529c1953c)" style="fill: none; stroke: #0000ff; stroke-width: 1.5; stroke-linecap: square"/>
   </g>
   <g id="line2d_32">
    <path d="M 80.566027 358.103725 
L 84.267857 358.807114 
L 88.154429 356.30032 
L 91.995687 358.439636 
L 95.864831 355.341367 
L 99.681689 357.076831 
L 107.371177 356.761248 
L 111.243806 356.911937 
L 115.13735 359.440524 
L 118.929808 358.611441 
L 122.879123 356.71029 
L 126.922553 358.350902 
L 130.620896 357.600429 
L 134.479583 355.652018 
L 138.279013 359.31095 
L 142.273642 355.62171 
L 146.299643 356.849437 
L 150.221073 357.459831 
L 154.020502 356.975713 
L 158.182446 358.866471 
L 162.037647 356.83003 
L 165.973019 354.444809 
L 169.929306 355.585183 
L 173.791478 356.826749 
L 177.650165 356.891504 
L 181.494909 360.287834 
L 185.479081 358.301351 
L 189.299425 359.862295 
L 193.548512 358.576597 
L 197.295656 356.832893 
L 201.161314 357.980952 
L 205.026972 357.87613 
L 208.958858 358.903262 
L 212.991831 357.711871 
L 216.854003 357.607488 
L 220.768461 357.706082 
L 224.745662 359.337575 
L 228.506749 357.775748 
L 232.438635 358.355866 
L 236.412351 355.759915 
L 240.337266 355.861625 
L 248.002354 358.078741 
L 251.777383 356.451502 
L 255.702298 357.275494 
L 259.599328 359.275048 
L 263.5591 358.841042 
L 271.632016 357.386857 
L 275.602246 357.41118 
L 279.628247 356.356227 
L 283.270819 356.563437 
L 287.119049 357.938107 
L 291.24265 357.201335 
L 295.184994 357.314222 
L 299.158709 360.08055 
L 303.027853 358.343297 
L 306.740139 357.511933 
L 310.529112 355.773008 
L 314.39477 357.650604 
L 318.410313 359.956829 
L 322.251572 356.570952 
L 326.16603 355.032293 
L 330.150202 357.248769 
L 333.963574 355.698145 
L 337.714204 357.900611 
L 341.565919 358.056366 
L 345.734834 359.75552 
L 349.614435 356.914197 
L 353.521922 358.283363 
L 357.513066 356.397612 
L 361.556495 355.064999 
L 365.474439 358.003121 
L 369.364497 356.274881 
L 373.383527 358.373531 
L 377.413014 356.881396 
L 381.2717 355.983155 
L 385.105987 358.496855 
L 389.006502 359.430427 
L 392.844274 358.717687 
L 396.804047 359.949155 
L 400.638333 357.061007 
L 404.622506 355.954667 
L 408.547421 354.640085 
L 412.440965 357.676054 
L 416.257823 357.32152 
L 419.97011 358.686315 
L 423.814853 360.506348 
L 427.537597 356.165158 
L 431.493884 359.251588 
L 435.324685 358.85686 
L 439.364629 357.393102 
L 443.247715 356.981233 
L 447.176116 359.118257 
L 451.06966 359.113817 
L 454.652975 357.423987 
L 458.508176 359.843756 
L 462.460977 357.179118 
L 466.361492 355.050811 
L 470.10515 356.405042 
L 474.064923 357.484689 
L 478.146695 359.184737 
L 482.172696 355.040226 
L 485.975611 357.468812 
L 489.768069 356.448242 
L 493.57447 356.433646 
L 497.387843 355.039607 
L 501.225615 359.950187 
L 504.986702 357.216328 
L 508.775674 360.746522 
L 512.690132 360.03554 
L 516.552304 357.63071 
L 520.487677 356.347558 
L 524.377735 361.300989 
L 528.372364 358.393123 
L 532.391394 358.117744 
L 536.211738 358.494389 
L 539.979796 358.520474 
L 543.618882 358.874632 
L 547.519398 356.02835 
L 551.371113 359.974023 
L 555.174028 355.575583 
L 558.823572 358.713882 
L 562.647401 360.707138 
L 566.527002 355.910552 
L 570.559975 356.848971 
L 574.38729 357.442155 
L 578.204148 356.881947 
L 582.251063 355.046466 
L 586.155064 358.517335 
L 590.086951 356.763317 
L 594.137352 359.260193 
L 597.870553 358.835628 
L 601.798954 358.532466 
L 605.41364 356.962943 
L 609.09107 357.609944 
L 612.900956 355.324506 
L 616.836329 357.971146 
L 620.681073 358.184113 
L 624.672216 356.768646 
L 628.694732 357.368372 
L 632.60919 356.205702 
L 636.607305 358.976024 
L 640.546163 357.655912 
L 644.317707 358.908285 
L 647.995136 352.615012 
L 651.592394 359.032391 
L 655.336052 356.917193 
L 659.118053 357.298912 
L 662.97674 353.537772 
L 666.905141 360.262182 
L 670.742913 360.26603 
L 670.742913 360.26603 
" clip-path="url(#pf529c1953c)" style="fill: none; stroke: #ffa500; stroke-width: 1.5; stroke-linecap: square"/>
   </g>
   <g id="patch_3">
    <path d="M 50.87 390.04 
L 50.87 10.8 
" style="fill: none; stroke: #000000; stroke-width: 0.8; stroke-linejoin: miter; stroke-linecap: square"/>
   </g>
   <g id="patch_4">
    <path d="M 700.501683 390.04 
L 700.501683 10.8 
" style="fill: none; stroke: #000000; stroke-width: 0.8; stroke-linejoin: miter; stroke-linecap: square"/>
   </g>
   <g id="patch_5">
    <path d="M 50.87 390.04 
L 700.501683 390.04 
" style="fill: none; stroke: #000000; stroke-width: 0.8; stroke-linejoin: miter; stroke-linecap: square"/>
   </g>
   <g id="patch_6">
    <path d="M 50.87 10.8 
L 700.501683 10.8 
" style="fill: none; stroke: #000000; stroke-width: 0.8; stroke-linejoin: miter; stroke-linecap: square"/>
   </g>
   <g id="legend_1">
    <g id="patch_7">
     <path d="M 620.104808 385.04 
L 693.501683 385.04 
Q 695.501683 385.04 695.501683 383.04 
L 695.501683 340.005625 
Q 695.501683 338.005625 693.501683 338.005625 
L 620.104808 338.005625 
Q 618.104808 338.005625 618.104808 340.005625 
L 618.104808 383.04 
Q 618.104808 385.04 620.104808 385.04 
z
" style="fill: #ffffff; opacity: 0.8; stroke: #cccccc; stroke-linejoin: miter"/>
    </g>
    <g id="text_18">
     <!-- Agent -->
     <g transform="translate(642.003246 349.604062) scale(0.1 -0.1)">
      <defs>
       <path id="DejaVuSans-41" d="M 2188 4044 
L 1331 1722 
L 3047 1722 
L 2188 4044 
z
M 1831 4666 
L 2547 4666 
L 4325 0 
L 3669 0 
L 3244 1197 
L 1141 1197 
L 716 0 
L 50 0 
L 1831 4666 
z
" transform="scale(0.015625)"/>
       <path id="DejaVuSans-67" d="M 2906 1791 
Q 2906 2416 2648 2759 
Q 2391 3103 1925 3103 
Q 1463 3103 1205 2759 
Q 947 2416 947 1791 
Q 947 1169 1205 825 
Q 1463 481 1925 481 
Q 2391 481 2648 825 
Q 2906 1169 2906 1791 
z
M 3481 434 
Q 3481 -459 3084 -895 
Q 2688 -1331 1869 -1331 
Q 1566 -1331 1297 -1286 
Q 1028 -1241 775 -1147 
L 775 -588 
Q 1028 -725 1275 -790 
Q 1522 -856 1778 -856 
Q 2344 -856 2625 -561 
Q 2906 -266 2906 331 
L 2906 616 
Q 2728 306 2450 153 
Q 2172 0 1784 0 
Q 1141 0 747 490 
Q 353 981 353 1791 
Q 353 2603 747 3093 
Q 1141 3584 1784 3584 
Q 2172 3584 2450 3431 
Q 2728 3278 2906 2969 
L 2906 3500 
L 3481 3500 
L 3481 434 
z
" transform="scale(0.015625)"/>
       <path id="DejaVuSans-6e" d="M 3513 2113 
L 3513 0 
L 2938 0 
L 2938 2094 
Q 2938 2591 2744 2837 
Q 2550 3084 2163 3084 
Q 1697 3084 1428 2787 
Q 1159 2491 1159 1978 
L 1159 0 
L 581 0 
L 581 3500 
L 1159 3500 
L 1159 2956 
Q 1366 3272 1645 3428 
Q 1925 3584 2291 3584 
Q 2894 3584 3203 3211 
Q 3513 2838 3513 2113 
z
" transform="scale(0.015625)"/>
      </defs>
      <use xlink:href="#DejaVuSans-41"/>
      <use xlink:href="#DejaVuSans-67" transform="translate(68.408203 0)"/>
      <use xlink:href="#DejaVuSans-65" transform="translate(131.884766 0)"/>
      <use xlink:href="#DejaVuSans-6e" transform="translate(193.408203 0)"/>
      <use xlink:href="#DejaVuSans-74" transform="translate(256.787109 0)"/>
     </g>
    </g>
    <g id="line2d_33">
     <path d="M 622.104808 360.782187 
L 632.104808 360.782187 
L 642.104808 360.782187 
" style="fill: none; stroke: #0000ff; stroke-width: 1.5; stroke-linecap: square"/>
    </g>
    <g id="text_19">
     <!-- PPO -->
     <g transform="translate(650.104808 364.282187) scale(0.1 -0.1)">
      <defs>
       <path id="DejaVuSans-50" d="M 1259 4147 
L 1259 2394 
L 2053 2394 
Q 2494 2394 2734 2622 
Q 2975 2850 2975 3272 
Q 2975 3691 2734 3919 
Q 2494 4147 2053 4147 
L 1259 4147 
z
M 628 4666 
L 2053 4666 
Q 2838 4666 3239 4311 
Q 3641 3956 3641 3272 
Q 3641 2581 3239 2228 
Q 2838 1875 2053 1875 
L 1259 1875 
L 1259 0 
L 628 0 
L 628 4666 
z
" transform="scale(0.015625)"/>
       <path id="DejaVuSans-4f" d="M 2522 4238 
Q 1834 4238 1429 3725 
Q 1025 3213 1025 2328 
Q 1025 1447 1429 934 
Q 1834 422 2522 422 
Q 3209 422 3611 934 
Q 4013 1447 4013 2328 
Q 4013 3213 3611 3725 
Q 3209 4238 2522 4238 
z
M 2522 4750 
Q 3503 4750 4090 4092 
Q 4678 3434 4678 2328 
Q 4678 1225 4090 567 
Q 3503 -91 2522 -91 
Q 1538 -91 948 565 
Q 359 1222 359 2328 
Q 359 3434 948 4092 
Q 1538 4750 2522 4750 
z
" transform="scale(0.015625)"/>
      </defs>
      <use xlink:href="#DejaVuSans-50"/>
      <use xlink:href="#DejaVuSans-50" transform="translate(60.302734 0)"/>
      <use xlink:href="#DejaVuSans-4f" transform="translate(120.605469 0)"/>
     </g>
    </g>
    <g id="line2d_34">
     <path d="M 622.104808 375.460312 
L 632.104808 375.460312 
L 642.104808 375.460312 
" style="fill: none; stroke: #ffa500; stroke-width: 1.5; stroke-linecap: square"/>
    </g>
    <g id="text_20">
     <!-- Random -->
     <g transform="translate(650.104808 378.960312) scale(0.1 -0.1)">
      <defs>
       <path id="DejaVuSans-6f" d="M 1959 3097 
Q 1497 3097 1228 2736 
Q 959 2375 959 1747 
Q 959 1119 1226 758 
Q 1494 397 1959 397 
Q 2419 397 2687 759 
Q 2956 1122 2956 1747 
Q 2956 2369 2687 2733 
Q 2419 3097 1959 3097 
z
M 1959 3584 
Q 2709 3584 3137 3096 
Q 3566 2609 3566 1747 
Q 3566 888 3137 398 
Q 2709 -91 1959 -91 
Q 1206 -91 779 398 
Q 353 888 353 1747 
Q 353 2609 779 3096 
Q 1206 3584 1959 3584 
z
" transform="scale(0.015625)"/>
       <path id="DejaVuSans-6d" d="M 3328 2828 
Q 3544 3216 3844 3400 
Q 4144 3584 4550 3584 
Q 5097 3584 5394 3201 
Q 5691 2819 5691 2113 
L 5691 0 
L 5113 0 
L 5113 2094 
Q 5113 2597 4934 2840 
Q 4756 3084 4391 3084 
Q 3944 3084 3684 2787 
Q 3425 2491 3425 1978 
L 3425 0 
L 2847 0 
L 2847 2094 
Q 2847 2600 2669 2842 
Q 2491 3084 2119 3084 
Q 1678 3084 1418 2786 
Q 1159 2488 1159 1978 
L 1159 0 
L 581 0 
L 581 3500 
L 1159 3500 
L 1159 2956 
Q 1356 3278 1631 3431 
Q 1906 3584 2284 3584 
Q 2666 3584 2933 3390 
Q 3200 3197 3328 2828 
z
" transform="scale(0.015625)"/>
      </defs>
      <use xlink:href="#DejaVuSans-52"/>
      <use xlink:href="#DejaVuSans-61" transform="translate(67.232422 0)"/>
      <use xlink:href="#DejaVuSans-6e" transform="translate(128.511719 0)"/>
      <use xlink:href="#DejaVuSans-64" transform="translate(191.890625 0)"/>
      <use xlink:href="#DejaVuSans-6f" transform="translate(255.367188 0)"/>
      <use xlink:href="#DejaVuSans-6d" transform="translate(316.548828 0)"/>
     </g>
    </g>
   </g>
  </g>
 </g>
 <defs>
  <clipPath id="pf529c1953c">
   <rect x="50.87" y="10.8" width="649.631683" height="379.24"/>
  </clipPath>
 </defs>
</svg>
