<?xml version="1.0" encoding="utf-8" standalone="no"?>
<!DOCTYPE svg PUBLIC "-//W3C//DTD SVG 1.1//EN"
  "http://www.w3.org/Graphics/SVG/1.1/DTD/svg11.dtd">
<svg xmlns:xlink="http://www.w3.org/1999/xlink" width="720pt" height="432pt" viewBox="0 0 720 432" xmlns="http://www.w3.org/2000/svg" version="1.1">
 <metadata>
  <rdf:RDF xmlns:dc="http://purl.org/dc/elements/1.1/" xmlns:cc="http://creativecommons.org/ns#" xmlns:rdf="http://www.w3.org/1999/02/22-rdf-syntax-ns#">
   <cc:Work>
    <dc:type rdf:resource="http://purl.org/dc/dcmitype/StillImage"/>
    <dc:date>2025-04-15T17:24:49.549510</dc:date>
    <dc:format>image/svg+xml</dc:format>
    <dc:creator>
     <cc:Agent>
      <dc:title>Matplotlib v3.10.0, https://matplotlib.org/</dc:title>
     </cc:Agent>
    </dc:creator>
   </cc:Work>
  </rdf:RDF>
 </metadata>
 <defs>
  <style type="text/css">*{stroke-linejoin: round; stroke-linecap: butt}</style>
 </defs>
 <g id="figure_1">
  <g id="patch_1">
   <path d="M 0 432 
L 720 432 
L 720 0 
L 0 0 
z
" style="fill: #ffffff"/>
  </g>
  <g id="axes_1">
   <g id="patch_2">
    <path d="M 38.27 390.04 
L 700.501683 390.04 
L 700.501683 10.8 
L 38.27 10.8 
z
" style="fill: #ffffff"/>
   </g>
   <g id="FillBetweenPolyCollection_1">
    <defs>
     <path id="md0c13afdd8" d="M 68.37144 -368.614565 
L 68.37144 -89.207487 
L 72.102429 -85.425351 
L 76.025297 -93.63348 
L 80.012125 -81.187711 
L 84.00606 -70.090669 
L 87.946695 -76.409878 
L 91.986823 -78.187246 
L 96.076697 -74.257067 
L 100.099058 -76.953679 
L 104.1001 -70.859359 
L 108.122461 -84.627306 
L 112.098629 -85.249975 
L 116.138757 -96.783508 
L 120.168225 -117.065113 
L 124.243886 -117.826453 
L 128.287567 -117.805477 
L 132.377442 -113.291168 
L 136.143964 -107.166952 
L 139.857186 -109.565348 
L 143.517108 -107.045615 
L 146.892765 -100.059999 
L 150.026796 -98.929465 
L 153.139506 -96.517396 
L 156.163384 -94.436863 
L 159.087768 -92.146038 
L 162.02992 -93.264558 
L 164.957857 -94.658898 
L 167.889349 -94.571373 
L 170.891906 -92.97087 
L 173.844717 -94.268432 
L 176.765549 -94.931644 
L 179.650847 -91.087868 
L 182.564571 -93.864196 
L 185.435656 -93.382802 
L 188.303188 -94.12718 
L 191.224019 -93.123368 
L 194.11287 -93.544231 
L 197.001721 -93.870755 
L 199.8657 -92.435323 
L 202.743891 -92.407666 
L 205.643402 -92.66315 
L 208.514487 -92.678725 
L 211.392678 -93.518494 
L 214.24955 -90.627516 
L 217.109975 -89.521494 
L 219.959739 -92.826659 
L 222.823717 -91.449161 
L 225.701909 -87.466766 
L 228.55878 -92.393466 
L 231.415652 -93.452397 
L 234.261863 -90.888548 
L 237.129395 -92.932263 
L 239.982713 -91.317535 
L 242.825371 -92.894542 
L 245.760415 -94.296857 
L 248.638607 -91.324373 
L 251.531011 -93.095331 
L 254.537122 -101.26204 
L 258.079785 -98.011736 
L 261.256456 -94.834875 
L 264.152414 -92.284143 
L 267.158525 -100.904798 
L 270.672761 -96.194732 
L 273.622019 -91.980153 
L 276.52153 -91.855461 
L 279.410381 -93.587372 
L 282.320553 -93.183148 
L 285.220064 -93.17043 
L 288.098255 -91.01551 
L 290.962233 -95.845718 
L 293.836871 -98.843938 
L 296.707956 -101.785831 
L 299.586147 -106.791614 
L 302.453679 -117.686687 
L 305.960808 -140.897537 
L 309.350678 -136.436326 
L 312.555775 -127.730113 
L 315.661379 -125.132068 
L 318.69947 -121.232321 
L 321.737561 -120.632191 
L 324.697479 -116.013074 
L 327.749783 -126.933854 
L 330.83762 -119.629341 
L 333.943225 -120.962426 
L 336.959995 -113.514059 
L 340.072706 -122.443319 
L 343.196077 -116.304629 
L 346.241274 -112.740902 
L 349.254492 -114.062875 
L 352.271263 -112.700695 
L 355.398187 -116.599362 
L 358.510898 -116.480908 
L 361.758635 -124.715694 
L 365.059671 -130.312516 
L 368.414008 -135.392696 
L 371.754131 -128.811954 
L 375.048061 -122.91839 
L 378.345545 -125.919779 
L 381.625262 -124.572734 
L 384.855232 -112.699841 
L 387.992816 -113.555401 
L 391.10908 -115.693189 
L 394.118744 -112.275069 
L 397.099982 -106.078453 
L 400.127413 -111.534344 
L 403.16195 -113.522741 
L 406.118315 -113.149477 
L 409.188386 -112.431776 
L 412.162517 -114.617474 
L 415.062028 -111.238991 
L 417.957986 -113.601405 
L 420.96765 -119.175937 
L 423.948888 -114.649036 
L 426.912359 -113.244042 
L 429.847404 -109.995321 
L 432.746915 -108.620847 
L 435.674853 -109.882564 
L 438.595684 -106.160585 
L 441.505856 -106.400745 
L 444.522627 -107.987285 
L 447.514524 -100.834649 
L 450.513529 -102.388197 
L 453.675986 -104.400192 
L 456.721183 -99.893472 
L 459.723741 -99.799802 
L 462.708532 -97.46586 
L 465.654237 -98.112622 
L 468.589281 -95.57333 
L 471.655799 -96.871279 
L 474.626376 -101.269291 
L 477.593401 -99.828888 
L 480.535552 -96.82808 
L 483.46349 -97.329891 
L 486.405641 -100.264171 
L 489.322919 -106.453465 
L 492.261517 -100.380114 
L 495.217881 -100.155436 
L 498.184906 -97.69686 
L 501.112844 -95.400803 
L 504.001695 -95.202838 
L 506.897653 -94.570329 
L 509.878891 -127.687449 
L 512.916982 -112.469893 
L 515.852026 -111.950146 
L 518.794177 -103.069765 
L 521.722115 -96.270942 
L 524.610967 -98.836551 
L 527.510478 -97.640147 
L 530.374456 -96.755301 
L 533.355694 -100.864542 
L 536.308505 -96.798033 
L 539.218676 -94.892697 
L 542.160827 -96.716437 
L 545.070999 -96.753356 
L 548.01315 -97.710643 
L 551.012154 -98.190717 
L 553.940092 -95.490156 
L 556.853817 -96.77878 
L 559.795968 -95.62011 
L 562.745226 -96.139246 
L 565.683824 -94.904536 
L 568.562015 -93.730159 
L 571.472186 -95.398208 
L 574.382358 -95.071212 
L 577.288975 -93.466977 
L 580.174273 -94.626844 
L 583.045358 -97.718174 
L 586.232689 -101.56302 
L 589.263673 -98.89643 
L 592.252017 -95.854211 
L 595.190615 -95.021996 
L 598.250026 -103.014221 
L 601.43025 -102.108293 
L 604.571387 -101.058425 
L 607.648565 -98.651697 
L 610.704422 -97.532472 
L 613.607487 -96.65418 
L 616.645578 -99.303968 
L 619.633922 -94.291255 
L 622.62582 -95.930871 
L 625.539544 -94.116067 
L 628.520782 -106.588688 
L 631.505573 -98.976246 
L 634.557877 -99.653629 
L 637.578202 -98.306889 
L 640.520353 -98.806772 
L 643.487377 -97.341189 
L 646.397548 -97.107447 
L 649.428533 -94.426978 
L 652.434644 -96.717275 
L 655.394561 -97.270326 
L 658.503719 -99.035677 
L 661.534703 -97.474174 
L 664.533707 -96.796791 
L 667.458092 -94.788708 
L 670.400243 -95.262495 
L 670.400243 -174.546368 
L 670.400243 -174.546368 
L 667.458092 -173.382885 
L 664.533707 -177.651004 
L 661.534703 -178.610891 
L 658.503719 -181.688321 
L 655.394561 -181.543523 
L 652.434644 -191.920195 
L 649.428533 -219.315301 
L 646.397548 -179.250496 
L 643.487377 -176.287971 
L 640.520353 -176.732537 
L 637.578202 -175.868028 
L 634.557877 -178.068706 
L 631.505573 -177.108819 
L 628.520782 -182.867416 
L 625.539544 -173.509769 
L 622.62582 -186.703275 
L 619.633922 -196.529241 
L 616.645578 -178.691245 
L 613.607487 -175.883467 
L 610.704422 -177.733958 
L 607.648565 -181.799422 
L 604.571387 -181.57572 
L 601.43025 -183.527515 
L 598.250026 -186.714762 
L 595.190615 -176.697016 
L 592.252017 -174.773287 
L 589.263673 -144.716111 
L 586.232689 -181.616882 
L 583.045358 -180.549918 
L 580.174273 -172.726113 
L 577.288975 -171.702953 
L 574.382358 -173.100381 
L 571.472186 -178.230952 
L 568.562015 -173.895677 
L 565.683824 -172.7213 
L 562.745226 -174.76113 
L 559.795968 -175.007387 
L 556.853817 -175.758866 
L 553.940092 -172.954315 
L 551.012154 -175.165565 
L 548.01315 -177.01003 
L 545.070999 -175.238533 
L 542.160827 -175.821209 
L 539.218676 -172.460261 
L 536.308505 -174.6481 
L 533.355694 -181.223847 
L 530.374456 -176.328102 
L 527.510478 -174.897499 
L 524.610967 -180.250176 
L 521.722115 -173.810799 
L 518.794177 -182.566043 
L 515.852026 -188.693972 
L 512.916982 -189.538616 
L 509.878891 -189.32937 
L 506.897653 -173.055506 
L 504.001695 -173.514511 
L 501.112844 -174.135181 
L 498.184906 -175.659421 
L 495.217881 -175.656751 
L 492.261517 -180.071005 
L 489.322919 -193.917774 
L 486.405641 -185.371637 
L 483.46349 -178.482295 
L 480.535552 -177.892593 
L 477.593401 -181.986623 
L 474.626376 -189.278327 
L 471.655799 -209.776162 
L 468.589281 -218.714705 
L 465.654237 -180.428348 
L 462.708532 -174.798908 
L 459.723741 -145.722887 
L 456.721183 -178.101741 
L 453.675986 -183.145764 
L 450.513529 -184.339124 
L 447.514524 -182.345254 
L 444.522627 -189.382293 
L 441.505856 -183.873994 
L 438.595684 -184.387033 
L 435.674853 -190.761553 
L 432.746915 -198.572351 
L 429.847404 -187.374256 
L 426.912359 -187.945833 
L 423.948888 -192.544162 
L 420.96765 -197.022247 
L 417.957986 -196.866333 
L 415.062028 -193.498302 
L 412.162517 -189.574062 
L 409.188386 -189.849611 
L 406.118315 -192.952207 
L 403.16195 -191.214552 
L 400.127413 -190.201287 
L 397.099982 -186.106436 
L 394.118744 -190.279196 
L 391.10908 -189.58986 
L 387.992816 -194.729311 
L 384.855232 -190.400181 
L 381.625262 -195.718625 
L 378.345545 -196.00885 
L 375.048061 -195.735699 
L 371.754131 -193.935311 
L 368.414008 -210.549229 
L 365.059671 -195.709288 
L 361.758635 -192.301125 
L 358.510898 -199.990154 
L 355.398187 -187.046418 
L 352.271263 -189.307814 
L 349.254492 -189.855783 
L 346.241274 -190.359121 
L 343.196077 -192.525839 
L 340.072706 -194.300621 
L 336.959995 -193.679139 
L 333.943225 -197.964542 
L 330.83762 -194.658695 
L 327.749783 -200.179464 
L 324.697479 -208.371461 
L 321.737561 -206.208248 
L 318.69947 -204.243727 
L 315.661379 -210.440479 
L 312.555775 -206.205164 
L 309.350678 -215.236045 
L 305.960808 -227.420414 
L 302.453679 -216.24859 
L 299.586147 -205.313394 
L 296.707956 -194.219354 
L 293.836871 -192.249437 
L 290.962233 -199.886589 
L 288.098255 -177.974717 
L 285.220064 -175.001163 
L 282.320553 -181.537526 
L 279.410381 -169.945289 
L 276.52153 -177.134766 
L 273.622019 -192.291263 
L 270.672761 -212.908615 
L 267.158525 -210.381576 
L 264.152414 -184.892436 
L 261.256456 -192.438203 
L 258.079785 -227.737191 
L 254.537122 -211.388725 
L 251.531011 -186.810031 
L 248.638607 -188.035233 
L 245.760415 -181.788208 
L 242.825371 -178.824469 
L 239.982713 -181.765868 
L 237.129395 -176.330843 
L 234.261863 -175.918653 
L 231.415652 -175.264952 
L 228.55878 -180.689937 
L 225.701909 -207.174028 
L 222.823717 -182.179999 
L 219.959739 -182.712649 
L 217.109975 -186.563572 
L 214.24955 -185.457549 
L 211.392678 -177.65476 
L 208.514487 -183.679219 
L 205.643402 -179.874496 
L 202.743891 -177.401197 
L 199.8657 -175.73627 
L 197.001721 -175.938107 
L 194.11287 -174.627362 
L 191.224019 -182.143062 
L 188.303188 -177.318953 
L 185.435656 -179.427723 
L 182.564571 -176.217545 
L 179.650847 -175.446455 
L 176.765549 -178.697516 
L 173.844717 -177.177701 
L 170.891906 -186.388736 
L 167.889349 -192.701705 
L 164.957857 -183.882072 
L 162.02992 -186.367925 
L 159.087768 -195.12704 
L 156.163384 -198.020904 
L 153.139506 -204.3996 
L 150.026796 -204.443436 
L 146.892765 -221.86863 
L 143.517108 -246.536904 
L 139.857186 -269.121981 
L 136.143964 -284.345659 
L 132.377442 -344.803762 
L 128.287567 -352.296101 
L 124.243886 -359.097085 
L 120.168225 -351.126317 
L 116.138757 -355.308099 
L 112.098629 -362.202699 
L 108.122461 -349.181451 
L 104.1001 -346.303818 
L 100.099058 -355.763564 
L 96.076697 -347.545042 
L 91.986823 -357.531659 
L 87.946695 -344.300717 
L 84.00606 -356.62325 
L 80.012125 -385.912206 
L 76.025297 -391.476408 
L 72.102429 -368.849282 
L 68.37144 -368.614565 
z
" style="stroke: #0000ff; stroke-opacity: 0.2"/>
    </defs>
    <g clip-path="url(#p00e7c64145)">
     <use xlink:href="#md0c13afdd8" x="0" y="432" style="fill: #0000ff; fill-opacity: 0.2; stroke: #0000ff; stroke-opacity: 0.2"/>
    </g>
   </g>
   <g id="FillBetweenPolyCollection_2">
    <defs>
     <path id="me2e3c2bee7" d="M 68.542 -372.598832 
L 68.542 -76.763991 
L 72.315628 -82.870644 
L 76.277583 -81.441274 
L 80.193345 -86.609252 
L 84.137533 -87.100549 
L 88.028421 -81.224176 
L 91.944183 -85.157102 
L 95.867051 -89.375918 
L 99.814793 -88.819205 
L 103.783854 -81.54 
L 107.649869 -80.465855 
L 111.675784 -91.682662 
L 115.797638 -82.823484 
L 119.567713 -90.156081 
L 123.501242 -88.239551 
L 127.374363 -85.402656 
L 131.446471 -94.994753 
L 135.550559 -79.37622 
L 139.548047 -86.347759 
L 143.421169 -82.614342 
L 147.663836 -75.364197 
L 151.593811 -74.092238 
L 155.605512 -78.725078 
L 159.638533 -74.856726 
L 163.575615 -88.932272 
L 167.509143 -85.475506 
L 171.428458 -84.498731 
L 175.489906 -90.926146 
L 179.384348 -88.925429 
L 183.715848 -83.995435 
L 187.53567 -93.068836 
L 191.476305 -74.907312 
L 195.41694 -92.388669 
L 199.425088 -83.692498 
L 203.536282 -84.059709 
L 207.473363 -78.870835 
L 211.463745 -108.907325 
L 215.518086 -68.589187 
L 219.352121 -73.016616 
L 223.360269 -85.1849 
L 227.411057 -83.637606 
L 231.412098 -82.966108 
L 235.4238 -77.92269 
L 239.225855 -78.27903 
L 243.074103 -73.96338 
L 247.075145 -83.583315 
L 251.04776 -94.486053 
L 255.084334 -70.971882 
L 259.191975 -96.053246 
L 263.313829 -88.145338 
L 267.361064 -79.862369 
L 271.465152 -87.884941 
L 275.178374 -69.430829 
L 279.101242 -100.135027 
L 283.304823 -80.87357 
L 287.323631 -90.066486 
L 291.374419 -92.373995 
L 295.318607 -83.212346 
L 299.102896 -70.536082 
L 302.965357 -84.66631 
L 306.905992 -91.313851 
L 310.99942 -69.42353 
L 314.915182 -86.006935 
L 318.905563 -76.602681 
L 322.967011 -90.045132 
L 326.854346 -89.94183 
L 330.677721 -86.910215 
L 334.604143 -101.659187 
L 338.853916 -100.131457 
L 342.808765 -82.40247 
L 346.792039 -100.89192 
L 350.860594 -92.282114 
L 354.982448 -65.229003 
L 358.976383 -94.218948 
L 362.941891 -81.127267 
L 367.038872 -79.166576 
L 371.146513 -79.89983 
L 375.080041 -85.584774 
L 378.988696 -79.815257 
L 382.964864 -70.921349 
L 386.877073 -79.566882 
L 390.913647 -77.666301 
L 394.822302 -79.751623 
L 398.88375 -75.450508 
L 402.884791 -60.778268 
L 406.853853 -82.100019 
L 410.744741 -65.281434 
L 414.52903 -77.016933 
L 418.448345 -77.895871 
L 422.243293 -65.641044 
L 426.276315 -81.878255 
L 430.181416 -79.854462 
L 434.299717 -88.94983 
L 438.258119 -83.390508 
L 442.262713 -76.267839 
L 446.231775 -71.736445 
L 449.884591 -77.330539 
L 453.814565 -88.294179 
L 457.844033 -88.115462 
L 461.820201 -80.12598 
L 465.63647 -77.609992 
L 469.673045 -67.37399 
L 473.833985 -85.343735 
L 477.938073 -76.246647 
L 481.814748 -81.101009 
L 485.680763 -90.089349 
L 489.560992 -85.223543 
L 493.448327 -83.946658 
L 497.360535 -77.231075 
L 501.19457 -77.835193 
L 505.057032 -94.231934 
L 509.047413 -78.880253 
L 512.984495 -94.665961 
L 516.996196 -84.515307 
L 520.961704 -75.884959 
L 525.033812 -83.415062 
L 529.130793 -85.848687 
L 533.025235 -82.31025 
L 536.866377 -74.407165 
L 540.576045 -66.078818 
L 544.552214 -79.740982 
L 548.478635 -76.343616 
L 552.35531 -71.202163 
L 556.075639 -83.599672 
L 559.973634 -78.928231 
L 563.928482 -101.73681 
L 568.039677 -86.910517 
L 571.941225 -82.622102 
L 575.832113 -84.4948 
L 579.957521 -95.064866 
L 583.937242 -95.546057 
L 587.94539 -88.983956 
L 592.074351 -77.948836 
L 595.87996 -83.25463 
L 599.884554 -68.540688 
L 603.56935 -84.872915 
L 607.318106 -64.695396 
L 611.201887 -85.365702 
L 615.213589 -102.120507 
L 619.132903 -59.198182 
L 623.201458 -99.729482 
L 627.301992 -78.644905 
L 631.292374 -96.7027 
L 635.368035 -81.66165 
L 639.383289 -97.501951 
L 643.227985 -70.620258 
L 646.97674 -72.822655 
L 650.643769 -77.390421 
L 654.460038 -77.614167 
L 658.315393 -72.482329 
L 662.248921 -80.225864 
L 666.253516 -78.536536 
L 670.165724 -73.350869 
L 670.165724 -351.180024 
L 670.165724 -351.180024 
L 666.253516 -377.375368 
L 662.248921 -375.140283 
L 658.315393 -392.980317 
L 654.460038 -369.565629 
L 650.643769 -374.701185 
L 646.97674 -375.994411 
L 643.227985 -367.827431 
L 639.383289 -380.785978 
L 635.368035 -372.067226 
L 631.292374 -389.498702 
L 627.301992 -388.455011 
L 623.201458 -394.65827 
L 619.132903 -387.162979 
L 615.213589 -372.620003 
L 611.201887 -382.007093 
L 607.318106 -366.384577 
L 603.56935 -377.588069 
L 599.884554 -375.910325 
L 595.87996 -394.760421 
L 592.074351 -387.51381 
L 587.94539 -381.663379 
L 583.937242 -397.477303 
L 579.957521 -403.961818 
L 575.832113 -389.972832 
L 571.941225 -370.015262 
L 568.039677 -378.279251 
L 563.928482 -387.739132 
L 559.973634 -385.71578 
L 556.075639 -370.947839 
L 552.35531 -368.882796 
L 548.478635 -378.203896 
L 544.552214 -377.808192 
L 540.576045 -364.455399 
L 536.866377 -377.684442 
L 533.025235 -388.882842 
L 529.130793 -375.520784 
L 525.033812 -373.861233 
L 520.961704 -396.399646 
L 516.996196 -384.22188 
L 512.984495 -375.981374 
L 509.047413 -376.758773 
L 505.057032 -383.23736 
L 501.19457 -372.619143 
L 497.360535 -376.224924 
L 493.448327 -390.520974 
L 489.560992 -378.601833 
L 485.680763 -382.195256 
L 481.814748 -369.080449 
L 477.938073 -369.568757 
L 473.833985 -378.208763 
L 469.673045 -389.083671 
L 465.63647 -377.483276 
L 461.820201 -395.978923 
L 457.844033 -390.172467 
L 453.814565 -364.070306 
L 449.884591 -373.669554 
L 446.231775 -356.068988 
L 442.262713 -372.822105 
L 438.258119 -366.245194 
L 434.299717 -391.248248 
L 430.181416 -377.96759 
L 426.276315 -377.308189 
L 422.243293 -370.896496 
L 418.448345 -380.744816 
L 414.52903 -374.801796 
L 410.744741 -363.342634 
L 406.853853 -379.54233 
L 402.884791 -381.489717 
L 398.88375 -365.998842 
L 394.822302 -383.800875 
L 390.913647 -375.516819 
L 386.877073 -382.621224 
L 382.964864 -385.263433 
L 378.988696 -365.454391 
L 375.080041 -388.064223 
L 371.146513 -390.201749 
L 367.038872 -368.01322 
L 362.941891 -388.701433 
L 358.976383 -388.980792 
L 354.982448 -365.032335 
L 350.860594 -395.556558 
L 346.792039 -382.580698 
L 342.808765 -379.785636 
L 338.853916 -393.43766 
L 334.604143 -391.364173 
L 330.677721 -364.635635 
L 326.854346 -374.156424 
L 322.967011 -376.509028 
L 318.905563 -364.300913 
L 314.915182 -398.830075 
L 310.99942 -370.661428 
L 306.905992 -395.706185 
L 302.965357 -384.070877 
L 299.102896 -378.280984 
L 295.318607 -374.609706 
L 291.374419 -379.637732 
L 287.323631 -374.304647 
L 283.304823 -380.495901 
L 279.101242 -388.795158 
L 275.178374 -366.015198 
L 271.465152 -376.486191 
L 267.361064 -385.327398 
L 263.313829 -380.864727 
L 259.191975 -391.239669 
L 255.084334 -365.292779 
L 251.04776 -382.437484 
L 247.075145 -381.060696 
L 243.074103 -358.208107 
L 239.225855 -387.183617 
L 235.4238 -372.804525 
L 231.412098 -385.4982 
L 227.411057 -395.19608 
L 223.360269 -384.6438 
L 219.352121 -372.798788 
L 215.518086 -376.407582 
L 211.463745 -393.666778 
L 207.473363 -361.214124 
L 203.536282 -394.22822 
L 199.425088 -383.13454 
L 195.41694 -380.441693 
L 191.476305 -373.636876 
L 187.53567 -383.036066 
L 183.715848 -371.64359 
L 179.384348 -389.3625 
L 175.489906 -382.995729 
L 171.428458 -385.329969 
L 167.509143 -361.158533 
L 163.575615 -383.625211 
L 159.638533 -385.69411 
L 155.605512 -367.090326 
L 151.593811 -376.634977 
L 147.663836 -367.176667 
L 143.421169 -383.394061 
L 139.548047 -374.203077 
L 135.550559 -386.086426 
L 131.446471 -380.564392 
L 127.374363 -387.973463 
L 123.501242 -383.772176 
L 119.567713 -398.501225 
L 115.797638 -387.823851 
L 111.675784 -387.969659 
L 107.649869 -380.357859 
L 103.783854 -395.929294 
L 99.814793 -378.007833 
L 95.867051 -374.722337 
L 91.944183 -371.846315 
L 88.028421 -361.589567 
L 84.137533 -386.821326 
L 80.193345 -371.485679 
L 76.277583 -386.204399 
L 72.315628 -384.775029 
L 68.542 -372.598832 
z
" style="stroke: #ffa500; stroke-opacity: 0.2"/>
    </defs>
    <g clip-path="url(#p00e7c64145)">
     <use xlink:href="#me2e3c2bee7" x="0" y="432" style="fill: #ffa500; fill-opacity: 0.2; stroke: #ffa500; stroke-opacity: 0.2"/>
    </g>
   </g>
   <g id="matplotlib.axis_1">
    <g id="xtick_1">
     <g id="line2d_1">
      <path d="M 66.509499 390.04 
L 66.509499 10.8 
" clip-path="url(#p00e7c64145)" style="fill: none; stroke: #b0b0b0; stroke-width: 0.8; stroke-linecap: square"/>
     </g>
     <g id="line2d_2">
      <defs>
       <path id="m6ed5b0f963" d="M 0 0 
L 0 3.5 
" style="stroke: #000000; stroke-width: 0.8"/>
      </defs>
      <g>
       <use xlink:href="#m6ed5b0f963" x="66.509499" y="390.04" style="stroke: #000000; stroke-width: 0.8"/>
      </g>
     </g>
     <g id="text_1">
      <!-- 0 -->
      <g transform="translate(63.328249 404.638438) scale(0.1 -0.1)">
       <defs>
        <path id="DejaVuSans-30" d="M 2034 4250 
Q 1547 4250 1301 3770 
Q 1056 3291 1056 2328 
Q 1056 1369 1301 889 
Q 1547 409 2034 409 
Q 2525 409 2770 889 
Q 3016 1369 3016 2328 
Q 3016 3291 2770 3770 
Q 2525 4250 2034 4250 
z
M 2034 4750 
Q 2819 4750 3233 4129 
Q 3647 3509 3647 2328 
Q 3647 1150 3233 529 
Q 2819 -91 2034 -91 
Q 1250 -91 836 529 
Q 422 1150 422 2328 
Q 422 3509 836 4129 
Q 1250 4750 2034 4750 
z
" transform="scale(0.015625)"/>
       </defs>
       <use xlink:href="#DejaVuSans-30"/>
      </g>
     </g>
    </g>
    <g id="xtick_2">
     <g id="line2d_3">
      <path d="M 155.342566 390.04 
L 155.342566 10.8 
" clip-path="url(#p00e7c64145)" style="fill: none; stroke: #b0b0b0; stroke-width: 0.8; stroke-linecap: square"/>
     </g>
     <g id="line2d_4">
      <g>
       <use xlink:href="#m6ed5b0f963" x="155.342566" y="390.04" style="stroke: #000000; stroke-width: 0.8"/>
      </g>
     </g>
     <g id="text_2">
      <!-- 25000 -->
      <g transform="translate(139.436316 404.638438) scale(0.1 -0.1)">
       <defs>
        <path id="DejaVuSans-32" d="M 1228 531 
L 3431 531 
L 3431 0 
L 469 0 
L 469 531 
Q 828 903 1448 1529 
Q 2069 2156 2228 2338 
Q 2531 2678 2651 2914 
Q 2772 3150 2772 3378 
Q 2772 3750 2511 3984 
Q 2250 4219 1831 4219 
Q 1534 4219 1204 4116 
Q 875 4013 500 3803 
L 500 4441 
Q 881 4594 1212 4672 
Q 1544 4750 1819 4750 
Q 2544 4750 2975 4387 
Q 3406 4025 3406 3419 
Q 3406 3131 3298 2873 
Q 3191 2616 2906 2266 
Q 2828 2175 2409 1742 
Q 1991 1309 1228 531 
z
" transform="scale(0.015625)"/>
        <path id="DejaVuSans-35" d="M 691 4666 
L 3169 4666 
L 3169 4134 
L 1269 4134 
L 1269 2991 
Q 1406 3038 1543 3061 
Q 1681 3084 1819 3084 
Q 2600 3084 3056 2656 
Q 3513 2228 3513 1497 
Q 3513 744 3044 326 
Q 2575 -91 1722 -91 
Q 1428 -91 1123 -41 
Q 819 9 494 109 
L 494 744 
Q 775 591 1075 516 
Q 1375 441 1709 441 
Q 2250 441 2565 725 
Q 2881 1009 2881 1497 
Q 2881 1984 2565 2268 
Q 2250 2553 1709 2553 
Q 1456 2553 1204 2497 
Q 953 2441 691 2322 
L 691 4666 
z
" transform="scale(0.015625)"/>
       </defs>
       <use xlink:href="#DejaVuSans-32"/>
       <use xlink:href="#DejaVuSans-35" transform="translate(63.623047 0)"/>
       <use xlink:href="#DejaVuSans-30" transform="translate(127.246094 0)"/>
       <use xlink:href="#DejaVuSans-30" transform="translate(190.869141 0)"/>
       <use xlink:href="#DejaVuSans-30" transform="translate(254.492188 0)"/>
      </g>
     </g>
    </g>
    <g id="xtick_3">
     <g id="line2d_5">
      <path d="M 244.175633 390.04 
L 244.175633 10.8 
" clip-path="url(#p00e7c64145)" style="fill: none; stroke: #b0b0b0; stroke-width: 0.8; stroke-linecap: square"/>
     </g>
     <g id="line2d_6">
      <g>
       <use xlink:href="#m6ed5b0f963" x="244.175633" y="390.04" style="stroke: #000000; stroke-width: 0.8"/>
      </g>
     </g>
     <g id="text_3">
      <!-- 50000 -->
      <g transform="translate(228.269383 404.638438) scale(0.1 -0.1)">
       <use xlink:href="#DejaVuSans-35"/>
       <use xlink:href="#DejaVuSans-30" transform="translate(63.623047 0)"/>
       <use xlink:href="#DejaVuSans-30" transform="translate(127.246094 0)"/>
       <use xlink:href="#DejaVuSans-30" transform="translate(190.869141 0)"/>
       <use xlink:href="#DejaVuSans-30" transform="translate(254.492188 0)"/>
      </g>
     </g>
    </g>
    <g id="xtick_4">
     <g id="line2d_7">
      <path d="M 333.008701 390.04 
L 333.008701 10.8 
" clip-path="url(#p00e7c64145)" style="fill: none; stroke: #b0b0b0; stroke-width: 0.8; stroke-linecap: square"/>
     </g>
     <g id="line2d_8">
      <g>
       <use xlink:href="#m6ed5b0f963" x="333.008701" y="390.04" style="stroke: #000000; stroke-width: 0.8"/>
      </g>
     </g>
     <g id="text_4">
      <!-- 75000 -->
      <g transform="translate(317.102451 404.638438) scale(0.1 -0.1)">
       <defs>
        <path id="DejaVuSans-37" d="M 525 4666 
L 3525 4666 
L 3525 4397 
L 1831 0 
L 1172 0 
L 2766 4134 
L 525 4134 
L 525 4666 
z
" transform="scale(0.015625)"/>
       </defs>
       <use xlink:href="#DejaVuSans-37"/>
       <use xlink:href="#DejaVuSans-35" transform="translate(63.623047 0)"/>
       <use xlink:href="#DejaVuSans-30" transform="translate(127.246094 0)"/>
       <use xlink:href="#DejaVuSans-30" transform="translate(190.869141 0)"/>
       <use xlink:href="#DejaVuSans-30" transform="translate(254.492188 0)"/>
      </g>
     </g>
    </g>
    <g id="xtick_5">
     <g id="line2d_9">
      <path d="M 421.841768 390.04 
L 421.841768 10.8 
" clip-path="url(#p00e7c64145)" style="fill: none; stroke: #b0b0b0; stroke-width: 0.8; stroke-linecap: square"/>
     </g>
     <g id="line2d_10">
      <g>
       <use xlink:href="#m6ed5b0f963" x="421.841768" y="390.04" style="stroke: #000000; stroke-width: 0.8"/>
      </g>
     </g>
     <g id="text_5">
      <!-- 100000 -->
      <g transform="translate(402.754268 404.638438) scale(0.1 -0.1)">
       <defs>
        <path id="DejaVuSans-31" d="M 794 531 
L 1825 531 
L 1825 4091 
L 703 3866 
L 703 4441 
L 1819 4666 
L 2450 4666 
L 2450 531 
L 3481 531 
L 3481 0 
L 794 0 
L 794 531 
z
" transform="scale(0.015625)"/>
       </defs>
       <use xlink:href="#DejaVuSans-31"/>
       <use xlink:href="#DejaVuSans-30" transform="translate(63.623047 0)"/>
       <use xlink:href="#DejaVuSans-30" transform="translate(127.246094 0)"/>
       <use xlink:href="#DejaVuSans-30" transform="translate(190.869141 0)"/>
       <use xlink:href="#DejaVuSans-30" transform="translate(254.492188 0)"/>
       <use xlink:href="#DejaVuSans-30" transform="translate(318.115234 0)"/>
      </g>
     </g>
    </g>
    <g id="xtick_6">
     <g id="line2d_11">
      <path d="M 510.674835 390.04 
L 510.674835 10.8 
" clip-path="url(#p00e7c64145)" style="fill: none; stroke: #b0b0b0; stroke-width: 0.8; stroke-linecap: square"/>
     </g>
     <g id="line2d_12">
      <g>
       <use xlink:href="#m6ed5b0f963" x="510.674835" y="390.04" style="stroke: #000000; stroke-width: 0.8"/>
      </g>
     </g>
     <g id="text_6">
      <!-- 125000 -->
      <g transform="translate(491.587335 404.638438) scale(0.1 -0.1)">
       <use xlink:href="#DejaVuSans-31"/>
       <use xlink:href="#DejaVuSans-32" transform="translate(63.623047 0)"/>
       <use xlink:href="#DejaVuSans-35" transform="translate(127.246094 0)"/>
       <use xlink:href="#DejaVuSans-30" transform="translate(190.869141 0)"/>
       <use xlink:href="#DejaVuSans-30" transform="translate(254.492188 0)"/>
       <use xlink:href="#DejaVuSans-30" transform="translate(318.115234 0)"/>
      </g>
     </g>
    </g>
    <g id="xtick_7">
     <g id="line2d_13">
      <path d="M 599.507902 390.04 
L 599.507902 10.8 
" clip-path="url(#p00e7c64145)" style="fill: none; stroke: #b0b0b0; stroke-width: 0.8; stroke-linecap: square"/>
     </g>
     <g id="line2d_14">
      <g>
       <use xlink:href="#m6ed5b0f963" x="599.507902" y="390.04" style="stroke: #000000; stroke-width: 0.8"/>
      </g>
     </g>
     <g id="text_7">
      <!-- 150000 -->
      <g transform="translate(580.420402 404.638438) scale(0.1 -0.1)">
       <use xlink:href="#DejaVuSans-31"/>
       <use xlink:href="#DejaVuSans-35" transform="translate(63.623047 0)"/>
       <use xlink:href="#DejaVuSans-30" transform="translate(127.246094 0)"/>
       <use xlink:href="#DejaVuSans-30" transform="translate(190.869141 0)"/>
       <use xlink:href="#DejaVuSans-30" transform="translate(254.492188 0)"/>
       <use xlink:href="#DejaVuSans-30" transform="translate(318.115234 0)"/>
      </g>
     </g>
    </g>
    <g id="xtick_8">
     <g id="line2d_15">
      <path d="M 688.340969 390.04 
L 688.340969 10.8 
" clip-path="url(#p00e7c64145)" style="fill: none; stroke: #b0b0b0; stroke-width: 0.8; stroke-linecap: square"/>
     </g>
     <g id="line2d_16">
      <g>
       <use xlink:href="#m6ed5b0f963" x="688.340969" y="390.04" style="stroke: #000000; stroke-width: 0.8"/>
      </g>
     </g>
     <g id="text_8">
      <!-- 175000 -->
      <g transform="translate(669.253469 404.638438) scale(0.1 -0.1)">
       <use xlink:href="#DejaVuSans-31"/>
       <use xlink:href="#DejaVuSans-37" transform="translate(63.623047 0)"/>
       <use xlink:href="#DejaVuSans-35" transform="translate(127.246094 0)"/>
       <use xlink:href="#DejaVuSans-30" transform="translate(190.869141 0)"/>
       <use xlink:href="#DejaVuSans-30" transform="translate(254.492188 0)"/>
       <use xlink:href="#DejaVuSans-30" transform="translate(318.115234 0)"/>
      </g>
     </g>
    </g>
    <g id="text_9">
     <!-- Steps -->
     <g transform="translate(355.395998 418.316562) scale(0.1 -0.1)">
      <defs>
       <path id="DejaVuSans-53" d="M 3425 4513 
L 3425 3897 
Q 3066 4069 2747 4153 
Q 2428 4238 2131 4238 
Q 1616 4238 1336 4038 
Q 1056 3838 1056 3469 
Q 1056 3159 1242 3001 
Q 1428 2844 1947 2747 
L 2328 2669 
Q 3034 2534 3370 2195 
Q 3706 1856 3706 1288 
Q 3706 609 3251 259 
Q 2797 -91 1919 -91 
Q 1588 -91 1214 -16 
Q 841 59 441 206 
L 441 856 
Q 825 641 1194 531 
Q 1563 422 1919 422 
Q 2459 422 2753 634 
Q 3047 847 3047 1241 
Q 3047 1584 2836 1778 
Q 2625 1972 2144 2069 
L 1759 2144 
Q 1053 2284 737 2584 
Q 422 2884 422 3419 
Q 422 4038 858 4394 
Q 1294 4750 2059 4750 
Q 2388 4750 2728 4690 
Q 3069 4631 3425 4513 
z
" transform="scale(0.015625)"/>
       <path id="DejaVuSans-74" d="M 1172 4494 
L 1172 3500 
L 2356 3500 
L 2356 3053 
L 1172 3053 
L 1172 1153 
Q 1172 725 1289 603 
Q 1406 481 1766 481 
L 2356 481 
L 2356 0 
L 1766 0 
Q 1100 0 847 248 
Q 594 497 594 1153 
L 594 3053 
L 172 3053 
L 172 3500 
L 594 3500 
L 594 4494 
L 1172 4494 
z
" transform="scale(0.015625)"/>
       <path id="DejaVuSans-65" d="M 3597 1894 
L 3597 1613 
L 953 1613 
Q 991 1019 1311 708 
Q 1631 397 2203 397 
Q 2534 397 2845 478 
Q 3156 559 3463 722 
L 3463 178 
Q 3153 47 2828 -22 
Q 2503 -91 2169 -91 
Q 1331 -91 842 396 
Q 353 884 353 1716 
Q 353 2575 817 3079 
Q 1281 3584 2069 3584 
Q 2775 3584 3186 3129 
Q 3597 2675 3597 1894 
z
M 3022 2063 
Q 3016 2534 2758 2815 
Q 2500 3097 2075 3097 
Q 1594 3097 1305 2825 
Q 1016 2553 972 2059 
L 3022 2063 
z
" transform="scale(0.015625)"/>
       <path id="DejaVuSans-70" d="M 1159 525 
L 1159 -1331 
L 581 -1331 
L 581 3500 
L 1159 3500 
L 1159 2969 
Q 1341 3281 1617 3432 
Q 1894 3584 2278 3584 
Q 2916 3584 3314 3078 
Q 3713 2572 3713 1747 
Q 3713 922 3314 415 
Q 2916 -91 2278 -91 
Q 1894 -91 1617 61 
Q 1341 213 1159 525 
z
M 3116 1747 
Q 3116 2381 2855 2742 
Q 2594 3103 2138 3103 
Q 1681 3103 1420 2742 
Q 1159 2381 1159 1747 
Q 1159 1113 1420 752 
Q 1681 391 2138 391 
Q 2594 391 2855 752 
Q 3116 1113 3116 1747 
z
" transform="scale(0.015625)"/>
       <path id="DejaVuSans-73" d="M 2834 3397 
L 2834 2853 
Q 2591 2978 2328 3040 
Q 2066 3103 1784 3103 
Q 1356 3103 1142 2972 
Q 928 2841 928 2578 
Q 928 2378 1081 2264 
Q 1234 2150 1697 2047 
L 1894 2003 
Q 2506 1872 2764 1633 
Q 3022 1394 3022 966 
Q 3022 478 2636 193 
Q 2250 -91 1575 -91 
Q 1294 -91 989 -36 
Q 684 19 347 128 
L 347 722 
Q 666 556 975 473 
Q 1284 391 1588 391 
Q 1994 391 2212 530 
Q 2431 669 2431 922 
Q 2431 1156 2273 1281 
Q 2116 1406 1581 1522 
L 1381 1569 
Q 847 1681 609 1914 
Q 372 2147 372 2553 
Q 372 3047 722 3315 
Q 1072 3584 1716 3584 
Q 2034 3584 2315 3537 
Q 2597 3491 2834 3397 
z
" transform="scale(0.015625)"/>
      </defs>
      <use xlink:href="#DejaVuSans-53"/>
      <use xlink:href="#DejaVuSans-74" transform="translate(63.476562 0)"/>
      <use xlink:href="#DejaVuSans-65" transform="translate(102.685547 0)"/>
      <use xlink:href="#DejaVuSans-70" transform="translate(164.208984 0)"/>
      <use xlink:href="#DejaVuSans-73" transform="translate(227.685547 0)"/>
     </g>
    </g>
   </g>
   <g id="matplotlib.axis_2">
    <g id="ytick_1">
     <g id="line2d_17">
      <path d="M 38.27 327.930823 
L 700.501683 327.930823 
" clip-path="url(#p00e7c64145)" style="fill: none; stroke: #b0b0b0; stroke-width: 0.8; stroke-linecap: square"/>
     </g>
     <g id="line2d_18">
      <defs>
       <path id="ma5ea4fcafa" d="M 0 0 
L -3.5 0 
" style="stroke: #000000; stroke-width: 0.8"/>
      </defs>
      <g>
       <use xlink:href="#ma5ea4fcafa" x="38.27" y="327.930823" style="stroke: #000000; stroke-width: 0.8"/>
      </g>
     </g>
     <g id="text_10">
      <!-- 4 -->
      <g transform="translate(24.9075 331.730042) scale(0.1 -0.1)">
       <defs>
        <path id="DejaVuSans-34" d="M 2419 4116 
L 825 1625 
L 2419 1625 
L 2419 4116 
z
M 2253 4666 
L 3047 4666 
L 3047 1625 
L 3713 1625 
L 3713 1100 
L 3047 1100 
L 3047 0 
L 2419 0 
L 2419 1100 
L 313 1100 
L 313 1709 
L 2253 4666 
z
" transform="scale(0.015625)"/>
       </defs>
       <use xlink:href="#DejaVuSans-34"/>
      </g>
     </g>
    </g>
    <g id="ytick_2">
     <g id="line2d_19">
      <path d="M 38.27 246.067315 
L 700.501683 246.067315 
" clip-path="url(#p00e7c64145)" style="fill: none; stroke: #b0b0b0; stroke-width: 0.8; stroke-linecap: square"/>
     </g>
     <g id="line2d_20">
      <g>
       <use xlink:href="#ma5ea4fcafa" x="38.27" y="246.067315" style="stroke: #000000; stroke-width: 0.8"/>
      </g>
     </g>
     <g id="text_11">
      <!-- 5 -->
      <g transform="translate(24.9075 249.866534) scale(0.1 -0.1)">
       <use xlink:href="#DejaVuSans-35"/>
      </g>
     </g>
    </g>
    <g id="ytick_3">
     <g id="line2d_21">
      <path d="M 38.27 164.203808 
L 700.501683 164.203808 
" clip-path="url(#p00e7c64145)" style="fill: none; stroke: #b0b0b0; stroke-width: 0.8; stroke-linecap: square"/>
     </g>
     <g id="line2d_22">
      <g>
       <use xlink:href="#ma5ea4fcafa" x="38.27" y="164.203808" style="stroke: #000000; stroke-width: 0.8"/>
      </g>
     </g>
     <g id="text_12">
      <!-- 6 -->
      <g transform="translate(24.9075 168.003027) scale(0.1 -0.1)">
       <defs>
        <path id="DejaVuSans-36" d="M 2113 2584 
Q 1688 2584 1439 2293 
Q 1191 2003 1191 1497 
Q 1191 994 1439 701 
Q 1688 409 2113 409 
Q 2538 409 2786 701 
Q 3034 994 3034 1497 
Q 3034 2003 2786 2293 
Q 2538 2584 2113 2584 
z
M 3366 4563 
L 3366 3988 
Q 3128 4100 2886 4159 
Q 2644 4219 2406 4219 
Q 1781 4219 1451 3797 
Q 1122 3375 1075 2522 
Q 1259 2794 1537 2939 
Q 1816 3084 2150 3084 
Q 2853 3084 3261 2657 
Q 3669 2231 3669 1497 
Q 3669 778 3244 343 
Q 2819 -91 2113 -91 
Q 1303 -91 875 529 
Q 447 1150 447 2328 
Q 447 3434 972 4092 
Q 1497 4750 2381 4750 
Q 2619 4750 2861 4703 
Q 3103 4656 3366 4563 
z
" transform="scale(0.015625)"/>
       </defs>
       <use xlink:href="#DejaVuSans-36"/>
      </g>
     </g>
    </g>
    <g id="ytick_4">
     <g id="line2d_23">
      <path d="M 38.27 82.3403 
L 700.501683 82.3403 
" clip-path="url(#p00e7c64145)" style="fill: none; stroke: #b0b0b0; stroke-width: 0.8; stroke-linecap: square"/>
     </g>
     <g id="line2d_24">
      <g>
       <use xlink:href="#ma5ea4fcafa" x="38.27" y="82.3403" style="stroke: #000000; stroke-width: 0.8"/>
      </g>
     </g>
     <g id="text_13">
      <!-- 7 -->
      <g transform="translate(24.9075 86.139519) scale(0.1 -0.1)">
       <use xlink:href="#DejaVuSans-37"/>
      </g>
     </g>
    </g>
    <g id="text_14">
     <!-- Quantum Gates -->
     <g transform="translate(18.827813 239.925469) rotate(-90) scale(0.1 -0.1)">
      <defs>
       <path id="DejaVuSans-51" d="M 2522 4238 
Q 1834 4238 1429 3725 
Q 1025 3213 1025 2328 
Q 1025 1447 1429 934 
Q 1834 422 2522 422 
Q 3209 422 3611 934 
Q 4013 1447 4013 2328 
Q 4013 3213 3611 3725 
Q 3209 4238 2522 4238 
z
M 3406 84 
L 4238 -825 
L 3475 -825 
L 2784 -78 
Q 2681 -84 2626 -87 
Q 2572 -91 2522 -91 
Q 1538 -91 948 567 
Q 359 1225 359 2328 
Q 359 3434 948 4092 
Q 1538 4750 2522 4750 
Q 3503 4750 4090 4092 
Q 4678 3434 4678 2328 
Q 4678 1516 4351 937 
Q 4025 359 3406 84 
z
" transform="scale(0.015625)"/>
       <path id="DejaVuSans-75" d="M 544 1381 
L 544 3500 
L 1119 3500 
L 1119 1403 
Q 1119 906 1312 657 
Q 1506 409 1894 409 
Q 2359 409 2629 706 
Q 2900 1003 2900 1516 
L 2900 3500 
L 3475 3500 
L 3475 0 
L 2900 0 
L 2900 538 
Q 2691 219 2414 64 
Q 2138 -91 1772 -91 
Q 1169 -91 856 284 
Q 544 659 544 1381 
z
M 1991 3584 
L 1991 3584 
z
" transform="scale(0.015625)"/>
       <path id="DejaVuSans-61" d="M 2194 1759 
Q 1497 1759 1228 1600 
Q 959 1441 959 1056 
Q 959 750 1161 570 
Q 1363 391 1709 391 
Q 2188 391 2477 730 
Q 2766 1069 2766 1631 
L 2766 1759 
L 2194 1759 
z
M 3341 1997 
L 3341 0 
L 2766 0 
L 2766 531 
Q 2569 213 2275 61 
Q 1981 -91 1556 -91 
Q 1019 -91 701 211 
Q 384 513 384 1019 
Q 384 1609 779 1909 
Q 1175 2209 1959 2209 
L 2766 2209 
L 2766 2266 
Q 2766 2663 2505 2880 
Q 2244 3097 1772 3097 
Q 1472 3097 1187 3025 
Q 903 2953 641 2809 
L 641 3341 
Q 956 3463 1253 3523 
Q 1550 3584 1831 3584 
Q 2591 3584 2966 3190 
Q 3341 2797 3341 1997 
z
" transform="scale(0.015625)"/>
       <path id="DejaVuSans-6e" d="M 3513 2113 
L 3513 0 
L 2938 0 
L 2938 2094 
Q 2938 2591 2744 2837 
Q 2550 3084 2163 3084 
Q 1697 3084 1428 2787 
Q 1159 2491 1159 1978 
L 1159 0 
L 581 0 
L 581 3500 
L 1159 3500 
L 1159 2956 
Q 1366 3272 1645 3428 
Q 1925 3584 2291 3584 
Q 2894 3584 3203 3211 
Q 3513 2838 3513 2113 
z
" transform="scale(0.015625)"/>
       <path id="DejaVuSans-6d" d="M 3328 2828 
Q 3544 3216 3844 3400 
Q 4144 3584 4550 3584 
Q 5097 3584 5394 3201 
Q 5691 2819 5691 2113 
L 5691 0 
L 5113 0 
L 5113 2094 
Q 5113 2597 4934 2840 
Q 4756 3084 4391 3084 
Q 3944 3084 3684 2787 
Q 3425 2491 3425 1978 
L 3425 0 
L 2847 0 
L 2847 2094 
Q 2847 2600 2669 2842 
Q 2491 3084 2119 3084 
Q 1678 3084 1418 2786 
Q 1159 2488 1159 1978 
L 1159 0 
L 581 0 
L 581 3500 
L 1159 3500 
L 1159 2956 
Q 1356 3278 1631 3431 
Q 1906 3584 2284 3584 
Q 2666 3584 2933 3390 
Q 3200 3197 3328 2828 
z
" transform="scale(0.015625)"/>
       <path id="DejaVuSans-20" transform="scale(0.015625)"/>
       <path id="DejaVuSans-47" d="M 3809 666 
L 3809 1919 
L 2778 1919 
L 2778 2438 
L 4434 2438 
L 4434 434 
Q 4069 175 3628 42 
Q 3188 -91 2688 -91 
Q 1594 -91 976 548 
Q 359 1188 359 2328 
Q 359 3472 976 4111 
Q 1594 4750 2688 4750 
Q 3144 4750 3555 4637 
Q 3966 4525 4313 4306 
L 4313 3634 
Q 3963 3931 3569 4081 
Q 3175 4231 2741 4231 
Q 1884 4231 1454 3753 
Q 1025 3275 1025 2328 
Q 1025 1384 1454 906 
Q 1884 428 2741 428 
Q 3075 428 3337 486 
Q 3600 544 3809 666 
z
" transform="scale(0.015625)"/>
      </defs>
      <use xlink:href="#DejaVuSans-51"/>
      <use xlink:href="#DejaVuSans-75" transform="translate(78.710938 0)"/>
      <use xlink:href="#DejaVuSans-61" transform="translate(142.089844 0)"/>
      <use xlink:href="#DejaVuSans-6e" transform="translate(203.369141 0)"/>
      <use xlink:href="#DejaVuSans-74" transform="translate(266.748047 0)"/>
      <use xlink:href="#DejaVuSans-75" transform="translate(305.957031 0)"/>
      <use xlink:href="#DejaVuSans-6d" transform="translate(369.335938 0)"/>
      <use xlink:href="#DejaVuSans-20" transform="translate(466.748047 0)"/>
      <use xlink:href="#DejaVuSans-47" transform="translate(498.535156 0)"/>
      <use xlink:href="#DejaVuSans-61" transform="translate(576.025391 0)"/>
      <use xlink:href="#DejaVuSans-74" transform="translate(637.304688 0)"/>
      <use xlink:href="#DejaVuSans-65" transform="translate(676.513672 0)"/>
      <use xlink:href="#DejaVuSans-73" transform="translate(738.037109 0)"/>
     </g>
    </g>
   </g>
   <g id="line2d_25">
    <path d="M 68.37144 203.088974 
L 72.102429 204.862683 
L 76.025297 189.445056 
L 80.012125 198.450042 
L 84.00606 218.64304 
L 87.946695 221.644702 
L 91.986823 214.140547 
L 96.076697 221.098946 
L 100.099058 215.641378 
L 104.1001 223.418412 
L 108.122461 215.095622 
L 112.098629 208.273663 
L 116.138757 205.954197 
L 120.168225 197.904285 
L 124.243886 193.538231 
L 128.287567 196.949211 
L 132.377442 202.952535 
L 136.143964 236.243695 
L 139.857186 242.656336 
L 143.517108 255.20874 
L 146.892765 271.035685 
L 150.026796 280.31355 
L 153.139506 281.541502 
L 156.163384 285.771117 
L 159.087768 288.363461 
L 162.02992 292.183758 
L 164.957857 292.729515 
L 167.889349 288.363461 
L 173.844717 296.276934 
L 176.765549 295.18542 
L 179.650847 298.732839 
L 182.564571 296.959129 
L 185.435656 295.594738 
L 188.303188 296.276934 
L 191.224019 294.366785 
L 194.11287 297.914204 
L 197.001721 297.095569 
L 199.8657 297.914204 
L 202.743891 297.095569 
L 205.643402 295.731177 
L 208.514487 293.821028 
L 211.392678 296.413373 
L 214.24955 293.957467 
L 217.109975 293.957467 
L 219.959739 294.230346 
L 222.823717 295.18542 
L 225.701909 284.679603 
L 228.55878 295.458298 
L 231.415652 297.641325 
L 234.261863 298.5964 
L 237.129395 297.368447 
L 239.982713 295.458298 
L 242.825371 296.140494 
L 245.760415 293.957467 
L 248.638607 292.320197 
L 251.531011 292.047319 
L 254.537122 275.674617 
L 258.079785 269.125537 
L 261.256456 288.363461 
L 264.152414 293.411711 
L 267.158525 276.356813 
L 270.672761 277.448327 
L 273.622019 289.864292 
L 276.52153 297.504886 
L 279.410381 300.23367 
L 282.320553 294.639663 
L 285.220064 297.914204 
L 288.098255 297.504886 
L 290.962233 284.133847 
L 293.836871 286.453313 
L 296.707956 283.997407 
L 299.586147 275.947496 
L 302.453679 265.032361 
L 305.960808 247.841025 
L 309.350678 256.163815 
L 312.555775 265.032361 
L 315.661379 264.213726 
L 318.69947 269.261976 
L 321.737561 268.57978 
L 324.697479 269.807733 
L 327.749783 268.443341 
L 330.83762 274.855982 
L 333.943225 272.536516 
L 336.959995 278.403401 
L 340.072706 273.62803 
L 343.196077 277.584766 
L 346.241274 280.449989 
L 349.254492 280.040671 
L 352.271263 280.995745 
L 355.398187 280.17711 
L 358.510898 273.764469 
L 361.758635 273.491591 
L 365.059671 268.989098 
L 368.414008 259.029038 
L 371.754131 270.626368 
L 375.048061 272.672955 
L 378.345545 271.035685 
L 381.625262 271.85432 
L 384.855232 280.449989 
L 387.992816 277.857644 
L 394.118744 280.722867 
L 397.099982 285.907556 
L 400.127413 281.132185 
L 403.16195 279.631354 
L 406.118315 278.949158 
L 409.188386 280.859306 
L 412.162517 279.904232 
L 415.062028 279.631354 
L 420.96765 273.900908 
L 423.948888 278.403401 
L 426.912359 281.405063 
L 429.847404 283.315211 
L 432.746915 278.403401 
L 435.674853 281.677941 
L 438.595684 286.726191 
L 441.505856 286.86263 
L 444.522627 283.315211 
L 447.514524 290.410049 
L 450.513529 288.636339 
L 453.675986 288.227022 
L 456.721183 293.002393 
L 459.723741 309.238656 
L 462.708532 295.867616 
L 465.654237 292.729515 
L 468.589281 274.855982 
L 471.655799 278.676279 
L 474.626376 286.726191 
L 477.593401 291.092245 
L 480.535552 294.639663 
L 483.46349 294.093907 
L 486.405641 289.182096 
L 489.322919 281.81438 
L 492.261517 291.774441 
L 495.217881 294.093907 
L 498.184906 295.321859 
L 501.112844 297.232008 
L 504.001695 297.641325 
L 506.897653 298.187082 
L 509.878891 273.491591 
L 512.916982 280.995745 
L 515.852026 281.677941 
L 518.794177 289.182096 
L 521.722115 296.959129 
L 524.610967 292.456636 
L 527.510478 295.731177 
L 530.374456 295.458298 
L 533.355694 290.955806 
L 536.308505 296.276934 
L 539.218676 298.323521 
L 542.160827 295.731177 
L 545.070999 296.004055 
L 548.01315 294.639663 
L 551.012154 295.321859 
L 553.940092 297.777764 
L 556.853817 295.731177 
L 559.795968 296.686251 
L 562.745226 296.549812 
L 565.683824 298.187082 
L 568.562015 298.187082 
L 571.472186 295.18542 
L 574.382358 297.914204 
L 577.288975 299.415035 
L 580.174273 298.323521 
L 583.045358 292.865954 
L 586.232689 290.410049 
L 589.263673 310.19373 
L 592.252017 296.686251 
L 595.190615 296.140494 
L 598.250026 287.135508 
L 601.43025 289.182096 
L 604.571387 290.682927 
L 607.648565 291.774441 
L 610.704422 294.366785 
L 613.607487 295.731177 
L 616.645578 293.002393 
L 619.633922 286.589752 
L 622.62582 290.682927 
L 625.539544 298.187082 
L 628.520782 287.271948 
L 631.505573 293.957467 
L 634.557877 293.138832 
L 637.578202 294.912542 
L 640.520353 294.230346 
L 643.487377 295.18542 
L 646.397548 293.821028 
L 649.428533 275.128861 
L 652.434644 287.681265 
L 655.394561 292.593076 
L 658.503719 291.638001 
L 661.534703 293.957467 
L 664.533707 294.776103 
L 667.458092 297.914204 
L 670.400243 297.095569 
L 670.400243 297.095569 
" clip-path="url(#p00e7c64145)" style="fill: none; stroke: #0000ff; stroke-width: 1.5; stroke-linecap: square"/>
   </g>
   <g id="line2d_26">
    <path d="M 68.542 207.318588 
L 72.315628 198.177163 
L 76.277583 198.177163 
L 80.193345 202.952535 
L 84.137533 195.039062 
L 88.028421 210.593129 
L 91.944183 203.498291 
L 95.867051 199.950873 
L 99.814793 198.586481 
L 103.783854 193.265353 
L 107.649869 201.588143 
L 111.675784 192.17384 
L 115.797638 196.676332 
L 119.567713 187.671347 
L 123.501242 195.994137 
L 127.374363 195.311941 
L 131.446471 194.220427 
L 135.550559 199.268677 
L 139.548047 201.724582 
L 143.421169 198.995799 
L 147.663836 210.729568 
L 151.593811 206.636393 
L 155.605512 209.092298 
L 159.638533 201.724582 
L 163.575615 195.721258 
L 167.509143 208.68298 
L 171.428458 197.08565 
L 175.489906 195.039062 
L 179.384348 192.856035 
L 183.715848 204.180487 
L 187.53567 193.947549 
L 191.476305 207.727906 
L 195.41694 195.584819 
L 199.425088 198.586481 
L 203.536282 192.856035 
L 207.473363 211.957521 
L 211.463745 180.712948 
L 215.518086 209.501615 
L 219.352121 209.092298 
L 223.360269 197.08565 
L 227.411057 192.583157 
L 231.412098 197.767846 
L 235.4238 206.636393 
L 239.225855 199.268677 
L 243.074103 215.914257 
L 247.075145 199.677994 
L 251.04776 193.538231 
L 255.084334 213.867669 
L 259.191975 188.353543 
L 263.313829 197.494968 
L 267.361064 199.405116 
L 271.465152 199.814434 
L 275.178374 214.276987 
L 279.101242 187.534907 
L 283.304823 201.315265 
L 287.323631 199.814434 
L 291.374419 195.994137 
L 295.318607 203.088974 
L 299.102896 207.591467 
L 302.965357 197.631407 
L 306.905992 188.489982 
L 310.99942 211.957521 
L 314.915182 189.581495 
L 318.905563 211.548203 
L 322.967011 198.72292 
L 326.854346 199.950873 
L 330.677721 206.227075 
L 334.604143 185.48832 
L 338.853916 185.215441 
L 342.808765 200.905947 
L 346.792039 190.263691 
L 350.860594 188.080664 
L 354.982448 216.869331 
L 358.976383 190.40013 
L 362.941891 197.08565 
L 367.038872 208.410102 
L 371.146513 196.949211 
L 375.080041 195.175502 
L 378.988696 209.365176 
L 382.964864 203.907609 
L 386.877073 200.905947 
L 390.913647 205.40844 
L 394.822302 200.223751 
L 398.88375 211.275325 
L 402.884791 210.866007 
L 406.853853 201.178825 
L 410.744741 217.687966 
L 414.52903 206.090636 
L 418.448345 202.679656 
L 422.243293 213.73123 
L 426.276315 202.406778 
L 430.181416 203.088974 
L 434.299717 191.900961 
L 438.258119 207.182149 
L 442.262713 207.455028 
L 446.231775 218.097284 
L 449.884591 206.499953 
L 453.814565 205.817758 
L 457.844033 192.856035 
L 461.820201 193.947549 
L 465.63647 204.453366 
L 469.673045 203.77117 
L 473.833985 200.223751 
L 477.938073 209.092298 
L 481.814748 206.909271 
L 485.680763 195.857697 
L 489.560992 200.087312 
L 493.448327 194.766184 
L 497.360535 205.272001 
L 501.19457 206.772832 
L 505.057032 193.265353 
L 509.047413 204.180487 
L 512.984495 196.676332 
L 516.996196 197.631407 
L 520.961704 195.857697 
L 525.033812 203.361852 
L 529.130793 201.315265 
L 533.025235 196.403454 
L 536.866377 205.954197 
L 540.576045 216.732892 
L 544.552214 203.225413 
L 548.478635 204.726244 
L 552.35531 211.957521 
L 556.075639 204.726244 
L 559.973634 199.677994 
L 563.928482 187.262029 
L 568.039677 199.405116 
L 571.941225 205.681318 
L 575.832113 194.766184 
L 579.957521 182.486658 
L 583.937242 185.48832 
L 587.94539 196.676332 
L 592.074351 199.268677 
L 595.87996 192.992475 
L 599.884554 209.774494 
L 603.56935 200.769508 
L 607.318106 216.460014 
L 611.201887 198.313603 
L 615.213589 194.629745 
L 619.132903 208.819419 
L 623.201458 184.806124 
L 627.301992 198.450042 
L 631.292374 188.899299 
L 635.368035 205.135562 
L 639.383289 192.856035 
L 643.227985 212.776156 
L 646.97674 207.591467 
L 650.643769 205.954197 
L 654.460038 208.410102 
L 658.315393 199.268677 
L 662.248921 204.316927 
L 666.253516 204.044048 
L 670.165724 219.734554 
L 670.165724 219.734554 
" clip-path="url(#p00e7c64145)" style="fill: none; stroke: #ffa500; stroke-width: 1.5; stroke-linecap: square"/>
   </g>
   <g id="patch_3">
    <path d="M 38.27 390.04 
L 38.27 10.8 
" style="fill: none; stroke: #000000; stroke-width: 0.8; stroke-linejoin: miter; stroke-linecap: square"/>
   </g>
   <g id="patch_4">
    <path d="M 700.501683 390.04 
L 700.501683 10.8 
" style="fill: none; stroke: #000000; stroke-width: 0.8; stroke-linejoin: miter; stroke-linecap: square"/>
   </g>
   <g id="patch_5">
    <path d="M 38.27 390.04 
L 700.501683 390.04 
" style="fill: none; stroke: #000000; stroke-width: 0.8; stroke-linejoin: miter; stroke-linecap: square"/>
   </g>
   <g id="patch_6">
    <path d="M 38.27 10.8 
L 700.501683 10.8 
" style="fill: none; stroke: #000000; stroke-width: 0.8; stroke-linejoin: miter; stroke-linecap: square"/>
   </g>
   <g id="legend_1">
    <g id="patch_7">
     <path d="M 620.104808 385.04 
L 693.501683 385.04 
Q 695.501683 385.04 695.501683 383.04 
L 695.501683 340.005625 
Q 695.501683 338.005625 693.501683 338.005625 
L 620.104808 338.005625 
Q 618.104808 338.005625 618.104808 340.005625 
L 618.104808 383.04 
Q 618.104808 385.04 620.104808 385.04 
z
" style="fill: #ffffff; opacity: 0.8; stroke: #cccccc; stroke-linejoin: miter"/>
    </g>
    <g id="text_15">
     <!-- Agent -->
     <g transform="translate(642.003246 349.604062) scale(0.1 -0.1)">
      <defs>
       <path id="DejaVuSans-41" d="M 2188 4044 
L 1331 1722 
L 3047 1722 
L 2188 4044 
z
M 1831 4666 
L 2547 4666 
L 4325 0 
L 3669 0 
L 3244 1197 
L 1141 1197 
L 716 0 
L 50 0 
L 1831 4666 
z
" transform="scale(0.015625)"/>
       <path id="DejaVuSans-67" d="M 2906 1791 
Q 2906 2416 2648 2759 
Q 2391 3103 1925 3103 
Q 1463 3103 1205 2759 
Q 947 2416 947 1791 
Q 947 1169 1205 825 
Q 1463 481 1925 481 
Q 2391 481 2648 825 
Q 2906 1169 2906 1791 
z
M 3481 434 
Q 3481 -459 3084 -895 
Q 2688 -1331 1869 -1331 
Q 1566 -1331 1297 -1286 
Q 1028 -1241 775 -1147 
L 775 -588 
Q 1028 -725 1275 -790 
Q 1522 -856 1778 -856 
Q 2344 -856 2625 -561 
Q 2906 -266 2906 331 
L 2906 616 
Q 2728 306 2450 153 
Q 2172 0 1784 0 
Q 1141 0 747 490 
Q 353 981 353 1791 
Q 353 2603 747 3093 
Q 1141 3584 1784 3584 
Q 2172 3584 2450 3431 
Q 2728 3278 2906 2969 
L 2906 3500 
L 3481 3500 
L 3481 434 
z
" transform="scale(0.015625)"/>
      </defs>
      <use xlink:href="#DejaVuSans-41"/>
      <use xlink:href="#DejaVuSans-67" transform="translate(68.408203 0)"/>
      <use xlink:href="#DejaVuSans-65" transform="translate(131.884766 0)"/>
      <use xlink:href="#DejaVuSans-6e" transform="translate(193.408203 0)"/>
      <use xlink:href="#DejaVuSans-74" transform="translate(256.787109 0)"/>
     </g>
    </g>
    <g id="line2d_27">
     <path d="M 622.104808 360.782187 
L 632.104808 360.782187 
L 642.104808 360.782187 
" style="fill: none; stroke: #0000ff; stroke-width: 1.5; stroke-linecap: square"/>
    </g>
    <g id="text_16">
     <!-- PPO -->
     <g transform="translate(650.104808 364.282187) scale(0.1 -0.1)">
      <defs>
       <path id="DejaVuSans-50" d="M 1259 4147 
L 1259 2394 
L 2053 2394 
Q 2494 2394 2734 2622 
Q 2975 2850 2975 3272 
Q 2975 3691 2734 3919 
Q 2494 4147 2053 4147 
L 1259 4147 
z
M 628 4666 
L 2053 4666 
Q 2838 4666 3239 4311 
Q 3641 3956 3641 3272 
Q 3641 2581 3239 2228 
Q 2838 1875 2053 1875 
L 1259 1875 
L 1259 0 
L 628 0 
L 628 4666 
z
" transform="scale(0.015625)"/>
       <path id="DejaVuSans-4f" d="M 2522 4238 
Q 1834 4238 1429 3725 
Q 1025 3213 1025 2328 
Q 1025 1447 1429 934 
Q 1834 422 2522 422 
Q 3209 422 3611 934 
Q 4013 1447 4013 2328 
Q 4013 3213 3611 3725 
Q 3209 4238 2522 4238 
z
M 2522 4750 
Q 3503 4750 4090 4092 
Q 4678 3434 4678 2328 
Q 4678 1225 4090 567 
Q 3503 -91 2522 -91 
Q 1538 -91 948 565 
Q 359 1222 359 2328 
Q 359 3434 948 4092 
Q 1538 4750 2522 4750 
z
" transform="scale(0.015625)"/>
      </defs>
      <use xlink:href="#DejaVuSans-50"/>
      <use xlink:href="#DejaVuSans-50" transform="translate(60.302734 0)"/>
      <use xlink:href="#DejaVuSans-4f" transform="translate(120.605469 0)"/>
     </g>
    </g>
    <g id="line2d_28">
     <path d="M 622.104808 375.460312 
L 632.104808 375.460312 
L 642.104808 375.460312 
" style="fill: none; stroke: #ffa500; stroke-width: 1.5; stroke-linecap: square"/>
    </g>
    <g id="text_17">
     <!-- Random -->
     <g transform="translate(650.104808 378.960312) scale(0.1 -0.1)">
      <defs>
       <path id="DejaVuSans-52" d="M 2841 2188 
Q 3044 2119 3236 1894 
Q 3428 1669 3622 1275 
L 4263 0 
L 3584 0 
L 2988 1197 
Q 2756 1666 2539 1819 
Q 2322 1972 1947 1972 
L 1259 1972 
L 1259 0 
L 628 0 
L 628 4666 
L 2053 4666 
Q 2853 4666 3247 4331 
Q 3641 3997 3641 3322 
Q 3641 2881 3436 2590 
Q 3231 2300 2841 2188 
z
M 1259 4147 
L 1259 2491 
L 2053 2491 
Q 2509 2491 2742 2702 
Q 2975 2913 2975 3322 
Q 2975 3731 2742 3939 
Q 2509 4147 2053 4147 
L 1259 4147 
z
" transform="scale(0.015625)"/>
       <path id="DejaVuSans-64" d="M 2906 2969 
L 2906 4863 
L 3481 4863 
L 3481 0 
L 2906 0 
L 2906 525 
Q 2725 213 2448 61 
Q 2172 -91 1784 -91 
Q 1150 -91 751 415 
Q 353 922 353 1747 
Q 353 2572 751 3078 
Q 1150 3584 1784 3584 
Q 2172 3584 2448 3432 
Q 2725 3281 2906 2969 
z
M 947 1747 
Q 947 1113 1208 752 
Q 1469 391 1925 391 
Q 2381 391 2643 752 
Q 2906 1113 2906 1747 
Q 2906 2381 2643 2742 
Q 2381 3103 1925 3103 
Q 1469 3103 1208 2742 
Q 947 2381 947 1747 
z
" transform="scale(0.015625)"/>
       <path id="DejaVuSans-6f" d="M 1959 3097 
Q 1497 3097 1228 2736 
Q 959 2375 959 1747 
Q 959 1119 1226 758 
Q 1494 397 1959 397 
Q 2419 397 2687 759 
Q 2956 1122 2956 1747 
Q 2956 2369 2687 2733 
Q 2419 3097 1959 3097 
z
M 1959 3584 
Q 2709 3584 3137 3096 
Q 3566 2609 3566 1747 
Q 3566 888 3137 398 
Q 2709 -91 1959 -91 
Q 1206 -91 779 398 
Q 353 888 353 1747 
Q 353 2609 779 3096 
Q 1206 3584 1959 3584 
z
" transform="scale(0.015625)"/>
      </defs>
      <use xlink:href="#DejaVuSans-52"/>
      <use xlink:href="#DejaVuSans-61" transform="translate(67.232422 0)"/>
      <use xlink:href="#DejaVuSans-6e" transform="translate(128.511719 0)"/>
      <use xlink:href="#DejaVuSans-64" transform="translate(191.890625 0)"/>
      <use xlink:href="#DejaVuSans-6f" transform="translate(255.367188 0)"/>
      <use xlink:href="#DejaVuSans-6d" transform="translate(316.548828 0)"/>
     </g>
    </g>
   </g>
  </g>
 </g>
 <defs>
  <clipPath id="p00e7c64145">
   <rect x="38.27" y="10.8" width="662.231683" height="379.24"/>
  </clipPath>
 </defs>
</svg>
