<?xml version="1.0" encoding="utf-8" standalone="no"?>
<!DOCTYPE svg PUBLIC "-//W3C//DTD SVG 1.1//EN"
  "http://www.w3.org/Graphics/SVG/1.1/DTD/svg11.dtd">
<svg xmlns:xlink="http://www.w3.org/1999/xlink" width="720pt" height="432pt" viewBox="0 0 720 432" xmlns="http://www.w3.org/2000/svg" version="1.1">
 <metadata>
  <rdf:RDF xmlns:dc="http://purl.org/dc/elements/1.1/" xmlns:cc="http://creativecommons.org/ns#" xmlns:rdf="http://www.w3.org/1999/02/22-rdf-syntax-ns#">
   <cc:Work>
    <dc:type rdf:resource="http://purl.org/dc/dcmitype/StillImage"/>
    <dc:date>2025-04-16T01:29:59.534556</dc:date>
    <dc:format>image/svg+xml</dc:format>
    <dc:creator>
     <cc:Agent>
      <dc:title>Matplotlib v3.10.0, https://matplotlib.org/</dc:title>
     </cc:Agent>
    </dc:creator>
   </cc:Work>
  </rdf:RDF>
 </metadata>
 <defs>
  <style type="text/css">*{stroke-linejoin: round; stroke-linecap: butt}</style>
 </defs>
 <g id="figure_1">
  <g id="patch_1">
   <path d="M 0 432 
L 720 432 
L 720 0 
L 0 0 
z
" style="fill: #ffffff"/>
  </g>
  <g id="axes_1">
   <g id="patch_2">
    <path d="M 47.72 390.04 
L 709.2 390.04 
L 709.2 10.8 
L 47.72 10.8 
z
" style="fill: #ffffff"/>
   </g>
   <g id="FillBetweenPolyCollection_1">
    <defs>
     <path id="m72ea16f54b" d="M 77.813448 -318.693826 
L 77.813448 -97.584996 
L 84.396615 -116.465418 
L 90.999414 -158.493301 
L 97.320824 -162.347943 
L 103.688042 -206.930233 
L 109.708433 -236.902764 
L 115.90551 -269.308292 
L 121.670689 -321.659209 
L 127.416236 -354.302391 
L 132.985097 -373.131808 
L 138.180957 -388.916795 
L 143.180499 -398.132 
L 148.042619 -395.883954 
L 152.60372 -400.225807 
L 157.138645 -396.548534 
L 161.503428 -400.124833 
L 165.573736 -401.942352 
L 169.604781 -400.427752 
L 173.714352 -401.336513 
L 177.732309 -402.043325 
L 181.730634 -402.750139 
L 185.715871 -403.759872 
L 189.681476 -403.557925 
L 193.62745 -403.759872 
L 197.573424 -403.456952 
L 201.545573 -400.932619 
L 205.543898 -403.759872 
L 209.483328 -402.245272 
L 213.403126 -403.557925 
L 217.349099 -403.860845 
L 221.301617 -402.346245 
L 225.234503 -403.961818 
L 229.180477 -403.557925 
L 233.093731 -403.860845 
L 237.052792 -402.447218 
L 240.998766 -403.860845 
L 244.964372 -403.759872 
L 248.897258 -403.255006 
L 252.849775 -403.860845 
L 256.782661 -403.860845 
L 260.715547 -402.447218 
L 264.648433 -403.961818 
L 268.581319 -403.860845 
L 272.507661 -403.961818 
L 276.434003 -403.759872 
L 280.360345 -403.961818 
L 284.286687 -403.759872 
L 288.213029 -403.860845 
L 292.139371 -403.961818 
L 296.072257 -403.961818 
L 299.998599 -403.961818 
L 303.944573 -402.346245 
L 307.884002 -403.860845 
L 311.816888 -403.961818 
L 315.74323 -403.860845 
L 319.68266 -403.961818 
L 323.62209 -403.658898 
L 327.587695 -403.860845 
L 331.520581 -403.961818 
L 335.446923 -403.961818 
L 339.373265 -403.860845 
L 343.293063 -403.860845 
L 347.206318 -403.658898 
L 351.13266 -403.860845 
L 355.059002 -403.759872 
L 358.965712 -403.658898 
L 362.892054 -403.961818 
L 366.82494 -403.961818 
L 370.751282 -403.355978 
L 374.67108 -403.860845 
L 378.597422 -402.649165 
L 382.66773 -403.961818 
L 386.69223 -403.961818 
L 390.801802 -403.961818 
L 394.917917 -403.860845 
L 398.903154 -403.961818 
L 402.901479 -403.961818 
L 406.840909 -403.355978 
L 410.806514 -403.961818 
L 414.817927 -403.860845 
L 418.790076 -403.860845 
L 422.749138 -403.961818 
L 426.708199 -403.860845 
L 430.660717 -403.961818 
L 434.63941 -402.447218 
L 438.57884 -403.860845 
L 442.524814 -403.860845 
L 446.464244 -403.860845 
L 450.416761 -403.658898 
L 454.349647 -403.961818 
L 458.282533 -403.961818 
L 462.215419 -403.961818 
L 466.174481 -403.759872 
L 470.120454 -403.860845 
L 474.105691 -403.759872 
L 478.051665 -402.44722 
L 481.742427 -395.211795 
L 484.929308 -382.18973 
L 487.736642 -378.928651 
L 490.426186 -376.740657 
L 493.069923 -376.657008 
L 495.752924 -376.11329 
L 498.403205 -375.879667 
L 501.033854 -375.527747 
L 503.664503 -375.402274 
L 506.295152 -375.485923 
L 508.912713 -374.914731 
L 511.530275 -375.444098 
L 514.147836 -375.402274 
L 516.771941 -375.444098 
L 519.389503 -375.402274 
L 522.007064 -375.402274 
L 524.624625 -375.444098 
L 527.24873 -375.436922 
L 529.866292 -375.402274 
L 532.490397 -375.485923 
L 535.107958 -375.402274 
L 537.72552 -375.402274 
L 540.343081 -375.402274 
L 542.960642 -375.444098 
L 545.584748 -375.402274 
L 548.208853 -375.444098 
L 550.826414 -375.402274 
L 553.443976 -375.402274 
L 556.061537 -375.402274 
L 558.679098 -374.932056 
L 561.29666 -374.914731 
L 563.914221 -375.419598 
L 566.571046 -375.317149 
L 569.188607 -375.419598 
L 571.806168 -375.461422 
L 574.42373 -376.07792 
L 577.041291 -377.169349 
L 579.658852 -378.693885 
L 582.276414 -378.728533 
L 584.893975 -378.867127 
L 587.511536 -378.849803 
L 590.129098 -378.867127 
L 592.746659 -378.867127 
L 595.36422 -378.867127 
L 597.981782 -378.867127 
L 600.599343 -378.867127 
L 603.216904 -378.849803 
L 605.834466 -378.867127 
L 608.452027 -378.867127 
L 611.069589 -378.867127 
L 613.68715 -378.867127 
L 616.304711 -377.655448 
L 618.922273 -378.867127 
L 621.539834 -378.867127 
L 624.157395 -378.867127 
L 626.774957 -378.867127 
L 629.392518 -378.867127 
L 632.010079 -378.867127 
L 634.627641 -378.867127 
L 637.245202 -378.867127 
L 639.862763 -378.766154 
L 642.480325 -378.867127 
L 645.10443 -378.849803 
L 647.721991 -378.867127 
L 650.339553 -378.867127 
L 652.957114 -378.867127 
L 655.574675 -378.867127 
L 658.192237 -378.867127 
L 660.809798 -378.849803 
L 663.427359 -378.867127 
L 666.044921 -378.867127 
L 668.662482 -378.867127 
L 671.280043 -378.867127 
L 673.897605 -378.867127 
L 676.515166 -378.849803 
L 679.132727 -378.867127 
L 679.132727 -378.867127 
L 679.132727 -378.867127 
L 676.515166 -378.968101 
L 673.897605 -378.867127 
L 671.280043 -378.867127 
L 668.662482 -378.867127 
L 666.044921 -378.867127 
L 663.427359 -378.867127 
L 660.809798 -378.968101 
L 658.192237 -378.867127 
L 655.574675 -378.867127 
L 652.957114 -378.867127 
L 650.339553 -378.867127 
L 647.721991 -378.867127 
L 645.10443 -378.968101 
L 642.480325 -378.867127 
L 639.862763 -378.884452 
L 637.245202 -378.867127 
L 634.627641 -378.867127 
L 632.010079 -378.867127 
L 629.392518 -378.867127 
L 626.774957 -378.867127 
L 624.157395 -378.867127 
L 621.539834 -378.867127 
L 618.922273 -378.867127 
L 616.304711 -379.075019 
L 613.68715 -378.867127 
L 611.069589 -378.867127 
L 608.452027 -378.867127 
L 605.834466 -378.867127 
L 603.216904 -378.968101 
L 600.599343 -378.867127 
L 597.981782 -378.867127 
L 595.36422 -378.867127 
L 592.746659 -378.867127 
L 590.129098 -378.867127 
L 587.511536 -378.968101 
L 584.893975 -378.867127 
L 582.276414 -379.674913 
L 579.658852 -379.87686 
L 577.041291 -388.762505 
L 574.42373 -395.123819 
L 571.806168 -399.002626 
L 569.188607 -398.960802 
L 566.571046 -399.06325 
L 563.914221 -398.960802 
L 561.29666 -399.047423 
L 558.679098 -398.94645 
L 556.061537 -399.061775 
L 553.443976 -399.061775 
L 550.826414 -399.061775 
L 548.208853 -399.1036 
L 545.584748 -399.061775 
L 542.960642 -399.1036 
L 540.343081 -399.061775 
L 537.72552 -399.061775 
L 535.107958 -399.061775 
L 532.490397 -399.145424 
L 529.866292 -399.061775 
L 527.24873 -398.859829 
L 524.624625 -399.1036 
L 522.007064 -399.061775 
L 519.389503 -399.061775 
L 516.771941 -399.1036 
L 514.147836 -399.061775 
L 511.530275 -399.1036 
L 508.912713 -399.047423 
L 506.295152 -399.145424 
L 503.664503 -399.061775 
L 501.033854 -399.187248 
L 498.403205 -399.420871 
L 495.752924 -399.772791 
L 493.069923 -400.31651 
L 490.426186 -400.400159 
L 487.736642 -401.641772 
L 484.929308 -403.483281 
L 481.742427 -403.961818 
L 478.051665 -403.961818 
L 474.105691 -403.961818 
L 470.120454 -403.961818 
L 466.174481 -403.961818 
L 462.215419 -403.961818 
L 458.282533 -403.961818 
L 454.349647 -403.961818 
L 450.416761 -403.961818 
L 446.464244 -403.961818 
L 442.524814 -403.961818 
L 438.57884 -403.961818 
L 434.63941 -403.961818 
L 430.660717 -403.961818 
L 426.708199 -403.961818 
L 422.749138 -403.961818 
L 418.790076 -403.961818 
L 414.817927 -403.961818 
L 410.806514 -403.961818 
L 406.840909 -403.961818 
L 402.901479 -403.961818 
L 398.903154 -403.961818 
L 394.917917 -403.961818 
L 390.801802 -403.961818 
L 386.69223 -403.961818 
L 382.66773 -403.961818 
L 378.597422 -403.961818 
L 374.67108 -403.961818 
L 370.751282 -403.961818 
L 366.82494 -403.961818 
L 362.892054 -403.961818 
L 358.965712 -403.961818 
L 355.059002 -403.961818 
L 351.13266 -403.961818 
L 347.206318 -403.961818 
L 343.293063 -403.961818 
L 339.373265 -403.961818 
L 335.446923 -403.961818 
L 331.520581 -403.961818 
L 327.587695 -403.961818 
L 323.62209 -403.961818 
L 319.68266 -403.961818 
L 315.74323 -403.961818 
L 311.816888 -403.961818 
L 307.884002 -403.961818 
L 303.944573 -403.961818 
L 299.998599 -403.961818 
L 296.072257 -403.961818 
L 292.139371 -403.961818 
L 288.213029 -403.961818 
L 284.286687 -403.961818 
L 280.360345 -403.961818 
L 276.434003 -403.961818 
L 272.507661 -403.961818 
L 268.581319 -403.961818 
L 264.648433 -403.961818 
L 260.715547 -403.961818 
L 256.782661 -403.961818 
L 252.849775 -403.961818 
L 248.897258 -403.961818 
L 244.964372 -403.961818 
L 240.998766 -403.961818 
L 237.052792 -403.961818 
L 233.093731 -403.961818 
L 229.180477 -403.961818 
L 225.234503 -403.961818 
L 221.301617 -403.961818 
L 217.349099 -403.961818 
L 213.403126 -403.961818 
L 209.483328 -403.961818 
L 205.543898 -403.961818 
L 201.545573 -403.961818 
L 197.573424 -403.961818 
L 193.62745 -403.961818 
L 189.681476 -403.961818 
L 185.715871 -403.961818 
L 181.730634 -403.961818 
L 177.732309 -403.961818 
L 173.714352 -403.961818 
L 169.604781 -403.961818 
L 165.573736 -403.961818 
L 161.503428 -403.961818 
L 157.138645 -403.961818 
L 152.60372 -403.961818 
L 148.042619 -403.961818 
L 143.180499 -403.961818 
L 138.180957 -403.961818 
L 132.985097 -403.961818 
L 127.416236 -403.961818 
L 121.670689 -403.961818 
L 115.90551 -403.961818 
L 109.708433 -396.027097 
L 103.688042 -387.353772 
L 97.320824 -380.324596 
L 90.999414 -366.947539 
L 84.396615 -347.326069 
L 77.813448 -318.693826 
z
" style="stroke: #0000ff; stroke-opacity: 0.2"/>
    </defs>
    <g clip-path="url(#p11c93a1df3)">
     <use xlink:href="#m72ea16f54b" x="0" y="432" style="fill: #0000ff; fill-opacity: 0.2; stroke: #0000ff; stroke-opacity: 0.2"/>
    </g>
   </g>
   <g id="FillBetweenPolyCollection_2">
    <defs>
     <path id="mebe9d1ec40" d="M 77.787273 -303.037135 
L 77.787273 -70.915267 
L 84.331176 -69.040958 
L 91.058309 -78.462064 
L 97.504054 -78.371706 
L 104.061045 -67.091891 
L 110.971407 -68.616858 
L 117.404064 -69.211445 
L 123.961055 -72.111451 
L 130.603117 -67.639374 
L 137.186283 -76.219415 
L 143.743275 -75.025152 
L 150.267546 -75.104969 
L 156.981591 -82.92057 
L 163.721812 -95.145522 
L 170.180644 -71.614522 
L 176.534774 -77.483091 
L 183.314258 -68.068784 
L 190.093742 -85.972074 
L 196.814331 -79.043661 
L 203.672341 -60.268176 
L 210.170438 -75.732564 
L 216.707797 -82.180737 
L 223.716317 -78.096501 
L 230.162062 -68.67814 
L 236.719053 -61.453687 
L 243.557432 -68.129998 
L 250.199494 -76.586155 
L 256.821925 -68.775936 
L 263.535969 -64.863757 
L 270.099504 -80.723298 
L 276.800461 -75.913889 
L 283.331277 -79.329953 
L 290.549202 -70.60034 
L 296.850981 -78.623976 
L 303.578114 -70.831248 
L 310.04349 -70.477092 
L 316.646289 -80.676806 
L 323.360334 -86.189302 
L 329.930413 -67.96759 
L 336.323806 -67.661073 
L 343.423941 -83.701789 
L 349.889318 -66.668041 
L 356.295799 -71.092836 
L 363.029476 -78.234539 
L 369.815504 -76.2153 
L 376.594988 -73.95387 
L 383.17161 -69.919335 
L 389.872567 -72.976349 
L 396.455734 -74.945537 
L 402.908023 -70.218034 
L 409.752946 -64.597475 
L 416.146339 -75.494695 
L 422.657523 -65.65764 
L 429.679132 -77.654219 
L 436.596037 -84.613946 
L 443.270819 -62.739329 
L 450.043759 -88.766118 
L 456.489504 -77.719299 
L 462.994143 -76.968159 
L 469.688557 -81.389783 
L 476.428777 -78.767875 
L 483.234437 -74.390746 
L 489.955025 -68.844846 
L 496.557824 -77.573581 
L 502.839971 -78.097723 
L 509.324979 -80.174293 
L 516.0652 -74.942371 
L 522.831596 -62.89258 
L 529.355867 -76.906627 
L 536.240054 -75.952512 
L 542.731606 -73.994653 
L 549.785934 -89.159005 
L 556.179327 -79.004639 
L 562.769038 -75.731191 
L 569.430731 -82.119241 
L 576.439252 -87.150135 
L 583.100946 -76.760298 
L 589.945869 -79.333126 
L 596.705721 -69.079871 
L 603.635714 -66.553199 
L 610.212337 -76.229007 
L 617.031084 -63.706632 
L 623.620795 -74.969039 
L 630.30212 -75.482473 
L 637.055429 -79.821177 
L 643.49463 -78.701307 
L 650.077796 -59.198182 
L 656.700227 -72.388871 
L 663.414271 -86.274019 
L 669.997438 -68.891282 
L 676.338481 -71.241667 
L 676.338481 -311.493884 
L 676.338481 -311.493884 
L 669.997438 -315.34995 
L 663.414271 -319.214072 
L 656.700227 -319.715373 
L 650.077796 -308.982433 
L 643.49463 -319.592967 
L 637.055429 -316.465521 
L 630.30212 -305.831043 
L 623.620795 -313.2037 
L 617.031084 -308.40549 
L 610.212337 -310.939944 
L 603.635714 -312.75274 
L 596.705721 -321.351393 
L 589.945869 -327.409704 
L 583.100946 -319.359103 
L 576.439252 -328.794089 
L 569.430731 -313.247319 
L 562.769038 -320.22091 
L 556.179327 -323.639386 
L 549.785934 -322.602768 
L 542.731606 -321.790151 
L 536.240054 -319.664994 
L 529.355867 -333.600409 
L 522.831596 -315.995116 
L 516.0652 -332.302353 
L 509.324979 -309.587778 
L 502.839971 -305.557965 
L 496.557824 -325.655986 
L 489.955025 -308.035272 
L 483.234437 -307.675613 
L 476.428777 -323.541553 
L 469.688557 -337.816754 
L 462.994143 -308.778758 
L 456.489504 -319.989432 
L 450.043759 -322.828359 
L 443.270819 -312.635105 
L 436.596037 -316.858992 
L 429.679132 -314.700973 
L 422.657523 -311.975318 
L 416.146339 -325.894593 
L 409.752946 -323.826211 
L 402.908023 -312.015622 
L 396.455734 -316.740463 
L 389.872567 -306.831484 
L 383.17161 -297.759384 
L 376.594988 -311.374802 
L 369.815504 -326.261428 
L 363.029476 -318.303107 
L 356.295799 -312.311908 
L 349.889318 -299.337699 
L 343.423941 -320.364272 
L 336.323806 -309.804589 
L 329.930413 -297.034361 
L 323.360334 -321.473667 
L 316.646289 -321.883567 
L 310.04349 -313.764144 
L 303.578114 -312.657144 
L 296.850981 -312.392833 
L 290.549202 -316.652258 
L 283.331277 -310.850365 
L 276.800461 -326.228243 
L 270.099504 -314.057718 
L 263.535969 -304.82254 
L 256.821925 -317.974768 
L 250.199494 -314.597951 
L 243.557432 -312.179732 
L 236.719053 -310.658433 
L 230.162062 -317.654318 
L 223.716317 -313.756798 
L 216.707797 -303.064285 
L 210.170438 -312.021931 
L 203.672341 -318.53587 
L 196.814331 -323.600365 
L 190.093742 -326.45889 
L 183.314258 -312.491889 
L 176.534774 -326.248373 
L 170.180644 -316.223621 
L 163.721812 -323.224527 
L 156.981591 -333.441901 
L 150.267546 -325.949725 
L 143.743275 -325.193051 
L 137.186283 -299.573266 
L 130.603117 -326.137852 
L 123.961055 -318.821709 
L 117.404064 -320.216032 
L 110.971407 -305.084596 
L 104.061045 -314.472574 
L 97.504054 -325.9453 
L 91.058309 -310.379869 
L 84.331176 -310.766878 
L 77.787273 -303.037135 
z
" style="stroke: #ffa500; stroke-opacity: 0.2"/>
    </defs>
    <g clip-path="url(#p11c93a1df3)">
     <use xlink:href="#mebe9d1ec40" x="0" y="432" style="fill: #ffa500; fill-opacity: 0.2; stroke: #ffa500; stroke-opacity: 0.2"/>
    </g>
   </g>
   <g id="matplotlib.axis_1">
    <g id="xtick_1">
     <g id="line2d_1">
      <path d="M 74.587304 390.04 
L 74.587304 10.8 
" clip-path="url(#p11c93a1df3)" style="fill: none; stroke: #b0b0b0; stroke-width: 0.8; stroke-linecap: square"/>
     </g>
     <g id="line2d_2">
      <defs>
       <path id="m11938751ec" d="M 0 0 
L 0 3.5 
" style="stroke: #000000; stroke-width: 0.8"/>
      </defs>
      <g>
       <use xlink:href="#m11938751ec" x="74.587304" y="390.04" style="stroke: #000000; stroke-width: 0.8"/>
      </g>
     </g>
     <g id="text_1">
      <!-- 0 -->
      <g transform="translate(71.406054 404.638438) scale(0.1 -0.1)">
       <defs>
        <path id="DejaVuSans-30" d="M 2034 4250 
Q 1547 4250 1301 3770 
Q 1056 3291 1056 2328 
Q 1056 1369 1301 889 
Q 1547 409 2034 409 
Q 2525 409 2770 889 
Q 3016 1369 3016 2328 
Q 3016 3291 2770 3770 
Q 2525 4250 2034 4250 
z
M 2034 4750 
Q 2819 4750 3233 4129 
Q 3647 3509 3647 2328 
Q 3647 1150 3233 529 
Q 2819 -91 2034 -91 
Q 1250 -91 836 529 
Q 422 1150 422 2328 
Q 422 3509 836 4129 
Q 1250 4750 2034 4750 
z
" transform="scale(0.015625)"/>
       </defs>
       <use xlink:href="#DejaVuSans-30"/>
      </g>
     </g>
    </g>
    <g id="xtick_2">
     <g id="line2d_3">
      <path d="M 205.465371 390.04 
L 205.465371 10.8 
" clip-path="url(#p11c93a1df3)" style="fill: none; stroke: #b0b0b0; stroke-width: 0.8; stroke-linecap: square"/>
     </g>
     <g id="line2d_4">
      <g>
       <use xlink:href="#m11938751ec" x="205.465371" y="390.04" style="stroke: #000000; stroke-width: 0.8"/>
      </g>
     </g>
     <g id="text_2">
      <!-- 20000 -->
      <g transform="translate(189.559121 404.638438) scale(0.1 -0.1)">
       <defs>
        <path id="DejaVuSans-32" d="M 1228 531 
L 3431 531 
L 3431 0 
L 469 0 
L 469 531 
Q 828 903 1448 1529 
Q 2069 2156 2228 2338 
Q 2531 2678 2651 2914 
Q 2772 3150 2772 3378 
Q 2772 3750 2511 3984 
Q 2250 4219 1831 4219 
Q 1534 4219 1204 4116 
Q 875 4013 500 3803 
L 500 4441 
Q 881 4594 1212 4672 
Q 1544 4750 1819 4750 
Q 2544 4750 2975 4387 
Q 3406 4025 3406 3419 
Q 3406 3131 3298 2873 
Q 3191 2616 2906 2266 
Q 2828 2175 2409 1742 
Q 1991 1309 1228 531 
z
" transform="scale(0.015625)"/>
       </defs>
       <use xlink:href="#DejaVuSans-32"/>
       <use xlink:href="#DejaVuSans-30" transform="translate(63.623047 0)"/>
       <use xlink:href="#DejaVuSans-30" transform="translate(127.246094 0)"/>
       <use xlink:href="#DejaVuSans-30" transform="translate(190.869141 0)"/>
       <use xlink:href="#DejaVuSans-30" transform="translate(254.492188 0)"/>
      </g>
     </g>
    </g>
    <g id="xtick_3">
     <g id="line2d_5">
      <path d="M 336.343438 390.04 
L 336.343438 10.8 
" clip-path="url(#p11c93a1df3)" style="fill: none; stroke: #b0b0b0; stroke-width: 0.8; stroke-linecap: square"/>
     </g>
     <g id="line2d_6">
      <g>
       <use xlink:href="#m11938751ec" x="336.343438" y="390.04" style="stroke: #000000; stroke-width: 0.8"/>
      </g>
     </g>
     <g id="text_3">
      <!-- 40000 -->
      <g transform="translate(320.437188 404.638438) scale(0.1 -0.1)">
       <defs>
        <path id="DejaVuSans-34" d="M 2419 4116 
L 825 1625 
L 2419 1625 
L 2419 4116 
z
M 2253 4666 
L 3047 4666 
L 3047 1625 
L 3713 1625 
L 3713 1100 
L 3047 1100 
L 3047 0 
L 2419 0 
L 2419 1100 
L 313 1100 
L 313 1709 
L 2253 4666 
z
" transform="scale(0.015625)"/>
       </defs>
       <use xlink:href="#DejaVuSans-34"/>
       <use xlink:href="#DejaVuSans-30" transform="translate(63.623047 0)"/>
       <use xlink:href="#DejaVuSans-30" transform="translate(127.246094 0)"/>
       <use xlink:href="#DejaVuSans-30" transform="translate(190.869141 0)"/>
       <use xlink:href="#DejaVuSans-30" transform="translate(254.492188 0)"/>
      </g>
     </g>
    </g>
    <g id="xtick_4">
     <g id="line2d_7">
      <path d="M 467.221505 390.04 
L 467.221505 10.8 
" clip-path="url(#p11c93a1df3)" style="fill: none; stroke: #b0b0b0; stroke-width: 0.8; stroke-linecap: square"/>
     </g>
     <g id="line2d_8">
      <g>
       <use xlink:href="#m11938751ec" x="467.221505" y="390.04" style="stroke: #000000; stroke-width: 0.8"/>
      </g>
     </g>
     <g id="text_4">
      <!-- 60000 -->
      <g transform="translate(451.315255 404.638438) scale(0.1 -0.1)">
       <defs>
        <path id="DejaVuSans-36" d="M 2113 2584 
Q 1688 2584 1439 2293 
Q 1191 2003 1191 1497 
Q 1191 994 1439 701 
Q 1688 409 2113 409 
Q 2538 409 2786 701 
Q 3034 994 3034 1497 
Q 3034 2003 2786 2293 
Q 2538 2584 2113 2584 
z
M 3366 4563 
L 3366 3988 
Q 3128 4100 2886 4159 
Q 2644 4219 2406 4219 
Q 1781 4219 1451 3797 
Q 1122 3375 1075 2522 
Q 1259 2794 1537 2939 
Q 1816 3084 2150 3084 
Q 2853 3084 3261 2657 
Q 3669 2231 3669 1497 
Q 3669 778 3244 343 
Q 2819 -91 2113 -91 
Q 1303 -91 875 529 
Q 447 1150 447 2328 
Q 447 3434 972 4092 
Q 1497 4750 2381 4750 
Q 2619 4750 2861 4703 
Q 3103 4656 3366 4563 
z
" transform="scale(0.015625)"/>
       </defs>
       <use xlink:href="#DejaVuSans-36"/>
       <use xlink:href="#DejaVuSans-30" transform="translate(63.623047 0)"/>
       <use xlink:href="#DejaVuSans-30" transform="translate(127.246094 0)"/>
       <use xlink:href="#DejaVuSans-30" transform="translate(190.869141 0)"/>
       <use xlink:href="#DejaVuSans-30" transform="translate(254.492188 0)"/>
      </g>
     </g>
    </g>
    <g id="xtick_5">
     <g id="line2d_9">
      <path d="M 598.099572 390.04 
L 598.099572 10.8 
" clip-path="url(#p11c93a1df3)" style="fill: none; stroke: #b0b0b0; stroke-width: 0.8; stroke-linecap: square"/>
     </g>
     <g id="line2d_10">
      <g>
       <use xlink:href="#m11938751ec" x="598.099572" y="390.04" style="stroke: #000000; stroke-width: 0.8"/>
      </g>
     </g>
     <g id="text_5">
      <!-- 80000 -->
      <g transform="translate(582.193322 404.638438) scale(0.1 -0.1)">
       <defs>
        <path id="DejaVuSans-38" d="M 2034 2216 
Q 1584 2216 1326 1975 
Q 1069 1734 1069 1313 
Q 1069 891 1326 650 
Q 1584 409 2034 409 
Q 2484 409 2743 651 
Q 3003 894 3003 1313 
Q 3003 1734 2745 1975 
Q 2488 2216 2034 2216 
z
M 1403 2484 
Q 997 2584 770 2862 
Q 544 3141 544 3541 
Q 544 4100 942 4425 
Q 1341 4750 2034 4750 
Q 2731 4750 3128 4425 
Q 3525 4100 3525 3541 
Q 3525 3141 3298 2862 
Q 3072 2584 2669 2484 
Q 3125 2378 3379 2068 
Q 3634 1759 3634 1313 
Q 3634 634 3220 271 
Q 2806 -91 2034 -91 
Q 1263 -91 848 271 
Q 434 634 434 1313 
Q 434 1759 690 2068 
Q 947 2378 1403 2484 
z
M 1172 3481 
Q 1172 3119 1398 2916 
Q 1625 2713 2034 2713 
Q 2441 2713 2670 2916 
Q 2900 3119 2900 3481 
Q 2900 3844 2670 4047 
Q 2441 4250 2034 4250 
Q 1625 4250 1398 4047 
Q 1172 3844 1172 3481 
z
" transform="scale(0.015625)"/>
       </defs>
       <use xlink:href="#DejaVuSans-38"/>
       <use xlink:href="#DejaVuSans-30" transform="translate(63.623047 0)"/>
       <use xlink:href="#DejaVuSans-30" transform="translate(127.246094 0)"/>
       <use xlink:href="#DejaVuSans-30" transform="translate(190.869141 0)"/>
       <use xlink:href="#DejaVuSans-30" transform="translate(254.492188 0)"/>
      </g>
     </g>
    </g>
    <g id="text_6">
     <!-- Steps -->
     <g transform="translate(364.470156 418.316562) scale(0.1 -0.1)">
      <defs>
       <path id="DejaVuSans-53" d="M 3425 4513 
L 3425 3897 
Q 3066 4069 2747 4153 
Q 2428 4238 2131 4238 
Q 1616 4238 1336 4038 
Q 1056 3838 1056 3469 
Q 1056 3159 1242 3001 
Q 1428 2844 1947 2747 
L 2328 2669 
Q 3034 2534 3370 2195 
Q 3706 1856 3706 1288 
Q 3706 609 3251 259 
Q 2797 -91 1919 -91 
Q 1588 -91 1214 -16 
Q 841 59 441 206 
L 441 856 
Q 825 641 1194 531 
Q 1563 422 1919 422 
Q 2459 422 2753 634 
Q 3047 847 3047 1241 
Q 3047 1584 2836 1778 
Q 2625 1972 2144 2069 
L 1759 2144 
Q 1053 2284 737 2584 
Q 422 2884 422 3419 
Q 422 4038 858 4394 
Q 1294 4750 2059 4750 
Q 2388 4750 2728 4690 
Q 3069 4631 3425 4513 
z
" transform="scale(0.015625)"/>
       <path id="DejaVuSans-74" d="M 1172 4494 
L 1172 3500 
L 2356 3500 
L 2356 3053 
L 1172 3053 
L 1172 1153 
Q 1172 725 1289 603 
Q 1406 481 1766 481 
L 2356 481 
L 2356 0 
L 1766 0 
Q 1100 0 847 248 
Q 594 497 594 1153 
L 594 3053 
L 172 3053 
L 172 3500 
L 594 3500 
L 594 4494 
L 1172 4494 
z
" transform="scale(0.015625)"/>
       <path id="DejaVuSans-65" d="M 3597 1894 
L 3597 1613 
L 953 1613 
Q 991 1019 1311 708 
Q 1631 397 2203 397 
Q 2534 397 2845 478 
Q 3156 559 3463 722 
L 3463 178 
Q 3153 47 2828 -22 
Q 2503 -91 2169 -91 
Q 1331 -91 842 396 
Q 353 884 353 1716 
Q 353 2575 817 3079 
Q 1281 3584 2069 3584 
Q 2775 3584 3186 3129 
Q 3597 2675 3597 1894 
z
M 3022 2063 
Q 3016 2534 2758 2815 
Q 2500 3097 2075 3097 
Q 1594 3097 1305 2825 
Q 1016 2553 972 2059 
L 3022 2063 
z
" transform="scale(0.015625)"/>
       <path id="DejaVuSans-70" d="M 1159 525 
L 1159 -1331 
L 581 -1331 
L 581 3500 
L 1159 3500 
L 1159 2969 
Q 1341 3281 1617 3432 
Q 1894 3584 2278 3584 
Q 2916 3584 3314 3078 
Q 3713 2572 3713 1747 
Q 3713 922 3314 415 
Q 2916 -91 2278 -91 
Q 1894 -91 1617 61 
Q 1341 213 1159 525 
z
M 3116 1747 
Q 3116 2381 2855 2742 
Q 2594 3103 2138 3103 
Q 1681 3103 1420 2742 
Q 1159 2381 1159 1747 
Q 1159 1113 1420 752 
Q 1681 391 2138 391 
Q 2594 391 2855 752 
Q 3116 1113 3116 1747 
z
" transform="scale(0.015625)"/>
       <path id="DejaVuSans-73" d="M 2834 3397 
L 2834 2853 
Q 2591 2978 2328 3040 
Q 2066 3103 1784 3103 
Q 1356 3103 1142 2972 
Q 928 2841 928 2578 
Q 928 2378 1081 2264 
Q 1234 2150 1697 2047 
L 1894 2003 
Q 2506 1872 2764 1633 
Q 3022 1394 3022 966 
Q 3022 478 2636 193 
Q 2250 -91 1575 -91 
Q 1294 -91 989 -36 
Q 684 19 347 128 
L 347 722 
Q 666 556 975 473 
Q 1284 391 1588 391 
Q 1994 391 2212 530 
Q 2431 669 2431 922 
Q 2431 1156 2273 1281 
Q 2116 1406 1581 1522 
L 1381 1569 
Q 847 1681 609 1914 
Q 372 2147 372 2553 
Q 372 3047 722 3315 
Q 1072 3584 1716 3584 
Q 2034 3584 2315 3537 
Q 2597 3491 2834 3397 
z
" transform="scale(0.015625)"/>
      </defs>
      <use xlink:href="#DejaVuSans-53"/>
      <use xlink:href="#DejaVuSans-74" transform="translate(63.476562 0)"/>
      <use xlink:href="#DejaVuSans-65" transform="translate(102.685547 0)"/>
      <use xlink:href="#DejaVuSans-70" transform="translate(164.208984 0)"/>
      <use xlink:href="#DejaVuSans-73" transform="translate(227.685547 0)"/>
     </g>
    </g>
   </g>
   <g id="matplotlib.axis_2">
    <g id="ytick_1">
     <g id="line2d_11">
      <path d="M 47.72 329.174758 
L 709.2 329.174758 
" clip-path="url(#p11c93a1df3)" style="fill: none; stroke: #b0b0b0; stroke-width: 0.8; stroke-linecap: square"/>
     </g>
     <g id="line2d_12">
      <defs>
       <path id="m14fdb4c7ae" d="M 0 0 
L -3.5 0 
" style="stroke: #000000; stroke-width: 0.8"/>
      </defs>
      <g>
       <use xlink:href="#m14fdb4c7ae" x="47.72" y="329.174758" style="stroke: #000000; stroke-width: 0.8"/>
      </g>
     </g>
     <g id="text_7">
      <!-- 0.6 -->
      <g transform="translate(24.816875 332.973976) scale(0.1 -0.1)">
       <defs>
        <path id="DejaVuSans-2e" d="M 684 794 
L 1344 794 
L 1344 0 
L 684 0 
L 684 794 
z
" transform="scale(0.015625)"/>
       </defs>
       <use xlink:href="#DejaVuSans-30"/>
       <use xlink:href="#DejaVuSans-2e" transform="translate(63.623047 0)"/>
       <use xlink:href="#DejaVuSans-36" transform="translate(95.410156 0)"/>
      </g>
     </g>
    </g>
    <g id="ytick_2">
     <g id="line2d_13">
      <path d="M 47.72 253.890614 
L 709.2 253.890614 
" clip-path="url(#p11c93a1df3)" style="fill: none; stroke: #b0b0b0; stroke-width: 0.8; stroke-linecap: square"/>
     </g>
     <g id="line2d_14">
      <g>
       <use xlink:href="#m14fdb4c7ae" x="47.72" y="253.890614" style="stroke: #000000; stroke-width: 0.8"/>
      </g>
     </g>
     <g id="text_8">
      <!-- 0.7 -->
      <g transform="translate(24.816875 257.689832) scale(0.1 -0.1)">
       <defs>
        <path id="DejaVuSans-37" d="M 525 4666 
L 3525 4666 
L 3525 4397 
L 1831 0 
L 1172 0 
L 2766 4134 
L 525 4134 
L 525 4666 
z
" transform="scale(0.015625)"/>
       </defs>
       <use xlink:href="#DejaVuSans-30"/>
       <use xlink:href="#DejaVuSans-2e" transform="translate(63.623047 0)"/>
       <use xlink:href="#DejaVuSans-37" transform="translate(95.410156 0)"/>
      </g>
     </g>
    </g>
    <g id="ytick_3">
     <g id="line2d_15">
      <path d="M 47.72 178.60647 
L 709.2 178.60647 
" clip-path="url(#p11c93a1df3)" style="fill: none; stroke: #b0b0b0; stroke-width: 0.8; stroke-linecap: square"/>
     </g>
     <g id="line2d_16">
      <g>
       <use xlink:href="#m14fdb4c7ae" x="47.72" y="178.60647" style="stroke: #000000; stroke-width: 0.8"/>
      </g>
     </g>
     <g id="text_9">
      <!-- 0.8 -->
      <g transform="translate(24.816875 182.405688) scale(0.1 -0.1)">
       <use xlink:href="#DejaVuSans-30"/>
       <use xlink:href="#DejaVuSans-2e" transform="translate(63.623047 0)"/>
       <use xlink:href="#DejaVuSans-38" transform="translate(95.410156 0)"/>
      </g>
     </g>
    </g>
    <g id="ytick_4">
     <g id="line2d_17">
      <path d="M 47.72 103.322326 
L 709.2 103.322326 
" clip-path="url(#p11c93a1df3)" style="fill: none; stroke: #b0b0b0; stroke-width: 0.8; stroke-linecap: square"/>
     </g>
     <g id="line2d_18">
      <g>
       <use xlink:href="#m14fdb4c7ae" x="47.72" y="103.322326" style="stroke: #000000; stroke-width: 0.8"/>
      </g>
     </g>
     <g id="text_10">
      <!-- 0.9 -->
      <g transform="translate(24.816875 107.121545) scale(0.1 -0.1)">
       <defs>
        <path id="DejaVuSans-39" d="M 703 97 
L 703 672 
Q 941 559 1184 500 
Q 1428 441 1663 441 
Q 2288 441 2617 861 
Q 2947 1281 2994 2138 
Q 2813 1869 2534 1725 
Q 2256 1581 1919 1581 
Q 1219 1581 811 2004 
Q 403 2428 403 3163 
Q 403 3881 828 4315 
Q 1253 4750 1959 4750 
Q 2769 4750 3195 4129 
Q 3622 3509 3622 2328 
Q 3622 1225 3098 567 
Q 2575 -91 1691 -91 
Q 1453 -91 1209 -44 
Q 966 3 703 97 
z
M 1959 2075 
Q 2384 2075 2632 2365 
Q 2881 2656 2881 3163 
Q 2881 3666 2632 3958 
Q 2384 4250 1959 4250 
Q 1534 4250 1286 3958 
Q 1038 3666 1038 3163 
Q 1038 2656 1286 2365 
Q 1534 2075 1959 2075 
z
" transform="scale(0.015625)"/>
       </defs>
       <use xlink:href="#DejaVuSans-30"/>
       <use xlink:href="#DejaVuSans-2e" transform="translate(63.623047 0)"/>
       <use xlink:href="#DejaVuSans-39" transform="translate(95.410156 0)"/>
      </g>
     </g>
    </g>
    <g id="ytick_5">
     <g id="line2d_19">
      <path d="M 47.72 28.038182 
L 709.2 28.038182 
" clip-path="url(#p11c93a1df3)" style="fill: none; stroke: #b0b0b0; stroke-width: 0.8; stroke-linecap: square"/>
     </g>
     <g id="line2d_20">
      <g>
       <use xlink:href="#m14fdb4c7ae" x="47.72" y="28.038182" style="stroke: #000000; stroke-width: 0.8"/>
      </g>
     </g>
     <g id="text_11">
      <!-- 1.0 -->
      <g transform="translate(24.816875 31.837401) scale(0.1 -0.1)">
       <defs>
        <path id="DejaVuSans-31" d="M 794 531 
L 1825 531 
L 1825 4091 
L 703 3866 
L 703 4441 
L 1819 4666 
L 2450 4666 
L 2450 531 
L 3481 531 
L 3481 0 
L 794 0 
L 794 531 
z
" transform="scale(0.015625)"/>
       </defs>
       <use xlink:href="#DejaVuSans-31"/>
       <use xlink:href="#DejaVuSans-2e" transform="translate(63.623047 0)"/>
       <use xlink:href="#DejaVuSans-30" transform="translate(95.410156 0)"/>
      </g>
     </g>
    </g>
    <g id="text_12">
     <!-- Accuracy -->
     <g transform="translate(18.737188 223.248125) rotate(-90) scale(0.1 -0.1)">
      <defs>
       <path id="DejaVuSans-41" d="M 2188 4044 
L 1331 1722 
L 3047 1722 
L 2188 4044 
z
M 1831 4666 
L 2547 4666 
L 4325 0 
L 3669 0 
L 3244 1197 
L 1141 1197 
L 716 0 
L 50 0 
L 1831 4666 
z
" transform="scale(0.015625)"/>
       <path id="DejaVuSans-63" d="M 3122 3366 
L 3122 2828 
Q 2878 2963 2633 3030 
Q 2388 3097 2138 3097 
Q 1578 3097 1268 2742 
Q 959 2388 959 1747 
Q 959 1106 1268 751 
Q 1578 397 2138 397 
Q 2388 397 2633 464 
Q 2878 531 3122 666 
L 3122 134 
Q 2881 22 2623 -34 
Q 2366 -91 2075 -91 
Q 1284 -91 818 406 
Q 353 903 353 1747 
Q 353 2603 823 3093 
Q 1294 3584 2113 3584 
Q 2378 3584 2631 3529 
Q 2884 3475 3122 3366 
z
" transform="scale(0.015625)"/>
       <path id="DejaVuSans-75" d="M 544 1381 
L 544 3500 
L 1119 3500 
L 1119 1403 
Q 1119 906 1312 657 
Q 1506 409 1894 409 
Q 2359 409 2629 706 
Q 2900 1003 2900 1516 
L 2900 3500 
L 3475 3500 
L 3475 0 
L 2900 0 
L 2900 538 
Q 2691 219 2414 64 
Q 2138 -91 1772 -91 
Q 1169 -91 856 284 
Q 544 659 544 1381 
z
M 1991 3584 
L 1991 3584 
z
" transform="scale(0.015625)"/>
       <path id="DejaVuSans-72" d="M 2631 2963 
Q 2534 3019 2420 3045 
Q 2306 3072 2169 3072 
Q 1681 3072 1420 2755 
Q 1159 2438 1159 1844 
L 1159 0 
L 581 0 
L 581 3500 
L 1159 3500 
L 1159 2956 
Q 1341 3275 1631 3429 
Q 1922 3584 2338 3584 
Q 2397 3584 2469 3576 
Q 2541 3569 2628 3553 
L 2631 2963 
z
" transform="scale(0.015625)"/>
       <path id="DejaVuSans-61" d="M 2194 1759 
Q 1497 1759 1228 1600 
Q 959 1441 959 1056 
Q 959 750 1161 570 
Q 1363 391 1709 391 
Q 2188 391 2477 730 
Q 2766 1069 2766 1631 
L 2766 1759 
L 2194 1759 
z
M 3341 1997 
L 3341 0 
L 2766 0 
L 2766 531 
Q 2569 213 2275 61 
Q 1981 -91 1556 -91 
Q 1019 -91 701 211 
Q 384 513 384 1019 
Q 384 1609 779 1909 
Q 1175 2209 1959 2209 
L 2766 2209 
L 2766 2266 
Q 2766 2663 2505 2880 
Q 2244 3097 1772 3097 
Q 1472 3097 1187 3025 
Q 903 2953 641 2809 
L 641 3341 
Q 956 3463 1253 3523 
Q 1550 3584 1831 3584 
Q 2591 3584 2966 3190 
Q 3341 2797 3341 1997 
z
" transform="scale(0.015625)"/>
       <path id="DejaVuSans-79" d="M 2059 -325 
Q 1816 -950 1584 -1140 
Q 1353 -1331 966 -1331 
L 506 -1331 
L 506 -850 
L 844 -850 
Q 1081 -850 1212 -737 
Q 1344 -625 1503 -206 
L 1606 56 
L 191 3500 
L 800 3500 
L 1894 763 
L 2988 3500 
L 3597 3500 
L 2059 -325 
z
" transform="scale(0.015625)"/>
      </defs>
      <use xlink:href="#DejaVuSans-41"/>
      <use xlink:href="#DejaVuSans-63" transform="translate(66.658203 0)"/>
      <use xlink:href="#DejaVuSans-63" transform="translate(121.638672 0)"/>
      <use xlink:href="#DejaVuSans-75" transform="translate(176.619141 0)"/>
      <use xlink:href="#DejaVuSans-72" transform="translate(239.998047 0)"/>
      <use xlink:href="#DejaVuSans-61" transform="translate(281.111328 0)"/>
      <use xlink:href="#DejaVuSans-63" transform="translate(342.390625 0)"/>
      <use xlink:href="#DejaVuSans-79" transform="translate(397.371094 0)"/>
     </g>
    </g>
   </g>
   <g id="line2d_21">
    <path d="M 77.813448 223.860589 
L 84.396615 200.104256 
L 90.999414 169.27958 
L 97.320824 160.663731 
L 103.688042 134.857997 
L 109.708433 115.535069 
L 115.90551 93.786319 
L 121.670689 67.060453 
L 127.416236 49.577806 
L 132.985097 40.961956 
L 138.180957 34.270034 
L 143.180499 30.547652 
L 148.042619 31.384143 
L 152.60372 29.585688 
L 157.138645 31.17502 
L 161.503428 29.627513 
L 165.573736 28.874672 
L 169.604781 29.50204 
L 177.732309 28.832848 
L 181.730634 28.540076 
L 185.715871 28.121831 
L 189.681476 28.20548 
L 193.62745 28.121831 
L 197.573424 28.247304 
L 201.545573 29.292917 
L 205.543898 28.121831 
L 209.483328 28.749199 
L 213.403126 28.20548 
L 217.349099 28.080006 
L 221.301617 28.707374 
L 225.234503 28.038182 
L 229.180477 28.20548 
L 233.093731 28.080006 
L 237.052792 28.66555 
L 240.998766 28.080006 
L 244.964372 28.121831 
L 248.897258 28.330953 
L 252.849775 28.080006 
L 256.782661 28.080006 
L 260.715547 28.66555 
L 264.648433 28.038182 
L 276.434003 28.121831 
L 280.360345 28.038182 
L 284.286687 28.121831 
L 299.998599 28.038182 
L 303.944573 28.707374 
L 307.884002 28.080006 
L 319.68266 28.038182 
L 323.62209 28.163655 
L 331.520581 28.038182 
L 343.293063 28.080006 
L 347.206318 28.163655 
L 351.13266 28.080006 
L 358.965712 28.163655 
L 362.892054 28.038182 
L 366.82494 28.038182 
L 370.751282 28.289129 
L 374.67108 28.080006 
L 378.597422 28.581901 
L 382.66773 28.038182 
L 402.901479 28.038182 
L 406.840909 28.289129 
L 410.806514 28.038182 
L 418.790076 28.080006 
L 430.660717 28.038182 
L 434.63941 28.66555 
L 438.57884 28.080006 
L 474.105691 28.121831 
L 478.051665 28.665549 
L 481.742427 31.760561 
L 484.929308 39.163495 
L 487.736642 41.714788 
L 490.426186 43.429592 
L 493.069923 43.513241 
L 495.752924 44.056959 
L 501.033854 44.642502 
L 503.664503 44.767976 
L 506.295152 44.684327 
L 508.912713 45.018923 
L 511.530275 44.726151 
L 519.389503 44.767976 
L 556.061537 44.767976 
L 558.679098 45.060747 
L 561.29666 45.018923 
L 563.914221 44.8098 
L 571.806168 44.767976 
L 574.42373 46.399131 
L 577.041291 49.034073 
L 579.658852 52.714628 
L 582.276414 52.798277 
L 584.893975 53.132873 
L 590.129098 53.132873 
L 613.68715 53.132873 
L 616.304711 53.634767 
L 618.922273 53.132873 
L 679.132727 53.132873 
L 679.132727 53.132873 
" clip-path="url(#p11c93a1df3)" style="fill: none; stroke: #0000ff; stroke-width: 1.5; stroke-linecap: square"/>
   </g>
   <g id="line2d_22">
    <path d="M 77.787273 245.023799 
L 84.331176 242.096082 
L 91.058309 237.579034 
L 97.504054 229.841497 
L 104.061045 241.217767 
L 110.971407 245.149273 
L 117.404064 237.286262 
L 123.961055 236.53342 
L 130.603117 235.111387 
L 137.186283 244.10366 
L 143.743275 231.890898 
L 150.267546 231.472653 
L 156.981591 223.818765 
L 163.721812 222.814975 
L 170.180644 238.080928 
L 176.534774 230.134268 
L 183.314258 241.719663 
L 190.093742 225.784518 
L 196.814331 230.677987 
L 203.672341 242.597977 
L 210.170438 238.122753 
L 216.707797 239.377489 
L 223.716317 236.073351 
L 230.162062 238.833771 
L 236.719053 245.94394 
L 243.557432 241.845135 
L 250.199494 236.407947 
L 256.821925 238.624648 
L 263.535969 247.156852 
L 270.099504 234.609492 
L 276.800461 230.928934 
L 283.331277 236.909841 
L 290.549202 238.373701 
L 296.850981 236.491596 
L 303.578114 240.255804 
L 310.04349 239.879382 
L 316.646289 230.719813 
L 323.360334 228.168516 
L 329.930413 249.499024 
L 336.323806 243.267169 
L 343.423941 229.966969 
L 349.889318 248.99713 
L 356.295799 240.297628 
L 363.029476 233.731177 
L 369.815504 230.761636 
L 376.594988 239.335664 
L 383.17161 248.160641 
L 389.872567 242.096083 
L 396.455734 236.157 
L 402.908023 240.883172 
L 409.752946 237.788157 
L 416.146339 231.305356 
L 422.657523 243.183521 
L 429.679132 235.822404 
L 436.596037 231.263531 
L 443.270819 244.312783 
L 450.043759 226.202762 
L 456.489504 233.145635 
L 462.994143 239.126541 
L 469.688557 222.396731 
L 476.428777 230.845286 
L 483.234437 240.966821 
L 489.955025 243.559941 
L 496.557824 230.385217 
L 502.839971 240.172156 
L 509.324979 237.118964 
L 516.0652 228.377638 
L 522.831596 242.556152 
L 529.355867 226.746482 
L 536.240054 234.191247 
L 542.731606 234.107598 
L 549.785934 226.119114 
L 556.179327 230.677987 
L 562.769038 234.02395 
L 569.430731 234.31672 
L 576.439252 224.027888 
L 583.100946 233.9403 
L 589.945869 228.628585 
L 596.705721 236.784368 
L 603.635714 242.347031 
L 610.212337 238.415524 
L 617.031084 245.943939 
L 623.620795 237.91363 
L 630.30212 241.343242 
L 637.055429 233.856651 
L 643.49463 232.852863 
L 650.077796 247.909693 
L 656.700227 235.947878 
L 663.414271 229.255955 
L 669.997438 239.879384 
L 676.338481 240.632225 
" clip-path="url(#p11c93a1df3)" style="fill: none; stroke: #ffa500; stroke-width: 1.5; stroke-linecap: square"/>
   </g>
   <g id="patch_3">
    <path d="M 47.72 390.04 
L 47.72 10.8 
" style="fill: none; stroke: #000000; stroke-width: 0.8; stroke-linejoin: miter; stroke-linecap: square"/>
   </g>
   <g id="patch_4">
    <path d="M 709.2 390.04 
L 709.2 10.8 
" style="fill: none; stroke: #000000; stroke-width: 0.8; stroke-linejoin: miter; stroke-linecap: square"/>
   </g>
   <g id="patch_5">
    <path d="M 47.72 390.04 
L 709.2 390.04 
" style="fill: none; stroke: #000000; stroke-width: 0.8; stroke-linejoin: miter; stroke-linecap: square"/>
   </g>
   <g id="patch_6">
    <path d="M 47.72 10.8 
L 709.2 10.8 
" style="fill: none; stroke: #000000; stroke-width: 0.8; stroke-linejoin: miter; stroke-linecap: square"/>
   </g>
   <g id="legend_1">
    <g id="patch_7">
     <path d="M 628.803125 385.04 
L 702.2 385.04 
Q 704.2 385.04 704.2 383.04 
L 704.2 340.005625 
Q 704.2 338.005625 702.2 338.005625 
L 628.803125 338.005625 
Q 626.803125 338.005625 626.803125 340.005625 
L 626.803125 383.04 
Q 626.803125 385.04 628.803125 385.04 
z
" style="fill: #ffffff; opacity: 0.8; stroke: #cccccc; stroke-linejoin: miter"/>
    </g>
    <g id="text_13">
     <!-- Agent -->
     <g transform="translate(650.701563 349.604062) scale(0.1 -0.1)">
      <defs>
       <path id="DejaVuSans-67" d="M 2906 1791 
Q 2906 2416 2648 2759 
Q 2391 3103 1925 3103 
Q 1463 3103 1205 2759 
Q 947 2416 947 1791 
Q 947 1169 1205 825 
Q 1463 481 1925 481 
Q 2391 481 2648 825 
Q 2906 1169 2906 1791 
z
M 3481 434 
Q 3481 -459 3084 -895 
Q 2688 -1331 1869 -1331 
Q 1566 -1331 1297 -1286 
Q 1028 -1241 775 -1147 
L 775 -588 
Q 1028 -725 1275 -790 
Q 1522 -856 1778 -856 
Q 2344 -856 2625 -561 
Q 2906 -266 2906 331 
L 2906 616 
Q 2728 306 2450 153 
Q 2172 0 1784 0 
Q 1141 0 747 490 
Q 353 981 353 1791 
Q 353 2603 747 3093 
Q 1141 3584 1784 3584 
Q 2172 3584 2450 3431 
Q 2728 3278 2906 2969 
L 2906 3500 
L 3481 3500 
L 3481 434 
z
" transform="scale(0.015625)"/>
       <path id="DejaVuSans-6e" d="M 3513 2113 
L 3513 0 
L 2938 0 
L 2938 2094 
Q 2938 2591 2744 2837 
Q 2550 3084 2163 3084 
Q 1697 3084 1428 2787 
Q 1159 2491 1159 1978 
L 1159 0 
L 581 0 
L 581 3500 
L 1159 3500 
L 1159 2956 
Q 1366 3272 1645 3428 
Q 1925 3584 2291 3584 
Q 2894 3584 3203 3211 
Q 3513 2838 3513 2113 
z
" transform="scale(0.015625)"/>
      </defs>
      <use xlink:href="#DejaVuSans-41"/>
      <use xlink:href="#DejaVuSans-67" transform="translate(68.408203 0)"/>
      <use xlink:href="#DejaVuSans-65" transform="translate(131.884766 0)"/>
      <use xlink:href="#DejaVuSans-6e" transform="translate(193.408203 0)"/>
      <use xlink:href="#DejaVuSans-74" transform="translate(256.787109 0)"/>
     </g>
    </g>
    <g id="line2d_23">
     <path d="M 630.803125 360.782187 
L 640.803125 360.782187 
L 650.803125 360.782187 
" style="fill: none; stroke: #0000ff; stroke-width: 1.5; stroke-linecap: square"/>
    </g>
    <g id="text_14">
     <!-- PPO -->
     <g transform="translate(658.803125 364.282187) scale(0.1 -0.1)">
      <defs>
       <path id="DejaVuSans-50" d="M 1259 4147 
L 1259 2394 
L 2053 2394 
Q 2494 2394 2734 2622 
Q 2975 2850 2975 3272 
Q 2975 3691 2734 3919 
Q 2494 4147 2053 4147 
L 1259 4147 
z
M 628 4666 
L 2053 4666 
Q 2838 4666 3239 4311 
Q 3641 3956 3641 3272 
Q 3641 2581 3239 2228 
Q 2838 1875 2053 1875 
L 1259 1875 
L 1259 0 
L 628 0 
L 628 4666 
z
" transform="scale(0.015625)"/>
       <path id="DejaVuSans-4f" d="M 2522 4238 
Q 1834 4238 1429 3725 
Q 1025 3213 1025 2328 
Q 1025 1447 1429 934 
Q 1834 422 2522 422 
Q 3209 422 3611 934 
Q 4013 1447 4013 2328 
Q 4013 3213 3611 3725 
Q 3209 4238 2522 4238 
z
M 2522 4750 
Q 3503 4750 4090 4092 
Q 4678 3434 4678 2328 
Q 4678 1225 4090 567 
Q 3503 -91 2522 -91 
Q 1538 -91 948 565 
Q 359 1222 359 2328 
Q 359 3434 948 4092 
Q 1538 4750 2522 4750 
z
" transform="scale(0.015625)"/>
      </defs>
      <use xlink:href="#DejaVuSans-50"/>
      <use xlink:href="#DejaVuSans-50" transform="translate(60.302734 0)"/>
      <use xlink:href="#DejaVuSans-4f" transform="translate(120.605469 0)"/>
     </g>
    </g>
    <g id="line2d_24">
     <path d="M 630.803125 375.460312 
L 640.803125 375.460312 
L 650.803125 375.460312 
" style="fill: none; stroke: #ffa500; stroke-width: 1.5; stroke-linecap: square"/>
    </g>
    <g id="text_15">
     <!-- Random -->
     <g transform="translate(658.803125 378.960312) scale(0.1 -0.1)">
      <defs>
       <path id="DejaVuSans-52" d="M 2841 2188 
Q 3044 2119 3236 1894 
Q 3428 1669 3622 1275 
L 4263 0 
L 3584 0 
L 2988 1197 
Q 2756 1666 2539 1819 
Q 2322 1972 1947 1972 
L 1259 1972 
L 1259 0 
L 628 0 
L 628 4666 
L 2053 4666 
Q 2853 4666 3247 4331 
Q 3641 3997 3641 3322 
Q 3641 2881 3436 2590 
Q 3231 2300 2841 2188 
z
M 1259 4147 
L 1259 2491 
L 2053 2491 
Q 2509 2491 2742 2702 
Q 2975 2913 2975 3322 
Q 2975 3731 2742 3939 
Q 2509 4147 2053 4147 
L 1259 4147 
z
" transform="scale(0.015625)"/>
       <path id="DejaVuSans-64" d="M 2906 2969 
L 2906 4863 
L 3481 4863 
L 3481 0 
L 2906 0 
L 2906 525 
Q 2725 213 2448 61 
Q 2172 -91 1784 -91 
Q 1150 -91 751 415 
Q 353 922 353 1747 
Q 353 2572 751 3078 
Q 1150 3584 1784 3584 
Q 2172 3584 2448 3432 
Q 2725 3281 2906 2969 
z
M 947 1747 
Q 947 1113 1208 752 
Q 1469 391 1925 391 
Q 2381 391 2643 752 
Q 2906 1113 2906 1747 
Q 2906 2381 2643 2742 
Q 2381 3103 1925 3103 
Q 1469 3103 1208 2742 
Q 947 2381 947 1747 
z
" transform="scale(0.015625)"/>
       <path id="DejaVuSans-6f" d="M 1959 3097 
Q 1497 3097 1228 2736 
Q 959 2375 959 1747 
Q 959 1119 1226 758 
Q 1494 397 1959 397 
Q 2419 397 2687 759 
Q 2956 1122 2956 1747 
Q 2956 2369 2687 2733 
Q 2419 3097 1959 3097 
z
M 1959 3584 
Q 2709 3584 3137 3096 
Q 3566 2609 3566 1747 
Q 3566 888 3137 398 
Q 2709 -91 1959 -91 
Q 1206 -91 779 398 
Q 353 888 353 1747 
Q 353 2609 779 3096 
Q 1206 3584 1959 3584 
z
" transform="scale(0.015625)"/>
       <path id="DejaVuSans-6d" d="M 3328 2828 
Q 3544 3216 3844 3400 
Q 4144 3584 4550 3584 
Q 5097 3584 5394 3201 
Q 5691 2819 5691 2113 
L 5691 0 
L 5113 0 
L 5113 2094 
Q 5113 2597 4934 2840 
Q 4756 3084 4391 3084 
Q 3944 3084 3684 2787 
Q 3425 2491 3425 1978 
L 3425 0 
L 2847 0 
L 2847 2094 
Q 2847 2600 2669 2842 
Q 2491 3084 2119 3084 
Q 1678 3084 1418 2786 
Q 1159 2488 1159 1978 
L 1159 0 
L 581 0 
L 581 3500 
L 1159 3500 
L 1159 2956 
Q 1356 3278 1631 3431 
Q 1906 3584 2284 3584 
Q 2666 3584 2933 3390 
Q 3200 3197 3328 2828 
z
" transform="scale(0.015625)"/>
      </defs>
      <use xlink:href="#DejaVuSans-52"/>
      <use xlink:href="#DejaVuSans-61" transform="translate(67.232422 0)"/>
      <use xlink:href="#DejaVuSans-6e" transform="translate(128.511719 0)"/>
      <use xlink:href="#DejaVuSans-64" transform="translate(191.890625 0)"/>
      <use xlink:href="#DejaVuSans-6f" transform="translate(255.367188 0)"/>
      <use xlink:href="#DejaVuSans-6d" transform="translate(316.548828 0)"/>
     </g>
    </g>
   </g>
  </g>
 </g>
 <defs>
  <clipPath id="p11c93a1df3">
   <rect x="47.72" y="10.8" width="661.48" height="379.24"/>
  </clipPath>
 </defs>
</svg>
