<?xml version="1.0" encoding="utf-8" standalone="no"?>
<!DOCTYPE svg PUBLIC "-//W3C//DTD SVG 1.1//EN"
  "http://www.w3.org/Graphics/SVG/1.1/DTD/svg11.dtd">
<svg xmlns:xlink="http://www.w3.org/1999/xlink" width="720pt" height="432pt" viewBox="0 0 720 432" xmlns="http://www.w3.org/2000/svg" version="1.1">
 <metadata>
  <rdf:RDF xmlns:dc="http://purl.org/dc/elements/1.1/" xmlns:cc="http://creativecommons.org/ns#" xmlns:rdf="http://www.w3.org/1999/02/22-rdf-syntax-ns#">
   <cc:Work>
    <dc:type rdf:resource="http://purl.org/dc/dcmitype/StillImage"/>
    <dc:date>2025-04-16T01:29:56.569338</dc:date>
    <dc:format>image/svg+xml</dc:format>
    <dc:creator>
     <cc:Agent>
      <dc:title>Matplotlib v3.10.0, https://matplotlib.org/</dc:title>
     </cc:Agent>
    </dc:creator>
   </cc:Work>
  </rdf:RDF>
 </metadata>
 <defs>
  <style type="text/css">*{stroke-linejoin: round; stroke-linecap: butt}</style>
 </defs>
 <g id="figure_1">
  <g id="patch_1">
   <path d="M 0 432 
L 720 432 
L 720 0 
L 0 0 
z
" style="fill: #ffffff"/>
  </g>
  <g id="axes_1">
   <g id="patch_2">
    <path d="M 50.87 390.04 
L 709.2 390.04 
L 709.2 10.8 
L 50.87 10.8 
z
" style="fill: #ffffff"/>
   </g>
   <g id="FillBetweenPolyCollection_1">
    <defs>
     <path id="m16a1191968" d="M 80.820142 -115.75572 
L 80.820142 -66.904774 
L 87.371959 -61.376912 
L 93.943315 -60.798024 
L 100.234623 -59.953251 
L 106.57152 -69.178387 
L 112.563241 -88.662349 
L 118.730807 -110.615619 
L 124.468532 -192.54079 
L 130.186718 -253.270376 
L 135.729061 -292.505338 
L 140.900177 -339.767636 
L 145.875911 -354.715345 
L 150.714878 -359.975349 
L 155.254258 -365.097368 
L 159.767588 -362.735317 
L 164.111586 -372.635843 
L 168.162511 -380.196894 
L 172.174359 -377.648415 
L 176.264361 -375.174162 
L 180.263184 -381.450457 
L 184.242468 -378.97338 
L 188.208728 -385.246996 
L 192.155449 -382.745399 
L 196.082631 -385.249165 
L 200.009814 -381.489211 
L 203.963048 -382.682404 
L 207.942333 -385.253063 
L 211.863003 -383.969045 
L 215.764135 -382.746837 
L 219.691317 -386.507854 
L 223.625013 -385.219375 
L 227.53917 -387.759664 
L 231.466353 -382.748484 
L 235.360972 -386.507333 
L 239.301181 -386.473582 
L 243.228363 -386.504581 
L 247.175084 -385.253918 
L 251.089242 -380.238068 
L 255.022937 -386.506937 
L 258.937095 -386.494637 
L 262.851252 -386.470167 
L 266.765409 -387.760623 
L 270.679566 -386.508813 
L 274.587211 -387.762061 
L 278.494856 -385.256044 
L 282.4025 -387.76302 
L 286.310145 -385.25225 
L 290.217789 -386.501141 
L 294.125434 -387.753743 
L 298.039591 -387.756307 
L 301.947236 -387.756307 
L 305.874419 -385.216481 
L 309.795089 -386.503539 
L 313.709246 -387.760143 
L 317.616891 -386.50775 
L 321.537561 -387.760623 
L 325.458231 -385.250645 
L 329.404952 -386.506582 
L 333.319109 -387.762499 
L 337.226754 -387.762061 
L 341.134398 -386.507124 
L 345.03553 -386.508771 
L 348.930149 -383.998168 
L 352.837794 -386.505373 
L 356.745438 -385.255565 
L 360.633545 -384.002316 
L 364.541189 -387.762541 
L 368.455347 -387.762541 
L 372.362991 -386.492823 
L 376.264123 -386.489967 
L 380.171768 -386.467661 
L 384.222692 -387.744735 
L 388.228028 -387.757746 
L 392.318029 -387.737587 
L 396.414544 -386.504018 
L 400.380803 -387.756787 
L 404.360088 -387.758705 
L 408.280758 -386.492823 
L 412.227479 -387.758225 
L 416.219789 -386.504498 
L 420.173023 -386.507374 
L 424.113231 -387.759143 
L 428.053439 -386.507354 
L 431.987135 -387.758705 
L 435.946881 -386.472185 
L 439.867551 -386.506374 
L 443.794734 -386.508771 
L 447.715404 -386.507771 
L 451.6491 -384.001837 
L 455.563257 -387.761582 
L 459.477414 -387.762541 
L 463.391572 -387.760623 
L 467.33178 -385.255085 
L 471.258963 -386.506374 
L 475.225222 -385.253167 
L 479.152405 -368.96322 
L 482.825591 -279.159772 
L 485.997295 -117.532875 
L 488.791261 -77.059547 
L 491.467998 -59.198182 
L 494.099145 -59.198182 
L 496.769369 -59.198182 
L 499.407029 -59.198182 
L 502.025151 -59.198182 
L 504.643273 -59.198182 
L 507.261395 -59.198182 
L 509.866491 -59.198182 
L 512.471588 -59.198182 
L 515.076684 -59.198182 
L 517.688293 -59.198182 
L 520.293389 -59.198182 
L 522.898486 -59.198182 
L 525.503582 -59.198182 
L 528.115191 -59.198182 
L 530.720288 -59.198182 
L 533.331897 -59.198182 
L 535.936993 -59.198182 
L 538.54209 -59.198182 
L 541.147186 -59.198182 
L 543.752282 -59.198182 
L 546.363891 -59.198182 
L 548.975501 -59.198182 
L 551.580597 -59.198182 
L 554.185693 -59.198182 
L 556.79079 -59.198182 
L 559.395886 -59.198182 
L 562.000983 -59.198182 
L 564.606079 -59.198182 
L 567.250252 -59.198182 
L 569.855348 -59.198182 
L 572.460445 -59.198182 
L 575.065541 -59.198182 
L 577.670637 -59.198182 
L 580.275734 -74.145319 
L 582.88083 -74.575402 
L 585.485926 -76.295553 
L 588.091023 -76.080548 
L 590.696119 -76.295553 
L 593.301216 -76.295553 
L 595.906312 -76.295553 
L 598.511408 -76.295553 
L 601.116505 -76.295553 
L 603.721601 -76.08053 
L 606.326698 -76.295553 
L 608.931794 -76.295553 
L 611.53689 -76.295553 
L 614.141987 -76.295553 
L 616.747083 -76.268286 
L 619.352179 -76.295553 
L 621.957276 -76.295553 
L 624.562372 -76.295553 
L 627.167469 -76.295553 
L 629.772565 -76.295553 
L 632.377661 -76.295553 
L 634.982758 -76.295553 
L 637.587854 -76.295553 
L 640.192951 -76.293323 
L 642.798047 -76.295553 
L 645.409656 -76.08053 
L 648.014752 -76.295553 
L 650.619849 -76.295553 
L 653.224945 -76.295553 
L 655.830042 -76.295553 
L 658.435138 -76.295553 
L 661.040234 -76.08053 
L 663.645331 -76.295553 
L 666.250427 -76.295553 
L 668.855524 -76.295553 
L 671.46062 -76.295553 
L 674.065716 -76.295553 
L 676.670813 -76.080637 
L 679.275909 -76.29497 
L 679.275909 -76.295653 
L 679.275909 -76.295653 
L 676.670813 -77.548176 
L 674.065716 -76.295553 
L 671.46062 -76.295553 
L 668.855524 -76.295553 
L 666.250427 -76.295553 
L 663.645331 -76.295553 
L 661.040234 -77.548802 
L 658.435138 -76.295553 
L 655.830042 -76.295553 
L 653.224945 -76.295553 
L 650.619849 -76.295553 
L 648.014752 -76.295553 
L 645.409656 -77.548802 
L 642.798047 -76.295553 
L 640.192951 -76.295936 
L 637.587854 -76.295553 
L 634.982758 -76.295553 
L 632.377661 -76.295553 
L 629.772565 -76.295553 
L 627.167469 -76.295553 
L 624.562372 -76.295553 
L 621.957276 -76.295553 
L 619.352179 -76.295553 
L 616.747083 -76.300232 
L 614.141987 -76.295553 
L 611.53689 -76.295553 
L 608.931794 -76.295553 
L 606.326698 -76.295553 
L 603.721601 -77.548802 
L 601.116505 -76.295553 
L 598.511408 -76.295553 
L 595.906312 -76.295553 
L 593.301216 -76.295553 
L 590.696119 -76.295553 
L 588.091023 -77.548697 
L 585.485926 -76.295553 
L 582.88083 -86.321331 
L 580.275734 -88.828036 
L 577.670637 -199.113887 
L 575.065541 -278.068051 
L 572.460445 -326.211078 
L 569.855348 -325.691966 
L 567.250252 -326.944465 
L 564.606079 -325.691966 
L 562.000983 -325.691947 
L 559.395886 -324.437923 
L 556.79079 -326.938502 
L 554.185693 -326.938022 
L 551.580597 -326.945214 
L 548.975501 -327.464327 
L 546.363891 -326.944693 
L 543.752282 -327.463847 
L 541.147186 -326.945214 
L 538.54209 -326.944735 
L 535.936993 -326.945214 
L 533.331897 -327.983439 
L 530.720288 -326.944735 
L 528.115191 -324.438718 
L 525.503582 -327.462847 
L 522.898486 -326.940419 
L 520.293389 -326.943776 
L 517.688293 -327.457614 
L 515.076684 -326.932268 
L 512.471588 -327.444189 
L 509.866491 -325.670954 
L 507.261395 -327.980083 
L 504.643273 -326.943776 
L 502.025151 -328.49963 
L 499.407029 -331.401723 
L 496.769369 -335.769646 
L 494.099145 -342.516331 
L 491.467998 -343.55072 
L 488.791261 -358.959011 
L 485.997295 -381.812236 
L 482.825591 -403.961818 
L 479.152405 -390.987858 
L 475.225222 -388.193643 
L 471.258963 -387.978627 
L 467.33178 -388.193314 
L 463.391572 -387.763431 
L 459.477414 -387.763102 
L 455.563257 -387.763267 
L 451.6491 -388.408337 
L 447.715404 -387.978387 
L 443.794734 -387.978215 
L 439.867551 -387.978627 
L 435.946881 -387.984492 
L 431.987135 -387.763761 
L 428.053439 -387.978458 
L 424.113231 -387.763685 
L 420.173023 -387.978455 
L 416.219789 -387.978948 
L 412.227479 -387.763843 
L 408.280758 -387.980951 
L 404.360088 -387.763761 
L 400.380803 -387.76409 
L 396.414544 -387.979031 
L 392.318029 -387.767384 
L 388.228028 -387.763925 
L 384.222692 -387.765227 
L 380.171768 -387.985269 
L 376.264123 -387.981441 
L 372.362991 -387.980951 
L 368.455347 -387.763102 
L 364.541189 -387.763102 
L 360.633545 -388.408255 
L 356.745438 -388.193232 
L 352.837794 -387.978798 
L 348.930149 -388.408967 
L 345.03553 -387.978215 
L 341.134398 -387.978498 
L 337.226754 -387.763185 
L 333.319109 -387.76311 
L 329.404952 -387.978591 
L 325.458231 -388.194076 
L 321.537561 -387.763431 
L 317.616891 -387.978391 
L 313.709246 -387.763514 
L 309.795089 -387.979113 
L 305.874419 -388.199588 
L 301.947236 -387.764172 
L 298.039591 -387.764172 
L 294.125434 -387.764612 
L 290.217789 -387.979524 
L 286.310145 -388.1938 
L 282.4025 -387.76302 
L 278.494856 -388.193149 
L 274.587211 -387.763185 
L 270.679566 -387.978208 
L 266.765409 -387.763431 
L 262.851252 -387.98449 
L 258.937095 -387.98064 
L 255.022937 -387.97853 
L 251.089242 -389.054098 
L 247.175084 -388.193514 
L 243.228363 -387.978934 
L 239.301181 -387.984253 
L 235.360972 -387.978462 
L 231.466353 -388.623379 
L 227.53917 -387.763596 
L 223.625013 -388.199441 
L 219.691317 -387.978373 
L 215.764135 -388.623661 
L 211.863003 -388.413963 
L 207.942333 -388.193661 
L 203.963048 -388.634402 
L 200.009814 -388.839436 
L 196.082631 -388.19433 
L 192.155449 -388.623908 
L 188.208728 -388.194443 
L 184.242468 -389.270614 
L 180.263184 -388.846085 
L 176.264361 -389.922897 
L 172.174359 -389.496459 
L 168.162511 -389.060783 
L 164.111586 -390.356668 
L 159.767588 -390.832363 
L 155.254258 -391.64298 
L 150.714878 -392.516422 
L 145.875911 -391.58103 
L 140.900177 -395.957884 
L 135.729061 -400.402044 
L 130.186718 -396.702884 
L 124.468532 -381.994051 
L 118.730807 -336.201724 
L 112.563241 -272.14218 
L 106.57152 -229.544155 
L 100.234623 -199.221501 
L 93.943315 -157.5647 
L 87.371959 -141.031269 
L 80.820142 -115.75572 
z
" style="stroke: #0000ff; stroke-opacity: 0.2"/>
    </defs>
    <g clip-path="url(#p8ebe864c5b)">
     <use xlink:href="#m16a1191968" x="0" y="432" style="fill: #0000ff; fill-opacity: 0.2; stroke: #0000ff; stroke-opacity: 0.2"/>
    </g>
   </g>
   <g id="FillBetweenPolyCollection_2">
    <defs>
     <path id="m798b6c5732" d="M 80.794091 -111.005107 
L 80.794091 -63.443607 
L 87.306832 -64.929385 
L 94.00193 -62.282807 
L 100.416979 -59.943712 
L 106.942746 -63.616807 
L 113.8202 -62.41252 
L 120.222225 -63.916944 
L 126.747991 -62.113069 
L 133.358423 -62.603018 
L 139.910241 -63.030784 
L 146.436007 -61.792705 
L 152.92921 -66.255318 
L 159.611282 -61.431643 
L 166.319405 -65.420125 
L 172.747481 -63.653182 
L 179.071352 -60.403106 
L 185.818552 -59.441635 
L 192.565751 -62.068618 
L 199.254336 -60.311988 
L 206.079689 -60.822828 
L 212.546841 -62.469477 
L 219.053069 -61.960905 
L 226.028214 -63.3446 
L 232.443264 -59.982311 
L 238.969031 -64.337278 
L 245.774845 -63.436458 
L 252.385277 -62.468671 
L 258.976171 -61.190231 
L 265.658243 -62.01065 
L 272.190522 -62.452007 
L 278.859569 -62.991577 
L 285.359285 -62.506915 
L 292.542838 -63.925652 
L 298.814607 -63.651829 
L 305.509705 -63.291555 
L 311.944293 -63.290311 
L 318.515649 -60.055365 
L 325.197721 -62.799681 
L 331.736513 -62.496658 
L 338.099461 -61.684227 
L 345.165785 -61.963479 
L 351.600373 -65.056238 
L 357.976346 -62.368398 
L 364.677957 -62.129348 
L 371.431669 -62.56252 
L 378.178869 -62.078112 
L 384.724173 -62.057638 
L 391.39322 -61.062148 
L 397.945038 -62.734513 
L 404.3666 -63.503296 
L 411.178927 -62.299386 
L 417.541875 -59.329433 
L 424.022052 -59.209967 
L 431.010224 -60.533076 
L 437.894191 -62.777142 
L 444.537187 -60.95161 
L 451.277873 -61.06993 
L 457.692923 -61.450089 
L 464.166588 -63.199658 
L 470.829122 -59.450448 
L 477.537245 -63.379385 
L 484.310496 -63.205893 
L 490.999081 -61.864258 
L 497.570436 -63.333608 
L 503.822668 -60.47144 
L 510.276794 -65.017069 
L 516.984917 -62.74306 
L 523.719091 -62.079507 
L 530.212294 -60.890074 
L 537.063697 -61.014779 
L 543.524336 -62.624098 
L 550.545071 -62.65972 
L 556.908019 -61.360909 
L 563.466349 -61.928745 
L 570.09632 -62.888963 
L 577.071465 -61.202231 
L 583.701435 -63.956288 
L 590.513762 -60.931753 
L 597.241424 -61.08678 
L 604.138417 -62.645123 
L 610.683721 -61.339525 
L 617.469997 -61.023702 
L 624.028327 -62.462935 
L 630.677836 -59.912483 
L 637.398985 -62.315329 
L 643.807522 -61.970226 
L 650.359339 -61.530801 
L 656.950233 -60.941324 
L 663.632305 -62.521442 
L 670.184123 -60.239719 
L 676.494969 -63.654785 
L 676.494969 -117.227876 
L 676.494969 -117.227876 
L 670.184123 -129.998036 
L 663.632305 -136.493533 
L 656.950233 -126.36437 
L 650.359339 -124.160728 
L 643.807522 -131.665969 
L 637.398985 -133.376401 
L 630.677836 -139.563413 
L 624.028327 -124.760156 
L 617.469997 -127.888747 
L 610.683721 -127.915546 
L 604.138417 -122.294969 
L 597.241424 -125.120986 
L 590.513762 -138.094914 
L 583.701435 -116.187334 
L 577.071465 -141.130653 
L 570.09632 -119.266019 
L 563.466349 -131.668039 
L 556.908019 -128.254226 
L 550.545071 -129.239174 
L 543.524336 -123.705733 
L 537.063697 -126.338339 
L 530.212294 -138.20804 
L 523.719091 -121.812118 
L 516.984917 -137.332677 
L 510.276794 -124.279951 
L 503.822668 -132.835224 
L 497.570436 -127.314345 
L 490.999081 -127.159998 
L 484.310496 -119.696952 
L 477.537245 -127.259848 
L 470.829122 -136.765256 
L 464.166588 -116.702995 
L 457.692923 -131.127605 
L 451.277873 -127.695827 
L 444.537187 -128.031008 
L 437.894191 -120.600336 
L 431.010224 -132.965459 
L 424.022052 -131.891171 
L 417.541875 -136.465779 
L 411.178927 -120.767231 
L 404.3666 -114.265174 
L 397.945038 -126.608082 
L 391.39322 -129.04736 
L 384.724173 -125.702207 
L 378.178869 -122.998655 
L 371.431669 -120.806478 
L 364.677957 -120.05615 
L 357.976346 -117.475451 
L 351.600373 -118.538048 
L 345.165785 -125.620505 
L 338.099461 -131.488594 
L 331.736513 -115.872914 
L 325.197721 -127.957921 
L 318.515649 -132.661854 
L 311.944293 -115.537488 
L 305.509705 -122.785426 
L 298.814607 -121.561734 
L 292.542838 -119.113954 
L 285.359285 -124.751149 
L 278.859569 -118.308035 
L 272.190522 -121.78742 
L 265.658243 -125.820935 
L 258.976171 -120.796212 
L 252.385277 -124.789444 
L 245.774845 -114.271308 
L 238.969031 -122.52252 
L 232.443264 -138.578496 
L 226.028214 -119.796797 
L 219.053069 -121.047909 
L 212.546841 -124.723409 
L 206.079689 -132.37702 
L 199.254336 -134.470732 
L 192.565751 -128.792241 
L 185.818552 -130.684728 
L 179.071352 -130.251273 
L 172.747481 -120.413372 
L 166.319405 -117.280608 
L 159.611282 -135.756764 
L 152.92921 -120.204523 
L 146.436007 -136.063 
L 139.910241 -110.42288 
L 133.358423 -119.556437 
L 126.747991 -115.808534 
L 120.222225 -104.665765 
L 113.8202 -120.316156 
L 106.942746 -120.333865 
L 100.416979 -129.719054 
L 94.00193 -125.952 
L 87.306832 -105.521911 
L 80.794091 -111.005107 
z
" style="stroke: #ffa500; stroke-opacity: 0.2"/>
    </defs>
    <g clip-path="url(#p8ebe864c5b)">
     <use xlink:href="#m798b6c5732" x="0" y="432" style="fill: #ffa500; fill-opacity: 0.2; stroke: #ffa500; stroke-opacity: 0.2"/>
    </g>
   </g>
   <g id="matplotlib.axis_1">
    <g id="xtick_1">
     <g id="line2d_1">
      <path d="M 77.609361 390.04 
L 77.609361 10.8 
" clip-path="url(#p8ebe864c5b)" style="fill: none; stroke: #b0b0b0; stroke-width: 0.8; stroke-linecap: square"/>
     </g>
     <g id="line2d_2">
      <defs>
       <path id="mf50413672a" d="M 0 0 
L 0 3.5 
" style="stroke: #000000; stroke-width: 0.8"/>
      </defs>
      <g>
       <use xlink:href="#mf50413672a" x="77.609361" y="390.04" style="stroke: #000000; stroke-width: 0.8"/>
      </g>
     </g>
     <g id="text_1">
      <!-- 0 -->
      <g transform="translate(74.428111 404.638438) scale(0.1 -0.1)">
       <defs>
        <path id="DejaVuSans-30" d="M 2034 4250 
Q 1547 4250 1301 3770 
Q 1056 3291 1056 2328 
Q 1056 1369 1301 889 
Q 1547 409 2034 409 
Q 2525 409 2770 889 
Q 3016 1369 3016 2328 
Q 3016 3291 2770 3770 
Q 2525 4250 2034 4250 
z
M 2034 4750 
Q 2819 4750 3233 4129 
Q 3647 3509 3647 2328 
Q 3647 1150 3233 529 
Q 2819 -91 2034 -91 
Q 1250 -91 836 529 
Q 422 1150 422 2328 
Q 422 3509 836 4129 
Q 1250 4750 2034 4750 
z
" transform="scale(0.015625)"/>
       </defs>
       <use xlink:href="#DejaVuSans-30"/>
      </g>
     </g>
    </g>
    <g id="xtick_2">
     <g id="line2d_3">
      <path d="M 207.86418 390.04 
L 207.86418 10.8 
" clip-path="url(#p8ebe864c5b)" style="fill: none; stroke: #b0b0b0; stroke-width: 0.8; stroke-linecap: square"/>
     </g>
     <g id="line2d_4">
      <g>
       <use xlink:href="#mf50413672a" x="207.86418" y="390.04" style="stroke: #000000; stroke-width: 0.8"/>
      </g>
     </g>
     <g id="text_2">
      <!-- 20000 -->
      <g transform="translate(191.95793 404.638438) scale(0.1 -0.1)">
       <defs>
        <path id="DejaVuSans-32" d="M 1228 531 
L 3431 531 
L 3431 0 
L 469 0 
L 469 531 
Q 828 903 1448 1529 
Q 2069 2156 2228 2338 
Q 2531 2678 2651 2914 
Q 2772 3150 2772 3378 
Q 2772 3750 2511 3984 
Q 2250 4219 1831 4219 
Q 1534 4219 1204 4116 
Q 875 4013 500 3803 
L 500 4441 
Q 881 4594 1212 4672 
Q 1544 4750 1819 4750 
Q 2544 4750 2975 4387 
Q 3406 4025 3406 3419 
Q 3406 3131 3298 2873 
Q 3191 2616 2906 2266 
Q 2828 2175 2409 1742 
Q 1991 1309 1228 531 
z
" transform="scale(0.015625)"/>
       </defs>
       <use xlink:href="#DejaVuSans-32"/>
       <use xlink:href="#DejaVuSans-30" transform="translate(63.623047 0)"/>
       <use xlink:href="#DejaVuSans-30" transform="translate(127.246094 0)"/>
       <use xlink:href="#DejaVuSans-30" transform="translate(190.869141 0)"/>
       <use xlink:href="#DejaVuSans-30" transform="translate(254.492188 0)"/>
      </g>
     </g>
    </g>
    <g id="xtick_3">
     <g id="line2d_5">
      <path d="M 338.118999 390.04 
L 338.118999 10.8 
" clip-path="url(#p8ebe864c5b)" style="fill: none; stroke: #b0b0b0; stroke-width: 0.8; stroke-linecap: square"/>
     </g>
     <g id="line2d_6">
      <g>
       <use xlink:href="#mf50413672a" x="338.118999" y="390.04" style="stroke: #000000; stroke-width: 0.8"/>
      </g>
     </g>
     <g id="text_3">
      <!-- 40000 -->
      <g transform="translate(322.212749 404.638438) scale(0.1 -0.1)">
       <defs>
        <path id="DejaVuSans-34" d="M 2419 4116 
L 825 1625 
L 2419 1625 
L 2419 4116 
z
M 2253 4666 
L 3047 4666 
L 3047 1625 
L 3713 1625 
L 3713 1100 
L 3047 1100 
L 3047 0 
L 2419 0 
L 2419 1100 
L 313 1100 
L 313 1709 
L 2253 4666 
z
" transform="scale(0.015625)"/>
       </defs>
       <use xlink:href="#DejaVuSans-34"/>
       <use xlink:href="#DejaVuSans-30" transform="translate(63.623047 0)"/>
       <use xlink:href="#DejaVuSans-30" transform="translate(127.246094 0)"/>
       <use xlink:href="#DejaVuSans-30" transform="translate(190.869141 0)"/>
       <use xlink:href="#DejaVuSans-30" transform="translate(254.492188 0)"/>
      </g>
     </g>
    </g>
    <g id="xtick_4">
     <g id="line2d_7">
      <path d="M 468.373818 390.04 
L 468.373818 10.8 
" clip-path="url(#p8ebe864c5b)" style="fill: none; stroke: #b0b0b0; stroke-width: 0.8; stroke-linecap: square"/>
     </g>
     <g id="line2d_8">
      <g>
       <use xlink:href="#mf50413672a" x="468.373818" y="390.04" style="stroke: #000000; stroke-width: 0.8"/>
      </g>
     </g>
     <g id="text_4">
      <!-- 60000 -->
      <g transform="translate(452.467568 404.638438) scale(0.1 -0.1)">
       <defs>
        <path id="DejaVuSans-36" d="M 2113 2584 
Q 1688 2584 1439 2293 
Q 1191 2003 1191 1497 
Q 1191 994 1439 701 
Q 1688 409 2113 409 
Q 2538 409 2786 701 
Q 3034 994 3034 1497 
Q 3034 2003 2786 2293 
Q 2538 2584 2113 2584 
z
M 3366 4563 
L 3366 3988 
Q 3128 4100 2886 4159 
Q 2644 4219 2406 4219 
Q 1781 4219 1451 3797 
Q 1122 3375 1075 2522 
Q 1259 2794 1537 2939 
Q 1816 3084 2150 3084 
Q 2853 3084 3261 2657 
Q 3669 2231 3669 1497 
Q 3669 778 3244 343 
Q 2819 -91 2113 -91 
Q 1303 -91 875 529 
Q 447 1150 447 2328 
Q 447 3434 972 4092 
Q 1497 4750 2381 4750 
Q 2619 4750 2861 4703 
Q 3103 4656 3366 4563 
z
" transform="scale(0.015625)"/>
       </defs>
       <use xlink:href="#DejaVuSans-36"/>
       <use xlink:href="#DejaVuSans-30" transform="translate(63.623047 0)"/>
       <use xlink:href="#DejaVuSans-30" transform="translate(127.246094 0)"/>
       <use xlink:href="#DejaVuSans-30" transform="translate(190.869141 0)"/>
       <use xlink:href="#DejaVuSans-30" transform="translate(254.492188 0)"/>
      </g>
     </g>
    </g>
    <g id="xtick_5">
     <g id="line2d_9">
      <path d="M 598.628638 390.04 
L 598.628638 10.8 
" clip-path="url(#p8ebe864c5b)" style="fill: none; stroke: #b0b0b0; stroke-width: 0.8; stroke-linecap: square"/>
     </g>
     <g id="line2d_10">
      <g>
       <use xlink:href="#mf50413672a" x="598.628638" y="390.04" style="stroke: #000000; stroke-width: 0.8"/>
      </g>
     </g>
     <g id="text_5">
      <!-- 80000 -->
      <g transform="translate(582.722388 404.638438) scale(0.1 -0.1)">
       <defs>
        <path id="DejaVuSans-38" d="M 2034 2216 
Q 1584 2216 1326 1975 
Q 1069 1734 1069 1313 
Q 1069 891 1326 650 
Q 1584 409 2034 409 
Q 2484 409 2743 651 
Q 3003 894 3003 1313 
Q 3003 1734 2745 1975 
Q 2488 2216 2034 2216 
z
M 1403 2484 
Q 997 2584 770 2862 
Q 544 3141 544 3541 
Q 544 4100 942 4425 
Q 1341 4750 2034 4750 
Q 2731 4750 3128 4425 
Q 3525 4100 3525 3541 
Q 3525 3141 3298 2862 
Q 3072 2584 2669 2484 
Q 3125 2378 3379 2068 
Q 3634 1759 3634 1313 
Q 3634 634 3220 271 
Q 2806 -91 2034 -91 
Q 1263 -91 848 271 
Q 434 634 434 1313 
Q 434 1759 690 2068 
Q 947 2378 1403 2484 
z
M 1172 3481 
Q 1172 3119 1398 2916 
Q 1625 2713 2034 2713 
Q 2441 2713 2670 2916 
Q 2900 3119 2900 3481 
Q 2900 3844 2670 4047 
Q 2441 4250 2034 4250 
Q 1625 4250 1398 4047 
Q 1172 3844 1172 3481 
z
" transform="scale(0.015625)"/>
       </defs>
       <use xlink:href="#DejaVuSans-38"/>
       <use xlink:href="#DejaVuSans-30" transform="translate(63.623047 0)"/>
       <use xlink:href="#DejaVuSans-30" transform="translate(127.246094 0)"/>
       <use xlink:href="#DejaVuSans-30" transform="translate(190.869141 0)"/>
       <use xlink:href="#DejaVuSans-30" transform="translate(254.492188 0)"/>
      </g>
     </g>
    </g>
    <g id="text_6">
     <!-- Steps -->
     <g transform="translate(366.045156 418.316562) scale(0.1 -0.1)">
      <defs>
       <path id="DejaVuSans-53" d="M 3425 4513 
L 3425 3897 
Q 3066 4069 2747 4153 
Q 2428 4238 2131 4238 
Q 1616 4238 1336 4038 
Q 1056 3838 1056 3469 
Q 1056 3159 1242 3001 
Q 1428 2844 1947 2747 
L 2328 2669 
Q 3034 2534 3370 2195 
Q 3706 1856 3706 1288 
Q 3706 609 3251 259 
Q 2797 -91 1919 -91 
Q 1588 -91 1214 -16 
Q 841 59 441 206 
L 441 856 
Q 825 641 1194 531 
Q 1563 422 1919 422 
Q 2459 422 2753 634 
Q 3047 847 3047 1241 
Q 3047 1584 2836 1778 
Q 2625 1972 2144 2069 
L 1759 2144 
Q 1053 2284 737 2584 
Q 422 2884 422 3419 
Q 422 4038 858 4394 
Q 1294 4750 2059 4750 
Q 2388 4750 2728 4690 
Q 3069 4631 3425 4513 
z
" transform="scale(0.015625)"/>
       <path id="DejaVuSans-74" d="M 1172 4494 
L 1172 3500 
L 2356 3500 
L 2356 3053 
L 1172 3053 
L 1172 1153 
Q 1172 725 1289 603 
Q 1406 481 1766 481 
L 2356 481 
L 2356 0 
L 1766 0 
Q 1100 0 847 248 
Q 594 497 594 1153 
L 594 3053 
L 172 3053 
L 172 3500 
L 594 3500 
L 594 4494 
L 1172 4494 
z
" transform="scale(0.015625)"/>
       <path id="DejaVuSans-65" d="M 3597 1894 
L 3597 1613 
L 953 1613 
Q 991 1019 1311 708 
Q 1631 397 2203 397 
Q 2534 397 2845 478 
Q 3156 559 3463 722 
L 3463 178 
Q 3153 47 2828 -22 
Q 2503 -91 2169 -91 
Q 1331 -91 842 396 
Q 353 884 353 1716 
Q 353 2575 817 3079 
Q 1281 3584 2069 3584 
Q 2775 3584 3186 3129 
Q 3597 2675 3597 1894 
z
M 3022 2063 
Q 3016 2534 2758 2815 
Q 2500 3097 2075 3097 
Q 1594 3097 1305 2825 
Q 1016 2553 972 2059 
L 3022 2063 
z
" transform="scale(0.015625)"/>
       <path id="DejaVuSans-70" d="M 1159 525 
L 1159 -1331 
L 581 -1331 
L 581 3500 
L 1159 3500 
L 1159 2969 
Q 1341 3281 1617 3432 
Q 1894 3584 2278 3584 
Q 2916 3584 3314 3078 
Q 3713 2572 3713 1747 
Q 3713 922 3314 415 
Q 2916 -91 2278 -91 
Q 1894 -91 1617 61 
Q 1341 213 1159 525 
z
M 3116 1747 
Q 3116 2381 2855 2742 
Q 2594 3103 2138 3103 
Q 1681 3103 1420 2742 
Q 1159 2381 1159 1747 
Q 1159 1113 1420 752 
Q 1681 391 2138 391 
Q 2594 391 2855 752 
Q 3116 1113 3116 1747 
z
" transform="scale(0.015625)"/>
       <path id="DejaVuSans-73" d="M 2834 3397 
L 2834 2853 
Q 2591 2978 2328 3040 
Q 2066 3103 1784 3103 
Q 1356 3103 1142 2972 
Q 928 2841 928 2578 
Q 928 2378 1081 2264 
Q 1234 2150 1697 2047 
L 1894 2003 
Q 2506 1872 2764 1633 
Q 3022 1394 3022 966 
Q 3022 478 2636 193 
Q 2250 -91 1575 -91 
Q 1294 -91 989 -36 
Q 684 19 347 128 
L 347 722 
Q 666 556 975 473 
Q 1284 391 1588 391 
Q 1994 391 2212 530 
Q 2431 669 2431 922 
Q 2431 1156 2273 1281 
Q 2116 1406 1581 1522 
L 1381 1569 
Q 847 1681 609 1914 
Q 372 2147 372 2553 
Q 372 3047 722 3315 
Q 1072 3584 1716 3584 
Q 2034 3584 2315 3537 
Q 2597 3491 2834 3397 
z
" transform="scale(0.015625)"/>
      </defs>
      <use xlink:href="#DejaVuSans-53"/>
      <use xlink:href="#DejaVuSans-74" transform="translate(63.476562 0)"/>
      <use xlink:href="#DejaVuSans-65" transform="translate(102.685547 0)"/>
      <use xlink:href="#DejaVuSans-70" transform="translate(164.208984 0)"/>
      <use xlink:href="#DejaVuSans-73" transform="translate(227.685547 0)"/>
     </g>
    </g>
   </g>
   <g id="matplotlib.axis_2">
    <g id="ytick_1">
     <g id="line2d_11">
      <path d="M 50.87 372.801818 
L 709.2 372.801818 
" clip-path="url(#p8ebe864c5b)" style="fill: none; stroke: #b0b0b0; stroke-width: 0.8; stroke-linecap: square"/>
     </g>
     <g id="line2d_12">
      <defs>
       <path id="m4369eca4b9" d="M 0 0 
L -3.5 0 
" style="stroke: #000000; stroke-width: 0.8"/>
      </defs>
      <g>
       <use xlink:href="#m4369eca4b9" x="50.87" y="372.801818" style="stroke: #000000; stroke-width: 0.8"/>
      </g>
     </g>
     <g id="text_7">
      <!-- 0 -->
      <g transform="translate(37.5075 376.601037) scale(0.1 -0.1)">
       <use xlink:href="#DejaVuSans-30"/>
      </g>
     </g>
    </g>
    <g id="ytick_2">
     <g id="line2d_13">
      <path d="M 50.87 310.629561 
L 709.2 310.629561 
" clip-path="url(#p8ebe864c5b)" style="fill: none; stroke: #b0b0b0; stroke-width: 0.8; stroke-linecap: square"/>
     </g>
     <g id="line2d_14">
      <g>
       <use xlink:href="#m4369eca4b9" x="50.87" y="310.629561" style="stroke: #000000; stroke-width: 0.8"/>
      </g>
     </g>
     <g id="text_8">
      <!-- 20 -->
      <g transform="translate(31.145 314.428779) scale(0.1 -0.1)">
       <use xlink:href="#DejaVuSans-32"/>
       <use xlink:href="#DejaVuSans-30" transform="translate(63.623047 0)"/>
      </g>
     </g>
    </g>
    <g id="ytick_3">
     <g id="line2d_15">
      <path d="M 50.87 248.457303 
L 709.2 248.457303 
" clip-path="url(#p8ebe864c5b)" style="fill: none; stroke: #b0b0b0; stroke-width: 0.8; stroke-linecap: square"/>
     </g>
     <g id="line2d_16">
      <g>
       <use xlink:href="#m4369eca4b9" x="50.87" y="248.457303" style="stroke: #000000; stroke-width: 0.8"/>
      </g>
     </g>
     <g id="text_9">
      <!-- 40 -->
      <g transform="translate(31.145 252.256522) scale(0.1 -0.1)">
       <use xlink:href="#DejaVuSans-34"/>
       <use xlink:href="#DejaVuSans-30" transform="translate(63.623047 0)"/>
      </g>
     </g>
    </g>
    <g id="ytick_4">
     <g id="line2d_17">
      <path d="M 50.87 186.285045 
L 709.2 186.285045 
" clip-path="url(#p8ebe864c5b)" style="fill: none; stroke: #b0b0b0; stroke-width: 0.8; stroke-linecap: square"/>
     </g>
     <g id="line2d_18">
      <g>
       <use xlink:href="#m4369eca4b9" x="50.87" y="186.285045" style="stroke: #000000; stroke-width: 0.8"/>
      </g>
     </g>
     <g id="text_10">
      <!-- 60 -->
      <g transform="translate(31.145 190.084264) scale(0.1 -0.1)">
       <use xlink:href="#DejaVuSans-36"/>
       <use xlink:href="#DejaVuSans-30" transform="translate(63.623047 0)"/>
      </g>
     </g>
    </g>
    <g id="ytick_5">
     <g id="line2d_19">
      <path d="M 50.87 124.112788 
L 709.2 124.112788 
" clip-path="url(#p8ebe864c5b)" style="fill: none; stroke: #b0b0b0; stroke-width: 0.8; stroke-linecap: square"/>
     </g>
     <g id="line2d_20">
      <g>
       <use xlink:href="#m4369eca4b9" x="50.87" y="124.112788" style="stroke: #000000; stroke-width: 0.8"/>
      </g>
     </g>
     <g id="text_11">
      <!-- 80 -->
      <g transform="translate(31.145 127.912007) scale(0.1 -0.1)">
       <use xlink:href="#DejaVuSans-38"/>
       <use xlink:href="#DejaVuSans-30" transform="translate(63.623047 0)"/>
      </g>
     </g>
    </g>
    <g id="ytick_6">
     <g id="line2d_21">
      <path d="M 50.87 61.94053 
L 709.2 61.94053 
" clip-path="url(#p8ebe864c5b)" style="fill: none; stroke: #b0b0b0; stroke-width: 0.8; stroke-linecap: square"/>
     </g>
     <g id="line2d_22">
      <g>
       <use xlink:href="#m4369eca4b9" x="50.87" y="61.94053" style="stroke: #000000; stroke-width: 0.8"/>
      </g>
     </g>
     <g id="text_12">
      <!-- 100 -->
      <g transform="translate(24.7825 65.739749) scale(0.1 -0.1)">
       <defs>
        <path id="DejaVuSans-31" d="M 794 531 
L 1825 531 
L 1825 4091 
L 703 3866 
L 703 4441 
L 1819 4666 
L 2450 4666 
L 2450 531 
L 3481 531 
L 3481 0 
L 794 0 
L 794 531 
z
" transform="scale(0.015625)"/>
       </defs>
       <use xlink:href="#DejaVuSans-31"/>
       <use xlink:href="#DejaVuSans-30" transform="translate(63.623047 0)"/>
       <use xlink:href="#DejaVuSans-30" transform="translate(127.246094 0)"/>
      </g>
     </g>
    </g>
    <g id="text_13">
     <!-- Reward -->
     <g transform="translate(18.702813 219.041094) rotate(-90) scale(0.1 -0.1)">
      <defs>
       <path id="DejaVuSans-52" d="M 2841 2188 
Q 3044 2119 3236 1894 
Q 3428 1669 3622 1275 
L 4263 0 
L 3584 0 
L 2988 1197 
Q 2756 1666 2539 1819 
Q 2322 1972 1947 1972 
L 1259 1972 
L 1259 0 
L 628 0 
L 628 4666 
L 2053 4666 
Q 2853 4666 3247 4331 
Q 3641 3997 3641 3322 
Q 3641 2881 3436 2590 
Q 3231 2300 2841 2188 
z
M 1259 4147 
L 1259 2491 
L 2053 2491 
Q 2509 2491 2742 2702 
Q 2975 2913 2975 3322 
Q 2975 3731 2742 3939 
Q 2509 4147 2053 4147 
L 1259 4147 
z
" transform="scale(0.015625)"/>
       <path id="DejaVuSans-77" d="M 269 3500 
L 844 3500 
L 1563 769 
L 2278 3500 
L 2956 3500 
L 3675 769 
L 4391 3500 
L 4966 3500 
L 4050 0 
L 3372 0 
L 2619 2869 
L 1863 0 
L 1184 0 
L 269 3500 
z
" transform="scale(0.015625)"/>
       <path id="DejaVuSans-61" d="M 2194 1759 
Q 1497 1759 1228 1600 
Q 959 1441 959 1056 
Q 959 750 1161 570 
Q 1363 391 1709 391 
Q 2188 391 2477 730 
Q 2766 1069 2766 1631 
L 2766 1759 
L 2194 1759 
z
M 3341 1997 
L 3341 0 
L 2766 0 
L 2766 531 
Q 2569 213 2275 61 
Q 1981 -91 1556 -91 
Q 1019 -91 701 211 
Q 384 513 384 1019 
Q 384 1609 779 1909 
Q 1175 2209 1959 2209 
L 2766 2209 
L 2766 2266 
Q 2766 2663 2505 2880 
Q 2244 3097 1772 3097 
Q 1472 3097 1187 3025 
Q 903 2953 641 2809 
L 641 3341 
Q 956 3463 1253 3523 
Q 1550 3584 1831 3584 
Q 2591 3584 2966 3190 
Q 3341 2797 3341 1997 
z
" transform="scale(0.015625)"/>
       <path id="DejaVuSans-72" d="M 2631 2963 
Q 2534 3019 2420 3045 
Q 2306 3072 2169 3072 
Q 1681 3072 1420 2755 
Q 1159 2438 1159 1844 
L 1159 0 
L 581 0 
L 581 3500 
L 1159 3500 
L 1159 2956 
Q 1341 3275 1631 3429 
Q 1922 3584 2338 3584 
Q 2397 3584 2469 3576 
Q 2541 3569 2628 3553 
L 2631 2963 
z
" transform="scale(0.015625)"/>
       <path id="DejaVuSans-64" d="M 2906 2969 
L 2906 4863 
L 3481 4863 
L 3481 0 
L 2906 0 
L 2906 525 
Q 2725 213 2448 61 
Q 2172 -91 1784 -91 
Q 1150 -91 751 415 
Q 353 922 353 1747 
Q 353 2572 751 3078 
Q 1150 3584 1784 3584 
Q 2172 3584 2448 3432 
Q 2725 3281 2906 2969 
z
M 947 1747 
Q 947 1113 1208 752 
Q 1469 391 1925 391 
Q 2381 391 2643 752 
Q 2906 1113 2906 1747 
Q 2906 2381 2643 2742 
Q 2381 3103 1925 3103 
Q 1469 3103 1208 2742 
Q 947 2381 947 1747 
z
" transform="scale(0.015625)"/>
      </defs>
      <use xlink:href="#DejaVuSans-52"/>
      <use xlink:href="#DejaVuSans-65" transform="translate(64.982422 0)"/>
      <use xlink:href="#DejaVuSans-77" transform="translate(126.505859 0)"/>
      <use xlink:href="#DejaVuSans-61" transform="translate(208.292969 0)"/>
      <use xlink:href="#DejaVuSans-72" transform="translate(269.572266 0)"/>
      <use xlink:href="#DejaVuSans-64" transform="translate(308.935547 0)"/>
     </g>
    </g>
   </g>
   <g id="line2d_23">
    <path d="M 80.820142 340.669753 
L 87.371959 330.795909 
L 93.943315 322.818638 
L 100.234623 302.412624 
L 106.57152 282.638729 
L 112.563241 251.597736 
L 118.730807 208.591329 
L 124.468532 144.732579 
L 130.186718 107.01337 
L 135.729061 85.546309 
L 140.900177 64.13724 
L 145.875911 58.851812 
L 150.714878 55.754114 
L 155.254258 53.629826 
L 159.767588 55.21616 
L 164.111586 50.503745 
L 168.162511 47.371161 
L 176.264361 49.451471 
L 180.263184 46.851729 
L 184.242468 47.878003 
L 188.208728 45.27928 
L 192.155449 46.315347 
L 196.082631 45.278253 
L 200.009814 46.835677 
L 203.963048 46.341597 
L 207.942333 45.276638 
L 215.764135 46.314751 
L 219.691317 44.756887 
L 223.625013 45.290592 
L 227.53917 44.23837 
L 231.466353 46.314069 
L 235.360972 44.757103 
L 243.228363 44.758242 
L 247.175084 45.276284 
L 251.089242 47.353917 
L 255.022937 44.757267 
L 262.851252 44.772672 
L 266.765409 44.237973 
L 270.679566 44.756489 
L 274.587211 44.237377 
L 278.494856 45.275403 
L 282.4025 44.23698 
L 286.310145 45.276975 
L 294.125434 44.240822 
L 301.947236 44.23976 
L 305.874419 45.291965 
L 313.709246 44.238171 
L 317.616891 44.75693 
L 321.537561 44.237973 
L 325.458231 45.27764 
L 333.319109 44.237196 
L 337.226754 44.237377 
L 341.134398 44.757189 
L 345.03553 44.756507 
L 348.930149 45.796433 
L 352.837794 44.757914 
L 360.633545 45.794714 
L 364.541189 44.237178 
L 368.455347 44.237178 
L 372.362991 44.763113 
L 380.171768 44.773535 
L 384.222692 44.245019 
L 392.318029 44.247515 
L 396.414544 44.758476 
L 400.380803 44.239562 
L 404.360088 44.238767 
L 408.280758 44.763113 
L 412.227479 44.238966 
L 416.219789 44.758277 
L 420.173023 44.757085 
L 424.113231 44.238586 
L 428.053439 44.757094 
L 431.987135 44.238767 
L 435.946881 44.771661 
L 447.715404 44.756921 
L 451.6491 45.794913 
L 455.563257 44.237576 
L 463.391572 44.237973 
L 467.33178 45.275801 
L 471.258963 44.7575 
L 475.225222 45.276595 
L 479.152405 52.024461 
L 482.825591 90.439205 
L 485.997295 182.327444 
L 488.791261 213.990721 
L 491.467998 235.272941 
L 494.099145 236.309577 
L 496.769369 243.057245 
L 502.025151 250.325838 
L 504.643273 251.882554 
L 507.261395 250.845123 
L 509.866491 252.415439 
L 512.471588 251.371187 
L 515.076684 251.88732 
L 517.688293 251.365626 
L 520.293389 251.882554 
L 522.898486 251.883944 
L 525.503582 251.363458 
L 528.115191 252.920183 
L 533.331897 250.843733 
L 535.936993 251.881958 
L 541.147186 251.881958 
L 543.752282 251.363044 
L 546.363891 251.882174 
L 548.975501 251.362845 
L 551.580597 251.881958 
L 556.79079 251.884738 
L 559.395886 252.92646 
L 562.000983 252.406743 
L 564.606079 252.40107 
L 567.250252 251.88308 
L 569.855348 252.40107 
L 572.460445 251.881958 
L 575.065541 272.127542 
L 577.670637 304.831427 
L 580.275734 350.513322 
L 582.88083 351.551634 
L 585.485926 355.704447 
L 588.091023 355.185378 
L 590.696119 355.704447 
L 601.116505 355.704447 
L 603.721601 355.185334 
L 606.326698 355.704447 
L 642.798047 355.704447 
L 645.409656 355.185334 
L 648.014752 355.704447 
L 658.435138 355.704447 
L 661.040234 355.185334 
L 663.645331 355.704447 
L 674.065716 355.704447 
L 676.670813 355.185593 
L 679.275909 355.704689 
L 679.275909 355.704689 
" clip-path="url(#p8ebe864c5b)" style="fill: none; stroke: #0000ff; stroke-width: 1.5; stroke-linecap: square"/>
   </g>
   <g id="line2d_24">
    <path d="M 80.794091 344.775643 
L 87.306832 346.774352 
L 94.00193 337.882597 
L 100.416979 337.168617 
L 106.942746 340.024664 
L 113.8202 340.635662 
L 120.222225 347.708646 
L 126.747991 343.039198 
L 133.358423 340.920273 
L 139.910241 345.273168 
L 146.436007 333.072148 
L 152.92921 338.77008 
L 159.611282 333.405797 
L 166.319405 340.649633 
L 172.747481 339.966723 
L 179.071352 336.672811 
L 185.818552 336.936818 
L 192.565751 336.56957 
L 199.254336 334.60864 
L 206.079689 335.400076 
L 212.546841 338.403557 
L 219.053069 340.495593 
L 226.028214 340.429302 
L 232.443264 332.719597 
L 238.969031 338.570101 
L 245.774845 343.146117 
L 252.385277 338.370942 
L 258.976171 341.006779 
L 265.658243 338.084208 
L 272.190522 339.880286 
L 278.859569 341.350194 
L 285.359285 338.370968 
L 292.542838 340.480197 
L 298.814607 339.393218 
L 305.509705 338.96151 
L 311.944293 342.586101 
L 318.515649 335.64139 
L 325.197721 336.621199 
L 331.736513 342.815214 
L 338.099461 335.41359 
L 345.165785 338.208008 
L 351.600373 340.202857 
L 357.976346 342.078076 
L 364.677957 340.907251 
L 371.431669 340.315501 
L 378.178869 339.461617 
L 384.724173 338.120077 
L 391.39322 336.945246 
L 397.945038 337.328702 
L 404.3666 343.115765 
L 411.178927 340.466692 
L 417.541875 334.102394 
L 424.022052 336.449431 
L 431.010224 335.250733 
L 437.894191 340.311261 
L 444.537187 337.508691 
L 451.277873 337.617121 
L 457.692923 335.711153 
L 464.166588 342.048673 
L 470.829122 333.892148 
L 477.537245 336.680384 
L 484.310496 340.548578 
L 490.999081 337.487872 
L 497.570436 336.676023 
L 503.822668 335.346668 
L 510.276794 337.35149 
L 516.984917 331.962131 
L 523.719091 340.054187 
L 530.212294 332.450943 
L 537.063697 338.323441 
L 543.524336 338.835084 
L 550.545071 336.050553 
L 556.908019 337.192433 
L 563.466349 335.201608 
L 570.09632 340.922509 
L 577.071465 330.833558 
L 583.701435 341.928189 
L 590.513762 332.486666 
L 597.241424 338.896117 
L 604.138417 339.529954 
L 610.683721 337.372465 
L 617.469997 337.543775 
L 624.028327 338.388454 
L 630.677836 332.262052 
L 637.398985 334.154135 
L 643.807522 335.181903 
L 650.359339 339.154235 
L 656.950233 338.347153 
L 663.632305 332.492512 
L 670.184123 336.881123 
L 676.494969 341.55867 
" clip-path="url(#p8ebe864c5b)" style="fill: none; stroke: #ffa500; stroke-width: 1.5; stroke-linecap: square"/>
   </g>
   <g id="patch_3">
    <path d="M 50.87 390.04 
L 50.87 10.8 
" style="fill: none; stroke: #000000; stroke-width: 0.8; stroke-linejoin: miter; stroke-linecap: square"/>
   </g>
   <g id="patch_4">
    <path d="M 709.2 390.04 
L 709.2 10.8 
" style="fill: none; stroke: #000000; stroke-width: 0.8; stroke-linejoin: miter; stroke-linecap: square"/>
   </g>
   <g id="patch_5">
    <path d="M 50.87 390.04 
L 709.2 390.04 
" style="fill: none; stroke: #000000; stroke-width: 0.8; stroke-linejoin: miter; stroke-linecap: square"/>
   </g>
   <g id="patch_6">
    <path d="M 50.87 10.8 
L 709.2 10.8 
" style="fill: none; stroke: #000000; stroke-width: 0.8; stroke-linejoin: miter; stroke-linecap: square"/>
   </g>
   <g id="legend_1">
    <g id="patch_7">
     <path d="M 628.803125 385.04 
L 702.2 385.04 
Q 704.2 385.04 704.2 383.04 
L 704.2 340.005625 
Q 704.2 338.005625 702.2 338.005625 
L 628.803125 338.005625 
Q 626.803125 338.005625 626.803125 340.005625 
L 626.803125 383.04 
Q 626.803125 385.04 628.803125 385.04 
z
" style="fill: #ffffff; opacity: 0.8; stroke: #cccccc; stroke-linejoin: miter"/>
    </g>
    <g id="text_14">
     <!-- Agent -->
     <g transform="translate(650.701563 349.604062) scale(0.1 -0.1)">
      <defs>
       <path id="DejaVuSans-41" d="M 2188 4044 
L 1331 1722 
L 3047 1722 
L 2188 4044 
z
M 1831 4666 
L 2547 4666 
L 4325 0 
L 3669 0 
L 3244 1197 
L 1141 1197 
L 716 0 
L 50 0 
L 1831 4666 
z
" transform="scale(0.015625)"/>
       <path id="DejaVuSans-67" d="M 2906 1791 
Q 2906 2416 2648 2759 
Q 2391 3103 1925 3103 
Q 1463 3103 1205 2759 
Q 947 2416 947 1791 
Q 947 1169 1205 825 
Q 1463 481 1925 481 
Q 2391 481 2648 825 
Q 2906 1169 2906 1791 
z
M 3481 434 
Q 3481 -459 3084 -895 
Q 2688 -1331 1869 -1331 
Q 1566 -1331 1297 -1286 
Q 1028 -1241 775 -1147 
L 775 -588 
Q 1028 -725 1275 -790 
Q 1522 -856 1778 -856 
Q 2344 -856 2625 -561 
Q 2906 -266 2906 331 
L 2906 616 
Q 2728 306 2450 153 
Q 2172 0 1784 0 
Q 1141 0 747 490 
Q 353 981 353 1791 
Q 353 2603 747 3093 
Q 1141 3584 1784 3584 
Q 2172 3584 2450 3431 
Q 2728 3278 2906 2969 
L 2906 3500 
L 3481 3500 
L 3481 434 
z
" transform="scale(0.015625)"/>
       <path id="DejaVuSans-6e" d="M 3513 2113 
L 3513 0 
L 2938 0 
L 2938 2094 
Q 2938 2591 2744 2837 
Q 2550 3084 2163 3084 
Q 1697 3084 1428 2787 
Q 1159 2491 1159 1978 
L 1159 0 
L 581 0 
L 581 3500 
L 1159 3500 
L 1159 2956 
Q 1366 3272 1645 3428 
Q 1925 3584 2291 3584 
Q 2894 3584 3203 3211 
Q 3513 2838 3513 2113 
z
" transform="scale(0.015625)"/>
      </defs>
      <use xlink:href="#DejaVuSans-41"/>
      <use xlink:href="#DejaVuSans-67" transform="translate(68.408203 0)"/>
      <use xlink:href="#DejaVuSans-65" transform="translate(131.884766 0)"/>
      <use xlink:href="#DejaVuSans-6e" transform="translate(193.408203 0)"/>
      <use xlink:href="#DejaVuSans-74" transform="translate(256.787109 0)"/>
     </g>
    </g>
    <g id="line2d_25">
     <path d="M 630.803125 360.782187 
L 640.803125 360.782187 
L 650.803125 360.782187 
" style="fill: none; stroke: #0000ff; stroke-width: 1.5; stroke-linecap: square"/>
    </g>
    <g id="text_15">
     <!-- PPO -->
     <g transform="translate(658.803125 364.282187) scale(0.1 -0.1)">
      <defs>
       <path id="DejaVuSans-50" d="M 1259 4147 
L 1259 2394 
L 2053 2394 
Q 2494 2394 2734 2622 
Q 2975 2850 2975 3272 
Q 2975 3691 2734 3919 
Q 2494 4147 2053 4147 
L 1259 4147 
z
M 628 4666 
L 2053 4666 
Q 2838 4666 3239 4311 
Q 3641 3956 3641 3272 
Q 3641 2581 3239 2228 
Q 2838 1875 2053 1875 
L 1259 1875 
L 1259 0 
L 628 0 
L 628 4666 
z
" transform="scale(0.015625)"/>
       <path id="DejaVuSans-4f" d="M 2522 4238 
Q 1834 4238 1429 3725 
Q 1025 3213 1025 2328 
Q 1025 1447 1429 934 
Q 1834 422 2522 422 
Q 3209 422 3611 934 
Q 4013 1447 4013 2328 
Q 4013 3213 3611 3725 
Q 3209 4238 2522 4238 
z
M 2522 4750 
Q 3503 4750 4090 4092 
Q 4678 3434 4678 2328 
Q 4678 1225 4090 567 
Q 3503 -91 2522 -91 
Q 1538 -91 948 565 
Q 359 1222 359 2328 
Q 359 3434 948 4092 
Q 1538 4750 2522 4750 
z
" transform="scale(0.015625)"/>
      </defs>
      <use xlink:href="#DejaVuSans-50"/>
      <use xlink:href="#DejaVuSans-50" transform="translate(60.302734 0)"/>
      <use xlink:href="#DejaVuSans-4f" transform="translate(120.605469 0)"/>
     </g>
    </g>
    <g id="line2d_26">
     <path d="M 630.803125 375.460312 
L 640.803125 375.460312 
L 650.803125 375.460312 
" style="fill: none; stroke: #ffa500; stroke-width: 1.5; stroke-linecap: square"/>
    </g>
    <g id="text_16">
     <!-- Random -->
     <g transform="translate(658.803125 378.960312) scale(0.1 -0.1)">
      <defs>
       <path id="DejaVuSans-6f" d="M 1959 3097 
Q 1497 3097 1228 2736 
Q 959 2375 959 1747 
Q 959 1119 1226 758 
Q 1494 397 1959 397 
Q 2419 397 2687 759 
Q 2956 1122 2956 1747 
Q 2956 2369 2687 2733 
Q 2419 3097 1959 3097 
z
M 1959 3584 
Q 2709 3584 3137 3096 
Q 3566 2609 3566 1747 
Q 3566 888 3137 398 
Q 2709 -91 1959 -91 
Q 1206 -91 779 398 
Q 353 888 353 1747 
Q 353 2609 779 3096 
Q 1206 3584 1959 3584 
z
" transform="scale(0.015625)"/>
       <path id="DejaVuSans-6d" d="M 3328 2828 
Q 3544 3216 3844 3400 
Q 4144 3584 4550 3584 
Q 5097 3584 5394 3201 
Q 5691 2819 5691 2113 
L 5691 0 
L 5113 0 
L 5113 2094 
Q 5113 2597 4934 2840 
Q 4756 3084 4391 3084 
Q 3944 3084 3684 2787 
Q 3425 2491 3425 1978 
L 3425 0 
L 2847 0 
L 2847 2094 
Q 2847 2600 2669 2842 
Q 2491 3084 2119 3084 
Q 1678 3084 1418 2786 
Q 1159 2488 1159 1978 
L 1159 0 
L 581 0 
L 581 3500 
L 1159 3500 
L 1159 2956 
Q 1356 3278 1631 3431 
Q 1906 3584 2284 3584 
Q 2666 3584 2933 3390 
Q 3200 3197 3328 2828 
z
" transform="scale(0.015625)"/>
      </defs>
      <use xlink:href="#DejaVuSans-52"/>
      <use xlink:href="#DejaVuSans-61" transform="translate(67.232422 0)"/>
      <use xlink:href="#DejaVuSans-6e" transform="translate(128.511719 0)"/>
      <use xlink:href="#DejaVuSans-64" transform="translate(191.890625 0)"/>
      <use xlink:href="#DejaVuSans-6f" transform="translate(255.367188 0)"/>
      <use xlink:href="#DejaVuSans-6d" transform="translate(316.548828 0)"/>
     </g>
    </g>
   </g>
  </g>
 </g>
 <defs>
  <clipPath id="p8ebe864c5b">
   <rect x="50.87" y="10.8" width="658.33" height="379.24"/>
  </clipPath>
 </defs>
</svg>
