<?xml version="1.0" encoding="utf-8" standalone="no"?>
<!DOCTYPE svg PUBLIC "-//W3C//DTD SVG 1.1//EN"
  "http://www.w3.org/Graphics/SVG/1.1/DTD/svg11.dtd">
<svg xmlns:xlink="http://www.w3.org/1999/xlink" width="720pt" height="432pt" viewBox="0 0 720 432" xmlns="http://www.w3.org/2000/svg" version="1.1">
 <metadata>
  <rdf:RDF xmlns:dc="http://purl.org/dc/elements/1.1/" xmlns:cc="http://creativecommons.org/ns#" xmlns:rdf="http://www.w3.org/1999/02/22-rdf-syntax-ns#">
   <cc:Work>
    <dc:type rdf:resource="http://purl.org/dc/dcmitype/StillImage"/>
    <dc:date>2025-04-23T12:02:11.419465</dc:date>
    <dc:format>image/svg+xml</dc:format>
    <dc:creator>
     <cc:Agent>
      <dc:title>Matplotlib v3.10.1, https://matplotlib.org/</dc:title>
     </cc:Agent>
    </dc:creator>
   </cc:Work>
  </rdf:RDF>
 </metadata>
 <defs>
  <style type="text/css">*{stroke-linejoin: round; stroke-linecap: butt}</style>
 </defs>
 <g id="figure_1">
  <g id="patch_1">
   <path d="M 0 432 
L 720 432 
L 720 0 
L 0 0 
z
" style="fill: #ffffff"/>
  </g>
  <g id="axes_1">
   <g id="patch_2">
    <path d="M 47.72 390.04 
L 709.2 390.04 
L 709.2 26.88 
L 47.72 26.88 
z
" style="fill: #ffffff"/>
   </g>
   <g id="matplotlib.axis_1">
    <g id="xtick_1">
     <g id="line2d_1">
      <path d="M 77.370472 390.04 
L 77.370472 26.88 
" clip-path="url(#p3ec891b3a4)" style="fill: none; stroke: #b0b0b0; stroke-width: 0.8; stroke-linecap: square"/>
     </g>
     <g id="line2d_2">
      <defs>
       <path id="mc0b4fd1686" d="M 0 0 
L 0 3.5 
" style="stroke: #000000; stroke-width: 0.8"/>
      </defs>
      <g>
       <use xlink:href="#mc0b4fd1686" x="77.370472" y="390.04" style="stroke: #000000; stroke-width: 0.8"/>
      </g>
     </g>
     <g id="text_1">
      <!-- 0 -->
      <g transform="translate(74.189222 404.638438) scale(0.1 -0.1)">
       <defs>
        <path id="DejaVuSans-30" d="M 2034 4250 
Q 1547 4250 1301 3770 
Q 1056 3291 1056 2328 
Q 1056 1369 1301 889 
Q 1547 409 2034 409 
Q 2525 409 2770 889 
Q 3016 1369 3016 2328 
Q 3016 3291 2770 3770 
Q 2525 4250 2034 4250 
z
M 2034 4750 
Q 2819 4750 3233 4129 
Q 3647 3509 3647 2328 
Q 3647 1150 3233 529 
Q 2819 -91 2034 -91 
Q 1250 -91 836 529 
Q 422 1150 422 2328 
Q 422 3509 836 4129 
Q 1250 4750 2034 4750 
z
" transform="scale(0.015625)"/>
       </defs>
       <use xlink:href="#DejaVuSans-30"/>
      </g>
     </g>
    </g>
    <g id="xtick_2">
     <g id="line2d_3">
      <path d="M 187.055005 390.04 
L 187.055005 26.88 
" clip-path="url(#p3ec891b3a4)" style="fill: none; stroke: #b0b0b0; stroke-width: 0.8; stroke-linecap: square"/>
     </g>
     <g id="line2d_4">
      <g>
       <use xlink:href="#mc0b4fd1686" x="187.055005" y="390.04" style="stroke: #000000; stroke-width: 0.8"/>
      </g>
     </g>
     <g id="text_2">
      <!-- 10000 -->
      <g transform="translate(171.148755 404.638438) scale(0.1 -0.1)">
       <defs>
        <path id="DejaVuSans-31" d="M 794 531 
L 1825 531 
L 1825 4091 
L 703 3866 
L 703 4441 
L 1819 4666 
L 2450 4666 
L 2450 531 
L 3481 531 
L 3481 0 
L 794 0 
L 794 531 
z
" transform="scale(0.015625)"/>
       </defs>
       <use xlink:href="#DejaVuSans-31"/>
       <use xlink:href="#DejaVuSans-30" transform="translate(63.623047 0)"/>
       <use xlink:href="#DejaVuSans-30" transform="translate(127.246094 0)"/>
       <use xlink:href="#DejaVuSans-30" transform="translate(190.869141 0)"/>
       <use xlink:href="#DejaVuSans-30" transform="translate(254.492188 0)"/>
      </g>
     </g>
    </g>
    <g id="xtick_3">
     <g id="line2d_5">
      <path d="M 296.739538 390.04 
L 296.739538 26.88 
" clip-path="url(#p3ec891b3a4)" style="fill: none; stroke: #b0b0b0; stroke-width: 0.8; stroke-linecap: square"/>
     </g>
     <g id="line2d_6">
      <g>
       <use xlink:href="#mc0b4fd1686" x="296.739538" y="390.04" style="stroke: #000000; stroke-width: 0.8"/>
      </g>
     </g>
     <g id="text_3">
      <!-- 20000 -->
      <g transform="translate(280.833288 404.638438) scale(0.1 -0.1)">
       <defs>
        <path id="DejaVuSans-32" d="M 1228 531 
L 3431 531 
L 3431 0 
L 469 0 
L 469 531 
Q 828 903 1448 1529 
Q 2069 2156 2228 2338 
Q 2531 2678 2651 2914 
Q 2772 3150 2772 3378 
Q 2772 3750 2511 3984 
Q 2250 4219 1831 4219 
Q 1534 4219 1204 4116 
Q 875 4013 500 3803 
L 500 4441 
Q 881 4594 1212 4672 
Q 1544 4750 1819 4750 
Q 2544 4750 2975 4387 
Q 3406 4025 3406 3419 
Q 3406 3131 3298 2873 
Q 3191 2616 2906 2266 
Q 2828 2175 2409 1742 
Q 1991 1309 1228 531 
z
" transform="scale(0.015625)"/>
       </defs>
       <use xlink:href="#DejaVuSans-32"/>
       <use xlink:href="#DejaVuSans-30" transform="translate(63.623047 0)"/>
       <use xlink:href="#DejaVuSans-30" transform="translate(127.246094 0)"/>
       <use xlink:href="#DejaVuSans-30" transform="translate(190.869141 0)"/>
       <use xlink:href="#DejaVuSans-30" transform="translate(254.492188 0)"/>
      </g>
     </g>
    </g>
    <g id="xtick_4">
     <g id="line2d_7">
      <path d="M 406.424072 390.04 
L 406.424072 26.88 
" clip-path="url(#p3ec891b3a4)" style="fill: none; stroke: #b0b0b0; stroke-width: 0.8; stroke-linecap: square"/>
     </g>
     <g id="line2d_8">
      <g>
       <use xlink:href="#mc0b4fd1686" x="406.424072" y="390.04" style="stroke: #000000; stroke-width: 0.8"/>
      </g>
     </g>
     <g id="text_4">
      <!-- 30000 -->
      <g transform="translate(390.517822 404.638438) scale(0.1 -0.1)">
       <defs>
        <path id="DejaVuSans-33" d="M 2597 2516 
Q 3050 2419 3304 2112 
Q 3559 1806 3559 1356 
Q 3559 666 3084 287 
Q 2609 -91 1734 -91 
Q 1441 -91 1130 -33 
Q 819 25 488 141 
L 488 750 
Q 750 597 1062 519 
Q 1375 441 1716 441 
Q 2309 441 2620 675 
Q 2931 909 2931 1356 
Q 2931 1769 2642 2001 
Q 2353 2234 1838 2234 
L 1294 2234 
L 1294 2753 
L 1863 2753 
Q 2328 2753 2575 2939 
Q 2822 3125 2822 3475 
Q 2822 3834 2567 4026 
Q 2313 4219 1838 4219 
Q 1578 4219 1281 4162 
Q 984 4106 628 3988 
L 628 4550 
Q 988 4650 1302 4700 
Q 1616 4750 1894 4750 
Q 2613 4750 3031 4423 
Q 3450 4097 3450 3541 
Q 3450 3153 3228 2886 
Q 3006 2619 2597 2516 
z
" transform="scale(0.015625)"/>
       </defs>
       <use xlink:href="#DejaVuSans-33"/>
       <use xlink:href="#DejaVuSans-30" transform="translate(63.623047 0)"/>
       <use xlink:href="#DejaVuSans-30" transform="translate(127.246094 0)"/>
       <use xlink:href="#DejaVuSans-30" transform="translate(190.869141 0)"/>
       <use xlink:href="#DejaVuSans-30" transform="translate(254.492188 0)"/>
      </g>
     </g>
    </g>
    <g id="xtick_5">
     <g id="line2d_9">
      <path d="M 516.108605 390.04 
L 516.108605 26.88 
" clip-path="url(#p3ec891b3a4)" style="fill: none; stroke: #b0b0b0; stroke-width: 0.8; stroke-linecap: square"/>
     </g>
     <g id="line2d_10">
      <g>
       <use xlink:href="#mc0b4fd1686" x="516.108605" y="390.04" style="stroke: #000000; stroke-width: 0.8"/>
      </g>
     </g>
     <g id="text_5">
      <!-- 40000 -->
      <g transform="translate(500.202355 404.638438) scale(0.1 -0.1)">
       <defs>
        <path id="DejaVuSans-34" d="M 2419 4116 
L 825 1625 
L 2419 1625 
L 2419 4116 
z
M 2253 4666 
L 3047 4666 
L 3047 1625 
L 3713 1625 
L 3713 1100 
L 3047 1100 
L 3047 0 
L 2419 0 
L 2419 1100 
L 313 1100 
L 313 1709 
L 2253 4666 
z
" transform="scale(0.015625)"/>
       </defs>
       <use xlink:href="#DejaVuSans-34"/>
       <use xlink:href="#DejaVuSans-30" transform="translate(63.623047 0)"/>
       <use xlink:href="#DejaVuSans-30" transform="translate(127.246094 0)"/>
       <use xlink:href="#DejaVuSans-30" transform="translate(190.869141 0)"/>
       <use xlink:href="#DejaVuSans-30" transform="translate(254.492188 0)"/>
      </g>
     </g>
    </g>
    <g id="xtick_6">
     <g id="line2d_11">
      <path d="M 625.793139 390.04 
L 625.793139 26.88 
" clip-path="url(#p3ec891b3a4)" style="fill: none; stroke: #b0b0b0; stroke-width: 0.8; stroke-linecap: square"/>
     </g>
     <g id="line2d_12">
      <g>
       <use xlink:href="#mc0b4fd1686" x="625.793139" y="390.04" style="stroke: #000000; stroke-width: 0.8"/>
      </g>
     </g>
     <g id="text_6">
      <!-- 50000 -->
      <g transform="translate(609.886889 404.638438) scale(0.1 -0.1)">
       <defs>
        <path id="DejaVuSans-35" d="M 691 4666 
L 3169 4666 
L 3169 4134 
L 1269 4134 
L 1269 2991 
Q 1406 3038 1543 3061 
Q 1681 3084 1819 3084 
Q 2600 3084 3056 2656 
Q 3513 2228 3513 1497 
Q 3513 744 3044 326 
Q 2575 -91 1722 -91 
Q 1428 -91 1123 -41 
Q 819 9 494 109 
L 494 744 
Q 775 591 1075 516 
Q 1375 441 1709 441 
Q 2250 441 2565 725 
Q 2881 1009 2881 1497 
Q 2881 1984 2565 2268 
Q 2250 2553 1709 2553 
Q 1456 2553 1204 2497 
Q 953 2441 691 2322 
L 691 4666 
z
" transform="scale(0.015625)"/>
       </defs>
       <use xlink:href="#DejaVuSans-35"/>
       <use xlink:href="#DejaVuSans-30" transform="translate(63.623047 0)"/>
       <use xlink:href="#DejaVuSans-30" transform="translate(127.246094 0)"/>
       <use xlink:href="#DejaVuSans-30" transform="translate(190.869141 0)"/>
       <use xlink:href="#DejaVuSans-30" transform="translate(254.492188 0)"/>
      </g>
     </g>
    </g>
    <g id="text_7">
     <!-- Episode Number -->
     <g transform="translate(337.1475 418.316562) scale(0.1 -0.1)">
      <defs>
       <path id="DejaVuSans-45" d="M 628 4666 
L 3578 4666 
L 3578 4134 
L 1259 4134 
L 1259 2753 
L 3481 2753 
L 3481 2222 
L 1259 2222 
L 1259 531 
L 3634 531 
L 3634 0 
L 628 0 
L 628 4666 
z
" transform="scale(0.015625)"/>
       <path id="DejaVuSans-70" d="M 1159 525 
L 1159 -1331 
L 581 -1331 
L 581 3500 
L 1159 3500 
L 1159 2969 
Q 1341 3281 1617 3432 
Q 1894 3584 2278 3584 
Q 2916 3584 3314 3078 
Q 3713 2572 3713 1747 
Q 3713 922 3314 415 
Q 2916 -91 2278 -91 
Q 1894 -91 1617 61 
Q 1341 213 1159 525 
z
M 3116 1747 
Q 3116 2381 2855 2742 
Q 2594 3103 2138 3103 
Q 1681 3103 1420 2742 
Q 1159 2381 1159 1747 
Q 1159 1113 1420 752 
Q 1681 391 2138 391 
Q 2594 391 2855 752 
Q 3116 1113 3116 1747 
z
" transform="scale(0.015625)"/>
       <path id="DejaVuSans-69" d="M 603 3500 
L 1178 3500 
L 1178 0 
L 603 0 
L 603 3500 
z
M 603 4863 
L 1178 4863 
L 1178 4134 
L 603 4134 
L 603 4863 
z
" transform="scale(0.015625)"/>
       <path id="DejaVuSans-73" d="M 2834 3397 
L 2834 2853 
Q 2591 2978 2328 3040 
Q 2066 3103 1784 3103 
Q 1356 3103 1142 2972 
Q 928 2841 928 2578 
Q 928 2378 1081 2264 
Q 1234 2150 1697 2047 
L 1894 2003 
Q 2506 1872 2764 1633 
Q 3022 1394 3022 966 
Q 3022 478 2636 193 
Q 2250 -91 1575 -91 
Q 1294 -91 989 -36 
Q 684 19 347 128 
L 347 722 
Q 666 556 975 473 
Q 1284 391 1588 391 
Q 1994 391 2212 530 
Q 2431 669 2431 922 
Q 2431 1156 2273 1281 
Q 2116 1406 1581 1522 
L 1381 1569 
Q 847 1681 609 1914 
Q 372 2147 372 2553 
Q 372 3047 722 3315 
Q 1072 3584 1716 3584 
Q 2034 3584 2315 3537 
Q 2597 3491 2834 3397 
z
" transform="scale(0.015625)"/>
       <path id="DejaVuSans-6f" d="M 1959 3097 
Q 1497 3097 1228 2736 
Q 959 2375 959 1747 
Q 959 1119 1226 758 
Q 1494 397 1959 397 
Q 2419 397 2687 759 
Q 2956 1122 2956 1747 
Q 2956 2369 2687 2733 
Q 2419 3097 1959 3097 
z
M 1959 3584 
Q 2709 3584 3137 3096 
Q 3566 2609 3566 1747 
Q 3566 888 3137 398 
Q 2709 -91 1959 -91 
Q 1206 -91 779 398 
Q 353 888 353 1747 
Q 353 2609 779 3096 
Q 1206 3584 1959 3584 
z
" transform="scale(0.015625)"/>
       <path id="DejaVuSans-64" d="M 2906 2969 
L 2906 4863 
L 3481 4863 
L 3481 0 
L 2906 0 
L 2906 525 
Q 2725 213 2448 61 
Q 2172 -91 1784 -91 
Q 1150 -91 751 415 
Q 353 922 353 1747 
Q 353 2572 751 3078 
Q 1150 3584 1784 3584 
Q 2172 3584 2448 3432 
Q 2725 3281 2906 2969 
z
M 947 1747 
Q 947 1113 1208 752 
Q 1469 391 1925 391 
Q 2381 391 2643 752 
Q 2906 1113 2906 1747 
Q 2906 2381 2643 2742 
Q 2381 3103 1925 3103 
Q 1469 3103 1208 2742 
Q 947 2381 947 1747 
z
" transform="scale(0.015625)"/>
       <path id="DejaVuSans-65" d="M 3597 1894 
L 3597 1613 
L 953 1613 
Q 991 1019 1311 708 
Q 1631 397 2203 397 
Q 2534 397 2845 478 
Q 3156 559 3463 722 
L 3463 178 
Q 3153 47 2828 -22 
Q 2503 -91 2169 -91 
Q 1331 -91 842 396 
Q 353 884 353 1716 
Q 353 2575 817 3079 
Q 1281 3584 2069 3584 
Q 2775 3584 3186 3129 
Q 3597 2675 3597 1894 
z
M 3022 2063 
Q 3016 2534 2758 2815 
Q 2500 3097 2075 3097 
Q 1594 3097 1305 2825 
Q 1016 2553 972 2059 
L 3022 2063 
z
" transform="scale(0.015625)"/>
       <path id="DejaVuSans-20" transform="scale(0.015625)"/>
       <path id="DejaVuSans-4e" d="M 628 4666 
L 1478 4666 
L 3547 763 
L 3547 4666 
L 4159 4666 
L 4159 0 
L 3309 0 
L 1241 3903 
L 1241 0 
L 628 0 
L 628 4666 
z
" transform="scale(0.015625)"/>
       <path id="DejaVuSans-75" d="M 544 1381 
L 544 3500 
L 1119 3500 
L 1119 1403 
Q 1119 906 1312 657 
Q 1506 409 1894 409 
Q 2359 409 2629 706 
Q 2900 1003 2900 1516 
L 2900 3500 
L 3475 3500 
L 3475 0 
L 2900 0 
L 2900 538 
Q 2691 219 2414 64 
Q 2138 -91 1772 -91 
Q 1169 -91 856 284 
Q 544 659 544 1381 
z
M 1991 3584 
L 1991 3584 
z
" transform="scale(0.015625)"/>
       <path id="DejaVuSans-6d" d="M 3328 2828 
Q 3544 3216 3844 3400 
Q 4144 3584 4550 3584 
Q 5097 3584 5394 3201 
Q 5691 2819 5691 2113 
L 5691 0 
L 5113 0 
L 5113 2094 
Q 5113 2597 4934 2840 
Q 4756 3084 4391 3084 
Q 3944 3084 3684 2787 
Q 3425 2491 3425 1978 
L 3425 0 
L 2847 0 
L 2847 2094 
Q 2847 2600 2669 2842 
Q 2491 3084 2119 3084 
Q 1678 3084 1418 2786 
Q 1159 2488 1159 1978 
L 1159 0 
L 581 0 
L 581 3500 
L 1159 3500 
L 1159 2956 
Q 1356 3278 1631 3431 
Q 1906 3584 2284 3584 
Q 2666 3584 2933 3390 
Q 3200 3197 3328 2828 
z
" transform="scale(0.015625)"/>
       <path id="DejaVuSans-62" d="M 3116 1747 
Q 3116 2381 2855 2742 
Q 2594 3103 2138 3103 
Q 1681 3103 1420 2742 
Q 1159 2381 1159 1747 
Q 1159 1113 1420 752 
Q 1681 391 2138 391 
Q 2594 391 2855 752 
Q 3116 1113 3116 1747 
z
M 1159 2969 
Q 1341 3281 1617 3432 
Q 1894 3584 2278 3584 
Q 2916 3584 3314 3078 
Q 3713 2572 3713 1747 
Q 3713 922 3314 415 
Q 2916 -91 2278 -91 
Q 1894 -91 1617 61 
Q 1341 213 1159 525 
L 1159 0 
L 581 0 
L 581 4863 
L 1159 4863 
L 1159 2969 
z
" transform="scale(0.015625)"/>
       <path id="DejaVuSans-72" d="M 2631 2963 
Q 2534 3019 2420 3045 
Q 2306 3072 2169 3072 
Q 1681 3072 1420 2755 
Q 1159 2438 1159 1844 
L 1159 0 
L 581 0 
L 581 3500 
L 1159 3500 
L 1159 2956 
Q 1341 3275 1631 3429 
Q 1922 3584 2338 3584 
Q 2397 3584 2469 3576 
Q 2541 3569 2628 3553 
L 2631 2963 
z
" transform="scale(0.015625)"/>
      </defs>
      <use xlink:href="#DejaVuSans-45"/>
      <use xlink:href="#DejaVuSans-70" transform="translate(63.183594 0)"/>
      <use xlink:href="#DejaVuSans-69" transform="translate(126.660156 0)"/>
      <use xlink:href="#DejaVuSans-73" transform="translate(154.443359 0)"/>
      <use xlink:href="#DejaVuSans-6f" transform="translate(206.542969 0)"/>
      <use xlink:href="#DejaVuSans-64" transform="translate(267.724609 0)"/>
      <use xlink:href="#DejaVuSans-65" transform="translate(331.201172 0)"/>
      <use xlink:href="#DejaVuSans-20" transform="translate(392.724609 0)"/>
      <use xlink:href="#DejaVuSans-4e" transform="translate(424.511719 0)"/>
      <use xlink:href="#DejaVuSans-75" transform="translate(499.316406 0)"/>
      <use xlink:href="#DejaVuSans-6d" transform="translate(562.695312 0)"/>
      <use xlink:href="#DejaVuSans-62" transform="translate(660.107422 0)"/>
      <use xlink:href="#DejaVuSans-65" transform="translate(723.583984 0)"/>
      <use xlink:href="#DejaVuSans-72" transform="translate(785.107422 0)"/>
     </g>
    </g>
   </g>
   <g id="matplotlib.axis_2">
    <g id="ytick_1">
     <g id="line2d_13">
      <path d="M 47.72 368.030303 
L 709.2 368.030303 
" clip-path="url(#p3ec891b3a4)" style="fill: none; stroke: #b0b0b0; stroke-width: 0.8; stroke-linecap: square"/>
     </g>
     <g id="line2d_14">
      <defs>
       <path id="mb78251dce8" d="M 0 0 
L -3.5 0 
" style="stroke: #000000; stroke-width: 0.8"/>
      </defs>
      <g>
       <use xlink:href="#mb78251dce8" x="47.72" y="368.030303" style="stroke: #000000; stroke-width: 0.8"/>
      </g>
     </g>
     <g id="text_8">
      <!-- 2.6 -->
      <g transform="translate(24.816875 371.829522) scale(0.1 -0.1)">
       <defs>
        <path id="DejaVuSans-2e" d="M 684 794 
L 1344 794 
L 1344 0 
L 684 0 
L 684 794 
z
" transform="scale(0.015625)"/>
        <path id="DejaVuSans-36" d="M 2113 2584 
Q 1688 2584 1439 2293 
Q 1191 2003 1191 1497 
Q 1191 994 1439 701 
Q 1688 409 2113 409 
Q 2538 409 2786 701 
Q 3034 994 3034 1497 
Q 3034 2003 2786 2293 
Q 2538 2584 2113 2584 
z
M 3366 4563 
L 3366 3988 
Q 3128 4100 2886 4159 
Q 2644 4219 2406 4219 
Q 1781 4219 1451 3797 
Q 1122 3375 1075 2522 
Q 1259 2794 1537 2939 
Q 1816 3084 2150 3084 
Q 2853 3084 3261 2657 
Q 3669 2231 3669 1497 
Q 3669 778 3244 343 
Q 2819 -91 2113 -91 
Q 1303 -91 875 529 
Q 447 1150 447 2328 
Q 447 3434 972 4092 
Q 1497 4750 2381 4750 
Q 2619 4750 2861 4703 
Q 3103 4656 3366 4563 
z
" transform="scale(0.015625)"/>
       </defs>
       <use xlink:href="#DejaVuSans-32"/>
       <use xlink:href="#DejaVuSans-2e" transform="translate(63.623047 0)"/>
       <use xlink:href="#DejaVuSans-36" transform="translate(95.410156 0)"/>
      </g>
     </g>
    </g>
    <g id="ytick_2">
     <g id="line2d_15">
      <path d="M 47.72 326.762121 
L 709.2 326.762121 
" clip-path="url(#p3ec891b3a4)" style="fill: none; stroke: #b0b0b0; stroke-width: 0.8; stroke-linecap: square"/>
     </g>
     <g id="line2d_16">
      <g>
       <use xlink:href="#mb78251dce8" x="47.72" y="326.762121" style="stroke: #000000; stroke-width: 0.8"/>
      </g>
     </g>
     <g id="text_9">
      <!-- 2.7 -->
      <g transform="translate(24.816875 330.56134) scale(0.1 -0.1)">
       <defs>
        <path id="DejaVuSans-37" d="M 525 4666 
L 3525 4666 
L 3525 4397 
L 1831 0 
L 1172 0 
L 2766 4134 
L 525 4134 
L 525 4666 
z
" transform="scale(0.015625)"/>
       </defs>
       <use xlink:href="#DejaVuSans-32"/>
       <use xlink:href="#DejaVuSans-2e" transform="translate(63.623047 0)"/>
       <use xlink:href="#DejaVuSans-37" transform="translate(95.410156 0)"/>
      </g>
     </g>
    </g>
    <g id="ytick_3">
     <g id="line2d_17">
      <path d="M 47.72 285.493939 
L 709.2 285.493939 
" clip-path="url(#p3ec891b3a4)" style="fill: none; stroke: #b0b0b0; stroke-width: 0.8; stroke-linecap: square"/>
     </g>
     <g id="line2d_18">
      <g>
       <use xlink:href="#mb78251dce8" x="47.72" y="285.493939" style="stroke: #000000; stroke-width: 0.8"/>
      </g>
     </g>
     <g id="text_10">
      <!-- 2.8 -->
      <g transform="translate(24.816875 289.293158) scale(0.1 -0.1)">
       <defs>
        <path id="DejaVuSans-38" d="M 2034 2216 
Q 1584 2216 1326 1975 
Q 1069 1734 1069 1313 
Q 1069 891 1326 650 
Q 1584 409 2034 409 
Q 2484 409 2743 651 
Q 3003 894 3003 1313 
Q 3003 1734 2745 1975 
Q 2488 2216 2034 2216 
z
M 1403 2484 
Q 997 2584 770 2862 
Q 544 3141 544 3541 
Q 544 4100 942 4425 
Q 1341 4750 2034 4750 
Q 2731 4750 3128 4425 
Q 3525 4100 3525 3541 
Q 3525 3141 3298 2862 
Q 3072 2584 2669 2484 
Q 3125 2378 3379 2068 
Q 3634 1759 3634 1313 
Q 3634 634 3220 271 
Q 2806 -91 2034 -91 
Q 1263 -91 848 271 
Q 434 634 434 1313 
Q 434 1759 690 2068 
Q 947 2378 1403 2484 
z
M 1172 3481 
Q 1172 3119 1398 2916 
Q 1625 2713 2034 2713 
Q 2441 2713 2670 2916 
Q 2900 3119 2900 3481 
Q 2900 3844 2670 4047 
Q 2441 4250 2034 4250 
Q 1625 4250 1398 4047 
Q 1172 3844 1172 3481 
z
" transform="scale(0.015625)"/>
       </defs>
       <use xlink:href="#DejaVuSans-32"/>
       <use xlink:href="#DejaVuSans-2e" transform="translate(63.623047 0)"/>
       <use xlink:href="#DejaVuSans-38" transform="translate(95.410156 0)"/>
      </g>
     </g>
    </g>
    <g id="ytick_4">
     <g id="line2d_19">
      <path d="M 47.72 244.225758 
L 709.2 244.225758 
" clip-path="url(#p3ec891b3a4)" style="fill: none; stroke: #b0b0b0; stroke-width: 0.8; stroke-linecap: square"/>
     </g>
     <g id="line2d_20">
      <g>
       <use xlink:href="#mb78251dce8" x="47.72" y="244.225758" style="stroke: #000000; stroke-width: 0.8"/>
      </g>
     </g>
     <g id="text_11">
      <!-- 2.9 -->
      <g transform="translate(24.816875 248.024976) scale(0.1 -0.1)">
       <defs>
        <path id="DejaVuSans-39" d="M 703 97 
L 703 672 
Q 941 559 1184 500 
Q 1428 441 1663 441 
Q 2288 441 2617 861 
Q 2947 1281 2994 2138 
Q 2813 1869 2534 1725 
Q 2256 1581 1919 1581 
Q 1219 1581 811 2004 
Q 403 2428 403 3163 
Q 403 3881 828 4315 
Q 1253 4750 1959 4750 
Q 2769 4750 3195 4129 
Q 3622 3509 3622 2328 
Q 3622 1225 3098 567 
Q 2575 -91 1691 -91 
Q 1453 -91 1209 -44 
Q 966 3 703 97 
z
M 1959 2075 
Q 2384 2075 2632 2365 
Q 2881 2656 2881 3163 
Q 2881 3666 2632 3958 
Q 2384 4250 1959 4250 
Q 1534 4250 1286 3958 
Q 1038 3666 1038 3163 
Q 1038 2656 1286 2365 
Q 1534 2075 1959 2075 
z
" transform="scale(0.015625)"/>
       </defs>
       <use xlink:href="#DejaVuSans-32"/>
       <use xlink:href="#DejaVuSans-2e" transform="translate(63.623047 0)"/>
       <use xlink:href="#DejaVuSans-39" transform="translate(95.410156 0)"/>
      </g>
     </g>
    </g>
    <g id="ytick_5">
     <g id="line2d_21">
      <path d="M 47.72 202.957576 
L 709.2 202.957576 
" clip-path="url(#p3ec891b3a4)" style="fill: none; stroke: #b0b0b0; stroke-width: 0.8; stroke-linecap: square"/>
     </g>
     <g id="line2d_22">
      <g>
       <use xlink:href="#mb78251dce8" x="47.72" y="202.957576" style="stroke: #000000; stroke-width: 0.8"/>
      </g>
     </g>
     <g id="text_12">
      <!-- 3.0 -->
      <g transform="translate(24.816875 206.756795) scale(0.1 -0.1)">
       <use xlink:href="#DejaVuSans-33"/>
       <use xlink:href="#DejaVuSans-2e" transform="translate(63.623047 0)"/>
       <use xlink:href="#DejaVuSans-30" transform="translate(95.410156 0)"/>
      </g>
     </g>
    </g>
    <g id="ytick_6">
     <g id="line2d_23">
      <path d="M 47.72 161.689394 
L 709.2 161.689394 
" clip-path="url(#p3ec891b3a4)" style="fill: none; stroke: #b0b0b0; stroke-width: 0.8; stroke-linecap: square"/>
     </g>
     <g id="line2d_24">
      <g>
       <use xlink:href="#mb78251dce8" x="47.72" y="161.689394" style="stroke: #000000; stroke-width: 0.8"/>
      </g>
     </g>
     <g id="text_13">
      <!-- 3.1 -->
      <g transform="translate(24.816875 165.488613) scale(0.1 -0.1)">
       <use xlink:href="#DejaVuSans-33"/>
       <use xlink:href="#DejaVuSans-2e" transform="translate(63.623047 0)"/>
       <use xlink:href="#DejaVuSans-31" transform="translate(95.410156 0)"/>
      </g>
     </g>
    </g>
    <g id="ytick_7">
     <g id="line2d_25">
      <path d="M 47.72 120.421212 
L 709.2 120.421212 
" clip-path="url(#p3ec891b3a4)" style="fill: none; stroke: #b0b0b0; stroke-width: 0.8; stroke-linecap: square"/>
     </g>
     <g id="line2d_26">
      <g>
       <use xlink:href="#mb78251dce8" x="47.72" y="120.421212" style="stroke: #000000; stroke-width: 0.8"/>
      </g>
     </g>
     <g id="text_14">
      <!-- 3.2 -->
      <g transform="translate(24.816875 124.220431) scale(0.1 -0.1)">
       <use xlink:href="#DejaVuSans-33"/>
       <use xlink:href="#DejaVuSans-2e" transform="translate(63.623047 0)"/>
       <use xlink:href="#DejaVuSans-32" transform="translate(95.410156 0)"/>
      </g>
     </g>
    </g>
    <g id="ytick_8">
     <g id="line2d_27">
      <path d="M 47.72 79.15303 
L 709.2 79.15303 
" clip-path="url(#p3ec891b3a4)" style="fill: none; stroke: #b0b0b0; stroke-width: 0.8; stroke-linecap: square"/>
     </g>
     <g id="line2d_28">
      <g>
       <use xlink:href="#mb78251dce8" x="47.72" y="79.15303" style="stroke: #000000; stroke-width: 0.8"/>
      </g>
     </g>
     <g id="text_15">
      <!-- 3.3 -->
      <g transform="translate(24.816875 82.952249) scale(0.1 -0.1)">
       <use xlink:href="#DejaVuSans-33"/>
       <use xlink:href="#DejaVuSans-2e" transform="translate(63.623047 0)"/>
       <use xlink:href="#DejaVuSans-33" transform="translate(95.410156 0)"/>
      </g>
     </g>
    </g>
    <g id="ytick_9">
     <g id="line2d_29">
      <path d="M 47.72 37.884848 
L 709.2 37.884848 
" clip-path="url(#p3ec891b3a4)" style="fill: none; stroke: #b0b0b0; stroke-width: 0.8; stroke-linecap: square"/>
     </g>
     <g id="line2d_30">
      <g>
       <use xlink:href="#mb78251dce8" x="47.72" y="37.884848" style="stroke: #000000; stroke-width: 0.8"/>
      </g>
     </g>
     <g id="text_16">
      <!-- 3.4 -->
      <g transform="translate(24.816875 41.684067) scale(0.1 -0.1)">
       <use xlink:href="#DejaVuSans-33"/>
       <use xlink:href="#DejaVuSans-2e" transform="translate(63.623047 0)"/>
       <use xlink:href="#DejaVuSans-34" transform="translate(95.410156 0)"/>
      </g>
     </g>
    </g>
    <g id="text_17">
     <!-- Circuit Depth per Episode -->
     <g transform="translate(18.737187 272.49125) rotate(-90) scale(0.1 -0.1)">
      <defs>
       <path id="DejaVuSans-43" d="M 4122 4306 
L 4122 3641 
Q 3803 3938 3442 4084 
Q 3081 4231 2675 4231 
Q 1875 4231 1450 3742 
Q 1025 3253 1025 2328 
Q 1025 1406 1450 917 
Q 1875 428 2675 428 
Q 3081 428 3442 575 
Q 3803 722 4122 1019 
L 4122 359 
Q 3791 134 3420 21 
Q 3050 -91 2638 -91 
Q 1578 -91 968 557 
Q 359 1206 359 2328 
Q 359 3453 968 4101 
Q 1578 4750 2638 4750 
Q 3056 4750 3426 4639 
Q 3797 4528 4122 4306 
z
" transform="scale(0.015625)"/>
       <path id="DejaVuSans-63" d="M 3122 3366 
L 3122 2828 
Q 2878 2963 2633 3030 
Q 2388 3097 2138 3097 
Q 1578 3097 1268 2742 
Q 959 2388 959 1747 
Q 959 1106 1268 751 
Q 1578 397 2138 397 
Q 2388 397 2633 464 
Q 2878 531 3122 666 
L 3122 134 
Q 2881 22 2623 -34 
Q 2366 -91 2075 -91 
Q 1284 -91 818 406 
Q 353 903 353 1747 
Q 353 2603 823 3093 
Q 1294 3584 2113 3584 
Q 2378 3584 2631 3529 
Q 2884 3475 3122 3366 
z
" transform="scale(0.015625)"/>
       <path id="DejaVuSans-74" d="M 1172 4494 
L 1172 3500 
L 2356 3500 
L 2356 3053 
L 1172 3053 
L 1172 1153 
Q 1172 725 1289 603 
Q 1406 481 1766 481 
L 2356 481 
L 2356 0 
L 1766 0 
Q 1100 0 847 248 
Q 594 497 594 1153 
L 594 3053 
L 172 3053 
L 172 3500 
L 594 3500 
L 594 4494 
L 1172 4494 
z
" transform="scale(0.015625)"/>
       <path id="DejaVuSans-44" d="M 1259 4147 
L 1259 519 
L 2022 519 
Q 2988 519 3436 956 
Q 3884 1394 3884 2338 
Q 3884 3275 3436 3711 
Q 2988 4147 2022 4147 
L 1259 4147 
z
M 628 4666 
L 1925 4666 
Q 3281 4666 3915 4102 
Q 4550 3538 4550 2338 
Q 4550 1131 3912 565 
Q 3275 0 1925 0 
L 628 0 
L 628 4666 
z
" transform="scale(0.015625)"/>
       <path id="DejaVuSans-68" d="M 3513 2113 
L 3513 0 
L 2938 0 
L 2938 2094 
Q 2938 2591 2744 2837 
Q 2550 3084 2163 3084 
Q 1697 3084 1428 2787 
Q 1159 2491 1159 1978 
L 1159 0 
L 581 0 
L 581 4863 
L 1159 4863 
L 1159 2956 
Q 1366 3272 1645 3428 
Q 1925 3584 2291 3584 
Q 2894 3584 3203 3211 
Q 3513 2838 3513 2113 
z
" transform="scale(0.015625)"/>
      </defs>
      <use xlink:href="#DejaVuSans-43"/>
      <use xlink:href="#DejaVuSans-69" transform="translate(69.824219 0)"/>
      <use xlink:href="#DejaVuSans-72" transform="translate(97.607422 0)"/>
      <use xlink:href="#DejaVuSans-63" transform="translate(136.470703 0)"/>
      <use xlink:href="#DejaVuSans-75" transform="translate(191.451172 0)"/>
      <use xlink:href="#DejaVuSans-69" transform="translate(254.830078 0)"/>
      <use xlink:href="#DejaVuSans-74" transform="translate(282.613281 0)"/>
      <use xlink:href="#DejaVuSans-20" transform="translate(321.822266 0)"/>
      <use xlink:href="#DejaVuSans-44" transform="translate(353.609375 0)"/>
      <use xlink:href="#DejaVuSans-65" transform="translate(430.611328 0)"/>
      <use xlink:href="#DejaVuSans-70" transform="translate(492.134766 0)"/>
      <use xlink:href="#DejaVuSans-74" transform="translate(555.611328 0)"/>
      <use xlink:href="#DejaVuSans-68" transform="translate(594.820312 0)"/>
      <use xlink:href="#DejaVuSans-20" transform="translate(658.199219 0)"/>
      <use xlink:href="#DejaVuSans-70" transform="translate(689.986328 0)"/>
      <use xlink:href="#DejaVuSans-65" transform="translate(753.462891 0)"/>
      <use xlink:href="#DejaVuSans-72" transform="translate(814.986328 0)"/>
      <use xlink:href="#DejaVuSans-20" transform="translate(856.099609 0)"/>
      <use xlink:href="#DejaVuSans-45" transform="translate(887.886719 0)"/>
      <use xlink:href="#DejaVuSans-70" transform="translate(951.070312 0)"/>
      <use xlink:href="#DejaVuSans-69" transform="translate(1014.546875 0)"/>
      <use xlink:href="#DejaVuSans-73" transform="translate(1042.330078 0)"/>
      <use xlink:href="#DejaVuSans-6f" transform="translate(1094.429688 0)"/>
      <use xlink:href="#DejaVuSans-64" transform="translate(1155.611328 0)"/>
      <use xlink:href="#DejaVuSans-65" transform="translate(1219.087891 0)"/>
     </g>
    </g>
   </g>
   <g id="line2d_31">
    <path d="M 77.787273 125.923636 
L 78.609907 186.450303 
L 79.432541 158.938182 
L 80.255175 191.952727 
L 81.077809 285.493939 
L 81.900443 246.97697 
L 82.723077 274.489091 
L 83.545711 274.489091 
L 84.368345 285.493939 
L 85.190979 186.450303 
L 86.013613 202.957576 
L 86.836247 313.006061 
L 87.658881 186.450303 
L 88.481515 120.421212 
L 89.304149 246.97697 
L 90.126783 197.455152 
L 90.949417 125.923636 
L 91.772051 268.986667 
L 92.594685 235.972121 
L 93.417319 153.435758 
L 94.239953 175.445455 
L 95.062587 241.474545 
L 96.707855 175.445455 
L 97.530489 87.406667 
L 98.353123 235.972121 
L 99.175757 235.972121 
L 99.998391 263.484242 
L 100.821025 169.94303 
L 101.643659 246.97697 
L 102.466293 202.957576 
L 103.288927 241.474545 
L 104.111561 219.464848 
L 105.756829 197.455152 
L 106.579463 197.455152 
L 107.402097 274.489091 
L 108.224731 147.933333 
L 109.047365 136.928485 
L 109.869999 131.426061 
L 110.692633 191.952727 
L 111.515267 186.450303 
L 112.337901 235.972121 
L 113.160535 125.923636 
L 113.983169 257.981818 
L 114.805803 180.947879 
L 115.628437 230.469697 
L 116.451071 136.928485 
L 117.273705 208.46 
L 118.096339 197.455152 
L 118.918973 235.972121 
L 119.741607 268.986667 
L 120.564241 307.503636 
L 121.386875 224.967273 
L 122.209509 235.972121 
L 123.032143 235.972121 
L 123.854777 197.455152 
L 124.677411 175.445455 
L 125.500045 114.918788 
L 126.322679 197.455152 
L 127.145313 224.967273 
L 127.967947 219.464848 
L 128.790581 180.947879 
L 129.613215 241.474545 
L 130.435849 191.952727 
L 131.258483 241.474545 
L 132.081117 246.97697 
L 132.903751 230.469697 
L 133.726385 202.957576 
L 134.549019 169.94303 
L 135.371653 81.904242 
L 136.194287 252.479394 
L 137.016921 92.909091 
L 137.839555 109.416364 
L 138.662189 296.498788 
L 139.484823 175.445455 
L 140.307457 285.493939 
L 141.130091 241.474545 
L 141.952725 213.962424 
L 142.775359 252.479394 
L 143.597993 257.981818 
L 144.420627 175.445455 
L 145.243261 235.972121 
L 146.065895 191.952727 
L 146.888529 296.498788 
L 147.711163 169.94303 
L 148.533797 224.967273 
L 149.356431 208.46 
L 150.179065 313.006061 
L 151.001699 197.455152 
L 151.824333 208.46 
L 152.646967 98.411515 
L 153.469601 246.97697 
L 154.292235 268.986667 
L 155.114869 235.972121 
L 155.937503 208.46 
L 156.760137 235.972121 
L 157.582771 180.947879 
L 158.405405 241.474545 
L 159.228039 213.962424 
L 160.050673 202.957576 
L 160.873307 202.957576 
L 161.695941 186.450303 
L 162.518575 175.445455 
L 163.341209 136.928485 
L 164.163843 186.450303 
L 164.986477 202.957576 
L 165.809111 164.440606 
L 166.631745 241.474545 
L 167.454379 252.479394 
L 168.277013 180.947879 
L 169.099647 169.94303 
L 169.922281 213.962424 
L 170.744915 224.967273 
L 172.390183 302.001212 
L 173.212817 246.97697 
L 174.035451 235.972121 
L 175.680719 340.518182 
L 176.503353 252.479394 
L 177.325987 224.967273 
L 178.148621 279.991515 
L 178.971255 274.489091 
L 179.793889 279.991515 
L 180.616523 147.933333 
L 181.439157 213.962424 
L 182.261791 202.957576 
L 183.084425 202.957576 
L 183.907059 246.97697 
L 184.729693 213.962424 
L 185.552327 219.464848 
L 186.374961 147.933333 
L 187.197595 252.479394 
L 188.020229 197.455152 
L 188.842863 169.94303 
L 189.665497 158.938182 
L 190.488131 180.947879 
L 191.310765 186.450303 
L 192.133399 197.455152 
L 192.956033 230.469697 
L 193.778667 180.947879 
L 194.601301 285.493939 
L 195.423935 180.947879 
L 196.246569 169.94303 
L 197.069203 153.435758 
L 198.714471 252.479394 
L 199.537105 213.962424 
L 200.359739 164.440606 
L 201.182373 290.996364 
L 202.005007 329.513333 
L 202.827641 252.479394 
L 203.650275 219.464848 
L 204.472909 202.957576 
L 205.295543 235.972121 
L 206.118177 164.440606 
L 206.940811 235.972121 
L 207.763445 257.981818 
L 208.586079 142.430909 
L 209.408713 329.513333 
L 210.231347 191.952727 
L 211.053981 313.006061 
L 212.699249 136.928485 
L 213.521883 142.430909 
L 214.344517 252.479394 
L 215.167151 230.469697 
L 215.989785 219.464848 
L 216.812419 125.923636 
L 217.635053 252.479394 
L 218.457687 224.967273 
L 219.280321 224.967273 
L 220.102955 235.972121 
L 220.925589 219.464848 
L 221.748223 92.909091 
L 222.570857 285.493939 
L 223.393491 202.957576 
L 224.216125 158.938182 
L 225.038759 136.928485 
L 225.861393 263.484242 
L 226.684027 208.46 
L 227.506661 241.474545 
L 228.329295 208.46 
L 229.151929 257.981818 
L 229.974563 285.493939 
L 230.797197 202.957576 
L 231.619831 158.938182 
L 232.442465 180.947879 
L 233.265099 180.947879 
L 234.087733 224.967273 
L 234.910367 197.455152 
L 235.733001 302.001212 
L 236.555635 373.532727 
L 237.378269 164.440606 
L 238.200903 224.967273 
L 239.023537 257.981818 
L 239.846171 180.947879 
L 240.668805 263.484242 
L 241.491439 186.450303 
L 242.314073 219.464848 
L 243.136707 125.923636 
L 243.959341 142.430909 
L 244.781975 257.981818 
L 245.604609 241.474545 
L 246.427243 136.928485 
L 248.072511 263.484242 
L 248.895145 252.479394 
L 249.717779 164.440606 
L 250.540413 136.928485 
L 251.363047 81.904242 
L 252.185681 136.928485 
L 253.008315 285.493939 
L 253.830949 235.972121 
L 254.653583 213.962424 
L 255.476217 169.94303 
L 256.298851 136.928485 
L 257.121485 208.46 
L 257.944119 103.913939 
L 258.766753 213.962424 
L 259.589387 224.967273 
L 260.412021 246.97697 
L 261.234655 136.928485 
L 262.057289 224.967273 
L 262.879923 219.464848 
L 263.702557 230.469697 
L 264.525191 285.493939 
L 265.347825 274.489091 
L 267.815727 120.421212 
L 268.638361 202.957576 
L 269.460995 136.928485 
L 270.283629 224.967273 
L 271.106263 191.952727 
L 271.928897 191.952727 
L 272.751531 202.957576 
L 273.574165 268.986667 
L 274.396799 186.450303 
L 275.219433 213.962424 
L 276.042067 213.962424 
L 276.864701 230.469697 
L 277.687335 257.981818 
L 278.509969 202.957576 
L 279.332603 279.991515 
L 280.155237 136.928485 
L 280.977871 224.967273 
L 281.800505 180.947879 
L 282.623139 357.025455 
L 283.445773 290.996364 
L 284.268407 296.498788 
L 285.091041 224.967273 
L 285.913675 224.967273 
L 286.736309 268.986667 
L 287.558943 131.426061 
L 288.381577 279.991515 
L 289.204211 252.479394 
L 290.026845 252.479394 
L 290.849479 180.947879 
L 291.672113 158.938182 
L 292.494747 346.020606 
L 293.317381 180.947879 
L 294.140015 302.001212 
L 294.962649 180.947879 
L 295.785283 230.469697 
L 296.607917 213.962424 
L 297.430551 224.967273 
L 298.253185 175.445455 
L 299.075819 169.94303 
L 299.898453 230.469697 
L 300.721087 340.518182 
L 301.543721 208.46 
L 302.366355 186.450303 
L 303.188989 268.986667 
L 304.011623 268.986667 
L 304.834257 175.445455 
L 305.656891 219.464848 
L 306.479525 274.489091 
L 307.302159 213.962424 
L 308.124793 351.52303 
L 308.947427 197.455152 
L 309.770061 213.962424 
L 310.592695 186.450303 
L 311.415329 175.445455 
L 313.060597 186.450303 
L 313.883231 175.445455 
L 314.705865 175.445455 
L 315.528499 279.991515 
L 316.351133 290.996364 
L 317.173767 296.498788 
L 317.996401 158.938182 
L 318.819035 263.484242 
L 319.641669 279.991515 
L 320.464303 307.503636 
L 321.286937 290.996364 
L 322.109571 235.972121 
L 322.932205 235.972121 
L 323.754839 285.493939 
L 324.577473 230.469697 
L 325.400107 257.981818 
L 326.222741 186.450303 
L 327.045375 169.94303 
L 327.868009 257.981818 
L 328.690643 219.464848 
L 329.513277 213.962424 
L 330.335911 186.450303 
L 331.158545 219.464848 
L 331.981179 268.986667 
L 332.803813 169.94303 
L 333.626447 296.498788 
L 334.449081 169.94303 
L 335.271715 147.933333 
L 336.094349 279.991515 
L 336.916983 208.46 
L 337.739617 191.952727 
L 338.562251 180.947879 
L 339.384885 230.469697 
L 340.207519 224.967273 
L 341.030153 224.967273 
L 341.852787 268.986667 
L 342.675421 136.928485 
L 343.498055 169.94303 
L 344.320689 175.445455 
L 345.143323 235.972121 
L 345.965957 169.94303 
L 346.788591 346.020606 
L 347.611225 263.484242 
L 348.433859 164.440606 
L 349.256493 213.962424 
L 350.079127 274.489091 
L 350.901761 285.493939 
L 351.724395 241.474545 
L 352.547029 219.464848 
L 353.369663 208.46 
L 354.192297 219.464848 
L 355.014931 274.489091 
L 355.837565 224.967273 
L 356.660199 43.387273 
L 357.482833 158.938182 
L 358.305467 125.923636 
L 359.128101 279.991515 
L 359.950735 302.001212 
L 360.773369 81.904242 
L 361.596003 98.411515 
L 362.418637 235.972121 
L 363.241271 202.957576 
L 364.063905 263.484242 
L 364.886539 164.440606 
L 365.709173 153.435758 
L 366.531807 92.909091 
L 367.354441 219.464848 
L 368.177075 109.416364 
L 368.999709 340.518182 
L 369.822343 125.923636 
L 370.644977 186.450303 
L 371.467611 235.972121 
L 373.112879 202.957576 
L 373.935513 263.484242 
L 374.758147 103.913939 
L 375.580781 246.97697 
L 376.403415 180.947879 
L 377.226049 175.445455 
L 378.048683 158.938182 
L 378.871317 147.933333 
L 379.693951 241.474545 
L 380.516585 213.962424 
L 381.339219 235.972121 
L 382.161853 202.957576 
L 382.984487 241.474545 
L 383.807121 208.46 
L 384.629755 197.455152 
L 386.275023 279.991515 
L 387.097657 235.972121 
L 387.920291 213.962424 
L 388.742925 109.416364 
L 389.565559 158.938182 
L 390.388193 164.440606 
L 391.210827 158.938182 
L 392.033461 241.474545 
L 392.856095 263.484242 
L 393.678729 230.469697 
L 394.501363 142.430909 
L 395.323997 257.981818 
L 396.146631 147.933333 
L 396.969265 296.498788 
L 397.791899 98.411515 
L 398.614533 274.489091 
L 399.437167 257.981818 
L 400.259801 164.440606 
L 401.082435 158.938182 
L 401.905069 257.981818 
L 402.727703 147.933333 
L 403.550337 213.962424 
L 404.372971 230.469697 
L 405.195605 224.967273 
L 406.018239 296.498788 
L 406.840873 191.952727 
L 407.663507 186.450303 
L 408.486141 186.450303 
L 409.308775 208.46 
L 410.131409 186.450303 
L 410.954043 186.450303 
L 411.776677 285.493939 
L 412.599311 230.469697 
L 413.421945 191.952727 
L 414.244579 175.445455 
L 415.889847 252.479394 
L 416.712481 241.474545 
L 417.535115 191.952727 
L 418.357749 175.445455 
L 419.180383 268.986667 
L 420.003017 241.474545 
L 420.825651 224.967273 
L 421.648285 125.923636 
L 422.470919 246.97697 
L 423.293553 197.455152 
L 424.116187 208.46 
L 424.938821 268.986667 
L 425.761455 164.440606 
L 426.584089 252.479394 
L 427.406723 224.967273 
L 428.229357 164.440606 
L 429.051991 191.952727 
L 429.874625 285.493939 
L 431.519893 169.94303 
L 432.342527 197.455152 
L 433.165161 175.445455 
L 433.987795 125.923636 
L 434.810429 208.46 
L 435.633063 202.957576 
L 436.455697 246.97697 
L 437.278331 340.518182 
L 438.100965 268.986667 
L 438.923599 164.440606 
L 439.746233 131.426061 
L 440.568867 235.972121 
L 441.391501 197.455152 
L 442.214135 230.469697 
L 443.036769 136.928485 
L 443.859403 142.430909 
L 444.682037 235.972121 
L 445.504671 263.484242 
L 446.327305 180.947879 
L 447.149939 153.435758 
L 447.972573 169.94303 
L 448.795207 285.493939 
L 449.617841 235.972121 
L 450.440475 230.469697 
L 451.263109 186.450303 
L 452.085743 268.986667 
L 452.908377 142.430909 
L 453.731011 219.464848 
L 454.553645 131.426061 
L 455.376279 274.489091 
L 456.198913 252.479394 
L 457.021547 313.006061 
L 457.844181 241.474545 
L 458.666815 202.957576 
L 459.489449 197.455152 
L 460.312083 285.493939 
L 461.134717 158.938182 
L 461.957351 241.474545 
L 462.779985 202.957576 
L 463.602619 268.986667 
L 464.425253 241.474545 
L 465.247887 202.957576 
L 466.070521 175.445455 
L 466.893155 313.006061 
L 468.538423 164.440606 
L 469.361057 274.489091 
L 470.183691 230.469697 
L 471.006325 290.996364 
L 471.828959 191.952727 
L 472.651593 153.435758 
L 474.296861 307.503636 
L 475.119495 268.986667 
L 475.942129 252.479394 
L 476.764763 191.952727 
L 477.587397 197.455152 
L 478.410031 208.46 
L 479.232665 147.933333 
L 480.055299 169.94303 
L 480.877933 252.479394 
L 481.700567 153.435758 
L 482.523201 219.464848 
L 483.345835 208.46 
L 484.168469 279.991515 
L 484.991103 180.947879 
L 485.813737 302.001212 
L 486.636371 147.933333 
L 488.281639 263.484242 
L 489.104273 257.981818 
L 489.926907 158.938182 
L 490.749541 235.972121 
L 491.572175 208.46 
L 493.217443 219.464848 
L 494.040077 257.981818 
L 494.862711 224.967273 
L 495.685345 208.46 
L 496.507979 186.450303 
L 497.330613 142.430909 
L 498.153247 153.435758 
L 498.975881 147.933333 
L 499.798515 153.435758 
L 500.621149 246.97697 
L 501.443783 208.46 
L 503.089051 263.484242 
L 503.911685 175.445455 
L 504.734319 208.46 
L 505.556953 169.94303 
L 506.379587 202.957576 
L 507.202221 290.996364 
L 508.024855 257.981818 
L 508.847489 241.474545 
L 509.670123 109.416364 
L 510.492757 197.455152 
L 511.315391 213.962424 
L 512.138025 252.479394 
L 512.960659 142.430909 
L 513.783293 213.962424 
L 514.605927 120.421212 
L 515.428561 241.474545 
L 516.251195 164.440606 
L 517.073829 285.493939 
L 517.896463 230.469697 
L 518.719097 279.991515 
L 519.541731 153.435758 
L 520.364365 302.001212 
L 521.186999 302.001212 
L 522.009633 186.450303 
L 522.832267 147.933333 
L 523.654901 125.923636 
L 524.477535 252.479394 
L 525.300169 202.957576 
L 526.122803 263.484242 
L 526.945437 246.97697 
L 527.768071 224.967273 
L 528.590705 81.904242 
L 529.413339 208.46 
L 530.235973 125.923636 
L 531.058607 285.493939 
L 531.881241 153.435758 
L 532.703875 208.46 
L 533.526509 197.455152 
L 534.349143 208.46 
L 535.171777 213.962424 
L 535.994411 153.435758 
L 536.817045 158.938182 
L 537.639679 197.455152 
L 538.462313 313.006061 
L 539.284947 109.416364 
L 540.107581 246.97697 
L 540.930215 230.469697 
L 541.752849 191.952727 
L 542.575483 241.474545 
L 543.398117 313.006061 
L 544.220751 202.957576 
L 545.043385 169.94303 
L 545.866019 202.957576 
L 546.688653 274.489091 
L 547.511287 257.981818 
L 548.333921 313.006061 
L 549.156555 120.421212 
L 549.979189 142.430909 
L 550.801823 208.46 
L 551.624457 224.967273 
L 552.447091 230.469697 
L 553.269725 263.484242 
L 554.914993 180.947879 
L 555.737627 147.933333 
L 556.560261 246.97697 
L 557.382895 279.991515 
L 558.205529 224.967273 
L 559.028163 235.972121 
L 559.850797 213.962424 
L 561.496065 318.508485 
L 562.318699 136.928485 
L 563.141333 213.962424 
L 563.963967 241.474545 
L 564.786601 186.450303 
L 565.609235 109.416364 
L 566.431869 164.440606 
L 567.254503 241.474545 
L 568.077137 219.464848 
L 568.899771 213.962424 
L 569.722405 131.426061 
L 570.545039 136.928485 
L 571.367673 213.962424 
L 572.190307 279.991515 
L 573.012941 235.972121 
L 573.835575 224.967273 
L 574.658209 180.947879 
L 575.480843 230.469697 
L 576.303477 186.450303 
L 577.126111 252.479394 
L 577.948745 103.913939 
L 578.771379 202.957576 
L 579.594013 120.421212 
L 580.416647 158.938182 
L 581.239281 175.445455 
L 582.061915 202.957576 
L 582.884549 125.923636 
L 583.707183 213.962424 
L 584.529817 274.489091 
L 586.175085 197.455152 
L 586.997719 197.455152 
L 587.820353 274.489091 
L 588.642987 263.484242 
L 589.465621 186.450303 
L 590.288255 252.479394 
L 591.110889 186.450303 
L 591.933523 213.962424 
L 592.756157 147.933333 
L 593.578791 213.962424 
L 594.401425 257.981818 
L 595.224059 208.46 
L 596.046693 213.962424 
L 596.869327 230.469697 
L 597.691961 219.464848 
L 598.514595 246.97697 
L 599.337229 169.94303 
L 600.159863 175.445455 
L 601.805131 208.46 
L 602.627765 268.986667 
L 603.450399 208.46 
L 604.273033 230.469697 
L 605.095667 219.464848 
L 605.918301 213.962424 
L 606.740935 246.97697 
L 607.563569 213.962424 
L 608.386203 202.957576 
L 610.031471 335.015758 
L 610.854105 125.923636 
L 611.676739 318.508485 
L 612.499373 180.947879 
L 613.322007 268.986667 
L 614.144641 87.406667 
L 614.967275 241.474545 
L 615.789909 186.450303 
L 616.612543 158.938182 
L 617.435177 302.001212 
L 618.257811 274.489091 
L 619.080445 318.508485 
L 619.903079 131.426061 
L 620.725713 180.947879 
L 621.548347 213.962424 
L 622.370981 235.972121 
L 623.193615 307.503636 
L 624.016249 109.416364 
L 624.838883 131.426061 
L 625.661517 252.479394 
L 626.484151 169.94303 
L 627.306785 219.464848 
L 628.129419 257.981818 
L 628.952053 257.981818 
L 629.774687 219.464848 
L 630.597321 142.430909 
L 631.419955 230.469697 
L 632.242589 274.489091 
L 633.065223 197.455152 
L 633.887857 219.464848 
L 634.710491 142.430909 
L 635.533125 230.469697 
L 636.355759 213.962424 
L 637.178393 158.938182 
L 638.001027 230.469697 
L 638.823661 191.952727 
L 639.646295 202.957576 
L 640.468929 219.464848 
L 641.291563 125.923636 
L 642.114197 241.474545 
L 642.936831 136.928485 
L 644.582099 318.508485 
L 645.404733 230.469697 
L 646.227367 230.469697 
L 647.050001 279.991515 
L 647.872635 313.006061 
L 648.695269 213.962424 
L 649.517903 224.967273 
L 650.340537 230.469697 
L 651.163171 153.435758 
L 651.985805 257.981818 
L 652.808439 180.947879 
L 653.631073 285.493939 
L 654.453707 313.006061 
L 655.276341 153.435758 
L 656.098975 191.952727 
L 656.921609 241.474545 
L 657.744243 252.479394 
L 658.566877 147.933333 
L 659.389511 213.962424 
L 660.212145 202.957576 
L 661.034779 202.957576 
L 661.857413 81.904242 
L 662.680047 230.469697 
L 663.502681 175.445455 
L 664.325315 230.469697 
L 665.147949 120.421212 
L 665.970583 252.479394 
L 666.793217 252.479394 
L 667.615851 279.991515 
L 668.438485 296.498788 
L 669.261119 246.97697 
L 670.083753 136.928485 
L 670.906387 131.426061 
L 671.729021 208.46 
L 672.551655 109.416364 
L 673.374289 202.957576 
L 674.196923 169.94303 
L 675.019557 109.416364 
L 675.842191 186.450303 
L 676.664825 175.445455 
L 677.487459 224.967273 
L 678.310093 114.918788 
L 679.132727 257.981818 
L 679.132727 257.981818 
" clip-path="url(#p3ec891b3a4)" style="fill: none; stroke: #1f77b4; stroke-width: 1.5; stroke-linecap: square"/>
   </g>
   <g id="patch_3">
    <path d="M 47.72 390.04 
L 47.72 26.88 
" style="fill: none; stroke: #000000; stroke-width: 0.8; stroke-linejoin: miter; stroke-linecap: square"/>
   </g>
   <g id="patch_4">
    <path d="M 709.2 390.04 
L 709.2 26.88 
" style="fill: none; stroke: #000000; stroke-width: 0.8; stroke-linejoin: miter; stroke-linecap: square"/>
   </g>
   <g id="patch_5">
    <path d="M 47.72 390.04 
L 709.2 390.04 
" style="fill: none; stroke: #000000; stroke-width: 0.8; stroke-linejoin: miter; stroke-linecap: square"/>
   </g>
   <g id="patch_6">
    <path d="M 47.72 26.88 
L 709.2 26.88 
" style="fill: none; stroke: #000000; stroke-width: 0.8; stroke-linejoin: miter; stroke-linecap: square"/>
   </g>
   <g id="text_18">
    <!-- Circuit Depth per Episode -->
    <g transform="translate(301.6225 20.88) scale(0.12 -0.12)">
     <use xlink:href="#DejaVuSans-43"/>
     <use xlink:href="#DejaVuSans-69" transform="translate(69.824219 0)"/>
     <use xlink:href="#DejaVuSans-72" transform="translate(97.607422 0)"/>
     <use xlink:href="#DejaVuSans-63" transform="translate(136.470703 0)"/>
     <use xlink:href="#DejaVuSans-75" transform="translate(191.451172 0)"/>
     <use xlink:href="#DejaVuSans-69" transform="translate(254.830078 0)"/>
     <use xlink:href="#DejaVuSans-74" transform="translate(282.613281 0)"/>
     <use xlink:href="#DejaVuSans-20" transform="translate(321.822266 0)"/>
     <use xlink:href="#DejaVuSans-44" transform="translate(353.609375 0)"/>
     <use xlink:href="#DejaVuSans-65" transform="translate(430.611328 0)"/>
     <use xlink:href="#DejaVuSans-70" transform="translate(492.134766 0)"/>
     <use xlink:href="#DejaVuSans-74" transform="translate(555.611328 0)"/>
     <use xlink:href="#DejaVuSans-68" transform="translate(594.820312 0)"/>
     <use xlink:href="#DejaVuSans-20" transform="translate(658.199219 0)"/>
     <use xlink:href="#DejaVuSans-70" transform="translate(689.986328 0)"/>
     <use xlink:href="#DejaVuSans-65" transform="translate(753.462891 0)"/>
     <use xlink:href="#DejaVuSans-72" transform="translate(814.986328 0)"/>
     <use xlink:href="#DejaVuSans-20" transform="translate(856.099609 0)"/>
     <use xlink:href="#DejaVuSans-45" transform="translate(887.886719 0)"/>
     <use xlink:href="#DejaVuSans-70" transform="translate(951.070312 0)"/>
     <use xlink:href="#DejaVuSans-69" transform="translate(1014.546875 0)"/>
     <use xlink:href="#DejaVuSans-73" transform="translate(1042.330078 0)"/>
     <use xlink:href="#DejaVuSans-6f" transform="translate(1094.429688 0)"/>
     <use xlink:href="#DejaVuSans-64" transform="translate(1155.611328 0)"/>
     <use xlink:href="#DejaVuSans-65" transform="translate(1219.087891 0)"/>
    </g>
   </g>
   <g id="legend_1">
    <g id="patch_7">
     <path d="M 446.48125 49.558125 
L 702.2 49.558125 
Q 704.2 49.558125 704.2 47.558125 
L 704.2 33.88 
Q 704.2 31.88 702.2 31.88 
L 446.48125 31.88 
Q 444.48125 31.88 444.48125 33.88 
L 444.48125 47.558125 
Q 444.48125 49.558125 446.48125 49.558125 
z
" style="fill: #ffffff; opacity: 0.8; stroke: #cccccc; stroke-linejoin: miter"/>
    </g>
    <g id="line2d_32">
     <path d="M 448.48125 39.978438 
L 458.48125 39.978438 
L 468.48125 39.978438 
" style="fill: none; stroke: #1f77b4; stroke-width: 1.5; stroke-linecap: square"/>
    </g>
    <g id="text_19">
     <!-- Average Episode Circuit Depth (75 episodes) -->
     <g transform="translate(476.48125 43.478438) scale(0.1 -0.1)">
      <defs>
       <path id="DejaVuSans-41" d="M 2188 4044 
L 1331 1722 
L 3047 1722 
L 2188 4044 
z
M 1831 4666 
L 2547 4666 
L 4325 0 
L 3669 0 
L 3244 1197 
L 1141 1197 
L 716 0 
L 50 0 
L 1831 4666 
z
" transform="scale(0.015625)"/>
       <path id="DejaVuSans-76" d="M 191 3500 
L 800 3500 
L 1894 563 
L 2988 3500 
L 3597 3500 
L 2284 0 
L 1503 0 
L 191 3500 
z
" transform="scale(0.015625)"/>
       <path id="DejaVuSans-61" d="M 2194 1759 
Q 1497 1759 1228 1600 
Q 959 1441 959 1056 
Q 959 750 1161 570 
Q 1363 391 1709 391 
Q 2188 391 2477 730 
Q 2766 1069 2766 1631 
L 2766 1759 
L 2194 1759 
z
M 3341 1997 
L 3341 0 
L 2766 0 
L 2766 531 
Q 2569 213 2275 61 
Q 1981 -91 1556 -91 
Q 1019 -91 701 211 
Q 384 513 384 1019 
Q 384 1609 779 1909 
Q 1175 2209 1959 2209 
L 2766 2209 
L 2766 2266 
Q 2766 2663 2505 2880 
Q 2244 3097 1772 3097 
Q 1472 3097 1187 3025 
Q 903 2953 641 2809 
L 641 3341 
Q 956 3463 1253 3523 
Q 1550 3584 1831 3584 
Q 2591 3584 2966 3190 
Q 3341 2797 3341 1997 
z
" transform="scale(0.015625)"/>
       <path id="DejaVuSans-67" d="M 2906 1791 
Q 2906 2416 2648 2759 
Q 2391 3103 1925 3103 
Q 1463 3103 1205 2759 
Q 947 2416 947 1791 
Q 947 1169 1205 825 
Q 1463 481 1925 481 
Q 2391 481 2648 825 
Q 2906 1169 2906 1791 
z
M 3481 434 
Q 3481 -459 3084 -895 
Q 2688 -1331 1869 -1331 
Q 1566 -1331 1297 -1286 
Q 1028 -1241 775 -1147 
L 775 -588 
Q 1028 -725 1275 -790 
Q 1522 -856 1778 -856 
Q 2344 -856 2625 -561 
Q 2906 -266 2906 331 
L 2906 616 
Q 2728 306 2450 153 
Q 2172 0 1784 0 
Q 1141 0 747 490 
Q 353 981 353 1791 
Q 353 2603 747 3093 
Q 1141 3584 1784 3584 
Q 2172 3584 2450 3431 
Q 2728 3278 2906 2969 
L 2906 3500 
L 3481 3500 
L 3481 434 
z
" transform="scale(0.015625)"/>
       <path id="DejaVuSans-28" d="M 1984 4856 
Q 1566 4138 1362 3434 
Q 1159 2731 1159 2009 
Q 1159 1288 1364 580 
Q 1569 -128 1984 -844 
L 1484 -844 
Q 1016 -109 783 600 
Q 550 1309 550 2009 
Q 550 2706 781 3412 
Q 1013 4119 1484 4856 
L 1984 4856 
z
" transform="scale(0.015625)"/>
       <path id="DejaVuSans-29" d="M 513 4856 
L 1013 4856 
Q 1481 4119 1714 3412 
Q 1947 2706 1947 2009 
Q 1947 1309 1714 600 
Q 1481 -109 1013 -844 
L 513 -844 
Q 928 -128 1133 580 
Q 1338 1288 1338 2009 
Q 1338 2731 1133 3434 
Q 928 4138 513 4856 
z
" transform="scale(0.015625)"/>
      </defs>
      <use xlink:href="#DejaVuSans-41"/>
      <use xlink:href="#DejaVuSans-76" transform="translate(62.533203 0)"/>
      <use xlink:href="#DejaVuSans-65" transform="translate(121.712891 0)"/>
      <use xlink:href="#DejaVuSans-72" transform="translate(183.236328 0)"/>
      <use xlink:href="#DejaVuSans-61" transform="translate(224.349609 0)"/>
      <use xlink:href="#DejaVuSans-67" transform="translate(285.628906 0)"/>
      <use xlink:href="#DejaVuSans-65" transform="translate(349.105469 0)"/>
      <use xlink:href="#DejaVuSans-20" transform="translate(410.628906 0)"/>
      <use xlink:href="#DejaVuSans-45" transform="translate(442.416016 0)"/>
      <use xlink:href="#DejaVuSans-70" transform="translate(505.599609 0)"/>
      <use xlink:href="#DejaVuSans-69" transform="translate(569.076172 0)"/>
      <use xlink:href="#DejaVuSans-73" transform="translate(596.859375 0)"/>
      <use xlink:href="#DejaVuSans-6f" transform="translate(648.958984 0)"/>
      <use xlink:href="#DejaVuSans-64" transform="translate(710.140625 0)"/>
      <use xlink:href="#DejaVuSans-65" transform="translate(773.617188 0)"/>
      <use xlink:href="#DejaVuSans-20" transform="translate(835.140625 0)"/>
      <use xlink:href="#DejaVuSans-43" transform="translate(866.927734 0)"/>
      <use xlink:href="#DejaVuSans-69" transform="translate(936.751953 0)"/>
      <use xlink:href="#DejaVuSans-72" transform="translate(964.535156 0)"/>
      <use xlink:href="#DejaVuSans-63" transform="translate(1003.398438 0)"/>
      <use xlink:href="#DejaVuSans-75" transform="translate(1058.378906 0)"/>
      <use xlink:href="#DejaVuSans-69" transform="translate(1121.757812 0)"/>
      <use xlink:href="#DejaVuSans-74" transform="translate(1149.541016 0)"/>
      <use xlink:href="#DejaVuSans-20" transform="translate(1188.75 0)"/>
      <use xlink:href="#DejaVuSans-44" transform="translate(1220.537109 0)"/>
      <use xlink:href="#DejaVuSans-65" transform="translate(1297.539062 0)"/>
      <use xlink:href="#DejaVuSans-70" transform="translate(1359.0625 0)"/>
      <use xlink:href="#DejaVuSans-74" transform="translate(1422.539062 0)"/>
      <use xlink:href="#DejaVuSans-68" transform="translate(1461.748047 0)"/>
      <use xlink:href="#DejaVuSans-20" transform="translate(1525.126953 0)"/>
      <use xlink:href="#DejaVuSans-28" transform="translate(1556.914062 0)"/>
      <use xlink:href="#DejaVuSans-37" transform="translate(1595.927734 0)"/>
      <use xlink:href="#DejaVuSans-35" transform="translate(1659.550781 0)"/>
      <use xlink:href="#DejaVuSans-20" transform="translate(1723.173828 0)"/>
      <use xlink:href="#DejaVuSans-65" transform="translate(1754.960938 0)"/>
      <use xlink:href="#DejaVuSans-70" transform="translate(1816.484375 0)"/>
      <use xlink:href="#DejaVuSans-69" transform="translate(1879.960938 0)"/>
      <use xlink:href="#DejaVuSans-73" transform="translate(1907.744141 0)"/>
      <use xlink:href="#DejaVuSans-6f" transform="translate(1959.84375 0)"/>
      <use xlink:href="#DejaVuSans-64" transform="translate(2021.025391 0)"/>
      <use xlink:href="#DejaVuSans-65" transform="translate(2084.501953 0)"/>
      <use xlink:href="#DejaVuSans-73" transform="translate(2146.025391 0)"/>
      <use xlink:href="#DejaVuSans-29" transform="translate(2198.125 0)"/>
     </g>
    </g>
   </g>
  </g>
 </g>
 <defs>
  <clipPath id="p3ec891b3a4">
   <rect x="47.72" y="26.88" width="661.48" height="363.16"/>
  </clipPath>
 </defs>
</svg>
