<?xml version="1.0" encoding="utf-8" standalone="no"?>
<!DOCTYPE svg PUBLIC "-//W3C//DTD SVG 1.1//EN"
  "http://www.w3.org/Graphics/SVG/1.1/DTD/svg11.dtd">
<svg xmlns:xlink="http://www.w3.org/1999/xlink" width="720pt" height="432pt" viewBox="0 0 720 432" xmlns="http://www.w3.org/2000/svg" version="1.1">
 <metadata>
  <rdf:RDF xmlns:dc="http://purl.org/dc/elements/1.1/" xmlns:cc="http://creativecommons.org/ns#" xmlns:rdf="http://www.w3.org/1999/02/22-rdf-syntax-ns#">
   <cc:Work>
    <dc:type rdf:resource="http://purl.org/dc/dcmitype/StillImage"/>
    <dc:date>2025-04-23T12:02:10.633772</dc:date>
    <dc:format>image/svg+xml</dc:format>
    <dc:creator>
     <cc:Agent>
      <dc:title>Matplotlib v3.10.1, https://matplotlib.org/</dc:title>
     </cc:Agent>
    </dc:creator>
   </cc:Work>
  </rdf:RDF>
 </metadata>
 <defs>
  <style type="text/css">*{stroke-linejoin: round; stroke-linecap: butt}</style>
 </defs>
 <g id="figure_1">
  <g id="patch_1">
   <path d="M 0 432 
L 720 432 
L 720 0 
L 0 0 
z
" style="fill: #ffffff"/>
  </g>
  <g id="axes_1">
   <g id="patch_2">
    <path d="M 54.02 390.04 
L 709.2 390.04 
L 709.2 26.88 
L 54.02 26.88 
z
" style="fill: #ffffff"/>
   </g>
   <g id="matplotlib.axis_1">
    <g id="xtick_1">
     <g id="line2d_1">
      <path d="M 83.388078 390.04 
L 83.388078 26.88 
" clip-path="url(#p3e5c3c016c)" style="fill: none; stroke: #b0b0b0; stroke-width: 0.8; stroke-linecap: square"/>
     </g>
     <g id="line2d_2">
      <defs>
       <path id="macd483e345" d="M 0 0 
L 0 3.5 
" style="stroke: #000000; stroke-width: 0.8"/>
      </defs>
      <g>
       <use xlink:href="#macd483e345" x="83.388078" y="390.04" style="stroke: #000000; stroke-width: 0.8"/>
      </g>
     </g>
     <g id="text_1">
      <!-- 0 -->
      <g transform="translate(80.206828 404.638438) scale(0.1 -0.1)">
       <defs>
        <path id="DejaVuSans-30" d="M 2034 4250 
Q 1547 4250 1301 3770 
Q 1056 3291 1056 2328 
Q 1056 1369 1301 889 
Q 1547 409 2034 409 
Q 2525 409 2770 889 
Q 3016 1369 3016 2328 
Q 3016 3291 2770 3770 
Q 2525 4250 2034 4250 
z
M 2034 4750 
Q 2819 4750 3233 4129 
Q 3647 3509 3647 2328 
Q 3647 1150 3233 529 
Q 2819 -91 2034 -91 
Q 1250 -91 836 529 
Q 422 1150 422 2328 
Q 422 3509 836 4129 
Q 1250 4750 2034 4750 
z
" transform="scale(0.015625)"/>
       </defs>
       <use xlink:href="#DejaVuSans-30"/>
      </g>
     </g>
    </g>
    <g id="xtick_2">
     <g id="line2d_3">
      <path d="M 192.027965 390.04 
L 192.027965 26.88 
" clip-path="url(#p3e5c3c016c)" style="fill: none; stroke: #b0b0b0; stroke-width: 0.8; stroke-linecap: square"/>
     </g>
     <g id="line2d_4">
      <g>
       <use xlink:href="#macd483e345" x="192.027965" y="390.04" style="stroke: #000000; stroke-width: 0.8"/>
      </g>
     </g>
     <g id="text_2">
      <!-- 10000 -->
      <g transform="translate(176.121715 404.638438) scale(0.1 -0.1)">
       <defs>
        <path id="DejaVuSans-31" d="M 794 531 
L 1825 531 
L 1825 4091 
L 703 3866 
L 703 4441 
L 1819 4666 
L 2450 4666 
L 2450 531 
L 3481 531 
L 3481 0 
L 794 0 
L 794 531 
z
" transform="scale(0.015625)"/>
       </defs>
       <use xlink:href="#DejaVuSans-31"/>
       <use xlink:href="#DejaVuSans-30" transform="translate(63.623047 0)"/>
       <use xlink:href="#DejaVuSans-30" transform="translate(127.246094 0)"/>
       <use xlink:href="#DejaVuSans-30" transform="translate(190.869141 0)"/>
       <use xlink:href="#DejaVuSans-30" transform="translate(254.492188 0)"/>
      </g>
     </g>
    </g>
    <g id="xtick_3">
     <g id="line2d_5">
      <path d="M 300.667852 390.04 
L 300.667852 26.88 
" clip-path="url(#p3e5c3c016c)" style="fill: none; stroke: #b0b0b0; stroke-width: 0.8; stroke-linecap: square"/>
     </g>
     <g id="line2d_6">
      <g>
       <use xlink:href="#macd483e345" x="300.667852" y="390.04" style="stroke: #000000; stroke-width: 0.8"/>
      </g>
     </g>
     <g id="text_3">
      <!-- 20000 -->
      <g transform="translate(284.761602 404.638438) scale(0.1 -0.1)">
       <defs>
        <path id="DejaVuSans-32" d="M 1228 531 
L 3431 531 
L 3431 0 
L 469 0 
L 469 531 
Q 828 903 1448 1529 
Q 2069 2156 2228 2338 
Q 2531 2678 2651 2914 
Q 2772 3150 2772 3378 
Q 2772 3750 2511 3984 
Q 2250 4219 1831 4219 
Q 1534 4219 1204 4116 
Q 875 4013 500 3803 
L 500 4441 
Q 881 4594 1212 4672 
Q 1544 4750 1819 4750 
Q 2544 4750 2975 4387 
Q 3406 4025 3406 3419 
Q 3406 3131 3298 2873 
Q 3191 2616 2906 2266 
Q 2828 2175 2409 1742 
Q 1991 1309 1228 531 
z
" transform="scale(0.015625)"/>
       </defs>
       <use xlink:href="#DejaVuSans-32"/>
       <use xlink:href="#DejaVuSans-30" transform="translate(63.623047 0)"/>
       <use xlink:href="#DejaVuSans-30" transform="translate(127.246094 0)"/>
       <use xlink:href="#DejaVuSans-30" transform="translate(190.869141 0)"/>
       <use xlink:href="#DejaVuSans-30" transform="translate(254.492188 0)"/>
      </g>
     </g>
    </g>
    <g id="xtick_4">
     <g id="line2d_7">
      <path d="M 409.307739 390.04 
L 409.307739 26.88 
" clip-path="url(#p3e5c3c016c)" style="fill: none; stroke: #b0b0b0; stroke-width: 0.8; stroke-linecap: square"/>
     </g>
     <g id="line2d_8">
      <g>
       <use xlink:href="#macd483e345" x="409.307739" y="390.04" style="stroke: #000000; stroke-width: 0.8"/>
      </g>
     </g>
     <g id="text_4">
      <!-- 30000 -->
      <g transform="translate(393.401489 404.638438) scale(0.1 -0.1)">
       <defs>
        <path id="DejaVuSans-33" d="M 2597 2516 
Q 3050 2419 3304 2112 
Q 3559 1806 3559 1356 
Q 3559 666 3084 287 
Q 2609 -91 1734 -91 
Q 1441 -91 1130 -33 
Q 819 25 488 141 
L 488 750 
Q 750 597 1062 519 
Q 1375 441 1716 441 
Q 2309 441 2620 675 
Q 2931 909 2931 1356 
Q 2931 1769 2642 2001 
Q 2353 2234 1838 2234 
L 1294 2234 
L 1294 2753 
L 1863 2753 
Q 2328 2753 2575 2939 
Q 2822 3125 2822 3475 
Q 2822 3834 2567 4026 
Q 2313 4219 1838 4219 
Q 1578 4219 1281 4162 
Q 984 4106 628 3988 
L 628 4550 
Q 988 4650 1302 4700 
Q 1616 4750 1894 4750 
Q 2613 4750 3031 4423 
Q 3450 4097 3450 3541 
Q 3450 3153 3228 2886 
Q 3006 2619 2597 2516 
z
" transform="scale(0.015625)"/>
       </defs>
       <use xlink:href="#DejaVuSans-33"/>
       <use xlink:href="#DejaVuSans-30" transform="translate(63.623047 0)"/>
       <use xlink:href="#DejaVuSans-30" transform="translate(127.246094 0)"/>
       <use xlink:href="#DejaVuSans-30" transform="translate(190.869141 0)"/>
       <use xlink:href="#DejaVuSans-30" transform="translate(254.492188 0)"/>
      </g>
     </g>
    </g>
    <g id="xtick_5">
     <g id="line2d_9">
      <path d="M 517.947626 390.04 
L 517.947626 26.88 
" clip-path="url(#p3e5c3c016c)" style="fill: none; stroke: #b0b0b0; stroke-width: 0.8; stroke-linecap: square"/>
     </g>
     <g id="line2d_10">
      <g>
       <use xlink:href="#macd483e345" x="517.947626" y="390.04" style="stroke: #000000; stroke-width: 0.8"/>
      </g>
     </g>
     <g id="text_5">
      <!-- 40000 -->
      <g transform="translate(502.041376 404.638438) scale(0.1 -0.1)">
       <defs>
        <path id="DejaVuSans-34" d="M 2419 4116 
L 825 1625 
L 2419 1625 
L 2419 4116 
z
M 2253 4666 
L 3047 4666 
L 3047 1625 
L 3713 1625 
L 3713 1100 
L 3047 1100 
L 3047 0 
L 2419 0 
L 2419 1100 
L 313 1100 
L 313 1709 
L 2253 4666 
z
" transform="scale(0.015625)"/>
       </defs>
       <use xlink:href="#DejaVuSans-34"/>
       <use xlink:href="#DejaVuSans-30" transform="translate(63.623047 0)"/>
       <use xlink:href="#DejaVuSans-30" transform="translate(127.246094 0)"/>
       <use xlink:href="#DejaVuSans-30" transform="translate(190.869141 0)"/>
       <use xlink:href="#DejaVuSans-30" transform="translate(254.492188 0)"/>
      </g>
     </g>
    </g>
    <g id="xtick_6">
     <g id="line2d_11">
      <path d="M 626.587514 390.04 
L 626.587514 26.88 
" clip-path="url(#p3e5c3c016c)" style="fill: none; stroke: #b0b0b0; stroke-width: 0.8; stroke-linecap: square"/>
     </g>
     <g id="line2d_12">
      <g>
       <use xlink:href="#macd483e345" x="626.587514" y="390.04" style="stroke: #000000; stroke-width: 0.8"/>
      </g>
     </g>
     <g id="text_6">
      <!-- 50000 -->
      <g transform="translate(610.681264 404.638438) scale(0.1 -0.1)">
       <defs>
        <path id="DejaVuSans-35" d="M 691 4666 
L 3169 4666 
L 3169 4134 
L 1269 4134 
L 1269 2991 
Q 1406 3038 1543 3061 
Q 1681 3084 1819 3084 
Q 2600 3084 3056 2656 
Q 3513 2228 3513 1497 
Q 3513 744 3044 326 
Q 2575 -91 1722 -91 
Q 1428 -91 1123 -41 
Q 819 9 494 109 
L 494 744 
Q 775 591 1075 516 
Q 1375 441 1709 441 
Q 2250 441 2565 725 
Q 2881 1009 2881 1497 
Q 2881 1984 2565 2268 
Q 2250 2553 1709 2553 
Q 1456 2553 1204 2497 
Q 953 2441 691 2322 
L 691 4666 
z
" transform="scale(0.015625)"/>
       </defs>
       <use xlink:href="#DejaVuSans-35"/>
       <use xlink:href="#DejaVuSans-30" transform="translate(63.623047 0)"/>
       <use xlink:href="#DejaVuSans-30" transform="translate(127.246094 0)"/>
       <use xlink:href="#DejaVuSans-30" transform="translate(190.869141 0)"/>
       <use xlink:href="#DejaVuSans-30" transform="translate(254.492188 0)"/>
      </g>
     </g>
    </g>
    <g id="text_7">
     <!-- Episode Number -->
     <g transform="translate(340.2975 418.316562) scale(0.1 -0.1)">
      <defs>
       <path id="DejaVuSans-45" d="M 628 4666 
L 3578 4666 
L 3578 4134 
L 1259 4134 
L 1259 2753 
L 3481 2753 
L 3481 2222 
L 1259 2222 
L 1259 531 
L 3634 531 
L 3634 0 
L 628 0 
L 628 4666 
z
" transform="scale(0.015625)"/>
       <path id="DejaVuSans-70" d="M 1159 525 
L 1159 -1331 
L 581 -1331 
L 581 3500 
L 1159 3500 
L 1159 2969 
Q 1341 3281 1617 3432 
Q 1894 3584 2278 3584 
Q 2916 3584 3314 3078 
Q 3713 2572 3713 1747 
Q 3713 922 3314 415 
Q 2916 -91 2278 -91 
Q 1894 -91 1617 61 
Q 1341 213 1159 525 
z
M 3116 1747 
Q 3116 2381 2855 2742 
Q 2594 3103 2138 3103 
Q 1681 3103 1420 2742 
Q 1159 2381 1159 1747 
Q 1159 1113 1420 752 
Q 1681 391 2138 391 
Q 2594 391 2855 752 
Q 3116 1113 3116 1747 
z
" transform="scale(0.015625)"/>
       <path id="DejaVuSans-69" d="M 603 3500 
L 1178 3500 
L 1178 0 
L 603 0 
L 603 3500 
z
M 603 4863 
L 1178 4863 
L 1178 4134 
L 603 4134 
L 603 4863 
z
" transform="scale(0.015625)"/>
       <path id="DejaVuSans-73" d="M 2834 3397 
L 2834 2853 
Q 2591 2978 2328 3040 
Q 2066 3103 1784 3103 
Q 1356 3103 1142 2972 
Q 928 2841 928 2578 
Q 928 2378 1081 2264 
Q 1234 2150 1697 2047 
L 1894 2003 
Q 2506 1872 2764 1633 
Q 3022 1394 3022 966 
Q 3022 478 2636 193 
Q 2250 -91 1575 -91 
Q 1294 -91 989 -36 
Q 684 19 347 128 
L 347 722 
Q 666 556 975 473 
Q 1284 391 1588 391 
Q 1994 391 2212 530 
Q 2431 669 2431 922 
Q 2431 1156 2273 1281 
Q 2116 1406 1581 1522 
L 1381 1569 
Q 847 1681 609 1914 
Q 372 2147 372 2553 
Q 372 3047 722 3315 
Q 1072 3584 1716 3584 
Q 2034 3584 2315 3537 
Q 2597 3491 2834 3397 
z
" transform="scale(0.015625)"/>
       <path id="DejaVuSans-6f" d="M 1959 3097 
Q 1497 3097 1228 2736 
Q 959 2375 959 1747 
Q 959 1119 1226 758 
Q 1494 397 1959 397 
Q 2419 397 2687 759 
Q 2956 1122 2956 1747 
Q 2956 2369 2687 2733 
Q 2419 3097 1959 3097 
z
M 1959 3584 
Q 2709 3584 3137 3096 
Q 3566 2609 3566 1747 
Q 3566 888 3137 398 
Q 2709 -91 1959 -91 
Q 1206 -91 779 398 
Q 353 888 353 1747 
Q 353 2609 779 3096 
Q 1206 3584 1959 3584 
z
" transform="scale(0.015625)"/>
       <path id="DejaVuSans-64" d="M 2906 2969 
L 2906 4863 
L 3481 4863 
L 3481 0 
L 2906 0 
L 2906 525 
Q 2725 213 2448 61 
Q 2172 -91 1784 -91 
Q 1150 -91 751 415 
Q 353 922 353 1747 
Q 353 2572 751 3078 
Q 1150 3584 1784 3584 
Q 2172 3584 2448 3432 
Q 2725 3281 2906 2969 
z
M 947 1747 
Q 947 1113 1208 752 
Q 1469 391 1925 391 
Q 2381 391 2643 752 
Q 2906 1113 2906 1747 
Q 2906 2381 2643 2742 
Q 2381 3103 1925 3103 
Q 1469 3103 1208 2742 
Q 947 2381 947 1747 
z
" transform="scale(0.015625)"/>
       <path id="DejaVuSans-65" d="M 3597 1894 
L 3597 1613 
L 953 1613 
Q 991 1019 1311 708 
Q 1631 397 2203 397 
Q 2534 397 2845 478 
Q 3156 559 3463 722 
L 3463 178 
Q 3153 47 2828 -22 
Q 2503 -91 2169 -91 
Q 1331 -91 842 396 
Q 353 884 353 1716 
Q 353 2575 817 3079 
Q 1281 3584 2069 3584 
Q 2775 3584 3186 3129 
Q 3597 2675 3597 1894 
z
M 3022 2063 
Q 3016 2534 2758 2815 
Q 2500 3097 2075 3097 
Q 1594 3097 1305 2825 
Q 1016 2553 972 2059 
L 3022 2063 
z
" transform="scale(0.015625)"/>
       <path id="DejaVuSans-20" transform="scale(0.015625)"/>
       <path id="DejaVuSans-4e" d="M 628 4666 
L 1478 4666 
L 3547 763 
L 3547 4666 
L 4159 4666 
L 4159 0 
L 3309 0 
L 1241 3903 
L 1241 0 
L 628 0 
L 628 4666 
z
" transform="scale(0.015625)"/>
       <path id="DejaVuSans-75" d="M 544 1381 
L 544 3500 
L 1119 3500 
L 1119 1403 
Q 1119 906 1312 657 
Q 1506 409 1894 409 
Q 2359 409 2629 706 
Q 2900 1003 2900 1516 
L 2900 3500 
L 3475 3500 
L 3475 0 
L 2900 0 
L 2900 538 
Q 2691 219 2414 64 
Q 2138 -91 1772 -91 
Q 1169 -91 856 284 
Q 544 659 544 1381 
z
M 1991 3584 
L 1991 3584 
z
" transform="scale(0.015625)"/>
       <path id="DejaVuSans-6d" d="M 3328 2828 
Q 3544 3216 3844 3400 
Q 4144 3584 4550 3584 
Q 5097 3584 5394 3201 
Q 5691 2819 5691 2113 
L 5691 0 
L 5113 0 
L 5113 2094 
Q 5113 2597 4934 2840 
Q 4756 3084 4391 3084 
Q 3944 3084 3684 2787 
Q 3425 2491 3425 1978 
L 3425 0 
L 2847 0 
L 2847 2094 
Q 2847 2600 2669 2842 
Q 2491 3084 2119 3084 
Q 1678 3084 1418 2786 
Q 1159 2488 1159 1978 
L 1159 0 
L 581 0 
L 581 3500 
L 1159 3500 
L 1159 2956 
Q 1356 3278 1631 3431 
Q 1906 3584 2284 3584 
Q 2666 3584 2933 3390 
Q 3200 3197 3328 2828 
z
" transform="scale(0.015625)"/>
       <path id="DejaVuSans-62" d="M 3116 1747 
Q 3116 2381 2855 2742 
Q 2594 3103 2138 3103 
Q 1681 3103 1420 2742 
Q 1159 2381 1159 1747 
Q 1159 1113 1420 752 
Q 1681 391 2138 391 
Q 2594 391 2855 752 
Q 3116 1113 3116 1747 
z
M 1159 2969 
Q 1341 3281 1617 3432 
Q 1894 3584 2278 3584 
Q 2916 3584 3314 3078 
Q 3713 2572 3713 1747 
Q 3713 922 3314 415 
Q 2916 -91 2278 -91 
Q 1894 -91 1617 61 
Q 1341 213 1159 525 
L 1159 0 
L 581 0 
L 581 4863 
L 1159 4863 
L 1159 2969 
z
" transform="scale(0.015625)"/>
       <path id="DejaVuSans-72" d="M 2631 2963 
Q 2534 3019 2420 3045 
Q 2306 3072 2169 3072 
Q 1681 3072 1420 2755 
Q 1159 2438 1159 1844 
L 1159 0 
L 581 0 
L 581 3500 
L 1159 3500 
L 1159 2956 
Q 1341 3275 1631 3429 
Q 1922 3584 2338 3584 
Q 2397 3584 2469 3576 
Q 2541 3569 2628 3553 
L 2631 2963 
z
" transform="scale(0.015625)"/>
      </defs>
      <use xlink:href="#DejaVuSans-45"/>
      <use xlink:href="#DejaVuSans-70" transform="translate(63.183594 0)"/>
      <use xlink:href="#DejaVuSans-69" transform="translate(126.660156 0)"/>
      <use xlink:href="#DejaVuSans-73" transform="translate(154.443359 0)"/>
      <use xlink:href="#DejaVuSans-6f" transform="translate(206.542969 0)"/>
      <use xlink:href="#DejaVuSans-64" transform="translate(267.724609 0)"/>
      <use xlink:href="#DejaVuSans-65" transform="translate(331.201172 0)"/>
      <use xlink:href="#DejaVuSans-20" transform="translate(392.724609 0)"/>
      <use xlink:href="#DejaVuSans-4e" transform="translate(424.511719 0)"/>
      <use xlink:href="#DejaVuSans-75" transform="translate(499.316406 0)"/>
      <use xlink:href="#DejaVuSans-6d" transform="translate(562.695312 0)"/>
      <use xlink:href="#DejaVuSans-62" transform="translate(660.107422 0)"/>
      <use xlink:href="#DejaVuSans-65" transform="translate(723.583984 0)"/>
      <use xlink:href="#DejaVuSans-72" transform="translate(785.107422 0)"/>
     </g>
    </g>
   </g>
   <g id="matplotlib.axis_2">
    <g id="ytick_1">
     <g id="line2d_13">
      <path d="M 54.02 350.575593 
L 709.2 350.575593 
" clip-path="url(#p3e5c3c016c)" style="fill: none; stroke: #b0b0b0; stroke-width: 0.8; stroke-linecap: square"/>
     </g>
     <g id="line2d_14">
      <defs>
       <path id="mc4825095d8" d="M 0 0 
L -3.5 0 
" style="stroke: #000000; stroke-width: 0.8"/>
      </defs>
      <g>
       <use xlink:href="#mc4825095d8" x="54.02" y="350.575593" style="stroke: #000000; stroke-width: 0.8"/>
      </g>
     </g>
     <g id="text_8">
      <!-- 6.50 -->
      <g transform="translate(24.754375 354.374812) scale(0.1 -0.1)">
       <defs>
        <path id="DejaVuSans-36" d="M 2113 2584 
Q 1688 2584 1439 2293 
Q 1191 2003 1191 1497 
Q 1191 994 1439 701 
Q 1688 409 2113 409 
Q 2538 409 2786 701 
Q 3034 994 3034 1497 
Q 3034 2003 2786 2293 
Q 2538 2584 2113 2584 
z
M 3366 4563 
L 3366 3988 
Q 3128 4100 2886 4159 
Q 2644 4219 2406 4219 
Q 1781 4219 1451 3797 
Q 1122 3375 1075 2522 
Q 1259 2794 1537 2939 
Q 1816 3084 2150 3084 
Q 2853 3084 3261 2657 
Q 3669 2231 3669 1497 
Q 3669 778 3244 343 
Q 2819 -91 2113 -91 
Q 1303 -91 875 529 
Q 447 1150 447 2328 
Q 447 3434 972 4092 
Q 1497 4750 2381 4750 
Q 2619 4750 2861 4703 
Q 3103 4656 3366 4563 
z
" transform="scale(0.015625)"/>
        <path id="DejaVuSans-2e" d="M 684 794 
L 1344 794 
L 1344 0 
L 684 0 
L 684 794 
z
" transform="scale(0.015625)"/>
       </defs>
       <use xlink:href="#DejaVuSans-36"/>
       <use xlink:href="#DejaVuSans-2e" transform="translate(63.623047 0)"/>
       <use xlink:href="#DejaVuSans-35" transform="translate(95.410156 0)"/>
       <use xlink:href="#DejaVuSans-30" transform="translate(159.033203 0)"/>
      </g>
     </g>
    </g>
    <g id="ytick_2">
     <g id="line2d_15">
      <path d="M 54.02 309.58071 
L 709.2 309.58071 
" clip-path="url(#p3e5c3c016c)" style="fill: none; stroke: #b0b0b0; stroke-width: 0.8; stroke-linecap: square"/>
     </g>
     <g id="line2d_16">
      <g>
       <use xlink:href="#mc4825095d8" x="54.02" y="309.58071" style="stroke: #000000; stroke-width: 0.8"/>
      </g>
     </g>
     <g id="text_9">
      <!-- 6.75 -->
      <g transform="translate(24.754375 313.379929) scale(0.1 -0.1)">
       <defs>
        <path id="DejaVuSans-37" d="M 525 4666 
L 3525 4666 
L 3525 4397 
L 1831 0 
L 1172 0 
L 2766 4134 
L 525 4134 
L 525 4666 
z
" transform="scale(0.015625)"/>
       </defs>
       <use xlink:href="#DejaVuSans-36"/>
       <use xlink:href="#DejaVuSans-2e" transform="translate(63.623047 0)"/>
       <use xlink:href="#DejaVuSans-37" transform="translate(95.410156 0)"/>
       <use xlink:href="#DejaVuSans-35" transform="translate(159.033203 0)"/>
      </g>
     </g>
    </g>
    <g id="ytick_3">
     <g id="line2d_17">
      <path d="M 54.02 268.585828 
L 709.2 268.585828 
" clip-path="url(#p3e5c3c016c)" style="fill: none; stroke: #b0b0b0; stroke-width: 0.8; stroke-linecap: square"/>
     </g>
     <g id="line2d_18">
      <g>
       <use xlink:href="#mc4825095d8" x="54.02" y="268.585828" style="stroke: #000000; stroke-width: 0.8"/>
      </g>
     </g>
     <g id="text_10">
      <!-- 7.00 -->
      <g transform="translate(24.754375 272.385047) scale(0.1 -0.1)">
       <use xlink:href="#DejaVuSans-37"/>
       <use xlink:href="#DejaVuSans-2e" transform="translate(63.623047 0)"/>
       <use xlink:href="#DejaVuSans-30" transform="translate(95.410156 0)"/>
       <use xlink:href="#DejaVuSans-30" transform="translate(159.033203 0)"/>
      </g>
     </g>
    </g>
    <g id="ytick_4">
     <g id="line2d_19">
      <path d="M 54.02 227.590945 
L 709.2 227.590945 
" clip-path="url(#p3e5c3c016c)" style="fill: none; stroke: #b0b0b0; stroke-width: 0.8; stroke-linecap: square"/>
     </g>
     <g id="line2d_20">
      <g>
       <use xlink:href="#mc4825095d8" x="54.02" y="227.590945" style="stroke: #000000; stroke-width: 0.8"/>
      </g>
     </g>
     <g id="text_11">
      <!-- 7.25 -->
      <g transform="translate(24.754375 231.390164) scale(0.1 -0.1)">
       <use xlink:href="#DejaVuSans-37"/>
       <use xlink:href="#DejaVuSans-2e" transform="translate(63.623047 0)"/>
       <use xlink:href="#DejaVuSans-32" transform="translate(95.410156 0)"/>
       <use xlink:href="#DejaVuSans-35" transform="translate(159.033203 0)"/>
      </g>
     </g>
    </g>
    <g id="ytick_5">
     <g id="line2d_21">
      <path d="M 54.02 186.596063 
L 709.2 186.596063 
" clip-path="url(#p3e5c3c016c)" style="fill: none; stroke: #b0b0b0; stroke-width: 0.8; stroke-linecap: square"/>
     </g>
     <g id="line2d_22">
      <g>
       <use xlink:href="#mc4825095d8" x="54.02" y="186.596063" style="stroke: #000000; stroke-width: 0.8"/>
      </g>
     </g>
     <g id="text_12">
      <!-- 7.50 -->
      <g transform="translate(24.754375 190.395281) scale(0.1 -0.1)">
       <use xlink:href="#DejaVuSans-37"/>
       <use xlink:href="#DejaVuSans-2e" transform="translate(63.623047 0)"/>
       <use xlink:href="#DejaVuSans-35" transform="translate(95.410156 0)"/>
       <use xlink:href="#DejaVuSans-30" transform="translate(159.033203 0)"/>
      </g>
     </g>
    </g>
    <g id="ytick_6">
     <g id="line2d_23">
      <path d="M 54.02 145.60118 
L 709.2 145.60118 
" clip-path="url(#p3e5c3c016c)" style="fill: none; stroke: #b0b0b0; stroke-width: 0.8; stroke-linecap: square"/>
     </g>
     <g id="line2d_24">
      <g>
       <use xlink:href="#mc4825095d8" x="54.02" y="145.60118" style="stroke: #000000; stroke-width: 0.8"/>
      </g>
     </g>
     <g id="text_13">
      <!-- 7.75 -->
      <g transform="translate(24.754375 149.400399) scale(0.1 -0.1)">
       <use xlink:href="#DejaVuSans-37"/>
       <use xlink:href="#DejaVuSans-2e" transform="translate(63.623047 0)"/>
       <use xlink:href="#DejaVuSans-37" transform="translate(95.410156 0)"/>
       <use xlink:href="#DejaVuSans-35" transform="translate(159.033203 0)"/>
      </g>
     </g>
    </g>
    <g id="ytick_7">
     <g id="line2d_25">
      <path d="M 54.02 104.606297 
L 709.2 104.606297 
" clip-path="url(#p3e5c3c016c)" style="fill: none; stroke: #b0b0b0; stroke-width: 0.8; stroke-linecap: square"/>
     </g>
     <g id="line2d_26">
      <g>
       <use xlink:href="#mc4825095d8" x="54.02" y="104.606297" style="stroke: #000000; stroke-width: 0.8"/>
      </g>
     </g>
     <g id="text_14">
      <!-- 8.00 -->
      <g transform="translate(24.754375 108.405516) scale(0.1 -0.1)">
       <defs>
        <path id="DejaVuSans-38" d="M 2034 2216 
Q 1584 2216 1326 1975 
Q 1069 1734 1069 1313 
Q 1069 891 1326 650 
Q 1584 409 2034 409 
Q 2484 409 2743 651 
Q 3003 894 3003 1313 
Q 3003 1734 2745 1975 
Q 2488 2216 2034 2216 
z
M 1403 2484 
Q 997 2584 770 2862 
Q 544 3141 544 3541 
Q 544 4100 942 4425 
Q 1341 4750 2034 4750 
Q 2731 4750 3128 4425 
Q 3525 4100 3525 3541 
Q 3525 3141 3298 2862 
Q 3072 2584 2669 2484 
Q 3125 2378 3379 2068 
Q 3634 1759 3634 1313 
Q 3634 634 3220 271 
Q 2806 -91 2034 -91 
Q 1263 -91 848 271 
Q 434 634 434 1313 
Q 434 1759 690 2068 
Q 947 2378 1403 2484 
z
M 1172 3481 
Q 1172 3119 1398 2916 
Q 1625 2713 2034 2713 
Q 2441 2713 2670 2916 
Q 2900 3119 2900 3481 
Q 2900 3844 2670 4047 
Q 2441 4250 2034 4250 
Q 1625 4250 1398 4047 
Q 1172 3844 1172 3481 
z
" transform="scale(0.015625)"/>
       </defs>
       <use xlink:href="#DejaVuSans-38"/>
       <use xlink:href="#DejaVuSans-2e" transform="translate(63.623047 0)"/>
       <use xlink:href="#DejaVuSans-30" transform="translate(95.410156 0)"/>
       <use xlink:href="#DejaVuSans-30" transform="translate(159.033203 0)"/>
      </g>
     </g>
    </g>
    <g id="ytick_8">
     <g id="line2d_27">
      <path d="M 54.02 63.611415 
L 709.2 63.611415 
" clip-path="url(#p3e5c3c016c)" style="fill: none; stroke: #b0b0b0; stroke-width: 0.8; stroke-linecap: square"/>
     </g>
     <g id="line2d_28">
      <g>
       <use xlink:href="#mc4825095d8" x="54.02" y="63.611415" style="stroke: #000000; stroke-width: 0.8"/>
      </g>
     </g>
     <g id="text_15">
      <!-- 8.25 -->
      <g transform="translate(24.754375 67.410634) scale(0.1 -0.1)">
       <use xlink:href="#DejaVuSans-38"/>
       <use xlink:href="#DejaVuSans-2e" transform="translate(63.623047 0)"/>
       <use xlink:href="#DejaVuSans-32" transform="translate(95.410156 0)"/>
       <use xlink:href="#DejaVuSans-35" transform="translate(159.033203 0)"/>
      </g>
     </g>
    </g>
    <g id="text_16">
     <!-- Quantum Gates used per Episode -->
     <g transform="translate(18.674688 292.700625) rotate(-90) scale(0.1 -0.1)">
      <defs>
       <path id="DejaVuSans-51" d="M 2522 4238 
Q 1834 4238 1429 3725 
Q 1025 3213 1025 2328 
Q 1025 1447 1429 934 
Q 1834 422 2522 422 
Q 3209 422 3611 934 
Q 4013 1447 4013 2328 
Q 4013 3213 3611 3725 
Q 3209 4238 2522 4238 
z
M 3406 84 
L 4238 -825 
L 3475 -825 
L 2784 -78 
Q 2681 -84 2626 -87 
Q 2572 -91 2522 -91 
Q 1538 -91 948 567 
Q 359 1225 359 2328 
Q 359 3434 948 4092 
Q 1538 4750 2522 4750 
Q 3503 4750 4090 4092 
Q 4678 3434 4678 2328 
Q 4678 1516 4351 937 
Q 4025 359 3406 84 
z
" transform="scale(0.015625)"/>
       <path id="DejaVuSans-61" d="M 2194 1759 
Q 1497 1759 1228 1600 
Q 959 1441 959 1056 
Q 959 750 1161 570 
Q 1363 391 1709 391 
Q 2188 391 2477 730 
Q 2766 1069 2766 1631 
L 2766 1759 
L 2194 1759 
z
M 3341 1997 
L 3341 0 
L 2766 0 
L 2766 531 
Q 2569 213 2275 61 
Q 1981 -91 1556 -91 
Q 1019 -91 701 211 
Q 384 513 384 1019 
Q 384 1609 779 1909 
Q 1175 2209 1959 2209 
L 2766 2209 
L 2766 2266 
Q 2766 2663 2505 2880 
Q 2244 3097 1772 3097 
Q 1472 3097 1187 3025 
Q 903 2953 641 2809 
L 641 3341 
Q 956 3463 1253 3523 
Q 1550 3584 1831 3584 
Q 2591 3584 2966 3190 
Q 3341 2797 3341 1997 
z
" transform="scale(0.015625)"/>
       <path id="DejaVuSans-6e" d="M 3513 2113 
L 3513 0 
L 2938 0 
L 2938 2094 
Q 2938 2591 2744 2837 
Q 2550 3084 2163 3084 
Q 1697 3084 1428 2787 
Q 1159 2491 1159 1978 
L 1159 0 
L 581 0 
L 581 3500 
L 1159 3500 
L 1159 2956 
Q 1366 3272 1645 3428 
Q 1925 3584 2291 3584 
Q 2894 3584 3203 3211 
Q 3513 2838 3513 2113 
z
" transform="scale(0.015625)"/>
       <path id="DejaVuSans-74" d="M 1172 4494 
L 1172 3500 
L 2356 3500 
L 2356 3053 
L 1172 3053 
L 1172 1153 
Q 1172 725 1289 603 
Q 1406 481 1766 481 
L 2356 481 
L 2356 0 
L 1766 0 
Q 1100 0 847 248 
Q 594 497 594 1153 
L 594 3053 
L 172 3053 
L 172 3500 
L 594 3500 
L 594 4494 
L 1172 4494 
z
" transform="scale(0.015625)"/>
       <path id="DejaVuSans-47" d="M 3809 666 
L 3809 1919 
L 2778 1919 
L 2778 2438 
L 4434 2438 
L 4434 434 
Q 4069 175 3628 42 
Q 3188 -91 2688 -91 
Q 1594 -91 976 548 
Q 359 1188 359 2328 
Q 359 3472 976 4111 
Q 1594 4750 2688 4750 
Q 3144 4750 3555 4637 
Q 3966 4525 4313 4306 
L 4313 3634 
Q 3963 3931 3569 4081 
Q 3175 4231 2741 4231 
Q 1884 4231 1454 3753 
Q 1025 3275 1025 2328 
Q 1025 1384 1454 906 
Q 1884 428 2741 428 
Q 3075 428 3337 486 
Q 3600 544 3809 666 
z
" transform="scale(0.015625)"/>
      </defs>
      <use xlink:href="#DejaVuSans-51"/>
      <use xlink:href="#DejaVuSans-75" transform="translate(78.710938 0)"/>
      <use xlink:href="#DejaVuSans-61" transform="translate(142.089844 0)"/>
      <use xlink:href="#DejaVuSans-6e" transform="translate(203.369141 0)"/>
      <use xlink:href="#DejaVuSans-74" transform="translate(266.748047 0)"/>
      <use xlink:href="#DejaVuSans-75" transform="translate(305.957031 0)"/>
      <use xlink:href="#DejaVuSans-6d" transform="translate(369.335938 0)"/>
      <use xlink:href="#DejaVuSans-20" transform="translate(466.748047 0)"/>
      <use xlink:href="#DejaVuSans-47" transform="translate(498.535156 0)"/>
      <use xlink:href="#DejaVuSans-61" transform="translate(576.025391 0)"/>
      <use xlink:href="#DejaVuSans-74" transform="translate(637.304688 0)"/>
      <use xlink:href="#DejaVuSans-65" transform="translate(676.513672 0)"/>
      <use xlink:href="#DejaVuSans-73" transform="translate(738.037109 0)"/>
      <use xlink:href="#DejaVuSans-20" transform="translate(790.136719 0)"/>
      <use xlink:href="#DejaVuSans-75" transform="translate(821.923828 0)"/>
      <use xlink:href="#DejaVuSans-73" transform="translate(885.302734 0)"/>
      <use xlink:href="#DejaVuSans-65" transform="translate(937.402344 0)"/>
      <use xlink:href="#DejaVuSans-64" transform="translate(998.925781 0)"/>
      <use xlink:href="#DejaVuSans-20" transform="translate(1062.402344 0)"/>
      <use xlink:href="#DejaVuSans-70" transform="translate(1094.189453 0)"/>
      <use xlink:href="#DejaVuSans-65" transform="translate(1157.666016 0)"/>
      <use xlink:href="#DejaVuSans-72" transform="translate(1219.189453 0)"/>
      <use xlink:href="#DejaVuSans-20" transform="translate(1260.302734 0)"/>
      <use xlink:href="#DejaVuSans-45" transform="translate(1292.089844 0)"/>
      <use xlink:href="#DejaVuSans-70" transform="translate(1355.273438 0)"/>
      <use xlink:href="#DejaVuSans-69" transform="translate(1418.75 0)"/>
      <use xlink:href="#DejaVuSans-73" transform="translate(1446.533203 0)"/>
      <use xlink:href="#DejaVuSans-6f" transform="translate(1498.632812 0)"/>
      <use xlink:href="#DejaVuSans-64" transform="translate(1559.814453 0)"/>
      <use xlink:href="#DejaVuSans-65" transform="translate(1623.291016 0)"/>
     </g>
    </g>
   </g>
   <g id="line2d_29">
    <path d="M 83.800909 143.961385 
L 84.615708 198.621228 
L 85.430507 126.470235 
L 86.245307 178.943685 
L 87.060106 283.890584 
L 87.874905 259.840253 
L 88.689704 268.585828 
L 89.504503 259.840253 
L 90.319302 235.789922 
L 91.134101 178.943685 
L 91.948901 202.994016 
L 92.7637 264.21304 
L 93.578499 251.094678 
L 94.393298 113.351872 
L 95.208097 209.553197 
L 96.022896 185.502866 
L 96.837696 150.520566 
L 97.652495 283.890584 
L 99.282093 172.384503 
L 100.096892 170.19811 
L 100.911691 242.349103 
L 101.72649 209.553197 
L 102.54129 165.825322 
L 103.356089 65.25121 
L 104.170888 211.739591 
L 104.985687 262.026647 
L 105.800486 246.72189 
L 106.615285 183.316472 
L 107.430085 216.112378 
L 108.244884 189.875653 
L 109.059683 216.112378 
L 109.874482 224.857953 
L 110.689281 264.21304 
L 111.50408 176.757291 
L 112.318879 310.127309 
L 113.133679 318.872884 
L 113.948478 146.147778 
L 114.763277 211.739591 
L 115.578076 104.606297 
L 116.392875 172.384503 
L 117.207674 209.553197 
L 118.022474 264.21304 
L 118.837273 124.283841 
L 119.652072 286.076978 
L 120.466871 216.112378 
L 121.28167 251.094678 
L 122.096469 209.553197 
L 122.911268 224.857953 
L 123.726068 135.21581 
L 124.540867 192.062047 
L 125.355666 316.68649 
L 126.170465 325.432065 
L 126.985264 255.467465 
L 127.800063 264.21304 
L 128.614863 305.754521 
L 129.429662 229.230741 
L 130.244461 189.875653 
L 131.05926 143.961385 
L 131.874059 233.603528 
L 132.688858 192.062047 
L 133.503658 207.366803 
L 134.318457 172.384503 
L 135.133256 246.72189 
L 135.948055 233.603528 
L 136.762854 192.062047 
L 137.577653 237.976315 
L 138.392452 205.180409 
L 139.207252 216.112378 
L 140.022051 174.570897 
L 140.83685 124.283841 
L 141.651649 224.857953 
L 142.466448 128.656629 
L 143.281247 104.606297 
L 144.096047 281.70419 
L 144.910846 196.434834 
L 145.725645 270.772222 
L 146.540444 235.789922 
L 147.355243 183.316472 
L 148.170042 205.180409 
L 148.984841 246.72189 
L 149.799641 185.502866 
L 150.61444 242.349103 
L 151.429239 150.520566 
L 152.244038 314.500096 
L 153.058837 207.366803 
L 153.873636 266.399434 
L 154.688436 233.603528 
L 155.503235 299.19534 
L 156.318034 211.739591 
L 157.132833 259.840253 
L 157.947632 152.70696 
L 158.762431 233.603528 
L 159.57723 270.772222 
L 160.39203 211.739591 
L 161.206829 200.807622 
L 162.021628 257.653859 
L 162.836427 205.180409 
L 163.651226 194.248441 
L 164.466025 270.772222 
L 165.280825 189.875653 
L 166.095624 202.994016 
L 166.910423 189.875653 
L 167.725222 200.807622 
L 168.540021 170.19811 
L 169.35482 205.180409 
L 170.169619 194.248441 
L 170.984419 187.689259 
L 171.799218 231.417134 
L 172.614017 264.21304 
L 173.428816 222.671559 
L 174.243615 172.384503 
L 175.058414 279.517797 
L 175.873214 198.621228 
L 177.502812 286.076978 
L 178.317611 231.417134 
L 179.13241 229.230741 
L 179.947209 316.68649 
L 181.576808 229.230741 
L 182.391607 240.162709 
L 183.206406 248.908284 
L 184.021205 220.485166 
L 184.836004 266.399434 
L 185.650803 231.417134 
L 186.465603 222.671559 
L 187.280402 200.807622 
L 188.095201 211.739591 
L 188.91 229.230741 
L 189.724799 187.689259 
L 190.539598 213.925984 
L 191.354397 135.21581 
L 192.169197 233.603528 
L 192.983996 224.857953 
L 193.798795 198.621228 
L 195.428393 224.857953 
L 196.243192 196.434834 
L 197.057992 251.094678 
L 197.872791 194.248441 
L 198.68759 227.044347 
L 199.502389 268.585828 
L 200.317188 244.535497 
L 201.131987 168.011716 
L 201.946786 122.097447 
L 202.761586 218.298772 
L 203.576385 233.603528 
L 204.391184 255.467465 
L 205.205983 148.334172 
L 206.020782 275.145009 
L 206.835581 336.364034 
L 207.650381 277.331403 
L 208.46518 229.230741 
L 209.279979 227.044347 
L 210.094778 242.349103 
L 210.909577 216.112378 
L 211.724376 202.994016 
L 212.539175 237.976315 
L 213.353975 176.757291 
L 214.168774 318.872884 
L 214.983573 196.434834 
L 215.798372 297.008946 
L 216.613171 314.500096 
L 217.42797 113.351872 
L 218.24277 196.434834 
L 219.057569 314.500096 
L 219.872368 209.553197 
L 220.687167 159.266141 
L 221.501966 146.147778 
L 222.316765 277.331403 
L 223.131564 316.68649 
L 223.946364 257.653859 
L 224.761163 257.653859 
L 226.390761 119.911054 
L 227.20556 248.908284 
L 228.020359 255.467465 
L 228.835159 170.19811 
L 229.649958 150.520566 
L 230.464757 286.076978 
L 231.279556 237.976315 
L 232.094355 216.112378 
L 232.909154 209.553197 
L 233.723953 301.381734 
L 234.538753 303.568128 
L 235.353552 272.958615 
L 236.168351 163.638928 
L 236.98315 235.789922 
L 237.797949 194.248441 
L 238.612748 281.70419 
L 239.427548 202.994016 
L 240.242347 336.364034 
L 241.057146 364.787152 
L 241.871945 211.739591 
L 243.501543 290.449765 
L 244.316342 159.266141 
L 245.131142 268.585828 
L 245.945941 163.638928 
L 246.76074 202.994016 
L 247.575539 87.115148 
L 248.390338 117.72466 
L 249.205137 192.062047 
L 250.019937 235.789922 
L 250.834736 150.520566 
L 251.649535 196.434834 
L 252.464334 275.145009 
L 253.279133 248.908284 
L 254.093932 178.943685 
L 254.908732 148.334172 
L 255.723531 102.419904 
L 256.53833 126.470235 
L 257.353129 325.432065 
L 258.167928 235.789922 
L 258.982727 277.331403 
L 259.797526 157.079747 
L 260.612326 192.062047 
L 261.427125 178.943685 
L 262.241924 183.316472 
L 263.056723 216.112378 
L 263.871522 266.399434 
L 264.686321 294.822553 
L 265.501121 117.72466 
L 266.31592 231.417134 
L 267.130719 242.349103 
L 267.945518 229.230741 
L 268.760317 281.70419 
L 269.575116 251.094678 
L 270.389915 244.535497 
L 271.204715 224.857953 
L 272.019514 128.656629 
L 272.834313 213.925984 
L 273.649112 157.079747 
L 274.463911 209.553197 
L 275.27871 240.162709 
L 276.09351 209.553197 
L 276.908309 211.739591 
L 277.723108 266.399434 
L 278.537907 216.112378 
L 279.352706 290.449765 
L 280.167505 187.689259 
L 280.982304 272.958615 
L 281.797104 257.653859 
L 282.611903 218.298772 
L 283.426702 244.535497 
L 284.241501 161.452535 
L 285.0563 200.807622 
L 285.871099 220.485166 
L 286.685899 358.227971 
L 287.500698 338.550427 
L 288.315497 290.449765 
L 289.130296 183.316472 
L 289.945095 233.603528 
L 290.759894 233.603528 
L 291.574693 176.757291 
L 292.389493 312.313703 
L 293.204292 233.603528 
L 294.019091 275.145009 
L 294.83389 194.248441 
L 295.648689 172.384503 
L 296.463488 329.804852 
L 297.278288 233.603528 
L 298.093087 299.19534 
L 298.907886 242.349103 
L 299.722685 233.603528 
L 300.537484 294.822553 
L 301.352283 248.908284 
L 302.167082 218.298772 
L 302.981882 172.384503 
L 303.796681 277.331403 
L 304.61148 347.296002 
L 305.426279 262.026647 
L 306.241078 152.70696 
L 307.055877 240.162709 
L 307.870677 303.568128 
L 308.685476 139.588597 
L 309.500275 272.958615 
L 310.315074 270.772222 
L 311.129873 242.349103 
L 311.944672 301.381734 
L 312.759471 231.417134 
L 313.574271 299.19534 
L 314.38907 128.656629 
L 315.203869 244.535497 
L 316.018668 196.434834 
L 316.833467 222.671559 
L 317.648266 194.248441 
L 318.463066 235.789922 
L 319.277865 286.076978 
L 320.092664 279.517797 
L 320.907463 262.026647 
L 321.722262 135.21581 
L 322.537061 237.976315 
L 323.35186 235.789922 
L 324.16666 327.618459 
L 324.981459 257.653859 
L 325.796258 248.908284 
L 326.611057 220.485166 
L 327.425856 297.008946 
L 328.240655 251.094678 
L 329.055455 268.585828 
L 329.870254 168.011716 
L 330.685053 181.130078 
L 331.499852 220.485166 
L 332.314651 211.739591 
L 333.12945 233.603528 
L 333.944249 161.452535 
L 334.759049 211.739591 
L 335.573848 272.958615 
L 336.388647 218.298772 
L 337.203446 318.872884 
L 338.018245 185.502866 
L 338.833044 178.943685 
L 339.647844 312.313703 
L 340.462643 246.72189 
L 341.277442 200.807622 
L 342.092241 207.366803 
L 342.90704 255.467465 
L 343.721839 220.485166 
L 344.536638 270.772222 
L 345.351438 264.21304 
L 346.166237 207.366803 
L 346.981036 159.266141 
L 347.795835 170.19811 
L 348.610634 253.281072 
L 349.425433 183.316472 
L 350.240233 283.890584 
L 351.055032 227.044347 
L 351.869831 192.062047 
L 352.68463 224.857953 
L 353.499429 246.72189 
L 354.314228 262.026647 
L 355.129027 281.70419 
L 356.758626 205.180409 
L 357.573425 231.417134 
L 358.388224 303.568128 
L 359.203023 251.094678 
L 360.017822 58.692029 
L 360.832622 159.266141 
L 361.647421 178.943685 
L 362.46222 270.772222 
L 363.277019 336.364034 
L 364.091818 95.860722 
L 364.906617 80.555966 
L 365.721416 253.281072 
L 366.536216 222.671559 
L 367.351015 259.840253 
L 368.165814 192.062047 
L 368.980613 248.908284 
L 369.795412 143.961385 
L 370.610211 224.857953 
L 371.425011 163.638928 
L 372.23981 251.094678 
L 373.054609 187.689259 
L 373.869408 157.079747 
L 374.684207 185.502866 
L 375.499006 189.875653 
L 376.313805 242.349103 
L 377.128605 248.908284 
L 377.943404 80.555966 
L 378.758203 192.062047 
L 379.573002 235.789922 
L 380.387801 194.248441 
L 381.2026 222.671559 
L 382.0174 165.825322 
L 382.832199 185.502866 
L 383.646998 279.517797 
L 384.461797 209.553197 
L 385.276596 246.72189 
L 386.091395 266.399434 
L 386.906195 194.248441 
L 387.720994 211.739591 
L 388.535793 172.384503 
L 389.350592 292.636159 
L 390.165391 220.485166 
L 390.98019 229.230741 
L 391.794989 133.029416 
L 392.609789 170.19811 
L 393.424588 255.467465 
L 394.239387 143.961385 
L 395.054186 244.535497 
L 395.868985 314.500096 
L 396.683784 216.112378 
L 397.498584 163.638928 
L 398.313383 303.568128 
L 399.128182 189.875653 
L 399.942981 329.804852 
L 400.75778 95.860722 
L 401.572579 222.671559 
L 402.387378 270.772222 
L 403.202178 183.316472 
L 404.016977 189.875653 
L 404.831776 251.094678 
L 405.646575 170.19811 
L 406.461374 235.789922 
L 407.276173 277.331403 
L 408.090973 213.925984 
L 408.905772 259.840253 
L 409.720571 231.417134 
L 410.53537 196.434834 
L 411.350169 148.334172 
L 412.164968 246.72189 
L 412.979767 216.112378 
L 413.794567 178.943685 
L 414.609366 255.467465 
L 415.424165 259.840253 
L 416.238964 218.298772 
L 417.053763 187.689259 
L 417.868562 251.094678 
L 419.498161 272.958615 
L 420.31296 185.502866 
L 421.127759 233.603528 
L 421.942558 240.162709 
L 422.757357 240.162709 
L 423.572156 218.298772 
L 424.386956 128.656629 
L 425.201755 303.568128 
L 426.016554 146.147778 
L 426.831353 187.689259 
L 427.646152 303.568128 
L 428.460951 194.248441 
L 429.275751 251.094678 
L 430.09055 216.112378 
L 430.905349 209.553197 
L 431.720148 235.789922 
L 432.534947 286.076978 
L 433.349746 231.417134 
L 434.164545 220.485166 
L 434.979345 205.180409 
L 435.794144 216.112378 
L 436.608943 168.011716 
L 437.423742 202.994016 
L 438.238541 161.452535 
L 439.05334 237.976315 
L 439.86814 266.399434 
L 440.682939 211.739591 
L 441.497738 172.384503 
L 442.312537 202.994016 
L 443.127336 174.570897 
L 443.942135 242.349103 
L 444.756934 266.399434 
L 445.571734 133.029416 
L 447.201332 170.19811 
L 448.016131 297.008946 
L 448.83093 194.248441 
L 449.645729 163.638928 
L 450.460529 218.298772 
L 451.275328 299.19534 
L 452.904926 240.162709 
L 453.719725 196.434834 
L 454.534524 286.076978 
L 455.349323 137.402203 
L 456.164123 288.263371 
L 456.978922 135.21581 
L 457.793721 301.381734 
L 458.60852 268.585828 
L 459.423319 373.532727 
L 460.238118 211.739591 
L 461.052918 172.384503 
L 461.867717 189.875653 
L 462.682516 268.585828 
L 463.497315 255.467465 
L 464.312114 178.943685 
L 465.126913 218.298772 
L 465.941712 316.68649 
L 466.756512 259.840253 
L 467.571311 211.739591 
L 468.38611 211.739591 
L 469.200909 305.754521 
L 470.830507 163.638928 
L 471.645307 246.72189 
L 472.460106 242.349103 
L 473.274905 266.399434 
L 474.089704 183.316472 
L 474.904503 202.994016 
L 475.719302 266.399434 
L 476.534101 307.940915 
L 477.348901 253.281072 
L 478.1637 301.381734 
L 478.978499 168.011716 
L 479.793298 292.636159 
L 480.608097 143.961385 
L 481.422896 187.689259 
L 482.237696 196.434834 
L 483.052495 277.331403 
L 483.867294 106.792691 
L 484.682093 198.621228 
L 485.496892 266.399434 
L 486.311691 294.822553 
L 487.12649 220.485166 
L 487.94129 323.245671 
L 488.756089 216.112378 
L 489.570888 251.094678 
L 490.385687 240.162709 
L 491.200486 248.908284 
L 492.015285 207.366803 
L 492.830085 218.298772 
L 493.644884 279.517797 
L 494.459683 229.230741 
L 495.274482 211.739591 
L 496.089281 222.671559 
L 496.90408 303.568128 
L 497.718879 178.943685 
L 498.533679 218.298772 
L 499.348478 91.487935 
L 500.163277 178.943685 
L 500.978076 216.112378 
L 501.792875 178.943685 
L 502.607674 246.72189 
L 503.422474 218.298772 
L 504.237273 264.21304 
L 505.052072 275.145009 
L 505.866871 220.485166 
L 506.68167 181.130078 
L 507.496469 187.689259 
L 508.311268 231.417134 
L 509.126068 340.736821 
L 509.940867 307.940915 
L 510.755666 240.162709 
L 511.570465 106.792691 
L 512.385264 235.789922 
L 513.200063 233.603528 
L 514.014863 253.281072 
L 514.829662 240.162709 
L 515.644461 257.653859 
L 516.45926 135.21581 
L 517.274059 266.399434 
L 518.088858 141.774991 
L 518.903658 266.399434 
L 519.718457 257.653859 
L 520.533256 270.772222 
L 521.348055 220.485166 
L 522.162854 286.076978 
L 522.977653 253.281072 
L 523.792452 198.621228 
L 524.607252 178.943685 
L 525.422051 150.520566 
L 526.23685 290.449765 
L 527.051649 209.553197 
L 527.866448 222.671559 
L 528.681247 244.535497 
L 529.496047 237.976315 
L 530.310846 161.452535 
L 531.125645 216.112378 
L 531.940444 113.351872 
L 532.755243 259.840253 
L 533.570042 194.248441 
L 534.384841 216.112378 
L 535.199641 205.180409 
L 536.01444 242.349103 
L 536.829239 227.044347 
L 537.644038 104.606297 
L 538.458837 141.774991 
L 539.273636 168.011716 
L 540.088436 301.381734 
L 540.903235 124.283841 
L 541.718034 270.772222 
L 542.532833 213.925984 
L 543.347632 143.961385 
L 544.162431 251.094678 
L 544.97723 288.263371 
L 545.79203 196.434834 
L 546.606829 174.570897 
L 547.421628 248.908284 
L 548.236427 272.958615 
L 549.051226 235.789922 
L 549.866025 264.21304 
L 550.680825 128.656629 
L 551.495624 192.062047 
L 552.310423 237.976315 
L 553.125222 242.349103 
L 553.940021 264.21304 
L 554.75482 257.653859 
L 555.569619 187.689259 
L 556.384419 165.825322 
L 557.199218 91.487935 
L 558.014017 231.417134 
L 558.828816 198.621228 
L 559.643615 240.162709 
L 560.458414 255.467465 
L 561.273214 194.248441 
L 562.088013 216.112378 
L 562.902812 307.940915 
L 563.717611 126.470235 
L 564.53241 270.772222 
L 565.347209 211.739591 
L 566.162008 192.062047 
L 566.976808 148.334172 
L 567.791607 163.638928 
L 568.606406 283.890584 
L 569.421205 196.434834 
L 570.236004 251.094678 
L 571.050803 150.520566 
L 571.865603 246.72189 
L 572.680402 198.621228 
L 573.495201 334.17764 
L 574.31 283.890584 
L 575.124799 185.502866 
L 575.939598 189.875653 
L 576.754397 189.875653 
L 577.569197 220.485166 
L 578.383996 255.467465 
L 579.198795 150.520566 
L 580.013594 281.70419 
L 580.828393 209.553197 
L 581.643192 192.062047 
L 582.457992 237.976315 
L 583.272791 220.485166 
L 584.08759 124.283841 
L 584.902389 255.467465 
L 585.717188 270.772222 
L 586.531987 279.517797 
L 587.346786 218.298772 
L 588.161586 218.298772 
L 588.976385 294.822553 
L 589.791184 286.076978 
L 590.605983 187.689259 
L 591.420782 297.008946 
L 592.235581 172.384503 
L 593.050381 222.671559 
L 593.86518 222.671559 
L 594.679979 244.535497 
L 595.494778 242.349103 
L 596.309577 222.671559 
L 597.124376 209.553197 
L 597.939175 255.467465 
L 598.753975 248.908284 
L 599.568774 277.331403 
L 600.383573 176.757291 
L 601.198372 246.72189 
L 602.013171 185.502866 
L 602.82797 185.502866 
L 603.64277 209.553197 
L 604.457569 244.535497 
L 605.272368 240.162709 
L 606.087167 218.298772 
L 606.901966 185.502866 
L 607.716765 294.822553 
L 609.346364 152.70696 
L 610.161163 323.245671 
L 610.975962 290.449765 
L 611.790761 165.825322 
L 612.60556 290.449765 
L 613.420359 174.570897 
L 614.235159 283.890584 
L 615.049958 100.23351 
L 615.864757 259.840253 
L 616.679556 270.772222 
L 617.494355 187.689259 
L 618.309154 281.70419 
L 619.123953 299.19534 
L 619.938753 325.432065 
L 620.753552 150.520566 
L 621.568351 207.366803 
L 622.38315 224.857953 
L 623.197949 222.671559 
L 624.012748 233.603528 
L 624.827548 137.402203 
L 625.642347 198.621228 
L 626.457146 307.940915 
L 627.271945 183.316472 
L 628.086744 266.399434 
L 628.901543 229.230741 
L 629.716342 329.804852 
L 630.531142 248.908284 
L 631.345941 216.112378 
L 632.16074 229.230741 
L 632.975539 272.958615 
L 633.790338 163.638928 
L 634.605137 279.517797 
L 635.419937 170.19811 
L 636.234736 194.248441 
L 637.049535 272.958615 
L 637.864334 141.774991 
L 638.679133 246.72189 
L 639.493932 227.044347 
L 640.308732 196.434834 
L 641.123531 277.331403 
L 641.93833 130.843022 
L 642.753129 292.636159 
L 643.567928 148.334172 
L 644.382727 246.72189 
L 645.197526 327.618459 
L 646.012326 297.008946 
L 646.827125 176.757291 
L 647.641924 283.890584 
L 648.456723 275.145009 
L 649.271522 220.485166 
L 650.086321 237.976315 
L 650.901121 297.008946 
L 651.71592 211.739591 
L 652.530719 237.976315 
L 653.345518 222.671559 
L 654.160317 294.822553 
L 654.975116 299.19534 
L 655.789915 161.452535 
L 656.604715 255.467465 
L 657.419514 196.434834 
L 658.234313 231.417134 
L 659.049112 128.656629 
L 659.863911 189.875653 
L 660.67871 198.621228 
L 661.49351 181.130078 
L 662.308309 43.387273 
L 663.123108 251.094678 
L 663.937907 102.419904 
L 664.752706 220.485166 
L 665.567505 139.588597 
L 666.382304 277.331403 
L 667.197104 266.399434 
L 668.011903 323.245671 
L 668.826702 356.041577 
L 669.641501 283.890584 
L 670.4563 115.538266 
L 671.271099 104.606297 
L 672.085899 176.757291 
L 672.900698 100.23351 
L 673.715497 181.130078 
L 674.530296 205.180409 
L 675.345095 163.638928 
L 676.159894 207.366803 
L 676.974693 189.875653 
L 677.789493 264.21304 
L 678.604292 159.266141 
L 679.419091 336.364034 
L 679.419091 336.364034 
" clip-path="url(#p3e5c3c016c)" style="fill: none; stroke: #1f77b4; stroke-width: 1.5; stroke-linecap: square"/>
   </g>
   <g id="patch_3">
    <path d="M 54.02 390.04 
L 54.02 26.88 
" style="fill: none; stroke: #000000; stroke-width: 0.8; stroke-linejoin: miter; stroke-linecap: square"/>
   </g>
   <g id="patch_4">
    <path d="M 709.2 390.04 
L 709.2 26.88 
" style="fill: none; stroke: #000000; stroke-width: 0.8; stroke-linejoin: miter; stroke-linecap: square"/>
   </g>
   <g id="patch_5">
    <path d="M 54.02 390.04 
L 709.2 390.04 
" style="fill: none; stroke: #000000; stroke-width: 0.8; stroke-linejoin: miter; stroke-linecap: square"/>
   </g>
   <g id="patch_6">
    <path d="M 54.02 26.88 
L 709.2 26.88 
" style="fill: none; stroke: #000000; stroke-width: 0.8; stroke-linejoin: miter; stroke-linecap: square"/>
   </g>
   <g id="text_17">
    <!-- Quantum Gates used per Episode -->
    <g transform="translate(280.52125 20.88) scale(0.12 -0.12)">
     <use xlink:href="#DejaVuSans-51"/>
     <use xlink:href="#DejaVuSans-75" transform="translate(78.710938 0)"/>
     <use xlink:href="#DejaVuSans-61" transform="translate(142.089844 0)"/>
     <use xlink:href="#DejaVuSans-6e" transform="translate(203.369141 0)"/>
     <use xlink:href="#DejaVuSans-74" transform="translate(266.748047 0)"/>
     <use xlink:href="#DejaVuSans-75" transform="translate(305.957031 0)"/>
     <use xlink:href="#DejaVuSans-6d" transform="translate(369.335938 0)"/>
     <use xlink:href="#DejaVuSans-20" transform="translate(466.748047 0)"/>
     <use xlink:href="#DejaVuSans-47" transform="translate(498.535156 0)"/>
     <use xlink:href="#DejaVuSans-61" transform="translate(576.025391 0)"/>
     <use xlink:href="#DejaVuSans-74" transform="translate(637.304688 0)"/>
     <use xlink:href="#DejaVuSans-65" transform="translate(676.513672 0)"/>
     <use xlink:href="#DejaVuSans-73" transform="translate(738.037109 0)"/>
     <use xlink:href="#DejaVuSans-20" transform="translate(790.136719 0)"/>
     <use xlink:href="#DejaVuSans-75" transform="translate(821.923828 0)"/>
     <use xlink:href="#DejaVuSans-73" transform="translate(885.302734 0)"/>
     <use xlink:href="#DejaVuSans-65" transform="translate(937.402344 0)"/>
     <use xlink:href="#DejaVuSans-64" transform="translate(998.925781 0)"/>
     <use xlink:href="#DejaVuSans-20" transform="translate(1062.402344 0)"/>
     <use xlink:href="#DejaVuSans-70" transform="translate(1094.189453 0)"/>
     <use xlink:href="#DejaVuSans-65" transform="translate(1157.666016 0)"/>
     <use xlink:href="#DejaVuSans-72" transform="translate(1219.189453 0)"/>
     <use xlink:href="#DejaVuSans-20" transform="translate(1260.302734 0)"/>
     <use xlink:href="#DejaVuSans-45" transform="translate(1292.089844 0)"/>
     <use xlink:href="#DejaVuSans-70" transform="translate(1355.273438 0)"/>
     <use xlink:href="#DejaVuSans-69" transform="translate(1418.75 0)"/>
     <use xlink:href="#DejaVuSans-73" transform="translate(1446.533203 0)"/>
     <use xlink:href="#DejaVuSans-6f" transform="translate(1498.632812 0)"/>
     <use xlink:href="#DejaVuSans-64" transform="translate(1559.814453 0)"/>
     <use xlink:href="#DejaVuSans-65" transform="translate(1623.291016 0)"/>
    </g>
   </g>
   <g id="legend_1">
    <g id="patch_7">
     <path d="M 61.02 49.558125 
L 357.1575 49.558125 
Q 359.1575 49.558125 359.1575 47.558125 
L 359.1575 33.88 
Q 359.1575 31.88 357.1575 31.88 
L 61.02 31.88 
Q 59.02 31.88 59.02 33.88 
L 59.02 47.558125 
Q 59.02 49.558125 61.02 49.558125 
z
" style="fill: #ffffff; opacity: 0.8; stroke: #cccccc; stroke-linejoin: miter"/>
    </g>
    <g id="line2d_30">
     <path d="M 63.02 39.978438 
L 73.02 39.978438 
L 83.02 39.978438 
" style="fill: none; stroke: #1f77b4; stroke-width: 1.5; stroke-linecap: square"/>
    </g>
    <g id="text_18">
     <!-- Average Episode Quantum Gates used (75 episodes) -->
     <g transform="translate(91.02 43.478438) scale(0.1 -0.1)">
      <defs>
       <path id="DejaVuSans-41" d="M 2188 4044 
L 1331 1722 
L 3047 1722 
L 2188 4044 
z
M 1831 4666 
L 2547 4666 
L 4325 0 
L 3669 0 
L 3244 1197 
L 1141 1197 
L 716 0 
L 50 0 
L 1831 4666 
z
" transform="scale(0.015625)"/>
       <path id="DejaVuSans-76" d="M 191 3500 
L 800 3500 
L 1894 563 
L 2988 3500 
L 3597 3500 
L 2284 0 
L 1503 0 
L 191 3500 
z
" transform="scale(0.015625)"/>
       <path id="DejaVuSans-67" d="M 2906 1791 
Q 2906 2416 2648 2759 
Q 2391 3103 1925 3103 
Q 1463 3103 1205 2759 
Q 947 2416 947 1791 
Q 947 1169 1205 825 
Q 1463 481 1925 481 
Q 2391 481 2648 825 
Q 2906 1169 2906 1791 
z
M 3481 434 
Q 3481 -459 3084 -895 
Q 2688 -1331 1869 -1331 
Q 1566 -1331 1297 -1286 
Q 1028 -1241 775 -1147 
L 775 -588 
Q 1028 -725 1275 -790 
Q 1522 -856 1778 -856 
Q 2344 -856 2625 -561 
Q 2906 -266 2906 331 
L 2906 616 
Q 2728 306 2450 153 
Q 2172 0 1784 0 
Q 1141 0 747 490 
Q 353 981 353 1791 
Q 353 2603 747 3093 
Q 1141 3584 1784 3584 
Q 2172 3584 2450 3431 
Q 2728 3278 2906 2969 
L 2906 3500 
L 3481 3500 
L 3481 434 
z
" transform="scale(0.015625)"/>
       <path id="DejaVuSans-28" d="M 1984 4856 
Q 1566 4138 1362 3434 
Q 1159 2731 1159 2009 
Q 1159 1288 1364 580 
Q 1569 -128 1984 -844 
L 1484 -844 
Q 1016 -109 783 600 
Q 550 1309 550 2009 
Q 550 2706 781 3412 
Q 1013 4119 1484 4856 
L 1984 4856 
z
" transform="scale(0.015625)"/>
       <path id="DejaVuSans-29" d="M 513 4856 
L 1013 4856 
Q 1481 4119 1714 3412 
Q 1947 2706 1947 2009 
Q 1947 1309 1714 600 
Q 1481 -109 1013 -844 
L 513 -844 
Q 928 -128 1133 580 
Q 1338 1288 1338 2009 
Q 1338 2731 1133 3434 
Q 928 4138 513 4856 
z
" transform="scale(0.015625)"/>
      </defs>
      <use xlink:href="#DejaVuSans-41"/>
      <use xlink:href="#DejaVuSans-76" transform="translate(62.533203 0)"/>
      <use xlink:href="#DejaVuSans-65" transform="translate(121.712891 0)"/>
      <use xlink:href="#DejaVuSans-72" transform="translate(183.236328 0)"/>
      <use xlink:href="#DejaVuSans-61" transform="translate(224.349609 0)"/>
      <use xlink:href="#DejaVuSans-67" transform="translate(285.628906 0)"/>
      <use xlink:href="#DejaVuSans-65" transform="translate(349.105469 0)"/>
      <use xlink:href="#DejaVuSans-20" transform="translate(410.628906 0)"/>
      <use xlink:href="#DejaVuSans-45" transform="translate(442.416016 0)"/>
      <use xlink:href="#DejaVuSans-70" transform="translate(505.599609 0)"/>
      <use xlink:href="#DejaVuSans-69" transform="translate(569.076172 0)"/>
      <use xlink:href="#DejaVuSans-73" transform="translate(596.859375 0)"/>
      <use xlink:href="#DejaVuSans-6f" transform="translate(648.958984 0)"/>
      <use xlink:href="#DejaVuSans-64" transform="translate(710.140625 0)"/>
      <use xlink:href="#DejaVuSans-65" transform="translate(773.617188 0)"/>
      <use xlink:href="#DejaVuSans-20" transform="translate(835.140625 0)"/>
      <use xlink:href="#DejaVuSans-51" transform="translate(866.927734 0)"/>
      <use xlink:href="#DejaVuSans-75" transform="translate(945.638672 0)"/>
      <use xlink:href="#DejaVuSans-61" transform="translate(1009.017578 0)"/>
      <use xlink:href="#DejaVuSans-6e" transform="translate(1070.296875 0)"/>
      <use xlink:href="#DejaVuSans-74" transform="translate(1133.675781 0)"/>
      <use xlink:href="#DejaVuSans-75" transform="translate(1172.884766 0)"/>
      <use xlink:href="#DejaVuSans-6d" transform="translate(1236.263672 0)"/>
      <use xlink:href="#DejaVuSans-20" transform="translate(1333.675781 0)"/>
      <use xlink:href="#DejaVuSans-47" transform="translate(1365.462891 0)"/>
      <use xlink:href="#DejaVuSans-61" transform="translate(1442.953125 0)"/>
      <use xlink:href="#DejaVuSans-74" transform="translate(1504.232422 0)"/>
      <use xlink:href="#DejaVuSans-65" transform="translate(1543.441406 0)"/>
      <use xlink:href="#DejaVuSans-73" transform="translate(1604.964844 0)"/>
      <use xlink:href="#DejaVuSans-20" transform="translate(1657.064453 0)"/>
      <use xlink:href="#DejaVuSans-75" transform="translate(1688.851562 0)"/>
      <use xlink:href="#DejaVuSans-73" transform="translate(1752.230469 0)"/>
      <use xlink:href="#DejaVuSans-65" transform="translate(1804.330078 0)"/>
      <use xlink:href="#DejaVuSans-64" transform="translate(1865.853516 0)"/>
      <use xlink:href="#DejaVuSans-20" transform="translate(1929.330078 0)"/>
      <use xlink:href="#DejaVuSans-28" transform="translate(1961.117188 0)"/>
      <use xlink:href="#DejaVuSans-37" transform="translate(2000.130859 0)"/>
      <use xlink:href="#DejaVuSans-35" transform="translate(2063.753906 0)"/>
      <use xlink:href="#DejaVuSans-20" transform="translate(2127.376953 0)"/>
      <use xlink:href="#DejaVuSans-65" transform="translate(2159.164062 0)"/>
      <use xlink:href="#DejaVuSans-70" transform="translate(2220.6875 0)"/>
      <use xlink:href="#DejaVuSans-69" transform="translate(2284.164062 0)"/>
      <use xlink:href="#DejaVuSans-73" transform="translate(2311.947266 0)"/>
      <use xlink:href="#DejaVuSans-6f" transform="translate(2364.046875 0)"/>
      <use xlink:href="#DejaVuSans-64" transform="translate(2425.228516 0)"/>
      <use xlink:href="#DejaVuSans-65" transform="translate(2488.705078 0)"/>
      <use xlink:href="#DejaVuSans-73" transform="translate(2550.228516 0)"/>
      <use xlink:href="#DejaVuSans-29" transform="translate(2602.328125 0)"/>
     </g>
    </g>
   </g>
  </g>
 </g>
 <defs>
  <clipPath id="p3e5c3c016c">
   <rect x="54.02" y="26.88" width="655.18" height="363.16"/>
  </clipPath>
 </defs>
</svg>
