<?xml version="1.0" encoding="utf-8" standalone="no"?>
<!DOCTYPE svg PUBLIC "-//W3C//DTD SVG 1.1//EN"
  "http://www.w3.org/Graphics/SVG/1.1/DTD/svg11.dtd">
<svg xmlns:xlink="http://www.w3.org/1999/xlink" width="720pt" height="432pt" viewBox="0 0 720 432" xmlns="http://www.w3.org/2000/svg" version="1.1">
 <metadata>
  <rdf:RDF xmlns:dc="http://purl.org/dc/elements/1.1/" xmlns:cc="http://creativecommons.org/ns#" xmlns:rdf="http://www.w3.org/1999/02/22-rdf-syntax-ns#">
   <cc:Work>
    <dc:type rdf:resource="http://purl.org/dc/dcmitype/StillImage"/>
    <dc:date>2025-04-16T01:32:51.003382</dc:date>
    <dc:format>image/svg+xml</dc:format>
    <dc:creator>
     <cc:Agent>
      <dc:title>Matplotlib v3.10.0, https://matplotlib.org/</dc:title>
     </cc:Agent>
    </dc:creator>
   </cc:Work>
  </rdf:RDF>
 </metadata>
 <defs>
  <style type="text/css">*{stroke-linejoin: round; stroke-linecap: butt}</style>
 </defs>
 <g id="figure_1">
  <g id="patch_1">
   <path d="M 0 432 
L 720 432 
L 720 0 
L 0 0 
z
" style="fill: #ffffff"/>
  </g>
  <g id="axes_1">
   <g id="patch_2">
    <path d="M 47.72 390.04 
L 709.2 390.04 
L 709.2 10.8 
L 47.72 10.8 
z
" style="fill: #ffffff"/>
   </g>
   <g id="FillBetweenPolyCollection_1">
    <path d="M 77.787273 91.175304 
L 77.787273 263.542097 
L 84.034185 255.493899 
L 90.104483 252.903007 
L 96.181323 249.515702 
L 102.362823 233.15504 
L 108.452745 250.958399 
L 114.444548 252.101667 
L 119.854177 265.750265 
L 124.603139 267.365772 
L 129.051202 268.402132 
L 133.198367 270.603454 
L 137.240872 270.512417 
L 141.211423 269.893787 
L 145.21468 268.528653 
L 149.178689 264.535222 
L 153.175405 265.932919 
L 157.139414 266.87511 
L 161.077258 264.387416 
L 165.041268 264.803236 
L 168.985653 261.961953 
L 172.916956 262.293541 
L 176.854801 262.656244 
L 180.792645 264.301297 
L 184.750113 263.489772 
L 188.687957 262.02607 
L 192.625802 261.331779 
L 196.550563 261.513131 
L 200.481866 261.705483 
L 204.419711 261.203544 
L 208.351014 262.517009 
L 212.282317 262.570125 
L 216.193996 262.207422 
L 220.125299 261.705483 
L 224.043519 261.705483 
L 227.987905 261.577248 
L 231.912667 261.203544 
L 235.837429 261.705483 
L 239.76219 261.961953 
L 243.693493 262.28254 
L 247.631338 261.203544 
L 251.562641 262.218423 
L 255.487402 261.267662 
L 259.412164 262.474893 
L 263.343467 262.101189 
L 267.268229 261.331779 
L 271.199532 261.780601 
L 275.10467 262.452891 
L 279.02289 261.694482 
L 282.928028 262.645244 
L 286.878955 261.577248 
L 290.803717 261.075309 
L 294.721937 261.577248 
L 298.65324 262.27154 
L 302.578002 261.449013 
L 306.509305 261.449013 
L 310.434067 261.203544 
L 314.358829 260.947074 
L 318.290132 261.203544 
L 322.234517 261.331779 
L 326.250857 263.618007 
L 330.201784 262.667245 
L 334.205041 264.066829 
L 338.149426 262.742364 
L 342.080729 262.987833 
L 346.018573 263.127068 
L 349.982583 261.919837 
L 353.920427 261.780601 
L 357.877895 263.586892 
L 361.933482 263.447656 
L 365.930198 262.101189 
L 369.920373 262.934716 
L 373.851676 262.357659 
L 377.796061 263.018948 
L 381.727364 261.577248 
L 385.665208 261.203544 
L 389.58997 261.449013 
L 393.514732 261.320778 
L 397.439494 260.947074 
L 401.370797 262.090188 
L 405.295558 261.075309 
L 409.22032 262.603128 
L 413.145082 261.961953 
L 417.069844 261.075309 
L 420.994605 261.449013 
L 424.919367 261.203544 
L 428.85067 261.331779 
L 432.775432 261.320778 
L 436.700194 261.203544 
L 440.631497 261.395897 
L 444.556259 264.259181 
L 448.474479 263.586892 
L 452.399241 263.896478 
L 456.324003 264.409418 
L 460.248764 263.500772 
L 464.180067 261.833718 
L 468.104829 261.972954 
L 472.042673 262.987833 
L 475.967435 261.075309 
L 479.892197 262.02607 
L 483.810417 261.716484 
L 487.709014 266.435401 
L 491.34596 298.445714 
L 494.302614 325.277348 
L 497.06303 328.77135 
L 499.816904 332.391156 
L 502.466118 334.459381 
L 505.121874 334.649242 
L 507.758005 335.73857 
L 510.374513 335.992 
L 512.991021 337.720798 
L 515.607529 336.402949 
L 518.24366 335.692309 
L 520.873251 338.15314 
L 523.489759 338.806589 
L 526.119349 337.384643 
L 528.748939 337.213927 
L 531.371989 337.371221 
L 533.988496 336.397489 
L 536.611545 336.226529 
L 539.385044 337.835845 
L 542.086588 345.440591 
L 544.761967 357.608791 
L 547.398099 363.362031 
L 550.021148 365.766341 
L 552.644197 366.43863 
L 555.260705 366.155602 
L 557.883754 366.272836 
L 560.500262 366.491747 
L 563.11677 366.774775 
L 565.733278 366.053926 
L 568.349786 363.568901 
L 570.972835 358.28471 
L 573.602425 355.425982 
L 576.232015 354.977159 
L 578.848523 354.46422 
L 581.471572 354.400102 
L 584.08808 354.015397 
L 586.717671 353.95128 
L 589.34072 353.823045 
L 591.983393 354.079515 
L 594.632607 353.823045 
L 597.334151 354.015397 
L 599.963741 353.823045 
L 602.593332 353.823045 
L 605.216381 353.823045 
L 607.845971 353.823045 
L 610.482103 354.015397 
L 613.098611 353.887162 
L 615.72166 353.823045 
L 618.35125 353.95128 
L 620.993923 353.887162 
L 623.636596 353.823045 
L 626.259645 353.823045 
L 628.915401 354.015397 
L 631.53845 353.823045 
L 634.331572 355.297747 
L 637.059281 353.887162 
L 639.708495 354.20775 
L 642.390416 353.823045 
L 645.03963 353.823045 
L 647.662679 353.823045 
L 650.29227 353.823045 
L 652.92186 353.887162 
L 655.557992 353.823045 
L 658.1745 354.143632 
L 660.797549 353.887162 
L 663.414056 353.887162 
L 666.030564 353.823045 
L 668.653613 353.887162 
L 671.283204 353.823045 
L 673.899712 353.823045 
L 676.516219 353.823045 
L 679.132727 353.95128 
L 679.132727 353.075637 
L 679.132727 353.075637 
L 676.516219 353.823045 
L 673.899712 353.823045 
L 671.283204 353.823045 
L 668.653613 353.449341 
L 666.030564 353.823045 
L 663.414056 353.449341 
L 660.797549 353.449341 
L 658.1745 351.954525 
L 655.557992 353.823045 
L 652.92186 353.449341 
L 650.29227 353.823045 
L 647.662679 353.823045 
L 645.03963 353.823045 
L 642.390416 353.823045 
L 639.708495 351.58082 
L 637.059281 353.449341 
L 634.331572 345.227852 
L 631.53845 353.823045 
L 628.915401 352.701933 
L 626.259645 353.823045 
L 623.636596 353.823045 
L 620.993923 353.449341 
L 618.35125 353.075637 
L 615.72166 353.823045 
L 613.098611 353.449341 
L 610.482103 352.701933 
L 607.845971 353.823045 
L 605.216381 353.823045 
L 602.593332 353.823045 
L 599.963741 353.823045 
L 597.334151 352.701933 
L 594.632607 353.823045 
L 591.983393 352.328229 
L 589.34072 353.823045 
L 586.717671 353.075637 
L 584.08808 352.701933 
L 581.471572 350.459708 
L 578.848523 350.086004 
L 576.232015 347.096372 
L 573.602425 344.480444 
L 570.972835 326.76156 
L 568.349786 297.02003 
L 565.733278 279.365264 
L 563.11677 278.334827 
L 560.500262 278.927442 
L 557.883754 279.146353 
L 555.260705 277.715654 
L 552.644197 277.123039 
L 550.021148 274.699464 
L 547.398099 267.506589 
L 544.761967 249.421663 
L 542.086588 235.584592 
L 539.385044 235.140088 
L 536.611545 236.13023 
L 533.988496 238.745549 
L 531.371989 224.150008 
L 528.748939 227.712754 
L 526.119349 219.802374 
L 523.489759 203.210686 
L 520.873251 216.247598 
L 518.24366 216.541323 
L 515.607529 238.430502 
L 512.991021 225.657951 
L 510.374513 244.104423 
L 507.758005 247.453719 
L 505.121874 242.351315 
L 502.466118 235.111099 
L 499.816904 239.965603 
L 497.06303 242.037477 
L 494.302614 240.88768 
L 491.34596 253.787918 
L 487.709014 258.554613 
L 483.810417 256.462626 
L 479.892197 256.772212 
L 475.967435 260.199666 
L 472.042673 251.166652 
L 468.104829 254.967809 
L 464.180067 257.893324 
L 460.248764 248.177019 
L 456.324003 240.767056 
L 452.399241 243.756688 
L 448.474479 243.447101 
L 444.556259 245.870677 
L 440.631497 258.331146 
L 436.700194 259.452258 
L 432.775432 260.882957 
L 428.85067 258.70485 
L 424.919367 259.452258 
L 420.994605 260.135549 
L 417.069844 260.199666 
L 413.145082 257.145916 
L 409.22032 253.408876 
L 405.295558 260.199666 
L 401.370797 256.398508 
L 397.439494 260.947074 
L 393.514732 260.882957 
L 389.58997 260.135549 
L 385.665208 259.452258 
L 381.727364 259.388141 
L 377.796061 257.327268 
L 373.851676 252.725585 
L 369.920373 249.362249 
L 365.930198 254.220401 
L 361.933482 246.372616 
L 357.877895 243.447101 
L 353.920427 256.088922 
L 349.982583 253.163407 
L 346.018573 248.241137 
L 342.080729 251.166652 
L 338.149426 250.483361 
L 334.205041 246.99179 
L 330.201784 253.035172 
L 326.250857 249.607718 
L 322.234517 258.70485 
L 318.290132 259.452258 
L 314.358829 260.947074 
L 310.434067 259.452258 
L 306.509305 260.135549 
L 302.578002 260.135549 
L 298.65324 257.455503 
L 294.721937 259.388141 
L 290.803717 260.199666 
L 286.878955 259.388141 
L 282.928028 257.391385 
L 279.02289 260.818839 
L 275.10467 258.512497 
L 271.199532 256.088922 
L 267.268229 258.70485 
L 263.343467 254.220401 
L 259.412164 254.156284 
L 255.487402 259.078554 
L 251.562641 255.6511 
L 247.631338 259.452258 
L 243.693493 255.277396 
L 239.76219 257.145916 
L 235.837429 258.640732 
L 231.912667 259.452258 
L 227.987905 259.388141 
L 224.043519 258.640732 
L 220.125299 258.640732 
L 216.193996 257.829207 
L 212.282317 259.943196 
L 208.351014 258.138793 
L 204.419711 259.452258 
L 200.481866 258.640732 
L 196.550563 259.761845 
L 192.625802 258.70485 
L 188.687957 256.772212 
L 184.750113 250.355126 
L 180.792645 249.853187 
L 176.854801 255.213279 
L 172.916956 253.099289 
L 168.985653 257.145916 
L 165.041268 249.041661 
L 161.077258 245.123269 
L 157.139414 245.421855 
L 153.175405 244.19694 
L 149.178689 237.545386 
L 145.21468 236.957407 
L 141.211423 227.852609 
L 137.240872 213.302583 
L 133.198367 193.08842 
L 129.051202 151.018862 
L 124.603139 135.337548 
L 119.854177 110.638196 
L 114.444548 105.402013 
L 108.452745 102.520656 
L 102.362823 92.461224 
L 96.181323 97.462035 
L 90.104483 98.408942 
L 84.034185 89.935905 
L 77.787273 91.175304 
z
" clip-path="url(#peea8a2b0db)" style="fill: #1f77b4; fill-opacity: 0.2"/>
   </g>
   <g id="FillBetweenPolyCollection_2">
    <path d="M 78.055465 37.575527 
L 78.055465 252.438281 
L 84.635982 242.471673 
L 91.236123 238.891508 
L 97.554989 243.483639 
L 103.919645 232.181981 
L 109.937613 241.267748 
L 116.132195 226.877013 
L 121.895054 224.585863 
L 127.638288 235.199292 
L 133.204909 237.953356 
L 138.398677 247.243684 
L 143.396207 259.873343 
L 148.25637 268.316262 
L 152.815635 270.940414 
L 157.348735 271.2548 
L 161.711762 269.233402 
L 165.780431 266.296526 
L 169.809853 266.654434 
L 173.917771 267.335837 
L 177.93411 264.900356 
L 181.930826 264.212748 
L 185.914459 262.977736 
L 189.878468 263.286418 
L 193.822854 263.553889 
L 197.76724 264.354414 
L 201.73779 262.910284 
L 205.734506 262.28254 
L 209.67235 261.950952 
L 213.590571 262.773479 
L 217.534956 261.833718 
L 221.485883 261.897836 
L 225.417186 261.844719 
L 229.361572 262.324656 
L 233.273251 262.02607 
L 237.230719 261.908836 
L 241.175105 262.346658 
L 245.139114 261.897836 
L 249.070417 263.328534 
L 253.021344 261.897836 
L 256.952647 264.975474 
L 260.88395 262.806481 
L 264.815253 261.588249 
L 268.746556 261.577248 
L 272.671318 261.203544 
L 276.596079 261.822717 
L 280.520841 260.947074 
L 284.445603 262.28254 
L 288.370365 263.629007 
L 292.295126 263.383538 
L 296.226429 262.742364 
L 300.151191 262.742364 
L 304.095577 263.166754 
L 308.033421 262.678246 
L 311.964724 261.716484 
L 315.889486 261.460014 
L 319.82733 261.588249 
L 323.765174 262.02607 
L 327.729184 262.53901 
L 331.660487 261.139427 
L 335.585248 261.203544 
L 339.51001 262.090188 
L 343.428231 261.641366 
L 347.33991 262.603128 
L 351.264672 262.101189 
L 355.189433 261.950952 
L 359.094571 262.324656 
L 363.019333 261.075309 
L 366.950636 261.075309 
L 370.875398 262.357659 
L 374.793618 266.834881 
L 378.71838 264.730005 
L 382.78705 264.389304 
L 386.809931 262.357659 
L 390.917848 267.743527 
L 395.032307 262.859598 
L 399.01594 262.614129 
L 403.012655 262.101189 
L 406.9505 262.421776 
L 410.914509 262.229424 
L 414.924307 262.357659 
L 418.894858 261.961953 
L 422.852326 262.037071 
L 426.809794 261.588249 
L 430.760721 262.101189 
L 434.737813 262.293541 
L 438.675657 262.28254 
L 442.620043 261.641366 
L 446.557887 261.961953 
L 450.508814 262.079187 
L 454.440117 261.331779 
L 458.37142 261.075309 
L 462.302723 261.588249 
L 466.260191 262.079187 
L 470.204577 262.28254 
L 474.18821 262.592127 
L 478.132595 266.60089 
L 481.821871 293.918541 
L 485.00747 344.516997 
L 487.813674 355.462104 
L 490.502136 363.282661 
L 493.144809 362.566368 
L 495.82673 364.143289 
L 498.475944 365.007932 
L 501.105534 367.002256 
L 503.735125 367.031245 
L 506.364715 367.234598 
L 508.981223 372.801818 
L 511.597731 371.877615 
L 514.214238 370.108884 
L 516.837288 368.287036 
L 519.453795 367.031245 
L 522.070303 367.92889 
L 524.686811 366.940569 
L 527.30986 366.518305 
L 529.926368 366.774775 
L 532.549417 366.336954 
L 535.165925 366.64654 
L 537.782433 366.774775 
L 540.398941 366.64654 
L 543.015448 366.619982 
L 545.638498 366.838893 
L 548.261547 366.491747 
L 550.878054 366.64654 
L 553.494562 368.570065 
L 556.11107 368.44183 
L 558.727578 367.480068 
L 561.344086 367.351833 
L 563.960594 366.710658 
L 566.616349 366.725985 
L 569.232857 366.582423 
L 571.849365 366.42763 
L 574.465873 364.274194 
L 577.08238 360.106558 
L 579.698888 354.46422 
L 582.315396 354.528337 
L 584.931904 353.95128 
L 587.548412 354.015397 
L 590.16492 353.823045 
L 592.781427 353.823045 
L 595.397935 353.823045 
L 598.014443 353.823045 
L 600.630951 353.823045 
L 603.247459 353.887162 
L 605.863967 353.823045 
L 608.480474 353.823045 
L 611.096982 353.823045 
L 613.71349 353.823045 
L 616.329998 354.015397 
L 618.946506 353.823045 
L 621.563014 353.823045 
L 624.179521 353.823045 
L 626.796029 353.823045 
L 629.412537 353.823045 
L 632.029045 353.823045 
L 634.645553 353.823045 
L 637.262061 353.823045 
L 639.878568 354.079515 
L 642.495076 353.823045 
L 645.118125 353.887162 
L 647.734633 353.823045 
L 650.351141 353.823045 
L 652.967649 353.823045 
L 655.584157 353.823045 
L 658.200665 353.823045 
L 660.817172 353.887162 
L 663.43368 353.823045 
L 666.050188 353.823045 
L 668.666696 353.823045 
L 671.283204 353.823045 
L 673.899712 353.823045 
L 676.516219 354.079515 
L 679.132727 353.887162 
L 679.132727 353.449341 
L 679.132727 353.449341 
L 676.516219 352.328229 
L 673.899712 353.823045 
L 671.283204 353.823045 
L 668.666696 353.823045 
L 666.050188 353.823045 
L 663.43368 353.823045 
L 660.817172 353.449341 
L 658.200665 353.823045 
L 655.584157 353.823045 
L 652.967649 353.823045 
L 650.351141 353.823045 
L 647.734633 353.823045 
L 645.118125 353.449341 
L 642.495076 353.823045 
L 639.878568 352.328229 
L 637.262061 353.823045 
L 634.645553 353.823045 
L 632.029045 353.823045 
L 629.412537 353.823045 
L 626.796029 353.823045 
L 624.179521 353.823045 
L 621.563014 353.823045 
L 618.946506 353.823045 
L 616.329998 352.701933 
L 613.71349 353.823045 
L 611.096982 353.823045 
L 608.480474 353.823045 
L 605.863967 353.823045 
L 603.247459 353.449341 
L 600.630951 353.823045 
L 598.014443 353.823045 
L 595.397935 353.823045 
L 592.781427 353.823045 
L 590.16492 353.823045 
L 587.548412 352.701933 
L 584.931904 353.075637 
L 582.315396 349.7123 
L 579.698888 350.086004 
L 577.08238 317.200048 
L 574.465873 292.909285 
L 571.849365 279.301146 
L 569.232857 279.45594 
L 566.616349 277.145271 
L 563.960594 278.708531 
L 561.344086 274.971491 
L 558.727578 274.224083 
L 556.11107 268.618522 
L 553.494562 267.871114 
L 550.878054 279.082236 
L 548.261547 278.927442 
L 545.638498 277.961123 
L 543.015448 278.180034 
L 540.398941 279.082236 
L 537.782433 278.334827 
L 535.165925 279.082236 
L 532.549417 278.772649 
L 529.926368 278.334827 
L 527.30986 279.829644 
L 524.686811 276.311514 
L 522.070303 271.608155 
L 519.453795 276.840011 
L 516.837288 268.463729 
L 514.214238 258.902217 
L 511.597731 247.536302 
L 508.981223 243.206647 
L 506.364715 273.540792 
L 503.735125 276.840011 
L 501.105534 273.463548 
L 498.475944 277.005805 
L 495.82673 275.703342 
L 493.144809 270.778945 
L 490.502136 264.490094 
L 487.813674 255.28339 
L 485.00747 239.294465 
L 481.821871 251.1946 
L 478.132595 256.841191 
L 474.18821 255.586983 
L 470.204577 255.277396 
L 466.260191 258.576615 
L 462.302723 257.210034 
L 458.37142 260.199666 
L 454.440117 258.70485 
L 450.508814 258.576615 
L 446.557887 257.145916 
L 442.620043 259.014436 
L 438.675657 255.277396 
L 434.737813 253.099289 
L 430.760721 254.220401 
L 426.809794 257.210034 
L 422.852326 254.594105 
L 418.894858 257.145916 
L 414.924307 252.725585 
L 410.914509 253.472993 
L 406.9505 252.351881 
L 403.012655 254.220401 
L 399.01594 251.230769 
L 395.032307 251.91406 
L 390.917848 221.334445 
L 386.809931 252.725585 
L 382.78705 232.428333 
L 378.71838 238.898535 
L 374.793618 228.744409 
L 370.875398 252.725585 
L 366.950636 260.199666 
L 363.019333 260.199666 
L 359.094571 259.259906 
L 355.189433 259.324023 
L 351.264672 254.220401 
L 347.33991 253.408876 
L 343.428231 259.014436 
L 339.51001 256.398508 
L 335.585248 259.452258 
L 331.660487 259.825962 
L 327.729184 253.78258 
L 323.765174 256.772212 
L 319.82733 257.210034 
L 315.889486 257.957442 
L 311.964724 256.462626 
L 308.033421 250.857065 
L 304.095577 249.749384 
L 300.151191 250.483361 
L 296.226429 250.483361 
L 292.295126 246.74632 
L 288.370365 247.429611 
L 284.445603 255.277396 
L 280.520841 260.947074 
L 276.596079 260.071431 
L 272.671318 259.452258 
L 268.746556 259.388141 
L 264.815253 257.210034 
L 260.88395 250.109657 
L 256.952647 239.581826 
L 253.021344 257.51962 
L 249.070417 257.636854 
L 245.139114 257.51962 
L 241.175105 254.903692 
L 237.230719 255.341513 
L 233.273251 256.772212 
L 229.361572 259.259906 
L 225.417186 255.715218 
L 221.485883 257.51962 
L 217.534956 257.893324 
L 213.590571 256.643977 
L 209.67235 259.324023 
L 205.734506 255.277396 
L 201.73779 251.2442 
L 197.76724 251.65759 
L 193.822854 249.981422 
L 189.878468 253.654345 
L 185.914459 247.771296 
L 181.930826 252.108843 
L 177.93411 242.133637 
L 173.917771 235.054358 
L 169.809853 222.113952 
L 165.780431 240.737467 
L 161.711762 217.677464 
L 157.348735 187.793275 
L 152.815635 165.507841 
L 148.25637 135.625404 
L 143.396207 111.561733 
L 138.398677 73.728781 
L 133.204909 69.706887 
L 127.638288 54.814517 
L 121.895054 55.521175 
L 116.132195 49.824573 
L 109.937613 50.913167 
L 103.919645 31.516969 
L 97.554989 40.028851 
L 91.236123 36.262145 
L 84.635982 28.038182 
L 78.055465 37.575527 
z
" clip-path="url(#peea8a2b0db)" style="fill: #ff7f0e; fill-opacity: 0.2"/>
   </g>
   <g id="matplotlib.axis_1">
    <g id="xtick_1">
     <g id="line2d_1">
      <path d="M 74.830619 390.04 
L 74.830619 10.8 
" clip-path="url(#peea8a2b0db)" style="fill: none; stroke: #b0b0b0; stroke-width: 0.8; stroke-linecap: square"/>
     </g>
     <g id="line2d_2">
      <defs>
       <path id="m5e4bc0f28e" d="M 0 0 
L 0 3.5 
" style="stroke: #000000; stroke-width: 0.8"/>
      </defs>
      <g>
       <use xlink:href="#m5e4bc0f28e" x="74.830619" y="390.04" style="stroke: #000000; stroke-width: 0.8"/>
      </g>
     </g>
     <g id="text_1">
      <!-- 0 -->
      <g transform="translate(71.649369 404.638438) scale(0.1 -0.1)">
       <defs>
        <path id="DejaVuSans-30" d="M 2034 4250 
Q 1547 4250 1301 3770 
Q 1056 3291 1056 2328 
Q 1056 1369 1301 889 
Q 1547 409 2034 409 
Q 2525 409 2770 889 
Q 3016 1369 3016 2328 
Q 3016 3291 2770 3770 
Q 2525 4250 2034 4250 
z
M 2034 4750 
Q 2819 4750 3233 4129 
Q 3647 3509 3647 2328 
Q 3647 1150 3233 529 
Q 2819 -91 2034 -91 
Q 1250 -91 836 529 
Q 422 1150 422 2328 
Q 422 3509 836 4129 
Q 1250 4750 2034 4750 
z
" transform="scale(0.015625)"/>
       </defs>
       <use xlink:href="#DejaVuSans-30"/>
      </g>
     </g>
    </g>
    <g id="xtick_2">
     <g id="line2d_3">
      <path d="M 205.656011 390.04 
L 205.656011 10.8 
" clip-path="url(#peea8a2b0db)" style="fill: none; stroke: #b0b0b0; stroke-width: 0.8; stroke-linecap: square"/>
     </g>
     <g id="line2d_4">
      <g>
       <use xlink:href="#m5e4bc0f28e" x="205.656011" y="390.04" style="stroke: #000000; stroke-width: 0.8"/>
      </g>
     </g>
     <g id="text_2">
      <!-- 20000 -->
      <g transform="translate(189.749761 404.638438) scale(0.1 -0.1)">
       <defs>
        <path id="DejaVuSans-32" d="M 1228 531 
L 3431 531 
L 3431 0 
L 469 0 
L 469 531 
Q 828 903 1448 1529 
Q 2069 2156 2228 2338 
Q 2531 2678 2651 2914 
Q 2772 3150 2772 3378 
Q 2772 3750 2511 3984 
Q 2250 4219 1831 4219 
Q 1534 4219 1204 4116 
Q 875 4013 500 3803 
L 500 4441 
Q 881 4594 1212 4672 
Q 1544 4750 1819 4750 
Q 2544 4750 2975 4387 
Q 3406 4025 3406 3419 
Q 3406 3131 3298 2873 
Q 3191 2616 2906 2266 
Q 2828 2175 2409 1742 
Q 1991 1309 1228 531 
z
" transform="scale(0.015625)"/>
       </defs>
       <use xlink:href="#DejaVuSans-32"/>
       <use xlink:href="#DejaVuSans-30" transform="translate(63.623047 0)"/>
       <use xlink:href="#DejaVuSans-30" transform="translate(127.246094 0)"/>
       <use xlink:href="#DejaVuSans-30" transform="translate(190.869141 0)"/>
       <use xlink:href="#DejaVuSans-30" transform="translate(254.492188 0)"/>
      </g>
     </g>
    </g>
    <g id="xtick_3">
     <g id="line2d_5">
      <path d="M 336.481402 390.04 
L 336.481402 10.8 
" clip-path="url(#peea8a2b0db)" style="fill: none; stroke: #b0b0b0; stroke-width: 0.8; stroke-linecap: square"/>
     </g>
     <g id="line2d_6">
      <g>
       <use xlink:href="#m5e4bc0f28e" x="336.481402" y="390.04" style="stroke: #000000; stroke-width: 0.8"/>
      </g>
     </g>
     <g id="text_3">
      <!-- 40000 -->
      <g transform="translate(320.575152 404.638438) scale(0.1 -0.1)">
       <defs>
        <path id="DejaVuSans-34" d="M 2419 4116 
L 825 1625 
L 2419 1625 
L 2419 4116 
z
M 2253 4666 
L 3047 4666 
L 3047 1625 
L 3713 1625 
L 3713 1100 
L 3047 1100 
L 3047 0 
L 2419 0 
L 2419 1100 
L 313 1100 
L 313 1709 
L 2253 4666 
z
" transform="scale(0.015625)"/>
       </defs>
       <use xlink:href="#DejaVuSans-34"/>
       <use xlink:href="#DejaVuSans-30" transform="translate(63.623047 0)"/>
       <use xlink:href="#DejaVuSans-30" transform="translate(127.246094 0)"/>
       <use xlink:href="#DejaVuSans-30" transform="translate(190.869141 0)"/>
       <use xlink:href="#DejaVuSans-30" transform="translate(254.492188 0)"/>
      </g>
     </g>
    </g>
    <g id="xtick_4">
     <g id="line2d_7">
      <path d="M 467.306794 390.04 
L 467.306794 10.8 
" clip-path="url(#peea8a2b0db)" style="fill: none; stroke: #b0b0b0; stroke-width: 0.8; stroke-linecap: square"/>
     </g>
     <g id="line2d_8">
      <g>
       <use xlink:href="#m5e4bc0f28e" x="467.306794" y="390.04" style="stroke: #000000; stroke-width: 0.8"/>
      </g>
     </g>
     <g id="text_4">
      <!-- 60000 -->
      <g transform="translate(451.400544 404.638438) scale(0.1 -0.1)">
       <defs>
        <path id="DejaVuSans-36" d="M 2113 2584 
Q 1688 2584 1439 2293 
Q 1191 2003 1191 1497 
Q 1191 994 1439 701 
Q 1688 409 2113 409 
Q 2538 409 2786 701 
Q 3034 994 3034 1497 
Q 3034 2003 2786 2293 
Q 2538 2584 2113 2584 
z
M 3366 4563 
L 3366 3988 
Q 3128 4100 2886 4159 
Q 2644 4219 2406 4219 
Q 1781 4219 1451 3797 
Q 1122 3375 1075 2522 
Q 1259 2794 1537 2939 
Q 1816 3084 2150 3084 
Q 2853 3084 3261 2657 
Q 3669 2231 3669 1497 
Q 3669 778 3244 343 
Q 2819 -91 2113 -91 
Q 1303 -91 875 529 
Q 447 1150 447 2328 
Q 447 3434 972 4092 
Q 1497 4750 2381 4750 
Q 2619 4750 2861 4703 
Q 3103 4656 3366 4563 
z
" transform="scale(0.015625)"/>
       </defs>
       <use xlink:href="#DejaVuSans-36"/>
       <use xlink:href="#DejaVuSans-30" transform="translate(63.623047 0)"/>
       <use xlink:href="#DejaVuSans-30" transform="translate(127.246094 0)"/>
       <use xlink:href="#DejaVuSans-30" transform="translate(190.869141 0)"/>
       <use xlink:href="#DejaVuSans-30" transform="translate(254.492188 0)"/>
      </g>
     </g>
    </g>
    <g id="xtick_5">
     <g id="line2d_9">
      <path d="M 598.132186 390.04 
L 598.132186 10.8 
" clip-path="url(#peea8a2b0db)" style="fill: none; stroke: #b0b0b0; stroke-width: 0.8; stroke-linecap: square"/>
     </g>
     <g id="line2d_10">
      <g>
       <use xlink:href="#m5e4bc0f28e" x="598.132186" y="390.04" style="stroke: #000000; stroke-width: 0.8"/>
      </g>
     </g>
     <g id="text_5">
      <!-- 80000 -->
      <g transform="translate(582.225936 404.638438) scale(0.1 -0.1)">
       <defs>
        <path id="DejaVuSans-38" d="M 2034 2216 
Q 1584 2216 1326 1975 
Q 1069 1734 1069 1313 
Q 1069 891 1326 650 
Q 1584 409 2034 409 
Q 2484 409 2743 651 
Q 3003 894 3003 1313 
Q 3003 1734 2745 1975 
Q 2488 2216 2034 2216 
z
M 1403 2484 
Q 997 2584 770 2862 
Q 544 3141 544 3541 
Q 544 4100 942 4425 
Q 1341 4750 2034 4750 
Q 2731 4750 3128 4425 
Q 3525 4100 3525 3541 
Q 3525 3141 3298 2862 
Q 3072 2584 2669 2484 
Q 3125 2378 3379 2068 
Q 3634 1759 3634 1313 
Q 3634 634 3220 271 
Q 2806 -91 2034 -91 
Q 1263 -91 848 271 
Q 434 634 434 1313 
Q 434 1759 690 2068 
Q 947 2378 1403 2484 
z
M 1172 3481 
Q 1172 3119 1398 2916 
Q 1625 2713 2034 2713 
Q 2441 2713 2670 2916 
Q 2900 3119 2900 3481 
Q 2900 3844 2670 4047 
Q 2441 4250 2034 4250 
Q 1625 4250 1398 4047 
Q 1172 3844 1172 3481 
z
" transform="scale(0.015625)"/>
       </defs>
       <use xlink:href="#DejaVuSans-38"/>
       <use xlink:href="#DejaVuSans-30" transform="translate(63.623047 0)"/>
       <use xlink:href="#DejaVuSans-30" transform="translate(127.246094 0)"/>
       <use xlink:href="#DejaVuSans-30" transform="translate(190.869141 0)"/>
       <use xlink:href="#DejaVuSans-30" transform="translate(254.492188 0)"/>
      </g>
     </g>
    </g>
    <g id="text_6">
     <!-- Steps -->
     <g transform="translate(364.470156 418.316562) scale(0.1 -0.1)">
      <defs>
       <path id="DejaVuSans-53" d="M 3425 4513 
L 3425 3897 
Q 3066 4069 2747 4153 
Q 2428 4238 2131 4238 
Q 1616 4238 1336 4038 
Q 1056 3838 1056 3469 
Q 1056 3159 1242 3001 
Q 1428 2844 1947 2747 
L 2328 2669 
Q 3034 2534 3370 2195 
Q 3706 1856 3706 1288 
Q 3706 609 3251 259 
Q 2797 -91 1919 -91 
Q 1588 -91 1214 -16 
Q 841 59 441 206 
L 441 856 
Q 825 641 1194 531 
Q 1563 422 1919 422 
Q 2459 422 2753 634 
Q 3047 847 3047 1241 
Q 3047 1584 2836 1778 
Q 2625 1972 2144 2069 
L 1759 2144 
Q 1053 2284 737 2584 
Q 422 2884 422 3419 
Q 422 4038 858 4394 
Q 1294 4750 2059 4750 
Q 2388 4750 2728 4690 
Q 3069 4631 3425 4513 
z
" transform="scale(0.015625)"/>
       <path id="DejaVuSans-74" d="M 1172 4494 
L 1172 3500 
L 2356 3500 
L 2356 3053 
L 1172 3053 
L 1172 1153 
Q 1172 725 1289 603 
Q 1406 481 1766 481 
L 2356 481 
L 2356 0 
L 1766 0 
Q 1100 0 847 248 
Q 594 497 594 1153 
L 594 3053 
L 172 3053 
L 172 3500 
L 594 3500 
L 594 4494 
L 1172 4494 
z
" transform="scale(0.015625)"/>
       <path id="DejaVuSans-65" d="M 3597 1894 
L 3597 1613 
L 953 1613 
Q 991 1019 1311 708 
Q 1631 397 2203 397 
Q 2534 397 2845 478 
Q 3156 559 3463 722 
L 3463 178 
Q 3153 47 2828 -22 
Q 2503 -91 2169 -91 
Q 1331 -91 842 396 
Q 353 884 353 1716 
Q 353 2575 817 3079 
Q 1281 3584 2069 3584 
Q 2775 3584 3186 3129 
Q 3597 2675 3597 1894 
z
M 3022 2063 
Q 3016 2534 2758 2815 
Q 2500 3097 2075 3097 
Q 1594 3097 1305 2825 
Q 1016 2553 972 2059 
L 3022 2063 
z
" transform="scale(0.015625)"/>
       <path id="DejaVuSans-70" d="M 1159 525 
L 1159 -1331 
L 581 -1331 
L 581 3500 
L 1159 3500 
L 1159 2969 
Q 1341 3281 1617 3432 
Q 1894 3584 2278 3584 
Q 2916 3584 3314 3078 
Q 3713 2572 3713 1747 
Q 3713 922 3314 415 
Q 2916 -91 2278 -91 
Q 1894 -91 1617 61 
Q 1341 213 1159 525 
z
M 3116 1747 
Q 3116 2381 2855 2742 
Q 2594 3103 2138 3103 
Q 1681 3103 1420 2742 
Q 1159 2381 1159 1747 
Q 1159 1113 1420 752 
Q 1681 391 2138 391 
Q 2594 391 2855 752 
Q 3116 1113 3116 1747 
z
" transform="scale(0.015625)"/>
       <path id="DejaVuSans-73" d="M 2834 3397 
L 2834 2853 
Q 2591 2978 2328 3040 
Q 2066 3103 1784 3103 
Q 1356 3103 1142 2972 
Q 928 2841 928 2578 
Q 928 2378 1081 2264 
Q 1234 2150 1697 2047 
L 1894 2003 
Q 2506 1872 2764 1633 
Q 3022 1394 3022 966 
Q 3022 478 2636 193 
Q 2250 -91 1575 -91 
Q 1294 -91 989 -36 
Q 684 19 347 128 
L 347 722 
Q 666 556 975 473 
Q 1284 391 1588 391 
Q 1994 391 2212 530 
Q 2431 669 2431 922 
Q 2431 1156 2273 1281 
Q 2116 1406 1581 1522 
L 1381 1569 
Q 847 1681 609 1914 
Q 372 2147 372 2553 
Q 372 3047 722 3315 
Q 1072 3584 1716 3584 
Q 2034 3584 2315 3537 
Q 2597 3491 2834 3397 
z
" transform="scale(0.015625)"/>
      </defs>
      <use xlink:href="#DejaVuSans-53"/>
      <use xlink:href="#DejaVuSans-74" transform="translate(63.476562 0)"/>
      <use xlink:href="#DejaVuSans-65" transform="translate(102.685547 0)"/>
      <use xlink:href="#DejaVuSans-70" transform="translate(164.208984 0)"/>
      <use xlink:href="#DejaVuSans-73" transform="translate(227.685547 0)"/>
     </g>
    </g>
   </g>
   <g id="matplotlib.axis_2">
    <g id="ytick_1">
     <g id="line2d_11">
      <path d="M 47.72 353.823045 
L 709.2 353.823045 
" clip-path="url(#peea8a2b0db)" style="fill: none; stroke: #b0b0b0; stroke-width: 0.8; stroke-linecap: square"/>
     </g>
     <g id="line2d_12">
      <defs>
       <path id="m0d1c5f8382" d="M 0 0 
L -3.5 0 
" style="stroke: #000000; stroke-width: 0.8"/>
      </defs>
      <g>
       <use xlink:href="#m0d1c5f8382" x="47.72" y="353.823045" style="stroke: #000000; stroke-width: 0.8"/>
      </g>
     </g>
     <g id="text_7">
      <!-- 1.0 -->
      <g transform="translate(24.816875 357.622264) scale(0.1 -0.1)">
       <defs>
        <path id="DejaVuSans-31" d="M 794 531 
L 1825 531 
L 1825 4091 
L 703 3866 
L 703 4441 
L 1819 4666 
L 2450 4666 
L 2450 531 
L 3481 531 
L 3481 0 
L 794 0 
L 794 531 
z
" transform="scale(0.015625)"/>
        <path id="DejaVuSans-2e" d="M 684 794 
L 1344 794 
L 1344 0 
L 684 0 
L 684 794 
z
" transform="scale(0.015625)"/>
       </defs>
       <use xlink:href="#DejaVuSans-31"/>
       <use xlink:href="#DejaVuSans-2e" transform="translate(63.623047 0)"/>
       <use xlink:href="#DejaVuSans-30" transform="translate(95.410156 0)"/>
      </g>
     </g>
    </g>
    <g id="ytick_2">
     <g id="line2d_13">
      <path d="M 47.72 307.385059 
L 709.2 307.385059 
" clip-path="url(#peea8a2b0db)" style="fill: none; stroke: #b0b0b0; stroke-width: 0.8; stroke-linecap: square"/>
     </g>
     <g id="line2d_14">
      <g>
       <use xlink:href="#m0d1c5f8382" x="47.72" y="307.385059" style="stroke: #000000; stroke-width: 0.8"/>
      </g>
     </g>
     <g id="text_8">
      <!-- 1.5 -->
      <g transform="translate(24.816875 311.184278) scale(0.1 -0.1)">
       <defs>
        <path id="DejaVuSans-35" d="M 691 4666 
L 3169 4666 
L 3169 4134 
L 1269 4134 
L 1269 2991 
Q 1406 3038 1543 3061 
Q 1681 3084 1819 3084 
Q 2600 3084 3056 2656 
Q 3513 2228 3513 1497 
Q 3513 744 3044 326 
Q 2575 -91 1722 -91 
Q 1428 -91 1123 -41 
Q 819 9 494 109 
L 494 744 
Q 775 591 1075 516 
Q 1375 441 1709 441 
Q 2250 441 2565 725 
Q 2881 1009 2881 1497 
Q 2881 1984 2565 2268 
Q 2250 2553 1709 2553 
Q 1456 2553 1204 2497 
Q 953 2441 691 2322 
L 691 4666 
z
" transform="scale(0.015625)"/>
       </defs>
       <use xlink:href="#DejaVuSans-31"/>
       <use xlink:href="#DejaVuSans-2e" transform="translate(63.623047 0)"/>
       <use xlink:href="#DejaVuSans-35" transform="translate(95.410156 0)"/>
      </g>
     </g>
    </g>
    <g id="ytick_3">
     <g id="line2d_15">
      <path d="M 47.72 260.947074 
L 709.2 260.947074 
" clip-path="url(#peea8a2b0db)" style="fill: none; stroke: #b0b0b0; stroke-width: 0.8; stroke-linecap: square"/>
     </g>
     <g id="line2d_16">
      <g>
       <use xlink:href="#m0d1c5f8382" x="47.72" y="260.947074" style="stroke: #000000; stroke-width: 0.8"/>
      </g>
     </g>
     <g id="text_9">
      <!-- 2.0 -->
      <g transform="translate(24.816875 264.746293) scale(0.1 -0.1)">
       <use xlink:href="#DejaVuSans-32"/>
       <use xlink:href="#DejaVuSans-2e" transform="translate(63.623047 0)"/>
       <use xlink:href="#DejaVuSans-30" transform="translate(95.410156 0)"/>
      </g>
     </g>
    </g>
    <g id="ytick_4">
     <g id="line2d_17">
      <path d="M 47.72 214.509089 
L 709.2 214.509089 
" clip-path="url(#peea8a2b0db)" style="fill: none; stroke: #b0b0b0; stroke-width: 0.8; stroke-linecap: square"/>
     </g>
     <g id="line2d_18">
      <g>
       <use xlink:href="#m0d1c5f8382" x="47.72" y="214.509089" style="stroke: #000000; stroke-width: 0.8"/>
      </g>
     </g>
     <g id="text_10">
      <!-- 2.5 -->
      <g transform="translate(24.816875 218.308308) scale(0.1 -0.1)">
       <use xlink:href="#DejaVuSans-32"/>
       <use xlink:href="#DejaVuSans-2e" transform="translate(63.623047 0)"/>
       <use xlink:href="#DejaVuSans-35" transform="translate(95.410156 0)"/>
      </g>
     </g>
    </g>
    <g id="ytick_5">
     <g id="line2d_19">
      <path d="M 47.72 168.071104 
L 709.2 168.071104 
" clip-path="url(#peea8a2b0db)" style="fill: none; stroke: #b0b0b0; stroke-width: 0.8; stroke-linecap: square"/>
     </g>
     <g id="line2d_20">
      <g>
       <use xlink:href="#m0d1c5f8382" x="47.72" y="168.071104" style="stroke: #000000; stroke-width: 0.8"/>
      </g>
     </g>
     <g id="text_11">
      <!-- 3.0 -->
      <g transform="translate(24.816875 171.870322) scale(0.1 -0.1)">
       <defs>
        <path id="DejaVuSans-33" d="M 2597 2516 
Q 3050 2419 3304 2112 
Q 3559 1806 3559 1356 
Q 3559 666 3084 287 
Q 2609 -91 1734 -91 
Q 1441 -91 1130 -33 
Q 819 25 488 141 
L 488 750 
Q 750 597 1062 519 
Q 1375 441 1716 441 
Q 2309 441 2620 675 
Q 2931 909 2931 1356 
Q 2931 1769 2642 2001 
Q 2353 2234 1838 2234 
L 1294 2234 
L 1294 2753 
L 1863 2753 
Q 2328 2753 2575 2939 
Q 2822 3125 2822 3475 
Q 2822 3834 2567 4026 
Q 2313 4219 1838 4219 
Q 1578 4219 1281 4162 
Q 984 4106 628 3988 
L 628 4550 
Q 988 4650 1302 4700 
Q 1616 4750 1894 4750 
Q 2613 4750 3031 4423 
Q 3450 4097 3450 3541 
Q 3450 3153 3228 2886 
Q 3006 2619 2597 2516 
z
" transform="scale(0.015625)"/>
       </defs>
       <use xlink:href="#DejaVuSans-33"/>
       <use xlink:href="#DejaVuSans-2e" transform="translate(63.623047 0)"/>
       <use xlink:href="#DejaVuSans-30" transform="translate(95.410156 0)"/>
      </g>
     </g>
    </g>
    <g id="ytick_6">
     <g id="line2d_21">
      <path d="M 47.72 121.633118 
L 709.2 121.633118 
" clip-path="url(#peea8a2b0db)" style="fill: none; stroke: #b0b0b0; stroke-width: 0.8; stroke-linecap: square"/>
     </g>
     <g id="line2d_22">
      <g>
       <use xlink:href="#m0d1c5f8382" x="47.72" y="121.633118" style="stroke: #000000; stroke-width: 0.8"/>
      </g>
     </g>
     <g id="text_12">
      <!-- 3.5 -->
      <g transform="translate(24.816875 125.432337) scale(0.1 -0.1)">
       <use xlink:href="#DejaVuSans-33"/>
       <use xlink:href="#DejaVuSans-2e" transform="translate(63.623047 0)"/>
       <use xlink:href="#DejaVuSans-35" transform="translate(95.410156 0)"/>
      </g>
     </g>
    </g>
    <g id="ytick_7">
     <g id="line2d_23">
      <path d="M 47.72 75.195133 
L 709.2 75.195133 
" clip-path="url(#peea8a2b0db)" style="fill: none; stroke: #b0b0b0; stroke-width: 0.8; stroke-linecap: square"/>
     </g>
     <g id="line2d_24">
      <g>
       <use xlink:href="#m0d1c5f8382" x="47.72" y="75.195133" style="stroke: #000000; stroke-width: 0.8"/>
      </g>
     </g>
     <g id="text_13">
      <!-- 4.0 -->
      <g transform="translate(24.816875 78.994352) scale(0.1 -0.1)">
       <use xlink:href="#DejaVuSans-34"/>
       <use xlink:href="#DejaVuSans-2e" transform="translate(63.623047 0)"/>
       <use xlink:href="#DejaVuSans-30" transform="translate(95.410156 0)"/>
      </g>
     </g>
    </g>
    <g id="ytick_8">
     <g id="line2d_25">
      <path d="M 47.72 28.757148 
L 709.2 28.757148 
" clip-path="url(#peea8a2b0db)" style="fill: none; stroke: #b0b0b0; stroke-width: 0.8; stroke-linecap: square"/>
     </g>
     <g id="line2d_26">
      <g>
       <use xlink:href="#m0d1c5f8382" x="47.72" y="28.757148" style="stroke: #000000; stroke-width: 0.8"/>
      </g>
     </g>
     <g id="text_14">
      <!-- 4.5 -->
      <g transform="translate(24.816875 32.556366) scale(0.1 -0.1)">
       <use xlink:href="#DejaVuSans-34"/>
       <use xlink:href="#DejaVuSans-2e" transform="translate(63.623047 0)"/>
       <use xlink:href="#DejaVuSans-35" transform="translate(95.410156 0)"/>
      </g>
     </g>
    </g>
    <g id="text_15">
     <!-- Circuit Depth -->
     <g transform="translate(18.737188 233.329375) rotate(-90) scale(0.1 -0.1)">
      <defs>
       <path id="DejaVuSans-43" d="M 4122 4306 
L 4122 3641 
Q 3803 3938 3442 4084 
Q 3081 4231 2675 4231 
Q 1875 4231 1450 3742 
Q 1025 3253 1025 2328 
Q 1025 1406 1450 917 
Q 1875 428 2675 428 
Q 3081 428 3442 575 
Q 3803 722 4122 1019 
L 4122 359 
Q 3791 134 3420 21 
Q 3050 -91 2638 -91 
Q 1578 -91 968 557 
Q 359 1206 359 2328 
Q 359 3453 968 4101 
Q 1578 4750 2638 4750 
Q 3056 4750 3426 4639 
Q 3797 4528 4122 4306 
z
" transform="scale(0.015625)"/>
       <path id="DejaVuSans-69" d="M 603 3500 
L 1178 3500 
L 1178 0 
L 603 0 
L 603 3500 
z
M 603 4863 
L 1178 4863 
L 1178 4134 
L 603 4134 
L 603 4863 
z
" transform="scale(0.015625)"/>
       <path id="DejaVuSans-72" d="M 2631 2963 
Q 2534 3019 2420 3045 
Q 2306 3072 2169 3072 
Q 1681 3072 1420 2755 
Q 1159 2438 1159 1844 
L 1159 0 
L 581 0 
L 581 3500 
L 1159 3500 
L 1159 2956 
Q 1341 3275 1631 3429 
Q 1922 3584 2338 3584 
Q 2397 3584 2469 3576 
Q 2541 3569 2628 3553 
L 2631 2963 
z
" transform="scale(0.015625)"/>
       <path id="DejaVuSans-63" d="M 3122 3366 
L 3122 2828 
Q 2878 2963 2633 3030 
Q 2388 3097 2138 3097 
Q 1578 3097 1268 2742 
Q 959 2388 959 1747 
Q 959 1106 1268 751 
Q 1578 397 2138 397 
Q 2388 397 2633 464 
Q 2878 531 3122 666 
L 3122 134 
Q 2881 22 2623 -34 
Q 2366 -91 2075 -91 
Q 1284 -91 818 406 
Q 353 903 353 1747 
Q 353 2603 823 3093 
Q 1294 3584 2113 3584 
Q 2378 3584 2631 3529 
Q 2884 3475 3122 3366 
z
" transform="scale(0.015625)"/>
       <path id="DejaVuSans-75" d="M 544 1381 
L 544 3500 
L 1119 3500 
L 1119 1403 
Q 1119 906 1312 657 
Q 1506 409 1894 409 
Q 2359 409 2629 706 
Q 2900 1003 2900 1516 
L 2900 3500 
L 3475 3500 
L 3475 0 
L 2900 0 
L 2900 538 
Q 2691 219 2414 64 
Q 2138 -91 1772 -91 
Q 1169 -91 856 284 
Q 544 659 544 1381 
z
M 1991 3584 
L 1991 3584 
z
" transform="scale(0.015625)"/>
       <path id="DejaVuSans-20" transform="scale(0.015625)"/>
       <path id="DejaVuSans-44" d="M 1259 4147 
L 1259 519 
L 2022 519 
Q 2988 519 3436 956 
Q 3884 1394 3884 2338 
Q 3884 3275 3436 3711 
Q 2988 4147 2022 4147 
L 1259 4147 
z
M 628 4666 
L 1925 4666 
Q 3281 4666 3915 4102 
Q 4550 3538 4550 2338 
Q 4550 1131 3912 565 
Q 3275 0 1925 0 
L 628 0 
L 628 4666 
z
" transform="scale(0.015625)"/>
       <path id="DejaVuSans-68" d="M 3513 2113 
L 3513 0 
L 2938 0 
L 2938 2094 
Q 2938 2591 2744 2837 
Q 2550 3084 2163 3084 
Q 1697 3084 1428 2787 
Q 1159 2491 1159 1978 
L 1159 0 
L 581 0 
L 581 4863 
L 1159 4863 
L 1159 2956 
Q 1366 3272 1645 3428 
Q 1925 3584 2291 3584 
Q 2894 3584 3203 3211 
Q 3513 2838 3513 2113 
z
" transform="scale(0.015625)"/>
      </defs>
      <use xlink:href="#DejaVuSans-43"/>
      <use xlink:href="#DejaVuSans-69" transform="translate(69.824219 0)"/>
      <use xlink:href="#DejaVuSans-72" transform="translate(97.607422 0)"/>
      <use xlink:href="#DejaVuSans-63" transform="translate(136.470703 0)"/>
      <use xlink:href="#DejaVuSans-75" transform="translate(191.451172 0)"/>
      <use xlink:href="#DejaVuSans-69" transform="translate(254.830078 0)"/>
      <use xlink:href="#DejaVuSans-74" transform="translate(282.613281 0)"/>
      <use xlink:href="#DejaVuSans-20" transform="translate(321.822266 0)"/>
      <use xlink:href="#DejaVuSans-44" transform="translate(353.609375 0)"/>
      <use xlink:href="#DejaVuSans-65" transform="translate(430.611328 0)"/>
      <use xlink:href="#DejaVuSans-70" transform="translate(492.134766 0)"/>
      <use xlink:href="#DejaVuSans-74" transform="translate(555.611328 0)"/>
      <use xlink:href="#DejaVuSans-68" transform="translate(594.820312 0)"/>
     </g>
    </g>
   </g>
   <g id="line2d_27">
    <path d="M 77.787273 177.358701 
L 84.034185 172.714902 
L 90.104483 175.655975 
L 96.181323 173.488869 
L 102.362823 162.808132 
L 108.452745 176.739528 
L 114.444548 178.75184 
L 119.854177 188.194231 
L 124.603139 201.35166 
L 129.051202 209.710497 
L 133.198367 231.845937 
L 137.240872 241.9075 
L 141.211423 248.873198 
L 145.21468 252.74303 
L 149.178689 251.040304 
L 153.175405 255.064929 
L 157.139414 256.148482 
L 161.077258 254.755343 
L 165.041268 256.922449 
L 168.985653 259.553935 
L 172.916956 257.696415 
L 176.854801 258.934761 
L 180.792645 257.077242 
L 184.750113 256.922449 
L 188.687957 259.399141 
L 196.550563 260.637488 
L 200.481866 260.173108 
L 204.419711 260.327901 
L 208.351014 260.327901 
L 212.282317 261.256661 
L 216.193996 260.018314 
L 220.125299 260.173108 
L 224.043519 260.173108 
L 227.987905 260.482694 
L 235.837429 260.173108 
L 239.76219 259.553935 
L 243.693493 258.779968 
L 247.631338 260.327901 
L 251.562641 258.934761 
L 255.487402 260.173108 
L 259.412164 258.315588 
L 263.343467 258.160795 
L 267.268229 260.018314 
L 271.199532 258.934761 
L 275.10467 260.482694 
L 279.02289 261.256661 
L 282.928028 260.018314 
L 286.878955 260.482694 
L 290.803717 260.637488 
L 294.721937 260.482694 
L 298.65324 259.863521 
L 302.578002 260.792281 
L 306.509305 260.792281 
L 310.434067 260.327901 
L 314.358829 260.947074 
L 318.290132 260.327901 
L 322.234517 260.018314 
L 326.250857 256.612862 
L 330.201784 257.851209 
L 334.205041 255.529309 
L 338.149426 256.612862 
L 342.080729 257.077242 
L 346.018573 255.684103 
L 349.982583 257.541622 
L 353.920427 258.934761 
L 357.877895 253.516997 
L 361.933482 254.910136 
L 365.930198 258.160795 
L 369.920373 256.148482 
L 373.851676 257.541622 
L 377.796061 260.173108 
L 381.727364 260.482694 
L 385.665208 260.327901 
L 389.58997 260.792281 
L 393.514732 261.101867 
L 397.439494 260.947074 
L 401.370797 259.244348 
L 405.295558 260.637488 
L 409.22032 258.006002 
L 413.145082 259.553935 
L 417.069844 260.637488 
L 420.994605 260.792281 
L 424.919367 260.327901 
L 428.85067 260.018314 
L 432.775432 261.101867 
L 436.700194 260.327901 
L 440.631497 259.863521 
L 444.556259 255.064929 
L 448.474479 253.516997 
L 452.399241 253.826583 
L 456.324003 252.588237 
L 460.248764 255.838896 
L 464.180067 259.863521 
L 472.042673 257.077242 
L 475.967435 260.637488 
L 479.892197 259.399141 
L 483.810417 259.089555 
L 487.709014 262.495007 
L 491.34596 276.116816 
L 494.302614 283.082514 
L 497.06303 285.404413 
L 499.816904 286.17838 
L 502.466118 284.78524 
L 505.121874 288.500279 
L 507.758005 291.596144 
L 510.374513 290.048212 
L 512.991021 281.689374 
L 515.607529 287.416726 
L 518.24366 276.116816 
L 520.873251 277.200369 
L 523.489759 271.008638 
L 526.119349 278.593509 
L 528.748939 282.463341 
L 531.371989 280.760615 
L 533.988496 287.571519 
L 536.611545 286.17838 
L 539.385044 286.487966 
L 542.086588 290.512591 
L 544.761967 303.515227 
L 547.398099 315.43431 
L 550.021148 320.232902 
L 552.644197 321.780835 
L 555.260705 321.935628 
L 557.883754 322.709595 
L 560.500262 322.709595 
L 563.11677 322.554801 
L 565.733278 322.709595 
L 568.349786 330.294466 
L 570.972835 342.523135 
L 573.602425 349.953213 
L 576.232015 351.036766 
L 578.848523 352.275112 
L 581.471572 352.429905 
L 584.08808 353.358665 
L 586.717671 353.513458 
L 589.34072 353.823045 
L 591.983393 353.203872 
L 594.632607 353.823045 
L 597.334151 353.358665 
L 599.963741 353.823045 
L 607.845971 353.823045 
L 610.482103 353.358665 
L 613.098611 353.668251 
L 615.72166 353.823045 
L 618.35125 353.513458 
L 623.636596 353.823045 
L 626.259645 353.823045 
L 628.915401 353.358665 
L 631.53845 353.823045 
L 634.331572 350.262799 
L 637.059281 353.668251 
L 639.708495 352.894285 
L 642.390416 353.823045 
L 650.29227 353.823045 
L 652.92186 353.668251 
L 655.557992 353.823045 
L 658.1745 353.049078 
L 660.797549 353.668251 
L 663.414056 353.668251 
L 666.030564 353.823045 
L 668.653613 353.668251 
L 671.283204 353.823045 
L 676.516219 353.823045 
L 679.132727 353.513458 
L 679.132727 353.513458 
" clip-path="url(#peea8a2b0db)" style="fill: none; stroke: #1f77b4; stroke-width: 1.5; stroke-linecap: square"/>
   </g>
   <g id="line2d_28">
    <path d="M 78.055465 145.006904 
L 84.635982 135.254927 
L 91.236123 137.576827 
L 97.554989 141.756245 
L 103.919645 131.849475 
L 109.937613 146.090457 
L 116.132195 138.350793 
L 121.895054 140.053519 
L 127.638288 145.006904 
L 133.204909 153.830121 
L 138.398677 160.486233 
L 143.396207 185.717538 
L 148.25637 201.970833 
L 152.815635 218.224128 
L 157.348735 229.524037 
L 161.711762 243.455433 
L 165.780431 253.516997 
L 169.809853 244.384193 
L 173.917771 251.195097 
L 177.93411 253.516997 
L 181.930826 258.160795 
L 185.914459 255.374516 
L 189.878468 258.470382 
L 193.822854 256.767656 
L 197.76724 258.006002 
L 201.73779 257.077242 
L 205.734506 258.779968 
L 209.67235 260.637488 
L 213.590571 259.708728 
L 217.534956 259.863521 
L 221.485883 259.708728 
L 225.417186 258.779968 
L 229.361572 260.792281 
L 233.273251 259.399141 
L 237.230719 258.625175 
L 241.175105 258.625175 
L 245.139114 259.708728 
L 249.070417 260.482694 
L 253.021344 259.708728 
L 256.952647 252.27865 
L 260.88395 256.458069 
L 264.815253 259.399141 
L 268.746556 260.482694 
L 272.671318 260.327901 
L 276.596079 260.947074 
L 280.520841 260.947074 
L 284.445603 258.779968 
L 288.370365 255.529309 
L 292.295126 255.064929 
L 296.226429 256.612862 
L 300.151191 256.612862 
L 304.095577 256.458069 
L 308.033421 256.767656 
L 311.964724 259.089555 
L 315.889486 259.708728 
L 319.82733 259.399141 
L 323.765174 259.399141 
L 327.729184 258.160795 
L 331.660487 260.482694 
L 335.585248 260.327901 
L 339.51001 259.244348 
L 343.428231 260.327901 
L 347.33991 258.006002 
L 351.264672 258.160795 
L 355.189433 260.637488 
L 359.094571 260.792281 
L 363.019333 260.637488 
L 366.950636 260.637488 
L 370.875398 257.541622 
L 374.793618 247.789645 
L 378.71838 251.81427 
L 382.78705 248.408818 
L 386.809931 257.541622 
L 390.917848 244.538986 
L 395.032307 257.386829 
L 399.01594 256.922449 
L 403.012655 258.160795 
L 406.9505 257.386829 
L 410.914509 257.851209 
L 414.924307 257.541622 
L 418.894858 259.553935 
L 422.852326 258.315588 
L 426.809794 259.399141 
L 430.760721 258.160795 
L 434.737813 257.696415 
L 438.675657 258.779968 
L 442.620043 260.327901 
L 446.557887 259.553935 
L 450.508814 260.327901 
L 454.440117 260.018314 
L 458.37142 260.637488 
L 462.302723 259.399141 
L 466.260191 260.327901 
L 470.204577 258.779968 
L 474.18821 259.089555 
L 478.132595 261.721041 
L 481.821871 272.556571 
L 485.00747 291.905731 
L 487.813674 305.372747 
L 490.502136 313.886377 
L 493.144809 316.672657 
L 495.82673 319.923316 
L 498.475944 321.006869 
L 501.105534 320.232902 
L 503.735125 321.935628 
L 506.364715 320.387695 
L 508.981223 308.004233 
L 511.597731 309.706959 
L 514.214238 314.505551 
L 516.837288 318.375383 
L 519.453795 321.935628 
L 522.070303 319.768522 
L 524.686811 321.626042 
L 527.30986 323.173974 
L 529.926368 322.554801 
L 532.549417 322.554801 
L 535.165925 322.864388 
L 537.782433 322.554801 
L 540.398941 322.864388 
L 543.015448 322.400008 
L 545.638498 322.400008 
L 548.261547 322.709595 
L 550.878054 322.864388 
L 553.494562 318.220589 
L 556.11107 318.530176 
L 558.727578 320.852075 
L 561.344086 321.161662 
L 563.960594 322.709595 
L 566.616349 321.935628 
L 569.232857 323.019181 
L 571.849365 322.864388 
L 574.465873 328.591739 
L 577.08238 338.653303 
L 579.698888 352.275112 
L 582.315396 352.120319 
L 584.931904 353.513458 
L 587.548412 353.358665 
L 590.16492 353.823045 
L 600.630951 353.823045 
L 603.247459 353.668251 
L 605.863967 353.823045 
L 613.71349 353.823045 
L 616.329998 353.358665 
L 618.946506 353.823045 
L 637.262061 353.823045 
L 639.878568 353.203872 
L 642.495076 353.823045 
L 645.118125 353.668251 
L 647.734633 353.823045 
L 658.200665 353.823045 
L 660.817172 353.668251 
L 663.43368 353.823045 
L 673.899712 353.823045 
L 676.516219 353.203872 
L 679.132727 353.668251 
L 679.132727 353.668251 
" clip-path="url(#peea8a2b0db)" style="fill: none; stroke: #ff7f0e; stroke-width: 1.5; stroke-linecap: square"/>
   </g>
   <g id="patch_3">
    <path d="M 47.72 390.04 
L 47.72 10.8 
" style="fill: none; stroke: #000000; stroke-width: 0.8; stroke-linejoin: miter; stroke-linecap: square"/>
   </g>
   <g id="patch_4">
    <path d="M 709.2 390.04 
L 709.2 10.8 
" style="fill: none; stroke: #000000; stroke-width: 0.8; stroke-linejoin: miter; stroke-linecap: square"/>
   </g>
   <g id="patch_5">
    <path d="M 47.72 390.04 
L 709.2 390.04 
" style="fill: none; stroke: #000000; stroke-width: 0.8; stroke-linejoin: miter; stroke-linecap: square"/>
   </g>
   <g id="patch_6">
    <path d="M 47.72 10.8 
L 709.2 10.8 
" style="fill: none; stroke: #000000; stroke-width: 0.8; stroke-linejoin: miter; stroke-linecap: square"/>
   </g>
   <g id="legend_1">
    <g id="patch_7">
     <path d="M 608.528125 385.04 
L 702.2 385.04 
Q 704.2 385.04 704.2 383.04 
L 704.2 340.005625 
Q 704.2 338.005625 702.2 338.005625 
L 608.528125 338.005625 
Q 606.528125 338.005625 606.528125 340.005625 
L 606.528125 383.04 
Q 606.528125 385.04 608.528125 385.04 
z
" style="fill: #ffffff; opacity: 0.8; stroke: #cccccc; stroke-linejoin: miter"/>
    </g>
    <g id="text_16">
     <!-- Max Circuit Depth -->
     <g transform="translate(610.528125 349.604062) scale(0.1 -0.1)">
      <defs>
       <path id="DejaVuSans-4d" d="M 628 4666 
L 1569 4666 
L 2759 1491 
L 3956 4666 
L 4897 4666 
L 4897 0 
L 4281 0 
L 4281 4097 
L 3078 897 
L 2444 897 
L 1241 4097 
L 1241 0 
L 628 0 
L 628 4666 
z
" transform="scale(0.015625)"/>
       <path id="DejaVuSans-61" d="M 2194 1759 
Q 1497 1759 1228 1600 
Q 959 1441 959 1056 
Q 959 750 1161 570 
Q 1363 391 1709 391 
Q 2188 391 2477 730 
Q 2766 1069 2766 1631 
L 2766 1759 
L 2194 1759 
z
M 3341 1997 
L 3341 0 
L 2766 0 
L 2766 531 
Q 2569 213 2275 61 
Q 1981 -91 1556 -91 
Q 1019 -91 701 211 
Q 384 513 384 1019 
Q 384 1609 779 1909 
Q 1175 2209 1959 2209 
L 2766 2209 
L 2766 2266 
Q 2766 2663 2505 2880 
Q 2244 3097 1772 3097 
Q 1472 3097 1187 3025 
Q 903 2953 641 2809 
L 641 3341 
Q 956 3463 1253 3523 
Q 1550 3584 1831 3584 
Q 2591 3584 2966 3190 
Q 3341 2797 3341 1997 
z
" transform="scale(0.015625)"/>
       <path id="DejaVuSans-78" d="M 3513 3500 
L 2247 1797 
L 3578 0 
L 2900 0 
L 1881 1375 
L 863 0 
L 184 0 
L 1544 1831 
L 300 3500 
L 978 3500 
L 1906 2253 
L 2834 3500 
L 3513 3500 
z
" transform="scale(0.015625)"/>
      </defs>
      <use xlink:href="#DejaVuSans-4d"/>
      <use xlink:href="#DejaVuSans-61" transform="translate(86.279297 0)"/>
      <use xlink:href="#DejaVuSans-78" transform="translate(147.558594 0)"/>
      <use xlink:href="#DejaVuSans-20" transform="translate(206.738281 0)"/>
      <use xlink:href="#DejaVuSans-43" transform="translate(238.525391 0)"/>
      <use xlink:href="#DejaVuSans-69" transform="translate(308.349609 0)"/>
      <use xlink:href="#DejaVuSans-72" transform="translate(336.132812 0)"/>
      <use xlink:href="#DejaVuSans-63" transform="translate(374.996094 0)"/>
      <use xlink:href="#DejaVuSans-75" transform="translate(429.976562 0)"/>
      <use xlink:href="#DejaVuSans-69" transform="translate(493.355469 0)"/>
      <use xlink:href="#DejaVuSans-74" transform="translate(521.138672 0)"/>
      <use xlink:href="#DejaVuSans-20" transform="translate(560.347656 0)"/>
      <use xlink:href="#DejaVuSans-44" transform="translate(592.134766 0)"/>
      <use xlink:href="#DejaVuSans-65" transform="translate(669.136719 0)"/>
      <use xlink:href="#DejaVuSans-70" transform="translate(730.660156 0)"/>
      <use xlink:href="#DejaVuSans-74" transform="translate(794.136719 0)"/>
      <use xlink:href="#DejaVuSans-68" transform="translate(833.345703 0)"/>
     </g>
    </g>
    <g id="line2d_29">
     <path d="M 638.182813 360.782187 
L 648.182813 360.782187 
L 658.182813 360.782187 
" style="fill: none; stroke: #1f77b4; stroke-width: 1.5; stroke-linecap: square"/>
    </g>
    <g id="text_17">
     <!-- 4 -->
     <g transform="translate(666.182813 364.282187) scale(0.1 -0.1)">
      <use xlink:href="#DejaVuSans-34"/>
     </g>
    </g>
    <g id="line2d_30">
     <path d="M 638.182813 375.460312 
L 648.182813 375.460312 
L 658.182813 375.460312 
" style="fill: none; stroke: #ff7f0e; stroke-width: 1.5; stroke-linecap: square"/>
    </g>
    <g id="text_18">
     <!-- 5 -->
     <g transform="translate(666.182813 378.960312) scale(0.1 -0.1)">
      <use xlink:href="#DejaVuSans-35"/>
     </g>
    </g>
   </g>
  </g>
 </g>
 <defs>
  <clipPath id="peea8a2b0db">
   <rect x="47.72" y="10.8" width="661.48" height="379.24"/>
  </clipPath>
 </defs>
</svg>
