<?xml version="1.0" encoding="utf-8" standalone="no"?>
<!DOCTYPE svg PUBLIC "-//W3C//DTD SVG 1.1//EN"
  "http://www.w3.org/Graphics/SVG/1.1/DTD/svg11.dtd">
<svg xmlns:xlink="http://www.w3.org/1999/xlink" width="720pt" height="432pt" viewBox="0 0 720 432" xmlns="http://www.w3.org/2000/svg" version="1.1">
 <metadata>
  <rdf:RDF xmlns:dc="http://purl.org/dc/elements/1.1/" xmlns:cc="http://creativecommons.org/ns#" xmlns:rdf="http://www.w3.org/1999/02/22-rdf-syntax-ns#">
   <cc:Work>
    <dc:type rdf:resource="http://purl.org/dc/dcmitype/StillImage"/>
    <dc:date>2025-04-16T01:32:42.498018</dc:date>
    <dc:format>image/svg+xml</dc:format>
    <dc:creator>
     <cc:Agent>
      <dc:title>Matplotlib v3.10.0, https://matplotlib.org/</dc:title>
     </cc:Agent>
    </dc:creator>
   </cc:Work>
  </rdf:RDF>
 </metadata>
 <defs>
  <style type="text/css">*{stroke-linejoin: round; stroke-linecap: butt}</style>
 </defs>
 <g id="figure_1">
  <g id="patch_1">
   <path d="M 0 432 
L 720 432 
L 720 0 
L 0 0 
z
" style="fill: #ffffff"/>
  </g>
  <g id="axes_1">
   <g id="patch_2">
    <path d="M 47.72 390.04 
L 709.2 390.04 
L 709.2 10.8 
L 47.72 10.8 
z
" style="fill: #ffffff"/>
   </g>
   <g id="FillBetweenPolyCollection_1">
    <path d="M 77.787273 129.092923 
L 77.787273 372.801818 
L 84.034185 316.398602 
L 90.104483 296.105415 
L 96.181323 283.718411 
L 102.362823 258.457948 
L 108.452745 202.403469 
L 114.444548 151.85235 
L 119.854177 125.046258 
L 124.603139 83.655399 
L 129.051202 51.442511 
L 133.198367 44.941815 
L 137.240872 36.037764 
L 141.211423 32.02448 
L 145.21468 32.669326 
L 149.178689 29.655173 
L 153.175405 28.877402 
L 157.139414 28.982304 
L 161.077258 30.555844 
L 165.041268 30.136234 
L 168.985653 28.143084 
L 172.916956 28.143084 
L 176.854801 29.821526 
L 180.792645 28.457792 
L 184.750113 28.457792 
L 188.687957 32.7588 
L 192.625802 28.038182 
L 196.550563 28.143084 
L 200.481866 28.457792 
L 204.419711 28.038182 
L 208.351014 29.926429 
L 212.282317 28.457792 
L 216.193996 28.247987 
L 220.125299 29.821526 
L 224.043519 28.247987 
L 227.987905 28.143084 
L 231.912667 28.143084 
L 235.837429 28.143084 
L 239.76219 28.143084 
L 243.693493 29.926429 
L 247.631338 28.143084 
L 251.562641 29.926429 
L 255.487402 28.038182 
L 259.412164 28.247987 
L 263.343467 28.038182 
L 267.268229 28.038182 
L 271.199532 28.038182 
L 275.10467 28.352889 
L 279.02289 28.247987 
L 282.928028 28.457792 
L 286.878955 28.247987 
L 290.803717 29.611721 
L 294.721937 28.143084 
L 298.65324 29.297013 
L 302.578002 28.143084 
L 306.509305 28.143084 
L 310.434067 28.038182 
L 314.358829 28.038182 
L 318.290132 29.611721 
L 322.234517 28.038182 
L 326.250857 28.982305 
L 330.201784 28.143084 
L 334.205041 30.660747 
L 338.149426 28.143084 
L 342.080729 28.143084 
L 346.018573 28.038182 
L 349.982583 28.038182 
L 353.920427 28.038182 
L 357.877895 30.241137 
L 361.933482 28.143084 
L 365.930198 28.667597 
L 369.920373 28.877402 
L 373.851676 28.667597 
L 377.796061 28.457792 
L 381.727364 28.143084 
L 385.665208 28.667597 
L 389.58997 28.143084 
L 393.514732 28.143084 
L 397.439494 28.038182 
L 401.370797 28.143084 
L 405.295558 28.038182 
L 409.22032 28.143084 
L 413.145082 28.143084 
L 417.069844 28.038182 
L 420.994605 28.143084 
L 424.919367 28.038182 
L 428.85067 28.038182 
L 432.775432 28.143084 
L 436.700194 28.038182 
L 440.631497 28.038182 
L 444.556259 28.877402 
L 448.474479 31.814675 
L 452.399241 29.926428 
L 456.324003 32.44409 
L 460.248764 28.877402 
L 464.180067 28.143084 
L 468.104829 28.7725 
L 472.042673 28.247987 
L 475.967435 28.038182 
L 479.892197 28.982305 
L 483.810417 29.297013 
L 487.709014 29.506817 
L 491.34596 38.528434 
L 494.302614 47.024431 
L 497.06303 46.920635 
L 499.816904 48.406161 
L 502.466118 48.930674 
L 505.121874 49.140479 
L 507.758005 49.018685 
L 510.374513 49.018685 
L 512.991021 49.646993 
L 515.607529 49.192493 
L 518.24366 49.620433 
L 520.873251 49.105589 
L 523.489759 49.560089 
L 526.119349 49.018685 
L 528.748939 49.018685 
L 531.371989 48.957235 
L 533.988496 49.018685 
L 536.611545 48.913783 
L 539.385044 49.286853 
L 542.086588 51.147835 
L 544.761967 54.475645 
L 547.398099 56.474439 
L 550.021148 57.318026 
L 552.644197 57.578738 
L 555.260705 57.604192 
L 557.883754 57.604192 
L 560.500262 57.665642 
L 563.11677 57.709094 
L 565.733278 57.542741 
L 568.349786 56.84517 
L 570.972835 55.361844 
L 573.602425 54.55937 
L 576.232015 54.433381 
L 578.848523 54.289393 
L 581.471572 54.271395 
L 584.08808 54.163404 
L 586.717671 54.145406 
L 589.34072 54.109409 
L 591.983393 54.181403 
L 594.632607 54.109409 
L 597.334151 54.163404 
L 599.963741 54.109409 
L 602.593332 54.109409 
L 605.216381 54.109409 
L 607.845971 54.109409 
L 610.482103 54.163404 
L 613.098611 54.127407 
L 615.72166 54.109409 
L 618.35125 54.145406 
L 620.993923 54.127407 
L 623.636596 54.109409 
L 626.259645 54.109409 
L 628.915401 54.127407 
L 631.53845 54.109409 
L 634.331572 54.523373 
L 637.059281 54.127407 
L 639.708495 54.2174 
L 642.390416 54.109409 
L 645.03963 54.109409 
L 647.662679 54.109409 
L 650.29227 54.109409 
L 652.92186 54.127407 
L 655.557992 54.109409 
L 658.1745 54.199401 
L 660.797549 54.127407 
L 663.414056 54.127407 
L 666.030564 54.109409 
L 668.653613 54.109409 
L 671.283204 54.109409 
L 673.899712 54.109409 
L 676.516219 54.109409 
L 679.132727 54.127407 
L 679.132727 54.004506 
L 679.132727 54.004506 
L 676.516219 54.109409 
L 673.899712 54.109409 
L 671.283204 54.109409 
L 668.653613 54.109409 
L 666.030564 54.109409 
L 663.414056 54.004506 
L 660.797549 54.004506 
L 658.1745 53.584896 
L 655.557992 54.109409 
L 652.92186 54.004506 
L 650.29227 54.109409 
L 647.662679 54.109409 
L 645.03963 54.109409 
L 642.390416 54.109409 
L 639.708495 53.479994 
L 637.059281 54.004506 
L 634.331572 51.696651 
L 631.53845 54.109409 
L 628.915401 54.004506 
L 626.259645 54.109409 
L 623.636596 54.109409 
L 620.993923 54.004506 
L 618.35125 53.899604 
L 615.72166 54.109409 
L 613.098611 54.004506 
L 610.482103 53.794701 
L 607.845971 54.109409 
L 605.216381 54.109409 
L 602.593332 54.109409 
L 599.963741 54.109409 
L 597.334151 53.794701 
L 594.632607 54.109409 
L 591.983393 53.689799 
L 589.34072 54.109409 
L 586.717671 53.899604 
L 584.08808 53.794701 
L 581.471572 53.165286 
L 578.848523 53.060384 
L 576.232015 52.221164 
L 573.602425 51.486846 
L 570.972835 46.512976 
L 568.349786 38.164226 
L 565.733278 33.208354 
L 563.11677 33.128906 
L 560.500262 33.085454 
L 557.883754 33.146904 
L 555.260705 33.146904 
L 552.644197 32.998549 
L 550.021148 32.737837 
L 547.398099 32.017151 
L 544.761967 30.018357 
L 542.086588 28.038182 
L 539.385044 28.038182 
L 536.611545 28.038182 
L 533.988496 28.038182 
L 531.371989 28.038182 
L 528.748939 28.038182 
L 526.119349 28.038182 
L 523.489759 28.038182 
L 520.873251 28.038182 
L 518.24366 28.038182 
L 515.607529 28.038182 
L 512.991021 28.038182 
L 510.374513 28.038182 
L 507.758005 28.038182 
L 505.121874 28.038182 
L 502.466118 28.038182 
L 499.816904 28.038182 
L 497.06303 28.038182 
L 494.302614 28.038182 
L 491.34596 28.038182 
L 487.709014 28.038182 
L 483.810417 28.038182 
L 479.892197 28.038182 
L 475.967435 28.038182 
L 472.042673 28.038182 
L 468.104829 28.038182 
L 464.180067 28.038182 
L 460.248764 28.038182 
L 456.324003 28.038182 
L 452.399241 28.038182 
L 448.474479 28.038182 
L 444.556259 28.038182 
L 440.631497 28.038182 
L 436.700194 28.038182 
L 432.775432 28.038182 
L 428.85067 28.038182 
L 424.919367 28.038182 
L 420.994605 28.038182 
L 417.069844 28.038182 
L 413.145082 28.038182 
L 409.22032 28.038182 
L 405.295558 28.038182 
L 401.370797 28.038182 
L 397.439494 28.038182 
L 393.514732 28.038182 
L 389.58997 28.038182 
L 385.665208 28.038182 
L 381.727364 28.038182 
L 377.796061 28.038182 
L 373.851676 28.038182 
L 369.920373 28.038182 
L 365.930198 28.038182 
L 361.933482 28.038182 
L 357.877895 28.038182 
L 353.920427 28.038182 
L 349.982583 28.038182 
L 346.018573 28.038182 
L 342.080729 28.038182 
L 338.149426 28.038182 
L 334.205041 28.038182 
L 330.201784 28.038182 
L 326.250857 28.038182 
L 322.234517 28.038182 
L 318.290132 28.038182 
L 314.358829 28.038182 
L 310.434067 28.038182 
L 306.509305 28.038182 
L 302.578002 28.038182 
L 298.65324 28.038182 
L 294.721937 28.038182 
L 290.803717 28.038182 
L 286.878955 28.038182 
L 282.928028 28.038182 
L 279.02289 28.038182 
L 275.10467 28.038182 
L 271.199532 28.038182 
L 267.268229 28.038182 
L 263.343467 28.038182 
L 259.412164 28.038182 
L 255.487402 28.038182 
L 251.562641 28.038182 
L 247.631338 28.038182 
L 243.693493 28.038182 
L 239.76219 28.038182 
L 235.837429 28.038182 
L 231.912667 28.038182 
L 227.987905 28.038182 
L 224.043519 28.038182 
L 220.125299 28.038182 
L 216.193996 28.038182 
L 212.282317 28.038182 
L 208.351014 28.038182 
L 204.419711 28.038182 
L 200.481866 28.038182 
L 196.550563 28.038182 
L 192.625802 28.038182 
L 188.687957 28.038182 
L 184.750113 28.038182 
L 180.792645 28.038182 
L 176.854801 28.038182 
L 172.916956 28.038182 
L 168.985653 28.038182 
L 165.041268 28.038182 
L 161.077258 28.038182 
L 157.139414 28.038182 
L 153.175405 28.038182 
L 149.178689 28.038182 
L 145.21468 28.038182 
L 141.211423 28.038182 
L 137.240872 28.038182 
L 133.198367 28.038182 
L 129.051202 28.038182 
L 124.603139 28.038182 
L 119.854177 28.038182 
L 114.444548 28.038182 
L 108.452745 37.040661 
L 102.362823 52.073793 
L 96.181323 59.836919 
L 90.104483 64.396225 
L 84.034185 83.383728 
L 77.787273 129.092923 
z
" clip-path="url(#p6925bc45cc)" style="fill: #1f77b4; fill-opacity: 0.2"/>
   </g>
   <g id="FillBetweenPolyCollection_2">
    <path d="M 78.055465 116.624298 
L 78.055465 346.337372 
L 84.635982 326.722236 
L 91.236123 283.058877 
L 97.554989 279.054236 
L 103.919645 232.737067 
L 109.937613 201.598183 
L 116.132195 167.931624 
L 121.895054 113.54352 
L 127.638288 79.630059 
L 133.204909 60.067913 
L 138.398677 43.668668 
L 143.396207 34.094862 
L 148.25637 36.430389 
L 152.815635 31.919577 
L 157.348735 35.739947 
L 161.711762 32.02448 
L 165.780431 30.136234 
L 169.809853 31.709773 
L 173.917771 30.765649 
L 177.93411 30.031331 
L 181.930826 29.297012 
L 185.914459 28.247987 
L 189.878468 28.457792 
L 193.822854 28.247987 
L 197.76724 28.562694 
L 201.73779 31.18526 
L 205.734506 28.247987 
L 209.67235 29.821526 
L 213.590571 28.457792 
L 217.534956 28.143084 
L 221.485883 29.716624 
L 225.417186 28.038182 
L 229.361572 28.457792 
L 233.273251 28.143084 
L 237.230719 29.611721 
L 241.175105 28.143084 
L 245.139114 28.247987 
L 249.070417 28.772499 
L 253.021344 28.143084 
L 256.952647 28.143084 
L 260.88395 29.611721 
L 264.815253 28.038182 
L 268.746556 28.143084 
L 272.671318 28.038182 
L 276.596079 28.247987 
L 280.520841 28.038182 
L 284.445603 28.247987 
L 288.370365 28.143084 
L 292.295126 28.038182 
L 296.226429 28.038182 
L 300.151191 28.038182 
L 304.095577 29.716624 
L 308.033421 28.143084 
L 311.964724 28.038182 
L 315.889486 28.143084 
L 319.82733 28.038182 
L 323.765174 28.352889 
L 327.729184 28.143084 
L 331.660487 28.038182 
L 335.585248 28.038182 
L 339.51001 28.143084 
L 343.428231 28.143084 
L 347.33991 28.352889 
L 351.264672 28.143084 
L 355.189433 28.247987 
L 359.094571 28.352889 
L 363.019333 28.038182 
L 366.950636 28.038182 
L 370.875398 28.667597 
L 374.793618 28.143084 
L 378.71838 29.401916 
L 382.78705 28.038182 
L 386.809931 28.038182 
L 390.917848 28.038182 
L 395.032307 28.143084 
L 399.01594 28.038182 
L 403.012655 28.038182 
L 406.9505 28.667597 
L 410.914509 28.038182 
L 414.924307 28.143084 
L 418.894858 28.143084 
L 422.852326 28.038182 
L 426.809794 28.143084 
L 430.760721 28.038182 
L 434.737813 29.611721 
L 438.675657 28.143084 
L 442.620043 28.143084 
L 446.557887 28.143084 
L 450.508814 28.352889 
L 454.440117 28.038182 
L 458.37142 28.038182 
L 462.302723 28.038182 
L 466.260191 28.247987 
L 470.204577 28.143084 
L 474.18821 28.247987 
L 478.132595 29.61172 
L 481.821871 37.128704 
L 485.00747 50.657511 
L 487.813674 54.045491 
L 490.502136 56.318629 
L 493.144809 56.405533 
L 495.82673 56.97041 
L 498.475944 57.213123 
L 501.105534 57.578738 
L 503.735125 57.709094 
L 506.364715 57.62219 
L 508.981223 58.215609 
L 511.597731 57.665642 
L 514.214238 57.709094 
L 516.837288 57.665642 
L 519.453795 57.709094 
L 522.070303 57.709094 
L 524.686811 57.665642 
L 527.30986 57.673097 
L 529.926368 57.709094 
L 532.549417 57.62219 
L 535.165925 57.709094 
L 537.782433 57.709094 
L 540.398941 57.709094 
L 543.015448 57.665642 
L 545.638498 57.709094 
L 548.261547 57.665642 
L 550.878054 57.709094 
L 553.494562 57.709094 
L 556.11107 57.709094 
L 558.727578 58.19761 
L 561.344086 58.215609 
L 563.960594 57.691096 
L 566.616349 57.797531 
L 569.232857 57.691096 
L 571.849365 57.647644 
L 574.465873 57.007156 
L 577.08238 55.873255 
L 579.698888 54.289393 
L 582.315396 54.253396 
L 584.931904 54.109409 
L 587.548412 54.127407 
L 590.16492 54.109409 
L 592.781427 54.109409 
L 595.397935 54.109409 
L 598.014443 54.109409 
L 600.630951 54.109409 
L 603.247459 54.127407 
L 605.863967 54.109409 
L 608.480474 54.109409 
L 611.096982 54.109409 
L 613.71349 54.109409 
L 616.329998 55.36824 
L 618.946506 54.109409 
L 621.563014 54.109409 
L 624.179521 54.109409 
L 626.796029 54.109409 
L 629.412537 54.109409 
L 632.029045 54.109409 
L 634.645553 54.109409 
L 637.262061 54.109409 
L 639.878568 54.214312 
L 642.495076 54.109409 
L 645.118125 54.127407 
L 647.734633 54.109409 
L 650.351141 54.109409 
L 652.967649 54.109409 
L 655.584157 54.109409 
L 658.200665 54.109409 
L 660.817172 54.127407 
L 663.43368 54.109409 
L 666.050188 54.109409 
L 668.666696 54.109409 
L 671.283204 54.109409 
L 673.899712 54.109409 
L 676.516219 54.127407 
L 679.132727 54.109409 
L 679.132727 54.109409 
L 679.132727 54.109409 
L 676.516219 54.004506 
L 673.899712 54.109409 
L 671.283204 54.109409 
L 668.666696 54.109409 
L 666.050188 54.109409 
L 663.43368 54.109409 
L 660.817172 54.004506 
L 658.200665 54.109409 
L 655.584157 54.109409 
L 652.967649 54.109409 
L 650.351141 54.109409 
L 647.734633 54.109409 
L 645.118125 54.004506 
L 642.495076 54.109409 
L 639.878568 54.091411 
L 637.262061 54.109409 
L 634.645553 54.109409 
L 632.029045 54.109409 
L 629.412537 54.109409 
L 626.796029 54.109409 
L 624.179521 54.109409 
L 621.563014 54.109409 
L 618.946506 54.109409 
L 616.329998 53.893428 
L 613.71349 54.109409 
L 611.096982 54.109409 
L 608.480474 54.109409 
L 605.863967 54.109409 
L 603.247459 54.004506 
L 600.630951 54.109409 
L 598.014443 54.109409 
L 595.397935 54.109409 
L 592.781427 54.109409 
L 590.16492 54.109409 
L 587.548412 54.004506 
L 584.931904 54.109409 
L 582.315396 53.270189 
L 579.698888 53.060384 
L 577.08238 43.828962 
L 574.465873 37.220104 
L 571.849365 33.190356 
L 569.232857 33.233808 
L 566.616349 33.127373 
L 563.960594 33.233808 
L 561.344086 33.143816 
L 558.727578 33.248718 
L 556.11107 33.128906 
L 553.494562 33.128906 
L 550.878054 33.128906 
L 548.261547 33.085454 
L 545.638498 33.128906 
L 543.015448 33.085454 
L 540.398941 33.128906 
L 537.782433 33.128906 
L 535.165925 33.128906 
L 532.549417 33.042001 
L 529.926368 33.128906 
L 527.30986 33.338711 
L 524.686811 33.085454 
L 522.070303 33.128906 
L 519.453795 33.128906 
L 516.837288 33.085454 
L 514.214238 33.128906 
L 511.597731 33.085454 
L 508.981223 33.143816 
L 506.364715 33.042001 
L 503.735125 33.128906 
L 501.105534 32.998549 
L 498.475944 32.755836 
L 495.82673 32.390221 
L 493.144809 31.825344 
L 490.502136 31.73844 
L 487.813674 30.44851 
L 485.00747 28.535341 
L 481.821871 28.038182 
L 478.132595 28.038182 
L 474.18821 28.038182 
L 470.204577 28.038182 
L 466.260191 28.038182 
L 462.302723 28.038182 
L 458.37142 28.038182 
L 454.440117 28.038182 
L 450.508814 28.038182 
L 446.557887 28.038182 
L 442.620043 28.038182 
L 438.675657 28.038182 
L 434.737813 28.038182 
L 430.760721 28.038182 
L 426.809794 28.038182 
L 422.852326 28.038182 
L 418.894858 28.038182 
L 414.924307 28.038182 
L 410.914509 28.038182 
L 406.9505 28.038182 
L 403.012655 28.038182 
L 399.01594 28.038182 
L 395.032307 28.038182 
L 390.917848 28.038182 
L 386.809931 28.038182 
L 382.78705 28.038182 
L 378.71838 28.038182 
L 374.793618 28.038182 
L 370.875398 28.038182 
L 366.950636 28.038182 
L 363.019333 28.038182 
L 359.094571 28.038182 
L 355.189433 28.038182 
L 351.264672 28.038182 
L 347.33991 28.038182 
L 343.428231 28.038182 
L 339.51001 28.038182 
L 335.585248 28.038182 
L 331.660487 28.038182 
L 327.729184 28.038182 
L 323.765174 28.038182 
L 319.82733 28.038182 
L 315.889486 28.038182 
L 311.964724 28.038182 
L 308.033421 28.038182 
L 304.095577 28.038182 
L 300.151191 28.038182 
L 296.226429 28.038182 
L 292.295126 28.038182 
L 288.370365 28.038182 
L 284.445603 28.038182 
L 280.520841 28.038182 
L 276.596079 28.038182 
L 272.671318 28.038182 
L 268.746556 28.038182 
L 264.815253 28.038182 
L 260.88395 28.038182 
L 256.952647 28.038182 
L 253.021344 28.038182 
L 249.070417 28.038182 
L 245.139114 28.038182 
L 241.175105 28.038182 
L 237.230719 28.038182 
L 233.273251 28.038182 
L 229.361572 28.038182 
L 225.417186 28.038182 
L 221.485883 28.038182 
L 217.534956 28.038182 
L 213.590571 28.038182 
L 209.67235 28.038182 
L 205.734506 28.038182 
L 201.73779 28.038182 
L 197.76724 28.038182 
L 193.822854 28.038182 
L 189.878468 28.038182 
L 185.914459 28.038182 
L 181.930826 28.038182 
L 177.93411 28.038182 
L 173.917771 28.038182 
L 169.809853 28.038182 
L 165.780431 28.038182 
L 161.711762 28.038182 
L 157.348735 28.038182 
L 152.815635 28.038182 
L 148.25637 28.038182 
L 143.396207 28.038182 
L 138.398677 28.038182 
L 133.204909 28.038182 
L 127.638288 28.038182 
L 121.895054 28.038182 
L 116.132195 28.038182 
L 109.937613 36.281675 
L 103.919645 45.292514 
L 97.554989 52.595224 
L 91.236123 66.492837 
L 84.635982 86.877858 
L 78.055465 116.624298 
z
" clip-path="url(#p6925bc45cc)" style="fill: #ff7f0e; fill-opacity: 0.2"/>
   </g>
   <g id="matplotlib.axis_1">
    <g id="xtick_1">
     <g id="line2d_1">
      <path d="M 74.830619 390.04 
L 74.830619 10.8 
" clip-path="url(#p6925bc45cc)" style="fill: none; stroke: #b0b0b0; stroke-width: 0.8; stroke-linecap: square"/>
     </g>
     <g id="line2d_2">
      <defs>
       <path id="m855e9eb45f" d="M 0 0 
L 0 3.5 
" style="stroke: #000000; stroke-width: 0.8"/>
      </defs>
      <g>
       <use xlink:href="#m855e9eb45f" x="74.830619" y="390.04" style="stroke: #000000; stroke-width: 0.8"/>
      </g>
     </g>
     <g id="text_1">
      <!-- 0 -->
      <g transform="translate(71.649369 404.638438) scale(0.1 -0.1)">
       <defs>
        <path id="DejaVuSans-30" d="M 2034 4250 
Q 1547 4250 1301 3770 
Q 1056 3291 1056 2328 
Q 1056 1369 1301 889 
Q 1547 409 2034 409 
Q 2525 409 2770 889 
Q 3016 1369 3016 2328 
Q 3016 3291 2770 3770 
Q 2525 4250 2034 4250 
z
M 2034 4750 
Q 2819 4750 3233 4129 
Q 3647 3509 3647 2328 
Q 3647 1150 3233 529 
Q 2819 -91 2034 -91 
Q 1250 -91 836 529 
Q 422 1150 422 2328 
Q 422 3509 836 4129 
Q 1250 4750 2034 4750 
z
" transform="scale(0.015625)"/>
       </defs>
       <use xlink:href="#DejaVuSans-30"/>
      </g>
     </g>
    </g>
    <g id="xtick_2">
     <g id="line2d_3">
      <path d="M 205.656011 390.04 
L 205.656011 10.8 
" clip-path="url(#p6925bc45cc)" style="fill: none; stroke: #b0b0b0; stroke-width: 0.8; stroke-linecap: square"/>
     </g>
     <g id="line2d_4">
      <g>
       <use xlink:href="#m855e9eb45f" x="205.656011" y="390.04" style="stroke: #000000; stroke-width: 0.8"/>
      </g>
     </g>
     <g id="text_2">
      <!-- 20000 -->
      <g transform="translate(189.749761 404.638438) scale(0.1 -0.1)">
       <defs>
        <path id="DejaVuSans-32" d="M 1228 531 
L 3431 531 
L 3431 0 
L 469 0 
L 469 531 
Q 828 903 1448 1529 
Q 2069 2156 2228 2338 
Q 2531 2678 2651 2914 
Q 2772 3150 2772 3378 
Q 2772 3750 2511 3984 
Q 2250 4219 1831 4219 
Q 1534 4219 1204 4116 
Q 875 4013 500 3803 
L 500 4441 
Q 881 4594 1212 4672 
Q 1544 4750 1819 4750 
Q 2544 4750 2975 4387 
Q 3406 4025 3406 3419 
Q 3406 3131 3298 2873 
Q 3191 2616 2906 2266 
Q 2828 2175 2409 1742 
Q 1991 1309 1228 531 
z
" transform="scale(0.015625)"/>
       </defs>
       <use xlink:href="#DejaVuSans-32"/>
       <use xlink:href="#DejaVuSans-30" transform="translate(63.623047 0)"/>
       <use xlink:href="#DejaVuSans-30" transform="translate(127.246094 0)"/>
       <use xlink:href="#DejaVuSans-30" transform="translate(190.869141 0)"/>
       <use xlink:href="#DejaVuSans-30" transform="translate(254.492188 0)"/>
      </g>
     </g>
    </g>
    <g id="xtick_3">
     <g id="line2d_5">
      <path d="M 336.481402 390.04 
L 336.481402 10.8 
" clip-path="url(#p6925bc45cc)" style="fill: none; stroke: #b0b0b0; stroke-width: 0.8; stroke-linecap: square"/>
     </g>
     <g id="line2d_6">
      <g>
       <use xlink:href="#m855e9eb45f" x="336.481402" y="390.04" style="stroke: #000000; stroke-width: 0.8"/>
      </g>
     </g>
     <g id="text_3">
      <!-- 40000 -->
      <g transform="translate(320.575152 404.638438) scale(0.1 -0.1)">
       <defs>
        <path id="DejaVuSans-34" d="M 2419 4116 
L 825 1625 
L 2419 1625 
L 2419 4116 
z
M 2253 4666 
L 3047 4666 
L 3047 1625 
L 3713 1625 
L 3713 1100 
L 3047 1100 
L 3047 0 
L 2419 0 
L 2419 1100 
L 313 1100 
L 313 1709 
L 2253 4666 
z
" transform="scale(0.015625)"/>
       </defs>
       <use xlink:href="#DejaVuSans-34"/>
       <use xlink:href="#DejaVuSans-30" transform="translate(63.623047 0)"/>
       <use xlink:href="#DejaVuSans-30" transform="translate(127.246094 0)"/>
       <use xlink:href="#DejaVuSans-30" transform="translate(190.869141 0)"/>
       <use xlink:href="#DejaVuSans-30" transform="translate(254.492188 0)"/>
      </g>
     </g>
    </g>
    <g id="xtick_4">
     <g id="line2d_7">
      <path d="M 467.306794 390.04 
L 467.306794 10.8 
" clip-path="url(#p6925bc45cc)" style="fill: none; stroke: #b0b0b0; stroke-width: 0.8; stroke-linecap: square"/>
     </g>
     <g id="line2d_8">
      <g>
       <use xlink:href="#m855e9eb45f" x="467.306794" y="390.04" style="stroke: #000000; stroke-width: 0.8"/>
      </g>
     </g>
     <g id="text_4">
      <!-- 60000 -->
      <g transform="translate(451.400544 404.638438) scale(0.1 -0.1)">
       <defs>
        <path id="DejaVuSans-36" d="M 2113 2584 
Q 1688 2584 1439 2293 
Q 1191 2003 1191 1497 
Q 1191 994 1439 701 
Q 1688 409 2113 409 
Q 2538 409 2786 701 
Q 3034 994 3034 1497 
Q 3034 2003 2786 2293 
Q 2538 2584 2113 2584 
z
M 3366 4563 
L 3366 3988 
Q 3128 4100 2886 4159 
Q 2644 4219 2406 4219 
Q 1781 4219 1451 3797 
Q 1122 3375 1075 2522 
Q 1259 2794 1537 2939 
Q 1816 3084 2150 3084 
Q 2853 3084 3261 2657 
Q 3669 2231 3669 1497 
Q 3669 778 3244 343 
Q 2819 -91 2113 -91 
Q 1303 -91 875 529 
Q 447 1150 447 2328 
Q 447 3434 972 4092 
Q 1497 4750 2381 4750 
Q 2619 4750 2861 4703 
Q 3103 4656 3366 4563 
z
" transform="scale(0.015625)"/>
       </defs>
       <use xlink:href="#DejaVuSans-36"/>
       <use xlink:href="#DejaVuSans-30" transform="translate(63.623047 0)"/>
       <use xlink:href="#DejaVuSans-30" transform="translate(127.246094 0)"/>
       <use xlink:href="#DejaVuSans-30" transform="translate(190.869141 0)"/>
       <use xlink:href="#DejaVuSans-30" transform="translate(254.492188 0)"/>
      </g>
     </g>
    </g>
    <g id="xtick_5">
     <g id="line2d_9">
      <path d="M 598.132186 390.04 
L 598.132186 10.8 
" clip-path="url(#p6925bc45cc)" style="fill: none; stroke: #b0b0b0; stroke-width: 0.8; stroke-linecap: square"/>
     </g>
     <g id="line2d_10">
      <g>
       <use xlink:href="#m855e9eb45f" x="598.132186" y="390.04" style="stroke: #000000; stroke-width: 0.8"/>
      </g>
     </g>
     <g id="text_5">
      <!-- 80000 -->
      <g transform="translate(582.225936 404.638438) scale(0.1 -0.1)">
       <defs>
        <path id="DejaVuSans-38" d="M 2034 2216 
Q 1584 2216 1326 1975 
Q 1069 1734 1069 1313 
Q 1069 891 1326 650 
Q 1584 409 2034 409 
Q 2484 409 2743 651 
Q 3003 894 3003 1313 
Q 3003 1734 2745 1975 
Q 2488 2216 2034 2216 
z
M 1403 2484 
Q 997 2584 770 2862 
Q 544 3141 544 3541 
Q 544 4100 942 4425 
Q 1341 4750 2034 4750 
Q 2731 4750 3128 4425 
Q 3525 4100 3525 3541 
Q 3525 3141 3298 2862 
Q 3072 2584 2669 2484 
Q 3125 2378 3379 2068 
Q 3634 1759 3634 1313 
Q 3634 634 3220 271 
Q 2806 -91 2034 -91 
Q 1263 -91 848 271 
Q 434 634 434 1313 
Q 434 1759 690 2068 
Q 947 2378 1403 2484 
z
M 1172 3481 
Q 1172 3119 1398 2916 
Q 1625 2713 2034 2713 
Q 2441 2713 2670 2916 
Q 2900 3119 2900 3481 
Q 2900 3844 2670 4047 
Q 2441 4250 2034 4250 
Q 1625 4250 1398 4047 
Q 1172 3844 1172 3481 
z
" transform="scale(0.015625)"/>
       </defs>
       <use xlink:href="#DejaVuSans-38"/>
       <use xlink:href="#DejaVuSans-30" transform="translate(63.623047 0)"/>
       <use xlink:href="#DejaVuSans-30" transform="translate(127.246094 0)"/>
       <use xlink:href="#DejaVuSans-30" transform="translate(190.869141 0)"/>
       <use xlink:href="#DejaVuSans-30" transform="translate(254.492188 0)"/>
      </g>
     </g>
    </g>
    <g id="text_6">
     <!-- Steps -->
     <g transform="translate(364.470156 418.316562) scale(0.1 -0.1)">
      <defs>
       <path id="DejaVuSans-53" d="M 3425 4513 
L 3425 3897 
Q 3066 4069 2747 4153 
Q 2428 4238 2131 4238 
Q 1616 4238 1336 4038 
Q 1056 3838 1056 3469 
Q 1056 3159 1242 3001 
Q 1428 2844 1947 2747 
L 2328 2669 
Q 3034 2534 3370 2195 
Q 3706 1856 3706 1288 
Q 3706 609 3251 259 
Q 2797 -91 1919 -91 
Q 1588 -91 1214 -16 
Q 841 59 441 206 
L 441 856 
Q 825 641 1194 531 
Q 1563 422 1919 422 
Q 2459 422 2753 634 
Q 3047 847 3047 1241 
Q 3047 1584 2836 1778 
Q 2625 1972 2144 2069 
L 1759 2144 
Q 1053 2284 737 2584 
Q 422 2884 422 3419 
Q 422 4038 858 4394 
Q 1294 4750 2059 4750 
Q 2388 4750 2728 4690 
Q 3069 4631 3425 4513 
z
" transform="scale(0.015625)"/>
       <path id="DejaVuSans-74" d="M 1172 4494 
L 1172 3500 
L 2356 3500 
L 2356 3053 
L 1172 3053 
L 1172 1153 
Q 1172 725 1289 603 
Q 1406 481 1766 481 
L 2356 481 
L 2356 0 
L 1766 0 
Q 1100 0 847 248 
Q 594 497 594 1153 
L 594 3053 
L 172 3053 
L 172 3500 
L 594 3500 
L 594 4494 
L 1172 4494 
z
" transform="scale(0.015625)"/>
       <path id="DejaVuSans-65" d="M 3597 1894 
L 3597 1613 
L 953 1613 
Q 991 1019 1311 708 
Q 1631 397 2203 397 
Q 2534 397 2845 478 
Q 3156 559 3463 722 
L 3463 178 
Q 3153 47 2828 -22 
Q 2503 -91 2169 -91 
Q 1331 -91 842 396 
Q 353 884 353 1716 
Q 353 2575 817 3079 
Q 1281 3584 2069 3584 
Q 2775 3584 3186 3129 
Q 3597 2675 3597 1894 
z
M 3022 2063 
Q 3016 2534 2758 2815 
Q 2500 3097 2075 3097 
Q 1594 3097 1305 2825 
Q 1016 2553 972 2059 
L 3022 2063 
z
" transform="scale(0.015625)"/>
       <path id="DejaVuSans-70" d="M 1159 525 
L 1159 -1331 
L 581 -1331 
L 581 3500 
L 1159 3500 
L 1159 2969 
Q 1341 3281 1617 3432 
Q 1894 3584 2278 3584 
Q 2916 3584 3314 3078 
Q 3713 2572 3713 1747 
Q 3713 922 3314 415 
Q 2916 -91 2278 -91 
Q 1894 -91 1617 61 
Q 1341 213 1159 525 
z
M 3116 1747 
Q 3116 2381 2855 2742 
Q 2594 3103 2138 3103 
Q 1681 3103 1420 2742 
Q 1159 2381 1159 1747 
Q 1159 1113 1420 752 
Q 1681 391 2138 391 
Q 2594 391 2855 752 
Q 3116 1113 3116 1747 
z
" transform="scale(0.015625)"/>
       <path id="DejaVuSans-73" d="M 2834 3397 
L 2834 2853 
Q 2591 2978 2328 3040 
Q 2066 3103 1784 3103 
Q 1356 3103 1142 2972 
Q 928 2841 928 2578 
Q 928 2378 1081 2264 
Q 1234 2150 1697 2047 
L 1894 2003 
Q 2506 1872 2764 1633 
Q 3022 1394 3022 966 
Q 3022 478 2636 193 
Q 2250 -91 1575 -91 
Q 1294 -91 989 -36 
Q 684 19 347 128 
L 347 722 
Q 666 556 975 473 
Q 1284 391 1588 391 
Q 1994 391 2212 530 
Q 2431 669 2431 922 
Q 2431 1156 2273 1281 
Q 2116 1406 1581 1522 
L 1381 1569 
Q 847 1681 609 1914 
Q 372 2147 372 2553 
Q 372 3047 722 3315 
Q 1072 3584 1716 3584 
Q 2034 3584 2315 3537 
Q 2597 3491 2834 3397 
z
" transform="scale(0.015625)"/>
      </defs>
      <use xlink:href="#DejaVuSans-53"/>
      <use xlink:href="#DejaVuSans-74" transform="translate(63.476562 0)"/>
      <use xlink:href="#DejaVuSans-65" transform="translate(102.685547 0)"/>
      <use xlink:href="#DejaVuSans-70" transform="translate(164.208984 0)"/>
      <use xlink:href="#DejaVuSans-73" transform="translate(227.685547 0)"/>
     </g>
    </g>
   </g>
   <g id="matplotlib.axis_2">
    <g id="ytick_1">
     <g id="line2d_11">
      <path d="M 47.72 340.893206 
L 709.2 340.893206 
" clip-path="url(#p6925bc45cc)" style="fill: none; stroke: #b0b0b0; stroke-width: 0.8; stroke-linecap: square"/>
     </g>
     <g id="line2d_12">
      <defs>
       <path id="m0d3c1cf34e" d="M 0 0 
L -3.5 0 
" style="stroke: #000000; stroke-width: 0.8"/>
      </defs>
      <g>
       <use xlink:href="#m0d3c1cf34e" x="47.72" y="340.893206" style="stroke: #000000; stroke-width: 0.8"/>
      </g>
     </g>
     <g id="text_7">
      <!-- 0.6 -->
      <g transform="translate(24.816875 344.692425) scale(0.1 -0.1)">
       <defs>
        <path id="DejaVuSans-2e" d="M 684 794 
L 1344 794 
L 1344 0 
L 684 0 
L 684 794 
z
" transform="scale(0.015625)"/>
       </defs>
       <use xlink:href="#DejaVuSans-30"/>
       <use xlink:href="#DejaVuSans-2e" transform="translate(63.623047 0)"/>
       <use xlink:href="#DejaVuSans-36" transform="translate(95.410156 0)"/>
      </g>
     </g>
    </g>
    <g id="ytick_2">
     <g id="line2d_13">
      <path d="M 47.72 262.67945 
L 709.2 262.67945 
" clip-path="url(#p6925bc45cc)" style="fill: none; stroke: #b0b0b0; stroke-width: 0.8; stroke-linecap: square"/>
     </g>
     <g id="line2d_14">
      <g>
       <use xlink:href="#m0d3c1cf34e" x="47.72" y="262.67945" style="stroke: #000000; stroke-width: 0.8"/>
      </g>
     </g>
     <g id="text_8">
      <!-- 0.7 -->
      <g transform="translate(24.816875 266.478669) scale(0.1 -0.1)">
       <defs>
        <path id="DejaVuSans-37" d="M 525 4666 
L 3525 4666 
L 3525 4397 
L 1831 0 
L 1172 0 
L 2766 4134 
L 525 4134 
L 525 4666 
z
" transform="scale(0.015625)"/>
       </defs>
       <use xlink:href="#DejaVuSans-30"/>
       <use xlink:href="#DejaVuSans-2e" transform="translate(63.623047 0)"/>
       <use xlink:href="#DejaVuSans-37" transform="translate(95.410156 0)"/>
      </g>
     </g>
    </g>
    <g id="ytick_3">
     <g id="line2d_15">
      <path d="M 47.72 184.465694 
L 709.2 184.465694 
" clip-path="url(#p6925bc45cc)" style="fill: none; stroke: #b0b0b0; stroke-width: 0.8; stroke-linecap: square"/>
     </g>
     <g id="line2d_16">
      <g>
       <use xlink:href="#m0d3c1cf34e" x="47.72" y="184.465694" style="stroke: #000000; stroke-width: 0.8"/>
      </g>
     </g>
     <g id="text_9">
      <!-- 0.8 -->
      <g transform="translate(24.816875 188.264913) scale(0.1 -0.1)">
       <use xlink:href="#DejaVuSans-30"/>
       <use xlink:href="#DejaVuSans-2e" transform="translate(63.623047 0)"/>
       <use xlink:href="#DejaVuSans-38" transform="translate(95.410156 0)"/>
      </g>
     </g>
    </g>
    <g id="ytick_4">
     <g id="line2d_17">
      <path d="M 47.72 106.251938 
L 709.2 106.251938 
" clip-path="url(#p6925bc45cc)" style="fill: none; stroke: #b0b0b0; stroke-width: 0.8; stroke-linecap: square"/>
     </g>
     <g id="line2d_18">
      <g>
       <use xlink:href="#m0d3c1cf34e" x="47.72" y="106.251938" style="stroke: #000000; stroke-width: 0.8"/>
      </g>
     </g>
     <g id="text_10">
      <!-- 0.9 -->
      <g transform="translate(24.816875 110.051157) scale(0.1 -0.1)">
       <defs>
        <path id="DejaVuSans-39" d="M 703 97 
L 703 672 
Q 941 559 1184 500 
Q 1428 441 1663 441 
Q 2288 441 2617 861 
Q 2947 1281 2994 2138 
Q 2813 1869 2534 1725 
Q 2256 1581 1919 1581 
Q 1219 1581 811 2004 
Q 403 2428 403 3163 
Q 403 3881 828 4315 
Q 1253 4750 1959 4750 
Q 2769 4750 3195 4129 
Q 3622 3509 3622 2328 
Q 3622 1225 3098 567 
Q 2575 -91 1691 -91 
Q 1453 -91 1209 -44 
Q 966 3 703 97 
z
M 1959 2075 
Q 2384 2075 2632 2365 
Q 2881 2656 2881 3163 
Q 2881 3666 2632 3958 
Q 2384 4250 1959 4250 
Q 1534 4250 1286 3958 
Q 1038 3666 1038 3163 
Q 1038 2656 1286 2365 
Q 1534 2075 1959 2075 
z
" transform="scale(0.015625)"/>
       </defs>
       <use xlink:href="#DejaVuSans-30"/>
       <use xlink:href="#DejaVuSans-2e" transform="translate(63.623047 0)"/>
       <use xlink:href="#DejaVuSans-39" transform="translate(95.410156 0)"/>
      </g>
     </g>
    </g>
    <g id="ytick_5">
     <g id="line2d_19">
      <path d="M 47.72 28.038182 
L 709.2 28.038182 
" clip-path="url(#p6925bc45cc)" style="fill: none; stroke: #b0b0b0; stroke-width: 0.8; stroke-linecap: square"/>
     </g>
     <g id="line2d_20">
      <g>
       <use xlink:href="#m0d3c1cf34e" x="47.72" y="28.038182" style="stroke: #000000; stroke-width: 0.8"/>
      </g>
     </g>
     <g id="text_11">
      <!-- 1.0 -->
      <g transform="translate(24.816875 31.837401) scale(0.1 -0.1)">
       <defs>
        <path id="DejaVuSans-31" d="M 794 531 
L 1825 531 
L 1825 4091 
L 703 3866 
L 703 4441 
L 1819 4666 
L 2450 4666 
L 2450 531 
L 3481 531 
L 3481 0 
L 794 0 
L 794 531 
z
" transform="scale(0.015625)"/>
       </defs>
       <use xlink:href="#DejaVuSans-31"/>
       <use xlink:href="#DejaVuSans-2e" transform="translate(63.623047 0)"/>
       <use xlink:href="#DejaVuSans-30" transform="translate(95.410156 0)"/>
      </g>
     </g>
    </g>
    <g id="text_12">
     <!-- Accuracy -->
     <g transform="translate(18.737188 223.248125) rotate(-90) scale(0.1 -0.1)">
      <defs>
       <path id="DejaVuSans-41" d="M 2188 4044 
L 1331 1722 
L 3047 1722 
L 2188 4044 
z
M 1831 4666 
L 2547 4666 
L 4325 0 
L 3669 0 
L 3244 1197 
L 1141 1197 
L 716 0 
L 50 0 
L 1831 4666 
z
" transform="scale(0.015625)"/>
       <path id="DejaVuSans-63" d="M 3122 3366 
L 3122 2828 
Q 2878 2963 2633 3030 
Q 2388 3097 2138 3097 
Q 1578 3097 1268 2742 
Q 959 2388 959 1747 
Q 959 1106 1268 751 
Q 1578 397 2138 397 
Q 2388 397 2633 464 
Q 2878 531 3122 666 
L 3122 134 
Q 2881 22 2623 -34 
Q 2366 -91 2075 -91 
Q 1284 -91 818 406 
Q 353 903 353 1747 
Q 353 2603 823 3093 
Q 1294 3584 2113 3584 
Q 2378 3584 2631 3529 
Q 2884 3475 3122 3366 
z
" transform="scale(0.015625)"/>
       <path id="DejaVuSans-75" d="M 544 1381 
L 544 3500 
L 1119 3500 
L 1119 1403 
Q 1119 906 1312 657 
Q 1506 409 1894 409 
Q 2359 409 2629 706 
Q 2900 1003 2900 1516 
L 2900 3500 
L 3475 3500 
L 3475 0 
L 2900 0 
L 2900 538 
Q 2691 219 2414 64 
Q 2138 -91 1772 -91 
Q 1169 -91 856 284 
Q 544 659 544 1381 
z
M 1991 3584 
L 1991 3584 
z
" transform="scale(0.015625)"/>
       <path id="DejaVuSans-72" d="M 2631 2963 
Q 2534 3019 2420 3045 
Q 2306 3072 2169 3072 
Q 1681 3072 1420 2755 
Q 1159 2438 1159 1844 
L 1159 0 
L 581 0 
L 581 3500 
L 1159 3500 
L 1159 2956 
Q 1341 3275 1631 3429 
Q 1922 3584 2338 3584 
Q 2397 3584 2469 3576 
Q 2541 3569 2628 3553 
L 2631 2963 
z
" transform="scale(0.015625)"/>
       <path id="DejaVuSans-61" d="M 2194 1759 
Q 1497 1759 1228 1600 
Q 959 1441 959 1056 
Q 959 750 1161 570 
Q 1363 391 1709 391 
Q 2188 391 2477 730 
Q 2766 1069 2766 1631 
L 2766 1759 
L 2194 1759 
z
M 3341 1997 
L 3341 0 
L 2766 0 
L 2766 531 
Q 2569 213 2275 61 
Q 1981 -91 1556 -91 
Q 1019 -91 701 211 
Q 384 513 384 1019 
Q 384 1609 779 1909 
Q 1175 2209 1959 2209 
L 2766 2209 
L 2766 2266 
Q 2766 2663 2505 2880 
Q 2244 3097 1772 3097 
Q 1472 3097 1187 3025 
Q 903 2953 641 2809 
L 641 3341 
Q 956 3463 1253 3523 
Q 1550 3584 1831 3584 
Q 2591 3584 2966 3190 
Q 3341 2797 3341 1997 
z
" transform="scale(0.015625)"/>
       <path id="DejaVuSans-79" d="M 2059 -325 
Q 1816 -950 1584 -1140 
Q 1353 -1331 966 -1331 
L 506 -1331 
L 506 -850 
L 844 -850 
Q 1081 -850 1212 -737 
Q 1344 -625 1503 -206 
L 1606 56 
L 191 3500 
L 800 3500 
L 1894 763 
L 2988 3500 
L 3597 3500 
L 2059 -325 
z
" transform="scale(0.015625)"/>
      </defs>
      <use xlink:href="#DejaVuSans-41"/>
      <use xlink:href="#DejaVuSans-63" transform="translate(66.658203 0)"/>
      <use xlink:href="#DejaVuSans-63" transform="translate(121.638672 0)"/>
      <use xlink:href="#DejaVuSans-75" transform="translate(176.619141 0)"/>
      <use xlink:href="#DejaVuSans-72" transform="translate(239.998047 0)"/>
      <use xlink:href="#DejaVuSans-61" transform="translate(281.111328 0)"/>
      <use xlink:href="#DejaVuSans-63" transform="translate(342.390625 0)"/>
      <use xlink:href="#DejaVuSans-79" transform="translate(397.371094 0)"/>
     </g>
    </g>
   </g>
   <g id="line2d_21">
    <path d="M 77.787273 250.94737 
L 84.034185 199.891165 
L 90.104483 180.25082 
L 96.181323 171.777665 
L 102.362823 155.265871 
L 108.452745 119.722065 
L 114.444548 88.914538 
L 119.854177 73.793219 
L 124.603139 52.89277 
L 129.051202 37.988706 
L 133.198367 35.077419 
L 137.240872 31.383991 
L 141.211423 29.68936 
L 145.21468 29.993525 
L 149.178689 28.733415 
L 153.175405 28.385798 
L 157.139414 28.42925 
L 161.077258 29.081032 
L 165.041268 28.907223 
L 168.985653 28.081634 
L 172.916956 28.081634 
L 176.854801 28.776867 
L 180.792645 28.21199 
L 184.750113 28.21199 
L 188.687957 29.993526 
L 192.625802 28.038182 
L 200.481866 28.21199 
L 204.419711 28.038182 
L 208.351014 28.820319 
L 212.282317 28.21199 
L 216.193996 28.125086 
L 220.125299 28.776867 
L 224.043519 28.125086 
L 235.837429 28.081634 
L 239.76219 28.081634 
L 243.693493 28.820319 
L 247.631338 28.081634 
L 251.562641 28.820319 
L 255.487402 28.038182 
L 259.412164 28.125086 
L 267.268229 28.038182 
L 271.199532 28.038182 
L 275.10467 28.168538 
L 279.02289 28.125086 
L 282.928028 28.21199 
L 286.878955 28.125086 
L 290.803717 28.689963 
L 294.721937 28.081634 
L 298.65324 28.559607 
L 302.578002 28.081634 
L 314.358829 28.038182 
L 318.290132 28.689963 
L 322.234517 28.038182 
L 326.250857 28.42925 
L 330.201784 28.081634 
L 334.205041 29.124484 
L 338.149426 28.081634 
L 353.920427 28.038182 
L 357.877895 28.950676 
L 361.933482 28.081634 
L 365.930198 28.298894 
L 369.920373 28.385798 
L 381.727364 28.081634 
L 385.665208 28.298894 
L 389.58997 28.081634 
L 440.631497 28.038182 
L 444.556259 28.385798 
L 448.474479 29.602456 
L 452.399241 28.820319 
L 456.324003 29.863169 
L 460.248764 28.385798 
L 464.180067 28.081634 
L 468.104829 28.342346 
L 472.042673 28.125086 
L 475.967435 28.038182 
L 479.892197 28.42925 
L 487.709014 28.64651 
L 491.34596 32.383386 
L 494.302614 35.989906 
L 497.06303 35.85955 
L 499.816904 36.511331 
L 502.466118 36.728591 
L 505.121874 36.815495 
L 510.374513 36.728591 
L 512.991021 37.076207 
L 515.607529 36.902399 
L 518.24366 37.076208 
L 520.873251 36.815495 
L 523.489759 36.989303 
L 526.119349 36.728591 
L 536.611545 36.685139 
L 539.385044 37.119659 
L 542.086588 38.857741 
L 544.761967 42.247001 
L 547.398099 44.245795 
L 550.021148 45.027932 
L 552.644197 45.288644 
L 557.883754 45.375548 
L 565.733278 45.375548 
L 568.349786 47.504698 
L 570.972835 50.93741 
L 573.602425 53.023108 
L 578.848523 53.674889 
L 581.471572 53.718341 
L 584.08808 53.979053 
L 589.34072 54.109409 
L 591.983393 53.935601 
L 594.632607 54.109409 
L 597.334151 53.979053 
L 599.963741 54.109409 
L 607.845971 54.109409 
L 610.482103 53.979053 
L 615.72166 54.109409 
L 618.35125 54.022505 
L 626.259645 54.109409 
L 631.53845 54.109409 
L 634.331572 53.110012 
L 637.059281 54.065957 
L 639.708495 53.848697 
L 642.390416 54.109409 
L 655.557992 54.109409 
L 658.1745 53.892149 
L 660.797549 54.065957 
L 679.132727 54.065957 
L 679.132727 54.065957 
" clip-path="url(#p6925bc45cc)" style="fill: none; stroke: #1f77b4; stroke-width: 1.5; stroke-linecap: square"/>
   </g>
   <g id="line2d_22">
    <path d="M 78.055465 231.480835 
L 84.635982 206.800047 
L 91.236123 174.775857 
L 97.554989 165.82473 
L 103.919645 139.014791 
L 109.937613 118.939929 
L 116.132195 96.344847 
L 121.895054 68.578968 
L 127.638288 50.416001 
L 133.204909 41.464873 
L 138.398677 34.512541 
L 143.396207 30.645306 
L 148.25637 31.514348 
L 152.815635 29.645908 
L 157.348735 31.297087 
L 161.711762 29.68936 
L 165.780431 28.907223 
L 169.809853 29.559004 
L 177.93411 28.863771 
L 181.930826 28.559607 
L 185.914459 28.125086 
L 189.878468 28.21199 
L 193.822854 28.125086 
L 197.76724 28.255442 
L 201.73779 29.341744 
L 205.734506 28.125086 
L 209.67235 28.776867 
L 213.590571 28.21199 
L 217.534956 28.081634 
L 221.485883 28.733415 
L 225.417186 28.038182 
L 229.361572 28.21199 
L 233.273251 28.081634 
L 237.230719 28.689963 
L 241.175105 28.081634 
L 245.139114 28.125086 
L 249.070417 28.342346 
L 253.021344 28.081634 
L 256.952647 28.081634 
L 260.88395 28.689963 
L 264.815253 28.038182 
L 276.596079 28.125086 
L 280.520841 28.038182 
L 284.445603 28.125086 
L 300.151191 28.038182 
L 304.095577 28.733415 
L 308.033421 28.081634 
L 319.82733 28.038182 
L 323.765174 28.168538 
L 331.660487 28.038182 
L 343.428231 28.081634 
L 347.33991 28.168538 
L 351.264672 28.081634 
L 359.094571 28.168538 
L 363.019333 28.038182 
L 366.950636 28.038182 
L 370.875398 28.298894 
L 374.793618 28.081634 
L 378.71838 28.603059 
L 382.78705 28.038182 
L 403.012655 28.038182 
L 406.9505 28.298894 
L 410.914509 28.038182 
L 418.894858 28.081634 
L 430.760721 28.038182 
L 434.737813 28.689963 
L 438.675657 28.081634 
L 474.18821 28.125086 
L 478.132595 28.689962 
L 481.821871 31.905414 
L 485.00747 39.596426 
L 487.813674 42.247001 
L 490.502136 44.028534 
L 493.144809 44.115439 
L 495.82673 44.680315 
L 501.105534 45.288644 
L 503.735125 45.419 
L 506.364715 45.332096 
L 508.981223 45.679712 
L 511.597731 45.375548 
L 519.453795 45.419 
L 556.11107 45.419 
L 558.727578 45.723164 
L 561.344086 45.679712 
L 563.960594 45.462452 
L 571.849365 45.419 
L 574.465873 47.11363 
L 577.08238 49.851109 
L 579.698888 53.674889 
L 582.315396 53.761793 
L 584.931904 54.109409 
L 590.16492 54.109409 
L 613.71349 54.109409 
L 616.329998 54.630834 
L 618.946506 54.109409 
L 679.132727 54.109409 
L 679.132727 54.109409 
" clip-path="url(#p6925bc45cc)" style="fill: none; stroke: #ff7f0e; stroke-width: 1.5; stroke-linecap: square"/>
   </g>
   <g id="patch_3">
    <path d="M 47.72 390.04 
L 47.72 10.8 
" style="fill: none; stroke: #000000; stroke-width: 0.8; stroke-linejoin: miter; stroke-linecap: square"/>
   </g>
   <g id="patch_4">
    <path d="M 709.2 390.04 
L 709.2 10.8 
" style="fill: none; stroke: #000000; stroke-width: 0.8; stroke-linejoin: miter; stroke-linecap: square"/>
   </g>
   <g id="patch_5">
    <path d="M 47.72 390.04 
L 709.2 390.04 
" style="fill: none; stroke: #000000; stroke-width: 0.8; stroke-linejoin: miter; stroke-linecap: square"/>
   </g>
   <g id="patch_6">
    <path d="M 47.72 10.8 
L 709.2 10.8 
" style="fill: none; stroke: #000000; stroke-width: 0.8; stroke-linejoin: miter; stroke-linecap: square"/>
   </g>
   <g id="legend_1">
    <g id="patch_7">
     <path d="M 608.528125 385.04 
L 702.2 385.04 
Q 704.2 385.04 704.2 383.04 
L 704.2 340.005625 
Q 704.2 338.005625 702.2 338.005625 
L 608.528125 338.005625 
Q 606.528125 338.005625 606.528125 340.005625 
L 606.528125 383.04 
Q 606.528125 385.04 608.528125 385.04 
z
" style="fill: #ffffff; opacity: 0.8; stroke: #cccccc; stroke-linejoin: miter"/>
    </g>
    <g id="text_13">
     <!-- Max Circuit Depth -->
     <g transform="translate(610.528125 349.604062) scale(0.1 -0.1)">
      <defs>
       <path id="DejaVuSans-4d" d="M 628 4666 
L 1569 4666 
L 2759 1491 
L 3956 4666 
L 4897 4666 
L 4897 0 
L 4281 0 
L 4281 4097 
L 3078 897 
L 2444 897 
L 1241 4097 
L 1241 0 
L 628 0 
L 628 4666 
z
" transform="scale(0.015625)"/>
       <path id="DejaVuSans-78" d="M 3513 3500 
L 2247 1797 
L 3578 0 
L 2900 0 
L 1881 1375 
L 863 0 
L 184 0 
L 1544 1831 
L 300 3500 
L 978 3500 
L 1906 2253 
L 2834 3500 
L 3513 3500 
z
" transform="scale(0.015625)"/>
       <path id="DejaVuSans-20" transform="scale(0.015625)"/>
       <path id="DejaVuSans-43" d="M 4122 4306 
L 4122 3641 
Q 3803 3938 3442 4084 
Q 3081 4231 2675 4231 
Q 1875 4231 1450 3742 
Q 1025 3253 1025 2328 
Q 1025 1406 1450 917 
Q 1875 428 2675 428 
Q 3081 428 3442 575 
Q 3803 722 4122 1019 
L 4122 359 
Q 3791 134 3420 21 
Q 3050 -91 2638 -91 
Q 1578 -91 968 557 
Q 359 1206 359 2328 
Q 359 3453 968 4101 
Q 1578 4750 2638 4750 
Q 3056 4750 3426 4639 
Q 3797 4528 4122 4306 
z
" transform="scale(0.015625)"/>
       <path id="DejaVuSans-69" d="M 603 3500 
L 1178 3500 
L 1178 0 
L 603 0 
L 603 3500 
z
M 603 4863 
L 1178 4863 
L 1178 4134 
L 603 4134 
L 603 4863 
z
" transform="scale(0.015625)"/>
       <path id="DejaVuSans-44" d="M 1259 4147 
L 1259 519 
L 2022 519 
Q 2988 519 3436 956 
Q 3884 1394 3884 2338 
Q 3884 3275 3436 3711 
Q 2988 4147 2022 4147 
L 1259 4147 
z
M 628 4666 
L 1925 4666 
Q 3281 4666 3915 4102 
Q 4550 3538 4550 2338 
Q 4550 1131 3912 565 
Q 3275 0 1925 0 
L 628 0 
L 628 4666 
z
" transform="scale(0.015625)"/>
       <path id="DejaVuSans-68" d="M 3513 2113 
L 3513 0 
L 2938 0 
L 2938 2094 
Q 2938 2591 2744 2837 
Q 2550 3084 2163 3084 
Q 1697 3084 1428 2787 
Q 1159 2491 1159 1978 
L 1159 0 
L 581 0 
L 581 4863 
L 1159 4863 
L 1159 2956 
Q 1366 3272 1645 3428 
Q 1925 3584 2291 3584 
Q 2894 3584 3203 3211 
Q 3513 2838 3513 2113 
z
" transform="scale(0.015625)"/>
      </defs>
      <use xlink:href="#DejaVuSans-4d"/>
      <use xlink:href="#DejaVuSans-61" transform="translate(86.279297 0)"/>
      <use xlink:href="#DejaVuSans-78" transform="translate(147.558594 0)"/>
      <use xlink:href="#DejaVuSans-20" transform="translate(206.738281 0)"/>
      <use xlink:href="#DejaVuSans-43" transform="translate(238.525391 0)"/>
      <use xlink:href="#DejaVuSans-69" transform="translate(308.349609 0)"/>
      <use xlink:href="#DejaVuSans-72" transform="translate(336.132812 0)"/>
      <use xlink:href="#DejaVuSans-63" transform="translate(374.996094 0)"/>
      <use xlink:href="#DejaVuSans-75" transform="translate(429.976562 0)"/>
      <use xlink:href="#DejaVuSans-69" transform="translate(493.355469 0)"/>
      <use xlink:href="#DejaVuSans-74" transform="translate(521.138672 0)"/>
      <use xlink:href="#DejaVuSans-20" transform="translate(560.347656 0)"/>
      <use xlink:href="#DejaVuSans-44" transform="translate(592.134766 0)"/>
      <use xlink:href="#DejaVuSans-65" transform="translate(669.136719 0)"/>
      <use xlink:href="#DejaVuSans-70" transform="translate(730.660156 0)"/>
      <use xlink:href="#DejaVuSans-74" transform="translate(794.136719 0)"/>
      <use xlink:href="#DejaVuSans-68" transform="translate(833.345703 0)"/>
     </g>
    </g>
    <g id="line2d_23">
     <path d="M 638.182813 360.782187 
L 648.182813 360.782187 
L 658.182813 360.782187 
" style="fill: none; stroke: #1f77b4; stroke-width: 1.5; stroke-linecap: square"/>
    </g>
    <g id="text_14">
     <!-- 4 -->
     <g transform="translate(666.182813 364.282187) scale(0.1 -0.1)">
      <use xlink:href="#DejaVuSans-34"/>
     </g>
    </g>
    <g id="line2d_24">
     <path d="M 638.182813 375.460312 
L 648.182813 375.460312 
L 658.182813 375.460312 
" style="fill: none; stroke: #ff7f0e; stroke-width: 1.5; stroke-linecap: square"/>
    </g>
    <g id="text_15">
     <!-- 5 -->
     <g transform="translate(666.182813 378.960312) scale(0.1 -0.1)">
      <defs>
       <path id="DejaVuSans-35" d="M 691 4666 
L 3169 4666 
L 3169 4134 
L 1269 4134 
L 1269 2991 
Q 1406 3038 1543 3061 
Q 1681 3084 1819 3084 
Q 2600 3084 3056 2656 
Q 3513 2228 3513 1497 
Q 3513 744 3044 326 
Q 2575 -91 1722 -91 
Q 1428 -91 1123 -41 
Q 819 9 494 109 
L 494 744 
Q 775 591 1075 516 
Q 1375 441 1709 441 
Q 2250 441 2565 725 
Q 2881 1009 2881 1497 
Q 2881 1984 2565 2268 
Q 2250 2553 1709 2553 
Q 1456 2553 1204 2497 
Q 953 2441 691 2322 
L 691 4666 
z
" transform="scale(0.015625)"/>
      </defs>
      <use xlink:href="#DejaVuSans-35"/>
     </g>
    </g>
   </g>
  </g>
 </g>
 <defs>
  <clipPath id="p6925bc45cc">
   <rect x="47.72" y="10.8" width="661.48" height="379.24"/>
  </clipPath>
 </defs>
</svg>
