<?xml version="1.0" encoding="utf-8" standalone="no"?>
<!DOCTYPE svg PUBLIC "-//W3C//DTD SVG 1.1//EN"
  "http://www.w3.org/Graphics/SVG/1.1/DTD/svg11.dtd">
<svg xmlns:xlink="http://www.w3.org/1999/xlink" width="720pt" height="432pt" viewBox="0 0 720 432" xmlns="http://www.w3.org/2000/svg" version="1.1">
 <metadata>
  <rdf:RDF xmlns:dc="http://purl.org/dc/elements/1.1/" xmlns:cc="http://creativecommons.org/ns#" xmlns:rdf="http://www.w3.org/1999/02/22-rdf-syntax-ns#">
   <cc:Work>
    <dc:type rdf:resource="http://purl.org/dc/dcmitype/StillImage"/>
    <dc:date>2025-04-16T01:32:38.518927</dc:date>
    <dc:format>image/svg+xml</dc:format>
    <dc:creator>
     <cc:Agent>
      <dc:title>Matplotlib v3.10.0, https://matplotlib.org/</dc:title>
     </cc:Agent>
    </dc:creator>
   </cc:Work>
  </rdf:RDF>
 </metadata>
 <defs>
  <style type="text/css">*{stroke-linejoin: round; stroke-linecap: butt}</style>
 </defs>
 <g id="figure_1">
  <g id="patch_1">
   <path d="M 0 432 
L 720 432 
L 720 0 
L 0 0 
z
" style="fill: #ffffff"/>
  </g>
  <g id="axes_1">
   <g id="patch_2">
    <path d="M 50.87 390.04 
L 709.2 390.04 
L 709.2 10.8 
L 50.87 10.8 
z
" style="fill: #ffffff"/>
   </g>
   <g id="FillBetweenPolyCollection_1">
    <path d="M 80.794091 314.69187 
L 80.794091 343.752226 
L 87.011255 342.235527 
L 93.052646 347.078258 
L 99.100548 349.662145 
L 105.252611 343.361253 
L 111.313532 336.448593 
L 117.276802 313.820075 
L 122.660671 250.679025 
L 127.387018 181.339701 
L 131.813899 129.235552 
L 135.941315 98.649526 
L 139.964569 89.820876 
L 143.916212 80.61583 
L 147.900405 88.665761 
L 151.845538 69.083535 
L 155.823221 74.045115 
L 159.768354 75.131412 
L 163.687446 74.071057 
L 167.632578 71.891823 
L 171.55818 66.428473 
L 175.470762 66.430545 
L 179.389854 68.626258 
L 183.308947 69.693387 
L 187.247569 69.69326 
L 191.166661 68.671318 
L 195.085753 65.341284 
L 198.991825 66.426845 
L 202.904407 69.689371 
L 206.823499 65.34085 
L 210.736081 69.712543 
L 214.648663 69.687942 
L 218.541715 67.515101 
L 222.454297 68.624956 
L 226.353858 67.514685 
L 230.27946 66.427225 
L 234.185532 66.427623 
L 238.091604 66.427641 
L 241.997676 66.428473 
L 245.910258 68.628682 
L 249.82935 66.427732 
L 253.741932 68.62823 
L 257.648004 65.340724 
L 261.554076 67.517779 
L 265.466658 65.342985 
L 269.37273 65.340597 
L 273.285311 65.341881 
L 277.171853 68.60173 
L 281.071415 67.513437 
L 284.957956 69.688864 
L 288.890069 67.514776 
L 292.79614 66.449855 
L 296.695702 66.427225 
L 300.608284 69.703137 
L 304.514356 66.426809 
L 308.426938 66.426809 
L 312.33301 65.340181 
L 316.239082 65.339349 
L 320.151664 66.450271 
L 324.077266 65.340597 
L 328.074479 69.701816 
L 332.006592 66.43059 
L 335.990785 71.90037 
L 339.916387 66.432489 
L 343.828969 66.431802 
L 347.748061 65.346422 
L 351.693194 65.343682 
L 355.612286 65.342569 
L 359.550908 67.554274 
L 363.587182 66.434127 
L 367.564866 66.438187 
L 371.536039 68.614528 
L 375.448621 66.438603 
L 379.374223 69.689226 
L 383.286805 66.427225 
L 387.205897 66.436016 
L 391.111969 66.426809 
L 395.018041 66.426393 
L 398.924112 65.339349 
L 402.836694 66.428889 
L 406.742766 65.339765 
L 410.648838 66.430553 
L 414.55491 66.428473 
L 418.460982 65.339765 
L 422.367054 66.426809 
L 426.273125 65.340199 
L 430.185707 65.340597 
L 434.091779 66.426393 
L 437.997851 65.340181 
L 441.910433 65.340633 
L 445.816505 68.616852 
L 449.716067 71.919653 
L 453.622139 68.634199 
L 457.52821 73.016239 
L 461.434282 68.615224 
L 465.346864 66.428057 
L 469.252936 67.525919 
L 473.172028 67.519352 
L 477.0781 65.339765 
L 480.984172 68.612673 
L 484.883734 67.532033 
L 488.763765 80.5588 
L 492.383391 174.044189 
L 495.325966 251.502867 
L 498.073236 261.007867 
L 500.813997 271.248071 
L 503.450595 276.682915 
L 506.093704 278.856447 
L 508.717282 282.748247 
L 511.32133 282.748499 
L 513.925378 284.106424 
L 516.529426 284.54997 
L 519.153004 278.677549 
L 521.770072 283.651164 
L 524.37412 283.207558 
L 526.991188 282.750326 
L 529.608256 282.749716 
L 532.218814 282.113604 
L 534.822862 282.748903 
L 537.43342 281.662061 
L 540.193711 285.52805 
L 542.88239 304.811719 
L 545.545029 339.295541 
L 548.168608 360.007529 
L 550.779166 368.749188 
L 553.389724 371.45096 
L 555.993771 370.629503 
L 558.60433 371.714845 
L 561.208377 372.351621 
L 563.812425 372.801818 
L 566.416473 371.07807 
L 569.020521 363.849539 
L 571.631079 348.478686 
L 574.248147 340.163111 
L 576.865215 338.85756 
L 579.469263 337.365502 
L 582.079821 337.178994 
L 584.683869 336.05995 
L 587.300937 335.873443 
L 589.911495 335.500428 
L 592.541584 336.246458 
L 595.178182 335.500428 
L 597.866862 336.05995 
L 600.48393 335.500428 
L 603.100998 335.500428 
L 605.711556 335.500428 
L 608.328624 335.500428 
L 610.952202 336.05995 
L 613.55625 335.686936 
L 616.166808 335.500428 
L 618.783876 335.873443 
L 621.413965 335.686936 
L 624.044053 335.500428 
L 626.654611 335.500428 
L 629.29772 335.686923 
L 631.908278 335.500428 
L 634.688099 339.790097 
L 637.402819 335.686936 
L 640.039417 336.619472 
L 642.708566 335.500428 
L 645.345165 335.500428 
L 647.955723 335.500428 
L 650.572791 335.500428 
L 653.189859 335.686936 
L 655.813438 335.500428 
L 658.417485 336.432965 
L 661.028043 335.686936 
L 663.632091 335.686936 
L 666.236139 335.500428 
L 668.846697 335.500935 
L 671.463765 335.500428 
L 674.067813 335.500428 
L 676.671861 335.500428 
L 679.275909 335.687442 
L 679.275909 334.413297 
L 679.275909 334.413297 
L 676.671861 335.500428 
L 674.067813 335.500428 
L 671.463765 335.500428 
L 668.846697 335.500342 
L 666.236139 335.500428 
L 663.632091 334.413384 
L 661.028043 334.413384 
L 658.417485 330.065207 
L 655.813438 335.500428 
L 653.189859 334.413384 
L 650.572791 335.500428 
L 647.955723 335.500428 
L 645.345165 335.500428 
L 642.708566 335.500428 
L 640.039417 328.978163 
L 637.402819 334.413384 
L 634.688099 310.498411 
L 631.908278 335.500428 
L 629.29772 334.413457 
L 626.654611 335.500428 
L 624.044053 335.500428 
L 621.413965 334.413384 
L 618.783876 333.32634 
L 616.166808 335.500428 
L 613.55625 334.413384 
L 610.952202 332.239296 
L 608.328624 335.500428 
L 605.711556 335.500428 
L 603.100998 335.500428 
L 600.48393 335.500428 
L 597.866862 332.239296 
L 595.178182 335.500428 
L 592.541584 331.152252 
L 589.911495 335.500428 
L 587.300937 333.32634 
L 584.683869 332.239296 
L 582.079821 325.71703 
L 579.469263 324.629986 
L 576.865215 315.933632 
L 574.248147 308.324323 
L 571.631079 256.782975 
L 569.020521 170.269704 
L 566.416473 118.914864 
L 563.812425 118.091997 
L 561.208377 117.641312 
L 558.60433 118.278088 
L 555.993771 118.464602 
L 553.389724 116.741499 
L 550.779166 114.040829 
L 548.168608 106.574831 
L 545.545029 85.86744 
L 542.88239 50.11067 
L 540.193711 33.370449 
L 537.43342 28.22969 
L 534.822862 28.042006 
L 532.218814 28.684887 
L 529.608256 28.046738 
L 526.991188 28.050293 
L 524.37412 28.508854 
L 521.770072 28.952583 
L 519.153004 30.337042 
L 516.529426 29.842818 
L 513.925378 29.399658 
L 511.32133 28.039653 
L 508.717282 28.038182 
L 506.093704 29.237796 
L 503.450595 29.614047 
L 500.813997 30.543793 
L 498.073236 31.771269 
L 495.325966 34.986882 
L 492.383391 46.688547 
L 488.763765 62.728104 
L 484.883734 64.963144 
L 480.984172 64.777735 
L 477.0781 65.339277 
L 473.172028 64.965319 
L 469.252936 64.964193 
L 465.346864 65.152556 
L 461.434282 64.777297 
L 457.52821 64.022203 
L 453.622139 64.774042 
L 449.716067 64.210549 
L 445.816505 64.777018 
L 441.910433 65.339128 
L 437.997851 65.339206 
L 434.091779 65.152841 
L 430.185707 65.339135 
L 426.273125 65.339203 
L 422.367054 65.15277 
L 418.460982 65.339277 
L 414.55491 65.152485 
L 410.648838 65.152128 
L 406.742766 65.339277 
L 402.836694 65.152413 
L 398.924112 65.339349 
L 395.018041 65.152841 
L 391.111969 65.15277 
L 387.205897 65.15119 
L 383.286805 65.152699 
L 379.374223 64.593028 
L 375.448621 65.150747 
L 371.536039 64.777619 
L 367.564866 65.150818 
L 363.587182 65.151716 
L 359.550908 64.95953 
L 355.612286 65.338796 
L 351.693194 65.338807 
L 347.748061 65.338135 
L 343.828969 65.151913 
L 339.916387 65.151796 
L 335.990785 64.213857 
L 332.006592 65.152121 
L 328.074479 64.590868 
L 324.077266 65.339135 
L 320.151664 65.148745 
L 316.239082 65.339349 
L 312.33301 65.339206 
L 308.426938 65.15277 
L 304.514356 65.15277 
L 300.608284 64.590641 
L 296.695702 65.152699 
L 292.79614 65.148816 
L 288.890069 64.966104 
L 284.957956 64.59309 
L 281.071415 64.966334 
L 277.171853 64.779613 
L 273.285311 65.338914 
L 269.37273 65.339135 
L 265.466658 65.338725 
L 261.554076 64.965589 
L 257.648004 65.339113 
L 253.741932 64.775066 
L 249.82935 65.152612 
L 245.910258 64.774988 
L 241.997676 65.152485 
L 238.091604 65.152627 
L 234.185532 65.15263 
L 230.27946 65.152699 
L 226.353858 64.96612 
L 222.454297 64.775628 
L 218.541715 64.966049 
L 214.648663 64.593248 
L 210.736081 64.589027 
L 206.823499 65.339091 
L 202.904407 64.593003 
L 198.991825 65.152764 
L 195.085753 65.339017 
L 191.166661 64.767673 
L 187.247569 64.592336 
L 183.308947 64.592314 
L 179.389854 64.775404 
L 175.470762 65.152331 
L 171.55818 65.152485 
L 167.632578 64.215122 
L 163.687446 63.841578 
L 159.768354 63.659296 
L 155.823221 63.84618 
L 151.845538 65.225378 
L 147.900405 61.869271 
L 143.916212 62.719567 
L 139.964569 61.669075 
L 135.941315 60.1639 
L 131.813899 57.568053 
L 127.387018 54.499529 
L 122.660671 71.260986 
L 117.276802 107.533074 
L 111.313532 158.729089 
L 105.252611 215.89453 
L 99.100548 246.101185 
L 93.052646 284.010384 
L 87.011255 299.366218 
L 80.794091 314.69187 
z
" clip-path="url(#p63cd5824a8)" style="fill: #1f77b4; fill-opacity: 0.2"/>
   </g>
   <g id="FillBetweenPolyCollection_2">
    <path d="M 81.061006 298.261722 
L 81.061006 340.65034 
L 87.610186 345.446939 
L 94.178897 345.949249 
L 100.467673 346.68227 
L 106.802019 338.677496 
L 112.791329 321.771002 
L 118.956413 302.721857 
L 124.691828 231.634292 
L 130.407713 178.938419 
L 135.947825 144.893719 
L 141.11686 103.883592 
L 146.090592 90.913265 
L 150.927611 86.349089 
L 155.465164 81.904645 
L 159.976677 83.954228 
L 164.318927 75.36341 
L 168.368222 68.802584 
L 172.378455 71.013934 
L 176.466811 73.160877 
L 180.464024 67.714851 
L 184.441707 69.864244 
L 188.40637 64.420544 
L 192.351503 66.591213 
L 196.277105 64.418662 
L 200.202707 67.681224 
L 204.15435 66.645875 
L 208.132033 64.415279 
L 212.051125 65.529439 
L 215.950687 66.589965 
L 219.876289 63.326481 
L 223.808401 64.444511 
L 227.720983 62.240268 
L 231.646586 66.588536 
L 235.539637 63.326933 
L 239.47826 63.356219 
L 243.403862 63.329321 
L 247.348994 64.414538 
L 251.261576 68.766857 
L 255.193689 63.327277 
L 259.106271 63.337949 
L 263.018853 63.359182 
L 266.931435 62.239436 
L 270.844017 63.325648 
L 274.750088 62.238188 
L 278.65616 64.412693 
L 282.562232 62.237356 
L 286.468304 64.415985 
L 290.374376 63.332305 
L 294.280448 62.245406 
L 298.19303 62.243181 
L 302.099101 62.243181 
L 306.024704 64.447022 
L 309.943796 63.330225 
L 313.856378 62.239852 
L 317.76245 63.326571 
L 321.681542 62.239436 
L 325.600634 64.417378 
L 329.545766 63.327584 
L 333.458348 62.237808 
L 337.36442 62.238188 
L 341.270492 63.327114 
L 345.170054 63.325685 
L 349.063105 65.504169 
L 352.969177 63.328633 
L 356.875249 64.413109 
L 360.76179 65.500569 
L 364.667862 62.237772 
L 368.580444 62.237772 
L 372.486516 63.339523 
L 376.386078 63.342001 
L 380.29215 63.361356 
L 384.341444 62.253222 
L 388.345168 62.241933 
L 392.433523 62.259425 
L 396.528388 63.329809 
L 400.493051 62.242765 
L 404.470734 62.241101 
L 408.389827 63.339523 
L 412.334959 62.241517 
L 416.325663 63.329393 
L 420.277305 63.326897 
L 424.215928 62.240721 
L 428.15455 63.326915 
L 432.086662 62.241101 
L 436.044815 63.357431 
L 439.963907 63.327765 
L 443.88951 63.325685 
L 447.808602 63.326553 
L 451.740714 65.500985 
L 455.653296 62.238604 
L 459.565878 62.237772 
L 463.47846 62.239436 
L 467.417082 64.413525 
L 471.342684 63.327765 
L 475.307347 64.415189 
L 479.23295 78.550194 
L 482.904657 156.473845 
L 486.075085 296.719661 
L 488.867927 331.838908 
L 491.543586 355.402661 
L 494.173674 356.304114 
L 496.842824 362.160008 
L 499.479422 364.676074 
L 502.09649 368.465829 
L 504.713558 369.817359 
L 507.330626 368.916192 
L 509.934674 369.637698 
L 512.538722 369.364134 
L 515.14277 369.815646 
L 517.753328 369.366133 
L 520.357376 369.817359 
L 522.961424 369.816859 
L 525.565472 369.366912 
L 528.17603 369.444416 
L 530.780078 369.817502 
L 533.390636 368.916692 
L 535.994684 369.817573 
L 538.598732 369.817502 
L 541.202779 369.817573 
L 543.806827 369.367061 
L 546.417385 369.817496 
L 549.027943 369.367132 
L 551.631991 369.817573 
L 554.236039 369.816502 
L 556.840087 369.816574 
L 559.444135 369.454621 
L 562.048183 369.640823 
L 564.652231 369.630994 
L 567.295339 369.818871 
L 569.899387 369.630994 
L 572.503435 369.180554 
L 575.107483 362.540933 
L 577.711531 350.786547 
L 580.315579 334.367622 
L 582.919627 333.994434 
L 585.523675 332.501836 
L 588.127723 332.688399 
L 590.73177 332.501836 
L 593.335818 332.501836 
L 595.939866 332.501836 
L 598.543914 332.501836 
L 601.147962 332.501836 
L 603.75201 332.688414 
L 606.356058 332.501836 
L 608.960106 332.501836 
L 611.564154 332.501836 
L 614.168202 332.501836 
L 616.772249 332.525496 
L 619.376297 332.501836 
L 621.980345 332.501836 
L 624.584393 332.501836 
L 627.188441 332.501836 
L 629.792489 332.501836 
L 632.396537 332.501836 
L 635.000585 332.501836 
L 637.604633 332.501836 
L 640.208681 332.503771 
L 642.812728 332.501836 
L 645.423286 332.688414 
L 648.027334 332.501836 
L 650.631382 332.501836 
L 653.23543 332.501836 
L 655.839478 332.501836 
L 658.443526 332.501836 
L 661.047574 332.688414 
L 663.651622 332.501836 
L 666.25567 332.501836 
L 668.859718 332.501836 
L 671.463765 332.501836 
L 674.067813 332.501836 
L 676.671861 332.688321 
L 679.275909 332.502342 
L 679.275909 332.501749 
L 679.275909 332.501749 
L 676.671861 331.414918 
L 674.067813 332.501836 
L 671.463765 332.501836 
L 668.859718 332.501836 
L 666.25567 332.501836 
L 663.651622 332.501836 
L 661.047574 331.414375 
L 658.443526 332.501836 
L 655.839478 332.501836 
L 653.23543 332.501836 
L 650.631382 332.501836 
L 648.027334 332.501836 
L 645.423286 331.414375 
L 642.812728 332.501836 
L 640.208681 332.501503 
L 637.604633 332.501836 
L 635.000585 332.501836 
L 632.396537 332.501836 
L 629.792489 332.501836 
L 627.188441 332.501836 
L 624.584393 332.501836 
L 621.980345 332.501836 
L 619.376297 332.501836 
L 616.772249 332.497776 
L 614.168202 332.501836 
L 611.564154 332.501836 
L 608.960106 332.501836 
L 606.356058 332.501836 
L 603.75201 331.414375 
L 601.147962 332.501836 
L 598.543914 332.501836 
L 595.939866 332.501836 
L 593.335818 332.501836 
L 590.73177 332.501836 
L 588.127723 331.414466 
L 585.523675 332.501836 
L 582.919627 323.802334 
L 580.315579 321.627233 
L 577.711531 225.930727 
L 575.107483 157.421146 
L 572.503435 115.646798 
L 569.899387 116.097239 
L 567.295339 115.010428 
L 564.652231 116.097239 
L 562.048183 116.097255 
L 559.444135 117.185388 
L 556.840087 115.015603 
L 554.236039 115.016019 
L 551.631991 115.009778 
L 549.027943 114.559338 
L 546.417385 115.010231 
L 543.806827 114.559754 
L 541.202779 115.009778 
L 538.598732 115.010194 
L 535.994684 115.009778 
L 533.390636 114.108897 
L 530.780078 115.010194 
L 528.17603 117.184699 
L 525.565472 114.560622 
L 522.961424 115.013939 
L 520.357376 115.011026 
L 517.753328 114.565162 
L 515.14277 115.021012 
L 512.538722 114.576812 
L 509.934674 116.115471 
L 507.330626 114.111809 
L 504.713558 115.011026 
L 502.09649 113.660991 
L 499.479422 111.142806 
L 496.842824 107.352701 
L 494.173674 101.498513 
L 491.543586 100.600959 
L 488.867927 87.23098 
L 486.075085 67.400931 
L 482.904657 48.181443 
L 479.23295 59.439121 
L 475.307347 61.863699 
L 471.342684 62.050272 
L 467.417082 61.863985 
L 463.47846 62.236999 
L 459.565878 62.237285 
L 455.653296 62.237142 
L 451.740714 61.677406 
L 447.808602 62.050479 
L 443.88951 62.050628 
L 439.963907 62.050272 
L 436.044815 62.045182 
L 432.086662 62.236714 
L 428.15455 62.050417 
L 424.215928 62.236779 
L 420.277305 62.050421 
L 416.325663 62.049992 
L 412.334959 62.236642 
L 408.389827 62.048254 
L 404.470734 62.236714 
L 400.493051 62.236428 
L 396.528388 62.049921 
L 392.433523 62.23357 
L 388.345168 62.236571 
L 384.341444 62.235442 
L 380.29215 62.044508 
L 376.386078 62.047829 
L 372.486516 62.048254 
L 368.580444 62.237285 
L 364.667862 62.237285 
L 360.76179 61.677477 
L 356.875249 61.864056 
L 352.969177 62.050123 
L 349.063105 61.67686 
L 345.170054 62.050628 
L 341.270492 62.050383 
L 337.36442 62.237213 
L 333.458348 62.237279 
L 329.545766 62.050303 
L 325.600634 61.863324 
L 321.681542 62.236999 
L 317.76245 62.050476 
L 313.856378 62.236928 
L 309.943796 62.049849 
L 306.024704 61.85854 
L 302.099101 62.236357 
L 298.19303 62.236357 
L 294.280448 62.235975 
L 290.374376 62.049493 
L 286.468304 61.863563 
L 282.562232 62.237356 
L 278.65616 61.864127 
L 274.750088 62.237213 
L 270.844017 62.050635 
L 266.931435 62.236999 
L 263.018853 62.045184 
L 259.106271 62.048524 
L 255.193689 62.050355 
L 251.261576 61.117071 
L 247.348994 61.863811 
L 243.403862 62.050005 
L 239.47826 62.04539 
L 235.539637 62.050414 
L 231.646586 61.490812 
L 227.720983 62.236856 
L 223.808401 61.858668 
L 219.876289 62.050492 
L 215.950687 61.490567 
L 212.051125 61.672524 
L 208.132033 61.863684 
L 204.15435 61.481246 
L 200.202707 61.303336 
L 196.277105 61.863103 
L 192.351503 61.490352 
L 188.40637 61.863004 
L 184.441707 60.929197 
L 180.464024 61.297566 
L 176.466811 60.363202 
L 172.378455 60.733228 
L 168.368222 61.11127 
L 164.318927 59.986814 
L 159.976677 59.574047 
L 155.465164 58.870664 
L 150.927611 58.112766 
L 146.090592 58.924418 
L 141.11686 55.126563 
L 135.947825 51.270306 
L 130.407713 54.480117 
L 124.691828 67.243167 
L 118.956413 106.977781 
L 112.791329 162.563103 
L 106.802019 199.525978 
L 100.467673 225.83735 
L 94.178897 261.983512 
L 87.610186 276.32979 
L 81.061006 298.261722 
z
" clip-path="url(#p63cd5824a8)" style="fill: #ff7f0e; fill-opacity: 0.2"/>
   </g>
   <g id="matplotlib.axis_1">
    <g id="xtick_1">
     <g id="line2d_1">
      <path d="M 77.851517 390.04 
L 77.851517 10.8 
" clip-path="url(#p63cd5824a8)" style="fill: none; stroke: #b0b0b0; stroke-width: 0.8; stroke-linecap: square"/>
     </g>
     <g id="line2d_2">
      <defs>
       <path id="m43d03625c5" d="M 0 0 
L 0 3.5 
" style="stroke: #000000; stroke-width: 0.8"/>
      </defs>
      <g>
       <use xlink:href="#m43d03625c5" x="77.851517" y="390.04" style="stroke: #000000; stroke-width: 0.8"/>
      </g>
     </g>
     <g id="text_1">
      <!-- 0 -->
      <g transform="translate(74.670267 404.638438) scale(0.1 -0.1)">
       <defs>
        <path id="DejaVuSans-30" d="M 2034 4250 
Q 1547 4250 1301 3770 
Q 1056 3291 1056 2328 
Q 1056 1369 1301 889 
Q 1547 409 2034 409 
Q 2525 409 2770 889 
Q 3016 1369 3016 2328 
Q 3016 3291 2770 3770 
Q 2525 4250 2034 4250 
z
M 2034 4750 
Q 2819 4750 3233 4129 
Q 3647 3509 3647 2328 
Q 3647 1150 3233 529 
Q 2819 -91 2034 -91 
Q 1250 -91 836 529 
Q 422 1150 422 2328 
Q 422 3509 836 4129 
Q 1250 4750 2034 4750 
z
" transform="scale(0.015625)"/>
       </defs>
       <use xlink:href="#DejaVuSans-30"/>
      </g>
     </g>
    </g>
    <g id="xtick_2">
     <g id="line2d_3">
      <path d="M 208.053912 390.04 
L 208.053912 10.8 
" clip-path="url(#p63cd5824a8)" style="fill: none; stroke: #b0b0b0; stroke-width: 0.8; stroke-linecap: square"/>
     </g>
     <g id="line2d_4">
      <g>
       <use xlink:href="#m43d03625c5" x="208.053912" y="390.04" style="stroke: #000000; stroke-width: 0.8"/>
      </g>
     </g>
     <g id="text_2">
      <!-- 20000 -->
      <g transform="translate(192.147662 404.638438) scale(0.1 -0.1)">
       <defs>
        <path id="DejaVuSans-32" d="M 1228 531 
L 3431 531 
L 3431 0 
L 469 0 
L 469 531 
Q 828 903 1448 1529 
Q 2069 2156 2228 2338 
Q 2531 2678 2651 2914 
Q 2772 3150 2772 3378 
Q 2772 3750 2511 3984 
Q 2250 4219 1831 4219 
Q 1534 4219 1204 4116 
Q 875 4013 500 3803 
L 500 4441 
Q 881 4594 1212 4672 
Q 1544 4750 1819 4750 
Q 2544 4750 2975 4387 
Q 3406 4025 3406 3419 
Q 3406 3131 3298 2873 
Q 3191 2616 2906 2266 
Q 2828 2175 2409 1742 
Q 1991 1309 1228 531 
z
" transform="scale(0.015625)"/>
       </defs>
       <use xlink:href="#DejaVuSans-32"/>
       <use xlink:href="#DejaVuSans-30" transform="translate(63.623047 0)"/>
       <use xlink:href="#DejaVuSans-30" transform="translate(127.246094 0)"/>
       <use xlink:href="#DejaVuSans-30" transform="translate(190.869141 0)"/>
       <use xlink:href="#DejaVuSans-30" transform="translate(254.492188 0)"/>
      </g>
     </g>
    </g>
    <g id="xtick_3">
     <g id="line2d_5">
      <path d="M 338.256307 390.04 
L 338.256307 10.8 
" clip-path="url(#p63cd5824a8)" style="fill: none; stroke: #b0b0b0; stroke-width: 0.8; stroke-linecap: square"/>
     </g>
     <g id="line2d_6">
      <g>
       <use xlink:href="#m43d03625c5" x="338.256307" y="390.04" style="stroke: #000000; stroke-width: 0.8"/>
      </g>
     </g>
     <g id="text_3">
      <!-- 40000 -->
      <g transform="translate(322.350057 404.638438) scale(0.1 -0.1)">
       <defs>
        <path id="DejaVuSans-34" d="M 2419 4116 
L 825 1625 
L 2419 1625 
L 2419 4116 
z
M 2253 4666 
L 3047 4666 
L 3047 1625 
L 3713 1625 
L 3713 1100 
L 3047 1100 
L 3047 0 
L 2419 0 
L 2419 1100 
L 313 1100 
L 313 1709 
L 2253 4666 
z
" transform="scale(0.015625)"/>
       </defs>
       <use xlink:href="#DejaVuSans-34"/>
       <use xlink:href="#DejaVuSans-30" transform="translate(63.623047 0)"/>
       <use xlink:href="#DejaVuSans-30" transform="translate(127.246094 0)"/>
       <use xlink:href="#DejaVuSans-30" transform="translate(190.869141 0)"/>
       <use xlink:href="#DejaVuSans-30" transform="translate(254.492188 0)"/>
      </g>
     </g>
    </g>
    <g id="xtick_4">
     <g id="line2d_7">
      <path d="M 468.458701 390.04 
L 468.458701 10.8 
" clip-path="url(#p63cd5824a8)" style="fill: none; stroke: #b0b0b0; stroke-width: 0.8; stroke-linecap: square"/>
     </g>
     <g id="line2d_8">
      <g>
       <use xlink:href="#m43d03625c5" x="468.458701" y="390.04" style="stroke: #000000; stroke-width: 0.8"/>
      </g>
     </g>
     <g id="text_4">
      <!-- 60000 -->
      <g transform="translate(452.552451 404.638438) scale(0.1 -0.1)">
       <defs>
        <path id="DejaVuSans-36" d="M 2113 2584 
Q 1688 2584 1439 2293 
Q 1191 2003 1191 1497 
Q 1191 994 1439 701 
Q 1688 409 2113 409 
Q 2538 409 2786 701 
Q 3034 994 3034 1497 
Q 3034 2003 2786 2293 
Q 2538 2584 2113 2584 
z
M 3366 4563 
L 3366 3988 
Q 3128 4100 2886 4159 
Q 2644 4219 2406 4219 
Q 1781 4219 1451 3797 
Q 1122 3375 1075 2522 
Q 1259 2794 1537 2939 
Q 1816 3084 2150 3084 
Q 2853 3084 3261 2657 
Q 3669 2231 3669 1497 
Q 3669 778 3244 343 
Q 2819 -91 2113 -91 
Q 1303 -91 875 529 
Q 447 1150 447 2328 
Q 447 3434 972 4092 
Q 1497 4750 2381 4750 
Q 2619 4750 2861 4703 
Q 3103 4656 3366 4563 
z
" transform="scale(0.015625)"/>
       </defs>
       <use xlink:href="#DejaVuSans-36"/>
       <use xlink:href="#DejaVuSans-30" transform="translate(63.623047 0)"/>
       <use xlink:href="#DejaVuSans-30" transform="translate(127.246094 0)"/>
       <use xlink:href="#DejaVuSans-30" transform="translate(190.869141 0)"/>
       <use xlink:href="#DejaVuSans-30" transform="translate(254.492188 0)"/>
      </g>
     </g>
    </g>
    <g id="xtick_5">
     <g id="line2d_9">
      <path d="M 598.661096 390.04 
L 598.661096 10.8 
" clip-path="url(#p63cd5824a8)" style="fill: none; stroke: #b0b0b0; stroke-width: 0.8; stroke-linecap: square"/>
     </g>
     <g id="line2d_10">
      <g>
       <use xlink:href="#m43d03625c5" x="598.661096" y="390.04" style="stroke: #000000; stroke-width: 0.8"/>
      </g>
     </g>
     <g id="text_5">
      <!-- 80000 -->
      <g transform="translate(582.754846 404.638438) scale(0.1 -0.1)">
       <defs>
        <path id="DejaVuSans-38" d="M 2034 2216 
Q 1584 2216 1326 1975 
Q 1069 1734 1069 1313 
Q 1069 891 1326 650 
Q 1584 409 2034 409 
Q 2484 409 2743 651 
Q 3003 894 3003 1313 
Q 3003 1734 2745 1975 
Q 2488 2216 2034 2216 
z
M 1403 2484 
Q 997 2584 770 2862 
Q 544 3141 544 3541 
Q 544 4100 942 4425 
Q 1341 4750 2034 4750 
Q 2731 4750 3128 4425 
Q 3525 4100 3525 3541 
Q 3525 3141 3298 2862 
Q 3072 2584 2669 2484 
Q 3125 2378 3379 2068 
Q 3634 1759 3634 1313 
Q 3634 634 3220 271 
Q 2806 -91 2034 -91 
Q 1263 -91 848 271 
Q 434 634 434 1313 
Q 434 1759 690 2068 
Q 947 2378 1403 2484 
z
M 1172 3481 
Q 1172 3119 1398 2916 
Q 1625 2713 2034 2713 
Q 2441 2713 2670 2916 
Q 2900 3119 2900 3481 
Q 2900 3844 2670 4047 
Q 2441 4250 2034 4250 
Q 1625 4250 1398 4047 
Q 1172 3844 1172 3481 
z
" transform="scale(0.015625)"/>
       </defs>
       <use xlink:href="#DejaVuSans-38"/>
       <use xlink:href="#DejaVuSans-30" transform="translate(63.623047 0)"/>
       <use xlink:href="#DejaVuSans-30" transform="translate(127.246094 0)"/>
       <use xlink:href="#DejaVuSans-30" transform="translate(190.869141 0)"/>
       <use xlink:href="#DejaVuSans-30" transform="translate(254.492188 0)"/>
      </g>
     </g>
    </g>
    <g id="text_6">
     <!-- Steps -->
     <g transform="translate(366.045156 418.316562) scale(0.1 -0.1)">
      <defs>
       <path id="DejaVuSans-53" d="M 3425 4513 
L 3425 3897 
Q 3066 4069 2747 4153 
Q 2428 4238 2131 4238 
Q 1616 4238 1336 4038 
Q 1056 3838 1056 3469 
Q 1056 3159 1242 3001 
Q 1428 2844 1947 2747 
L 2328 2669 
Q 3034 2534 3370 2195 
Q 3706 1856 3706 1288 
Q 3706 609 3251 259 
Q 2797 -91 1919 -91 
Q 1588 -91 1214 -16 
Q 841 59 441 206 
L 441 856 
Q 825 641 1194 531 
Q 1563 422 1919 422 
Q 2459 422 2753 634 
Q 3047 847 3047 1241 
Q 3047 1584 2836 1778 
Q 2625 1972 2144 2069 
L 1759 2144 
Q 1053 2284 737 2584 
Q 422 2884 422 3419 
Q 422 4038 858 4394 
Q 1294 4750 2059 4750 
Q 2388 4750 2728 4690 
Q 3069 4631 3425 4513 
z
" transform="scale(0.015625)"/>
       <path id="DejaVuSans-74" d="M 1172 4494 
L 1172 3500 
L 2356 3500 
L 2356 3053 
L 1172 3053 
L 1172 1153 
Q 1172 725 1289 603 
Q 1406 481 1766 481 
L 2356 481 
L 2356 0 
L 1766 0 
Q 1100 0 847 248 
Q 594 497 594 1153 
L 594 3053 
L 172 3053 
L 172 3500 
L 594 3500 
L 594 4494 
L 1172 4494 
z
" transform="scale(0.015625)"/>
       <path id="DejaVuSans-65" d="M 3597 1894 
L 3597 1613 
L 953 1613 
Q 991 1019 1311 708 
Q 1631 397 2203 397 
Q 2534 397 2845 478 
Q 3156 559 3463 722 
L 3463 178 
Q 3153 47 2828 -22 
Q 2503 -91 2169 -91 
Q 1331 -91 842 396 
Q 353 884 353 1716 
Q 353 2575 817 3079 
Q 1281 3584 2069 3584 
Q 2775 3584 3186 3129 
Q 3597 2675 3597 1894 
z
M 3022 2063 
Q 3016 2534 2758 2815 
Q 2500 3097 2075 3097 
Q 1594 3097 1305 2825 
Q 1016 2553 972 2059 
L 3022 2063 
z
" transform="scale(0.015625)"/>
       <path id="DejaVuSans-70" d="M 1159 525 
L 1159 -1331 
L 581 -1331 
L 581 3500 
L 1159 3500 
L 1159 2969 
Q 1341 3281 1617 3432 
Q 1894 3584 2278 3584 
Q 2916 3584 3314 3078 
Q 3713 2572 3713 1747 
Q 3713 922 3314 415 
Q 2916 -91 2278 -91 
Q 1894 -91 1617 61 
Q 1341 213 1159 525 
z
M 3116 1747 
Q 3116 2381 2855 2742 
Q 2594 3103 2138 3103 
Q 1681 3103 1420 2742 
Q 1159 2381 1159 1747 
Q 1159 1113 1420 752 
Q 1681 391 2138 391 
Q 2594 391 2855 752 
Q 3116 1113 3116 1747 
z
" transform="scale(0.015625)"/>
       <path id="DejaVuSans-73" d="M 2834 3397 
L 2834 2853 
Q 2591 2978 2328 3040 
Q 2066 3103 1784 3103 
Q 1356 3103 1142 2972 
Q 928 2841 928 2578 
Q 928 2378 1081 2264 
Q 1234 2150 1697 2047 
L 1894 2003 
Q 2506 1872 2764 1633 
Q 3022 1394 3022 966 
Q 3022 478 2636 193 
Q 2250 -91 1575 -91 
Q 1294 -91 989 -36 
Q 684 19 347 128 
L 347 722 
Q 666 556 975 473 
Q 1284 391 1588 391 
Q 1994 391 2212 530 
Q 2431 669 2431 922 
Q 2431 1156 2273 1281 
Q 2116 1406 1581 1522 
L 1381 1569 
Q 847 1681 609 1914 
Q 372 2147 372 2553 
Q 372 3047 722 3315 
Q 1072 3584 1716 3584 
Q 2034 3584 2315 3537 
Q 2597 3491 2834 3397 
z
" transform="scale(0.015625)"/>
      </defs>
      <use xlink:href="#DejaVuSans-53"/>
      <use xlink:href="#DejaVuSans-74" transform="translate(63.476562 0)"/>
      <use xlink:href="#DejaVuSans-65" transform="translate(102.685547 0)"/>
      <use xlink:href="#DejaVuSans-70" transform="translate(164.208984 0)"/>
      <use xlink:href="#DejaVuSans-73" transform="translate(227.685547 0)"/>
     </g>
    </g>
   </g>
   <g id="matplotlib.axis_2">
    <g id="ytick_1">
     <g id="line2d_11">
      <path d="M 50.87 347.337453 
L 709.2 347.337453 
" clip-path="url(#p63cd5824a8)" style="fill: none; stroke: #b0b0b0; stroke-width: 0.8; stroke-linecap: square"/>
     </g>
     <g id="line2d_12">
      <defs>
       <path id="ma9caf4fd8e" d="M 0 0 
L -3.5 0 
" style="stroke: #000000; stroke-width: 0.8"/>
      </defs>
      <g>
       <use xlink:href="#ma9caf4fd8e" x="50.87" y="347.337453" style="stroke: #000000; stroke-width: 0.8"/>
      </g>
     </g>
     <g id="text_7">
      <!-- 0 -->
      <g transform="translate(37.5075 351.136672) scale(0.1 -0.1)">
       <use xlink:href="#DejaVuSans-30"/>
      </g>
     </g>
    </g>
    <g id="ytick_2">
     <g id="line2d_13">
      <path d="M 50.87 293.389755 
L 709.2 293.389755 
" clip-path="url(#p63cd5824a8)" style="fill: none; stroke: #b0b0b0; stroke-width: 0.8; stroke-linecap: square"/>
     </g>
     <g id="line2d_14">
      <g>
       <use xlink:href="#ma9caf4fd8e" x="50.87" y="293.389755" style="stroke: #000000; stroke-width: 0.8"/>
      </g>
     </g>
     <g id="text_8">
      <!-- 20 -->
      <g transform="translate(31.145 297.188974) scale(0.1 -0.1)">
       <use xlink:href="#DejaVuSans-32"/>
       <use xlink:href="#DejaVuSans-30" transform="translate(63.623047 0)"/>
      </g>
     </g>
    </g>
    <g id="ytick_3">
     <g id="line2d_15">
      <path d="M 50.87 239.442057 
L 709.2 239.442057 
" clip-path="url(#p63cd5824a8)" style="fill: none; stroke: #b0b0b0; stroke-width: 0.8; stroke-linecap: square"/>
     </g>
     <g id="line2d_16">
      <g>
       <use xlink:href="#ma9caf4fd8e" x="50.87" y="239.442057" style="stroke: #000000; stroke-width: 0.8"/>
      </g>
     </g>
     <g id="text_9">
      <!-- 40 -->
      <g transform="translate(31.145 243.241276) scale(0.1 -0.1)">
       <use xlink:href="#DejaVuSans-34"/>
       <use xlink:href="#DejaVuSans-30" transform="translate(63.623047 0)"/>
      </g>
     </g>
    </g>
    <g id="ytick_4">
     <g id="line2d_17">
      <path d="M 50.87 185.494359 
L 709.2 185.494359 
" clip-path="url(#p63cd5824a8)" style="fill: none; stroke: #b0b0b0; stroke-width: 0.8; stroke-linecap: square"/>
     </g>
     <g id="line2d_18">
      <g>
       <use xlink:href="#ma9caf4fd8e" x="50.87" y="185.494359" style="stroke: #000000; stroke-width: 0.8"/>
      </g>
     </g>
     <g id="text_10">
      <!-- 60 -->
      <g transform="translate(31.145 189.293578) scale(0.1 -0.1)">
       <use xlink:href="#DejaVuSans-36"/>
       <use xlink:href="#DejaVuSans-30" transform="translate(63.623047 0)"/>
      </g>
     </g>
    </g>
    <g id="ytick_5">
     <g id="line2d_19">
      <path d="M 50.87 131.546661 
L 709.2 131.546661 
" clip-path="url(#p63cd5824a8)" style="fill: none; stroke: #b0b0b0; stroke-width: 0.8; stroke-linecap: square"/>
     </g>
     <g id="line2d_20">
      <g>
       <use xlink:href="#ma9caf4fd8e" x="50.87" y="131.546661" style="stroke: #000000; stroke-width: 0.8"/>
      </g>
     </g>
     <g id="text_11">
      <!-- 80 -->
      <g transform="translate(31.145 135.34588) scale(0.1 -0.1)">
       <use xlink:href="#DejaVuSans-38"/>
       <use xlink:href="#DejaVuSans-30" transform="translate(63.623047 0)"/>
      </g>
     </g>
    </g>
    <g id="ytick_6">
     <g id="line2d_21">
      <path d="M 50.87 77.598963 
L 709.2 77.598963 
" clip-path="url(#p63cd5824a8)" style="fill: none; stroke: #b0b0b0; stroke-width: 0.8; stroke-linecap: square"/>
     </g>
     <g id="line2d_22">
      <g>
       <use xlink:href="#ma9caf4fd8e" x="50.87" y="77.598963" style="stroke: #000000; stroke-width: 0.8"/>
      </g>
     </g>
     <g id="text_12">
      <!-- 100 -->
      <g transform="translate(24.7825 81.398182) scale(0.1 -0.1)">
       <defs>
        <path id="DejaVuSans-31" d="M 794 531 
L 1825 531 
L 1825 4091 
L 703 3866 
L 703 4441 
L 1819 4666 
L 2450 4666 
L 2450 531 
L 3481 531 
L 3481 0 
L 794 0 
L 794 531 
z
" transform="scale(0.015625)"/>
       </defs>
       <use xlink:href="#DejaVuSans-31"/>
       <use xlink:href="#DejaVuSans-30" transform="translate(63.623047 0)"/>
       <use xlink:href="#DejaVuSans-30" transform="translate(127.246094 0)"/>
      </g>
     </g>
    </g>
    <g id="ytick_7">
     <g id="line2d_23">
      <path d="M 50.87 23.651265 
L 709.2 23.651265 
" clip-path="url(#p63cd5824a8)" style="fill: none; stroke: #b0b0b0; stroke-width: 0.8; stroke-linecap: square"/>
     </g>
     <g id="line2d_24">
      <g>
       <use xlink:href="#ma9caf4fd8e" x="50.87" y="23.651265" style="stroke: #000000; stroke-width: 0.8"/>
      </g>
     </g>
     <g id="text_13">
      <!-- 120 -->
      <g transform="translate(24.7825 27.450484) scale(0.1 -0.1)">
       <use xlink:href="#DejaVuSans-31"/>
       <use xlink:href="#DejaVuSans-32" transform="translate(63.623047 0)"/>
       <use xlink:href="#DejaVuSans-30" transform="translate(127.246094 0)"/>
      </g>
     </g>
    </g>
    <g id="text_14">
     <!-- Reward -->
     <g transform="translate(18.702813 219.041094) rotate(-90) scale(0.1 -0.1)">
      <defs>
       <path id="DejaVuSans-52" d="M 2841 2188 
Q 3044 2119 3236 1894 
Q 3428 1669 3622 1275 
L 4263 0 
L 3584 0 
L 2988 1197 
Q 2756 1666 2539 1819 
Q 2322 1972 1947 1972 
L 1259 1972 
L 1259 0 
L 628 0 
L 628 4666 
L 2053 4666 
Q 2853 4666 3247 4331 
Q 3641 3997 3641 3322 
Q 3641 2881 3436 2590 
Q 3231 2300 2841 2188 
z
M 1259 4147 
L 1259 2491 
L 2053 2491 
Q 2509 2491 2742 2702 
Q 2975 2913 2975 3322 
Q 2975 3731 2742 3939 
Q 2509 4147 2053 4147 
L 1259 4147 
z
" transform="scale(0.015625)"/>
       <path id="DejaVuSans-77" d="M 269 3500 
L 844 3500 
L 1563 769 
L 2278 3500 
L 2956 3500 
L 3675 769 
L 4391 3500 
L 4966 3500 
L 4050 0 
L 3372 0 
L 2619 2869 
L 1863 0 
L 1184 0 
L 269 3500 
z
" transform="scale(0.015625)"/>
       <path id="DejaVuSans-61" d="M 2194 1759 
Q 1497 1759 1228 1600 
Q 959 1441 959 1056 
Q 959 750 1161 570 
Q 1363 391 1709 391 
Q 2188 391 2477 730 
Q 2766 1069 2766 1631 
L 2766 1759 
L 2194 1759 
z
M 3341 1997 
L 3341 0 
L 2766 0 
L 2766 531 
Q 2569 213 2275 61 
Q 1981 -91 1556 -91 
Q 1019 -91 701 211 
Q 384 513 384 1019 
Q 384 1609 779 1909 
Q 1175 2209 1959 2209 
L 2766 2209 
L 2766 2266 
Q 2766 2663 2505 2880 
Q 2244 3097 1772 3097 
Q 1472 3097 1187 3025 
Q 903 2953 641 2809 
L 641 3341 
Q 956 3463 1253 3523 
Q 1550 3584 1831 3584 
Q 2591 3584 2966 3190 
Q 3341 2797 3341 1997 
z
" transform="scale(0.015625)"/>
       <path id="DejaVuSans-72" d="M 2631 2963 
Q 2534 3019 2420 3045 
Q 2306 3072 2169 3072 
Q 1681 3072 1420 2755 
Q 1159 2438 1159 1844 
L 1159 0 
L 581 0 
L 581 3500 
L 1159 3500 
L 1159 2956 
Q 1341 3275 1631 3429 
Q 1922 3584 2338 3584 
Q 2397 3584 2469 3576 
Q 2541 3569 2628 3553 
L 2631 2963 
z
" transform="scale(0.015625)"/>
       <path id="DejaVuSans-64" d="M 2906 2969 
L 2906 4863 
L 3481 4863 
L 3481 0 
L 2906 0 
L 2906 525 
Q 2725 213 2448 61 
Q 2172 -91 1784 -91 
Q 1150 -91 751 415 
Q 353 922 353 1747 
Q 353 2572 751 3078 
Q 1150 3584 1784 3584 
Q 2172 3584 2448 3432 
Q 2725 3281 2906 2969 
z
M 947 1747 
Q 947 1113 1208 752 
Q 1469 391 1925 391 
Q 2381 391 2643 752 
Q 2906 1113 2906 1747 
Q 2906 2381 2643 2742 
Q 2381 3103 1925 3103 
Q 1469 3103 1208 2742 
Q 947 2381 947 1747 
z
" transform="scale(0.015625)"/>
      </defs>
      <use xlink:href="#DejaVuSans-52"/>
      <use xlink:href="#DejaVuSans-65" transform="translate(64.982422 0)"/>
      <use xlink:href="#DejaVuSans-77" transform="translate(126.505859 0)"/>
      <use xlink:href="#DejaVuSans-61" transform="translate(208.292969 0)"/>
      <use xlink:href="#DejaVuSans-72" transform="translate(269.572266 0)"/>
      <use xlink:href="#DejaVuSans-64" transform="translate(308.935547 0)"/>
     </g>
    </g>
   </g>
   <g id="line2d_25">
    <path d="M 80.794091 329.222048 
L 87.011255 320.800872 
L 93.052646 315.544321 
L 105.252611 279.627892 
L 111.313532 247.588841 
L 117.276802 210.676575 
L 127.387018 117.919615 
L 131.813899 93.401802 
L 135.941315 79.406713 
L 139.964569 75.744976 
L 143.916212 71.667698 
L 147.900405 75.267516 
L 151.845538 67.154457 
L 155.823221 68.945647 
L 159.768354 69.395354 
L 163.687446 68.956317 
L 167.632578 68.053472 
L 171.55818 65.790479 
L 175.470762 65.791438 
L 179.389854 66.700831 
L 183.308947 67.14285 
L 187.247569 67.142798 
L 191.166661 66.719496 
L 195.085753 65.34015 
L 198.991825 65.789805 
L 202.904407 67.141187 
L 206.823499 65.339971 
L 210.736081 67.150785 
L 214.648663 67.140595 
L 218.541715 66.240575 
L 222.454297 66.700292 
L 230.27946 65.789962 
L 241.997676 65.790479 
L 245.910258 66.701835 
L 249.82935 65.790172 
L 253.741932 66.701648 
L 257.648004 65.339918 
L 261.554076 66.241684 
L 265.466658 65.340855 
L 273.285311 65.340398 
L 277.171853 66.690671 
L 281.071415 66.239886 
L 284.957956 67.140977 
L 288.890069 66.24044 
L 292.79614 65.799335 
L 296.695702 65.789962 
L 300.608284 67.146889 
L 304.514356 65.78979 
L 308.426938 65.78979 
L 312.33301 65.339693 
L 316.239082 65.339349 
L 320.151664 65.799508 
L 324.077266 65.339866 
L 328.074479 67.146342 
L 332.006592 65.791356 
L 335.990785 68.057114 
L 339.916387 65.792142 
L 343.828969 65.791858 
L 347.748061 65.342278 
L 355.612286 65.340682 
L 359.550908 66.256902 
L 363.587182 65.792922 
L 367.564866 65.794502 
L 371.536039 66.696073 
L 375.448621 65.794675 
L 379.374223 67.141127 
L 383.286805 65.789962 
L 395.018041 65.789617 
L 398.924112 65.339349 
L 402.836694 65.790651 
L 406.742766 65.339521 
L 410.648838 65.791341 
L 414.55491 65.790479 
L 418.460982 65.339521 
L 422.367054 65.78979 
L 426.273125 65.339701 
L 430.185707 65.339866 
L 434.091779 65.789617 
L 437.997851 65.339693 
L 441.910433 65.339881 
L 449.716067 68.065101 
L 453.622139 66.704121 
L 457.52821 68.519221 
L 461.434282 66.696261 
L 465.346864 65.790307 
L 469.252936 66.245056 
L 473.172028 66.242336 
L 477.0781 65.339521 
L 480.984172 66.695204 
L 484.883734 66.247588 
L 488.763765 71.643452 
L 492.383391 110.366368 
L 495.325966 143.244875 
L 498.073236 146.389568 
L 500.813997 150.895932 
L 503.450595 153.148481 
L 506.093704 154.047122 
L 508.717282 155.393214 
L 511.32133 155.394076 
L 513.925378 156.753041 
L 516.529426 157.196394 
L 519.153004 154.507296 
L 521.770072 156.301873 
L 526.991188 155.40031 
L 534.822862 155.395455 
L 537.43342 154.945876 
L 540.193711 159.44925 
L 542.88239 177.461194 
L 545.545029 212.58149 
L 548.168608 233.29118 
L 550.779166 241.395008 
L 553.389724 244.09623 
L 558.60433 244.996467 
L 561.208377 244.996467 
L 563.812425 245.446908 
L 566.416473 244.996467 
L 569.020521 267.059622 
L 571.631079 302.63083 
L 574.248147 324.243717 
L 576.865215 327.395596 
L 579.469263 330.997744 
L 582.079821 331.448012 
L 584.683869 334.149623 
L 587.300937 334.599892 
L 589.911495 335.500428 
L 592.541584 333.699355 
L 595.178182 335.500428 
L 597.866862 334.149623 
L 600.48393 335.500428 
L 608.328624 335.500428 
L 610.952202 334.149623 
L 613.55625 335.05016 
L 616.166808 335.500428 
L 618.783876 334.599892 
L 624.044053 335.500428 
L 626.654611 335.500428 
L 629.29772 335.05019 
L 631.908278 335.500428 
L 634.688099 325.144254 
L 637.402819 335.05016 
L 640.039417 332.798818 
L 642.708566 335.500428 
L 650.572791 335.500428 
L 653.189859 335.05016 
L 655.813438 335.500428 
L 658.417485 333.249086 
L 661.028043 335.05016 
L 663.632091 335.05016 
L 666.236139 335.500428 
L 676.671861 335.500428 
L 679.275909 335.05037 
L 679.275909 335.05037 
" clip-path="url(#p63cd5824a8)" style="fill: none; stroke: #1f77b4; stroke-width: 1.5; stroke-linecap: square"/>
   </g>
   <g id="line2d_26">
    <path d="M 81.061006 319.456031 
L 87.610186 310.888365 
L 94.178897 303.966381 
L 100.467673 286.25981 
L 106.802019 269.101737 
L 112.791329 242.167052 
L 118.956413 204.849819 
L 124.691828 149.43873 
L 130.407713 116.709268 
L 135.947825 98.082012 
L 141.11686 79.505078 
L 146.090592 74.918841 
L 150.927611 72.230927 
L 155.465164 70.387654 
L 159.976677 71.764137 
L 164.318927 67.675112 
L 168.368222 64.956927 
L 176.466811 66.762039 
L 180.464024 64.506209 
L 184.441707 65.396721 
L 188.40637 63.141774 
L 192.351503 64.040783 
L 196.277105 63.140883 
L 200.202707 64.49228 
L 204.15435 64.063561 
L 208.132033 63.139482 
L 215.950687 64.040266 
L 219.876289 62.688486 
L 223.808401 63.15159 
L 227.720983 62.238562 
L 231.646586 64.039674 
L 235.539637 62.688674 
L 243.403862 62.689663 
L 247.348994 63.139174 
L 251.261576 64.941964 
L 255.193689 62.688816 
L 263.018853 62.702183 
L 266.931435 62.238218 
L 270.844017 62.688142 
L 274.750088 62.237701 
L 278.65616 63.13841 
L 282.562232 62.237356 
L 286.468304 63.139774 
L 294.280448 62.24069 
L 302.099101 62.239769 
L 306.024704 63.152781 
L 313.856378 62.23839 
L 317.76245 62.688524 
L 321.681542 62.238218 
L 325.600634 63.140351 
L 333.458348 62.237543 
L 337.36442 62.237701 
L 341.270492 62.688748 
L 345.170054 62.688157 
L 349.063105 63.590514 
L 352.969177 62.689378 
L 360.76179 63.589023 
L 364.667862 62.237528 
L 368.580444 62.237528 
L 372.486516 62.693889 
L 380.29215 62.702932 
L 384.341444 62.244332 
L 392.433523 62.246497 
L 396.528388 62.689865 
L 400.493051 62.239596 
L 404.470734 62.238907 
L 408.389827 62.693889 
L 412.334959 62.239079 
L 416.325663 62.689693 
L 420.277305 62.688659 
L 424.215928 62.23875 
L 428.15455 62.688666 
L 432.086662 62.238907 
L 436.044815 62.701306 
L 447.808602 62.688516 
L 451.740714 63.589196 
L 455.653296 62.237873 
L 463.47846 62.238218 
L 467.417082 63.138755 
L 471.342684 62.689018 
L 475.307347 63.139444 
L 479.23295 68.994657 
L 482.904657 102.327644 
L 486.075085 182.060296 
L 488.867927 209.534944 
L 491.543586 228.00181 
L 494.173674 228.901313 
L 496.842824 234.756354 
L 502.09649 241.06341 
L 504.713558 242.414193 
L 507.330626 241.514 
L 509.934674 242.876584 
L 512.538722 241.970473 
L 515.14277 242.418329 
L 517.753328 241.965648 
L 520.357376 242.414193 
L 522.961424 242.415399 
L 525.565472 241.963767 
L 528.17603 243.314557 
L 533.390636 241.512794 
L 535.994684 242.413676 
L 541.202779 242.413676 
L 543.806827 241.963407 
L 546.417385 242.413863 
L 549.027943 241.963235 
L 551.631991 242.413676 
L 556.840087 242.416088 
L 559.444135 243.320005 
L 562.048183 242.869039 
L 564.652231 242.864117 
L 567.295339 242.41465 
L 569.899387 242.864117 
L 572.503435 242.413676 
L 575.107483 259.981039 
L 577.711531 288.358637 
L 580.315579 327.997428 
L 582.919627 328.898384 
L 585.523675 332.501836 
L 588.127723 332.051432 
L 590.73177 332.501836 
L 601.147962 332.501836 
L 603.75201 332.051395 
L 606.356058 332.501836 
L 642.812728 332.501836 
L 645.423286 332.051395 
L 648.027334 332.501836 
L 658.443526 332.501836 
L 661.047574 332.051395 
L 663.651622 332.501836 
L 674.067813 332.501836 
L 676.671861 332.051619 
L 679.275909 332.502045 
L 679.275909 332.502045 
" clip-path="url(#p63cd5824a8)" style="fill: none; stroke: #ff7f0e; stroke-width: 1.5; stroke-linecap: square"/>
   </g>
   <g id="patch_3">
    <path d="M 50.87 390.04 
L 50.87 10.8 
" style="fill: none; stroke: #000000; stroke-width: 0.8; stroke-linejoin: miter; stroke-linecap: square"/>
   </g>
   <g id="patch_4">
    <path d="M 709.2 390.04 
L 709.2 10.8 
" style="fill: none; stroke: #000000; stroke-width: 0.8; stroke-linejoin: miter; stroke-linecap: square"/>
   </g>
   <g id="patch_5">
    <path d="M 50.87 390.04 
L 709.2 390.04 
" style="fill: none; stroke: #000000; stroke-width: 0.8; stroke-linejoin: miter; stroke-linecap: square"/>
   </g>
   <g id="patch_6">
    <path d="M 50.87 10.8 
L 709.2 10.8 
" style="fill: none; stroke: #000000; stroke-width: 0.8; stroke-linejoin: miter; stroke-linecap: square"/>
   </g>
   <g id="legend_1">
    <g id="patch_7">
     <path d="M 608.528125 385.04 
L 702.2 385.04 
Q 704.2 385.04 704.2 383.04 
L 704.2 340.005625 
Q 704.2 338.005625 702.2 338.005625 
L 608.528125 338.005625 
Q 606.528125 338.005625 606.528125 340.005625 
L 606.528125 383.04 
Q 606.528125 385.04 608.528125 385.04 
z
" style="fill: #ffffff; opacity: 0.8; stroke: #cccccc; stroke-linejoin: miter"/>
    </g>
    <g id="text_15">
     <!-- Max Circuit Depth -->
     <g transform="translate(610.528125 349.604062) scale(0.1 -0.1)">
      <defs>
       <path id="DejaVuSans-4d" d="M 628 4666 
L 1569 4666 
L 2759 1491 
L 3956 4666 
L 4897 4666 
L 4897 0 
L 4281 0 
L 4281 4097 
L 3078 897 
L 2444 897 
L 1241 4097 
L 1241 0 
L 628 0 
L 628 4666 
z
" transform="scale(0.015625)"/>
       <path id="DejaVuSans-78" d="M 3513 3500 
L 2247 1797 
L 3578 0 
L 2900 0 
L 1881 1375 
L 863 0 
L 184 0 
L 1544 1831 
L 300 3500 
L 978 3500 
L 1906 2253 
L 2834 3500 
L 3513 3500 
z
" transform="scale(0.015625)"/>
       <path id="DejaVuSans-20" transform="scale(0.015625)"/>
       <path id="DejaVuSans-43" d="M 4122 4306 
L 4122 3641 
Q 3803 3938 3442 4084 
Q 3081 4231 2675 4231 
Q 1875 4231 1450 3742 
Q 1025 3253 1025 2328 
Q 1025 1406 1450 917 
Q 1875 428 2675 428 
Q 3081 428 3442 575 
Q 3803 722 4122 1019 
L 4122 359 
Q 3791 134 3420 21 
Q 3050 -91 2638 -91 
Q 1578 -91 968 557 
Q 359 1206 359 2328 
Q 359 3453 968 4101 
Q 1578 4750 2638 4750 
Q 3056 4750 3426 4639 
Q 3797 4528 4122 4306 
z
" transform="scale(0.015625)"/>
       <path id="DejaVuSans-69" d="M 603 3500 
L 1178 3500 
L 1178 0 
L 603 0 
L 603 3500 
z
M 603 4863 
L 1178 4863 
L 1178 4134 
L 603 4134 
L 603 4863 
z
" transform="scale(0.015625)"/>
       <path id="DejaVuSans-63" d="M 3122 3366 
L 3122 2828 
Q 2878 2963 2633 3030 
Q 2388 3097 2138 3097 
Q 1578 3097 1268 2742 
Q 959 2388 959 1747 
Q 959 1106 1268 751 
Q 1578 397 2138 397 
Q 2388 397 2633 464 
Q 2878 531 3122 666 
L 3122 134 
Q 2881 22 2623 -34 
Q 2366 -91 2075 -91 
Q 1284 -91 818 406 
Q 353 903 353 1747 
Q 353 2603 823 3093 
Q 1294 3584 2113 3584 
Q 2378 3584 2631 3529 
Q 2884 3475 3122 3366 
z
" transform="scale(0.015625)"/>
       <path id="DejaVuSans-75" d="M 544 1381 
L 544 3500 
L 1119 3500 
L 1119 1403 
Q 1119 906 1312 657 
Q 1506 409 1894 409 
Q 2359 409 2629 706 
Q 2900 1003 2900 1516 
L 2900 3500 
L 3475 3500 
L 3475 0 
L 2900 0 
L 2900 538 
Q 2691 219 2414 64 
Q 2138 -91 1772 -91 
Q 1169 -91 856 284 
Q 544 659 544 1381 
z
M 1991 3584 
L 1991 3584 
z
" transform="scale(0.015625)"/>
       <path id="DejaVuSans-44" d="M 1259 4147 
L 1259 519 
L 2022 519 
Q 2988 519 3436 956 
Q 3884 1394 3884 2338 
Q 3884 3275 3436 3711 
Q 2988 4147 2022 4147 
L 1259 4147 
z
M 628 4666 
L 1925 4666 
Q 3281 4666 3915 4102 
Q 4550 3538 4550 2338 
Q 4550 1131 3912 565 
Q 3275 0 1925 0 
L 628 0 
L 628 4666 
z
" transform="scale(0.015625)"/>
       <path id="DejaVuSans-68" d="M 3513 2113 
L 3513 0 
L 2938 0 
L 2938 2094 
Q 2938 2591 2744 2837 
Q 2550 3084 2163 3084 
Q 1697 3084 1428 2787 
Q 1159 2491 1159 1978 
L 1159 0 
L 581 0 
L 581 4863 
L 1159 4863 
L 1159 2956 
Q 1366 3272 1645 3428 
Q 1925 3584 2291 3584 
Q 2894 3584 3203 3211 
Q 3513 2838 3513 2113 
z
" transform="scale(0.015625)"/>
      </defs>
      <use xlink:href="#DejaVuSans-4d"/>
      <use xlink:href="#DejaVuSans-61" transform="translate(86.279297 0)"/>
      <use xlink:href="#DejaVuSans-78" transform="translate(147.558594 0)"/>
      <use xlink:href="#DejaVuSans-20" transform="translate(206.738281 0)"/>
      <use xlink:href="#DejaVuSans-43" transform="translate(238.525391 0)"/>
      <use xlink:href="#DejaVuSans-69" transform="translate(308.349609 0)"/>
      <use xlink:href="#DejaVuSans-72" transform="translate(336.132812 0)"/>
      <use xlink:href="#DejaVuSans-63" transform="translate(374.996094 0)"/>
      <use xlink:href="#DejaVuSans-75" transform="translate(429.976562 0)"/>
      <use xlink:href="#DejaVuSans-69" transform="translate(493.355469 0)"/>
      <use xlink:href="#DejaVuSans-74" transform="translate(521.138672 0)"/>
      <use xlink:href="#DejaVuSans-20" transform="translate(560.347656 0)"/>
      <use xlink:href="#DejaVuSans-44" transform="translate(592.134766 0)"/>
      <use xlink:href="#DejaVuSans-65" transform="translate(669.136719 0)"/>
      <use xlink:href="#DejaVuSans-70" transform="translate(730.660156 0)"/>
      <use xlink:href="#DejaVuSans-74" transform="translate(794.136719 0)"/>
      <use xlink:href="#DejaVuSans-68" transform="translate(833.345703 0)"/>
     </g>
    </g>
    <g id="line2d_27">
     <path d="M 638.182813 360.782187 
L 648.182813 360.782187 
L 658.182813 360.782187 
" style="fill: none; stroke: #1f77b4; stroke-width: 1.5; stroke-linecap: square"/>
    </g>
    <g id="text_16">
     <!-- 4 -->
     <g transform="translate(666.182813 364.282187) scale(0.1 -0.1)">
      <use xlink:href="#DejaVuSans-34"/>
     </g>
    </g>
    <g id="line2d_28">
     <path d="M 638.182813 375.460312 
L 648.182813 375.460312 
L 658.182813 375.460312 
" style="fill: none; stroke: #ff7f0e; stroke-width: 1.5; stroke-linecap: square"/>
    </g>
    <g id="text_17">
     <!-- 5 -->
     <g transform="translate(666.182813 378.960312) scale(0.1 -0.1)">
      <defs>
       <path id="DejaVuSans-35" d="M 691 4666 
L 3169 4666 
L 3169 4134 
L 1269 4134 
L 1269 2991 
Q 1406 3038 1543 3061 
Q 1681 3084 1819 3084 
Q 2600 3084 3056 2656 
Q 3513 2228 3513 1497 
Q 3513 744 3044 326 
Q 2575 -91 1722 -91 
Q 1428 -91 1123 -41 
Q 819 9 494 109 
L 494 744 
Q 775 591 1075 516 
Q 1375 441 1709 441 
Q 2250 441 2565 725 
Q 2881 1009 2881 1497 
Q 2881 1984 2565 2268 
Q 2250 2553 1709 2553 
Q 1456 2553 1204 2497 
Q 953 2441 691 2322 
L 691 4666 
z
" transform="scale(0.015625)"/>
      </defs>
      <use xlink:href="#DejaVuSans-35"/>
     </g>
    </g>
   </g>
  </g>
 </g>
 <defs>
  <clipPath id="p63cd5824a8">
   <rect x="50.87" y="10.8" width="658.33" height="379.24"/>
  </clipPath>
 </defs>
</svg>
