<?xml version="1.0" encoding="utf-8" standalone="no"?>
<!DOCTYPE svg PUBLIC "-//W3C//DTD SVG 1.1//EN"
  "http://www.w3.org/Graphics/SVG/1.1/DTD/svg11.dtd">
<svg xmlns:xlink="http://www.w3.org/1999/xlink" width="720pt" height="432pt" viewBox="0 0 720 432" xmlns="http://www.w3.org/2000/svg" version="1.1">
 <metadata>
  <rdf:RDF xmlns:dc="http://purl.org/dc/elements/1.1/" xmlns:cc="http://creativecommons.org/ns#" xmlns:rdf="http://www.w3.org/1999/02/22-rdf-syntax-ns#">
   <cc:Work>
    <dc:type rdf:resource="http://purl.org/dc/dcmitype/StillImage"/>
    <dc:date>2025-04-15T15:45:15.656182</dc:date>
    <dc:format>image/svg+xml</dc:format>
    <dc:creator>
     <cc:Agent>
      <dc:title>Matplotlib v3.10.0, https://matplotlib.org/</dc:title>
     </cc:Agent>
    </dc:creator>
   </cc:Work>
  </rdf:RDF>
 </metadata>
 <defs>
  <style type="text/css">*{stroke-linejoin: round; stroke-linecap: butt}</style>
 </defs>
 <g id="figure_1">
  <g id="patch_1">
   <path d="M 0 432 
L 720 432 
L 720 0 
L 0 0 
z
" style="fill: #ffffff"/>
  </g>
  <g id="axes_1">
   <g id="patch_2">
    <path d="M 47.63 390.04 
L 707.12035 390.04 
L 707.12035 10.8 
L 47.63 10.8 
z
" style="fill: #ffffff"/>
   </g>
   <g id="FillBetweenPolyCollection_1">
    <path d="M 77.606834 42.873623 
L 77.606834 343.836251 
L 80.681381 349.142552 
L 83.755928 343.851506 
L 86.830475 356.713181 
L 89.905022 372.801818 
L 92.979569 365.399087 
L 96.054117 365.003053 
L 99.128664 368.801131 
L 102.203211 362.997551 
L 105.277758 366.940432 
L 108.352305 348.379113 
L 111.426852 343.901704 
L 114.501399 330.111844 
L 117.575946 300.374613 
L 120.650493 299.09124 
L 123.72504 294.73636 
L 126.799587 290.62433 
L 129.874135 284.767696 
L 132.948682 273.271586 
L 136.023229 267.456576 
L 139.097776 268.27706 
L 142.172323 269.868775 
L 145.24687 269.593883 
L 148.321417 273.810655 
L 151.395964 276.730628 
L 154.470511 275.235569 
L 157.545058 273.954918 
L 160.619605 271.271107 
L 163.694152 273.963252 
L 166.7687 273.255654 
L 169.843247 272.703883 
L 172.917794 277.306402 
L 175.992341 273.055437 
L 179.066888 273.738058 
L 182.141435 272.962673 
L 185.215982 274.791546 
L 188.290529 273.884245 
L 191.365076 273.148913 
L 194.439623 275.246396 
L 197.51417 274.725897 
L 200.588717 273.81292 
L 203.663265 273.455252 
L 206.737812 274.08153 
L 209.812359 275.947537 
L 212.886906 276.795657 
L 215.961453 272.775208 
L 219.036 274.853919 
L 222.110547 277.359283 
L 225.185094 274.311717 
L 228.259641 273.554235 
L 231.334188 276.352858 
L 234.408735 274.95084 
L 237.483282 275.49951 
L 240.55783 273.775891 
L 243.632377 272.261625 
L 246.706924 276.5008 
L 249.781471 273.886711 
L 252.856018 264.950549 
L 255.930565 267.940274 
L 259.005112 272.082553 
L 262.079659 275.366167 
L 265.154206 265.802779 
L 268.228753 270.269989 
L 271.3033 275.1646 
L 274.377847 283.899832 
L 277.452395 286.832591 
L 280.526942 280.526122 
L 283.601489 280.500433 
L 286.676036 286.091649 
L 289.750583 285.859338 
L 292.82513 280.076913 
L 295.899677 284.568246 
L 298.974224 278.632102 
L 302.048771 271.383088 
L 305.123318 259.423688 
L 308.197865 262.802995 
L 311.272413 271.315905 
L 314.34696 275.240362 
L 317.421507 271.219602 
L 320.496054 268.010151 
L 323.570601 281.530473 
L 326.645148 282.130449 
L 329.719695 278.843239 
L 332.794242 271.953907 
L 335.868789 270.79171 
L 338.943336 271.741808 
L 342.017883 272.511436 
L 345.09243 272.11809 
L 348.166978 273.614191 
L 351.241525 272.371017 
L 354.316072 274.233224 
L 357.390619 275.315845 
L 360.465166 273.056569 
L 363.539713 271.402398 
L 366.61426 270.242387 
L 369.688807 271.801251 
L 372.763354 270.916708 
L 375.837901 270.35271 
L 378.912448 270.617258 
L 381.986995 271.038262 
L 385.061543 271.713375 
L 388.13609 271.908922 
L 391.210637 271.77308 
L 394.285184 272.940522 
L 397.359731 271.040061 
L 400.434278 271.863362 
L 403.508825 268.726166 
L 406.583372 269.497034 
L 409.657919 271.186249 
L 412.732466 271.205113 
L 415.807013 269.274682 
L 418.88156 269.709619 
L 421.956108 272.386437 
L 425.030655 271.260849 
L 428.105202 270.965199 
L 431.179749 267.75023 
L 434.254296 268.528912 
L 437.328843 270.067905 
L 440.40339 267.558818 
L 443.477937 265.626993 
L 446.552484 269.279413 
L 449.627031 270.612169 
L 452.701578 271.765059 
L 455.776125 273.036573 
L 458.850673 315.7681 
L 461.92522 275.498362 
L 464.999767 271.911853 
L 468.074314 269.365895 
L 471.148861 266.77937 
L 474.223408 264.969875 
L 477.297955 267.322348 
L 480.372502 271.074001 
L 483.447049 271.298233 
L 486.521596 267.873594 
L 489.596143 258.724555 
L 492.67069 268.608413 
L 495.745238 271.908316 
L 498.819785 273.697398 
L 501.894332 274.127352 
L 504.968879 274.314462 
L 508.043426 274.05249 
L 511.117973 273.14882 
L 514.19252 265.66154 
L 517.267067 262.750669 
L 520.341614 268.428548 
L 523.416161 273.58515 
L 526.490708 268.301749 
L 529.565256 270.706158 
L 532.639803 272.214141 
L 535.71435 270.997077 
L 538.788897 273.578775 
L 541.863444 274.14561 
L 544.937991 273.0557 
L 548.012538 273.660013 
L 551.087085 274.495196 
L 554.161632 274.127352 
L 557.236179 273.86538 
L 560.310726 273.952994 
L 563.385273 273.825065 
L 566.459821 274.00873 
L 569.534368 274.354515 
L 572.608915 274.656803 
L 575.683462 273.148558 
L 578.758009 273.753133 
L 581.832556 274.918775 
L 584.907103 274.127352 
L 587.98165 268.979187 
L 591.056197 271.980854 
L 594.130744 315.769483 
L 597.205291 274.664048 
L 600.279838 275.318235 
L 603.354386 268.182258 
L 606.428933 268.15038 
L 609.50348 269.390529 
L 612.578027 270.141898 
L 615.652574 271.528328 
L 618.727121 274.25502 
L 621.801668 273.479279 
L 624.876215 270.415331 
L 627.950762 270.366064 
L 631.025309 274.114601 
L 634.099856 268.543726 
L 637.174403 273.750202 
L 640.248951 274.301711 
L 643.323498 275.398866 
L 646.398045 272.326388 
L 649.472592 273.143313 
L 652.547139 273.691115 
L 655.621686 276.865199 
L 658.696233 275.979694 
L 661.77078 272.241257 
L 664.845327 268.348037 
L 667.919874 270.313588 
L 670.994421 270.506297 
L 674.068968 272.600242 
L 677.143516 273.276487 
L 677.143516 169.822391 
L 677.143516 169.822391 
L 674.068968 170.498635 
L 670.994421 167.893497 
L 667.919874 167.36327 
L 664.845327 179.811392 
L 661.77078 173.387897 
L 658.696233 163.143036 
L 655.621686 160.450191 
L 652.547139 169.407763 
L 649.472592 168.148224 
L 646.398045 168.96515 
L 643.323498 172.037627 
L 640.248951 171.688911 
L 637.174403 170.433079 
L 634.099856 164.434049 
L 631.025309 171.87602 
L 627.950762 189.36034 
L 624.876215 192.202817 
L 621.801668 169.981067 
L 618.727121 170.28973 
L 615.652574 167.232935 
L 612.578027 166.450556 
L 609.50348 166.117522 
L 606.428933 165.911799 
L 603.354386 164.072581 
L 600.279838 168.503579 
L 597.205291 169.157766 
L 594.130744 205.767944 
L 591.056197 164.973068 
L 587.98165 167.251799 
L 584.907103 171.140333 
L 581.832556 171.794782 
L 578.758009 171.514552 
L 575.683462 169.227384 
L 572.608915 172.418222 
L 569.534368 171.274638 
L 566.459821 171.258956 
L 563.385273 169.996749 
L 560.310726 170.591756 
L 557.236179 171.763773 
L 554.161632 171.140333 
L 551.087085 171.133957 
L 548.012538 170.161801 
L 544.937991 169.320242 
L 541.863444 172.929415 
L 538.788897 170.965975 
L 535.71435 163.426569 
L 532.639803 168.715929 
L 529.565256 166.9707 
L 526.490708 161.061345 
L 523.416161 170.598131 
L 520.341614 163.103355 
L 517.267067 156.491322 
L 514.19252 158.279535 
L 511.117973 170.672994 
L 508.043426 171.576664 
L 504.968879 170.953223 
L 501.894332 171.140333 
L 498.819785 170.847352 
L 495.745238 170.829094 
L 492.67069 166.176702 
L 489.596143 155.818353 
L 486.521596 163.29684 
L 483.447049 166.017157 
L 480.372502 166.964325 
L 477.297955 163.486619 
L 474.223408 160.055604 
L 471.148861 164.029596 
L 468.074314 164.696283 
L 464.999767 167.572345 
L 461.92522 173.022535 
L 458.850673 211.191346 
L 455.776125 170.423773 
L 452.701578 169.526478 
L 449.627031 168.510561 
L 446.552484 164.421298 
L 443.477937 160.48289 
L 440.40339 164.334553 
L 437.328843 163.994274 
L 434.254296 161.19565 
L 431.179749 154.383506 
L 428.105202 165.265787 
L 425.030655 165.331605 
L 421.956108 165.290421 
L 418.88156 160.73788 
L 415.807013 160.811349 
L 412.732466 164.664405 
L 409.657919 167.213545 
L 406.583372 184.445882 
L 403.508825 192.446111 
L 400.434278 163.644688 
L 397.359731 164.829457 
L 394.285184 167.989548 
L 391.210637 165.180842 
L 388.13609 166.490872 
L 385.061543 163.071739 
L 381.986995 162.300981 
L 378.912448 163.083452 
L 375.837901 162.263596 
L 372.763354 161.338131 
L 369.688807 163.345331 
L 366.61426 152.614284 
L 363.539713 162.298312 
L 360.465166 166.427629 
L 357.390619 163.445417 
L 354.316072 171.757397 
L 351.241525 166.390245 
L 348.166978 165.870007 
L 345.09243 166.281704 
L 342.017883 164.803954 
L 338.943336 162.681838 
L 335.868789 161.824597 
L 332.794242 163.554143 
L 329.719695 169.316191 
L 326.645148 170.366596 
L 323.570601 162.291341 
L 320.496054 155.207988 
L 317.421507 158.143493 
L 314.34696 150.146585 
L 311.272413 156.601318 
L 308.197865 139.81147 
L 305.123318 119.695359 
L 302.048771 142.075416 
L 298.974224 163.74384 
L 295.899677 169.736139 
L 292.82513 167.721049 
L 289.750583 158.685412 
L 286.676036 170.381544 
L 283.601489 172.719548 
L 280.526942 167.633307 
L 277.452395 176.869961 
L 274.377847 178.356848 
L 271.3033 156.367303 
L 268.228753 132.705944 
L 265.154206 125.967647 
L 262.079659 159.780415 
L 259.005112 151.135586 
L 255.930565 123.107216 
L 252.856018 139.471256 
L 249.781471 155.837852 
L 246.706924 159.00725 
L 243.632377 162.162021 
L 240.55783 165.346839 
L 237.483282 164.707624 
L 234.408735 166.340698 
L 231.334188 169.276295 
L 228.259641 167.737303 
L 225.185094 166.256885 
L 222.110547 149.835004 
L 219.036 166.799087 
L 215.961453 166.70899 
L 212.886906 167.026156 
L 209.812359 170.404553 
L 206.737812 166.84854 
L 203.663265 164.221606 
L 200.588717 166.394214 
L 197.51417 168.011513 
L 194.439623 168.213949 
L 191.365076 168.865561 
L 188.290529 169.214633 
L 185.215982 165.05412 
L 182.141435 166.160057 
L 179.066888 166.830544 
L 175.992341 167.874632 
L 172.917794 168.68422 
L 169.843247 163.888571 
L 166.7687 166.590012 
L 163.694152 161.183331 
L 160.619605 155.92318 
L 157.545058 161.191664 
L 154.470511 159.549545 
L 151.395964 151.909531 
L 148.321417 149.407484 
L 145.24687 146.756365 
L 142.172323 148.650281 
L 139.097776 139.036488 
L 136.023229 126.844126 
L 132.948682 114.88416 
L 129.874135 112.063281 
L 126.799587 66.445171 
L 123.72504 72.454244 
L 120.650493 67.737896 
L 117.575946 71.876542 
L 114.501399 70.333813 
L 111.426852 69.195332 
L 108.352305 75.923431 
L 105.277758 83.026338 
L 102.203211 79.016923 
L 99.128664 83.334446 
L 96.054117 71.950869 
L 92.979569 89.266765 
L 89.905022 76.803483 
L 86.830475 36.864585 
L 83.755928 28.038182 
L 80.681381 48.411362 
L 77.606834 42.873623 
z
" clip-path="url(#p32edbd4963)" style="fill: #1f77b4; fill-opacity: 0.2"/>
   </g>
   <g id="matplotlib.axis_1">
    <g id="xtick_1">
     <g id="line2d_1">
      <path d="M 76.054188 390.04 
L 76.054188 10.8 
" clip-path="url(#p32edbd4963)" style="fill: none; stroke: #b0b0b0; stroke-width: 0.8; stroke-linecap: square"/>
     </g>
     <g id="line2d_2">
      <defs>
       <path id="ma3146c7e7f" d="M 0 0 
L 0 3.5 
" style="stroke: #000000; stroke-width: 0.8"/>
      </defs>
      <g>
       <use xlink:href="#ma3146c7e7f" x="76.054188" y="390.04" style="stroke: #000000; stroke-width: 0.8"/>
      </g>
     </g>
     <g id="text_1">
      <!-- 0 -->
      <g transform="translate(72.872938 404.638438) scale(0.1 -0.1)">
       <defs>
        <path id="DejaVuSans-30" d="M 2034 4250 
Q 1547 4250 1301 3770 
Q 1056 3291 1056 2328 
Q 1056 1369 1301 889 
Q 1547 409 2034 409 
Q 2525 409 2770 889 
Q 3016 1369 3016 2328 
Q 3016 3291 2770 3770 
Q 2525 4250 2034 4250 
z
M 2034 4750 
Q 2819 4750 3233 4129 
Q 3647 3509 3647 2328 
Q 3647 1150 3233 529 
Q 2819 -91 2034 -91 
Q 1250 -91 836 529 
Q 422 1150 422 2328 
Q 422 3509 836 4129 
Q 1250 4750 2034 4750 
z
" transform="scale(0.015625)"/>
       </defs>
       <use xlink:href="#DejaVuSans-30"/>
      </g>
     </g>
    </g>
    <g id="xtick_2">
     <g id="line2d_3">
      <path d="M 152.917865 390.04 
L 152.917865 10.8 
" clip-path="url(#p32edbd4963)" style="fill: none; stroke: #b0b0b0; stroke-width: 0.8; stroke-linecap: square"/>
     </g>
     <g id="line2d_4">
      <g>
       <use xlink:href="#ma3146c7e7f" x="152.917865" y="390.04" style="stroke: #000000; stroke-width: 0.8"/>
      </g>
     </g>
     <g id="text_2">
      <!-- 5000 -->
      <g transform="translate(140.192865 404.638438) scale(0.1 -0.1)">
       <defs>
        <path id="DejaVuSans-35" d="M 691 4666 
L 3169 4666 
L 3169 4134 
L 1269 4134 
L 1269 2991 
Q 1406 3038 1543 3061 
Q 1681 3084 1819 3084 
Q 2600 3084 3056 2656 
Q 3513 2228 3513 1497 
Q 3513 744 3044 326 
Q 2575 -91 1722 -91 
Q 1428 -91 1123 -41 
Q 819 9 494 109 
L 494 744 
Q 775 591 1075 516 
Q 1375 441 1709 441 
Q 2250 441 2565 725 
Q 2881 1009 2881 1497 
Q 2881 1984 2565 2268 
Q 2250 2553 1709 2553 
Q 1456 2553 1204 2497 
Q 953 2441 691 2322 
L 691 4666 
z
" transform="scale(0.015625)"/>
       </defs>
       <use xlink:href="#DejaVuSans-35"/>
       <use xlink:href="#DejaVuSans-30" transform="translate(63.623047 0)"/>
       <use xlink:href="#DejaVuSans-30" transform="translate(127.246094 0)"/>
       <use xlink:href="#DejaVuSans-30" transform="translate(190.869141 0)"/>
      </g>
     </g>
    </g>
    <g id="xtick_3">
     <g id="line2d_5">
      <path d="M 229.781542 390.04 
L 229.781542 10.8 
" clip-path="url(#p32edbd4963)" style="fill: none; stroke: #b0b0b0; stroke-width: 0.8; stroke-linecap: square"/>
     </g>
     <g id="line2d_6">
      <g>
       <use xlink:href="#ma3146c7e7f" x="229.781542" y="390.04" style="stroke: #000000; stroke-width: 0.8"/>
      </g>
     </g>
     <g id="text_3">
      <!-- 10000 -->
      <g transform="translate(213.875292 404.638438) scale(0.1 -0.1)">
       <defs>
        <path id="DejaVuSans-31" d="M 794 531 
L 1825 531 
L 1825 4091 
L 703 3866 
L 703 4441 
L 1819 4666 
L 2450 4666 
L 2450 531 
L 3481 531 
L 3481 0 
L 794 0 
L 794 531 
z
" transform="scale(0.015625)"/>
       </defs>
       <use xlink:href="#DejaVuSans-31"/>
       <use xlink:href="#DejaVuSans-30" transform="translate(63.623047 0)"/>
       <use xlink:href="#DejaVuSans-30" transform="translate(127.246094 0)"/>
       <use xlink:href="#DejaVuSans-30" transform="translate(190.869141 0)"/>
       <use xlink:href="#DejaVuSans-30" transform="translate(254.492188 0)"/>
      </g>
     </g>
    </g>
    <g id="xtick_4">
     <g id="line2d_7">
      <path d="M 306.645219 390.04 
L 306.645219 10.8 
" clip-path="url(#p32edbd4963)" style="fill: none; stroke: #b0b0b0; stroke-width: 0.8; stroke-linecap: square"/>
     </g>
     <g id="line2d_8">
      <g>
       <use xlink:href="#ma3146c7e7f" x="306.645219" y="390.04" style="stroke: #000000; stroke-width: 0.8"/>
      </g>
     </g>
     <g id="text_4">
      <!-- 15000 -->
      <g transform="translate(290.738969 404.638438) scale(0.1 -0.1)">
       <use xlink:href="#DejaVuSans-31"/>
       <use xlink:href="#DejaVuSans-35" transform="translate(63.623047 0)"/>
       <use xlink:href="#DejaVuSans-30" transform="translate(127.246094 0)"/>
       <use xlink:href="#DejaVuSans-30" transform="translate(190.869141 0)"/>
       <use xlink:href="#DejaVuSans-30" transform="translate(254.492188 0)"/>
      </g>
     </g>
    </g>
    <g id="xtick_5">
     <g id="line2d_9">
      <path d="M 383.508896 390.04 
L 383.508896 10.8 
" clip-path="url(#p32edbd4963)" style="fill: none; stroke: #b0b0b0; stroke-width: 0.8; stroke-linecap: square"/>
     </g>
     <g id="line2d_10">
      <g>
       <use xlink:href="#ma3146c7e7f" x="383.508896" y="390.04" style="stroke: #000000; stroke-width: 0.8"/>
      </g>
     </g>
     <g id="text_5">
      <!-- 20000 -->
      <g transform="translate(367.602646 404.638438) scale(0.1 -0.1)">
       <defs>
        <path id="DejaVuSans-32" d="M 1228 531 
L 3431 531 
L 3431 0 
L 469 0 
L 469 531 
Q 828 903 1448 1529 
Q 2069 2156 2228 2338 
Q 2531 2678 2651 2914 
Q 2772 3150 2772 3378 
Q 2772 3750 2511 3984 
Q 2250 4219 1831 4219 
Q 1534 4219 1204 4116 
Q 875 4013 500 3803 
L 500 4441 
Q 881 4594 1212 4672 
Q 1544 4750 1819 4750 
Q 2544 4750 2975 4387 
Q 3406 4025 3406 3419 
Q 3406 3131 3298 2873 
Q 3191 2616 2906 2266 
Q 2828 2175 2409 1742 
Q 1991 1309 1228 531 
z
" transform="scale(0.015625)"/>
       </defs>
       <use xlink:href="#DejaVuSans-32"/>
       <use xlink:href="#DejaVuSans-30" transform="translate(63.623047 0)"/>
       <use xlink:href="#DejaVuSans-30" transform="translate(127.246094 0)"/>
       <use xlink:href="#DejaVuSans-30" transform="translate(190.869141 0)"/>
       <use xlink:href="#DejaVuSans-30" transform="translate(254.492188 0)"/>
      </g>
     </g>
    </g>
    <g id="xtick_6">
     <g id="line2d_11">
      <path d="M 460.372573 390.04 
L 460.372573 10.8 
" clip-path="url(#p32edbd4963)" style="fill: none; stroke: #b0b0b0; stroke-width: 0.8; stroke-linecap: square"/>
     </g>
     <g id="line2d_12">
      <g>
       <use xlink:href="#ma3146c7e7f" x="460.372573" y="390.04" style="stroke: #000000; stroke-width: 0.8"/>
      </g>
     </g>
     <g id="text_6">
      <!-- 25000 -->
      <g transform="translate(444.466323 404.638438) scale(0.1 -0.1)">
       <use xlink:href="#DejaVuSans-32"/>
       <use xlink:href="#DejaVuSans-35" transform="translate(63.623047 0)"/>
       <use xlink:href="#DejaVuSans-30" transform="translate(127.246094 0)"/>
       <use xlink:href="#DejaVuSans-30" transform="translate(190.869141 0)"/>
       <use xlink:href="#DejaVuSans-30" transform="translate(254.492188 0)"/>
      </g>
     </g>
    </g>
    <g id="xtick_7">
     <g id="line2d_13">
      <path d="M 537.23625 390.04 
L 537.23625 10.8 
" clip-path="url(#p32edbd4963)" style="fill: none; stroke: #b0b0b0; stroke-width: 0.8; stroke-linecap: square"/>
     </g>
     <g id="line2d_14">
      <g>
       <use xlink:href="#ma3146c7e7f" x="537.23625" y="390.04" style="stroke: #000000; stroke-width: 0.8"/>
      </g>
     </g>
     <g id="text_7">
      <!-- 30000 -->
      <g transform="translate(521.33 404.638438) scale(0.1 -0.1)">
       <defs>
        <path id="DejaVuSans-33" d="M 2597 2516 
Q 3050 2419 3304 2112 
Q 3559 1806 3559 1356 
Q 3559 666 3084 287 
Q 2609 -91 1734 -91 
Q 1441 -91 1130 -33 
Q 819 25 488 141 
L 488 750 
Q 750 597 1062 519 
Q 1375 441 1716 441 
Q 2309 441 2620 675 
Q 2931 909 2931 1356 
Q 2931 1769 2642 2001 
Q 2353 2234 1838 2234 
L 1294 2234 
L 1294 2753 
L 1863 2753 
Q 2328 2753 2575 2939 
Q 2822 3125 2822 3475 
Q 2822 3834 2567 4026 
Q 2313 4219 1838 4219 
Q 1578 4219 1281 4162 
Q 984 4106 628 3988 
L 628 4550 
Q 988 4650 1302 4700 
Q 1616 4750 1894 4750 
Q 2613 4750 3031 4423 
Q 3450 4097 3450 3541 
Q 3450 3153 3228 2886 
Q 3006 2619 2597 2516 
z
" transform="scale(0.015625)"/>
       </defs>
       <use xlink:href="#DejaVuSans-33"/>
       <use xlink:href="#DejaVuSans-30" transform="translate(63.623047 0)"/>
       <use xlink:href="#DejaVuSans-30" transform="translate(127.246094 0)"/>
       <use xlink:href="#DejaVuSans-30" transform="translate(190.869141 0)"/>
       <use xlink:href="#DejaVuSans-30" transform="translate(254.492188 0)"/>
      </g>
     </g>
    </g>
    <g id="xtick_8">
     <g id="line2d_15">
      <path d="M 614.099928 390.04 
L 614.099928 10.8 
" clip-path="url(#p32edbd4963)" style="fill: none; stroke: #b0b0b0; stroke-width: 0.8; stroke-linecap: square"/>
     </g>
     <g id="line2d_16">
      <g>
       <use xlink:href="#ma3146c7e7f" x="614.099928" y="390.04" style="stroke: #000000; stroke-width: 0.8"/>
      </g>
     </g>
     <g id="text_8">
      <!-- 35000 -->
      <g transform="translate(598.193678 404.638438) scale(0.1 -0.1)">
       <use xlink:href="#DejaVuSans-33"/>
       <use xlink:href="#DejaVuSans-35" transform="translate(63.623047 0)"/>
       <use xlink:href="#DejaVuSans-30" transform="translate(127.246094 0)"/>
       <use xlink:href="#DejaVuSans-30" transform="translate(190.869141 0)"/>
       <use xlink:href="#DejaVuSans-30" transform="translate(254.492188 0)"/>
      </g>
     </g>
    </g>
    <g id="xtick_9">
     <g id="line2d_17">
      <path d="M 690.963605 390.04 
L 690.963605 10.8 
" clip-path="url(#p32edbd4963)" style="fill: none; stroke: #b0b0b0; stroke-width: 0.8; stroke-linecap: square"/>
     </g>
     <g id="line2d_18">
      <g>
       <use xlink:href="#ma3146c7e7f" x="690.963605" y="390.04" style="stroke: #000000; stroke-width: 0.8"/>
      </g>
     </g>
     <g id="text_9">
      <!-- 40000 -->
      <g transform="translate(675.057355 404.638438) scale(0.1 -0.1)">
       <defs>
        <path id="DejaVuSans-34" d="M 2419 4116 
L 825 1625 
L 2419 1625 
L 2419 4116 
z
M 2253 4666 
L 3047 4666 
L 3047 1625 
L 3713 1625 
L 3713 1100 
L 3047 1100 
L 3047 0 
L 2419 0 
L 2419 1100 
L 313 1100 
L 313 1709 
L 2253 4666 
z
" transform="scale(0.015625)"/>
       </defs>
       <use xlink:href="#DejaVuSans-34"/>
       <use xlink:href="#DejaVuSans-30" transform="translate(63.623047 0)"/>
       <use xlink:href="#DejaVuSans-30" transform="translate(127.246094 0)"/>
       <use xlink:href="#DejaVuSans-30" transform="translate(190.869141 0)"/>
       <use xlink:href="#DejaVuSans-30" transform="translate(254.492188 0)"/>
      </g>
     </g>
    </g>
    <g id="text_10">
     <!-- Episodes -->
     <g transform="translate(355.132987 418.316562) scale(0.1 -0.1)">
      <defs>
       <path id="DejaVuSans-45" d="M 628 4666 
L 3578 4666 
L 3578 4134 
L 1259 4134 
L 1259 2753 
L 3481 2753 
L 3481 2222 
L 1259 2222 
L 1259 531 
L 3634 531 
L 3634 0 
L 628 0 
L 628 4666 
z
" transform="scale(0.015625)"/>
       <path id="DejaVuSans-70" d="M 1159 525 
L 1159 -1331 
L 581 -1331 
L 581 3500 
L 1159 3500 
L 1159 2969 
Q 1341 3281 1617 3432 
Q 1894 3584 2278 3584 
Q 2916 3584 3314 3078 
Q 3713 2572 3713 1747 
Q 3713 922 3314 415 
Q 2916 -91 2278 -91 
Q 1894 -91 1617 61 
Q 1341 213 1159 525 
z
M 3116 1747 
Q 3116 2381 2855 2742 
Q 2594 3103 2138 3103 
Q 1681 3103 1420 2742 
Q 1159 2381 1159 1747 
Q 1159 1113 1420 752 
Q 1681 391 2138 391 
Q 2594 391 2855 752 
Q 3116 1113 3116 1747 
z
" transform="scale(0.015625)"/>
       <path id="DejaVuSans-69" d="M 603 3500 
L 1178 3500 
L 1178 0 
L 603 0 
L 603 3500 
z
M 603 4863 
L 1178 4863 
L 1178 4134 
L 603 4134 
L 603 4863 
z
" transform="scale(0.015625)"/>
       <path id="DejaVuSans-73" d="M 2834 3397 
L 2834 2853 
Q 2591 2978 2328 3040 
Q 2066 3103 1784 3103 
Q 1356 3103 1142 2972 
Q 928 2841 928 2578 
Q 928 2378 1081 2264 
Q 1234 2150 1697 2047 
L 1894 2003 
Q 2506 1872 2764 1633 
Q 3022 1394 3022 966 
Q 3022 478 2636 193 
Q 2250 -91 1575 -91 
Q 1294 -91 989 -36 
Q 684 19 347 128 
L 347 722 
Q 666 556 975 473 
Q 1284 391 1588 391 
Q 1994 391 2212 530 
Q 2431 669 2431 922 
Q 2431 1156 2273 1281 
Q 2116 1406 1581 1522 
L 1381 1569 
Q 847 1681 609 1914 
Q 372 2147 372 2553 
Q 372 3047 722 3315 
Q 1072 3584 1716 3584 
Q 2034 3584 2315 3537 
Q 2597 3491 2834 3397 
z
" transform="scale(0.015625)"/>
       <path id="DejaVuSans-6f" d="M 1959 3097 
Q 1497 3097 1228 2736 
Q 959 2375 959 1747 
Q 959 1119 1226 758 
Q 1494 397 1959 397 
Q 2419 397 2687 759 
Q 2956 1122 2956 1747 
Q 2956 2369 2687 2733 
Q 2419 3097 1959 3097 
z
M 1959 3584 
Q 2709 3584 3137 3096 
Q 3566 2609 3566 1747 
Q 3566 888 3137 398 
Q 2709 -91 1959 -91 
Q 1206 -91 779 398 
Q 353 888 353 1747 
Q 353 2609 779 3096 
Q 1206 3584 1959 3584 
z
" transform="scale(0.015625)"/>
       <path id="DejaVuSans-64" d="M 2906 2969 
L 2906 4863 
L 3481 4863 
L 3481 0 
L 2906 0 
L 2906 525 
Q 2725 213 2448 61 
Q 2172 -91 1784 -91 
Q 1150 -91 751 415 
Q 353 922 353 1747 
Q 353 2572 751 3078 
Q 1150 3584 1784 3584 
Q 2172 3584 2448 3432 
Q 2725 3281 2906 2969 
z
M 947 1747 
Q 947 1113 1208 752 
Q 1469 391 1925 391 
Q 2381 391 2643 752 
Q 2906 1113 2906 1747 
Q 2906 2381 2643 2742 
Q 2381 3103 1925 3103 
Q 1469 3103 1208 2742 
Q 947 2381 947 1747 
z
" transform="scale(0.015625)"/>
       <path id="DejaVuSans-65" d="M 3597 1894 
L 3597 1613 
L 953 1613 
Q 991 1019 1311 708 
Q 1631 397 2203 397 
Q 2534 397 2845 478 
Q 3156 559 3463 722 
L 3463 178 
Q 3153 47 2828 -22 
Q 2503 -91 2169 -91 
Q 1331 -91 842 396 
Q 353 884 353 1716 
Q 353 2575 817 3079 
Q 1281 3584 2069 3584 
Q 2775 3584 3186 3129 
Q 3597 2675 3597 1894 
z
M 3022 2063 
Q 3016 2534 2758 2815 
Q 2500 3097 2075 3097 
Q 1594 3097 1305 2825 
Q 1016 2553 972 2059 
L 3022 2063 
z
" transform="scale(0.015625)"/>
      </defs>
      <use xlink:href="#DejaVuSans-45"/>
      <use xlink:href="#DejaVuSans-70" transform="translate(63.183594 0)"/>
      <use xlink:href="#DejaVuSans-69" transform="translate(126.660156 0)"/>
      <use xlink:href="#DejaVuSans-73" transform="translate(154.443359 0)"/>
      <use xlink:href="#DejaVuSans-6f" transform="translate(206.542969 0)"/>
      <use xlink:href="#DejaVuSans-64" transform="translate(267.724609 0)"/>
      <use xlink:href="#DejaVuSans-65" transform="translate(331.201172 0)"/>
      <use xlink:href="#DejaVuSans-73" transform="translate(392.724609 0)"/>
     </g>
    </g>
   </g>
   <g id="matplotlib.axis_2">
    <g id="ytick_1">
     <g id="line2d_19">
      <path d="M 47.63 368.124701 
L 707.12035 368.124701 
" clip-path="url(#p32edbd4963)" style="fill: none; stroke: #b0b0b0; stroke-width: 0.8; stroke-linecap: square"/>
     </g>
     <g id="line2d_20">
      <defs>
       <path id="m9a893c10f9" d="M 0 0 
L -3.5 0 
" style="stroke: #000000; stroke-width: 0.8"/>
      </defs>
      <g>
       <use xlink:href="#m9a893c10f9" x="47.63" y="368.124701" style="stroke: #000000; stroke-width: 0.8"/>
      </g>
     </g>
     <g id="text_11">
      <!-- 2.0 -->
      <g transform="translate(24.726875 371.923919) scale(0.1 -0.1)">
       <defs>
        <path id="DejaVuSans-2e" d="M 684 794 
L 1344 794 
L 1344 0 
L 684 0 
L 684 794 
z
" transform="scale(0.015625)"/>
       </defs>
       <use xlink:href="#DejaVuSans-32"/>
       <use xlink:href="#DejaVuSans-2e" transform="translate(63.623047 0)"/>
       <use xlink:href="#DejaVuSans-30" transform="translate(95.410156 0)"/>
      </g>
     </g>
    </g>
    <g id="ytick_2">
     <g id="line2d_21">
      <path d="M 47.63 313.904505 
L 707.12035 313.904505 
" clip-path="url(#p32edbd4963)" style="fill: none; stroke: #b0b0b0; stroke-width: 0.8; stroke-linecap: square"/>
     </g>
     <g id="line2d_22">
      <g>
       <use xlink:href="#m9a893c10f9" x="47.63" y="313.904505" style="stroke: #000000; stroke-width: 0.8"/>
      </g>
     </g>
     <g id="text_12">
      <!-- 2.5 -->
      <g transform="translate(24.726875 317.703724) scale(0.1 -0.1)">
       <use xlink:href="#DejaVuSans-32"/>
       <use xlink:href="#DejaVuSans-2e" transform="translate(63.623047 0)"/>
       <use xlink:href="#DejaVuSans-35" transform="translate(95.410156 0)"/>
      </g>
     </g>
    </g>
    <g id="ytick_3">
     <g id="line2d_23">
      <path d="M 47.63 259.68431 
L 707.12035 259.68431 
" clip-path="url(#p32edbd4963)" style="fill: none; stroke: #b0b0b0; stroke-width: 0.8; stroke-linecap: square"/>
     </g>
     <g id="line2d_24">
      <g>
       <use xlink:href="#m9a893c10f9" x="47.63" y="259.68431" style="stroke: #000000; stroke-width: 0.8"/>
      </g>
     </g>
     <g id="text_13">
      <!-- 3.0 -->
      <g transform="translate(24.726875 263.483528) scale(0.1 -0.1)">
       <use xlink:href="#DejaVuSans-33"/>
       <use xlink:href="#DejaVuSans-2e" transform="translate(63.623047 0)"/>
       <use xlink:href="#DejaVuSans-30" transform="translate(95.410156 0)"/>
      </g>
     </g>
    </g>
    <g id="ytick_4">
     <g id="line2d_25">
      <path d="M 47.63 205.464114 
L 707.12035 205.464114 
" clip-path="url(#p32edbd4963)" style="fill: none; stroke: #b0b0b0; stroke-width: 0.8; stroke-linecap: square"/>
     </g>
     <g id="line2d_26">
      <g>
       <use xlink:href="#m9a893c10f9" x="47.63" y="205.464114" style="stroke: #000000; stroke-width: 0.8"/>
      </g>
     </g>
     <g id="text_14">
      <!-- 3.5 -->
      <g transform="translate(24.726875 209.263333) scale(0.1 -0.1)">
       <use xlink:href="#DejaVuSans-33"/>
       <use xlink:href="#DejaVuSans-2e" transform="translate(63.623047 0)"/>
       <use xlink:href="#DejaVuSans-35" transform="translate(95.410156 0)"/>
      </g>
     </g>
    </g>
    <g id="ytick_5">
     <g id="line2d_27">
      <path d="M 47.63 151.243919 
L 707.12035 151.243919 
" clip-path="url(#p32edbd4963)" style="fill: none; stroke: #b0b0b0; stroke-width: 0.8; stroke-linecap: square"/>
     </g>
     <g id="line2d_28">
      <g>
       <use xlink:href="#m9a893c10f9" x="47.63" y="151.243919" style="stroke: #000000; stroke-width: 0.8"/>
      </g>
     </g>
     <g id="text_15">
      <!-- 4.0 -->
      <g transform="translate(24.726875 155.043137) scale(0.1 -0.1)">
       <use xlink:href="#DejaVuSans-34"/>
       <use xlink:href="#DejaVuSans-2e" transform="translate(63.623047 0)"/>
       <use xlink:href="#DejaVuSans-30" transform="translate(95.410156 0)"/>
      </g>
     </g>
    </g>
    <g id="ytick_6">
     <g id="line2d_29">
      <path d="M 47.63 97.023723 
L 707.12035 97.023723 
" clip-path="url(#p32edbd4963)" style="fill: none; stroke: #b0b0b0; stroke-width: 0.8; stroke-linecap: square"/>
     </g>
     <g id="line2d_30">
      <g>
       <use xlink:href="#m9a893c10f9" x="47.63" y="97.023723" style="stroke: #000000; stroke-width: 0.8"/>
      </g>
     </g>
     <g id="text_16">
      <!-- 4.5 -->
      <g transform="translate(24.726875 100.822942) scale(0.1 -0.1)">
       <use xlink:href="#DejaVuSans-34"/>
       <use xlink:href="#DejaVuSans-2e" transform="translate(63.623047 0)"/>
       <use xlink:href="#DejaVuSans-35" transform="translate(95.410156 0)"/>
      </g>
     </g>
    </g>
    <g id="ytick_7">
     <g id="line2d_31">
      <path d="M 47.63 42.803528 
L 707.12035 42.803528 
" clip-path="url(#p32edbd4963)" style="fill: none; stroke: #b0b0b0; stroke-width: 0.8; stroke-linecap: square"/>
     </g>
     <g id="line2d_32">
      <g>
       <use xlink:href="#m9a893c10f9" x="47.63" y="42.803528" style="stroke: #000000; stroke-width: 0.8"/>
      </g>
     </g>
     <g id="text_17">
      <!-- 5.0 -->
      <g transform="translate(24.726875 46.602747) scale(0.1 -0.1)">
       <use xlink:href="#DejaVuSans-35"/>
       <use xlink:href="#DejaVuSans-2e" transform="translate(63.623047 0)"/>
       <use xlink:href="#DejaVuSans-30" transform="translate(95.410156 0)"/>
      </g>
     </g>
    </g>
    <g id="text_18">
     <!-- Circuit Depth -->
     <g transform="translate(18.647187 233.329375) rotate(-90) scale(0.1 -0.1)">
      <defs>
       <path id="DejaVuSans-43" d="M 4122 4306 
L 4122 3641 
Q 3803 3938 3442 4084 
Q 3081 4231 2675 4231 
Q 1875 4231 1450 3742 
Q 1025 3253 1025 2328 
Q 1025 1406 1450 917 
Q 1875 428 2675 428 
Q 3081 428 3442 575 
Q 3803 722 4122 1019 
L 4122 359 
Q 3791 134 3420 21 
Q 3050 -91 2638 -91 
Q 1578 -91 968 557 
Q 359 1206 359 2328 
Q 359 3453 968 4101 
Q 1578 4750 2638 4750 
Q 3056 4750 3426 4639 
Q 3797 4528 4122 4306 
z
" transform="scale(0.015625)"/>
       <path id="DejaVuSans-72" d="M 2631 2963 
Q 2534 3019 2420 3045 
Q 2306 3072 2169 3072 
Q 1681 3072 1420 2755 
Q 1159 2438 1159 1844 
L 1159 0 
L 581 0 
L 581 3500 
L 1159 3500 
L 1159 2956 
Q 1341 3275 1631 3429 
Q 1922 3584 2338 3584 
Q 2397 3584 2469 3576 
Q 2541 3569 2628 3553 
L 2631 2963 
z
" transform="scale(0.015625)"/>
       <path id="DejaVuSans-63" d="M 3122 3366 
L 3122 2828 
Q 2878 2963 2633 3030 
Q 2388 3097 2138 3097 
Q 1578 3097 1268 2742 
Q 959 2388 959 1747 
Q 959 1106 1268 751 
Q 1578 397 2138 397 
Q 2388 397 2633 464 
Q 2878 531 3122 666 
L 3122 134 
Q 2881 22 2623 -34 
Q 2366 -91 2075 -91 
Q 1284 -91 818 406 
Q 353 903 353 1747 
Q 353 2603 823 3093 
Q 1294 3584 2113 3584 
Q 2378 3584 2631 3529 
Q 2884 3475 3122 3366 
z
" transform="scale(0.015625)"/>
       <path id="DejaVuSans-75" d="M 544 1381 
L 544 3500 
L 1119 3500 
L 1119 1403 
Q 1119 906 1312 657 
Q 1506 409 1894 409 
Q 2359 409 2629 706 
Q 2900 1003 2900 1516 
L 2900 3500 
L 3475 3500 
L 3475 0 
L 2900 0 
L 2900 538 
Q 2691 219 2414 64 
Q 2138 -91 1772 -91 
Q 1169 -91 856 284 
Q 544 659 544 1381 
z
M 1991 3584 
L 1991 3584 
z
" transform="scale(0.015625)"/>
       <path id="DejaVuSans-74" d="M 1172 4494 
L 1172 3500 
L 2356 3500 
L 2356 3053 
L 1172 3053 
L 1172 1153 
Q 1172 725 1289 603 
Q 1406 481 1766 481 
L 2356 481 
L 2356 0 
L 1766 0 
Q 1100 0 847 248 
Q 594 497 594 1153 
L 594 3053 
L 172 3053 
L 172 3500 
L 594 3500 
L 594 4494 
L 1172 4494 
z
" transform="scale(0.015625)"/>
       <path id="DejaVuSans-20" transform="scale(0.015625)"/>
       <path id="DejaVuSans-44" d="M 1259 4147 
L 1259 519 
L 2022 519 
Q 2988 519 3436 956 
Q 3884 1394 3884 2338 
Q 3884 3275 3436 3711 
Q 2988 4147 2022 4147 
L 1259 4147 
z
M 628 4666 
L 1925 4666 
Q 3281 4666 3915 4102 
Q 4550 3538 4550 2338 
Q 4550 1131 3912 565 
Q 3275 0 1925 0 
L 628 0 
L 628 4666 
z
" transform="scale(0.015625)"/>
       <path id="DejaVuSans-68" d="M 3513 2113 
L 3513 0 
L 2938 0 
L 2938 2094 
Q 2938 2591 2744 2837 
Q 2550 3084 2163 3084 
Q 1697 3084 1428 2787 
Q 1159 2491 1159 1978 
L 1159 0 
L 581 0 
L 581 4863 
L 1159 4863 
L 1159 2956 
Q 1366 3272 1645 3428 
Q 1925 3584 2291 3584 
Q 2894 3584 3203 3211 
Q 3513 2838 3513 2113 
z
" transform="scale(0.015625)"/>
      </defs>
      <use xlink:href="#DejaVuSans-43"/>
      <use xlink:href="#DejaVuSans-69" transform="translate(69.824219 0)"/>
      <use xlink:href="#DejaVuSans-72" transform="translate(97.607422 0)"/>
      <use xlink:href="#DejaVuSans-63" transform="translate(136.470703 0)"/>
      <use xlink:href="#DejaVuSans-75" transform="translate(191.451172 0)"/>
      <use xlink:href="#DejaVuSans-69" transform="translate(254.830078 0)"/>
      <use xlink:href="#DejaVuSans-74" transform="translate(282.613281 0)"/>
      <use xlink:href="#DejaVuSans-20" transform="translate(321.822266 0)"/>
      <use xlink:href="#DejaVuSans-44" transform="translate(353.609375 0)"/>
      <use xlink:href="#DejaVuSans-65" transform="translate(430.611328 0)"/>
      <use xlink:href="#DejaVuSans-70" transform="translate(492.134766 0)"/>
      <use xlink:href="#DejaVuSans-74" transform="translate(555.611328 0)"/>
      <use xlink:href="#DejaVuSans-68" transform="translate(594.820312 0)"/>
     </g>
    </g>
   </g>
   <g id="line2d_33">
    <path d="M 77.606834 193.354937 
L 80.681381 198.776957 
L 83.755928 185.944844 
L 86.830475 196.788883 
L 89.905022 224.802651 
L 92.979569 227.332926 
L 96.054117 218.476961 
L 99.128664 226.067788 
L 102.203211 221.007237 
L 105.277758 224.983385 
L 108.352305 212.151272 
L 111.426852 206.548518 
L 114.501399 200.222829 
L 117.575946 186.125578 
L 120.650493 183.414568 
L 123.72504 183.595302 
L 126.799587 178.53475 
L 129.874135 198.415489 
L 132.948682 194.077873 
L 136.023229 197.150351 
L 139.097776 203.656774 
L 142.172323 209.259528 
L 145.24687 208.175124 
L 148.321417 211.60907 
L 151.395964 214.320079 
L 154.470511 217.392557 
L 157.545058 217.573291 
L 160.619605 213.597144 
L 163.694152 217.573291 
L 166.7687 219.922833 
L 169.843247 218.296227 
L 172.917794 222.995311 
L 175.992341 220.465035 
L 179.066888 220.284301 
L 182.141435 219.561365 
L 185.215982 219.922833 
L 188.290529 221.549439 
L 191.365076 221.007237 
L 194.439623 221.730173 
L 197.51417 221.368705 
L 203.663265 218.838429 
L 206.737812 220.465035 
L 209.812359 223.176045 
L 212.886906 221.910907 
L 215.961453 219.742099 
L 219.036 220.826503 
L 222.110547 213.597144 
L 225.185094 220.284301 
L 228.259641 220.645769 
L 231.334188 222.814577 
L 234.408735 220.645769 
L 240.55783 219.561365 
L 243.632377 217.211823 
L 246.706924 217.754025 
L 249.781471 214.862281 
L 252.856018 202.210902 
L 255.930565 195.523745 
L 259.005112 211.60907 
L 262.079659 217.573291 
L 265.154206 195.885213 
L 268.228753 201.487967 
L 271.3033 215.765951 
L 274.377847 231.12834 
L 277.452395 231.851276 
L 280.526942 224.079715 
L 283.601489 226.60999 
L 286.676036 228.236596 
L 289.750583 222.272375 
L 292.82513 223.898981 
L 295.899677 227.152192 
L 298.974224 221.187971 
L 302.048771 206.729252 
L 305.123318 189.559524 
L 308.197865 201.307233 
L 311.272413 213.958611 
L 314.34696 212.693474 
L 317.421507 214.681547 
L 320.496054 211.60907 
L 323.570601 221.910907 
L 326.645148 226.248522 
L 329.719695 224.079715 
L 332.794242 217.754025 
L 335.868789 216.308153 
L 338.943336 217.211823 
L 342.017883 218.657695 
L 348.166978 219.742099 
L 351.241525 219.380631 
L 354.316072 222.995311 
L 357.390619 219.380631 
L 360.465166 219.742099 
L 363.539713 216.850355 
L 366.61426 211.428336 
L 369.688807 217.573291 
L 372.763354 216.127419 
L 375.837901 216.308153 
L 378.912448 216.850355 
L 381.986995 216.669621 
L 385.061543 217.392557 
L 388.13609 219.199897 
L 391.210637 218.476961 
L 394.285184 220.465035 
L 397.359731 217.934759 
L 400.434278 217.754025 
L 403.508825 230.586138 
L 406.583372 226.971458 
L 409.657919 219.199897 
L 412.732466 217.934759 
L 415.807013 215.043015 
L 418.88156 215.223749 
L 421.956108 218.838429 
L 425.030655 218.296227 
L 428.105202 218.115493 
L 431.179749 211.066868 
L 434.254296 214.862281 
L 437.328843 217.031089 
L 440.40339 215.946685 
L 443.477937 213.054942 
L 446.552484 216.850355 
L 449.627031 219.561365 
L 455.776125 221.730173 
L 458.850673 263.479723 
L 461.92522 224.260449 
L 464.999767 219.742099 
L 468.074314 217.031089 
L 471.148861 215.404483 
L 474.223408 212.51274 
L 477.297955 215.404483 
L 480.372502 219.019163 
L 483.447049 218.657695 
L 486.521596 215.585217 
L 489.596143 207.271454 
L 492.67069 217.392557 
L 495.745238 221.368705 
L 498.819785 222.272375 
L 501.894332 222.633843 
L 504.968879 222.633843 
L 508.043426 222.814577 
L 511.117973 221.910907 
L 514.19252 211.970538 
L 517.267067 209.620996 
L 523.416161 222.091641 
L 526.490708 214.681547 
L 529.565256 218.838429 
L 532.639803 220.465035 
L 535.71435 217.211823 
L 538.788897 222.272375 
L 541.863444 223.537513 
L 544.937991 221.187971 
L 548.012538 221.910907 
L 551.087085 222.814577 
L 554.161632 222.633843 
L 557.236179 222.814577 
L 560.310726 222.272375 
L 563.385273 221.910907 
L 566.459821 222.633843 
L 569.534368 222.814577 
L 572.608915 223.537513 
L 575.683462 221.187971 
L 578.758009 222.633843 
L 581.832556 223.356779 
L 584.907103 222.633843 
L 587.98165 218.115493 
L 591.056197 218.476961 
L 594.130744 260.768714 
L 597.205291 221.910907 
L 600.279838 221.910907 
L 603.354386 216.127419 
L 606.428933 217.031089 
L 609.50348 217.754025 
L 612.578027 218.296227 
L 615.652574 219.380631 
L 618.727121 222.272375 
L 621.801668 221.730173 
L 624.876215 231.309074 
L 627.950762 229.863202 
L 631.025309 222.995311 
L 634.099856 216.488887 
L 637.174403 222.091641 
L 640.248951 222.995311 
L 643.323498 223.718247 
L 646.398045 220.645769 
L 649.472592 220.645769 
L 652.547139 221.549439 
L 655.621686 218.657695 
L 658.696233 219.561365 
L 661.77078 222.814577 
L 664.845327 224.079715 
L 667.919874 218.838429 
L 670.994421 219.199897 
L 674.068968 221.549439 
L 677.143516 221.549439 
L 677.143516 221.549439 
" clip-path="url(#p32edbd4963)" style="fill: none; stroke: #1f77b4; stroke-width: 1.5; stroke-linecap: square"/>
   </g>
   <g id="patch_3">
    <path d="M 47.63 390.04 
L 47.63 10.8 
" style="fill: none; stroke: #000000; stroke-width: 0.8; stroke-linejoin: miter; stroke-linecap: square"/>
   </g>
   <g id="patch_4">
    <path d="M 707.12035 390.04 
L 707.12035 10.8 
" style="fill: none; stroke: #000000; stroke-width: 0.8; stroke-linejoin: miter; stroke-linecap: square"/>
   </g>
   <g id="patch_5">
    <path d="M 47.63 390.04 
L 707.12035 390.04 
" style="fill: none; stroke: #000000; stroke-width: 0.8; stroke-linejoin: miter; stroke-linecap: square"/>
   </g>
   <g id="patch_6">
    <path d="M 47.63 10.8 
L 707.12035 10.8 
" style="fill: none; stroke: #000000; stroke-width: 0.8; stroke-linejoin: miter; stroke-linecap: square"/>
   </g>
  </g>
 </g>
 <defs>
  <clipPath id="p32edbd4963">
   <rect x="47.63" y="10.8" width="659.49035" height="379.24"/>
  </clipPath>
 </defs>
</svg>
