<?xml version="1.0" encoding="utf-8" standalone="no"?>
<!DOCTYPE svg PUBLIC "-//W3C//DTD SVG 1.1//EN"
  "http://www.w3.org/Graphics/SVG/1.1/DTD/svg11.dtd">
<svg xmlns:xlink="http://www.w3.org/1999/xlink" width="720pt" height="432pt" viewBox="0 0 720 432" xmlns="http://www.w3.org/2000/svg" version="1.1">
 <metadata>
  <rdf:RDF xmlns:dc="http://purl.org/dc/elements/1.1/" xmlns:cc="http://creativecommons.org/ns#" xmlns:rdf="http://www.w3.org/1999/02/22-rdf-syntax-ns#">
   <cc:Work>
    <dc:type rdf:resource="http://purl.org/dc/dcmitype/StillImage"/>
    <dc:date>2025-04-15T15:45:07.613600</dc:date>
    <dc:format>image/svg+xml</dc:format>
    <dc:creator>
     <cc:Agent>
      <dc:title>Matplotlib v3.10.0, https://matplotlib.org/</dc:title>
     </cc:Agent>
    </dc:creator>
   </cc:Work>
  </rdf:RDF>
 </metadata>
 <defs>
  <style type="text/css">*{stroke-linejoin: round; stroke-linecap: butt}</style>
 </defs>
 <g id="figure_1">
  <g id="patch_1">
   <path d="M 0 432 
L 720 432 
L 720 0 
L 0 0 
z
" style="fill: #ffffff"/>
  </g>
  <g id="axes_1">
   <g id="patch_2">
    <path d="M 47.72 390.04 
L 707.12035 390.04 
L 707.12035 10.8 
L 47.72 10.8 
z
" style="fill: #ffffff"/>
   </g>
   <g id="FillBetweenPolyCollection_1">
    <path d="M 77.692743 204.584475 
L 77.692743 372.801818 
L 80.766871 367.682369 
L 83.840998 363.497478 
L 86.915126 354.534054 
L 89.989253 359.286096 
L 93.063381 341.222573 
L 96.137508 346.322226 
L 99.211636 333.9137 
L 102.285763 335.640124 
L 105.359891 342.169906 
L 108.434018 332.549482 
L 111.508146 322.259871 
L 114.582273 310.447704 
L 117.656401 297.665583 
L 120.730528 283.22153 
L 123.804656 260.964846 
L 126.878783 244.62815 
L 129.952911 200.646966 
L 133.027038 146.327694 
L 136.101166 114.220269 
L 139.175293 74.510223 
L 142.249421 68.046337 
L 145.323548 60.454582 
L 148.397676 46.464083 
L 151.471803 52.015107 
L 154.545931 40.064712 
L 157.620058 42.491437 
L 160.694186 42.489657 
L 163.768313 50.35296 
L 166.842441 38.90085 
L 169.916568 38.231866 
L 172.990696 43.127223 
L 176.064823 32.288616 
L 179.138951 34.09505 
L 182.213078 34.945137 
L 185.287206 35.635832 
L 188.361333 33.994586 
L 191.435461 28.516356 
L 194.509588 33.032442 
L 197.583716 31.969833 
L 200.657843 32.81992 
L 203.731971 33.298094 
L 206.806098 35.104528 
L 209.880226 34.09683 
L 212.954353 33.510615 
L 216.028481 30.747833 
L 219.102608 31.226007 
L 222.176736 53.540785 
L 225.250863 39.514353 
L 228.324991 29.10079 
L 231.399118 34.360702 
L 234.473246 29.844616 
L 237.547373 33.510615 
L 240.621501 32.660529 
L 243.695628 29.153921 
L 246.769756 33.829398 
L 249.843883 30.163399 
L 252.918011 54.563902 
L 255.992138 56.503548 
L 259.066266 35.467325 
L 262.140393 35.529572 
L 265.214521 60.713299 
L 268.288648 59.130276 
L 271.362776 36.163757 
L 274.436903 61.499398 
L 277.511031 61.974067 
L 280.585158 48.654998 
L 283.659286 49.662264 
L 286.733413 67.27393 
L 289.807541 106.289913 
L 292.881668 77.909631 
L 295.955796 99.495792 
L 299.029923 93.321403 
L 302.104051 96.029187 
L 305.178178 103.546585 
L 308.252306 98.737273 
L 311.326433 100.828709 
L 314.400561 95.356011 
L 317.474688 91.496057 
L 320.548816 77.427903 
L 323.622944 100.412669 
L 326.697071 96.00798 
L 329.771199 78.83976 
L 332.845326 66.134357 
L 335.919454 58.306948 
L 338.993581 61.885682 
L 342.067709 58.232334 
L 345.141836 54.61015 
L 348.215964 55.12766 
L 351.290091 55.426039 
L 354.364219 55.735098 
L 357.438346 74.93858 
L 360.512474 70.843764 
L 363.586601 78.975069 
L 366.660729 92.447986 
L 369.734856 83.628183 
L 372.808984 83.295236 
L 375.883111 87.817068 
L 378.957239 94.828812 
L 382.031366 95.511213 
L 385.105494 94.416759 
L 388.179621 102.499472 
L 391.253749 103.720085 
L 394.327876 102.030939 
L 397.402004 97.44947 
L 400.476131 102.256389 
L 403.550259 122.635375 
L 406.624386 114.350203 
L 409.698514 107.790138 
L 412.772641 111.365179 
L 415.846769 109.548496 
L 418.920896 110.472162 
L 421.995024 116.525643 
L 425.069151 113.022437 
L 428.143279 111.527773 
L 431.217406 114.748974 
L 434.291534 113.244611 
L 437.365661 115.006532 
L 440.439789 110.476366 
L 443.513916 95.912234 
L 446.588044 100.18808 
L 449.662171 90.151767 
L 452.736299 89.283423 
L 455.810426 95.751805 
L 458.884554 233.434938 
L 461.958681 105.306689 
L 465.032809 99.066392 
L 468.106936 121.781879 
L 471.181064 108.244473 
L 474.255191 109.99323 
L 477.329319 107.693457 
L 480.403446 100.81591 
L 483.477574 102.551122 
L 486.551701 105.335899 
L 489.625829 122.187827 
L 492.699956 108.674979 
L 495.774084 100.5724 
L 498.848211 101.202204 
L 501.922339 100.472938 
L 504.996466 103.1846 
L 508.070594 101.303768 
L 511.144721 104.751631 
L 514.218849 113.737012 
L 517.292976 112.810771 
L 520.367104 104.667148 
L 523.441231 101.796177 
L 526.515359 106.860654 
L 529.589486 104.889567 
L 532.663614 102.007843 
L 535.737741 100.142276 
L 538.811869 99.230503 
L 541.885996 100.800107 
L 544.960124 99.881388 
L 548.034251 102.115719 
L 551.108379 96.642854 
L 554.182506 98.057144 
L 557.256634 99.836923 
L 560.330761 97.758485 
L 563.404889 99.711123 
L 566.479016 98.792197 
L 569.553144 100.61434 
L 572.627271 101.158832 
L 575.701399 99.265554 
L 578.775526 100.043093 
L 581.849654 102.791527 
L 584.923781 101.497762 
L 587.997909 93.826834 
L 591.072036 100.282721 
L 594.146164 159.796176 
L 597.220291 104.021619 
L 600.294419 107.29122 
L 603.368546 85.183359 
L 606.442674 87.475272 
L 609.516801 92.564891 
L 612.590929 93.61356 
L 615.665056 98.584108 
L 618.739184 100.442513 
L 621.813311 95.292095 
L 624.887439 131.542264 
L 627.961566 119.816605 
L 631.035694 103.28367 
L 634.109821 98.00756 
L 637.183949 98.972039 
L 640.258076 93.335472 
L 643.332204 101.216746 
L 646.406331 98.917523 
L 649.480459 101.774392 
L 652.554586 102.881241 
L 655.628714 149.472508 
L 658.702841 107.576105 
L 661.776969 101.749759 
L 664.851096 106.407986 
L 667.925224 96.297209 
L 670.999351 97.725575 
L 674.073479 99.724311 
L 677.147606 102.469573 
L 677.147606 28.038182 
L 677.147606 28.038182 
L 674.073479 28.038182 
L 670.999351 28.038182 
L 667.925224 28.038182 
L 664.851096 28.038182 
L 661.776969 28.038182 
L 658.702841 28.038182 
L 655.628714 28.700589 
L 652.554586 28.038182 
L 649.480459 28.038182 
L 646.406331 28.038182 
L 643.332204 28.038182 
L 640.258076 28.038182 
L 637.183949 28.038182 
L 634.109821 28.038182 
L 631.035694 28.038182 
L 627.961566 28.038182 
L 624.887439 32.017958 
L 621.813311 28.038182 
L 618.739184 28.038182 
L 615.665056 28.038182 
L 612.590929 28.038182 
L 609.516801 28.038182 
L 606.442674 28.038182 
L 603.368546 28.038182 
L 600.294419 28.038182 
L 597.220291 28.038182 
L 594.146164 30.21687 
L 591.072036 28.038182 
L 587.997909 28.038182 
L 584.923781 28.038182 
L 581.849654 28.038182 
L 578.775526 28.038182 
L 575.701399 28.038182 
L 572.627271 28.038182 
L 569.553144 28.038182 
L 566.479016 28.038182 
L 563.404889 28.038182 
L 560.330761 28.038182 
L 557.256634 28.038182 
L 554.182506 28.038182 
L 551.108379 28.038182 
L 548.034251 28.038182 
L 544.960124 28.038182 
L 541.885996 28.038182 
L 538.811869 28.038182 
L 535.737741 28.038182 
L 532.663614 28.038182 
L 529.589486 28.038182 
L 526.515359 28.038182 
L 523.441231 28.038182 
L 520.367104 28.038182 
L 517.292976 32.087225 
L 514.218849 33.889894 
L 511.144721 33.632191 
L 508.070594 28.038182 
L 504.996466 28.038182 
L 501.922339 28.038182 
L 498.848211 28.038182 
L 495.774084 28.038182 
L 492.699956 28.038182 
L 489.625829 28.038182 
L 486.551701 28.038182 
L 483.477574 28.038182 
L 480.403446 28.038182 
L 477.329319 28.038182 
L 474.255191 28.038182 
L 471.181064 28.038182 
L 468.106936 29.322187 
L 465.032809 28.038182 
L 461.958681 28.038182 
L 458.884554 28.038182 
L 455.810426 28.038182 
L 452.736299 28.038182 
L 449.662171 28.038182 
L 446.588044 28.038182 
L 443.513916 28.038182 
L 440.439789 28.479647 
L 437.365661 28.038182 
L 434.291534 33.193898 
L 431.217406 33.538152 
L 428.143279 31.65365 
L 425.069151 34.560454 
L 421.995024 37.659451 
L 418.920896 35.438172 
L 415.846769 32.268472 
L 412.772641 32.388435 
L 409.698514 30.153538 
L 406.624386 34.024953 
L 403.550259 37.403672 
L 400.476131 28.038182 
L 397.402004 28.038182 
L 394.327876 28.038182 
L 391.253749 28.038182 
L 388.179621 28.038182 
L 385.105494 28.038182 
L 382.031366 28.038182 
L 378.957239 28.038182 
L 375.883111 28.038182 
L 372.808984 28.038182 
L 369.734856 28.038182 
L 366.660729 30.618726 
L 363.586601 28.038182 
L 360.512474 28.038182 
L 357.438346 28.038182 
L 354.364219 28.038182 
L 351.290091 28.038182 
L 348.215964 28.038182 
L 345.141836 28.038182 
L 342.067709 28.038182 
L 338.993581 28.038182 
L 335.919454 28.038182 
L 332.845326 28.038182 
L 329.771199 28.038182 
L 326.697071 28.038182 
L 323.622944 28.038182 
L 320.548816 28.038182 
L 317.474688 28.038182 
L 314.400561 28.038182 
L 311.326433 29.236338 
L 308.252306 28.202732 
L 305.178178 30.25971 
L 302.104051 28.038182 
L 299.029923 28.038182 
L 295.955796 28.038182 
L 292.881668 28.038182 
L 289.807541 28.038182 
L 286.733413 28.038182 
L 283.659286 28.038182 
L 280.585158 28.038182 
L 277.511031 28.038182 
L 274.436903 28.038182 
L 271.362776 28.038182 
L 268.288648 28.038182 
L 265.214521 28.038182 
L 262.140393 28.038182 
L 259.066266 28.038182 
L 255.992138 28.038182 
L 252.918011 28.038182 
L 249.843883 28.038182 
L 246.769756 28.038182 
L 243.695628 28.038182 
L 240.621501 28.038182 
L 237.547373 28.038182 
L 234.473246 28.038182 
L 231.399118 28.038182 
L 228.324991 28.038182 
L 225.250863 28.038182 
L 222.176736 28.038182 
L 219.102608 28.038182 
L 216.028481 28.038182 
L 212.954353 28.038182 
L 209.880226 28.038182 
L 206.806098 28.038182 
L 203.731971 28.038182 
L 200.657843 28.038182 
L 197.583716 28.038182 
L 194.509588 28.038182 
L 191.435461 28.038182 
L 188.361333 28.038182 
L 185.287206 28.038182 
L 182.213078 28.038182 
L 179.138951 28.038182 
L 176.064823 28.038182 
L 172.990696 28.038182 
L 169.916568 28.038182 
L 166.842441 28.038182 
L 163.768313 28.038182 
L 160.694186 28.038182 
L 157.620058 28.038182 
L 154.545931 28.038182 
L 151.471803 28.038182 
L 148.397676 28.038182 
L 145.323548 28.038182 
L 142.249421 28.038182 
L 139.175293 28.038182 
L 136.101166 28.038182 
L 133.027038 28.038182 
L 129.952911 34.349093 
L 126.878783 45.606338 
L 123.804656 62.588758 
L 120.730528 80.957628 
L 117.656401 98.51225 
L 114.582273 116.452379 
L 111.508146 133.821948 
L 108.434018 154.65072 
L 105.359891 161.535803 
L 102.285763 160.583087 
L 99.211636 170.056096 
L 96.137508 181.679589 
L 93.063381 177.888274 
L 89.989253 184.208889 
L 86.915126 190.941591 
L 83.840998 194.21425 
L 80.766871 201.165076 
L 77.692743 204.584475 
z
" clip-path="url(#pde3101cbdd)" style="fill: #1f77b4; fill-opacity: 0.2"/>
   </g>
   <g id="matplotlib.axis_1">
    <g id="xtick_1">
     <g id="line2d_1">
      <path d="M 76.140309 390.04 
L 76.140309 10.8 
" clip-path="url(#pde3101cbdd)" style="fill: none; stroke: #b0b0b0; stroke-width: 0.8; stroke-linecap: square"/>
     </g>
     <g id="line2d_2">
      <defs>
       <path id="m061607aec3" d="M 0 0 
L 0 3.5 
" style="stroke: #000000; stroke-width: 0.8"/>
      </defs>
      <g>
       <use xlink:href="#m061607aec3" x="76.140309" y="390.04" style="stroke: #000000; stroke-width: 0.8"/>
      </g>
     </g>
     <g id="text_1">
      <!-- 0 -->
      <g transform="translate(72.959059 404.638438) scale(0.1 -0.1)">
       <defs>
        <path id="DejaVuSans-30" d="M 2034 4250 
Q 1547 4250 1301 3770 
Q 1056 3291 1056 2328 
Q 1056 1369 1301 889 
Q 1547 409 2034 409 
Q 2525 409 2770 889 
Q 3016 1369 3016 2328 
Q 3016 3291 2770 3770 
Q 2525 4250 2034 4250 
z
M 2034 4750 
Q 2819 4750 3233 4129 
Q 3647 3509 3647 2328 
Q 3647 1150 3233 529 
Q 2819 -91 2034 -91 
Q 1250 -91 836 529 
Q 422 1150 422 2328 
Q 422 3509 836 4129 
Q 1250 4750 2034 4750 
z
" transform="scale(0.015625)"/>
       </defs>
       <use xlink:href="#DejaVuSans-30"/>
      </g>
     </g>
    </g>
    <g id="xtick_2">
     <g id="line2d_3">
      <path d="M 152.993496 390.04 
L 152.993496 10.8 
" clip-path="url(#pde3101cbdd)" style="fill: none; stroke: #b0b0b0; stroke-width: 0.8; stroke-linecap: square"/>
     </g>
     <g id="line2d_4">
      <g>
       <use xlink:href="#m061607aec3" x="152.993496" y="390.04" style="stroke: #000000; stroke-width: 0.8"/>
      </g>
     </g>
     <g id="text_2">
      <!-- 5000 -->
      <g transform="translate(140.268496 404.638438) scale(0.1 -0.1)">
       <defs>
        <path id="DejaVuSans-35" d="M 691 4666 
L 3169 4666 
L 3169 4134 
L 1269 4134 
L 1269 2991 
Q 1406 3038 1543 3061 
Q 1681 3084 1819 3084 
Q 2600 3084 3056 2656 
Q 3513 2228 3513 1497 
Q 3513 744 3044 326 
Q 2575 -91 1722 -91 
Q 1428 -91 1123 -41 
Q 819 9 494 109 
L 494 744 
Q 775 591 1075 516 
Q 1375 441 1709 441 
Q 2250 441 2565 725 
Q 2881 1009 2881 1497 
Q 2881 1984 2565 2268 
Q 2250 2553 1709 2553 
Q 1456 2553 1204 2497 
Q 953 2441 691 2322 
L 691 4666 
z
" transform="scale(0.015625)"/>
       </defs>
       <use xlink:href="#DejaVuSans-35"/>
       <use xlink:href="#DejaVuSans-30" transform="translate(63.623047 0)"/>
       <use xlink:href="#DejaVuSans-30" transform="translate(127.246094 0)"/>
       <use xlink:href="#DejaVuSans-30" transform="translate(190.869141 0)"/>
      </g>
     </g>
    </g>
    <g id="xtick_3">
     <g id="line2d_5">
      <path d="M 229.846684 390.04 
L 229.846684 10.8 
" clip-path="url(#pde3101cbdd)" style="fill: none; stroke: #b0b0b0; stroke-width: 0.8; stroke-linecap: square"/>
     </g>
     <g id="line2d_6">
      <g>
       <use xlink:href="#m061607aec3" x="229.846684" y="390.04" style="stroke: #000000; stroke-width: 0.8"/>
      </g>
     </g>
     <g id="text_3">
      <!-- 10000 -->
      <g transform="translate(213.940434 404.638438) scale(0.1 -0.1)">
       <defs>
        <path id="DejaVuSans-31" d="M 794 531 
L 1825 531 
L 1825 4091 
L 703 3866 
L 703 4441 
L 1819 4666 
L 2450 4666 
L 2450 531 
L 3481 531 
L 3481 0 
L 794 0 
L 794 531 
z
" transform="scale(0.015625)"/>
       </defs>
       <use xlink:href="#DejaVuSans-31"/>
       <use xlink:href="#DejaVuSans-30" transform="translate(63.623047 0)"/>
       <use xlink:href="#DejaVuSans-30" transform="translate(127.246094 0)"/>
       <use xlink:href="#DejaVuSans-30" transform="translate(190.869141 0)"/>
       <use xlink:href="#DejaVuSans-30" transform="translate(254.492188 0)"/>
      </g>
     </g>
    </g>
    <g id="xtick_4">
     <g id="line2d_7">
      <path d="M 306.699872 390.04 
L 306.699872 10.8 
" clip-path="url(#pde3101cbdd)" style="fill: none; stroke: #b0b0b0; stroke-width: 0.8; stroke-linecap: square"/>
     </g>
     <g id="line2d_8">
      <g>
       <use xlink:href="#m061607aec3" x="306.699872" y="390.04" style="stroke: #000000; stroke-width: 0.8"/>
      </g>
     </g>
     <g id="text_4">
      <!-- 15000 -->
      <g transform="translate(290.793622 404.638438) scale(0.1 -0.1)">
       <use xlink:href="#DejaVuSans-31"/>
       <use xlink:href="#DejaVuSans-35" transform="translate(63.623047 0)"/>
       <use xlink:href="#DejaVuSans-30" transform="translate(127.246094 0)"/>
       <use xlink:href="#DejaVuSans-30" transform="translate(190.869141 0)"/>
       <use xlink:href="#DejaVuSans-30" transform="translate(254.492188 0)"/>
      </g>
     </g>
    </g>
    <g id="xtick_5">
     <g id="line2d_9">
      <path d="M 383.553059 390.04 
L 383.553059 10.8 
" clip-path="url(#pde3101cbdd)" style="fill: none; stroke: #b0b0b0; stroke-width: 0.8; stroke-linecap: square"/>
     </g>
     <g id="line2d_10">
      <g>
       <use xlink:href="#m061607aec3" x="383.553059" y="390.04" style="stroke: #000000; stroke-width: 0.8"/>
      </g>
     </g>
     <g id="text_5">
      <!-- 20000 -->
      <g transform="translate(367.646809 404.638438) scale(0.1 -0.1)">
       <defs>
        <path id="DejaVuSans-32" d="M 1228 531 
L 3431 531 
L 3431 0 
L 469 0 
L 469 531 
Q 828 903 1448 1529 
Q 2069 2156 2228 2338 
Q 2531 2678 2651 2914 
Q 2772 3150 2772 3378 
Q 2772 3750 2511 3984 
Q 2250 4219 1831 4219 
Q 1534 4219 1204 4116 
Q 875 4013 500 3803 
L 500 4441 
Q 881 4594 1212 4672 
Q 1544 4750 1819 4750 
Q 2544 4750 2975 4387 
Q 3406 4025 3406 3419 
Q 3406 3131 3298 2873 
Q 3191 2616 2906 2266 
Q 2828 2175 2409 1742 
Q 1991 1309 1228 531 
z
" transform="scale(0.015625)"/>
       </defs>
       <use xlink:href="#DejaVuSans-32"/>
       <use xlink:href="#DejaVuSans-30" transform="translate(63.623047 0)"/>
       <use xlink:href="#DejaVuSans-30" transform="translate(127.246094 0)"/>
       <use xlink:href="#DejaVuSans-30" transform="translate(190.869141 0)"/>
       <use xlink:href="#DejaVuSans-30" transform="translate(254.492188 0)"/>
      </g>
     </g>
    </g>
    <g id="xtick_6">
     <g id="line2d_11">
      <path d="M 460.406247 390.04 
L 460.406247 10.8 
" clip-path="url(#pde3101cbdd)" style="fill: none; stroke: #b0b0b0; stroke-width: 0.8; stroke-linecap: square"/>
     </g>
     <g id="line2d_12">
      <g>
       <use xlink:href="#m061607aec3" x="460.406247" y="390.04" style="stroke: #000000; stroke-width: 0.8"/>
      </g>
     </g>
     <g id="text_6">
      <!-- 25000 -->
      <g transform="translate(444.499997 404.638438) scale(0.1 -0.1)">
       <use xlink:href="#DejaVuSans-32"/>
       <use xlink:href="#DejaVuSans-35" transform="translate(63.623047 0)"/>
       <use xlink:href="#DejaVuSans-30" transform="translate(127.246094 0)"/>
       <use xlink:href="#DejaVuSans-30" transform="translate(190.869141 0)"/>
       <use xlink:href="#DejaVuSans-30" transform="translate(254.492188 0)"/>
      </g>
     </g>
    </g>
    <g id="xtick_7">
     <g id="line2d_13">
      <path d="M 537.259434 390.04 
L 537.259434 10.8 
" clip-path="url(#pde3101cbdd)" style="fill: none; stroke: #b0b0b0; stroke-width: 0.8; stroke-linecap: square"/>
     </g>
     <g id="line2d_14">
      <g>
       <use xlink:href="#m061607aec3" x="537.259434" y="390.04" style="stroke: #000000; stroke-width: 0.8"/>
      </g>
     </g>
     <g id="text_7">
      <!-- 30000 -->
      <g transform="translate(521.353184 404.638438) scale(0.1 -0.1)">
       <defs>
        <path id="DejaVuSans-33" d="M 2597 2516 
Q 3050 2419 3304 2112 
Q 3559 1806 3559 1356 
Q 3559 666 3084 287 
Q 2609 -91 1734 -91 
Q 1441 -91 1130 -33 
Q 819 25 488 141 
L 488 750 
Q 750 597 1062 519 
Q 1375 441 1716 441 
Q 2309 441 2620 675 
Q 2931 909 2931 1356 
Q 2931 1769 2642 2001 
Q 2353 2234 1838 2234 
L 1294 2234 
L 1294 2753 
L 1863 2753 
Q 2328 2753 2575 2939 
Q 2822 3125 2822 3475 
Q 2822 3834 2567 4026 
Q 2313 4219 1838 4219 
Q 1578 4219 1281 4162 
Q 984 4106 628 3988 
L 628 4550 
Q 988 4650 1302 4700 
Q 1616 4750 1894 4750 
Q 2613 4750 3031 4423 
Q 3450 4097 3450 3541 
Q 3450 3153 3228 2886 
Q 3006 2619 2597 2516 
z
" transform="scale(0.015625)"/>
       </defs>
       <use xlink:href="#DejaVuSans-33"/>
       <use xlink:href="#DejaVuSans-30" transform="translate(63.623047 0)"/>
       <use xlink:href="#DejaVuSans-30" transform="translate(127.246094 0)"/>
       <use xlink:href="#DejaVuSans-30" transform="translate(190.869141 0)"/>
       <use xlink:href="#DejaVuSans-30" transform="translate(254.492188 0)"/>
      </g>
     </g>
    </g>
    <g id="xtick_8">
     <g id="line2d_15">
      <path d="M 614.112622 390.04 
L 614.112622 10.8 
" clip-path="url(#pde3101cbdd)" style="fill: none; stroke: #b0b0b0; stroke-width: 0.8; stroke-linecap: square"/>
     </g>
     <g id="line2d_16">
      <g>
       <use xlink:href="#m061607aec3" x="614.112622" y="390.04" style="stroke: #000000; stroke-width: 0.8"/>
      </g>
     </g>
     <g id="text_8">
      <!-- 35000 -->
      <g transform="translate(598.206372 404.638438) scale(0.1 -0.1)">
       <use xlink:href="#DejaVuSans-33"/>
       <use xlink:href="#DejaVuSans-35" transform="translate(63.623047 0)"/>
       <use xlink:href="#DejaVuSans-30" transform="translate(127.246094 0)"/>
       <use xlink:href="#DejaVuSans-30" transform="translate(190.869141 0)"/>
       <use xlink:href="#DejaVuSans-30" transform="translate(254.492188 0)"/>
      </g>
     </g>
    </g>
    <g id="xtick_9">
     <g id="line2d_17">
      <path d="M 690.96581 390.04 
L 690.96581 10.8 
" clip-path="url(#pde3101cbdd)" style="fill: none; stroke: #b0b0b0; stroke-width: 0.8; stroke-linecap: square"/>
     </g>
     <g id="line2d_18">
      <g>
       <use xlink:href="#m061607aec3" x="690.96581" y="390.04" style="stroke: #000000; stroke-width: 0.8"/>
      </g>
     </g>
     <g id="text_9">
      <!-- 40000 -->
      <g transform="translate(675.05956 404.638438) scale(0.1 -0.1)">
       <defs>
        <path id="DejaVuSans-34" d="M 2419 4116 
L 825 1625 
L 2419 1625 
L 2419 4116 
z
M 2253 4666 
L 3047 4666 
L 3047 1625 
L 3713 1625 
L 3713 1100 
L 3047 1100 
L 3047 0 
L 2419 0 
L 2419 1100 
L 313 1100 
L 313 1709 
L 2253 4666 
z
" transform="scale(0.015625)"/>
       </defs>
       <use xlink:href="#DejaVuSans-34"/>
       <use xlink:href="#DejaVuSans-30" transform="translate(63.623047 0)"/>
       <use xlink:href="#DejaVuSans-30" transform="translate(127.246094 0)"/>
       <use xlink:href="#DejaVuSans-30" transform="translate(190.869141 0)"/>
       <use xlink:href="#DejaVuSans-30" transform="translate(254.492188 0)"/>
      </g>
     </g>
    </g>
    <g id="text_10">
     <!-- Episodes -->
     <g transform="translate(355.177987 418.316562) scale(0.1 -0.1)">
      <defs>
       <path id="DejaVuSans-45" d="M 628 4666 
L 3578 4666 
L 3578 4134 
L 1259 4134 
L 1259 2753 
L 3481 2753 
L 3481 2222 
L 1259 2222 
L 1259 531 
L 3634 531 
L 3634 0 
L 628 0 
L 628 4666 
z
" transform="scale(0.015625)"/>
       <path id="DejaVuSans-70" d="M 1159 525 
L 1159 -1331 
L 581 -1331 
L 581 3500 
L 1159 3500 
L 1159 2969 
Q 1341 3281 1617 3432 
Q 1894 3584 2278 3584 
Q 2916 3584 3314 3078 
Q 3713 2572 3713 1747 
Q 3713 922 3314 415 
Q 2916 -91 2278 -91 
Q 1894 -91 1617 61 
Q 1341 213 1159 525 
z
M 3116 1747 
Q 3116 2381 2855 2742 
Q 2594 3103 2138 3103 
Q 1681 3103 1420 2742 
Q 1159 2381 1159 1747 
Q 1159 1113 1420 752 
Q 1681 391 2138 391 
Q 2594 391 2855 752 
Q 3116 1113 3116 1747 
z
" transform="scale(0.015625)"/>
       <path id="DejaVuSans-69" d="M 603 3500 
L 1178 3500 
L 1178 0 
L 603 0 
L 603 3500 
z
M 603 4863 
L 1178 4863 
L 1178 4134 
L 603 4134 
L 603 4863 
z
" transform="scale(0.015625)"/>
       <path id="DejaVuSans-73" d="M 2834 3397 
L 2834 2853 
Q 2591 2978 2328 3040 
Q 2066 3103 1784 3103 
Q 1356 3103 1142 2972 
Q 928 2841 928 2578 
Q 928 2378 1081 2264 
Q 1234 2150 1697 2047 
L 1894 2003 
Q 2506 1872 2764 1633 
Q 3022 1394 3022 966 
Q 3022 478 2636 193 
Q 2250 -91 1575 -91 
Q 1294 -91 989 -36 
Q 684 19 347 128 
L 347 722 
Q 666 556 975 473 
Q 1284 391 1588 391 
Q 1994 391 2212 530 
Q 2431 669 2431 922 
Q 2431 1156 2273 1281 
Q 2116 1406 1581 1522 
L 1381 1569 
Q 847 1681 609 1914 
Q 372 2147 372 2553 
Q 372 3047 722 3315 
Q 1072 3584 1716 3584 
Q 2034 3584 2315 3537 
Q 2597 3491 2834 3397 
z
" transform="scale(0.015625)"/>
       <path id="DejaVuSans-6f" d="M 1959 3097 
Q 1497 3097 1228 2736 
Q 959 2375 959 1747 
Q 959 1119 1226 758 
Q 1494 397 1959 397 
Q 2419 397 2687 759 
Q 2956 1122 2956 1747 
Q 2956 2369 2687 2733 
Q 2419 3097 1959 3097 
z
M 1959 3584 
Q 2709 3584 3137 3096 
Q 3566 2609 3566 1747 
Q 3566 888 3137 398 
Q 2709 -91 1959 -91 
Q 1206 -91 779 398 
Q 353 888 353 1747 
Q 353 2609 779 3096 
Q 1206 3584 1959 3584 
z
" transform="scale(0.015625)"/>
       <path id="DejaVuSans-64" d="M 2906 2969 
L 2906 4863 
L 3481 4863 
L 3481 0 
L 2906 0 
L 2906 525 
Q 2725 213 2448 61 
Q 2172 -91 1784 -91 
Q 1150 -91 751 415 
Q 353 922 353 1747 
Q 353 2572 751 3078 
Q 1150 3584 1784 3584 
Q 2172 3584 2448 3432 
Q 2725 3281 2906 2969 
z
M 947 1747 
Q 947 1113 1208 752 
Q 1469 391 1925 391 
Q 2381 391 2643 752 
Q 2906 1113 2906 1747 
Q 2906 2381 2643 2742 
Q 2381 3103 1925 3103 
Q 1469 3103 1208 2742 
Q 947 2381 947 1747 
z
" transform="scale(0.015625)"/>
       <path id="DejaVuSans-65" d="M 3597 1894 
L 3597 1613 
L 953 1613 
Q 991 1019 1311 708 
Q 1631 397 2203 397 
Q 2534 397 2845 478 
Q 3156 559 3463 722 
L 3463 178 
Q 3153 47 2828 -22 
Q 2503 -91 2169 -91 
Q 1331 -91 842 396 
Q 353 884 353 1716 
Q 353 2575 817 3079 
Q 1281 3584 2069 3584 
Q 2775 3584 3186 3129 
Q 3597 2675 3597 1894 
z
M 3022 2063 
Q 3016 2534 2758 2815 
Q 2500 3097 2075 3097 
Q 1594 3097 1305 2825 
Q 1016 2553 972 2059 
L 3022 2063 
z
" transform="scale(0.015625)"/>
      </defs>
      <use xlink:href="#DejaVuSans-45"/>
      <use xlink:href="#DejaVuSans-70" transform="translate(63.183594 0)"/>
      <use xlink:href="#DejaVuSans-69" transform="translate(126.660156 0)"/>
      <use xlink:href="#DejaVuSans-73" transform="translate(154.443359 0)"/>
      <use xlink:href="#DejaVuSans-6f" transform="translate(206.542969 0)"/>
      <use xlink:href="#DejaVuSans-64" transform="translate(267.724609 0)"/>
      <use xlink:href="#DejaVuSans-65" transform="translate(331.201172 0)"/>
      <use xlink:href="#DejaVuSans-73" transform="translate(392.724609 0)"/>
     </g>
    </g>
   </g>
   <g id="matplotlib.axis_2">
    <g id="ytick_1">
     <g id="line2d_19">
      <path d="M 47.72 384.557142 
L 707.12035 384.557142 
" clip-path="url(#pde3101cbdd)" style="fill: none; stroke: #b0b0b0; stroke-width: 0.8; stroke-linecap: square"/>
     </g>
     <g id="line2d_20">
      <defs>
       <path id="m2a43eea802" d="M 0 0 
L -3.5 0 
" style="stroke: #000000; stroke-width: 0.8"/>
      </defs>
      <g>
       <use xlink:href="#m2a43eea802" x="47.72" y="384.557142" style="stroke: #000000; stroke-width: 0.8"/>
      </g>
     </g>
     <g id="text_11">
      <!-- 0.4 -->
      <g transform="translate(24.816875 388.356361) scale(0.1 -0.1)">
       <defs>
        <path id="DejaVuSans-2e" d="M 684 794 
L 1344 794 
L 1344 0 
L 684 0 
L 684 794 
z
" transform="scale(0.015625)"/>
       </defs>
       <use xlink:href="#DejaVuSans-30"/>
       <use xlink:href="#DejaVuSans-2e" transform="translate(63.623047 0)"/>
       <use xlink:href="#DejaVuSans-34" transform="translate(95.410156 0)"/>
      </g>
     </g>
    </g>
    <g id="ytick_2">
     <g id="line2d_21">
      <path d="M 47.72 325.137315 
L 707.12035 325.137315 
" clip-path="url(#pde3101cbdd)" style="fill: none; stroke: #b0b0b0; stroke-width: 0.8; stroke-linecap: square"/>
     </g>
     <g id="line2d_22">
      <g>
       <use xlink:href="#m2a43eea802" x="47.72" y="325.137315" style="stroke: #000000; stroke-width: 0.8"/>
      </g>
     </g>
     <g id="text_12">
      <!-- 0.5 -->
      <g transform="translate(24.816875 328.936534) scale(0.1 -0.1)">
       <use xlink:href="#DejaVuSans-30"/>
       <use xlink:href="#DejaVuSans-2e" transform="translate(63.623047 0)"/>
       <use xlink:href="#DejaVuSans-35" transform="translate(95.410156 0)"/>
      </g>
     </g>
    </g>
    <g id="ytick_3">
     <g id="line2d_23">
      <path d="M 47.72 265.717489 
L 707.12035 265.717489 
" clip-path="url(#pde3101cbdd)" style="fill: none; stroke: #b0b0b0; stroke-width: 0.8; stroke-linecap: square"/>
     </g>
     <g id="line2d_24">
      <g>
       <use xlink:href="#m2a43eea802" x="47.72" y="265.717489" style="stroke: #000000; stroke-width: 0.8"/>
      </g>
     </g>
     <g id="text_13">
      <!-- 0.6 -->
      <g transform="translate(24.816875 269.516707) scale(0.1 -0.1)">
       <defs>
        <path id="DejaVuSans-36" d="M 2113 2584 
Q 1688 2584 1439 2293 
Q 1191 2003 1191 1497 
Q 1191 994 1439 701 
Q 1688 409 2113 409 
Q 2538 409 2786 701 
Q 3034 994 3034 1497 
Q 3034 2003 2786 2293 
Q 2538 2584 2113 2584 
z
M 3366 4563 
L 3366 3988 
Q 3128 4100 2886 4159 
Q 2644 4219 2406 4219 
Q 1781 4219 1451 3797 
Q 1122 3375 1075 2522 
Q 1259 2794 1537 2939 
Q 1816 3084 2150 3084 
Q 2853 3084 3261 2657 
Q 3669 2231 3669 1497 
Q 3669 778 3244 343 
Q 2819 -91 2113 -91 
Q 1303 -91 875 529 
Q 447 1150 447 2328 
Q 447 3434 972 4092 
Q 1497 4750 2381 4750 
Q 2619 4750 2861 4703 
Q 3103 4656 3366 4563 
z
" transform="scale(0.015625)"/>
       </defs>
       <use xlink:href="#DejaVuSans-30"/>
       <use xlink:href="#DejaVuSans-2e" transform="translate(63.623047 0)"/>
       <use xlink:href="#DejaVuSans-36" transform="translate(95.410156 0)"/>
      </g>
     </g>
    </g>
    <g id="ytick_4">
     <g id="line2d_25">
      <path d="M 47.72 206.297662 
L 707.12035 206.297662 
" clip-path="url(#pde3101cbdd)" style="fill: none; stroke: #b0b0b0; stroke-width: 0.8; stroke-linecap: square"/>
     </g>
     <g id="line2d_26">
      <g>
       <use xlink:href="#m2a43eea802" x="47.72" y="206.297662" style="stroke: #000000; stroke-width: 0.8"/>
      </g>
     </g>
     <g id="text_14">
      <!-- 0.7 -->
      <g transform="translate(24.816875 210.096881) scale(0.1 -0.1)">
       <defs>
        <path id="DejaVuSans-37" d="M 525 4666 
L 3525 4666 
L 3525 4397 
L 1831 0 
L 1172 0 
L 2766 4134 
L 525 4134 
L 525 4666 
z
" transform="scale(0.015625)"/>
       </defs>
       <use xlink:href="#DejaVuSans-30"/>
       <use xlink:href="#DejaVuSans-2e" transform="translate(63.623047 0)"/>
       <use xlink:href="#DejaVuSans-37" transform="translate(95.410156 0)"/>
      </g>
     </g>
    </g>
    <g id="ytick_5">
     <g id="line2d_27">
      <path d="M 47.72 146.877835 
L 707.12035 146.877835 
" clip-path="url(#pde3101cbdd)" style="fill: none; stroke: #b0b0b0; stroke-width: 0.8; stroke-linecap: square"/>
     </g>
     <g id="line2d_28">
      <g>
       <use xlink:href="#m2a43eea802" x="47.72" y="146.877835" style="stroke: #000000; stroke-width: 0.8"/>
      </g>
     </g>
     <g id="text_15">
      <!-- 0.8 -->
      <g transform="translate(24.816875 150.677054) scale(0.1 -0.1)">
       <defs>
        <path id="DejaVuSans-38" d="M 2034 2216 
Q 1584 2216 1326 1975 
Q 1069 1734 1069 1313 
Q 1069 891 1326 650 
Q 1584 409 2034 409 
Q 2484 409 2743 651 
Q 3003 894 3003 1313 
Q 3003 1734 2745 1975 
Q 2488 2216 2034 2216 
z
M 1403 2484 
Q 997 2584 770 2862 
Q 544 3141 544 3541 
Q 544 4100 942 4425 
Q 1341 4750 2034 4750 
Q 2731 4750 3128 4425 
Q 3525 4100 3525 3541 
Q 3525 3141 3298 2862 
Q 3072 2584 2669 2484 
Q 3125 2378 3379 2068 
Q 3634 1759 3634 1313 
Q 3634 634 3220 271 
Q 2806 -91 2034 -91 
Q 1263 -91 848 271 
Q 434 634 434 1313 
Q 434 1759 690 2068 
Q 947 2378 1403 2484 
z
M 1172 3481 
Q 1172 3119 1398 2916 
Q 1625 2713 2034 2713 
Q 2441 2713 2670 2916 
Q 2900 3119 2900 3481 
Q 2900 3844 2670 4047 
Q 2441 4250 2034 4250 
Q 1625 4250 1398 4047 
Q 1172 3844 1172 3481 
z
" transform="scale(0.015625)"/>
       </defs>
       <use xlink:href="#DejaVuSans-30"/>
       <use xlink:href="#DejaVuSans-2e" transform="translate(63.623047 0)"/>
       <use xlink:href="#DejaVuSans-38" transform="translate(95.410156 0)"/>
      </g>
     </g>
    </g>
    <g id="ytick_6">
     <g id="line2d_29">
      <path d="M 47.72 87.458009 
L 707.12035 87.458009 
" clip-path="url(#pde3101cbdd)" style="fill: none; stroke: #b0b0b0; stroke-width: 0.8; stroke-linecap: square"/>
     </g>
     <g id="line2d_30">
      <g>
       <use xlink:href="#m2a43eea802" x="47.72" y="87.458009" style="stroke: #000000; stroke-width: 0.8"/>
      </g>
     </g>
     <g id="text_16">
      <!-- 0.9 -->
      <g transform="translate(24.816875 91.257227) scale(0.1 -0.1)">
       <defs>
        <path id="DejaVuSans-39" d="M 703 97 
L 703 672 
Q 941 559 1184 500 
Q 1428 441 1663 441 
Q 2288 441 2617 861 
Q 2947 1281 2994 2138 
Q 2813 1869 2534 1725 
Q 2256 1581 1919 1581 
Q 1219 1581 811 2004 
Q 403 2428 403 3163 
Q 403 3881 828 4315 
Q 1253 4750 1959 4750 
Q 2769 4750 3195 4129 
Q 3622 3509 3622 2328 
Q 3622 1225 3098 567 
Q 2575 -91 1691 -91 
Q 1453 -91 1209 -44 
Q 966 3 703 97 
z
M 1959 2075 
Q 2384 2075 2632 2365 
Q 2881 2656 2881 3163 
Q 2881 3666 2632 3958 
Q 2384 4250 1959 4250 
Q 1534 4250 1286 3958 
Q 1038 3666 1038 3163 
Q 1038 2656 1286 2365 
Q 1534 2075 1959 2075 
z
" transform="scale(0.015625)"/>
       </defs>
       <use xlink:href="#DejaVuSans-30"/>
       <use xlink:href="#DejaVuSans-2e" transform="translate(63.623047 0)"/>
       <use xlink:href="#DejaVuSans-39" transform="translate(95.410156 0)"/>
      </g>
     </g>
    </g>
    <g id="ytick_7">
     <g id="line2d_31">
      <path d="M 47.72 28.038182 
L 707.12035 28.038182 
" clip-path="url(#pde3101cbdd)" style="fill: none; stroke: #b0b0b0; stroke-width: 0.8; stroke-linecap: square"/>
     </g>
     <g id="line2d_32">
      <g>
       <use xlink:href="#m2a43eea802" x="47.72" y="28.038182" style="stroke: #000000; stroke-width: 0.8"/>
      </g>
     </g>
     <g id="text_17">
      <!-- 1.0 -->
      <g transform="translate(24.816875 31.837401) scale(0.1 -0.1)">
       <use xlink:href="#DejaVuSans-31"/>
       <use xlink:href="#DejaVuSans-2e" transform="translate(63.623047 0)"/>
       <use xlink:href="#DejaVuSans-30" transform="translate(95.410156 0)"/>
      </g>
     </g>
    </g>
    <g id="text_18">
     <!-- Accuracy on Test -->
     <g transform="translate(18.737188 242.499688) rotate(-90) scale(0.1 -0.1)">
      <defs>
       <path id="DejaVuSans-41" d="M 2188 4044 
L 1331 1722 
L 3047 1722 
L 2188 4044 
z
M 1831 4666 
L 2547 4666 
L 4325 0 
L 3669 0 
L 3244 1197 
L 1141 1197 
L 716 0 
L 50 0 
L 1831 4666 
z
" transform="scale(0.015625)"/>
       <path id="DejaVuSans-63" d="M 3122 3366 
L 3122 2828 
Q 2878 2963 2633 3030 
Q 2388 3097 2138 3097 
Q 1578 3097 1268 2742 
Q 959 2388 959 1747 
Q 959 1106 1268 751 
Q 1578 397 2138 397 
Q 2388 397 2633 464 
Q 2878 531 3122 666 
L 3122 134 
Q 2881 22 2623 -34 
Q 2366 -91 2075 -91 
Q 1284 -91 818 406 
Q 353 903 353 1747 
Q 353 2603 823 3093 
Q 1294 3584 2113 3584 
Q 2378 3584 2631 3529 
Q 2884 3475 3122 3366 
z
" transform="scale(0.015625)"/>
       <path id="DejaVuSans-75" d="M 544 1381 
L 544 3500 
L 1119 3500 
L 1119 1403 
Q 1119 906 1312 657 
Q 1506 409 1894 409 
Q 2359 409 2629 706 
Q 2900 1003 2900 1516 
L 2900 3500 
L 3475 3500 
L 3475 0 
L 2900 0 
L 2900 538 
Q 2691 219 2414 64 
Q 2138 -91 1772 -91 
Q 1169 -91 856 284 
Q 544 659 544 1381 
z
M 1991 3584 
L 1991 3584 
z
" transform="scale(0.015625)"/>
       <path id="DejaVuSans-72" d="M 2631 2963 
Q 2534 3019 2420 3045 
Q 2306 3072 2169 3072 
Q 1681 3072 1420 2755 
Q 1159 2438 1159 1844 
L 1159 0 
L 581 0 
L 581 3500 
L 1159 3500 
L 1159 2956 
Q 1341 3275 1631 3429 
Q 1922 3584 2338 3584 
Q 2397 3584 2469 3576 
Q 2541 3569 2628 3553 
L 2631 2963 
z
" transform="scale(0.015625)"/>
       <path id="DejaVuSans-61" d="M 2194 1759 
Q 1497 1759 1228 1600 
Q 959 1441 959 1056 
Q 959 750 1161 570 
Q 1363 391 1709 391 
Q 2188 391 2477 730 
Q 2766 1069 2766 1631 
L 2766 1759 
L 2194 1759 
z
M 3341 1997 
L 3341 0 
L 2766 0 
L 2766 531 
Q 2569 213 2275 61 
Q 1981 -91 1556 -91 
Q 1019 -91 701 211 
Q 384 513 384 1019 
Q 384 1609 779 1909 
Q 1175 2209 1959 2209 
L 2766 2209 
L 2766 2266 
Q 2766 2663 2505 2880 
Q 2244 3097 1772 3097 
Q 1472 3097 1187 3025 
Q 903 2953 641 2809 
L 641 3341 
Q 956 3463 1253 3523 
Q 1550 3584 1831 3584 
Q 2591 3584 2966 3190 
Q 3341 2797 3341 1997 
z
" transform="scale(0.015625)"/>
       <path id="DejaVuSans-79" d="M 2059 -325 
Q 1816 -950 1584 -1140 
Q 1353 -1331 966 -1331 
L 506 -1331 
L 506 -850 
L 844 -850 
Q 1081 -850 1212 -737 
Q 1344 -625 1503 -206 
L 1606 56 
L 191 3500 
L 800 3500 
L 1894 763 
L 2988 3500 
L 3597 3500 
L 2059 -325 
z
" transform="scale(0.015625)"/>
       <path id="DejaVuSans-20" transform="scale(0.015625)"/>
       <path id="DejaVuSans-6e" d="M 3513 2113 
L 3513 0 
L 2938 0 
L 2938 2094 
Q 2938 2591 2744 2837 
Q 2550 3084 2163 3084 
Q 1697 3084 1428 2787 
Q 1159 2491 1159 1978 
L 1159 0 
L 581 0 
L 581 3500 
L 1159 3500 
L 1159 2956 
Q 1366 3272 1645 3428 
Q 1925 3584 2291 3584 
Q 2894 3584 3203 3211 
Q 3513 2838 3513 2113 
z
" transform="scale(0.015625)"/>
       <path id="DejaVuSans-54" d="M -19 4666 
L 3928 4666 
L 3928 4134 
L 2272 4134 
L 2272 0 
L 1638 0 
L 1638 4134 
L -19 4134 
L -19 4666 
z
" transform="scale(0.015625)"/>
       <path id="DejaVuSans-74" d="M 1172 4494 
L 1172 3500 
L 2356 3500 
L 2356 3053 
L 1172 3053 
L 1172 1153 
Q 1172 725 1289 603 
Q 1406 481 1766 481 
L 2356 481 
L 2356 0 
L 1766 0 
Q 1100 0 847 248 
Q 594 497 594 1153 
L 594 3053 
L 172 3053 
L 172 3500 
L 594 3500 
L 594 4494 
L 1172 4494 
z
" transform="scale(0.015625)"/>
      </defs>
      <use xlink:href="#DejaVuSans-41"/>
      <use xlink:href="#DejaVuSans-63" transform="translate(66.658203 0)"/>
      <use xlink:href="#DejaVuSans-63" transform="translate(121.638672 0)"/>
      <use xlink:href="#DejaVuSans-75" transform="translate(176.619141 0)"/>
      <use xlink:href="#DejaVuSans-72" transform="translate(239.998047 0)"/>
      <use xlink:href="#DejaVuSans-61" transform="translate(281.111328 0)"/>
      <use xlink:href="#DejaVuSans-63" transform="translate(342.390625 0)"/>
      <use xlink:href="#DejaVuSans-79" transform="translate(397.371094 0)"/>
      <use xlink:href="#DejaVuSans-20" transform="translate(456.550781 0)"/>
      <use xlink:href="#DejaVuSans-6f" transform="translate(488.337891 0)"/>
      <use xlink:href="#DejaVuSans-6e" transform="translate(549.519531 0)"/>
      <use xlink:href="#DejaVuSans-20" transform="translate(612.898438 0)"/>
      <use xlink:href="#DejaVuSans-54" transform="translate(644.685547 0)"/>
      <use xlink:href="#DejaVuSans-65" transform="translate(688.769531 0)"/>
      <use xlink:href="#DejaVuSans-73" transform="translate(750.292969 0)"/>
      <use xlink:href="#DejaVuSans-74" transform="translate(802.392578 0)"/>
     </g>
    </g>
   </g>
   <g id="line2d_33">
    <path d="M 77.692743 288.693147 
L 80.766871 284.423722 
L 83.840998 278.855864 
L 86.915126 272.737823 
L 89.989253 271.747492 
L 93.063381 259.555424 
L 96.137508 264.000907 
L 99.211636 251.984898 
L 102.285763 248.111606 
L 105.359891 251.852854 
L 108.434018 243.600101 
L 111.508146 228.040909 
L 114.582273 213.450042 
L 117.656401 198.088917 
L 120.730528 182.089579 
L 123.804656 161.776802 
L 126.878783 145.117244 
L 129.952911 117.498029 
L 133.027038 82.770443 
L 136.101166 66.044862 
L 139.175293 47.668731 
L 142.249421 44.961828 
L 145.323548 41.484668 
L 148.397676 35.762759 
L 151.471803 38.227581 
L 154.545931 33.121878 
L 157.620058 34.112208 
L 160.694186 34.024179 
L 163.768313 37.281266 
L 166.842441 32.571694 
L 169.916568 32.43965 
L 172.990696 34.288267 
L 176.064823 29.798769 
L 179.138951 30.547019 
L 185.287206 31.185232 
L 188.361333 30.591034 
L 191.435461 28.236248 
L 194.509588 30.106872 
L 197.583716 29.666725 
L 200.657843 30.018843 
L 203.731971 30.216909 
L 206.806098 30.965158 
L 212.954353 30.304938 
L 216.028481 29.160556 
L 219.102608 29.358622 
L 222.176736 38.601706 
L 225.250863 32.791768 
L 228.324991 28.478329 
L 231.399118 30.657056 
L 234.473246 28.786431 
L 237.547373 30.304938 
L 240.621501 29.952821 
L 243.695628 28.500336 
L 246.769756 30.436982 
L 249.843883 28.918475 
L 252.918011 39.195904 
L 255.992138 40.340286 
L 259.066266 31.141217 
L 262.140393 31.141217 
L 265.214521 42.254925 
L 268.288648 41.638719 
L 271.362776 31.471327 
L 274.436903 42.100873 
L 277.511031 42.21091 
L 280.585158 36.797104 
L 283.659286 36.99517 
L 286.733413 44.851791 
L 289.807541 62.435658 
L 292.881668 49.693407 
L 295.955796 60.322953 
L 299.029923 57.241925 
L 302.104051 60.829121 
L 305.178178 66.903148 
L 308.252306 63.470002 
L 311.326433 65.032524 
L 314.400561 60.67507 
L 317.474688 57.660064 
L 320.548816 50.155561 
L 323.622944 62.765767 
L 326.697071 61.511349 
L 329.771199 51.56403 
L 332.845326 46.128217 
L 335.919454 41.484668 
L 338.993581 44.059527 
L 342.067709 41.814778 
L 345.141836 40.120213 
L 354.364219 41.022514 
L 357.438346 50.133553 
L 360.512474 48.659061 
L 363.586601 52.994508 
L 366.660729 61.533356 
L 369.734856 54.909146 
L 372.808984 53.830787 
L 375.883111 56.77977 
L 378.957239 61.401312 
L 382.031366 59.354629 
L 385.105494 58.782438 
L 388.179621 63.866135 
L 391.253749 64.262267 
L 394.327876 62.105547 
L 397.402004 59.750762 
L 400.476131 63.844127 
L 403.550259 80.019523 
L 406.624386 74.187578 
L 409.698514 68.971838 
L 412.772641 71.876807 
L 415.846769 70.908484 
L 418.920896 72.955167 
L 421.995024 77.092547 
L 425.069151 73.791446 
L 428.143279 71.590711 
L 431.217406 74.143563 
L 434.291534 73.219255 
L 437.365661 71.480675 
L 440.439789 69.478007 
L 443.513916 58.870468 
L 446.588044 59.178571 
L 449.662171 54.226919 
L 452.736299 53.918816 
L 455.810426 56.427653 
L 458.884554 126.344981 
L 461.958681 61.09321 
L 465.032809 58.078204 
L 468.106936 75.552033 
L 471.181064 65.956832 
L 474.255191 65.5607 
L 477.329319 63.40398 
L 480.403446 58.892475 
L 483.477574 59.838791 
L 486.551701 62.325621 
L 489.625829 73.725424 
L 492.699956 64.350296 
L 495.774084 58.958497 
L 498.848211 59.112549 
L 501.922339 58.364299 
L 504.996466 59.706747 
L 508.070594 58.60638 
L 511.144721 69.191911 
L 514.218849 73.813453 
L 517.292976 72.448998 
L 520.367104 63.580039 
L 523.441231 59.134556 
L 526.515359 63.646061 
L 532.663614 59.794776 
L 535.737741 59.068534 
L 538.811869 57.726086 
L 541.885996 58.386306 
L 544.960124 57.924152 
L 548.034251 59.882806 
L 551.108379 56.581704 
L 554.182506 57.373969 
L 557.256634 57.946159 
L 560.330761 57.021851 
L 563.404889 57.726086 
L 566.479016 57.572035 
L 569.553144 58.100211 
L 572.627271 58.430321 
L 575.701399 57.770101 
L 578.775526 57.968167 
L 581.849654 59.244593 
L 584.923781 58.672402 
L 587.997909 55.393308 
L 591.072036 59.992842 
L 594.146164 95.006523 
L 597.220291 60.653063 
L 600.294419 61.731422 
L 603.368546 51.960163 
L 606.442674 52.840456 
L 609.516801 54.975168 
L 612.590929 55.415315 
L 615.665056 57.484005 
L 618.739184 58.496343 
L 621.813311 55.965499 
L 624.887439 81.780111 
L 627.961566 73.219255 
L 631.035694 59.728754 
L 634.109821 59.750762 
L 637.183949 58.232255 
L 640.258076 55.085205 
L 643.332204 58.914483 
L 646.406331 58.166233 
L 649.480459 59.2666 
L 652.554586 59.860798 
L 655.628714 89.086548 
L 658.702841 64.130223 
L 661.776969 60.565033 
L 664.851096 64.020186 
L 667.925224 56.625719 
L 670.999351 56.977836 
L 674.073479 57.836123 
L 677.147606 59.156563 
L 677.147606 59.156563 
" clip-path="url(#pde3101cbdd)" style="fill: none; stroke: #1f77b4; stroke-width: 1.5; stroke-linecap: square"/>
   </g>
   <g id="patch_3">
    <path d="M 47.72 390.04 
L 47.72 10.8 
" style="fill: none; stroke: #000000; stroke-width: 0.8; stroke-linejoin: miter; stroke-linecap: square"/>
   </g>
   <g id="patch_4">
    <path d="M 707.12035 390.04 
L 707.12035 10.8 
" style="fill: none; stroke: #000000; stroke-width: 0.8; stroke-linejoin: miter; stroke-linecap: square"/>
   </g>
   <g id="patch_5">
    <path d="M 47.72 390.04 
L 707.12035 390.04 
" style="fill: none; stroke: #000000; stroke-width: 0.8; stroke-linejoin: miter; stroke-linecap: square"/>
   </g>
   <g id="patch_6">
    <path d="M 47.72 10.8 
L 707.12035 10.8 
" style="fill: none; stroke: #000000; stroke-width: 0.8; stroke-linejoin: miter; stroke-linecap: square"/>
   </g>
  </g>
 </g>
 <defs>
  <clipPath id="pde3101cbdd">
   <rect x="47.72" y="10.8" width="659.40035" height="379.24"/>
  </clipPath>
 </defs>
</svg>
