<?xml version="1.0" encoding="utf-8" standalone="no"?>
<!DOCTYPE svg PUBLIC "-//W3C//DTD SVG 1.1//EN"
  "http://www.w3.org/Graphics/SVG/1.1/DTD/svg11.dtd">
<svg xmlns:xlink="http://www.w3.org/1999/xlink" width="720pt" height="432pt" viewBox="0 0 720 432" xmlns="http://www.w3.org/2000/svg" version="1.1">
 <metadata>
  <rdf:RDF xmlns:dc="http://purl.org/dc/elements/1.1/" xmlns:cc="http://creativecommons.org/ns#" xmlns:rdf="http://www.w3.org/1999/02/22-rdf-syntax-ns#">
   <cc:Work>
    <dc:type rdf:resource="http://purl.org/dc/dcmitype/StillImage"/>
    <dc:date>2025-04-22T23:13:40.141110</dc:date>
    <dc:format>image/svg+xml</dc:format>
    <dc:creator>
     <cc:Agent>
      <dc:title>Matplotlib v3.10.0, https://matplotlib.org/</dc:title>
     </cc:Agent>
    </dc:creator>
   </cc:Work>
  </rdf:RDF>
 </metadata>
 <defs>
  <style type="text/css">*{stroke-linejoin: round; stroke-linecap: butt}</style>
 </defs>
 <g id="figure_1">
  <g id="patch_1">
   <path d="M 0 432 
L 720 432 
L 720 0 
L 0 0 
z
" style="fill: #ffffff"/>
  </g>
  <g id="axes_1">
   <g id="patch_2">
    <path d="M 54.02 390.04 
L 709.2 390.04 
L 709.2 12.146748 
L 54.02 12.146748 
z
" style="fill: #ffffff"/>
   </g>
   <g id="FillBetweenPolyCollection_1">
    <path d="M 83.800909 238.405176 
L 83.800909 351.810002 
L 86.610429 350.845596 
L 89.419949 342.037293 
L 92.229468 343.475887 
L 95.038988 340.437375 
L 97.848508 348.623636 
L 100.658027 350.398864 
L 103.467547 353.409461 
L 106.277067 350.811969 
L 109.086587 355.483875 
L 111.896106 355.839024 
L 114.705626 356.852015 
L 117.515146 364.298548 
L 120.324666 366.686323 
L 123.134185 368.374875 
L 125.943705 366.671279 
L 128.753225 368.360886 
L 131.562744 368.661053 
L 134.372264 366.082661 
L 137.181784 366.257858 
L 139.991304 371.476346 
L 142.800823 366.313999 
L 145.610343 372.863034 
L 148.419863 371.62029 
L 151.229383 370.451981 
L 154.038902 367.06482 
L 156.848422 369.466117 
L 159.657942 365.224492 
L 162.467461 368.713666 
L 165.276981 365.469951 
L 168.086501 359.729833 
L 170.896021 360.568491 
L 173.70554 360.447212 
L 176.51506 360.096435 
L 179.32458 359.563455 
L 182.134099 349.968275 
L 184.943619 351.874694 
L 187.753139 352.600139 
L 190.562659 353.998431 
L 193.372178 346.970627 
L 196.181698 339.439366 
L 198.991218 339.701871 
L 201.800738 346.29945 
L 204.610257 334.236732 
L 207.419777 334.115144 
L 210.229297 338.017694 
L 213.038816 348.020424 
L 215.848336 343.816643 
L 218.657856 349.802828 
L 221.467376 346.663934 
L 224.276895 330.688224 
L 227.086415 328.155354 
L 229.895935 327.294776 
L 232.705455 323.787002 
L 235.514974 307.388325 
L 238.324494 282.82223 
L 241.134014 260.209886 
L 243.943533 266.1051 
L 246.753053 261.943021 
L 249.562573 262.064678 
L 252.372093 246.988984 
L 255.181612 237.350448 
L 257.991132 270.634366 
L 260.800652 275.132062 
L 263.610172 255.640632 
L 266.419691 245.828449 
L 269.229211 254.851682 
L 272.038731 263.346412 
L 274.84825 283.130612 
L 277.65777 272.695532 
L 280.46729 292.921307 
L 283.27681 277.702193 
L 286.086329 263.004296 
L 288.895849 230.934678 
L 291.705369 211.844947 
L 294.514889 238.522359 
L 297.324408 235.018903 
L 300.133928 206.70825 
L 302.943448 184.227633 
L 305.752967 200.41174 
L 308.562487 201.798671 
L 311.372007 197.262327 
L 314.181527 207.132453 
L 316.991046 201.450898 
L 319.800566 197.222381 
L 322.610086 199.37662 
L 325.419605 197.201044 
L 328.229125 189.496185 
L 331.038645 183.938443 
L 333.848165 185.879966 
L 336.657684 181.76468 
L 339.467204 173.146262 
L 342.276724 165.33835 
L 345.086244 173.557651 
L 347.895763 167.846793 
L 350.705283 167.21796 
L 353.514803 167.347994 
L 356.324322 167.308841 
L 359.133842 174.154473 
L 361.943362 172.888773 
L 364.752882 179.169372 
L 367.562401 196.427553 
L 370.371921 212.508898 
L 373.181441 225.673571 
L 375.990961 220.286906 
L 378.80048 195.685155 
L 381.61 186.346192 
L 384.41952 174.106178 
L 387.229039 164.499883 
L 390.038559 163.728717 
L 392.848079 163.914774 
L 395.657599 170.459982 
L 398.467118 165.480997 
L 401.276638 164.404343 
L 404.086158 159.661006 
L 406.895678 159.564088 
L 409.705197 162.424921 
L 412.514717 173.457496 
L 415.324237 185.759607 
L 418.133756 183.136804 
L 420.943276 188.197011 
L 423.752796 173.591845 
L 426.562316 168.837111 
L 429.371835 176.68022 
L 432.181355 173.925629 
L 434.990875 164.099533 
L 437.800395 166.768419 
L 440.609914 166.538994 
L 443.419434 170.63856 
L 446.228954 165.07568 
L 449.038473 162.441907 
L 451.847993 161.356839 
L 454.657513 164.720451 
L 457.467033 159.618476 
L 460.276552 162.859379 
L 463.086072 165.958585 
L 465.895592 175.529037 
L 468.705111 192.216589 
L 471.514631 184.298414 
L 474.324151 209.923958 
L 477.133671 173.763338 
L 479.94319 166.103186 
L 482.75271 163.988106 
L 485.56223 160.644654 
L 488.37175 170.381091 
L 491.181269 166.842171 
L 493.990789 201.358078 
L 496.800309 226.120967 
L 499.609828 264.168461 
L 502.419348 282.669371 
L 505.228868 297.166853 
L 508.038388 304.812847 
L 510.847907 300.25871 
L 513.657427 270.167437 
L 516.466947 262.746189 
L 519.276467 226.761062 
L 522.085986 188.152713 
L 524.895506 168.376877 
L 527.705026 162.15385 
L 530.514545 183.004889 
L 533.324065 165.126483 
L 536.133585 186.109797 
L 538.943105 226.947522 
L 541.752624 180.111662 
L 544.562144 166.821739 
L 547.371664 171.379494 
L 550.181184 162.435587 
L 552.990703 162.623764 
L 555.800223 163.780456 
L 558.609743 175.499002 
L 561.419262 174.743643 
L 564.228782 158.053073 
L 567.038302 161.675581 
L 569.847822 164.447201 
L 572.657341 162.60959 
L 575.466861 159.572805 
L 578.276381 160.999837 
L 581.085901 162.084042 
L 583.89542 159.887328 
L 586.70494 163.273738 
L 589.51446 162.885666 
L 592.323979 168.069805 
L 595.133499 165.485965 
L 597.943019 175.873084 
L 600.752539 208.324235 
L 603.562058 188.221088 
L 606.371578 166.663733 
L 609.181098 171.10579 
L 611.990617 175.411677 
L 614.800137 188.84642 
L 617.609657 180.31386 
L 620.419177 174.190192 
L 623.228696 178.985266 
L 626.038216 208.751936 
L 628.847736 188.619528 
L 631.657256 178.737157 
L 634.466775 182.247154 
L 637.276295 174.533952 
L 640.085815 164.723559 
L 642.895334 166.146954 
L 645.704854 165.533901 
L 648.514374 163.832611 
L 651.323894 155.996599 
L 654.133413 169.193694 
L 656.942933 178.228546 
L 659.752453 160.917674 
L 662.561973 189.908414 
L 665.371492 170.80204 
L 668.181012 170.455564 
L 670.990532 163.964414 
L 673.800051 182.579244 
L 676.609571 175.174043 
L 679.419091 173.365839 
L 679.419091 50.752683 
L 679.419091 50.752683 
L 676.609571 51.136675 
L 673.800051 52.152288 
L 670.990532 51.350531 
L 668.181012 50.600845 
L 665.371492 50.254369 
L 662.561973 48.198403 
L 659.752453 51.335157 
L 656.942933 50.900709 
L 654.133413 50.992796 
L 651.323894 50.758345 
L 648.514374 52.317458 
L 645.704854 52.495192 
L 642.895334 50.977422 
L 640.085815 51.148134 
L 637.276295 49.167009 
L 634.466775 50.222589 
L 631.657256 51.853562 
L 628.847736 51.261922 
L 626.038216 54.652119 
L 623.228696 55.119926 
L 620.419177 52.746869 
L 617.609657 53.652145 
L 614.800137 55.175847 
L 611.990617 54.691889 
L 609.181098 52.664766 
L 606.371578 52.270075 
L 603.562058 54.792074 
L 600.752539 60.577713 
L 597.943019 48.732592 
L 595.133499 51.394834 
L 592.323979 52.743028 
L 589.51446 51.802938 
L 586.70494 51.414866 
L 583.89542 50.938836 
L 581.085901 50.79513 
L 578.276381 51.357384 
L 575.466861 51.601327 
L 572.657341 51.417876 
L 569.847822 51.911647 
L 567.038302 51.273185 
L 564.228782 51.520409 
L 561.419262 53.968053 
L 558.609743 53.386678 
L 555.800223 51.186522 
L 552.990703 51.64728 
L 550.181184 51.452692 
L 547.371664 51.068785 
L 544.562144 51.311743 
L 541.752624 52.949628 
L 538.943105 55.873124 
L 536.133585 54.363202 
L 533.324065 51.71952 
L 530.514545 47.864203 
L 527.705026 50.551338 
L 524.895506 50.974491 
L 522.085986 46.439633 
L 519.276467 40.714214 
L 516.466947 34.5847 
L 513.657427 32.417761 
L 510.847907 29.885516 
L 508.038388 30.655283 
L 505.228868 29.323714 
L 502.419348 30.006885 
L 499.609828 34.902266 
L 496.800309 40.762764 
L 493.990789 43.81248 
L 491.181269 49.48188 
L 488.37175 51.580034 
L 485.56223 50.773054 
L 482.75271 49.969766 
L 479.94319 51.055987 
L 477.133671 51.781852 
L 474.324151 56.57701 
L 471.514631 53.877998 
L 468.705111 47.490877 
L 465.895592 49.07664 
L 463.086072 51.861727 
L 460.276552 50.750525 
L 457.467033 51.555656 
L 454.657513 52.473519 
L 451.847993 51.905098 
L 449.038473 52.455478 
L 446.228954 52.744632 
L 443.419434 52.540453 
L 440.609914 51.316114 
L 437.800395 51.887016 
L 434.990875 50.554275 
L 432.181355 49.183789 
L 429.371835 51.439931 
L 426.562316 50.514257 
L 423.752796 51.327005 
L 420.943276 47.613222 
L 418.133756 49.680908 
L 415.324237 48.971927 
L 412.514717 50.10428 
L 409.705197 50.837017 
L 406.895678 51.262077 
L 404.086158 51.617517 
L 401.276638 52.511254 
L 398.467118 52.72208 
L 395.657599 53.658544 
L 392.848079 52.339685 
L 390.038559 51.934197 
L 387.229039 52.206933 
L 384.41952 50.638688 
L 381.61 49.846805 
L 378.80048 48.371909 
L 375.990961 44.195851 
L 373.181441 43.611137 
L 370.371921 44.318573 
L 367.562401 51.109186 
L 364.752882 50.307853 
L 361.943362 50.60341 
L 359.133842 53.965679 
L 356.324322 52.982042 
L 353.514803 52.629717 
L 350.705283 52.620564 
L 347.895763 52.54848 
L 345.086244 52.439899 
L 342.276724 52.168792 
L 339.467204 53.721207 
L 336.657684 53.245229 
L 333.848165 51.809293 
L 331.038645 50.201546 
L 328.229125 49.758926 
L 325.419605 48.35228 
L 322.610086 48.821259 
L 319.800566 53.376476 
L 316.991046 52.975603 
L 314.181527 54.636165 
L 311.372007 55.215558 
L 308.562487 57.394988 
L 305.752967 61.426473 
L 302.943448 58.472367 
L 300.133928 61.219396 
L 297.324408 64.504194 
L 294.514889 70.082691 
L 291.705369 63.633596 
L 288.895849 71.789723 
L 286.086329 81.337021 
L 283.27681 91.344822 
L 280.46729 99.056769 
L 277.65777 82.850341 
L 274.84825 90.579165 
L 272.038731 78.733115 
L 269.229211 73.343941 
L 266.419691 73.981158 
L 263.610172 74.712387 
L 260.800652 81.631696 
L 257.991132 80.875081 
L 255.181612 67.84452 
L 252.372093 71.881107 
L 249.562573 79.492898 
L 246.753053 81.180409 
L 243.943533 77.366295 
L 241.134014 74.24915 
L 238.324494 85.598438 
L 235.514974 83.197873 
L 232.705455 108.346522 
L 229.895935 109.292731 
L 227.086415 128.405489 
L 224.276895 122.010179 
L 221.467376 138.534638 
L 218.657856 145.382415 
L 215.848336 137.171527 
L 213.038816 154.402545 
L 210.229297 130.861208 
L 207.419777 123.246031 
L 204.610257 113.520539 
L 201.800738 124.562865 
L 198.991218 113.727271 
L 196.181698 115.242457 
L 193.372178 121.560302 
L 190.562659 149.259655 
L 187.753139 126.161028 
L 184.943619 149.852335 
L 182.134099 153.49859 
L 179.32458 184.546017 
L 176.51506 186.553202 
L 173.70554 203.809583 
L 170.896021 220.007979 
L 168.086501 208.598183 
L 165.276981 223.074976 
L 162.467461 223.067357 
L 159.657942 222.485312 
L 156.848422 221.062223 
L 154.038902 203.838151 
L 151.229383 212.943026 
L 148.419863 235.088542 
L 145.610343 236.629538 
L 142.800823 219.551577 
L 139.991304 230.15216 
L 137.181784 231.125446 
L 134.372264 248.594628 
L 131.562744 248.834775 
L 128.753225 264.201934 
L 125.943705 276.53935 
L 123.134185 269.268271 
L 120.324666 264.101865 
L 117.515146 264.541022 
L 114.705626 234.267876 
L 111.896106 246.13745 
L 109.086587 230.103327 
L 106.277067 234.357678 
L 103.467547 225.914329 
L 100.658027 221.06086 
L 97.848508 226.976904 
L 95.038988 210.353081 
L 92.229468 217.162053 
L 89.419949 227.473817 
L 86.610429 230.357223 
L 83.800909 238.405176 
z
" clip-path="url(#p4595dec6bf)" style="fill: #1f77b4; fill-opacity: 0.2"/>
   </g>
   <g id="matplotlib.axis_1">
    <g id="xtick_1">
     <g id="line2d_1">
      <path d="M 82.382102 390.04 
L 82.382102 12.146748 
" clip-path="url(#p4595dec6bf)" style="fill: none; stroke: #b0b0b0; stroke-width: 0.8; stroke-linecap: square"/>
     </g>
     <g id="line2d_2">
      <defs>
       <path id="m4068c2fe55" d="M 0 0 
L 0 3.5 
" style="stroke: #000000; stroke-width: 0.8"/>
      </defs>
      <g>
       <use xlink:href="#m4068c2fe55" x="82.382102" y="390.04" style="stroke: #000000; stroke-width: 0.8"/>
      </g>
     </g>
     <g id="text_1">
      <!-- 0 -->
      <g transform="translate(79.200852 404.638438) scale(0.1 -0.1)">
       <defs>
        <path id="DejaVuSans-30" d="M 2034 4250 
Q 1547 4250 1301 3770 
Q 1056 3291 1056 2328 
Q 1056 1369 1301 889 
Q 1547 409 2034 409 
Q 2525 409 2770 889 
Q 3016 1369 3016 2328 
Q 3016 3291 2770 3770 
Q 2525 4250 2034 4250 
z
M 2034 4750 
Q 2819 4750 3233 4129 
Q 3647 3509 3647 2328 
Q 3647 1150 3233 529 
Q 2819 -91 2034 -91 
Q 1250 -91 836 529 
Q 422 1150 422 2328 
Q 422 3509 836 4129 
Q 1250 4750 2034 4750 
z
" transform="scale(0.015625)"/>
       </defs>
       <use xlink:href="#DejaVuSans-30"/>
      </g>
     </g>
    </g>
    <g id="xtick_2">
     <g id="line2d_3">
      <path d="M 222.858088 390.04 
L 222.858088 12.146748 
" clip-path="url(#p4595dec6bf)" style="fill: none; stroke: #b0b0b0; stroke-width: 0.8; stroke-linecap: square"/>
     </g>
     <g id="line2d_4">
      <g>
       <use xlink:href="#m4068c2fe55" x="222.858088" y="390.04" style="stroke: #000000; stroke-width: 0.8"/>
      </g>
     </g>
     <g id="text_2">
      <!-- 10000 -->
      <g transform="translate(206.951838 404.638438) scale(0.1 -0.1)">
       <defs>
        <path id="DejaVuSans-31" d="M 794 531 
L 1825 531 
L 1825 4091 
L 703 3866 
L 703 4441 
L 1819 4666 
L 2450 4666 
L 2450 531 
L 3481 531 
L 3481 0 
L 794 0 
L 794 531 
z
" transform="scale(0.015625)"/>
       </defs>
       <use xlink:href="#DejaVuSans-31"/>
       <use xlink:href="#DejaVuSans-30" transform="translate(63.623047 0)"/>
       <use xlink:href="#DejaVuSans-30" transform="translate(127.246094 0)"/>
       <use xlink:href="#DejaVuSans-30" transform="translate(190.869141 0)"/>
       <use xlink:href="#DejaVuSans-30" transform="translate(254.492188 0)"/>
      </g>
     </g>
    </g>
    <g id="xtick_3">
     <g id="line2d_5">
      <path d="M 363.334074 390.04 
L 363.334074 12.146748 
" clip-path="url(#p4595dec6bf)" style="fill: none; stroke: #b0b0b0; stroke-width: 0.8; stroke-linecap: square"/>
     </g>
     <g id="line2d_6">
      <g>
       <use xlink:href="#m4068c2fe55" x="363.334074" y="390.04" style="stroke: #000000; stroke-width: 0.8"/>
      </g>
     </g>
     <g id="text_3">
      <!-- 20000 -->
      <g transform="translate(347.427824 404.638438) scale(0.1 -0.1)">
       <defs>
        <path id="DejaVuSans-32" d="M 1228 531 
L 3431 531 
L 3431 0 
L 469 0 
L 469 531 
Q 828 903 1448 1529 
Q 2069 2156 2228 2338 
Q 2531 2678 2651 2914 
Q 2772 3150 2772 3378 
Q 2772 3750 2511 3984 
Q 2250 4219 1831 4219 
Q 1534 4219 1204 4116 
Q 875 4013 500 3803 
L 500 4441 
Q 881 4594 1212 4672 
Q 1544 4750 1819 4750 
Q 2544 4750 2975 4387 
Q 3406 4025 3406 3419 
Q 3406 3131 3298 2873 
Q 3191 2616 2906 2266 
Q 2828 2175 2409 1742 
Q 1991 1309 1228 531 
z
" transform="scale(0.015625)"/>
       </defs>
       <use xlink:href="#DejaVuSans-32"/>
       <use xlink:href="#DejaVuSans-30" transform="translate(63.623047 0)"/>
       <use xlink:href="#DejaVuSans-30" transform="translate(127.246094 0)"/>
       <use xlink:href="#DejaVuSans-30" transform="translate(190.869141 0)"/>
       <use xlink:href="#DejaVuSans-30" transform="translate(254.492188 0)"/>
      </g>
     </g>
    </g>
    <g id="xtick_4">
     <g id="line2d_7">
      <path d="M 503.81006 390.04 
L 503.81006 12.146748 
" clip-path="url(#p4595dec6bf)" style="fill: none; stroke: #b0b0b0; stroke-width: 0.8; stroke-linecap: square"/>
     </g>
     <g id="line2d_8">
      <g>
       <use xlink:href="#m4068c2fe55" x="503.81006" y="390.04" style="stroke: #000000; stroke-width: 0.8"/>
      </g>
     </g>
     <g id="text_4">
      <!-- 30000 -->
      <g transform="translate(487.90381 404.638438) scale(0.1 -0.1)">
       <defs>
        <path id="DejaVuSans-33" d="M 2597 2516 
Q 3050 2419 3304 2112 
Q 3559 1806 3559 1356 
Q 3559 666 3084 287 
Q 2609 -91 1734 -91 
Q 1441 -91 1130 -33 
Q 819 25 488 141 
L 488 750 
Q 750 597 1062 519 
Q 1375 441 1716 441 
Q 2309 441 2620 675 
Q 2931 909 2931 1356 
Q 2931 1769 2642 2001 
Q 2353 2234 1838 2234 
L 1294 2234 
L 1294 2753 
L 1863 2753 
Q 2328 2753 2575 2939 
Q 2822 3125 2822 3475 
Q 2822 3834 2567 4026 
Q 2313 4219 1838 4219 
Q 1578 4219 1281 4162 
Q 984 4106 628 3988 
L 628 4550 
Q 988 4650 1302 4700 
Q 1616 4750 1894 4750 
Q 2613 4750 3031 4423 
Q 3450 4097 3450 3541 
Q 3450 3153 3228 2886 
Q 3006 2619 2597 2516 
z
" transform="scale(0.015625)"/>
       </defs>
       <use xlink:href="#DejaVuSans-33"/>
       <use xlink:href="#DejaVuSans-30" transform="translate(63.623047 0)"/>
       <use xlink:href="#DejaVuSans-30" transform="translate(127.246094 0)"/>
       <use xlink:href="#DejaVuSans-30" transform="translate(190.869141 0)"/>
       <use xlink:href="#DejaVuSans-30" transform="translate(254.492188 0)"/>
      </g>
     </g>
    </g>
    <g id="xtick_5">
     <g id="line2d_9">
      <path d="M 644.286047 390.04 
L 644.286047 12.146748 
" clip-path="url(#p4595dec6bf)" style="fill: none; stroke: #b0b0b0; stroke-width: 0.8; stroke-linecap: square"/>
     </g>
     <g id="line2d_10">
      <g>
       <use xlink:href="#m4068c2fe55" x="644.286047" y="390.04" style="stroke: #000000; stroke-width: 0.8"/>
      </g>
     </g>
     <g id="text_5">
      <!-- 40000 -->
      <g transform="translate(628.379797 404.638438) scale(0.1 -0.1)">
       <defs>
        <path id="DejaVuSans-34" d="M 2419 4116 
L 825 1625 
L 2419 1625 
L 2419 4116 
z
M 2253 4666 
L 3047 4666 
L 3047 1625 
L 3713 1625 
L 3713 1100 
L 3047 1100 
L 3047 0 
L 2419 0 
L 2419 1100 
L 313 1100 
L 313 1709 
L 2253 4666 
z
" transform="scale(0.015625)"/>
       </defs>
       <use xlink:href="#DejaVuSans-34"/>
       <use xlink:href="#DejaVuSans-30" transform="translate(63.623047 0)"/>
       <use xlink:href="#DejaVuSans-30" transform="translate(127.246094 0)"/>
       <use xlink:href="#DejaVuSans-30" transform="translate(190.869141 0)"/>
       <use xlink:href="#DejaVuSans-30" transform="translate(254.492188 0)"/>
      </g>
     </g>
    </g>
    <g id="text_6">
     <!-- Episodes -->
     <g transform="translate(359.367813 418.316562) scale(0.1 -0.1)">
      <defs>
       <path id="DejaVuSans-45" d="M 628 4666 
L 3578 4666 
L 3578 4134 
L 1259 4134 
L 1259 2753 
L 3481 2753 
L 3481 2222 
L 1259 2222 
L 1259 531 
L 3634 531 
L 3634 0 
L 628 0 
L 628 4666 
z
" transform="scale(0.015625)"/>
       <path id="DejaVuSans-70" d="M 1159 525 
L 1159 -1331 
L 581 -1331 
L 581 3500 
L 1159 3500 
L 1159 2969 
Q 1341 3281 1617 3432 
Q 1894 3584 2278 3584 
Q 2916 3584 3314 3078 
Q 3713 2572 3713 1747 
Q 3713 922 3314 415 
Q 2916 -91 2278 -91 
Q 1894 -91 1617 61 
Q 1341 213 1159 525 
z
M 3116 1747 
Q 3116 2381 2855 2742 
Q 2594 3103 2138 3103 
Q 1681 3103 1420 2742 
Q 1159 2381 1159 1747 
Q 1159 1113 1420 752 
Q 1681 391 2138 391 
Q 2594 391 2855 752 
Q 3116 1113 3116 1747 
z
" transform="scale(0.015625)"/>
       <path id="DejaVuSans-69" d="M 603 3500 
L 1178 3500 
L 1178 0 
L 603 0 
L 603 3500 
z
M 603 4863 
L 1178 4863 
L 1178 4134 
L 603 4134 
L 603 4863 
z
" transform="scale(0.015625)"/>
       <path id="DejaVuSans-73" d="M 2834 3397 
L 2834 2853 
Q 2591 2978 2328 3040 
Q 2066 3103 1784 3103 
Q 1356 3103 1142 2972 
Q 928 2841 928 2578 
Q 928 2378 1081 2264 
Q 1234 2150 1697 2047 
L 1894 2003 
Q 2506 1872 2764 1633 
Q 3022 1394 3022 966 
Q 3022 478 2636 193 
Q 2250 -91 1575 -91 
Q 1294 -91 989 -36 
Q 684 19 347 128 
L 347 722 
Q 666 556 975 473 
Q 1284 391 1588 391 
Q 1994 391 2212 530 
Q 2431 669 2431 922 
Q 2431 1156 2273 1281 
Q 2116 1406 1581 1522 
L 1381 1569 
Q 847 1681 609 1914 
Q 372 2147 372 2553 
Q 372 3047 722 3315 
Q 1072 3584 1716 3584 
Q 2034 3584 2315 3537 
Q 2597 3491 2834 3397 
z
" transform="scale(0.015625)"/>
       <path id="DejaVuSans-6f" d="M 1959 3097 
Q 1497 3097 1228 2736 
Q 959 2375 959 1747 
Q 959 1119 1226 758 
Q 1494 397 1959 397 
Q 2419 397 2687 759 
Q 2956 1122 2956 1747 
Q 2956 2369 2687 2733 
Q 2419 3097 1959 3097 
z
M 1959 3584 
Q 2709 3584 3137 3096 
Q 3566 2609 3566 1747 
Q 3566 888 3137 398 
Q 2709 -91 1959 -91 
Q 1206 -91 779 398 
Q 353 888 353 1747 
Q 353 2609 779 3096 
Q 1206 3584 1959 3584 
z
" transform="scale(0.015625)"/>
       <path id="DejaVuSans-64" d="M 2906 2969 
L 2906 4863 
L 3481 4863 
L 3481 0 
L 2906 0 
L 2906 525 
Q 2725 213 2448 61 
Q 2172 -91 1784 -91 
Q 1150 -91 751 415 
Q 353 922 353 1747 
Q 353 2572 751 3078 
Q 1150 3584 1784 3584 
Q 2172 3584 2448 3432 
Q 2725 3281 2906 2969 
z
M 947 1747 
Q 947 1113 1208 752 
Q 1469 391 1925 391 
Q 2381 391 2643 752 
Q 2906 1113 2906 1747 
Q 2906 2381 2643 2742 
Q 2381 3103 1925 3103 
Q 1469 3103 1208 2742 
Q 947 2381 947 1747 
z
" transform="scale(0.015625)"/>
       <path id="DejaVuSans-65" d="M 3597 1894 
L 3597 1613 
L 953 1613 
Q 991 1019 1311 708 
Q 1631 397 2203 397 
Q 2534 397 2845 478 
Q 3156 559 3463 722 
L 3463 178 
Q 3153 47 2828 -22 
Q 2503 -91 2169 -91 
Q 1331 -91 842 396 
Q 353 884 353 1716 
Q 353 2575 817 3079 
Q 1281 3584 2069 3584 
Q 2775 3584 3186 3129 
Q 3597 2675 3597 1894 
z
M 3022 2063 
Q 3016 2534 2758 2815 
Q 2500 3097 2075 3097 
Q 1594 3097 1305 2825 
Q 1016 2553 972 2059 
L 3022 2063 
z
" transform="scale(0.015625)"/>
      </defs>
      <use xlink:href="#DejaVuSans-45"/>
      <use xlink:href="#DejaVuSans-70" transform="translate(63.183594 0)"/>
      <use xlink:href="#DejaVuSans-69" transform="translate(126.660156 0)"/>
      <use xlink:href="#DejaVuSans-73" transform="translate(154.443359 0)"/>
      <use xlink:href="#DejaVuSans-6f" transform="translate(206.542969 0)"/>
      <use xlink:href="#DejaVuSans-64" transform="translate(267.724609 0)"/>
      <use xlink:href="#DejaVuSans-65" transform="translate(331.201172 0)"/>
      <use xlink:href="#DejaVuSans-73" transform="translate(392.724609 0)"/>
     </g>
    </g>
   </g>
   <g id="matplotlib.axis_2">
    <g id="ytick_1">
     <g id="line2d_11">
      <path d="M 54.02 353.33996 
L 709.2 353.33996 
" clip-path="url(#p4595dec6bf)" style="fill: none; stroke: #b0b0b0; stroke-width: 0.8; stroke-linecap: square"/>
     </g>
     <g id="line2d_12">
      <defs>
       <path id="mb3480f8ce2" d="M 0 0 
L -3.5 0 
" style="stroke: #000000; stroke-width: 0.8"/>
      </defs>
      <g>
       <use xlink:href="#mb3480f8ce2" x="54.02" y="353.33996" style="stroke: #000000; stroke-width: 0.8"/>
      </g>
     </g>
     <g id="text_7">
      <!-- 0.50 -->
      <g transform="translate(24.754375 357.139178) scale(0.1 -0.1)">
       <defs>
        <path id="DejaVuSans-2e" d="M 684 794 
L 1344 794 
L 1344 0 
L 684 0 
L 684 794 
z
" transform="scale(0.015625)"/>
        <path id="DejaVuSans-35" d="M 691 4666 
L 3169 4666 
L 3169 4134 
L 1269 4134 
L 1269 2991 
Q 1406 3038 1543 3061 
Q 1681 3084 1819 3084 
Q 2600 3084 3056 2656 
Q 3513 2228 3513 1497 
Q 3513 744 3044 326 
Q 2575 -91 1722 -91 
Q 1428 -91 1123 -41 
Q 819 9 494 109 
L 494 744 
Q 775 591 1075 516 
Q 1375 441 1709 441 
Q 2250 441 2565 725 
Q 2881 1009 2881 1497 
Q 2881 1984 2565 2268 
Q 2250 2553 1709 2553 
Q 1456 2553 1204 2497 
Q 953 2441 691 2322 
L 691 4666 
z
" transform="scale(0.015625)"/>
       </defs>
       <use xlink:href="#DejaVuSans-30"/>
       <use xlink:href="#DejaVuSans-2e" transform="translate(63.623047 0)"/>
       <use xlink:href="#DejaVuSans-35" transform="translate(95.410156 0)"/>
       <use xlink:href="#DejaVuSans-30" transform="translate(159.033203 0)"/>
      </g>
     </g>
    </g>
    <g id="ytick_2">
     <g id="line2d_13">
      <path d="M 54.02 296.969219 
L 709.2 296.969219 
" clip-path="url(#p4595dec6bf)" style="fill: none; stroke: #b0b0b0; stroke-width: 0.8; stroke-linecap: square"/>
     </g>
     <g id="line2d_14">
      <g>
       <use xlink:href="#mb3480f8ce2" x="54.02" y="296.969219" style="stroke: #000000; stroke-width: 0.8"/>
      </g>
     </g>
     <g id="text_8">
      <!-- 0.55 -->
      <g transform="translate(24.754375 300.768437) scale(0.1 -0.1)">
       <use xlink:href="#DejaVuSans-30"/>
       <use xlink:href="#DejaVuSans-2e" transform="translate(63.623047 0)"/>
       <use xlink:href="#DejaVuSans-35" transform="translate(95.410156 0)"/>
       <use xlink:href="#DejaVuSans-35" transform="translate(159.033203 0)"/>
      </g>
     </g>
    </g>
    <g id="ytick_3">
     <g id="line2d_15">
      <path d="M 54.02 240.598478 
L 709.2 240.598478 
" clip-path="url(#p4595dec6bf)" style="fill: none; stroke: #b0b0b0; stroke-width: 0.8; stroke-linecap: square"/>
     </g>
     <g id="line2d_16">
      <g>
       <use xlink:href="#mb3480f8ce2" x="54.02" y="240.598478" style="stroke: #000000; stroke-width: 0.8"/>
      </g>
     </g>
     <g id="text_9">
      <!-- 0.60 -->
      <g transform="translate(24.754375 244.397696) scale(0.1 -0.1)">
       <defs>
        <path id="DejaVuSans-36" d="M 2113 2584 
Q 1688 2584 1439 2293 
Q 1191 2003 1191 1497 
Q 1191 994 1439 701 
Q 1688 409 2113 409 
Q 2538 409 2786 701 
Q 3034 994 3034 1497 
Q 3034 2003 2786 2293 
Q 2538 2584 2113 2584 
z
M 3366 4563 
L 3366 3988 
Q 3128 4100 2886 4159 
Q 2644 4219 2406 4219 
Q 1781 4219 1451 3797 
Q 1122 3375 1075 2522 
Q 1259 2794 1537 2939 
Q 1816 3084 2150 3084 
Q 2853 3084 3261 2657 
Q 3669 2231 3669 1497 
Q 3669 778 3244 343 
Q 2819 -91 2113 -91 
Q 1303 -91 875 529 
Q 447 1150 447 2328 
Q 447 3434 972 4092 
Q 1497 4750 2381 4750 
Q 2619 4750 2861 4703 
Q 3103 4656 3366 4563 
z
" transform="scale(0.015625)"/>
       </defs>
       <use xlink:href="#DejaVuSans-30"/>
       <use xlink:href="#DejaVuSans-2e" transform="translate(63.623047 0)"/>
       <use xlink:href="#DejaVuSans-36" transform="translate(95.410156 0)"/>
       <use xlink:href="#DejaVuSans-30" transform="translate(159.033203 0)"/>
      </g>
     </g>
    </g>
    <g id="ytick_4">
     <g id="line2d_17">
      <path d="M 54.02 184.227737 
L 709.2 184.227737 
" clip-path="url(#p4595dec6bf)" style="fill: none; stroke: #b0b0b0; stroke-width: 0.8; stroke-linecap: square"/>
     </g>
     <g id="line2d_18">
      <g>
       <use xlink:href="#mb3480f8ce2" x="54.02" y="184.227737" style="stroke: #000000; stroke-width: 0.8"/>
      </g>
     </g>
     <g id="text_10">
      <!-- 0.65 -->
      <g transform="translate(24.754375 188.026956) scale(0.1 -0.1)">
       <use xlink:href="#DejaVuSans-30"/>
       <use xlink:href="#DejaVuSans-2e" transform="translate(63.623047 0)"/>
       <use xlink:href="#DejaVuSans-36" transform="translate(95.410156 0)"/>
       <use xlink:href="#DejaVuSans-35" transform="translate(159.033203 0)"/>
      </g>
     </g>
    </g>
    <g id="ytick_5">
     <g id="line2d_19">
      <path d="M 54.02 127.856996 
L 709.2 127.856996 
" clip-path="url(#p4595dec6bf)" style="fill: none; stroke: #b0b0b0; stroke-width: 0.8; stroke-linecap: square"/>
     </g>
     <g id="line2d_20">
      <g>
       <use xlink:href="#mb3480f8ce2" x="54.02" y="127.856996" style="stroke: #000000; stroke-width: 0.8"/>
      </g>
     </g>
     <g id="text_11">
      <!-- 0.70 -->
      <g transform="translate(24.754375 131.656215) scale(0.1 -0.1)">
       <defs>
        <path id="DejaVuSans-37" d="M 525 4666 
L 3525 4666 
L 3525 4397 
L 1831 0 
L 1172 0 
L 2766 4134 
L 525 4134 
L 525 4666 
z
" transform="scale(0.015625)"/>
       </defs>
       <use xlink:href="#DejaVuSans-30"/>
       <use xlink:href="#DejaVuSans-2e" transform="translate(63.623047 0)"/>
       <use xlink:href="#DejaVuSans-37" transform="translate(95.410156 0)"/>
       <use xlink:href="#DejaVuSans-30" transform="translate(159.033203 0)"/>
      </g>
     </g>
    </g>
    <g id="ytick_6">
     <g id="line2d_21">
      <path d="M 54.02 71.486255 
L 709.2 71.486255 
" clip-path="url(#p4595dec6bf)" style="fill: none; stroke: #b0b0b0; stroke-width: 0.8; stroke-linecap: square"/>
     </g>
     <g id="line2d_22">
      <g>
       <use xlink:href="#mb3480f8ce2" x="54.02" y="71.486255" style="stroke: #000000; stroke-width: 0.8"/>
      </g>
     </g>
     <g id="text_12">
      <!-- 0.75 -->
      <g transform="translate(24.754375 75.285474) scale(0.1 -0.1)">
       <use xlink:href="#DejaVuSans-30"/>
       <use xlink:href="#DejaVuSans-2e" transform="translate(63.623047 0)"/>
       <use xlink:href="#DejaVuSans-37" transform="translate(95.410156 0)"/>
       <use xlink:href="#DejaVuSans-35" transform="translate(159.033203 0)"/>
      </g>
     </g>
    </g>
    <g id="ytick_7">
     <g id="line2d_23">
      <path d="M 54.02 15.115514 
L 709.2 15.115514 
" clip-path="url(#p4595dec6bf)" style="fill: none; stroke: #b0b0b0; stroke-width: 0.8; stroke-linecap: square"/>
     </g>
     <g id="line2d_24">
      <g>
       <use xlink:href="#mb3480f8ce2" x="54.02" y="15.115514" style="stroke: #000000; stroke-width: 0.8"/>
      </g>
     </g>
     <g id="text_13">
      <!-- 0.80 -->
      <g transform="translate(24.754375 18.914733) scale(0.1 -0.1)">
       <defs>
        <path id="DejaVuSans-38" d="M 2034 2216 
Q 1584 2216 1326 1975 
Q 1069 1734 1069 1313 
Q 1069 891 1326 650 
Q 1584 409 2034 409 
Q 2484 409 2743 651 
Q 3003 894 3003 1313 
Q 3003 1734 2745 1975 
Q 2488 2216 2034 2216 
z
M 1403 2484 
Q 997 2584 770 2862 
Q 544 3141 544 3541 
Q 544 4100 942 4425 
Q 1341 4750 2034 4750 
Q 2731 4750 3128 4425 
Q 3525 4100 3525 3541 
Q 3525 3141 3298 2862 
Q 3072 2584 2669 2484 
Q 3125 2378 3379 2068 
Q 3634 1759 3634 1313 
Q 3634 634 3220 271 
Q 2806 -91 2034 -91 
Q 1263 -91 848 271 
Q 434 634 434 1313 
Q 434 1759 690 2068 
Q 947 2378 1403 2484 
z
M 1172 3481 
Q 1172 3119 1398 2916 
Q 1625 2713 2034 2713 
Q 2441 2713 2670 2916 
Q 2900 3119 2900 3481 
Q 2900 3844 2670 4047 
Q 2441 4250 2034 4250 
Q 1625 4250 1398 4047 
Q 1172 3844 1172 3481 
z
" transform="scale(0.015625)"/>
       </defs>
       <use xlink:href="#DejaVuSans-30"/>
       <use xlink:href="#DejaVuSans-2e" transform="translate(63.623047 0)"/>
       <use xlink:href="#DejaVuSans-38" transform="translate(95.410156 0)"/>
       <use xlink:href="#DejaVuSans-30" transform="translate(159.033203 0)"/>
      </g>
     </g>
    </g>
    <g id="text_14">
     <!-- Accuracy on Test -->
     <g transform="translate(18.674688 243.173061) rotate(-90) scale(0.1 -0.1)">
      <defs>
       <path id="DejaVuSans-41" d="M 2188 4044 
L 1331 1722 
L 3047 1722 
L 2188 4044 
z
M 1831 4666 
L 2547 4666 
L 4325 0 
L 3669 0 
L 3244 1197 
L 1141 1197 
L 716 0 
L 50 0 
L 1831 4666 
z
" transform="scale(0.015625)"/>
       <path id="DejaVuSans-63" d="M 3122 3366 
L 3122 2828 
Q 2878 2963 2633 3030 
Q 2388 3097 2138 3097 
Q 1578 3097 1268 2742 
Q 959 2388 959 1747 
Q 959 1106 1268 751 
Q 1578 397 2138 397 
Q 2388 397 2633 464 
Q 2878 531 3122 666 
L 3122 134 
Q 2881 22 2623 -34 
Q 2366 -91 2075 -91 
Q 1284 -91 818 406 
Q 353 903 353 1747 
Q 353 2603 823 3093 
Q 1294 3584 2113 3584 
Q 2378 3584 2631 3529 
Q 2884 3475 3122 3366 
z
" transform="scale(0.015625)"/>
       <path id="DejaVuSans-75" d="M 544 1381 
L 544 3500 
L 1119 3500 
L 1119 1403 
Q 1119 906 1312 657 
Q 1506 409 1894 409 
Q 2359 409 2629 706 
Q 2900 1003 2900 1516 
L 2900 3500 
L 3475 3500 
L 3475 0 
L 2900 0 
L 2900 538 
Q 2691 219 2414 64 
Q 2138 -91 1772 -91 
Q 1169 -91 856 284 
Q 544 659 544 1381 
z
M 1991 3584 
L 1991 3584 
z
" transform="scale(0.015625)"/>
       <path id="DejaVuSans-72" d="M 2631 2963 
Q 2534 3019 2420 3045 
Q 2306 3072 2169 3072 
Q 1681 3072 1420 2755 
Q 1159 2438 1159 1844 
L 1159 0 
L 581 0 
L 581 3500 
L 1159 3500 
L 1159 2956 
Q 1341 3275 1631 3429 
Q 1922 3584 2338 3584 
Q 2397 3584 2469 3576 
Q 2541 3569 2628 3553 
L 2631 2963 
z
" transform="scale(0.015625)"/>
       <path id="DejaVuSans-61" d="M 2194 1759 
Q 1497 1759 1228 1600 
Q 959 1441 959 1056 
Q 959 750 1161 570 
Q 1363 391 1709 391 
Q 2188 391 2477 730 
Q 2766 1069 2766 1631 
L 2766 1759 
L 2194 1759 
z
M 3341 1997 
L 3341 0 
L 2766 0 
L 2766 531 
Q 2569 213 2275 61 
Q 1981 -91 1556 -91 
Q 1019 -91 701 211 
Q 384 513 384 1019 
Q 384 1609 779 1909 
Q 1175 2209 1959 2209 
L 2766 2209 
L 2766 2266 
Q 2766 2663 2505 2880 
Q 2244 3097 1772 3097 
Q 1472 3097 1187 3025 
Q 903 2953 641 2809 
L 641 3341 
Q 956 3463 1253 3523 
Q 1550 3584 1831 3584 
Q 2591 3584 2966 3190 
Q 3341 2797 3341 1997 
z
" transform="scale(0.015625)"/>
       <path id="DejaVuSans-79" d="M 2059 -325 
Q 1816 -950 1584 -1140 
Q 1353 -1331 966 -1331 
L 506 -1331 
L 506 -850 
L 844 -850 
Q 1081 -850 1212 -737 
Q 1344 -625 1503 -206 
L 1606 56 
L 191 3500 
L 800 3500 
L 1894 763 
L 2988 3500 
L 3597 3500 
L 2059 -325 
z
" transform="scale(0.015625)"/>
       <path id="DejaVuSans-20" transform="scale(0.015625)"/>
       <path id="DejaVuSans-6e" d="M 3513 2113 
L 3513 0 
L 2938 0 
L 2938 2094 
Q 2938 2591 2744 2837 
Q 2550 3084 2163 3084 
Q 1697 3084 1428 2787 
Q 1159 2491 1159 1978 
L 1159 0 
L 581 0 
L 581 3500 
L 1159 3500 
L 1159 2956 
Q 1366 3272 1645 3428 
Q 1925 3584 2291 3584 
Q 2894 3584 3203 3211 
Q 3513 2838 3513 2113 
z
" transform="scale(0.015625)"/>
       <path id="DejaVuSans-54" d="M -19 4666 
L 3928 4666 
L 3928 4134 
L 2272 4134 
L 2272 0 
L 1638 0 
L 1638 4134 
L -19 4134 
L -19 4666 
z
" transform="scale(0.015625)"/>
       <path id="DejaVuSans-74" d="M 1172 4494 
L 1172 3500 
L 2356 3500 
L 2356 3053 
L 1172 3053 
L 1172 1153 
Q 1172 725 1289 603 
Q 1406 481 1766 481 
L 2356 481 
L 2356 0 
L 1766 0 
Q 1100 0 847 248 
Q 594 497 594 1153 
L 594 3053 
L 172 3053 
L 172 3500 
L 594 3500 
L 594 4494 
L 1172 4494 
z
" transform="scale(0.015625)"/>
      </defs>
      <use xlink:href="#DejaVuSans-41"/>
      <use xlink:href="#DejaVuSans-63" transform="translate(66.658203 0)"/>
      <use xlink:href="#DejaVuSans-63" transform="translate(121.638672 0)"/>
      <use xlink:href="#DejaVuSans-75" transform="translate(176.619141 0)"/>
      <use xlink:href="#DejaVuSans-72" transform="translate(239.998047 0)"/>
      <use xlink:href="#DejaVuSans-61" transform="translate(281.111328 0)"/>
      <use xlink:href="#DejaVuSans-63" transform="translate(342.390625 0)"/>
      <use xlink:href="#DejaVuSans-79" transform="translate(397.371094 0)"/>
      <use xlink:href="#DejaVuSans-20" transform="translate(456.550781 0)"/>
      <use xlink:href="#DejaVuSans-6f" transform="translate(488.337891 0)"/>
      <use xlink:href="#DejaVuSans-6e" transform="translate(549.519531 0)"/>
      <use xlink:href="#DejaVuSans-20" transform="translate(612.898438 0)"/>
      <use xlink:href="#DejaVuSans-54" transform="translate(644.685547 0)"/>
      <use xlink:href="#DejaVuSans-65" transform="translate(688.769531 0)"/>
      <use xlink:href="#DejaVuSans-73" transform="translate(750.292969 0)"/>
      <use xlink:href="#DejaVuSans-74" transform="translate(802.392578 0)"/>
     </g>
    </g>
   </g>
   <g id="line2d_25">
    <path d="M 83.800909 295.107589 
L 86.610429 290.601409 
L 89.419949 284.755555 
L 92.229468 280.31897 
L 95.038988 275.395228 
L 97.848508 287.80027 
L 100.658027 285.729862 
L 103.467547 289.661895 
L 106.277067 292.584823 
L 109.086587 292.793601 
L 111.896106 300.988237 
L 114.705626 295.559946 
L 117.515146 314.419785 
L 120.324666 315.394094 
L 123.134185 318.821573 
L 125.943705 321.605315 
L 128.753225 316.28141 
L 131.562744 308.747914 
L 134.372264 307.338645 
L 137.181784 298.691652 
L 139.991304 300.814253 
L 142.800823 292.932788 
L 145.610343 304.746286 
L 148.419863 303.354416 
L 151.229383 291.697503 
L 154.038902 285.451486 
L 156.848422 295.26417 
L 159.657942 293.854902 
L 162.467461 295.890512 
L 165.276981 294.272463 
L 168.086501 284.164008 
L 170.896021 290.288235 
L 173.70554 282.128397 
L 176.51506 273.324818 
L 179.32458 272.054736 
L 182.134099 251.733432 
L 184.943619 250.863514 
L 187.753139 239.380584 
L 190.562659 251.629043 
L 193.372178 234.265465 
L 196.181698 227.340912 
L 198.991218 226.714571 
L 201.800738 235.431157 
L 204.610257 223.878636 
L 207.419777 228.680588 
L 210.229297 234.439451 
L 213.038816 251.211484 
L 215.848336 240.494085 
L 218.657856 247.592622 
L 221.467376 242.599286 
L 224.276895 226.349202 
L 227.086415 228.280422 
L 229.895935 218.293753 
L 232.705455 216.066762 
L 235.514974 195.293099 
L 238.324494 184.210334 
L 241.134014 167.229518 
L 243.943533 171.735698 
L 246.753053 171.561715 
L 249.562573 170.778788 
L 252.372093 159.435045 
L 255.181612 152.597484 
L 257.991132 175.754723 
L 260.800652 178.381879 
L 263.610172 165.17651 
L 266.419691 159.904803 
L 269.229211 164.097812 
L 272.038731 171.039763 
L 274.84825 186.854889 
L 277.65777 177.772937 
L 280.46729 195.989038 
L 283.27681 184.523508 
L 286.086329 172.170659 
L 288.895849 151.3622 
L 291.705369 137.739271 
L 294.514889 154.302525 
L 297.324408 149.761549 
L 300.133928 133.963823 
L 302.943448 121.35 
L 305.752967 130.919107 
L 308.562487 129.596829 
L 311.372007 126.238942 
L 314.181527 130.884309 
L 316.991046 127.21325 
L 319.800566 125.299429 
L 322.610086 124.098939 
L 325.419605 122.776662 
L 328.229125 119.627556 
L 331.038645 117.069995 
L 333.848165 118.844629 
L 336.657684 117.504955 
L 339.467204 113.433734 
L 342.276724 108.753571 
L 345.086244 112.998775 
L 347.895763 110.197636 
L 350.705283 109.919262 
L 356.324322 110.145441 
L 359.133842 114.060076 
L 361.943362 111.746091 
L 364.752882 114.738612 
L 367.562401 123.76837 
L 370.371921 128.413735 
L 373.181441 134.642354 
L 375.990961 132.241378 
L 378.80048 122.028532 
L 381.61 118.096499 
L 384.41952 112.372433 
L 387.229039 108.353408 
L 390.038559 107.831457 
L 392.848079 108.127229 
L 395.657599 112.059263 
L 398.467118 109.101539 
L 401.276638 108.457798 
L 404.086158 105.639261 
L 406.895678 105.413082 
L 409.705197 106.630969 
L 412.514717 111.780888 
L 415.324237 117.365767 
L 418.133756 116.408856 
L 420.943276 117.905116 
L 423.752796 112.459425 
L 426.562316 109.675684 
L 429.371835 114.060076 
L 432.181355 111.554709 
L 434.990875 107.326904 
L 437.800395 109.327717 
L 440.609914 108.927554 
L 443.419434 111.589506 
L 446.228954 108.910156 
L 449.038473 107.448693 
L 451.847993 106.630969 
L 454.657513 108.596985 
L 457.467033 105.587066 
L 460.276552 106.804952 
L 463.086072 108.910156 
L 465.895592 112.302838 
L 468.705111 119.853733 
L 471.514631 119.088206 
L 474.324151 133.250484 
L 477.133671 112.772595 
L 479.94319 108.579587 
L 482.75271 106.978936 
L 485.56223 105.708854 
L 488.37175 110.980563 
L 491.181269 108.162025 
L 493.990789 122.585279 
L 496.800309 133.441866 
L 499.609828 149.535363 
L 505.228868 163.245284 
L 508.038388 167.734065 
L 510.847907 165.072113 
L 513.657427 151.292599 
L 516.466947 148.665445 
L 519.276467 133.737638 
L 522.085986 117.296173 
L 524.895506 109.675684 
L 527.705026 106.352594 
L 530.514545 115.434546 
L 533.324065 108.423001 
L 536.133585 120.236499 
L 538.943105 141.410323 
L 541.752624 116.530645 
L 544.562144 109.066741 
L 547.371664 111.22414 
L 550.181184 106.944139 
L 552.990703 107.135522 
L 555.800223 107.483489 
L 558.609743 114.44284 
L 561.419262 114.355848 
L 564.228782 104.786741 
L 569.847822 108.179424 
L 572.657341 107.013733 
L 575.466861 105.587066 
L 578.276381 106.178611 
L 581.085901 106.439586 
L 583.89542 105.413082 
L 586.70494 107.344302 
L 589.51446 107.344302 
L 592.323979 110.406417 
L 595.133499 108.4404 
L 597.943019 112.302838 
L 600.752539 134.450974 
L 603.562058 121.506581 
L 606.371578 109.466904 
L 609.181098 111.885278 
L 611.990617 115.051783 
L 614.800137 122.011133 
L 617.609657 116.983002 
L 620.419177 113.46853 
L 623.228696 117.052596 
L 626.038216 131.702028 
L 628.847736 119.940725 
L 631.657256 115.29536 
L 634.466775 116.234871 
L 637.276295 111.85048 
L 640.085815 107.935847 
L 642.895334 108.562188 
L 645.704854 109.014546 
L 648.514374 108.075034 
L 651.323894 103.377472 
L 654.133413 110.093245 
L 656.942933 114.564628 
L 659.752453 106.126416 
L 662.561973 119.053408 
L 665.371492 110.528205 
L 668.181012 110.528205 
L 670.990532 107.657473 
L 673.800051 117.365766 
L 676.609571 113.155359 
L 679.419091 112.059261 
L 679.419091 112.059261 
" clip-path="url(#p4595dec6bf)" style="fill: none; stroke: #1f77b4; stroke-width: 1.5; stroke-linecap: square"/>
   </g>
   <g id="patch_3">
    <path d="M 54.02 390.04 
L 54.02 12.146748 
" style="fill: none; stroke: #000000; stroke-width: 0.8; stroke-linejoin: miter; stroke-linecap: square"/>
   </g>
   <g id="patch_4">
    <path d="M 709.2 390.04 
L 709.2 12.146748 
" style="fill: none; stroke: #000000; stroke-width: 0.8; stroke-linejoin: miter; stroke-linecap: square"/>
   </g>
   <g id="patch_5">
    <path d="M 54.02 390.04 
L 709.2 390.04 
" style="fill: none; stroke: #000000; stroke-width: 0.8; stroke-linejoin: miter; stroke-linecap: square"/>
   </g>
   <g id="patch_6">
    <path d="M 54.02 12.146748 
L 709.2 12.146748 
" style="fill: none; stroke: #000000; stroke-width: 0.8; stroke-linejoin: miter; stroke-linecap: square"/>
   </g>
  </g>
 </g>
 <defs>
  <clipPath id="p4595dec6bf">
   <rect x="54.02" y="12.146748" width="655.18" height="377.893252"/>
  </clipPath>
 </defs>
</svg>
