<?xml version="1.0" encoding="utf-8" standalone="no"?>
<!DOCTYPE svg PUBLIC "-//W3C//DTD SVG 1.1//EN"
  "http://www.w3.org/Graphics/SVG/1.1/DTD/svg11.dtd">
<svg xmlns:xlink="http://www.w3.org/1999/xlink" width="720pt" height="432pt" viewBox="0 0 720 432" xmlns="http://www.w3.org/2000/svg" version="1.1">
 <metadata>
  <rdf:RDF xmlns:dc="http://purl.org/dc/elements/1.1/" xmlns:cc="http://creativecommons.org/ns#" xmlns:rdf="http://www.w3.org/1999/02/22-rdf-syntax-ns#">
   <cc:Work>
    <dc:type rdf:resource="http://purl.org/dc/dcmitype/StillImage"/>
    <dc:date>2025-04-16T01:19:40.077670</dc:date>
    <dc:format>image/svg+xml</dc:format>
    <dc:creator>
     <cc:Agent>
      <dc:title>Matplotlib v3.10.0, https://matplotlib.org/</dc:title>
     </cc:Agent>
    </dc:creator>
   </cc:Work>
  </rdf:RDF>
 </metadata>
 <defs>
  <style type="text/css">*{stroke-linejoin: round; stroke-linecap: butt}</style>
 </defs>
 <g id="figure_1">
  <g id="patch_1">
   <path d="M 0 432 
L 720 432 
L 720 0 
L 0 0 
z
" style="fill: #ffffff"/>
  </g>
  <g id="axes_1">
   <g id="patch_2">
    <path d="M 47.72 390.04 
L 709.2 390.04 
L 709.2 10.8 
L 47.72 10.8 
z
" style="fill: #ffffff"/>
   </g>
   <g id="FillBetweenPolyCollection_1">
    <path d="M 77.787273 29.581679 
L 77.787273 244.240126 
L 81.223532 234.217235 
L 84.659792 230.990645 
L 88.096052 226.772237 
L 91.532312 206.397347 
L 94.968571 228.568912 
L 98.404831 229.99269 
L 101.841091 246.990087 
L 105.277351 249.001972 
L 108.71361 250.292612 
L 112.14987 253.034047 
L 115.58613 252.920674 
L 119.02239 252.150258 
L 122.458649 250.450176 
L 125.894909 245.476923 
L 129.331169 247.217556 
L 132.767429 248.390922 
L 136.203688 245.292852 
L 139.639948 245.810697 
L 143.076208 242.272281 
L 146.512468 242.685227 
L 149.948727 243.136922 
L 153.384987 245.185603 
L 156.821247 244.174963 
L 160.257506 242.35213 
L 163.693766 241.487488 
L 167.130026 241.713336 
L 170.566286 241.952884 
L 174.002545 241.32779 
L 177.438805 242.963524 
L 180.875065 243.029673 
L 184.311325 242.577978 
L 187.747584 241.952884 
L 191.183844 241.952884 
L 194.620104 241.793185 
L 198.056364 241.32779 
L 201.492623 241.952884 
L 204.928883 242.272281 
L 208.365143 242.671527 
L 211.801403 241.32779 
L 215.237662 242.591678 
L 218.673922 241.407639 
L 222.110182 242.911075 
L 225.546442 242.445679 
L 228.982701 241.487488 
L 232.418961 242.046433 
L 235.855221 242.883675 
L 239.291481 241.939184 
L 242.72774 243.123222 
L 246.164 241.793185 
L 249.60026 241.168091 
L 253.036519 241.793185 
L 256.472779 242.657827 
L 259.909039 241.633487 
L 263.345299 241.633487 
L 266.781558 241.32779 
L 270.217818 241.008393 
L 273.654078 241.32779 
L 277.090338 241.487488 
L 280.526597 244.334661 
L 283.962857 243.150622 
L 287.399117 244.893606 
L 290.835377 243.244172 
L 294.271636 243.549869 
L 297.707896 243.723267 
L 301.144156 242.219831 
L 304.580416 242.046433 
L 308.016675 244.295912 
L 311.452935 244.122513 
L 314.889195 242.445679 
L 318.325455 243.483719 
L 321.761714 242.765076 
L 325.197974 243.588618 
L 328.634234 241.793185 
L 332.070494 241.32779 
L 335.506753 241.633487 
L 338.943013 241.473788 
L 342.379273 241.008393 
L 345.815532 242.431979 
L 349.251792 241.168091 
L 352.688052 243.070773 
L 356.124312 242.272281 
L 359.560571 241.168091 
L 362.996831 241.633487 
L 366.433091 241.32779 
L 369.869351 241.487488 
L 373.30561 241.473788 
L 376.74187 241.32779 
L 380.17813 241.567337 
L 383.61439 245.133153 
L 387.050649 244.295912 
L 390.486909 244.681458 
L 393.923169 245.320252 
L 397.359429 244.188662 
L 400.795688 242.112582 
L 404.231948 242.285981 
L 407.668208 243.549869 
L 411.104468 241.168091 
L 414.540727 242.35213 
L 417.976987 241.966584 
L 421.413247 247.843327 
L 424.849506 287.707642 
L 428.285766 321.122645 
L 431.722026 325.47393 
L 435.158286 329.981886 
L 438.594545 332.557568 
L 442.030805 332.794013 
L 445.467065 334.150616 
L 448.903325 334.466228 
L 452.339584 336.619201 
L 455.775844 334.978007 
L 459.212104 334.093005 
L 462.648364 337.157622 
L 466.084623 337.9714 
L 469.520883 336.200568 
L 472.957143 335.987965 
L 476.393403 336.183853 
L 479.829662 334.971207 
L 483.265922 334.758301 
L 486.702182 336.762475 
L 490.138442 346.233111 
L 493.574701 361.386882 
L 497.010961 368.551729 
L 500.447221 371.545955 
L 503.883481 372.383197 
L 507.31974 372.030726 
L 510.756 372.176724 
L 514.19226 372.449347 
L 517.628519 372.801818 
L 521.064779 371.904102 
L 524.501039 368.809356 
L 527.937299 362.228643 
L 531.373558 358.668502 
L 534.809818 358.109557 
L 538.246078 357.470763 
L 541.682338 357.390914 
L 545.118597 356.911818 
L 548.554857 356.831969 
L 551.991117 356.672271 
L 555.427377 356.991668 
L 558.863636 356.672271 
L 562.299896 356.911818 
L 565.736156 356.672271 
L 569.172416 356.672271 
L 572.608675 356.672271 
L 576.044935 356.672271 
L 579.481195 356.911818 
L 582.917455 356.75212 
L 586.353714 356.672271 
L 589.789974 356.831969 
L 593.226234 356.75212 
L 596.662494 356.672271 
L 600.098753 356.672271 
L 603.535013 356.911818 
L 606.971273 356.672271 
L 610.407532 358.508803 
L 613.843792 356.75212 
L 617.280052 357.151366 
L 620.716312 356.672271 
L 624.152571 356.672271 
L 627.588831 356.672271 
L 631.025091 356.672271 
L 634.461351 356.75212 
L 637.89761 356.672271 
L 641.33387 357.071517 
L 644.77013 356.75212 
L 648.20639 356.75212 
L 651.642649 356.672271 
L 655.078909 356.75212 
L 658.515169 356.672271 
L 661.951429 356.672271 
L 665.387688 356.672271 
L 668.823948 356.831969 
L 672.260208 356.672271 
L 675.696468 356.672271 
L 679.132727 356.911818 
L 679.132727 355.276084 
L 679.132727 355.276084 
L 675.696468 356.672271 
L 672.260208 356.672271 
L 668.823948 355.74148 
L 665.387688 356.672271 
L 661.951429 356.672271 
L 658.515169 356.672271 
L 655.078909 356.206875 
L 651.642649 356.672271 
L 648.20639 356.206875 
L 644.77013 356.206875 
L 641.33387 354.345293 
L 637.89761 356.672271 
L 634.461351 356.206875 
L 631.025091 356.672271 
L 627.588831 356.672271 
L 624.152571 356.672271 
L 620.716312 356.672271 
L 617.280052 353.879898 
L 613.843792 356.206875 
L 610.407532 345.968174 
L 606.971273 356.672271 
L 603.535013 355.276084 
L 600.098753 356.672271 
L 596.662494 356.672271 
L 593.226234 356.206875 
L 589.789974 355.74148 
L 586.353714 356.672271 
L 582.917455 356.206875 
L 579.481195 355.276084 
L 576.044935 356.672271 
L 572.608675 356.672271 
L 569.172416 356.672271 
L 565.736156 356.672271 
L 562.299896 355.276084 
L 558.863636 356.672271 
L 555.427377 354.810689 
L 551.991117 356.672271 
L 548.554857 355.74148 
L 545.118597 355.276084 
L 541.682338 352.483711 
L 538.246078 352.018316 
L 534.809818 348.295152 
L 531.373558 345.037383 
L 527.937299 322.971021 
L 524.501039 285.932154 
L 521.064779 263.945641 
L 517.628519 262.662379 
L 514.19226 263.400397 
L 510.756 263.673019 
L 507.31974 261.891286 
L 503.883481 261.153268 
L 500.447221 258.135047 
L 497.010961 249.17734 
L 493.574701 226.655125 
L 490.138442 209.42301 
L 486.702182 208.869443 
L 483.265922 210.102525 
L 479.829662 213.359535 
L 476.393403 195.182854 
L 472.957143 199.61975 
L 469.520883 189.768491 
L 466.084623 169.105892 
L 462.648364 185.341521 
L 459.212104 185.707314 
L 455.775844 212.967189 
L 452.339584 197.060784 
L 448.903325 220.033254 
L 445.467065 224.204329 
L 442.030805 217.850007 
L 438.594545 208.833341 
L 435.158286 214.87894 
L 431.722026 217.459165 
L 428.285766 216.027256 
L 424.849506 232.092677 
L 421.413247 238.028921 
L 417.976987 235.423647 
L 414.540727 235.809193 
L 411.104468 240.077602 
L 407.668208 228.82826 
L 404.231948 233.562065 
L 400.795688 237.205379 
L 397.359429 225.105096 
L 393.923169 215.877035 
L 390.486909 219.600199 
L 387.050649 219.214653 
L 383.61439 222.232874 
L 380.17813 237.750624 
L 376.74187 239.146811 
L 373.30561 240.928543 
L 369.869351 238.21602 
L 366.433091 239.146811 
L 362.996831 239.997752 
L 359.560571 240.077602 
L 356.124312 236.274588 
L 352.688052 231.620633 
L 349.251792 240.077602 
L 345.815532 235.343797 
L 342.379273 241.008393 
L 338.943013 240.928543 
L 335.506753 239.997752 
L 332.070494 239.146811 
L 328.634234 239.066961 
L 325.197974 236.500436 
L 321.761714 230.769692 
L 318.325455 226.581132 
L 314.889195 232.631274 
L 311.452935 222.857968 
L 308.016675 219.214653 
L 304.580416 234.958251 
L 301.144156 231.314936 
L 297.707896 225.184945 
L 294.271636 228.82826 
L 290.835377 227.977319 
L 287.399117 223.62906 
L 283.962857 231.155238 
L 280.526597 226.886829 
L 277.090338 238.21602 
L 273.654078 239.146811 
L 270.217818 241.008393 
L 266.781558 239.146811 
L 263.345299 239.997752 
L 259.909039 239.997752 
L 256.472779 236.660135 
L 253.036519 239.066961 
L 249.60026 240.077602 
L 246.164 239.066961 
L 242.72774 236.580285 
L 239.291481 240.848694 
L 235.855221 237.976472 
L 232.418961 234.958251 
L 228.982701 238.21602 
L 225.546442 232.631274 
L 222.110182 232.551424 
L 218.673922 238.681415 
L 215.237662 234.413006 
L 211.801403 239.146811 
L 208.365143 233.947611 
L 204.928883 236.274588 
L 201.492623 238.13617 
L 198.056364 239.146811 
L 194.620104 239.066961 
L 191.183844 238.13617 
L 187.747584 238.13617 
L 184.311325 237.12553 
L 180.875065 239.758205 
L 177.438805 237.511076 
L 174.002545 239.146811 
L 170.566286 238.13617 
L 167.130026 239.532357 
L 163.693766 238.21602 
L 160.257506 235.809193 
L 156.821247 227.81762 
L 153.384987 227.192526 
L 149.948727 233.867762 
L 146.512468 231.235087 
L 143.076208 236.274588 
L 139.639948 226.181886 
L 136.203688 221.302083 
L 132.767429 221.673929 
L 129.331169 220.148471 
L 125.894909 211.864901 
L 122.458649 211.132657 
L 119.02239 199.793919 
L 115.58613 181.673921 
L 112.14987 156.500041 
L 108.71361 104.108361 
L 105.277351 84.579503 
L 101.841091 53.819956 
L 98.404831 47.299031 
L 94.968571 43.710708 
L 91.532312 31.183109 
L 88.096052 37.410912 
L 84.659792 38.590151 
L 81.223532 28.038182 
L 77.787273 29.581679 
z
" clip-path="url(#p02deb3314f)" style="fill: #1f77b4; fill-opacity: 0.2"/>
   </g>
   <g id="matplotlib.axis_1">
    <g id="xtick_1">
     <g id="line2d_1">
      <path d="M 76.051962 390.04 
L 76.051962 10.8 
" clip-path="url(#p02deb3314f)" style="fill: none; stroke: #b0b0b0; stroke-width: 0.8; stroke-linecap: square"/>
     </g>
     <g id="line2d_2">
      <defs>
       <path id="m70f5f0a934" d="M 0 0 
L 0 3.5 
" style="stroke: #000000; stroke-width: 0.8"/>
      </defs>
      <g>
       <use xlink:href="#m70f5f0a934" x="76.051962" y="390.04" style="stroke: #000000; stroke-width: 0.8"/>
      </g>
     </g>
     <g id="text_1">
      <!-- 0 -->
      <g transform="translate(72.870712 404.638438) scale(0.1 -0.1)">
       <defs>
        <path id="DejaVuSans-30" d="M 2034 4250 
Q 1547 4250 1301 3770 
Q 1056 3291 1056 2328 
Q 1056 1369 1301 889 
Q 1547 409 2034 409 
Q 2525 409 2770 889 
Q 3016 1369 3016 2328 
Q 3016 3291 2770 3770 
Q 2525 4250 2034 4250 
z
M 2034 4750 
Q 2819 4750 3233 4129 
Q 3647 3509 3647 2328 
Q 3647 1150 3233 529 
Q 2819 -91 2034 -91 
Q 1250 -91 836 529 
Q 422 1150 422 2328 
Q 422 3509 836 4129 
Q 1250 4750 2034 4750 
z
" transform="scale(0.015625)"/>
       </defs>
       <use xlink:href="#DejaVuSans-30"/>
      </g>
     </g>
    </g>
    <g id="xtick_2">
     <g id="line2d_3">
      <path d="M 161.958455 390.04 
L 161.958455 10.8 
" clip-path="url(#p02deb3314f)" style="fill: none; stroke: #b0b0b0; stroke-width: 0.8; stroke-linecap: square"/>
     </g>
     <g id="line2d_4">
      <g>
       <use xlink:href="#m70f5f0a934" x="161.958455" y="390.04" style="stroke: #000000; stroke-width: 0.8"/>
      </g>
     </g>
     <g id="text_2">
      <!-- 5000 -->
      <g transform="translate(149.233455 404.638438) scale(0.1 -0.1)">
       <defs>
        <path id="DejaVuSans-35" d="M 691 4666 
L 3169 4666 
L 3169 4134 
L 1269 4134 
L 1269 2991 
Q 1406 3038 1543 3061 
Q 1681 3084 1819 3084 
Q 2600 3084 3056 2656 
Q 3513 2228 3513 1497 
Q 3513 744 3044 326 
Q 2575 -91 1722 -91 
Q 1428 -91 1123 -41 
Q 819 9 494 109 
L 494 744 
Q 775 591 1075 516 
Q 1375 441 1709 441 
Q 2250 441 2565 725 
Q 2881 1009 2881 1497 
Q 2881 1984 2565 2268 
Q 2250 2553 1709 2553 
Q 1456 2553 1204 2497 
Q 953 2441 691 2322 
L 691 4666 
z
" transform="scale(0.015625)"/>
       </defs>
       <use xlink:href="#DejaVuSans-35"/>
       <use xlink:href="#DejaVuSans-30" transform="translate(63.623047 0)"/>
       <use xlink:href="#DejaVuSans-30" transform="translate(127.246094 0)"/>
       <use xlink:href="#DejaVuSans-30" transform="translate(190.869141 0)"/>
      </g>
     </g>
    </g>
    <g id="xtick_3">
     <g id="line2d_5">
      <path d="M 247.864949 390.04 
L 247.864949 10.8 
" clip-path="url(#p02deb3314f)" style="fill: none; stroke: #b0b0b0; stroke-width: 0.8; stroke-linecap: square"/>
     </g>
     <g id="line2d_6">
      <g>
       <use xlink:href="#m70f5f0a934" x="247.864949" y="390.04" style="stroke: #000000; stroke-width: 0.8"/>
      </g>
     </g>
     <g id="text_3">
      <!-- 10000 -->
      <g transform="translate(231.958699 404.638438) scale(0.1 -0.1)">
       <defs>
        <path id="DejaVuSans-31" d="M 794 531 
L 1825 531 
L 1825 4091 
L 703 3866 
L 703 4441 
L 1819 4666 
L 2450 4666 
L 2450 531 
L 3481 531 
L 3481 0 
L 794 0 
L 794 531 
z
" transform="scale(0.015625)"/>
       </defs>
       <use xlink:href="#DejaVuSans-31"/>
       <use xlink:href="#DejaVuSans-30" transform="translate(63.623047 0)"/>
       <use xlink:href="#DejaVuSans-30" transform="translate(127.246094 0)"/>
       <use xlink:href="#DejaVuSans-30" transform="translate(190.869141 0)"/>
       <use xlink:href="#DejaVuSans-30" transform="translate(254.492188 0)"/>
      </g>
     </g>
    </g>
    <g id="xtick_4">
     <g id="line2d_7">
      <path d="M 333.771442 390.04 
L 333.771442 10.8 
" clip-path="url(#p02deb3314f)" style="fill: none; stroke: #b0b0b0; stroke-width: 0.8; stroke-linecap: square"/>
     </g>
     <g id="line2d_8">
      <g>
       <use xlink:href="#m70f5f0a934" x="333.771442" y="390.04" style="stroke: #000000; stroke-width: 0.8"/>
      </g>
     </g>
     <g id="text_4">
      <!-- 15000 -->
      <g transform="translate(317.865192 404.638438) scale(0.1 -0.1)">
       <use xlink:href="#DejaVuSans-31"/>
       <use xlink:href="#DejaVuSans-35" transform="translate(63.623047 0)"/>
       <use xlink:href="#DejaVuSans-30" transform="translate(127.246094 0)"/>
       <use xlink:href="#DejaVuSans-30" transform="translate(190.869141 0)"/>
       <use xlink:href="#DejaVuSans-30" transform="translate(254.492188 0)"/>
      </g>
     </g>
    </g>
    <g id="xtick_5">
     <g id="line2d_9">
      <path d="M 419.677936 390.04 
L 419.677936 10.8 
" clip-path="url(#p02deb3314f)" style="fill: none; stroke: #b0b0b0; stroke-width: 0.8; stroke-linecap: square"/>
     </g>
     <g id="line2d_10">
      <g>
       <use xlink:href="#m70f5f0a934" x="419.677936" y="390.04" style="stroke: #000000; stroke-width: 0.8"/>
      </g>
     </g>
     <g id="text_5">
      <!-- 20000 -->
      <g transform="translate(403.771686 404.638438) scale(0.1 -0.1)">
       <defs>
        <path id="DejaVuSans-32" d="M 1228 531 
L 3431 531 
L 3431 0 
L 469 0 
L 469 531 
Q 828 903 1448 1529 
Q 2069 2156 2228 2338 
Q 2531 2678 2651 2914 
Q 2772 3150 2772 3378 
Q 2772 3750 2511 3984 
Q 2250 4219 1831 4219 
Q 1534 4219 1204 4116 
Q 875 4013 500 3803 
L 500 4441 
Q 881 4594 1212 4672 
Q 1544 4750 1819 4750 
Q 2544 4750 2975 4387 
Q 3406 4025 3406 3419 
Q 3406 3131 3298 2873 
Q 3191 2616 2906 2266 
Q 2828 2175 2409 1742 
Q 1991 1309 1228 531 
z
" transform="scale(0.015625)"/>
       </defs>
       <use xlink:href="#DejaVuSans-32"/>
       <use xlink:href="#DejaVuSans-30" transform="translate(63.623047 0)"/>
       <use xlink:href="#DejaVuSans-30" transform="translate(127.246094 0)"/>
       <use xlink:href="#DejaVuSans-30" transform="translate(190.869141 0)"/>
       <use xlink:href="#DejaVuSans-30" transform="translate(254.492188 0)"/>
      </g>
     </g>
    </g>
    <g id="xtick_6">
     <g id="line2d_11">
      <path d="M 505.584429 390.04 
L 505.584429 10.8 
" clip-path="url(#p02deb3314f)" style="fill: none; stroke: #b0b0b0; stroke-width: 0.8; stroke-linecap: square"/>
     </g>
     <g id="line2d_12">
      <g>
       <use xlink:href="#m70f5f0a934" x="505.584429" y="390.04" style="stroke: #000000; stroke-width: 0.8"/>
      </g>
     </g>
     <g id="text_6">
      <!-- 25000 -->
      <g transform="translate(489.678179 404.638438) scale(0.1 -0.1)">
       <use xlink:href="#DejaVuSans-32"/>
       <use xlink:href="#DejaVuSans-35" transform="translate(63.623047 0)"/>
       <use xlink:href="#DejaVuSans-30" transform="translate(127.246094 0)"/>
       <use xlink:href="#DejaVuSans-30" transform="translate(190.869141 0)"/>
       <use xlink:href="#DejaVuSans-30" transform="translate(254.492188 0)"/>
      </g>
     </g>
    </g>
    <g id="xtick_7">
     <g id="line2d_13">
      <path d="M 591.490923 390.04 
L 591.490923 10.8 
" clip-path="url(#p02deb3314f)" style="fill: none; stroke: #b0b0b0; stroke-width: 0.8; stroke-linecap: square"/>
     </g>
     <g id="line2d_14">
      <g>
       <use xlink:href="#m70f5f0a934" x="591.490923" y="390.04" style="stroke: #000000; stroke-width: 0.8"/>
      </g>
     </g>
     <g id="text_7">
      <!-- 30000 -->
      <g transform="translate(575.584673 404.638438) scale(0.1 -0.1)">
       <defs>
        <path id="DejaVuSans-33" d="M 2597 2516 
Q 3050 2419 3304 2112 
Q 3559 1806 3559 1356 
Q 3559 666 3084 287 
Q 2609 -91 1734 -91 
Q 1441 -91 1130 -33 
Q 819 25 488 141 
L 488 750 
Q 750 597 1062 519 
Q 1375 441 1716 441 
Q 2309 441 2620 675 
Q 2931 909 2931 1356 
Q 2931 1769 2642 2001 
Q 2353 2234 1838 2234 
L 1294 2234 
L 1294 2753 
L 1863 2753 
Q 2328 2753 2575 2939 
Q 2822 3125 2822 3475 
Q 2822 3834 2567 4026 
Q 2313 4219 1838 4219 
Q 1578 4219 1281 4162 
Q 984 4106 628 3988 
L 628 4550 
Q 988 4650 1302 4700 
Q 1616 4750 1894 4750 
Q 2613 4750 3031 4423 
Q 3450 4097 3450 3541 
Q 3450 3153 3228 2886 
Q 3006 2619 2597 2516 
z
" transform="scale(0.015625)"/>
       </defs>
       <use xlink:href="#DejaVuSans-33"/>
       <use xlink:href="#DejaVuSans-30" transform="translate(63.623047 0)"/>
       <use xlink:href="#DejaVuSans-30" transform="translate(127.246094 0)"/>
       <use xlink:href="#DejaVuSans-30" transform="translate(190.869141 0)"/>
       <use xlink:href="#DejaVuSans-30" transform="translate(254.492188 0)"/>
      </g>
     </g>
    </g>
    <g id="xtick_8">
     <g id="line2d_15">
      <path d="M 677.397416 390.04 
L 677.397416 10.8 
" clip-path="url(#p02deb3314f)" style="fill: none; stroke: #b0b0b0; stroke-width: 0.8; stroke-linecap: square"/>
     </g>
     <g id="line2d_16">
      <g>
       <use xlink:href="#m70f5f0a934" x="677.397416" y="390.04" style="stroke: #000000; stroke-width: 0.8"/>
      </g>
     </g>
     <g id="text_8">
      <!-- 35000 -->
      <g transform="translate(661.491166 404.638438) scale(0.1 -0.1)">
       <use xlink:href="#DejaVuSans-33"/>
       <use xlink:href="#DejaVuSans-35" transform="translate(63.623047 0)"/>
       <use xlink:href="#DejaVuSans-30" transform="translate(127.246094 0)"/>
       <use xlink:href="#DejaVuSans-30" transform="translate(190.869141 0)"/>
       <use xlink:href="#DejaVuSans-30" transform="translate(254.492188 0)"/>
      </g>
     </g>
    </g>
    <g id="text_9">
     <!-- Episodes -->
     <g transform="translate(356.217813 418.316562) scale(0.1 -0.1)">
      <defs>
       <path id="DejaVuSans-45" d="M 628 4666 
L 3578 4666 
L 3578 4134 
L 1259 4134 
L 1259 2753 
L 3481 2753 
L 3481 2222 
L 1259 2222 
L 1259 531 
L 3634 531 
L 3634 0 
L 628 0 
L 628 4666 
z
" transform="scale(0.015625)"/>
       <path id="DejaVuSans-70" d="M 1159 525 
L 1159 -1331 
L 581 -1331 
L 581 3500 
L 1159 3500 
L 1159 2969 
Q 1341 3281 1617 3432 
Q 1894 3584 2278 3584 
Q 2916 3584 3314 3078 
Q 3713 2572 3713 1747 
Q 3713 922 3314 415 
Q 2916 -91 2278 -91 
Q 1894 -91 1617 61 
Q 1341 213 1159 525 
z
M 3116 1747 
Q 3116 2381 2855 2742 
Q 2594 3103 2138 3103 
Q 1681 3103 1420 2742 
Q 1159 2381 1159 1747 
Q 1159 1113 1420 752 
Q 1681 391 2138 391 
Q 2594 391 2855 752 
Q 3116 1113 3116 1747 
z
" transform="scale(0.015625)"/>
       <path id="DejaVuSans-69" d="M 603 3500 
L 1178 3500 
L 1178 0 
L 603 0 
L 603 3500 
z
M 603 4863 
L 1178 4863 
L 1178 4134 
L 603 4134 
L 603 4863 
z
" transform="scale(0.015625)"/>
       <path id="DejaVuSans-73" d="M 2834 3397 
L 2834 2853 
Q 2591 2978 2328 3040 
Q 2066 3103 1784 3103 
Q 1356 3103 1142 2972 
Q 928 2841 928 2578 
Q 928 2378 1081 2264 
Q 1234 2150 1697 2047 
L 1894 2003 
Q 2506 1872 2764 1633 
Q 3022 1394 3022 966 
Q 3022 478 2636 193 
Q 2250 -91 1575 -91 
Q 1294 -91 989 -36 
Q 684 19 347 128 
L 347 722 
Q 666 556 975 473 
Q 1284 391 1588 391 
Q 1994 391 2212 530 
Q 2431 669 2431 922 
Q 2431 1156 2273 1281 
Q 2116 1406 1581 1522 
L 1381 1569 
Q 847 1681 609 1914 
Q 372 2147 372 2553 
Q 372 3047 722 3315 
Q 1072 3584 1716 3584 
Q 2034 3584 2315 3537 
Q 2597 3491 2834 3397 
z
" transform="scale(0.015625)"/>
       <path id="DejaVuSans-6f" d="M 1959 3097 
Q 1497 3097 1228 2736 
Q 959 2375 959 1747 
Q 959 1119 1226 758 
Q 1494 397 1959 397 
Q 2419 397 2687 759 
Q 2956 1122 2956 1747 
Q 2956 2369 2687 2733 
Q 2419 3097 1959 3097 
z
M 1959 3584 
Q 2709 3584 3137 3096 
Q 3566 2609 3566 1747 
Q 3566 888 3137 398 
Q 2709 -91 1959 -91 
Q 1206 -91 779 398 
Q 353 888 353 1747 
Q 353 2609 779 3096 
Q 1206 3584 1959 3584 
z
" transform="scale(0.015625)"/>
       <path id="DejaVuSans-64" d="M 2906 2969 
L 2906 4863 
L 3481 4863 
L 3481 0 
L 2906 0 
L 2906 525 
Q 2725 213 2448 61 
Q 2172 -91 1784 -91 
Q 1150 -91 751 415 
Q 353 922 353 1747 
Q 353 2572 751 3078 
Q 1150 3584 1784 3584 
Q 2172 3584 2448 3432 
Q 2725 3281 2906 2969 
z
M 947 1747 
Q 947 1113 1208 752 
Q 1469 391 1925 391 
Q 2381 391 2643 752 
Q 2906 1113 2906 1747 
Q 2906 2381 2643 2742 
Q 2381 3103 1925 3103 
Q 1469 3103 1208 2742 
Q 947 2381 947 1747 
z
" transform="scale(0.015625)"/>
       <path id="DejaVuSans-65" d="M 3597 1894 
L 3597 1613 
L 953 1613 
Q 991 1019 1311 708 
Q 1631 397 2203 397 
Q 2534 397 2845 478 
Q 3156 559 3463 722 
L 3463 178 
Q 3153 47 2828 -22 
Q 2503 -91 2169 -91 
Q 1331 -91 842 396 
Q 353 884 353 1716 
Q 353 2575 817 3079 
Q 1281 3584 2069 3584 
Q 2775 3584 3186 3129 
Q 3597 2675 3597 1894 
z
M 3022 2063 
Q 3016 2534 2758 2815 
Q 2500 3097 2075 3097 
Q 1594 3097 1305 2825 
Q 1016 2553 972 2059 
L 3022 2063 
z
" transform="scale(0.015625)"/>
      </defs>
      <use xlink:href="#DejaVuSans-45"/>
      <use xlink:href="#DejaVuSans-70" transform="translate(63.183594 0)"/>
      <use xlink:href="#DejaVuSans-69" transform="translate(126.660156 0)"/>
      <use xlink:href="#DejaVuSans-73" transform="translate(154.443359 0)"/>
      <use xlink:href="#DejaVuSans-6f" transform="translate(206.542969 0)"/>
      <use xlink:href="#DejaVuSans-64" transform="translate(267.724609 0)"/>
      <use xlink:href="#DejaVuSans-65" transform="translate(331.201172 0)"/>
      <use xlink:href="#DejaVuSans-73" transform="translate(392.724609 0)"/>
     </g>
    </g>
   </g>
   <g id="matplotlib.axis_2">
    <g id="ytick_1">
     <g id="line2d_17">
      <path d="M 47.72 356.672271 
L 709.2 356.672271 
" clip-path="url(#p02deb3314f)" style="fill: none; stroke: #b0b0b0; stroke-width: 0.8; stroke-linecap: square"/>
     </g>
     <g id="line2d_18">
      <defs>
       <path id="m66ecb8a110" d="M 0 0 
L -3.5 0 
" style="stroke: #000000; stroke-width: 0.8"/>
      </defs>
      <g>
       <use xlink:href="#m66ecb8a110" x="47.72" y="356.672271" style="stroke: #000000; stroke-width: 0.8"/>
      </g>
     </g>
     <g id="text_10">
      <!-- 1.0 -->
      <g transform="translate(24.816875 360.471489) scale(0.1 -0.1)">
       <defs>
        <path id="DejaVuSans-2e" d="M 684 794 
L 1344 794 
L 1344 0 
L 684 0 
L 684 794 
z
" transform="scale(0.015625)"/>
       </defs>
       <use xlink:href="#DejaVuSans-31"/>
       <use xlink:href="#DejaVuSans-2e" transform="translate(63.623047 0)"/>
       <use xlink:href="#DejaVuSans-30" transform="translate(95.410156 0)"/>
      </g>
     </g>
    </g>
    <g id="ytick_2">
     <g id="line2d_19">
      <path d="M 47.72 298.840332 
L 709.2 298.840332 
" clip-path="url(#p02deb3314f)" style="fill: none; stroke: #b0b0b0; stroke-width: 0.8; stroke-linecap: square"/>
     </g>
     <g id="line2d_20">
      <g>
       <use xlink:href="#m66ecb8a110" x="47.72" y="298.840332" style="stroke: #000000; stroke-width: 0.8"/>
      </g>
     </g>
     <g id="text_11">
      <!-- 1.5 -->
      <g transform="translate(24.816875 302.63955) scale(0.1 -0.1)">
       <use xlink:href="#DejaVuSans-31"/>
       <use xlink:href="#DejaVuSans-2e" transform="translate(63.623047 0)"/>
       <use xlink:href="#DejaVuSans-35" transform="translate(95.410156 0)"/>
      </g>
     </g>
    </g>
    <g id="ytick_3">
     <g id="line2d_21">
      <path d="M 47.72 241.008393 
L 709.2 241.008393 
" clip-path="url(#p02deb3314f)" style="fill: none; stroke: #b0b0b0; stroke-width: 0.8; stroke-linecap: square"/>
     </g>
     <g id="line2d_22">
      <g>
       <use xlink:href="#m66ecb8a110" x="47.72" y="241.008393" style="stroke: #000000; stroke-width: 0.8"/>
      </g>
     </g>
     <g id="text_12">
      <!-- 2.0 -->
      <g transform="translate(24.816875 244.807611) scale(0.1 -0.1)">
       <use xlink:href="#DejaVuSans-32"/>
       <use xlink:href="#DejaVuSans-2e" transform="translate(63.623047 0)"/>
       <use xlink:href="#DejaVuSans-30" transform="translate(95.410156 0)"/>
      </g>
     </g>
    </g>
    <g id="ytick_4">
     <g id="line2d_23">
      <path d="M 47.72 183.176454 
L 709.2 183.176454 
" clip-path="url(#p02deb3314f)" style="fill: none; stroke: #b0b0b0; stroke-width: 0.8; stroke-linecap: square"/>
     </g>
     <g id="line2d_24">
      <g>
       <use xlink:href="#m66ecb8a110" x="47.72" y="183.176454" style="stroke: #000000; stroke-width: 0.8"/>
      </g>
     </g>
     <g id="text_13">
      <!-- 2.5 -->
      <g transform="translate(24.816875 186.975672) scale(0.1 -0.1)">
       <use xlink:href="#DejaVuSans-32"/>
       <use xlink:href="#DejaVuSans-2e" transform="translate(63.623047 0)"/>
       <use xlink:href="#DejaVuSans-35" transform="translate(95.410156 0)"/>
      </g>
     </g>
    </g>
    <g id="ytick_5">
     <g id="line2d_25">
      <path d="M 47.72 125.344515 
L 709.2 125.344515 
" clip-path="url(#p02deb3314f)" style="fill: none; stroke: #b0b0b0; stroke-width: 0.8; stroke-linecap: square"/>
     </g>
     <g id="line2d_26">
      <g>
       <use xlink:href="#m66ecb8a110" x="47.72" y="125.344515" style="stroke: #000000; stroke-width: 0.8"/>
      </g>
     </g>
     <g id="text_14">
      <!-- 3.0 -->
      <g transform="translate(24.816875 129.143733) scale(0.1 -0.1)">
       <use xlink:href="#DejaVuSans-33"/>
       <use xlink:href="#DejaVuSans-2e" transform="translate(63.623047 0)"/>
       <use xlink:href="#DejaVuSans-30" transform="translate(95.410156 0)"/>
      </g>
     </g>
    </g>
    <g id="ytick_6">
     <g id="line2d_27">
      <path d="M 47.72 67.512576 
L 709.2 67.512576 
" clip-path="url(#p02deb3314f)" style="fill: none; stroke: #b0b0b0; stroke-width: 0.8; stroke-linecap: square"/>
     </g>
     <g id="line2d_28">
      <g>
       <use xlink:href="#m66ecb8a110" x="47.72" y="67.512576" style="stroke: #000000; stroke-width: 0.8"/>
      </g>
     </g>
     <g id="text_15">
      <!-- 3.5 -->
      <g transform="translate(24.816875 71.311794) scale(0.1 -0.1)">
       <use xlink:href="#DejaVuSans-33"/>
       <use xlink:href="#DejaVuSans-2e" transform="translate(63.623047 0)"/>
       <use xlink:href="#DejaVuSans-35" transform="translate(95.410156 0)"/>
      </g>
     </g>
    </g>
    <g id="text_16">
     <!-- Circuit Depth -->
     <g transform="translate(18.737188 233.329375) rotate(-90) scale(0.1 -0.1)">
      <defs>
       <path id="DejaVuSans-43" d="M 4122 4306 
L 4122 3641 
Q 3803 3938 3442 4084 
Q 3081 4231 2675 4231 
Q 1875 4231 1450 3742 
Q 1025 3253 1025 2328 
Q 1025 1406 1450 917 
Q 1875 428 2675 428 
Q 3081 428 3442 575 
Q 3803 722 4122 1019 
L 4122 359 
Q 3791 134 3420 21 
Q 3050 -91 2638 -91 
Q 1578 -91 968 557 
Q 359 1206 359 2328 
Q 359 3453 968 4101 
Q 1578 4750 2638 4750 
Q 3056 4750 3426 4639 
Q 3797 4528 4122 4306 
z
" transform="scale(0.015625)"/>
       <path id="DejaVuSans-72" d="M 2631 2963 
Q 2534 3019 2420 3045 
Q 2306 3072 2169 3072 
Q 1681 3072 1420 2755 
Q 1159 2438 1159 1844 
L 1159 0 
L 581 0 
L 581 3500 
L 1159 3500 
L 1159 2956 
Q 1341 3275 1631 3429 
Q 1922 3584 2338 3584 
Q 2397 3584 2469 3576 
Q 2541 3569 2628 3553 
L 2631 2963 
z
" transform="scale(0.015625)"/>
       <path id="DejaVuSans-63" d="M 3122 3366 
L 3122 2828 
Q 2878 2963 2633 3030 
Q 2388 3097 2138 3097 
Q 1578 3097 1268 2742 
Q 959 2388 959 1747 
Q 959 1106 1268 751 
Q 1578 397 2138 397 
Q 2388 397 2633 464 
Q 2878 531 3122 666 
L 3122 134 
Q 2881 22 2623 -34 
Q 2366 -91 2075 -91 
Q 1284 -91 818 406 
Q 353 903 353 1747 
Q 353 2603 823 3093 
Q 1294 3584 2113 3584 
Q 2378 3584 2631 3529 
Q 2884 3475 3122 3366 
z
" transform="scale(0.015625)"/>
       <path id="DejaVuSans-75" d="M 544 1381 
L 544 3500 
L 1119 3500 
L 1119 1403 
Q 1119 906 1312 657 
Q 1506 409 1894 409 
Q 2359 409 2629 706 
Q 2900 1003 2900 1516 
L 2900 3500 
L 3475 3500 
L 3475 0 
L 2900 0 
L 2900 538 
Q 2691 219 2414 64 
Q 2138 -91 1772 -91 
Q 1169 -91 856 284 
Q 544 659 544 1381 
z
M 1991 3584 
L 1991 3584 
z
" transform="scale(0.015625)"/>
       <path id="DejaVuSans-74" d="M 1172 4494 
L 1172 3500 
L 2356 3500 
L 2356 3053 
L 1172 3053 
L 1172 1153 
Q 1172 725 1289 603 
Q 1406 481 1766 481 
L 2356 481 
L 2356 0 
L 1766 0 
Q 1100 0 847 248 
Q 594 497 594 1153 
L 594 3053 
L 172 3053 
L 172 3500 
L 594 3500 
L 594 4494 
L 1172 4494 
z
" transform="scale(0.015625)"/>
       <path id="DejaVuSans-20" transform="scale(0.015625)"/>
       <path id="DejaVuSans-44" d="M 1259 4147 
L 1259 519 
L 2022 519 
Q 2988 519 3436 956 
Q 3884 1394 3884 2338 
Q 3884 3275 3436 3711 
Q 2988 4147 2022 4147 
L 1259 4147 
z
M 628 4666 
L 1925 4666 
Q 3281 4666 3915 4102 
Q 4550 3538 4550 2338 
Q 4550 1131 3912 565 
Q 3275 0 1925 0 
L 628 0 
L 628 4666 
z
" transform="scale(0.015625)"/>
       <path id="DejaVuSans-68" d="M 3513 2113 
L 3513 0 
L 2938 0 
L 2938 2094 
Q 2938 2591 2744 2837 
Q 2550 3084 2163 3084 
Q 1697 3084 1428 2787 
Q 1159 2491 1159 1978 
L 1159 0 
L 581 0 
L 581 4863 
L 1159 4863 
L 1159 2956 
Q 1366 3272 1645 3428 
Q 1925 3584 2291 3584 
Q 2894 3584 3203 3211 
Q 3513 2838 3513 2113 
z
" transform="scale(0.015625)"/>
      </defs>
      <use xlink:href="#DejaVuSans-43"/>
      <use xlink:href="#DejaVuSans-69" transform="translate(69.824219 0)"/>
      <use xlink:href="#DejaVuSans-72" transform="translate(97.607422 0)"/>
      <use xlink:href="#DejaVuSans-63" transform="translate(136.470703 0)"/>
      <use xlink:href="#DejaVuSans-75" transform="translate(191.451172 0)"/>
      <use xlink:href="#DejaVuSans-69" transform="translate(254.830078 0)"/>
      <use xlink:href="#DejaVuSans-74" transform="translate(282.613281 0)"/>
      <use xlink:href="#DejaVuSans-20" transform="translate(321.822266 0)"/>
      <use xlink:href="#DejaVuSans-44" transform="translate(353.609375 0)"/>
      <use xlink:href="#DejaVuSans-65" transform="translate(430.611328 0)"/>
      <use xlink:href="#DejaVuSans-70" transform="translate(492.134766 0)"/>
      <use xlink:href="#DejaVuSans-74" transform="translate(555.611328 0)"/>
      <use xlink:href="#DejaVuSans-68" transform="translate(594.820312 0)"/>
     </g>
    </g>
   </g>
   <g id="line2d_29">
    <path d="M 77.787273 136.910902 
L 81.223532 131.127708 
L 84.659792 134.790398 
L 88.096052 132.091574 
L 91.532312 118.790228 
L 94.968571 136.13981 
L 98.404831 138.645861 
L 101.841091 150.405022 
L 105.277351 166.790738 
L 108.71361 177.200487 
L 112.14987 204.767044 
L 115.58613 217.297298 
L 119.02239 225.972089 
L 122.458649 230.791417 
L 125.894909 228.670912 
L 129.331169 233.683014 
L 132.767429 235.032426 
L 136.203688 233.297467 
L 139.639948 235.996291 
L 143.076208 239.273434 
L 146.512468 236.960157 
L 149.948727 238.502342 
L 153.384987 236.189064 
L 156.821247 235.996291 
L 160.257506 239.080661 
L 167.130026 240.622846 
L 170.566286 240.044527 
L 174.002545 240.2373 
L 177.438805 240.2373 
L 180.875065 241.393939 
L 184.311325 239.851754 
L 187.747584 240.044527 
L 191.183844 240.044527 
L 194.620104 240.430073 
L 201.492623 240.044527 
L 204.928883 239.273434 
L 208.365143 238.309569 
L 211.801403 240.2373 
L 215.237662 238.502342 
L 218.673922 240.044527 
L 222.110182 237.731249 
L 225.546442 237.538476 
L 228.982701 239.851754 
L 232.418961 238.502342 
L 235.855221 240.430073 
L 239.291481 241.393939 
L 242.72774 239.851754 
L 246.164 240.430073 
L 249.60026 240.622846 
L 253.036519 240.430073 
L 256.472779 239.658981 
L 259.909039 240.81562 
L 263.345299 240.81562 
L 266.781558 240.2373 
L 270.217818 241.008393 
L 273.654078 240.2373 
L 277.090338 239.851754 
L 280.526597 235.610745 
L 283.962857 237.15293 
L 287.399117 234.261333 
L 290.835377 235.610745 
L 294.271636 236.189064 
L 297.707896 234.454106 
L 301.144156 236.767384 
L 304.580416 238.502342 
L 308.016675 231.755282 
L 311.452935 233.490241 
L 314.889195 237.538476 
L 318.325455 235.032426 
L 321.761714 236.767384 
L 325.197974 240.044527 
L 328.634234 240.430073 
L 332.070494 240.2373 
L 335.506753 240.81562 
L 338.943013 241.201166 
L 342.379273 241.008393 
L 345.815532 238.887888 
L 349.251792 240.622846 
L 352.688052 237.345703 
L 356.124312 239.273434 
L 359.560571 240.622846 
L 362.996831 240.81562 
L 366.433091 240.2373 
L 369.869351 239.851754 
L 373.30561 241.201166 
L 376.74187 240.2373 
L 380.17813 239.658981 
L 383.61439 233.683014 
L 387.050649 231.755282 
L 390.486909 232.140829 
L 393.923169 230.598644 
L 397.359429 234.646879 
L 400.795688 239.658981 
L 407.668208 236.189064 
L 411.104468 240.622846 
L 414.540727 239.080661 
L 417.976987 238.695115 
L 421.413247 242.936124 
L 424.849506 259.900159 
L 428.285766 268.57495 
L 431.722026 271.466547 
L 435.158286 272.430413 
L 438.594545 270.695455 
L 442.030805 275.32201 
L 445.467065 279.177472 
L 448.903325 277.249741 
L 452.339584 266.839992 
L 455.775844 273.972598 
L 459.212104 259.900159 
L 462.648364 261.249571 
L 466.084623 253.538646 
L 469.520883 262.984529 
L 472.957143 267.803858 
L 476.393403 265.683353 
L 479.829662 274.165371 
L 483.265922 272.430413 
L 486.702182 272.815959 
L 490.138442 277.82806 
L 493.574701 294.021003 
L 497.010961 308.864534 
L 500.447221 314.840501 
L 503.883481 316.768233 
L 507.31974 316.961006 
L 510.756 317.924872 
L 514.19226 317.924872 
L 517.628519 317.732098 
L 521.064779 317.924872 
L 524.501039 327.370755 
L 527.937299 342.599832 
L 531.373558 351.852942 
L 534.809818 353.202354 
L 538.246078 354.744539 
L 541.682338 354.937313 
L 545.118597 356.093951 
L 548.554857 356.286724 
L 551.991117 356.672271 
L 555.427377 355.901178 
L 558.863636 356.672271 
L 562.299896 356.093951 
L 565.736156 356.672271 
L 576.044935 356.672271 
L 579.481195 356.093951 
L 582.917455 356.479498 
L 586.353714 356.672271 
L 589.789974 356.286724 
L 596.662494 356.672271 
L 600.098753 356.672271 
L 603.535013 356.093951 
L 606.971273 356.672271 
L 610.407532 352.238489 
L 613.843792 356.479498 
L 617.280052 355.515632 
L 620.716312 356.672271 
L 631.025091 356.672271 
L 634.461351 356.479498 
L 637.89761 356.672271 
L 641.33387 355.708405 
L 644.77013 356.479498 
L 648.20639 356.479498 
L 651.642649 356.672271 
L 655.078909 356.479498 
L 658.515169 356.672271 
L 665.387688 356.672271 
L 668.823948 356.286724 
L 672.260208 356.672271 
L 675.696468 356.672271 
L 679.132727 356.093951 
L 679.132727 356.093951 
" clip-path="url(#p02deb3314f)" style="fill: none; stroke: #1f77b4; stroke-width: 1.5; stroke-linecap: square"/>
   </g>
   <g id="patch_3">
    <path d="M 47.72 390.04 
L 47.72 10.8 
" style="fill: none; stroke: #000000; stroke-width: 0.8; stroke-linejoin: miter; stroke-linecap: square"/>
   </g>
   <g id="patch_4">
    <path d="M 709.2 390.04 
L 709.2 10.8 
" style="fill: none; stroke: #000000; stroke-width: 0.8; stroke-linejoin: miter; stroke-linecap: square"/>
   </g>
   <g id="patch_5">
    <path d="M 47.72 390.04 
L 709.2 390.04 
" style="fill: none; stroke: #000000; stroke-width: 0.8; stroke-linejoin: miter; stroke-linecap: square"/>
   </g>
   <g id="patch_6">
    <path d="M 47.72 10.8 
L 709.2 10.8 
" style="fill: none; stroke: #000000; stroke-width: 0.8; stroke-linejoin: miter; stroke-linecap: square"/>
   </g>
  </g>
 </g>
 <defs>
  <clipPath id="p02deb3314f">
   <rect x="47.72" y="10.8" width="661.48" height="379.24"/>
  </clipPath>
 </defs>
</svg>
