<?xml version="1.0" encoding="utf-8" standalone="no"?>
<!DOCTYPE svg PUBLIC "-//W3C//DTD SVG 1.1//EN"
  "http://www.w3.org/Graphics/SVG/1.1/DTD/svg11.dtd">
<svg xmlns:xlink="http://www.w3.org/1999/xlink" width="720pt" height="432pt" viewBox="0 0 720 432" xmlns="http://www.w3.org/2000/svg" version="1.1">
 <metadata>
  <rdf:RDF xmlns:dc="http://purl.org/dc/elements/1.1/" xmlns:cc="http://creativecommons.org/ns#" xmlns:rdf="http://www.w3.org/1999/02/22-rdf-syntax-ns#">
   <cc:Work>
    <dc:type rdf:resource="http://purl.org/dc/dcmitype/StillImage"/>
    <dc:date>2025-04-16T01:19:33.655108</dc:date>
    <dc:format>image/svg+xml</dc:format>
    <dc:creator>
     <cc:Agent>
      <dc:title>Matplotlib v3.10.0, https://matplotlib.org/</dc:title>
     </cc:Agent>
    </dc:creator>
   </cc:Work>
  </rdf:RDF>
 </metadata>
 <defs>
  <style type="text/css">*{stroke-linejoin: round; stroke-linecap: butt}</style>
 </defs>
 <g id="figure_1">
  <g id="patch_1">
   <path d="M 0 432 
L 720 432 
L 720 0 
L 0 0 
z
" style="fill: #ffffff"/>
  </g>
  <g id="axes_1">
   <g id="patch_2">
    <path d="M 47.72 390.04 
L 709.2 390.04 
L 709.2 10.8 
L 47.72 10.8 
z
" style="fill: #ffffff"/>
   </g>
   <g id="FillBetweenPolyCollection_1">
    <path d="M 77.787273 129.092923 
L 77.787273 372.801818 
L 81.223532 316.398602 
L 84.659792 296.105415 
L 88.096052 283.718411 
L 91.532312 258.457948 
L 94.968571 202.403469 
L 98.404831 151.85235 
L 101.841091 125.046258 
L 105.277351 83.655399 
L 108.71361 51.442511 
L 112.14987 44.941815 
L 115.58613 36.037764 
L 119.02239 32.02448 
L 122.458649 32.669326 
L 125.894909 29.655173 
L 129.331169 28.877402 
L 132.767429 28.982304 
L 136.203688 30.555844 
L 139.639948 30.136234 
L 143.076208 28.143084 
L 146.512468 28.143084 
L 149.948727 29.821526 
L 153.384987 28.457792 
L 156.821247 28.457792 
L 160.257506 32.7588 
L 163.693766 28.038182 
L 167.130026 28.143084 
L 170.566286 28.457792 
L 174.002545 28.038182 
L 177.438805 29.926429 
L 180.875065 28.457792 
L 184.311325 28.247987 
L 187.747584 29.821526 
L 191.183844 28.247987 
L 194.620104 28.143084 
L 198.056364 28.143084 
L 201.492623 28.143084 
L 204.928883 28.143084 
L 208.365143 29.926429 
L 211.801403 28.143084 
L 215.237662 29.926429 
L 218.673922 28.038182 
L 222.110182 28.247987 
L 225.546442 28.038182 
L 228.982701 28.038182 
L 232.418961 28.038182 
L 235.855221 28.352889 
L 239.291481 28.247987 
L 242.72774 28.457792 
L 246.164 28.247987 
L 249.60026 29.611721 
L 253.036519 28.143084 
L 256.472779 29.297013 
L 259.909039 28.143084 
L 263.345299 28.143084 
L 266.781558 28.038182 
L 270.217818 28.038182 
L 273.654078 29.611721 
L 277.090338 28.038182 
L 280.526597 28.982305 
L 283.962857 28.143084 
L 287.399117 30.660747 
L 290.835377 28.143084 
L 294.271636 28.143084 
L 297.707896 28.038182 
L 301.144156 28.038182 
L 304.580416 28.038182 
L 308.016675 30.241137 
L 311.452935 28.143084 
L 314.889195 28.667597 
L 318.325455 28.877402 
L 321.761714 28.667597 
L 325.197974 28.457792 
L 328.634234 28.143084 
L 332.070494 28.667597 
L 335.506753 28.143084 
L 338.943013 28.143084 
L 342.379273 28.038182 
L 345.815532 28.143084 
L 349.251792 28.038182 
L 352.688052 28.143084 
L 356.124312 28.143084 
L 359.560571 28.038182 
L 362.996831 28.143084 
L 366.433091 28.038182 
L 369.869351 28.038182 
L 373.30561 28.143084 
L 376.74187 28.038182 
L 380.17813 28.038182 
L 383.61439 28.877402 
L 387.050649 31.814675 
L 390.486909 29.926428 
L 393.923169 32.44409 
L 397.359429 28.877402 
L 400.795688 28.143084 
L 404.231948 28.7725 
L 407.668208 28.247987 
L 411.104468 28.038182 
L 414.540727 28.982305 
L 417.976987 29.297013 
L 421.413247 29.506817 
L 424.849506 38.528434 
L 428.285766 47.024431 
L 431.722026 46.920635 
L 435.158286 48.406161 
L 438.594545 48.930674 
L 442.030805 49.140479 
L 445.467065 49.018685 
L 448.903325 49.018685 
L 452.339584 49.646993 
L 455.775844 49.192493 
L 459.212104 49.620433 
L 462.648364 49.105589 
L 466.084623 49.560089 
L 469.520883 49.018685 
L 472.957143 49.018685 
L 476.393403 48.957235 
L 479.829662 49.018685 
L 483.265922 48.913783 
L 486.702182 49.286853 
L 490.138442 51.147835 
L 493.574701 54.475645 
L 497.010961 56.474439 
L 500.447221 57.318026 
L 503.883481 57.578738 
L 507.31974 57.604192 
L 510.756 57.604192 
L 514.19226 57.665642 
L 517.628519 57.709094 
L 521.064779 57.542741 
L 524.501039 56.84517 
L 527.937299 55.361844 
L 531.373558 54.55937 
L 534.809818 54.433381 
L 538.246078 54.289393 
L 541.682338 54.271395 
L 545.118597 54.163404 
L 548.554857 54.145406 
L 551.991117 54.109409 
L 555.427377 54.181403 
L 558.863636 54.109409 
L 562.299896 54.163404 
L 565.736156 54.109409 
L 569.172416 54.109409 
L 572.608675 54.109409 
L 576.044935 54.109409 
L 579.481195 54.163404 
L 582.917455 54.127407 
L 586.353714 54.109409 
L 589.789974 54.145406 
L 593.226234 54.127407 
L 596.662494 54.109409 
L 600.098753 54.109409 
L 603.535013 54.127407 
L 606.971273 54.109409 
L 610.407532 54.523373 
L 613.843792 54.127407 
L 617.280052 54.2174 
L 620.716312 54.109409 
L 624.152571 54.109409 
L 627.588831 54.109409 
L 631.025091 54.109409 
L 634.461351 54.127407 
L 637.89761 54.109409 
L 641.33387 54.199401 
L 644.77013 54.127407 
L 648.20639 54.127407 
L 651.642649 54.109409 
L 655.078909 54.109409 
L 658.515169 54.109409 
L 661.951429 54.109409 
L 665.387688 54.109409 
L 668.823948 54.127407 
L 672.260208 54.109409 
L 675.696468 54.109409 
L 679.132727 54.127407 
L 679.132727 54.004506 
L 679.132727 54.004506 
L 675.696468 54.109409 
L 672.260208 54.109409 
L 668.823948 54.004506 
L 665.387688 54.109409 
L 661.951429 54.109409 
L 658.515169 54.109409 
L 655.078909 54.109409 
L 651.642649 54.109409 
L 648.20639 54.004506 
L 644.77013 54.004506 
L 641.33387 53.584896 
L 637.89761 54.109409 
L 634.461351 54.004506 
L 631.025091 54.109409 
L 627.588831 54.109409 
L 624.152571 54.109409 
L 620.716312 54.109409 
L 617.280052 53.479994 
L 613.843792 54.004506 
L 610.407532 51.696651 
L 606.971273 54.109409 
L 603.535013 54.004506 
L 600.098753 54.109409 
L 596.662494 54.109409 
L 593.226234 54.004506 
L 589.789974 53.899604 
L 586.353714 54.109409 
L 582.917455 54.004506 
L 579.481195 53.794701 
L 576.044935 54.109409 
L 572.608675 54.109409 
L 569.172416 54.109409 
L 565.736156 54.109409 
L 562.299896 53.794701 
L 558.863636 54.109409 
L 555.427377 53.689799 
L 551.991117 54.109409 
L 548.554857 53.899604 
L 545.118597 53.794701 
L 541.682338 53.165286 
L 538.246078 53.060384 
L 534.809818 52.221164 
L 531.373558 51.486846 
L 527.937299 46.512976 
L 524.501039 38.164226 
L 521.064779 33.208354 
L 517.628519 33.128906 
L 514.19226 33.085454 
L 510.756 33.146904 
L 507.31974 33.146904 
L 503.883481 32.998549 
L 500.447221 32.737837 
L 497.010961 32.017151 
L 493.574701 30.018357 
L 490.138442 28.038182 
L 486.702182 28.038182 
L 483.265922 28.038182 
L 479.829662 28.038182 
L 476.393403 28.038182 
L 472.957143 28.038182 
L 469.520883 28.038182 
L 466.084623 28.038182 
L 462.648364 28.038182 
L 459.212104 28.038182 
L 455.775844 28.038182 
L 452.339584 28.038182 
L 448.903325 28.038182 
L 445.467065 28.038182 
L 442.030805 28.038182 
L 438.594545 28.038182 
L 435.158286 28.038182 
L 431.722026 28.038182 
L 428.285766 28.038182 
L 424.849506 28.038182 
L 421.413247 28.038182 
L 417.976987 28.038182 
L 414.540727 28.038182 
L 411.104468 28.038182 
L 407.668208 28.038182 
L 404.231948 28.038182 
L 400.795688 28.038182 
L 397.359429 28.038182 
L 393.923169 28.038182 
L 390.486909 28.038182 
L 387.050649 28.038182 
L 383.61439 28.038182 
L 380.17813 28.038182 
L 376.74187 28.038182 
L 373.30561 28.038182 
L 369.869351 28.038182 
L 366.433091 28.038182 
L 362.996831 28.038182 
L 359.560571 28.038182 
L 356.124312 28.038182 
L 352.688052 28.038182 
L 349.251792 28.038182 
L 345.815532 28.038182 
L 342.379273 28.038182 
L 338.943013 28.038182 
L 335.506753 28.038182 
L 332.070494 28.038182 
L 328.634234 28.038182 
L 325.197974 28.038182 
L 321.761714 28.038182 
L 318.325455 28.038182 
L 314.889195 28.038182 
L 311.452935 28.038182 
L 308.016675 28.038182 
L 304.580416 28.038182 
L 301.144156 28.038182 
L 297.707896 28.038182 
L 294.271636 28.038182 
L 290.835377 28.038182 
L 287.399117 28.038182 
L 283.962857 28.038182 
L 280.526597 28.038182 
L 277.090338 28.038182 
L 273.654078 28.038182 
L 270.217818 28.038182 
L 266.781558 28.038182 
L 263.345299 28.038182 
L 259.909039 28.038182 
L 256.472779 28.038182 
L 253.036519 28.038182 
L 249.60026 28.038182 
L 246.164 28.038182 
L 242.72774 28.038182 
L 239.291481 28.038182 
L 235.855221 28.038182 
L 232.418961 28.038182 
L 228.982701 28.038182 
L 225.546442 28.038182 
L 222.110182 28.038182 
L 218.673922 28.038182 
L 215.237662 28.038182 
L 211.801403 28.038182 
L 208.365143 28.038182 
L 204.928883 28.038182 
L 201.492623 28.038182 
L 198.056364 28.038182 
L 194.620104 28.038182 
L 191.183844 28.038182 
L 187.747584 28.038182 
L 184.311325 28.038182 
L 180.875065 28.038182 
L 177.438805 28.038182 
L 174.002545 28.038182 
L 170.566286 28.038182 
L 167.130026 28.038182 
L 163.693766 28.038182 
L 160.257506 28.038182 
L 156.821247 28.038182 
L 153.384987 28.038182 
L 149.948727 28.038182 
L 146.512468 28.038182 
L 143.076208 28.038182 
L 139.639948 28.038182 
L 136.203688 28.038182 
L 132.767429 28.038182 
L 129.331169 28.038182 
L 125.894909 28.038182 
L 122.458649 28.038182 
L 119.02239 28.038182 
L 115.58613 28.038182 
L 112.14987 28.038182 
L 108.71361 28.038182 
L 105.277351 28.038182 
L 101.841091 28.038182 
L 98.404831 28.038182 
L 94.968571 37.040661 
L 91.532312 52.073793 
L 88.096052 59.836919 
L 84.659792 64.396225 
L 81.223532 83.383728 
L 77.787273 129.092923 
z
" clip-path="url(#pc833664d82)" style="fill: #1f77b4; fill-opacity: 0.2"/>
   </g>
   <g id="matplotlib.axis_1">
    <g id="xtick_1">
     <g id="line2d_1">
      <path d="M 76.051962 390.04 
L 76.051962 10.8 
" clip-path="url(#pc833664d82)" style="fill: none; stroke: #b0b0b0; stroke-width: 0.8; stroke-linecap: square"/>
     </g>
     <g id="line2d_2">
      <defs>
       <path id="m1f558174e9" d="M 0 0 
L 0 3.5 
" style="stroke: #000000; stroke-width: 0.8"/>
      </defs>
      <g>
       <use xlink:href="#m1f558174e9" x="76.051962" y="390.04" style="stroke: #000000; stroke-width: 0.8"/>
      </g>
     </g>
     <g id="text_1">
      <!-- 0 -->
      <g transform="translate(72.870712 404.638438) scale(0.1 -0.1)">
       <defs>
        <path id="DejaVuSans-30" d="M 2034 4250 
Q 1547 4250 1301 3770 
Q 1056 3291 1056 2328 
Q 1056 1369 1301 889 
Q 1547 409 2034 409 
Q 2525 409 2770 889 
Q 3016 1369 3016 2328 
Q 3016 3291 2770 3770 
Q 2525 4250 2034 4250 
z
M 2034 4750 
Q 2819 4750 3233 4129 
Q 3647 3509 3647 2328 
Q 3647 1150 3233 529 
Q 2819 -91 2034 -91 
Q 1250 -91 836 529 
Q 422 1150 422 2328 
Q 422 3509 836 4129 
Q 1250 4750 2034 4750 
z
" transform="scale(0.015625)"/>
       </defs>
       <use xlink:href="#DejaVuSans-30"/>
      </g>
     </g>
    </g>
    <g id="xtick_2">
     <g id="line2d_3">
      <path d="M 161.958455 390.04 
L 161.958455 10.8 
" clip-path="url(#pc833664d82)" style="fill: none; stroke: #b0b0b0; stroke-width: 0.8; stroke-linecap: square"/>
     </g>
     <g id="line2d_4">
      <g>
       <use xlink:href="#m1f558174e9" x="161.958455" y="390.04" style="stroke: #000000; stroke-width: 0.8"/>
      </g>
     </g>
     <g id="text_2">
      <!-- 5000 -->
      <g transform="translate(149.233455 404.638438) scale(0.1 -0.1)">
       <defs>
        <path id="DejaVuSans-35" d="M 691 4666 
L 3169 4666 
L 3169 4134 
L 1269 4134 
L 1269 2991 
Q 1406 3038 1543 3061 
Q 1681 3084 1819 3084 
Q 2600 3084 3056 2656 
Q 3513 2228 3513 1497 
Q 3513 744 3044 326 
Q 2575 -91 1722 -91 
Q 1428 -91 1123 -41 
Q 819 9 494 109 
L 494 744 
Q 775 591 1075 516 
Q 1375 441 1709 441 
Q 2250 441 2565 725 
Q 2881 1009 2881 1497 
Q 2881 1984 2565 2268 
Q 2250 2553 1709 2553 
Q 1456 2553 1204 2497 
Q 953 2441 691 2322 
L 691 4666 
z
" transform="scale(0.015625)"/>
       </defs>
       <use xlink:href="#DejaVuSans-35"/>
       <use xlink:href="#DejaVuSans-30" transform="translate(63.623047 0)"/>
       <use xlink:href="#DejaVuSans-30" transform="translate(127.246094 0)"/>
       <use xlink:href="#DejaVuSans-30" transform="translate(190.869141 0)"/>
      </g>
     </g>
    </g>
    <g id="xtick_3">
     <g id="line2d_5">
      <path d="M 247.864949 390.04 
L 247.864949 10.8 
" clip-path="url(#pc833664d82)" style="fill: none; stroke: #b0b0b0; stroke-width: 0.8; stroke-linecap: square"/>
     </g>
     <g id="line2d_6">
      <g>
       <use xlink:href="#m1f558174e9" x="247.864949" y="390.04" style="stroke: #000000; stroke-width: 0.8"/>
      </g>
     </g>
     <g id="text_3">
      <!-- 10000 -->
      <g transform="translate(231.958699 404.638438) scale(0.1 -0.1)">
       <defs>
        <path id="DejaVuSans-31" d="M 794 531 
L 1825 531 
L 1825 4091 
L 703 3866 
L 703 4441 
L 1819 4666 
L 2450 4666 
L 2450 531 
L 3481 531 
L 3481 0 
L 794 0 
L 794 531 
z
" transform="scale(0.015625)"/>
       </defs>
       <use xlink:href="#DejaVuSans-31"/>
       <use xlink:href="#DejaVuSans-30" transform="translate(63.623047 0)"/>
       <use xlink:href="#DejaVuSans-30" transform="translate(127.246094 0)"/>
       <use xlink:href="#DejaVuSans-30" transform="translate(190.869141 0)"/>
       <use xlink:href="#DejaVuSans-30" transform="translate(254.492188 0)"/>
      </g>
     </g>
    </g>
    <g id="xtick_4">
     <g id="line2d_7">
      <path d="M 333.771442 390.04 
L 333.771442 10.8 
" clip-path="url(#pc833664d82)" style="fill: none; stroke: #b0b0b0; stroke-width: 0.8; stroke-linecap: square"/>
     </g>
     <g id="line2d_8">
      <g>
       <use xlink:href="#m1f558174e9" x="333.771442" y="390.04" style="stroke: #000000; stroke-width: 0.8"/>
      </g>
     </g>
     <g id="text_4">
      <!-- 15000 -->
      <g transform="translate(317.865192 404.638438) scale(0.1 -0.1)">
       <use xlink:href="#DejaVuSans-31"/>
       <use xlink:href="#DejaVuSans-35" transform="translate(63.623047 0)"/>
       <use xlink:href="#DejaVuSans-30" transform="translate(127.246094 0)"/>
       <use xlink:href="#DejaVuSans-30" transform="translate(190.869141 0)"/>
       <use xlink:href="#DejaVuSans-30" transform="translate(254.492188 0)"/>
      </g>
     </g>
    </g>
    <g id="xtick_5">
     <g id="line2d_9">
      <path d="M 419.677936 390.04 
L 419.677936 10.8 
" clip-path="url(#pc833664d82)" style="fill: none; stroke: #b0b0b0; stroke-width: 0.8; stroke-linecap: square"/>
     </g>
     <g id="line2d_10">
      <g>
       <use xlink:href="#m1f558174e9" x="419.677936" y="390.04" style="stroke: #000000; stroke-width: 0.8"/>
      </g>
     </g>
     <g id="text_5">
      <!-- 20000 -->
      <g transform="translate(403.771686 404.638438) scale(0.1 -0.1)">
       <defs>
        <path id="DejaVuSans-32" d="M 1228 531 
L 3431 531 
L 3431 0 
L 469 0 
L 469 531 
Q 828 903 1448 1529 
Q 2069 2156 2228 2338 
Q 2531 2678 2651 2914 
Q 2772 3150 2772 3378 
Q 2772 3750 2511 3984 
Q 2250 4219 1831 4219 
Q 1534 4219 1204 4116 
Q 875 4013 500 3803 
L 500 4441 
Q 881 4594 1212 4672 
Q 1544 4750 1819 4750 
Q 2544 4750 2975 4387 
Q 3406 4025 3406 3419 
Q 3406 3131 3298 2873 
Q 3191 2616 2906 2266 
Q 2828 2175 2409 1742 
Q 1991 1309 1228 531 
z
" transform="scale(0.015625)"/>
       </defs>
       <use xlink:href="#DejaVuSans-32"/>
       <use xlink:href="#DejaVuSans-30" transform="translate(63.623047 0)"/>
       <use xlink:href="#DejaVuSans-30" transform="translate(127.246094 0)"/>
       <use xlink:href="#DejaVuSans-30" transform="translate(190.869141 0)"/>
       <use xlink:href="#DejaVuSans-30" transform="translate(254.492188 0)"/>
      </g>
     </g>
    </g>
    <g id="xtick_6">
     <g id="line2d_11">
      <path d="M 505.584429 390.04 
L 505.584429 10.8 
" clip-path="url(#pc833664d82)" style="fill: none; stroke: #b0b0b0; stroke-width: 0.8; stroke-linecap: square"/>
     </g>
     <g id="line2d_12">
      <g>
       <use xlink:href="#m1f558174e9" x="505.584429" y="390.04" style="stroke: #000000; stroke-width: 0.8"/>
      </g>
     </g>
     <g id="text_6">
      <!-- 25000 -->
      <g transform="translate(489.678179 404.638438) scale(0.1 -0.1)">
       <use xlink:href="#DejaVuSans-32"/>
       <use xlink:href="#DejaVuSans-35" transform="translate(63.623047 0)"/>
       <use xlink:href="#DejaVuSans-30" transform="translate(127.246094 0)"/>
       <use xlink:href="#DejaVuSans-30" transform="translate(190.869141 0)"/>
       <use xlink:href="#DejaVuSans-30" transform="translate(254.492188 0)"/>
      </g>
     </g>
    </g>
    <g id="xtick_7">
     <g id="line2d_13">
      <path d="M 591.490923 390.04 
L 591.490923 10.8 
" clip-path="url(#pc833664d82)" style="fill: none; stroke: #b0b0b0; stroke-width: 0.8; stroke-linecap: square"/>
     </g>
     <g id="line2d_14">
      <g>
       <use xlink:href="#m1f558174e9" x="591.490923" y="390.04" style="stroke: #000000; stroke-width: 0.8"/>
      </g>
     </g>
     <g id="text_7">
      <!-- 30000 -->
      <g transform="translate(575.584673 404.638438) scale(0.1 -0.1)">
       <defs>
        <path id="DejaVuSans-33" d="M 2597 2516 
Q 3050 2419 3304 2112 
Q 3559 1806 3559 1356 
Q 3559 666 3084 287 
Q 2609 -91 1734 -91 
Q 1441 -91 1130 -33 
Q 819 25 488 141 
L 488 750 
Q 750 597 1062 519 
Q 1375 441 1716 441 
Q 2309 441 2620 675 
Q 2931 909 2931 1356 
Q 2931 1769 2642 2001 
Q 2353 2234 1838 2234 
L 1294 2234 
L 1294 2753 
L 1863 2753 
Q 2328 2753 2575 2939 
Q 2822 3125 2822 3475 
Q 2822 3834 2567 4026 
Q 2313 4219 1838 4219 
Q 1578 4219 1281 4162 
Q 984 4106 628 3988 
L 628 4550 
Q 988 4650 1302 4700 
Q 1616 4750 1894 4750 
Q 2613 4750 3031 4423 
Q 3450 4097 3450 3541 
Q 3450 3153 3228 2886 
Q 3006 2619 2597 2516 
z
" transform="scale(0.015625)"/>
       </defs>
       <use xlink:href="#DejaVuSans-33"/>
       <use xlink:href="#DejaVuSans-30" transform="translate(63.623047 0)"/>
       <use xlink:href="#DejaVuSans-30" transform="translate(127.246094 0)"/>
       <use xlink:href="#DejaVuSans-30" transform="translate(190.869141 0)"/>
       <use xlink:href="#DejaVuSans-30" transform="translate(254.492188 0)"/>
      </g>
     </g>
    </g>
    <g id="xtick_8">
     <g id="line2d_15">
      <path d="M 677.397416 390.04 
L 677.397416 10.8 
" clip-path="url(#pc833664d82)" style="fill: none; stroke: #b0b0b0; stroke-width: 0.8; stroke-linecap: square"/>
     </g>
     <g id="line2d_16">
      <g>
       <use xlink:href="#m1f558174e9" x="677.397416" y="390.04" style="stroke: #000000; stroke-width: 0.8"/>
      </g>
     </g>
     <g id="text_8">
      <!-- 35000 -->
      <g transform="translate(661.491166 404.638438) scale(0.1 -0.1)">
       <use xlink:href="#DejaVuSans-33"/>
       <use xlink:href="#DejaVuSans-35" transform="translate(63.623047 0)"/>
       <use xlink:href="#DejaVuSans-30" transform="translate(127.246094 0)"/>
       <use xlink:href="#DejaVuSans-30" transform="translate(190.869141 0)"/>
       <use xlink:href="#DejaVuSans-30" transform="translate(254.492188 0)"/>
      </g>
     </g>
    </g>
    <g id="text_9">
     <!-- Episodes -->
     <g transform="translate(356.217813 418.316562) scale(0.1 -0.1)">
      <defs>
       <path id="DejaVuSans-45" d="M 628 4666 
L 3578 4666 
L 3578 4134 
L 1259 4134 
L 1259 2753 
L 3481 2753 
L 3481 2222 
L 1259 2222 
L 1259 531 
L 3634 531 
L 3634 0 
L 628 0 
L 628 4666 
z
" transform="scale(0.015625)"/>
       <path id="DejaVuSans-70" d="M 1159 525 
L 1159 -1331 
L 581 -1331 
L 581 3500 
L 1159 3500 
L 1159 2969 
Q 1341 3281 1617 3432 
Q 1894 3584 2278 3584 
Q 2916 3584 3314 3078 
Q 3713 2572 3713 1747 
Q 3713 922 3314 415 
Q 2916 -91 2278 -91 
Q 1894 -91 1617 61 
Q 1341 213 1159 525 
z
M 3116 1747 
Q 3116 2381 2855 2742 
Q 2594 3103 2138 3103 
Q 1681 3103 1420 2742 
Q 1159 2381 1159 1747 
Q 1159 1113 1420 752 
Q 1681 391 2138 391 
Q 2594 391 2855 752 
Q 3116 1113 3116 1747 
z
" transform="scale(0.015625)"/>
       <path id="DejaVuSans-69" d="M 603 3500 
L 1178 3500 
L 1178 0 
L 603 0 
L 603 3500 
z
M 603 4863 
L 1178 4863 
L 1178 4134 
L 603 4134 
L 603 4863 
z
" transform="scale(0.015625)"/>
       <path id="DejaVuSans-73" d="M 2834 3397 
L 2834 2853 
Q 2591 2978 2328 3040 
Q 2066 3103 1784 3103 
Q 1356 3103 1142 2972 
Q 928 2841 928 2578 
Q 928 2378 1081 2264 
Q 1234 2150 1697 2047 
L 1894 2003 
Q 2506 1872 2764 1633 
Q 3022 1394 3022 966 
Q 3022 478 2636 193 
Q 2250 -91 1575 -91 
Q 1294 -91 989 -36 
Q 684 19 347 128 
L 347 722 
Q 666 556 975 473 
Q 1284 391 1588 391 
Q 1994 391 2212 530 
Q 2431 669 2431 922 
Q 2431 1156 2273 1281 
Q 2116 1406 1581 1522 
L 1381 1569 
Q 847 1681 609 1914 
Q 372 2147 372 2553 
Q 372 3047 722 3315 
Q 1072 3584 1716 3584 
Q 2034 3584 2315 3537 
Q 2597 3491 2834 3397 
z
" transform="scale(0.015625)"/>
       <path id="DejaVuSans-6f" d="M 1959 3097 
Q 1497 3097 1228 2736 
Q 959 2375 959 1747 
Q 959 1119 1226 758 
Q 1494 397 1959 397 
Q 2419 397 2687 759 
Q 2956 1122 2956 1747 
Q 2956 2369 2687 2733 
Q 2419 3097 1959 3097 
z
M 1959 3584 
Q 2709 3584 3137 3096 
Q 3566 2609 3566 1747 
Q 3566 888 3137 398 
Q 2709 -91 1959 -91 
Q 1206 -91 779 398 
Q 353 888 353 1747 
Q 353 2609 779 3096 
Q 1206 3584 1959 3584 
z
" transform="scale(0.015625)"/>
       <path id="DejaVuSans-64" d="M 2906 2969 
L 2906 4863 
L 3481 4863 
L 3481 0 
L 2906 0 
L 2906 525 
Q 2725 213 2448 61 
Q 2172 -91 1784 -91 
Q 1150 -91 751 415 
Q 353 922 353 1747 
Q 353 2572 751 3078 
Q 1150 3584 1784 3584 
Q 2172 3584 2448 3432 
Q 2725 3281 2906 2969 
z
M 947 1747 
Q 947 1113 1208 752 
Q 1469 391 1925 391 
Q 2381 391 2643 752 
Q 2906 1113 2906 1747 
Q 2906 2381 2643 2742 
Q 2381 3103 1925 3103 
Q 1469 3103 1208 2742 
Q 947 2381 947 1747 
z
" transform="scale(0.015625)"/>
       <path id="DejaVuSans-65" d="M 3597 1894 
L 3597 1613 
L 953 1613 
Q 991 1019 1311 708 
Q 1631 397 2203 397 
Q 2534 397 2845 478 
Q 3156 559 3463 722 
L 3463 178 
Q 3153 47 2828 -22 
Q 2503 -91 2169 -91 
Q 1331 -91 842 396 
Q 353 884 353 1716 
Q 353 2575 817 3079 
Q 1281 3584 2069 3584 
Q 2775 3584 3186 3129 
Q 3597 2675 3597 1894 
z
M 3022 2063 
Q 3016 2534 2758 2815 
Q 2500 3097 2075 3097 
Q 1594 3097 1305 2825 
Q 1016 2553 972 2059 
L 3022 2063 
z
" transform="scale(0.015625)"/>
      </defs>
      <use xlink:href="#DejaVuSans-45"/>
      <use xlink:href="#DejaVuSans-70" transform="translate(63.183594 0)"/>
      <use xlink:href="#DejaVuSans-69" transform="translate(126.660156 0)"/>
      <use xlink:href="#DejaVuSans-73" transform="translate(154.443359 0)"/>
      <use xlink:href="#DejaVuSans-6f" transform="translate(206.542969 0)"/>
      <use xlink:href="#DejaVuSans-64" transform="translate(267.724609 0)"/>
      <use xlink:href="#DejaVuSans-65" transform="translate(331.201172 0)"/>
      <use xlink:href="#DejaVuSans-73" transform="translate(392.724609 0)"/>
     </g>
    </g>
   </g>
   <g id="matplotlib.axis_2">
    <g id="ytick_1">
     <g id="line2d_17">
      <path d="M 47.72 340.893206 
L 709.2 340.893206 
" clip-path="url(#pc833664d82)" style="fill: none; stroke: #b0b0b0; stroke-width: 0.8; stroke-linecap: square"/>
     </g>
     <g id="line2d_18">
      <defs>
       <path id="m2f42d568e9" d="M 0 0 
L -3.5 0 
" style="stroke: #000000; stroke-width: 0.8"/>
      </defs>
      <g>
       <use xlink:href="#m2f42d568e9" x="47.72" y="340.893206" style="stroke: #000000; stroke-width: 0.8"/>
      </g>
     </g>
     <g id="text_10">
      <!-- 0.6 -->
      <g transform="translate(24.816875 344.692425) scale(0.1 -0.1)">
       <defs>
        <path id="DejaVuSans-2e" d="M 684 794 
L 1344 794 
L 1344 0 
L 684 0 
L 684 794 
z
" transform="scale(0.015625)"/>
        <path id="DejaVuSans-36" d="M 2113 2584 
Q 1688 2584 1439 2293 
Q 1191 2003 1191 1497 
Q 1191 994 1439 701 
Q 1688 409 2113 409 
Q 2538 409 2786 701 
Q 3034 994 3034 1497 
Q 3034 2003 2786 2293 
Q 2538 2584 2113 2584 
z
M 3366 4563 
L 3366 3988 
Q 3128 4100 2886 4159 
Q 2644 4219 2406 4219 
Q 1781 4219 1451 3797 
Q 1122 3375 1075 2522 
Q 1259 2794 1537 2939 
Q 1816 3084 2150 3084 
Q 2853 3084 3261 2657 
Q 3669 2231 3669 1497 
Q 3669 778 3244 343 
Q 2819 -91 2113 -91 
Q 1303 -91 875 529 
Q 447 1150 447 2328 
Q 447 3434 972 4092 
Q 1497 4750 2381 4750 
Q 2619 4750 2861 4703 
Q 3103 4656 3366 4563 
z
" transform="scale(0.015625)"/>
       </defs>
       <use xlink:href="#DejaVuSans-30"/>
       <use xlink:href="#DejaVuSans-2e" transform="translate(63.623047 0)"/>
       <use xlink:href="#DejaVuSans-36" transform="translate(95.410156 0)"/>
      </g>
     </g>
    </g>
    <g id="ytick_2">
     <g id="line2d_19">
      <path d="M 47.72 262.67945 
L 709.2 262.67945 
" clip-path="url(#pc833664d82)" style="fill: none; stroke: #b0b0b0; stroke-width: 0.8; stroke-linecap: square"/>
     </g>
     <g id="line2d_20">
      <g>
       <use xlink:href="#m2f42d568e9" x="47.72" y="262.67945" style="stroke: #000000; stroke-width: 0.8"/>
      </g>
     </g>
     <g id="text_11">
      <!-- 0.7 -->
      <g transform="translate(24.816875 266.478669) scale(0.1 -0.1)">
       <defs>
        <path id="DejaVuSans-37" d="M 525 4666 
L 3525 4666 
L 3525 4397 
L 1831 0 
L 1172 0 
L 2766 4134 
L 525 4134 
L 525 4666 
z
" transform="scale(0.015625)"/>
       </defs>
       <use xlink:href="#DejaVuSans-30"/>
       <use xlink:href="#DejaVuSans-2e" transform="translate(63.623047 0)"/>
       <use xlink:href="#DejaVuSans-37" transform="translate(95.410156 0)"/>
      </g>
     </g>
    </g>
    <g id="ytick_3">
     <g id="line2d_21">
      <path d="M 47.72 184.465694 
L 709.2 184.465694 
" clip-path="url(#pc833664d82)" style="fill: none; stroke: #b0b0b0; stroke-width: 0.8; stroke-linecap: square"/>
     </g>
     <g id="line2d_22">
      <g>
       <use xlink:href="#m2f42d568e9" x="47.72" y="184.465694" style="stroke: #000000; stroke-width: 0.8"/>
      </g>
     </g>
     <g id="text_12">
      <!-- 0.8 -->
      <g transform="translate(24.816875 188.264913) scale(0.1 -0.1)">
       <defs>
        <path id="DejaVuSans-38" d="M 2034 2216 
Q 1584 2216 1326 1975 
Q 1069 1734 1069 1313 
Q 1069 891 1326 650 
Q 1584 409 2034 409 
Q 2484 409 2743 651 
Q 3003 894 3003 1313 
Q 3003 1734 2745 1975 
Q 2488 2216 2034 2216 
z
M 1403 2484 
Q 997 2584 770 2862 
Q 544 3141 544 3541 
Q 544 4100 942 4425 
Q 1341 4750 2034 4750 
Q 2731 4750 3128 4425 
Q 3525 4100 3525 3541 
Q 3525 3141 3298 2862 
Q 3072 2584 2669 2484 
Q 3125 2378 3379 2068 
Q 3634 1759 3634 1313 
Q 3634 634 3220 271 
Q 2806 -91 2034 -91 
Q 1263 -91 848 271 
Q 434 634 434 1313 
Q 434 1759 690 2068 
Q 947 2378 1403 2484 
z
M 1172 3481 
Q 1172 3119 1398 2916 
Q 1625 2713 2034 2713 
Q 2441 2713 2670 2916 
Q 2900 3119 2900 3481 
Q 2900 3844 2670 4047 
Q 2441 4250 2034 4250 
Q 1625 4250 1398 4047 
Q 1172 3844 1172 3481 
z
" transform="scale(0.015625)"/>
       </defs>
       <use xlink:href="#DejaVuSans-30"/>
       <use xlink:href="#DejaVuSans-2e" transform="translate(63.623047 0)"/>
       <use xlink:href="#DejaVuSans-38" transform="translate(95.410156 0)"/>
      </g>
     </g>
    </g>
    <g id="ytick_4">
     <g id="line2d_23">
      <path d="M 47.72 106.251938 
L 709.2 106.251938 
" clip-path="url(#pc833664d82)" style="fill: none; stroke: #b0b0b0; stroke-width: 0.8; stroke-linecap: square"/>
     </g>
     <g id="line2d_24">
      <g>
       <use xlink:href="#m2f42d568e9" x="47.72" y="106.251938" style="stroke: #000000; stroke-width: 0.8"/>
      </g>
     </g>
     <g id="text_13">
      <!-- 0.9 -->
      <g transform="translate(24.816875 110.051157) scale(0.1 -0.1)">
       <defs>
        <path id="DejaVuSans-39" d="M 703 97 
L 703 672 
Q 941 559 1184 500 
Q 1428 441 1663 441 
Q 2288 441 2617 861 
Q 2947 1281 2994 2138 
Q 2813 1869 2534 1725 
Q 2256 1581 1919 1581 
Q 1219 1581 811 2004 
Q 403 2428 403 3163 
Q 403 3881 828 4315 
Q 1253 4750 1959 4750 
Q 2769 4750 3195 4129 
Q 3622 3509 3622 2328 
Q 3622 1225 3098 567 
Q 2575 -91 1691 -91 
Q 1453 -91 1209 -44 
Q 966 3 703 97 
z
M 1959 2075 
Q 2384 2075 2632 2365 
Q 2881 2656 2881 3163 
Q 2881 3666 2632 3958 
Q 2384 4250 1959 4250 
Q 1534 4250 1286 3958 
Q 1038 3666 1038 3163 
Q 1038 2656 1286 2365 
Q 1534 2075 1959 2075 
z
" transform="scale(0.015625)"/>
       </defs>
       <use xlink:href="#DejaVuSans-30"/>
       <use xlink:href="#DejaVuSans-2e" transform="translate(63.623047 0)"/>
       <use xlink:href="#DejaVuSans-39" transform="translate(95.410156 0)"/>
      </g>
     </g>
    </g>
    <g id="ytick_5">
     <g id="line2d_25">
      <path d="M 47.72 28.038182 
L 709.2 28.038182 
" clip-path="url(#pc833664d82)" style="fill: none; stroke: #b0b0b0; stroke-width: 0.8; stroke-linecap: square"/>
     </g>
     <g id="line2d_26">
      <g>
       <use xlink:href="#m2f42d568e9" x="47.72" y="28.038182" style="stroke: #000000; stroke-width: 0.8"/>
      </g>
     </g>
     <g id="text_14">
      <!-- 1.0 -->
      <g transform="translate(24.816875 31.837401) scale(0.1 -0.1)">
       <use xlink:href="#DejaVuSans-31"/>
       <use xlink:href="#DejaVuSans-2e" transform="translate(63.623047 0)"/>
       <use xlink:href="#DejaVuSans-30" transform="translate(95.410156 0)"/>
      </g>
     </g>
    </g>
    <g id="text_15">
     <!-- Accuracy on Test -->
     <g transform="translate(18.737188 242.499688) rotate(-90) scale(0.1 -0.1)">
      <defs>
       <path id="DejaVuSans-41" d="M 2188 4044 
L 1331 1722 
L 3047 1722 
L 2188 4044 
z
M 1831 4666 
L 2547 4666 
L 4325 0 
L 3669 0 
L 3244 1197 
L 1141 1197 
L 716 0 
L 50 0 
L 1831 4666 
z
" transform="scale(0.015625)"/>
       <path id="DejaVuSans-63" d="M 3122 3366 
L 3122 2828 
Q 2878 2963 2633 3030 
Q 2388 3097 2138 3097 
Q 1578 3097 1268 2742 
Q 959 2388 959 1747 
Q 959 1106 1268 751 
Q 1578 397 2138 397 
Q 2388 397 2633 464 
Q 2878 531 3122 666 
L 3122 134 
Q 2881 22 2623 -34 
Q 2366 -91 2075 -91 
Q 1284 -91 818 406 
Q 353 903 353 1747 
Q 353 2603 823 3093 
Q 1294 3584 2113 3584 
Q 2378 3584 2631 3529 
Q 2884 3475 3122 3366 
z
" transform="scale(0.015625)"/>
       <path id="DejaVuSans-75" d="M 544 1381 
L 544 3500 
L 1119 3500 
L 1119 1403 
Q 1119 906 1312 657 
Q 1506 409 1894 409 
Q 2359 409 2629 706 
Q 2900 1003 2900 1516 
L 2900 3500 
L 3475 3500 
L 3475 0 
L 2900 0 
L 2900 538 
Q 2691 219 2414 64 
Q 2138 -91 1772 -91 
Q 1169 -91 856 284 
Q 544 659 544 1381 
z
M 1991 3584 
L 1991 3584 
z
" transform="scale(0.015625)"/>
       <path id="DejaVuSans-72" d="M 2631 2963 
Q 2534 3019 2420 3045 
Q 2306 3072 2169 3072 
Q 1681 3072 1420 2755 
Q 1159 2438 1159 1844 
L 1159 0 
L 581 0 
L 581 3500 
L 1159 3500 
L 1159 2956 
Q 1341 3275 1631 3429 
Q 1922 3584 2338 3584 
Q 2397 3584 2469 3576 
Q 2541 3569 2628 3553 
L 2631 2963 
z
" transform="scale(0.015625)"/>
       <path id="DejaVuSans-61" d="M 2194 1759 
Q 1497 1759 1228 1600 
Q 959 1441 959 1056 
Q 959 750 1161 570 
Q 1363 391 1709 391 
Q 2188 391 2477 730 
Q 2766 1069 2766 1631 
L 2766 1759 
L 2194 1759 
z
M 3341 1997 
L 3341 0 
L 2766 0 
L 2766 531 
Q 2569 213 2275 61 
Q 1981 -91 1556 -91 
Q 1019 -91 701 211 
Q 384 513 384 1019 
Q 384 1609 779 1909 
Q 1175 2209 1959 2209 
L 2766 2209 
L 2766 2266 
Q 2766 2663 2505 2880 
Q 2244 3097 1772 3097 
Q 1472 3097 1187 3025 
Q 903 2953 641 2809 
L 641 3341 
Q 956 3463 1253 3523 
Q 1550 3584 1831 3584 
Q 2591 3584 2966 3190 
Q 3341 2797 3341 1997 
z
" transform="scale(0.015625)"/>
       <path id="DejaVuSans-79" d="M 2059 -325 
Q 1816 -950 1584 -1140 
Q 1353 -1331 966 -1331 
L 506 -1331 
L 506 -850 
L 844 -850 
Q 1081 -850 1212 -737 
Q 1344 -625 1503 -206 
L 1606 56 
L 191 3500 
L 800 3500 
L 1894 763 
L 2988 3500 
L 3597 3500 
L 2059 -325 
z
" transform="scale(0.015625)"/>
       <path id="DejaVuSans-20" transform="scale(0.015625)"/>
       <path id="DejaVuSans-6e" d="M 3513 2113 
L 3513 0 
L 2938 0 
L 2938 2094 
Q 2938 2591 2744 2837 
Q 2550 3084 2163 3084 
Q 1697 3084 1428 2787 
Q 1159 2491 1159 1978 
L 1159 0 
L 581 0 
L 581 3500 
L 1159 3500 
L 1159 2956 
Q 1366 3272 1645 3428 
Q 1925 3584 2291 3584 
Q 2894 3584 3203 3211 
Q 3513 2838 3513 2113 
z
" transform="scale(0.015625)"/>
       <path id="DejaVuSans-54" d="M -19 4666 
L 3928 4666 
L 3928 4134 
L 2272 4134 
L 2272 0 
L 1638 0 
L 1638 4134 
L -19 4134 
L -19 4666 
z
" transform="scale(0.015625)"/>
       <path id="DejaVuSans-74" d="M 1172 4494 
L 1172 3500 
L 2356 3500 
L 2356 3053 
L 1172 3053 
L 1172 1153 
Q 1172 725 1289 603 
Q 1406 481 1766 481 
L 2356 481 
L 2356 0 
L 1766 0 
Q 1100 0 847 248 
Q 594 497 594 1153 
L 594 3053 
L 172 3053 
L 172 3500 
L 594 3500 
L 594 4494 
L 1172 4494 
z
" transform="scale(0.015625)"/>
      </defs>
      <use xlink:href="#DejaVuSans-41"/>
      <use xlink:href="#DejaVuSans-63" transform="translate(66.658203 0)"/>
      <use xlink:href="#DejaVuSans-63" transform="translate(121.638672 0)"/>
      <use xlink:href="#DejaVuSans-75" transform="translate(176.619141 0)"/>
      <use xlink:href="#DejaVuSans-72" transform="translate(239.998047 0)"/>
      <use xlink:href="#DejaVuSans-61" transform="translate(281.111328 0)"/>
      <use xlink:href="#DejaVuSans-63" transform="translate(342.390625 0)"/>
      <use xlink:href="#DejaVuSans-79" transform="translate(397.371094 0)"/>
      <use xlink:href="#DejaVuSans-20" transform="translate(456.550781 0)"/>
      <use xlink:href="#DejaVuSans-6f" transform="translate(488.337891 0)"/>
      <use xlink:href="#DejaVuSans-6e" transform="translate(549.519531 0)"/>
      <use xlink:href="#DejaVuSans-20" transform="translate(612.898438 0)"/>
      <use xlink:href="#DejaVuSans-54" transform="translate(644.685547 0)"/>
      <use xlink:href="#DejaVuSans-65" transform="translate(688.769531 0)"/>
      <use xlink:href="#DejaVuSans-73" transform="translate(750.292969 0)"/>
      <use xlink:href="#DejaVuSans-74" transform="translate(802.392578 0)"/>
     </g>
    </g>
   </g>
   <g id="line2d_27">
    <path d="M 77.787273 250.94737 
L 81.223532 199.891165 
L 84.659792 180.25082 
L 88.096052 171.777665 
L 91.532312 155.265871 
L 94.968571 119.722065 
L 98.404831 88.914538 
L 101.841091 73.793219 
L 105.277351 52.89277 
L 108.71361 37.988706 
L 112.14987 35.077419 
L 115.58613 31.383991 
L 119.02239 29.68936 
L 122.458649 29.993525 
L 125.894909 28.733415 
L 129.331169 28.385798 
L 132.767429 28.42925 
L 136.203688 29.081032 
L 139.639948 28.907223 
L 143.076208 28.081634 
L 146.512468 28.081634 
L 149.948727 28.776867 
L 153.384987 28.21199 
L 156.821247 28.21199 
L 160.257506 29.993526 
L 163.693766 28.038182 
L 170.566286 28.21199 
L 174.002545 28.038182 
L 177.438805 28.820319 
L 180.875065 28.21199 
L 184.311325 28.125086 
L 187.747584 28.776867 
L 191.183844 28.125086 
L 201.492623 28.081634 
L 204.928883 28.081634 
L 208.365143 28.820319 
L 211.801403 28.081634 
L 215.237662 28.820319 
L 218.673922 28.038182 
L 222.110182 28.125086 
L 228.982701 28.038182 
L 232.418961 28.038182 
L 235.855221 28.168538 
L 239.291481 28.125086 
L 242.72774 28.21199 
L 246.164 28.125086 
L 249.60026 28.689963 
L 253.036519 28.081634 
L 256.472779 28.559607 
L 259.909039 28.081634 
L 270.217818 28.038182 
L 273.654078 28.689963 
L 277.090338 28.038182 
L 280.526597 28.42925 
L 283.962857 28.081634 
L 287.399117 29.124484 
L 290.835377 28.081634 
L 304.580416 28.038182 
L 308.016675 28.950676 
L 311.452935 28.081634 
L 314.889195 28.298894 
L 318.325455 28.385798 
L 328.634234 28.081634 
L 332.070494 28.298894 
L 335.506753 28.081634 
L 380.17813 28.038182 
L 383.61439 28.385798 
L 387.050649 29.602456 
L 390.486909 28.820319 
L 393.923169 29.863169 
L 397.359429 28.385798 
L 400.795688 28.081634 
L 404.231948 28.342346 
L 407.668208 28.125086 
L 411.104468 28.038182 
L 414.540727 28.42925 
L 421.413247 28.64651 
L 428.285766 35.989906 
L 431.722026 35.85955 
L 435.158286 36.511331 
L 438.594545 36.728591 
L 442.030805 36.815495 
L 448.903325 36.728591 
L 452.339584 37.076207 
L 455.775844 36.902399 
L 459.212104 37.076208 
L 462.648364 36.815495 
L 466.084623 36.989303 
L 469.520883 36.728591 
L 483.265922 36.685139 
L 486.702182 37.119659 
L 490.138442 38.857741 
L 493.574701 42.247001 
L 497.010961 44.245795 
L 500.447221 45.027932 
L 503.883481 45.288644 
L 510.756 45.375548 
L 521.064779 45.375548 
L 524.501039 47.504698 
L 527.937299 50.93741 
L 531.373558 53.023108 
L 538.246078 53.674889 
L 541.682338 53.718341 
L 545.118597 53.979053 
L 551.991117 54.109409 
L 555.427377 53.935601 
L 558.863636 54.109409 
L 562.299896 53.979053 
L 565.736156 54.109409 
L 576.044935 54.109409 
L 579.481195 53.979053 
L 586.353714 54.109409 
L 589.789974 54.022505 
L 600.098753 54.109409 
L 606.971273 54.109409 
L 610.407532 53.110012 
L 613.843792 54.065957 
L 617.280052 53.848697 
L 620.716312 54.109409 
L 637.89761 54.109409 
L 641.33387 53.892149 
L 644.77013 54.065957 
L 679.132727 54.065957 
L 679.132727 54.065957 
" clip-path="url(#pc833664d82)" style="fill: none; stroke: #1f77b4; stroke-width: 1.5; stroke-linecap: square"/>
   </g>
   <g id="patch_3">
    <path d="M 47.72 390.04 
L 47.72 10.8 
" style="fill: none; stroke: #000000; stroke-width: 0.8; stroke-linejoin: miter; stroke-linecap: square"/>
   </g>
   <g id="patch_4">
    <path d="M 709.2 390.04 
L 709.2 10.8 
" style="fill: none; stroke: #000000; stroke-width: 0.8; stroke-linejoin: miter; stroke-linecap: square"/>
   </g>
   <g id="patch_5">
    <path d="M 47.72 390.04 
L 709.2 390.04 
" style="fill: none; stroke: #000000; stroke-width: 0.8; stroke-linejoin: miter; stroke-linecap: square"/>
   </g>
   <g id="patch_6">
    <path d="M 47.72 10.8 
L 709.2 10.8 
" style="fill: none; stroke: #000000; stroke-width: 0.8; stroke-linejoin: miter; stroke-linecap: square"/>
   </g>
  </g>
 </g>
 <defs>
  <clipPath id="pc833664d82">
   <rect x="47.72" y="10.8" width="661.48" height="379.24"/>
  </clipPath>
 </defs>
</svg>
