<?xml version="1.0" encoding="utf-8" standalone="no"?>
<!DOCTYPE svg PUBLIC "-//W3C//DTD SVG 1.1//EN"
  "http://www.w3.org/Graphics/SVG/1.1/DTD/svg11.dtd">
<svg xmlns:xlink="http://www.w3.org/1999/xlink" width="720pt" height="432pt" viewBox="0 0 720 432" xmlns="http://www.w3.org/2000/svg" version="1.1">
 <metadata>
  <rdf:RDF xmlns:dc="http://purl.org/dc/elements/1.1/" xmlns:cc="http://creativecommons.org/ns#" xmlns:rdf="http://www.w3.org/1999/02/22-rdf-syntax-ns#">
   <cc:Work>
    <dc:type rdf:resource="http://purl.org/dc/dcmitype/StillImage"/>
    <dc:date>2025-04-16T01:19:36.476208</dc:date>
    <dc:format>image/svg+xml</dc:format>
    <dc:creator>
     <cc:Agent>
      <dc:title>Matplotlib v3.10.0, https://matplotlib.org/</dc:title>
     </cc:Agent>
    </dc:creator>
   </cc:Work>
  </rdf:RDF>
 </metadata>
 <defs>
  <style type="text/css">*{stroke-linejoin: round; stroke-linecap: butt}</style>
 </defs>
 <g id="figure_1">
  <g id="patch_1">
   <path d="M 0 432 
L 720 432 
L 720 0 
L 0 0 
z
" style="fill: #ffffff"/>
  </g>
  <g id="axes_1">
   <g id="patch_2">
    <path d="M 47.72 390.04 
L 709.2 390.04 
L 709.2 13.566066 
L 47.72 13.566066 
z
" style="fill: #ffffff"/>
   </g>
   <g id="FillBetweenPolyCollection_1">
    <path d="M 77.787273 30.678517 
L 77.787273 232.134258 
L 81.223532 236.828738 
L 84.659792 236.930641 
L 88.096052 240.724656 
L 91.532312 227.586023 
L 94.968571 255.837742 
L 98.404831 260.302326 
L 101.841091 277.752172 
L 105.277351 279.283235 
L 108.71361 278.026022 
L 112.14987 279.681415 
L 115.58613 279.966017 
L 119.02239 278.223977 
L 122.458649 278.730693 
L 125.894909 276.361157 
L 129.331169 276.059749 
L 132.767429 277.824766 
L 136.203688 275.860949 
L 139.639948 277.128654 
L 143.076208 275.069296 
L 146.512468 274.995089 
L 149.948727 275.775654 
L 153.384987 276.362578 
L 156.821247 275.845617 
L 160.257506 275.18873 
L 163.693766 274.661523 
L 167.130026 274.542089 
L 170.566286 275.129013 
L 174.002545 274.601806 
L 177.438805 275.417352 
L 180.875065 275.178484 
L 184.311325 275.009579 
L 187.747584 275.069296 
L 191.183844 275.009579 
L 194.620104 274.890145 
L 198.056364 274.601806 
L 201.492623 274.949862 
L 204.928883 274.72124 
L 208.365143 275.367881 
L 211.801403 274.542089 
L 215.237662 275.367881 
L 218.673922 274.601806 
L 222.110182 275.367881 
L 225.546442 275.019825 
L 228.982701 274.601806 
L 232.418961 274.840674 
L 235.855221 275.645974 
L 239.291481 275.118767 
L 242.72774 275.944559 
L 246.164 274.890145 
L 249.60026 274.482372 
L 253.036519 274.890145 
L 256.472779 275.477069 
L 259.909039 274.482372 
L 263.345299 274.830428 
L 266.781558 274.542089 
L 270.217818 274.422654 
L 273.654078 274.542089 
L 277.090338 274.601806 
L 280.526597 276.074239 
L 283.962857 275.427598 
L 287.399117 276.457277 
L 290.835377 275.378127 
L 294.271636 275.198976 
L 297.707896 275.437844 
L 301.144156 274.875655 
L 304.580416 274.900391 
L 308.016675 275.651976 
L 311.452935 275.820881 
L 314.889195 274.960108 
L 318.325455 275.64173 
L 321.761714 275.139259 
L 325.197974 276.113465 
L 328.634234 274.890145 
L 332.070494 274.601806 
L 335.506753 274.830428 
L 338.943013 274.770711 
L 342.379273 274.422654 
L 345.815532 275.129013 
L 349.251792 274.482372 
L 352.688052 275.367881 
L 356.124312 275.069296 
L 359.560571 274.482372 
L 362.996831 274.830428 
L 366.433091 274.601806 
L 369.869351 274.601806 
L 373.30561 274.422654 
L 376.74187 274.542089 
L 380.17813 274.661523 
L 383.61439 276.313107 
L 387.050649 275.651976 
L 390.486909 275.796146 
L 393.923169 276.035014 
L 397.359429 275.616995 
L 400.795688 275.009579 
L 404.231948 274.960108 
L 407.668208 275.547032 
L 411.104468 274.482372 
L 414.540727 275.18873 
L 417.976987 274.780957 
L 421.413247 279.414876 
L 424.849506 309.287998 
L 428.285766 333.712965 
L 431.722026 336.487243 
L 435.158286 340.380665 
L 438.594545 341.699228 
L 442.030805 342.687453 
L 445.467065 343.690936 
L 448.903325 344.064421 
L 452.339584 344.350992 
L 455.775844 344.274125 
L 459.212104 342.633705 
L 462.648364 344.518945 
L 466.084623 343.937058 
L 469.520883 343.024263 
L 472.957143 344.191565 
L 476.393403 344.067738 
L 479.829662 344.105107 
L 483.265922 340.351463 
L 486.702182 338.790258 
L 490.138442 348.719228 
L 493.574701 362.604195 
L 497.010961 369.179906 
L 500.447221 371.520834 
L 503.883481 372.614474 
L 507.31974 372.326134 
L 510.756 372.519775 
L 514.19226 372.723662 
L 517.628519 372.927548 
L 521.064779 372.315889 
L 524.501039 369.857245 
L 527.937299 365.079884 
L 531.373558 362.596505 
L 534.809818 362.059052 
L 538.246078 361.581316 
L 541.682338 361.461882 
L 545.118597 361.10358 
L 548.554857 361.223014 
L 551.991117 360.924429 
L 555.427377 361.521599 
L 558.863636 361.342448 
L 562.299896 361.461882 
L 565.736156 361.043863 
L 569.172416 360.924429 
L 572.608675 360.984146 
L 576.044935 361.223014 
L 579.481195 361.10358 
L 582.917455 360.984146 
L 586.353714 360.984146 
L 589.789974 361.223014 
L 593.226234 361.282731 
L 596.662494 360.984146 
L 600.098753 360.984146 
L 603.535013 361.342448 
L 606.971273 361.043863 
L 610.407532 362.954807 
L 613.843792 361.581316 
L 617.280052 361.70075 
L 620.716312 361.043863 
L 624.152571 361.223014 
L 627.588831 360.984146 
L 631.025091 361.10358 
L 634.461351 361.163297 
L 637.89761 360.924429 
L 641.33387 361.078844 
L 644.77013 360.984146 
L 648.20639 360.984146 
L 651.642649 360.984146 
L 655.078909 361.10358 
L 658.515169 360.924429 
L 661.951429 360.924429 
L 665.387688 360.984146 
L 668.823948 361.10358 
L 672.260208 360.924429 
L 675.696468 360.924429 
L 679.132727 361.282731 
L 679.132727 358.836091 
L 679.132727 358.836091 
L 675.696468 360.924429 
L 672.260208 360.924429 
L 668.823948 359.88026 
L 665.387688 360.576372 
L 661.951429 360.924429 
L 658.515169 360.924429 
L 655.078909 359.88026 
L 651.642649 360.576372 
L 648.20639 360.576372 
L 644.77013 360.576372 
L 641.33387 359.039978 
L 637.89761 360.924429 
L 634.461351 359.532204 
L 631.025091 359.88026 
L 627.588831 360.576372 
L 624.152571 359.184147 
L 620.716312 360.228316 
L 617.280052 356.399697 
L 613.843792 357.09581 
L 610.407532 349.090516 
L 606.971273 360.228316 
L 603.535013 358.488035 
L 600.098753 360.576372 
L 596.662494 360.576372 
L 593.226234 358.836091 
L 589.789974 359.184147 
L 586.353714 360.576372 
L 582.917455 360.576372 
L 579.481195 359.88026 
L 576.044935 359.184147 
L 572.608675 360.576372 
L 569.172416 360.924429 
L 565.736156 360.228316 
L 562.299896 357.791922 
L 558.863636 358.488035 
L 555.427377 357.443866 
L 551.991117 360.924429 
L 548.554857 359.184147 
L 545.118597 359.88026 
L 541.682338 357.791922 
L 538.246078 357.09581 
L 534.809818 354.31136 
L 531.373558 351.178853 
L 527.937299 335.720208 
L 524.501039 307.875707 
L 521.064779 291.57678 
L 517.628519 290.96512 
L 514.19226 291.169007 
L 510.756 291.372894 
L 507.31974 289.54816 
L 503.883481 289.836499 
L 500.447221 288.335086 
L 497.010961 283.467532 
L 493.574701 270.724514 
L 490.138442 260.677323 
L 486.702182 258.496045 
L 483.265922 257.799858 
L 479.829662 258.371302 
L 476.393403 252.065207 
L 472.957143 253.383077 
L 469.520883 249.936951 
L 466.084623 242.680693 
L 462.648364 248.153929 
L 459.212104 246.290759 
L 455.775844 256.183909 
L 452.339584 252.646971 
L 448.903325 260.718702 
L 445.467065 262.245544 
L 442.030805 260.077295 
L 438.594545 257.028771 
L 435.158286 259.212351 
L 431.722026 260.51072 
L 428.285766 260.401606 
L 424.849506 268.102897 
L 421.413247 272.890504 
L 417.976987 272.334317 
L 414.540727 271.926544 
L 411.104468 274.074598 
L 407.668208 269.838206 
L 404.231948 271.290148 
L 400.795688 272.970712 
L 397.359429 267.461529 
L 393.923169 265.025135 
L 390.486909 266.41736 
L 387.050649 266.273191 
L 383.61439 267.342095 
L 380.17813 273.030429 
L 376.74187 273.726542 
L 373.30561 274.422654 
L 369.869351 273.378486 
L 366.433091 273.378486 
L 362.996831 274.014881 
L 359.560571 274.074598 
L 356.124312 272.622656 
L 352.688052 270.882375 
L 349.251792 274.074598 
L 345.815532 272.2746 
L 342.379273 274.422654 
L 338.943013 274.362937 
L 335.506753 274.014881 
L 332.070494 273.378486 
L 328.634234 273.666825 
L 325.197974 272.443505 
L 321.761714 270.245979 
L 318.325455 268.301811 
L 314.889195 271.290148 
L 311.452935 267.257643 
L 308.016675 266.273191 
L 304.580416 271.638204 
L 301.144156 270.797922 
L 297.707896 268.505698 
L 294.271636 269.897923 
L 290.835377 268.853754 
L 287.399117 267.486265 
L 283.962857 270.534319 
L 280.526597 268.73432 
L 277.090338 273.378486 
L 273.654078 273.726542 
L 270.217818 274.422654 
L 266.781558 273.726542 
L 263.345299 274.014881 
L 259.909039 274.074598 
L 256.472779 272.214883 
L 253.036519 273.666825 
L 249.60026 274.074598 
L 246.164 273.666825 
L 242.72774 271.459053 
L 239.291481 274.30322 
L 235.855221 273.199335 
L 232.418961 271.986261 
L 228.982701 273.378486 
L 225.546442 270.942092 
L 222.110182 270.882375 
L 218.673922 273.378486 
L 215.237662 270.882375 
L 211.801403 273.726542 
L 208.365143 270.882375 
L 204.928883 272.682373 
L 201.492623 273.318769 
L 198.056364 273.378486 
L 194.620104 273.666825 
L 191.183844 272.970712 
L 187.747584 272.622656 
L 184.311325 272.970712 
L 180.875065 273.955164 
L 177.438805 272.562939 
L 174.002545 273.378486 
L 170.566286 272.2746 
L 167.130026 273.726542 
L 163.693766 273.030429 
L 160.257506 271.926544 
L 156.821247 268.097925 
L 153.384987 269.02266 
L 149.948727 270.474602 
L 146.512468 270.10181 
L 143.076208 272.622656 
L 139.639948 266.526549 
L 136.203688 265.775879 
L 132.767429 266.407115 
L 129.331169 265.865418 
L 125.894909 261.527261 
L 122.458649 260.599421 
L 119.02239 257.646065 
L 115.58613 245.523813 
L 112.14987 236.00488 
L 108.71361 207.961331 
L 105.277351 188.250406 
L 101.841091 152.297367 
L 98.404831 114.386077 
L 94.968571 102.415324 
L 91.532312 66.655731 
L 88.096052 63.897311 
L 84.659792 44.335846 
L 81.223532 34.345876 
L 77.787273 30.678517 
z
" clip-path="url(#p52d58f63af)" style="fill: #1f77b4; fill-opacity: 0.2"/>
   </g>
   <g id="matplotlib.axis_1">
    <g id="xtick_1">
     <g id="line2d_1">
      <path d="M 76.051962 390.04 
L 76.051962 13.566066 
" clip-path="url(#p52d58f63af)" style="fill: none; stroke: #b0b0b0; stroke-width: 0.8; stroke-linecap: square"/>
     </g>
     <g id="line2d_2">
      <defs>
       <path id="m6fde5c157c" d="M 0 0 
L 0 3.5 
" style="stroke: #000000; stroke-width: 0.8"/>
      </defs>
      <g>
       <use xlink:href="#m6fde5c157c" x="76.051962" y="390.04" style="stroke: #000000; stroke-width: 0.8"/>
      </g>
     </g>
     <g id="text_1">
      <!-- 0 -->
      <g transform="translate(72.870712 404.638438) scale(0.1 -0.1)">
       <defs>
        <path id="DejaVuSans-30" d="M 2034 4250 
Q 1547 4250 1301 3770 
Q 1056 3291 1056 2328 
Q 1056 1369 1301 889 
Q 1547 409 2034 409 
Q 2525 409 2770 889 
Q 3016 1369 3016 2328 
Q 3016 3291 2770 3770 
Q 2525 4250 2034 4250 
z
M 2034 4750 
Q 2819 4750 3233 4129 
Q 3647 3509 3647 2328 
Q 3647 1150 3233 529 
Q 2819 -91 2034 -91 
Q 1250 -91 836 529 
Q 422 1150 422 2328 
Q 422 3509 836 4129 
Q 1250 4750 2034 4750 
z
" transform="scale(0.015625)"/>
       </defs>
       <use xlink:href="#DejaVuSans-30"/>
      </g>
     </g>
    </g>
    <g id="xtick_2">
     <g id="line2d_3">
      <path d="M 161.958455 390.04 
L 161.958455 13.566066 
" clip-path="url(#p52d58f63af)" style="fill: none; stroke: #b0b0b0; stroke-width: 0.8; stroke-linecap: square"/>
     </g>
     <g id="line2d_4">
      <g>
       <use xlink:href="#m6fde5c157c" x="161.958455" y="390.04" style="stroke: #000000; stroke-width: 0.8"/>
      </g>
     </g>
     <g id="text_2">
      <!-- 5000 -->
      <g transform="translate(149.233455 404.638438) scale(0.1 -0.1)">
       <defs>
        <path id="DejaVuSans-35" d="M 691 4666 
L 3169 4666 
L 3169 4134 
L 1269 4134 
L 1269 2991 
Q 1406 3038 1543 3061 
Q 1681 3084 1819 3084 
Q 2600 3084 3056 2656 
Q 3513 2228 3513 1497 
Q 3513 744 3044 326 
Q 2575 -91 1722 -91 
Q 1428 -91 1123 -41 
Q 819 9 494 109 
L 494 744 
Q 775 591 1075 516 
Q 1375 441 1709 441 
Q 2250 441 2565 725 
Q 2881 1009 2881 1497 
Q 2881 1984 2565 2268 
Q 2250 2553 1709 2553 
Q 1456 2553 1204 2497 
Q 953 2441 691 2322 
L 691 4666 
z
" transform="scale(0.015625)"/>
       </defs>
       <use xlink:href="#DejaVuSans-35"/>
       <use xlink:href="#DejaVuSans-30" transform="translate(63.623047 0)"/>
       <use xlink:href="#DejaVuSans-30" transform="translate(127.246094 0)"/>
       <use xlink:href="#DejaVuSans-30" transform="translate(190.869141 0)"/>
      </g>
     </g>
    </g>
    <g id="xtick_3">
     <g id="line2d_5">
      <path d="M 247.864949 390.04 
L 247.864949 13.566066 
" clip-path="url(#p52d58f63af)" style="fill: none; stroke: #b0b0b0; stroke-width: 0.8; stroke-linecap: square"/>
     </g>
     <g id="line2d_6">
      <g>
       <use xlink:href="#m6fde5c157c" x="247.864949" y="390.04" style="stroke: #000000; stroke-width: 0.8"/>
      </g>
     </g>
     <g id="text_3">
      <!-- 10000 -->
      <g transform="translate(231.958699 404.638438) scale(0.1 -0.1)">
       <defs>
        <path id="DejaVuSans-31" d="M 794 531 
L 1825 531 
L 1825 4091 
L 703 3866 
L 703 4441 
L 1819 4666 
L 2450 4666 
L 2450 531 
L 3481 531 
L 3481 0 
L 794 0 
L 794 531 
z
" transform="scale(0.015625)"/>
       </defs>
       <use xlink:href="#DejaVuSans-31"/>
       <use xlink:href="#DejaVuSans-30" transform="translate(63.623047 0)"/>
       <use xlink:href="#DejaVuSans-30" transform="translate(127.246094 0)"/>
       <use xlink:href="#DejaVuSans-30" transform="translate(190.869141 0)"/>
       <use xlink:href="#DejaVuSans-30" transform="translate(254.492188 0)"/>
      </g>
     </g>
    </g>
    <g id="xtick_4">
     <g id="line2d_7">
      <path d="M 333.771442 390.04 
L 333.771442 13.566066 
" clip-path="url(#p52d58f63af)" style="fill: none; stroke: #b0b0b0; stroke-width: 0.8; stroke-linecap: square"/>
     </g>
     <g id="line2d_8">
      <g>
       <use xlink:href="#m6fde5c157c" x="333.771442" y="390.04" style="stroke: #000000; stroke-width: 0.8"/>
      </g>
     </g>
     <g id="text_4">
      <!-- 15000 -->
      <g transform="translate(317.865192 404.638438) scale(0.1 -0.1)">
       <use xlink:href="#DejaVuSans-31"/>
       <use xlink:href="#DejaVuSans-35" transform="translate(63.623047 0)"/>
       <use xlink:href="#DejaVuSans-30" transform="translate(127.246094 0)"/>
       <use xlink:href="#DejaVuSans-30" transform="translate(190.869141 0)"/>
       <use xlink:href="#DejaVuSans-30" transform="translate(254.492188 0)"/>
      </g>
     </g>
    </g>
    <g id="xtick_5">
     <g id="line2d_9">
      <path d="M 419.677936 390.04 
L 419.677936 13.566066 
" clip-path="url(#p52d58f63af)" style="fill: none; stroke: #b0b0b0; stroke-width: 0.8; stroke-linecap: square"/>
     </g>
     <g id="line2d_10">
      <g>
       <use xlink:href="#m6fde5c157c" x="419.677936" y="390.04" style="stroke: #000000; stroke-width: 0.8"/>
      </g>
     </g>
     <g id="text_5">
      <!-- 20000 -->
      <g transform="translate(403.771686 404.638438) scale(0.1 -0.1)">
       <defs>
        <path id="DejaVuSans-32" d="M 1228 531 
L 3431 531 
L 3431 0 
L 469 0 
L 469 531 
Q 828 903 1448 1529 
Q 2069 2156 2228 2338 
Q 2531 2678 2651 2914 
Q 2772 3150 2772 3378 
Q 2772 3750 2511 3984 
Q 2250 4219 1831 4219 
Q 1534 4219 1204 4116 
Q 875 4013 500 3803 
L 500 4441 
Q 881 4594 1212 4672 
Q 1544 4750 1819 4750 
Q 2544 4750 2975 4387 
Q 3406 4025 3406 3419 
Q 3406 3131 3298 2873 
Q 3191 2616 2906 2266 
Q 2828 2175 2409 1742 
Q 1991 1309 1228 531 
z
" transform="scale(0.015625)"/>
       </defs>
       <use xlink:href="#DejaVuSans-32"/>
       <use xlink:href="#DejaVuSans-30" transform="translate(63.623047 0)"/>
       <use xlink:href="#DejaVuSans-30" transform="translate(127.246094 0)"/>
       <use xlink:href="#DejaVuSans-30" transform="translate(190.869141 0)"/>
       <use xlink:href="#DejaVuSans-30" transform="translate(254.492188 0)"/>
      </g>
     </g>
    </g>
    <g id="xtick_6">
     <g id="line2d_11">
      <path d="M 505.584429 390.04 
L 505.584429 13.566066 
" clip-path="url(#p52d58f63af)" style="fill: none; stroke: #b0b0b0; stroke-width: 0.8; stroke-linecap: square"/>
     </g>
     <g id="line2d_12">
      <g>
       <use xlink:href="#m6fde5c157c" x="505.584429" y="390.04" style="stroke: #000000; stroke-width: 0.8"/>
      </g>
     </g>
     <g id="text_6">
      <!-- 25000 -->
      <g transform="translate(489.678179 404.638438) scale(0.1 -0.1)">
       <use xlink:href="#DejaVuSans-32"/>
       <use xlink:href="#DejaVuSans-35" transform="translate(63.623047 0)"/>
       <use xlink:href="#DejaVuSans-30" transform="translate(127.246094 0)"/>
       <use xlink:href="#DejaVuSans-30" transform="translate(190.869141 0)"/>
       <use xlink:href="#DejaVuSans-30" transform="translate(254.492188 0)"/>
      </g>
     </g>
    </g>
    <g id="xtick_7">
     <g id="line2d_13">
      <path d="M 591.490923 390.04 
L 591.490923 13.566066 
" clip-path="url(#p52d58f63af)" style="fill: none; stroke: #b0b0b0; stroke-width: 0.8; stroke-linecap: square"/>
     </g>
     <g id="line2d_14">
      <g>
       <use xlink:href="#m6fde5c157c" x="591.490923" y="390.04" style="stroke: #000000; stroke-width: 0.8"/>
      </g>
     </g>
     <g id="text_7">
      <!-- 30000 -->
      <g transform="translate(575.584673 404.638438) scale(0.1 -0.1)">
       <defs>
        <path id="DejaVuSans-33" d="M 2597 2516 
Q 3050 2419 3304 2112 
Q 3559 1806 3559 1356 
Q 3559 666 3084 287 
Q 2609 -91 1734 -91 
Q 1441 -91 1130 -33 
Q 819 25 488 141 
L 488 750 
Q 750 597 1062 519 
Q 1375 441 1716 441 
Q 2309 441 2620 675 
Q 2931 909 2931 1356 
Q 2931 1769 2642 2001 
Q 2353 2234 1838 2234 
L 1294 2234 
L 1294 2753 
L 1863 2753 
Q 2328 2753 2575 2939 
Q 2822 3125 2822 3475 
Q 2822 3834 2567 4026 
Q 2313 4219 1838 4219 
Q 1578 4219 1281 4162 
Q 984 4106 628 3988 
L 628 4550 
Q 988 4650 1302 4700 
Q 1616 4750 1894 4750 
Q 2613 4750 3031 4423 
Q 3450 4097 3450 3541 
Q 3450 3153 3228 2886 
Q 3006 2619 2597 2516 
z
" transform="scale(0.015625)"/>
       </defs>
       <use xlink:href="#DejaVuSans-33"/>
       <use xlink:href="#DejaVuSans-30" transform="translate(63.623047 0)"/>
       <use xlink:href="#DejaVuSans-30" transform="translate(127.246094 0)"/>
       <use xlink:href="#DejaVuSans-30" transform="translate(190.869141 0)"/>
       <use xlink:href="#DejaVuSans-30" transform="translate(254.492188 0)"/>
      </g>
     </g>
    </g>
    <g id="xtick_8">
     <g id="line2d_15">
      <path d="M 677.397416 390.04 
L 677.397416 13.566066 
" clip-path="url(#p52d58f63af)" style="fill: none; stroke: #b0b0b0; stroke-width: 0.8; stroke-linecap: square"/>
     </g>
     <g id="line2d_16">
      <g>
       <use xlink:href="#m6fde5c157c" x="677.397416" y="390.04" style="stroke: #000000; stroke-width: 0.8"/>
      </g>
     </g>
     <g id="text_8">
      <!-- 35000 -->
      <g transform="translate(661.491166 404.638438) scale(0.1 -0.1)">
       <use xlink:href="#DejaVuSans-33"/>
       <use xlink:href="#DejaVuSans-35" transform="translate(63.623047 0)"/>
       <use xlink:href="#DejaVuSans-30" transform="translate(127.246094 0)"/>
       <use xlink:href="#DejaVuSans-30" transform="translate(190.869141 0)"/>
       <use xlink:href="#DejaVuSans-30" transform="translate(254.492188 0)"/>
      </g>
     </g>
    </g>
    <g id="text_9">
     <!-- Episodes -->
     <g transform="translate(356.217813 418.316562) scale(0.1 -0.1)">
      <defs>
       <path id="DejaVuSans-45" d="M 628 4666 
L 3578 4666 
L 3578 4134 
L 1259 4134 
L 1259 2753 
L 3481 2753 
L 3481 2222 
L 1259 2222 
L 1259 531 
L 3634 531 
L 3634 0 
L 628 0 
L 628 4666 
z
" transform="scale(0.015625)"/>
       <path id="DejaVuSans-70" d="M 1159 525 
L 1159 -1331 
L 581 -1331 
L 581 3500 
L 1159 3500 
L 1159 2969 
Q 1341 3281 1617 3432 
Q 1894 3584 2278 3584 
Q 2916 3584 3314 3078 
Q 3713 2572 3713 1747 
Q 3713 922 3314 415 
Q 2916 -91 2278 -91 
Q 1894 -91 1617 61 
Q 1341 213 1159 525 
z
M 3116 1747 
Q 3116 2381 2855 2742 
Q 2594 3103 2138 3103 
Q 1681 3103 1420 2742 
Q 1159 2381 1159 1747 
Q 1159 1113 1420 752 
Q 1681 391 2138 391 
Q 2594 391 2855 752 
Q 3116 1113 3116 1747 
z
" transform="scale(0.015625)"/>
       <path id="DejaVuSans-69" d="M 603 3500 
L 1178 3500 
L 1178 0 
L 603 0 
L 603 3500 
z
M 603 4863 
L 1178 4863 
L 1178 4134 
L 603 4134 
L 603 4863 
z
" transform="scale(0.015625)"/>
       <path id="DejaVuSans-73" d="M 2834 3397 
L 2834 2853 
Q 2591 2978 2328 3040 
Q 2066 3103 1784 3103 
Q 1356 3103 1142 2972 
Q 928 2841 928 2578 
Q 928 2378 1081 2264 
Q 1234 2150 1697 2047 
L 1894 2003 
Q 2506 1872 2764 1633 
Q 3022 1394 3022 966 
Q 3022 478 2636 193 
Q 2250 -91 1575 -91 
Q 1294 -91 989 -36 
Q 684 19 347 128 
L 347 722 
Q 666 556 975 473 
Q 1284 391 1588 391 
Q 1994 391 2212 530 
Q 2431 669 2431 922 
Q 2431 1156 2273 1281 
Q 2116 1406 1581 1522 
L 1381 1569 
Q 847 1681 609 1914 
Q 372 2147 372 2553 
Q 372 3047 722 3315 
Q 1072 3584 1716 3584 
Q 2034 3584 2315 3537 
Q 2597 3491 2834 3397 
z
" transform="scale(0.015625)"/>
       <path id="DejaVuSans-6f" d="M 1959 3097 
Q 1497 3097 1228 2736 
Q 959 2375 959 1747 
Q 959 1119 1226 758 
Q 1494 397 1959 397 
Q 2419 397 2687 759 
Q 2956 1122 2956 1747 
Q 2956 2369 2687 2733 
Q 2419 3097 1959 3097 
z
M 1959 3584 
Q 2709 3584 3137 3096 
Q 3566 2609 3566 1747 
Q 3566 888 3137 398 
Q 2709 -91 1959 -91 
Q 1206 -91 779 398 
Q 353 888 353 1747 
Q 353 2609 779 3096 
Q 1206 3584 1959 3584 
z
" transform="scale(0.015625)"/>
       <path id="DejaVuSans-64" d="M 2906 2969 
L 2906 4863 
L 3481 4863 
L 3481 0 
L 2906 0 
L 2906 525 
Q 2725 213 2448 61 
Q 2172 -91 1784 -91 
Q 1150 -91 751 415 
Q 353 922 353 1747 
Q 353 2572 751 3078 
Q 1150 3584 1784 3584 
Q 2172 3584 2448 3432 
Q 2725 3281 2906 2969 
z
M 947 1747 
Q 947 1113 1208 752 
Q 1469 391 1925 391 
Q 2381 391 2643 752 
Q 2906 1113 2906 1747 
Q 2906 2381 2643 2742 
Q 2381 3103 1925 3103 
Q 1469 3103 1208 2742 
Q 947 2381 947 1747 
z
" transform="scale(0.015625)"/>
       <path id="DejaVuSans-65" d="M 3597 1894 
L 3597 1613 
L 953 1613 
Q 991 1019 1311 708 
Q 1631 397 2203 397 
Q 2534 397 2845 478 
Q 3156 559 3463 722 
L 3463 178 
Q 3153 47 2828 -22 
Q 2503 -91 2169 -91 
Q 1331 -91 842 396 
Q 353 884 353 1716 
Q 353 2575 817 3079 
Q 1281 3584 2069 3584 
Q 2775 3584 3186 3129 
Q 3597 2675 3597 1894 
z
M 3022 2063 
Q 3016 2534 2758 2815 
Q 2500 3097 2075 3097 
Q 1594 3097 1305 2825 
Q 1016 2553 972 2059 
L 3022 2063 
z
" transform="scale(0.015625)"/>
      </defs>
      <use xlink:href="#DejaVuSans-45"/>
      <use xlink:href="#DejaVuSans-70" transform="translate(63.183594 0)"/>
      <use xlink:href="#DejaVuSans-69" transform="translate(126.660156 0)"/>
      <use xlink:href="#DejaVuSans-73" transform="translate(154.443359 0)"/>
      <use xlink:href="#DejaVuSans-6f" transform="translate(206.542969 0)"/>
      <use xlink:href="#DejaVuSans-64" transform="translate(267.724609 0)"/>
      <use xlink:href="#DejaVuSans-65" transform="translate(331.201172 0)"/>
      <use xlink:href="#DejaVuSans-73" transform="translate(392.724609 0)"/>
     </g>
    </g>
   </g>
   <g id="matplotlib.axis_2">
    <g id="ytick_1">
     <g id="line2d_17">
      <path d="M 47.72 360.924429 
L 709.2 360.924429 
" clip-path="url(#p52d58f63af)" style="fill: none; stroke: #b0b0b0; stroke-width: 0.8; stroke-linecap: square"/>
     </g>
     <g id="line2d_18">
      <defs>
       <path id="ma7fa1b254d" d="M 0 0 
L -3.5 0 
" style="stroke: #000000; stroke-width: 0.8"/>
      </defs>
      <g>
       <use xlink:href="#ma7fa1b254d" x="47.72" y="360.924429" style="stroke: #000000; stroke-width: 0.8"/>
      </g>
     </g>
     <g id="text_10">
      <!-- 2.0 -->
      <g transform="translate(24.816875 364.723647) scale(0.1 -0.1)">
       <defs>
        <path id="DejaVuSans-2e" d="M 684 794 
L 1344 794 
L 1344 0 
L 684 0 
L 684 794 
z
" transform="scale(0.015625)"/>
       </defs>
       <use xlink:href="#DejaVuSans-32"/>
       <use xlink:href="#DejaVuSans-2e" transform="translate(63.623047 0)"/>
       <use xlink:href="#DejaVuSans-30" transform="translate(95.410156 0)"/>
      </g>
     </g>
    </g>
    <g id="ytick_2">
     <g id="line2d_19">
      <path d="M 47.72 317.673542 
L 709.2 317.673542 
" clip-path="url(#p52d58f63af)" style="fill: none; stroke: #b0b0b0; stroke-width: 0.8; stroke-linecap: square"/>
     </g>
     <g id="line2d_20">
      <g>
       <use xlink:href="#ma7fa1b254d" x="47.72" y="317.673542" style="stroke: #000000; stroke-width: 0.8"/>
      </g>
     </g>
     <g id="text_11">
      <!-- 2.5 -->
      <g transform="translate(24.816875 321.47276) scale(0.1 -0.1)">
       <use xlink:href="#DejaVuSans-32"/>
       <use xlink:href="#DejaVuSans-2e" transform="translate(63.623047 0)"/>
       <use xlink:href="#DejaVuSans-35" transform="translate(95.410156 0)"/>
      </g>
     </g>
    </g>
    <g id="ytick_3">
     <g id="line2d_21">
      <path d="M 47.72 274.422654 
L 709.2 274.422654 
" clip-path="url(#p52d58f63af)" style="fill: none; stroke: #b0b0b0; stroke-width: 0.8; stroke-linecap: square"/>
     </g>
     <g id="line2d_22">
      <g>
       <use xlink:href="#ma7fa1b254d" x="47.72" y="274.422654" style="stroke: #000000; stroke-width: 0.8"/>
      </g>
     </g>
     <g id="text_12">
      <!-- 3.0 -->
      <g transform="translate(24.816875 278.221873) scale(0.1 -0.1)">
       <use xlink:href="#DejaVuSans-33"/>
       <use xlink:href="#DejaVuSans-2e" transform="translate(63.623047 0)"/>
       <use xlink:href="#DejaVuSans-30" transform="translate(95.410156 0)"/>
      </g>
     </g>
    </g>
    <g id="ytick_4">
     <g id="line2d_23">
      <path d="M 47.72 231.171767 
L 709.2 231.171767 
" clip-path="url(#p52d58f63af)" style="fill: none; stroke: #b0b0b0; stroke-width: 0.8; stroke-linecap: square"/>
     </g>
     <g id="line2d_24">
      <g>
       <use xlink:href="#ma7fa1b254d" x="47.72" y="231.171767" style="stroke: #000000; stroke-width: 0.8"/>
      </g>
     </g>
     <g id="text_13">
      <!-- 3.5 -->
      <g transform="translate(24.816875 234.970986) scale(0.1 -0.1)">
       <use xlink:href="#DejaVuSans-33"/>
       <use xlink:href="#DejaVuSans-2e" transform="translate(63.623047 0)"/>
       <use xlink:href="#DejaVuSans-35" transform="translate(95.410156 0)"/>
      </g>
     </g>
    </g>
    <g id="ytick_5">
     <g id="line2d_25">
      <path d="M 47.72 187.92088 
L 709.2 187.92088 
" clip-path="url(#p52d58f63af)" style="fill: none; stroke: #b0b0b0; stroke-width: 0.8; stroke-linecap: square"/>
     </g>
     <g id="line2d_26">
      <g>
       <use xlink:href="#ma7fa1b254d" x="47.72" y="187.92088" style="stroke: #000000; stroke-width: 0.8"/>
      </g>
     </g>
     <g id="text_14">
      <!-- 4.0 -->
      <g transform="translate(24.816875 191.720099) scale(0.1 -0.1)">
       <defs>
        <path id="DejaVuSans-34" d="M 2419 4116 
L 825 1625 
L 2419 1625 
L 2419 4116 
z
M 2253 4666 
L 3047 4666 
L 3047 1625 
L 3713 1625 
L 3713 1100 
L 3047 1100 
L 3047 0 
L 2419 0 
L 2419 1100 
L 313 1100 
L 313 1709 
L 2253 4666 
z
" transform="scale(0.015625)"/>
       </defs>
       <use xlink:href="#DejaVuSans-34"/>
       <use xlink:href="#DejaVuSans-2e" transform="translate(63.623047 0)"/>
       <use xlink:href="#DejaVuSans-30" transform="translate(95.410156 0)"/>
      </g>
     </g>
    </g>
    <g id="ytick_6">
     <g id="line2d_27">
      <path d="M 47.72 144.669993 
L 709.2 144.669993 
" clip-path="url(#p52d58f63af)" style="fill: none; stroke: #b0b0b0; stroke-width: 0.8; stroke-linecap: square"/>
     </g>
     <g id="line2d_28">
      <g>
       <use xlink:href="#ma7fa1b254d" x="47.72" y="144.669993" style="stroke: #000000; stroke-width: 0.8"/>
      </g>
     </g>
     <g id="text_15">
      <!-- 4.5 -->
      <g transform="translate(24.816875 148.469212) scale(0.1 -0.1)">
       <use xlink:href="#DejaVuSans-34"/>
       <use xlink:href="#DejaVuSans-2e" transform="translate(63.623047 0)"/>
       <use xlink:href="#DejaVuSans-35" transform="translate(95.410156 0)"/>
      </g>
     </g>
    </g>
    <g id="ytick_7">
     <g id="line2d_29">
      <path d="M 47.72 101.419106 
L 709.2 101.419106 
" clip-path="url(#p52d58f63af)" style="fill: none; stroke: #b0b0b0; stroke-width: 0.8; stroke-linecap: square"/>
     </g>
     <g id="line2d_30">
      <g>
       <use xlink:href="#ma7fa1b254d" x="47.72" y="101.419106" style="stroke: #000000; stroke-width: 0.8"/>
      </g>
     </g>
     <g id="text_16">
      <!-- 5.0 -->
      <g transform="translate(24.816875 105.218325) scale(0.1 -0.1)">
       <use xlink:href="#DejaVuSans-35"/>
       <use xlink:href="#DejaVuSans-2e" transform="translate(63.623047 0)"/>
       <use xlink:href="#DejaVuSans-30" transform="translate(95.410156 0)"/>
      </g>
     </g>
    </g>
    <g id="ytick_8">
     <g id="line2d_31">
      <path d="M 47.72 58.168219 
L 709.2 58.168219 
" clip-path="url(#p52d58f63af)" style="fill: none; stroke: #b0b0b0; stroke-width: 0.8; stroke-linecap: square"/>
     </g>
     <g id="line2d_32">
      <g>
       <use xlink:href="#ma7fa1b254d" x="47.72" y="58.168219" style="stroke: #000000; stroke-width: 0.8"/>
      </g>
     </g>
     <g id="text_17">
      <!-- 5.5 -->
      <g transform="translate(24.816875 61.967438) scale(0.1 -0.1)">
       <use xlink:href="#DejaVuSans-35"/>
       <use xlink:href="#DejaVuSans-2e" transform="translate(63.623047 0)"/>
       <use xlink:href="#DejaVuSans-35" transform="translate(95.410156 0)"/>
      </g>
     </g>
    </g>
    <g id="ytick_9">
     <g id="line2d_33">
      <path d="M 47.72 14.917332 
L 709.2 14.917332 
" clip-path="url(#p52d58f63af)" style="fill: none; stroke: #b0b0b0; stroke-width: 0.8; stroke-linecap: square"/>
     </g>
     <g id="line2d_34">
      <g>
       <use xlink:href="#ma7fa1b254d" x="47.72" y="14.917332" style="stroke: #000000; stroke-width: 0.8"/>
      </g>
     </g>
     <g id="text_18">
      <!-- 6.0 -->
      <g transform="translate(24.816875 18.716551) scale(0.1 -0.1)">
       <defs>
        <path id="DejaVuSans-36" d="M 2113 2584 
Q 1688 2584 1439 2293 
Q 1191 2003 1191 1497 
Q 1191 994 1439 701 
Q 1688 409 2113 409 
Q 2538 409 2786 701 
Q 3034 994 3034 1497 
Q 3034 2003 2786 2293 
Q 2538 2584 2113 2584 
z
M 3366 4563 
L 3366 3988 
Q 3128 4100 2886 4159 
Q 2644 4219 2406 4219 
Q 1781 4219 1451 3797 
Q 1122 3375 1075 2522 
Q 1259 2794 1537 2939 
Q 1816 3084 2150 3084 
Q 2853 3084 3261 2657 
Q 3669 2231 3669 1497 
Q 3669 778 3244 343 
Q 2819 -91 2113 -91 
Q 1303 -91 875 529 
Q 447 1150 447 2328 
Q 447 3434 972 4092 
Q 1497 4750 2381 4750 
Q 2619 4750 2861 4703 
Q 3103 4656 3366 4563 
z
" transform="scale(0.015625)"/>
       </defs>
       <use xlink:href="#DejaVuSans-36"/>
       <use xlink:href="#DejaVuSans-2e" transform="translate(63.623047 0)"/>
       <use xlink:href="#DejaVuSans-30" transform="translate(95.410156 0)"/>
      </g>
     </g>
    </g>
    <g id="text_19">
     <!-- Quantum Gates -->
     <g transform="translate(18.737188 241.308502) rotate(-90) scale(0.1 -0.1)">
      <defs>
       <path id="DejaVuSans-51" d="M 2522 4238 
Q 1834 4238 1429 3725 
Q 1025 3213 1025 2328 
Q 1025 1447 1429 934 
Q 1834 422 2522 422 
Q 3209 422 3611 934 
Q 4013 1447 4013 2328 
Q 4013 3213 3611 3725 
Q 3209 4238 2522 4238 
z
M 3406 84 
L 4238 -825 
L 3475 -825 
L 2784 -78 
Q 2681 -84 2626 -87 
Q 2572 -91 2522 -91 
Q 1538 -91 948 567 
Q 359 1225 359 2328 
Q 359 3434 948 4092 
Q 1538 4750 2522 4750 
Q 3503 4750 4090 4092 
Q 4678 3434 4678 2328 
Q 4678 1516 4351 937 
Q 4025 359 3406 84 
z
" transform="scale(0.015625)"/>
       <path id="DejaVuSans-75" d="M 544 1381 
L 544 3500 
L 1119 3500 
L 1119 1403 
Q 1119 906 1312 657 
Q 1506 409 1894 409 
Q 2359 409 2629 706 
Q 2900 1003 2900 1516 
L 2900 3500 
L 3475 3500 
L 3475 0 
L 2900 0 
L 2900 538 
Q 2691 219 2414 64 
Q 2138 -91 1772 -91 
Q 1169 -91 856 284 
Q 544 659 544 1381 
z
M 1991 3584 
L 1991 3584 
z
" transform="scale(0.015625)"/>
       <path id="DejaVuSans-61" d="M 2194 1759 
Q 1497 1759 1228 1600 
Q 959 1441 959 1056 
Q 959 750 1161 570 
Q 1363 391 1709 391 
Q 2188 391 2477 730 
Q 2766 1069 2766 1631 
L 2766 1759 
L 2194 1759 
z
M 3341 1997 
L 3341 0 
L 2766 0 
L 2766 531 
Q 2569 213 2275 61 
Q 1981 -91 1556 -91 
Q 1019 -91 701 211 
Q 384 513 384 1019 
Q 384 1609 779 1909 
Q 1175 2209 1959 2209 
L 2766 2209 
L 2766 2266 
Q 2766 2663 2505 2880 
Q 2244 3097 1772 3097 
Q 1472 3097 1187 3025 
Q 903 2953 641 2809 
L 641 3341 
Q 956 3463 1253 3523 
Q 1550 3584 1831 3584 
Q 2591 3584 2966 3190 
Q 3341 2797 3341 1997 
z
" transform="scale(0.015625)"/>
       <path id="DejaVuSans-6e" d="M 3513 2113 
L 3513 0 
L 2938 0 
L 2938 2094 
Q 2938 2591 2744 2837 
Q 2550 3084 2163 3084 
Q 1697 3084 1428 2787 
Q 1159 2491 1159 1978 
L 1159 0 
L 581 0 
L 581 3500 
L 1159 3500 
L 1159 2956 
Q 1366 3272 1645 3428 
Q 1925 3584 2291 3584 
Q 2894 3584 3203 3211 
Q 3513 2838 3513 2113 
z
" transform="scale(0.015625)"/>
       <path id="DejaVuSans-74" d="M 1172 4494 
L 1172 3500 
L 2356 3500 
L 2356 3053 
L 1172 3053 
L 1172 1153 
Q 1172 725 1289 603 
Q 1406 481 1766 481 
L 2356 481 
L 2356 0 
L 1766 0 
Q 1100 0 847 248 
Q 594 497 594 1153 
L 594 3053 
L 172 3053 
L 172 3500 
L 594 3500 
L 594 4494 
L 1172 4494 
z
" transform="scale(0.015625)"/>
       <path id="DejaVuSans-6d" d="M 3328 2828 
Q 3544 3216 3844 3400 
Q 4144 3584 4550 3584 
Q 5097 3584 5394 3201 
Q 5691 2819 5691 2113 
L 5691 0 
L 5113 0 
L 5113 2094 
Q 5113 2597 4934 2840 
Q 4756 3084 4391 3084 
Q 3944 3084 3684 2787 
Q 3425 2491 3425 1978 
L 3425 0 
L 2847 0 
L 2847 2094 
Q 2847 2600 2669 2842 
Q 2491 3084 2119 3084 
Q 1678 3084 1418 2786 
Q 1159 2488 1159 1978 
L 1159 0 
L 581 0 
L 581 3500 
L 1159 3500 
L 1159 2956 
Q 1356 3278 1631 3431 
Q 1906 3584 2284 3584 
Q 2666 3584 2933 3390 
Q 3200 3197 3328 2828 
z
" transform="scale(0.015625)"/>
       <path id="DejaVuSans-20" transform="scale(0.015625)"/>
       <path id="DejaVuSans-47" d="M 3809 666 
L 3809 1919 
L 2778 1919 
L 2778 2438 
L 4434 2438 
L 4434 434 
Q 4069 175 3628 42 
Q 3188 -91 2688 -91 
Q 1594 -91 976 548 
Q 359 1188 359 2328 
Q 359 3472 976 4111 
Q 1594 4750 2688 4750 
Q 3144 4750 3555 4637 
Q 3966 4525 4313 4306 
L 4313 3634 
Q 3963 3931 3569 4081 
Q 3175 4231 2741 4231 
Q 1884 4231 1454 3753 
Q 1025 3275 1025 2328 
Q 1025 1384 1454 906 
Q 1884 428 2741 428 
Q 3075 428 3337 486 
Q 3600 544 3809 666 
z
" transform="scale(0.015625)"/>
      </defs>
      <use xlink:href="#DejaVuSans-51"/>
      <use xlink:href="#DejaVuSans-75" transform="translate(78.710938 0)"/>
      <use xlink:href="#DejaVuSans-61" transform="translate(142.089844 0)"/>
      <use xlink:href="#DejaVuSans-6e" transform="translate(203.369141 0)"/>
      <use xlink:href="#DejaVuSans-74" transform="translate(266.748047 0)"/>
      <use xlink:href="#DejaVuSans-75" transform="translate(305.957031 0)"/>
      <use xlink:href="#DejaVuSans-6d" transform="translate(369.335938 0)"/>
      <use xlink:href="#DejaVuSans-20" transform="translate(466.748047 0)"/>
      <use xlink:href="#DejaVuSans-47" transform="translate(498.535156 0)"/>
      <use xlink:href="#DejaVuSans-61" transform="translate(576.025391 0)"/>
      <use xlink:href="#DejaVuSans-74" transform="translate(637.304688 0)"/>
      <use xlink:href="#DejaVuSans-65" transform="translate(676.513672 0)"/>
      <use xlink:href="#DejaVuSans-73" transform="translate(738.037109 0)"/>
     </g>
    </g>
   </g>
   <g id="line2d_35">
    <path d="M 77.787273 131.406388 
L 81.223532 135.587307 
L 84.659792 140.633244 
L 88.096052 152.310983 
L 91.532312 147.120877 
L 94.968571 179.126533 
L 98.404831 187.344202 
L 101.841091 215.02477 
L 105.277351 233.766821 
L 108.71361 242.993677 
L 112.14987 257.843148 
L 115.58613 262.744915 
L 119.02239 267.935021 
L 122.458649 269.665057 
L 125.894909 268.944209 
L 129.331169 270.962584 
L 132.767429 272.115941 
L 136.203688 270.818414 
L 139.639948 271.827601 
L 143.076208 273.845976 
L 146.512468 272.548449 
L 149.948727 273.125128 
L 153.384987 272.692619 
L 156.821247 271.971771 
L 160.257506 273.557637 
L 167.130026 274.134315 
L 170.566286 273.701806 
L 174.002545 273.990146 
L 177.438805 273.990146 
L 180.875065 274.566824 
L 184.311325 273.990146 
L 187.747584 273.845976 
L 191.183844 273.990146 
L 194.620104 274.278485 
L 198.056364 273.990146 
L 201.492623 274.134315 
L 204.928883 273.701806 
L 208.365143 273.125128 
L 211.801403 274.134315 
L 215.237662 273.125128 
L 218.673922 273.990146 
L 222.110182 273.125128 
L 225.546442 272.980958 
L 228.982701 273.990146 
L 232.418961 273.413467 
L 235.855221 274.422654 
L 239.291481 274.710994 
L 242.72774 273.701806 
L 246.164 274.278485 
L 253.036519 274.278485 
L 256.472779 273.845976 
L 259.909039 274.278485 
L 263.345299 274.422654 
L 266.781558 274.134315 
L 270.217818 274.422654 
L 273.654078 274.134315 
L 277.090338 273.990146 
L 280.526597 272.40428 
L 283.962857 272.980958 
L 287.399117 271.971771 
L 290.835377 272.115941 
L 294.271636 272.548449 
L 297.707896 271.971771 
L 301.144156 272.836789 
L 304.580416 273.269298 
L 308.016675 270.962584 
L 311.452935 271.539262 
L 314.889195 273.125128 
L 318.325455 271.971771 
L 321.761714 272.692619 
L 325.197974 274.278485 
L 328.634234 274.278485 
L 332.070494 273.990146 
L 335.506753 274.422654 
L 338.943013 274.566824 
L 342.379273 274.422654 
L 345.815532 273.701806 
L 349.251792 274.278485 
L 352.688052 273.125128 
L 356.124312 273.845976 
L 359.560571 274.278485 
L 362.996831 274.422654 
L 366.433091 273.990146 
L 369.869351 273.990146 
L 373.30561 274.422654 
L 380.17813 273.845976 
L 383.61439 271.827601 
L 387.050649 270.962584 
L 390.486909 271.106753 
L 393.923169 270.530075 
L 397.359429 271.539262 
L 400.795688 273.990146 
L 404.231948 273.125128 
L 407.668208 272.692619 
L 411.104468 274.278485 
L 414.540727 273.557637 
L 417.976987 273.557637 
L 421.413247 276.15269 
L 424.849506 288.695447 
L 428.285766 297.057285 
L 431.722026 298.498982 
L 435.158286 299.796508 
L 438.594545 299.363999 
L 442.030805 301.382374 
L 445.467065 302.96824 
L 448.903325 302.391562 
L 452.339584 298.498982 
L 455.775844 300.229017 
L 459.212104 294.462232 
L 462.648364 296.336437 
L 466.084623 293.308875 
L 469.520883 296.480607 
L 472.957143 298.787321 
L 476.393403 298.066473 
L 479.829662 301.238205 
L 483.265922 299.07566 
L 486.702182 298.643151 
L 490.138442 304.698275 
L 493.574701 316.664354 
L 497.010961 326.323719 
L 500.447221 329.92796 
L 503.883481 331.225486 
L 507.31974 330.937147 
L 510.756 331.946334 
L 521.064779 331.946334 
L 524.501039 338.866476 
L 527.937299 350.400046 
L 531.373558 356.887679 
L 534.809818 358.185206 
L 538.246078 359.338563 
L 541.682338 359.626902 
L 545.118597 360.49192 
L 548.554857 360.203581 
L 551.991117 360.924429 
L 555.427377 359.482733 
L 558.863636 359.915241 
L 562.299896 359.626902 
L 565.736156 360.636089 
L 569.172416 360.924429 
L 572.608675 360.780259 
L 576.044935 360.203581 
L 582.917455 360.780259 
L 586.353714 360.780259 
L 589.789974 360.203581 
L 593.226234 360.059411 
L 596.662494 360.780259 
L 600.098753 360.780259 
L 603.535013 359.915241 
L 606.971273 360.636089 
L 610.407532 356.022662 
L 613.843792 359.338563 
L 617.280052 359.050224 
L 620.716312 360.636089 
L 624.152571 360.203581 
L 627.588831 360.780259 
L 631.025091 360.49192 
L 634.461351 360.34775 
L 637.89761 360.924429 
L 641.33387 360.059411 
L 644.77013 360.780259 
L 651.642649 360.780259 
L 655.078909 360.49192 
L 658.515169 360.924429 
L 661.951429 360.924429 
L 665.387688 360.780259 
L 668.823948 360.49192 
L 672.260208 360.924429 
L 675.696468 360.924429 
L 679.132727 360.059411 
L 679.132727 360.059411 
" clip-path="url(#p52d58f63af)" style="fill: none; stroke: #1f77b4; stroke-width: 1.5; stroke-linecap: square"/>
   </g>
   <g id="patch_3">
    <path d="M 47.72 390.04 
L 47.72 13.566066 
" style="fill: none; stroke: #000000; stroke-width: 0.8; stroke-linejoin: miter; stroke-linecap: square"/>
   </g>
   <g id="patch_4">
    <path d="M 709.2 390.04 
L 709.2 13.566066 
" style="fill: none; stroke: #000000; stroke-width: 0.8; stroke-linejoin: miter; stroke-linecap: square"/>
   </g>
   <g id="patch_5">
    <path d="M 47.72 390.04 
L 709.2 390.04 
" style="fill: none; stroke: #000000; stroke-width: 0.8; stroke-linejoin: miter; stroke-linecap: square"/>
   </g>
   <g id="patch_6">
    <path d="M 47.72 13.566066 
L 709.2 13.566066 
" style="fill: none; stroke: #000000; stroke-width: 0.8; stroke-linejoin: miter; stroke-linecap: square"/>
   </g>
  </g>
 </g>
 <defs>
  <clipPath id="p52d58f63af">
   <rect x="47.72" y="13.566066" width="661.48" height="376.473934"/>
  </clipPath>
 </defs>
</svg>
