<?xml version="1.0" encoding="utf-8" standalone="no"?>
<!DOCTYPE svg PUBLIC "-//W3C//DTD SVG 1.1//EN"
  "http://www.w3.org/Graphics/SVG/1.1/DTD/svg11.dtd">
<svg xmlns:xlink="http://www.w3.org/1999/xlink" width="720pt" height="432pt" viewBox="0 0 720 432" xmlns="http://www.w3.org/2000/svg" version="1.1">
 <metadata>
  <rdf:RDF xmlns:dc="http://purl.org/dc/elements/1.1/" xmlns:cc="http://creativecommons.org/ns#" xmlns:rdf="http://www.w3.org/1999/02/22-rdf-syntax-ns#">
   <cc:Work>
    <dc:type rdf:resource="http://purl.org/dc/dcmitype/StillImage"/>
    <dc:date>2025-04-15T17:21:34.057979</dc:date>
    <dc:format>image/svg+xml</dc:format>
    <dc:creator>
     <cc:Agent>
      <dc:title>Matplotlib v3.10.0, https://matplotlib.org/</dc:title>
     </cc:Agent>
    </dc:creator>
   </cc:Work>
  </rdf:RDF>
 </metadata>
 <defs>
  <style type="text/css">*{stroke-linejoin: round; stroke-linecap: butt}</style>
 </defs>
 <g id="figure_1">
  <g id="patch_1">
   <path d="M 0 432 
L 720 432 
L 720 0 
L 0 0 
z
" style="fill: #ffffff"/>
  </g>
  <g id="axes_1">
   <g id="patch_2">
    <path d="M 47.63 390.04 
L 709.2 390.04 
L 709.2 10.8 
L 47.63 10.8 
z
" style="fill: #ffffff"/>
   </g>
   <g id="FillBetweenPolyCollection_1">
    <defs>
     <path id="mcb735ffd1b" d="M 77.704395 -385.557624 
L 77.704395 -74.333646 
L 80.790332 -66.544636 
L 83.773202 -86.133207 
L 86.913704 -81.831341 
L 90.190617 -80.612803 
L 93.309899 -78.959374 
L 96.608032 -79.564123 
L 99.942541 -101.146814 
L 103.280082 -117.302154 
L 106.54487 -106.764865 
L 109.694466 -122.642268 
L 113.022912 -121.278426 
L 116.318014 -130.460364 
L 119.743464 -131.405639 
L 123.238637 -136.824814 
L 126.721683 -137.625428 
L 130.171385 -139.605207 
L 133.666557 -152.322165 
L 137.049568 -156.46909 
L 140.299199 -163.496124 
L 143.527611 -162.135394 
L 146.668112 -163.183282 
L 149.832865 -166.374837 
L 152.927896 -170.11622 
L 156.013833 -164.016823 
L 159.127052 -170.407782 
L 162.191769 -171.851817 
L 165.271643 -173.038115 
L 168.354549 -171.992095 
L 171.413203 -171.881975 
L 174.477921 -171.317708 
L 177.533544 -169.357378 
L 180.589167 -172.35375 
L 183.64479 -170.968086 
L 186.700413 -171.756776 
L 189.759068 -168.992677 
L 192.796503 -170.805797 
L 195.852126 -171.494655 
L 198.922906 -171.793446 
L 201.984592 -171.056194 
L 205.05234 -171.796912 
L 208.114026 -171.561593 
L 211.151461 -168.925849 
L 214.201022 -173.031603 
L 217.26877 -171.350911 
L 220.324394 -168.875017 
L 223.373954 -169.195819 
L 226.417452 -169.777294 
L 229.467012 -171.163268 
L 232.528698 -172.39042 
L 235.599478 -171.269922 
L 238.646007 -172.604147 
L 241.72285 -170.816692 
L 244.790598 -170.149844 
L 247.873504 -169.810918 
L 250.938221 -171.465525 
L 254.030221 -172.691428 
L 257.213162 -171.601199 
L 260.362757 -170.676414 
L 263.433537 -171.668247 
L 266.59829 -171.314131 
L 269.732729 -171.992095 
L 272.852011 -170.241729 
L 275.947042 -170.396886 
L 279.045104 -169.818457 
L 282.134072 -171.129644 
L 285.26548 -171.03042 
L 288.354448 -172.700216 
L 291.413103 -171.918645 
L 294.553604 -172.124833 
L 297.624384 -180.679423 
L 300.683039 -180.407325 
L 303.765944 -173.224013 
L 306.864007 -175.115994 
L 309.946912 -172.95348 
L 313.026786 -170.160243 
L 316.070284 -167.842441 
L 319.128939 -166.984767 
L 322.184562 -164.348146 
L 325.29475 -163.586334 
L 328.411 -173.64417 
L 331.499968 -168.220897 
L 334.57378 -163.785701 
L 337.64456 -165.656364 
L 340.818406 -165.033415 
L 343.886155 -163.75657 
L 346.975123 -161.927344 
L 350.033778 -163.947149 
L 353.116683 -165.387841 
L 356.20262 -132.293012 
L 359.318871 -128.296879 
L 362.353274 -132.889658 
L 365.402835 -118.984031 
L 368.434207 -99.204499 
L 371.471642 -120.219873 
L 374.509077 -110.760243 
L 377.534386 -115.694513 
L 380.56879 -135.851806 
L 383.606225 -111.959112 
L 386.64366 -92.018978 
L 389.69322 -102.426025 
L 392.730655 -117.190717 
L 395.740808 -132.822355 
L 398.778243 -137.660259 
L 401.809615 -134.495934 
L 404.850081 -134.476244 
L 407.890547 -145.617291 
L 410.924951 -140.575222 
L 413.956323 -150.490707 
L 416.993758 -147.849181 
L 420.02513 -161.416881 
L 423.062565 -161.339047 
L 426.096969 -166.27229 
L 429.131372 -156.133099 
L 432.162745 -132.822665 
L 435.194117 -131.197608 
L 438.22852 -141.588645 
L 441.259892 -150.141505 
L 444.291265 -157.595569 
L 447.337794 -140.756353 
L 450.396448 -133.028853 
L 453.439946 -161.38775 
L 456.480412 -170.334442 
L 459.514816 -170.422971 
L 462.546188 -172.059033 
L 465.571497 -169.11452 
L 468.584681 -170.680598 
L 471.625148 -175.71205 
L 474.647426 -171.535509 
L 477.675766 -170.120714 
L 480.71017 -171.236718 
L 483.741542 -172.486488 
L 486.772914 -172.486488 
L 489.804287 -172.27276 
L 492.835659 -170.967775 
L 495.867031 -173.975043 
L 498.901435 -173.32632 
L 501.935838 -171.225713 
L 504.96721 -171.347866 
L 507.998582 -172.478949 
L 511.081488 -172.587271 
L 514.461468 -174.817371 
L 517.520122 -172.656006 
L 520.554526 -172.27276 
L 523.591961 -172.184231 
L 526.623333 -172.692676 
L 529.657737 -172.781205 
L 532.689109 -172.39042 
L 535.729575 -175.7855 
L 538.760947 -194.749224 
L 541.795351 -178.900942 
L 544.899476 -172.051493 
L 547.93388 -178.463326 
L 550.862185 -142.549525 
L 553.784428 -169.066844 
L 556.8158 -182.059 
L 559.847172 -175.817603 
L 562.881576 -170.492955 
L 565.912948 -172.611687 
L 568.950383 -172.906404 
L 571.981755 -172.478949 
L 575.013127 -172.692676 
L 578.0445 -172.393886 
L 581.078903 -172.27276 
L 584.110275 -172.27276 
L 587.141647 -170.912871 
L 590.182114 -172.486488 
L 593.216517 -172.27276 
L 596.247889 -172.486488 
L 599.291387 -171.40277 
L 602.383387 -172.184231 
L 605.41779 -172.27276 
L 608.53101 -171.554054 
L 611.568444 -171.347866 
L 614.857483 -171.749236 
L 618.013142 -171.785906 
L 621.059671 -172.184231 
L 624.230486 -172.39042 
L 627.280047 -126.759238 
L 630.320513 -133.756855 
L 633.354916 -167.701543 
L 636.38932 -172.486488 
L 639.420692 -171.837765 
L 642.455096 -172.27276 
L 645.486468 -172.27276 
L 648.654252 -171.918645 
L 651.794753 -172.27276 
L 654.832188 -172.478949 
L 657.872655 -171.347866 
L 660.907058 -172.184231 
L 663.944493 -171.837765 
L 666.987991 -172.27276 
L 670.025426 -172.27276 
L 673.062861 -172.184231 
L 676.097264 -171.347866 
L 679.128636 -172.397959 
L 679.128636 -293.905144 
L 679.128636 -293.905144 
L 676.097264 -293.245415 
L 673.062861 -293.691416 
L 670.025426 -293.175431 
L 666.987991 -293.175431 
L 663.944493 -293.182971 
L 660.907058 -293.691416 
L 657.872655 -293.245415 
L 654.832188 -293.824154 
L 651.794753 -293.175431 
L 648.654252 -295.239369 
L 645.486468 -293.175431 
L 642.455096 -293.175431 
L 639.420692 -293.182971 
L 636.38932 -293.389159 
L 633.354916 -293.472094 
L 630.320513 -294.930164 
L 627.280047 -297.225771 
L 624.230486 -294.340138 
L 621.059671 -293.691416 
L 618.013142 -294.944652 
L 614.857483 -293.698955 
L 611.568444 -293.245415 
L 608.53101 -293.894138 
L 605.41779 -293.175431 
L 602.383387 -293.691416 
L 599.291387 -293.19051 
L 596.247889 -293.389159 
L 593.216517 -293.175431 
L 590.182114 -293.389159 
L 587.141647 -293.252955 
L 584.110275 -293.175431 
L 581.078903 -293.175431 
L 578.0445 -295.619039 
L 575.013127 -294.037882 
L 571.981755 -293.824154 
L 568.950383 -294.25161 
L 565.912948 -294.118871 
L 562.881576 -292.390504 
L 559.847172 -297.324787 
L 556.8158 -305.616878 
L 553.784428 -289.969515 
L 550.862185 -264.337265 
L 547.93388 -299.808531 
L 544.899476 -293.396699 
L 541.795351 -312.194579 
L 538.760947 -359.182254 
L 535.729575 -303.768723 
L 532.689109 -294.340138 
L 529.657737 -293.521897 
L 526.623333 -294.037882 
L 523.591961 -293.691416 
L 520.554526 -293.175431 
L 517.520122 -292.792185 
L 514.461468 -281.654256 
L 511.081488 -286.021633 
L 507.998582 -293.824154 
L 504.96721 -293.245415 
L 501.935838 -294.222479 
L 498.901435 -295.11406 
L 495.867031 -295.320248 
L 492.835659 -293.19805 
L 489.804287 -293.175431 
L 486.772914 -293.389159 
L 483.741542 -293.389159 
L 480.71017 -295.066385 
L 477.675766 -293.617656 
L 474.647426 -293.485228 
L 471.625148 -303.414717 
L 468.584681 -292.630317 
L 465.571497 -292.059117 
L 462.546188 -292.961704 
L 459.514816 -293.315399 
L 456.480412 -293.831383 
L 453.439946 -294.228965 
L 450.396448 -297.367988 
L 447.337794 -296.479776 
L 444.291265 -296.73878 
L 441.259892 -297.353556 
L 438.22852 -298.639672 
L 435.194117 -297.916866 
L 432.162745 -296.719266 
L 429.131372 -294.781606 
L 426.096969 -297.893535 
L 423.062565 -295.560035 
L 420.02513 -295.909657 
L 416.993758 -297.936058 
L 413.956323 -297.859265 
L 410.924951 -299.225641 
L 407.890547 -297.603215 
L 404.850081 -300.195152 
L 401.809615 -299.748006 
L 398.778243 -299.57587 
L 395.740808 -295.009754 
L 392.730655 -297.390271 
L 389.69322 -298.048932 
L 386.64366 -293.067581 
L 383.606225 -300.912054 
L 380.56879 -313.780532 
L 377.534386 -298.031564 
L 374.509077 -299.118735 
L 371.471642 -296.925848 
L 368.434207 -298.27827 
L 365.402835 -296.879323 
L 362.353274 -306.483748 
L 359.318871 -296.543041 
L 356.20262 -305.798028 
L 353.116683 -302.197628 
L 350.033778 -299.791221 
L 346.975123 -301.38357 
L 343.886155 -295.707245 
L 340.818406 -302.552054 
L 337.64456 -304.493839 
L 334.57378 -297.387936 
L 331.499968 -303.211672 
L 328.411 -314.459163 
L 325.29475 -301.434402 
L 322.184562 -305.374601 
L 319.128939 -324.53821 
L 316.070284 -296.750839 
L 313.026786 -299.135048 
L 309.946912 -304.03601 
L 306.864007 -302.300952 
L 303.765944 -306.757666 
L 300.683039 -319.664762 
L 297.624384 -321.102485 
L 294.553604 -295.888092 
L 291.413103 -295.239369 
L 288.354448 -293.602887 
L 285.26548 -296.555049 
L 282.134072 -295.173459 
L 279.045104 -293.919912 
L 275.947042 -293.341484 
L 272.852011 -298.198651 
L 269.732729 -295.593375 
L 266.59829 -295.843882 
L 263.433537 -293.779945 
L 260.362757 -296.4816 
L 257.213162 -298.549003 
L 254.030221 -301.733329 
L 250.938221 -294.410122 
L 247.873504 -294.354907 
L 244.790598 -295.298347 
L 241.72285 -296.341322 
L 238.646007 -294.553866 
L 235.599478 -295.033181 
L 232.528698 -294.340138 
L 229.467012 -294.712379 
L 226.417452 -294.815987 
L 223.373954 -293.68764 
L 220.324394 -293.580986 
L 217.26877 -294.952191 
L 214.201022 -294.981322 
L 211.151461 -295.239976 
L 208.114026 -293.459143 
L 205.05234 -295.788557 
L 201.984592 -294.819453 
L 198.922906 -294.509657 
L 195.852126 -296.090814 
L 192.796503 -293.360029 
L 189.759068 -294.745693 
L 186.700413 -293.26396 
L 183.64479 -294.907562 
L 180.589167 -293.094442 
L 177.533544 -293.953536 
L 174.477921 -294.985395 
L 171.413203 -293.993672 
L 168.354549 -295.593375 
L 165.271643 -297.966998 
L 162.191769 -295.733652 
L 159.127052 -296.322777 
L 156.013833 -297.156814 
L 152.927896 -295.759427 
L 149.832865 -301.638088 
L 146.668112 -302.692365 
L 143.527611 -304.595164 
L 140.299199 -303.66189 
L 137.049568 -303.42218 
L 133.666557 -299.874906 
L 130.171385 -305.325121 
L 126.721683 -311.579455 
L 123.238637 -313.662435 
L 119.743464 -326.77581 
L 116.318014 -329.003451 
L 113.022912 -335.620656 
L 109.694466 -360.759054 
L 106.54487 -355.691138 
L 103.280082 -376.3581 
L 99.942541 -369.003388 
L 96.608032 -358.099462 
L 93.309899 -353.574745 
L 90.190617 -356.195871 
L 86.913704 -372.075552 
L 83.773202 -383.58954 
L 80.790332 -372.401315 
L 77.704395 -385.557624 
z
" style="stroke: #0000ff; stroke-opacity: 0.2"/>
    </defs>
    <g clip-path="url(#pbacde4c895)">
     <use xlink:href="#mcb735ffd1b" x="0" y="432" style="fill: #0000ff; fill-opacity: 0.2; stroke: #0000ff; stroke-opacity: 0.2"/>
    </g>
   </g>
   <g id="FillBetweenPolyCollection_2">
    <defs>
     <path id="mc49f77654e" d="M 77.701364 -380.508542 
L 77.701364 -75.108173 
L 80.744861 -82.709243 
L 83.867175 -87.197644 
L 86.892484 -89.57148 
L 90.023892 -76.701923 
L 93.209864 -71.786993 
L 96.268518 -95.866107 
L 99.354455 -81.601669 
L 102.52527 -82.320279 
L 105.589988 -86.983951 
L 108.681987 -80.893685 
L 111.843709 -78.091271 
L 115.032712 -85.524904 
L 118.170182 -86.903702 
L 121.168209 -86.927864 
L 124.293554 -91.149854 
L 127.418899 -83.201172 
L 130.571526 -69.298978 
L 133.754467 -79.888762 
L 136.916188 -80.963087 
L 140.023344 -83.183187 
L 143.182034 -70.32625 
L 146.443791 -75.905351 
L 149.566104 -70.849659 
L 152.655072 -83.782816 
L 155.877421 -75.070277 
L 158.981546 -80.005153 
L 162.109922 -73.830332 
L 165.289832 -74.314647 
L 168.369706 -84.250515 
L 171.419266 -82.096293 
L 174.847748 -87.347616 
L 177.994312 -89.14571 
L 181.186347 -83.866642 
L 184.217719 -89.128114 
L 187.276374 -94.186822 
L 190.510848 -78.819407 
L 193.69682 -78.980298 
L 196.807008 -82.786889 
L 199.974792 -100.407171 
L 203.160764 -77.008516 
L 206.204262 -74.379838 
L 209.405391 -77.96814 
L 212.62774 -94.002552 
L 215.813712 -78.819702 
L 218.9239 -75.535233 
L 222.052276 -81.808178 
L 225.138213 -78.090252 
L 228.163522 -73.796176 
L 231.410122 -79.307766 
L 234.383898 -65.13359 
L 237.515305 -89.173298 
L 240.868003 -79.506986 
L 244.057006 -88.248779 
L 247.170226 -85.575317 
L 250.444108 -92.140701 
L 253.423946 -79.461714 
L 256.543228 -96.674239 
L 259.735263 -85.831657 
L 262.881828 -68.724571 
L 266.182992 -77.591011 
L 269.278023 -87.314936 
L 272.470058 -78.385173 
L 275.407457 -70.646587 
L 278.463081 -94.827902 
L 281.703618 -86.565611 
L 284.898684 -65.646433 
L 288.011903 -92.282994 
L 291.258503 -70.277424 
L 294.471757 -91.530678 
L 297.61529 -73.242256 
L 300.719415 -89.424895 
L 303.856885 -96.012215 
L 307.121673 -102.853024 
L 310.353116 -87.604758 
L 313.408739 -88.669349 
L 316.673527 -77.609588 
L 319.880719 -77.97477 
L 323.133381 -83.030663 
L 326.346636 -100.866929 
L 329.40529 -61.902472 
L 332.609451 -81.030452 
L 335.759046 -77.087131 
L 338.863171 -94.375003 
L 341.994579 -81.063856 
L 345.101735 -71.364591 
L 348.242237 -72.155197 
L 351.443366 -87.954766 
L 354.489895 -79.267554 
L 357.751652 -93.553321 
L 360.73149 -80.248708 
L 363.89018 -86.790826 
L 367.145874 -77.129759 
L 370.131776 -79.167693 
L 373.202556 -85.109451 
L 376.409747 -62.775153 
L 379.441119 -71.886052 
L 382.55737 -68.815508 
L 385.764562 -93.224704 
L 388.935377 -75.958897 
L 392.066785 -84.205978 
L 395.295196 -69.744655 
L 398.393258 -85.201054 
L 401.424631 -68.923171 
L 404.446909 -93.566115 
L 407.487375 -85.323973 
L 410.733975 -103.774928 
L 414.004825 -71.036681 
L 417.066511 -78.732657 
L 420.24642 -81.956411 
L 423.468769 -102.973839 
L 426.685055 -91.342128 
L 429.849808 -78.426531 
L 432.953933 -87.051202 
L 435.976211 -82.943284 
L 439.010614 -83.927875 
L 442.196586 -76.050892 
L 445.227959 -83.971087 
L 448.244174 -90.105517 
L 451.411958 -81.490272 
L 454.44333 -89.885432 
L 457.595957 -84.676933 
L 460.818306 -72.025867 
L 463.879992 -76.738137 
L 467.093246 -75.049114 
L 470.285281 -89.860693 
L 473.368187 -78.114887 
L 476.366214 -82.654869 
L 479.500653 -75.395422 
L 482.562338 -75.553581 
L 485.690715 -88.450217 
L 488.897906 -85.911811 
L 491.798929 -77.906063 
L 494.839396 -75.621031 
L 497.979897 -91.550758 
L 501.087054 -83.956396 
L 504.327591 -84.296212 
L 507.407465 -90.172113 
L 510.472182 -97.701725 
L 513.746064 -94.923229 
L 517.035103 -91.248723 
L 520.260483 -79.543508 
L 523.494957 -91.474806 
L 526.620302 -84.049536 
L 529.633486 -82.970626 
L 532.69214 -80.076884 
L 535.862956 -79.03227 
L 538.9883 -82.232571 
L 542.083331 -104.543743 
L 545.232927 -63.90253 
L 548.400711 -83.043268 
L 551.519993 -88.083793 
L 554.690808 -90.327659 
L 557.837373 -92.401002 
L 561.023345 -82.818617 
L 564.175972 -89.34392 
L 567.298285 -76.290872 
L 570.305406 -84.694707 
L 573.357998 -59.198182 
L 576.346931 -85.577412 
L 579.417711 -70.735677 
L 582.606715 -81.386069 
L 585.707808 -84.624024 
L 588.951377 -78.464707 
L 592.028219 -67.118971 
L 595.141439 -91.847823 
L 598.294066 -83.707509 
L 601.452756 -91.237818 
L 604.68723 -97.136553 
L 607.95808 -110.217189 
L 611.131927 -100.200757 
L 614.333056 -107.722457 
L 617.519028 -76.815284 
L 620.601934 -78.318797 
L 623.845502 -68.577008 
L 626.940533 -72.834857 
L 629.965842 -87.195125 
L 633.088156 -85.769911 
L 636.122559 -97.094919 
L 639.223653 -87.514962 
L 642.400531 -68.289294 
L 645.483436 -92.857767 
L 648.708816 -100.439244 
L 651.840224 -81.62616 
L 654.956475 -68.071638 
L 658.221262 -76.165516 
L 661.328419 -85.080562 
L 664.426481 -89.076654 
L 667.594265 -102.583443 
L 670.780237 -72.529496 
L 673.893457 -74.991153 
L 677.127931 -94.874981 
L 677.127931 -373.992854 
L 677.127931 -373.992854 
L 673.893457 -391.739405 
L 670.780237 -368.126278 
L 667.594265 -392.359178 
L 664.426481 -379.363726 
L 661.328419 -373.100887 
L 658.221262 -379.4512 
L 654.956475 -373.866501 
L 651.840224 -374.418011 
L 648.708816 -391.083732 
L 645.483436 -387.978822 
L 642.400531 -373.22139 
L 639.223653 -394.603994 
L 636.122559 -381.604393 
L 633.088156 -384.380291 
L 629.965842 -381.67271 
L 626.940533 -369.958194 
L 623.845502 -379.345509 
L 620.601934 -403.372703 
L 617.519028 -373.671966 
L 614.333056 -391.067263 
L 611.131927 -382.77311 
L 607.95808 -400.541285 
L 604.68723 -388.402046 
L 601.452756 -383.614394 
L 598.294066 -379.603406 
L 595.141439 -396.25551 
L 592.028219 -362.422959 
L 588.951377 -379.716742 
L 585.707808 -391.510555 
L 582.606715 -387.909222 
L 579.417711 -371.202463 
L 576.346931 -385.855157 
L 573.357998 -387.014513 
L 570.305406 -370.922008 
L 567.298285 -384.455309 
L 564.175972 -393.202491 
L 561.023345 -378.35502 
L 557.837373 -386.725765 
L 554.690808 -384.95201 
L 551.519993 -387.62333 
L 548.400711 -385.397112 
L 545.232927 -380.600343 
L 542.083331 -400.230354 
L 538.9883 -381.933254 
L 535.862956 -382.996278 
L 532.69214 -368.273088 
L 529.633486 -377.348099 
L 526.620302 -384.818299 
L 523.494957 -391.499061 
L 520.260483 -385.904683 
L 517.035103 -387.878044 
L 513.746064 -397.454659 
L 510.472182 -401.515451 
L 507.407465 -391.946843 
L 504.327591 -378.587246 
L 501.087054 -384.91144 
L 497.979897 -395.270209 
L 494.839396 -376.148585 
L 491.798929 -374.718464 
L 488.897906 -371.414726 
L 485.690715 -387.684362 
L 482.562338 -374.506213 
L 479.500653 -378.938927 
L 476.366214 -370.824569 
L 473.368187 -389.470582 
L 470.285281 -393.54063 
L 467.093246 -386.124523 
L 463.879992 -383.580589 
L 460.818306 -380.171204 
L 457.595957 -394.022379 
L 454.44333 -390.523702 
L 451.411958 -387.805019 
L 448.244174 -383.891784 
L 445.227959 -391.308581 
L 442.196586 -387.260022 
L 439.010614 -381.092861 
L 435.976211 -383.787274 
L 432.953933 -387.801011 
L 429.849808 -373.343084 
L 426.685055 -376.243341 
L 423.468769 -385.984405 
L 420.24642 -384.346692 
L 417.066511 -376.456603 
L 414.004825 -370.474004 
L 410.733975 -395.869703 
L 407.487375 -380.124219 
L 404.446909 -383.423375 
L 401.424631 -382.846445 
L 398.393258 -378.537316 
L 395.295196 -374.330762 
L 392.066785 -391.501146 
L 388.935377 -380.085274 
L 385.764562 -390.176618 
L 382.55737 -376.969731 
L 379.441119 -388.005219 
L 376.409747 -367.621689 
L 373.202556 -385.468207 
L 370.131776 -379.441211 
L 367.145874 -375.067312 
L 363.89018 -382.077009 
L 360.73149 -368.956175 
L 357.751652 -391.557823 
L 354.489895 -358.396031 
L 351.443366 -383.050347 
L 348.242237 -381.751696 
L 345.101735 -377.840292 
L 341.994579 -379.682325 
L 338.863171 -398.857796 
L 335.759046 -377.674674 
L 332.609451 -395.104127 
L 329.40529 -389.439689 
L 326.346636 -385.099126 
L 323.133381 -380.280251 
L 319.880719 -381.9165 
L 316.673527 -398.097536 
L 313.408739 -389.602508 
L 310.353116 -393.231832 
L 307.121673 -392.944508 
L 303.856885 -399.357861 
L 300.719415 -383.717496 
L 297.61529 -382.37446 
L 294.471757 -380.756802 
L 291.258503 -382.347103 
L 288.011903 -400.949804 
L 284.898684 -369.452418 
L 281.703618 -382.72968 
L 278.463081 -403.961818 
L 275.407457 -393.091782 
L 272.470058 -368.682432 
L 269.278023 -381.5529 
L 266.182992 -386.574814 
L 262.881828 -383.045045 
L 259.735263 -386.028367 
L 256.543228 -381.170162 
L 253.423946 -371.880447 
L 250.444108 -383.993878 
L 247.170226 -392.696539 
L 244.057006 -375.489591 
L 240.868003 -387.651027 
L 237.515305 -391.235836 
L 234.383898 -366.118162 
L 231.410122 -386.140425 
L 228.163522 -373.27143 
L 225.138213 -377.099008 
L 222.052276 -369.961438 
L 218.9239 -385.638404 
L 215.813712 -384.918667 
L 212.62774 -377.857472 
L 209.405391 -382.778041 
L 206.204262 -373.115223 
L 203.160764 -376.470922 
L 199.974792 -387.268707 
L 196.807008 -378.386748 
L 193.69682 -392.45227 
L 190.510848 -386.201329 
L 187.276374 -396.481244 
L 184.217719 -382.73191 
L 181.186347 -381.58155 
L 177.994312 -389.126147 
L 174.847748 -390.92424 
L 171.419266 -386.771542 
L 168.369706 -389.319331 
L 165.289832 -387.286445 
L 162.109922 -373.237273 
L 158.981546 -383.305762 
L 155.877421 -390.377915 
L 152.655072 -385.08502 
L 149.566104 -383.057234 
L 146.443791 -370.307344 
L 143.182034 -373.749167 
L 140.023344 -368.586429 
L 136.916188 -393.46167 
L 133.754467 -385.55943 
L 130.571526 -381.615727 
L 127.418899 -390.368674 
L 124.293554 -384.984725 
L 121.168209 -378.092872 
L 118.170182 -394.787798 
L 115.032712 -394.029319 
L 111.843709 -396.760942 
L 108.681987 -395.66835 
L 105.589988 -390.86045 
L 102.52527 -376.288625 
L 99.354455 -394.105454 
L 96.268518 -375.566462 
L 93.209864 -389.8141 
L 90.023892 -376.777515 
L 86.892484 -372.457068 
L 83.867175 -391.074212 
L 80.744861 -373.334928 
L 77.701364 -380.508542 
z
" style="stroke: #ffa500; stroke-opacity: 0.2"/>
    </defs>
    <g clip-path="url(#pbacde4c895)">
     <use xlink:href="#mc49f77654e" x="0" y="432" style="fill: #ffa500; fill-opacity: 0.2; stroke: #ffa500; stroke-opacity: 0.2"/>
    </g>
   </g>
   <g id="matplotlib.axis_1">
    <g id="xtick_1">
     <g id="line2d_1">
      <path d="M 76.161427 390.04 
L 76.161427 10.8 
" clip-path="url(#pbacde4c895)" style="fill: none; stroke: #b0b0b0; stroke-width: 0.8; stroke-linecap: square"/>
     </g>
     <g id="line2d_2">
      <defs>
       <path id="m44acd31170" d="M 0 0 
L 0 3.5 
" style="stroke: #000000; stroke-width: 0.8"/>
      </defs>
      <g>
       <use xlink:href="#m44acd31170" x="76.161427" y="390.04" style="stroke: #000000; stroke-width: 0.8"/>
      </g>
     </g>
     <g id="text_1">
      <!-- 0 -->
      <g transform="translate(72.980177 404.638438) scale(0.1 -0.1)">
       <defs>
        <path id="DejaVuSans-30" d="M 2034 4250 
Q 1547 4250 1301 3770 
Q 1056 3291 1056 2328 
Q 1056 1369 1301 889 
Q 1547 409 2034 409 
Q 2525 409 2770 889 
Q 3016 1369 3016 2328 
Q 3016 3291 2770 3770 
Q 2525 4250 2034 4250 
z
M 2034 4750 
Q 2819 4750 3233 4129 
Q 3647 3509 3647 2328 
Q 3647 1150 3233 529 
Q 2819 -91 2034 -91 
Q 1250 -91 836 529 
Q 422 1150 422 2328 
Q 422 3509 836 4129 
Q 1250 4750 2034 4750 
z
" transform="scale(0.015625)"/>
       </defs>
       <use xlink:href="#DejaVuSans-30"/>
      </g>
     </g>
    </g>
    <g id="xtick_2">
     <g id="line2d_3">
      <path d="M 151.945731 390.04 
L 151.945731 10.8 
" clip-path="url(#pbacde4c895)" style="fill: none; stroke: #b0b0b0; stroke-width: 0.8; stroke-linecap: square"/>
     </g>
     <g id="line2d_4">
      <g>
       <use xlink:href="#m44acd31170" x="151.945731" y="390.04" style="stroke: #000000; stroke-width: 0.8"/>
      </g>
     </g>
     <g id="text_2">
      <!-- 25000 -->
      <g transform="translate(136.039481 404.638438) scale(0.1 -0.1)">
       <defs>
        <path id="DejaVuSans-32" d="M 1228 531 
L 3431 531 
L 3431 0 
L 469 0 
L 469 531 
Q 828 903 1448 1529 
Q 2069 2156 2228 2338 
Q 2531 2678 2651 2914 
Q 2772 3150 2772 3378 
Q 2772 3750 2511 3984 
Q 2250 4219 1831 4219 
Q 1534 4219 1204 4116 
Q 875 4013 500 3803 
L 500 4441 
Q 881 4594 1212 4672 
Q 1544 4750 1819 4750 
Q 2544 4750 2975 4387 
Q 3406 4025 3406 3419 
Q 3406 3131 3298 2873 
Q 3191 2616 2906 2266 
Q 2828 2175 2409 1742 
Q 1991 1309 1228 531 
z
" transform="scale(0.015625)"/>
        <path id="DejaVuSans-35" d="M 691 4666 
L 3169 4666 
L 3169 4134 
L 1269 4134 
L 1269 2991 
Q 1406 3038 1543 3061 
Q 1681 3084 1819 3084 
Q 2600 3084 3056 2656 
Q 3513 2228 3513 1497 
Q 3513 744 3044 326 
Q 2575 -91 1722 -91 
Q 1428 -91 1123 -41 
Q 819 9 494 109 
L 494 744 
Q 775 591 1075 516 
Q 1375 441 1709 441 
Q 2250 441 2565 725 
Q 2881 1009 2881 1497 
Q 2881 1984 2565 2268 
Q 2250 2553 1709 2553 
Q 1456 2553 1204 2497 
Q 953 2441 691 2322 
L 691 4666 
z
" transform="scale(0.015625)"/>
       </defs>
       <use xlink:href="#DejaVuSans-32"/>
       <use xlink:href="#DejaVuSans-35" transform="translate(63.623047 0)"/>
       <use xlink:href="#DejaVuSans-30" transform="translate(127.246094 0)"/>
       <use xlink:href="#DejaVuSans-30" transform="translate(190.869141 0)"/>
       <use xlink:href="#DejaVuSans-30" transform="translate(254.492188 0)"/>
      </g>
     </g>
    </g>
    <g id="xtick_3">
     <g id="line2d_5">
      <path d="M 227.730036 390.04 
L 227.730036 10.8 
" clip-path="url(#pbacde4c895)" style="fill: none; stroke: #b0b0b0; stroke-width: 0.8; stroke-linecap: square"/>
     </g>
     <g id="line2d_6">
      <g>
       <use xlink:href="#m44acd31170" x="227.730036" y="390.04" style="stroke: #000000; stroke-width: 0.8"/>
      </g>
     </g>
     <g id="text_3">
      <!-- 50000 -->
      <g transform="translate(211.823786 404.638438) scale(0.1 -0.1)">
       <use xlink:href="#DejaVuSans-35"/>
       <use xlink:href="#DejaVuSans-30" transform="translate(63.623047 0)"/>
       <use xlink:href="#DejaVuSans-30" transform="translate(127.246094 0)"/>
       <use xlink:href="#DejaVuSans-30" transform="translate(190.869141 0)"/>
       <use xlink:href="#DejaVuSans-30" transform="translate(254.492188 0)"/>
      </g>
     </g>
    </g>
    <g id="xtick_4">
     <g id="line2d_7">
      <path d="M 303.51434 390.04 
L 303.51434 10.8 
" clip-path="url(#pbacde4c895)" style="fill: none; stroke: #b0b0b0; stroke-width: 0.8; stroke-linecap: square"/>
     </g>
     <g id="line2d_8">
      <g>
       <use xlink:href="#m44acd31170" x="303.51434" y="390.04" style="stroke: #000000; stroke-width: 0.8"/>
      </g>
     </g>
     <g id="text_4">
      <!-- 75000 -->
      <g transform="translate(287.60809 404.638438) scale(0.1 -0.1)">
       <defs>
        <path id="DejaVuSans-37" d="M 525 4666 
L 3525 4666 
L 3525 4397 
L 1831 0 
L 1172 0 
L 2766 4134 
L 525 4134 
L 525 4666 
z
" transform="scale(0.015625)"/>
       </defs>
       <use xlink:href="#DejaVuSans-37"/>
       <use xlink:href="#DejaVuSans-35" transform="translate(63.623047 0)"/>
       <use xlink:href="#DejaVuSans-30" transform="translate(127.246094 0)"/>
       <use xlink:href="#DejaVuSans-30" transform="translate(190.869141 0)"/>
       <use xlink:href="#DejaVuSans-30" transform="translate(254.492188 0)"/>
      </g>
     </g>
    </g>
    <g id="xtick_5">
     <g id="line2d_9">
      <path d="M 379.298645 390.04 
L 379.298645 10.8 
" clip-path="url(#pbacde4c895)" style="fill: none; stroke: #b0b0b0; stroke-width: 0.8; stroke-linecap: square"/>
     </g>
     <g id="line2d_10">
      <g>
       <use xlink:href="#m44acd31170" x="379.298645" y="390.04" style="stroke: #000000; stroke-width: 0.8"/>
      </g>
     </g>
     <g id="text_5">
      <!-- 100000 -->
      <g transform="translate(360.211145 404.638438) scale(0.1 -0.1)">
       <defs>
        <path id="DejaVuSans-31" d="M 794 531 
L 1825 531 
L 1825 4091 
L 703 3866 
L 703 4441 
L 1819 4666 
L 2450 4666 
L 2450 531 
L 3481 531 
L 3481 0 
L 794 0 
L 794 531 
z
" transform="scale(0.015625)"/>
       </defs>
       <use xlink:href="#DejaVuSans-31"/>
       <use xlink:href="#DejaVuSans-30" transform="translate(63.623047 0)"/>
       <use xlink:href="#DejaVuSans-30" transform="translate(127.246094 0)"/>
       <use xlink:href="#DejaVuSans-30" transform="translate(190.869141 0)"/>
       <use xlink:href="#DejaVuSans-30" transform="translate(254.492188 0)"/>
       <use xlink:href="#DejaVuSans-30" transform="translate(318.115234 0)"/>
      </g>
     </g>
    </g>
    <g id="xtick_6">
     <g id="line2d_11">
      <path d="M 455.08295 390.04 
L 455.08295 10.8 
" clip-path="url(#pbacde4c895)" style="fill: none; stroke: #b0b0b0; stroke-width: 0.8; stroke-linecap: square"/>
     </g>
     <g id="line2d_12">
      <g>
       <use xlink:href="#m44acd31170" x="455.08295" y="390.04" style="stroke: #000000; stroke-width: 0.8"/>
      </g>
     </g>
     <g id="text_6">
      <!-- 125000 -->
      <g transform="translate(435.99545 404.638438) scale(0.1 -0.1)">
       <use xlink:href="#DejaVuSans-31"/>
       <use xlink:href="#DejaVuSans-32" transform="translate(63.623047 0)"/>
       <use xlink:href="#DejaVuSans-35" transform="translate(127.246094 0)"/>
       <use xlink:href="#DejaVuSans-30" transform="translate(190.869141 0)"/>
       <use xlink:href="#DejaVuSans-30" transform="translate(254.492188 0)"/>
       <use xlink:href="#DejaVuSans-30" transform="translate(318.115234 0)"/>
      </g>
     </g>
    </g>
    <g id="xtick_7">
     <g id="line2d_13">
      <path d="M 530.867254 390.04 
L 530.867254 10.8 
" clip-path="url(#pbacde4c895)" style="fill: none; stroke: #b0b0b0; stroke-width: 0.8; stroke-linecap: square"/>
     </g>
     <g id="line2d_14">
      <g>
       <use xlink:href="#m44acd31170" x="530.867254" y="390.04" style="stroke: #000000; stroke-width: 0.8"/>
      </g>
     </g>
     <g id="text_7">
      <!-- 150000 -->
      <g transform="translate(511.779754 404.638438) scale(0.1 -0.1)">
       <use xlink:href="#DejaVuSans-31"/>
       <use xlink:href="#DejaVuSans-35" transform="translate(63.623047 0)"/>
       <use xlink:href="#DejaVuSans-30" transform="translate(127.246094 0)"/>
       <use xlink:href="#DejaVuSans-30" transform="translate(190.869141 0)"/>
       <use xlink:href="#DejaVuSans-30" transform="translate(254.492188 0)"/>
       <use xlink:href="#DejaVuSans-30" transform="translate(318.115234 0)"/>
      </g>
     </g>
    </g>
    <g id="xtick_8">
     <g id="line2d_15">
      <path d="M 606.651559 390.04 
L 606.651559 10.8 
" clip-path="url(#pbacde4c895)" style="fill: none; stroke: #b0b0b0; stroke-width: 0.8; stroke-linecap: square"/>
     </g>
     <g id="line2d_16">
      <g>
       <use xlink:href="#m44acd31170" x="606.651559" y="390.04" style="stroke: #000000; stroke-width: 0.8"/>
      </g>
     </g>
     <g id="text_8">
      <!-- 175000 -->
      <g transform="translate(587.564059 404.638438) scale(0.1 -0.1)">
       <use xlink:href="#DejaVuSans-31"/>
       <use xlink:href="#DejaVuSans-37" transform="translate(63.623047 0)"/>
       <use xlink:href="#DejaVuSans-35" transform="translate(127.246094 0)"/>
       <use xlink:href="#DejaVuSans-30" transform="translate(190.869141 0)"/>
       <use xlink:href="#DejaVuSans-30" transform="translate(254.492188 0)"/>
       <use xlink:href="#DejaVuSans-30" transform="translate(318.115234 0)"/>
      </g>
     </g>
    </g>
    <g id="xtick_9">
     <g id="line2d_17">
      <path d="M 682.435863 390.04 
L 682.435863 10.8 
" clip-path="url(#pbacde4c895)" style="fill: none; stroke: #b0b0b0; stroke-width: 0.8; stroke-linecap: square"/>
     </g>
     <g id="line2d_18">
      <g>
       <use xlink:href="#m44acd31170" x="682.435863" y="390.04" style="stroke: #000000; stroke-width: 0.8"/>
      </g>
     </g>
     <g id="text_9">
      <!-- 200000 -->
      <g transform="translate(663.348363 404.638438) scale(0.1 -0.1)">
       <use xlink:href="#DejaVuSans-32"/>
       <use xlink:href="#DejaVuSans-30" transform="translate(63.623047 0)"/>
       <use xlink:href="#DejaVuSans-30" transform="translate(127.246094 0)"/>
       <use xlink:href="#DejaVuSans-30" transform="translate(190.869141 0)"/>
       <use xlink:href="#DejaVuSans-30" transform="translate(254.492188 0)"/>
       <use xlink:href="#DejaVuSans-30" transform="translate(318.115234 0)"/>
      </g>
     </g>
    </g>
    <g id="text_10">
     <!-- Steps -->
     <g transform="translate(364.425156 418.316562) scale(0.1 -0.1)">
      <defs>
       <path id="DejaVuSans-53" d="M 3425 4513 
L 3425 3897 
Q 3066 4069 2747 4153 
Q 2428 4238 2131 4238 
Q 1616 4238 1336 4038 
Q 1056 3838 1056 3469 
Q 1056 3159 1242 3001 
Q 1428 2844 1947 2747 
L 2328 2669 
Q 3034 2534 3370 2195 
Q 3706 1856 3706 1288 
Q 3706 609 3251 259 
Q 2797 -91 1919 -91 
Q 1588 -91 1214 -16 
Q 841 59 441 206 
L 441 856 
Q 825 641 1194 531 
Q 1563 422 1919 422 
Q 2459 422 2753 634 
Q 3047 847 3047 1241 
Q 3047 1584 2836 1778 
Q 2625 1972 2144 2069 
L 1759 2144 
Q 1053 2284 737 2584 
Q 422 2884 422 3419 
Q 422 4038 858 4394 
Q 1294 4750 2059 4750 
Q 2388 4750 2728 4690 
Q 3069 4631 3425 4513 
z
" transform="scale(0.015625)"/>
       <path id="DejaVuSans-74" d="M 1172 4494 
L 1172 3500 
L 2356 3500 
L 2356 3053 
L 1172 3053 
L 1172 1153 
Q 1172 725 1289 603 
Q 1406 481 1766 481 
L 2356 481 
L 2356 0 
L 1766 0 
Q 1100 0 847 248 
Q 594 497 594 1153 
L 594 3053 
L 172 3053 
L 172 3500 
L 594 3500 
L 594 4494 
L 1172 4494 
z
" transform="scale(0.015625)"/>
       <path id="DejaVuSans-65" d="M 3597 1894 
L 3597 1613 
L 953 1613 
Q 991 1019 1311 708 
Q 1631 397 2203 397 
Q 2534 397 2845 478 
Q 3156 559 3463 722 
L 3463 178 
Q 3153 47 2828 -22 
Q 2503 -91 2169 -91 
Q 1331 -91 842 396 
Q 353 884 353 1716 
Q 353 2575 817 3079 
Q 1281 3584 2069 3584 
Q 2775 3584 3186 3129 
Q 3597 2675 3597 1894 
z
M 3022 2063 
Q 3016 2534 2758 2815 
Q 2500 3097 2075 3097 
Q 1594 3097 1305 2825 
Q 1016 2553 972 2059 
L 3022 2063 
z
" transform="scale(0.015625)"/>
       <path id="DejaVuSans-70" d="M 1159 525 
L 1159 -1331 
L 581 -1331 
L 581 3500 
L 1159 3500 
L 1159 2969 
Q 1341 3281 1617 3432 
Q 1894 3584 2278 3584 
Q 2916 3584 3314 3078 
Q 3713 2572 3713 1747 
Q 3713 922 3314 415 
Q 2916 -91 2278 -91 
Q 1894 -91 1617 61 
Q 1341 213 1159 525 
z
M 3116 1747 
Q 3116 2381 2855 2742 
Q 2594 3103 2138 3103 
Q 1681 3103 1420 2742 
Q 1159 2381 1159 1747 
Q 1159 1113 1420 752 
Q 1681 391 2138 391 
Q 2594 391 2855 752 
Q 3116 1113 3116 1747 
z
" transform="scale(0.015625)"/>
       <path id="DejaVuSans-73" d="M 2834 3397 
L 2834 2853 
Q 2591 2978 2328 3040 
Q 2066 3103 1784 3103 
Q 1356 3103 1142 2972 
Q 928 2841 928 2578 
Q 928 2378 1081 2264 
Q 1234 2150 1697 2047 
L 1894 2003 
Q 2506 1872 2764 1633 
Q 3022 1394 3022 966 
Q 3022 478 2636 193 
Q 2250 -91 1575 -91 
Q 1294 -91 989 -36 
Q 684 19 347 128 
L 347 722 
Q 666 556 975 473 
Q 1284 391 1588 391 
Q 1994 391 2212 530 
Q 2431 669 2431 922 
Q 2431 1156 2273 1281 
Q 2116 1406 1581 1522 
L 1381 1569 
Q 847 1681 609 1914 
Q 372 2147 372 2553 
Q 372 3047 722 3315 
Q 1072 3584 1716 3584 
Q 2034 3584 2315 3537 
Q 2597 3491 2834 3397 
z
" transform="scale(0.015625)"/>
      </defs>
      <use xlink:href="#DejaVuSans-53"/>
      <use xlink:href="#DejaVuSans-74" transform="translate(63.476562 0)"/>
      <use xlink:href="#DejaVuSans-65" transform="translate(102.685547 0)"/>
      <use xlink:href="#DejaVuSans-70" transform="translate(164.208984 0)"/>
      <use xlink:href="#DejaVuSans-73" transform="translate(227.685547 0)"/>
     </g>
    </g>
   </g>
   <g id="matplotlib.axis_2">
    <g id="ytick_1">
     <g id="line2d_19">
      <path d="M 47.63 370.258101 
L 709.2 370.258101 
" clip-path="url(#pbacde4c895)" style="fill: none; stroke: #b0b0b0; stroke-width: 0.8; stroke-linecap: square"/>
     </g>
     <g id="line2d_20">
      <defs>
       <path id="m720be96de6" d="M 0 0 
L -3.5 0 
" style="stroke: #000000; stroke-width: 0.8"/>
      </defs>
      <g>
       <use xlink:href="#m720be96de6" x="47.63" y="370.258101" style="stroke: #000000; stroke-width: 0.8"/>
      </g>
     </g>
     <g id="text_11">
      <!-- 2.0 -->
      <g transform="translate(24.726875 374.05732) scale(0.1 -0.1)">
       <defs>
        <path id="DejaVuSans-2e" d="M 684 794 
L 1344 794 
L 1344 0 
L 684 0 
L 684 794 
z
" transform="scale(0.015625)"/>
       </defs>
       <use xlink:href="#DejaVuSans-32"/>
       <use xlink:href="#DejaVuSans-2e" transform="translate(63.623047 0)"/>
       <use xlink:href="#DejaVuSans-30" transform="translate(95.410156 0)"/>
      </g>
     </g>
    </g>
    <g id="ytick_2">
     <g id="line2d_21">
      <path d="M 47.63 306.139777 
L 709.2 306.139777 
" clip-path="url(#pbacde4c895)" style="fill: none; stroke: #b0b0b0; stroke-width: 0.8; stroke-linecap: square"/>
     </g>
     <g id="line2d_22">
      <g>
       <use xlink:href="#m720be96de6" x="47.63" y="306.139777" style="stroke: #000000; stroke-width: 0.8"/>
      </g>
     </g>
     <g id="text_12">
      <!-- 2.5 -->
      <g transform="translate(24.726875 309.938996) scale(0.1 -0.1)">
       <use xlink:href="#DejaVuSans-32"/>
       <use xlink:href="#DejaVuSans-2e" transform="translate(63.623047 0)"/>
       <use xlink:href="#DejaVuSans-35" transform="translate(95.410156 0)"/>
      </g>
     </g>
    </g>
    <g id="ytick_3">
     <g id="line2d_23">
      <path d="M 47.63 242.021453 
L 709.2 242.021453 
" clip-path="url(#pbacde4c895)" style="fill: none; stroke: #b0b0b0; stroke-width: 0.8; stroke-linecap: square"/>
     </g>
     <g id="line2d_24">
      <g>
       <use xlink:href="#m720be96de6" x="47.63" y="242.021453" style="stroke: #000000; stroke-width: 0.8"/>
      </g>
     </g>
     <g id="text_13">
      <!-- 3.0 -->
      <g transform="translate(24.726875 245.820672) scale(0.1 -0.1)">
       <defs>
        <path id="DejaVuSans-33" d="M 2597 2516 
Q 3050 2419 3304 2112 
Q 3559 1806 3559 1356 
Q 3559 666 3084 287 
Q 2609 -91 1734 -91 
Q 1441 -91 1130 -33 
Q 819 25 488 141 
L 488 750 
Q 750 597 1062 519 
Q 1375 441 1716 441 
Q 2309 441 2620 675 
Q 2931 909 2931 1356 
Q 2931 1769 2642 2001 
Q 2353 2234 1838 2234 
L 1294 2234 
L 1294 2753 
L 1863 2753 
Q 2328 2753 2575 2939 
Q 2822 3125 2822 3475 
Q 2822 3834 2567 4026 
Q 2313 4219 1838 4219 
Q 1578 4219 1281 4162 
Q 984 4106 628 3988 
L 628 4550 
Q 988 4650 1302 4700 
Q 1616 4750 1894 4750 
Q 2613 4750 3031 4423 
Q 3450 4097 3450 3541 
Q 3450 3153 3228 2886 
Q 3006 2619 2597 2516 
z
" transform="scale(0.015625)"/>
       </defs>
       <use xlink:href="#DejaVuSans-33"/>
       <use xlink:href="#DejaVuSans-2e" transform="translate(63.623047 0)"/>
       <use xlink:href="#DejaVuSans-30" transform="translate(95.410156 0)"/>
      </g>
     </g>
    </g>
    <g id="ytick_4">
     <g id="line2d_25">
      <path d="M 47.63 177.90313 
L 709.2 177.90313 
" clip-path="url(#pbacde4c895)" style="fill: none; stroke: #b0b0b0; stroke-width: 0.8; stroke-linecap: square"/>
     </g>
     <g id="line2d_26">
      <g>
       <use xlink:href="#m720be96de6" x="47.63" y="177.90313" style="stroke: #000000; stroke-width: 0.8"/>
      </g>
     </g>
     <g id="text_14">
      <!-- 3.5 -->
      <g transform="translate(24.726875 181.702348) scale(0.1 -0.1)">
       <use xlink:href="#DejaVuSans-33"/>
       <use xlink:href="#DejaVuSans-2e" transform="translate(63.623047 0)"/>
       <use xlink:href="#DejaVuSans-35" transform="translate(95.410156 0)"/>
      </g>
     </g>
    </g>
    <g id="ytick_5">
     <g id="line2d_27">
      <path d="M 47.63 113.784806 
L 709.2 113.784806 
" clip-path="url(#pbacde4c895)" style="fill: none; stroke: #b0b0b0; stroke-width: 0.8; stroke-linecap: square"/>
     </g>
     <g id="line2d_28">
      <g>
       <use xlink:href="#m720be96de6" x="47.63" y="113.784806" style="stroke: #000000; stroke-width: 0.8"/>
      </g>
     </g>
     <g id="text_15">
      <!-- 4.0 -->
      <g transform="translate(24.726875 117.584024) scale(0.1 -0.1)">
       <defs>
        <path id="DejaVuSans-34" d="M 2419 4116 
L 825 1625 
L 2419 1625 
L 2419 4116 
z
M 2253 4666 
L 3047 4666 
L 3047 1625 
L 3713 1625 
L 3713 1100 
L 3047 1100 
L 3047 0 
L 2419 0 
L 2419 1100 
L 313 1100 
L 313 1709 
L 2253 4666 
z
" transform="scale(0.015625)"/>
       </defs>
       <use xlink:href="#DejaVuSans-34"/>
       <use xlink:href="#DejaVuSans-2e" transform="translate(63.623047 0)"/>
       <use xlink:href="#DejaVuSans-30" transform="translate(95.410156 0)"/>
      </g>
     </g>
    </g>
    <g id="ytick_6">
     <g id="line2d_29">
      <path d="M 47.63 49.666482 
L 709.2 49.666482 
" clip-path="url(#pbacde4c895)" style="fill: none; stroke: #b0b0b0; stroke-width: 0.8; stroke-linecap: square"/>
     </g>
     <g id="line2d_30">
      <g>
       <use xlink:href="#m720be96de6" x="47.63" y="49.666482" style="stroke: #000000; stroke-width: 0.8"/>
      </g>
     </g>
     <g id="text_16">
      <!-- 4.5 -->
      <g transform="translate(24.726875 53.465701) scale(0.1 -0.1)">
       <use xlink:href="#DejaVuSans-34"/>
       <use xlink:href="#DejaVuSans-2e" transform="translate(63.623047 0)"/>
       <use xlink:href="#DejaVuSans-35" transform="translate(95.410156 0)"/>
      </g>
     </g>
    </g>
    <g id="text_17">
     <!-- Circuit Depth -->
     <g transform="translate(18.647187 233.329375) rotate(-90) scale(0.1 -0.1)">
      <defs>
       <path id="DejaVuSans-43" d="M 4122 4306 
L 4122 3641 
Q 3803 3938 3442 4084 
Q 3081 4231 2675 4231 
Q 1875 4231 1450 3742 
Q 1025 3253 1025 2328 
Q 1025 1406 1450 917 
Q 1875 428 2675 428 
Q 3081 428 3442 575 
Q 3803 722 4122 1019 
L 4122 359 
Q 3791 134 3420 21 
Q 3050 -91 2638 -91 
Q 1578 -91 968 557 
Q 359 1206 359 2328 
Q 359 3453 968 4101 
Q 1578 4750 2638 4750 
Q 3056 4750 3426 4639 
Q 3797 4528 4122 4306 
z
" transform="scale(0.015625)"/>
       <path id="DejaVuSans-69" d="M 603 3500 
L 1178 3500 
L 1178 0 
L 603 0 
L 603 3500 
z
M 603 4863 
L 1178 4863 
L 1178 4134 
L 603 4134 
L 603 4863 
z
" transform="scale(0.015625)"/>
       <path id="DejaVuSans-72" d="M 2631 2963 
Q 2534 3019 2420 3045 
Q 2306 3072 2169 3072 
Q 1681 3072 1420 2755 
Q 1159 2438 1159 1844 
L 1159 0 
L 581 0 
L 581 3500 
L 1159 3500 
L 1159 2956 
Q 1341 3275 1631 3429 
Q 1922 3584 2338 3584 
Q 2397 3584 2469 3576 
Q 2541 3569 2628 3553 
L 2631 2963 
z
" transform="scale(0.015625)"/>
       <path id="DejaVuSans-63" d="M 3122 3366 
L 3122 2828 
Q 2878 2963 2633 3030 
Q 2388 3097 2138 3097 
Q 1578 3097 1268 2742 
Q 959 2388 959 1747 
Q 959 1106 1268 751 
Q 1578 397 2138 397 
Q 2388 397 2633 464 
Q 2878 531 3122 666 
L 3122 134 
Q 2881 22 2623 -34 
Q 2366 -91 2075 -91 
Q 1284 -91 818 406 
Q 353 903 353 1747 
Q 353 2603 823 3093 
Q 1294 3584 2113 3584 
Q 2378 3584 2631 3529 
Q 2884 3475 3122 3366 
z
" transform="scale(0.015625)"/>
       <path id="DejaVuSans-75" d="M 544 1381 
L 544 3500 
L 1119 3500 
L 1119 1403 
Q 1119 906 1312 657 
Q 1506 409 1894 409 
Q 2359 409 2629 706 
Q 2900 1003 2900 1516 
L 2900 3500 
L 3475 3500 
L 3475 0 
L 2900 0 
L 2900 538 
Q 2691 219 2414 64 
Q 2138 -91 1772 -91 
Q 1169 -91 856 284 
Q 544 659 544 1381 
z
M 1991 3584 
L 1991 3584 
z
" transform="scale(0.015625)"/>
       <path id="DejaVuSans-20" transform="scale(0.015625)"/>
       <path id="DejaVuSans-44" d="M 1259 4147 
L 1259 519 
L 2022 519 
Q 2988 519 3436 956 
Q 3884 1394 3884 2338 
Q 3884 3275 3436 3711 
Q 2988 4147 2022 4147 
L 1259 4147 
z
M 628 4666 
L 1925 4666 
Q 3281 4666 3915 4102 
Q 4550 3538 4550 2338 
Q 4550 1131 3912 565 
Q 3275 0 1925 0 
L 628 0 
L 628 4666 
z
" transform="scale(0.015625)"/>
       <path id="DejaVuSans-68" d="M 3513 2113 
L 3513 0 
L 2938 0 
L 2938 2094 
Q 2938 2591 2744 2837 
Q 2550 3084 2163 3084 
Q 1697 3084 1428 2787 
Q 1159 2491 1159 1978 
L 1159 0 
L 581 0 
L 581 4863 
L 1159 4863 
L 1159 2956 
Q 1366 3272 1645 3428 
Q 1925 3584 2291 3584 
Q 2894 3584 3203 3211 
Q 3513 2838 3513 2113 
z
" transform="scale(0.015625)"/>
      </defs>
      <use xlink:href="#DejaVuSans-43"/>
      <use xlink:href="#DejaVuSans-69" transform="translate(69.824219 0)"/>
      <use xlink:href="#DejaVuSans-72" transform="translate(97.607422 0)"/>
      <use xlink:href="#DejaVuSans-63" transform="translate(136.470703 0)"/>
      <use xlink:href="#DejaVuSans-75" transform="translate(191.451172 0)"/>
      <use xlink:href="#DejaVuSans-69" transform="translate(254.830078 0)"/>
      <use xlink:href="#DejaVuSans-74" transform="translate(282.613281 0)"/>
      <use xlink:href="#DejaVuSans-20" transform="translate(321.822266 0)"/>
      <use xlink:href="#DejaVuSans-44" transform="translate(353.609375 0)"/>
      <use xlink:href="#DejaVuSans-65" transform="translate(430.611328 0)"/>
      <use xlink:href="#DejaVuSans-70" transform="translate(492.134766 0)"/>
      <use xlink:href="#DejaVuSans-74" transform="translate(555.611328 0)"/>
      <use xlink:href="#DejaVuSans-68" transform="translate(594.820312 0)"/>
     </g>
    </g>
   </g>
   <g id="line2d_31">
    <path d="M 77.704395 202.054365 
L 80.790332 212.527024 
L 83.773202 197.138627 
L 90.190617 213.595663 
L 93.309899 215.732941 
L 96.608032 213.168208 
L 99.942541 196.924899 
L 103.280082 185.169873 
L 106.54487 200.771998 
L 109.694466 190.299339 
L 113.022912 203.550459 
L 116.318014 202.268093 
L 119.743464 202.909276 
L 123.238637 206.756375 
L 126.721683 207.397558 
L 130.171385 209.534836 
L 133.666557 205.901464 
L 140.299199 198.420993 
L 143.527611 198.634721 
L 146.668112 199.062176 
L 149.832865 197.993538 
L 152.927896 199.062176 
L 156.013833 201.413182 
L 159.127052 198.634721 
L 162.191769 198.207265 
L 165.271643 196.497443 
L 168.354549 198.207265 
L 171.413203 199.062176 
L 174.477921 198.848449 
L 177.533544 200.344543 
L 180.589167 199.275904 
L 183.64479 199.062176 
L 186.700413 199.489632 
L 189.759068 200.130815 
L 192.796503 199.917087 
L 195.852126 198.207265 
L 198.922906 198.848449 
L 201.984592 199.062176 
L 205.05234 198.207265 
L 208.114026 199.489632 
L 211.151461 199.917087 
L 214.201022 197.993538 
L 217.26877 198.848449 
L 220.324394 200.771998 
L 223.373954 200.558271 
L 226.417452 199.70336 
L 229.467012 199.062176 
L 232.528698 198.634721 
L 235.599478 198.848449 
L 238.646007 198.420993 
L 241.72285 198.420993 
L 244.790598 199.275904 
L 247.873504 199.917087 
L 250.938221 199.062176 
L 254.030221 194.787621 
L 257.213162 196.924899 
L 260.362757 198.420993 
L 263.433537 199.275904 
L 266.59829 198.420993 
L 269.732729 198.207265 
L 272.852011 197.77981 
L 275.947042 200.130815 
L 279.045104 200.130815 
L 282.134072 198.848449 
L 285.26548 198.207265 
L 288.354448 198.848449 
L 294.553604 197.993538 
L 297.624384 181.109046 
L 300.683039 181.963957 
L 303.765944 192.009161 
L 306.864007 193.291527 
L 309.946912 193.505255 
L 313.026786 197.352354 
L 316.070284 199.70336 
L 319.128939 186.238512 
L 322.184562 197.138627 
L 325.29475 199.489632 
L 328.411 187.948334 
L 331.499968 196.283716 
L 334.57378 201.413182 
L 337.64456 196.924899 
L 340.818406 198.207265 
L 343.886155 202.268093 
L 346.975123 200.344543 
L 350.033778 200.130815 
L 353.116683 198.207265 
L 356.20262 212.95448 
L 359.318871 219.58004 
L 362.353274 212.313297 
L 365.402835 224.068323 
L 368.434207 233.258616 
L 371.471642 223.427139 
L 374.509077 227.060511 
L 377.534386 225.136961 
L 380.56879 207.183831 
L 383.606225 225.564417 
L 386.64366 239.45672 
L 389.69322 231.762522 
L 392.730655 224.709506 
L 395.740808 218.083946 
L 398.778243 213.381935 
L 401.809615 214.87803 
L 404.850081 214.664302 
L 407.890547 210.389747 
L 410.924951 212.099569 
L 413.956323 207.825014 
L 416.993758 209.10738 
L 420.02513 203.336731 
L 423.062565 203.550459 
L 426.096969 199.917087 
L 429.131372 206.542648 
L 432.162745 217.229035 
L 435.194117 217.442763 
L 438.22852 211.885841 
L 441.259892 208.252469 
L 444.291265 204.832826 
L 447.337794 213.381935 
L 450.396448 216.801579 
L 453.439946 204.191642 
L 456.480412 199.917087 
L 459.514816 200.130815 
L 462.546188 199.489632 
L 465.571497 201.413182 
L 468.584681 200.344543 
L 471.625148 192.436616 
L 474.647426 199.489632 
L 477.675766 200.130815 
L 480.71017 198.848449 
L 483.741542 199.062176 
L 486.772914 199.062176 
L 489.804287 199.275904 
L 492.835659 199.917087 
L 495.867031 197.352354 
L 498.901435 197.77981 
L 501.935838 199.275904 
L 504.96721 199.70336 
L 507.998582 198.848449 
L 511.081488 202.695548 
L 514.461468 203.764187 
L 517.520122 199.275904 
L 520.554526 199.275904 
L 523.591961 199.062176 
L 526.623333 198.634721 
L 529.657737 198.848449 
L 532.689109 198.634721 
L 535.729575 192.222889 
L 538.760947 155.034261 
L 541.795351 186.452239 
L 544.899476 199.275904 
L 547.93388 192.864072 
L 550.862185 228.556605 
L 553.784428 202.48182 
L 556.8158 188.162061 
L 559.847172 195.428805 
L 562.881576 200.558271 
L 565.912948 198.634721 
L 568.950383 198.420993 
L 571.981755 198.848449 
L 575.013127 198.634721 
L 578.0445 197.993538 
L 581.078903 199.275904 
L 584.110275 199.275904 
L 587.141647 199.917087 
L 590.182114 199.062176 
L 593.216517 199.275904 
L 596.247889 199.062176 
L 599.291387 199.70336 
L 602.383387 199.062176 
L 605.41779 199.275904 
L 608.53101 199.275904 
L 611.568444 199.70336 
L 614.857483 199.275904 
L 618.013142 198.634721 
L 621.059671 199.062176 
L 624.230486 198.634721 
L 627.280047 220.007496 
L 630.320513 217.65649 
L 633.354916 201.413182 
L 636.38932 199.062176 
L 639.420692 199.489632 
L 642.455096 199.275904 
L 645.486468 199.275904 
L 648.654252 198.420993 
L 651.794753 199.275904 
L 654.832188 198.848449 
L 657.872655 199.70336 
L 660.907058 199.062176 
L 663.944493 199.489632 
L 666.987991 199.275904 
L 670.025426 199.275904 
L 673.062861 199.062176 
L 676.097264 199.70336 
L 679.128636 198.848449 
L 679.128636 198.848449 
" clip-path="url(#pbacde4c895)" style="fill: none; stroke: #0000ff; stroke-width: 1.5; stroke-linecap: square"/>
   </g>
   <g id="line2d_32">
    <path d="M 77.701364 204.191642 
L 80.744861 203.977915 
L 83.867175 192.864072 
L 86.892484 200.985726 
L 90.023892 205.260281 
L 93.209864 201.199454 
L 96.268518 196.283716 
L 99.354455 194.146438 
L 102.52527 202.695548 
L 105.589988 193.077799 
L 108.681987 193.718983 
L 111.843709 194.573894 
L 115.032712 192.222889 
L 118.170182 191.15425 
L 121.168209 199.489632 
L 124.293554 193.93271 
L 127.418899 195.215077 
L 130.571526 206.542648 
L 133.754467 199.275904 
L 136.916188 194.787621 
L 140.023344 206.115192 
L 143.182034 209.962291 
L 146.443791 208.893653 
L 149.566104 205.046553 
L 152.655072 197.566082 
L 155.877421 199.275904 
L 158.981546 200.344543 
L 162.109922 208.466197 
L 165.289832 201.199454 
L 168.369706 195.215077 
L 171.419266 197.566082 
L 174.847748 192.864072 
L 177.994312 192.864072 
L 181.186347 199.275904 
L 184.217719 196.069988 
L 187.276374 186.665967 
L 190.510848 199.489632 
L 193.69682 196.283716 
L 196.807008 201.413182 
L 199.974792 188.162061 
L 203.160764 205.260281 
L 206.204262 208.252469 
L 209.405391 201.626909 
L 212.62774 196.069988 
L 215.813712 200.130815 
L 218.9239 201.413182 
L 222.052276 206.115192 
L 225.138213 204.40537 
L 228.163522 208.466197 
L 231.410122 199.275904 
L 234.383898 216.374124 
L 237.515305 191.795433 
L 240.868003 198.420993 
L 244.057006 200.130815 
L 247.170226 192.864072 
L 250.444108 193.93271 
L 253.423946 206.32892 
L 256.543228 193.077799 
L 259.735263 196.069988 
L 262.881828 206.115192 
L 266.182992 199.917087 
L 269.278023 197.566082 
L 272.470058 208.466197 
L 275.407457 200.130815 
L 278.463081 182.60514 
L 281.703618 197.352354 
L 284.898684 214.450574 
L 288.011903 185.383601 
L 291.258503 205.687737 
L 294.471757 195.85626 
L 297.61529 204.191642 
L 300.719415 195.428805 
L 303.856885 184.314962 
L 307.121673 184.101234 
L 310.353116 191.581705 
L 316.673527 194.146438 
L 319.880719 202.054365 
L 323.133381 200.344543 
L 326.346636 189.016972 
L 329.40529 206.32892 
L 332.609451 193.93271 
L 335.759046 204.619098 
L 338.863171 185.383601 
L 341.994579 201.626909 
L 345.101735 207.397558 
L 348.242237 205.046553 
L 351.443366 196.497443 
L 354.489895 213.168208 
L 357.751652 189.444428 
L 360.73149 207.397558 
L 363.89018 197.566082 
L 367.145874 205.901464 
L 370.131776 202.695548 
L 373.202556 196.711171 
L 376.409747 216.801579 
L 379.441119 202.054365 
L 382.55737 209.10738 
L 385.764562 190.299339 
L 388.935377 203.977915 
L 392.066785 194.146438 
L 395.295196 209.962291 
L 398.393258 200.130815 
L 401.424631 206.115192 
L 404.446909 193.505255 
L 407.487375 199.275904 
L 410.733975 182.177684 
L 414.004825 211.244658 
L 417.066511 204.40537 
L 420.24642 198.848449 
L 423.468769 187.520878 
L 426.685055 198.207265 
L 429.849808 206.115192 
L 432.953933 194.573894 
L 435.976211 198.634721 
L 442.196586 200.344543 
L 445.227959 194.360166 
L 448.244174 195.001349 
L 451.411958 197.352354 
L 454.44333 191.795433 
L 457.595957 192.650344 
L 460.818306 205.901464 
L 463.879992 201.840637 
L 467.093246 201.413182 
L 470.285281 190.299339 
L 473.368187 198.207265 
L 476.366214 205.260281 
L 479.500653 204.832826 
L 482.562338 206.970103 
L 485.690715 193.93271 
L 488.897906 203.336731 
L 491.798929 205.687737 
L 494.839396 206.115192 
L 497.979897 188.589517 
L 501.087054 197.566082 
L 504.327591 200.558271 
L 507.407465 190.940522 
L 510.472182 182.391412 
L 513.746064 185.811056 
L 517.035103 192.436616 
L 520.260483 199.275904 
L 523.494957 190.513067 
L 526.620302 197.566082 
L 529.633486 201.840637 
L 532.69214 207.825014 
L 535.862956 200.985726 
L 538.9883 199.917087 
L 542.083331 179.612951 
L 545.232927 209.748564 
L 548.400711 197.77981 
L 551.519993 194.146438 
L 554.690808 194.360166 
L 557.837373 192.436616 
L 561.023345 201.413182 
L 564.175972 190.726794 
L 567.298285 201.626909 
L 570.305406 204.191642 
L 573.357998 208.893653 
L 576.346931 196.283716 
L 579.417711 211.03093 
L 582.606715 197.352354 
L 585.707808 193.93271 
L 588.951377 202.909276 
L 592.028219 217.229035 
L 595.141439 187.948334 
L 598.294066 200.344543 
L 601.452756 194.573894 
L 604.68723 189.2307 
L 607.95808 176.620763 
L 611.131927 190.513067 
L 614.333056 182.60514 
L 617.519028 206.756375 
L 620.601934 191.15425 
L 623.845502 208.038742 
L 626.940533 210.603475 
L 629.965842 197.566082 
L 633.088156 196.924899 
L 636.122559 192.650344 
L 639.223653 190.940522 
L 642.400531 211.244658 
L 645.483436 191.581705 
L 648.708816 186.238512 
L 651.840224 203.977915 
L 654.956475 211.03093 
L 658.221262 204.191642 
L 661.328419 202.909276 
L 664.426481 197.77981 
L 667.594265 184.52869 
L 670.780237 211.672113 
L 673.893457 198.634721 
L 677.127931 197.566082 
L 677.127931 197.566082 
" clip-path="url(#pbacde4c895)" style="fill: none; stroke: #ffa500; stroke-width: 1.5; stroke-linecap: square"/>
   </g>
   <g id="patch_3">
    <path d="M 47.63 390.04 
L 47.63 10.8 
" style="fill: none; stroke: #000000; stroke-width: 0.8; stroke-linejoin: miter; stroke-linecap: square"/>
   </g>
   <g id="patch_4">
    <path d="M 709.2 390.04 
L 709.2 10.8 
" style="fill: none; stroke: #000000; stroke-width: 0.8; stroke-linejoin: miter; stroke-linecap: square"/>
   </g>
   <g id="patch_5">
    <path d="M 47.63 390.04 
L 709.2 390.04 
" style="fill: none; stroke: #000000; stroke-width: 0.8; stroke-linejoin: miter; stroke-linecap: square"/>
   </g>
   <g id="patch_6">
    <path d="M 47.63 10.8 
L 709.2 10.8 
" style="fill: none; stroke: #000000; stroke-width: 0.8; stroke-linejoin: miter; stroke-linecap: square"/>
   </g>
   <g id="legend_1">
    <g id="patch_7">
     <path d="M 628.803125 385.04 
L 702.2 385.04 
Q 704.2 385.04 704.2 383.04 
L 704.2 340.005625 
Q 704.2 338.005625 702.2 338.005625 
L 628.803125 338.005625 
Q 626.803125 338.005625 626.803125 340.005625 
L 626.803125 383.04 
Q 626.803125 385.04 628.803125 385.04 
z
" style="fill: #ffffff; opacity: 0.8; stroke: #cccccc; stroke-linejoin: miter"/>
    </g>
    <g id="text_18">
     <!-- Agent -->
     <g transform="translate(650.701562 349.604062) scale(0.1 -0.1)">
      <defs>
       <path id="DejaVuSans-41" d="M 2188 4044 
L 1331 1722 
L 3047 1722 
L 2188 4044 
z
M 1831 4666 
L 2547 4666 
L 4325 0 
L 3669 0 
L 3244 1197 
L 1141 1197 
L 716 0 
L 50 0 
L 1831 4666 
z
" transform="scale(0.015625)"/>
       <path id="DejaVuSans-67" d="M 2906 1791 
Q 2906 2416 2648 2759 
Q 2391 3103 1925 3103 
Q 1463 3103 1205 2759 
Q 947 2416 947 1791 
Q 947 1169 1205 825 
Q 1463 481 1925 481 
Q 2391 481 2648 825 
Q 2906 1169 2906 1791 
z
M 3481 434 
Q 3481 -459 3084 -895 
Q 2688 -1331 1869 -1331 
Q 1566 -1331 1297 -1286 
Q 1028 -1241 775 -1147 
L 775 -588 
Q 1028 -725 1275 -790 
Q 1522 -856 1778 -856 
Q 2344 -856 2625 -561 
Q 2906 -266 2906 331 
L 2906 616 
Q 2728 306 2450 153 
Q 2172 0 1784 0 
Q 1141 0 747 490 
Q 353 981 353 1791 
Q 353 2603 747 3093 
Q 1141 3584 1784 3584 
Q 2172 3584 2450 3431 
Q 2728 3278 2906 2969 
L 2906 3500 
L 3481 3500 
L 3481 434 
z
" transform="scale(0.015625)"/>
       <path id="DejaVuSans-6e" d="M 3513 2113 
L 3513 0 
L 2938 0 
L 2938 2094 
Q 2938 2591 2744 2837 
Q 2550 3084 2163 3084 
Q 1697 3084 1428 2787 
Q 1159 2491 1159 1978 
L 1159 0 
L 581 0 
L 581 3500 
L 1159 3500 
L 1159 2956 
Q 1366 3272 1645 3428 
Q 1925 3584 2291 3584 
Q 2894 3584 3203 3211 
Q 3513 2838 3513 2113 
z
" transform="scale(0.015625)"/>
      </defs>
      <use xlink:href="#DejaVuSans-41"/>
      <use xlink:href="#DejaVuSans-67" transform="translate(68.408203 0)"/>
      <use xlink:href="#DejaVuSans-65" transform="translate(131.884766 0)"/>
      <use xlink:href="#DejaVuSans-6e" transform="translate(193.408203 0)"/>
      <use xlink:href="#DejaVuSans-74" transform="translate(256.787109 0)"/>
     </g>
    </g>
    <g id="line2d_33">
     <path d="M 630.803125 360.782187 
L 640.803125 360.782187 
L 650.803125 360.782187 
" style="fill: none; stroke: #0000ff; stroke-width: 1.5; stroke-linecap: square"/>
    </g>
    <g id="text_19">
     <!-- PPO -->
     <g transform="translate(658.803125 364.282187) scale(0.1 -0.1)">
      <defs>
       <path id="DejaVuSans-50" d="M 1259 4147 
L 1259 2394 
L 2053 2394 
Q 2494 2394 2734 2622 
Q 2975 2850 2975 3272 
Q 2975 3691 2734 3919 
Q 2494 4147 2053 4147 
L 1259 4147 
z
M 628 4666 
L 2053 4666 
Q 2838 4666 3239 4311 
Q 3641 3956 3641 3272 
Q 3641 2581 3239 2228 
Q 2838 1875 2053 1875 
L 1259 1875 
L 1259 0 
L 628 0 
L 628 4666 
z
" transform="scale(0.015625)"/>
       <path id="DejaVuSans-4f" d="M 2522 4238 
Q 1834 4238 1429 3725 
Q 1025 3213 1025 2328 
Q 1025 1447 1429 934 
Q 1834 422 2522 422 
Q 3209 422 3611 934 
Q 4013 1447 4013 2328 
Q 4013 3213 3611 3725 
Q 3209 4238 2522 4238 
z
M 2522 4750 
Q 3503 4750 4090 4092 
Q 4678 3434 4678 2328 
Q 4678 1225 4090 567 
Q 3503 -91 2522 -91 
Q 1538 -91 948 565 
Q 359 1222 359 2328 
Q 359 3434 948 4092 
Q 1538 4750 2522 4750 
z
" transform="scale(0.015625)"/>
      </defs>
      <use xlink:href="#DejaVuSans-50"/>
      <use xlink:href="#DejaVuSans-50" transform="translate(60.302734 0)"/>
      <use xlink:href="#DejaVuSans-4f" transform="translate(120.605469 0)"/>
     </g>
    </g>
    <g id="line2d_34">
     <path d="M 630.803125 375.460312 
L 640.803125 375.460312 
L 650.803125 375.460312 
" style="fill: none; stroke: #ffa500; stroke-width: 1.5; stroke-linecap: square"/>
    </g>
    <g id="text_20">
     <!-- Random -->
     <g transform="translate(658.803125 378.960312) scale(0.1 -0.1)">
      <defs>
       <path id="DejaVuSans-52" d="M 2841 2188 
Q 3044 2119 3236 1894 
Q 3428 1669 3622 1275 
L 4263 0 
L 3584 0 
L 2988 1197 
Q 2756 1666 2539 1819 
Q 2322 1972 1947 1972 
L 1259 1972 
L 1259 0 
L 628 0 
L 628 4666 
L 2053 4666 
Q 2853 4666 3247 4331 
Q 3641 3997 3641 3322 
Q 3641 2881 3436 2590 
Q 3231 2300 2841 2188 
z
M 1259 4147 
L 1259 2491 
L 2053 2491 
Q 2509 2491 2742 2702 
Q 2975 2913 2975 3322 
Q 2975 3731 2742 3939 
Q 2509 4147 2053 4147 
L 1259 4147 
z
" transform="scale(0.015625)"/>
       <path id="DejaVuSans-61" d="M 2194 1759 
Q 1497 1759 1228 1600 
Q 959 1441 959 1056 
Q 959 750 1161 570 
Q 1363 391 1709 391 
Q 2188 391 2477 730 
Q 2766 1069 2766 1631 
L 2766 1759 
L 2194 1759 
z
M 3341 1997 
L 3341 0 
L 2766 0 
L 2766 531 
Q 2569 213 2275 61 
Q 1981 -91 1556 -91 
Q 1019 -91 701 211 
Q 384 513 384 1019 
Q 384 1609 779 1909 
Q 1175 2209 1959 2209 
L 2766 2209 
L 2766 2266 
Q 2766 2663 2505 2880 
Q 2244 3097 1772 3097 
Q 1472 3097 1187 3025 
Q 903 2953 641 2809 
L 641 3341 
Q 956 3463 1253 3523 
Q 1550 3584 1831 3584 
Q 2591 3584 2966 3190 
Q 3341 2797 3341 1997 
z
" transform="scale(0.015625)"/>
       <path id="DejaVuSans-64" d="M 2906 2969 
L 2906 4863 
L 3481 4863 
L 3481 0 
L 2906 0 
L 2906 525 
Q 2725 213 2448 61 
Q 2172 -91 1784 -91 
Q 1150 -91 751 415 
Q 353 922 353 1747 
Q 353 2572 751 3078 
Q 1150 3584 1784 3584 
Q 2172 3584 2448 3432 
Q 2725 3281 2906 2969 
z
M 947 1747 
Q 947 1113 1208 752 
Q 1469 391 1925 391 
Q 2381 391 2643 752 
Q 2906 1113 2906 1747 
Q 2906 2381 2643 2742 
Q 2381 3103 1925 3103 
Q 1469 3103 1208 2742 
Q 947 2381 947 1747 
z
" transform="scale(0.015625)"/>
       <path id="DejaVuSans-6f" d="M 1959 3097 
Q 1497 3097 1228 2736 
Q 959 2375 959 1747 
Q 959 1119 1226 758 
Q 1494 397 1959 397 
Q 2419 397 2687 759 
Q 2956 1122 2956 1747 
Q 2956 2369 2687 2733 
Q 2419 3097 1959 3097 
z
M 1959 3584 
Q 2709 3584 3137 3096 
Q 3566 2609 3566 1747 
Q 3566 888 3137 398 
Q 2709 -91 1959 -91 
Q 1206 -91 779 398 
Q 353 888 353 1747 
Q 353 2609 779 3096 
Q 1206 3584 1959 3584 
z
" transform="scale(0.015625)"/>
       <path id="DejaVuSans-6d" d="M 3328 2828 
Q 3544 3216 3844 3400 
Q 4144 3584 4550 3584 
Q 5097 3584 5394 3201 
Q 5691 2819 5691 2113 
L 5691 0 
L 5113 0 
L 5113 2094 
Q 5113 2597 4934 2840 
Q 4756 3084 4391 3084 
Q 3944 3084 3684 2787 
Q 3425 2491 3425 1978 
L 3425 0 
L 2847 0 
L 2847 2094 
Q 2847 2600 2669 2842 
Q 2491 3084 2119 3084 
Q 1678 3084 1418 2786 
Q 1159 2488 1159 1978 
L 1159 0 
L 581 0 
L 581 3500 
L 1159 3500 
L 1159 2956 
Q 1356 3278 1631 3431 
Q 1906 3584 2284 3584 
Q 2666 3584 2933 3390 
Q 3200 3197 3328 2828 
z
" transform="scale(0.015625)"/>
      </defs>
      <use xlink:href="#DejaVuSans-52"/>
      <use xlink:href="#DejaVuSans-61" transform="translate(67.232422 0)"/>
      <use xlink:href="#DejaVuSans-6e" transform="translate(128.511719 0)"/>
      <use xlink:href="#DejaVuSans-64" transform="translate(191.890625 0)"/>
      <use xlink:href="#DejaVuSans-6f" transform="translate(255.367188 0)"/>
      <use xlink:href="#DejaVuSans-6d" transform="translate(316.548828 0)"/>
     </g>
    </g>
   </g>
  </g>
 </g>
 <defs>
  <clipPath id="pbacde4c895">
   <rect x="47.63" y="10.8" width="661.57" height="379.24"/>
  </clipPath>
 </defs>
</svg>
