<?xml version="1.0" encoding="utf-8" standalone="no"?>
<!DOCTYPE svg PUBLIC "-//W3C//DTD SVG 1.1//EN"
  "http://www.w3.org/Graphics/SVG/1.1/DTD/svg11.dtd">
<svg xmlns:xlink="http://www.w3.org/1999/xlink" width="720pt" height="432pt" viewBox="0 0 720 432" xmlns="http://www.w3.org/2000/svg" version="1.1">
 <metadata>
  <rdf:RDF xmlns:dc="http://purl.org/dc/elements/1.1/" xmlns:cc="http://creativecommons.org/ns#" xmlns:rdf="http://www.w3.org/1999/02/22-rdf-syntax-ns#">
   <cc:Work>
    <dc:type rdf:resource="http://purl.org/dc/dcmitype/StillImage"/>
    <dc:date>2025-04-15T17:21:23.349080</dc:date>
    <dc:format>image/svg+xml</dc:format>
    <dc:creator>
     <cc:Agent>
      <dc:title>Matplotlib v3.10.0, https://matplotlib.org/</dc:title>
     </cc:Agent>
    </dc:creator>
   </cc:Work>
  </rdf:RDF>
 </metadata>
 <defs>
  <style type="text/css">*{stroke-linejoin: round; stroke-linecap: butt}</style>
 </defs>
 <g id="figure_1">
  <g id="patch_1">
   <path d="M 0 432 
L 720 432 
L 720 0 
L 0 0 
z
" style="fill: #ffffff"/>
  </g>
  <g id="axes_1">
   <g id="patch_2">
    <path d="M 47.72 390.04 
L 709.2 390.04 
L 709.2 10.8 
L 47.72 10.8 
z
" style="fill: #ffffff"/>
   </g>
   <g id="FillBetweenPolyCollection_1">
    <defs>
     <path id="m481674a991" d="M 77.790304 -233.96716 
L 77.790304 -66.640887 
L 80.875821 -85.43264 
L 83.858285 -85.495429 
L 86.99836 -99.16944 
L 90.274827 -105.216818 
L 93.393685 -103.68851 
L 96.691369 -102.305046 
L 100.025425 -118.558382 
L 103.362511 -124.124702 
L 106.626855 -123.914806 
L 109.776022 -155.396188 
L 113.104016 -153.360894 
L 116.39867 -178.382402 
L 119.823654 -203.68251 
L 123.318351 -235.94786 
L 126.800924 -261.006989 
L 130.250156 -275.496196 
L 133.744852 -323.1825 
L 137.127404 -352.969269 
L 140.376593 -368.831 
L 143.604565 -374.472273 
L 146.744639 -380.720585 
L 149.908961 -389.458373 
L 153.003571 -391.764856 
L 156.089088 -378.879203 
L 159.201884 -395.20281 
L 162.266184 -396.845124 
L 165.345639 -395.103276 
L 168.428125 -397.342795 
L 171.486364 -398.238602 
L 174.550664 -395.949316 
L 177.605872 -394.79048 
L 180.661079 -401.971134 
L 183.716287 -397.840466 
L 186.771494 -400.67719 
L 189.829733 -395.800015 
L 192.866754 -398.238602 
L 195.921962 -396.845124 
L 198.992324 -401.722299 
L 202.053593 -400.826491 
L 205.120925 -401.324162 
L 208.182194 -401.125094 
L 211.219216 -392.415852 
L 214.268361 -401.373929 
L 217.335693 -400.435382 
L 220.3909 -397.24326 
L 223.440046 -394.008399 
L 226.483129 -391.76888 
L 229.532275 -397.641397 
L 232.593544 -401.821833 
L 235.663907 -397.691164 
L 238.710021 -400.67719 
L 241.786445 -397.243261 
L 244.853777 -397.840466 
L 247.936263 -397.392562 
L 251.000563 -400.627423 
L 254.092142 -381.102696 
L 257.27465 -384.552652 
L 260.423817 -387.737746 
L 263.494179 -393.261893 
L 266.658501 -393.212126 
L 269.792514 -390.275868 
L 272.911372 -393.240332 
L 276.005981 -397.143726 
L 279.103622 -396.944658 
L 282.19217 -397.989767 
L 285.323152 -395.899549 
L 288.4117 -397.890233 
L 291.469938 -397.94 
L 294.610013 -390.57447 
L 297.680375 -356.384534 
L 300.738613 -372.765679 
L 303.8211 -367.656675 
L 306.91874 -379.90864 
L 310.001227 -385.476189 
L 313.080682 -385.251774 
L 316.123765 -385.658443 
L 319.182004 -307.341957 
L 322.237211 -344.413157 
L 325.346976 -357.111818 
L 328.462803 -359.140253 
L 331.551351 -354.038876 
L 334.624744 -370.149959 
L 337.695106 -355.946909 
L 340.868521 -356.62281 
L 343.935852 -372.160816 
L 347.0244 -362.961317 
L 350.082639 -368.877951 
L 353.165125 -369.050881 
L 356.250642 -298.848204 
L 359.366469 -320.926715 
L 362.40046 -323.565518 
L 365.449605 -311.8118 
L 368.480565 -282.941066 
L 371.517587 -317.907644 
L 374.554608 -299.714406 
L 377.579506 -308.843005 
L 380.613497 -319.057939 
L 383.650519 -298.635961 
L 386.68754 -254.92382 
L 389.736686 -288.302953 
L 392.773708 -307.804268 
L 395.783451 -336.854554 
L 398.820472 -332.234124 
L 401.851432 -336.586873 
L 404.891485 -332.7759 
L 407.931538 -355.081485 
L 410.965528 -341.541428 
L 413.996488 -353.449819 
L 417.03351 -355.389134 
L 420.06447 -378.438327 
L 423.101491 -375.36632 
L 426.135482 -385.156884 
L 429.169473 -371.451553 
L 432.200433 -339.563198 
L 435.231392 -335.9302 
L 438.265383 -342.648758 
L 441.296343 -347.675235 
L 444.327303 -371.613207 
L 447.373417 -343.544566 
L 450.431656 -335.114953 
L 453.474739 -384.652186 
L 456.514792 -399.184177 
L 459.548783 -400.179519 
L 462.579743 -402.618107 
L 465.604641 -395.153042 
L 468.617415 -398.78604 
L 471.657467 -392.316318 
L 474.679334 -402.21997 
L 477.707263 -399.13441 
L 480.741254 -398.736273 
L 483.772214 -403.812517 
L 486.803173 -403.961818 
L 489.834133 -403.961818 
L 492.865093 -400.229286 
L 495.896053 -402.717641 
L 498.930044 -402.518573 
L 501.964034 -400.975793 
L 504.994994 -400.627423 
L 508.025954 -402.020902 
L 511.10844 -327.333124 
L 514.48796 -355.460987 
L 517.546199 -401.473464 
L 520.580189 -403.563681 
L 523.617211 -403.961818 
L 526.648171 -403.613449 
L 529.682162 -402.966476 
L 532.713121 -402.817175 
L 535.753174 -385.348925 
L 538.784134 -291.090049 
L 541.818125 -365.840225 
L 544.921827 -401.821833 
L 547.955818 -401.722299 
L 550.883725 -305.174136 
L 553.805571 -392.465619 
L 556.83653 -398.238603 
L 559.86749 -401.722299 
L 562.901481 -400.279053 
L 565.932441 -403.41438 
L 568.969463 -403.712983 
L 572.000422 -403.066011 
L 575.031382 -403.41438 
L 578.062342 -401.772066 
L 581.096333 -403.862284 
L 584.127292 -403.912051 
L 587.158252 -400.975793 
L 590.198305 -403.712983 
L 593.232296 -403.961818 
L 596.263255 -402.866942 
L 599.306339 -394.605605 
L 602.397918 -403.961818 
L 605.431909 -403.513914 
L 608.544705 -395.750248 
L 611.581726 -402.468805 
L 614.870318 -348.222675 
L 618.025547 -400.975793 
L 621.071661 -403.464147 
L 624.242045 -391.520045 
L 627.291191 -268.296718 
L 630.331244 -291.737019 
L 633.365234 -390.275867 
L 636.399225 -403.961818 
L 639.430185 -402.468805 
L 642.464176 -403.961818 
L 645.495135 -403.961818 
L 648.662488 -379.568757 
L 651.802563 -401.672532 
L 654.839585 -403.712983 
L 657.879637 -402.468805 
L 660.913628 -403.115778 
L 663.95065 -401.921367 
L 666.993733 -403.961818 
L 670.030755 -403.961818 
L 673.067777 -403.961818 
L 676.101767 -402.468805 
L 679.132727 -403.961818 
L 679.132727 -403.961818 
L 679.132727 -403.961818 
L 676.101767 -403.961818 
L 673.067777 -403.961818 
L 670.030755 -403.961818 
L 666.993733 -403.961818 
L 663.95065 -403.961818 
L 660.913628 -403.961818 
L 657.879637 -403.961818 
L 654.839585 -403.961818 
L 651.802563 -403.961818 
L 648.662488 -403.961818 
L 645.495135 -403.961818 
L 642.464176 -403.961818 
L 639.430185 -403.961818 
L 636.399225 -403.961818 
L 633.365234 -403.961818 
L 630.331244 -403.961818 
L 627.291191 -403.961818 
L 624.242045 -403.961818 
L 621.071661 -403.961818 
L 618.025547 -403.961818 
L 614.870318 -403.961818 
L 611.581726 -403.961818 
L 608.544705 -403.961818 
L 605.431909 -403.961818 
L 602.397918 -403.961818 
L 599.306339 -403.961818 
L 596.263255 -403.961818 
L 593.232296 -403.961818 
L 590.198305 -403.961818 
L 587.158252 -403.961818 
L 584.127292 -403.961818 
L 581.096333 -403.961818 
L 578.062342 -403.961818 
L 575.031382 -403.961818 
L 572.000422 -403.961818 
L 568.969463 -403.961818 
L 565.932441 -403.961818 
L 562.901481 -403.961818 
L 559.86749 -403.961818 
L 556.83653 -403.961818 
L 553.805571 -403.961818 
L 550.883725 -403.961818 
L 547.955818 -403.961818 
L 544.921827 -403.961818 
L 541.818125 -403.961818 
L 538.784134 -403.961818 
L 535.753174 -403.961818 
L 532.713121 -403.961818 
L 529.682162 -403.961818 
L 526.648171 -403.961818 
L 523.617211 -403.961818 
L 520.580189 -403.961818 
L 517.546199 -403.961818 
L 514.48796 -403.961818 
L 511.10844 -403.961818 
L 508.025954 -403.961818 
L 504.994994 -403.961818 
L 501.964034 -403.961818 
L 498.930044 -403.961818 
L 495.896053 -403.961818 
L 492.865093 -403.961818 
L 489.834133 -403.961818 
L 486.803173 -403.961818 
L 483.772214 -403.961818 
L 480.741254 -403.961818 
L 477.707263 -403.961818 
L 474.679334 -403.961818 
L 471.657467 -403.961818 
L 468.617415 -403.961818 
L 465.604641 -403.961818 
L 462.579743 -403.961818 
L 459.548783 -403.961818 
L 456.514792 -403.961818 
L 453.474739 -403.961818 
L 450.431656 -403.961818 
L 447.373417 -403.961818 
L 444.327303 -403.961818 
L 441.296343 -403.961818 
L 438.265383 -403.961818 
L 435.231392 -403.961818 
L 432.200433 -403.961818 
L 429.169473 -403.961818 
L 426.135482 -403.961818 
L 423.101491 -403.961818 
L 420.06447 -403.961818 
L 417.03351 -403.961818 
L 413.996488 -403.961818 
L 410.965528 -403.961818 
L 407.931538 -403.961818 
L 404.891485 -403.961818 
L 401.851432 -403.961818 
L 398.820472 -403.961818 
L 395.783451 -403.961818 
L 392.773708 -403.961818 
L 389.736686 -403.961818 
L 386.68754 -403.961818 
L 383.650519 -403.961818 
L 380.613497 -403.961818 
L 377.579506 -403.961818 
L 374.554608 -403.961818 
L 371.517587 -403.961818 
L 368.480565 -403.961818 
L 365.449605 -403.961818 
L 362.40046 -403.961818 
L 359.366469 -403.961818 
L 356.250642 -403.961818 
L 353.165125 -403.961818 
L 350.082639 -403.961818 
L 347.0244 -403.961818 
L 343.935852 -403.961818 
L 340.868521 -403.961818 
L 337.695106 -403.961818 
L 334.624744 -403.961818 
L 331.551351 -403.961818 
L 328.462803 -403.961818 
L 325.346976 -403.961818 
L 322.237211 -403.961818 
L 319.182004 -403.961818 
L 316.123765 -403.961818 
L 313.080682 -403.961818 
L 310.001227 -403.961818 
L 306.91874 -403.961818 
L 303.8211 -403.961818 
L 300.738613 -403.961818 
L 297.680375 -403.961818 
L 294.610013 -403.961818 
L 291.469938 -403.961818 
L 288.4117 -403.961818 
L 285.323152 -403.961818 
L 282.19217 -403.961818 
L 279.103622 -403.961818 
L 276.005981 -403.961818 
L 272.911372 -403.961818 
L 269.792514 -403.961818 
L 266.658501 -403.961818 
L 263.494179 -403.961818 
L 260.423817 -403.961818 
L 257.27465 -403.961818 
L 254.092142 -403.961818 
L 251.000563 -403.961818 
L 247.936263 -403.961818 
L 244.853777 -403.961818 
L 241.786445 -403.961818 
L 238.710021 -403.961818 
L 235.663907 -403.961818 
L 232.593544 -403.961818 
L 229.532275 -403.961818 
L 226.483129 -403.961818 
L 223.440046 -403.961818 
L 220.3909 -403.961818 
L 217.335693 -403.961818 
L 214.268361 -403.961818 
L 211.219216 -403.961818 
L 208.182194 -403.961818 
L 205.120925 -403.961818 
L 202.053593 -403.961818 
L 198.992324 -403.961818 
L 195.921962 -403.961818 
L 192.866754 -403.961818 
L 189.829733 -403.961818 
L 186.771494 -403.961818 
L 183.716287 -403.961818 
L 180.661079 -403.961818 
L 177.605872 -403.961818 
L 174.550664 -403.961818 
L 171.486364 -403.961818 
L 168.428125 -403.961818 
L 165.345639 -403.961818 
L 162.266184 -403.961818 
L 159.201884 -403.961818 
L 156.089088 -403.961818 
L 153.003571 -403.961818 
L 149.908961 -403.961818 
L 146.744639 -403.961818 
L 143.604565 -403.961818 
L 140.376593 -403.961818 
L 137.127404 -403.961818 
L 133.744852 -403.961818 
L 130.250156 -403.961818 
L 126.800924 -403.961818 
L 123.318351 -403.961818 
L 119.823654 -402.304374 
L 116.39867 -377.305822 
L 113.104016 -362.665598 
L 109.776022 -350.529345 
L 106.626855 -316.869838 
L 103.362511 -303.301939 
L 100.025425 -287.635627 
L 96.691369 -271.813259 
L 93.393685 -259.71041 
L 90.274827 -261.727744 
L 86.99836 -255.818882 
L 83.858285 -244.096193 
L 80.875821 -235.583472 
L 77.790304 -233.96716 
z
" style="stroke: #0000ff; stroke-opacity: 0.2"/>
    </defs>
    <g clip-path="url(#p1de0e8de65)">
     <use xlink:href="#m481674a991" x="0" y="432" style="fill: #0000ff; fill-opacity: 0.2; stroke: #0000ff; stroke-opacity: 0.2"/>
    </g>
   </g>
   <g id="FillBetweenPolyCollection_2">
    <defs>
     <path id="m0f09edbd17" d="M 77.787273 -222.008504 
L 77.787273 -67.591558 
L 80.830356 -71.535632 
L 83.952245 -70.077179 
L 86.977143 -74.056772 
L 90.108124 -67.998391 
L 93.293663 -69.41434 
L 96.351901 -73.153613 
L 99.437419 -80.008297 
L 102.607802 -73.053462 
L 105.672103 -66.827048 
L 108.763682 -71.966191 
L 111.924973 -72.810368 
L 115.113543 -84.90618 
L 118.250586 -82.243593 
L 121.248205 -74.822129 
L 124.373125 -77.832341 
L 127.498044 -75.534195 
L 130.650243 -76.913499 
L 133.83275 -65.793682 
L 136.994041 -75.531016 
L 140.100775 -74.523293 
L 143.259035 -70.465125 
L 146.520348 -77.892724 
L 149.642237 -68.337677 
L 152.730785 -80.967 
L 155.952695 -67.90776 
L 159.056398 -74.638256 
L 162.184348 -66.882188 
L 165.363825 -70.371637 
L 168.44328 -77.773643 
L 171.492426 -70.158939 
L 174.920441 -72.321334 
L 178.066578 -75.489535 
L 181.258178 -75.475567 
L 184.289138 -74.345 
L 187.347376 -74.998008 
L 190.581411 -75.24649 
L 193.766949 -70.874167 
L 196.876714 -71.493355 
L 200.044067 -73.083008 
L 203.229606 -76.498375 
L 206.272689 -74.771897 
L 209.473383 -71.048845 
L 212.695293 -82.121731 
L 215.880832 -76.703998 
L 218.990597 -68.520193 
L 222.118547 -61.81577 
L 225.204064 -78.304918 
L 228.228962 -76.244364 
L 231.47512 -76.738511 
L 234.448492 -76.87369 
L 237.579473 -70.683988 
L 240.931715 -72.471863 
L 244.120284 -72.120849 
L 247.23308 -72.134128 
L 250.506517 -73.33909 
L 253.48595 -69.976576 
L 256.604808 -65.41373 
L 259.796408 -82.640473 
L 262.942545 -67.890731 
L 266.24326 -68.778504 
L 269.33787 -76.0454 
L 272.529471 -77.58945 
L 275.466471 -67.9067 
L 278.521678 -85.55929 
L 281.761774 -75.845948 
L 284.956406 -67.589767 
L 288.069201 -76.125107 
L 291.315359 -75.783337 
L 294.528177 -74.308102 
L 297.671282 -76.791331 
L 300.774985 -76.534507 
L 303.912028 -75.369862 
L 307.176372 -76.784404 
L 310.407375 -78.357698 
L 313.462583 -77.795865 
L 316.726926 -74.615992 
L 319.933682 -69.210805 
L 323.185902 -76.593961 
L 326.398719 -72.110581 
L 329.456957 -65.936889 
L 332.660682 -73.263877 
L 335.809849 -71.033346 
L 338.913552 -82.888166 
L 342.044534 -66.616597 
L 345.151267 -66.130415 
L 348.291342 -68.412425 
L 351.492035 -74.877298 
L 354.53815 -65.20087 
L 357.799463 -73.100239 
L 360.778896 -68.833938 
L 363.937156 -77.908337 
L 367.192407 -78.123561 
L 370.177902 -77.000514 
L 373.248265 -65.842714 
L 376.45502 -64.492031 
L 379.48598 -71.145649 
L 382.601807 -63.639142 
L 385.808562 -70.566513 
L 388.978946 -65.847329 
L 392.109927 -72.592387 
L 395.3379 -61.199389 
L 398.435541 -67.6305 
L 401.4665 -71.407811 
L 404.488367 -67.737866 
L 407.52842 -77.182916 
L 410.774578 -73.60678 
L 414.044983 -64.765408 
L 417.106253 -71.909196 
L 420.28573 -75.420617 
L 423.50764 -74.166574 
L 426.723488 -79.9171 
L 429.88781 -69.870479 
L 432.991513 -68.900984 
L 436.01338 -69.39328 
L 439.047371 -64.917798 
L 442.23291 -64.879874 
L 445.263869 -78.949941 
L 448.279674 -71.011864 
L 451.447027 -71.203943 
L 454.477987 -72.322921 
L 457.630185 -78.340071 
L 460.852096 -69.676505 
L 463.913365 -69.903462 
L 467.126182 -73.189953 
L 470.317783 -74.944367 
L 473.400269 -66.325515 
L 476.397888 -71.558133 
L 479.531901 -64.166731 
L 482.59317 -69.026562 
L 485.721121 -69.165762 
L 488.927876 -76.077307 
L 491.828505 -71.109197 
L 494.868557 -70.572635 
L 498.008632 -65.866965 
L 501.115366 -70.488176 
L 504.355462 -70.356651 
L 507.434917 -66.892476 
L 510.499217 -78.371856 
L 513.772654 -78.854027 
L 517.061245 -71.983202 
L 520.286186 -68.094169 
L 523.52022 -89.302784 
L 526.64514 -78.954131 
L 529.657914 -64.926311 
L 532.716152 -68.223921 
L 535.886536 -71.500777 
L 539.011456 -73.265 
L 542.106066 -67.594189 
L 545.255233 -59.198182 
L 548.422586 -74.07953 
L 551.541444 -71.511075 
L 554.711828 -67.240419 
L 557.857964 -75.898492 
L 561.043503 -75.193743 
L 564.195701 -80.661914 
L 567.317589 -69.241608 
L 570.324302 -66.766032 
L 573.376478 -66.511508 
L 576.365004 -65.253032 
L 579.435367 -77.417818 
L 582.623936 -71.228208 
L 585.724608 -73.995593 
L 588.967735 -67.29309 
L 592.044159 -68.291144 
L 595.156955 -75.788807 
L 598.309153 -74.305015 
L 601.467413 -67.399693 
L 604.701448 -76.02686 
L 607.971853 -81.674295 
L 611.145268 -74.015088 
L 614.345962 -74.639333 
L 617.5315 -73.757981 
L 620.613986 -71.532521 
L 623.857113 -66.330115 
L 626.951723 -69.989797 
L 629.976621 -78.276212 
L 633.09851 -73.04281 
L 636.132501 -70.953779 
L 639.233173 -76.478664 
L 642.409618 -71.231898 
L 645.492104 -65.169551 
L 648.717046 -71.278299 
L 651.848027 -69.704668 
L 654.963854 -69.837936 
L 658.228198 -78.768044 
L 661.334931 -66.489118 
L 664.432572 -78.721985 
L 667.599925 -73.607668 
L 670.785464 -73.824751 
L 673.89826 -72.910705 
L 677.132294 -72.595352 
L 677.132294 -223.848626 
L 677.132294 -223.848626 
L 673.89826 -223.409588 
L 670.785464 -222.206944 
L 667.599925 -226.175812 
L 664.432572 -226.173818 
L 661.334931 -228.264495 
L 658.228198 -234.497126 
L 654.963854 -215.474372 
L 651.848027 -229.048101 
L 648.717046 -230.236773 
L 645.492104 -221.132238 
L 642.409618 -227.108587 
L 639.233173 -226.974145 
L 636.132501 -224.335804 
L 633.09851 -224.720478 
L 629.976621 -218.08531 
L 626.951723 -220.599747 
L 623.857113 -226.114708 
L 620.613986 -226.024625 
L 617.5315 -218.150873 
L 614.345962 -216.156354 
L 611.145268 -221.439409 
L 607.971853 -232.621585 
L 604.701448 -219.881149 
L 601.467413 -228.632001 
L 598.309153 -221.067024 
L 595.156955 -226.42715 
L 592.044159 -213.393063 
L 588.967735 -220.616607 
L 585.724608 -219.232569 
L 582.623936 -227.854389 
L 579.435367 -220.427927 
L 576.365004 -220.718929 
L 573.376478 -214.10076 
L 570.324302 -212.362014 
L 567.317589 -226.41903 
L 564.195701 -232.232201 
L 561.043503 -222.69323 
L 557.857964 -223.142877 
L 554.711828 -228.255305 
L 551.541444 -221.181118 
L 548.422586 -223.972357 
L 545.255233 -214.199114 
L 542.106066 -225.881343 
L 539.011456 -230.517635 
L 535.886536 -225.273028 
L 532.716152 -223.684933 
L 529.657914 -223.148299 
L 526.64514 -228.374148 
L 523.52022 -227.920314 
L 520.286186 -222.248004 
L 517.061245 -227.264308 
L 513.772654 -229.092679 
L 510.499217 -234.068747 
L 507.434917 -226.335686 
L 504.355462 -224.72679 
L 501.115366 -220.142597 
L 498.008632 -227.319969 
L 494.868557 -221.418675 
L 491.828505 -225.004954 
L 488.927876 -220.201758 
L 485.721121 -218.579021 
L 482.59317 -221.35684 
L 479.531901 -222.671028 
L 476.397888 -227.730605 
L 473.400269 -221.13067 
L 470.317783 -225.045255 
L 467.126182 -226.469842 
L 463.913365 -226.9528 
L 460.852096 -223.345515 
L 457.630185 -223.99957 
L 454.477987 -222.100865 
L 451.447027 -222.230361 
L 448.279674 -229.884783 
L 445.263869 -219.802829 
L 442.23291 -214.660456 
L 439.047371 -222.002417 
L 436.01338 -226.514729 
L 432.991513 -227.37808 
L 429.88781 -224.429622 
L 426.723488 -217.475132 
L 423.50764 -227.224814 
L 420.28573 -222.63127 
L 417.106253 -229.647106 
L 414.044983 -220.134615 
L 410.774578 -222.672285 
L 407.52842 -217.941754 
L 404.488367 -230.520163 
L 401.4665 -220.83087 
L 398.435541 -217.475665 
L 395.3379 -211.826851 
L 392.109927 -227.850748 
L 388.978946 -214.146513 
L 385.808562 -226.908176 
L 382.601807 -214.705564 
L 379.48598 -215.15614 
L 376.45502 -222.922925 
L 373.248265 -220.08802 
L 370.177902 -227.89529 
L 367.192407 -232.338078 
L 363.937156 -221.009347 
L 360.778896 -228.063553 
L 357.799463 -234.557867 
L 354.53815 -214.215775 
L 351.492035 -221.896508 
L 348.291342 -225.722763 
L 345.151267 -221.82051 
L 342.044534 -215.562351 
L 338.913552 -233.386679 
L 335.809849 -219.350055 
L 332.660682 -230.312617 
L 329.456957 -223.498259 
L 326.398719 -219.798272 
L 323.185902 -225.086025 
L 319.933682 -222.285764 
L 316.726926 -220.714819 
L 313.462583 -221.781473 
L 310.407375 -236.350468 
L 307.176372 -232.605296 
L 303.912028 -226.928551 
L 300.774985 -224.527053 
L 297.671282 -229.17641 
L 294.528177 -226.011347 
L 291.315359 -228.287897 
L 288.069201 -226.997874 
L 284.956406 -217.598855 
L 281.761774 -225.504212 
L 278.521678 -233.725229 
L 275.466471 -229.361846 
L 272.529471 -224.214222 
L 269.33787 -223.779308 
L 266.24326 -215.58555 
L 262.942545 -226.450598 
L 259.796408 -225.429918 
L 256.604808 -219.609978 
L 253.48595 -221.932277 
L 250.506517 -226.238248 
L 247.23308 -224.103708 
L 244.120284 -226.178408 
L 240.931715 -226.734419 
L 237.579473 -225.595077 
L 234.448492 -223.198388 
L 231.47512 -222.797598 
L 228.228962 -221.889979 
L 225.204064 -228.528621 
L 222.118547 -214.385059 
L 218.990597 -223.512345 
L 215.880832 -230.088312 
L 212.695293 -232.215378 
L 209.473383 -221.84949 
L 206.272689 -227.773886 
L 203.229606 -224.686871 
L 200.044067 -221.134636 
L 196.876714 -227.176958 
L 193.766949 -218.519753 
L 190.581411 -222.393112 
L 187.347376 -223.26002 
L 184.289138 -225.520936 
L 181.258178 -222.617548 
L 178.066578 -225.159741 
L 174.920441 -204.621605 
L 171.492426 -221.708686 
L 168.44328 -215.248378 
L 165.363825 -223.887235 
L 162.184348 -222.635417 
L 159.056398 -231.247029 
L 155.952695 -220.661591 
L 152.730785 -237.657864 
L 149.642237 -219.57202 
L 146.520348 -225.106572 
L 143.259035 -214.92964 
L 140.100775 -230.743566 
L 136.994041 -222.768241 
L 133.83275 -223.847609 
L 130.650243 -227.075279 
L 127.498044 -226.269477 
L 124.373125 -226.939777 
L 121.248205 -231.021928 
L 118.250586 -229.619811 
L 115.113543 -233.636227 
L 111.924973 -228.82839 
L 108.763682 -225.426042 
L 105.672103 -214.774702 
L 102.607802 -224.132628 
L 99.437419 -230.659484 
L 96.351901 -219.373667 
L 93.293663 -218.619042 
L 90.108124 -222.302555 
L 86.977143 -222.345978 
L 83.952245 -231.726493 
L 80.830356 -223.50658 
L 77.787273 -222.008504 
z
" style="stroke: #ffa500; stroke-opacity: 0.2"/>
    </defs>
    <g clip-path="url(#p1de0e8de65)">
     <use xlink:href="#m0f09edbd17" x="0" y="432" style="fill: #ffa500; fill-opacity: 0.2; stroke: #ffa500; stroke-opacity: 0.2"/>
    </g>
   </g>
   <g id="matplotlib.axis_1">
    <g id="xtick_1">
     <g id="line2d_1">
      <path d="M 76.247545 390.04 
L 76.247545 10.8 
" clip-path="url(#p1de0e8de65)" style="fill: none; stroke: #b0b0b0; stroke-width: 0.8; stroke-linecap: square"/>
     </g>
     <g id="line2d_2">
      <defs>
       <path id="m85c4c2b8c4" d="M 0 0 
L 0 3.5 
" style="stroke: #000000; stroke-width: 0.8"/>
      </defs>
      <g>
       <use xlink:href="#m85c4c2b8c4" x="76.247545" y="390.04" style="stroke: #000000; stroke-width: 0.8"/>
      </g>
     </g>
     <g id="text_1">
      <!-- 0 -->
      <g transform="translate(73.066295 404.638438) scale(0.1 -0.1)">
       <defs>
        <path id="DejaVuSans-30" d="M 2034 4250 
Q 1547 4250 1301 3770 
Q 1056 3291 1056 2328 
Q 1056 1369 1301 889 
Q 1547 409 2034 409 
Q 2525 409 2770 889 
Q 3016 1369 3016 2328 
Q 3016 3291 2770 3770 
Q 2525 4250 2034 4250 
z
M 2034 4750 
Q 2819 4750 3233 4129 
Q 3647 3509 3647 2328 
Q 3647 1150 3233 529 
Q 2819 -91 2034 -91 
Q 1250 -91 836 529 
Q 422 1150 422 2328 
Q 422 3509 836 4129 
Q 1250 4750 2034 4750 
z
" transform="scale(0.015625)"/>
       </defs>
       <use xlink:href="#DejaVuSans-30"/>
      </g>
     </g>
    </g>
    <g id="xtick_2">
     <g id="line2d_3">
      <path d="M 152.02154 390.04 
L 152.02154 10.8 
" clip-path="url(#p1de0e8de65)" style="fill: none; stroke: #b0b0b0; stroke-width: 0.8; stroke-linecap: square"/>
     </g>
     <g id="line2d_4">
      <g>
       <use xlink:href="#m85c4c2b8c4" x="152.02154" y="390.04" style="stroke: #000000; stroke-width: 0.8"/>
      </g>
     </g>
     <g id="text_2">
      <!-- 25000 -->
      <g transform="translate(136.11529 404.638438) scale(0.1 -0.1)">
       <defs>
        <path id="DejaVuSans-32" d="M 1228 531 
L 3431 531 
L 3431 0 
L 469 0 
L 469 531 
Q 828 903 1448 1529 
Q 2069 2156 2228 2338 
Q 2531 2678 2651 2914 
Q 2772 3150 2772 3378 
Q 2772 3750 2511 3984 
Q 2250 4219 1831 4219 
Q 1534 4219 1204 4116 
Q 875 4013 500 3803 
L 500 4441 
Q 881 4594 1212 4672 
Q 1544 4750 1819 4750 
Q 2544 4750 2975 4387 
Q 3406 4025 3406 3419 
Q 3406 3131 3298 2873 
Q 3191 2616 2906 2266 
Q 2828 2175 2409 1742 
Q 1991 1309 1228 531 
z
" transform="scale(0.015625)"/>
        <path id="DejaVuSans-35" d="M 691 4666 
L 3169 4666 
L 3169 4134 
L 1269 4134 
L 1269 2991 
Q 1406 3038 1543 3061 
Q 1681 3084 1819 3084 
Q 2600 3084 3056 2656 
Q 3513 2228 3513 1497 
Q 3513 744 3044 326 
Q 2575 -91 1722 -91 
Q 1428 -91 1123 -41 
Q 819 9 494 109 
L 494 744 
Q 775 591 1075 516 
Q 1375 441 1709 441 
Q 2250 441 2565 725 
Q 2881 1009 2881 1497 
Q 2881 1984 2565 2268 
Q 2250 2553 1709 2553 
Q 1456 2553 1204 2497 
Q 953 2441 691 2322 
L 691 4666 
z
" transform="scale(0.015625)"/>
       </defs>
       <use xlink:href="#DejaVuSans-32"/>
       <use xlink:href="#DejaVuSans-35" transform="translate(63.623047 0)"/>
       <use xlink:href="#DejaVuSans-30" transform="translate(127.246094 0)"/>
       <use xlink:href="#DejaVuSans-30" transform="translate(190.869141 0)"/>
       <use xlink:href="#DejaVuSans-30" transform="translate(254.492188 0)"/>
      </g>
     </g>
    </g>
    <g id="xtick_3">
     <g id="line2d_5">
      <path d="M 227.795535 390.04 
L 227.795535 10.8 
" clip-path="url(#p1de0e8de65)" style="fill: none; stroke: #b0b0b0; stroke-width: 0.8; stroke-linecap: square"/>
     </g>
     <g id="line2d_6">
      <g>
       <use xlink:href="#m85c4c2b8c4" x="227.795535" y="390.04" style="stroke: #000000; stroke-width: 0.8"/>
      </g>
     </g>
     <g id="text_3">
      <!-- 50000 -->
      <g transform="translate(211.889285 404.638438) scale(0.1 -0.1)">
       <use xlink:href="#DejaVuSans-35"/>
       <use xlink:href="#DejaVuSans-30" transform="translate(63.623047 0)"/>
       <use xlink:href="#DejaVuSans-30" transform="translate(127.246094 0)"/>
       <use xlink:href="#DejaVuSans-30" transform="translate(190.869141 0)"/>
       <use xlink:href="#DejaVuSans-30" transform="translate(254.492188 0)"/>
      </g>
     </g>
    </g>
    <g id="xtick_4">
     <g id="line2d_7">
      <path d="M 303.56953 390.04 
L 303.56953 10.8 
" clip-path="url(#p1de0e8de65)" style="fill: none; stroke: #b0b0b0; stroke-width: 0.8; stroke-linecap: square"/>
     </g>
     <g id="line2d_8">
      <g>
       <use xlink:href="#m85c4c2b8c4" x="303.56953" y="390.04" style="stroke: #000000; stroke-width: 0.8"/>
      </g>
     </g>
     <g id="text_4">
      <!-- 75000 -->
      <g transform="translate(287.66328 404.638438) scale(0.1 -0.1)">
       <defs>
        <path id="DejaVuSans-37" d="M 525 4666 
L 3525 4666 
L 3525 4397 
L 1831 0 
L 1172 0 
L 2766 4134 
L 525 4134 
L 525 4666 
z
" transform="scale(0.015625)"/>
       </defs>
       <use xlink:href="#DejaVuSans-37"/>
       <use xlink:href="#DejaVuSans-35" transform="translate(63.623047 0)"/>
       <use xlink:href="#DejaVuSans-30" transform="translate(127.246094 0)"/>
       <use xlink:href="#DejaVuSans-30" transform="translate(190.869141 0)"/>
       <use xlink:href="#DejaVuSans-30" transform="translate(254.492188 0)"/>
      </g>
     </g>
    </g>
    <g id="xtick_5">
     <g id="line2d_9">
      <path d="M 379.343525 390.04 
L 379.343525 10.8 
" clip-path="url(#p1de0e8de65)" style="fill: none; stroke: #b0b0b0; stroke-width: 0.8; stroke-linecap: square"/>
     </g>
     <g id="line2d_10">
      <g>
       <use xlink:href="#m85c4c2b8c4" x="379.343525" y="390.04" style="stroke: #000000; stroke-width: 0.8"/>
      </g>
     </g>
     <g id="text_5">
      <!-- 100000 -->
      <g transform="translate(360.256025 404.638438) scale(0.1 -0.1)">
       <defs>
        <path id="DejaVuSans-31" d="M 794 531 
L 1825 531 
L 1825 4091 
L 703 3866 
L 703 4441 
L 1819 4666 
L 2450 4666 
L 2450 531 
L 3481 531 
L 3481 0 
L 794 0 
L 794 531 
z
" transform="scale(0.015625)"/>
       </defs>
       <use xlink:href="#DejaVuSans-31"/>
       <use xlink:href="#DejaVuSans-30" transform="translate(63.623047 0)"/>
       <use xlink:href="#DejaVuSans-30" transform="translate(127.246094 0)"/>
       <use xlink:href="#DejaVuSans-30" transform="translate(190.869141 0)"/>
       <use xlink:href="#DejaVuSans-30" transform="translate(254.492188 0)"/>
       <use xlink:href="#DejaVuSans-30" transform="translate(318.115234 0)"/>
      </g>
     </g>
    </g>
    <g id="xtick_6">
     <g id="line2d_11">
      <path d="M 455.11752 390.04 
L 455.11752 10.8 
" clip-path="url(#p1de0e8de65)" style="fill: none; stroke: #b0b0b0; stroke-width: 0.8; stroke-linecap: square"/>
     </g>
     <g id="line2d_12">
      <g>
       <use xlink:href="#m85c4c2b8c4" x="455.11752" y="390.04" style="stroke: #000000; stroke-width: 0.8"/>
      </g>
     </g>
     <g id="text_6">
      <!-- 125000 -->
      <g transform="translate(436.03002 404.638438) scale(0.1 -0.1)">
       <use xlink:href="#DejaVuSans-31"/>
       <use xlink:href="#DejaVuSans-32" transform="translate(63.623047 0)"/>
       <use xlink:href="#DejaVuSans-35" transform="translate(127.246094 0)"/>
       <use xlink:href="#DejaVuSans-30" transform="translate(190.869141 0)"/>
       <use xlink:href="#DejaVuSans-30" transform="translate(254.492188 0)"/>
       <use xlink:href="#DejaVuSans-30" transform="translate(318.115234 0)"/>
      </g>
     </g>
    </g>
    <g id="xtick_7">
     <g id="line2d_13">
      <path d="M 530.891515 390.04 
L 530.891515 10.8 
" clip-path="url(#p1de0e8de65)" style="fill: none; stroke: #b0b0b0; stroke-width: 0.8; stroke-linecap: square"/>
     </g>
     <g id="line2d_14">
      <g>
       <use xlink:href="#m85c4c2b8c4" x="530.891515" y="390.04" style="stroke: #000000; stroke-width: 0.8"/>
      </g>
     </g>
     <g id="text_7">
      <!-- 150000 -->
      <g transform="translate(511.804015 404.638438) scale(0.1 -0.1)">
       <use xlink:href="#DejaVuSans-31"/>
       <use xlink:href="#DejaVuSans-35" transform="translate(63.623047 0)"/>
       <use xlink:href="#DejaVuSans-30" transform="translate(127.246094 0)"/>
       <use xlink:href="#DejaVuSans-30" transform="translate(190.869141 0)"/>
       <use xlink:href="#DejaVuSans-30" transform="translate(254.492188 0)"/>
       <use xlink:href="#DejaVuSans-30" transform="translate(318.115234 0)"/>
      </g>
     </g>
    </g>
    <g id="xtick_8">
     <g id="line2d_15">
      <path d="M 606.66551 390.04 
L 606.66551 10.8 
" clip-path="url(#p1de0e8de65)" style="fill: none; stroke: #b0b0b0; stroke-width: 0.8; stroke-linecap: square"/>
     </g>
     <g id="line2d_16">
      <g>
       <use xlink:href="#m85c4c2b8c4" x="606.66551" y="390.04" style="stroke: #000000; stroke-width: 0.8"/>
      </g>
     </g>
     <g id="text_8">
      <!-- 175000 -->
      <g transform="translate(587.57801 404.638438) scale(0.1 -0.1)">
       <use xlink:href="#DejaVuSans-31"/>
       <use xlink:href="#DejaVuSans-37" transform="translate(63.623047 0)"/>
       <use xlink:href="#DejaVuSans-35" transform="translate(127.246094 0)"/>
       <use xlink:href="#DejaVuSans-30" transform="translate(190.869141 0)"/>
       <use xlink:href="#DejaVuSans-30" transform="translate(254.492188 0)"/>
       <use xlink:href="#DejaVuSans-30" transform="translate(318.115234 0)"/>
      </g>
     </g>
    </g>
    <g id="xtick_9">
     <g id="line2d_17">
      <path d="M 682.439504 390.04 
L 682.439504 10.8 
" clip-path="url(#p1de0e8de65)" style="fill: none; stroke: #b0b0b0; stroke-width: 0.8; stroke-linecap: square"/>
     </g>
     <g id="line2d_18">
      <g>
       <use xlink:href="#m85c4c2b8c4" x="682.439504" y="390.04" style="stroke: #000000; stroke-width: 0.8"/>
      </g>
     </g>
     <g id="text_9">
      <!-- 200000 -->
      <g transform="translate(663.352004 404.638438) scale(0.1 -0.1)">
       <use xlink:href="#DejaVuSans-32"/>
       <use xlink:href="#DejaVuSans-30" transform="translate(63.623047 0)"/>
       <use xlink:href="#DejaVuSans-30" transform="translate(127.246094 0)"/>
       <use xlink:href="#DejaVuSans-30" transform="translate(190.869141 0)"/>
       <use xlink:href="#DejaVuSans-30" transform="translate(254.492188 0)"/>
       <use xlink:href="#DejaVuSans-30" transform="translate(318.115234 0)"/>
      </g>
     </g>
    </g>
    <g id="text_10">
     <!-- Steps -->
     <g transform="translate(364.470156 418.316562) scale(0.1 -0.1)">
      <defs>
       <path id="DejaVuSans-53" d="M 3425 4513 
L 3425 3897 
Q 3066 4069 2747 4153 
Q 2428 4238 2131 4238 
Q 1616 4238 1336 4038 
Q 1056 3838 1056 3469 
Q 1056 3159 1242 3001 
Q 1428 2844 1947 2747 
L 2328 2669 
Q 3034 2534 3370 2195 
Q 3706 1856 3706 1288 
Q 3706 609 3251 259 
Q 2797 -91 1919 -91 
Q 1588 -91 1214 -16 
Q 841 59 441 206 
L 441 856 
Q 825 641 1194 531 
Q 1563 422 1919 422 
Q 2459 422 2753 634 
Q 3047 847 3047 1241 
Q 3047 1584 2836 1778 
Q 2625 1972 2144 2069 
L 1759 2144 
Q 1053 2284 737 2584 
Q 422 2884 422 3419 
Q 422 4038 858 4394 
Q 1294 4750 2059 4750 
Q 2388 4750 2728 4690 
Q 3069 4631 3425 4513 
z
" transform="scale(0.015625)"/>
       <path id="DejaVuSans-74" d="M 1172 4494 
L 1172 3500 
L 2356 3500 
L 2356 3053 
L 1172 3053 
L 1172 1153 
Q 1172 725 1289 603 
Q 1406 481 1766 481 
L 2356 481 
L 2356 0 
L 1766 0 
Q 1100 0 847 248 
Q 594 497 594 1153 
L 594 3053 
L 172 3053 
L 172 3500 
L 594 3500 
L 594 4494 
L 1172 4494 
z
" transform="scale(0.015625)"/>
       <path id="DejaVuSans-65" d="M 3597 1894 
L 3597 1613 
L 953 1613 
Q 991 1019 1311 708 
Q 1631 397 2203 397 
Q 2534 397 2845 478 
Q 3156 559 3463 722 
L 3463 178 
Q 3153 47 2828 -22 
Q 2503 -91 2169 -91 
Q 1331 -91 842 396 
Q 353 884 353 1716 
Q 353 2575 817 3079 
Q 1281 3584 2069 3584 
Q 2775 3584 3186 3129 
Q 3597 2675 3597 1894 
z
M 3022 2063 
Q 3016 2534 2758 2815 
Q 2500 3097 2075 3097 
Q 1594 3097 1305 2825 
Q 1016 2553 972 2059 
L 3022 2063 
z
" transform="scale(0.015625)"/>
       <path id="DejaVuSans-70" d="M 1159 525 
L 1159 -1331 
L 581 -1331 
L 581 3500 
L 1159 3500 
L 1159 2969 
Q 1341 3281 1617 3432 
Q 1894 3584 2278 3584 
Q 2916 3584 3314 3078 
Q 3713 2572 3713 1747 
Q 3713 922 3314 415 
Q 2916 -91 2278 -91 
Q 1894 -91 1617 61 
Q 1341 213 1159 525 
z
M 3116 1747 
Q 3116 2381 2855 2742 
Q 2594 3103 2138 3103 
Q 1681 3103 1420 2742 
Q 1159 2381 1159 1747 
Q 1159 1113 1420 752 
Q 1681 391 2138 391 
Q 2594 391 2855 752 
Q 3116 1113 3116 1747 
z
" transform="scale(0.015625)"/>
       <path id="DejaVuSans-73" d="M 2834 3397 
L 2834 2853 
Q 2591 2978 2328 3040 
Q 2066 3103 1784 3103 
Q 1356 3103 1142 2972 
Q 928 2841 928 2578 
Q 928 2378 1081 2264 
Q 1234 2150 1697 2047 
L 1894 2003 
Q 2506 1872 2764 1633 
Q 3022 1394 3022 966 
Q 3022 478 2636 193 
Q 2250 -91 1575 -91 
Q 1294 -91 989 -36 
Q 684 19 347 128 
L 347 722 
Q 666 556 975 473 
Q 1284 391 1588 391 
Q 1994 391 2212 530 
Q 2431 669 2431 922 
Q 2431 1156 2273 1281 
Q 2116 1406 1581 1522 
L 1381 1569 
Q 847 1681 609 1914 
Q 372 2147 372 2553 
Q 372 3047 722 3315 
Q 1072 3584 1716 3584 
Q 2034 3584 2315 3537 
Q 2597 3491 2834 3397 
z
" transform="scale(0.015625)"/>
      </defs>
      <use xlink:href="#DejaVuSans-53"/>
      <use xlink:href="#DejaVuSans-74" transform="translate(63.476562 0)"/>
      <use xlink:href="#DejaVuSans-65" transform="translate(102.685547 0)"/>
      <use xlink:href="#DejaVuSans-70" transform="translate(164.208984 0)"/>
      <use xlink:href="#DejaVuSans-73" transform="translate(227.685547 0)"/>
     </g>
    </g>
   </g>
   <g id="matplotlib.axis_2">
    <g id="ytick_1">
     <g id="line2d_19">
      <path d="M 47.72 361.988315 
L 709.2 361.988315 
" clip-path="url(#p1de0e8de65)" style="fill: none; stroke: #b0b0b0; stroke-width: 0.8; stroke-linecap: square"/>
     </g>
     <g id="line2d_20">
      <defs>
       <path id="m1133b21b3a" d="M 0 0 
L -3.5 0 
" style="stroke: #000000; stroke-width: 0.8"/>
      </defs>
      <g>
       <use xlink:href="#m1133b21b3a" x="47.72" y="361.988315" style="stroke: #000000; stroke-width: 0.8"/>
      </g>
     </g>
     <g id="text_11">
      <!-- 0.4 -->
      <g transform="translate(24.816875 365.787534) scale(0.1 -0.1)">
       <defs>
        <path id="DejaVuSans-2e" d="M 684 794 
L 1344 794 
L 1344 0 
L 684 0 
L 684 794 
z
" transform="scale(0.015625)"/>
        <path id="DejaVuSans-34" d="M 2419 4116 
L 825 1625 
L 2419 1625 
L 2419 4116 
z
M 2253 4666 
L 3047 4666 
L 3047 1625 
L 3713 1625 
L 3713 1100 
L 3047 1100 
L 3047 0 
L 2419 0 
L 2419 1100 
L 313 1100 
L 313 1709 
L 2253 4666 
z
" transform="scale(0.015625)"/>
       </defs>
       <use xlink:href="#DejaVuSans-30"/>
       <use xlink:href="#DejaVuSans-2e" transform="translate(63.623047 0)"/>
       <use xlink:href="#DejaVuSans-34" transform="translate(95.410156 0)"/>
      </g>
     </g>
    </g>
    <g id="ytick_2">
     <g id="line2d_21">
      <path d="M 47.72 306.32996 
L 709.2 306.32996 
" clip-path="url(#p1de0e8de65)" style="fill: none; stroke: #b0b0b0; stroke-width: 0.8; stroke-linecap: square"/>
     </g>
     <g id="line2d_22">
      <g>
       <use xlink:href="#m1133b21b3a" x="47.72" y="306.32996" style="stroke: #000000; stroke-width: 0.8"/>
      </g>
     </g>
     <g id="text_12">
      <!-- 0.5 -->
      <g transform="translate(24.816875 310.129178) scale(0.1 -0.1)">
       <use xlink:href="#DejaVuSans-30"/>
       <use xlink:href="#DejaVuSans-2e" transform="translate(63.623047 0)"/>
       <use xlink:href="#DejaVuSans-35" transform="translate(95.410156 0)"/>
      </g>
     </g>
    </g>
    <g id="ytick_3">
     <g id="line2d_23">
      <path d="M 47.72 250.671604 
L 709.2 250.671604 
" clip-path="url(#p1de0e8de65)" style="fill: none; stroke: #b0b0b0; stroke-width: 0.8; stroke-linecap: square"/>
     </g>
     <g id="line2d_24">
      <g>
       <use xlink:href="#m1133b21b3a" x="47.72" y="250.671604" style="stroke: #000000; stroke-width: 0.8"/>
      </g>
     </g>
     <g id="text_13">
      <!-- 0.6 -->
      <g transform="translate(24.816875 254.470823) scale(0.1 -0.1)">
       <defs>
        <path id="DejaVuSans-36" d="M 2113 2584 
Q 1688 2584 1439 2293 
Q 1191 2003 1191 1497 
Q 1191 994 1439 701 
Q 1688 409 2113 409 
Q 2538 409 2786 701 
Q 3034 994 3034 1497 
Q 3034 2003 2786 2293 
Q 2538 2584 2113 2584 
z
M 3366 4563 
L 3366 3988 
Q 3128 4100 2886 4159 
Q 2644 4219 2406 4219 
Q 1781 4219 1451 3797 
Q 1122 3375 1075 2522 
Q 1259 2794 1537 2939 
Q 1816 3084 2150 3084 
Q 2853 3084 3261 2657 
Q 3669 2231 3669 1497 
Q 3669 778 3244 343 
Q 2819 -91 2113 -91 
Q 1303 -91 875 529 
Q 447 1150 447 2328 
Q 447 3434 972 4092 
Q 1497 4750 2381 4750 
Q 2619 4750 2861 4703 
Q 3103 4656 3366 4563 
z
" transform="scale(0.015625)"/>
       </defs>
       <use xlink:href="#DejaVuSans-30"/>
       <use xlink:href="#DejaVuSans-2e" transform="translate(63.623047 0)"/>
       <use xlink:href="#DejaVuSans-36" transform="translate(95.410156 0)"/>
      </g>
     </g>
    </g>
    <g id="ytick_4">
     <g id="line2d_25">
      <path d="M 47.72 195.013249 
L 709.2 195.013249 
" clip-path="url(#p1de0e8de65)" style="fill: none; stroke: #b0b0b0; stroke-width: 0.8; stroke-linecap: square"/>
     </g>
     <g id="line2d_26">
      <g>
       <use xlink:href="#m1133b21b3a" x="47.72" y="195.013249" style="stroke: #000000; stroke-width: 0.8"/>
      </g>
     </g>
     <g id="text_14">
      <!-- 0.7 -->
      <g transform="translate(24.816875 198.812467) scale(0.1 -0.1)">
       <use xlink:href="#DejaVuSans-30"/>
       <use xlink:href="#DejaVuSans-2e" transform="translate(63.623047 0)"/>
       <use xlink:href="#DejaVuSans-37" transform="translate(95.410156 0)"/>
      </g>
     </g>
    </g>
    <g id="ytick_5">
     <g id="line2d_27">
      <path d="M 47.72 139.354893 
L 709.2 139.354893 
" clip-path="url(#p1de0e8de65)" style="fill: none; stroke: #b0b0b0; stroke-width: 0.8; stroke-linecap: square"/>
     </g>
     <g id="line2d_28">
      <g>
       <use xlink:href="#m1133b21b3a" x="47.72" y="139.354893" style="stroke: #000000; stroke-width: 0.8"/>
      </g>
     </g>
     <g id="text_15">
      <!-- 0.8 -->
      <g transform="translate(24.816875 143.154112) scale(0.1 -0.1)">
       <defs>
        <path id="DejaVuSans-38" d="M 2034 2216 
Q 1584 2216 1326 1975 
Q 1069 1734 1069 1313 
Q 1069 891 1326 650 
Q 1584 409 2034 409 
Q 2484 409 2743 651 
Q 3003 894 3003 1313 
Q 3003 1734 2745 1975 
Q 2488 2216 2034 2216 
z
M 1403 2484 
Q 997 2584 770 2862 
Q 544 3141 544 3541 
Q 544 4100 942 4425 
Q 1341 4750 2034 4750 
Q 2731 4750 3128 4425 
Q 3525 4100 3525 3541 
Q 3525 3141 3298 2862 
Q 3072 2584 2669 2484 
Q 3125 2378 3379 2068 
Q 3634 1759 3634 1313 
Q 3634 634 3220 271 
Q 2806 -91 2034 -91 
Q 1263 -91 848 271 
Q 434 634 434 1313 
Q 434 1759 690 2068 
Q 947 2378 1403 2484 
z
M 1172 3481 
Q 1172 3119 1398 2916 
Q 1625 2713 2034 2713 
Q 2441 2713 2670 2916 
Q 2900 3119 2900 3481 
Q 2900 3844 2670 4047 
Q 2441 4250 2034 4250 
Q 1625 4250 1398 4047 
Q 1172 3844 1172 3481 
z
" transform="scale(0.015625)"/>
       </defs>
       <use xlink:href="#DejaVuSans-30"/>
       <use xlink:href="#DejaVuSans-2e" transform="translate(63.623047 0)"/>
       <use xlink:href="#DejaVuSans-38" transform="translate(95.410156 0)"/>
      </g>
     </g>
    </g>
    <g id="ytick_6">
     <g id="line2d_29">
      <path d="M 47.72 83.696537 
L 709.2 83.696537 
" clip-path="url(#p1de0e8de65)" style="fill: none; stroke: #b0b0b0; stroke-width: 0.8; stroke-linecap: square"/>
     </g>
     <g id="line2d_30">
      <g>
       <use xlink:href="#m1133b21b3a" x="47.72" y="83.696537" style="stroke: #000000; stroke-width: 0.8"/>
      </g>
     </g>
     <g id="text_16">
      <!-- 0.9 -->
      <g transform="translate(24.816875 87.495756) scale(0.1 -0.1)">
       <defs>
        <path id="DejaVuSans-39" d="M 703 97 
L 703 672 
Q 941 559 1184 500 
Q 1428 441 1663 441 
Q 2288 441 2617 861 
Q 2947 1281 2994 2138 
Q 2813 1869 2534 1725 
Q 2256 1581 1919 1581 
Q 1219 1581 811 2004 
Q 403 2428 403 3163 
Q 403 3881 828 4315 
Q 1253 4750 1959 4750 
Q 2769 4750 3195 4129 
Q 3622 3509 3622 2328 
Q 3622 1225 3098 567 
Q 2575 -91 1691 -91 
Q 1453 -91 1209 -44 
Q 966 3 703 97 
z
M 1959 2075 
Q 2384 2075 2632 2365 
Q 2881 2656 2881 3163 
Q 2881 3666 2632 3958 
Q 2384 4250 1959 4250 
Q 1534 4250 1286 3958 
Q 1038 3666 1038 3163 
Q 1038 2656 1286 2365 
Q 1534 2075 1959 2075 
z
" transform="scale(0.015625)"/>
       </defs>
       <use xlink:href="#DejaVuSans-30"/>
       <use xlink:href="#DejaVuSans-2e" transform="translate(63.623047 0)"/>
       <use xlink:href="#DejaVuSans-39" transform="translate(95.410156 0)"/>
      </g>
     </g>
    </g>
    <g id="ytick_7">
     <g id="line2d_31">
      <path d="M 47.72 28.038182 
L 709.2 28.038182 
" clip-path="url(#p1de0e8de65)" style="fill: none; stroke: #b0b0b0; stroke-width: 0.8; stroke-linecap: square"/>
     </g>
     <g id="line2d_32">
      <g>
       <use xlink:href="#m1133b21b3a" x="47.72" y="28.038182" style="stroke: #000000; stroke-width: 0.8"/>
      </g>
     </g>
     <g id="text_17">
      <!-- 1.0 -->
      <g transform="translate(24.816875 31.837401) scale(0.1 -0.1)">
       <use xlink:href="#DejaVuSans-31"/>
       <use xlink:href="#DejaVuSans-2e" transform="translate(63.623047 0)"/>
       <use xlink:href="#DejaVuSans-30" transform="translate(95.410156 0)"/>
      </g>
     </g>
    </g>
    <g id="text_18">
     <!-- Accuracy -->
     <g transform="translate(18.737188 223.248125) rotate(-90) scale(0.1 -0.1)">
      <defs>
       <path id="DejaVuSans-41" d="M 2188 4044 
L 1331 1722 
L 3047 1722 
L 2188 4044 
z
M 1831 4666 
L 2547 4666 
L 4325 0 
L 3669 0 
L 3244 1197 
L 1141 1197 
L 716 0 
L 50 0 
L 1831 4666 
z
" transform="scale(0.015625)"/>
       <path id="DejaVuSans-63" d="M 3122 3366 
L 3122 2828 
Q 2878 2963 2633 3030 
Q 2388 3097 2138 3097 
Q 1578 3097 1268 2742 
Q 959 2388 959 1747 
Q 959 1106 1268 751 
Q 1578 397 2138 397 
Q 2388 397 2633 464 
Q 2878 531 3122 666 
L 3122 134 
Q 2881 22 2623 -34 
Q 2366 -91 2075 -91 
Q 1284 -91 818 406 
Q 353 903 353 1747 
Q 353 2603 823 3093 
Q 1294 3584 2113 3584 
Q 2378 3584 2631 3529 
Q 2884 3475 3122 3366 
z
" transform="scale(0.015625)"/>
       <path id="DejaVuSans-75" d="M 544 1381 
L 544 3500 
L 1119 3500 
L 1119 1403 
Q 1119 906 1312 657 
Q 1506 409 1894 409 
Q 2359 409 2629 706 
Q 2900 1003 2900 1516 
L 2900 3500 
L 3475 3500 
L 3475 0 
L 2900 0 
L 2900 538 
Q 2691 219 2414 64 
Q 2138 -91 1772 -91 
Q 1169 -91 856 284 
Q 544 659 544 1381 
z
M 1991 3584 
L 1991 3584 
z
" transform="scale(0.015625)"/>
       <path id="DejaVuSans-72" d="M 2631 2963 
Q 2534 3019 2420 3045 
Q 2306 3072 2169 3072 
Q 1681 3072 1420 2755 
Q 1159 2438 1159 1844 
L 1159 0 
L 581 0 
L 581 3500 
L 1159 3500 
L 1159 2956 
Q 1341 3275 1631 3429 
Q 1922 3584 2338 3584 
Q 2397 3584 2469 3576 
Q 2541 3569 2628 3553 
L 2631 2963 
z
" transform="scale(0.015625)"/>
       <path id="DejaVuSans-61" d="M 2194 1759 
Q 1497 1759 1228 1600 
Q 959 1441 959 1056 
Q 959 750 1161 570 
Q 1363 391 1709 391 
Q 2188 391 2477 730 
Q 2766 1069 2766 1631 
L 2766 1759 
L 2194 1759 
z
M 3341 1997 
L 3341 0 
L 2766 0 
L 2766 531 
Q 2569 213 2275 61 
Q 1981 -91 1556 -91 
Q 1019 -91 701 211 
Q 384 513 384 1019 
Q 384 1609 779 1909 
Q 1175 2209 1959 2209 
L 2766 2209 
L 2766 2266 
Q 2766 2663 2505 2880 
Q 2244 3097 1772 3097 
Q 1472 3097 1187 3025 
Q 903 2953 641 2809 
L 641 3341 
Q 956 3463 1253 3523 
Q 1550 3584 1831 3584 
Q 2591 3584 2966 3190 
Q 3341 2797 3341 1997 
z
" transform="scale(0.015625)"/>
       <path id="DejaVuSans-79" d="M 2059 -325 
Q 1816 -950 1584 -1140 
Q 1353 -1331 966 -1331 
L 506 -1331 
L 506 -850 
L 844 -850 
Q 1081 -850 1212 -737 
Q 1344 -625 1503 -206 
L 1606 56 
L 191 3500 
L 800 3500 
L 1894 763 
L 2988 3500 
L 3597 3500 
L 2059 -325 
z
" transform="scale(0.015625)"/>
      </defs>
      <use xlink:href="#DejaVuSans-41"/>
      <use xlink:href="#DejaVuSans-63" transform="translate(66.658203 0)"/>
      <use xlink:href="#DejaVuSans-63" transform="translate(121.638672 0)"/>
      <use xlink:href="#DejaVuSans-75" transform="translate(176.619141 0)"/>
      <use xlink:href="#DejaVuSans-72" transform="translate(239.998047 0)"/>
      <use xlink:href="#DejaVuSans-61" transform="translate(281.111328 0)"/>
      <use xlink:href="#DejaVuSans-63" transform="translate(342.390625 0)"/>
      <use xlink:href="#DejaVuSans-79" transform="translate(397.371094 0)"/>
     </g>
    </g>
   </g>
   <g id="line2d_33">
    <path d="M 77.790304 281.695976 
L 80.875821 271.491944 
L 83.858285 267.204189 
L 86.99836 254.505839 
L 90.274827 248.527719 
L 93.393685 250.30054 
L 96.691369 244.940847 
L 100.025425 228.902996 
L 103.362511 218.28668 
L 106.626855 211.607678 
L 109.776022 179.037233 
L 113.104016 173.986754 
L 116.39867 154.155888 
L 119.823654 129.006558 
L 123.318351 107.918226 
L 126.800924 91.715461 
L 130.250156 85.448743 
L 133.744852 64.154269 
L 137.127404 50.590122 
L 140.376593 43.148394 
L 143.604565 40.571619 
L 146.744639 37.665016 
L 149.908961 34.407971 
L 153.003571 33.191733 
L 156.089088 38.427741 
L 159.201884 31.666282 
L 162.266184 30.986013 
L 165.345639 31.70751 
L 168.428125 30.779871 
L 171.486364 30.408815 
L 174.550664 31.357069 
L 177.605872 32.429008 
L 180.661079 28.86275 
L 183.716287 30.573729 
L 186.771494 29.398719 
L 189.829733 31.418911 
L 192.866754 30.408815 
L 195.921962 30.986013 
L 198.992324 28.965821 
L 202.053593 29.336877 
L 205.120925 29.130735 
L 208.182194 29.213192 
L 211.219216 32.820677 
L 214.268361 29.11012 
L 217.335693 29.728547 
L 220.3909 30.8211 
L 223.440046 32.161023 
L 226.483129 33.088662 
L 229.532275 30.656186 
L 232.593544 28.924593 
L 235.663907 30.635572 
L 238.710021 29.398719 
L 241.786445 30.821099 
L 244.853777 30.573729 
L 247.936263 30.759257 
L 251.000563 29.419334 
L 254.092142 37.54133 
L 257.27465 36.077722 
L 260.423817 34.758413 
L 263.494179 32.470236 
L 266.658501 32.49085 
L 269.792514 33.707088 
L 272.911372 32.614535 
L 276.005981 30.862328 
L 279.103622 30.944785 
L 282.19217 30.511886 
L 285.323152 31.377683 
L 288.4117 30.553115 
L 291.469938 30.532501 
L 294.610013 33.583403 
L 297.680375 48.240103 
L 300.738613 41.354958 
L 303.8211 43.313308 
L 306.91874 38.32467 
L 310.001227 36.036493 
L 316.123765 35.933422 
L 319.182004 72.544251 
L 322.237211 54.671735 
L 325.346976 48.549316 
L 328.462803 47.765976 
L 331.551351 50.198452 
L 334.624744 42.323826 
L 337.695106 49.703711 
L 340.868521 48.940986 
L 343.935852 41.581715 
L 347.0244 46.199296 
L 350.082639 42.880409 
L 353.165125 42.921638 
L 356.250642 73.946017 
L 359.366469 65.597264 
L 362.40046 62.608204 
L 365.449605 68.545096 
L 368.480565 80.047822 
L 371.517587 64.999452 
L 374.554608 72.667937 
L 380.613497 64.319183 
L 383.650519 72.935921 
L 386.68754 91.777305 
L 389.736686 76.99692 
L 392.773708 68.792466 
L 395.783451 56.197186 
L 398.820472 58.423521 
L 401.851432 56.032273 
L 404.891485 57.702023 
L 407.931538 49.064671 
L 410.965528 54.012081 
L 413.996488 49.538798 
L 417.03351 48.157646 
L 420.06447 38.840025 
L 423.101491 40.159334 
L 426.135482 36.057108 
L 429.169473 41.602329 
L 432.200433 54.712964 
L 435.231392 56.217801 
L 438.265383 53.434883 
L 441.296343 51.352848 
L 444.327303 41.437415 
L 447.373417 53.063827 
L 450.431656 56.733156 
L 453.474739 36.036494 
L 456.514792 30.017146 
L 459.548783 29.604861 
L 462.579743 28.594765 
L 465.604641 31.686896 
L 468.617415 30.182059 
L 471.657467 32.861906 
L 474.679334 28.759679 
L 477.707263 30.03776 
L 480.741254 30.202673 
L 483.772214 28.100024 
L 489.834133 28.038182 
L 492.865093 29.584247 
L 495.896053 28.553537 
L 498.930044 28.635994 
L 501.964034 29.275034 
L 504.994994 29.419334 
L 508.025954 28.842136 
L 511.10844 60.09327 
L 514.48796 48.343173 
L 517.546199 29.068892 
L 520.580189 28.203095 
L 523.617211 28.038182 
L 526.648171 28.182481 
L 529.682162 28.450466 
L 532.713121 28.512309 
L 535.753174 35.747895 
L 538.784134 74.7912 
L 541.818125 43.828663 
L 544.921827 28.924593 
L 547.955818 28.965821 
L 550.883725 68.95738 
L 553.805571 32.800063 
L 556.83653 30.408815 
L 559.86749 28.965821 
L 562.901481 29.563633 
L 565.932441 28.264938 
L 568.969463 28.141253 
L 572.000422 28.409237 
L 575.031382 28.264938 
L 578.062342 28.945207 
L 581.096333 28.07941 
L 584.127292 28.058796 
L 587.158252 29.275034 
L 590.198305 28.141253 
L 593.232296 28.038182 
L 596.263255 28.491694 
L 599.306339 31.913652 
L 602.397918 28.038182 
L 605.431909 28.22371 
L 608.544705 31.439526 
L 611.581726 28.656608 
L 614.870318 51.126091 
L 618.025547 29.275034 
L 621.071661 28.244324 
L 624.242045 33.191733 
L 627.291191 84.232506 
L 630.331244 74.523216 
L 633.365234 33.707088 
L 636.399225 28.038182 
L 639.430185 28.656608 
L 642.464176 28.038182 
L 645.495135 28.038182 
L 648.662488 38.159756 
L 651.802563 28.986435 
L 654.839585 28.141253 
L 657.879637 28.656608 
L 660.913628 28.388623 
L 663.95065 28.883364 
L 666.993733 28.038182 
L 673.067777 28.038182 
L 676.101767 28.656608 
L 679.132727 28.038182 
L 679.132727 28.038182 
" clip-path="url(#p1de0e8de65)" style="fill: none; stroke: #0000ff; stroke-width: 1.5; stroke-linecap: square"/>
   </g>
   <g id="line2d_34">
    <path d="M 77.787273 287.199969 
L 80.830356 284.478894 
L 83.952245 281.098164 
L 86.977143 283.798625 
L 90.108124 286.849527 
L 93.293663 287.983309 
L 96.351901 285.73636 
L 99.437419 276.666109 
L 102.607802 283.406955 
L 105.672103 291.199125 
L 108.763682 283.303884 
L 111.924973 281.180621 
L 115.113543 272.728796 
L 118.250586 276.068298 
L 121.248205 279.077972 
L 124.373125 279.613941 
L 127.498044 281.098164 
L 130.650243 280.005611 
L 133.83275 287.179355 
L 136.994041 282.850372 
L 140.100775 279.366571 
L 143.259035 289.302618 
L 146.520348 280.500352 
L 149.642237 288.045151 
L 152.730785 272.687568 
L 155.952695 287.715324 
L 159.056398 279.057358 
L 162.184348 287.241197 
L 165.363825 284.870564 
L 171.492426 286.066188 
L 174.920441 293.52853 
L 178.066578 281.675362 
L 181.258178 282.953443 
L 184.289138 282.067032 
L 187.347376 282.870986 
L 190.581411 283.180199 
L 193.766949 287.30304 
L 196.876714 282.664844 
L 200.044067 284.891178 
L 203.229606 281.407377 
L 206.272689 280.727108 
L 209.473383 285.550832 
L 212.695293 274.831446 
L 215.880832 278.603845 
L 218.990597 285.983731 
L 222.118547 293.899586 
L 225.204064 278.583231 
L 228.228962 282.932828 
L 231.47512 282.231945 
L 234.448492 281.963961 
L 237.579473 283.860467 
L 240.931715 282.396859 
L 244.120284 282.850372 
L 247.23308 283.881082 
L 250.506517 282.211331 
L 253.48595 286.045573 
L 256.604808 289.488146 
L 259.796408 277.964804 
L 262.942545 284.829335 
L 266.24326 289.817973 
L 269.33787 282.087646 
L 272.529471 281.098164 
L 275.466471 283.365727 
L 278.521678 272.357741 
L 281.761774 281.32492 
L 284.956406 289.405689 
L 288.069201 280.438509 
L 291.315359 279.964383 
L 294.528177 281.840275 
L 297.671282 279.016129 
L 300.774985 281.46922 
L 303.912028 280.850793 
L 307.176372 277.30515 
L 310.407375 274.645917 
L 313.462583 282.211331 
L 316.726926 284.334594 
L 319.933682 286.251716 
L 323.185902 281.160007 
L 326.398719 286.045574 
L 329.456957 287.282426 
L 332.660682 280.211753 
L 335.809849 286.808299 
L 338.913552 273.862578 
L 342.044534 290.910526 
L 345.151267 288.024537 
L 348.291342 284.932406 
L 351.492035 283.613097 
L 354.53815 292.291678 
L 357.799463 278.170947 
L 360.778896 283.551255 
L 363.937156 282.541158 
L 367.192407 276.769181 
L 370.177902 279.552098 
L 373.248265 289.034633 
L 376.45502 288.292522 
L 379.48598 288.849105 
L 382.601807 292.827647 
L 385.808562 283.262656 
L 388.978946 292.003079 
L 392.109927 281.778433 
L 395.3379 295.48688 
L 398.435541 289.446917 
L 401.4665 285.88066 
L 404.488367 282.870986 
L 407.52842 284.437665 
L 410.774578 283.860468 
L 414.044983 289.549989 
L 417.106253 281.221849 
L 420.28573 282.974057 
L 423.50764 281.304306 
L 426.723488 283.303884 
L 429.88781 284.84995 
L 432.991513 283.860468 
L 436.01338 284.045996 
L 439.047371 288.539892 
L 442.23291 292.229835 
L 445.263869 282.623615 
L 448.279674 281.551677 
L 451.447027 285.282848 
L 454.477987 284.788107 
L 457.630185 280.830179 
L 460.852096 285.48899 
L 463.913365 283.571869 
L 467.126182 282.170102 
L 470.317783 282.005189 
L 473.400269 288.271908 
L 476.397888 282.355631 
L 479.531901 288.581121 
L 482.59317 286.808299 
L 485.721121 288.127608 
L 488.927876 283.860467 
L 491.828505 283.942924 
L 494.868557 286.004345 
L 498.008632 285.406533 
L 501.115366 286.684614 
L 504.355462 284.458279 
L 507.434917 285.385919 
L 510.499217 275.779699 
L 513.772654 278.026647 
L 517.061245 282.376245 
L 520.286186 286.828913 
L 523.52022 273.388451 
L 526.64514 278.335861 
L 529.657914 287.962695 
L 532.716152 286.045573 
L 535.886536 283.613097 
L 539.011456 280.108682 
L 542.106066 285.262234 
L 545.255233 295.301352 
L 548.422586 282.974057 
L 551.541444 285.653903 
L 554.711828 284.252138 
L 557.857964 282.479316 
L 561.043503 283.056514 
L 564.195701 275.552943 
L 570.324302 292.435977 
L 573.376478 291.693866 
L 576.365004 289.014019 
L 579.435367 283.077128 
L 582.623936 282.458702 
L 585.724608 285.385919 
L 588.967735 288.045151 
L 592.044159 291.157896 
L 595.156955 280.892022 
L 598.309153 284.31398 
L 601.467413 283.984153 
L 604.701448 284.045995 
L 607.971853 274.85206 
L 611.145268 284.272752 
L 614.345962 286.602157 
L 617.5315 286.045573 
L 620.613986 283.221427 
L 623.857113 285.777589 
L 626.951723 286.705228 
L 629.976621 283.819239 
L 633.09851 283.118356 
L 636.132501 284.355208 
L 639.233173 280.273596 
L 642.409618 282.829757 
L 645.492104 288.849105 
L 648.717046 281.242464 
L 651.848027 282.623615 
L 654.963854 289.343846 
L 658.228198 275.367415 
L 661.334931 284.623194 
L 664.432572 279.552098 
L 667.599925 282.10826 
L 670.785464 283.984153 
L 677.132294 283.778011 
L 677.132294 283.778011 
" clip-path="url(#p1de0e8de65)" style="fill: none; stroke: #ffa500; stroke-width: 1.5; stroke-linecap: square"/>
   </g>
   <g id="patch_3">
    <path d="M 47.72 390.04 
L 47.72 10.8 
" style="fill: none; stroke: #000000; stroke-width: 0.8; stroke-linejoin: miter; stroke-linecap: square"/>
   </g>
   <g id="patch_4">
    <path d="M 709.2 390.04 
L 709.2 10.8 
" style="fill: none; stroke: #000000; stroke-width: 0.8; stroke-linejoin: miter; stroke-linecap: square"/>
   </g>
   <g id="patch_5">
    <path d="M 47.72 390.04 
L 709.2 390.04 
" style="fill: none; stroke: #000000; stroke-width: 0.8; stroke-linejoin: miter; stroke-linecap: square"/>
   </g>
   <g id="patch_6">
    <path d="M 47.72 10.8 
L 709.2 10.8 
" style="fill: none; stroke: #000000; stroke-width: 0.8; stroke-linejoin: miter; stroke-linecap: square"/>
   </g>
   <g id="legend_1">
    <g id="patch_7">
     <path d="M 628.803125 385.04 
L 702.2 385.04 
Q 704.2 385.04 704.2 383.04 
L 704.2 340.005625 
Q 704.2 338.005625 702.2 338.005625 
L 628.803125 338.005625 
Q 626.803125 338.005625 626.803125 340.005625 
L 626.803125 383.04 
Q 626.803125 385.04 628.803125 385.04 
z
" style="fill: #ffffff; opacity: 0.8; stroke: #cccccc; stroke-linejoin: miter"/>
    </g>
    <g id="text_19">
     <!-- Agent -->
     <g transform="translate(650.701563 349.604062) scale(0.1 -0.1)">
      <defs>
       <path id="DejaVuSans-67" d="M 2906 1791 
Q 2906 2416 2648 2759 
Q 2391 3103 1925 3103 
Q 1463 3103 1205 2759 
Q 947 2416 947 1791 
Q 947 1169 1205 825 
Q 1463 481 1925 481 
Q 2391 481 2648 825 
Q 2906 1169 2906 1791 
z
M 3481 434 
Q 3481 -459 3084 -895 
Q 2688 -1331 1869 -1331 
Q 1566 -1331 1297 -1286 
Q 1028 -1241 775 -1147 
L 775 -588 
Q 1028 -725 1275 -790 
Q 1522 -856 1778 -856 
Q 2344 -856 2625 -561 
Q 2906 -266 2906 331 
L 2906 616 
Q 2728 306 2450 153 
Q 2172 0 1784 0 
Q 1141 0 747 490 
Q 353 981 353 1791 
Q 353 2603 747 3093 
Q 1141 3584 1784 3584 
Q 2172 3584 2450 3431 
Q 2728 3278 2906 2969 
L 2906 3500 
L 3481 3500 
L 3481 434 
z
" transform="scale(0.015625)"/>
       <path id="DejaVuSans-6e" d="M 3513 2113 
L 3513 0 
L 2938 0 
L 2938 2094 
Q 2938 2591 2744 2837 
Q 2550 3084 2163 3084 
Q 1697 3084 1428 2787 
Q 1159 2491 1159 1978 
L 1159 0 
L 581 0 
L 581 3500 
L 1159 3500 
L 1159 2956 
Q 1366 3272 1645 3428 
Q 1925 3584 2291 3584 
Q 2894 3584 3203 3211 
Q 3513 2838 3513 2113 
z
" transform="scale(0.015625)"/>
      </defs>
      <use xlink:href="#DejaVuSans-41"/>
      <use xlink:href="#DejaVuSans-67" transform="translate(68.408203 0)"/>
      <use xlink:href="#DejaVuSans-65" transform="translate(131.884766 0)"/>
      <use xlink:href="#DejaVuSans-6e" transform="translate(193.408203 0)"/>
      <use xlink:href="#DejaVuSans-74" transform="translate(256.787109 0)"/>
     </g>
    </g>
    <g id="line2d_35">
     <path d="M 630.803125 360.782187 
L 640.803125 360.782187 
L 650.803125 360.782187 
" style="fill: none; stroke: #0000ff; stroke-width: 1.5; stroke-linecap: square"/>
    </g>
    <g id="text_20">
     <!-- PPO -->
     <g transform="translate(658.803125 364.282187) scale(0.1 -0.1)">
      <defs>
       <path id="DejaVuSans-50" d="M 1259 4147 
L 1259 2394 
L 2053 2394 
Q 2494 2394 2734 2622 
Q 2975 2850 2975 3272 
Q 2975 3691 2734 3919 
Q 2494 4147 2053 4147 
L 1259 4147 
z
M 628 4666 
L 2053 4666 
Q 2838 4666 3239 4311 
Q 3641 3956 3641 3272 
Q 3641 2581 3239 2228 
Q 2838 1875 2053 1875 
L 1259 1875 
L 1259 0 
L 628 0 
L 628 4666 
z
" transform="scale(0.015625)"/>
       <path id="DejaVuSans-4f" d="M 2522 4238 
Q 1834 4238 1429 3725 
Q 1025 3213 1025 2328 
Q 1025 1447 1429 934 
Q 1834 422 2522 422 
Q 3209 422 3611 934 
Q 4013 1447 4013 2328 
Q 4013 3213 3611 3725 
Q 3209 4238 2522 4238 
z
M 2522 4750 
Q 3503 4750 4090 4092 
Q 4678 3434 4678 2328 
Q 4678 1225 4090 567 
Q 3503 -91 2522 -91 
Q 1538 -91 948 565 
Q 359 1222 359 2328 
Q 359 3434 948 4092 
Q 1538 4750 2522 4750 
z
" transform="scale(0.015625)"/>
      </defs>
      <use xlink:href="#DejaVuSans-50"/>
      <use xlink:href="#DejaVuSans-50" transform="translate(60.302734 0)"/>
      <use xlink:href="#DejaVuSans-4f" transform="translate(120.605469 0)"/>
     </g>
    </g>
    <g id="line2d_36">
     <path d="M 630.803125 375.460312 
L 640.803125 375.460312 
L 650.803125 375.460312 
" style="fill: none; stroke: #ffa500; stroke-width: 1.5; stroke-linecap: square"/>
    </g>
    <g id="text_21">
     <!-- Random -->
     <g transform="translate(658.803125 378.960312) scale(0.1 -0.1)">
      <defs>
       <path id="DejaVuSans-52" d="M 2841 2188 
Q 3044 2119 3236 1894 
Q 3428 1669 3622 1275 
L 4263 0 
L 3584 0 
L 2988 1197 
Q 2756 1666 2539 1819 
Q 2322 1972 1947 1972 
L 1259 1972 
L 1259 0 
L 628 0 
L 628 4666 
L 2053 4666 
Q 2853 4666 3247 4331 
Q 3641 3997 3641 3322 
Q 3641 2881 3436 2590 
Q 3231 2300 2841 2188 
z
M 1259 4147 
L 1259 2491 
L 2053 2491 
Q 2509 2491 2742 2702 
Q 2975 2913 2975 3322 
Q 2975 3731 2742 3939 
Q 2509 4147 2053 4147 
L 1259 4147 
z
" transform="scale(0.015625)"/>
       <path id="DejaVuSans-64" d="M 2906 2969 
L 2906 4863 
L 3481 4863 
L 3481 0 
L 2906 0 
L 2906 525 
Q 2725 213 2448 61 
Q 2172 -91 1784 -91 
Q 1150 -91 751 415 
Q 353 922 353 1747 
Q 353 2572 751 3078 
Q 1150 3584 1784 3584 
Q 2172 3584 2448 3432 
Q 2725 3281 2906 2969 
z
M 947 1747 
Q 947 1113 1208 752 
Q 1469 391 1925 391 
Q 2381 391 2643 752 
Q 2906 1113 2906 1747 
Q 2906 2381 2643 2742 
Q 2381 3103 1925 3103 
Q 1469 3103 1208 2742 
Q 947 2381 947 1747 
z
" transform="scale(0.015625)"/>
       <path id="DejaVuSans-6f" d="M 1959 3097 
Q 1497 3097 1228 2736 
Q 959 2375 959 1747 
Q 959 1119 1226 758 
Q 1494 397 1959 397 
Q 2419 397 2687 759 
Q 2956 1122 2956 1747 
Q 2956 2369 2687 2733 
Q 2419 3097 1959 3097 
z
M 1959 3584 
Q 2709 3584 3137 3096 
Q 3566 2609 3566 1747 
Q 3566 888 3137 398 
Q 2709 -91 1959 -91 
Q 1206 -91 779 398 
Q 353 888 353 1747 
Q 353 2609 779 3096 
Q 1206 3584 1959 3584 
z
" transform="scale(0.015625)"/>
       <path id="DejaVuSans-6d" d="M 3328 2828 
Q 3544 3216 3844 3400 
Q 4144 3584 4550 3584 
Q 5097 3584 5394 3201 
Q 5691 2819 5691 2113 
L 5691 0 
L 5113 0 
L 5113 2094 
Q 5113 2597 4934 2840 
Q 4756 3084 4391 3084 
Q 3944 3084 3684 2787 
Q 3425 2491 3425 1978 
L 3425 0 
L 2847 0 
L 2847 2094 
Q 2847 2600 2669 2842 
Q 2491 3084 2119 3084 
Q 1678 3084 1418 2786 
Q 1159 2488 1159 1978 
L 1159 0 
L 581 0 
L 581 3500 
L 1159 3500 
L 1159 2956 
Q 1356 3278 1631 3431 
Q 1906 3584 2284 3584 
Q 2666 3584 2933 3390 
Q 3200 3197 3328 2828 
z
" transform="scale(0.015625)"/>
      </defs>
      <use xlink:href="#DejaVuSans-52"/>
      <use xlink:href="#DejaVuSans-61" transform="translate(67.232422 0)"/>
      <use xlink:href="#DejaVuSans-6e" transform="translate(128.511719 0)"/>
      <use xlink:href="#DejaVuSans-64" transform="translate(191.890625 0)"/>
      <use xlink:href="#DejaVuSans-6f" transform="translate(255.367188 0)"/>
      <use xlink:href="#DejaVuSans-6d" transform="translate(316.548828 0)"/>
     </g>
    </g>
   </g>
  </g>
 </g>
 <defs>
  <clipPath id="p1de0e8de65">
   <rect x="47.72" y="10.8" width="661.48" height="379.24"/>
  </clipPath>
 </defs>
</svg>
