<?xml version="1.0" encoding="utf-8" standalone="no"?>
<!DOCTYPE svg PUBLIC "-//W3C//DTD SVG 1.1//EN"
  "http://www.w3.org/Graphics/SVG/1.1/DTD/svg11.dtd">
<svg xmlns:xlink="http://www.w3.org/1999/xlink" width="720pt" height="432pt" viewBox="0 0 720 432" xmlns="http://www.w3.org/2000/svg" version="1.1">
 <metadata>
  <rdf:RDF xmlns:dc="http://purl.org/dc/elements/1.1/" xmlns:cc="http://creativecommons.org/ns#" xmlns:rdf="http://www.w3.org/1999/02/22-rdf-syntax-ns#">
   <cc:Work>
    <dc:type rdf:resource="http://purl.org/dc/dcmitype/StillImage"/>
    <dc:date>2025-04-15T17:21:17.788413</dc:date>
    <dc:format>image/svg+xml</dc:format>
    <dc:creator>
     <cc:Agent>
      <dc:title>Matplotlib v3.10.0, https://matplotlib.org/</dc:title>
     </cc:Agent>
    </dc:creator>
   </cc:Work>
  </rdf:RDF>
 </metadata>
 <defs>
  <style type="text/css">*{stroke-linejoin: round; stroke-linecap: butt}</style>
 </defs>
 <g id="figure_1">
  <g id="patch_1">
   <path d="M 0 432 
L 720 432 
L 720 0 
L 0 0 
z
" style="fill: #ffffff"/>
  </g>
  <g id="axes_1">
   <g id="patch_2">
    <path d="M 50.87 390.04 
L 709.2 390.04 
L 709.2 10.8 
L 50.87 10.8 
z
" style="fill: #ffffff"/>
   </g>
   <g id="FillBetweenPolyCollection_1">
    <defs>
     <path id="mbdc61258dd" d="M 80.797107 -85.530297 
L 80.797107 -63.477757 
L 83.867931 -65.058956 
L 86.836193 -65.477634 
L 89.961314 -64.044788 
L 93.222179 -65.260182 
L 96.326184 -63.979294 
L 99.608165 -61.241723 
L 102.926344 -62.443442 
L 106.247539 -61.373001 
L 109.496338 -59.459359 
L 112.630509 -59.198182 
L 115.942654 -63.224351 
L 119.221618 -63.633314 
L 122.630293 -89.440099 
L 126.108348 -119.269927 
L 129.574336 -150.435433 
L 133.007143 -182.081693 
L 136.485198 -246.932997 
L 139.851641 -298.192991 
L 143.085357 -322.602942 
L 146.297958 -338.391106 
L 149.423079 -345.179367 
L 152.572332 -359.546967 
L 155.652206 -362.77697 
L 158.723029 -345.126278 
L 161.821002 -368.756249 
L 164.87071 -368.808479 
L 167.9355 -357.79374 
L 171.003307 -366.388167 
L 174.046982 -371.289572 
L 177.09669 -362.692587 
L 180.137349 -367.743121 
L 183.178007 -373.836885 
L 186.218666 -368.841409 
L 189.259324 -375.017599 
L 192.302999 -368.779641 
L 195.325558 -372.509157 
L 198.366217 -367.595288 
L 201.421958 -372.610258 
L 204.468649 -373.797097 
L 207.521374 -372.596947 
L 210.568065 -373.812189 
L 213.590625 -366.241414 
L 216.62525 -368.945389 
L 219.677975 -374.508549 
L 222.718633 -372.477588 
L 225.753258 -368.727721 
L 228.781851 -360.133146 
L 231.816476 -371.272397 
L 234.863167 -375.05063 
L 237.918909 -371.272828 
L 240.950517 -370.145307 
L 244.012292 -367.607466 
L 247.065016 -366.407183 
L 250.132823 -368.829018 
L 253.182531 -373.79876 
L 256.259388 -314.257161 
L 259.42674 -330.695215 
L 262.560911 -341.748036 
L 265.616652 -352.874297 
L 268.765906 -350.439714 
L 271.884994 -351.565019 
L 274.988999 -358.455645 
L 278.068873 -367.606771 
L 281.151762 -367.597247 
L 284.225603 -368.847363 
L 287.341674 -359.043729 
L 290.415514 -360.31969 
L 293.459189 -365.194541 
L 296.58431 -349.143422 
L 299.640052 -299.832193 
L 302.683726 -279.807856 
L 305.751534 -284.829496 
L 308.834423 -307.332018 
L 311.902231 -331.148573 
L 314.967021 -338.948563 
L 317.995614 -336.024664 
L 321.039288 -200.415613 
L 324.079947 -252.929309 
L 327.174903 -281.725032 
L 330.275892 -293.220952 
L 333.349732 -271.583893 
L 336.40849 -306.818057 
L 339.464231 -271.059862 
L 342.622534 -292.377361 
L 345.675258 -328.815358 
L 348.749098 -305.30761 
L 351.792773 -310.938908 
L 354.86058 -319.185315 
L 357.931404 -238.028254 
L 361.032393 -286.419976 
L 364.051936 -297.318574 
L 367.086561 -295.742897 
L 370.103087 -269.805716 
L 373.125647 -301.09103 
L 376.148206 -284.707298 
L 379.158699 -291.575061 
L 382.178242 -290.887673 
L 385.200801 -279.314442 
L 388.22336 -227.71989 
L 391.257986 -275.851069 
L 394.280545 -286.891079 
L 397.275956 -312.914793 
L 400.298515 -299.595749 
L 403.315041 -311.694878 
L 406.340617 -304.267335 
L 409.366193 -327.074209 
L 412.385735 -304.530078 
L 415.402262 -302.662368 
L 418.424821 -317.62308 
L 421.441347 -343.394645 
L 424.463906 -327.682132 
L 427.483449 -339.939294 
L 430.502992 -337.093746 
L 433.519518 -323.246087 
L 436.536044 -315.826351 
L 439.555587 -302.623317 
L 442.572113 -291.807536 
L 445.58864 -326.635812 
L 448.620248 -306.305146 
L 451.663923 -306.773892 
L 454.692516 -358.702823 
L 457.718091 -373.754688 
L 460.737634 -372.566792 
L 463.75416 -375.076313 
L 466.764654 -369.980908 
L 469.763081 -370.09033 
L 472.788656 -357.711617 
L 475.796133 -376.282404 
L 478.809643 -371.316108 
L 481.829185 -372.52305 
L 484.845712 -377.547653 
L 487.862238 -378.770647 
L 490.878764 -378.771137 
L 493.89529 -375.005859 
L 496.911817 -377.514536 
L 499.931359 -376.291028 
L 502.950902 -376.244642 
L 505.967428 -375.016748 
L 508.983955 -373.840939 
L 512.051762 -245.871567 
L 515.415188 -287.397952 
L 518.458863 -375.042254 
L 521.478406 -377.541358 
L 524.500965 -378.770727 
L 527.517492 -376.323532 
L 530.537034 -375.086823 
L 533.553561 -376.300207 
L 536.579136 -356.293738 
L 539.595663 -241.430734 
L 542.615205 -317.947957 
L 545.704128 -375.053786 
L 548.723671 -375.045186 
L 551.637635 -286.907453 
L 554.545567 -366.247186 
L 557.562093 -370.066242 
L 560.578619 -376.264801 
L 563.598162 -375.00697 
L 566.614688 -377.53589 
L 569.637247 -377.544883 
L 572.653773 -377.526588 
L 575.6703 -377.536283 
L 578.686826 -370.176826 
L 581.706369 -377.549954 
L 584.722895 -377.551266 
L 587.739421 -376.245323 
L 590.764997 -377.544867 
L 593.78454 -378.771137 
L 596.801066 -376.302618 
L 599.829658 -360.217565 
L 602.906515 -378.770899 
L 605.926058 -377.539742 
L 609.02403 -361.469688 
L 612.046589 -377.508311 
L 615.31952 -243.106985 
L 618.459724 -373.807988 
L 621.491333 -377.537741 
L 624.646619 -347.942592 
L 627.681245 -232.196362 
L 630.70682 -262.132181 
L 633.726363 -364.962373 
L 636.745906 -378.770666 
L 639.762432 -377.508335 
L 642.781975 -378.771024 
L 645.798501 -378.771137 
L 648.950771 -320.284363 
L 652.075892 -373.82964 
L 655.098451 -377.545145 
L 658.124027 -377.508198 
L 661.14357 -376.309629 
L 664.166129 -376.273752 
L 667.194722 -378.771024 
L 670.217281 -378.7708 
L 673.23984 -378.770769 
L 676.259383 -377.508335 
L 679.275909 -378.770373 
L 679.275909 -378.820429 
L 679.275909 -378.820429 
L 676.259383 -379.03699 
L 673.23984 -378.820415 
L 670.217281 -378.820384 
L 667.194722 -378.820384 
L 664.166129 -379.24873 
L 661.14357 -379.242563 
L 658.124027 -379.036847 
L 655.098451 -379.03062 
L 652.075892 -379.667792 
L 648.950771 -388.257171 
L 645.798501 -378.820384 
L 642.781975 -378.820384 
L 639.762432 -379.03699 
L 636.745906 -378.820428 
L 633.726363 -381.188915 
L 630.70682 -398.827017 
L 627.681245 -403.961818 
L 624.646619 -384.107973 
L 621.491333 -379.031923 
L 618.459724 -379.671408 
L 615.31952 -402.091378 
L 612.046589 -379.036847 
L 609.02403 -381.787575 
L 605.926058 -379.031592 
L 602.906515 -378.820397 
L 599.829658 -382.002655 
L 596.801066 -379.243619 
L 593.78454 -378.820384 
L 590.764997 -379.030517 
L 587.739421 -379.253314 
L 584.722895 -379.029624 
L 581.706369 -379.029826 
L 578.686826 -380.294347 
L 575.6703 -379.031844 
L 572.653773 -379.033711 
L 569.637247 -379.030165 
L 566.614688 -379.031878 
L 563.598162 -379.466064 
L 560.578619 -379.246163 
L 557.562093 -380.304538 
L 554.545567 -380.96868 
L 551.637635 -394.577496 
L 548.723671 -379.453342 
L 545.704128 -379.457707 
L 542.615205 -389.248696 
L 539.595663 -402.36142 
L 536.579136 -382.673227 
L 533.553561 -379.244078 
L 530.537034 -379.452373 
L 527.517492 -379.240067 
L 524.500965 -378.820412 
L 521.478406 -379.031334 
L 518.458863 -379.459863 
L 515.415188 -393.297193 
L 512.051762 -399.815288 
L 508.983955 -379.665207 
L 505.967428 -379.464025 
L 502.950902 -379.253535 
L 499.931359 -379.245193 
L 496.911817 -379.034681 
L 493.89529 -379.466088 
L 490.878764 -378.820384 
L 487.862238 -378.820425 
L 484.845712 -379.030041 
L 481.829185 -379.891242 
L 478.809643 -380.099106 
L 475.796133 -379.247133 
L 472.788656 -382.430266 
L 469.763081 -380.309241 
L 466.764654 -380.327871 
L 463.75416 -379.454157 
L 460.737634 -379.884601 
L 457.718091 -379.680866 
L 454.692516 -382.262544 
L 451.663923 -390.563457 
L 448.620248 -391.249957 
L 445.58864 -387.76303 
L 442.572113 -393.737069 
L 439.555587 -391.881705 
L 436.536044 -389.617132 
L 433.519518 -388.344217 
L 430.502992 -385.37192 
L 427.483449 -384.873269 
L 424.463906 -385.78283 
L 421.441347 -384.280573 
L 418.424821 -389.30814 
L 415.402262 -390.054604 
L 412.385735 -390.94892 
L 409.366193 -385.861985 
L 406.340617 -390.992832 
L 403.315041 -389.720645 
L 400.298515 -390.576277 
L 397.275956 -389.502723 
L 394.280545 -391.56096 
L 391.257986 -394.038645 
L 388.22336 -396.880315 
L 385.200801 -392.8337 
L 382.178242 -390.851357 
L 379.158699 -391.93736 
L 376.148206 -392.502651 
L 373.125647 -389.696382 
L 370.103087 -393.841608 
L 367.086561 -388.775724 
L 364.051936 -388.561741 
L 361.032393 -386.166893 
L 357.931404 -392.68823 
L 354.86058 -386.043376 
L 351.792773 -389.250228 
L 348.749098 -386.607311 
L 345.675258 -385.581342 
L 342.622534 -385.252002 
L 339.464231 -385.324472 
L 336.40849 -389.355914 
L 333.349732 -388.796965 
L 330.275892 -387.498722 
L 327.174903 -388.855147 
L 324.079947 -389.015687 
L 321.039288 -385.952004 
L 317.995614 -383.75237 
L 314.967021 -383.852577 
L 311.902231 -384.590856 
L 308.834423 -388.088288 
L 305.751534 -393.137932 
L 302.683726 -392.212595 
L 299.640052 -389.947124 
L 296.58431 -383.90244 
L 293.459189 -381.149255 
L 290.415514 -381.985455 
L 287.341674 -382.204039 
L 284.225603 -380.522332 
L 281.151762 -380.736796 
L 278.068873 -380.735157 
L 274.988999 -381.704969 
L 271.884994 -383.486659 
L 268.765906 -383.680248 
L 265.616652 -383.262404 
L 262.560911 -385.170679 
L 259.42674 -387.067143 
L 256.259388 -389.29013 
L 253.182531 -379.672999 
L 250.132823 -380.525177 
L 247.065016 -380.940905 
L 244.012292 -380.735113 
L 240.950517 -380.299542 
L 237.918909 -380.106293 
L 234.863167 -379.458474 
L 231.816476 -380.107039 
L 228.781851 -382.016785 
L 225.753258 -380.543063 
L 222.718633 -379.899513 
L 219.677975 -378.943605 
L 216.62525 -380.505732 
L 213.590625 -380.96881 
L 210.568065 -379.670471 
L 207.521374 -379.878841 
L 204.468649 -379.673294 
L 201.421958 -379.87669 
L 198.366217 -380.736859 
L 195.325558 -379.894098 
L 192.302999 -380.533493 
L 189.259324 -379.463792 
L 186.218666 -380.522914 
L 183.178007 -379.666547 
L 180.137349 -379.491126 
L 177.09669 -381.577448 
L 174.046982 -380.103031 
L 171.003307 -380.943748 
L 167.9355 -382.417513 
L 164.87071 -380.52869 
L 161.821002 -380.537807 
L 158.723029 -384.589883 
L 155.652206 -380.368079 
L 152.572332 -381.503304 
L 149.423079 -384.581657 
L 146.297958 -385.134718 
L 143.085357 -386.63877 
L 139.851641 -388.397024 
L 136.485198 -389.392242 
L 133.007143 -397.465632 
L 129.574336 -390.38423 
L 126.108348 -378.185883 
L 122.630293 -350.238394 
L 119.221618 -295.818621 
L 115.942654 -241.556966 
L 112.630509 -193.591553 
L 109.496338 -139.134975 
L 106.247539 -113.618629 
L 102.926344 -105.860791 
L 99.608165 -106.113387 
L 96.326184 -89.962036 
L 93.222179 -82.723123 
L 89.961314 -88.614142 
L 86.836193 -77.323899 
L 83.867931 -79.510305 
L 80.797107 -85.530297 
z
" style="stroke: #0000ff; stroke-opacity: 0.2"/>
    </defs>
    <g clip-path="url(#pc380c8af16)">
     <use xlink:href="#mbdc61258dd" x="0" y="432" style="fill: #0000ff; fill-opacity: 0.2; stroke: #0000ff; stroke-opacity: 0.2"/>
    </g>
   </g>
   <g id="FillBetweenPolyCollection_2">
    <defs>
     <path id="md541a5b4b8" d="M 80.794091 -79.597733 
L 80.794091 -65.040583 
L 83.822683 -64.645353 
L 86.929705 -63.979784 
L 89.940198 -65.145277 
L 93.05627 -64.135622 
L 96.226639 -64.994558 
L 99.270314 -64.705037 
L 102.341138 -65.399034 
L 105.496424 -64.088615 
L 108.546132 -65.346997 
L 111.622989 -65.498523 
L 114.769226 -64.899356 
L 117.942611 -65.552218 
L 121.064716 -65.371715 
L 124.04806 -64.961668 
L 127.158099 -64.635345 
L 130.268137 -64.777336 
L 133.405325 -64.809279 
L 136.572677 -64.896432 
L 139.718914 -64.770033 
L 142.810853 -65.039502 
L 145.954074 -64.82586 
L 149.199856 -64.830386 
L 152.306878 -65.05286 
L 155.380718 -64.622803 
L 158.587286 -64.74903 
L 161.676208 -63.920422 
L 164.789263 -64.306774 
L 167.953599 -65.541049 
L 171.01839 -65.880978 
L 174.053015 -64.818655 
L 177.464707 -65.497493 
L 180.595861 -64.970899 
L 183.772263 -64.966338 
L 186.788789 -64.542157 
L 189.832464 -64.755258 
L 193.051098 -64.441961 
L 196.221467 -65.04753 
L 199.316423 -64.85104 
L 202.468692 -64.901171 
L 205.639061 -65.005698 
L 208.667654 -64.74804 
L 211.853106 -64.634021 
L 215.059673 -63.515995 
L 218.230042 -65.221306 
L 221.324998 -64.140874 
L 224.438053 -63.731745 
L 227.508877 -65.062345 
L 230.51937 -64.779931 
L 233.750069 -65.430731 
L 236.709282 -65.223027 
L 239.825353 -64.84032 
L 243.161631 -64.453283 
L 246.335017 -64.467335 
L 249.432989 -64.658311 
L 252.690837 -64.095294 
L 255.656083 -64.196377 
L 258.760088 -64.467239 
L 261.93649 -65.607497 
L 265.067645 -64.338071 
L 268.352642 -65.398806 
L 271.432515 -64.578555 
L 274.608917 -65.022751 
L 277.531931 -63.917393 
L 280.572589 -64.861075 
L 283.797256 -65.500169 
L 286.976674 -64.748598 
L 290.074647 -64.579975 
L 293.305346 -64.570985 
L 296.502864 -65.156853 
L 299.631002 -65.529498 
L 302.719925 -65.424591 
L 305.842029 -64.962354 
L 309.090828 -65.732993 
L 312.306445 -64.43517 
L 315.347104 -65.041677 
L 318.595902 -65.440953 
L 321.787387 -64.999584 
L 325.02412 -63.779736 
L 328.221637 -64.460514 
L 331.265312 -64.272921 
L 334.453781 -64.590857 
L 337.587951 -65.553768 
L 340.676874 -64.360839 
L 343.792946 -64.290056 
L 346.884885 -65.332567 
L 350.010006 -64.14964 
L 353.195458 -65.579814 
L 356.227067 -64.465075 
L 359.472849 -63.874515 
L 362.438094 -63.119703 
L 365.581315 -65.045569 
L 368.821064 -66.185017 
L 371.792342 -65.648598 
L 374.848083 -64.687687 
L 378.039568 -63.825627 
L 381.056094 -64.434052 
L 384.157083 -63.999322 
L 387.348568 -65.047739 
L 390.503854 -65.520272 
L 393.619926 -64.481069 
L 396.832526 -64.743469 
L 399.915416 -64.526365 
L 402.931942 -65.062614 
L 405.939419 -64.959387 
L 408.964995 -65.852561 
L 412.195694 -64.505798 
L 415.450526 -63.61144 
L 418.497218 -64.884283 
L 421.661554 -65.382505 
L 424.868121 -65.351153 
L 428.068655 -65.317209 
L 431.217909 -63.365474 
L 434.306831 -64.782394 
L 437.314308 -64.788789 
L 440.333851 -64.241087 
L 443.50422 -65.162398 
L 446.520746 -65.279727 
L 449.52219 -64.63748 
L 452.67446 -65.256976 
L 455.690986 -64.687578 
L 458.828173 -65.065183 
L 462.03474 -64.599781 
L 465.081432 -65.438386 
L 468.27895 -65.741251 
L 471.455352 -65.17243 
L 474.523159 -65.110614 
L 477.506503 -64.231022 
L 480.625592 -64.636115 
L 483.672283 -64.573189 
L 486.785338 -65.202962 
L 489.976823 -64.572454 
L 492.863638 -65.461201 
L 495.889214 -65.052278 
L 499.014335 -64.925448 
L 502.106275 -64.607273 
L 505.330941 -64.601874 
L 508.395732 -64.090436 
L 511.44544 -63.613444 
L 514.703288 -64.653636 
L 517.976219 -65.492208 
L 521.185803 -65.368093 
L 524.404437 -65.385264 
L 527.514475 -64.876168 
L 530.512902 -64.869116 
L 533.556577 -64.124423 
L 536.711864 -65.27464 
L 539.821902 -64.377119 
L 542.901775 -64.520312 
L 546.035946 -64.279451 
L 549.188216 -64.939525 
L 552.292221 -65.477482 
L 555.447508 -64.53065 
L 558.578662 -64.364875 
L 561.749031 -65.799406 
L 564.886218 -64.531392 
L 567.99324 -65.005092 
L 570.985634 -63.674304 
L 574.023276 -64.906529 
L 576.997571 -64.276607 
L 580.053312 -65.550853 
L 583.226698 -64.640075 
L 586.312604 -65.755352 
L 589.540287 -65.657033 
L 592.602061 -64.957058 
L 595.700034 -65.192579 
L 598.837221 -64.942028 
L 601.980441 -64.93714 
L 605.199075 -64.57892 
L 608.453907 -64.859027 
L 611.612209 -64.733667 
L 614.797661 -65.772562 
L 617.96803 -65.013531 
L 621.035837 -64.461506 
L 624.26352 -64.071134 
L 627.343394 -64.401767 
L 630.353887 -65.260807 
L 633.460909 -64.899769 
L 636.480452 -63.589106 
L 639.566358 -64.200447 
L 642.727677 -64.428247 
L 645.795485 -64.668292 
L 649.005068 -64.42711 
L 652.12114 -64.600166 
L 655.222129 -64.800531 
L 658.470928 -65.276681 
L 661.562867 -63.481743 
L 664.645757 -65.066335 
L 667.798027 -64.800247 
L 670.968396 -64.720534 
L 674.066368 -66.025461 
L 677.285002 -64.684775 
L 677.285002 -79.158691 
L 677.285002 -79.158691 
L 674.066368 -74.788494 
L 670.968396 -79.094937 
L 667.798027 -82.147001 
L 664.645757 -78.022288 
L 661.562867 -85.355047 
L 658.470928 -77.037651 
L 655.222129 -77.683081 
L 652.12114 -79.301073 
L 649.005068 -80.558413 
L 645.795485 -77.85158 
L 642.727677 -80.470578 
L 639.566358 -82.87825 
L 636.480452 -85.261839 
L 633.460909 -77.959189 
L 630.353887 -76.554379 
L 627.343394 -80.270847 
L 624.26352 -81.668121 
L 621.035837 -80.416121 
L 617.96803 -80.723402 
L 614.797661 -72.856204 
L 611.612209 -79.088927 
L 608.453907 -83.535952 
L 605.199075 -80.247563 
L 601.980441 -76.858676 
L 598.837221 -77.855815 
L 595.700034 -76.795408 
L 592.602061 -76.418179 
L 589.540287 -75.919313 
L 586.312604 -72.942906 
L 583.226698 -79.258842 
L 580.053312 -78.337051 
L 576.997571 -80.24492 
L 574.023276 -76.43543 
L 570.985634 -83.672001 
L 567.99324 -76.805383 
L 564.886218 -81.821153 
L 561.749031 -73.039364 
L 558.578662 -81.566394 
L 555.447508 -79.291305 
L 552.292221 -74.20764 
L 549.188216 -77.9326 
L 546.035946 -78.872384 
L 542.901775 -79.205479 
L 539.821902 -84.727672 
L 536.711864 -75.556901 
L 533.556577 -81.600678 
L 530.512902 -76.698246 
L 527.514475 -79.285691 
L 524.404437 -78.06389 
L 521.185803 -74.229501 
L 517.976219 -74.381283 
L 514.703288 -80.539872 
L 511.44544 -86.760141 
L 508.395732 -81.648673 
L 505.330941 -79.203414 
L 502.106275 -79.058075 
L 499.014335 -76.798913 
L 495.889214 -76.649236 
L 492.863638 -74.328003 
L 489.976823 -80.266321 
L 486.785338 -75.350686 
L 483.672283 -79.074215 
L 480.625592 -77.89154 
L 477.506503 -81.70489 
L 474.523159 -75.422655 
L 471.455352 -76.737562 
L 468.27895 -73.147642 
L 465.081432 -74.370716 
L 462.03474 -79.127579 
L 458.828173 -77.937191 
L 455.690986 -79.106326 
L 452.67446 -75.455947 
L 449.52219 -79.320656 
L 446.520746 -76.614619 
L 443.50422 -78.177469 
L 440.333851 -80.326547 
L 437.314308 -78.018408 
L 434.306831 -78.018747 
L 431.217909 -86.460366 
L 428.068655 -76.535605 
L 424.868121 -75.609583 
L 421.661554 -75.456853 
L 418.497218 -78.099383 
L 415.450526 -83.91268 
L 412.195694 -80.327078 
L 408.964995 -72.904357 
L 405.939419 -76.916611 
L 402.931942 -76.615369 
L 399.915416 -78.978688 
L 396.832526 -76.379357 
L 393.619926 -80.470021 
L 390.503854 -72.798569 
L 387.348568 -76.805278 
L 384.157083 -81.3149 
L 381.056094 -80.118609 
L 378.039568 -82.759992 
L 374.848083 -77.816752 
L 371.792342 -74.4042 
L 368.821064 -75.047611 
L 365.581315 -77.858577 
L 362.438094 -87.806774 
L 359.472849 -84.318692 
L 356.227067 -78.878864 
L 353.195458 -74.217679 
L 350.010006 -81.648296 
L 346.884885 -74.223069 
L 343.792946 -80.109185 
L 340.676874 -83.080665 
L 337.587951 -77.105561 
L 334.453781 -83.493669 
L 331.265312 -80.368782 
L 328.221637 -80.251266 
L 325.02412 -85.262516 
L 321.787387 -76.668821 
L 318.595902 -78.346659 
L 315.347104 -77.880336 
L 312.306445 -81.968317 
L 309.090828 -77.475079 
L 305.842029 -78.014896 
L 302.719925 -75.508913 
L 299.631002 -78.590258 
L 296.502864 -76.779777 
L 293.305346 -80.496772 
L 290.074647 -80.458755 
L 286.976674 -77.74467 
L 283.797256 -78.490314 
L 280.572589 -80.651711 
L 277.531931 -82.94991 
L 274.608917 -77.94786 
L 271.432515 -80.361645 
L 268.352642 -74.043809 
L 265.067645 -80.450323 
L 261.93649 -75.581367 
L 258.760088 -79.020767 
L 255.656083 -81.529083 
L 252.690837 -82.862138 
L 249.432989 -79.164226 
L 246.335017 -80.435 
L 243.161631 -80.483104 
L 239.825353 -77.986729 
L 236.709282 -76.712773 
L 233.750069 -75.466041 
L 230.51937 -79.101657 
L 227.508877 -78.067575 
L 224.438053 -82.539788 
L 221.324998 -81.573146 
L 218.230042 -76.902459 
L 215.059673 -87.904469 
L 211.853106 -79.087126 
L 208.667654 -79.262351 
L 205.639061 -77.966236 
L 202.468692 -77.875677 
L 199.316423 -78.025449 
L 196.221467 -76.547805 
L 193.051098 -84.4763 
L 189.832464 -79.134585 
L 186.788789 -80.415607 
L 183.772263 -77.918394 
L 180.595861 -77.983516 
L 177.464707 -73.725226 
L 174.053015 -77.881701 
L 171.01839 -72.811684 
L 167.953599 -77.217898 
L 164.789263 -80.346492 
L 161.676208 -84.243086 
L 158.587286 -77.840615 
L 155.380718 -84.92934 
L 152.306878 -79.548186 
L 149.199856 -79.199755 
L 145.954074 -77.691062 
L 142.810853 -81.081673 
L 139.718914 -79.113417 
L 136.572677 -76.710556 
L 133.405325 -79.247029 
L 130.268137 -79.218732 
L 127.158099 -80.45113 
L 124.04806 -78.134313 
L 121.064716 -76.893357 
L 117.942611 -79.970707 
L 114.769226 -78.06853 
L 111.622989 -74.338696 
L 108.546132 -74.016603 
L 105.496424 -82.809587 
L 102.341138 -79.852381 
L 99.270314 -79.016155 
L 96.226639 -76.576281 
L 93.05627 -81.551043 
L 89.940198 -76.683491 
L 86.929705 -83.033829 
L 83.822683 -79.147306 
L 80.794091 -79.597733 
z
" style="stroke: #ffa500; stroke-opacity: 0.2"/>
    </defs>
    <g clip-path="url(#pc380c8af16)">
     <use xlink:href="#md541a5b4b8" x="0" y="432" style="fill: #ffa500; fill-opacity: 0.2; stroke: #ffa500; stroke-opacity: 0.2"/>
    </g>
   </g>
   <g id="matplotlib.axis_1">
    <g id="xtick_1">
     <g id="line2d_1">
      <path d="M 79.261696 390.04 
L 79.261696 10.8 
" clip-path="url(#pc380c8af16)" style="fill: none; stroke: #b0b0b0; stroke-width: 0.8; stroke-linecap: square"/>
     </g>
     <g id="line2d_2">
      <defs>
       <path id="md9f0747867" d="M 0 0 
L 0 3.5 
" style="stroke: #000000; stroke-width: 0.8"/>
      </defs>
      <g>
       <use xlink:href="#md9f0747867" x="79.261696" y="390.04" style="stroke: #000000; stroke-width: 0.8"/>
      </g>
     </g>
     <g id="text_1">
      <!-- 0 -->
      <g transform="translate(76.080446 404.638438) scale(0.1 -0.1)">
       <defs>
        <path id="DejaVuSans-30" d="M 2034 4250 
Q 1547 4250 1301 3770 
Q 1056 3291 1056 2328 
Q 1056 1369 1301 889 
Q 1547 409 2034 409 
Q 2525 409 2770 889 
Q 3016 1369 3016 2328 
Q 3016 3291 2770 3770 
Q 2525 4250 2034 4250 
z
M 2034 4750 
Q 2819 4750 3233 4129 
Q 3647 3509 3647 2328 
Q 3647 1150 3233 529 
Q 2819 -91 2034 -91 
Q 1250 -91 836 529 
Q 422 1150 422 2328 
Q 422 3509 836 4129 
Q 1250 4750 2034 4750 
z
" transform="scale(0.015625)"/>
       </defs>
       <use xlink:href="#DejaVuSans-30"/>
      </g>
     </g>
    </g>
    <g id="xtick_2">
     <g id="line2d_3">
      <path d="M 154.674851 390.04 
L 154.674851 10.8 
" clip-path="url(#pc380c8af16)" style="fill: none; stroke: #b0b0b0; stroke-width: 0.8; stroke-linecap: square"/>
     </g>
     <g id="line2d_4">
      <g>
       <use xlink:href="#md9f0747867" x="154.674851" y="390.04" style="stroke: #000000; stroke-width: 0.8"/>
      </g>
     </g>
     <g id="text_2">
      <!-- 25000 -->
      <g transform="translate(138.768601 404.638438) scale(0.1 -0.1)">
       <defs>
        <path id="DejaVuSans-32" d="M 1228 531 
L 3431 531 
L 3431 0 
L 469 0 
L 469 531 
Q 828 903 1448 1529 
Q 2069 2156 2228 2338 
Q 2531 2678 2651 2914 
Q 2772 3150 2772 3378 
Q 2772 3750 2511 3984 
Q 2250 4219 1831 4219 
Q 1534 4219 1204 4116 
Q 875 4013 500 3803 
L 500 4441 
Q 881 4594 1212 4672 
Q 1544 4750 1819 4750 
Q 2544 4750 2975 4387 
Q 3406 4025 3406 3419 
Q 3406 3131 3298 2873 
Q 3191 2616 2906 2266 
Q 2828 2175 2409 1742 
Q 1991 1309 1228 531 
z
" transform="scale(0.015625)"/>
        <path id="DejaVuSans-35" d="M 691 4666 
L 3169 4666 
L 3169 4134 
L 1269 4134 
L 1269 2991 
Q 1406 3038 1543 3061 
Q 1681 3084 1819 3084 
Q 2600 3084 3056 2656 
Q 3513 2228 3513 1497 
Q 3513 744 3044 326 
Q 2575 -91 1722 -91 
Q 1428 -91 1123 -41 
Q 819 9 494 109 
L 494 744 
Q 775 591 1075 516 
Q 1375 441 1709 441 
Q 2250 441 2565 725 
Q 2881 1009 2881 1497 
Q 2881 1984 2565 2268 
Q 2250 2553 1709 2553 
Q 1456 2553 1204 2497 
Q 953 2441 691 2322 
L 691 4666 
z
" transform="scale(0.015625)"/>
       </defs>
       <use xlink:href="#DejaVuSans-32"/>
       <use xlink:href="#DejaVuSans-35" transform="translate(63.623047 0)"/>
       <use xlink:href="#DejaVuSans-30" transform="translate(127.246094 0)"/>
       <use xlink:href="#DejaVuSans-30" transform="translate(190.869141 0)"/>
       <use xlink:href="#DejaVuSans-30" transform="translate(254.492188 0)"/>
      </g>
     </g>
    </g>
    <g id="xtick_3">
     <g id="line2d_5">
      <path d="M 230.088006 390.04 
L 230.088006 10.8 
" clip-path="url(#pc380c8af16)" style="fill: none; stroke: #b0b0b0; stroke-width: 0.8; stroke-linecap: square"/>
     </g>
     <g id="line2d_6">
      <g>
       <use xlink:href="#md9f0747867" x="230.088006" y="390.04" style="stroke: #000000; stroke-width: 0.8"/>
      </g>
     </g>
     <g id="text_3">
      <!-- 50000 -->
      <g transform="translate(214.181756 404.638438) scale(0.1 -0.1)">
       <use xlink:href="#DejaVuSans-35"/>
       <use xlink:href="#DejaVuSans-30" transform="translate(63.623047 0)"/>
       <use xlink:href="#DejaVuSans-30" transform="translate(127.246094 0)"/>
       <use xlink:href="#DejaVuSans-30" transform="translate(190.869141 0)"/>
       <use xlink:href="#DejaVuSans-30" transform="translate(254.492188 0)"/>
      </g>
     </g>
    </g>
    <g id="xtick_4">
     <g id="line2d_7">
      <path d="M 305.501162 390.04 
L 305.501162 10.8 
" clip-path="url(#pc380c8af16)" style="fill: none; stroke: #b0b0b0; stroke-width: 0.8; stroke-linecap: square"/>
     </g>
     <g id="line2d_8">
      <g>
       <use xlink:href="#md9f0747867" x="305.501162" y="390.04" style="stroke: #000000; stroke-width: 0.8"/>
      </g>
     </g>
     <g id="text_4">
      <!-- 75000 -->
      <g transform="translate(289.594912 404.638438) scale(0.1 -0.1)">
       <defs>
        <path id="DejaVuSans-37" d="M 525 4666 
L 3525 4666 
L 3525 4397 
L 1831 0 
L 1172 0 
L 2766 4134 
L 525 4134 
L 525 4666 
z
" transform="scale(0.015625)"/>
       </defs>
       <use xlink:href="#DejaVuSans-37"/>
       <use xlink:href="#DejaVuSans-35" transform="translate(63.623047 0)"/>
       <use xlink:href="#DejaVuSans-30" transform="translate(127.246094 0)"/>
       <use xlink:href="#DejaVuSans-30" transform="translate(190.869141 0)"/>
       <use xlink:href="#DejaVuSans-30" transform="translate(254.492188 0)"/>
      </g>
     </g>
    </g>
    <g id="xtick_5">
     <g id="line2d_9">
      <path d="M 380.914317 390.04 
L 380.914317 10.8 
" clip-path="url(#pc380c8af16)" style="fill: none; stroke: #b0b0b0; stroke-width: 0.8; stroke-linecap: square"/>
     </g>
     <g id="line2d_10">
      <g>
       <use xlink:href="#md9f0747867" x="380.914317" y="390.04" style="stroke: #000000; stroke-width: 0.8"/>
      </g>
     </g>
     <g id="text_5">
      <!-- 100000 -->
      <g transform="translate(361.826817 404.638438) scale(0.1 -0.1)">
       <defs>
        <path id="DejaVuSans-31" d="M 794 531 
L 1825 531 
L 1825 4091 
L 703 3866 
L 703 4441 
L 1819 4666 
L 2450 4666 
L 2450 531 
L 3481 531 
L 3481 0 
L 794 0 
L 794 531 
z
" transform="scale(0.015625)"/>
       </defs>
       <use xlink:href="#DejaVuSans-31"/>
       <use xlink:href="#DejaVuSans-30" transform="translate(63.623047 0)"/>
       <use xlink:href="#DejaVuSans-30" transform="translate(127.246094 0)"/>
       <use xlink:href="#DejaVuSans-30" transform="translate(190.869141 0)"/>
       <use xlink:href="#DejaVuSans-30" transform="translate(254.492188 0)"/>
       <use xlink:href="#DejaVuSans-30" transform="translate(318.115234 0)"/>
      </g>
     </g>
    </g>
    <g id="xtick_6">
     <g id="line2d_11">
      <path d="M 456.327473 390.04 
L 456.327473 10.8 
" clip-path="url(#pc380c8af16)" style="fill: none; stroke: #b0b0b0; stroke-width: 0.8; stroke-linecap: square"/>
     </g>
     <g id="line2d_12">
      <g>
       <use xlink:href="#md9f0747867" x="456.327473" y="390.04" style="stroke: #000000; stroke-width: 0.8"/>
      </g>
     </g>
     <g id="text_6">
      <!-- 125000 -->
      <g transform="translate(437.239973 404.638438) scale(0.1 -0.1)">
       <use xlink:href="#DejaVuSans-31"/>
       <use xlink:href="#DejaVuSans-32" transform="translate(63.623047 0)"/>
       <use xlink:href="#DejaVuSans-35" transform="translate(127.246094 0)"/>
       <use xlink:href="#DejaVuSans-30" transform="translate(190.869141 0)"/>
       <use xlink:href="#DejaVuSans-30" transform="translate(254.492188 0)"/>
       <use xlink:href="#DejaVuSans-30" transform="translate(318.115234 0)"/>
      </g>
     </g>
    </g>
    <g id="xtick_7">
     <g id="line2d_13">
      <path d="M 531.740628 390.04 
L 531.740628 10.8 
" clip-path="url(#pc380c8af16)" style="fill: none; stroke: #b0b0b0; stroke-width: 0.8; stroke-linecap: square"/>
     </g>
     <g id="line2d_14">
      <g>
       <use xlink:href="#md9f0747867" x="531.740628" y="390.04" style="stroke: #000000; stroke-width: 0.8"/>
      </g>
     </g>
     <g id="text_7">
      <!-- 150000 -->
      <g transform="translate(512.653128 404.638438) scale(0.1 -0.1)">
       <use xlink:href="#DejaVuSans-31"/>
       <use xlink:href="#DejaVuSans-35" transform="translate(63.623047 0)"/>
       <use xlink:href="#DejaVuSans-30" transform="translate(127.246094 0)"/>
       <use xlink:href="#DejaVuSans-30" transform="translate(190.869141 0)"/>
       <use xlink:href="#DejaVuSans-30" transform="translate(254.492188 0)"/>
       <use xlink:href="#DejaVuSans-30" transform="translate(318.115234 0)"/>
      </g>
     </g>
    </g>
    <g id="xtick_8">
     <g id="line2d_15">
      <path d="M 607.153784 390.04 
L 607.153784 10.8 
" clip-path="url(#pc380c8af16)" style="fill: none; stroke: #b0b0b0; stroke-width: 0.8; stroke-linecap: square"/>
     </g>
     <g id="line2d_16">
      <g>
       <use xlink:href="#md9f0747867" x="607.153784" y="390.04" style="stroke: #000000; stroke-width: 0.8"/>
      </g>
     </g>
     <g id="text_8">
      <!-- 175000 -->
      <g transform="translate(588.066284 404.638438) scale(0.1 -0.1)">
       <use xlink:href="#DejaVuSans-31"/>
       <use xlink:href="#DejaVuSans-37" transform="translate(63.623047 0)"/>
       <use xlink:href="#DejaVuSans-35" transform="translate(127.246094 0)"/>
       <use xlink:href="#DejaVuSans-30" transform="translate(190.869141 0)"/>
       <use xlink:href="#DejaVuSans-30" transform="translate(254.492188 0)"/>
       <use xlink:href="#DejaVuSans-30" transform="translate(318.115234 0)"/>
      </g>
     </g>
    </g>
    <g id="xtick_9">
     <g id="line2d_17">
      <path d="M 682.566939 390.04 
L 682.566939 10.8 
" clip-path="url(#pc380c8af16)" style="fill: none; stroke: #b0b0b0; stroke-width: 0.8; stroke-linecap: square"/>
     </g>
     <g id="line2d_18">
      <g>
       <use xlink:href="#md9f0747867" x="682.566939" y="390.04" style="stroke: #000000; stroke-width: 0.8"/>
      </g>
     </g>
     <g id="text_9">
      <!-- 200000 -->
      <g transform="translate(663.479439 404.638438) scale(0.1 -0.1)">
       <use xlink:href="#DejaVuSans-32"/>
       <use xlink:href="#DejaVuSans-30" transform="translate(63.623047 0)"/>
       <use xlink:href="#DejaVuSans-30" transform="translate(127.246094 0)"/>
       <use xlink:href="#DejaVuSans-30" transform="translate(190.869141 0)"/>
       <use xlink:href="#DejaVuSans-30" transform="translate(254.492188 0)"/>
       <use xlink:href="#DejaVuSans-30" transform="translate(318.115234 0)"/>
      </g>
     </g>
    </g>
    <g id="text_10">
     <!-- Steps -->
     <g transform="translate(366.045156 418.316562) scale(0.1 -0.1)">
      <defs>
       <path id="DejaVuSans-53" d="M 3425 4513 
L 3425 3897 
Q 3066 4069 2747 4153 
Q 2428 4238 2131 4238 
Q 1616 4238 1336 4038 
Q 1056 3838 1056 3469 
Q 1056 3159 1242 3001 
Q 1428 2844 1947 2747 
L 2328 2669 
Q 3034 2534 3370 2195 
Q 3706 1856 3706 1288 
Q 3706 609 3251 259 
Q 2797 -91 1919 -91 
Q 1588 -91 1214 -16 
Q 841 59 441 206 
L 441 856 
Q 825 641 1194 531 
Q 1563 422 1919 422 
Q 2459 422 2753 634 
Q 3047 847 3047 1241 
Q 3047 1584 2836 1778 
Q 2625 1972 2144 2069 
L 1759 2144 
Q 1053 2284 737 2584 
Q 422 2884 422 3419 
Q 422 4038 858 4394 
Q 1294 4750 2059 4750 
Q 2388 4750 2728 4690 
Q 3069 4631 3425 4513 
z
" transform="scale(0.015625)"/>
       <path id="DejaVuSans-74" d="M 1172 4494 
L 1172 3500 
L 2356 3500 
L 2356 3053 
L 1172 3053 
L 1172 1153 
Q 1172 725 1289 603 
Q 1406 481 1766 481 
L 2356 481 
L 2356 0 
L 1766 0 
Q 1100 0 847 248 
Q 594 497 594 1153 
L 594 3053 
L 172 3053 
L 172 3500 
L 594 3500 
L 594 4494 
L 1172 4494 
z
" transform="scale(0.015625)"/>
       <path id="DejaVuSans-65" d="M 3597 1894 
L 3597 1613 
L 953 1613 
Q 991 1019 1311 708 
Q 1631 397 2203 397 
Q 2534 397 2845 478 
Q 3156 559 3463 722 
L 3463 178 
Q 3153 47 2828 -22 
Q 2503 -91 2169 -91 
Q 1331 -91 842 396 
Q 353 884 353 1716 
Q 353 2575 817 3079 
Q 1281 3584 2069 3584 
Q 2775 3584 3186 3129 
Q 3597 2675 3597 1894 
z
M 3022 2063 
Q 3016 2534 2758 2815 
Q 2500 3097 2075 3097 
Q 1594 3097 1305 2825 
Q 1016 2553 972 2059 
L 3022 2063 
z
" transform="scale(0.015625)"/>
       <path id="DejaVuSans-70" d="M 1159 525 
L 1159 -1331 
L 581 -1331 
L 581 3500 
L 1159 3500 
L 1159 2969 
Q 1341 3281 1617 3432 
Q 1894 3584 2278 3584 
Q 2916 3584 3314 3078 
Q 3713 2572 3713 1747 
Q 3713 922 3314 415 
Q 2916 -91 2278 -91 
Q 1894 -91 1617 61 
Q 1341 213 1159 525 
z
M 3116 1747 
Q 3116 2381 2855 2742 
Q 2594 3103 2138 3103 
Q 1681 3103 1420 2742 
Q 1159 2381 1159 1747 
Q 1159 1113 1420 752 
Q 1681 391 2138 391 
Q 2594 391 2855 752 
Q 3116 1113 3116 1747 
z
" transform="scale(0.015625)"/>
       <path id="DejaVuSans-73" d="M 2834 3397 
L 2834 2853 
Q 2591 2978 2328 3040 
Q 2066 3103 1784 3103 
Q 1356 3103 1142 2972 
Q 928 2841 928 2578 
Q 928 2378 1081 2264 
Q 1234 2150 1697 2047 
L 1894 2003 
Q 2506 1872 2764 1633 
Q 3022 1394 3022 966 
Q 3022 478 2636 193 
Q 2250 -91 1575 -91 
Q 1294 -91 989 -36 
Q 684 19 347 128 
L 347 722 
Q 666 556 975 473 
Q 1284 391 1588 391 
Q 1994 391 2212 530 
Q 2431 669 2431 922 
Q 2431 1156 2273 1281 
Q 2116 1406 1581 1522 
L 1381 1569 
Q 847 1681 609 1914 
Q 372 2147 372 2553 
Q 372 3047 722 3315 
Q 1072 3584 1716 3584 
Q 2034 3584 2315 3537 
Q 2597 3491 2834 3397 
z
" transform="scale(0.015625)"/>
      </defs>
      <use xlink:href="#DejaVuSans-53"/>
      <use xlink:href="#DejaVuSans-74" transform="translate(63.476562 0)"/>
      <use xlink:href="#DejaVuSans-65" transform="translate(102.685547 0)"/>
      <use xlink:href="#DejaVuSans-70" transform="translate(164.208984 0)"/>
      <use xlink:href="#DejaVuSans-73" transform="translate(227.685547 0)"/>
     </g>
    </g>
   </g>
   <g id="matplotlib.axis_2">
    <g id="ytick_1">
     <g id="line2d_19">
      <path d="M 50.87 372.801818 
L 709.2 372.801818 
" clip-path="url(#pc380c8af16)" style="fill: none; stroke: #b0b0b0; stroke-width: 0.8; stroke-linecap: square"/>
     </g>
     <g id="line2d_20">
      <defs>
       <path id="m1808c69b32" d="M 0 0 
L -3.5 0 
" style="stroke: #000000; stroke-width: 0.8"/>
      </defs>
      <g>
       <use xlink:href="#m1808c69b32" x="50.87" y="372.801818" style="stroke: #000000; stroke-width: 0.8"/>
      </g>
     </g>
     <g id="text_11">
      <!-- 0 -->
      <g transform="translate(37.5075 376.601037) scale(0.1 -0.1)">
       <use xlink:href="#DejaVuSans-30"/>
      </g>
     </g>
    </g>
    <g id="ytick_2">
     <g id="line2d_21">
      <path d="M 50.87 312.236712 
L 709.2 312.236712 
" clip-path="url(#pc380c8af16)" style="fill: none; stroke: #b0b0b0; stroke-width: 0.8; stroke-linecap: square"/>
     </g>
     <g id="line2d_22">
      <g>
       <use xlink:href="#m1808c69b32" x="50.87" y="312.236712" style="stroke: #000000; stroke-width: 0.8"/>
      </g>
     </g>
     <g id="text_12">
      <!-- 20 -->
      <g transform="translate(31.145 316.035931) scale(0.1 -0.1)">
       <use xlink:href="#DejaVuSans-32"/>
       <use xlink:href="#DejaVuSans-30" transform="translate(63.623047 0)"/>
      </g>
     </g>
    </g>
    <g id="ytick_3">
     <g id="line2d_23">
      <path d="M 50.87 251.671606 
L 709.2 251.671606 
" clip-path="url(#pc380c8af16)" style="fill: none; stroke: #b0b0b0; stroke-width: 0.8; stroke-linecap: square"/>
     </g>
     <g id="line2d_24">
      <g>
       <use xlink:href="#m1808c69b32" x="50.87" y="251.671606" style="stroke: #000000; stroke-width: 0.8"/>
      </g>
     </g>
     <g id="text_13">
      <!-- 40 -->
      <g transform="translate(31.145 255.470825) scale(0.1 -0.1)">
       <defs>
        <path id="DejaVuSans-34" d="M 2419 4116 
L 825 1625 
L 2419 1625 
L 2419 4116 
z
M 2253 4666 
L 3047 4666 
L 3047 1625 
L 3713 1625 
L 3713 1100 
L 3047 1100 
L 3047 0 
L 2419 0 
L 2419 1100 
L 313 1100 
L 313 1709 
L 2253 4666 
z
" transform="scale(0.015625)"/>
       </defs>
       <use xlink:href="#DejaVuSans-34"/>
       <use xlink:href="#DejaVuSans-30" transform="translate(63.623047 0)"/>
      </g>
     </g>
    </g>
    <g id="ytick_4">
     <g id="line2d_25">
      <path d="M 50.87 191.1065 
L 709.2 191.1065 
" clip-path="url(#pc380c8af16)" style="fill: none; stroke: #b0b0b0; stroke-width: 0.8; stroke-linecap: square"/>
     </g>
     <g id="line2d_26">
      <g>
       <use xlink:href="#m1808c69b32" x="50.87" y="191.1065" style="stroke: #000000; stroke-width: 0.8"/>
      </g>
     </g>
     <g id="text_14">
      <!-- 60 -->
      <g transform="translate(31.145 194.905719) scale(0.1 -0.1)">
       <defs>
        <path id="DejaVuSans-36" d="M 2113 2584 
Q 1688 2584 1439 2293 
Q 1191 2003 1191 1497 
Q 1191 994 1439 701 
Q 1688 409 2113 409 
Q 2538 409 2786 701 
Q 3034 994 3034 1497 
Q 3034 2003 2786 2293 
Q 2538 2584 2113 2584 
z
M 3366 4563 
L 3366 3988 
Q 3128 4100 2886 4159 
Q 2644 4219 2406 4219 
Q 1781 4219 1451 3797 
Q 1122 3375 1075 2522 
Q 1259 2794 1537 2939 
Q 1816 3084 2150 3084 
Q 2853 3084 3261 2657 
Q 3669 2231 3669 1497 
Q 3669 778 3244 343 
Q 2819 -91 2113 -91 
Q 1303 -91 875 529 
Q 447 1150 447 2328 
Q 447 3434 972 4092 
Q 1497 4750 2381 4750 
Q 2619 4750 2861 4703 
Q 3103 4656 3366 4563 
z
" transform="scale(0.015625)"/>
       </defs>
       <use xlink:href="#DejaVuSans-36"/>
       <use xlink:href="#DejaVuSans-30" transform="translate(63.623047 0)"/>
      </g>
     </g>
    </g>
    <g id="ytick_5">
     <g id="line2d_27">
      <path d="M 50.87 130.541394 
L 709.2 130.541394 
" clip-path="url(#pc380c8af16)" style="fill: none; stroke: #b0b0b0; stroke-width: 0.8; stroke-linecap: square"/>
     </g>
     <g id="line2d_28">
      <g>
       <use xlink:href="#m1808c69b32" x="50.87" y="130.541394" style="stroke: #000000; stroke-width: 0.8"/>
      </g>
     </g>
     <g id="text_15">
      <!-- 80 -->
      <g transform="translate(31.145 134.340613) scale(0.1 -0.1)">
       <defs>
        <path id="DejaVuSans-38" d="M 2034 2216 
Q 1584 2216 1326 1975 
Q 1069 1734 1069 1313 
Q 1069 891 1326 650 
Q 1584 409 2034 409 
Q 2484 409 2743 651 
Q 3003 894 3003 1313 
Q 3003 1734 2745 1975 
Q 2488 2216 2034 2216 
z
M 1403 2484 
Q 997 2584 770 2862 
Q 544 3141 544 3541 
Q 544 4100 942 4425 
Q 1341 4750 2034 4750 
Q 2731 4750 3128 4425 
Q 3525 4100 3525 3541 
Q 3525 3141 3298 2862 
Q 3072 2584 2669 2484 
Q 3125 2378 3379 2068 
Q 3634 1759 3634 1313 
Q 3634 634 3220 271 
Q 2806 -91 2034 -91 
Q 1263 -91 848 271 
Q 434 634 434 1313 
Q 434 1759 690 2068 
Q 947 2378 1403 2484 
z
M 1172 3481 
Q 1172 3119 1398 2916 
Q 1625 2713 2034 2713 
Q 2441 2713 2670 2916 
Q 2900 3119 2900 3481 
Q 2900 3844 2670 4047 
Q 2441 4250 2034 4250 
Q 1625 4250 1398 4047 
Q 1172 3844 1172 3481 
z
" transform="scale(0.015625)"/>
       </defs>
       <use xlink:href="#DejaVuSans-38"/>
       <use xlink:href="#DejaVuSans-30" transform="translate(63.623047 0)"/>
      </g>
     </g>
    </g>
    <g id="ytick_6">
     <g id="line2d_29">
      <path d="M 50.87 69.976288 
L 709.2 69.976288 
" clip-path="url(#pc380c8af16)" style="fill: none; stroke: #b0b0b0; stroke-width: 0.8; stroke-linecap: square"/>
     </g>
     <g id="line2d_30">
      <g>
       <use xlink:href="#m1808c69b32" x="50.87" y="69.976288" style="stroke: #000000; stroke-width: 0.8"/>
      </g>
     </g>
     <g id="text_16">
      <!-- 100 -->
      <g transform="translate(24.7825 73.775507) scale(0.1 -0.1)">
       <use xlink:href="#DejaVuSans-31"/>
       <use xlink:href="#DejaVuSans-30" transform="translate(63.623047 0)"/>
       <use xlink:href="#DejaVuSans-30" transform="translate(127.246094 0)"/>
      </g>
     </g>
    </g>
    <g id="text_17">
     <!-- Reward -->
     <g transform="translate(18.702813 219.041094) rotate(-90) scale(0.1 -0.1)">
      <defs>
       <path id="DejaVuSans-52" d="M 2841 2188 
Q 3044 2119 3236 1894 
Q 3428 1669 3622 1275 
L 4263 0 
L 3584 0 
L 2988 1197 
Q 2756 1666 2539 1819 
Q 2322 1972 1947 1972 
L 1259 1972 
L 1259 0 
L 628 0 
L 628 4666 
L 2053 4666 
Q 2853 4666 3247 4331 
Q 3641 3997 3641 3322 
Q 3641 2881 3436 2590 
Q 3231 2300 2841 2188 
z
M 1259 4147 
L 1259 2491 
L 2053 2491 
Q 2509 2491 2742 2702 
Q 2975 2913 2975 3322 
Q 2975 3731 2742 3939 
Q 2509 4147 2053 4147 
L 1259 4147 
z
" transform="scale(0.015625)"/>
       <path id="DejaVuSans-77" d="M 269 3500 
L 844 3500 
L 1563 769 
L 2278 3500 
L 2956 3500 
L 3675 769 
L 4391 3500 
L 4966 3500 
L 4050 0 
L 3372 0 
L 2619 2869 
L 1863 0 
L 1184 0 
L 269 3500 
z
" transform="scale(0.015625)"/>
       <path id="DejaVuSans-61" d="M 2194 1759 
Q 1497 1759 1228 1600 
Q 959 1441 959 1056 
Q 959 750 1161 570 
Q 1363 391 1709 391 
Q 2188 391 2477 730 
Q 2766 1069 2766 1631 
L 2766 1759 
L 2194 1759 
z
M 3341 1997 
L 3341 0 
L 2766 0 
L 2766 531 
Q 2569 213 2275 61 
Q 1981 -91 1556 -91 
Q 1019 -91 701 211 
Q 384 513 384 1019 
Q 384 1609 779 1909 
Q 1175 2209 1959 2209 
L 2766 2209 
L 2766 2266 
Q 2766 2663 2505 2880 
Q 2244 3097 1772 3097 
Q 1472 3097 1187 3025 
Q 903 2953 641 2809 
L 641 3341 
Q 956 3463 1253 3523 
Q 1550 3584 1831 3584 
Q 2591 3584 2966 3190 
Q 3341 2797 3341 1997 
z
" transform="scale(0.015625)"/>
       <path id="DejaVuSans-72" d="M 2631 2963 
Q 2534 3019 2420 3045 
Q 2306 3072 2169 3072 
Q 1681 3072 1420 2755 
Q 1159 2438 1159 1844 
L 1159 0 
L 581 0 
L 581 3500 
L 1159 3500 
L 1159 2956 
Q 1341 3275 1631 3429 
Q 1922 3584 2338 3584 
Q 2397 3584 2469 3576 
Q 2541 3569 2628 3553 
L 2631 2963 
z
" transform="scale(0.015625)"/>
       <path id="DejaVuSans-64" d="M 2906 2969 
L 2906 4863 
L 3481 4863 
L 3481 0 
L 2906 0 
L 2906 525 
Q 2725 213 2448 61 
Q 2172 -91 1784 -91 
Q 1150 -91 751 415 
Q 353 922 353 1747 
Q 353 2572 751 3078 
Q 1150 3584 1784 3584 
Q 2172 3584 2448 3432 
Q 2725 3281 2906 2969 
z
M 947 1747 
Q 947 1113 1208 752 
Q 1469 391 1925 391 
Q 2381 391 2643 752 
Q 2906 1113 2906 1747 
Q 2906 2381 2643 2742 
Q 2381 3103 1925 3103 
Q 1469 3103 1208 2742 
Q 947 2381 947 1747 
z
" transform="scale(0.015625)"/>
      </defs>
      <use xlink:href="#DejaVuSans-52"/>
      <use xlink:href="#DejaVuSans-65" transform="translate(64.982422 0)"/>
      <use xlink:href="#DejaVuSans-77" transform="translate(126.505859 0)"/>
      <use xlink:href="#DejaVuSans-61" transform="translate(208.292969 0)"/>
      <use xlink:href="#DejaVuSans-72" transform="translate(269.572266 0)"/>
      <use xlink:href="#DejaVuSans-64" transform="translate(308.935547 0)"/>
     </g>
    </g>
   </g>
   <g id="line2d_31">
    <path d="M 80.797107 357.495973 
L 83.867931 359.71537 
L 86.836193 360.599233 
L 89.961314 355.670535 
L 93.222179 358.008348 
L 96.326184 355.029335 
L 99.608165 348.322445 
L 102.926344 347.847884 
L 106.247539 344.504185 
L 109.496338 332.702833 
L 112.630509 309.542731 
L 115.942654 279.609342 
L 119.221618 252.274032 
L 122.630293 212.160753 
L 126.108348 183.272095 
L 129.574336 161.590168 
L 133.007143 142.226338 
L 136.485198 113.837381 
L 139.851641 88.704993 
L 143.085357 77.379144 
L 146.297958 70.237088 
L 149.423079 67.119488 
L 152.572332 61.474865 
L 155.652206 60.427476 
L 158.723029 67.141919 
L 161.821002 57.352972 
L 164.87071 57.331415 
L 167.9355 61.894374 
L 171.003307 58.334043 
L 174.046982 56.303698 
L 177.09669 59.864983 
L 180.137349 58.382876 
L 183.178007 55.248284 
L 186.218666 57.317839 
L 189.259324 54.759305 
L 192.302999 57.343433 
L 195.325558 55.798372 
L 198.366217 57.833926 
L 201.421958 55.756526 
L 204.468649 55.264805 
L 207.521374 55.762106 
L 210.568065 55.25867 
L 213.590625 58.394888 
L 216.62525 57.274439 
L 219.677975 55.273923 
L 222.718633 55.81145 
L 225.753258 57.364608 
L 228.781851 60.925035 
L 231.816476 56.310282 
L 234.863167 54.745448 
L 237.918909 56.310439 
L 240.950517 56.777575 
L 244.012292 57.828711 
L 247.065016 58.325956 
L 250.132823 57.322903 
L 253.182531 55.264121 
L 256.259388 80.226354 
L 259.42674 73.118821 
L 265.616652 63.931649 
L 268.765906 64.940019 
L 271.884994 64.474161 
L 274.988999 61.919693 
L 278.068873 57.829036 
L 281.151762 57.832979 
L 284.225603 57.315152 
L 287.341674 61.376116 
L 290.415514 60.847427 
L 293.459189 58.828102 
L 296.58431 65.477069 
L 299.640052 87.110341 
L 302.683726 95.989775 
L 305.751534 93.016286 
L 308.834423 84.289847 
L 311.902231 74.130286 
L 314.967021 70.59943 
L 317.995614 72.111483 
L 321.039288 138.816191 
L 324.079947 111.027502 
L 327.174903 96.709911 
L 330.275892 91.640163 
L 333.349732 101.809571 
L 336.40849 83.913014 
L 339.464231 103.807833 
L 342.622534 93.185319 
L 345.675258 74.80165 
L 348.749098 86.042539 
L 351.792773 81.905432 
L 354.86058 79.385655 
L 357.931404 116.641758 
L 361.032393 95.706566 
L 364.051936 89.059842 
L 367.086561 89.74069 
L 370.103087 100.176338 
L 373.125647 86.606294 
L 376.148206 93.395025 
L 379.158699 90.243789 
L 382.178242 91.130485 
L 385.200801 95.925929 
L 388.22336 119.699898 
L 391.257986 97.055143 
L 394.280545 92.773981 
L 397.275956 80.791242 
L 400.298515 86.913987 
L 403.315041 81.292239 
L 406.340617 84.369916 
L 409.366193 75.531903 
L 412.385735 84.260501 
L 415.402262 85.641514 
L 418.424821 78.53439 
L 421.441347 68.162391 
L 424.463906 75.267519 
L 427.483449 69.593718 
L 430.502992 70.767167 
L 433.519518 76.204848 
L 436.536044 79.278258 
L 439.555587 84.747489 
L 442.572113 89.227698 
L 445.58864 74.800579 
L 448.620248 83.222449 
L 451.663923 83.331326 
L 454.692516 61.517317 
L 457.718091 55.282223 
L 460.737634 55.774303 
L 463.75416 54.734765 
L 466.764654 56.84561 
L 469.763081 56.800214 
L 472.788656 61.929058 
L 475.796133 54.235232 
L 478.809643 56.292393 
L 481.829185 55.792854 
L 484.845712 53.711153 
L 487.862238 53.204464 
L 490.878764 53.20424 
L 493.89529 54.764027 
L 496.911817 53.725391 
L 499.931359 54.231889 
L 502.950902 54.250911 
L 508.983955 55.246927 
L 512.051762 109.156573 
L 515.415188 91.652427 
L 518.458863 54.748942 
L 521.478406 53.713654 
L 524.500965 53.20443 
L 527.517492 54.218201 
L 530.537034 54.730402 
L 533.553561 54.227857 
L 536.579136 62.516517 
L 539.595663 110.103923 
L 542.615205 78.401674 
L 545.704128 54.744253 
L 548.723671 54.750736 
L 551.637635 91.257526 
L 554.545567 58.392067 
L 557.562093 56.81461 
L 560.578619 54.244518 
L 563.598162 54.763483 
L 566.614688 53.716116 
L 575.6703 53.715936 
L 578.686826 56.764414 
L 581.706369 53.71011 
L 584.722895 53.709555 
L 587.739421 54.250681 
L 593.78454 53.20424 
L 596.801066 54.226882 
L 599.829658 60.88989 
L 602.906515 53.204352 
L 605.926058 53.714333 
L 609.02403 60.371369 
L 612.046589 53.727421 
L 615.31952 109.400818 
L 618.459724 55.260302 
L 621.491333 53.715168 
L 624.646619 65.974718 
L 627.681245 113.92091 
L 630.70682 101.520401 
L 633.726363 58.924356 
L 636.745906 53.204453 
L 639.762432 53.727337 
L 642.781975 53.204296 
L 645.798501 53.20424 
L 648.950771 77.729233 
L 652.075892 55.251284 
L 655.098451 53.712117 
L 658.124027 53.727477 
L 661.14357 54.223904 
L 664.166129 54.238759 
L 667.194722 53.204296 
L 673.23984 53.204408 
L 676.259383 53.727337 
L 679.275909 53.204599 
L 679.275909 53.204599 
" clip-path="url(#pc380c8af16)" style="fill: none; stroke: #0000ff; stroke-width: 1.5; stroke-linecap: square"/>
   </g>
   <g id="line2d_32">
    <path d="M 80.794091 359.680842 
L 83.822683 360.103671 
L 86.929705 358.493194 
L 89.940198 361.085616 
L 93.05627 359.156668 
L 96.226639 361.21458 
L 99.270314 360.139404 
L 105.496424 358.550899 
L 108.546132 362.3182 
L 111.622989 362.08139 
L 114.769226 360.516057 
L 117.942611 359.238537 
L 121.064716 360.867464 
L 124.04806 360.45201 
L 127.158099 359.456762 
L 130.268137 360.001966 
L 133.405325 359.971846 
L 136.572677 361.196506 
L 142.810853 358.939413 
L 145.954074 360.741539 
L 149.199856 359.984929 
L 152.306878 359.699477 
L 155.380718 357.223929 
L 158.587286 360.705177 
L 161.676208 357.918246 
L 164.789263 359.673367 
L 167.953599 360.620526 
L 171.01839 362.653669 
L 174.053015 360.649822 
L 177.464707 362.388641 
L 180.595861 360.522792 
L 183.772263 360.557634 
L 186.788789 359.521118 
L 189.832464 360.055078 
L 193.051098 357.540869 
L 196.221467 361.202333 
L 199.316423 360.561756 
L 202.468692 360.611576 
L 205.639061 360.514033 
L 208.667654 359.994805 
L 211.853106 360.139426 
L 215.059673 356.289768 
L 218.230042 360.938117 
L 221.324998 359.14299 
L 224.438053 358.864234 
L 227.508877 360.43504 
L 230.51937 360.059206 
L 233.750069 361.551614 
L 239.825353 360.586475 
L 243.161631 359.531807 
L 246.335017 359.548832 
L 249.432989 360.088731 
L 252.690837 358.521284 
L 255.656083 359.13727 
L 261.93649 361.405568 
L 265.067645 359.605803 
L 268.352642 362.278692 
L 271.432515 359.5299 
L 274.608917 360.514694 
L 277.531931 358.566349 
L 286.976674 360.753366 
L 290.074647 359.480635 
L 293.305346 359.466122 
L 296.502864 361.031685 
L 299.631002 359.940122 
L 302.719925 361.533248 
L 305.842029 360.511375 
L 309.090828 360.395964 
L 312.306445 358.798257 
L 315.347104 360.538993 
L 318.595902 360.106194 
L 321.787387 361.165797 
L 325.02412 357.478874 
L 328.221637 359.64411 
L 331.265312 359.679148 
L 334.453781 357.957737 
L 337.587951 360.670336 
L 340.676874 358.279248 
L 343.792946 359.80038 
L 346.884885 362.222182 
L 350.010006 359.101032 
L 353.195458 362.101254 
L 356.227067 360.328031 
L 359.472849 357.903396 
L 362.438094 356.536761 
L 365.581315 360.547927 
L 368.821064 361.383686 
L 371.792342 361.973601 
L 374.848083 360.74778 
L 378.039568 358.707191 
L 381.056094 359.723669 
L 384.157083 359.342889 
L 390.503854 362.84058 
L 393.619926 359.524455 
L 396.832526 361.438587 
L 399.915416 360.247473 
L 402.931942 361.161008 
L 405.939419 361.062001 
L 408.964995 362.621541 
L 412.195694 359.583562 
L 415.450526 358.23794 
L 418.497218 360.508167 
L 421.661554 361.580321 
L 424.868121 361.519632 
L 428.068655 361.073593 
L 431.217909 357.08708 
L 434.306831 360.59943 
L 437.314308 360.596401 
L 440.333851 359.716183 
L 443.50422 360.330066 
L 446.520746 361.052827 
L 449.52219 360.020932 
L 452.67446 361.643538 
L 455.690986 360.103048 
L 458.828173 360.498813 
L 462.03474 360.13632 
L 465.081432 362.095449 
L 468.27895 362.555553 
L 471.455352 361.045004 
L 474.523159 361.733365 
L 477.506503 359.032044 
L 480.625592 360.736172 
L 483.672283 360.176298 
L 486.785338 361.723176 
L 489.976823 359.580612 
L 492.863638 362.105398 
L 495.889214 361.149243 
L 499.014335 361.13782 
L 502.106275 360.167326 
L 505.330941 360.097356 
L 508.395732 359.130445 
L 511.44544 356.813208 
L 517.976219 362.063255 
L 521.185803 362.201203 
L 524.404437 360.275423 
L 527.514475 359.91907 
L 530.512902 361.216319 
L 533.556577 359.13745 
L 536.711864 361.584229 
L 539.821902 357.447605 
L 542.901775 360.137105 
L 546.035946 360.424082 
L 549.188216 360.563937 
L 552.292221 362.157439 
L 555.447508 360.089023 
L 558.578662 359.034366 
L 561.749031 362.580615 
L 564.886218 358.823728 
L 567.99324 361.094762 
L 570.985634 358.326847 
L 574.023276 361.32902 
L 576.997571 359.739237 
L 580.053312 360.056048 
L 583.226698 360.050541 
L 586.312604 362.650871 
L 589.540287 361.211827 
L 592.602061 361.312382 
L 598.837221 360.601078 
L 601.980441 361.102092 
L 605.199075 359.586759 
L 608.453907 357.802511 
L 611.612209 360.088703 
L 614.797661 362.685617 
L 617.96803 359.131533 
L 621.035837 359.561187 
L 624.26352 359.130372 
L 627.343394 359.663693 
L 630.353887 361.092407 
L 633.460909 360.570521 
L 636.480452 357.574528 
L 639.566358 358.460651 
L 642.727677 359.550588 
L 645.795485 360.740064 
L 649.005068 359.507239 
L 652.12114 360.049381 
L 655.222129 360.758194 
L 658.470928 360.842834 
L 661.562867 357.581605 
L 664.645757 360.455688 
L 667.798027 358.526376 
L 674.066368 361.593023 
L 677.285002 360.078267 
L 677.285002 360.078267 
" clip-path="url(#pc380c8af16)" style="fill: none; stroke: #ffa500; stroke-width: 1.5; stroke-linecap: square"/>
   </g>
   <g id="patch_3">
    <path d="M 50.87 390.04 
L 50.87 10.8 
" style="fill: none; stroke: #000000; stroke-width: 0.8; stroke-linejoin: miter; stroke-linecap: square"/>
   </g>
   <g id="patch_4">
    <path d="M 709.2 390.04 
L 709.2 10.8 
" style="fill: none; stroke: #000000; stroke-width: 0.8; stroke-linejoin: miter; stroke-linecap: square"/>
   </g>
   <g id="patch_5">
    <path d="M 50.87 390.04 
L 709.2 390.04 
" style="fill: none; stroke: #000000; stroke-width: 0.8; stroke-linejoin: miter; stroke-linecap: square"/>
   </g>
   <g id="patch_6">
    <path d="M 50.87 10.8 
L 709.2 10.8 
" style="fill: none; stroke: #000000; stroke-width: 0.8; stroke-linejoin: miter; stroke-linecap: square"/>
   </g>
   <g id="legend_1">
    <g id="patch_7">
     <path d="M 628.803125 385.04 
L 702.2 385.04 
Q 704.2 385.04 704.2 383.04 
L 704.2 340.005625 
Q 704.2 338.005625 702.2 338.005625 
L 628.803125 338.005625 
Q 626.803125 338.005625 626.803125 340.005625 
L 626.803125 383.04 
Q 626.803125 385.04 628.803125 385.04 
z
" style="fill: #ffffff; opacity: 0.8; stroke: #cccccc; stroke-linejoin: miter"/>
    </g>
    <g id="text_18">
     <!-- Agent -->
     <g transform="translate(650.701563 349.604062) scale(0.1 -0.1)">
      <defs>
       <path id="DejaVuSans-41" d="M 2188 4044 
L 1331 1722 
L 3047 1722 
L 2188 4044 
z
M 1831 4666 
L 2547 4666 
L 4325 0 
L 3669 0 
L 3244 1197 
L 1141 1197 
L 716 0 
L 50 0 
L 1831 4666 
z
" transform="scale(0.015625)"/>
       <path id="DejaVuSans-67" d="M 2906 1791 
Q 2906 2416 2648 2759 
Q 2391 3103 1925 3103 
Q 1463 3103 1205 2759 
Q 947 2416 947 1791 
Q 947 1169 1205 825 
Q 1463 481 1925 481 
Q 2391 481 2648 825 
Q 2906 1169 2906 1791 
z
M 3481 434 
Q 3481 -459 3084 -895 
Q 2688 -1331 1869 -1331 
Q 1566 -1331 1297 -1286 
Q 1028 -1241 775 -1147 
L 775 -588 
Q 1028 -725 1275 -790 
Q 1522 -856 1778 -856 
Q 2344 -856 2625 -561 
Q 2906 -266 2906 331 
L 2906 616 
Q 2728 306 2450 153 
Q 2172 0 1784 0 
Q 1141 0 747 490 
Q 353 981 353 1791 
Q 353 2603 747 3093 
Q 1141 3584 1784 3584 
Q 2172 3584 2450 3431 
Q 2728 3278 2906 2969 
L 2906 3500 
L 3481 3500 
L 3481 434 
z
" transform="scale(0.015625)"/>
       <path id="DejaVuSans-6e" d="M 3513 2113 
L 3513 0 
L 2938 0 
L 2938 2094 
Q 2938 2591 2744 2837 
Q 2550 3084 2163 3084 
Q 1697 3084 1428 2787 
Q 1159 2491 1159 1978 
L 1159 0 
L 581 0 
L 581 3500 
L 1159 3500 
L 1159 2956 
Q 1366 3272 1645 3428 
Q 1925 3584 2291 3584 
Q 2894 3584 3203 3211 
Q 3513 2838 3513 2113 
z
" transform="scale(0.015625)"/>
      </defs>
      <use xlink:href="#DejaVuSans-41"/>
      <use xlink:href="#DejaVuSans-67" transform="translate(68.408203 0)"/>
      <use xlink:href="#DejaVuSans-65" transform="translate(131.884766 0)"/>
      <use xlink:href="#DejaVuSans-6e" transform="translate(193.408203 0)"/>
      <use xlink:href="#DejaVuSans-74" transform="translate(256.787109 0)"/>
     </g>
    </g>
    <g id="line2d_33">
     <path d="M 630.803125 360.782187 
L 640.803125 360.782187 
L 650.803125 360.782187 
" style="fill: none; stroke: #0000ff; stroke-width: 1.5; stroke-linecap: square"/>
    </g>
    <g id="text_19">
     <!-- PPO -->
     <g transform="translate(658.803125 364.282187) scale(0.1 -0.1)">
      <defs>
       <path id="DejaVuSans-50" d="M 1259 4147 
L 1259 2394 
L 2053 2394 
Q 2494 2394 2734 2622 
Q 2975 2850 2975 3272 
Q 2975 3691 2734 3919 
Q 2494 4147 2053 4147 
L 1259 4147 
z
M 628 4666 
L 2053 4666 
Q 2838 4666 3239 4311 
Q 3641 3956 3641 3272 
Q 3641 2581 3239 2228 
Q 2838 1875 2053 1875 
L 1259 1875 
L 1259 0 
L 628 0 
L 628 4666 
z
" transform="scale(0.015625)"/>
       <path id="DejaVuSans-4f" d="M 2522 4238 
Q 1834 4238 1429 3725 
Q 1025 3213 1025 2328 
Q 1025 1447 1429 934 
Q 1834 422 2522 422 
Q 3209 422 3611 934 
Q 4013 1447 4013 2328 
Q 4013 3213 3611 3725 
Q 3209 4238 2522 4238 
z
M 2522 4750 
Q 3503 4750 4090 4092 
Q 4678 3434 4678 2328 
Q 4678 1225 4090 567 
Q 3503 -91 2522 -91 
Q 1538 -91 948 565 
Q 359 1222 359 2328 
Q 359 3434 948 4092 
Q 1538 4750 2522 4750 
z
" transform="scale(0.015625)"/>
      </defs>
      <use xlink:href="#DejaVuSans-50"/>
      <use xlink:href="#DejaVuSans-50" transform="translate(60.302734 0)"/>
      <use xlink:href="#DejaVuSans-4f" transform="translate(120.605469 0)"/>
     </g>
    </g>
    <g id="line2d_34">
     <path d="M 630.803125 375.460312 
L 640.803125 375.460312 
L 650.803125 375.460312 
" style="fill: none; stroke: #ffa500; stroke-width: 1.5; stroke-linecap: square"/>
    </g>
    <g id="text_20">
     <!-- Random -->
     <g transform="translate(658.803125 378.960312) scale(0.1 -0.1)">
      <defs>
       <path id="DejaVuSans-6f" d="M 1959 3097 
Q 1497 3097 1228 2736 
Q 959 2375 959 1747 
Q 959 1119 1226 758 
Q 1494 397 1959 397 
Q 2419 397 2687 759 
Q 2956 1122 2956 1747 
Q 2956 2369 2687 2733 
Q 2419 3097 1959 3097 
z
M 1959 3584 
Q 2709 3584 3137 3096 
Q 3566 2609 3566 1747 
Q 3566 888 3137 398 
Q 2709 -91 1959 -91 
Q 1206 -91 779 398 
Q 353 888 353 1747 
Q 353 2609 779 3096 
Q 1206 3584 1959 3584 
z
" transform="scale(0.015625)"/>
       <path id="DejaVuSans-6d" d="M 3328 2828 
Q 3544 3216 3844 3400 
Q 4144 3584 4550 3584 
Q 5097 3584 5394 3201 
Q 5691 2819 5691 2113 
L 5691 0 
L 5113 0 
L 5113 2094 
Q 5113 2597 4934 2840 
Q 4756 3084 4391 3084 
Q 3944 3084 3684 2787 
Q 3425 2491 3425 1978 
L 3425 0 
L 2847 0 
L 2847 2094 
Q 2847 2600 2669 2842 
Q 2491 3084 2119 3084 
Q 1678 3084 1418 2786 
Q 1159 2488 1159 1978 
L 1159 0 
L 581 0 
L 581 3500 
L 1159 3500 
L 1159 2956 
Q 1356 3278 1631 3431 
Q 1906 3584 2284 3584 
Q 2666 3584 2933 3390 
Q 3200 3197 3328 2828 
z
" transform="scale(0.015625)"/>
      </defs>
      <use xlink:href="#DejaVuSans-52"/>
      <use xlink:href="#DejaVuSans-61" transform="translate(67.232422 0)"/>
      <use xlink:href="#DejaVuSans-6e" transform="translate(128.511719 0)"/>
      <use xlink:href="#DejaVuSans-64" transform="translate(191.890625 0)"/>
      <use xlink:href="#DejaVuSans-6f" transform="translate(255.367188 0)"/>
      <use xlink:href="#DejaVuSans-6d" transform="translate(316.548828 0)"/>
     </g>
    </g>
   </g>
  </g>
 </g>
 <defs>
  <clipPath id="pc380c8af16">
   <rect x="50.87" y="10.8" width="658.33" height="379.24"/>
  </clipPath>
 </defs>
</svg>
