<?xml version="1.0" encoding="utf-8" standalone="no"?>
<!DOCTYPE svg PUBLIC "-//W3C//DTD SVG 1.1//EN"
  "http://www.w3.org/Graphics/SVG/1.1/DTD/svg11.dtd">
<svg xmlns:xlink="http://www.w3.org/1999/xlink" width="720pt" height="432pt" viewBox="0 0 720 432" xmlns="http://www.w3.org/2000/svg" version="1.1">
 <metadata>
  <rdf:RDF xmlns:dc="http://purl.org/dc/elements/1.1/" xmlns:cc="http://creativecommons.org/ns#" xmlns:rdf="http://www.w3.org/1999/02/22-rdf-syntax-ns#">
   <cc:Work>
    <dc:type rdf:resource="http://purl.org/dc/dcmitype/StillImage"/>
    <dc:date>2025-04-15T17:21:28.863467</dc:date>
    <dc:format>image/svg+xml</dc:format>
    <dc:creator>
     <cc:Agent>
      <dc:title>Matplotlib v3.10.0, https://matplotlib.org/</dc:title>
     </cc:Agent>
    </dc:creator>
   </cc:Work>
  </rdf:RDF>
 </metadata>
 <defs>
  <style type="text/css">*{stroke-linejoin: round; stroke-linecap: butt}</style>
 </defs>
 <g id="figure_1">
  <g id="patch_1">
   <path d="M 0 432 
L 720 432 
L 720 0 
L 0 0 
z
" style="fill: #ffffff"/>
  </g>
  <g id="axes_1">
   <g id="patch_2">
    <path d="M 47.72 390.04 
L 709.2 390.04 
L 709.2 10.8 
L 47.72 10.8 
z
" style="fill: #ffffff"/>
   </g>
   <g id="FillBetweenPolyCollection_1">
    <defs>
     <path id="m2dd0e15381" d="M 77.790304 -380.902095 
L 77.790304 -91.107227 
L 80.875821 -91.430474 
L 83.858285 -103.276838 
L 86.99836 -108.056669 
L 90.274827 -106.378778 
L 93.393685 -101.153377 
L 96.691369 -107.193015 
L 100.025425 -120.358587 
L 103.362511 -132.056309 
L 106.626855 -121.192245 
L 109.776022 -134.736264 
L 113.104016 -118.183762 
L 116.39867 -114.424648 
L 119.823654 -103.867975 
L 123.318351 -102.054575 
L 126.800924 -95.698466 
L 130.250156 -95.028917 
L 133.744852 -102.873915 
L 137.127404 -103.561037 
L 140.376593 -107.925261 
L 143.604565 -109.868398 
L 146.744639 -109.125028 
L 149.908961 -110.925121 
L 153.003571 -114.292478 
L 156.089088 -110.648467 
L 159.201884 -114.418512 
L 162.266184 -114.887559 
L 165.345639 -115.990365 
L 168.428125 -115.423172 
L 171.486364 -115.462216 
L 174.550664 -115.634347 
L 177.605872 -114.505738 
L 180.661079 -116.145692 
L 183.716287 -114.35527 
L 186.771494 -115.425937 
L 189.829733 -114.281979 
L 192.866754 -115.489257 
L 195.921962 -115.322612 
L 198.992324 -115.767951 
L 202.053593 -114.982698 
L 205.120925 -115.125696 
L 208.182194 -115.707924 
L 211.219216 -114.262144 
L 214.268361 -116.369678 
L 217.335693 -115.267899 
L 220.3909 -113.892088 
L 223.440046 -113.662937 
L 226.483129 -114.847831 
L 229.532275 -114.830131 
L 232.593544 -116.095952 
L 235.663907 -115.320054 
L 238.710021 -116.088368 
L 241.786445 -114.531887 
L 244.853777 -113.669615 
L 247.936263 -113.862868 
L 251.000563 -115.096374 
L 254.092142 -114.906808 
L 257.27465 -113.098464 
L 260.423817 -113.864075 
L 263.494179 -114.882286 
L 266.658501 -112.824349 
L 269.792514 -115.64941 
L 272.911372 -113.415522 
L 276.005981 -113.572196 
L 279.103622 -113.298381 
L 282.19217 -113.971979 
L 285.323152 -114.027728 
L 288.4117 -115.720809 
L 291.469938 -115.256734 
L 294.610013 -114.51885 
L 297.680375 -121.125744 
L 300.738613 -122.442599 
L 303.8211 -116.718522 
L 306.91874 -118.195381 
L 310.001227 -116.684912 
L 313.080682 -114.863505 
L 316.123765 -114.431771 
L 319.182004 -128.158423 
L 322.237211 -118.676825 
L 325.346976 -113.018793 
L 328.462803 -119.516793 
L 331.551351 -121.45643 
L 334.624744 -115.193675 
L 337.695106 -114.13669 
L 340.868521 -111.690964 
L 343.935852 -110.591511 
L 347.0244 -110.514436 
L 350.082639 -112.116462 
L 353.165125 -113.818164 
L 356.250642 -86.766529 
L 359.366469 -84.93569 
L 362.40046 -88.351851 
L 365.449605 -78.617219 
L 368.480565 -64.027054 
L 371.517587 -79.052596 
L 374.554608 -72.310482 
L 377.579506 -76.21435 
L 380.613497 -89.566667 
L 383.650519 -73.435084 
L 386.68754 -59.198182 
L 389.736686 -66.357159 
L 392.773708 -77.591599 
L 395.783451 -88.737961 
L 398.820472 -93.329774 
L 401.851432 -89.638194 
L 404.891485 -90.451734 
L 407.931538 -97.848908 
L 410.965528 -96.245261 
L 413.996488 -104.517728 
L 417.03351 -101.150681 
L 420.06447 -109.842157 
L 423.101491 -111.659087 
L 426.135482 -114.505157 
L 429.169473 -106.080269 
L 432.200433 -87.913737 
L 435.231392 -87.104523 
L 438.265383 -96.867902 
L 441.296343 -105.286285 
L 444.327303 -108.092522 
L 447.373417 -95.550915 
L 450.431656 -89.737451 
L 453.474739 -108.76069 
L 456.514792 -114.643242 
L 459.548783 -115.315855 
L 462.579743 -116.475256 
L 465.604641 -114.749046 
L 468.617415 -115.647597 
L 471.657467 -118.24353 
L 474.679334 -115.608326 
L 477.707263 -115.299677 
L 480.741254 -115.664381 
L 483.772214 -116.480648 
L 486.803173 -116.333173 
L 489.834133 -116.180305 
L 492.865093 -115.24692 
L 495.896053 -117.289873 
L 498.930044 -116.889196 
L 501.964034 -115.431409 
L 504.994994 -115.837778 
L 508.025954 -116.723064 
L 511.10844 -110.280766 
L 514.48796 -113.823611 
L 517.546199 -116.327781 
L 520.580189 -116.116985 
L 523.617211 -116.053665 
L 526.648171 -116.331301 
L 529.682162 -116.367273 
L 532.713121 -116.137821 
L 535.753174 -118.79559 
L 538.784134 -132.041278 
L 541.818125 -119.655351 
L 544.921827 -115.895405 
L 547.955818 -120.869153 
L 550.883725 -120.348557 
L 553.805571 -116.873832 
L 556.83653 -123.085152 
L 559.86749 -119.174343 
L 562.901481 -115.518778 
L 565.932441 -116.354009 
L 568.969463 -116.588853 
L 572.000422 -116.327781 
L 575.031382 -116.435985 
L 578.062342 -116.625432 
L 581.096333 -116.269853 
L 584.127292 -116.333173 
L 587.158252 -115.14433 
L 590.198305 -116.137821 
L 593.232296 -116.180305 
L 596.263255 -116.269853 
L 599.306339 -115.082217 
L 602.397918 -116.116985 
L 605.431909 -116.116985 
L 608.544705 -114.243694 
L 611.581726 -115.518778 
L 614.870318 -108.518593 
L 618.025547 -115.763294 
L 621.071661 -116.053665 
L 624.242045 -113.125811 
L 627.291191 -117.155148 
L 630.331244 -116.609689 
L 633.365234 -116.269853 
L 636.399225 -116.269853 
L 639.430185 -116.180305 
L 642.464176 -116.116985 
L 645.495135 -116.180305 
L 648.662488 -111.705425 
L 651.802563 -115.889934 
L 654.839585 -116.029838 
L 657.879637 -115.455458 
L 660.913628 -116.143213 
L 663.95065 -115.927026 
L 666.993733 -116.116985 
L 670.030755 -115.990346 
L 673.067777 -116.116985 
L 676.101767 -115.518778 
L 679.132727 -116.206533 
L 679.132727 -203.546403 
L 679.132727 -203.546403 
L 676.101767 -202.70548 
L 673.067777 -203.02448 
L 670.030755 -203.762591 
L 666.993733 -203.02448 
L 663.95065 -204.131647 
L 660.913628 -203.915459 
L 657.879637 -203.074535 
L 654.839585 -204.946041 
L 651.802563 -205.391681 
L 648.662488 -230.060483 
L 645.495135 -202.655424 
L 642.464176 -203.02448 
L 639.430185 -202.655424 
L 636.399225 -203.177347 
L 633.365234 -203.177347 
L 630.331244 -204.977662 
L 627.291191 -208.406766 
L 624.242045 -221.913911 
L 621.071661 -203.393535 
L 618.025547 -206.129793 
L 614.870318 -247.311158 
L 611.581726 -202.70548 
L 608.544705 -213.458371 
L 605.431909 -203.02448 
L 602.397918 -203.02448 
L 599.306339 -211.702641 
L 596.263255 -203.177347 
L 593.232296 -202.655424 
L 590.198305 -204.226587 
L 587.158252 -203.079928 
L 584.127292 -202.808292 
L 581.096333 -203.177347 
L 578.062342 -206.184861 
L 575.031382 -203.622687 
L 572.000422 -203.11942 
L 568.969463 -203.775555 
L 565.932441 -204.010399 
L 562.901481 -202.70548 
L 559.86749 -206.081837 
L 556.83653 -212.566041 
L 553.805571 -201.350425 
L 550.883725 -180.448765 
L 547.955818 -208.055855 
L 544.921827 -203.551796 
L 541.818125 -227.308064 
L 538.784134 -253.444836 
L 535.753174 -211.046625 
L 532.713121 -204.226587 
L 529.682162 -204.302871 
L 526.648171 -204.644579 
L 523.617211 -203.393535 
L 520.580189 -203.02448 
L 517.546199 -203.11942 
L 514.48796 -221.216111 
L 511.10844 -237.599856 
L 508.025954 -203.947079 
L 504.994994 -203.303687 
L 501.964034 -203.40432 
L 498.930044 -204.392419 
L 495.896053 -204.908949 
L 492.865093 -202.671602 
L 489.834133 -202.655424 
L 486.803173 -202.808292 
L 483.772214 -203.272288 
L 480.741254 -205.005763 
L 477.707263 -204.147524 
L 474.679334 -203.227403 
L 471.657467 -213.433099 
L 468.617415 -203.188133 
L 465.604641 -202.252269 
L 462.579743 -203.583416 
L 459.548783 -203.214139 
L 456.514792 -204.192487 
L 453.474739 -204.877532 
L 450.431656 -210.142664 
L 447.373417 -213.195536 
L 444.327303 -212.577621 
L 441.296343 -214.772387 
L 438.265383 -212.795756 
L 435.231392 -208.801028 
L 432.200433 -205.851663 
L 429.169473 -206.946481 
L 426.135482 -212.891172 
L 423.101491 -211.151206 
L 420.06447 -208.076365 
L 417.03351 -211.570334 
L 413.996488 -213.095059 
L 410.965528 -211.278247 
L 407.931538 -208.757393 
L 404.891485 -211.568531 
L 401.851432 -211.464864 
L 398.820472 -212.35932 
L 395.783451 -206.556119 
L 392.773708 -209.753352 
L 389.736686 -207.53542 
L 386.68754 -212.554247 
L 383.650519 -212.686924 
L 380.613497 -223.154348 
L 377.579506 -208.073244 
L 374.554608 -210.754169 
L 371.517587 -207.986619 
L 368.480565 -209.865525 
L 365.449605 -206.587582 
L 362.40046 -217.031507 
L 359.366469 -211.887068 
L 356.250642 -230.846257 
L 353.165125 -215.718315 
L 350.082639 -216.808546 
L 347.0244 -222.079401 
L 343.935852 -210.078633 
L 340.868521 -225.794644 
L 337.695106 -236.189817 
L 334.624744 -217.400162 
L 331.551351 -227.3414 
L 328.462803 -228.9753 
L 325.346976 -228.441379 
L 322.237211 -227.369382 
L 319.182004 -245.403999 
L 316.123765 -213.270294 
L 313.080682 -215.895917 
L 310.001227 -219.272017 
L 306.91874 -225.099205 
L 303.8211 -229.327686 
L 300.738613 -243.782166 
L 297.680375 -236.844157 
L 294.610013 -213.794686 
L 291.469938 -209.082238 
L 288.4117 -207.700956 
L 285.323152 -214.89728 
L 282.19217 -216.175971 
L 279.103622 -210.123384 
L 276.005981 -210.155305 
L 272.911372 -216.732429 
L 269.792514 -214.192805 
L 266.658501 -222.215374 
L 263.494179 -209.456686 
L 260.423817 -215.366669 
L 257.27465 -221.941258 
L 254.092142 -219.827179 
L 251.000563 -206.490977 
L 247.936263 -207.113011 
L 244.853777 -211.280828 
L 241.786445 -209.501349 
L 238.710021 -207.333397 
L 235.663907 -208.713182 
L 232.593544 -206.714342 
L 229.532275 -207.368691 
L 226.483129 -208.573934 
L 223.440046 -204.867057 
L 220.3909 -205.249377 
L 217.335693 -206.625188 
L 214.268361 -210.109444 
L 211.219216 -207.630943 
L 208.182194 -205.573691 
L 205.120925 -209.213276 
L 202.053593 -207.827596 
L 198.992324 -208.265285 
L 195.921962 -208.099153 
L 192.866754 -204.87515 
L 189.829733 -206.388164 
L 186.771494 -205.244206 
L 183.716287 -209.37223 
L 180.661079 -204.830187 
L 177.605872 -207.081613 
L 174.550664 -210.844775 
L 171.486364 -207.959549 
L 168.428125 -212.584628 
L 165.345639 -215.074792 
L 162.266184 -212.50877 
L 159.201884 -210.531932 
L 156.089088 -217.053598 
L 153.003571 -214.021058 
L 149.908961 -220.751508 
L 146.744639 -221.634394 
L 143.604565 -229.145888 
L 140.376593 -239.955361 
L 137.127404 -249.822828 
L 133.744852 -263.656585 
L 130.250156 -283.425276 
L 126.800924 -293.150742 
L 123.318351 -300.858475 
L 119.823654 -314.943332 
L 116.39867 -329.456988 
L 113.104016 -332.729795 
L 109.776022 -363.566329 
L 106.626855 -363.046505 
L 103.362511 -376.947034 
L 100.025425 -371.829292 
L 96.691369 -373.376907 
L 93.393685 -375.441981 
L 90.274827 -380.305858 
L 86.99836 -374.347667 
L 83.858285 -380.656177 
L 80.875821 -373.852662 
L 77.790304 -380.902095 
z
" style="stroke: #0000ff; stroke-opacity: 0.2"/>
    </defs>
    <g clip-path="url(#pc6877f52a8)">
     <use xlink:href="#m2dd0e15381" x="0" y="432" style="fill: #0000ff; fill-opacity: 0.2; stroke: #0000ff; stroke-opacity: 0.2"/>
    </g>
   </g>
   <g id="FillBetweenPolyCollection_2">
    <defs>
     <path id="mcca07231b7" d="M 77.787273 -367.534246 
L 77.787273 -94.997269 
L 80.830356 -91.154055 
L 83.952245 -103.87899 
L 86.977143 -107.061548 
L 90.108124 -94.561003 
L 93.293663 -85.33984 
L 96.351901 -108.355195 
L 99.437419 -99.256744 
L 102.607802 -102.968438 
L 105.672103 -103.329637 
L 108.763682 -97.683524 
L 111.924973 -96.576421 
L 115.113543 -99.40576 
L 118.250586 -105.029632 
L 121.248205 -101.758421 
L 124.373125 -101.344961 
L 127.498044 -101.772245 
L 130.650243 -93.06769 
L 133.83275 -92.265389 
L 136.994041 -94.446516 
L 140.100775 -93.469624 
L 143.259035 -92.44927 
L 146.520348 -88.840601 
L 149.642237 -87.45825 
L 152.730785 -93.543607 
L 155.952695 -91.775842 
L 159.056398 -98.923661 
L 162.184348 -89.198716 
L 165.363825 -90.968236 
L 168.44328 -95.637427 
L 171.492426 -95.416057 
L 174.920441 -101.500663 
L 178.066578 -103.261185 
L 181.258178 -91.068188 
L 184.289138 -102.082856 
L 187.347376 -104.849162 
L 190.581411 -98.957543 
L 193.766949 -94.755271 
L 196.876714 -97.885616 
L 200.044067 -104.330782 
L 203.229606 -95.195281 
L 206.272689 -94.433687 
L 209.473383 -95.314154 
L 212.695293 -108.738352 
L 215.880832 -97.46144 
L 218.990597 -90.782766 
L 222.118547 -93.91451 
L 225.204064 -90.829014 
L 228.228962 -86.720579 
L 231.47512 -95.028676 
L 234.448492 -85.769395 
L 237.579473 -104.036706 
L 240.931715 -101.137402 
L 244.120284 -102.955436 
L 247.23308 -99.423921 
L 250.506517 -106.594238 
L 253.48595 -91.500111 
L 256.604808 -101.479565 
L 259.796408 -102.11324 
L 262.942545 -91.53048 
L 266.24326 -94.641248 
L 269.33787 -103.323176 
L 272.529471 -95.529227 
L 275.466471 -85.977176 
L 278.521678 -109.974787 
L 281.761774 -100.641581 
L 284.956406 -81.36684 
L 288.069201 -105.041525 
L 291.315359 -89.622441 
L 294.528177 -100.81833 
L 297.671282 -93.349434 
L 300.774985 -104.630126 
L 303.912028 -107.6861 
L 307.176372 -116.850402 
L 310.407375 -103.70288 
L 313.462583 -101.75794 
L 316.726926 -96.073797 
L 319.933682 -93.042417 
L 323.185902 -93.643605 
L 326.398719 -115.108349 
L 329.456957 -77.74357 
L 332.660682 -99.294151 
L 335.809849 -95.318197 
L 338.913552 -108.778686 
L 342.044534 -90.169094 
L 345.151267 -89.727335 
L 348.291342 -90.882762 
L 351.492035 -98.943554 
L 354.53815 -90.812241 
L 357.799463 -102.52968 
L 360.778896 -96.245219 
L 363.937156 -103.938388 
L 367.192407 -89.26084 
L 370.177902 -96.499898 
L 373.248265 -95.70156 
L 376.45502 -77.398579 
L 379.48598 -88.4372 
L 382.601807 -88.880981 
L 385.808562 -102.262943 
L 388.978946 -98.141113 
L 392.109927 -92.779378 
L 395.3379 -82.064813 
L 398.435541 -94.00655 
L 401.4665 -85.70992 
L 404.488367 -106.774438 
L 407.52842 -106.081928 
L 410.774578 -116.462029 
L 414.044983 -86.094237 
L 417.106253 -98.637176 
L 420.28573 -94.758647 
L 423.50764 -115.402064 
L 426.723488 -103.716226 
L 429.88781 -92.336559 
L 432.991513 -103.757452 
L 436.01338 -96.284832 
L 439.047371 -98.918789 
L 442.23291 -90.116916 
L 445.263869 -103.961172 
L 448.279674 -105.756942 
L 451.447027 -100.937053 
L 454.477987 -102.990581 
L 457.630185 -102.130231 
L 460.852096 -85.567506 
L 463.913365 -94.548366 
L 467.126182 -91.183189 
L 470.317783 -105.156879 
L 473.400269 -94.345896 
L 476.397888 -97.109245 
L 479.531901 -90.095171 
L 482.59317 -85.452137 
L 485.721121 -102.159696 
L 488.927876 -100.575168 
L 491.828505 -94.613818 
L 494.868557 -90.348111 
L 498.008632 -112.126556 
L 501.115366 -97.510155 
L 504.355462 -97.407358 
L 507.434917 -101.312527 
L 510.499217 -109.158429 
L 513.772654 -112.434885 
L 517.061245 -106.712147 
L 520.286186 -94.533869 
L 523.52022 -105.824805 
L 526.64514 -98.563832 
L 529.657914 -94.444678 
L 532.716152 -91.519695 
L 535.886536 -93.025231 
L 539.011456 -102.732734 
L 542.106066 -113.310158 
L 545.255233 -79.226901 
L 548.422586 -99.334338 
L 551.541444 -102.315278 
L 554.711828 -100.307566 
L 557.857964 -103.073093 
L 561.043503 -96.337899 
L 564.195701 -101.635104 
L 567.317589 -95.26449 
L 570.324302 -96.715029 
L 573.376478 -82.514722 
L 576.365004 -98.657811 
L 579.435367 -89.258972 
L 582.623936 -96.940701 
L 585.724608 -101.155033 
L 588.967735 -92.816869 
L 592.044159 -82.081168 
L 595.156955 -110.565686 
L 598.309153 -100.185483 
L 601.467413 -103.316409 
L 604.701448 -107.569457 
L 607.971853 -118.881057 
L 611.145268 -110.988153 
L 614.345962 -114.415705 
L 617.5315 -92.704167 
L 620.613986 -97.754805 
L 623.857113 -87.557276 
L 626.951723 -92.73567 
L 629.976621 -105.376106 
L 633.09851 -101.183918 
L 636.132501 -102.55836 
L 639.233173 -98.85376 
L 642.409618 -88.022459 
L 645.492104 -104.745412 
L 648.717046 -111.060901 
L 651.848027 -97.745616 
L 654.963854 -87.712365 
L 658.228198 -88.252991 
L 661.334931 -100.362725 
L 664.432572 -101.167715 
L 667.599925 -116.451701 
L 670.785464 -91.062397 
L 673.89826 -94.451671 
L 677.132294 -111.149282 
L 677.132294 -374.312411 
L 677.132294 -374.312411 
L 673.89826 -384.589572 
L 670.785464 -360.462632 
L 667.599925 -389.494285 
L 664.432572 -370.230135 
L 661.334931 -368.894975 
L 658.228198 -376.724409 
L 654.963854 -356.780742 
L 651.848027 -363.562956 
L 648.717046 -383.267128 
L 645.492104 -379.187603 
L 642.409618 -365.64272 
L 639.233173 -380.187483 
L 636.132501 -377.400091 
L 633.09851 -385.500718 
L 629.976621 -370.302045 
L 626.951723 -361.846716 
L 623.857113 -376.197181 
L 620.613986 -386.483946 
L 617.5315 -369.521612 
L 614.345962 -380.218059 
L 611.145268 -378.142369 
L 607.971853 -390.733757 
L 604.701448 -381.255329 
L 601.467413 -375.113362 
L 598.309153 -366.014861 
L 595.156955 -386.513965 
L 592.044159 -353.545604 
L 588.967735 -371.243324 
L 585.724608 -379.109153 
L 582.623936 -373.539943 
L 579.435367 -364.406207 
L 576.365004 -369.376946 
L 573.376478 -365.035743 
L 570.324302 -352.364114 
L 567.317589 -375.521889 
L 564.195701 -378.934818 
L 561.043503 -370.16818 
L 557.857964 -378.719772 
L 554.711828 -375.67632 
L 551.541444 -379.783323 
L 548.422586 -382.764262 
L 545.255233 -374.132542 
L 542.106066 -389.272735 
L 539.011456 -372.02821 
L 535.886536 -380.51277 
L 532.716152 -362.45122 
L 529.657914 -375.118758 
L 526.64514 -377.72579 
L 523.52022 -382.999982 
L 520.286186 -385.118846 
L 517.061245 -384.864261 
L 513.772654 -395.345516 
L 510.499217 -400.762121 
L 507.434917 -377.728717 
L 504.355462 -369.404457 
L 501.115366 -366.244303 
L 498.008632 -380.672794 
L 494.868557 -375.852232 
L 491.828505 -369.446375 
L 488.927876 -374.185775 
L 485.721121 -376.575812 
L 482.59317 -367.907306 
L 479.531901 -366.933101 
L 476.397888 -360.224763 
L 473.400269 -377.663426 
L 470.317783 -383.056436 
L 467.126182 -379.603189 
L 463.913365 -378.683899 
L 460.852096 -374.823859 
L 457.630185 -388.52897 
L 454.477987 -367.795798 
L 451.447027 -379.327133 
L 448.279674 -369.309737 
L 445.263869 -372.022714 
L 442.23291 -369.662978 
L 439.047371 -373.396268 
L 436.01338 -373.58434 
L 432.991513 -378.035412 
L 429.88781 -365.303185 
L 426.723488 -367.375888 
L 423.50764 -377.397286 
L 420.28573 -382.448182 
L 417.106253 -374.900825 
L 414.044983 -362.373435 
L 410.774578 -381.229092 
L 407.52842 -376.322408 
L 404.488367 -369.82092 
L 401.4665 -368.872466 
L 398.435541 -368.219229 
L 395.3379 -365.179916 
L 392.109927 -378.007001 
L 388.978946 -373.868209 
L 385.808562 -383.810221 
L 382.601807 -366.618613 
L 379.48598 -375.928728 
L 376.45502 -364.954379 
L 373.248265 -376.919234 
L 370.177902 -366.337352 
L 367.192407 -368.378903 
L 363.937156 -369.599612 
L 360.778896 -358.337167 
L 357.799463 -373.759942 
L 354.53815 -352.457924 
L 351.492035 -373.371504 
L 348.291342 -371.037281 
L 345.151267 -371.275501 
L 342.044534 -370.833742 
L 338.913552 -389.523907 
L 335.809849 -362.933018 
L 332.660682 -385.250335 
L 329.456957 -376.227344 
L 326.398719 -379.831151 
L 323.185902 -372.862474 
L 319.933682 -374.686605 
L 316.726926 -385.413332 
L 313.462583 -377.283303 
L 310.407375 -375.032628 
L 307.176372 -389.401319 
L 303.912028 -389.39355 
L 300.774985 -379.302889 
L 297.671282 -370.71076 
L 294.528177 -379.14012 
L 291.315359 -369.851717 
L 288.069201 -403.961818 
L 284.956406 -355.78861 
L 281.761774 -378.399662 
L 278.521678 -395.971199 
L 275.466471 -388.783767 
L 272.529471 -357.218745 
L 269.33787 -373.272182 
L 266.24326 -379.202488 
L 262.942545 -377.421485 
L 259.796408 -381.208303 
L 256.604808 -375.115792 
L 253.48595 -371.948611 
L 250.506517 -378.255984 
L 247.23308 -381.146001 
L 244.120284 -371.194036 
L 240.931715 -374.846484 
L 237.579473 -378.36763 
L 234.448492 -354.443413 
L 231.47512 -383.09536 
L 228.228962 -366.027393 
L 225.204064 -373.536915 
L 222.118547 -368.005533 
L 218.990597 -383.672441 
L 215.880832 -383.108482 
L 212.695293 -375.806134 
L 209.473383 -374.860753 
L 206.272689 -371.155185 
L 203.229606 -368.864912 
L 200.044067 -381.742383 
L 196.876714 -364.645899 
L 193.766949 -387.954801 
L 190.581411 -370.300157 
L 187.347376 -388.56166 
L 184.289138 -373.90103 
L 181.258178 -365.042877 
L 178.066578 -377.614473 
L 174.920441 -374.788959 
L 171.492426 -370.478551 
L 168.44328 -384.321023 
L 165.363825 -381.041086 
L 162.184348 -370.886913 
L 159.056398 -375.225811 
L 155.952695 -383.290837 
L 152.730785 -372.045265 
L 149.642237 -377.824886 
L 146.520348 -364.824578 
L 143.259035 -369.776509 
L 140.100775 -365.698798 
L 136.994041 -389.486499 
L 133.83275 -377.603783 
L 130.650243 -379.247367 
L 127.498044 -386.746805 
L 124.373125 -374.333189 
L 121.248205 -381.868858 
L 118.250586 -389.909868 
L 115.113543 -389.724762 
L 111.924973 -383.076293 
L 108.763682 -380.746248 
L 105.672103 -384.272207 
L 102.607802 -360.480283 
L 99.437419 -391.402456 
L 96.351901 -363.348391 
L 93.293663 -378.414618 
L 90.108124 -365.21889 
L 86.977143 -364.030566 
L 83.952245 -377.302403 
L 80.830356 -363.428331 
L 77.787273 -367.534246 
z
" style="stroke: #ffa500; stroke-opacity: 0.2"/>
    </defs>
    <g clip-path="url(#pc6877f52a8)">
     <use xlink:href="#mcca07231b7" x="0" y="432" style="fill: #ffa500; fill-opacity: 0.2; stroke: #ffa500; stroke-opacity: 0.2"/>
    </g>
   </g>
   <g id="matplotlib.axis_1">
    <g id="xtick_1">
     <g id="line2d_1">
      <path d="M 76.247545 390.04 
L 76.247545 10.8 
" clip-path="url(#pc6877f52a8)" style="fill: none; stroke: #b0b0b0; stroke-width: 0.8; stroke-linecap: square"/>
     </g>
     <g id="line2d_2">
      <defs>
       <path id="m78de2ecdf6" d="M 0 0 
L 0 3.5 
" style="stroke: #000000; stroke-width: 0.8"/>
      </defs>
      <g>
       <use xlink:href="#m78de2ecdf6" x="76.247545" y="390.04" style="stroke: #000000; stroke-width: 0.8"/>
      </g>
     </g>
     <g id="text_1">
      <!-- 0 -->
      <g transform="translate(73.066295 404.638438) scale(0.1 -0.1)">
       <defs>
        <path id="DejaVuSans-30" d="M 2034 4250 
Q 1547 4250 1301 3770 
Q 1056 3291 1056 2328 
Q 1056 1369 1301 889 
Q 1547 409 2034 409 
Q 2525 409 2770 889 
Q 3016 1369 3016 2328 
Q 3016 3291 2770 3770 
Q 2525 4250 2034 4250 
z
M 2034 4750 
Q 2819 4750 3233 4129 
Q 3647 3509 3647 2328 
Q 3647 1150 3233 529 
Q 2819 -91 2034 -91 
Q 1250 -91 836 529 
Q 422 1150 422 2328 
Q 422 3509 836 4129 
Q 1250 4750 2034 4750 
z
" transform="scale(0.015625)"/>
       </defs>
       <use xlink:href="#DejaVuSans-30"/>
      </g>
     </g>
    </g>
    <g id="xtick_2">
     <g id="line2d_3">
      <path d="M 152.02154 390.04 
L 152.02154 10.8 
" clip-path="url(#pc6877f52a8)" style="fill: none; stroke: #b0b0b0; stroke-width: 0.8; stroke-linecap: square"/>
     </g>
     <g id="line2d_4">
      <g>
       <use xlink:href="#m78de2ecdf6" x="152.02154" y="390.04" style="stroke: #000000; stroke-width: 0.8"/>
      </g>
     </g>
     <g id="text_2">
      <!-- 25000 -->
      <g transform="translate(136.11529 404.638438) scale(0.1 -0.1)">
       <defs>
        <path id="DejaVuSans-32" d="M 1228 531 
L 3431 531 
L 3431 0 
L 469 0 
L 469 531 
Q 828 903 1448 1529 
Q 2069 2156 2228 2338 
Q 2531 2678 2651 2914 
Q 2772 3150 2772 3378 
Q 2772 3750 2511 3984 
Q 2250 4219 1831 4219 
Q 1534 4219 1204 4116 
Q 875 4013 500 3803 
L 500 4441 
Q 881 4594 1212 4672 
Q 1544 4750 1819 4750 
Q 2544 4750 2975 4387 
Q 3406 4025 3406 3419 
Q 3406 3131 3298 2873 
Q 3191 2616 2906 2266 
Q 2828 2175 2409 1742 
Q 1991 1309 1228 531 
z
" transform="scale(0.015625)"/>
        <path id="DejaVuSans-35" d="M 691 4666 
L 3169 4666 
L 3169 4134 
L 1269 4134 
L 1269 2991 
Q 1406 3038 1543 3061 
Q 1681 3084 1819 3084 
Q 2600 3084 3056 2656 
Q 3513 2228 3513 1497 
Q 3513 744 3044 326 
Q 2575 -91 1722 -91 
Q 1428 -91 1123 -41 
Q 819 9 494 109 
L 494 744 
Q 775 591 1075 516 
Q 1375 441 1709 441 
Q 2250 441 2565 725 
Q 2881 1009 2881 1497 
Q 2881 1984 2565 2268 
Q 2250 2553 1709 2553 
Q 1456 2553 1204 2497 
Q 953 2441 691 2322 
L 691 4666 
z
" transform="scale(0.015625)"/>
       </defs>
       <use xlink:href="#DejaVuSans-32"/>
       <use xlink:href="#DejaVuSans-35" transform="translate(63.623047 0)"/>
       <use xlink:href="#DejaVuSans-30" transform="translate(127.246094 0)"/>
       <use xlink:href="#DejaVuSans-30" transform="translate(190.869141 0)"/>
       <use xlink:href="#DejaVuSans-30" transform="translate(254.492188 0)"/>
      </g>
     </g>
    </g>
    <g id="xtick_3">
     <g id="line2d_5">
      <path d="M 227.795535 390.04 
L 227.795535 10.8 
" clip-path="url(#pc6877f52a8)" style="fill: none; stroke: #b0b0b0; stroke-width: 0.8; stroke-linecap: square"/>
     </g>
     <g id="line2d_6">
      <g>
       <use xlink:href="#m78de2ecdf6" x="227.795535" y="390.04" style="stroke: #000000; stroke-width: 0.8"/>
      </g>
     </g>
     <g id="text_3">
      <!-- 50000 -->
      <g transform="translate(211.889285 404.638438) scale(0.1 -0.1)">
       <use xlink:href="#DejaVuSans-35"/>
       <use xlink:href="#DejaVuSans-30" transform="translate(63.623047 0)"/>
       <use xlink:href="#DejaVuSans-30" transform="translate(127.246094 0)"/>
       <use xlink:href="#DejaVuSans-30" transform="translate(190.869141 0)"/>
       <use xlink:href="#DejaVuSans-30" transform="translate(254.492188 0)"/>
      </g>
     </g>
    </g>
    <g id="xtick_4">
     <g id="line2d_7">
      <path d="M 303.56953 390.04 
L 303.56953 10.8 
" clip-path="url(#pc6877f52a8)" style="fill: none; stroke: #b0b0b0; stroke-width: 0.8; stroke-linecap: square"/>
     </g>
     <g id="line2d_8">
      <g>
       <use xlink:href="#m78de2ecdf6" x="303.56953" y="390.04" style="stroke: #000000; stroke-width: 0.8"/>
      </g>
     </g>
     <g id="text_4">
      <!-- 75000 -->
      <g transform="translate(287.66328 404.638438) scale(0.1 -0.1)">
       <defs>
        <path id="DejaVuSans-37" d="M 525 4666 
L 3525 4666 
L 3525 4397 
L 1831 0 
L 1172 0 
L 2766 4134 
L 525 4134 
L 525 4666 
z
" transform="scale(0.015625)"/>
       </defs>
       <use xlink:href="#DejaVuSans-37"/>
       <use xlink:href="#DejaVuSans-35" transform="translate(63.623047 0)"/>
       <use xlink:href="#DejaVuSans-30" transform="translate(127.246094 0)"/>
       <use xlink:href="#DejaVuSans-30" transform="translate(190.869141 0)"/>
       <use xlink:href="#DejaVuSans-30" transform="translate(254.492188 0)"/>
      </g>
     </g>
    </g>
    <g id="xtick_5">
     <g id="line2d_9">
      <path d="M 379.343525 390.04 
L 379.343525 10.8 
" clip-path="url(#pc6877f52a8)" style="fill: none; stroke: #b0b0b0; stroke-width: 0.8; stroke-linecap: square"/>
     </g>
     <g id="line2d_10">
      <g>
       <use xlink:href="#m78de2ecdf6" x="379.343525" y="390.04" style="stroke: #000000; stroke-width: 0.8"/>
      </g>
     </g>
     <g id="text_5">
      <!-- 100000 -->
      <g transform="translate(360.256025 404.638438) scale(0.1 -0.1)">
       <defs>
        <path id="DejaVuSans-31" d="M 794 531 
L 1825 531 
L 1825 4091 
L 703 3866 
L 703 4441 
L 1819 4666 
L 2450 4666 
L 2450 531 
L 3481 531 
L 3481 0 
L 794 0 
L 794 531 
z
" transform="scale(0.015625)"/>
       </defs>
       <use xlink:href="#DejaVuSans-31"/>
       <use xlink:href="#DejaVuSans-30" transform="translate(63.623047 0)"/>
       <use xlink:href="#DejaVuSans-30" transform="translate(127.246094 0)"/>
       <use xlink:href="#DejaVuSans-30" transform="translate(190.869141 0)"/>
       <use xlink:href="#DejaVuSans-30" transform="translate(254.492188 0)"/>
       <use xlink:href="#DejaVuSans-30" transform="translate(318.115234 0)"/>
      </g>
     </g>
    </g>
    <g id="xtick_6">
     <g id="line2d_11">
      <path d="M 455.11752 390.04 
L 455.11752 10.8 
" clip-path="url(#pc6877f52a8)" style="fill: none; stroke: #b0b0b0; stroke-width: 0.8; stroke-linecap: square"/>
     </g>
     <g id="line2d_12">
      <g>
       <use xlink:href="#m78de2ecdf6" x="455.11752" y="390.04" style="stroke: #000000; stroke-width: 0.8"/>
      </g>
     </g>
     <g id="text_6">
      <!-- 125000 -->
      <g transform="translate(436.03002 404.638438) scale(0.1 -0.1)">
       <use xlink:href="#DejaVuSans-31"/>
       <use xlink:href="#DejaVuSans-32" transform="translate(63.623047 0)"/>
       <use xlink:href="#DejaVuSans-35" transform="translate(127.246094 0)"/>
       <use xlink:href="#DejaVuSans-30" transform="translate(190.869141 0)"/>
       <use xlink:href="#DejaVuSans-30" transform="translate(254.492188 0)"/>
       <use xlink:href="#DejaVuSans-30" transform="translate(318.115234 0)"/>
      </g>
     </g>
    </g>
    <g id="xtick_7">
     <g id="line2d_13">
      <path d="M 530.891515 390.04 
L 530.891515 10.8 
" clip-path="url(#pc6877f52a8)" style="fill: none; stroke: #b0b0b0; stroke-width: 0.8; stroke-linecap: square"/>
     </g>
     <g id="line2d_14">
      <g>
       <use xlink:href="#m78de2ecdf6" x="530.891515" y="390.04" style="stroke: #000000; stroke-width: 0.8"/>
      </g>
     </g>
     <g id="text_7">
      <!-- 150000 -->
      <g transform="translate(511.804015 404.638438) scale(0.1 -0.1)">
       <use xlink:href="#DejaVuSans-31"/>
       <use xlink:href="#DejaVuSans-35" transform="translate(63.623047 0)"/>
       <use xlink:href="#DejaVuSans-30" transform="translate(127.246094 0)"/>
       <use xlink:href="#DejaVuSans-30" transform="translate(190.869141 0)"/>
       <use xlink:href="#DejaVuSans-30" transform="translate(254.492188 0)"/>
       <use xlink:href="#DejaVuSans-30" transform="translate(318.115234 0)"/>
      </g>
     </g>
    </g>
    <g id="xtick_8">
     <g id="line2d_15">
      <path d="M 606.66551 390.04 
L 606.66551 10.8 
" clip-path="url(#pc6877f52a8)" style="fill: none; stroke: #b0b0b0; stroke-width: 0.8; stroke-linecap: square"/>
     </g>
     <g id="line2d_16">
      <g>
       <use xlink:href="#m78de2ecdf6" x="606.66551" y="390.04" style="stroke: #000000; stroke-width: 0.8"/>
      </g>
     </g>
     <g id="text_8">
      <!-- 175000 -->
      <g transform="translate(587.57801 404.638438) scale(0.1 -0.1)">
       <use xlink:href="#DejaVuSans-31"/>
       <use xlink:href="#DejaVuSans-37" transform="translate(63.623047 0)"/>
       <use xlink:href="#DejaVuSans-35" transform="translate(127.246094 0)"/>
       <use xlink:href="#DejaVuSans-30" transform="translate(190.869141 0)"/>
       <use xlink:href="#DejaVuSans-30" transform="translate(254.492188 0)"/>
       <use xlink:href="#DejaVuSans-30" transform="translate(318.115234 0)"/>
      </g>
     </g>
    </g>
    <g id="xtick_9">
     <g id="line2d_17">
      <path d="M 682.439504 390.04 
L 682.439504 10.8 
" clip-path="url(#pc6877f52a8)" style="fill: none; stroke: #b0b0b0; stroke-width: 0.8; stroke-linecap: square"/>
     </g>
     <g id="line2d_18">
      <g>
       <use xlink:href="#m78de2ecdf6" x="682.439504" y="390.04" style="stroke: #000000; stroke-width: 0.8"/>
      </g>
     </g>
     <g id="text_9">
      <!-- 200000 -->
      <g transform="translate(663.352004 404.638438) scale(0.1 -0.1)">
       <use xlink:href="#DejaVuSans-32"/>
       <use xlink:href="#DejaVuSans-30" transform="translate(63.623047 0)"/>
       <use xlink:href="#DejaVuSans-30" transform="translate(127.246094 0)"/>
       <use xlink:href="#DejaVuSans-30" transform="translate(190.869141 0)"/>
       <use xlink:href="#DejaVuSans-30" transform="translate(254.492188 0)"/>
       <use xlink:href="#DejaVuSans-30" transform="translate(318.115234 0)"/>
      </g>
     </g>
    </g>
    <g id="text_10">
     <!-- Steps -->
     <g transform="translate(364.470156 418.316562) scale(0.1 -0.1)">
      <defs>
       <path id="DejaVuSans-53" d="M 3425 4513 
L 3425 3897 
Q 3066 4069 2747 4153 
Q 2428 4238 2131 4238 
Q 1616 4238 1336 4038 
Q 1056 3838 1056 3469 
Q 1056 3159 1242 3001 
Q 1428 2844 1947 2747 
L 2328 2669 
Q 3034 2534 3370 2195 
Q 3706 1856 3706 1288 
Q 3706 609 3251 259 
Q 2797 -91 1919 -91 
Q 1588 -91 1214 -16 
Q 841 59 441 206 
L 441 856 
Q 825 641 1194 531 
Q 1563 422 1919 422 
Q 2459 422 2753 634 
Q 3047 847 3047 1241 
Q 3047 1584 2836 1778 
Q 2625 1972 2144 2069 
L 1759 2144 
Q 1053 2284 737 2584 
Q 422 2884 422 3419 
Q 422 4038 858 4394 
Q 1294 4750 2059 4750 
Q 2388 4750 2728 4690 
Q 3069 4631 3425 4513 
z
" transform="scale(0.015625)"/>
       <path id="DejaVuSans-74" d="M 1172 4494 
L 1172 3500 
L 2356 3500 
L 2356 3053 
L 1172 3053 
L 1172 1153 
Q 1172 725 1289 603 
Q 1406 481 1766 481 
L 2356 481 
L 2356 0 
L 1766 0 
Q 1100 0 847 248 
Q 594 497 594 1153 
L 594 3053 
L 172 3053 
L 172 3500 
L 594 3500 
L 594 4494 
L 1172 4494 
z
" transform="scale(0.015625)"/>
       <path id="DejaVuSans-65" d="M 3597 1894 
L 3597 1613 
L 953 1613 
Q 991 1019 1311 708 
Q 1631 397 2203 397 
Q 2534 397 2845 478 
Q 3156 559 3463 722 
L 3463 178 
Q 3153 47 2828 -22 
Q 2503 -91 2169 -91 
Q 1331 -91 842 396 
Q 353 884 353 1716 
Q 353 2575 817 3079 
Q 1281 3584 2069 3584 
Q 2775 3584 3186 3129 
Q 3597 2675 3597 1894 
z
M 3022 2063 
Q 3016 2534 2758 2815 
Q 2500 3097 2075 3097 
Q 1594 3097 1305 2825 
Q 1016 2553 972 2059 
L 3022 2063 
z
" transform="scale(0.015625)"/>
       <path id="DejaVuSans-70" d="M 1159 525 
L 1159 -1331 
L 581 -1331 
L 581 3500 
L 1159 3500 
L 1159 2969 
Q 1341 3281 1617 3432 
Q 1894 3584 2278 3584 
Q 2916 3584 3314 3078 
Q 3713 2572 3713 1747 
Q 3713 922 3314 415 
Q 2916 -91 2278 -91 
Q 1894 -91 1617 61 
Q 1341 213 1159 525 
z
M 3116 1747 
Q 3116 2381 2855 2742 
Q 2594 3103 2138 3103 
Q 1681 3103 1420 2742 
Q 1159 2381 1159 1747 
Q 1159 1113 1420 752 
Q 1681 391 2138 391 
Q 2594 391 2855 752 
Q 3116 1113 3116 1747 
z
" transform="scale(0.015625)"/>
       <path id="DejaVuSans-73" d="M 2834 3397 
L 2834 2853 
Q 2591 2978 2328 3040 
Q 2066 3103 1784 3103 
Q 1356 3103 1142 2972 
Q 928 2841 928 2578 
Q 928 2378 1081 2264 
Q 1234 2150 1697 2047 
L 1894 2003 
Q 2506 1872 2764 1633 
Q 3022 1394 3022 966 
Q 3022 478 2636 193 
Q 2250 -91 1575 -91 
Q 1294 -91 989 -36 
Q 684 19 347 128 
L 347 722 
Q 666 556 975 473 
Q 1284 391 1588 391 
Q 1994 391 2212 530 
Q 2431 669 2431 922 
Q 2431 1156 2273 1281 
Q 2116 1406 1581 1522 
L 1381 1569 
Q 847 1681 609 1914 
Q 372 2147 372 2553 
Q 372 3047 722 3315 
Q 1072 3584 1716 3584 
Q 2034 3584 2315 3537 
Q 2597 3491 2834 3397 
z
" transform="scale(0.015625)"/>
      </defs>
      <use xlink:href="#DejaVuSans-53"/>
      <use xlink:href="#DejaVuSans-74" transform="translate(63.476562 0)"/>
      <use xlink:href="#DejaVuSans-65" transform="translate(102.685547 0)"/>
      <use xlink:href="#DejaVuSans-70" transform="translate(164.208984 0)"/>
      <use xlink:href="#DejaVuSans-73" transform="translate(227.685547 0)"/>
     </g>
    </g>
   </g>
   <g id="matplotlib.axis_2">
    <g id="ytick_1">
     <g id="line2d_19">
      <path d="M 47.72 349.016064 
L 709.2 349.016064 
" clip-path="url(#pc6877f52a8)" style="fill: none; stroke: #b0b0b0; stroke-width: 0.8; stroke-linecap: square"/>
     </g>
     <g id="line2d_20">
      <defs>
       <path id="m0c477eee26" d="M 0 0 
L -3.5 0 
" style="stroke: #000000; stroke-width: 0.8"/>
      </defs>
      <g>
       <use xlink:href="#m0c477eee26" x="47.72" y="349.016064" style="stroke: #000000; stroke-width: 0.8"/>
      </g>
     </g>
     <g id="text_11">
      <!-- 3.5 -->
      <g transform="translate(24.816875 352.815283) scale(0.1 -0.1)">
       <defs>
        <path id="DejaVuSans-33" d="M 2597 2516 
Q 3050 2419 3304 2112 
Q 3559 1806 3559 1356 
Q 3559 666 3084 287 
Q 2609 -91 1734 -91 
Q 1441 -91 1130 -33 
Q 819 25 488 141 
L 488 750 
Q 750 597 1062 519 
Q 1375 441 1716 441 
Q 2309 441 2620 675 
Q 2931 909 2931 1356 
Q 2931 1769 2642 2001 
Q 2353 2234 1838 2234 
L 1294 2234 
L 1294 2753 
L 1863 2753 
Q 2328 2753 2575 2939 
Q 2822 3125 2822 3475 
Q 2822 3834 2567 4026 
Q 2313 4219 1838 4219 
Q 1578 4219 1281 4162 
Q 984 4106 628 3988 
L 628 4550 
Q 988 4650 1302 4700 
Q 1616 4750 1894 4750 
Q 2613 4750 3031 4423 
Q 3450 4097 3450 3541 
Q 3450 3153 3228 2886 
Q 3006 2619 2597 2516 
z
" transform="scale(0.015625)"/>
        <path id="DejaVuSans-2e" d="M 684 794 
L 1344 794 
L 1344 0 
L 684 0 
L 684 794 
z
" transform="scale(0.015625)"/>
       </defs>
       <use xlink:href="#DejaVuSans-33"/>
       <use xlink:href="#DejaVuSans-2e" transform="translate(63.623047 0)"/>
       <use xlink:href="#DejaVuSans-35" transform="translate(95.410156 0)"/>
      </g>
     </g>
    </g>
    <g id="ytick_2">
     <g id="line2d_21">
      <path d="M 47.72 303.155707 
L 709.2 303.155707 
" clip-path="url(#pc6877f52a8)" style="fill: none; stroke: #b0b0b0; stroke-width: 0.8; stroke-linecap: square"/>
     </g>
     <g id="line2d_22">
      <g>
       <use xlink:href="#m0c477eee26" x="47.72" y="303.155707" style="stroke: #000000; stroke-width: 0.8"/>
      </g>
     </g>
     <g id="text_12">
      <!-- 4.0 -->
      <g transform="translate(24.816875 306.954926) scale(0.1 -0.1)">
       <defs>
        <path id="DejaVuSans-34" d="M 2419 4116 
L 825 1625 
L 2419 1625 
L 2419 4116 
z
M 2253 4666 
L 3047 4666 
L 3047 1625 
L 3713 1625 
L 3713 1100 
L 3047 1100 
L 3047 0 
L 2419 0 
L 2419 1100 
L 313 1100 
L 313 1709 
L 2253 4666 
z
" transform="scale(0.015625)"/>
       </defs>
       <use xlink:href="#DejaVuSans-34"/>
       <use xlink:href="#DejaVuSans-2e" transform="translate(63.623047 0)"/>
       <use xlink:href="#DejaVuSans-30" transform="translate(95.410156 0)"/>
      </g>
     </g>
    </g>
    <g id="ytick_3">
     <g id="line2d_23">
      <path d="M 47.72 257.29535 
L 709.2 257.29535 
" clip-path="url(#pc6877f52a8)" style="fill: none; stroke: #b0b0b0; stroke-width: 0.8; stroke-linecap: square"/>
     </g>
     <g id="line2d_24">
      <g>
       <use xlink:href="#m0c477eee26" x="47.72" y="257.29535" style="stroke: #000000; stroke-width: 0.8"/>
      </g>
     </g>
     <g id="text_13">
      <!-- 4.5 -->
      <g transform="translate(24.816875 261.094568) scale(0.1 -0.1)">
       <use xlink:href="#DejaVuSans-34"/>
       <use xlink:href="#DejaVuSans-2e" transform="translate(63.623047 0)"/>
       <use xlink:href="#DejaVuSans-35" transform="translate(95.410156 0)"/>
      </g>
     </g>
    </g>
    <g id="ytick_4">
     <g id="line2d_25">
      <path d="M 47.72 211.434993 
L 709.2 211.434993 
" clip-path="url(#pc6877f52a8)" style="fill: none; stroke: #b0b0b0; stroke-width: 0.8; stroke-linecap: square"/>
     </g>
     <g id="line2d_26">
      <g>
       <use xlink:href="#m0c477eee26" x="47.72" y="211.434993" style="stroke: #000000; stroke-width: 0.8"/>
      </g>
     </g>
     <g id="text_14">
      <!-- 5.0 -->
      <g transform="translate(24.816875 215.234211) scale(0.1 -0.1)">
       <use xlink:href="#DejaVuSans-35"/>
       <use xlink:href="#DejaVuSans-2e" transform="translate(63.623047 0)"/>
       <use xlink:href="#DejaVuSans-30" transform="translate(95.410156 0)"/>
      </g>
     </g>
    </g>
    <g id="ytick_5">
     <g id="line2d_27">
      <path d="M 47.72 165.574636 
L 709.2 165.574636 
" clip-path="url(#pc6877f52a8)" style="fill: none; stroke: #b0b0b0; stroke-width: 0.8; stroke-linecap: square"/>
     </g>
     <g id="line2d_28">
      <g>
       <use xlink:href="#m0c477eee26" x="47.72" y="165.574636" style="stroke: #000000; stroke-width: 0.8"/>
      </g>
     </g>
     <g id="text_15">
      <!-- 5.5 -->
      <g transform="translate(24.816875 169.373854) scale(0.1 -0.1)">
       <use xlink:href="#DejaVuSans-35"/>
       <use xlink:href="#DejaVuSans-2e" transform="translate(63.623047 0)"/>
       <use xlink:href="#DejaVuSans-35" transform="translate(95.410156 0)"/>
      </g>
     </g>
    </g>
    <g id="ytick_6">
     <g id="line2d_29">
      <path d="M 47.72 119.714279 
L 709.2 119.714279 
" clip-path="url(#pc6877f52a8)" style="fill: none; stroke: #b0b0b0; stroke-width: 0.8; stroke-linecap: square"/>
     </g>
     <g id="line2d_30">
      <g>
       <use xlink:href="#m0c477eee26" x="47.72" y="119.714279" style="stroke: #000000; stroke-width: 0.8"/>
      </g>
     </g>
     <g id="text_16">
      <!-- 6.0 -->
      <g transform="translate(24.816875 123.513497) scale(0.1 -0.1)">
       <defs>
        <path id="DejaVuSans-36" d="M 2113 2584 
Q 1688 2584 1439 2293 
Q 1191 2003 1191 1497 
Q 1191 994 1439 701 
Q 1688 409 2113 409 
Q 2538 409 2786 701 
Q 3034 994 3034 1497 
Q 3034 2003 2786 2293 
Q 2538 2584 2113 2584 
z
M 3366 4563 
L 3366 3988 
Q 3128 4100 2886 4159 
Q 2644 4219 2406 4219 
Q 1781 4219 1451 3797 
Q 1122 3375 1075 2522 
Q 1259 2794 1537 2939 
Q 1816 3084 2150 3084 
Q 2853 3084 3261 2657 
Q 3669 2231 3669 1497 
Q 3669 778 3244 343 
Q 2819 -91 2113 -91 
Q 1303 -91 875 529 
Q 447 1150 447 2328 
Q 447 3434 972 4092 
Q 1497 4750 2381 4750 
Q 2619 4750 2861 4703 
Q 3103 4656 3366 4563 
z
" transform="scale(0.015625)"/>
       </defs>
       <use xlink:href="#DejaVuSans-36"/>
       <use xlink:href="#DejaVuSans-2e" transform="translate(63.623047 0)"/>
       <use xlink:href="#DejaVuSans-30" transform="translate(95.410156 0)"/>
      </g>
     </g>
    </g>
    <g id="ytick_7">
     <g id="line2d_31">
      <path d="M 47.72 73.853921 
L 709.2 73.853921 
" clip-path="url(#pc6877f52a8)" style="fill: none; stroke: #b0b0b0; stroke-width: 0.8; stroke-linecap: square"/>
     </g>
     <g id="line2d_32">
      <g>
       <use xlink:href="#m0c477eee26" x="47.72" y="73.853921" style="stroke: #000000; stroke-width: 0.8"/>
      </g>
     </g>
     <g id="text_17">
      <!-- 6.5 -->
      <g transform="translate(24.816875 77.65314) scale(0.1 -0.1)">
       <use xlink:href="#DejaVuSans-36"/>
       <use xlink:href="#DejaVuSans-2e" transform="translate(63.623047 0)"/>
       <use xlink:href="#DejaVuSans-35" transform="translate(95.410156 0)"/>
      </g>
     </g>
    </g>
    <g id="ytick_8">
     <g id="line2d_33">
      <path d="M 47.72 27.993564 
L 709.2 27.993564 
" clip-path="url(#pc6877f52a8)" style="fill: none; stroke: #b0b0b0; stroke-width: 0.8; stroke-linecap: square"/>
     </g>
     <g id="line2d_34">
      <g>
       <use xlink:href="#m0c477eee26" x="47.72" y="27.993564" style="stroke: #000000; stroke-width: 0.8"/>
      </g>
     </g>
     <g id="text_18">
      <!-- 7.0 -->
      <g transform="translate(24.816875 31.792783) scale(0.1 -0.1)">
       <use xlink:href="#DejaVuSans-37"/>
       <use xlink:href="#DejaVuSans-2e" transform="translate(63.623047 0)"/>
       <use xlink:href="#DejaVuSans-30" transform="translate(95.410156 0)"/>
      </g>
     </g>
    </g>
    <g id="text_19">
     <!-- Quantum Gates -->
     <g transform="translate(18.737188 239.925469) rotate(-90) scale(0.1 -0.1)">
      <defs>
       <path id="DejaVuSans-51" d="M 2522 4238 
Q 1834 4238 1429 3725 
Q 1025 3213 1025 2328 
Q 1025 1447 1429 934 
Q 1834 422 2522 422 
Q 3209 422 3611 934 
Q 4013 1447 4013 2328 
Q 4013 3213 3611 3725 
Q 3209 4238 2522 4238 
z
M 3406 84 
L 4238 -825 
L 3475 -825 
L 2784 -78 
Q 2681 -84 2626 -87 
Q 2572 -91 2522 -91 
Q 1538 -91 948 567 
Q 359 1225 359 2328 
Q 359 3434 948 4092 
Q 1538 4750 2522 4750 
Q 3503 4750 4090 4092 
Q 4678 3434 4678 2328 
Q 4678 1516 4351 937 
Q 4025 359 3406 84 
z
" transform="scale(0.015625)"/>
       <path id="DejaVuSans-75" d="M 544 1381 
L 544 3500 
L 1119 3500 
L 1119 1403 
Q 1119 906 1312 657 
Q 1506 409 1894 409 
Q 2359 409 2629 706 
Q 2900 1003 2900 1516 
L 2900 3500 
L 3475 3500 
L 3475 0 
L 2900 0 
L 2900 538 
Q 2691 219 2414 64 
Q 2138 -91 1772 -91 
Q 1169 -91 856 284 
Q 544 659 544 1381 
z
M 1991 3584 
L 1991 3584 
z
" transform="scale(0.015625)"/>
       <path id="DejaVuSans-61" d="M 2194 1759 
Q 1497 1759 1228 1600 
Q 959 1441 959 1056 
Q 959 750 1161 570 
Q 1363 391 1709 391 
Q 2188 391 2477 730 
Q 2766 1069 2766 1631 
L 2766 1759 
L 2194 1759 
z
M 3341 1997 
L 3341 0 
L 2766 0 
L 2766 531 
Q 2569 213 2275 61 
Q 1981 -91 1556 -91 
Q 1019 -91 701 211 
Q 384 513 384 1019 
Q 384 1609 779 1909 
Q 1175 2209 1959 2209 
L 2766 2209 
L 2766 2266 
Q 2766 2663 2505 2880 
Q 2244 3097 1772 3097 
Q 1472 3097 1187 3025 
Q 903 2953 641 2809 
L 641 3341 
Q 956 3463 1253 3523 
Q 1550 3584 1831 3584 
Q 2591 3584 2966 3190 
Q 3341 2797 3341 1997 
z
" transform="scale(0.015625)"/>
       <path id="DejaVuSans-6e" d="M 3513 2113 
L 3513 0 
L 2938 0 
L 2938 2094 
Q 2938 2591 2744 2837 
Q 2550 3084 2163 3084 
Q 1697 3084 1428 2787 
Q 1159 2491 1159 1978 
L 1159 0 
L 581 0 
L 581 3500 
L 1159 3500 
L 1159 2956 
Q 1366 3272 1645 3428 
Q 1925 3584 2291 3584 
Q 2894 3584 3203 3211 
Q 3513 2838 3513 2113 
z
" transform="scale(0.015625)"/>
       <path id="DejaVuSans-6d" d="M 3328 2828 
Q 3544 3216 3844 3400 
Q 4144 3584 4550 3584 
Q 5097 3584 5394 3201 
Q 5691 2819 5691 2113 
L 5691 0 
L 5113 0 
L 5113 2094 
Q 5113 2597 4934 2840 
Q 4756 3084 4391 3084 
Q 3944 3084 3684 2787 
Q 3425 2491 3425 1978 
L 3425 0 
L 2847 0 
L 2847 2094 
Q 2847 2600 2669 2842 
Q 2491 3084 2119 3084 
Q 1678 3084 1418 2786 
Q 1159 2488 1159 1978 
L 1159 0 
L 581 0 
L 581 3500 
L 1159 3500 
L 1159 2956 
Q 1356 3278 1631 3431 
Q 1906 3584 2284 3584 
Q 2666 3584 2933 3390 
Q 3200 3197 3328 2828 
z
" transform="scale(0.015625)"/>
       <path id="DejaVuSans-20" transform="scale(0.015625)"/>
       <path id="DejaVuSans-47" d="M 3809 666 
L 3809 1919 
L 2778 1919 
L 2778 2438 
L 4434 2438 
L 4434 434 
Q 4069 175 3628 42 
Q 3188 -91 2688 -91 
Q 1594 -91 976 548 
Q 359 1188 359 2328 
Q 359 3472 976 4111 
Q 1594 4750 2688 4750 
Q 3144 4750 3555 4637 
Q 3966 4525 4313 4306 
L 4313 3634 
Q 3963 3931 3569 4081 
Q 3175 4231 2741 4231 
Q 1884 4231 1454 3753 
Q 1025 3275 1025 2328 
Q 1025 1384 1454 906 
Q 1884 428 2741 428 
Q 3075 428 3337 486 
Q 3600 544 3809 666 
z
" transform="scale(0.015625)"/>
      </defs>
      <use xlink:href="#DejaVuSans-51"/>
      <use xlink:href="#DejaVuSans-75" transform="translate(78.710938 0)"/>
      <use xlink:href="#DejaVuSans-61" transform="translate(142.089844 0)"/>
      <use xlink:href="#DejaVuSans-6e" transform="translate(203.369141 0)"/>
      <use xlink:href="#DejaVuSans-74" transform="translate(266.748047 0)"/>
      <use xlink:href="#DejaVuSans-75" transform="translate(305.957031 0)"/>
      <use xlink:href="#DejaVuSans-6d" transform="translate(369.335938 0)"/>
      <use xlink:href="#DejaVuSans-20" transform="translate(466.748047 0)"/>
      <use xlink:href="#DejaVuSans-47" transform="translate(498.535156 0)"/>
      <use xlink:href="#DejaVuSans-61" transform="translate(576.025391 0)"/>
      <use xlink:href="#DejaVuSans-74" transform="translate(637.304688 0)"/>
      <use xlink:href="#DejaVuSans-65" transform="translate(676.513672 0)"/>
      <use xlink:href="#DejaVuSans-73" transform="translate(738.037109 0)"/>
     </g>
    </g>
   </g>
   <g id="line2d_35">
    <path d="M 77.790304 195.995339 
L 80.875821 199.358432 
L 83.858285 190.033493 
L 86.99836 190.797832 
L 90.274827 188.657682 
L 93.393685 193.702321 
L 96.691369 191.715039 
L 100.025425 185.906061 
L 103.362511 177.498328 
L 106.626855 189.880625 
L 109.776022 182.848703 
L 113.104016 206.543221 
L 116.39867 210.059182 
L 119.823654 222.594346 
L 123.318351 230.543475 
L 126.800924 237.575396 
L 130.250156 242.772903 
L 133.744852 248.73475 
L 137.127404 255.308068 
L 140.376593 258.059689 
L 146.744639 266.620289 
L 149.908961 266.161685 
L 153.003571 267.843232 
L 156.089088 268.148968 
L 159.201884 269.524778 
L 162.266184 268.301835 
L 165.345639 266.467421 
L 168.428125 267.9961 
L 171.486364 270.289118 
L 174.550664 268.760439 
L 177.605872 271.206325 
L 180.661079 271.51206 
L 183.716287 270.13625 
L 186.771494 271.664928 
L 189.829733 271.664928 
L 192.866754 271.817796 
L 195.921962 270.289118 
L 198.992324 269.983382 
L 202.053593 270.594853 
L 205.120925 269.830514 
L 208.182194 271.359193 
L 211.219216 271.053457 
L 214.268361 268.760439 
L 217.335693 271.053457 
L 220.3909 272.429268 
L 223.440046 272.735003 
L 226.483129 270.289118 
L 229.532275 270.900589 
L 232.593544 270.594853 
L 235.663907 269.983382 
L 238.710021 270.289118 
L 241.786445 269.983382 
L 244.853777 269.524778 
L 247.936263 271.51206 
L 251.000563 271.206325 
L 254.092142 264.633007 
L 257.27465 264.480139 
L 260.423817 267.384628 
L 263.494179 269.830514 
L 266.658501 264.480139 
L 269.792514 267.078893 
L 272.911372 266.926025 
L 276.005981 270.13625 
L 279.103622 270.289118 
L 282.19217 266.926025 
L 285.323152 267.537496 
L 288.4117 270.289118 
L 291.469938 269.830514 
L 294.610013 267.843232 
L 297.680375 253.01505 
L 300.738613 248.887618 
L 303.8211 258.976896 
L 306.91874 260.352707 
L 310.001227 264.021535 
L 313.080682 266.620289 
L 316.123765 268.148968 
L 319.182004 245.218789 
L 322.237211 258.976896 
L 325.346976 261.269914 
L 328.462803 257.753953 
L 331.551351 257.601085 
L 334.624744 265.703082 
L 337.695106 256.836746 
L 340.868521 263.257196 
L 343.935852 271.664928 
L 347.0244 265.703082 
L 350.082639 267.537496 
L 353.165125 267.23176 
L 356.250642 273.193607 
L 359.366469 283.588621 
L 362.40046 279.308321 
L 365.449605 289.3976 
L 368.480565 295.05371 
L 371.517587 288.480393 
L 374.554608 290.467675 
L 377.579506 289.856203 
L 380.613497 275.639493 
L 383.650519 288.938996 
L 386.68754 296.123785 
L 389.736686 295.05371 
L 392.773708 288.327525 
L 395.783451 284.35296 
L 398.820472 279.155453 
L 401.851432 281.448471 
L 404.891485 280.989868 
L 407.931538 278.69685 
L 410.965528 278.238246 
L 413.996488 273.193607 
L 417.03351 275.639493 
L 420.06447 273.040739 
L 423.101491 270.594853 
L 426.135482 268.301835 
L 429.169473 275.486625 
L 432.200433 285.1173 
L 435.231392 284.047225 
L 438.265383 277.168171 
L 441.296343 271.970664 
L 444.327303 271.664928 
L 447.373417 277.626775 
L 450.431656 282.059943 
L 453.474739 275.180889 
L 456.514792 272.582135 
L 459.548783 272.735003 
L 462.579743 271.970664 
L 465.604641 273.499343 
L 468.617415 272.582135 
L 471.657467 266.161685 
L 474.679334 272.582135 
L 477.707263 272.2764 
L 480.741254 271.664928 
L 483.772214 272.123532 
L 486.803173 272.429268 
L 489.834133 272.582135 
L 492.865093 273.040739 
L 495.896053 270.900589 
L 498.930044 271.359193 
L 501.964034 272.582135 
L 504.994994 272.429268 
L 508.025954 271.664928 
L 511.10844 258.059689 
L 514.48796 264.480139 
L 517.546199 272.2764 
L 520.580189 272.429268 
L 523.617211 272.2764 
L 526.648171 271.51206 
L 532.713121 271.817796 
L 535.753174 267.078893 
L 538.784134 239.256943 
L 541.818125 258.518293 
L 544.921827 272.2764 
L 547.955818 267.537496 
L 550.883725 281.601339 
L 556.83653 264.174403 
L 559.86749 269.37191 
L 562.901481 272.887871 
L 565.932441 271.817796 
L 568.969463 271.817796 
L 572.000422 272.2764 
L 575.031382 271.970664 
L 578.062342 270.594853 
L 581.096333 272.2764 
L 584.127292 272.429268 
L 587.158252 272.887871 
L 590.198305 271.817796 
L 593.232296 272.582135 
L 596.263255 272.2764 
L 599.306339 268.607571 
L 602.397918 272.429268 
L 605.431909 272.429268 
L 608.544705 268.148968 
L 611.581726 272.887871 
L 614.870318 254.085125 
L 618.025547 271.053457 
L 621.071661 272.2764 
L 624.242045 264.480139 
L 627.291191 269.219043 
L 630.331244 271.206325 
L 633.365234 272.2764 
L 636.399225 272.2764 
L 639.430185 272.582135 
L 642.464176 272.429268 
L 645.495135 272.582135 
L 648.662488 261.117046 
L 651.802563 271.359193 
L 654.839585 271.51206 
L 657.879637 272.735003 
L 660.913628 271.970664 
L 663.95065 271.970664 
L 666.993733 272.429268 
L 670.030755 272.123532 
L 673.067777 272.429268 
L 676.101767 272.887871 
L 679.132727 272.123532 
L 679.132727 272.123532 
" clip-path="url(#pc6877f52a8)" style="fill: none; stroke: #0000ff; stroke-width: 1.5; stroke-linecap: square"/>
   </g>
   <g id="line2d_36">
    <path d="M 77.787273 200.734243 
L 80.830356 204.708807 
L 83.952245 191.409303 
L 86.977143 196.453943 
L 90.108124 202.110053 
L 93.293663 200.122771 
L 96.351901 196.148207 
L 99.437419 186.6704 
L 102.607802 200.275639 
L 105.672103 188.199078 
L 108.763682 192.785114 
L 111.924973 192.173643 
L 115.113543 187.434739 
L 118.250586 184.53025 
L 121.248205 190.186361 
L 124.373125 194.160925 
L 127.498044 187.740475 
L 130.650243 195.842471 
L 133.83275 197.065414 
L 136.994041 190.033493 
L 140.100775 202.415789 
L 143.259035 200.887111 
L 146.520348 205.167411 
L 149.642237 199.358432 
L 152.730785 199.205564 
L 155.952695 194.466661 
L 159.056398 194.925264 
L 162.184348 201.957186 
L 165.363825 195.995339 
L 168.44328 192.020775 
L 171.492426 199.052696 
L 174.920441 193.855189 
L 178.066578 191.562171 
L 181.258178 203.944468 
L 184.289138 194.008057 
L 187.347376 185.294589 
L 190.581411 197.37115 
L 193.766949 190.644964 
L 196.876714 200.734243 
L 200.044067 188.963418 
L 203.229606 199.969903 
L 206.272689 199.205564 
L 209.473383 196.912546 
L 212.695293 189.727757 
L 215.880832 191.715039 
L 218.990597 194.772396 
L 222.118547 201.039978 
L 225.204064 199.817036 
L 228.228962 205.626014 
L 231.47512 192.937982 
L 234.448492 211.893596 
L 237.579473 190.797832 
L 240.931715 194.008057 
L 244.120284 194.925264 
L 247.23308 191.715039 
L 250.506517 189.574889 
L 253.48595 200.275639 
L 256.604808 193.702321 
L 259.796408 190.339228 
L 262.942545 197.524018 
L 266.24326 195.078132 
L 269.33787 193.702321 
L 272.529471 205.626014 
L 275.466471 194.619528 
L 278.521678 179.027007 
L 281.761774 192.479378 
L 284.956406 213.422275 
L 288.069201 177.498328 
L 291.315359 202.262921 
L 294.528177 192.020775 
L 297.671282 199.969903 
L 300.774985 190.033493 
L 303.912028 183.460175 
L 307.176372 178.874139 
L 310.407375 192.632246 
L 313.462583 192.479378 
L 316.726926 191.256436 
L 319.933682 198.135489 
L 323.185902 198.746961 
L 326.398719 184.53025 
L 329.456957 205.014543 
L 332.660682 189.727757 
L 335.809849 202.874393 
L 338.913552 182.848703 
L 342.044534 201.498582 
L 345.151267 201.498582 
L 348.291342 201.039978 
L 351.492035 195.842471 
L 354.53815 210.364918 
L 357.799463 193.855189 
L 360.778896 204.708807 
L 363.937156 195.231 
L 367.192407 203.180128 
L 370.177902 200.581375 
L 373.248265 195.689603 
L 376.45502 210.823521 
L 379.48598 199.817036 
L 382.601807 204.250203 
L 385.808562 188.963418 
L 388.978946 195.995339 
L 392.109927 196.606811 
L 395.3379 208.377636 
L 398.435541 200.887111 
L 401.4665 204.708807 
L 404.488367 193.702321 
L 407.52842 190.797832 
L 410.774578 183.154439 
L 414.044983 207.766164 
L 417.106253 195.231 
L 420.28573 193.396586 
L 423.50764 185.600325 
L 426.723488 196.453943 
L 429.88781 203.180128 
L 432.991513 191.103568 
L 436.01338 197.065414 
L 439.047371 195.842471 
L 442.23291 202.110053 
L 445.263869 194.008057 
L 448.279674 194.466661 
L 451.447027 191.867907 
L 454.477987 196.606811 
L 457.630185 186.6704 
L 460.852096 201.804318 
L 463.913365 195.383868 
L 467.126182 196.606811 
L 470.317783 187.893343 
L 473.400269 195.995339 
L 476.397888 203.332996 
L 479.531901 203.485864 
L 482.59317 205.320278 
L 485.721121 192.632246 
L 488.927876 194.619528 
L 491.828505 199.969903 
L 494.868557 198.899828 
L 498.008632 185.600325 
L 501.115366 200.122771 
L 504.355462 198.594093 
L 507.434917 192.479378 
L 510.499217 177.039725 
L 513.772654 178.1098 
L 517.061245 186.211796 
L 520.286186 192.173643 
L 523.52022 187.587607 
L 526.64514 193.855189 
L 529.657914 197.218282 
L 532.716152 205.014543 
L 535.886536 195.231 
L 539.011456 194.619528 
L 542.106066 180.708553 
L 545.255233 205.320278 
L 548.422586 190.9507 
L 551.541444 190.9507 
L 554.711828 194.008057 
L 557.857964 191.103568 
L 561.043503 198.746961 
L 564.195701 191.715039 
L 567.317589 196.606811 
L 570.324302 207.460428 
L 573.376478 208.224768 
L 576.365004 197.982621 
L 579.435367 205.167411 
L 582.623936 196.759678 
L 585.724608 191.867907 
L 588.967735 199.969903 
L 592.044159 214.186614 
L 595.156955 183.460175 
L 598.309153 198.899828 
L 601.467413 192.785114 
L 604.701448 187.587607 
L 607.971853 177.192593 
L 611.145268 187.434739 
L 614.345962 184.683118 
L 617.5315 200.887111 
L 620.613986 189.880625 
L 623.857113 200.122771 
L 626.951723 204.708807 
L 629.976621 194.160925 
L 633.09851 188.657682 
L 636.132501 192.020775 
L 639.233173 192.479378 
L 642.409618 205.167411 
L 645.492104 190.033493 
L 648.717046 184.835986 
L 651.848027 201.345714 
L 654.963854 209.753446 
L 658.228198 199.5113 
L 661.334931 197.37115 
L 664.432572 196.301075 
L 667.599925 179.027007 
L 670.785464 206.237486 
L 673.89826 192.479378 
L 677.132294 189.269153 
L 677.132294 189.269153 
" clip-path="url(#pc6877f52a8)" style="fill: none; stroke: #ffa500; stroke-width: 1.5; stroke-linecap: square"/>
   </g>
   <g id="patch_3">
    <path d="M 47.72 390.04 
L 47.72 10.8 
" style="fill: none; stroke: #000000; stroke-width: 0.8; stroke-linejoin: miter; stroke-linecap: square"/>
   </g>
   <g id="patch_4">
    <path d="M 709.2 390.04 
L 709.2 10.8 
" style="fill: none; stroke: #000000; stroke-width: 0.8; stroke-linejoin: miter; stroke-linecap: square"/>
   </g>
   <g id="patch_5">
    <path d="M 47.72 390.04 
L 709.2 390.04 
" style="fill: none; stroke: #000000; stroke-width: 0.8; stroke-linejoin: miter; stroke-linecap: square"/>
   </g>
   <g id="patch_6">
    <path d="M 47.72 10.8 
L 709.2 10.8 
" style="fill: none; stroke: #000000; stroke-width: 0.8; stroke-linejoin: miter; stroke-linecap: square"/>
   </g>
   <g id="legend_1">
    <g id="patch_7">
     <path d="M 628.803125 385.04 
L 702.2 385.04 
Q 704.2 385.04 704.2 383.04 
L 704.2 340.005625 
Q 704.2 338.005625 702.2 338.005625 
L 628.803125 338.005625 
Q 626.803125 338.005625 626.803125 340.005625 
L 626.803125 383.04 
Q 626.803125 385.04 628.803125 385.04 
z
" style="fill: #ffffff; opacity: 0.8; stroke: #cccccc; stroke-linejoin: miter"/>
    </g>
    <g id="text_20">
     <!-- Agent -->
     <g transform="translate(650.701563 349.604062) scale(0.1 -0.1)">
      <defs>
       <path id="DejaVuSans-41" d="M 2188 4044 
L 1331 1722 
L 3047 1722 
L 2188 4044 
z
M 1831 4666 
L 2547 4666 
L 4325 0 
L 3669 0 
L 3244 1197 
L 1141 1197 
L 716 0 
L 50 0 
L 1831 4666 
z
" transform="scale(0.015625)"/>
       <path id="DejaVuSans-67" d="M 2906 1791 
Q 2906 2416 2648 2759 
Q 2391 3103 1925 3103 
Q 1463 3103 1205 2759 
Q 947 2416 947 1791 
Q 947 1169 1205 825 
Q 1463 481 1925 481 
Q 2391 481 2648 825 
Q 2906 1169 2906 1791 
z
M 3481 434 
Q 3481 -459 3084 -895 
Q 2688 -1331 1869 -1331 
Q 1566 -1331 1297 -1286 
Q 1028 -1241 775 -1147 
L 775 -588 
Q 1028 -725 1275 -790 
Q 1522 -856 1778 -856 
Q 2344 -856 2625 -561 
Q 2906 -266 2906 331 
L 2906 616 
Q 2728 306 2450 153 
Q 2172 0 1784 0 
Q 1141 0 747 490 
Q 353 981 353 1791 
Q 353 2603 747 3093 
Q 1141 3584 1784 3584 
Q 2172 3584 2450 3431 
Q 2728 3278 2906 2969 
L 2906 3500 
L 3481 3500 
L 3481 434 
z
" transform="scale(0.015625)"/>
      </defs>
      <use xlink:href="#DejaVuSans-41"/>
      <use xlink:href="#DejaVuSans-67" transform="translate(68.408203 0)"/>
      <use xlink:href="#DejaVuSans-65" transform="translate(131.884766 0)"/>
      <use xlink:href="#DejaVuSans-6e" transform="translate(193.408203 0)"/>
      <use xlink:href="#DejaVuSans-74" transform="translate(256.787109 0)"/>
     </g>
    </g>
    <g id="line2d_37">
     <path d="M 630.803125 360.782187 
L 640.803125 360.782187 
L 650.803125 360.782187 
" style="fill: none; stroke: #0000ff; stroke-width: 1.5; stroke-linecap: square"/>
    </g>
    <g id="text_21">
     <!-- PPO -->
     <g transform="translate(658.803125 364.282187) scale(0.1 -0.1)">
      <defs>
       <path id="DejaVuSans-50" d="M 1259 4147 
L 1259 2394 
L 2053 2394 
Q 2494 2394 2734 2622 
Q 2975 2850 2975 3272 
Q 2975 3691 2734 3919 
Q 2494 4147 2053 4147 
L 1259 4147 
z
M 628 4666 
L 2053 4666 
Q 2838 4666 3239 4311 
Q 3641 3956 3641 3272 
Q 3641 2581 3239 2228 
Q 2838 1875 2053 1875 
L 1259 1875 
L 1259 0 
L 628 0 
L 628 4666 
z
" transform="scale(0.015625)"/>
       <path id="DejaVuSans-4f" d="M 2522 4238 
Q 1834 4238 1429 3725 
Q 1025 3213 1025 2328 
Q 1025 1447 1429 934 
Q 1834 422 2522 422 
Q 3209 422 3611 934 
Q 4013 1447 4013 2328 
Q 4013 3213 3611 3725 
Q 3209 4238 2522 4238 
z
M 2522 4750 
Q 3503 4750 4090 4092 
Q 4678 3434 4678 2328 
Q 4678 1225 4090 567 
Q 3503 -91 2522 -91 
Q 1538 -91 948 565 
Q 359 1222 359 2328 
Q 359 3434 948 4092 
Q 1538 4750 2522 4750 
z
" transform="scale(0.015625)"/>
      </defs>
      <use xlink:href="#DejaVuSans-50"/>
      <use xlink:href="#DejaVuSans-50" transform="translate(60.302734 0)"/>
      <use xlink:href="#DejaVuSans-4f" transform="translate(120.605469 0)"/>
     </g>
    </g>
    <g id="line2d_38">
     <path d="M 630.803125 375.460312 
L 640.803125 375.460312 
L 650.803125 375.460312 
" style="fill: none; stroke: #ffa500; stroke-width: 1.5; stroke-linecap: square"/>
    </g>
    <g id="text_22">
     <!-- Random -->
     <g transform="translate(658.803125 378.960312) scale(0.1 -0.1)">
      <defs>
       <path id="DejaVuSans-52" d="M 2841 2188 
Q 3044 2119 3236 1894 
Q 3428 1669 3622 1275 
L 4263 0 
L 3584 0 
L 2988 1197 
Q 2756 1666 2539 1819 
Q 2322 1972 1947 1972 
L 1259 1972 
L 1259 0 
L 628 0 
L 628 4666 
L 2053 4666 
Q 2853 4666 3247 4331 
Q 3641 3997 3641 3322 
Q 3641 2881 3436 2590 
Q 3231 2300 2841 2188 
z
M 1259 4147 
L 1259 2491 
L 2053 2491 
Q 2509 2491 2742 2702 
Q 2975 2913 2975 3322 
Q 2975 3731 2742 3939 
Q 2509 4147 2053 4147 
L 1259 4147 
z
" transform="scale(0.015625)"/>
       <path id="DejaVuSans-64" d="M 2906 2969 
L 2906 4863 
L 3481 4863 
L 3481 0 
L 2906 0 
L 2906 525 
Q 2725 213 2448 61 
Q 2172 -91 1784 -91 
Q 1150 -91 751 415 
Q 353 922 353 1747 
Q 353 2572 751 3078 
Q 1150 3584 1784 3584 
Q 2172 3584 2448 3432 
Q 2725 3281 2906 2969 
z
M 947 1747 
Q 947 1113 1208 752 
Q 1469 391 1925 391 
Q 2381 391 2643 752 
Q 2906 1113 2906 1747 
Q 2906 2381 2643 2742 
Q 2381 3103 1925 3103 
Q 1469 3103 1208 2742 
Q 947 2381 947 1747 
z
" transform="scale(0.015625)"/>
       <path id="DejaVuSans-6f" d="M 1959 3097 
Q 1497 3097 1228 2736 
Q 959 2375 959 1747 
Q 959 1119 1226 758 
Q 1494 397 1959 397 
Q 2419 397 2687 759 
Q 2956 1122 2956 1747 
Q 2956 2369 2687 2733 
Q 2419 3097 1959 3097 
z
M 1959 3584 
Q 2709 3584 3137 3096 
Q 3566 2609 3566 1747 
Q 3566 888 3137 398 
Q 2709 -91 1959 -91 
Q 1206 -91 779 398 
Q 353 888 353 1747 
Q 353 2609 779 3096 
Q 1206 3584 1959 3584 
z
" transform="scale(0.015625)"/>
      </defs>
      <use xlink:href="#DejaVuSans-52"/>
      <use xlink:href="#DejaVuSans-61" transform="translate(67.232422 0)"/>
      <use xlink:href="#DejaVuSans-6e" transform="translate(128.511719 0)"/>
      <use xlink:href="#DejaVuSans-64" transform="translate(191.890625 0)"/>
      <use xlink:href="#DejaVuSans-6f" transform="translate(255.367188 0)"/>
      <use xlink:href="#DejaVuSans-6d" transform="translate(316.548828 0)"/>
     </g>
    </g>
   </g>
  </g>
 </g>
 <defs>
  <clipPath id="pc6877f52a8">
   <rect x="47.72" y="10.8" width="661.48" height="379.24"/>
  </clipPath>
 </defs>
</svg>
