<?xml version="1.0" encoding="utf-8" standalone="no"?>
<!DOCTYPE svg PUBLIC "-//W3C//DTD SVG 1.1//EN"
  "http://www.w3.org/Graphics/SVG/1.1/DTD/svg11.dtd">
<svg xmlns:xlink="http://www.w3.org/1999/xlink" width="720pt" height="432pt" viewBox="0 0 720 432" xmlns="http://www.w3.org/2000/svg" version="1.1">
 <metadata>
  <rdf:RDF xmlns:dc="http://purl.org/dc/elements/1.1/" xmlns:cc="http://creativecommons.org/ns#" xmlns:rdf="http://www.w3.org/1999/02/22-rdf-syntax-ns#">
   <cc:Work>
    <dc:type rdf:resource="http://purl.org/dc/dcmitype/StillImage"/>
    <dc:date>2025-04-16T01:22:17.840045</dc:date>
    <dc:format>image/svg+xml</dc:format>
    <dc:creator>
     <cc:Agent>
      <dc:title>Matplotlib v3.10.0, https://matplotlib.org/</dc:title>
     </cc:Agent>
    </dc:creator>
   </cc:Work>
  </rdf:RDF>
 </metadata>
 <defs>
  <style type="text/css">*{stroke-linejoin: round; stroke-linecap: butt}</style>
 </defs>
 <g id="figure_1">
  <g id="patch_1">
   <path d="M 0 432 
L 720 432 
L 720 0 
L 0 0 
z
" style="fill: #ffffff"/>
  </g>
  <g id="axes_1">
   <g id="patch_2">
    <path d="M 50.87 390.04 
L 709.2 390.04 
L 709.2 10.8 
L 50.87 10.8 
z
" style="fill: #ffffff"/>
   </g>
   <g id="FillBetweenPolyCollection_1">
    <defs>
     <path id="md6ebc29475" d="M 80.794091 -94.447275 
L 80.794091 -63.069334 
L 86.931081 -64.706991 
L 92.894564 -59.478048 
L 98.864474 -59.198182 
L 104.937202 -63.491486 
L 110.919963 -70.955437 
L 116.806333 -95.388597 
L 122.120773 -163.565195 
L 126.786171 -238.434384 
L 131.155964 -294.693879 
L 135.230155 -327.719164 
L 139.201526 -337.251906 
L 143.10221 -347.191062 
L 147.035024 -338.499142 
L 150.929281 -359.643066 
L 154.85567 -354.285797 
L 158.749927 -353.112867 
L 162.61848 -354.257786 
L 166.512737 -356.610815 
L 170.387716 -362.509871 
L 174.249843 -362.507634 
L 178.118396 -360.136811 
L 181.986948 -358.984578 
L 185.87478 -358.984715 
L 189.743332 -360.088158 
L 193.611885 -363.683764 
L 197.467585 -362.511629 
L 201.329712 -358.988914 
L 205.198265 -363.684233 
L 209.060391 -358.963894 
L 212.922518 -358.990458 
L 216.765366 -361.336584 
L 220.627493 -360.138217 
L 224.476767 -361.337033 
L 228.351746 -362.511219 
L 232.207446 -362.510789 
L 236.063147 -362.51077 
L 239.918847 -362.509871 
L 243.780974 -360.134194 
L 247.649526 -362.510672 
L 251.511653 -360.134682 
L 255.367353 -363.68437 
L 259.223054 -361.333693 
L 263.08518 -363.681928 
L 266.940881 -363.684506 
L 270.803007 -363.68312 
L 274.639429 -360.163296 
L 278.488703 -361.33838 
L 282.325125 -358.989461 
L 286.20653 -361.336935 
L 290.062231 -362.486785 
L 293.911505 -362.511219 
L 297.773632 -358.974051 
L 301.629332 -362.511668 
L 305.491459 -362.511668 
L 309.347159 -363.684956 
L 313.202859 -363.685854 
L 317.064986 -362.486335 
L 320.939965 -363.684506 
L 324.885632 -358.975477 
L 328.767037 -362.507586 
L 332.699851 -356.601586 
L 336.57483 -362.505535 
L 340.436957 -362.506277 
L 344.30551 -363.678217 
L 348.199767 -363.681176 
L 352.06832 -363.682378 
L 355.956151 -361.294287 
L 359.940375 -362.503767 
L 363.866763 -362.499383 
L 367.786725 -360.149477 
L 371.648852 -362.498933 
L 375.523831 -358.989071 
L 379.385957 -362.511219 
L 383.25451 -362.501726 
L 387.11021 -362.511668 
L 390.965911 -362.512117 
L 394.821611 -363.685854 
L 398.683738 -362.509422 
L 402.539438 -363.685405 
L 406.395138 -362.507625 
L 410.250839 -362.509871 
L 414.106539 -363.685405 
L 417.96224 -362.511668 
L 421.81794 -363.684936 
L 425.680067 -363.684506 
L 429.535767 -362.512117 
L 433.391468 -363.684956 
L 437.253594 -363.684467 
L 441.109295 -360.146967 
L 444.958569 -356.580765 
L 448.814269 -360.128237 
L 452.66997 -355.396726 
L 456.52567 -360.148725 
L 460.387797 -362.51032 
L 464.243497 -361.324904 
L 468.11205 -361.331994 
L 471.96775 -363.685405 
L 475.823451 -360.151479 
L 479.672725 -361.318302 
L 483.502721 -347.25264 
L 487.07567 -246.311719 
L 489.980297 -162.67565 
L 492.69214 -152.412619 
L 495.397556 -141.355751 
L 498.000154 -135.487475 
L 500.609178 -133.140601 
L 503.198924 -128.938427 
L 505.76939 -128.938155 
L 508.339857 -127.471934 
L 510.910324 -126.993016 
L 513.50007 -133.333766 
L 516.083389 -127.963502 
L 518.653856 -128.442485 
L 521.237175 -128.936182 
L 523.820495 -128.936841 
L 526.397388 -129.623683 
L 528.967855 -128.937718 
L 531.544748 -130.111237 
L 534.269443 -125.936932 
L 536.92345 -105.115376 
L 539.551752 -67.881443 
L 542.141498 -59.198182 
L 544.718391 -59.198182 
L 547.295284 -59.198182 
L 549.865751 -59.198182 
L 552.442644 -59.198182 
L 555.013111 -59.198182 
L 557.583578 -59.198182 
L 560.154045 -59.198182 
L 562.724512 -59.198182 
L 565.301405 -59.198182 
L 567.884724 -66.944683 
L 570.468043 -68.354353 
L 573.03851 -69.965404 
L 575.615403 -70.166786 
L 578.18587 -71.375074 
L 580.76919 -71.576455 
L 583.346083 -71.979218 
L 585.942254 -71.173693 
L 588.544852 -71.979218 
L 591.198859 -71.375074 
L 593.782179 -71.979218 
L 596.365498 -71.979218 
L 598.942391 -71.979218 
L 601.52571 -71.979218 
L 604.115456 -71.375074 
L 606.685923 -71.777837 
L 609.262816 -71.979218 
L 611.846135 -71.576455 
L 614.442307 -71.777837 
L 617.038478 -71.979218 
L 619.615371 -71.979218 
L 622.224395 -71.77785 
L 624.801288 -71.979218 
L 627.545262 -67.347446 
L 630.224974 -71.777837 
L 632.827571 -70.77093 
L 635.4623 -71.979218 
L 638.064898 -71.979218 
L 640.641791 -71.979218 
L 643.22511 -71.979218 
L 645.80843 -71.777837 
L 648.398175 -71.979218 
L 650.968642 -70.972311 
L 653.545535 -71.777837 
L 656.116002 -71.777837 
L 658.686469 -71.979218 
L 661.263362 -71.978671 
L 663.846681 -71.979218 
L 666.417148 -71.979218 
L 668.987615 -71.979218 
L 671.558082 -71.77729 
L 674.134975 -71.979218 
L 676.705442 -71.979218 
L 679.275909 -71.777837 
L 679.275909 -73.152955 
L 679.275909 -73.152955 
L 676.705442 -71.979218 
L 674.134975 -71.979218 
L 671.558082 -73.153049 
L 668.987615 -71.979218 
L 666.417148 -71.979218 
L 663.846681 -71.979218 
L 661.263362 -71.979312 
L 658.686469 -71.979218 
L 656.116002 -73.152955 
L 653.545535 -73.152955 
L 650.968642 -77.847902 
L 648.398175 -71.979218 
L 645.80843 -73.152955 
L 643.22511 -71.979218 
L 640.641791 -71.979218 
L 638.064898 -71.979218 
L 635.4623 -71.979218 
L 632.827571 -79.021639 
L 630.224974 -73.152955 
L 627.545262 -98.975166 
L 624.801288 -71.979218 
L 622.224395 -73.152877 
L 619.615371 -71.979218 
L 617.038478 -71.979218 
L 614.442307 -73.152955 
L 611.846135 -74.326692 
L 609.262816 -71.979218 
L 606.685923 -73.152955 
L 604.115456 -75.500429 
L 601.52571 -71.979218 
L 598.942391 -71.979218 
L 596.365498 -71.979218 
L 593.782179 -71.979218 
L 591.198859 -75.500429 
L 588.544852 -71.979218 
L 585.942254 -76.674166 
L 583.346083 -71.979218 
L 580.76919 -74.326692 
L 578.18587 -75.500429 
L 575.615403 -82.54285 
L 573.03851 -83.716587 
L 570.468043 -93.106482 
L 567.884724 -101.32264 
L 565.301405 -156.97445 
L 562.724512 -250.387221 
L 560.154045 -305.83765 
L 557.583578 -306.726141 
L 555.013111 -307.212768 
L 552.442644 -306.525209 
L 549.865751 -306.323821 
L 547.295284 -308.184342 
L 544.718391 -311.100393 
L 542.141498 -319.161811 
L 539.551752 -341.520632 
L 536.92345 -380.129032 
L 534.269443 -398.204299 
L 531.544748 -403.755037 
L 528.967855 -403.957689 
L 526.397388 -403.263537 
L 523.820495 -403.95258 
L 521.237175 -403.948741 
L 518.653856 -403.45361 
L 516.083389 -402.974493 
L 513.50007 -401.479622 
L 510.910324 -402.013261 
L 508.339857 -402.491763 
L 505.76939 -403.96023 
L 503.198924 -403.961818 
L 500.609178 -402.666534 
L 498.000154 -402.260277 
L 495.397556 -401.256383 
L 492.69214 -399.931014 
L 489.980297 -396.458954 
L 487.07567 -383.824072 
L 483.502721 -366.505348 
L 479.672725 -364.092062 
L 475.823451 -364.292257 
L 471.96775 -363.685931 
L 468.11205 -364.089713 
L 464.243497 -364.090929 
L 460.387797 -363.887544 
L 456.52567 -364.29273 
L 452.66997 -365.108044 
L 448.814269 -364.296245 
L 444.958569 -364.904677 
L 441.109295 -364.293031 
L 437.253594 -363.686092 
L 433.391468 -363.686008 
L 429.535767 -363.887236 
L 425.680067 -363.686085 
L 421.81794 -363.686012 
L 417.96224 -363.887313 
L 414.106539 -363.685931 
L 410.250839 -363.887621 
L 406.395138 -363.888006 
L 402.539438 -363.685931 
L 398.683738 -363.887698 
L 394.821611 -363.685854 
L 390.965911 -363.887236 
L 387.11021 -363.887313 
L 383.25451 -363.889018 
L 379.385957 -363.88739 
L 375.523831 -364.491695 
L 371.648852 -363.889498 
L 367.786725 -364.292383 
L 363.866763 -363.889421 
L 359.940375 -363.88845 
L 355.956151 -364.095964 
L 352.06832 -363.686451 
L 348.199767 -363.686439 
L 344.30551 -363.687164 
L 340.436957 -363.888238 
L 336.57483 -363.888365 
L 332.699851 -364.901104 
L 328.767037 -363.888013 
L 324.885632 -364.494027 
L 320.939965 -363.686085 
L 317.064986 -363.891659 
L 313.202859 -363.685854 
L 309.347159 -363.686008 
L 305.491459 -363.887313 
L 301.629332 -363.887313 
L 297.773632 -364.494272 
L 293.911505 -363.88739 
L 290.062231 -363.891582 
L 286.20653 -364.088865 
L 282.325125 -364.491628 
L 278.488703 -364.088617 
L 274.639429 -364.29023 
L 270.803007 -363.686323 
L 266.940881 -363.686085 
L 263.08518 -363.686528 
L 259.223054 -364.089421 
L 255.367353 -363.686109 
L 251.511653 -364.295139 
L 247.649526 -363.887484 
L 243.780974 -364.295223 
L 239.918847 -363.887621 
L 236.063147 -363.887467 
L 232.207446 -363.887463 
L 228.351746 -363.88739 
L 224.476767 -364.088848 
L 220.627493 -364.294532 
L 216.765366 -364.088925 
L 212.922518 -364.491457 
L 209.060391 -364.496014 
L 205.198265 -363.686132 
L 201.329712 -364.491722 
L 197.467585 -363.887319 
L 193.611885 -363.686213 
L 189.743332 -364.303121 
L 185.87478 -364.492442 
L 181.986948 -364.492466 
L 178.118396 -364.294774 
L 174.249843 -363.887787 
L 170.387716 -363.887621 
L 166.512737 -364.899739 
L 162.61848 -365.303074 
L 158.749927 -365.499892 
L 154.85567 -365.298104 
L 150.929281 -363.808914 
L 147.035024 -367.432674 
L 143.10221 -366.514565 
L 139.201526 -367.648835 
L 135.230155 -369.274049 
L 131.155964 -372.076917 
L 126.786171 -375.390158 
L 122.120773 -357.291962 
L 116.806333 -318.127146 
L 110.919963 -262.848209 
L 104.937202 -201.12378 
L 98.864474 -168.508121 
L 92.894564 -127.575634 
L 86.931081 -110.99516 
L 80.794091 -94.447275 
z
" style="stroke: #0000ff; stroke-opacity: 0.2"/>
    </defs>
    <g clip-path="url(#p96c9adb05d)">
     <use xlink:href="#md6ebc29475" x="0" y="432" style="fill: #0000ff; fill-opacity: 0.2; stroke: #0000ff; stroke-opacity: 0.2"/>
    </g>
   </g>
   <g id="FillBetweenPolyCollection_2">
    <defs>
     <path id="m6386b11d06" d="M 80.864779 -91.247396 
L 80.864779 -62.791619 
L 86.764 -63.577123 
L 92.804598 -62.425367 
L 98.575296 -62.431198 
L 104.551632 -62.694991 
L 110.438001 -60.965049 
L 116.350075 -61.813216 
L 122.390672 -62.711372 
L 128.148518 -63.505345 
L 134.259803 -62.943995 
L 140.197582 -62.971945 
L 146.109656 -61.523492 
L 151.893207 -64.630781 
L 157.914525 -62.935831 
L 164.102925 -64.416025 
L 170.07926 -62.429759 
L 175.894942 -63.099442 
L 181.999801 -61.966657 
L 187.963284 -61.815881 
L 194.055291 -60.659562 
L 200.044479 -61.972039 
L 205.898717 -62.397043 
L 211.8622 -63.134978 
L 217.928502 -62.48791 
L 224.097623 -62.427794 
L 230.028975 -62.106385 
L 236.011737 -62.039103 
L 241.833845 -62.314199 
L 248.009392 -62.344814 
L 253.876482 -62.185973 
L 259.820687 -62.560459 
L 265.867711 -62.059778 
L 271.811916 -62.995165 
L 277.736842 -62.685067 
L 283.67462 -62.325468 
L 289.94656 -63.089337 
L 295.69798 -62.189824 
L 301.912083 -61.990705 
L 307.669929 -62.702697 
L 313.479185 -62.21427 
L 319.37198 -61.147099 
L 325.438282 -61.680419 
L 331.331078 -61.80846 
L 337.236725 -61.819261 
L 343.328732 -62.01577 
L 349.253658 -61.655478 
L 355.140028 -63.049998 
L 361.142068 -61.356089 
L 367.362598 -61.584635 
L 373.351786 -62.674998 
L 379.173894 -62.206241 
L 385.413702 -62.40538 
L 391.216531 -61.606205 
L 397.295686 -63.265247 
L 403.259169 -63.616811 
L 409.466846 -62.529693 
L 415.501018 -64.251694 
L 421.670138 -60.135231 
L 427.826407 -62.986146 
L 433.757759 -61.971964 
L 439.522031 -62.277825 
L 445.620464 -61.607613 
L 451.493981 -61.921464 
L 457.373924 -63.077288 
L 463.414521 -62.529678 
L 469.602921 -61.969289 
L 475.617813 -62.117497 
L 481.658411 -63.371441 
L 487.506223 -60.987393 
L 493.514689 -62.907409 
L 499.182569 -61.463215 
L 505.146052 -61.841825 
L 511.212354 -61.960245 
L 517.336492 -62.458874 
L 523.094338 -63.113873 
L 529.141361 -60.739653 
L 535.072714 -63.548689 
L 541.087606 -61.680536 
L 547.115351 -63.026086 
L 553.033851 -61.517911 
L 558.990909 -61.470811 
L 565.198586 -62.939657 
L 571.406264 -62.206812 
L 577.41473 -63.896604 
L 583.461754 -64.288719 
L 589.540908 -63.177338 
L 595.562227 -63.426499 
L 601.654234 -63.34179 
L 607.714109 -61.418685 
L 613.561922 -61.894058 
L 619.480422 -60.831565 
L 625.508167 -60.993601 
L 631.445945 -61.639101 
L 637.30661 -63.143852 
L 643.212258 -63.178578 
L 649.387805 -62.288837 
L 655.370567 -60.907114 
L 661.404738 -61.182256 
L 667.207567 -63.243374 
L 673.325278 -62.382493 
L 679.2245 -61.579324 
L 679.2245 -101.38721 
L 679.2245 -101.38721 
L 673.325278 -97.9102 
L 667.207567 -93.134947 
L 661.404738 -103.704232 
L 655.370567 -107.459865 
L 649.387805 -97.889055 
L 643.212258 -89.078357 
L 637.30661 -95.983597 
L 631.445945 -101.348046 
L 625.508167 -108.673519 
L 619.480422 -107.168745 
L 613.561922 -100.309837 
L 607.714109 -102.462132 
L 601.654234 -94.891457 
L 595.562227 -90.551596 
L 589.540908 -89.245577 
L 583.461754 -99.709812 
L 577.41473 -85.94352 
L 571.406264 -103.167973 
L 565.198586 -101.096299 
L 558.990909 -106.33098 
L 553.033851 -99.819984 
L 547.115351 -101.421083 
L 541.087606 -98.771747 
L 535.072714 -90.9855 
L 529.141361 -114.079896 
L 523.094338 -92.987632 
L 517.336492 -93.70376 
L 511.212354 -104.325928 
L 505.146052 -100.265876 
L 499.182569 -98.481855 
L 493.514689 -94.3845 
L 487.506223 -103.134903 
L 481.658411 -87.738389 
L 475.617813 -94.917238 
L 469.602921 -106.876375 
L 463.414521 -100.701424 
L 457.373924 -93.023633 
L 451.493981 -99.195776 
L 445.620464 -102.902385 
L 439.522031 -100.601706 
L 433.757759 -100.314856 
L 427.826407 -90.255231 
L 421.670138 -114.759056 
L 415.501018 -96.932905 
L 409.466846 -93.746205 
L 403.259169 -97.684548 
L 397.295686 -87.848709 
L 391.216531 -105.396524 
L 385.413702 -97.68237 
L 379.173894 -93.590065 
L 373.351786 -95.557958 
L 367.362598 -99.710785 
L 361.142068 -100.72184 
L 355.140028 -90.219549 
L 349.253658 -97.292756 
L 343.328732 -104.39598 
L 337.236725 -100.18728 
L 331.331078 -96.042504 
L 325.438282 -101.248932 
L 319.37198 -102.131332 
L 313.479185 -99.031152 
L 307.669929 -95.463918 
L 301.912083 -95.96176 
L 295.69798 -96.230211 
L 289.94656 -95.899963 
L 283.67462 -95.054253 
L 277.736842 -92.704395 
L 271.811916 -94.364315 
L 265.867711 -98.908519 
L 259.820687 -92.523967 
L 253.876482 -99.177842 
L 248.009392 -93.543786 
L 241.833845 -101.762613 
L 236.011737 -101.78759 
L 230.028975 -108.694944 
L 224.097623 -97.770923 
L 217.928502 -96.654491 
L 211.8622 -99.875906 
L 205.898717 -103.26841 
L 200.044479 -102.694281 
L 194.055291 -105.810244 
L 187.963284 -104.387884 
L 181.999801 -96.251008 
L 175.894942 -97.086088 
L 170.07926 -95.142074 
L 164.102925 -93.130631 
L 157.914525 -91.562744 
L 151.893207 -97.596188 
L 146.109656 -102.541056 
L 140.197582 -89.078412 
L 134.259803 -94.389919 
L 128.148518 -90.985577 
L 122.390672 -91.275832 
L 116.350075 -97.191326 
L 110.438001 -102.014122 
L 104.551632 -92.657094 
L 98.575296 -104.747721 
L 92.804598 -96.60495 
L 86.764 -86.853268 
L 80.864779 -91.247396 
z
" style="stroke: #ffa500; stroke-opacity: 0.2"/>
    </defs>
    <g clip-path="url(#p96c9adb05d)">
     <use xlink:href="#m6386b11d06" x="0" y="432" style="fill: #ffa500; fill-opacity: 0.2; stroke: #ffa500; stroke-opacity: 0.2"/>
    </g>
   </g>
   <g id="matplotlib.axis_1">
    <g id="xtick_1">
     <g id="line2d_1">
      <path d="M 77.889463 390.04 
L 77.889463 10.8 
" clip-path="url(#p96c9adb05d)" style="fill: none; stroke: #b0b0b0; stroke-width: 0.8; stroke-linecap: square"/>
     </g>
     <g id="line2d_2">
      <defs>
       <path id="m83d90f1060" d="M 0 0 
L 0 3.5 
" style="stroke: #000000; stroke-width: 0.8"/>
      </defs>
      <g>
       <use xlink:href="#m83d90f1060" x="77.889463" y="390.04" style="stroke: #000000; stroke-width: 0.8"/>
      </g>
     </g>
     <g id="text_1">
      <!-- 0 -->
      <g transform="translate(74.708213 404.638438) scale(0.1 -0.1)">
       <defs>
        <path id="DejaVuSans-30" d="M 2034 4250 
Q 1547 4250 1301 3770 
Q 1056 3291 1056 2328 
Q 1056 1369 1301 889 
Q 1547 409 2034 409 
Q 2525 409 2770 889 
Q 3016 1369 3016 2328 
Q 3016 3291 2770 3770 
Q 2525 4250 2034 4250 
z
M 2034 4750 
Q 2819 4750 3233 4129 
Q 3647 3509 3647 2328 
Q 3647 1150 3233 529 
Q 2819 -91 2034 -91 
Q 1250 -91 836 529 
Q 422 1150 422 2328 
Q 422 3509 836 4129 
Q 1250 4750 2034 4750 
z
" transform="scale(0.015625)"/>
       </defs>
       <use xlink:href="#DejaVuSans-30"/>
      </g>
     </g>
    </g>
    <g id="xtick_2">
     <g id="line2d_3">
      <path d="M 206.41281 390.04 
L 206.41281 10.8 
" clip-path="url(#p96c9adb05d)" style="fill: none; stroke: #b0b0b0; stroke-width: 0.8; stroke-linecap: square"/>
     </g>
     <g id="line2d_4">
      <g>
       <use xlink:href="#m83d90f1060" x="206.41281" y="390.04" style="stroke: #000000; stroke-width: 0.8"/>
      </g>
     </g>
     <g id="text_2">
      <!-- 20000 -->
      <g transform="translate(190.50656 404.638438) scale(0.1 -0.1)">
       <defs>
        <path id="DejaVuSans-32" d="M 1228 531 
L 3431 531 
L 3431 0 
L 469 0 
L 469 531 
Q 828 903 1448 1529 
Q 2069 2156 2228 2338 
Q 2531 2678 2651 2914 
Q 2772 3150 2772 3378 
Q 2772 3750 2511 3984 
Q 2250 4219 1831 4219 
Q 1534 4219 1204 4116 
Q 875 4013 500 3803 
L 500 4441 
Q 881 4594 1212 4672 
Q 1544 4750 1819 4750 
Q 2544 4750 2975 4387 
Q 3406 4025 3406 3419 
Q 3406 3131 3298 2873 
Q 3191 2616 2906 2266 
Q 2828 2175 2409 1742 
Q 1991 1309 1228 531 
z
" transform="scale(0.015625)"/>
       </defs>
       <use xlink:href="#DejaVuSans-32"/>
       <use xlink:href="#DejaVuSans-30" transform="translate(63.623047 0)"/>
       <use xlink:href="#DejaVuSans-30" transform="translate(127.246094 0)"/>
       <use xlink:href="#DejaVuSans-30" transform="translate(190.869141 0)"/>
       <use xlink:href="#DejaVuSans-30" transform="translate(254.492188 0)"/>
      </g>
     </g>
    </g>
    <g id="xtick_3">
     <g id="line2d_5">
      <path d="M 334.936157 390.04 
L 334.936157 10.8 
" clip-path="url(#p96c9adb05d)" style="fill: none; stroke: #b0b0b0; stroke-width: 0.8; stroke-linecap: square"/>
     </g>
     <g id="line2d_6">
      <g>
       <use xlink:href="#m83d90f1060" x="334.936157" y="390.04" style="stroke: #000000; stroke-width: 0.8"/>
      </g>
     </g>
     <g id="text_3">
      <!-- 40000 -->
      <g transform="translate(319.029907 404.638438) scale(0.1 -0.1)">
       <defs>
        <path id="DejaVuSans-34" d="M 2419 4116 
L 825 1625 
L 2419 1625 
L 2419 4116 
z
M 2253 4666 
L 3047 4666 
L 3047 1625 
L 3713 1625 
L 3713 1100 
L 3047 1100 
L 3047 0 
L 2419 0 
L 2419 1100 
L 313 1100 
L 313 1709 
L 2253 4666 
z
" transform="scale(0.015625)"/>
       </defs>
       <use xlink:href="#DejaVuSans-34"/>
       <use xlink:href="#DejaVuSans-30" transform="translate(63.623047 0)"/>
       <use xlink:href="#DejaVuSans-30" transform="translate(127.246094 0)"/>
       <use xlink:href="#DejaVuSans-30" transform="translate(190.869141 0)"/>
       <use xlink:href="#DejaVuSans-30" transform="translate(254.492188 0)"/>
      </g>
     </g>
    </g>
    <g id="xtick_4">
     <g id="line2d_7">
      <path d="M 463.459505 390.04 
L 463.459505 10.8 
" clip-path="url(#p96c9adb05d)" style="fill: none; stroke: #b0b0b0; stroke-width: 0.8; stroke-linecap: square"/>
     </g>
     <g id="line2d_8">
      <g>
       <use xlink:href="#m83d90f1060" x="463.459505" y="390.04" style="stroke: #000000; stroke-width: 0.8"/>
      </g>
     </g>
     <g id="text_4">
      <!-- 60000 -->
      <g transform="translate(447.553255 404.638438) scale(0.1 -0.1)">
       <defs>
        <path id="DejaVuSans-36" d="M 2113 2584 
Q 1688 2584 1439 2293 
Q 1191 2003 1191 1497 
Q 1191 994 1439 701 
Q 1688 409 2113 409 
Q 2538 409 2786 701 
Q 3034 994 3034 1497 
Q 3034 2003 2786 2293 
Q 2538 2584 2113 2584 
z
M 3366 4563 
L 3366 3988 
Q 3128 4100 2886 4159 
Q 2644 4219 2406 4219 
Q 1781 4219 1451 3797 
Q 1122 3375 1075 2522 
Q 1259 2794 1537 2939 
Q 1816 3084 2150 3084 
Q 2853 3084 3261 2657 
Q 3669 2231 3669 1497 
Q 3669 778 3244 343 
Q 2819 -91 2113 -91 
Q 1303 -91 875 529 
Q 447 1150 447 2328 
Q 447 3434 972 4092 
Q 1497 4750 2381 4750 
Q 2619 4750 2861 4703 
Q 3103 4656 3366 4563 
z
" transform="scale(0.015625)"/>
       </defs>
       <use xlink:href="#DejaVuSans-36"/>
       <use xlink:href="#DejaVuSans-30" transform="translate(63.623047 0)"/>
       <use xlink:href="#DejaVuSans-30" transform="translate(127.246094 0)"/>
       <use xlink:href="#DejaVuSans-30" transform="translate(190.869141 0)"/>
       <use xlink:href="#DejaVuSans-30" transform="translate(254.492188 0)"/>
      </g>
     </g>
    </g>
    <g id="xtick_5">
     <g id="line2d_9">
      <path d="M 591.982852 390.04 
L 591.982852 10.8 
" clip-path="url(#p96c9adb05d)" style="fill: none; stroke: #b0b0b0; stroke-width: 0.8; stroke-linecap: square"/>
     </g>
     <g id="line2d_10">
      <g>
       <use xlink:href="#m83d90f1060" x="591.982852" y="390.04" style="stroke: #000000; stroke-width: 0.8"/>
      </g>
     </g>
     <g id="text_5">
      <!-- 80000 -->
      <g transform="translate(576.076602 404.638438) scale(0.1 -0.1)">
       <defs>
        <path id="DejaVuSans-38" d="M 2034 2216 
Q 1584 2216 1326 1975 
Q 1069 1734 1069 1313 
Q 1069 891 1326 650 
Q 1584 409 2034 409 
Q 2484 409 2743 651 
Q 3003 894 3003 1313 
Q 3003 1734 2745 1975 
Q 2488 2216 2034 2216 
z
M 1403 2484 
Q 997 2584 770 2862 
Q 544 3141 544 3541 
Q 544 4100 942 4425 
Q 1341 4750 2034 4750 
Q 2731 4750 3128 4425 
Q 3525 4100 3525 3541 
Q 3525 3141 3298 2862 
Q 3072 2584 2669 2484 
Q 3125 2378 3379 2068 
Q 3634 1759 3634 1313 
Q 3634 634 3220 271 
Q 2806 -91 2034 -91 
Q 1263 -91 848 271 
Q 434 634 434 1313 
Q 434 1759 690 2068 
Q 947 2378 1403 2484 
z
M 1172 3481 
Q 1172 3119 1398 2916 
Q 1625 2713 2034 2713 
Q 2441 2713 2670 2916 
Q 2900 3119 2900 3481 
Q 2900 3844 2670 4047 
Q 2441 4250 2034 4250 
Q 1625 4250 1398 4047 
Q 1172 3844 1172 3481 
z
" transform="scale(0.015625)"/>
       </defs>
       <use xlink:href="#DejaVuSans-38"/>
       <use xlink:href="#DejaVuSans-30" transform="translate(63.623047 0)"/>
       <use xlink:href="#DejaVuSans-30" transform="translate(127.246094 0)"/>
       <use xlink:href="#DejaVuSans-30" transform="translate(190.869141 0)"/>
       <use xlink:href="#DejaVuSans-30" transform="translate(254.492188 0)"/>
      </g>
     </g>
    </g>
    <g id="text_6">
     <!-- Steps -->
     <g transform="translate(366.045156 418.316562) scale(0.1 -0.1)">
      <defs>
       <path id="DejaVuSans-53" d="M 3425 4513 
L 3425 3897 
Q 3066 4069 2747 4153 
Q 2428 4238 2131 4238 
Q 1616 4238 1336 4038 
Q 1056 3838 1056 3469 
Q 1056 3159 1242 3001 
Q 1428 2844 1947 2747 
L 2328 2669 
Q 3034 2534 3370 2195 
Q 3706 1856 3706 1288 
Q 3706 609 3251 259 
Q 2797 -91 1919 -91 
Q 1588 -91 1214 -16 
Q 841 59 441 206 
L 441 856 
Q 825 641 1194 531 
Q 1563 422 1919 422 
Q 2459 422 2753 634 
Q 3047 847 3047 1241 
Q 3047 1584 2836 1778 
Q 2625 1972 2144 2069 
L 1759 2144 
Q 1053 2284 737 2584 
Q 422 2884 422 3419 
Q 422 4038 858 4394 
Q 1294 4750 2059 4750 
Q 2388 4750 2728 4690 
Q 3069 4631 3425 4513 
z
" transform="scale(0.015625)"/>
       <path id="DejaVuSans-74" d="M 1172 4494 
L 1172 3500 
L 2356 3500 
L 2356 3053 
L 1172 3053 
L 1172 1153 
Q 1172 725 1289 603 
Q 1406 481 1766 481 
L 2356 481 
L 2356 0 
L 1766 0 
Q 1100 0 847 248 
Q 594 497 594 1153 
L 594 3053 
L 172 3053 
L 172 3500 
L 594 3500 
L 594 4494 
L 1172 4494 
z
" transform="scale(0.015625)"/>
       <path id="DejaVuSans-65" d="M 3597 1894 
L 3597 1613 
L 953 1613 
Q 991 1019 1311 708 
Q 1631 397 2203 397 
Q 2534 397 2845 478 
Q 3156 559 3463 722 
L 3463 178 
Q 3153 47 2828 -22 
Q 2503 -91 2169 -91 
Q 1331 -91 842 396 
Q 353 884 353 1716 
Q 353 2575 817 3079 
Q 1281 3584 2069 3584 
Q 2775 3584 3186 3129 
Q 3597 2675 3597 1894 
z
M 3022 2063 
Q 3016 2534 2758 2815 
Q 2500 3097 2075 3097 
Q 1594 3097 1305 2825 
Q 1016 2553 972 2059 
L 3022 2063 
z
" transform="scale(0.015625)"/>
       <path id="DejaVuSans-70" d="M 1159 525 
L 1159 -1331 
L 581 -1331 
L 581 3500 
L 1159 3500 
L 1159 2969 
Q 1341 3281 1617 3432 
Q 1894 3584 2278 3584 
Q 2916 3584 3314 3078 
Q 3713 2572 3713 1747 
Q 3713 922 3314 415 
Q 2916 -91 2278 -91 
Q 1894 -91 1617 61 
Q 1341 213 1159 525 
z
M 3116 1747 
Q 3116 2381 2855 2742 
Q 2594 3103 2138 3103 
Q 1681 3103 1420 2742 
Q 1159 2381 1159 1747 
Q 1159 1113 1420 752 
Q 1681 391 2138 391 
Q 2594 391 2855 752 
Q 3116 1113 3116 1747 
z
" transform="scale(0.015625)"/>
       <path id="DejaVuSans-73" d="M 2834 3397 
L 2834 2853 
Q 2591 2978 2328 3040 
Q 2066 3103 1784 3103 
Q 1356 3103 1142 2972 
Q 928 2841 928 2578 
Q 928 2378 1081 2264 
Q 1234 2150 1697 2047 
L 1894 2003 
Q 2506 1872 2764 1633 
Q 3022 1394 3022 966 
Q 3022 478 2636 193 
Q 2250 -91 1575 -91 
Q 1294 -91 989 -36 
Q 684 19 347 128 
L 347 722 
Q 666 556 975 473 
Q 1284 391 1588 391 
Q 1994 391 2212 530 
Q 2431 669 2431 922 
Q 2431 1156 2273 1281 
Q 2116 1406 1581 1522 
L 1381 1569 
Q 847 1681 609 1914 
Q 372 2147 372 2553 
Q 372 3047 722 3315 
Q 1072 3584 1716 3584 
Q 2034 3584 2315 3537 
Q 2597 3491 2834 3397 
z
" transform="scale(0.015625)"/>
      </defs>
      <use xlink:href="#DejaVuSans-53"/>
      <use xlink:href="#DejaVuSans-74" transform="translate(63.476562 0)"/>
      <use xlink:href="#DejaVuSans-65" transform="translate(102.685547 0)"/>
      <use xlink:href="#DejaVuSans-70" transform="translate(164.208984 0)"/>
      <use xlink:href="#DejaVuSans-73" transform="translate(227.685547 0)"/>
     </g>
    </g>
   </g>
   <g id="matplotlib.axis_2">
    <g id="ytick_1">
     <g id="line2d_11">
      <path d="M 50.87 372.801818 
L 709.2 372.801818 
" clip-path="url(#p96c9adb05d)" style="fill: none; stroke: #b0b0b0; stroke-width: 0.8; stroke-linecap: square"/>
     </g>
     <g id="line2d_12">
      <defs>
       <path id="ma7c55235a4" d="M 0 0 
L -3.5 0 
" style="stroke: #000000; stroke-width: 0.8"/>
      </defs>
      <g>
       <use xlink:href="#ma7c55235a4" x="50.87" y="372.801818" style="stroke: #000000; stroke-width: 0.8"/>
      </g>
     </g>
     <g id="text_7">
      <!-- 0 -->
      <g transform="translate(37.5075 376.601037) scale(0.1 -0.1)">
       <use xlink:href="#DejaVuSans-30"/>
      </g>
     </g>
    </g>
    <g id="ytick_2">
     <g id="line2d_13">
      <path d="M 50.87 314.551749 
L 709.2 314.551749 
" clip-path="url(#p96c9adb05d)" style="fill: none; stroke: #b0b0b0; stroke-width: 0.8; stroke-linecap: square"/>
     </g>
     <g id="line2d_14">
      <g>
       <use xlink:href="#ma7c55235a4" x="50.87" y="314.551749" style="stroke: #000000; stroke-width: 0.8"/>
      </g>
     </g>
     <g id="text_8">
      <!-- 20 -->
      <g transform="translate(31.145 318.350968) scale(0.1 -0.1)">
       <use xlink:href="#DejaVuSans-32"/>
       <use xlink:href="#DejaVuSans-30" transform="translate(63.623047 0)"/>
      </g>
     </g>
    </g>
    <g id="ytick_3">
     <g id="line2d_15">
      <path d="M 50.87 256.301681 
L 709.2 256.301681 
" clip-path="url(#p96c9adb05d)" style="fill: none; stroke: #b0b0b0; stroke-width: 0.8; stroke-linecap: square"/>
     </g>
     <g id="line2d_16">
      <g>
       <use xlink:href="#ma7c55235a4" x="50.87" y="256.301681" style="stroke: #000000; stroke-width: 0.8"/>
      </g>
     </g>
     <g id="text_9">
      <!-- 40 -->
      <g transform="translate(31.145 260.100899) scale(0.1 -0.1)">
       <use xlink:href="#DejaVuSans-34"/>
       <use xlink:href="#DejaVuSans-30" transform="translate(63.623047 0)"/>
      </g>
     </g>
    </g>
    <g id="ytick_4">
     <g id="line2d_17">
      <path d="M 50.87 198.051612 
L 709.2 198.051612 
" clip-path="url(#p96c9adb05d)" style="fill: none; stroke: #b0b0b0; stroke-width: 0.8; stroke-linecap: square"/>
     </g>
     <g id="line2d_18">
      <g>
       <use xlink:href="#ma7c55235a4" x="50.87" y="198.051612" style="stroke: #000000; stroke-width: 0.8"/>
      </g>
     </g>
     <g id="text_10">
      <!-- 60 -->
      <g transform="translate(31.145 201.85083) scale(0.1 -0.1)">
       <use xlink:href="#DejaVuSans-36"/>
       <use xlink:href="#DejaVuSans-30" transform="translate(63.623047 0)"/>
      </g>
     </g>
    </g>
    <g id="ytick_5">
     <g id="line2d_19">
      <path d="M 50.87 139.801543 
L 709.2 139.801543 
" clip-path="url(#p96c9adb05d)" style="fill: none; stroke: #b0b0b0; stroke-width: 0.8; stroke-linecap: square"/>
     </g>
     <g id="line2d_20">
      <g>
       <use xlink:href="#ma7c55235a4" x="50.87" y="139.801543" style="stroke: #000000; stroke-width: 0.8"/>
      </g>
     </g>
     <g id="text_11">
      <!-- 80 -->
      <g transform="translate(31.145 143.600762) scale(0.1 -0.1)">
       <use xlink:href="#DejaVuSans-38"/>
       <use xlink:href="#DejaVuSans-30" transform="translate(63.623047 0)"/>
      </g>
     </g>
    </g>
    <g id="ytick_6">
     <g id="line2d_21">
      <path d="M 50.87 81.551474 
L 709.2 81.551474 
" clip-path="url(#p96c9adb05d)" style="fill: none; stroke: #b0b0b0; stroke-width: 0.8; stroke-linecap: square"/>
     </g>
     <g id="line2d_22">
      <g>
       <use xlink:href="#ma7c55235a4" x="50.87" y="81.551474" style="stroke: #000000; stroke-width: 0.8"/>
      </g>
     </g>
     <g id="text_12">
      <!-- 100 -->
      <g transform="translate(24.7825 85.350693) scale(0.1 -0.1)">
       <defs>
        <path id="DejaVuSans-31" d="M 794 531 
L 1825 531 
L 1825 4091 
L 703 3866 
L 703 4441 
L 1819 4666 
L 2450 4666 
L 2450 531 
L 3481 531 
L 3481 0 
L 794 0 
L 794 531 
z
" transform="scale(0.015625)"/>
       </defs>
       <use xlink:href="#DejaVuSans-31"/>
       <use xlink:href="#DejaVuSans-30" transform="translate(63.623047 0)"/>
       <use xlink:href="#DejaVuSans-30" transform="translate(127.246094 0)"/>
      </g>
     </g>
    </g>
    <g id="ytick_7">
     <g id="line2d_23">
      <path d="M 50.87 23.301405 
L 709.2 23.301405 
" clip-path="url(#p96c9adb05d)" style="fill: none; stroke: #b0b0b0; stroke-width: 0.8; stroke-linecap: square"/>
     </g>
     <g id="line2d_24">
      <g>
       <use xlink:href="#ma7c55235a4" x="50.87" y="23.301405" style="stroke: #000000; stroke-width: 0.8"/>
      </g>
     </g>
     <g id="text_13">
      <!-- 120 -->
      <g transform="translate(24.7825 27.100624) scale(0.1 -0.1)">
       <use xlink:href="#DejaVuSans-31"/>
       <use xlink:href="#DejaVuSans-32" transform="translate(63.623047 0)"/>
       <use xlink:href="#DejaVuSans-30" transform="translate(127.246094 0)"/>
      </g>
     </g>
    </g>
    <g id="text_14">
     <!-- Reward -->
     <g transform="translate(18.702813 219.041094) rotate(-90) scale(0.1 -0.1)">
      <defs>
       <path id="DejaVuSans-52" d="M 2841 2188 
Q 3044 2119 3236 1894 
Q 3428 1669 3622 1275 
L 4263 0 
L 3584 0 
L 2988 1197 
Q 2756 1666 2539 1819 
Q 2322 1972 1947 1972 
L 1259 1972 
L 1259 0 
L 628 0 
L 628 4666 
L 2053 4666 
Q 2853 4666 3247 4331 
Q 3641 3997 3641 3322 
Q 3641 2881 3436 2590 
Q 3231 2300 2841 2188 
z
M 1259 4147 
L 1259 2491 
L 2053 2491 
Q 2509 2491 2742 2702 
Q 2975 2913 2975 3322 
Q 2975 3731 2742 3939 
Q 2509 4147 2053 4147 
L 1259 4147 
z
" transform="scale(0.015625)"/>
       <path id="DejaVuSans-77" d="M 269 3500 
L 844 3500 
L 1563 769 
L 2278 3500 
L 2956 3500 
L 3675 769 
L 4391 3500 
L 4966 3500 
L 4050 0 
L 3372 0 
L 2619 2869 
L 1863 0 
L 1184 0 
L 269 3500 
z
" transform="scale(0.015625)"/>
       <path id="DejaVuSans-61" d="M 2194 1759 
Q 1497 1759 1228 1600 
Q 959 1441 959 1056 
Q 959 750 1161 570 
Q 1363 391 1709 391 
Q 2188 391 2477 730 
Q 2766 1069 2766 1631 
L 2766 1759 
L 2194 1759 
z
M 3341 1997 
L 3341 0 
L 2766 0 
L 2766 531 
Q 2569 213 2275 61 
Q 1981 -91 1556 -91 
Q 1019 -91 701 211 
Q 384 513 384 1019 
Q 384 1609 779 1909 
Q 1175 2209 1959 2209 
L 2766 2209 
L 2766 2266 
Q 2766 2663 2505 2880 
Q 2244 3097 1772 3097 
Q 1472 3097 1187 3025 
Q 903 2953 641 2809 
L 641 3341 
Q 956 3463 1253 3523 
Q 1550 3584 1831 3584 
Q 2591 3584 2966 3190 
Q 3341 2797 3341 1997 
z
" transform="scale(0.015625)"/>
       <path id="DejaVuSans-72" d="M 2631 2963 
Q 2534 3019 2420 3045 
Q 2306 3072 2169 3072 
Q 1681 3072 1420 2755 
Q 1159 2438 1159 1844 
L 1159 0 
L 581 0 
L 581 3500 
L 1159 3500 
L 1159 2956 
Q 1341 3275 1631 3429 
Q 1922 3584 2338 3584 
Q 2397 3584 2469 3576 
Q 2541 3569 2628 3553 
L 2631 2963 
z
" transform="scale(0.015625)"/>
       <path id="DejaVuSans-64" d="M 2906 2969 
L 2906 4863 
L 3481 4863 
L 3481 0 
L 2906 0 
L 2906 525 
Q 2725 213 2448 61 
Q 2172 -91 1784 -91 
Q 1150 -91 751 415 
Q 353 922 353 1747 
Q 353 2572 751 3078 
Q 1150 3584 1784 3584 
Q 2172 3584 2448 3432 
Q 2725 3281 2906 2969 
z
M 947 1747 
Q 947 1113 1208 752 
Q 1469 391 1925 391 
Q 2381 391 2643 752 
Q 2906 1113 2906 1747 
Q 2906 2381 2643 2742 
Q 2381 3103 1925 3103 
Q 1469 3103 1208 2742 
Q 947 2381 947 1747 
z
" transform="scale(0.015625)"/>
      </defs>
      <use xlink:href="#DejaVuSans-52"/>
      <use xlink:href="#DejaVuSans-65" transform="translate(64.982422 0)"/>
      <use xlink:href="#DejaVuSans-77" transform="translate(126.505859 0)"/>
      <use xlink:href="#DejaVuSans-61" transform="translate(208.292969 0)"/>
      <use xlink:href="#DejaVuSans-72" transform="translate(269.572266 0)"/>
      <use xlink:href="#DejaVuSans-64" transform="translate(308.935547 0)"/>
     </g>
    </g>
   </g>
   <g id="line2d_25">
    <path d="M 80.794091 353.241696 
L 86.931081 344.148925 
L 92.894564 338.473159 
L 104.937202 299.692367 
L 110.919963 265.098177 
L 116.806333 225.242129 
L 126.786171 125.087729 
L 131.155964 98.614602 
L 135.230155 83.503393 
L 139.201526 79.549629 
L 143.10221 75.147186 
L 147.035024 79.034092 
L 150.929281 70.27401 
L 154.85567 72.20805 
L 158.749927 72.693621 
L 162.61848 72.21957 
L 166.512737 71.244723 
L 170.387716 68.801254 
L 174.249843 68.802289 
L 178.118396 69.784208 
L 181.986948 70.261478 
L 185.87478 70.261421 
L 189.743332 69.804361 
L 193.611885 68.315011 
L 197.467585 68.800526 
L 201.329712 70.259682 
L 205.198265 68.314817 
L 209.060391 70.270046 
L 212.922518 70.259043 
L 216.765366 69.287246 
L 220.627493 69.783625 
L 228.351746 68.800696 
L 239.918847 68.801254 
L 243.780974 69.785292 
L 247.649526 68.800922 
L 251.511653 69.78509 
L 255.367353 68.314761 
L 259.223054 69.288443 
L 263.08518 68.315772 
L 270.803007 68.315278 
L 274.639429 69.773237 
L 278.488703 69.286501 
L 282.325125 70.259455 
L 286.20653 69.2871 
L 290.062231 68.810817 
L 293.911505 68.800696 
L 297.773632 70.265839 
L 301.629332 68.80051 
L 305.491459 68.80051 
L 309.347159 68.314518 
L 313.202859 68.314146 
L 317.064986 68.811003 
L 320.939965 68.314704 
L 324.885632 70.265248 
L 328.767037 68.8022 
L 332.699851 71.248655 
L 336.57483 68.80305 
L 340.436957 68.802743 
L 344.30551 68.317309 
L 352.06832 68.315586 
L 355.956151 69.304874 
L 359.940375 68.803891 
L 363.866763 68.805598 
L 367.786725 69.77907 
L 371.648852 68.805784 
L 375.523831 70.259617 
L 379.385957 68.800696 
L 390.965911 68.800324 
L 394.821611 68.314146 
L 398.683738 68.80144 
L 402.539438 68.314332 
L 406.395138 68.802184 
L 410.250839 68.801254 
L 414.106539 68.314332 
L 417.96224 68.80051 
L 421.81794 68.314526 
L 425.680067 68.314704 
L 429.535767 68.800324 
L 433.391468 68.314518 
L 437.253594 68.31472 
L 444.958569 71.257279 
L 448.814269 69.787759 
L 452.66997 71.747615 
L 456.52567 69.779273 
L 460.387797 68.801068 
L 464.243497 69.292084 
L 468.11205 69.289147 
L 471.96775 68.314332 
L 475.823451 69.778132 
L 479.672725 69.294818 
L 483.502721 75.121006 
L 487.07567 116.932105 
L 489.980297 152.432698 
L 492.69214 155.828183 
L 495.397556 160.693933 
L 498.000154 163.126124 
L 500.609178 164.096433 
L 503.198924 165.549877 
L 505.76939 165.550808 
L 508.339857 167.018151 
L 510.910324 167.496862 
L 513.50007 164.593306 
L 516.083389 166.531003 
L 521.237175 165.557539 
L 528.967855 165.552296 
L 531.544748 165.066863 
L 534.269443 169.929384 
L 536.92345 189.377796 
L 539.551752 227.298963 
L 542.141498 249.660266 
L 544.718391 258.410381 
L 547.295284 261.327027 
L 552.442644 262.299059 
L 555.013111 262.299059 
L 557.583578 262.785423 
L 560.154045 262.299059 
L 562.724512 286.121767 
L 565.301405 324.529808 
L 567.884724 347.866339 
L 570.468043 351.269583 
L 573.03851 355.159005 
L 575.615403 355.645182 
L 578.18587 358.562249 
L 580.76919 359.048426 
L 583.346083 360.020782 
L 585.942254 358.076071 
L 588.544852 360.020782 
L 591.198859 358.562249 
L 593.782179 360.020782 
L 601.52571 360.020782 
L 604.115456 358.562249 
L 606.685923 359.534604 
L 609.262816 360.020782 
L 611.846135 359.048426 
L 617.038478 360.020782 
L 619.615371 360.020782 
L 622.224395 359.534636 
L 624.801288 360.020782 
L 627.545262 348.838694 
L 630.224974 359.534604 
L 632.827571 357.103715 
L 635.4623 360.020782 
L 643.22511 360.020782 
L 645.80843 359.534604 
L 648.398175 360.020782 
L 650.968642 357.589893 
L 653.545535 359.534604 
L 656.116002 359.534604 
L 658.686469 360.020782 
L 668.987615 360.020782 
L 671.558082 359.534831 
L 674.134975 360.020782 
L 676.705442 360.020782 
L 679.275909 359.534604 
L 679.275909 359.534604 
" clip-path="url(#p96c9adb05d)" style="fill: none; stroke: #0000ff; stroke-width: 1.5; stroke-linecap: square"/>
   </g>
   <g id="line2d_26">
    <path d="M 80.864779 354.980493 
L 86.764 356.784805 
L 92.804598 352.484841 
L 98.575296 348.41054 
L 104.551632 354.323958 
L 110.438001 350.510415 
L 116.350075 352.497729 
L 122.390672 355.006398 
L 128.148518 354.754539 
L 134.259803 353.333043 
L 140.197582 355.974821 
L 146.109656 349.967726 
L 151.893207 350.886516 
L 157.914525 354.750712 
L 164.102925 353.226672 
L 170.07926 353.214083 
L 175.894942 351.907235 
L 181.999801 352.891168 
L 187.963284 348.898117 
L 194.055291 348.765097 
L 200.044479 349.66684 
L 205.898717 349.167273 
L 211.8622 350.494558 
L 217.928502 352.4288 
L 224.097623 351.900642 
L 230.028975 346.599335 
L 236.011737 350.086653 
L 241.833845 349.961594 
L 248.009392 354.0557 
L 253.876482 351.318092 
L 259.820687 354.457787 
L 265.867711 351.515851 
L 271.811916 353.32026 
L 277.736842 354.305269 
L 283.67462 353.310139 
L 289.94656 352.50535 
L 295.69798 352.789983 
L 301.912083 353.023768 
L 307.669929 352.916693 
L 313.479185 351.377289 
L 319.37198 350.360785 
L 325.438282 350.535325 
L 331.331078 353.074518 
L 337.236725 350.99673 
L 343.328732 348.794125 
L 349.253658 352.525883 
L 355.140028 355.365226 
L 361.142068 350.961036 
L 367.362598 351.35229 
L 373.351786 352.883522 
L 379.173894 354.101847 
L 385.413702 351.956125 
L 391.216531 348.498635 
L 397.295686 356.443022 
L 403.259169 351.349321 
L 409.466846 353.862051 
L 415.501018 351.4077 
L 421.670138 344.552856 
L 427.826407 355.379311 
L 433.757759 350.85659 
L 439.522031 350.560235 
L 445.620464 349.745001 
L 451.493981 351.44138 
L 457.373924 353.949539 
L 463.414521 350.384449 
L 469.602921 347.577168 
L 475.617813 353.482632 
L 481.658411 356.445085 
L 487.506223 349.938852 
L 493.514689 353.354045 
L 499.182569 352.027465 
L 505.146052 350.946149 
L 511.212354 348.856914 
L 517.336492 353.918683 
L 523.094338 353.949248 
L 529.141361 344.590226 
L 535.072714 354.732905 
L 541.087606 351.773859 
L 547.115351 349.776415 
L 553.033851 351.331053 
L 558.990909 348.099104 
L 565.198586 349.982022 
L 571.406264 349.312607 
L 577.41473 357.079938 
L 583.461754 350.000735 
L 589.540908 355.788542 
L 595.562227 355.010952 
L 601.654234 352.883377 
L 607.714109 350.059591 
L 613.561922 350.898053 
L 619.480422 347.999845 
L 625.508167 347.16644 
L 631.445945 350.506426 
L 637.30661 352.436275 
L 643.212258 355.871533 
L 649.387805 351.911054 
L 655.370567 347.816511 
L 661.404738 349.556756 
L 667.207567 353.810839 
L 673.325278 351.853653 
L 679.2245 350.516733 
" clip-path="url(#p96c9adb05d)" style="fill: none; stroke: #ffa500; stroke-width: 1.5; stroke-linecap: square"/>
   </g>
   <g id="patch_3">
    <path d="M 50.87 390.04 
L 50.87 10.8 
" style="fill: none; stroke: #000000; stroke-width: 0.8; stroke-linejoin: miter; stroke-linecap: square"/>
   </g>
   <g id="patch_4">
    <path d="M 709.2 390.04 
L 709.2 10.8 
" style="fill: none; stroke: #000000; stroke-width: 0.8; stroke-linejoin: miter; stroke-linecap: square"/>
   </g>
   <g id="patch_5">
    <path d="M 50.87 390.04 
L 709.2 390.04 
" style="fill: none; stroke: #000000; stroke-width: 0.8; stroke-linejoin: miter; stroke-linecap: square"/>
   </g>
   <g id="patch_6">
    <path d="M 50.87 10.8 
L 709.2 10.8 
" style="fill: none; stroke: #000000; stroke-width: 0.8; stroke-linejoin: miter; stroke-linecap: square"/>
   </g>
   <g id="legend_1">
    <g id="patch_7">
     <path d="M 628.803125 385.04 
L 702.2 385.04 
Q 704.2 385.04 704.2 383.04 
L 704.2 340.005625 
Q 704.2 338.005625 702.2 338.005625 
L 628.803125 338.005625 
Q 626.803125 338.005625 626.803125 340.005625 
L 626.803125 383.04 
Q 626.803125 385.04 628.803125 385.04 
z
" style="fill: #ffffff; opacity: 0.8; stroke: #cccccc; stroke-linejoin: miter"/>
    </g>
    <g id="text_15">
     <!-- Agent -->
     <g transform="translate(650.701563 349.604062) scale(0.1 -0.1)">
      <defs>
       <path id="DejaVuSans-41" d="M 2188 4044 
L 1331 1722 
L 3047 1722 
L 2188 4044 
z
M 1831 4666 
L 2547 4666 
L 4325 0 
L 3669 0 
L 3244 1197 
L 1141 1197 
L 716 0 
L 50 0 
L 1831 4666 
z
" transform="scale(0.015625)"/>
       <path id="DejaVuSans-67" d="M 2906 1791 
Q 2906 2416 2648 2759 
Q 2391 3103 1925 3103 
Q 1463 3103 1205 2759 
Q 947 2416 947 1791 
Q 947 1169 1205 825 
Q 1463 481 1925 481 
Q 2391 481 2648 825 
Q 2906 1169 2906 1791 
z
M 3481 434 
Q 3481 -459 3084 -895 
Q 2688 -1331 1869 -1331 
Q 1566 -1331 1297 -1286 
Q 1028 -1241 775 -1147 
L 775 -588 
Q 1028 -725 1275 -790 
Q 1522 -856 1778 -856 
Q 2344 -856 2625 -561 
Q 2906 -266 2906 331 
L 2906 616 
Q 2728 306 2450 153 
Q 2172 0 1784 0 
Q 1141 0 747 490 
Q 353 981 353 1791 
Q 353 2603 747 3093 
Q 1141 3584 1784 3584 
Q 2172 3584 2450 3431 
Q 2728 3278 2906 2969 
L 2906 3500 
L 3481 3500 
L 3481 434 
z
" transform="scale(0.015625)"/>
       <path id="DejaVuSans-6e" d="M 3513 2113 
L 3513 0 
L 2938 0 
L 2938 2094 
Q 2938 2591 2744 2837 
Q 2550 3084 2163 3084 
Q 1697 3084 1428 2787 
Q 1159 2491 1159 1978 
L 1159 0 
L 581 0 
L 581 3500 
L 1159 3500 
L 1159 2956 
Q 1366 3272 1645 3428 
Q 1925 3584 2291 3584 
Q 2894 3584 3203 3211 
Q 3513 2838 3513 2113 
z
" transform="scale(0.015625)"/>
      </defs>
      <use xlink:href="#DejaVuSans-41"/>
      <use xlink:href="#DejaVuSans-67" transform="translate(68.408203 0)"/>
      <use xlink:href="#DejaVuSans-65" transform="translate(131.884766 0)"/>
      <use xlink:href="#DejaVuSans-6e" transform="translate(193.408203 0)"/>
      <use xlink:href="#DejaVuSans-74" transform="translate(256.787109 0)"/>
     </g>
    </g>
    <g id="line2d_27">
     <path d="M 630.803125 360.782187 
L 640.803125 360.782187 
L 650.803125 360.782187 
" style="fill: none; stroke: #0000ff; stroke-width: 1.5; stroke-linecap: square"/>
    </g>
    <g id="text_16">
     <!-- PPO -->
     <g transform="translate(658.803125 364.282187) scale(0.1 -0.1)">
      <defs>
       <path id="DejaVuSans-50" d="M 1259 4147 
L 1259 2394 
L 2053 2394 
Q 2494 2394 2734 2622 
Q 2975 2850 2975 3272 
Q 2975 3691 2734 3919 
Q 2494 4147 2053 4147 
L 1259 4147 
z
M 628 4666 
L 2053 4666 
Q 2838 4666 3239 4311 
Q 3641 3956 3641 3272 
Q 3641 2581 3239 2228 
Q 2838 1875 2053 1875 
L 1259 1875 
L 1259 0 
L 628 0 
L 628 4666 
z
" transform="scale(0.015625)"/>
       <path id="DejaVuSans-4f" d="M 2522 4238 
Q 1834 4238 1429 3725 
Q 1025 3213 1025 2328 
Q 1025 1447 1429 934 
Q 1834 422 2522 422 
Q 3209 422 3611 934 
Q 4013 1447 4013 2328 
Q 4013 3213 3611 3725 
Q 3209 4238 2522 4238 
z
M 2522 4750 
Q 3503 4750 4090 4092 
Q 4678 3434 4678 2328 
Q 4678 1225 4090 567 
Q 3503 -91 2522 -91 
Q 1538 -91 948 565 
Q 359 1222 359 2328 
Q 359 3434 948 4092 
Q 1538 4750 2522 4750 
z
" transform="scale(0.015625)"/>
      </defs>
      <use xlink:href="#DejaVuSans-50"/>
      <use xlink:href="#DejaVuSans-50" transform="translate(60.302734 0)"/>
      <use xlink:href="#DejaVuSans-4f" transform="translate(120.605469 0)"/>
     </g>
    </g>
    <g id="line2d_28">
     <path d="M 630.803125 375.460312 
L 640.803125 375.460312 
L 650.803125 375.460312 
" style="fill: none; stroke: #ffa500; stroke-width: 1.5; stroke-linecap: square"/>
    </g>
    <g id="text_17">
     <!-- Random -->
     <g transform="translate(658.803125 378.960312) scale(0.1 -0.1)">
      <defs>
       <path id="DejaVuSans-6f" d="M 1959 3097 
Q 1497 3097 1228 2736 
Q 959 2375 959 1747 
Q 959 1119 1226 758 
Q 1494 397 1959 397 
Q 2419 397 2687 759 
Q 2956 1122 2956 1747 
Q 2956 2369 2687 2733 
Q 2419 3097 1959 3097 
z
M 1959 3584 
Q 2709 3584 3137 3096 
Q 3566 2609 3566 1747 
Q 3566 888 3137 398 
Q 2709 -91 1959 -91 
Q 1206 -91 779 398 
Q 353 888 353 1747 
Q 353 2609 779 3096 
Q 1206 3584 1959 3584 
z
" transform="scale(0.015625)"/>
       <path id="DejaVuSans-6d" d="M 3328 2828 
Q 3544 3216 3844 3400 
Q 4144 3584 4550 3584 
Q 5097 3584 5394 3201 
Q 5691 2819 5691 2113 
L 5691 0 
L 5113 0 
L 5113 2094 
Q 5113 2597 4934 2840 
Q 4756 3084 4391 3084 
Q 3944 3084 3684 2787 
Q 3425 2491 3425 1978 
L 3425 0 
L 2847 0 
L 2847 2094 
Q 2847 2600 2669 2842 
Q 2491 3084 2119 3084 
Q 1678 3084 1418 2786 
Q 1159 2488 1159 1978 
L 1159 0 
L 581 0 
L 581 3500 
L 1159 3500 
L 1159 2956 
Q 1356 3278 1631 3431 
Q 1906 3584 2284 3584 
Q 2666 3584 2933 3390 
Q 3200 3197 3328 2828 
z
" transform="scale(0.015625)"/>
      </defs>
      <use xlink:href="#DejaVuSans-52"/>
      <use xlink:href="#DejaVuSans-61" transform="translate(67.232422 0)"/>
      <use xlink:href="#DejaVuSans-6e" transform="translate(128.511719 0)"/>
      <use xlink:href="#DejaVuSans-64" transform="translate(191.890625 0)"/>
      <use xlink:href="#DejaVuSans-6f" transform="translate(255.367188 0)"/>
      <use xlink:href="#DejaVuSans-6d" transform="translate(316.548828 0)"/>
     </g>
    </g>
   </g>
  </g>
 </g>
 <defs>
  <clipPath id="p96c9adb05d">
   <rect x="50.87" y="10.8" width="658.33" height="379.24"/>
  </clipPath>
 </defs>
</svg>
