<?xml version="1.0" encoding="utf-8" standalone="no"?>
<!DOCTYPE svg PUBLIC "-//W3C//DTD SVG 1.1//EN"
  "http://www.w3.org/Graphics/SVG/1.1/DTD/svg11.dtd">
<svg xmlns:xlink="http://www.w3.org/1999/xlink" width="720pt" height="432pt" viewBox="0 0 720 432" xmlns="http://www.w3.org/2000/svg" version="1.1">
 <metadata>
  <rdf:RDF xmlns:dc="http://purl.org/dc/elements/1.1/" xmlns:cc="http://creativecommons.org/ns#" xmlns:rdf="http://www.w3.org/1999/02/22-rdf-syntax-ns#">
   <cc:Work>
    <dc:type rdf:resource="http://purl.org/dc/dcmitype/StillImage"/>
    <dc:date>2025-04-16T01:10:52.625003</dc:date>
    <dc:format>image/svg+xml</dc:format>
    <dc:creator>
     <cc:Agent>
      <dc:title>Matplotlib v3.10.0, https://matplotlib.org/</dc:title>
     </cc:Agent>
    </dc:creator>
   </cc:Work>
  </rdf:RDF>
 </metadata>
 <defs>
  <style type="text/css">*{stroke-linejoin: round; stroke-linecap: butt}</style>
 </defs>
 <g id="figure_1">
  <g id="patch_1">
   <path d="M 0 432 
L 720 432 
L 720 0 
L 0 0 
z
" style="fill: #ffffff"/>
  </g>
  <g id="axes_1">
   <g id="patch_2">
    <path d="M 44.57 390.04 
L 705.765745 390.04 
L 705.765745 10.8 
L 44.57 10.8 
z
" style="fill: #ffffff"/>
   </g>
   <g id="FillBetweenPolyCollection_1">
    <path d="M 74.624352 151.195471 
L 74.624352 353.164097 
L 80.821126 346.562227 
L 87.017899 353.810549 
L 93.214673 358.549703 
L 99.411447 353.24234 
L 105.60822 363.439015 
L 111.804994 354.482176 
L 118.001767 354.191645 
L 124.198541 354.90271 
L 130.395315 353.676147 
L 136.592088 372.801818 
L 142.788862 350.748119 
L 148.985635 358.932502 
L 155.182409 353.858106 
L 161.379183 354.540654 
L 167.575956 362.151483 
L 173.77273 343.87652 
L 179.969504 362.45724 
L 186.166277 369.364122 
L 192.363051 366.209609 
L 198.559824 359.555296 
L 204.756598 358.038524 
L 210.953372 357.419603 
L 217.150145 357.777585 
L 223.346919 355.208481 
L 229.543693 346.966609 
L 235.740466 365.22842 
L 241.93724 354.099701 
L 248.134013 363.579327 
L 254.330787 352.090628 
L 260.527561 354.678534 
L 266.724334 356.406998 
L 272.921108 355.358606 
L 279.117881 359.313434 
L 285.314655 354.702848 
L 291.511429 357.72117 
L 297.708202 360.687339 
L 303.904976 362.778645 
L 310.10175 352.597675 
L 316.298523 358.938499 
L 322.495297 368.463218 
L 328.69207 357.384397 
L 334.888844 355.683566 
L 341.085618 354.876149 
L 347.282391 347.184257 
L 353.479165 355.860198 
L 359.675938 360.072671 
L 365.872712 345.640072 
L 372.069486 359.723676 
L 378.266259 359.869357 
L 384.463033 354.88101 
L 390.659807 354.589399 
L 396.85658 365.482352 
L 403.053354 359.79073 
L 409.250127 363.806285 
L 415.446901 360.870792 
L 421.643675 366.352025 
L 427.840448 358.950447 
L 434.037222 360.929524 
L 440.233996 352.809248 
L 446.430769 353.63073 
L 452.627543 354.171425 
L 458.824316 356.104223 
L 465.02109 361.002878 
L 471.217864 365.691783 
L 477.414637 361.185111 
L 483.611411 355.442542 
L 489.808184 360.942199 
L 496.004958 364.184501 
L 502.201732 355.653284 
L 508.398505 353.58729 
L 514.595279 354.372942 
L 520.792053 361.931584 
L 526.988826 369.116881 
L 533.1856 358.879272 
L 539.382373 364.505986 
L 545.579147 359.727923 
L 551.775921 360.885341 
L 557.972694 354.231724 
L 564.169468 357.992989 
L 570.366242 352.435535 
L 576.563015 356.473437 
L 582.759789 350.649602 
L 588.956562 356.216602 
L 595.153336 372.058205 
L 601.35011 364.573346 
L 607.546883 358.957794 
L 613.743657 347.500333 
L 619.94043 362.268453 
L 626.137204 355.012692 
L 632.333978 348.6123 
L 638.530751 361.456947 
L 644.727525 357.389667 
L 650.924299 351.663158 
L 657.121072 366.414934 
L 663.317846 353.047127 
L 669.514619 352.042757 
L 675.711393 354.25305 
L 675.711393 102.958855 
L 675.711393 102.958855 
L 669.514619 117.902144 
L 663.317846 119.452561 
L 657.121072 57.104207 
L 650.924299 93.26487 
L 644.727525 106.202137 
L 638.530751 83.668584 
L 632.333978 128.265024 
L 626.137204 78.081168 
L 619.94043 42.057164 
L 613.743657 102.523209 
L 607.546883 88.598691 
L 601.35011 49.468691 
L 595.153336 33.611702 
L 588.956562 73.57728 
L 582.759789 86.290901 
L 576.563015 91.113878 
L 570.366242 75.246091 
L 564.169468 124.133339 
L 557.972694 82.880065 
L 551.775921 66.139776 
L 545.579147 107.161369 
L 539.382373 57.185546 
L 533.1856 94.657275 
L 526.988826 71.989769 
L 520.792053 78.061891 
L 514.595279 89.608511 
L 508.398505 95.765095 
L 502.201732 71.601849 
L 496.004958 62.361176 
L 489.808184 103.55583 
L 483.611411 35.913764 
L 477.414637 84.499387 
L 471.217864 75.952085 
L 465.02109 65.807893 
L 458.824316 91.181676 
L 452.627543 101.239086 
L 446.430769 63.977478 
L 440.233996 81.210976 
L 434.037222 102.309236 
L 427.840448 77.611309 
L 421.643675 77.584757 
L 415.446901 81.80782 
L 409.250127 98.503987 
L 403.053354 64.265775 
L 396.85658 63.211464 
L 390.659807 59.554209 
L 384.463033 134.508009 
L 378.266259 126.254029 
L 372.069486 76.885387 
L 365.872712 87.831877 
L 359.675938 78.942301 
L 353.479165 90.512811 
L 347.282391 118.98152 
L 341.085618 117.354711 
L 334.888844 120.495141 
L 328.69207 117.151827 
L 322.495297 66.88826 
L 316.298523 70.466603 
L 310.10175 144.113426 
L 303.904976 68.142251 
L 297.708202 70.155714 
L 291.511429 124.349429 
L 285.314655 91.21833 
L 279.117881 107.998324 
L 272.921108 108.908748 
L 266.724334 97.568565 
L 260.527561 120.618333 
L 254.330787 110.935764 
L 248.134013 92.864025 
L 241.93724 118.550915 
L 235.740466 76.249435 
L 229.543693 138.987541 
L 223.346919 96.836145 
L 217.150145 48.961997 
L 210.953372 105.608254 
L 204.756598 119.032933 
L 198.559824 99.797863 
L 192.363051 32.075898 
L 186.166277 48.713273 
L 179.969504 72.514319 
L 173.77273 103.181486 
L 167.575956 72.977082 
L 161.379183 91.22696 
L 155.182409 120.190843 
L 148.985635 44.649241 
L 142.788862 98.320352 
L 136.592088 28.038182 
L 130.395315 150.432827 
L 124.198541 121.13349 
L 118.001767 139.739851 
L 111.804994 157.29687 
L 105.60822 101.518315 
L 99.411447 119.570261 
L 93.214673 94.527104 
L 87.017899 96.470982 
L 80.821126 174.724313 
L 74.624352 151.195471 
z
" clip-path="url(#p19a6645eb5)" style="fill: #1f77b4; fill-opacity: 0.2"/>
   </g>
   <g id="matplotlib.axis_1">
    <g id="xtick_1">
     <g id="line2d_1">
      <path d="M 71.494981 390.04 
L 71.494981 10.8 
" clip-path="url(#p19a6645eb5)" style="fill: none; stroke: #b0b0b0; stroke-width: 0.8; stroke-linecap: square"/>
     </g>
     <g id="line2d_2">
      <defs>
       <path id="m3e97030ade" d="M 0 0 
L 0 3.5 
" style="stroke: #000000; stroke-width: 0.8"/>
      </defs>
      <g>
       <use xlink:href="#m3e97030ade" x="71.494981" y="390.04" style="stroke: #000000; stroke-width: 0.8"/>
      </g>
     </g>
     <g id="text_1">
      <!-- 0 -->
      <g transform="translate(68.313731 404.638438) scale(0.1 -0.1)">
       <defs>
        <path id="DejaVuSans-30" d="M 2034 4250 
Q 1547 4250 1301 3770 
Q 1056 3291 1056 2328 
Q 1056 1369 1301 889 
Q 1547 409 2034 409 
Q 2525 409 2770 889 
Q 3016 1369 3016 2328 
Q 3016 3291 2770 3770 
Q 2525 4250 2034 4250 
z
M 2034 4750 
Q 2819 4750 3233 4129 
Q 3647 3509 3647 2328 
Q 3647 1150 3233 529 
Q 2819 -91 2034 -91 
Q 1250 -91 836 529 
Q 422 1150 422 2328 
Q 422 3509 836 4129 
Q 1250 4750 2034 4750 
z
" transform="scale(0.015625)"/>
       </defs>
       <use xlink:href="#DejaVuSans-30"/>
      </g>
     </g>
    </g>
    <g id="xtick_2">
     <g id="line2d_3">
      <path d="M 148.954652 390.04 
L 148.954652 10.8 
" clip-path="url(#p19a6645eb5)" style="fill: none; stroke: #b0b0b0; stroke-width: 0.8; stroke-linecap: square"/>
     </g>
     <g id="line2d_4">
      <g>
       <use xlink:href="#m3e97030ade" x="148.954652" y="390.04" style="stroke: #000000; stroke-width: 0.8"/>
      </g>
     </g>
     <g id="text_2">
      <!-- 2500 -->
      <g transform="translate(136.229652 404.638438) scale(0.1 -0.1)">
       <defs>
        <path id="DejaVuSans-32" d="M 1228 531 
L 3431 531 
L 3431 0 
L 469 0 
L 469 531 
Q 828 903 1448 1529 
Q 2069 2156 2228 2338 
Q 2531 2678 2651 2914 
Q 2772 3150 2772 3378 
Q 2772 3750 2511 3984 
Q 2250 4219 1831 4219 
Q 1534 4219 1204 4116 
Q 875 4013 500 3803 
L 500 4441 
Q 881 4594 1212 4672 
Q 1544 4750 1819 4750 
Q 2544 4750 2975 4387 
Q 3406 4025 3406 3419 
Q 3406 3131 3298 2873 
Q 3191 2616 2906 2266 
Q 2828 2175 2409 1742 
Q 1991 1309 1228 531 
z
" transform="scale(0.015625)"/>
        <path id="DejaVuSans-35" d="M 691 4666 
L 3169 4666 
L 3169 4134 
L 1269 4134 
L 1269 2991 
Q 1406 3038 1543 3061 
Q 1681 3084 1819 3084 
Q 2600 3084 3056 2656 
Q 3513 2228 3513 1497 
Q 3513 744 3044 326 
Q 2575 -91 1722 -91 
Q 1428 -91 1123 -41 
Q 819 9 494 109 
L 494 744 
Q 775 591 1075 516 
Q 1375 441 1709 441 
Q 2250 441 2565 725 
Q 2881 1009 2881 1497 
Q 2881 1984 2565 2268 
Q 2250 2553 1709 2553 
Q 1456 2553 1204 2497 
Q 953 2441 691 2322 
L 691 4666 
z
" transform="scale(0.015625)"/>
       </defs>
       <use xlink:href="#DejaVuSans-32"/>
       <use xlink:href="#DejaVuSans-35" transform="translate(63.623047 0)"/>
       <use xlink:href="#DejaVuSans-30" transform="translate(127.246094 0)"/>
       <use xlink:href="#DejaVuSans-30" transform="translate(190.869141 0)"/>
      </g>
     </g>
    </g>
    <g id="xtick_3">
     <g id="line2d_5">
      <path d="M 226.414322 390.04 
L 226.414322 10.8 
" clip-path="url(#p19a6645eb5)" style="fill: none; stroke: #b0b0b0; stroke-width: 0.8; stroke-linecap: square"/>
     </g>
     <g id="line2d_6">
      <g>
       <use xlink:href="#m3e97030ade" x="226.414322" y="390.04" style="stroke: #000000; stroke-width: 0.8"/>
      </g>
     </g>
     <g id="text_3">
      <!-- 5000 -->
      <g transform="translate(213.689322 404.638438) scale(0.1 -0.1)">
       <use xlink:href="#DejaVuSans-35"/>
       <use xlink:href="#DejaVuSans-30" transform="translate(63.623047 0)"/>
       <use xlink:href="#DejaVuSans-30" transform="translate(127.246094 0)"/>
       <use xlink:href="#DejaVuSans-30" transform="translate(190.869141 0)"/>
      </g>
     </g>
    </g>
    <g id="xtick_4">
     <g id="line2d_7">
      <path d="M 303.873992 390.04 
L 303.873992 10.8 
" clip-path="url(#p19a6645eb5)" style="fill: none; stroke: #b0b0b0; stroke-width: 0.8; stroke-linecap: square"/>
     </g>
     <g id="line2d_8">
      <g>
       <use xlink:href="#m3e97030ade" x="303.873992" y="390.04" style="stroke: #000000; stroke-width: 0.8"/>
      </g>
     </g>
     <g id="text_4">
      <!-- 7500 -->
      <g transform="translate(291.148992 404.638438) scale(0.1 -0.1)">
       <defs>
        <path id="DejaVuSans-37" d="M 525 4666 
L 3525 4666 
L 3525 4397 
L 1831 0 
L 1172 0 
L 2766 4134 
L 525 4134 
L 525 4666 
z
" transform="scale(0.015625)"/>
       </defs>
       <use xlink:href="#DejaVuSans-37"/>
       <use xlink:href="#DejaVuSans-35" transform="translate(63.623047 0)"/>
       <use xlink:href="#DejaVuSans-30" transform="translate(127.246094 0)"/>
       <use xlink:href="#DejaVuSans-30" transform="translate(190.869141 0)"/>
      </g>
     </g>
    </g>
    <g id="xtick_5">
     <g id="line2d_9">
      <path d="M 381.333662 390.04 
L 381.333662 10.8 
" clip-path="url(#p19a6645eb5)" style="fill: none; stroke: #b0b0b0; stroke-width: 0.8; stroke-linecap: square"/>
     </g>
     <g id="line2d_10">
      <g>
       <use xlink:href="#m3e97030ade" x="381.333662" y="390.04" style="stroke: #000000; stroke-width: 0.8"/>
      </g>
     </g>
     <g id="text_5">
      <!-- 10000 -->
      <g transform="translate(365.427412 404.638438) scale(0.1 -0.1)">
       <defs>
        <path id="DejaVuSans-31" d="M 794 531 
L 1825 531 
L 1825 4091 
L 703 3866 
L 703 4441 
L 1819 4666 
L 2450 4666 
L 2450 531 
L 3481 531 
L 3481 0 
L 794 0 
L 794 531 
z
" transform="scale(0.015625)"/>
       </defs>
       <use xlink:href="#DejaVuSans-31"/>
       <use xlink:href="#DejaVuSans-30" transform="translate(63.623047 0)"/>
       <use xlink:href="#DejaVuSans-30" transform="translate(127.246094 0)"/>
       <use xlink:href="#DejaVuSans-30" transform="translate(190.869141 0)"/>
       <use xlink:href="#DejaVuSans-30" transform="translate(254.492188 0)"/>
      </g>
     </g>
    </g>
    <g id="xtick_6">
     <g id="line2d_11">
      <path d="M 458.793333 390.04 
L 458.793333 10.8 
" clip-path="url(#p19a6645eb5)" style="fill: none; stroke: #b0b0b0; stroke-width: 0.8; stroke-linecap: square"/>
     </g>
     <g id="line2d_12">
      <g>
       <use xlink:href="#m3e97030ade" x="458.793333" y="390.04" style="stroke: #000000; stroke-width: 0.8"/>
      </g>
     </g>
     <g id="text_6">
      <!-- 12500 -->
      <g transform="translate(442.887083 404.638438) scale(0.1 -0.1)">
       <use xlink:href="#DejaVuSans-31"/>
       <use xlink:href="#DejaVuSans-32" transform="translate(63.623047 0)"/>
       <use xlink:href="#DejaVuSans-35" transform="translate(127.246094 0)"/>
       <use xlink:href="#DejaVuSans-30" transform="translate(190.869141 0)"/>
       <use xlink:href="#DejaVuSans-30" transform="translate(254.492188 0)"/>
      </g>
     </g>
    </g>
    <g id="xtick_7">
     <g id="line2d_13">
      <path d="M 536.253003 390.04 
L 536.253003 10.8 
" clip-path="url(#p19a6645eb5)" style="fill: none; stroke: #b0b0b0; stroke-width: 0.8; stroke-linecap: square"/>
     </g>
     <g id="line2d_14">
      <g>
       <use xlink:href="#m3e97030ade" x="536.253003" y="390.04" style="stroke: #000000; stroke-width: 0.8"/>
      </g>
     </g>
     <g id="text_7">
      <!-- 15000 -->
      <g transform="translate(520.346753 404.638438) scale(0.1 -0.1)">
       <use xlink:href="#DejaVuSans-31"/>
       <use xlink:href="#DejaVuSans-35" transform="translate(63.623047 0)"/>
       <use xlink:href="#DejaVuSans-30" transform="translate(127.246094 0)"/>
       <use xlink:href="#DejaVuSans-30" transform="translate(190.869141 0)"/>
       <use xlink:href="#DejaVuSans-30" transform="translate(254.492188 0)"/>
      </g>
     </g>
    </g>
    <g id="xtick_8">
     <g id="line2d_15">
      <path d="M 613.712673 390.04 
L 613.712673 10.8 
" clip-path="url(#p19a6645eb5)" style="fill: none; stroke: #b0b0b0; stroke-width: 0.8; stroke-linecap: square"/>
     </g>
     <g id="line2d_16">
      <g>
       <use xlink:href="#m3e97030ade" x="613.712673" y="390.04" style="stroke: #000000; stroke-width: 0.8"/>
      </g>
     </g>
     <g id="text_8">
      <!-- 17500 -->
      <g transform="translate(597.806423 404.638438) scale(0.1 -0.1)">
       <use xlink:href="#DejaVuSans-31"/>
       <use xlink:href="#DejaVuSans-37" transform="translate(63.623047 0)"/>
       <use xlink:href="#DejaVuSans-35" transform="translate(127.246094 0)"/>
       <use xlink:href="#DejaVuSans-30" transform="translate(190.869141 0)"/>
       <use xlink:href="#DejaVuSans-30" transform="translate(254.492188 0)"/>
      </g>
     </g>
    </g>
    <g id="xtick_9">
     <g id="line2d_17">
      <path d="M 691.172343 390.04 
L 691.172343 10.8 
" clip-path="url(#p19a6645eb5)" style="fill: none; stroke: #b0b0b0; stroke-width: 0.8; stroke-linecap: square"/>
     </g>
     <g id="line2d_18">
      <g>
       <use xlink:href="#m3e97030ade" x="691.172343" y="390.04" style="stroke: #000000; stroke-width: 0.8"/>
      </g>
     </g>
     <g id="text_9">
      <!-- 20000 -->
      <g transform="translate(675.266093 404.638438) scale(0.1 -0.1)">
       <use xlink:href="#DejaVuSans-32"/>
       <use xlink:href="#DejaVuSans-30" transform="translate(63.623047 0)"/>
       <use xlink:href="#DejaVuSans-30" transform="translate(127.246094 0)"/>
       <use xlink:href="#DejaVuSans-30" transform="translate(190.869141 0)"/>
       <use xlink:href="#DejaVuSans-30" transform="translate(254.492188 0)"/>
      </g>
     </g>
    </g>
    <g id="text_10">
     <!-- Episodes -->
     <g transform="translate(352.925685 418.316562) scale(0.1 -0.1)">
      <defs>
       <path id="DejaVuSans-45" d="M 628 4666 
L 3578 4666 
L 3578 4134 
L 1259 4134 
L 1259 2753 
L 3481 2753 
L 3481 2222 
L 1259 2222 
L 1259 531 
L 3634 531 
L 3634 0 
L 628 0 
L 628 4666 
z
" transform="scale(0.015625)"/>
       <path id="DejaVuSans-70" d="M 1159 525 
L 1159 -1331 
L 581 -1331 
L 581 3500 
L 1159 3500 
L 1159 2969 
Q 1341 3281 1617 3432 
Q 1894 3584 2278 3584 
Q 2916 3584 3314 3078 
Q 3713 2572 3713 1747 
Q 3713 922 3314 415 
Q 2916 -91 2278 -91 
Q 1894 -91 1617 61 
Q 1341 213 1159 525 
z
M 3116 1747 
Q 3116 2381 2855 2742 
Q 2594 3103 2138 3103 
Q 1681 3103 1420 2742 
Q 1159 2381 1159 1747 
Q 1159 1113 1420 752 
Q 1681 391 2138 391 
Q 2594 391 2855 752 
Q 3116 1113 3116 1747 
z
" transform="scale(0.015625)"/>
       <path id="DejaVuSans-69" d="M 603 3500 
L 1178 3500 
L 1178 0 
L 603 0 
L 603 3500 
z
M 603 4863 
L 1178 4863 
L 1178 4134 
L 603 4134 
L 603 4863 
z
" transform="scale(0.015625)"/>
       <path id="DejaVuSans-73" d="M 2834 3397 
L 2834 2853 
Q 2591 2978 2328 3040 
Q 2066 3103 1784 3103 
Q 1356 3103 1142 2972 
Q 928 2841 928 2578 
Q 928 2378 1081 2264 
Q 1234 2150 1697 2047 
L 1894 2003 
Q 2506 1872 2764 1633 
Q 3022 1394 3022 966 
Q 3022 478 2636 193 
Q 2250 -91 1575 -91 
Q 1294 -91 989 -36 
Q 684 19 347 128 
L 347 722 
Q 666 556 975 473 
Q 1284 391 1588 391 
Q 1994 391 2212 530 
Q 2431 669 2431 922 
Q 2431 1156 2273 1281 
Q 2116 1406 1581 1522 
L 1381 1569 
Q 847 1681 609 1914 
Q 372 2147 372 2553 
Q 372 3047 722 3315 
Q 1072 3584 1716 3584 
Q 2034 3584 2315 3537 
Q 2597 3491 2834 3397 
z
" transform="scale(0.015625)"/>
       <path id="DejaVuSans-6f" d="M 1959 3097 
Q 1497 3097 1228 2736 
Q 959 2375 959 1747 
Q 959 1119 1226 758 
Q 1494 397 1959 397 
Q 2419 397 2687 759 
Q 2956 1122 2956 1747 
Q 2956 2369 2687 2733 
Q 2419 3097 1959 3097 
z
M 1959 3584 
Q 2709 3584 3137 3096 
Q 3566 2609 3566 1747 
Q 3566 888 3137 398 
Q 2709 -91 1959 -91 
Q 1206 -91 779 398 
Q 353 888 353 1747 
Q 353 2609 779 3096 
Q 1206 3584 1959 3584 
z
" transform="scale(0.015625)"/>
       <path id="DejaVuSans-64" d="M 2906 2969 
L 2906 4863 
L 3481 4863 
L 3481 0 
L 2906 0 
L 2906 525 
Q 2725 213 2448 61 
Q 2172 -91 1784 -91 
Q 1150 -91 751 415 
Q 353 922 353 1747 
Q 353 2572 751 3078 
Q 1150 3584 1784 3584 
Q 2172 3584 2448 3432 
Q 2725 3281 2906 2969 
z
M 947 1747 
Q 947 1113 1208 752 
Q 1469 391 1925 391 
Q 2381 391 2643 752 
Q 2906 1113 2906 1747 
Q 2906 2381 2643 2742 
Q 2381 3103 1925 3103 
Q 1469 3103 1208 2742 
Q 947 2381 947 1747 
z
" transform="scale(0.015625)"/>
       <path id="DejaVuSans-65" d="M 3597 1894 
L 3597 1613 
L 953 1613 
Q 991 1019 1311 708 
Q 1631 397 2203 397 
Q 2534 397 2845 478 
Q 3156 559 3463 722 
L 3463 178 
Q 3153 47 2828 -22 
Q 2503 -91 2169 -91 
Q 1331 -91 842 396 
Q 353 884 353 1716 
Q 353 2575 817 3079 
Q 1281 3584 2069 3584 
Q 2775 3584 3186 3129 
Q 3597 2675 3597 1894 
z
M 3022 2063 
Q 3016 2534 2758 2815 
Q 2500 3097 2075 3097 
Q 1594 3097 1305 2825 
Q 1016 2553 972 2059 
L 3022 2063 
z
" transform="scale(0.015625)"/>
      </defs>
      <use xlink:href="#DejaVuSans-45"/>
      <use xlink:href="#DejaVuSans-70" transform="translate(63.183594 0)"/>
      <use xlink:href="#DejaVuSans-69" transform="translate(126.660156 0)"/>
      <use xlink:href="#DejaVuSans-73" transform="translate(154.443359 0)"/>
      <use xlink:href="#DejaVuSans-6f" transform="translate(206.542969 0)"/>
      <use xlink:href="#DejaVuSans-64" transform="translate(267.724609 0)"/>
      <use xlink:href="#DejaVuSans-65" transform="translate(331.201172 0)"/>
      <use xlink:href="#DejaVuSans-73" transform="translate(392.724609 0)"/>
     </g>
    </g>
   </g>
   <g id="matplotlib.axis_2">
    <g id="ytick_1">
     <g id="line2d_19">
      <path d="M 44.57 371.030491 
L 705.765745 371.030491 
" clip-path="url(#p19a6645eb5)" style="fill: none; stroke: #b0b0b0; stroke-width: 0.8; stroke-linecap: square"/>
     </g>
     <g id="line2d_20">
      <defs>
       <path id="m887b4201a2" d="M 0 0 
L -3.5 0 
" style="stroke: #000000; stroke-width: 0.8"/>
      </defs>
      <g>
       <use xlink:href="#m887b4201a2" x="44.57" y="371.030491" style="stroke: #000000; stroke-width: 0.8"/>
      </g>
     </g>
     <g id="text_11">
      <!-- 0 -->
      <g transform="translate(31.2075 374.829709) scale(0.1 -0.1)">
       <use xlink:href="#DejaVuSans-30"/>
      </g>
     </g>
    </g>
    <g id="ytick_2">
     <g id="line2d_21">
      <path d="M 44.57 305.123192 
L 705.765745 305.123192 
" clip-path="url(#p19a6645eb5)" style="fill: none; stroke: #b0b0b0; stroke-width: 0.8; stroke-linecap: square"/>
     </g>
     <g id="line2d_22">
      <g>
       <use xlink:href="#m887b4201a2" x="44.57" y="305.123192" style="stroke: #000000; stroke-width: 0.8"/>
      </g>
     </g>
     <g id="text_12">
      <!-- 5 -->
      <g transform="translate(31.2075 308.922411) scale(0.1 -0.1)">
       <use xlink:href="#DejaVuSans-35"/>
      </g>
     </g>
    </g>
    <g id="ytick_3">
     <g id="line2d_23">
      <path d="M 44.57 239.215893 
L 705.765745 239.215893 
" clip-path="url(#p19a6645eb5)" style="fill: none; stroke: #b0b0b0; stroke-width: 0.8; stroke-linecap: square"/>
     </g>
     <g id="line2d_24">
      <g>
       <use xlink:href="#m887b4201a2" x="44.57" y="239.215893" style="stroke: #000000; stroke-width: 0.8"/>
      </g>
     </g>
     <g id="text_13">
      <!-- 10 -->
      <g transform="translate(24.845 243.015112) scale(0.1 -0.1)">
       <use xlink:href="#DejaVuSans-31"/>
       <use xlink:href="#DejaVuSans-30" transform="translate(63.623047 0)"/>
      </g>
     </g>
    </g>
    <g id="ytick_4">
     <g id="line2d_25">
      <path d="M 44.57 173.308595 
L 705.765745 173.308595 
" clip-path="url(#p19a6645eb5)" style="fill: none; stroke: #b0b0b0; stroke-width: 0.8; stroke-linecap: square"/>
     </g>
     <g id="line2d_26">
      <g>
       <use xlink:href="#m887b4201a2" x="44.57" y="173.308595" style="stroke: #000000; stroke-width: 0.8"/>
      </g>
     </g>
     <g id="text_14">
      <!-- 15 -->
      <g transform="translate(24.845 177.107814) scale(0.1 -0.1)">
       <use xlink:href="#DejaVuSans-31"/>
       <use xlink:href="#DejaVuSans-35" transform="translate(63.623047 0)"/>
      </g>
     </g>
    </g>
    <g id="ytick_5">
     <g id="line2d_27">
      <path d="M 44.57 107.401296 
L 705.765745 107.401296 
" clip-path="url(#p19a6645eb5)" style="fill: none; stroke: #b0b0b0; stroke-width: 0.8; stroke-linecap: square"/>
     </g>
     <g id="line2d_28">
      <g>
       <use xlink:href="#m887b4201a2" x="44.57" y="107.401296" style="stroke: #000000; stroke-width: 0.8"/>
      </g>
     </g>
     <g id="text_15">
      <!-- 20 -->
      <g transform="translate(24.845 111.200515) scale(0.1 -0.1)">
       <use xlink:href="#DejaVuSans-32"/>
       <use xlink:href="#DejaVuSans-30" transform="translate(63.623047 0)"/>
      </g>
     </g>
    </g>
    <g id="ytick_6">
     <g id="line2d_29">
      <path d="M 44.57 41.493998 
L 705.765745 41.493998 
" clip-path="url(#p19a6645eb5)" style="fill: none; stroke: #b0b0b0; stroke-width: 0.8; stroke-linecap: square"/>
     </g>
     <g id="line2d_30">
      <g>
       <use xlink:href="#m887b4201a2" x="44.57" y="41.493998" style="stroke: #000000; stroke-width: 0.8"/>
      </g>
     </g>
     <g id="text_16">
      <!-- 25 -->
      <g transform="translate(24.845 45.293217) scale(0.1 -0.1)">
       <use xlink:href="#DejaVuSans-32"/>
       <use xlink:href="#DejaVuSans-35" transform="translate(63.623047 0)"/>
      </g>
     </g>
    </g>
    <g id="text_17">
     <!-- Reward -->
     <g transform="translate(18.765312 219.041094) rotate(-90) scale(0.1 -0.1)">
      <defs>
       <path id="DejaVuSans-52" d="M 2841 2188 
Q 3044 2119 3236 1894 
Q 3428 1669 3622 1275 
L 4263 0 
L 3584 0 
L 2988 1197 
Q 2756 1666 2539 1819 
Q 2322 1972 1947 1972 
L 1259 1972 
L 1259 0 
L 628 0 
L 628 4666 
L 2053 4666 
Q 2853 4666 3247 4331 
Q 3641 3997 3641 3322 
Q 3641 2881 3436 2590 
Q 3231 2300 2841 2188 
z
M 1259 4147 
L 1259 2491 
L 2053 2491 
Q 2509 2491 2742 2702 
Q 2975 2913 2975 3322 
Q 2975 3731 2742 3939 
Q 2509 4147 2053 4147 
L 1259 4147 
z
" transform="scale(0.015625)"/>
       <path id="DejaVuSans-77" d="M 269 3500 
L 844 3500 
L 1563 769 
L 2278 3500 
L 2956 3500 
L 3675 769 
L 4391 3500 
L 4966 3500 
L 4050 0 
L 3372 0 
L 2619 2869 
L 1863 0 
L 1184 0 
L 269 3500 
z
" transform="scale(0.015625)"/>
       <path id="DejaVuSans-61" d="M 2194 1759 
Q 1497 1759 1228 1600 
Q 959 1441 959 1056 
Q 959 750 1161 570 
Q 1363 391 1709 391 
Q 2188 391 2477 730 
Q 2766 1069 2766 1631 
L 2766 1759 
L 2194 1759 
z
M 3341 1997 
L 3341 0 
L 2766 0 
L 2766 531 
Q 2569 213 2275 61 
Q 1981 -91 1556 -91 
Q 1019 -91 701 211 
Q 384 513 384 1019 
Q 384 1609 779 1909 
Q 1175 2209 1959 2209 
L 2766 2209 
L 2766 2266 
Q 2766 2663 2505 2880 
Q 2244 3097 1772 3097 
Q 1472 3097 1187 3025 
Q 903 2953 641 2809 
L 641 3341 
Q 956 3463 1253 3523 
Q 1550 3584 1831 3584 
Q 2591 3584 2966 3190 
Q 3341 2797 3341 1997 
z
" transform="scale(0.015625)"/>
       <path id="DejaVuSans-72" d="M 2631 2963 
Q 2534 3019 2420 3045 
Q 2306 3072 2169 3072 
Q 1681 3072 1420 2755 
Q 1159 2438 1159 1844 
L 1159 0 
L 581 0 
L 581 3500 
L 1159 3500 
L 1159 2956 
Q 1341 3275 1631 3429 
Q 1922 3584 2338 3584 
Q 2397 3584 2469 3576 
Q 2541 3569 2628 3553 
L 2631 2963 
z
" transform="scale(0.015625)"/>
      </defs>
      <use xlink:href="#DejaVuSans-52"/>
      <use xlink:href="#DejaVuSans-65" transform="translate(64.982422 0)"/>
      <use xlink:href="#DejaVuSans-77" transform="translate(126.505859 0)"/>
      <use xlink:href="#DejaVuSans-61" transform="translate(208.292969 0)"/>
      <use xlink:href="#DejaVuSans-72" transform="translate(269.572266 0)"/>
      <use xlink:href="#DejaVuSans-64" transform="translate(308.935547 0)"/>
     </g>
    </g>
   </g>
   <g id="line2d_31">
    <path d="M 74.624352 252.179784 
L 80.821126 260.64327 
L 87.017899 225.140766 
L 93.214673 226.538403 
L 99.411447 236.4063 
L 105.60822 232.478665 
L 111.804994 255.889523 
L 118.001767 246.965748 
L 124.198541 238.0181 
L 130.395315 252.054487 
L 136.592088 200.42 
L 142.788862 224.534236 
L 148.985635 201.790872 
L 155.182409 237.024474 
L 161.379183 222.883807 
L 167.575956 217.564282 
L 173.77273 223.529003 
L 179.969504 217.48578 
L 186.166277 209.038697 
L 192.363051 199.142753 
L 198.559824 229.676579 
L 204.756598 238.535729 
L 210.953372 231.513928 
L 217.150145 203.369791 
L 223.346919 226.022313 
L 229.543693 242.977075 
L 235.740466 220.738927 
L 241.93724 236.325308 
L 248.134013 228.221676 
L 254.330787 231.513196 
L 260.527561 237.648433 
L 266.724334 226.987781 
L 272.921108 232.133677 
L 279.117881 233.655879 
L 285.314655 222.960589 
L 291.511429 241.0353 
L 297.708202 215.421526 
L 303.904976 215.460448 
L 310.10175 248.35555 
L 316.298523 214.702551 
L 322.495297 217.675739 
L 328.69207 237.268112 
L 334.888844 238.089353 
L 341.085618 236.11543 
L 347.282391 233.082888 
L 353.479165 223.186505 
L 359.675938 219.507486 
L 365.872712 216.735974 
L 372.069486 218.304531 
L 378.266259 243.061693 
L 384.463033 244.694509 
L 390.659807 207.071804 
L 396.85658 214.346908 
L 403.053354 212.028253 
L 409.250127 231.155136 
L 415.446901 221.339306 
L 421.643675 221.968391 
L 427.840448 218.280878 
L 434.037222 231.61938 
L 440.233996 217.010112 
L 446.430769 208.804104 
L 452.627543 227.705256 
L 458.824316 223.642949 
L 465.02109 213.405386 
L 471.217864 220.821934 
L 477.414637 222.842249 
L 483.611411 195.678153 
L 489.808184 232.249014 
L 496.004958 213.272839 
L 502.201732 213.627566 
L 508.398505 224.676193 
L 514.595279 221.990727 
L 520.792053 219.996738 
L 526.988826 220.553325 
L 533.1856 226.768273 
L 539.382373 210.845766 
L 545.579147 233.444646 
L 551.775921 213.512558 
L 557.972694 218.555894 
L 564.169468 241.063164 
L 570.366242 213.840813 
L 576.563015 223.793657 
L 582.759789 218.470252 
L 588.956562 214.896941 
L 595.153336 202.834953 
L 601.35011 207.021019 
L 607.546883 223.778242 
L 613.743657 225.011771 
L 619.94043 202.162809 
L 626.137204 216.54693 
L 632.333978 238.438662 
L 638.530751 222.562765 
L 644.727525 231.795902 
L 650.924299 222.464014 
L 657.121072 211.759571 
L 663.317846 236.249844 
L 669.514619 234.972451 
L 675.711393 228.605952 
" clip-path="url(#p19a6645eb5)" style="fill: none; stroke: #1f77b4; stroke-width: 1.5; stroke-linecap: square"/>
   </g>
   <g id="patch_3">
    <path d="M 44.57 390.04 
L 44.57 10.8 
" style="fill: none; stroke: #000000; stroke-width: 0.8; stroke-linejoin: miter; stroke-linecap: square"/>
   </g>
   <g id="patch_4">
    <path d="M 705.765745 390.04 
L 705.765745 10.8 
" style="fill: none; stroke: #000000; stroke-width: 0.8; stroke-linejoin: miter; stroke-linecap: square"/>
   </g>
   <g id="patch_5">
    <path d="M 44.57 390.04 
L 705.765745 390.04 
" style="fill: none; stroke: #000000; stroke-width: 0.8; stroke-linejoin: miter; stroke-linecap: square"/>
   </g>
   <g id="patch_6">
    <path d="M 44.57 10.8 
L 705.765745 10.8 
" style="fill: none; stroke: #000000; stroke-width: 0.8; stroke-linejoin: miter; stroke-linecap: square"/>
   </g>
  </g>
 </g>
 <defs>
  <clipPath id="p19a6645eb5">
   <rect x="44.57" y="10.8" width="661.195745" height="379.24"/>
  </clipPath>
 </defs>
</svg>
