<?xml version="1.0" encoding="utf-8" standalone="no"?>
<!DOCTYPE svg PUBLIC "-//W3C//DTD SVG 1.1//EN"
  "http://www.w3.org/Graphics/SVG/1.1/DTD/svg11.dtd">
<svg xmlns:xlink="http://www.w3.org/1999/xlink" width="720pt" height="432pt" viewBox="0 0 720 432" xmlns="http://www.w3.org/2000/svg" version="1.1">
 <metadata>
  <rdf:RDF xmlns:dc="http://purl.org/dc/elements/1.1/" xmlns:cc="http://creativecommons.org/ns#" xmlns:rdf="http://www.w3.org/1999/02/22-rdf-syntax-ns#">
   <cc:Work>
    <dc:type rdf:resource="http://purl.org/dc/dcmitype/StillImage"/>
    <dc:date>2025-04-15T14:33:08.519950</dc:date>
    <dc:format>image/svg+xml</dc:format>
    <dc:creator>
     <cc:Agent>
      <dc:title>Matplotlib v3.10.0, https://matplotlib.org/</dc:title>
     </cc:Agent>
    </dc:creator>
   </cc:Work>
  </rdf:RDF>
 </metadata>
 <defs>
  <style type="text/css">*{stroke-linejoin: round; stroke-linecap: butt}</style>
 </defs>
 <g id="figure_1">
  <g id="patch_1">
   <path d="M 0 432 
L 720 432 
L 720 0 
L 0 0 
z
" style="fill: #ffffff"/>
  </g>
  <g id="axes_1">
   <g id="patch_2">
    <path d="M 54.02 390.04 
L 709.2 390.04 
L 709.2 10.8 
L 54.02 10.8 
z
" style="fill: #ffffff"/>
   </g>
   <g id="FillBetweenPolyCollection_1">
    <path d="M 83.800909 60.081604 
L 83.800909 362.711763 
L 86.623744 358.122319 
L 89.446579 356.97753 
L 92.269414 348.803707 
L 95.092249 355.605757 
L 97.915084 342.124339 
L 100.737919 348.243012 
L 103.560754 342.275104 
L 106.383589 345.993336 
L 109.206424 350.89343 
L 112.029259 345.321804 
L 114.852094 341.571343 
L 117.674929 367.67475 
L 120.497764 334.180214 
L 123.320599 338.867476 
L 126.143434 343.557169 
L 128.966269 344.711974 
L 131.789104 342.944515 
L 134.611939 351.485358 
L 137.434774 342.525916 
L 140.257609 365.512669 
L 143.080444 350.336297 
L 145.903279 344.814394 
L 148.726114 342.579882 
L 151.548949 352.419957 
L 154.371784 336.544671 
L 157.194619 354.44941 
L 160.017454 344.881528 
L 162.840289 351.428595 
L 165.663124 344.400841 
L 168.485959 356.225926 
L 171.308794 343.615844 
L 174.131629 352.489395 
L 176.954464 362.458502 
L 179.777299 354.675988 
L 182.600134 359.547584 
L 185.422969 337.004098 
L 188.245804 363.906638 
L 191.068639 357.705973 
L 193.891474 354.021592 
L 196.714308 350.674262 
L 199.537143 358.081738 
L 202.359978 348.135219 
L 205.182813 341.797388 
L 208.005648 340.4722 
L 210.828483 334.616972 
L 213.651318 342.941204 
L 216.474153 342.584212 
L 219.296988 346.338027 
L 222.119823 358.453662 
L 224.942658 359.769577 
L 227.765493 350.137413 
L 230.588328 336.948586 
L 233.411163 341.733376 
L 236.233998 360.415989 
L 239.056833 347.826198 
L 241.879668 349.382455 
L 244.702503 346.06513 
L 247.525338 337.503099 
L 250.348173 347.967083 
L 253.171008 342.622438 
L 255.993843 349.749866 
L 258.816678 346.737481 
L 261.639513 355.435162 
L 264.462348 334.179768 
L 267.285183 344.054608 
L 270.108018 349.56997 
L 272.930853 350.281712 
L 275.753688 340.072119 
L 278.576523 354.650117 
L 281.399358 341.961043 
L 284.222193 333.560732 
L 287.045028 352.484892 
L 289.867863 341.974845 
L 292.690698 341.532737 
L 295.513533 338.498157 
L 298.336368 334.641888 
L 301.159203 340.945348 
L 303.982038 345.490841 
L 306.804873 348.148384 
L 309.627708 345.523189 
L 312.450543 333.88449 
L 315.273378 350.679512 
L 318.096213 353.947964 
L 320.919048 343.179556 
L 323.741883 361.56308 
L 326.564718 352.068694 
L 329.387553 341.488318 
L 332.210388 351.640111 
L 335.033223 347.841155 
L 337.856058 354.173876 
L 340.678893 356.222819 
L 343.501728 358.524118 
L 346.324563 360.400058 
L 349.147398 338.544478 
L 351.970233 355.023862 
L 354.793068 372.404691 
L 357.615903 364.359253 
L 360.438738 346.141482 
L 363.261573 367.74104 
L 366.084408 346.019508 
L 368.907243 333.53381 
L 371.730078 343.972724 
L 374.552913 354.920732 
L 377.375748 355.246998 
L 380.198583 362.821352 
L 383.021417 348.430967 
L 385.844252 344.911232 
L 388.667087 353.532098 
L 391.489922 333.915502 
L 394.312757 360.991774 
L 397.135592 360.647699 
L 399.958427 355.894194 
L 402.781262 351.461691 
L 405.604097 354.122851 
L 408.426932 343.097331 
L 411.249767 329.587515 
L 414.072602 358.176122 
L 416.895437 352.219103 
L 419.718272 353.538067 
L 422.541107 357.657016 
L 425.363942 333.577818 
L 428.186777 366.9262 
L 431.009612 347.788705 
L 433.832447 352.644304 
L 436.655282 345.293272 
L 439.478117 345.654205 
L 442.300952 368.902063 
L 445.123787 352.112836 
L 447.946622 343.312372 
L 450.769457 342.716076 
L 453.592292 361.27298 
L 456.415127 348.674235 
L 459.237962 335.16931 
L 462.060797 340.129277 
L 464.883632 352.813207 
L 467.706467 368.566493 
L 470.529302 341.300823 
L 473.352137 349.489086 
L 476.174972 367.810255 
L 478.997807 357.146273 
L 481.820642 360.552956 
L 484.643477 351.96868 
L 487.466312 357.053995 
L 490.289147 359.185545 
L 493.111982 366.471464 
L 495.934817 354.58238 
L 498.757652 353.082238 
L 501.580487 341.673121 
L 504.403322 363.083841 
L 507.226157 348.038877 
L 510.048992 352.958598 
L 512.871827 336.238917 
L 515.694662 335.958946 
L 518.517497 341.072796 
L 521.340332 353.775075 
L 524.163167 355.597565 
L 526.986002 339.898368 
L 529.808837 349.436068 
L 532.631672 342.627372 
L 535.454507 361.157869 
L 538.277342 350.165778 
L 541.100177 354.987567 
L 543.923012 355.986615 
L 546.745847 358.876224 
L 549.568682 352.432794 
L 552.391517 330.631304 
L 555.214352 359.552807 
L 558.037187 346.950699 
L 560.860022 349.257949 
L 563.682857 347.242699 
L 566.505692 345.289019 
L 569.328526 350.058644 
L 572.151361 352.636553 
L 574.974196 354.547499 
L 577.797031 372.801818 
L 580.619866 343.507384 
L 583.442701 348.361732 
L 586.265536 348.422642 
L 589.088371 356.063688 
L 591.911206 356.432894 
L 594.734041 360.072639 
L 597.556876 344.784532 
L 600.379711 345.858011 
L 603.202546 355.081416 
L 606.025381 345.25919 
L 608.848216 333.564689 
L 611.671051 343.655322 
L 614.493886 359.220834 
L 617.316721 345.42535 
L 620.139556 344.044009 
L 622.962391 342.27845 
L 625.785226 345.3338 
L 628.608061 344.017665 
L 631.430896 352.374124 
L 634.253731 347.318546 
L 637.076566 336.44129 
L 639.899401 338.444375 
L 642.722236 355.251017 
L 645.545071 349.410227 
L 648.367906 349.994125 
L 651.190741 337.339803 
L 654.013576 355.913145 
L 656.836411 359.583357 
L 659.659246 328.370793 
L 662.482081 347.123983 
L 665.304916 330.657481 
L 668.127751 342.736643 
L 670.950586 346.022081 
L 673.773421 357.647781 
L 676.596256 345.802292 
L 679.419091 357.305076 
L 679.419091 56.907232 
L 679.419091 56.907232 
L 676.596256 28.038182 
L 673.773421 59.261431 
L 670.950586 60.671585 
L 668.127751 47.040081 
L 665.304916 47.84128 
L 662.482081 45.104472 
L 659.659246 34.682065 
L 656.836411 54.874124 
L 654.013576 47.429824 
L 651.190741 46.797941 
L 648.367906 48.77228 
L 645.545071 68.15278 
L 642.722236 70.7296 
L 639.899401 28.040906 
L 637.076566 50.148184 
L 634.253731 59.783742 
L 631.430896 69.193378 
L 628.608061 73.627068 
L 625.785226 32.020822 
L 622.962391 51.747941 
L 620.139556 58.399991 
L 617.316721 35.770317 
L 614.493886 40.199366 
L 611.671051 37.376895 
L 608.848216 37.00681 
L 606.025381 48.19513 
L 603.202546 46.054996 
L 600.379711 65.330496 
L 597.556876 37.637 
L 594.734041 62.802451 
L 591.911206 54.673889 
L 589.088371 53.490332 
L 586.265536 58.025852 
L 583.442701 54.327442 
L 580.619866 53.461083 
L 577.797031 57.673639 
L 574.974196 79.605554 
L 572.151361 70.810609 
L 569.328526 50.015351 
L 566.505692 35.089405 
L 563.682857 38.774705 
L 560.860022 74.270937 
L 558.037187 54.34916 
L 555.214352 53.51536 
L 552.391517 38.632605 
L 549.568682 61.043995 
L 546.745847 66.1237 
L 543.923012 60.513976 
L 541.100177 63.719581 
L 538.277342 61.513076 
L 535.454507 54.280305 
L 532.631672 50.418327 
L 529.808837 50.964824 
L 526.986002 53.229055 
L 524.163167 70.628225 
L 521.340332 51.611003 
L 518.517497 60.717409 
L 515.694662 37.636354 
L 512.871827 39.889839 
L 510.048992 63.215095 
L 507.226157 59.22686 
L 504.403322 52.190885 
L 501.580487 67.635727 
L 498.757652 71.427339 
L 495.934817 54.889915 
L 493.111982 54.360518 
L 490.289147 38.845341 
L 487.466312 61.407981 
L 484.643477 56.359475 
L 481.820642 64.692142 
L 478.997807 54.12396 
L 476.174972 74.515234 
L 473.352137 51.483875 
L 470.529302 49.538317 
L 467.706467 56.842054 
L 464.883632 67.610152 
L 462.060797 56.267122 
L 459.237962 37.363575 
L 456.415127 52.053553 
L 453.592292 59.477279 
L 450.769457 63.323797 
L 447.946622 45.401936 
L 445.123787 68.310524 
L 442.300952 70.072728 
L 439.478117 48.780808 
L 436.655282 55.271068 
L 433.832447 60.832485 
L 431.009612 44.684925 
L 428.186777 59.544763 
L 425.363942 36.748507 
L 422.541107 55.247703 
L 419.718272 63.452871 
L 416.895437 52.349731 
L 414.072602 60.204129 
L 411.249767 28.72533 
L 408.426932 57.957355 
L 405.604097 66.218784 
L 402.781262 68.634772 
L 399.958427 104.002034 
L 397.135592 68.847064 
L 394.312757 65.887811 
L 391.489922 51.856729 
L 388.667087 63.704012 
L 385.844252 59.575877 
L 383.021417 60.305809 
L 380.198583 60.135464 
L 377.375748 73.512247 
L 374.552913 51.200865 
L 371.730078 41.88123 
L 368.907243 40.960459 
L 366.084408 49.559647 
L 363.261573 46.307822 
L 360.438738 46.740769 
L 357.615903 38.003023 
L 354.793068 57.171798 
L 351.970233 55.674299 
L 349.147398 60.957445 
L 346.324563 67.868841 
L 343.501728 65.331666 
L 340.678893 58.152939 
L 337.856058 54.72635 
L 335.033223 45.776615 
L 332.210388 64.12496 
L 329.387553 66.022593 
L 326.564718 49.558063 
L 323.741883 73.325493 
L 320.919048 58.528925 
L 318.096213 52.418806 
L 315.273378 59.936923 
L 312.450543 28.84147 
L 309.627708 40.984561 
L 306.804873 38.767988 
L 303.982038 57.770403 
L 301.159203 52.999319 
L 298.336368 43.529977 
L 295.513533 45.476138 
L 292.690698 51.758134 
L 289.867863 59.325014 
L 287.045028 56.742231 
L 284.222193 31.044889 
L 281.399358 51.493278 
L 278.576523 55.884596 
L 275.753688 49.949778 
L 272.930853 49.220211 
L 270.108018 53.527825 
L 267.285183 54.303174 
L 264.462348 29.44516 
L 261.639513 57.633006 
L 258.816678 68.782418 
L 255.993843 55.064141 
L 253.171008 29.583548 
L 250.348173 47.04 
L 247.525338 37.808413 
L 244.702503 36.519851 
L 241.879668 59.926392 
L 239.056833 58.704021 
L 236.233998 56.738397 
L 233.411163 54.009227 
L 230.588328 48.333298 
L 227.765493 48.955889 
L 224.942658 58.855848 
L 222.119823 57.801756 
L 219.296988 45.481807 
L 216.474153 57.244609 
L 213.651318 64.651431 
L 210.828483 49.847668 
L 208.005648 37.045869 
L 205.182813 54.435561 
L 202.359978 48.751525 
L 199.537143 60.298513 
L 196.714308 53.404226 
L 193.891474 68.199705 
L 191.068639 52.256668 
L 188.245804 47.608768 
L 185.422969 44.845363 
L 182.600134 74.442021 
L 179.777299 61.988052 
L 176.954464 62.459698 
L 174.131629 61.232567 
L 171.308794 41.911213 
L 168.485959 59.048799 
L 165.663124 42.433807 
L 162.840289 53.385412 
L 160.017454 57.235575 
L 157.194619 66.300847 
L 154.371784 35.74304 
L 151.548949 72.334794 
L 148.726114 64.685856 
L 145.903279 53.053042 
L 143.080444 61.58773 
L 140.257609 59.078634 
L 137.434774 52.072545 
L 134.611939 54.554514 
L 131.789104 55.086369 
L 128.966269 48.742346 
L 126.143434 51.123017 
L 123.320599 35.463344 
L 120.497764 42.929234 
L 117.674929 41.715822 
L 114.852094 47.142964 
L 112.029259 84.418133 
L 109.206424 48.608493 
L 106.383589 42.230625 
L 103.560754 63.274421 
L 100.737919 59.758245 
L 97.915084 63.180014 
L 95.092249 71.028655 
L 92.269414 45.713031 
L 89.446579 51.023727 
L 86.623744 58.541721 
L 83.800909 60.081604 
z
" clip-path="url(#pcbefd71c53)" style="fill: #1f77b4; fill-opacity: 0.2"/>
   </g>
   <g id="matplotlib.axis_1">
    <g id="xtick_1">
     <g id="line2d_1">
      <path d="M 82.375377 390.04 
L 82.375377 10.8 
" clip-path="url(#pcbefd71c53)" style="fill: none; stroke: #b0b0b0; stroke-width: 0.8; stroke-linecap: square"/>
     </g>
     <g id="line2d_2">
      <defs>
       <path id="m614e6fe35e" d="M 0 0 
L 0 3.5 
" style="stroke: #000000; stroke-width: 0.8"/>
      </defs>
      <g>
       <use xlink:href="#m614e6fe35e" x="82.375377" y="390.04" style="stroke: #000000; stroke-width: 0.8"/>
      </g>
     </g>
     <g id="text_1">
      <!-- 0 -->
      <g transform="translate(79.194127 404.638438) scale(0.1 -0.1)">
       <defs>
        <path id="DejaVuSans-30" d="M 2034 4250 
Q 1547 4250 1301 3770 
Q 1056 3291 1056 2328 
Q 1056 1369 1301 889 
Q 1547 409 2034 409 
Q 2525 409 2770 889 
Q 3016 1369 3016 2328 
Q 3016 3291 2770 3770 
Q 2525 4250 2034 4250 
z
M 2034 4750 
Q 2819 4750 3233 4129 
Q 3647 3509 3647 2328 
Q 3647 1150 3233 529 
Q 2819 -91 2034 -91 
Q 1250 -91 836 529 
Q 422 1150 422 2328 
Q 422 3509 836 4129 
Q 1250 4750 2034 4750 
z
" transform="scale(0.015625)"/>
       </defs>
       <use xlink:href="#DejaVuSans-30"/>
      </g>
     </g>
    </g>
    <g id="xtick_2">
     <g id="line2d_3">
      <path d="M 223.517127 390.04 
L 223.517127 10.8 
" clip-path="url(#pcbefd71c53)" style="fill: none; stroke: #b0b0b0; stroke-width: 0.8; stroke-linecap: square"/>
     </g>
     <g id="line2d_4">
      <g>
       <use xlink:href="#m614e6fe35e" x="223.517127" y="390.04" style="stroke: #000000; stroke-width: 0.8"/>
      </g>
     </g>
     <g id="text_2">
      <!-- 10000 -->
      <g transform="translate(207.610877 404.638438) scale(0.1 -0.1)">
       <defs>
        <path id="DejaVuSans-31" d="M 794 531 
L 1825 531 
L 1825 4091 
L 703 3866 
L 703 4441 
L 1819 4666 
L 2450 4666 
L 2450 531 
L 3481 531 
L 3481 0 
L 794 0 
L 794 531 
z
" transform="scale(0.015625)"/>
       </defs>
       <use xlink:href="#DejaVuSans-31"/>
       <use xlink:href="#DejaVuSans-30" transform="translate(63.623047 0)"/>
       <use xlink:href="#DejaVuSans-30" transform="translate(127.246094 0)"/>
       <use xlink:href="#DejaVuSans-30" transform="translate(190.869141 0)"/>
       <use xlink:href="#DejaVuSans-30" transform="translate(254.492188 0)"/>
      </g>
     </g>
    </g>
    <g id="xtick_3">
     <g id="line2d_5">
      <path d="M 364.658876 390.04 
L 364.658876 10.8 
" clip-path="url(#pcbefd71c53)" style="fill: none; stroke: #b0b0b0; stroke-width: 0.8; stroke-linecap: square"/>
     </g>
     <g id="line2d_6">
      <g>
       <use xlink:href="#m614e6fe35e" x="364.658876" y="390.04" style="stroke: #000000; stroke-width: 0.8"/>
      </g>
     </g>
     <g id="text_3">
      <!-- 20000 -->
      <g transform="translate(348.752626 404.638438) scale(0.1 -0.1)">
       <defs>
        <path id="DejaVuSans-32" d="M 1228 531 
L 3431 531 
L 3431 0 
L 469 0 
L 469 531 
Q 828 903 1448 1529 
Q 2069 2156 2228 2338 
Q 2531 2678 2651 2914 
Q 2772 3150 2772 3378 
Q 2772 3750 2511 3984 
Q 2250 4219 1831 4219 
Q 1534 4219 1204 4116 
Q 875 4013 500 3803 
L 500 4441 
Q 881 4594 1212 4672 
Q 1544 4750 1819 4750 
Q 2544 4750 2975 4387 
Q 3406 4025 3406 3419 
Q 3406 3131 3298 2873 
Q 3191 2616 2906 2266 
Q 2828 2175 2409 1742 
Q 1991 1309 1228 531 
z
" transform="scale(0.015625)"/>
       </defs>
       <use xlink:href="#DejaVuSans-32"/>
       <use xlink:href="#DejaVuSans-30" transform="translate(63.623047 0)"/>
       <use xlink:href="#DejaVuSans-30" transform="translate(127.246094 0)"/>
       <use xlink:href="#DejaVuSans-30" transform="translate(190.869141 0)"/>
       <use xlink:href="#DejaVuSans-30" transform="translate(254.492188 0)"/>
      </g>
     </g>
    </g>
    <g id="xtick_4">
     <g id="line2d_7">
      <path d="M 505.800625 390.04 
L 505.800625 10.8 
" clip-path="url(#pcbefd71c53)" style="fill: none; stroke: #b0b0b0; stroke-width: 0.8; stroke-linecap: square"/>
     </g>
     <g id="line2d_8">
      <g>
       <use xlink:href="#m614e6fe35e" x="505.800625" y="390.04" style="stroke: #000000; stroke-width: 0.8"/>
      </g>
     </g>
     <g id="text_4">
      <!-- 30000 -->
      <g transform="translate(489.894375 404.638438) scale(0.1 -0.1)">
       <defs>
        <path id="DejaVuSans-33" d="M 2597 2516 
Q 3050 2419 3304 2112 
Q 3559 1806 3559 1356 
Q 3559 666 3084 287 
Q 2609 -91 1734 -91 
Q 1441 -91 1130 -33 
Q 819 25 488 141 
L 488 750 
Q 750 597 1062 519 
Q 1375 441 1716 441 
Q 2309 441 2620 675 
Q 2931 909 2931 1356 
Q 2931 1769 2642 2001 
Q 2353 2234 1838 2234 
L 1294 2234 
L 1294 2753 
L 1863 2753 
Q 2328 2753 2575 2939 
Q 2822 3125 2822 3475 
Q 2822 3834 2567 4026 
Q 2313 4219 1838 4219 
Q 1578 4219 1281 4162 
Q 984 4106 628 3988 
L 628 4550 
Q 988 4650 1302 4700 
Q 1616 4750 1894 4750 
Q 2613 4750 3031 4423 
Q 3450 4097 3450 3541 
Q 3450 3153 3228 2886 
Q 3006 2619 2597 2516 
z
" transform="scale(0.015625)"/>
       </defs>
       <use xlink:href="#DejaVuSans-33"/>
       <use xlink:href="#DejaVuSans-30" transform="translate(63.623047 0)"/>
       <use xlink:href="#DejaVuSans-30" transform="translate(127.246094 0)"/>
       <use xlink:href="#DejaVuSans-30" transform="translate(190.869141 0)"/>
       <use xlink:href="#DejaVuSans-30" transform="translate(254.492188 0)"/>
      </g>
     </g>
    </g>
    <g id="xtick_5">
     <g id="line2d_9">
      <path d="M 646.942374 390.04 
L 646.942374 10.8 
" clip-path="url(#pcbefd71c53)" style="fill: none; stroke: #b0b0b0; stroke-width: 0.8; stroke-linecap: square"/>
     </g>
     <g id="line2d_10">
      <g>
       <use xlink:href="#m614e6fe35e" x="646.942374" y="390.04" style="stroke: #000000; stroke-width: 0.8"/>
      </g>
     </g>
     <g id="text_5">
      <!-- 40000 -->
      <g transform="translate(631.036124 404.638438) scale(0.1 -0.1)">
       <defs>
        <path id="DejaVuSans-34" d="M 2419 4116 
L 825 1625 
L 2419 1625 
L 2419 4116 
z
M 2253 4666 
L 3047 4666 
L 3047 1625 
L 3713 1625 
L 3713 1100 
L 3047 1100 
L 3047 0 
L 2419 0 
L 2419 1100 
L 313 1100 
L 313 1709 
L 2253 4666 
z
" transform="scale(0.015625)"/>
       </defs>
       <use xlink:href="#DejaVuSans-34"/>
       <use xlink:href="#DejaVuSans-30" transform="translate(63.623047 0)"/>
       <use xlink:href="#DejaVuSans-30" transform="translate(127.246094 0)"/>
       <use xlink:href="#DejaVuSans-30" transform="translate(190.869141 0)"/>
       <use xlink:href="#DejaVuSans-30" transform="translate(254.492188 0)"/>
      </g>
     </g>
    </g>
    <g id="text_6">
     <!-- Episodes -->
     <g transform="translate(359.367813 418.316562) scale(0.1 -0.1)">
      <defs>
       <path id="DejaVuSans-45" d="M 628 4666 
L 3578 4666 
L 3578 4134 
L 1259 4134 
L 1259 2753 
L 3481 2753 
L 3481 2222 
L 1259 2222 
L 1259 531 
L 3634 531 
L 3634 0 
L 628 0 
L 628 4666 
z
" transform="scale(0.015625)"/>
       <path id="DejaVuSans-70" d="M 1159 525 
L 1159 -1331 
L 581 -1331 
L 581 3500 
L 1159 3500 
L 1159 2969 
Q 1341 3281 1617 3432 
Q 1894 3584 2278 3584 
Q 2916 3584 3314 3078 
Q 3713 2572 3713 1747 
Q 3713 922 3314 415 
Q 2916 -91 2278 -91 
Q 1894 -91 1617 61 
Q 1341 213 1159 525 
z
M 3116 1747 
Q 3116 2381 2855 2742 
Q 2594 3103 2138 3103 
Q 1681 3103 1420 2742 
Q 1159 2381 1159 1747 
Q 1159 1113 1420 752 
Q 1681 391 2138 391 
Q 2594 391 2855 752 
Q 3116 1113 3116 1747 
z
" transform="scale(0.015625)"/>
       <path id="DejaVuSans-69" d="M 603 3500 
L 1178 3500 
L 1178 0 
L 603 0 
L 603 3500 
z
M 603 4863 
L 1178 4863 
L 1178 4134 
L 603 4134 
L 603 4863 
z
" transform="scale(0.015625)"/>
       <path id="DejaVuSans-73" d="M 2834 3397 
L 2834 2853 
Q 2591 2978 2328 3040 
Q 2066 3103 1784 3103 
Q 1356 3103 1142 2972 
Q 928 2841 928 2578 
Q 928 2378 1081 2264 
Q 1234 2150 1697 2047 
L 1894 2003 
Q 2506 1872 2764 1633 
Q 3022 1394 3022 966 
Q 3022 478 2636 193 
Q 2250 -91 1575 -91 
Q 1294 -91 989 -36 
Q 684 19 347 128 
L 347 722 
Q 666 556 975 473 
Q 1284 391 1588 391 
Q 1994 391 2212 530 
Q 2431 669 2431 922 
Q 2431 1156 2273 1281 
Q 2116 1406 1581 1522 
L 1381 1569 
Q 847 1681 609 1914 
Q 372 2147 372 2553 
Q 372 3047 722 3315 
Q 1072 3584 1716 3584 
Q 2034 3584 2315 3537 
Q 2597 3491 2834 3397 
z
" transform="scale(0.015625)"/>
       <path id="DejaVuSans-6f" d="M 1959 3097 
Q 1497 3097 1228 2736 
Q 959 2375 959 1747 
Q 959 1119 1226 758 
Q 1494 397 1959 397 
Q 2419 397 2687 759 
Q 2956 1122 2956 1747 
Q 2956 2369 2687 2733 
Q 2419 3097 1959 3097 
z
M 1959 3584 
Q 2709 3584 3137 3096 
Q 3566 2609 3566 1747 
Q 3566 888 3137 398 
Q 2709 -91 1959 -91 
Q 1206 -91 779 398 
Q 353 888 353 1747 
Q 353 2609 779 3096 
Q 1206 3584 1959 3584 
z
" transform="scale(0.015625)"/>
       <path id="DejaVuSans-64" d="M 2906 2969 
L 2906 4863 
L 3481 4863 
L 3481 0 
L 2906 0 
L 2906 525 
Q 2725 213 2448 61 
Q 2172 -91 1784 -91 
Q 1150 -91 751 415 
Q 353 922 353 1747 
Q 353 2572 751 3078 
Q 1150 3584 1784 3584 
Q 2172 3584 2448 3432 
Q 2725 3281 2906 2969 
z
M 947 1747 
Q 947 1113 1208 752 
Q 1469 391 1925 391 
Q 2381 391 2643 752 
Q 2906 1113 2906 1747 
Q 2906 2381 2643 2742 
Q 2381 3103 1925 3103 
Q 1469 3103 1208 2742 
Q 947 2381 947 1747 
z
" transform="scale(0.015625)"/>
       <path id="DejaVuSans-65" d="M 3597 1894 
L 3597 1613 
L 953 1613 
Q 991 1019 1311 708 
Q 1631 397 2203 397 
Q 2534 397 2845 478 
Q 3156 559 3463 722 
L 3463 178 
Q 3153 47 2828 -22 
Q 2503 -91 2169 -91 
Q 1331 -91 842 396 
Q 353 884 353 1716 
Q 353 2575 817 3079 
Q 1281 3584 2069 3584 
Q 2775 3584 3186 3129 
Q 3597 2675 3597 1894 
z
M 3022 2063 
Q 3016 2534 2758 2815 
Q 2500 3097 2075 3097 
Q 1594 3097 1305 2825 
Q 1016 2553 972 2059 
L 3022 2063 
z
" transform="scale(0.015625)"/>
      </defs>
      <use xlink:href="#DejaVuSans-45"/>
      <use xlink:href="#DejaVuSans-70" transform="translate(63.183594 0)"/>
      <use xlink:href="#DejaVuSans-69" transform="translate(126.660156 0)"/>
      <use xlink:href="#DejaVuSans-73" transform="translate(154.443359 0)"/>
      <use xlink:href="#DejaVuSans-6f" transform="translate(206.542969 0)"/>
      <use xlink:href="#DejaVuSans-64" transform="translate(267.724609 0)"/>
      <use xlink:href="#DejaVuSans-65" transform="translate(331.201172 0)"/>
      <use xlink:href="#DejaVuSans-73" transform="translate(392.724609 0)"/>
     </g>
    </g>
   </g>
   <g id="matplotlib.axis_2">
    <g id="ytick_1">
     <g id="line2d_11">
      <path d="M 54.02 339.254462 
L 709.2 339.254462 
" clip-path="url(#pcbefd71c53)" style="fill: none; stroke: #b0b0b0; stroke-width: 0.8; stroke-linecap: square"/>
     </g>
     <g id="line2d_12">
      <defs>
       <path id="ma7f9ce5e80" d="M 0 0 
L -3.5 0 
" style="stroke: #000000; stroke-width: 0.8"/>
      </defs>
      <g>
       <use xlink:href="#ma7f9ce5e80" x="54.02" y="339.254462" style="stroke: #000000; stroke-width: 0.8"/>
      </g>
     </g>
     <g id="text_7">
      <!-- 0.40 -->
      <g transform="translate(24.754375 343.053681) scale(0.1 -0.1)">
       <defs>
        <path id="DejaVuSans-2e" d="M 684 794 
L 1344 794 
L 1344 0 
L 684 0 
L 684 794 
z
" transform="scale(0.015625)"/>
       </defs>
       <use xlink:href="#DejaVuSans-30"/>
       <use xlink:href="#DejaVuSans-2e" transform="translate(63.623047 0)"/>
       <use xlink:href="#DejaVuSans-34" transform="translate(95.410156 0)"/>
       <use xlink:href="#DejaVuSans-30" transform="translate(159.033203 0)"/>
      </g>
     </g>
    </g>
    <g id="ytick_2">
     <g id="line2d_13">
      <path d="M 54.02 284.090518 
L 709.2 284.090518 
" clip-path="url(#pcbefd71c53)" style="fill: none; stroke: #b0b0b0; stroke-width: 0.8; stroke-linecap: square"/>
     </g>
     <g id="line2d_14">
      <g>
       <use xlink:href="#ma7f9ce5e80" x="54.02" y="284.090518" style="stroke: #000000; stroke-width: 0.8"/>
      </g>
     </g>
     <g id="text_8">
      <!-- 0.45 -->
      <g transform="translate(24.754375 287.889737) scale(0.1 -0.1)">
       <defs>
        <path id="DejaVuSans-35" d="M 691 4666 
L 3169 4666 
L 3169 4134 
L 1269 4134 
L 1269 2991 
Q 1406 3038 1543 3061 
Q 1681 3084 1819 3084 
Q 2600 3084 3056 2656 
Q 3513 2228 3513 1497 
Q 3513 744 3044 326 
Q 2575 -91 1722 -91 
Q 1428 -91 1123 -41 
Q 819 9 494 109 
L 494 744 
Q 775 591 1075 516 
Q 1375 441 1709 441 
Q 2250 441 2565 725 
Q 2881 1009 2881 1497 
Q 2881 1984 2565 2268 
Q 2250 2553 1709 2553 
Q 1456 2553 1204 2497 
Q 953 2441 691 2322 
L 691 4666 
z
" transform="scale(0.015625)"/>
       </defs>
       <use xlink:href="#DejaVuSans-30"/>
       <use xlink:href="#DejaVuSans-2e" transform="translate(63.623047 0)"/>
       <use xlink:href="#DejaVuSans-34" transform="translate(95.410156 0)"/>
       <use xlink:href="#DejaVuSans-35" transform="translate(159.033203 0)"/>
      </g>
     </g>
    </g>
    <g id="ytick_3">
     <g id="line2d_15">
      <path d="M 54.02 228.926574 
L 709.2 228.926574 
" clip-path="url(#pcbefd71c53)" style="fill: none; stroke: #b0b0b0; stroke-width: 0.8; stroke-linecap: square"/>
     </g>
     <g id="line2d_16">
      <g>
       <use xlink:href="#ma7f9ce5e80" x="54.02" y="228.926574" style="stroke: #000000; stroke-width: 0.8"/>
      </g>
     </g>
     <g id="text_9">
      <!-- 0.50 -->
      <g transform="translate(24.754375 232.725793) scale(0.1 -0.1)">
       <use xlink:href="#DejaVuSans-30"/>
       <use xlink:href="#DejaVuSans-2e" transform="translate(63.623047 0)"/>
       <use xlink:href="#DejaVuSans-35" transform="translate(95.410156 0)"/>
       <use xlink:href="#DejaVuSans-30" transform="translate(159.033203 0)"/>
      </g>
     </g>
    </g>
    <g id="ytick_4">
     <g id="line2d_17">
      <path d="M 54.02 173.76263 
L 709.2 173.76263 
" clip-path="url(#pcbefd71c53)" style="fill: none; stroke: #b0b0b0; stroke-width: 0.8; stroke-linecap: square"/>
     </g>
     <g id="line2d_18">
      <g>
       <use xlink:href="#ma7f9ce5e80" x="54.02" y="173.76263" style="stroke: #000000; stroke-width: 0.8"/>
      </g>
     </g>
     <g id="text_10">
      <!-- 0.55 -->
      <g transform="translate(24.754375 177.561849) scale(0.1 -0.1)">
       <use xlink:href="#DejaVuSans-30"/>
       <use xlink:href="#DejaVuSans-2e" transform="translate(63.623047 0)"/>
       <use xlink:href="#DejaVuSans-35" transform="translate(95.410156 0)"/>
       <use xlink:href="#DejaVuSans-35" transform="translate(159.033203 0)"/>
      </g>
     </g>
    </g>
    <g id="ytick_5">
     <g id="line2d_19">
      <path d="M 54.02 118.598686 
L 709.2 118.598686 
" clip-path="url(#pcbefd71c53)" style="fill: none; stroke: #b0b0b0; stroke-width: 0.8; stroke-linecap: square"/>
     </g>
     <g id="line2d_20">
      <g>
       <use xlink:href="#ma7f9ce5e80" x="54.02" y="118.598686" style="stroke: #000000; stroke-width: 0.8"/>
      </g>
     </g>
     <g id="text_11">
      <!-- 0.60 -->
      <g transform="translate(24.754375 122.397905) scale(0.1 -0.1)">
       <defs>
        <path id="DejaVuSans-36" d="M 2113 2584 
Q 1688 2584 1439 2293 
Q 1191 2003 1191 1497 
Q 1191 994 1439 701 
Q 1688 409 2113 409 
Q 2538 409 2786 701 
Q 3034 994 3034 1497 
Q 3034 2003 2786 2293 
Q 2538 2584 2113 2584 
z
M 3366 4563 
L 3366 3988 
Q 3128 4100 2886 4159 
Q 2644 4219 2406 4219 
Q 1781 4219 1451 3797 
Q 1122 3375 1075 2522 
Q 1259 2794 1537 2939 
Q 1816 3084 2150 3084 
Q 2853 3084 3261 2657 
Q 3669 2231 3669 1497 
Q 3669 778 3244 343 
Q 2819 -91 2113 -91 
Q 1303 -91 875 529 
Q 447 1150 447 2328 
Q 447 3434 972 4092 
Q 1497 4750 2381 4750 
Q 2619 4750 2861 4703 
Q 3103 4656 3366 4563 
z
" transform="scale(0.015625)"/>
       </defs>
       <use xlink:href="#DejaVuSans-30"/>
       <use xlink:href="#DejaVuSans-2e" transform="translate(63.623047 0)"/>
       <use xlink:href="#DejaVuSans-36" transform="translate(95.410156 0)"/>
       <use xlink:href="#DejaVuSans-30" transform="translate(159.033203 0)"/>
      </g>
     </g>
    </g>
    <g id="ytick_6">
     <g id="line2d_21">
      <path d="M 54.02 63.434742 
L 709.2 63.434742 
" clip-path="url(#pcbefd71c53)" style="fill: none; stroke: #b0b0b0; stroke-width: 0.8; stroke-linecap: square"/>
     </g>
     <g id="line2d_22">
      <g>
       <use xlink:href="#ma7f9ce5e80" x="54.02" y="63.434742" style="stroke: #000000; stroke-width: 0.8"/>
      </g>
     </g>
     <g id="text_12">
      <!-- 0.65 -->
      <g transform="translate(24.754375 67.233961) scale(0.1 -0.1)">
       <use xlink:href="#DejaVuSans-30"/>
       <use xlink:href="#DejaVuSans-2e" transform="translate(63.623047 0)"/>
       <use xlink:href="#DejaVuSans-36" transform="translate(95.410156 0)"/>
       <use xlink:href="#DejaVuSans-35" transform="translate(159.033203 0)"/>
      </g>
     </g>
    </g>
    <g id="text_13">
     <!-- Accuracy on Test -->
     <g transform="translate(18.674688 242.499688) rotate(-90) scale(0.1 -0.1)">
      <defs>
       <path id="DejaVuSans-41" d="M 2188 4044 
L 1331 1722 
L 3047 1722 
L 2188 4044 
z
M 1831 4666 
L 2547 4666 
L 4325 0 
L 3669 0 
L 3244 1197 
L 1141 1197 
L 716 0 
L 50 0 
L 1831 4666 
z
" transform="scale(0.015625)"/>
       <path id="DejaVuSans-63" d="M 3122 3366 
L 3122 2828 
Q 2878 2963 2633 3030 
Q 2388 3097 2138 3097 
Q 1578 3097 1268 2742 
Q 959 2388 959 1747 
Q 959 1106 1268 751 
Q 1578 397 2138 397 
Q 2388 397 2633 464 
Q 2878 531 3122 666 
L 3122 134 
Q 2881 22 2623 -34 
Q 2366 -91 2075 -91 
Q 1284 -91 818 406 
Q 353 903 353 1747 
Q 353 2603 823 3093 
Q 1294 3584 2113 3584 
Q 2378 3584 2631 3529 
Q 2884 3475 3122 3366 
z
" transform="scale(0.015625)"/>
       <path id="DejaVuSans-75" d="M 544 1381 
L 544 3500 
L 1119 3500 
L 1119 1403 
Q 1119 906 1312 657 
Q 1506 409 1894 409 
Q 2359 409 2629 706 
Q 2900 1003 2900 1516 
L 2900 3500 
L 3475 3500 
L 3475 0 
L 2900 0 
L 2900 538 
Q 2691 219 2414 64 
Q 2138 -91 1772 -91 
Q 1169 -91 856 284 
Q 544 659 544 1381 
z
M 1991 3584 
L 1991 3584 
z
" transform="scale(0.015625)"/>
       <path id="DejaVuSans-72" d="M 2631 2963 
Q 2534 3019 2420 3045 
Q 2306 3072 2169 3072 
Q 1681 3072 1420 2755 
Q 1159 2438 1159 1844 
L 1159 0 
L 581 0 
L 581 3500 
L 1159 3500 
L 1159 2956 
Q 1341 3275 1631 3429 
Q 1922 3584 2338 3584 
Q 2397 3584 2469 3576 
Q 2541 3569 2628 3553 
L 2631 2963 
z
" transform="scale(0.015625)"/>
       <path id="DejaVuSans-61" d="M 2194 1759 
Q 1497 1759 1228 1600 
Q 959 1441 959 1056 
Q 959 750 1161 570 
Q 1363 391 1709 391 
Q 2188 391 2477 730 
Q 2766 1069 2766 1631 
L 2766 1759 
L 2194 1759 
z
M 3341 1997 
L 3341 0 
L 2766 0 
L 2766 531 
Q 2569 213 2275 61 
Q 1981 -91 1556 -91 
Q 1019 -91 701 211 
Q 384 513 384 1019 
Q 384 1609 779 1909 
Q 1175 2209 1959 2209 
L 2766 2209 
L 2766 2266 
Q 2766 2663 2505 2880 
Q 2244 3097 1772 3097 
Q 1472 3097 1187 3025 
Q 903 2953 641 2809 
L 641 3341 
Q 956 3463 1253 3523 
Q 1550 3584 1831 3584 
Q 2591 3584 2966 3190 
Q 3341 2797 3341 1997 
z
" transform="scale(0.015625)"/>
       <path id="DejaVuSans-79" d="M 2059 -325 
Q 1816 -950 1584 -1140 
Q 1353 -1331 966 -1331 
L 506 -1331 
L 506 -850 
L 844 -850 
Q 1081 -850 1212 -737 
Q 1344 -625 1503 -206 
L 1606 56 
L 191 3500 
L 800 3500 
L 1894 763 
L 2988 3500 
L 3597 3500 
L 2059 -325 
z
" transform="scale(0.015625)"/>
       <path id="DejaVuSans-20" transform="scale(0.015625)"/>
       <path id="DejaVuSans-6e" d="M 3513 2113 
L 3513 0 
L 2938 0 
L 2938 2094 
Q 2938 2591 2744 2837 
Q 2550 3084 2163 3084 
Q 1697 3084 1428 2787 
Q 1159 2491 1159 1978 
L 1159 0 
L 581 0 
L 581 3500 
L 1159 3500 
L 1159 2956 
Q 1366 3272 1645 3428 
Q 1925 3584 2291 3584 
Q 2894 3584 3203 3211 
Q 3513 2838 3513 2113 
z
" transform="scale(0.015625)"/>
       <path id="DejaVuSans-54" d="M -19 4666 
L 3928 4666 
L 3928 4134 
L 2272 4134 
L 2272 0 
L 1638 0 
L 1638 4134 
L -19 4134 
L -19 4666 
z
" transform="scale(0.015625)"/>
       <path id="DejaVuSans-74" d="M 1172 4494 
L 1172 3500 
L 2356 3500 
L 2356 3053 
L 1172 3053 
L 1172 1153 
Q 1172 725 1289 603 
Q 1406 481 1766 481 
L 2356 481 
L 2356 0 
L 1766 0 
Q 1100 0 847 248 
Q 594 497 594 1153 
L 594 3053 
L 172 3053 
L 172 3500 
L 594 3500 
L 594 4494 
L 1172 4494 
z
" transform="scale(0.015625)"/>
      </defs>
      <use xlink:href="#DejaVuSans-41"/>
      <use xlink:href="#DejaVuSans-63" transform="translate(66.658203 0)"/>
      <use xlink:href="#DejaVuSans-63" transform="translate(121.638672 0)"/>
      <use xlink:href="#DejaVuSans-75" transform="translate(176.619141 0)"/>
      <use xlink:href="#DejaVuSans-72" transform="translate(239.998047 0)"/>
      <use xlink:href="#DejaVuSans-61" transform="translate(281.111328 0)"/>
      <use xlink:href="#DejaVuSans-63" transform="translate(342.390625 0)"/>
      <use xlink:href="#DejaVuSans-79" transform="translate(397.371094 0)"/>
      <use xlink:href="#DejaVuSans-20" transform="translate(456.550781 0)"/>
      <use xlink:href="#DejaVuSans-6f" transform="translate(488.337891 0)"/>
      <use xlink:href="#DejaVuSans-6e" transform="translate(549.519531 0)"/>
      <use xlink:href="#DejaVuSans-20" transform="translate(612.898438 0)"/>
      <use xlink:href="#DejaVuSans-54" transform="translate(644.685547 0)"/>
      <use xlink:href="#DejaVuSans-65" transform="translate(688.769531 0)"/>
      <use xlink:href="#DejaVuSans-73" transform="translate(750.292969 0)"/>
      <use xlink:href="#DejaVuSans-74" transform="translate(802.392578 0)"/>
     </g>
    </g>
   </g>
   <g id="line2d_23">
    <path d="M 83.800909 211.396684 
L 86.623744 208.33202 
L 89.446579 204.000629 
L 92.269414 197.258369 
L 95.092249 213.317206 
L 97.915084 202.652176 
L 100.737919 204.000629 
L 103.560754 202.774763 
L 106.383589 194.111981 
L 109.206424 199.750962 
L 112.029259 214.869969 
L 114.852094 194.357154 
L 117.674929 204.695286 
L 120.497764 188.554724 
L 123.320599 187.16541 
L 126.143434 197.340093 
L 128.966269 196.72716 
L 131.789104 199.015442 
L 134.611939 203.019936 
L 137.434774 197.29923 
L 140.257609 212.295652 
L 143.080444 205.962013 
L 145.903279 198.933718 
L 148.726114 203.632869 
L 151.548949 212.377375 
L 154.371784 186.143855 
L 157.194619 210.375129 
L 160.017454 201.058551 
L 162.840289 202.407003 
L 165.663124 193.417324 
L 168.485959 207.637363 
L 171.308794 192.763528 
L 174.131629 206.860981 
L 176.954464 212.4591 
L 179.777299 208.33202 
L 182.600134 216.994802 
L 185.422969 190.92473 
L 188.245804 205.757703 
L 191.068639 204.981321 
L 193.891474 211.110648 
L 196.714308 202.039244 
L 199.537143 209.190126 
L 202.359978 198.443372 
L 205.182813 198.116474 
L 208.005648 188.759035 
L 210.828483 192.23232 
L 213.651318 203.796317 
L 219.296988 195.909917 
L 222.119823 208.127709 
L 224.942658 209.312713 
L 227.765493 199.546651 
L 230.588328 192.640942 
L 233.411163 197.871301 
L 236.233998 208.577193 
L 239.056833 203.265109 
L 241.879668 204.654424 
L 244.702503 191.292491 
L 247.525338 187.655756 
L 250.348173 197.503542 
L 253.171008 186.102993 
L 255.993843 202.407003 
L 258.816678 207.759949 
L 261.639513 206.534084 
L 264.462348 181.812464 
L 267.285183 199.178891 
L 270.108018 201.548897 
L 272.930853 199.750962 
L 275.753688 195.010949 
L 278.576523 205.267357 
L 281.399358 196.72716 
L 284.222193 182.30281 
L 287.045028 204.613561 
L 292.690698 196.645436 
L 295.513533 191.987147 
L 298.336368 189.085932 
L 301.159203 196.972333 
L 303.982038 201.630622 
L 306.804873 193.458186 
L 309.627708 193.253875 
L 312.450543 181.36298 
L 315.273378 205.308218 
L 318.096213 203.183385 
L 320.919048 200.85424 
L 323.741883 217.444287 
L 326.564718 200.813379 
L 329.387553 203.755456 
L 332.210388 207.882535 
L 335.033223 196.808885 
L 337.856058 204.450113 
L 340.678893 207.187879 
L 343.501728 211.927892 
L 346.324563 214.134449 
L 349.147398 199.750961 
L 351.970233 205.349081 
L 354.793068 214.788245 
L 357.615903 201.181138 
L 360.438738 196.441125 
L 363.261573 207.024431 
L 366.084408 197.789577 
L 368.907243 187.247134 
L 371.730078 192.926977 
L 374.552913 203.060799 
L 377.375748 214.379622 
L 380.198583 211.478408 
L 383.021417 204.368388 
L 385.844252 202.243554 
L 388.667087 208.618055 
L 391.489922 192.886115 
L 394.312757 213.439792 
L 397.135592 214.747382 
L 399.958427 229.948114 
L 402.781262 210.048232 
L 405.604097 210.170818 
L 408.426932 200.527343 
L 411.249767 179.156422 
L 414.072602 209.190125 
L 416.895437 202.284417 
L 419.718272 208.495469 
L 422.541107 206.452359 
L 425.363942 185.163163 
L 428.186777 213.235482 
L 431.009612 196.236815 
L 433.832447 206.738395 
L 436.655282 200.28217 
L 439.478117 197.217506 
L 442.300952 219.487395 
L 445.123787 210.21168 
L 447.946622 194.357154 
L 450.769457 203.019936 
L 453.592292 210.375129 
L 456.415127 200.363894 
L 459.237962 186.266442 
L 464.883632 210.21168 
L 467.706467 212.704274 
L 470.529302 195.41957 
L 473.352137 200.486481 
L 476.174972 221.162744 
L 478.997807 205.635116 
L 481.820642 212.622549 
L 484.643477 204.164078 
L 487.466312 209.230988 
L 490.289147 199.015443 
L 493.111982 210.415991 
L 495.934817 204.736148 
L 498.757652 212.254789 
L 501.580487 204.654424 
L 504.403322 207.637363 
L 507.226157 203.632869 
L 510.048992 208.086847 
L 512.871827 188.064378 
L 515.694662 186.79765 
L 518.517497 200.895102 
L 521.340332 202.693039 
L 524.163167 213.112895 
L 526.986002 196.563711 
L 529.808837 200.200446 
L 532.631672 196.522849 
L 535.454507 207.719087 
L 538.277342 205.839427 
L 541.100177 209.353574 
L 543.923012 208.250296 
L 546.745847 212.499962 
L 549.568682 206.738394 
L 552.391517 184.631955 
L 555.214352 206.534084 
L 558.037187 200.64993 
L 560.860022 211.764443 
L 563.682857 193.008702 
L 566.505692 190.189212 
L 569.328526 200.036997 
L 572.151361 211.723581 
L 574.974196 217.076526 
L 577.797031 215.237729 
L 580.619866 198.484234 
L 583.442701 201.344587 
L 586.265536 203.224247 
L 589.088371 204.77701 
L 591.911206 205.553391 
L 594.734041 211.437545 
L 597.556876 191.210766 
L 600.379711 205.594254 
L 603.202546 200.568206 
L 606.025381 196.72716 
L 608.848216 185.28575 
L 611.671051 190.516109 
L 614.493886 199.7101 
L 617.316721 190.597833 
L 620.139556 201.222 
L 622.962391 197.013196 
L 625.785226 188.677311 
L 628.608061 208.822366 
L 631.430896 210.783751 
L 634.253731 203.551144 
L 639.899401 183.242641 
L 642.722236 212.990308 
L 645.545071 208.781504 
L 648.367906 199.383203 
L 651.190741 192.068872 
L 654.013576 201.671484 
L 656.836411 207.228741 
L 659.659246 181.526429 
L 662.482081 196.114228 
L 665.304916 189.249381 
L 668.127751 194.888362 
L 670.950586 203.346833 
L 673.773421 208.454606 
L 676.596256 186.920237 
L 679.419091 207.106154 
L 679.419091 207.106154 
" clip-path="url(#pcbefd71c53)" style="fill: none; stroke: #1f77b4; stroke-width: 1.5; stroke-linecap: square"/>
   </g>
   <g id="patch_3">
    <path d="M 54.02 390.04 
L 54.02 10.8 
" style="fill: none; stroke: #000000; stroke-width: 0.8; stroke-linejoin: miter; stroke-linecap: square"/>
   </g>
   <g id="patch_4">
    <path d="M 709.2 390.04 
L 709.2 10.8 
" style="fill: none; stroke: #000000; stroke-width: 0.8; stroke-linejoin: miter; stroke-linecap: square"/>
   </g>
   <g id="patch_5">
    <path d="M 54.02 390.04 
L 709.2 390.04 
" style="fill: none; stroke: #000000; stroke-width: 0.8; stroke-linejoin: miter; stroke-linecap: square"/>
   </g>
   <g id="patch_6">
    <path d="M 54.02 10.8 
L 709.2 10.8 
" style="fill: none; stroke: #000000; stroke-width: 0.8; stroke-linejoin: miter; stroke-linecap: square"/>
   </g>
  </g>
 </g>
 <defs>
  <clipPath id="pcbefd71c53">
   <rect x="54.02" y="10.8" width="655.18" height="379.24"/>
  </clipPath>
 </defs>
</svg>
