<?xml version="1.0" encoding="utf-8" standalone="no"?>
<!DOCTYPE svg PUBLIC "-//W3C//DTD SVG 1.1//EN"
  "http://www.w3.org/Graphics/SVG/1.1/DTD/svg11.dtd">
<svg xmlns:xlink="http://www.w3.org/1999/xlink" width="720pt" height="432pt" viewBox="0 0 720 432" xmlns="http://www.w3.org/2000/svg" version="1.1">
 <metadata>
  <rdf:RDF xmlns:dc="http://purl.org/dc/elements/1.1/" xmlns:cc="http://creativecommons.org/ns#" xmlns:rdf="http://www.w3.org/1999/02/22-rdf-syntax-ns#">
   <cc:Work>
    <dc:type rdf:resource="http://purl.org/dc/dcmitype/StillImage"/>
    <dc:date>2025-04-16T01:07:04.476377</dc:date>
    <dc:format>image/svg+xml</dc:format>
    <dc:creator>
     <cc:Agent>
      <dc:title>Matplotlib v3.10.0, https://matplotlib.org/</dc:title>
     </cc:Agent>
    </dc:creator>
   </cc:Work>
  </rdf:RDF>
 </metadata>
 <defs>
  <style type="text/css">*{stroke-linejoin: round; stroke-linecap: butt}</style>
 </defs>
 <g id="figure_1">
  <g id="patch_1">
   <path d="M 0 432 
L 720 432 
L 720 0 
L 0 0 
z
" style="fill: #ffffff"/>
  </g>
  <g id="axes_1">
   <g id="patch_2">
    <path d="M 47.72 390.04 
L 709.2 390.04 
L 709.2 10.8 
L 47.72 10.8 
z
" style="fill: #ffffff"/>
   </g>
   <g id="FillBetweenPolyCollection_1">
    <defs>
     <path id="mfa409e05fb" d="M 77.787273 -313.452634 
L 77.787273 -87.901536 
L 83.866163 -134.762948 
L 89.773189 -155.038265 
L 95.686581 -174.674117 
L 101.479031 -194.103483 
L 107.233289 -211.852185 
L 112.974817 -232.04218 
L 118.499923 -277.580027 
L 123.706763 -324.808932 
L 128.417107 -354.60747 
L 132.618225 -368.800087 
L 136.628383 -392.27802 
L 140.651272 -394.161152 
L 144.57868 -393.198637 
L 148.442436 -397.100944 
L 152.331652 -399.04327 
L 156.24633 -399.731867 
L 160.116451 -399.520656 
L 163.948379 -402.09277 
L 167.773943 -400.702153 
L 171.624967 -396.97748 
L 175.4378 -401.994399 
L 179.276094 -403.174851 
L 183.108023 -403.863447 
L 186.933586 -403.273222 
L 190.778245 -402.289512 
L 194.597443 -401.305802 
L 198.423007 -400.322093 
L 202.280397 -402.584625 
L 206.10596 -403.765076 
L 209.925158 -402.289512 
L 213.757087 -403.666706 
L 217.601746 -402.289512 
L 221.446405 -394.223092 
L 225.284699 -403.863447 
L 229.110263 -399.535124 
L 232.942191 -402.781367 
L 236.77412 -400.715576 
L 240.593318 -402.486254 
L 244.437977 -403.765076 
L 248.257175 -403.961818 
L 252.076373 -402.191141 
L 255.901936 -403.961818 
L 259.708404 -403.666706 
L 263.527602 -403.863447 
L 267.353165 -403.863447 
L 271.165998 -401.994399 
L 274.97883 -398.05956 
L 278.791663 -403.568335 
L 282.629957 -403.961818 
L 286.449155 -402.387883 
L 290.274718 -403.863447 
L 294.093916 -402.486254 
L 297.913114 -403.765076 
L 301.745043 -403.174851 
L 305.570606 -403.765076 
L 309.389804 -400.813947 
L 313.221733 -403.961818 
L 317.072758 -402.879738 
L 320.930148 -403.666706 
L 324.755711 -403.666706 
L 328.574909 -403.371593 
L 332.394107 -403.469964 
L 336.213305 -403.666706 
L 340.032503 -402.387883 
L 343.851701 -403.469964 
L 347.670899 -403.863447 
L 351.509193 -403.174851 
L 355.328391 -403.666706 
L 359.153954 -403.765076 
L 362.973152 -403.273222 
L 366.79235 -402.387884 
L 370.611548 -399.92861 
L 374.443477 -393.829617 
L 378.262675 -386.804538 
L 382.075507 -383.880734 
L 385.901071 -385.074609 
L 389.720269 -384.345266 
L 393.533101 -384.582755 
L 397.339569 -384.165402 
L 401.152401 -384.599632 
L 404.965234 -384.386013 
L 408.778067 -381.299102 
L 412.756398 -383.059672 
L 416.664711 -384.698003 
L 420.541197 -382.977141 
L 424.513162 -381.339849 
L 428.389648 -383.837572 
L 432.234308 -378.662261 
L 436.2381 -383.272254 
L 440.171874 -382.76456 
L 444.188397 -382.76456 
L 448.198555 -384.287642 
L 452.068676 -383.272254 
L 455.989719 -382.76456 
L 459.898032 -382.76456 
L 463.768152 -375.445081 
L 467.68283 -379.77602 
L 471.572047 -380.832155 
L 475.416706 -375.149149 
L 479.248635 -380.733784 
L 483.080564 -380.22609 
L 486.906127 -383.370625 
L 490.725325 -383.779948 
L 494.544523 -384.287642 
L 498.363721 -384.287642 
L 502.182919 -383.779948 
L 506.002117 -384.287642 
L 509.82768 -383.272254 
L 513.646878 -383.272254 
L 517.466076 -380.084515 
L 520.674203 -378.501631 
L 523.43039 -376.912516 
L 526.091098 -375.454868 
L 528.751806 -376.644168 
L 531.355226 -376.62729 
L 533.92682 -376.25358 
L 536.485682 -376.321091 
L 539.044545 -376.779687 
L 541.590677 -378.450586 
L 544.143174 -378.990675 
L 546.689306 -379.395742 
L 549.235438 -379.446375 
L 551.78157 -379.497008 
L 554.327702 -379.513886 
L 556.8802 -379.446375 
L 559.426332 -379.497008 
L 561.972464 -379.497008 
L 564.518596 -379.513886 
L 567.064728 -379.513886 
L 569.617225 -379.480131 
L 572.163357 -379.513886 
L 574.709489 -379.513886 
L 577.255621 -379.513886 
L 579.801753 -379.513886 
L 582.347885 -379.513886 
L 584.894017 -379.513886 
L 587.440149 -379.497008 
L 589.992646 -379.497008 
L 592.545143 -379.513886 
L 595.091275 -379.446375 
L 597.637407 -379.513886 
L 600.183539 -379.513886 
L 602.729671 -379.513886 
L 605.275803 -379.513886 
L 607.821935 -379.513886 
L 610.368067 -379.513886 
L 612.914199 -379.497008 
L 615.460331 -379.497008 
L 618.006463 -379.513886 
L 620.552595 -379.513886 
L 623.098727 -379.513886 
L 625.644859 -379.513886 
L 628.190991 -379.513886 
L 630.737123 -379.513886 
L 633.289621 -379.480131 
L 635.835753 -379.497008 
L 638.381885 -379.513886 
L 640.928017 -379.513886 
L 643.474149 -379.497008 
L 646.020281 -379.513886 
L 648.566413 -379.513886 
L 651.112545 -379.513886 
L 653.658677 -379.513886 
L 656.204809 -379.513886 
L 658.750941 -379.513886 
L 661.297073 -379.218773 
L 663.855935 -379.497008 
L 666.402067 -379.513886 
L 668.948199 -379.513886 
L 671.494331 -379.513886 
L 674.040463 -379.513886 
L 676.586595 -379.513886 
L 679.132727 -379.513886 
L 679.132727 -379.513886 
L 679.132727 -379.513886 
L 676.586595 -379.513886 
L 674.040463 -379.513886 
L 671.494331 -379.513886 
L 668.948199 -379.513886 
L 666.402067 -379.513886 
L 663.855935 -379.612257 
L 661.297073 -379.56452 
L 658.750941 -379.513886 
L 656.204809 -379.513886 
L 653.658677 -379.513886 
L 651.112545 -379.513886 
L 648.566413 -379.513886 
L 646.020281 -379.513886 
L 643.474149 -379.612257 
L 640.928017 -379.513886 
L 638.381885 -379.513886 
L 635.835753 -379.612257 
L 633.289621 -379.710628 
L 630.737123 -379.513886 
L 628.190991 -379.513886 
L 625.644859 -379.513886 
L 623.098727 -379.513886 
L 620.552595 -379.513886 
L 618.006463 -379.513886 
L 615.460331 -379.612257 
L 612.914199 -379.612257 
L 610.368067 -379.513886 
L 607.821935 -379.513886 
L 605.275803 -379.513886 
L 602.729671 -379.513886 
L 600.183539 -379.513886 
L 597.637407 -379.513886 
L 595.091275 -379.90737 
L 592.545143 -379.513886 
L 589.992646 -379.612257 
L 587.440149 -379.612257 
L 584.894017 -379.513886 
L 582.347885 -379.513886 
L 579.801753 -379.513886 
L 577.255621 -379.513886 
L 574.709489 -379.513886 
L 572.163357 -379.513886 
L 569.617225 -379.710628 
L 567.064728 -379.513886 
L 564.518596 -379.513886 
L 561.972464 -379.612257 
L 559.426332 -379.612257 
L 556.8802 -379.90737 
L 554.327702 -379.513886 
L 551.78157 -379.612257 
L 549.235438 -379.90737 
L 546.689306 -380.202482 
L 544.143174 -382.563384 
L 541.590677 -385.711252 
L 539.044545 -395.449969 
L 536.485682 -398.67933 
L 533.92682 -399.072814 
L 531.355226 -399.677021 
L 528.751806 -399.57865 
L 526.091098 -399.953018 
L 523.43039 -399.962247 
L 520.674203 -401.551363 
L 517.466076 -403.961818 
L 513.646878 -403.961818 
L 509.82768 -403.961818 
L 506.002117 -403.961818 
L 502.182919 -403.961818 
L 498.363721 -403.961818 
L 494.544523 -403.961818 
L 490.725325 -403.961818 
L 486.906127 -403.961818 
L 483.080564 -403.961818 
L 479.248635 -403.961818 
L 475.416706 -403.961818 
L 471.572047 -403.961818 
L 467.68283 -403.961818 
L 463.768152 -403.961818 
L 459.898032 -403.961818 
L 455.989719 -403.961818 
L 452.068676 -403.961818 
L 448.198555 -403.961818 
L 444.188397 -403.961818 
L 440.171874 -403.961818 
L 436.2381 -403.961818 
L 432.234308 -403.961818 
L 428.389648 -403.961818 
L 424.513162 -403.961818 
L 420.541197 -403.961818 
L 416.664711 -403.961818 
L 412.756398 -403.961818 
L 408.778067 -403.961818 
L 404.965234 -403.961818 
L 401.152401 -403.961818 
L 397.339569 -403.961818 
L 393.533101 -403.961818 
L 389.720269 -403.961818 
L 385.901071 -403.961818 
L 382.075507 -403.961818 
L 378.262675 -403.961818 
L 374.443477 -403.961818 
L 370.611548 -403.961818 
L 366.79235 -403.961818 
L 362.973152 -403.961818 
L 359.153954 -403.961818 
L 355.328391 -403.961818 
L 351.509193 -403.961818 
L 347.670899 -403.961818 
L 343.851701 -403.961818 
L 340.032503 -403.961818 
L 336.213305 -403.961818 
L 332.394107 -403.961818 
L 328.574909 -403.961818 
L 324.755711 -403.961818 
L 320.930148 -403.961818 
L 317.072758 -403.961818 
L 313.221733 -403.961818 
L 309.389804 -403.961818 
L 305.570606 -403.961818 
L 301.745043 -403.961818 
L 297.913114 -403.961818 
L 294.093916 -403.961818 
L 290.274718 -403.961818 
L 286.449155 -403.961818 
L 282.629957 -403.961818 
L 278.791663 -403.961818 
L 274.97883 -403.961818 
L 271.165998 -403.961818 
L 267.353165 -403.961818 
L 263.527602 -403.961818 
L 259.708404 -403.961818 
L 255.901936 -403.961818 
L 252.076373 -403.961818 
L 248.257175 -403.961818 
L 244.437977 -403.961818 
L 240.593318 -403.961818 
L 236.77412 -403.961818 
L 232.942191 -403.961818 
L 229.110263 -403.961818 
L 225.284699 -403.961818 
L 221.446405 -403.961818 
L 217.601746 -403.961818 
L 213.757087 -403.961818 
L 209.925158 -403.961818 
L 206.10596 -403.961818 
L 202.280397 -403.961818 
L 198.423007 -403.961818 
L 194.597443 -403.961818 
L 190.778245 -403.961818 
L 186.933586 -403.961818 
L 183.108023 -403.961818 
L 179.276094 -403.961818 
L 175.4378 -403.961818 
L 171.624967 -403.961818 
L 167.773943 -403.961818 
L 163.948379 -403.961818 
L 160.116451 -403.961818 
L 156.24633 -403.961818 
L 152.331652 -403.961818 
L 148.442436 -403.961818 
L 144.57868 -403.961818 
L 140.651272 -403.961818 
L 136.628383 -403.961818 
L 132.618225 -403.961818 
L 128.417107 -403.961818 
L 123.706763 -403.961818 
L 118.499923 -399.221105 
L 112.974817 -403.961818 
L 107.233289 -391.931063 
L 101.479031 -384.498374 
L 95.686581 -376.301548 
L 89.773189 -375.564101 
L 83.866163 -362.916173 
L 77.787273 -313.452634 
z
" style="stroke: #0000ff; stroke-opacity: 0.2"/>
    </defs>
    <g clip-path="url(#p12facd01cd)">
     <use xlink:href="#mfa409e05fb" x="0" y="432" style="fill: #0000ff; fill-opacity: 0.2; stroke: #0000ff; stroke-opacity: 0.2"/>
    </g>
   </g>
   <g id="FillBetweenPolyCollection_2">
    <defs>
     <path id="m2a15a44db5" d="M 77.857291 -289.917692 
L 77.857291 -69.54898 
L 83.700664 -68.892437 
L 89.684074 -66.029126 
L 95.400141 -77.648741 
L 101.319898 -75.441607 
L 107.15054 -72.778175 
L 113.006644 -61.977219 
L 118.964592 -73.029006 
L 124.661563 -79.167977 
L 130.695896 -70.66576 
L 136.590191 -62.869425 
L 142.45266 -75.422456 
L 148.162361 -74.810536 
L 154.145771 -70.401464 
L 160.269219 -81.420101 
L 166.195341 -80.189211 
L 171.96233 -80.558962 
L 178.003028 -74.03467 
L 183.91642 -75.51831 
L 189.957118 -81.421247 
L 195.908701 -67.16367 
L 201.707517 -59.198182 
L 207.614543 -68.345482 
L 213.623415 -68.312764 
L 219.772323 -63.625057 
L 225.628427 -65.794941 
L 231.560915 -60.991916 
L 237.321538 -67.925663 
L 243.464082 -66.368554 
L 249.269263 -67.868038 
L 255.119001 -66.306348 
L 261.108776 -70.925269 
L 266.996707 -74.995372 
L 272.865541 -66.254338 
L 278.747106 -72.328031 
L 284.940572 -63.016655 
L 290.637542 -69.787064 
L 296.799182 -69.876243 
L 302.477056 -68.140765 
L 308.231314 -76.809455 
L 314.106514 -74.996893 
L 320.115385 -71.973956 
L 325.952393 -64.984783 
L 331.802131 -65.063685 
L 337.836464 -85.263739 
L 343.686202 -71.205889 
L 349.491383 -72.6092 
L 355.449332 -71.295837 
L 361.610972 -68.169806 
L 367.530728 -71.793893 
L 373.272256 -59.204392 
L 379.497549 -67.131453 
L 385.258172 -81.440701 
L 391.273409 -68.632809 
L 397.199531 -69.133809 
L 403.34844 -74.268264 
L 409.325485 -69.584695 
L 415.436202 -72.699976 
L 421.534188 -72.026687 
L 427.396657 -73.620773 
L 433.093627 -71.788776 
L 439.12796 -85.432097 
L 444.901314 -68.625738 
L 450.738322 -70.478296 
L 456.728098 -70.235002 
L 462.851545 -87.663238 
L 468.84132 -74.583029 
L 474.792904 -69.19895 
L 480.585354 -71.951638 
L 486.524207 -75.85671 
L 492.16389 -62.389277 
L 498.090012 -77.53796 
L 504.067057 -79.191224 
L 510.145947 -69.530784 
L 515.874744 -66.842743 
L 521.870885 -76.192003 
L 527.720623 -78.609936 
L 533.723129 -75.019727 
L 539.693809 -83.443626 
L 545.543547 -80.961415 
L 551.38692 -68.976588 
L 557.504002 -68.12378 
L 563.652911 -86.89371 
L 569.579033 -77.111029 
L 575.613366 -70.092523 
L 581.57768 -67.611322 
L 587.554725 -66.438433 
L 593.569962 -76.403448 
L 599.617025 -61.409583 
L 605.409475 -75.624762 
L 611.329232 -68.184538 
L 617.344469 -63.996494 
L 623.226034 -74.984188 
L 629.075772 -67.318563 
L 634.880953 -71.586935 
L 640.998035 -75.338804 
L 646.924158 -80.617544 
L 652.94576 -72.829948 
L 658.668191 -80.893808 
L 664.70889 -70.994686 
L 670.552262 -69.253255 
L 676.300155 -65.174382 
L 676.300155 -302.849072 
L 676.300155 -302.849072 
L 670.552262 -300.807532 
L 664.70889 -308.926776 
L 658.668191 -304.080231 
L 652.94576 -292.259749 
L 646.924158 -320.818117 
L 640.998035 -297.166777 
L 634.880953 -292.280368 
L 629.075772 -306.735389 
L 623.226034 -295.402568 
L 617.344469 -301.093207 
L 611.329232 -311.981402 
L 605.409475 -303.237288 
L 599.617025 -300.746361 
L 593.569962 -293.657338 
L 587.554725 -284.878918 
L 581.57768 -309.702358 
L 575.613366 -303.553963 
L 569.579033 -315.441877 
L 563.652911 -309.978335 
L 557.504002 -304.870761 
L 551.38692 -298.883879 
L 545.543547 -303.605157 
L 539.693809 -319.051447 
L 533.723129 -315.332862 
L 527.720623 -307.26053 
L 521.870885 -306.581718 
L 515.874744 -298.24696 
L 510.145947 -297.270276 
L 504.067057 -311.242858 
L 498.090012 -301.161103 
L 492.16389 -300.011148 
L 486.524207 -303.575791 
L 480.585354 -307.562356 
L 474.792904 -290.756683 
L 468.84132 -288.469339 
L 462.851545 -335.775585 
L 456.728098 -311.805281 
L 450.738322 -297.219187 
L 444.901314 -304.368802 
L 439.12796 -314.129224 
L 433.093627 -296.071694 
L 427.396657 -306.463673 
L 421.534188 -299.256497 
L 415.436202 -309.992252 
L 409.325485 -304.632244 
L 403.34844 -305.082746 
L 397.199531 -314.617831 
L 391.273409 -288.796533 
L 385.258172 -295.95447 
L 379.497549 -302.114401 
L 373.272256 -286.163955 
L 367.530728 -309.920418 
L 361.610972 -310.692243 
L 355.449332 -301.535716 
L 349.491383 -294.110365 
L 343.686202 -293.639332 
L 337.836464 -319.920612 
L 331.802131 -301.574386 
L 325.952393 -286.088091 
L 320.115385 -293.604701 
L 314.106514 -306.635924 
L 308.231314 -309.549968 
L 302.477056 -302.083006 
L 296.799182 -290.40536 
L 290.637542 -311.438288 
L 284.940572 -301.828567 
L 278.747106 -304.578182 
L 272.865541 -313.34115 
L 266.996707 -307.207898 
L 261.108776 -294.408911 
L 255.119001 -296.012584 
L 249.269263 -318.817358 
L 243.464082 -287.230608 
L 237.321538 -308.002631 
L 231.560915 -297.333847 
L 225.628427 -310.703806 
L 219.772323 -311.325319 
L 213.623415 -307.778519 
L 207.614543 -303.508155 
L 201.707517 -296.112334 
L 195.908701 -289.532232 
L 189.957118 -321.15532 
L 183.91642 -313.856359 
L 178.003028 -302.382584 
L 171.96233 -294.309921 
L 166.195341 -314.075052 
L 160.269219 -309.74742 
L 154.145771 -314.409591 
L 148.162361 -306.903775 
L 142.45266 -300.098374 
L 136.590191 -296.108287 
L 130.695896 -309.174208 
L 124.661563 -301.894391 
L 118.964592 -284.074362 
L 113.006644 -301.075151 
L 107.15054 -294.267363 
L 101.319898 -301.627594 
L 95.400141 -308.384708 
L 89.684074 -297.104737 
L 83.700664 -302.961199 
L 77.857291 -289.917692 
z
" style="stroke: #ffa500; stroke-opacity: 0.2"/>
    </defs>
    <g clip-path="url(#p12facd01cd)">
     <use xlink:href="#m2a15a44db5" x="0" y="432" style="fill: #ffa500; fill-opacity: 0.2; stroke: #ffa500; stroke-opacity: 0.2"/>
    </g>
   </g>
   <g id="matplotlib.axis_1">
    <g id="xtick_1">
     <g id="line2d_1">
      <path d="M 74.910144 390.04 
L 74.910144 10.8 
" clip-path="url(#p12facd01cd)" style="fill: none; stroke: #b0b0b0; stroke-width: 0.8; stroke-linecap: square"/>
     </g>
     <g id="line2d_2">
      <defs>
       <path id="mf59e41ed46" d="M 0 0 
L 0 3.5 
" style="stroke: #000000; stroke-width: 0.8"/>
      </defs>
      <g>
       <use xlink:href="#mf59e41ed46" x="74.910144" y="390.04" style="stroke: #000000; stroke-width: 0.8"/>
      </g>
     </g>
     <g id="text_1">
      <!-- 0 -->
      <g transform="translate(71.728894 404.638438) scale(0.1 -0.1)">
       <defs>
        <path id="DejaVuSans-30" d="M 2034 4250 
Q 1547 4250 1301 3770 
Q 1056 3291 1056 2328 
Q 1056 1369 1301 889 
Q 1547 409 2034 409 
Q 2525 409 2770 889 
Q 3016 1369 3016 2328 
Q 3016 3291 2770 3770 
Q 2525 4250 2034 4250 
z
M 2034 4750 
Q 2819 4750 3233 4129 
Q 3647 3509 3647 2328 
Q 3647 1150 3233 529 
Q 2819 -91 2034 -91 
Q 1250 -91 836 529 
Q 422 1150 422 2328 
Q 422 3509 836 4129 
Q 1250 4750 2034 4750 
z
" transform="scale(0.015625)"/>
       </defs>
       <use xlink:href="#DejaVuSans-30"/>
      </g>
     </g>
    </g>
    <g id="xtick_2">
     <g id="line2d_3">
      <path d="M 202.216743 390.04 
L 202.216743 10.8 
" clip-path="url(#p12facd01cd)" style="fill: none; stroke: #b0b0b0; stroke-width: 0.8; stroke-linecap: square"/>
     </g>
     <g id="line2d_4">
      <g>
       <use xlink:href="#mf59e41ed46" x="202.216743" y="390.04" style="stroke: #000000; stroke-width: 0.8"/>
      </g>
     </g>
     <g id="text_2">
      <!-- 20000 -->
      <g transform="translate(186.310493 404.638438) scale(0.1 -0.1)">
       <defs>
        <path id="DejaVuSans-32" d="M 1228 531 
L 3431 531 
L 3431 0 
L 469 0 
L 469 531 
Q 828 903 1448 1529 
Q 2069 2156 2228 2338 
Q 2531 2678 2651 2914 
Q 2772 3150 2772 3378 
Q 2772 3750 2511 3984 
Q 2250 4219 1831 4219 
Q 1534 4219 1204 4116 
Q 875 4013 500 3803 
L 500 4441 
Q 881 4594 1212 4672 
Q 1544 4750 1819 4750 
Q 2544 4750 2975 4387 
Q 3406 4025 3406 3419 
Q 3406 3131 3298 2873 
Q 3191 2616 2906 2266 
Q 2828 2175 2409 1742 
Q 1991 1309 1228 531 
z
" transform="scale(0.015625)"/>
       </defs>
       <use xlink:href="#DejaVuSans-32"/>
       <use xlink:href="#DejaVuSans-30" transform="translate(63.623047 0)"/>
       <use xlink:href="#DejaVuSans-30" transform="translate(127.246094 0)"/>
       <use xlink:href="#DejaVuSans-30" transform="translate(190.869141 0)"/>
       <use xlink:href="#DejaVuSans-30" transform="translate(254.492188 0)"/>
      </g>
     </g>
    </g>
    <g id="xtick_3">
     <g id="line2d_5">
      <path d="M 329.523343 390.04 
L 329.523343 10.8 
" clip-path="url(#p12facd01cd)" style="fill: none; stroke: #b0b0b0; stroke-width: 0.8; stroke-linecap: square"/>
     </g>
     <g id="line2d_6">
      <g>
       <use xlink:href="#mf59e41ed46" x="329.523343" y="390.04" style="stroke: #000000; stroke-width: 0.8"/>
      </g>
     </g>
     <g id="text_3">
      <!-- 40000 -->
      <g transform="translate(313.617093 404.638438) scale(0.1 -0.1)">
       <defs>
        <path id="DejaVuSans-34" d="M 2419 4116 
L 825 1625 
L 2419 1625 
L 2419 4116 
z
M 2253 4666 
L 3047 4666 
L 3047 1625 
L 3713 1625 
L 3713 1100 
L 3047 1100 
L 3047 0 
L 2419 0 
L 2419 1100 
L 313 1100 
L 313 1709 
L 2253 4666 
z
" transform="scale(0.015625)"/>
       </defs>
       <use xlink:href="#DejaVuSans-34"/>
       <use xlink:href="#DejaVuSans-30" transform="translate(63.623047 0)"/>
       <use xlink:href="#DejaVuSans-30" transform="translate(127.246094 0)"/>
       <use xlink:href="#DejaVuSans-30" transform="translate(190.869141 0)"/>
       <use xlink:href="#DejaVuSans-30" transform="translate(254.492188 0)"/>
      </g>
     </g>
    </g>
    <g id="xtick_4">
     <g id="line2d_7">
      <path d="M 456.829943 390.04 
L 456.829943 10.8 
" clip-path="url(#p12facd01cd)" style="fill: none; stroke: #b0b0b0; stroke-width: 0.8; stroke-linecap: square"/>
     </g>
     <g id="line2d_8">
      <g>
       <use xlink:href="#mf59e41ed46" x="456.829943" y="390.04" style="stroke: #000000; stroke-width: 0.8"/>
      </g>
     </g>
     <g id="text_4">
      <!-- 60000 -->
      <g transform="translate(440.923693 404.638438) scale(0.1 -0.1)">
       <defs>
        <path id="DejaVuSans-36" d="M 2113 2584 
Q 1688 2584 1439 2293 
Q 1191 2003 1191 1497 
Q 1191 994 1439 701 
Q 1688 409 2113 409 
Q 2538 409 2786 701 
Q 3034 994 3034 1497 
Q 3034 2003 2786 2293 
Q 2538 2584 2113 2584 
z
M 3366 4563 
L 3366 3988 
Q 3128 4100 2886 4159 
Q 2644 4219 2406 4219 
Q 1781 4219 1451 3797 
Q 1122 3375 1075 2522 
Q 1259 2794 1537 2939 
Q 1816 3084 2150 3084 
Q 2853 3084 3261 2657 
Q 3669 2231 3669 1497 
Q 3669 778 3244 343 
Q 2819 -91 2113 -91 
Q 1303 -91 875 529 
Q 447 1150 447 2328 
Q 447 3434 972 4092 
Q 1497 4750 2381 4750 
Q 2619 4750 2861 4703 
Q 3103 4656 3366 4563 
z
" transform="scale(0.015625)"/>
       </defs>
       <use xlink:href="#DejaVuSans-36"/>
       <use xlink:href="#DejaVuSans-30" transform="translate(63.623047 0)"/>
       <use xlink:href="#DejaVuSans-30" transform="translate(127.246094 0)"/>
       <use xlink:href="#DejaVuSans-30" transform="translate(190.869141 0)"/>
       <use xlink:href="#DejaVuSans-30" transform="translate(254.492188 0)"/>
      </g>
     </g>
    </g>
    <g id="xtick_5">
     <g id="line2d_9">
      <path d="M 584.136543 390.04 
L 584.136543 10.8 
" clip-path="url(#p12facd01cd)" style="fill: none; stroke: #b0b0b0; stroke-width: 0.8; stroke-linecap: square"/>
     </g>
     <g id="line2d_10">
      <g>
       <use xlink:href="#mf59e41ed46" x="584.136543" y="390.04" style="stroke: #000000; stroke-width: 0.8"/>
      </g>
     </g>
     <g id="text_5">
      <!-- 80000 -->
      <g transform="translate(568.230293 404.638438) scale(0.1 -0.1)">
       <defs>
        <path id="DejaVuSans-38" d="M 2034 2216 
Q 1584 2216 1326 1975 
Q 1069 1734 1069 1313 
Q 1069 891 1326 650 
Q 1584 409 2034 409 
Q 2484 409 2743 651 
Q 3003 894 3003 1313 
Q 3003 1734 2745 1975 
Q 2488 2216 2034 2216 
z
M 1403 2484 
Q 997 2584 770 2862 
Q 544 3141 544 3541 
Q 544 4100 942 4425 
Q 1341 4750 2034 4750 
Q 2731 4750 3128 4425 
Q 3525 4100 3525 3541 
Q 3525 3141 3298 2862 
Q 3072 2584 2669 2484 
Q 3125 2378 3379 2068 
Q 3634 1759 3634 1313 
Q 3634 634 3220 271 
Q 2806 -91 2034 -91 
Q 1263 -91 848 271 
Q 434 634 434 1313 
Q 434 1759 690 2068 
Q 947 2378 1403 2484 
z
M 1172 3481 
Q 1172 3119 1398 2916 
Q 1625 2713 2034 2713 
Q 2441 2713 2670 2916 
Q 2900 3119 2900 3481 
Q 2900 3844 2670 4047 
Q 2441 4250 2034 4250 
Q 1625 4250 1398 4047 
Q 1172 3844 1172 3481 
z
" transform="scale(0.015625)"/>
       </defs>
       <use xlink:href="#DejaVuSans-38"/>
       <use xlink:href="#DejaVuSans-30" transform="translate(63.623047 0)"/>
       <use xlink:href="#DejaVuSans-30" transform="translate(127.246094 0)"/>
       <use xlink:href="#DejaVuSans-30" transform="translate(190.869141 0)"/>
       <use xlink:href="#DejaVuSans-30" transform="translate(254.492188 0)"/>
      </g>
     </g>
    </g>
    <g id="text_6">
     <!-- Steps -->
     <g transform="translate(364.470156 418.316562) scale(0.1 -0.1)">
      <defs>
       <path id="DejaVuSans-53" d="M 3425 4513 
L 3425 3897 
Q 3066 4069 2747 4153 
Q 2428 4238 2131 4238 
Q 1616 4238 1336 4038 
Q 1056 3838 1056 3469 
Q 1056 3159 1242 3001 
Q 1428 2844 1947 2747 
L 2328 2669 
Q 3034 2534 3370 2195 
Q 3706 1856 3706 1288 
Q 3706 609 3251 259 
Q 2797 -91 1919 -91 
Q 1588 -91 1214 -16 
Q 841 59 441 206 
L 441 856 
Q 825 641 1194 531 
Q 1563 422 1919 422 
Q 2459 422 2753 634 
Q 3047 847 3047 1241 
Q 3047 1584 2836 1778 
Q 2625 1972 2144 2069 
L 1759 2144 
Q 1053 2284 737 2584 
Q 422 2884 422 3419 
Q 422 4038 858 4394 
Q 1294 4750 2059 4750 
Q 2388 4750 2728 4690 
Q 3069 4631 3425 4513 
z
" transform="scale(0.015625)"/>
       <path id="DejaVuSans-74" d="M 1172 4494 
L 1172 3500 
L 2356 3500 
L 2356 3053 
L 1172 3053 
L 1172 1153 
Q 1172 725 1289 603 
Q 1406 481 1766 481 
L 2356 481 
L 2356 0 
L 1766 0 
Q 1100 0 847 248 
Q 594 497 594 1153 
L 594 3053 
L 172 3053 
L 172 3500 
L 594 3500 
L 594 4494 
L 1172 4494 
z
" transform="scale(0.015625)"/>
       <path id="DejaVuSans-65" d="M 3597 1894 
L 3597 1613 
L 953 1613 
Q 991 1019 1311 708 
Q 1631 397 2203 397 
Q 2534 397 2845 478 
Q 3156 559 3463 722 
L 3463 178 
Q 3153 47 2828 -22 
Q 2503 -91 2169 -91 
Q 1331 -91 842 396 
Q 353 884 353 1716 
Q 353 2575 817 3079 
Q 1281 3584 2069 3584 
Q 2775 3584 3186 3129 
Q 3597 2675 3597 1894 
z
M 3022 2063 
Q 3016 2534 2758 2815 
Q 2500 3097 2075 3097 
Q 1594 3097 1305 2825 
Q 1016 2553 972 2059 
L 3022 2063 
z
" transform="scale(0.015625)"/>
       <path id="DejaVuSans-70" d="M 1159 525 
L 1159 -1331 
L 581 -1331 
L 581 3500 
L 1159 3500 
L 1159 2969 
Q 1341 3281 1617 3432 
Q 1894 3584 2278 3584 
Q 2916 3584 3314 3078 
Q 3713 2572 3713 1747 
Q 3713 922 3314 415 
Q 2916 -91 2278 -91 
Q 1894 -91 1617 61 
Q 1341 213 1159 525 
z
M 3116 1747 
Q 3116 2381 2855 2742 
Q 2594 3103 2138 3103 
Q 1681 3103 1420 2742 
Q 1159 2381 1159 1747 
Q 1159 1113 1420 752 
Q 1681 391 2138 391 
Q 2594 391 2855 752 
Q 3116 1113 3116 1747 
z
" transform="scale(0.015625)"/>
       <path id="DejaVuSans-73" d="M 2834 3397 
L 2834 2853 
Q 2591 2978 2328 3040 
Q 2066 3103 1784 3103 
Q 1356 3103 1142 2972 
Q 928 2841 928 2578 
Q 928 2378 1081 2264 
Q 1234 2150 1697 2047 
L 1894 2003 
Q 2506 1872 2764 1633 
Q 3022 1394 3022 966 
Q 3022 478 2636 193 
Q 2250 -91 1575 -91 
Q 1294 -91 989 -36 
Q 684 19 347 128 
L 347 722 
Q 666 556 975 473 
Q 1284 391 1588 391 
Q 1994 391 2212 530 
Q 2431 669 2431 922 
Q 2431 1156 2273 1281 
Q 2116 1406 1581 1522 
L 1381 1569 
Q 847 1681 609 1914 
Q 372 2147 372 2553 
Q 372 3047 722 3315 
Q 1072 3584 1716 3584 
Q 2034 3584 2315 3537 
Q 2597 3491 2834 3397 
z
" transform="scale(0.015625)"/>
      </defs>
      <use xlink:href="#DejaVuSans-53"/>
      <use xlink:href="#DejaVuSans-74" transform="translate(63.476562 0)"/>
      <use xlink:href="#DejaVuSans-65" transform="translate(102.685547 0)"/>
      <use xlink:href="#DejaVuSans-70" transform="translate(164.208984 0)"/>
      <use xlink:href="#DejaVuSans-73" transform="translate(227.685547 0)"/>
     </g>
    </g>
   </g>
   <g id="matplotlib.axis_2">
    <g id="ytick_1">
     <g id="line2d_11">
      <path d="M 47.72 321.413645 
L 709.2 321.413645 
" clip-path="url(#p12facd01cd)" style="fill: none; stroke: #b0b0b0; stroke-width: 0.8; stroke-linecap: square"/>
     </g>
     <g id="line2d_12">
      <defs>
       <path id="m3f841ee570" d="M 0 0 
L -3.5 0 
" style="stroke: #000000; stroke-width: 0.8"/>
      </defs>
      <g>
       <use xlink:href="#m3f841ee570" x="47.72" y="321.413645" style="stroke: #000000; stroke-width: 0.8"/>
      </g>
     </g>
     <g id="text_7">
      <!-- 0.6 -->
      <g transform="translate(24.816875 325.212864) scale(0.1 -0.1)">
       <defs>
        <path id="DejaVuSans-2e" d="M 684 794 
L 1344 794 
L 1344 0 
L 684 0 
L 684 794 
z
" transform="scale(0.015625)"/>
       </defs>
       <use xlink:href="#DejaVuSans-30"/>
       <use xlink:href="#DejaVuSans-2e" transform="translate(63.623047 0)"/>
       <use xlink:href="#DejaVuSans-36" transform="translate(95.410156 0)"/>
      </g>
     </g>
    </g>
    <g id="ytick_2">
     <g id="line2d_13">
      <path d="M 47.72 248.06978 
L 709.2 248.06978 
" clip-path="url(#p12facd01cd)" style="fill: none; stroke: #b0b0b0; stroke-width: 0.8; stroke-linecap: square"/>
     </g>
     <g id="line2d_14">
      <g>
       <use xlink:href="#m3f841ee570" x="47.72" y="248.06978" style="stroke: #000000; stroke-width: 0.8"/>
      </g>
     </g>
     <g id="text_8">
      <!-- 0.7 -->
      <g transform="translate(24.816875 251.868998) scale(0.1 -0.1)">
       <defs>
        <path id="DejaVuSans-37" d="M 525 4666 
L 3525 4666 
L 3525 4397 
L 1831 0 
L 1172 0 
L 2766 4134 
L 525 4134 
L 525 4666 
z
" transform="scale(0.015625)"/>
       </defs>
       <use xlink:href="#DejaVuSans-30"/>
       <use xlink:href="#DejaVuSans-2e" transform="translate(63.623047 0)"/>
       <use xlink:href="#DejaVuSans-37" transform="translate(95.410156 0)"/>
      </g>
     </g>
    </g>
    <g id="ytick_3">
     <g id="line2d_15">
      <path d="M 47.72 174.725914 
L 709.2 174.725914 
" clip-path="url(#p12facd01cd)" style="fill: none; stroke: #b0b0b0; stroke-width: 0.8; stroke-linecap: square"/>
     </g>
     <g id="line2d_16">
      <g>
       <use xlink:href="#m3f841ee570" x="47.72" y="174.725914" style="stroke: #000000; stroke-width: 0.8"/>
      </g>
     </g>
     <g id="text_9">
      <!-- 0.8 -->
      <g transform="translate(24.816875 178.525132) scale(0.1 -0.1)">
       <use xlink:href="#DejaVuSans-30"/>
       <use xlink:href="#DejaVuSans-2e" transform="translate(63.623047 0)"/>
       <use xlink:href="#DejaVuSans-38" transform="translate(95.410156 0)"/>
      </g>
     </g>
    </g>
    <g id="ytick_4">
     <g id="line2d_17">
      <path d="M 47.72 101.382048 
L 709.2 101.382048 
" clip-path="url(#p12facd01cd)" style="fill: none; stroke: #b0b0b0; stroke-width: 0.8; stroke-linecap: square"/>
     </g>
     <g id="line2d_18">
      <g>
       <use xlink:href="#m3f841ee570" x="47.72" y="101.382048" style="stroke: #000000; stroke-width: 0.8"/>
      </g>
     </g>
     <g id="text_10">
      <!-- 0.9 -->
      <g transform="translate(24.816875 105.181266) scale(0.1 -0.1)">
       <defs>
        <path id="DejaVuSans-39" d="M 703 97 
L 703 672 
Q 941 559 1184 500 
Q 1428 441 1663 441 
Q 2288 441 2617 861 
Q 2947 1281 2994 2138 
Q 2813 1869 2534 1725 
Q 2256 1581 1919 1581 
Q 1219 1581 811 2004 
Q 403 2428 403 3163 
Q 403 3881 828 4315 
Q 1253 4750 1959 4750 
Q 2769 4750 3195 4129 
Q 3622 3509 3622 2328 
Q 3622 1225 3098 567 
Q 2575 -91 1691 -91 
Q 1453 -91 1209 -44 
Q 966 3 703 97 
z
M 1959 2075 
Q 2384 2075 2632 2365 
Q 2881 2656 2881 3163 
Q 2881 3666 2632 3958 
Q 2384 4250 1959 4250 
Q 1534 4250 1286 3958 
Q 1038 3666 1038 3163 
Q 1038 2656 1286 2365 
Q 1534 2075 1959 2075 
z
" transform="scale(0.015625)"/>
       </defs>
       <use xlink:href="#DejaVuSans-30"/>
       <use xlink:href="#DejaVuSans-2e" transform="translate(63.623047 0)"/>
       <use xlink:href="#DejaVuSans-39" transform="translate(95.410156 0)"/>
      </g>
     </g>
    </g>
    <g id="ytick_5">
     <g id="line2d_19">
      <path d="M 47.72 28.038182 
L 709.2 28.038182 
" clip-path="url(#p12facd01cd)" style="fill: none; stroke: #b0b0b0; stroke-width: 0.8; stroke-linecap: square"/>
     </g>
     <g id="line2d_20">
      <g>
       <use xlink:href="#m3f841ee570" x="47.72" y="28.038182" style="stroke: #000000; stroke-width: 0.8"/>
      </g>
     </g>
     <g id="text_11">
      <!-- 1.0 -->
      <g transform="translate(24.816875 31.837401) scale(0.1 -0.1)">
       <defs>
        <path id="DejaVuSans-31" d="M 794 531 
L 1825 531 
L 1825 4091 
L 703 3866 
L 703 4441 
L 1819 4666 
L 2450 4666 
L 2450 531 
L 3481 531 
L 3481 0 
L 794 0 
L 794 531 
z
" transform="scale(0.015625)"/>
       </defs>
       <use xlink:href="#DejaVuSans-31"/>
       <use xlink:href="#DejaVuSans-2e" transform="translate(63.623047 0)"/>
       <use xlink:href="#DejaVuSans-30" transform="translate(95.410156 0)"/>
      </g>
     </g>
    </g>
    <g id="text_12">
     <!-- Accuracy -->
     <g transform="translate(18.737188 223.248125) rotate(-90) scale(0.1 -0.1)">
      <defs>
       <path id="DejaVuSans-41" d="M 2188 4044 
L 1331 1722 
L 3047 1722 
L 2188 4044 
z
M 1831 4666 
L 2547 4666 
L 4325 0 
L 3669 0 
L 3244 1197 
L 1141 1197 
L 716 0 
L 50 0 
L 1831 4666 
z
" transform="scale(0.015625)"/>
       <path id="DejaVuSans-63" d="M 3122 3366 
L 3122 2828 
Q 2878 2963 2633 3030 
Q 2388 3097 2138 3097 
Q 1578 3097 1268 2742 
Q 959 2388 959 1747 
Q 959 1106 1268 751 
Q 1578 397 2138 397 
Q 2388 397 2633 464 
Q 2878 531 3122 666 
L 3122 134 
Q 2881 22 2623 -34 
Q 2366 -91 2075 -91 
Q 1284 -91 818 406 
Q 353 903 353 1747 
Q 353 2603 823 3093 
Q 1294 3584 2113 3584 
Q 2378 3584 2631 3529 
Q 2884 3475 3122 3366 
z
" transform="scale(0.015625)"/>
       <path id="DejaVuSans-75" d="M 544 1381 
L 544 3500 
L 1119 3500 
L 1119 1403 
Q 1119 906 1312 657 
Q 1506 409 1894 409 
Q 2359 409 2629 706 
Q 2900 1003 2900 1516 
L 2900 3500 
L 3475 3500 
L 3475 0 
L 2900 0 
L 2900 538 
Q 2691 219 2414 64 
Q 2138 -91 1772 -91 
Q 1169 -91 856 284 
Q 544 659 544 1381 
z
M 1991 3584 
L 1991 3584 
z
" transform="scale(0.015625)"/>
       <path id="DejaVuSans-72" d="M 2631 2963 
Q 2534 3019 2420 3045 
Q 2306 3072 2169 3072 
Q 1681 3072 1420 2755 
Q 1159 2438 1159 1844 
L 1159 0 
L 581 0 
L 581 3500 
L 1159 3500 
L 1159 2956 
Q 1341 3275 1631 3429 
Q 1922 3584 2338 3584 
Q 2397 3584 2469 3576 
Q 2541 3569 2628 3553 
L 2631 2963 
z
" transform="scale(0.015625)"/>
       <path id="DejaVuSans-61" d="M 2194 1759 
Q 1497 1759 1228 1600 
Q 959 1441 959 1056 
Q 959 750 1161 570 
Q 1363 391 1709 391 
Q 2188 391 2477 730 
Q 2766 1069 2766 1631 
L 2766 1759 
L 2194 1759 
z
M 3341 1997 
L 3341 0 
L 2766 0 
L 2766 531 
Q 2569 213 2275 61 
Q 1981 -91 1556 -91 
Q 1019 -91 701 211 
Q 384 513 384 1019 
Q 384 1609 779 1909 
Q 1175 2209 1959 2209 
L 2766 2209 
L 2766 2266 
Q 2766 2663 2505 2880 
Q 2244 3097 1772 3097 
Q 1472 3097 1187 3025 
Q 903 2953 641 2809 
L 641 3341 
Q 956 3463 1253 3523 
Q 1550 3584 1831 3584 
Q 2591 3584 2966 3190 
Q 3341 2797 3341 1997 
z
" transform="scale(0.015625)"/>
       <path id="DejaVuSans-79" d="M 2059 -325 
Q 1816 -950 1584 -1140 
Q 1353 -1331 966 -1331 
L 506 -1331 
L 506 -850 
L 844 -850 
Q 1081 -850 1212 -737 
Q 1344 -625 1503 -206 
L 1606 56 
L 191 3500 
L 800 3500 
L 1894 763 
L 2988 3500 
L 3597 3500 
L 2059 -325 
z
" transform="scale(0.015625)"/>
      </defs>
      <use xlink:href="#DejaVuSans-41"/>
      <use xlink:href="#DejaVuSans-63" transform="translate(66.658203 0)"/>
      <use xlink:href="#DejaVuSans-63" transform="translate(121.638672 0)"/>
      <use xlink:href="#DejaVuSans-75" transform="translate(176.619141 0)"/>
      <use xlink:href="#DejaVuSans-72" transform="translate(239.998047 0)"/>
      <use xlink:href="#DejaVuSans-61" transform="translate(281.111328 0)"/>
      <use xlink:href="#DejaVuSans-63" transform="translate(342.390625 0)"/>
      <use xlink:href="#DejaVuSans-79" transform="translate(397.371094 0)"/>
     </g>
    </g>
   </g>
   <g id="line2d_21">
    <path d="M 77.787273 231.322915 
L 83.866163 183.160439 
L 89.773189 166.698817 
L 95.686581 156.512167 
L 101.479031 142.699072 
L 107.233289 130.108376 
L 112.974817 113.891235 
L 118.499923 93.599434 
L 123.706763 64.384132 
L 128.417107 50.041336 
L 132.618225 43.521882 
L 136.628383 33.090758 
L 140.651272 32.275826 
L 144.57868 32.520306 
L 148.442436 30.971936 
L 152.331652 30.075511 
L 156.24633 29.790285 
L 160.116451 29.912524 
L 163.948379 28.812367 
L 167.773943 29.423566 
L 171.624967 30.93119 
L 175.4378 28.853113 
L 179.276094 28.364154 
L 183.108023 28.078928 
L 186.933586 28.323408 
L 198.423007 29.545806 
L 202.280397 28.608634 
L 206.10596 28.119675 
L 209.925158 28.730874 
L 213.757087 28.160421 
L 217.601746 28.730874 
L 221.446405 32.072094 
L 225.284699 28.078928 
L 229.110263 29.871778 
L 232.942191 28.527141 
L 236.77412 29.382819 
L 240.593318 28.649381 
L 244.437977 28.119675 
L 248.257175 28.038182 
L 252.076373 28.77162 
L 255.901936 28.038182 
L 259.708404 28.160421 
L 267.353165 28.078928 
L 271.165998 28.853113 
L 274.97883 30.482977 
L 278.791663 28.201168 
L 282.629957 28.038182 
L 286.449155 28.690127 
L 290.274718 28.078928 
L 294.093916 28.649381 
L 297.913114 28.119675 
L 301.745043 28.364154 
L 305.570606 28.119675 
L 309.389804 29.342073 
L 313.221733 28.038182 
L 317.072758 28.486394 
L 320.930148 28.160421 
L 324.755711 28.160421 
L 328.574909 28.282661 
L 336.213305 28.160421 
L 340.032503 28.690127 
L 343.851701 28.241915 
L 347.670899 28.078928 
L 351.509193 28.364154 
L 355.328391 28.160421 
L 359.153954 28.119675 
L 362.973152 28.323408 
L 366.79235 28.690127 
L 370.611548 29.708791 
L 374.443477 32.235077 
L 378.262675 35.168829 
L 382.075507 36.391226 
L 385.901071 35.86152 
L 389.720269 36.187492 
L 393.533101 36.065253 
L 397.339569 36.309732 
L 401.152401 36.105999 
L 404.965234 36.146746 
L 408.778067 37.654369 
L 416.664711 36.065253 
L 424.513162 37.613623 
L 428.389648 36.431972 
L 432.234308 38.917513 
L 436.2381 36.676451 
L 440.171874 36.920931 
L 444.188397 36.920931 
L 448.198555 36.187492 
L 452.068676 36.676451 
L 455.989719 36.920931 
L 459.898032 36.920931 
L 463.768152 40.588123 
L 467.68283 38.387808 
L 471.572047 37.858102 
L 475.416706 40.588123 
L 479.248635 37.898849 
L 483.080564 38.143328 
L 486.906127 36.635705 
L 494.544523 36.187492 
L 498.363721 36.187492 
L 502.182919 36.431972 
L 506.002117 36.187492 
L 509.82768 36.676451 
L 513.646878 36.676451 
L 517.466076 38.876766 
L 520.674203 41.973503 
L 523.43039 43.562619 
L 526.091098 44.296057 
L 528.751806 43.888591 
L 531.355226 43.847845 
L 533.92682 44.336803 
L 536.485682 44.499789 
L 539.044545 45.885172 
L 541.590677 49.919081 
L 544.143174 51.222971 
L 546.689306 52.200888 
L 554.327702 52.486114 
L 556.8802 52.323128 
L 559.426332 52.445367 
L 592.545143 52.486114 
L 595.091275 52.323128 
L 597.637407 52.486114 
L 658.750941 52.486114 
L 661.297073 52.608354 
L 663.855935 52.445367 
L 671.494331 52.486114 
L 679.132727 52.486114 
L 679.132727 52.486114 
" clip-path="url(#p12facd01cd)" style="fill: none; stroke: #0000ff; stroke-width: 1.5; stroke-linecap: square"/>
   </g>
   <g id="line2d_22">
    <path d="M 77.857291 252.266664 
L 83.700664 246.073182 
L 89.684074 250.433068 
L 95.400141 238.983275 
L 101.319898 243.4654 
L 107.15054 248.477231 
L 113.006644 250.473815 
L 118.964592 253.448316 
L 124.661563 241.468816 
L 130.695896 242.080016 
L 136.590191 252.511144 
L 142.45266 244.239585 
L 148.162361 241.142845 
L 154.145771 239.594473 
L 160.269219 236.41624 
L 166.195341 234.867869 
L 171.96233 244.565558 
L 178.003028 243.791373 
L 183.91642 237.312665 
L 189.957118 230.711716 
L 195.908701 253.652049 
L 201.707517 254.344742 
L 207.614543 246.073181 
L 213.623415 243.954359 
L 219.772323 244.524812 
L 225.628427 243.750627 
L 231.560915 252.837118 
L 237.321538 244.035853 
L 243.464082 255.200419 
L 249.269263 238.657302 
L 255.119001 250.840534 
L 261.108776 249.33291 
L 266.996707 240.898365 
L 272.865541 242.202256 
L 278.747106 243.546894 
L 284.940572 249.577389 
L 290.637542 241.387324 
L 296.799182 251.859198 
L 302.477056 246.888115 
L 308.231314 238.820288 
L 314.106514 241.183591 
L 320.115385 249.210672 
L 325.952393 256.463563 
L 331.802131 248.680964 
L 337.836464 229.407825 
L 343.686202 249.577389 
L 349.491383 248.640217 
L 355.449332 245.584223 
L 361.610972 242.568976 
L 367.530728 241.142845 
L 373.272256 259.315826 
L 379.497549 247.377073 
L 385.258172 243.302414 
L 391.273409 253.285329 
L 397.199531 240.12418 
L 403.34844 242.324495 
L 409.325485 244.891531 
L 415.436202 240.653886 
L 421.534188 246.358408 
L 427.396657 241.957777 
L 433.093627 248.069765 
L 439.12796 232.219339 
L 444.901314 245.50273 
L 450.738322 248.151258 
L 456.728098 240.979858 
L 462.851545 220.280589 
L 468.84132 250.473816 
L 474.792904 252.022183 
L 480.585354 242.243003 
L 486.524207 242.283749 
L 492.16389 250.799788 
L 498.090012 242.650468 
L 504.067057 236.782959 
L 510.145947 248.59947 
L 515.874744 249.455149 
L 521.870885 240.613139 
L 527.720623 239.064767 
L 533.723129 236.823706 
L 539.693809 230.752463 
L 545.543547 239.716714 
L 551.38692 248.069766 
L 557.504002 245.50273 
L 563.652911 233.563978 
L 569.579033 235.723547 
L 575.613366 245.176757 
L 581.57768 243.34316 
L 587.554725 256.341324 
L 593.569962 246.969607 
L 599.617025 250.922028 
L 605.409475 242.568975 
L 611.329232 241.91703 
L 617.344469 249.45515 
L 623.226034 246.806622 
L 629.075772 244.973024 
L 634.880953 250.066349 
L 640.998035 245.74721 
L 646.924158 231.282169 
L 652.94576 249.455151 
L 658.668191 239.512981 
L 664.70889 242.039269 
L 670.552262 246.969607 
L 676.300155 247.988273 
" clip-path="url(#p12facd01cd)" style="fill: none; stroke: #ffa500; stroke-width: 1.5; stroke-linecap: square"/>
   </g>
   <g id="patch_3">
    <path d="M 47.72 390.04 
L 47.72 10.8 
" style="fill: none; stroke: #000000; stroke-width: 0.8; stroke-linejoin: miter; stroke-linecap: square"/>
   </g>
   <g id="patch_4">
    <path d="M 709.2 390.04 
L 709.2 10.8 
" style="fill: none; stroke: #000000; stroke-width: 0.8; stroke-linejoin: miter; stroke-linecap: square"/>
   </g>
   <g id="patch_5">
    <path d="M 47.72 390.04 
L 709.2 390.04 
" style="fill: none; stroke: #000000; stroke-width: 0.8; stroke-linejoin: miter; stroke-linecap: square"/>
   </g>
   <g id="patch_6">
    <path d="M 47.72 10.8 
L 709.2 10.8 
" style="fill: none; stroke: #000000; stroke-width: 0.8; stroke-linejoin: miter; stroke-linecap: square"/>
   </g>
   <g id="legend_1">
    <g id="patch_7">
     <path d="M 628.803125 385.04 
L 702.2 385.04 
Q 704.2 385.04 704.2 383.04 
L 704.2 340.005625 
Q 704.2 338.005625 702.2 338.005625 
L 628.803125 338.005625 
Q 626.803125 338.005625 626.803125 340.005625 
L 626.803125 383.04 
Q 626.803125 385.04 628.803125 385.04 
z
" style="fill: #ffffff; opacity: 0.8; stroke: #cccccc; stroke-linejoin: miter"/>
    </g>
    <g id="text_13">
     <!-- Agent -->
     <g transform="translate(650.701563 349.604062) scale(0.1 -0.1)">
      <defs>
       <path id="DejaVuSans-67" d="M 2906 1791 
Q 2906 2416 2648 2759 
Q 2391 3103 1925 3103 
Q 1463 3103 1205 2759 
Q 947 2416 947 1791 
Q 947 1169 1205 825 
Q 1463 481 1925 481 
Q 2391 481 2648 825 
Q 2906 1169 2906 1791 
z
M 3481 434 
Q 3481 -459 3084 -895 
Q 2688 -1331 1869 -1331 
Q 1566 -1331 1297 -1286 
Q 1028 -1241 775 -1147 
L 775 -588 
Q 1028 -725 1275 -790 
Q 1522 -856 1778 -856 
Q 2344 -856 2625 -561 
Q 2906 -266 2906 331 
L 2906 616 
Q 2728 306 2450 153 
Q 2172 0 1784 0 
Q 1141 0 747 490 
Q 353 981 353 1791 
Q 353 2603 747 3093 
Q 1141 3584 1784 3584 
Q 2172 3584 2450 3431 
Q 2728 3278 2906 2969 
L 2906 3500 
L 3481 3500 
L 3481 434 
z
" transform="scale(0.015625)"/>
       <path id="DejaVuSans-6e" d="M 3513 2113 
L 3513 0 
L 2938 0 
L 2938 2094 
Q 2938 2591 2744 2837 
Q 2550 3084 2163 3084 
Q 1697 3084 1428 2787 
Q 1159 2491 1159 1978 
L 1159 0 
L 581 0 
L 581 3500 
L 1159 3500 
L 1159 2956 
Q 1366 3272 1645 3428 
Q 1925 3584 2291 3584 
Q 2894 3584 3203 3211 
Q 3513 2838 3513 2113 
z
" transform="scale(0.015625)"/>
      </defs>
      <use xlink:href="#DejaVuSans-41"/>
      <use xlink:href="#DejaVuSans-67" transform="translate(68.408203 0)"/>
      <use xlink:href="#DejaVuSans-65" transform="translate(131.884766 0)"/>
      <use xlink:href="#DejaVuSans-6e" transform="translate(193.408203 0)"/>
      <use xlink:href="#DejaVuSans-74" transform="translate(256.787109 0)"/>
     </g>
    </g>
    <g id="line2d_23">
     <path d="M 630.803125 360.782187 
L 640.803125 360.782187 
L 650.803125 360.782187 
" style="fill: none; stroke: #0000ff; stroke-width: 1.5; stroke-linecap: square"/>
    </g>
    <g id="text_14">
     <!-- PPO -->
     <g transform="translate(658.803125 364.282187) scale(0.1 -0.1)">
      <defs>
       <path id="DejaVuSans-50" d="M 1259 4147 
L 1259 2394 
L 2053 2394 
Q 2494 2394 2734 2622 
Q 2975 2850 2975 3272 
Q 2975 3691 2734 3919 
Q 2494 4147 2053 4147 
L 1259 4147 
z
M 628 4666 
L 2053 4666 
Q 2838 4666 3239 4311 
Q 3641 3956 3641 3272 
Q 3641 2581 3239 2228 
Q 2838 1875 2053 1875 
L 1259 1875 
L 1259 0 
L 628 0 
L 628 4666 
z
" transform="scale(0.015625)"/>
       <path id="DejaVuSans-4f" d="M 2522 4238 
Q 1834 4238 1429 3725 
Q 1025 3213 1025 2328 
Q 1025 1447 1429 934 
Q 1834 422 2522 422 
Q 3209 422 3611 934 
Q 4013 1447 4013 2328 
Q 4013 3213 3611 3725 
Q 3209 4238 2522 4238 
z
M 2522 4750 
Q 3503 4750 4090 4092 
Q 4678 3434 4678 2328 
Q 4678 1225 4090 567 
Q 3503 -91 2522 -91 
Q 1538 -91 948 565 
Q 359 1222 359 2328 
Q 359 3434 948 4092 
Q 1538 4750 2522 4750 
z
" transform="scale(0.015625)"/>
      </defs>
      <use xlink:href="#DejaVuSans-50"/>
      <use xlink:href="#DejaVuSans-50" transform="translate(60.302734 0)"/>
      <use xlink:href="#DejaVuSans-4f" transform="translate(120.605469 0)"/>
     </g>
    </g>
    <g id="line2d_24">
     <path d="M 630.803125 375.460312 
L 640.803125 375.460312 
L 650.803125 375.460312 
" style="fill: none; stroke: #ffa500; stroke-width: 1.5; stroke-linecap: square"/>
    </g>
    <g id="text_15">
     <!-- Random -->
     <g transform="translate(658.803125 378.960312) scale(0.1 -0.1)">
      <defs>
       <path id="DejaVuSans-52" d="M 2841 2188 
Q 3044 2119 3236 1894 
Q 3428 1669 3622 1275 
L 4263 0 
L 3584 0 
L 2988 1197 
Q 2756 1666 2539 1819 
Q 2322 1972 1947 1972 
L 1259 1972 
L 1259 0 
L 628 0 
L 628 4666 
L 2053 4666 
Q 2853 4666 3247 4331 
Q 3641 3997 3641 3322 
Q 3641 2881 3436 2590 
Q 3231 2300 2841 2188 
z
M 1259 4147 
L 1259 2491 
L 2053 2491 
Q 2509 2491 2742 2702 
Q 2975 2913 2975 3322 
Q 2975 3731 2742 3939 
Q 2509 4147 2053 4147 
L 1259 4147 
z
" transform="scale(0.015625)"/>
       <path id="DejaVuSans-64" d="M 2906 2969 
L 2906 4863 
L 3481 4863 
L 3481 0 
L 2906 0 
L 2906 525 
Q 2725 213 2448 61 
Q 2172 -91 1784 -91 
Q 1150 -91 751 415 
Q 353 922 353 1747 
Q 353 2572 751 3078 
Q 1150 3584 1784 3584 
Q 2172 3584 2448 3432 
Q 2725 3281 2906 2969 
z
M 947 1747 
Q 947 1113 1208 752 
Q 1469 391 1925 391 
Q 2381 391 2643 752 
Q 2906 1113 2906 1747 
Q 2906 2381 2643 2742 
Q 2381 3103 1925 3103 
Q 1469 3103 1208 2742 
Q 947 2381 947 1747 
z
" transform="scale(0.015625)"/>
       <path id="DejaVuSans-6f" d="M 1959 3097 
Q 1497 3097 1228 2736 
Q 959 2375 959 1747 
Q 959 1119 1226 758 
Q 1494 397 1959 397 
Q 2419 397 2687 759 
Q 2956 1122 2956 1747 
Q 2956 2369 2687 2733 
Q 2419 3097 1959 3097 
z
M 1959 3584 
Q 2709 3584 3137 3096 
Q 3566 2609 3566 1747 
Q 3566 888 3137 398 
Q 2709 -91 1959 -91 
Q 1206 -91 779 398 
Q 353 888 353 1747 
Q 353 2609 779 3096 
Q 1206 3584 1959 3584 
z
" transform="scale(0.015625)"/>
       <path id="DejaVuSans-6d" d="M 3328 2828 
Q 3544 3216 3844 3400 
Q 4144 3584 4550 3584 
Q 5097 3584 5394 3201 
Q 5691 2819 5691 2113 
L 5691 0 
L 5113 0 
L 5113 2094 
Q 5113 2597 4934 2840 
Q 4756 3084 4391 3084 
Q 3944 3084 3684 2787 
Q 3425 2491 3425 1978 
L 3425 0 
L 2847 0 
L 2847 2094 
Q 2847 2600 2669 2842 
Q 2491 3084 2119 3084 
Q 1678 3084 1418 2786 
Q 1159 2488 1159 1978 
L 1159 0 
L 581 0 
L 581 3500 
L 1159 3500 
L 1159 2956 
Q 1356 3278 1631 3431 
Q 1906 3584 2284 3584 
Q 2666 3584 2933 3390 
Q 3200 3197 3328 2828 
z
" transform="scale(0.015625)"/>
      </defs>
      <use xlink:href="#DejaVuSans-52"/>
      <use xlink:href="#DejaVuSans-61" transform="translate(67.232422 0)"/>
      <use xlink:href="#DejaVuSans-6e" transform="translate(128.511719 0)"/>
      <use xlink:href="#DejaVuSans-64" transform="translate(191.890625 0)"/>
      <use xlink:href="#DejaVuSans-6f" transform="translate(255.367188 0)"/>
      <use xlink:href="#DejaVuSans-6d" transform="translate(316.548828 0)"/>
     </g>
    </g>
   </g>
  </g>
 </g>
 <defs>
  <clipPath id="p12facd01cd">
   <rect x="47.72" y="10.8" width="661.48" height="379.24"/>
  </clipPath>
 </defs>
</svg>
