<?xml version="1.0" encoding="utf-8" standalone="no"?>
<!DOCTYPE svg PUBLIC "-//W3C//DTD SVG 1.1//EN"
  "http://www.w3.org/Graphics/SVG/1.1/DTD/svg11.dtd">
<svg xmlns:xlink="http://www.w3.org/1999/xlink" width="720pt" height="432pt" viewBox="0 0 720 432" xmlns="http://www.w3.org/2000/svg" version="1.1">
 <metadata>
  <rdf:RDF xmlns:dc="http://purl.org/dc/elements/1.1/" xmlns:cc="http://creativecommons.org/ns#" xmlns:rdf="http://www.w3.org/1999/02/22-rdf-syntax-ns#">
   <cc:Work>
    <dc:type rdf:resource="http://purl.org/dc/dcmitype/StillImage"/>
    <dc:date>2025-04-16T01:07:00.342223</dc:date>
    <dc:format>image/svg+xml</dc:format>
    <dc:creator>
     <cc:Agent>
      <dc:title>Matplotlib v3.10.0, https://matplotlib.org/</dc:title>
     </cc:Agent>
    </dc:creator>
   </cc:Work>
  </rdf:RDF>
 </metadata>
 <defs>
  <style type="text/css">*{stroke-linejoin: round; stroke-linecap: butt}</style>
 </defs>
 <g id="figure_1">
  <g id="patch_1">
   <path d="M 0 432 
L 720 432 
L 720 0 
L 0 0 
z
" style="fill: #ffffff"/>
  </g>
  <g id="axes_1">
   <g id="patch_2">
    <path d="M 50.87 390.04 
L 709.2 390.04 
L 709.2 10.8 
L 50.87 10.8 
z
" style="fill: #ffffff"/>
   </g>
   <g id="FillBetweenPolyCollection_1">
    <defs>
     <path id="m46f7a6781c" d="M 80.794091 -96.347414 
L 80.794091 -62.336146 
L 86.844033 -62.019457 
L 92.72293 -61.644143 
L 98.608161 -60.831912 
L 104.373028 -59.198182 
L 110.099884 -62.736818 
L 115.81407 -68.089794 
L 121.312866 -84.593637 
L 126.494911 -145.822257 
L 131.182824 -216.865936 
L 135.363936 -267.523229 
L 139.354997 -329.583407 
L 143.358728 -332.441223 
L 147.267435 -341.798639 
L 151.11279 -342.073994 
L 154.983486 -350.590282 
L 158.879522 -350.600868 
L 162.731213 -348.944596 
L 166.544894 -358.845922 
L 170.35224 -358.341572 
L 174.184926 -352.89569 
L 177.979602 -356.501169 
L 181.799618 -360.036231 
L 185.613298 -362.39129 
L 189.420644 -361.210886 
L 193.246995 -360.021571 
L 197.048006 -360.003962 
L 200.855352 -355.297262 
L 204.694372 -360.026528 
L 208.501718 -361.219288 
L 212.302729 -360.023501 
L 216.11641 -360.044829 
L 219.942761 -361.192263 
L 223.769112 -351.673235 
L 227.589127 -362.392636 
L 231.396473 -359.972099 
L 235.210154 -361.201095 
L 239.023835 -358.819931 
L 242.824846 -362.367689 
L 246.651197 -361.218189 
L 250.452207 -363.566009 
L 254.253218 -358.845222 
L 258.060564 -363.565859 
L 261.848905 -360.045304 
L 265.649915 -362.393414 
L 269.457261 -362.392471 
L 273.251937 -357.672742 
L 277.046613 -354.087567 
L 280.841289 -360.044083 
L 284.661304 -363.566009 
L 288.462315 -361.194306 
L 292.269661 -362.390973 
L 296.070672 -362.368127 
L 299.871683 -361.218591 
L 303.685363 -361.207217 
L 307.492709 -361.218041 
L 311.29372 -358.824654 
L 315.107401 -363.565108 
L 318.940087 -361.202546 
L 322.779108 -360.044956 
L 326.586453 -360.048486 
L 330.387464 -356.528283 
L 334.188475 -357.701262 
L 337.989486 -360.045131 
L 341.790496 -361.197721 
L 345.591507 -358.876416 
L 349.392518 -362.429045 
L 353.212534 -354.239627 
L 357.013545 -360.111358 
L 360.82089 -361.292623 
L 364.621901 -361.293141 
L 368.422912 -348.389094 
L 372.223923 -338.975295 
L 376.037604 -242.774088 
L 379.838614 -158.966211 
L 383.63329 -140.171586 
L 387.440636 -138.327124 
L 391.241647 -129.626307 
L 395.036323 -132.4598 
L 398.824663 -127.480263 
L 402.619339 -132.659866 
L 406.414015 -130.112487 
L 410.208691 -126.67194 
L 414.168077 -130.981236 
L 418.057778 -133.834149 
L 421.915804 -130.291171 
L 425.868855 -127.156756 
L 429.726881 -129.132202 
L 433.553232 -123.035682 
L 437.537958 -127.953047 
L 441.452999 -127.460722 
L 445.450396 -127.459765 
L 449.441457 -128.93798 
L 453.293148 -127.953414 
L 457.195519 -127.460638 
L 461.08522 -127.461819 
L 464.936911 -120.763633 
L 468.832947 -125.19337 
L 472.703643 -126.665016 
L 476.529994 -120.076084 
L 480.343675 -125.491714 
L 484.157355 -124.998884 
L 487.964701 -129.127425 
L 491.765712 -128.446409 
L 495.566723 -128.938421 
L 499.367734 -128.938476 
L 503.168744 -128.446245 
L 506.969755 -128.938312 
L 510.777101 -127.953905 
L 514.578112 -127.95396 
L 518.379123 -112.769366 
L 521.571972 -59.901495 
L 524.315034 -59.198182 
L 526.963072 -59.198182 
L 529.611109 -59.198182 
L 532.202132 -59.198182 
L 534.761479 -59.198182 
L 537.308156 -59.198182 
L 539.854833 -59.198182 
L 542.388841 -59.29219 
L 544.929183 -65.736425 
L 547.46319 -70.569601 
L 549.997197 -71.173748 
L 552.531204 -71.777895 
L 555.065212 -71.979277 
L 557.605554 -71.173758 
L 560.139561 -71.777895 
L 562.673568 -71.777895 
L 565.207575 -71.979277 
L 567.741583 -71.979277 
L 570.281925 -71.576512 
L 572.815932 -71.979277 
L 575.349939 -71.979277 
L 577.883946 -71.979277 
L 580.417954 -71.979277 
L 582.951961 -71.979277 
L 585.485968 -71.979277 
L 588.019975 -71.777895 
L 590.560317 -71.777895 
L 593.10066 -71.979277 
L 595.634667 -71.173748 
L 598.168674 -71.979277 
L 600.702681 -71.979277 
L 603.236688 -71.979277 
L 605.770696 -71.979277 
L 608.304703 -71.979277 
L 610.83871 -71.979277 
L 613.372717 -71.777895 
L 615.906724 -71.777908 
L 618.440731 -71.979277 
L 620.974739 -71.979277 
L 623.508746 -71.979277 
L 626.042753 -71.979277 
L 628.57676 -71.979277 
L 631.110767 -71.979277 
L 633.65111 -71.576512 
L 636.185117 -71.777895 
L 638.719124 -71.979277 
L 641.253131 -71.979277 
L 643.787138 -71.777908 
L 646.321146 -71.979277 
L 648.855153 -71.979277 
L 651.38916 -71.979277 
L 653.923167 -71.979277 
L 656.457174 -71.979277 
L 658.991182 -71.979277 
L 661.525189 -71.974296 
L 664.071866 -71.777348 
L 666.605873 -71.979277 
L 669.13988 -71.979277 
L 671.673888 -71.979277 
L 674.207895 -71.979277 
L 676.741902 -71.979277 
L 679.275909 -71.979277 
L 679.275909 -71.979277 
L 679.275909 -71.979277 
L 676.741902 -71.979277 
L 674.207895 -71.979277 
L 671.673888 -71.979277 
L 669.13988 -71.979277 
L 666.605873 -71.979277 
L 664.071866 -73.153113 
L 661.525189 -71.980132 
L 658.991182 -71.979277 
L 656.457174 -71.979277 
L 653.923167 -71.979277 
L 651.38916 -71.979277 
L 648.855153 -71.979277 
L 646.321146 -71.979277 
L 643.787138 -73.152941 
L 641.253131 -71.979277 
L 638.719124 -71.979277 
L 636.185117 -73.153019 
L 633.65111 -74.326762 
L 631.110767 -71.979277 
L 628.57676 -71.979277 
L 626.042753 -71.979277 
L 623.508746 -71.979277 
L 620.974739 -71.979277 
L 618.440731 -71.979277 
L 615.906724 -73.152941 
L 613.372717 -73.153019 
L 610.83871 -71.979277 
L 608.304703 -71.979277 
L 605.770696 -71.979277 
L 603.236688 -71.979277 
L 600.702681 -71.979277 
L 598.168674 -71.979277 
L 595.634667 -76.674246 
L 593.10066 -71.979277 
L 590.560317 -73.153019 
L 588.019975 -73.153019 
L 585.485968 -71.979277 
L 582.951961 -71.979277 
L 580.417954 -71.979277 
L 577.883946 -71.979277 
L 575.349939 -71.979277 
L 572.815932 -71.979277 
L 570.281925 -74.326762 
L 567.741583 -71.979277 
L 565.207575 -71.979277 
L 562.673568 -73.153019 
L 560.139561 -73.153019 
L 557.605554 -76.674188 
L 555.065212 -71.979277 
L 552.531204 -73.153019 
L 549.997197 -76.674246 
L 547.46319 -80.195473 
L 544.929183 -108.365287 
L 542.388841 -145.92504 
L 539.854833 -262.125466 
L 537.308156 -300.657637 
L 534.761479 -305.352606 
L 532.202132 -312.561441 
L 529.611109 -311.387549 
L 526.963072 -313.133428 
L 524.315034 -315.963934 
L 521.571972 -334.924013 
L 518.379123 -385.084596 
L 514.578112 -402.98833 
L 510.777101 -402.988013 
L 506.969755 -403.960865 
L 503.168744 -403.475233 
L 499.367734 -403.961818 
L 495.566723 -403.961501 
L 491.765712 -403.476186 
L 487.964701 -402.785688 
L 484.157355 -400.058974 
L 480.343675 -400.549052 
L 476.529994 -395.190264 
L 472.703643 -400.345457 
L 468.832947 -398.884797 
L 464.936911 -394.499738 
L 461.08522 -402.499891 
L 457.195519 -402.495393 
L 453.293148 -402.985154 
L 449.441457 -403.958932 
L 445.450396 -402.490311 
L 441.452999 -402.495098 
L 437.537958 -402.982625 
L 433.553232 -398.112057 
L 429.726881 -402.781963 
L 425.868855 -400.829183 
L 421.915804 -402.581842 
L 418.057778 -401.981914 
L 414.168077 -401.888638 
L 410.208691 -400.350944 
L 406.414015 -403.762352 
L 402.619339 -402.184792 
L 398.824663 -402.505184 
L 395.036323 -403.359289 
L 391.241647 -403.276172 
L 387.440636 -402.352616 
L 383.63329 -401.459964 
L 379.838614 -398.24224 
L 376.037604 -384.432677 
L 372.223923 -367.926636 
L 368.422912 -366.312006 
L 364.621901 -364.097981 
L 360.82089 -364.098111 
L 357.013545 -364.300495 
L 353.212534 -365.307676 
L 349.392518 -363.903063 
L 345.591507 -364.511978 
L 341.790496 -364.11431 
L 337.989486 -364.310963 
L 334.188475 -364.71385 
L 330.387464 -364.915295 
L 326.586453 -364.310828 
L 322.779108 -364.309407 
L 318.940087 -364.112575 
L 315.107401 -363.706481 
L 311.29372 -364.519923 
L 307.492709 -364.109669 
L 303.685363 -364.11004 
L 299.871683 -364.108941 
L 296.070672 -363.91086 
L 292.269661 -363.907188 
L 288.462315 -364.114732 
L 284.661304 -363.707812 
L 280.841289 -364.311169 
L 277.046613 -365.332733 
L 273.251937 -364.717339 
L 269.457261 -363.909379 
L 265.649915 -363.908969 
L 261.848905 -364.309998 
L 258.060564 -363.70759 
L 254.253218 -364.514727 
L 250.452207 -363.707812 
L 246.651197 -364.109489 
L 242.824846 -363.912916 
L 239.023835 -364.521394 
L 235.210154 -364.112877 
L 231.396473 -364.324677 
L 227.589127 -363.908842 
L 223.769112 -365.747299 
L 219.942761 -364.113651 
L 216.11641 -364.308628 
L 212.302729 -364.31583 
L 208.501718 -364.109069 
L 204.694372 -364.314842 
L 200.855352 -365.125155 
L 197.048006 -364.318347 
L 193.246995 -364.314685 
L 189.420644 -364.111209 
L 185.613298 -363.908375 
L 181.799618 -364.311967 
L 177.979602 -364.917782 
L 174.184926 -365.536539 
L 170.35224 -364.028121 
L 166.544894 -364.516907 
L 162.731213 -365.639551 
L 158.879522 -365.927578 
L 154.983486 -365.928634 
L 151.11279 -365.677648 
L 147.267435 -366.867403 
L 143.358728 -368.464191 
L 139.354997 -368.381045 
L 135.363936 -369.867814 
L 131.182824 -368.829374 
L 126.494911 -355.849271 
L 121.312866 -303.374544 
L 115.81407 -262.804237 
L 110.099884 -215.104813 
L 104.373028 -169.645177 
L 98.608161 -145.15618 
L 92.72293 -135.244437 
L 86.844033 -113.904827 
L 80.794091 -96.347414 
z
" style="stroke: #0000ff; stroke-opacity: 0.2"/>
    </defs>
    <g clip-path="url(#pf9bec95988)">
     <use xlink:href="#m46f7a6781c" x="0" y="432" style="fill: #0000ff; fill-opacity: 0.2; stroke: #0000ff; stroke-opacity: 0.2"/>
    </g>
   </g>
   <g id="FillBetweenPolyCollection_2">
    <defs>
     <path id="mb0c3365ce6" d="M 80.863776 -94.764834 
L 80.863776 -62.212702 
L 86.679323 -63.579212 
L 92.63424 -62.32962 
L 98.323086 -62.411983 
L 104.214652 -64.166279 
L 110.017529 -61.757021 
L 115.845745 -62.547155 
L 121.775322 -62.842452 
L 127.445163 -63.450225 
L 133.45076 -62.50859 
L 139.316987 -63.271616 
L 145.151539 -62.266198 
L 150.83405 -62.58616 
L 156.788967 -62.421554 
L 162.883254 -63.46275 
L 168.781156 -61.780336 
L 174.520682 -62.291797 
L 180.532614 -62.752642 
L 186.417846 -60.319121 
L 192.429778 -62.168827 
L 198.353019 -61.516823 
L 204.124221 -60.428472 
L 210.003118 -62.762872 
L 215.983375 -62.860029 
L 222.103002 -61.291609 
L 227.931218 -60.214974 
L 233.835455 -62.220254 
L 239.568646 -62.358703 
L 245.681939 -62.660649 
L 251.459475 -62.278337 
L 257.281357 -62.540631 
L 263.242609 -62.311185 
L 269.1025 -63.156371 
L 274.943387 -61.755697 
L 280.796943 -62.911879 
L 286.960916 -62.376195 
L 292.630757 -62.591581 
L 298.763054 -63.3905 
L 304.41389 -62.068464 
L 310.140747 -62.401593 
L 315.987968 -62.378869 
L 321.968225 -61.350875 
L 327.777437 -62.293248 
L 333.599318 -61.535316 
L 339.604915 -59.900363 
L 345.426797 -61.435286 
L 351.204333 -63.025693 
L 357.13391 -61.729685 
L 363.266207 -61.397801 
L 369.157774 -62.724509 
L 374.87196 -62.008508 
L 381.067608 -62.620985 
L 386.800799 -61.092469 
L 392.787391 -63.5599 
L 398.685293 -61.904297 
L 404.80492 -63.15586 
L 410.753502 -63.06935 
L 416.835119 -60.273618 
L 422.904067 -63.609782 
L 428.738618 -62.162143 
L 434.408459 -62.617893 
L 440.414056 -62.174041 
L 446.159918 -60.788317 
L 451.969129 -64.242207 
L 457.930381 -63.190695 
L 464.024668 -59.726914 
L 469.98592 -61.906077 
L 475.909162 -64.063979 
L 481.674028 -61.126351 
L 487.5846 -62.288032 
L 493.197426 -61.863849 
L 499.095328 -61.437253 
L 505.04391 -61.469029 
L 511.093852 -63.553475 
L 516.795368 -63.610994 
L 522.762955 -59.814488 
L 528.584837 -62.950158 
L 534.558758 -62.369865 
L 540.501005 -61.941782 
L 546.322887 -62.46617 
L 552.138433 -63.396306 
L 558.226386 -61.653257 
L 564.346013 -62.485351 
L 570.243915 -64.20581 
L 576.249512 -62.844854 
L 582.185424 -62.733571 
L 588.134005 -63.132656 
L 594.120597 -62.740069 
L 600.138865 -61.2685 
L 605.903731 -61.924242 
L 611.795298 -61.372524 
L 617.78189 -62.146241 
L 623.635446 -61.996034 
L 629.457328 -63.794878 
L 635.234864 -63.251271 
L 641.322816 -62.658458 
L 647.220718 -60.212829 
L 653.213645 -62.232159 
L 658.908826 -63.680541 
L 664.920758 -61.664066 
L 670.736305 -60.780568 
L 676.456826 -60.943274 
L 676.456826 -102.013886 
L 676.456826 -102.013886 
L 670.736305 -103.18196 
L 664.920758 -98.586233 
L 658.908826 -90.837132 
L 653.213645 -101.660922 
L 647.220718 -108.175123 
L 641.322816 -99.391761 
L 635.234864 -88.958783 
L 629.457328 -95.38067 
L 623.635446 -100.04844 
L 617.78189 -104.649697 
L 611.795298 -106.661574 
L 605.903731 -97.338019 
L 600.138865 -99.643475 
L 594.120597 -92.490653 
L 588.134005 -88.851855 
L 582.185424 -91.640968 
L 576.249512 -101.18141 
L 570.243915 -87.548176 
L 564.346013 -101.927744 
L 558.226386 -101.370324 
L 552.138433 -104.418237 
L 546.322887 -97.877913 
L 540.501005 -101.611149 
L 534.558758 -98.074764 
L 528.584837 -91.578388 
L 522.762955 -113.106877 
L 516.795368 -89.577212 
L 511.093852 -93.561225 
L 505.04391 -103.822384 
L 499.095328 -103.654733 
L 493.197426 -96.130334 
L 487.5846 -95.048683 
L 481.674028 -104.949386 
L 475.909162 -87.094495 
L 469.98592 -97.084995 
L 464.024668 -111.981615 
L 457.930381 -96.137372 
L 451.969129 -92.881214 
L 446.159918 -103.218563 
L 440.414056 -100.358797 
L 434.408459 -99.373703 
L 428.738618 -99.077845 
L 422.904067 -93.57032 
L 416.835119 -113.614428 
L 410.753502 -93.204749 
L 404.80492 -93.198333 
L 398.685293 -100.363422 
L 392.787391 -86.593415 
L 386.800799 -105.910921 
L 381.067608 -95.491268 
L 374.87196 -94.718293 
L 369.157774 -95.624353 
L 363.266207 -99.807351 
L 357.13391 -101.285159 
L 351.204333 -90.194292 
L 345.426797 -99.521283 
L 339.604915 -110.520607 
L 333.599318 -98.496237 
L 327.777437 -93.565477 
L 321.968225 -103.503402 
L 315.987968 -97.897578 
L 310.140747 -97.976048 
L 304.41389 -98.990883 
L 298.763054 -94.594411 
L 292.630757 -99.636705 
L 286.960916 -96.646543 
L 280.796943 -94.384966 
L 274.943387 -97.520883 
L 269.1025 -93.256655 
L 263.242609 -97.674868 
L 257.281357 -92.552329 
L 251.459475 -98.071279 
L 245.681939 -95.18773 
L 239.568646 -100.744633 
L 233.835455 -100.577445 
L 227.931218 -109.687212 
L 222.103002 -99.852154 
L 215.983375 -94.408921 
L 210.003118 -98.325423 
L 204.124221 -104.236167 
L 198.353019 -105.105578 
L 192.429778 -103.338064 
L 186.417846 -106.897983 
L 180.532614 -95.499476 
L 174.520682 -98.84271 
L 168.781156 -98.72264 
L 162.883254 -92.132813 
L 156.788967 -94.043153 
L 150.83405 -96.725629 
L 145.151539 -101.785081 
L 139.316987 -87.88079 
L 133.45076 -96.783038 
L 127.445163 -91.942336 
L 121.775322 -91.187958 
L 115.845745 -95.480392 
L 110.017529 -101.180528 
L 104.214652 -87.309141 
L 98.323086 -104.762307 
L 92.63424 -93.743839 
L 86.679323 -86.847492 
L 80.863776 -94.764834 
z
" style="stroke: #ffa500; stroke-opacity: 0.2"/>
    </defs>
    <g clip-path="url(#pf9bec95988)">
     <use xlink:href="#mb0c3365ce6" x="0" y="432" style="fill: #ffa500; fill-opacity: 0.2; stroke: #ffa500; stroke-opacity: 0.2"/>
    </g>
   </g>
   <g id="matplotlib.axis_1">
    <g id="xtick_1">
     <g id="line2d_1">
      <path d="M 77.930663 390.04 
L 77.930663 10.8 
" clip-path="url(#pf9bec95988)" style="fill: none; stroke: #b0b0b0; stroke-width: 0.8; stroke-linecap: square"/>
     </g>
     <g id="line2d_2">
      <defs>
       <path id="m265f625f9b" d="M 0 0 
L 0 3.5 
" style="stroke: #000000; stroke-width: 0.8"/>
      </defs>
      <g>
       <use xlink:href="#m265f625f9b" x="77.930663" y="390.04" style="stroke: #000000; stroke-width: 0.8"/>
      </g>
     </g>
     <g id="text_1">
      <!-- 0 -->
      <g transform="translate(74.749413 404.638438) scale(0.1 -0.1)">
       <defs>
        <path id="DejaVuSans-30" d="M 2034 4250 
Q 1547 4250 1301 3770 
Q 1056 3291 1056 2328 
Q 1056 1369 1301 889 
Q 1547 409 2034 409 
Q 2525 409 2770 889 
Q 3016 1369 3016 2328 
Q 3016 3291 2770 3770 
Q 2525 4250 2034 4250 
z
M 2034 4750 
Q 2819 4750 3233 4129 
Q 3647 3509 3647 2328 
Q 3647 1150 3233 529 
Q 2819 -91 2034 -91 
Q 1250 -91 836 529 
Q 422 1150 422 2328 
Q 422 3509 836 4129 
Q 1250 4750 2034 4750 
z
" transform="scale(0.015625)"/>
       </defs>
       <use xlink:href="#DejaVuSans-30"/>
      </g>
     </g>
    </g>
    <g id="xtick_2">
     <g id="line2d_3">
      <path d="M 204.631022 390.04 
L 204.631022 10.8 
" clip-path="url(#pf9bec95988)" style="fill: none; stroke: #b0b0b0; stroke-width: 0.8; stroke-linecap: square"/>
     </g>
     <g id="line2d_4">
      <g>
       <use xlink:href="#m265f625f9b" x="204.631022" y="390.04" style="stroke: #000000; stroke-width: 0.8"/>
      </g>
     </g>
     <g id="text_2">
      <!-- 20000 -->
      <g transform="translate(188.724772 404.638438) scale(0.1 -0.1)">
       <defs>
        <path id="DejaVuSans-32" d="M 1228 531 
L 3431 531 
L 3431 0 
L 469 0 
L 469 531 
Q 828 903 1448 1529 
Q 2069 2156 2228 2338 
Q 2531 2678 2651 2914 
Q 2772 3150 2772 3378 
Q 2772 3750 2511 3984 
Q 2250 4219 1831 4219 
Q 1534 4219 1204 4116 
Q 875 4013 500 3803 
L 500 4441 
Q 881 4594 1212 4672 
Q 1544 4750 1819 4750 
Q 2544 4750 2975 4387 
Q 3406 4025 3406 3419 
Q 3406 3131 3298 2873 
Q 3191 2616 2906 2266 
Q 2828 2175 2409 1742 
Q 1991 1309 1228 531 
z
" transform="scale(0.015625)"/>
       </defs>
       <use xlink:href="#DejaVuSans-32"/>
       <use xlink:href="#DejaVuSans-30" transform="translate(63.623047 0)"/>
       <use xlink:href="#DejaVuSans-30" transform="translate(127.246094 0)"/>
       <use xlink:href="#DejaVuSans-30" transform="translate(190.869141 0)"/>
       <use xlink:href="#DejaVuSans-30" transform="translate(254.492188 0)"/>
      </g>
     </g>
    </g>
    <g id="xtick_3">
     <g id="line2d_5">
      <path d="M 331.331382 390.04 
L 331.331382 10.8 
" clip-path="url(#pf9bec95988)" style="fill: none; stroke: #b0b0b0; stroke-width: 0.8; stroke-linecap: square"/>
     </g>
     <g id="line2d_6">
      <g>
       <use xlink:href="#m265f625f9b" x="331.331382" y="390.04" style="stroke: #000000; stroke-width: 0.8"/>
      </g>
     </g>
     <g id="text_3">
      <!-- 40000 -->
      <g transform="translate(315.425132 404.638438) scale(0.1 -0.1)">
       <defs>
        <path id="DejaVuSans-34" d="M 2419 4116 
L 825 1625 
L 2419 1625 
L 2419 4116 
z
M 2253 4666 
L 3047 4666 
L 3047 1625 
L 3713 1625 
L 3713 1100 
L 3047 1100 
L 3047 0 
L 2419 0 
L 2419 1100 
L 313 1100 
L 313 1709 
L 2253 4666 
z
" transform="scale(0.015625)"/>
       </defs>
       <use xlink:href="#DejaVuSans-34"/>
       <use xlink:href="#DejaVuSans-30" transform="translate(63.623047 0)"/>
       <use xlink:href="#DejaVuSans-30" transform="translate(127.246094 0)"/>
       <use xlink:href="#DejaVuSans-30" transform="translate(190.869141 0)"/>
       <use xlink:href="#DejaVuSans-30" transform="translate(254.492188 0)"/>
      </g>
     </g>
    </g>
    <g id="xtick_4">
     <g id="line2d_7">
      <path d="M 458.031741 390.04 
L 458.031741 10.8 
" clip-path="url(#pf9bec95988)" style="fill: none; stroke: #b0b0b0; stroke-width: 0.8; stroke-linecap: square"/>
     </g>
     <g id="line2d_8">
      <g>
       <use xlink:href="#m265f625f9b" x="458.031741" y="390.04" style="stroke: #000000; stroke-width: 0.8"/>
      </g>
     </g>
     <g id="text_4">
      <!-- 60000 -->
      <g transform="translate(442.125491 404.638438) scale(0.1 -0.1)">
       <defs>
        <path id="DejaVuSans-36" d="M 2113 2584 
Q 1688 2584 1439 2293 
Q 1191 2003 1191 1497 
Q 1191 994 1439 701 
Q 1688 409 2113 409 
Q 2538 409 2786 701 
Q 3034 994 3034 1497 
Q 3034 2003 2786 2293 
Q 2538 2584 2113 2584 
z
M 3366 4563 
L 3366 3988 
Q 3128 4100 2886 4159 
Q 2644 4219 2406 4219 
Q 1781 4219 1451 3797 
Q 1122 3375 1075 2522 
Q 1259 2794 1537 2939 
Q 1816 3084 2150 3084 
Q 2853 3084 3261 2657 
Q 3669 2231 3669 1497 
Q 3669 778 3244 343 
Q 2819 -91 2113 -91 
Q 1303 -91 875 529 
Q 447 1150 447 2328 
Q 447 3434 972 4092 
Q 1497 4750 2381 4750 
Q 2619 4750 2861 4703 
Q 3103 4656 3366 4563 
z
" transform="scale(0.015625)"/>
       </defs>
       <use xlink:href="#DejaVuSans-36"/>
       <use xlink:href="#DejaVuSans-30" transform="translate(63.623047 0)"/>
       <use xlink:href="#DejaVuSans-30" transform="translate(127.246094 0)"/>
       <use xlink:href="#DejaVuSans-30" transform="translate(190.869141 0)"/>
       <use xlink:href="#DejaVuSans-30" transform="translate(254.492188 0)"/>
      </g>
     </g>
    </g>
    <g id="xtick_5">
     <g id="line2d_9">
      <path d="M 584.732101 390.04 
L 584.732101 10.8 
" clip-path="url(#pf9bec95988)" style="fill: none; stroke: #b0b0b0; stroke-width: 0.8; stroke-linecap: square"/>
     </g>
     <g id="line2d_10">
      <g>
       <use xlink:href="#m265f625f9b" x="584.732101" y="390.04" style="stroke: #000000; stroke-width: 0.8"/>
      </g>
     </g>
     <g id="text_5">
      <!-- 80000 -->
      <g transform="translate(568.825851 404.638438) scale(0.1 -0.1)">
       <defs>
        <path id="DejaVuSans-38" d="M 2034 2216 
Q 1584 2216 1326 1975 
Q 1069 1734 1069 1313 
Q 1069 891 1326 650 
Q 1584 409 2034 409 
Q 2484 409 2743 651 
Q 3003 894 3003 1313 
Q 3003 1734 2745 1975 
Q 2488 2216 2034 2216 
z
M 1403 2484 
Q 997 2584 770 2862 
Q 544 3141 544 3541 
Q 544 4100 942 4425 
Q 1341 4750 2034 4750 
Q 2731 4750 3128 4425 
Q 3525 4100 3525 3541 
Q 3525 3141 3298 2862 
Q 3072 2584 2669 2484 
Q 3125 2378 3379 2068 
Q 3634 1759 3634 1313 
Q 3634 634 3220 271 
Q 2806 -91 2034 -91 
Q 1263 -91 848 271 
Q 434 634 434 1313 
Q 434 1759 690 2068 
Q 947 2378 1403 2484 
z
M 1172 3481 
Q 1172 3119 1398 2916 
Q 1625 2713 2034 2713 
Q 2441 2713 2670 2916 
Q 2900 3119 2900 3481 
Q 2900 3844 2670 4047 
Q 2441 4250 2034 4250 
Q 1625 4250 1398 4047 
Q 1172 3844 1172 3481 
z
" transform="scale(0.015625)"/>
       </defs>
       <use xlink:href="#DejaVuSans-38"/>
       <use xlink:href="#DejaVuSans-30" transform="translate(63.623047 0)"/>
       <use xlink:href="#DejaVuSans-30" transform="translate(127.246094 0)"/>
       <use xlink:href="#DejaVuSans-30" transform="translate(190.869141 0)"/>
       <use xlink:href="#DejaVuSans-30" transform="translate(254.492188 0)"/>
      </g>
     </g>
    </g>
    <g id="text_6">
     <!-- Steps -->
     <g transform="translate(366.045156 418.316562) scale(0.1 -0.1)">
      <defs>
       <path id="DejaVuSans-53" d="M 3425 4513 
L 3425 3897 
Q 3066 4069 2747 4153 
Q 2428 4238 2131 4238 
Q 1616 4238 1336 4038 
Q 1056 3838 1056 3469 
Q 1056 3159 1242 3001 
Q 1428 2844 1947 2747 
L 2328 2669 
Q 3034 2534 3370 2195 
Q 3706 1856 3706 1288 
Q 3706 609 3251 259 
Q 2797 -91 1919 -91 
Q 1588 -91 1214 -16 
Q 841 59 441 206 
L 441 856 
Q 825 641 1194 531 
Q 1563 422 1919 422 
Q 2459 422 2753 634 
Q 3047 847 3047 1241 
Q 3047 1584 2836 1778 
Q 2625 1972 2144 2069 
L 1759 2144 
Q 1053 2284 737 2584 
Q 422 2884 422 3419 
Q 422 4038 858 4394 
Q 1294 4750 2059 4750 
Q 2388 4750 2728 4690 
Q 3069 4631 3425 4513 
z
" transform="scale(0.015625)"/>
       <path id="DejaVuSans-74" d="M 1172 4494 
L 1172 3500 
L 2356 3500 
L 2356 3053 
L 1172 3053 
L 1172 1153 
Q 1172 725 1289 603 
Q 1406 481 1766 481 
L 2356 481 
L 2356 0 
L 1766 0 
Q 1100 0 847 248 
Q 594 497 594 1153 
L 594 3053 
L 172 3053 
L 172 3500 
L 594 3500 
L 594 4494 
L 1172 4494 
z
" transform="scale(0.015625)"/>
       <path id="DejaVuSans-65" d="M 3597 1894 
L 3597 1613 
L 953 1613 
Q 991 1019 1311 708 
Q 1631 397 2203 397 
Q 2534 397 2845 478 
Q 3156 559 3463 722 
L 3463 178 
Q 3153 47 2828 -22 
Q 2503 -91 2169 -91 
Q 1331 -91 842 396 
Q 353 884 353 1716 
Q 353 2575 817 3079 
Q 1281 3584 2069 3584 
Q 2775 3584 3186 3129 
Q 3597 2675 3597 1894 
z
M 3022 2063 
Q 3016 2534 2758 2815 
Q 2500 3097 2075 3097 
Q 1594 3097 1305 2825 
Q 1016 2553 972 2059 
L 3022 2063 
z
" transform="scale(0.015625)"/>
       <path id="DejaVuSans-70" d="M 1159 525 
L 1159 -1331 
L 581 -1331 
L 581 3500 
L 1159 3500 
L 1159 2969 
Q 1341 3281 1617 3432 
Q 1894 3584 2278 3584 
Q 2916 3584 3314 3078 
Q 3713 2572 3713 1747 
Q 3713 922 3314 415 
Q 2916 -91 2278 -91 
Q 1894 -91 1617 61 
Q 1341 213 1159 525 
z
M 3116 1747 
Q 3116 2381 2855 2742 
Q 2594 3103 2138 3103 
Q 1681 3103 1420 2742 
Q 1159 2381 1159 1747 
Q 1159 1113 1420 752 
Q 1681 391 2138 391 
Q 2594 391 2855 752 
Q 3116 1113 3116 1747 
z
" transform="scale(0.015625)"/>
       <path id="DejaVuSans-73" d="M 2834 3397 
L 2834 2853 
Q 2591 2978 2328 3040 
Q 2066 3103 1784 3103 
Q 1356 3103 1142 2972 
Q 928 2841 928 2578 
Q 928 2378 1081 2264 
Q 1234 2150 1697 2047 
L 1894 2003 
Q 2506 1872 2764 1633 
Q 3022 1394 3022 966 
Q 3022 478 2636 193 
Q 2250 -91 1575 -91 
Q 1294 -91 989 -36 
Q 684 19 347 128 
L 347 722 
Q 666 556 975 473 
Q 1284 391 1588 391 
Q 1994 391 2212 530 
Q 2431 669 2431 922 
Q 2431 1156 2273 1281 
Q 2116 1406 1581 1522 
L 1381 1569 
Q 847 1681 609 1914 
Q 372 2147 372 2553 
Q 372 3047 722 3315 
Q 1072 3584 1716 3584 
Q 2034 3584 2315 3537 
Q 2597 3491 2834 3397 
z
" transform="scale(0.015625)"/>
      </defs>
      <use xlink:href="#DejaVuSans-53"/>
      <use xlink:href="#DejaVuSans-74" transform="translate(63.476562 0)"/>
      <use xlink:href="#DejaVuSans-65" transform="translate(102.685547 0)"/>
      <use xlink:href="#DejaVuSans-70" transform="translate(164.208984 0)"/>
      <use xlink:href="#DejaVuSans-73" transform="translate(227.685547 0)"/>
     </g>
    </g>
   </g>
   <g id="matplotlib.axis_2">
    <g id="ytick_1">
     <g id="line2d_11">
      <path d="M 50.87 372.801818 
L 709.2 372.801818 
" clip-path="url(#pf9bec95988)" style="fill: none; stroke: #b0b0b0; stroke-width: 0.8; stroke-linecap: square"/>
     </g>
     <g id="line2d_12">
      <defs>
       <path id="m3bd6dcf85a" d="M 0 0 
L -3.5 0 
" style="stroke: #000000; stroke-width: 0.8"/>
      </defs>
      <g>
       <use xlink:href="#m3bd6dcf85a" x="50.87" y="372.801818" style="stroke: #000000; stroke-width: 0.8"/>
      </g>
     </g>
     <g id="text_7">
      <!-- 0 -->
      <g transform="translate(37.5075 376.601037) scale(0.1 -0.1)">
       <use xlink:href="#DejaVuSans-30"/>
      </g>
     </g>
    </g>
    <g id="ytick_2">
     <g id="line2d_13">
      <path d="M 50.87 314.551481 
L 709.2 314.551481 
" clip-path="url(#pf9bec95988)" style="fill: none; stroke: #b0b0b0; stroke-width: 0.8; stroke-linecap: square"/>
     </g>
     <g id="line2d_14">
      <g>
       <use xlink:href="#m3bd6dcf85a" x="50.87" y="314.551481" style="stroke: #000000; stroke-width: 0.8"/>
      </g>
     </g>
     <g id="text_8">
      <!-- 20 -->
      <g transform="translate(31.145 318.3507) scale(0.1 -0.1)">
       <use xlink:href="#DejaVuSans-32"/>
       <use xlink:href="#DejaVuSans-30" transform="translate(63.623047 0)"/>
      </g>
     </g>
    </g>
    <g id="ytick_3">
     <g id="line2d_15">
      <path d="M 50.87 256.301144 
L 709.2 256.301144 
" clip-path="url(#pf9bec95988)" style="fill: none; stroke: #b0b0b0; stroke-width: 0.8; stroke-linecap: square"/>
     </g>
     <g id="line2d_16">
      <g>
       <use xlink:href="#m3bd6dcf85a" x="50.87" y="256.301144" style="stroke: #000000; stroke-width: 0.8"/>
      </g>
     </g>
     <g id="text_9">
      <!-- 40 -->
      <g transform="translate(31.145 260.100363) scale(0.1 -0.1)">
       <use xlink:href="#DejaVuSans-34"/>
       <use xlink:href="#DejaVuSans-30" transform="translate(63.623047 0)"/>
      </g>
     </g>
    </g>
    <g id="ytick_4">
     <g id="line2d_17">
      <path d="M 50.87 198.050807 
L 709.2 198.050807 
" clip-path="url(#pf9bec95988)" style="fill: none; stroke: #b0b0b0; stroke-width: 0.8; stroke-linecap: square"/>
     </g>
     <g id="line2d_18">
      <g>
       <use xlink:href="#m3bd6dcf85a" x="50.87" y="198.050807" style="stroke: #000000; stroke-width: 0.8"/>
      </g>
     </g>
     <g id="text_10">
      <!-- 60 -->
      <g transform="translate(31.145 201.850025) scale(0.1 -0.1)">
       <use xlink:href="#DejaVuSans-36"/>
       <use xlink:href="#DejaVuSans-30" transform="translate(63.623047 0)"/>
      </g>
     </g>
    </g>
    <g id="ytick_5">
     <g id="line2d_19">
      <path d="M 50.87 139.80047 
L 709.2 139.80047 
" clip-path="url(#pf9bec95988)" style="fill: none; stroke: #b0b0b0; stroke-width: 0.8; stroke-linecap: square"/>
     </g>
     <g id="line2d_20">
      <g>
       <use xlink:href="#m3bd6dcf85a" x="50.87" y="139.80047" style="stroke: #000000; stroke-width: 0.8"/>
      </g>
     </g>
     <g id="text_11">
      <!-- 80 -->
      <g transform="translate(31.145 143.599688) scale(0.1 -0.1)">
       <use xlink:href="#DejaVuSans-38"/>
       <use xlink:href="#DejaVuSans-30" transform="translate(63.623047 0)"/>
      </g>
     </g>
    </g>
    <g id="ytick_6">
     <g id="line2d_21">
      <path d="M 50.87 81.550132 
L 709.2 81.550132 
" clip-path="url(#pf9bec95988)" style="fill: none; stroke: #b0b0b0; stroke-width: 0.8; stroke-linecap: square"/>
     </g>
     <g id="line2d_22">
      <g>
       <use xlink:href="#m3bd6dcf85a" x="50.87" y="81.550132" style="stroke: #000000; stroke-width: 0.8"/>
      </g>
     </g>
     <g id="text_12">
      <!-- 100 -->
      <g transform="translate(24.7825 85.349351) scale(0.1 -0.1)">
       <defs>
        <path id="DejaVuSans-31" d="M 794 531 
L 1825 531 
L 1825 4091 
L 703 3866 
L 703 4441 
L 1819 4666 
L 2450 4666 
L 2450 531 
L 3481 531 
L 3481 0 
L 794 0 
L 794 531 
z
" transform="scale(0.015625)"/>
       </defs>
       <use xlink:href="#DejaVuSans-31"/>
       <use xlink:href="#DejaVuSans-30" transform="translate(63.623047 0)"/>
       <use xlink:href="#DejaVuSans-30" transform="translate(127.246094 0)"/>
      </g>
     </g>
    </g>
    <g id="ytick_7">
     <g id="line2d_23">
      <path d="M 50.87 23.299795 
L 709.2 23.299795 
" clip-path="url(#pf9bec95988)" style="fill: none; stroke: #b0b0b0; stroke-width: 0.8; stroke-linecap: square"/>
     </g>
     <g id="line2d_24">
      <g>
       <use xlink:href="#m3bd6dcf85a" x="50.87" y="23.299795" style="stroke: #000000; stroke-width: 0.8"/>
      </g>
     </g>
     <g id="text_13">
      <!-- 120 -->
      <g transform="translate(24.7825 27.099014) scale(0.1 -0.1)">
       <use xlink:href="#DejaVuSans-31"/>
       <use xlink:href="#DejaVuSans-32" transform="translate(63.623047 0)"/>
       <use xlink:href="#DejaVuSans-30" transform="translate(127.246094 0)"/>
      </g>
     </g>
    </g>
    <g id="text_14">
     <!-- Reward -->
     <g transform="translate(18.702813 219.041094) rotate(-90) scale(0.1 -0.1)">
      <defs>
       <path id="DejaVuSans-52" d="M 2841 2188 
Q 3044 2119 3236 1894 
Q 3428 1669 3622 1275 
L 4263 0 
L 3584 0 
L 2988 1197 
Q 2756 1666 2539 1819 
Q 2322 1972 1947 1972 
L 1259 1972 
L 1259 0 
L 628 0 
L 628 4666 
L 2053 4666 
Q 2853 4666 3247 4331 
Q 3641 3997 3641 3322 
Q 3641 2881 3436 2590 
Q 3231 2300 2841 2188 
z
M 1259 4147 
L 1259 2491 
L 2053 2491 
Q 2509 2491 2742 2702 
Q 2975 2913 2975 3322 
Q 2975 3731 2742 3939 
Q 2509 4147 2053 4147 
L 1259 4147 
z
" transform="scale(0.015625)"/>
       <path id="DejaVuSans-77" d="M 269 3500 
L 844 3500 
L 1563 769 
L 2278 3500 
L 2956 3500 
L 3675 769 
L 4391 3500 
L 4966 3500 
L 4050 0 
L 3372 0 
L 2619 2869 
L 1863 0 
L 1184 0 
L 269 3500 
z
" transform="scale(0.015625)"/>
       <path id="DejaVuSans-61" d="M 2194 1759 
Q 1497 1759 1228 1600 
Q 959 1441 959 1056 
Q 959 750 1161 570 
Q 1363 391 1709 391 
Q 2188 391 2477 730 
Q 2766 1069 2766 1631 
L 2766 1759 
L 2194 1759 
z
M 3341 1997 
L 3341 0 
L 2766 0 
L 2766 531 
Q 2569 213 2275 61 
Q 1981 -91 1556 -91 
Q 1019 -91 701 211 
Q 384 513 384 1019 
Q 384 1609 779 1909 
Q 1175 2209 1959 2209 
L 2766 2209 
L 2766 2266 
Q 2766 2663 2505 2880 
Q 2244 3097 1772 3097 
Q 1472 3097 1187 3025 
Q 903 2953 641 2809 
L 641 3341 
Q 956 3463 1253 3523 
Q 1550 3584 1831 3584 
Q 2591 3584 2966 3190 
Q 3341 2797 3341 1997 
z
" transform="scale(0.015625)"/>
       <path id="DejaVuSans-72" d="M 2631 2963 
Q 2534 3019 2420 3045 
Q 2306 3072 2169 3072 
Q 1681 3072 1420 2755 
Q 1159 2438 1159 1844 
L 1159 0 
L 581 0 
L 581 3500 
L 1159 3500 
L 1159 2956 
Q 1341 3275 1631 3429 
Q 1922 3584 2338 3584 
Q 2397 3584 2469 3576 
Q 2541 3569 2628 3553 
L 2631 2963 
z
" transform="scale(0.015625)"/>
       <path id="DejaVuSans-64" d="M 2906 2969 
L 2906 4863 
L 3481 4863 
L 3481 0 
L 2906 0 
L 2906 525 
Q 2725 213 2448 61 
Q 2172 -91 1784 -91 
Q 1150 -91 751 415 
Q 353 922 353 1747 
Q 353 2572 751 3078 
Q 1150 3584 1784 3584 
Q 2172 3584 2448 3432 
Q 2725 3281 2906 2969 
z
M 947 1747 
Q 947 1113 1208 752 
Q 1469 391 1925 391 
Q 2381 391 2643 752 
Q 2906 1113 2906 1747 
Q 2906 2381 2643 2742 
Q 2381 3103 1925 3103 
Q 1469 3103 1208 2742 
Q 947 2381 947 1747 
z
" transform="scale(0.015625)"/>
      </defs>
      <use xlink:href="#DejaVuSans-52"/>
      <use xlink:href="#DejaVuSans-65" transform="translate(64.982422 0)"/>
      <use xlink:href="#DejaVuSans-77" transform="translate(126.505859 0)"/>
      <use xlink:href="#DejaVuSans-61" transform="translate(208.292969 0)"/>
      <use xlink:href="#DejaVuSans-72" transform="translate(269.572266 0)"/>
      <use xlink:href="#DejaVuSans-64" transform="translate(308.935547 0)"/>
     </g>
    </g>
   </g>
   <g id="line2d_25">
    <path d="M 80.794091 352.65822 
L 86.844033 344.037858 
L 92.72293 333.55571 
L 98.608161 329.005954 
L 104.373028 318.07654 
L 110.099884 293.079185 
L 115.81407 266.552984 
L 121.312866 238.01591 
L 126.494911 181.164236 
L 131.182824 139.152345 
L 135.363936 113.304478 
L 139.354997 83.017774 
L 143.358728 81.547293 
L 147.267435 77.666979 
L 151.11279 78.124179 
L 154.983486 73.740542 
L 158.879522 73.735777 
L 162.731213 74.707926 
L 166.544894 70.318586 
L 170.35224 70.815153 
L 174.184926 72.783885 
L 181.799618 69.825901 
L 185.613298 68.850167 
L 193.246995 69.831872 
L 197.048006 69.838845 
L 200.855352 71.788792 
L 204.694372 69.829315 
L 208.501718 69.335821 
L 212.302729 69.830334 
L 216.11641 69.823272 
L 219.942761 69.347043 
L 223.769112 73.289733 
L 227.589127 68.849261 
L 231.396473 69.851612 
L 235.210154 69.343014 
L 239.023835 70.329338 
L 242.824846 68.859698 
L 246.651197 69.336161 
L 250.452207 68.363089 
L 254.253218 70.320026 
L 258.060564 68.363275 
L 261.848905 69.822349 
L 265.649915 68.848808 
L 269.457261 68.849075 
L 273.251937 70.80496 
L 277.046613 72.28985 
L 280.841289 69.822374 
L 284.661304 68.363089 
L 288.462315 69.345481 
L 292.269661 68.85092 
L 296.070672 68.860507 
L 299.871683 69.336234 
L 307.492709 69.336145 
L 311.29372 70.327711 
L 315.107401 68.364206 
L 318.940087 69.342439 
L 322.779108 69.822819 
L 326.586453 69.820343 
L 330.387464 71.278211 
L 334.188475 70.792444 
L 337.989486 69.821953 
L 341.790496 69.343985 
L 345.591507 70.305803 
L 349.392518 68.833946 
L 353.212534 72.226349 
L 357.013545 69.794074 
L 360.82089 69.304633 
L 364.621901 69.304439 
L 368.422912 74.64945 
L 372.223923 78.549035 
L 376.037604 118.396618 
L 379.838614 153.395775 
L 383.63329 161.184225 
L 387.440636 161.66013 
L 391.241647 165.548761 
L 395.036323 164.090455 
L 398.824663 167.007276 
L 402.619339 164.577671 
L 406.414015 165.062581 
L 410.208691 168.488558 
L 414.168077 165.565063 
L 418.057778 164.091968 
L 421.915804 165.563493 
L 425.868855 168.00703 
L 429.726881 166.042918 
L 433.553232 171.426131 
L 437.537958 166.532164 
L 441.452999 167.02209 
L 445.450396 167.024962 
L 449.441457 165.551544 
L 453.293148 166.530716 
L 457.195519 167.021985 
L 461.08522 167.019145 
L 464.936911 174.368315 
L 468.832947 169.960916 
L 472.703643 168.494763 
L 476.529994 174.366826 
L 480.343675 168.979617 
L 484.157355 169.471071 
L 487.964701 166.043444 
L 491.765712 166.038703 
L 495.566723 165.550039 
L 499.367734 165.549853 
L 503.168744 166.039261 
L 506.969755 165.550411 
L 510.777101 166.529041 
L 514.578112 166.528855 
L 518.379123 183.073019 
L 521.571972 234.587246 
L 524.315034 253.547869 
L 526.963072 255.016651 
L 529.611109 257.437017 
L 532.202132 256.950756 
L 534.761479 262.78473 
L 537.308156 264.72945 
L 539.854833 281.259593 
L 542.388841 329.391385 
L 544.929183 344.949144 
L 547.46319 356.617463 
L 552.531204 359.534543 
L 555.065212 360.020723 
L 557.605554 358.076027 
L 560.139561 359.534543 
L 562.673568 359.534543 
L 565.207575 360.020723 
L 567.741583 360.020723 
L 570.281925 359.048363 
L 572.815932 360.020723 
L 585.485968 360.020723 
L 588.019975 359.534543 
L 590.560317 359.534543 
L 593.10066 360.020723 
L 595.634667 358.076003 
L 598.168674 360.020723 
L 610.83871 360.020723 
L 613.372717 359.534543 
L 615.906724 359.534575 
L 618.440731 360.020723 
L 631.110767 360.020723 
L 633.65111 359.048363 
L 638.719124 360.020723 
L 641.253131 360.020723 
L 643.787138 359.534575 
L 646.321146 360.020723 
L 661.525189 360.022786 
L 664.071866 359.53477 
L 666.605873 360.020723 
L 679.275909 360.020723 
L 679.275909 360.020723 
" clip-path="url(#pf9bec95988)" style="fill: none; stroke: #0000ff; stroke-width: 1.5; stroke-linecap: square"/>
   </g>
   <g id="line2d_26">
    <path d="M 80.863776 353.511232 
L 86.679323 356.786648 
L 92.63424 353.963271 
L 98.323086 348.412855 
L 104.214652 356.26229 
L 110.017529 350.531225 
L 115.845745 352.986226 
L 121.775322 354.984795 
L 127.445163 354.303719 
L 133.45076 352.354186 
L 139.316987 356.423797 
L 145.151539 349.97436 
L 150.83405 352.344105 
L 156.788967 353.767646 
L 162.883254 354.202218 
L 168.781156 351.748512 
L 174.520682 351.432746 
L 180.532614 352.873941 
L 186.417846 348.391448 
L 192.429778 349.246555 
L 198.353019 348.6888 
L 204.124221 349.66768 
L 210.003118 351.455852 
L 215.983375 353.365525 
L 222.103002 351.428119 
L 227.931218 347.048907 
L 233.835455 350.60115 
L 239.568646 350.448332 
L 245.681939 353.07581 
L 251.459475 351.825192 
L 257.281357 354.45352 
L 263.242609 352.006973 
L 269.1025 353.793487 
L 274.943387 352.36171 
L 280.796943 353.351577 
L 286.960916 352.488631 
L 292.630757 350.885857 
L 298.763054 353.007544 
L 304.41389 351.470326 
L 310.140747 351.811179 
L 315.987968 351.861776 
L 321.968225 349.572862 
L 327.777437 354.070637 
L 333.599318 351.984223 
L 339.604915 346.789515 
L 345.426797 351.521716 
L 351.204333 355.390007 
L 357.13391 350.492578 
L 363.266207 351.397424 
L 369.157774 352.825569 
L 374.87196 353.636599 
L 381.067608 352.943873 
L 386.800799 348.498305 
L 392.787391 356.923342 
L 398.685293 350.866141 
L 404.80492 353.822903 
L 410.753502 353.862951 
L 416.835119 345.055977 
L 422.904067 353.409949 
L 428.738618 351.380006 
L 434.408459 351.004202 
L 440.414056 350.733581 
L 446.159918 349.99656 
L 451.969129 353.438289 
L 457.930381 352.335966 
L 464.024668 346.145736 
L 469.98592 352.504464 
L 475.909162 356.420763 
L 481.674028 348.962131 
L 487.5846 353.331643 
L 493.197426 353.002909 
L 499.095328 349.454007 
L 505.04391 349.354294 
L 511.093852 353.44265 
L 516.795368 355.405897 
L 522.762955 345.539317 
L 528.584837 354.735727 
L 534.558758 351.777686 
L 540.501005 350.223534 
L 546.322887 351.827959 
L 552.138433 348.092729 
L 558.226386 350.488209 
L 564.346013 349.793453 
L 570.243915 356.123007 
L 576.249512 349.986868 
L 582.185424 354.81273 
L 588.134005 356.007744 
L 594.120597 354.384639 
L 600.138865 351.544013 
L 605.903731 352.36887 
L 611.795298 347.982951 
L 617.78189 348.602031 
L 623.635446 350.977763 
L 629.457328 352.412226 
L 635.234864 355.894973 
L 641.322816 350.974891 
L 647.220718 347.806024 
L 653.213645 350.053459 
L 658.908826 354.741163 
L 664.920758 351.87485 
L 670.736305 350.018736 
L 676.456826 350.52142 
" clip-path="url(#pf9bec95988)" style="fill: none; stroke: #ffa500; stroke-width: 1.5; stroke-linecap: square"/>
   </g>
   <g id="patch_3">
    <path d="M 50.87 390.04 
L 50.87 10.8 
" style="fill: none; stroke: #000000; stroke-width: 0.8; stroke-linejoin: miter; stroke-linecap: square"/>
   </g>
   <g id="patch_4">
    <path d="M 709.2 390.04 
L 709.2 10.8 
" style="fill: none; stroke: #000000; stroke-width: 0.8; stroke-linejoin: miter; stroke-linecap: square"/>
   </g>
   <g id="patch_5">
    <path d="M 50.87 390.04 
L 709.2 390.04 
" style="fill: none; stroke: #000000; stroke-width: 0.8; stroke-linejoin: miter; stroke-linecap: square"/>
   </g>
   <g id="patch_6">
    <path d="M 50.87 10.8 
L 709.2 10.8 
" style="fill: none; stroke: #000000; stroke-width: 0.8; stroke-linejoin: miter; stroke-linecap: square"/>
   </g>
   <g id="legend_1">
    <g id="patch_7">
     <path d="M 628.803125 385.04 
L 702.2 385.04 
Q 704.2 385.04 704.2 383.04 
L 704.2 340.005625 
Q 704.2 338.005625 702.2 338.005625 
L 628.803125 338.005625 
Q 626.803125 338.005625 626.803125 340.005625 
L 626.803125 383.04 
Q 626.803125 385.04 628.803125 385.04 
z
" style="fill: #ffffff; opacity: 0.8; stroke: #cccccc; stroke-linejoin: miter"/>
    </g>
    <g id="text_15">
     <!-- Agent -->
     <g transform="translate(650.701563 349.604062) scale(0.1 -0.1)">
      <defs>
       <path id="DejaVuSans-41" d="M 2188 4044 
L 1331 1722 
L 3047 1722 
L 2188 4044 
z
M 1831 4666 
L 2547 4666 
L 4325 0 
L 3669 0 
L 3244 1197 
L 1141 1197 
L 716 0 
L 50 0 
L 1831 4666 
z
" transform="scale(0.015625)"/>
       <path id="DejaVuSans-67" d="M 2906 1791 
Q 2906 2416 2648 2759 
Q 2391 3103 1925 3103 
Q 1463 3103 1205 2759 
Q 947 2416 947 1791 
Q 947 1169 1205 825 
Q 1463 481 1925 481 
Q 2391 481 2648 825 
Q 2906 1169 2906 1791 
z
M 3481 434 
Q 3481 -459 3084 -895 
Q 2688 -1331 1869 -1331 
Q 1566 -1331 1297 -1286 
Q 1028 -1241 775 -1147 
L 775 -588 
Q 1028 -725 1275 -790 
Q 1522 -856 1778 -856 
Q 2344 -856 2625 -561 
Q 2906 -266 2906 331 
L 2906 616 
Q 2728 306 2450 153 
Q 2172 0 1784 0 
Q 1141 0 747 490 
Q 353 981 353 1791 
Q 353 2603 747 3093 
Q 1141 3584 1784 3584 
Q 2172 3584 2450 3431 
Q 2728 3278 2906 2969 
L 2906 3500 
L 3481 3500 
L 3481 434 
z
" transform="scale(0.015625)"/>
       <path id="DejaVuSans-6e" d="M 3513 2113 
L 3513 0 
L 2938 0 
L 2938 2094 
Q 2938 2591 2744 2837 
Q 2550 3084 2163 3084 
Q 1697 3084 1428 2787 
Q 1159 2491 1159 1978 
L 1159 0 
L 581 0 
L 581 3500 
L 1159 3500 
L 1159 2956 
Q 1366 3272 1645 3428 
Q 1925 3584 2291 3584 
Q 2894 3584 3203 3211 
Q 3513 2838 3513 2113 
z
" transform="scale(0.015625)"/>
      </defs>
      <use xlink:href="#DejaVuSans-41"/>
      <use xlink:href="#DejaVuSans-67" transform="translate(68.408203 0)"/>
      <use xlink:href="#DejaVuSans-65" transform="translate(131.884766 0)"/>
      <use xlink:href="#DejaVuSans-6e" transform="translate(193.408203 0)"/>
      <use xlink:href="#DejaVuSans-74" transform="translate(256.787109 0)"/>
     </g>
    </g>
    <g id="line2d_27">
     <path d="M 630.803125 360.782187 
L 640.803125 360.782187 
L 650.803125 360.782187 
" style="fill: none; stroke: #0000ff; stroke-width: 1.5; stroke-linecap: square"/>
    </g>
    <g id="text_16">
     <!-- PPO -->
     <g transform="translate(658.803125 364.282187) scale(0.1 -0.1)">
      <defs>
       <path id="DejaVuSans-50" d="M 1259 4147 
L 1259 2394 
L 2053 2394 
Q 2494 2394 2734 2622 
Q 2975 2850 2975 3272 
Q 2975 3691 2734 3919 
Q 2494 4147 2053 4147 
L 1259 4147 
z
M 628 4666 
L 2053 4666 
Q 2838 4666 3239 4311 
Q 3641 3956 3641 3272 
Q 3641 2581 3239 2228 
Q 2838 1875 2053 1875 
L 1259 1875 
L 1259 0 
L 628 0 
L 628 4666 
z
" transform="scale(0.015625)"/>
       <path id="DejaVuSans-4f" d="M 2522 4238 
Q 1834 4238 1429 3725 
Q 1025 3213 1025 2328 
Q 1025 1447 1429 934 
Q 1834 422 2522 422 
Q 3209 422 3611 934 
Q 4013 1447 4013 2328 
Q 4013 3213 3611 3725 
Q 3209 4238 2522 4238 
z
M 2522 4750 
Q 3503 4750 4090 4092 
Q 4678 3434 4678 2328 
Q 4678 1225 4090 567 
Q 3503 -91 2522 -91 
Q 1538 -91 948 565 
Q 359 1222 359 2328 
Q 359 3434 948 4092 
Q 1538 4750 2522 4750 
z
" transform="scale(0.015625)"/>
      </defs>
      <use xlink:href="#DejaVuSans-50"/>
      <use xlink:href="#DejaVuSans-50" transform="translate(60.302734 0)"/>
      <use xlink:href="#DejaVuSans-4f" transform="translate(120.605469 0)"/>
     </g>
    </g>
    <g id="line2d_28">
     <path d="M 630.803125 375.460312 
L 640.803125 375.460312 
L 650.803125 375.460312 
" style="fill: none; stroke: #ffa500; stroke-width: 1.5; stroke-linecap: square"/>
    </g>
    <g id="text_17">
     <!-- Random -->
     <g transform="translate(658.803125 378.960312) scale(0.1 -0.1)">
      <defs>
       <path id="DejaVuSans-6f" d="M 1959 3097 
Q 1497 3097 1228 2736 
Q 959 2375 959 1747 
Q 959 1119 1226 758 
Q 1494 397 1959 397 
Q 2419 397 2687 759 
Q 2956 1122 2956 1747 
Q 2956 2369 2687 2733 
Q 2419 3097 1959 3097 
z
M 1959 3584 
Q 2709 3584 3137 3096 
Q 3566 2609 3566 1747 
Q 3566 888 3137 398 
Q 2709 -91 1959 -91 
Q 1206 -91 779 398 
Q 353 888 353 1747 
Q 353 2609 779 3096 
Q 1206 3584 1959 3584 
z
" transform="scale(0.015625)"/>
       <path id="DejaVuSans-6d" d="M 3328 2828 
Q 3544 3216 3844 3400 
Q 4144 3584 4550 3584 
Q 5097 3584 5394 3201 
Q 5691 2819 5691 2113 
L 5691 0 
L 5113 0 
L 5113 2094 
Q 5113 2597 4934 2840 
Q 4756 3084 4391 3084 
Q 3944 3084 3684 2787 
Q 3425 2491 3425 1978 
L 3425 0 
L 2847 0 
L 2847 2094 
Q 2847 2600 2669 2842 
Q 2491 3084 2119 3084 
Q 1678 3084 1418 2786 
Q 1159 2488 1159 1978 
L 1159 0 
L 581 0 
L 581 3500 
L 1159 3500 
L 1159 2956 
Q 1356 3278 1631 3431 
Q 1906 3584 2284 3584 
Q 2666 3584 2933 3390 
Q 3200 3197 3328 2828 
z
" transform="scale(0.015625)"/>
      </defs>
      <use xlink:href="#DejaVuSans-52"/>
      <use xlink:href="#DejaVuSans-61" transform="translate(67.232422 0)"/>
      <use xlink:href="#DejaVuSans-6e" transform="translate(128.511719 0)"/>
      <use xlink:href="#DejaVuSans-64" transform="translate(191.890625 0)"/>
      <use xlink:href="#DejaVuSans-6f" transform="translate(255.367188 0)"/>
      <use xlink:href="#DejaVuSans-6d" transform="translate(316.548828 0)"/>
     </g>
    </g>
   </g>
  </g>
 </g>
 <defs>
  <clipPath id="pf9bec95988">
   <rect x="50.87" y="10.8" width="658.33" height="379.24"/>
  </clipPath>
 </defs>
</svg>
