<?xml version="1.0" encoding="utf-8" standalone="no"?>
<!DOCTYPE svg PUBLIC "-//W3C//DTD SVG 1.1//EN"
  "http://www.w3.org/Graphics/SVG/1.1/DTD/svg11.dtd">
<svg xmlns:xlink="http://www.w3.org/1999/xlink" width="720pt" height="432pt" viewBox="0 0 720 432" xmlns="http://www.w3.org/2000/svg" version="1.1">
 <metadata>
  <rdf:RDF xmlns:dc="http://purl.org/dc/elements/1.1/" xmlns:cc="http://creativecommons.org/ns#" xmlns:rdf="http://www.w3.org/1999/02/22-rdf-syntax-ns#">
   <cc:Work>
    <dc:type rdf:resource="http://purl.org/dc/dcmitype/StillImage"/>
    <dc:date>2025-04-16T01:07:08.205493</dc:date>
    <dc:format>image/svg+xml</dc:format>
    <dc:creator>
     <cc:Agent>
      <dc:title>Matplotlib v3.10.0, https://matplotlib.org/</dc:title>
     </cc:Agent>
    </dc:creator>
   </cc:Work>
  </rdf:RDF>
 </metadata>
 <defs>
  <style type="text/css">*{stroke-linejoin: round; stroke-linecap: butt}</style>
 </defs>
 <g id="figure_1">
  <g id="patch_1">
   <path d="M 0 432 
L 720 432 
L 720 0 
L 0 0 
z
" style="fill: #ffffff"/>
  </g>
  <g id="axes_1">
   <g id="patch_2">
    <path d="M 38.27 390.04 
L 709.2 390.04 
L 709.2 10.8 
L 38.27 10.8 
z
" style="fill: #ffffff"/>
   </g>
   <g id="FillBetweenPolyCollection_1">
    <defs>
     <path id="maebfa0481e" d="M 68.766818 -390.975179 
L 68.766818 -202.226865 
L 74.932552 -194.763366 
L 80.923967 -185.197595 
L 86.921838 -191.993324 
L 92.79704 -201.93996 
L 98.633505 -190.943769 
L 104.457057 -170.707997 
L 110.061096 -162.948767 
L 115.342321 -157.754036 
L 120.119958 -143.297165 
L 124.381094 -144.807002 
L 128.448541 -144.917497 
L 132.528901 -143.784855 
L 136.512418 -143.461645 
L 140.431371 -142.361052 
L 144.37615 -144.746285 
L 148.346753 -144.124937 
L 152.272163 -142.227969 
L 156.158835 -142.971104 
L 160.039051 -143.793827 
L 163.945092 -142.511259 
L 167.812395 -142.20657 
L 171.705524 -144.026297 
L 175.592196 -143.484189 
L 179.472412 -143.624497 
L 183.371996 -142.835818 
L 187.245756 -142.864841 
L 191.125972 -143.380129 
L 195.038469 -142.922958 
L 198.918685 -142.835818 
L 202.792445 -142.845717 
L 206.679117 -144.582579 
L 210.578701 -143.764805 
L 214.478286 -142.448867 
L 218.371414 -143.324758 
L 222.25163 -142.144178 
L 226.138302 -143.542307 
L 230.024975 -143.203574 
L 233.898734 -143.126333 
L 237.798319 -143.682614 
L 241.672079 -143.126333 
L 245.545838 -143.701738 
L 249.426054 -143.266641 
L 253.286901 -143.174551 
L 257.160661 -143.324758 
L 261.040877 -143.068215 
L 264.90818 -142.497085 
L 268.775483 -141.311555 
L 272.642787 -143.017323 
L 276.535915 -143.126333 
L 280.409675 -142.903834 
L 284.289891 -144.447221 
L 288.16365 -144.471294 
L 292.03741 -143.397049 
L 295.924082 -144.413176 
L 299.804298 -143.687564 
L 303.678057 -143.005148 
L 307.56473 -143.96818 
L 311.47077 -143.431021 
L 315.383268 -143.486465 
L 319.263484 -143.242568 
L 323.137243 -142.797571 
L 327.011003 -142.705409 
L 330.884762 -143.237618 
L 334.758522 -143.068215 
L 338.632282 -142.957002 
L 342.506041 -143.208523 
L 346.39917 -142.180425 
L 350.272929 -143.034171 
L 354.153145 -142.424794 
L 358.026905 -142.951981 
L 361.900664 -140.228014 
L 365.774424 -138.621562 
L 369.661096 -114.082613 
L 373.534856 -94.018595 
L 377.402159 -89.654204 
L 381.282375 -89.102872 
L 385.156135 -87.341937 
L 389.023438 -87.980409 
L 392.884285 -86.441972 
L 396.751588 -88.023678 
L 400.618892 -87.143512 
L 404.486195 -86.973507 
L 408.521361 -87.47427 
L 412.485509 -88.125345 
L 416.417375 -87.995581 
L 420.446085 -86.985127 
L 424.377951 -87.128987 
L 428.277535 -86.722912 
L 432.338527 -86.754006 
L 436.328499 -86.744107 
L 440.402403 -86.679763 
L 444.469851 -86.783703 
L 448.39526 -86.798552 
L 452.37232 -86.943135 
L 456.336467 -86.797155 
L 460.261877 -86.768855 
L 464.232481 -87.230975 
L 468.177259 -87.044521 
L 472.076844 -87.229375 
L 475.963516 -86.798552 
L 479.850188 -86.754006 
L 483.730404 -87.108865 
L 487.604164 -86.857946 
L 491.477923 -86.828249 
L 495.351683 -86.833199 
L 499.225443 -86.843098 
L 503.099202 -86.81835 
L 506.979418 -86.843098 
L 510.853178 -86.848047 
L 514.726937 -82.643762 
L 517.980895 -66.696816 
L 520.776459 -61.345996 
L 523.475178 -61.46718 
L 526.173897 -60.276905 
L 528.81451 -60.426908 
L 531.422841 -59.198182 
L 534.01826 -59.430651 
L 536.613679 -60.951675 
L 539.196186 -66.763416 
L 541.785148 -68.506938 
L 544.367655 -70.01799 
L 546.950161 -70.192342 
L 549.532668 -70.25046 
L 552.115174 -70.424812 
L 554.704137 -70.134225 
L 557.286643 -70.366695 
L 559.869149 -70.366695 
L 562.451656 -70.366695 
L 565.034162 -70.424812 
L 567.623125 -70.308577 
L 570.205631 -70.424812 
L 572.788138 -70.424812 
L 575.370644 -70.424812 
L 577.953151 -70.424812 
L 580.535657 -70.424812 
L 583.118163 -70.424812 
L 585.70067 -70.366695 
L 588.289632 -70.366695 
L 590.878595 -70.366695 
L 593.461102 -70.192342 
L 596.043608 -70.424812 
L 598.626114 -70.308577 
L 601.208621 -70.192342 
L 603.791127 -70.424812 
L 606.373634 -70.424812 
L 608.95614 -70.25046 
L 611.538646 -70.366695 
L 614.121153 -70.25046 
L 616.703659 -70.366695 
L 619.286166 -70.424812 
L 621.868672 -70.424812 
L 624.451178 -70.424812 
L 627.033685 -70.424812 
L 629.616191 -70.424812 
L 632.205154 -70.192342 
L 634.78766 -70.308577 
L 637.370167 -70.366695 
L 639.952673 -70.424812 
L 642.53518 -70.25046 
L 645.117686 -70.424812 
L 647.700192 -70.424812 
L 650.282699 -70.424812 
L 652.865205 -70.366695 
L 655.447712 -70.424812 
L 658.030218 -70.424812 
L 660.612724 -70.076108 
L 663.208143 -70.308577 
L 665.79065 -70.424812 
L 668.373156 -70.424812 
L 670.955663 -70.424812 
L 673.538169 -70.424812 
L 676.120675 -70.424812 
L 678.703182 -70.424812 
L 678.703182 -70.424812 
L 678.703182 -70.424812 
L 676.120675 -70.424812 
L 673.538169 -70.424812 
L 670.955663 -70.424812 
L 668.373156 -70.424812 
L 665.79065 -70.424812 
L 663.208143 -71.102278 
L 660.612724 -72.45721 
L 658.030218 -70.424812 
L 655.447712 -70.424812 
L 652.865205 -70.763545 
L 650.282699 -70.424812 
L 647.700192 -70.424812 
L 645.117686 -70.424812 
L 642.53518 -71.441011 
L 639.952673 -70.424812 
L 637.370167 -70.763545 
L 634.78766 -71.102278 
L 632.205154 -71.779744 
L 629.616191 -70.424812 
L 627.033685 -70.424812 
L 624.451178 -70.424812 
L 621.868672 -70.424812 
L 619.286166 -70.424812 
L 616.703659 -70.763545 
L 614.121153 -71.441011 
L 611.538646 -70.763545 
L 608.95614 -71.441011 
L 606.373634 -70.424812 
L 603.791127 -70.424812 
L 601.208621 -71.779744 
L 598.626114 -71.102278 
L 596.043608 -70.424812 
L 593.461102 -71.779744 
L 590.878595 -70.763545 
L 588.289632 -70.763545 
L 585.70067 -70.763545 
L 583.118163 -70.424812 
L 580.535657 -70.424812 
L 577.953151 -70.424812 
L 575.370644 -70.424812 
L 572.788138 -70.424812 
L 570.205631 -70.424812 
L 567.623125 -71.102278 
L 565.034162 -70.424812 
L 562.451656 -70.763545 
L 559.869149 -70.763545 
L 557.286643 -70.763545 
L 554.704137 -72.118477 
L 552.115174 -70.424812 
L 549.532668 -71.441011 
L 546.950161 -71.779744 
L 544.367655 -72.795943 
L 541.785148 -81.603003 
L 539.196186 -91.764994 
L 536.613679 -125.638299 
L 534.01826 -136.419639 
L 531.422841 -137.774571 
L 528.81451 -140.193849 
L 526.173897 -141.74693 
L 523.475178 -140.83727 
L 520.776459 -141.800301 
L 517.980895 -148.235338 
L 514.726937 -162.594882 
L 510.853178 -167.089682 
L 506.979418 -167.375247 
L 503.099202 -168.803073 
L 499.225443 -167.375247 
L 495.351683 -167.946377 
L 491.477923 -168.231942 
L 487.604164 -166.518551 
L 483.730404 -168.512558 
L 479.850188 -172.51542 
L 475.963516 -169.945333 
L 472.076844 -169.795126 
L 468.177259 -172.224905 
L 464.232481 -172.880298 
L 460.261877 -171.658724 
L 456.336467 -167.982421 
L 452.37232 -172.045676 
L 448.39526 -169.945333 
L 444.469851 -170.802029 
L 440.402403 -176.798897 
L 436.328499 -173.08655 
L 432.338527 -172.51542 
L 428.277535 -172.265899 
L 424.377951 -173.543518 
L 420.446085 -175.651687 
L 416.417375 -172.957539 
L 412.485509 -171.144081 
L 408.521361 -176.285006 
L 404.486195 -168.086685 
L 400.618892 -166.513602 
L 396.751588 -168.158976 
L 392.884285 -165.812063 
L 389.023438 -167.641014 
L 385.156135 -166.315177 
L 381.282375 -168.763476 
L 377.402159 -169.895838 
L 373.534856 -173.388685 
L 369.661096 -193.452704 
L 365.774424 -220.266419 
L 361.900664 -221.185507 
L 358.026905 -223.512622 
L 354.153145 -221.794884 
L 350.272929 -223.991663 
L 346.39917 -222.600483 
L 342.506041 -222.975464 
L 338.632282 -221.823906 
L 334.758522 -222.835156 
L 330.884762 -222.104522 
L 327.011003 -222.075499 
L 323.137243 -220.580259 
L 319.263484 -221.818957 
L 315.383268 -224.381216 
L 311.47077 -223.594813 
L 307.56473 -223.33827 
L 303.678057 -223.459454 
L 299.804298 -223.057654 
L 295.924082 -224.576967 
L 292.03741 -223.348169 
L 288.16365 -224.238234 
L 284.289891 -223.42046 
L 280.409675 -221.877074 
L 276.535915 -222.496423 
L 272.642787 -223.727895 
L 268.775483 -222.346891 
L 264.90818 -222.845055 
L 261.040877 -222.835156 
L 257.160661 -222.297998 
L 253.286901 -222.72882 
L 249.426054 -222.636731 
L 245.545838 -224.446559 
L 241.672079 -222.496423 
L 237.798319 -223.343219 
L 233.898734 -222.496423 
L 230.024975 -223.261029 
L 226.138302 -223.202912 
L 222.25163 -221.514268 
L 218.371414 -222.297998 
L 214.478286 -222.612658 
L 210.578701 -223.82226 
L 206.679117 -223.846333 
L 202.792445 -222.215807 
L 198.918685 -222.786938 
L 195.038469 -222.980413 
L 191.125972 -224.487552 
L 187.245756 -223.319146 
L 183.371996 -222.786938 
L 179.472412 -223.681952 
L 175.592196 -223.541645 
L 171.705524 -222.999537 
L 167.812395 -223.13557 
L 163.945092 -224.233959 
L 160.039051 -224.354469 
L 156.158835 -224.615961 
L 152.272163 -225.07848 
L 148.346753 -225.707053 
L 144.37615 -227.050015 
L 140.431371 -224.664782 
L 136.512418 -227.212193 
L 132.528901 -230.25637 
L 128.448541 -233.613578 
L 124.381094 -246.351778 
L 120.119958 -255.999468 
L 115.342321 -293.456492 
L 110.061096 -324.180563 
L 104.457057 -333.819503 
L 98.633505 -354.553615 
L 92.79704 -365.726061 
L 86.921838 -374.269618 
L 80.923967 -376.014265 
L 74.932552 -386.372205 
L 68.766818 -390.975179 
z
" style="stroke: #0000ff; stroke-opacity: 0.2"/>
    </defs>
    <g clip-path="url(#pbeff08a49c)">
     <use xlink:href="#maebfa0481e" x="0" y="432" style="fill: #0000ff; fill-opacity: 0.2; stroke: #0000ff; stroke-opacity: 0.2"/>
    </g>
   </g>
   <g id="FillBetweenPolyCollection_2">
    <defs>
     <path id="m7d659debd5" d="M 68.837837 -392.562088 
L 68.837837 -203.726728 
L 74.764689 -187.754797 
L 80.833579 -196.778719 
L 86.631306 -192.679474 
L 92.635634 -196.761 
L 98.549573 -196.110454 
L 104.489338 -187.155526 
L 110.532403 -199.552095 
L 116.310761 -194.716106 
L 122.431301 -197.563676 
L 128.409804 -194.81805 
L 134.356025 -196.176349 
L 140.147295 -193.844425 
L 146.216185 -198.065922 
L 152.427113 -195.130107 
L 158.437897 -199.127062 
L 164.287274 -213.760585 
L 170.41427 -204.848777 
L 176.412142 -195.850844 
L 182.539138 -189.653727 
L 188.575747 -190.74032 
L 194.457405 -187.139843 
L 200.44882 -198.118629 
L 206.543535 -198.089582 
L 212.780288 -191.615605 
L 218.720053 -188.003768 
L 224.737293 -186.639542 
L 230.580213 -195.126817 
L 236.81051 -190.302916 
L 242.698625 -207.700568 
L 248.631933 -188.662673 
L 254.70728 -198.88367 
L 260.679326 -201.134914 
L 266.632003 -189.34054 
L 272.597593 -204.831386 
L 278.87954 -190.787215 
L 284.657898 -196.921608 
L 290.907563 -190.088375 
L 296.666552 -193.866574 
L 302.503017 -187.549766 
L 308.462151 -195.770508 
L 314.556866 -187.143153 
L 320.477262 -195.214913 
L 326.41057 -204.155752 
L 332.53111 -192.020136 
L 338.464419 -189.806994 
L 344.352533 -196.862328 
L 350.395598 -199.009972 
L 356.645264 -205.115524 
L 362.649591 -195.32321 
L 368.473143 -203.859616 
L 374.787371 -188.963271 
L 380.630292 -201.781986 
L 386.731464 -193.989314 
L 392.742247 -200.001355 
L 398.979 -193.1228 
L 405.041434 -191.871773 
L 411.239449 -212.9701 
L 417.424552 -200.290061 
L 423.370773 -186.339172 
L 429.149131 -189.701334 
L 435.269671 -200.826871 
L 441.125505 -181.767836 
L 447.045901 -194.164912 
L 453.121247 -201.943477 
L 459.332175 -200.419856 
L 465.407521 -196.277616 
L 471.44413 -206.326041 
L 477.319332 -192.864243 
L 483.343028 -189.856197 
L 489.06328 -192.37398 
L 495.074064 -203.595222 
L 501.136497 -189.145057 
L 507.302231 -188.00796 
L 513.112871 -188.465218 
L 519.194673 -205.723866 
L 525.127982 -185.802846 
L 531.216241 -198.792998 
L 537.272218 -197.590062 
L 543.205527 -198.045084 
L 549.132379 -194.021625 
L 555.336851 -212.994681 
L 561.573604 -208.041474 
L 567.584387 -184.695681 
L 573.704928 -216.79402 
L 579.754449 -193.988074 
L 585.816883 -180.597549 
L 591.918054 -183.675285 
L 598.051507 -209.943048 
L 603.926709 -197.091777 
L 609.931036 -195.076253 
L 616.032208 -191.653098 
L 621.997797 -190.413748 
L 627.931106 -209.089441 
L 633.81922 -195.445884 
L 640.023692 -196.851053 
L 646.034476 -198.097465 
L 652.142103 -187.463471 
L 657.946287 -192.356518 
L 664.073283 -195.561684 
L 670.000135 -184.949629 
L 675.830143 -187.163175 
L 675.830143 -385.834542 
L 675.830143 -385.834542 
L 670.000135 -383.838854 
L 664.073283 -388.099428 
L 657.946287 -388.779053 
L 652.142103 -370.942233 
L 646.034476 -381.635028 
L 640.023692 -395.78976 
L 633.81922 -380.357989 
L 627.931106 -399.265848 
L 621.997797 -386.231972 
L 616.032208 -385.834469 
L 609.931036 -387.743012 
L 603.926709 -384.043794 
L 598.051507 -403.182707 
L 591.918054 -391.286742 
L 585.816883 -387.910318 
L 579.754449 -394.443504 
L 573.704928 -397.454197 
L 567.584387 -384.373418 
L 561.573604 -403.961818 
L 555.336851 -402.656614 
L 549.132379 -387.955793 
L 543.205527 -385.896644 
L 537.272218 -387.193513 
L 531.216241 -398.337665 
L 525.127982 -383.266252 
L 519.194673 -394.493569 
L 513.112871 -390.425428 
L 507.302231 -393.969458 
L 501.136497 -399.847752 
L 495.074064 -386.239434 
L 489.06328 -380.904353 
L 483.343028 -387.631371 
L 477.319332 -383.500862 
L 471.44413 -401.748632 
L 465.407521 -386.261033 
L 459.332175 -391.940341 
L 453.121247 -385.646254 
L 447.045901 -392.582972 
L 441.125505 -388.423725 
L 435.269671 -399.951795 
L 429.149131 -392.276084 
L 423.370773 -382.44931 
L 417.424552 -397.401833 
L 411.239449 -390.053492 
L 405.041434 -379.722866 
L 398.979 -391.660775 
L 392.742247 -387.868992 
L 386.731464 -382.095175 
L 380.630292 -386.368977 
L 374.787371 -393.575378 
L 368.473143 -395.796587 
L 362.649591 -390.582827 
L 356.645264 -400.152992 
L 350.395598 -389.14099 
L 344.352533 -399.145872 
L 338.464419 -389.364267 
L 332.53111 -386.028663 
L 326.41057 -390.729986 
L 320.477262 -384.236964 
L 314.556866 -383.609639 
L 308.462151 -391.257992 
L 302.503017 -391.34088 
L 296.666552 -390.075153 
L 290.907563 -378.700108 
L 284.657898 -387.581351 
L 278.87954 -382.491118 
L 272.597593 -397.069743 
L 266.632003 -385.902103 
L 260.679326 -385.332354 
L 254.70728 -391.792833 
L 248.631933 -385.457507 
L 242.698625 -395.603639 
L 236.81051 -389.148961 
L 230.580213 -391.059836 
L 224.737293 -385.516328 
L 218.720053 -386.116412 
L 212.780288 -382.785191 
L 206.543535 -390.06138 
L 200.44882 -391.716028 
L 194.457405 -387.822184 
L 188.575747 -383.660475 
L 182.539138 -389.517534 
L 176.412142 -392.86135 
L 170.41427 -393.404348 
L 164.287274 -390.9467 
L 158.437897 -394.074981 
L 152.427113 -398.071936 
L 146.216185 -391.207503 
L 140.147295 -387.852378 
L 134.356025 -394.219539 
L 128.409804 -394.735991 
L 122.431301 -388.061745 
L 116.310761 -394.557318 
L 110.532403 -389.160098 
L 104.489338 -385.28096 
L 98.549573 -393.162971 
L 92.635634 -387.461344 
L 86.631306 -386.491787 
L 80.833579 -392.775322 
L 74.764689 -381.033685 
L 68.837837 -392.562088 
z
" style="stroke: #ffa500; stroke-opacity: 0.2"/>
    </defs>
    <g clip-path="url(#pbeff08a49c)">
     <use xlink:href="#m7d659debd5" x="0" y="432" style="fill: #ffa500; fill-opacity: 0.2; stroke: #ffa500; stroke-opacity: 0.2"/>
    </g>
   </g>
   <g id="matplotlib.axis_1">
    <g id="xtick_1">
     <g id="line2d_1">
      <path d="M 65.848586 390.04 
L 65.848586 10.8 
" clip-path="url(#pbeff08a49c)" style="fill: none; stroke: #b0b0b0; stroke-width: 0.8; stroke-linecap: square"/>
     </g>
     <g id="line2d_2">
      <defs>
       <path id="m6185b77394" d="M 0 0 
L 0 3.5 
" style="stroke: #000000; stroke-width: 0.8"/>
      </defs>
      <g>
       <use xlink:href="#m6185b77394" x="65.848586" y="390.04" style="stroke: #000000; stroke-width: 0.8"/>
      </g>
     </g>
     <g id="text_1">
      <!-- 0 -->
      <g transform="translate(62.667336 404.638438) scale(0.1 -0.1)">
       <defs>
        <path id="DejaVuSans-30" d="M 2034 4250 
Q 1547 4250 1301 3770 
Q 1056 3291 1056 2328 
Q 1056 1369 1301 889 
Q 1547 409 2034 409 
Q 2525 409 2770 889 
Q 3016 1369 3016 2328 
Q 3016 3291 2770 3770 
Q 2525 4250 2034 4250 
z
M 2034 4750 
Q 2819 4750 3233 4129 
Q 3647 3509 3647 2328 
Q 3647 1150 3233 529 
Q 2819 -91 2034 -91 
Q 1250 -91 836 529 
Q 422 1150 422 2328 
Q 422 3509 836 4129 
Q 1250 4750 2034 4750 
z
" transform="scale(0.015625)"/>
       </defs>
       <use xlink:href="#DejaVuSans-30"/>
      </g>
     </g>
    </g>
    <g id="xtick_2">
     <g id="line2d_3">
      <path d="M 194.973906 390.04 
L 194.973906 10.8 
" clip-path="url(#pbeff08a49c)" style="fill: none; stroke: #b0b0b0; stroke-width: 0.8; stroke-linecap: square"/>
     </g>
     <g id="line2d_4">
      <g>
       <use xlink:href="#m6185b77394" x="194.973906" y="390.04" style="stroke: #000000; stroke-width: 0.8"/>
      </g>
     </g>
     <g id="text_2">
      <!-- 20000 -->
      <g transform="translate(179.067656 404.638438) scale(0.1 -0.1)">
       <defs>
        <path id="DejaVuSans-32" d="M 1228 531 
L 3431 531 
L 3431 0 
L 469 0 
L 469 531 
Q 828 903 1448 1529 
Q 2069 2156 2228 2338 
Q 2531 2678 2651 2914 
Q 2772 3150 2772 3378 
Q 2772 3750 2511 3984 
Q 2250 4219 1831 4219 
Q 1534 4219 1204 4116 
Q 875 4013 500 3803 
L 500 4441 
Q 881 4594 1212 4672 
Q 1544 4750 1819 4750 
Q 2544 4750 2975 4387 
Q 3406 4025 3406 3419 
Q 3406 3131 3298 2873 
Q 3191 2616 2906 2266 
Q 2828 2175 2409 1742 
Q 1991 1309 1228 531 
z
" transform="scale(0.015625)"/>
       </defs>
       <use xlink:href="#DejaVuSans-32"/>
       <use xlink:href="#DejaVuSans-30" transform="translate(63.623047 0)"/>
       <use xlink:href="#DejaVuSans-30" transform="translate(127.246094 0)"/>
       <use xlink:href="#DejaVuSans-30" transform="translate(190.869141 0)"/>
       <use xlink:href="#DejaVuSans-30" transform="translate(254.492188 0)"/>
      </g>
     </g>
    </g>
    <g id="xtick_3">
     <g id="line2d_5">
      <path d="M 324.099227 390.04 
L 324.099227 10.8 
" clip-path="url(#pbeff08a49c)" style="fill: none; stroke: #b0b0b0; stroke-width: 0.8; stroke-linecap: square"/>
     </g>
     <g id="line2d_6">
      <g>
       <use xlink:href="#m6185b77394" x="324.099227" y="390.04" style="stroke: #000000; stroke-width: 0.8"/>
      </g>
     </g>
     <g id="text_3">
      <!-- 40000 -->
      <g transform="translate(308.192977 404.638438) scale(0.1 -0.1)">
       <defs>
        <path id="DejaVuSans-34" d="M 2419 4116 
L 825 1625 
L 2419 1625 
L 2419 4116 
z
M 2253 4666 
L 3047 4666 
L 3047 1625 
L 3713 1625 
L 3713 1100 
L 3047 1100 
L 3047 0 
L 2419 0 
L 2419 1100 
L 313 1100 
L 313 1709 
L 2253 4666 
z
" transform="scale(0.015625)"/>
       </defs>
       <use xlink:href="#DejaVuSans-34"/>
       <use xlink:href="#DejaVuSans-30" transform="translate(63.623047 0)"/>
       <use xlink:href="#DejaVuSans-30" transform="translate(127.246094 0)"/>
       <use xlink:href="#DejaVuSans-30" transform="translate(190.869141 0)"/>
       <use xlink:href="#DejaVuSans-30" transform="translate(254.492188 0)"/>
      </g>
     </g>
    </g>
    <g id="xtick_4">
     <g id="line2d_7">
      <path d="M 453.224547 390.04 
L 453.224547 10.8 
" clip-path="url(#pbeff08a49c)" style="fill: none; stroke: #b0b0b0; stroke-width: 0.8; stroke-linecap: square"/>
     </g>
     <g id="line2d_8">
      <g>
       <use xlink:href="#m6185b77394" x="453.224547" y="390.04" style="stroke: #000000; stroke-width: 0.8"/>
      </g>
     </g>
     <g id="text_4">
      <!-- 60000 -->
      <g transform="translate(437.318297 404.638438) scale(0.1 -0.1)">
       <defs>
        <path id="DejaVuSans-36" d="M 2113 2584 
Q 1688 2584 1439 2293 
Q 1191 2003 1191 1497 
Q 1191 994 1439 701 
Q 1688 409 2113 409 
Q 2538 409 2786 701 
Q 3034 994 3034 1497 
Q 3034 2003 2786 2293 
Q 2538 2584 2113 2584 
z
M 3366 4563 
L 3366 3988 
Q 3128 4100 2886 4159 
Q 2644 4219 2406 4219 
Q 1781 4219 1451 3797 
Q 1122 3375 1075 2522 
Q 1259 2794 1537 2939 
Q 1816 3084 2150 3084 
Q 2853 3084 3261 2657 
Q 3669 2231 3669 1497 
Q 3669 778 3244 343 
Q 2819 -91 2113 -91 
Q 1303 -91 875 529 
Q 447 1150 447 2328 
Q 447 3434 972 4092 
Q 1497 4750 2381 4750 
Q 2619 4750 2861 4703 
Q 3103 4656 3366 4563 
z
" transform="scale(0.015625)"/>
       </defs>
       <use xlink:href="#DejaVuSans-36"/>
       <use xlink:href="#DejaVuSans-30" transform="translate(63.623047 0)"/>
       <use xlink:href="#DejaVuSans-30" transform="translate(127.246094 0)"/>
       <use xlink:href="#DejaVuSans-30" transform="translate(190.869141 0)"/>
       <use xlink:href="#DejaVuSans-30" transform="translate(254.492188 0)"/>
      </g>
     </g>
    </g>
    <g id="xtick_5">
     <g id="line2d_9">
      <path d="M 582.349868 390.04 
L 582.349868 10.8 
" clip-path="url(#pbeff08a49c)" style="fill: none; stroke: #b0b0b0; stroke-width: 0.8; stroke-linecap: square"/>
     </g>
     <g id="line2d_10">
      <g>
       <use xlink:href="#m6185b77394" x="582.349868" y="390.04" style="stroke: #000000; stroke-width: 0.8"/>
      </g>
     </g>
     <g id="text_5">
      <!-- 80000 -->
      <g transform="translate(566.443618 404.638438) scale(0.1 -0.1)">
       <defs>
        <path id="DejaVuSans-38" d="M 2034 2216 
Q 1584 2216 1326 1975 
Q 1069 1734 1069 1313 
Q 1069 891 1326 650 
Q 1584 409 2034 409 
Q 2484 409 2743 651 
Q 3003 894 3003 1313 
Q 3003 1734 2745 1975 
Q 2488 2216 2034 2216 
z
M 1403 2484 
Q 997 2584 770 2862 
Q 544 3141 544 3541 
Q 544 4100 942 4425 
Q 1341 4750 2034 4750 
Q 2731 4750 3128 4425 
Q 3525 4100 3525 3541 
Q 3525 3141 3298 2862 
Q 3072 2584 2669 2484 
Q 3125 2378 3379 2068 
Q 3634 1759 3634 1313 
Q 3634 634 3220 271 
Q 2806 -91 2034 -91 
Q 1263 -91 848 271 
Q 434 634 434 1313 
Q 434 1759 690 2068 
Q 947 2378 1403 2484 
z
M 1172 3481 
Q 1172 3119 1398 2916 
Q 1625 2713 2034 2713 
Q 2441 2713 2670 2916 
Q 2900 3119 2900 3481 
Q 2900 3844 2670 4047 
Q 2441 4250 2034 4250 
Q 1625 4250 1398 4047 
Q 1172 3844 1172 3481 
z
" transform="scale(0.015625)"/>
       </defs>
       <use xlink:href="#DejaVuSans-38"/>
       <use xlink:href="#DejaVuSans-30" transform="translate(63.623047 0)"/>
       <use xlink:href="#DejaVuSans-30" transform="translate(127.246094 0)"/>
       <use xlink:href="#DejaVuSans-30" transform="translate(190.869141 0)"/>
       <use xlink:href="#DejaVuSans-30" transform="translate(254.492188 0)"/>
      </g>
     </g>
    </g>
    <g id="text_6">
     <!-- Steps -->
     <g transform="translate(359.745156 418.316562) scale(0.1 -0.1)">
      <defs>
       <path id="DejaVuSans-53" d="M 3425 4513 
L 3425 3897 
Q 3066 4069 2747 4153 
Q 2428 4238 2131 4238 
Q 1616 4238 1336 4038 
Q 1056 3838 1056 3469 
Q 1056 3159 1242 3001 
Q 1428 2844 1947 2747 
L 2328 2669 
Q 3034 2534 3370 2195 
Q 3706 1856 3706 1288 
Q 3706 609 3251 259 
Q 2797 -91 1919 -91 
Q 1588 -91 1214 -16 
Q 841 59 441 206 
L 441 856 
Q 825 641 1194 531 
Q 1563 422 1919 422 
Q 2459 422 2753 634 
Q 3047 847 3047 1241 
Q 3047 1584 2836 1778 
Q 2625 1972 2144 2069 
L 1759 2144 
Q 1053 2284 737 2584 
Q 422 2884 422 3419 
Q 422 4038 858 4394 
Q 1294 4750 2059 4750 
Q 2388 4750 2728 4690 
Q 3069 4631 3425 4513 
z
" transform="scale(0.015625)"/>
       <path id="DejaVuSans-74" d="M 1172 4494 
L 1172 3500 
L 2356 3500 
L 2356 3053 
L 1172 3053 
L 1172 1153 
Q 1172 725 1289 603 
Q 1406 481 1766 481 
L 2356 481 
L 2356 0 
L 1766 0 
Q 1100 0 847 248 
Q 594 497 594 1153 
L 594 3053 
L 172 3053 
L 172 3500 
L 594 3500 
L 594 4494 
L 1172 4494 
z
" transform="scale(0.015625)"/>
       <path id="DejaVuSans-65" d="M 3597 1894 
L 3597 1613 
L 953 1613 
Q 991 1019 1311 708 
Q 1631 397 2203 397 
Q 2534 397 2845 478 
Q 3156 559 3463 722 
L 3463 178 
Q 3153 47 2828 -22 
Q 2503 -91 2169 -91 
Q 1331 -91 842 396 
Q 353 884 353 1716 
Q 353 2575 817 3079 
Q 1281 3584 2069 3584 
Q 2775 3584 3186 3129 
Q 3597 2675 3597 1894 
z
M 3022 2063 
Q 3016 2534 2758 2815 
Q 2500 3097 2075 3097 
Q 1594 3097 1305 2825 
Q 1016 2553 972 2059 
L 3022 2063 
z
" transform="scale(0.015625)"/>
       <path id="DejaVuSans-70" d="M 1159 525 
L 1159 -1331 
L 581 -1331 
L 581 3500 
L 1159 3500 
L 1159 2969 
Q 1341 3281 1617 3432 
Q 1894 3584 2278 3584 
Q 2916 3584 3314 3078 
Q 3713 2572 3713 1747 
Q 3713 922 3314 415 
Q 2916 -91 2278 -91 
Q 1894 -91 1617 61 
Q 1341 213 1159 525 
z
M 3116 1747 
Q 3116 2381 2855 2742 
Q 2594 3103 2138 3103 
Q 1681 3103 1420 2742 
Q 1159 2381 1159 1747 
Q 1159 1113 1420 752 
Q 1681 391 2138 391 
Q 2594 391 2855 752 
Q 3116 1113 3116 1747 
z
" transform="scale(0.015625)"/>
       <path id="DejaVuSans-73" d="M 2834 3397 
L 2834 2853 
Q 2591 2978 2328 3040 
Q 2066 3103 1784 3103 
Q 1356 3103 1142 2972 
Q 928 2841 928 2578 
Q 928 2378 1081 2264 
Q 1234 2150 1697 2047 
L 1894 2003 
Q 2506 1872 2764 1633 
Q 3022 1394 3022 966 
Q 3022 478 2636 193 
Q 2250 -91 1575 -91 
Q 1294 -91 989 -36 
Q 684 19 347 128 
L 347 722 
Q 666 556 975 473 
Q 1284 391 1588 391 
Q 1994 391 2212 530 
Q 2431 669 2431 922 
Q 2431 1156 2273 1281 
Q 2116 1406 1581 1522 
L 1381 1569 
Q 847 1681 609 1914 
Q 372 2147 372 2553 
Q 372 3047 722 3315 
Q 1072 3584 1716 3584 
Q 2034 3584 2315 3537 
Q 2597 3491 2834 3397 
z
" transform="scale(0.015625)"/>
      </defs>
      <use xlink:href="#DejaVuSans-53"/>
      <use xlink:href="#DejaVuSans-74" transform="translate(63.476562 0)"/>
      <use xlink:href="#DejaVuSans-65" transform="translate(102.685547 0)"/>
      <use xlink:href="#DejaVuSans-70" transform="translate(164.208984 0)"/>
      <use xlink:href="#DejaVuSans-73" transform="translate(227.685547 0)"/>
     </g>
    </g>
   </g>
   <g id="matplotlib.axis_2">
    <g id="ytick_1">
     <g id="line2d_11">
      <path d="M 38.27 361.575188 
L 709.2 361.575188 
" clip-path="url(#pbeff08a49c)" style="fill: none; stroke: #b0b0b0; stroke-width: 0.8; stroke-linecap: square"/>
     </g>
     <g id="line2d_12">
      <defs>
       <path id="m53aac8d6cc" d="M 0 0 
L -3.5 0 
" style="stroke: #000000; stroke-width: 0.8"/>
      </defs>
      <g>
       <use xlink:href="#m53aac8d6cc" x="38.27" y="361.575188" style="stroke: #000000; stroke-width: 0.8"/>
      </g>
     </g>
     <g id="text_7">
      <!-- 2 -->
      <g transform="translate(24.9075 365.374407) scale(0.1 -0.1)">
       <use xlink:href="#DejaVuSans-32"/>
      </g>
     </g>
    </g>
    <g id="ytick_2">
     <g id="line2d_13">
      <path d="M 38.27 277.390494 
L 709.2 277.390494 
" clip-path="url(#pbeff08a49c)" style="fill: none; stroke: #b0b0b0; stroke-width: 0.8; stroke-linecap: square"/>
     </g>
     <g id="line2d_14">
      <g>
       <use xlink:href="#m53aac8d6cc" x="38.27" y="277.390494" style="stroke: #000000; stroke-width: 0.8"/>
      </g>
     </g>
     <g id="text_8">
      <!-- 3 -->
      <g transform="translate(24.9075 281.189713) scale(0.1 -0.1)">
       <defs>
        <path id="DejaVuSans-33" d="M 2597 2516 
Q 3050 2419 3304 2112 
Q 3559 1806 3559 1356 
Q 3559 666 3084 287 
Q 2609 -91 1734 -91 
Q 1441 -91 1130 -33 
Q 819 25 488 141 
L 488 750 
Q 750 597 1062 519 
Q 1375 441 1716 441 
Q 2309 441 2620 675 
Q 2931 909 2931 1356 
Q 2931 1769 2642 2001 
Q 2353 2234 1838 2234 
L 1294 2234 
L 1294 2753 
L 1863 2753 
Q 2328 2753 2575 2939 
Q 2822 3125 2822 3475 
Q 2822 3834 2567 4026 
Q 2313 4219 1838 4219 
Q 1578 4219 1281 4162 
Q 984 4106 628 3988 
L 628 4550 
Q 988 4650 1302 4700 
Q 1616 4750 1894 4750 
Q 2613 4750 3031 4423 
Q 3450 4097 3450 3541 
Q 3450 3153 3228 2886 
Q 3006 2619 2597 2516 
z
" transform="scale(0.015625)"/>
       </defs>
       <use xlink:href="#DejaVuSans-33"/>
      </g>
     </g>
    </g>
    <g id="ytick_3">
     <g id="line2d_15">
      <path d="M 38.27 193.205801 
L 709.2 193.205801 
" clip-path="url(#pbeff08a49c)" style="fill: none; stroke: #b0b0b0; stroke-width: 0.8; stroke-linecap: square"/>
     </g>
     <g id="line2d_16">
      <g>
       <use xlink:href="#m53aac8d6cc" x="38.27" y="193.205801" style="stroke: #000000; stroke-width: 0.8"/>
      </g>
     </g>
     <g id="text_9">
      <!-- 4 -->
      <g transform="translate(24.9075 197.00502) scale(0.1 -0.1)">
       <use xlink:href="#DejaVuSans-34"/>
      </g>
     </g>
    </g>
    <g id="ytick_4">
     <g id="line2d_17">
      <path d="M 38.27 109.021107 
L 709.2 109.021107 
" clip-path="url(#pbeff08a49c)" style="fill: none; stroke: #b0b0b0; stroke-width: 0.8; stroke-linecap: square"/>
     </g>
     <g id="line2d_18">
      <g>
       <use xlink:href="#m53aac8d6cc" x="38.27" y="109.021107" style="stroke: #000000; stroke-width: 0.8"/>
      </g>
     </g>
     <g id="text_10">
      <!-- 5 -->
      <g transform="translate(24.9075 112.820326) scale(0.1 -0.1)">
       <defs>
        <path id="DejaVuSans-35" d="M 691 4666 
L 3169 4666 
L 3169 4134 
L 1269 4134 
L 1269 2991 
Q 1406 3038 1543 3061 
Q 1681 3084 1819 3084 
Q 2600 3084 3056 2656 
Q 3513 2228 3513 1497 
Q 3513 744 3044 326 
Q 2575 -91 1722 -91 
Q 1428 -91 1123 -41 
Q 819 9 494 109 
L 494 744 
Q 775 591 1075 516 
Q 1375 441 1709 441 
Q 2250 441 2565 725 
Q 2881 1009 2881 1497 
Q 2881 1984 2565 2268 
Q 2250 2553 1709 2553 
Q 1456 2553 1204 2497 
Q 953 2441 691 2322 
L 691 4666 
z
" transform="scale(0.015625)"/>
       </defs>
       <use xlink:href="#DejaVuSans-35"/>
      </g>
     </g>
    </g>
    <g id="ytick_5">
     <g id="line2d_19">
      <path d="M 38.27 24.836414 
L 709.2 24.836414 
" clip-path="url(#pbeff08a49c)" style="fill: none; stroke: #b0b0b0; stroke-width: 0.8; stroke-linecap: square"/>
     </g>
     <g id="line2d_20">
      <g>
       <use xlink:href="#m53aac8d6cc" x="38.27" y="24.836414" style="stroke: #000000; stroke-width: 0.8"/>
      </g>
     </g>
     <g id="text_11">
      <!-- 6 -->
      <g transform="translate(24.9075 28.635633) scale(0.1 -0.1)">
       <use xlink:href="#DejaVuSans-36"/>
      </g>
     </g>
    </g>
    <g id="text_12">
     <!-- Quantum Gates -->
     <g transform="translate(18.827813 239.925469) rotate(-90) scale(0.1 -0.1)">
      <defs>
       <path id="DejaVuSans-51" d="M 2522 4238 
Q 1834 4238 1429 3725 
Q 1025 3213 1025 2328 
Q 1025 1447 1429 934 
Q 1834 422 2522 422 
Q 3209 422 3611 934 
Q 4013 1447 4013 2328 
Q 4013 3213 3611 3725 
Q 3209 4238 2522 4238 
z
M 3406 84 
L 4238 -825 
L 3475 -825 
L 2784 -78 
Q 2681 -84 2626 -87 
Q 2572 -91 2522 -91 
Q 1538 -91 948 567 
Q 359 1225 359 2328 
Q 359 3434 948 4092 
Q 1538 4750 2522 4750 
Q 3503 4750 4090 4092 
Q 4678 3434 4678 2328 
Q 4678 1516 4351 937 
Q 4025 359 3406 84 
z
" transform="scale(0.015625)"/>
       <path id="DejaVuSans-75" d="M 544 1381 
L 544 3500 
L 1119 3500 
L 1119 1403 
Q 1119 906 1312 657 
Q 1506 409 1894 409 
Q 2359 409 2629 706 
Q 2900 1003 2900 1516 
L 2900 3500 
L 3475 3500 
L 3475 0 
L 2900 0 
L 2900 538 
Q 2691 219 2414 64 
Q 2138 -91 1772 -91 
Q 1169 -91 856 284 
Q 544 659 544 1381 
z
M 1991 3584 
L 1991 3584 
z
" transform="scale(0.015625)"/>
       <path id="DejaVuSans-61" d="M 2194 1759 
Q 1497 1759 1228 1600 
Q 959 1441 959 1056 
Q 959 750 1161 570 
Q 1363 391 1709 391 
Q 2188 391 2477 730 
Q 2766 1069 2766 1631 
L 2766 1759 
L 2194 1759 
z
M 3341 1997 
L 3341 0 
L 2766 0 
L 2766 531 
Q 2569 213 2275 61 
Q 1981 -91 1556 -91 
Q 1019 -91 701 211 
Q 384 513 384 1019 
Q 384 1609 779 1909 
Q 1175 2209 1959 2209 
L 2766 2209 
L 2766 2266 
Q 2766 2663 2505 2880 
Q 2244 3097 1772 3097 
Q 1472 3097 1187 3025 
Q 903 2953 641 2809 
L 641 3341 
Q 956 3463 1253 3523 
Q 1550 3584 1831 3584 
Q 2591 3584 2966 3190 
Q 3341 2797 3341 1997 
z
" transform="scale(0.015625)"/>
       <path id="DejaVuSans-6e" d="M 3513 2113 
L 3513 0 
L 2938 0 
L 2938 2094 
Q 2938 2591 2744 2837 
Q 2550 3084 2163 3084 
Q 1697 3084 1428 2787 
Q 1159 2491 1159 1978 
L 1159 0 
L 581 0 
L 581 3500 
L 1159 3500 
L 1159 2956 
Q 1366 3272 1645 3428 
Q 1925 3584 2291 3584 
Q 2894 3584 3203 3211 
Q 3513 2838 3513 2113 
z
" transform="scale(0.015625)"/>
       <path id="DejaVuSans-6d" d="M 3328 2828 
Q 3544 3216 3844 3400 
Q 4144 3584 4550 3584 
Q 5097 3584 5394 3201 
Q 5691 2819 5691 2113 
L 5691 0 
L 5113 0 
L 5113 2094 
Q 5113 2597 4934 2840 
Q 4756 3084 4391 3084 
Q 3944 3084 3684 2787 
Q 3425 2491 3425 1978 
L 3425 0 
L 2847 0 
L 2847 2094 
Q 2847 2600 2669 2842 
Q 2491 3084 2119 3084 
Q 1678 3084 1418 2786 
Q 1159 2488 1159 1978 
L 1159 0 
L 581 0 
L 581 3500 
L 1159 3500 
L 1159 2956 
Q 1356 3278 1631 3431 
Q 1906 3584 2284 3584 
Q 2666 3584 2933 3390 
Q 3200 3197 3328 2828 
z
" transform="scale(0.015625)"/>
       <path id="DejaVuSans-20" transform="scale(0.015625)"/>
       <path id="DejaVuSans-47" d="M 3809 666 
L 3809 1919 
L 2778 1919 
L 2778 2438 
L 4434 2438 
L 4434 434 
Q 4069 175 3628 42 
Q 3188 -91 2688 -91 
Q 1594 -91 976 548 
Q 359 1188 359 2328 
Q 359 3472 976 4111 
Q 1594 4750 2688 4750 
Q 3144 4750 3555 4637 
Q 3966 4525 4313 4306 
L 4313 3634 
Q 3963 3931 3569 4081 
Q 3175 4231 2741 4231 
Q 1884 4231 1454 3753 
Q 1025 3275 1025 2328 
Q 1025 1384 1454 906 
Q 1884 428 2741 428 
Q 3075 428 3337 486 
Q 3600 544 3809 666 
z
" transform="scale(0.015625)"/>
      </defs>
      <use xlink:href="#DejaVuSans-51"/>
      <use xlink:href="#DejaVuSans-75" transform="translate(78.710938 0)"/>
      <use xlink:href="#DejaVuSans-61" transform="translate(142.089844 0)"/>
      <use xlink:href="#DejaVuSans-6e" transform="translate(203.369141 0)"/>
      <use xlink:href="#DejaVuSans-74" transform="translate(266.748047 0)"/>
      <use xlink:href="#DejaVuSans-75" transform="translate(305.957031 0)"/>
      <use xlink:href="#DejaVuSans-6d" transform="translate(369.335938 0)"/>
      <use xlink:href="#DejaVuSans-20" transform="translate(466.748047 0)"/>
      <use xlink:href="#DejaVuSans-47" transform="translate(498.535156 0)"/>
      <use xlink:href="#DejaVuSans-61" transform="translate(576.025391 0)"/>
      <use xlink:href="#DejaVuSans-74" transform="translate(637.304688 0)"/>
      <use xlink:href="#DejaVuSans-65" transform="translate(676.513672 0)"/>
      <use xlink:href="#DejaVuSans-73" transform="translate(738.037109 0)"/>
     </g>
    </g>
   </g>
   <g id="line2d_21">
    <path d="M 68.766818 135.398978 
L 74.932552 141.432214 
L 80.923967 151.39407 
L 86.921838 148.868529 
L 92.79704 148.16699 
L 98.633505 159.251308 
L 104.457057 179.73625 
L 110.061096 188.435335 
L 115.342321 206.394736 
L 120.119958 232.351683 
L 124.381094 236.42061 
L 128.448541 242.734462 
L 132.528901 244.979387 
L 136.512418 246.663081 
L 140.431371 248.487083 
L 144.37615 246.10185 
L 148.346753 247.084005 
L 152.272163 248.346775 
L 156.158835 248.206467 
L 160.039051 247.925852 
L 167.812395 249.32893 
L 171.705524 248.487083 
L 175.592196 248.487083 
L 179.472412 248.346775 
L 183.371996 249.188622 
L 187.245756 248.908007 
L 191.125972 248.06616 
L 195.038469 249.048314 
L 198.918685 249.188622 
L 202.792445 249.469238 
L 206.679117 247.785544 
L 210.578701 248.206467 
L 214.478286 249.469238 
L 218.371414 249.188622 
L 222.25163 250.170777 
L 226.138302 248.627391 
L 230.024975 248.767699 
L 233.898734 249.188622 
L 237.798319 248.487083 
L 241.672079 249.188622 
L 245.545838 247.925852 
L 249.426054 249.048314 
L 253.286901 249.048314 
L 257.160661 249.188622 
L 261.040877 249.048314 
L 264.90818 249.32893 
L 268.775483 250.170777 
L 272.642787 248.627391 
L 276.535915 249.188622 
L 280.409675 249.609546 
L 284.289891 248.06616 
L 288.16365 247.645236 
L 292.03741 248.627391 
L 295.924082 247.504928 
L 299.804298 248.627391 
L 303.678057 248.767699 
L 307.56473 248.346775 
L 311.47077 248.487083 
L 315.383268 248.06616 
L 319.263484 249.469238 
L 323.137243 250.311085 
L 327.011003 249.609546 
L 334.758522 249.048314 
L 338.632282 249.609546 
L 342.506041 248.908007 
L 346.39917 249.609546 
L 350.272929 248.487083 
L 354.153145 249.890161 
L 358.026905 248.767699 
L 361.900664 251.293239 
L 365.774424 252.55601 
L 369.661096 278.232341 
L 373.534856 298.29636 
L 377.402159 302.224979 
L 381.282375 303.066826 
L 385.156135 305.171443 
L 389.023438 304.189289 
L 392.884285 305.872982 
L 396.751588 303.908673 
L 400.618892 305.171443 
L 404.486195 304.469904 
L 408.521361 300.120362 
L 412.485509 302.365287 
L 420.446085 300.681593 
L 424.377951 301.663748 
L 428.277535 302.505595 
L 432.338527 302.365287 
L 436.328499 302.084671 
L 440.402403 300.26067 
L 444.469851 303.207134 
L 448.39526 303.628057 
L 452.37232 302.505595 
L 456.336467 304.610212 
L 460.261877 302.78621 
L 464.232481 301.944363 
L 468.177259 302.365287 
L 472.076844 303.487749 
L 475.963516 303.628057 
L 479.850188 302.365287 
L 483.730404 304.189289 
L 487.604164 305.311751 
L 491.477923 304.469904 
L 495.351683 304.610212 
L 499.225443 304.890828 
L 503.099202 304.189289 
L 506.979418 304.890828 
L 510.853178 305.031136 
L 514.726937 309.380678 
L 517.980895 324.533923 
L 520.776459 330.426851 
L 523.475178 330.847775 
L 526.173897 330.988083 
L 528.81451 331.689622 
L 531.422841 333.513624 
L 534.01826 334.074855 
L 536.613679 338.705013 
L 539.196186 352.735795 
L 541.785148 356.94503 
L 544.367655 360.593033 
L 546.950161 361.013957 
L 549.532668 361.154265 
L 552.115174 361.575188 
L 554.704137 360.873649 
L 557.286643 361.43488 
L 562.451656 361.43488 
L 565.034162 361.575188 
L 567.623125 361.294572 
L 570.205631 361.575188 
L 583.118163 361.575188 
L 585.70067 361.43488 
L 590.878595 361.43488 
L 593.461102 361.013957 
L 596.043608 361.575188 
L 601.208621 361.013957 
L 603.791127 361.575188 
L 606.373634 361.575188 
L 608.95614 361.154265 
L 611.538646 361.43488 
L 614.121153 361.154265 
L 616.703659 361.43488 
L 619.286166 361.575188 
L 629.616191 361.575188 
L 632.205154 361.013957 
L 634.78766 361.294572 
L 639.952673 361.575188 
L 642.53518 361.154265 
L 645.117686 361.575188 
L 650.282699 361.575188 
L 652.865205 361.43488 
L 655.447712 361.575188 
L 658.030218 361.575188 
L 660.612724 360.733341 
L 663.208143 361.294572 
L 665.79065 361.575188 
L 678.703182 361.575188 
L 678.703182 361.575188 
" clip-path="url(#pbeff08a49c)" style="fill: none; stroke: #0000ff; stroke-width: 1.5; stroke-linecap: square"/>
   </g>
   <g id="line2d_22">
    <path d="M 68.837837 133.855592 
L 74.764689 147.605759 
L 80.833579 137.22298 
L 86.631306 142.414369 
L 92.635634 139.888828 
L 98.549573 137.363288 
L 104.489338 145.781757 
L 110.532403 137.643903 
L 116.310761 137.363288 
L 122.431301 139.187289 
L 128.409804 137.22298 
L 134.356025 136.802056 
L 140.147295 141.151599 
L 146.216185 137.363288 
L 152.427113 135.398978 
L 158.437897 135.398978 
L 164.287274 129.646357 
L 170.41427 132.873437 
L 176.412142 137.643903 
L 182.539138 142.414369 
L 188.575747 144.799602 
L 194.457405 144.518987 
L 200.44882 137.082672 
L 206.543535 137.924519 
L 212.780288 144.799602 
L 218.720053 144.93991 
L 224.737293 145.922065 
L 230.580213 138.906674 
L 236.81051 142.274061 
L 242.698625 130.347896 
L 248.631933 144.93991 
L 254.70728 136.661748 
L 260.679326 138.766366 
L 266.632003 144.378679 
L 272.597593 131.049436 
L 278.87954 145.360833 
L 284.657898 139.748521 
L 290.907563 147.605759 
L 296.666552 140.029136 
L 302.503017 142.554677 
L 308.462151 138.48575 
L 314.556866 146.623604 
L 320.477262 142.274061 
L 326.41057 134.557131 
L 332.53111 142.9756 
L 338.464419 142.414369 
L 344.352533 133.9959 
L 350.395598 137.924519 
L 356.645264 129.365742 
L 362.649591 139.046981 
L 368.473143 132.171898 
L 374.787371 140.730675 
L 380.630292 137.924519 
L 386.731464 143.957755 
L 392.742247 138.064827 
L 398.979 139.608213 
L 405.041434 146.20268 
L 411.239449 130.488204 
L 417.424552 133.154053 
L 423.370773 147.605759 
L 429.149131 141.011291 
L 435.269671 131.610667 
L 441.125505 146.90422 
L 447.045901 138.626058 
L 453.121247 138.205135 
L 459.332175 135.819902 
L 465.407521 140.730675 
L 471.44413 127.962663 
L 477.319332 143.817447 
L 483.343028 143.256216 
L 489.06328 145.360833 
L 495.074064 137.082672 
L 501.136497 137.503595 
L 507.302231 141.011291 
L 513.112871 142.554677 
L 519.194673 131.891282 
L 525.127982 147.465451 
L 531.216241 133.434669 
L 537.272218 139.608213 
L 543.205527 140.029136 
L 549.132379 141.011291 
L 555.336851 124.174352 
L 561.573604 125.998354 
L 567.584387 147.465451 
L 573.704928 124.875891 
L 579.754449 137.784211 
L 585.816883 147.746066 
L 591.918054 144.518987 
L 598.051507 125.437123 
L 603.926709 141.432214 
L 609.931036 140.590367 
L 616.032208 143.256216 
L 621.997797 143.67714 
L 627.931106 127.822356 
L 633.81922 144.098063 
L 640.023692 135.679594 
L 646.034476 142.133754 
L 652.142103 152.797148 
L 657.946287 141.432214 
L 664.073283 140.169444 
L 670.000135 147.605759 
L 675.830143 145.501141 
" clip-path="url(#pbeff08a49c)" style="fill: none; stroke: #ffa500; stroke-width: 1.5; stroke-linecap: square"/>
   </g>
   <g id="patch_3">
    <path d="M 38.27 390.04 
L 38.27 10.8 
" style="fill: none; stroke: #000000; stroke-width: 0.8; stroke-linejoin: miter; stroke-linecap: square"/>
   </g>
   <g id="patch_4">
    <path d="M 709.2 390.04 
L 709.2 10.8 
" style="fill: none; stroke: #000000; stroke-width: 0.8; stroke-linejoin: miter; stroke-linecap: square"/>
   </g>
   <g id="patch_5">
    <path d="M 38.27 390.04 
L 709.2 390.04 
" style="fill: none; stroke: #000000; stroke-width: 0.8; stroke-linejoin: miter; stroke-linecap: square"/>
   </g>
   <g id="patch_6">
    <path d="M 38.27 10.8 
L 709.2 10.8 
" style="fill: none; stroke: #000000; stroke-width: 0.8; stroke-linejoin: miter; stroke-linecap: square"/>
   </g>
   <g id="legend_1">
    <g id="patch_7">
     <path d="M 628.803125 385.04 
L 702.2 385.04 
Q 704.2 385.04 704.2 383.04 
L 704.2 340.005625 
Q 704.2 338.005625 702.2 338.005625 
L 628.803125 338.005625 
Q 626.803125 338.005625 626.803125 340.005625 
L 626.803125 383.04 
Q 626.803125 385.04 628.803125 385.04 
z
" style="fill: #ffffff; opacity: 0.8; stroke: #cccccc; stroke-linejoin: miter"/>
    </g>
    <g id="text_13">
     <!-- Agent -->
     <g transform="translate(650.701563 349.604062) scale(0.1 -0.1)">
      <defs>
       <path id="DejaVuSans-41" d="M 2188 4044 
L 1331 1722 
L 3047 1722 
L 2188 4044 
z
M 1831 4666 
L 2547 4666 
L 4325 0 
L 3669 0 
L 3244 1197 
L 1141 1197 
L 716 0 
L 50 0 
L 1831 4666 
z
" transform="scale(0.015625)"/>
       <path id="DejaVuSans-67" d="M 2906 1791 
Q 2906 2416 2648 2759 
Q 2391 3103 1925 3103 
Q 1463 3103 1205 2759 
Q 947 2416 947 1791 
Q 947 1169 1205 825 
Q 1463 481 1925 481 
Q 2391 481 2648 825 
Q 2906 1169 2906 1791 
z
M 3481 434 
Q 3481 -459 3084 -895 
Q 2688 -1331 1869 -1331 
Q 1566 -1331 1297 -1286 
Q 1028 -1241 775 -1147 
L 775 -588 
Q 1028 -725 1275 -790 
Q 1522 -856 1778 -856 
Q 2344 -856 2625 -561 
Q 2906 -266 2906 331 
L 2906 616 
Q 2728 306 2450 153 
Q 2172 0 1784 0 
Q 1141 0 747 490 
Q 353 981 353 1791 
Q 353 2603 747 3093 
Q 1141 3584 1784 3584 
Q 2172 3584 2450 3431 
Q 2728 3278 2906 2969 
L 2906 3500 
L 3481 3500 
L 3481 434 
z
" transform="scale(0.015625)"/>
      </defs>
      <use xlink:href="#DejaVuSans-41"/>
      <use xlink:href="#DejaVuSans-67" transform="translate(68.408203 0)"/>
      <use xlink:href="#DejaVuSans-65" transform="translate(131.884766 0)"/>
      <use xlink:href="#DejaVuSans-6e" transform="translate(193.408203 0)"/>
      <use xlink:href="#DejaVuSans-74" transform="translate(256.787109 0)"/>
     </g>
    </g>
    <g id="line2d_23">
     <path d="M 630.803125 360.782187 
L 640.803125 360.782187 
L 650.803125 360.782187 
" style="fill: none; stroke: #0000ff; stroke-width: 1.5; stroke-linecap: square"/>
    </g>
    <g id="text_14">
     <!-- PPO -->
     <g transform="translate(658.803125 364.282187) scale(0.1 -0.1)">
      <defs>
       <path id="DejaVuSans-50" d="M 1259 4147 
L 1259 2394 
L 2053 2394 
Q 2494 2394 2734 2622 
Q 2975 2850 2975 3272 
Q 2975 3691 2734 3919 
Q 2494 4147 2053 4147 
L 1259 4147 
z
M 628 4666 
L 2053 4666 
Q 2838 4666 3239 4311 
Q 3641 3956 3641 3272 
Q 3641 2581 3239 2228 
Q 2838 1875 2053 1875 
L 1259 1875 
L 1259 0 
L 628 0 
L 628 4666 
z
" transform="scale(0.015625)"/>
       <path id="DejaVuSans-4f" d="M 2522 4238 
Q 1834 4238 1429 3725 
Q 1025 3213 1025 2328 
Q 1025 1447 1429 934 
Q 1834 422 2522 422 
Q 3209 422 3611 934 
Q 4013 1447 4013 2328 
Q 4013 3213 3611 3725 
Q 3209 4238 2522 4238 
z
M 2522 4750 
Q 3503 4750 4090 4092 
Q 4678 3434 4678 2328 
Q 4678 1225 4090 567 
Q 3503 -91 2522 -91 
Q 1538 -91 948 565 
Q 359 1222 359 2328 
Q 359 3434 948 4092 
Q 1538 4750 2522 4750 
z
" transform="scale(0.015625)"/>
      </defs>
      <use xlink:href="#DejaVuSans-50"/>
      <use xlink:href="#DejaVuSans-50" transform="translate(60.302734 0)"/>
      <use xlink:href="#DejaVuSans-4f" transform="translate(120.605469 0)"/>
     </g>
    </g>
    <g id="line2d_24">
     <path d="M 630.803125 375.460312 
L 640.803125 375.460312 
L 650.803125 375.460312 
" style="fill: none; stroke: #ffa500; stroke-width: 1.5; stroke-linecap: square"/>
    </g>
    <g id="text_15">
     <!-- Random -->
     <g transform="translate(658.803125 378.960312) scale(0.1 -0.1)">
      <defs>
       <path id="DejaVuSans-52" d="M 2841 2188 
Q 3044 2119 3236 1894 
Q 3428 1669 3622 1275 
L 4263 0 
L 3584 0 
L 2988 1197 
Q 2756 1666 2539 1819 
Q 2322 1972 1947 1972 
L 1259 1972 
L 1259 0 
L 628 0 
L 628 4666 
L 2053 4666 
Q 2853 4666 3247 4331 
Q 3641 3997 3641 3322 
Q 3641 2881 3436 2590 
Q 3231 2300 2841 2188 
z
M 1259 4147 
L 1259 2491 
L 2053 2491 
Q 2509 2491 2742 2702 
Q 2975 2913 2975 3322 
Q 2975 3731 2742 3939 
Q 2509 4147 2053 4147 
L 1259 4147 
z
" transform="scale(0.015625)"/>
       <path id="DejaVuSans-64" d="M 2906 2969 
L 2906 4863 
L 3481 4863 
L 3481 0 
L 2906 0 
L 2906 525 
Q 2725 213 2448 61 
Q 2172 -91 1784 -91 
Q 1150 -91 751 415 
Q 353 922 353 1747 
Q 353 2572 751 3078 
Q 1150 3584 1784 3584 
Q 2172 3584 2448 3432 
Q 2725 3281 2906 2969 
z
M 947 1747 
Q 947 1113 1208 752 
Q 1469 391 1925 391 
Q 2381 391 2643 752 
Q 2906 1113 2906 1747 
Q 2906 2381 2643 2742 
Q 2381 3103 1925 3103 
Q 1469 3103 1208 2742 
Q 947 2381 947 1747 
z
" transform="scale(0.015625)"/>
       <path id="DejaVuSans-6f" d="M 1959 3097 
Q 1497 3097 1228 2736 
Q 959 2375 959 1747 
Q 959 1119 1226 758 
Q 1494 397 1959 397 
Q 2419 397 2687 759 
Q 2956 1122 2956 1747 
Q 2956 2369 2687 2733 
Q 2419 3097 1959 3097 
z
M 1959 3584 
Q 2709 3584 3137 3096 
Q 3566 2609 3566 1747 
Q 3566 888 3137 398 
Q 2709 -91 1959 -91 
Q 1206 -91 779 398 
Q 353 888 353 1747 
Q 353 2609 779 3096 
Q 1206 3584 1959 3584 
z
" transform="scale(0.015625)"/>
      </defs>
      <use xlink:href="#DejaVuSans-52"/>
      <use xlink:href="#DejaVuSans-61" transform="translate(67.232422 0)"/>
      <use xlink:href="#DejaVuSans-6e" transform="translate(128.511719 0)"/>
      <use xlink:href="#DejaVuSans-64" transform="translate(191.890625 0)"/>
      <use xlink:href="#DejaVuSans-6f" transform="translate(255.367188 0)"/>
      <use xlink:href="#DejaVuSans-6d" transform="translate(316.548828 0)"/>
     </g>
    </g>
   </g>
  </g>
 </g>
 <defs>
  <clipPath id="pbeff08a49c">
   <rect x="38.27" y="10.8" width="670.93" height="379.24"/>
  </clipPath>
 </defs>
</svg>
